<?xml version="1.0" encoding="UTF-8" standalone="no"?>
<!-- Created with Inkscape (http://www.inkscape.org/) -->

<svg
   version="1.1"
   id="svg73483"
   width="795.03467"
   height="793.70135"
   viewBox="0 0 795.03467 793.70135"
   sodipodi:docname="Atama Awase Mitsu Karakan.svg"
   inkscape:version="1.2 (dc2aeda, 2022-05-15)"
   xmlns:inkscape="http://www.inkscape.org/namespaces/inkscape"
   xmlns:sodipodi="http://sodipodi.sourceforge.net/DTD/sodipodi-0.dtd"
   xmlns="http://www.w3.org/2000/svg"
   xmlns:svg="http://www.w3.org/2000/svg">
  <defs
     id="defs73487">
    <clipPath
       clipPathUnits="userSpaceOnUse"
       id="clipPath74004">
      <path
         d="M -576.3691,585.5885 H 19.906905 V -9.6875027 H -576.3691 Z"
         id="path74006"
         style="stroke-width:0.999998" />
    </clipPath>
    <clipPath
       clipPathUnits="userSpaceOnUse"
       id="clipPath74010">
      <path
         d="M -574.5459,585.8522 H 21.730103 V -9.4238027 H -574.5459 Z"
         id="path74012"
         style="stroke-width:0.999998" />
    </clipPath>
    <clipPath
       clipPathUnits="userSpaceOnUse"
       id="clipPath74016">
      <path
         d="M -572.8174,586.1354 H 23.458606 V -9.1406027 H -572.8174 Z"
         id="path74018"
         style="stroke-width:0.999998" />
    </clipPath>
    <clipPath
       clipPathUnits="userSpaceOnUse"
       id="clipPath74022">
      <path
         d="M -567.7754,585.8522 H 28.500601 V -9.4238027 H -567.7754 Z"
         id="path74024"
         style="stroke-width:0.999998" />
    </clipPath>
    <clipPath
       clipPathUnits="userSpaceOnUse"
       id="clipPath74028">
      <path
         d="M -550.2637,577.3248 H 46.012306 V -17.951198 H -550.2637 Z"
         id="path74030"
         style="stroke-width:0.999998" />
    </clipPath>
    <clipPath
       clipPathUnits="userSpaceOnUse"
       id="clipPath74034">
      <path
         d="M -536.6982,584.5729 H 59.577804 V -10.7031 H -536.6982 Z"
         id="path74036"
         style="stroke-width:0.999998" />
    </clipPath>
    <clipPath
       clipPathUnits="userSpaceOnUse"
       id="clipPath74040">
      <path
         d="M -528.0898,575.3815 H 68.186199 V -19.8945 H -528.0898 Z"
         id="path74042"
         style="stroke-width:0.999998" />
    </clipPath>
    <clipPath
       clipPathUnits="userSpaceOnUse"
       id="clipPath74046">
      <path
         d="M -545.417,584.5729 H 50.859001 V -10.7031 H -545.417 Z"
         id="path74048"
         style="stroke-width:0.999998" />
    </clipPath>
    <clipPath
       clipPathUnits="userSpaceOnUse"
       id="clipPath74052">
      <path
         d="M -557.4951,577.8502 H 38.780903 V -17.4258 H -557.4951 Z"
         id="path74054"
         style="stroke-width:0.999998" />
    </clipPath>
    <clipPath
       clipPathUnits="userSpaceOnUse"
       id="clipPath74058">
      <path
         d="M -568.2266,575.819 H 28.049401 V -19.457003 H -568.2266 Z"
         id="path74060"
         style="stroke-width:0.999998" />
    </clipPath>
    <clipPath
       clipPathUnits="userSpaceOnUse"
       id="clipPath74064">
      <path
         d="M -531.1924,581.5885 H 65.083599 V -13.6875 H -531.1924 Z"
         id="path74066"
         style="stroke-width:0.999998" />
    </clipPath>
    <clipPath
       clipPathUnits="userSpaceOnUse"
       id="clipPath74071">
      <path
         d="M -542.9326,584.5729 H 53.343399 V -10.7031 H -542.9326 Z"
         id="path74073"
         style="stroke-width:0.999998" />
    </clipPath>
    <clipPath
       clipPathUnits="userSpaceOnUse"
       id="clipPath74078">
      <path
         d="M -556.4014,578.0143 H 39.874606 V -17.2617 H -556.4014 Z"
         id="path74080"
         style="stroke-width:0.999998" />
    </clipPath>
    <clipPath
       clipPathUnits="userSpaceOnUse"
       id="clipPath74084">
      <path
         d="M -586.5449,579.5026 H 9.7311002 V -15.7734 H -586.5449 Z"
         id="path74086"
         style="stroke-width:0.999998" />
    </clipPath>
    <clipPath
       clipPathUnits="userSpaceOnUse"
       id="clipPath74090">
      <path
         d="M -584.1943,578.9381 H 12.081705 V -16.337903 H -584.1943 Z"
         id="path74092"
         style="stroke-width:0.999998" />
    </clipPath>
    <clipPath
       clipPathUnits="userSpaceOnUse"
       id="clipPath74096">
      <path
         d="M -538.2217,577.9479 H 58.054299 V -17.328098 H -538.2217 Z"
         id="path74098"
         style="stroke-width:0.999998" />
    </clipPath>
    <clipPath
       clipPathUnits="userSpaceOnUse"
       id="clipPath74102">
      <path
         d="m -297.6387,270.8683 h 596.276 v -595.276 h -596.276 z"
         id="path74104"
         style="stroke-width:0.999998" />
    </clipPath>
    <clipPath
       clipPathUnits="userSpaceOnUse"
       id="clipPath74108">
      <path
         d="m -279.7568,301.8405 h 596.276 v -595.276 h -596.276 z"
         id="path74110"
         style="stroke-width:0.999998" />
    </clipPath>
    <clipPath
       clipPathUnits="userSpaceOnUse"
       id="clipPath74114">
      <path
         d="m -315.5186,301.8424 h 596.276 v -595.276 h -596.276 z"
         id="path74116"
         style="stroke-width:0.999998" />
    </clipPath>
    <clipPath
       clipPathUnits="userSpaceOnUse"
       id="clipPath74120">
      <path
         d="M -548.9834,585.8522 H 47.292601 V -9.4238027 H -548.9834 Z"
         id="path74122"
         style="stroke-width:0.999998" />
    </clipPath>
    <clipPath
       clipPathUnits="userSpaceOnUse"
       id="clipPath74126">
      <path
         d="M -564.5732,585.8483 H 31.702801 V -9.4277027 H -564.5732 Z"
         id="path74128"
         style="stroke-width:0.999998" />
    </clipPath>
    <clipPath
       clipPathUnits="userSpaceOnUse"
       id="clipPath74132">
      <path
         d="M -557.0645,585.8483 H 39.211501 V -9.4277027 H -557.0645 Z"
         id="path74134"
         style="stroke-width:0.999998" />
    </clipPath>
    <clipPath
       clipPathUnits="userSpaceOnUse"
       id="clipPath74138">
      <path
         d="M -553.8975,585.8483 H 42.378504 V -9.4277027 H -553.8975 Z"
         id="path74140"
         style="stroke-width:0.999998" />
    </clipPath>
    <clipPath
       clipPathUnits="userSpaceOnUse"
       id="clipPath74144">
      <path
         d="M -540.8213,585.8483 H 55.454701 V -9.4277027 H -540.8213 Z"
         id="path74146"
         style="stroke-width:0.999998" />
    </clipPath>
    <clipPath
       clipPathUnits="userSpaceOnUse"
       id="clipPath74150">
      <path
         d="M -561.4131,585.8522 H 34.862903 V -9.4238027 H -561.4131 Z"
         id="path74152"
         style="stroke-width:0.999998" />
    </clipPath>
  </defs>
  <sodipodi:namedview
     id="namedview73485"
     pagecolor="#ffffff"
     bordercolor="#000000"
     borderopacity="0.25"
     inkscape:showpageshadow="2"
     inkscape:pageopacity="0.0"
     inkscape:pagecheckerboard="0"
     inkscape:deskcolor="#d1d1d1"
     showgrid="false"
     inkscape:zoom="0.29734106"
     inkscape:cx="-215.24105"
     inkscape:cy="396.85068"
     inkscape:window-width="1419"
     inkscape:window-height="456"
     inkscape:window-x="0"
     inkscape:window-y="25"
     inkscape:window-maximized="0"
     inkscape:current-layer="svg73483">
    <inkscape:page
       x="0"
       y="0"
       id="page73489"
       width="795.03467"
       height="793.70135" />
  </sodipodi:namedview>
  <path
     d="M 396.852 361.158 C 451.077 361.158 497.364 327.237 515.701 279.464 C 523.248 281.137 531.089 282.033 539.14 282.033 C 598.657 282.033 646.907 233.78 646.907 174.262 C 646.907 114.741 601.593 68.4214 539.14 66.4947 C 502.488 65.3627 478.713 82.568 478.376 109.781 C 478.197 124.185 490.053 135.864 504.46 135.864 C 518.866 135.864 530.545 124.187 530.545 109.781 C 530.545 104.159 528.748 98.968 525.721 94.7093 C 530.086 93.9787 534.566 93.592 539.14 93.592 C 583.692 93.592 619.81 129.708 619.81 174.262 C 619.81 218.814 583.692 254.934 539.14 254.934 C 523.526 254.934 508.954 250.494 496.605 242.816 C 492.081 293.948 449.159 334.049 396.852 334.049 C 344.545 334.049 301.624 293.948 297.099 242.816 C 284.75 250.494 270.176 254.934 254.566 254.934 C 210.012 254.934 173.894 218.814 173.894 174.262 C 173.894 129.708 210.012 93.592 254.566 93.592 C 259.138 93.592 263.618 93.9787 267.982 94.7093 C 264.958 98.968 263.159 104.159 263.159 109.781 C 263.159 124.187 274.838 135.864 289.244 135.864 C 303.651 135.864 315.508 124.185 315.328 109.781 C 314.991 82.568 291.218 65.3627 254.566 66.4947 C 192.111 68.4214 146.797 114.741 146.797 174.262 C 146.797 233.78 195.047 282.033 254.566 282.033 C 262.616 282.033 270.456 281.137 278.004 279.464 C 296.34 327.237 342.627 361.158 396.852 361.158"
     style="fill:#000000;fill-opacity:1;fill-rule:nonzero;stroke:none"
     id="path73603" />
  <path
     d="M 373.009 402.454 C 345.894 355.491 293.376 332.368 242.835 340.371 C 240.512 333 237.367 325.762 233.341 318.79 C 203.583 267.246 137.667 249.585 86.1244 279.344 C 34.5778 309.104 17.1219 371.51 46.6791 426.561 C 64.0258 458.869 90.8124 470.852 114.547 457.539 C 127.111 450.493 131.299 434.383 124.095 421.907 C 116.891 409.433 100.939 405.157 88.463 412.363 C 83.5937 415.173 79.9964 419.321 77.8217 424.074 C 75.0071 420.659 72.4324 416.97 70.1471 413.014 C 47.8711 374.426 61.0884 325.088 99.6737 302.81 C 138.258 280.536 187.596 293.754 209.872 332.341 C 217.679 345.859 221.12 360.699 220.645 375.231 C 267.189 353.586 323.376 370.707 349.53 416.009 C 375.684 461.309 362.417 518.53 320.398 548.014 C 333.222 554.868 344.353 565.266 352.16 578.787 C 374.436 617.372 361.214 666.711 322.632 688.987 C 284.045 711.263 234.709 698.041 212.433 659.459 C 210.148 655.5 208.241 651.425 206.692 647.281 C 211.892 647.773 217.287 646.732 222.155 643.923 C 234.632 636.719 238.905 620.765 231.703 608.289 C 224.499 595.814 208.455 591.386 196.071 598.743 C 172.674 612.644 169.66 641.831 188.965 673.008 C 221.861 726.131 284.635 742.216 336.181 712.456 C 387.722 682.699 405.386 616.781 375.626 565.238 C 371.602 558.266 366.908 551.926 361.684 546.224 C 393.886 506.456 400.122 449.415 373.009 402.454"
     style="fill:#000000;fill-opacity:1;fill-rule:nonzero;stroke:none"
     id="path73607" />
  <path
     d="M 420.691 402.457 C 393.578 449.418 399.812 506.459 432.016 546.227 C 426.791 551.926 422.098 558.269 418.071 565.241 C 388.314 616.784 405.976 682.702 457.518 712.459 C 509.065 742.219 571.836 726.134 604.733 673.011 C 624.04 641.834 621.028 612.647 597.629 598.746 C 585.244 591.389 569.2 595.817 561.996 608.292 C 554.793 620.768 559.067 636.722 571.545 643.926 C 576.412 646.735 581.805 647.776 587.005 647.284 C 585.457 651.428 583.551 655.5 581.267 659.462 C 558.991 698.044 509.653 711.266 471.066 688.99 C 432.484 666.714 419.263 617.375 441.542 578.79 C 449.346 565.269 460.478 554.871 473.3 548.017 C 431.283 518.533 418.015 461.312 444.168 416.009 C 470.323 370.71 526.511 353.589 573.053 375.234 C 572.579 360.702 576.02 345.861 583.825 332.341 C 606.101 293.759 655.441 280.537 694.025 302.813 C 732.61 325.091 745.829 374.429 723.552 413.014 C 721.266 416.973 718.692 420.662 715.878 424.077 C 713.702 419.324 710.104 415.176 705.236 412.366 C 692.76 405.16 676.806 409.436 669.604 421.91 C 662.401 434.386 666.589 450.496 679.152 457.545 C 702.888 470.855 729.674 458.872 747.02 426.564 C 776.577 371.513 759.119 309.107 707.573 279.347 C 656.032 249.588 590.116 267.247 560.359 318.792 C 556.332 325.765 553.188 333.003 550.864 340.374 C 500.324 332.371 447.803 355.492 420.691 402.457"
     style="fill:#000000;fill-opacity:1;fill-rule:nonzero;stroke:none"
     id="path73611" />
</svg>
