<?xml version="1.0" encoding="UTF-8" standalone="no"?>
<!-- Created with Inkscape (http://www.inkscape.org/) -->

<svg
   version="1.1"
   id="svg68897"
   width="795.03467"
   height="793.70135"
   viewBox="0 0 795.03467 793.70135"
   sodipodi:docname="Futokanwani Mitsu Kashiwa.svg"
   inkscape:version="1.2 (dc2aeda, 2022-05-15)"
   xmlns:inkscape="http://www.inkscape.org/namespaces/inkscape"
   xmlns:sodipodi="http://sodipodi.sourceforge.net/DTD/sodipodi-0.dtd"
   xmlns="http://www.w3.org/2000/svg"
   xmlns:svg="http://www.w3.org/2000/svg">
  <defs
     id="defs68901">
    <clipPath
       clipPathUnits="userSpaceOnUse"
       id="clipPath69502">
      <path
         d="M -536.6982,584.5729 H 59.577804 V -10.7031 H -536.6982 Z"
         id="path69504"
         style="stroke-width:0.999998" />
    </clipPath>
    <clipPath
       clipPathUnits="userSpaceOnUse"
       id="clipPath69508">
      <path
         d="M -531.1924,581.5885 H 65.083599 V -13.6875 H -531.1924 Z"
         id="path69510"
         style="stroke-width:0.999998" />
    </clipPath>
    <clipPath
       clipPathUnits="userSpaceOnUse"
       id="clipPath69514">
      <path
         d="M -542.9326,584.5729 H 53.343399 V -10.7031 H -542.9326 Z"
         id="path69516"
         style="stroke-width:0.999998" />
    </clipPath>
    <clipPath
       clipPathUnits="userSpaceOnUse"
       id="clipPath69520">
      <path
         d="M -540.8213,585.8483 H 55.454701 V -9.4277027 H -540.8213 Z"
         id="path69522"
         style="stroke-width:0.999998" />
    </clipPath>
    <clipPath
       clipPathUnits="userSpaceOnUse"
       id="clipPath69526">
      <path
         d="M -557.0645,585.8483 H 39.211501 V -9.4277027 H -557.0645 Z"
         id="path69528"
         style="stroke-width:0.999998" />
    </clipPath>
    <clipPath
       clipPathUnits="userSpaceOnUse"
       id="clipPath69532">
      <path
         d="M -545.417,584.5729 H 50.859001 V -10.7031 H -545.417 Z"
         id="path69534"
         style="stroke-width:0.999998" />
    </clipPath>
    <clipPath
       clipPathUnits="userSpaceOnUse"
       id="clipPath69538">
      <path
         d="M -553.8975,585.8483 H 42.378504 V -9.4277027 H -553.8975 Z"
         id="path69540"
         style="stroke-width:0.999998" />
    </clipPath>
    <clipPath
       clipPathUnits="userSpaceOnUse"
       id="clipPath69544">
      <path
         d="M -548.9834,585.8522 H 47.292601 V -9.4238027 H -548.9834 Z"
         id="path69546"
         style="stroke-width:0.999998" />
    </clipPath>
    <clipPath
       clipPathUnits="userSpaceOnUse"
       id="clipPath69550">
      <path
         d="m -158.7607,492.8033 h 596.276 v -595.276 h -596.276 z"
         id="path69552"
         style="stroke-width:0.999998" />
    </clipPath>
    <clipPath
       clipPathUnits="userSpaceOnUse"
       id="clipPath69556">
      <path
         d="m -436.5137,492.8033 h 596.276 v -595.276 h -596.276 z"
         id="path69558"
         style="stroke-width:0.999998" />
    </clipPath>
    <clipPath
       clipPathUnits="userSpaceOnUse"
       id="clipPath69562">
      <path
         d="M -522.3457,228.6456 H 73.930299 v -595.276 H -522.3457 Z"
         id="path69564"
         style="stroke-width:0.999998" />
    </clipPath>
    <clipPath
       clipPathUnits="userSpaceOnUse"
       id="clipPath69568">
      <path
         d="m -319.3184,302.5612 h 596.276 v -595.276 h -596.276 z"
         id="path69570"
         style="stroke-width:0.999998" />
    </clipPath>
    <clipPath
       clipPathUnits="userSpaceOnUse"
       id="clipPath69574">
      <path
         d="m -384.4912,199.0646 h 596.276 v -595.276 h -596.276 z"
         id="path69576"
         style="stroke-width:0.999998" />
    </clipPath>
    <clipPath
       clipPathUnits="userSpaceOnUse"
       id="clipPath69580">
      <path
         d="m -164.5195,279.2238 h 596.276 v -595.276 h -596.276 z"
         id="path69582"
         style="stroke-width:0.999998" />
    </clipPath>
    <clipPath
       clipPathUnits="userSpaceOnUse"
       id="clipPath69586">
      <path
         d="m -343.9277,429.6451 h 596.276 v -595.276 h -596.276 z"
         id="path69588"
         style="stroke-width:0.999998" />
    </clipPath>
    <clipPath
       clipPathUnits="userSpaceOnUse"
       id="clipPath69592">
      <path
         d="M -538.2217,577.9479 H 58.054299 V -17.328098 H -538.2217 Z"
         id="path69594"
         style="stroke-width:0.999998" />
    </clipPath>
    <clipPath
       clipPathUnits="userSpaceOnUse"
       id="clipPath69598">
      <path
         d="M -528.0898,575.3815 H 68.186199 V -19.8945 H -528.0898 Z"
         id="path69600"
         style="stroke-width:0.999998" />
    </clipPath>
    <clipPath
       clipPathUnits="userSpaceOnUse"
       id="clipPath69604">
      <path
         d="M -576.3691,585.5885 H 19.906905 V -9.6875027 H -576.3691 Z"
         id="path69606"
         style="stroke-width:0.999998" />
    </clipPath>
    <clipPath
       clipPathUnits="userSpaceOnUse"
       id="clipPath69610">
      <path
         d="M -561.4131,585.8522 H 34.862903 V -9.4238027 H -561.4131 Z"
         id="path69612"
         style="stroke-width:0.999998" />
    </clipPath>
    <clipPath
       clipPathUnits="userSpaceOnUse"
       id="clipPath69617">
      <path
         d="M -584.1943,578.9381 H 12.081705 V -16.337903 H -584.1943 Z"
         id="path69619"
         style="stroke-width:0.999998" />
    </clipPath>
    <clipPath
       clipPathUnits="userSpaceOnUse"
       id="clipPath69623">
      <path
         d="M -556.4014,578.0143 H 39.874606 V -17.2617 H -556.4014 Z"
         id="path69625"
         style="stroke-width:0.999998" />
    </clipPath>
    <clipPath
       clipPathUnits="userSpaceOnUse"
       id="clipPath69629">
      <path
         d="M -557.4951,577.8502 H 38.780903 V -17.4258 H -557.4951 Z"
         id="path69631"
         style="stroke-width:0.999998" />
    </clipPath>
    <clipPath
       clipPathUnits="userSpaceOnUse"
       id="clipPath69635">
      <path
         d="M -572.8174,586.1354 H 23.458606 V -9.1406027 H -572.8174 Z"
         id="path69637"
         style="stroke-width:0.999998" />
    </clipPath>
    <clipPath
       clipPathUnits="userSpaceOnUse"
       id="clipPath69641">
      <path
         d="M -574.5459,585.8522 H 21.730103 V -9.4238027 H -574.5459 Z"
         id="path69643"
         style="stroke-width:0.999998" />
    </clipPath>
    <clipPath
       clipPathUnits="userSpaceOnUse"
       id="clipPath69647">
      <path
         d="m -72.9297,228.6456 h 596.276 v -595.276 h -596.276 z"
         id="path69649"
         style="stroke-width:0.999998" />
    </clipPath>
    <clipPath
       clipPathUnits="userSpaceOnUse"
       id="clipPath69653">
      <path
         d="m -297.6377,65.3859 h 596.276 v -595.276 h -596.276 z"
         id="path69655"
         style="stroke-width:0.999998" />
    </clipPath>
    <clipPath
       clipPathUnits="userSpaceOnUse"
       id="clipPath69659">
      <path
         d="M -568.2266,575.819 H 28.049401 V -19.457003 H -568.2266 Z"
         id="path69661"
         style="stroke-width:0.999998" />
    </clipPath>
    <clipPath
       clipPathUnits="userSpaceOnUse"
       id="clipPath69665">
      <path
         d="M -564.5732,585.8483 H 31.702801 V -9.4277027 H -564.5732 Z"
         id="path69667"
         style="stroke-width:0.999998" />
    </clipPath>
    <clipPath
       clipPathUnits="userSpaceOnUse"
       id="clipPath69672">
      <path
         d="M -567.7754,585.8522 H 28.500601 V -9.4238027 H -567.7754 Z"
         id="path69674"
         style="stroke-width:0.999998" />
    </clipPath>
    <clipPath
       clipPathUnits="userSpaceOnUse"
       id="clipPath69678">
      <path
         d="M -586.5449,579.5026 H 9.7311002 V -15.7734 H -586.5449 Z"
         id="path69680"
         style="stroke-width:0.999998" />
    </clipPath>
    <clipPath
       clipPathUnits="userSpaceOnUse"
       id="clipPath69684">
      <path
         d="M -550.2637,577.3248 H 46.012306 V -17.951198 H -550.2637 Z"
         id="path69686"
         style="stroke-width:0.999998" />
    </clipPath>
  </defs>
  <sodipodi:namedview
     id="namedview68899"
     pagecolor="#ffffff"
     bordercolor="#000000"
     borderopacity="0.25"
     inkscape:showpageshadow="2"
     inkscape:pageopacity="0.0"
     inkscape:pagecheckerboard="0"
     inkscape:deskcolor="#d1d1d1"
     showgrid="false"
     inkscape:zoom="0.29734106"
     inkscape:cx="-215.24105"
     inkscape:cy="396.85068"
     inkscape:window-width="1419"
     inkscape:window-height="456"
     inkscape:window-x="0"
     inkscape:window-y="25"
     inkscape:window-maximized="0"
     inkscape:current-layer="svg68897">
    <inkscape:page
       x="0"
       y="0"
       id="page68903"
       width="795.03467"
       height="793.70135" />
  </sodipodi:namedview>
  <path
     d="M 396.85 87.1812 C 439.822 87.1812 480.776 95.7972 518.1 111.376 C 515.85 113.154 513.618 115.749 512.631 117.285 C 502.611 132.872 507.043 153.132 522.874 163.598 C 536.01 172.281 560.488 171.432 573.454 150.042 C 598.577 108.601 555.159 61.8439 482.084 47.0893 C 454.526 41.524 426.199 37.088 396.85 37.088 C 367.499 37.088 339.174 41.524 311.616 47.0893 C 238.542 61.8439 195.123 108.601 220.246 150.042 C 233.212 171.432 257.69 172.281 270.826 163.598 C 286.658 153.132 291.089 132.872 281.07 117.285 C 280.081 115.749 277.849 113.154 275.6 111.376 C 312.925 95.7972 353.878 87.1812 396.85 87.1812"
     style="fill:#000000;fill-opacity:1;fill-rule:nonzero;stroke:none"
     id="path69017" />
  <path
     d="M 97.2396 304.861 C 110.518 263.993 131.37 227.704 157.718 197.023 C 158.713 199.711 160.494 202.636 161.65 204.051 C 173.375 218.395 194.014 220.443 208.861 208.62 C 221.177 198.811 227.933 175.268 211.599 156.328 C 179.95 119.627 122.064 146.471 85.4476 211.409 C 71.6397 235.9 58.6664 261.469 49.5971 289.382 C 40.5291 317.294 35.9944 345.605 32.7704 373.535 C 24.2224 447.591 55.2757 503.334 102.452 492.243 C 126.8 486.525 135.172 463.506 130.973 448.329 C 125.912 430.039 108.013 419.563 90.0916 424.277 C 88.3263 424.741 85.169 426.063 82.781 427.651 C 79.4996 387.342 83.961 345.73 97.2396 304.861"
     style="fill:#000000;fill-opacity:1;fill-rule:nonzero;stroke:none"
     id="path69021" />
  <path
     d="M 211.681 657.071 C 176.916 631.814 148.846 600.771 127.811 566.23 C 130.675 566.113 134.005 565.323 135.708 564.662 C 152.974 557.943 161.3 538.949 154.644 521.175 C 149.12 506.429 128.816 492.73 105.756 502.41 C 61.0707 521.17 68.7134 584.519 119.159 639.41 C 138.184 660.107 158.492 680.35 182.237 697.598 C 205.982 714.85 231.505 727.909 257.07 739.607 C 324.863 770.625 387.473 758.316 391.505 710.022 C 393.589 685.099 374.286 670.022 358.554 669.323 C 339.594 668.488 324.098 682.271 323.043 700.771 C 322.939 702.598 323.221 706.008 323.997 708.768 C 284.643 699.432 246.445 682.331 211.681 657.071"
     style="fill:#000000;fill-opacity:1;fill-rule:nonzero;stroke:none"
     id="path69025" />
  <path
     d="M 582.018 657.071 C 547.255 682.331 509.056 699.432 469.705 708.766 C 470.48 706.006 470.761 702.598 470.656 700.771 C 469.601 682.274 454.108 668.488 435.148 669.323 C 419.417 670.022 400.113 685.099 402.196 710.022 C 406.228 758.316 468.838 770.625 536.63 739.607 C 562.197 727.909 587.721 714.85 611.465 697.598 C 635.211 680.35 655.516 660.107 674.542 639.41 C 724.99 584.519 732.63 521.17 687.944 502.41 C 664.884 492.727 644.583 506.429 639.058 521.173 C 632.402 538.949 640.726 557.943 657.994 564.665 C 659.695 565.326 663.027 566.113 665.894 566.23 C 644.854 600.771 616.785 631.814 582.018 657.071"
     style="fill:#000000;fill-opacity:1;fill-rule:nonzero;stroke:none"
     id="path69029" />
  <path
     d="M 696.461 304.861 C 709.741 345.73 714.204 387.343 710.918 427.651 C 708.533 426.063 705.376 424.741 703.608 424.277 C 685.69 419.563 667.789 430.037 662.728 448.329 C 658.528 463.506 666.902 486.522 691.249 492.243 C 738.428 503.334 769.479 447.589 760.932 373.535 C 757.706 345.605 753.173 317.294 744.102 289.381 C 735.036 261.466 722.061 235.9 708.254 211.409 C 671.64 146.471 613.752 119.627 582.101 156.328 C 565.767 175.267 572.523 198.809 584.84 208.619 C 599.687 220.443 620.323 218.395 632.052 204.051 C 633.209 202.636 634.985 199.711 635.984 197.02 C 662.332 227.705 683.181 263.993 696.461 304.861"
     style="fill:#000000;fill-opacity:1;fill-rule:nonzero;stroke:none"
     id="path69033" />
  <path
     d="M 425.758 403.415 C 425.758 419.384 412.811 432.33 396.846 432.33 C 380.878 432.33 367.938 419.384 367.938 403.415 C 367.938 387.452 380.878 374.508 396.846 374.508 C 412.811 374.508 425.758 387.452 425.758 403.415"
     style="fill:#000000;fill-opacity:1;fill-rule:nonzero;stroke:none"
     id="path69037" />
  <path
     d="M 512.655 265.419 C 512.655 248.494 503.19 233.782 489.26 226.28 C 490.538 222.142 491.224 217.748 491.224 213.191 C 491.224 188.655 471.334 168.765 446.796 168.765 C 442.542 168.765 438.434 169.374 434.541 170.491 C 426.691 157.931 412.75 149.571 396.847 149.571 C 380.949 149.571 367.005 157.931 359.155 170.491 C 355.261 169.374 351.154 168.765 346.899 168.765 C 322.363 168.765 302.472 188.655 302.472 213.191 C 302.472 217.748 303.16 222.142 304.436 226.28 C 290.509 233.782 281.042 248.494 281.042 265.419 C 281.042 284.208 292.71 300.262 309.192 306.756 C 308.357 310.232 307.905 313.852 307.905 317.584 C 307.933 329.136 311.356 347.795 331.766 359.527 L 365.282 378.881 C 371.523 370.857 380.755 365.28 391.307 363.815 L 391.307 355.021 C 378.894 352.821 363.793 346.779 348.485 335.872 C 337.571 327.991 327.395 316.836 319.433 304.666 C 313.713 295.915 308.889 286.044 306.257 277.666 C 303.626 269.291 302.914 261.368 302.808 254.978 C 302.709 248.996 304.498 235.632 305.766 235.486 C 307.034 235.339 308.881 247.836 310.48 254.658 C 311.973 261.027 313.57 266.483 316.551 274.474 C 319.446 282.224 324.249 292.036 329.969 300.442 C 337.081 310.887 345.909 320.48 354.929 326.859 C 368.055 336.281 381.113 341.589 391.307 343.748 L 391.307 327.404 C 378.922 325.054 364.121 318.314 351.631 306.17 C 340.091 294.847 332.503 281.77 327.61 268.764 C 324.263 259.879 322.011 248.187 321.381 243.155 C 320.245 234.06 320.315 229.228 320.671 224.684 C 321.49 214.191 325.49 207.77 326.242 207.808 C 326.993 207.85 328.153 220.532 328.77 225.255 C 329.55 231.22 330.189 234.982 331.397 241.236 C 332.551 247.212 335.233 257.983 338.643 266.58 C 343.074 277.743 349.697 288.758 359.391 298.251 C 369.271 308.039 381.537 313.778 391.307 316.095 L 391.307 299.772 C 380.402 295.858 367.321 287.694 357.821 273.248 C 352.046 264.391 348.255 255.092 345.842 245.978 C 343.793 238.248 342.762 231.147 342.335 223.334 C 341.906 215.496 342.413 209.951 343.685 202.951 C 345.247 194.353 350.454 184.718 351.261 184.918 C 352.066 185.122 351.366 198.846 351.426 204.228 C 351.499 210.691 351.714 215.095 352.635 222.694 C 353.573 230.428 354.823 236.842 356.75 243.879 C 358.915 251.782 362.215 259.73 367.097 267.188 C 373.837 277.584 383.175 284.171 391.307 287.839 L 391.307 272.259 C 391.245 272.204 391.178 272.146 391.115 272.088 C 382.079 263.738 375.273 253.114 371.223 240.704 C 368.418 232.104 367.602 222.002 367.433 212.494 C 367.266 203.092 368.825 193.637 370.411 187.642 C 372.699 179.011 378.174 168.527 379.751 168.817 C 381.329 169.106 378.517 184.185 378.021 189.134 C 377.381 195.525 377.117 204.688 377.55 212.494 C 378.009 220.762 379.526 230.999 382.266 238.795 C 384.487 245.114 387.541 250.787 391.307 255.811 L 391.307 212.891 C 391.307 177.947 396.031 162.431 396.847 162.431 C 397.665 162.431 402.386 177.947 402.386 212.891 L 402.386 255.811 C 406.155 250.787 409.209 245.114 411.429 238.795 C 414.17 230.999 415.685 220.762 416.146 212.494 C 416.578 204.688 416.315 195.525 415.677 189.134 C 415.182 184.185 412.366 169.106 413.945 168.817 C 415.523 168.527 420.997 179.011 423.285 187.642 C 424.873 193.637 426.429 203.092 426.263 212.494 C 426.095 222.002 425.278 232.104 422.473 240.704 C 418.422 253.114 411.618 263.738 402.582 272.088 C 402.517 272.146 402.45 272.204 402.386 272.259 L 402.386 287.839 C 410.521 284.171 419.861 277.584 426.599 267.188 C 431.481 259.73 434.782 251.782 436.945 243.879 C 438.87 236.842 440.123 230.428 441.062 222.694 C 441.985 215.095 442.198 210.691 442.271 204.228 C 442.331 198.846 441.63 185.122 442.437 184.918 C 443.243 184.718 448.45 194.353 450.01 202.951 C 451.284 209.951 451.79 215.496 451.362 223.334 C 450.935 231.147 449.904 238.248 447.855 245.978 C 445.439 255.092 441.651 264.391 435.874 273.248 C 426.378 287.694 413.295 295.858 402.386 299.772 L 402.386 316.095 C 412.161 313.778 424.425 308.039 434.303 298.251 C 443.999 288.758 450.623 277.743 455.052 266.58 C 458.462 257.983 461.146 247.212 462.298 241.236 C 463.506 234.982 464.146 231.22 464.927 225.255 C 465.544 220.532 466.703 207.85 467.455 207.808 C 468.204 207.77 472.206 214.191 473.026 224.684 C 473.379 229.228 473.452 234.06 472.314 243.155 C 471.683 248.187 469.434 259.879 466.087 268.764 C 461.192 281.77 453.603 294.847 442.066 306.17 C 429.575 318.314 414.774 325.054 402.386 327.404 L 402.386 343.748 C 412.585 341.589 425.641 336.281 438.769 326.859 C 447.786 320.48 456.616 310.887 463.728 300.442 C 469.446 292.036 474.251 282.224 477.144 274.474 C 480.127 266.483 481.724 261.027 483.216 254.658 C 484.815 247.836 486.662 235.339 487.93 235.486 C 489.199 235.632 490.987 248.996 490.888 254.978 C 490.782 261.368 490.071 269.291 487.439 277.666 C 484.807 286.044 479.984 295.915 474.262 304.666 C 466.3 316.836 456.127 327.991 445.211 335.872 C 429.903 346.779 414.802 352.821 402.386 355.021 L 402.386 363.815 C 412.939 365.28 422.166 370.857 428.41 378.877 L 461.922 359.527 C 482.33 347.795 485.751 329.131 485.78 317.582 C 485.78 313.847 485.339 310.232 484.504 306.756 C 500.987 300.262 512.655 284.208 512.655 265.419"
     style="fill:#000000;fill-opacity:1;fill-rule:nonzero;stroke:none"
     id="path69041" />
  <path
     d="M 219.359 372.298 C 204.7 380.765 196.692 396.319 197.16 412.129 C 192.939 413.091 188.79 414.693 184.844 416.971 C 163.595 429.241 156.314 456.414 168.582 477.664 C 170.708 481.347 173.291 484.602 176.206 487.414 C 169.252 500.492 168.983 516.744 176.935 530.516 C 184.886 544.29 199.098 552.18 213.898 552.7 C 214.878 556.631 216.403 560.49 218.53 564.175 C 230.799 585.424 257.971 592.708 279.219 580.437 C 283.164 578.161 286.627 575.367 289.575 572.195 C 303.033 580.505 320.507 581.349 335.165 572.883 C 351.437 563.492 359.505 545.354 356.888 527.836 C 360.317 526.823 363.679 525.404 366.909 523.534 C 376.9 517.74 391.348 505.44 391.305 481.902 L 391.307 443.198 C 381.236 441.804 371.791 436.597 365.247 428.187 C 361.493 430.357 358.3 432.201 357.629 432.586 C 361.932 444.438 364.249 460.539 362.459 479.25 C 361.091 492.64 356.52 507.031 349.957 520.011 C 345.241 529.339 339.104 538.454 333.165 544.922 C 327.225 551.388 320.723 555.966 315.239 559.252 C 310.109 562.331 297.641 567.462 296.879 566.438 C 296.119 565.414 306.02 557.566 311.127 552.771 C 315.895 548.295 319.825 544.18 325.255 537.599 C 330.517 531.224 336.613 522.156 341.028 512.998 C 346.523 501.62 350.416 489.172 351.432 478.175 C 353.028 462.096 351.093 448.135 347.867 438.225 C 343.249 440.891 338.509 443.626 333.713 446.394 C 337.869 458.298 339.439 474.487 335.163 491.375 C 331.124 507.031 323.595 520.143 314.78 530.883 C 308.755 538.224 299.759 546.019 295.712 549.08 C 288.408 554.615 284.187 556.966 280.075 558.93 C 270.576 563.466 263.014 563.216 262.674 562.542 C 262.334 561.872 272.739 554.528 276.518 551.631 C 281.294 547.971 284.234 545.536 289.047 541.364 C 293.643 537.38 301.628 529.672 307.367 522.419 C 314.821 512.998 321.052 501.758 324.424 488.612 C 327.96 475.164 326.797 461.675 323.919 452.052 C 319.205 454.768 314.476 457.5 309.783 460.214 C 311.848 471.615 311.317 487.028 303.556 502.474 C 298.776 511.904 292.613 519.836 285.93 526.484 C 280.263 532.126 274.624 536.571 268.072 540.844 C 261.499 545.131 256.444 547.466 249.744 549.867 C 241.518 552.812 230.57 553.12 230.342 552.32 C 230.114 551.523 242.347 545.271 246.982 542.523 C 252.542 539.23 256.248 536.842 262.368 532.244 C 268.596 527.563 273.523 523.274 278.659 518.083 C 284.422 512.263 289.653 505.43 293.671 497.471 C 299.301 486.44 300.34 475.058 299.447 466.178 C 294.856 468.828 290.344 471.435 285.958 473.971 C 285.938 474.052 285.924 474.138 285.903 474.222 C 283.192 486.222 277.395 497.427 268.67 507.143 C 262.627 513.87 254.286 519.631 246.136 524.531 C 238.075 529.375 229.108 532.752 223.122 534.378 C 214.507 536.708 202.69 537.208 202.148 535.7 C 201.611 534.187 216.08 529.083 220.611 527.042 C 226.468 524.399 234.534 520.044 241.078 515.766 C 248.01 511.235 256.114 504.802 261.496 498.528 C 265.858 493.448 269.247 487.964 271.711 482.192 C 254.268 492.266 240.408 500.266 234.544 503.651 C 204.278 521.123 188.482 524.792 188.072 524.08 C 187.664 523.378 198.742 511.531 229.004 494.06 C 234.868 490.672 248.728 482.672 266.172 472.602 C 259.94 471.844 253.498 472.042 246.915 473.276 C 238.792 474.799 229.171 478.604 221.778 482.342 C 214.804 485.87 207.002 490.683 201.783 494.427 C 197.747 497.331 186.091 507.31 185.054 506.088 C 184.015 504.862 190.359 494.883 196.687 488.586 C 201.086 484.214 208.494 478.138 216.719 473.578 C 225.039 468.974 234.196 464.628 243.044 462.758 C 255.82 460.058 268.424 460.64 280.171 464.292 C 280.255 464.318 280.335 464.352 280.419 464.375 C 284.804 461.842 289.317 459.235 293.911 456.586 C 286.665 451.372 276.29 446.58 263.922 445.943 C 255.02 445.443 246.49 446.558 238.56 448.635 C 231.499 450.49 225.32 452.612 218.156 455.664 C 211.112 458.664 207.19 460.683 201.559 463.852 C 196.866 466.49 185.332 473.959 184.752 473.362 C 184.175 472.766 189.916 463.435 196.58 457.787 C 202.01 453.183 206.559 449.974 213.559 446.424 C 220.539 442.888 227.204 440.23 234.922 438.138 C 244.023 435.675 253.971 434.305 264.531 434.878 C 281.788 435.881 295.401 443.131 304.244 450.62 C 308.936 447.908 313.668 445.18 318.38 442.456 C 311.485 435.154 300.383 427.399 286.968 423.738 C 273.9 420.089 261.047 419.859 249.164 421.607 C 240.015 422.951 229.346 426.011 223.594 428.001 C 217.575 430.081 213.998 431.409 208.44 433.717 C 204.044 435.539 192.479 440.88 192.067 440.252 C 191.658 439.623 195.219 432.943 203.898 426.99 C 207.658 424.407 211.803 421.93 220.244 418.367 C 224.922 416.399 236.171 412.501 245.539 410.957 C 259.25 408.693 274.37 408.727 289.944 413.058 C 306.711 417.798 319.944 427.25 328.176 436.802 C 332.973 434.034 337.711 431.295 342.328 428.633 C 335.356 420.878 324.235 412.227 309.512 405.571 C 299.48 400.949 286.752 398.099 274.151 397.163 C 264.015 396.413 253.114 397.157 244.956 398.53 C 236.544 399.941 231.019 401.287 224.758 403.178 C 218.054 405.198 206.306 409.853 205.796 408.681 C 205.291 407.509 215.971 399.277 221.2 396.377 C 226.788 393.267 234.002 389.926 242.575 388.015 C 251.144 386.107 262.106 385.349 272.544 385.926 C 287.064 386.737 301.812 389.973 314.097 395.483 C 331.192 403.285 343.979 413.339 352.091 422.998 C 352.763 422.605 355.952 420.766 359.708 418.597 C 355.7 408.727 355.916 397.946 359.741 388.53 L 326.224 369.185 C 305.861 357.378 287.987 363.746 277.968 369.495 C 274.736 371.361 271.828 373.553 269.232 376.013 C 255.367 364.986 235.63 362.907 219.359 372.298"
     style="fill:#000000;fill-opacity:1;fill-rule:nonzero;stroke:none"
     id="path69045" />
  <path
     d="M 458.57 572.86 C 473.227 581.321 490.703 580.483 504.161 572.172 C 507.106 575.344 510.573 578.139 514.515 580.417 C 535.764 592.683 562.936 585.401 575.207 564.152 C 577.332 560.467 578.86 556.608 579.839 552.672 C 594.636 552.157 608.851 544.261 616.8 530.493 C 624.752 516.721 624.484 500.47 617.531 487.391 C 620.444 484.579 623.026 481.324 625.154 477.639 C 637.422 456.391 630.142 429.218 608.892 416.951 C 604.944 414.67 600.795 413.071 596.574 412.103 C 597.042 396.296 589.038 380.739 574.375 372.278 C 558.104 362.882 538.366 364.963 524.501 375.988 C 521.907 373.53 518.999 371.327 515.766 369.463 C 505.751 363.71 487.878 357.345 467.515 369.153 L 433.995 388.502 C 437.821 397.92 438.035 408.704 434.029 418.574 C 437.783 420.743 440.974 422.582 441.643 422.972 C 449.755 413.319 462.542 403.262 479.639 395.46 C 491.925 389.95 506.671 386.712 521.19 385.906 C 531.631 385.326 542.591 386.083 551.16 387.99 C 559.731 389.9 566.946 393.244 572.536 396.354 C 577.767 399.251 588.446 407.483 587.939 408.658 C 587.431 409.83 575.68 405.175 568.978 403.152 C 562.714 401.264 557.19 399.918 548.778 398.504 C 540.623 397.136 529.72 396.387 519.586 397.14 C 506.982 398.078 494.257 400.926 484.225 405.546 C 469.498 412.204 458.377 420.858 451.407 428.608 C 456.026 431.275 460.763 434.008 465.561 436.779 C 473.791 427.227 487.026 417.776 503.79 413.032 C 519.367 408.707 534.486 408.67 548.196 410.936 C 557.566 412.48 568.815 416.374 573.488 418.347 C 581.931 421.907 586.078 424.387 589.838 426.964 C 598.518 432.92 602.078 439.598 601.667 440.224 C 601.256 440.855 589.694 435.519 585.296 433.694 C 579.74 431.387 576.16 430.058 570.142 427.978 C 564.388 425.991 553.719 422.928 544.571 421.584 C 532.686 419.839 519.837 420.06 506.765 423.715 C 493.354 427.379 482.253 435.128 475.357 442.434 C 480.067 445.152 484.799 447.887 489.491 450.592 C 498.334 443.106 511.946 435.86 529.206 434.855 C 539.764 434.282 549.712 435.652 558.812 438.118 C 566.528 440.207 573.198 442.866 580.175 446.402 C 587.178 449.951 591.726 453.16 597.154 457.764 C 603.819 463.412 609.558 472.74 608.982 473.339 C 608.404 473.931 596.871 466.467 592.175 463.827 C 586.543 460.66 582.622 458.644 575.578 455.642 C 568.414 452.59 562.234 450.467 555.172 448.615 C 547.247 446.535 538.716 445.42 529.815 445.92 C 517.443 446.558 507.069 451.35 499.823 456.558 C 504.417 459.212 508.93 461.819 513.319 464.352 C 513.399 464.33 513.482 464.295 513.562 464.27 C 525.311 460.62 537.915 460.035 550.694 462.735 C 559.539 464.606 568.699 468.951 577.015 473.555 C 585.243 478.115 592.652 484.191 597.047 488.563 C 603.376 494.86 609.72 504.844 608.682 506.066 C 607.643 507.287 595.988 497.308 591.952 494.404 C 586.735 490.652 578.931 485.847 571.956 482.319 C 564.562 478.579 554.942 474.776 546.82 473.254 C 540.239 472.022 533.796 471.822 527.563 472.576 C 545.007 482.647 558.87 490.65 564.731 494.035 C 594.996 511.508 606.071 523.352 605.66 524.06 C 605.255 524.769 589.455 521.1 559.194 503.628 C 553.327 500.243 539.468 492.238 522.026 482.167 C 524.487 487.943 527.879 493.426 532.239 498.508 C 537.622 504.779 545.724 511.209 552.658 515.743 C 559.2 520.021 567.267 524.373 573.123 527.019 C 577.655 529.06 592.124 534.165 591.587 535.675 C 591.044 537.188 579.23 536.683 570.608 534.352 C 564.628 532.729 555.658 529.352 547.6 524.508 C 539.451 519.605 531.107 513.847 525.066 507.123 C 516.341 497.404 510.542 486.199 507.829 474.199 C 507.813 474.118 507.798 474.03 507.781 473.943 C 503.393 471.415 498.879 468.806 494.286 466.158 C 493.393 475.035 494.434 486.418 500.066 497.448 C 504.085 505.407 509.315 512.24 515.077 518.065 C 520.21 523.253 525.142 527.54 531.367 532.221 C 537.487 536.819 541.195 539.207 546.754 542.5 C 551.386 545.248 563.623 551.499 563.392 552.297 C 563.166 553.095 552.215 552.789 543.991 549.844 C 537.29 547.443 532.238 545.109 525.663 540.821 C 519.11 536.548 513.474 532.103 507.807 526.467 C 501.121 519.816 494.959 511.881 490.179 502.451 C 482.418 487.006 481.886 471.592 483.954 460.191 C 479.259 457.478 474.53 454.748 469.815 452.024 C 466.937 461.652 465.774 475.142 469.31 488.59 C 472.686 501.735 478.915 512.977 486.366 522.396 C 492.107 529.649 500.094 537.357 504.69 541.341 C 509.499 545.513 512.441 547.948 517.218 551.608 C 520.995 554.503 531.4 561.852 531.062 562.519 C 530.72 563.188 523.159 563.445 513.658 558.907 C 509.547 556.943 505.327 554.589 498.025 549.057 C 493.975 545.996 484.981 538.201 478.957 530.857 C 470.142 520.117 462.61 507.008 458.573 491.352 C 454.298 474.462 455.866 458.275 460.023 446.371 C 455.227 443.6 450.486 440.866 445.871 438.202 C 442.641 448.112 440.709 462.074 442.306 478.152 C 443.319 489.147 447.213 501.6 452.707 512.977 C 457.122 522.131 463.219 531.199 468.485 537.576 C 473.913 544.157 477.841 548.272 482.606 552.745 C 487.714 557.537 497.618 565.391 496.857 566.415 C 496.095 567.441 483.626 562.305 478.497 559.229 C 473.014 555.939 466.51 551.365 460.57 544.899 C 454.631 538.431 448.494 529.316 443.777 519.988 C 437.214 507.008 432.646 492.618 431.278 479.227 C 429.485 460.516 431.802 444.418 436.106 432.566 C 435.434 432.178 432.243 430.334 428.49 428.166 C 421.942 436.574 412.502 441.775 402.433 443.172 L 402.435 481.871 C 402.391 505.41 416.847 517.707 426.834 523.508 C 430.067 525.371 433.418 526.8 436.845 527.813 C 434.229 545.332 442.298 563.464 458.57 572.86"
     style="fill:#000000;fill-opacity:1;fill-rule:nonzero;stroke:none"
     id="path69049" />
</svg>
