<?xml version="1.0" encoding="UTF-8" standalone="no"?>
<!-- Created with Inkscape (http://www.inkscape.org/) -->

<svg
   version="1.1"
   id="svg77715"
   width="795.03467"
   height="793.70135"
   viewBox="0 0 795.03467 793.70135"
   sodipodi:docname="Itsutsukanni Igeta.svg"
   inkscape:version="1.2 (dc2aeda, 2022-05-15)"
   xmlns:inkscape="http://www.inkscape.org/namespaces/inkscape"
   xmlns:sodipodi="http://sodipodi.sourceforge.net/DTD/sodipodi-0.dtd"
   xmlns="http://www.w3.org/2000/svg"
   xmlns:svg="http://www.w3.org/2000/svg">
  <defs
     id="defs77719">
    <clipPath
       clipPathUnits="userSpaceOnUse"
       id="clipPath78208">
      <path
         d="M -556.4014,578.0143 H 39.874606 V -17.2617 H -556.4014 Z"
         id="path78210"
         style="stroke-width:0.999998" />
    </clipPath>
    <clipPath
       clipPathUnits="userSpaceOnUse"
       id="clipPath78214">
      <path
         d="M -576.3691,585.5885 H 19.906905 V -9.6875027 H -576.3691 Z"
         id="path78216"
         style="stroke-width:0.999998" />
    </clipPath>
    <clipPath
       clipPathUnits="userSpaceOnUse"
       id="clipPath78220">
      <path
         d="M -567.7754,585.8522 H 28.500601 V -9.4238027 H -567.7754 Z"
         id="path78222"
         style="stroke-width:0.999998" />
    </clipPath>
    <clipPath
       clipPathUnits="userSpaceOnUse"
       id="clipPath78226">
      <path
         d="M -586.5449,579.5026 H 9.7311002 V -15.7734 H -586.5449 Z"
         id="path78228"
         style="stroke-width:0.999998" />
    </clipPath>
    <clipPath
       clipPathUnits="userSpaceOnUse"
       id="clipPath78232">
      <path
         d="M -584.1943,578.9381 H 12.081705 V -16.337903 H -584.1943 Z"
         id="path78234"
         style="stroke-width:0.999998" />
    </clipPath>
    <clipPath
       clipPathUnits="userSpaceOnUse"
       id="clipPath78239">
      <path
         d="M -557.4951,577.8502 H 38.780903 V -17.4258 H -557.4951 Z"
         id="path78241"
         style="stroke-width:0.999998" />
    </clipPath>
    <clipPath
       clipPathUnits="userSpaceOnUse"
       id="clipPath78245">
      <path
         d="M -568.2266,575.819 H 28.049401 V -19.457003 H -568.2266 Z"
         id="path78247"
         style="stroke-width:0.999998" />
    </clipPath>
    <clipPath
       clipPathUnits="userSpaceOnUse"
       id="clipPath78251">
      <path
         d="M -564.5732,585.8483 H 31.702801 V -9.4277027 H -564.5732 Z"
         id="path78253"
         style="stroke-width:0.999998" />
    </clipPath>
    <clipPath
       clipPathUnits="userSpaceOnUse"
       id="clipPath78257">
      <path
         d="M -574.5459,585.8522 H 21.730103 V -9.4238027 H -574.5459 Z"
         id="path78259"
         style="stroke-width:0.999998" />
    </clipPath>
    <clipPath
       clipPathUnits="userSpaceOnUse"
       id="clipPath78263">
      <path
         d="M -550.2637,577.3248 H 46.012306 V -17.951198 H -550.2637 Z"
         id="path78265"
         style="stroke-width:0.999998" />
    </clipPath>
    <clipPath
       clipPathUnits="userSpaceOnUse"
       id="clipPath78270">
      <path
         d="M -572.8174,586.1354 H 23.458606 V -9.1406027 H -572.8174 Z"
         id="path78272"
         style="stroke-width:0.999998" />
    </clipPath>
    <clipPath
       clipPathUnits="userSpaceOnUse"
       id="clipPath78276">
      <path
         d="M -553.8975,585.8483 H 42.378504 V -9.4277027 H -553.8975 Z"
         id="path78278"
         style="stroke-width:0.999998" />
    </clipPath>
    <clipPath
       clipPathUnits="userSpaceOnUse"
       id="clipPath78282">
      <path
         d="M -531.1924,581.5885 H 65.083599 V -13.6875 H -531.1924 Z"
         id="path78284"
         style="stroke-width:0.999998" />
    </clipPath>
    <clipPath
       clipPathUnits="userSpaceOnUse"
       id="clipPath78288">
      <path
         d="M -561.4131,585.8522 H 34.862903 V -9.4238027 H -561.4131 Z"
         id="path78290"
         style="stroke-width:0.999998" />
    </clipPath>
    <clipPath
       clipPathUnits="userSpaceOnUse"
       id="clipPath78294">
      <path
         d="M -557.0645,585.8483 H 39.211501 V -9.4277027 H -557.0645 Z"
         id="path78296"
         style="stroke-width:0.999998" />
    </clipPath>
    <clipPath
       clipPathUnits="userSpaceOnUse"
       id="clipPath78300">
      <path
         d="M -548.9834,585.8522 H 47.292601 V -9.4238027 H -548.9834 Z"
         id="path78302"
         style="stroke-width:0.999998" />
    </clipPath>
    <clipPath
       clipPathUnits="userSpaceOnUse"
       id="clipPath78306">
      <path
         d="M -540.8213,585.8483 H 55.454701 V -9.4277027 H -540.8213 Z"
         id="path78308"
         style="stroke-width:0.999998" />
    </clipPath>
    <clipPath
       clipPathUnits="userSpaceOnUse"
       id="clipPath78312">
      <path
         d="M -536.6982,584.5729 H 59.577804 V -10.7031 H -536.6982 Z"
         id="path78314"
         style="stroke-width:0.999998" />
    </clipPath>
    <clipPath
       clipPathUnits="userSpaceOnUse"
       id="clipPath78318">
      <path
         d="M -528.0898,575.3815 H 68.186199 V -19.8945 H -528.0898 Z"
         id="path78320"
         style="stroke-width:0.999998" />
    </clipPath>
    <clipPath
       clipPathUnits="userSpaceOnUse"
       id="clipPath78324">
      <path
         d="M -542.9326,584.5729 H 53.343399 V -10.7031 H -542.9326 Z"
         id="path78326"
         style="stroke-width:0.999998" />
    </clipPath>
    <clipPath
       clipPathUnits="userSpaceOnUse"
       id="clipPath78330">
      <path
         d="M -545.417,584.5729 H 50.859001 V -10.7031 H -545.417 Z"
         id="path78332"
         style="stroke-width:0.999998" />
    </clipPath>
    <clipPath
       clipPathUnits="userSpaceOnUse"
       id="clipPath78336">
      <path
         d="M -538.2217,577.9479 H 58.054299 V -17.328098 H -538.2217 Z"
         id="path78338"
         style="stroke-width:0.999998" />
    </clipPath>
    <clipPath
       clipPathUnits="userSpaceOnUse"
       id="clipPath78342">
      <path
         d="M -558.0762,231.0597 H 38.199803 v -595.276 H -558.0762 Z"
         id="path78344"
         style="stroke-width:0.999998" />
    </clipPath>
  </defs>
  <sodipodi:namedview
     id="namedview77717"
     pagecolor="#ffffff"
     bordercolor="#000000"
     borderopacity="0.25"
     inkscape:showpageshadow="2"
     inkscape:pageopacity="0.0"
     inkscape:pagecheckerboard="0"
     inkscape:deskcolor="#d1d1d1"
     showgrid="false"
     inkscape:zoom="0.29734106"
     inkscape:cx="-215.24105"
     inkscape:cy="396.85068"
     inkscape:window-width="1419"
     inkscape:window-height="456"
     inkscape:window-x="0"
     inkscape:window-y="25"
     inkscape:window-maximized="0"
     inkscape:current-layer="svg77715">
    <inkscape:page
       x="0"
       y="0"
       id="page77721"
       width="795.03467"
       height="793.70135" />
  </sodipodi:namedview>
  <path
     d="M 744.102 308.08 C 733.405 275.16 701.498 255.069 668.429 257.999 C 668.262 251.864 667.225 245.651 665.233 239.515 C 654.06 205.131 617.13 186.315 582.745 197.487 C 568.8 202.019 557.398 210.776 549.55 221.907 C 528.673 251.528 536.203 286.932 561.228 281.607 C 570.109 279.241 573.896 269.897 571.353 262.077 C 569.128 255.223 562.396 251.091 555.501 251.885 C 558.353 234.731 570.42 219.716 588.104 213.971 C 613.382 205.759 640.534 219.592 648.748 244.872 C 653.225 258.648 653.254 271.608 650.177 280.479 C 652.226 279.613 654.661 278.721 657.634 277.78 C 686.87 268.507 718.137 284.267 727.617 313.437 C 737.094 342.609 721.063 373.739 691.961 383.418 C 688.998 384.405 686.505 385.113 684.339 385.618 C 692.042 390.986 699.635 401.488 704.111 415.264 C 712.326 440.542 698.491 467.696 673.213 475.91 C 655.53 481.654 636.941 476.6 624.55 464.4 C 630.597 460.993 633.614 453.69 631.386 446.837 C 628.845 439.017 620.29 433.681 611.714 436.988 C 588.34 447.392 603.057 480.46 637.358 492.149 C 650.249 496.542 664.621 496.925 678.569 492.394 C 712.951 481.222 731.77 444.293 720.595 409.908 C 718.605 403.774 715.79 398.14 712.318 393.077 C 740.794 376.009 754.799 341.001 744.102 308.08 M 633.3 504.638 C 598.677 493.936 567.334 512.037 580.13 534.19 C 585.125 541.907 595.182 542.621 601.834 537.787 C 607.665 533.553 609.516 525.873 606.628 519.561 C 623.824 516.974 641.833 523.81 652.761 538.853 C 668.384 560.355 663.618 590.454 642.113 606.079 C 630.394 614.591 618.077 618.626 608.69 618.441 C 610.145 620.121 611.746 622.162 613.562 624.698 C 631.416 649.638 626.089 684.246 601.276 702.274 C 576.46 720.302 541.901 714.675 523.7 689.987 C 521.848 687.476 520.404 685.323 519.252 683.419 C 516.528 692.404 508.888 702.872 497.168 711.386 C 475.664 727.011 445.567 722.246 429.943 700.74 C 419.015 685.698 418.076 666.456 425.852 650.902 C 430.961 655.599 438.837 656.214 444.667 651.976 C 451.32 647.143 453.749 637.357 447.955 630.225 C 430.839 611.206 403.936 635.422 403.418 671.659 C 403.223 685.276 407.299 699.063 415.919 710.927 C 437.169 740.175 478.107 746.662 507.356 725.41 C 512.575 721.62 517.065 717.2 520.805 712.336 C 545.837 734.143 583.46 736.646 611.464 716.298 C 639.468 695.951 648.716 659.396 635.709 628.853 C 641.494 626.798 647.082 623.891 652.301 620.099 C 681.55 598.85 688.033 557.913 666.784 528.662 C 658.164 516.801 646.31 508.662 633.3 504.638 M 345.748 630.225 C 339.954 637.357 342.383 647.143 349.035 651.976 C 354.866 656.214 362.742 655.599 367.851 650.902 C 375.626 666.459 374.688 685.698 363.76 700.74 C 348.136 722.243 318.039 727.011 296.534 711.388 C 284.815 702.872 277.174 692.404 274.45 683.419 C 273.299 685.323 271.854 687.476 270.003 689.987 C 251.801 714.675 217.242 720.302 192.427 702.274 C 167.613 684.243 162.286 649.635 180.139 624.698 C 181.957 622.162 183.558 620.121 185.013 618.438 C 175.626 618.626 163.309 614.591 151.59 606.079 C 130.085 590.454 125.318 560.355 140.942 538.853 C 151.87 523.81 169.879 516.974 187.075 519.561 C 184.186 525.873 186.037 533.553 191.869 537.787 C 198.521 542.621 208.578 541.907 213.573 534.19 C 226.369 512.037 195.025 493.936 160.403 504.638 C 147.391 508.662 135.54 516.798 126.918 528.665 C 105.67 557.913 112.152 598.85 141.404 620.099 C 146.619 623.891 152.209 626.798 157.993 628.853 C 144.987 659.396 154.234 695.951 182.239 716.298 C 210.243 736.643 247.865 734.143 272.897 712.334 C 276.638 717.2 281.13 721.618 286.347 725.41 C 315.596 746.659 356.534 740.175 377.784 710.927 C 386.403 699.063 390.479 685.276 390.286 671.659 C 389.766 635.422 362.863 611.206 345.748 630.225 M 156.345 492.149 C 190.646 480.46 205.363 447.389 181.989 436.988 C 173.413 433.681 164.857 439.017 162.317 446.837 C 160.089 453.69 163.106 460.99 169.153 464.4 C 156.761 476.6 138.173 481.654 120.49 475.91 C 95.2116 467.696 81.3757 440.545 89.5903 415.264 C 94.0676 401.488 101.661 390.986 109.364 385.618 C 107.198 385.113 104.704 384.402 101.744 383.418 C 72.6397 373.737 56.6091 342.608 66.0864 313.437 C 75.5663 284.265 106.833 268.504 136.069 277.779 C 139.042 278.723 141.477 279.615 143.526 280.479 C 140.449 271.608 140.478 258.649 144.955 244.872 C 153.169 219.591 180.321 205.758 205.599 213.971 C 223.282 219.718 235.35 234.731 238.202 251.885 C 231.307 251.088 224.575 255.22 222.35 262.077 C 219.807 269.897 223.594 279.241 232.475 281.607 C 257.501 286.932 265.031 251.528 244.151 221.907 C 236.305 210.775 224.905 202.018 210.957 197.487 C 176.574 186.315 139.642 205.131 128.47 239.516 C 126.477 245.651 125.441 251.864 125.274 257.999 C 92.205 255.069 60.2984 275.159 49.6011 308.08 C 38.9051 341.001 52.9091 376.009 81.385 393.077 C 77.913 398.138 75.0997 403.774 73.1063 409.908 C 61.9344 444.293 80.7517 481.222 115.134 492.394 C 129.081 496.925 143.454 496.542 156.345 492.149 M 396.852 506.636 L 300.963 420.908 L 396.848 335.18 L 492.739 420.91 Z M 457.324 560.703 L 426.857 533.465 L 522.744 447.736 L 553.21 474.974 L 583.216 448.146 L 552.749 420.91 L 583.214 393.673 L 553.208 366.847 L 522.743 394.084 L 426.853 308.353 L 457.317 281.116 L 427.311 254.288 L 396.848 281.525 L 366.384 254.288 L 336.376 281.116 L 366.842 308.353 L 270.955 394.08 L 240.491 366.844 L 210.487 393.668 L 240.953 420.905 L 210.487 448.141 L 240.494 474.969 L 270.959 447.733 L 366.848 533.462 L 336.383 560.698 L 366.39 587.526 L 396.854 560.29 L 427.32 587.529 Z M 315.162 221.532 C 315.658 212.354 307.94 205.866 299.718 205.866 C 292.51 205.866 286.499 210.99 285.127 217.794 C 269.693 209.778 259.142 193.663 259.142 175.07 C 259.142 148.492 280.688 126.942 307.271 126.942 C 321.756 126.942 334.091 130.919 341.575 136.587 C 341.388 134.372 341.292 131.779 341.314 128.66 C 341.527 97.9899 366.179 73.1219 396.852 73.1219 C 427.524 73.1219 452.176 97.9899 452.389 128.66 C 452.411 131.779 452.315 134.372 452.128 136.587 C 459.612 130.919 471.947 126.942 486.432 126.942 C 513.015 126.942 534.561 148.492 534.561 175.07 C 534.561 193.663 524.011 209.778 508.576 217.794 C 507.204 210.99 501.193 205.866 493.985 205.866 C 485.763 205.866 478.045 212.354 478.541 221.532 C 481.209 246.976 517.208 243.199 538.927 214.188 C 547.088 203.286 551.894 189.736 551.894 175.07 C 551.894 138.919 522.587 109.608 486.432 109.608 C 479.983 109.608 473.752 110.544 467.865 112.282 C 460.433 79.9259 431.467 55.7886 396.852 55.7886 C 362.236 55.7886 333.27 79.9259 325.838 112.282 C 319.951 110.544 313.72 109.608 307.271 109.608 C 271.117 109.608 241.809 138.919 241.809 175.07 C 241.809 189.736 246.615 203.286 254.777 214.188 C 276.495 243.199 312.494 246.976 315.162 221.532"
     style="fill:#000000;fill-opacity:1;fill-rule:nonzero;stroke:none"
     id="path77835" />
</svg>
