<?xml version="1.0" encoding="UTF-8" standalone="no"?>
<!-- Created with Inkscape (http://www.inkscape.org/) -->

<svg
   version="1.1"
   id="svg71591"
   width="795.03467"
   height="793.70135"
   viewBox="0 0 795.03467 793.70135"
   sodipodi:docname="Kan Matsu.svg"
   inkscape:version="1.2 (dc2aeda, 2022-05-15)"
   xmlns:inkscape="http://www.inkscape.org/namespaces/inkscape"
   xmlns:sodipodi="http://sodipodi.sourceforge.net/DTD/sodipodi-0.dtd"
   xmlns="http://www.w3.org/2000/svg"
   xmlns:svg="http://www.w3.org/2000/svg">
  <defs
     id="defs71595">
    <clipPath
       clipPathUnits="userSpaceOnUse"
       id="clipPath72140">
      <path
         d="M -545.417,584.5729 H 50.859001 V -10.7031 H -545.417 Z"
         id="path72142"
         style="stroke-width:0.999998" />
    </clipPath>
    <clipPath
       clipPathUnits="userSpaceOnUse"
       id="clipPath72146">
      <path
         d="M -542.9326,584.5729 H 53.343399 V -10.7031 H -542.9326 Z"
         id="path72148"
         style="stroke-width:0.999998" />
    </clipPath>
    <clipPath
       clipPathUnits="userSpaceOnUse"
       id="clipPath72152">
      <path
         d="M -550.2637,577.3248 H 46.012306 V -17.951198 H -550.2637 Z"
         id="path72154"
         style="stroke-width:0.999998" />
    </clipPath>
    <clipPath
       clipPathUnits="userSpaceOnUse"
       id="clipPath72158">
      <path
         d="M -568.2266,575.819 H 28.049401 V -19.457003 H -568.2266 Z"
         id="path72160"
         style="stroke-width:0.999998" />
    </clipPath>
    <clipPath
       clipPathUnits="userSpaceOnUse"
       id="clipPath72164">
      <path
         d="M -556.4014,578.0143 H 39.874606 V -17.2617 H -556.4014 Z"
         id="path72166"
         style="stroke-width:0.999998" />
    </clipPath>
    <clipPath
       clipPathUnits="userSpaceOnUse"
       id="clipPath72171">
      <path
         d="M -584.1943,578.9381 H 12.081705 V -16.337903 H -584.1943 Z"
         id="path72173"
         style="stroke-width:0.999998" />
    </clipPath>
    <clipPath
       clipPathUnits="userSpaceOnUse"
       id="clipPath72177">
      <path
         d="M -538.2217,577.9479 H 58.054299 V -17.328098 H -538.2217 Z"
         id="path72179"
         style="stroke-width:0.999998" />
    </clipPath>
    <clipPath
       clipPathUnits="userSpaceOnUse"
       id="clipPath72183">
      <path
         d="M -557.4951,577.8502 H 38.780903 V -17.4258 H -557.4951 Z"
         id="path72185"
         style="stroke-width:0.999998" />
    </clipPath>
    <clipPath
       clipPathUnits="userSpaceOnUse"
       id="clipPath72189">
      <path
         d="m -297.6377,163.9137 h 596.276 v -595.276 h -596.276 z"
         id="path72191"
         style="stroke-width:0.999998" />
    </clipPath>
    <clipPath
       clipPathUnits="userSpaceOnUse"
       id="clipPath72195">
      <path
         d="M -576.3691,585.5885 H 19.906905 V -9.6875027 H -576.3691 Z"
         id="path72197"
         style="stroke-width:0.999998" />
    </clipPath>
    <clipPath
       clipPathUnits="userSpaceOnUse"
       id="clipPath72201">
      <path
         d="M -574.5459,585.8522 H 21.730103 V -9.4238027 H -574.5459 Z"
         id="path72203"
         style="stroke-width:0.999998" />
    </clipPath>
    <clipPath
       clipPathUnits="userSpaceOnUse"
       id="clipPath72207">
      <path
         d="m -347.1514,298.9625 h 596.276 v -595.276 h -596.276 z"
         id="path72209"
         style="stroke-width:0.999998" />
    </clipPath>
    <clipPath
       clipPathUnits="userSpaceOnUse"
       id="clipPath72213">
      <path
         d="M -531.1924,581.5885 H 65.083599 V -13.6875 H -531.1924 Z"
         id="path72215"
         style="stroke-width:0.999998" />
    </clipPath>
    <clipPath
       clipPathUnits="userSpaceOnUse"
       id="clipPath72219">
      <path
         d="M -528.0898,575.3815 H 68.186199 V -19.8945 H -528.0898 Z"
         id="path72221"
         style="stroke-width:0.999998" />
    </clipPath>
    <clipPath
       clipPathUnits="userSpaceOnUse"
       id="clipPath72225">
      <path
         d="m -297.6377,271.8239 h 596.276 v -595.276 h -596.276 z"
         id="path72227"
         style="stroke-width:0.999998" />
    </clipPath>
    <clipPath
       clipPathUnits="userSpaceOnUse"
       id="clipPath72231">
      <path
         d="M -564.5732,585.8483 H 31.702801 V -9.4277027 H -564.5732 Z"
         id="path72233"
         style="stroke-width:0.999998" />
    </clipPath>
    <clipPath
       clipPathUnits="userSpaceOnUse"
       id="clipPath72237">
      <path
         d="M -496.6563,458.6832 H 99.619705 v -595.276 H -496.6563 Z"
         id="path72239"
         style="stroke-width:0.999998" />
    </clipPath>
    <clipPath
       clipPathUnits="userSpaceOnUse"
       id="clipPath72243">
      <path
         d="M -548.9834,585.8522 H 47.292601 V -9.4238027 H -548.9834 Z"
         id="path72245"
         style="stroke-width:0.999998" />
    </clipPath>
    <clipPath
       clipPathUnits="userSpaceOnUse"
       id="clipPath72249">
      <path
         d="m -248.1221,298.9625 h 596.276 v -595.276 h -596.276 z"
         id="path72251"
         style="stroke-width:0.999998" />
    </clipPath>
    <clipPath
       clipPathUnits="userSpaceOnUse"
       id="clipPath72255">
      <path
         d="M -567.7754,585.8522 H 28.500601 V -9.4238027 H -567.7754 Z"
         id="path72257"
         style="stroke-width:0.999998" />
    </clipPath>
    <clipPath
       clipPathUnits="userSpaceOnUse"
       id="clipPath72261">
      <path
         d="M -586.5449,579.5026 H 9.7311002 V -15.7734 H -586.5449 Z"
         id="path72263"
         style="stroke-width:0.999998" />
    </clipPath>
    <clipPath
       clipPathUnits="userSpaceOnUse"
       id="clipPath72267">
      <path
         d="M -553.8975,585.8483 H 42.378504 V -9.4277027 H -553.8975 Z"
         id="path72269"
         style="stroke-width:0.999998" />
    </clipPath>
    <clipPath
       clipPathUnits="userSpaceOnUse"
       id="clipPath72273">
      <path
         d="M -536.6982,584.5729 H 59.577804 V -10.7031 H -536.6982 Z"
         id="path72275"
         style="stroke-width:0.999998" />
    </clipPath>
    <clipPath
       clipPathUnits="userSpaceOnUse"
       id="clipPath72279">
      <path
         d="M -557.0645,585.8483 H 39.211501 V -9.4277027 H -557.0645 Z"
         id="path72281"
         style="stroke-width:0.999998" />
    </clipPath>
    <clipPath
       clipPathUnits="userSpaceOnUse"
       id="clipPath72286">
      <path
         d="M -572.8174,586.1354 H 23.458606 V -9.1406027 H -572.8174 Z"
         id="path72288"
         style="stroke-width:0.999998" />
    </clipPath>
    <clipPath
       clipPathUnits="userSpaceOnUse"
       id="clipPath72292">
      <path
         d="M -561.4131,585.8522 H 34.862903 V -9.4238027 H -561.4131 Z"
         id="path72294"
         style="stroke-width:0.999998" />
    </clipPath>
    <clipPath
       clipPathUnits="userSpaceOnUse"
       id="clipPath72298">
      <path
         d="M -540.8213,585.8483 H 55.454701 V -9.4277027 H -540.8213 Z"
         id="path72300"
         style="stroke-width:0.999998" />
    </clipPath>
  </defs>
  <sodipodi:namedview
     id="namedview71593"
     pagecolor="#ffffff"
     bordercolor="#000000"
     borderopacity="0.25"
     inkscape:showpageshadow="2"
     inkscape:pageopacity="0.0"
     inkscape:pagecheckerboard="0"
     inkscape:deskcolor="#d1d1d1"
     showgrid="false"
     inkscape:zoom="0.29734106"
     inkscape:cx="-215.24105"
     inkscape:cy="396.85068"
     inkscape:window-width="1419"
     inkscape:window-height="456"
     inkscape:window-x="0"
     inkscape:window-y="25"
     inkscape:window-maximized="0"
     inkscape:current-layer="svg71591">
    <inkscape:page
       x="0"
       y="0"
       id="page71597"
       width="795.03467"
       height="793.70135" />
  </sodipodi:namedview>
  <path
     d="M 396.85 362.432 C 405.938 362.432 413.309 369.812 413.309 382.859 C 413.309 398.013 396.85 421.008 396.85 421.008 C 396.85 421.008 380.39 398.013 380.39 382.859 C 380.39 369.812 387.759 362.432 396.85 362.432"
     style="fill:#000000;fill-opacity:1;fill-rule:nonzero;stroke:none"
     id="path71711" />
  <path
     d="M 330.829 398.617 C 337.373 392.31 347.802 392.508 356.857 401.901 C 367.374 412.81 371.482 440.789 371.482 440.789 C 371.482 440.789 343.677 435.656 333.16 424.748 C 324.105 415.354 324.285 404.926 330.829 398.617"
     style="fill:#000000;fill-opacity:1;fill-rule:nonzero;stroke:none"
     id="path71715" />
  <path
     d="M 396.85 218.552 C 481.11 220.497 471.86 247.467 574.598 307.148 C 613.557 329.781 678.336 353.328 678.336 416.14 C 678.336 447.849 654.705 482.199 603.479 482.199 C 582.075 482.199 557.016 473.033 547.891 450.349 C 558.066 446.095 564.056 435.666 564.056 424.611 C 564.056 405.976 549.746 395.08 533.435 395.08 C 517.126 395.08 503.904 409.122 503.904 428.245 C 503.904 474.961 542.632 518.51 603.479 518.51 C 664.873 518.51 714.647 477.541 714.647 416.14 C 714.647 361.038 684.179 320.374 590.562 274.541 C 520.85 240.412 500.518 182.128 396.85 182.128 C 293.181 182.128 272.849 240.412 203.138 274.541 C 109.52 320.374 79.0535 361.038 79.0535 416.14 C 79.0535 477.541 128.824 518.51 190.22 518.51 C 251.066 518.51 289.796 474.961 289.796 428.245 C 289.796 409.122 276.574 395.08 260.265 395.08 C 243.953 395.08 229.642 405.976 229.642 424.611 C 229.642 435.666 235.634 446.095 245.806 450.349 C 236.681 473.033 211.624 482.199 190.219 482.199 C 138.995 482.199 115.363 447.849 115.363 416.14 C 115.363 353.328 180.141 329.781 219.1 307.148 C 321.837 247.467 312.588 220.497 396.85 218.552"
     style="fill:#000000;fill-opacity:1;fill-rule:nonzero;stroke:none"
     id="path71719" />
  <path
     d="M 462.869 398.617 C 456.325 392.31 445.897 392.508 436.841 401.901 C 426.326 412.81 422.216 440.789 422.216 440.789 C 422.216 440.789 450.022 435.656 460.54 424.748 C 469.594 415.354 469.416 404.926 462.869 398.617"
     style="fill:#000000;fill-opacity:1;fill-rule:nonzero;stroke:none"
     id="path71723" />
  <path
     d="M 662.208 611.578 C 713.645 611.578 736.082 590.261 736.082 562.709 C 736.082 544.526 721.345 529.789 703.165 529.789 C 684.983 529.789 670.243 544.526 670.243 562.709 C 670.243 566.982 671.069 571.057 672.549 574.805 C 669.432 575.097 666 575.269 662.211 575.269 C 598.185 575.269 544.451 481.956 396.85 481.956 C 249.249 481.956 195.515 575.269 131.489 575.269 C 127.7 575.269 124.267 575.097 121.151 574.805 C 122.632 571.057 123.456 566.982 123.456 562.709 C 123.456 544.526 108.717 529.789 90.5361 529.789 C 72.3548 529.789 57.6175 544.526 57.6175 562.709 C 57.6175 590.261 80.0548 611.578 131.492 611.578 C 215.241 611.578 255.905 518.266 396.85 518.266 C 537.792 518.266 578.458 611.578 662.208 611.578"
     style="fill:#000000;fill-opacity:1;fill-rule:nonzero;stroke:none"
     id="path71727" />
</svg>
