<?xml version="1.0" encoding="UTF-8" standalone="no"?>
<!-- Created with Inkscape (http://www.inkscape.org/) -->

<svg
   version="1.1"
   id="svg80245"
   width="795.03467"
   height="793.70135"
   viewBox="0 0 795.03467 793.70135"
   sodipodi:docname="Mitsu Kara Kan.svg"
   inkscape:version="1.2 (dc2aeda, 2022-05-15)"
   xmlns:inkscape="http://www.inkscape.org/namespaces/inkscape"
   xmlns:sodipodi="http://sodipodi.sourceforge.net/DTD/sodipodi-0.dtd"
   xmlns="http://www.w3.org/2000/svg"
   xmlns:svg="http://www.w3.org/2000/svg">
  <defs
     id="defs80249">
    <clipPath
       clipPathUnits="userSpaceOnUse"
       id="clipPath80766">
      <path
         d="M -572.8174,586.1354 H 23.458606 V -9.1406027 H -572.8174 Z"
         id="path80768"
         style="stroke-width:0.999998" />
    </clipPath>
    <clipPath
       clipPathUnits="userSpaceOnUse"
       id="clipPath80772">
      <path
         d="M -542.9326,584.5729 H 53.343399 V -10.7031 H -542.9326 Z"
         id="path80774"
         style="stroke-width:0.999998" />
    </clipPath>
    <clipPath
       clipPathUnits="userSpaceOnUse"
       id="clipPath80778">
      <path
         d="M -564.5732,585.8483 H 31.702801 V -9.4277027 H -564.5732 Z"
         id="path80780"
         style="stroke-width:0.999998" />
    </clipPath>
    <clipPath
       clipPathUnits="userSpaceOnUse"
       id="clipPath80784">
      <path
         d="M -548.9834,585.8522 H 47.292601 V -9.4238027 H -548.9834 Z"
         id="path80786"
         style="stroke-width:0.999998" />
    </clipPath>
    <clipPath
       clipPathUnits="userSpaceOnUse"
       id="clipPath80790">
      <path
         d="M -567.7754,585.8522 H 28.500601 V -9.4238027 H -567.7754 Z"
         id="path80792"
         style="stroke-width:0.999998" />
    </clipPath>
    <clipPath
       clipPathUnits="userSpaceOnUse"
       id="clipPath80796">
      <path
         d="M -545.417,584.5729 H 50.859001 V -10.7031 H -545.417 Z"
         id="path80798"
         style="stroke-width:0.999998" />
    </clipPath>
    <clipPath
       clipPathUnits="userSpaceOnUse"
       id="clipPath80802">
      <path
         d="M -553.8975,585.8483 H 42.378504 V -9.4277027 H -553.8975 Z"
         id="path80804"
         style="stroke-width:0.999998" />
    </clipPath>
    <clipPath
       clipPathUnits="userSpaceOnUse"
       id="clipPath80808">
      <path
         d="m -71.6143,449.0123 h 596.276 v -595.276 h -596.276 z"
         id="path80810"
         style="stroke-width:0.999998" />
    </clipPath>
    <clipPath
       clipPathUnits="userSpaceOnUse"
       id="clipPath80815">
      <path
         d="M -531.1924,581.5885 H 65.083599 V -13.6875 H -531.1924 Z"
         id="path80817"
         style="stroke-width:0.999998" />
    </clipPath>
    <clipPath
       clipPathUnits="userSpaceOnUse"
       id="clipPath80821">
      <path
         d="M -586.5449,579.5026 H 9.7311002 V -15.7734 H -586.5449 Z"
         id="path80823"
         style="stroke-width:0.999998" />
    </clipPath>
    <clipPath
       clipPathUnits="userSpaceOnUse"
       id="clipPath80827">
      <path
         d="M -556.4014,578.0143 H 39.874606 V -17.2617 H -556.4014 Z"
         id="path80829"
         style="stroke-width:0.999998" />
    </clipPath>
    <clipPath
       clipPathUnits="userSpaceOnUse"
       id="clipPath80833">
      <path
         d="M -550.2637,577.3248 H 46.012306 V -17.951198 H -550.2637 Z"
         id="path80835"
         style="stroke-width:0.999998" />
    </clipPath>
    <clipPath
       clipPathUnits="userSpaceOnUse"
       id="clipPath80839">
      <path
         d="M -557.0645,585.8483 H 39.211501 V -9.4277027 H -557.0645 Z"
         id="path80841"
         style="stroke-width:0.999998" />
    </clipPath>
    <clipPath
       clipPathUnits="userSpaceOnUse"
       id="clipPath80845">
      <path
         d="m -297.6377,57.5284 h 596.276 v -595.276 h -596.276 z"
         id="path80847"
         style="stroke-width:0.999998" />
    </clipPath>
    <clipPath
       clipPathUnits="userSpaceOnUse"
       id="clipPath80851">
      <path
         d="M -576.3691,585.5885 H 19.906905 V -9.6875027 H -576.3691 Z"
         id="path80853"
         style="stroke-width:0.999998" />
    </clipPath>
    <clipPath
       clipPathUnits="userSpaceOnUse"
       id="clipPath80857">
      <path
         d="M -568.2266,575.819 H 28.049401 V -19.457003 H -568.2266 Z"
         id="path80859"
         style="stroke-width:0.999998" />
    </clipPath>
    <clipPath
       clipPathUnits="userSpaceOnUse"
       id="clipPath80863">
      <path
         d="M -523.6611,449.0123 H 72.614904 v -595.276 H -523.6611 Z"
         id="path80865"
         style="stroke-width:0.999998" />
    </clipPath>
    <clipPath
       clipPathUnits="userSpaceOnUse"
       id="clipPath80869">
      <path
         d="M -574.5459,585.8522 H 21.730103 V -9.4238027 H -574.5459 Z"
         id="path80871"
         style="stroke-width:0.999998" />
    </clipPath>
    <clipPath
       clipPathUnits="userSpaceOnUse"
       id="clipPath80875">
      <path
         d="M -528.0898,575.3815 H 68.186199 V -19.8945 H -528.0898 Z"
         id="path80877"
         style="stroke-width:0.999998" />
    </clipPath>
    <clipPath
       clipPathUnits="userSpaceOnUse"
       id="clipPath80881">
      <path
         d="M -538.2217,577.9479 H 58.054299 V -17.328098 H -538.2217 Z"
         id="path80883"
         style="stroke-width:0.999998" />
    </clipPath>
    <clipPath
       clipPathUnits="userSpaceOnUse"
       id="clipPath80887">
      <path
         d="M -540.8213,585.8483 H 55.454701 V -9.4277027 H -540.8213 Z"
         id="path80889"
         style="stroke-width:0.999998" />
    </clipPath>
    <clipPath
       clipPathUnits="userSpaceOnUse"
       id="clipPath80893">
      <path
         d="M -536.6982,584.5729 H 59.577804 V -10.7031 H -536.6982 Z"
         id="path80895"
         style="stroke-width:0.999998" />
    </clipPath>
    <clipPath
       clipPathUnits="userSpaceOnUse"
       id="clipPath80900">
      <path
         d="M -584.1943,578.9381 H 12.081705 V -16.337903 H -584.1943 Z"
         id="path80902"
         style="stroke-width:0.999998" />
    </clipPath>
    <clipPath
       clipPathUnits="userSpaceOnUse"
       id="clipPath80906">
      <path
         d="M -557.4951,577.8502 H 38.780903 V -17.4258 H -557.4951 Z"
         id="path80908"
         style="stroke-width:0.999998" />
    </clipPath>
    <clipPath
       clipPathUnits="userSpaceOnUse"
       id="clipPath80912">
      <path
         d="M -561.4131,585.8522 H 34.862903 V -9.4238027 H -561.4131 Z"
         id="path80914"
         style="stroke-width:0.999998" />
    </clipPath>
  </defs>
  <sodipodi:namedview
     id="namedview80247"
     pagecolor="#ffffff"
     bordercolor="#000000"
     borderopacity="0.25"
     inkscape:showpageshadow="2"
     inkscape:pageopacity="0.0"
     inkscape:pagecheckerboard="0"
     inkscape:deskcolor="#d1d1d1"
     showgrid="false"
     inkscape:zoom="0.29734106"
     inkscape:cx="-215.24105"
     inkscape:cy="396.85068"
     inkscape:window-width="1419"
     inkscape:window-height="456"
     inkscape:window-x="0"
     inkscape:window-y="25"
     inkscape:window-maximized="0"
     inkscape:current-layer="svg80245">
    <inkscape:page
       x="0"
       y="0"
       id="page80251"
       width="795.03467"
       height="793.70135" />
  </sodipodi:namedview>
  <path
     d="M 396.85 76.7045 C 445.157 76.7045 485.987 108.639 499.434 152.542 C 508.131 149.382 517.503 147.635 527.29 147.635 C 572.36 147.635 608.897 184.174 608.897 229.243 C 608.897 274.313 572.36 310.851 527.29 310.851 C 514.528 310.851 501.294 309.828 495.187 300.431 C 501.15 296.809 504.958 290.485 504.532 283.871 C 503.784 272.261 495.215 265.917 484.922 266.127 C 472.812 266.375 466.468 277.655 467.09 287.552 C 468.692 313.121 494.888 327.987 527.29 327.987 C 581.822 327.987 626.032 283.777 626.032 229.243 C 626.032 174.71 581.822 130.502 527.29 130.502 C 521.367 130.502 515.575 131.048 509.939 132.048 C 490.255 89.2725 447.026 59.5672 396.85 59.5672 C 346.675 59.5672 303.445 89.2725 283.762 132.048 C 278.124 131.048 272.334 130.502 266.41 130.502 C 211.877 130.502 167.668 174.71 167.668 229.243 C 167.668 283.777 211.877 327.987 266.41 327.987 C 298.812 327.987 325.006 313.121 326.61 287.552 C 327.232 277.655 320.889 266.375 308.78 266.127 C 298.485 265.917 289.916 272.261 289.168 283.871 C 288.742 290.485 292.55 296.809 298.513 300.431 C 292.408 309.828 279.173 310.851 266.41 310.851 C 221.34 310.851 184.803 274.313 184.803 229.243 C 184.803 184.174 221.34 147.635 266.41 147.635 C 276.197 147.635 285.569 149.382 294.266 152.542 C 307.713 108.639 348.543 76.7045 396.85 76.7045"
     style="fill:#000000;fill-opacity:1;fill-rule:nonzero;stroke:none"
     id="path80365" />
  <path
     d="M 95.4857 598.683 C 71.3338 556.847 78.5737 505.522 109.871 471.923 C 102.788 465.973 96.587 458.727 91.6937 450.254 C 69.1591 411.219 82.5337 361.309 121.566 338.774 C 160.598 316.24 210.509 329.614 233.044 368.645 C 239.424 379.697 245.155 391.67 240.071 401.657 C 233.955 398.304 226.571 398.168 221.056 401.845 C 211.376 408.295 210.167 418.889 215.496 427.699 C 221.764 438.061 234.704 437.915 242.967 432.429 C 264.307 418.257 264.083 388.137 247.884 360.077 C 220.616 312.85 160.226 296.669 112.999 323.936 C 65.7698 351.202 49.5871 411.593 76.8551 458.822 C 79.8164 463.949 83.1871 468.691 86.8711 473.071 C 59.6685 511.509 55.5591 563.798 80.6457 607.251 C 105.734 650.704 153.072 673.289 199.96 668.948 C 201.912 674.328 204.333 679.617 207.295 684.748 C 234.561 731.975 294.952 748.156 342.18 720.891 C 389.406 693.623 405.589 633.232 378.322 586.006 C 362.121 557.946 336.149 542.691 313.205 554.087 C 304.323 558.498 297.727 569.634 303.568 580.243 C 308.532 589.264 318.31 593.511 328.737 588.355 C 334.68 585.415 338.253 578.956 338.408 571.98 C 349.6 572.571 357.102 583.522 363.482 594.571 C 386.018 633.604 372.645 683.516 333.613 706.049 C 294.581 728.587 244.669 715.213 222.133 676.18 C 217.24 667.704 214.068 658.714 212.457 649.604 C 167.712 659.91 119.64 640.519 95.4857 598.683"
     style="fill:#000000;fill-opacity:1;fill-rule:nonzero;stroke:none"
     id="path80369" />
  <path
     d="M 698.215 598.683 C 674.06 640.519 625.99 659.91 581.245 649.604 C 579.633 658.714 576.459 667.704 571.567 676.18 C 549.031 715.213 499.119 728.587 460.088 706.049 C 421.056 683.516 407.682 633.604 430.217 594.571 C 436.6 583.522 444.102 572.571 455.293 571.98 C 455.448 578.954 459.021 585.415 464.965 588.355 C 475.39 593.511 485.169 589.264 490.133 580.24 C 495.974 569.631 489.378 558.498 480.496 554.087 C 457.552 542.691 431.578 557.946 415.378 586.006 C 388.112 633.232 404.294 693.623 451.521 720.888 C 498.747 748.156 559.139 731.975 586.407 684.748 C 589.367 679.617 591.789 674.328 593.741 668.948 C 640.628 673.287 687.967 650.704 713.055 607.251 C 738.143 563.798 734.032 511.506 706.83 473.071 C 710.514 468.691 713.884 463.949 716.846 458.822 C 744.112 411.593 727.931 351.202 680.703 323.934 C 633.475 296.669 573.083 312.85 545.818 360.077 C 529.618 388.137 529.394 418.257 550.735 432.429 C 558.997 437.915 571.937 438.061 578.205 427.697 C 583.534 418.889 582.325 408.295 572.645 401.845 C 567.13 398.168 559.746 398.304 553.63 401.655 C 548.545 391.67 554.277 379.697 560.657 368.645 C 583.191 329.614 633.103 316.24 672.135 338.772 C 711.167 361.309 724.542 411.219 702.007 450.254 C 697.112 458.727 690.914 465.973 683.83 471.923 C 715.127 505.522 722.367 556.847 698.215 598.683"
     style="fill:#000000;fill-opacity:1;fill-rule:nonzero;stroke:none"
     id="path80373" />
</svg>
