<?xml version="1.0" encoding="UTF-8" standalone="no"?>
<!-- Created with Inkscape (http://www.inkscape.org/) -->

<svg
   version="1.1"
   id="svg79367"
   width="795.03467"
   height="793.70135"
   viewBox="0 0 795.03467 793.70135"
   sodipodi:docname="Soto Mitsu Kan.svg"
   inkscape:version="1.2 (dc2aeda, 2022-05-15)"
   xmlns:inkscape="http://www.inkscape.org/namespaces/inkscape"
   xmlns:sodipodi="http://sodipodi.sourceforge.net/DTD/sodipodi-0.dtd"
   xmlns="http://www.w3.org/2000/svg"
   xmlns:svg="http://www.w3.org/2000/svg">
  <defs
     id="defs79371">
    <clipPath
       clipPathUnits="userSpaceOnUse"
       id="clipPath79888">
      <path
         d="m -323.7764,307.6686 h 596.276 v -595.276 h -596.276 z"
         id="path79890"
         style="stroke-width:0.999998" />
    </clipPath>
    <clipPath
       clipPathUnits="userSpaceOnUse"
       id="clipPath79894">
      <path
         d="M -528.0898,575.3815 H 68.186199 V -19.8945 H -528.0898 Z"
         id="path79896"
         style="stroke-width:0.999998" />
    </clipPath>
    <clipPath
       clipPathUnits="userSpaceOnUse"
       id="clipPath79900">
      <path
         d="M -567.7754,585.8522 H 28.500601 V -9.4238027 H -567.7754 Z"
         id="path79902"
         style="stroke-width:0.999998" />
    </clipPath>
    <clipPath
       clipPathUnits="userSpaceOnUse"
       id="clipPath79906">
      <path
         d="M -576.3691,585.5885 H 19.906905 V -9.6875027 H -576.3691 Z"
         id="path79908"
         style="stroke-width:0.999998" />
    </clipPath>
    <clipPath
       clipPathUnits="userSpaceOnUse"
       id="clipPath79912">
      <path
         d="M -536.6982,584.5729 H 59.577804 V -10.7031 H -536.6982 Z"
         id="path79914"
         style="stroke-width:0.999998" />
    </clipPath>
    <clipPath
       clipPathUnits="userSpaceOnUse"
       id="clipPath79918">
      <path
         d="m -297.4775,262.6769 h 596.276 v -595.276 h -596.276 z"
         id="path79920"
         style="stroke-width:0.999998" />
    </clipPath>
    <clipPath
       clipPathUnits="userSpaceOnUse"
       id="clipPath79924">
      <path
         d="M -564.5732,585.8483 H 31.702801 V -9.4277027 H -564.5732 Z"
         id="path79926"
         style="stroke-width:0.999998" />
    </clipPath>
    <clipPath
       clipPathUnits="userSpaceOnUse"
       id="clipPath79930">
      <path
         d="M -584.1943,578.9381 H 12.081705 V -16.337903 H -584.1943 Z"
         id="path79932"
         style="stroke-width:0.999998" />
    </clipPath>
    <clipPath
       clipPathUnits="userSpaceOnUse"
       id="clipPath79936">
      <path
         d="M -557.4951,577.8502 H 38.780903 V -17.4258 H -557.4951 Z"
         id="path79938"
         style="stroke-width:0.999998" />
    </clipPath>
    <clipPath
       clipPathUnits="userSpaceOnUse"
       id="clipPath79942">
      <path
         d="M -542.9326,584.5729 H 53.343399 V -10.7031 H -542.9326 Z"
         id="path79944"
         style="stroke-width:0.999998" />
    </clipPath>
    <clipPath
       clipPathUnits="userSpaceOnUse"
       id="clipPath79948">
      <path
         d="M -531.1924,581.5885 H 65.083599 V -13.6875 H -531.1924 Z"
         id="path79950"
         style="stroke-width:0.999998" />
    </clipPath>
    <clipPath
       clipPathUnits="userSpaceOnUse"
       id="clipPath79954">
      <path
         d="M -540.8213,585.8483 H 55.454701 V -9.4277027 H -540.8213 Z"
         id="path79956"
         style="stroke-width:0.999998" />
    </clipPath>
    <clipPath
       clipPathUnits="userSpaceOnUse"
       id="clipPath79960">
      <path
         d="M -538.2217,577.9479 H 58.054299 V -17.328098 H -538.2217 Z"
         id="path79962"
         style="stroke-width:0.999998" />
    </clipPath>
    <clipPath
       clipPathUnits="userSpaceOnUse"
       id="clipPath79966">
      <path
         d="m -271.6641,307.9479 h 596.276 v -595.276 h -596.276 z"
         id="path79968"
         style="stroke-width:0.999998" />
    </clipPath>
    <clipPath
       clipPathUnits="userSpaceOnUse"
       id="clipPath79973">
      <path
         d="M -572.8174,586.1354 H 23.458606 V -9.1406027 H -572.8174 Z"
         id="path79975"
         style="stroke-width:0.999998" />
    </clipPath>
    <clipPath
       clipPathUnits="userSpaceOnUse"
       id="clipPath79979">
      <path
         d="M -574.5459,585.8522 H 21.730103 V -9.4238027 H -574.5459 Z"
         id="path79981"
         style="stroke-width:0.999998" />
    </clipPath>
    <clipPath
       clipPathUnits="userSpaceOnUse"
       id="clipPath79985">
      <path
         d="M -568.2266,575.819 H 28.049401 V -19.457003 H -568.2266 Z"
         id="path79987"
         style="stroke-width:0.999998" />
    </clipPath>
    <clipPath
       clipPathUnits="userSpaceOnUse"
       id="clipPath79991">
      <path
         d="M -550.2637,577.3248 H 46.012306 V -17.951198 H -550.2637 Z"
         id="path79993"
         style="stroke-width:0.999998" />
    </clipPath>
    <clipPath
       clipPathUnits="userSpaceOnUse"
       id="clipPath79998">
      <path
         d="M -556.4014,578.0143 H 39.874606 V -17.2617 H -556.4014 Z"
         id="path80000"
         style="stroke-width:0.999998" />
    </clipPath>
    <clipPath
       clipPathUnits="userSpaceOnUse"
       id="clipPath80004">
      <path
         d="M -586.5449,579.5026 H 9.7311002 V -15.7734 H -586.5449 Z"
         id="path80006"
         style="stroke-width:0.999998" />
    </clipPath>
    <clipPath
       clipPathUnits="userSpaceOnUse"
       id="clipPath80010">
      <path
         d="M -545.417,584.5729 H 50.859001 V -10.7031 H -545.417 Z"
         id="path80012"
         style="stroke-width:0.999998" />
    </clipPath>
    <clipPath
       clipPathUnits="userSpaceOnUse"
       id="clipPath80016">
      <path
         d="M -561.4131,585.8522 H 34.862903 V -9.4238027 H -561.4131 Z"
         id="path80018"
         style="stroke-width:0.999998" />
    </clipPath>
    <clipPath
       clipPathUnits="userSpaceOnUse"
       id="clipPath80022">
      <path
         d="M -557.0645,585.8483 H 39.211501 V -9.4277027 H -557.0645 Z"
         id="path80024"
         style="stroke-width:0.999998" />
    </clipPath>
    <clipPath
       clipPathUnits="userSpaceOnUse"
       id="clipPath80028">
      <path
         d="M -553.8975,585.8483 H 42.378504 V -9.4277027 H -553.8975 Z"
         id="path80030"
         style="stroke-width:0.999998" />
    </clipPath>
    <clipPath
       clipPathUnits="userSpaceOnUse"
       id="clipPath80034">
      <path
         d="M -548.9834,585.8522 H 47.292601 V -9.4238027 H -548.9834 Z"
         id="path80036"
         style="stroke-width:0.999998" />
    </clipPath>
  </defs>
  <sodipodi:namedview
     id="namedview79369"
     pagecolor="#ffffff"
     bordercolor="#000000"
     borderopacity="0.25"
     inkscape:showpageshadow="2"
     inkscape:pageopacity="0.0"
     inkscape:pagecheckerboard="0"
     inkscape:deskcolor="#d1d1d1"
     showgrid="false"
     inkscape:zoom="0.29734106"
     inkscape:cx="-215.24105"
     inkscape:cy="396.85068"
     inkscape:window-width="1419"
     inkscape:window-height="456"
     inkscape:window-x="0"
     inkscape:window-y="25"
     inkscape:window-maximized="0"
     inkscape:current-layer="svg79367">
    <inkscape:page
       x="0"
       y="0"
       id="page79373"
       width="795.03467"
       height="793.70135" />
  </sodipodi:namedview>
  <path
     d="M 396.637 350.236 C 487.814 350.236 566.159 294.363 598.868 214.986 C 609.428 189.356 615.48 161.275 615.254 131.835 C 614.952 92.7446 590.049 71.8487 567.073 74.934 C 547.123 77.614 537.129 91.5286 537.129 108.479 C 537.129 125.431 550.871 139.171 567.822 139.171 C 571.887 139.171 575.762 138.375 579.314 136.938 C 576.801 235.671 495.974 314.933 396.637 314.933 C 297.301 314.933 216.473 235.671 213.96 136.938 C 217.512 138.375 221.387 139.171 225.452 139.171 C 242.403 139.171 256.145 125.431 256.145 108.479 C 256.145 91.5286 246.151 77.614 226.203 74.934 C 203.225 71.8487 178.322 92.7446 178.02 131.835 C 177.794 161.275 183.846 189.356 194.406 214.986 C 227.115 294.363 305.46 350.236 396.637 350.236"
     style="fill:#000000;fill-opacity:1;fill-rule:nonzero;stroke:none"
     id="path79487" />
  <path
     d="M 362.219 410.597 C 316.63 331.637 229.07 291.725 143.973 303.085 C 116.497 306.755 89.1517 315.553 63.7691 330.471 C 30.0678 350.276 24.4212 382.293 38.5825 400.644 C 50.8771 416.581 67.9251 418.28 82.6037 409.802 C 97.2863 401.329 102.314 382.56 93.8383 367.88 C 91.805 364.361 89.1797 361.402 86.1584 359.044 C 172.919 311.856 281.978 342.221 331.644 428.245 C 381.314 514.274 353.082 623.903 268.835 675.448 C 268.303 671.654 267.055 667.899 265.023 664.378 C 256.547 649.698 237.778 644.667 223.097 653.143 C 208.418 661.62 201.363 677.232 209.018 695.848 C 217.834 717.29 248.383 728.408 282.386 709.123 C 307.995 694.599 329.288 675.318 346.204 653.359 C 398.591 585.342 407.807 489.558 362.219 410.597"
     style="fill:#000000;fill-opacity:1;fill-rule:nonzero;stroke:none"
     id="path79491" />
  <path
     d="M 431.702 410.225 C 386.114 489.186 395.33 584.97 447.717 652.984 C 464.631 674.943 485.926 694.227 511.535 708.751 C 545.538 728.036 576.087 716.915 584.903 695.475 C 592.558 676.86 585.503 661.246 570.823 652.771 C 556.143 644.295 537.374 649.323 528.898 664.006 C 526.866 667.527 525.618 671.279 525.086 675.074 C 440.838 623.53 412.607 513.902 462.275 427.873 C 511.944 341.848 621 311.481 707.761 358.67 C 704.741 361.029 702.115 363.986 700.081 367.506 C 691.607 382.186 696.635 400.954 711.317 409.43 C 725.996 417.905 743.044 416.209 755.339 400.272 C 769.498 381.918 763.853 349.902 730.152 330.099 C 704.769 315.18 677.424 306.381 649.948 302.713 C 564.851 291.351 477.29 331.263 431.702 410.225"
     style="fill:#000000;fill-opacity:1;fill-rule:nonzero;stroke:none"
     id="path79495" />
</svg>
