<?xml version="1.0" encoding="UTF-8" standalone="no"?>
<!-- Created with Inkscape (http://www.inkscape.org/) -->

<svg
   version="1.1"
   id="svg70773"
   width="795.03467"
   height="793.70135"
   viewBox="0 0 795.03467 793.70135"
   sodipodi:docname="Yotsukan Hishini Suzume.svg"
   inkscape:version="1.2 (dc2aeda, 2022-05-15)"
   xmlns:inkscape="http://www.inkscape.org/namespaces/inkscape"
   xmlns:sodipodi="http://sodipodi.sourceforge.net/DTD/sodipodi-0.dtd"
   xmlns="http://www.w3.org/2000/svg"
   xmlns:svg="http://www.w3.org/2000/svg">
  <defs
     id="defs70777">
    <clipPath
       clipPathUnits="userSpaceOnUse"
       id="clipPath71266">
      <path
         d="M -542.9326,584.5729 H 53.343399 V -10.7031 H -542.9326 Z"
         id="path71268"
         style="stroke-width:0.999998" />
    </clipPath>
    <clipPath
       clipPathUnits="userSpaceOnUse"
       id="clipPath71272">
      <path
         d="M -531.1924,581.5885 H 65.083599 V -13.6875 H -531.1924 Z"
         id="path71274"
         style="stroke-width:0.999998" />
    </clipPath>
    <clipPath
       clipPathUnits="userSpaceOnUse"
       id="clipPath71278">
      <path
         d="M -536.6982,584.5729 H 59.577804 V -10.7031 H -536.6982 Z"
         id="path71280"
         style="stroke-width:0.999998" />
    </clipPath>
    <clipPath
       clipPathUnits="userSpaceOnUse"
       id="clipPath71284">
      <path
         d="M -540.8213,585.8483 H 55.454701 V -9.4277027 H -540.8213 Z"
         id="path71286"
         style="stroke-width:0.999998" />
    </clipPath>
    <clipPath
       clipPathUnits="userSpaceOnUse"
       id="clipPath71290">
      <path
         d="M -528.0898,575.3815 H 68.186199 V -19.8945 H -528.0898 Z"
         id="path71292"
         style="stroke-width:0.999998" />
    </clipPath>
    <clipPath
       clipPathUnits="userSpaceOnUse"
       id="clipPath71296">
      <path
         d="M -545.417,584.5729 H 50.859001 V -10.7031 H -545.417 Z"
         id="path71298"
         style="stroke-width:0.999998" />
    </clipPath>
    <clipPath
       clipPathUnits="userSpaceOnUse"
       id="clipPath71302">
      <path
         d="M -548.9834,585.8522 H 47.292601 V -9.4238027 H -548.9834 Z"
         id="path71304"
         style="stroke-width:0.999998" />
    </clipPath>
    <clipPath
       clipPathUnits="userSpaceOnUse"
       id="clipPath71308">
      <path
         d="M -553.8975,585.8483 H 42.378504 V -9.4277027 H -553.8975 Z"
         id="path71310"
         style="stroke-width:0.999998" />
    </clipPath>
    <clipPath
       clipPathUnits="userSpaceOnUse"
       id="clipPath71314">
      <path
         d="M -557.0645,585.8483 H 39.211501 V -9.4277027 H -557.0645 Z"
         id="path71316"
         style="stroke-width:0.999998" />
    </clipPath>
    <clipPath
       clipPathUnits="userSpaceOnUse"
       id="clipPath71320">
      <path
         d="M -561.4131,585.8522 H 34.862903 V -9.4238027 H -561.4131 Z"
         id="path71322"
         style="stroke-width:0.999998" />
    </clipPath>
    <clipPath
       clipPathUnits="userSpaceOnUse"
       id="clipPath71326">
      <path
         d="M -564.5732,585.8483 H 31.702801 V -9.4277027 H -564.5732 Z"
         id="path71328"
         style="stroke-width:0.999998" />
    </clipPath>
    <clipPath
       clipPathUnits="userSpaceOnUse"
       id="clipPath71332">
      <path
         d="M -567.7754,585.8522 H 28.500601 V -9.4238027 H -567.7754 Z"
         id="path71334"
         style="stroke-width:0.999998" />
    </clipPath>
    <clipPath
       clipPathUnits="userSpaceOnUse"
       id="clipPath71339">
      <path
         d="M -572.8174,586.1354 H 23.458606 V -9.1406027 H -572.8174 Z"
         id="path71341"
         style="stroke-width:0.999998" />
    </clipPath>
    <clipPath
       clipPathUnits="userSpaceOnUse"
       id="clipPath71345">
      <path
         d="M -574.5459,585.8522 H 21.730103 V -9.4238027 H -574.5459 Z"
         id="path71347"
         style="stroke-width:0.999998" />
    </clipPath>
    <clipPath
       clipPathUnits="userSpaceOnUse"
       id="clipPath71351">
      <path
         d="M -576.3691,585.5885 H 19.906905 V -9.6875027 H -576.3691 Z"
         id="path71353"
         style="stroke-width:0.999998" />
    </clipPath>
    <clipPath
       clipPathUnits="userSpaceOnUse"
       id="clipPath71357">
      <path
         d="M -557.4951,577.8502 H 38.780903 V -17.4258 H -557.4951 Z"
         id="path71359"
         style="stroke-width:0.999998" />
    </clipPath>
    <clipPath
       clipPathUnits="userSpaceOnUse"
       id="clipPath71363">
      <path
         d="M -568.2266,575.819 H 28.049401 V -19.457003 H -568.2266 Z"
         id="path71365"
         style="stroke-width:0.999998" />
    </clipPath>
    <clipPath
       clipPathUnits="userSpaceOnUse"
       id="clipPath71369">
      <path
         d="M -550.2637,577.3248 H 46.012306 V -17.951198 H -550.2637 Z"
         id="path71371"
         style="stroke-width:0.999998" />
    </clipPath>
    <clipPath
       clipPathUnits="userSpaceOnUse"
       id="clipPath71376">
      <path
         d="M -556.4014,578.0143 H 39.874606 V -17.2617 H -556.4014 Z"
         id="path71378"
         style="stroke-width:0.999998" />
    </clipPath>
    <clipPath
       clipPathUnits="userSpaceOnUse"
       id="clipPath71382">
      <path
         d="M -586.5449,579.5026 H 9.7311002 V -15.7734 H -586.5449 Z"
         id="path71384"
         style="stroke-width:0.999998" />
    </clipPath>
    <clipPath
       clipPathUnits="userSpaceOnUse"
       id="clipPath71388">
      <path
         d="M -584.1943,578.9381 H 12.081705 V -16.337903 H -584.1943 Z"
         id="path71390"
         style="stroke-width:0.999998" />
    </clipPath>
    <clipPath
       clipPathUnits="userSpaceOnUse"
       id="clipPath71394">
      <path
         d="M -538.2217,577.9479 H 58.054299 V -17.328098 H -538.2217 Z"
         id="path71396"
         style="stroke-width:0.999998" />
    </clipPath>
    <clipPath
       clipPathUnits="userSpaceOnUse"
       id="clipPath71400">
      <path
         d="m -334.1299,213.7223 h 596.276 v -595.276 h -596.276 z"
         id="path71402"
         style="stroke-width:0.999998" />
    </clipPath>
  </defs>
  <sodipodi:namedview
     id="namedview70775"
     pagecolor="#ffffff"
     bordercolor="#000000"
     borderopacity="0.25"
     inkscape:showpageshadow="2"
     inkscape:pageopacity="0.0"
     inkscape:pagecheckerboard="0"
     inkscape:deskcolor="#d1d1d1"
     showgrid="false"
     inkscape:zoom="0.29734106"
     inkscape:cx="-215.24105"
     inkscape:cy="396.85068"
     inkscape:window-width="1419"
     inkscape:window-height="456"
     inkscape:window-x="0"
     inkscape:window-y="25"
     inkscape:window-maximized="0"
     inkscape:current-layer="svg70773">
    <inkscape:page
       x="0"
       y="0"
       id="page70779"
       width="795.03467"
       height="793.70135" />
  </sodipodi:namedview>
  <path
     d="M 445.507 284.963 C 434.959 284.963 429.72 286.258 424.395 287.916 C 419.004 278.26 408.692 271.728 396.85 271.728 C 385.007 271.728 374.695 278.26 369.305 287.916 C 363.979 286.258 358.741 284.963 348.193 284.963 C 336.994 285.315 326.537 288.606 317.569 294.094 C 342.522 305.414 361.497 327.588 368.461 354.596 C 372.282 353.632 376.174 352.851 380.135 352.277 C 378.105 333.976 371.895 316.872 362.206 302.502 C 360.559 300.056 362.167 297.364 363.851 296.474 C 366.059 295.307 368.309 295.752 370.185 298.848 C 379.652 314.476 386.398 332.302 388.682 351.375 C 391.383 351.187 394.1 351.062 396.85 351.062 C 399.598 351.062 402.315 351.187 405.018 351.375 C 407.302 332.302 414.046 314.476 423.515 298.848 C 425.391 295.752 427.64 295.307 429.848 296.474 C 431.532 297.364 433.14 300.056 431.492 302.502 C 421.804 316.872 415.594 333.976 413.564 352.277 C 417.526 352.851 421.418 353.632 425.239 354.596 C 432.202 327.588 451.178 305.414 476.131 294.094 C 467.162 288.606 456.704 285.315 445.507 284.963 M 327.611 385.047 C 334.362 399.416 343.073 412.681 353.419 424.501 C 364.37 414.179 379.498 407.908 396.851 407.949 C 414.203 407.908 429.332 414.179 440.283 424.501 C 450.628 412.681 459.342 399.416 466.091 385.047 C 447.391 369.26 423.238 359.728 396.851 359.728 C 370.463 359.728 346.311 369.26 327.611 385.047 M 504.272 467.148 C 504.272 453.588 501.736 440.624 497.148 428.676 C 485.24 438.827 474.754 450.599 466.044 463.657 L 460.151 472.496 C 460.151 472.525 460.154 472.553 460.154 472.583 C 460.154 475.351 459.982 478.151 459.671 480.965 C 465.558 486.098 469.295 493.632 469.299 502.058 C 469.292 517.528 456.766 530.053 441.296 530.061 C 440.195 530.058 439.112 529.981 438.044 529.856 C 434.251 534.358 430.304 538.312 426.475 541.7 C 424.439 543.493 422.442 545.126 420.5 546.634 C 468.446 538.298 504.272 505.29 504.272 467.148 M 428.906 527.14 C 419.667 522.564 413.302 513.072 413.298 502.058 C 413.304 486.593 425.831 474.067 441.296 474.059 C 444.856 474.061 448.247 474.752 451.378 475.963 C 453.01 443.723 431.235 416.616 396.851 416.616 C 362.467 416.616 340.694 443.723 342.323 475.963 C 345.455 474.752 348.846 474.061 352.406 474.059 C 367.871 474.067 380.398 486.593 380.404 502.058 C 380.399 513.072 374.035 522.564 364.797 527.14 C 379.86 543.689 396.851 551.348 396.851 551.348 C 396.851 551.348 413.842 543.689 428.906 527.14 M 556.544 364.588 C 552.839 362.979 549.001 362.093 545.189 361.864 C 541.829 354.824 536.017 348.916 528.3 345.564 C 522.112 342.878 515.56 342.211 509.368 343.26 C 505.896 337.387 500.612 332.512 493.878 329.588 C 492.627 329.044 491.36 328.594 490.086 328.214 C 486.851 367.476 470.819 403.103 446.183 430.939 C 446.86 431.796 447.516 432.665 448.147 433.556 C 471.19 408.689 488.095 379.009 495.32 347.958 C 495.868 345.63 498.195 344.179 500.528 344.723 C 502.856 345.266 504.306 347.594 503.762 349.927 C 495.931 383.46 477.619 415.059 452.806 441.26 C 453.456 442.533 454.075 443.823 454.642 445.143 C 477.576 414.291 506.998 388.944 538.173 374.416 C 540.341 373.408 542.923 374.348 543.931 376.517 C 544.939 378.689 543.999 381.265 541.827 382.275 L 541.831 382.275 C 510.642 396.772 480.655 423.187 458.028 455.241 C 458.328 456.435 458.596 457.637 458.832 458.851 C 484.938 419.7 526.196 391.515 574.232 382.687 C 571.039 374.859 564.913 368.22 556.544 364.588 M 449.74 502.058 C 449.74 506.725 445.958 510.504 441.295 510.504 C 436.632 510.504 432.851 506.725 432.851 502.058 C 432.851 497.397 436.632 493.616 441.295 493.616 C 445.958 493.616 449.74 497.397 449.74 502.058 M 421.963 502.058 C 421.963 512.738 430.619 521.392 441.296 521.392 C 451.974 521.392 460.631 512.738 460.631 502.058 C 460.631 491.381 451.974 482.725 441.296 482.725 C 430.619 482.725 421.963 491.381 421.963 502.058 M 373.202 546.634 C 371.259 545.126 369.262 543.493 367.229 541.7 C 363.398 538.312 359.45 534.358 355.657 529.856 C 354.59 529.981 353.507 530.058 352.406 530.061 C 336.935 530.053 324.41 517.528 324.403 502.058 C 324.409 493.632 328.145 486.098 334.031 480.965 C 333.719 478.151 333.547 475.351 333.547 472.583 C 333.547 472.553 333.55 472.525 333.55 472.496 L 327.657 463.657 C 318.95 450.599 308.462 438.827 296.553 428.676 C 291.967 440.624 289.429 453.588 289.429 467.148 C 289.429 505.29 325.257 538.298 373.202 546.634 M 299.823 329.588 C 293.089 332.512 287.807 337.387 284.334 343.26 C 278.143 342.211 271.59 342.878 265.401 345.564 C 257.685 348.916 251.873 354.824 248.513 361.864 C 244.701 362.093 240.864 362.979 237.158 364.588 C 228.79 368.22 222.664 374.859 219.47 382.687 C 267.506 391.515 308.763 419.7 334.869 458.851 C 335.105 457.637 335.374 456.435 335.674 455.241 C 313.046 423.187 283.062 396.772 251.87 382.275 L 251.874 382.275 C 249.702 381.265 248.762 378.689 249.77 376.517 C 250.779 374.348 253.361 373.408 255.53 374.416 C 286.703 388.944 316.127 414.291 339.061 445.143 C 339.627 443.823 340.246 442.533 340.897 441.26 C 316.083 415.059 297.77 383.46 289.939 349.927 C 289.397 347.594 290.846 345.266 293.174 344.723 C 295.506 344.179 297.834 345.63 298.381 347.958 C 305.606 379.009 322.513 408.689 345.554 433.556 C 346.186 432.665 346.842 431.796 347.519 430.939 C 322.882 403.103 306.851 367.476 303.617 328.214 C 302.343 328.594 301.075 329.044 299.823 329.588 M 352.409 493.616 C 357.07 493.616 360.851 497.397 360.851 502.058 C 360.851 506.725 357.07 510.504 352.409 510.504 C 347.745 510.504 343.963 506.725 343.963 502.058 C 343.963 497.397 347.745 493.616 352.409 493.616 M 333.073 502.058 C 333.073 512.738 341.729 521.392 352.406 521.392 C 363.083 521.392 371.739 512.738 371.739 502.058 C 371.739 491.381 363.083 482.725 352.406 482.725 C 341.729 482.725 333.073 491.381 333.073 502.058 M 537.028 537.282 C 516.801 537.282 500.406 553.681 500.406 573.905 C 500.406 586.432 506.694 597.481 516.284 604.085 C 481.139 624.381 440.354 636.006 396.851 636.006 C 353.349 636.006 312.563 624.381 277.419 604.085 C 287.007 597.481 293.297 586.432 293.297 573.905 C 293.297 553.681 276.901 537.282 256.674 537.282 C 236.449 537.282 221.609 552.924 219.297 573.017 C 212.762 629.795 305.518 676.003 396.851 676.003 C 488.184 676.003 580.94 629.795 574.405 573.017 C 572.092 552.924 557.253 537.282 537.028 537.282 M 616.745 251.624 C 577.184 251.624 532.349 270.518 532.349 303.132 C 532.349 319.656 543.835 332.882 560.348 333.43 C 579.473 334.062 590.643 319.656 590.643 303.132 C 590.643 300.578 590.299 298.106 589.695 295.742 C 597.636 293.067 606.612 291.622 616.745 291.622 C 674.86 291.622 721.976 338.736 721.976 396.851 C 721.976 454.965 674.86 502.08 616.745 502.08 C 606.612 502.08 597.636 500.632 589.695 497.96 C 590.299 495.593 590.643 493.124 590.643 490.569 C 590.643 474.047 579.473 459.64 560.348 460.272 C 543.835 460.82 532.349 474.047 532.349 490.569 C 532.349 523.184 577.184 542.077 616.745 542.077 C 696.949 542.077 761.972 477.056 761.972 396.851 C 761.972 316.646 696.949 251.624 616.745 251.624 M 256.674 256.416 C 276.901 256.416 293.297 240.02 293.297 219.794 C 293.297 207.27 287.007 196.221 277.419 189.617 C 312.563 169.321 353.349 157.698 396.851 157.698 C 440.354 157.698 481.139 169.321 516.284 189.617 C 506.694 196.221 500.406 207.27 500.406 219.794 C 500.406 240.02 516.801 256.416 537.028 256.416 C 557.253 256.416 572.092 240.775 574.405 220.684 C 580.94 163.906 488.184 117.695 396.851 117.695 C 305.518 117.695 212.762 163.906 219.297 220.684 C 221.609 240.775 236.449 256.416 256.674 256.416 M 261.351 490.569 C 261.351 474.047 249.869 460.82 233.354 460.272 C 214.229 459.64 203.06 474.047 203.06 490.569 C 203.06 493.124 203.405 495.593 204.008 497.96 C 196.068 500.632 187.09 502.08 176.957 502.08 C 118.842 502.08 71.7266 454.965 71.7266 396.851 C 71.7266 338.736 118.842 291.622 176.957 291.622 C 187.09 291.622 196.068 293.067 204.008 295.742 C 203.405 298.106 203.06 300.578 203.06 303.132 C 203.06 319.656 214.229 334.062 233.354 333.43 C 249.869 332.882 261.351 319.656 261.351 303.132 C 261.351 270.518 216.518 251.624 176.957 251.624 C 96.7532 251.624 31.7294 316.646 31.7294 396.851 C 31.7294 477.056 96.7532 542.077 176.957 542.077 C 216.518 542.077 261.351 523.184 261.351 490.569"
     style="fill:#000000;fill-opacity:1;fill-rule:nonzero;stroke:none"
     id="path70893" />
</svg>
