<?xml version="1.0" encoding="UTF-8" standalone="no"?>
<!-- Created with Inkscape (http://www.inkscape.org/) -->

<svg
   version="1.1"
   id="svg31097"
   width="795.03467"
   height="793.70135"
   viewBox="0 0 795.03467 793.70135"
   sodipodi:docname="Akimotouri.svg"
   inkscape:version="1.2 (dc2aeda, 2022-05-15)"
   xmlns:inkscape="http://www.inkscape.org/namespaces/inkscape"
   xmlns:sodipodi="http://sodipodi.sourceforge.net/DTD/sodipodi-0.dtd"
   xmlns="http://www.w3.org/2000/svg"
   xmlns:svg="http://www.w3.org/2000/svg">
  <defs
     id="defs31101">
    <clipPath
       clipPathUnits="userSpaceOnUse"
       id="clipPath31772">
      <path
         d="M -548.9834,585.8522 H 47.292602 V -9.4238 H -548.9834 Z"
         id="path31774"
         style="stroke-width:0.999998" />
    </clipPath>
    <clipPath
       clipPathUnits="userSpaceOnUse"
       id="clipPath31778">
      <path
         d="M -550.2637,577.3248 H 46.012302 V -17.9512 H -550.2637 Z"
         id="path31780"
         style="stroke-width:0.999998" />
    </clipPath>
    <clipPath
       clipPathUnits="userSpaceOnUse"
       id="clipPath31784">
      <path
         d="M -572.8174,586.1354 H 23.458602 V -9.1406 H -572.8174 Z"
         id="path31786"
         style="stroke-width:0.999998" />
    </clipPath>
    <clipPath
       clipPathUnits="userSpaceOnUse"
       id="clipPath31790">
      <path
         d="m -275.8525,319.4342 h 596.276 v -595.276 h -596.276 z"
         id="path31792"
         style="stroke-width:0.999998" />
    </clipPath>
    <clipPath
       clipPathUnits="userSpaceOnUse"
       id="clipPath31796">
      <path
         d="M -545.417,584.5729 H 50.859002 V -10.7031 H -545.417 Z"
         id="path31798"
         style="stroke-width:0.999998" />
    </clipPath>
    <clipPath
       clipPathUnits="userSpaceOnUse"
       id="clipPath31802">
      <path
         d="M -542.9326,584.5729 H 53.343402 V -10.7031 H -542.9326 Z"
         id="path31804"
         style="stroke-width:0.999998" />
    </clipPath>
    <clipPath
       clipPathUnits="userSpaceOnUse"
       id="clipPath31808">
      <path
         d="M -556.4014,578.0143 H 39.874602 V -17.2617 H -556.4014 Z"
         id="path31810"
         style="stroke-width:0.999998" />
    </clipPath>
    <clipPath
       clipPathUnits="userSpaceOnUse"
       id="clipPath31815">
      <path
         d="M -576.3691,585.5885 H 19.906902 V -9.6875 H -576.3691 Z"
         id="path31817"
         style="stroke-width:0.999998" />
    </clipPath>
    <clipPath
       clipPathUnits="userSpaceOnUse"
       id="clipPath31821">
      <path
         d="M -567.7754,585.8522 H 28.500602 V -9.4238 H -567.7754 Z"
         id="path31823"
         style="stroke-width:0.999998" />
    </clipPath>
    <clipPath
       clipPathUnits="userSpaceOnUse"
       id="clipPath31827">
      <path
         d="M -568.2266,575.819 H 28.049402 V -19.457 H -568.2266 Z"
         id="path31829"
         style="stroke-width:0.999998" />
    </clipPath>
    <clipPath
       clipPathUnits="userSpaceOnUse"
       id="clipPath31833">
      <path
         d="M -557.4951,577.8502 H 38.780902 V -17.4258 H -557.4951 Z"
         id="path31835"
         style="stroke-width:0.999998" />
    </clipPath>
    <clipPath
       clipPathUnits="userSpaceOnUse"
       id="clipPath31839">
      <path
         d="m -122.7061,240.8307 h 596.276 v -595.276 h -596.276 z"
         id="path31841"
         style="stroke-width:0.999998" />
    </clipPath>
    <clipPath
       clipPathUnits="userSpaceOnUse"
       id="clipPath31845">
      <path
         d="m -137.6729,245.691 h 596.276 v -595.276 h -596.276 z"
         id="path31847"
         style="stroke-width:0.999998" />
    </clipPath>
    <clipPath
       clipPathUnits="userSpaceOnUse"
       id="clipPath31851">
      <path
         d="m -302.0908,266.0758 h 596.276 v -595.276 h -596.276 z"
         id="path31853"
         style="stroke-width:0.999998" />
    </clipPath>
    <clipPath
       clipPathUnits="userSpaceOnUse"
       id="clipPath31857">
      <path
         d="M -540.8213,585.8483 H 55.454702 V -9.4277 H -540.8213 Z"
         id="path31859"
         style="stroke-width:0.999998" />
    </clipPath>
    <clipPath
       clipPathUnits="userSpaceOnUse"
       id="clipPath31863">
      <path
         d="M -536.6982,584.5729 H 59.577802 V -10.7031 H -536.6982 Z"
         id="path31865"
         style="stroke-width:0.999998" />
    </clipPath>
    <clipPath
       clipPathUnits="userSpaceOnUse"
       id="clipPath31869">
      <path
         d="m -198.7729,433.7457 h 596.276 v -595.276 h -596.276 z"
         id="path31871"
         style="stroke-width:0.999998" />
    </clipPath>
    <clipPath
       clipPathUnits="userSpaceOnUse"
       id="clipPath31875">
      <path
         d="m -297.6377,129.4713 h 596.276 v -595.276 h -596.276 z"
         id="path31877"
         style="stroke-width:0.999998" />
    </clipPath>
    <clipPath
       clipPathUnits="userSpaceOnUse"
       id="clipPath31881">
      <path
         d="m -472.5703,240.8307 h 596.276 v -595.276 h -596.276 z"
         id="path31883"
         style="stroke-width:0.999998" />
    </clipPath>
    <clipPath
       clipPathUnits="userSpaceOnUse"
       id="clipPath31887">
      <path
         d="m -396.5039,433.7457 h 596.276 v -595.276 h -596.276 z"
         id="path31889"
         style="stroke-width:0.999998" />
    </clipPath>
    <clipPath
       clipPathUnits="userSpaceOnUse"
       id="clipPath31893">
      <path
         d="m -457.6006,245.693 h 596.276 v -595.276 h -596.276 z"
         id="path31895"
         style="stroke-width:0.999998" />
    </clipPath>
    <clipPath
       clipPathUnits="userSpaceOnUse"
       id="clipPath31899">
      <path
         d="m -269.5854,283.2213 h 596.276 v -595.276 h -596.276 z"
         id="path31901"
         style="stroke-width:0.999998" />
    </clipPath>
    <clipPath
       clipPathUnits="userSpaceOnUse"
       id="clipPath31905">
      <path
         d="m -297.6377,231.4825 h 596.276 v -595.276 h -596.276 z"
         id="path31907"
         style="stroke-width:0.999998" />
    </clipPath>
    <clipPath
       clipPathUnits="userSpaceOnUse"
       id="clipPath31911">
      <path
         d="m -189.5215,446.4752 h 596.276 v -595.276 h -596.276 z"
         id="path31913"
         style="stroke-width:0.999998" />
    </clipPath>
    <clipPath
       clipPathUnits="userSpaceOnUse"
       id="clipPath31917">
      <path
         d="m -405.7549,446.4752 h 596.276 v -595.276 h -596.276 z"
         id="path31919"
         style="stroke-width:0.999998" />
    </clipPath>
    <clipPath
       clipPathUnits="userSpaceOnUse"
       id="clipPath31923">
      <path
         d="m -235.3062,276.7667 h 596.276 v -595.276 h -596.276 z"
         id="path31925"
         style="stroke-width:0.999998" />
    </clipPath>
    <clipPath
       clipPathUnits="userSpaceOnUse"
       id="clipPath31929">
      <path
         d="M -557.0645,585.8483 H 39.211502 V -9.4277 H -557.0645 Z"
         id="path31931"
         style="stroke-width:0.999998" />
    </clipPath>
    <clipPath
       clipPathUnits="userSpaceOnUse"
       id="clipPath31936">
      <path
         d="M -586.5449,579.5026 H 9.7311024 V -15.7734 H -586.5449 Z"
         id="path31938"
         style="stroke-width:0.999998" />
    </clipPath>
    <clipPath
       clipPathUnits="userSpaceOnUse"
       id="clipPath31942">
      <path
         d="M -553.8975,585.8483 H 42.378502 V -9.4277 H -553.8975 Z"
         id="path31944"
         style="stroke-width:0.999998" />
    </clipPath>
    <clipPath
       clipPathUnits="userSpaceOnUse"
       id="clipPath31948">
      <path
         d="M -561.4131,585.8522 H 34.862902 V -9.4238 H -561.4131 Z"
         id="path31950"
         style="stroke-width:0.999998" />
    </clipPath>
    <clipPath
       clipPathUnits="userSpaceOnUse"
       id="clipPath31954">
      <path
         d="m -323.0244,297.0192 h 596.276 v -595.276 h -596.276 z"
         id="path31956"
         style="stroke-width:0.999998" />
    </clipPath>
    <clipPath
       clipPathUnits="userSpaceOnUse"
       id="clipPath31960">
      <path
         d="M -564.5732,585.8483 H 31.702802 V -9.4277 H -564.5732 Z"
         id="path31962"
         style="stroke-width:0.999998" />
    </clipPath>
    <clipPath
       clipPathUnits="userSpaceOnUse"
       id="clipPath31966">
      <path
         d="M -538.2217,577.9479 H 58.054302 V -17.3281 H -538.2217 Z"
         id="path31968"
         style="stroke-width:0.999998" />
    </clipPath>
    <clipPath
       clipPathUnits="userSpaceOnUse"
       id="clipPath31972">
      <path
         d="m -297.6377,113.734 h 596.276 v -595.276 h -596.276 z"
         id="path31974"
         style="stroke-width:0.999998" />
    </clipPath>
    <clipPath
       clipPathUnits="userSpaceOnUse"
       id="clipPath31978">
      <path
         d="M -584.1943,578.9381 H 12.081702 V -16.3379 H -584.1943 Z"
         id="path31980"
         style="stroke-width:0.999998" />
    </clipPath>
    <clipPath
       clipPathUnits="userSpaceOnUse"
       id="clipPath31985">
      <path
         d="m -336.1553,350.0358 h 596.276 v -595.276 h -596.276 z"
         id="path31987"
         style="stroke-width:0.999998" />
    </clipPath>
    <clipPath
       clipPathUnits="userSpaceOnUse"
       id="clipPath31991">
      <path
         d="m -312.2246,324.6656 h 596.276 v -595.276 h -596.276 z"
         id="path31993"
         style="stroke-width:0.999998" />
    </clipPath>
    <clipPath
       clipPathUnits="userSpaceOnUse"
       id="clipPath31997">
      <path
         d="m -328.4404,291.6886 h 596.276 v -595.276 h -596.276 z"
         id="path31999"
         style="stroke-width:0.999998" />
    </clipPath>
    <clipPath
       clipPathUnits="userSpaceOnUse"
       id="clipPath32003">
      <path
         d="m -359.9629,276.7706 h 596.276 v -595.276 h -596.276 z"
         id="path32005"
         style="stroke-width:0.999998" />
    </clipPath>
    <clipPath
       clipPathUnits="userSpaceOnUse"
       id="clipPath32009">
      <path
         d="M -574.5459,585.8522 H 21.730102 V -9.4238 H -574.5459 Z"
         id="path32011"
         style="stroke-width:0.999998" />
    </clipPath>
    <clipPath
       clipPathUnits="userSpaceOnUse"
       id="clipPath32015">
      <path
         d="M -531.1924,581.5885 H 65.083602 V -13.6875 H -531.1924 Z"
         id="path32017"
         style="stroke-width:0.999998" />
    </clipPath>
    <clipPath
       clipPathUnits="userSpaceOnUse"
       id="clipPath32021">
      <path
         d="M -528.0898,575.3815 H 68.186202 V -19.8945 H -528.0898 Z"
         id="path32023"
         style="stroke-width:0.999998" />
    </clipPath>
  </defs>
  <sodipodi:namedview
     id="namedview31099"
     pagecolor="#ffffff"
     bordercolor="#000000"
     borderopacity="0.25"
     inkscape:showpageshadow="2"
     inkscape:pageopacity="0.0"
     inkscape:pagecheckerboard="0"
     inkscape:deskcolor="#d1d1d1"
     showgrid="false"
     inkscape:zoom="0.29734106"
     inkscape:cx="-215.24105"
     inkscape:cy="396.85068"
     inkscape:window-width="1419"
     inkscape:window-height="456"
     inkscape:window-x="0"
     inkscape:window-y="25"
     inkscape:window-maximized="0"
     inkscape:current-layer="svg31097">
    <inkscape:page
       x="0"
       y="0"
       id="page31103"
       width="795.03467"
       height="793.70135" />
  </sodipodi:namedview>
  <path
     d="m 430.698,396.026 c 0,18.692 -15.158,33.848 -33.85,33.848 -18.69,0 -33.845,-15.156 -33.845,-33.848 0,-18.696 15.155,-33.851 33.845,-33.851 18.692,0 33.85,15.155 33.85,33.851"
     style="fill:#000000;fill-opacity:1;fill-rule:nonzero;stroke:none"
     id="path31217" />
  <path
     d="m 396.85,151.647 c 55.258,0 91.807,16.3 116.526,29.985 15.015,8.312 19.219,21.033 19.219,21.033 0,0 16.673,-22.976 36.138,-49.742 20.335,-27.962 3.428,-65.7722 -19.532,-83.3255 -25.632,-19.6106 -76.57,-37.8666 -152.351,-37.8666 -75.78,0 -126.717,18.256 -152.348,37.8666 -22.963,17.5533 -39.869,55.3635 -19.535,83.3255 19.464,26.766 36.138,49.742 36.138,49.742 0,0 4.205,-12.721 19.221,-21.033 24.719,-13.685 61.268,-29.985 116.524,-29.985"
     style="fill:#000000;fill-opacity:1;fill-rule:nonzero;stroke:none"
     id="path31221" />
  <path
     d="m 396.85,172.629 c 34.096,0 66.182,11.24 94.926,26.012 19.729,10.139 12.469,14.592 12.469,14.592 0,0 -6.145,1.285 -6.145,6.599 0,5.31 1.761,9.026 9.729,9.026 7.967,0 13.763,-8.674 13.763,-15.225 0,-4.245 0.733,-12.621 -14.845,-21.713 -29.134,-16.999 -69.931,-30.589 -109.897,-30.589 -39.967,0 -80.763,13.59 -109.897,30.589 -15.578,9.092 -14.843,17.468 -14.843,21.713 0,6.551 5.796,15.225 13.761,15.225 7.968,0 9.73,-3.716 9.73,-9.026 0,-5.314 -6.144,-6.599 -6.144,-6.599 0,0 -7.26,-4.453 12.469,-14.592 28.744,-14.772 60.829,-26.012 94.924,-26.012"
     style="fill:#000000;fill-opacity:1;fill-rule:nonzero;stroke:none"
     id="path31225" />
  <path
     d="m 402.787,354.769 c 5.48,0.781 10.615,2.593 15.201,5.293 l 59.307,-81.489 c 4.34,-6.061 6.849,-10.072 6.849,-17.436 0,-18.261 -14.805,-33.069 -33.057,-33.069 -5.216,0 -10.141,1.21 -14.535,3.361 0,0 -6.541,-26.784 -39.702,-26.784 -33.162,0 -39.696,26.784 -39.696,26.784 -4.399,-2.151 -9.322,-3.361 -14.539,-3.361 -18.254,0 -33.057,14.808 -33.057,33.069 0,7.364 2.507,11.375 6.848,17.436 l 59.304,81.489 c 4.589,-2.7 9.725,-4.516 15.205,-5.293 -0.703,-4.475 -4.827,-30.828 -4.827,-38.86 0,-8.127 4.816,-14.716 10.762,-14.716 5.948,0 10.761,6.589 10.761,14.716 0,8.039 -4.124,34.406 -4.824,38.86"
     style="fill:#000000;fill-opacity:1;fill-rule:nonzero;stroke:none"
     id="path31229" />
  <path
     d="m 163.608,321.109 c 17.078,-52.555 43.867,-82.276 64.526,-101.552 12.545,-11.715 25.94,-11.785 25.94,-11.785 0,0 -16.703,-22.956 -36.14,-49.741 -20.306,-27.98 -61.494,-23.583 -85.281,-7.178 -26.573,18.331 -59.6798,61.132 -83.0931,133.199 -23.4173,72.062 -21.7946,126.15 -11.0693,156.598 9.5986,27.25 40.3425,55.024 73.2064,44.32 31.48,-10.243 58.484,-18.998 58.484,-18.998 0,0 -10.8,-7.929 -14.065,-24.785 -5.378,-27.729 -9.59,-67.526 7.492,-120.078"
     style="fill:#000000;fill-opacity:1;fill-rule:nonzero;stroke:none"
     id="path31233" />
  <path
     d="m 183.564,327.589 c 10.54,-32.419 31.138,-59.463 54.073,-82.24 15.738,-15.631 17.729,-7.345 17.729,-7.345 0,0 -0.681,6.242 4.372,7.884 5.053,1.644 9.139,1.11 11.595,-6.467 2.464,-7.576 -4.002,-15.767 -10.227,-17.793 -4.037,-1.312 -11.773,-4.599 -25.237,7.404 -25.178,22.46 -50.701,57.057 -63.063,95.065 -12.344,38.014 -12.025,81.009 -4.862,113.974 3.837,17.62 12.03,19.511 16.068,20.826 6.233,2.019 16.274,-0.806 18.734,-8.383 2.459,-7.573 -0.525,-10.409 -5.584,-12.048 -5.046,-1.645 -8.172,3.809 -8.172,3.809 0,0 -6.481,5.53 -10.02,-16.37 -5.168,-31.906 -5.946,-65.891 4.594,-98.316"
     style="fill:#000000;fill-opacity:1;fill-rule:nonzero;stroke:none"
     id="path31237" />
  <path
     d="m 252.695,595.3 c -44.706,-32.485 -64.689,-67.144 -76.639,-92.742 -7.27,-15.555 -3.194,-28.323 -3.194,-28.323 0,0 -26.993,8.8 -58.469,19.004 -32.8879,10.671 -41.4398,51.2 -33.1865,78.881 9.2266,30.941 39.7015,75.652 101.0075,120.192 61.297,44.536 113.236,59.716 145.505,58.925 28.896,-0.713 64.795,-21.371 64.784,-55.942 -0.02,-33.091 0,-61.478 0,-61.478 0,0 -10.885,7.816 -27.921,5.707 -28.032,-3.436 -67.187,-11.74 -111.887,-44.224"
     style="fill:#000000;fill-opacity:1;fill-rule:nonzero;stroke:none"
     id="path31241" />
  <path
     d="m 265.03,578.328 c -27.583,-20.042 -46.929,-47.997 -61.512,-76.841 -10.004,-19.793 -1.513,-19.131 -1.513,-19.131 0,0 5.734,2.572 8.856,-1.721 3.128,-4.303 3.88,-8.352 -2.564,-13.027 -6.448,-4.685 -16.237,-1.069 -20.085,4.224 -2.491,3.436 -8.012,9.787 -0.758,26.295 13.584,30.875 38.599,65.855 70.933,89.335 32.335,23.503 73.32,36.475 106.887,39.859 17.945,1.804 22.268,-5.406 24.772,-8.844 3.848,-5.308 4.258,-15.729 -2.183,-20.41 -6.444,-4.691 -10.06,-2.712 -13.185,1.589 -3.124,4.293 1.097,8.941 1.097,8.941 0,0 3.255,7.87 -18.664,4.475 -31.934,-4.951 -64.505,-14.704 -92.081,-34.744"
     style="fill:#000000;fill-opacity:1;fill-rule:nonzero;stroke:none"
     id="path31245" />
  <path
     d="m 541.005,595.3 c -44.71,32.484 -83.854,40.788 -111.898,44.224 -17.035,2.109 -27.921,-5.707 -27.921,-5.707 0,0 0.02,28.387 0.01,61.478 -0.021,34.571 35.892,55.229 64.775,55.931 32.27,0.802 84.212,-14.378 145.51,-58.914 61.301,-44.54 91.785,-89.251 101.008,-120.178 8.249,-27.686 -0.301,-68.214 -33.183,-78.895 -31.473,-10.204 -58.473,-19.004 -58.473,-19.004 0,0 4.071,12.768 -3.195,28.333 -11.945,25.588 -31.938,60.247 -76.633,92.732"
     style="fill:#000000;fill-opacity:1;fill-rule:nonzero;stroke:none"
     id="path31249" />
  <path
     d="m 528.671,578.328 c -27.588,20.04 -60.148,29.793 -92.092,34.753 -21.919,3.386 -18.663,-4.473 -18.663,-4.473 0,0 4.222,-4.659 1.095,-8.952 -3.117,-4.301 -6.733,-6.28 -13.177,-1.589 -6.447,4.681 -6.031,15.102 -2.179,20.41 2.491,3.438 6.816,10.648 24.764,8.844 33.564,-3.373 74.557,-16.356 106.89,-39.847 32.334,-23.492 57.348,-58.472 70.927,-89.347 7.257,-16.508 1.745,-22.853 -0.76,-26.295 -3.846,-5.293 -13.64,-8.909 -20.073,-4.224 -6.452,4.68 -5.698,8.73 -2.574,13.027 3.127,4.304 8.855,1.721 8.855,1.721 0,0 8.492,-0.662 -1.512,19.131 -14.575,28.856 -33.924,56.799 -61.501,76.841"
     style="fill:#000000;fill-opacity:1;fill-rule:nonzero;stroke:none"
     id="path31253" />
  <path
     d="m 630.092,321.109 c 17.08,52.556 12.869,92.349 7.492,120.084 -3.266,16.85 -14.058,24.785 -14.058,24.785 0,0 26.998,8.749 58.479,18.992 32.863,10.704 63.605,-17.064 73.196,-44.32 10.734,-30.448 12.356,-84.531 -11.067,-156.593 -23.406,-72.067 -56.514,-114.873 -83.081,-133.202 -23.783,-16.406 -64.981,-20.798 -85.286,7.173 -19.443,26.788 -36.146,49.746 -36.146,49.746 0,0 13.4,0.071 25.946,11.788 20.657,19.271 47.446,49.002 64.525,101.547"
     style="fill:#000000;fill-opacity:1;fill-rule:nonzero;stroke:none"
     id="path31257" />
  <path
     d="m 610.133,327.591 c 10.544,32.423 9.753,66.411 4.597,98.319 -3.544,21.895 -10.018,16.371 -10.018,16.371 0,0 -3.124,-5.455 -8.185,-3.815 -5.048,1.644 -8.043,4.475 -5.574,12.048 2.46,7.577 12.504,10.408 18.729,8.383 4.043,-1.31 12.234,-3.2 16.064,-20.826 7.175,-32.962 7.492,-75.958 -4.853,-113.966 -12.36,-38.015 -37.889,-72.609 -63.06,-95.069 -13.464,-12.003 -21.198,-8.718 -25.238,-7.408 -6.226,2.029 -12.691,10.22 -10.226,17.793 2.459,7.58 6.542,8.111 11.595,6.469 5.053,-1.641 4.371,-7.882 4.371,-7.882 0,0 2.001,-8.287 17.729,7.346 22.933,22.778 43.533,49.816 54.069,82.237"
     style="fill:#000000;fill-opacity:1;fill-rule:nonzero;stroke:none"
     id="path31261" />
  <path
     d="m 396.85,308.645 c 0,0.037 -0.346,-0.1 -1.303,1.139 -0.885,1.178 -1.745,3.424 -1.74,6.082 -0.027,3.438 1.243,14.177 2.547,23.276 0.173,1.177 0.338,2.335 0.496,3.456 0.162,-1.121 0.325,-2.279 0.492,-3.456 1.297,-9.099 2.569,-19.838 2.54,-23.276 0.018,-2.658 -0.842,-4.904 -1.74,-6.082 -0.807,-1.062 -1.178,-1.139 -1.27,-1.139 z"
     style="fill:#000000;fill-opacity:1;fill-rule:nonzero;stroke:none"
     id="path31265" />
  <path
     d="m 359.446,377.629 c 2.432,-4.972 5.745,-9.294 9.734,-12.824 L 310.005,283.22 c -4.427,-6.002 -7.471,-9.628 -14.47,-11.907 -17.366,-5.64 -36.018,3.863 -41.669,21.229 -1.611,4.962 -1.977,10.018 -1.296,14.859 0,0 -27.491,-2.059 -37.737,29.481 -10.25,31.543 13.202,46.035 13.202,46.035 -3.393,3.512 -6.069,7.824 -7.686,12.782 -5.643,17.367 3.872,36.022 21.232,41.667 7.004,2.275 11.6,1.121 18.701,-1.131 l 95.829,-31.225 c -1.145,-5.191 -1.293,-10.639 -0.337,-16.097 -4.468,-0.704 -30.808,-4.927 -38.451,-7.408 -7.725,-2.512 -12.502,-9.134 -10.664,-14.787 1.832,-5.653 9.595,-8.204 17.318,-5.691 7.653,2.484 31.451,14.556 35.469,16.602"
     style="fill:#000000;fill-opacity:1;fill-rule:nonzero;stroke:none"
     id="path31269" />
  <path
     d="m 313.741,369.023 c 0.037,0.008 -0.196,0.295 0.685,1.59 0.844,1.208 2.713,2.716 5.248,3.533 3.26,1.089 13.87,3.199 22.922,4.767 1.17,0.208 2.322,0.408 3.434,0.602 -1.016,-0.505 -2.059,-1.02 -3.135,-1.538 -8.248,-4.039 -18.064,-8.568 -21.344,-9.602 -2.524,-0.841 -4.924,-0.716 -6.324,-0.233 -1.265,0.447 -1.449,0.773 -1.476,0.859 -0.01,0.014 -0.01,0.022 -0.01,0.022"
     style="fill:#000000;fill-opacity:1;fill-rule:nonzero;stroke:none"
     id="path31273" />
  <path
     d="m 367.803,425.913 c -3.983,-3.856 -7.069,-8.34 -9.2,-13.22 l -95.877,31.066 c -7.068,2.356 -11.464,4.124 -15.793,10.083 -10.728,14.765 -7.46,35.452 7.313,46.181 4.223,3.065 8.923,4.989 13.735,5.832 0,0 -10.458,25.5 16.377,44.999 26.832,19.494 47.863,1.658 47.863,1.658 2.286,4.324 5.555,8.211 9.783,11.268 14.771,10.738 35.454,7.462 46.175,-7.322 4.336,-5.952 4.659,-10.675 4.713,-18.124 l -0.08,-100.792 c -5.308,-0.513 -10.524,-2.056 -15.417,-4.657 -2.057,4.041 -14.215,27.781 -18.925,34.279 -4.786,6.574 -12.558,9.071 -17.363,5.584 -4.804,-3.497 -4.837,-11.664 -0.061,-18.237 4.726,-6.504 23.562,-25.409 26.757,-28.598"
     style="fill:#000000;fill-opacity:1;fill-rule:nonzero;stroke:none"
     id="path31277" />
  <path
     d="m 345.485,466.712 c 0.022,-0.026 0.222,0.286 1.723,-0.149 1.411,-0.435 3.42,-1.747 4.979,-3.905 2.054,-2.76 7.334,-12.196 11.621,-20.326 0.556,-1.048 1.096,-2.084 1.639,-3.084 -0.8,0.812 -1.612,1.652 -2.434,2.504 -6.393,6.599 -13.738,14.538 -15.729,17.344 -1.583,2.136 -2.209,4.459 -2.179,5.936 0.039,1.338 0.288,1.618 0.356,1.667 0.018,0.013 0.024,0.013 0.024,0.013"
     style="fill:#000000;fill-opacity:1;fill-rule:nonzero;stroke:none"
     id="path31281" />
  <path
     d="m 416.299,432.889 c -4.899,2.594 -10.112,4.145 -15.417,4.656 l -0.08,100.79 c 0.06,7.449 0.378,12.185 4.708,18.135 10.729,14.773 31.414,18.049 46.188,7.325 4.216,-3.071 7.489,-6.947 9.778,-11.271 0,0 21.029,17.836 47.859,-1.669 26.838,-19.499 16.381,-44.999 16.381,-44.999 4.808,-0.842 9.507,-2.757 13.728,-5.832 14.772,-10.729 18.048,-31.413 7.313,-46.178 -4.324,-5.959 -8.724,-7.727 -15.793,-10.084 l -95.878,-31.064 c -2.128,4.879 -5.208,9.368 -9.194,13.22 3.206,3.2 22.027,22.099 26.751,28.595 4.777,6.574 4.756,14.738 -0.049,18.237 -4.815,3.486 -12.583,0.994 -17.36,-5.579 -4.726,-6.504 -16.886,-30.262 -18.935,-34.282"
     style="fill:#000000;fill-opacity:1;fill-rule:nonzero;stroke:none"
     id="path31285" />
  <path
     d="m 448.206,466.715 c -0.023,-0.028 0.338,-0.124 0.389,-1.685 0.027,-1.475 -0.6,-3.795 -2.176,-5.939 -1.993,-2.804 -9.337,-10.744 -15.744,-17.336 -0.823,-0.849 -1.631,-1.689 -2.421,-2.506 0.525,1.005 1.069,2.041 1.628,3.089 4.302,8.119 9.577,17.557 11.63,20.314 1.548,2.167 3.562,3.479 4.979,3.908 1.283,0.376 1.628,0.224 1.697,0.168 0.018,-0.005 0.018,-0.013 0.018,-0.013"
     style="fill:#000000;fill-opacity:1;fill-rule:nonzero;stroke:none"
     id="path31289" />
  <path
     d="m 437.919,388.919 c 0.951,5.459 0.816,10.903 -0.329,16.098 l 95.825,31.225 c 7.102,2.245 11.693,3.401 18.702,1.129 17.363,-5.642 26.87,-24.301 21.236,-41.668 -1.625,-4.957 -4.296,-9.274 -7.688,-12.784 0,0 23.446,-14.486 13.192,-46.032 -10.244,-31.541 -37.734,-29.479 -37.734,-29.479 0.688,-4.842 0.32,-9.898 -1.295,-14.859 -5.644,-17.367 -24.297,-26.875 -41.669,-21.229 -7,2.278 -10.04,5.905 -14.471,11.908 l -59.169,81.585 c 3.987,3.526 7.304,7.845 9.733,12.828 4.032,-2.064 27.826,-14.124 35.471,-16.61 7.718,-2.509 15.484,0.039 17.312,5.688 1.844,5.655 -2.936,12.278 -10.66,14.79 -7.648,2.485 -33.997,6.709 -38.456,7.41"
     style="fill:#000000;fill-opacity:1;fill-rule:nonzero;stroke:none"
     id="path31293" />
  <path
     d="m 479.949,369.029 c -0.032,0.008 -0.005,-0.366 -1.48,-0.892 -1.396,-0.479 -3.794,-0.6 -6.325,0.229 -3.277,1.036 -13.097,5.563 -21.349,9.616 -1.064,0.519 -2.12,1.036 -3.124,1.532 1.111,-0.183 2.264,-0.385 3.431,-0.595 9.049,-1.582 19.658,-3.688 22.917,-4.786 2.541,-0.798 4.41,-2.31 5.253,-3.524 0.759,-1.103 0.713,-1.475 0.683,-1.56 0,-0.018 -0.006,-0.02 -0.006,-0.02"
     style="fill:#000000;fill-opacity:1;fill-rule:nonzero;stroke:none"
     id="path31297" />
</svg>
