<?xml version="1.0" encoding="UTF-8" standalone="no"?>
<!-- Created with Inkscape (http://www.inkscape.org/) -->

<svg
   version="1.1"
   id="svg38597"
   width="793.70135"
   height="793.70135"
   viewBox="0 0 793.70135 793.70135"
   sodipodi:docname="Gokani Maruni Mitsuhiki.svg"
   inkscape:version="1.2 (dc2aeda, 2022-05-15)"
   xmlns:inkscape="http://www.inkscape.org/namespaces/inkscape"
   xmlns:sodipodi="http://sodipodi.sourceforge.net/DTD/sodipodi-0.dtd"
   xmlns="http://www.w3.org/2000/svg"
   xmlns:svg="http://www.w3.org/2000/svg">
  <defs
     id="defs38601">
    <clipPath
       clipPathUnits="userSpaceOnUse"
       id="clipPath38904">
      <path
         d="m -388.0371,379.2347 h 595.276 v -841.89 h -595.276 z"
         id="path38906"
         style="stroke-width:0.999998" />
    </clipPath>
    <clipPath
       clipPathUnits="userSpaceOnUse"
       id="clipPath38910">
      <path
         d="m -397.9258,439.6254 h 595.276 v -841.89 h -595.276 z"
         id="path38912"
         style="stroke-width:0.999998" />
    </clipPath>
    <clipPath
       clipPathUnits="userSpaceOnUse"
       id="clipPath38916">
      <path
         d="m -449.0508,374.9232 h 595.276 v -841.89 h -595.276 z"
         id="path38918"
         style="stroke-width:0.999998" />
    </clipPath>
    <clipPath
       clipPathUnits="userSpaceOnUse"
       id="clipPath38922">
      <path
         d="m -463.2656,370.305 h 595.276 v -841.89 h -595.276 z"
         id="path38924"
         style="stroke-width:0.999998" />
    </clipPath>
    <clipPath
       clipPathUnits="userSpaceOnUse"
       id="clipPath38928">
      <path
         d="m -391.0273,553.515 h 595.276 v -841.89 h -595.276 z"
         id="path38930"
         style="stroke-width:0.999998" />
    </clipPath>
    <clipPath
       clipPathUnits="userSpaceOnUse"
       id="clipPath38934">
      <path
         d="m -369.6445,498.5345 h 595.276 v -841.89 h -595.276 z"
         id="path38936"
         style="stroke-width:0.999998" />
    </clipPath>
    <clipPath
       clipPathUnits="userSpaceOnUse"
       id="clipPath38940">
      <path
         d="m -296.5923,532.9261 h 595.276 v -841.89 h -595.276 z"
         id="path38942"
         style="stroke-width:0.999998" />
    </clipPath>
    <clipPath
       clipPathUnits="userSpaceOnUse"
       id="clipPath38946">
      <path
         d="m -399.8145,565.6058 h 595.276 v -841.89 h -595.276 z"
         id="path38948"
         style="stroke-width:0.999998" />
    </clipPath>
    <clipPath
       clipPathUnits="userSpaceOnUse"
       id="clipPath38952">
      <path
         d="m -145.2246,374.9232 h 595.276 v -841.89 h -595.276 z"
         id="path38954"
         style="stroke-width:0.999998" />
    </clipPath>
    <clipPath
       clipPathUnits="userSpaceOnUse"
       id="clipPath38958">
      <path
         d="m -194.4683,565.6058 h 595.276 v -841.89 h -595.276 z"
         id="path38960"
         style="stroke-width:0.999998" />
    </clipPath>
    <clipPath
       clipPathUnits="userSpaceOnUse"
       id="clipPath38964">
      <path
         d="m -203.2476,553.515 h 595.276 v -841.89 h -595.276 z"
         id="path38966"
         style="stroke-width:0.999998" />
    </clipPath>
    <clipPath
       clipPathUnits="userSpaceOnUse"
       id="clipPath38970">
      <path
         d="m -297.1333,249.6087 h 595.276 v -841.89 h -595.276 z"
         id="path38972"
         style="stroke-width:0.999998" />
    </clipPath>
    <clipPath
       clipPathUnits="userSpaceOnUse"
       id="clipPath38976">
      <path
         d="m -131.0093,370.305 h 595.276 v -841.89 h -595.276 z"
         id="path38978"
         style="stroke-width:0.999998" />
    </clipPath>
    <clipPath
       clipPathUnits="userSpaceOnUse"
       id="clipPath38982">
      <path
         d="m -297.1333,264.5536 h 595.276 v -841.89 h -595.276 z"
         id="path38984"
         style="stroke-width:0.999998" />
    </clipPath>
  </defs>
  <sodipodi:namedview
     id="namedview38599"
     pagecolor="#ffffff"
     bordercolor="#000000"
     borderopacity="0.25"
     inkscape:showpageshadow="2"
     inkscape:pageopacity="0.0"
     inkscape:pagecheckerboard="0"
     inkscape:deskcolor="#d1d1d1"
     showgrid="false"
     inkscape:zoom="0.21024124"
     inkscape:cx="-1234.2964"
     inkscape:cy="561.26001"
     inkscape:window-width="1419"
     inkscape:window-height="456"
     inkscape:window-x="0"
     inkscape:window-y="25"
     inkscape:window-maximized="0"
     inkscape:current-layer="svg38597">
    <inkscape:page
       x="0"
       y="0"
       id="page38603"
       width="793.70135"
       height="793.70135" />
  </sodipodi:namedview>
  <path
     d="m 396.176,170.814 c 52.479,0 87.189,15.479 110.653,28.472 14.271,7.895 18.26,19.98 18.26,19.98 0,0 15.842,-21.823 34.326,-47.239 19.305,-26.554 3.25,-62.462 -18.56,-79.133 -24.342,-18.622 -72.714,-35.962 -144.679,-35.962 -71.954,0 -120.326,17.34 -144.679,35.962 -21.796,16.671 -37.854,52.579 -18.547,79.133 18.483,25.416 34.315,47.239 34.315,47.239 0,0 4.009,-12.085 18.26,-19.98 23.474,-12.993 58.174,-28.472 110.651,-28.472"
     style="fill:#231f20;fill-opacity:1;fill-rule:nonzero;stroke:none"
     id="path38617" />
  <path
     d="m 396.176,190.741 c 32.38,0 62.848,10.673 90.151,24.704 18.729,9.621 11.853,13.854 11.853,13.854 0,0 -5.845,1.219 -5.845,6.271 0,5.04 1.676,8.573 9.236,8.573 7.578,0 13.073,-8.243 13.073,-14.464 0,-4.03 0.696,-11.989 -14.099,-20.621 -27.666,-16.143 -66.409,-29.051 -104.369,-29.051 -37.949,0 -76.69,12.908 -104.357,29.051 -14.793,8.632 -14.089,16.591 -14.089,20.621 0,6.221 5.495,14.464 13.064,14.464 7.569,0 9.237,-3.533 9.237,-8.573 0,-5.052 -5.837,-6.271 -5.837,-6.271 0,0 -6.896,-4.233 11.844,-13.854 27.292,-14.031 57.769,-24.704 90.138,-24.704"
     style="fill:#231f20;fill-opacity:1;fill-rule:nonzero;stroke:none"
     id="path38621" />
  <path
     d="m 174.678,331.742 c 16.218,-49.907 41.66,-78.134 61.276,-96.435 11.919,-11.134 24.641,-11.198 24.641,-11.198 0,0 -15.865,-21.798 -34.316,-47.234 -19.296,-26.57 -58.41,-22.396 -80.998,-6.816 -25.229,17.41 -56.6679,58.053 -78.9038,126.491 -22.2346,68.439 -20.696,119.805 -10.508,148.721 9.108,25.881 38.3026,52.253 69.5168,42.088 29.89,-9.723 55.546,-18.046 55.546,-18.046 0,0 -10.262,-7.526 -13.363,-23.534 -5.109,-26.331 -9.108,-64.13 7.109,-114.037"
     style="fill:#231f20;fill-opacity:1;fill-rule:nonzero;stroke:none"
     id="path38625" />
  <path
     d="m 193.633,337.899 c 10.005,-30.787 29.58,-56.471 51.356,-78.096 14.933,-14.848 16.825,-6.981 16.825,-6.981 0,0 -0.641,5.928 4.169,7.489 4.8,1.56 8.659,1.052 11,-6.141 2.342,-7.195 -3.794,-14.978 -9.717,-16.902 -3.827,-1.245 -11.172,-4.368 -23.956,7.034 -23.915,21.326 -48.149,54.182 -59.886,90.284 -11.727,36.094 -11.428,76.925 -4.619,108.231 3.635,16.73 11.428,18.532 15.256,19.776 5.921,1.926 15.457,-0.758 17.788,-7.957 2.34,-7.189 -0.492,-9.883 -5.303,-11.439 -4.779,-1.561 -7.749,3.608 -7.749,3.608 0,0 -6.159,5.259 -9.525,-15.538 -4.907,-30.302 -5.644,-62.575 4.361,-93.368"
     style="fill:#231f20;fill-opacity:1;fill-rule:nonzero;stroke:none"
     id="path38629" />
  <path
     d="m 259.29,592.142 c -42.461,-30.841 -61.436,-63.766 -72.788,-88.085 -6.896,-14.764 -3.037,-26.892 -3.037,-26.892 0,0 -25.623,8.339 -55.513,18.06 -31.2469,10.124 -39.3602,48.609 -31.5242,74.907 8.7652,29.386 37.6932,71.847 95.9212,114.138 58.208,42.3 107.542,56.7 138.181,55.961 27.441,-0.682 61.53,-20.288 61.52,-53.129 -0.01,-31.419 0,-58.389 0,-58.389 0,0 -10.327,7.429 -26.511,5.43 -26.617,-3.27 -63.809,-11.17 -106.249,-42.001"
     style="fill:#231f20;fill-opacity:1;fill-rule:nonzero;stroke:none"
     id="path38633" />
  <path
     d="m 270.997,576.021 c -26.191,-19.039 -44.567,-45.572 -58.4,-72.98 -9.515,-18.793 -1.443,-18.168 -1.443,-18.168 0,0 5.441,2.448 8.401,-1.636 2.972,-4.089 3.69,-7.932 -2.436,-12.362 -6.116,-4.454 -15.416,-1.027 -19.061,4.002 -2.384,3.267 -7.621,9.295 -0.726,24.977 12.902,29.323 36.655,62.538 67.367,84.848 30.704,22.31 69.625,34.635 101.503,37.843 17.041,1.711 21.146,-5.131 23.53,-8.392 3.644,-5.047 4.03,-14.944 -2.085,-19.391 -6.115,-4.448 -9.547,-2.566 -12.517,1.507 -2.962,4.083 1.036,8.508 1.036,8.508 0,0 3.1,7.463 -17.714,4.245 -30.338,-4.704 -61.263,-13.973 -87.455,-33.001"
     style="fill:#231f20;fill-opacity:1;fill-rule:nonzero;stroke:none"
     id="path38637" />
  <path
     d="m 533.085,592.142 c -42.472,30.842 -79.639,38.731 -106.259,42.001 -16.196,1.999 -26.522,-5.418 -26.522,-5.418 0,0 0.022,26.958 0.011,58.377 -0.032,32.841 34.08,52.447 61.511,53.12 30.647,0.748 79.973,-13.652 138.178,-55.952 58.22,-42.291 87.169,-84.752 95.925,-114.128 7.847,-26.298 -0.279,-64.793 -31.505,-74.917 -29.902,-9.721 -55.524,-18.06 -55.524,-18.06 0,0 3.86,12.128 -3.036,26.901 -11.355,24.31 -30.328,57.235 -72.779,88.076"
     style="fill:#231f20;fill-opacity:1;fill-rule:nonzero;stroke:none"
     id="path38641" />
  <path
     d="m 521.368,576.021 c -26.2,19.028 -57.117,28.297 -87.456,33.001 -20.812,3.218 -17.734,-4.245 -17.734,-4.245 0,0 4.018,-4.425 1.048,-8.508 -2.962,-4.073 -6.394,-5.955 -12.508,-1.507 -6.126,4.447 -5.74,14.344 -2.074,19.391 2.363,3.261 6.479,10.103 23.519,8.392 31.877,-3.196 70.798,-15.533 101.512,-37.843 30.704,-22.31 54.456,-55.525 67.36,-84.848 6.882,-15.682 1.656,-21.705 -0.73,-24.977 -3.653,-5.029 -12.956,-8.456 -19.06,-4.002 -6.125,4.436 -5.408,8.285 -2.448,12.362 2.962,4.084 8.415,1.636 8.415,1.636 0,0 8.06,-0.625 -1.443,18.168 -13.833,27.419 -32.21,53.941 -58.401,72.98"
     style="fill:#231f20;fill-opacity:1;fill-rule:nonzero;stroke:none"
     id="path38645" />
  <path
     d="m 617.686,331.742 c 16.216,49.913 12.219,87.706 7.11,114.042 -3.102,16.003 -13.352,23.54 -13.352,23.54 0,0 25.646,8.312 55.534,18.035 31.206,10.165 60.411,-16.207 69.517,-42.088 10.188,-28.916 11.727,-80.278 -10.517,-148.711 -22.226,-68.448 -53.664,-109.091 -78.882,-126.501 -22.6,-15.58 -61.715,-19.749 -81.011,6.816 -18.461,25.436 -34.316,47.239 -34.316,47.239 0,0 12.723,0.064 24.642,11.198 19.617,18.296 45.059,46.534 61.275,96.43"
     style="fill:#231f20;fill-opacity:1;fill-rule:nonzero;stroke:none"
     id="path38649" />
  <path
     d="m 598.733,337.899 c 10.005,30.793 9.257,63.072 4.361,93.373 -3.366,20.792 -9.514,15.544 -9.514,15.544 0,0 -2.972,-5.18 -7.771,-3.619 -4.8,1.556 -7.633,4.25 -5.292,11.439 2.342,7.199 11.878,9.888 17.79,7.957 3.835,-1.238 11.619,-3.041 15.254,-19.776 6.808,-31.3 7.107,-72.132 -4.62,-108.226 -11.726,-36.107 -35.97,-68.957 -59.874,-90.289 -12.798,-11.396 -20.14,-8.274 -23.976,-7.034 -5.912,1.924 -12.051,9.707 -9.71,16.902 2.331,7.193 6.212,7.701 11.011,6.145 4.803,-1.56 4.159,-7.488 4.159,-7.488 0,0 1.893,-7.872 16.838,6.981 21.776,21.626 41.339,47.304 51.344,78.091"
     style="fill:#231f20;fill-opacity:1;fill-rule:nonzero;stroke:none"
     id="path38653" />
  <path
     d="m 395.455,548.569 c -78.909,0 -142.866,-63.958 -142.866,-142.861 0,-78.91 63.957,-142.874 142.866,-142.88 78.913,0.006 142.874,63.97 142.88,142.88 -0.006,78.903 -63.967,142.861 -142.88,142.861 m 0.727,-320.682 c -97.664,0.011 -176.813,79.163 -176.824,176.83 0.011,97.671 79.16,176.816 176.824,176.831 97.665,-0.015 176.819,-79.16 176.829,-176.831 -0.01,-97.667 -79.164,-176.819 -176.829,-176.83"
     style="fill:#231f20;fill-opacity:1;fill-rule:nonzero;stroke:none"
     id="path38657" />
  <path
     d="M 492.857,502.713 H 298.069 c -10.359,-10.746 -18.996,-23.21 -25.491,-36.925 l 245.753,-0.005 c -6.495,13.714 -15.119,26.18 -25.474,36.93"
     style="fill:#231f20;fill-opacity:1;fill-rule:nonzero;stroke:none"
     id="path38661" />
  <path
     d="m 530.567,424.168 -270.213,0.005 c -0.785,-6.038 -1.201,-12.205 -1.201,-18.465 0,-6.257 0.416,-12.421 1.201,-18.465 h 270.213 c 0.792,6.044 1.202,12.208 1.202,18.465 0,6.255 -0.41,12.42 -1.202,18.46"
     style="fill:#231f20;fill-opacity:1;fill-rule:nonzero;stroke:none"
     id="path38665" />
  <path
     d="m 517.381,343.648 -243.835,-0.005 c 6.788,-13.776 15.763,-26.245 26.468,-36.925 l 190.854,-0.006 c 10.719,10.69 19.719,23.148 26.513,36.936"
     style="fill:#231f20;fill-opacity:1;fill-rule:nonzero;stroke:none"
     id="path38669" />
</svg>
