<?xml version="1.0" encoding="UTF-8" standalone="no"?>
<!-- Created with Inkscape (http://www.inkscape.org/) -->

<svg
   version="1.1"
   id="svg32430"
   width="793.70135"
   height="793.70135"
   viewBox="0 0 793.70135 793.70135"
   sodipodi:docname="Gokani Dakimyouga.svg"
   inkscape:version="1.2 (dc2aeda, 2022-05-15)"
   xmlns:inkscape="http://www.inkscape.org/namespaces/inkscape"
   xmlns:sodipodi="http://sodipodi.sourceforge.net/DTD/sodipodi-0.dtd"
   xmlns="http://www.w3.org/2000/svg"
   xmlns:svg="http://www.w3.org/2000/svg">
  <defs
     id="defs32434">
    <clipPath
       clipPathUnits="userSpaceOnUse"
       id="clipPath32910">
      <path
         d="m -284.7832,366.2103 h 595.276 v -841.89 h -595.276 z"
         id="path32912"
         style="stroke-width:0.999998" />
    </clipPath>
    <clipPath
       clipPathUnits="userSpaceOnUse"
       id="clipPath32916">
      <path
         d="m -245.4526,511.3246 h 595.276 v -841.89 h -595.276 z"
         id="path32918"
         style="stroke-width:0.999998" />
    </clipPath>
    <clipPath
       clipPathUnits="userSpaceOnUse"
       id="clipPath32922">
      <path
         d="m -395.0977,558.933 h 595.276 v -841.89 h -595.276 z"
         id="path32924"
         style="stroke-width:0.999998" />
    </clipPath>
    <clipPath
       clipPathUnits="userSpaceOnUse"
       id="clipPath32928">
      <path
         d="m -207.562,547.4037 h 595.276 v -841.89 h -595.276 z"
         id="path32930"
         style="stroke-width:0.999998" />
    </clipPath>
    <clipPath
       clipPathUnits="userSpaceOnUse"
       id="clipPath32934">
      <path
         d="m -251.374,309.2049 h 595.276 v -841.89 h -595.276 z"
         id="path32936"
         style="stroke-width:0.999998" />
    </clipPath>
    <clipPath
       clipPathUnits="userSpaceOnUse"
       id="clipPath32940">
      <path
         d="m -248.519,309.5399 h 595.276 v -841.89 h -595.276 z"
         id="path32942"
         style="stroke-width:0.999998" />
    </clipPath>
    <clipPath
       clipPathUnits="userSpaceOnUse"
       id="clipPath32946">
      <path
         d="m -236.4009,389.0921 h 595.276 v -841.89 h -595.276 z"
         id="path32948"
         style="stroke-width:0.999998" />
    </clipPath>
    <clipPath
       clipPathUnits="userSpaceOnUse"
       id="clipPath32952">
      <path
         d="m -231.3218,432.0765 h 595.276 v -841.89 h -595.276 z"
         id="path32954"
         style="stroke-width:0.999998" />
    </clipPath>
    <clipPath
       clipPathUnits="userSpaceOnUse"
       id="clipPath32959">
      <path
         d="m -455.6338,372.6078 h 595.276 v -841.89 h -595.276 z"
         id="path32961"
         style="stroke-width:0.999998" />
    </clipPath>
    <clipPath
       clipPathUnits="userSpaceOnUse"
       id="clipPath32965">
      <path
         d="m -442.0723,377.016 h 595.276 v -841.89 h -595.276 z"
         id="path32967"
         style="stroke-width:0.999998" />
    </clipPath>
    <clipPath
       clipPathUnits="userSpaceOnUse"
       id="clipPath32971">
      <path
         d="m -199.187,558.933 h 595.276 v -841.89 h -595.276 z"
         id="path32973"
         style="stroke-width:0.999998" />
    </clipPath>
    <clipPath
       clipPathUnits="userSpaceOnUse"
       id="clipPath32977">
      <path
         d="m -349.3652,477.4642 h 595.276 v -841.89 h -595.276 z"
         id="path32979"
         style="stroke-width:0.999998" />
    </clipPath>
    <clipPath
       clipPathUnits="userSpaceOnUse"
       id="clipPath32983">
      <path
         d="m -352.7803,409.9095 h 595.276 v -841.89 h -595.276 z"
         id="path32985"
         style="stroke-width:0.999998" />
    </clipPath>
    <clipPath
       clipPathUnits="userSpaceOnUse"
       id="clipPath32989">
      <path
         d="m -347.4893,368.0677 h 595.276 v -841.89 h -595.276 z"
         id="path32991"
         style="stroke-width:0.999998" />
    </clipPath>
    <clipPath
       clipPathUnits="userSpaceOnUse"
       id="clipPath32995">
      <path
         d="m -357.0938,528.5296 h 595.276 v -841.89 h -595.276 z"
         id="path32997"
         style="stroke-width:0.999998" />
    </clipPath>
    <clipPath
       clipPathUnits="userSpaceOnUse"
       id="clipPath33001">
      <path
         d="m -342.9033,309.2049 h 595.276 v -841.89 h -595.276 z"
         id="path33003"
         style="stroke-width:0.999998" />
    </clipPath>
    <clipPath
       clipPathUnits="userSpaceOnUse"
       id="clipPath33007">
      <path
         d="m -345.7568,309.5399 h 595.276 v -841.89 h -595.276 z"
         id="path33009"
         style="stroke-width:0.999998" />
    </clipPath>
    <clipPath
       clipPathUnits="userSpaceOnUse"
       id="clipPath33013">
      <path
         d="m -402.7461,376.8968 h 595.276 v -841.89 h -595.276 z"
         id="path33015"
         style="stroke-width:0.999998" />
    </clipPath>
    <clipPath
       clipPathUnits="userSpaceOnUse"
       id="clipPath33019">
      <path
         d="m -152.2041,377.016 h 595.276 v -841.89 h -595.276 z"
         id="path33021"
         style="stroke-width:0.999998" />
    </clipPath>
    <clipPath
       clipPathUnits="userSpaceOnUse"
       id="clipPath33025">
      <path
         d="m -138.6426,372.6078 h 595.276 v -841.89 h -595.276 z"
         id="path33027"
         style="stroke-width:0.999998" />
    </clipPath>
    <clipPath
       clipPathUnits="userSpaceOnUse"
       id="clipPath33031">
      <path
         d="m -297.1348,271.7171 h 595.276 v -841.89 h -595.276 z"
         id="path33033"
         style="stroke-width:0.999998" />
    </clipPath>
    <clipPath
       clipPathUnits="userSpaceOnUse"
       id="clipPath33037">
      <path
         d="m -415.2852,428.4886 h 595.276 v -841.89 h -595.276 z"
         id="path33039"
         style="stroke-width:0.999998" />
    </clipPath>
    <clipPath
       clipPathUnits="userSpaceOnUse"
       id="clipPath33043">
      <path
         d="m -284.1582,409.2699 h 595.276 v -841.89 h -595.276 z"
         id="path33045"
         style="stroke-width:0.999998" />
    </clipPath>
    <clipPath
       clipPathUnits="userSpaceOnUse"
       id="clipPath33049">
      <path
         d="m -339.9922,351.62 h 595.276 v -841.89 h -595.276 z"
         id="path33051"
         style="stroke-width:0.999998" />
    </clipPath>
    <clipPath
       clipPathUnits="userSpaceOnUse"
       id="clipPath33055">
      <path
         d="m -244.9116,477.4642 h 595.276 v -841.89 h -595.276 z"
         id="path33057"
         style="stroke-width:0.999998" />
    </clipPath>
    <clipPath
       clipPathUnits="userSpaceOnUse"
       id="clipPath33061">
      <path
         d="m -386.7148,547.4037 h 595.276 v -841.89 h -595.276 z"
         id="path33063"
         style="stroke-width:0.999998" />
    </clipPath>
    <clipPath
       clipPathUnits="userSpaceOnUse"
       id="clipPath33067">
      <path
         d="m -297.1348,257.4579 h 595.276 v -841.89 h -595.276 z"
         id="path33069"
         style="stroke-width:0.999998" />
    </clipPath>
  </defs>
  <sodipodi:namedview
     id="namedview32432"
     pagecolor="#ffffff"
     bordercolor="#000000"
     borderopacity="0.25"
     inkscape:showpageshadow="2"
     inkscape:pageopacity="0.0"
     inkscape:pagecheckerboard="0"
     inkscape:deskcolor="#d1d1d1"
     showgrid="false"
     inkscape:zoom="0.21024124"
     inkscape:cx="-1234.2964"
     inkscape:cy="561.26001"
     inkscape:window-width="1419"
     inkscape:window-height="456"
     inkscape:window-x="0"
     inkscape:window-y="25"
     inkscape:window-maximized="0"
     inkscape:current-layer="svg32430">
    <inkscape:page
       x="0"
       y="0"
       id="page32436"
       width="793.70135"
       height="793.70135" />
  </sodipodi:namedview>
  <path
     d="m 343.504,418.363 v -0.014 l 0.006,0.014 z m 49.708,-40.194 c -0.036,-0.038 -0.078,-0.065 -0.117,-0.086 0.044,0.024 0.081,0.053 0.117,0.086 m -16.253,7.946 c -0.059,-0.058 -0.123,-0.09 -0.171,-0.11 0.064,0.026 0.123,0.063 0.171,0.11 m 57.053,0.968 h -0.011 z m 15.843,12.926 c 0.005,-0.002 -0.006,-0.009 -0.016,-0.03 z m -107.168,19.003 c -0.064,-0.053 -0.129,-0.133 -0.171,-0.251 l -0.006,0.006 c 0.032,0.008 -0.022,0.132 0.177,0.245 m 0.439,0.097 c 0.058,-0.081 0.041,0.034 0.373,-0.276 0.048,-0.064 0.064,-0.156 0.059,-0.252 h -0.546 l -0.058,0.528 0.058,-0.502 z"
     style="fill:#231f20;fill-opacity:1;fill-rule:nonzero;stroke:none"
     id="path32450" />
  <path
     d="m 396.179,181.279 c 50.067,0 83.185,14.768 105.57,27.167 13.614,7.531 17.419,19.06 17.419,19.06 0,0 15.111,-20.821 32.749,-45.069 18.419,-25.334 3.1,-59.592 -17.704,-75.496 C 510.984,89.173 464.835,72.63 396.179,72.63 c -68.648,0 -114.796,16.543 -138.037,34.311 -20.792,15.904 -36.111,50.162 -17.692,75.496 17.639,24.248 32.739,45.069 32.739,45.069 0,0 3.822,-11.529 17.42,-19.06 22.396,-12.399 55.502,-27.167 105.57,-27.167"
     style="fill:#231f20;fill-opacity:1;fill-rule:nonzero;stroke:none"
     id="path32454" />
  <path
     d="m 396.179,200.291 c 30.889,0 59.961,10.183 86.006,23.57 17.868,9.177 11.31,13.217 11.31,13.217 0,0 -5.579,1.162 -5.579,5.981 0,4.808 1.603,8.177 8.813,8.177 7.232,0 12.471,-7.861 12.471,-13.797 0,-3.845 0.663,-11.438 -13.448,-19.673 -26.395,-15.401 -63.361,-27.716 -99.573,-27.716 -36.201,0 -73.169,12.315 -99.562,27.716 -14.111,8.235 -13.443,15.828 -13.443,19.673 0,5.936 5.243,13.797 12.464,13.797 7.221,0 8.815,-3.369 8.815,-8.177 0,-4.819 -5.571,-5.981 -5.571,-5.981 0,0 -6.58,-4.04 11.299,-13.217 26.042,-13.387 55.119,-23.57 85.998,-23.57"
     style="fill:#231f20;fill-opacity:1;fill-rule:nonzero;stroke:none"
     id="path32458" />
  <path
     d="m 184.857,334.812 c 15.473,-47.613 39.746,-74.541 58.458,-92.004 11.375,-10.62 23.508,-10.682 23.508,-10.682 0,0 -15.133,-20.795 -32.733,-45.064 -18.408,-25.348 -55.728,-21.367 -77.278,-6.501 -24.075,16.609 -54.066,55.385 -75.2802,120.677 -21.2146,65.294 -19.744,114.301 -10.028,141.889 8.692,24.692 36.5452,49.85 66.3262,40.153 28.518,-9.276 52.998,-17.217 52.998,-17.217 0,0 -9.792,-7.178 -12.754,-22.451 -4.874,-25.123 -8.69,-61.187 6.783,-108.8"
     style="fill:#231f20;fill-opacity:1;fill-rule:nonzero;stroke:none"
     id="path32462" />
  <path
     d="m 202.938,340.69 c 9.547,-29.374 28.223,-53.879 48.993,-74.511 14.25,-14.167 16.058,-6.659 16.058,-6.659 0,0 -0.61,5.655 3.976,7.143 4.581,1.492 8.262,1.005 10.497,-5.859 2.235,-6.862 -3.624,-14.289 -9.273,-16.122 -3.651,-1.19 -10.659,-4.167 -22.856,6.71 -22.818,20.347 -45.935,51.692 -57.133,86.132 -11.192,34.439 -10.904,73.393 -4.404,103.261 3.464,15.962 10.904,17.679 14.549,18.87 5.654,1.836 14.752,-0.724 16.976,-7.596 2.233,-6.858 -0.471,-9.43 -5.063,-10.912 -4.559,-1.488 -7.392,3.442 -7.392,3.442 0,0 -5.879,5.018 -9.086,-14.824 -4.682,-28.91 -5.388,-59.7 4.158,-89.075"
     style="fill:#231f20;fill-opacity:1;fill-rule:nonzero;stroke:none"
     id="path32466" />
  <path
     d="m 265.582,583.245 c -40.515,-29.419 -58.613,-60.837 -69.442,-84.035 -6.586,-14.085 -2.898,-25.657 -2.898,-25.657 0,0 -24.448,7.956 -52.969,17.232 -29.804,9.659 -37.549,46.375 -30.071,71.464 8.359,28.04 35.962,68.545 91.512,108.889 55.536,40.365 102.599,54.103 131.836,53.397 26.181,-0.652 58.7,-19.36 58.689,-50.693 -0.011,-29.973 0,-55.705 0,-55.705 0,0 -9.845,7.087 -25.292,5.185 -25.395,-3.121 -60.876,-10.658 -101.365,-40.077"
     style="fill:#231f20;fill-opacity:1;fill-rule:nonzero;stroke:none"
     id="path32470" />
  <path
     d="m 276.749,567.873 c -24.988,-18.173 -42.52,-43.476 -55.718,-69.633 -9.076,-17.929 -1.373,-17.332 -1.373,-17.332 0,0 5.189,2.336 8.017,-1.56 2.834,-3.901 3.518,-7.568 -2.33,-11.796 -5.831,-4.247 -14.704,-0.979 -18.184,3.819 -2.276,3.116 -7.269,8.869 -0.695,23.83 12.315,27.977 34.977,59.661 64.275,80.945 29.296,21.284 66.422,33.043 96.837,36.112 16.258,1.626 20.176,-4.897 22.448,-8.008 3.48,-4.82 3.849,-14.26 -1.988,-18.504 -5.832,-4.244 -9.108,-2.448 -11.942,1.443 -2.821,3.892 0.99,8.115 0.99,8.115 0,0 2.956,7.118 -16.895,4.05 -28.95,-4.489 -58.454,-13.33 -83.442,-31.481"
     style="fill:#231f20;fill-opacity:1;fill-rule:nonzero;stroke:none"
     id="path32474" />
  <path
     d="m 526.796,583.245 c -40.516,29.429 -75.98,36.956 -101.374,40.077 -15.452,1.902 -25.304,-5.174 -25.304,-5.174 0,0 0.022,25.721 0.01,55.694 -0.03,31.333 32.51,50.041 58.679,50.683 29.248,0.716 76.305,-13.022 131.836,-53.387 55.539,-40.344 83.163,-80.849 91.513,-108.878 7.488,-25.09 -0.27,-61.816 -30.056,-71.475 -28.527,-9.276 -52.975,-17.232 -52.975,-17.232 0,0 3.688,11.572 -2.897,25.667 -10.829,23.188 -28.933,54.606 -69.432,84.025"
     style="fill:#231f20;fill-opacity:1;fill-rule:nonzero;stroke:none"
     id="path32478" />
  <path
     d="m 515.619,567.873 c -24.999,18.151 -54.492,26.992 -83.441,31.481 -19.852,3.068 -16.918,-4.05 -16.918,-4.05 0,0 3.832,-4.223 0.999,-8.115 -2.821,-3.891 -6.099,-5.687 -11.929,-1.443 -5.848,4.244 -5.479,13.684 -1.978,18.504 2.25,3.111 6.179,9.634 22.439,8.008 30.412,-3.057 67.54,-14.828 96.841,-36.112 29.292,-21.284 51.955,-52.968 64.269,-80.945 6.564,-14.961 1.582,-20.709 -0.696,-23.83 -3.484,-4.798 -12.357,-8.066 -18.182,-3.819 -5.848,4.233 -5.164,7.904 -2.336,11.796 2.828,3.896 8.022,1.56 8.022,1.56 0,0 7.692,-0.597 -1.373,17.332 -13.197,26.157 -30.729,51.46 -55.717,69.633"
     style="fill:#231f20;fill-opacity:1;fill-rule:nonzero;stroke:none"
     id="path32482" />
  <path
     d="m 607.51,334.812 c 15.474,47.62 11.658,83.677 6.783,108.805 -2.961,15.268 -12.743,22.456 -12.743,22.456 0,0 24.471,7.931 52.987,17.207 29.772,9.697 57.635,-15.461 66.327,-40.153 9.717,-27.588 11.186,-76.59 -10.039,-141.879 -21.204,-65.302 -51.195,-104.078 -75.259,-120.687 -21.561,-14.866 -58.879,-18.842 -77.289,6.501 -17.612,24.269 -32.733,45.07 -32.733,45.07 0,0 12.133,0.062 23.508,10.682 18.712,17.457 42.985,44.396 58.458,91.998"
     style="fill:#231f20;fill-opacity:1;fill-rule:nonzero;stroke:none"
     id="path32486" />
  <path
     d="m 589.428,340.69 c 9.547,29.375 8.829,60.171 4.159,89.081 -3.207,19.836 -9.076,14.829 -9.076,14.829 0,0 -2.834,-4.941 -7.414,-3.453 -4.581,1.482 -7.285,4.054 -5.05,10.912 2.233,6.872 11.33,9.434 16.974,7.596 3.658,-1.184 11.087,-2.903 14.549,-18.87 6.5,-29.862 6.788,-68.817 -4.403,-103.254 -11.187,-34.447 -34.316,-65.787 -57.123,-86.139 -12.208,-10.872 -19.215,-7.894 -22.876,-6.71 -5.64,1.833 -11.497,9.26 -9.264,16.122 2.224,6.864 5.928,7.351 10.508,5.864 4.576,-1.488 3.967,-7.144 3.967,-7.144 0,0 1.806,-7.512 16.062,6.66 20.776,20.632 39.442,45.132 48.987,74.506"
     style="fill:#231f20;fill-opacity:1;fill-rule:nonzero;stroke:none"
     id="path32490" />
  <path
     d="m 339.045,306.828 c 4.014,-1.884 8.274,-3.677 12.705,-5.241 0.797,-0.272 1.588,-0.539 2.369,-0.801 -2.085,-6.102 -7.874,-10.492 -14.689,-10.492 0.005,0.564 0,1.12 0,1.67 0,5.687 -0.183,10.812 -0.385,14.864"
     style="fill:#231f20;fill-opacity:1;fill-rule:nonzero;stroke:none"
     id="path32494" />
  <path
     d="m 308.429,414.104 c -0.29,0.152 -0.599,0.221 -0.904,0.221 -0.679,0 -1.351,-0.362 -1.694,-1.013 -0.016,0 -1.55,-2.92 -5.26,-7.724 -3.709,-4.807 -9.53,-11.424 -17.944,-18.568 -8.364,-7.111 -17.548,-12.555 -24.624,-16.201 -1.08,-0.555 -2.132,-1.044 -3.1,-1.518 3.587,4.668 8.927,11.923 14.155,19.888 9.032,13.768 14.184,25.142 14.207,25.203 0.442,0.967 0.021,2.101 -0.947,2.533 -0.256,0.112 -0.528,0.175 -0.785,0.175 -0.739,0 -1.434,-0.42 -1.759,-1.127 -0.016,-0.02 -5.051,-11.16 -13.924,-24.674 -8.06,-12.302 -16.511,-22.863 -18.003,-24.711 -3.484,12.853 -5.376,26.368 -5.382,40.332 0,0.78 0.017,1.565 0.017,2.349 0.021,1.059 -0.829,1.93 -1.887,1.94 -1.058,0.016 -1.936,-0.828 -1.941,-1.889 -0.011,-0.801 -0.021,-1.599 -0.021,-2.4 0,-15.239 2.165,-29.972 6.206,-43.92 0.144,-0.511 0.507,-0.944 0.978,-1.176 0.481,-0.241 1.026,-0.279 1.533,-0.085 0.107,0.048 20.392,7.609 37.759,22.354 17.274,14.687 24.014,27.254 24.112,27.419 0.496,0.929 0.142,2.089 -0.792,2.592 m 15.901,3.861 c -2.324,-4.722 -5.719,-10.96 -9.957,-16.914 -8.552,-12.011 -17.538,-21.968 -38.512,-36.282 -10.332,-7.055 -22.026,-11.962 -31.114,-15.086 -2.618,-0.892 -5.013,-1.649 -7.097,-2.264 -7.04,18.62 -10.893,38.794 -10.893,59.878 0,2.567 0.074,5.123 0.181,7.668 7.889,0.092 32.268,1.055 53.001,9.96 6.335,2.751 12.894,6.73 18.975,11.46 5.516,-4.136 15.373,-10.976 26.48,-16.166 -0.327,-0.7 -0.673,-1.452 -1.064,-2.254"
     style="fill:#231f20;fill-opacity:1;fill-rule:nonzero;stroke:none"
     id="path32498" />
  <path
     d="m 315.201,356.791 c -0.272,0.141 -0.567,0.208 -0.856,0.208 -0.7,0 -1.379,-0.391 -1.722,-1.061 -0.005,0 -1.158,-2.334 -3.75,-6.312 -2.592,-3.974 -6.587,-9.552 -12.166,-15.862 -5.565,-6.306 -11.497,-11.806 -16.04,-15.714 -0.449,-0.391 -0.898,-0.754 -1.316,-1.115 1.818,5.893 4.447,14.48 6.575,21.609 3.645,12.242 5.569,21.874 5.58,21.914 0.204,1.041 -0.465,2.051 -1.507,2.257 -0.129,0.022 -0.252,0.046 -0.374,0.046 -0.898,0 -1.706,-0.63 -1.882,-1.553 -0.012,-0.021 -1.904,-9.505 -5.494,-21.564 -2.812,-9.408 -6.511,-21.376 -8.039,-26.278 -6.264,8.156 -11.728,16.953 -16.276,26.278 -0.465,0.956 -1.609,1.352 -2.565,0.887 -0.958,-0.468 -1.348,-1.616 -0.883,-2.563 5.024,-10.302 11.133,-19.974 18.185,-28.868 0.64,-0.809 1.816,-0.968 2.651,-0.348 0.053,0.048 12.805,9.51 24.26,22.471 11.439,12.945 16.421,22.887 16.48,23.001 0.469,0.95 0.085,2.099 -0.861,2.567 m 16.345,1.905 c -2.709,-6.25 -8.547,-16.962 -19.333,-30.442 -10.455,-13.058 -21.396,-23.366 -29.718,-30.408 -3.625,-3.06 -6.746,-5.498 -9.102,-7.272 -14.566,15.313 -26.304,33.345 -34.359,53.262 9.604,2.836 25.276,8.418 38.992,17.757 9.509,6.478 16.676,12.168 22.471,17.574 7.738,-5.458 21.524,-14.894 31.429,-19.504 -0.247,-0.637 -0.38,-0.967 -0.38,-0.967"
     style="fill:#231f20;fill-opacity:1;fill-rule:nonzero;stroke:none"
     id="path32502" />
  <path
     d="m 331.358,250.722 c -20.856,8.64 -39.612,21.326 -55.289,37.076 7.612,5.742 22.129,17.646 36.304,34.614 2.972,-2.109 7.226,-4.968 12.421,-8.038 -0.064,-2.171 -0.491,-17.036 -1.283,-25.615 -0.416,-4.615 -1.126,-9.265 -1.704,-12.78 -2.908,5.728 -7.468,14.793 -9.092,18.863 -2.56,6.404 -5.752,14.288 -5.752,14.293 -0.304,0.743 -1.025,1.195 -1.785,1.195 -0.24,0 -0.48,-0.046 -0.716,-0.144 -0.988,-0.391 -1.46,-1.519 -1.059,-2.496 0.006,-0.011 3.192,-7.89 5.752,-14.275 1.722,-4.292 6.179,-13.249 9.092,-18.993 -7.434,4.38 -14.469,9.358 -21.044,14.888 -0.801,0.682 -2.02,0.585 -2.705,-0.227 -0.677,-0.812 -0.576,-2.027 0.236,-2.701 8.317,-7.008 17.372,-13.174 27.025,-18.364 0.534,-0.283 1.176,-0.299 1.732,-0.04 0.546,0.268 0.94,0.762 1.059,1.36 0.009,0.041 1.917,9.57 2.788,19.077 0.663,7.333 1.059,18.897 1.209,23.801 2.074,-1.161 4.266,-2.325 6.548,-3.48 0.252,-4.242 0.497,-10.112 0.497,-16.772 0,-2.87 -0.032,-5.88 -0.144,-8.956 -0.438,-12.114 -2.742,-25.386 -4.09,-32.286"
     style="fill:#231f20;fill-opacity:1;fill-rule:nonzero;stroke:none"
     id="path32506" />
  <path
     d="m 335.164,250.275 c 1.379,7.08 3.656,20.313 4.111,32.597 0.043,1.222 0.081,2.39 0.101,3.587 0.588,0 1.23,0.027 1.807,0.08 0.405,-3.164 0.728,-6.647 0.812,-10.193 0.023,-0.947 0.032,-1.858 0.032,-2.754 0,-5.681 -0.439,-10.414 -0.876,-13.714 -0.439,-3.298 -0.865,-5.11 -0.865,-5.122 v 0.012 c -0.242,-1.034 0.406,-2.066 1.432,-2.309 1.036,-0.24 2.062,0.403 2.308,1.443 0.022,0.096 1.838,7.926 1.838,19.69 0,0.92 -0.009,1.87 -0.03,2.847 -0.096,3.787 -0.439,7.48 -0.876,10.821 0.581,0.166 1.153,0.372 1.709,0.594 3.26,-5.255 7.356,-11.375 12.048,-17.295 12.389,-15.599 24.972,-27.7 25.004,-27.735 0.749,-0.745 1.968,-0.745 2.715,0 0.744,0.746 0.744,1.964 0,2.712 -0.02,0.036 -12.48,12 -24.715,27.407 -4.512,5.685 -8.477,11.579 -11.652,16.701 1.485,0.979 2.833,2.158 3.992,3.495 1.929,-0.784 4.063,-1.555 6.388,-2.281 10.139,-3.166 16.837,-3.459 18.968,-3.459 0.455,0 0.712,0.016 0.744,0.021 h 0.005 c 1.054,0.07 1.856,0.984 1.791,2.038 -0.075,1.057 -0.984,1.854 -2.041,1.792 0,0 -0.128,-0.007 -0.499,-0.007 -1.779,0 -8.085,0.237 -17.825,3.281 -1.892,0.588 -3.65,1.206 -5.259,1.842 0.567,1.008 1.069,2.169 1.455,3.276 11.454,-3.359 21.55,-4.508 28.434,-4.856 0.482,-0.647 0.792,-1.312 0.91,-1.972 0.416,-2.299 -2.546,-2.839 -2.358,-4.103 0.23,-1.528 4.035,-2.028 4.644,-5.551 0.514,-2.966 -3.313,-4.598 -8.962,-4.412 -5.458,0.176 -8.398,3.146 -12.839,3.726 -4.431,0.58 -5.388,-4.744 -2.465,-6.556 3.08,-1.911 10.113,-3.186 13.694,-3.731 4.95,-0.759 12.432,-2.661 13.042,-8.693 0.568,-5.556 -4.886,-8.6 -4.886,-8.6 0,0 7.472,-10.226 2.898,-15.64 -5.971,-3.835 -15.138,4.901 -15.138,4.901 0,0 -3.036,-4.856 -8.465,-3.571 -5.901,1.392 -7.516,8.9 -7.623,13.908 -0.074,3.622 -0.422,10.768 -1.914,14.066 -1.41,3.13 -6.82,2.881 -6.82,-1.598 0,-4.477 2.556,-7.78 2.021,-13.21 -0.551,-5.631 -2.667,-9.21 -5.539,-8.315 -3.409,1.069 -3.409,4.901 -4.9,5.335 -1.229,0.353 -2.154,-2.526 -4.368,-1.82 -0.7,0.226 -1.368,0.684 -1.988,1.325"
     style="fill:#231f20;fill-opacity:1;fill-rule:nonzero;stroke:none"
     id="path32510" />
  <path
     d="m 327.27,519.768 c -0.904,0.544 -2.089,0.256 -2.636,-0.663 -0.053,-0.076 -3.74,-6.18 -7.209,-16.581 -3.448,-10.479 -7.691,-36.887 -29.799,-53.193 -18.035,-13.331 -36.581,-15.498 -42.873,-15.84 3.598,4.532 19.258,24.288 29.948,37.601 12.112,15.083 29.762,35.281 29.794,35.313 0.694,0.801 0.61,2.02 -0.188,2.716 -0.362,0.309 -0.817,0.469 -1.256,0.469 -0.533,0 -1.069,-0.225 -1.442,-0.652 -0.016,0 -17.703,-20.259 -29.89,-35.445 -8.038,-10.017 -18.868,-23.657 -25.293,-31.75 9.632,41.468 36.095,76.623 71.763,97.673 v 0.01 c 0.92,0.524 1.214,1.69 0.678,2.608 -0.357,0.62 -1,0.952 -1.65,0.952 -0.332,0 -0.663,-0.085 -0.975,-0.278 -39.643,-23.379 -68.148,-63.633 -75.652,-110.896 -0.087,-0.545 0.064,-1.093 0.405,-1.513 0.354,-0.427 0.86,-0.675 1.412,-0.706 0.022,0 0.139,-0.005 0.342,-0.005 2.886,0.005 25.27,0.513 47.16,16.664 23.501,17.355 27.841,45.257 31.156,55.058 1.677,5.031 3.4,9.007 4.704,11.711 1.304,2.705 2.148,4.107 2.148,4.107 0.556,0.896 0.262,2.084 -0.647,2.64 m 48.784,16.185 c -7.14,0 -13.308,4.147 -16.248,10.155 -3.807,-4.426 -10.071,-12.379 -15.394,-22.171 -8.194,-15.105 -19.05,-41.954 -25.239,-57.317 -5.811,-14.617 -24.379,-31.187 -40.751,-38.169 -19.627,-8.466 -43.392,-9.558 -51.281,-9.656 4.629,68.854 50.522,126.19 112.985,148.446 16.024,5.523 25.933,4.891 35.928,4.891 9.986,0 18.084,-8.098 18.084,-18.098 0,-9.989 -8.098,-18.081 -18.084,-18.081"
     style="fill:#231f20;fill-opacity:1;fill-rule:nonzero;stroke:none"
     id="path32514" />
  <path
     d="m 379.71,326.282 c -0.711,7.305 -2.731,19.754 -2.731,19.781 -0.155,0.947 -0.973,1.612 -1.893,1.612 -0.102,0 -0.208,-0.011 -0.304,-0.025 -1.052,-0.168 -1.764,-1.154 -1.594,-2.202 0,-0.021 2.016,-12.465 2.706,-19.538 0.38,-3.919 0.545,-8.427 0.652,-11.658 -6.362,5.112 -14.614,13.007 -19.702,19.262 -6.018,7.374 -11.412,16.298 -11.417,16.32 -0.363,0.598 -0.995,0.933 -1.647,0.933 -0.33,0 -0.678,-0.096 -0.984,-0.284 -0.908,-0.54 -1.208,-1.724 -0.652,-2.627 0.028,-0.04 5.475,-9.105 11.728,-16.772 4.896,-5.993 12.224,-13.141 18.488,-18.377 -4.72,0.749 -11.337,2.091 -17.398,4.324 -10.776,3.947 -23.229,12.24 -23.252,12.257 h 0.012 c -0.888,0.587 -2.084,0.354 -2.668,-0.53 -0.592,-0.879 -0.352,-2.07 0.531,-2.659 0.064,-0.037 12.635,-8.453 24.051,-12.673 11.626,-4.267 24.716,-5.368 24.796,-5.384 0.54,-0.048 1.08,0.136 1.471,0.502 0.395,0.368 0.624,0.884 0.609,1.432 0,0.027 -0.097,9.042 -0.802,16.306 m 11.641,-27.8 c -6.815,-0.006 -21.529,0.817 -38.335,6.721 -11.844,4.169 -22.603,10.095 -30.381,14.98 -3.132,1.975 -5.772,3.765 -7.809,5.203 0.123,0.152 0.252,0.317 0.375,0.473 12.126,15.156 17.708,25.771 20.283,32.311 12.968,-5.375 23.894,-6.583 34.263,-7.767 3.287,-0.376 6.479,-0.505 9.353,-0.505 1.972,0 4.095,0.124 6.158,0.265 1.058,-3.376 3.362,-11.809 4.961,-25.557 1.592,-13.744 2.1,-22.559 2.26,-26.084 -0.343,0 -0.721,-0.04 -1.128,-0.04"
     style="fill:#231f20;fill-opacity:1;fill-rule:nonzero;stroke:none"
     id="path32518" />
  <path
     d="m 378.876,383.695 c -2.052,10.185 -5.068,18.045 -5.088,18.112 -0.3,0.758 -1.032,1.229 -1.796,1.229 -0.23,0 -0.46,-0.045 -0.685,-0.131 -0.993,-0.38 -1.485,-1.488 -1.107,-2.477 -0.005,-0.027 2.93,-7.639 4.919,-17.495 1.02,-5.034 1.652,-9.228 1.999,-12.141 -5.084,3.299 -12.118,8.215 -19.746,14.375 -9.776,7.882 -16.564,15.53 -20.08,19.849 -0.386,0.471 -0.93,0.708 -1.492,0.708 -0.428,0 -0.86,-0.141 -1.213,-0.424 -0.823,-0.68 -0.941,-1.887 -0.279,-2.701 3.651,-4.478 10.616,-12.314 20.644,-20.416 6.355,-5.127 12.292,-9.4 17.088,-12.62 -6.356,1.08 -15.72,2.934 -24.294,5.676 -7.418,2.366 -13.212,4.862 -17.157,6.757 -3.935,1.901 -5.955,3.161 -5.955,3.167 -0.897,0.556 -2.085,0.285 -2.647,-0.615 -0.565,-0.899 -0.286,-2.077 0.611,-2.649 0.101,-0.062 8.767,-5.462 23.982,-10.316 15.256,-4.868 32.574,-6.991 32.632,-7.002 0.574,-0.076 1.139,0.112 1.551,0.503 0.417,0.396 0.636,0.948 0.604,1.521 -0.011,0.066 -0.439,6.96 -2.491,17.09 m 0.224,-29.964 c -2.757,0 -5.805,0.125 -8.916,0.484 -11.197,1.285 -22.394,2.531 -36.185,8.792 -6.821,3.098 -16.153,8.982 -23.7,14.068 -2.592,1.746 -4.972,3.389 -6.986,4.812 5.704,5.654 10.044,11.096 14.19,16.944 5.152,7.257 9.044,14.808 11.396,19.81 1.102,-0.454 2.202,-0.893 3.314,-1.314 13.107,-4.942 24.685,-5.931 33.246,-5.931 4.437,0.011 8.083,0.265 10.66,0.375 2.549,0.109 5.632,0.542 8.659,1.076 1.196,-4.452 4.189,-15.987 5.868,-26.862 1.79,-11.681 3.425,-26.693 3.902,-31.113 -2.224,-0.269 -9.632,-1.141 -15.448,-1.141"
     style="fill:#231f20;fill-opacity:1;fill-rule:nonzero;stroke:none"
     id="path32522" />
  <path
     d="m 326.549,474.62 c 6.232,15.324 14.699,35.45 21.23,47.488 3.827,7.044 8.2,13.149 11.707,17.574 1.789,-2.074 3.96,-3.796 6.402,-5.078 -3.965,-7.526 -10.198,-22.203 -10.198,-40.355 0,-26.642 16.624,-53.494 20.889,-59.246 3.56,-4.816 12.924,-13.81 15.901,-16.624 -4.558,-1.059 -11.818,-2.592 -16.521,-2.775 -2.663,-0.115 -6.2,-0.363 -10.499,-0.363 -8.273,0 -19.326,0.935 -31.898,5.675 -9.532,3.593 -18.783,9.116 -25.613,13.741 -2.306,1.555 -4.31,2.991 -5.987,4.226 9.225,7.75 17.017,17.114 20.765,26.3 0.604,1.518 1.256,3.15 1.951,4.869 1.219,-2.185 2.736,-4.848 4.052,-6.972 2.645,-4.265 5.724,-9.504 15.404,-19.639 8.145,-8.554 13.774,-12.206 20.445,-16.202 -0.048,0 0.048,0 0,0 -4.848,0 -12.769,0.857 -22.412,4.946 -12.861,5.444 -19.296,10.37 -21.626,12.407 -0.78,0.669 -1.054,0.977 -1.054,0.977 -0.721,0.784 -1.929,0.831 -2.709,0.112 -0.785,-0.71 -0.828,-1.929 -0.117,-2.704 0.192,-0.214 6.409,-6.88 23.998,-14.325 10.157,-4.297 18.463,-5.249 23.765,-5.249 3.998,0 6.296,0.537 6.419,0.568 0.648,0.157 1.16,0.624 1.369,1.254 0.208,0.624 0.08,1.311 -0.326,1.82 0,0.036 -8.84,10.851 -15.218,23.928 -6.461,13.254 -8.488,19.912 -9.53,26.623 -0.514,3.32 -0.642,6.671 -0.642,9.179 0,2.498 0.128,4.114 0.128,4.121 0.087,1.06 -0.705,1.981 -1.762,2.063 -0.054,0.005 -0.102,0.01 -0.15,0.01 -0.996,0 -1.833,-0.762 -1.914,-1.774 0,-0.035 -0.135,-1.788 -0.135,-4.42 0,-2.643 0.135,-6.158 0.685,-9.768 1.095,-7.142 3.335,-14.339 9.872,-27.72 3.122,-6.384 6.768,-12.211 9.762,-16.591 -4.992,3.153 -9.655,6.687 -16.074,13.396 -9.529,10.009 -12.246,14.713 -14.923,19.016 -1.866,3.02 -4.25,7.325 -5.436,9.512"
     style="fill:#231f20;fill-opacity:1;fill-rule:nonzero;stroke:none"
     id="path32526" />
  <path
     d="m 453.322,306.828 c -4.02,-1.884 -8.274,-3.677 -12.704,-5.241 -0.798,-0.272 -1.588,-0.539 -2.37,-0.801 2.08,-6.102 7.87,-10.492 14.684,-10.492 -0.005,0.564 0.006,1.12 0.006,1.67 0,5.687 0.176,10.812 0.384,14.864"
     style="fill:#231f20;fill-opacity:1;fill-rule:nonzero;stroke:none"
     id="path32530" />
  <path
     d="m 553.712,409.32 c -0.011,1.061 -0.881,1.905 -1.945,1.889 -1.059,-0.01 -1.903,-0.881 -1.892,-1.94 0.01,-0.784 0.021,-1.569 0.021,-2.349 -0.005,-13.964 -1.897,-27.479 -5.381,-40.332 -1.494,1.848 -9.938,12.409 -18.008,24.711 -8.863,13.514 -13.898,24.654 -13.919,24.674 -0.321,0.707 -1.015,1.127 -1.753,1.127 -0.258,0 -0.53,-0.063 -0.791,-0.175 -0.963,-0.432 -1.385,-1.566 -0.952,-2.533 0.021,-0.061 5.175,-11.435 14.207,-25.203 5.233,-7.965 10.573,-15.22 14.16,-19.888 -0.968,0.474 -2.015,0.963 -3.096,1.518 -7.076,3.645 -16.259,9.089 -24.63,16.201 -8.413,7.144 -14.233,13.761 -17.948,18.568 -3.7,4.804 -5.238,7.724 -5.249,7.724 -0.348,0.649 -1.016,1.013 -1.7,1.013 -0.299,0 -0.609,-0.069 -0.897,-0.221 -0.931,-0.503 -1.295,-1.663 -0.792,-2.592 0.092,-0.165 6.83,-12.732 24.106,-27.419 17.372,-14.745 37.651,-22.306 37.758,-22.356 0.502,-0.192 1.058,-0.154 1.529,0.087 0.48,0.232 0.833,0.665 0.983,1.176 4.041,13.948 6.212,28.681 6.212,43.92 0,0.801 -0.011,1.597 -0.023,2.4 m 1.005,-61.901 c -2.085,0.615 -4.489,1.372 -7.102,2.263 -9.088,3.125 -20.778,8.032 -31.115,15.087 -20.975,14.314 -29.964,24.271 -38.511,36.282 -4.228,5.954 -7.628,12.192 -9.958,16.914 -0.384,0.802 -0.736,1.552 -1.064,2.254 11.108,5.189 20.969,12.03 26.481,16.166 6.087,-4.73 12.645,-8.709 18.979,-11.46 20.729,-8.906 45.113,-9.868 52.996,-9.961 0.113,-2.544 0.188,-5.1 0.188,-7.668 0,-21.083 -3.86,-41.257 -10.894,-59.877"
     style="fill:#231f20;fill-opacity:1;fill-rule:nonzero;stroke:none"
     id="path32534" />
  <path
     d="m 536.993,340.531 c -0.952,0.467 -2.094,0.071 -2.565,-0.887 -4.544,-9.324 -10.012,-18.122 -16.271,-26.278 -1.528,4.904 -5.228,16.87 -8.038,26.278 -3.598,12.059 -5.49,21.543 -5.495,21.565 -0.181,0.922 -0.984,1.552 -1.881,1.552 -0.123,0 -0.247,-0.024 -0.375,-0.045 -1.048,-0.207 -1.711,-1.216 -1.508,-2.258 0.011,-0.04 1.936,-9.672 5.581,-21.912 2.128,-7.131 4.756,-15.716 6.575,-21.61 -0.428,0.36 -0.872,0.724 -1.321,1.115 -4.538,3.907 -10.476,9.407 -16.04,15.715 -5.58,6.308 -9.574,11.886 -12.166,15.86 -2.586,3.98 -3.742,6.313 -3.752,6.313 -0.33,0.671 -1.016,1.061 -1.721,1.061 -0.288,0 -0.577,-0.066 -0.855,-0.209 -0.946,-0.467 -1.325,-1.617 -0.856,-2.565 0.059,-0.115 5.036,-10.056 16.474,-23.002 11.449,-12.962 24.213,-22.422 24.266,-22.47 0.835,-0.62 2.011,-0.463 2.651,0.346 7.047,8.895 13.16,18.567 18.184,28.868 0.46,0.947 0.065,2.095 -0.887,2.563 m -18.024,-49.956 c -2.356,1.773 -5.473,4.211 -9.102,7.271 -8.322,7.042 -19.263,17.35 -29.714,30.408 -10.78,13.48 -16.622,24.193 -19.337,30.442 0,0 -0.128,0.33 -0.38,0.968 9.911,4.611 23.689,14.047 31.428,19.504 5.8,-5.407 12.963,-11.097 22.477,-17.575 13.715,-9.339 29.387,-14.921 38.992,-17.757 -8.054,-19.917 -19.793,-37.948 -34.364,-53.261"
     style="fill:#231f20;fill-opacity:1;fill-rule:nonzero;stroke:none"
     id="path32538" />
  <path
     d="m 461.008,250.722 c 20.852,8.64 39.612,21.326 55.289,37.076 -7.616,5.742 -22.128,17.646 -36.314,34.614 -2.96,-2.109 -7.216,-4.968 -12.411,-8.038 0.059,-2.171 0.492,-17.036 1.277,-25.615 0.411,-4.615 1.134,-9.265 1.706,-12.78 2.913,5.728 7.473,14.793 9.086,18.863 2.566,6.404 5.763,14.288 5.763,14.293 0.299,0.743 1.025,1.195 1.779,1.195 0.241,0 0.486,-0.046 0.722,-0.144 0.983,-0.391 1.454,-1.519 1.058,-2.496 -0.011,-0.011 -3.196,-7.89 -5.752,-14.275 -1.72,-4.292 -6.178,-13.249 -9.096,-18.993 7.44,4.38 14.474,9.358 21.037,14.888 0.813,0.682 2.032,0.585 2.711,-0.227 0.678,-0.812 0.582,-2.027 -0.23,-2.701 -8.322,-7.008 -17.372,-13.174 -27.025,-18.364 -0.545,-0.283 -1.176,-0.299 -1.732,-0.04 -0.545,0.268 -0.941,0.762 -1.063,1.36 -0.005,0.041 -1.919,9.57 -2.785,19.077 -0.662,7.333 -1.064,18.897 -1.214,23.801 -2.078,-1.161 -4.259,-2.325 -6.547,-3.48 -0.245,-4.242 -0.497,-10.112 -0.497,-16.772 0,-2.87 0.038,-5.88 0.15,-8.956 0.432,-12.114 2.742,-25.386 4.088,-32.286"
     style="fill:#231f20;fill-opacity:1;fill-rule:nonzero;stroke:none"
     id="path32542" />
  <path
     d="m 457.203,250.275 c -1.38,7.08 -3.667,20.313 -4.116,32.597 -0.043,1.222 -0.076,2.39 -0.101,3.587 -0.584,0 -1.23,0.027 -1.808,0.08 -0.406,-3.164 -0.722,-6.647 -0.812,-10.193 -0.022,-0.947 -0.026,-1.858 -0.026,-2.754 0,-5.681 0.438,-10.414 0.876,-13.714 0.432,-3.298 0.86,-5.11 0.866,-5.122 l -0.006,0.012 c 0.242,-1.034 -0.401,-2.066 -1.432,-2.309 -1.032,-0.24 -2.064,0.403 -2.304,1.443 -0.026,0.096 -1.838,7.926 -1.838,19.69 0,0.92 0.01,1.87 0.032,2.847 0.096,3.787 0.438,7.48 0.876,10.821 -0.587,0.166 -1.154,0.372 -1.71,0.594 -3.26,-5.255 -7.356,-11.375 -12.053,-17.295 -12.384,-15.599 -24.968,-27.7 -24.999,-27.735 -0.749,-0.745 -1.968,-0.745 -2.716,0 -0.748,0.746 -0.748,1.964 0,2.712 0.022,0.036 12.475,12 24.706,27.407 4.522,5.685 8.477,11.579 11.662,16.701 -1.485,0.979 -2.833,2.158 -3.993,3.495 -1.929,-0.784 -4.056,-1.555 -6.387,-2.281 -10.144,-3.166 -16.837,-3.459 -18.974,-3.459 -0.45,0 -0.707,0.016 -0.743,0.021 h -0.007 c -1.052,0.07 -1.849,0.984 -1.785,2.038 0.076,1.057 0.985,1.854 2.037,1.792 0.004,0 0.134,-0.007 0.498,-0.007 1.785,0 8.081,0.237 17.83,3.281 1.894,0.588 3.646,1.206 5.26,1.842 -0.566,1.008 -1.069,2.169 -1.454,3.276 -11.46,-3.359 -21.551,-4.508 -28.435,-4.856 -0.481,-0.647 -0.792,-1.312 -0.915,-1.972 -0.417,-2.299 2.551,-2.839 2.358,-4.103 -0.224,-1.528 -4.03,-2.028 -4.639,-5.551 -0.519,-2.966 3.303,-4.598 8.957,-4.412 5.463,0.176 8.403,3.146 12.839,3.726 4.436,0.58 5.388,-4.744 2.469,-6.556 -3.078,-1.911 -10.112,-3.186 -13.694,-3.731 -4.955,-0.759 -12.432,-2.661 -13.047,-8.693 -0.561,-5.556 4.891,-8.6 4.891,-8.6 0,0 -7.483,-10.226 -2.898,-15.64 5.967,-3.835 15.127,4.901 15.127,4.901 0,0 3.041,-4.856 8.477,-3.571 5.902,1.392 7.511,8.9 7.612,13.908 0.086,3.622 0.428,10.768 1.924,14.066 1.411,3.13 6.82,2.881 6.82,-1.598 0,-4.477 -2.56,-7.78 -2.03,-13.21 0.554,-5.631 2.672,-9.21 5.548,-8.315 3.409,1.069 3.409,4.901 4.896,5.335 1.234,0.353 2.16,-2.526 4.372,-1.82 0.694,0.226 1.368,0.684 1.989,1.325"
     style="fill:#231f20;fill-opacity:1;fill-rule:nonzero;stroke:none"
     id="path32546" />
  <path
     d="m 476.124,542.708 c -0.309,0.193 -0.64,0.278 -0.983,0.278 -0.653,0 -1.282,-0.332 -1.646,-0.952 -0.535,-0.918 -0.235,-2.084 0.673,-2.608 v -0.01 c 35.673,-21.05 62.136,-56.205 71.768,-97.673 -6.425,8.093 -17.248,21.733 -25.292,31.75 -12.183,15.186 -29.875,35.445 -29.884,35.445 -0.381,0.427 -0.909,0.652 -1.444,0.652 -0.448,0 -0.897,-0.16 -1.261,-0.469 -0.796,-0.696 -0.883,-1.915 -0.182,-2.717 0.032,-0.031 17.68,-20.229 29.782,-35.312 10.701,-13.313 26.352,-33.069 29.954,-37.601 -6.286,0.342 -24.845,2.509 -42.873,15.84 -22.101,16.306 -26.351,42.714 -29.799,53.193 -3.468,10.401 -7.157,16.505 -7.205,16.581 -0.556,0.919 -1.742,1.207 -2.638,0.663 -0.91,-0.556 -1.199,-1.744 -0.654,-2.642 0.011,0 0.856,-1.4 2.159,-4.105 1.3,-2.704 3.026,-6.68 4.705,-11.711 3.308,-9.801 7.653,-37.703 31.149,-55.058 21.895,-16.151 44.274,-16.659 47.155,-16.664 0.209,0 0.331,0.005 0.353,0.005 0.544,0.031 1.059,0.279 1.4,0.706 0.352,0.42 0.503,0.968 0.411,1.513 -7.499,47.263 -36.009,87.517 -75.648,110.896 m 37.811,-114.257 c -16.366,6.982 -34.935,23.552 -40.744,38.169 -6.186,15.363 -17.045,42.212 -25.24,57.317 -5.329,9.792 -11.593,17.744 -15.389,22.171 -2.939,-6.008 -9.107,-10.155 -16.243,-10.155 -9.991,0 -18.093,8.092 -18.093,18.081 0,10 8.102,18.098 18.093,18.098 9.991,0 19.893,0.632 35.924,-4.891 62.452,-22.256 108.344,-79.592 112.977,-148.448 -7.883,0.1 -31.652,1.192 -51.285,9.658"
     style="fill:#231f20;fill-opacity:1;fill-rule:nonzero;stroke:none"
     id="path32550" />
  <path
     d="m 463.318,328.759 c -0.594,0.883 -1.786,1.117 -2.668,0.529 h 0.005 c -0.021,-0.016 -12.485,-8.309 -23.255,-12.256 -6.056,-2.234 -12.68,-3.576 -17.393,-4.324 6.264,5.236 13.592,12.384 18.488,18.376 6.253,7.667 11.695,16.734 11.727,16.772 0.55,0.904 0.256,2.088 -0.652,2.628 -0.31,0.188 -0.652,0.284 -0.995,0.284 -0.641,0 -1.272,-0.334 -1.635,-0.933 -0.01,-0.021 -5.404,-8.945 -11.417,-16.321 -5.088,-6.254 -13.352,-14.148 -19.701,-19.262 0.106,3.232 0.272,7.74 0.65,11.658 0.691,7.074 2.7,19.518 2.707,19.54 0.165,1.048 -0.547,2.033 -1.589,2.201 -0.107,0.015 -0.208,0.025 -0.31,0.025 -0.925,0 -1.737,-0.666 -1.897,-1.612 0,-0.026 -2.016,-12.476 -2.727,-19.781 -0.704,-7.265 -0.806,-16.279 -0.806,-16.305 -0.004,-0.55 0.214,-1.064 0.614,-1.434 0.384,-0.366 0.931,-0.55 1.471,-0.502 0.079,0.017 13.164,1.117 24.784,5.385 11.428,4.22 24,12.636 24.064,12.673 0.876,0.588 1.121,1.78 0.535,2.659 m 6.409,-8.576 c -7.777,-4.885 -18.544,-10.811 -30.381,-14.98 -16.8,-5.903 -31.52,-6.725 -38.34,-6.721 -0.396,0 -0.782,0.041 -1.123,0.041 0.16,3.524 0.668,12.339 2.265,26.084 1.598,13.747 3.903,22.18 4.955,25.557 2.069,-0.142 4.187,-0.266 6.152,-0.266 2.887,0 6.073,0.129 9.36,0.505 10.369,1.185 21.288,2.392 34.267,7.768 2.572,-6.541 8.156,-17.156 20.279,-32.312 0.128,-0.155 0.251,-0.32 0.374,-0.472 -2.031,-1.437 -4.678,-3.228 -7.808,-5.204"
     style="fill:#231f20;fill-opacity:1;fill-rule:nonzero;stroke:none"
     id="path32554" />
  <path
     d="m 470.372,384.547 c -0.556,0.901 -1.743,1.17 -2.64,0.614 0,-0.005 -2.02,-1.264 -5.954,-3.166 -3.944,-1.895 -9.739,-4.391 -17.158,-6.756 -8.584,-2.743 -17.938,-4.598 -24.293,-5.676 4.795,3.22 10.728,7.493 17.077,12.62 10.034,8.102 16.998,15.938 20.643,20.414 0.673,0.815 0.556,2.023 -0.267,2.702 -0.358,0.282 -0.786,0.425 -1.218,0.425 -0.556,0 -1.107,-0.239 -1.487,-0.708 -3.516,-4.32 -10.316,-11.968 -20.087,-19.849 -7.622,-6.16 -14.656,-11.078 -19.745,-14.375 0.353,2.912 0.985,7.107 2,12.14 1.989,9.857 4.928,17.469 4.923,17.495 0.38,0.989 -0.112,2.097 -1.106,2.478 -0.225,0.084 -0.46,0.13 -0.685,0.13 -0.769,0 -1.501,-0.47 -1.796,-1.23 -0.021,-0.065 -3.036,-7.926 -5.093,-18.112 -2.054,-10.128 -2.48,-17.022 -2.486,-17.089 -0.038,-0.573 0.18,-1.125 0.599,-1.521 0.412,-0.391 0.988,-0.578 1.549,-0.503 0.059,0.011 17.371,2.133 32.638,7.001 15.217,4.855 23.875,10.256 23.977,10.318 0.898,0.57 1.176,1.749 0.609,2.648 m 11.695,-7.472 c -7.547,-5.087 -16.88,-10.971 -23.7,-14.068 -13.789,-6.263 -24.993,-7.507 -36.185,-8.793 -3.112,-0.359 -6.158,-0.483 -8.927,-0.483 -5.804,0 -13.212,0.871 -15.436,1.14 0.469,4.421 2.105,19.432 3.903,31.113 1.673,10.875 4.665,22.411 5.868,26.863 3.025,-0.535 6.104,-0.968 8.658,-1.078 2.566,-0.109 6.211,-0.362 10.648,-0.373 8.574,0 20.151,0.988 33.258,5.929 1.11,0.422 2.212,0.86 3.313,1.315 2.352,-5.003 6.242,-12.553 11.394,-19.811 4.144,-5.848 8.488,-11.289 14.192,-16.944 -2.014,-1.422 -4.398,-3.065 -6.986,-4.81"
     style="fill:#231f20;fill-opacity:1;fill-rule:nonzero;stroke:none"
     id="path32558" />
  <path
     d="m 465.819,474.62 c -6.244,15.324 -14.699,35.45 -21.231,47.488 -3.826,7.044 -8.198,13.149 -11.705,17.574 -1.796,-2.074 -3.967,-3.796 -6.415,-5.078 3.978,-7.526 10.21,-22.203 10.21,-40.355 0,-26.642 -16.628,-53.494 -20.888,-59.246 -3.566,-4.816 -12.931,-13.81 -15.907,-16.624 4.553,-1.059 11.823,-2.592 16.525,-2.775 2.662,-0.115 6.202,-0.363 10.488,-0.363 8.28,0 19.334,0.935 31.91,5.675 9.525,3.593 18.771,9.116 25.613,13.741 2.298,1.555 4.309,2.991 5.977,4.226 -9.216,7.75 -17.02,17.114 -20.761,26.3 -0.604,1.518 -1.262,3.15 -1.952,4.869 -1.217,-2.185 -2.729,-4.848 -4.045,-6.972 -2.651,-4.265 -5.731,-9.504 -15.404,-19.639 -8.147,-8.554 -13.779,-12.206 -20.45,-16.202 0.054,0 -0.049,0 0,0 4.852,0 12.768,0.857 22.422,4.946 12.856,5.444 19.29,10.37 21.621,12.407 0.78,0.669 1.046,0.977 1.046,0.977 0.723,0.784 1.93,0.831 2.716,0.112 0.78,-0.71 0.828,-1.929 0.107,-2.704 -0.187,-0.214 -6.404,-6.88 -23.994,-14.325 -10.16,-4.297 -18.462,-5.249 -23.758,-5.249 -3.998,0 -6.297,0.537 -6.425,0.568 -0.636,0.157 -1.16,0.624 -1.368,1.254 -0.208,0.624 -0.085,1.311 0.331,1.82 0,0.036 8.841,10.851 15.212,23.928 6.468,13.254 8.488,19.912 9.525,26.623 0.517,3.32 0.652,6.671 0.652,9.179 0,2.498 -0.135,4.114 -0.135,4.121 -0.078,1.06 0.712,1.981 1.771,2.063 0.048,0.005 0.101,0.01 0.149,0.01 0.988,0 1.828,-0.762 1.903,-1.774 0.011,-0.035 0.139,-1.788 0.139,-4.42 0,-2.643 -0.128,-6.158 -0.684,-9.768 -1.096,-7.142 -3.335,-14.339 -9.867,-27.72 -3.121,-6.384 -6.767,-12.211 -9.76,-16.591 4.992,3.153 9.653,6.687 16.068,13.396 9.535,10.009 12.244,14.713 14.923,19.016 1.87,3.02 4.253,7.325 5.441,9.512"
     style="fill:#231f20;fill-opacity:1;fill-rule:nonzero;stroke:none"
     id="path32562" />
</svg>
