<?xml version="1.0" encoding="UTF-8" standalone="no"?>
<!-- Created with Inkscape (http://www.inkscape.org/) -->

<svg
   version="1.1"
   id="svg35812"
   width="793.70135"
   height="793.70135"
   viewBox="0 0 793.70135 793.70135"
   sodipodi:docname="Gokani Kikyou.svg"
   inkscape:version="1.2 (dc2aeda, 2022-05-15)"
   xmlns:inkscape="http://www.inkscape.org/namespaces/inkscape"
   xmlns:sodipodi="http://sodipodi.sourceforge.net/DTD/sodipodi-0.dtd"
   xmlns="http://www.w3.org/2000/svg"
   xmlns:svg="http://www.w3.org/2000/svg">
  <defs
     id="defs35816">
    <clipPath
       clipPathUnits="userSpaceOnUse"
       id="clipPath36143">
      <path
         d="m -448.9434,374.9588 h 595.276 v -841.89 h -595.276 z"
         id="path36145"
         style="stroke-width:0.999998" />
    </clipPath>
    <clipPath
       clipPathUnits="userSpaceOnUse"
       id="clipPath36149">
      <path
         d="m -203.3125,553.4222 h 595.276 v -841.89 h -595.276 z"
         id="path36151"
         style="stroke-width:0.999998" />
    </clipPath>
    <clipPath
       clipPathUnits="userSpaceOnUse"
       id="clipPath36155">
      <path
         d="m -463.1504,370.3426 h 595.276 v -841.89 h -595.276 z"
         id="path36157"
         style="stroke-width:0.999998" />
    </clipPath>
    <clipPath
       clipPathUnits="userSpaceOnUse"
       id="clipPath36161">
      <path
         d="m -399.7402,565.5043 h 595.276 v -841.89 h -595.276 z"
         id="path36163"
         style="stroke-width:0.999998" />
    </clipPath>
    <clipPath
       clipPathUnits="userSpaceOnUse"
       id="clipPath36167">
      <path
         d="m -390.9609,553.4222 h 595.276 v -841.89 h -595.276 z"
         id="path36169"
         style="stroke-width:0.999998" />
    </clipPath>
    <clipPath
       clipPathUnits="userSpaceOnUse"
       id="clipPath36173">
      <path
         d="m -194.5371,565.5043 h 595.276 v -841.89 h -595.276 z"
         id="path36175"
         style="stroke-width:0.999998" />
    </clipPath>
    <clipPath
       clipPathUnits="userSpaceOnUse"
       id="clipPath36179">
      <path
         d="m -145.3291,374.9569 h 595.276 v -841.89 h -595.276 z"
         id="path36181"
         style="stroke-width:0.999998" />
    </clipPath>
    <clipPath
       clipPathUnits="userSpaceOnUse"
       id="clipPath36185">
      <path
         d="M -131.126,370.3426 H 464.15 v -841.89 h -595.276 z"
         id="path36187"
         style="stroke-width:0.999998" />
    </clipPath>
    <clipPath
       clipPathUnits="userSpaceOnUse"
       id="clipPath36191">
      <path
         d="m -312.8613,396.7342 h 595.276 v -841.89 h -595.276 z"
         id="path36193"
         style="stroke-width:0.999998" />
    </clipPath>
    <clipPath
       clipPathUnits="userSpaceOnUse"
       id="clipPath36197">
      <path
         d="m -276.4365,400.3524 h 595.276 v -841.89 h -595.276 z"
         id="path36199"
         style="stroke-width:0.999998" />
    </clipPath>
    <clipPath
       clipPathUnits="userSpaceOnUse"
       id="clipPath36203">
      <path
         d="m -297.1382,249.7284 h 595.276 v -841.89 h -595.276 z"
         id="path36205"
         style="stroke-width:0.999998" />
    </clipPath>
    <clipPath
       clipPathUnits="userSpaceOnUse"
       id="clipPath36209">
      <path
         d="m -297.1382,264.6634 h 595.276 v -841.89 h -595.276 z"
         id="path36211"
         style="stroke-width:0.999998" />
    </clipPath>
    <clipPath
       clipPathUnits="userSpaceOnUse"
       id="clipPath36215">
      <path
         d="m -268.623,436.1136 h 595.276 v -841.89 h -595.276 z"
         id="path36217"
         style="stroke-width:0.999998" />
    </clipPath>
    <clipPath
       clipPathUnits="userSpaceOnUse"
       id="clipPath36221">
      <path
         d="m -327.5566,430.2562 h 595.276 v -841.89 h -595.276 z"
         id="path36223"
         style="stroke-width:0.999998" />
    </clipPath>
    <clipPath
       clipPathUnits="userSpaceOnUse"
       id="clipPath36227">
      <path
         d="m -300.2168,454.5941 h 595.276 v -841.89 h -595.276 z"
         id="path36229"
         style="stroke-width:0.999998" />
    </clipPath>
    <clipPath
       clipPathUnits="userSpaceOnUse"
       id="clipPath36233">
      <path
         d="m -322.1133,423.6078 h 595.276 v -841.89 h -595.276 z"
         id="path36235"
         style="stroke-width:0.999998" />
    </clipPath>
  </defs>
  <sodipodi:namedview
     id="namedview35814"
     pagecolor="#ffffff"
     bordercolor="#000000"
     borderopacity="0.25"
     inkscape:showpageshadow="2"
     inkscape:pageopacity="0.0"
     inkscape:pagecheckerboard="0"
     inkscape:deskcolor="#d1d1d1"
     showgrid="false"
     inkscape:zoom="0.21024124"
     inkscape:cx="-1234.2964"
     inkscape:cy="561.26001"
     inkscape:window-width="1419"
     inkscape:window-height="456"
     inkscape:window-x="0"
     inkscape:window-y="25"
     inkscape:window-maximized="0"
     inkscape:current-layer="svg35812">
    <inkscape:page
       x="0"
       y="0"
       id="page35818"
       width="793.70135"
       height="793.70135" />
  </sodipodi:namedview>
  <path
     d="m 396.183,170.973 c 52.441,0 87.125,15.469 110.578,28.454 14.251,7.89 18.248,19.964 18.248,19.964 0,0 15.823,-21.808 34.294,-47.208 19.297,-26.536 3.25,-62.418 -18.536,-79.077 -24.331,-18.608 -72.672,-35.934 -144.584,-35.934 -71.912,0 -120.253,17.326 -144.584,35.934 -21.786,16.659 -37.832,52.541 -18.536,79.077 18.472,25.4 34.294,47.208 34.294,47.208 0,0 3.997,-12.074 18.248,-19.964 23.454,-12.985 58.137,-28.454 110.578,-28.454"
     style="fill:#231f20;fill-opacity:1;fill-rule:nonzero;stroke:none"
     id="path35832" />
  <path
     d="m 396.183,190.886 c 32.355,0 62.805,10.667 90.086,24.687 18.719,9.618 11.834,13.845 11.834,13.845 0,0 -5.836,1.221 -5.836,6.262 0,5.04 1.677,8.567 9.234,8.567 7.56,0 13.06,-8.233 13.06,-14.449 0,-4.031 0.7,-11.979 -14.086,-20.605 -27.648,-16.135 -66.364,-29.032 -104.292,-29.032 -37.929,0 -76.642,12.897 -104.292,29.032 -14.785,8.626 -14.085,16.574 -14.085,20.605 0,6.216 5.5,14.449 13.057,14.449 7.559,0 9.238,-3.527 9.238,-8.567 0,-5.041 -5.838,-6.262 -5.838,-6.262 0,0 -6.884,-4.227 11.835,-13.845 27.281,-14.02 57.732,-24.687 90.085,-24.687"
     style="fill:#231f20;fill-opacity:1;fill-rule:nonzero;stroke:none"
     id="path35836" />
  <path
     d="m 174.834,331.792 c 16.207,-49.874 41.633,-78.081 61.233,-96.37 11.908,-11.12 24.62,-11.187 24.62,-11.187 0,0 -15.849,-21.784 -34.294,-47.202 -19.275,-26.555 -58.363,-22.383 -80.935,-6.812 -25.218,17.394 -56.6356,58.014 -78.8555,126.403 -22.2186,68.388 -20.6799,119.723 -10.5026,148.617 9.1079,25.86 38.2812,52.212 69.4741,42.058 29.868,-9.722 55.498,-18.026 55.498,-18.026 0,0 -10.246,-7.526 -13.347,-23.526 -5.104,-26.312 -9.097,-64.08 7.109,-113.955"
     style="fill:#231f20;fill-opacity:1;fill-rule:nonzero;stroke:none"
     id="path35840" />
  <path
     d="m 193.772,337.944 c 9.999,-30.768 29.553,-56.43 51.317,-78.045 14.934,-14.836 16.821,-6.976 16.821,-6.976 0,0 -0.641,5.928 4.153,7.487 4.794,1.557 8.671,1.053 11,-6.14 2.342,-7.188 -3.794,-14.963 -9.706,-16.884 -3.828,-1.246 -11.171,-4.364 -23.947,7.026 -23.891,21.312 -48.114,54.147 -59.842,90.219 -11.716,36.073 -11.416,76.876 -4.618,108.16 3.64,16.721 11.416,18.516 15.25,19.764 5.91,1.916 15.441,-0.767 17.777,-7.956 2.336,-7.188 -0.498,-9.878 -5.298,-11.432 -4.789,-1.56 -7.754,3.613 -7.754,3.613 0,0 -6.153,5.248 -9.509,-15.533 -4.907,-30.279 -5.644,-62.532 4.356,-93.303"
     style="fill:#231f20;fill-opacity:1;fill-rule:nonzero;stroke:none"
     id="path35844" />
  <path
     d="m 259.382,592.006 c -42.429,-30.83 -61.393,-63.724 -72.736,-88.021 -6.894,-14.762 -3.03,-26.872 -3.03,-26.872 0,0 -25.619,8.347 -55.487,18.032 -31.2146,10.121 -39.3239,48.585 -31.4932,74.861 8.7562,29.364 37.6722,71.795 95.8532,114.063 58.176,42.27 107.468,56.669 138.089,55.921 27.42,-0.675 61.489,-20.281 61.478,-53.088 -0.014,-31.407 0,-58.347 0,-58.347 0,0 -10.326,7.42 -26.494,5.42 -26.603,-3.272 -63.763,-11.149 -106.18,-41.969"
     style="fill:#231f20;fill-opacity:1;fill-rule:nonzero;stroke:none"
     id="path35848" />
  <path
     d="m 271.082,575.897 c -26.175,-19.019 -44.535,-45.552 -58.368,-72.927 -9.499,-18.783 -1.437,-18.154 -1.437,-18.154 0,0 5.441,2.439 8.401,-1.635 2.967,-4.081 3.683,-7.924 -2.437,-12.36 -6.115,-4.448 -15.404,-1.014 -19.055,4.008 -2.368,3.262 -7.605,9.282 -0.721,24.953 12.892,29.303 36.629,62.495 67.314,84.784 30.687,22.3 69.583,34.615 101.44,37.82 17.028,1.711 21.135,-5.129 23.508,-8.39 3.649,-5.034 4.04,-14.924 -2.075,-19.37 -6.114,-4.448 -9.546,-2.578 -12.508,1.508 -2.966,4.072 1.036,8.487 1.036,8.487 0,0 3.091,7.471 -17.706,4.245 -30.312,-4.693 -61.217,-13.95 -87.392,-32.969"
     style="fill:#231f20;fill-opacity:1;fill-rule:nonzero;stroke:none"
     id="path35852" />
  <path
     d="m 532.985,592.006 c -42.429,30.82 -79.578,38.697 -106.185,41.969 -16.174,2 -26.502,-5.42 -26.502,-5.42 0,0 0.024,26.94 0.01,58.347 -0.02,32.807 34.06,52.413 61.47,53.076 30.626,0.76 79.918,-13.639 138.095,-55.909 58.175,-42.268 87.101,-84.699 95.852,-114.052 7.831,-26.276 -0.284,-64.74 -31.488,-74.872 -29.875,-9.685 -55.492,-18.032 -55.492,-18.032 0,0 3.865,12.11 -3.031,26.883 -11.335,24.286 -30.311,57.18 -72.729,88.01"
     style="fill:#231f20;fill-opacity:1;fill-rule:nonzero;stroke:none"
     id="path35856" />
  <path
     d="m 521.28,575.897 c -26.175,19.019 -57.081,28.276 -87.393,32.979 -20.801,3.216 -17.713,-4.244 -17.713,-4.244 0,0 4.01,-4.426 1.044,-8.498 -2.964,-4.086 -6.394,-5.956 -12.508,-1.508 -6.12,4.446 -5.727,14.336 -2.07,19.37 2.364,3.261 6.474,10.101 23.502,8.39 31.852,-3.194 70.753,-15.52 101.441,-37.809 30.684,-22.3 54.421,-55.492 67.309,-84.795 6.888,-15.671 1.656,-21.687 -0.716,-24.953 -3.656,-5.022 -12.948,-8.456 -19.057,-4.008 -6.12,4.44 -5.404,8.284 -2.443,12.36 2.968,4.083 8.404,1.635 8.404,1.635 0,0 8.06,-0.629 -1.433,18.154 -13.834,27.388 -32.192,53.908 -58.367,72.927"
     style="fill:#231f20;fill-opacity:1;fill-rule:nonzero;stroke:none"
     id="path35860" />
  <path
     d="m 617.532,331.792 c 16.205,49.875 12.213,87.643 7.109,113.963 -3.101,15.992 -13.341,23.524 -13.341,23.524 0,0 25.625,8.298 55.492,18.02 31.193,10.154 60.368,-16.192 69.469,-42.058 10.182,-28.894 11.721,-80.224 -10.503,-148.611 -22.213,-68.392 -53.633,-109.015 -78.844,-126.407 -22.573,-15.57 -61.666,-19.74 -80.939,6.807 -18.454,25.421 -34.3,47.207 -34.3,47.207 0,0 12.717,0.068 24.625,11.187 19.599,18.287 45.026,46.503 61.232,96.368"
     style="fill:#231f20;fill-opacity:1;fill-rule:nonzero;stroke:none"
     id="path35864" />
  <path
     d="m 598.589,337.947 c 10.005,30.768 9.257,63.026 4.361,93.305 -3.361,20.776 -9.509,15.533 -9.509,15.533 0,0 -2.966,-5.173 -7.761,-3.618 -4.793,1.558 -7.632,4.244 -5.291,11.432 2.336,7.189 11.862,9.877 17.774,7.956 3.835,-1.243 11.609,-3.038 15.249,-19.764 6.802,-31.279 7.101,-72.082 -4.615,-108.155 -11.726,-36.077 -35.956,-68.906 -59.844,-90.221 -12.773,-11.391 -20.116,-8.272 -23.949,-7.029 -5.907,1.924 -12.043,9.698 -9.707,16.884 2.336,7.196 6.211,7.697 11.006,6.142 4.8,-1.558 4.148,-7.484 4.148,-7.484 0,0 1.896,-7.862 16.826,6.976 21.766,21.616 41.318,47.272 51.312,78.043"
     style="fill:#231f20;fill-opacity:1;fill-rule:nonzero;stroke:none"
     id="path35868" />
  <path
     d="m 417.147,366.98 41.12,-56.612 c 8.033,-11.104 10.94,-21.353 10.956,-30.469 0,-7.06 -1.774,-13.461 -4.379,-19.017 -6.413,-13.574 -13.686,-19.018 -35.94,-35.105 -18.298,-13.214 -29.353,-22.667 -32.726,-25.628 -3.372,2.961 -14.432,12.414 -32.724,25.628 -22.251,16.087 -29.526,21.531 -35.933,35.105 -2.62,5.556 -4.395,11.957 -4.395,19.017 0.011,9.107 2.92,19.355 10.969,30.469 l 41.156,56.64 c 5.035,-2.945 10.724,-4.919 16.823,-5.523 v -40.546 c 0,-2.269 1.844,-4.111 4.109,-4.111 2.267,0 4.095,1.842 4.104,4.111 V 361.5 c 6.115,0.604 11.819,2.524 16.86,5.48"
     style="fill:#231f20;fill-opacity:1;fill-rule:nonzero;stroke:none"
     id="path35872" />
  <path
     d="m 368.582,371.804 -41.136,-56.601 c -8.076,-11.072 -16.921,-17.005 -25.592,-19.835 -6.713,-2.184 -13.352,-2.473 -19.44,-1.71 -14.885,1.898 -22.315,7.137 -44.492,23.328 -18.221,13.32 -30.627,20.912 -34.485,23.208 1.774,4.121 7.349,17.561 14.26,39.039 8.429,26.132 11.357,34.735 22.284,45.026 4.478,4.206 10.017,7.87 16.729,10.049 8.665,2.805 19.307,3.209 32.369,-1.015 l 66.584,-21.638 c -1.245,-5.695 -1.363,-11.714 -0.053,-17.702 l -38.564,-12.53 c -2.16,-0.702 -3.336,-3.02 -2.641,-5.178 0.705,-2.156 3.02,-3.326 5.185,-2.636 l 38.569,12.536 c 2.464,-5.632 6.056,-10.461 10.423,-14.341"
     style="fill:#231f20;fill-opacity:1;fill-rule:nonzero;stroke:none"
     id="path35876" />
  <path
     d="m 358.163,419.487 -66.54,21.628 c -13.032,4.26 -21.406,10.841 -26.778,18.208 -4.148,5.713 -6.474,11.934 -7.634,17.964 -2.789,14.746 -0.106,23.426 8.44,49.522 7.04,21.443 10.424,35.596 11.412,39.969 4.468,-0.406 18.975,-1.56 41.542,-1.494 27.453,0.062 36.538,-0.066 49.709,-7.282 5.377,-2.961 10.573,-7.098 14.72,-12.808 5.346,-7.374 9.022,-17.369 9.045,-31.096 l -0.012,-70.013 c -5.797,-0.577 -11.556,-2.325 -16.847,-5.418 l -23.84,32.804 c -1.325,1.833 -3.901,2.242 -5.734,0.909 -1.834,-1.333 -2.23,-3.896 -0.908,-5.74 l 23.842,-32.812 c -4.596,-4.084 -8.076,-8.992 -10.417,-14.341"
     style="fill:#231f20;fill-opacity:1;fill-rule:nonzero;stroke:none"
     id="path35880" />
  <path
     d="m 400.288,444.127 0.011,69.971 c 0.023,13.703 3.7,23.711 9.044,31.086 4.148,5.718 9.349,9.846 14.721,12.817 13.164,7.216 22.251,7.344 49.708,7.281 22.568,-0.074 37.073,1.079 41.543,1.484 0.989,-4.372 4.382,-18.525 11.41,-39.957 8.542,-26.097 11.23,-34.776 8.44,-49.532 -1.153,-6.033 -3.484,-12.252 -7.632,-17.96 -5.362,-7.365 -13.737,-13.942 -26.778,-18.206 l -66.589,-21.632 c -2.342,5.341 -5.784,10.278 -10.359,14.35 l 23.828,32.811 c 1.336,1.831 0.929,4.404 -0.909,5.737 -1.834,1.331 -4.394,0.916 -5.74,-0.912 l -23.834,-32.814 c -5.306,3.106 -11.049,4.9 -16.864,5.476"
     style="fill:#231f20;fill-opacity:1;fill-rule:nonzero;stroke:none"
     id="path35884" />
  <path
     d="m 436.742,411.676 66.551,21.615 c 13.042,4.208 23.686,3.809 32.36,1.005 6.719,-2.183 12.255,-5.849 16.734,-10.044 10.933,-10.289 13.86,-18.891 22.284,-45.023 6.912,-21.487 12.492,-34.925 14.256,-39.049 -3.85,-2.292 -16.267,-9.89 -34.483,-23.202 -22.175,-16.188 -29.604,-21.426 -44.497,-23.328 -6.094,-0.77 -12.727,-0.475 -19.435,1.701 -8.659,2.828 -17.511,8.759 -25.59,19.849 l -41.147,56.643 c 4.352,3.88 7.985,8.676 10.445,14.289 l 38.568,-12.529 c 2.148,-0.7 4.469,0.478 5.175,2.637 0.696,2.159 -0.487,4.464 -2.64,5.177 l -38.581,12.53 c 1.32,6.005 1.252,12.024 0,17.729"
     style="fill:#231f20;fill-opacity:1;fill-rule:nonzero;stroke:none"
     id="path35888" />
  <path
     d="m 429.483,402.812 c 0,18.388 -14.912,33.297 -33.3,33.297 -18.393,0 -33.3,-14.909 -33.3,-33.297 0,-18.389 14.907,-33.297 33.3,-33.297 18.388,0 33.3,14.908 33.3,33.297"
     style="fill:#231f20;fill-opacity:1;fill-rule:nonzero;stroke:none"
     id="path35892" />
</svg>
