<?xml version="1.0" encoding="UTF-8" standalone="no"?>
<!-- Created with Inkscape (http://www.inkscape.org/) -->

<svg
   sodipodi:docname="Gokani Sankaimatsu.svg"
   viewBox="0 0 793.70135 793.70135"
   height="793.70135"
   width="793.70135"
   id="svg45171"
   version="1.1"
   inkscape:version="1.2 (dc2aeda, 2022-05-15)"
   xmlns:inkscape="http://www.inkscape.org/namespaces/inkscape"
   xmlns:sodipodi="http://sodipodi.sourceforge.net/DTD/sodipodi-0.dtd"
   xmlns="http://www.w3.org/2000/svg"
   xmlns:svg="http://www.w3.org/2000/svg">
  <defs
     id="defs45175">
    <clipPath
       clipPathUnits="userSpaceOnUse"
       id="clipPath45586">
      <path
         d="m -133.1104,370.9374 h 595.276 v -841.89 h -595.276 z"
         id="path45588"
         style="stroke-width:0.999998" />
    </clipPath>
    <clipPath
       clipPathUnits="userSpaceOnUse"
       id="clipPath45592">
      <path
         d="m -447.1309,375.4969 h 595.276 v -841.89 h -595.276 z"
         id="path45594"
         style="stroke-width:0.999998" />
    </clipPath>
    <clipPath
       clipPathUnits="userSpaceOnUse"
       id="clipPath45598">
      <path
         d="m -295.1616,353.0516 h 595.276 v -841.89 h -595.276 z"
         id="path45600"
         style="stroke-width:0.999998" />
    </clipPath>
    <clipPath
       clipPathUnits="userSpaceOnUse"
       id="clipPath45604">
      <path
         d="m -389.8457,551.8363 h 595.276 v -841.89 h -595.276 z"
         id="path45606"
         style="stroke-width:0.999998" />
    </clipPath>
    <clipPath
       clipPathUnits="userSpaceOnUse"
       id="clipPath45610">
      <path
         d="m -461.1699,370.9374 h 595.276 v -841.89 h -595.276 z"
         id="path45612"
         style="stroke-width:0.999998" />
    </clipPath>
    <clipPath
       clipPathUnits="userSpaceOnUse"
       id="clipPath45616">
      <path
         d="m -297.1343,251.766 h 595.276 v -841.89 h -595.276 z"
         id="path45618"
         style="stroke-width:0.999998" />
    </clipPath>
    <clipPath
       clipPathUnits="userSpaceOnUse"
       id="clipPath45622">
      <path
         d="m -195.7681,563.7699 h 595.276 v -841.89 h -595.276 z"
         id="path45624"
         style="stroke-width:0.999998" />
    </clipPath>
    <clipPath
       clipPathUnits="userSpaceOnUse"
       id="clipPath45628">
      <path
         d="m -297.1343,266.5223 h 595.276 v -841.89 h -595.276 z"
         id="path45630"
         style="stroke-width:0.999998" />
    </clipPath>
    <clipPath
       clipPathUnits="userSpaceOnUse"
       id="clipPath45634">
      <path
         d="m -147.145,375.4969 h 595.276 v -841.89 h -595.276 z"
         id="path45636"
         style="stroke-width:0.999998" />
    </clipPath>
    <clipPath
       clipPathUnits="userSpaceOnUse"
       id="clipPath45640">
      <path
         d="m -204.4312,551.8363 h 595.276 v -841.89 h -595.276 z"
         id="path45642"
         style="stroke-width:0.999998" />
    </clipPath>
    <clipPath
       clipPathUnits="userSpaceOnUse"
       id="clipPath45646">
      <path
         d="m -398.5166,563.7699 h 595.276 v -841.89 h -595.276 z"
         id="path45648"
         style="stroke-width:0.999998" />
    </clipPath>
  </defs>
  <sodipodi:namedview
     id="namedview45173"
     pagecolor="#ffffff"
     bordercolor="#000000"
     borderopacity="0.25"
     inkscape:showpageshadow="2"
     inkscape:pageopacity="0.0"
     inkscape:pagecheckerboard="0"
     inkscape:deskcolor="#d1d1d1"
     showgrid="false"
     inkscape:zoom="0.21024124"
     inkscape:cx="-1234.2964"
     inkscape:cy="561.26001"
     inkscape:window-width="1419"
     inkscape:window-height="456"
     inkscape:window-x="0"
     inkscape:window-y="25"
     inkscape:window-maximized="0"
     inkscape:current-layer="svg45171">
    <inkscape:page
       x="0"
       y="0"
       id="page45177"
       width="793.70135"
       height="793.70135" />
  </sodipodi:namedview>
  <path
     d="m 396.179,173.688 c 51.816,0 86.082,15.287 109.258,28.117 14.084,7.791 18.023,19.724 18.023,19.724 0,0 15.64,-21.552 33.893,-46.641 19.06,-26.22 3.214,-61.673 -18.322,-78.13 -24.042,-18.391 -71.8,-35.511 -142.852,-35.511 -71.041,0 -118.805,17.12 -142.858,35.511 -21.519,16.457 -37.366,51.91 -18.306,78.13 18.258,25.089 33.876,46.641 33.876,46.641 0,0 3.956,-11.933 18.03,-19.724 23.186,-12.83 57.443,-28.117 109.258,-28.117"
     style="fill:#231f20;fill-opacity:1;fill-rule:nonzero;stroke:none"
     id="path45191" />
  <path
     d="m 396.179,193.363 c 31.969,0 62.052,10.544 89.01,24.395 18.495,9.501 11.707,13.678 11.707,13.678 0,0 -5.773,1.203 -5.773,6.195 0,4.971 1.657,8.459 9.124,8.459 7.478,0 12.897,-8.134 12.897,-14.28 0,-3.979 0.685,-11.834 -13.912,-20.359 -27.32,-15.939 -65.578,-28.687 -103.053,-28.687 -37.464,0 -75.724,12.748 -103.041,28.687 -14.597,8.525 -13.915,16.38 -13.915,20.359 0,6.146 5.431,14.28 12.899,14.28 7.476,0 9.124,-3.488 9.124,-8.459 0,-4.992 -5.761,-6.195 -5.761,-6.195 0,0 -6.806,-4.177 11.693,-13.678 26.945,-13.851 57.042,-24.395 89.001,-24.395"
     style="fill:#231f20;fill-opacity:1;fill-rule:nonzero;stroke:none"
     id="path45195" />
  <path
     d="m 177.481,332.583 c 16.013,-49.276 41.136,-77.142 60.496,-95.217 11.78,-10.992 24.336,-11.053 24.336,-11.053 0,0 -15.672,-21.519 -33.883,-46.638 -19.056,-26.233 -57.673,-22.113 -79.973,-6.73 -24.919,17.19 -55.9625,57.324 -77.9144,124.894 -21.9519,67.573 -20.4279,118.292 -10.38,146.846 9.0013,25.552 37.8213,51.588 68.6464,41.55 29.515,-9.602 54.845,-17.819 54.845,-17.819 0,0 -10.14,-7.424 -13.192,-23.231 -5.05,-26.005 -9,-63.323 7.019,-112.602"
     style="fill:#231f20;fill-opacity:1;fill-rule:nonzero;stroke:none"
     id="path45199" />
  <path
     d="m 196.193,338.663 c 9.884,-30.399 29.2,-55.756 50.697,-77.11 14.748,-14.659 16.624,-6.89 16.624,-6.89 0,0 -0.636,5.854 4.115,7.39 4.736,1.548 8.558,1.045 10.862,-6.058 2.314,-7.106 -3.742,-14.79 -9.601,-16.685 -3.773,-1.229 -11.03,-4.316 -23.645,6.94 -23.615,21.06 -47.539,53.498 -59.143,89.145 -11.582,35.635 -11.278,75.952 -4.549,106.866 3.587,16.515 11.289,18.29 15.057,19.526 5.859,1.898 15.266,-0.755 17.57,-7.864 2.309,-7.092 -0.482,-9.756 -5.234,-11.295 -4.725,-1.533 -7.66,3.565 -7.66,3.565 0,0 -6.082,5.198 -9.396,-15.338 -4.853,-29.921 -5.58,-61.783 4.303,-92.192"
     style="fill:#231f20;fill-opacity:1;fill-rule:nonzero;stroke:none"
     id="path45203" />
  <path
     d="m 261.024,589.693 c -41.932,-30.445 -60.661,-62.967 -71.869,-86.972 -6.811,-14.572 -2.999,-26.549 -2.999,-26.549 0,0 -25.288,8.232 -54.82,17.831 -30.845,9.996 -38.8636,47.995 -31.117,73.95 8.647,29.024 37.205,70.94 94.708,112.701 57.469,41.773 106.184,55.995 136.437,55.257 27.094,-0.674 60.746,-20.024 60.737,-52.461 -0.012,-31.017 0,-57.645 0,-57.645 0,0 -10.189,7.333 -26.176,5.369 -26.276,-3.23 -63.006,-11.041 -104.901,-41.481"
     style="fill:#231f20;fill-opacity:1;fill-rule:nonzero;stroke:none"
     id="path45207" />
  <path
     d="m 272.575,573.782 c -25.855,-18.815 -44.007,-44.989 -57.657,-72.065 -9.401,-18.555 -1.423,-17.935 -1.423,-17.935 0,0 5.372,2.416 8.301,-1.617 2.93,-4.036 3.635,-7.828 -2.416,-12.208 -6.029,-4.393 -15.222,-1.011 -18.814,3.953 -2.368,3.224 -7.525,9.182 -0.721,24.664 12.742,28.956 36.197,61.741 66.513,83.776 30.328,22.025 68.748,34.192 100.219,37.367 16.832,1.682 20.878,-5.068 23.236,-8.287 3.596,-4.981 3.982,-14.749 -2.058,-19.145 -6.035,-4.399 -9.434,-2.544 -12.359,1.492 -2.923,4.026 1.023,8.396 1.023,8.396 0,0 3.057,7.366 -17.484,4.188 -29.959,-4.647 -60.491,-13.792 -86.36,-32.579"
     style="fill:#231f20;fill-opacity:1;fill-rule:nonzero;stroke:none"
     id="path45211" />
  <path
     d="m 531.355,589.693 c -41.925,30.451 -78.637,38.251 -104.913,41.481 -15.997,1.964 -26.184,-5.358 -26.184,-5.358 0,0 0.02,26.617 0.011,57.634 -0.035,32.437 33.641,51.787 60.72,52.451 30.267,0.748 78.971,-13.474 136.442,-55.247 57.48,-41.761 86.07,-83.677 94.704,-112.69 7.76,-25.959 -0.268,-63.965 -31.092,-73.961 -29.544,-9.599 -54.83,-17.831 -54.83,-17.831 0,0 3.811,11.977 -2.998,26.56 -11.209,23.994 -29.943,56.516 -71.86,86.961"
     style="fill:#231f20;fill-opacity:1;fill-rule:nonzero;stroke:none"
     id="path45215" />
  <path
     d="m 519.794,573.782 c -25.88,18.787 -56.401,27.932 -86.36,32.579 -20.541,3.178 -17.509,-4.188 -17.509,-4.188 0,0 3.971,-4.37 1.036,-8.396 -2.915,-4.036 -6.312,-5.891 -12.349,-1.492 -6.05,4.396 -5.664,14.164 -2.042,19.145 2.331,3.219 6.388,9.969 23.22,8.287 31.473,-3.164 69.892,-15.342 100.22,-37.367 30.317,-22.035 53.771,-54.82 66.514,-83.776 6.794,-15.482 1.646,-21.434 -0.721,-24.664 -3.608,-4.964 -12.786,-8.346 -18.814,-3.953 -6.052,4.385 -5.346,8.183 -2.416,12.208 2.928,4.033 8.301,1.617 8.301,1.617 0,0 7.968,-0.62 -1.423,17.935 -13.645,27.076 -31.802,53.25 -57.657,72.065"
     style="fill:#231f20;fill-opacity:1;fill-rule:nonzero;stroke:none"
     id="path45219" />
  <path
     d="m 614.893,332.583 c 16.015,49.284 12.064,86.597 7.013,112.608 -3.052,15.801 -13.186,23.238 -13.186,23.238 0,0 25.324,8.204 54.84,17.806 30.807,10.038 59.645,-15.998 68.646,-41.55 10.048,-28.554 11.572,-79.267 -10.391,-146.834 -21.941,-67.582 -52.985,-107.716 -77.894,-124.906 -22.309,-15.383 -60.927,-19.499 -79.983,6.73 -18.221,25.119 -33.875,46.643 -33.875,46.643 0,0 12.549,0.065 24.33,11.053 19.36,18.07 44.481,45.948 60.5,95.212"
     style="fill:#231f20;fill-opacity:1;fill-rule:nonzero;stroke:none"
     id="path45223" />
  <path
     d="m 596.175,338.663 c 9.884,30.409 9.145,62.276 4.304,92.197 -3.315,20.531 -9.387,15.349 -9.387,15.349 0,0 -2.934,-5.114 -7.68,-3.581 -4.741,1.539 -7.532,4.203 -5.222,11.295 2.309,7.109 11.721,9.765 17.568,7.864 3.785,-1.227 11.472,-3.006 15.057,-19.526 6.729,-30.906 7.035,-71.226 -4.548,-106.861 -11.593,-35.652 -35.528,-68.087 -59.127,-89.15 -12.63,-11.251 -19.887,-8.169 -23.678,-6.94 -5.843,1.895 -11.899,9.579 -9.584,16.685 2.293,7.103 6.136,7.606 10.872,6.063 4.741,-1.536 4.105,-7.392 4.105,-7.392 0,0 1.876,-7.772 16.624,6.893 21.507,21.353 40.813,46.705 50.696,77.104"
     style="fill:#231f20;fill-opacity:1;fill-rule:nonzero;stroke:none"
     id="path45227" />
  <path
     d="m 393.549,308.735 c -2.352,3.867 -7.151,8.307 -16.025,9.488 -1.731,0.228 -3.344,0.337 -4.863,0.337 -12.851,0.006 -17.868,-7.689 -17.981,-7.924 -0.46,-0.734 -0.246,-1.684 0.486,-2.133 0.722,-0.457 1.684,-0.237 2.138,0.487 0.016,-0.004 0.188,0.308 0.721,0.901 0.547,0.595 1.401,1.408 2.608,2.231 2.407,1.646 6.249,3.324 12.028,3.332 1.368,0 2.86,-0.087 4.457,-0.304 8.008,-1.115 11.792,-4.836 13.775,-8.038 l 0.005,0.01 c 0.45,-0.736 1.4,-0.96 2.127,-0.511 0.732,0.447 0.963,1.392 0.524,2.124 m 18.024,4.86 c 0.721,-0.463 1.688,-0.263 2.148,0.456 2.399,3.637 6.772,7.625 15.469,9.071 1.807,0.305 3.502,0.449 5.083,0.489 6.827,0.195 11.417,-1.732 14.363,-3.653 1.454,-0.966 2.501,-1.932 3.176,-2.654 0.662,-0.713 0.897,-1.112 0.906,-1.106 0.467,-0.727 1.435,-0.928 2.146,-0.466 0.721,0.472 0.924,1.424 0.453,2.151 -0.107,0.233 -6.152,9.259 -21.129,8.836 -1.72,-0.051 -3.548,-0.213 -5.495,-0.531 -9.477,-1.537 -14.8,-6.164 -17.565,-10.453 -0.474,-0.719 -0.255,-1.673 0.445,-2.14 m 3.185,-6.984 c 0.742,-0.449 1.695,-0.225 2.132,0.511 l 0.006,-0.01 c 1.985,3.202 5.773,6.923 13.792,8.038 1.586,0.217 3.073,0.304 4.446,0.304 5.778,-0.008 9.616,-1.686 12.026,-3.332 1.214,-0.823 2.069,-1.636 2.598,-2.231 0.54,-0.593 0.722,-0.905 0.738,-0.901 0.449,-0.724 1.41,-0.944 2.133,-0.487 0.732,0.449 0.945,1.399 0.491,2.133 -0.112,0.235 -5.136,7.93 -17.986,7.924 -1.508,0 -3.138,-0.109 -4.869,-0.337 -8.868,-1.181 -13.663,-5.621 -16.015,-9.488 -0.437,-0.732 -0.213,-1.677 0.508,-2.124 m -31.044,18.644 c 16.25,2.045 27.747,15.516 27.747,15.516 0,0 19.804,-11.545 40.045,-0.08 3.063,1.737 5.811,3.823 8.248,6.051 l 6.648,-13.822 c 0,0 0.183,-0.305 1.924,-1.92 1.737,-1.617 5.597,-3.602 9.205,-6.83 3.239,-2.903 5.495,-7.067 -2.4,-10.206 -6.569,-2.617 -15.879,-5.918 -26.581,-8.992 0,0 -4.254,8.042 -16.558,6.372 -12.304,-1.67 -13.364,-11.388 -13.364,-11.388 -3.099,-0.17 -11.438,-0.758 -14.732,-0.758 -3.291,0 -11.635,0.588 -14.73,0.758 0,0 -1.058,9.718 -13.368,11.388 -12.298,1.67 -16.544,-6.372 -16.544,-6.372 -10.71,3.074 -20.021,6.375 -26.596,8.992 -7.878,3.139 -5.634,7.303 -2.394,10.206 3.602,3.228 7.473,5.213 9.209,6.83 1.737,1.615 1.925,1.92 1.925,1.92 l 3.543,7.37 c 0,0 0.46,0.23 0.86,0.464 0.364,0.205 0.668,0.322 0.668,0.322 5.272,-5.474 13.108,-11.914 22.696,-14.666 -11.833,-1.498 -16.516,-8.93 -16.607,-9.144 -0.454,-0.736 -0.218,-1.683 0.508,-2.135 0.727,-0.445 1.683,-0.211 2.127,0.521 0.016,-0.002 0.24,0.403 0.877,1.136 0.658,0.739 1.678,1.735 3.111,2.736 2.887,2.006 7.413,4.058 14.249,4.058 1.583,0 3.271,-0.096 5.094,-0.352 8.728,-1.206 13.22,-5.071 15.709,-8.64 0.492,-0.702 1.455,-0.879 2.16,-0.399 0.695,0.489 0.876,1.451 0.391,2.156 -2.359,3.445 -6.442,7.008 -13.07,8.908 m 43.028,85.01 c -0.106,0.211 -5.794,8.5 -19.658,7.938 -1.594,-0.066 -3.284,-0.246 -5.09,-0.56 -8.745,-1.528 -13.625,-5.875 -16.137,-9.87 -0.421,-0.672 -0.213,-1.557 0.444,-1.974 0.673,-0.422 1.56,-0.224 1.984,0.442 2.175,3.399 6.183,7.131 14.212,8.576 1.667,0.3 3.232,0.451 4.704,0.508 6.317,0.258 10.588,-1.472 13.331,-3.221 1.357,-0.872 2.341,-1.759 2.97,-2.417 0.622,-0.654 0.846,-1.018 0.856,-1.015 0.439,-0.661 1.338,-0.841 1.988,-0.401 0.652,0.437 0.846,1.325 0.396,1.994 m -37.565,-10.693 c 0.673,-0.412 1.561,-0.208 1.967,0.472 l 0.01,-0.008 c 1.834,2.967 5.346,6.409 12.755,7.44 1.473,0.201 2.855,0.287 4.12,0.287 5.352,-0.006 8.899,-1.566 11.143,-3.084 1.124,-0.763 1.916,-1.515 2.408,-2.07 0.49,-0.546 0.662,-0.841 0.673,-0.833 0.416,-0.672 1.309,-0.871 1.977,-0.453 0.668,0.416 0.876,1.304 0.455,1.976 -0.107,0.218 -4.763,7.341 -16.656,7.336 -1.396,0 -2.891,-0.102 -4.5,-0.315 -8.216,-1.088 -12.659,-5.196 -14.828,-8.779 -0.411,-0.68 -0.203,-1.556 0.476,-1.969 m -16.805,8.215 c -2.523,3.997 -7.398,8.336 -16.152,9.858 -1.803,0.318 -3.491,0.492 -5.079,0.55 -13.864,0.56 -19.557,-7.732 -19.659,-7.943 -0.438,-0.669 -0.256,-1.555 0.396,-2 0.656,-0.435 1.55,-0.257 1.988,0.409 0.016,-0.005 0.235,0.356 0.855,1.014 0.627,0.661 1.615,1.546 2.972,2.418 2.737,1.755 7.013,3.484 13.336,3.232 1.465,-0.057 3.025,-0.208 4.699,-0.508 8.028,-1.437 12.037,-5.169 14.217,-8.565 0.423,-0.669 1.309,-0.867 1.988,-0.445 0.657,0.422 0.856,1.308 0.439,1.98 m -38.378,-6.464 c 0.668,-0.418 1.562,-0.219 1.978,0.453 0.016,-0.008 0.176,0.287 0.673,0.833 0.503,0.555 1.295,1.307 2.417,2.07 2.223,1.518 5.778,3.078 11.127,3.084 1.273,0 2.647,-0.086 4.121,-0.287 7.426,-1.031 10.922,-4.473 12.766,-7.44 l 0.004,0.008 c 0.417,-0.68 1.294,-0.884 1.973,-0.472 0.668,0.413 0.881,1.289 0.475,1.969 -2.18,3.583 -6.618,7.691 -14.827,8.779 -1.604,0.213 -3.111,0.315 -4.512,0.315 -11.891,0.005 -16.537,-7.118 -16.644,-7.336 -0.427,-0.672 -0.224,-1.56 0.449,-1.976 m 86.451,-3.27 c 0,0 -3.935,7.45 -15.32,5.903 -11.393,-1.545 -12.379,-10.544 -12.379,-10.544 -2.864,-0.157 -10.582,-0.701 -13.628,-0.701 -3.052,0 -10.776,0.544 -13.648,0.701 0,0 -0.977,8.999 -12.366,10.544 -11.391,1.547 -15.326,-5.903 -15.326,-5.903 -9.914,2.852 -18.535,5.904 -24.618,8.324 -7.303,2.912 -5.217,6.768 -2.224,9.451 3.341,2.995 6.921,4.828 8.531,6.325 1.613,1.495 1.776,1.779 1.776,1.779 l 7.145,14.64 c 17.965,-6.408 35.282,-0.768 35.282,-0.768 0,0 14.063,-18.531 35.994,-18.531 15.554,0 27.11,8.919 32.584,14.463 l 4.736,-9.804 c 0,0 0.166,-0.284 1.774,-1.779 1.615,-1.497 5.195,-3.33 8.531,-6.325 2.993,-2.683 5.077,-6.539 -2.224,-9.451 -6.081,-2.42 -14.704,-5.472 -24.62,-8.324 M 282.244,296.84 c 0,0 7.847,2.816 24.405,13.262 l 1.294,0.841 c 0.716,-0.219 1.46,-0.449 2.208,-0.703 1.918,-0.65 3.812,-1.325 5.67,-2.013 l -11.385,-6.971 c -16.676,-10.261 -22.651,-16.073 -22.651,-16.073 0,0 7.878,2.729 24.555,12.991 l 13.763,8.448 c 2.977,-1.136 5.906,-2.259 8.807,-3.392 l -5.359,-3.228 c -16.698,-10.215 -22.686,-16.01 -22.686,-16.01 0,0 7.875,2.71 24.583,12.926 l 7.744,4.656 c 2.909,-1.134 5.828,-2.246 8.756,-3.318 l -12.71,-8.017 c -16.533,-10.48 -22.434,-16.373 -22.434,-16.373 0,0 7.841,2.838 24.374,13.318 l 15.067,9.523 c 4.549,-1.576 9.225,-3.035 14.165,-4.331 l -13.069,-7.865 c -16.757,-10.14 -22.764,-15.905 -22.764,-15.905 0,0 7.893,2.672 24.64,12.809 l 16.164,9.725 c 4.64,-1.056 9.535,-1.968 14.768,-2.649 l -19.825,-12.568 c -16.511,-10.524 -22.396,-16.435 -22.396,-16.435 0,0 7.83,2.852 24.342,13.386 l 23.656,14.973 c 4.706,-0.451 9.707,-0.729 15.059,-0.795 L 379.416,273.91 c -16.632,-10.348 -22.576,-16.175 -22.576,-16.175 0,0 7.856,2.761 24.49,13.093 l 20.574,12.546 v -11.727 l -6.603,-4.009 c -16.728,-10.18 -22.736,-15.96 -22.736,-15.96 0,0 7.889,2.685 24.613,12.865 l 4.731,2.855 c 0,-3.248 -0.005,-6.139 -0.005,-9.962 -12.418,-8.642 -16.886,-13.368 -16.886,-13.368 0,0 5.49,2.11 16.912,9.21 0.224,-16.705 1.782,-20.145 1.782,-20.145 0,0 1.56,3.44 1.778,20.145 11.427,-7.1 16.923,-9.21 16.923,-9.21 0,0 -4.475,4.726 -16.887,13.368 0,3.823 -0.016,6.714 -0.016,9.962 l 4.738,-2.855 c 16.72,-10.18 24.62,-12.865 24.62,-12.865 0,0 -6.008,5.78 -22.746,15.96 l -6.596,4.009 v 11.727 l 20.564,-12.546 c 16.639,-10.332 24.503,-13.093 24.503,-13.093 0,0 -5.96,5.827 -22.584,16.175 l -21.564,13.142 c 5.341,0.066 10.333,0.344 15.059,0.795 l 23.648,-14.973 c 16.509,-10.534 24.341,-13.386 24.341,-13.386 0,0 -5.882,5.911 -22.391,16.435 l -19.836,12.568 c 5.238,0.681 10.146,1.593 14.784,2.649 l 16.154,-9.725 c 16.75,-10.137 24.65,-12.809 24.65,-12.809 0,0 -6.019,5.765 -22.769,15.905 l -13.069,7.865 c 4.933,1.296 9.605,2.755 14.159,4.331 l 15.074,-9.523 c 16.536,-10.48 24.378,-13.318 24.378,-13.318 0,0 -5.908,5.893 -22.438,16.373 l -12.722,8.017 c 2.946,1.072 5.854,2.184 8.766,3.318 l 7.745,-4.656 c 16.708,-10.216 24.587,-12.926 24.587,-12.926 0,0 -5.986,5.795 -22.695,16.004 l -5.351,3.234 c 2.903,1.133 5.827,2.256 8.794,3.392 l 13.774,-8.448 c 16.671,-10.262 24.56,-12.991 24.56,-12.991 0,0 -5.988,5.812 -22.662,16.071 l -11.386,6.97 c 1.855,0.691 3.752,1.366 5.676,2.016 0.754,0.251 1.487,0.484 2.208,0.7 l 1.292,-0.838 c 16.571,-10.446 24.412,-13.262 24.412,-13.262 0,0 -5.569,5.531 -21.022,15.403 3.373,0.78 6.313,1.135 8.878,1.135 9.006,-0.072 19.178,-9.334 19.178,-9.334 0,0 -8.835,12.955 -18.98,12.955 h -0.198 c -4.714,0 -10.262,-1.048 -16.954,-3.343 -30.142,-10.353 -50.211,-22.992 -92.377,-23.006 -42.17,0.014 -62.235,12.653 -92.38,23.009 -6.687,2.297 -12.235,3.34 -16.955,3.34 -0.064,0.003 -0.129,0.003 -0.197,0.003 -10.14,0 -18.971,-12.958 -18.971,-12.958 0,0 10.172,9.264 19.168,9.334 2.566,0 5.516,-0.355 8.888,-1.135 -15.462,-9.872 -21.021,-15.403 -21.021,-15.403 m 23.133,23.035 c 29.879,-10.089 55.525,-24.629 98.061,-24.629 42.542,0 68.187,14.54 98.06,24.629 36.004,12.163 46.16,-17.804 31.975,-33.533 -14.176,-15.727 -35.91,-17.806 -35.91,-17.806 0,0 -1.506,-13.649 -20.509,-23.741 -19.01,-10.093 -39.525,2.881 -39.525,2.881 0,0 -13.572,-18.397 -34.091,-18.397 -20.521,0.003 -34.09,18.397 -34.09,18.397 0,0 -20.515,-12.971 -39.523,-2.878 -19.017,10.094 -20.52,23.738 -20.52,23.738 0,0 -21.722,2.079 -35.901,17.806 -14.187,15.729 -4.036,45.696 31.973,33.533 m -45.412,77.321 c 0,0 9.424,8.577 17.752,8.643 2.378,0 5.104,-0.331 8.236,-1.052 -14.324,-9.138 -19.477,-14.258 -19.477,-14.258 0,0 7.269,2.607 22.6,12.275 l 1.196,0.784 c 0.668,-0.208 1.353,-0.413 2.053,-0.653 1.774,-0.604 3.528,-1.227 5.25,-1.866 l -10.542,-6.452 c -15.442,-9.501 -20.973,-14.882 -20.973,-14.882 0,0 7.291,2.528 22.732,12.03 l 12.741,7.818 c 2.766,-1.051 5.47,-2.091 8.158,-3.14 l -4.966,-2.991 c -15.457,-9.453 -21.005,-14.819 -21.005,-14.819 0,0 7.296,2.507 22.759,11.963 l 7.173,4.311 c 2.688,-1.048 5.399,-2.074 8.113,-3.07 l -11.769,-7.42 c -15.319,-9.709 -20.771,-15.155 -20.771,-15.155 0,0 7.252,2.617 22.567,12.325 l 13.94,8.816 c 4.222,-1.46 8.552,-2.808 13.116,-4.007 l -12.091,-7.285 c -15.512,-9.392 -21.08,-14.725 -21.08,-14.725 0,0 7.306,2.474 22.812,11.857 l 14.967,9.013 c 4.286,-0.985 8.829,-1.827 13.673,-2.459 l -18.356,-11.634 c -15.281,-9.748 -20.738,-15.217 -20.738,-15.217 0,0 7.258,2.644 22.545,12.39 l 21.893,13.863 c 4.361,-0.415 8.991,-0.675 13.939,-0.735 l -19.968,-12.169 c -15.394,-9.576 -20.899,-14.972 -20.899,-14.972 0,0 7.273,2.552 22.673,12.123 l 19.05,11.611 V 367.2 l -6.115,-3.708 c -15.479,-9.428 -21.048,-14.773 -21.048,-14.773 0,0 7.305,2.487 22.791,11.909 l 4.377,2.64 c 0,-3.005 -0.005,-5.681 -0.005,-9.221 -11.503,-8 -15.639,-12.377 -15.639,-12.377 0,0 5.083,1.953 15.661,8.525 0.214,-15.469 1.656,-18.651 1.656,-18.651 0,0 1.432,3.182 1.647,18.651 10.577,-6.572 15.66,-8.525 15.66,-8.525 0,0 -4.136,4.377 -15.639,12.377 0,3.54 -0.005,6.216 -0.005,9.221 l 4.377,-2.64 c 15.486,-9.422 22.792,-11.909 22.792,-11.909 0,0 -5.56,5.345 -21.049,14.773 l -6.115,3.708 c 0,4.496 0.011,8.178 0.011,10.857 l 19.039,-11.611 c 15.404,-9.571 22.685,-12.123 22.685,-12.123 0,0 -5.519,5.396 -20.911,14.972 l -19.964,12.169 c 4.944,0.06 9.574,0.32 13.946,0.735 l 21.882,-13.863 c 15.294,-9.746 22.547,-12.39 22.547,-12.39 0,0 -5.459,5.469 -20.74,15.217 l -18.353,11.634 c 4.841,0.632 9.385,1.474 13.682,2.459 l 14.955,-9.013 c 15.507,-9.383 22.824,-11.857 22.824,-11.857 0,0 -5.58,5.333 -21.081,14.725 l -12.102,7.285 c 4.566,1.199 8.895,2.547 13.107,4.007 l 13.951,-8.816 c 15.313,-9.708 22.577,-12.325 22.577,-12.325 0,0 -5.463,5.446 -20.776,15.155 l -11.776,7.42 c 2.727,0.996 5.421,2.022 8.115,3.07 l 7.173,-4.311 c 15.468,-9.456 22.758,-11.963 22.758,-11.963 0,0 -5.548,5.366 -21.015,14.815 l -4.944,2.995 c 2.677,1.049 5.381,2.089 8.145,3.14 l 12.748,-7.818 c 15.436,-9.502 22.732,-12.03 22.732,-12.03 0,0 -5.532,5.381 -20.979,14.877 l -10.54,6.453 c 1.72,0.643 3.473,1.266 5.248,1.87 0.712,0.237 1.384,0.445 2.043,0.648 l 1.201,-0.779 c 15.347,-9.668 22.604,-12.275 22.604,-12.275 0,0 -5.152,5.12 -19.467,14.258 3.122,0.721 5.848,1.052 8.227,1.052 8.337,-0.068 17.751,-8.643 17.751,-8.643 0,0 -8.178,11.993 -17.575,11.993 h -0.176 c -4.372,0 -9.499,-0.968 -15.699,-3.09 -27.901,-9.59 -46.49,-21.287 -85.521,-21.304 -39.045,0.017 -57.63,11.714 -85.531,21.306 -6.2,2.123 -11.327,3.088 -15.698,3.088 -0.06,0.003 -0.124,0.003 -0.177,0.003 -9.396,0 -17.575,-11.996 -17.575,-11.996 m 28.159,14.712 c 27.72,-9.361 51.514,-22.856 90.994,-22.856 39.468,0 63.264,13.495 90.984,22.856 33.416,11.289 42.835,-16.528 29.675,-31.113 -13.16,-14.593 -33.322,-16.521 -33.322,-16.521 0,0 -1.4,-12.675 -19.027,-22.036 -17.639,-9.359 -36.678,2.677 -36.678,2.677 0,0 -12.604,-17.071 -31.632,-17.071 -19.045,0 -31.638,17.071 -31.638,17.071 0,0 -19.034,-12.036 -36.677,-2.671 -17.644,9.362 -19.034,22.03 -19.034,22.03 0,0 -20.156,1.928 -33.321,16.521 -13.155,14.585 -3.736,42.402 29.676,31.113 m 165.729,141.464 c -0.279,0.224 -0.627,0.336 -0.963,0.336 -0.458,0 -0.918,-0.196 -1.229,-0.591 l 0.011,-0.005 c -3.362,-4.214 -9.334,-9.066 -19.874,-9.084 -10.25,0.034 -15.678,4.594 -18.717,8.677 -0.492,0.688 -1.476,0.839 -2.183,0.336 -0.694,-0.519 -0.844,-1.497 -0.336,-2.193 3.404,-4.692 9.98,-9.974 21.236,-9.95 11.568,-0.018 18.596,5.526 22.322,10.274 0.534,0.681 0.428,1.676 -0.267,2.2 m -4.265,8.984 c -0.739,0.45 -1.702,0.226 -2.15,-0.518 v -0.01 c -2.009,-3.206 -6.382,-8.263 -15.532,-8.284 -9.504,0.036 -13.268,5.429 -14.872,8.568 -0.265,0.554 -0.828,0.882 -1.409,0.882 -0.237,0 -0.461,-0.049 -0.685,-0.161 -0.771,-0.385 -1.091,-1.321 -0.716,-2.095 1.773,-3.746 6.81,-10.364 17.682,-10.328 10.444,-0.025 15.944,6.03 18.204,9.792 0.45,0.746 0.219,1.711 -0.522,2.154 m -42.63,-43.244 c -0.473,-0.735 -0.26,-1.702 0.446,-2.178 0.726,-0.464 1.701,-0.265 2.169,0.462 2.437,3.666 6.865,7.673 15.651,9.112 1.838,0.298 3.549,0.445 5.137,0.476 6.901,0.172 11.535,-1.798 14.496,-3.748 1.469,-0.971 2.528,-1.955 3.201,-2.687 0.663,-0.727 0.91,-1.128 0.92,-1.117 0.46,-0.732 1.432,-0.954 2.164,-0.476 0.716,0.465 0.936,1.426 0.46,2.168 -0.112,0.237 -6.184,9.37 -21.316,8.993 -1.732,-0.049 -3.586,-0.204 -5.548,-0.524 -9.578,-1.519 -14.966,-6.169 -17.78,-10.481 m 3.691,-10.142 c 0.741,-0.45 1.697,-0.224 2.153,0.514 v -0.006 c 2.011,3.235 5.826,6.992 13.924,8.12 1.614,0.214 3.116,0.304 4.495,0.304 5.843,0 9.717,-1.705 12.156,-3.366 1.224,-0.828 2.084,-1.646 2.623,-2.25 0.55,-0.6 0.728,-0.92 0.744,-0.909 0.449,-0.735 1.421,-0.959 2.158,-0.503 0.728,0.459 0.952,1.422 0.492,2.164 -0.122,0.235 -5.189,8.008 -18.173,7.998 -1.523,0 -3.164,-0.096 -4.905,-0.339 -8.964,-1.197 -13.814,-5.677 -16.186,-9.577 -0.45,-0.738 -0.213,-1.707 0.519,-2.15 m -18.34,9.831 c -2.747,4.349 -8.071,9.087 -17.621,10.732 -1.968,0.347 -3.812,0.529 -5.544,0.599 -15.127,0.589 -21.327,-8.471 -21.446,-8.698 -0.48,-0.737 -0.277,-1.702 0.439,-2.18 0.727,-0.481 1.695,-0.278 2.171,0.448 0.01,-0.01 0.257,0.391 0.93,1.102 0.683,0.726 1.758,1.696 3.239,2.646 2.992,1.914 7.644,3.812 14.539,3.55 1.592,-0.052 3.308,-0.219 5.136,-0.55 8.765,-1.557 13.144,-5.63 15.528,-9.328 0.458,-0.726 1.421,-0.941 2.158,-0.488 0.718,0.467 0.947,1.434 0.471,2.167 m -3.869,34.24 c -0.706,0.503 -1.679,0.352 -2.192,-0.336 -3.026,-4.083 -8.455,-8.643 -18.708,-8.677 -10.54,0.018 -16.511,4.87 -19.867,9.084 l 0.005,0.005 c -0.305,0.395 -0.769,0.591 -1.229,0.591 -0.337,0 -0.68,-0.112 -0.968,-0.336 -0.68,-0.524 -0.796,-1.519 -0.261,-2.2 3.73,-4.748 10.744,-10.292 22.32,-10.274 11.257,-0.024 17.83,5.258 21.241,9.95 0.503,0.696 0.352,1.674 -0.341,2.193 m -4.042,9.792 c -0.218,0.112 -0.46,0.161 -0.689,0.161 -0.572,0 -1.139,-0.328 -1.401,-0.882 -1.608,-3.139 -5.371,-8.532 -14.88,-8.568 -9.156,0.021 -13.514,5.078 -15.527,8.284 v 0.01 c -0.449,0.744 -1.417,0.968 -2.16,0.518 -0.737,-0.443 -0.968,-1.408 -0.508,-2.154 2.261,-3.762 7.745,-9.817 18.195,-9.792 10.877,-0.036 15.913,6.582 17.686,10.328 0.375,0.774 0.054,1.71 -0.716,2.095 m -33.952,-51.959 c 0.723,-0.456 1.69,-0.232 2.155,0.503 0.016,-0.011 0.187,0.309 0.732,0.909 0.54,0.604 1.401,1.422 2.631,2.25 2.437,1.661 6.317,3.366 12.148,3.366 1.385,0 2.892,-0.09 4.506,-0.304 8.082,-1.128 11.908,-4.885 13.918,-8.12 l 0.005,0.006 c 0.449,-0.738 1.412,-0.964 2.155,-0.514 0.726,0.443 0.962,1.412 0.513,2.15 -2.373,3.9 -7.221,8.38 -16.18,9.577 -1.747,0.243 -3.384,0.339 -4.917,0.339 -12.972,0.01 -18.05,-7.763 -18.168,-7.998 -0.46,-0.742 -0.235,-1.705 0.502,-2.164 m 122.863,36.195 c -3.69,-5.211 -6.596,-8.129 -6.596,-8.129 l -0.46,-3.683 c 0,0 7.632,-8.401 10.24,-11.929 2.61,-3.53 3.112,-5.26 -4.863,-8.435 -6.639,-2.647 -16.045,-5.983 -26.858,-9.089 0,0 -4.292,8.128 -16.724,6.442 -12.423,-1.686 -13.494,-11.507 -13.494,-11.507 -3.132,-0.17 -11.554,-0.76 -14.89,-0.76 -3.319,0 -11.75,0.59 -14.875,0.76 0,0 -1.075,9.821 -13.496,11.507 -12.433,1.686 -16.731,-6.442 -16.731,-6.442 -10.818,3.106 -20.214,6.442 -26.853,9.089 -7.965,3.175 -7.466,4.905 -4.864,8.435 2.608,3.528 10.24,11.929 10.24,11.929 l -0.459,3.683 c 0,0 -2.918,2.918 -6.601,8.129 -3.682,5.224 -6.9,9.665 -7.05,11.508 -0.15,1.839 1.069,7.363 1.069,7.363 h 33.758 c 0,0 2.908,-8.746 13.496,-8.746 10.584,0 12.739,8.746 12.739,8.746 h 39.271 c 0,0 2.148,-8.746 12.737,-8.746 10.583,0 13.496,8.746 13.496,8.746 h 33.748 c 0,0 1.23,-5.524 1.081,-7.363 -0.155,-1.843 -3.384,-6.284 -7.061,-11.508 m 37.697,-29.085 h -0.196 c -4.807,0 -10.433,-1.06 -17.239,-3.386 -30.633,-10.535 -51.045,-23.379 -93.907,-23.395 -42.858,0.016 -63.264,12.86 -93.901,23.395 -6.799,2.326 -12.434,3.386 -17.234,3.386 -0.058,0.005 -0.128,0.005 -0.197,0.005 -10.311,0 -19.285,-13.172 -19.285,-13.172 0,0 10.337,9.415 19.482,9.481 2.614,0 5.607,-0.356 9.034,-1.153 -15.714,-10.021 -21.37,-15.648 -21.37,-15.648 0,0 7.975,2.862 24.812,13.484 l 1.315,0.849 c 0.732,-0.218 1.48,-0.448 2.245,-0.71 1.951,-0.672 3.875,-1.352 5.762,-2.048 l -11.567,-7.091 c -16.955,-10.426 -23.025,-16.333 -23.025,-16.333 0,0 8.001,2.776 24.95,13.208 l 13.994,8.579 c 3.029,-1.148 5.996,-2.292 8.957,-3.44 l -5.447,-3.282 c -16.981,-10.385 -23.069,-16.276 -23.069,-16.276 0,0 8.012,2.752 24.988,13.135 l 7.873,4.732 c 2.956,-1.151 5.917,-2.273 8.911,-3.369 l -12.929,-8.148 C 307.152,480.129 301.16,474.14 301.16,474.14 c 0,0 7.971,2.88 24.775,13.539 l 15.318,9.68 c 4.629,-1.604 9.385,-3.08 14.393,-4.399 l -13.281,-7.995 c -17.029,-10.314 -23.138,-16.174 -23.138,-16.174 0,0 8.022,2.714 25.041,13.026 l 16.436,9.888 c 4.72,-1.078 9.696,-2 15.014,-2.694 l -20.156,-12.775 c -16.784,-10.705 -22.764,-16.711 -22.764,-16.711 0,0 7.963,2.902 24.747,13.604 l 24.041,15.216 c 4.79,-0.449 9.879,-0.736 15.304,-0.798 l -21.921,-13.363 c -16.9,-10.509 -22.951,-16.44 -22.951,-16.44 0,0 7.996,2.805 24.896,13.313 l 20.911,12.747 v -11.919 l -6.708,-4.07 C 374.114,457.46 368.01,451.591 368.01,451.591 c 0,0 8.018,2.729 25.015,13.081 l 4.811,2.891 c 0,-3.298 -0.011,-6.896 -0.011,-10.784 -12.62,-8.782 -17.157,-13.592 -17.157,-13.592 0,0 5.576,2.149 17.194,9.368 0.219,-16.99 1.802,-24.136 1.802,-24.136 0,0 1.581,7.146 1.808,24.136 11.625,-7.219 17.205,-9.368 17.205,-9.368 0,0 -4.549,4.81 -17.169,13.592 0,3.888 -0.006,7.486 -0.006,10.784 l 4.8,-2.891 c 17.004,-10.352 25.031,-13.081 25.031,-13.081 0,0 -6.109,5.869 -23.117,16.224 l -6.708,4.07 c 0,4.93 0.005,8.976 0.005,11.919 l 20.911,-12.747 c 16.901,-10.508 24.902,-13.313 24.902,-13.313 0,0 -6.056,5.931 -22.968,16.44 l -21.91,13.363 c 5.433,0.062 10.508,0.349 15.302,0.798 l 24.044,-15.216 c 16.772,-10.702 24.748,-13.604 24.748,-13.604 0,0 -5.988,6.006 -22.77,16.711 l -20.162,12.775 c 5.324,0.694 10.311,1.616 15.031,2.694 l 16.419,-9.888 c 17.025,-10.312 25.058,-13.026 25.058,-13.026 0,0 -6.125,5.86 -23.154,16.174 l -13.278,7.995 c 5.014,1.319 9.76,2.795 14.4,4.399 l 15.313,-9.68 c 16.811,-10.659 24.786,-13.539 24.786,-13.539 0,0 -5.998,5.989 -22.814,16.647 l -12.93,8.148 c 2.998,1.096 5.954,2.218 8.917,3.369 l 7.867,-4.732 c 16.982,-10.383 24.993,-13.135 24.993,-13.135 0,0 -6.099,5.891 -23.073,16.268 l -5.436,3.29 c 2.95,1.148 5.916,2.292 8.948,3.44 l 13.988,-8.579 c 16.954,-10.432 24.965,-13.208 24.965,-13.208 0,0 -6.076,5.907 -23.031,16.328 l -11.578,7.092 c 1.897,0.7 3.817,1.38 5.773,2.052 0.771,0.257 1.507,0.492 2.245,0.705 l 1.314,-0.849 c 16.837,-10.617 24.813,-13.479 24.813,-13.479 0,0 -5.655,5.627 -21.371,15.648 3.434,0.797 6.415,1.153 9.035,1.153 9.144,-0.066 19.481,-9.481 19.481,-9.481 0,0 -8.973,13.167 -19.285,13.167 m -15.612,-49.612 c 0,0 -1.528,-14.117 -20.856,-24.552 -19.328,-10.435 -40.196,-2.143 -40.196,-2.143 0,0 -13.805,-19.024 -34.678,-19.024 -20.858,0 -34.668,19.024 -34.668,19.024 0,0 -20.858,-8.289 -40.195,2.146 -19.328,10.434 -20.866,24.549 -20.866,24.549 0,0 -22.086,2.148 -36.508,18.409 -14.42,16.258 -4.099,47.247 32.525,34.667 30.376,-10.431 56.449,-25.467 99.712,-25.467 43.264,0 69.346,15.031 99.727,25.467 36.626,12.58 46.94,-18.409 32.52,-34.667 -14.42,-16.261 -36.517,-18.409 -36.517,-18.409"
     style="fill:#231f20;fill-opacity:1;fill-rule:nonzero;stroke:none"
     id="path45231" />
</svg>
