<?xml version="1.0" encoding="UTF-8" standalone="no"?>
<!-- Created with Inkscape (http://www.inkscape.org/) -->

<svg
   sodipodi:docname="Gokani Takedabishi.svg"
   viewBox="0 0 793.70135 793.70135"
   height="793.70135"
   width="793.70135"
   id="svg46536"
   version="1.1"
   inkscape:version="1.2 (dc2aeda, 2022-05-15)"
   xmlns:inkscape="http://www.inkscape.org/namespaces/inkscape"
   xmlns:sodipodi="http://sodipodi.sourceforge.net/DTD/sodipodi-0.dtd"
   xmlns="http://www.w3.org/2000/svg"
   xmlns:svg="http://www.w3.org/2000/svg">
  <defs
     id="defs46540">
    <clipPath
       clipPathUnits="userSpaceOnUse"
       id="clipPath47023">
      <path
         d="m -146.6685,420.4422 h 595.276 v -841.89 h -595.276 z"
         id="path47025"
         style="stroke-width:0.999998" />
    </clipPath>
    <clipPath
       clipPathUnits="userSpaceOnUse"
       id="clipPath47029">
      <path
         d="m -302.5703,420.4422 h 595.276 v -841.89 h -595.276 z"
         id="path47031"
         style="stroke-width:0.999998" />
    </clipPath>
    <clipPath
       clipPathUnits="userSpaceOnUse"
       id="clipPath47035">
      <path
         d="m -449.0518,374.9247 h 595.276 v -841.89 h -595.276 z"
         id="path47037"
         style="stroke-width:0.999998" />
    </clipPath>
    <clipPath
       clipPathUnits="userSpaceOnUse"
       id="clipPath47041">
      <path
         d="m -463.2666,370.3065 h 595.276 v -841.89 h -595.276 z"
         id="path47043"
         style="stroke-width:0.999998" />
    </clipPath>
    <clipPath
       clipPathUnits="userSpaceOnUse"
       id="clipPath47047">
      <path
         d="m -391.0283,553.5101 h 595.276 v -841.89 h -595.276 z"
         id="path47049"
         style="stroke-width:0.999998" />
    </clipPath>
    <clipPath
       clipPathUnits="userSpaceOnUse"
       id="clipPath47053">
      <path
         d="m -399.8154,565.6 h 595.276 v -841.89 h -595.276 z"
         id="path47055"
         style="stroke-width:0.999998" />
    </clipPath>
    <clipPath
       clipPathUnits="userSpaceOnUse"
       id="clipPath47059">
      <path
         d="m -203.249,553.5101 h 595.276 v -841.89 h -595.276 z"
         id="path47061"
         style="stroke-width:0.999998" />
    </clipPath>
    <clipPath
       clipPathUnits="userSpaceOnUse"
       id="clipPath47065">
      <path
         d="m -131.0103,370.3065 h 595.276 v -841.89 h -595.276 z"
         id="path47067"
         style="stroke-width:0.999998" />
    </clipPath>
    <clipPath
       clipPathUnits="userSpaceOnUse"
       id="clipPath47071">
      <path
         d="m -297.1348,249.6078 h 595.276 v -841.89 h -595.276 z"
         id="path47073"
         style="stroke-width:0.999998" />
    </clipPath>
    <clipPath
       clipPathUnits="userSpaceOnUse"
       id="clipPath47077">
      <path
         d="m -145.2256,374.9227 h 595.276 v -841.89 h -595.276 z"
         id="path47079"
         style="stroke-width:0.999998" />
    </clipPath>
    <clipPath
       clipPathUnits="userSpaceOnUse"
       id="clipPath47083">
      <path
         d="m -194.4697,565.6 h 595.276 v -841.89 h -595.276 z"
         id="path47085"
         style="stroke-width:0.999998" />
    </clipPath>
    <clipPath
       clipPathUnits="userSpaceOnUse"
       id="clipPath47089">
      <path
         d="m -297.1348,264.5546 h 595.276 v -841.89 h -595.276 z"
         id="path47091"
         style="stroke-width:0.999998" />
    </clipPath>
    <clipPath
       clipPathUnits="userSpaceOnUse"
       id="clipPath47095">
      <path
         d="m -224.6152,367.5526 h 595.276 v -841.89 h -595.276 z"
         id="path47097"
         style="stroke-width:0.999998" />
    </clipPath>
    <clipPath
       clipPathUnits="userSpaceOnUse"
       id="clipPath47101">
      <path
         d="m -224.623,473.3324 h 595.276 v -841.89 h -595.276 z"
         id="path47103"
         style="stroke-width:0.999998" />
    </clipPath>
  </defs>
  <sodipodi:namedview
     id="namedview46538"
     pagecolor="#ffffff"
     bordercolor="#000000"
     borderopacity="0.25"
     inkscape:showpageshadow="2"
     inkscape:pageopacity="0.0"
     inkscape:pagecheckerboard="0"
     inkscape:deskcolor="#d1d1d1"
     showgrid="false"
     inkscape:zoom="0.21024124"
     inkscape:cx="-1234.2964"
     inkscape:cy="561.26001"
     inkscape:window-width="1419"
     inkscape:window-height="456"
     inkscape:window-x="0"
     inkscape:window-y="25"
     inkscape:window-maximized="0"
     inkscape:current-layer="svg46536">
    <inkscape:page
       x="0"
       y="0"
       id="page46542"
       width="793.70135"
       height="793.70135" />
  </sodipodi:namedview>
  <path
     d="m 396.18,172.81 c 52.477,0 87.188,15.483 110.652,28.473 14.272,7.898 18.26,19.98 18.26,19.98 0,0 15.841,-21.824 34.325,-47.24 19.307,-26.55 3.249,-62.462 -18.557,-79.133 -24.342,-18.62 -72.715,-35.958 -144.68,-35.958 -71.956,0 -120.328,17.338 -144.68,35.958 -21.797,16.671 -37.853,52.583 -18.548,79.133 18.483,25.416 34.315,47.24 34.315,47.24 0,0 4.009,-12.082 18.26,-19.98 23.475,-12.99 58.176,-28.473 110.653,-28.473"
     style="fill:#231f20;fill-opacity:1;fill-rule:nonzero;stroke:none"
     id="path46556" />
  <path
     d="m 396.18,192.739 c 32.38,0 62.847,10.675 90.149,24.705 18.729,9.622 11.856,13.851 11.856,13.851 0,0 -5.848,1.221 -5.848,6.271 0,5.04 1.679,8.573 9.236,8.573 7.579,0 13.075,-8.239 13.075,-14.461 0,-4.032 0.694,-11.99 -14.102,-20.622 -27.666,-16.144 -66.406,-29.049 -104.366,-29.049 -37.951,0 -76.692,12.905 -104.357,29.049 -14.795,8.632 -14.089,16.59 -14.089,20.622 0,6.222 5.494,14.461 13.064,14.461 7.568,0 9.236,-3.533 9.236,-8.573 0,-5.05 -5.838,-6.271 -5.838,-6.271 0,0 -6.894,-4.229 11.846,-13.851 27.29,-14.03 57.769,-24.705 90.138,-24.705"
     style="fill:#231f20;fill-opacity:1;fill-rule:nonzero;stroke:none"
     id="path46560" />
  <path
     d="m 174.68,333.742 c 16.217,-49.911 41.66,-78.137 61.276,-96.436 11.918,-11.133 24.64,-11.197 24.64,-11.197 0,0 -15.864,-21.797 -34.315,-47.233 -19.296,-26.571 -58.41,-22.399 -80.998,-6.819 -25.23,17.409 -56.6681,58.052 -78.9041,126.492 -22.2359,68.44 -20.6959,119.805 -10.5079,148.722 9.1079,25.877 38.3025,52.249 69.517,42.085 29.889,-9.724 55.545,-18.044 55.545,-18.044 0,0 -10.262,-7.525 -13.362,-23.533 -5.11,-26.333 -9.108,-64.13 7.109,-114.037"
     style="fill:#231f20;fill-opacity:1;fill-rule:nonzero;stroke:none"
     id="path46564" />
  <path
     d="m 193.634,339.897 c 10.005,-30.788 29.58,-56.472 51.355,-78.096 14.934,-14.849 16.826,-6.982 16.826,-6.982 0,0 -0.641,5.932 4.169,7.493 4.799,1.557 8.659,1.049 11,-6.143 2.342,-7.196 -3.794,-14.978 -9.717,-16.901 -3.828,-1.245 -11.17,-4.367 -23.957,7.032 -23.913,21.327 -48.148,54.184 -59.885,90.284 -11.727,36.097 -11.428,76.926 -4.619,108.234 3.635,16.729 11.428,18.528 15.255,19.776 5.922,1.921 15.458,-0.76 17.789,-7.959 2.34,-7.192 -0.492,-9.885 -5.303,-11.442 -4.778,-1.558 -7.75,3.612 -7.75,3.612 0,0 -6.158,5.258 -9.524,-15.539 -4.908,-30.302 -5.644,-62.576 4.361,-93.369"
     style="fill:#231f20;fill-opacity:1;fill-rule:nonzero;stroke:none"
     id="path46568" />
  <path
     d="m 259.293,594.133 c -42.461,-30.833 -61.436,-63.765 -72.789,-88.081 -6.895,-14.763 -3.036,-26.888 -3.036,-26.888 0,0 -25.624,8.339 -55.513,18.06 -31.2483,10.123 -39.3616,48.606 -31.5256,74.898 8.7656,29.394 37.6936,71.85 95.9216,114.139 58.207,42.301 107.542,56.7 138.18,55.968 27.442,-0.684 61.532,-20.294 61.522,-53.13 -0.011,-31.417 0,-58.387 0,-58.387 0,0 -10.327,7.424 -26.511,5.429 -26.619,-3.276 -63.81,-11.172 -106.249,-42.008"
     style="fill:#231f20;fill-opacity:1;fill-rule:nonzero;stroke:none"
     id="path46572" />
  <path
     d="m 270.999,578.013 c -26.192,-19.033 -44.568,-45.573 -58.4,-72.976 -9.514,-18.792 -1.444,-18.166 -1.444,-18.166 0,0 5.441,2.448 8.403,-1.634 2.972,-4.088 3.688,-7.932 -2.438,-12.366 -6.114,-4.448 -15.414,-1.024 -19.059,4.006 -2.384,3.264 -7.623,9.292 -0.728,24.97 12.903,29.327 36.657,62.541 67.369,84.846 30.702,22.309 69.625,34.643 101.502,37.848 17.041,1.712 21.145,-5.135 23.529,-8.395 3.646,-5.042 4.03,-14.94 -2.085,-19.388 -6.115,-4.448 -9.545,-2.565 -12.517,1.507 -2.962,4.079 1.037,8.503 1.037,8.503 0,0 3.099,7.469 -17.713,4.245 -30.339,-4.697 -61.265,-13.967 -87.456,-33"
     style="fill:#231f20;fill-opacity:1;fill-rule:nonzero;stroke:none"
     id="path46576" />
  <path
     d="m 533.087,594.133 c -42.472,30.847 -79.64,38.732 -106.258,42.008 -16.196,1.995 -26.523,-5.42 -26.523,-5.42 0,0 0.021,26.961 0.011,58.378 -0.034,32.836 34.078,52.446 61.51,53.119 30.648,0.743 79.972,-13.651 138.18,-55.957 58.218,-42.289 87.166,-84.745 95.922,-114.128 7.847,-26.292 -0.277,-64.786 -31.504,-74.909 -29.9,-9.721 -55.525,-18.06 -55.525,-18.06 0,0 3.86,12.125 -3.035,26.899 -11.353,24.305 -30.327,57.237 -72.778,88.07"
     style="fill:#231f20;fill-opacity:1;fill-rule:nonzero;stroke:none"
     id="path46580" />
  <path
     d="m 521.371,578.013 c -26.201,19.033 -57.117,28.303 -87.456,33 -20.813,3.224 -17.734,-4.245 -17.734,-4.245 0,0 4.02,-4.424 1.048,-8.503 -2.962,-4.072 -6.392,-5.955 -12.508,-1.507 -6.126,4.448 -5.74,14.346 -2.074,19.388 2.363,3.26 6.478,10.107 23.519,8.395 31.877,-3.195 70.8,-15.539 101.512,-37.848 30.702,-22.305 54.456,-55.519 67.358,-84.846 6.884,-15.678 1.657,-21.7 -0.727,-24.97 -3.656,-5.03 -12.957,-8.454 -19.061,-4.006 -6.125,4.44 -5.408,8.288 -2.448,12.366 2.962,4.082 8.415,1.634 8.415,1.634 0,0 8.06,-0.626 -1.444,18.166 -13.833,27.416 -32.209,53.943 -58.4,72.976"
     style="fill:#231f20;fill-opacity:1;fill-rule:nonzero;stroke:none"
     id="path46584" />
  <path
     d="m 617.689,333.742 c 16.217,49.912 12.219,87.704 7.109,114.042 -3.1,16.003 -13.353,23.539 -13.353,23.539 0,0 25.647,8.309 55.536,18.033 31.204,10.164 60.409,-16.205 69.517,-42.085 10.188,-28.917 11.727,-80.28 -10.519,-148.713 -22.224,-68.445 -53.663,-109.092 -78.881,-126.498 -22.6,-15.58 -61.714,-19.75 -81.01,6.812 -18.461,25.44 -34.316,47.24 -34.316,47.24 0,0 12.723,0.066 24.641,11.197 19.617,18.296 45.06,46.534 61.276,96.433"
     style="fill:#231f20;fill-opacity:1;fill-rule:nonzero;stroke:none"
     id="path46588" />
  <path
     d="m 598.736,339.9 c 10.005,30.791 9.257,63.069 4.361,93.372 -3.368,20.792 -9.513,15.544 -9.513,15.544 0,0 -2.973,-5.18 -7.772,-3.623 -4.8,1.557 -7.633,4.251 -5.292,11.443 2.341,7.198 11.876,9.885 17.788,7.958 3.839,-1.242 11.621,-3.041 15.255,-19.776 6.81,-31.305 7.109,-72.131 -4.619,-108.229 -11.727,-36.105 -35.971,-68.957 -59.875,-90.286 -12.796,-11.399 -20.139,-8.273 -23.977,-7.035 -5.912,1.926 -12.049,9.708 -9.708,16.902 2.331,7.194 6.212,7.7 11.012,6.145 4.8,-1.561 4.158,-7.489 4.158,-7.489 0,0 1.893,-7.871 16.837,6.981 21.776,21.624 41.338,47.302 51.345,78.093"
     style="fill:#231f20;fill-opacity:1;fill-rule:nonzero;stroke:none"
     id="path46592" />
  <path
     d="m 403.427,400.59 96.693,64.104 96.68,-64.104 -96.692,-64.1 z"
     style="fill:#231f20;fill-opacity:1;fill-rule:nonzero;stroke:none"
     id="path46596" />
  <path
     d="m 299.487,330.07 96.702,64.116 96.682,-64.116 -96.682,-64.101 z"
     style="fill:#231f20;fill-opacity:1;fill-rule:nonzero;stroke:none"
     id="path46600" />
  <path
     d="m 299.497,471.11 96.693,64.107 96.68,-64.107 -96.68,-64.112 z"
     style="fill:#231f20;fill-opacity:1;fill-rule:nonzero;stroke:none"
     id="path46604" />
  <path
     d="m 195.558,400.59 96.692,64.104 96.693,-64.104 -96.693,-64.1 z"
     style="fill:#231f20;fill-opacity:1;fill-rule:nonzero;stroke:none"
     id="path46608" />
</svg>
