<?xml version="1.0" encoding="UTF-8" standalone="no"?>
<!-- Created with Inkscape (http://www.inkscape.org/) -->

<svg
   version="1.1"
   id="svg44667"
   width="793.70135"
   height="793.70135"
   viewBox="0 0 793.70135 793.70135"
   sodipodi:docname="Gokani Sankaibishi.svg"
   inkscape:version="1.2 (dc2aeda, 2022-05-15)"
   xmlns:inkscape="http://www.inkscape.org/namespaces/inkscape"
   xmlns:sodipodi="http://sodipodi.sourceforge.net/DTD/sodipodi-0.dtd"
   xmlns="http://www.w3.org/2000/svg"
   xmlns:svg="http://www.w3.org/2000/svg">
  <defs
     id="defs44671">
    <clipPath
       clipPathUnits="userSpaceOnUse"
       id="clipPath44938">
      <path
         d="m -203.2476,553.5121 h 595.276 v -841.89 h -595.276 z"
         id="path44940"
         style="stroke-width:0.999998" />
    </clipPath>
    <clipPath
       clipPathUnits="userSpaceOnUse"
       id="clipPath44944">
      <path
         d="m -363.0068,425.7894 h 595.276 v -841.89 h -595.276 z"
         id="path44946"
         style="stroke-width:0.999998" />
    </clipPath>
    <clipPath
       clipPathUnits="userSpaceOnUse"
       id="clipPath44950">
      <path
         d="m -399.8154,565.6039 h 595.276 v -841.89 h -595.276 z"
         id="path44952"
         style="stroke-width:0.999998" />
    </clipPath>
    <clipPath
       clipPathUnits="userSpaceOnUse"
       id="clipPath44956">
      <path
         d="m -297.1333,264.5526 h 595.276 v -841.89 h -595.276 z"
         id="path44958"
         style="stroke-width:0.999998" />
    </clipPath>
    <clipPath
       clipPathUnits="userSpaceOnUse"
       id="clipPath44962">
      <path
         d="m -131.0093,370.3046 h 595.276 v -841.89 h -595.276 z"
         id="path44964"
         style="stroke-width:0.999998" />
    </clipPath>
    <clipPath
       clipPathUnits="userSpaceOnUse"
       id="clipPath44968">
      <path
         d="m -463.2666,370.3046 h 595.276 v -841.89 h -595.276 z"
         id="path44970"
         style="stroke-width:0.999998" />
    </clipPath>
    <clipPath
       clipPathUnits="userSpaceOnUse"
       id="clipPath44974">
      <path
         d="m -391.0283,553.5121 h 595.276 v -841.89 h -595.276 z"
         id="path44976"
         style="stroke-width:0.999998" />
    </clipPath>
    <clipPath
       clipPathUnits="userSpaceOnUse"
       id="clipPath44980">
      <path
         d="m -145.2246,374.9208 h 595.276 v -841.89 h -595.276 z"
         id="path44982"
         style="stroke-width:0.999998" />
    </clipPath>
    <clipPath
       clipPathUnits="userSpaceOnUse"
       id="clipPath44986">
      <path
         d="m -194.4683,565.6039 h 595.276 v -841.89 h -595.276 z"
         id="path44988"
         style="stroke-width:0.999998" />
    </clipPath>
    <clipPath
       clipPathUnits="userSpaceOnUse"
       id="clipPath44992">
      <path
         d="m -449.0508,374.9227 h 595.276 v -841.89 h -595.276 z"
         id="path44994"
         style="stroke-width:0.999998" />
    </clipPath>
    <clipPath
       clipPathUnits="userSpaceOnUse"
       id="clipPath44998">
      <path
         d="m -297.1333,249.6058 h 595.276 v -841.89 h -595.276 z"
         id="path45000"
         style="stroke-width:0.999998" />
    </clipPath>
  </defs>
  <sodipodi:namedview
     id="namedview44669"
     pagecolor="#ffffff"
     bordercolor="#000000"
     borderopacity="0.25"
     inkscape:showpageshadow="2"
     inkscape:pageopacity="0.0"
     inkscape:pagecheckerboard="0"
     inkscape:deskcolor="#d1d1d1"
     showgrid="false"
     inkscape:zoom="0.21024124"
     inkscape:cx="-1234.2964"
     inkscape:cy="561.26001"
     inkscape:window-width="1419"
     inkscape:window-height="456"
     inkscape:window-x="0"
     inkscape:window-y="25"
     inkscape:window-maximized="0"
     inkscape:current-layer="svg44667">
    <inkscape:page
       x="0"
       y="0"
       id="page44673"
       width="793.70135"
       height="793.70135" />
  </sodipodi:namedview>
  <path
     d="m 396.176,170.81 c 52.479,0 87.189,15.481 110.655,28.473 14.27,7.898 18.258,19.98 18.258,19.98 0,0 15.843,-21.824 34.326,-47.24 19.306,-26.55 3.25,-62.462 -18.559,-79.133 -24.341,-18.62 -72.713,-35.958 -144.68,-35.958 -71.954,0 -120.326,17.338 -144.679,35.958 -21.796,16.671 -37.854,52.583 -18.547,79.133 18.483,25.416 34.315,47.24 34.315,47.24 0,0 4.009,-12.082 18.26,-19.98 23.474,-12.992 58.174,-28.473 110.651,-28.473"
     style="fill:#231f20;fill-opacity:1;fill-rule:nonzero;stroke:none"
     id="path44687" />
  <path
     d="m 396.176,190.739 c 32.38,0 62.848,10.674 90.151,24.706 18.729,9.621 11.854,13.85 11.854,13.85 0,0 -5.846,1.221 -5.846,6.271 0,5.04 1.677,8.573 9.236,8.573 7.58,0 13.074,-8.24 13.074,-14.461 0,-4.033 0.695,-11.989 -14.1,-20.621 -27.666,-16.146 -66.409,-29.051 -104.369,-29.051 -37.949,0 -76.69,12.905 -104.357,29.051 -14.793,8.632 -14.088,16.588 -14.088,20.621 0,6.221 5.494,14.461 13.063,14.461 7.569,0 9.237,-3.533 9.237,-8.573 0,-5.05 -5.837,-6.271 -5.837,-6.271 0,0 -6.896,-4.229 11.844,-13.85 27.292,-14.032 57.769,-24.706 90.138,-24.706"
     style="fill:#231f20;fill-opacity:1;fill-rule:nonzero;stroke:none"
     id="path44691" />
  <path
     d="m 174.678,331.742 c 16.218,-49.91 41.66,-78.138 61.276,-96.436 11.919,-11.133 24.641,-11.197 24.641,-11.197 0,0 -15.865,-21.798 -34.316,-47.235 -19.296,-26.571 -58.41,-22.399 -80.998,-6.817 -25.229,17.408 -56.6679,58.051 -78.9038,126.493 -22.2346,68.438 -20.696,119.803 -10.508,148.721 9.108,25.877 38.3026,52.249 69.5168,42.085 29.89,-9.724 55.546,-18.044 55.546,-18.044 0,0 -10.262,-7.525 -13.363,-23.533 -5.109,-26.334 -9.108,-64.13 7.109,-114.037"
     style="fill:#231f20;fill-opacity:1;fill-rule:nonzero;stroke:none"
     id="path44695" />
  <path
     d="m 193.633,337.896 c 10.005,-30.788 29.58,-56.47 51.356,-78.097 14.933,-14.848 16.825,-6.98 16.825,-6.98 0,0 -0.641,5.931 4.169,7.491 4.8,1.558 8.659,1.05 11,-6.142 2.342,-7.197 -3.794,-14.978 -9.717,-16.901 -3.827,-1.245 -11.172,-4.367 -23.956,7.032 -23.915,21.327 -48.149,54.185 -59.886,90.284 -11.727,36.097 -11.428,76.926 -4.619,108.234 3.635,16.73 11.428,18.528 15.256,19.776 5.921,1.922 15.457,-0.76 17.788,-7.958 2.341,-7.192 -0.492,-9.886 -5.303,-11.44 -4.777,-1.56 -7.749,3.609 -7.749,3.609 0,0 -6.159,5.259 -9.525,-15.536 -4.907,-30.305 -5.644,-62.579 4.361,-93.372"
     style="fill:#231f20;fill-opacity:1;fill-rule:nonzero;stroke:none"
     id="path44699" />
  <path
     d="m 259.29,592.14 c -42.461,-30.836 -61.436,-63.768 -72.788,-88.084 -6.896,-14.768 -3.037,-26.892 -3.037,-26.892 0,0 -25.623,8.337 -55.513,18.058 -31.2469,10.128 -39.3602,48.612 -31.5242,74.904 8.7652,29.394 37.6932,71.849 95.9212,114.141 58.208,42.299 107.542,56.698 138.181,55.966 27.441,-0.682 61.53,-20.294 61.52,-53.13 -0.01,-31.417 0,-58.388 0,-58.388 0,0 -10.327,7.424 -26.511,5.43 C 338.922,630.869 301.73,622.973 259.29,592.14"
     style="fill:#231f20;fill-opacity:1;fill-rule:nonzero;stroke:none"
     id="path44703" />
  <path
     d="m 270.997,576.017 c -26.191,-19.033 -44.567,-45.571 -58.4,-72.976 -9.515,-18.797 -1.443,-18.172 -1.443,-18.172 0,0 5.441,2.448 8.401,-1.633 2.972,-4.088 3.69,-7.932 -2.436,-12.367 -6.116,-4.448 -15.416,-1.024 -19.061,4.008 -2.384,3.263 -7.621,9.291 -0.726,24.973 12.902,29.328 36.655,62.542 67.369,84.85 30.702,22.309 69.623,34.64 101.501,37.845 17.041,1.712 21.146,-5.135 23.53,-8.395 3.644,-5.042 4.03,-14.94 -2.085,-19.388 -6.115,-4.445 -9.547,-2.565 -12.517,1.507 -2.962,4.079 1.036,8.505 1.036,8.505 0,0 3.1,7.467 -17.714,4.243 -30.338,-4.697 -61.263,-13.967 -87.455,-33"
     style="fill:#231f20;fill-opacity:1;fill-rule:nonzero;stroke:none"
     id="path44707" />
  <path
     d="m 533.085,592.14 c -42.472,30.846 -79.641,38.729 -106.261,42.005 -16.196,1.994 -26.521,-5.42 -26.521,-5.42 0,0 0.021,26.961 0.011,58.378 -0.032,32.836 34.08,52.448 61.512,53.12 30.647,0.742 79.971,-13.652 138.178,-55.956 58.22,-42.292 87.168,-84.747 95.924,-114.127 7.846,-26.295 -0.279,-64.79 -31.504,-74.918 -29.902,-9.721 -55.526,-18.058 -55.526,-18.058 0,0 3.86,12.124 -3.036,26.905 -11.353,24.303 -30.326,57.235 -72.777,88.071"
     style="fill:#231f20;fill-opacity:1;fill-rule:nonzero;stroke:none"
     id="path44711" />
  <path
     d="m 521.369,576.017 c -26.201,19.033 -57.117,28.303 -87.457,33 -20.812,3.224 -17.734,-4.243 -17.734,-4.243 0,0 4.018,-4.426 1.048,-8.505 -2.962,-4.072 -6.394,-5.952 -12.508,-1.507 -6.126,4.448 -5.74,14.346 -2.074,19.388 2.363,3.26 6.479,10.107 23.519,8.395 31.879,-3.195 70.8,-15.536 101.513,-37.845 30.703,-22.308 54.455,-55.522 67.359,-84.85 6.883,-15.682 1.656,-21.705 -0.728,-24.973 -3.655,-5.032 -12.956,-8.456 -19.06,-4.008 -6.126,4.44 -5.408,8.288 -2.448,12.367 2.961,4.081 8.413,1.633 8.413,1.633 0,0 8.061,-0.625 -1.443,18.172 -13.833,27.416 -32.209,53.943 -58.4,72.976"
     style="fill:#231f20;fill-opacity:1;fill-rule:nonzero;stroke:none"
     id="path44715" />
  <path
     d="m 617.688,331.742 c 16.216,49.913 12.218,87.703 7.108,114.042 -3.1,16.003 -13.352,23.539 -13.352,23.539 0,0 25.646,8.309 55.536,18.033 31.204,10.164 60.409,-16.205 69.517,-42.085 10.188,-28.918 11.726,-80.28 -10.519,-148.713 -22.225,-68.447 -53.664,-109.093 -78.882,-126.499 -22.6,-15.581 -61.713,-19.749 -81.009,6.812 -18.463,25.44 -34.316,47.24 -34.316,47.24 0,0 12.722,0.067 24.641,11.197 19.616,18.296 45.058,46.535 61.276,96.434"
     style="fill:#231f20;fill-opacity:1;fill-rule:nonzero;stroke:none"
     id="path44719" />
  <path
     d="m 598.733,337.899 c 10.007,30.79 9.257,63.069 4.361,93.374 -3.366,20.79 -9.513,15.542 -9.513,15.542 0,0 -2.972,-5.18 -7.77,-3.62 -4.802,1.554 -7.634,4.248 -5.292,11.44 2.341,7.198 11.876,9.885 17.788,7.958 3.837,-1.242 11.619,-3.041 15.254,-19.776 6.809,-31.305 7.108,-72.132 -4.619,-108.229 -11.726,-36.104 -35.971,-68.957 -59.874,-90.286 -12.797,-11.399 -20.14,-8.275 -23.977,-7.035 -5.912,1.925 -12.05,9.707 -9.708,16.901 2.33,7.195 6.212,7.7 11.01,6.144 4.802,-1.56 4.159,-7.488 4.159,-7.488 0,0 1.892,-7.87 16.837,6.982 21.776,21.625 41.339,47.302 51.344,78.093"
     style="fill:#231f20;fill-opacity:1;fill-rule:nonzero;stroke:none"
     id="path44723" />
  <path
     d="m 484.008,405.72 71.965,42.584 -158.23,93.596 -161.35,-95.451 71.762,-42.45 -49.121,-29.062 74.109,-43.834 -33.032,-19.543 95.131,-56.273 97.014,57.385 -33.413,19.776 74.489,44.079 z"
     style="fill:#231f20;fill-opacity:1;fill-rule:nonzero;stroke:none"
     id="path44727" />
</svg>
