<?xml version="1.0" encoding="UTF-8" standalone="no"?>
<!-- Created with Inkscape (http://www.inkscape.org/) -->

<svg
   version="1.1"
   id="svg50223"
   width="793.70135"
   height="793.70135"
   viewBox="0 0 793.70135 793.70135"
   sodipodi:docname="Gokani Yotsume.svg"
   inkscape:version="1.2 (dc2aeda, 2022-05-15)"
   xmlns:inkscape="http://www.inkscape.org/namespaces/inkscape"
   xmlns:sodipodi="http://sodipodi.sourceforge.net/DTD/sodipodi-0.dtd"
   xmlns="http://www.w3.org/2000/svg"
   xmlns:svg="http://www.w3.org/2000/svg">
  <defs
     id="defs50227">
    <clipPath
       clipPathUnits="userSpaceOnUse"
       id="clipPath50760">
      <path
         d="m -297.1343,249.6083 h 595.276 v -841.89 h -595.276 z"
         id="path50762"
         style="stroke-width:0.999998" />
    </clipPath>
    <clipPath
       clipPathUnits="userSpaceOnUse"
       id="clipPath50766">
      <path
         d="m -131.0098,370.305 h 595.276 v -841.89 h -595.276 z"
         id="path50768"
         style="stroke-width:0.999998" />
    </clipPath>
    <clipPath
       clipPathUnits="userSpaceOnUse"
       id="clipPath50772">
      <path
         d="m -399.8145,565.6058 h 595.276 v -841.89 h -595.276 z"
         id="path50774"
         style="stroke-width:0.999998" />
    </clipPath>
    <clipPath
       clipPathUnits="userSpaceOnUse"
       id="clipPath50778">
      <path
         d="m -463.2656,370.305 h 595.276 v -841.89 h -595.276 z"
         id="path50780"
         style="stroke-width:0.999998" />
    </clipPath>
    <clipPath
       clipPathUnits="userSpaceOnUse"
       id="clipPath50784">
      <path
         d="m -391.0273,553.515 h 595.276 v -841.89 h -595.276 z"
         id="path50786"
         style="stroke-width:0.999998" />
    </clipPath>
    <clipPath
       clipPathUnits="userSpaceOnUse"
       id="clipPath50790">
      <path
         d="m -354.2344,420.4515 h 595.276 v -841.89 h -595.276 z"
         id="path50792"
         style="stroke-width:0.999998" />
    </clipPath>
    <clipPath
       clipPathUnits="userSpaceOnUse"
       id="clipPath50796">
      <path
         d="m -449.0508,374.9232 h 595.276 v -841.89 h -595.276 z"
         id="path50798"
         style="stroke-width:0.999998" />
    </clipPath>
    <clipPath
       clipPathUnits="userSpaceOnUse"
       id="clipPath50802">
      <path
         d="m -297.1343,264.5531 h 595.276 v -841.89 h -595.276 z"
         id="path50804"
         style="stroke-width:0.999998" />
    </clipPath>
    <clipPath
       clipPathUnits="userSpaceOnUse"
       id="clipPath50808">
      <path
         d="m -145.2246,374.9232 h 595.276 v -841.89 h -595.276 z"
         id="path50810"
         style="stroke-width:0.999998" />
    </clipPath>
    <clipPath
       clipPathUnits="userSpaceOnUse"
       id="clipPath50814">
      <path
         d="m -203.2476,553.515 h 595.276 v -841.89 h -595.276 z"
         id="path50816"
         style="stroke-width:0.999998" />
    </clipPath>
    <clipPath
       clipPathUnits="userSpaceOnUse"
       id="clipPath50820">
      <path
         d="m -194.4683,565.6058 h 595.276 v -841.89 h -595.276 z"
         id="path50822"
         style="stroke-width:0.999998" />
    </clipPath>
  </defs>
  <sodipodi:namedview
     id="namedview50225"
     pagecolor="#ffffff"
     bordercolor="#000000"
     borderopacity="0.25"
     inkscape:showpageshadow="2"
     inkscape:pageopacity="0.0"
     inkscape:pagecheckerboard="0"
     inkscape:deskcolor="#d1d1d1"
     showgrid="false"
     inkscape:zoom="0.21024124"
     inkscape:cx="-1234.2964"
     inkscape:cy="561.26001"
     inkscape:window-width="1419"
     inkscape:window-height="456"
     inkscape:window-x="0"
     inkscape:window-y="25"
     inkscape:window-maximized="0"
     inkscape:current-layer="svg50223">
    <inkscape:page
       x="0"
       y="0"
       id="page50229"
       width="793.70135"
       height="793.70135" />
  </sodipodi:namedview>
  <path
     d="m 396.179,170.811 c 52.477,0 87.188,15.479 110.652,28.473 14.273,7.895 18.26,19.98 18.26,19.98 0,0 15.841,-21.824 34.325,-47.24 19.308,-26.553 3.251,-62.462 -18.557,-79.133 C 516.517,74.269 468.143,56.93 396.179,56.93 c -71.956,0 -120.328,17.339 -144.681,35.961 -21.796,16.671 -37.852,52.58 -18.547,79.133 18.483,25.416 34.315,47.24 34.315,47.24 0,0 4.009,-12.085 18.26,-19.98 23.475,-12.994 58.176,-28.473 110.653,-28.473"
     style="fill:#231f20;fill-opacity:1;fill-rule:nonzero;stroke:none"
     id="path50243" />
  <path
     d="m 396.179,190.737 c 32.381,0 62.847,10.675 90.149,24.705 18.729,9.622 11.853,13.854 11.853,13.854 0,0 -5.845,1.218 -5.845,6.27 0,5.04 1.676,8.574 9.236,8.574 7.579,0 13.073,-8.243 13.073,-14.464 0,-4.03 0.696,-11.99 -14.098,-20.622 -27.667,-16.141 -66.409,-29.05 -104.368,-29.05 -37.951,0 -76.692,12.909 -104.357,29.05 -14.795,8.632 -14.089,16.592 -14.089,20.622 0,6.221 5.494,14.464 13.062,14.464 7.57,0 9.238,-3.534 9.238,-8.574 0,-5.052 -5.838,-6.27 -5.838,-6.27 0,0 -6.894,-4.232 11.846,-13.854 27.29,-14.03 57.769,-24.705 90.138,-24.705"
     style="fill:#231f20;fill-opacity:1;fill-rule:nonzero;stroke:none"
     id="path50247" />
  <path
     d="m 174.68,331.74 c 16.217,-49.907 41.659,-78.134 61.276,-96.436 11.918,-11.133 24.64,-11.197 24.64,-11.197 0,0 -15.864,-21.797 -34.315,-47.235 -19.296,-26.57 -58.41,-22.396 -80.998,-6.814 -25.23,17.409 -56.6695,58.052 -78.9041,126.49 C 44.143,364.987 45.683,416.352 55.871,445.269 c 9.1079,25.881 38.3025,52.253 69.517,42.087 29.889,-9.723 55.545,-18.044 55.545,-18.044 0,0 -10.262,-7.527 -13.362,-23.535 -5.11,-26.331 -9.108,-64.129 7.109,-114.037"
     style="fill:#231f20;fill-opacity:1;fill-rule:nonzero;stroke:none"
     id="path50251" />
  <path
     d="m 193.633,337.898 c 10.005,-30.788 29.58,-56.471 51.356,-78.096 14.933,-14.849 16.825,-6.981 16.825,-6.981 0,0 -0.641,5.928 4.169,7.488 4.8,1.561 8.659,1.053 11,-6.141 2.342,-7.194 -3.794,-14.976 -9.717,-16.902 -3.827,-1.245 -11.17,-4.366 -23.956,7.035 -23.913,21.327 -48.149,54.182 -59.886,90.284 -11.727,36.094 -11.428,76.925 -4.618,108.23 3.635,16.731 11.428,18.533 15.255,19.777 5.923,1.926 15.457,-0.758 17.788,-7.957 2.341,-7.191 -0.492,-9.884 -5.301,-11.439 -4.779,-1.561 -7.751,3.608 -7.751,3.608 0,0 -6.159,5.259 -9.525,-15.538 -4.907,-30.301 -5.644,-62.575 4.361,-93.368"
     style="fill:#231f20;fill-opacity:1;fill-rule:nonzero;stroke:none"
     id="path50255" />
  <path
     d="m 259.291,592.141 c -42.46,-30.841 -61.436,-63.767 -72.788,-88.086 -6.896,-14.764 -3.036,-26.891 -3.036,-26.891 0,0 -25.624,8.339 -55.513,18.06 -31.2479,10.124 -39.3612,48.609 -31.5253,74.905 8.7653,29.388 37.6933,71.849 95.9213,114.14 58.208,42.3 107.542,56.698 138.181,55.961 27.441,-0.683 61.532,-20.289 61.52,-53.129 -0.01,-31.419 0,-58.389 0,-58.389 0,0 -10.326,7.429 -26.51,5.43 -26.618,-3.27 -63.81,-11.17 -106.25,-42.001"
     style="fill:#231f20;fill-opacity:1;fill-rule:nonzero;stroke:none"
     id="path50259" />
  <path
     d="m 270.997,576.02 c -26.191,-19.039 -44.567,-45.572 -58.4,-72.98 -9.513,-18.794 -1.443,-18.168 -1.443,-18.168 0,0 5.442,2.448 8.403,-1.637 2.972,-4.088 3.688,-7.931 -2.437,-12.361 -6.115,-4.454 -15.416,-1.028 -19.061,4.002 -2.383,3.266 -7.622,9.295 -0.727,24.978 12.904,29.322 36.657,62.535 67.369,84.847 30.703,22.31 69.624,34.635 101.502,37.843 17.04,1.711 21.146,-5.132 23.53,-8.392 3.645,-5.047 4.029,-14.944 -2.086,-19.392 -6.114,-4.447 -9.546,-2.565 -12.517,1.508 -2.961,4.083 1.036,8.508 1.036,8.508 0,0 3.1,7.463 -17.713,4.244 -30.339,-4.703 -61.264,-13.972 -87.456,-33"
     style="fill:#231f20;fill-opacity:1;fill-rule:nonzero;stroke:none"
     id="path50263" />
  <path
     d="m 533.086,592.141 c -42.472,30.841 -79.64,38.731 -106.257,42.001 -16.199,1.999 -26.524,-5.42 -26.524,-5.42 0,0 0.021,26.96 0.011,58.379 -0.032,32.84 34.08,52.446 61.51,53.12 30.648,0.746 79.973,-13.652 138.181,-55.952 58.217,-42.291 87.167,-84.752 95.923,-114.128 7.846,-26.299 -0.279,-64.793 -31.506,-74.917 -29.898,-9.721 -55.524,-18.06 -55.524,-18.06 0,0 3.86,12.127 -3.036,26.901 -11.351,24.309 -30.327,57.235 -72.778,88.076"
     style="fill:#231f20;fill-opacity:1;fill-rule:nonzero;stroke:none"
     id="path50267" />
  <path
     d="m 521.37,576.02 c -26.2,19.028 -57.117,28.297 -87.456,33 -20.812,3.219 -17.734,-4.244 -17.734,-4.244 0,0 4.018,-4.425 1.048,-8.508 -2.962,-4.073 -6.394,-5.955 -12.508,-1.508 -6.126,4.448 -5.74,14.345 -2.074,19.392 2.363,3.26 6.479,10.103 23.519,8.392 31.877,-3.197 70.798,-15.533 101.512,-37.843 30.704,-22.312 54.456,-55.525 67.359,-84.847 6.883,-15.683 1.656,-21.706 -0.726,-24.978 -3.656,-5.03 -12.959,-8.456 -19.063,-4.002 -6.125,4.436 -5.408,8.284 -2.448,12.361 2.962,4.085 8.415,1.637 8.415,1.637 0,0 8.06,-0.626 -1.443,18.168 -13.833,27.419 -32.21,53.941 -58.401,72.98"
     style="fill:#231f20;fill-opacity:1;fill-rule:nonzero;stroke:none"
     id="path50271" />
  <path
     d="m 617.687,331.74 c 16.219,49.913 12.219,87.706 7.109,114.042 -3.098,16.003 -13.352,23.54 -13.352,23.54 0,0 25.647,8.311 55.535,18.034 31.205,10.166 60.41,-16.206 69.517,-42.087 10.188,-28.917 11.727,-80.278 -10.517,-148.71 -22.224,-68.449 -53.664,-109.092 -78.883,-126.501 -22.6,-15.582 -61.714,-19.75 -81.01,6.814 -18.461,25.438 -34.316,47.24 -34.316,47.24 0,0 12.723,0.064 24.641,11.198 19.617,18.296 45.06,46.534 61.276,96.43"
     style="fill:#231f20;fill-opacity:1;fill-rule:nonzero;stroke:none"
     id="path50275" />
  <path
     d="m 598.734,337.898 c 10.005,30.793 9.257,63.072 4.361,93.373 -3.366,20.792 -9.514,15.544 -9.514,15.544 0,0 -2.972,-5.18 -7.771,-3.619 -4.8,1.555 -7.633,4.248 -5.292,11.439 2.341,7.199 11.877,9.888 17.789,7.957 3.839,-1.238 11.62,-3.041 15.255,-19.777 6.811,-31.3 7.109,-72.13 -4.62,-108.225 -11.727,-36.107 -35.971,-68.957 -59.875,-90.289 -12.794,-11.396 -20.139,-8.275 -23.975,-7.035 -5.912,1.926 -12.051,9.708 -9.71,16.902 2.331,7.194 6.212,7.702 11.014,6.146 4.8,-1.56 4.156,-7.488 4.156,-7.488 0,0 1.893,-7.873 16.838,6.982 21.776,21.625 41.339,47.302 51.344,78.09"
     style="fill:#231f20;fill-opacity:1;fill-rule:nonzero;stroke:none"
     id="path50279" />
  <path
     d="m 472.313,398.602 13.781,-13.78 13.763,13.768 -13.773,13.785 z m 13.776,-83.094 -83.088,83.089 83.069,83.089 83.097,-83.096 z m -193.582,83.089 13.774,-13.78 13.768,13.773 -13.774,13.775 z m 13.78,-83.105 -83.105,83.098 83.093,83.09 83.085,-83.101 z m 103.666,173.014 -13.768,13.762 -13.785,-13.773 13.78,-13.769 z m -96.868,-0.016 83.095,83.088 83.078,-83.088 -83.085,-83.084 z m 83.095,-193.572 13.778,13.774 -13.767,13.77 -13.78,-13.776 z m 83.094,13.774 -83.094,-83.094 -83.085,83.084 83.09,83.088 z"
     style="fill:#231f20;fill-opacity:1;fill-rule:nonzero;stroke:none"
     id="path50283" />
</svg>
