<?xml version="1.0" encoding="UTF-8" standalone="no"?>
<!-- Created with Inkscape (http://www.inkscape.org/) -->

<svg
   sodipodi:docname="Gokani Mitsudomoe.svg"
   viewBox="0 0 793.70135 793.70135"
   height="793.70135"
   width="793.70135"
   id="svg39188"
   version="1.1"
   inkscape:version="1.2 (dc2aeda, 2022-05-15)"
   xmlns:inkscape="http://www.inkscape.org/namespaces/inkscape"
   xmlns:sodipodi="http://sodipodi.sourceforge.net/DTD/sodipodi-0.dtd"
   xmlns="http://www.w3.org/2000/svg"
   xmlns:svg="http://www.w3.org/2000/svg">
  <defs
     id="defs39192">
    <clipPath
       clipPathUnits="userSpaceOnUse"
       id="clipPath39651">
      <path
         d="m -362.9414,538.3265 h 595.276 v -841.89 h -595.276 z"
         id="path39653"
         style="stroke-width:0.999998" />
    </clipPath>
    <clipPath
       clipPathUnits="userSpaceOnUse"
       id="clipPath39657">
      <path
         d="m -165.8745,424.5726 h 595.276 v -841.89 h -595.276 z"
         id="path39659"
         style="stroke-width:0.999998" />
    </clipPath>
    <clipPath
       clipPathUnits="userSpaceOnUse"
       id="clipPath39663">
      <path
         d="m -362.9219,310.7655 h 595.276 v -841.89 h -595.276 z"
         id="path39665"
         style="stroke-width:0.999998" />
    </clipPath>
    <clipPath
       clipPathUnits="userSpaceOnUse"
       id="clipPath39669">
      <path
         d="m -204.2422,552.0921 h 595.276 v -841.89 h -595.276 z"
         id="path39671"
         style="stroke-width:0.999998" />
    </clipPath>
    <clipPath
       clipPathUnits="userSpaceOnUse"
       id="clipPath39675">
      <path
         d="m -195.5674,564.0589 h 595.276 v -841.89 h -595.276 z"
         id="path39677"
         style="stroke-width:0.999998" />
    </clipPath>
    <clipPath
       clipPathUnits="userSpaceOnUse"
       id="clipPath39681">
      <path
         d="m -398.7168,564.0589 h 595.276 v -841.89 h -595.276 z"
         id="path39683"
         style="stroke-width:0.999998" />
    </clipPath>
    <clipPath
       clipPathUnits="userSpaceOnUse"
       id="clipPath39687">
      <path
         d="m -297.1338,251.4256 h 595.276 v -841.89 h -595.276 z"
         id="path39689"
         style="stroke-width:0.999998" />
    </clipPath>
    <clipPath
       clipPathUnits="userSpaceOnUse"
       id="clipPath39693">
      <path
         d="m -390.0332,552.0921 h 595.276 v -841.89 h -595.276 z"
         id="path39695"
         style="stroke-width:0.999998" />
    </clipPath>
    <clipPath
       clipPathUnits="userSpaceOnUse"
       id="clipPath39699">
      <path
         d="m -447.4316,375.4076 h 595.276 v -841.89 h -595.276 z"
         id="path39701"
         style="stroke-width:0.999998" />
    </clipPath>
    <clipPath
       clipPathUnits="userSpaceOnUse"
       id="clipPath39705">
      <path
         d="m -461.502,370.8373 h 595.276 v -841.89 h -595.276 z"
         id="path39707"
         style="stroke-width:0.999998" />
    </clipPath>
    <clipPath
       clipPathUnits="userSpaceOnUse"
       id="clipPath39711">
      <path
         d="m -132.7817,370.8373 h 595.276 v -841.89 h -595.276 z"
         id="path39713"
         style="stroke-width:0.999998" />
    </clipPath>
    <clipPath
       clipPathUnits="userSpaceOnUse"
       id="clipPath39717">
      <path
         d="m -297.1338,266.2142 h 595.276 v -841.89 h -595.276 z"
         id="path39719"
         style="stroke-width:0.999998" />
    </clipPath>
    <clipPath
       clipPathUnits="userSpaceOnUse"
       id="clipPath39723">
      <path
         d="m -146.8447,375.4076 h 595.276 v -841.89 h -595.276 z"
         id="path39725"
         style="stroke-width:0.999998" />
    </clipPath>
  </defs>
  <sodipodi:namedview
     id="namedview39190"
     pagecolor="#ffffff"
     bordercolor="#000000"
     borderopacity="0.25"
     inkscape:showpageshadow="2"
     inkscape:pageopacity="0.0"
     inkscape:pagecheckerboard="0"
     inkscape:deskcolor="#d1d1d1"
     showgrid="false"
     inkscape:zoom="0.21024124"
     inkscape:cx="-1234.2964"
     inkscape:cy="561.26001"
     inkscape:window-width="1419"
     inkscape:window-height="456"
     inkscape:window-x="0"
     inkscape:window-y="25"
     inkscape:window-maximized="0"
     inkscape:current-layer="svg39188">
    <inkscape:page
       x="0"
       y="0"
       id="page39194"
       width="793.70135"
       height="793.70135" />
  </sodipodi:namedview>
  <path
     d="m 396.178,173.234 c 51.92,0 86.253,15.319 109.477,28.173 14.115,7.81 18.065,19.767 18.065,19.767 0,0 15.667,-21.595 33.964,-46.735 19.091,-26.273 3.211,-61.797 -18.368,-78.291 -24.088,-18.424 -71.942,-35.58 -143.138,-35.58 -71.185,0 -119.038,17.156 -143.145,35.58 -21.563,16.494 -37.441,52.018 -18.349,78.291 18.3,25.14 33.952,46.735 33.952,46.735 0,0 3.96,-11.957 18.066,-19.767 23.234,-12.854 57.555,-28.173 109.476,-28.173"
     style="fill:#231f20;fill-opacity:1;fill-rule:nonzero;stroke:none"
     id="path39208" />
  <path
     d="m 396.178,192.952 c 32.032,0 62.173,10.564 89.186,24.443 18.531,9.52 11.734,13.706 11.734,13.706 0,0 -5.788,1.204 -5.788,6.204 0,4.984 1.661,8.478 9.145,8.478 7.492,0 12.924,-8.15 12.924,-14.307 0,-3.991 0.688,-11.857 -13.94,-20.399 -27.377,-15.974 -65.708,-28.749 -103.261,-28.749 -37.543,0 -75.872,12.775 -103.25,28.749 -14.628,8.542 -13.94,16.408 -13.94,20.399 0,6.157 5.437,14.307 12.925,14.307 7.488,0 9.145,-3.494 9.145,-8.478 0,-5 -5.778,-6.204 -5.778,-6.204 0,0 -6.82,-4.186 11.721,-13.706 26.993,-13.879 57.154,-24.443 89.177,-24.443"
     style="fill:#231f20;fill-opacity:1;fill-rule:nonzero;stroke:none"
     id="path39212" />
  <path
     d="m 177.042,332.45 c 16.045,-49.372 41.216,-77.297 60.612,-95.406 11.802,-11.014 24.389,-11.078 24.389,-11.078 0,0 -15.708,-21.562 -33.95,-46.732 C 208.994,152.95 170.307,157.08 147.959,172.492 122.987,189.72 91.8849,229.929 69.8849,297.638 47.8957,365.346 49.413,416.166 59.489,444.775 c 9.0173,25.605 37.9012,51.696 68.78,41.636 29.574,-9.619 54.952,-17.856 54.952,-17.856 0,0 -10.155,-7.437 -13.212,-23.277 -5.063,-26.058 -9.023,-63.451 7.033,-112.828"
     style="fill:#231f20;fill-opacity:1;fill-rule:nonzero;stroke:none"
     id="path39216" />
  <path
     d="m 195.793,338.543 c 9.899,-30.463 29.253,-55.869 50.8,-77.265 14.773,-14.688 16.654,-6.903 16.654,-6.903 0,0 -0.642,5.863 4.122,7.403 4.75,1.549 8.577,1.049 10.888,-6.069 2.318,-7.123 -3.754,-14.823 -9.622,-16.72 -3.785,-1.232 -11.058,-4.327 -23.689,6.954 -23.668,21.102 -47.636,53.608 -59.266,89.325 -11.61,35.706 -11.304,76.105 -4.559,107.08 3.597,16.549 11.311,18.329 15.089,19.563 5.868,1.905 15.298,-0.754 17.607,-7.879 2.309,-7.107 -0.487,-9.773 -5.249,-11.312 -4.731,-1.539 -7.671,3.568 -7.671,3.568 0,0 -6.099,5.211 -9.412,-15.371 -4.864,-29.982 -5.591,-61.907 4.308,-92.374"
     style="fill:#231f20;fill-opacity:1;fill-rule:nonzero;stroke:none"
     id="path39220" />
  <path
     d="m 260.757,590.079 c -42.023,-30.505 -60.789,-63.099 -72.018,-87.148 -6.827,-14.602 -3.004,-26.602 -3.004,-26.602 0,0 -25.336,8.249 -54.926,17.868 -30.9156,10.014 -38.9449,48.091 -31.1889,74.095 8.6649,29.083 37.2809,71.079 94.9009,112.925 57.588,41.856 106.399,56.112 136.716,55.375 27.148,-0.68 60.864,-20.072 60.853,-52.569 -0.011,-31.076 0,-57.764 0,-57.764 0,0 -10.203,7.345 -26.223,5.383 -26.334,-3.246 -63.141,-11.064 -105.11,-41.563"
     style="fill:#231f20;fill-opacity:1;fill-rule:nonzero;stroke:none"
     id="path39224" />
  <path
     d="m 272.323,574.123 c -25.903,-18.841 -44.085,-45.075 -57.769,-72.197 -9.417,-18.593 -1.422,-17.973 -1.422,-17.973 0,0 5.378,2.422 8.318,-1.62 2.929,-4.043 3.64,-7.844 -2.428,-12.235 -6.039,-4.401 -15.249,-1.009 -18.845,3.96 -2.38,3.237 -7.548,9.204 -0.728,24.716 12.769,29.018 36.271,61.864 66.653,83.938 30.381,22.082 68.881,34.268 100.422,37.442 16.859,1.696 20.916,-5.071 23.277,-8.295 3.599,-4.997 3.994,-14.789 -2.068,-19.188 -6.04,-4.405 -9.449,-2.551 -12.374,1.496 -2.934,4.031 1.021,8.413 1.021,8.413 0,0 3.057,7.382 -17.521,4.196 -30.016,-4.65 -60.607,-13.817 -86.536,-32.653"
     style="fill:#231f20;fill-opacity:1;fill-rule:nonzero;stroke:none"
     id="path39228" />
  <path
     d="m 531.622,590.079 c -42.008,30.509 -78.786,38.317 -105.122,41.563 -16.028,1.962 -26.232,-5.371 -26.232,-5.371 0,0 0.021,26.676 0.01,57.752 -0.032,32.497 33.706,51.889 60.842,52.558 30.327,0.748 79.127,-13.508 136.715,-55.364 57.599,-41.846 86.248,-83.842 94.885,-112.914 7.784,-26.015 -0.254,-64.092 -31.15,-74.106 -29.602,-9.619 -54.935,-17.868 -54.935,-17.868 0,0 3.82,12 -3.005,26.612 -11.229,24.039 -30.008,56.633 -72.008,87.138"
     style="fill:#231f20;fill-opacity:1;fill-rule:nonzero;stroke:none"
     id="path39232" />
  <path
     d="m 520.044,574.123 c -25.94,18.836 -56.519,28.003 -86.536,32.653 -20.578,3.186 -17.542,-4.196 -17.542,-4.196 0,0 3.977,-4.382 1.032,-8.413 -2.914,-4.047 -6.323,-5.901 -12.364,-1.496 -6.071,4.399 -5.675,14.191 -2.047,19.188 2.331,3.224 6.399,9.991 23.257,8.295 31.541,-3.164 70.041,-15.36 100.421,-37.442 30.383,-22.074 53.883,-54.92 66.653,-83.938 6.811,-15.512 1.652,-21.473 -0.726,-24.716 -3.615,-4.969 -12.807,-8.361 -18.845,-3.96 -6.068,4.396 -5.358,8.203 -2.428,12.235 2.94,4.042 8.316,1.62 8.316,1.62 0,0 7.986,-0.62 -1.423,17.973 -13.672,27.122 -31.867,53.356 -57.768,72.197"
     style="fill:#231f20;fill-opacity:1;fill-rule:nonzero;stroke:none"
     id="path39236" />
  <path
     d="m 615.336,332.45 c 16.047,49.383 12.085,86.77 7.024,112.833 -3.057,15.835 -13.215,23.287 -13.215,23.287 0,0 25.379,8.222 54.954,17.841 30.867,10.06 59.763,-16.031 68.781,-41.636 10.076,-28.609 11.592,-79.424 -10.408,-147.126 -21.991,-67.72 -53.092,-107.929 -78.052,-125.157 -22.36,-15.412 -61.048,-19.536 -80.147,6.742 -18.251,25.17 -33.939,46.738 -33.939,46.738 0,0 12.578,0.066 24.379,11.077 19.396,18.104 44.566,46.04 60.623,95.401"
     style="fill:#231f20;fill-opacity:1;fill-rule:nonzero;stroke:none"
     id="path39240" />
  <path
     d="m 596.575,338.543 c 9.899,30.467 9.161,62.397 4.307,92.38 -3.312,20.576 -9.4,15.377 -9.4,15.377 0,0 -2.94,-5.119 -7.694,-3.58 -4.752,1.539 -7.546,4.205 -5.237,11.312 2.308,7.125 11.748,9.787 17.607,7.879 3.789,-1.227 11.493,-3.008 15.089,-19.563 6.745,-30.967 7.049,-71.369 -4.56,-107.074 -11.62,-35.723 -35.599,-68.227 -59.245,-89.331 -12.651,-11.276 -19.927,-8.186 -23.721,-6.954 -5.856,1.897 -11.93,9.597 -9.61,16.72 2.298,7.118 6.147,7.618 10.899,6.074 4.751,-1.54 4.109,-7.406 4.109,-7.406 0,0 1.883,-7.787 16.656,6.906 21.557,21.396 40.901,46.797 50.8,77.26"
     style="fill:#231f20;fill-opacity:1;fill-rule:nonzero;stroke:none"
     id="path39244" />
  <path
     d="m 221.166,404.097 c 0,-58.28 28.495,-109.925 72.28,-141.764 24.844,-17.014 55.22,-31.43 97.42,-30.07 43.175,1.392 80.485,37.124 80.485,78.55 0,41.427 -33.583,75.012 -75.007,75.012 -33.849,0 -62.456,-22.409 -71.8,-53.2 -14.768,1.704 -28.617,6.443 -40.917,13.555 -50.932,29.404 -68.368,94.54 -38.969,145.469 -15.945,-27.621 -23.519,-57.793 -23.492,-87.552"
     style="fill:#231f20;fill-opacity:1;fill-rule:nonzero;stroke:none"
     id="path39248" />
  <path
     d="m 483.922,555.769 c -50.467,29.136 -109.444,30.279 -158.913,8.279 -27.157,-13.01 -54.829,-32.102 -74.749,-69.331 -20.376,-38.086 -8.092,-88.266 27.784,-108.978 35.874,-20.716 81.757,-8.423 102.462,27.453 16.924,29.311 11.826,65.287 -10.169,88.778 8.867,11.936 19.888,21.562 32.197,28.66 50.932,29.403 116.057,11.946 145.467,-38.992 -15.951,27.623 -38.292,49.271 -64.079,64.131"
     style="fill:#231f20;fill-opacity:1;fill-rule:nonzero;stroke:none"
     id="path39252" />
  <path
     d="m 483.896,252.354 c 50.469,29.141 80.95,79.644 86.628,133.482 2.314,30.022 -0.386,63.532 -22.669,99.399 -22.792,36.693 -72.394,51.146 -108.274,30.429 -35.871,-20.712 -48.163,-66.588 -27.451,-102.465 16.919,-29.312 50.626,-42.883 81.969,-35.576 5.912,-13.649 8.734,-28.008 8.724,-42.213 0,-58.811 -47.69,-106.485 -106.5,-106.483 31.893,0 61.816,8.531 87.573,23.427"
     style="fill:#231f20;fill-opacity:1;fill-rule:nonzero;stroke:none"
     id="path39256" />
</svg>
