<?xml version="1.0" encoding="UTF-8" standalone="no"?>
<!-- Created with Inkscape (http://www.inkscape.org/) -->

<svg
   sodipodi:docname="Gokani Mitsujigami.svg"
   viewBox="0 0 793.70135 793.70135"
   height="793.70135"
   width="793.70135"
   id="svg39902"
   version="1.1"
   inkscape:version="1.2 (dc2aeda, 2022-05-15)"
   xmlns:inkscape="http://www.inkscape.org/namespaces/inkscape"
   xmlns:sodipodi="http://sodipodi.sourceforge.net/DTD/sodipodi-0.dtd"
   xmlns="http://www.w3.org/2000/svg"
   xmlns:svg="http://www.w3.org/2000/svg">

  <sodipodi:namedview
     id="namedview39904"
     pagecolor="#ffffff"
     bordercolor="#000000"
     borderopacity="0.25"
     inkscape:showpageshadow="2"
     inkscape:pageopacity="0.0"
     inkscape:pagecheckerboard="0"
     inkscape:deskcolor="#d1d1d1"
     showgrid="false"
     inkscape:zoom="0.21024124"
     inkscape:cx="-349.59839"
     inkscape:cy="399.54102"
     inkscape:window-width="1419"
     inkscape:window-height="456"
     inkscape:window-x="0"
     inkscape:window-y="25"
     inkscape:window-maximized="0"
     inkscape:current-layer="svg39902">
    <inkscape:page
       x="0"
       y="0"
       id="page39908"
       width="793.70135"
       height="793.70135" />
  </sodipodi:namedview>
  <path
     d="m 396.179,176.421 c 51.185,0 85.034,15.103 107.928,27.776 13.918,7.696 17.809,19.485 17.809,19.485 0,0 15.448,-21.289 33.483,-46.074 18.825,-25.903 3.169,-60.923 -18.106,-77.183 C 513.547,82.26 466.369,65.348 396.179,65.348 c -70.181,0 -117.356,16.912 -141.12,35.077 -21.257,16.26 -36.912,51.28 -18.088,77.183 18.04,24.785 33.471,46.074 33.471,46.074 0,0 3.903,-11.789 17.811,-19.485 22.902,-12.673 56.742,-27.776 107.926,-27.776"
     style="fill:#231f20;fill-opacity:1;fill-rule:nonzero;stroke:none"
     id="path39922" />
  <path
     d="m 396.179,195.859 c 31.579,0 61.297,10.415 87.925,24.099 18.271,9.385 11.568,13.512 11.568,13.512 0,0 -5.704,1.186 -5.704,6.117 0,4.912 1.636,8.356 9.013,8.356 7.386,0 12.743,-8.032 12.743,-14.105 0,-3.931 0.677,-11.69 -13.743,-20.111 -26.992,-15.747 -64.783,-28.34 -101.802,-28.34 -37.009,0 -74.798,12.593 -101.79,28.34 -14.422,8.421 -13.742,16.18 -13.742,20.111 0,6.073 5.36,14.105 12.742,14.105 7.381,0 9.012,-3.444 9.012,-8.356 0,-4.931 -5.694,-6.117 -5.694,-6.117 0,0 -6.722,-4.127 11.556,-13.512 26.613,-13.684 56.348,-24.099 87.916,-24.099"
     style="fill:#231f20;fill-opacity:1;fill-rule:nonzero;stroke:none"
     id="path39926" />
  <path
     d="m 180.143,333.384 c 15.816,-48.675 40.633,-76.204 59.757,-94.056 11.637,-10.86 24.043,-10.92 24.043,-10.92 0,0 -15.486,-21.258 -33.471,-46.072 -18.825,-25.913 -56.973,-21.842 -79,-6.646 -24.618,16.981 -55.2835,56.625 -76.9674,123.374 -21.6853,66.751 -20.184,116.853 -10.252,145.058 8.888,25.243 37.3614,50.964 67.8064,41.044 29.157,-9.481 54.177,-17.601 54.177,-17.601 0,0 -10.016,-7.333 -13.03,-22.948 -4.987,-25.689 -8.89,-62.553 6.937,-111.233"
     style="fill:#231f20;fill-opacity:1;fill-rule:nonzero;stroke:none"
     id="path39930" />
  <path
     d="m 198.626,339.392 c 9.76,-30.031 28.841,-55.081 50.083,-76.172 14.565,-14.482 16.42,-6.806 16.42,-6.806 0,0 -0.631,5.78 4.062,7.298 4.683,1.528 8.456,1.034 10.732,-5.984 2.288,-7.021 -3.697,-14.61 -9.481,-16.481 -3.731,-1.216 -10.904,-4.267 -23.359,6.855 -23.33,20.802 -46.961,52.849 -58.426,88.061 -11.444,35.201 -11.144,75.027 -4.495,105.563 3.544,16.319 11.149,18.071 14.876,19.29 5.788,1.877 15.077,-0.742 17.355,-7.766 2.282,-7.008 -0.476,-9.637 -5.168,-11.156 -4.667,-1.516 -7.564,3.52 -7.564,3.52 0,0 -6.014,5.136 -9.284,-15.153 -4.795,-29.56 -5.511,-61.033 4.249,-91.069"
     style="fill:#231f20;fill-opacity:1;fill-rule:nonzero;stroke:none"
     id="path39934" />
  <path
     d="m 262.67,587.368 c -41.424,-30.071 -59.928,-62.205 -70.998,-85.914 -6.728,-14.395 -2.96,-26.226 -2.96,-26.226 0,0 -24.978,8.132 -54.151,17.614 -30.477,9.873 -38.3933,47.414 -30.745,73.05 8.541,28.671 36.753,70.072 93.559,111.325 56.77,41.265 104.891,55.323 134.78,54.596 26.764,-0.675 60.004,-19.789 59.993,-51.825 -0.009,-30.639 0,-56.948 0,-56.948 0,0 -10.06,7.237 -25.853,5.301 -25.961,-3.194 -62.244,-10.902 -103.625,-40.973"
     style="fill:#231f20;fill-opacity:1;fill-rule:nonzero;stroke:none"
     id="path39938" />
  <path
     d="m 274.077,571.641 c -25.539,-18.579 -43.467,-44.437 -56.957,-71.18 -9.286,-18.33 -1.402,-17.718 -1.402,-17.718 0,0 5.303,2.39 8.2,-1.594 2.892,-3.989 3.592,-7.734 -2.389,-12.062 -5.953,-4.339 -15.036,-0.998 -18.585,3.904 -2.34,3.189 -7.435,9.074 -0.716,24.366 12.593,28.607 35.758,60.987 65.712,82.753 29.953,21.763 67.909,33.779 99.001,36.911 16.622,1.669 20.621,-5.003 22.952,-8.177 3.548,-4.93 3.934,-14.58 -2.036,-18.922 -5.96,-4.341 -9.316,-2.513 -12.203,1.476 -2.892,3.978 1.005,8.295 1.005,8.295 0,0 3.019,7.279 -17.272,4.139 -29.594,-4.587 -59.75,-13.62 -85.31,-32.191"
     style="fill:#231f20;fill-opacity:1;fill-rule:nonzero;stroke:none"
     id="path39942" />
  <path
     d="m 529.708,587.368 c -41.412,30.081 -77.674,37.779 -103.636,40.973 -15.804,1.936 -25.864,-5.29 -25.864,-5.29 0,0 0.024,26.298 0.014,56.937 -0.035,32.036 33.229,51.15 59.981,51.814 29.898,0.738 78.01,-13.32 134.778,-54.585 56.787,-41.253 85.032,-82.654 93.549,-111.316 7.672,-25.645 -0.254,-63.186 -30.71,-73.059 -29.186,-9.482 -54.162,-17.614 -54.162,-17.614 0,0 3.768,11.831 -2.961,26.236 -11.07,23.699 -29.58,55.833 -70.989,85.904"
     style="fill:#231f20;fill-opacity:1;fill-rule:nonzero;stroke:none"
     id="path39946" />
  <path
     d="m 518.292,571.641 c -25.571,18.571 -55.716,27.604 -85.312,32.191 -20.289,3.14 -17.297,-4.139 -17.297,-4.139 0,0 3.924,-4.317 1.021,-8.295 -2.876,-3.989 -6.232,-5.817 -12.19,-1.476 -5.982,4.342 -5.596,13.992 -2.016,18.922 2.297,3.174 6.308,9.846 22.93,8.177 31.091,-3.12 69.047,-15.148 99,-36.911 29.955,-21.766 53.119,-54.146 65.713,-82.753 6.708,-15.292 1.624,-21.172 -0.716,-24.366 -3.565,-4.902 -12.63,-8.243 -18.586,-3.904 -5.979,4.333 -5.282,8.085 -2.388,12.062 2.896,3.984 8.198,1.594 8.198,1.594 0,0 7.875,-0.612 -1.398,17.718 -13.483,26.743 -31.42,52.601 -56.959,71.18"
     style="fill:#231f20;fill-opacity:1;fill-rule:nonzero;stroke:none"
     id="path39950" />
  <path
     d="m 612.237,333.384 c 15.815,48.685 11.915,85.544 6.927,111.238 -3.015,15.61 -13.031,22.956 -13.031,22.956 0,0 25.021,8.107 54.177,17.588 30.435,9.92 58.919,-15.801 67.807,-41.044 9.932,-28.205 11.432,-78.302 -10.263,-145.047 -21.675,-66.76 -52.338,-106.404 -76.945,-123.385 -22.039,-15.196 -60.188,-19.262 -79.011,6.646 -17.997,24.814 -33.461,46.076 -33.461,46.076 0,0 12.396,0.064 24.032,10.92 19.125,17.848 43.943,45.388 59.768,94.052"
     style="fill:#231f20;fill-opacity:1;fill-rule:nonzero;stroke:none"
     id="path39954" />
  <path
     d="m 593.742,339.392 c 9.76,30.036 9.033,61.515 4.251,91.074 -3.272,20.284 -9.275,15.162 -9.275,15.162 0,0 -2.895,-5.05 -7.585,-3.534 -4.683,1.519 -7.44,4.148 -5.156,11.156 2.276,7.024 11.577,9.646 17.353,7.766 3.737,-1.211 11.333,-2.966 14.876,-19.29 6.651,-30.528 6.951,-70.358 -4.495,-105.558 -11.453,-35.217 -35.094,-67.261 -58.404,-88.066 -12.477,-11.115 -19.649,-8.071 -23.39,-6.855 -5.773,1.871 -11.76,9.46 -9.472,16.481 2.267,7.018 6.06,7.512 10.743,5.99 4.682,-1.519 4.051,-7.302 4.051,-7.302 0,0 1.855,-7.678 16.419,6.81 21.253,21.09 40.324,46.135 50.084,76.166"
     style="fill:#231f20;fill-opacity:1;fill-rule:nonzero;stroke:none"
     id="path39958" />
  <path
     d="m 396.179,342.35 c 19.412,0 36.753,8.832 48.235,22.695 l 95.354,-45.259 c -29.099,-48.949 -82.51,-81.754 -143.589,-81.754 -61.073,0 -114.485,32.805 -143.578,81.754 l 95.35,45.259 c 11.476,-13.863 28.825,-22.695 48.228,-22.695"
     style="fill:#231f20;fill-opacity:1;fill-rule:nonzero;stroke:none"
     id="path39962" />
  <path
     d="m 342.012,436.178 c -9.707,-16.807 -10.728,-36.245 -4.459,-53.119 l -86.877,-59.945 c -27.842,49.669 -29.548,112.335 0.994,165.223 30.537,52.893 85.649,82.75 142.595,83.466 l -8.482,-105.204 c -17.746,-3.009 -34.064,-13.616 -43.771,-30.421"
     style="fill:#231f20;fill-opacity:1;fill-rule:nonzero;stroke:none"
     id="path39966" />
  <path
     d="m 450.357,436.178 c -9.705,16.805 -26.031,27.412 -43.776,30.421 l -8.476,105.204 c 56.94,-0.716 112.057,-30.573 142.593,-83.466 30.536,-52.891 28.831,-115.554 0.989,-165.225 l -86.871,59.947 c 6.262,16.874 5.236,36.312 -4.459,53.119"
     style="fill:#231f20;fill-opacity:1;fill-rule:nonzero;stroke:none"
     id="path39970" />
</svg>
