<?xml version="1.0" encoding="UTF-8" standalone="no"?>
<!-- Created with Inkscape (http://www.inkscape.org/) -->

<svg
   version="1.1"
   id="svg45805"
   width="793.70135"
   height="793.70135"
   viewBox="0 0 793.70135 793.70135"
   sodipodi:docname="Gokani Tachibana.svg"
   inkscape:version="1.2 (dc2aeda, 2022-05-15)"
   xmlns:inkscape="http://www.inkscape.org/namespaces/inkscape"
   xmlns:sodipodi="http://sodipodi.sourceforge.net/DTD/sodipodi-0.dtd"
   xmlns="http://www.w3.org/2000/svg"
   xmlns:svg="http://www.w3.org/2000/svg">
  <defs
     id="defs45809">
    <clipPath
       clipPathUnits="userSpaceOnUse"
       id="clipPath46173">
      <path
         d="m -215.7554,373.5262 h 595.276 v -841.89 h -595.276 z"
         id="path46175"
         style="stroke-width:0.999998" />
    </clipPath>
    <clipPath
       clipPathUnits="userSpaceOnUse"
       id="clipPath46179">
      <path
         d="m -449.0508,374.9256 h 595.276 v -841.89 h -595.276 z"
         id="path46181"
         style="stroke-width:0.999998" />
    </clipPath>
    <clipPath
       clipPathUnits="userSpaceOnUse"
       id="clipPath46185">
      <path
         d="m -463.2666,370.3075 h 595.276 v -841.89 h -595.276 z"
         id="path46187"
         style="stroke-width:0.999998" />
    </clipPath>
    <clipPath
       clipPathUnits="userSpaceOnUse"
       id="clipPath46191">
      <path
         d="m -391.0283,553.5101 h 595.276 v -841.89 h -595.276 z"
         id="path46193"
         style="stroke-width:0.999998" />
    </clipPath>
    <clipPath
       clipPathUnits="userSpaceOnUse"
       id="clipPath46197">
      <path
         d="m -399.8154,565.6 h 595.276 v -841.89 h -595.276 z"
         id="path46199"
         style="stroke-width:0.999998" />
    </clipPath>
    <clipPath
       clipPathUnits="userSpaceOnUse"
       id="clipPath46203">
      <path
         d="m -194.4683,565.6 h 595.276 v -841.89 h -595.276 z"
         id="path46205"
         style="stroke-width:0.999998" />
    </clipPath>
    <clipPath
       clipPathUnits="userSpaceOnUse"
       id="clipPath46209">
      <path
         d="m -297.1377,264.556 h 595.276 v -841.89 h -595.276 z"
         id="path46211"
         style="stroke-width:0.999998" />
    </clipPath>
    <clipPath
       clipPathUnits="userSpaceOnUse"
       id="clipPath46215">
      <path
         d="m -203.2476,553.5101 h 595.276 v -841.89 h -595.276 z"
         id="path46217"
         style="stroke-width:0.999998" />
    </clipPath>
    <clipPath
       clipPathUnits="userSpaceOnUse"
       id="clipPath46221">
      <path
         d="m -131.0132,370.3075 h 595.276 v -841.89 h -595.276 z"
         id="path46223"
         style="stroke-width:0.999998" />
    </clipPath>
    <clipPath
       clipPathUnits="userSpaceOnUse"
       id="clipPath46227">
      <path
         d="m -145.2246,374.9237 h 595.276 v -841.89 h -595.276 z"
         id="path46229"
         style="stroke-width:0.999998" />
    </clipPath>
    <clipPath
       clipPathUnits="userSpaceOnUse"
       id="clipPath46233">
      <path
         d="m -297.2227,285.5199 h 595.276 v -841.89 h -595.276 z"
         id="path46235"
         style="stroke-width:0.999998" />
    </clipPath>
    <clipPath
       clipPathUnits="userSpaceOnUse"
       id="clipPath46239">
      <path
         d="m -297.1377,249.6092 h 595.276 v -841.89 h -595.276 z"
         id="path46241"
         style="stroke-width:0.999998" />
    </clipPath>
    <clipPath
       clipPathUnits="userSpaceOnUse"
       id="clipPath46245">
      <path
         d="m -305.5762,555.3695 h 595.276 v -841.89 h -595.276 z"
         id="path46247"
         style="stroke-width:0.999998" />
    </clipPath>
    <clipPath
       clipPathUnits="userSpaceOnUse"
       id="clipPath46251">
      <path
         d="m -305.6006,346.9325 h 595.276 v -841.89 h -595.276 z"
         id="path46253"
         style="stroke-width:0.999998" />
    </clipPath>
    <clipPath
       clipPathUnits="userSpaceOnUse"
       id="clipPath46257">
      <path
         d="m -312.3516,462.2406 h 595.276 v -841.89 h -595.276 z"
         id="path46259"
         style="stroke-width:0.999998" />
    </clipPath>
    <clipPath
       clipPathUnits="userSpaceOnUse"
       id="clipPath46264">
      <path
         d="m -185.6572,498.5726 h 595.276 v -841.89 h -595.276 z"
         id="path46266"
         style="stroke-width:0.999998" />
    </clipPath>
    <clipPath
       clipPathUnits="userSpaceOnUse"
       id="clipPath46270">
      <path
         d="m -408.5303,498.5609 h 595.276 v -841.89 h -595.276 z"
         id="path46272"
         style="stroke-width:0.999998" />
    </clipPath>
    <clipPath
       clipPathUnits="userSpaceOnUse"
       id="clipPath46276">
      <path
         d="m -392.4473,367.243 h 595.276 v -841.89 h -595.276 z"
         id="path46278"
         style="stroke-width:0.999998" />
    </clipPath>
  </defs>
  <sodipodi:namedview
     id="namedview45807"
     pagecolor="#ffffff"
     bordercolor="#000000"
     borderopacity="0.25"
     inkscape:showpageshadow="2"
     inkscape:pageopacity="0.0"
     inkscape:pagecheckerboard="0"
     inkscape:deskcolor="#d1d1d1"
     showgrid="false"
     inkscape:zoom="0.21024124"
     inkscape:cx="-1234.2964"
     inkscape:cy="561.26001"
     inkscape:window-width="1419"
     inkscape:window-height="456"
     inkscape:window-x="0"
     inkscape:window-y="25"
     inkscape:window-maximized="0"
     inkscape:current-layer="svg45805">
    <inkscape:page
       x="0"
       y="0"
       id="page45811"
       width="793.70135"
       height="793.70135" />
  </sodipodi:namedview>
  <path
     d="M 413.725,360.37 Z"
     style="fill:#231f20;fill-opacity:1;fill-rule:nonzero;stroke:none"
     id="path45817" />
  <path
     d="m 287.673,334.036 c 7.418,-18.204 22.348,-32.558 40.889,-39.3 -8.745,-3.385 -19.499,-5.944 -32.161,-6.058 -38.907,-0.355 -68.503,32.309 -68.503,32.309 0,0 2.828,22.165 25.94,52.352 11.085,14.472 23.668,25.373 38.464,33.941 -6.201,-14.357 -9.669,-30.224 -9.697,-46.908 0,-6.808 0.962,-13.384 2.78,-19.606 -5.34,-3.18 -11.995,-6.539 -18.312,-8.424 -3.903,-1.244 -8.639,-2.782 -13.192,-3.958 -4.619,-1.21 -17.467,-2.9 -21.423,-4.39 -0.524,-0.372 -1.299,-0.112 -1.668,-1.828 0.011,0 -0.011,0 0.011,-0.168 0,-0.051 0.01,-0.127 0.032,-0.212 v -0.002 l 0.01,-0.012 c 0.064,-0.232 0.226,-0.544 0.492,-0.729 l 0.038,0.045 c 0.721,-0.766 1.309,-0.732 2.016,-0.705 0.394,0.02 0.812,0.043 1.314,-0.056 5.392,0.011 15.55,1.363 20.536,2.193 6.382,1.064 9.332,1.77 13.875,3.139 6.479,1.959 13.128,5.251 18.559,8.377"
     style="fill:#231f20;fill-opacity:1;fill-rule:nonzero;stroke:none"
     id="path45829" />
  <path
     d="m 523.261,325.659 v 0 c 4.538,-1.368 7.488,-2.075 13.864,-3.139 4.994,-0.83 15.15,-2.182 20.548,-2.193 0.503,0.099 0.919,0.077 1.303,0.056 0.711,-0.027 1.305,-0.061 2.021,0.705 l 0.032,-0.045 c 0.267,0.185 0.427,0.497 0.503,0.729 l 0.005,0.012 -0.005,0.003 c 0.027,0.084 0.041,0.16 0.041,0.211 0.023,0.168 0,0.168 0.012,0.168 -0.374,1.716 -1.144,1.457 -1.673,1.828 -3.96,1.49 -16.809,3.18 -21.428,4.39 -4.555,1.176 -9.279,2.714 -13.181,3.959 -6.318,1.884 -12.978,5.243 -18.318,8.423 1.818,6.222 2.786,12.8 2.786,19.606 -0.034,16.684 -3.496,32.551 -9.703,46.908 14.796,-8.567 27.384,-19.469 38.464,-33.941 23.107,-30.187 25.939,-52.352 25.939,-52.352 0,0 -29.595,-32.664 -68.502,-32.308 -12.668,0.115 -23.421,2.673 -32.166,6.059 18.546,6.74 33.476,21.094 40.894,39.298 5.426,-3.126 12.08,-6.418 18.564,-8.377"
     style="fill:#231f20;fill-opacity:1;fill-rule:nonzero;stroke:none"
     id="path45833" />
  <path
     d="m 247.542,500.765 c 11.375,9.857 28.253,20.675 50.351,24.631 6.638,1.181 12.956,1.672 18.9,1.672 17.291,0.012 31.397,-4.276 40.995,-8.396 -0.485,-1.584 -0.726,-3.186 -0.693,-4.598 0,-0.009 -0.044,-0.121 -0.044,-0.358 0,-1.5 0.213,-3.003 0.62,-4.475 -2.277,-1.083 -4.789,-2.233 -7.52,-3.429 -12.748,-5.586 -29.798,-11.784 -46.641,-14.297 -0.037,0 -21.845,-3.004 -33.261,-3.916 -9.596,-0.779 -26.502,-0.435 -32.103,-1.274 l -1.753,-0.526 c -0.022,-0.034 -0.77,-0.711 -0.819,-0.802 -0.091,-0.19 -0.144,-0.393 -0.144,-0.592 0,-0.309 0.101,-0.612 0.288,-0.853 0.375,-0.68 0.92,-0.648 1.209,-0.839 0.491,-0.158 1.058,-0.273 1.754,-0.372 1.389,-0.216 3.27,-0.376 5.472,-0.497 4.404,-0.259 10.07,-0.381 15.297,-0.381 4.175,0 8.061,0.065 10.799,0.224 9.374,0.508 21.38,1.048 34.282,2.93 21.316,3.258 42.888,12.017 56.304,18.403 1.508,-1.886 3.368,-3.383 5.421,-4.463 -7.1,-15.229 -22.85,-38.38 -55.247,-45.945 -5.932,-1.396 -11.599,-2.005 -16.96,-2.005 -35.907,-0.06 -59.164,27.294 -63.098,32.294 1.683,2.351 7.231,9.752 16.591,17.864"
     style="fill:#231f20;fill-opacity:1;fill-rule:nonzero;stroke:none"
     id="path45837" />
  <path
     d="m 544.705,500.749 c 9.364,-8.115 14.914,-15.516 16.591,-17.869 -3.933,-5 -27.184,-32.352 -63.092,-32.292 -5.367,0 -11.027,0.609 -16.967,2.005 -32.39,7.566 -48.147,30.716 -55.245,45.948 2.058,1.08 3.918,2.572 5.419,4.463 13.417,-6.394 34.989,-15.151 56.306,-18.408 12.903,-1.88 24.907,-2.42 34.288,-2.928 2.736,-0.159 6.622,-0.225 10.796,-0.225 5.223,0 10.888,0.124 15.294,0.382 2.206,0.122 4.088,0.282 5.472,0.498 0.696,0.098 1.262,0.213 1.754,0.372 0.288,0.188 0.834,0.158 1.207,0.838 0.193,0.243 0.289,0.544 0.289,0.855 0,0.197 -0.048,0.4 -0.14,0.591 -0.048,0.09 -0.801,0.768 -0.822,0.801 l -1.747,0.527 c -5.607,0.836 -22.508,0.494 -32.103,1.273 -11.422,0.912 -33.23,3.917 -33.262,3.917 -16.847,2.512 -33.899,8.708 -46.641,14.299 -2.731,1.196 -5.244,2.341 -7.526,3.429 0.412,1.467 0.62,2.972 0.62,4.469 0,0.235 -0.042,0.355 -0.042,0.364 0.032,1.412 -0.203,3.014 -0.691,4.598 9.601,4.114 23.707,8.4 40.992,8.39 5.944,0 12.262,-0.492 18.905,-1.666 22.092,-3.956 38.972,-14.774 50.345,-24.631"
     style="fill:#231f20;fill-opacity:1;fill-rule:nonzero;stroke:none"
     id="path45841" />
  <path
     d="M 378.646,360.37 Z"
     style="fill:#231f20;fill-opacity:1;fill-rule:nonzero;stroke:none"
     id="path45845" />
  <path
     d="m 407.434,576.493 v 0 -34.812 c 0,-7.811 4.736,-14.549 11.472,-17.475 l 8.524,-3.656 c 2.65,-3.557 3.074,-8.385 0.749,-12.494 -1.849,-3.282 -4.993,-5.271 -8.451,-5.743 l -12.294,5.207 v -29.543 c -1.154,-5.192 -5.714,-9.074 -11.246,-9.074 -5.537,0 -10.097,3.882 -11.245,9.074 v 29.543 l -12.305,-5.207 c -3.458,0.472 -6.596,2.461 -8.446,5.743 -2.32,4.109 -1.902,8.937 0.75,12.494 l 8.524,3.656 c 6.741,2.926 11.477,9.664 11.477,17.475 v 34.812 z"
     style="fill:#231f20;fill-opacity:1;fill-rule:nonzero;stroke:none"
     id="path45849" />
  <path
     d="m 396.296,216.695 c 0,0 -20.52,4.42 -42.098,30.952 -13.898,17.081 -17.378,33.704 -18.094,44.856 5.228,-1.252 10.686,-1.935 16.308,-1.935 9.632,0 18.826,1.944 27.191,5.482 3.411,-3.654 8.012,-6.184 13.176,-6.983 0.016,-11.888 0.011,-22.987 0.021,-29.527 0.011,-12.073 0.246,-30.217 1.496,-35.11 0.354,-0.628 0.038,-1.559 1.882,-1.995 1.861,0.436 1.55,1.367 1.881,1.995 0.193,0.751 0.353,1.702 0.483,2.877 0.282,2.341 0.485,5.544 0.629,9.172 0.3,7.259 0.407,16.207 0.407,23.061 v 29.54 c 5.174,0.802 9.781,3.314 13.19,6.97 8.367,-3.538 17.555,-5.482 27.196,-5.482 5.614,0 11.076,0.683 16.304,1.935 -0.717,-11.152 -4.197,-27.775 -18.1,-44.856 -21.572,-26.532 -42.086,-30.952 -42.086,-30.952"
     style="fill:#231f20;fill-opacity:1;fill-rule:nonzero;stroke:none"
     id="path45853" />
  <path
     d="m 416.468,452.323 c -1.186,1.188 -10.797,8.864 -11.984,7.674 -1.192,-1.193 6.484,-10.8 7.666,-11.986 1.197,-1.196 3.132,-1.196 4.318,0 1.196,1.186 1.196,3.121 0,4.312 m -20.278,4.237 c -1.691,0 -3.059,-12.216 -3.059,-13.904 0,-1.683 1.368,-3.049 3.059,-3.049 1.677,0 3.045,1.366 3.045,3.049 0,1.688 -1.368,13.904 -3.045,13.904 m -8.296,3.437 c -1.192,1.19 -10.798,-6.486 -11.99,-7.674 -1.19,-1.191 -1.19,-3.126 0,-4.312 1.192,-1.196 3.116,-1.196 4.314,0 1.192,1.186 8.862,10.793 7.676,11.986 m 52.07,-163.813 c -14.452,0 -27.782,4.747 -38.505,12.794 8.2,7.856 14.517,17.678 18.216,28.697 5.377,-4.504 12.305,-7.213 19.883,-7.213 17.469,0.112 31.237,15.916 31.237,34.154 0,8.627 -0.899,14.552 -1.967,18.387 -1.357,3.814 -1.613,5.578 -4.018,6.209 -0.038,0 -0.203,0.024 -0.59,-0.103 -1.281,-0.729 -1.025,-1.564 -1.089,-2.022 0.021,-2.622 1.631,-9.402 1.631,-22.12 0.01,-14.588 -12.327,-27.497 -25.204,-27.523 -7.055,0.011 -13.367,3.043 -17.767,7.867 1.053,4.86 1.615,9.891 1.615,15.053 -0.278,19.2 -4.116,24 -7.311,24.655 -0.279,0 -0.663,-0.059 -1.101,-0.407 -0.402,-0.315 -0.595,-0.989 -0.556,-1.283 0.138,-2.058 2.64,-5.397 2.693,-22.965 0,-18.458 -8.381,-35.149 -20.941,-46.874 -12.572,11.725 -20.948,28.416 -20.948,46.874 0.042,17.568 2.538,20.907 2.689,22.965 0.009,0.306 -0.129,0.936 -0.813,1.462 -0.16,0.09 -0.47,0.228 -0.855,0.228 -3.197,-0.655 -7.029,-5.444 -7.301,-24.655 0,-5.165 0.556,-10.201 1.608,-15.061 -4.399,-4.821 -10.702,-7.848 -17.74,-7.859 -12.904,0.026 -25.24,12.935 -25.229,27.523 0,12.706 1.609,19.498 1.63,22.12 -0.092,0.473 0.214,1.269 -1.1,2.033 l -0.177,0.056 -0.181,0.025 c 0,-0.025 0,0 -0.203,0.011 -2.428,-0.631 -2.679,-2.395 -4.043,-6.209 -1.068,-3.835 -1.965,-9.748 -1.965,-18.387 0,-18.238 13.789,-34.042 31.257,-34.154 7.573,0 14.496,2.709 19.873,7.216 3.704,-11.02 10.012,-20.842 18.216,-28.695 -10.722,-8.052 -24.053,-12.799 -38.496,-12.799 -35.447,0.056 -64.129,28.735 -64.193,64.18 0,56.363 41.146,102.857 94.319,109.764 3.122,-4.147 8.033,-6.836 13.64,-6.836 5.613,0 10.53,2.689 13.657,6.836 53.161,-6.907 94.308,-53.401 94.308,-109.764 -0.07,-35.445 -28.73,-64.124 -64.179,-64.18"
     style="fill:#231f20;fill-opacity:1;fill-rule:nonzero;stroke:none"
     id="path45857" />
  <path
     d="m 407.467,298.579 c -3.805,1.999 -7.408,4.327 -10.744,6.968 l -0.507,0.401 -0.026,-0.028 -0.032,0.023 -0.503,-0.396 c -3.304,-2.607 -6.895,-4.888 -10.648,-6.879 3.004,-2.676 6.937,-4.258 11.284,-4.258 4.281,0 8.183,1.566 11.176,4.169"
     style="fill:#231f20;fill-opacity:1;fill-rule:nonzero;stroke:none"
     id="path45861" />
  <path
     d="m 396.183,168.814 c 52.477,0 87.189,15.481 110.653,28.472 14.265,7.899 18.26,19.98 18.26,19.98 0,0 15.837,-21.823 34.32,-47.239 19.305,-26.552 3.249,-62.462 -18.552,-79.133 -24.343,-18.62 -72.72,-35.96 -144.681,-35.96 -71.96,0 -120.328,17.34 -144.68,35.96 -21.802,16.671 -37.858,52.581 -18.546,79.133 18.477,25.416 34.314,47.239 34.314,47.239 0,0 4.004,-12.081 18.259,-19.98 23.471,-12.991 58.176,-28.472 110.653,-28.472"
     style="fill:#231f20;fill-opacity:1;fill-rule:nonzero;stroke:none"
     id="path45865" />
  <path
     d="m 396.183,188.743 c 32.375,0 62.848,10.674 90.149,24.704 18.729,9.622 11.851,13.852 11.851,13.852 0,0 -5.848,1.221 -5.848,6.271 0,5.04 1.678,8.572 9.237,8.572 7.58,0 13.075,-8.239 13.075,-14.46 0,-4.033 0.698,-11.989 -14.102,-20.621 -27.661,-16.146 -66.406,-29.051 -104.362,-29.051 -37.955,0 -76.69,12.905 -104.362,29.051 -14.79,8.632 -14.088,16.588 -14.088,20.621 0,6.221 5.493,14.46 13.061,14.46 7.569,0 9.237,-3.532 9.237,-8.572 0,-5.05 -5.837,-6.271 -5.837,-6.271 0,0 -6.889,-4.23 11.845,-13.852 27.297,-14.03 57.768,-24.704 90.144,-24.704"
     style="fill:#231f20;fill-opacity:1;fill-rule:nonzero;stroke:none"
     id="path45869" />
  <path
     d="m 174.684,329.746 c 16.217,-49.91 41.659,-78.138 61.275,-96.435 11.919,-11.134 24.636,-11.198 24.636,-11.198 0,0 -15.858,-21.798 -34.316,-47.234 -19.296,-26.57 -58.405,-22.398 -80.998,-6.818 -25.229,17.409 -56.6679,58.053 -78.8985,126.493 -22.2399,68.438 -20.7013,119.802 -10.5133,148.719 9.108,25.88 38.3079,52.249 69.5168,42.088 29.89,-9.726 55.547,-18.044 55.547,-18.044 0,0 -10.263,-7.525 -13.363,-23.536 -5.11,-26.33 -9.104,-64.129 7.114,-114.035"
     style="fill:#231f20;fill-opacity:1;fill-rule:nonzero;stroke:none"
     id="path45873" />
  <path
     d="m 193.633,335.9 c 10.005,-30.788 29.58,-56.47 51.361,-78.096 14.933,-14.849 16.82,-6.981 16.82,-6.981 0,0 -0.636,5.931 4.169,7.492 4.8,1.557 8.664,1.049 11,-6.143 2.347,-7.196 -3.794,-14.978 -9.712,-16.9 -3.832,-1.245 -11.177,-4.368 -23.961,7.031 -23.915,21.327 -48.149,54.185 -59.886,90.284 -11.722,36.097 -11.428,76.928 -4.619,108.233 3.635,16.732 11.428,18.528 15.256,19.779 5.921,1.918 15.457,-0.763 17.793,-7.962 2.336,-7.189 -0.497,-9.885 -5.303,-11.44 -4.784,-1.557 -7.754,3.612 -7.754,3.612 0,0 -6.159,5.256 -9.525,-15.538 -4.907,-30.306 -5.644,-62.578 4.361,-93.371"
     style="fill:#231f20;fill-opacity:1;fill-rule:nonzero;stroke:none"
     id="path45877" />
  <path
     d="m 259.29,590.134 c -42.461,-30.836 -61.436,-63.765 -72.788,-88.081 -6.896,-14.76 -3.037,-26.885 -3.037,-26.885 0,0 -25.623,8.339 -55.513,18.052 -31.2416,10.125 -39.3602,48.609 -31.5202,74.904 8.7662,29.39 37.6932,71.846 95.9222,114.138 58.208,42.299 107.537,56.7 138.176,55.968 27.446,-0.684 61.537,-20.296 61.526,-53.129 -0.016,-31.42 0,-58.391 0,-58.391 0,0 -10.332,7.424 -26.517,5.432 -26.617,-3.279 -63.804,-11.172 -106.249,-42.008"
     style="fill:#231f20;fill-opacity:1;fill-rule:nonzero;stroke:none"
     id="path45881" />
  <path
     d="m 270.997,574.014 c -26.191,-19.033 -44.567,-45.573 -58.4,-72.976 -9.51,-18.791 -1.443,-18.166 -1.443,-18.166 0,0 5.441,2.448 8.401,-1.633 2.972,-4.088 3.69,-7.932 -2.436,-12.364 -6.116,-4.451 -15.416,-1.024 -19.061,4.004 -2.378,3.264 -7.617,9.294 -0.726,24.966 12.902,29.331 36.655,62.544 67.369,84.849 30.702,22.31 69.623,34.64 101.502,37.848 17.04,1.71 21.145,-5.137 23.529,-8.397 3.646,-5.04 4.036,-14.94 -2.084,-19.385 -6.114,-4.448 -9.546,-2.566 -12.513,1.506 -2.967,4.079 1.036,8.503 1.036,8.503 0,0 3.096,7.467 -17.719,4.245 -30.338,-4.697 -61.259,-13.966 -87.455,-33"
     style="fill:#231f20;fill-opacity:1;fill-rule:nonzero;stroke:none"
     id="path45885" />
  <path
     d="m 533.085,590.134 c -42.466,30.847 -79.641,38.729 -106.259,42.008 -16.191,1.992 -26.523,-5.423 -26.523,-5.423 0,0 0.023,26.962 0.012,58.382 -0.028,32.833 34.079,52.445 61.511,53.117 30.647,0.744 79.977,-13.652 138.183,-55.956 58.219,-42.292 87.167,-84.748 95.923,-114.128 7.841,-26.292 -0.279,-64.789 -31.508,-74.914 -29.902,-9.713 -55.526,-18.052 -55.526,-18.052 0,0 3.86,12.125 -3.036,26.896 -11.353,24.305 -30.326,57.234 -72.777,88.07"
     style="fill:#231f20;fill-opacity:1;fill-rule:nonzero;stroke:none"
     id="path45889" />
  <path
     d="m 521.369,574.014 c -26.196,19.034 -57.117,28.303 -87.455,33 -20.814,3.222 -17.731,-4.245 -17.731,-4.245 0,0 4.015,-4.424 1.048,-8.503 -2.965,-4.072 -6.397,-5.954 -12.512,-1.506 -6.125,4.445 -5.736,14.345 -2.069,19.385 2.358,3.26 6.473,10.107 23.513,8.397 31.879,-3.197 70.8,-15.538 101.513,-37.848 30.703,-22.305 54.455,-55.518 67.359,-84.849 6.889,-15.672 1.656,-21.697 -0.728,-24.966 -3.655,-5.028 -12.951,-8.455 -19.06,-4.004 -6.126,4.437 -5.408,8.285 -2.448,12.364 2.966,4.081 8.413,1.633 8.413,1.633 0,0 8.067,-0.625 -1.443,18.166 -13.833,27.414 -32.209,53.943 -58.4,72.976"
     style="fill:#231f20;fill-opacity:1;fill-rule:nonzero;stroke:none"
     id="path45893" />
  <path
     d="m 617.688,329.746 c 16.216,49.911 12.218,87.705 7.108,114.041 -3.1,16.005 -13.352,23.541 -13.352,23.541 0,0 25.646,8.307 55.536,18.033 31.208,10.161 60.408,-16.205 69.517,-42.088 10.188,-28.917 11.726,-80.278 -10.515,-148.711 -22.224,-68.446 -53.664,-109.092 -78.886,-126.499 -22.594,-15.58 -61.713,-19.749 -81.004,6.814 -18.463,25.438 -34.321,47.238 -34.321,47.238 0,0 12.726,0.067 24.641,11.199 19.621,18.294 45.064,46.533 61.276,96.432"
     style="fill:#231f20;fill-opacity:1;fill-rule:nonzero;stroke:none"
     id="path45897" />
  <path
     d="m 598.733,335.903 c 10.012,30.79 9.257,63.068 4.361,93.373 -3.366,20.789 -9.513,15.544 -9.513,15.544 0,0 -2.972,-5.18 -7.765,-3.623 -4.807,1.555 -7.639,4.251 -5.297,11.44 2.341,7.199 11.876,9.888 17.788,7.962 3.837,-1.246 11.619,-3.042 15.254,-19.779 6.809,-31.303 7.108,-72.131 -4.619,-108.228 -11.726,-36.104 -35.971,-68.957 -59.874,-90.286 -12.797,-11.399 -20.14,-8.274 -23.973,-7.034 -5.916,1.924 -12.048,9.707 -9.712,16.9 2.336,7.195 6.212,7.7 11.016,6.146 4.801,-1.562 4.153,-7.49 4.153,-7.49 0,0 1.892,-7.87 16.837,6.982 21.776,21.625 41.339,47.302 51.344,78.093"
     style="fill:#231f20;fill-opacity:1;fill-rule:nonzero;stroke:none"
     id="path45901" />
</svg>
