<?xml version="1.0" encoding="UTF-8" standalone="no"?>
<!-- Created with Inkscape (http://www.inkscape.org/) -->

<svg
   sodipodi:docname="Gokani Mitsumatsu.svg"
   viewBox="0 0 793.70135 793.70135"
   height="793.70135"
   width="793.70135"
   id="svg41390"
   version="1.1"
   inkscape:version="1.2 (dc2aeda, 2022-05-15)"
   xmlns:inkscape="http://www.inkscape.org/namespaces/inkscape"
   xmlns:sodipodi="http://sodipodi.sourceforge.net/DTD/sodipodi-0.dtd"
   xmlns="http://www.w3.org/2000/svg"
   xmlns:svg="http://www.w3.org/2000/svg">

  <sodipodi:namedview
     id="namedview41392"
     pagecolor="#ffffff"
     bordercolor="#000000"
     borderopacity="0.25"
     inkscape:showpageshadow="2"
     inkscape:pageopacity="0.0"
     inkscape:pagecheckerboard="0"
     inkscape:deskcolor="#d1d1d1"
     showgrid="false"
     inkscape:zoom="0.21024124"
     inkscape:cx="-1234.2964"
     inkscape:cy="561.26001"
     inkscape:window-width="1419"
     inkscape:window-height="456"
     inkscape:window-x="0"
     inkscape:window-y="25"
     inkscape:window-maximized="0"
     inkscape:current-layer="svg41390">
    <inkscape:page
       x="0"
       y="0"
       id="page41396"
       width="793.70135"
       height="793.70135" />
  </sodipodi:namedview>
  <path
     d="m 333.13933,431.41455 v -0.0133 c 0,0.005 0,0.0107 0.005,0.0133 z m 49.70933,-40.192 c -0.0373,-0.04 -0.08,-0.068 -0.11866,-0.088 0.044,0.0227 0.0813,0.0533 0.11866,0.088 m -16.25466,7.944 c -0.0587,-0.0573 -0.12267,-0.0907 -0.17067,-0.10933 0.064,0.024 0.12267,0.0627 0.17067,0.10933 m 57.05199,0.96933 h -0.0107 z m 15.844,12.92667 c 0.005,-0.003 -0.005,-0.009 -0.016,-0.0333 0.005,0.0107 0.0107,0.024 0.016,0.0333 m -107.16799,19 c -0.064,-0.052 -0.128,-0.132 -0.17067,-0.24933 l -0.005,0.005 c 0.0307,0.008 -0.0227,0.132 0.176,0.244 m 0.43866,0.0973 c 0.0587,-0.0787 0.0427,0.036 0.37334,-0.27333 0.048,-0.0653 0.064,-0.15733 0.0587,-0.25333 h -0.544 l -0.06,0.52666 0.06,-0.50266 z"
     style="fill:#231f20;fill-opacity:1;fill-rule:nonzero;stroke:none;stroke-width:1.33333"
     id="path41410" />
  <path
     d="m 396.18,173.894 c 51.307,0 85.242,15.135 108.182,27.84 13.951,7.719 17.854,19.531 17.854,19.531 0,0 15.485,-21.338 33.554,-46.184 18.882,-25.962 3.18,-61.067 -18.14,-77.367 -23.802,-18.205 -71.093,-35.16 -141.45,-35.16 -70.346,0 -117.638,16.955 -141.452,35.16 -21.31,16.3 -37.009,51.405 -18.13,77.367 18.072,24.846 33.546,46.184 33.546,46.184 0,0 3.918,-11.812 17.851,-19.531 22.952,-12.705 56.878,-27.84 108.185,-27.84"
     style="fill:#231f20;fill-opacity:1;fill-rule:nonzero;stroke:none"
     id="path41414" />
  <path
     d="m 396.18,193.377 c 31.651,0 61.445,10.436 88.138,24.155 18.312,9.404 11.588,13.544 11.588,13.544 0,0 -5.718,1.192 -5.718,6.13 0,4.926 1.645,8.379 9.033,8.379 7.407,0 12.773,-8.055 12.773,-14.137 0,-3.942 0.686,-11.722 -13.778,-20.162 -27.047,-15.784 -64.927,-28.404 -102.036,-28.404 -37.1,0 -74.98,12.62 -102.028,28.404 -14.462,8.44 -13.777,16.22 -13.777,20.162 0,6.082 5.376,14.137 12.775,14.137 7.396,0 9.032,-3.453 9.032,-8.379 0,-4.938 -5.708,-6.13 -5.708,-6.13 0,0 -6.747,-4.14 11.576,-13.544 26.689,-13.719 56.487,-24.155 88.13,-24.155"
     style="fill:#231f20;fill-opacity:1;fill-rule:nonzero;stroke:none"
     id="path41418" />
  <path
     d="m 179.624,331.232 c 15.859,-48.792 40.729,-76.388 59.903,-94.284 11.661,-10.882 24.095,-10.946 24.095,-10.946 0,0 -15.512,-21.308 -33.546,-46.179 -18.868,-25.977 -57.107,-21.896 -79.192,-6.665 -24.673,17.021 -55.4065,56.76 -77.1451,123.667 -21.7386,66.914 -20.2306,117.131 -10.2786,145.405 8.9106,25.304 37.4537,51.086 67.9727,41.146 29.222,-9.506 54.311,-17.644 54.311,-17.644 0,0 -10.037,-7.354 -13.073,-23.007 -4.992,-25.745 -8.906,-62.7 6.953,-111.493"
     style="fill:#231f20;fill-opacity:1;fill-rule:nonzero;stroke:none"
     id="path41422" />
  <path
     d="m 198.156,337.254 c 9.781,-30.101 28.917,-55.212 50.201,-76.354 14.603,-14.518 16.458,-6.826 16.458,-6.826 0,0 -0.626,5.796 4.077,7.319 4.693,1.529 8.466,1.033 10.754,-6.001 2.287,-7.035 -3.709,-14.643 -9.502,-16.522 -3.743,-1.218 -10.927,-4.27 -23.423,6.876 -23.378,20.848 -47.068,52.973 -58.549,88.265 -11.471,35.291 -11.172,75.211 -4.512,105.82 3.549,16.355 11.172,18.117 14.913,19.336 5.794,1.88 15.115,-0.745 17.392,-7.787 2.288,-7.025 -0.48,-9.661 -5.184,-11.182 -4.672,-1.523 -7.58,3.529 -7.58,3.529 0,0 -6.022,5.143 -9.31,-15.191 -4.8,-29.623 -5.516,-61.177 4.265,-91.282"
     style="fill:#231f20;fill-opacity:1;fill-rule:nonzero;stroke:none"
     id="path41426" />
  <path
     d="m 262.35,585.821 c -41.521,-30.153 -60.068,-62.347 -71.165,-86.12 -6.745,-14.432 -2.971,-26.292 -2.971,-26.292 0,0 -25.048,8.155 -54.28,17.66 -30.541,9.898 -38.4782,47.523 -30.813,73.231 8.563,28.734 36.848,70.245 93.778,111.589 56.91,41.366 105.143,55.445 135.101,54.718 26.827,-0.669 60.155,-19.836 60.138,-51.95 -0.011,-30.716 0,-57.084 0,-57.084 0,0 -10.087,7.264 -25.914,5.313 C 340.2,623.69 303.838,615.966 262.35,585.821"
     style="fill:#231f20;fill-opacity:1;fill-rule:nonzero;stroke:none"
     id="path41430" />
  <path
     d="m 273.788,570.063 c -25.603,-18.623 -43.572,-44.552 -57.096,-71.357 -9.3,-18.375 -1.405,-17.757 -1.405,-17.757 0,0 5.318,2.39 8.216,-1.602 2.906,-3.997 3.601,-7.756 -2.384,-12.089 -5.976,-4.351 -15.073,-1.001 -18.639,3.915 -2.336,3.193 -7.445,9.09 -0.71,24.418 12.619,28.669 35.843,61.141 65.866,82.953 30.023,21.808 68.069,33.863 99.232,37.006 16.665,1.666 20.678,-5.02 23.004,-8.206 3.57,-4.937 3.944,-14.614 -2.036,-18.964 -5.976,-4.345 -9.334,-2.508 -12.236,1.48 -2.891,3.987 1.016,8.312 1.016,8.312 0,0 3.026,7.298 -17.318,4.154 -29.665,-4.602 -59.897,-13.662 -85.51,-32.263"
     style="fill:#231f20;fill-opacity:1;fill-rule:nonzero;stroke:none"
     id="path41434" />
  <path
     d="m 530.029,585.821 c -41.521,30.156 -77.861,37.869 -103.885,41.065 -15.833,1.951 -25.928,-5.302 -25.928,-5.302 0,0 0.025,26.357 0.015,57.073 -0.038,32.114 33.312,51.281 60.126,51.94 29.969,0.737 78.193,-13.342 135.101,-54.708 56.92,-41.344 85.227,-82.855 93.779,-111.579 7.674,-25.708 -0.274,-63.343 -30.796,-73.241 -29.24,-9.505 -54.287,-17.66 -54.287,-17.66 0,0 3.773,11.86 -2.972,26.303 -11.096,23.762 -29.648,55.956 -71.153,86.109"
     style="fill:#231f20;fill-opacity:1;fill-rule:nonzero;stroke:none"
     id="path41438" />
  <path
     d="m 518.581,570.063 c -25.625,18.601 -55.847,27.661 -85.51,32.263 -20.344,3.144 -17.339,-4.154 -17.339,-4.154 0,0 3.928,-4.325 1.027,-8.312 -2.894,-3.988 -6.251,-5.825 -12.224,-1.48 -5.992,4.35 -5.619,14.027 -2.027,18.964 2.304,3.186 6.328,9.872 22.995,8.206 31.161,-3.132 69.206,-15.198 99.234,-37.006 30.019,-21.812 53.243,-54.284 65.862,-82.953 6.724,-15.328 1.624,-21.221 -0.712,-24.418 -3.574,-4.916 -12.661,-8.266 -18.637,-3.915 -5.986,4.339 -5.292,8.103 -2.388,12.089 2.896,3.992 8.219,1.602 8.219,1.602 0,0 7.885,-0.618 -1.404,17.757 -13.523,26.805 -31.495,52.734 -57.096,71.357"
     style="fill:#231f20;fill-opacity:1;fill-rule:nonzero;stroke:none"
     id="path41442" />
  <path
     d="m 612.745,331.232 c 15.857,48.799 11.945,85.748 6.953,111.498 -3.036,15.648 -13.062,23.012 -13.062,23.012 0,0 25.078,8.128 54.3,17.634 30.509,9.94 59.061,-15.842 67.973,-41.146 9.95,-28.274 11.458,-78.486 -10.29,-145.393 -21.729,-66.919 -52.462,-106.658 -77.123,-123.679 -22.098,-15.231 -60.336,-19.307 -79.204,6.665 -18.044,24.871 -33.544,46.184 -33.544,46.184 0,0 12.432,0.064 24.093,10.947 19.175,17.89 44.044,45.497 59.904,94.278"
     style="fill:#231f20;fill-opacity:1;fill-rule:nonzero;stroke:none"
     id="path41446" />
  <path
     d="m 594.214,337.254 c 9.781,30.105 9.055,61.664 4.265,91.288 -3.289,20.328 -9.301,15.196 -9.301,15.196 0,0 -2.907,-5.063 -7.6,-3.54 -4.695,1.521 -7.463,4.157 -5.173,11.182 2.285,7.042 11.609,9.67 17.392,7.787 3.75,-1.213 11.362,-2.976 14.912,-19.336 6.658,-30.604 6.958,-70.524 -4.511,-105.814 -11.471,-35.298 -35.172,-67.416 -58.539,-88.271 -12.508,-11.141 -19.693,-8.089 -23.442,-6.876 -5.784,1.879 -11.781,9.487 -9.495,16.522 2.279,7.034 6.074,7.53 10.766,6.006 4.693,-1.522 4.067,-7.318 4.067,-7.318 0,0 1.854,-7.698 16.459,6.825 21.293,21.142 40.419,46.248 50.2,76.349"
     style="fill:#231f20;fill-opacity:1;fill-rule:nonzero;stroke:none"
     id="path41450" />
  <path
     d="m 519.901,317.776 c -0.091,0.021 -12.443,13.019 -20.552,13.737 -0.7,0.046 -1.421,0.068 -2.128,0.068 -12.859,-0.009 -26.825,-8.462 -42.247,-19.48 -17.729,-12.706 -39.302,-20.464 -62.771,-20.473 -23.482,0.009 -45.059,7.767 -62.788,20.473 -15.441,11.028 -29.409,19.458 -42.253,19.48 -0.722,0 -1.438,-0.034 -2.118,-0.068 -8.108,-0.718 -20.458,-13.716 -20.55,-13.737 -0.24,-0.251 -0.268,-0.652 -0.027,-0.917 0.231,-0.272 0.631,-0.318 0.919,-0.111 0.01,-0.015 3.694,2.583 8.29,5.18 4.614,2.585 10.135,5.18 13.828,5.18 h 0.16 c 0.679,0 1.359,-0.027 2.047,-0.077 l -2.48,-1.855 c -12.961,-9.688 -21.08,-17.499 -21.091,-17.513 -0.252,-0.24 -0.289,-0.628 -0.081,-0.903 0.22,-0.276 0.584,-0.355 0.893,-0.181 0.011,0.009 9.664,5.478 22.759,15.257 l 5.741,4.284 c 2.255,-0.556 4.543,-1.343 6.879,-2.328 l -0.881,-0.663 c -12.935,-9.722 -21.05,-17.548 -21.05,-17.558 -0.25,-0.242 -0.282,-0.628 -0.08,-0.904 0.21,-0.275 0.588,-0.356 0.892,-0.184 0.016,0 9.66,5.492 22.718,15.317 l 2.613,2.004 c 2.604,-1.327 5.239,-2.86 8.007,-4.6 l -3.138,-2.345 c -12.945,-9.69 -21.058,-17.526 -21.069,-17.536 -0.251,-0.242 -0.284,-0.618 -0.08,-0.904 0.208,-0.275 0.581,-0.355 0.891,-0.18 0.012,0.009 9.664,5.5 22.754,15.29 l 4.372,3.262 c 2.647,-1.778 5.404,-3.704 8.264,-5.755 l -8.541,-6.427 c -12.904,-9.746 -20.979,-17.604 -21.001,-17.628 -0.239,-0.24 -0.267,-0.628 -0.07,-0.902 0.215,-0.266 0.595,-0.346 0.894,-0.171 0.021,0 9.642,5.533 22.678,15.383 l 9.632,7.257 c 2.475,-1.651 5.024,-3.209 7.623,-4.665 l -6.671,-5.154 c -12.813,-9.861 -20.82,-17.788 -20.829,-17.809 -0.252,-0.24 -0.275,-0.631 -0.059,-0.905 0.208,-0.263 0.582,-0.343 0.882,-0.172 0.02,0.012 9.593,5.628 22.545,15.602 l 8.108,6.264 c 3.073,-1.566 6.216,-2.998 9.44,-4.284 l -1.663,-1.248 c -12.856,-9.802 -20.92,-17.684 -20.943,-17.694 -0.24,-0.24 -0.272,-0.631 -0.069,-0.903 0.208,-0.276 0.599,-0.345 0.893,-0.171 0.022,0 9.632,5.559 22.636,15.451 l 3.8,2.841 c 3.096,-1.084 6.255,-2.049 9.467,-2.858 l -9.355,-7.211 c -12.764,-9.94 -20.728,-17.915 -20.748,-17.925 -0.241,-0.251 -0.264,-0.627 -0.06,-0.903 0.22,-0.276 0.599,-0.341 0.894,-0.171 0.014,0.01 9.562,5.672 22.454,15.718 l 12.031,9.281 c 3.421,-0.693 6.896,-1.215 10.413,-1.575 l -9.36,-7.434 c -12.636,-10.099 -20.498,-18.176 -20.509,-18.187 -0.24,-0.251 -0.261,-0.641 -0.053,-0.904 0.213,-0.275 0.604,-0.344 0.893,-0.16 0.021,0.011 9.492,5.789 22.267,16.003 l 12.85,10.214 c 1.042,-0.05 2.063,-0.08 3.106,-0.096 -0.012,-2.528 -0.007,-5.625 0,-9.065 l -7.991,-6.429 c -12.584,-10.17 -20.376,-18.278 -20.387,-18.292 -0.241,-0.251 -0.252,-0.638 -0.042,-0.903 0.213,-0.263 0.604,-0.332 0.893,-0.147 0.02,0.011 9.455,5.831 22.165,16.115 l 5.367,4.296 v -10.653 c -12.064,-10.29 -19.527,-18.385 -19.541,-18.395 -0.242,-0.262 -0.242,-0.642 -0.023,-0.904 0.22,-0.261 0.609,-0.32 0.893,-0.136 0.022,0.011 7.826,5.078 18.687,14.044 0.197,-13.862 1.379,-23.128 1.379,-23.138 0.042,-0.343 0.332,-0.596 0.684,-0.596 0.341,0 0.62,0.253 0.673,0.596 0,0.01 1.176,9.27 1.389,23.127 10.856,-8.958 18.664,-14.022 18.686,-14.033 0.289,-0.184 0.674,-0.125 0.893,0.136 0.219,0.262 0.203,0.652 -0.021,0.904 -0.01,0.01 -7.488,8.105 -19.542,18.395 0,3.608 -0.005,7.222 -0.01,10.653 l 5.368,-4.296 c 12.718,-10.284 22.153,-16.104 22.164,-16.115 0.289,-0.185 0.68,-0.129 0.893,0.147 0.219,0.265 0.197,0.652 -0.032,0.903 -0.023,0.014 -7.815,8.122 -20.397,18.292 l -7.98,6.421 v 9.073 c 1.037,0.016 2.069,0.046 3.105,0.096 l 12.851,-10.214 c 12.762,-10.214 22.234,-15.992 22.254,-16.003 0.29,-0.184 0.664,-0.115 0.894,0.16 0.208,0.263 0.182,0.653 -0.052,0.904 0,0.011 -7.875,8.088 -20.516,18.187 l -9.352,7.434 c 3.516,0.36 7.001,0.882 10.422,1.575 l 12.022,-9.281 c 12.901,-10.046 22.437,-15.708 22.453,-15.718 0.293,-0.17 0.684,-0.105 0.888,0.171 0.219,0.276 0.187,0.663 -0.055,0.903 -0.01,0.01 -7.974,7.985 -20.737,17.925 l -9.36,7.213 c 3.216,0.81 6.365,1.772 9.472,2.856 l 3.789,-2.841 c 13.006,-9.892 22.624,-15.451 22.645,-15.451 0.3,-0.185 0.675,-0.105 0.883,0.171 0.213,0.272 0.183,0.663 -0.071,0.903 -0.009,0.01 -8.074,7.892 -20.945,17.694 l -1.658,1.248 c 3.218,1.286 6.373,2.715 9.445,4.282 l 8.104,-6.262 c 12.961,-9.974 22.524,-15.59 22.545,-15.602 0.299,-0.171 0.673,-0.102 0.893,0.172 0.203,0.274 0.182,0.665 -0.06,0.905 -0.021,0.021 -8.016,7.948 -20.838,17.809 l -6.672,5.151 c 2.604,1.459 5.148,3.017 7.617,4.668 l 9.637,-7.257 c 13.038,-9.85 22.667,-15.383 22.688,-15.383 0.299,-0.185 0.68,-0.104 0.883,0.171 0.208,0.274 0.183,0.662 -0.071,0.902 -0.01,0.024 -8.096,7.882 -21,17.628 l -8.536,6.432 c 2.872,2.051 5.62,3.978 8.266,5.755 l 4.377,-3.267 c 13.079,-9.79 22.732,-15.281 22.753,-15.29 0.299,-0.175 0.675,-0.095 0.883,0.18 0.213,0.286 0.169,0.662 -0.071,0.904 -0.01,0.01 -8.134,7.846 -21.08,17.536 l -3.133,2.348 c 2.768,1.74 5.404,3.27 8.013,4.597 l 2.596,-2.004 c 13.076,-9.825 22.706,-15.317 22.724,-15.317 0.304,-0.182 0.683,-0.102 0.886,0.184 0.208,0.276 0.177,0.662 -0.082,0.904 0,0.01 -8.106,7.836 -21.03,17.558 l -0.888,0.663 c 2.341,0.989 4.62,1.772 6.874,2.328 l 5.735,-4.284 c 13.101,-9.779 22.755,-15.248 22.765,-15.257 0.3,-0.174 0.688,-0.095 0.891,0.181 0.208,0.275 0.172,0.663 -0.077,0.903 -0.014,0.014 -8.131,7.825 -21.082,17.513 l -2.486,1.852 c 0.68,0.049 1.356,0.075 2.041,0.08 0.032,0 0.123,-0.011 0.172,0 7.364,0.015 22.085,-10.329 22.107,-10.36 0.289,-0.207 0.69,-0.161 0.92,0.111 0.233,0.265 0.213,0.666 -0.027,0.917 m -14.683,-41.429 c -12.749,-5.042 -18.489,-5.234 -18.489,-5.234 0,0 -1.875,-18.65 -22.325,-27.555 -21.628,-9.419 -39.063,1.742 -39.063,1.742 0,0 -6.861,-18.136 -33.138,-18.136 -26.276,0 -33.134,18.136 -33.134,18.136 0,0 -17.441,-11.161 -39.068,-1.742 -20.45,8.905 -22.319,27.555 -22.319,27.555 0,0 -5.742,0.192 -18.495,5.234 -14.997,5.926 -30.692,31.392 -16.04,49.877 17.953,22.655 42.204,10.812 67.854,-7.544 17.843,-12.775 37.576,-20.593 61.202,-20.593 23.625,0 43.357,7.818 61.206,20.593 25.651,18.356 49.901,30.199 67.853,7.544 14.647,-18.485 -1.046,-43.951 -16.044,-49.877"
     style="fill:#231f20;fill-opacity:1;fill-rule:nonzero;stroke:none"
     id="path41454" />
  <path
     d="m 433.242,353.243 c -0.227,0.219 -0.508,0.333 -0.781,0.333 -0.364,0 -0.738,-0.197 -0.984,-0.582 v -0.007 c -2.704,-4.175 -7.503,-8.979 -15.987,-8.996 -8.248,0.025 -12.619,4.543 -15.056,8.587 -0.407,0.686 -1.197,0.833 -1.764,0.336 -0.556,-0.514 -0.684,-1.48 -0.273,-2.174 2.742,-4.646 8.034,-9.882 17.093,-9.86 9.317,-0.013 14.965,5.48 17.965,10.182 0.427,0.676 0.342,1.652 -0.213,2.181 m -3.432,5.759 c -0.589,0.446 -1.371,0.226 -1.732,-0.506 v -0.014 c -1.62,-3.184 -5.133,-8.187 -12.497,-8.21 -7.659,0.036 -10.684,5.379 -11.972,8.484 -0.215,0.559 -0.67,0.882 -1.134,0.882 -0.181,0 -0.373,-0.054 -0.556,-0.16 -0.62,-0.384 -0.876,-1.302 -0.572,-2.08 1.427,-3.71 5.484,-10.259 14.234,-10.234 8.413,-0.017 12.828,5.98 14.645,9.708 0.371,0.732 0.183,1.686 -0.416,2.13 m -31.332,-50.964 c 0.683,-0.323 1.4,0.048 1.613,0.833 1.102,3.979 3.71,8.661 10.284,11.641 1.367,0.62 2.687,1.07 3.93,1.4 5.374,1.41 9.432,0.354 12.18,-0.996 1.364,-0.674 2.405,-1.433 3.096,-2.016 0.677,-0.581 0.956,-0.924 0.966,-0.916 0.523,-0.625 1.326,-0.656 1.796,-0.064 0.464,0.574 0.418,1.552 -0.106,2.172 -0.14,0.206 -6.896,7.94 -18.678,4.832 -1.345,-0.356 -2.762,-0.846 -4.236,-1.512 -7.184,-3.201 -10.396,-8.681 -11.653,-13.365 -0.225,-0.785 0.16,-1.681 0.808,-2.009 m 3.72,-4.815 c 0.679,-0.309 1.389,0.072 1.592,0.864 l 0.005,-0.005 c 0.91,3.473 3.139,7.752 9.272,10.205 1.232,0.48 2.391,0.824 3.487,1.056 4.587,0.976 7.985,-0.02 10.251,-1.219 1.145,-0.601 1.989,-1.249 2.544,-1.74 0.557,-0.492 0.754,-0.774 0.76,-0.758 0.513,-0.635 1.326,-0.688 1.808,-0.12 0.478,0.561 0.458,1.534 -0.066,2.174 -0.133,0.21 -5.734,6.888 -15.95,4.7 -1.208,-0.254 -2.468,-0.637 -3.795,-1.158 -6.808,-2.664 -9.695,-7.818 -10.759,-12 -0.197,-0.792 0.183,-1.683 0.851,-1.999 m -15.459,6.824 c -1.261,4.684 -4.469,10.164 -11.652,13.365 -1.476,0.666 -2.892,1.156 -4.244,1.512 -11.781,3.108 -18.535,-4.626 -18.67,-4.832 -0.528,-0.62 -0.571,-1.598 -0.112,-2.172 0.471,-0.592 1.277,-0.561 1.807,0.064 0.012,-0.008 0.278,0.335 0.961,0.916 0.685,0.583 1.732,1.342 3.091,2.016 2.752,1.35 6.809,2.406 12.185,0.996 1.241,-0.33 2.556,-0.78 3.924,-1.4 6.58,-2.98 9.184,-7.662 10.29,-11.641 0.214,-0.785 0.924,-1.156 1.608,-0.833 0.652,0.328 1.038,1.224 0.812,2.009 m -0.998,42.867 c -0.574,0.497 -1.354,0.35 -1.77,-0.336 -2.432,-4.044 -6.805,-8.562 -15.052,-8.587 -8.487,0.017 -13.287,4.821 -15.991,8.996 l 0.005,0.007 c -0.247,0.385 -0.62,0.582 -0.989,0.582 -0.268,0 -0.551,-0.114 -0.782,-0.333 -0.55,-0.529 -0.64,-1.505 -0.208,-2.181 2.999,-4.702 8.644,-10.195 17.965,-10.182 9.06,-0.022 14.347,5.214 17.094,9.86 0.406,0.694 0.277,1.66 -0.272,2.174 m -3.255,6.564 c -0.177,0.106 -0.376,0.16 -0.556,0.16 -0.46,0 -0.915,-0.323 -1.123,-0.882 -1.294,-3.105 -4.318,-8.448 -11.984,-8.484 -7.365,0.023 -10.871,5.026 -12.491,8.21 v 0.014 c -0.368,0.732 -1.144,0.952 -1.736,0.506 -0.6,-0.444 -0.782,-1.398 -0.412,-2.13 1.816,-3.728 6.232,-9.725 14.639,-9.708 8.755,-0.025 12.818,6.524 14.239,10.234 0.3,0.778 0.043,1.696 -0.576,2.08 M 352.5,311.506 c 0.47,-0.568 1.282,-0.515 1.796,0.12 0.01,-0.016 0.208,0.266 0.769,0.758 0.545,0.491 1.389,1.139 2.539,1.74 2.261,1.199 5.661,2.195 10.251,1.219 1.096,-0.232 2.256,-0.576 3.48,-1.056 6.136,-2.453 8.371,-6.732 9.279,-10.205 l 0.011,0.005 c 0.193,-0.792 0.909,-1.173 1.582,-0.864 0.674,0.316 1.048,1.207 0.855,1.999 -1.064,4.182 -3.956,9.336 -10.759,12 -1.32,0.521 -2.592,0.904 -3.801,1.158 -10.209,2.188 -15.81,-4.49 -15.949,-4.7 -0.519,-0.64 -0.54,-1.613 -0.053,-2.174 m 110.081,17.55 c -0.36,-0.285 -7.43,-4.877 -11.199,-7.55 -7.28,-5.211 -15.203,-9.578 -23.645,-12.884 -1.823,1.538 -4.523,2.932 -8.243,2.921 -0.877,0 -1.801,-0.069 -2.765,-0.229 -6.284,-1.054 -9.304,-5.41 -10.582,-8.527 -5.12,-0.817 -8.525,-1.229 -13.945,-1.229 -5.431,0 -8.835,0.412 -13.956,1.229 -1.277,3.117 -4.292,7.473 -10.584,8.527 -0.983,0.16 -1.906,0.24 -2.773,0.229 -3.731,0.011 -6.429,-1.383 -8.221,-2.919 -8.444,3.307 -16.376,7.674 -23.656,12.882 -3.768,2.673 -10.84,7.265 -11.203,7.561 -0.129,0.093 -0.172,0.219 -0.172,0.275 0.011,0.056 0,0.036 0.124,0.182 3.953,5.247 12.041,9.812 12.064,9.812 l 0.208,0.127 0.091,0.229 1.277,3.336 -0.172,0.287 c 0.012,0.011 -4.125,6.935 -4.319,12.348 -0.122,3.017 -0.16,5.017 -0.16,6.228 0,0.352 0.006,0.636 0.006,0.855 h 26.014 c 0.668,-1.923 3.559,-8.608 11.352,-8.659 7.757,0.048 10.225,6.684 10.781,8.659 h 26.588 c 0.56,-1.975 3.024,-8.611 10.784,-8.659 7.792,0.051 10.68,6.736 11.352,8.659 h 26 c 0.006,-0.214 0.006,-0.486 0.006,-0.82 0,-1.2 -0.031,-3.223 -0.151,-6.263 -0.191,-5.413 -4.292,-12.337 -4.319,-12.348 l -0.17,-0.287 0.116,-0.308 1.248,-3.257 0.224,-0.127 c 0,-0.01 8.09,-4.565 12.101,-9.868 0.052,-0.07 0.052,-0.081 0.068,-0.126 0,-0.035 -0.057,-0.195 -0.169,-0.286"
     style="fill:#231f20;fill-opacity:1;fill-rule:nonzero;stroke:none"
     id="path41458" />
  <path
     d="m 383.238,561.355 c -0.095,0.339 -0.432,0.563 -0.78,0.487 -0.353,-0.066 -0.587,-0.391 -0.556,-0.742 -0.016,-0.005 0.391,-4.496 0.343,-9.772 -0.07,-5.285 -0.584,-11.369 -2.427,-14.564 -0.016,-0.021 -0.044,-0.07 -0.08,-0.141 -0.343,-0.585 -0.705,-1.164 -1.091,-1.732 l -0.369,3.076 c -1.908,16.065 -4.613,27.008 -4.619,27.019 -0.084,0.341 -0.4,0.566 -0.741,0.522 -0.348,-0.052 -0.599,-0.325 -0.604,-0.684 0,-0.01 -0.092,-11.108 1.833,-27.333 l 0.839,-7.12 c -1.609,-1.672 -3.432,-3.261 -5.457,-4.789 l -0.135,1.09 c -1.951,16.066 -4.671,27.003 -4.683,27.014 -0.078,0.336 -0.398,0.554 -0.736,0.518 -0.342,-0.042 -0.604,-0.33 -0.609,-0.68 -0.005,-0.016 -0.069,-11.112 1.907,-27.333 l 0.429,-3.26 c -2.448,-1.595 -5.095,-3.112 -7.987,-4.641 l -0.464,3.893 c -1.914,16.055 -4.645,27.003 -4.65,27.013 -0.08,0.342 -0.391,0.555 -0.743,0.523 -0.343,-0.041 -0.599,-0.331 -0.604,-0.684 0.005,-0.011 -0.064,-11.117 1.871,-27.349 l 0.636,-5.416 c -2.866,-1.404 -5.912,-2.832 -9.114,-4.282 l -1.298,10.612 c -1.988,16.044 -4.758,26.971 -4.763,27.003 -0.092,0.325 -0.412,0.544 -0.748,0.512 -0.337,-0.055 -0.599,-0.341 -0.599,-0.689 -0.01,-0.016 -0.028,-11.118 1.983,-27.328 l 1.471,-11.975 c -2.668,-1.315 -5.292,-2.747 -7.854,-4.268 l -1.122,8.352 c -2.138,16.025 -4.998,26.929 -5.012,26.945 -0.082,0.336 -0.407,0.55 -0.755,0.508 -0.331,-0.056 -0.588,-0.336 -0.588,-0.685 0,-0.021 0.075,-11.117 2.239,-27.323 l 1.369,-10.157 c -2.891,-1.875 -5.704,-3.883 -8.428,-6.031 l -0.247,2.063 c -2.064,16.039 -4.859,26.964 -4.853,26.984 -0.09,0.331 -0.412,0.549 -0.748,0.513 -0.342,-0.041 -0.598,-0.346 -0.594,-0.69 -0.01,-0.015 -0.004,-11.122 2.064,-27.328 l 0.555,-4.711 c -2.485,-2.137 -4.901,-4.393 -7.205,-6.768 l -1.572,11.705 c -2.222,16.022 -5.146,26.904 -5.146,26.932 -0.096,0.336 -0.412,0.54 -0.754,0.503 -0.346,-0.049 -0.593,-0.348 -0.593,-0.689 0,-0.016 0.133,-11.118 2.384,-27.303 l 2.025,-15.06 c -2.314,-2.617 -4.5,-5.366 -6.574,-8.232 l -1.758,11.824 c -2.426,15.992 -5.489,26.841 -5.494,26.851 -0.098,0.336 -0.424,0.549 -0.755,0.502 -0.347,-0.049 -0.604,-0.353 -0.588,-0.694 0,-0.022 0.268,-11.115 2.727,-27.284 l 2.42,-16.237 c -0.567,-0.875 -1.1,-1.747 -1.635,-2.643 -2.187,1.276 -4.869,2.82 -7.852,4.533 l -1.572,10.139 c -2.516,15.978 -5.639,26.784 -5.649,26.798 -0.096,0.331 -0.427,0.535 -0.759,0.492 -0.331,-0.06 -0.588,-0.364 -0.572,-0.705 0,-0.023 0.32,-11.101 2.869,-27.252 l 1.039,-6.794 c -2.967,1.713 -6.1,3.524 -9.225,5.328 -2.878,15.59 -6.159,26.098 -6.159,26.119 -0.107,0.339 -0.439,0.528 -0.776,0.471 -0.335,-0.06 -0.581,-0.369 -0.56,-0.705 0,-0.023 0.487,-9.318 2.817,-23.205 -12.101,6.757 -20.717,10.369 -20.728,10.374 -0.316,0.134 -0.68,0.011 -0.856,-0.294 -0.17,-0.296 -0.09,-0.664 0.176,-0.883 0.011,-0.005 7.44,-5.651 19.339,-12.765 -13.187,-4.924 -21.476,-9.154 -21.497,-9.167 -0.304,-0.159 -0.45,-0.521 -0.331,-0.841 0.116,-0.323 0.464,-0.5 0.796,-0.435 0.015,0.005 10.764,2.432 25.699,7.727 3.126,-1.806 6.258,-3.607 9.23,-5.315 l -6.404,-2.503 c -15.265,-5.873 -25.018,-11.133 -25.036,-11.138 -0.305,-0.159 -0.453,-0.523 -0.32,-0.844 0.118,-0.323 0.464,-0.498 0.796,-0.424 0.027,0.01 10.942,2.705 26.042,8.518 l 9.552,3.7 c 2.982,-1.721 5.665,-3.273 7.856,-4.538 -0.503,-0.907 -0.994,-1.814 -1.47,-2.738 l -15.269,-6.021 c -15.229,-5.945 -24.968,-11.26 -24.989,-11.273 -0.304,-0.156 -0.428,-0.515 -0.304,-0.851 0.122,-0.313 0.469,-0.485 0.805,-0.407 0.012,-0.005 10.941,2.774 26.009,8.672 l 11.114,4.383 c -1.444,-3.227 -2.738,-6.505 -3.844,-9.812 l -14.052,-5.772 c -15.147,-6.151 -24.822,-11.577 -24.839,-11.585 -0.293,-0.17 -0.432,-0.542 -0.293,-0.855 0.128,-0.325 0.481,-0.495 0.808,-0.405 0.014,0.005 10.904,2.913 25.89,8.997 l 10.931,4.5 c -0.908,-3.193 -1.652,-6.399 -2.267,-9.631 l -4.35,-1.861 c -15.072,-6.319 -24.694,-11.868 -24.706,-11.885 -0.309,-0.17 -0.426,-0.535 -0.293,-0.852 0.128,-0.32 0.481,-0.487 0.819,-0.394 0.009,0.008 10.87,3.05 25.793,9.298 l 1.909,0.809 c -0.492,-3.429 -0.834,-6.875 -1.016,-10.32 l -9.47,-3.888 c -15.122,-6.237 -24.764,-11.708 -24.786,-11.721 -0.3,-0.175 -0.422,-0.535 -0.3,-0.86 0.14,-0.312 0.487,-0.49 0.814,-0.402 0.032,0.008 10.893,2.97 25.848,9.142 l 7.793,3.202 c -0.037,-2.981 0.037,-5.965 0.236,-8.929 l -11.108,-4.717 c -15.045,-6.366 -24.656,-11.94 -24.667,-11.959 -0.305,-0.165 -0.428,-0.535 -0.289,-0.849 0.133,-0.319 0.481,-0.49 0.817,-0.391 0.022,-0.003 10.874,3.071 25.764,9.372 l 9.84,4.177 c 0.342,-3.512 0.636,-6.856 0.85,-10.034 l -5.014,-2.156 c -15.018,-6.432 -24.604,-12.05 -24.624,-12.059 -0.3,-0.175 -0.417,-0.539 -0.284,-0.856 0.144,-0.329 0.492,-0.481 0.819,-0.393 0.016,0.005 10.865,3.122 25.725,9.49 l 3.603,1.538 c 0.123,-3.267 0.128,-6.316 -0.027,-9.238 l -3.036,-1.248 c -15.041,-6.408 -24.614,-12.005 -24.625,-12.017 -0.309,-0.174 -0.428,-0.544 -0.283,-0.861 0.134,-0.317 0.487,-0.484 0.823,-0.383 0.012,-0.005 10.84,3.103 25.721,9.435 l 1.02,0.437 c -0.314,-2.521 -0.776,-4.885 -1.421,-7.117 l -6.58,-2.824 c -15.02,-6.457 -24.581,-12.081 -24.593,-12.084 -0.299,-0.175 -0.427,-0.551 -0.288,-0.864 0.133,-0.321 0.486,-0.481 0.822,-0.383 0.016,0 10.84,3.128 25.706,9.499 l 2.848,1.227 c -0.299,-0.612 -0.614,-1.214 -0.951,-1.81 -0.016,-0.026 -0.075,-0.1 -0.087,-0.148 -3.672,-6.384 -19.989,-13.96 -20.026,-13.962 -0.322,-0.148 -0.488,-0.519 -0.364,-0.854 0.112,-0.336 0.47,-0.518 0.808,-0.434 0.064,0.066 17.493,4.268 22.17,10.929 0.391,0.584 0.776,1.196 1.127,1.808 6.421,11.141 6.084,27.465 4.251,46.328 -2.139,21.705 1.929,44.268 13.656,64.596 11.748,20.332 29.253,35.143 49.126,44.141 17.269,7.861 31.552,15.742 37.999,26.854 0.357,0.624 0.682,1.26 0.993,1.864 3.432,7.388 -1.647,24.576 -1.62,24.667 m -32.471,-58.049 c -19.985,-9.063 -36.618,-22.243 -48.431,-42.703 -11.812,-20.461 -14.912,-41.461 -12.775,-63.304 3.075,-31.393 1.204,-58.317 -27.393,-62.535 -23.331,-3.44 -37.539,22.881 -35.171,38.833 2.011,13.561 4.715,18.628 4.715,18.628 0,0 -15.218,10.953 -12.706,33.112 2.658,23.44 21.044,32.958 21.044,32.958 0,0 -12.277,15.011 0.86,37.768 13.139,22.759 32.274,19.631 32.274,19.631 0,0 -0.946,20.685 18.025,34.7 17.937,13.256 35.025,5.552 35.025,5.552 0,0 3.035,4.876 13.779,13.401 12.63,10.027 42.53,10.883 51.216,-11.049 10.642,-26.875 -11.738,-41.954 -40.462,-54.992"
     style="fill:#231f20;fill-opacity:1;fill-rule:nonzero;stroke:none"
     id="path41462" />
  <path
     d="m 372.255,464.133 c -4.139,0.292 -11.54,-0.533 -15.731,-7.823 -4.4,-7.57 -0.758,-14.365 1.743,-17.45 0.523,-0.646 1.448,-0.886 2.089,-0.539 0.182,0.099 0.326,0.244 0.418,0.4 0.23,0.399 0.176,0.953 -0.204,1.415 -2.042,2.672 -5.152,7.964 -1.351,14.617 3.697,6.369 9.785,6.904 13.351,6.716 l 0.016,-0.008 c 0.817,-0.047 1.396,0.513 1.305,1.251 -0.087,0.741 -0.819,1.377 -1.636,1.421 m -1.637,4.432 c -0.18,0.74 -0.983,1.308 -1.784,1.268 -5.57,-0.244 -13.15,-2.385 -17.799,-10.463 -4.549,-7.836 -2.656,-15.034 -0.005,-19.734 0.394,-0.698 1.298,-1.074 2.014,-0.852 0.716,0.248 0.984,0.994 0.594,1.701 -2.283,4.127 -4.01,10.172 0.09,17.328 4.26,7.341 10.819,9.099 15.79,9.351 v -0.007 c 0.46,0.02 0.818,0.244 1,0.564 0.133,0.232 0.176,0.535 0.1,0.844 m -25.783,-39.656 c -5.393,-0.052 -12.577,-2.016 -17.089,-9.875 -4.666,-8.06 -2.731,-15.701 -0.16,-20.649 0.368,-0.705 1.256,-1.121 1.993,-0.904 0.305,0.085 0.545,0.272 0.68,0.511 0.181,0.313 0.197,0.737 -0.012,1.141 l -0.005,0.005 c -2.266,4.427 -4.024,10.987 0.198,18.342 4.148,7.129 10.246,8.658 14.966,8.746 0.802,0.008 1.321,0.62 1.176,1.36 -0.166,0.74 -0.94,1.331 -1.747,1.323 m -3.432,55.355 c -0.268,0.77 -1.096,1.296 -1.823,1.184 -0.748,-0.112 -1.122,-0.826 -0.85,-1.596 -0.01,-0.006 0.15,-0.41 0.316,-1.295 0.16,-0.88 0.293,-2.169 0.197,-3.681 -0.203,-3.058 -1.32,-7.1 -5.228,-11.05 -0.907,-0.909 -1.955,-1.824 -3.175,-2.701 -5.868,-4.205 -11.224,-4.12 -15.226,-3.088 -0.786,0.208 -1.46,-0.221 -1.524,-0.977 -0.043,-0.73 0.54,-1.511 1.33,-1.708 4.688,-1.25 11.038,-1.211 17.404,3.409 1.315,0.945 2.448,1.927 3.431,2.919 8.58,8.648 5.26,18.365 5.148,18.584 m -5.74,2.877 c -0.295,0.771 -1.128,1.276 -1.856,1.135 -0.732,-0.124 -1.089,-0.854 -0.796,-1.615 -0.016,0 0.128,-0.315 0.272,-1.049 0.151,-0.716 0.295,-1.771 0.241,-3.067 -0.096,-2.557 -0.929,-6 -4.073,-9.488 -0.748,-0.833 -1.629,-1.664 -2.656,-2.484 -5.189,-4.091 -10.012,-3.885 -13.475,-2.932 v -0.013 c -0.78,0.229 -1.47,-0.2 -1.538,-0.94 -0.066,-0.74 0.517,-1.508 1.302,-1.74 4.154,-1.17 10.06,-1.242 15.768,3.318 1.112,0.886 2.08,1.794 2.903,2.714 7.003,7.746 4.02,15.937 3.908,16.161 M 307.815,450.19 c -0.62,-0.432 -0.663,-1.237 -0.087,-1.812 2.898,-2.942 5.646,-7.545 4.94,-14.729 -0.15,-1.495 -0.417,-2.863 -0.754,-4.101 -1.464,-5.363 -4.41,-8.347 -6.953,-10.051 -1.262,-0.843 -2.443,-1.369 -3.292,-1.673 -0.846,-0.298 -1.278,-0.366 -1.278,-0.379 -0.802,-0.143 -1.229,-0.82 -0.952,-1.523 0.267,-0.69 1.139,-1.138 1.935,-0.994 0.245,0.014 10.321,2.002 13.522,13.757 0.364,1.344 0.648,2.817 0.808,4.427 0.823,7.824 -2.32,13.344 -5.746,16.773 -0.571,0.587 -1.539,0.701 -2.143,0.305 m -3.874,-1.078 c -0.59,0.568 -1.551,0.688 -2.156,0.264 -0.61,-0.434 -0.63,-1.24 -0.048,-1.811 h -0.01 c 2.555,-2.525 5.147,-6.596 4.201,-13.135 -0.198,-1.305 -0.481,-2.482 -0.822,-3.548 -1.449,-4.457 -4.015,-6.902 -6.185,-8.27 -1.09,-0.687 -2.08,-1.094 -2.78,-1.334 -0.699,-0.233 -1.047,-0.262 -1.036,-0.276 -0.808,-0.126 -1.263,-0.801 -1.006,-1.505 0.246,-0.697 1.096,-1.167 1.914,-1.031 0.246,0.011 8.834,1.524 12.042,11.464 0.385,1.172 0.684,2.458 0.897,3.864 1.098,7.23 -1.924,12.306 -5.011,15.318 m 30.289,-50.836 c 0.448,-0.683 1.369,-0.997 2.053,-0.7 0.683,0.284 0.881,1.07 0.427,1.75 l -0.011,0.007 c -1.945,2.995 -4.528,8.54 -0.861,14.925 3.86,6.618 10.001,6.568 13.332,6.13 0.593,-0.094 1.101,0.138 1.33,0.54 0.091,0.156 0.144,0.35 0.139,0.562 -0.021,0.731 -0.689,1.408 -1.513,1.534 -3.928,0.62 -11.624,0.38 -15.982,-7.208 -4.222,-7.279 -1.234,-14.1 1.086,-17.54 m 41.814,60.682 c -1.998,0.38 -9.23,1.222 -13.176,-5.505 -3.832,-6.739 0.68,-12.195 2.112,-13.667 l -13.293,-23.022 c -1.995,0.502 -8.969,1.686 -12.893,-5.011 -3.852,-6.776 0.492,-12.617 1.822,-14.163 l -12.998,-22.514 c -0.187,0.101 -0.423,0.236 -0.716,0.404 -1.038,0.599 -2.775,1.64 -5.344,3.263 -4.592,2.872 -8.543,9.885 -8.538,9.913 l -0.16,0.292 -0.326,0.051 -3.447,0.55 -0.22,-0.132 c -0.011,0.006 -8.001,-4.725 -14.596,-5.545 -0.086,-0.011 -0.097,-0.005 -0.145,0.003 -0.027,0.02 -0.139,0.149 -0.16,0.292 -0.071,0.454 -0.508,8.872 -0.941,13.471 -0.871,8.911 -0.694,17.954 0.662,26.922 2.246,0.81 4.807,2.45 6.655,5.677 0.44,0.76 0.839,1.593 1.181,2.508 2.23,5.971 -0.03,10.765 -2.089,13.429 1.849,4.844 3.196,7.998 5.905,12.691 2.716,4.703 4.775,7.448 8.045,11.471 3.336,-0.451 8.616,-0.018 12.674,4.901 0.63,0.773 1.165,1.536 1.586,2.289 1.876,3.227 2.016,6.258 1.583,8.579 7.088,5.661 14.833,10.348 22.984,14.047 4.2,1.926 11.711,5.757 12.149,5.921 0.144,0.065 0.278,0.039 0.326,0.011 0.042,-0.036 0.026,-0.019 0.097,-0.199 2.564,-6.047 2.473,-15.333 2.463,-15.351 l 0.005,-0.245 0.155,-0.195 2.252,-2.773 0.33,0.005 c 0.006,-0.013 8.072,0.107 12.855,-2.436 2.672,-1.397 4.427,-2.366 5.473,-2.973 0.304,-0.177 0.546,-0.32 0.739,-0.429 z"
     style="fill:#231f20;fill-opacity:1;fill-rule:nonzero;stroke:none"
     id="path41466" />
  <path
     d="m 547.482,382.528 c -0.011,0.019 -9.612,5.584 -24.664,11.949 l -11.101,4.711 c 0.197,2.971 0.268,5.957 0.232,8.935 l 7.796,-3.204 c 14.945,-6.162 25.818,-9.136 25.838,-9.131 0.331,-0.099 0.68,0.079 0.818,0.401 0.117,0.312 0,0.678 -0.294,0.848 -0.021,0.014 -9.674,5.496 -24.784,11.723 l -9.481,3.896 c -0.177,3.44 -0.513,6.877 -1.011,10.316 l 1.911,-0.821 c 14.92,-6.23 25.776,-9.271 25.797,-9.287 0.326,-0.085 0.68,0.079 0.818,0.391 0.133,0.318 0,0.69 -0.299,0.857 -0.011,0.019 -9.633,5.568 -24.701,11.88 l -4.362,1.872 c -0.606,3.224 -1.352,6.441 -2.256,9.625 l 10.923,-4.492 c 14.987,-6.085 25.88,-8.997 25.896,-9.008 0.34,-0.085 0.673,0.087 0.812,0.402 0.133,0.325 0,0.688 -0.295,0.857 -0.014,0.009 -9.694,5.443 -24.844,11.588 l -14.052,5.776 c -1.106,3.312 -2.4,6.581 -3.842,9.806 l 11.117,-4.387 c 15.067,-5.895 25.995,-8.667 26.004,-8.67 0.336,-0.082 0.691,0.095 0.813,0.404 0.127,0.326 -0.005,0.702 -0.31,0.858 -0.02,0.013 -9.76,5.328 -24.99,11.281 l -15.27,6.02 c -0.474,0.93 -0.967,1.828 -1.474,2.737 2.195,1.257 4.88,2.811 7.851,4.536 l 9.568,-3.711 c 15.099,-5.809 26.013,-8.505 26.031,-8.505 0.336,-0.083 0.677,0.103 0.808,0.415 0.112,0.312 -0.019,0.688 -0.323,0.844 -0.021,0.01 -9.781,5.273 -25.041,11.142 l -6.396,2.498 c 2.965,1.713 6.098,3.521 9.224,5.328 14.94,-5.307 25.676,-7.719 25.7,-7.73 0.346,-0.077 0.677,0.115 0.794,0.436 0.115,0.32 -0.032,0.69 -0.33,0.838 -0.022,0.013 -8.311,4.24 -21.508,9.165 11.904,7.101 19.338,12.755 19.349,12.763 0.273,0.208 0.351,0.582 0.176,0.888 -0.172,0.296 -0.528,0.408 -0.856,0.289 -0.011,-0.008 -8.615,-3.62 -20.721,-10.365 2.33,13.882 2.809,23.177 2.809,23.201 0.019,0.34 -0.229,0.648 -0.565,0.708 -0.336,0.06 -0.664,-0.151 -0.771,-0.475 -0.005,-0.014 -3.276,-10.538 -6.161,-26.117 -3.123,-1.807 -6.255,-3.619 -9.216,-5.337 l 1.03,6.796 c 2.551,16.158 2.874,27.237 2.874,27.253 0.014,0.34 -0.227,0.653 -0.568,0.7 -0.342,0.057 -0.662,-0.156 -0.771,-0.479 0,-0.029 -3.125,-10.828 -5.639,-26.81 l -1.569,-10.126 c -2.985,-1.721 -5.667,-3.27 -7.865,-4.533 -0.534,0.888 -1.068,1.765 -1.635,2.644 l 2.421,16.233 c 2.464,16.162 2.738,27.251 2.732,27.276 0.016,0.342 -0.229,0.626 -0.584,0.691 -0.33,0.052 -0.656,-0.167 -0.757,-0.492 -0.005,-0.011 -3.068,-10.868 -5.489,-26.865 l -1.764,-11.815 c -2.07,2.861 -4.266,5.623 -6.575,8.235 l 2.025,15.054 c 2.246,16.192 2.383,27.29 2.388,27.304 -0.005,0.336 -0.254,0.647 -0.593,0.68 -0.347,0.052 -0.672,-0.166 -0.757,-0.492 0,-0.021 -2.926,-10.904 -5.155,-26.924 l -1.564,-11.717 c -2.316,2.387 -4.718,4.633 -7.212,6.779 l 0.568,4.701 c 2.063,16.213 2.068,27.32 2.058,27.339 0.01,0.35 -0.244,0.634 -0.588,0.677 -0.342,0.049 -0.667,-0.169 -0.748,-0.513 -0.006,-0.011 -2.796,-10.935 -4.848,-26.984 l -0.256,-2.058 c -2.722,2.14 -5.534,4.159 -8.43,6.036 l 1.367,10.146 c 2.161,16.216 2.245,27.302 2.245,27.328 0,0.349 -0.25,0.633 -0.596,0.69 -0.338,0.031 -0.664,-0.182 -0.756,-0.502 -0.005,-0.031 -2.874,-10.919 -5.002,-26.962 l -1.127,-8.348 c -2.56,1.523 -5.185,2.95 -7.847,4.26 l 1.463,11.979 c 2.016,16.216 1.991,27.323 1.98,27.344 0.011,0.344 -0.248,0.639 -0.589,0.675 -0.348,0.044 -0.67,-0.172 -0.747,-0.514 -0.019,-0.02 -2.781,-10.953 -4.768,-26.997 l -1.3,-10.609 c -3.213,1.458 -6.26,2.874 -9.12,4.281 l 0.644,5.419 c 1.94,16.221 1.864,27.329 1.869,27.352 -0.005,0.352 -0.26,0.63 -0.604,0.672 -0.352,0.044 -0.656,-0.183 -0.748,-0.508 0,-0.016 -2.726,-10.974 -4.645,-27.023 l -0.469,-3.885 c -2.888,1.522 -5.534,3.046 -7.987,4.637 l 0.437,3.251 c 1.975,16.233 1.915,27.322 1.904,27.336 0.006,0.356 -0.25,0.64 -0.598,0.676 -0.347,0.045 -0.662,-0.175 -0.743,-0.523 -0.011,-0.005 -2.737,-10.94 -4.692,-26.987 l -0.128,-1.108 c -2.032,1.535 -3.844,3.118 -5.453,4.79 l 0.838,7.114 c 1.919,16.235 1.828,27.323 1.834,27.336 0,0.347 -0.26,0.651 -0.604,0.683 -0.347,0.044 -0.662,-0.18 -0.743,-0.524 -0.011,-0.011 -2.711,-10.945 -4.628,-27.008 l -0.359,-3.077 c -0.385,0.56 -0.742,1.137 -1.096,1.726 -0.01,0.031 -0.046,0.118 -0.078,0.148 -3.694,6.372 -2.096,24.295 -2.08,24.326 0.03,0.352 -0.21,0.68 -0.555,0.742 -0.349,0.071 -0.685,-0.148 -0.787,-0.48 0.026,-0.09 -5.045,-17.285 -1.613,-24.668 0.304,-0.63 0.645,-1.266 0.999,-1.881 6.434,-11.129 20.744,-19.003 37.992,-26.843 19.866,-9 37.371,-23.805 49.114,-44.125 11.735,-20.341 15.812,-42.906 13.664,-64.616 -1.828,-18.886 -2.144,-35.196 4.26,-46.333 0.363,-0.621 0.748,-1.224 1.123,-1.795 4.674,-6.662 22.106,-10.865 22.164,-10.932 0.338,-0.081 0.7,0.098 0.812,0.438 0.117,0.336 -0.042,0.702 -0.362,0.848 0.006,0.017 -4.09,1.909 -8.633,4.59 -4.549,2.704 -9.552,6.188 -11.4,9.386 -0.016,0.022 -0.037,0.07 -0.081,0.138 -0.342,0.591 -0.656,1.192 -0.956,1.812 l 2.849,-1.218 c 14.864,-6.383 25.692,-9.508 25.708,-9.512 0.331,-0.096 0.691,0.065 0.823,0.382 0.13,0.326 0.016,0.682 -0.288,0.863 -0.016,0.008 -9.579,5.635 -24.592,12.083 l -6.586,2.83 c -0.646,2.232 -1.106,4.604 -1.417,7.123 l 1.011,-0.432 c 14.885,-6.343 25.721,-9.453 25.732,-9.448 0.336,-0.1 0.689,0.065 0.822,0.379 0.134,0.314 0.011,0.686 -0.289,0.868 -0.005,0.01 -9.583,5.616 -24.62,12.01 l -3.039,1.264 c -0.161,2.916 -0.15,5.966 -0.022,9.231 l 3.598,-1.541 c 14.864,-6.37 25.703,-9.478 25.724,-9.48 0.334,-0.099 0.675,0.061 0.823,0.382 0.135,0.319 0.013,0.684 -0.292,0.866 -0.017,0.002 -9.596,5.616 -24.62,12.056 l -5.015,2.157 c 0.222,3.183 0.507,6.533 0.856,10.033 l 9.834,-4.18 c 14.898,-6.305 25.737,-9.368 25.77,-9.378 0.326,-0.086 0.678,0.082 0.819,0.392 0.117,0.318 0,0.69 -0.3,0.861 m 11.148,6.272 c 0,0 2.707,-5.067 4.721,-18.635 2.363,-15.949 -11.845,-42.274 -35.181,-38.83 -28.592,4.221 -30.461,31.144 -27.393,62.538 2.148,21.84 -0.951,42.835 -12.764,63.296 -11.812,20.459 -28.452,33.64 -48.437,42.713 -28.724,13.036 -51.104,28.115 -40.462,54.99 8.691,21.925 38.584,21.07 51.22,11.042 10.739,-8.521 13.776,-13.393 13.776,-13.393 0,0 17.093,7.7 35.025,-5.555 18.97,-14.021 18.024,-34.706 18.024,-34.706 0,0 19.135,3.133 32.274,-19.627 13.142,-22.756 0.858,-37.764 0.858,-37.764 0,0 18.388,-9.522 21.051,-32.96 C 573.849,399.745 558.63,388.8 558.63,388.8"
     style="fill:#231f20;fill-opacity:1;fill-rule:nonzero;stroke:none"
     id="path41470" />
  <path
     d="m 495.245,417.573 c 0.005,0.016 -0.344,0.044 -1.049,0.287 -0.696,0.229 -1.678,0.632 -2.774,1.328 -2.169,1.358 -4.729,3.802 -6.18,8.268 -0.352,1.068 -0.63,2.245 -0.828,3.544 -0.945,6.54 1.646,10.612 4.2,13.136 l -0.009,0.008 c 0.588,0.562 0.561,1.374 -0.043,1.801 -0.609,0.425 -1.565,0.308 -2.158,-0.26 -3.091,-3.011 -6.11,-8.088 -5.014,-15.312 0.21,-1.407 0.514,-2.699 0.896,-3.871 3.208,-9.94 11.798,-11.453 12.05,-11.465 0.813,-0.131 1.666,0.339 1.906,1.039 0.258,0.694 -0.197,1.372 -0.997,1.497 m -12.711,29.188 c -0.609,0.4 -1.578,0.285 -2.144,-0.3 -3.432,-3.435 -6.574,-8.953 -5.752,-16.776 0.162,-1.612 0.446,-3.084 0.807,-4.432 3.204,-11.753 13.279,-13.737 13.524,-13.751 0.803,-0.15 1.672,0.303 1.935,0.987 0.278,0.707 -0.151,1.387 -0.956,1.535 0.005,0.013 -0.43,0.076 -1.279,0.374 -0.839,0.303 -2.025,0.831 -3.285,1.67 -2.546,1.705 -5.486,4.693 -6.956,10.052 -0.336,1.242 -0.604,2.606 -0.754,4.098 -0.705,7.188 2.047,11.782 4.94,14.735 0.576,0.576 0.54,1.372 -0.08,1.808 m -5.51,17.445 0.005,0.007 c -3.469,-0.947 -8.292,-1.159 -13.481,2.931 -1.032,0.822 -1.907,1.656 -2.658,2.484 -3.137,3.486 -3.97,6.929 -4.072,9.492 -0.046,1.289 0.091,2.349 0.234,3.076 0.152,0.721 0.294,1.038 0.278,1.036 0.295,0.76 -0.061,1.491 -0.796,1.622 -0.726,0.133 -1.56,-0.367 -1.854,-1.141 -0.112,-0.219 -3.094,-8.413 3.914,-16.164 0.818,-0.916 1.779,-1.82 2.896,-2.711 5.708,-4.56 11.615,-4.484 15.768,-3.314 0.787,0.224 1.372,1 1.31,1.734 -0.075,0.742 -0.76,1.164 -1.544,0.948 m -26.255,17.81 c -0.732,0.114 -1.557,-0.416 -1.829,-1.18 -0.112,-0.219 -3.432,-9.938 5.152,-18.588 0.984,-0.987 2.117,-1.967 3.426,-2.912 6.367,-4.624 12.716,-4.664 17.404,-3.411 0.792,0.203 1.372,0.981 1.336,1.703 -0.065,0.754 -0.742,1.193 -1.529,0.981 -3.997,-1.036 -9.359,-1.117 -15.227,3.087 -1.218,0.877 -2.268,1.794 -3.176,2.705 -3.906,3.948 -5.024,7.989 -5.221,11.047 -0.103,1.513 0.031,2.8 0.192,3.688 0.167,0.877 0.325,1.289 0.309,1.294 0.284,0.766 -0.09,1.476 -0.837,1.586 m -7.003,-57.855 c -0.152,-0.744 0.37,-1.351 1.17,-1.364 4.721,-0.088 10.82,-1.615 14.965,-8.745 4.229,-7.359 2.472,-13.914 0.204,-18.348 l -0.011,0.005 c -0.209,-0.409 -0.193,-0.831 -0.01,-1.147 0.134,-0.232 0.374,-0.422 0.685,-0.51 0.731,-0.214 1.619,0.197 1.987,0.91 2.572,4.944 4.513,12.58 -0.159,20.647 -4.511,7.857 -11.696,9.819 -17.089,9.873 -0.802,0.006 -1.575,-0.589 -1.742,-1.321 m -4.458,31.784 c -4.644,8.071 -12.229,10.213 -17.8,10.464 -0.801,0.033 -1.601,-0.527 -1.784,-1.276 -0.075,-0.305 -0.031,-0.607 0.107,-0.841 0.177,-0.315 0.54,-0.539 0.99,-0.563 l 0.01,0.003 c 4.964,-0.252 11.523,-2.008 15.783,-9.342 4.1,-7.158 2.379,-13.202 0.092,-17.336 -0.39,-0.697 -0.125,-1.453 0.591,-1.697 0.724,-0.224 1.62,0.148 2.021,0.852 2.646,4.697 4.539,11.9 -0.01,19.736 m -22.849,3.339 c -0.096,-0.735 0.486,-1.299 1.297,-1.244 l 0.013,0.005 c 3.57,0.184 9.656,-0.352 13.356,-6.72 3.8,-6.651 0.691,-11.945 -1.359,-14.609 -0.373,-0.468 -0.428,-1.023 -0.196,-1.422 0.09,-0.156 0.235,-0.302 0.423,-0.404 0.64,-0.345 1.559,-0.106 2.083,0.543 2.497,3.096 6.141,9.88 1.742,17.447 -4.19,7.297 -11.589,8.12 -15.729,7.829 -0.813,-0.048 -1.549,-0.685 -1.63,-1.425 M 439.841,417.5 c 0.232,-0.399 0.74,-0.63 1.325,-0.531 3.336,0.432 9.48,0.481 13.336,-6.139 3.667,-6.388 1.087,-11.926 -0.858,-14.921 l -0.011,-0.009 c -0.456,-0.686 -0.257,-1.466 0.427,-1.755 0.685,-0.296 1.604,0.02 2.052,0.705 2.321,3.439 5.308,10.262 1.086,17.535 -4.352,7.597 -12.06,7.839 -15.981,7.216 -0.824,-0.129 -1.493,-0.812 -1.513,-1.539 -0.006,-0.208 0.054,-0.405 0.137,-0.562 m 57.483,-23.302 c -0.428,-4.601 -0.866,-13.02 -0.946,-13.482 -0.016,-0.155 -0.102,-0.259 -0.152,-0.286 -0.052,-0.02 -0.03,-0.014 -0.218,0.016 -6.52,0.802 -14.515,5.524 -14.528,5.543 l -0.214,0.115 -0.25,-0.035 -3.523,-0.564 -0.165,-0.288 c -0.01,0.003 -3.94,-7.043 -8.536,-9.916 -2.544,-1.615 -4.26,-2.648 -5.312,-3.252 -0.306,-0.176 -0.547,-0.312 -0.74,-0.424 l -13.008,22.531 c 1.33,1.54 5.674,7.384 1.82,14.162 -3.916,6.69 -10.898,5.51 -12.891,5.004 l -13.288,23.024 c 1.427,1.478 5.945,6.924 2.107,13.672 -3.945,6.727 -11.177,5.883 -13.175,5.503 L 401.3,478.037 c 0.183,0.112 0.421,0.244 0.711,0.416 1.038,0.599 2.806,1.587 5.5,2.997 4.784,2.54 12.828,2.456 12.854,2.435 l 0.331,-0.005 0.203,0.258 2.204,2.708 -0.006,0.257 c 0.01,0.006 -0.092,9.29 2.495,15.412 0.039,0.082 0.049,0.086 0.075,0.128 0.034,0.014 0.204,0.044 0.338,-0.008 0.428,-0.169 7.935,-3.997 12.133,-5.924 8.156,-3.698 15.896,-8.376 22.982,-14.031 -0.422,-2.352 -0.276,-5.388 1.594,-8.604 0.438,-0.758 0.955,-1.524 1.578,-2.276 4.054,-4.918 9.341,-5.355 12.677,-4.904 3.265,-4.023 5.323,-6.768 8.033,-11.462 2.716,-4.702 4.068,-7.856 5.918,-12.702 -2.058,-2.662 -4.323,-7.454 -2.094,-13.427 0.356,-0.932 0.747,-1.773 1.19,-2.516 1.854,-3.24 4.412,-4.875 6.638,-5.661 1.359,-8.97 1.547,-18.019 0.67,-26.93"
     style="fill:#231f20;fill-opacity:1;fill-rule:nonzero;stroke:none"
     id="path41474" />
</svg>
