<?xml version="1.0" encoding="UTF-8" standalone="no"?>
<!-- Created with Inkscape (http://www.inkscape.org/) -->

<svg
   sodipodi:docname="Gokani Sakura.svg"
   viewBox="0 0 793.70135 793.70135"
   height="793.70135"
   width="793.70135"
   id="svg43792"
   version="1.1"
   inkscape:version="1.2 (dc2aeda, 2022-05-15)"
   xmlns:inkscape="http://www.inkscape.org/namespaces/inkscape"
   xmlns:sodipodi="http://sodipodi.sourceforge.net/DTD/sodipodi-0.dtd"
   xmlns="http://www.w3.org/2000/svg"
   xmlns:svg="http://www.w3.org/2000/svg">
  <defs
     id="defs43796">
    <clipPath
       clipPathUnits="userSpaceOnUse"
       id="clipPath44368">
      <path
         d="m -297.1338,264.5516 h 595.276 v -841.89 h -595.276 z"
         id="path44370"
         style="stroke-width:0.999998" />
    </clipPath>
    <clipPath
       clipPathUnits="userSpaceOnUse"
       id="clipPath44374">
      <path
         d="m -145.2256,374.9198 h 595.276 v -841.89 h -595.276 z"
         id="path44376"
         style="stroke-width:0.999998" />
    </clipPath>
    <clipPath
       clipPathUnits="userSpaceOnUse"
       id="clipPath44380">
      <path
         d="m -194.4692,565.6039 h 595.276 v -841.89 h -595.276 z"
         id="path44382"
         style="stroke-width:0.999998" />
    </clipPath>
    <clipPath
       clipPathUnits="userSpaceOnUse"
       id="clipPath44386">
      <path
         d="m -449.0508,374.9217 h 595.27599 v -841.89 H -449.0508 Z"
         id="path44388"
         style="stroke-width:0.999998" />
    </clipPath>
    <clipPath
       clipPathUnits="userSpaceOnUse"
       id="clipPath44392">
      <path
         d="m -274.0957,432.5941 h 595.276 v -841.89 h -595.276 z"
         id="path44394"
         style="stroke-width:0.999998" />
    </clipPath>
    <clipPath
       clipPathUnits="userSpaceOnUse"
       id="clipPath44398">
      <path
         d="m -280.2969,403.621 h 595.276 v -841.89 h -595.276 z"
         id="path44400"
         style="stroke-width:0.999998" />
    </clipPath>
    <clipPath
       clipPathUnits="userSpaceOnUse"
       id="clipPath44404">
      <path
         d="m -309.7695,400.5682 h 595.276 v -841.89 h -595.276 z"
         id="path44406"
         style="stroke-width:0.999998" />
    </clipPath>
    <clipPath
       clipPathUnits="userSpaceOnUse"
       id="clipPath44410">
      <path
         d="m -318.2285,422.3773 h 595.27599 v -841.89 H -318.2285 Z"
         id="path44412"
         style="stroke-width:0.999998" />
    </clipPath>
    <clipPath
       clipPathUnits="userSpaceOnUse"
       id="clipPath44416">
      <path
         d="m -463.2666,370.3036 h 595.276 v -841.89 h -595.276 z"
         id="path44418"
         style="stroke-width:0.999998" />
    </clipPath>
    <clipPath
       clipPathUnits="userSpaceOnUse"
       id="clipPath44422">
      <path
         d="m -391.0283,553.514 h 595.276 v -841.89 h -595.276 z"
         id="path44424"
         style="stroke-width:0.999998" />
    </clipPath>
    <clipPath
       clipPathUnits="userSpaceOnUse"
       id="clipPath44428">
      <path
         d="m -399.8154,565.6039 h 595.27599 v -841.89 H -399.8154 Z"
         id="path44430"
         style="stroke-width:0.999998" />
    </clipPath>
    <clipPath
       clipPathUnits="userSpaceOnUse"
       id="clipPath44434">
      <path
         d="m -321.7803,427.6527 h 595.276 v -841.89 h -595.276 z"
         id="path44436"
         style="stroke-width:0.999998" />
    </clipPath>
    <clipPath
       clipPathUnits="userSpaceOnUse"
       id="clipPath44440">
      <path
         d="m -299.7314,447.4476 h 595.27599 v -841.89 H -299.7314 Z"
         id="path44442"
         style="stroke-width:0.999998" />
    </clipPath>
    <clipPath
       clipPathUnits="userSpaceOnUse"
       id="clipPath44446">
      <path
         d="m -131.0103,370.3036 h 595.27599 v -841.89 H -131.0103 Z"
         id="path44448"
         style="stroke-width:0.999998" />
    </clipPath>
    <clipPath
       clipPathUnits="userSpaceOnUse"
       id="clipPath44452">
      <path
         d="m -297.1338,249.6048 h 595.276 v -841.89 h -595.276 z"
         id="path44454"
         style="stroke-width:0.999998" />
    </clipPath>
    <clipPath
       clipPathUnits="userSpaceOnUse"
       id="clipPath44458">
      <path
         d="m -203.2485,553.514 h 595.276 v -841.89 h -595.276 z"
         id="path44460"
         style="stroke-width:0.999998" />
    </clipPath>
  </defs>
  <sodipodi:namedview
     id="namedview43794"
     pagecolor="#ffffff"
     bordercolor="#000000"
     borderopacity="0.25"
     inkscape:showpageshadow="2"
     inkscape:pageopacity="0.0"
     inkscape:pagecheckerboard="0"
     inkscape:deskcolor="#d1d1d1"
     showgrid="false"
     inkscape:zoom="0.21024124"
     inkscape:cx="-1234.2964"
     inkscape:cy="561.26001"
     inkscape:window-width="1419"
     inkscape:window-height="456"
     inkscape:window-x="0"
     inkscape:window-y="25"
     inkscape:window-maximized="0"
     inkscape:current-layer="svg43792">
    <inkscape:page
       x="0"
       y="0"
       id="page43798"
       width="793.70135"
       height="793.70135" />
  </sodipodi:namedview>
  <path
     d="m 396.178,170.806 c 52.477,0 87.189,15.481 110.653,28.473 14.271,7.898 18.26,19.98 18.26,19.98 0,0 15.841,-21.824 34.325,-47.24 19.306,-26.55 3.25,-62.462 -18.558,-79.133 -24.342,-18.62 -72.714,-35.958 -144.68,-35.958 -71.953,0 -120.326,17.338 -144.678,35.958 -21.798,16.671 -37.854,52.583 -18.547,79.133 18.483,25.416 34.315,47.24 34.315,47.24 0,0 4.009,-12.082 18.258,-19.98 23.476,-12.992 58.175,-28.473 110.652,-28.473"
     style="fill:#231f20;fill-opacity:1;fill-rule:nonzero;stroke:none"
     id="path43812" />
  <path
     d="m 396.178,190.735 c 32.38,0 62.848,10.673 90.149,24.705 18.729,9.622 11.856,13.852 11.856,13.852 0,0 -5.848,1.222 -5.848,6.27 0,5.04 1.679,8.573 9.237,8.573 7.579,0 13.075,-8.24 13.075,-14.461 0,-4.034 0.693,-11.99 -14.101,-20.622 -27.667,-16.145 -66.407,-29.05 -104.368,-29.05 -37.949,0 -76.689,12.905 -104.356,29.05 -14.794,8.632 -14.088,16.588 -14.088,20.622 0,6.221 5.494,14.461 13.062,14.461 7.569,0 9.237,-3.533 9.237,-8.573 0,-5.048 -5.837,-6.27 -5.837,-6.27 0,0 -6.896,-4.23 11.845,-13.852 27.29,-14.032 57.768,-24.705 90.137,-24.705"
     style="fill:#231f20;fill-opacity:1;fill-rule:nonzero;stroke:none"
     id="path43816" />
  <path
     d="m 174.68,331.738 c 16.217,-49.909 41.66,-78.137 61.276,-96.434 11.918,-11.135 24.641,-11.199 24.641,-11.199 0,0 -15.865,-21.797 -34.316,-47.235 -19.296,-26.57 -58.41,-22.398 -80.998,-6.817 -25.23,17.408 -56.6681,58.052 -78.9041,126.493 -22.2346,68.439 -20.6959,119.802 -10.5079,148.722 9.1079,25.878 38.3025,52.252 69.517,42.086 29.889,-9.727 55.545,-18.044 55.545,-18.044 0,0 -10.261,-7.526 -13.362,-23.534 -5.11,-26.333 -9.108,-64.13 7.109,-114.038"
     style="fill:#231f20;fill-opacity:1;fill-rule:nonzero;stroke:none"
     id="path43820" />
  <path
     d="m 193.634,337.893 c 10.005,-30.788 29.58,-56.471 51.356,-78.096 14.933,-14.849 16.825,-6.981 16.825,-6.981 0,0 -0.641,5.931 4.169,7.492 4.8,1.557 8.659,1.051 11,-6.143 2.342,-7.196 -3.794,-14.978 -9.717,-16.901 -3.827,-1.244 -11.172,-4.365 -23.956,7.032 -23.914,21.327 -48.149,54.185 -59.886,90.284 -11.727,36.097 -11.428,76.927 -4.619,108.233 3.635,16.732 11.428,18.528 15.256,19.778 5.921,1.922 15.457,-0.762 17.788,-7.958 2.341,-7.192 -0.492,-9.888 -5.303,-11.443 -4.777,-1.557 -7.749,3.612 -7.749,3.612 0,0 -6.159,5.256 -9.525,-15.539 -4.907,-30.305 -5.644,-62.577 4.361,-93.37"
     style="fill:#231f20;fill-opacity:1;fill-rule:nonzero;stroke:none"
     id="path43824" />
  <path
     d="m 259.292,592.139 c -42.461,-30.836 -61.436,-63.765 -72.788,-88.081 -6.896,-14.771 -3.037,-26.895 -3.037,-26.895 0,0 -25.623,8.338 -55.513,18.058 -31.2469,10.132 -39.3602,48.615 -31.5243,74.907 8.7653,29.394 37.6933,71.85 95.9213,114.139 58.208,42.301 107.542,56.7 138.181,55.968 27.44,-0.684 61.53,-20.296 61.52,-53.13 -0.011,-31.419 0,-58.39 0,-58.39 0,0 -10.327,7.424 -26.512,5.432 -26.618,-3.276 -63.808,-11.172 -106.248,-42.008"
     style="fill:#231f20;fill-opacity:1;fill-rule:nonzero;stroke:none"
     id="path43828" />
  <path
     d="m 270.998,576.019 c -26.191,-19.033 -44.567,-45.573 -58.4,-72.976 -9.514,-18.802 -1.443,-18.174 -1.443,-18.174 0,0 5.442,2.448 8.402,-1.636 2.972,-4.088 3.689,-7.93 -2.436,-12.364 -6.116,-4.451 -15.416,-1.024 -19.061,4.005 -2.384,3.263 -7.622,9.293 -0.727,24.979 12.902,29.327 36.656,62.541 67.369,84.846 30.703,22.309 69.624,34.64 101.501,37.848 17.04,1.712 21.145,-5.137 23.529,-8.397 3.646,-5.04 4.031,-14.938 -2.084,-19.386 -6.114,-4.448 -9.546,-2.565 -12.518,1.507 -2.962,4.079 1.036,8.503 1.036,8.503 0,0 3.101,7.469 -17.714,4.245 -30.337,-4.697 -61.262,-13.967 -87.454,-33"
     style="fill:#231f20;fill-opacity:1;fill-rule:nonzero;stroke:none"
     id="path43832" />
  <path
     d="m 533.087,592.139 c -42.472,30.847 -79.641,38.732 -106.26,42.008 -16.196,1.992 -26.522,-5.42 -26.522,-5.42 0,0 0.022,26.959 0.012,58.378 -0.034,32.834 34.078,52.446 61.51,53.119 30.648,0.743 79.972,-13.651 138.178,-55.957 58.22,-42.289 87.168,-84.745 95.924,-114.128 7.847,-26.292 -0.278,-64.786 -31.504,-74.918 -29.901,-9.72 -55.525,-18.058 -55.525,-18.058 0,0 3.86,12.124 -3.036,26.906 -11.353,24.305 -30.326,57.234 -72.777,88.07"
     style="fill:#231f20;fill-opacity:1;fill-rule:nonzero;stroke:none"
     id="path43836" />
  <path
     d="m 521.371,576.019 c -26.201,19.033 -57.117,28.303 -87.456,33 -20.813,3.224 -17.736,-4.245 -17.736,-4.245 0,0 4.02,-4.424 1.05,-8.503 -2.962,-4.072 -6.394,-5.955 -12.508,-1.507 -6.126,4.448 -5.742,14.346 -2.075,19.386 2.364,3.26 6.479,10.109 23.519,8.397 31.878,-3.197 70.799,-15.539 101.513,-37.848 30.702,-22.305 54.454,-55.519 67.358,-84.846 6.884,-15.686 1.656,-21.711 -0.728,-24.979 -3.655,-5.029 -12.956,-8.456 -19.06,-4.005 -6.125,4.44 -5.408,8.286 -2.448,12.364 2.962,4.084 8.414,1.636 8.414,1.636 0,0 8.061,-0.628 -1.443,18.174 -13.833,27.413 -32.209,53.943 -58.4,72.976"
     style="fill:#231f20;fill-opacity:1;fill-rule:nonzero;stroke:none"
     id="path43840" />
  <path
     d="m 617.689,331.738 c 16.216,49.913 12.219,87.705 7.108,114.044 -3.1,16.002 -13.352,23.538 -13.352,23.538 0,0 25.647,8.307 55.536,18.034 31.204,10.166 60.409,-16.206 69.517,-42.086 10.188,-28.92 11.727,-80.281 -10.519,-148.714 -22.225,-68.446 -53.663,-109.093 -78.882,-126.498 -22.6,-15.582 -61.713,-19.75 -81.009,6.812 -18.463,25.44 -34.316,47.24 -34.316,47.24 0,0 12.723,0.066 24.641,11.198 19.616,18.295 45.059,46.533 61.276,96.432"
     style="fill:#231f20;fill-opacity:1;fill-rule:nonzero;stroke:none"
     id="path43844" />
  <path
     d="m 598.734,337.896 c 10.007,30.791 9.257,63.068 4.361,93.373 -3.366,20.789 -9.513,15.544 -9.513,15.544 0,0 -2.972,-5.18 -7.771,-3.623 -4.801,1.555 -7.633,4.251 -5.292,11.443 2.342,7.196 11.876,9.885 17.788,7.959 3.838,-1.243 11.62,-3.042 15.255,-19.779 6.809,-31.303 7.108,-72.13 -4.619,-108.228 -11.726,-36.104 -35.972,-68.957 -59.874,-90.286 -12.798,-11.397 -20.14,-8.273 -23.977,-7.035 -5.912,1.926 -12.05,9.708 -9.708,16.902 2.33,7.196 6.212,7.701 11.01,6.145 4.802,-1.561 4.159,-7.489 4.159,-7.489 0,0 1.892,-7.871 16.837,6.981 21.776,21.625 41.339,47.302 51.344,78.093"
     style="fill:#231f20;fill-opacity:1;fill-rule:nonzero;stroke:none"
     id="path43848" />
  <path
     d="m 424.305,401.17 c 0,15.528 -12.593,28.123 -28.121,28.123 -15.527,0 -28.12,-12.595 -28.12,-28.123 0,-15.527 12.593,-28.119 28.12,-28.119 15.528,0 28.121,12.592 28.121,28.119"
     style="fill:#231f20;fill-opacity:1;fill-rule:nonzero;stroke:none"
     id="path43852" />
  <path
     d="m 413.026,372.091 50.891,-70.033 c 5.452,-7.375 8.686,-16.488 8.686,-26.373 -0.044,-24.511 -19.864,-44.332 -44.376,-44.378 -12.112,0 -23.062,4.86 -31.076,12.738 l -0.968,0.933 -0.956,-0.933 c -8.006,-7.878 -18.964,-12.738 -31.076,-12.738 -24.511,0.046 -44.331,19.867 -44.374,44.378 0,9.885 3.219,18.998 8.701,26.382 l 50.864,70.019 c 3.997,-2.326 8.531,-3.855 13.363,-4.352 v -36.191 c 0.01,-1.929 1.57,-3.469 3.49,-3.469 1.908,0 3.47,1.55 3.479,3.469 l -0.027,36.188 c 4.85,0.493 9.371,2.029 13.379,4.36"
     style="fill:#231f20;fill-opacity:1;fill-rule:nonzero;stroke:none"
     id="path43856" />
  <path
     d="m 373.729,376.161 -50.873,-70.038 c -5.335,-7.463 -12.999,-13.355 -22.401,-16.41 -23.326,-7.53 -48.303,5.194 -55.915,28.491 -3.741,11.517 -2.512,23.433 2.507,33.492 l 0.594,1.206 -1.188,0.62 c -9.968,5.184 -17.974,14.1 -21.716,25.618 -7.532,23.326 5.195,48.3 28.494,55.917 9.397,3.055 19.061,2.811 27.778,-0.119 l 82.308,-26.737 c -0.972,-4.527 -1.025,-9.311 -0.009,-14.06 L 328.89,382.962 c -1.833,-0.606 -2.817,-2.568 -2.217,-4.393 0.587,-1.816 2.544,-2.82 4.372,-2.237 l 34.411,11.208 c 1.961,-4.458 4.82,-8.282 8.273,-11.379"
     style="fill:#231f20;fill-opacity:1;fill-rule:nonzero;stroke:none"
     id="path43860" />
  <path
     d="m 365.461,414.792 -82.329,26.748 c -8.744,2.763 -16.72,8.233 -22.535,16.228 -14.368,19.857 -9.984,47.545 9.824,61.988 9.792,7.12 21.508,9.626 32.627,7.962 l 1.325,-0.184 0.224,1.315 c 1.851,11.083 7.859,21.453 17.655,28.568 19.856,14.372 47.544,9.989 61.986,-9.813 5.81,-8.003 8.563,-17.266 8.467,-26.458 l 0.009,-86.547 c -4.606,-0.471 -9.17,-1.9 -13.372,-4.338 l -21.273,29.282 c -1.139,1.556 -3.308,1.882 -4.864,0.754 -1.54,-1.122 -1.892,-3.294 -0.771,-4.852 l 21.29,-29.262 c -3.628,-3.246 -6.387,-7.146 -8.263,-11.391"
     style="fill:#231f20;fill-opacity:1;fill-rule:nonzero;stroke:none"
     id="path43864" />
  <path
     d="m 399.642,434.597 v 86.57 c -0.075,9.172 2.663,18.446 8.472,26.443 14.448,19.801 42.129,24.189 61.986,9.817 9.798,-7.12 15.8,-17.484 17.655,-28.573 l 0.231,-1.32 1.325,0.191 c 11.112,1.669 22.828,-0.839 32.627,-7.959 19.802,-14.443 24.19,-42.133 9.818,-61.986 -5.816,-7.998 -13.774,-13.48 -22.545,-16.232 l -82.309,-26.751 c -1.871,4.237 -4.639,8.136 -8.252,11.379 l 21.273,29.278 c 1.128,1.567 0.77,3.731 -0.786,4.859 -1.544,1.12 -3.72,0.784 -4.858,-0.763 l -21.248,-29.292 c -4.205,2.451 -8.77,3.866 -13.389,4.339"
     style="fill:#231f20;fill-opacity:1;fill-rule:nonzero;stroke:none"
     id="path43868" />
  <path
     d="m 429.04,408.204 82.334,26.757 c 8.702,2.904 18.366,3.167 27.763,0.11 23.299,-7.615 36.025,-32.591 28.493,-55.914 -3.74,-11.521 -11.741,-20.432 -21.716,-25.624 l -1.186,-0.628 0.588,-1.198 c 5.025,-10.054 6.258,-21.972 2.512,-33.485 -7.611,-23.302 -32.59,-36.031 -55.909,-28.498 -9.407,3.06 -17.083,8.936 -22.407,16.428 l -50.873,70.009 c 3.452,3.091 6.301,6.931 8.262,11.372 l 34.423,-11.188 c 1.839,-0.586 3.791,0.423 4.383,2.248 0.588,1.815 -0.407,3.782 -2.23,4.384 l -34.426,11.158 c 1.036,4.758 0.972,9.533 -0.011,14.069"
     style="fill:#231f20;fill-opacity:1;fill-rule:nonzero;stroke:none"
     id="path43872" />
</svg>
