<?xml version="1.0" encoding="UTF-8" standalone="no"?>
<!-- Created with Inkscape (http://www.inkscape.org/) -->

<svg
   sodipodi:docname="Gokani Ougi.svg"
   viewBox="0 0 793.70135 793.70135"
   height="793.70135"
   width="793.70135"
   id="svg42878"
   version="1.1"
   inkscape:version="1.2 (dc2aeda, 2022-05-15)"
   xmlns:inkscape="http://www.inkscape.org/namespaces/inkscape"
   xmlns:sodipodi="http://sodipodi.sourceforge.net/DTD/sodipodi-0.dtd"
   xmlns="http://www.w3.org/2000/svg"
   xmlns:svg="http://www.w3.org/2000/svg">
  <defs
     id="defs42882">
    <clipPath
       clipPathUnits="userSpaceOnUse"
       id="clipPath43565">
      <path
         d="m -290.6641,496.5326 h 595.276 v -841.89 h -595.276 z"
         id="path43567"
         style="stroke-width:0.999998" />
    </clipPath>
    <clipPath
       clipPathUnits="userSpaceOnUse"
       id="clipPath43572">
      <path
         d="m -288.002,498.972 h 595.276 v -841.89 h -595.276 z"
         id="path43574"
         style="stroke-width:0.999998" />
    </clipPath>
    <clipPath
       clipPathUnits="userSpaceOnUse"
       id="clipPath43579">
      <path
         d="m -223.9136,459.3334 h 595.276 v -841.89 h -595.276 z"
         id="path43581"
         style="stroke-width:0.999998" />
    </clipPath>
    <clipPath
       clipPathUnits="userSpaceOnUse"
       id="clipPath43585">
      <path
         d="m -286.2822,514.6947 h 595.276 v -841.89 h -595.276 z"
         id="path43587"
         style="stroke-width:0.999998" />
    </clipPath>
    <clipPath
       clipPathUnits="userSpaceOnUse"
       id="clipPath43591">
      <path
         d="m -203.2476,553.515 h 595.276 v -841.89 h -595.276 z"
         id="path43593"
         style="stroke-width:0.999998" />
    </clipPath>
    <clipPath
       clipPathUnits="userSpaceOnUse"
       id="clipPath43597">
      <path
         d="m -194.4683,565.6058 h 595.276 v -841.89 h -595.276 z"
         id="path43599"
         style="stroke-width:0.999998" />
    </clipPath>
    <clipPath
       clipPathUnits="userSpaceOnUse"
       id="clipPath43603">
      <path
         d="m -286.2822,514.6947 h 595.276 v -841.89 h -595.276 z"
         id="path43605"
         style="stroke-width:0.999998" />
    </clipPath>
    <clipPath
       clipPathUnits="userSpaceOnUse"
       id="clipPath43609">
      <path
         d="m -463.2666,370.305 h 595.276 v -841.89 h -595.276 z"
         id="path43611"
         style="stroke-width:0.999998" />
    </clipPath>
    <clipPath
       clipPathUnits="userSpaceOnUse"
       id="clipPath43615">
      <path
         d="m -145.2246,374.9232 h 595.276 v -841.89 h -595.276 z"
         id="path43617"
         style="stroke-width:0.999998" />
    </clipPath>
    <clipPath
       clipPathUnits="userSpaceOnUse"
       id="clipPath43621">
      <path
         d="m -391.0283,553.515 h 595.276 v -841.89 h -595.276 z"
         id="path43623"
         style="stroke-width:0.999998" />
    </clipPath>
    <clipPath
       clipPathUnits="userSpaceOnUse"
       id="clipPath43627">
      <path
         d="m -304.7314,503.4056 h 595.276 v -841.89 h -595.276 z"
         id="path43629"
         style="stroke-width:0.999998" />
    </clipPath>
    <clipPath
       clipPathUnits="userSpaceOnUse"
       id="clipPath43633">
      <path
         d="m -276.0073,513.9486 h 595.276 v -841.89 h -595.276 z"
         id="path43635"
         style="stroke-width:0.999998" />
    </clipPath>
    <clipPath
       clipPathUnits="userSpaceOnUse"
       id="clipPath43639">
      <path
         d="m -303.1152,505.5863 h 595.276 v -841.89 h -595.276 z"
         id="path43641"
         style="stroke-width:0.999998" />
    </clipPath>
    <clipPath
       clipPathUnits="userSpaceOnUse"
       id="clipPath43645">
      <path
         d="m -131.0098,370.305 h 595.276 v -841.89 h -595.276 z"
         id="path43647"
         style="stroke-width:0.999998" />
    </clipPath>
    <clipPath
       clipPathUnits="userSpaceOnUse"
       id="clipPath43651">
      <path
         d="m -303.1152,505.5863 h 595.276 v -841.89 h -595.276 z"
         id="path43653"
         style="stroke-width:0.999998" />
    </clipPath>
    <clipPath
       clipPathUnits="userSpaceOnUse"
       id="clipPath43657">
      <path
         d="m -293.6826,520.8597 h 595.276 v -841.89 h -595.276 z"
         id="path43659"
         style="stroke-width:0.999998" />
    </clipPath>
    <clipPath
       clipPathUnits="userSpaceOnUse"
       id="clipPath43663">
      <path
         d="m -399.8154,565.6058 h 595.276 v -841.89 h -595.276 z"
         id="path43665"
         style="stroke-width:0.999998" />
    </clipPath>
    <clipPath
       clipPathUnits="userSpaceOnUse"
       id="clipPath43669">
      <path
         d="m -297.1348,249.6092 h 595.276 v -841.89 h -595.276 z"
         id="path43671"
         style="stroke-width:0.999998" />
    </clipPath>
    <clipPath
       clipPathUnits="userSpaceOnUse"
       id="clipPath43675">
      <path
         d="m -449.0518,374.9232 h 595.276 v -841.89 h -595.276 z"
         id="path43677"
         style="stroke-width:0.999998" />
    </clipPath>
    <clipPath
       clipPathUnits="userSpaceOnUse"
       id="clipPath43681">
      <path
         d="m -293.6826,520.8597 h 595.276 v -841.89 h -595.276 z"
         id="path43683"
         style="stroke-width:0.999998" />
    </clipPath>
    <clipPath
       clipPathUnits="userSpaceOnUse"
       id="clipPath43687">
      <path
         d="m -297.1348,264.5541 h 595.276 v -841.89 h -595.276 z"
         id="path43689"
         style="stroke-width:0.999998" />
    </clipPath>
  </defs>
  <sodipodi:namedview
     id="namedview42880"
     pagecolor="#ffffff"
     bordercolor="#000000"
     borderopacity="0.25"
     inkscape:showpageshadow="2"
     inkscape:pageopacity="0.0"
     inkscape:pagecheckerboard="0"
     inkscape:deskcolor="#d1d1d1"
     showgrid="false"
     inkscape:zoom="0.21024124"
     inkscape:cx="-432.83611"
     inkscape:cy="294.89933"
     inkscape:window-width="1419"
     inkscape:window-height="456"
     inkscape:window-x="0"
     inkscape:window-y="25"
     inkscape:window-maximized="0"
     inkscape:current-layer="svg42878">
    <inkscape:page
       x="0"
       y="0"
       id="page42884"
       width="793.70135"
       height="793.70135" />
  </sodipodi:namedview>
  <path
     d="M 396.18 170.812 C 448.656 170.812 483.368 186.291 506.832 199.284 C 521.104 207.18 525.092 219.264 525.092 219.264 C 525.092 219.264 540.933 197.441 559.417 172.025 C 578.722 145.471 562.666 109.563 540.86 92.8922 C 516.517 74.2696 468.145 56.9296 396.18 56.9296 C 324.224 56.9296 275.851 74.2696 251.499 92.8922 C 229.702 109.563 213.646 145.471 232.952 172.025 C 251.435 197.441 267.267 219.264 267.267 219.264 C 267.267 219.264 271.276 207.18 285.526 199.284 C 309.002 186.291 343.701 170.812 396.18 170.812"
     style="fill:#231f20;fill-opacity:1;fill-rule:nonzero;stroke:none"
     id="path42898" />
  <path
     d="M 396.18 190.739 C 428.56 190.739 459.027 201.412 486.328 215.443 C 505.057 225.064 498.184 229.298 498.184 229.298 C 498.184 229.298 492.336 230.516 492.336 235.567 C 492.336 240.607 494.014 244.142 501.573 244.142 C 509.152 244.142 514.648 235.899 514.648 229.676 C 514.648 225.647 515.341 217.688 500.546 209.056 C 472.88 192.914 434.14 180.006 396.18 180.006 C 358.229 180.006 319.488 192.914 291.823 209.056 C 277.027 217.688 277.734 225.647 277.734 229.676 C 277.734 235.899 283.228 244.142 290.795 244.142 C 298.364 244.142 300.032 240.607 300.032 235.567 C 300.032 230.516 294.195 229.298 294.195 229.298 C 294.195 229.298 287.3 225.064 306.04 215.443 C 333.332 201.412 363.809 190.739 396.18 190.739"
     style="fill:#231f20;fill-opacity:1;fill-rule:nonzero;stroke:none"
     id="path42902" />
  <path
     d="M 174.68 331.74 C 190.897 281.833 216.339 253.607 235.956 235.306 C 247.874 224.172 260.596 224.108 260.596 224.108 C 260.596 224.108 244.732 202.311 226.281 176.874 C 206.985 150.303 167.871 154.478 145.283 170.059 C 120.053 187.467 88.6135 228.111 66.3789 296.548 C 44.143 364.988 45.683 416.353 55.871 445.269 C 64.9789 471.15 94.1735 497.522 125.388 487.357 C 155.277 477.634 180.933 469.312 180.933 469.312 C 180.933 469.312 170.671 461.785 167.571 445.777 C 162.461 419.446 158.463 381.648 174.68 331.74"
     style="fill:#231f20;fill-opacity:1;fill-rule:nonzero;stroke:none"
     id="path42906" />
  <path
     d="M 193.633 337.898 C 203.638 307.111 223.213 281.427 244.989 259.802 C 259.922 244.954 261.814 252.821 261.814 252.821 C 261.814 252.821 261.173 258.75 265.983 260.31 C 270.783 261.87 274.642 261.364 276.983 254.169 C 279.325 246.974 273.189 239.192 267.266 237.268 C 263.439 236.022 256.096 232.901 243.31 244.302 C 219.397 265.629 195.161 298.483 183.424 334.585 C 171.697 370.679 171.996 411.51 178.806 442.816 C 182.441 459.546 190.234 461.348 194.061 462.592 C 199.984 464.518 209.518 461.834 211.849 454.635 C 214.19 447.446 211.357 444.752 206.548 443.196 C 201.769 441.635 198.797 446.804 198.797 446.804 C 198.797 446.804 192.638 452.063 189.272 431.266 C 184.365 400.965 183.628 368.691 193.633 337.898"
     style="fill:#231f20;fill-opacity:1;fill-rule:nonzero;stroke:none"
     id="path42910" />
  <path
     d="M 259.291 592.141 C 216.831 561.3 197.855 528.374 186.503 504.056 C 179.607 489.292 183.467 477.164 183.467 477.164 C 183.467 477.164 157.843 485.503 127.954 495.224 C 96.7061 505.348 88.5928 543.833 96.4287 570.13 C 105.194 599.517 134.122 641.978 192.35 684.269 C 250.558 726.569 299.892 740.969 330.531 740.23 C 357.972 739.547 392.064 719.942 392.052 687.102 C 392.041 655.682 392.052 628.712 392.052 628.712 C 392.052 628.712 381.727 636.141 365.541 634.142 C 338.923 630.872 301.731 622.972 259.291 592.141"
     style="fill:#231f20;fill-opacity:1;fill-rule:nonzero;stroke:none"
     id="path42914" />
  <path
     d="M 270.997 576.02 C 244.806 556.981 226.43 530.448 212.597 503.04 C 203.084 484.247 211.154 484.872 211.154 484.872 C 211.154 484.872 216.596 487.32 219.557 483.236 C 222.529 479.147 223.245 475.304 217.12 470.874 C 211.005 466.42 201.704 469.847 198.059 474.876 C 195.676 478.143 190.437 484.171 197.332 499.854 C 210.236 529.176 233.989 562.391 264.701 584.701 C 295.404 607.011 334.325 619.336 366.203 622.544 C 383.243 624.255 387.349 617.413 389.733 614.152 C 393.379 609.105 393.763 599.208 387.649 594.761 C 381.534 590.313 378.102 592.195 375.13 596.268 C 372.169 600.351 376.166 604.776 376.166 604.776 C 376.166 604.776 379.267 612.239 358.453 609.021 C 328.114 604.317 297.189 595.048 270.997 576.02"
     style="fill:#231f20;fill-opacity:1;fill-rule:nonzero;stroke:none"
     id="path42918" />
  <path
     d="M 533.087 592.141 C 490.615 622.982 453.446 630.872 426.829 634.142 C 410.631 636.141 400.306 628.724 400.306 628.724 C 400.306 628.724 400.327 655.682 400.317 687.102 C 400.283 719.942 434.395 739.547 461.827 740.221 C 492.475 740.969 541.799 726.569 600.007 684.269 C 658.225 641.978 687.173 599.517 695.929 570.141 C 703.776 543.842 695.651 505.348 664.425 495.224 C 634.525 485.503 608.9 477.164 608.9 477.164 C 608.9 477.164 612.76 489.292 605.865 504.065 C 594.512 528.374 575.538 561.3 533.087 592.141"
     style="fill:#231f20;fill-opacity:1;fill-rule:nonzero;stroke:none"
     id="path42922" />
  <path
     d="M 521.371 576.02 C 495.17 595.048 464.254 604.317 433.915 609.021 C 413.102 612.239 416.179 604.776 416.179 604.776 C 416.179 604.776 420.199 600.351 417.229 596.268 C 414.267 592.195 410.835 590.313 404.721 594.761 C 398.595 599.208 398.981 609.105 402.647 614.152 C 405.01 617.413 409.125 624.255 426.166 622.544 C 458.043 619.348 496.964 607.011 527.678 584.701 C 558.38 562.391 582.132 529.176 595.036 499.854 C 601.92 484.171 596.692 478.148 594.309 474.876 C 590.653 469.847 581.352 466.42 575.248 470.874 C 569.123 475.31 569.84 479.159 572.8 483.236 C 575.762 487.32 581.214 484.872 581.214 484.872 C 581.214 484.872 589.275 484.247 579.771 503.04 C 565.938 530.459 547.562 556.981 521.371 576.02"
     style="fill:#231f20;fill-opacity:1;fill-rule:nonzero;stroke:none"
     id="path42926" />
  <path
     d="M 617.689 331.74 C 633.906 381.653 629.908 419.446 624.798 445.782 C 621.698 461.785 611.445 469.322 611.445 469.322 C 611.445 469.322 637.092 477.634 666.981 487.357 C 698.185 497.522 727.39 471.15 736.498 445.269 C 746.686 416.353 748.225 364.992 725.979 296.559 C 703.755 228.111 672.316 187.467 647.098 170.059 C 624.498 154.478 585.384 150.308 566.088 176.874 C 547.627 202.311 531.772 224.114 531.772 224.114 C 531.772 224.114 544.495 224.178 556.413 235.311 C 576.03 253.607 601.472 281.844 617.689 331.74"
     style="fill:#231f20;fill-opacity:1;fill-rule:nonzero;stroke:none"
     id="path42930" />
  <path
     d="M 598.736 337.898 C 608.741 368.691 607.992 400.97 603.097 431.271 C 599.729 452.063 593.583 446.815 593.583 446.815 C 593.583 446.815 590.611 441.635 585.812 443.196 C 581.011 444.752 578.179 447.446 580.52 454.635 C 582.861 461.834 592.396 464.523 598.308 462.592 C 602.147 461.354 609.928 459.551 613.563 442.816 C 620.373 411.516 620.672 370.685 608.944 334.59 C 597.217 298.483 572.973 265.634 549.069 244.302 C 536.273 232.906 528.93 236.028 525.092 237.268 C 519.18 239.192 513.043 246.974 515.384 254.169 C 517.715 261.364 521.596 261.87 526.396 260.314 C 531.196 258.756 530.554 252.826 530.554 252.826 C 530.554 252.826 532.445 244.954 547.391 259.808 C 569.167 281.433 588.729 307.111 598.736 337.898"
     style="fill:#231f20;fill-opacity:1;fill-rule:nonzero;stroke:none"
     id="path42934" />
  <path
     d="M 391.577 532.48 L 391.588 535.141 C 391.588 535.141 392.032 540.016 396.26 539.803 C 400.488 539.579 400.862 535.045 400.862 535.045 L 400.85 515.729 Z"
     style="fill:#231f20;fill-opacity:1;fill-rule:nonzero;stroke:none"
     id="path42938" />
  <path
     d="M 391.577 532.48 L 391.588 535.141 C 391.588 535.141 392.032 540.016 396.26 539.803 C 400.488 539.579 400.862 535.045 400.862 535.045 L 400.85 515.729 Z"
     style="fill:#231f20;fill-opacity:1;fill-rule:nonzero;stroke:none"
     id="path42942" />
  <path
     d="M 404.154 512.115 L 404.165 531.175 L 405.785 533.998 C 405.785 533.998 408.554 538.048 412.145 535.804 C 415.727 533.538 413.846 529.412 413.846 529.412 Z"
     style="fill:#231f20;fill-opacity:1;fill-rule:nonzero;stroke:none"
     id="path42946" />
  <path
     d="M 404.154 512.115 L 404.165 531.175 L 405.785 533.998 C 405.785 533.998 408.554 538.048 412.145 535.804 C 415.727 533.538 413.846 529.412 413.846 529.412 Z"
     style="fill:#231f20;fill-opacity:1;fill-rule:nonzero;stroke:none"
     id="path42950" />
  <path
     d="M 368.01 523.265 C 368.982 524.677 370.149 524.997 371.25 525.008 C 371.87 525.008 372.453 524.88 372.865 524.756 C 373.302 524.628 373.565 524.505 373.543 524.526 L 588.579 393.249 C 588.152 392.207 587.056 389.641 585.207 385.908 L 369.406 517.781 C 369.417 517.802 367.299 519.416 367.358 521.33 C 367.358 521.924 367.519 522.544 368.01 523.265"
     style="fill:#231f20;fill-opacity:1;fill-rule:nonzero;stroke:none"
     id="path42954" />
  <path
     d="M 406.309 509.207 L 413.706 522.442 L 418.549 525.402 C 418.549 525.402 422.937 527.583 424.973 523.874 C 426.994 520.154 423.337 517.459 423.337 517.459 L 408.12 508.106 Z"
     style="fill:#231f20;fill-opacity:1;fill-rule:nonzero;stroke:none"
     id="path42958" />
  <path
     d="M 381.71 524.26 L 378.818 529.519 C 378.818 529.519 376.825 533.999 380.621 535.88 C 384.426 537.739 386.965 533.976 386.965 533.976 L 397.794 514.413 Z"
     style="fill:#231f20;fill-opacity:1;fill-rule:nonzero;stroke:none"
     id="path42962" />
  <path
     d="M 381.71 524.26 L 378.818 529.519 C 378.818 529.519 376.825 533.999 380.621 535.88 C 384.426 537.739 386.965 533.976 386.965 533.976 L 397.794 514.413 Z"
     style="fill:#231f20;fill-opacity:1;fill-rule:nonzero;stroke:none"
     id="path42966" />
  <path
     d="M 298.551 450.445 C 303.074 442.376 330.012 400.169 396.179 400.169 C 431.921 400.154 464.065 415.541 486.371 440.042 L 581.598 381.875 C 545.866 316.16 476.236 271.579 396.179 271.579 C 323.951 271.588 276.043 302.195 246.056 332.832 C 219.337 360.144 207.001 387.357 204.627 392.973 Z"
     style="fill:#231f20;fill-opacity:1;fill-rule:nonzero;stroke:none"
     id="path42970" />
  <path
     d="m 399.18879,494.09948 13.656,-8.26533 38.14267,-68.01467 c -2.27734,-1.176 -4.66,-2.29866 -7.16267,-3.364 z"
     style="fill:#231f20;fill-opacity:1;fill-rule:nonzero;stroke:none;stroke-width:1.33333"
     id="path42974" />
  <path
     d="m 392.20839,497.02388 7.916,-14.00267 0.032,-77.58133 c -1.30933,-0.0333 -2.62533,-0.06 -3.972,-0.06 -1.352,0 -2.668,0.0267 -3.976,0.06 z"
     style="fill:#231f20;fill-opacity:1;fill-rule:nonzero;stroke:none;stroke-width:1.33333"
     id="path42978" />
  <path
     d="M 384.003 503.296 L 376.184 489.249 L 307.489 447.223 C 305.687 449.787 304.309 452.071 303.266 453.908 Z"
     style="fill:#231f20;fill-opacity:1;fill-rule:nonzero;stroke:none"
     id="path42982" />
  <path
     d="M 387.552 500.043 L 387.616 484.062 L 348.539 414.445 C 346.031 415.518 343.653 416.641 341.376 417.822 Z"
     style="fill:#231f20;fill-opacity:1;fill-rule:nonzero;stroke:none"
     id="path42986" />
</svg>
