<?xml version="1.0" encoding="UTF-8" standalone="no"?>
<!-- Created with Inkscape (http://www.inkscape.org/) -->

<svg
   sodipodi:docname="Gokani Maruni Futatsuhiki.svg"
   viewBox="0 0 793.70135 793.70135"
   height="793.70135"
   width="793.70135"
   id="svg37963"
   version="1.1"
   inkscape:version="1.2 (dc2aeda, 2022-05-15)"
   xmlns:inkscape="http://www.inkscape.org/namespaces/inkscape"
   xmlns:sodipodi="http://sodipodi.sourceforge.net/DTD/sodipodi-0.dtd"
   xmlns="http://www.w3.org/2000/svg"
   xmlns:svg="http://www.w3.org/2000/svg">
  <defs
     id="defs37967">
    <clipPath
       clipPathUnits="userSpaceOnUse"
       id="clipPath38378">
      <path
         d="m -297.1333,264.5516 h 595.276 v -841.89 h -595.276 z"
         id="path38380"
         style="stroke-width:0.999998" />
    </clipPath>
    <clipPath
       clipPathUnits="userSpaceOnUse"
       id="clipPath38384">
      <path
         d="m -145.2251,374.9198 h 595.276 v -841.89 h -595.276 z"
         id="path38386"
         style="stroke-width:0.999998" />
    </clipPath>
    <clipPath
       clipPathUnits="userSpaceOnUse"
       id="clipPath38390">
      <path
         d="m -131.0103,370.3036 h 595.276 v -841.89 h -595.276 z"
         id="path38392"
         style="stroke-width:0.999998" />
    </clipPath>
    <clipPath
       clipPathUnits="userSpaceOnUse"
       id="clipPath38396">
      <path
         d="m -297.1333,249.6048 h 595.276 v -841.89 h -595.276 z"
         id="path38398"
         style="stroke-width:0.999998" />
    </clipPath>
    <clipPath
       clipPathUnits="userSpaceOnUse"
       id="clipPath38402">
      <path
         d="m -399.8145,565.6039 h 595.276 v -841.89 h -595.276 z"
         id="path38404"
         style="stroke-width:0.999998" />
    </clipPath>
    <clipPath
       clipPathUnits="userSpaceOnUse"
       id="clipPath38408">
      <path
         d="m -463.2656,370.3036 h 595.276 v -841.89 h -595.276 z"
         id="path38410"
         style="stroke-width:0.999998" />
    </clipPath>
    <clipPath
       clipPathUnits="userSpaceOnUse"
       id="clipPath38414">
      <path
         d="m -449.0508,374.9217 h 595.276 v -841.89 h -595.276 z"
         id="path38416"
         style="stroke-width:0.999998" />
    </clipPath>
    <clipPath
       clipPathUnits="userSpaceOnUse"
       id="clipPath38420">
      <path
         d="m -391.0273,553.5121 h 595.276 v -841.89 h -595.276 z"
         id="path38422"
         style="stroke-width:0.999998" />
    </clipPath>
    <clipPath
       clipPathUnits="userSpaceOnUse"
       id="clipPath38426">
      <path
         d="m -203.248,553.5121 h 595.276 v -841.89 h -595.276 z"
         id="path38428"
         style="stroke-width:0.999998" />
    </clipPath>
    <clipPath
       clipPathUnits="userSpaceOnUse"
       id="clipPath38432">
      <path
         d="m -194.4688,565.6039 h 595.276 v -841.89 h -595.276 z"
         id="path38434"
         style="stroke-width:0.999998" />
    </clipPath>
    <clipPath
       clipPathUnits="userSpaceOnUse"
       id="clipPath38438">
      <path
         d="m -195.6875,451.348 h 595.276 v -841.89 h -595.276 z"
         id="path38440"
         style="stroke-width:0.999998" />
    </clipPath>
  </defs>
  <sodipodi:namedview
     id="namedview37965"
     pagecolor="#ffffff"
     bordercolor="#000000"
     borderopacity="0.25"
     inkscape:showpageshadow="2"
     inkscape:pageopacity="0.0"
     inkscape:pagecheckerboard="0"
     inkscape:deskcolor="#d1d1d1"
     showgrid="false"
     inkscape:zoom="0.21024124"
     inkscape:cx="-1234.2964"
     inkscape:cy="561.26001"
     inkscape:window-width="1419"
     inkscape:window-height="456"
     inkscape:window-x="0"
     inkscape:window-y="25"
     inkscape:window-maximized="0"
     inkscape:current-layer="svg37963">
    <inkscape:page
       x="0"
       y="0"
       id="page37969"
       width="793.70135"
       height="793.70135" />
  </sodipodi:namedview>
  <path
     d="m 396.178,174.806 c 52.479,0 87.189,15.481 110.653,28.473 14.273,7.898 18.26,19.98 18.26,19.98 0,0 15.841,-21.824 34.325,-47.24 19.306,-26.55 3.251,-62.462 -18.557,-79.133 -24.344,-18.62 -72.716,-35.958 -144.681,-35.958 -71.953,0 -120.326,17.338 -144.678,35.958 -21.798,16.671 -37.854,52.583 -18.547,79.133 18.483,25.416 34.315,47.24 34.315,47.24 0,0 4.009,-12.082 18.258,-19.98 23.476,-12.992 58.176,-28.473 110.652,-28.473"
     style="fill:#231f20;fill-opacity:1;fill-rule:nonzero;stroke:none"
     id="path37983" />
  <path
     d="m 396.178,194.735 c 32.383,0 62.848,10.675 90.15,24.705 18.73,9.622 11.854,13.851 11.854,13.851 0,0 -5.846,1.221 -5.846,6.271 0,5.04 1.676,8.573 9.236,8.573 7.579,0 13.074,-8.24 13.074,-14.461 0,-4.032 0.696,-11.99 -14.099,-20.622 -27.667,-16.144 -66.409,-29.049 -104.369,-29.049 -37.948,0 -76.689,12.905 -104.356,29.049 -14.794,8.632 -14.088,16.59 -14.088,20.622 0,6.221 5.495,14.461 13.062,14.461 7.569,0 9.237,-3.533 9.237,-8.573 0,-5.05 -5.837,-6.271 -5.837,-6.271 0,0 -6.895,-4.229 11.845,-13.851 27.292,-14.03 57.769,-24.705 90.137,-24.705"
     style="fill:#231f20;fill-opacity:1;fill-rule:nonzero;stroke:none"
     id="path37987" />
  <path
     d="m 174.68,335.738 c 16.217,-49.909 41.659,-78.137 61.276,-96.436 11.918,-11.133 24.64,-11.197 24.64,-11.197 0,0 -15.864,-21.797 -34.315,-47.235 -19.296,-26.569 -58.41,-22.398 -80.998,-6.817 -25.23,17.409 -56.6695,58.052 -78.9041,126.492 -22.2359,68.44 -20.6972,119.803 -10.5079,148.721 9.1079,25.877 38.3025,52.252 69.517,42.085 29.889,-9.724 55.545,-18.044 55.545,-18.044 0,0 -10.262,-7.525 -13.362,-23.533 -5.11,-26.331 -9.108,-64.129 7.109,-114.036"
     style="fill:#231f20;fill-opacity:1;fill-rule:nonzero;stroke:none"
     id="path37991" />
  <path
     d="m 193.633,341.893 c 10.005,-30.788 29.58,-56.471 51.356,-78.096 14.933,-14.849 16.825,-6.981 16.825,-6.981 0,0 -0.641,5.931 4.169,7.492 4.8,1.557 8.659,1.049 11,-6.143 2.342,-7.196 -3.794,-14.978 -9.717,-16.901 -3.827,-1.245 -11.17,-4.367 -23.956,7.032 -23.914,21.327 -48.149,54.184 -59.886,90.284 -11.727,36.097 -11.428,76.927 -4.618,108.233 3.634,16.729 11.428,18.528 15.255,19.776 5.923,1.921 15.457,-0.76 17.788,-7.959 2.341,-7.192 -0.492,-9.885 -5.301,-11.44 -4.779,-1.56 -7.751,3.609 -7.751,3.609 0,0 -6.159,5.259 -9.525,-15.536 -4.907,-30.305 -5.644,-62.577 4.361,-93.37"
     style="fill:#231f20;fill-opacity:1;fill-rule:nonzero;stroke:none"
     id="path37995" />
  <path
     d="m 259.292,596.139 c -42.46,-30.836 -61.436,-63.768 -72.788,-88.081 -6.896,-14.773 -3.036,-26.897 -3.036,-26.897 0,0 -25.624,8.338 -55.513,18.061 -31.2479,10.128 -39.3612,48.612 -31.5253,74.906 8.7653,29.391 37.6933,71.847 95.9213,114.139 58.208,42.298 107.542,56.7 138.181,55.965 27.441,-0.681 61.532,-20.293 61.52,-53.129 -0.011,-31.417 0,-58.388 0,-58.388 0,0 -10.326,7.424 -26.51,5.429 -26.618,-3.276 -63.81,-11.169 -106.25,-42.005"
     style="fill:#231f20;fill-opacity:1;fill-rule:nonzero;stroke:none"
     id="path37999" />
  <path
     d="m 270.997,580.016 c -26.191,-19.033 -44.567,-45.571 -58.4,-72.973 -9.513,-18.803 -1.443,-18.177 -1.443,-18.177 0,0 5.442,2.448 8.403,-1.634 2.971,-4.088 3.688,-7.932 -2.437,-12.364 -6.115,-4.45 -15.416,-1.026 -19.061,4.006 -2.384,3.262 -7.622,9.29 -0.727,24.976 12.902,29.327 36.657,62.543 67.369,84.849 30.703,22.309 69.624,34.64 101.502,37.845 17.039,1.712 21.144,-5.135 23.528,-8.395 3.646,-5.042 4.031,-14.94 -2.084,-19.388 -6.114,-4.445 -9.546,-2.565 -12.518,1.507 -2.962,4.079 1.036,8.505 1.036,8.505 0,0 3.101,7.467 -17.712,4.243 -30.339,-4.697 -61.264,-13.967 -87.456,-33"
     style="fill:#231f20;fill-opacity:1;fill-rule:nonzero;stroke:none"
     id="path38003" />
  <path
     d="m 533.086,596.139 c -42.472,30.847 -79.64,38.729 -106.257,42.005 -16.199,1.995 -26.524,-5.42 -26.524,-5.42 0,0 0.021,26.962 0.011,58.379 -0.032,32.836 34.08,52.448 61.51,53.12 30.648,0.744 79.973,-13.652 138.181,-55.956 58.217,-42.292 87.167,-84.748 95.923,-114.128 7.846,-26.295 -0.279,-64.789 -31.506,-74.917 -29.898,-9.723 -55.524,-18.061 -55.524,-18.061 0,0 3.86,12.124 -3.036,26.908 -11.351,24.302 -30.327,57.234 -72.778,88.07"
     style="fill:#231f20;fill-opacity:1;fill-rule:nonzero;stroke:none"
     id="path38007" />
  <path
     d="m 521.37,580.016 c -26.2,19.033 -57.117,28.303 -87.456,33 -20.812,3.224 -17.734,-4.243 -17.734,-4.243 0,0 4.018,-4.426 1.048,-8.505 -2.962,-4.072 -6.394,-5.952 -12.508,-1.507 -6.126,4.448 -5.74,14.346 -2.074,19.388 2.363,3.26 6.479,10.107 23.519,8.395 31.877,-3.195 70.798,-15.536 101.512,-37.845 30.704,-22.306 54.456,-55.522 67.359,-84.849 6.883,-15.686 1.656,-21.708 -0.726,-24.976 -3.656,-5.032 -12.959,-8.456 -19.063,-4.006 -6.125,4.438 -5.408,8.287 -2.448,12.364 2.962,4.082 8.415,1.634 8.415,1.634 0,0 8.06,-0.626 -1.443,18.177 -13.833,27.413 -32.21,53.94 -58.401,72.973"
     style="fill:#231f20;fill-opacity:1;fill-rule:nonzero;stroke:none"
     id="path38011" />
  <path
     d="m 617.687,335.738 c 16.216,49.912 12.219,87.705 7.109,114.041 -3.098,16.003 -13.352,23.539 -13.352,23.539 0,0 25.647,8.309 55.535,18.033 31.205,10.167 60.41,-16.205 69.517,-42.085 10.188,-28.918 11.727,-80.279 -10.517,-148.712 -22.224,-68.445 -53.664,-109.092 -78.883,-126.498 -22.6,-15.58 -61.714,-19.75 -81.01,6.812 -18.461,25.44 -34.316,47.24 -34.316,47.24 0,0 12.723,0.066 24.641,11.197 19.617,18.296 45.06,46.534 61.276,96.433"
     style="fill:#231f20;fill-opacity:1;fill-rule:nonzero;stroke:none"
     id="path38015" />
  <path
     d="m 598.734,341.896 c 10.005,30.791 9.257,63.068 4.361,93.373 -3.366,20.789 -9.514,15.541 -9.514,15.541 0,0 -2.972,-5.18 -7.771,-3.62 -4.8,1.555 -7.633,4.248 -5.292,11.44 2.341,7.199 11.877,9.886 17.789,7.959 3.839,-1.243 11.62,-3.041 15.255,-19.776 6.811,-31.303 7.107,-72.13 -4.62,-108.228 -11.727,-36.105 -35.971,-68.957 -59.875,-90.286 -12.794,-11.399 -20.139,-8.273 -23.975,-7.035 -5.912,1.926 -12.051,9.708 -9.71,16.902 2.331,7.194 6.212,7.7 11.011,6.145 4.803,-1.561 4.159,-7.489 4.159,-7.489 0,0 1.893,-7.871 16.838,6.981 21.776,21.625 41.339,47.302 51.344,78.093"
     style="fill:#231f20;fill-opacity:1;fill-rule:nonzero;stroke:none"
     id="path38019" />
  <path
     d="m 260.917,443.797 270.523,-0.005 c 2.96,-11.32 4.555,-23.2 4.555,-35.479 0,-12.524 -1.652,-24.652 -4.732,-36.181 L 261.11,372.128 c -3.078,11.528 -4.746,23.65 -4.746,36.185 0,12.279 1.592,24.164 4.553,35.484 M 510.018,327.164 c -4.508,-6.296 -9.506,-12.24 -14.976,-17.719 -25.36,-25.334 -60.188,-40.942 -98.864,-40.953 -38.671,0.011 -73.498,15.619 -98.866,40.953 -5.478,5.484 -10.492,11.407 -14.998,17.719 z m 0.489,161.606 -228.69,-0.004 c 4.639,6.57 9.824,12.726 15.495,18.408 25.368,25.331 60.195,40.943 98.866,40.948 38.676,-0.005 73.504,-15.617 98.864,-40.948 5.664,-5.677 10.833,-11.838 15.465,-18.404 M 217.018,408.313 c 0.016,-98.96 80.204,-179.145 179.16,-179.166 98.957,0.021 179.15,80.206 179.16,179.166 -0.01,98.948 -80.203,179.142 -179.16,179.161 -98.956,-0.019 -179.144,-80.213 -179.16,-179.161"
     style="fill:#231f20;fill-opacity:1;fill-rule:nonzero;stroke:none"
     id="path38023" />
</svg>
