<?xml version="1.0" encoding="UTF-8" standalone="no"?>
<!-- Created with Inkscape (http://www.inkscape.org/) -->

<svg
   sodipodi:docname="Gokani Tigaitakanoha.svg"
   viewBox="0 0 793.70135 793.70135"
   height="793.70135"
   width="793.70135"
   id="svg47290"
   version="1.1"
   inkscape:version="1.2 (dc2aeda, 2022-05-15)"
   xmlns:inkscape="http://www.inkscape.org/namespaces/inkscape"
   xmlns:sodipodi="http://sodipodi.sourceforge.net/DTD/sodipodi-0.dtd"
   xmlns="http://www.w3.org/2000/svg"
   xmlns:svg="http://www.w3.org/2000/svg">
  <defs
     id="defs47294">
    <clipPath
       clipPathUnits="userSpaceOnUse"
       id="clipPath48553">
      <path
         d="m -383.1777,495.6898 h 595.276 v -841.89 h -595.276 z"
         id="path48555"
         style="stroke-width:0.999998" />
    </clipPath>
    <clipPath
       clipPathUnits="userSpaceOnUse"
       id="clipPath48559">
      <path
         d="m -346.5508,457.4027 h 595.276 v -841.89 h -595.276 z"
         id="path48561"
         style="stroke-width:0.999998" />
    </clipPath>
    <clipPath
       clipPathUnits="userSpaceOnUse"
       id="clipPath48565">
      <path
         d="m -356.2715,447.6849 h 595.276 v -841.89 h -595.276 z"
         id="path48567"
         style="stroke-width:0.999998" />
    </clipPath>
    <clipPath
       clipPathUnits="userSpaceOnUse"
       id="clipPath48571">
      <path
         d="m -232.2832,397.2806 h 595.276 v -841.89 h -595.276 z"
         id="path48573"
         style="stroke-width:0.999998" />
    </clipPath>
    <clipPath
       clipPathUnits="userSpaceOnUse"
       id="clipPath48577">
      <path
         d="m -222.5977,406.9964 h 595.276 v -841.89 h -595.276 z"
         id="path48579"
         style="stroke-width:0.999998" />
    </clipPath>
    <clipPath
       clipPathUnits="userSpaceOnUse"
       id="clipPath48585">
      <path
         d="m -136.1841,371.8685 h 595.276 v -841.89 h -595.276 z"
         id="path48587"
         style="stroke-width:0.999998" />
    </clipPath>
    <clipPath
       clipPathUnits="userSpaceOnUse"
       id="clipPath48591">
      <path
         d="m -380.5762,423.3783 h 595.276 v -841.89 h -595.276 z"
         id="path48593"
         style="stroke-width:0.999998" />
    </clipPath>
    <clipPath
       clipPathUnits="userSpaceOnUse"
       id="clipPath48597">
      <path
         d="m -197.6631,561.0814 h 595.276 v -841.89 h -595.276 z"
         id="path48599"
         style="stroke-width:0.999998" />
    </clipPath>
    <clipPath
       clipPathUnits="userSpaceOnUse"
       id="clipPath48603">
      <path
         d="m -258.5488,371.0453 h 595.276 v -841.89 h -595.276 z"
         id="path48605"
         style="stroke-width:0.999998" />
    </clipPath>
    <clipPath
       clipPathUnits="userSpaceOnUse"
       id="clipPath48609">
      <path
         d="m -242.04,387.5697 h 595.276 v -841.89 H -242.04 Z"
         id="path48611"
         style="stroke-width:0.999998" />
    </clipPath>
    <clipPath
       clipPathUnits="userSpaceOnUse"
       id="clipPath48615">
      <path
         d="m -389.0234,501.5355 h 595.276 v -841.89 h -595.276 z"
         id="path48617"
         style="stroke-width:0.999998" />
    </clipPath>
    <clipPath
       clipPathUnits="userSpaceOnUse"
       id="clipPath48621">
      <path
         d="m -149.9546,376.3431 h 595.276 v -841.89 h -595.276 z"
         id="path48623"
         style="stroke-width:0.999998" />
    </clipPath>
    <clipPath
       clipPathUnits="userSpaceOnUse"
       id="clipPath48627">
      <path
         d="m -253.9229,452.8968 h 595.276 v -841.89 h -595.276 z"
         id="path48629"
         style="stroke-width:0.999998" />
    </clipPath>
    <clipPath
       clipPathUnits="userSpaceOnUse"
       id="clipPath48633">
      <path
         d="m -388.1055,549.3675 h 595.276 v -841.89 h -595.276 z"
         id="path48635"
         style="stroke-width:0.999998" />
    </clipPath>
    <clipPath
       clipPathUnits="userSpaceOnUse"
       id="clipPath48639">
      <path
         d="m -208.6191,498.1517 h 595.276 v -841.89 h -595.276 z"
         id="path48641"
         style="stroke-width:0.999998" />
    </clipPath>
    <clipPath
       clipPathUnits="userSpaceOnUse"
       id="clipPath48645">
      <path
         d="M -221.082,505.68 H 374.194 V -336.21 H -221.082 Z"
         id="path48647"
         style="stroke-width:0.999998" />
    </clipPath>
    <clipPath
       clipPathUnits="userSpaceOnUse"
       id="clipPath48651">
      <path
         d="m -234.4922,472.3295 h 595.276 v -841.89 h -595.276 z"
         id="path48653"
         style="stroke-width:0.999998" />
    </clipPath>
    <clipPath
       clipPathUnits="userSpaceOnUse"
       id="clipPath48657">
      <path
         d="m -458.0938,371.8685 h 595.276 v -841.89 h -595.276 z"
         id="path48659"
         style="stroke-width:0.999998" />
    </clipPath>
    <clipPath
       clipPathUnits="userSpaceOnUse"
       id="clipPath48663">
      <path
         d="m -244.209,462.6097 h 595.276 v -841.89 h -595.276 z"
         id="path48665"
         style="stroke-width:0.999998" />
    </clipPath>
    <clipPath
       clipPathUnits="userSpaceOnUse"
       id="clipPath48669">
      <path
         d="m -444.3203,376.3451 h 595.276 v -841.89 h -595.276 z"
         id="path48671"
         style="stroke-width:0.999998" />
    </clipPath>
    <clipPath
       clipPathUnits="userSpaceOnUse"
       id="clipPath48675">
      <path
         d="m -215.2412,511.517 h 595.276 v -841.89 h -595.276 z"
         id="path48677"
         style="stroke-width:0.999998" />
    </clipPath>
    <clipPath
       clipPathUnits="userSpaceOnUse"
       id="clipPath48681">
      <path
         d="m -306.2539,400.5296 h 595.276 v -841.89 h -595.276 z"
         id="path48683"
         style="stroke-width:0.999998" />
    </clipPath>
    <clipPath
       clipPathUnits="userSpaceOnUse"
       id="clipPath48687">
      <path
         d="m -251.0439,378.5375 h 595.276 v -841.89 h -595.276 z"
         id="path48689"
         style="stroke-width:0.999998" />
    </clipPath>
    <clipPath
       clipPathUnits="userSpaceOnUse"
       id="clipPath48695">
      <path
         d="m -215.2373,491.5453 h 595.276 v -841.89 h -595.276 z"
         id="path48697"
         style="stroke-width:0.999998" />
    </clipPath>
    <clipPath
       clipPathUnits="userSpaceOnUse"
       id="clipPath48701">
      <path
         d="m -297.1372,269.4081 h 595.276 v -841.89 h -595.276 z"
         id="path48703"
         style="stroke-width:0.999998" />
    </clipPath>
    <clipPath
       clipPathUnits="userSpaceOnUse"
       id="clipPath48707">
      <path
         d="m -297.1372,254.9286 h 595.276 v -841.89 h -595.276 z"
         id="path48709"
         style="stroke-width:0.999998" />
    </clipPath>
    <clipPath
       clipPathUnits="userSpaceOnUse"
       id="clipPath48713">
      <path
         d="m -213.1045,417.7738 h 595.276 v -841.89 h -595.276 z"
         id="path48715"
         style="stroke-width:0.999998" />
    </clipPath>
    <clipPath
       clipPathUnits="userSpaceOnUse"
       id="clipPath48720">
      <path
         d="m -331.3652,472.5716 h 595.276 v -841.89 h -595.276 z"
         id="path48722"
         style="stroke-width:0.999998" />
    </clipPath>
    <clipPath
       clipPathUnits="userSpaceOnUse"
       id="clipPath48726">
      <path
         d="m -369.0391,501.5355 h 595.276 v -841.89 h -595.276 z"
         id="path48728"
         style="stroke-width:0.999998" />
    </clipPath>
    <clipPath
       clipPathUnits="userSpaceOnUse"
       id="clipPath48733">
      <path
         d="m -336.0879,462.8685 h 595.276 v -841.89 h -595.276 z"
         id="path48735"
         style="stroke-width:0.999998" />
    </clipPath>
    <clipPath
       clipPathUnits="userSpaceOnUse"
       id="clipPath48739">
      <path
         d="m -326.3691,472.5892 h 595.276 v -841.89 h -595.276 z"
         id="path48741"
         style="stroke-width:0.999998" />
    </clipPath>
    <clipPath
       clipPathUnits="userSpaceOnUse"
       id="clipPath48745">
      <path
         d="m -394.543,400.849 h 595.276 v -841.89 h -595.276 z"
         id="path48747"
         style="stroke-width:0.999998" />
    </clipPath>
    <clipPath
       clipPathUnits="userSpaceOnUse"
       id="clipPath48751">
      <path
         d="m -399.627,387.5912 h 595.276 v -841.89 h -595.276 z"
         id="path48753"
         style="stroke-width:0.999998" />
    </clipPath>
    <clipPath
       clipPathUnits="userSpaceOnUse"
       id="clipPath48757">
      <path
         d="m -398.6328,391.1254 h 595.276 v -841.89 h -595.276 z"
         id="path48759"
         style="stroke-width:0.999998" />
    </clipPath>
    <clipPath
       clipPathUnits="userSpaceOnUse"
       id="clipPath48764">
      <path
         d="m -375.6543,508.1576 h 595.276 v -841.89 h -595.276 z"
         id="path48766"
         style="stroke-width:0.999998" />
    </clipPath>
    <clipPath
       clipPathUnits="userSpaceOnUse"
       id="clipPath48771">
      <path
         d="m -316.6523,482.305 h 595.276 v -841.89 h -595.276 z"
         id="path48773"
         style="stroke-width:0.999998" />
    </clipPath>
    <clipPath
       clipPathUnits="userSpaceOnUse"
       id="clipPath48777">
      <path
         d="m -388.0254,410.5619 h 595.276 v -841.89 h -595.276 z"
         id="path48779"
         style="stroke-width:0.999998" />
    </clipPath>
    <clipPath
       clipPathUnits="userSpaceOnUse"
       id="clipPath48783">
      <path
         d="m -206.1699,549.3675 h 595.276 v -841.89 h -595.276 z"
         id="path48785"
         style="stroke-width:0.999998" />
    </clipPath>
    <clipPath
       clipPathUnits="userSpaceOnUse"
       id="clipPath48789">
      <path
         d="m -396.6152,561.0814 h 595.276 v -841.89 h -595.276 z"
         id="path48791"
         style="stroke-width:0.999998" />
    </clipPath>
    <clipPath
       clipPathUnits="userSpaceOnUse"
       id="clipPath48795">
      <path
         d="m -321.6465,482.2767 h 595.276 v -841.89 h -595.276 z"
         id="path48797"
         style="stroke-width:0.999998" />
    </clipPath>
    <clipPath
       clipPathUnits="userSpaceOnUse"
       id="clipPath48801">
      <path
         d="m -386.75,504.2611 h 595.276 v -841.89 H -386.75 Z"
         id="path48803"
         style="stroke-width:0.999998" />
    </clipPath>
  </defs>
  <sodipodi:namedview
     id="namedview47292"
     pagecolor="#ffffff"
     bordercolor="#000000"
     borderopacity="0.25"
     inkscape:showpageshadow="2"
     inkscape:pageopacity="0.0"
     inkscape:pagecheckerboard="0"
     inkscape:deskcolor="#d1d1d1"
     showgrid="false"
     inkscape:zoom="0.21024124"
     inkscape:cx="-1234.2964"
     inkscape:cy="561.26001"
     inkscape:window-width="1419"
     inkscape:window-height="456"
     inkscape:window-x="0"
     inkscape:window-y="25"
     inkscape:window-maximized="0"
     inkscape:current-layer="svg47290">
    <inkscape:page
       x="0"
       y="0"
       id="page47296"
       width="793.70135"
       height="793.70135" />
  </sodipodi:namedview>
  <path
     d="m 396.183,177.905 c 50.843,0 84.473,14.999 107.213,27.588 13.815,7.649 17.689,19.355 17.689,19.355 0,0 15.342,-21.143 33.254,-45.77 18.708,-25.726 3.148,-60.517 -17.978,-76.67 -23.58,-18.039 -70.457,-34.837 -140.178,-34.837 -69.721,0 -116.586,16.798 -140.178,34.837 -21.124,16.153 -36.679,50.944 -17.971,76.67 17.907,24.627 33.247,45.77 33.247,45.77 0,0 3.88,-11.706 17.69,-19.355 22.744,-12.589 56.371,-27.588 107.212,-27.588"
     style="fill:#231f20;fill-opacity:1;fill-rule:nonzero;stroke:none"
     id="path47310" />
  <path
     d="m 396.183,197.211 c 31.372,0 60.892,10.343 87.342,23.935 18.15,9.325 11.478,13.425 11.478,13.425 0,0 -5.659,1.183 -5.659,6.071 0,4.885 1.629,8.306 8.949,8.306 7.334,0 12.666,-7.982 12.666,-14.009 0,-3.907 0.676,-11.615 -13.658,-19.98 -26.806,-15.641 -64.342,-28.147 -101.118,-28.147 -36.775,0 -74.306,12.506 -101.112,28.147 -14.334,8.365 -13.657,16.073 -13.657,19.98 0,6.027 5.335,14.009 12.659,14.009 7.333,0 8.957,-3.421 8.957,-8.306 0,-4.888 -5.656,-6.071 -5.656,-6.071 0,0 -6.681,-4.1 11.472,-13.425 26.446,-13.592 55.972,-23.935 87.337,-23.935"
     style="fill:#231f20;fill-opacity:1;fill-rule:nonzero;stroke:none"
     id="path47314" />
  <path
     d="m 181.579,333.825 c 15.715,-48.353 40.365,-75.701 59.368,-93.433 11.545,-10.784 23.865,-10.848 23.865,-10.848 0,0 -15.361,-21.121 -33.246,-45.765 -18.686,-25.744 -56.583,-21.7 -78.471,-6.603 -24.448,16.863 -54.9091,56.245 -76.4491,122.553 -21.5466,66.308 -20.0546,116.073 -10.1879,144.089 8.8293,25.075 37.116,50.623 67.358,40.78 28.959,-9.425 53.814,-17.48 53.814,-17.48 0,0 -9.942,-7.297 -12.946,-22.805 -4.949,-25.515 -8.82,-62.133 6.895,-110.488"
     style="fill:#231f20;fill-opacity:1;fill-rule:nonzero;stroke:none"
     id="path47318" />
  <path
     d="m 199.939,339.791 c 9.696,-29.832 28.655,-54.713 49.757,-75.668 14.474,-14.384 16.302,-6.764 16.302,-6.764 0,0 -0.619,5.748 4.03,7.259 4.651,1.509 8.403,1.021 10.669,-5.952 2.266,-6.969 -3.682,-14.509 -9.418,-16.372 -3.71,-1.208 -10.829,-4.231 -23.213,6.812 -23.166,20.664 -46.652,52.5 -58.02,87.473 -11.359,34.975 -11.071,74.536 -4.48,104.865 3.528,16.212 11.074,17.952 14.785,19.16 5.735,1.86 14.976,-0.74 17.237,-7.711 2.267,-6.969 -0.481,-9.577 -5.137,-11.085 -4.639,-1.512 -7.515,3.504 -7.515,3.504 0,0 -5.965,5.088 -9.225,-15.06 -4.757,-29.357 -5.468,-60.628 4.228,-90.461"
     style="fill:#231f20;fill-opacity:1;fill-rule:nonzero;stroke:none"
     id="path47322" />
  <path
     d="m 263.551,586.109 c -41.136,-29.879 -59.523,-61.777 -70.522,-85.338 -6.682,-14.303 -2.94,-26.05 -2.94,-26.05 0,0 -24.834,8.087 -53.792,17.487 -30.264,9.813 -38.1269,47.1 -30.531,72.574 8.487,28.479 36.517,69.615 92.928,110.589 56.401,40.976 104.197,54.936 133.883,54.22 26.586,-0.662 59.619,-19.658 59.608,-51.472 -0.016,-30.445 0,-56.573 0,-56.573 0,0 -10.012,7.196 -25.689,5.26 -25.795,-3.174 -61.82,-10.818 -102.945,-40.697"
     style="fill:#231f20;fill-opacity:1;fill-rule:nonzero;stroke:none"
     id="path47326" />
  <path
     d="m 274.893,570.49 c -25.379,-18.44 -43.177,-44.16 -56.588,-70.704 -9.209,-18.208 -1.395,-17.598 -1.395,-17.598 0,0 5.275,2.368 8.146,-1.584 2.876,-3.956 3.57,-7.682 -2.363,-11.982 -5.928,-4.31 -14.934,-0.986 -18.472,3.887 -2.298,3.161 -7.377,9 -0.7,24.188 12.501,28.414 35.512,60.592 65.268,82.208 29.749,21.613 67.46,33.556 98.344,36.666 16.51,1.656 20.492,-4.982 22.797,-8.136 3.537,-4.885 3.912,-14.473 -2.016,-18.782 -5.927,-4.307 -9.252,-2.491 -12.128,1.454 -2.876,3.955 1.005,8.243 1.005,8.243 0,0 2.998,7.236 -17.169,4.113 -29.386,-4.553 -59.352,-13.532 -84.729,-31.973"
     style="fill:#231f20;fill-opacity:1;fill-rule:nonzero;stroke:none"
     id="path47330" />
  <path
     d="m 528.82,586.109 c -41.14,29.889 -77.156,37.523 -102.95,40.697 -15.683,1.936 -25.692,-5.248 -25.692,-5.248 0,0 0.02,26.116 0.009,56.561 -0.02,31.814 33.021,50.81 59.592,51.462 29.697,0.726 77.492,-13.223 133.893,-54.21 56.4,-40.974 84.453,-82.11 92.929,-110.578 7.596,-25.475 -0.268,-62.772 -30.527,-72.585 -28.962,-9.4 -53.796,-17.487 -53.796,-17.487 0,0 3.742,11.747 -2.94,26.06 -10.994,23.551 -29.387,55.449 -70.518,85.328"
     style="fill:#231f20;fill-opacity:1;fill-rule:nonzero;stroke:none"
     id="path47334" />
  <path
     d="m 517.474,570.49 c -25.377,18.441 -55.344,27.42 -84.729,31.973 -20.175,3.123 -17.18,-4.113 -17.18,-4.113 0,0 3.891,-4.288 1.016,-8.243 -2.875,-3.945 -6.2,-5.761 -12.128,-1.454 -5.935,4.309 -5.555,13.897 -2.005,18.782 2.286,3.154 6.276,9.792 22.786,8.136 30.879,-3.101 68.595,-15.053 98.349,-36.666 29.751,-21.616 52.76,-53.794 65.257,-82.208 6.68,-15.188 1.61,-21.021 -0.694,-24.188 -3.544,-4.873 -12.549,-8.197 -18.472,-3.887 -5.935,4.306 -5.239,8.031 -2.369,11.987 2.877,3.952 8.145,1.579 8.145,1.579 0,0 7.816,-0.607 -1.388,17.598 -13.411,26.555 -31.211,52.264 -56.588,70.704"
     style="fill:#231f20;fill-opacity:1;fill-rule:nonzero;stroke:none"
     id="path47338" />
  <path
     d="m 610.792,333.825 c 15.716,48.36 11.841,84.973 6.891,110.493 -3.003,15.503 -12.935,22.805 -12.935,22.805 0,0 24.844,8.05 53.804,17.475 30.242,9.843 58.526,-15.7 67.357,-40.78 9.867,-28.016 11.364,-77.778 -10.188,-144.084 -21.533,-66.31 -51.997,-105.695 -76.44,-122.555 -21.888,-15.098 -59.789,-19.139 -78.476,6.597 -17.887,24.647 -33.25,45.771 -33.25,45.771 0,0 12.325,0.064 23.87,10.848 19.007,17.729 43.659,45.085 59.367,93.43"
     style="fill:#231f20;fill-opacity:1;fill-rule:nonzero;stroke:none"
     id="path47342" />
  <path
     d="m 592.427,339.793 c 9.7,29.831 8.973,61.104 4.229,90.465 -3.26,20.141 -9.216,15.059 -9.216,15.059 0,0 -2.874,-5.016 -7.526,-3.51 -4.651,1.514 -7.404,4.116 -5.13,11.086 2.266,6.97 11.503,9.576 17.231,7.71 3.721,-1.202 11.259,-2.942 14.784,-19.16 6.597,-30.326 6.885,-69.887 -4.473,-104.859 -11.368,-34.979 -34.86,-66.809 -58.022,-87.476 -12.388,-11.043 -19.507,-8.02 -23.218,-6.815 -5.729,1.866 -11.677,9.406 -9.416,16.372 2.265,6.976 6.028,7.462 10.673,5.955 4.655,-1.511 4.024,-7.256 4.024,-7.256 0,0 1.839,-7.623 16.312,6.764 21.105,20.954 40.057,45.832 49.748,75.665"
     style="fill:#231f20;fill-opacity:1;fill-rule:nonzero;stroke:none"
     id="path47346" />
  <path
     d="m 278.159,502.202 c -11.851,-14.913 -17.788,-33.009 -17.783,-51.067 0,-7.729 1.075,-15.47 3.244,-22.961 -11.069,25.559 -7.722,55.857 10.055,78.528 z"
     style="fill:#231f20;fill-opacity:1;fill-rule:nonzero;stroke:none"
     id="path47350" />
  <path
     d="m 286.988,520.023 c 22.712,17.788 53.067,21.135 78.641,10.017 -7.525,2.191 -15.301,3.282 -23.068,3.282 -18.066,0 -36.164,-5.934 -51.066,-17.778 z"
     style="fill:#231f20;fill-opacity:1;fill-rule:nonzero;stroke:none"
     id="path47354" />
  <path
     d="m 286.983,493.394 c -11.856,-14.925 -17.788,-33.023 -17.788,-51.081 0,-8.891 1.432,-17.795 4.303,-26.32 -13.432,26.396 -10.766,58.87 8.017,82.842 z"
     style="fill:#231f20;fill-opacity:1;fill-rule:nonzero;stroke:none"
     id="path47358" />
  <path
     d="m 294.776,512.24 c 24,18.804 56.604,21.413 83.02,7.921 -8.552,2.898 -17.489,4.33 -26.416,4.33 -18.067,0 -36.148,-5.944 -51.056,-17.788 z"
     style="fill:#231f20;fill-opacity:1;fill-rule:nonzero;stroke:none"
     id="path47362" />
  <path
     d="m 312.656,467.773 -22.295,22.253 c -23.817,-30.393 -21.76,-74.493 6.238,-102.493 l 16.088,-16.13 z"
     style="fill:#231f20;fill-opacity:1;fill-rule:nonzero;stroke:none"
     id="path47366" />
  <path
     d="m 325.612,454.813 -8.237,8.209 v -96.279 l 8.242,-8.21 z"
     style="fill:#231f20;fill-opacity:1;fill-rule:nonzero;stroke:none"
     id="path47370" />
  <path
     d="m 338.564,441.862 -8.232,8.204 0.011,-96.28 8.242,-8.244 z"
     style="fill:#231f20;fill-opacity:1;fill-rule:nonzero;stroke:none"
     id="path47374" />
  <path
     d="m 408.339,372.039 -65.051,65.071 0.012,-96.275 59.575,-59.572 c 1.761,-1.762 3.581,-3.42 5.464,-4.977 z"
     style="fill:#231f20;fill-opacity:1;fill-rule:nonzero;stroke:none"
     id="path47378" />
  <path
     d="m 413.05212,367.32601 8.24267,-8.24533 v -91.44667 c -2.83334,1.50267 -5.592,3.18667 -8.25334,5.06534 z"
     style="fill:#231f20;fill-opacity:1;fill-rule:nonzero;stroke:none;stroke-width:1.33333"
     id="path47382" />
  <path
     d="m 425.99732,354.40935 8.252,-8.28533 -0.004,-83.936 c -2.784,0.888 -5.54267,1.908 -8.23733,3.11333 z"
     style="fill:#231f20;fill-opacity:1;fill-rule:nonzero;stroke:none;stroke-width:1.33333"
     id="path47386" />
  <path
     d="m 438.95572,341.44188 66.41733,-66.44267 c -19.18266,-15.02133 -43.808,-19.72799 -66.40666,-14.13466 z"
     style="fill:#231f20;fill-opacity:1;fill-rule:nonzero;stroke:none;stroke-width:1.33333"
     id="path47390" />
  <path
     d="m 532.836,354.788 c 5.612,-22.617 0.909,-47.275 -14.139,-66.465 l -66.399,66.454 z"
     style="fill:#231f20;fill-opacity:1;fill-rule:nonzero;stroke:none"
     id="path47394" />
  <path
     d="m 422.203,481.073 -16.033,16.02 c -28.011,28.008 -72.107,30.092 -102.509,6.264 l 22.256,-22.273 z"
     style="fill:#231f20;fill-opacity:1;fill-rule:nonzero;stroke:none"
     id="path47398" />
  <path
     d="m 435.159,468.119 -8.243,8.245 -96.285,0.014 8.286,-8.264 z"
     style="fill:#231f20;fill-opacity:1;fill-rule:nonzero;stroke:none"
     id="path47402" />
  <path
     d="m 448.117,455.158 -8.243,8.251 H 343.62 l 8.247,-8.251 z"
     style="fill:#231f20;fill-opacity:1;fill-rule:nonzero;stroke:none"
     id="path47406" />
  <path
     d="m 517.367,385.416 c -1.539,1.86 -3.18,3.672 -4.929,5.417 l -59.592,59.608 -96.237,0.01 65.05,-65.035 z"
     style="fill:#231f20;fill-opacity:1;fill-rule:nonzero;stroke:none"
     id="path47410" />
  <path
     d="m 526.057,372.465 c -1.508,2.824 -3.216,5.583 -5.099,8.244 l -94.595,-0.027 8.252,-8.246 z"
     style="fill:#231f20;fill-opacity:1;fill-rule:nonzero;stroke:none"
     id="path47414" />
  <path
     d="m 531.51,359.501 c -0.888,2.796 -1.964,5.548 -3.169,8.251 l -89.039,-0.003 8.232,-8.237 z"
     style="fill:#231f20;fill-opacity:1;fill-rule:nonzero;stroke:none"
     id="path47418" />
  <path
     d="m 500.872,515.543 c -14.915,11.845 -33.011,17.788 -51.079,17.788 -7.728,0 -15.462,-1.08 -22.949,-3.249 25.559,11.074 55.843,7.728 78.528,-10.06 z"
     style="fill:#231f20;fill-opacity:1;fill-rule:nonzero;stroke:none"
     id="path47422" />
  <path
     d="m 518.698,506.714 c 17.784,-22.703 21.128,-53.067 10.011,-78.637 2.192,7.524 3.281,15.297 3.281,23.064 0,18.066 -5.937,36.158 -17.787,51.061 z"
     style="fill:#231f20;fill-opacity:1;fill-rule:nonzero;stroke:none"
     id="path47426" />
  <path
     d="m 492.052,506.714 c -14.917,11.865 -33.016,17.799 -51.079,17.799 -8.888,0 -17.795,-1.443 -26.317,-4.308 26.399,13.437 58.869,10.764 82.844,-8.019 z"
     style="fill:#231f20;fill-opacity:1;fill-rule:nonzero;stroke:none"
     id="path47430" />
  <path
     d="m 510.904,498.92 c 18.809,-23.996 21.409,-56.589 7.921,-83.008 2.894,8.552 4.336,17.483 4.336,26.411 0,18.069 -5.945,36.156 -17.798,51.061 z"
     style="fill:#231f20;fill-opacity:1;fill-rule:nonzero;stroke:none"
     id="path47434" />
  <path
     d="m 428.862,481.036 37.579,0.016 22.249,22.284 c -25.651,20.108 -61.079,21.785 -88.331,5.003 3.2,-2.384 6.238,-5.014 9.134,-7.922 z"
     style="fill:#231f20;fill-opacity:1;fill-rule:nonzero;stroke:none"
     id="path47438" />
  <path
     d="m 441.82,468.095 h 11.656 l 8.211,8.232 -28.104,0.013 z"
     style="fill:#231f20;fill-opacity:1;fill-rule:nonzero;stroke:none"
     id="path47442" />
  <path
     d="m 447.63026,462.31161 1.10133,1.06133 h -2.208 z"
     style="fill:#231f20;fill-opacity:1;fill-rule:nonzero;stroke:none;stroke-width:1.33333"
     id="path47446" />
  <path
     d="m 284.139,395.032 -4.211,-4.196 c -1.764,-1.764 -3.421,-3.589 -4.977,-5.471 l 17.143,0.014 c -2.93,3.046 -5.582,6.296 -7.955,9.653"
     style="fill:#231f20;fill-opacity:1;fill-rule:nonzero;stroke:none"
     id="path47450" />
  <path
     d="m 296.797,380.662 8.232,-8.253 -38.731,0.008 c 1.508,2.829 3.187,5.582 5.068,8.248 z"
     style="fill:#231f20;fill-opacity:1;fill-rule:nonzero;stroke:none"
     id="path47454" />
  <path
     d="m 309.711,367.707 8.296,-8.252 -57.151,0.004 c 0.883,2.785 1.903,5.547 3.111,8.24 z"
     style="fill:#231f20;fill-opacity:1;fill-rule:nonzero;stroke:none"
     id="path47458" />
  <path
     d="m 322.72,354.76 8.681,-8.701 -57.737,-57.723 c -15.02,19.179 -19.729,43.805 -14.133,66.407 z"
     style="fill:#231f20;fill-opacity:1;fill-rule:nonzero;stroke:none"
     id="path47462" />
  <path
     d="m 344.732,332.727 8.68,-8.651 0.043,-63.206 c -22.62,-5.615 -47.278,-0.908 -66.467,14.138 z"
     style="fill:#231f20;fill-opacity:1;fill-rule:nonzero;stroke:none"
     id="path47466" />
  <path
     d="m 507.435,402.504 c 16.297,27.157 14.508,62.125 -5.415,87.542 l -22.273,-22.263 0.005,-37.6 z"
     style="fill:#231f20;fill-opacity:1;fill-rule:nonzero;stroke:none"
     id="path47470" />
  <path
     d="m 475.029,434.913 0.016,28.157 -8.264,-8.276 0.011,-11.657 z"
     style="fill:#231f20;fill-opacity:1;fill-rule:nonzero;stroke:none"
     id="path47474" />
  <path
     d="m 462.068,447.87 0.011,2.608 -2.087,-0.7 z"
     style="fill:#231f20;fill-opacity:1;fill-rule:nonzero;stroke:none"
     id="path47478" />
  <path
     d="m 384.08266,293.38202 -0.005,-17.04533 c 1.86533,1.54133 3.672,3.18266 5.424,4.93066 l 3.35733,3.34 z"
     style="fill:#231f20;fill-opacity:1;fill-rule:nonzero;stroke:none;stroke-width:1.33333"
     id="path47482" />
  <path
     d="m 371.11972,306.33255 0.005,-38.68533 c 2.828,1.50533 5.592,3.21333 8.24267,5.09733 l -0.0107,25.36933 z"
     style="fill:#231f20;fill-opacity:1;fill-rule:nonzero;stroke:none;stroke-width:1.33333"
     id="path47486" />
  <path
     d="m 358.16932,319.29148 -0.005,-57.096 c 2.796,0.888 5.54266,1.95867 8.248,3.17333 v 45.68134 z"
     style="fill:#231f20;fill-opacity:1;fill-rule:nonzero;stroke:none;stroke-width:1.33333"
     id="path47490" />
  <path
     d="m 334.725,342.717 6.66,-6.648 -57.999,-58.005 c -1.165,1.033 -2.346,2.086 -3.458,3.204 -1.118,1.114 -2.191,2.26 -3.23,3.428 z"
     style="fill:#231f20;fill-opacity:1;fill-rule:nonzero;stroke:none"
     id="path47494" />
  <path
     d="m 255.51173,538.19574 c 1.48533,1.48533 5.528,-1.432 8.14533,-3.484 7.88,-6.15733 19.70267,-17.704 19.70267,-17.704 L 515.64639,284.72241 c -1.03733,-1.16533 -2.092,-2.344 -3.20933,-3.45866 -1.11734,-1.116 -2.26534,-2.19067 -3.42934,-3.22534 L 276.69973,510.33707 c 0,0 -11.54,11.824 -17.70267,19.70267 -2.05333,2.61867 -4.97066,6.67067 -3.48533,8.156"
     style="fill:#231f20;fill-opacity:1;fill-rule:nonzero;stroke:none;stroke-width:1.33333"
     id="path47498" />
  <path
     d="m 515.667,510.348 -58.036,-58.041 -6.649,6.642 58.026,58.059 c 0,0 11.823,11.545 19.7,17.703 2.62,2.053 6.672,4.97 8.156,3.485 1.488,-1.487 -1.432,-5.516 -3.484,-8.147 -6.156,-7.878 -17.702,-19.701 -17.713,-19.701"
     style="fill:#231f20;fill-opacity:1;fill-rule:nonzero;stroke:none"
     id="path47502" />
</svg>
