<?xml version="1.0" encoding="UTF-8" standalone="no"?>
<!-- Created with Inkscape (http://www.inkscape.org/) -->

<svg
   version="1.1"
   id="svg36760"
   width="795.03467"
   height="793.70135"
   viewBox="0 0 795.03467 793.70135"
   sodipodi:docname="Gokani Karabana.svg"
   inkscape:version="1.2 (dc2aeda, 2022-05-15)"
   xmlns:inkscape="http://www.inkscape.org/namespaces/inkscape"
   xmlns:sodipodi="http://sodipodi.sourceforge.net/DTD/sodipodi-0.dtd"
   xmlns="http://www.w3.org/2000/svg"
   xmlns:svg="http://www.w3.org/2000/svg">
  <defs
     id="defs36764">
    <clipPath
       clipPathUnits="userSpaceOnUse"
       id="clipPath37379">
      <path
         d="M -536.6982,584.5729 H 59.577802 V -10.7031 H -536.6982 Z"
         id="path37381"
         style="stroke-width:0.999998" />
    </clipPath>
    <clipPath
       clipPathUnits="userSpaceOnUse"
       id="clipPath37385">
      <path
         d="M -528.0898,575.3815 H 68.186202 V -19.8945 H -528.0898 Z"
         id="path37387"
         style="stroke-width:0.999998" />
    </clipPath>
    <clipPath
       clipPathUnits="userSpaceOnUse"
       id="clipPath37391">
      <path
         d="M -567.7754,585.8522 H 28.500602 V -9.4238 H -567.7754 Z"
         id="path37393"
         style="stroke-width:0.999998" />
    </clipPath>
    <clipPath
       clipPathUnits="userSpaceOnUse"
       id="clipPath37397">
      <path
         d="M -542.9326,584.5729 H 53.343402 V -10.7031 H -542.9326 Z"
         id="path37399"
         style="stroke-width:0.999998" />
    </clipPath>
    <clipPath
       clipPathUnits="userSpaceOnUse"
       id="clipPath37403">
      <path
         d="M -586.5449,579.5026 H 9.7311024 V -15.7734 H -586.5449 Z"
         id="path37405"
         style="stroke-width:0.999998" />
    </clipPath>
    <clipPath
       clipPathUnits="userSpaceOnUse"
       id="clipPath37409">
      <path
         d="m -198.854,437.6412 h 596.276 v -595.276 h -596.276 z"
         id="path37411"
         style="stroke-width:0.999998" />
    </clipPath>
    <clipPath
       clipPathUnits="userSpaceOnUse"
       id="clipPath37415">
      <path
         d="M -545.417,584.5729 H 50.859002 V -10.7031 H -545.417 Z"
         id="path37417"
         style="stroke-width:0.999998" />
    </clipPath>
    <clipPath
       clipPathUnits="userSpaceOnUse"
       id="clipPath37421">
      <path
         d="M -548.9834,585.8522 H 47.292602 V -9.4238 H -548.9834 Z"
         id="path37423"
         style="stroke-width:0.999998" />
    </clipPath>
    <clipPath
       clipPathUnits="userSpaceOnUse"
       id="clipPath37427">
      <path
         d="M -561.4131,585.8522 H 34.862902 V -9.4238 H -561.4131 Z"
         id="path37429"
         style="stroke-width:0.999998" />
    </clipPath>
    <clipPath
       clipPathUnits="userSpaceOnUse"
       id="clipPath37433">
      <path
         d="M -553.8975,585.8483 H 42.378502 V -9.4277 H -553.8975 Z"
         id="path37435"
         style="stroke-width:0.999998" />
    </clipPath>
    <clipPath
       clipPathUnits="userSpaceOnUse"
       id="clipPath37439">
      <path
         d="M -564.5732,585.8483 H 31.702802 V -9.4277 H -564.5732 Z"
         id="path37441"
         style="stroke-width:0.999998" />
    </clipPath>
    <clipPath
       clipPathUnits="userSpaceOnUse"
       id="clipPath37445">
      <path
         d="M -557.0645,585.8483 H 39.211502 V -9.4277 H -557.0645 Z"
         id="path37447"
         style="stroke-width:0.999998" />
    </clipPath>
    <clipPath
       clipPathUnits="userSpaceOnUse"
       id="clipPath37451">
      <path
         d="m -352.7412,283.0636 h 596.276 v -595.276 h -596.276 z"
         id="path37453"
         style="stroke-width:0.999998" />
    </clipPath>
    <clipPath
       clipPathUnits="userSpaceOnUse"
       id="clipPath37457">
      <path
         d="m -457.4629,249.7521 h 596.276 v -595.276 h -596.276 z"
         id="path37459"
         style="stroke-width:0.999998" />
    </clipPath>
    <clipPath
       clipPathUnits="userSpaceOnUse"
       id="clipPath37463">
      <path
         d="m -472.4209,244.8907 h 596.276 v -595.276 h -596.276 z"
         id="path37465"
         style="stroke-width:0.999998" />
    </clipPath>
    <clipPath
       clipPathUnits="userSpaceOnUse"
       id="clipPath37469">
      <path
         d="m -331.6924,347.8463 h 596.276 v -595.276 h -596.276 z"
         id="path37471"
         style="stroke-width:0.999998" />
    </clipPath>
    <clipPath
       clipPathUnits="userSpaceOnUse"
       id="clipPath37475">
      <path
         d="m -396.415,437.6412 h 596.276 v -595.276 h -596.276 z"
         id="path37477"
         style="stroke-width:0.999998" />
    </clipPath>
    <clipPath
       clipPathUnits="userSpaceOnUse"
       id="clipPath37481">
      <path
         d="m -405.6582,450.3619 h 596.276 v -595.276 h -596.276 z"
         id="path37483"
         style="stroke-width:0.999998" />
    </clipPath>
    <clipPath
       clipPathUnits="userSpaceOnUse"
       id="clipPath37487">
      <path
         d="m -263.5811,347.8463 h 596.276 v -595.276 h -596.276 z"
         id="path37489"
         style="stroke-width:0.999998" />
    </clipPath>
    <clipPath
       clipPathUnits="userSpaceOnUse"
       id="clipPath37493">
      <path
         d="M -531.1924,581.5885 H 65.083602 V -13.6875 H -531.1924 Z"
         id="path37495"
         style="stroke-width:0.999998" />
    </clipPath>
    <clipPath
       clipPathUnits="userSpaceOnUse"
       id="clipPath37499">
      <path
         d="M -540.8213,585.8483 H 55.454702 V -9.4277 H -540.8213 Z"
         id="path37501"
         style="stroke-width:0.999998" />
    </clipPath>
    <clipPath
       clipPathUnits="userSpaceOnUse"
       id="clipPath37505">
      <path
         d="M -572.8174,586.1354 H 23.458602 V -9.1406 H -572.8174 Z"
         id="path37507"
         style="stroke-width:0.999998" />
    </clipPath>
    <clipPath
       clipPathUnits="userSpaceOnUse"
       id="clipPath37512">
      <path
         d="M -556.4014,578.0143 H 39.874602 V -17.2617 H -556.4014 Z"
         id="path37514"
         style="stroke-width:0.999998" />
    </clipPath>
    <clipPath
       clipPathUnits="userSpaceOnUse"
       id="clipPath37518">
      <path
         d="M -584.1943,578.9381 H 12.081702 V -16.3379 H -584.1943 Z"
         id="path37520"
         style="stroke-width:0.999998" />
    </clipPath>
    <clipPath
       clipPathUnits="userSpaceOnUse"
       id="clipPath37524">
      <path
         d="m -189.6152,450.3619 h 596.276 v -595.276 h -596.276 z"
         id="path37526"
         style="stroke-width:0.999998" />
    </clipPath>
    <clipPath
       clipPathUnits="userSpaceOnUse"
       id="clipPath37531">
      <path
         d="M -550.2637,577.3248 H 46.012302 V -17.9512 H -550.2637 Z"
         id="path37533"
         style="stroke-width:0.999998" />
    </clipPath>
    <clipPath
       clipPathUnits="userSpaceOnUse"
       id="clipPath37537">
      <path
         d="m -137.8076,249.7491 h 596.276 v -595.276 h -596.276 z"
         id="path37539"
         style="stroke-width:0.999998" />
    </clipPath>
    <clipPath
       clipPathUnits="userSpaceOnUse"
       id="clipPath37543">
      <path
         d="m -242.5293,283.0636 h 596.276 v -595.276 h -596.276 z"
         id="path37545"
         style="stroke-width:0.999998" />
    </clipPath>
    <clipPath
       clipPathUnits="userSpaceOnUse"
       id="clipPath37549">
      <path
         d="M -574.5459,585.8522 H 21.730102 V -9.4238 H -574.5459 Z"
         id="path37551"
         style="stroke-width:0.999998" />
    </clipPath>
    <clipPath
       clipPathUnits="userSpaceOnUse"
       id="clipPath37555">
      <path
         d="M -576.3691,585.5885 H 19.906902 V -9.6875 H -576.3691 Z"
         id="path37557"
         style="stroke-width:0.999998" />
    </clipPath>
    <clipPath
       clipPathUnits="userSpaceOnUse"
       id="clipPath37561">
      <path
         d="m -322.7578,300.9713 h 596.276 v -595.276 h -596.276 z"
         id="path37563"
         style="stroke-width:0.999998" />
    </clipPath>
    <clipPath
       clipPathUnits="userSpaceOnUse"
       id="clipPath37567">
      <path
         d="m -122.854,244.8907 h 596.276 v -595.276 h -596.276 z"
         id="path37569"
         style="stroke-width:0.999998" />
    </clipPath>
    <clipPath
       clipPathUnits="userSpaceOnUse"
       id="clipPath37573">
      <path
         d="m -297.6377,133.6281 h 596.276 v -595.276 h -596.276 z"
         id="path37575"
         style="stroke-width:0.999998" />
    </clipPath>
    <clipPath
       clipPathUnits="userSpaceOnUse"
       id="clipPath37579">
      <path
         d="M -538.2217,577.9479 H 58.054302 V -17.3281 H -538.2217 Z"
         id="path37581"
         style="stroke-width:0.999998" />
    </clipPath>
    <clipPath
       clipPathUnits="userSpaceOnUse"
       id="clipPath37585">
      <path
         d="M -557.4951,577.8502 H 38.780902 V -17.4258 H -557.4951 Z"
         id="path37587"
         style="stroke-width:0.999998" />
    </clipPath>
    <clipPath
       clipPathUnits="userSpaceOnUse"
       id="clipPath37591">
      <path
         d="m -297.6377,243.0284 h 596.276 v -595.276 h -596.276 z"
         id="path37593"
         style="stroke-width:0.999998" />
    </clipPath>
    <clipPath
       clipPathUnits="userSpaceOnUse"
       id="clipPath37597">
      <path
         d="m -297.6377,117.9044 h 596.276 v -595.276 h -596.276 z"
         id="path37599"
         style="stroke-width:0.999998" />
    </clipPath>
    <clipPath
       clipPathUnits="userSpaceOnUse"
       id="clipPath37603">
      <path
         d="M -568.2266,575.819 H 28.049402 V -19.457 H -568.2266 Z"
         id="path37605"
         style="stroke-width:0.999998" />
    </clipPath>
  </defs>
  <sodipodi:namedview
     id="namedview36762"
     pagecolor="#ffffff"
     bordercolor="#000000"
     borderopacity="0.25"
     inkscape:showpageshadow="2"
     inkscape:pageopacity="0.0"
     inkscape:pagecheckerboard="0"
     inkscape:deskcolor="#d1d1d1"
     showgrid="false"
     inkscape:zoom="0.29734106"
     inkscape:cx="-215.24105"
     inkscape:cy="396.85068"
     inkscape:window-width="1419"
     inkscape:window-height="456"
     inkscape:window-x="0"
     inkscape:window-y="25"
     inkscape:window-maximized="0"
     inkscape:current-layer="svg36760">
    <inkscape:page
       x="0"
       y="0"
       id="page36766"
       width="795.03467"
       height="793.70135" />
  </sodipodi:namedview>
  <path
     d="m 430.343,401.295 c 0,18.492 -14.997,33.495 -33.493,33.495 -18.499,0 -33.495,-15.003 -33.495,-33.495 0,-18.501 14.996,-33.496 33.495,-33.496 18.496,0 33.493,14.995 33.493,33.496"
     style="fill:#000000;fill-opacity:1;fill-rule:nonzero;stroke:none"
     id="path36880" />
  <path
     d="m 396.85,157.207 c 55.21,0 91.725,16.286 116.419,29.957 15.003,8.306 19.212,21.017 19.212,21.017 0,0 16.656,-22.957 36.107,-49.7 20.313,-27.938 3.421,-65.7182 -19.516,-83.2542 C 523.456,55.6322 472.56,37.3936 396.85,37.3936 c -75.713,0 -126.607,18.2386 -152.223,37.8332 -22.938,17.536 -39.833,55.3162 -19.516,83.2542 19.448,26.743 36.106,49.7 36.106,49.7 0,0 4.208,-12.711 19.21,-21.017 24.695,-13.671 61.212,-29.957 116.423,-29.957"
     style="fill:#000000;fill-opacity:1;fill-rule:nonzero;stroke:none"
     id="path36884" />
  <path
     d="m 396.85,178.172 c 34.061,0 66.12,11.229 94.842,25.99 19.708,10.127 12.463,14.578 12.463,14.578 0,0 -6.148,1.286 -6.148,6.593 0,5.307 1.768,9.021 9.725,9.021 7.956,0 13.747,-8.669 13.747,-15.213 0,-4.243 0.737,-12.612 -14.827,-21.696 C 477.54,180.46 436.78,166.88 396.85,166.88 c -39.931,0 -80.693,13.58 -109.804,30.565 -15.567,9.084 -14.828,17.453 -14.828,21.696 0,6.544 5.791,15.213 13.749,15.213 7.956,0 9.722,-3.714 9.722,-9.021 0,-5.307 -6.143,-6.593 -6.143,-6.593 0,0 -7.251,-4.451 12.459,-14.578 28.722,-14.761 60.781,-25.99 94.845,-25.99"
     style="fill:#000000;fill-opacity:1;fill-rule:nonzero;stroke:none"
     id="path36888" />
  <path
     d="m 396.85,324.038 v 0 c 2.15,0 3.888,1.743 3.888,3.893 v 32.262 c 6.18,0.578 11.94,2.517 17.029,5.51 l 58.689,-80.639 c 4.292,-5.999 6.781,-9.968 6.781,-17.256 0,-18.067 -14.649,-32.72 -32.721,-32.72 -5.158,0 -10.036,1.196 -14.382,3.325 0,0 -6.466,-26.505 -39.284,-26.505 -32.82,0 -39.284,26.505 -39.284,26.505 -4.346,-2.129 -9.226,-3.325 -14.386,-3.325 -18.069,0 -32.718,14.653 -32.718,32.72 0,7.288 2.488,11.257 6.781,17.256 l 58.689,80.639 c 5.087,-2.993 10.85,-4.932 17.027,-5.51 v -32.262 c 0,-2.15 1.741,-3.893 3.891,-3.893"
     style="fill:#000000;fill-opacity:1;fill-rule:nonzero;stroke:none"
     id="path36892" />
  <path
     d="m 163.805,326.522 c 17.063,-52.51 43.832,-82.204 64.469,-101.462 12.536,-11.708 25.92,-11.779 25.92,-11.779 0,0 -16.687,-22.933 -36.108,-49.694 -20.292,-27.959 -61.446,-23.566 -85.209,-7.175 -26.551,18.316 -59.6292,61.082 -83.0225,133.085 -23.3919,72.004 -21.7719,126.044 -11.0573,156.464 9.5893,27.23 40.3039,54.973 73.1448,44.285 31.446,-10.234 58.43,-18.982 58.43,-18.982 0,0 -10.788,-7.926 -14.052,-24.765 -5.374,-27.705 -9.578,-67.47 7.485,-119.977"
     style="fill:#000000;fill-opacity:1;fill-rule:nonzero;stroke:none"
     id="path36896" />
  <path
     d="m 183.744,332.999 c 10.528,-32.395 31.114,-59.411 54.027,-82.169 15.724,-15.62 17.711,-7.344 17.711,-7.344 0,0 -0.675,6.243 4.372,7.883 5.049,1.639 9.129,1.107 11.583,-6.463 2.465,-7.57 -3.996,-15.756 -10.22,-17.778 -4.03,-1.314 -11.762,-4.595 -25.212,7.398 -25.154,22.438 -50.656,57.007 -63.004,94.987 -12.336,37.976 -12.021,80.936 -4.863,113.874 3.834,17.607 12.02,19.492 16.056,20.804 6.223,2.024 16.257,-0.804 18.716,-8.374 2.46,-7.571 -0.523,-10.399 -5.576,-12.04 -5.042,-1.638 -8.166,3.805 -8.166,3.805 0,0 -6.478,5.527 -10.01,-16.352 -5.166,-31.877 -5.942,-65.832 4.586,-98.231"
     style="fill:#000000;fill-opacity:1;fill-rule:nonzero;stroke:none"
     id="path36900" />
  <path
     d="m 323.371,377.419 v 0 c 0.671,-2.044 2.864,-3.16 4.912,-2.497 l 30.68,9.969 c 2.457,-5.694 6.084,-10.582 10.503,-14.49 l -58.56,-80.736 c -4.379,-5.936 -7.377,-9.532 -14.316,-11.784 -17.181,-5.579 -35.645,3.823 -41.225,21.009 -1.595,4.907 -1.972,9.918 -1.284,14.706 0,0 -27.21,-2.038 -37.356,29.173 -10.135,31.21 13.072,45.556 13.072,45.556 -3.366,3.466 -6.01,7.742 -7.607,12.649 -5.584,17.184 3.825,35.645 21.013,41.228 6.932,2.251 11.474,1.112 18.507,-1.119 l 94.822,-30.893 c -1.27,-5.761 -1.338,-11.848 0.024,-17.896 l -30.687,-9.971 c -2.036,-0.666 -3.158,-2.862 -2.498,-4.904"
     style="fill:#000000;fill-opacity:1;fill-rule:nonzero;stroke:none"
     id="path36904" />
  <path
     d="m 252.819,600.483 c -44.669,-32.453 -64.635,-67.091 -76.577,-92.669 -7.261,-15.542 -3.192,-28.295 -3.192,-28.295 0,0 -26.973,8.784 -58.417,18.991 -32.8665,10.656 -41.4025,51.153 -33.1572,78.817 9.216,30.916 39.6612,75.585 100.9162,120.082 61.249,44.5 113.146,59.664 145.385,58.873 28.87,-0.706 64.739,-21.344 64.727,-55.885 -0.017,-33.065 0,-61.433 0,-61.433 0,0 -10.872,7.811 -27.896,5.712 -28.006,-3.451 -67.129,-11.745 -111.789,-44.193"
     style="fill:#000000;fill-opacity:1;fill-rule:nonzero;stroke:none"
     id="path36908" />
  <path
     d="m 265.138,583.522 c -27.557,-20.024 -46.888,-47.954 -61.452,-76.776 -9.998,-19.782 -1.513,-19.118 -1.513,-19.118 0,0 5.729,2.574 8.846,-1.721 3.122,-4.295 3.876,-8.339 -2.565,-13.013 -6.437,-4.679 -16.22,-1.067 -20.064,4.226 -2.493,3.43 -8.006,9.771 -0.758,26.266 13.573,30.854 38.563,65.797 70.87,89.269 32.308,23.47 73.26,36.442 106.801,39.812 17.928,1.802 22.249,-5.402 24.747,-8.834 3.846,-5.294 4.254,-15.713 -2.183,-20.388 -6.437,-4.682 -10.048,-2.713 -13.168,1.582 -3.123,4.293 1.092,8.942 1.092,8.942 0,0 3.253,7.867 -18.644,4.466 -31.912,-4.94 -64.452,-14.692 -92.009,-34.713"
     style="fill:#000000;fill-opacity:1;fill-rule:nonzero;stroke:none"
     id="path36912" />
  <path
     d="m 351.44,463.795 v 0 c -1.744,-1.263 -2.128,-3.7 -0.861,-5.44 l 18.96,-26.104 c -4.655,-4.096 -8.184,-9.052 -10.535,-14.464 l -94.879,30.743 c -6.995,2.331 -11.344,4.075 -15.632,9.973 -10.614,14.617 -7.372,35.087 7.241,45.707 4.177,3.03 8.824,4.929 13.585,5.762 0,0 -10.344,25.247 16.208,44.539 26.551,19.287 47.366,1.644 47.366,1.644 2.255,4.276 5.509,8.109 9.686,11.14 14.613,10.62 35.075,7.38 45.699,-7.235 4.284,-5.898 4.598,-10.57 4.648,-17.953 l -0.078,-99.73 c -5.864,-0.566 -11.676,-2.387 -17.006,-5.551 l -18.971,26.102 c -1.265,1.736 -3.704,2.124 -5.431,0.867"
     style="fill:#000000;fill-opacity:1;fill-rule:nonzero;stroke:none"
     id="path36916" />
  <path
     d="m 540.876,600.483 c -44.669,32.453 -83.78,40.742 -111.796,44.193 -17.028,2.099 -27.898,-5.707 -27.898,-5.707 0,0 0.021,28.363 0.009,61.428 -0.017,34.541 35.86,55.179 64.717,55.88 32.247,0.796 84.143,-14.36 145.389,-58.862 61.252,-44.503 91.708,-89.172 100.92,-120.077 8.244,-27.67 -0.3,-68.167 -33.153,-78.828 -31.451,-10.207 -58.426,-18.991 -58.426,-18.991 0,0 4.07,12.753 -3.188,28.3 -11.937,25.573 -31.914,60.211 -76.574,92.664"
     style="fill:#000000;fill-opacity:1;fill-rule:nonzero;stroke:none"
     id="path36920" />
  <path
     d="m 528.552,583.522 c -27.557,20.021 -60.093,29.773 -92.008,34.721 -21.901,3.393 -18.649,-4.47 -18.649,-4.47 0,0 4.22,-4.653 1.096,-8.946 -3.117,-4.295 -6.731,-6.264 -13.168,-1.582 -6.443,4.675 -6.025,15.094 -2.177,20.388 2.488,3.432 6.817,10.636 24.745,8.834 33.533,-3.362 74.49,-16.342 106.797,-39.807 32.308,-23.477 57.299,-58.42 70.865,-89.274 7.255,-16.495 1.747,-22.831 -0.753,-26.266 -3.85,-5.292 -13.629,-8.905 -20.061,-4.226 -6.443,4.677 -5.69,8.721 -2.572,13.018 3.122,4.295 8.848,1.716 8.848,1.716 0,0 8.485,-0.656 -1.508,19.118 -14.566,28.828 -33.898,56.752 -61.455,76.776"
     style="fill:#000000;fill-opacity:1;fill-rule:nonzero;stroke:none"
     id="path36924" />
  <path
     d="m 442.255,463.795 v 0 c -1.739,1.257 -4.171,0.872 -5.436,-0.867 l -18.963,-26.099 c -5.336,3.161 -11.142,4.985 -17.018,5.549 l -0.079,99.734 c 0.052,7.378 0.372,12.05 4.66,17.948 10.613,14.615 31.085,17.855 45.7,7.243 4.176,-3.035 7.417,-6.872 9.679,-11.144 0,0 20.815,17.644 47.373,-1.648 26.545,-19.292 16.194,-44.539 16.194,-44.539 4.768,-0.828 9.416,-2.732 13.596,-5.762 14.614,-10.62 17.858,-31.087 7.239,-45.704 -4.289,-5.899 -8.635,-7.645 -15.635,-9.973 l -94.878,-30.746 c -2.356,5.412 -5.88,10.368 -10.533,14.462 l 18.957,26.106 c 1.267,1.743 0.877,4.18 -0.856,5.44"
     style="fill:#000000;fill-opacity:1;fill-rule:nonzero;stroke:none"
     id="path36928" />
  <path
     d="m 629.893,326.522 c 17.063,52.513 12.86,92.272 7.484,119.98 -3.264,16.838 -14.048,24.768 -14.048,24.768 0,0 26.98,8.742 58.427,18.976 32.841,10.693 63.554,-17.052 73.139,-44.28 10.72,-30.425 12.34,-84.461 -11.057,-156.464 -23.388,-72.005 -56.468,-114.774 -83.013,-133.085 -23.763,-16.393 -64.921,-20.782 -85.216,7.167 -19.425,26.764 -36.112,49.7 -36.112,49.7 0,0 13.388,0.07 25.926,11.778 20.638,19.256 47.407,48.959 64.47,101.46"
     style="fill:#000000;fill-opacity:1;fill-rule:nonzero;stroke:none"
     id="path36932" />
  <path
     d="m 609.949,333.003 c 10.533,32.395 9.748,66.352 4.589,98.232 -3.538,21.879 -10.009,16.358 -10.009,16.358 0,0 -3.123,-5.448 -8.17,-3.811 -5.048,1.639 -8.036,4.467 -5.571,12.035 2.46,7.573 12.485,10.401 18.709,8.374 4.041,-1.307 12.223,-3.195 16.056,-20.804 7.164,-32.936 7.48,-75.896 -4.855,-113.869 -12.346,-37.985 -37.855,-72.549 -63.006,-94.989 -13.448,-11.993 -21.18,-8.712 -25.216,-7.401 -6.219,2.025 -12.677,10.212 -10.22,17.778 2.457,7.572 6.54,8.102 11.588,6.466 5.053,-1.64 4.364,-7.88 4.364,-7.88 0,0 1.999,-8.279 17.717,7.344 22.914,22.757 43.499,49.768 54.024,82.167"
     style="fill:#000000;fill-opacity:1;fill-rule:nonzero;stroke:none"
     id="path36936" />
  <path
     d="m 470.32,377.419 v 0 c 0.663,2.044 -0.461,4.24 -2.504,4.907 l -30.682,9.971 c 1.362,6.045 1.302,12.132 0.025,17.896 l 94.832,30.893 c 7.024,2.231 11.57,3.372 18.498,1.119 17.186,-5.583 26.588,-24.047 21.012,-41.23 -1.593,-4.908 -4.244,-9.177 -7.597,-12.648 0,0 23.204,-14.348 13.067,-45.561 -10.152,-31.208 -37.362,-29.168 -37.362,-29.168 0.696,-4.788 0.315,-9.798 -1.282,-14.706 -5.583,-17.186 -24.04,-26.587 -41.226,-21.011 -6.933,2.257 -9.933,5.845 -14.317,11.788 l -58.558,80.734 c 4.416,3.908 8.046,8.798 10.506,14.491 l 30.68,-9.969 c 2.047,-0.663 4.244,0.453 4.908,2.494"
     style="fill:#000000;fill-opacity:1;fill-rule:nonzero;stroke:none"
     id="path36940" />
</svg>
