<?xml version="1.0" encoding="UTF-8" standalone="no"?>
<!-- Created with Inkscape (http://www.inkscape.org/) -->

<svg
   version="1.1"
   id="svg49284"
   width="793.70135"
   height="793.70135"
   viewBox="0 0 793.70135 793.70135"
   sodipodi:docname="Gokani Umebachi.svg"
   inkscape:version="1.2 (dc2aeda, 2022-05-15)"
   xmlns:inkscape="http://www.inkscape.org/namespaces/inkscape"
   xmlns:sodipodi="http://sodipodi.sourceforge.net/DTD/sodipodi-0.dtd"
   xmlns="http://www.w3.org/2000/svg"
   xmlns:svg="http://www.w3.org/2000/svg">
  <defs
     id="defs49288">
    <clipPath
       clipPathUnits="userSpaceOnUse"
       id="clipPath49735">
      <path
         d="m -450.3896,374.5257 h 595.276 v -841.89 h -595.276 z"
         id="path49737"
         style="stroke-width:0.999998" />
    </clipPath>
    <clipPath
       clipPathUnits="userSpaceOnUse"
       id="clipPath49741">
      <path
         d="m -400.7207,566.8832 h 595.276 v -841.89 h -595.276 z"
         id="path49743"
         style="stroke-width:0.999998" />
    </clipPath>
    <clipPath
       clipPathUnits="userSpaceOnUse"
       id="clipPath49747">
      <path
         d="m -143.8862,374.5238 h 595.276 v -841.89 h -595.276 z"
         id="path49749"
         style="stroke-width:0.999998" />
    </clipPath>
    <clipPath
       clipPathUnits="userSpaceOnUse"
       id="clipPath49753">
      <path
         d="m -321.29,424.641 h 595.276 v -841.89 H -321.29 Z"
         id="path49755"
         style="stroke-width:0.999998" />
    </clipPath>
    <clipPath
       clipPathUnits="userSpaceOnUse"
       id="clipPath49759">
      <path
         d="m -297.1377,248.1019 h 595.276 v -841.89 h -595.276 z"
         id="path49761"
         style="stroke-width:0.999998" />
    </clipPath>
    <clipPath
       clipPathUnits="userSpaceOnUse"
       id="clipPath49765">
      <path
         d="m -202.4185,554.6849 h 595.276 v -841.89 h -595.276 z"
         id="path49767"
         style="stroke-width:0.999998" />
    </clipPath>
    <clipPath
       clipPathUnits="userSpaceOnUse"
       id="clipPath49771">
      <path
         d="m -391.8574,554.6849 h 595.276 v -841.89 h -595.276 z"
         id="path49773"
         style="stroke-width:0.999998" />
    </clipPath>
    <clipPath
       clipPathUnits="userSpaceOnUse"
       id="clipPath49777">
      <path
         d="m -297.1377,263.1791 h 595.276 v -841.89 h -595.276 z"
         id="path49779"
         style="stroke-width:0.999998" />
    </clipPath>
    <clipPath
       clipPathUnits="userSpaceOnUse"
       id="clipPath49783">
      <path
         d="m -129.5464,369.8656 h 595.276 v -841.89 h -595.276 z"
         id="path49785"
         style="stroke-width:0.999998" />
    </clipPath>
    <clipPath
       clipPathUnits="userSpaceOnUse"
       id="clipPath49789">
      <path
         d="m -318.1719,406.5755 h 595.276 v -841.89 h -595.276 z"
         id="path49791"
         style="stroke-width:0.999998" />
    </clipPath>
    <clipPath
       clipPathUnits="userSpaceOnUse"
       id="clipPath49795">
      <path
         d="m -303.5801,397.8187 h 595.276 v -841.89 h -595.276 z"
         id="path49797"
         style="stroke-width:0.999998" />
    </clipPath>
    <clipPath
       clipPathUnits="userSpaceOnUse"
       id="clipPath49801">
      <path
         d="m -350.4746,328.6986 h 595.276 v -841.89 h -595.276 z"
         id="path49803"
         style="stroke-width:0.999998" />
    </clipPath>
    <clipPath
       clipPathUnits="userSpaceOnUse"
       id="clipPath49807">
      <path
         d="m -291.2568,451.4642 h 595.276 v -841.89 h -595.276 z"
         id="path49809"
         style="stroke-width:0.999998" />
    </clipPath>
    <clipPath
       clipPathUnits="userSpaceOnUse"
       id="clipPath49813">
      <path
         d="m -324.8184,422.1937 h 595.276 v -841.89 h -595.276 z"
         id="path49815"
         style="stroke-width:0.999998" />
    </clipPath>
    <clipPath
       clipPathUnits="userSpaceOnUse"
       id="clipPath49819">
      <path
         d="m -276.6689,442.7113 h 595.276 v -841.89 h -595.276 z"
         id="path49821"
         style="stroke-width:0.999998" />
    </clipPath>
    <clipPath
       clipPathUnits="userSpaceOnUse"
       id="clipPath49825">
      <path
         d="m -270.0098,427.0668 h 595.276 v -841.89 h -595.276 z"
         id="path49827"
         style="stroke-width:0.999998" />
    </clipPath>
    <clipPath
       clipPathUnits="userSpaceOnUse"
       id="clipPath49831">
      <path
         d="m -321.0176,438.7904 h 595.276 v -841.89 h -595.276 z"
         id="path49833"
         style="stroke-width:0.999998" />
    </clipPath>
    <clipPath
       clipPathUnits="userSpaceOnUse"
       id="clipPath49837">
      <path
         d="m -273.8184,410.4906 h 595.276 v -841.89 h -595.276 z"
         id="path49839"
         style="stroke-width:0.999998" />
    </clipPath>
    <clipPath
       clipPathUnits="userSpaceOnUse"
       id="clipPath49843">
      <path
         d="m -308.1777,449.973 h 595.276 v -841.89 h -595.276 z"
         id="path49845"
         style="stroke-width:0.999998" />
    </clipPath>
    <clipPath
       clipPathUnits="userSpaceOnUse"
       id="clipPath49849">
      <path
         d="m -276.6689,406.5755 h 595.276 v -841.89 h -595.276 z"
         id="path49851"
         style="stroke-width:0.999998" />
    </clipPath>
    <clipPath
       clipPathUnits="userSpaceOnUse"
       id="clipPath49855">
      <path
         d="m -405.0586,445.4515 h 595.276 v -841.89 h -595.276 z"
         id="path49857"
         style="stroke-width:0.999998" />
    </clipPath>
    <clipPath
       clipPathUnits="userSpaceOnUse"
       id="clipPath49861">
      <path
         d="m -310.8916,533.4418 h 595.276 v -841.89 h -595.276 z"
         id="path49863"
         style="stroke-width:0.999998" />
    </clipPath>
    <clipPath
       clipPathUnits="userSpaceOnUse"
       id="clipPath49867">
      <path
         d="m -198.105,471.0775 h 595.276 v -841.89 h -595.276 z"
         id="path49869"
         style="stroke-width:0.999998" />
    </clipPath>
    <clipPath
       clipPathUnits="userSpaceOnUse"
       id="clipPath49873">
      <path
         d="m -222.5669,344.5375 h 595.276 v -841.89 h -595.276 z"
         id="path49875"
         style="stroke-width:0.999998" />
    </clipPath>
    <clipPath
       clipPathUnits="userSpaceOnUse"
       id="clipPath49879">
      <path
         d="m -193.563,566.8832 h 595.276 v -841.89 h -595.276 z"
         id="path49881"
         style="stroke-width:0.999998" />
    </clipPath>
    <clipPath
       clipPathUnits="userSpaceOnUse"
       id="clipPath49885">
      <path
         d="m -464.7334,369.8656 h 595.276 v -841.89 h -595.276 z"
         id="path49887"
         style="stroke-width:0.999998" />
    </clipPath>
  </defs>
  <sodipodi:namedview
     id="namedview49286"
     pagecolor="#ffffff"
     bordercolor="#000000"
     borderopacity="0.25"
     inkscape:showpageshadow="2"
     inkscape:pageopacity="0.0"
     inkscape:pagecheckerboard="0"
     inkscape:deskcolor="#d1d1d1"
     showgrid="false"
     inkscape:zoom="0.21024124"
     inkscape:cx="-1234.2964"
     inkscape:cy="561.26001"
     inkscape:window-width="1419"
     inkscape:window-height="456"
     inkscape:window-x="0"
     inkscape:window-y="25"
     inkscape:window-maximized="0"
     inkscape:current-layer="svg49284">
    <inkscape:page
       x="0"
       y="0"
       id="page49290"
       width="793.70135"
       height="793.70135" />
  </sodipodi:namedview>
  <path
     d="m 396.183,168.805 c 52.943,0 87.958,15.616 111.632,28.724 14.388,7.965 18.418,20.153 18.418,20.153 0,0 15.976,-22.013 34.626,-47.656 19.476,-26.787 3.281,-63.013 -18.719,-79.83 C 517.585,71.41 468.779,53.918 396.183,53.918 c -72.596,0 -121.39,17.492 -145.956,36.278 -22.001,16.817 -38.196,53.043 -18.713,79.83 18.643,25.643 34.619,47.656 34.619,47.656 0,0 4.036,-12.188 18.42,-20.153 23.677,-13.108 58.687,-28.724 111.63,-28.724"
     style="fill:#231f20;fill-opacity:1;fill-rule:nonzero;stroke:none"
     id="path49304" />
  <path
     d="m 396.183,188.907 c 32.663,0 63.403,10.768 90.945,24.922 18.896,9.709 11.952,13.977 11.952,13.977 0,0 -5.896,1.232 -5.896,6.324 0,5.084 1.695,8.646 9.321,8.646 7.64,0 13.188,-8.31 13.188,-14.586 0,-4.069 0.704,-12.095 -14.224,-20.805 -27.906,-16.286 -66.999,-29.307 -105.286,-29.307 -38.287,0 -77.369,13.021 -105.28,29.307 -14.925,8.71 -14.22,16.736 -14.22,20.805 0,6.276 5.55,14.586 13.176,14.586 7.639,0 9.327,-3.562 9.327,-8.646 0,-5.092 -5.889,-6.324 -5.889,-6.324 0,0 -6.954,-4.268 11.945,-13.977 27.537,-14.154 58.282,-24.922 90.941,-24.922"
     style="fill:#231f20;fill-opacity:1;fill-rule:nonzero;stroke:none"
     id="path49308" />
  <path
     d="m 172.728,331.156 c 16.361,-50.352 42.027,-78.826 61.815,-97.289 12.027,-11.229 24.855,-11.296 24.855,-11.296 0,0 -15.999,-21.989 -34.62,-47.652 -19.461,-26.805 -58.918,-22.596 -81.71,-6.876 -25.452,17.562 -57.1709,58.566 -79.5975,127.608 -22.4386,69.044 -20.8839,120.862 -10.6106,150.033 9.1933,26.109 38.6492,52.716 70.1321,42.461 30.157,-9.813 56.038,-18.202 56.038,-18.202 0,0 -10.354,-7.595 -13.481,-23.746 -5.152,-26.565 -9.183,-64.693 7.179,-115.041"
     style="fill:#231f20;fill-opacity:1;fill-rule:nonzero;stroke:none"
     id="path49312" />
  <path
     d="m 191.848,337.367 c 10.09,-31.064 29.835,-56.972 51.809,-78.789 15.068,-14.978 16.97,-7.043 16.97,-7.043 0,0 -0.641,5.984 4.2,7.557 4.844,1.572 8.746,1.062 11.108,-6.197 2.363,-7.257 -3.837,-15.108 -9.802,-17.048 -3.87,-1.256 -11.278,-4.404 -24.176,7.093 -24.122,21.516 -48.571,54.664 -60.415,91.08 -11.824,36.419 -11.524,77.609 -4.661,109.192 3.672,16.88 11.535,18.691 15.393,19.951 5.976,1.937 15.597,-0.77 17.949,-8.03 2.363,-7.257 -0.502,-9.973 -5.345,-11.541 -4.832,-1.575 -7.825,3.647 -7.825,3.647 0,0 -6.211,5.297 -9.609,-15.679 -4.951,-30.572 -5.694,-63.131 4.404,-94.193"
     style="fill:#231f20;fill-opacity:1;fill-rule:nonzero;stroke:none"
     id="path49316" />
  <path
     d="m 258.083,593.845 c -42.834,-31.113 -61.981,-64.327 -73.43,-88.861 -6.959,-14.891 -3.063,-27.123 -3.063,-27.123 0,0 -25.853,8.418 -56.01,18.213 -31.5149,10.214 -39.7029,49.04 -31.7922,75.563 8.8402,29.653 38.0242,72.484 96.7662,115.148 58.721,42.669 108.489,57.202 139.399,56.46 27.686,-0.69 62.075,-20.472 62.066,-53.595 -0.016,-31.703 0,-58.908 0,-58.908 0,0 -10.424,7.493 -26.747,5.479 -26.858,-3.308 -64.37,-11.268 -107.189,-42.376"
     style="fill:#231f20;fill-opacity:1;fill-rule:nonzero;stroke:none"
     id="path49320" />
  <path
     d="m 269.89,577.581 c -26.42,-19.199 -44.957,-45.979 -58.919,-73.617 -9.589,-18.963 -1.453,-18.329 -1.453,-18.329 0,0 5.495,2.468 8.477,-1.648 2.999,-4.122 3.72,-7.999 -2.46,-12.476 -6.168,-4.49 -15.547,-1.028 -19.23,4.046 -2.395,3.29 -7.681,9.371 -0.727,25.188 13.015,29.585 36.977,63.088 67.956,85.596 30.981,22.508 70.245,34.94 102.401,38.18 17.188,1.727 21.337,-5.185 23.736,-8.472 3.683,-5.083 4.073,-15.068 -2.1,-19.557 -6.169,-4.486 -9.632,-2.594 -12.625,1.517 -2.994,4.116 1.048,8.58 1.048,8.58 0,0 3.121,7.536 -17.88,4.287 -30.6,-4.742 -61.799,-14.091 -88.224,-33.295"
     style="fill:#231f20;fill-opacity:1;fill-rule:nonzero;stroke:none"
     id="path49324" />
  <path
     d="m 534.293,593.845 c -42.841,31.12 -80.341,39.068 -107.199,42.376 -16.33,2.014 -26.752,-5.468 -26.752,-5.468 0,0 0.021,27.194 0.01,58.897 -0.028,33.123 34.384,52.905 62.051,53.584 30.92,0.753 80.689,-13.769 139.409,-56.449 58.732,-42.664 87.937,-85.495 96.766,-115.137 7.911,-26.523 -0.277,-65.36 -31.786,-75.574 -30.163,-9.795 -56.018,-18.213 -56.018,-18.213 0,0 3.898,12.232 -3.062,27.133 -11.448,24.524 -30.595,57.738 -73.419,88.851"
     style="fill:#231f20;fill-opacity:1;fill-rule:nonzero;stroke:none"
     id="path49328" />
  <path
     d="m 522.475,577.581 c -26.426,19.204 -57.625,28.553 -88.225,33.295 -21.002,3.249 -17.891,-4.287 -17.891,-4.287 0,0 4.052,-4.464 1.059,-8.58 -2.994,-4.111 -6.458,-6.003 -12.626,-1.517 -6.178,4.489 -5.784,14.474 -2.084,19.557 2.379,3.287 6.531,10.199 23.722,8.472 32.156,-3.229 71.419,-15.672 102.406,-38.18 30.973,-22.508 54.936,-56.011 67.951,-85.596 6.953,-15.817 1.672,-21.893 -0.728,-25.188 -3.687,-5.074 -13.067,-8.536 -19.23,-4.046 -6.18,4.482 -5.458,8.362 -2.47,12.481 2.993,4.116 8.482,1.643 8.482,1.643 0,0 8.142,-0.631 -1.449,18.329 -13.96,27.649 -32.497,54.418 -58.917,73.617"
     style="fill:#231f20;fill-opacity:1;fill-rule:nonzero;stroke:none"
     id="path49332" />
  <path
     d="m 619.642,331.156 c 16.362,50.353 12.326,88.476 7.172,115.049 -3.126,16.143 -13.469,23.746 -13.469,23.746 0,0 25.871,8.381 56.027,18.194 31.482,10.255 60.94,-16.348 70.131,-42.461 10.275,-29.171 11.831,-80.987 -10.609,-150.025 -22.422,-69.048 -54.14,-110.054 -79.588,-127.613 -22.79,-15.72 -62.258,-19.927 -81.714,6.871 -18.628,25.665 -34.625,47.657 -34.625,47.657 0,0 12.838,0.067 24.86,11.296 19.792,18.46 45.458,46.946 61.815,97.286"
     style="fill:#231f20;fill-opacity:1;fill-rule:nonzero;stroke:none"
     id="path49336" />
  <path
     d="m 600.518,337.37 c 10.102,31.059 9.343,63.625 4.404,94.194 -3.398,20.972 -9.598,15.68 -9.598,15.68 0,0 -2.995,-5.221 -7.836,-3.652 -4.843,1.573 -7.709,4.284 -5.34,11.541 2.356,7.26 11.977,9.972 17.942,8.03 3.87,-1.255 11.723,-3.063 15.395,-19.951 6.868,-31.579 7.168,-72.771 -4.661,-109.186 -11.833,-36.422 -36.293,-69.564 -60.409,-91.083 -12.904,-11.497 -20.312,-8.349 -24.182,-7.096 -5.965,1.943 -12.154,9.793 -9.802,17.049 2.361,7.26 6.274,7.768 11.116,6.2 4.844,-1.574 4.192,-7.556 4.192,-7.556 0,0 1.913,-7.937 16.985,7.043 21.969,21.819 41.704,47.72 51.794,78.787"
     style="fill:#231f20;fill-opacity:1;fill-rule:nonzero;stroke:none"
     id="path49340" />
  <path
     d="m 428.386,404.189 c 0,17.582 -14.25,31.831 -31.824,31.831 -17.58,0 -31.835,-14.249 -31.835,-31.831 0,-17.58 14.255,-31.829 31.835,-31.829 17.574,0 31.824,14.249 31.824,31.829"
     style="fill:#231f20;fill-opacity:1;fill-rule:nonzero;stroke:none"
     id="path49344" />
  <path
     d="m 467.299,276.267 c 0,39.744 -32.22,71.956 -71.956,71.956 -39.735,0 -71.944,-32.212 -71.944,-71.956 0,-39.735 32.209,-71.952 71.944,-71.952 39.736,0 71.956,32.217 71.956,71.952"
     style="fill:#231f20;fill-opacity:1;fill-rule:nonzero;stroke:none"
     id="path49348" />
  <path
     d="m 296.755,297.384 c 37.799,12.28 58.479,52.876 46.201,90.665 -12.277,37.791 -52.866,58.478 -90.667,46.196 -37.788,-12.277 -58.475,-52.877 -46.198,-90.666 12.279,-37.789 52.874,-58.475 90.664,-46.195"
     style="fill:#231f20;fill-opacity:1;fill-rule:nonzero;stroke:none"
     id="path49352" />
  <path
     d="m 264.139,466.105 c 23.363,-32.15 68.358,-39.276 100.507,-15.92 32.141,23.355 39.281,68.36 15.913,100.504 -23.359,32.147 -68.353,39.277 -100.497,15.919 -32.151,-23.359 -39.276,-68.354 -15.923,-100.503"
     style="fill:#231f20;fill-opacity:1;fill-rule:nonzero;stroke:none"
     id="path49356" />
  <path
     d="m 414.522,549.257 c -23.359,-32.144 -16.228,-77.144 15.917,-100.5 32.145,-23.358 77.145,-16.233 100.508,15.92 23.348,32.145 16.228,77.151 -15.918,100.508 -32.149,23.348 -77.149,16.228 -100.507,-15.928"
     style="fill:#231f20;fill-opacity:1;fill-rule:nonzero;stroke:none"
     id="path49360" />
  <path
     d="m 540.077,431.937 c -37.79,12.278 -78.379,-8.409 -90.662,-46.194 -12.284,-37.789 8.403,-78.389 46.196,-90.667 37.794,-12.28 78.39,8.403 90.662,46.195 12.278,37.79 -8.396,78.385 -46.196,90.666"
     style="fill:#231f20;fill-opacity:1;fill-rule:nonzero;stroke:none"
     id="path49364" />
  <path
     d="m 368.891,380.101 c 3.619,-4.156 8.151,-7.482 13.293,-9.672 l -6.013,-18.521 h -17.635 l -5.429,16.691 z"
     style="fill:#231f20;fill-opacity:1;fill-rule:nonzero;stroke:none"
     id="path49368" />
  <path
     d="m 410.903,437.965 5.419,16.622 22.028,-16.036 -14.132,-10.255 c -3.635,4.156 -8.163,7.48 -13.315,9.669"
     style="fill:#231f20;fill-opacity:1;fill-rule:nonzero;stroke:none"
     id="path49372" />
  <path
     d="M 365.09,385.323 351,375.105 l -8.402,25.847 17.418,-0.025 c 0.508,-5.663 2.294,-10.975 5.074,-15.604"
     style="fill:#231f20;fill-opacity:1;fill-rule:nonzero;stroke:none"
     id="path49376" />
  <path
     d="m 428.023,423.055 15.855,11.473 14.201,-10.297 -5.469,-16.818 -19.508,0.01 c -0.498,5.681 -2.288,10.988 -5.079,15.632"
     style="fill:#231f20;fill-opacity:1;fill-rule:nonzero;stroke:none"
     id="path49380" />
  <path
     d="m 360.012,407.424 -19.541,-0.025 -5.431,16.832 14.228,10.332 15.838,-11.478 c -2.811,-4.653 -4.591,-9.956 -5.094,-15.661"
     style="fill:#231f20;fill-opacity:1;fill-rule:nonzero;stroke:none"
     id="path49384" />
  <path
     d="m 433.09,400.927 17.414,0.01 -8.392,-25.826 -14.068,10.245 c 2.758,4.613 4.554,9.933 5.046,15.571"
     style="fill:#231f20;fill-opacity:1;fill-rule:nonzero;stroke:none"
     id="path49388" />
  <path
     d="m 388.342,439.953 -6.046,18.612 14.266,10.36 14.266,-10.346 -6.088,-18.62 c -2.62,0.593 -5.377,0.916 -8.178,0.916 -2.827,0 -5.58,-0.318 -8.22,-0.922"
     style="fill:#231f20;fill-opacity:1;fill-rule:nonzero;stroke:none"
     id="path49392" />
  <path
     d="m 368.891,428.283 -14.153,10.268 22.053,16.01 5.408,-16.606 c -5.152,-2.187 -9.679,-5.514 -13.308,-9.672"
     style="fill:#231f20;fill-opacity:1;fill-rule:nonzero;stroke:none"
     id="path49396" />
  <path
     d="m 404.772,368.427 5.356,-16.515 h -27.132 l 5.356,16.517 c 2.64,-0.604 5.388,-0.924 8.21,-0.926 2.817,0.002 5.57,0.32 8.21,0.924"
     style="fill:#231f20;fill-opacity:1;fill-rule:nonzero;stroke:none"
     id="path49400" />
  <path
     d="m 424.228,380.101 15.779,-11.452 -5.431,-16.741 h -17.638 l -5.987,18.524 c 5.121,2.195 9.664,5.523 13.277,9.669"
     style="fill:#231f20;fill-opacity:1;fill-rule:nonzero;stroke:none"
     id="path49404" />
</svg>
