<?xml version="1.0" encoding="UTF-8" standalone="no"?>
<!-- Created with Inkscape (http://www.inkscape.org/) -->

<svg
   sodipodi:docname="Kokumochijinuki Urini Karabana.svg"
   viewBox="0 0 793.70135 793.70135"
   height="793.70135"
   width="793.70135"
   id="svg52888"
   version="1.1"
   inkscape:version="1.2 (dc2aeda, 2022-05-15)"
   xmlns:inkscape="http://www.inkscape.org/namespaces/inkscape"
   xmlns:sodipodi="http://sodipodi.sourceforge.net/DTD/sodipodi-0.dtd"
   xmlns="http://www.w3.org/2000/svg"
   xmlns:svg="http://www.w3.org/2000/svg">
  <defs
     id="defs52892">
    <clipPath
       clipPathUnits="userSpaceOnUse"
       id="clipPath53063">
      <path
         d="M -500.0947,483.8246 H 95.181295 v -841.89 H -500.0947 Z"
         id="path53065"
         style="stroke-width:0.999998" />
    </clipPath>
  </defs>
  <sodipodi:namedview
     id="namedview52890"
     pagecolor="#ffffff"
     bordercolor="#000000"
     borderopacity="0.25"
     inkscape:showpageshadow="2"
     inkscape:pageopacity="0.0"
     inkscape:pagecheckerboard="0"
     inkscape:deskcolor="#d1d1d1"
     showgrid="false"
     inkscape:zoom="0.21024124"
     inkscape:cx="-1234.2964"
     inkscape:cy="561.26001"
     inkscape:window-width="1419"
     inkscape:window-height="456"
     inkscape:window-x="0"
     inkscape:window-y="25"
     inkscape:window-maximized="0"
     inkscape:current-layer="svg52888">
    <inkscape:page
       x="0"
       y="0"
       id="page52894"
       width="793.70135"
       height="793.70135" />
  </sodipodi:namedview>
  <path
     d="m 666.793,483.099 c -29.868,-9.721 -55.492,-18.024 -55.492,-18.024 0,0 10.241,-7.531 13.341,-23.525 5.104,-26.317 9.098,-64.081 -7.109,-113.959 -16.207,-49.866 -41.632,-78.081 -61.232,-96.369 -11.909,-11.12 -24.625,-11.186 -24.625,-11.186 0,0 15.848,-21.787 34.3,-47.208 19.273,-26.545 58.366,-22.376 80.94,-6.807 25.212,17.393 56.629,58.016 78.845,126.409 22.224,68.387 20.684,119.711 10.502,148.612 -9.103,25.862 -38.275,52.213 -69.47,42.057 m 28.933,82.721 c -8.749,29.355 -37.678,71.784 -95.851,114.052 -58.176,42.268 -107.47,56.664 -138.096,55.909 -27.409,-0.667 -61.489,-20.268 -61.468,-53.076 0.011,-31.409 -0.011,-58.346 -0.011,-58.346 0,0 10.327,7.414 26.502,5.42 26.606,-3.276 63.754,-11.152 106.185,-41.975 42.417,-30.825 61.392,-63.724 72.727,-88.012 6.896,-14.769 3.032,-26.881 3.032,-26.881 0,0 25.619,8.344 55.492,18.035 31.204,10.129 39.318,48.593 31.488,74.874 M 404.71,590.427 c 6.114,-4.446 9.546,-2.576 12.506,1.502 2.968,4.079 -1.041,8.5 -1.041,8.5 0,0 -3.089,7.467 17.713,4.243 30.312,-4.699 61.216,-13.961 87.392,-32.98 26.175,-19.015 44.536,-45.538 58.368,-72.921 9.493,-18.781 1.432,-18.156 1.432,-18.156 0,0 -5.435,2.448 -8.403,-1.631 -2.961,-4.078 -3.677,-7.921 2.443,-12.366 6.109,-4.443 15.4,-1.014 19.056,4.012 2.372,3.266 7.605,9.284 0.716,24.95 -12.887,29.308 -36.625,62.495 -67.311,84.795 -30.685,22.289 -69.587,34.614 -101.437,37.809 -17.03,1.712 -21.141,-5.129 -23.502,-8.391 -3.656,-5.03 -4.052,-14.924 2.068,-19.366 M 362.826,399.006 c 0,-18.424 14.94,-33.357 33.358,-33.357 18.419,0 33.359,14.933 33.359,33.357 0,18.416 -14.94,33.358 -33.359,33.358 -18.418,0 -33.358,-14.942 -33.358,-33.358 m 26.901,210.787 c -2.372,3.262 -6.477,10.103 -23.507,8.391 -31.856,-3.2 -70.751,-15.52 -101.438,-37.815 -30.685,-22.294 -54.423,-55.481 -67.316,-84.789 -6.884,-15.666 -1.645,-21.689 0.722,-24.95 3.651,-5.028 12.941,-8.455 19.055,-4.012 6.12,4.44 5.404,8.284 2.438,12.361 -2.962,4.079 -8.403,1.636 -8.403,1.636 0,0 -8.06,-0.631 1.437,18.156 13.834,27.377 32.194,53.906 58.37,72.921 26.174,19.019 57.078,28.281 87.39,32.975 20.797,3.229 17.708,-4.243 17.708,-4.243 0,0 -4.003,-4.416 -1.036,-8.495 2.96,-4.078 6.393,-5.948 12.508,-1.502 6.113,4.442 5.723,14.336 2.072,19.366 m 2.331,72.912 c 0.01,32.808 -34.059,52.409 -61.479,53.081 -30.621,0.75 -79.913,-13.652 -138.089,-55.919 -58.18,-42.263 -87.097,-84.692 -95.8516,-114.058 -7.8306,-26.275 0.2774,-64.738 31.4916,-74.863 29.868,-9.691 55.488,-18.035 55.488,-18.035 0,0 -3.865,12.112 3.031,26.876 11.341,24.293 30.306,57.192 72.734,88.017 42.419,30.819 79.577,38.699 106.18,41.975 16.168,1.994 26.495,-5.426 26.495,-5.426 0,0 -0.015,26.943 0,58.352 M 56.1012,441.036 C 45.9239,412.141 44.3852,360.814 66.6038,292.423 88.8238,224.034 120.241,183.414 145.46,166.018 c 22.572,-15.57 61.659,-19.741 80.934,6.812 18.445,25.419 34.293,47.203 34.293,47.203 0,0 -12.709,0.067 -24.618,11.187 -19.6,18.29 -45.027,46.497 -61.233,96.371 -16.207,49.872 -12.214,87.642 -7.108,113.956 3.098,15.995 13.345,23.524 13.345,23.524 0,0 -25.629,8.307 -55.497,18.028 C 94.3824,493.25 65.2092,466.902 56.1012,441.036 M 486.269,211.372 c -27.281,-14.022 -57.73,-24.687 -90.085,-24.687 -32.353,0 -62.805,10.665 -90.085,24.687 -18.718,9.617 -11.833,13.845 -11.833,13.845 0,0 5.836,1.221 5.836,6.263 0,5.04 -1.677,8.568 -9.236,8.568 -7.557,0 -13.057,-8.235 -13.057,-14.451 0,-4.029 -0.702,-11.979 14.082,-20.605 27.652,-16.134 66.365,-29.031 104.293,-29.031 37.928,0 76.643,12.897 104.293,29.031 14.784,8.626 14.084,16.576 14.084,20.605 0,6.216 -5.5,14.451 -13.058,14.451 -7.558,0 -9.236,-3.528 -9.236,-8.568 0,-5.042 5.836,-6.263 5.836,-6.263 0,0 6.885,-4.228 -11.834,-13.845 M 189.417,427.047 c 3.357,20.779 9.509,15.531 9.509,15.531 0,0 2.967,-5.174 7.756,-3.615 4.8,1.557 7.632,4.243 5.296,11.436 -2.336,7.189 -11.865,9.872 -17.777,7.952 -3.832,-1.244 -11.609,-3.039 -15.249,-19.76 -6.799,-31.284 -7.099,-72.088 4.618,-108.161 11.727,-36.072 35.951,-68.906 59.843,-90.22 12.774,-11.389 20.118,-8.272 23.946,-7.026 5.911,1.922 12.047,9.696 9.706,16.885 -2.331,7.192 -6.206,7.697 -11,6.14 -4.795,-1.559 -4.152,-7.487 -4.152,-7.487 0,0 -1.888,-7.86 -16.822,6.976 -21.765,21.616 -41.317,47.277 -51.318,78.045 -10,30.772 -9.263,63.023 -4.356,93.304 m 169.037,-44.378 -30.552,-9.928 c -2.041,-0.66 -4.228,0.452 -4.891,2.488 -0.657,2.032 0.46,4.217 2.486,4.882 l 30.562,9.93 c -1.357,6.025 -1.288,12.086 -0.02,17.821 l -94.438,30.765 c -7.002,2.224 -11.528,3.36 -18.428,1.117 -17.116,-5.557 -26.491,-23.945 -20.927,-41.058 1.588,-4.885 4.223,-9.143 7.575,-12.599 0,0 -23.112,-14.284 -13.022,-45.366 10.108,-31.083 37.202,-29.056 37.202,-29.056 -0.679,-4.767 -0.304,-9.756 1.282,-14.644 5.56,-17.115 23.947,-26.48 41.056,-20.921 6.912,2.242 9.899,5.824 14.256,11.734 l 58.32,80.404 c -4.4,3.891 -8.013,8.76 -10.461,14.431 m -7.488,78.581 c 1.721,1.256 4.146,0.865 5.404,-0.864 l 18.894,-25.992 c 5.308,3.15 11.096,4.962 16.939,5.525 l 0.073,99.32 c -0.046,7.355 -0.362,12.005 -4.626,17.878 -10.579,14.555 -30.96,17.784 -45.515,7.211 -4.157,-3.027 -7.397,-6.841 -9.642,-11.096 0,0 -20.732,17.569 -47.171,-1.641 -26.441,-19.211 -16.141,-44.359 -16.141,-44.359 -4.742,-0.828 -9.37,-2.714 -13.527,-5.734 -14.556,-10.579 -17.784,-30.962 -7.217,-45.516 4.272,-5.875 8.606,-7.615 15.57,-9.935 l 94.489,-30.614 c 2.342,5.385 5.859,10.325 10.492,14.403 l -18.884,25.995 c -1.261,1.732 -0.876,4.159 0.862,5.419 m 45.218,-139.183 c -2.142,0 -3.874,1.738 -3.874,3.878 v 32.129 c -6.154,0.575 -11.887,2.507 -16.955,5.487 l -58.448,-80.307 c -4.276,-5.973 -6.756,-9.929 -6.756,-17.184 0,-17.994 14.592,-32.586 32.583,-32.586 5.142,0 10.001,1.189 14.325,3.31 0,0 6.44,-26.396 39.125,-26.396 32.686,0 39.127,26.396 39.127,26.396 4.324,-2.121 9.181,-3.31 14.324,-3.31 17.992,0 32.582,14.592 32.582,32.586 0,7.255 -2.478,11.211 -6.754,17.184 l -58.449,80.307 c -5.067,-2.98 -10.803,-4.912 -16.955,-5.487 v -32.129 c 0,-2.14 -1.732,-3.878 -3.875,-3.878 m 110.861,229.524 c -26.441,19.216 -47.174,1.646 -47.174,1.646 -2.251,4.25 -5.479,8.075 -9.637,11.096 -14.555,10.568 -34.946,7.339 -45.514,-7.216 -4.27,-5.873 -4.59,-10.523 -4.638,-17.867 l 0.073,-99.328 c 5.853,-0.563 11.637,-2.378 16.949,-5.526 l 18.89,25.99 c 1.257,1.732 3.678,2.12 5.41,0.864 1.726,-1.258 2.116,-3.684 0.855,-5.419 l -18.884,-25.997 c 4.633,-4.076 8.145,-9.016 10.492,-14.401 l 94.49,30.617 c 6.97,2.317 11.299,4.06 15.571,9.934 10.571,14.555 7.343,34.935 -7.212,45.514 -4.164,3.02 -8.792,4.91 -13.539,5.734 0,0 10.306,25.148 -16.132,44.359 m 63.072,-152.902 c 5.554,17.11 -3.81,35.501 -20.925,41.058 -6.895,2.245 -11.428,1.107 -18.42,-1.115 l -94.446,-30.767 c 1.273,-5.738 1.336,-11.799 -0.022,-17.822 l 30.559,-9.929 c 2.03,-0.665 3.153,-2.851 2.49,-4.885 -0.657,-2.034 -2.843,-3.146 -4.885,-2.486 l -30.553,9.928 c -2.453,-5.67 -6.067,-10.54 -10.465,-14.43 l 58.318,-80.402 c 4.368,-5.918 7.351,-9.494 14.257,-11.739 17.115,-5.556 35.496,3.809 41.055,20.923 1.592,4.888 1.967,9.878 1.277,14.646 0,0 27.099,-2.031 37.212,29.049 10.091,31.085 -13.016,45.373 -13.016,45.373 3.342,3.456 5.983,7.71 7.564,12.598 m 28.474,-64.943 c -9.995,-30.771 -29.548,-56.426 -51.314,-78.042 -14.928,-14.839 -16.825,-6.976 -16.825,-6.976 0,0 0.652,5.925 -4.148,7.482 -4.795,1.556 -8.669,1.054 -11.005,-6.141 -2.336,-7.187 3.8,-14.96 9.706,-16.885 3.832,-1.243 11.176,-4.362 23.951,7.029 23.888,21.316 48.117,54.145 59.844,90.221 11.716,36.072 11.416,76.876 4.613,108.157 -3.641,16.724 -11.413,18.521 -15.25,19.76 -5.911,1.925 -15.436,-0.76 -17.772,-7.952 -2.342,-7.191 0.497,-9.876 5.292,-11.431 4.794,-1.56 7.76,3.615 7.76,3.615 0,0 6.148,5.248 9.509,-15.531 4.896,-30.283 5.645,-62.537 -4.361,-93.306 M 251.601,88.905 c 24.332,-18.609 72.672,-35.934 144.583,-35.934 71.913,0 120.253,17.325 144.583,35.934 21.786,16.659 37.833,52.543 18.538,79.077 -18.473,25.4 -34.294,47.208 -34.294,47.208 0,0 -3.999,-12.074 -18.248,-19.964 -23.454,-12.985 -58.139,-28.454 -110.579,-28.454 -52.44,0 -87.123,15.469 -110.578,28.454 -14.249,7.89 -18.247,19.964 -18.247,19.964 0,0 -15.821,-21.808 -34.294,-47.208 -19.296,-26.534 -3.25,-62.418 18.536,-79.077 M 396.184,37.828 c -199.23,0 -360.7628,161.472 -360.7628,360.767 0,199.173 161.5328,360.763 360.7628,360.763 199.237,0 360.763,-161.59 360.763,-360.763 C 756.947,199.3 595.421,37.828 396.184,37.828"
     style="fill:#231f20;fill-opacity:1;fill-rule:nonzero;stroke:none"
     id="path52908" />
</svg>
