<?xml version="1.0" encoding="UTF-8" standalone="no"?>
<!-- Created with Inkscape (http://www.inkscape.org/) -->

<svg
   sodipodi:docname="Chuukage Yaemukou Ume.svg"
   viewBox="0 0 795.03467 793.70135"
   height="793.70135"
   width="795.03467"
   id="svg15729"
   version="1.1"
   inkscape:version="1.2 (dc2aeda, 2022-05-15)"
   xmlns:inkscape="http://www.inkscape.org/namespaces/inkscape"
   xmlns:sodipodi="http://sodipodi.sourceforge.net/DTD/sodipodi-0.dtd"
   xmlns="http://www.w3.org/2000/svg"
   xmlns:svg="http://www.w3.org/2000/svg">
  <defs
     id="defs15733">
    <clipPath
       clipPathUnits="userSpaceOnUse"
       id="clipPath16078">
      <path
         d="M -538.2217,577.9479 H 58.054302 V -17.3281 H -538.2217 Z"
         id="path16080"
         style="stroke-width:0.999998" />
    </clipPath>
    <clipPath
       clipPathUnits="userSpaceOnUse"
       id="clipPath16082">
      <path
         d="M -584.1943,578.9381 H 12.081702 V -16.3379 H -584.1943 Z"
         id="path16084"
         style="stroke-width:0.999998" />
    </clipPath>
    <clipPath
       clipPathUnits="userSpaceOnUse"
       id="clipPath16086">
      <path
         d="M -586.5449,579.5026 H 9.7311024 V -15.7734 H -586.5449 Z"
         id="path16088"
         style="stroke-width:0.999998" />
    </clipPath>
    <clipPath
       clipPathUnits="userSpaceOnUse"
       id="clipPath16090">
      <path
         d="M -556.4014,578.0143 H 39.874602 V -17.2617 H -556.4014 Z"
         id="path16092"
         style="stroke-width:0.999998" />
    </clipPath>
    <clipPath
       clipPathUnits="userSpaceOnUse"
       id="clipPath16094">
      <path
         d="M -550.2637,577.3248 H 46.012302 V -17.9512 H -550.2637 Z"
         id="path16096"
         style="stroke-width:0.999998" />
    </clipPath>
    <clipPath
       clipPathUnits="userSpaceOnUse"
       id="clipPath16098">
      <path
         d="M -568.2266,575.819 H 28.049402 V -19.457 H -568.2266 Z"
         id="path16100"
         style="stroke-width:0.999998" />
    </clipPath>
    <clipPath
       clipPathUnits="userSpaceOnUse"
       id="clipPath16102">
      <path
         d="M -557.4951,577.8502 H 38.780902 V -17.4258 H -557.4951 Z"
         id="path16104"
         style="stroke-width:0.999998" />
    </clipPath>
    <clipPath
       clipPathUnits="userSpaceOnUse"
       id="clipPath16106">
      <path
         d="M -576.3691,585.5885 H 19.906902 V -9.6875 H -576.3691 Z"
         id="path16108"
         style="stroke-width:0.999998" />
    </clipPath>
    <clipPath
       clipPathUnits="userSpaceOnUse"
       id="clipPath16110">
      <path
         d="M -574.5459,585.8522 H 21.730102 V -9.4238 H -574.5459 Z"
         id="path16112"
         style="stroke-width:0.999998" />
    </clipPath>
    <clipPath
       clipPathUnits="userSpaceOnUse"
       id="clipPath16114">
      <path
         d="M -572.8174,586.1354 H 23.458602 V -9.1406 H -572.8174 Z"
         id="path16116"
         style="stroke-width:0.999998" />
    </clipPath>
    <clipPath
       clipPathUnits="userSpaceOnUse"
       id="clipPath16118">
      <path
         d="M -567.7754,585.8522 H 28.500602 V -9.4238 H -567.7754 Z"
         id="path16120"
         style="stroke-width:0.999998" />
    </clipPath>
    <clipPath
       clipPathUnits="userSpaceOnUse"
       id="clipPath16122">
      <path
         d="M -564.5732,585.8483 H 31.702802 V -9.4277 H -564.5732 Z"
         id="path16124"
         style="stroke-width:0.999998" />
    </clipPath>
    <clipPath
       clipPathUnits="userSpaceOnUse"
       id="clipPath16126">
      <path
         d="M -561.4131,585.8522 H 34.862902 V -9.4238 H -561.4131 Z"
         id="path16128"
         style="stroke-width:0.999998" />
    </clipPath>
    <clipPath
       clipPathUnits="userSpaceOnUse"
       id="clipPath16130">
      <path
         d="M -557.0645,585.8483 H 39.211502 V -9.4277 H -557.0645 Z"
         id="path16132"
         style="stroke-width:0.999998" />
    </clipPath>
    <clipPath
       clipPathUnits="userSpaceOnUse"
       id="clipPath16134">
      <path
         d="M -553.8975,585.8483 H 42.378502 V -9.4277 H -553.8975 Z"
         id="path16136"
         style="stroke-width:0.999998" />
    </clipPath>
    <clipPath
       clipPathUnits="userSpaceOnUse"
       id="clipPath16138">
      <path
         d="M -548.9834,585.8522 H 47.292602 V -9.4238 H -548.9834 Z"
         id="path16140"
         style="stroke-width:0.999998" />
    </clipPath>
    <clipPath
       clipPathUnits="userSpaceOnUse"
       id="clipPath16142">
      <path
         d="M -545.417,584.5729 H 50.859002 V -10.7031 H -545.417 Z"
         id="path16144"
         style="stroke-width:0.999998" />
    </clipPath>
    <clipPath
       clipPathUnits="userSpaceOnUse"
       id="clipPath16146">
      <path
         d="M -542.9326,584.5729 H 53.343402 V -10.7031 H -542.9326 Z"
         id="path16148"
         style="stroke-width:0.999998" />
    </clipPath>
    <clipPath
       clipPathUnits="userSpaceOnUse"
       id="clipPath16150">
      <path
         d="M -540.8213,585.8483 H 55.454702 V -9.4277 H -540.8213 Z"
         id="path16152"
         style="stroke-width:0.999998" />
    </clipPath>
    <clipPath
       clipPathUnits="userSpaceOnUse"
       id="clipPath16154">
      <path
         d="M -536.6982,584.5729 H 59.577802 V -10.7031 H -536.6982 Z"
         id="path16156"
         style="stroke-width:0.999998" />
    </clipPath>
    <clipPath
       clipPathUnits="userSpaceOnUse"
       id="clipPath16158">
      <path
         d="M -528.0898,575.3815 H 68.186202 V -19.8945 H -528.0898 Z"
         id="path16160"
         style="stroke-width:0.999998" />
    </clipPath>
    <clipPath
       clipPathUnits="userSpaceOnUse"
       id="clipPath16162">
      <path
         d="M -531.1924,581.5885 H 65.083602 V -13.6875 H -531.1924 Z"
         id="path16164"
         style="stroke-width:0.999998" />
    </clipPath>
    <clipPath
       clipPathUnits="userSpaceOnUse"
       id="clipPath16280">
      <path
         d="m -297.6387,543.3326 h 596.276 V -51.943396 h -596.276 z"
         id="path16282"
         style="stroke-width:0.999998" />
    </clipPath>
  </defs>
  <sodipodi:namedview
     id="namedview15731"
     pagecolor="#ffffff"
     bordercolor="#000000"
     borderopacity="0.25"
     inkscape:showpageshadow="2"
     inkscape:pageopacity="0.0"
     inkscape:pagecheckerboard="0"
     inkscape:deskcolor="#d1d1d1"
     showgrid="false"
     inkscape:zoom="0.29734106"
     inkscape:cx="-215.24105"
     inkscape:cy="396.85068"
     inkscape:window-width="1419"
     inkscape:window-height="456"
     inkscape:window-x="1920"
     inkscape:window-y="142"
     inkscape:window-maximized="0"
     inkscape:current-layer="svg15729">
    <inkscape:page
       x="0"
       y="0"
       id="page15735"
       width="795.03467"
       height="793.70135" />
  </sodipodi:namedview>
  <path
     d="M 396.852 724.443 C 377.961 724.443 360.18 719.719 344.595 711.415 C 330.869 718.768 316.202 724.022 301.11 727.074 C 326.988 748.85 360.384 761.974 396.852 761.974 C 433.323 761.974 466.721 748.847 492.601 727.071 C 477.506 724.022 462.837 718.768 449.109 711.415 C 433.527 719.719 415.743 724.443 396.852 724.443 M 85.2928 498.084 C 79.4568 480.121 78.4515 461.75 81.5355 444.368 C 70.2941 433.58 60.7848 421.236 53.2155 407.81 C 40.4956 439.162 38.3262 474.99 49.5995 509.681 C 60.8688 544.362 83.6701 572.069 112.374 589.954 C 111.678 583.91 111.326 577.821 111.327 571.725 C 111.326 562.397 112.174 553.037 113.839 543.763 C 101.121 531.506 91.1328 516.056 85.2928 498.084 M 589.402 131.826 C 604.69 142.931 616.302 157.208 624.027 173.092 C 639.451 175.214 654.405 179.567 668.407 185.974 C 660.269 153.146 640.965 122.897 611.462 101.461 C 581.96 80.0259 547.224 71.014 513.488 73.4193 C 523.91 84.7633 532.693 97.6326 539.477 111.651 C 556.962 114.093 574.122 120.723 589.402 131.826 M 204.298 131.827 C 219.578 120.723 236.735 114.094 254.222 111.654 C 261.006 97.6352 269.787 84.7646 280.21 73.422 C 246.475 71.0166 211.74 80.0286 182.238 101.463 C 152.733 122.899 133.43 153.148 125.291 185.974 C 139.294 179.57 154.246 175.219 169.67 173.098 C 177.395 157.214 189.009 142.935 204.298 131.827 M 740.483 407.798 C 732.915 421.22 723.407 433.566 712.166 444.356 C 715.25 461.741 714.247 480.116 708.409 498.082 C 702.57 516.056 692.578 531.511 679.858 543.766 C 681.522 553.039 682.369 562.397 682.367 571.725 C 682.37 577.821 682.018 583.91 681.321 589.954 C 710.029 572.071 732.834 544.362 744.103 509.678 C 755.378 474.98 753.208 439.149 740.483 407.798 M 396.851 340.908 C 365.953 340.908 340.907 365.955 340.907 396.85 C 340.907 427.749 365.953 452.793 396.851 452.793 C 427.748 452.793 452.795 427.749 452.795 396.85 C 452.795 365.955 427.748 340.908 396.851 340.908 M 581.117 423.537 C 578.353 423.249 576.145 421.433 575.164 419.029 L 461.54 407.084 C 461.361 408.212 461.155 409.342 460.913 410.47 C 460.673 411.602 460.403 412.72 460.107 413.824 L 568.766 449.124 C 570.641 447.324 573.398 446.561 576.044 447.42 C 579.866 448.662 581.956 452.769 580.716 456.589 C 579.474 460.416 575.369 462.509 571.546 461.266 C 568.901 460.405 567.118 458.17 566.661 455.616 L 458.003 420.313 C 457.173 422.477 456.235 424.574 455.2 426.608 L 554.144 483.728 C 556.352 482.358 559.206 482.184 561.614 483.572 C 565.096 485.582 566.285 490.034 564.277 493.512 C 562.268 496.996 557.818 498.192 554.336 496.181 C 551.929 494.79 550.652 492.233 550.734 489.637 L 451.787 432.514 C 450.529 434.449 449.175 436.305 447.733 438.084 L 532.644 514.529 C 535.088 513.649 537.917 514.074 539.985 515.936 C 542.972 518.624 543.212 523.225 540.524 526.214 C 537.833 529.201 533.23 529.443 530.245 526.753 C 528.18 524.891 527.458 522.126 528.084 519.605 L 443.163 443.152 C 441.536 444.774 439.831 446.318 438.048 447.761 L 505.21 540.193 C 507.784 539.839 510.464 540.845 512.1 543.091 C 514.461 546.345 513.738 550.897 510.488 553.258 C 507.236 555.623 502.684 554.902 500.321 551.651 C 498.69 549.402 498.56 546.545 499.693 544.209 L 432.533 451.777 C 430.607 453.026 428.611 454.168 426.564 455.214 L 473.042 559.591 C 475.633 559.782 478.044 561.318 479.176 563.859 C 480.81 567.531 479.157 571.831 475.486 573.47 C 471.814 575.105 467.512 573.454 465.877 569.782 C 464.748 567.243 465.214 564.422 466.81 562.37 L 420.329 457.988 C 418.191 458.81 416.008 459.522 413.783 460.121 L 437.543 571.878 C 440.037 572.602 442.076 574.61 442.655 577.329 C 443.491 581.258 440.98 585.123 437.047 585.959 C 433.116 586.795 429.251 584.287 428.415 580.358 C 427.839 577.634 428.883 574.974 430.868 573.301 L 407.108 461.545 C 405.984 461.722 404.844 461.873 403.697 461.996 C 402.547 462.116 401.401 462.201 400.26 462.264 L 400.255 576.514 C 402.545 577.738 404.123 580.126 404.123 582.907 C 404.123 586.927 400.863 590.181 396.845 590.183 C 392.824 590.183 389.563 586.927 389.564 582.907 C 389.567 580.123 391.141 577.741 393.431 576.517 L 393.435 462.266 C 391.12 462.146 388.836 461.902 386.584 461.545 L 362.825 573.293 C 364.812 574.97 365.859 577.631 365.281 580.353 C 364.445 584.282 360.579 586.79 356.651 585.957 C 352.715 585.121 350.205 581.255 351.04 577.326 C 351.621 574.607 353.657 572.599 356.152 571.881 L 379.912 460.124 C 377.681 459.525 375.497 458.81 373.363 457.988 L 326.886 562.362 C 328.48 564.417 328.95 567.238 327.82 569.779 C 326.184 573.449 321.882 575.099 318.212 573.467 C 314.539 571.831 312.883 567.529 314.519 563.858 C 315.655 561.318 318.06 559.777 320.652 559.591 L 367.131 455.209 C 365.083 454.162 363.089 453.017 361.167 451.766 L 294.003 544.201 C 295.136 546.537 295.008 549.399 293.376 551.649 C 291.011 554.897 286.46 555.618 283.21 553.255 C 279.956 550.894 279.235 546.342 281.598 543.089 C 283.234 540.842 285.91 539.837 288.482 540.193 L 355.643 447.764 C 353.857 446.318 352.157 444.772 350.532 443.146 L 265.618 519.597 C 266.238 522.118 265.519 524.889 263.454 526.75 C 260.467 529.438 255.864 529.195 253.175 526.211 C 250.486 523.222 250.724 518.621 253.712 515.933 C 255.779 514.072 258.604 513.646 261.047 514.529 L 345.967 438.077 C 344.521 436.296 343.172 434.438 341.915 432.506 L 242.964 489.629 C 243.047 492.228 241.768 494.788 239.362 496.178 C 235.88 498.186 231.428 496.99 229.419 493.509 C 227.41 490.032 228.602 485.58 232.082 483.569 C 234.491 482.181 237.344 482.353 239.55 483.722 L 338.499 426.6 C 337.459 424.566 336.521 422.468 335.695 420.308 L 227.039 455.608 C 226.579 458.165 224.795 460.405 222.152 461.261 C 218.328 462.504 214.224 460.413 212.983 456.586 C 211.74 452.764 213.831 448.66 217.655 447.417 C 220.299 446.558 223.052 447.321 224.926 449.118 L 333.587 413.816 C 332.997 411.618 332.516 409.37 332.157 407.08 L 218.532 419.017 C 217.552 421.422 215.343 423.241 212.579 423.529 C 208.582 423.952 204.999 421.05 204.579 417.053 C 204.159 413.056 207.06 409.474 211.058 409.053 C 213.822 408.764 216.359 410.08 217.818 412.23 L 331.443 400.293 C 331.383 399.154 331.352 398.006 331.352 396.852 C 331.352 395.694 331.383 394.546 331.443 393.405 L 217.82 381.463 C 216.36 383.612 213.822 384.932 211.055 384.641 C 207.058 384.221 204.162 380.64 204.579 376.645 C 204.999 372.644 208.579 369.741 212.576 370.164 C 215.343 370.456 217.55 372.272 218.53 374.676 L 332.155 386.619 C 332.513 384.331 332.997 382.084 333.587 379.881 L 224.932 344.577 C 223.055 346.376 220.299 347.137 217.655 346.28 C 213.831 345.039 211.743 340.932 212.983 337.111 C 214.224 333.285 218.33 331.192 222.152 332.435 C 224.798 333.296 226.579 335.531 227.036 338.085 L 335.697 373.392 C 336.525 371.237 337.464 369.141 338.504 367.103 L 239.558 309.975 C 237.35 311.345 234.492 311.517 232.084 310.128 C 228.604 308.119 227.412 303.667 229.422 300.187 C 231.431 296.705 235.883 295.509 239.363 297.52 C 241.768 298.913 243.048 301.468 242.964 304.064 L 341.92 361.195 C 343.175 359.268 344.521 357.404 345.967 355.624 L 261.056 279.171 C 258.612 280.052 255.782 279.627 253.715 277.768 C 250.73 275.077 250.491 270.476 253.178 267.489 C 255.868 264.5 260.47 264.257 263.456 266.947 C 265.522 268.809 266.24 271.575 265.618 274.096 L 350.527 350.548 C 352.149 348.924 353.865 347.392 355.651 345.947 L 288.491 253.51 C 285.918 253.862 283.238 252.859 281.602 250.611 C 279.24 247.359 279.964 242.807 283.214 240.444 C 286.467 238.08 291.018 238.8 293.38 242.052 C 295.014 244.302 295.142 247.158 294.008 249.495 L 361.171 341.937 C 363.092 340.687 365.08 339.537 367.133 338.489 L 320.66 234.111 C 318.071 233.923 315.658 232.383 314.527 229.843 C 312.892 226.171 314.546 221.87 318.216 220.234 C 321.888 218.6 326.191 220.251 327.826 223.923 C 328.955 226.463 328.488 229.282 326.894 231.334 L 373.365 335.711 C 375.496 334.888 377.68 334.173 379.915 333.577 L 356.16 221.828 C 353.665 221.104 351.627 219.096 351.048 216.378 C 350.213 212.446 352.724 208.58 356.656 207.746 C 360.587 206.91 364.452 209.419 365.287 213.351 C 365.865 216.07 364.821 218.73 362.836 220.406 L 386.589 332.159 C 388.837 331.804 391.123 331.559 393.44 331.441 L 393.44 217.192 C 391.149 215.966 389.572 213.579 389.572 210.799 C 389.572 206.778 392.831 203.52 396.851 203.52 C 400.871 203.52 404.129 206.778 404.129 210.799 C 404.129 213.578 402.553 215.963 400.264 217.19 L 400.259 331.444 C 401.396 331.503 402.543 331.593 403.689 331.713 C 404.839 331.833 405.979 331.987 407.107 332.164 L 430.863 220.412 C 428.879 218.735 427.829 216.072 428.408 213.352 C 429.244 209.422 433.108 206.914 437.04 207.748 C 440.975 208.583 443.485 212.447 442.648 216.38 C 442.068 219.099 440.033 221.104 437.539 221.827 L 413.784 333.58 C 416.023 334.179 418.207 334.892 420.335 335.711 L 466.804 231.34 C 465.21 229.288 464.74 226.466 465.87 223.926 C 467.504 220.254 471.808 218.606 475.478 220.239 C 479.153 221.875 480.805 226.175 479.17 229.846 C 478.037 232.386 475.629 233.926 473.04 234.111 L 426.568 338.487 C 428.624 339.536 430.611 340.687 432.531 341.937 L 499.686 249.502 C 498.554 247.164 498.681 244.304 500.316 242.055 C 502.678 238.804 507.23 238.086 510.481 240.444 C 513.733 242.808 514.456 247.362 512.094 250.612 C 510.457 252.86 507.781 253.864 505.21 253.51 L 438.047 345.949 C 439.832 347.4 441.547 348.935 443.164 350.557 L 528.074 274.104 C 527.453 271.581 528.172 268.812 530.238 266.949 C 533.225 264.263 537.826 264.505 540.516 267.489 C 543.208 270.479 542.968 275.08 539.981 277.771 C 537.912 279.627 535.086 280.055 532.645 279.171 L 447.736 355.621 C 449.183 357.408 450.524 359.273 451.776 361.2 L 550.728 304.069 C 550.646 301.475 551.924 298.916 554.33 297.523 C 557.812 295.515 562.264 296.708 564.273 300.189 C 566.282 303.668 565.092 308.121 561.612 310.131 C 559.204 311.52 556.352 311.348 554.144 309.979 L 455.188 367.109 C 456.229 369.149 457.165 371.248 457.993 373.399 L 566.657 338.093 C 567.116 335.536 568.898 333.297 571.541 332.437 C 575.365 331.197 579.47 333.288 580.713 337.113 C 581.956 340.935 579.862 345.041 576.042 346.283 C 573.397 347.14 570.641 346.381 568.769 344.58 L 460.105 379.888 C 460.701 382.095 461.181 384.34 461.541 386.623 L 575.161 374.683 C 576.144 372.276 578.353 370.457 581.117 370.167 C 585.114 369.747 588.696 372.648 589.114 376.645 C 589.537 380.643 586.636 384.225 582.638 384.645 C 579.874 384.937 577.337 383.616 575.88 381.469 L 462.255 393.41 C 462.373 395.684 462.377 397.982 462.253 400.298 L 575.876 412.244 C 577.334 410.092 579.874 408.772 582.638 409.061 C 586.636 409.482 589.537 413.066 589.116 417.061 C 588.696 421.061 585.113 423.96 581.117 423.537 M 396.851 198.064 C 287.063 198.064 198.06 287.065 198.06 396.852 C 198.06 506.644 287.063 595.641 396.851 595.641 C 506.637 595.641 595.638 506.644 595.638 396.852 C 595.638 287.065 506.637 198.064 396.851 198.064 M 589.405 661.878 C 539.685 698.003 470.093 686.979 433.969 637.258 C 426.465 626.93 421.025 615.738 417.515 604.17 C 410.715 604.842 403.824 605.191 396.849 605.191 C 389.879 605.191 382.988 604.842 376.191 604.173 C 372.68 615.741 367.24 626.933 359.735 637.261 C 323.612 686.982 254.022 698.003 204.299 661.88 C 154.578 625.755 143.557 556.165 179.681 506.444 C 187.178 496.121 196.131 487.498 206.035 480.586 C 200.538 468.077 196.235 454.922 193.269 441.269 C 181.193 441.501 168.875 439.785 156.741 435.842 C 98.2901 416.853 66.3008 354.075 85.2928 295.621 C 104.285 237.171 167.065 205.184 225.515 224.176 C 237.663 228.122 248.647 233.984 258.288 241.282 C 268.563 232.123 279.751 223.968 291.7 216.968 C 287.746 205.552 285.568 193.304 285.568 180.542 C 285.568 119.086 335.391 69.262 396.851 69.262 C 458.308 69.262 508.13 119.086 508.13 180.542 C 508.13 193.304 505.953 205.554 501.998 216.97 C 513.945 223.97 525.133 232.124 535.409 241.282 C 545.052 233.984 556.037 228.122 568.186 224.174 C 626.635 205.182 689.417 237.168 708.407 295.619 C 727.399 354.069 695.409 416.848 636.962 435.84 C 624.825 439.782 612.507 441.498 600.429 441.264 C 597.463 454.92 593.161 468.072 587.662 480.582 C 597.57 487.493 606.525 496.118 614.023 506.441 C 650.149 556.159 639.126 625.753 589.405 661.878 M 636.827 474.824 C 640.747 473.892 644.661 472.804 648.559 471.534 C 726.721 446.138 769.498 362.185 744.102 284.021 C 718.706 205.856 634.75 163.083 556.589 188.479 C 552.689 189.744 548.881 191.164 545.162 192.715 C 545.488 188.7 545.66 184.64 545.66 180.542 C 545.66 98.3566 479.036 31.7301 396.851 31.7301 C 314.663 31.7301 248.038 98.3566 248.038 180.542 C 248.038 184.643 248.212 188.702 248.538 192.719 C 244.819 191.168 241.011 189.75 237.112 188.483 C 158.951 163.086 74.9955 205.862 49.5995 284.024 C 24.2023 362.189 66.9808 446.141 145.142 471.537 C 149.043 472.805 152.954 473.897 156.877 474.826 C 154.254 477.884 151.727 481.066 149.318 484.384 C 101.009 550.87 115.751 643.935 182.238 692.243 C 248.73 740.552 341.792 725.81 390.1 659.32 C 392.508 656.006 394.756 652.621 396.853 649.178 C 398.949 652.618 401.196 656.003 403.604 659.318 C 451.912 725.807 544.976 740.55 611.466 692.24 C 677.957 643.933 692.695 550.87 644.387 484.381 C 641.978 481.064 639.451 477.881 636.827 474.824"
     style="fill:#000000;fill-opacity:1;fill-rule:nonzero;stroke:none"
     id="path15849" />
</svg>
