<?xml version="1.0" encoding="UTF-8" standalone="no"?>
<!-- Created with Inkscape (http://www.inkscape.org/) -->

<svg
   version="1.1"
   id="svg3990"
   width="795.03467"
   height="793.70135"
   viewBox="0 0 795.03467 793.70135"
   sodipodi:docname="Kaga Umebachi.svg"
   inkscape:version="1.2 (dc2aeda, 2022-05-15)"
   xmlns:inkscape="http://www.inkscape.org/namespaces/inkscape"
   xmlns:sodipodi="http://sodipodi.sourceforge.net/DTD/sodipodi-0.dtd"
   xmlns="http://www.w3.org/2000/svg"
   xmlns:svg="http://www.w3.org/2000/svg">
  <defs
     id="defs3994">
    <clipPath
       clipPathUnits="userSpaceOnUse"
       id="clipPath4837">
      <path
         d="M -531.1924,581.5885 H 65.083602 V -13.6875 H -531.1924 Z"
         id="path4839"
         style="stroke-width:0.999998" />
    </clipPath>
    <clipPath
       clipPathUnits="userSpaceOnUse"
       id="clipPath4843">
      <path
         d="M -557.4951,577.8502 H 38.780902 V -17.4258 H -557.4951 Z"
         id="path4845"
         style="stroke-width:0.999998" />
    </clipPath>
    <clipPath
       clipPathUnits="userSpaceOnUse"
       id="clipPath4849">
      <path
         d="M -576.3691,585.5885 H 19.906902 V -9.6875 H -576.3691 Z"
         id="path4851"
         style="stroke-width:0.999998" />
    </clipPath>
    <clipPath
       clipPathUnits="userSpaceOnUse"
       id="clipPath4855">
      <path
         d="M -574.5459,585.8522 H 21.730102 V -9.4238 H -574.5459 Z"
         id="path4857"
         style="stroke-width:0.999998" />
    </clipPath>
    <clipPath
       clipPathUnits="userSpaceOnUse"
       id="clipPath4861">
      <path
         d="M -572.8174,586.1354 H 23.458602 V -9.1406 H -572.8174 Z"
         id="path4863"
         style="stroke-width:0.999998" />
    </clipPath>
    <clipPath
       clipPathUnits="userSpaceOnUse"
       id="clipPath4867">
      <path
         d="M -536.6982,584.5729 H 59.577802 V -10.7031 H -536.6982 Z"
         id="path4869"
         style="stroke-width:0.999998" />
    </clipPath>
    <clipPath
       clipPathUnits="userSpaceOnUse"
       id="clipPath4873">
      <path
         d="m -347.1543,341.149 h 596.276 v -595.276 h -596.276 z"
         id="path4875"
         style="stroke-width:0.999998" />
    </clipPath>
    <clipPath
       clipPathUnits="userSpaceOnUse"
       id="clipPath4880">
      <path
         d="M -567.7754,585.8522 H 28.500602 V -9.4238 H -567.7754 Z"
         id="path4882"
         style="stroke-width:0.999998" />
    </clipPath>
    <clipPath
       clipPathUnits="userSpaceOnUse"
       id="clipPath4886">
      <path
         d="M -540.8213,585.8483 H 55.454702 V -9.4277 H -540.8213 Z"
         id="path4888"
         style="stroke-width:0.999998" />
    </clipPath>
    <clipPath
       clipPathUnits="userSpaceOnUse"
       id="clipPath4892">
      <path
         d="M -557.0645,585.8483 H 39.211502 V -9.4277 H -557.0645 Z"
         id="path4894"
         style="stroke-width:0.999998" />
    </clipPath>
    <clipPath
       clipPathUnits="userSpaceOnUse"
       id="clipPath4898">
      <path
         d="M -564.5732,585.8483 H 31.702802 V -9.4277 H -564.5732 Z"
         id="path4900"
         style="stroke-width:0.999998" />
    </clipPath>
    <clipPath
       clipPathUnits="userSpaceOnUse"
       id="clipPath4904">
      <path
         d="M -561.4131,585.8522 H 34.862902 V -9.4238 H -561.4131 Z"
         id="path4906"
         style="stroke-width:0.999998" />
    </clipPath>
    <clipPath
       clipPathUnits="userSpaceOnUse"
       id="clipPath4910">
      <path
         d="M -528.0898,575.3815 H 68.186202 V -19.8945 H -528.0898 Z"
         id="path4912"
         style="stroke-width:0.999998" />
    </clipPath>
    <clipPath
       clipPathUnits="userSpaceOnUse"
       id="clipPath4916">
      <path
         d="M -553.8975,585.8483 H 42.378502 V -9.4277 H -553.8975 Z"
         id="path4918"
         style="stroke-width:0.999998" />
    </clipPath>
    <clipPath
       clipPathUnits="userSpaceOnUse"
       id="clipPath4922">
      <path
         d="m -288.4731,370.4713 h 596.276 v -595.276 h -596.276 z"
         id="path4924"
         style="stroke-width:0.999998" />
    </clipPath>
    <clipPath
       clipPathUnits="userSpaceOnUse"
       id="clipPath4928">
      <path
         d="m -242.4546,323.7213 h 596.276 v -595.276 h -596.276 z"
         id="path4930"
         style="stroke-width:0.999998" />
    </clipPath>
    <clipPath
       clipPathUnits="userSpaceOnUse"
       id="clipPath4934">
      <path
         d="M -548.9834,585.8522 H 47.292602 V -9.4238 H -548.9834 Z"
         id="path4936"
         style="stroke-width:0.999998" />
    </clipPath>
    <clipPath
       clipPathUnits="userSpaceOnUse"
       id="clipPath4940">
      <path
         d="M -545.417,584.5729 H 50.859002 V -10.7031 H -545.417 Z"
         id="path4942"
         style="stroke-width:0.999998" />
    </clipPath>
    <clipPath
       clipPathUnits="userSpaceOnUse"
       id="clipPath4946">
      <path
         d="m -322.582,365.3561 h 596.276 v -595.276 h -596.276 z"
         id="path4948"
         style="stroke-width:0.999998" />
    </clipPath>
    <clipPath
       clipPathUnits="userSpaceOnUse"
       id="clipPath4952">
      <path
         d="M -550.2637,577.3248 H 46.012302 V -17.9512 H -550.2637 Z"
         id="path4954"
         style="stroke-width:0.999998" />
    </clipPath>
    <clipPath
       clipPathUnits="userSpaceOnUse"
       id="clipPath4958">
      <path
         d="m -257.8584,354.5826 h 596.276 v -595.276 h -596.276 z"
         id="path4960"
         style="stroke-width:0.999998" />
    </clipPath>
    <clipPath
       clipPathUnits="userSpaceOnUse"
       id="clipPath4964">
      <path
         d="m -272.6958,265.5079 h 596.276 v -595.276 h -596.276 z"
         id="path4966"
         style="stroke-width:0.999998" />
    </clipPath>
    <clipPath
       clipPathUnits="userSpaceOnUse"
       id="clipPath4970">
      <path
         d="m -248.1035,289.6974 h 596.276 v -595.276 h -596.276 z"
         id="path4972"
         style="stroke-width:0.999998" />
    </clipPath>
    <clipPath
       clipPathUnits="userSpaceOnUse"
       id="clipPath4976">
      <path
         d="m -337.4043,276.2823 h 596.276 v -595.276 h -596.276 z"
         id="path4978"
         style="stroke-width:0.999998" />
    </clipPath>
    <clipPath
       clipPathUnits="userSpaceOnUse"
       id="clipPath4982">
      <path
         d="M -550.2637,577.3248 H 46.012302 V -17.9512 H -550.2637 Z"
         id="path4984"
         style="stroke-width:0.999998" />
    </clipPath>
    <clipPath
       clipPathUnits="userSpaceOnUse"
       id="clipPath4989">
      <path
         d="m -306.8008,260.3693 h 596.276 v -595.276 h -596.276 z"
         id="path4991"
         style="stroke-width:0.999998" />
    </clipPath>
    <clipPath
       clipPathUnits="userSpaceOnUse"
       id="clipPath4995">
      <path
         d="m -341.0068,315.4283 h 596.276 v -595.276 h -596.276 z"
         id="path4997"
         style="stroke-width:0.999998" />
    </clipPath>
    <clipPath
       clipPathUnits="userSpaceOnUse"
       id="clipPath5001">
      <path
         d="M -538.2217,577.9479 H 58.054302 V -17.3281 H -538.2217 Z"
         id="path5003"
         style="stroke-width:0.999998" />
    </clipPath>
    <clipPath
       clipPathUnits="userSpaceOnUse"
       id="clipPath5007">
      <path
         d="M -584.1943,578.9381 H 12.081702 V -16.3379 H -584.1943 Z"
         id="path5009"
         style="stroke-width:0.999998" />
    </clipPath>
    <clipPath
       clipPathUnits="userSpaceOnUse"
       id="clipPath5013">
      <path
         d="M -586.5449,579.5026 H 9.7311024 V -15.7734 H -586.5449 Z"
         id="path5015"
         style="stroke-width:0.999998" />
    </clipPath>
    <clipPath
       clipPathUnits="userSpaceOnUse"
       id="clipPath5019">
      <path
         d="M -556.4014,578.0143 H 39.874602 V -17.2617 H -556.4014 Z"
         id="path5021"
         style="stroke-width:0.999998" />
    </clipPath>
    <clipPath
       clipPathUnits="userSpaceOnUse"
       id="clipPath5025">
      <path
         d="M -557.4951,577.8502 H 38.780902 V -17.4258 H -557.4951 Z"
         id="path5027"
         style="stroke-width:0.999998" />
    </clipPath>
    <clipPath
       clipPathUnits="userSpaceOnUse"
       id="clipPath5031">
      <path
         d="M -568.2266,575.819 H 28.049402 V -19.457 H -568.2266 Z"
         id="path5033"
         style="stroke-width:0.999998" />
    </clipPath>
    <clipPath
       clipPathUnits="userSpaceOnUse"
       id="clipPath5037">
      <path
         d="M -576.3691,585.5885 H 19.906902 V -9.6875 H -576.3691 Z"
         id="path5039"
         style="stroke-width:0.999998" />
    </clipPath>
    <clipPath
       clipPathUnits="userSpaceOnUse"
       id="clipPath5043">
      <path
         d="M -561.4131,585.8522 H 34.862902 V -9.4238 H -561.4131 Z"
         id="path5045"
         style="stroke-width:0.999998" />
    </clipPath>
    <clipPath
       clipPathUnits="userSpaceOnUse"
       id="clipPath5049">
      <path
         d="M -574.5459,585.8522 H 21.730102 V -9.4238 H -574.5459 Z"
         id="path5051"
         style="stroke-width:0.999998" />
    </clipPath>
    <clipPath
       clipPathUnits="userSpaceOnUse"
       id="clipPath5055">
      <path
         d="M -572.8174,586.1354 H 23.458602 V -9.1406 H -572.8174 Z"
         id="path5057"
         style="stroke-width:0.999998" />
    </clipPath>
    <clipPath
       clipPathUnits="userSpaceOnUse"
       id="clipPath5062">
      <path
         d="M -567.7754,585.8522 H 28.500602 V -9.4238 H -567.7754 Z"
         id="path5064"
         style="stroke-width:0.999998" />
    </clipPath>
    <clipPath
       clipPathUnits="userSpaceOnUse"
       id="clipPath5068">
      <path
         d="M -564.5732,585.8483 H 31.702802 V -9.4277 H -564.5732 Z"
         id="path5070"
         style="stroke-width:0.999998" />
    </clipPath>
    <clipPath
       clipPathUnits="userSpaceOnUse"
       id="clipPath5074">
      <path
         d="M -545.417,584.5729 H 50.859002 V -10.7031 H -545.417 Z"
         id="path5076"
         style="stroke-width:0.999998" />
    </clipPath>
    <clipPath
       clipPathUnits="userSpaceOnUse"
       id="clipPath5080">
      <path
         d="M -540.8213,585.8483 H 55.454702 V -9.4277 H -540.8213 Z"
         id="path5082"
         style="stroke-width:0.999998" />
    </clipPath>
    <clipPath
       clipPathUnits="userSpaceOnUse"
       id="clipPath5086">
      <path
         d="M -557.0645,585.8483 H 39.211502 V -9.4277 H -557.0645 Z"
         id="path5088"
         style="stroke-width:0.999998" />
    </clipPath>
    <clipPath
       clipPathUnits="userSpaceOnUse"
       id="clipPath5092">
      <path
         d="M -553.8975,585.8483 H 42.378502 V -9.4277 H -553.8975 Z"
         id="path5094"
         style="stroke-width:0.999998" />
    </clipPath>
    <clipPath
       clipPathUnits="userSpaceOnUse"
       id="clipPath5098">
      <path
         d="M -548.9834,585.8522 H 47.292602 V -9.4238 H -548.9834 Z"
         id="path5100"
         style="stroke-width:0.999998" />
    </clipPath>
    <clipPath
       clipPathUnits="userSpaceOnUse"
       id="clipPath5104">
      <path
         d="M -536.6982,584.5729 H 59.577802 V -10.7031 H -536.6982 Z"
         id="path5106"
         style="stroke-width:0.999998" />
    </clipPath>
    <clipPath
       clipPathUnits="userSpaceOnUse"
       id="clipPath5110">
      <path
         d="M -542.9326,584.5729 H 53.343402 V -10.7031 H -542.9326 Z"
         id="path5112"
         style="stroke-width:0.999998" />
    </clipPath>
    <clipPath
       clipPathUnits="userSpaceOnUse"
       id="clipPath5116">
      <path
         d="M -528.0898,575.3815 H 68.186202 V -19.8945 H -528.0898 Z"
         id="path5118"
         style="stroke-width:0.999998" />
    </clipPath>
    <clipPath
       clipPathUnits="userSpaceOnUse"
       id="clipPath5123">
      <path
         d="M -531.1924,581.5885 H 65.083602 V -13.6875 H -531.1924 Z"
         id="path5125"
         style="stroke-width:0.999998" />
    </clipPath>
    <clipPath
       clipPathUnits="userSpaceOnUse"
       id="clipPath5129">
      <path
         d="M -538.2217,577.9479 H 58.054302 V -17.3281 H -538.2217 Z"
         id="path5131"
         style="stroke-width:0.999998" />
    </clipPath>
    <clipPath
       clipPathUnits="userSpaceOnUse"
       id="clipPath5135">
      <path
         d="M -556.4014,578.0143 H 39.874602 V -17.2617 H -556.4014 Z"
         id="path5137"
         style="stroke-width:0.999998" />
    </clipPath>
    <clipPath
       clipPathUnits="userSpaceOnUse"
       id="clipPath5141">
      <path
         d="M -584.1943,578.9381 H 12.081702 V -16.3379 H -584.1943 Z"
         id="path5143"
         style="stroke-width:0.999998" />
    </clipPath>
    <clipPath
       clipPathUnits="userSpaceOnUse"
       id="clipPath5147">
      <path
         d="M -586.5449,579.5026 H 9.7311024 V -15.7734 H -586.5449 Z"
         id="path5149"
         style="stroke-width:0.999998" />
    </clipPath>
    <clipPath
       clipPathUnits="userSpaceOnUse"
       id="clipPath5153">
      <path
         d="M -568.2266,575.819 H 28.049402 V -19.457 H -568.2266 Z"
         id="path5155"
         style="stroke-width:0.999998" />
    </clipPath>
    <clipPath
       clipPathUnits="userSpaceOnUse"
       id="clipPath5159">
      <path
         d="M -542.9326,584.5729 H 53.343402 V -10.7031 H -542.9326 Z"
         id="path5161"
         style="stroke-width:0.999998" />
    </clipPath>
    <clipPath
       clipPathUnits="userSpaceOnUse"
       id="clipPath5165">
      <path
         d="m -352.832,307.1276 h 596.276 v -595.276 h -596.276 z"
         id="path5167"
         style="stroke-width:0.999998" />
    </clipPath>
  </defs>
  <sodipodi:namedview
     id="namedview3992"
     pagecolor="#ffffff"
     bordercolor="#000000"
     borderopacity="0.25"
     inkscape:showpageshadow="2"
     inkscape:pageopacity="0.0"
     inkscape:pagecheckerboard="0"
     inkscape:deskcolor="#d1d1d1"
     showgrid="false"
     inkscape:zoom="0.29734106"
     inkscape:cx="-215.24105"
     inkscape:cy="396.85068"
     inkscape:window-width="1419"
     inkscape:window-height="456"
     inkscape:window-x="1920"
     inkscape:window-y="142"
     inkscape:window-maximized="0"
     inkscape:current-layer="svg3990">
    <inkscape:page
       x="0"
       y="0"
       id="page3996"
       width="795.03467"
       height="793.70135" />
  </sodipodi:namedview>
  <path
     d="m 454.675,420.571 c 0,31.938 -25.889,57.823 -57.827,57.823 -31.937,0 -57.826,-25.885 -57.826,-57.823 0,-31.94 25.889,-57.826 57.826,-57.826 31.938,0 57.827,25.886 57.827,57.826"
     style="fill:#000000;fill-opacity:1;fill-rule:nonzero;stroke:none"
     id="path4210" />
  <path
     d="m 409.067,347.159 20.384,-62.71 c 48.717,-14.115 84.325,-59.047 84.325,-112.317 0,-64.584 -52.346,-116.9318 -116.926,-116.9318 -64.584,0 -116.928,52.3478 -116.928,116.9318 0,53.262 35.612,98.21 84.32,112.329 l 20.382,62.701 c 3.975,-0.657 8.056,-1.009 12.226,-1.009 4.157,0 8.245,0.349 12.217,1.006"
     style="fill:#000000;fill-opacity:1;fill-rule:nonzero;stroke:none"
     id="path4214" />
  <path
     d="m 449.871,368.377 44.105,-32.046 -10.868,-33.45 h -36.402 l -16.608,51.117 c 7.374,3.687 14.049,8.56 19.773,14.379"
     style="fill:#000000;fill-opacity:1;fill-rule:nonzero;stroke:none"
     id="path4218" />
  <path
     d="m 330.803,386.263 -53.341,-38.768 c 1.637,-50.693 -30.095,-98.447 -80.757,-114.906 -61.423,-19.959 -127.3918,13.652 -147.3478,75.073 -19.9559,61.419 13.656,127.385 75.0828,147.344 50.65,16.458 104.402,-3.525 132.883,-45.489 l 65.932,-0.008 c 0.604,-3.984 1.532,-7.974 2.819,-11.935 1.284,-3.957 2.884,-7.735 4.729,-11.311"
     style="fill:#000000;fill-opacity:1;fill-rule:nonzero;stroke:none"
     id="path4222" />
  <path
     d="M 363.594,354.011 346.75,302.162 h -35.173 l -11.246,34.623 43.48,31.59 c 5.783,-5.874 12.483,-10.716 19.783,-14.364"
     style="fill:#000000;fill-opacity:1;fill-rule:nonzero;stroke:none"
     id="path4226" />
  <path
     d="m 343.81,472.778 -53.351,38.754 c -47.708,-17.218 -102.933,-1.801 -134.238,41.3 -37.968,52.248 -26.381,125.367 25.864,163.331 52.248,37.958 125.372,26.369 163.329,-25.875 31.312,-43.087 28.913,-100.388 -2.192,-140.437 l 20.365,-62.712 c -3.607,-1.801 -7.116,-3.916 -10.48,-6.364 -3.361,-2.445 -6.463,-5.131 -9.297,-7.997"
     style="fill:#000000;fill-opacity:1;fill-rule:nonzero;stroke:none"
     id="path4230" />
  <path
     d="m 323.273,431.629 -54.516,-0.003 -10.871,33.453 29.453,21.396 43.476,-31.594 c -3.796,-7.315 -6.328,-15.182 -7.542,-23.252"
     style="fill:#000000;fill-opacity:1;fill-rule:nonzero;stroke:none"
     id="path4234" />
  <path
     d="m 430.108,487.142 20.372,62.716 c -31.117,40.052 -33.52,97.338 -2.202,140.434 37.955,52.256 111.081,63.828 163.322,25.871 52.252,-37.964 63.832,-111.082 25.869,-163.331 -31.299,-43.094 -86.54,-58.518 -134.242,-41.313 l -53.345,-38.747 c -2.83,2.867 -5.924,5.558 -9.294,7.998 -3.362,2.448 -6.873,4.566 -10.48,6.372"
     style="fill:#000000;fill-opacity:1;fill-rule:nonzero;stroke:none"
     id="path4238" />
  <path
     d="m 384.63,493.962 -16.851,51.849 28.453,20.672 29.454,-21.393 -16.614,-51.12 c -8.13,1.353 -16.392,1.333 -24.442,-0.008"
     style="fill:#000000;fill-opacity:1;fill-rule:nonzero;stroke:none"
     id="path4242" />
  <path
     d="m 470.441,409.505 65.936,0.008 c 28.476,41.976 82.223,61.958 132.884,45.494 61.419,-19.953 95.034,-85.922 75.072,-147.341 -19.956,-61.421 -85.919,-95.026 -147.342,-75.07 -50.656,16.453 -82.394,64.22 -80.774,114.901 l -53.335,38.768 c 1.858,3.574 3.458,7.349 4.737,11.306 1.289,3.96 2.218,7.952 2.822,11.934"
     style="fill:#000000;fill-opacity:1;fill-rule:nonzero;stroke:none"
     id="path4246" />
  <path
     d="m 462.871,454.866 44.101,32.054 28.455,-20.68 -11.246,-34.619 h -53.75 c -1.22,8.154 -3.797,16.008 -7.56,23.245"
     style="fill:#000000;fill-opacity:1;fill-rule:nonzero;stroke:none"
     id="path4250" />
</svg>
