<?xml version="1.0" encoding="UTF-8" standalone="no"?>
<!-- Created with Inkscape (http://www.inkscape.org/) -->

<svg
   sodipodi:docname="Kage Yae Mukou Ume.svg"
   viewBox="0 0 795.03467 793.70135"
   height="793.70135"
   width="795.03467"
   id="svg8854"
   version="1.1"
   inkscape:version="1.2 (dc2aeda, 2022-05-15)"
   xmlns:inkscape="http://www.inkscape.org/namespaces/inkscape"
   xmlns:sodipodi="http://sodipodi.sourceforge.net/DTD/sodipodi-0.dtd"
   xmlns="http://www.w3.org/2000/svg"
   xmlns:svg="http://www.w3.org/2000/svg">
  <defs
     id="defs8858">
    <clipPath
       clipPathUnits="userSpaceOnUse"
       id="clipPath9203">
      <path
         d="M -538.2217,577.9479 H 58.054302 V -17.3281 H -538.2217 Z"
         id="path9205"
         style="stroke-width:0.999998" />
    </clipPath>
    <clipPath
       clipPathUnits="userSpaceOnUse"
       id="clipPath9207">
      <path
         d="M -584.1943,578.9381 H 12.081702 V -16.3379 H -584.1943 Z"
         id="path9209"
         style="stroke-width:0.999998" />
    </clipPath>
    <clipPath
       clipPathUnits="userSpaceOnUse"
       id="clipPath9211">
      <path
         d="M -586.5449,579.5026 H 9.7311024 V -15.7734 H -586.5449 Z"
         id="path9213"
         style="stroke-width:0.999998" />
    </clipPath>
    <clipPath
       clipPathUnits="userSpaceOnUse"
       id="clipPath9215">
      <path
         d="M -556.4014,578.0143 H 39.874602 V -17.2617 H -556.4014 Z"
         id="path9217"
         style="stroke-width:0.999998" />
    </clipPath>
    <clipPath
       clipPathUnits="userSpaceOnUse"
       id="clipPath9219">
      <path
         d="M -550.2637,577.3248 H 46.012302 V -17.9512 H -550.2637 Z"
         id="path9221"
         style="stroke-width:0.999998" />
    </clipPath>
    <clipPath
       clipPathUnits="userSpaceOnUse"
       id="clipPath9223">
      <path
         d="M -568.2266,575.819 H 28.049402 V -19.457 H -568.2266 Z"
         id="path9225"
         style="stroke-width:0.999998" />
    </clipPath>
    <clipPath
       clipPathUnits="userSpaceOnUse"
       id="clipPath9227">
      <path
         d="M -557.4951,577.8502 H 38.780902 V -17.4258 H -557.4951 Z"
         id="path9229"
         style="stroke-width:0.999998" />
    </clipPath>
    <clipPath
       clipPathUnits="userSpaceOnUse"
       id="clipPath9231">
      <path
         d="M -576.3691,585.5885 H 19.906902 V -9.6875 H -576.3691 Z"
         id="path9233"
         style="stroke-width:0.999998" />
    </clipPath>
    <clipPath
       clipPathUnits="userSpaceOnUse"
       id="clipPath9235">
      <path
         d="M -574.5459,585.8522 H 21.730102 V -9.4238 H -574.5459 Z"
         id="path9237"
         style="stroke-width:0.999998" />
    </clipPath>
    <clipPath
       clipPathUnits="userSpaceOnUse"
       id="clipPath9239">
      <path
         d="M -572.8174,586.1354 H 23.458602 V -9.1406 H -572.8174 Z"
         id="path9241"
         style="stroke-width:0.999998" />
    </clipPath>
    <clipPath
       clipPathUnits="userSpaceOnUse"
       id="clipPath9243">
      <path
         d="M -567.7754,585.8522 H 28.500602 V -9.4238 H -567.7754 Z"
         id="path9245"
         style="stroke-width:0.999998" />
    </clipPath>
    <clipPath
       clipPathUnits="userSpaceOnUse"
       id="clipPath9247">
      <path
         d="M -564.5732,585.8483 H 31.702802 V -9.4277 H -564.5732 Z"
         id="path9249"
         style="stroke-width:0.999998" />
    </clipPath>
    <clipPath
       clipPathUnits="userSpaceOnUse"
       id="clipPath9251">
      <path
         d="M -561.4131,585.8522 H 34.862902 V -9.4238 H -561.4131 Z"
         id="path9253"
         style="stroke-width:0.999998" />
    </clipPath>
    <clipPath
       clipPathUnits="userSpaceOnUse"
       id="clipPath9255">
      <path
         d="M -557.0645,585.8483 H 39.211502 V -9.4277 H -557.0645 Z"
         id="path9257"
         style="stroke-width:0.999998" />
    </clipPath>
    <clipPath
       clipPathUnits="userSpaceOnUse"
       id="clipPath9259">
      <path
         d="M -553.8975,585.8483 H 42.378502 V -9.4277 H -553.8975 Z"
         id="path9261"
         style="stroke-width:0.999998" />
    </clipPath>
    <clipPath
       clipPathUnits="userSpaceOnUse"
       id="clipPath9263">
      <path
         d="M -548.9834,585.8522 H 47.292602 V -9.4238 H -548.9834 Z"
         id="path9265"
         style="stroke-width:0.999998" />
    </clipPath>
    <clipPath
       clipPathUnits="userSpaceOnUse"
       id="clipPath9267">
      <path
         d="M -545.417,584.5729 H 50.859002 V -10.7031 H -545.417 Z"
         id="path9269"
         style="stroke-width:0.999998" />
    </clipPath>
    <clipPath
       clipPathUnits="userSpaceOnUse"
       id="clipPath9271">
      <path
         d="M -542.9326,584.5729 H 53.343402 V -10.7031 H -542.9326 Z"
         id="path9273"
         style="stroke-width:0.999998" />
    </clipPath>
    <clipPath
       clipPathUnits="userSpaceOnUse"
       id="clipPath9275">
      <path
         d="M -540.8213,585.8483 H 55.454702 V -9.4277 H -540.8213 Z"
         id="path9277"
         style="stroke-width:0.999998" />
    </clipPath>
    <clipPath
       clipPathUnits="userSpaceOnUse"
       id="clipPath9279">
      <path
         d="M -536.6982,584.5729 H 59.577802 V -10.7031 H -536.6982 Z"
         id="path9281"
         style="stroke-width:0.999998" />
    </clipPath>
    <clipPath
       clipPathUnits="userSpaceOnUse"
       id="clipPath9283">
      <path
         d="M -528.0898,575.3815 H 68.186202 V -19.8945 H -528.0898 Z"
         id="path9285"
         style="stroke-width:0.999998" />
    </clipPath>
    <clipPath
       clipPathUnits="userSpaceOnUse"
       id="clipPath9287">
      <path
         d="M -531.1924,581.5885 H 65.083602 V -13.6875 H -531.1924 Z"
         id="path9289"
         style="stroke-width:0.999998" />
    </clipPath>
    <clipPath
       clipPathUnits="userSpaceOnUse"
       id="clipPath9405">
      <path
         d="m -282.6543,343.7643 h 596.276 v -595.276 h -596.276 z"
         id="path9407"
         style="stroke-width:0.999998" />
    </clipPath>
  </defs>
  <sodipodi:namedview
     id="namedview8856"
     pagecolor="#ffffff"
     bordercolor="#000000"
     borderopacity="0.25"
     inkscape:showpageshadow="2"
     inkscape:pageopacity="0.0"
     inkscape:pagecheckerboard="0"
     inkscape:deskcolor="#d1d1d1"
     showgrid="false"
     inkscape:zoom="0.29734106"
     inkscape:cx="-215.24105"
     inkscape:cy="396.85068"
     inkscape:window-width="1419"
     inkscape:window-height="456"
     inkscape:window-x="1920"
     inkscape:window-y="142"
     inkscape:window-maximized="0"
     inkscape:current-layer="svg8854">
    <inkscape:page
       x="0"
       y="0"
       id="page8860"
       width="795.03467"
       height="793.70135" />
  </sodipodi:namedview>
  <path
     d="M 376.872 458.352 C 375.159 457.796 373.497 457.157 371.867 456.477 L 344.468 540.804 C 346.209 541.077 347.949 541.486 349.677 542.046 C 351.403 542.608 353.052 543.298 354.616 544.098 L 382.016 459.775 C 380.296 459.369 378.579 458.907 376.872 458.352 M 439.085 249.599 L 411.685 333.932 C 413.404 334.338 415.124 334.796 416.836 335.352 C 418.547 335.907 420.203 336.547 421.833 337.224 L 449.234 252.897 C 447.493 252.626 445.752 252.214 444.024 251.654 C 442.299 251.093 440.652 250.401 439.085 249.599 M 446.701 243.409 C 459.836 247.677 473.938 240.491 478.204 227.362 C 482.469 214.227 475.285 200.125 462.154 195.857 C 449.024 191.593 434.916 198.778 430.649 211.91 C 426.384 225.042 433.571 239.142 446.701 243.409 M 346.999 550.288 C 333.864 546.02 319.76 553.21 315.497 566.338 C 311.231 579.47 318.413 593.573 331.547 597.841 C 344.677 602.108 358.783 594.921 363.047 581.79 C 367.315 568.657 360.131 554.553 346.999 550.288 M 482.521 269.858 L 430.403 341.596 C 431.912 342.514 433.405 343.482 434.861 344.539 C 436.317 345.595 437.695 346.714 439.036 347.863 L 491.156 276.131 C 489.582 275.334 488.054 274.404 486.584 273.338 C 485.117 272.27 483.764 271.103 482.521 269.858 M 311.18 523.84 L 363.297 452.111 C 361.788 451.195 360.296 450.223 358.844 449.168 C 357.388 448.109 356.004 446.991 354.664 445.839 L 302.548 517.571 C 304.12 518.369 305.647 519.296 307.119 520.363 C 308.586 521.432 309.94 522.597 311.18 523.84 M 491.677 266.324 C 502.849 274.44 518.482 271.966 526.597 260.796 C 534.713 249.623 532.237 233.991 521.068 225.875 C 509.9 217.762 494.261 220.235 486.145 231.406 C 478.03 242.577 480.509 258.209 491.677 266.324 M 302.023 527.373 C 290.851 519.256 275.216 521.735 267.104 532.904 C 258.988 544.074 261.462 559.708 272.632 567.824 C 283.803 575.94 299.439 573.464 307.552 562.293 C 315.669 551.121 313.195 535.489 302.023 527.373 M 276.131 491.152 L 347.863 439.039 C 346.711 437.7 345.592 436.316 344.537 434.864 C 343.479 433.407 342.509 431.915 341.589 430.405 L 269.859 482.521 C 271.107 483.767 272.274 485.12 273.343 486.589 C 274.408 488.059 275.336 489.585 276.131 491.152 M 517.57 302.547 L 445.836 354.668 C 446.988 356.008 448.109 357.39 449.166 358.844 C 450.225 360.299 451.188 361.79 452.109 363.296 L 523.844 311.182 C 522.594 309.936 521.428 308.582 520.36 307.112 C 519.293 305.644 518.368 304.116 517.57 302.547 M 527.372 302.016 C 535.489 313.188 551.121 315.664 562.289 307.548 C 573.461 299.432 575.938 283.799 567.824 272.628 C 559.708 261.46 544.07 258.982 532.9 267.098 C 521.732 275.214 519.257 290.846 527.372 302.016 M 266.331 491.681 C 258.214 480.509 242.578 478.036 231.411 486.152 C 220.24 494.268 217.763 509.9 225.879 521.072 C 233.995 532.242 249.63 534.717 260.798 526.602 C 271.97 518.485 274.448 502.852 266.331 491.681 M 459.773 382.015 L 544.102 354.618 C 543.297 353.047 542.608 351.399 542.046 349.671 C 541.485 347.944 541.076 346.207 540.804 344.468 L 456.473 371.871 C 457.154 373.5 457.793 375.16 458.349 376.872 C 458.906 378.582 459.362 380.298 459.773 382.015 M 252.9 449.232 L 337.224 421.835 C 336.541 420.207 335.905 418.545 335.351 416.837 C 334.793 415.125 334.333 413.407 333.925 411.687 L 249.602 439.087 C 250.402 440.656 251.094 442.304 251.656 444.031 C 252.216 445.759 252.626 447.496 252.9 449.232 M 550.289 346.991 C 554.557 360.124 568.658 367.311 581.789 363.044 C 594.921 358.775 602.107 344.674 597.842 331.543 C 593.574 318.412 579.469 311.223 566.338 315.491 C 553.206 319.758 546.022 333.86 550.289 346.991 M 243.414 446.708 C 239.147 433.575 225.042 426.389 211.912 430.657 C 198.782 434.924 191.594 449.027 195.86 462.159 C 200.127 475.291 214.232 482.477 227.362 478.209 C 240.495 473.941 247.682 459.839 243.414 446.708 M 332.421 402.187 C 332.276 400.427 332.184 398.651 332.184 396.855 C 332.183 395.055 332.277 393.277 332.42 391.516 L 243.756 391.518 C 244.034 393.257 244.182 395.039 244.183 396.855 C 244.182 398.669 244.035 400.449 243.758 402.185 Z M 461.274 391.518 C 461.418 393.279 461.513 395.055 461.513 396.855 C 461.514 398.652 461.418 400.425 461.278 402.185 L 549.946 402.188 C 549.666 400.445 549.518 398.665 549.518 396.848 C 549.518 395.033 549.668 393.253 549.946 391.516 Z M 583.183 371.847 C 569.377 371.847 558.186 383.04 558.185 396.847 C 558.186 410.656 569.378 421.848 583.183 421.848 C 596.993 421.847 608.185 410.656 608.185 396.848 C 608.185 383.043 596.991 371.847 583.183 371.847 M 235.516 396.853 C 235.516 383.046 224.323 371.852 210.516 371.854 C 196.71 371.854 185.516 383.046 185.516 396.853 C 185.516 410.66 196.71 421.853 210.516 421.852 C 224.326 421.852 235.518 410.66 235.516 396.853 M 251.655 349.678 C 251.092 351.404 250.402 353.051 249.602 354.616 L 333.925 382.016 C 334.332 380.298 334.792 378.58 335.348 376.872 C 335.903 375.16 336.541 373.499 337.223 371.868 L 252.898 344.47 C 252.623 346.211 252.215 347.95 251.655 349.678 M 542.048 444.025 C 542.609 442.3 543.298 440.653 544.101 439.087 L 459.769 411.687 C 459.362 413.407 458.902 415.125 458.348 416.836 C 457.793 418.547 457.154 420.204 456.476 421.833 L 540.804 449.236 C 541.076 447.492 541.486 445.755 542.048 444.025 M 581.79 430.652 C 568.66 426.384 554.558 433.571 550.29 446.703 C 546.024 459.835 553.209 473.939 566.341 478.205 C 579.473 482.472 593.575 475.285 597.843 462.156 C 602.109 449.024 594.922 434.919 581.79 430.652 M 211.91 363.048 C 225.043 367.316 239.147 360.131 243.412 346.999 C 247.679 333.867 240.492 319.763 227.362 315.496 C 214.231 311.23 200.126 318.415 195.859 331.547 C 191.592 344.679 198.779 358.783 211.91 363.048 M 273.339 307.119 C 272.271 308.587 271.104 309.94 269.859 311.182 L 341.589 363.298 C 342.508 361.788 343.476 360.298 344.532 358.844 C 345.589 357.388 346.709 356.006 347.86 354.664 L 276.13 302.548 C 275.332 304.12 274.404 305.65 273.339 307.119 M 520.362 486.585 C 521.43 485.117 522.596 483.765 523.842 482.523 L 452.105 430.404 C 451.186 431.915 450.218 433.407 449.162 434.863 C 448.106 436.317 446.986 437.696 445.837 439.037 L 517.57 491.157 C 518.368 489.583 519.294 488.056 520.362 486.585 M 562.293 486.148 C 551.124 478.032 535.492 480.508 527.376 491.679 C 519.26 502.849 521.734 518.484 532.905 526.6 C 544.076 534.714 559.71 532.238 567.826 521.069 C 575.941 509.899 573.464 494.264 562.293 486.148 M 231.407 307.554 C 242.578 315.67 258.212 313.195 266.328 302.024 C 274.444 290.854 271.966 275.218 260.796 267.103 C 249.626 258.988 233.992 261.463 225.876 272.634 C 217.76 283.804 220.236 299.439 231.407 307.554 M 486.588 520.361 C 488.057 519.295 489.582 518.369 491.152 517.572 L 439.032 445.836 C 437.692 446.991 436.309 448.109 434.856 449.167 C 433.401 450.224 431.911 451.191 430.403 452.109 L 482.52 523.845 C 483.765 522.596 485.118 521.431 486.588 520.361 M 307.112 273.343 C 305.643 274.41 304.116 275.336 302.548 276.132 L 354.663 347.863 C 356.003 346.712 357.384 345.594 358.837 344.538 C 360.292 343.48 361.785 342.511 363.293 341.591 L 311.179 269.86 C 309.935 271.107 308.58 272.275 307.112 273.343 M 491.682 527.373 C 480.512 535.489 478.036 551.121 486.152 562.292 C 494.268 573.462 509.901 575.938 521.072 567.824 C 532.241 559.709 534.718 544.073 526.602 532.902 C 518.488 521.732 502.853 519.257 491.682 527.373 M 302.019 266.331 C 313.189 258.215 315.665 242.581 307.55 231.411 C 299.434 220.241 283.799 217.765 272.628 225.881 C 261.458 233.995 258.983 249.631 267.099 260.8 C 275.215 271.971 290.848 274.447 302.019 266.331 M 376.863 335.351 C 378.573 334.795 380.292 334.335 382.012 333.927 L 354.615 249.602 C 353.045 250.403 351.397 251.097 349.671 251.658 C 347.944 252.218 346.204 252.627 344.467 252.899 L 371.865 337.223 C 373.496 336.544 375.155 335.906 376.863 335.351 M 444.029 542.046 C 445.756 541.486 447.493 541.077 449.232 540.804 L 421.831 456.475 C 420.2 457.157 418.539 457.795 416.829 458.351 C 415.12 458.907 413.403 459.365 411.684 459.773 L 439.084 544.102 C 440.653 543.3 442.3 542.608 444.029 542.046 M 446.708 550.289 C 433.576 554.556 426.391 568.658 430.657 581.79 C 434.924 594.922 449.026 602.108 462.158 597.842 C 475.289 593.576 482.476 579.472 478.209 566.34 C 473.944 553.209 459.84 546.022 446.708 550.289 M 346.993 243.415 C 360.124 239.149 367.311 225.045 363.044 211.913 C 358.777 198.781 344.673 191.595 331.541 195.862 C 318.409 200.129 311.224 214.233 315.491 227.365 C 319.757 240.495 333.861 247.682 346.993 243.415 M 402.183 243.758 C 400.444 244.035 398.663 244.185 396.845 244.185 C 395.031 244.185 393.251 244.037 391.513 243.758 L 391.513 332.422 C 393.275 332.278 395.049 332.184 396.845 332.184 C 398.644 332.184 400.421 332.278 402.183 332.422 Z M 391.513 461.277 L 391.513 549.946 C 393.253 549.668 395.035 549.52 396.852 549.52 C 398.668 549.52 400.447 549.668 402.183 549.944 L 402.183 461.275 C 400.421 461.421 398.644 461.515 396.845 461.515 C 395.049 461.515 393.275 461.421 391.513 461.277 M 396.852 558.186 C 383.045 558.186 371.852 569.38 371.852 583.186 C 371.852 596.993 383.045 608.186 396.852 608.186 C 410.66 608.186 421.852 596.993 421.852 583.186 C 421.852 569.38 410.66 558.186 396.852 558.186 M 396.847 235.518 C 410.655 235.518 421.847 224.325 421.847 210.518 C 421.847 196.711 410.655 185.518 396.847 185.518 C 383.04 185.518 371.847 196.711 371.847 210.518 C 371.847 224.325 383.04 235.518 396.847 235.518 M 396.845 436.845 C 374.764 436.808 356.888 418.933 356.847 396.849 C 356.855 385.755 361.299 375.855 368.563 368.566 C 375.853 361.303 385.751 356.859 396.845 356.851 C 418.928 356.888 436.804 374.764 436.844 396.849 C 436.804 418.933 418.932 436.808 396.845 436.845 M 452.845 396.851 C 452.845 365.924 427.775 340.851 396.847 340.851 C 365.921 340.851 340.848 365.924 340.848 396.851 C 340.848 427.777 365.921 452.848 396.847 452.848 C 427.775 452.848 452.845 427.777 452.845 396.851 M 724.776 434.517 C 729.478 456.279 728.664 479.497 721.274 502.261 C 713.874 525.015 700.873 544.246 684.287 559.084 C 684.417 561.752 684.503 564.418 684.503 567.084 C 684.506 574.932 683.942 582.762 682.827 590.513 C 710.788 571.905 732.914 544.101 744.099 509.677 C 755.287 475.244 753.726 439.733 742.032 408.239 C 737.14 417.509 731.367 426.313 724.776 434.517 M 597.353 120.877 C 616.703 134.943 630.974 153.249 639.961 173.605 C 650.131 176.37 659.993 180.103 669.411 184.735 C 660.358 152.383 640.75 122.741 611.459 101.46 C 582.177 80.1836 547.932 70.697 514.372 72.0783 C 521.677 79.5969 528.273 87.8089 534.04 96.6156 C 556.177 98.8729 577.995 106.822 597.353 120.877 M 196.343 120.877 C 215.7 106.822 237.518 98.8742 259.656 96.6169 C 265.423 87.8116 272.016 79.5983 279.324 72.0796 C 245.764 70.697 211.519 80.1863 182.235 101.462 C 152.947 122.741 133.339 152.383 124.285 184.734 C 133.703 180.102 143.563 176.37 153.734 173.605 C 162.721 153.249 176.994 134.943 196.343 120.877 M 396.849 737.973 C 372.921 737.965 350.595 731.569 331.356 720.378 C 321.515 724.113 311.353 726.882 301.026 728.67 C 327.364 749.517 360.649 761.97 396.848 761.97 C 433.051 761.97 466.336 749.517 492.674 728.667 C 482.346 726.881 472.185 724.113 462.344 720.378 C 443.105 731.569 420.777 737.965 396.849 737.973 M 109.403 559.082 C 92.822 544.244 79.8221 525.012 72.4221 502.263 C 65.0328 479.499 64.2194 456.284 68.9208 434.525 C 62.3288 426.323 56.5541 417.517 51.6621 408.247 C 39.9702 439.74 38.4102 475.247 49.5968 509.677 C 60.7821 544.101 82.9047 571.902 110.863 590.512 C 109.749 582.76 109.186 574.929 109.187 567.084 C 109.187 564.418 109.275 561.749 109.403 559.082 M 649.566 587.618 C 644.301 620.697 626.577 651.58 597.355 672.822 C 568.121 694.05 533.277 701.358 500.192 696.145 C 467.114 690.881 436.233 673.157 414.989 643.934 C 408.713 635.289 403.672 626.15 399.792 616.714 C 398.823 616.8 397.844 616.852 396.851 616.852 C 395.859 616.852 394.88 616.8 393.909 616.714 C 390.031 626.15 384.989 635.292 378.712 643.936 C 357.467 673.157 326.588 690.883 293.511 696.15 C 260.426 701.363 225.578 694.05 196.344 672.823 C 167.121 651.58 149.402 620.7 144.137 587.621 C 138.922 554.536 146.235 519.692 167.463 490.455 C 173.746 481.813 180.882 474.197 188.656 467.593 C 188.276 466.697 187.926 465.78 187.619 464.837 C 187.312 463.896 187.059 462.947 186.839 461.996 C 176.666 461.223 166.414 459.255 156.251 455.955 C 121.895 444.78 95.4954 420.889 80.2661 391.056 C 65.0834 361.203 61.2701 325.802 72.4234 291.436 C 83.5981 257.081 107.491 230.687 137.322 215.458 C 167.178 200.273 202.576 196.463 236.942 207.617 C 247.103 210.922 256.554 215.357 265.238 220.711 C 265.972 220.073 266.731 219.451 267.532 218.87 C 268.335 218.286 269.158 217.75 269.994 217.247 C 267.586 207.333 266.292 196.977 266.288 186.291 C 266.299 150.162 280.863 117.673 304.528 93.9702 C 328.231 70.3063 360.721 55.7383 396.849 55.7277 C 432.979 55.7383 465.464 70.3063 489.166 93.9702 C 512.832 117.673 527.396 150.162 527.406 186.291 C 527.402 196.974 526.11 207.33 523.701 217.242 C 524.537 217.746 525.36 218.281 526.162 218.865 C 526.964 219.447 527.722 220.069 528.456 220.709 C 537.142 215.353 546.594 210.918 556.757 207.614 C 591.121 196.461 626.519 200.27 656.375 215.453 C 686.206 230.682 710.101 257.081 721.275 291.436 C 732.43 325.802 728.612 361.198 713.431 391.051 C 698.202 420.884 671.805 444.777 637.446 455.952 C 627.285 459.249 617.033 461.217 606.861 461.991 C 606.641 462.941 606.389 463.889 606.083 464.833 C 605.777 465.776 605.426 466.693 605.045 467.591 C 612.821 474.195 619.955 481.812 626.238 490.455 C 647.463 519.689 654.781 554.533 649.566 587.618 M 744.1 284.02 C 717.943 203.518 631.981 159.17 551.381 184.157 C 550.234 99.7796 481.494 31.7291 396.849 31.7291 C 312.203 31.7291 243.462 99.7796 242.318 184.157 C 161.719 159.17 75.7554 203.521 49.5995 284.02 C 23.4422 364.526 66.9208 450.929 146.813 478.093 C 98.1447 547.025 113.758 642.486 182.236 692.238 C 250.718 741.993 346.329 727.342 396.849 659.754 C 447.37 727.342 542.984 741.99 611.462 692.238 C 679.943 642.484 695.555 547.025 646.887 478.091 C 726.779 450.929 770.258 364.523 744.1 284.02"
     style="fill:#000000;fill-opacity:1;fill-rule:nonzero;stroke:none"
     id="path8974" />
</svg>
