<?xml version="1.0" encoding="UTF-8" standalone="no"?>
<!-- Created with Inkscape (http://www.inkscape.org/) -->

<svg
   sodipodi:docname="Ken Umebacni.svg"
   viewBox="0 0 795.03467 793.70135"
   height="793.70135"
   width="795.03467"
   id="svg10738"
   version="1.1"
   inkscape:version="1.2 (dc2aeda, 2022-05-15)"
   xmlns:inkscape="http://www.inkscape.org/namespaces/inkscape"
   xmlns:sodipodi="http://sodipodi.sourceforge.net/DTD/sodipodi-0.dtd"
   xmlns="http://www.w3.org/2000/svg"
   xmlns:svg="http://www.w3.org/2000/svg">
  <defs
     id="defs10742">
    <clipPath
       clipPathUnits="userSpaceOnUse"
       id="clipPath11267">
      <path
         d="M -538.2217,577.9479 H 58.054302 V -17.3281 H -538.2217 Z"
         id="path11269"
         style="stroke-width:0.999998" />
    </clipPath>
    <clipPath
       clipPathUnits="userSpaceOnUse"
       id="clipPath11271">
      <path
         d="M -584.1943,578.9381 H 12.081702 V -16.3379 H -584.1943 Z"
         id="path11273"
         style="stroke-width:0.999998" />
    </clipPath>
    <clipPath
       clipPathUnits="userSpaceOnUse"
       id="clipPath11275">
      <path
         d="M -586.5449,579.5026 H 9.7311024 V -15.7734 H -586.5449 Z"
         id="path11277"
         style="stroke-width:0.999998" />
    </clipPath>
    <clipPath
       clipPathUnits="userSpaceOnUse"
       id="clipPath11279">
      <path
         d="M -556.4014,578.0143 H 39.874602 V -17.2617 H -556.4014 Z"
         id="path11281"
         style="stroke-width:0.999998" />
    </clipPath>
    <clipPath
       clipPathUnits="userSpaceOnUse"
       id="clipPath11283">
      <path
         d="M -550.2637,577.3248 H 46.012302 V -17.9512 H -550.2637 Z"
         id="path11285"
         style="stroke-width:0.999998" />
    </clipPath>
    <clipPath
       clipPathUnits="userSpaceOnUse"
       id="clipPath11287">
      <path
         d="M -568.2266,575.819 H 28.049402 V -19.457 H -568.2266 Z"
         id="path11289"
         style="stroke-width:0.999998" />
    </clipPath>
    <clipPath
       clipPathUnits="userSpaceOnUse"
       id="clipPath11291">
      <path
         d="M -557.4951,577.8502 H 38.780902 V -17.4258 H -557.4951 Z"
         id="path11293"
         style="stroke-width:0.999998" />
    </clipPath>
    <clipPath
       clipPathUnits="userSpaceOnUse"
       id="clipPath11295">
      <path
         d="M -576.3691,585.5885 H 19.906902 V -9.6875 H -576.3691 Z"
         id="path11297"
         style="stroke-width:0.999998" />
    </clipPath>
    <clipPath
       clipPathUnits="userSpaceOnUse"
       id="clipPath11299">
      <path
         d="M -574.5459,585.8522 H 21.730102 V -9.4238 H -574.5459 Z"
         id="path11301"
         style="stroke-width:0.999998" />
    </clipPath>
    <clipPath
       clipPathUnits="userSpaceOnUse"
       id="clipPath11303">
      <path
         d="M -572.8174,586.1354 H 23.458602 V -9.1406 H -572.8174 Z"
         id="path11305"
         style="stroke-width:0.999998" />
    </clipPath>
    <clipPath
       clipPathUnits="userSpaceOnUse"
       id="clipPath11307">
      <path
         d="M -567.7754,585.8522 H 28.500602 V -9.4238 H -567.7754 Z"
         id="path11309"
         style="stroke-width:0.999998" />
    </clipPath>
    <clipPath
       clipPathUnits="userSpaceOnUse"
       id="clipPath11311">
      <path
         d="M -564.5732,585.8483 H 31.702802 V -9.4277 H -564.5732 Z"
         id="path11313"
         style="stroke-width:0.999998" />
    </clipPath>
    <clipPath
       clipPathUnits="userSpaceOnUse"
       id="clipPath11315">
      <path
         d="M -561.4131,585.8522 H 34.862902 V -9.4238 H -561.4131 Z"
         id="path11317"
         style="stroke-width:0.999998" />
    </clipPath>
    <clipPath
       clipPathUnits="userSpaceOnUse"
       id="clipPath11319">
      <path
         d="M -557.0645,585.8483 H 39.211502 V -9.4277 H -557.0645 Z"
         id="path11321"
         style="stroke-width:0.999998" />
    </clipPath>
    <clipPath
       clipPathUnits="userSpaceOnUse"
       id="clipPath11323">
      <path
         d="M -553.8975,585.8483 H 42.378502 V -9.4277 H -553.8975 Z"
         id="path11325"
         style="stroke-width:0.999998" />
    </clipPath>
    <clipPath
       clipPathUnits="userSpaceOnUse"
       id="clipPath11327">
      <path
         d="M -548.9834,585.8522 H 47.292602 V -9.4238 H -548.9834 Z"
         id="path11329"
         style="stroke-width:0.999998" />
    </clipPath>
    <clipPath
       clipPathUnits="userSpaceOnUse"
       id="clipPath11331">
      <path
         d="M -545.417,584.5729 H 50.859002 V -10.7031 H -545.417 Z"
         id="path11333"
         style="stroke-width:0.999998" />
    </clipPath>
    <clipPath
       clipPathUnits="userSpaceOnUse"
       id="clipPath11335">
      <path
         d="M -542.9326,584.5729 H 53.343402 V -10.7031 H -542.9326 Z"
         id="path11337"
         style="stroke-width:0.999998" />
    </clipPath>
    <clipPath
       clipPathUnits="userSpaceOnUse"
       id="clipPath11339">
      <path
         d="M -540.8213,585.8483 H 55.454702 V -9.4277 H -540.8213 Z"
         id="path11341"
         style="stroke-width:0.999998" />
    </clipPath>
    <clipPath
       clipPathUnits="userSpaceOnUse"
       id="clipPath11343">
      <path
         d="M -536.6982,584.5729 H 59.577802 V -10.7031 H -536.6982 Z"
         id="path11345"
         style="stroke-width:0.999998" />
    </clipPath>
    <clipPath
       clipPathUnits="userSpaceOnUse"
       id="clipPath11347">
      <path
         d="M -528.0898,575.3815 H 68.186202 V -19.8945 H -528.0898 Z"
         id="path11349"
         style="stroke-width:0.999998" />
    </clipPath>
    <clipPath
       clipPathUnits="userSpaceOnUse"
       id="clipPath11351">
      <path
         d="M -531.1924,581.5885 H 65.083602 V -13.6875 H -531.1924 Z"
         id="path11353"
         style="stroke-width:0.999998" />
    </clipPath>
    <clipPath
       clipPathUnits="userSpaceOnUse"
       id="clipPath11649">
      <path
         d="m -356.7158,378.9537 h 596.276 v -595.276 h -596.276 z"
         id="path11651"
         style="stroke-width:0.999998" />
    </clipPath>
    <clipPath
       clipPathUnits="userSpaceOnUse"
       id="clipPath11655">
      <path
         d="m -487.4736,328.4947 h 596.276 v -595.276 h -596.276 z"
         id="path11657"
         style="stroke-width:0.999998" />
    </clipPath>
    <clipPath
       clipPathUnits="userSpaceOnUse"
       id="clipPath11661">
      <path
         d="m -297.6377,197.1285 h 596.276 v -595.276 h -596.276 z"
         id="path11663"
         style="stroke-width:0.999998" />
    </clipPath>
    <clipPath
       clipPathUnits="userSpaceOnUse"
       id="clipPath11667">
      <path
         d="m -342.4307,500.7819 h 596.276 v -595.276 h -596.276 z"
         id="path11669"
         style="stroke-width:0.999998" />
    </clipPath>
    <clipPath
       clipPathUnits="userSpaceOnUse"
       id="clipPath11673">
      <path
         d="m -162.1934,161.0934 h 596.276 v -595.276 h -596.276 z"
         id="path11675"
         style="stroke-width:0.999998" />
    </clipPath>
    <clipPath
       clipPathUnits="userSpaceOnUse"
       id="clipPath11679">
      <path
         d="m -349.9355,297.6383 h 596.276 v -595.276 h -596.276 z"
         id="path11681"
         style="stroke-width:0.999998" />
    </clipPath>
    <clipPath
       clipPathUnits="userSpaceOnUse"
       id="clipPath11685">
      <path
         d="m -380.8037,106.9625 h 596.276 v -595.276 h -596.276 z"
         id="path11687"
         style="stroke-width:0.999998" />
    </clipPath>
    <clipPath
       clipPathUnits="userSpaceOnUse"
       id="clipPath11691">
      <path
         d="m -238.5586,378.9537 h 596.276 v -595.276 h -596.276 z"
         id="path11693"
         style="stroke-width:0.999998" />
    </clipPath>
    <clipPath
       clipPathUnits="userSpaceOnUse"
       id="clipPath11697">
      <path
         d="m -326.9551,487.7174 h 596.276 v -595.276 h -596.276 z"
         id="path11699"
         style="stroke-width:0.999998" />
    </clipPath>
    <clipPath
       clipPathUnits="userSpaceOnUse"
       id="clipPath11703">
      <path
         d="m -393.2295,266.5797 h 596.276 v -595.276 h -596.276 z"
         id="path11705"
         style="stroke-width:0.999998" />
    </clipPath>
    <clipPath
       clipPathUnits="userSpaceOnUse"
       id="clipPath11709">
      <path
         d="m -141.9941,159.6207 h 596.276 v -595.276 h -596.276 z"
         id="path11711"
         style="stroke-width:0.999998" />
    </clipPath>
    <clipPath
       clipPathUnits="userSpaceOnUse"
       id="clipPath11715">
      <path
         d="m -125.9209,384.2584 h 596.276 v -595.276 h -596.276 z"
         id="path11717"
         style="stroke-width:0.999998" />
    </clipPath>
    <clipPath
       clipPathUnits="userSpaceOnUse"
       id="clipPath11721">
      <path
         d="m -118.2783,403.0143 h 596.276 v -595.276 h -596.276 z"
         id="path11723"
         style="stroke-width:0.999998" />
    </clipPath>
    <clipPath
       clipPathUnits="userSpaceOnUse"
       id="clipPath11727">
      <path
         d="m -202.0469,266.5797 h 596.276 v -595.276 h -596.276 z"
         id="path11729"
         style="stroke-width:0.999998" />
    </clipPath>
    <clipPath
       clipPathUnits="userSpaceOnUse"
       id="clipPath11733">
      <path
         d="m -385.6455,126.6285 h 596.276 v -595.276 h -596.276 z"
         id="path11735"
         style="stroke-width:0.999998" />
    </clipPath>
    <clipPath
       clipPathUnits="userSpaceOnUse"
       id="clipPath11739">
      <path
         d="M -504.6807,317.8131 H 91.595305 v -595.276 H -504.6807 Z"
         id="path11741"
         style="stroke-width:0.999998" />
    </clipPath>
  </defs>
  <sodipodi:namedview
     id="namedview10740"
     pagecolor="#ffffff"
     bordercolor="#000000"
     borderopacity="0.25"
     inkscape:showpageshadow="2"
     inkscape:pageopacity="0.0"
     inkscape:pagecheckerboard="0"
     inkscape:deskcolor="#d1d1d1"
     showgrid="false"
     inkscape:zoom="0.29734106"
     inkscape:cx="-215.24105"
     inkscape:cy="396.85068"
     inkscape:window-width="1419"
     inkscape:window-height="456"
     inkscape:window-x="1920"
     inkscape:window-y="142"
     inkscape:window-maximized="0"
     inkscape:current-layer="svg10738">
    <inkscape:page
       x="0"
       y="0"
       id="page10744"
       width="795.03467"
       height="793.70135" />
  </sodipodi:namedview>
  <path
     d="M 466.581 396.851 C 466.581 435.363 435.362 466.581 396.851 466.581 C 358.34 466.581 327.12 435.363 327.12 396.851 C 327.12 358.34 358.34 327.122 396.851 327.122 C 435.362 327.122 466.581 358.34 466.581 396.851"
     style="fill:#000000;fill-opacity:1;fill-rule:nonzero;stroke:none"
     id="path10858" />
  <path
     d="M 507.738 142.617 C 507.738 203.857 458.093 253.505 396.85 253.505 C 335.609 253.505 285.963 203.857 285.963 142.617 C 285.963 81.3772 335.609 31.7293 396.85 31.7293 C 458.093 31.7293 507.738 81.3772 507.738 142.617"
     style="fill:#000000;fill-opacity:1;fill-rule:nonzero;stroke:none"
     id="path10862" />
  <path
     d="M 216.258 214.791 C 264.465 240.499 307.954 292.531 342.739 339.228 C 345.128 336.991 347.662 334.861 350.378 332.887 C 353.095 330.913 355.902 329.163 358.768 327.583 C 325.104 280.067 289.06 222.63 279.507 168.838 C 271.001 120.945 272.963 88.138 275.931 71.0154 L 182.237 101.458 L 124.329 181.16 C 141.53 183.63 173.338 191.903 216.258 214.791"
     style="fill:#000000;fill-opacity:1;fill-rule:nonzero;stroke:none"
     id="path10866" />
  <path
     d="M 396.85 262.838 C 391.069 262.838 385.386 262.421 379.822 261.633 L 385.079 318.666 C 388.921 318.093 392.849 317.789 396.85 317.789 C 400.851 317.789 404.779 318.093 408.621 318.666 L 413.878 261.633 C 408.314 262.421 402.631 262.838 396.85 262.838"
     style="fill:#000000;fill-opacity:1;fill-rule:nonzero;stroke:none"
     id="path10870" />
  <path
     d="M 189.325 212.828 C 247.568 231.752 279.443 294.309 260.519 352.554 C 241.594 410.798 179.034 442.673 120.793 423.75 C 62.5493 404.826 30.6734 342.265 49.5973 284.022 C 68.5226 225.779 131.081 193.904 189.325 212.828"
     style="fill:#000000;fill-opacity:1;fill-rule:nonzero;stroke:none"
     id="path10874" />
  <path
     d="M 167.895 512.345 C 207.242 474.441 270.164 449.16 325.327 430.509 C 323.936 427.543 322.695 424.479 321.656 421.285 C 320.619 418.091 319.82 414.879 319.204 411.665 C 263.612 428.999 197.847 445.531 143.736 437.993 C 95.5565 431.283 64.9633 419.277 49.5953 411.163 L 49.5953 509.681 L 107.503 589.383 C 115.167 573.788 132.863 546.093 167.895 512.345"
     style="fill:#000000;fill-opacity:1;fill-rule:nonzero;stroke:none"
     id="path10878" />
  <path
     d="M 269.396 355.44 C 267.609 360.937 265.456 366.213 262.987 371.26 L 318.855 383.885 C 319.495 380.055 320.421 376.227 321.656 372.419 C 322.893 368.615 324.396 364.971 326.129 361.497 L 273.511 338.872 C 272.541 344.409 271.183 349.943 269.396 355.44"
     style="fill:#000000;fill-opacity:1;fill-rule:nonzero;stroke:none"
     id="path10882" />
  <path
     d="M 157.704 537.352 C 193.699 487.808 263.046 476.824 312.592 512.821 C 362.137 548.819 373.121 618.164 337.125 667.709 C 301.128 717.253 231.781 728.237 182.235 692.242 C 132.689 656.242 121.708 586.896 157.704 537.352"
     style="fill:#000000;fill-opacity:1;fill-rule:nonzero;stroke:none"
     id="path10886" />
  <path
     d="M 435.94 650.29 C 412.049 601.157 407.449 533.501 406.757 475.274 C 403.508 475.681 400.207 475.916 396.851 475.916 C 393.492 475.916 390.189 475.681 386.944 475.274 C 386.249 533.504 381.649 601.157 357.76 650.29 C 336.491 694.041 315.619 719.426 303.154 731.532 L 396.849 761.978 L 490.545 731.532 C 478.08 719.426 457.209 694.038 435.94 650.29"
     style="fill:#000000;fill-opacity:1;fill-rule:nonzero;stroke:none"
     id="path10890" />
  <path
     d="M 318.078 505.272 C 322.757 508.671 327.106 512.348 331.146 516.256 L 360.417 467.024 C 356.971 465.231 353.615 463.168 350.378 460.816 C 347.141 458.465 344.141 455.908 341.371 453.187 L 303.595 496.239 C 308.559 498.871 313.402 501.873 318.078 505.272"
     style="fill:#000000;fill-opacity:1;fill-rule:nonzero;stroke:none"
     id="path10894" />
  <path
     d="M 456.574 667.709 C 420.578 618.168 431.561 548.819 481.106 512.821 C 530.652 476.824 599.999 487.808 635.995 537.352 C 671.991 586.897 661.008 656.245 611.463 692.242 C 561.916 728.24 492.57 717.253 456.574 667.709"
     style="fill:#000000;fill-opacity:1;fill-rule:nonzero;stroke:none"
     id="path10898" />
  <path
     d="M 649.965 437.993 C 595.854 445.529 530.088 428.998 474.496 411.662 C 473.88 414.878 473.083 418.092 472.045 421.285 C 471.007 424.477 469.764 427.545 468.375 430.506 C 523.539 449.16 586.46 474.441 625.806 512.345 C 660.84 546.091 678.536 573.787 686.197 589.383 L 744.103 509.683 L 744.103 411.165 C 728.737 419.277 698.144 431.282 649.965 437.993"
     style="fill:#000000;fill-opacity:1;fill-rule:nonzero;stroke:none"
     id="path10902" />
  <path
     d="M 475.621 505.272 C 480.3 501.873 485.141 498.871 490.105 496.239 L 452.329 453.187 C 449.558 455.911 446.56 458.463 443.322 460.816 C 440.086 463.168 436.728 465.231 433.284 467.024 L 462.554 516.256 C 466.593 512.348 470.944 508.668 475.621 505.272"
     style="fill:#000000;fill-opacity:1;fill-rule:nonzero;stroke:none"
     id="path10906" />
  <path
     d="M 672.908 423.751 C 614.665 442.675 552.106 410.8 533.182 352.557 C 514.256 294.313 546.134 231.753 604.375 212.829 C 662.617 193.906 725.179 225.779 744.102 284.023 C 763.028 342.269 731.151 404.827 672.908 423.751"
     style="fill:#000000;fill-opacity:1;fill-rule:nonzero;stroke:none"
     id="path10910" />
  <path
     d="M 514.194 168.838 C 504.642 222.63 468.597 280.07 434.932 327.583 C 437.798 329.163 440.608 330.914 443.324 332.887 C 446.04 334.862 448.573 336.991 450.959 339.228 C 485.747 292.528 529.235 240.499 577.443 214.791 C 620.364 191.901 652.171 183.63 669.372 181.163 L 611.466 101.461 L 517.77 71.0156 C 520.737 88.1382 522.699 120.945 514.194 168.838"
     style="fill:#000000;fill-opacity:1;fill-rule:nonzero;stroke:none"
     id="path10914" />
  <path
     d="M 524.306 355.44 C 522.518 349.94 521.161 344.409 520.19 338.872 L 467.571 361.497 C 469.305 364.973 470.806 368.615 472.045 372.419 C 473.279 376.224 474.206 380.057 474.846 383.885 L 530.714 371.26 C 528.243 366.213 526.09 360.937 524.306 355.44"
     style="fill:#000000;fill-opacity:1;fill-rule:nonzero;stroke:none"
     id="path10918" />
</svg>
