<?xml version="1.0" encoding="UTF-8" standalone="no"?>
<!-- Created with Inkscape (http://www.inkscape.org/) -->

<svg
   sodipodi:docname="Maruni Umebachi.svg"
   viewBox="0 0 793.70135 793.70135"
   height="793.70135"
   width="793.70135"
   id="svg5602"
   version="1.1"
   inkscape:version="1.2 (dc2aeda, 2022-05-15)"
   xmlns:inkscape="http://www.inkscape.org/namespaces/inkscape"
   xmlns:sodipodi="http://sodipodi.sourceforge.net/DTD/sodipodi-0.dtd"
   xmlns="http://www.w3.org/2000/svg"
   xmlns:svg="http://www.w3.org/2000/svg">
  <defs
     id="defs5606">
    <clipPath
       clipPathUnits="userSpaceOnUse"
       id="clipPath6083">
      <path
         d="M -538.2217,577.9479 H 57.054297 V -17.3281 H -538.2217 Z"
         id="path6085"
         style="stroke-width:0.999998" />
    </clipPath>
    <clipPath
       clipPathUnits="userSpaceOnUse"
       id="clipPath6087">
      <path
         d="M -584.1943,578.9381 H 11.081697 V -16.3379 H -584.1943 Z"
         id="path6089"
         style="stroke-width:0.999998" />
    </clipPath>
    <clipPath
       clipPathUnits="userSpaceOnUse"
       id="clipPath6091">
      <path
         d="M -586.5449,579.5026 H 8.7310974 V -15.7734 H -586.5449 Z"
         id="path6093"
         style="stroke-width:0.999998" />
    </clipPath>
    <clipPath
       clipPathUnits="userSpaceOnUse"
       id="clipPath6095">
      <path
         d="M -556.4014,578.0143 H 38.874597 V -17.2617 H -556.4014 Z"
         id="path6097"
         style="stroke-width:0.999998" />
    </clipPath>
    <clipPath
       clipPathUnits="userSpaceOnUse"
       id="clipPath6099">
      <path
         d="M -550.2637,577.3248 H 45.012297 V -17.9512 H -550.2637 Z"
         id="path6101"
         style="stroke-width:0.999998" />
    </clipPath>
    <clipPath
       clipPathUnits="userSpaceOnUse"
       id="clipPath6103">
      <path
         d="M -568.2266,575.819 H 27.049397 V -19.457 H -568.2266 Z"
         id="path6105"
         style="stroke-width:0.999998" />
    </clipPath>
    <clipPath
       clipPathUnits="userSpaceOnUse"
       id="clipPath6107">
      <path
         d="M -557.4951,577.8502 H 37.780897 V -17.4258 H -557.4951 Z"
         id="path6109"
         style="stroke-width:0.999998" />
    </clipPath>
    <clipPath
       clipPathUnits="userSpaceOnUse"
       id="clipPath6111">
      <path
         d="M -576.3691,585.5885 H 18.906897 V -9.6875 H -576.3691 Z"
         id="path6113"
         style="stroke-width:0.999998" />
    </clipPath>
    <clipPath
       clipPathUnits="userSpaceOnUse"
       id="clipPath6115">
      <path
         d="M -574.5459,585.8522 H 20.730097 V -9.4238 H -574.5459 Z"
         id="path6117"
         style="stroke-width:0.999998" />
    </clipPath>
    <clipPath
       clipPathUnits="userSpaceOnUse"
       id="clipPath6119">
      <path
         d="M -572.8174,586.1354 H 22.458597 V -9.1406 H -572.8174 Z"
         id="path6121"
         style="stroke-width:0.999998" />
    </clipPath>
    <clipPath
       clipPathUnits="userSpaceOnUse"
       id="clipPath6123">
      <path
         d="M -567.7754,585.8522 H 27.500597 V -9.4238 H -567.7754 Z"
         id="path6125"
         style="stroke-width:0.999998" />
    </clipPath>
    <clipPath
       clipPathUnits="userSpaceOnUse"
       id="clipPath6127">
      <path
         d="M -564.5732,585.8483 H 30.702797 V -9.4277 H -564.5732 Z"
         id="path6129"
         style="stroke-width:0.999998" />
    </clipPath>
    <clipPath
       clipPathUnits="userSpaceOnUse"
       id="clipPath6131">
      <path
         d="M -561.4131,585.8522 H 33.862897 V -9.4238 H -561.4131 Z"
         id="path6133"
         style="stroke-width:0.999998" />
    </clipPath>
    <clipPath
       clipPathUnits="userSpaceOnUse"
       id="clipPath6135">
      <path
         d="M -557.0645,585.8483 H 38.211497 V -9.4277 H -557.0645 Z"
         id="path6137"
         style="stroke-width:0.999998" />
    </clipPath>
    <clipPath
       clipPathUnits="userSpaceOnUse"
       id="clipPath6139">
      <path
         d="M -553.8975,585.8483 H 41.378497 V -9.4277 H -553.8975 Z"
         id="path6141"
         style="stroke-width:0.999998" />
    </clipPath>
    <clipPath
       clipPathUnits="userSpaceOnUse"
       id="clipPath6143">
      <path
         d="M -548.9834,585.8522 H 46.292597 V -9.4238 H -548.9834 Z"
         id="path6145"
         style="stroke-width:0.999998" />
    </clipPath>
    <clipPath
       clipPathUnits="userSpaceOnUse"
       id="clipPath6147">
      <path
         d="M -545.417,584.5729 H 49.858997 V -10.7031 H -545.417 Z"
         id="path6149"
         style="stroke-width:0.999998" />
    </clipPath>
    <clipPath
       clipPathUnits="userSpaceOnUse"
       id="clipPath6151">
      <path
         d="M -542.9326,584.5729 H 52.343397 V -10.7031 H -542.9326 Z"
         id="path6153"
         style="stroke-width:0.999998" />
    </clipPath>
    <clipPath
       clipPathUnits="userSpaceOnUse"
       id="clipPath6155">
      <path
         d="M -540.8213,585.8483 H 54.454697 V -9.4277 H -540.8213 Z"
         id="path6157"
         style="stroke-width:0.999998" />
    </clipPath>
    <clipPath
       clipPathUnits="userSpaceOnUse"
       id="clipPath6159">
      <path
         d="M -536.6982,584.5729 H 58.577797 V -10.7031 H -536.6982 Z"
         id="path6161"
         style="stroke-width:0.999998" />
    </clipPath>
    <clipPath
       clipPathUnits="userSpaceOnUse"
       id="clipPath6163">
      <path
         d="M -528.0898,575.3815 H 67.186197 V -19.8945 H -528.0898 Z"
         id="path6165"
         style="stroke-width:0.999998" />
    </clipPath>
    <clipPath
       clipPathUnits="userSpaceOnUse"
       id="clipPath6167">
      <path
         d="M -531.1924,581.5885 H 64.083597 V -13.6875 H -531.1924 Z"
         id="path6169"
         style="stroke-width:0.999998" />
    </clipPath>
    <clipPath
       clipPathUnits="userSpaceOnUse"
       id="clipPath6561">
      <path
         d="m -331.9414,297.6388 h 595.276 v -595.276 h -595.276 z"
         id="path6563"
         style="stroke-width:0.999998" />
    </clipPath>
    <clipPath
       clipPathUnits="userSpaceOnUse"
       id="clipPath6567">
      <path
         d="m -313.0967,334.0348 h 595.276 v -595.276 h -595.276 z"
         id="path6569"
         style="stroke-width:0.999998" />
    </clipPath>
    <clipPath
       clipPathUnits="userSpaceOnUse"
       id="clipPath6573">
      <path
         d="m -267.8242,271.6832 h 595.276 v -595.276 h -595.276 z"
         id="path6575"
         style="stroke-width:0.999998" />
    </clipPath>
    <clipPath
       clipPathUnits="userSpaceOnUse"
       id="clipPath6579">
      <path
         d="m -288.7852,336.1774 h 595.276 v -595.276 h -595.276 z"
         id="path6581"
         style="stroke-width:0.999998" />
    </clipPath>
    <clipPath
       clipPathUnits="userSpaceOnUse"
       id="clipPath6585">
      <path
         d="m -267.8242,323.6012 h 595.276 v -595.276 h -595.276 z"
         id="path6587"
         style="stroke-width:0.999998" />
    </clipPath>
    <clipPath
       clipPathUnits="userSpaceOnUse"
       id="clipPath6591">
      <path
         d="m -306.4883,259.1007 h 595.276 v -595.276 h -595.276 z"
         id="path6593"
         style="stroke-width:0.999998" />
    </clipPath>
    <clipPath
       clipPathUnits="userSpaceOnUse"
       id="clipPath6597">
      <path
         d="m -441.6816,365.653 h 595.276 v -595.276 h -595.276 z"
         id="path6599"
         style="stroke-width:0.999998" />
    </clipPath>
    <clipPath
       clipPathUnits="userSpaceOnUse"
       id="clipPath6603">
      <path
         d="m -406.8359,181.6637 h 595.276 v -595.276 h -595.276 z"
         id="path6605"
         style="stroke-width:0.999998" />
    </clipPath>
    <clipPath
       clipPathUnits="userSpaceOnUse"
       id="clipPath6609">
      <path
         d="m -277.4658,455.649 h 595.276 v -595.276 h -595.276 z"
         id="path6611"
         style="stroke-width:0.999998" />
    </clipPath>
    <clipPath
       clipPathUnits="userSpaceOnUse"
       id="clipPath6615">
      <path
         d="m -337.0098,294.1232 h 595.276 v -595.276 h -595.276 z"
         id="path6617"
         style="stroke-width:0.999998" />
    </clipPath>
    <clipPath
       clipPathUnits="userSpaceOnUse"
       id="clipPath6621">
      <path
         d="m -258.2568,301.1237 h 595.276 v -595.276 h -595.276 z"
         id="path6623"
         style="stroke-width:0.999998" />
    </clipPath>
    <clipPath
       clipPathUnits="userSpaceOnUse"
       id="clipPath6627">
      <path
         d="m -331.5488,317.9674 h 595.276 v -595.276 h -595.276 z"
         id="path6629"
         style="stroke-width:0.999998" />
    </clipPath>
    <clipPath
       clipPathUnits="userSpaceOnUse"
       id="clipPath6633">
      <path
         d="m -327.459,271.6832 h 595.276 v -595.276 h -595.276 z"
         id="path6635"
         style="stroke-width:0.999998" />
    </clipPath>
    <clipPath
       clipPathUnits="userSpaceOnUse"
       id="clipPath6639">
      <path
         d="m -221.084,157.9493 h 595.276 v -595.276 h -595.276 z"
         id="path6641"
         style="stroke-width:0.999998" />
    </clipPath>
    <clipPath
       clipPathUnits="userSpaceOnUse"
       id="clipPath6645">
      <path
         d="m -141.1289,327.2809 h 595.276 v -595.276 h -595.276 z"
         id="path6647"
         style="stroke-width:0.999998" />
    </clipPath>
    <clipPath
       clipPathUnits="userSpaceOnUse"
       id="clipPath6651">
      <path
         d="m -263.7305,277.3082 h 595.276 v -595.276 h -595.276 z"
         id="path6653"
         style="stroke-width:0.999998" />
    </clipPath>
    <clipPath
       clipPathUnits="userSpaceOnUse"
       id="clipPath6657">
      <path
         d="m -297.6387,521.4791 h 595.276 V -73.796897 h -595.276 z"
         id="path6659"
         style="stroke-width:0.999998" />
    </clipPath>
    <clipPath
       clipPathUnits="userSpaceOnUse"
       id="clipPath6663">
      <path
         d="m -263.3379,297.6398 h 595.276 v -595.276 h -595.276 z"
         id="path6665"
         style="stroke-width:0.999998" />
    </clipPath>
  </defs>
  <sodipodi:namedview
     id="namedview5604"
     pagecolor="#ffffff"
     bordercolor="#000000"
     borderopacity="0.25"
     inkscape:showpageshadow="2"
     inkscape:pageopacity="0.0"
     inkscape:pagecheckerboard="0"
     inkscape:deskcolor="#d1d1d1"
     showgrid="false"
     inkscape:zoom="0.29734106"
     inkscape:cx="-215.24105"
     inkscape:cy="396.85068"
     inkscape:window-width="1419"
     inkscape:window-height="456"
     inkscape:window-x="1920"
     inkscape:window-y="142"
     inkscape:window-maximized="0"
     inkscape:current-layer="svg5602">
    <inkscape:page
       x="0"
       y="0"
       id="page5608"
       width="793.70135"
       height="793.70135" />
  </sodipodi:namedview>
  <path
     d="M 442.589 396.852 C 442.589 422.112 422.11 442.585 396.852 442.585 C 371.597 442.585 351.117 422.112 351.117 396.852 C 351.117 371.595 371.597 351.12 396.852 351.12 C 422.11 351.12 442.589 371.595 442.589 396.852"
     style="fill:#000000;fill-opacity:1;fill-rule:nonzero;stroke:none"
     id="path5622" />
  <path
     d="M 357.099 362.244 C 362.299 356.272 368.812 351.493 376.2 348.347 L 367.558 321.736 L 342.224 321.736 L 334.42 345.716 Z"
     style="fill:#000000;fill-opacity:1;fill-rule:nonzero;stroke:none"
     id="path5626" />
  <path
     d="M 417.462 445.38 L 425.247 469.26 L 456.902 446.219 L 436.589 431.485 C 431.375 437.459 424.865 442.237 417.462 445.38"
     style="fill:#000000;fill-opacity:1;fill-rule:nonzero;stroke:none"
     id="path5630" />
  <path
     d="M 351.641 369.744 L 331.398 355.061 L 319.326 392.197 L 344.35 392.161 C 345.078 384.028 347.644 376.392 351.641 369.744"
     style="fill:#000000;fill-opacity:1;fill-rule:nonzero;stroke:none"
     id="path5634" />
  <path
     d="M 442.065 423.957 L 464.832 440.442 L 485.244 425.645 L 477.385 401.482 L 449.354 401.498 C 448.644 409.66 446.07 417.284 442.065 423.957"
     style="fill:#000000;fill-opacity:1;fill-rule:nonzero;stroke:none"
     id="path5638" />
  <path
     d="M 344.342 401.498 L 316.259 401.463 L 308.463 425.645 L 328.903 440.493 L 351.661 424.002 C 347.622 417.315 345.063 409.697 344.342 401.498"
     style="fill:#000000;fill-opacity:1;fill-rule:nonzero;stroke:none"
     id="path5642" />
  <path
     d="M 449.346 392.164 L 474.365 392.18 L 462.307 355.072 L 442.089 369.791 C 446.046 376.419 448.627 384.065 449.346 392.164"
     style="fill:#000000;fill-opacity:1;fill-rule:nonzero;stroke:none"
     id="path5646" />
  <path
     d="M 385.047 448.237 L 376.36 474.977 L 396.852 489.865 L 417.354 474.994 L 408.607 448.245 C 404.842 449.1 400.878 449.561 396.852 449.561 C 392.795 449.561 388.842 449.104 385.047 448.237"
     style="fill:#000000;fill-opacity:1;fill-rule:nonzero;stroke:none"
     id="path5650" />
  <path
     d="M 357.099 431.468 L 336.76 446.22 L 368.451 469.225 L 376.22 445.364 C 368.818 442.221 362.308 437.444 357.099 431.468"
     style="fill:#000000;fill-opacity:1;fill-rule:nonzero;stroke:none"
     id="path5654" />
  <path
     d="M 408.651 345.468 L 416.344 321.741 L 377.359 321.741 L 385.062 345.469 C 388.85 344.604 392.806 344.14 396.851 344.137 C 400.904 344.14 404.86 344.599 408.651 345.468"
     style="fill:#000000;fill-opacity:1;fill-rule:nonzero;stroke:none"
     id="path5658" />
  <path
     d="M 436.612 362.244 L 459.284 345.788 L 451.481 321.736 L 426.14 321.736 L 417.527 348.351 C 424.892 351.503 431.42 356.281 436.612 362.244"
     style="fill:#000000;fill-opacity:1;fill-rule:nonzero;stroke:none"
     id="path5662" />
  <path
     d="M 396.852 695.305 C 232.022 695.305 98.3994 561.681 98.3994 396.851 C 98.3994 232.019 232.022 98.3958 396.852 98.3958 C 561.682 98.3958 695.305 232.019 695.305 396.851 C 695.305 561.681 561.682 695.305 396.852 695.305 M 396.852 31.7293 C 195.202 31.7293 31.7302 195.201 31.7302 396.852 C 31.7302 598.503 195.202 761.974 396.852 761.974 C 598.503 761.974 761.974 598.503 761.974 396.852 C 761.974 195.201 598.503 31.7293 396.852 31.7293"
     style="fill:#000000;fill-opacity:1;fill-rule:nonzero;stroke:none"
     id="path5666" />
  <path
     d="M 294.779 210.599 C 294.782 154.226 340.484 108.526 396.852 108.523 C 453.225 108.526 498.921 154.226 498.924 210.599 C 498.921 266.98 453.223 312.672 396.852 312.676 C 340.484 312.672 294.782 266.98 294.779 210.599"
     style="fill:#000000;fill-opacity:1;fill-rule:nonzero;stroke:none"
     id="path5670" />
  <path
     d="M 188.172 436.375 C 134.559 418.952 105.219 361.365 122.635 307.755 C 140.059 254.141 197.643 224.804 251.256 242.221 C 304.877 259.646 334.212 317.229 316.796 370.842 C 299.373 424.448 241.795 453.794 188.172 436.375"
     style="fill:#000000;fill-opacity:1;fill-rule:nonzero;stroke:none"
     id="path5674" />
  <path
     d="M 369.954 607.532 C 336.815 653.137 272.981 663.245 227.376 630.116 C 181.77 596.976 171.664 533.146 204.797 487.538 C 237.938 441.926 301.768 431.822 347.374 464.952 C 392.974 498.087 403.091 561.916 369.954 607.532"
     style="fill:#000000;fill-opacity:1;fill-rule:nonzero;stroke:none"
     id="path5678" />
  <path
     d="M 588.909 487.537 C 622.042 533.145 611.929 596.981 566.328 630.115 C 520.717 663.247 456.888 653.134 423.751 607.53 C 390.612 561.915 400.727 498.088 446.331 464.952 C 491.935 431.824 555.766 441.925 588.909 487.537"
     style="fill:#000000;fill-opacity:1;fill-rule:nonzero;stroke:none"
     id="path5682" />
  <path
     d="M 542.448 242.218 C 596.063 224.801 653.648 254.145 671.069 307.753 C 688.485 361.37 659.142 418.95 605.532 436.372 C 551.909 453.793 494.331 424.451 476.908 370.838 C 459.494 317.23 488.827 259.645 542.448 242.218"
     style="fill:#000000;fill-opacity:1;fill-rule:nonzero;stroke:none"
     id="path5686" />
  <path
     d="M 351.117 396.853 C 351.117 371.593 371.594 351.12 396.852 351.12 C 422.109 351.12 442.589 371.593 442.589 396.853 C 442.589 422.109 422.109 442.585 396.852 442.585 C 371.594 442.585 351.117 422.109 351.117 396.853"
     style="fill:#000000;fill-opacity:1;fill-rule:nonzero;stroke:none"
     id="path5690" />
</svg>
