<?xml version="1.0" encoding="UTF-8" standalone="no"?>
<!-- Created with Inkscape (http://www.inkscape.org/) -->

<svg
   sodipodi:docname="Mitsumori Nioi Ume.svg"
   viewBox="0 0 795.03467 793.70135"
   height="793.70135"
   width="795.03467"
   id="svg7024"
   version="1.1"
   inkscape:version="1.2 (dc2aeda, 2022-05-15)"
   xmlns:inkscape="http://www.inkscape.org/namespaces/inkscape"
   xmlns:sodipodi="http://sodipodi.sourceforge.net/DTD/sodipodi-0.dtd"
   xmlns="http://www.w3.org/2000/svg"
   xmlns:svg="http://www.w3.org/2000/svg">
  <defs
     id="defs7028">
    <clipPath
       clipPathUnits="userSpaceOnUse"
       id="clipPath7469">
      <path
         d="M -538.2217,577.9479 H 58.054302 V -17.3281 H -538.2217 Z"
         id="path7471"
         style="stroke-width:0.999998" />
    </clipPath>
    <clipPath
       clipPathUnits="userSpaceOnUse"
       id="clipPath7473">
      <path
         d="M -584.1943,578.9381 H 12.081702 V -16.3379 H -584.1943 Z"
         id="path7475"
         style="stroke-width:0.999998" />
    </clipPath>
    <clipPath
       clipPathUnits="userSpaceOnUse"
       id="clipPath7477">
      <path
         d="M -586.5449,579.5026 H 9.7311024 V -15.7734 H -586.5449 Z"
         id="path7479"
         style="stroke-width:0.999998" />
    </clipPath>
    <clipPath
       clipPathUnits="userSpaceOnUse"
       id="clipPath7481">
      <path
         d="M -556.4014,578.0143 H 39.874602 V -17.2617 H -556.4014 Z"
         id="path7483"
         style="stroke-width:0.999998" />
    </clipPath>
    <clipPath
       clipPathUnits="userSpaceOnUse"
       id="clipPath7485">
      <path
         d="M -550.2637,577.3248 H 46.012302 V -17.9512 H -550.2637 Z"
         id="path7487"
         style="stroke-width:0.999998" />
    </clipPath>
    <clipPath
       clipPathUnits="userSpaceOnUse"
       id="clipPath7489">
      <path
         d="M -568.2266,575.819 H 28.049402 V -19.457 H -568.2266 Z"
         id="path7491"
         style="stroke-width:0.999998" />
    </clipPath>
    <clipPath
       clipPathUnits="userSpaceOnUse"
       id="clipPath7493">
      <path
         d="M -557.4951,577.8502 H 38.780902 V -17.4258 H -557.4951 Z"
         id="path7495"
         style="stroke-width:0.999998" />
    </clipPath>
    <clipPath
       clipPathUnits="userSpaceOnUse"
       id="clipPath7497">
      <path
         d="M -576.3691,585.5885 H 19.906902 V -9.6875 H -576.3691 Z"
         id="path7499"
         style="stroke-width:0.999998" />
    </clipPath>
    <clipPath
       clipPathUnits="userSpaceOnUse"
       id="clipPath7501">
      <path
         d="M -574.5459,585.8522 H 21.730102 V -9.4238 H -574.5459 Z"
         id="path7503"
         style="stroke-width:0.999998" />
    </clipPath>
    <clipPath
       clipPathUnits="userSpaceOnUse"
       id="clipPath7505">
      <path
         d="M -572.8174,586.1354 H 23.458602 V -9.1406 H -572.8174 Z"
         id="path7507"
         style="stroke-width:0.999998" />
    </clipPath>
    <clipPath
       clipPathUnits="userSpaceOnUse"
       id="clipPath7509">
      <path
         d="M -567.7754,585.8522 H 28.500602 V -9.4238 H -567.7754 Z"
         id="path7511"
         style="stroke-width:0.999998" />
    </clipPath>
    <clipPath
       clipPathUnits="userSpaceOnUse"
       id="clipPath7513">
      <path
         d="M -564.5732,585.8483 H 31.702802 V -9.4277 H -564.5732 Z"
         id="path7515"
         style="stroke-width:0.999998" />
    </clipPath>
    <clipPath
       clipPathUnits="userSpaceOnUse"
       id="clipPath7517">
      <path
         d="M -561.4131,585.8522 H 34.862902 V -9.4238 H -561.4131 Z"
         id="path7519"
         style="stroke-width:0.999998" />
    </clipPath>
    <clipPath
       clipPathUnits="userSpaceOnUse"
       id="clipPath7521">
      <path
         d="M -557.0645,585.8483 H 39.211502 V -9.4277 H -557.0645 Z"
         id="path7523"
         style="stroke-width:0.999998" />
    </clipPath>
    <clipPath
       clipPathUnits="userSpaceOnUse"
       id="clipPath7525">
      <path
         d="M -553.8975,585.8483 H 42.378502 V -9.4277 H -553.8975 Z"
         id="path7527"
         style="stroke-width:0.999998" />
    </clipPath>
    <clipPath
       clipPathUnits="userSpaceOnUse"
       id="clipPath7529">
      <path
         d="M -548.9834,585.8522 H 47.292602 V -9.4238 H -548.9834 Z"
         id="path7531"
         style="stroke-width:0.999998" />
    </clipPath>
    <clipPath
       clipPathUnits="userSpaceOnUse"
       id="clipPath7533">
      <path
         d="M -545.417,584.5729 H 50.859002 V -10.7031 H -545.417 Z"
         id="path7535"
         style="stroke-width:0.999998" />
    </clipPath>
    <clipPath
       clipPathUnits="userSpaceOnUse"
       id="clipPath7537">
      <path
         d="M -542.9326,584.5729 H 53.343402 V -10.7031 H -542.9326 Z"
         id="path7539"
         style="stroke-width:0.999998" />
    </clipPath>
    <clipPath
       clipPathUnits="userSpaceOnUse"
       id="clipPath7541">
      <path
         d="M -540.8213,585.8483 H 55.454702 V -9.4277 H -540.8213 Z"
         id="path7543"
         style="stroke-width:0.999998" />
    </clipPath>
    <clipPath
       clipPathUnits="userSpaceOnUse"
       id="clipPath7545">
      <path
         d="M -536.6982,584.5729 H 59.577802 V -10.7031 H -536.6982 Z"
         id="path7547"
         style="stroke-width:0.999998" />
    </clipPath>
    <clipPath
       clipPathUnits="userSpaceOnUse"
       id="clipPath7549">
      <path
         d="M -528.0898,575.3815 H 68.186202 V -19.8945 H -528.0898 Z"
         id="path7551"
         style="stroke-width:0.999998" />
    </clipPath>
    <clipPath
       clipPathUnits="userSpaceOnUse"
       id="clipPath7553">
      <path
         d="M -531.1924,581.5885 H 65.083602 V -13.6875 H -531.1924 Z"
         id="path7555"
         style="stroke-width:0.999998" />
    </clipPath>
    <clipPath
       clipPathUnits="userSpaceOnUse"
       id="clipPath7767">
      <path
         d="m -202.9443,500.1969 h 596.276 v -595.276 h -596.276 z"
         id="path7769"
         style="stroke-width:0.999998" />
    </clipPath>
    <clipPath
       clipPathUnits="userSpaceOnUse"
       id="clipPath7773">
      <path
         d="m -338.9717,308.3717 h 596.276 v -595.276 h -596.276 z"
         id="path7775"
         style="stroke-width:0.999998" />
    </clipPath>
    <clipPath
       clipPathUnits="userSpaceOnUse"
       id="clipPath7779">
      <path
         d="m -375.2725,143.4274 h 596.276 v -595.276 h -596.276 z"
         id="path7781"
         style="stroke-width:0.999998" />
    </clipPath>
    <clipPath
       clipPathUnits="userSpaceOnUse"
       id="clipPath7785">
      <path
         d="m -256.3037,308.3717 h 596.276 v -595.276 h -596.276 z"
         id="path7787"
         style="stroke-width:0.999998" />
    </clipPath>
    <clipPath
       clipPathUnits="userSpaceOnUse"
       id="clipPath7791">
      <path
         d="m -120.2764,500.1969 h 596.276 v -595.276 h -596.276 z"
         id="path7793"
         style="stroke-width:0.999998" />
    </clipPath>
    <clipPath
       clipPathUnits="userSpaceOnUse"
       id="clipPath7797">
      <path
         d="m -356.0303,335.2516 h 596.276 v -595.276 h -596.276 z"
         id="path7799"
         style="stroke-width:0.999998" />
    </clipPath>
    <clipPath
       clipPathUnits="userSpaceOnUse"
       id="clipPath7803">
      <path
         d="M -474.999,500.1969 H 121.277 V -95.0791 H -474.999 Z"
         id="path7805"
         style="stroke-width:0.999998" />
    </clipPath>
    <clipPath
       clipPathUnits="userSpaceOnUse"
       id="clipPath7809">
      <path
         d="m -392.3311,500.1969 h 596.276 v -595.276 h -596.276 z"
         id="path7811"
         style="stroke-width:0.999998" />
    </clipPath>
    <clipPath
       clipPathUnits="userSpaceOnUse"
       id="clipPath7815">
      <path
         d="m -239.2451,335.2516 h 596.276 v -595.276 h -596.276 z"
         id="path7817"
         style="stroke-width:0.999998" />
    </clipPath>
  </defs>
  <sodipodi:namedview
     id="namedview7026"
     pagecolor="#ffffff"
     bordercolor="#000000"
     borderopacity="0.25"
     inkscape:showpageshadow="2"
     inkscape:pageopacity="0.0"
     inkscape:pagecheckerboard="0"
     inkscape:deskcolor="#d1d1d1"
     showgrid="false"
     inkscape:zoom="0.29734106"
     inkscape:cx="-215.24105"
     inkscape:cy="396.85068"
     inkscape:window-width="1419"
     inkscape:window-height="456"
     inkscape:window-x="1920"
     inkscape:window-y="142"
     inkscape:window-maximized="0"
     inkscape:current-layer="svg7024">
    <inkscape:page
       x="0"
       y="0"
       id="page7030"
       width="795.03467"
       height="793.70135" />
  </sodipodi:namedview>
  <path
     d="M 341.738 411.162 C 362.938 411.162 381.71 400.801 393.298 384.877 C 380.483 352.825 349.167 330.169 312.538 330.169 C 300.602 330.169 289.231 332.578 278.878 336.926 C 278.313 340.344 278.002 343.849 278.002 347.426 C 278.002 382.627 306.538 411.162 341.738 411.162"
     style="fill:#000000;fill-opacity:1;fill-rule:nonzero;stroke:none"
     id="path7144" />
  <path
     d="M 451.962 411.162 C 430.762 411.162 411.99 400.801 400.402 384.877 C 413.217 352.825 444.534 330.169 481.162 330.169 C 493.098 330.169 504.469 332.578 514.822 336.926 C 515.387 340.344 515.698 343.849 515.698 347.426 C 515.698 382.627 487.161 411.162 451.962 411.162"
     style="fill:#000000;fill-opacity:1;fill-rule:nonzero;stroke:none"
     id="path7148" />
  <path
     d="M 500.363 191.237 C 493.827 191.237 487.502 192.132 481.487 193.776 C 472.462 155.374 438.006 126.773 396.85 126.773 C 355.694 126.773 321.238 155.374 312.215 193.776 C 306.199 192.132 299.874 191.237 293.337 191.237 C 253.888 191.237 221.905 223.218 221.905 262.669 C 221.905 295.37 243.885 322.918 273.872 331.395 L 276.15 330.439 C 283.73 327.254 291.829 325.059 300.262 323.955 C 296.282 315.966 290.846 308.781 284.35 302.786 C 282.336 303.439 280.041 303.069 278.33 301.57 C 275.744 299.305 275.486 295.371 277.75 292.785 C 280.016 290.201 283.949 289.939 286.536 292.206 C 288.228 293.687 288.902 295.882 288.546 297.95 C 296.249 305.023 302.626 313.643 307.061 323.302 C 308.875 323.198 310.699 323.13 312.538 323.13 C 315.946 323.13 319.303 323.341 322.618 323.699 C 318.962 309.333 312.142 294.791 302.723 282.471 C 300.535 282.765 298.262 281.915 296.866 280.011 C 294.834 277.239 295.433 273.343 298.205 271.31 C 300.975 269.275 304.873 269.875 306.905 272.647 C 308.189 274.395 308.419 276.59 307.723 278.485 C 318.319 292.333 325.769 308.621 329.449 324.674 C 333.623 325.434 337.699 326.473 341.663 327.763 C 338.871 308.775 332.454 286.813 321.191 268.078 C 319.051 268.119 316.946 267.081 315.749 265.119 C 313.958 262.185 314.887 258.354 317.822 256.564 C 320.757 254.773 324.587 255.704 326.379 258.638 C 327.542 260.543 327.541 262.822 326.603 264.681 C 339.181 285.603 345.885 309.826 348.475 330.278 C 352.671 332.018 356.718 334.05 360.583 336.354 C 359.21 313.365 353.169 283.873 340.421 257.71 C 338.434 257.568 336.549 256.477 335.475 254.622 C 333.754 251.649 334.767 247.838 337.742 246.114 C 340.717 244.39 344.526 245.406 346.249 248.381 C 347.445 250.448 347.298 252.902 346.113 254.794 C 360.285 283.87 366.351 316.327 367.19 340.674 C 371.146 343.507 374.867 346.646 378.333 350.043 C 379.574 323.795 376.45 285.197 363.011 250.204 C 360.915 249.86 359.043 248.474 358.213 246.35 C 356.961 243.149 358.541 239.538 361.741 238.284 C 364.942 237.032 368.554 238.61 369.809 241.813 C 370.626 243.906 370.218 246.162 368.953 247.833 C 383.129 284.751 386.063 324.819 384.665 351.618 C 384.575 353.317 384.475 354.958 384.366 356.545 C 387.819 360.635 390.926 365.023 393.65 369.666 L 393.65 245.704 C 391.845 244.613 390.625 242.653 390.625 240.39 C 390.625 236.95 393.413 234.164 396.85 234.164 C 400.287 234.164 403.075 236.95 403.075 240.39 C 403.075 242.654 401.857 244.614 400.05 245.706 L 400.05 369.674 C 402.773 365.029 405.882 360.638 409.334 356.546 C 409.226 354.959 409.125 353.317 409.037 351.618 C 407.637 324.819 410.571 284.751 424.747 247.833 C 423.483 246.162 423.074 243.906 423.893 241.813 C 425.147 238.61 428.759 237.032 431.958 238.284 C 435.16 239.538 436.739 243.149 435.488 246.35 C 434.656 248.474 432.786 249.86 430.687 250.204 C 417.25 285.197 414.127 323.797 415.369 350.043 C 418.834 346.646 422.555 343.507 426.51 340.674 C 427.349 316.327 433.415 283.87 447.587 254.794 C 446.402 252.902 446.256 250.448 447.451 248.381 C 449.174 245.406 452.984 244.39 455.958 246.114 C 458.934 247.838 459.946 251.649 458.224 254.622 C 457.152 256.477 455.267 257.568 453.279 257.71 C 440.531 283.873 434.492 313.365 433.117 336.354 C 436.983 334.05 441.028 332.018 445.224 330.278 C 447.816 309.826 454.52 285.605 467.098 264.681 C 466.16 262.822 466.159 260.543 467.323 258.638 C 469.112 255.704 472.944 254.773 475.879 256.564 C 478.814 258.354 479.742 262.185 477.951 265.119 C 476.755 267.081 474.65 268.119 472.508 268.078 C 461.246 286.813 454.831 308.775 452.039 327.763 C 456.002 326.473 460.076 325.434 464.252 324.674 C 467.932 308.621 475.382 292.333 485.979 278.485 C 485.28 276.59 485.511 274.395 486.794 272.647 C 488.828 269.875 492.724 269.275 495.498 271.31 C 498.268 273.343 498.867 277.239 496.834 280.011 C 495.439 281.915 493.166 282.765 490.978 282.471 C 481.558 294.791 474.738 309.333 471.082 323.699 C 474.395 323.341 477.754 323.13 481.163 323.13 C 483.002 323.13 484.826 323.198 486.639 323.302 C 491.072 313.643 497.451 305.023 505.155 297.95 C 504.798 295.882 505.472 293.687 507.166 292.206 C 509.752 289.939 513.684 290.201 515.95 292.785 C 518.216 295.371 517.956 299.305 515.37 301.57 C 513.66 303.069 511.367 303.439 509.35 302.786 C 502.854 308.781 497.419 315.966 493.439 323.955 C 501.872 325.059 509.971 327.254 517.551 330.439 L 519.83 331.395 C 549.815 322.918 571.795 295.37 571.795 262.669 C 571.795 223.218 539.814 191.237 500.363 191.237"
     style="fill:#000000;fill-opacity:1;fill-rule:nonzero;stroke:none"
     id="path7152" />
  <path
     d="M 160.369 666.929 C 181.569 666.929 200.341 656.568 211.929 640.642 C 199.114 608.59 167.798 585.935 131.169 585.935 C 119.233 585.935 107.862 588.344 97.5092 592.692 C 96.9438 596.112 96.6332 599.615 96.6332 603.192 C 96.6332 638.393 125.169 666.929 160.369 666.929"
     style="fill:#000000;fill-opacity:1;fill-rule:nonzero;stroke:none"
     id="path7156" />
  <path
     d="M 270.592 666.929 C 249.392 666.929 230.62 656.568 219.032 640.642 C 231.847 608.59 263.164 585.935 299.792 585.935 C 311.728 585.935 323.099 588.344 333.452 592.692 C 334.017 596.112 334.328 599.615 334.328 603.192 C 334.328 638.393 305.792 666.929 270.592 666.929"
     style="fill:#000000;fill-opacity:1;fill-rule:nonzero;stroke:none"
     id="path7160" />
  <path
     d="M 318.993 447.002 C 312.457 447.002 306.132 447.898 300.116 449.541 C 291.092 411.141 256.636 382.539 215.48 382.539 C 174.324 382.539 139.868 411.141 130.845 449.541 C 124.829 447.898 118.504 447.002 111.967 447.002 C 72.5176 447.002 40.535 478.983 40.535 518.436 C 40.535 551.135 62.5163 578.684 92.5016 587.16 L 94.7802 586.204 C 102.36 583.02 110.459 580.824 118.892 579.72 C 114.912 571.731 109.476 564.546 102.98 558.551 C 100.966 559.204 98.6709 558.835 96.9602 557.335 C 94.3736 555.072 94.1162 551.138 96.3816 548.551 C 98.6456 545.966 102.579 545.704 105.166 547.971 C 106.858 549.452 107.532 551.647 107.176 553.715 C 114.879 560.788 121.257 569.408 125.691 579.07 C 127.505 578.963 129.329 578.895 131.168 578.895 C 134.576 578.895 137.933 579.106 141.248 579.466 C 137.592 565.1 130.772 550.556 121.353 538.236 C 119.165 538.53 116.892 537.682 115.496 535.778 C 113.464 533.007 114.063 529.108 116.835 527.075 C 119.605 525.043 123.504 525.64 125.535 528.414 C 126.819 530.16 127.049 532.356 126.353 534.25 C 136.949 548.1 144.399 564.387 148.079 580.439 C 152.253 581.199 156.329 582.236 160.293 583.53 C 157.501 564.54 151.084 542.58 139.821 523.843 C 137.681 523.884 135.576 522.846 134.379 520.887 C 132.588 517.95 133.517 514.119 136.452 512.33 C 139.387 510.538 143.217 511.469 145.009 514.403 C 146.172 516.311 146.171 518.587 145.233 520.447 C 157.811 541.371 164.515 565.592 167.105 586.043 C 171.303 587.783 175.348 589.816 179.213 592.122 C 177.84 569.13 171.799 539.64 159.051 513.478 C 157.064 513.333 155.179 512.242 154.105 510.387 C 152.384 507.414 153.397 503.603 156.372 501.882 C 159.347 500.155 163.156 501.174 164.879 504.147 C 166.075 506.213 165.928 508.669 164.743 510.562 C 178.915 539.638 184.981 572.092 185.82 596.439 C 189.777 599.275 193.497 602.411 196.963 605.808 C 198.204 579.562 195.08 540.963 181.641 505.969 C 179.545 505.625 177.673 504.239 176.843 502.117 C 175.591 498.914 177.171 495.305 180.371 494.051 C 183.572 492.797 187.184 494.377 188.439 497.578 C 189.256 499.671 188.848 501.929 187.583 503.598 C 201.759 540.518 204.693 580.586 203.295 607.384 C 203.205 609.08 203.105 610.723 202.997 612.311 C 206.449 616.4 209.556 620.788 212.28 625.431 L 212.28 501.469 C 210.475 500.379 209.255 498.417 209.255 496.155 C 209.255 492.715 212.043 489.929 215.48 489.929 C 218.917 489.929 221.705 492.715 221.705 496.155 C 221.705 498.419 220.485 500.382 218.68 501.471 L 218.68 625.439 C 221.403 620.794 224.512 616.403 227.965 612.311 C 227.856 610.726 227.755 609.083 227.667 607.384 C 226.267 580.586 229.201 540.518 243.377 503.598 C 242.113 501.929 241.704 499.671 242.521 497.578 C 243.777 494.377 247.389 492.797 250.589 494.051 C 253.79 495.305 255.369 498.914 254.118 502.117 C 253.288 504.239 251.416 505.625 249.319 505.969 C 235.88 540.963 232.756 579.562 233.999 605.808 C 237.464 602.411 241.185 599.275 245.14 596.439 C 245.979 572.095 252.045 539.638 266.217 510.562 C 265.032 508.669 264.886 506.213 266.081 504.147 C 267.804 501.174 271.614 500.155 274.588 501.882 C 277.564 503.603 278.576 507.414 276.854 510.387 C 275.782 512.242 273.897 513.333 271.909 513.478 C 259.161 539.64 253.122 569.13 251.747 592.122 C 255.613 589.816 259.658 587.783 263.854 586.043 C 266.446 565.592 273.149 541.371 285.728 520.447 C 284.79 518.587 284.789 516.311 285.952 514.403 C 287.742 511.469 291.574 510.538 294.509 512.33 C 297.444 514.119 298.372 517.95 296.581 520.887 C 295.386 522.846 293.28 523.884 291.138 523.843 C 279.876 542.58 273.46 564.54 270.668 583.53 C 274.632 582.236 278.706 581.199 282.881 580.439 C 286.562 564.387 294.012 548.1 304.609 534.25 C 303.91 532.356 304.141 530.16 305.425 528.414 C 307.458 525.64 311.354 525.043 314.126 527.075 C 316.9 529.108 317.497 533.007 315.465 535.778 C 314.069 537.682 311.796 538.53 309.608 538.236 C 300.188 550.556 293.368 565.1 289.712 579.466 C 293.026 579.106 296.384 578.895 299.793 578.895 C 301.632 578.895 303.456 578.963 305.269 579.07 C 309.704 569.408 316.081 560.788 323.785 553.715 C 323.428 551.647 324.102 549.452 325.796 547.971 C 328.382 545.704 332.314 545.966 334.58 548.551 C 336.846 551.138 336.586 555.072 334.001 557.335 C 332.29 558.835 329.996 559.204 327.98 558.551 C 321.485 564.546 316.048 571.731 312.069 579.72 C 320.502 580.824 328.601 583.02 336.181 586.204 L 338.46 587.16 C 368.446 578.684 390.425 551.135 390.425 518.436 C 390.425 478.983 358.444 447.002 318.993 447.002"
     style="fill:#000000;fill-opacity:1;fill-rule:nonzero;stroke:none"
     id="path7164" />
  <path
     d="M 633.332 666.929 C 612.132 666.929 593.36 656.568 581.772 640.642 C 594.587 608.59 625.904 585.935 662.532 585.935 C 674.468 585.935 685.839 588.344 696.192 592.692 C 696.757 596.112 697.068 599.615 697.068 603.192 C 697.068 638.393 668.531 666.929 633.332 666.929"
     style="fill:#000000;fill-opacity:1;fill-rule:nonzero;stroke:none"
     id="path7168" />
  <path
     d="M 523.108 666.929 C 544.308 666.929 563.08 656.568 574.668 640.642 C 561.853 608.59 530.536 585.935 493.908 585.935 C 481.972 585.935 470.601 588.344 460.248 592.692 C 459.683 596.112 459.372 599.615 459.372 603.192 C 459.372 638.393 487.908 666.929 523.108 666.929"
     style="fill:#000000;fill-opacity:1;fill-rule:nonzero;stroke:none"
     id="path7172" />
  <path
     d="M 474.707 447.002 C 481.243 447.002 487.568 447.898 493.583 449.541 C 502.608 411.141 537.064 382.539 578.22 382.539 C 619.376 382.539 653.832 411.141 662.856 449.541 C 668.871 447.898 675.194 447.002 681.733 447.002 C 721.182 447.002 753.165 478.983 753.165 518.436 C 753.165 551.135 731.184 578.684 701.198 587.16 L 698.92 586.204 C 691.341 583.02 683.241 580.824 674.808 579.72 C 678.789 571.731 684.224 564.546 690.72 558.551 C 692.736 559.204 695.029 558.835 696.738 557.335 C 699.326 555.072 699.585 551.138 697.32 548.551 C 695.054 545.966 691.122 545.704 688.534 547.971 C 686.842 549.452 686.166 551.647 686.524 553.715 C 678.821 560.788 672.443 569.408 668.009 579.07 C 666.195 578.963 664.372 578.895 662.532 578.895 C 659.124 578.895 655.765 579.106 652.452 579.466 C 656.108 565.1 662.928 550.556 672.347 538.236 C 674.535 538.53 676.806 537.682 678.202 535.778 C 680.236 533.007 679.637 529.108 676.866 527.075 C 674.095 525.043 670.197 525.64 668.164 528.414 C 666.881 530.16 666.651 532.356 667.348 534.25 C 656.749 548.1 649.301 564.387 645.623 580.439 C 641.447 581.199 637.371 582.236 633.408 583.53 C 636.2 564.54 642.616 542.58 653.879 523.843 C 656.019 523.884 658.124 522.846 659.321 520.887 C 661.112 517.95 660.183 514.119 657.247 512.33 C 654.313 510.538 650.483 511.469 648.692 514.403 C 647.528 516.311 647.529 518.587 648.467 520.447 C 635.891 541.371 629.185 565.592 626.595 586.043 C 622.399 587.783 618.352 589.816 614.487 592.122 C 615.861 569.13 621.901 539.64 634.649 513.478 C 636.636 513.333 638.521 512.242 639.595 510.387 C 641.316 507.414 640.303 503.603 637.328 501.882 C 634.353 500.155 630.544 501.174 628.821 504.147 C 627.625 506.213 627.772 508.669 628.957 510.562 C 614.785 539.638 608.719 572.092 607.88 596.439 C 603.924 599.275 600.203 602.411 596.737 605.808 C 595.497 579.562 598.62 540.963 612.057 505.969 C 614.156 505.625 616.025 504.239 616.856 502.117 C 618.109 498.914 616.529 495.305 613.328 494.051 C 610.128 492.797 606.516 494.377 605.263 497.578 C 604.444 499.671 604.852 501.929 606.117 503.598 C 591.941 540.518 589.007 580.586 590.405 607.384 C 590.495 609.08 590.596 610.723 590.703 612.311 C 587.251 616.4 584.144 620.788 581.421 625.431 L 581.421 501.469 C 583.225 500.379 584.445 498.417 584.445 496.155 C 584.445 492.715 581.657 489.929 578.22 489.929 C 574.783 489.929 571.995 492.715 571.995 496.155 C 571.995 498.419 573.213 500.382 575.02 501.471 L 575.02 625.439 C 572.297 620.794 569.188 616.403 565.736 612.311 C 565.844 610.726 565.945 609.083 566.033 607.384 C 567.433 580.586 564.499 540.518 550.323 503.598 C 551.587 501.929 551.996 499.671 551.177 497.578 C 549.923 494.377 546.311 492.797 543.112 494.051 C 539.91 495.305 538.331 498.914 539.582 502.117 C 540.414 504.239 542.284 505.625 544.383 505.969 C 557.82 540.963 560.943 579.562 559.701 605.808 C 556.236 602.411 552.515 599.275 548.56 596.439 C 547.721 572.095 541.655 539.638 527.483 510.562 C 528.668 508.669 528.814 506.213 527.619 504.147 C 525.896 501.174 522.086 500.155 519.112 501.882 C 516.136 503.603 515.123 507.414 516.846 510.387 C 517.918 512.242 519.802 513.333 521.791 513.478 C 534.539 539.64 540.578 569.13 541.953 592.122 C 538.087 589.816 534.042 587.783 529.846 586.043 C 527.254 565.592 520.55 541.371 507.972 520.447 C 508.91 518.587 508.911 516.311 507.747 514.403 C 505.958 511.469 502.126 510.538 499.191 512.33 C 496.256 514.119 495.328 517.95 497.119 520.887 C 498.315 522.846 500.42 523.884 502.562 523.843 C 513.824 542.58 520.239 564.54 523.031 583.53 C 519.068 582.236 514.994 581.199 510.818 580.439 C 507.138 564.387 499.688 548.1 489.091 534.25 C 489.79 532.356 489.559 530.16 488.276 528.414 C 486.242 525.64 482.346 525.043 479.572 527.075 C 476.802 529.108 476.203 533.007 478.235 535.778 C 479.631 537.682 481.904 538.53 484.092 538.236 C 493.512 550.556 500.332 565.1 503.988 579.466 C 500.675 579.106 497.316 578.895 493.907 578.895 C 492.068 578.895 490.244 578.963 488.431 579.07 C 483.998 569.408 477.619 560.788 469.915 553.715 C 470.272 551.647 469.598 549.452 467.904 547.971 C 465.318 545.704 461.386 545.966 459.12 548.551 C 456.854 551.138 457.114 555.072 459.699 557.335 C 461.41 558.835 463.703 559.204 465.72 558.551 C 472.216 564.546 477.651 571.731 481.631 579.72 C 473.198 580.824 465.099 583.02 457.519 586.204 L 455.24 587.16 C 425.255 578.684 403.275 551.135 403.275 518.436 C 403.275 478.983 435.256 447.002 474.707 447.002"
     style="fill:#000000;fill-opacity:1;fill-rule:nonzero;stroke:none"
     id="path7176" />
</svg>
