<?xml version="1.0" encoding="UTF-8" standalone="no"?>
<!-- Created with Inkscape (http://www.inkscape.org/) -->

<svg
   version="1.1"
   id="svg252"
   width="795.03467"
   height="793.70135"
   viewBox="0 0 795.03467 793.70135"
   sodipodi:docname="Shiriawase Mitsuume.svg"
   inkscape:version="1.2 (dc2aeda, 2022-05-15)"
   xmlns:inkscape="http://www.inkscape.org/namespaces/inkscape"
   xmlns:sodipodi="http://sodipodi.sourceforge.net/DTD/sodipodi-0.dtd"
   xmlns="http://www.w3.org/2000/svg"
   xmlns:svg="http://www.w3.org/2000/svg">
  <defs
     id="defs256">
    <clipPath
       clipPathUnits="userSpaceOnUse"
       id="clipPath895">
      <path
         d="M -536.6982,584.5729 H 59.577802 V -10.7031 H -536.6982 Z"
         id="path897"
         style="stroke-width:0.999998" />
    </clipPath>
    <clipPath
       clipPathUnits="userSpaceOnUse"
       id="clipPath901">
      <path
         d="M -528.0898,575.3815 H 68.186202 V -19.8945 H -528.0898 Z"
         id="path903"
         style="stroke-width:0.999998" />
    </clipPath>
    <clipPath
       clipPathUnits="userSpaceOnUse"
       id="clipPath907">
      <path
         d="M -531.1924,581.5885 H 65.083602 V -13.6875 H -531.1924 Z"
         id="path909"
         style="stroke-width:0.999998" />
    </clipPath>
    <clipPath
       clipPathUnits="userSpaceOnUse"
       id="clipPath913">
      <path
         d="M -586.5449,579.5026 H 9.7311024 V -15.7734 H -586.5449 Z"
         id="path915"
         style="stroke-width:0.999998" />
    </clipPath>
    <clipPath
       clipPathUnits="userSpaceOnUse"
       id="clipPath919">
      <path
         d="m -296.2441,421.0807 h 596.276 v -595.276 h -596.276 z"
         id="path921"
         style="stroke-width:0.999998" />
    </clipPath>
    <clipPath
       clipPathUnits="userSpaceOnUse"
       id="clipPath925">
      <path
         d="m -75.7065,327.3697 h 596.276 v -595.276 h -596.276 z"
         id="path927"
         style="stroke-width:0.999998" />
    </clipPath>
    <clipPath
       clipPathUnits="userSpaceOnUse"
       id="clipPath931">
      <path
         d="M -567.7754,585.8522 H 28.500602 V -9.4238 H -567.7754 Z"
         id="path933"
         style="stroke-width:0.999998" />
    </clipPath>
    <clipPath
       clipPathUnits="userSpaceOnUse"
       id="clipPath938">
      <path
         d="M -574.5459,585.8522 H 21.730102 V -9.4238 H -574.5459 Z"
         id="path940"
         style="stroke-width:0.999998" />
    </clipPath>
    <clipPath
       clipPathUnits="userSpaceOnUse"
       id="clipPath944">
      <path
         d="M -537.5059,470.4498 H 58.770102 v -595.276 H -537.5059 Z"
         id="path946"
         style="stroke-width:0.999998" />
    </clipPath>
    <clipPath
       clipPathUnits="userSpaceOnUse"
       id="clipPath950">
      <path
         d="m -191.502,418.8658 h 596.276 v -595.276 h -596.276 z"
         id="path952"
         style="stroke-width:0.999998" />
    </clipPath>
    <clipPath
       clipPathUnits="userSpaceOnUse"
       id="clipPath956">
      <path
         d="M -572.8174,586.1354 H 23.458602 V -9.1406 H -572.8174 Z"
         id="path958"
         style="stroke-width:0.999998" />
    </clipPath>
    <clipPath
       clipPathUnits="userSpaceOnUse"
       id="clipPath962">
      <path
         d="M -556.4014,578.0143 H 39.874602 V -17.2617 H -556.4014 Z"
         id="path964"
         style="stroke-width:0.999998" />
    </clipPath>
    <clipPath
       clipPathUnits="userSpaceOnUse"
       id="clipPath968">
      <path
         d="M -576.3691,585.5885 H 19.906902 V -9.6875 H -576.3691 Z"
         id="path970"
         style="stroke-width:0.999998" />
    </clipPath>
    <clipPath
       clipPathUnits="userSpaceOnUse"
       id="clipPath974">
      <path
         d="M -550.2637,577.3248 H 46.012302 V -17.9512 H -550.2637 Z"
         id="path976"
         style="stroke-width:0.999998" />
    </clipPath>
    <clipPath
       clipPathUnits="userSpaceOnUse"
       id="clipPath980">
      <path
         d="M -584.1943,578.9381 H 12.081702 V -16.3379 H -584.1943 Z"
         id="path982"
         style="stroke-width:0.999998" />
    </clipPath>
    <clipPath
       clipPathUnits="userSpaceOnUse"
       id="clipPath986">
      <path
         d="M -568.2266,575.819 H 28.049402 V -19.457 H -568.2266 Z"
         id="path988"
         style="stroke-width:0.999998" />
    </clipPath>
    <clipPath
       clipPathUnits="userSpaceOnUse"
       id="clipPath992">
      <path
         d="m -199.0391,532.8082 h 596.276 v -595.276 h -596.276 z"
         id="path994"
         style="stroke-width:0.999998" />
    </clipPath>
    <clipPath
       clipPathUnits="userSpaceOnUse"
       id="clipPath998">
      <path
         d="M -557.4951,577.8502 H 38.780902 V -17.4258 H -557.4951 Z"
         id="path1000"
         style="stroke-width:0.999998" />
    </clipPath>
    <clipPath
       clipPathUnits="userSpaceOnUse"
       id="clipPath1004">
      <path
         d="m -320.1855,187.2775 h 596.276 v -595.276 h -596.276 z"
         id="path1006"
         style="stroke-width:0.999998" />
    </clipPath>
    <clipPath
       clipPathUnits="userSpaceOnUse"
       id="clipPath1010">
      <path
         d="m -297.6377,61.3009 h 596.276 v -595.276 h -596.276 z"
         id="path1012"
         style="stroke-width:0.999998" />
    </clipPath>
    <clipPath
       clipPathUnits="userSpaceOnUse"
       id="clipPath1016">
      <path
         d="m -177.8296,148.3492 h 596.276 v -595.276 h -596.276 z"
         id="path1018"
         style="stroke-width:0.999998" />
    </clipPath>
    <clipPath
       clipPathUnits="userSpaceOnUse"
       id="clipPath1022">
      <path
         d="m -417.4512,148.3492 h 596.276 v -595.276 h -596.276 z"
         id="path1024"
         style="stroke-width:0.999998" />
    </clipPath>
    <clipPath
       clipPathUnits="userSpaceOnUse"
       id="clipPath1028">
      <path
         d="m -371.6865,289.1989 h 596.276 v -595.276 h -596.276 z"
         id="path1030"
         style="stroke-width:0.999998" />
    </clipPath>
    <clipPath
       clipPathUnits="userSpaceOnUse"
       id="clipPath1034">
      <path
         d="m -223.5894,289.1989 h 596.276 v -595.276 h -596.276 z"
         id="path1036"
         style="stroke-width:0.999998" />
    </clipPath>
    <clipPath
       clipPathUnits="userSpaceOnUse"
       id="clipPath1040">
      <path
         d="m -443.0039,425.233 h 596.276 v -595.276 h -596.276 z"
         id="path1042"
         style="stroke-width:0.999998" />
    </clipPath>
    <clipPath
       clipPathUnits="userSpaceOnUse"
       id="clipPath1046">
      <path
         d="M -520.4404,323.3434 H 75.835602 v -595.276 H -520.4404 Z"
         id="path1048"
         style="stroke-width:0.999998" />
    </clipPath>
    <clipPath
       clipPathUnits="userSpaceOnUse"
       id="clipPath1052">
      <path
         d="m -375.2568,294.1149 h 596.276 v -595.276 h -596.276 z"
         id="path1054"
         style="stroke-width:0.999998" />
    </clipPath>
    <clipPath
       clipPathUnits="userSpaceOnUse"
       id="clipPath1058">
      <path
         d="m -302.5947,423.1569 h 596.276 v -595.276 h -596.276 z"
         id="path1060"
         style="stroke-width:0.999998" />
    </clipPath>
    <clipPath
       clipPathUnits="userSpaceOnUse"
       id="clipPath1064">
      <path
         d="m -62.7383,474.8912 h 596.276 v -595.276 h -596.276 z"
         id="path1066"
         style="stroke-width:0.999998" />
    </clipPath>
    <clipPath
       clipPathUnits="userSpaceOnUse"
       id="clipPath1070">
      <path
         d="M -538.2217,577.9479 H 58.054302 V -17.3281 H -538.2217 Z"
         id="path1072"
         style="stroke-width:0.999998" />
    </clipPath>
    <clipPath
       clipPathUnits="userSpaceOnUse"
       id="clipPath1076">
      <path
         d="M -545.417,584.5729 H 50.859002 V -10.7031 H -545.417 Z"
         id="path1078"
         style="stroke-width:0.999998" />
    </clipPath>
    <clipPath
       clipPathUnits="userSpaceOnUse"
       id="clipPath1082">
      <path
         d="M -561.4131,585.8522 H 34.862902 V -9.4238 H -561.4131 Z"
         id="path1084"
         style="stroke-width:0.999998" />
    </clipPath>
    <clipPath
       clipPathUnits="userSpaceOnUse"
       id="clipPath1088">
      <path
         d="M -553.8975,585.8483 H 42.378502 V -9.4277 H -553.8975 Z"
         id="path1090"
         style="stroke-width:0.999998" />
    </clipPath>
    <clipPath
       clipPathUnits="userSpaceOnUse"
       id="clipPath1094">
      <path
         d="M -548.9834,585.8522 H 47.292602 V -9.4238 H -548.9834 Z"
         id="path1096"
         style="stroke-width:0.999998" />
    </clipPath>
    <clipPath
       clipPathUnits="userSpaceOnUse"
       id="clipPath1100">
      <path
         d="M -542.9326,584.5729 H 53.343402 V -10.7031 H -542.9326 Z"
         id="path1102"
         style="stroke-width:0.999998" />
    </clipPath>
    <clipPath
       clipPathUnits="userSpaceOnUse"
       id="clipPath1106">
      <path
         d="M -557.0645,585.8483 H 39.211502 V -9.4277 H -557.0645 Z"
         id="path1108"
         style="stroke-width:0.999998" />
    </clipPath>
    <clipPath
       clipPathUnits="userSpaceOnUse"
       id="clipPath1112">
      <path
         d="M -540.8213,585.8483 H 55.454702 V -9.4277 H -540.8213 Z"
         id="path1114"
         style="stroke-width:0.999998" />
    </clipPath>
    <clipPath
       clipPathUnits="userSpaceOnUse"
       id="clipPath1119">
      <path
         d="M -564.5732,585.8483 H 31.702802 V -9.4277 H -564.5732 Z"
         id="path1121"
         style="stroke-width:0.999998" />
    </clipPath>
    <clipPath
       clipPathUnits="userSpaceOnUse"
       id="clipPath1125">
      <path
         d="m -220.0186,294.111 h 596.276 v -595.276 h -596.276 z"
         id="path1127"
         style="stroke-width:0.999998" />
    </clipPath>
    <clipPath
       clipPathUnits="userSpaceOnUse"
       id="clipPath1131">
      <path
         d="m -402.8721,532.1412 h 596.276 v -595.276 h -596.276 z"
         id="path1133"
         style="stroke-width:0.999998" />
    </clipPath>
  </defs>
  <sodipodi:namedview
     id="namedview254"
     pagecolor="#ffffff"
     bordercolor="#000000"
     borderopacity="0.25"
     inkscape:showpageshadow="2"
     inkscape:pageopacity="0.0"
     inkscape:pagecheckerboard="0"
     inkscape:deskcolor="#d1d1d1"
     showgrid="false"
     inkscape:zoom="0.29734106"
     inkscape:cx="-215.24105"
     inkscape:cy="396.85068"
     inkscape:window-width="1419"
     inkscape:window-height="456"
     inkscape:window-x="1920"
     inkscape:window-y="142"
     inkscape:window-maximized="0"
     inkscape:current-layer="svg252">
    <inkscape:page
       x="0"
       y="0"
       id="page258"
       width="795.03467"
       height="793.70135" />
  </sodipodi:namedview>
  <path
     d="m 426.912,249.705 c 0,16.604 -13.458,30.064 -30.064,30.064 -16.602,0 -30.064,-13.46 -30.064,-30.064 0,-16.604 13.462,-30.064 30.064,-30.064 16.606,0 30.064,13.46 30.064,30.064"
     style="fill:#000000;fill-opacity:1;fill-rule:nonzero;stroke:none"
     id="path372" />
  <path
     d="m 396.85,81.7361 c 33.401,0 60.466,27.0709 60.466,60.4649 0,13.211 -4.233,25.44 -11.417,35.384 l -30.416,41.92 c -4.677,-2.895 -10.104,-4.709 -15.888,-5.159 l -0.036,-42.223 c 0,-1.494 -1.221,-2.698 -2.709,-2.698 -1.499,0 -2.714,1.204 -2.714,2.698 l -0.03,42.223 c -5.784,0.45 -11.211,2.264 -15.886,5.159 l -30.418,-41.92 c -7.183,-9.944 -11.418,-22.173 -11.418,-35.384 0,-33.394 27.067,-60.4649 60.466,-60.4649"
     style="fill:#000000;fill-opacity:1;fill-rule:nonzero;stroke:none"
     id="path376" />
  <path
     d="m 237.106,197.8 c 10.317,-31.759 44.424,-49.139 76.188,-38.82 12.561,4.085 22.885,11.885 30.121,21.793 l 30.465,41.881 c -4.19,3.552 -7.597,8.15 -9.806,13.512 l -40.171,-13.005 c -1.42,-0.464 -2.94,0.321 -3.405,1.741 -0.465,1.422 0.305,2.946 1.731,3.41 l 40.146,13.078 c -1.364,5.643 -1.316,11.366 -0.005,16.706 l -49.265,15.972 c -11.68,3.76 -24.618,4.005 -37.18,-0.074 -31.763,-10.318 -49.144,-44.43 -38.819,-76.194"
     style="fill:#000000;fill-opacity:1;fill-rule:nonzero;stroke:none"
     id="path380" />
  <path
     d="m 298.118,385.599 c -27.013,-19.632 -33.001,-57.442 -13.375,-84.458 7.771,-10.685 18.379,-18.095 30.039,-21.915 l 49.242,-16.037 c 2.082,5.091 5.407,9.749 9.824,13.513 l -24.786,34.179 c -0.878,1.208 -0.603,2.899 0.601,3.776 1.209,0.881 2.903,0.617 3.781,-0.592 l 24.848,-34.132 c 4.94,3.035 10.398,4.753 15.882,5.161 l -0.032,51.787 c -0.036,12.27 -3.795,24.654 -11.566,35.338 -19.622,27.02 -57.434,33.008 -84.458,13.38"
     style="fill:#000000;fill-opacity:1;fill-rule:nonzero;stroke:none"
     id="path384" />
  <path
     d="m 495.581,385.599 c -27.013,19.623 -64.823,13.636 -84.459,-13.38 -7.758,-10.69 -11.527,-23.068 -11.56,-35.338 l -0.03,-51.787 c 5.484,-0.408 10.94,-2.126 15.887,-5.166 l 24.849,34.132 c 0.875,1.209 2.564,1.472 3.779,0.59 1.203,-0.87 1.479,-2.566 0.601,-3.774 l -24.785,-34.174 c 4.413,-3.769 7.737,-8.422 9.816,-13.513 l 49.245,16.037 c 11.659,3.82 22.273,11.224 30.032,21.915 19.635,27.016 13.643,64.821 -13.375,84.458"
     style="fill:#000000;fill-opacity:1;fill-rule:nonzero;stroke:none"
     id="path388" />
  <path
     d="m 556.6,197.8 c 10.319,31.758 -7.056,65.87 -38.825,76.189 -12.556,4.079 -25.498,3.839 -37.179,0.079 l -49.26,-15.978 c 1.303,-5.341 1.351,-11.062 -0.005,-16.7 l 40.14,-13.089 c 1.425,-0.459 2.196,-1.989 1.73,-3.409 -0.46,-1.415 -1.984,-2.202 -3.404,-1.742 l -40.159,13.016 c -2.219,-5.362 -5.627,-9.966 -9.819,-13.516 l 30.465,-41.877 c 7.242,-9.908 17.565,-17.713 30.128,-21.793 31.757,-10.324 65.869,7.056 76.188,38.82"
     style="fill:#000000;fill-opacity:1;fill-rule:nonzero;stroke:none"
     id="path392" />
  <path
     d="m 590.671,566.978 c -12.224,11.24 -31.242,10.453 -42.483,-1.764 -11.249,-12.223 -10.451,-31.243 1.768,-42.483 12.217,-11.243 31.236,-10.455 42.477,1.768 11.243,12.22 10.451,31.235 -1.762,42.479"
     style="fill:#000000;fill-opacity:1;fill-rule:nonzero;stroke:none"
     id="path396" />
  <path
     d="m 693.918,431.125 c 22.612,24.569 21.018,62.818 -3.557,85.434 -9.721,8.941 -21.587,14.109 -33.768,15.555 l -51.441,5.997 c -1.039,-5.395 -3.378,-10.616 -6.956,-15.18 l 31.04,-28.617 c 1.098,-1.006 1.16,-2.724 0.153,-3.823 -1.013,-1.097 -2.723,-1.176 -3.823,-0.164 l -31.095,28.559 c -4.25,-3.952 -9.258,-6.711 -14.554,-8.195 l 10.256,-50.764 c 2.455,-12.018 8.588,-23.413 18.304,-32.36 24.58,-22.612 62.831,-21.022 85.441,3.558"
     style="fill:#000000;fill-opacity:1;fill-rule:nonzero;stroke:none"
     id="path400" />
  <path
     d="m 500.341,392.154 c 30.36,-13.909 66.246,-0.581 80.159,29.783 5.499,12.006 6.751,24.892 4.36,36.924 l -10.192,50.774 c -5.459,-0.687 -11.148,-0.072 -16.585,1.927 l -17.628,-38.366 c -0.623,-1.357 -2.238,-1.941 -3.588,-1.324 -1.363,0.623 -1.959,2.222 -1.336,3.583 l 17.549,38.396 c -5.065,2.82 -9.248,6.731 -12.292,11.308 l -45.112,-25.435 c -10.672,-6.056 -19.613,-15.409 -25.117,-27.416 -13.909,-30.362 -0.578,-66.237 29.782,-80.154"
     style="fill:#000000;fill-opacity:1;fill-rule:nonzero;stroke:none"
     id="path404" />
  <path
     d="m 403.459,564.21 c -3.849,-33.167 19.919,-63.178 53.096,-67.027 13.121,-1.524 25.757,1.269 36.473,7.26 l 45.139,25.387 c -2.342,4.977 -3.516,10.576 -3.294,16.372 l -41.941,4.909 c -1.484,0.171 -2.54,1.515 -2.364,2.999 0.168,1.481 1.509,2.553 2.985,2.378 l 41.951,-4.834 c 1.109,5.7 3.541,10.885 6.952,15.19 l -38.135,35.047 c -9.046,8.28 -20.712,13.892 -33.833,15.416 -33.17,3.854 -63.177,-19.919 -67.029,-53.097"
     style="fill:#000000;fill-opacity:1;fill-rule:nonzero;stroke:none"
     id="path408" />
  <path
     d="m 537.161,709.521 c -32.736,-6.593 -53.93,-38.467 -47.344,-71.207 2.612,-12.954 9.172,-24.098 18.178,-32.438 l 38.09,-35.094 c 4.007,3.768 8.97,6.612 14.552,8.197 l -8.285,41.401 c -0.296,1.46 0.655,2.883 2.121,3.183 1.456,0.293 2.892,-0.651 3.187,-2.119 l 8.367,-41.384 c 5.758,0.703 11.437,-0.005 16.589,-1.92 l 21.545,47.095 c 5.079,11.168 6.819,23.995 4.211,36.937 -6.592,32.748 -38.471,53.935 -71.211,47.349"
     style="fill:#000000;fill-opacity:1;fill-rule:nonzero;stroke:none"
     id="path412" />
  <path
     d="m 716.673,627.267 c -16.383,29.098 -53.251,39.406 -82.355,23.017 -11.505,-6.48 -20.086,-16.164 -25.233,-27.307 l -21.597,-47.07 c 4.82,-2.648 9.061,-6.487 12.292,-11.311 l 36.809,20.68 c 1.297,0.734 2.945,0.268 3.679,-1.037 0.733,-1.297 0.278,-2.948 -1.024,-3.681 l -36.771,-20.751 c 2.449,-5.26 3.524,-10.881 3.303,-16.369 l 51.44,-5.94 c 12.193,-1.376 24.929,0.936 36.44,7.41 29.098,16.388 39.406,53.257 23.017,82.359"
     style="fill:#000000;fill-opacity:1;fill-rule:nonzero;stroke:none"
     id="path416" />
  <path
     d="m 255.335,558.488 c -6.493,15.286 -24.141,22.412 -39.426,15.92 -15.287,-6.502 -22.401,-24.149 -15.913,-39.438 6.495,-15.28 24.147,-22.399 39.426,-15.902 15.281,6.492 22.405,24.14 15.913,39.42"
     style="fill:#000000;fill-opacity:1;fill-rule:nonzero;stroke:none"
     id="path420" />
  <path
     d="m 293.358,392.149 c 30.735,13.056 45.066,48.562 32.001,79.294 -5.168,12.16 -13.844,21.752 -24.348,28.101 l -44.386,26.68 c -3.175,-4.49 -7.454,-8.274 -12.606,-10.968 l 16.479,-38.865 c 0.584,-1.369 -0.063,-2.963 -1.436,-3.545 -1.372,-0.583 -2.967,0.05 -3.547,1.428 l -16.542,38.846 c -5.51,-1.852 -11.208,-2.302 -16.646,-1.469 l -11.604,-50.479 c -2.717,-11.959 -1.824,-24.869 3.338,-37.023 13.064,-30.735 48.558,-45.064 79.297,-32"
     style="fill:#000000;fill-opacity:1;fill-rule:nonzero;stroke:none"
     id="path424" />
  <path
     d="m 100.942,436.494 c 21.918,-25.197 60.106,-27.859 85.304,-5.932 9.965,8.665 16.414,19.888 19.202,31.834 l 11.659,50.463 c -5.252,1.628 -10.182,4.524 -14.315,8.6 l -31.878,-27.691 c -1.13,-0.973 -2.835,-0.844 -3.818,0.276 -0.982,1.136 -0.865,2.834 0.264,3.811 l 31.828,27.747 c -3.457,4.666 -5.653,9.944 -6.545,15.369 l -51.577,-4.563 c -12.226,-1.114 -24.226,-5.94 -34.198,-14.617 -25.1915,-21.925 -27.8422,-60.107 -5.926,-85.297"
     style="fill:#000000;fill-opacity:1;fill-rule:nonzero;stroke:none"
     id="path428" />
  <path
     d="m 83.6509,633.188 c -17.184,-28.627 -7.9067,-65.769 20.7281,-82.954 11.32,-6.804 23.986,-9.474 36.212,-8.435 l 51.588,4.508 c -0.075,5.495 1.166,11.088 3.762,16.272 l -36.18,21.773 c -1.282,0.764 -1.69,2.427 -0.925,3.708 0.767,1.279 2.428,1.7 3.711,0.936 l 36.217,-21.709 c 3.369,4.74 7.713,8.451 12.6,10.975 l -20.284,47.643 c -4.835,11.279 -13.143,21.207 -24.459,28.01 -28.637,17.185 -65.774,7.912 -82.9701,-20.727"
     style="fill:#000000;fill-opacity:1;fill-rule:nonzero;stroke:none"
     id="path432" />
  <path
     d="m 265.385,710.411 c -32.54,7.496 -64.995,-12.788 -72.495,-45.339 -2.965,-12.872 -1.589,-25.73 3.183,-37.04 l 20.221,-47.681 c 5.203,1.772 10.897,2.327 16.641,1.461 l 9.522,41.131 c 0.326,1.453 1.784,2.356 3.245,2.029 1.445,-0.34 2.36,-1.789 2.033,-3.24 l -9.448,-41.154 c 5.536,-1.736 10.419,-4.724 14.32,-8.602 l 39.052,34.026 c 9.235,8.08 16.107,19.042 19.068,31.905 7.5,32.556 -12.798,65.01 -45.342,72.504"
     style="fill:#000000;fill-opacity:1;fill-rule:nonzero;stroke:none"
     id="path436" />
  <path
     d="m 394.991,561.442 c -2.929,33.258 -32.257,57.861 -65.53,54.942 -13.155,-1.16 -24.966,-6.444 -34.246,-14.472 l -39.094,-33.968 c 3.293,-4.41 5.58,-9.656 6.529,-15.382 l 42.067,3.664 c 1.484,0.132 2.797,-0.978 2.924,-2.462 0.13,-1.488 -0.96,-2.801 -2.45,-2.938 l -42.056,-3.73 c 0.058,-5.802 -1.277,-11.37 -3.752,-16.28 l 44.42,-26.626 c 10.54,-6.286 23.091,-9.434 36.245,-8.282 33.271,2.93 57.87,32.263 54.943,65.534"
     style="fill:#000000;fill-opacity:1;fill-rule:nonzero;stroke:none"
     id="path440" />
</svg>
