<?xml version="1.0" encoding="UTF-8" standalone="no"?>
<!-- Created with Inkscape (http://www.inkscape.org/) -->

<svg
   sodipodi:docname="Ume Tsuru.svg"
   viewBox="0 0 795.03467 793.70135"
   height="793.70135"
   width="795.03467"
   id="svg14987"
   version="1.1"
   inkscape:version="1.2 (dc2aeda, 2022-05-15)"
   xmlns:inkscape="http://www.inkscape.org/namespaces/inkscape"
   xmlns:sodipodi="http://sodipodi.sourceforge.net/DTD/sodipodi-0.dtd"
   xmlns="http://www.w3.org/2000/svg"
   xmlns:svg="http://www.w3.org/2000/svg">
  <defs
     id="defs14991">
    <clipPath
       clipPathUnits="userSpaceOnUse"
       id="clipPath15336">
      <path
         d="M -538.2217,577.9479 H 58.054302 V -17.3281 H -538.2217 Z"
         id="path15338"
         style="stroke-width:0.999998" />
    </clipPath>
    <clipPath
       clipPathUnits="userSpaceOnUse"
       id="clipPath15340">
      <path
         d="M -584.1943,578.9381 H 12.081702 V -16.3379 H -584.1943 Z"
         id="path15342"
         style="stroke-width:0.999998" />
    </clipPath>
    <clipPath
       clipPathUnits="userSpaceOnUse"
       id="clipPath15344">
      <path
         d="M -586.5449,579.5026 H 9.7311024 V -15.7734 H -586.5449 Z"
         id="path15346"
         style="stroke-width:0.999998" />
    </clipPath>
    <clipPath
       clipPathUnits="userSpaceOnUse"
       id="clipPath15348">
      <path
         d="M -556.4014,578.0143 H 39.874602 V -17.2617 H -556.4014 Z"
         id="path15350"
         style="stroke-width:0.999998" />
    </clipPath>
    <clipPath
       clipPathUnits="userSpaceOnUse"
       id="clipPath15352">
      <path
         d="M -550.2637,577.3248 H 46.012302 V -17.9512 H -550.2637 Z"
         id="path15354"
         style="stroke-width:0.999998" />
    </clipPath>
    <clipPath
       clipPathUnits="userSpaceOnUse"
       id="clipPath15356">
      <path
         d="M -568.2266,575.819 H 28.049402 V -19.457 H -568.2266 Z"
         id="path15358"
         style="stroke-width:0.999998" />
    </clipPath>
    <clipPath
       clipPathUnits="userSpaceOnUse"
       id="clipPath15360">
      <path
         d="M -557.4951,577.8502 H 38.780902 V -17.4258 H -557.4951 Z"
         id="path15362"
         style="stroke-width:0.999998" />
    </clipPath>
    <clipPath
       clipPathUnits="userSpaceOnUse"
       id="clipPath15364">
      <path
         d="M -576.3691,585.5885 H 19.906902 V -9.6875 H -576.3691 Z"
         id="path15366"
         style="stroke-width:0.999998" />
    </clipPath>
    <clipPath
       clipPathUnits="userSpaceOnUse"
       id="clipPath15368">
      <path
         d="M -574.5459,585.8522 H 21.730102 V -9.4238 H -574.5459 Z"
         id="path15370"
         style="stroke-width:0.999998" />
    </clipPath>
    <clipPath
       clipPathUnits="userSpaceOnUse"
       id="clipPath15372">
      <path
         d="M -572.8174,586.1354 H 23.458602 V -9.1406 H -572.8174 Z"
         id="path15374"
         style="stroke-width:0.999998" />
    </clipPath>
    <clipPath
       clipPathUnits="userSpaceOnUse"
       id="clipPath15376">
      <path
         d="M -567.7754,585.8522 H 28.500602 V -9.4238 H -567.7754 Z"
         id="path15378"
         style="stroke-width:0.999998" />
    </clipPath>
    <clipPath
       clipPathUnits="userSpaceOnUse"
       id="clipPath15380">
      <path
         d="M -564.5732,585.8483 H 31.702802 V -9.4277 H -564.5732 Z"
         id="path15382"
         style="stroke-width:0.999998" />
    </clipPath>
    <clipPath
       clipPathUnits="userSpaceOnUse"
       id="clipPath15384">
      <path
         d="M -561.4131,585.8522 H 34.862902 V -9.4238 H -561.4131 Z"
         id="path15386"
         style="stroke-width:0.999998" />
    </clipPath>
    <clipPath
       clipPathUnits="userSpaceOnUse"
       id="clipPath15388">
      <path
         d="M -557.0645,585.8483 H 39.211502 V -9.4277 H -557.0645 Z"
         id="path15390"
         style="stroke-width:0.999998" />
    </clipPath>
    <clipPath
       clipPathUnits="userSpaceOnUse"
       id="clipPath15392">
      <path
         d="M -553.8975,585.8483 H 42.378502 V -9.4277 H -553.8975 Z"
         id="path15394"
         style="stroke-width:0.999998" />
    </clipPath>
    <clipPath
       clipPathUnits="userSpaceOnUse"
       id="clipPath15396">
      <path
         d="M -548.9834,585.8522 H 47.292602 V -9.4238 H -548.9834 Z"
         id="path15398"
         style="stroke-width:0.999998" />
    </clipPath>
    <clipPath
       clipPathUnits="userSpaceOnUse"
       id="clipPath15400">
      <path
         d="M -545.417,584.5729 H 50.859002 V -10.7031 H -545.417 Z"
         id="path15402"
         style="stroke-width:0.999998" />
    </clipPath>
    <clipPath
       clipPathUnits="userSpaceOnUse"
       id="clipPath15404">
      <path
         d="M -542.9326,584.5729 H 53.343402 V -10.7031 H -542.9326 Z"
         id="path15406"
         style="stroke-width:0.999998" />
    </clipPath>
    <clipPath
       clipPathUnits="userSpaceOnUse"
       id="clipPath15408">
      <path
         d="M -540.8213,585.8483 H 55.454702 V -9.4277 H -540.8213 Z"
         id="path15410"
         style="stroke-width:0.999998" />
    </clipPath>
    <clipPath
       clipPathUnits="userSpaceOnUse"
       id="clipPath15412">
      <path
         d="M -536.6982,584.5729 H 59.577802 V -10.7031 H -536.6982 Z"
         id="path15414"
         style="stroke-width:0.999998" />
    </clipPath>
    <clipPath
       clipPathUnits="userSpaceOnUse"
       id="clipPath15416">
      <path
         d="M -528.0898,575.3815 H 68.186202 V -19.8945 H -528.0898 Z"
         id="path15418"
         style="stroke-width:0.999998" />
    </clipPath>
    <clipPath
       clipPathUnits="userSpaceOnUse"
       id="clipPath15420">
      <path
         d="M -531.1924,581.5885 H 65.083602 V -13.6875 H -531.1924 Z"
         id="path15422"
         style="stroke-width:0.999998" />
    </clipPath>
    <clipPath
       clipPathUnits="userSpaceOnUse"
       id="clipPath15538">
      <path
         d="m -219.3418,245.7926 h 596.276 v -595.276 h -596.276 z"
         id="path15540"
         style="stroke-width:0.999998" />
    </clipPath>
  </defs>
  <sodipodi:namedview
     id="namedview14989"
     pagecolor="#ffffff"
     bordercolor="#000000"
     borderopacity="0.25"
     inkscape:showpageshadow="2"
     inkscape:pageopacity="0.0"
     inkscape:pagecheckerboard="0"
     inkscape:deskcolor="#d1d1d1"
     showgrid="false"
     inkscape:zoom="0.29734106"
     inkscape:cx="-215.24105"
     inkscape:cy="396.85068"
     inkscape:window-width="1419"
     inkscape:window-height="456"
     inkscape:window-x="1920"
     inkscape:window-y="142"
     inkscape:window-maximized="0"
     inkscape:current-layer="svg14987">
    <inkscape:page
       x="0"
       y="0"
       id="page14993"
       width="795.03467"
       height="793.70135" />
  </sodipodi:namedview>
  <path
     d="M 292.456 327.723 C 295.8 326.224 299.243 324.81 302.764 323.47 C 291.091 298.807 274.583 279.131 257.921 266.542 C 255.877 267.203 253.553 266.859 251.765 265.402 C 248.964 263.118 248.543 258.995 250.825 256.194 C 253.111 253.389 257.233 252.97 260.036 255.253 C 261.612 256.539 262.405 258.407 262.417 260.294 C 280.352 273.834 297.821 294.708 310.048 320.854 C 315.317 319.068 320.767 317.454 326.397 316.018 C 316.731 289.87 303.456 266.502 289.664 249.705 C 287.499 249.861 285.304 248.949 283.924 247.07 C 281.781 244.159 282.405 240.062 285.319 237.919 C 288.231 235.777 292.327 236.402 294.471 239.313 C 295.66 240.931 295.968 242.913 295.529 244.725 C 310.139 262.534 323.983 286.912 333.957 314.212 C 338.692 313.167 343.553 312.251 348.523 311.451 C 342.263 284.742 333.625 258.517 323.629 237.141 C 321.481 236.741 319.579 235.29 318.725 233.102 C 317.413 229.735 319.077 225.941 322.444 224.627 C 325.815 223.311 329.608 224.977 330.921 228.345 C 331.645 230.201 331.437 232.177 330.565 233.806 C 340.933 256.002 349.801 282.93 356.179 310.335 C 361.194 309.672 366.318 309.136 371.556 308.724 C 368.714 282.074 364.397 254.313 358.233 229.563 C 356.264 228.779 354.715 227.063 354.244 224.839 C 353.495 221.303 355.753 217.829 359.29 217.079 C 362.828 216.33 366.302 218.589 367.05 222.126 C 367.48 224.149 366.9 226.135 365.681 227.619 C 371.993 252.969 376.38 281.186 379.25 308.216 C 383.757 307.974 388.34 307.828 392.998 307.776 L 392.998 226.353 C 391.373 225.161 390.305 223.251 390.305 221.083 C 390.305 217.469 393.234 214.537 396.85 214.537 C 400.466 214.537 403.396 217.469 403.396 221.083 C 403.396 223.253 402.326 225.163 400.7 226.355 L 400.7 307.776 C 405.36 307.828 409.944 307.975 414.45 308.216 C 417.32 281.186 421.706 252.969 428.02 227.619 C 426.801 226.135 426.221 224.149 426.65 222.126 C 427.398 218.589 430.873 216.33 434.41 217.079 C 437.948 217.829 440.206 221.303 439.457 224.839 C 438.985 227.063 437.434 228.779 435.469 229.563 C 429.304 254.313 424.985 282.074 422.145 308.724 C 427.38 309.136 432.506 309.672 437.522 310.335 C 443.901 282.93 452.768 256.002 463.136 233.806 C 462.262 232.177 462.056 230.201 462.78 228.345 C 464.093 224.977 467.886 223.311 471.257 224.627 C 474.624 225.941 476.288 229.735 474.976 233.102 C 474.122 235.29 472.221 236.741 470.07 237.141 C 460.076 258.517 451.437 284.743 445.178 311.451 C 450.146 312.252 455.009 313.167 459.744 314.212 C 469.718 286.915 483.562 262.534 498.171 244.725 C 497.733 242.913 498.039 240.931 499.231 239.313 C 501.373 236.402 505.47 235.777 508.381 237.919 C 511.295 240.062 511.919 244.159 509.777 247.07 C 508.397 248.949 506.202 249.861 504.037 249.705 C 490.245 266.502 476.97 289.87 467.304 316.018 C 472.933 317.456 478.384 319.068 483.652 320.855 C 495.877 294.708 513.347 273.834 531.283 260.294 C 531.297 258.407 532.089 256.539 533.665 255.253 C 536.467 252.97 540.59 253.389 542.874 256.194 C 545.157 258.995 544.737 263.118 541.934 265.402 C 540.147 266.859 537.822 267.203 535.779 266.542 C 519.118 279.131 502.609 298.81 490.936 323.471 C 494.457 324.812 497.898 326.224 501.242 327.723 C 509.153 316.252 518.878 305.864 529.795 296.843 C 554.762 276.24 586.142 262.348 618.018 258.603 C 590.391 210.485 538.498 178.077 479.034 178.077 C 448.986 178.077 420.876 186.358 396.85 200.753 C 372.824 186.358 344.715 178.077 314.668 178.077 C 255.204 178.077 203.31 210.485 175.684 258.603 C 207.559 262.347 238.936 276.24 263.901 296.843 C 274.819 305.864 284.544 316.252 292.456 327.723 M 262.209 633.292 C 257.651 633.292 253.955 629.598 253.955 625.036 C 253.955 620.476 257.651 616.784 262.209 616.784 C 266.768 616.784 270.463 620.476 270.463 625.036 C 270.463 629.598 266.768 633.292 262.209 633.292 M 448.613 527.136 C 445.689 521.161 437.51 504.565 420.816 491.352 C 407.136 480.524 396.846 477.969 396.846 477.969 C 396.846 477.969 386.557 480.524 372.877 491.352 C 356.183 504.565 348.004 521.161 345.08 527.136 C 340.516 523.943 331.048 515.383 303.395 515.383 C 288.036 515.383 273.315 521.073 260.052 528.76 C 279.477 543.784 297.16 548.958 318.277 550.38 C 378.933 556.038 379.03 591.018 350.788 603.857 C 324.793 615.672 298.72 594.049 266.916 597.437 C 230.757 601.292 225.631 625.145 220.915 634.24 C 217.491 640.841 212.076 641.656 201.656 647.612 C 189.302 654.672 179.512 662.213 168.067 673.819 C 162.622 679.341 162.931 681.309 176.411 675.319 C 189.89 669.33 211.928 661.411 230.543 657.346 C 249.157 653.284 281.037 646.864 321.476 641.513 C 361.913 636.164 384.528 626.937 411.765 604.497 C 439.1 581.978 450.769 556.106 490.78 548.497 C 505.399 545.708 519.222 539.917 533.645 528.762 C 520.382 521.073 505.658 515.383 490.298 515.383 C 462.645 515.383 453.177 523.943 448.613 527.136 M 396.85 316.722 C 283.728 316.722 218.424 373.718 218.424 444.028 C 218.424 477.133 229.356 501.948 252.668 522.664 C 267.439 513.675 284.571 506.473 303.395 506.399 C 323.376 506.38 335.767 510.924 341.821 513.976 C 345.715 507.344 354.397 494.197 367.421 484.216 C 385.448 470.399 396.844 468.765 396.849 468.765 C 396.849 468.765 408.245 470.399 426.272 484.216 C 439.296 494.197 447.978 507.344 451.872 513.976 C 457.926 510.924 470.317 506.38 490.298 506.399 C 509.122 506.473 526.257 513.675 541.027 522.664 C 564.339 501.951 575.277 477.133 575.277 444.028 C 575.277 373.718 509.973 316.722 396.85 316.722 M 596.339 142.782 L 596.339 159.793 C 596.339 168.459 596.019 175.839 589.599 184.666 C 585.961 189.673 581.49 193.957 575.586 199.361 C 579.863 202.342 584.002 205.509 587.979 208.861 C 600.614 196.61 617.125 179.51 627.471 167.495 C 640.679 152.154 644.72 142.221 645.283 133.875 C 645.74 127.072 642.871 125.88 640.79 131.389 C 639.427 134.999 637.742 138.369 635.254 142.701 C 630.992 150.126 626.027 149.039 623.781 138.77 C 621.534 128.501 617.923 132.353 618.323 138.851 C 618.571 142.855 618.646 145.67 617.522 155.779 C 616.398 165.89 606.93 166.854 605.809 159.953 C 604.685 153.053 603.401 148.559 600.351 141.979 C 598.299 137.553 596.339 140.375 596.339 142.782 M 584.317 134.435 C 594.522 121.23 600.417 114.59 600.685 99.2929 C 600.897 87.0609 596.386 97.0622 592.339 106.032 C 587.634 116.464 585.011 118.282 579.983 105.872 C 575.417 94.6022 574.467 101.646 574.85 110.848 C 575.277 121.116 573.887 132.082 567.202 132.082 C 561.425 132.082 561.677 122.368 557.786 112.665 C 553.882 102.93 551.583 110.097 552.759 124.808 C 553.833 138.245 551.421 148.717 546.125 155.297 C 542.034 160.378 535.165 168.683 528.109 176.343 C 533.37 177.935 538.521 179.778 543.551 181.858 C 555.851 167.894 574.102 147.649 584.317 134.435 M 634.951 266.571 C 587.295 266.571 536.893 292.823 509.47 331.654 C 518.327 336.162 526.489 341.239 533.905 346.839 C 566.349 371.271 584.334 406.033 584.263 444.028 C 584.27 461.557 581.346 477.364 575.131 491.585 C 573.186 496.049 570.919 500.341 568.341 504.472 C 589.355 514.729 612.458 520.584 634.951 520.584 C 705.094 520.584 761.957 463.724 761.957 393.579 C 761.957 323.432 705.094 266.571 634.951 266.571 M 218.567 491.584 C 212.35 477.364 209.428 461.557 209.436 444.028 C 209.367 406.033 227.347 371.271 259.796 346.839 C 267.211 341.238 275.372 336.162 284.231 331.651 C 256.807 292.823 206.406 266.571 158.75 266.571 C 88.6058 266.571 31.742 323.432 31.742 393.579 C 31.742 463.724 88.6058 520.584 158.75 520.584 C 181.242 520.584 204.346 514.729 225.359 504.472 C 222.78 500.341 220.512 496.047 218.567 491.584"
     style="fill:#000000;fill-opacity:1;fill-rule:nonzero;stroke:none"
     id="path15107" />
</svg>
