<?xml version="1.0" encoding="UTF-8" standalone="no"?>
<!-- Created with Inkscape (http://www.inkscape.org/) -->

<svg
   version="1.1"
   id="svg8086"
   width="795.03467"
   height="793.70135"
   viewBox="0 0 795.03467 793.70135"
   sodipodi:docname="Yae Mukou Ume.svg"
   inkscape:version="1.2 (dc2aeda, 2022-05-15)"
   xmlns:inkscape="http://www.inkscape.org/namespaces/inkscape"
   xmlns:sodipodi="http://sodipodi.sourceforge.net/DTD/sodipodi-0.dtd"
   xmlns="http://www.w3.org/2000/svg"
   xmlns:svg="http://www.w3.org/2000/svg">
  <defs
     id="defs8090">
    <clipPath
       clipPathUnits="userSpaceOnUse"
       id="clipPath8525">
      <path
         d="M -531.1924,581.5885 H 65.083602 V -13.6875 H -531.1924 Z"
         id="path8527"
         style="stroke-width:0.999998" />
    </clipPath>
    <clipPath
       clipPathUnits="userSpaceOnUse"
       id="clipPath8531">
      <path
         d="M -545.417,584.5729 H 50.859002 V -10.7031 H -545.417 Z"
         id="path8533"
         style="stroke-width:0.999998" />
    </clipPath>
    <clipPath
       clipPathUnits="userSpaceOnUse"
       id="clipPath8537">
      <path
         d="M -542.9326,584.5729 H 53.343402 V -10.7031 H -542.9326 Z"
         id="path8539"
         style="stroke-width:0.999998" />
    </clipPath>
    <clipPath
       clipPathUnits="userSpaceOnUse"
       id="clipPath8543">
      <path
         d="M -567.7754,585.8522 H 28.500602 V -9.4238 H -567.7754 Z"
         id="path8545"
         style="stroke-width:0.999998" />
    </clipPath>
    <clipPath
       clipPathUnits="userSpaceOnUse"
       id="clipPath8549">
      <path
         d="M -528.0898,575.3815 H 68.186202 V -19.8945 H -528.0898 Z"
         id="path8551"
         style="stroke-width:0.999998" />
    </clipPath>
    <clipPath
       clipPathUnits="userSpaceOnUse"
       id="clipPath8556">
      <path
         d="M -564.5732,585.8483 H 31.702802 V -9.4277 H -564.5732 Z"
         id="path8558"
         style="stroke-width:0.999998" />
    </clipPath>
    <clipPath
       clipPathUnits="userSpaceOnUse"
       id="clipPath8562">
      <path
         d="M -557.0645,585.8483 H 39.211502 V -9.4277 H -557.0645 Z"
         id="path8564"
         style="stroke-width:0.999998" />
    </clipPath>
    <clipPath
       clipPathUnits="userSpaceOnUse"
       id="clipPath8568">
      <path
         d="m -297.6377,268.3307 h 596.276 v -595.276 h -596.276 z"
         id="path8570"
         style="stroke-width:0.999998" />
    </clipPath>
    <clipPath
       clipPathUnits="userSpaceOnUse"
       id="clipPath8574">
      <path
         d="M -538.2217,577.9479 H 58.054302 V -17.3281 H -538.2217 Z"
         id="path8576"
         style="stroke-width:0.999998" />
    </clipPath>
    <clipPath
       clipPathUnits="userSpaceOnUse"
       id="clipPath8580">
      <path
         d="M -584.1943,578.9381 H 12.081702 V -16.3379 H -584.1943 Z"
         id="path8582"
         style="stroke-width:0.999998" />
    </clipPath>
    <clipPath
       clipPathUnits="userSpaceOnUse"
       id="clipPath8586">
      <path
         d="M -586.5449,579.5026 H 9.7311024 V -15.7734 H -586.5449 Z"
         id="path8588"
         style="stroke-width:0.999998" />
    </clipPath>
    <clipPath
       clipPathUnits="userSpaceOnUse"
       id="clipPath8592">
      <path
         d="M -556.4014,578.0143 H 39.874602 V -17.2617 H -556.4014 Z"
         id="path8594"
         style="stroke-width:0.999998" />
    </clipPath>
    <clipPath
       clipPathUnits="userSpaceOnUse"
       id="clipPath8598">
      <path
         d="M -568.2266,575.819 H 28.049402 V -19.457 H -568.2266 Z"
         id="path8600"
         style="stroke-width:0.999998" />
    </clipPath>
    <clipPath
       clipPathUnits="userSpaceOnUse"
       id="clipPath8605">
      <path
         d="M -550.2637,577.3248 H 46.012302 V -17.9512 H -550.2637 Z"
         id="path8607"
         style="stroke-width:0.999998" />
    </clipPath>
    <clipPath
       clipPathUnits="userSpaceOnUse"
       id="clipPath8611">
      <path
         d="M -557.4951,577.8502 H 38.780902 V -17.4258 H -557.4951 Z"
         id="path8613"
         style="stroke-width:0.999998" />
    </clipPath>
    <clipPath
       clipPathUnits="userSpaceOnUse"
       id="clipPath8617">
      <path
         d="M -572.8174,586.1354 H 23.458602 V -9.1406 H -572.8174 Z"
         id="path8619"
         style="stroke-width:0.999998" />
    </clipPath>
    <clipPath
       clipPathUnits="userSpaceOnUse"
       id="clipPath8623">
      <path
         d="M -576.3691,585.5885 H 19.906902 V -9.6875 H -576.3691 Z"
         id="path8625"
         style="stroke-width:0.999998" />
    </clipPath>
    <clipPath
       clipPathUnits="userSpaceOnUse"
       id="clipPath8629">
      <path
         d="M -574.5459,585.8522 H 21.730102 V -9.4238 H -574.5459 Z"
         id="path8631"
         style="stroke-width:0.999998" />
    </clipPath>
    <clipPath
       clipPathUnits="userSpaceOnUse"
       id="clipPath8635">
      <path
         d="M -553.8975,585.8483 H 42.378502 V -9.4277 H -553.8975 Z"
         id="path8637"
         style="stroke-width:0.999998" />
    </clipPath>
    <clipPath
       clipPathUnits="userSpaceOnUse"
       id="clipPath8641">
      <path
         d="M -536.6982,584.5729 H 59.577802 V -10.7031 H -536.6982 Z"
         id="path8643"
         style="stroke-width:0.999998" />
    </clipPath>
    <clipPath
       clipPathUnits="userSpaceOnUse"
       id="clipPath8647">
      <path
         d="M -548.9834,585.8522 H 47.292602 V -9.4238 H -548.9834 Z"
         id="path8649"
         style="stroke-width:0.999998" />
    </clipPath>
    <clipPath
       clipPathUnits="userSpaceOnUse"
       id="clipPath8653">
      <path
         d="M -540.8213,585.8483 H 55.454702 V -9.4277 H -540.8213 Z"
         id="path8655"
         style="stroke-width:0.999998" />
    </clipPath>
    <clipPath
       clipPathUnits="userSpaceOnUse"
       id="clipPath8659">
      <path
         d="M -561.4131,585.8522 H 34.862902 V -9.4238 H -561.4131 Z"
         id="path8661"
         style="stroke-width:0.999998" />
    </clipPath>
  </defs>
  <sodipodi:namedview
     id="namedview8088"
     pagecolor="#ffffff"
     bordercolor="#000000"
     borderopacity="0.25"
     inkscape:showpageshadow="2"
     inkscape:pageopacity="0.0"
     inkscape:pagecheckerboard="0"
     inkscape:deskcolor="#d1d1d1"
     showgrid="false"
     inkscape:zoom="0.29734106"
     inkscape:cx="-215.24105"
     inkscape:cy="396.85068"
     inkscape:window-width="1419"
     inkscape:window-height="456"
     inkscape:window-x="1920"
     inkscape:window-y="142"
     inkscape:window-maximized="0"
     inkscape:current-layer="svg8086">
    <inkscape:page
       x="0"
       y="0"
       id="page8092"
       width="795.03467"
       height="793.70135" />
  </sodipodi:namedview>
  <path
     d="m 396.85,357.775 c -21.584,0 -39.079,17.496 -39.079,39.078 0,21.58 17.495,39.074 39.079,39.074 21.581,0 39.076,-17.494 39.076,-39.074 0,-21.582 -17.495,-39.078 -39.076,-39.078 m 0,311.378 c -24.723,31.516 -59.159,51.371 -95.935,58.383 26.072,21.513 59.496,34.437 95.937,34.437 36.444,0 69.867,-12.923 95.94,-34.437 -36.781,-7.012 -71.218,-26.865 -95.942,-58.383 M 236.793,176.556 c 1.481,-40.044 17.66,-76.328 43.298,-103.6239 -33.738,-2.0786 -68.374,7.1107 -97.855,28.5309 -29.49,21.424 -48.935,51.533 -57.379,84.272 21.072,-9.924 44.313,-15.312 68.16,-15.31 14.497,0 29.216,1.987 43.776,6.131 m 363.892,-6.131 c 23.845,-0.002 47.084,5.384 68.155,15.307 -8.444,-32.739 -27.89,-62.847 -57.376,-84.271 -29.481,-21.4195 -64.117,-30.6102 -97.853,-28.5302 25.638,27.2942 41.817,63.5802 43.293,103.6252 14.56,-4.143 29.281,-6.131 43.781,-6.131 M 137.877,480.998 c -37.631,-13.787 -67.1278,-40.395 -85.1651,-73.213 -12.4107,31.448 -14.376,67.234 -3.112,101.898 11.2613,34.661 33.8839,62.457 62.4041,80.604 -0.847,-6.693 -1.29,-13.437 -1.287,-20.196 -0.005,-30.759 8.851,-61.841 27.16,-89.093 m 603.112,-73.224 c -18.036,32.823 -47.533,59.432 -85.167,73.221 18.308,27.255 27.166,58.34 27.163,89.101 10e-4,6.756 -0.441,13.498 -1.287,20.188 28.52,-18.148 51.143,-45.945 62.405,-80.605 11.264,-34.667 9.298,-70.457 -3.114,-101.905 m -296.421,-9.308 148.768,15.636 c 1.36,-1.807 3.587,-2.893 5.999,-2.637 3.653,0.382 6.303,3.656 5.919,7.309 -0.384,3.653 -3.656,6.305 -7.31,5.919 -2.412,-0.252 -4.367,-1.776 -5.319,-3.83 L 443.866,405.23 c -0.187,1.044 -0.419,2.084 -0.675,3.123 l 142.27,46.226 c 1.703,-1.488 4.11,-2.085 6.415,-1.336 3.495,1.135 5.405,4.89 4.271,8.383 -1.136,3.493 -4.888,5.405 -8.382,4.27 -2.309,-0.75 -3.902,-2.648 -4.406,-4.853 L 441.084,414.817 c -0.398,0.98 -0.833,1.95 -1.302,2.913 l 129.558,74.801 c 1.977,-1.099 4.453,-1.184 6.553,0.029 3.183,1.836 4.271,5.906 2.435,9.086 -1.837,3.182 -5.905,4.273 -9.088,2.434 -2.1,-1.213 -3.265,-3.398 -3.3,-5.661 L 436.382,423.618 c -0.594,0.88 -1.223,1.737 -1.879,2.58 l 111.168,100.096 c 2.161,-0.663 4.602,-0.234 6.402,1.392 2.731,2.456 2.951,6.664 0.492,9.392 -2.456,2.729 -6.664,2.95 -9.393,0.496 -1.803,-1.626 -2.488,-4.006 -2.051,-6.227 L 429.954,431.253 c -0.763,0.734 -1.559,1.44 -2.378,2.129 l 87.932,121.028 c 2.253,-0.2 4.549,0.728 5.975,2.692 2.158,2.972 1.498,7.132 -1.472,9.289 -2.971,2.16 -7.134,1.503 -9.294,-1.469 -1.425,-1.963 -1.6,-4.435 -0.71,-6.515 L 422.072,437.375 c -0.452,0.28 -0.9,0.566 -1.364,0.834 -0.462,0.268 -0.932,0.51 -1.398,0.761 l 60.849,136.668 c 2.242,0.276 4.297,1.661 5.284,3.877 1.492,3.355 -0.018,7.288 -3.372,8.781 -3.355,1.495 -7.29,-0.014 -8.784,-3.37 -0.986,-2.218 -0.643,-4.671 0.66,-6.52 L 413.1,441.742 c -1.005,0.365 -2.016,0.701 -3.034,0.996 l 31.101,146.317 c 2.139,0.735 3.86,2.519 4.363,4.89 0.765,3.592 -1.532,7.126 -5.123,7.888 -3.593,0.766 -7.127,-1.529 -7.891,-5.122 -0.504,-2.374 0.342,-4.703 2,-6.241 L 403.415,444.149 c -1.057,0.148 -2.117,0.265 -3.176,0.341 v 149.583 c 1.939,1.162 3.251,3.263 3.251,5.688 0,3.674 -2.98,6.652 -6.652,6.652 -3.674,0 -6.652,-2.978 -6.652,-6.652 0,-2.425 1.31,-4.528 3.253,-5.688 l -0.001,-149.588 c -1.062,-0.075 -2.119,-0.199 -3.172,-0.347 L 359.162,590.47 c 1.654,1.541 2.501,3.869 1.997,6.241 -0.765,3.593 -4.299,5.885 -7.891,5.122 -3.593,-0.762 -5.888,-4.296 -5.124,-7.888 0.506,-2.373 2.227,-4.157 4.367,-4.889 l 31.103,-146.334 c -1.022,-0.295 -2.035,-0.619 -3.036,-0.981 L 319.73,578.407 c 1.3,1.849 1.645,4.304 0.656,6.517 -1.493,3.358 -5.427,4.866 -8.781,3.374 -3.356,-1.495 -4.866,-5.428 -3.372,-8.783 0.986,-2.216 3.04,-3.604 5.286,-3.876 l 60.845,-136.66 c -0.938,-0.5 -1.864,-1.028 -2.768,-1.59 L 283.67,558.407 c 0.885,2.08 0.712,4.552 -0.713,6.513 -2.159,2.974 -6.32,3.631 -9.292,1.472 -2.971,-2.16 -3.63,-6.318 -1.471,-9.29 1.425,-1.964 3.723,-2.894 5.976,-2.692 l 87.921,-121.013 c -0.812,-0.683 -1.599,-1.404 -2.367,-2.147 L 252.555,531.348 c 0.435,2.219 -0.249,4.6 -2.052,6.223 -2.73,2.457 -6.936,2.236 -9.393,-0.492 -2.457,-2.729 -2.239,-6.937 0.491,-9.395 1.804,-1.624 4.244,-2.056 6.405,-1.389 L 359.178,426.194 c -0.648,-0.835 -1.272,-1.696 -1.872,-2.584 l -129.547,74.794 c -0.04,2.26 -1.202,4.451 -3.302,5.66 -3.182,1.838 -7.25,0.746 -9.086,-2.433 -1.837,-3.183 -0.748,-7.251 2.432,-9.089 2.102,-1.212 4.578,-1.128 6.555,-0.026 l 129.544,-74.794 c -0.464,-0.953 -0.891,-1.929 -1.294,-2.919 l -142.269,46.225 c -0.508,2.204 -2.1,4.104 -4.406,4.851 -3.494,1.136 -7.247,-0.779 -8.38,-4.269 -1.136,-3.495 0.775,-7.248 4.269,-8.384 2.307,-0.749 4.712,-0.152 6.416,1.337 l 142.268,-46.226 c -0.255,-1.03 -0.468,-2.071 -0.656,-3.124 L 201.071,420.85 c -0.953,2.049 -2.906,3.575 -5.317,3.828 -3.654,0.384 -6.928,-2.268 -7.31,-5.92 -0.386,-3.653 2.266,-6.927 5.92,-7.312 2.412,-0.253 4.64,0.831 5.997,2.641 l 148.783,-15.638 c -0.016,-0.532 -0.04,-1.063 -0.04,-1.599 0,-0.535 0.024,-1.061 0.04,-1.592 L 200.361,379.622 c -1.36,1.805 -3.587,2.892 -5.997,2.637 -3.654,-0.384 -6.304,-3.658 -5.92,-7.309 0.382,-3.653 3.656,-6.307 7.31,-5.924 2.412,0.256 4.367,1.779 5.317,3.833 l 148.779,15.636 c 0.185,-1.053 0.401,-2.096 0.653,-3.125 L 208.238,339.146 c -1.705,1.485 -4.109,2.084 -6.416,1.333 -3.493,-1.134 -5.404,-4.89 -4.27,-8.381 1.134,-3.493 4.886,-5.406 8.381,-4.272 2.308,0.751 3.901,2.645 4.405,4.853 l 142.269,46.226 c 0.401,-0.991 0.828,-1.967 1.292,-2.922 L 224.358,301.192 c -1.977,1.098 -4.453,1.184 -6.553,-0.03 -3.182,-1.836 -4.27,-5.906 -2.434,-9.085 1.836,-3.181 5.903,-4.272 9.086,-2.436 2.101,1.215 3.265,3.4 3.3,5.663 l 129.546,74.791 c 0.599,-0.881 1.235,-1.736 1.888,-2.573 L 248.015,267.42 c -2.161,0.661 -4.601,0.232 -6.402,-1.391 -2.731,-2.457 -2.951,-6.667 -0.492,-9.393 2.457,-2.731 6.664,-2.952 9.393,-0.495 1.804,1.624 2.488,4.005 2.052,6.225 L 363.743,362.47 c 0.765,-0.737 1.553,-1.453 2.367,-2.139 L 278.178,239.304 c -2.251,0.2 -4.549,-0.73 -5.973,-2.691 -2.16,-2.973 -1.499,-7.133 1.47,-9.292 2.974,-2.159 7.134,-1.501 9.292,1.472 1.427,1.961 1.602,4.435 0.714,6.515 l 87.929,121.023 c 0.901,-0.564 1.821,-1.1 2.761,-1.602 L 313.529,218.074 c -2.244,-0.273 -4.299,-1.66 -5.284,-3.876 -1.494,-3.356 0.017,-7.288 3.37,-8.781 3.358,-1.495 7.29,0.013 8.783,3.371 0.987,2.216 0.645,4.67 -0.657,6.52 l 60.841,136.649 c 0.997,-0.362 2.013,-0.68 3.04,-0.978 L 352.519,204.657 c -2.139,-0.735 -3.86,-2.517 -4.363,-4.888 -0.764,-3.593 1.532,-7.126 5.123,-7.89 3.595,-0.763 7.128,1.53 7.891,5.123 0.505,2.374 -0.342,4.702 -2,6.243 l 31.104,146.326 c 1.048,-0.145 2.106,-0.253 3.174,-0.328 V 199.64 c -1.94,-1.163 -3.252,-3.264 -3.252,-5.688 0,-3.675 2.979,-6.651 6.654,-6.651 3.672,0 6.65,2.976 6.65,6.651 0,2.426 -1.312,4.528 -3.252,5.689 v 149.602 c 1.06,0.074 2.119,0.192 3.176,0.338 l 31.102,-146.323 c -1.655,-1.538 -2.503,-3.869 -1.996,-6.238 0.762,-3.595 4.296,-5.887 7.888,-5.123 3.593,0.762 5.888,4.295 5.125,7.888 -0.505,2.373 -2.224,4.156 -4.367,4.888 l -31.1,146.321 c 1.018,0.293 2.027,0.629 3.032,0.993 l 60.848,-136.663 c -1.3,-1.852 -1.643,-4.306 -0.656,-6.52 1.493,-3.355 5.427,-4.864 8.781,-3.371 3.356,1.493 4.867,5.427 3.375,8.783 -0.989,2.214 -3.041,3.602 -5.289,3.873 l -60.848,136.669 c 0.469,0.252 0.941,0.497 1.405,0.765 0.462,0.267 0.908,0.552 1.358,0.831 l 87.934,-121.033 c -0.885,-2.077 -0.712,-4.552 0.713,-6.513 2.16,-2.971 6.32,-3.63 9.292,-1.471 2.971,2.159 3.632,6.32 1.474,9.292 -1.427,1.963 -3.724,2.893 -5.978,2.689 l -87.93,121.028 c 0.82,0.687 1.616,1.396 2.379,2.128 L 541.131,262.381 c -0.432,-2.219 0.249,-4.601 2.053,-6.223 2.729,-2.458 6.936,-2.236 9.393,0.494 2.46,2.729 2.239,6.934 -0.49,9.394 -1.806,1.623 -4.244,2.056 -6.407,1.387 L 434.514,367.529 c 0.656,0.842 1.289,1.701 1.882,2.581 L 565.94,295.318 c 0.037,-2.26 1.201,-4.449 3.301,-5.66 3.182,-1.837 7.25,-0.745 9.086,2.435 1.837,3.181 0.748,7.249 -2.434,9.088 -2.101,1.212 -4.577,1.127 -6.554,0.025 l -129.544,74.795 c 0.464,0.958 0.885,1.936 1.285,2.921 l 142.28,-46.229 c 0.505,-2.203 2.099,-4.102 4.404,-4.85 3.495,-1.134 7.247,0.78 8.383,4.271 1.134,3.493 -0.776,7.245 -4.27,8.383 -2.309,0.749 -4.713,0.15 -6.417,-1.338 l -142.281,46.232 c 0.256,1.031 0.481,2.072 0.668,3.12 l 148.778,-15.638 c 0.955,-2.05 2.907,-3.575 5.319,-3.828 3.654,-0.383 6.926,2.268 7.31,5.921 0.384,3.652 -2.266,6.925 -5.919,7.311 -2.412,0.252 -4.642,-0.831 -5.999,-2.64 l -148.773,15.636 c 0.037,1.064 0.041,2.126 0.005,3.193 m 196.068,77.597 c 2.21,-0.608 4.421,-1.264 6.628,-1.98 79.224,-25.741 122.579,-110.836 96.837,-190.059 -25.741,-79.228 -110.833,-122.583 -190.057,-96.84 -2.205,0.716 -4.377,1.487 -6.525,2.292 0.101,-2.292 0.164,-4.595 0.164,-6.912 0,-83.3026 -67.531,-150.8331 -150.833,-150.8331 -83.307,0 -150.833,67.5305 -150.833,150.8331 0,2.317 0.062,4.62 0.166,6.912 -2.148,-0.805 -4.32,-1.576 -6.526,-2.292 -79.224,-25.741 -164.3172,17.617 -190.0585,96.841 -25.7452,79.228 17.6133,164.317 96.8395,190.058 2.204,0.719 4.412,1.372 6.626,1.98 -1.432,1.795 -2.834,3.623 -4.195,5.497 -48.9639,67.395 -34.024,161.72 33.369,210.685 67.396,48.965 161.718,34.023 210.682,-33.37 1.362,-1.876 2.667,-3.774 3.93,-5.69 1.262,1.916 2.568,3.814 3.932,5.69 48.964,67.393 143.291,82.33 210.684,33.368 67.394,-48.966 82.331,-143.288 33.367,-210.683 -1.364,-1.874 -2.765,-3.702 -4.197,-5.497"
     style="fill:#000000;fill-opacity:1;fill-rule:nonzero;stroke:none"
     id="path8206" />
</svg>
