<?xml version="1.0" encoding="UTF-8" standalone="no"?>
<!-- Created with Inkscape (http://www.inkscape.org/) -->

<svg
   inkscape:version="1.2 (dc2aeda, 2022-05-15)"
   sodipodi:docname="goshichigiri.svg"
   viewBox="0 0 793.70135 793.70135"
   height="793.70135"
   width="793.70135"
   id="svg3421"
   version="1.1"
   xmlns:inkscape="http://www.inkscape.org/namespaces/inkscape"
   xmlns:sodipodi="http://sodipodi.sourceforge.net/DTD/sodipodi-0.dtd"
   xmlns="http://www.w3.org/2000/svg"
   xmlns:svg="http://www.w3.org/2000/svg">
  <defs
     id="defs3425">
    <clipPath
       clipPathUnits="userSpaceOnUse"
       id="clipPath1767">
      <path
         d="M -541.9326,584.1871 H 53.343397 V -11.0889 H -541.9326 Z"
         id="path1769"
         style="stroke-width:0.999998" />
    </clipPath>
    <clipPath
       clipPathUnits="userSpaceOnUse"
       id="clipPath1773">
      <path
         d="M -539.8213,585.4625 H 55.454697 V -9.8135 H -539.8213 Z"
         id="path1775"
         style="stroke-width:0.999998" />
    </clipPath>
    <clipPath
       clipPathUnits="userSpaceOnUse"
       id="clipPath1779">
      <path
         d="M -527.0898,574.9957 H 68.186197 V -20.2803 H -527.0898 Z"
         id="path1781"
         style="stroke-width:0.999998" />
    </clipPath>
    <clipPath
       clipPathUnits="userSpaceOnUse"
       id="clipPath1785">
      <path
         d="M -535.6982,584.1871 H 59.577797 V -11.0889 H -535.6982 Z"
         id="path1787"
         style="stroke-width:0.999998" />
    </clipPath>
    <clipPath
       clipPathUnits="userSpaceOnUse"
       id="clipPath1791">
      <path
         d="M -530.1924,581.2028 H 65.083597 V -14.0732 H -530.1924 Z"
         id="path1793"
         style="stroke-width:0.999998" />
    </clipPath>
    <clipPath
       clipPathUnits="userSpaceOnUse"
       id="clipPath1797">
      <path
         d="M -544.417,584.1871 H 50.858997 V -11.0889 H -544.417 Z"
         id="path1799"
         style="stroke-width:0.999998" />
    </clipPath>
    <clipPath
       clipPathUnits="userSpaceOnUse"
       id="clipPath1803">
      <path
         d="M -547.9834,585.4664 H 47.292597 V -9.8096 H -547.9834 Z"
         id="path1805"
         style="stroke-width:0.999998" />
    </clipPath>
    <clipPath
       clipPathUnits="userSpaceOnUse"
       id="clipPath1809">
      <path
         d="M -552.8975,585.4625 H 42.378497 V -9.8135 H -552.8975 Z"
         id="path1811"
         style="stroke-width:0.999998" />
    </clipPath>
    <clipPath
       clipPathUnits="userSpaceOnUse"
       id="clipPath1815">
      <path
         d="M -556.0645,585.4625 H 39.211497 V -9.8135 H -556.0645 Z"
         id="path1817"
         style="stroke-width:0.999998" />
    </clipPath>
    <clipPath
       clipPathUnits="userSpaceOnUse"
       id="clipPath1821">
      <path
         d="M -560.4131,585.4664 H 34.862897 V -9.8096 H -560.4131 Z"
         id="path1823"
         style="stroke-width:0.999998" />
    </clipPath>
    <clipPath
       clipPathUnits="userSpaceOnUse"
       id="clipPath1827">
      <path
         d="M -563.5732,585.4625 H 31.702797 V -9.8135 H -563.5732 Z"
         id="path1829"
         style="stroke-width:0.999998" />
    </clipPath>
    <clipPath
       clipPathUnits="userSpaceOnUse"
       id="clipPath1833">
      <path
         d="M -566.7754,585.4664 H 28.500597 V -9.8096 H -566.7754 Z"
         id="path1835"
         style="stroke-width:0.999998" />
    </clipPath>
    <clipPath
       clipPathUnits="userSpaceOnUse"
       id="clipPath1840">
      <path
         d="M -571.8174,585.7496 H 23.458597 V -9.5264 H -571.8174 Z"
         id="path1842"
         style="stroke-width:0.999998" />
    </clipPath>
    <clipPath
       clipPathUnits="userSpaceOnUse"
       id="clipPath1846">
      <path
         d="M -573.5459,585.4664 H 21.730097 V -9.8096 H -573.5459 Z"
         id="path1848"
         style="stroke-width:0.999998" />
    </clipPath>
    <clipPath
       clipPathUnits="userSpaceOnUse"
       id="clipPath1852">
      <path
         d="M -575.3691,585.2028 H 19.906897 V -10.0732 H -575.3691 Z"
         id="path1854"
         style="stroke-width:0.999998" />
    </clipPath>
    <clipPath
       clipPathUnits="userSpaceOnUse"
       id="clipPath1858">
      <path
         d="M -556.4951,577.4645 H 38.780897 V -17.8115 H -556.4951 Z"
         id="path1860"
         style="stroke-width:0.999998" />
    </clipPath>
    <clipPath
       clipPathUnits="userSpaceOnUse"
       id="clipPath1864">
      <path
         d="M -567.2266,575.4332 H 28.049397 V -19.8428 H -567.2266 Z"
         id="path1866"
         style="stroke-width:0.999998" />
    </clipPath>
    <clipPath
       clipPathUnits="userSpaceOnUse"
       id="clipPath1870">
      <path
         d="M -549.2637,576.9391 H 46.012297 V -18.3369 H -549.2637 Z"
         id="path1872"
         style="stroke-width:0.999998" />
    </clipPath>
    <clipPath
       clipPathUnits="userSpaceOnUse"
       id="clipPath1877">
      <path
         d="M -555.4014,577.6285 H 39.874597 V -17.6475 H -555.4014 Z"
         id="path1879"
         style="stroke-width:0.999998" />
    </clipPath>
    <clipPath
       clipPathUnits="userSpaceOnUse"
       id="clipPath1883">
      <path
         d="M -585.5449,579.1168 H 9.7310974 V -16.1592 H -585.5449 Z"
         id="path1885"
         style="stroke-width:0.999998" />
    </clipPath>
    <clipPath
       clipPathUnits="userSpaceOnUse"
       id="clipPath1889">
      <path
         d="M -583.1943,578.5524 H 12.081697 V -16.7236 H -583.1943 Z"
         id="path1891"
         style="stroke-width:0.999998" />
    </clipPath>
    <clipPath
       clipPathUnits="userSpaceOnUse"
       id="clipPath1895">
      <path
         d="M -537.2217,577.5621 H 58.054297 V -17.7139 H -537.2217 Z"
         id="path1897"
         style="stroke-width:0.999998" />
    </clipPath>
    <clipPath
       clipPathUnits="userSpaceOnUse"
       id="clipPath1901">
      <path
         d="m -256.0298,306.4039 h 595.276 v -595.276 h -595.276 z"
         id="path1903"
         style="stroke-width:0.999998" />
    </clipPath>
    <clipPath
       clipPathUnits="userSpaceOnUse"
       id="clipPath1907">
      <path
         d="m -275.4497,298.2838 h 595.276 v -595.276 h -595.276 z"
         id="path1909"
         style="stroke-width:0.999998" />
    </clipPath>
    <clipPath
       clipPathUnits="userSpaceOnUse"
       id="clipPath1913">
      <path
         d="m -280.8677,314.8531 h 595.276 v -595.276 h -595.276 z"
         id="path1915"
         style="stroke-width:0.999998" />
    </clipPath>
    <clipPath
       clipPathUnits="userSpaceOnUse"
       id="clipPath1919">
      <path
         d="m -297.6411,563.9459 h 595.276 v -595.276 h -595.276 z"
         id="path1921"
         style="stroke-width:0.999998" />
    </clipPath>
    <clipPath
       clipPathUnits="userSpaceOnUse"
       id="clipPath1925">
      <path
         d="m -339.2461,306.4039 h 595.276 v -595.276 h -595.276 z"
         id="path1927"
         style="stroke-width:0.999998" />
    </clipPath>
    <clipPath
       clipPathUnits="userSpaceOnUse"
       id="clipPath1931">
      <path
         d="m -319.8242,298.2838 h 595.276 v -595.276 h -595.276 z"
         id="path1933"
         style="stroke-width:0.999998" />
    </clipPath>
    <clipPath
       clipPathUnits="userSpaceOnUse"
       id="clipPath1937">
      <path
         d="m -128.147,259.2281 h 595.276 v -595.276 h -595.276 z"
         id="path1939"
         style="stroke-width:0.999998" />
    </clipPath>
    <clipPath
       clipPathUnits="userSpaceOnUse"
       id="clipPath1943">
      <path
         d="m -314.4043,314.8531 h 595.276 v -595.276 h -595.276 z"
         id="path1945"
         style="stroke-width:0.999998" />
    </clipPath>
    <clipPath
       clipPathUnits="userSpaceOnUse"
       id="clipPath1949">
      <path
         d="m -315.3418,300.2233 h 595.276 v -595.276 h -595.276 z"
         id="path1951"
         style="stroke-width:0.999998" />
    </clipPath>
    <clipPath
       clipPathUnits="userSpaceOnUse"
       id="clipPath1955">
      <path
         d="m -467.1328,259.2281 h 595.276 v -595.276 h -595.276 z"
         id="path1957"
         style="stroke-width:0.999998" />
    </clipPath>
    <clipPath
       clipPathUnits="userSpaceOnUse"
       id="clipPath1961">
      <path
         d="m -307.373,280.1959 h 595.276 v -595.276 h -595.276 z"
         id="path1963"
         style="stroke-width:0.999998" />
    </clipPath>
  </defs>
  <sodipodi:namedview
     id="namedview3423"
     pagecolor="#ffffff"
     bordercolor="#000000"
     borderopacity="0.25"
     inkscape:showpageshadow="2"
     inkscape:pageopacity="0.0"
     inkscape:pagecheckerboard="0"
     inkscape:deskcolor="#d1d1d1"
     showgrid="false"
     inkscape:zoom="0.29734106"
     inkscape:cx="406.9401"
     inkscape:cy="417.02952"
     inkscape:window-width="1419"
     inkscape:window-height="456"
     inkscape:window-x="0"
     inkscape:window-y="25"
     inkscape:window-maximized="0"
     inkscape:current-layer="svg3421">
    <inkscape:page
       x="0"
       y="0"
       id="page3427"
       width="793.70135"
       height="793.70135" />
  </sodipodi:namedview>
  <path
     d="M 341.373 408.539 C 330.608 410.686 319.258 413.888 306.862 418.623 C 307.042 421.932 307.302 428.539 307.302 437.899 C 307.302 442.219 307.256 447.127 307.113 452.58 C 307.006 456.528 306.662 460.731 306.365 464.81 C 318.141 453.523 330.608 444.792 342.406 437.554 C 342.524 435.01 342.597 432.487 342.597 429.999 C 342.597 421.208 341.87 413.064 341.373 408.539"
     style="fill:#000000;fill-opacity:1;fill-rule:nonzero;stroke:none"
     id="path3541" />
  <path
     d="M 367.266 397.712 C 367.597 393.944 368.607 390.368 370.214 387.131 C 351.745 378.996 324.701 363.168 273.436 352.205 C 210.266 338.708 146.488 351.967 115.045 373.905 C 83.9494 395.603 69.1187 421.932 70.9361 452.52 C 70.9361 452.52 49.2361 474.218 54.5241 515.201 C 60.0041 557.416 91.1854 567.266 91.1854 567.266 C 91.1854 567.266 91.1734 610.659 123.96 626.085 C 156.756 641.517 183.256 630.431 183.256 630.431 C 183.256 630.431 194.521 640.302 237.133 641.415 C 234.9 635.134 233.498 627.833 233.461 619.481 C 233.461 616.27 233.662 612.91 234.116 609.415 C 239.914 562.797 254.649 523.881 294.813 477.02 C 296.014 475.614 297.238 474.242 298.461 472.894 C 299.105 466.15 299.628 459.02 299.802 452.377 C 299.946 446.999 300.018 442.157 300.018 437.899 C 300.018 430.615 299.852 425.073 299.698 421.493 C 289.097 425.913 277.725 431.453 265.308 438.392 C 265.521 446.453 267.566 466.436 257.454 504.7 C 246.938 544.54 218.37 592.05 216.529 591.818 C 214.676 591.585 240.329 543.462 250.31 503.222 C 259.165 467.506 258.381 452.029 258.061 442.535 C 251.808 446.18 245.31 450.168 238.512 454.531 C 234.365 457.197 230.337 460.08 226.425 463.143 C 226.058 469.649 224.016 493.849 212.581 530.174 C 199.168 572.849 178.894 594.933 179.584 592.214 C 180.261 589.496 192.69 570.246 205.621 528.006 C 216.813 491.481 218.405 478.514 218.894 469.382 C 200.128 485.804 184.36 506.169 171.717 526.057 C 155.972 549.394 142.663 580.102 137.293 591.678 C 131.917 603.255 129.423 604.781 133.548 590.85 C 137.657 576.92 152.357 541.069 171.837 512.585 C 182.909 496.401 196.042 480.286 211.25 466.453 C 208.449 466.978 205.25 467.705 201.758 468.712 C 189.376 472.25 173.714 479.141 160.405 492.442 C 152.988 499.852 146.288 508.502 140.499 517.082 C 126.264 537.401 114.357 562.917 112.707 561.316 C 111.053 559.712 122.212 528.497 141.392 503.308 C 145.633 497.725 150.267 492.276 155.248 487.289 C 181.236 461.388 214.602 458.183 221.496 457.761 C 225.701 454.436 230.064 451.296 234.566 448.385 C 240.794 444.359 246.842 440.655 252.652 437.229 C 246.009 435.688 235.529 433.873 222.813 433.873 C 205.561 433.873 184.466 437.217 163.813 449.051 C 150.529 456.657 139.371 466.314 130.293 476.096 C 113.597 494.557 95.7587 524.609 94.668 523.78 C 93.5614 522.953 105.767 488.133 134.035 462.06 C 141.628 455.053 150.327 448.385 160.191 442.716 C 182.209 430.101 204.633 426.573 222.813 426.573 C 242.6 426.58 257.43 430.723 261.636 432.035 C 273.245 425.543 284.012 420.232 294.138 415.901 C 291.534 414.721 288.206 413.361 284.144 411.993 C 272.652 408.143 255.34 404.253 232.238 404.253 C 220.342 404.253 206.892 405.283 191.905 407.903 C 168.198 412.017 148.723 422.092 133.441 433.456 C 106.751 452.981 87.288 482.982 86.24 481.545 C 85.196 480.11 102.999 442.853 140.581 419.813 C 154.545 411.251 171.22 404.133 190.66 400.707 C 206.048 398.024 219.912 396.944 232.238 396.944 C 272.628 396.944 296.417 408.464 303.13 412.248 C 314.219 407.963 324.545 404.86 334.362 402.611 C 328.93 399.687 320.922 395.743 310.654 391.769 C 290.37 383.92 261.566 376.072 227.592 376.072 C 217.181 376.072 206.285 376.808 194.996 378.515 C 180.558 380.684 168.078 383.972 157.349 387.848 C 114.345 403.297 95.652 431.88 94.228 429.757 C 92.8 427.631 112.444 392.42 167.688 376.863 C 175.662 374.619 184.384 372.712 193.914 371.288 C 205.584 369.529 216.824 368.767 227.592 368.767 C 291.238 368.788 336.951 395.293 345.211 400.417 C 352.779 399.1 360.075 398.248 367.266 397.712"
     style="fill:#000000;fill-opacity:1;fill-rule:nonzero;stroke:none"
     id="path3545" />
  <path
     d="M 374.49 419.804 C 370.911 415.717 368.443 410.639 367.539 405.037 C 361.323 405.497 355.037 406.189 348.573 407.239 C 349.083 411.841 349.894 420.516 349.905 429.999 C 349.905 431.005 349.894 432.023 349.867 433.045 C 359.078 427.761 367.55 423.464 374.49 419.804"
     style="fill:#000000;fill-opacity:1;fill-rule:nonzero;stroke:none"
     id="path3549" />
  <path
     d="M 396.855 751.928 C 429.643 751.928 451.815 723.961 451.815 723.961 C 451.815 723.961 480.5 730.224 501.724 711.424 C 522.935 692.625 521.247 670.926 521.247 670.926 C 521.247 670.926 559.356 656.188 553.547 610.18 C 547.76 564.376 533.795 527.255 494.249 480.966 C 468.416 450.705 434.703 434.947 414.49 424.194 C 410.534 427.129 405.792 429.074 400.646 429.731 L 400.646 452.807 C 413.503 457.173 468.083 477.813 495.487 526.095 C 500.356 534.745 504.456 543.627 507.891 552.444 C 525.787 598.342 524.205 648.944 522.344 646.382 C 520.476 643.818 520.404 608.383 503.945 562.867 C 500.093 551.797 495.237 540.514 489.117 529.687 C 474.596 503.901 451.279 486.121 431.508 474.853 C 418.302 467.33 406.812 462.765 400.646 460.549 L 400.646 491.79 C 412.019 495.683 455.083 512.779 476.792 556.699 C 480.523 564.303 483.623 572.131 486.205 579.943 C 497.801 615.022 497.077 669.48 495.023 670.71 C 492.968 671.944 490.637 621.358 481.76 590.292 C 478.849 580.098 475.08 569.768 470.235 559.92 C 458.588 536.223 440 520.69 424.232 511.071 C 414.372 505.054 405.732 501.438 400.646 499.553 L 400.646 533.357 C 409.7 537.521 441.49 553.955 454.263 587.438 C 458.138 597.723 460.93 609.67 462.951 621.722 C 467.919 651.414 466.063 697.279 463.875 695.335 C 461.596 693.307 460.607 656.24 456.758 629.47 C 454.75 615.536 451.792 601.491 447.443 590.022 C 440.766 572.31 427.81 559.512 416.414 551.17 C 410.19 546.601 404.508 543.425 400.646 541.471 L 400.646 576.634 C 406.683 580.319 422.998 592.855 430.068 622.882 C 431.935 630.759 433.299 639.246 434.323 647.678 C 436.735 667.76 434.216 709.023 432.946 706.491 C 431.672 703.953 429.523 674.203 428.047 657.952 C 427.026 646.708 425.435 634.971 422.974 624.551 C 418.924 607.472 411.852 596.855 405.875 590.446 C 403.987 588.419 402.19 586.814 400.646 585.574 L 400.646 641.083 C 400.646 641.083 399.732 721.919 396.855 721.919 C 393.98 721.919 393.052 641.083 393.052 641.083 L 393.052 585.574 C 391.508 586.814 389.724 588.419 387.822 590.446 C 381.847 596.855 374.787 607.472 370.735 624.551 C 368.264 634.971 366.672 646.708 365.65 657.952 C 364.178 674.203 362.038 703.953 360.767 706.491 C 359.495 709.023 356.975 667.76 359.386 647.678 C 360.399 639.246 361.776 630.759 363.628 622.882 C 370.699 592.855 387.027 580.319 393.052 576.634 L 393.052 541.471 C 389.191 543.425 383.522 546.601 377.284 551.17 C 365.886 559.512 352.936 572.31 346.27 590.022 C 341.907 601.491 338.948 615.536 336.951 629.47 C 333.103 656.24 332.115 693.307 329.834 695.335 C 327.647 697.279 325.795 651.414 330.762 621.722 C 332.782 609.67 335.574 597.723 339.436 587.438 C 352.222 553.955 383.998 537.521 393.052 533.357 L 393.052 499.553 C 387.978 501.438 379.328 505.054 369.464 511.071 C 353.707 520.69 335.11 536.223 323.478 559.92 C 318.618 569.768 314.861 580.098 311.951 590.292 C 303.071 621.358 300.733 671.944 298.675 670.71 C 296.621 669.48 295.897 615.022 307.494 579.943 C 310.085 572.131 313.186 564.303 316.918 556.699 C 338.628 512.779 381.694 495.683 393.052 491.79 L 393.052 460.549 C 386.883 462.765 375.394 467.33 362.191 474.853 C 342.431 486.121 319.118 503.901 304.582 529.687 C 298.475 540.514 293.615 551.797 289.751 562.867 C 273.293 608.383 273.222 643.818 271.358 646.382 C 269.491 648.944 267.923 598.342 285.806 552.444 C 289.254 543.627 293.342 534.745 298.213 526.095 C 325.615 477.813 380.194 457.173 393.052 452.807 L 393.052 429.731 C 387.918 429.074 383.178 427.129 379.21 424.194 C 358.995 434.947 325.295 450.705 299.449 480.966 C 259.915 527.255 245.941 564.376 240.15 610.18 C 234.353 656.188 272.462 670.926 272.462 670.926 C 272.462 670.926 270.777 692.625 291.989 711.424 C 313.197 730.224 341.883 723.961 341.883 723.961 C 341.883 723.961 364.068 751.928 396.855 751.928"
     style="fill:#000000;fill-opacity:1;fill-rule:nonzero;stroke:none"
     id="path3553" />
  <path
     d="M 452.328 408.539 C 463.093 410.686 474.44 413.888 486.833 418.623 C 486.667 421.932 486.396 428.539 486.396 437.899 C 486.396 442.219 486.443 447.127 486.583 452.58 C 486.703 456.528 487.036 460.731 487.333 464.81 C 475.557 453.523 463.104 444.792 451.292 437.554 C 451.172 435.01 451.101 432.487 451.101 429.999 C 451.101 421.208 451.828 413.064 452.328 408.539"
     style="fill:#000000;fill-opacity:1;fill-rule:nonzero;stroke:none"
     id="path3557" />
  <path
     d="M 426.432 397.712 C 426.112 393.944 425.091 390.368 423.484 387.131 C 441.953 378.996 469.011 363.168 520.273 352.205 C 583.445 338.708 647.223 351.967 678.655 373.905 C 709.749 395.603 724.593 421.932 722.775 452.52 C 722.775 452.52 744.473 474.218 739.174 515.201 C 733.707 557.416 702.525 567.266 702.525 567.266 C 702.525 567.266 702.525 610.659 669.751 626.085 C 636.955 641.517 610.445 630.431 610.445 630.431 C 610.445 630.431 599.189 640.302 556.577 641.415 C 558.812 635.134 560.213 627.833 560.249 619.481 C 560.249 616.27 560.036 612.91 559.596 609.415 C 553.784 562.797 539.049 523.881 498.882 477.02 C 497.682 475.614 496.47 474.242 495.237 472.894 C 494.596 466.15 494.085 459.02 493.89 452.377 C 493.752 446.999 493.686 442.157 493.686 437.899 C 493.686 430.615 493.856 425.073 494.013 421.493 C 504.598 425.913 515.97 431.453 528.401 438.392 C 528.174 446.453 526.145 466.436 536.246 504.7 C 546.77 544.54 575.328 592.05 577.182 591.818 C 579.022 591.585 553.369 543.462 543.398 503.222 C 534.544 467.506 535.33 452.029 535.648 442.535 C 541.888 446.18 548.401 450.168 555.197 454.531 C 559.346 457.197 563.374 460.08 567.284 463.143 C 567.64 469.649 569.694 493.849 581.114 530.174 C 594.544 572.849 614.804 594.933 614.126 592.214 C 613.437 589.496 601.02 570.246 588.077 528.006 C 576.898 491.481 575.304 478.514 574.804 469.382 C 593.58 485.804 609.338 506.169 621.992 526.057 C 637.738 549.394 651.035 580.102 656.405 591.678 C 661.778 603.255 664.275 604.781 660.161 590.85 C 656.038 576.92 641.353 541.069 621.864 512.585 C 610.801 496.401 597.669 480.286 582.445 466.453 C 585.249 466.978 588.46 467.705 591.953 468.712 C 604.333 472.25 619.997 479.141 633.306 492.442 C 640.707 499.852 647.423 508.502 653.197 517.082 C 667.434 537.401 679.343 562.917 680.991 561.316 C 682.642 559.712 671.486 528.497 652.317 503.308 C 648.065 497.725 643.431 492.276 638.462 487.289 C 612.462 461.388 579.109 458.183 572.216 457.761 C 567.997 454.436 563.648 451.296 559.142 448.385 C 552.905 444.359 546.856 440.655 541.057 437.229 C 547.7 435.688 558.169 433.873 570.882 433.873 C 588.14 433.873 609.241 437.217 629.882 449.051 C 643.169 456.657 654.327 466.314 663.415 476.096 C 680.114 494.557 697.937 524.609 699.041 523.78 C 700.137 522.953 687.942 488.133 659.674 462.06 C 652.079 455.053 643.371 448.385 633.507 442.716 C 611.502 430.101 589.065 426.573 570.882 426.573 C 551.109 426.58 536.281 430.723 532.072 432.035 C 520.462 425.543 509.684 420.232 499.562 415.901 C 502.164 414.721 505.505 413.361 509.568 411.993 C 521.06 408.143 538.372 404.253 561.462 404.253 C 573.356 404.253 586.806 405.283 601.792 407.903 C 625.51 412.017 644.975 422.092 660.257 433.456 C 686.958 452.981 706.407 482.982 707.458 481.545 C 708.502 480.11 690.713 442.853 653.126 419.813 C 639.153 411.251 622.492 404.133 603.038 400.707 C 587.661 398.024 573.793 396.944 561.462 396.944 C 521.08 396.944 497.278 408.464 490.565 412.248 C 479.479 407.963 469.153 404.86 459.336 402.611 C 464.768 399.687 472.779 395.743 483.044 391.769 C 503.338 383.92 532.134 376.072 566.117 376.072 C 576.528 376.072 587.424 376.808 598.713 378.515 C 613.15 380.684 625.626 383.972 636.361 387.848 C 679.355 403.297 698.046 431.88 699.473 429.757 C 700.895 427.631 681.254 392.42 626.008 376.863 C 618.036 374.619 609.317 372.712 599.793 371.288 C 588.125 369.529 576.885 368.767 566.117 368.767 C 502.46 368.788 456.747 395.293 448.489 400.417 C 440.929 399.1 433.62 398.248 426.432 397.712"
     style="fill:#000000;fill-opacity:1;fill-rule:nonzero;stroke:none"
     id="path3561" />
  <path
     d="M 419.206 419.804 C 422.785 415.717 425.258 410.639 426.162 405.037 C 432.386 405.497 438.673 406.189 445.135 407.239 C 444.613 411.841 443.805 420.516 443.805 429.999 C 443.805 431.005 443.818 432.023 443.831 433.045 C 434.63 427.761 426.149 423.464 419.206 419.804"
     style="fill:#000000;fill-opacity:1;fill-rule:nonzero;stroke:none"
     id="path3565" />
  <path
     d="M 420.456 400.298 C 420.456 413.331 409.88 423.887 396.855 423.887 C 383.819 423.887 373.256 413.331 373.256 400.298 C 373.256 387.265 383.819 376.697 396.855 376.697 C 409.88 376.697 420.456 387.265 420.456 400.298"
     style="fill:#000000;fill-opacity:1;fill-rule:nonzero;stroke:none"
     id="path3569" />
  <path
     d="M 170.863 345.637 C 176.811 344.428 182.967 343.428 189.284 342.644 L 207.83 326.108 C 215.954 327.272 229.12 329.029 236.546 328.745 C 249.508 328.257 258.685 325.022 263.332 314.374 C 268.615 302.249 260.737 293.696 260.737 293.696 C 260.737 293.696 272.881 282.394 261.529 269.903 C 250.18 257.409 237.777 268.421 237.777 268.421 C 237.777 268.421 230.011 259.759 217.444 263.865 C 206.391 267.465 202.292 276.287 200.574 289.152 C 199.558 296.682 199.986 309.541 200.363 317.581 L 184.264 331.773 L 184.264 271.297 L 202.688 254.895 C 210.548 256.035 223.248 257.831 231.06 257.532 C 244.024 257.043 253.201 253.808 257.844 243.161 C 263.128 231.035 255.251 222.481 255.251 222.481 C 255.251 222.481 267.393 211.181 256.045 198.688 C 244.693 186.195 232.29 197.207 232.29 197.207 C 232.29 197.207 224.527 188.545 211.959 192.652 C 200.907 196.251 196.808 205.072 195.09 217.939 C 194.027 225.825 194.571 238.561 194.959 246.447 L 184.264 255.937 L 184.284 206.969 C 190.688 201.696 201.152 193.035 206.584 186.575 C 215.39 176.116 219.371 166.669 214.358 155.501 C 208.644 142.791 196.391 142.875 196.391 142.875 C 196.391 142.875 196.183 125.398 178.399 125.398 C 160.615 125.398 160.407 142.875 160.407 142.875 C 160.407 142.875 148.152 142.791 142.442 155.501 C 137.428 166.669 141.41 176.116 150.212 186.575 C 155.647 193.035 166.111 201.696 172.514 206.969 L 172.535 255.937 L 161.839 246.447 C 162.224 238.561 162.772 225.825 161.71 217.939 C 159.991 205.072 155.891 196.251 144.839 192.652 C 132.272 188.545 124.508 197.207 124.508 197.207 C 124.508 197.207 112.106 186.195 100.754 198.688 C 89.4045 211.181 101.549 222.481 101.549 222.481 C 101.549 222.481 93.6699 231.035 98.9512 243.161 C 103.598 253.808 112.775 257.043 125.738 257.532 C 133.551 257.831 146.251 256.035 154.111 254.895 L 172.535 271.297 L 172.535 331.773 L 156.436 317.581 C 156.811 309.541 157.24 296.682 156.223 289.152 C 154.503 276.287 150.407 267.465 139.355 263.865 C 126.787 259.759 119.022 268.421 119.022 268.421 C 119.022 268.421 106.618 257.409 95.2672 269.903 C 83.9179 282.394 96.0605 293.696 96.0605 293.696 C 96.0605 293.696 88.1832 302.249 93.4672 314.374 C 98.1125 325.022 107.29 328.257 120.254 328.745 C 127.678 329.029 140.844 327.272 148.97 326.108 Z"
     style="fill:#000000;fill-opacity:1;fill-rule:nonzero;stroke:none"
     id="path3573" />
  <path
     d="M 622.844 345.637 C 616.896 344.428 610.74 343.428 604.423 342.644 L 585.88 326.108 C 577.756 327.272 564.589 329.029 557.161 328.745 C 544.199 328.257 535.024 325.022 530.378 314.374 C 525.094 302.249 532.972 293.696 532.972 293.696 C 532.972 293.696 520.828 282.394 532.178 269.903 C 543.53 257.409 555.932 268.421 555.932 268.421 C 555.932 268.421 563.699 259.759 576.265 263.865 C 587.316 267.465 591.415 276.287 593.133 289.152 C 594.149 296.682 593.721 309.541 593.347 317.581 L 609.445 331.773 L 609.445 271.297 L 591.021 254.895 C 583.161 256.035 570.461 257.831 562.649 257.532 C 549.686 257.043 540.508 253.808 535.863 243.161 C 530.579 231.035 538.456 222.481 538.456 222.481 C 538.456 222.481 526.316 211.181 537.664 198.688 C 549.016 186.195 561.42 197.207 561.42 197.207 C 561.42 197.207 569.183 188.545 581.751 192.652 C 592.803 196.251 596.901 205.072 598.62 217.939 C 599.683 225.825 599.136 238.561 598.751 246.447 L 609.445 255.937 L 609.425 206.969 C 603.021 201.696 592.555 193.035 587.123 186.575 C 578.317 176.116 574.339 166.669 579.352 155.501 C 585.063 142.791 597.317 142.875 597.317 142.875 C 597.317 142.875 597.527 125.398 615.311 125.398 C 633.095 125.398 633.303 142.875 633.303 142.875 C 633.303 142.875 645.555 142.791 651.265 155.501 C 656.279 166.669 652.3 176.116 643.495 186.575 C 638.063 193.035 627.599 201.696 621.196 206.969 L 621.175 255.937 L 631.871 246.447 C 631.483 238.561 630.935 225.825 632 217.939 C 633.719 205.072 637.817 196.251 648.868 192.652 C 661.437 188.545 669.201 197.207 669.201 197.207 C 669.201 197.207 681.604 186.195 692.956 198.688 C 704.305 211.181 692.161 222.481 692.161 222.481 C 692.161 222.481 700.038 231.035 694.756 243.161 C 690.109 253.808 680.935 257.043 667.972 257.532 C 660.159 257.831 647.459 256.035 639.599 254.895 L 621.175 271.297 L 621.175 331.773 L 637.273 317.581 C 636.896 309.541 636.469 296.682 637.484 289.152 C 639.204 276.287 643.303 267.465 654.355 263.865 C 666.923 259.759 674.688 268.421 674.688 268.421 C 674.688 268.421 687.092 257.409 698.44 269.903 C 709.792 282.394 697.649 293.696 697.649 293.696 C 697.649 293.696 705.526 302.249 700.242 314.374 C 695.596 325.022 686.42 328.257 673.456 328.745 C 666.029 329.029 652.865 327.272 644.74 326.108 Z"
     style="fill:#000000;fill-opacity:1;fill-rule:nonzero;stroke:none"
     id="path3577" />
  <path
     d="M 409.831 373.595 L 430.648 355.199 C 439.646 356.472 454.451 358.56 464.136 358.138 C 479.224 357.511 489.896 353.7 495.245 341.267 C 501.341 327.108 492.123 317.183 492.123 317.183 C 492.123 317.183 506.213 303.969 492.927 289.47 C 479.653 274.965 465.252 287.874 465.252 287.874 C 465.252 287.874 456.175 277.819 441.534 282.663 C 428.7 286.922 423.959 297.215 422.031 312.207 C 420.774 321.732 421.544 336.527 422.031 345.623 L 403.462 361.983 L 403.462 295.253 L 430.006 271.577 C 439.159 272.889 453.99 274.869 462.355 274.55 C 476.959 273.999 487.295 270.355 492.528 258.361 C 498.479 244.702 489.607 235.067 489.607 235.067 C 489.607 235.067 503.284 222.338 490.5 208.265 C 477.713 194.19 463.74 206.595 463.74 206.595 C 463.74 206.595 454.995 196.838 440.836 201.463 C 428.388 205.518 423.771 215.457 421.834 229.949 C 420.691 238.431 421.172 252.915 421.596 261.973 L 403.462 277.959 L 403.462 209.302 L 424.216 190.825 C 433.068 192.109 447.375 194.13 456.175 193.794 C 470.779 193.243 481.115 189.601 486.349 177.606 C 492.3 163.948 483.427 154.312 483.427 154.312 C 483.427 154.312 497.104 141.582 484.32 127.51 C 471.534 113.436 457.56 125.841 457.56 125.841 C 457.56 125.841 448.815 116.082 434.656 120.709 C 422.208 124.764 417.591 134.701 415.654 149.193 C 414.456 158.078 415.074 172.426 415.508 181.309 L 403.462 191.998 L 403.484 133.666 C 410.698 127.725 422.484 117.968 428.604 110.69 C 438.524 98.9104 443.006 88.269 437.359 75.6877 C 430.924 61.3691 417.123 61.4624 417.123 61.4624 C 417.123 61.4624 416.888 41.7772 396.855 41.7772 C 376.822 41.7772 376.587 61.4624 376.587 61.4624 C 376.587 61.4624 362.782 61.3691 356.35 75.6877 C 350.702 88.269 355.186 98.9104 365.103 110.69 C 371.222 117.968 383.011 127.725 390.224 133.666 L 390.248 191.998 L 378.202 181.309 C 378.636 172.426 379.251 158.078 378.054 149.193 C 376.118 134.701 371.5 124.764 359.051 120.709 C 344.894 116.082 336.147 125.841 336.147 125.841 C 336.147 125.841 322.175 113.436 309.389 127.51 C 296.603 141.582 310.282 154.312 310.282 154.312 C 310.282 154.312 301.407 163.948 307.361 177.606 C 312.593 189.601 322.931 193.243 337.533 193.794 C 346.334 194.13 360.639 192.109 369.494 190.825 L 390.248 209.302 L 390.248 277.959 L 372.112 261.973 C 372.538 252.915 373.019 238.431 371.874 229.949 C 369.939 215.457 365.322 205.518 352.871 201.463 C 338.715 196.838 329.967 206.595 329.967 206.595 C 329.967 206.595 315.997 194.19 303.21 208.265 C 290.423 222.338 304.103 235.067 304.103 235.067 C 304.103 235.067 295.227 243.101 301.181 256.759 C 306.413 268.754 316.751 273.999 331.353 274.55 C 339.721 274.869 354.551 272.889 363.704 271.577 L 390.248 295.253 L 390.248 361.983 L 371.678 345.623 C 372.164 336.527 372.936 321.732 371.678 312.207 C 369.751 297.215 365.008 286.922 352.175 282.663 C 337.535 277.819 328.457 287.874 328.457 287.874 C 328.457 287.874 314.055 274.965 300.782 289.47 C 287.497 303.969 301.587 317.183 301.587 317.183 C 301.587 317.183 292.369 327.108 298.465 341.267 C 303.814 353.7 314.486 357.511 329.574 358.138 C 339.259 358.56 354.063 356.472 363.06 355.199 L 383.879 373.595 C 387.74 371.691 392.27 370.619 396.855 370.616 C 401.44 370.619 405.97 371.691 409.831 373.595"
     style="fill:#000000;fill-opacity:1;fill-rule:nonzero;stroke:none"
     id="path3581" />
</svg>
