<?xml version="1.0" encoding="UTF-8" standalone="no"?>
<!-- Created with Inkscape (http://www.inkscape.org/) -->

<svg
   version="1.1"
   id="svg10846"
   width="793.70135"
   height="793.70135"
   viewBox="0 0 793.70135 793.70135"
   sodipodi:docname="ishida-mitsunari.svg"
   inkscape:version="1.2 (dc2aeda, 2022-05-15)"
   xmlns:inkscape="http://www.inkscape.org/namespaces/inkscape"
   xmlns:sodipodi="http://sodipodi.sourceforge.net/DTD/sodipodi-0.dtd"
   xmlns="http://www.w3.org/2000/svg"
   xmlns:svg="http://www.w3.org/2000/svg">
  <defs
     id="defs10850">
    <clipPath
       clipPathUnits="userSpaceOnUse"
       id="clipPath11362">
      <path
         d="M -586.5449,579.5026 H 8.7310974 V -15.7734 H -586.5449 Z"
         id="path11364"
         style="stroke-width:0.999998" />
    </clipPath>
    <clipPath
       clipPathUnits="userSpaceOnUse"
       id="clipPath11368">
      <path
         d="m -258.2124,379.9147 h 595.276 v -595.276 h -595.276 z"
         id="path11370"
         style="stroke-width:0.999998" />
    </clipPath>
    <clipPath
       clipPathUnits="userSpaceOnUse"
       id="clipPath11374">
      <path
         d="M -584.1943,578.9381 H 11.081697 V -16.3379 H -584.1943 Z"
         id="path11376"
         style="stroke-width:0.999998" />
    </clipPath>
    <clipPath
       clipPathUnits="userSpaceOnUse"
       id="clipPath11380">
      <path
         d="M -538.2217,577.9479 H 57.054297 V -17.3281 H -538.2217 Z"
         id="path11382"
         style="stroke-width:0.999998" />
    </clipPath>
    <clipPath
       clipPathUnits="userSpaceOnUse"
       id="clipPath11386">
      <path
         d="M -572.8174,586.1354 H 22.458597 V -9.1406 H -572.8174 Z"
         id="path11388"
         style="stroke-width:0.999998" />
    </clipPath>
    <clipPath
       clipPathUnits="userSpaceOnUse"
       id="clipPath11392">
      <path
         d="M -561.4131,585.8522 H 33.862897 V -9.4238 H -561.4131 Z"
         id="path11394"
         style="stroke-width:0.999998" />
    </clipPath>
    <clipPath
       clipPathUnits="userSpaceOnUse"
       id="clipPath11398">
      <path
         d="M -540.8213,585.8483 H 54.454697 V -9.4277 H -540.8213 Z"
         id="path11400"
         style="stroke-width:0.999998" />
    </clipPath>
    <clipPath
       clipPathUnits="userSpaceOnUse"
       id="clipPath11404">
      <path
         d="M -574.5459,585.8522 H 20.730097 V -9.4238 H -574.5459 Z"
         id="path11406"
         style="stroke-width:0.999998" />
    </clipPath>
    <clipPath
       clipPathUnits="userSpaceOnUse"
       id="clipPath11410">
      <path
         d="M -557.0645,585.8483 H 38.211497 V -9.4277 H -557.0645 Z"
         id="path11412"
         style="stroke-width:0.999998" />
    </clipPath>
    <clipPath
       clipPathUnits="userSpaceOnUse"
       id="clipPath11416">
      <path
         d="M -545.417,584.5729 H 49.858997 V -10.7031 H -545.417 Z"
         id="path11418"
         style="stroke-width:0.999998" />
    </clipPath>
    <clipPath
       clipPathUnits="userSpaceOnUse"
       id="clipPath11422">
      <path
         d="M -542.9326,584.5729 H 52.343397 V -10.7031 H -542.9326 Z"
         id="path11424"
         style="stroke-width:0.999998" />
    </clipPath>
    <clipPath
       clipPathUnits="userSpaceOnUse"
       id="clipPath11428">
      <path
         d="M -548.9834,585.8522 H 46.292597 V -9.4238 H -548.9834 Z"
         id="path11430"
         style="stroke-width:0.999998" />
    </clipPath>
    <clipPath
       clipPathUnits="userSpaceOnUse"
       id="clipPath11434">
      <path
         d="M -536.6982,584.5729 H 58.577797 V -10.7031 H -536.6982 Z"
         id="path11436"
         style="stroke-width:0.999998" />
    </clipPath>
    <clipPath
       clipPathUnits="userSpaceOnUse"
       id="clipPath11440">
      <path
         d="M -553.8975,585.8483 H 41.378497 V -9.4277 H -553.8975 Z"
         id="path11442"
         style="stroke-width:0.999998" />
    </clipPath>
    <clipPath
       clipPathUnits="userSpaceOnUse"
       id="clipPath11446">
      <path
         d="M -567.7754,585.8522 H 27.500597 V -9.4238 H -567.7754 Z"
         id="path11448"
         style="stroke-width:0.999998" />
    </clipPath>
    <clipPath
       clipPathUnits="userSpaceOnUse"
       id="clipPath11453">
      <path
         d="M -564.5732,585.8483 H 30.702797 V -9.4277 H -564.5732 Z"
         id="path11455"
         style="stroke-width:0.999998" />
    </clipPath>
    <clipPath
       clipPathUnits="userSpaceOnUse"
       id="clipPath11459">
      <path
         d="M -528.0898,575.3815 H 67.186197 V -19.8945 H -528.0898 Z"
         id="path11461"
         style="stroke-width:0.999998" />
    </clipPath>
    <clipPath
       clipPathUnits="userSpaceOnUse"
       id="clipPath11465">
      <path
         d="M -556.4014,578.0143 H 38.874597 V -17.2617 H -556.4014 Z"
         id="path11467"
         style="stroke-width:0.999998" />
    </clipPath>
    <clipPath
       clipPathUnits="userSpaceOnUse"
       id="clipPath11471">
      <path
         d="M -531.1924,581.5885 H 64.083597 V -13.6875 H -531.1924 Z"
         id="path11473"
         style="stroke-width:0.999998" />
    </clipPath>
    <clipPath
       clipPathUnits="userSpaceOnUse"
       id="clipPath11477">
      <path
         d="M -568.2266,575.819 H 27.049397 V -19.457 H -568.2266 Z"
         id="path11479"
         style="stroke-width:0.999998" />
    </clipPath>
    <clipPath
       clipPathUnits="userSpaceOnUse"
       id="clipPath11483">
      <path
         d="M -557.4951,577.8502 H 37.780897 V -17.4258 H -557.4951 Z"
         id="path11485"
         style="stroke-width:0.999998" />
    </clipPath>
    <clipPath
       clipPathUnits="userSpaceOnUse"
       id="clipPath11489">
      <path
         d="M -576.3691,585.5885 H 18.906897 V -9.6875 H -576.3691 Z"
         id="path11491"
         style="stroke-width:0.999998" />
    </clipPath>
    <clipPath
       clipPathUnits="userSpaceOnUse"
       id="clipPath11495">
      <path
         d="M -550.2637,577.3248 H 45.012297 V -17.9512 H -550.2637 Z"
         id="path11497"
         style="stroke-width:0.999998" />
    </clipPath>
  </defs>
  <sodipodi:namedview
     id="namedview10848"
     pagecolor="#ffffff"
     bordercolor="#000000"
     borderopacity="0.25"
     inkscape:showpageshadow="2"
     inkscape:pageopacity="0.0"
     inkscape:pagecheckerboard="0"
     inkscape:deskcolor="#d1d1d1"
     showgrid="false"
     inkscape:zoom="0.29734106"
     inkscape:cx="-215.24105"
     inkscape:cy="396.85068"
     inkscape:window-width="1419"
     inkscape:window-height="456"
     inkscape:window-x="0"
     inkscape:window-y="25"
     inkscape:window-maximized="0"
     inkscape:current-layer="svg10846">
    <inkscape:page
       x="0"
       y="0"
       id="page10852"
       width="793.70135"
       height="793.70135" />
  </sodipodi:namedview>
  <path
     d="m 344.282,506.554 c -8.024,-6.78 -14.164,-3.152 -16.047,-2.148 -3.389,1.808 -12.02,5.366 -16.497,7.232 -10.169,4.237 -21.865,5.254 -68.477,8.08 -25.875,1.642 -62.036,4.464 -74.917,3.954 -13.431,-0.529 -24.21,-1.564 -27.855,-2.428 -5.48,-1.3 -7.151,-0.265 -5.876,3.276 1.527,4.238 4.917,10.508 10.171,18.136 5.736,8.326 7.966,11.527 13.39,15.256 4.83,3.32 9.747,1.407 11.187,-0.452 1.356,-1.753 2.543,-3.05 4.236,-3.446 1.648,-0.384 24.796,-3.222 47.744,-6.359 v 14.212 c 0,32.317 1.92,54.352 -24.183,92.996 -23.525,34.83 -58.892,49.168 -58.892,49.168 28.363,-3.392 57.81,-15.95 78.893,-35.608 19.39,-18.08 28.754,-36.363 32.007,-62.364 11.147,-0.396 20.699,-0.719 29.555,-1.178 19.661,-1.017 50.172,-4.406 50.172,-4.406 0,0 0.168,17.782 -2.598,34.692 -4.136,25.265 -23.738,46.564 -23.738,46.564 0,0 -7.967,-9.267 -21.242,-17.628 -12.049,-7.59 -33.338,-11.866 -33.338,-11.866 0,0 12.088,11.342 17.518,17.74 6.328,7.459 16.08,23.911 17.964,36.724 2.26,15.368 18.646,14.239 30.399,7.007 11.637,-7.161 36.505,-34.472 40.572,-63.964 5.466,-39.632 8.022,-45.371 8.022,-45.371 -0.169,-2.881 1.335,-5.936 2.882,-7.458 1.313,-1.292 0.18,-5.064 -0.678,-6.779 -1.017,-2.034 -3.898,-5.933 -13.73,-12.374 -7.371,-4.83 -16.271,-8.304 -21.695,-9.152 -3.366,-0.527 -7.37,5.006 -8.982,6.78 -3.391,3.729 -14.07,4.406 -39.155,6.44 -10.431,0.846 -19.663,1.309 -30.557,1.762 0.008,-0.868 0.013,-1.744 0.013,-2.629 v -22.035 c 0.508,-4.153 2.521,-6.693 4.125,-7.796 2.542,-1.75 0.274,-4.614 -4.165,-7.333 28.236,-3.181 47.267,-4.533 63.601,-4.533 20.687,0 37.684,0.621 49.381,2.485 10.096,1.609 16.271,-1.807 12.316,-8.587 -3.954,-6.78 -22.98,-19.389 -31.526,-26.61 m 296.392,66.725 c -8.448,-6.828 -17.874,-7.117 -19.997,-6.304 -3.823,1.471 -9.229,3.947 -14.331,5.085 -6.707,1.498 -24.062,2.332 -65.447,3.835 v -28.784 c 17.701,-0.856 29.958,-1.531 42.94,-1.856 19.435,-0.485 35.482,0.452 44.521,0.904 9.038,0.452 14.016,-2.191 9.945,-7.232 -4.747,-5.875 -11.617,-12.169 -19.208,-18.305 -7.131,-5.762 -12.987,-3.239 -14.776,-2.554 -3.227,1.24 -7.094,4.379 -11.328,5.604 -7.808,2.259 -25.95,2.863 -52.094,4.098 v -12.911 c 0,-2.564 1.212,-4.776 2.586,-6.309 3.968,-4.424 5.55,-4.991 5.55,-8.946 0,-6.582 -33.334,-16.27 -42.972,-16.838 -2.268,-0.134 -3.583,1.81 -1.774,4.974 2.011,3.519 2.712,7.242 2.712,14.236 v 27.442 c -23.781,0.86 -44.294,0.478 -54.239,-0.434 -12.427,-1.138 -22.372,-2.532 -25.711,-3.406 -5.019,-1.319 -6.617,-0.594 -5.597,2.258 1.221,3.412 2.904,6.255 7.425,12.535 4.937,6.853 6.856,9.488 11.716,12.712 4.325,2.868 8.971,1.631 10.393,0.247 1.334,-1.304 3.123,-1.528 4.714,-1.748 1.716,-0.235 27.893,-1.344 51.299,-2.747 v 28.261 c -32.81,1.126 -58.911,1.798 -70.851,0.703 -14.73,-1.351 -24.312,-1.244 -28.268,-2.281 -5.951,-1.563 -8.066,-0.614 -6.634,2.677 1.795,4.124 4.355,7.755 7.446,13.391 3.841,7.003 8.158,11.358 11.65,13.927 3.491,2.568 8.915,2.118 12.319,0.292 1.951,-1.045 3.7,-1.81 5.585,-2.07 2.339,-0.322 47.977,-4.944 77.904,-6.954 37.839,-1.606 57.629,-2.033 80.003,-1.296 23.03,0.759 44.619,1.967 55.257,3.33 13.221,1.696 16.612,-1.58 11.786,-7.555 -5.625,-6.962 -13.521,-10.708 -22.524,-17.981 m -60.451,83.958 c -1.084,7.862 -2.374,25.086 -2.374,25.086 0,0 -25.197,-0.792 -44.632,-0.792 -19.436,0 -48.818,1.469 -48.818,1.469 0,0 -0.452,-14.803 -1.356,-22.032 -0.902,-7.232 -2.147,-21.359 -2.147,-21.359 0,0 18.873,0.451 43.052,-0.34 24.209,-0.792 58.308,-3.05 58.308,-3.05 0,0 -0.677,11.188 -2.033,21.018 m 30.535,-38.052 c -6.696,-4.746 -13.305,-8.9 -16.877,-9.362 -2.704,-0.352 -4.393,0.012 -5.974,0.954 -3.667,2.188 -8.518,5.914 -11.414,6.347 -10.204,1.531 -27.685,2.484 -51.696,3.163 -24.013,0.677 -34.408,1.017 -46.95,0.338 -2.383,-0.129 -4.747,-3.729 -15.935,-5.198 -10.921,-1.434 -13.896,-1.467 -17.062,-1.242 -4.922,0.352 -4.206,2.726 -1.468,6.779 3.052,4.519 5.538,11.979 7.12,23.956 1.213,9.197 2.934,44.975 2.71,53.336 -0.224,8.363 6.328,13.559 15.82,13.559 12.429,0 15.367,-9.264 15.367,-9.264 0,0 27.346,-0.907 47.685,-0.907 20.341,0 45.88,0.227 45.88,0.227 0,0 4.521,8.814 15.368,8.814 10.848,0 17.796,-9.429 18.757,-18.193 0.792,-7.232 5.763,-46.443 5.763,-46.443 0.904,-2.26 3.658,-3.216 6.325,-6.1 1.951,-2.109 2.461,-5.297 1.131,-7.232 -2.487,-3.616 -5.88,-7.389 -14.55,-13.532 M 410.272,509.095 c 10.846,-1.016 55.255,-7.796 82.036,-31.525 26.781,-23.729 33.221,-43.731 33.221,-43.731 0,0 22.56,36.897 56.274,53.223 32.202,15.593 55.934,16.61 55.934,16.61 0,0 11.544,-3.16 21.808,-7.233 10.508,-4.169 29.041,-12.768 29.041,-12.768 0,0 -68.817,-8.136 -103.054,-30.509 -31.036,-20.281 -44.524,-36.105 -46.779,-59.088 18.042,-1.392 32.266,-1.223 47.683,-0.801 20.678,0.564 39.492,4.576 51.186,6.44 10.1,1.609 16.274,-1.808 12.319,-8.588 -3.956,-6.78 -23.657,-25.208 -32.204,-32.431 -8.023,-6.779 -12.771,-2.937 -14.577,-1.807 -1.888,1.18 -15.365,10.47 -17.967,12.203 -3.049,2.035 -6.893,4.181 -11.752,4.747 -3.622,0.421 -17.794,1.596 -35.029,2.869 v -26.937 c 0,-4.068 1.016,-7.459 2.372,-8.815 1.355,-1.356 6.779,-5.424 6.779,-10.847 0,-8.645 -34.224,-25.121 -37.966,-26.442 -5.762,-2.033 -9.265,0.452 -5.425,5.085 2.811,3.388 6.105,8.475 6.105,13.56 v 56.347 c -25.876,1.644 -63.955,3.65 -71.867,3.202 -13.422,-0.758 -25.44,-4.258 -27.911,-5.31 -5.311,-2.26 -7.988,0.16 -5.876,3.277 2.373,3.503 6.972,9.928 13.784,17.401 7.008,7.684 9.607,10.736 15.032,14.466 4.828,3.318 9.265,0.902 11.184,-0.454 1.155,-0.816 2.149,-1.865 3.844,-2.261 2.101,-0.489 33.789,-7.583 60.825,-11.591 -2.856,15.134 -12.416,43.423 -34.612,63.911 -30.848,28.476 -61.358,41.357 -74.918,44.746 -13.56,3.391 -0.339,4.068 10.51,3.051 m -98.421,-55.933 c -31.037,-20.281 -44.524,-36.105 -46.777,-59.088 18.041,-1.392 32.264,-1.223 47.681,-0.801 20.679,0.564 39.492,4.576 51.188,6.44 10.097,1.609 16.272,-1.808 12.316,-8.588 -3.953,-6.78 -23.656,-25.208 -32.203,-32.431 -8.024,-6.779 -12.769,-2.937 -14.577,-1.807 -1.889,1.18 -15.365,10.47 -17.965,12.203 -3.051,2.035 -6.895,4.181 -11.753,4.747 -3.622,0.421 -17.795,1.596 -35.03,2.869 v -26.937 c 0,-4.068 1.018,-7.459 2.372,-8.815 1.356,-1.356 6.78,-5.424 6.78,-10.847 0,-8.645 -34.224,-25.121 -37.965,-26.442 -5.764,-2.033 -9.268,0.452 -5.425,5.085 2.81,3.388 6.102,8.475 6.102,13.56 v 56.347 c -25.874,1.644 -63.953,3.65 -71.866,3.202 -13.42,-0.758 -25.439,-4.258 -27.911,-5.31 -5.31,-2.26 -7.986,0.16 -5.874,3.277 2.372,3.503 6.97,9.928 13.784,17.401 7.006,7.684 9.606,10.736 15.029,14.466 4.831,3.318 9.267,0.902 11.187,-0.454 1.153,-0.816 2.146,-1.865 3.842,-2.261 2.102,-0.489 33.791,-7.583 60.827,-11.591 -2.858,15.134 -12.418,43.423 -34.614,63.911 -30.847,28.476 -61.357,41.357 -74.917,44.746 -13.56,3.391 -0.338,4.068 10.508,3.051 10.848,-1.016 55.258,-7.796 82.037,-31.525 26.782,-23.729 33.223,-43.731 33.223,-43.731 0,0 22.56,36.897 56.272,53.223 32.204,15.593 55.934,16.61 55.934,16.61 0,0 11.544,-3.16 21.81,-7.233 10.506,-4.169 29.038,-12.768 29.038,-12.768 0,0 -68.816,-8.136 -103.053,-30.509 M 223.827,291.461 c 0,0 10.622,0.227 26.667,0 66.663,-0.94 100.505,-35.247 112.321,-47.684 12.883,-13.56 19.773,-36.387 19.773,-36.387 0,0 22.374,48.138 98.647,74.918 66.253,23.262 83.732,20.001 83.732,20.001 0,0 21.057,-11.181 35.595,-19.661 16.272,-9.492 37.967,-23.052 37.967,-23.052 0,0 -72.882,5.764 -123.732,-1.695 -50.85,-7.457 -79.002,-29.745 -94.579,-43.052 -12.6,-10.763 -18.967,-27.214 -21.199,-40.702 41.871,-1.56 76.044,-1.56 97.133,-1.56 24.632,0 43.391,0.453 60.568,1.13 14.091,0.558 23.276,1.356 30.733,1.356 7.459,0 10.85,-10.396 5.426,-14.462 -5.426,-4.068 -38.871,-27.572 -47.459,-31.415 -8.588,-3.841 -15.367,-1.581 -20.339,0.452 -4.973,2.035 -26.893,10.623 -32.77,13.108 -5.875,2.485 -9.943,3.164 -15.82,3.389 -5.027,0.194 -36.357,3.2 -78.423,5.622 v -33.83 c 0,-3.049 1.23,-5.889 3.074,-7.498 5.529,-4.831 11.278,-11.5269 11.278,-18.6456 0,-9.492 -56.95,-31.1879 -56.95,-31.1879 0,0 5.422,18.3066 5.422,33.5599 v 59.4156 c -46.717,1.875 -87.869,2.079 -116.273,2.283 -22.993,0.165 -47.561,-3.18 -59.079,-4.985 -4.219,-0.662 -3.592,2.054 -1.376,4.533 1.921,2.147 11.593,12.897 21.921,22.6 7.586,7.125 14.916,12.543 17.176,14.237 5.256,3.941 13.673,4.295 15.256,1.358 1.308,-2.43 7.682,-2.714 16.497,-4.296 7.879,-1.415 58.02,-9.691 105.54,-13.207 -1.952,19.625 -13.779,62.34 -71.189,82.476 -62.827,22.033 -142.152,14.124 -142.152,14.124 0,0 14.503,6.868 33.448,11.752 18.945,4.884 43.166,7.005 43.166,7.005 m 256.957,7.571 c -7.817,-6.407 -16.681,-11.335 -19.194,-12.394 -6.795,-2.861 -10.907,-2.222 -13.631,-1.109 -2.724,1.113 -17.345,6.272 -24.768,7.957 -3.14,0.714 -27.952,4.788 -56.916,6.15 -28.961,1.361 -52.248,3.397 -69.453,3.521 -10.801,0.077 -22.693,-2.613 -30.34,-4.576 -6.271,-1.611 -8.135,2.457 -4.236,6.356 8.731,8.731 24.705,23.529 26.525,25.638 2.352,2.723 9.702,6.352 19.408,4.447 6.046,-1.187 10.048,-5.353 14.408,-6.836 5.311,-1.808 22.844,-6.888 51.187,-8.249 28.344,-1.361 51.302,-1.017 65.881,-0.339 13.473,0.627 22.711,1.356 32.88,3.051 7.617,1.269 14.742,2.271 18.814,2.543 7.628,0.508 11.358,-3.899 4.238,-12.035 -1.511,-1.727 -7.852,-8.427 -14.803,-14.125"
     style="fill:#000000;fill-opacity:1;fill-rule:nonzero;stroke:none"
     id="path10966" />
</svg>
