<?xml version="1.0" encoding="UTF-8" standalone="no"?>
<!-- Created with Inkscape (http://www.inkscape.org/) -->

<svg
   version="1.1"
   id="svg33052"
   width="793.70135"
   height="793.70135"
   viewBox="0 0 793.70135 793.70135"
   sodipodi:docname="maruni-agehachou.svg"
   inkscape:version="1.2 (dc2aeda, 2022-05-15)"
   xmlns:inkscape="http://www.inkscape.org/namespaces/inkscape"
   xmlns:sodipodi="http://sodipodi.sourceforge.net/DTD/sodipodi-0.dtd"
   xmlns="http://www.w3.org/2000/svg"
   xmlns:svg="http://www.w3.org/2000/svg">
  <defs
     id="defs33056">
    <clipPath
       clipPathUnits="userSpaceOnUse"
       id="clipPath33911">
      <path
         d="M -536.6982,584.5729 H 58.577797 V -10.7031 H -536.6982 Z"
         id="path33913"
         style="stroke-width:0.999998" />
    </clipPath>
    <clipPath
       clipPathUnits="userSpaceOnUse"
       id="clipPath33917">
      <path
         d="M -528.0898,575.3815 H 67.186197 V -19.8945 H -528.0898 Z"
         id="path33919"
         style="stroke-width:0.999998" />
    </clipPath>
    <clipPath
       clipPathUnits="userSpaceOnUse"
       id="clipPath33923">
      <path
         d="M -574.5459,585.8522 H 20.730097 V -9.4238 H -574.5459 Z"
         id="path33925"
         style="stroke-width:0.999998" />
    </clipPath>
    <clipPath
       clipPathUnits="userSpaceOnUse"
       id="clipPath33929">
      <path
         d="M -572.8174,586.1354 H 22.458597 V -9.1406 H -572.8174 Z"
         id="path33931"
         style="stroke-width:0.999998" />
    </clipPath>
    <clipPath
       clipPathUnits="userSpaceOnUse"
       id="clipPath33935">
      <path
         d="m -181.1484,432.2018 h 595.276 v -595.276 h -595.276 z"
         id="path33937"
         style="stroke-width:0.999998" />
    </clipPath>
    <clipPath
       clipPathUnits="userSpaceOnUse"
       id="clipPath33941">
      <path
         d="M -542.9326,584.5729 H 52.343397 V -10.7031 H -542.9326 Z"
         id="path33943"
         style="stroke-width:0.999998" />
    </clipPath>
    <clipPath
       clipPathUnits="userSpaceOnUse"
       id="clipPath33947">
      <path
         d="M -538.2217,577.9479 H 57.054297 V -17.3281 H -538.2217 Z"
         id="path33949"
         style="stroke-width:0.999998" />
    </clipPath>
    <clipPath
       clipPathUnits="userSpaceOnUse"
       id="clipPath33953">
      <path
         d="m -231.1758,460.2975 h 595.276 v -595.276 h -595.276 z"
         id="path33955"
         style="stroke-width:0.999998" />
    </clipPath>
    <clipPath
       clipPathUnits="userSpaceOnUse"
       id="clipPath33959">
      <path
         d="M -550.2637,577.3248 H 45.012297 V -17.9512 H -550.2637 Z"
         id="path33961"
         style="stroke-width:0.999998" />
    </clipPath>
    <clipPath
       clipPathUnits="userSpaceOnUse"
       id="clipPath33965">
      <path
         d="M -584.1943,578.9381 H 11.081697 V -16.3379 H -584.1943 Z"
         id="path33967"
         style="stroke-width:0.999998" />
    </clipPath>
    <clipPath
       clipPathUnits="userSpaceOnUse"
       id="clipPath33972">
      <path
         d="m -419.1172,282.9191 h 595.276 v -595.276 h -595.276 z"
         id="path33974"
         style="stroke-width:0.999998" />
    </clipPath>
    <clipPath
       clipPathUnits="userSpaceOnUse"
       id="clipPath33978">
      <path
         d="m -157.4795,405.1852 h 595.276 v -595.276 h -595.276 z"
         id="path33980"
         style="stroke-width:0.999998" />
    </clipPath>
    <clipPath
       clipPathUnits="userSpaceOnUse"
       id="clipPath33984">
      <path
         d="m -275.7402,467.5123 h 595.276 v -595.276 h -595.276 z"
         id="path33986"
         style="stroke-width:0.999998" />
    </clipPath>
    <clipPath
       clipPathUnits="userSpaceOnUse"
       id="clipPath33990">
      <path
         d="m -168.8115,418.9059 h 595.276 v -595.276 h -595.276 z"
         id="path33992"
         style="stroke-width:0.999998" />
    </clipPath>
    <clipPath
       clipPathUnits="userSpaceOnUse"
       id="clipPath33996">
      <path
         d="M -548.9834,585.8522 H 46.292597 V -9.4238 H -548.9834 Z"
         id="path33998"
         style="stroke-width:0.999998" />
    </clipPath>
    <clipPath
       clipPathUnits="userSpaceOnUse"
       id="clipPath34002">
      <path
         d="M -568.2266,575.819 H 27.049397 V -19.457 H -568.2266 Z"
         id="path34004"
         style="stroke-width:0.999998" />
    </clipPath>
    <clipPath
       clipPathUnits="userSpaceOnUse"
       id="clipPath34009">
      <path
         d="M -540.8213,585.8483 H 54.454697 V -9.4277 H -540.8213 Z"
         id="path34011"
         style="stroke-width:0.999998" />
    </clipPath>
    <clipPath
       clipPathUnits="userSpaceOnUse"
       id="clipPath34015">
      <path
         d="M -557.0645,585.8483 H 38.211497 V -9.4277 H -557.0645 Z"
         id="path34017"
         style="stroke-width:0.999998" />
    </clipPath>
    <clipPath
       clipPathUnits="userSpaceOnUse"
       id="clipPath34021">
      <path
         d="M -553.8975,585.8483 H 41.378497 V -9.4277 H -553.8975 Z"
         id="path34023"
         style="stroke-width:0.999998" />
    </clipPath>
    <clipPath
       clipPathUnits="userSpaceOnUse"
       id="clipPath34027">
      <path
         d="M -556.4014,578.0143 H 38.874597 V -17.2617 H -556.4014 Z"
         id="path34029"
         style="stroke-width:0.999998" />
    </clipPath>
    <clipPath
       clipPathUnits="userSpaceOnUse"
       id="clipPath34033">
      <path
         d="M -576.3691,585.5885 H 18.906897 V -9.6875 H -576.3691 Z"
         id="path34035"
         style="stroke-width:0.999998" />
    </clipPath>
    <clipPath
       clipPathUnits="userSpaceOnUse"
       id="clipPath34039">
      <path
         d="m -310.7881,456.6412 h 595.276 v -595.276 h -595.276 z"
         id="path34041"
         style="stroke-width:0.999998" />
    </clipPath>
    <clipPath
       clipPathUnits="userSpaceOnUse"
       id="clipPath34045">
      <path
         d="m -217.501,459.3121 h 595.276 v -595.276 h -595.276 z"
         id="path34047"
         style="stroke-width:0.999998" />
    </clipPath>
    <clipPath
       clipPathUnits="userSpaceOnUse"
       id="clipPath34051">
      <path
         d="M -564.5732,585.8483 H 30.702797 V -9.4277 H -564.5732 Z"
         id="path34053"
         style="stroke-width:0.999998" />
    </clipPath>
    <clipPath
       clipPathUnits="userSpaceOnUse"
       id="clipPath34057">
      <path
         d="M -557.4951,577.8502 H 37.780897 V -17.4258 H -557.4951 Z"
         id="path34059"
         style="stroke-width:0.999998" />
    </clipPath>
    <clipPath
       clipPathUnits="userSpaceOnUse"
       id="clipPath34063">
      <path
         d="M -531.1924,581.5885 H 64.083597 V -13.6875 H -531.1924 Z"
         id="path34065"
         style="stroke-width:0.999998" />
    </clipPath>
    <clipPath
       clipPathUnits="userSpaceOnUse"
       id="clipPath34069">
      <path
         d="M -567.7754,585.8522 H 27.500597 V -9.4238 H -567.7754 Z"
         id="path34071"
         style="stroke-width:0.999998" />
    </clipPath>
    <clipPath
       clipPathUnits="userSpaceOnUse"
       id="clipPath34075">
      <path
         d="M -545.417,584.5729 H 49.858997 V -10.7031 H -545.417 Z"
         id="path34077"
         style="stroke-width:0.999998" />
    </clipPath>
    <clipPath
       clipPathUnits="userSpaceOnUse"
       id="clipPath34081">
      <path
         d="M -561.4131,585.8522 H 33.862897 V -9.4238 H -561.4131 Z"
         id="path34083"
         style="stroke-width:0.999998" />
    </clipPath>
    <clipPath
       clipPathUnits="userSpaceOnUse"
       id="clipPath34087">
      <path
         d="M -586.5449,579.5026 H 8.7310974 V -15.7734 H -586.5449 Z"
         id="path34089"
         style="stroke-width:0.999998" />
    </clipPath>
    <clipPath
       clipPathUnits="userSpaceOnUse"
       id="clipPath34094">
      <path
         d="m -315.6113,429.4362 h 595.276 v -595.276 h -595.276 z"
         id="path34096"
         style="stroke-width:0.999998" />
    </clipPath>
    <clipPath
       clipPathUnits="userSpaceOnUse"
       id="clipPath34100">
      <path
         d="m -373.8486,425.0612 h 595.276 v -595.276 h -595.276 z"
         id="path34102"
         style="stroke-width:0.999998" />
    </clipPath>
    <clipPath
       clipPathUnits="userSpaceOnUse"
       id="clipPath34106">
      <path
         d="m -392.9268,435.3414 h 595.276 v -595.276 h -595.276 z"
         id="path34108"
         style="stroke-width:0.999998" />
    </clipPath>
    <clipPath
       clipPathUnits="userSpaceOnUse"
       id="clipPath34112">
      <path
         d="m -417.9492,426.0543 h 595.276 v -595.276 h -595.276 z"
         id="path34114"
         style="stroke-width:0.999998" />
    </clipPath>
    <clipPath
       clipPathUnits="userSpaceOnUse"
       id="clipPath34118">
      <path
         d="m -144.4883,349.2203 h 595.276 v -595.276 h -595.276 z"
         id="path34120"
         style="stroke-width:0.999998" />
    </clipPath>
    <clipPath
       clipPathUnits="userSpaceOnUse"
       id="clipPath34124">
      <path
         d="m -198.127,347.3737 h 595.276 v -595.276 h -595.276 z"
         id="path34126"
         style="stroke-width:0.999998" />
    </clipPath>
    <clipPath
       clipPathUnits="userSpaceOnUse"
       id="clipPath34130">
      <path
         d="m -201.8926,345.9498 h 595.276 v -595.276 h -595.276 z"
         id="path34132"
         style="stroke-width:0.999998" />
    </clipPath>
    <clipPath
       clipPathUnits="userSpaceOnUse"
       id="clipPath34136">
      <path
         d="m -396.2793,415.9762 h 595.276 v -595.276 h -595.276 z"
         id="path34138"
         style="stroke-width:0.999998" />
    </clipPath>
    <clipPath
       clipPathUnits="userSpaceOnUse"
       id="clipPath34142">
      <path
         d="m -351.6504,353.3883 h 595.276 v -595.276 h -595.276 z"
         id="path34144"
         style="stroke-width:0.999998" />
    </clipPath>
    <clipPath
       clipPathUnits="userSpaceOnUse"
       id="clipPath34148">
      <path
         d="m -319.0654,312.7555 h 595.276 v -595.276 h -595.276 z"
         id="path34150"
         style="stroke-width:0.999998" />
    </clipPath>
    <clipPath
       clipPathUnits="userSpaceOnUse"
       id="clipPath34154">
      <path
         d="m -239.5342,252.6251 h 595.276 v -595.276 h -595.276 z"
         id="path34156"
         style="stroke-width:0.999998" />
    </clipPath>
    <clipPath
       clipPathUnits="userSpaceOnUse"
       id="clipPath34160">
      <path
         d="m -353.7549,349.9635 h 595.276 v -595.276 h -595.276 z"
         id="path34162"
         style="stroke-width:0.999998" />
    </clipPath>
    <clipPath
       clipPathUnits="userSpaceOnUse"
       id="clipPath34166">
      <path
         d="m -381.8809,267.3829 h 595.276 v -595.276 h -595.276 z"
         id="path34168"
         style="stroke-width:0.999998" />
    </clipPath>
    <clipPath
       clipPathUnits="userSpaceOnUse"
       id="clipPath34172">
      <path
         d="m -222.9922,303.985 h 595.276 v -595.276 h -595.276 z"
         id="path34174"
         style="stroke-width:0.999998" />
    </clipPath>
    <clipPath
       clipPathUnits="userSpaceOnUse"
       id="clipPath34178">
      <path
         d="m -195.8457,189.9113 h 595.276 v -595.276 h -595.276 z"
         id="path34180"
         style="stroke-width:0.999998" />
    </clipPath>
    <clipPath
       clipPathUnits="userSpaceOnUse"
       id="clipPath34184">
      <path
         d="m -297.6377,526.4811 h 595.276 v -595.276 h -595.276 z"
         id="path34186"
         style="stroke-width:0.999998" />
    </clipPath>
  </defs>
  <sodipodi:namedview
     id="namedview33054"
     pagecolor="#ffffff"
     bordercolor="#000000"
     borderopacity="0.25"
     inkscape:showpageshadow="2"
     inkscape:pageopacity="0.0"
     inkscape:pagecheckerboard="0"
     inkscape:deskcolor="#d1d1d1"
     showgrid="false"
     inkscape:zoom="0.29734106"
     inkscape:cx="-215.24105"
     inkscape:cy="396.85068"
     inkscape:window-width="1419"
     inkscape:window-height="456"
     inkscape:window-x="0"
     inkscape:window-y="25"
     inkscape:window-maximized="0"
     inkscape:current-layer="svg33052">
    <inkscape:page
       x="0"
       y="0"
       id="page33058"
       width="793.70135"
       height="793.70135" />
  </sodipodi:namedview>
  <path
     d="m 367.652,623.349 c 1.987,-2.938 3.218,-6.586 3.22,-10.402 -0.005,-10.179 -8.246,-18.42 -18.422,-18.424 -10.179,0.004 -18.42,8.245 -18.423,18.424 0,3.998 1.285,7.697 3.448,10.718 -4.728,-0.388 -8.13,-1.077 -10.638,-2.28 -8.938,0.734 -15.959,8.208 -15.975,17.332 0,3.63 1.964,6.24 3.976,6.94 -0.092,-0.396 -0.141,-0.813 -0.141,-1.238 0,-3.027 2.453,-5.482 5.481,-5.482 4.715,0 6.817,3.143 6.817,7.33 0,5.048 -4.294,8.216 -10.258,8.216 -7.196,-0.011 -14.379,-6.888 -14.379,-15.766 0.003,-11.712 7.775,-21.606 18.445,-24.808 -1.057,-3.406 -1.572,-7.932 -2.25,-13.949 -3.164,-27.969 21.391,-44.085 45.821,-44.085 8.604,0 15.753,1.435 23.606,6.347 7.854,4.916 15.702,15.629 15.702,27.272 0,7.386 -2.544,14.175 -6.799,19.55 -6.912,8.807 -18.401,12.787 -29.231,14.305"
     style="fill:#000000;fill-opacity:1;fill-rule:nonzero;stroke:none"
     id="path33172" />
  <path
     d="m 308.234,613.731 c -2.181,0 -3.949,-1.771 -3.949,-3.952 0,-2.184 1.768,-3.952 3.949,-3.952 2.185,0 3.956,1.768 3.956,3.952 0,2.181 -1.771,3.952 -3.956,3.952 m 4.831,-16.14 c -1.498,-0.595 -3.126,-0.922 -4.831,-0.922 -7.239,0 -13.108,5.87 -13.108,13.11 0,5.101 2.915,9.521 7.173,11.686 3.066,-4.606 7.32,-8.354 12.334,-10.796 -0.53,-2.97 -0.88,-6.258 -1.323,-10.086 -0.115,-1.008 -0.196,-2.007 -0.245,-2.992 m 39.423,19.332 c -2.181,0 -3.952,-1.771 -3.952,-3.952 0,-2.184 1.771,-3.952 3.952,-3.952 2.182,0 3.952,1.768 3.952,3.952 0,2.181 -1.77,3.952 -3.952,3.952 m 0,-17.062 c -7.238,0 -13.109,5.868 -13.109,13.11 0,7.237 5.871,13.108 13.109,13.108 7.242,0 13.108,-5.871 13.108,-13.108 0,-7.242 -5.866,-13.11 -13.108,-13.11"
     style="fill:#000000;fill-opacity:1;fill-rule:nonzero;stroke:none"
     id="path33176" />
  <path
     d="m 558.821,377.226 c 0.735,-4.373 1.114,-8.863 1.114,-13.437 -0.011,-36.083 -23.626,-66.641 -56.274,-77.044 4.042,-8.927 6.291,-18.847 6.288,-29.261 0,-5.863 -0.709,-11.558 -2.048,-17.007 11.578,-9.975 18.907,-24.74 18.907,-41.223 0,-5.946 -0.96,-11.686 -2.724,-17.043 -0.741,-1.927 -1.209,-4.012 -1.333,-6.183 -0.642,-11.228 7.957,-20.579 19.166,-21.493 13.423,-1.098 20.331,7.225 24.848,24.413 4.118,15.677 1.594,28.053 1.594,28.053 0,0 1.884,-2.691 8.516,-6.232 6.31,-3.372 16.22,-3.957 21.381,2.688 5.158,6.645 3.684,15.884 -2.689,21.379 -8.679,7.477 -22.163,21.382 -25.328,26.365 -2.319,3.336 -3.674,7.385 -3.674,11.755 0,11.397 9.236,20.634 20.634,20.634 3.357,0 6.528,-0.769 9.328,-2.192 0,37.024 -14.312,70.712 -37.706,95.828"
     style="fill:#000000;fill-opacity:1;fill-rule:nonzero;stroke:none"
     id="path33180" />
  <path
     d="m 241.53,576.27 -7.187,18.305 -37.699,6.529 10.323,11.16 36.627,-6.344 7.815,-19.9 c -3.336,-3.19 -6.627,-6.44 -9.879,-9.75"
     style="fill:#000000;fill-opacity:1;fill-rule:nonzero;stroke:none"
     id="path33184" />
  <path
     d="m 225.081,558.542 -7.547,19.228 -36.61,6.344 10.32,11.154 35.542,-6.157 7.86,-20.017 c -3.236,-3.455 -6.427,-6.97 -9.565,-10.552"
     style="fill:#000000;fill-opacity:1;fill-rule:nonzero;stroke:none"
     id="path33188" />
  <path
     d="m 209.973,540.247 -8.446,21.513 -35.577,6.164 10.32,11.155 34.509,-5.977 8.415,-21.436 c -3.133,-3.738 -6.207,-7.546 -9.221,-11.419"
     style="fill:#000000;fill-opacity:1;fill-rule:nonzero;stroke:none"
     id="path33192" />
  <path
     d="m 304.133,347.449 v 0 h 0.003 z"
     style="fill:#000000;fill-opacity:1;fill-rule:nonzero;stroke:none"
     id="path33196" />
  <path
     d="M 431.947,621.246 Z"
     style="fill:#000000;fill-opacity:1;fill-rule:nonzero;stroke:none"
     id="path33200" />
  <path
     d="m 290.001,612.416 c -32.608,-25.584 -62.976,-55.988 -87.952,-91.897 -24.004,-34.524 -41.315,-71.646 -56.159,-108.996 -2.026,-5.197 -7.01,-8.361 -12.269,-8.368 -1.589,0 -3.2,0.29 -4.799,0.914 -0.672,0.262 -1.308,0.573 -1.909,0.928 2.108,1.997 3.511,4.758 3.751,7.882 0.506,6.682 -4.499,12.511 -11.18,13.023 -6.682,0.508 -12.299,-4.665 -13.022,-11.179 -1.282,-11.573 5.894,-20.873 16.452,-24.988 3.34,-1.313 6.818,-1.944 10.226,-1.944 11.205,-0.006 22.26,7.247 26.59,18.268 14.611,36.778 31.475,72.803 54.536,105.964 22.841,32.859 50.584,61.107 80.512,85.172 -3.08,3.292 -4.965,7.716 -4.968,12.582 0.003,0.895 0.065,1.778 0.191,2.639"
     style="fill:#000000;fill-opacity:1;fill-rule:nonzero;stroke:none"
     id="path33204" />
  <path
     d="m 420.814,572.582 c 1.9,5.13 3.084,10.816 3.098,16.932 v 0.016 c 0,5.034 -0.732,9.918 -2.082,14.535 17.722,-13.005 32.681,-29.546 43.84,-48.589 2.219,-3.789 4.565,-1.704 3.293,0.642 -15.727,28.988 -38.403,53.654 -65.821,71.725 22.993,13.373 43.56,30.462 60.881,50.437 l 13.817,-5.209 c -15.494,-17.628 -33.534,-32.967 -53.548,-45.44 29.627,-23.71 52.34,-55.695 64.631,-92.456 -27.755,2.324 -52.143,16.48 -68.109,37.407"
     style="fill:#000000;fill-opacity:1;fill-rule:nonzero;stroke:none"
     id="path33208" />
  <path
     d="m 414.383,608.855 c 2.697,-5.882 4.216,-12.447 4.216,-19.325 v -0.016 c -0.019,-9.187 -3.035,-17.366 -7.136,-23.995 -4.147,-6.637 -9.471,-12.049 -15.539,-15.877 -10.065,-6.44 -20.764,-8.646 -30.873,-8.634 -0.244,0.003 -0.473,0.006 -0.688,0.01 -14.475,0.032 -29.032,4.374 -40.722,13.364 -5.851,4.525 -10.951,10.286 -14.562,17.237 -3.172,6.069 -5.124,12.98 -5.557,20.343 1.504,-0.398 3.084,-0.608 4.712,-0.611 1.681,0 3.317,0.228 4.872,0.653 0.413,-5.833 1.985,-11.233 4.456,-15.964 2.913,-5.604 7.061,-10.324 11.923,-14.085 9.777,-7.535 22.306,-11.352 34.935,-11.376 0.252,-0.001 0.45,-0.004 0.631,-0.004 8.784,0.015 17.403,1.829 25.751,7.141 4.78,3.015 9.113,7.374 12.533,12.854 3.359,5.426 5.687,11.897 5.7,18.954 v 0.006 c 0,8.599 -2.993,16.582 -7.92,22.801 -0.795,1.008 -1.631,1.957 -2.508,2.85 3.237,-1.064 6.4,-2.168 9.389,-3.274 2.066,-0.766 4.224,-1.823 6.387,-3.052"
     style="fill:#000000;fill-opacity:1;fill-rule:nonzero;stroke:none"
     id="path33212" />
  <path
     d="m 498.464,566.748 c -1.848,2.598 -3.744,5.188 -5.751,7.714 -16.793,21.143 -39.465,39.059 -59.445,52.627 18.007,11.982 34.336,26.283 48.563,42.471 l 1.325,1.507 16.749,-6.323 c -13.314,-15.92 -30.14,-28.805 -49.285,-37.463 32.275,-19.672 58.808,-47.834 76.489,-81.387 -2.764,-0.324 -5.57,-0.49 -8.421,-0.49 -10.932,0 -21.291,2.444 -30.564,6.819 -6.137,14.379 -13.879,27.908 -22.989,40.371 8.413,-6.091 16.424,-12.723 23.809,-19.986 2.287,-2.249 4.559,-4.518 6.672,-6.93 2.299,-2.631 4.655,-1.474 2.848,1.07"
     style="fill:#000000;fill-opacity:1;fill-rule:nonzero;stroke:none"
     id="path33216" />
  <path
     d="m 523.901,580.455 c -17.601,19.11 -38.792,34.87 -62.489,46.226 16.337,8.748 30.777,20.552 42.569,34.651 l 1.191,1.428 14.853,-5.609 c -10.613,-12.623 -23.589,-23.194 -38.249,-31.031 29.785,-16.349 55.513,-39.214 75.285,-66.684 -3.777,-0.284 -7.596,-0.426 -11.446,-0.426 -7.01,0 -13.906,0.477 -20.658,1.402 -7.604,12.411 -16.433,23.986 -26.318,34.561 8.589,-4.255 16.452,-9.73 23.505,-16.077 1.812,-1.633 2.901,0.23 1.757,1.559"
     style="fill:#000000;fill-opacity:1;fill-rule:nonzero;stroke:none"
     id="path33220" />
  <path
     d="m 557.264,568.072 c 3.408,-1.486 7.175,-2.314 11.129,-2.314 15.363,0 27.815,12.452 27.815,27.812 0,15.361 -12.452,27.81 -27.815,27.81 -20.264,0 -32.081,-10.503 -32.081,-10.503 0,0 9.832,-2.08 17.096,-6.142 5.685,-3.182 9.301,-6.102 11.195,-8.34 1.582,-1.872 2.212,-4.335 0.674,-6.243 -1.54,-1.912 -4.449,-2.346 -6.244,-0.676 -2.437,2.272 -6.865,6.787 -15.633,10.951 -12.313,5.845 -26.408,8.642 -26.408,8.642 15.043,-11.948 28.58,-25.725 40.272,-40.997"
     style="fill:#000000;fill-opacity:1;fill-rule:nonzero;stroke:none"
     id="path33224" />
  <path
     d="m 192.65,465.627 c 1.572,3.127 3.207,6.223 4.928,9.365 6.903,3.672 14.681,5.678 22.685,5.678 4.875,0 9.836,-0.742 14.734,-2.307 12.44,-3.983 22.128,-12.511 27.856,-23.18 l 1.27,-2.361 2.348,1.288 c 6.346,3.477 13.552,5.397 21.003,5.397 3.783,-0.002 7.628,-0.494 11.46,-1.529 6.228,-1.688 11.771,-4.641 16.436,-8.503 -0.619,-3.786 -1.187,-7.592 -1.691,-11.414 -5.249,4.372 -11.505,7.716 -18.533,9.624 -4.292,1.165 -8.607,1.718 -12.852,1.718 -7.463,-0.002 -14.701,-1.718 -21.227,-4.858 -6.462,10.766 -16.732,19.333 -29.63,23.455 -5.428,1.738 -10.938,2.563 -16.354,2.563 -7.84,0 -15.482,-1.732 -22.433,-4.936"
     style="fill:#000000;fill-opacity:1;fill-rule:nonzero;stroke:none"
     id="path33228" />
  <path
     d="m 264.169,463.166 c -6.492,9.256 -15.962,16.552 -27.555,20.258 -5.425,1.734 -10.935,2.562 -16.351,2.562 -6.318,0 -12.509,-1.123 -18.313,-3.236 0.076,0.129 0.151,0.262 0.227,0.389 5.125,8.787 10.592,17.424 16.452,25.849 22.51,32.386 49.909,60.292 79.518,84.094 0.119,-3.4 0.527,-6.728 1.211,-9.947 -24.889,-24.195 -45.205,-53.072 -59.525,-85.217 -0.599,-1.338 0.005,-2.908 1.345,-3.504 1.343,-0.599 2.912,0.004 3.511,1.345 13.63,30.599 32.812,58.191 56.26,81.491 0.926,-2.811 2.072,-5.511 3.414,-8.082 0.956,-1.841 2.008,-3.606 3.14,-5.294 -20.35,-30.058 -35.262,-64.099 -43.334,-100.708"
     style="fill:#000000;fill-opacity:1;fill-rule:nonzero;stroke:none"
     id="path33232" />
  <path
     d="m 269.19,461.267 c 7.751,35.608 22.088,68.752 41.684,98.096 2.863,-3.465 6.083,-6.533 9.528,-9.196 1.324,-1.02 2.684,-1.983 4.071,-2.889 -12.487,-21.59 -22.116,-45.035 -28.371,-69.826 -0.361,-1.422 0.501,-2.869 1.921,-3.226 1.424,-0.36 2.871,0.502 3.23,1.925 6.13,24.277 15.556,47.244 27.778,68.393 4.143,-2.266 8.487,-4.085 12.949,-5.47 -11.646,-26.424 -20.317,-54.455 -25.59,-83.667 -4.704,3.434 -10.107,6.081 -16.061,7.696 -4.294,1.161 -8.61,1.719 -12.854,1.719 -6.358,0 -12.554,-1.246 -18.285,-3.555"
     style="fill:#000000;fill-opacity:1;fill-rule:nonzero;stroke:none"
     id="path33236" />
  <path
     d="m 528.371,554.635 c 2.132,-0.233 4.278,-0.424 6.436,-0.572 18.684,-52.848 55.288,-92.741 92.33,-115.5 1.249,-0.77 2.887,-0.38 3.655,0.874 0.765,1.249 0.376,2.888 -0.874,3.65 -35.559,21.836 -70.926,60.132 -89.361,110.683 0.896,-0.016 1.654,-0.012 2.739,-0.06 0.771,-0.011 1.543,-0.016 2.316,-0.016 3.983,0 7.933,0.149 11.845,0.444 l 2.763,0.205 c 17.343,-43.653 48.902,-78.859 80.057,-98.914 1.235,-0.795 2.876,-0.438 3.673,0.798 0.79,1.232 0.434,2.876 -0.8,3.668 -29.848,19.185 -60.437,53.137 -77.423,94.991 2.048,0.341 3.042,0.724 3.042,0.724 -0.704,1.704 -1.285,3.141 -1.944,4.868 0.535,-0.028 1.032,-0.038 1.568,-0.038 4.838,0.002 9.434,1.04 13.575,2.9 14.491,-36.889 39.521,-68.464 71.382,-91.029 1.2,-0.849 2.859,-0.565 3.706,0.631 0.848,1.197 0.564,2.856 -0.636,3.706 -31.086,22.016 -55.5,52.852 -69.589,88.851 l -0.195,0.437 c 1.287,0.859 2.256,1.608 2.256,1.608 6.192,4.887 10.6,11.938 12.08,20.01 26.981,-9.092 46.41,-34.599 46.41,-64.643 0,-1.537 -0.052,-3.061 -0.152,-4.573 16.416,-8.48 27.638,-25.61 27.638,-45.36 0,-5.487 -0.867,-10.774 -2.471,-15.727 9.625,-14.25 15.244,-31.425 15.244,-49.917 0,-18.395 -5.561,-35.492 -15.097,-49.697 -5.748,11.244 -16.523,19.634 -30.019,19.634 -1.705,0 -3.383,-0.122 -5.023,-0.358 -3.592,-0.484 -8.096,-2.944 -10.209,-6.236 -5.203,-8.114 -1.659,-16.971 8.261,-22.639 3.907,-2.233 12.095,-5.54 22.235,-16.651 13.42,-14.702 18.029,-32.573 9.687,-40.481 -3.312,-3.14 -8.575,-4.78 -13.582,-3.43 -5.01,1.35 -5.396,3.325 -9.526,6 -3.859,2.497 -8.066,3.824 -8.066,3.824 0,0 4.92,-12.56 1.686,-27.207 -2.256,-10.232 -9.432,-17.804 -20.159,-17.013 -8.781,0.646 -14.848,8.222 -14.779,17.028 0.091,12.205 -1.05,24.442 -3.577,37.596 -5.096,27.97 -18.168,53.183 -36.764,73.143 -1.72,2.035 -5.2,5.003 -9.096,8.251 -1.996,1.663 -4.678,3.596 -6.792,5.153 -50.088,36.872 -87.526,89.9 -104.618,151.409 5.921,-3.829 12.272,-7.054 18.96,-9.594 1.823,-0.735 3.032,-1.132 4.12,-1.466 27.79,-79.122 81.25,-122.966 121.698,-147.583 1.254,-0.763 2.887,-0.364 3.652,0.888 0.764,1.253 0.367,2.888 -0.888,3.65 -39.234,23.918 -90.546,65.83 -118.154,141.193 5.465,-1.417 11.106,-2.385 16.888,-2.866 l 1.792,-0.154 c 1.048,-0.034 2.024,-0.081 2.881,-0.129 26.719,-65.953 71.26,-103.516 107.277,-125.173 1.256,-0.756 2.889,-0.349 3.649,0.905 0.756,1.259 0.348,2.891 -0.908,3.648 -37.633,22.668 -84.489,62.684 -109.906,135.405 6.74,-2.356 13.909,-3.8 21.345,-4.189 22.176,-56.608 61.16,-95.766 99.247,-118.634 1.257,-0.755 2.889,-0.348 3.645,0.91 0.755,1.258 0.345,2.89 -0.909,3.644 -36.737,22.06 -74.4,59.683 -96.239,114.009 1.032,0.026 1.912,0.062 2.61,0.082 1.602,0.086 3.188,0.225 4.76,0.406 l 7.698,0.902 -3.613,6.856 c -1.111,2.11 -2.259,4.198 -3.437,6.265"
     style="fill:#000000;fill-opacity:1;fill-rule:nonzero;stroke:none"
     id="path33240" />
  <path
     d="m 468.865,471.184 c -20.117,-9.174 -35.143,-27.577 -39.707,-49.779 -6.291,12.708 -11.639,27.21 -14.978,43.603 -4.508,22.124 -5.913,43.651 -5.913,61.86 0,10.236 0.444,19.424 1.029,27.083 2.436,2.632 4.658,5.539 6.635,8.691 0.9,1.381 1.736,3.012 2.413,4.468 -0.194,-18.175 1.908,-52.503 16.286,-95.734 0.462,-1.394 1.965,-2.149 3.36,-1.682 1.389,0.461 2.144,1.962 1.68,3.356 -12.688,38.158 -15.646,69.208 -15.986,87.978 3.635,-3.828 7.566,-7.372 11.754,-10.594 6.765,-26.66 17.261,-51.831 30.901,-74.926 0.641,-1.046 1.438,-2.478 2.526,-4.324"
     style="fill:#000000;fill-opacity:1;fill-rule:nonzero;stroke:none"
     id="path33244" />
  <path
     d="m 425.419,417.007 c -21.817,-4.754 -39.845,-19.636 -48.915,-39.476 -5.277,16.494 -9.132,36.615 -9.745,60.798 -0.085,3.161 -0.124,6.284 -0.121,9.364 -0.003,37.022 5.586,67.469 11.438,89.211 2.65,0.514 5.315,1.211 7.971,2.116 0.736,0.238 1.333,0.438 1.86,0.626 -2.508,-15.059 -4.556,-33.708 -4.559,-54.496 0.003,-12.483 0.738,-25.74 2.566,-39.447 1.132,-8.517 2.606,-16.372 4.336,-23.609 0.34,-1.429 1.774,-2.308 3.2,-1.968 1.426,0.341 2.306,1.773 1.97,3.199 -1.685,7.057 -3.128,14.736 -4.24,23.081 -1.789,13.448 -2.514,26.468 -2.514,38.744 0,22.085 2.349,41.741 5.085,57.126 1.683,0.859 3.352,1.81 5.008,2.868 1.664,1.036 3.309,2.223 4.848,3.467 -0.389,-6.48 -0.656,-13.8 -0.656,-21.743 0,-18.482 1.424,-40.346 6.021,-62.921 3.615,-17.766 9.532,-33.386 16.447,-46.94"
     style="fill:#000000;fill-opacity:1;fill-rule:nonzero;stroke:none"
     id="path33248" />
  <path
     d="m 319.378,336.834 c -2.377,16.913 -3.621,34.277 -3.621,51.847 0,53.03 11.22,103.439 31.41,148.986 2.661,-0.616 5.349,-1.085 8.051,-1.411 0.548,-0.076 1.04,-0.133 1.497,-0.18 -10.411,-28.765 -20.243,-69.572 -20.227,-125.014 0,-7.229 0.167,-14.712 0.52,-22.449 0.198,-4.31 0.508,-8.863 0.927,-13.454 l 0.005,0.003 c 0.131,-1.461 1.423,-2.539 2.884,-2.403 1.463,0.134 2.539,1.428 2.407,2.89 -0.416,4.501 -0.719,8.978 -0.913,13.206 -0.35,7.659 -0.518,15.059 -0.515,22.207 0.016,55.808 10.013,96.341 20.447,124.686 1.369,-0.033 2.884,-0.054 2.884,-0.054 1.353,0 2.737,0.033 4.12,0.112 0.95,0.002 2,0.1 3.096,0.229 -5.735,-21.948 -11.024,-52.035 -11.027,-88.342 0,-3.122 0.039,-6.291 0.123,-9.499 0.649,-25.872 4.937,-47.175 10.777,-64.6 -22.221,-4.605 -41.165,-18.155 -52.845,-36.76"
     style="fill:#000000;fill-opacity:1;fill-rule:nonzero;stroke:none"
     id="path33252" />
  <path
     d="m 471.672,466.619 c -0.201,-0.088 -0.403,-0.18 -0.6,-0.271 -19.652,-8.958 -34.069,-27.446 -37.34,-49.525 l -0.564,-3.808 -3.794,-0.65 c -22.603,-3.875 -41.255,-19.482 -49.423,-40.31 l -1.097,-2.792 -2.95,-0.506 c -24.025,-4.126 -44.251,-19.431 -55.118,-40.366 0.804,-4.839 1.648,-9.803 2.581,-14.513 7.667,24.207 28.419,42.661 53.888,47.021 l 7.377,1.268 2.736,6.976 c 7.155,18.259 23.567,31.987 43.352,35.362 l 9.484,1.625 1.412,9.524 c 2.855,19.333 15.527,35.588 32.76,43.439 0.619,0.282 1.287,0.49 1.915,0.75 -1.855,2.579 -3.339,4.789 -4.614,6.776"
     style="fill:#000000;fill-opacity:1;fill-rule:nonzero;stroke:none"
     id="path33256" />
  <path
     d="m 509.173,356.511 c -8.22,0 -14.876,-6.66 -14.881,-14.88 0.005,-8.221 6.661,-14.879 14.881,-14.879 8.219,0 14.88,6.659 14.88,14.879 -0.016,8.219 -6.661,14.863 -14.88,14.88 m 4.376,39.152 c -1.445,0.114 -2.906,0.178 -4.378,0.178 -29.942,-0.004 -54.207,-24.274 -54.207,-54.212 0,-3.174 0.272,-6.287 0.799,-9.315 0.223,-1.292 1.348,-2.207 2.612,-2.207 0.151,0.004 0.299,0.016 0.455,0.043 1.297,0.221 2.205,1.348 2.205,2.616 0,0.148 -0.009,0.301 -0.036,0.461 -0.473,2.726 -0.721,5.534 -0.721,8.402 0,13.51 5.47,25.716 14.319,34.572 8.856,8.854 21.066,14.32 34.574,14.322 1.329,-0.002 2.648,-0.056 3.956,-0.158 0.074,-0.006 0.145,-0.01 0.21,-0.01 1.368,0 2.536,1.052 2.648,2.45 0.003,0.068 0.008,0.141 0.008,0.21 0,1.37 -1.057,2.536 -2.444,2.648 m -63.29,-80.393 c -29.944,-0.001 -54.207,-24.272 -54.207,-54.209 0,-3.173 0.27,-6.288 0.798,-9.315 0.222,-1.293 1.348,-2.205 2.612,-2.205 0.149,0.003 0.3,0.015 0.457,0.041 1.296,0.223 2.205,1.346 2.205,2.616 0,0.148 -0.013,0.303 -0.038,0.459 -0.475,2.729 -0.722,5.536 -0.722,8.404 0,13.511 5.47,25.715 14.32,34.572 8.855,8.853 21.066,14.321 34.572,14.323 1.334,-0.002 2.652,-0.056 3.956,-0.159 0.076,-0.008 0.147,-0.008 0.214,-0.008 1.366,0 2.534,1.049 2.646,2.447 0.003,0.068 0.008,0.141 0.008,0.213 0,1.369 -1.057,2.535 -2.445,2.647 -1.444,0.114 -2.904,0.174 -4.376,0.174 M 339.14,184.329 c 0,-3.173 0.271,-6.288 0.799,-9.314 0.221,-1.295 1.348,-2.204 2.609,-2.204 0.152,0.001 0.302,0.013 0.458,0.04 1.296,0.221 2.204,1.345 2.204,2.614 0,0.15 -0.012,0.303 -0.036,0.46 -0.472,2.728 -0.722,5.535 -0.722,8.404 0,13.511 5.47,25.716 14.32,34.572 8.855,8.855 21.064,14.321 34.575,14.323 1.329,-0.002 2.648,-0.056 3.955,-0.158 0.074,-0.008 0.145,-0.009 0.212,-0.009 1.368,0 2.536,1.051 2.645,2.448 0.005,0.068 0.011,0.141 0.011,0.212 0,1.369 -1.059,2.535 -2.446,2.648 -1.444,0.113 -2.908,0.173 -4.377,0.173 -29.941,-0.001 -54.207,-24.272 -54.207,-54.209 m 19.678,-7.549 c 0.269,-1.247 1.369,-2.096 2.592,-2.096 0.184,0 0.373,0.021 0.564,0.063 1.245,0.269 2.092,1.372 2.094,2.593 -0.002,0.188 -0.024,0.377 -0.062,0.576 -0.45,2.06 -0.688,4.204 -0.688,6.415 0.029,16.581 13.445,29.994 30.026,30.025 1.47,0.002 2.656,1.192 2.659,2.657 -0.003,1.469 -1.189,2.656 -2.656,2.657 -19.523,-0.001 -35.341,-15.821 -35.341,-35.339 0,-2.591 0.278,-5.115 0.812,-7.551 m 34.532,-7.329 c 8.217,0 14.878,6.66 14.878,14.882 -0.016,8.216 -6.661,14.861 -14.878,14.879 -8.222,0 -14.878,-6.663 -14.883,-14.88 0.005,-8.221 6.661,-14.881 14.883,-14.881 m 22.378,84.061 c 0.27,-1.247 1.368,-2.095 2.591,-2.095 0.189,0 0.375,0.019 0.565,0.061 1.246,0.27 2.092,1.371 2.095,2.594 -0.003,0.188 -0.021,0.377 -0.06,0.574 -0.449,2.062 -0.689,4.206 -0.689,6.415 0.028,16.583 13.448,29.996 30.025,30.027 1.471,0.001 2.659,1.192 2.661,2.656 -0.002,1.47 -1.19,2.656 -2.66,2.658 -19.52,-0.002 -35.337,-15.821 -35.34,-35.341 0.003,-2.589 0.28,-5.115 0.812,-7.549 m 34.531,-7.33 c 8.221,0 14.881,6.662 14.881,14.883 -0.013,8.217 -6.66,14.861 -14.881,14.88 -8.221,0 -14.876,-6.663 -14.879,-14.881 0.003,-8.22 6.658,-14.882 14.879,-14.882 m 24.384,87.897 c 0.269,-1.245 1.368,-2.094 2.588,-2.094 0.189,0 0.376,0.02 0.568,0.06 1.244,0.272 2.092,1.373 2.092,2.596 0,0.186 -0.023,0.376 -0.059,0.573 -0.449,2.06 -0.688,4.207 -0.688,6.416 0.028,16.58 13.445,29.995 30.024,30.024 1.472,0.003 2.656,1.192 2.659,2.659 -0.003,1.47 -1.187,2.653 -2.656,2.657 -19.522,-0.004 -35.342,-15.82 -35.342,-35.34 0,-2.588 0.28,-5.116 0.814,-7.551 m 21.316,-43.934 c 5.521,-9.621 8.68,-20.772 8.68,-32.661 0,-36.118 -29.143,-65.427 -65.195,-65.7 -13.132,-44.677 -54.438,-77.295 -103.365,-77.295 -11.197,0 -21.996,1.711 -32.15,4.883 17.926,37.549 27.962,79.59 27.962,123.974 0,19.912 -2.558,42.38 -6.401,61.154 7.44,26.439 25.528,46.526 52.664,51.159 l 10.325,1.774 3.837,9.769 c 6.47,16.539 21.398,29.023 39.3,32.063 l 13.28,2.276 1.978,13.334 c 2.573,17.494 14.089,32.271 29.705,39.382 0.913,0.417 1.844,0.808 2.784,1.169 h 0.002 c 19.732,-27.825 44.296,-51.981 72.472,-71.248 1.815,-6.485 2.784,-13.324 2.784,-20.388 0,-35.916 -25.066,-65.98 -58.662,-73.645 m -45.7,-19.516 c 5.283,-0.009 9.556,-4.284 9.564,-9.564 -0.008,-5.284 -4.281,-9.56 -9.564,-9.568 -5.28,0.008 -9.556,4.284 -9.563,9.564 l 0.528,0.004 h -0.528 c 0.007,5.28 4.283,9.555 9.563,9.564 m 58.914,61.437 c -5.281,0.007 -9.557,4.281 -9.562,9.564 l 0.528,0.001 h -0.528 c 0.005,5.283 4.281,9.556 9.562,9.566 5.283,-0.01 9.556,-4.283 9.562,-9.566 -0.006,-5.284 -4.279,-9.558 -9.562,-9.565 M 393.35,193.897 c 5.278,-0.011 9.556,-4.285 9.564,-9.564 -0.008,-5.285 -4.286,-9.56 -9.564,-9.568 -5.283,0.008 -9.559,4.283 -9.564,9.566 l 0.526,0.002 h -0.526 c 0.005,5.279 4.281,9.553 9.564,9.564"
     style="fill:#000000;fill-opacity:1;fill-rule:nonzero;stroke:none"
     id="path33260" />
  <path
     d="m 297.322,405.314 c -6.948,5.388 -15.567,8.797 -25.004,9.303 -2.481,0.132 -4.929,0.061 -7.319,-0.202 -5.721,-0.62 -11.145,-2.336 -16.029,-4.924 -1.299,-0.685 -1.792,-2.293 -1.105,-3.59 0.684,-1.298 2.293,-1.792 3.592,-1.106 4.308,2.282 9.08,3.787 14.118,4.339 2.108,0.229 4.264,0.296 6.455,0.177 8.336,-0.448 15.904,-3.445 22.033,-8.197 l 0.003,0.003 c 1.16,-0.9 2.825,-0.691 3.725,0.468 0.898,1.16 0.688,2.829 -0.469,3.729 m -44.033,-14.611 c 0.796,-1.232 2.442,-1.584 3.673,-0.785 3.051,1.972 6.565,3.269 10.328,3.679 1.275,0.138 2.577,0.178 3.899,0.109 6.578,-0.359 12.368,-3.335 16.449,-7.879 0.981,-1.092 2.66,-1.181 3.752,-0.202 1.092,0.982 1.183,2.661 0.201,3.753 -4.976,5.545 -12.089,9.201 -20.117,9.631 -1.615,0.084 -3.203,0.042 -4.759,-0.131 -4.608,-0.5 -8.92,-2.091 -12.641,-4.501 -1.229,-0.798 -1.585,-2.444 -0.785,-3.674 m 1.828,-22.405 c 0.896,-8.171 8.233,-14.069 16.406,-13.179 8.171,0.891 14.067,8.235 13.176,16.41 -0.905,8.168 -8.23,14.05 -16.405,13.176 -8.172,-0.892 -14.065,-8.236 -13.177,-16.407 m -22.762,36.101 c -6.814,5.555 -15.352,9.167 -24.774,9.9 -2.476,0.19 -4.924,0.176 -7.322,-0.026 -5.734,-0.487 -11.195,-2.072 -16.141,-4.54 -1.314,-0.656 -1.846,-2.252 -1.192,-3.567 0.656,-1.311 2.254,-1.845 3.564,-1.191 4.364,2.182 9.17,3.572 14.221,4.004 2.114,0.179 4.271,0.195 6.458,0.023 8.32,-0.649 15.814,-3.827 21.83,-8.724 v 0.003 c 1.139,-0.928 2.811,-0.756 3.739,0.382 0.924,1.135 0.755,2.808 -0.383,3.736 m -44.369,-13.557 c 0.768,-1.251 2.407,-1.643 3.655,-0.872 3.096,1.9 6.641,3.113 10.413,3.432 1.277,0.109 2.58,0.117 3.9,0.015 6.567,-0.512 12.283,-3.627 16.256,-8.267 0.953,-1.115 2.633,-1.244 3.747,-0.291 1.114,0.955 1.248,2.631 0.29,3.747 -4.842,5.661 -11.866,9.487 -19.881,10.109 -1.612,0.122 -3.203,0.115 -4.761,-0.018 -4.619,-0.392 -8.965,-1.879 -12.744,-4.2 -1.249,-0.767 -1.641,-2.404 -0.875,-3.655 m 1.295,-22.44 c 0.699,-8.191 7.896,-14.263 16.088,-13.565 8.189,0.694 14.26,7.894 13.562,16.088 -0.71,8.186 -7.894,14.244 -16.082,13.565 -8.193,-0.697 -14.261,-7.899 -13.568,-16.088 m 125.626,-37.649 c -7.25,-3.618 -15.426,-5.652 -24.078,-5.652 -6.255,0 -12.259,1.061 -17.848,3.014 -9.77,-8.742 -22.674,-14.061 -36.816,-14.061 -11.228,0 -21.671,3.352 -30.391,9.106 -9.21,-5.971 -20.196,-9.438 -31.989,-9.438 -20.651,0 -38.817,10.626 -49.331,26.707 9.255,3.938 18.874,12.282 23.563,17.797 13.893,16.337 19.225,40.836 27.713,65.939 4.45,13.162 8.527,23.589 12.95,33.213 7.76,5.061 16.926,7.872 26.403,7.872 4.878,0 9.835,-0.742 14.734,-2.306 12.44,-3.982 22.13,-12.513 27.857,-23.179 l 1.267,-2.366 2.352,1.29 c 6.344,3.478 13.554,5.398 21.001,5.398 3.783,-0.002 7.628,-0.494 11.46,-1.53 7.475,-2.026 13.968,-5.872 19.133,-10.936 -1.614,-14.088 -2.445,-28.416 -2.445,-42.942 0,-19.693 1.524,-39.04 4.465,-57.926 m -46.034,48.669 c 5.25,0.563 9.962,-3.224 10.542,-8.471 0.567,-5.254 -3.218,-9.968 -8.468,-10.548 -5.252,-0.565 -9.966,3.22 -10.545,8.47 l 0.524,0.061 -0.524,-0.059 c -0.565,5.25 3.22,9.964 8.471,10.547 m -65.576,-0.228 c 5.264,0.437 9.885,-3.46 10.338,-8.719 0.439,-5.266 -3.454,-9.888 -8.716,-10.344 -5.266,-0.44 -9.887,3.458 -10.342,8.719 l 0.528,0.048 -0.528,-0.044 c -0.439,5.261 3.456,9.881 8.72,10.34"
     style="fill:#000000;fill-opacity:1;fill-rule:nonzero;stroke:none"
     id="path33264" />
  <path
     d="m 261.127,253.216 c -0.904,2.322 -2.17,4.55 -3.816,6.62 -2.168,2.725 -5.218,4.83 -8.954,6.284 -3.715,1.449 -8.056,2.178 -12.262,2.173 -6.565,0.079 -12.082,-1.932 -15.157,-3.928 -6.947,-4.507 -15.649,-15.932 -15.649,-29.907 0,-1.018 0.038,-2.052 0.128,-3.096 0.978,-11.925 6.013,-21.84 13.677,-29.314 7.668,-7.458 18.027,-12.369 29.519,-13.659 2.238,-0.252 4.453,-0.377 6.642,-0.377 14.686,0.023 27.999,5.491 37.836,15.76 9.804,10.293 16.36,25.586 16.392,46.304 v 0.046 c -0.446,18.071 -2.698,35.716 -6.588,52.722 -2.141,8.982 -3.477,15.012 -4.013,17.486 5.967,0.81 11.931,2.779 17.2,5.23 -0.003,-0.003 1.223,-5.223 3.963,-19.023 2.666,-13.427 5.966,-36.804 6.442,-56.043 l 0.002,-0.156 v -0.056 -0.206 c 0.029,-24.335 -7.954,-44.324 -21.104,-58.052 -13.118,-13.751 -31.167,-21.041 -50.13,-21.02 -2.828,0 -5.681,0.164 -8.54,0.485 -15.118,1.696 -28.996,8.184 -39.473,18.36 -10.48,10.159 -17.498,24.113 -18.773,40.125 -0.127,1.519 -0.187,3.02 -0.187,4.484 -0.01,10.204 2.911,19.158 7.155,26.395 4.253,7.259 9.76,12.877 15.169,17.019 6.952,5.181 15.953,7.344 25.489,7.428 6.094,-0.01 12.41,-1 18.419,-3.328 5.989,-2.322 11.725,-6.051 16.101,-11.544 5.938,-7.451 9.216,-17.61 9.216,-25.218 0,-11.392 -8.176,-21.844 -21.461,-20.426 -8.053,0.858 -14.349,6.377 -14.349,14.349 0,7.924 6.422,14.349 14.349,14.349 0.943,0 1.864,-0.092 2.757,-0.265"
     style="fill:#000000;fill-opacity:1;fill-rule:nonzero;stroke:none"
     id="path33268" />
  <path
     d="M 396.85,701.975 C 228.337,701.975 91.7278,565.366 91.7278,396.853 91.7278,228.337 228.337,91.7296 396.85,91.7296 c 168.515,0 305.122,136.6074 305.122,305.1234 0,168.513 -136.607,305.122 -305.122,305.122 m 0,-670.244 c -201.65,0 -365.1221,163.47 -365.1221,365.122 0,201.65 163.4721,365.122 365.1221,365.122 201.65,0 365.121,-163.472 365.121,-365.122 C 761.971,195.201 598.5,31.731 396.85,31.731"
     style="fill:#000000;fill-opacity:1;fill-rule:nonzero;stroke:none"
     id="path33272" />
</svg>
