<?xml version="1.0" encoding="UTF-8" standalone="no"?>
<!-- Created with Inkscape (http://www.inkscape.org/) -->

<svg
   version="1.1"
   id="svg1786"
   width="795.03467"
   height="793.70135"
   viewBox="0 0 795.03467 793.70135"
   sodipodi:docname="Ikari Sakura.svg"
   inkscape:version="1.2 (dc2aeda, 2022-05-15)"
   xmlns:inkscape="http://www.inkscape.org/namespaces/inkscape"
   xmlns:sodipodi="http://sodipodi.sourceforge.net/DTD/sodipodi-0.dtd"
   xmlns="http://www.w3.org/2000/svg"
   xmlns:svg="http://www.w3.org/2000/svg">
  <defs
     id="defs1790">
    <clipPath
       clipPathUnits="userSpaceOnUse"
       id="clipPath2345">
      <path
         d="M -542.9326,584.5729 H 53.343402 V -10.7031 H -542.9326 Z"
         id="path2347"
         style="stroke-width:0.999998" />
    </clipPath>
    <clipPath
       clipPathUnits="userSpaceOnUse"
       id="clipPath2351">
      <path
         d="M -586.5449,579.5026 H 9.7311024 V -15.7734 H -586.5449 Z"
         id="path2353"
         style="stroke-width:0.999998" />
    </clipPath>
    <clipPath
       clipPathUnits="userSpaceOnUse"
       id="clipPath2357">
      <path
         d="M -556.4014,578.0143 H 39.874602 V -17.2617 H -556.4014 Z"
         id="path2359"
         style="stroke-width:0.999998" />
    </clipPath>
    <clipPath
       clipPathUnits="userSpaceOnUse"
       id="clipPath2364">
      <path
         d="M -550.2637,577.3248 H 46.012302 V -17.9512 H -550.2637 Z"
         id="path2366"
         style="stroke-width:0.999998" />
    </clipPath>
    <clipPath
       clipPathUnits="userSpaceOnUse"
       id="clipPath2370">
      <path
         d="M -568.2266,575.819 H 28.049402 V -19.457 H -568.2266 Z"
         id="path2372"
         style="stroke-width:0.999998" />
    </clipPath>
    <clipPath
       clipPathUnits="userSpaceOnUse"
       id="clipPath2376">
      <path
         d="M -557.4951,577.8502 H 38.780902 V -17.4258 H -557.4951 Z"
         id="path2378"
         style="stroke-width:0.999998" />
    </clipPath>
    <clipPath
       clipPathUnits="userSpaceOnUse"
       id="clipPath2382">
      <path
         d="M -576.3691,585.5885 H 19.906902 V -9.6875 H -576.3691 Z"
         id="path2384"
         style="stroke-width:0.999998" />
    </clipPath>
    <clipPath
       clipPathUnits="userSpaceOnUse"
       id="clipPath2388">
      <path
         d="M -574.5459,585.8522 H 21.730102 V -9.4238 H -574.5459 Z"
         id="path2390"
         style="stroke-width:0.999998" />
    </clipPath>
    <clipPath
       clipPathUnits="userSpaceOnUse"
       id="clipPath2394">
      <path
         d="M -572.8174,586.1354 H 23.458602 V -9.1406 H -572.8174 Z"
         id="path2396"
         style="stroke-width:0.999998" />
    </clipPath>
    <clipPath
       clipPathUnits="userSpaceOnUse"
       id="clipPath2401">
      <path
         d="M -567.7754,585.8522 H 28.500602 V -9.4238 H -567.7754 Z"
         id="path2403"
         style="stroke-width:0.999998" />
    </clipPath>
    <clipPath
       clipPathUnits="userSpaceOnUse"
       id="clipPath2407">
      <path
         d="M -564.5732,585.8483 H 31.702802 V -9.4277 H -564.5732 Z"
         id="path2409"
         style="stroke-width:0.999998" />
    </clipPath>
    <clipPath
       clipPathUnits="userSpaceOnUse"
       id="clipPath2413">
      <path
         d="M -561.4131,585.8522 H 34.862902 V -9.4238 H -561.4131 Z"
         id="path2415"
         style="stroke-width:0.999998" />
    </clipPath>
    <clipPath
       clipPathUnits="userSpaceOnUse"
       id="clipPath2419">
      <path
         d="M -557.0645,585.8483 H 39.211502 V -9.4277 H -557.0645 Z"
         id="path2421"
         style="stroke-width:0.999998" />
    </clipPath>
    <clipPath
       clipPathUnits="userSpaceOnUse"
       id="clipPath2425">
      <path
         d="M -528.0898,575.3815 H 68.186202 V -19.8945 H -528.0898 Z"
         id="path2427"
         style="stroke-width:0.999998" />
    </clipPath>
    <clipPath
       clipPathUnits="userSpaceOnUse"
       id="clipPath2431">
      <path
         d="M -553.8975,585.8483 H 42.378502 V -9.4277 H -553.8975 Z"
         id="path2433"
         style="stroke-width:0.999998" />
    </clipPath>
    <clipPath
       clipPathUnits="userSpaceOnUse"
       id="clipPath2437">
      <path
         d="M -548.9834,585.8522 H 47.292602 V -9.4238 H -548.9834 Z"
         id="path2439"
         style="stroke-width:0.999998" />
    </clipPath>
    <clipPath
       clipPathUnits="userSpaceOnUse"
       id="clipPath2443">
      <path
         d="M -536.6982,584.5729 H 59.577802 V -10.7031 H -536.6982 Z"
         id="path2445"
         style="stroke-width:0.999998" />
    </clipPath>
    <clipPath
       clipPathUnits="userSpaceOnUse"
       id="clipPath2449">
      <path
         d="M -545.417,584.5729 H 50.859002 V -10.7031 H -545.417 Z"
         id="path2451"
         style="stroke-width:0.999998" />
    </clipPath>
    <clipPath
       clipPathUnits="userSpaceOnUse"
       id="clipPath2455">
      <path
         d="M -540.8213,585.8483 H 55.454702 V -9.4277 H -540.8213 Z"
         id="path2457"
         style="stroke-width:0.999998" />
    </clipPath>
    <clipPath
       clipPathUnits="userSpaceOnUse"
       id="clipPath2461">
      <path
         d="M -531.1924,581.5885 H 65.083602 V -13.6875 H -531.1924 Z"
         id="path2463"
         style="stroke-width:0.999998" />
    </clipPath>
    <clipPath
       clipPathUnits="userSpaceOnUse"
       id="clipPath2467">
      <path
         d="M -538.2217,577.9479 H 58.054302 V -17.3281 H -538.2217 Z"
         id="path2469"
         style="stroke-width:0.999998" />
    </clipPath>
    <clipPath
       clipPathUnits="userSpaceOnUse"
       id="clipPath2473">
      <path
         d="m -339.2842,297.6388 h 596.276 v -595.276 h -596.276 z"
         id="path2475"
         style="stroke-width:0.999998" />
    </clipPath>
    <clipPath
       clipPathUnits="userSpaceOnUse"
       id="clipPath2479">
      <path
         d="m -290.4385,345.5045 h 596.276 v -595.276 h -596.276 z"
         id="path2481"
         style="stroke-width:0.999998" />
    </clipPath>
    <clipPath
       clipPathUnits="userSpaceOnUse"
       id="clipPath2485">
      <path
         d="m -304.3369,249.7101 h 596.276 v -595.276 h -596.276 z"
         id="path2487"
         style="stroke-width:0.999998" />
    </clipPath>
    <clipPath
       clipPathUnits="userSpaceOnUse"
       id="clipPath2491">
      <path
         d="m -340.9365,319.278 h 596.276 v -595.276 h -596.276 z"
         id="path2493"
         style="stroke-width:0.999998" />
    </clipPath>
    <clipPath
       clipPathUnits="userSpaceOnUse"
       id="clipPath2497">
      <path
         d="m -254.124,276.4581 h 596.276 v -595.276 h -596.276 z"
         id="path2499"
         style="stroke-width:0.999998" />
    </clipPath>
    <clipPath
       clipPathUnits="userSpaceOnUse"
       id="clipPath2503">
      <path
         d="m -331.5967,263.1486 h 596.276 v -595.276 h -596.276 z"
         id="path2505"
         style="stroke-width:0.999998" />
    </clipPath>
    <clipPath
       clipPathUnits="userSpaceOnUse"
       id="clipPath2509">
      <path
         d="m -264.0459,332.4772 h 596.276 v -595.276 h -596.276 z"
         id="path2511"
         style="stroke-width:0.999998" />
    </clipPath>
    <clipPath
       clipPathUnits="userSpaceOnUse"
       id="clipPath2515">
      <path
         d="m -275.3291,254.6837 h 596.276 v -595.276 h -596.276 z"
         id="path2517"
         style="stroke-width:0.999998" />
    </clipPath>
    <clipPath
       clipPathUnits="userSpaceOnUse"
       id="clipPath2521">
      <path
         d="m -320.3916,340.3522 h 596.276 v -595.276 h -596.276 z"
         id="path2523"
         style="stroke-width:0.999998" />
    </clipPath>
    <clipPath
       clipPathUnits="userSpaceOnUse"
       id="clipPath2527">
      <path
         d="m -249.8916,305.5826 h 596.276 v -595.276 h -596.276 z"
         id="path2529"
         style="stroke-width:0.999998" />
    </clipPath>
    <clipPath
       clipPathUnits="userSpaceOnUse"
       id="clipPath2533">
      <path
         d="m -345.292,289.1993 h 596.276 v -595.276 h -596.276 z"
         id="path2535"
         style="stroke-width:0.999998" />
    </clipPath>
    <clipPath
       clipPathUnits="userSpaceOnUse"
       id="clipPath2539">
      <path
         d="M -584.1943,578.9381 H 12.081702 V -16.3379 H -584.1943 Z"
         id="path2541"
         style="stroke-width:0.999998" />
    </clipPath>
  </defs>
  <sodipodi:namedview
     id="namedview1788"
     pagecolor="#ffffff"
     bordercolor="#000000"
     borderopacity="0.25"
     inkscape:showpageshadow="2"
     inkscape:pageopacity="0.0"
     inkscape:pagecheckerboard="0"
     inkscape:deskcolor="#d1d1d1"
     showgrid="false"
     inkscape:zoom="0.29734106"
     inkscape:cx="-215.24105"
     inkscape:cy="396.85068"
     inkscape:window-width="1419"
     inkscape:window-height="456"
     inkscape:window-x="0"
     inkscape:window-y="25"
     inkscape:window-maximized="0"
     inkscape:current-layer="svg1786">
    <inkscape:page
       x="0"
       y="0"
       id="page1792"
       width="795.03467"
       height="793.70135" />
  </sodipodi:namedview>
  <path
     d="m 452.378,396.853 c 0,30.669 -24.86,55.532 -55.528,55.532 -30.67,0 -55.532,-24.863 -55.532,-55.532 0,-30.667 24.862,-55.528 55.532,-55.528 30.668,0 55.528,24.861 55.528,55.528"
     style="fill:#000000;fill-opacity:1;fill-rule:nonzero;stroke:none"
     id="path1906" />
  <path
     d="m 387.25,460.672 c -0.052,3.347 -0.107,6.422 -0.167,9.151 -1.039,48.489 1.203,116.376 -17.653,145.026 -13.254,20.132 -35.492,34.023 -61.375,34.023 -22.258,0 -42.157,-10.055 -55.428,-25.861 13.162,29.172 42.48,49.489 76.563,49.489 7.289,0 14.362,-0.929 21.104,-2.68 -15.916,22.896 -42.399,37.891 -72.396,37.891 -30.129,0 -56.719,-15.132 -72.609,-38.203 13.706,44.659 55.266,77.13 104.414,77.13 35.593,0 67.205,-17.032 87.145,-43.385 19.938,26.353 51.55,43.385 87.144,43.385 49.151,0 90.708,-32.471 104.413,-77.13 -15.89,23.071 -42.476,38.203 -72.609,38.203 -29.995,0 -56.478,-14.995 -72.393,-37.891 6.743,1.751 13.816,2.68 21.101,2.68 34.084,0 63.404,-20.317 76.563,-49.489 -13.271,15.806 -33.17,25.861 -55.424,25.861 -25.883,0 -48.125,-13.891 -61.375,-34.023 -18.857,-28.65 -16.617,-96.537 -17.657,-145.026 -0.059,-2.729 -0.113,-5.804 -0.164,-9.151 -3.132,0.467 -6.336,0.716 -9.599,0.716 -3.262,0 -6.468,-0.249 -9.598,-0.716"
     style="fill:#000000;fill-opacity:1;fill-rule:nonzero;stroke:none"
     id="path1910" />
  <path
     d="m 405.782,332.947 c -0.039,-35.413 -0.003,-63.039 -0.003,-63.039 0,-4.932 -4,-8.931 -8.929,-8.931 -4.932,0 -8.93,3.999 -8.93,8.931 0,0 0.034,27.626 -0.002,63.039 2.918,-0.405 5.897,-0.63 8.932,-0.632 3.033,0.002 6.01,0.227 8.932,0.632"
     style="fill:#000000;fill-opacity:1;fill-rule:nonzero;stroke:none"
     id="path1914" />
  <path
     d="m 454.582,425.705 c 3.164,1.084 6.073,2.085 8.648,2.984 45.797,15.972 111.051,34.818 132.474,61.609 15.054,18.824 21.39,44.268 13.393,68.882 -6.877,21.17 -22.592,36.985 -41.726,44.721 31.812,-3.5 60.194,-25.106 70.726,-57.519 2.252,-6.932 3.555,-13.946 3.976,-20.899 16.855,22.211 22.935,52.033 13.664,80.557 -9.309,28.659 -31.919,49.271 -58.77,57.252 46.707,0.769 90.429,-28.724 105.617,-75.468 11,-33.854 4.57,-69.18 -14.331,-96.286 31.227,-10.818 57.189,-35.62 68.192,-69.472 15.188,-46.745 -2.854,-96.305 -41.088,-123.138 17.031,22.241 23.205,52.205 13.896,80.862 -9.271,28.527 -31.716,49.079 -58.407,57.141 3.746,-5.872 6.814,-12.31 9.066,-19.242 10.533,-32.418 0.27,-66.579 -23.41,-88.11 10.934,17.508 14.35,39.54 7.472,60.708 -7.997,24.615 -28.081,41.475 -51.325,47.855 -33.076,9.081 -96.948,-14.025 -143.382,-28.023 -2.615,-0.786 -5.557,-1.685 -8.756,-2.672 -0.52,3.122 -1.279,6.247 -2.284,9.351 -1.007,3.101 -2.233,6.073 -3.645,8.907"
     style="fill:#000000;fill-opacity:1;fill-rule:nonzero;stroke:none"
     id="path1918" />
  <path
     d="m 338.831,368.611 c -33.693,-10.908 -59.956,-19.477 -59.956,-19.477 -4.689,-1.524 -9.729,1.044 -11.249,5.733 -1.524,4.688 1.041,9.727 5.729,11.251 0,0 26.286,8.505 59.955,19.484 0.518,-2.904 1.224,-5.807 2.161,-8.689 0.939,-2.886 2.073,-5.648 3.36,-8.302"
     style="fill:#000000;fill-opacity:1;fill-rule:nonzero;stroke:none"
     id="path1922" />
  <path
     d="m 442.128,350.866 c 2.008,-2.677 3.862,-5.135 5.514,-7.305 29.341,-38.619 67.431,-94.857 99.527,-106.952 22.555,-8.5 48.711,-6.664 69.652,8.549 18.004,13.08 28.192,32.914 29.637,53.504 6.5,-31.337 -5.276,-65.006 -32.852,-85.041 -5.894,-4.285 -12.164,-7.688 -18.642,-10.239 26.33,-9.166 56.57,-5.732 80.838,11.899 24.375,17.711 36.992,45.583 36.287,73.585 15.161,-44.185 0.624,-94.88 -39.139,-123.77 -28.796,-20.923 -64.382,-25.724 -96.002,-16.123 -0.64,-33.04 -16.203,-65.4009 -45,-86.3208 -39.763,-28.8906 -92.47,-27.0466 -129.806,1.024 26.416,-9.324 56.82,-5.9387 81.197,11.7733 24.265,17.6306 36.877,45.3295 36.297,73.2065 -4.429,-5.377 -9.601,-10.287 -15.5,-14.571 -27.573,-20.034 -63.237,-20.83 -91.029,-4.965 20.027,-4.988 42.037,-1.427 60.042,11.656 20.94,15.213 30.768,39.523 29.656,63.6 -1.586,34.264 -43.299,87.868 -70.963,127.707 -1.555,2.242 -3.318,4.762 -5.244,7.499 2.809,1.464 5.546,3.145 8.186,5.063 2.639,1.917 5.087,4.002 7.344,6.221"
     style="fill:#000000;fill-opacity:1;fill-rule:nonzero;stroke:none"
     id="path1926" />
  <path
     d="m 352.06,443.303 c -20.783,28.675 -37.051,51.005 -37.051,51.005 -2.896,3.99 -2.011,9.574 1.976,12.471 3.99,2.899 9.576,2.016 12.472,-1.973 0,0 16.21,-22.372 37.059,-50.997 -2.601,-1.394 -5.146,-2.962 -7.598,-4.743 -2.454,-1.784 -4.73,-3.716 -6.858,-5.763"
     style="fill:#000000;fill-opacity:1;fill-rule:nonzero;stroke:none"
     id="path1930" />
  <path
     d="m 367.104,339.579 c -1.926,-2.737 -3.69,-5.257 -5.245,-7.497 -27.661,-39.841 -69.377,-93.445 -70.96,-127.708 -1.114,-24.077 8.714,-48.387 29.654,-63.601 18.005,-13.081 40.015,-16.642 60.043,-11.654 -27.794,-15.867 -63.455,-15.07 -91.03,4.964 -5.896,4.284 -11.071,9.193 -15.5,14.569 -0.579,-27.877 12.031,-55.5746 36.296,-73.2052 24.378,-17.7106 54.784,-21.096 81.201,-11.772 -37.339,-28.0732 -90.044,-29.9146 -129.81,-1.024 -28.796,20.92 -44.359,53.2812 -45,86.3212 -31.62,-9.601 -67.205,-4.8 -96.003,16.121 -39.7622,28.891 -54.2955,79.588 -39.1369,123.773 -0.7026,-28.005 11.9107,-55.876 36.2889,-73.589 24.266,-17.629 54.506,-21.064 80.839,-11.895 -6.483,2.55 -12.751,5.952 -18.647,10.236 -27.574,20.035 -39.35,53.707 -32.85,85.043 1.442,-20.591 11.632,-40.423 29.637,-53.505 20.94,-15.214 47.098,-17.048 69.653,-8.55 32.097,12.096 70.188,68.335 99.529,106.952 1.648,2.173 3.503,4.628 5.511,7.307 2.26,-2.219 4.705,-4.303 7.342,-6.223 2.642,-1.916 5.382,-3.599 8.188,-5.063"
     style="fill:#000000;fill-opacity:1;fill-rule:nonzero;stroke:none"
     id="path1934" />
  <path
     d="m 427.188,453.803 c 20.847,28.628 37.055,51 37.055,51 2.901,3.989 8.486,4.872 12.473,1.973 3.991,-2.894 4.876,-8.481 1.977,-12.47 0,0 -16.267,-22.328 -37.051,-51.003 -2.126,2.044 -4.404,3.976 -6.858,5.76 -2.453,1.784 -4.994,3.352 -7.596,4.74"
     style="fill:#000000;fill-opacity:1;fill-rule:nonzero;stroke:none"
     id="path1938" />
  <path
     d="m 333.189,407.445 c -3.198,0.986 -6.14,1.885 -8.755,2.672 -46.436,13.994 -110.308,37.106 -143.385,28.022 -23.24,-6.38 -43.324,-23.241 -51.324,-47.856 -6.877,-21.165 -3.46,-43.2 7.472,-60.706 -23.68,21.532 -33.943,55.694 -23.409,88.11 2.253,6.932 5.322,13.37 9.065,19.244 -26.6906,-8.065 -49.1359,-28.617 -58.4038,-57.144 -9.312,-28.657 -3.1347,-58.621 13.8959,-80.861 -38.2372,26.834 -56.2758,76.393 -41.0879,123.139 10.9973,33.852 36.9653,58.65 68.1888,69.47 -18.8995,27.104 -25.3329,62.433 -14.3329,96.287 15.1879,46.745 58.9149,76.234 105.6199,75.469 -26.851,-7.986 -49.459,-28.595 -58.771,-57.254 -9.27,-28.522 -3.192,-58.345 13.664,-80.557 0.424,6.954 1.724,13.967 3.978,20.899 10.53,32.415 38.913,54.021 70.725,57.521 -19.135,-7.735 -34.845,-23.554 -41.725,-44.721 -7.999,-24.617 -1.66,-50.06 13.392,-68.885 21.419,-26.787 86.677,-45.636 132.474,-61.607 2.576,-0.896 5.484,-1.901 8.65,-2.985 -1.41,-2.833 -2.637,-5.801 -3.648,-8.905 -1.008,-3.104 -1.76,-6.23 -2.283,-9.352"
     style="fill:#000000;fill-opacity:1;fill-rule:nonzero;stroke:none"
     id="path1942" />
  <path
     d="m 460.388,385.599 c 33.667,-10.978 59.953,-19.481 59.953,-19.481 4.69,-1.527 7.255,-6.565 5.732,-11.255 -1.524,-4.688 -6.56,-7.256 -11.25,-5.733 0,0 -26.263,8.571 -59.956,19.479 1.289,2.652 2.423,5.417 3.36,8.298 0.937,2.886 1.643,5.788 2.161,8.692"
     style="fill:#000000;fill-opacity:1;fill-rule:nonzero;stroke:none"
     id="path1946" />
</svg>
