<?xml version="1.0" encoding="UTF-8" standalone="no"?>
<!-- Created with Inkscape (http://www.inkscape.org/) -->

<svg
   version="1.1"
   id="svg4728"
   width="795.03467"
   height="793.70135"
   viewBox="0 0 795.03467 793.70135"
   sodipodi:docname="Ikari Kiri.svg"
   inkscape:version="1.2 (dc2aeda, 2022-05-15)"
   xmlns:inkscape="http://www.inkscape.org/namespaces/inkscape"
   xmlns:sodipodi="http://sodipodi.sourceforge.net/DTD/sodipodi-0.dtd"
   xmlns="http://www.w3.org/2000/svg"
   xmlns:svg="http://www.w3.org/2000/svg">
  <defs
     id="defs4732">
    <clipPath
       clipPathUnits="userSpaceOnUse"
       id="clipPath5251">
      <path
         d="M -528.0898,575.3815 H 68.186202 V -19.8945 H -528.0898 Z"
         id="path5253"
         style="stroke-width:0.999998" />
    </clipPath>
    <clipPath
       clipPathUnits="userSpaceOnUse"
       id="clipPath5257">
      <path
         d="M -536.6982,584.5729 H 59.577802 V -10.7031 H -536.6982 Z"
         id="path5259"
         style="stroke-width:0.999998" />
    </clipPath>
    <clipPath
       clipPathUnits="userSpaceOnUse"
       id="clipPath5263">
      <path
         d="M -531.1924,581.5885 H 65.083602 V -13.6875 H -531.1924 Z"
         id="path5265"
         style="stroke-width:0.999998" />
    </clipPath>
    <clipPath
       clipPathUnits="userSpaceOnUse"
       id="clipPath5269">
      <path
         d="M -540.8213,585.8483 H 55.454702 V -9.4277 H -540.8213 Z"
         id="path5271"
         style="stroke-width:0.999998" />
    </clipPath>
    <clipPath
       clipPathUnits="userSpaceOnUse"
       id="clipPath5275">
      <path
         d="M -568.2266,575.819 H 28.049402 V -19.457 H -568.2266 Z"
         id="path5277"
         style="stroke-width:0.999998" />
    </clipPath>
    <clipPath
       clipPathUnits="userSpaceOnUse"
       id="clipPath5281">
      <path
         d="M -542.9326,584.5729 H 53.343402 V -10.7031 H -542.9326 Z"
         id="path5283"
         style="stroke-width:0.999998" />
    </clipPath>
    <clipPath
       clipPathUnits="userSpaceOnUse"
       id="clipPath5287">
      <path
         d="M -545.417,584.5729 H 50.859002 V -10.7031 H -545.417 Z"
         id="path5289"
         style="stroke-width:0.999998" />
    </clipPath>
    <clipPath
       clipPathUnits="userSpaceOnUse"
       id="clipPath5293">
      <path
         d="M -557.0645,585.8483 H 39.211502 V -9.4277 H -557.0645 Z"
         id="path5295"
         style="stroke-width:0.999998" />
    </clipPath>
    <clipPath
       clipPathUnits="userSpaceOnUse"
       id="clipPath5299">
      <path
         d="M -548.9834,585.8522 H 47.292602 V -9.4238 H -548.9834 Z"
         id="path5301"
         style="stroke-width:0.999998" />
    </clipPath>
    <clipPath
       clipPathUnits="userSpaceOnUse"
       id="clipPath5305">
      <path
         d="M -553.8975,585.8483 H 42.378502 V -9.4277 H -553.8975 Z"
         id="path5307"
         style="stroke-width:0.999998" />
    </clipPath>
    <clipPath
       clipPathUnits="userSpaceOnUse"
       id="clipPath5311">
      <path
         d="M -561.4131,585.8522 H 34.862902 V -9.4238 H -561.4131 Z"
         id="path5313"
         style="stroke-width:0.999998" />
    </clipPath>
    <clipPath
       clipPathUnits="userSpaceOnUse"
       id="clipPath5318">
      <path
         d="M -572.8174,586.1354 H 23.458602 V -9.1406 H -572.8174 Z"
         id="path5320"
         style="stroke-width:0.999998" />
    </clipPath>
    <clipPath
       clipPathUnits="userSpaceOnUse"
       id="clipPath5324">
      <path
         d="M -550.2637,577.3248 H 46.012302 V -17.9512 H -550.2637 Z"
         id="path5326"
         style="stroke-width:0.999998" />
    </clipPath>
    <clipPath
       clipPathUnits="userSpaceOnUse"
       id="clipPath5331">
      <path
         d="M -556.4014,578.0143 H 39.874602 V -17.2617 H -556.4014 Z"
         id="path5333"
         style="stroke-width:0.999998" />
    </clipPath>
    <clipPath
       clipPathUnits="userSpaceOnUse"
       id="clipPath5337">
      <path
         d="M -586.5449,579.5026 H 9.7311024 V -15.7734 H -586.5449 Z"
         id="path5339"
         style="stroke-width:0.999998" />
    </clipPath>
    <clipPath
       clipPathUnits="userSpaceOnUse"
       id="clipPath5343">
      <path
         d="M -574.5459,585.8522 H 21.730102 V -9.4238 H -574.5459 Z"
         id="path5345"
         style="stroke-width:0.999998" />
    </clipPath>
    <clipPath
       clipPathUnits="userSpaceOnUse"
       id="clipPath5349">
      <path
         d="M -576.3691,585.5885 H 19.906902 V -9.6875 H -576.3691 Z"
         id="path5351"
         style="stroke-width:0.999998" />
    </clipPath>
    <clipPath
       clipPathUnits="userSpaceOnUse"
       id="clipPath5355">
      <path
         d="M -557.4951,577.8502 H 38.780902 V -17.4258 H -557.4951 Z"
         id="path5357"
         style="stroke-width:0.999998" />
    </clipPath>
    <clipPath
       clipPathUnits="userSpaceOnUse"
       id="clipPath5361">
      <path
         d="M -584.1943,578.9381 H 12.081702 V -16.3379 H -584.1943 Z"
         id="path5363"
         style="stroke-width:0.999998" />
    </clipPath>
    <clipPath
       clipPathUnits="userSpaceOnUse"
       id="clipPath5367">
      <path
         d="M -538.2217,577.9479 H 58.054302 V -17.3281 H -538.2217 Z"
         id="path5369"
         style="stroke-width:0.999998" />
    </clipPath>
    <clipPath
       clipPathUnits="userSpaceOnUse"
       id="clipPath5373">
      <path
         d="m -328.4111,124.9532 h 596.276 v -595.276 h -596.276 z"
         id="path5375"
         style="stroke-width:0.999998" />
    </clipPath>
    <clipPath
       clipPathUnits="userSpaceOnUse"
       id="clipPath5379">
      <path
         d="m -321.4932,503.3268 h 596.276 v -595.276 h -596.276 z"
         id="path5381"
         style="stroke-width:0.999998" />
    </clipPath>
    <clipPath
       clipPathUnits="userSpaceOnUse"
       id="clipPath5385">
      <path
         d="m -254.2002,114.1661 h 596.276 v -595.276 h -596.276 z"
         id="path5387"
         style="stroke-width:0.999998" />
    </clipPath>
    <clipPath
       clipPathUnits="userSpaceOnUse"
       id="clipPath5391">
      <path
         d="m -442.0342,267.3956 h 596.276 v -595.276 h -596.276 z"
         id="path5393"
         style="stroke-width:0.999998" />
    </clipPath>
    <clipPath
       clipPathUnits="userSpaceOnUse"
       id="clipPath5397">
      <path
         d="m -308.7393,238.7911 h 596.276 v -595.276 h -596.276 z"
         id="path5399"
         style="stroke-width:0.999998" />
    </clipPath>
    <clipPath
       clipPathUnits="userSpaceOnUse"
       id="clipPath5403">
      <path
         d="m -339.1006,82.4611 h 596.276 v -595.276 h -596.276 z"
         id="path5405"
         style="stroke-width:0.999998" />
    </clipPath>
    <clipPath
       clipPathUnits="userSpaceOnUse"
       id="clipPath5409">
      <path
         d="m -460.5107,209.922 h 596.276 v -595.276 h -596.276 z"
         id="path5411"
         style="stroke-width:0.999998" />
    </clipPath>
    <clipPath
       clipPathUnits="userSpaceOnUse"
       id="clipPath5415">
      <path
         d="m -134.7646,209.922 h 596.276 v -595.276 h -596.276 z"
         id="path5417"
         style="stroke-width:0.999998" />
    </clipPath>
    <clipPath
       clipPathUnits="userSpaceOnUse"
       id="clipPath5421">
      <path
         d="M -564.5732,585.8483 H 31.702802 V -9.4277 H -564.5732 Z"
         id="path5423"
         style="stroke-width:0.999998" />
    </clipPath>
    <clipPath
       clipPathUnits="userSpaceOnUse"
       id="clipPath5427">
      <path
         d="M -567.7754,585.8522 H 28.500602 V -9.4238 H -567.7754 Z"
         id="path5429"
         style="stroke-width:0.999998" />
    </clipPath>
  </defs>
  <sodipodi:namedview
     id="namedview4730"
     pagecolor="#ffffff"
     bordercolor="#000000"
     borderopacity="0.25"
     inkscape:showpageshadow="2"
     inkscape:pageopacity="0.0"
     inkscape:pagecheckerboard="0"
     inkscape:deskcolor="#d1d1d1"
     showgrid="false"
     inkscape:zoom="0.29734106"
     inkscape:cx="-215.24105"
     inkscape:cy="396.85068"
     inkscape:window-width="1419"
     inkscape:window-height="456"
     inkscape:window-x="0"
     inkscape:window-y="25"
     inkscape:window-maximized="0"
     inkscape:current-layer="svg4728">
    <inkscape:page
       x="0"
       y="0"
       id="page4734"
       width="795.03467"
       height="793.70135" />
  </sodipodi:namedview>
  <path
     d="m 437.88,166.605 c -0.265,0.31 -0.518,0.656 -0.781,0.978 25.987,5.845 49.89,17.194 70.39,32.802 -12.702,-20.566 -30.984,-37.318 -52.726,-48.162 -6.205,3.726 -11.929,8.53 -16.883,14.382"
     style="fill:#000000;fill-opacity:1;fill-rule:nonzero;stroke:none"
     id="path4848" />
  <path
     d="m 338.932,152.223 c -21.742,10.846 -40.023,27.597 -52.726,48.165 20.497,-15.608 44.401,-26.959 70.388,-32.804 -0.263,-0.321 -0.516,-0.668 -0.782,-0.979 -4.953,-5.852 -10.674,-10.654 -16.88,-14.382"
     style="fill:#000000;fill-opacity:1;fill-rule:nonzero;stroke:none"
     id="path4852" />
  <path
     d="m 428.656,671.102 c 0,17.566 -14.242,31.807 -31.806,31.807 -17.568,0 -31.811,-14.241 -31.811,-31.807 0,-17.568 14.243,-31.809 31.811,-31.809 17.564,0 31.806,14.241 31.806,31.809"
     style="fill:#000000;fill-opacity:1;fill-rule:nonzero;stroke:none"
     id="path4856" />
  <path
     d="m 589.377,356.529 c 70.391,0 132.476,35.558 169.281,89.689 -17.844,-91.787 -98.653,-161.081 -195.655,-161.081 -69.368,0 -130.451,35.44 -166.153,89.197 -35.707,-53.757 -96.787,-89.197 -166.157,-89.197 -97.003,0 -177.8118,69.294 -195.6558,161.081 36.808,-54.131 98.8908,-89.689 169.2808,-89.689 58.664,0 111.555,24.7 148.854,64.26 -18.781,-13.626 -41.867,-21.683 -66.849,-21.683 -62.953,0 -113.991,51.036 -113.991,113.989 0,75.917 53.931,122.852 113.406,150.316 -29.852,-35.394 -62.016,-81.347 -61.849,-134.06 0.106,-33.133 26.864,-59.995 59.997,-59.995 19.68,0 35.852,10.536 48.083,24.107 27.109,30.077 41.349,77.12 47.646,137.918 5.281,-2.294 11.107,-3.577 17.232,-3.577 6.127,0 11.952,1.283 17.236,3.577 6.297,-60.798 20.535,-107.841 47.644,-137.918 12.233,-13.571 28.405,-24.107 48.085,-24.107 33.133,0 59.891,26.862 59.995,59.995 0.166,52.713 -31.995,98.666 -61.847,134.06 59.475,-27.464 113.404,-74.399 113.404,-150.316 0,-62.953 -51.039,-113.989 -113.992,-113.989 -24.979,0 -48.065,8.057 -66.849,21.683 37.302,-39.56 90.19,-64.26 148.854,-64.26"
     style="fill:#000000;fill-opacity:1;fill-rule:nonzero;stroke:none"
     id="path4860" />
  <path
     d="m 411.651,318.389 c 0,8.175 -6.628,14.804 -14.803,14.804 -8.176,0 -14.801,-6.629 -14.801,-14.804 0,-8.173 6.625,-14.801 14.801,-14.801 8.175,0 14.803,6.628 14.803,14.801"
     style="fill:#000000;fill-opacity:1;fill-rule:nonzero;stroke:none"
     id="path4864" />
  <path
     d="m 452.134,109.949 c -20.667,0 -39.758,6.684 -55.284,17.972 -15.528,-11.288 -34.62,-17.972 -55.284,-17.972 -28.099,0 -53.307,12.324 -70.56,31.846 30.464,-16.06 68.745,-8.614 91.933,18.781 24.88,29.395 28.749,89.777 30.223,130.226 1.209,-0.16 2.433,-0.272 3.688,-0.272 1.253,0 2.478,0.112 3.688,0.272 1.473,-40.449 5.344,-100.831 30.221,-130.226 23.187,-27.395 61.47,-34.841 91.934,-18.781 -17.253,-19.522 -42.461,-31.846 -70.559,-31.846"
     style="fill:#000000;fill-opacity:1;fill-rule:nonzero;stroke:none"
     id="path4868" />
  <path
     d="m 179.686,279.897 c -1.254,-4.177 -2.472,-8.211 -3.562,-11.839 -7.511,-24.968 6.644,-51.297 31.611,-58.806 11.238,-3.383 22.746,-2.363 32.696,2.045 -12.86,-10.964 -30.838,-15.384 -48.223,-10.155 -12.087,3.634 -21.834,11.323 -28.232,21.122 -4.298,-21.331 8.276,-42.82 29.528,-49.213 2.258,-0.68 4.529,-1.154 6.791,-1.45 -9.617,-3.105 -20.245,-3.429 -30.658,-0.297 -10.589,3.184 -19.396,9.471 -25.732,17.564 -9.749,-3.256 -20.565,-3.639 -31.156,-0.452 -10.415,3.132 -19.0986,9.265 -25.4092,17.162 2.0546,-1.002 4.208,-1.86 6.4666,-2.538 21.2576,-6.394 43.5956,4.594 51.7786,24.756 -10.743,-4.644 -23.112,-5.679 -35.199,-2.044 -17.3849,5.228 -29.9449,18.838 -34.6182,35.076 5.8667,-9.166 14.9026,-16.366 26.1402,-19.744 24.969,-7.512 51.297,6.641 58.806,31.609 1.079,3.579 2.275,7.556 3.511,11.673 1.877,-0.625 3.761,-1.238 5.659,-1.81 3.232,-0.972 6.508,-1.842 9.802,-2.659"
     style="fill:#000000;fill-opacity:1;fill-rule:nonzero;stroke:none"
     id="path4872" />
  <path
     d="m 614.013,279.897 c 1.255,-4.177 2.469,-8.211 3.56,-11.839 7.511,-24.968 -6.644,-51.297 -31.609,-58.806 -11.24,-3.383 -22.748,-2.363 -32.696,2.045 12.857,-10.964 30.839,-15.384 48.224,-10.155 12.084,3.634 21.83,11.323 28.232,21.122 4.297,-21.331 -8.276,-42.82 -29.528,-49.213 -2.261,-0.68 -4.532,-1.154 -6.795,-1.45 9.62,-3.105 20.245,-3.429 30.659,-0.297 10.589,3.184 19.398,9.471 25.732,17.564 9.752,-3.256 20.565,-3.639 31.158,-0.452 10.412,3.132 19.096,9.265 25.407,17.162 -2.052,-1.002 -4.208,-1.86 -6.467,-2.538 -21.254,-6.394 -43.596,4.594 -51.778,24.756 10.745,-4.644 23.114,-5.679 35.201,-2.044 17.385,5.228 29.943,18.838 34.619,35.076 -5.87,-9.166 -14.906,-16.366 -26.14,-19.744 -24.972,-7.512 -51.3,6.641 -58.807,31.609 -1.079,3.579 -2.275,7.556 -3.513,11.673 -1.878,-0.625 -3.759,-1.238 -5.659,-1.81 -3.229,-0.972 -6.505,-1.842 -9.8,-2.659"
     style="fill:#000000;fill-opacity:1;fill-rule:nonzero;stroke:none"
     id="path4876" />
</svg>
