<?xml version="1.0" encoding="UTF-8" standalone="no"?>
<!-- Created with Inkscape (http://www.inkscape.org/) -->

<svg
   version="1.1"
   id="svg3612"
   width="795.03467"
   height="793.70135"
   viewBox="0 0 795.03467 793.70135"
   sodipodi:docname="Yotsu Ikari.svg"
   inkscape:version="1.2 (dc2aeda, 2022-05-15)"
   xmlns:inkscape="http://www.inkscape.org/namespaces/inkscape"
   xmlns:sodipodi="http://sodipodi.sourceforge.net/DTD/sodipodi-0.dtd"
   xmlns="http://www.w3.org/2000/svg"
   xmlns:svg="http://www.w3.org/2000/svg">
  <defs
     id="defs3616">
    <clipPath
       clipPathUnits="userSpaceOnUse"
       id="clipPath4195">
      <path
         d="M -561.4131,585.8522 H 34.862902 V -9.4238 H -561.4131 Z"
         id="path4197"
         style="stroke-width:0.999998" />
    </clipPath>
    <clipPath
       clipPathUnits="userSpaceOnUse"
       id="clipPath4201">
      <path
         d="M -564.5732,585.8483 H 31.702802 V -9.4277 H -564.5732 Z"
         id="path4203"
         style="stroke-width:0.999998" />
    </clipPath>
    <clipPath
       clipPathUnits="userSpaceOnUse"
       id="clipPath4207">
      <path
         d="M -567.7754,585.8522 H 28.500602 V -9.4238 H -567.7754 Z"
         id="path4209"
         style="stroke-width:0.999998" />
    </clipPath>
    <clipPath
       clipPathUnits="userSpaceOnUse"
       id="clipPath4214">
      <path
         d="M -572.8174,586.1354 H 23.458602 V -9.1406 H -572.8174 Z"
         id="path4216"
         style="stroke-width:0.999998" />
    </clipPath>
    <clipPath
       clipPathUnits="userSpaceOnUse"
       id="clipPath4220">
      <path
         d="M -574.5459,585.8522 H 21.730102 V -9.4238 H -574.5459 Z"
         id="path4222"
         style="stroke-width:0.999998" />
    </clipPath>
    <clipPath
       clipPathUnits="userSpaceOnUse"
       id="clipPath4226">
      <path
         d="M -576.3691,585.5885 H 19.906902 V -9.6875 H -576.3691 Z"
         id="path4228"
         style="stroke-width:0.999998" />
    </clipPath>
    <clipPath
       clipPathUnits="userSpaceOnUse"
       id="clipPath4232">
      <path
         d="M -557.4951,577.8502 H 38.780902 V -17.4258 H -557.4951 Z"
         id="path4234"
         style="stroke-width:0.999998" />
    </clipPath>
    <clipPath
       clipPathUnits="userSpaceOnUse"
       id="clipPath4238">
      <path
         d="M -568.2266,575.819 H 28.049402 V -19.457 H -568.2266 Z"
         id="path4240"
         style="stroke-width:0.999998" />
    </clipPath>
    <clipPath
       clipPathUnits="userSpaceOnUse"
       id="clipPath4244">
      <path
         d="M -550.2637,577.3248 H 46.012302 V -17.9512 H -550.2637 Z"
         id="path4246"
         style="stroke-width:0.999998" />
    </clipPath>
    <clipPath
       clipPathUnits="userSpaceOnUse"
       id="clipPath4251">
      <path
         d="M -556.4014,578.0143 H 39.874602 V -17.2617 H -556.4014 Z"
         id="path4253"
         style="stroke-width:0.999998" />
    </clipPath>
    <clipPath
       clipPathUnits="userSpaceOnUse"
       id="clipPath4257">
      <path
         d="M -586.5449,579.5026 H 9.7311024 V -15.7734 H -586.5449 Z"
         id="path4259"
         style="stroke-width:0.999998" />
    </clipPath>
    <clipPath
       clipPathUnits="userSpaceOnUse"
       id="clipPath4263">
      <path
         d="M -584.1943,578.9381 H 12.081702 V -16.3379 H -584.1943 Z"
         id="path4265"
         style="stroke-width:0.999998" />
    </clipPath>
    <clipPath
       clipPathUnits="userSpaceOnUse"
       id="clipPath4269">
      <path
         d="M -538.2217,577.9479 H 58.054302 V -17.3281 H -538.2217 Z"
         id="path4271"
         style="stroke-width:0.999998" />
    </clipPath>
    <clipPath
       clipPathUnits="userSpaceOnUse"
       id="clipPath4275">
      <path
         d="M -536.6982,584.5729 H 59.577802 V -10.7031 H -536.6982 Z"
         id="path4277"
         style="stroke-width:0.999998" />
    </clipPath>
    <clipPath
       clipPathUnits="userSpaceOnUse"
       id="clipPath4281">
      <path
         d="m -274.2275,321.0475 h 596.276 v -595.276 h -596.276 z"
         id="path4283"
         style="stroke-width:0.999998" />
    </clipPath>
    <clipPath
       clipPathUnits="userSpaceOnUse"
       id="clipPath4287">
      <path
         d="m -275.3037,330.6158 h 596.276 v -595.276 h -596.276 z"
         id="path4289"
         style="stroke-width:0.999998" />
    </clipPath>
    <clipPath
       clipPathUnits="userSpaceOnUse"
       id="clipPath4293">
      <path
         d="M -528.0898,575.3815 H 68.186202 V -19.8945 H -528.0898 Z"
         id="path4295"
         style="stroke-width:0.999998" />
    </clipPath>
    <clipPath
       clipPathUnits="userSpaceOnUse"
       id="clipPath4299">
      <path
         d="M -531.1924,581.5885 H 65.083602 V -13.6875 H -531.1924 Z"
         id="path4301"
         style="stroke-width:0.999998" />
    </clipPath>
    <clipPath
       clipPathUnits="userSpaceOnUse"
       id="clipPath4305">
      <path
         d="M -553.8975,585.8483 H 42.378502 V -9.4277 H -553.8975 Z"
         id="path4307"
         style="stroke-width:0.999998" />
    </clipPath>
    <clipPath
       clipPathUnits="userSpaceOnUse"
       id="clipPath4311">
      <path
         d="M -540.8213,585.8483 H 55.454702 V -9.4277 H -540.8213 Z"
         id="path4313"
         style="stroke-width:0.999998" />
    </clipPath>
    <clipPath
       clipPathUnits="userSpaceOnUse"
       id="clipPath4317">
      <path
         d="M -542.9326,584.5729 H 53.343402 V -10.7031 H -542.9326 Z"
         id="path4319"
         style="stroke-width:0.999998" />
    </clipPath>
    <clipPath
       clipPathUnits="userSpaceOnUse"
       id="clipPath4323">
      <path
         d="m -146.1514,401.5201 h 596.276 v -595.276 h -596.276 z"
         id="path4325"
         style="stroke-width:0.999998" />
    </clipPath>
    <clipPath
       clipPathUnits="userSpaceOnUse"
       id="clipPath4329">
      <path
         d="m -195.9463,492.3346 h 596.276 v -595.276 h -596.276 z"
         id="path4331"
         style="stroke-width:0.999998" />
    </clipPath>
    <clipPath
       clipPathUnits="userSpaceOnUse"
       id="clipPath4335">
      <path
         d="m -264.6592,275.3033 h 596.276 v -595.276 h -596.276 z"
         id="path4337"
         style="stroke-width:0.999998" />
    </clipPath>
    <clipPath
       clipPathUnits="userSpaceOnUse"
       id="clipPath4341">
      <path
         d="M -545.417,584.5729 H 50.859002 V -10.7031 H -545.417 Z"
         id="path4343"
         style="stroke-width:0.999998" />
    </clipPath>
    <clipPath
       clipPathUnits="userSpaceOnUse"
       id="clipPath4347">
      <path
         d="m -193.7568,146.153 h 596.276 v -595.276 h -596.276 z"
         id="path4349"
         style="stroke-width:0.999998" />
    </clipPath>
    <clipPath
       clipPathUnits="userSpaceOnUse"
       id="clipPath4353">
      <path
         d="m -449.124,193.7565 h 596.276 v -595.276 h -596.276 z"
         id="path4355"
         style="stroke-width:0.999998" />
    </clipPath>
    <clipPath
       clipPathUnits="userSpaceOnUse"
       id="clipPath4359">
      <path
         d="m -399.3271,102.942 h 596.276 v -595.276 h -596.276 z"
         id="path4361"
         style="stroke-width:0.999998" />
    </clipPath>
    <clipPath
       clipPathUnits="userSpaceOnUse"
       id="clipPath4365">
      <path
         d="m -330.6162,319.9733 h 596.276 v -595.276 h -596.276 z"
         id="path4367"
         style="stroke-width:0.999998" />
    </clipPath>
    <clipPath
       clipPathUnits="userSpaceOnUse"
       id="clipPath4371">
      <path
         d="m -401.5186,449.1256 h 596.276 v -595.276 h -596.276 z"
         id="path4373"
         style="stroke-width:0.999998" />
    </clipPath>
    <clipPath
       clipPathUnits="userSpaceOnUse"
       id="clipPath4377">
      <path
         d="m -492.333,399.3287 h 596.276 v -595.276 h -596.276 z"
         id="path4379"
         style="stroke-width:0.999998" />
    </clipPath>
    <clipPath
       clipPathUnits="userSpaceOnUse"
       id="clipPath4383">
      <path
         d="m -319.9717,264.6598 h 596.276 v -595.276 h -596.276 z"
         id="path4385"
         style="stroke-width:0.999998" />
    </clipPath>
    <clipPath
       clipPathUnits="userSpaceOnUse"
       id="clipPath4389">
      <path
         d="M -548.9834,585.8522 H 47.292602 V -9.4238 H -548.9834 Z"
         id="path4391"
         style="stroke-width:0.999998" />
    </clipPath>
    <clipPath
       clipPathUnits="userSpaceOnUse"
       id="clipPath4395">
      <path
         d="m -102.9404,195.9479 h 596.276 v -595.276 h -596.276 z"
         id="path4397"
         style="stroke-width:0.999998" />
    </clipPath>
    <clipPath
       clipPathUnits="userSpaceOnUse"
       id="clipPath4401">
      <path
         d="M -557.0645,585.8483 H 39.211502 V -9.4277 H -557.0645 Z"
         id="path4403"
         style="stroke-width:0.999998" />
    </clipPath>
  </defs>
  <sodipodi:namedview
     id="namedview3614"
     pagecolor="#ffffff"
     bordercolor="#000000"
     borderopacity="0.25"
     inkscape:showpageshadow="2"
     inkscape:pageopacity="0.0"
     inkscape:pagecheckerboard="0"
     inkscape:deskcolor="#d1d1d1"
     showgrid="false"
     inkscape:zoom="0.29734106"
     inkscape:cx="-215.24105"
     inkscape:cy="396.85068"
     inkscape:window-width="1419"
     inkscape:window-height="456"
     inkscape:window-x="0"
     inkscape:window-y="25"
     inkscape:window-maximized="0"
     inkscape:current-layer="svg3612">
    <inkscape:page
       x="0"
       y="0"
       id="page3618"
       width="795.03467"
       height="793.70135" />
  </sodipodi:namedview>
  <path
     d="m 365.636,428.065 c -17.237,-17.24 -17.237,-45.187 0,-62.424 17.238,-17.238 45.186,-17.238 62.424,10e-4 17.238,17.236 17.238,45.183 -0.002,62.423 -17.236,17.237 -45.184,17.237 -62.422,0"
     style="fill:#000000;fill-opacity:1;fill-rule:nonzero;stroke:none"
     id="path3732" />
  <path
     d="m 367.071,440.822 c -2.74,-1.857 -5.349,-3.989 -7.776,-6.417 -2.427,-2.427 -4.56,-5.036 -6.417,-7.774 -29.236,25.631 -82.549,71.988 -111.247,94.543 -42.69,33.549 -98.794,37.686 -136.481,0 -30.0969,-30.1 -36.1328,-75.12 -18.1596,-111.235 l -0.0066,0.008 c -46.7186,46.716 -46.7146,122.456 0,169.172 25.4602,25.46 59.5442,37.041 92.8502,34.749 -2.293,33.305 9.287,67.388 34.748,92.849 46.716,46.716 122.456,46.716 169.174,0.003 l 0.006,-0.011 c -36.115,17.976 -81.136,11.94 -111.232,-18.158 -37.688,-37.688 -33.555,-93.792 0,-136.481 22.555,-28.699 68.908,-82.014 94.541,-111.248"
     style="fill:#000000;fill-opacity:1;fill-rule:nonzero;stroke:none"
     id="path3736" />
  <path
     d="m 194.868,535.36 c -17.23,-36.245 -17.282,-78.619 -0.11,-114.885 -7.026,4.667 -13.696,10.091 -19.888,16.287 -26.32,26.317 -38.854,61.197 -37.614,95.677 10.77,4.627 22.254,6.705 34.065,6.479 7.773,-0.162 15.683,-1.378 23.547,-3.558"
     style="fill:#000000;fill-opacity:1;fill-rule:nonzero;stroke:none"
     id="path3740" />
  <path
     d="m 261.261,656.447 c 34.478,1.237 69.36,-11.295 95.677,-37.615 6.194,-6.192 11.622,-12.864 16.286,-19.888 -36.266,17.169 -78.641,17.123 -114.885,-0.109 -2.18,7.864 -3.396,15.77 -3.557,23.544 -0.227,11.81 1.851,23.294 6.479,34.068"
     style="fill:#000000;fill-opacity:1;fill-rule:nonzero;stroke:none"
     id="path3744" />
  <path
     d="m 352.878,367.071 c 1.86,-2.737 3.989,-5.349 6.417,-7.776 2.427,-2.426 5.036,-4.557 7.776,-6.416 -25.633,-29.234 -71.99,-82.547 -94.542,-111.245 -33.555,-42.69 -37.69,-98.794 0,-136.482 30.097,-30.0985 75.117,-36.1332 111.231,-18.1599 l -0.005,-0.0053 c -46.719,-46.7186 -122.458,-46.7172 -169.174,0 -25.46,25.4602 -37.041,59.5422 -34.747,92.8492 -33.308,-2.292 -67.39,9.288 -92.8516,34.749 -46.7132,46.716 -46.7185,122.456 0,169.172 l 0.008,0.008 C 69.0172,347.65 75.0505,302.629 105.149,272.532 c 37.688,-37.69 93.792,-33.552 136.481,0 28.699,22.554 82.013,68.909 111.248,94.539"
     style="fill:#000000;fill-opacity:1;fill-rule:nonzero;stroke:none"
     id="path3748" />
  <path
     d="m 258.342,194.872 c 36.243,-17.232 78.617,-17.281 114.882,-0.112 -4.666,-7.024 -10.093,-13.693 -16.286,-19.887 -26.317,-26.318 -61.2,-38.853 -95.677,-37.614 -4.627,10.772 -6.706,22.256 -6.479,34.066 0.161,7.774 1.377,15.682 3.56,23.547"
     style="fill:#000000;fill-opacity:1;fill-rule:nonzero;stroke:none"
     id="path3752" />
  <path
     d="m 137.253,261.265 c -1.237,34.476 11.295,69.358 37.615,95.677 6.194,6.195 12.864,11.62 19.888,16.289 -17.17,-36.269 -17.12,-78.645 0.112,-114.887 -7.864,-2.182 -15.774,-3.396 -23.544,-3.56 -11.814,-0.224 -23.298,1.853 -34.071,6.481"
     style="fill:#000000;fill-opacity:1;fill-rule:nonzero;stroke:none"
     id="path3756" />
  <path
     d="m 426.628,352.881 c 2.74,1.86 5.35,3.99 7.776,6.417 2.427,2.428 4.558,5.037 6.418,7.775 29.233,-25.631 82.546,-71.987 111.243,-94.541 42.691,-33.552 98.797,-37.687 136.481,0 30.1,30.098 36.136,75.118 18.163,111.233 l 0.004,-0.008 c 46.717,-46.716 46.717,-122.456 0,-169.172 -25.46,-25.46 -59.541,-37.041 -92.848,-34.746 2.291,-33.31 -9.289,-67.391 -34.75,-92.8522 -46.714,-46.7159 -122.456,-46.7172 -169.172,0 l -0.005,0.004 c 36.112,-17.9707 81.133,-11.936 111.231,18.1612 37.688,37.689 33.55,93.793 0,136.482 -22.554,28.7 -68.91,82.011 -94.541,111.247"
     style="fill:#000000;fill-opacity:1;fill-rule:nonzero;stroke:none"
     id="path3760" />
  <path
     d="m 598.831,258.344 c 17.229,36.245 17.275,78.618 0.109,114.885 7.024,-4.667 13.693,-10.094 19.885,-16.287 26.32,-26.32 38.855,-61.2 37.617,-95.677 -10.773,-4.627 -22.257,-6.705 -34.068,-6.479 -7.773,0.163 -15.68,1.378 -23.543,3.558"
     style="fill:#000000;fill-opacity:1;fill-rule:nonzero;stroke:none"
     id="path3764" />
  <path
     d="m 532.435,137.257 c -34.476,-1.237 -69.357,11.295 -95.677,37.615 -6.195,6.195 -11.62,12.863 -16.29,19.888 36.27,-17.169 78.644,-17.12 114.891,0.112 2.18,-7.865 3.393,-15.773 3.557,-23.547 0.224,-11.81 -1.853,-23.294 -6.481,-34.068"
     style="fill:#000000;fill-opacity:1;fill-rule:nonzero;stroke:none"
     id="path3768" />
  <path
     d="m 440.82,426.631 c -1.86,2.74 -3.992,5.35 -6.418,7.776 -2.428,2.427 -5.038,4.558 -7.775,6.415 25.631,29.233 71.988,82.549 94.542,111.246 33.55,42.691 37.687,98.795 0,136.481 -30.098,30.1 -75.119,36.136 -111.234,18.16 l 0.008,0.01 c 46.716,46.714 122.458,46.714 169.172,-0.003 25.459,-25.46 37.041,-59.544 34.746,-92.848 33.311,2.291 67.391,-9.289 92.852,-34.75 46.716,-46.716 46.716,-122.456 0,-169.172 l -0.005,-0.008 c 17.973,36.115 11.937,81.136 -18.162,111.234 -37.688,37.688 -93.791,33.55 -136.481,0 -28.698,-22.554 -82.01,-68.91 -111.245,-94.541"
     style="fill:#000000;fill-opacity:1;fill-rule:nonzero;stroke:none"
     id="path3772" />
  <path
     d="m 535.357,598.835 c -36.245,17.229 -78.619,17.276 -114.885,0.109 4.667,7.024 10.091,13.693 16.287,19.885 26.32,26.32 61.197,38.852 95.68,37.618 4.624,-10.774 6.702,-22.258 6.476,-34.068 -0.162,-7.774 -1.378,-15.683 -3.558,-23.544"
     style="fill:#000000;fill-opacity:1;fill-rule:nonzero;stroke:none"
     id="path3776" />
  <path
     d="m 656.442,532.439 c 1.238,-34.479 -11.294,-69.36 -37.614,-95.677 -6.195,-6.195 -12.862,-11.62 -19.888,-16.289 17.169,36.269 17.12,78.643 -0.109,114.887 7.863,2.183 15.77,3.396 23.543,3.558 11.811,0.226 23.295,-1.851 34.068,-6.479"
     style="fill:#000000;fill-opacity:1;fill-rule:nonzero;stroke:none"
     id="path3780" />
</svg>
