<?xml version="1.0" encoding="UTF-8" standalone="no"?>
<!-- Created with Inkscape (http://www.inkscape.org/) -->

<svg
   version="1.1"
   id="svg2731"
   width="795.03467"
   height="793.70135"
   viewBox="0 0 795.03467 793.70135"
   sodipodi:docname="futokagenohanabishi.svg"
   inkscape:version="1.2 (dc2aeda, 2022-05-15)"
   xmlns:inkscape="http://www.inkscape.org/namespaces/inkscape"
   xmlns:sodipodi="http://sodipodi.sourceforge.net/DTD/sodipodi-0.dtd"
   xmlns="http://www.w3.org/2000/svg"
   xmlns:svg="http://www.w3.org/2000/svg">
  <defs
     id="defs2735">
    <clipPath
       clipPathUnits="userSpaceOnUse"
       id="clipPath3247">
      <path
         d="M -536.6982,584.5729 H 59.577802 V -10.7031 H -536.6982 Z"
         id="path3249"
         style="stroke-width:0.999998" />
    </clipPath>
    <clipPath
       clipPathUnits="userSpaceOnUse"
       id="clipPath3253">
      <path
         d="M -528.0898,575.3815 H 68.186202 V -19.8945 H -528.0898 Z"
         id="path3255"
         style="stroke-width:0.999998" />
    </clipPath>
    <clipPath
       clipPathUnits="userSpaceOnUse"
       id="clipPath3259">
      <path
         d="M -542.9326,584.5729 H 53.343402 V -10.7031 H -542.9326 Z"
         id="path3261"
         style="stroke-width:0.999998" />
    </clipPath>
    <clipPath
       clipPathUnits="userSpaceOnUse"
       id="clipPath3265">
      <path
         d="M -531.1924,581.5885 H 65.083602 V -13.6875 H -531.1924 Z"
         id="path3267"
         style="stroke-width:0.999998" />
    </clipPath>
    <clipPath
       clipPathUnits="userSpaceOnUse"
       id="clipPath3271">
      <path
         d="M -540.8213,585.8483 H 55.454702 V -9.4277 H -540.8213 Z"
         id="path3273"
         style="stroke-width:0.999998" />
    </clipPath>
    <clipPath
       clipPathUnits="userSpaceOnUse"
       id="clipPath3277">
      <path
         d="M -545.417,584.5729 H 50.859002 V -10.7031 H -545.417 Z"
         id="path3279"
         style="stroke-width:0.999998" />
    </clipPath>
    <clipPath
       clipPathUnits="userSpaceOnUse"
       id="clipPath3283">
      <path
         d="M -553.8975,585.8483 H 42.378502 V -9.4277 H -553.8975 Z"
         id="path3285"
         style="stroke-width:0.999998" />
    </clipPath>
    <clipPath
       clipPathUnits="userSpaceOnUse"
       id="clipPath3289">
      <path
         d="M -557.0645,585.8483 H 39.211502 V -9.4277 H -557.0645 Z"
         id="path3291"
         style="stroke-width:0.999998" />
    </clipPath>
    <clipPath
       clipPathUnits="userSpaceOnUse"
       id="clipPath3295">
      <path
         d="M -548.9834,585.8522 H 47.292602 V -9.4238 H -548.9834 Z"
         id="path3297"
         style="stroke-width:0.999998" />
    </clipPath>
    <clipPath
       clipPathUnits="userSpaceOnUse"
       id="clipPath3301">
      <path
         d="M -561.4131,585.8522 H 34.862902 V -9.4238 H -561.4131 Z"
         id="path3303"
         style="stroke-width:0.999998" />
    </clipPath>
    <clipPath
       clipPathUnits="userSpaceOnUse"
       id="clipPath3307">
      <path
         d="M -564.5732,585.8483 H 31.702802 V -9.4277 H -564.5732 Z"
         id="path3309"
         style="stroke-width:0.999998" />
    </clipPath>
    <clipPath
       clipPathUnits="userSpaceOnUse"
       id="clipPath3313">
      <path
         d="M -567.7754,585.8522 H 28.500602 V -9.4238 H -567.7754 Z"
         id="path3315"
         style="stroke-width:0.999998" />
    </clipPath>
    <clipPath
       clipPathUnits="userSpaceOnUse"
       id="clipPath3320">
      <path
         d="M -572.8174,586.1354 H 23.458602 V -9.1406 H -572.8174 Z"
         id="path3322"
         style="stroke-width:0.999998" />
    </clipPath>
    <clipPath
       clipPathUnits="userSpaceOnUse"
       id="clipPath3326">
      <path
         d="M -574.5459,585.8522 H 21.730102 V -9.4238 H -574.5459 Z"
         id="path3328"
         style="stroke-width:0.999998" />
    </clipPath>
    <clipPath
       clipPathUnits="userSpaceOnUse"
       id="clipPath3332">
      <path
         d="M -576.3691,585.5885 H 19.906902 V -9.6875 H -576.3691 Z"
         id="path3334"
         style="stroke-width:0.999998" />
    </clipPath>
    <clipPath
       clipPathUnits="userSpaceOnUse"
       id="clipPath3338">
      <path
         d="M -557.4951,577.8502 H 38.780902 V -17.4258 H -557.4951 Z"
         id="path3340"
         style="stroke-width:0.999998" />
    </clipPath>
    <clipPath
       clipPathUnits="userSpaceOnUse"
       id="clipPath3344">
      <path
         d="M -568.2266,575.819 H 28.049402 V -19.457 H -568.2266 Z"
         id="path3346"
         style="stroke-width:0.999998" />
    </clipPath>
    <clipPath
       clipPathUnits="userSpaceOnUse"
       id="clipPath3350">
      <path
         d="M -550.2637,577.3248 H 46.012302 V -17.9512 H -550.2637 Z"
         id="path3352"
         style="stroke-width:0.999998" />
    </clipPath>
    <clipPath
       clipPathUnits="userSpaceOnUse"
       id="clipPath3357">
      <path
         d="M -556.4014,578.0143 H 39.874602 V -17.2617 H -556.4014 Z"
         id="path3359"
         style="stroke-width:0.999998" />
    </clipPath>
    <clipPath
       clipPathUnits="userSpaceOnUse"
       id="clipPath3363">
      <path
         d="M -586.5449,579.5026 H 9.7311024 V -15.7734 H -586.5449 Z"
         id="path3365"
         style="stroke-width:0.999998" />
    </clipPath>
    <clipPath
       clipPathUnits="userSpaceOnUse"
       id="clipPath3369">
      <path
         d="M -584.1943,578.9381 H 12.081702 V -16.3379 H -584.1943 Z"
         id="path3371"
         style="stroke-width:0.999998" />
    </clipPath>
    <clipPath
       clipPathUnits="userSpaceOnUse"
       id="clipPath3375">
      <path
         d="M -538.2217,577.9479 H 58.054302 V -17.3281 H -538.2217 Z"
         id="path3377"
         style="stroke-width:0.999998" />
    </clipPath>
    <clipPath
       clipPathUnits="userSpaceOnUse"
       id="clipPath3381">
      <path
         d="m -383.1436,289.7101 h 596.276 v -595.276 h -596.276 z"
         id="path3383"
         style="stroke-width:0.999998" />
    </clipPath>
  </defs>
  <sodipodi:namedview
     id="namedview2733"
     pagecolor="#ffffff"
     bordercolor="#000000"
     borderopacity="0.25"
     inkscape:showpageshadow="2"
     inkscape:pageopacity="0.0"
     inkscape:pagecheckerboard="0"
     inkscape:deskcolor="#d1d1d1"
     showgrid="false"
     inkscape:zoom="0.29734106"
     inkscape:cx="-756.70679"
     inkscape:cy="396.85067"
     inkscape:window-width="1419"
     inkscape:window-height="456"
     inkscape:window-x="0"
     inkscape:window-y="25"
     inkscape:window-maximized="0"
     inkscape:current-layer="svg2731">
    <inkscape:page
       x="0"
       y="0"
       id="page2737"
       width="795.03467"
       height="793.70135" />
  </sodipodi:namedview>
  <path
     d="m 510.857,386.281 c -10.124,0 -44.775,2.022 -60.599,2.973 0.349,2.476 0.54,5.039 0.54,7.613 0,2.608 -0.187,5.155 -0.54,7.658 15.829,0.946 50.479,2.93 60.599,2.93 10.184,0 18.442,-4.745 18.442,-10.588 0,-5.84 -8.258,-10.586 -18.442,-10.586 m -114.054,64.574 c -2.557,0 -5.085,-0.178 -7.544,-0.522 -0.932,13.411 -2.225,33.054 -2.225,39.557 0,7.842 4.374,14.202 9.776,14.202 5.388,0 9.766,-6.36 9.766,-14.202 0,-6.503 -1.269,-26.151 -2.196,-39.563 -2.484,0.35 -5.002,0.528 -7.577,0.528 M 282.755,386.27 c -10.189,0 -18.448,4.744 -18.448,10.588 0,5.841 8.259,10.588 18.448,10.588 10.124,0 44.776,-2.025 60.599,-2.975 -0.348,-2.476 -0.534,-5.04 -0.534,-7.613 0,-2.607 0.175,-5.155 0.534,-7.659 -15.828,-0.944 -50.475,-2.929 -60.599,-2.929 M 396.81,342.862 c 2.552,0 5.081,0.187 7.542,0.529 0.934,-13.412 2.224,-33.058 2.224,-39.561 0,-7.842 -4.378,-14.204 -9.766,-14.204 -5.402,0 -9.776,6.362 -9.776,14.204 0,6.503 1.272,26.155 2.204,39.567 2.477,-0.348 4.996,-0.535 7.572,-0.535 m 0,8.384 c -25.19,0 -45.612,20.423 -45.612,45.612 0,25.199 20.422,45.621 45.612,45.621 25.186,0 45.609,-20.422 45.609,-45.621 0,-25.189 -20.423,-45.612 -45.609,-45.612 m 217.9,87.337 c 0,0 0,20.947 -16.755,33.515 -16.756,12.566 -56.536,12.234 -80.291,-6.286 L 448.8,411.399 c -2.573,9.268 -7.357,17.554 -14.038,24.1 8.857,8.382 40.062,38.113 48.69,44.975 10.076,8.009 19.991,22.61 18.852,40.844 -1.031,16.532 -8.377,31.416 -25.832,40.144 -17.454,8.726 -32.814,3.84 -32.814,3.84 0,0 -4.206,38.401 -46.848,38.401 -42.656,0 -46.856,-38.401 -46.856,-38.401 0,0 -15.359,4.886 -32.813,-3.84 -17.455,-8.728 -24.803,-23.612 -25.831,-40.144 -1.148,-18.234 8.773,-32.835 18.848,-40.844 8.631,-6.862 40.101,-36.588 48.954,-44.955 -6.685,-6.534 -11.716,-14.821 -14.302,-24.081 l -68.861,54.364 c -23.751,18.517 -63.535,18.852 -80.292,6.284 -16.756,-12.567 -16.756,-33.513 -16.756,-33.513 0,0 -60.272,5.238 -60.272,-41.715 0,-46.952 60.272,-41.716 60.272,-41.716 0,0 0,-20.947 16.756,-33.513 16.757,-12.567 56.541,-12.235 80.292,6.284 l 68.855,54.413 c 2.582,-9.267 7.364,-17.553 14.047,-24.099 -8.864,-8.381 -40.062,-38.119 -48.693,-44.975 -10.075,-8.015 -19.996,-22.61 -18.848,-40.844 1.028,-16.534 8.376,-31.419 25.831,-40.146 17.454,-8.728 32.813,-3.84 32.813,-3.84 0,0 4.2,-38.399 46.856,-38.399 42.642,0 46.848,38.399 46.848,38.399 0,0 15.36,-4.888 32.814,3.84 17.455,8.727 24.801,23.612 25.832,40.146 1.139,18.234 -8.776,32.829 -18.852,40.844 -8.633,6.856 -39.854,36.817 -48.701,45.189 6.688,6.534 11.465,14.585 14.049,23.848 l 68.864,-54.367 c 23.755,-18.517 63.535,-18.849 80.291,-6.282 16.755,12.566 16.755,33.511 16.755,33.511 0,0 60.278,-5.236 60.278,41.716 0,46.955 -60.278,41.716 -60.278,41.716 m 135.06,-86.764 c -11.477,-17.77 -28.538,-26.606 -42.698,-30.991 -6.567,-2.019 -12.666,-3.192 -17.804,-3.87 -0.742,-3.516 -1.768,-7.482 -3.152,-11.721 -4.774,-14.459 -14.215,-32.967 -33.71,-45.201 -14.925,-9.332 -31.604,-14.067 -48.349,-14.046 -10.374,0 -20.628,1.768 -30.686,5.128 0.294,-2.786 0.501,-5.662 0.492,-8.617 0,-2.204 -0.067,-4.469 -0.218,-6.775 -1.76,-28.444 -19.937,-58.833 -53.789,-70.266 -8.067,-2.688 -16.029,-3.664 -23.393,-3.664 -9.394,0.064 -17.848,1.563 -24.798,3.425 -1.749,-4.665 -4.093,-9.81 -7.237,-15.092 -10.238,-17.91 -32.918,-37.134 -67.618,-36.733 -34.714,-0.401 -57.383,18.823 -67.625,36.733 -3.143,5.282 -5.494,10.428 -7.244,15.095 -6.95,-1.865 -15.404,-3.364 -24.795,-3.428 -7.361,0 -15.329,0.963 -23.424,3.675 -33.829,11.422 -52.003,41.811 -53.76,70.227 -0.152,2.307 -0.217,4.587 -0.217,6.812 -0.022,2.956 0.13,5.81 0.418,8.591 -10.018,-3.332 -20.283,-5.104 -30.614,-5.104 -16.747,-0.028 -33.432,4.696 -48.365,14.045 -19.478,12.224 -28.919,30.731 -33.694,45.191 -1.389,4.237 -2.41,8.203 -3.157,11.72 -8.8732,1.153 -20.6252,3.788 -32.6238,9.917 -10.036,5.172 -20.3,13.157 -27.8733,24.939 -7.624,11.748 -12.1506,26.993 -12.108,45.044 -0.0426,18.041 4.4947,33.298 12.108,45.052 11.472,17.761 28.5506,26.591 42.6986,30.971 6.5573,2.024 12.6533,3.191 17.7935,3.868 0.752,3.523 1.773,7.495 3.162,11.739 4.775,14.459 14.216,32.964 33.71,45.189 14.89,9.307 31.526,14.046 48.229,14.046 h 0.12 c 10.331,-0.006 20.596,-1.763 30.6,-5.09 -0.286,2.771 -0.432,5.628 -0.415,8.571 0,2.176 0.065,4.477 0.228,6.893 1.757,28.348 19.941,58.728 53.781,70.165 8.084,2.686 16.047,3.658 23.391,3.658 9.391,-0.07 17.852,-1.568 24.801,-3.426 1.751,4.67 4.096,9.816 7.25,15.103 10.231,17.901 32.911,37.132 67.618,36.732 0.355,0.005 0.72,0.005 1.075,0.005 34.101,0.006 56.416,-19.022 66.545,-36.737 3.149,-5.287 5.498,-10.433 7.249,-15.103 6.943,1.866 15.403,3.364 24.801,3.436 7.364,-0.01 15.306,-0.998 23.356,-3.656 33.874,-11.449 52.056,-41.829 53.816,-70.249 0.151,-2.353 0.218,-4.624 0.218,-6.821 0.009,-2.959 -0.132,-5.809 -0.426,-8.592 10.014,3.328 20.29,5.1 30.62,5.105 h 0.12 c 16.703,0 33.333,-4.738 48.219,-14.024 19.505,-12.236 28.946,-30.741 33.72,-45.213 1.384,-4.236 2.41,-8.2 3.158,-11.72 8.874,-1.149 20.616,-3.792 32.622,-9.912 10.038,-5.172 20.298,-13.149 27.883,-24.944 7.616,-11.753 12.144,-26.994 12.11,-45.032 0.034,-18.058 -4.494,-33.304 -12.119,-45.048"
     style="fill:#000000;fill-opacity:1;fill-rule:nonzero;stroke:none"
     id="path2851" />
</svg>
