<?xml version="1.0" encoding="UTF-8" standalone="no"?>
<!-- Created with Inkscape (http://www.inkscape.org/) -->

<svg
   version="1.1"
   id="svg27190"
   width="795.03467"
   height="793.70135"
   viewBox="0 0 795.03467 793.70135"
   sodipodi:docname="Futokage Katabami.svg"
   inkscape:version="1.2 (dc2aeda, 2022-05-15)"
   xmlns:inkscape="http://www.inkscape.org/namespaces/inkscape"
   xmlns:sodipodi="http://sodipodi.sourceforge.net/DTD/sodipodi-0.dtd"
   xmlns="http://www.w3.org/2000/svg"
   xmlns:svg="http://www.w3.org/2000/svg">
  <defs
     id="defs27194">
    <clipPath
       clipPathUnits="userSpaceOnUse"
       id="clipPath27683">
      <path
         d="M -536.6982,584.5729 H 59.577804 V -10.7031 H -536.6982 Z"
         id="path27685"
         style="stroke-width:0.999998" />
    </clipPath>
    <clipPath
       clipPathUnits="userSpaceOnUse"
       id="clipPath27689">
      <path
         d="M -528.0898,575.3815 H 68.186199 V -19.8945 H -528.0898 Z"
         id="path27691"
         style="stroke-width:0.999998" />
    </clipPath>
    <clipPath
       clipPathUnits="userSpaceOnUse"
       id="clipPath27695">
      <path
         d="M -545.417,584.5729 H 50.859001 V -10.7031 H -545.417 Z"
         id="path27697"
         style="stroke-width:0.999998" />
    </clipPath>
    <clipPath
       clipPathUnits="userSpaceOnUse"
       id="clipPath27701">
      <path
         d="M -548.9834,585.8522 H 47.292601 V -9.4238027 H -548.9834 Z"
         id="path27703"
         style="stroke-width:0.999998" />
    </clipPath>
    <clipPath
       clipPathUnits="userSpaceOnUse"
       id="clipPath27707">
      <path
         d="M -586.5449,579.5026 H 9.7311002 V -15.7734 H -586.5449 Z"
         id="path27709"
         style="stroke-width:0.999998" />
    </clipPath>
    <clipPath
       clipPathUnits="userSpaceOnUse"
       id="clipPath27713">
      <path
         d="M -538.2217,577.9479 H 58.054299 V -17.328098 H -538.2217 Z"
         id="path27715"
         style="stroke-width:0.999998" />
    </clipPath>
    <clipPath
       clipPathUnits="userSpaceOnUse"
       id="clipPath27719">
      <path
         d="m -334.6367,312.3424 h 596.276 v -595.276 h -596.276 z"
         id="path27721"
         style="stroke-width:0.999998" />
    </clipPath>
    <clipPath
       clipPathUnits="userSpaceOnUse"
       id="clipPath27725">
      <path
         d="M -550.2637,577.3248 H 46.012306 V -17.951198 H -550.2637 Z"
         id="path27727"
         style="stroke-width:0.999998" />
    </clipPath>
    <clipPath
       clipPathUnits="userSpaceOnUse"
       id="clipPath27732">
      <path
         d="M -556.4014,578.0143 H 39.874606 V -17.2617 H -556.4014 Z"
         id="path27734"
         style="stroke-width:0.999998" />
    </clipPath>
    <clipPath
       clipPathUnits="userSpaceOnUse"
       id="clipPath27738">
      <path
         d="M -584.1943,578.9381 H 12.081705 V -16.337903 H -584.1943 Z"
         id="path27740"
         style="stroke-width:0.999998" />
    </clipPath>
    <clipPath
       clipPathUnits="userSpaceOnUse"
       id="clipPath27744">
      <path
         d="M -553.8975,585.8483 H 42.378504 V -9.4277027 H -553.8975 Z"
         id="path27746"
         style="stroke-width:0.999998" />
    </clipPath>
    <clipPath
       clipPathUnits="userSpaceOnUse"
       id="clipPath27750">
      <path
         d="M -564.5732,585.8483 H 31.702801 V -9.4277027 H -564.5732 Z"
         id="path27752"
         style="stroke-width:0.999998" />
    </clipPath>
    <clipPath
       clipPathUnits="userSpaceOnUse"
       id="clipPath27756">
      <path
         d="M -567.7754,585.8522 H 28.500601 V -9.4238027 H -567.7754 Z"
         id="path27758"
         style="stroke-width:0.999998" />
    </clipPath>
    <clipPath
       clipPathUnits="userSpaceOnUse"
       id="clipPath27763">
      <path
         d="M -574.5459,585.8522 H 21.730103 V -9.4238027 H -574.5459 Z"
         id="path27765"
         style="stroke-width:0.999998" />
    </clipPath>
    <clipPath
       clipPathUnits="userSpaceOnUse"
       id="clipPath27769">
      <path
         d="M -572.8174,586.1354 H 23.458606 V -9.1406027 H -572.8174 Z"
         id="path27771"
         style="stroke-width:0.999998" />
    </clipPath>
    <clipPath
       clipPathUnits="userSpaceOnUse"
       id="clipPath27775">
      <path
         d="M -576.3691,585.5885 H 19.906905 V -9.6875027 H -576.3691 Z"
         id="path27777"
         style="stroke-width:0.999998" />
    </clipPath>
    <clipPath
       clipPathUnits="userSpaceOnUse"
       id="clipPath27781">
      <path
         d="M -568.2266,575.819 H 28.049401 V -19.457003 H -568.2266 Z"
         id="path27783"
         style="stroke-width:0.999998" />
    </clipPath>
    <clipPath
       clipPathUnits="userSpaceOnUse"
       id="clipPath27787">
      <path
         d="M -557.4951,577.8502 H 38.780903 V -17.4258 H -557.4951 Z"
         id="path27789"
         style="stroke-width:0.999998" />
    </clipPath>
    <clipPath
       clipPathUnits="userSpaceOnUse"
       id="clipPath27793">
      <path
         d="M -531.1924,581.5885 H 65.083599 V -13.6875 H -531.1924 Z"
         id="path27795"
         style="stroke-width:0.999998" />
    </clipPath>
    <clipPath
       clipPathUnits="userSpaceOnUse"
       id="clipPath27799">
      <path
         d="M -557.0645,585.8483 H 39.211501 V -9.4277027 H -557.0645 Z"
         id="path27801"
         style="stroke-width:0.999998" />
    </clipPath>
    <clipPath
       clipPathUnits="userSpaceOnUse"
       id="clipPath27805">
      <path
         d="M -561.4131,585.8522 H 34.862903 V -9.4238027 H -561.4131 Z"
         id="path27807"
         style="stroke-width:0.999998" />
    </clipPath>
    <clipPath
       clipPathUnits="userSpaceOnUse"
       id="clipPath27811">
      <path
         d="M -540.8213,585.8483 H 55.454701 V -9.4277027 H -540.8213 Z"
         id="path27813"
         style="stroke-width:0.999998" />
    </clipPath>
    <clipPath
       clipPathUnits="userSpaceOnUse"
       id="clipPath27817">
      <path
         d="M -542.9326,584.5729 H 53.343399 V -10.7031 H -542.9326 Z"
         id="path27819"
         style="stroke-width:0.999998" />
    </clipPath>
  </defs>
  <sodipodi:namedview
     id="namedview27192"
     pagecolor="#ffffff"
     bordercolor="#000000"
     borderopacity="0.25"
     inkscape:showpageshadow="2"
     inkscape:pageopacity="0.0"
     inkscape:pagecheckerboard="0"
     inkscape:deskcolor="#d1d1d1"
     showgrid="false"
     inkscape:zoom="0.29734106"
     inkscape:cx="-215.24105"
     inkscape:cy="605.36544"
     inkscape:window-width="1419"
     inkscape:window-height="456"
     inkscape:window-x="0"
     inkscape:window-y="25"
     inkscape:window-maximized="0"
     inkscape:current-layer="svg27190">
    <inkscape:page
       x="0"
       y="0"
       id="page27196"
       width="795.03467"
       height="793.70135" />
  </sodipodi:namedview>
  <path
     d="M 446.182 416.457 C 444.163 415.525 442.163 414.569 440.209 413.608 C 439.354 415.812 438.321 417.981 437.102 420.096 C 435.879 422.208 434.521 424.186 433.037 426.03 C 434.846 427.244 436.674 428.496 438.493 429.777 C 453.91 440.66 456.666 455.077 456.666 455.077 L 483.547 446.91 L 477.181 419.545 C 477.181 419.545 463.317 424.369 446.182 416.457 M 353.486 413.602 C 351.53 414.564 349.532 415.52 347.512 416.454 C 330.378 424.364 316.514 419.542 316.514 419.542 L 310.148 446.908 L 337.029 455.074 C 337.029 455.074 339.785 440.657 355.202 429.772 C 357.021 428.49 358.848 427.238 360.657 426.025 C 359.176 424.181 357.814 422.202 356.593 420.09 C 355.374 417.976 354.341 415.809 353.486 413.602 M 389.161 344.324 C 389.362 346.54 389.534 348.748 389.679 350.922 C 392.017 350.561 394.411 350.37 396.851 350.369 C 399.291 350.37 401.685 350.561 404.023 350.922 C 404.169 348.748 404.339 346.54 404.542 344.324 C 406.258 325.531 417.365 315.935 417.365 315.935 L 396.85 296.737 L 376.336 315.935 C 376.336 315.935 387.443 325.531 389.161 344.324 M 396.85 358.372 C 375.594 358.372 358.369 375.6 358.369 396.853 C 358.369 418.108 375.594 435.337 396.85 435.337 C 418.101 435.337 435.333 418.108 435.333 396.853 C 435.333 375.6 418.101 358.372 396.85 358.372 M 558.603 490.243 C 567.671 532.637 540.646 574.353 498.254 583.41 C 455.859 592.47 415.154 565.222 405.087 523.058 C 400.95 505.741 404.619 479.673 402.749 454.754 C 402.465 450.962 402.145 447.022 401.798 443.066 C 398.487 443.416 395.171 443.416 391.898 443.064 C 391.553 447.017 391.229 450.96 390.945 454.752 C 389.075 479.67 392.745 505.738 388.606 523.055 C 378.541 565.217 337.836 592.467 295.44 583.405 C 253.049 574.347 226.024 532.631 235.092 490.241 C 193.844 476.897 171.229 432.634 184.583 391.393 C 197.932 350.148 241.881 328.52 283.43 340.883 C 300.496 345.959 321.237 362.17 343.753 373.01 C 347.18 374.66 350.752 376.352 354.352 378.03 C 355.704 374.989 357.362 372.118 359.304 369.458 C 356.05 367.182 352.8 364.93 349.657 362.79 C 329.012 348.711 304.602 338.855 291.673 326.612 C 260.193 296.813 256.948 247.937 285.992 215.754 C 315.032 183.57 364.672 181.023 396.85 210.071 C 429.03 181.023 478.67 183.57 507.71 215.754 C 536.754 247.937 533.508 296.813 502.029 326.612 C 489.099 338.855 464.69 348.711 444.043 362.79 C 440.902 364.933 437.65 367.18 434.395 369.458 C 436.354 372.149 438.011 375.021 439.343 378.033 C 442.941 376.354 446.518 374.664 449.942 373.014 C 472.458 362.174 493.199 345.963 510.266 340.888 C 551.812 328.524 595.763 350.15 609.112 391.397 C 622.464 432.637 599.85 476.9 558.603 490.243 M 686.84 286.52 C 666.277 274.648 644.062 268.297 621.87 266.936 C 631.786 247.041 637.399 224.62 637.399 200.878 C 637.399 118.972 571 52.5739 489.093 52.5739 C 454.213 52.5739 422.177 64.6459 396.85 84.7938 C 371.525 64.6459 339.484 52.5739 304.609 52.5739 C 222.701 52.5739 156.303 118.972 156.303 200.878 C 156.303 224.62 161.912 247.037 171.828 266.935 C 149.641 268.295 127.417 274.644 106.855 286.516 C 35.923 327.468 11.6191 418.17 52.5737 489.105 C 70.0136 519.311 96.4869 541.019 126.599 552.878 C 121.812 584.886 127.377 618.67 144.816 648.871 C 185.769 719.806 276.472 744.11 347.402 703.156 C 367.965 691.287 384.574 675.222 396.847 656.683 C 409.119 675.216 425.729 691.29 446.291 703.162 C 517.223 744.115 607.926 719.811 648.879 648.875 C 666.319 618.67 671.883 584.889 667.099 552.881 C 697.209 541.025 723.685 519.311 741.12 489.107 C 782.074 418.173 757.772 327.472 686.84 286.52"
     style="fill:#000000;fill-opacity:1;fill-rule:nonzero;stroke:none"
     id="path27310" />
</svg>
