<?xml version="1.0" encoding="UTF-8" standalone="no"?>
<!-- Created with Inkscape (http://www.inkscape.org/) -->

<svg
   version="1.1"
   id="svg32774"
   width="795.03467"
   height="793.70135"
   viewBox="0 0 795.03467 793.70135"
   sodipodi:docname="Himeji Ken Katabami.svg"
   inkscape:version="1.2 (dc2aeda, 2022-05-15)"
   xmlns:inkscape="http://www.inkscape.org/namespaces/inkscape"
   xmlns:sodipodi="http://sodipodi.sourceforge.net/DTD/sodipodi-0.dtd"
   xmlns="http://www.w3.org/2000/svg"
   xmlns:svg="http://www.w3.org/2000/svg">
  <defs
     id="defs32778">
    <clipPath
       clipPathUnits="userSpaceOnUse"
       id="clipPath33351">
      <path
         d="M -536.6982,584.5729 H 59.577804 V -10.7031 H -536.6982 Z"
         id="path33353"
         style="stroke-width:0.999998" />
    </clipPath>
    <clipPath
       clipPathUnits="userSpaceOnUse"
       id="clipPath33357">
      <path
         d="M -528.0898,575.3815 H 68.186199 V -19.8945 H -528.0898 Z"
         id="path33359"
         style="stroke-width:0.999998" />
    </clipPath>
    <clipPath
       clipPathUnits="userSpaceOnUse"
       id="clipPath33363">
      <path
         d="M -540.8213,585.8483 H 55.454701 V -9.4277027 H -540.8213 Z"
         id="path33365"
         style="stroke-width:0.999998" />
    </clipPath>
    <clipPath
       clipPathUnits="userSpaceOnUse"
       id="clipPath33369">
      <path
         d="m -338.3125,297.6393 h 596.276 v -595.276 h -596.276 z"
         id="path33371"
         style="stroke-width:0.999998" />
    </clipPath>
    <clipPath
       clipPathUnits="userSpaceOnUse"
       id="clipPath33375">
      <path
         d="m -253.5342,279.2584 h 596.276 v -595.276 h -596.276 z"
         id="path33377"
         style="stroke-width:0.999998" />
    </clipPath>
    <clipPath
       clipPathUnits="userSpaceOnUse"
       id="clipPath33381">
      <path
         d="M -542.9326,584.5729 H 53.343399 V -10.7031 H -542.9326 Z"
         id="path33383"
         style="stroke-width:0.999998" />
    </clipPath>
    <clipPath
       clipPathUnits="userSpaceOnUse"
       id="clipPath33387">
      <path
         d="M -545.417,584.5729 H 50.859001 V -10.7031 H -545.417 Z"
         id="path33389"
         style="stroke-width:0.999998" />
    </clipPath>
    <clipPath
       clipPathUnits="userSpaceOnUse"
       id="clipPath33393">
      <path
         d="M -548.9834,585.8522 H 47.292601 V -9.4238027 H -548.9834 Z"
         id="path33395"
         style="stroke-width:0.999998" />
    </clipPath>
    <clipPath
       clipPathUnits="userSpaceOnUse"
       id="clipPath33399">
      <path
         d="M -553.8975,585.8483 H 42.378504 V -9.4277027 H -553.8975 Z"
         id="path33401"
         style="stroke-width:0.999998" />
    </clipPath>
    <clipPath
       clipPathUnits="userSpaceOnUse"
       id="clipPath33405">
      <path
         d="M -557.0645,585.8483 H 39.211501 V -9.4277027 H -557.0645 Z"
         id="path33407"
         style="stroke-width:0.999998" />
    </clipPath>
    <clipPath
       clipPathUnits="userSpaceOnUse"
       id="clipPath33411">
      <path
         d="M -561.4131,585.8522 H 34.862903 V -9.4238027 H -561.4131 Z"
         id="path33413"
         style="stroke-width:0.999998" />
    </clipPath>
    <clipPath
       clipPathUnits="userSpaceOnUse"
       id="clipPath33417">
      <path
         d="M -564.5732,585.8483 H 31.702801 V -9.4277027 H -564.5732 Z"
         id="path33419"
         style="stroke-width:0.999998" />
    </clipPath>
    <clipPath
       clipPathUnits="userSpaceOnUse"
       id="clipPath33423">
      <path
         d="M -567.7754,585.8522 H 28.500601 V -9.4238027 H -567.7754 Z"
         id="path33425"
         style="stroke-width:0.999998" />
    </clipPath>
    <clipPath
       clipPathUnits="userSpaceOnUse"
       id="clipPath33430">
      <path
         d="M -572.8174,586.1354 H 23.458606 V -9.1406027 H -572.8174 Z"
         id="path33432"
         style="stroke-width:0.999998" />
    </clipPath>
    <clipPath
       clipPathUnits="userSpaceOnUse"
       id="clipPath33436">
      <path
         d="M -574.5459,585.8522 H 21.730103 V -9.4238027 H -574.5459 Z"
         id="path33438"
         style="stroke-width:0.999998" />
    </clipPath>
    <clipPath
       clipPathUnits="userSpaceOnUse"
       id="clipPath33442">
      <path
         d="M -576.3691,585.5885 H 19.906905 V -9.6875027 H -576.3691 Z"
         id="path33444"
         style="stroke-width:0.999998" />
    </clipPath>
    <clipPath
       clipPathUnits="userSpaceOnUse"
       id="clipPath33448">
      <path
         d="M -557.4951,577.8502 H 38.780903 V -17.4258 H -557.4951 Z"
         id="path33450"
         style="stroke-width:0.999998" />
    </clipPath>
    <clipPath
       clipPathUnits="userSpaceOnUse"
       id="clipPath33454">
      <path
         d="M -568.2266,575.819 H 28.049401 V -19.457003 H -568.2266 Z"
         id="path33456"
         style="stroke-width:0.999998" />
    </clipPath>
    <clipPath
       clipPathUnits="userSpaceOnUse"
       id="clipPath33460">
      <path
         d="M -550.2637,577.3248 H 46.012306 V -17.951198 H -550.2637 Z"
         id="path33462"
         style="stroke-width:0.999998" />
    </clipPath>
    <clipPath
       clipPathUnits="userSpaceOnUse"
       id="clipPath33467">
      <path
         d="M -556.4014,578.0143 H 39.874606 V -17.2617 H -556.4014 Z"
         id="path33469"
         style="stroke-width:0.999998" />
    </clipPath>
    <clipPath
       clipPathUnits="userSpaceOnUse"
       id="clipPath33473">
      <path
         d="M -586.5449,579.5026 H 9.7311002 V -15.7734 H -586.5449 Z"
         id="path33475"
         style="stroke-width:0.999998" />
    </clipPath>
    <clipPath
       clipPathUnits="userSpaceOnUse"
       id="clipPath33479">
      <path
         d="M -584.1943,578.9381 H 12.081705 V -16.337903 H -584.1943 Z"
         id="path33481"
         style="stroke-width:0.999998" />
    </clipPath>
    <clipPath
       clipPathUnits="userSpaceOnUse"
       id="clipPath33485">
      <path
         d="m -252.1943,312.4049 h 596.276 v -595.276 h -596.276 z"
         id="path33487"
         style="stroke-width:0.999998" />
    </clipPath>
    <clipPath
       clipPathUnits="userSpaceOnUse"
       id="clipPath33491">
      <path
         d="m -303.7695,345.024 h 596.276 v -595.276 h -596.276 z"
         id="path33493"
         style="stroke-width:0.999998" />
    </clipPath>
    <clipPath
       clipPathUnits="userSpaceOnUse"
       id="clipPath33497">
      <path
         d="m -333.1436,329.61 h 596.276 v -595.276 h -596.276 z"
         id="path33499"
         style="stroke-width:0.999998" />
    </clipPath>
    <clipPath
       clipPathUnits="userSpaceOnUse"
       id="clipPath33503">
      <path
         d="m -335.6074,268.6354 h 596.276 v -595.276 h -596.276 z"
         id="path33505"
         style="stroke-width:0.999998" />
    </clipPath>
    <clipPath
       clipPathUnits="userSpaceOnUse"
       id="clipPath33509">
      <path
         d="m -307.5713,250.903 h 596.276 v -595.276 h -596.276 z"
         id="path33511"
         style="stroke-width:0.999998" />
    </clipPath>
    <clipPath
       clipPathUnits="userSpaceOnUse"
       id="clipPath33515">
      <path
         d="M -538.2217,577.9479 H 58.054299 V -17.328098 H -538.2217 Z"
         id="path33517"
         style="stroke-width:0.999998" />
    </clipPath>
    <clipPath
       clipPathUnits="userSpaceOnUse"
       id="clipPath33521">
      <path
         d="M -531.1924,581.5885 H 65.083599 V -13.6875 H -531.1924 Z"
         id="path33523"
         style="stroke-width:0.999998" />
    </clipPath>
  </defs>
  <sodipodi:namedview
     id="namedview32776"
     pagecolor="#ffffff"
     bordercolor="#000000"
     borderopacity="0.25"
     inkscape:showpageshadow="2"
     inkscape:pageopacity="0.0"
     inkscape:pagecheckerboard="0"
     inkscape:deskcolor="#d1d1d1"
     showgrid="false"
     inkscape:zoom="0.29734106"
     inkscape:cx="-215.24105"
     inkscape:cy="396.85068"
     inkscape:window-width="1419"
     inkscape:window-height="456"
     inkscape:window-x="0"
     inkscape:window-y="25"
     inkscape:window-maximized="0"
     inkscape:current-layer="svg32774">
    <inkscape:page
       x="0"
       y="0"
       id="page32780"
       width="795.03467"
       height="793.70135" />
  </sodipodi:namedview>
  <path
     d="M 451.083 396.852 C 451.083 426.803 426.802 451.084 396.85 451.084 C 366.897 451.084 342.615 426.803 342.615 396.852 C 342.615 366.899 366.897 342.617 396.85 342.617 C 426.802 342.617 451.083 366.899 451.083 396.852"
     style="fill:#000000;fill-opacity:1;fill-rule:nonzero;stroke:none"
     id="path32894" />
  <path
     d="M 410.095 334.537 L 465.978 71.6403 L 396.85 31.7298 L 327.725 71.6403 L 383.606 334.54 C 387.879 333.636 392.31 333.152 396.854 333.149 C 401.396 333.152 405.823 333.633 410.095 334.537"
     style="fill:#000000;fill-opacity:1;fill-rule:nonzero;stroke:none"
     id="path32898" />
  <path
     d="M 338.046 372.345 C 320.71 364.061 302.202 360.376 284.007 360.902 L 284.007 331.702 L 309.295 317.102 C 317.938 333.129 330.39 347.317 346.239 358.192 C 353.439 348.777 363.199 341.433 374.489 337.2 L 341.182 180.512 C 337.485 162.96 329.483 146.044 317.042 131.424 C 277.226 84.6377 207.018 78.9871 160.236 118.802 C 123.856 149.758 112.36 199.08 127.752 241.489 C 83.3306 249.363 46.3627 283.981 37.7441 330.962 C 26.6534 391.386 66.652 449.361 127.079 460.449 C 145.961 463.915 164.612 462.386 181.658 456.811 L 334.019 407.309 C 333.458 403.908 333.15 400.418 333.15 396.856 C 333.153 388.168 334.897 379.889 338.046 372.345"
     style="fill:#000000;fill-opacity:1;fill-rule:nonzero;stroke:none"
     id="path32902" />
  <path
     d="M 336.259 416.54 L 80.6423 499.592 L 80.6423 579.414 L 149.769 619.323 L 349.507 439.477 C 346.586 436.231 343.952 432.633 341.678 428.699 C 339.407 424.767 337.614 420.688 336.259 416.54"
     style="fill:#000000;fill-opacity:1;fill-rule:nonzero;stroke:none"
     id="path32906" />
  <path
     d="M 405.026 460.032 C 406.521 479.185 412.582 497.059 422.135 512.553 L 396.847 527.152 L 371.559 512.553 C 381.118 497.053 387.178 479.175 388.673 460.013 C 376.921 458.485 365.679 453.704 356.369 446.045 L 237.328 553.232 C 223.976 565.209 213.325 580.6 206.885 598.68 C 186.275 656.556 216.484 720.185 274.356 740.791 C 319.353 756.818 367.818 742.115 396.847 707.578 C 425.879 742.115 474.342 756.818 519.34 740.791 C 577.214 720.185 607.421 656.556 586.812 598.68 C 580.372 580.597 569.72 565.209 556.37 553.234 L 437.321 446.037 C 434.654 448.225 431.785 450.235 428.702 452.016 C 421.174 456.357 413.134 458.988 405.026 460.032"
     style="fill:#000000;fill-opacity:1;fill-rule:nonzero;stroke:none"
     id="path32910" />
  <path
     d="M 444.191 439.48 L 643.927 619.326 L 713.053 579.417 L 713.053 499.595 L 457.435 416.54 C 456.08 420.693 454.284 424.775 452.014 428.709 C 449.743 432.641 447.108 436.232 444.191 439.48"
     style="fill:#000000;fill-opacity:1;fill-rule:nonzero;stroke:none"
     id="path32914" />
  <path
     d="M 447.477 358.181 C 463.317 347.309 475.765 333.124 484.404 317.102 L 509.693 331.705 L 509.693 360.905 C 491.493 360.376 472.978 364.066 455.637 372.353 C 460.189 383.296 461.669 395.421 459.692 407.314 L 612.042 456.814 C 629.089 462.386 647.742 463.918 666.622 460.451 C 727.05 449.363 767.047 391.386 755.958 330.965 C 747.338 283.984 710.37 249.364 665.948 241.492 C 681.338 199.083 669.843 149.759 633.466 118.804 C 586.682 78.987 516.474 84.6404 476.658 131.427 C 464.216 146.044 456.216 162.963 452.518 180.513 L 419.209 337.212 C 422.437 338.426 425.613 339.905 428.697 341.686 C 436.221 346.033 442.516 351.681 447.477 358.181"
     style="fill:#000000;fill-opacity:1;fill-rule:nonzero;stroke:none"
     id="path32918" />
</svg>
