<?xml version="1.0" encoding="UTF-8" standalone="no"?>
<!-- Created with Inkscape (http://www.inkscape.org/) -->

<svg
   version="1.1"
   id="svg37070"
   width="793.70135"
   height="793.70135"
   viewBox="0 0 793.70135 793.70135"
   sodipodi:docname="Maruni Kagekatabami.svg"
   inkscape:version="1.2 (dc2aeda, 2022-05-15)"
   xmlns:inkscape="http://www.inkscape.org/namespaces/inkscape"
   xmlns:sodipodi="http://sodipodi.sourceforge.net/DTD/sodipodi-0.dtd"
   xmlns="http://www.w3.org/2000/svg"
   xmlns:svg="http://www.w3.org/2000/svg">
  <defs
     id="defs37074">
    <clipPath
       clipPathUnits="userSpaceOnUse"
       id="clipPath37661">
      <path
         d="M -550.2637,577.3248 H 45.012301 V -17.951198 H -550.2637 Z"
         id="path37663"
         style="stroke-width:0.999998" />
    </clipPath>
    <clipPath
       clipPathUnits="userSpaceOnUse"
       id="clipPath37667">
      <path
         d="M -556.4014,578.0143 H 38.874601 V -17.2617 H -556.4014 Z"
         id="path37669"
         style="stroke-width:0.999998" />
    </clipPath>
    <clipPath
       clipPathUnits="userSpaceOnUse"
       id="clipPath37673">
      <path
         d="M -557.4951,577.8502 H 37.780898 V -17.4258 H -557.4951 Z"
         id="path37675"
         style="stroke-width:0.999998" />
    </clipPath>
    <clipPath
       clipPathUnits="userSpaceOnUse"
       id="clipPath37679">
      <path
         d="M -584.1943,578.9381 H 11.0817 V -16.337903 h -595.276 z"
         id="path37681"
         style="stroke-width:0.999998" />
    </clipPath>
    <clipPath
       clipPathUnits="userSpaceOnUse"
       id="clipPath37686">
      <path
         d="M -586.5449,579.5026 H 8.7310952 V -15.7734 H -586.5449 Z"
         id="path37688"
         style="stroke-width:0.999998" />
    </clipPath>
    <clipPath
       clipPathUnits="userSpaceOnUse"
       id="clipPath37692">
      <path
         d="M -568.2266,575.819 H 27.049396 V -19.457003 H -568.2266 Z"
         id="path37694"
         style="stroke-width:0.999998" />
    </clipPath>
    <clipPath
       clipPathUnits="userSpaceOnUse"
       id="clipPath37698">
      <path
         d="M -576.3691,585.5885 H 18.9069 V -9.6875027 h -595.276 z"
         id="path37700"
         style="stroke-width:0.999998" />
    </clipPath>
    <clipPath
       clipPathUnits="userSpaceOnUse"
       id="clipPath37704">
      <path
         d="M -528.0898,575.3815 H 67.186194 V -19.8945 H -528.0898 Z"
         id="path37706"
         style="stroke-width:0.999998" />
    </clipPath>
    <clipPath
       clipPathUnits="userSpaceOnUse"
       id="clipPath37710">
      <path
         d="M -540.8213,585.8483 H 54.454696 V -9.4277027 H -540.8213 Z"
         id="path37712"
         style="stroke-width:0.999998" />
    </clipPath>
    <clipPath
       clipPathUnits="userSpaceOnUse"
       id="clipPath37716">
      <path
         d="M -531.1924,581.5885 H 64.083594 V -13.6875 H -531.1924 Z"
         id="path37718"
         style="stroke-width:0.999998" />
    </clipPath>
    <clipPath
       clipPathUnits="userSpaceOnUse"
       id="clipPath37722">
      <path
         d="M -548.9834,585.8522 H 46.292596 V -9.4238027 H -548.9834 Z"
         id="path37724"
         style="stroke-width:0.999998" />
    </clipPath>
    <clipPath
       clipPathUnits="userSpaceOnUse"
       id="clipPath37728">
      <path
         d="M -553.8975,585.8483 H 41.378499 V -9.4277027 H -553.8975 Z"
         id="path37730"
         style="stroke-width:0.999998" />
    </clipPath>
    <clipPath
       clipPathUnits="userSpaceOnUse"
       id="clipPath37734">
      <path
         d="M -542.9326,584.5729 H 52.343394 V -10.7031 H -542.9326 Z"
         id="path37736"
         style="stroke-width:0.999998" />
    </clipPath>
    <clipPath
       clipPathUnits="userSpaceOnUse"
       id="clipPath37740">
      <path
         d="M -536.6982,584.5729 H 58.577799 V -10.7031 H -536.6982 Z"
         id="path37742"
         style="stroke-width:0.999998" />
    </clipPath>
    <clipPath
       clipPathUnits="userSpaceOnUse"
       id="clipPath37746">
      <path
         d="M -545.417,584.5729 H 49.858996 V -10.7031 H -545.417 Z"
         id="path37748"
         style="stroke-width:0.999998" />
    </clipPath>
    <clipPath
       clipPathUnits="userSpaceOnUse"
       id="clipPath37752">
      <path
         d="M -557.0645,585.8483 H 38.211496 V -9.4277027 H -557.0645 Z"
         id="path37754"
         style="stroke-width:0.999998" />
    </clipPath>
    <clipPath
       clipPathUnits="userSpaceOnUse"
       id="clipPath37758">
      <path
         d="M -538.2217,577.9479 H 57.054294 V -17.328098 H -538.2217 Z"
         id="path37760"
         style="stroke-width:0.999998" />
    </clipPath>
    <clipPath
       clipPathUnits="userSpaceOnUse"
       id="clipPath37764">
      <path
         d="m -297.6494,322.0924 h 595.27599 v -595.276 H -297.6494 Z"
         id="path37766"
         style="stroke-width:0.999998" />
    </clipPath>
    <clipPath
       clipPathUnits="userSpaceOnUse"
       id="clipPath37770">
      <path
         d="m -233.457,285.7521 h 595.276 v -595.276 h -595.276 z"
         id="path37772"
         style="stroke-width:0.999998" />
    </clipPath>
    <clipPath
       clipPathUnits="userSpaceOnUse"
       id="clipPath37776">
      <path
         d="m -140.5859,140.5948 h 595.276 v -595.276 h -595.276 z"
         id="path37778"
         style="stroke-width:0.999998" />
    </clipPath>
    <clipPath
       clipPathUnits="userSpaceOnUse"
       id="clipPath37782">
      <path
         d="m -319.4453,359.1783 h 595.27599 v -595.276 H -319.4453 Z"
         id="path37784"
         style="stroke-width:0.999998" />
    </clipPath>
    <clipPath
       clipPathUnits="userSpaceOnUse"
       id="clipPath37788">
      <path
         d="m -329.7891,321.277 h 595.276 v -595.276 h -595.276 z"
         id="path37790"
         style="stroke-width:0.999998" />
    </clipPath>
    <clipPath
       clipPathUnits="userSpaceOnUse"
       id="clipPath37794">
      <path
         d="m -261.1064,313.6588 h 595.276 v -595.276 h -595.276 z"
         id="path37796"
         style="stroke-width:0.999998" />
    </clipPath>
    <clipPath
       clipPathUnits="userSpaceOnUse"
       id="clipPath37800">
      <path
         d="m -340.0459,247.9938 h 595.276 v -595.276 h -595.276 z"
         id="path37802"
         style="stroke-width:0.999998" />
    </clipPath>
    <clipPath
       clipPathUnits="userSpaceOnUse"
       id="clipPath37806">
      <path
         d="m -302.0479,257.9889 h 595.276 v -595.276 h -595.276 z"
         id="path37808"
         style="stroke-width:0.999998" />
    </clipPath>
    <clipPath
       clipPathUnits="userSpaceOnUse"
       id="clipPath37813">
      <path
         d="M -567.7754,585.8522 H 27.500596 V -9.4238027 H -567.7754 Z"
         id="path37815"
         style="stroke-width:0.999998" />
    </clipPath>
    <clipPath
       clipPathUnits="userSpaceOnUse"
       id="clipPath37819">
      <path
         d="M -572.8174,586.1354 H 22.458601 V -9.1406027 H -572.8174 Z"
         id="path37821"
         style="stroke-width:0.999998" />
    </clipPath>
    <clipPath
       clipPathUnits="userSpaceOnUse"
       id="clipPath37825">
      <path
         d="M -564.5732,585.8483 H 30.702796 V -9.4277027 H -564.5732 Z"
         id="path37827"
         style="stroke-width:0.999998" />
    </clipPath>
    <clipPath
       clipPathUnits="userSpaceOnUse"
       id="clipPath37831">
      <path
         d="M -561.4131,585.8522 H 33.862898 V -9.4238027 H -561.4131 Z"
         id="path37833"
         style="stroke-width:0.999998" />
    </clipPath>
    <clipPath
       clipPathUnits="userSpaceOnUse"
       id="clipPath37837">
      <path
         d="M -574.5459,585.8522 H 20.730098 V -9.4238027 H -574.5459 Z"
         id="path37839"
         style="stroke-width:0.999998" />
    </clipPath>
  </defs>
  <sodipodi:namedview
     id="namedview37072"
     pagecolor="#ffffff"
     bordercolor="#000000"
     borderopacity="0.25"
     inkscape:showpageshadow="2"
     inkscape:pageopacity="0.0"
     inkscape:pagecheckerboard="0"
     inkscape:deskcolor="#d1d1d1"
     showgrid="false"
     inkscape:zoom="0.29734106"
     inkscape:cx="-215.24105"
     inkscape:cy="396.85068"
     inkscape:window-width="1419"
     inkscape:window-height="456"
     inkscape:window-x="0"
     inkscape:window-y="25"
     inkscape:window-maximized="0"
     inkscape:current-layer="svg37070">
    <inkscape:page
       x="0"
       y="0"
       id="page37076"
       width="793.70135"
       height="793.70135" />
  </sodipodi:namedview>
  <path
     d="M 396.866 429.457 C 378.855 429.457 364.271 414.86 364.271 396.856 C 364.271 378.85 378.855 364.256 396.866 364.256 C 414.873 364.256 429.465 378.85 429.465 396.856 C 429.465 414.86 414.873 429.457 396.866 429.457 M 396.866 350.131 C 371.051 350.131 350.149 371.045 350.138 396.852 C 350.149 422.665 371.051 443.568 396.866 443.578 C 422.671 443.568 443.585 422.665 443.585 396.852 C 443.585 371.045 422.671 350.131 396.866 350.131"
     style="fill:#000000;fill-opacity:1;fill-rule:nonzero;stroke:none"
     id="path37190" />
  <path
     d="M 402.731 343.985 C 402.98 337.334 403.39 330.458 404.132 327.961 C 407.252 317.542 412.982 310.332 412.982 310.332 L 396.28 293.505 L 379.588 310.332 C 379.588 310.332 385.311 317.542 388.436 327.961 C 389.191 330.488 389.903 337.409 390.474 344.121 C 392.566 343.869 394.7 343.722 396.867 343.722 C 398.844 343.722 400.806 343.769 402.731 343.985"
     style="fill:#000000;fill-opacity:1;fill-rule:nonzero;stroke:none"
     id="path37194" />
  <path
     d="M 453.395 330.658 C 441.23 337.486 431.15 344.327 422.931 350.571 C 429.399 354.214 434.951 359.142 439.37 365.055 C 446.247 360.009 454.288 354.659 463.827 349.307 C 489.192 335.095 502.722 330.703 512.563 324.81 C 540.124 308.273 559.141 278.114 560.661 243.254 L 560.756 243.154 L 560.756 238.728 C 560.756 183.717 517.295 139.252 463.71 139.12 C 437.823 139.12 414.282 149.505 396.898 166.44 L 396.898 166.445 C 379.506 149.513 355.979 139.12 330.121 139.12 C 276.59 139.252 233.176 183.582 233.041 238.477 C 233.041 238.565 233.03 238.66 233.03 238.752 C 233.041 275.498 252.48 307.554 281.334 324.858 C 291.079 330.703 304.615 335.095 329.977 349.307 C 339.467 354.629 347.497 359.969 354.349 364.985 C 358.747 359.125 364.323 354.193 370.739 350.563 C 362.539 344.345 352.526 337.462 340.415 330.667 C 314.221 316.029 298.161 310.27 292.415 306.595 C 269.777 293.003 254.394 267.85 254.399 238.752 L 254.399 238.738 C 254.439 195.109 288.739 160.533 330.138 160.49 C 350.23 160.508 368.291 168.464 382.002 181.764 L 396.887 196.256 L 411.795 181.764 C 425.496 168.464 443.575 160.508 463.69 160.49 C 505.066 160.533 539.355 195.109 539.385 238.738 L 539.385 238.752 C 539.385 267.85 524.003 293.011 501.471 306.547 C 495.639 310.27 479.586 316.029 453.395 330.658"
     style="fill:#000000;fill-opacity:1;fill-rule:nonzero;stroke:none"
     id="path37198" />
  <path
     d="M 348.142 418.212 C 342.258 421.323 336.109 424.408 333.567 425.008 C 322.983 427.513 313.877 426.161 313.877 426.161 L 307.657 449.029 L 330.573 455.077 C 330.573 455.077 333.957 446.517 341.417 438.597 C 343.225 436.685 348.865 432.603 354.394 428.755 C 353.123 427.072 351.937 425.296 350.849 423.424 C 349.857 421.707 348.919 419.984 348.142 418.212"
     style="fill:#000000;fill-opacity:1;fill-rule:nonzero;stroke:none"
     id="path37202" />
  <path
     d="M 311.276 381.003 C 323.264 388.119 334.233 393.426 343.745 397.423 C 343.66 389.995 345.167 382.73 348.068 375.942 C 340.264 372.508 331.607 368.223 322.203 362.635 C 297.215 347.778 286.647 338.258 276.628 332.686 C 248.52 317.08 212.894 315.69 181.946 331.802 L 181.804 331.77 L 177.978 333.983 C 130.335 361.486 113.56 421.36 140.24 467.836 C 153.175 490.251 173.947 505.443 197.296 512.031 L 197.306 512.031 C 191.34 535.557 194.106 561.131 207.03 583.529 C 233.91 629.817 294.009 645.254 341.621 617.916 C 341.697 617.874 341.772 617.833 341.859 617.786 C 373.68 599.408 391.725 566.543 392.278 532.901 C 392.469 521.545 389.504 507.621 389.137 478.563 C 388.997 467.679 389.6 458.056 390.518 449.611 C 383.246 448.729 376.193 446.367 369.837 442.627 C 368.555 452.836 367.6 464.947 367.773 478.839 C 368.193 508.84 371.233 525.625 370.919 532.445 C 370.467 558.836 356.379 584.737 331.176 599.28 L 331.16 599.29 C 293.361 621.074 246.267 608.657 225.527 572.827 C 215.502 555.419 213.356 535.789 218.024 517.277 L 223.123 497.131 L 203.128 491.467 C 184.754 486.252 168.826 474.572 158.754 457.168 C 138.104 421.311 150.902 374.331 188.667 352.486 L 188.683 352.478 C 213.884 337.927 243.366 338.675 266.356 351.419 C 272.488 354.608 285.508 365.634 311.276 381.003"
     style="fill:#000000;fill-opacity:1;fill-rule:nonzero;stroke:none"
     id="path37206" />
  <path
     d="M 439.719 428.369 C 445.352 431.913 451.102 435.694 452.899 437.596 C 460.351 445.508 463.742 454.07 463.742 454.07 L 486.66 448.032 L 480.434 425.154 C 480.434 425.154 471.33 426.508 460.746 424.005 C 458.179 423.393 451.819 420.552 445.73 417.684 C 444.9 419.624 443.963 421.544 442.883 423.424 C 441.894 425.138 440.868 426.812 439.719 428.369"
     style="fill:#000000;fill-opacity:1;fill-rule:nonzero;stroke:none"
     id="path37210" />
  <path
     d="M 425.927 478.904 C 426.095 464.964 425.211 452.811 423.91 442.572 C 417.524 446.359 410.482 448.693 403.15 449.565 C 404.082 458.044 404.691 467.687 404.563 478.623 C 404.184 507.693 401.228 521.599 401.403 533.072 C 401.951 565.216 418.559 596.756 447.994 615.502 L 448.024 615.642 L 451.863 617.853 C 499.499 645.362 559.744 629.958 586.649 583.605 C 599.596 561.196 602.365 535.608 596.389 512.099 L 596.389 512.088 C 619.747 505.491 640.512 490.315 653.437 467.92 C 680.09 421.493 663.408 361.731 615.937 334.174 C 615.86 334.122 615.775 334.074 615.705 334.023 C 583.868 315.659 546.395 316.463 516.981 332.802 C 507.043 338.319 496.467 347.846 471.487 362.695 C 462.136 368.259 453.492 372.544 445.724 375.971 C 448.598 382.71 450.083 390.006 450.019 397.371 C 459.506 393.382 470.468 388.151 482.411 381.058 C 508.184 365.691 521.201 354.67 527.259 351.524 C 550.344 338.723 579.825 337.976 605.017 352.53 L 605.028 352.539 C 642.789 374.382 655.588 421.373 634.93 457.245 C 624.861 474.64 608.941 486.307 590.572 491.525 L 570.576 497.176 L 575.676 517.332 C 580.337 535.851 578.185 555.482 568.149 572.913 C 547.428 608.722 500.333 621.118 462.54 599.345 L 462.524 599.345 C 437.322 584.792 423.223 558.876 422.768 532.595 C 422.466 525.691 425.502 508.905 425.927 478.904"
     style="fill:#000000;fill-opacity:1;fill-rule:nonzero;stroke:none"
     id="path37214" />
  <path
     d="M 187.448 187.46 C 133.799 241.16 100.723 314.973 100.711 396.855 C 100.723 478.738 133.799 552.551 187.448 606.254 C 241.151 659.891 314.964 692.961 396.85 692.985 C 478.718 692.961 552.548 659.891 606.247 606.254 C 659.888 552.551 692.96 478.738 692.971 396.855 C 692.96 314.973 659.888 241.16 606.247 187.46 C 552.548 133.817 478.718 100.735 396.85 100.723 C 314.964 100.735 241.151 133.817 187.448 187.46 M 31.7177 396.855 C 31.7391 195.187 195.179 31.7511 396.85 31.7297 C 598.506 31.7511 761.943 195.187 761.964 396.855 C 761.943 598.514 598.506 761.951 396.85 761.973 C 195.179 761.951 31.7391 598.514 31.7177 396.855"
     style="fill:#000000;fill-opacity:1;fill-rule:nonzero;stroke:none"
     id="path37218" />
</svg>
