<?xml version="1.0" encoding="UTF-8" standalone="no"?>
<!-- Created with Inkscape (http://www.inkscape.org/) -->

<svg
   version="1.1"
   id="svg33772"
   width="795.03467"
   height="793.70135"
   viewBox="0 0 795.03467 793.70135"
   sodipodi:docname="Urokogata Ken Katabami.svg"
   inkscape:version="1.2 (dc2aeda, 2022-05-15)"
   xmlns:inkscape="http://www.inkscape.org/namespaces/inkscape"
   xmlns:sodipodi="http://sodipodi.sourceforge.net/DTD/sodipodi-0.dtd"
   xmlns="http://www.w3.org/2000/svg"
   xmlns:svg="http://www.w3.org/2000/svg">
  <defs
     id="defs33776">
    <clipPath
       clipPathUnits="userSpaceOnUse"
       id="clipPath34349">
      <path
         d="M -576.3691,585.5885 H 19.906905 V -9.6875027 H -576.3691 Z"
         id="path34351"
         style="stroke-width:0.999998" />
    </clipPath>
    <clipPath
       clipPathUnits="userSpaceOnUse"
       id="clipPath34355">
      <path
         d="M -574.5459,585.8522 H 21.730103 V -9.4238027 H -574.5459 Z"
         id="path34357"
         style="stroke-width:0.999998" />
    </clipPath>
    <clipPath
       clipPathUnits="userSpaceOnUse"
       id="clipPath34361">
      <path
         d="M -567.7754,585.8522 H 28.500601 V -9.4238027 H -567.7754 Z"
         id="path34363"
         style="stroke-width:0.999998" />
    </clipPath>
    <clipPath
       clipPathUnits="userSpaceOnUse"
       id="clipPath34367">
      <path
         d="M -561.4131,585.8522 H 34.862903 V -9.4238027 H -561.4131 Z"
         id="path34369"
         style="stroke-width:0.999998" />
    </clipPath>
    <clipPath
       clipPathUnits="userSpaceOnUse"
       id="clipPath34373">
      <path
         d="M -557.0645,585.8483 H 39.211501 V -9.4277027 H -557.0645 Z"
         id="path34375"
         style="stroke-width:0.999998" />
    </clipPath>
    <clipPath
       clipPathUnits="userSpaceOnUse"
       id="clipPath34379">
      <path
         d="M -553.8975,585.8483 H 42.378504 V -9.4277027 H -553.8975 Z"
         id="path34381"
         style="stroke-width:0.999998" />
    </clipPath>
    <clipPath
       clipPathUnits="userSpaceOnUse"
       id="clipPath34385">
      <path
         d="M -548.9834,585.8522 H 47.292601 V -9.4238027 H -548.9834 Z"
         id="path34387"
         style="stroke-width:0.999998" />
    </clipPath>
    <clipPath
       clipPathUnits="userSpaceOnUse"
       id="clipPath34391">
      <path
         d="M -545.417,584.5729 H 50.859001 V -10.7031 H -545.417 Z"
         id="path34393"
         style="stroke-width:0.999998" />
    </clipPath>
    <clipPath
       clipPathUnits="userSpaceOnUse"
       id="clipPath34397">
      <path
         d="M -542.9326,584.5729 H 53.343399 V -10.7031 H -542.9326 Z"
         id="path34399"
         style="stroke-width:0.999998" />
    </clipPath>
    <clipPath
       clipPathUnits="userSpaceOnUse"
       id="clipPath34403">
      <path
         d="M -564.5732,585.8483 H 31.702801 V -9.4277027 H -564.5732 Z"
         id="path34405"
         style="stroke-width:0.999998" />
    </clipPath>
    <clipPath
       clipPathUnits="userSpaceOnUse"
       id="clipPath34409">
      <path
         d="M -528.0898,575.3815 H 68.186199 V -19.8945 H -528.0898 Z"
         id="path34411"
         style="stroke-width:0.999998" />
    </clipPath>
    <clipPath
       clipPathUnits="userSpaceOnUse"
       id="clipPath34415">
      <path
         d="M -536.6982,584.5729 H 59.577804 V -10.7031 H -536.6982 Z"
         id="path34417"
         style="stroke-width:0.999998" />
    </clipPath>
    <clipPath
       clipPathUnits="userSpaceOnUse"
       id="clipPath34421">
      <path
         d="M -531.1924,581.5885 H 65.083599 V -13.6875 H -531.1924 Z"
         id="path34423"
         style="stroke-width:0.999998" />
    </clipPath>
    <clipPath
       clipPathUnits="userSpaceOnUse"
       id="clipPath34428">
      <path
         d="M -540.8213,585.8483 H 55.454701 V -9.4277027 H -540.8213 Z"
         id="path34430"
         style="stroke-width:0.999998" />
    </clipPath>
    <clipPath
       clipPathUnits="userSpaceOnUse"
       id="clipPath34434">
      <path
         d="M -557.4951,577.8502 H 38.780903 V -17.4258 H -557.4951 Z"
         id="path34436"
         style="stroke-width:0.999998" />
    </clipPath>
    <clipPath
       clipPathUnits="userSpaceOnUse"
       id="clipPath34440">
      <path
         d="M -568.2266,575.819 H 28.049401 V -19.457003 H -568.2266 Z"
         id="path34442"
         style="stroke-width:0.999998" />
    </clipPath>
    <clipPath
       clipPathUnits="userSpaceOnUse"
       id="clipPath34446">
      <path
         d="M -550.2637,577.3248 H 46.012306 V -17.951198 H -550.2637 Z"
         id="path34448"
         style="stroke-width:0.999998" />
    </clipPath>
    <clipPath
       clipPathUnits="userSpaceOnUse"
       id="clipPath34453">
      <path
         d="M -556.4014,578.0143 H 39.874606 V -17.2617 H -556.4014 Z"
         id="path34455"
         style="stroke-width:0.999998" />
    </clipPath>
    <clipPath
       clipPathUnits="userSpaceOnUse"
       id="clipPath34459">
      <path
         d="M -586.5449,579.5026 H 9.7311002 V -15.7734 H -586.5449 Z"
         id="path34461"
         style="stroke-width:0.999998" />
    </clipPath>
    <clipPath
       clipPathUnits="userSpaceOnUse"
       id="clipPath34465">
      <path
         d="M -584.1943,578.9381 H 12.081705 V -16.337903 H -584.1943 Z"
         id="path34467"
         style="stroke-width:0.999998" />
    </clipPath>
    <clipPath
       clipPathUnits="userSpaceOnUse"
       id="clipPath34471">
      <path
         d="M -538.2217,577.9479 H 58.054299 V -17.328098 H -538.2217 Z"
         id="path34473"
         style="stroke-width:0.999998" />
    </clipPath>
    <clipPath
       clipPathUnits="userSpaceOnUse"
       id="clipPath34477">
      <path
         d="m -326.0117,366.0983 h 596.276 v -595.276 h -596.276 z"
         id="path34479"
         style="stroke-width:0.999998" />
    </clipPath>
    <clipPath
       clipPathUnits="userSpaceOnUse"
       id="clipPath34483">
      <path
         d="m -228.4619,212.0753 h 596.276 v -595.276 h -596.276 z"
         id="path34485"
         style="stroke-width:0.999998" />
    </clipPath>
    <clipPath
       clipPathUnits="userSpaceOnUse"
       id="clipPath34489">
      <path
         d="m -245.7236,345.3639 h 596.276 v -595.276 h -596.276 z"
         id="path34491"
         style="stroke-width:0.999998" />
    </clipPath>
    <clipPath
       clipPathUnits="userSpaceOnUse"
       id="clipPath34495">
      <path
         d="m -198.8389,503.0221 h 596.276 V -92.253902 h -596.276 z"
         id="path34497"
         style="stroke-width:0.999998" />
    </clipPath>
    <clipPath
       clipPathUnits="userSpaceOnUse"
       id="clipPath34501">
      <path
         d="m -305.6396,421.4264 h 596.276 v -595.276 h -596.276 z"
         id="path34503"
         style="stroke-width:0.999998" />
    </clipPath>
    <clipPath
       clipPathUnits="userSpaceOnUse"
       id="clipPath34507">
      <path
         d="m -465.6162,383.2037 h 596.27601 v -595.276 H -465.6162 Z"
         id="path34509"
         style="stroke-width:0.999998" />
    </clipPath>
    <clipPath
       clipPathUnits="userSpaceOnUse"
       id="clipPath34513">
      <path
         d="m -341.5518,331.5065 h 596.276 v -595.276 h -596.276 z"
         id="path34515"
         style="stroke-width:0.999998" />
    </clipPath>
    <clipPath
       clipPathUnits="userSpaceOnUse"
       id="clipPath34519">
      <path
         d="M -572.8174,586.1354 H 23.458606 V -9.1406027 H -572.8174 Z"
         id="path34521"
         style="stroke-width:0.999998" />
    </clipPath>
  </defs>
  <sodipodi:namedview
     id="namedview33774"
     pagecolor="#ffffff"
     bordercolor="#000000"
     borderopacity="0.25"
     inkscape:showpageshadow="2"
     inkscape:pageopacity="0.0"
     inkscape:pagecheckerboard="0"
     inkscape:deskcolor="#d1d1d1"
     showgrid="false"
     inkscape:zoom="0.29734106"
     inkscape:cx="-215.24105"
     inkscape:cy="396.85068"
     inkscape:window-width="1419"
     inkscape:window-height="456"
     inkscape:window-x="0"
     inkscape:window-y="25"
     inkscape:window-maximized="0"
     inkscape:current-layer="svg33772">
    <inkscape:page
       x="0"
       y="0"
       id="page33778"
       width="795.03467"
       height="793.70135" />
  </sodipodi:namedview>
  <path
     d="M 434.682 488.131 C 434.682 509.027 417.745 525.964 396.851 525.964 C 375.957 525.964 359.02 509.027 359.02 488.131 C 359.02 467.238 375.957 450.3 396.851 450.3 C 417.745 450.3 434.682 467.238 434.682 488.131"
     style="fill:#000000;fill-opacity:1;fill-rule:nonzero;stroke:none"
     id="path33892" />
  <path
     d="M 304.616 282.767 C 354.957 317.878 388.121 375.887 389.037 441.701 C 394.162 440.833 399.445 440.819 404.665 441.696 C 405.582 375.884 438.746 317.876 489.088 282.767 L 396.85 123.01 Z"
     style="fill:#000000;fill-opacity:1;fill-rule:nonzero;stroke:none"
     id="path33896" />
  <path
     d="M 327.631 460.485 L 327.634 448.168 L 338.299 442.009 C 343.628 449.373 350.31 455.906 358.223 461.228 C 363.73 453.305 371.322 447.537 379.819 444.245 C 379.774 412.8 371.98 383.14 358.298 357.133 C 356.62 353.952 354.6 350.892 352.235 348.001 C 333.226 324.804 299.008 321.408 275.811 340.417 C 254.262 358.075 249.814 388.853 264.53 411.734 C 237.355 410.43 212.925 429.67 208.407 457.162 C 203.545 486.756 223.595 514.693 253.189 519.558 C 256.874 520.162 260.535 520.381 264.128 520.24 C 293.488 519.086 323.072 511.009 350.326 495.324 C 348.928 486.318 350.128 476.862 354.239 468.13 C 345.675 463.936 336.675 461.417 327.631 460.485"
     style="fill:#000000;fill-opacity:1;fill-rule:nonzero;stroke:none"
     id="path33900" />
  <path
     d="M 265.119 670.696 C 270.356 609.543 304.011 551.816 360.548 518.115 C 357.237 514.111 354.583 509.546 352.731 504.584 C 295.278 536.696 228.46 536.98 172.882 510.939 L 80.6475 670.696 Z"
     style="fill:#000000;fill-opacity:1;fill-rule:nonzero;stroke:none"
     id="path33904" />
  <path
     d="M 407.519 561.902 L 396.851 568.061 L 386.186 561.902 C 389.896 553.602 392.215 544.55 392.867 535.038 C 383.251 534.23 374.462 530.541 367.363 524.826 C 340.153 540.59 318.361 562.17 302.681 587.022 C 300.765 590.063 299.123 593.345 297.803 596.837 C 287.219 624.897 301.386 656.23 329.446 666.816 C 355.514 676.65 384.394 665.11 396.85 640.926 C 409.308 665.11 438.187 676.65 464.255 666.816 C 492.315 656.23 506.483 624.897 495.895 596.837 C 494.577 593.345 492.936 590.063 491.02 587.022 C 475.339 562.17 453.551 540.59 426.342 524.829 C 419.243 530.542 410.452 534.23 400.835 535.038 C 401.487 544.55 403.804 553.602 407.519 561.902"
     style="fill:#000000;fill-opacity:1;fill-rule:nonzero;stroke:none"
     id="path33908" />
  <path
     d="M 620.822 510.938 C 565.242 536.977 498.424 536.695 440.97 504.581 C 439.157 509.454 436.53 514.034 433.161 518.115 C 489.694 551.815 523.349 609.542 528.584 670.695 L 713.059 670.692 Z"
     style="fill:#000000;fill-opacity:1;fill-rule:nonzero;stroke:none"
     id="path33912" />
  <path
     d="M 455.402 442.009 L 466.07 448.168 L 466.07 460.485 C 457.026 461.418 448.03 463.936 439.465 468.132 C 443.573 476.861 444.773 486.318 443.374 495.324 C 470.629 511.009 500.214 519.09 529.578 520.243 C 533.17 520.383 536.828 520.162 540.515 519.561 C 570.108 514.697 590.159 486.76 585.296 457.165 C 580.778 429.673 556.348 410.43 529.174 411.738 C 543.89 388.854 539.44 358.077 517.893 340.419 C 494.695 321.411 460.478 324.805 441.471 348.005 C 439.103 350.893 437.083 353.953 435.406 357.135 C 421.725 383.14 413.93 412.801 413.886 444.244 C 422.383 447.536 429.974 453.304 435.481 461.23 C 443.394 455.908 450.074 449.373 455.402 442.009"
     style="fill:#000000;fill-opacity:1;fill-rule:nonzero;stroke:none"
     id="path33916" />
</svg>
