<?xml version="1.0" encoding="UTF-8" standalone="no"?>
<!-- Created with Inkscape (http://www.inkscape.org/) -->

<svg
   sodipodi:docname="U.svg"
   viewBox="0 0 795.03467 793.70135"
   height="793.70135"
   width="795.03467"
   id="svg4771"
   version="1.1"
   inkscape:version="1.2 (dc2aeda, 2022-05-15)"
   xmlns:inkscape="http://www.inkscape.org/namespaces/inkscape"
   xmlns:sodipodi="http://sodipodi.sourceforge.net/DTD/sodipodi-0.dtd"
   xmlns="http://www.w3.org/2000/svg"
   xmlns:svg="http://www.w3.org/2000/svg">
  <defs
     id="defs4775">
    <clipPath
       clipPathUnits="userSpaceOnUse"
       id="clipPath5180">
      <path
         d="M -538.2217,577.9479 H 58.054302 V -17.3281 H -538.2217 Z"
         id="path5182"
         style="stroke-width:0.999998" />
    </clipPath>
    <clipPath
       clipPathUnits="userSpaceOnUse"
       id="clipPath5184">
      <path
         d="M -584.1943,578.9381 H 12.081702 V -16.3379 H -584.1943 Z"
         id="path5186"
         style="stroke-width:0.999998" />
    </clipPath>
    <clipPath
       clipPathUnits="userSpaceOnUse"
       id="clipPath5188">
      <path
         d="M -586.5449,579.5026 H 9.7311024 V -15.7734 H -586.5449 Z"
         id="path5190"
         style="stroke-width:0.999998" />
    </clipPath>
    <clipPath
       clipPathUnits="userSpaceOnUse"
       id="clipPath5192">
      <path
         d="M -556.4014,578.0143 H 39.874602 V -17.2617 H -556.4014 Z"
         id="path5194"
         style="stroke-width:0.999998" />
    </clipPath>
    <clipPath
       clipPathUnits="userSpaceOnUse"
       id="clipPath5196">
      <path
         d="M -550.2637,577.3248 H 46.012302 V -17.9512 H -550.2637 Z"
         id="path5198"
         style="stroke-width:0.999998" />
    </clipPath>
    <clipPath
       clipPathUnits="userSpaceOnUse"
       id="clipPath5200">
      <path
         d="M -568.2266,575.819 H 28.049402 V -19.457 H -568.2266 Z"
         id="path5202"
         style="stroke-width:0.999998" />
    </clipPath>
    <clipPath
       clipPathUnits="userSpaceOnUse"
       id="clipPath5204">
      <path
         d="M -557.4951,577.8502 H 38.780902 V -17.4258 H -557.4951 Z"
         id="path5206"
         style="stroke-width:0.999998" />
    </clipPath>
    <clipPath
       clipPathUnits="userSpaceOnUse"
       id="clipPath5208">
      <path
         d="M -576.3691,585.5885 H 19.906902 V -9.6875 H -576.3691 Z"
         id="path5210"
         style="stroke-width:0.999998" />
    </clipPath>
    <clipPath
       clipPathUnits="userSpaceOnUse"
       id="clipPath5212">
      <path
         d="M -574.5459,585.8522 H 21.730102 V -9.4238 H -574.5459 Z"
         id="path5214"
         style="stroke-width:0.999998" />
    </clipPath>
    <clipPath
       clipPathUnits="userSpaceOnUse"
       id="clipPath5216">
      <path
         d="M -572.8174,586.1354 H 23.458602 V -9.1406 H -572.8174 Z"
         id="path5218"
         style="stroke-width:0.999998" />
    </clipPath>
    <clipPath
       clipPathUnits="userSpaceOnUse"
       id="clipPath5220">
      <path
         d="M -567.7754,585.8522 H 28.500602 V -9.4238 H -567.7754 Z"
         id="path5222"
         style="stroke-width:0.999998" />
    </clipPath>
    <clipPath
       clipPathUnits="userSpaceOnUse"
       id="clipPath5224">
      <path
         d="M -564.5732,585.8483 H 31.702802 V -9.4277 H -564.5732 Z"
         id="path5226"
         style="stroke-width:0.999998" />
    </clipPath>
    <clipPath
       clipPathUnits="userSpaceOnUse"
       id="clipPath5228">
      <path
         d="M -561.4131,585.8522 H 34.862902 V -9.4238 H -561.4131 Z"
         id="path5230"
         style="stroke-width:0.999998" />
    </clipPath>
    <clipPath
       clipPathUnits="userSpaceOnUse"
       id="clipPath5232">
      <path
         d="M -557.0645,585.8483 H 39.211502 V -9.4277 H -557.0645 Z"
         id="path5234"
         style="stroke-width:0.999998" />
    </clipPath>
    <clipPath
       clipPathUnits="userSpaceOnUse"
       id="clipPath5236">
      <path
         d="M -553.8975,585.8483 H 42.378502 V -9.4277 H -553.8975 Z"
         id="path5238"
         style="stroke-width:0.999998" />
    </clipPath>
    <clipPath
       clipPathUnits="userSpaceOnUse"
       id="clipPath5240">
      <path
         d="M -548.9834,585.8522 H 47.292602 V -9.4238 H -548.9834 Z"
         id="path5242"
         style="stroke-width:0.999998" />
    </clipPath>
    <clipPath
       clipPathUnits="userSpaceOnUse"
       id="clipPath5244">
      <path
         d="M -545.417,584.5729 H 50.859002 V -10.7031 H -545.417 Z"
         id="path5246"
         style="stroke-width:0.999998" />
    </clipPath>
    <clipPath
       clipPathUnits="userSpaceOnUse"
       id="clipPath5248">
      <path
         d="M -542.9326,584.5729 H 53.343402 V -10.7031 H -542.9326 Z"
         id="path5250"
         style="stroke-width:0.999998" />
    </clipPath>
    <clipPath
       clipPathUnits="userSpaceOnUse"
       id="clipPath5252">
      <path
         d="M -540.8213,585.8483 H 55.454702 V -9.4277 H -540.8213 Z"
         id="path5254"
         style="stroke-width:0.999998" />
    </clipPath>
    <clipPath
       clipPathUnits="userSpaceOnUse"
       id="clipPath5256">
      <path
         d="M -536.6982,584.5729 H 59.577802 V -10.7031 H -536.6982 Z"
         id="path5258"
         style="stroke-width:0.999998" />
    </clipPath>
    <clipPath
       clipPathUnits="userSpaceOnUse"
       id="clipPath5260">
      <path
         d="M -528.0898,575.3815 H 68.186202 V -19.8945 H -528.0898 Z"
         id="path5262"
         style="stroke-width:0.999998" />
    </clipPath>
    <clipPath
       clipPathUnits="userSpaceOnUse"
       id="clipPath5264">
      <path
         d="M -531.1924,581.5885 H 65.083602 V -13.6875 H -531.1924 Z"
         id="path5266"
         style="stroke-width:0.999998" />
    </clipPath>
    <clipPath
       clipPathUnits="userSpaceOnUse"
       id="clipPath5442">
      <path
         d="m -104.002,104.0021 h 596.276 v -595.276 h -596.276 z"
         id="path5444"
         style="stroke-width:0.999998" />
    </clipPath>
    <clipPath
       clipPathUnits="userSpaceOnUse"
       id="clipPath5448">
      <path
         d="m -228.0342,169.8126 h 596.276 v -595.276 h -596.276 z"
         id="path5450"
         style="stroke-width:0.999998" />
    </clipPath>
    <clipPath
       clipPathUnits="userSpaceOnUse"
       id="clipPath5454">
      <path
         d="m -228.0342,301.4322 h 596.276 v -595.276 h -596.276 z"
         id="path5456"
         style="stroke-width:0.999998" />
    </clipPath>
    <clipPath
       clipPathUnits="userSpaceOnUse"
       id="clipPath5460">
      <path
         d="m -301.4297,104.0031 h 596.276 v -595.276 h -596.276 z"
         id="path5462"
         style="stroke-width:0.999998" />
    </clipPath>
    <clipPath
       clipPathUnits="userSpaceOnUse"
       id="clipPath5466">
      <path
         d="m -425.4629,169.8126 h 596.276 v -595.276 h -596.276 z"
         id="path5468"
         style="stroke-width:0.999998" />
    </clipPath>
    <clipPath
       clipPathUnits="userSpaceOnUse"
       id="clipPath5472">
      <path
         d="m -425.4629,301.4322 h 596.276 v -595.276 h -596.276 z"
         id="path5474"
         style="stroke-width:0.999998" />
    </clipPath>
  </defs>
  <sodipodi:namedview
     id="namedview4773"
     pagecolor="#ffffff"
     bordercolor="#000000"
     borderopacity="0.25"
     inkscape:showpageshadow="2"
     inkscape:pageopacity="0.0"
     inkscape:pagecheckerboard="0"
     inkscape:deskcolor="#d1d1d1"
     showgrid="false"
     inkscape:zoom="0.29734106"
     inkscape:cx="-215.24105"
     inkscape:cy="396.85068"
     inkscape:window-width="1419"
     inkscape:window-height="456"
     inkscape:window-x="0"
     inkscape:window-y="25"
     inkscape:window-maximized="0"
     inkscape:current-layer="svg4771">
    <inkscape:page
       x="0"
       y="0"
       id="page4777"
       width="795.03467"
       height="793.70135" />
  </sodipodi:namedview>
  <path
     d="M 138.669 138.669 L 138.669 216.301 L 314.161 216.301 L 314.161 577.4 L 138.669 577.4 L 138.669 655.033 L 391.791 655.033 L 391.791 138.669 Z"
     style="fill:#000000;fill-opacity:1;fill-rule:nonzero;stroke:none"
     id="path4891" />
  <path
     d="M 304.046 226.417 L 138.67 226.417 L 138.67 304.047 L 226.414 304.047 L 226.414 314.165 L 138.67 314.165 L 138.67 391.794 L 304.046 391.794 Z"
     style="fill:#000000;fill-opacity:1;fill-rule:nonzero;stroke:none"
     id="path4895" />
  <path
     d="M 304.046 401.91 L 138.67 401.91 L 138.67 479.54 L 226.414 479.54 L 226.414 489.658 L 138.67 489.658 L 138.67 567.287 L 304.046 567.287 Z"
     style="fill:#000000;fill-opacity:1;fill-rule:nonzero;stroke:none"
     id="path4899" />
  <path
     d="M 401.906 138.671 L 401.906 216.303 L 577.399 216.303 L 577.399 577.403 L 401.906 577.403 L 401.906 655.034 L 655.031 655.034 L 655.031 138.671 Z"
     style="fill:#000000;fill-opacity:1;fill-rule:nonzero;stroke:none"
     id="path4903" />
  <path
     d="M 567.284 226.417 L 401.907 226.417 L 401.907 304.049 L 489.654 304.049 L 489.654 314.165 L 401.907 314.165 L 401.907 391.794 L 567.284 391.794 Z"
     style="fill:#000000;fill-opacity:1;fill-rule:nonzero;stroke:none"
     id="path4907" />
  <path
     d="M 567.284 401.91 L 401.907 401.91 L 401.907 479.543 L 489.654 479.543 L 489.654 489.658 L 401.907 489.658 L 401.907 567.287 L 567.284 567.287 Z"
     style="fill:#000000;fill-opacity:1;fill-rule:nonzero;stroke:none"
     id="path4911" />
</svg>
