<?xml version="1.0" encoding="UTF-8" standalone="no"?>
<!-- Created with Inkscape (http://www.inkscape.org/) -->

<svg
   version="1.1"
   id="svg17531"
   width="795.03467"
   height="793.70135"
   viewBox="0 0 795.03467 793.70135"
   sodipodi:docname="Chuukage Kikyou Kiri.svg"
   inkscape:version="1.2 (dc2aeda, 2022-05-15)"
   xmlns:inkscape="http://www.inkscape.org/namespaces/inkscape"
   xmlns:sodipodi="http://sodipodi.sourceforge.net/DTD/sodipodi-0.dtd"
   xmlns="http://www.w3.org/2000/svg"
   xmlns:svg="http://www.w3.org/2000/svg">
  <defs
     id="defs17535">
    <clipPath
       clipPathUnits="userSpaceOnUse"
       id="clipPath18276">
      <path
         d="M -557.0645,585.8483 H 39.211501 V -9.4277027 H -557.0645 Z"
         id="path18278"
         style="stroke-width:0.999998" />
    </clipPath>
    <clipPath
       clipPathUnits="userSpaceOnUse"
       id="clipPath18282">
      <path
         d="M -75.701199,194.0089 H 520.5748 v -595.276 H -75.701199 Z"
         id="path18284"
         style="stroke-width:0.999998" />
    </clipPath>
    <clipPath
       clipPathUnits="userSpaceOnUse"
       id="clipPath18288">
      <path
         d="M -536.6982,584.5729 H 59.577804 V -10.7031 H -536.6982 Z"
         id="path18290"
         style="stroke-width:0.999998" />
    </clipPath>
    <clipPath
       clipPathUnits="userSpaceOnUse"
       id="clipPath18294">
      <path
         d="M -540.8213,585.8483 H 55.454701 V -9.4277027 H -540.8213 Z"
         id="path18296"
         style="stroke-width:0.999998" />
    </clipPath>
    <clipPath
       clipPathUnits="userSpaceOnUse"
       id="clipPath18300">
      <path
         d="M -528.0898,575.3815 H 68.186199 V -19.8945 H -528.0898 Z"
         id="path18302"
         style="stroke-width:0.999998" />
    </clipPath>
    <clipPath
       clipPathUnits="userSpaceOnUse"
       id="clipPath18306">
      <path
         d="M -553.8975,585.8483 H 42.378504 V -9.4277027 H -553.8975 Z"
         id="path18308"
         style="stroke-width:0.999998" />
    </clipPath>
    <clipPath
       clipPathUnits="userSpaceOnUse"
       id="clipPath18312">
      <path
         d="m -109.9775,137.1564 h 596.276 v -595.276 h -596.276 z"
         id="path18314"
         style="stroke-width:0.999998" />
    </clipPath>
    <clipPath
       clipPathUnits="userSpaceOnUse"
       id="clipPath18318">
      <path
         d="M -574.5459,585.8522 H 21.730103 V -9.4238027 H -574.5459 Z"
         id="path18320"
         style="stroke-width:0.999998" />
    </clipPath>
    <clipPath
       clipPathUnits="userSpaceOnUse"
       id="clipPath18324">
      <path
         d="M -572.8174,586.1354 H 23.458606 V -9.1406027 H -572.8174 Z"
         id="path18326"
         style="stroke-width:0.999998" />
    </clipPath>
    <clipPath
       clipPathUnits="userSpaceOnUse"
       id="clipPath18330">
      <path
         d="m -166.5488,194.0089 h 596.276 v -595.276 h -596.276 z"
         id="path18332"
         style="stroke-width:0.999998" />
    </clipPath>
    <clipPath
       clipPathUnits="userSpaceOnUse"
       id="clipPath18336">
      <path
         d="m -301.082,244.9747 h 596.276 v -595.276 h -596.276 z"
         id="path18338"
         style="stroke-width:0.999998" />
    </clipPath>
    <clipPath
       clipPathUnits="userSpaceOnUse"
       id="clipPath18342">
      <path
         d="m -124.3154,220.1554 h 596.276 v -595.276 h -596.276 z"
         id="path18344"
         style="stroke-width:0.999998" />
    </clipPath>
    <clipPath
       clipPathUnits="userSpaceOnUse"
       id="clipPath18348">
      <path
         d="m -297.6377,537.9166 h 596.276 V -57.359401 h -596.276 z"
         id="path18350"
         style="stroke-width:0.999998" />
    </clipPath>
    <clipPath
       clipPathUnits="userSpaceOnUse"
       id="clipPath18354">
      <path
         d="m -259.5283,282.8009 h 596.27601 v -595.276 H -259.5283 Z"
         id="path18356"
         style="stroke-width:0.999998" />
    </clipPath>
    <clipPath
       clipPathUnits="userSpaceOnUse"
       id="clipPath18360">
      <path
         d="M -531.1924,581.5885 H 65.083599 V -13.6875 H -531.1924 Z"
         id="path18362"
         style="stroke-width:0.999998" />
    </clipPath>
    <clipPath
       clipPathUnits="userSpaceOnUse"
       id="clipPath18366">
      <path
         d="M -561.4131,585.8522 H 34.862903 V -9.4238027 H -561.4131 Z"
         id="path18368"
         style="stroke-width:0.999998" />
    </clipPath>
    <clipPath
       clipPathUnits="userSpaceOnUse"
       id="clipPath18372">
      <path
         d="M -584.1943,578.9381 H 12.081705 V -16.337903 H -584.1943 Z"
         id="path18374"
         style="stroke-width:0.999998" />
    </clipPath>
    <clipPath
       clipPathUnits="userSpaceOnUse"
       id="clipPath18378">
      <path
         d="M -557.4951,577.8502 H 38.780903 V -17.4258 H -557.4951 Z"
         id="path18380"
         style="stroke-width:0.999998" />
    </clipPath>
    <clipPath
       clipPathUnits="userSpaceOnUse"
       id="clipPath18384">
      <path
         d="M -568.2266,575.819 H 28.049401 V -19.457003 H -568.2266 Z"
         id="path18386"
         style="stroke-width:0.999998" />
    </clipPath>
    <clipPath
       clipPathUnits="userSpaceOnUse"
       id="clipPath18390">
      <path
         d="M -564.5732,585.8483 H 31.702801 V -9.4277027 H -564.5732 Z"
         id="path18392"
         style="stroke-width:0.999998" />
    </clipPath>
    <clipPath
       clipPathUnits="userSpaceOnUse"
       id="clipPath18396">
      <path
         d="M -576.3691,585.5885 H 19.906905 V -9.6875027 H -576.3691 Z"
         id="path18398"
         style="stroke-width:0.999998" />
    </clipPath>
    <clipPath
       clipPathUnits="userSpaceOnUse"
       id="clipPath18403">
      <path
         d="M -586.5449,579.5026 H 9.7311002 V -15.7734 H -586.5449 Z"
         id="path18405"
         style="stroke-width:0.999998" />
    </clipPath>
    <clipPath
       clipPathUnits="userSpaceOnUse"
       id="clipPath18409">
      <path
         d="M -550.2637,577.3248 H 46.012306 V -17.951198 H -550.2637 Z"
         id="path18411"
         style="stroke-width:0.999998" />
    </clipPath>
    <clipPath
       clipPathUnits="userSpaceOnUse"
       id="clipPath18415">
      <path
         d="M -556.4014,578.0143 H 39.874606 V -17.2617 H -556.4014 Z"
         id="path18417"
         style="stroke-width:0.999998" />
    </clipPath>
    <clipPath
       clipPathUnits="userSpaceOnUse"
       id="clipPath18421">
      <path
         d="m -357.2793,205.5831 h 596.276 v -595.276 h -596.276 z"
         id="path18423"
         style="stroke-width:0.999998" />
    </clipPath>
    <clipPath
       clipPathUnits="userSpaceOnUse"
       id="clipPath18427">
      <path
         d="M -519.5742,194.0089 H 76.701804 v -595.276 H -519.5742 Z"
         id="path18429"
         style="stroke-width:0.999998" />
    </clipPath>
    <clipPath
       clipPathUnits="userSpaceOnUse"
       id="clipPath18433">
      <path
         d="m -428.7266,194.0089 h 596.276 v -595.276 h -596.276 z"
         id="path18435"
         style="stroke-width:0.999998" />
    </clipPath>
    <clipPath
       clipPathUnits="userSpaceOnUse"
       id="clipPath18439">
      <path
         d="m -470.96,220.1554 h 596.276 v -595.276 H -470.96 Z"
         id="path18441"
         style="stroke-width:0.999998" />
    </clipPath>
    <clipPath
       clipPathUnits="userSpaceOnUse"
       id="clipPath18445">
      <path
         d="m -335.7471,282.8009 h 596.276 v -595.276 h -596.276 z"
         id="path18447"
         style="stroke-width:0.999998" />
    </clipPath>
    <clipPath
       clipPathUnits="userSpaceOnUse"
       id="clipPath18451">
      <path
         d="m -292.9824,320.7408 h 596.276 v -595.276 h -596.276 z"
         id="path18453"
         style="stroke-width:0.999998" />
    </clipPath>
    <clipPath
       clipPathUnits="userSpaceOnUse"
       id="clipPath18457">
      <path
         d="m -485.2979,137.1564 h 596.276 v -595.276 h -596.276 z"
         id="path18459"
         style="stroke-width:0.999998" />
    </clipPath>
    <clipPath
       clipPathUnits="userSpaceOnUse"
       id="clipPath18463">
      <path
         d="M -538.2217,577.9479 H 58.054299 V -17.328098 H -538.2217 Z"
         id="path18465"
         style="stroke-width:0.999998" />
    </clipPath>
    <clipPath
       clipPathUnits="userSpaceOnUse"
       id="clipPath18469">
      <path
         d="M -542.9326,584.5729 H 53.343399 V -10.7031 H -542.9326 Z"
         id="path18471"
         style="stroke-width:0.999998" />
    </clipPath>
    <clipPath
       clipPathUnits="userSpaceOnUse"
       id="clipPath18475">
      <path
         d="M -548.9834,585.8522 H 47.292601 V -9.4238027 H -548.9834 Z"
         id="path18477"
         style="stroke-width:0.999998" />
    </clipPath>
    <clipPath
       clipPathUnits="userSpaceOnUse"
       id="clipPath18481">
      <path
         d="M -545.417,584.5729 H 50.859001 V -10.7031 H -545.417 Z"
         id="path18483"
         style="stroke-width:0.999998" />
    </clipPath>
    <clipPath
       clipPathUnits="userSpaceOnUse"
       id="clipPath18487">
      <path
         d="m -237.9961,205.5831 h 596.276 v -595.276 h -596.276 z"
         id="path18489"
         style="stroke-width:0.999998" />
    </clipPath>
    <clipPath
       clipPathUnits="userSpaceOnUse"
       id="clipPath18493">
      <path
         d="M -567.7754,585.8522 H 28.500601 V -9.4238027 H -567.7754 Z"
         id="path18495"
         style="stroke-width:0.999998" />
    </clipPath>
    <clipPath
       clipPathUnits="userSpaceOnUse"
       id="clipPath18500">
      <path
         d="m -328.748,282.9239 h 596.276 v -595.276 h -596.276 z"
         id="path18502"
         style="stroke-width:0.999998" />
    </clipPath>
    <clipPath
       clipPathUnits="userSpaceOnUse"
       id="clipPath18506">
      <path
         d="m -352.4648,135.6837 h 596.27601 v -595.276 H -352.4648 Z"
         id="path18508"
         style="stroke-width:0.999998" />
    </clipPath>
    <clipPath
       clipPathUnits="userSpaceOnUse"
       id="clipPath18512">
      <path
         d="M -285.332,75.599697 H 310.944 V -519.6763 h -596.276 z"
         id="path18514"
         style="stroke-width:0.999998" />
    </clipPath>
    <clipPath
       clipPathUnits="userSpaceOnUse"
       id="clipPath18518">
      <path
         d="m -242.8105,135.6837 h 596.276 v -595.276 h -596.276 z"
         id="path18520"
         style="stroke-width:0.999998" />
    </clipPath>
  </defs>
  <sodipodi:namedview
     id="namedview17533"
     pagecolor="#ffffff"
     bordercolor="#000000"
     borderopacity="0.25"
     inkscape:showpageshadow="2"
     inkscape:pageopacity="0.0"
     inkscape:pagecheckerboard="0"
     inkscape:deskcolor="#d1d1d1"
     showgrid="false"
     inkscape:zoom="0.29734106"
     inkscape:cx="-215.24105"
     inkscape:cy="396.85068"
     inkscape:window-width="1419"
     inkscape:window-height="456"
     inkscape:window-x="0"
     inkscape:window-y="25"
     inkscape:window-maximized="0"
     inkscape:current-layer="svg17531">
    <inkscape:page
       x="0"
       y="0"
       id="page17537"
       width="795.03467"
       height="793.70135" />
  </sodipodi:namedview>
  <path
     d="M 438.331 377.232 C 438.331 400.139 419.759 418.712 396.851 418.712 C 373.942 418.712 355.37 400.139 355.37 377.232 C 355.37 354.323 373.942 335.751 396.851 335.751 C 419.759 335.751 438.331 354.323 438.331 377.232"
     style="fill:#000000;fill-opacity:1;fill-rule:nonzero;stroke:none"
     id="path17651" />
  <path
     d="M 380.443 100.8 C 381.492 98.98 382.787 96.9427 384.3 94.956 C 388.878 89.0214 394.231 85.9827 394.522 85.7947 L 396.85 84.4534 L 399.176 85.7947 C 399.467 85.9827 404.823 89.0214 409.398 94.956 C 410.912 96.9427 412.206 98.98 413.256 100.8 C 415.28 98.8333 417.77 96.6653 420.354 95.0387 C 423.635 93.032 427.218 91.3214 430.776 89.9534 C 427.771 70.9161 417.45 56.4228 401.515 54.0575 L 401.515 71.5067 C 401.515 74.0827 399.426 76.1747 396.851 76.1747 C 394.271 76.1747 392.183 74.0827 392.183 71.5067 L 392.183 54.0575 C 376.248 56.4254 365.93 70.9174 362.924 89.9534 C 366.482 91.3227 370.067 93.032 373.348 95.0387 C 375.931 96.6653 378.419 98.8333 380.443 100.8"
     style="fill:#000000;fill-opacity:1;fill-rule:nonzero;stroke:none"
     id="path17655" />
  <path
     d="M 323.747 180.912 C 323.047 178.931 322.342 176.623 321.819 174.183 C 320.29 166.844 321.464 160.803 321.51 160.459 L 322.006 157.819 L 324.539 156.923 C 324.871 156.827 330.663 154.735 338.147 155.121 C 340.64 155.264 343.028 155.605 345.095 155.993 C 344.918 153.176 344.891 149.876 345.335 146.855 C 345.946 143.056 346.979 139.221 348.255 135.631 C 331.842 125.527 314.119 123.937 301.956 134.5 L 315.21 145.852 C 317.164 147.528 317.395 150.475 315.719 152.432 C 314.042 154.391 311.095 154.615 309.138 152.94 L 295.886 141.589 C 287.318 155.228 291.611 172.495 304.114 187.161 C 307.467 185.349 311.098 183.737 314.756 182.552 C 317.672 181.649 320.938 181.169 323.747 180.912"
     style="fill:#000000;fill-opacity:1;fill-rule:nonzero;stroke:none"
     id="path17659" />
  <path
     d="M 317.328 274.111 C 316.628 272.13 315.923 269.82 315.4 267.38 C 313.871 260.042 315.045 254 315.091 253.656 L 315.587 251.016 L 318.12 250.122 C 318.452 250.024 324.244 247.932 331.728 248.32 C 334.221 248.462 336.609 248.804 338.676 249.191 C 338.499 246.375 338.472 243.074 338.916 240.052 C 339.527 236.255 340.56 232.42 341.836 228.828 C 325.423 218.726 307.7 217.136 295.537 227.698 L 308.791 239.051 C 310.745 240.727 310.976 243.674 309.3 245.631 C 307.623 247.588 304.676 247.812 302.719 246.139 L 289.467 234.787 C 280.899 248.427 285.192 265.694 297.695 280.36 C 301.048 278.547 304.679 276.936 308.337 275.75 C 311.253 274.847 314.519 274.367 317.328 274.111"
     style="fill:#000000;fill-opacity:1;fill-rule:nonzero;stroke:none"
     id="path17663" />
  <path
     d="M 469.953 180.912 C 470.653 178.931 471.358 176.623 471.881 174.183 C 473.41 166.844 472.236 160.803 472.19 160.459 L 471.694 157.819 L 469.161 156.923 C 468.829 156.827 463.037 154.735 455.553 155.121 C 453.06 155.264 450.672 155.605 448.605 155.993 C 448.782 153.176 448.809 149.876 448.365 146.855 C 447.754 143.056 446.721 139.221 445.445 135.631 C 461.858 125.527 479.581 123.937 491.744 134.5 L 478.49 145.852 C 476.536 147.528 476.305 150.475 477.981 152.432 C 479.658 154.391 482.605 154.615 484.562 152.94 L 497.814 141.589 C 506.382 155.228 502.089 172.495 489.586 187.161 C 486.233 185.349 482.602 183.737 478.944 182.552 C 476.028 181.649 472.762 181.169 469.953 180.912"
     style="fill:#000000;fill-opacity:1;fill-rule:nonzero;stroke:none"
     id="path17667" />
  <path
     d="M 476.372 274.111 C 477.072 272.13 477.777 269.82 478.3 267.38 C 479.829 260.042 478.655 254 478.609 253.656 L 478.113 251.016 L 475.58 250.122 C 475.248 250.024 469.456 247.932 461.972 248.32 C 459.479 248.462 457.091 248.804 455.024 249.191 C 455.201 246.375 455.228 243.074 454.784 240.052 C 454.173 236.255 453.14 232.42 451.864 228.828 C 468.277 218.726 486 217.136 498.163 227.698 L 484.909 239.051 C 482.955 240.727 482.724 243.674 484.4 245.631 C 486.077 247.588 489.024 247.812 490.981 246.139 L 504.233 234.787 C 512.801 248.427 508.508 265.694 496.005 280.36 C 492.652 278.547 489.021 276.936 485.363 275.75 C 482.447 274.847 479.181 274.367 476.372 274.111"
     style="fill:#000000;fill-opacity:1;fill-rule:nonzero;stroke:none"
     id="path17671" />
  <path
     d="M 146.637 182.875 C 147.58 181.239 148.742 179.41 150.101 177.627 C 154.213 172.295 159.02 169.568 159.281 169.398 L 161.372 168.192 L 163.461 169.398 C 163.722 169.568 168.534 172.295 172.642 177.627 C 174.001 179.41 175.165 181.239 176.109 182.875 C 177.926 181.11 180.162 179.162 182.484 177.7 C 185.429 175.898 188.648 174.362 191.844 173.132 C 189.145 156.034 179.874 143.015 165.561 140.894 L 165.561 156.566 C 165.561 158.879 163.686 160.758 161.374 160.758 C 159.056 160.758 157.181 158.879 157.181 156.566 L 157.181 140.894 C 142.87 143.018 133.604 156.036 130.902 173.132 C 134.098 174.362 137.317 175.898 140.265 177.7 C 142.585 179.162 144.82 181.11 146.637 182.875"
     style="fill:#000000;fill-opacity:1;fill-rule:nonzero;stroke:none"
     id="path17675" />
  <path
     d="M 100.935 258.679 C 100.306 256.899 99.6737 254.826 99.203 252.634 C 97.8297 246.042 98.8857 240.618 98.9257 240.308 L 99.371 237.935 L 101.644 237.134 C 101.944 237.044 107.146 235.167 113.868 235.515 C 116.108 235.643 118.252 235.948 120.108 236.298 C 119.95 233.767 119.926 230.803 120.324 228.09 C 120.874 224.679 121.8 221.235 122.947 218.008 C 108.206 208.935 92.2884 207.506 81.363 216.994 L 93.267 227.191 C 95.023 228.695 95.231 231.342 93.7257 233.099 C 92.2177 234.858 89.5724 235.06 87.8137 233.555 L 75.9111 223.36 C 68.2151 235.61 72.0737 251.118 83.3017 264.291 C 86.3124 262.663 89.5737 261.216 92.859 260.151 C 95.479 259.34 98.4097 258.91 100.935 258.679"
     style="fill:#000000;fill-opacity:1;fill-rule:nonzero;stroke:none"
     id="path17679" />
  <path
     d="M 222.065 258.679 C 222.694 256.899 223.326 254.826 223.796 252.634 C 225.17 246.042 224.114 240.618 224.074 240.308 L 223.629 237.935 L 221.356 237.134 C 221.056 237.044 215.854 235.167 209.132 235.515 C 206.892 235.643 204.748 235.948 202.892 236.298 C 203.05 233.767 203.074 230.803 202.676 228.09 C 202.126 224.679 201.2 221.235 200.053 218.008 C 214.794 208.935 230.712 207.506 241.637 216.994 L 229.733 227.191 C 227.977 228.695 227.769 231.342 229.274 233.099 C 230.782 234.858 233.428 235.06 235.186 233.555 L 247.089 223.36 C 254.785 235.61 250.926 251.118 239.698 264.291 C 236.688 262.663 233.426 261.216 230.141 260.151 C 227.521 259.34 224.589 258.91 222.065 258.679"
     style="fill:#000000;fill-opacity:1;fill-rule:nonzero;stroke:none"
     id="path17683" />
  <path
     d="M 401.443 326.633 L 401.443 322.713 L 431.831 296.681 C 443.122 303.149 469.591 304.065 487.372 288.833 C 487.945 288.342 488.504 287.845 489.057 287.345 C 486.851 286.27 484.565 285.324 482.383 284.641 C 480.229 283.94 476.845 283.494 474.137 283.312 C 472.783 283.214 471.577 283.169 470.723 283.152 C 469.869 283.13 469.411 283.136 469.408 283.133 L 461.786 283.194 L 465.198 276.376 C 465.198 276.376 465.331 276.11 465.598 275.532 C 466.391 273.806 468.145 269.614 469.025 265.442 C 469.585 262.805 469.656 260.198 469.572 258.303 C 469.569 258.272 469.568 258.243 469.568 258.212 C 467.698 257.833 465.079 257.477 462.338 257.636 C 459.504 257.793 456.587 258.324 454.43 258.819 C 453.347 259.067 452.455 259.303 451.844 259.477 C 451.228 259.649 450.948 259.741 450.948 259.741 L 443.692 262.072 L 444.918 254.545 C 444.916 254.543 444.991 254.087 445.103 253.243 C 445.455 250.745 445.984 244.885 445.419 241.491 C 445.082 239.228 444.495 236.827 443.771 234.477 C 443.194 234.948 442.615 235.425 442.042 235.915 C 424.26 251.147 421.102 277.442 425.758 289.592 L 401.443 310.421 L 401.443 224.015 L 425.412 203.483 C 436.702 209.951 463.172 210.867 480.953 195.636 C 481.527 195.144 482.084 194.647 482.637 194.147 C 480.431 193.071 478.145 192.125 475.964 191.443 C 473.809 190.741 470.425 190.297 467.719 190.112 C 466.363 190.016 465.158 189.971 464.304 189.953 C 463.451 189.932 462.991 189.939 462.988 189.935 L 455.366 189.995 L 458.779 183.177 C 458.779 183.177 458.912 182.912 459.179 182.333 C 459.971 180.607 461.727 176.417 462.606 172.244 C 463.167 169.605 463.238 167 463.152 165.105 C 463.15 165.073 463.148 165.045 463.148 165.013 C 461.279 164.635 458.659 164.279 455.918 164.439 C 453.084 164.595 450.168 165.124 448.011 165.62 C 446.927 165.868 446.035 166.105 445.424 166.277 C 444.808 166.451 444.528 166.543 444.528 166.543 L 437.272 168.873 L 438.499 161.347 C 438.498 161.344 438.572 160.888 438.684 160.045 C 439.035 157.547 439.566 151.687 439 148.292 C 438.662 146.029 438.076 143.627 437.352 141.279 C 436.774 141.751 436.195 142.225 435.623 142.716 C 417.842 157.948 414.683 184.244 419.339 196.393 L 401.443 211.724 L 401.443 149.256 C 413.699 144.888 431.616 125.383 431.616 101.97 C 431.616 101.216 431.602 100.467 431.582 99.7216 C 429.33 100.699 427.124 101.819 425.187 103.032 C 423.252 104.211 420.714 106.491 418.812 108.428 C 417.858 109.394 417.038 110.28 416.47 110.918 C 415.899 111.55 415.603 111.904 415.599 111.904 L 410.688 117.732 L 407.73 110.706 C 407.73 110.706 407.615 110.434 407.35 109.852 C 406.554 108.128 404.514 104.068 401.915 100.686 C 400.278 98.5442 398.344 96.7949 396.85 95.6256 C 396.824 95.6069 396.802 95.5896 396.778 95.5709 C 396.754 95.5896 396.731 95.6069 396.706 95.6256 C 395.211 96.7949 393.278 98.5442 391.639 100.686 C 389.042 104.068 387.002 108.128 386.206 109.852 C 385.94 110.434 385.826 110.706 385.826 110.706 L 382.867 117.732 L 377.956 111.904 C 377.952 111.904 377.656 111.55 377.086 110.918 C 376.518 110.28 375.698 109.394 374.743 108.428 C 372.842 106.491 370.303 104.211 368.368 103.032 C 366.431 101.819 364.226 100.699 361.972 99.7216 C 361.954 100.467 361.939 101.216 361.939 101.97 C 361.939 125.383 379.856 144.888 392.112 149.256 L 392.112 211.724 L 374.216 196.393 C 378.872 184.244 375.714 157.948 357.932 142.716 C 357.359 142.225 356.782 141.751 356.203 141.279 C 355.479 143.627 354.894 146.029 354.555 148.292 C 353.99 151.687 354.52 157.547 354.871 160.045 C 354.983 160.888 355.058 161.344 355.056 161.347 L 356.283 168.873 L 349.026 166.543 C 349.026 166.543 348.747 166.451 348.131 166.277 C 347.52 166.105 346.628 165.868 345.544 165.62 C 343.387 165.124 340.471 164.595 337.638 164.439 C 334.896 164.279 332.277 164.635 330.407 165.013 C 330.407 165.045 330.406 165.073 330.403 165.105 C 330.318 167 330.389 169.605 330.95 172.244 C 331.829 176.417 333.583 180.607 334.377 182.333 C 334.643 182.912 334.776 183.177 334.776 183.177 L 338.19 189.995 L 330.567 189.935 C 330.565 189.939 330.105 189.932 329.251 189.953 C 328.398 189.971 327.193 190.016 325.837 190.112 C 323.13 190.297 319.746 190.741 317.591 191.443 C 315.41 192.125 313.125 193.071 310.917 194.147 C 311.471 194.647 312.029 195.144 312.602 195.636 C 330.383 210.867 356.854 209.951 368.143 203.483 L 392.112 224.015 L 392.112 310.421 L 367.798 289.592 C 372.454 277.442 369.295 251.147 351.514 235.915 C 350.94 235.425 350.362 234.948 349.784 234.477 C 349.06 236.827 348.474 239.228 348.136 241.491 C 347.571 244.885 348.1 250.745 348.452 253.243 C 348.564 254.087 348.638 254.543 348.638 254.545 L 349.863 262.072 L 342.607 259.741 C 342.607 259.741 342.327 259.649 341.711 259.477 C 341.1 259.303 340.208 259.067 339.126 258.819 C 336.968 258.324 334.051 257.793 331.218 257.636 C 328.477 257.477 325.858 257.833 323.987 258.212 C 323.987 258.243 323.986 258.272 323.983 258.303 C 323.899 260.198 323.97 262.805 324.53 265.442 C 325.41 269.614 327.165 273.806 327.958 275.532 C 328.225 276.11 328.358 276.376 328.358 276.376 L 331.77 283.194 L 324.147 283.133 C 324.145 283.136 323.686 283.13 322.833 283.152 C 321.978 283.169 320.773 283.214 319.417 283.312 C 316.71 283.494 313.326 283.94 311.173 284.641 C 308.99 285.324 306.705 286.27 304.498 287.345 C 305.051 287.845 305.61 288.342 306.183 288.833 C 323.965 304.065 350.434 303.149 361.724 296.681 L 392.112 322.713 L 392.112 326.645 C 393.674 326.5 395.251 326.417 396.85 326.417 C 398.399 326.417 399.928 326.497 401.443 326.633"
     style="fill:#000000;fill-opacity:1;fill-rule:nonzero;stroke:none"
     id="path17687" />
  <path
     d="M 396.85 717.222 C 402.247 713.198 411.167 707.105 427.961 696.927 C 455.389 680.303 527.499 649.686 536.751 561.842 C 549.82 563.261 563.092 563.998 576.539 563.998 C 634.659 563.998 689.595 550.394 738.372 526.236 C 742.264 511.259 744.34 495.553 744.34 479.361 C 744.34 376.746 661.153 293.56 558.539 293.56 C 514.188 293.56 463.78 307.884 420.834 332.431 C 428.741 336.67 435.39 342.943 440.094 350.548 C 471.175 337.576 526.21 323.864 593.183 347.04 C 699.22 383.731 687.468 486.772 687.468 486.772 C 650.849 511.704 615.753 518.694 576.516 518.704 C 561.802 518.698 547.36 515.996 533.236 511.48 C 517.891 459.135 466.812 424.824 436.777 408.641 C 432.483 414.092 427.107 418.647 420.961 421.968 C 463.375 452.037 484.407 493.199 484.407 542.704 C 484.378 559.082 481.699 571.376 477.799 581.58 C 473.862 591.758 468.579 600.029 462.15 607.528 C 449.326 622.534 431.518 633.686 414.893 642.957 C 410.091 645.673 405.383 648.256 400.322 651.313 C 399.131 652.034 397.975 652.738 396.85 653.427 C 395.725 652.738 394.569 652.034 393.378 651.313 C 388.317 648.256 383.609 645.673 378.807 642.957 C 362.182 633.686 344.374 622.534 331.55 607.528 C 325.121 600.029 319.838 591.758 315.901 581.58 C 312.001 571.376 309.322 559.082 309.293 542.704 C 309.293 493.199 330.325 452.037 372.739 421.968 C 366.593 418.647 361.217 414.092 356.923 408.641 C 326.888 424.824 275.809 459.135 260.464 511.48 C 246.34 515.996 231.898 518.698 217.184 518.704 C 177.947 518.694 142.851 511.704 106.232 486.772 C 106.232 486.772 94.4801 383.731 200.517 347.04 C 267.49 323.864 322.525 337.576 353.606 350.548 C 358.31 342.943 364.959 336.67 372.866 332.431 C 329.92 307.884 279.512 293.56 235.161 293.56 C 132.547 293.56 49.3602 376.746 49.3602 479.361 C 49.3602 495.553 51.4362 511.259 55.3282 526.236 C 104.105 550.394 159.041 563.998 217.161 563.998 C 230.608 563.998 243.88 563.261 256.949 561.842 C 266.201 649.686 338.311 680.303 365.739 696.927 C 382.533 707.105 391.453 713.198 396.85 717.222"
     style="fill:#000000;fill-opacity:1;fill-rule:nonzero;stroke:none"
     id="path17691" />
  <path
     d="M 165.754 293.541 L 182.191 278.952 C 192.333 284.76 216.106 285.581 232.075 271.902 C 232.591 271.461 233.092 271.014 233.588 270.566 C 231.607 269.6 229.555 268.749 227.595 268.136 C 225.661 267.506 222.621 267.108 220.19 266.942 C 218.971 266.854 217.89 266.814 217.121 266.798 C 216.355 266.78 215.943 266.785 215.941 266.782 L 209.095 266.837 L 212.161 260.714 C 212.161 260.714 212.279 260.476 212.519 259.957 C 213.23 258.405 214.807 254.641 215.597 250.894 C 216.101 248.524 216.165 246.182 216.089 244.481 C 216.086 244.454 216.085 244.428 216.085 244.4 C 214.406 244.06 212.051 243.74 209.59 243.882 C 207.046 244.024 204.426 244.498 202.489 244.944 C 201.515 245.168 200.715 245.38 200.166 245.534 C 199.613 245.69 199.361 245.773 199.361 245.773 L 192.843 247.866 L 193.946 241.106 C 193.946 241.104 194.01 240.694 194.113 239.936 C 194.429 237.693 194.902 232.43 194.394 229.381 C 194.093 227.349 193.565 225.191 192.914 223.081 C 192.395 223.505 191.877 223.933 191.361 224.373 C 175.393 238.053 172.555 261.67 176.737 272.584 L 165.754 282.502 L 165.754 226.397 C 176.763 222.475 192.855 204.955 192.855 183.925 C 192.855 183.248 192.841 182.576 192.825 181.907 C 190.801 182.785 188.819 183.791 187.079 184.88 C 185.343 185.939 183.062 187.988 181.355 189.728 C 180.497 190.595 179.761 191.391 179.249 191.961 C 178.738 192.532 178.473 192.849 178.469 192.849 L 174.058 198.084 L 171.401 191.772 C 171.401 191.772 171.298 191.527 171.059 191.007 C 170.343 189.457 168.511 185.811 166.178 182.775 C 164.709 180.849 162.971 179.28 161.629 178.229 C 161.606 178.212 161.586 178.196 161.563 178.179 C 161.543 178.196 161.522 178.212 161.501 178.229 C 161.478 178.212 161.457 178.196 161.437 178.179 C 161.414 178.196 161.394 178.212 161.371 178.229 C 160.029 179.28 158.291 180.849 156.822 182.775 C 154.489 185.811 152.657 189.457 151.942 191.007 C 151.702 191.527 151.599 191.772 151.599 191.772 L 148.943 198.084 L 144.531 192.849 C 144.527 192.849 144.262 192.532 143.751 191.961 C 143.239 191.391 142.503 190.595 141.645 189.728 C 139.938 187.988 137.657 185.939 135.921 184.88 C 134.181 183.791 132.199 182.785 130.175 181.907 C 130.159 182.576 130.145 183.248 130.145 183.925 C 130.145 204.955 146.237 222.475 157.245 226.397 L 157.245 282.502 L 146.263 272.584 C 150.446 261.67 147.609 238.053 131.639 224.373 C 131.123 223.933 130.605 223.505 130.086 223.081 C 129.435 225.191 128.907 227.349 128.605 229.381 C 128.098 232.43 128.571 237.693 128.889 239.936 C 128.99 240.694 129.055 241.104 129.055 241.106 L 130.157 247.866 L 123.639 245.773 C 123.639 245.773 123.389 245.69 122.835 245.534 C 122.285 245.38 121.485 245.168 120.511 244.944 C 118.574 244.498 115.954 244.024 113.41 243.882 C 110.949 243.74 108.594 244.06 106.915 244.4 C 106.915 244.428 106.914 244.454 106.911 244.481 C 106.837 246.182 106.899 248.524 107.403 250.894 C 108.191 254.641 109.77 258.405 110.481 259.957 C 110.721 260.476 110.839 260.714 110.839 260.714 L 113.905 266.837 L 107.059 266.782 C 107.058 266.785 106.645 266.78 105.879 266.798 C 105.111 266.814 104.029 266.854 102.81 266.942 C 100.379 267.108 97.3395 267.506 95.4048 268.136 C 93.4462 268.749 91.3929 269.6 89.4115 270.566 C 89.9075 271.014 90.4089 271.461 90.9249 271.902 C 106.894 285.581 130.669 284.76 140.809 278.952 L 157.245 293.541 L 157.245 300.42 C 160.049 299.198 162.885 298.04 165.754 296.949 Z"
     style="fill:#000000;fill-opacity:1;fill-rule:nonzero;stroke:none"
     id="path17695" />
  <path
     d="M 346.038 377.068 C 318.001 381.177 291.05 388.633 265.609 399.024 C 263.161 400.024 260.733 401.064 258.308 402.103 C 254.184 403.871 251.621 409.237 254.062 414.121 C 256.645 419.288 262.046 420.701 267.616 418.037 C 269.626 417.073 271.59 416.012 273.598 415.032 C 296.771 403.737 321.726 395.533 347.923 390.944 C 346.702 386.581 346.035 381.985 346.034 377.232 C 346.034 377.177 346.038 377.123 346.038 377.068"
     style="fill:#000000;fill-opacity:1;fill-rule:nonzero;stroke:none"
     id="path17699" />
  <path
     d="M 647.064 182.875 C 646.121 181.239 644.959 179.41 643.6 177.627 C 639.488 172.295 634.681 169.568 634.42 169.398 L 632.329 168.192 L 630.24 169.398 C 629.979 169.568 625.167 172.295 621.059 177.627 C 619.7 179.41 618.536 181.239 617.592 182.875 C 615.775 181.11 613.539 179.162 611.217 177.7 C 608.272 175.898 605.053 174.362 601.857 173.132 C 604.556 156.034 613.827 143.015 628.14 140.894 L 628.14 156.566 C 628.14 158.879 630.015 160.758 632.327 160.758 C 634.645 160.758 636.52 158.879 636.52 156.566 L 636.52 140.894 C 650.831 143.018 660.097 156.036 662.799 173.132 C 659.603 174.362 656.384 175.898 653.436 177.7 C 651.116 179.162 648.881 181.11 647.064 182.875"
     style="fill:#000000;fill-opacity:1;fill-rule:nonzero;stroke:none"
     id="path17703" />
  <path
     d="M 692.766 258.679 C 693.395 256.899 694.027 254.826 694.498 252.634 C 695.871 246.042 694.815 240.618 694.775 240.308 L 694.33 237.935 L 692.057 237.134 C 691.757 237.044 686.555 235.167 679.833 235.515 C 677.593 235.643 675.449 235.948 673.593 236.298 C 673.751 233.767 673.775 230.803 673.377 228.09 C 672.827 224.679 671.901 221.235 670.754 218.008 C 685.495 208.935 701.413 207.506 712.338 216.994 L 700.434 227.191 C 698.678 228.695 698.47 231.342 699.975 233.099 C 701.483 234.858 704.129 235.06 705.887 233.555 L 717.79 223.36 C 725.486 235.61 721.627 251.118 710.399 264.291 C 707.389 262.663 704.127 261.216 700.842 260.151 C 698.222 259.34 695.291 258.91 692.766 258.679"
     style="fill:#000000;fill-opacity:1;fill-rule:nonzero;stroke:none"
     id="path17707" />
  <path
     d="M 571.635 258.679 C 571.006 256.899 570.374 254.826 569.904 252.634 C 568.53 246.042 569.586 240.618 569.626 240.308 L 570.071 237.935 L 572.344 237.134 C 572.644 237.044 577.846 235.167 584.568 235.515 C 586.808 235.643 588.952 235.948 590.808 236.298 C 590.65 233.767 590.626 230.803 591.024 228.09 C 591.574 224.679 592.5 221.235 593.647 218.008 C 578.906 208.935 562.988 207.506 552.063 216.994 L 563.967 227.191 C 565.723 228.695 565.931 231.342 564.426 233.099 C 562.918 234.858 560.272 235.06 558.514 233.555 L 546.611 223.36 C 538.915 235.61 542.774 251.118 554.002 264.291 C 557.012 262.663 560.274 261.216 563.559 260.151 C 566.179 259.34 569.111 258.91 571.635 258.679"
     style="fill:#000000;fill-opacity:1;fill-rule:nonzero;stroke:none"
     id="path17711" />
  <path
     d="M 627.947 293.541 L 611.51 278.952 C 601.368 284.76 577.595 285.581 561.626 271.902 C 561.11 271.461 560.609 271.014 560.113 270.566 C 562.094 269.6 564.146 268.749 566.106 268.136 C 568.04 267.506 571.08 267.108 573.511 266.942 C 574.73 266.854 575.811 266.814 576.58 266.798 C 577.346 266.78 577.758 266.785 577.76 266.782 L 584.606 266.837 L 581.54 260.714 C 581.54 260.714 581.422 260.476 581.182 259.957 C 580.471 258.405 578.894 254.641 578.104 250.894 C 577.6 248.524 577.536 246.182 577.612 244.481 C 577.615 244.454 577.616 244.428 577.616 244.4 C 579.295 244.06 581.65 243.74 584.111 243.882 C 586.655 244.024 589.275 244.498 591.212 244.944 C 592.186 245.168 592.986 245.38 593.535 245.534 C 594.088 245.69 594.34 245.773 594.34 245.773 L 600.858 247.866 L 599.755 241.106 C 599.755 241.104 599.691 240.694 599.588 239.936 C 599.272 237.693 598.799 232.43 599.307 229.381 C 599.608 227.349 600.136 225.191 600.787 223.081 C 601.306 223.505 601.824 223.933 602.34 224.373 C 618.308 238.053 621.146 261.67 616.964 272.584 L 627.947 282.502 L 627.947 226.397 C 616.938 222.475 600.846 204.955 600.846 183.925 C 600.846 183.248 600.86 182.576 600.876 181.907 C 602.9 182.785 604.882 183.791 606.622 184.88 C 608.358 185.939 610.639 187.988 612.346 189.728 C 613.204 190.595 613.94 191.391 614.452 191.961 C 614.963 192.532 615.228 192.849 615.232 192.849 L 619.643 198.084 L 622.3 191.772 C 622.3 191.772 622.403 191.527 622.642 191.007 C 623.358 189.457 625.19 185.811 627.523 182.775 C 628.992 180.849 630.73 179.28 632.072 178.229 C 632.095 178.212 632.115 178.196 632.138 178.179 C 632.158 178.196 632.179 178.212 632.2 178.229 C 632.223 178.212 632.244 178.196 632.264 178.179 C 632.287 178.196 632.307 178.212 632.33 178.229 C 633.672 179.28 635.41 180.849 636.879 182.775 C 639.212 185.811 641.044 189.457 641.759 191.007 C 641.999 191.527 642.102 191.772 642.102 191.772 L 644.758 198.084 L 649.17 192.849 C 649.174 192.849 649.439 192.532 649.95 191.961 C 650.462 191.391 651.198 190.595 652.056 189.728 C 653.763 187.988 656.044 185.939 657.78 184.88 C 659.52 183.791 661.502 182.785 663.526 181.907 C 663.542 182.576 663.556 183.248 663.556 183.925 C 663.556 204.955 647.464 222.475 636.456 226.397 L 636.456 282.502 L 647.438 272.584 C 643.255 261.67 646.092 238.053 662.062 224.373 C 662.578 223.933 663.096 223.505 663.615 223.081 C 664.266 225.191 664.794 227.349 665.096 229.381 C 665.603 232.43 665.13 237.693 664.812 239.936 C 664.711 240.694 664.646 241.104 664.646 241.106 L 663.544 247.866 L 670.062 245.773 C 670.062 245.773 670.312 245.69 670.866 245.534 C 671.416 245.38 672.216 245.168 673.19 244.944 C 675.127 244.498 677.747 244.024 680.291 243.882 C 682.752 243.74 685.107 244.06 686.786 244.4 C 686.786 244.428 686.787 244.454 686.79 244.481 C 686.864 246.182 686.802 248.524 686.298 250.894 C 685.51 254.641 683.931 258.405 683.22 259.957 C 682.98 260.476 682.862 260.714 682.862 260.714 L 679.796 266.837 L 686.642 266.782 C 686.643 266.785 687.056 266.78 687.822 266.798 C 688.59 266.814 689.672 266.854 690.891 266.942 C 693.322 267.108 696.361 267.506 698.296 268.136 C 700.255 268.749 702.308 269.6 704.289 270.566 C 703.793 271.014 703.292 271.461 702.776 271.902 C 686.807 285.581 663.032 284.76 652.892 278.952 L 636.456 293.541 L 636.456 300.42 C 633.652 299.198 630.816 298.04 627.947 296.949 Z"
     style="fill:#000000;fill-opacity:1;fill-rule:nonzero;stroke:none"
     id="path17715" />
  <path
     d="M 447.663 377.068 C 475.7 381.177 502.651 388.633 528.092 399.024 C 530.54 400.024 532.968 401.064 535.393 402.103 C 539.517 403.871 542.08 409.237 539.639 414.121 C 537.056 419.288 531.655 420.701 526.085 418.037 C 524.075 417.073 522.111 416.012 520.103 415.032 C 496.93 403.737 471.975 395.533 445.778 390.944 C 446.999 386.581 447.666 381.985 447.667 377.232 C 447.667 377.177 447.663 377.123 447.663 377.068"
     style="fill:#000000;fill-opacity:1;fill-rule:nonzero;stroke:none"
     id="path17719" />
  <path
     d="M 390.643 427.654 C 389.091 453.495 386.89 493.055 386.89 509.427 C 386.89 514.594 391.348 519.391 396.85 519.391 C 402.351 519.391 406.811 514.594 406.811 509.427 C 406.811 493.055 404.61 453.495 403.058 427.651 C 401.02 427.902 398.951 428.045 396.847 428.045 C 394.746 428.045 392.678 427.902 390.643 427.654"
     style="fill:#000000;fill-opacity:1;fill-rule:nonzero;stroke:none"
     id="path17723" />
</svg>
