<?xml version="1.0" encoding="UTF-8" standalone="no"?>
<!-- Created with Inkscape (http://www.inkscape.org/) -->

<svg
   version="1.1"
   id="svg23595"
   width="795.03467"
   height="793.70135"
   viewBox="0 0 795.03467 793.70135"
   sodipodi:docname="Chuukage Mitsuwari Kikyou.svg"
   inkscape:version="1.2 (dc2aeda, 2022-05-15)"
   xmlns:inkscape="http://www.inkscape.org/namespaces/inkscape"
   xmlns:sodipodi="http://sodipodi.sourceforge.net/DTD/sodipodi-0.dtd"
   xmlns="http://www.w3.org/2000/svg"
   xmlns:svg="http://www.w3.org/2000/svg">
  <defs
     id="defs23599">
    <clipPath
       clipPathUnits="userSpaceOnUse"
       id="clipPath24284">
      <path
         d="M -536.6982,584.5729 H 59.577804 V -10.7031 H -536.6982 Z"
         id="path24286"
         style="stroke-width:0.999998" />
    </clipPath>
    <clipPath
       clipPathUnits="userSpaceOnUse"
       id="clipPath24290">
      <path
         d="M -542.9326,584.5729 H 53.343399 V -10.7031 H -542.9326 Z"
         id="path24292"
         style="stroke-width:0.999998" />
    </clipPath>
    <clipPath
       clipPathUnits="userSpaceOnUse"
       id="clipPath24296">
      <path
         d="M -557.4951,577.8502 H 38.780903 V -17.4258 H -557.4951 Z"
         id="path24298"
         style="stroke-width:0.999998" />
    </clipPath>
    <clipPath
       clipPathUnits="userSpaceOnUse"
       id="clipPath24302">
      <path
         d="M -540.8213,585.8483 H 55.454701 V -9.4277027 H -540.8213 Z"
         id="path24304"
         style="stroke-width:0.999998" />
    </clipPath>
    <clipPath
       clipPathUnits="userSpaceOnUse"
       id="clipPath24308">
      <path
         d="M -586.5449,579.5026 H 9.7311002 V -15.7734 H -586.5449 Z"
         id="path24310"
         style="stroke-width:0.999998" />
    </clipPath>
    <clipPath
       clipPathUnits="userSpaceOnUse"
       id="clipPath24314">
      <path
         d="M -584.1943,578.9381 H 12.081705 V -16.337903 H -584.1943 Z"
         id="path24316"
         style="stroke-width:0.999998" />
    </clipPath>
    <clipPath
       clipPathUnits="userSpaceOnUse"
       id="clipPath24320">
      <path
         d="m -297.6377,65.5978 h 596.276 v -595.276 h -596.276 z"
         id="path24322"
         style="stroke-width:0.999998" />
    </clipPath>
    <clipPath
       clipPathUnits="userSpaceOnUse"
       id="clipPath24326">
      <path
         d="M -538.2217,577.9479 H 58.054299 V -17.328098 H -538.2217 Z"
         id="path24328"
         style="stroke-width:0.999998" />
    </clipPath>
    <clipPath
       clipPathUnits="userSpaceOnUse"
       id="clipPath24332">
      <path
         d="M -531.1924,581.5885 H 65.083599 V -13.6875 H -531.1924 Z"
         id="path24334"
         style="stroke-width:0.999998" />
    </clipPath>
    <clipPath
       clipPathUnits="userSpaceOnUse"
       id="clipPath24338">
      <path
         d="m -297.6357,293.4825 h 596.276 v -595.276 h -596.276 z"
         id="path24340"
         style="stroke-width:0.999998" />
    </clipPath>
    <clipPath
       clipPathUnits="userSpaceOnUse"
       id="clipPath24344">
      <path
         d="M -553.8975,585.8483 H 42.378504 V -9.4277027 H -553.8975 Z"
         id="path24346"
         style="stroke-width:0.999998" />
    </clipPath>
    <clipPath
       clipPathUnits="userSpaceOnUse"
       id="clipPath24351">
      <path
         d="M -556.4014,578.0143 H 39.874606 V -17.2617 H -556.4014 Z"
         id="path24353"
         style="stroke-width:0.999998" />
    </clipPath>
    <clipPath
       clipPathUnits="userSpaceOnUse"
       id="clipPath24357">
      <path
         d="M -550.2637,577.3248 H 46.012306 V -17.951198 H -550.2637 Z"
         id="path24359"
         style="stroke-width:0.999998" />
    </clipPath>
    <clipPath
       clipPathUnits="userSpaceOnUse"
       id="clipPath24363">
      <path
         d="M -550.3262,346.2194 H 45.949801 v -595.276 H -550.3262 Z"
         id="path24365"
         style="stroke-width:0.999998" />
    </clipPath>
    <clipPath
       clipPathUnits="userSpaceOnUse"
       id="clipPath24369">
      <path
         d="m -44.9473,346.2174 h 596.276 v -595.276 h -596.276 z"
         id="path24371"
         style="stroke-width:0.999998" />
    </clipPath>
    <clipPath
       clipPathUnits="userSpaceOnUse"
       id="clipPath24375">
      <path
         d="m -294.04,299.7174 h 596.27601 v -595.276 H -294.04 Z"
         id="path24377"
         style="stroke-width:0.999998" />
    </clipPath>
    <clipPath
       clipPathUnits="userSpaceOnUse"
       id="clipPath24381">
      <path
         d="M -572.8174,586.1354 H 23.458606 V -9.1406027 H -572.8174 Z"
         id="path24383"
         style="stroke-width:0.999998" />
    </clipPath>
    <clipPath
       clipPathUnits="userSpaceOnUse"
       id="clipPath24387">
      <path
         d="m -129.2207,492.1842 h 596.276 v -595.276 h -596.276 z"
         id="path24389"
         style="stroke-width:0.999998" />
    </clipPath>
    <clipPath
       clipPathUnits="userSpaceOnUse"
       id="clipPath24394">
      <path
         d="m -455.1025,388.5514 h 596.276 v -595.276 h -596.276 z"
         id="path24396"
         style="stroke-width:0.999998" />
    </clipPath>
    <clipPath
       clipPathUnits="userSpaceOnUse"
       id="clipPath24400">
      <path
         d="m -466.0537,492.1842 h 596.276 v -595.276 h -596.276 z"
         id="path24402"
         style="stroke-width:0.999998" />
    </clipPath>
    <clipPath
       clipPathUnits="userSpaceOnUse"
       id="clipPath24406">
      <path
         d="m -301.2363,299.7135 h 596.276 v -595.276 h -596.276 z"
         id="path24408"
         style="stroke-width:0.999998" />
    </clipPath>
    <clipPath
       clipPathUnits="userSpaceOnUse"
       id="clipPath24412">
      <path
         d="M -498.5889,413.6588 H 97.687105 v -595.276 H -498.5889 Z"
         id="path24414"
         style="stroke-width:0.999998" />
    </clipPath>
    <clipPath
       clipPathUnits="userSpaceOnUse"
       id="clipPath24418">
      <path
         d="m -140.1719,388.5514 h 596.276 v -595.276 h -596.276 z"
         id="path24420"
         style="stroke-width:0.999998" />
    </clipPath>
    <clipPath
       clipPathUnits="userSpaceOnUse"
       id="clipPath24424">
      <path
         d="M -545.417,584.5729 H 50.859001 V -10.7031 H -545.417 Z"
         id="path24426"
         style="stroke-width:0.999998" />
    </clipPath>
    <clipPath
       clipPathUnits="userSpaceOnUse"
       id="clipPath24430">
      <path
         d="M -568.2266,575.819 H 28.049401 V -19.457003 H -568.2266 Z"
         id="path24432"
         style="stroke-width:0.999998" />
    </clipPath>
    <clipPath
       clipPathUnits="userSpaceOnUse"
       id="clipPath24436">
      <path
         d="M -548.9834,585.8522 H 47.292601 V -9.4238027 H -548.9834 Z"
         id="path24438"
         style="stroke-width:0.999998" />
    </clipPath>
    <clipPath
       clipPathUnits="userSpaceOnUse"
       id="clipPath24442">
      <path
         d="M -528.0898,575.3815 H 68.186199 V -19.8945 H -528.0898 Z"
         id="path24444"
         style="stroke-width:0.999998" />
    </clipPath>
    <clipPath
       clipPathUnits="userSpaceOnUse"
       id="clipPath24448">
      <path
         d="M -557.0645,585.8483 H 39.211501 V -9.4277027 H -557.0645 Z"
         id="path24450"
         style="stroke-width:0.999998" />
    </clipPath>
    <clipPath
       clipPathUnits="userSpaceOnUse"
       id="clipPath24454">
      <path
         d="M -564.5732,585.8483 H 31.702801 V -9.4277027 H -564.5732 Z"
         id="path24456"
         style="stroke-width:0.999998" />
    </clipPath>
    <clipPath
       clipPathUnits="userSpaceOnUse"
       id="clipPath24460">
      <path
         d="M -567.7754,585.8522 H 28.500601 V -9.4238027 H -567.7754 Z"
         id="path24462"
         style="stroke-width:0.999998" />
    </clipPath>
    <clipPath
       clipPathUnits="userSpaceOnUse"
       id="clipPath24466">
      <path
         d="M -561.4131,585.8522 H 34.862903 V -9.4238027 H -561.4131 Z"
         id="path24468"
         style="stroke-width:0.999998" />
    </clipPath>
    <clipPath
       clipPathUnits="userSpaceOnUse"
       id="clipPath24472">
      <path
         d="m -213.3652,54.5118 h 596.276 v -595.276 h -596.276 z"
         id="path24474"
         style="stroke-width:0.999998" />
    </clipPath>
    <clipPath
       clipPathUnits="userSpaceOnUse"
       id="clipPath24478">
      <path
         d="m -381.9111,54.5118 h 596.276 v -595.276 h -596.276 z"
         id="path24480"
         style="stroke-width:0.999998" />
    </clipPath>
    <clipPath
       clipPathUnits="userSpaceOnUse"
       id="clipPath24484">
      <path
         d="m -297.6377,115.8126 h 596.276 v -595.276 h -596.276 z"
         id="path24486"
         style="stroke-width:0.999998" />
    </clipPath>
    <clipPath
       clipPathUnits="userSpaceOnUse"
       id="clipPath24490">
      <path
         d="M -96.685502,413.6569 H 499.5905 v -595.276 H -96.685502 Z"
         id="path24492"
         style="stroke-width:0.999998" />
    </clipPath>
    <clipPath
       clipPathUnits="userSpaceOnUse"
       id="clipPath24496">
      <path
         d="M -576.3691,585.5885 H 19.906905 V -9.6875027 H -576.3691 Z"
         id="path24498"
         style="stroke-width:0.999998" />
    </clipPath>
    <clipPath
       clipPathUnits="userSpaceOnUse"
       id="clipPath24502">
      <path
         d="M -574.5459,585.8522 H 21.730103 V -9.4238027 H -574.5459 Z"
         id="path24504"
         style="stroke-width:0.999998" />
    </clipPath>
  </defs>
  <sodipodi:namedview
     id="namedview23597"
     pagecolor="#ffffff"
     bordercolor="#000000"
     borderopacity="0.25"
     inkscape:showpageshadow="2"
     inkscape:pageopacity="0.0"
     inkscape:pagecheckerboard="0"
     inkscape:deskcolor="#d1d1d1"
     showgrid="false"
     inkscape:zoom="0.29734106"
     inkscape:cx="-215.24105"
     inkscape:cy="396.85068"
     inkscape:window-width="1419"
     inkscape:window-height="456"
     inkscape:window-x="0"
     inkscape:window-y="25"
     inkscape:window-maximized="0"
     inkscape:current-layer="svg23595">
    <inkscape:page
       x="0"
       y="0"
       id="page23601"
       width="795.03467"
       height="793.70135" />
  </sodipodi:namedview>
  <path
     d="M 396.85 87.4637 C 426.274 87.4637 450.391 64.8024 452.738 35.9825 C 434.517 33.1838 415.853 31.7292 396.85 31.7292 C 377.846 31.7292 359.185 33.1838 340.963 35.9838 C 343.309 64.8024 367.427 87.4637 396.85 87.4637"
     style="fill:#000000;fill-opacity:1;fill-rule:nonzero;stroke:none"
     id="path23715" />
  <path
     d="M 396.848 391.31 C 396.848 391.31 433.287 370.271 457.823 356.106 C 489.328 337.917 531.932 290.997 530.532 234.286 C 544.752 243.912 560.342 247.026 585.582 249.388 C 634.515 253.964 710.518 210.214 710.651 210.137 C 657.605 121.177 567.818 56.6748 462.228 37.5789 C 461.88 41.2749 461.228 44.8775 460.295 48.3682 C 549.506 66.1828 625.422 120.816 671.522 195.772 C 658.322 202.078 641.062 209.357 624.655 213.966 C 613.277 217.213 583.821 222.242 560.46 213.628 C 537.098 205.016 510.381 172.567 499.481 156.645 L 438.2 82.3921 C 434.321 85.5401 430.08 88.2588 425.543 90.4654 C 447.407 124.044 475.146 166.803 483.666 179.985 C 493.756 195.593 499.748 218.893 499.748 237.016 C 499.748 256.925 492.161 276.3 480.509 293.058 C 469.052 309.718 453.431 323.144 442.407 329.397 C 428.071 337.674 409.668 348.299 396.848 355.701 C 384.027 348.299 365.625 337.674 351.289 329.397 C 340.265 323.144 324.644 309.718 313.187 293.058 C 301.535 276.3 293.948 256.925 293.948 237.016 C 293.948 218.893 299.94 195.593 310.03 179.985 C 318.55 166.803 346.289 124.044 368.153 90.4654 C 363.616 88.2588 359.376 85.5401 355.495 82.3921 L 294.216 156.645 C 283.315 172.567 256.598 205.016 233.235 213.628 C 209.875 222.242 180.419 217.213 169.041 213.966 C 152.634 209.357 135.374 202.078 122.174 195.772 C 168.274 120.816 244.19 66.1828 333.401 48.3682 C 332.468 44.8775 331.816 41.2749 331.469 37.5789 C 225.878 56.6748 136.091 121.177 83.0448 210.137 C 83.1781 210.214 159.181 253.964 208.112 249.388 C 233.354 247.026 248.944 243.912 263.164 234.286 C 261.764 290.997 304.368 337.917 335.873 356.106 C 360.409 370.271 396.848 391.31 396.848 391.31"
     style="fill:#000000;fill-opacity:1;fill-rule:nonzero;stroke:none"
     id="path23719" />
  <path
     d="M 284.487 72.6824 C 280.835 73.8704 276.151 77.2731 278.466 83.3997 C 280.78 89.525 287.259 88.1744 289.37 87.0637 C 291.48 85.953 292.344 85.6584 293.844 84.977 C 309.367 77.9224 325.747 72.4224 342.78 68.6544 C 340.68 65.6144 338.835 62.3904 337.264 59.0104 C 320.775 61.8891 304.682 65.9264 289.108 71.1064 C 287.563 71.6211 286.031 72.1797 284.487 72.6824"
     style="fill:#000000;fill-opacity:1;fill-rule:nonzero;stroke:none"
     id="path23723" />
  <path
     d="M 509.215 72.6824 C 512.866 73.8704 517.548 77.2731 515.235 83.3997 C 512.92 89.525 506.442 88.1744 504.331 87.0637 C 502.22 85.953 501.356 85.6584 499.856 84.977 C 484.334 77.9224 467.954 72.4224 450.92 68.6544 C 453.02 65.6144 454.866 62.3904 456.436 59.0104 C 472.926 61.8891 489.018 65.9264 504.592 71.1064 C 506.138 71.6211 507.668 72.1797 509.215 72.6824"
     style="fill:#000000;fill-opacity:1;fill-rule:nonzero;stroke:none"
     id="path23727" />
  <path
     d="M 396.85 154.417 C 400.985 154.417 404.335 151.065 404.335 146.93 L 402.606 96.7918 C 400.709 96.9571 398.79 97.0585 396.85 97.0585 C 394.909 97.0585 392.991 96.9571 391.094 96.7918 L 389.365 146.93 C 389.365 151.065 392.715 154.417 396.85 154.417"
     style="fill:#000000;fill-opacity:1;fill-rule:nonzero;stroke:none"
     id="path23731" />
  <path
     d="M 128.914 551.543 C 114.201 526.062 82.5168 516.51 56.3862 528.887 C 63.0715 546.064 71.1435 562.955 80.6448 579.412 C 90.1461 595.868 100.738 611.303 112.274 625.685 C 136.057 609.243 143.625 577.027 128.914 551.543"
     style="fill:#000000;fill-opacity:1;fill-rule:nonzero;stroke:none"
     id="path23735" />
  <path
     d="M 392.053 399.623 C 392.053 399.623 355.613 378.586 331.077 364.419 C 299.573 346.23 237.636 332.791 189.224 362.36 C 190.45 345.234 185.352 330.175 174.776 307.135 C 154.274 262.469 78.3831 218.523 78.2511 218.449 C 27.7326 308.867 16.7659 418.875 53.0245 519.868 C 56.3965 518.32 59.8432 517.087 63.3312 516.149 C 34.1539 429.98 43.5099 336.919 85.3751 259.517 C 97.4364 267.794 112.37 279.103 124.564 291.007 C 133.064 299.237 152.148 322.233 156.37 346.771 C 160.59 371.31 145.85 410.672 137.511 428.074 L 103.844 518.271 C 108.511 520.055 112.987 522.371 117.167 525.196 C 135.312 489.472 158.472 444.068 165.631 430.096 C 174.103 413.558 191.284 396.719 206.98 387.656 C 224.221 377.7 244.795 374.583 265.133 376.295 C 285.289 377.888 304.727 384.704 315.656 391.123 C 329.992 399.402 348.393 410.027 361.213 417.428 L 361.213 470.035 C 361.309 482.708 357.493 502.951 348.794 521.201 C 340.106 539.672 327.122 555.929 309.88 565.883 C 294.185 574.945 271.011 581.407 252.448 580.475 C 236.771 579.685 185.872 577.041 145.86 574.893 C 146.219 579.928 145.984 584.961 145.196 589.893 L 240.143 605.838 C 259.383 607.317 300.841 614.232 319.981 630.156 C 339.122 646.081 349.493 674.104 352.372 685.584 C 356.582 702.094 358.912 720.682 360.049 735.265 C 272.083 732.82 186.812 694.393 126.779 626.041 C 124.222 628.594 121.43 630.961 118.404 633.109 C 187.735 715.005 288.489 760.51 392.054 761.969 C 392.053 761.817 391.942 674.122 363.51 634.034 C 348.846 613.357 338.353 601.409 322.907 593.909 C 372.721 566.768 392.053 506.409 392.052 470.032 C 392.052 441.699 392.053 399.623 392.053 399.623"
     style="fill:#000000;fill-opacity:1;fill-rule:nonzero;stroke:none"
     id="path23739" />
  <path
     d="M 172.294 656.246 C 175.149 658.814 180.437 661.167 184.586 656.101 C 188.733 651.033 184.323 646.098 182.306 644.825 C 180.289 643.551 179.602 642.951 178.263 641.994 C 164.39 632.079 151.437 620.645 139.658 607.774 C 138.075 611.113 136.206 614.325 134.063 617.374 C 144.802 630.215 156.343 642.134 168.619 653.03 C 169.837 654.113 171.086 655.158 172.294 656.246"
     style="fill:#000000;fill-opacity:1;fill-rule:nonzero;stroke:none"
     id="path23743" />
  <path
     d="M 59.9297 461.623 C 59.1324 457.868 59.739 452.11 66.2004 451.052 C 72.6643 449.992 74.735 456.279 74.8257 458.662 C 74.919 461.047 75.0963 461.94 75.255 463.582 C 76.907 480.552 80.3363 497.487 85.5883 514.123 C 81.9056 513.823 78.1897 513.836 74.4777 514.167 C 68.727 498.448 64.1777 482.492 60.8777 466.415 C 60.5497 464.818 60.2684 463.214 59.9297 461.623"
     style="fill:#000000;fill-opacity:1;fill-rule:nonzero;stroke:none"
     id="path23747" />
  <path
     d="M 186.896 518.069 C 184.829 514.485 180.251 513.262 176.669 515.326 L 134.113 541.894 C 135.205 543.457 136.253 545.066 137.223 546.746 C 138.195 548.429 139.064 550.14 139.869 551.866 L 184.156 528.293 C 187.737 526.228 188.964 521.65 186.896 518.069"
     style="fill:#000000;fill-opacity:1;fill-rule:nonzero;stroke:none"
     id="path23751" />
  <path
     d="M 664.785 551.545 C 650.074 577.026 657.641 609.242 681.426 625.685 C 692.961 611.305 703.553 595.87 713.054 579.412 C 722.556 562.957 730.628 546.066 737.313 528.886 C 711.182 516.509 679.497 526.064 664.785 551.545"
     style="fill:#000000;fill-opacity:1;fill-rule:nonzero;stroke:none"
     id="path23755" />
  <path
     d="M 401.648 399.618 C 401.648 399.618 401.649 441.697 401.649 470.027 C 401.648 506.407 420.98 566.763 470.793 593.907 C 455.348 601.407 444.855 613.352 430.189 634.029 C 401.759 674.117 401.648 761.814 401.647 761.966 C 505.212 760.508 605.966 715.003 675.298 633.104 C 672.273 630.956 669.478 628.589 666.922 626.036 C 606.889 694.391 521.617 732.817 433.653 735.262 C 434.789 720.677 437.119 702.091 441.329 685.579 C 444.208 674.101 454.579 646.076 473.718 630.151 C 492.858 614.229 534.318 607.315 553.56 605.833 L 648.505 589.891 C 647.717 584.956 647.483 579.924 647.841 574.891 C 607.829 577.039 556.93 579.68 541.253 580.47 C 522.69 581.402 499.516 574.94 483.821 565.878 C 466.579 555.924 453.595 539.67 444.905 521.196 C 436.208 502.946 432.392 482.703 432.487 470.03 L 432.487 417.423 C 445.308 410.022 463.711 399.397 478.046 391.119 C 488.973 384.701 508.412 377.885 528.566 376.291 C 548.908 374.581 569.48 377.698 586.721 387.651 C 602.417 396.714 619.598 413.553 628.071 430.094 C 635.229 444.066 658.389 489.47 676.535 525.191 C 680.715 522.366 685.19 520.05 689.855 518.266 L 656.19 428.069 C 647.851 410.667 633.111 371.305 637.331 346.766 C 641.553 322.229 660.637 299.234 669.137 291.004 C 681.333 279.1 696.265 267.79 708.327 259.513 C 750.191 336.915 759.547 429.978 730.369 516.144 C 733.858 517.082 737.304 518.315 740.676 519.866 C 776.936 418.873 765.968 308.862 715.45 218.444 C 715.318 218.521 639.426 262.465 618.925 307.13 C 608.349 330.172 603.251 345.23 604.478 362.357 C 556.065 332.789 494.128 346.225 462.624 364.415 C 438.088 378.581 401.648 399.618 401.648 399.618"
     style="fill:#000000;fill-opacity:1;fill-rule:nonzero;stroke:none"
     id="path23759" />
  <path
     d="M 733.768 461.626 C 734.567 457.869 733.96 452.11 727.497 451.053 C 721.036 449.993 718.964 456.279 718.873 458.665 C 718.78 461.047 718.603 461.941 718.444 463.582 C 716.792 480.555 713.364 497.487 708.111 514.123 C 711.793 513.826 715.508 513.839 719.221 514.17 C 724.972 498.449 729.523 482.495 732.823 466.415 C 733.149 464.819 733.431 463.214 733.768 461.626"
     style="fill:#000000;fill-opacity:1;fill-rule:nonzero;stroke:none"
     id="path23763" />
  <path
     d="M 621.405 656.246 C 618.55 658.814 613.262 661.167 609.113 656.101 C 604.966 651.033 609.376 646.098 611.393 644.827 C 613.41 643.553 614.097 642.951 615.436 641.995 C 629.309 632.079 642.262 620.645 654.041 607.774 C 655.622 611.113 657.492 614.327 659.636 617.374 C 648.897 630.215 637.356 642.134 625.08 653.03 C 623.862 654.113 622.613 655.158 621.405 656.246"
     style="fill:#000000;fill-opacity:1;fill-rule:nonzero;stroke:none"
     id="path23767" />
  <path
     d="M 606.803 518.069 C 604.735 521.65 605.963 526.228 609.543 528.293 L 653.83 551.866 C 654.635 550.14 655.506 548.429 656.476 546.749 C 657.446 545.064 658.494 543.457 659.586 541.894 L 617.028 515.329 C 613.448 513.262 608.87 514.485 606.803 518.069"
     style="fill:#000000;fill-opacity:1;fill-rule:nonzero;stroke:none"
     id="path23771" />
</svg>
