<?xml version="1.0" encoding="UTF-8" standalone="no"?>
<!-- Created with Inkscape (http://www.inkscape.org/) -->

<svg
   version="1.1"
   id="svg27446"
   width="795.03467"
   height="793.70135"
   viewBox="0 0 795.03467 793.70135"
   sodipodi:docname="Chuukage Yae Kikyou.svg"
   inkscape:version="1.2 (dc2aeda, 2022-05-15)"
   xmlns:inkscape="http://www.inkscape.org/namespaces/inkscape"
   xmlns:sodipodi="http://sodipodi.sourceforge.net/DTD/sodipodi-0.dtd"
   xmlns="http://www.w3.org/2000/svg"
   xmlns:svg="http://www.w3.org/2000/svg">
  <defs
     id="defs27450">
    <clipPath
       clipPathUnits="userSpaceOnUse"
       id="clipPath28009">
      <path
         d="M -528.0898,575.3815 H 68.186199 V -19.8945 H -528.0898 Z"
         id="path28011"
         style="stroke-width:0.999998" />
    </clipPath>
    <clipPath
       clipPathUnits="userSpaceOnUse"
       id="clipPath28016">
      <path
         d="M -572.8174,586.1354 H 23.458606 V -9.1406027 H -572.8174 Z"
         id="path28018"
         style="stroke-width:0.999998" />
    </clipPath>
    <clipPath
       clipPathUnits="userSpaceOnUse"
       id="clipPath28022">
      <path
         d="m -381.8799,262.8566 h 596.276 v -595.276 h -596.276 z"
         id="path28024"
         style="stroke-width:0.999998" />
    </clipPath>
    <clipPath
       clipPathUnits="userSpaceOnUse"
       id="clipPath28028">
      <path
         d="M -574.5459,585.8522 H 21.730103 V -9.4238027 H -574.5459 Z"
         id="path28030"
         style="stroke-width:0.999998" />
    </clipPath>
    <clipPath
       clipPathUnits="userSpaceOnUse"
       id="clipPath28034">
      <path
         d="m -100.7324,405.6256 h 596.276 v -595.276 h -596.276 z"
         id="path28036"
         style="stroke-width:0.999998" />
    </clipPath>
    <clipPath
       clipPathUnits="userSpaceOnUse"
       id="clipPath28040">
      <path
         d="m -147.2676,140.5724 h 596.276 v -595.276 h -596.276 z"
         id="path28042"
         style="stroke-width:0.999998" />
    </clipPath>
    <clipPath
       clipPathUnits="userSpaceOnUse"
       id="clipPath28046">
      <path
         d="M -511.5713,336.2155 H 84.704702 v -595.276 H -511.5713 Z"
         id="path28048"
         style="stroke-width:0.999998" />
    </clipPath>
    <clipPath
       clipPathUnits="userSpaceOnUse"
       id="clipPath28052">
      <path
         d="m -400.5488,106.0958 h 596.276 v -595.276 h -596.276 z"
         id="path28054"
         style="stroke-width:0.999998" />
    </clipPath>
    <clipPath
       clipPathUnits="userSpaceOnUse"
       id="clipPath28058">
      <path
         d="m -327.0996,512.9928 h 596.276 v -595.276 h -596.276 z"
         id="path28060"
         style="stroke-width:0.999998" />
    </clipPath>
    <clipPath
       clipPathUnits="userSpaceOnUse"
       id="clipPath28064">
      <path
         d="M -538.2217,577.9479 H 58.054299 V -17.328098 H -538.2217 Z"
         id="path28066"
         style="stroke-width:0.999998" />
    </clipPath>
    <clipPath
       clipPathUnits="userSpaceOnUse"
       id="clipPath28070">
      <path
         d="M -536.6982,584.5729 H 59.577804 V -10.7031 H -536.6982 Z"
         id="path28072"
         style="stroke-width:0.999998" />
    </clipPath>
    <clipPath
       clipPathUnits="userSpaceOnUse"
       id="clipPath28076">
      <path
         d="M -557.4951,577.8502 H 38.780903 V -17.4258 H -557.4951 Z"
         id="path28078"
         style="stroke-width:0.999998" />
    </clipPath>
    <clipPath
       clipPathUnits="userSpaceOnUse"
       id="clipPath28082">
      <path
         d="M -576.3691,585.5885 H 19.906905 V -9.6875027 H -576.3691 Z"
         id="path28084"
         style="stroke-width:0.999998" />
    </clipPath>
    <clipPath
       clipPathUnits="userSpaceOnUse"
       id="clipPath28088">
      <path
         d="M -586.5449,579.5026 H 9.7311002 V -15.7734 H -586.5449 Z"
         id="path28090"
         style="stroke-width:0.999998" />
    </clipPath>
    <clipPath
       clipPathUnits="userSpaceOnUse"
       id="clipPath28094">
      <path
         d="M -550.2637,577.3248 H 46.012306 V -17.951198 H -550.2637 Z"
         id="path28096"
         style="stroke-width:0.999998" />
    </clipPath>
    <clipPath
       clipPathUnits="userSpaceOnUse"
       id="clipPath28101">
      <path
         d="M -584.1943,578.9381 H 12.081705 V -16.337903 H -584.1943 Z"
         id="path28103"
         style="stroke-width:0.999998" />
    </clipPath>
    <clipPath
       clipPathUnits="userSpaceOnUse"
       id="clipPath28107">
      <path
         d="M -556.4014,578.0143 H 39.874606 V -17.2617 H -556.4014 Z"
         id="path28109"
         style="stroke-width:0.999998" />
    </clipPath>
    <clipPath
       clipPathUnits="userSpaceOnUse"
       id="clipPath28113">
      <path
         d="M -568.2266,575.819 H 28.049401 V -19.457003 H -568.2266 Z"
         id="path28115"
         style="stroke-width:0.999998" />
    </clipPath>
    <clipPath
       clipPathUnits="userSpaceOnUse"
       id="clipPath28119">
      <path
         d="M -540.8213,585.8483 H 55.454701 V -9.4277027 H -540.8213 Z"
         id="path28121"
         style="stroke-width:0.999998" />
    </clipPath>
    <clipPath
       clipPathUnits="userSpaceOnUse"
       id="clipPath28125">
      <path
         d="M -548.9834,585.8522 H 47.292601 V -9.4238027 H -548.9834 Z"
         id="path28127"
         style="stroke-width:0.999998" />
    </clipPath>
    <clipPath
       clipPathUnits="userSpaceOnUse"
       id="clipPath28131">
      <path
         d="M -553.8975,585.8483 H 42.378504 V -9.4277027 H -553.8975 Z"
         id="path28133"
         style="stroke-width:0.999998" />
    </clipPath>
    <clipPath
       clipPathUnits="userSpaceOnUse"
       id="clipPath28137">
      <path
         d="M -564.5732,585.8483 H 31.702801 V -9.4277027 H -564.5732 Z"
         id="path28139"
         style="stroke-width:0.999998" />
    </clipPath>
    <clipPath
       clipPathUnits="userSpaceOnUse"
       id="clipPath28143">
      <path
         d="M -567.7754,585.8522 H 28.500601 V -9.4238027 H -567.7754 Z"
         id="path28145"
         style="stroke-width:0.999998" />
    </clipPath>
    <clipPath
       clipPathUnits="userSpaceOnUse"
       id="clipPath28149">
      <path
         d="M -557.0645,585.8483 H 39.211501 V -9.4277027 H -557.0645 Z"
         id="path28151"
         style="stroke-width:0.999998" />
    </clipPath>
    <clipPath
       clipPathUnits="userSpaceOnUse"
       id="clipPath28155">
      <path
         d="M -531.1924,581.5885 H 65.083599 V -13.6875 H -531.1924 Z"
         id="path28157"
         style="stroke-width:0.999998" />
    </clipPath>
    <clipPath
       clipPathUnits="userSpaceOnUse"
       id="clipPath28161">
      <path
         d="M -545.417,584.5729 H 50.859001 V -10.7031 H -545.417 Z"
         id="path28163"
         style="stroke-width:0.999998" />
    </clipPath>
    <clipPath
       clipPathUnits="userSpaceOnUse"
       id="clipPath28167">
      <path
         d="M -542.9326,584.5729 H 53.343399 V -10.7031 H -542.9326 Z"
         id="path28169"
         style="stroke-width:0.999998" />
    </clipPath>
    <clipPath
       clipPathUnits="userSpaceOnUse"
       id="clipPath28173">
      <path
         d="M -561.4131,585.8522 H 34.862903 V -9.4238027 H -561.4131 Z"
         id="path28175"
         style="stroke-width:0.999998" />
    </clipPath>
  </defs>
  <sodipodi:namedview
     id="namedview27448"
     pagecolor="#ffffff"
     bordercolor="#000000"
     borderopacity="0.25"
     inkscape:showpageshadow="2"
     inkscape:pageopacity="0.0"
     inkscape:pagecheckerboard="0"
     inkscape:deskcolor="#d1d1d1"
     showgrid="false"
     inkscape:zoom="0.29734106"
     inkscape:cx="-215.24105"
     inkscape:cy="396.85068"
     inkscape:window-width="1419"
     inkscape:window-height="456"
     inkscape:window-x="0"
     inkscape:window-y="25"
     inkscape:window-maximized="0"
     inkscape:current-layer="svg27446">
    <inkscape:page
       x="0"
       y="0"
       id="page27452"
       width="795.03467"
       height="793.70135" />
  </sodipodi:namedview>
  <path
     d="M 534.065 141.461 L 582.401 141.461 L 597.329 187.406 C 611.15 189.537 623.009 193.716 635.025 200.318 C 638.509 202.224 642.018 204.322 645.633 206.617 L 611.465 101.461 L 500.877 101.461 C 504.157 104.174 507.22 106.852 510.096 109.56 C 520.109 118.964 527.769 128.95 534.065 141.461"
     style="fill:#000000;fill-opacity:1;fill-rule:nonzero;stroke:none"
     id="path27566" />
  <path
     d="M 436.133 683.99 L 396.849 712.531 L 357.605 684.018 C 346.732 689.602 336.099 693.042 324.461 694.93 C 318.961 695.831 313.251 696.411 307.128 696.787 L 396.85 761.974 L 486.585 696.779 C 480.502 696.402 474.825 695.823 469.357 694.93 C 457.678 693.037 447.009 689.583 436.133 683.99"
     style="fill:#000000;fill-opacity:1;fill-rule:nonzero;stroke:none"
     id="path27570" />
  <path
     d="M 196.357 187.43 L 211.294 141.458 L 259.685 141.458 C 265.989 128.943 273.646 118.961 283.65 109.561 C 286.526 106.852 289.59 104.176 292.871 101.461 L 182.237 101.461 L 148.053 206.666 C 151.694 204.353 155.228 202.239 158.736 200.321 C 170.741 193.727 182.592 189.55 196.357 187.43"
     style="fill:#000000;fill-opacity:1;fill-rule:nonzero;stroke:none"
     id="path27574" />
  <path
     d="M 134.31 540.834 C 134.31 534.902 134.85 528.965 135.83 522.889 L 96.6181 494.402 L 111.611 448.256 C 101.701 438.417 94.5941 428.072 88.7608 415.684 C 87.0515 412.066 85.4341 408.277 83.8488 404.266 L 49.5982 509.681 L 139.255 574.821 C 139.185 574.55 139.113 574.277 139.043 574.009 C 136.049 562.337 134.341 551.829 134.31 540.834"
     style="fill:#000000;fill-opacity:1;fill-rule:nonzero;stroke:none"
     id="path27578" />
  <path
     d="M 682.095 448.287 L 697.078 494.402 L 657.931 522.844 C 658.907 528.943 659.447 534.883 659.443 540.852 C 659.416 551.82 657.708 562.325 654.718 573.997 C 654.652 574.253 654.582 574.513 654.515 574.768 L 744.103 509.68 L 709.875 404.339 C 708.299 408.323 706.691 412.084 704.994 415.678 C 699.146 428.09 692.019 438.454 682.095 448.287"
     style="fill:#000000;fill-opacity:1;fill-rule:nonzero;stroke:none"
     id="path27582" />
  <path
     d="M 509.173 350.475 L 445.749 374.644 C 446.55 376.43 447.258 378.276 447.885 380.176 C 448.501 382.079 448.916 384.004 449.313 385.923 L 514.918 368.179 C 519.805 366.588 522.485 361.34 520.894 356.452 C 519.309 351.559 514.058 348.887 509.173 350.475 M 428.4 440.136 C 426.781 441.309 425.08 442.303 423.379 443.271 L 460.53 500.18 C 463.549 504.339 469.372 505.263 473.528 502.243 C 477.694 499.219 478.608 493.401 475.588 489.243 L 433.007 436.393 C 431.557 437.705 430.02 438.953 428.4 440.136 M 667.538 338.104 C 662.457 354.062 656.715 372.427 647.627 391.886 C 638.446 411.563 611.982 433.188 577.377 427.188 L 449.537 406.752 C 448.698 411.17 447.318 415.454 445.389 419.557 L 560.853 478.177 C 592.37 493.661 601.067 526.716 596.934 548.031 C 592.843 569.114 586.701 587.346 581.439 603.252 C 576.167 619.148 572.804 638.83 572.804 638.83 C 572.804 638.83 553.05 635.95 536.296 636.038 C 519.548 636.136 500.306 636.349 478.99 633.721 C 457.437 631.065 428.695 612.578 423.712 577.817 L 403.648 449.857 C 399.189 450.424 394.676 450.495 390.181 449.929 L 370.108 577.854 C 365.124 612.617 336.375 631.106 314.824 633.76 C 293.506 636.388 274.271 636.177 257.523 636.084 C 240.767 635.984 221.015 638.862 221.015 638.862 C 221.015 638.862 217.647 619.193 212.379 603.284 C 207.111 587.385 200.974 569.153 196.884 548.071 C 192.747 526.752 201.448 493.7 232.966 478.216 L 348.403 419.633 C 346.488 415.568 345.083 411.26 344.233 406.808 L 216.37 427.251 C 181.764 433.251 155.297 411.623 146.115 391.947 C 137.033 372.484 131.286 354.124 126.199 338.164 C 121.111 322.203 112.269 304.304 112.269 304.304 C 112.269 304.304 129.945 295.023 143.443 285.1 C 156.937 275.177 172.373 263.701 191.166 253.295 C 210.16 242.775 244.284 240.838 268.755 266.027 L 360.117 357.662 C 363.389 354.586 367.077 351.97 371.045 349.783 L 312.091 234.495 C 295.692 203.439 308.086 171.586 323.955 156.769 C 339.655 142.114 355.344 130.978 368.949 121.209 C 382.557 111.438 396.851 97.497 396.851 97.497 C 396.851 97.497 411.14 111.438 424.748 121.209 C 438.356 130.978 454.041 142.114 469.744 156.769 C 485.613 171.586 498.006 203.439 481.605 234.495 L 422.665 349.76 C 426.601 351.922 430.255 354.562 433.564 357.662 L 524.996 265.969 C 549.458 240.774 583.587 242.717 602.583 253.234 C 621.37 263.635 636.811 275.117 650.311 285.036 C 663.798 294.963 681.474 304.243 681.474 304.243 C 681.474 304.243 672.637 322.138 667.538 338.104 M 734.143 278.374 C 731.196 276.613 710.663 264.815 674.862 238.643 C 637.925 211.554 621.403 199.79 592.134 196.175 C 579.983 194.641 566.298 195.234 552.466 199.705 C 546.312 201.694 540.004 204.494 533.968 208.127 C 535.558 201.262 536.27 194.398 536.26 187.933 C 536.238 173.394 532.574 160.195 527.358 149.114 C 514.876 122.393 498.584 110.316 461.405 83.5583 C 425.452 57.5957 407.887 41.7144 405.301 39.4558 C 402.715 37.1998 396.851 31.7291 396.851 31.7291 C 396.851 31.7291 390.985 37.1998 388.4 39.4558 C 385.813 41.7144 368.249 57.5957 332.296 83.5583 C 295.118 110.316 278.824 122.393 266.343 149.114 C 261.127 160.195 257.463 173.394 257.44 187.933 C 257.43 194.398 258.146 201.263 259.736 208.13 C 253.698 204.495 247.392 201.697 241.238 199.709 C 227.406 195.237 213.72 194.643 201.57 196.179 C 172.301 199.793 155.778 211.557 118.842 238.646 C 83.0381 264.817 62.5075 276.614 59.5608 278.377 C 56.6155 280.138 49.5995 284.026 49.5995 284.026 C 49.5995 284.026 52.9901 291.294 54.3381 294.45 C 55.6861 297.607 65.3634 319.22 78.9447 361.438 C 92.9047 405.066 99.3567 424.292 120.911 444.419 C 129.838 452.805 141.259 460.369 155.078 464.883 C 161.226 466.891 167.974 468.333 174.997 468.94 C 169.671 473.56 165.062 478.693 161.269 483.932 C 152.743 495.705 147.949 508.536 145.655 520.568 C 140.047 549.521 146.13 568.869 160.479 612.369 C 174.306 654.508 179.182 677.68 179.946 681.026 C 180.711 684.371 182.24 692.245 182.24 692.245 C 182.24 692.245 190.202 691.265 193.619 690.961 C 197.038 690.653 220.584 688.13 264.931 688.257 C 310.736 688.463 331.017 688.27 356.82 673.989 C 367.553 668.09 378.276 659.565 386.839 647.817 C 390.648 642.59 394.105 636.617 396.855 630.128 C 399.603 636.617 403.059 642.588 406.869 647.814 C 415.432 659.562 426.153 668.085 436.888 673.986 C 462.692 688.265 482.973 688.461 528.777 688.254 C 573.125 688.127 596.67 690.65 600.09 690.958 C 603.507 691.262 611.469 692.242 611.469 692.242 C 611.469 692.242 612.997 684.369 613.762 681.024 C 614.527 677.677 619.402 654.505 633.229 612.366 C 647.579 568.866 653.661 549.519 648.054 520.565 C 645.759 508.533 640.966 495.7 632.439 483.927 C 628.645 478.691 624.019 473.601 618.697 468.981 C 625.719 468.372 632.478 466.888 638.626 464.877 C 652.445 460.364 663.865 452.803 672.793 444.417 C 694.347 424.289 700.801 405.06 714.758 361.435 C 728.342 319.218 738.016 297.604 739.366 294.447 C 740.711 291.291 744.103 284.022 744.103 284.022 C 744.103 284.022 737.088 280.135 734.143 278.374 M 442.135 396.752 C 442.135 371.755 421.875 351.495 396.883 351.495 C 371.889 351.495 351.631 371.755 351.631 396.752 C 351.631 421.745 371.889 442.003 396.883 442.003 C 421.875 442.003 442.135 421.745 442.135 396.752 M 272.87 356.452 C 271.278 361.343 273.95 366.596 278.846 368.182 L 344.359 385.908 C 344.755 383.992 345.26 382.079 345.884 380.171 C 346.493 378.274 347.291 376.468 348.097 374.684 L 284.592 350.48 C 279.706 348.891 274.45 351.566 272.87 356.452 M 396.883 343.12 C 398.884 343.12 400.847 343.318 402.792 343.532 L 406.184 275.657 C 406.184 270.515 402.017 266.351 396.883 266.351 C 391.736 266.351 387.571 270.515 387.571 275.657 L 390.961 343.443 C 392.903 343.23 394.881 343.12 396.883 343.12 M 360.821 436.325 L 318.183 489.243 C 315.155 493.404 316.081 499.221 320.237 502.243 C 324.397 505.265 330.213 504.344 333.233 500.185 L 370.341 443.355 C 368.64 442.38 366.983 441.308 365.359 440.133 C 363.744 438.956 362.272 437.643 360.821 436.325"
     style="fill:#000000;fill-opacity:1;fill-rule:nonzero;stroke:none"
     id="path27586" />
</svg>
