<?xml version="1.0" encoding="UTF-8" standalone="no"?>
<!-- Created with Inkscape (http://www.inkscape.org/) -->

<svg
   version="1.1"
   id="svg21809"
   width="795.03467"
   height="793.70135"
   viewBox="0 0 795.03467 793.70135"
   sodipodi:docname="Hoso Kikyou.svg"
   inkscape:version="1.2 (dc2aeda, 2022-05-15)"
   xmlns:inkscape="http://www.inkscape.org/namespaces/inkscape"
   xmlns:sodipodi="http://sodipodi.sourceforge.net/DTD/sodipodi-0.dtd"
   xmlns="http://www.w3.org/2000/svg"
   xmlns:svg="http://www.w3.org/2000/svg">
  <defs
     id="defs21813">
    <clipPath
       clipPathUnits="userSpaceOnUse"
       id="clipPath22372">
      <path
         d="M -556.4014,578.0143 H 39.874606 V -17.2617 H -556.4014 Z"
         id="path22374"
         style="stroke-width:0.999998" />
    </clipPath>
    <clipPath
       clipPathUnits="userSpaceOnUse"
       id="clipPath22379">
      <path
         d="M -540.8213,585.8483 H 55.454701 V -9.4277027 H -540.8213 Z"
         id="path22381"
         style="stroke-width:0.999998" />
    </clipPath>
    <clipPath
       clipPathUnits="userSpaceOnUse"
       id="clipPath22385">
      <path
         d="M -553.8975,585.8483 H 42.378504 V -9.4277027 H -553.8975 Z"
         id="path22387"
         style="stroke-width:0.999998" />
    </clipPath>
    <clipPath
       clipPathUnits="userSpaceOnUse"
       id="clipPath22391">
      <path
         d="M -576.3691,585.5885 H 19.906905 V -9.6875027 H -576.3691 Z"
         id="path22393"
         style="stroke-width:0.999998" />
    </clipPath>
    <clipPath
       clipPathUnits="userSpaceOnUse"
       id="clipPath22397">
      <path
         d="m -257.8682,358.1822 h 596.276 v -595.276 h -596.276 z"
         id="path22399"
         style="stroke-width:0.999998" />
    </clipPath>
    <clipPath
       clipPathUnits="userSpaceOnUse"
       id="clipPath22403">
      <path
         d="M -568.2266,575.819 H 28.049401 V -19.457003 H -568.2266 Z"
         id="path22405"
         style="stroke-width:0.999998" />
    </clipPath>
    <clipPath
       clipPathUnits="userSpaceOnUse"
       id="clipPath22409">
      <path
         d="m -365.3994,272.0328 h 596.276 v -595.276 h -596.276 z"
         id="path22411"
         style="stroke-width:0.999998" />
    </clipPath>
    <clipPath
       clipPathUnits="userSpaceOnUse"
       id="clipPath22415">
      <path
         d="m -342.9307,354.1705 h 596.276 v -595.276 h -596.276 z"
         id="path22417"
         style="stroke-width:0.999998" />
    </clipPath>
    <clipPath
       clipPathUnits="userSpaceOnUse"
       id="clipPath22421">
      <path
         d="M -550.2637,577.3248 H 46.012306 V -17.951198 H -550.2637 Z"
         id="path22423"
         style="stroke-width:0.999998" />
    </clipPath>
    <clipPath
       clipPathUnits="userSpaceOnUse"
       id="clipPath22427">
      <path
         d="M -548.9834,585.8522 H 47.292601 V -9.4238027 H -548.9834 Z"
         id="path22429"
         style="stroke-width:0.999998" />
    </clipPath>
    <clipPath
       clipPathUnits="userSpaceOnUse"
       id="clipPath22433">
      <path
         d="M -557.4951,577.8502 H 38.780903 V -17.4258 H -557.4951 Z"
         id="path22435"
         style="stroke-width:0.999998" />
    </clipPath>
    <clipPath
       clipPathUnits="userSpaceOnUse"
       id="clipPath22439">
      <path
         d="M -567.7754,585.8522 H 28.500601 V -9.4238027 H -567.7754 Z"
         id="path22441"
         style="stroke-width:0.999998" />
    </clipPath>
    <clipPath
       clipPathUnits="userSpaceOnUse"
       id="clipPath22446">
      <path
         d="M -572.8174,586.1354 H 23.458606 V -9.1406027 H -572.8174 Z"
         id="path22448"
         style="stroke-width:0.999998" />
    </clipPath>
    <clipPath
       clipPathUnits="userSpaceOnUse"
       id="clipPath22452">
      <path
         d="M -545.417,584.5729 H 50.859001 V -10.7031 H -545.417 Z"
         id="path22454"
         style="stroke-width:0.999998" />
    </clipPath>
    <clipPath
       clipPathUnits="userSpaceOnUse"
       id="clipPath22458">
      <path
         d="M -574.5459,585.8522 H 21.730103 V -9.4238027 H -574.5459 Z"
         id="path22460"
         style="stroke-width:0.999998" />
    </clipPath>
    <clipPath
       clipPathUnits="userSpaceOnUse"
       id="clipPath22464">
      <path
         d="m -294.2246,225.2809 h 596.276 v -595.276 h -596.276 z"
         id="path22466"
         style="stroke-width:0.999998" />
    </clipPath>
    <clipPath
       clipPathUnits="userSpaceOnUse"
       id="clipPath22470">
      <path
         d="M -584.1943,578.9381 H 12.081705 V -16.337903 H -584.1943 Z"
         id="path22472"
         style="stroke-width:0.999998" />
    </clipPath>
    <clipPath
       clipPathUnits="userSpaceOnUse"
       id="clipPath22476">
      <path
         d="M -586.5449,579.5026 H 9.7311002 V -15.7734 H -586.5449 Z"
         id="path22478"
         style="stroke-width:0.999998" />
    </clipPath>
    <clipPath
       clipPathUnits="userSpaceOnUse"
       id="clipPath22482">
      <path
         d="m -227.7666,278.525 h 596.276 v -595.276 h -596.276 z"
         id="path22484"
         style="stroke-width:0.999998" />
    </clipPath>
    <clipPath
       clipPathUnits="userSpaceOnUse"
       id="clipPath22488">
      <path
         d="M -538.2217,577.9479 H 58.054299 V -17.328098 H -538.2217 Z"
         id="path22490"
         style="stroke-width:0.999998" />
    </clipPath>
    <clipPath
       clipPathUnits="userSpaceOnUse"
       id="clipPath22494">
      <path
         d="m -319.6436,297.6383 h 596.276 v -595.276 h -596.276 z"
         id="path22496"
         style="stroke-width:0.999998" />
    </clipPath>
    <clipPath
       clipPathUnits="userSpaceOnUse"
       id="clipPath22500">
      <path
         d="M -542.9326,584.5729 H 53.343399 V -10.7031 H -542.9326 Z"
         id="path22502"
         style="stroke-width:0.999998" />
    </clipPath>
    <clipPath
       clipPathUnits="userSpaceOnUse"
       id="clipPath22506">
      <path
         d="M -531.1924,581.5885 H 65.083599 V -13.6875 H -531.1924 Z"
         id="path22508"
         style="stroke-width:0.999998" />
    </clipPath>
    <clipPath
       clipPathUnits="userSpaceOnUse"
       id="clipPath22512">
      <path
         d="M -528.0898,575.3815 H 68.186199 V -19.8945 H -528.0898 Z"
         id="path22514"
         style="stroke-width:0.999998" />
    </clipPath>
    <clipPath
       clipPathUnits="userSpaceOnUse"
       id="clipPath22518">
      <path
         d="M -536.6982,584.5729 H 59.577804 V -10.7031 H -536.6982 Z"
         id="path22520"
         style="stroke-width:0.999998" />
    </clipPath>
    <clipPath
       clipPathUnits="userSpaceOnUse"
       id="clipPath22524">
      <path
         d="M -564.5732,585.8483 H 31.702801 V -9.4277027 H -564.5732 Z"
         id="path22526"
         style="stroke-width:0.999998" />
    </clipPath>
    <clipPath
       clipPathUnits="userSpaceOnUse"
       id="clipPath22530">
      <path
         d="M -561.4131,585.8522 H 34.862903 V -9.4238027 H -561.4131 Z"
         id="path22532"
         style="stroke-width:0.999998" />
    </clipPath>
    <clipPath
       clipPathUnits="userSpaceOnUse"
       id="clipPath22536">
      <path
         d="M -557.0645,585.8483 H 39.211501 V -9.4277027 H -557.0645 Z"
         id="path22538"
         style="stroke-width:0.999998" />
    </clipPath>
  </defs>
  <sodipodi:namedview
     id="namedview21811"
     pagecolor="#ffffff"
     bordercolor="#000000"
     borderopacity="0.25"
     inkscape:showpageshadow="2"
     inkscape:pageopacity="0.0"
     inkscape:pagecheckerboard="0"
     inkscape:deskcolor="#d1d1d1"
     showgrid="false"
     inkscape:zoom="0.29734106"
     inkscape:cx="-215.24105"
     inkscape:cy="396.85068"
     inkscape:window-width="1419"
     inkscape:window-height="456"
     inkscape:window-x="0"
     inkscape:window-y="25"
     inkscape:window-maximized="0"
     inkscape:current-layer="svg21809">
    <inkscape:page
       x="0"
       y="0"
       id="page21815"
       width="795.03467"
       height="793.70135" />
  </sodipodi:namedview>
  <path
     d="M 426.191 396.851 C 426.191 413.054 413.055 426.192 396.85 426.192 C 380.644 426.192 367.508 413.054 367.508 396.851 C 367.508 380.646 380.644 367.508 396.85 367.508 C 413.055 367.508 426.191 380.646 426.191 396.851"
     style="fill:#000000;fill-opacity:1;fill-rule:nonzero;stroke:none"
     id="path21929" />
  <path
     d="M 392.299 300.375 C 392.299 297.858 394.335 295.823 396.847 295.823 C 399.363 295.823 401.399 297.858 401.399 300.375 L 401.399 358.688 C 406.836 359.331 411.926 361.103 416.424 363.771 C 438.62 318.9 451.112 268.374 451.112 214.923 C 451.112 147.346 431.16 84.4355 396.85 31.7303 C 362.54 84.4355 342.587 147.346 342.587 214.923 C 342.587 268.374 355.079 318.899 377.275 363.771 C 381.772 361.103 386.862 359.331 392.299 358.688 Z"
     style="fill:#000000;fill-opacity:1;fill-rule:nonzero;stroke:none"
     id="path21933" />
  <path
     d="M 303.689 371.367 C 301.296 370.588 299.989 368.023 300.766 365.635 C 301.544 363.242 304.109 361.935 306.501 362.712 L 361.962 380.731 C 364.254 375.758 367.512 371.466 371.439 368.012 C 335.622 333.036 291.429 305.543 240.596 289.026 C 176.325 268.143 110.328 267.677 49.599 284.023 C 89.1229 332.94 142.788 371.356 207.059 392.239 C 257.892 408.758 309.806 412.49 359.34 405.244 C 358.194 400.143 358.081 394.758 359.15 389.388 Z"
     style="fill:#000000;fill-opacity:1;fill-rule:nonzero;stroke:none"
     id="path21937" />
  <path
     d="M 343.824 477.576 C 342.347 479.611 339.501 480.064 337.469 478.587 C 335.435 477.108 334.983 474.264 336.464 472.227 L 370.74 425.048 C 366.717 421.335 363.641 416.911 361.572 412.108 C 317.24 435.361 277.435 468.896 246.018 512.14 C 206.296 566.812 185.46 629.434 182.239 692.241 C 240.975 669.768 294.095 630.602 333.815 575.93 C 365.233 532.687 384.824 484.465 393.241 435.12 C 388.036 434.632 382.877 433.077 378.103 430.397 Z"
     style="fill:#000000;fill-opacity:1;fill-rule:nonzero;stroke:none"
     id="path21941" />
  <path
     d="M 457.241 472.227 C 458.72 474.263 458.269 477.106 456.236 478.582 C 454.204 480.062 451.357 479.61 449.878 477.574 L 415.602 430.398 C 410.825 433.078 405.666 434.632 400.458 435.118 C 408.878 484.466 428.47 532.684 459.886 575.927 C 499.606 630.599 552.726 669.767 611.465 692.238 C 608.242 629.433 587.407 566.811 547.686 512.14 C 516.269 468.896 476.462 435.362 432.132 412.108 C 430.06 416.908 426.985 421.332 422.964 425.046 Z"
     style="fill:#000000;fill-opacity:1;fill-rule:nonzero;stroke:none"
     id="path21945" />
  <path
     d="M 487.199 362.71 C 489.592 361.931 492.159 363.238 492.934 365.627 C 493.712 368.018 492.403 370.586 490.01 371.363 L 434.551 389.385 C 435.62 394.754 435.507 400.139 434.36 405.243 C 483.894 412.489 535.808 408.754 586.643 392.238 C 650.912 371.355 704.578 332.939 744.102 284.02 C 683.375 267.677 617.377 268.14 553.108 289.022 C 502.274 305.541 458.079 333.035 422.264 368.011 C 426.19 371.465 429.448 375.757 431.736 380.729 Z"
     style="fill:#000000;fill-opacity:1;fill-rule:nonzero;stroke:none"
     id="path21949" />
</svg>
