<?xml version="1.0" encoding="UTF-8" standalone="no"?>
<!-- Created with Inkscape (http://www.inkscape.org/) -->

<svg
   version="1.1"
   id="svg30741"
   width="793.70135"
   height="793.70099"
   viewBox="0 0 793.70135 793.70097"
   sodipodi:docname="Itowani Kage Kikyou.svg"
   inkscape:version="1.2 (dc2aeda, 2022-05-15)"
   xmlns:inkscape="http://www.inkscape.org/namespaces/inkscape"
   xmlns:sodipodi="http://sodipodi.sourceforge.net/DTD/sodipodi-0.dtd"
   xmlns="http://www.w3.org/2000/svg"
   xmlns:svg="http://www.w3.org/2000/svg">
  <defs
     id="defs30745">
    <clipPath
       clipPathUnits="userSpaceOnUse"
       id="clipPath30910">
      <path
         d="m -372.6357,389.3378 h 595.276 v -841.89 h -595.276 z"
         id="path30912"
         style="stroke-width:0.999998" />
    </clipPath>
    <clipPath
       clipPathUnits="userSpaceOnUse"
       id="clipPath30916">
      <path
         d="m -118.7749,242.0775 h 595.276 v -841.89 h -595.276 z"
         id="path30918"
         style="stroke-width:0.999998" />
    </clipPath>
  </defs>
  <sodipodi:namedview
     id="namedview30743"
     pagecolor="#ffffff"
     bordercolor="#000000"
     borderopacity="0.25"
     inkscape:showpageshadow="2"
     inkscape:pageopacity="0.0"
     inkscape:pagecheckerboard="0"
     inkscape:deskcolor="#d1d1d1"
     showgrid="false"
     inkscape:zoom="0.21024124"
     inkscape:cx="-470.88764"
     inkscape:cy="561.26002"
     inkscape:window-width="1419"
     inkscape:window-height="456"
     inkscape:window-x="0"
     inkscape:window-y="25"
     inkscape:window-maximized="0"
     inkscape:current-layer="svg30741">
    <inkscape:page
       x="0"
       y="0"
       id="page30747"
       width="793.70135"
       height="793.70099" />
  </sodipodi:namedview>
  <path
     d="m 496.848,359.117 -56.852,21.664 c 0.719,1.6 1.355,3.255 1.915,4.96 0.557,1.703 0.924,3.432 1.284,5.149 l 58.804,-15.906 c 4.377,-1.424 6.778,-6.124 5.357,-10.507 -1.423,-4.389 -6.131,-6.784 -10.508,-5.36 m -72.404,80.365 c -1.456,1.057 -2.97,1.945 -4.5,2.812 l 33.3,51.013 c 2.713,3.727 7.929,4.558 11.651,1.85 3.737,-2.708 4.554,-7.928 1.849,-11.654 l -38.169,-47.376 c -1.297,1.18 -2.677,2.3 -4.131,3.355 m -60.569,-3.412 -38.224,47.433 c -2.709,3.728 -1.887,8.947 1.843,11.654 3.726,2.71 8.937,1.882 11.649,-1.844 l 33.263,-50.94 c -1.53,-0.875 -3.016,-1.836 -4.47,-2.891 -1.442,-1.052 -2.77,-2.232 -4.061,-3.412 m -78.841,-71.593 c -1.427,4.383 0.968,9.088 5.357,10.509 l 58.72,15.891 c 0.357,-1.719 0.813,-3.433 1.368,-5.141 0.547,-1.702 1.263,-3.319 1.989,-4.918 L 295.543,359.12 c -4.382,-1.424 -9.092,0.972 -10.509,5.357 m 111.161,-11.952 c 1.792,0 3.555,0.177 5.296,0.368 l 3.037,-60.842 c 0,-4.608 -3.732,-8.342 -8.333,-8.342 -4.612,0 -8.349,3.734 -8.349,8.342 l 3.041,60.761 c 1.743,-0.191 3.519,-0.287 5.308,-0.287 m 0,78.421 c -16.765,-0.032 -30.323,-13.586 -30.355,-30.352 0.032,-16.758 13.59,-30.32 30.355,-30.348 16.757,0.028 30.312,13.59 30.333,30.348 -0.021,16.766 -13.576,30.32 -30.333,30.352 m 40.565,-30.349 c 0,-22.405 -18.164,-40.565 -40.565,-40.565 -22.401,0 -40.563,18.16 -40.563,40.565 0,22.401 18.162,40.562 40.563,40.562 22.401,0 40.565,-18.161 40.565,-40.562 m 230.017,-36.295 c -12.828,39.823 -17.2,52.584 -33.577,68.011 -6.73,6.297 -15.008,11.77 -25.038,15.03 l -0.036,0.011 c -12.909,4.169 -28.841,4.784 -48.478,-1.549 L 443.697,408.138 c -0.781,4.956 -2.362,9.774 -4.672,14.295 l 116.008,37.664 c 19.083,6.237 31.479,15.746 39.468,26.353 l 0.664,0.912 c 6.211,8.539 9.696,17.817 11.417,26.844 4.18,22.133 0.224,35.025 -12.808,74.797 -6.525,19.861 -10.973,35.599 -13.812,46.395 -1.421,5.388 -2.426,9.557 -3.084,12.398 -0.101,0.396 -0.186,0.771 -0.262,1.112 -7.792,-0.681 -29.471,-2.296 -62.289,-2.18 -41.84,0.098 -55.334,-0.116 -75.058,-10.934 -8.069,-4.448 -15.835,-10.627 -22.03,-19.159 -0.011,0 -0.027,-0.031 -0.027,-0.031 -7.952,-10.989 -13.465,-25.956 -13.506,-46.584 V 448.105 c -4.967,0.789 -10.035,0.768 -15.043,-0.022 l 0.021,121.964 c -0.03,20.072 -5.248,34.799 -12.864,45.68 l -0.657,0.908 c -6.211,8.541 -13.951,14.732 -22,19.159 -19.763,10.818 -33.252,11.042 -75.098,10.934 -20.915,-0.064 -37.244,0.555 -48.383,1.199 -5.581,0.32 -9.845,0.64 -12.755,0.899 -0.412,0.03 -0.79,0.062 -1.148,0.096 -1.754,-7.623 -6.912,-28.738 -17.164,-59.919 -13.02,-39.766 -16.99,-52.654 -12.806,-74.764 1.737,-9.046 5.228,-18.345 11.422,-26.869 -0.005,-0.008 0.022,-0.036 0.022,-0.036 7.99,-10.959 20.525,-20.824 40.136,-27.24 l 115.943,-37.68 c -2.286,-4.47 -3.825,-9.301 -4.626,-14.309 l -115.988,37.718 c -19.104,6.167 -34.723,5.758 -47.427,1.875 l -1.069,-0.344 c -10.039,-3.26 -18.317,-8.721 -25.014,-15.013 -16.394,-15.443 -20.772,-28.205 -33.606,-68.039 -6.402,-19.908 -12.036,-35.245 -16.093,-45.645 -2.021,-5.203 -3.651,-9.169 -4.789,-11.851 -0.16,-0.378 -0.315,-0.733 -0.45,-1.058 6.708,-4.023 25.191,-15.461 51.676,-34.843 33.797,-24.672 44.835,-32.428 67.151,-35.28 9.149,-1.144 19.06,-0.7 29.086,2.559 0.006,-0.011 0.044,0.011 0.044,0.011 12.892,4.209 26.142,13.086 38.312,29.748 l 71.656,98.629 c 3.549,-3.552 7.667,-6.516 12.187,-8.823 l -71.719,-98.658 c -11.77,-16.263 -16.202,-31.236 -16.441,-44.522 v -1.125 c 0,-10.549 2.633,-20.111 6.541,-28.428 9.621,-20.367 20.408,-28.47 54.328,-52.98 16.952,-12.245 29.799,-22.348 38.443,-29.413 4.317,-3.536 7.588,-6.311 9.79,-8.216 0.311,-0.272 0.6,-0.524 0.871,-0.756 5.896,5.136 22.487,19.181 49.101,38.385 33.913,24.51 44.688,32.613 54.304,52.959 3.912,8.338 6.553,17.909 6.553,28.449 0.01,0 0,0.043 0,0.043 -0.016,13.56 -4.362,28.908 -16.445,45.625 l -71.657,98.632 c 4.469,2.277 8.563,5.276 12.149,8.858 l 71.667,-98.689 c 11.828,-16.217 24.7,-25.069 37.265,-29.393 l 1.065,-0.347 c 10.036,-3.264 19.948,-3.709 29.065,-2.562 22.343,2.858 33.386,10.606 67.176,35.297 16.882,12.343 30.456,21.435 39.852,27.46 4.696,3.022 8.339,5.27 10.842,6.777 0.352,0.215 0.68,0.409 0.984,0.595 -3.071,7.198 -11.299,27.312 -21.339,58.562 m 31.92,-69.74 c -0.032,-0.021 -0.047,-0.029 -0.052,-0.03 l -0.043,-0.026 c -0.012,-0.005 -0.023,-0.01 -0.028,-0.018 -0.437,-0.268 -20.208,-11.54 -53.278,-35.697 -33.091,-24.284 -47.92,-34.836 -74.151,-38.072 -3.513,-0.452 -7.159,-0.698 -10.893,-0.698 -7.912,0 -16.261,1.127 -24.685,3.87 -5.536,1.782 -11.052,4.289 -16.484,7.553 1.426,-6.163 2.096,-12.159 2.096,-17.957 -0.011,0 0,-0.043 0,-0.043 0,-13.081 -3.304,-24.863 -7.987,-34.831 -11.18,-23.939 -25.795,-34.767 -59.115,-58.758 -16.693,-12.048 -29.302,-21.965 -37.726,-28.857 -4.205,-3.446 -7.364,-6.13 -9.472,-7.951 -1.047,-0.915 -1.837,-1.599 -2.356,-2.061 -0.263,-0.238 -0.467,-0.412 -0.604,-0.532 -0.065,-0.062 -0.117,-0.102 -0.167,-0.155 -0.032,-0.021 -0.046,-0.04 -0.089,-0.083 -0.023,-0.016 -0.055,-0.037 -0.096,-0.08 l -2.331,-2.122 -5.068,-4.61 -7.577,6.927 h 0.005 c -1.141,1.024 -18.073,16.26 -50.292,39.532 -33.322,23.983 -47.935,34.811 -59.118,58.761 -4.681,9.933 -7.963,21.659 -7.984,34.689 v 0.008 0.123 0.083 c -0.012,5.797 0.695,11.793 2.121,17.949 -5.452,-3.283 -10.952,-5.789 -16.51,-7.58 -8.435,-2.751 -16.79,-3.859 -24.684,-3.859 -3.752,0 -7.382,0.246 -10.892,0.698 -26.223,3.225 -41.051,13.776 -74.157,38.05 -16.619,12.156 -29.944,21.087 -39.106,26.962 -4.564,2.934 -8.1023,5.112 -10.4757,6.548 -1.192,0.721 -2.1053,1.262 -2.7053,1.61 -0.2933,0.177 -0.5227,0.309 -0.6773,0.401 -0.0814,0.054 -0.1454,0.086 -0.1934,0.115 -0.0266,0.021 -0.048,0.029 -0.1013,0.059 -0.0213,0.008 -0.032,0.021 -0.064,0.042 l -2.7907,1.594 -5.9586,3.388 4.184,9.196 c 0.1613,0.38 0.0267,0.052 0.1507,0.34 1.0413,2.329 10.1453,23.101 21.9736,59.845 12.502,39.111 18.296,56.357 37.613,74.397 8.028,7.536 18.221,14.301 30.648,18.348 5.494,1.792 11.401,3.047 17.692,3.604 -4.752,4.144 -8.81,8.625 -12.198,13.311 -7.686,10.574 -11.936,22.038 -13.998,32.861 -1.235,6.388 -1.876,12.377 -1.876,18.341 0.058,17.956 5.516,34.497 15.153,63.937 6.419,19.563 10.792,34.99 13.56,45.519 1.38,5.26 2.363,9.289 2.988,11.995 0.315,1.357 0.551,2.372 0.695,3.068 0.08,0.341 0.134,0.598 0.176,0.77 0.022,0.096 0.026,0.159 0.038,0.224 l 0.006,0.011 0.689,3.336 1.384,6.7 10.209,-1.153 v -0.011 c 1.903,-0.183 23.336,-2.416 60.987,-2.416 0.931,-0.011 1.897,0 2.913,0.009 3.592,0 6.986,0.014 10.226,0.014 33.865,0.062 51.141,-1.126 72.155,-12.807 9.666,-5.303 19.243,-12.893 26.926,-23.477 3.418,-4.683 6.424,-9.919 8.898,-15.735 2.466,5.816 5.474,11.052 8.891,15.735 7.679,10.584 17.268,18.164 26.926,23.466 21.044,11.692 38.342,12.88 72.312,12.818 3.178,0 6.522,-0.014 10.035,-0.014 1.025,-0.02 1.956,-0.02 2.913,-0.02 19.65,0 34.926,0.61 45.282,1.23 5.179,0.298 9.119,0.609 11.77,0.833 1.331,0.119 2.331,0.203 3.003,0.279 0.338,0.02 0.589,0.054 0.761,0.064 0.085,0.01 0.159,0.01 0.224,0.021 v 0.011 l 3.397,0.374 6.811,0.748 1.989,-9.75 c 0.022,-0.063 0.022,-0.083 0.022,-0.083 l 0.005,-0.045 c 0,0 0,-0.01 0.004,-0.02 0.103,-0.483 4.727,-22.803 17.491,-61.694 9.642,-29.448 15.093,-45.991 15.148,-63.945 0,-5.965 -0.631,-11.934 -1.863,-18.344 -2.061,-10.825 -6.328,-22.282 -14.001,-32.861 -3.404,-4.708 -7.496,-9.183 -12.284,-13.336 6.317,-0.557 12.252,-1.776 17.768,-3.571 12.448,-4.049 22.62,-10.814 30.648,-18.361 19.322,-18.029 25.109,-35.276 37.617,-74.373 6.307,-19.6 11.847,-34.665 15.789,-44.797 1.979,-5.059 3.549,-8.902 4.64,-11.467 0.535,-1.272 0.956,-2.237 1.235,-2.887 0.133,-0.316 0.24,-0.553 0.314,-0.718 0.035,-0.08 0.066,-0.154 0.082,-0.204 0.025,-0.028 0.036,-0.062 0.06,-0.112 0,-0.008 0,-0.015 0.01,-0.023 l 1.336,-2.976 2.828,-6.253 z"
     style="fill:#231f20;fill-opacity:1;fill-rule:nonzero;stroke:none"
     id="path30761" />
  <path
     d="m 158.367,162.77 c -60.8852,60.893 -98.5198,144.917 -98.5198,237.819 0,92.9 37.6346,176.933 98.5198,237.812 60.88,60.89 144.916,98.52 237.817,98.52 92.904,0 176.937,-37.63 237.816,-98.52 60.886,-60.879 98.516,-144.912 98.516,-237.812 C 732.516,307.687 694.886,223.663 634,162.77 573.121,101.885 489.088,64.266 396.184,64.256 303.283,64.266 219.247,101.885 158.367,162.77 M 43.4273,400.589 C 43.4273,205.775 201.363,47.846 396.184,47.836 591.006,47.846 748.94,205.775 748.94,400.589 748.94,595.416 591.006,753.341 396.184,753.351 201.363,753.341 43.438,595.416 43.4273,400.589"
     style="fill:#231f20;fill-opacity:1;fill-rule:nonzero;stroke:none"
     id="path30765" />
</svg>
