<?xml version="1.0" encoding="UTF-8" standalone="no"?>
<!-- Created with Inkscape (http://www.inkscape.org/) -->

<svg
   version="1.1"
   id="svg14791"
   width="795.03467"
   height="793.70135"
   viewBox="0 0 795.03467 793.70135"
   sodipodi:docname="Kage Kumiawase Yae Kikyou.svg"
   inkscape:version="1.2 (dc2aeda, 2022-05-15)"
   xmlns:inkscape="http://www.inkscape.org/namespaces/inkscape"
   xmlns:sodipodi="http://sodipodi.sourceforge.net/DTD/sodipodi-0.dtd"
   xmlns="http://www.w3.org/2000/svg"
   xmlns:svg="http://www.w3.org/2000/svg">
  <defs
     id="defs14795">
    <clipPath
       clipPathUnits="userSpaceOnUse"
       id="clipPath15284">
      <path
         d="M -548.9834,585.8522 H 47.292601 V -9.4238027 H -548.9834 Z"
         id="path15286"
         style="stroke-width:0.999998" />
    </clipPath>
    <clipPath
       clipPathUnits="userSpaceOnUse"
       id="clipPath15290">
      <path
         d="M -531.1924,581.5885 H 65.083599 V -13.6875 H -531.1924 Z"
         id="path15292"
         style="stroke-width:0.999998" />
    </clipPath>
    <clipPath
       clipPathUnits="userSpaceOnUse"
       id="clipPath15296">
      <path
         d="M -540.8213,585.8483 H 55.454701 V -9.4277027 H -540.8213 Z"
         id="path15298"
         style="stroke-width:0.999998" />
    </clipPath>
    <clipPath
       clipPathUnits="userSpaceOnUse"
       id="clipPath15302">
      <path
         d="M -567.7754,585.8522 H 28.500601 V -9.4238027 H -567.7754 Z"
         id="path15304"
         style="stroke-width:0.999998" />
    </clipPath>
    <clipPath
       clipPathUnits="userSpaceOnUse"
       id="clipPath15308">
      <path
         d="M -536.6982,584.5729 H 59.577804 V -10.7031 H -536.6982 Z"
         id="path15310"
         style="stroke-width:0.999998" />
    </clipPath>
    <clipPath
       clipPathUnits="userSpaceOnUse"
       id="clipPath15315">
      <path
         d="M -542.9326,584.5729 H 53.343399 V -10.7031 H -542.9326 Z"
         id="path15317"
         style="stroke-width:0.999998" />
    </clipPath>
    <clipPath
       clipPathUnits="userSpaceOnUse"
       id="clipPath15321">
      <path
         d="M -528.0898,575.3815 H 68.186199 V -19.8945 H -528.0898 Z"
         id="path15323"
         style="stroke-width:0.999998" />
    </clipPath>
    <clipPath
       clipPathUnits="userSpaceOnUse"
       id="clipPath15327">
      <path
         d="M -556.4014,578.0143 H 39.874606 V -17.2617 H -556.4014 Z"
         id="path15329"
         style="stroke-width:0.999998" />
    </clipPath>
    <clipPath
       clipPathUnits="userSpaceOnUse"
       id="clipPath15333">
      <path
         d="M -576.3691,585.5885 H 19.906905 V -9.6875027 H -576.3691 Z"
         id="path15335"
         style="stroke-width:0.999998" />
    </clipPath>
    <clipPath
       clipPathUnits="userSpaceOnUse"
       id="clipPath15339">
      <path
         d="M -550.2637,577.3248 H 46.012306 V -17.951198 H -550.2637 Z"
         id="path15341"
         style="stroke-width:0.999998" />
    </clipPath>
    <clipPath
       clipPathUnits="userSpaceOnUse"
       id="clipPath15345">
      <path
         d="M -572.8174,586.1354 H 23.458606 V -9.1406027 H -572.8174 Z"
         id="path15347"
         style="stroke-width:0.999998" />
    </clipPath>
    <clipPath
       clipPathUnits="userSpaceOnUse"
       id="clipPath15351">
      <path
         d="M -568.2266,575.819 H 28.049401 V -19.457003 H -568.2266 Z"
         id="path15353"
         style="stroke-width:0.999998" />
    </clipPath>
    <clipPath
       clipPathUnits="userSpaceOnUse"
       id="clipPath15357">
      <path
         d="M -586.5449,579.5026 H 9.7311002 V -15.7734 H -586.5449 Z"
         id="path15359"
         style="stroke-width:0.999998" />
    </clipPath>
    <clipPath
       clipPathUnits="userSpaceOnUse"
       id="clipPath15363">
      <path
         d="M -574.5459,585.8522 H 21.730103 V -9.4238027 H -574.5459 Z"
         id="path15365"
         style="stroke-width:0.999998" />
    </clipPath>
    <clipPath
       clipPathUnits="userSpaceOnUse"
       id="clipPath15369">
      <path
         d="M -557.4951,577.8502 H 38.780903 V -17.4258 H -557.4951 Z"
         id="path15371"
         style="stroke-width:0.999998" />
    </clipPath>
    <clipPath
       clipPathUnits="userSpaceOnUse"
       id="clipPath15376">
      <path
         d="M -553.8975,585.8483 H 42.378504 V -9.4277027 H -553.8975 Z"
         id="path15378"
         style="stroke-width:0.999998" />
    </clipPath>
    <clipPath
       clipPathUnits="userSpaceOnUse"
       id="clipPath15382">
      <path
         d="M -564.5732,585.8483 H 31.702801 V -9.4277027 H -564.5732 Z"
         id="path15384"
         style="stroke-width:0.999998" />
    </clipPath>
    <clipPath
       clipPathUnits="userSpaceOnUse"
       id="clipPath15388">
      <path
         d="M -557.0645,585.8483 H 39.211501 V -9.4277027 H -557.0645 Z"
         id="path15390"
         style="stroke-width:0.999998" />
    </clipPath>
    <clipPath
       clipPathUnits="userSpaceOnUse"
       id="clipPath15394">
      <path
         d="M -561.4131,585.8522 H 34.862903 V -9.4238027 H -561.4131 Z"
         id="path15396"
         style="stroke-width:0.999998" />
    </clipPath>
    <clipPath
       clipPathUnits="userSpaceOnUse"
       id="clipPath15400">
      <path
         d="M -545.417,584.5729 H 50.859001 V -10.7031 H -545.417 Z"
         id="path15402"
         style="stroke-width:0.999998" />
    </clipPath>
    <clipPath
       clipPathUnits="userSpaceOnUse"
       id="clipPath15406">
      <path
         d="M -584.1943,578.9381 H 12.081705 V -16.337903 H -584.1943 Z"
         id="path15408"
         style="stroke-width:0.999998" />
    </clipPath>
    <clipPath
       clipPathUnits="userSpaceOnUse"
       id="clipPath15412">
      <path
         d="M -538.2217,577.9479 H 58.054299 V -17.328098 H -538.2217 Z"
         id="path15414"
         style="stroke-width:0.999998" />
    </clipPath>
    <clipPath
       clipPathUnits="userSpaceOnUse"
       id="clipPath15418">
      <path
         d="m -306.8779,108.0421 h 596.276 v -595.276 h -596.276 z"
         id="path15420"
         style="stroke-width:0.999998" />
    </clipPath>
  </defs>
  <sodipodi:namedview
     id="namedview14793"
     pagecolor="#ffffff"
     bordercolor="#000000"
     borderopacity="0.25"
     inkscape:showpageshadow="2"
     inkscape:pageopacity="0.0"
     inkscape:pagecheckerboard="0"
     inkscape:deskcolor="#d1d1d1"
     showgrid="false"
     inkscape:zoom="0.29734106"
     inkscape:cx="-215.24105"
     inkscape:cy="396.85068"
     inkscape:window-width="1419"
     inkscape:window-height="456"
     inkscape:window-x="0"
     inkscape:window-y="25"
     inkscape:window-maximized="0"
     inkscape:current-layer="svg14791">
    <inkscape:page
       x="0"
       y="0"
       id="page14797"
       width="795.03467"
       height="793.70135" />
  </sodipodi:namedview>
  <path
     d="M 409.171 144.056 C 403.856 151.372 399.866 158.787 396.851 166.024 C 393.835 158.787 389.846 151.375 384.531 144.057 C 378.122 135.217 368.387 123.1 352.239 113.743 C 347.494 110.979 342.195 108.479 336.317 106.339 C 333.869 107.901 331.437 109.493 329.023 111.133 C 327.445 112.199 325.926 113.265 324.461 114.332 C 322.033 116.099 319.77 117.851 317.653 119.584 C 328.067 121.851 336.409 125.296 343.236 129.245 C 356.288 136.847 364.086 146.436 370.023 154.596 C 385.127 175.375 388.067 197.22 388.075 211.357 L 388.075 328.701 C 394.002 327.922 400.028 327.893 406.004 328.672 L 406.004 211.357 C 406.012 197.22 408.578 175.377 423.679 154.596 C 429.616 146.436 437.416 136.847 450.468 129.248 C 463.528 121.693 482.048 115.944 510.22 116.871 C 539.963 117.849 567.371 123.375 597.259 121.008 C 603.189 145.772 613.977 167.084 623.298 190.085 C 630.678 192.511 638.35 195.827 646.261 200.188 C 645.832 198.929 645.41 197.672 644.941 196.392 C 633.501 164.951 618.988 139.109 613.085 109.555 L 611.457 101.459 L 603.259 102.416 C 573.324 105.935 544.267 100.119 510.829 98.9534 C 479.963 97.8801 457.611 104.341 441.466 113.745 C 425.316 123.103 415.583 135.219 409.171 144.056 M 740.649 502.164 C 728.053 474.783 724.605 445.349 715.381 413.19 C 706.864 383.501 693.809 364.239 679.878 351.79 C 665.988 339.324 651.454 333.812 641.072 330.444 C 632.47 327.649 624.186 326.146 616.37 325.514 C 622.321 320.409 628.14 314.325 633.457 307.009 C 639.881 298.182 648.397 285.18 652.309 266.932 C 653.47 261.565 654.209 255.75 654.428 249.5 C 652.189 247.653 649.921 245.833 647.616 244.044 C 646.113 242.872 644.632 241.76 643.162 240.693 C 640.733 238.93 638.368 237.321 636.064 235.841 C 637.129 246.448 636.428 255.444 634.782 263.158 C 631.588 277.921 624.876 288.302 618.949 296.469 C 603.853 317.256 583.985 326.801 570.543 331.177 L 458.944 367.439 C 461.515 372.833 463.406 378.557 464.512 384.481 L 576.085 348.229 C 589.532 343.869 611.097 339.557 635.53 347.497 C 645.126 350.623 656.654 355.078 667.916 365.142 C 679.137 375.229 690.326 391.067 698.152 418.149 C 706.413 446.734 709.626 474.51 721.113 502.203 C 699.394 515.498 682.46 532.343 663.462 548.315 C 663.438 556.086 662.654 564.403 660.952 573.276 C 662.014 572.476 663.082 571.687 664.154 570.848 C 690.52 550.252 710.613 528.466 736.897 513.716 L 744.094 509.666 Z M 535.468 608.591 C 535.468 599.547 534.335 591.206 532.523 583.578 C 539.217 587.659 546.801 591.312 555.4 594.107 C 565.783 597.492 580.78 601.572 599.343 599.651 C 604.809 599.099 610.564 598.007 616.577 596.283 C 617.64 593.58 618.67 590.862 619.66 588.116 C 620.31 586.326 620.91 584.572 621.47 582.846 C 622.394 579.99 623.197 577.242 623.892 574.594 C 614.134 578.883 605.361 580.999 597.515 581.818 C 582.488 583.34 570.543 580.166 560.941 577.055 C 536.509 569.119 521.293 553.176 512.973 541.744 L 444.002 446.81 C 439.666 450.922 434.807 454.49 429.515 457.373 L 498.473 552.283 C 506.772 563.723 517.537 582.903 517.535 608.591 C 517.528 618.681 516.856 631.025 510.761 644.845 C 504.637 658.632 493.032 674.171 469.695 689.981 C 445.059 706.668 419.638 718.309 396.848 737.793 C 377.494 721.244 356.239 710.345 335.179 697.213 C 327.781 699.591 319.627 701.416 310.665 702.539 C 311.751 703.304 312.834 704.072 313.961 704.832 C 341.699 723.547 368.627 735.921 390.775 756.361 L 396.851 761.954 L 402.923 756.361 C 425.072 735.919 451.999 723.544 479.736 704.835 C 505.337 687.559 519.621 669.192 527.157 652.093 C 534.72 635.033 535.473 619.509 535.468 608.591 M 238.301 594.107 C 246.901 591.312 254.485 587.659 261.178 583.578 C 259.365 591.206 258.237 599.547 258.234 608.591 C 258.227 619.509 258.977 635.033 266.541 652.093 C 268.755 657.121 271.573 662.257 275.07 667.444 C 277.969 667.619 280.873 667.76 283.789 667.853 C 285.694 667.919 287.547 667.947 289.362 667.947 C 292.365 667.944 295.225 667.856 297.958 667.697 C 290.863 659.744 286.139 652.055 282.937 644.845 C 276.843 631.025 276.174 618.681 276.167 608.591 C 276.162 582.903 286.625 563.502 294.926 552.059 L 363.898 457.127 C 358.647 454.274 353.752 450.753 349.376 446.611 L 280.421 541.523 C 272.103 552.952 257.191 569.116 232.759 577.055 C 223.159 580.166 211.213 583.338 196.185 581.815 C 181.18 580.25 162.818 574.015 140.57 556.706 C 117.086 538.432 98.1571 517.851 72.5865 502.2 C 82.3438 478.676 86.1425 455.097 92.1225 431.007 C 87.5785 424.709 83.3211 417.515 79.4852 409.341 C 79.0918 410.61 78.6958 411.875 78.3212 413.185 C 69.0972 445.346 65.6465 474.778 53.0506 502.162 L 49.6092 509.668 L 56.8039 513.714 C 83.0905 528.463 103.18 550.247 129.548 570.843 C 153.889 589.856 175.769 597.766 194.36 599.648 C 212.923 601.57 227.919 597.487 238.301 594.107 M 160.245 307.01 C 165.562 314.325 171.378 320.409 177.332 325.513 C 169.516 326.145 161.232 327.65 152.63 330.444 C 142.245 333.806 127.713 339.32 113.824 351.786 C 109.728 355.445 105.712 359.713 101.861 364.641 C 102.589 367.453 103.353 370.257 104.168 373.059 C 104.693 374.891 105.237 376.663 105.8 378.387 C 106.729 381.243 107.696 383.935 108.69 386.486 C 114.064 377.282 119.917 370.414 125.784 365.139 C 137.046 355.075 148.576 350.622 158.172 347.497 C 182.602 339.554 204.285 343.51 217.734 347.869 L 329.333 384.133 C 330.423 378.254 332.259 372.511 334.846 367.07 L 223.274 330.817 C 209.833 326.44 189.85 317.253 174.753 296.469 C 168.826 288.301 162.117 277.918 158.924 263.156 C 155.774 248.404 156.029 229.012 165.617 202.503 C 175.738 174.521 189.462 150.16 196.449 121.005 C 221.833 123.016 245.435 119.341 270.193 117.585 C 274.779 111.315 280.302 105.044 286.894 98.8694 C 285.565 98.8881 284.239 98.9028 282.878 98.9508 C 249.438 100.115 220.381 105.932 190.446 102.415 L 182.242 101.461 L 180.618 109.552 C 174.716 139.109 160.205 164.948 148.764 196.391 C 138.204 225.413 137.444 248.669 141.397 266.929 C 145.306 285.18 153.825 298.18 160.245 307.01 M 555.403 199.576 C 546.801 202.371 539.215 206.024 532.523 210.107 C 534.337 202.477 535.465 194.136 535.468 185.092 C 535.477 174.175 534.725 158.651 527.16 141.588 C 524.947 136.563 522.129 131.424 518.632 126.24 C 515.733 126.064 512.829 125.921 509.913 125.831 C 508.007 125.764 506.155 125.736 504.34 125.736 C 501.337 125.74 498.477 125.825 495.747 125.984 C 502.837 133.937 507.561 141.628 510.764 148.837 C 516.859 162.659 517.528 175 517.535 185.092 C 517.54 210.781 507.08 230.181 498.775 241.624 L 429.804 336.557 C 435.054 339.412 439.95 342.929 444.324 347.073 L 513.28 252.161 C 521.597 240.729 536.509 224.565 560.944 216.63 C 570.543 213.518 582.491 210.345 597.517 211.868 C 612.522 213.432 630.884 219.668 653.132 236.977 C 676.618 255.25 695.545 275.832 721.116 291.484 C 711.358 315.005 707.558 338.588 701.58 362.675 C 706.124 368.975 710.381 376.166 714.217 384.345 C 714.61 383.075 715.006 381.807 715.381 380.498 C 724.608 348.337 728.056 318.902 740.652 291.521 L 744.091 284.014 L 736.897 279.969 C 710.613 265.221 690.522 243.437 664.154 222.838 C 639.816 203.828 617.933 195.917 599.345 194.033 C 580.78 192.115 565.783 196.195 555.403 199.576 M 633.457 486.674 C 628.14 479.359 622.321 473.274 616.37 468.169 C 624.186 467.537 632.47 466.031 641.072 463.239 C 651.457 459.875 665.99 454.362 679.878 441.895 C 683.976 438.239 687.99 433.971 691.84 429.042 C 691.113 426.231 690.35 423.425 689.534 420.622 C 689.012 418.789 688.465 417.021 687.902 415.294 C 686.973 412.441 686.006 409.747 685.012 407.195 C 679.64 416.401 673.785 423.269 667.918 428.545 C 656.654 438.61 645.126 443.059 635.53 446.185 C 611.097 454.13 589.416 450.174 575.968 445.813 L 464.368 409.553 C 463.278 415.427 461.442 421.169 458.856 426.611 L 570.428 462.865 C 583.871 467.242 603.853 476.43 618.949 497.214 C 624.876 505.383 631.585 515.763 634.78 530.526 C 637.928 545.28 637.673 564.671 628.085 591.176 C 617.965 619.161 604.239 643.523 597.255 672.676 C 571.868 670.665 548.267 674.343 523.512 676.096 C 518.923 682.367 513.4 688.64 506.809 694.815 C 508.137 694.793 509.465 694.78 510.824 694.731 C 544.261 693.569 573.324 687.752 603.256 691.271 L 611.46 692.223 L 613.082 684.129 C 618.985 654.572 633.496 628.733 644.938 597.294 C 655.498 568.271 656.258 545.015 652.306 526.755 C 648.394 508.502 639.878 495.502 633.457 486.674 M 384.531 649.627 C 389.846 642.309 393.835 634.895 396.851 627.659 C 399.868 634.895 403.856 642.309 409.171 649.627 C 415.58 658.465 425.314 670.583 441.463 679.94 C 446.207 682.705 451.507 685.205 457.384 687.343 C 459.832 685.783 462.264 684.189 464.679 682.552 C 466.259 681.484 467.775 680.416 469.242 679.351 C 471.668 677.583 473.931 675.832 476.048 674.099 C 465.635 671.832 457.296 668.388 450.466 664.44 C 437.414 656.837 429.616 647.247 423.679 639.085 C 408.575 618.307 405.638 596.463 405.624 582.326 L 405.627 464.982 C 399.702 465.761 393.674 465.789 387.698 465.01 L 387.698 582.326 C 387.69 596.463 385.124 618.307 370.023 639.085 C 364.086 647.247 356.286 656.835 343.234 664.437 C 330.174 671.992 311.654 677.739 283.481 676.812 C 253.739 675.832 226.331 670.309 196.444 672.673 C 190.512 647.911 179.724 626.599 170.404 603.596 C 163.022 601.171 155.352 597.856 147.441 593.498 C 147.87 594.755 148.294 596.01 148.761 597.291 C 160.201 628.733 174.713 654.572 180.616 684.129 L 182.245 692.223 L 190.444 691.268 C 220.378 687.749 249.435 693.564 282.873 694.731 C 313.739 695.804 336.09 689.343 352.236 679.937 C 368.384 670.58 378.119 658.463 384.531 649.627 M 78.3212 380.494 C 86.8385 410.182 99.8918 429.445 113.825 441.893 C 127.714 454.359 142.245 459.873 152.63 463.239 C 161.232 466.031 169.514 467.537 177.33 468.169 C 171.378 473.274 165.562 479.359 160.246 486.674 C 153.821 495.499 145.304 508.502 141.394 526.75 C 140.23 532.116 139.493 537.932 139.274 544.182 C 141.514 546.028 143.782 547.851 146.086 549.638 C 147.589 550.81 149.07 551.924 150.54 552.99 C 152.97 554.752 155.334 556.362 157.638 557.84 C 156.574 547.236 157.274 538.239 158.92 530.523 C 162.116 515.76 168.826 505.383 174.753 497.214 C 189.848 476.427 209.715 466.883 223.157 462.505 L 334.757 426.245 C 332.187 420.849 330.297 415.125 329.19 409.203 L 217.615 445.453 C 204.169 449.813 182.602 454.125 158.172 446.185 C 148.576 443.059 137.048 438.605 125.785 428.539 C 114.565 418.455 103.376 402.617 95.5505 375.533 C 87.2918 346.947 84.0758 319.172 72.5892 291.48 C 94.3078 278.185 111.242 261.338 130.24 245.366 C 130.266 237.598 131.048 229.278 132.75 220.409 C 131.685 221.205 130.622 221.994 129.549 222.834 C 103.181 243.432 83.0905 265.218 56.8052 279.966 L 49.6092 284.016 L 53.0519 291.518 C 65.6492 318.9 69.0972 348.333 78.3212 380.494 M 258.234 185.092 C 258.237 194.136 259.365 202.476 261.181 210.105 C 254.487 206.024 246.901 202.372 238.301 199.576 C 227.919 196.193 212.923 192.109 194.36 194.031 C 188.896 194.584 183.138 195.677 177.125 197.401 C 176.062 200.104 175.032 202.821 174.044 205.567 C 173.392 207.357 172.792 209.112 172.232 210.836 C 171.306 213.693 170.505 216.44 169.81 219.086 C 179.568 214.8 188.341 212.684 196.186 211.864 C 211.214 210.341 223.159 213.518 232.759 216.63 C 257.193 224.562 272.409 240.508 280.727 251.94 L 349.699 346.874 C 354.035 342.76 358.895 339.193 364.187 336.309 L 295.231 241.401 C 286.93 229.958 276.165 210.781 276.167 185.092 C 276.174 175 276.849 162.659 282.943 148.837 C 289.065 135.049 300.67 119.513 324.007 103.703 C 348.643 87.0148 374.064 75.3722 396.854 55.8909 C 416.207 72.4375 437.466 83.3388 458.526 96.4721 C 465.922 94.0935 474.075 92.2681 483.037 91.1455 C 481.949 90.3788 480.868 89.6121 479.741 88.8495 C 452.002 70.1389 425.075 57.7629 402.926 37.3216 L 396.851 31.7296 L 390.78 37.3216 C 368.63 57.7629 341.705 70.1389 313.966 88.8495 C 288.365 106.124 274.079 124.491 266.545 141.588 C 258.979 158.651 258.229 174.175 258.234 185.092 M 396.851 438.742 C 373.71 438.742 354.952 419.982 354.952 396.841 C 354.952 373.702 373.71 354.943 396.851 354.943 C 419.991 354.943 438.747 373.702 438.747 396.841 C 438.747 419.982 419.991 438.742 396.851 438.742 M 396.851 336.924 C 363.759 336.924 336.931 363.75 336.931 396.842 C 336.931 429.933 363.759 456.761 396.851 456.761 C 429.942 456.761 456.767 429.933 456.767 396.842 C 456.767 363.75 429.942 336.924 396.851 336.924"
     style="fill:#000000;fill-opacity:1;fill-rule:nonzero;stroke:none"
     id="path14911" />
</svg>
