<?xml version="1.0" encoding="UTF-8" standalone="no"?>
<!-- Created with Inkscape (http://www.inkscape.org/) -->

<svg
   version="1.1"
   id="svg25272"
   width="795.03467"
   height="793.70135"
   viewBox="0 0 795.03467 793.70135"
   sodipodi:docname="Kumiawase Kakuni Kikyou.svg"
   inkscape:version="1.2 (dc2aeda, 2022-05-15)"
   xmlns:inkscape="http://www.inkscape.org/namespaces/inkscape"
   xmlns:sodipodi="http://sodipodi.sourceforge.net/DTD/sodipodi-0.dtd"
   xmlns="http://www.w3.org/2000/svg"
   xmlns:svg="http://www.w3.org/2000/svg">
  <defs
     id="defs25276">
    <clipPath
       clipPathUnits="userSpaceOnUse"
       id="clipPath25939">
      <path
         d="M -561.4131,585.8522 H 34.862903 V -9.4238027 H -561.4131 Z"
         id="path25941"
         style="stroke-width:0.999998" />
    </clipPath>
    <clipPath
       clipPathUnits="userSpaceOnUse"
       id="clipPath25945">
      <path
         d="m -276.2896,308.3463 h 596.27601 v -595.276 H -276.2896 Z"
         id="path25947"
         style="stroke-width:0.999998" />
    </clipPath>
    <clipPath
       clipPathUnits="userSpaceOnUse"
       id="clipPath25951">
      <path
         d="m -165.6226,439.4674 h 596.276 v -595.276 h -596.276 z"
         id="path25953"
         style="stroke-width:0.999998" />
    </clipPath>
    <clipPath
       clipPathUnits="userSpaceOnUse"
       id="clipPath25957">
      <path
         d="m -309.6318,278.0773 h 596.276 v -595.276 h -596.276 z"
         id="path25959"
         style="stroke-width:0.999998" />
    </clipPath>
    <clipPath
       clipPathUnits="userSpaceOnUse"
       id="clipPath25963">
      <path
         d="M -540.8213,585.8483 H 55.454701 V -9.4277027 H -540.8213 Z"
         id="path25965"
         style="stroke-width:0.999998" />
    </clipPath>
    <clipPath
       clipPathUnits="userSpaceOnUse"
       id="clipPath25969">
      <path
         d="m -281.9639,281.1002 h 596.276 v -595.276 h -596.276 z"
         id="path25971"
         style="stroke-width:0.999998" />
    </clipPath>
    <clipPath
       clipPathUnits="userSpaceOnUse"
       id="clipPath25976">
      <path
         d="M -542.9326,584.5729 H 53.343399 V -10.7031 H -542.9326 Z"
         id="path25978"
         style="stroke-width:0.999998" />
    </clipPath>
    <clipPath
       clipPathUnits="userSpaceOnUse"
       id="clipPath25982">
      <path
         d="M -531.1924,581.5885 H 65.083599 V -13.6875 H -531.1924 Z"
         id="path25984"
         style="stroke-width:0.999998" />
    </clipPath>
    <clipPath
       clipPathUnits="userSpaceOnUse"
       id="clipPath25988">
      <path
         d="M -528.0898,575.3815 H 68.186199 V -19.8945 H -528.0898 Z"
         id="path25990"
         style="stroke-width:0.999998" />
    </clipPath>
    <clipPath
       clipPathUnits="userSpaceOnUse"
       id="clipPath25994">
      <path
         d="M -584.1943,578.9381 H 12.081705 V -16.337903 H -584.1943 Z"
         id="path25996"
         style="stroke-width:0.999998" />
    </clipPath>
    <clipPath
       clipPathUnits="userSpaceOnUse"
       id="clipPath26000">
      <path
         d="M -536.6982,584.5729 H 59.577804 V -10.7031 H -536.6982 Z"
         id="path26002"
         style="stroke-width:0.999998" />
    </clipPath>
    <clipPath
       clipPathUnits="userSpaceOnUse"
       id="clipPath26006">
      <path
         d="m -429.6523,155.8131 h 596.276 v -595.276 h -596.276 z"
         id="path26008"
         style="stroke-width:0.999998" />
    </clipPath>
    <clipPath
       clipPathUnits="userSpaceOnUse"
       id="clipPath26012">
      <path
         d="m -103.9844,385.0397 h 596.276 v -595.276 h -596.276 z"
         id="path26014"
         style="stroke-width:0.999998" />
    </clipPath>
    <clipPath
       clipPathUnits="userSpaceOnUse"
       id="clipPath26018">
      <path
         d="m -103.9937,304.567 h 596.276 v -595.276 h -596.276 z"
         id="path26020"
         style="stroke-width:0.999998" />
    </clipPath>
    <clipPath
       clipPathUnits="userSpaceOnUse"
       id="clipPath26024">
      <path
         d="m -439.4531,429.6598 h 596.276 v -595.276 h -596.276 z"
         id="path26026"
         style="stroke-width:0.999998" />
    </clipPath>
    <clipPath
       clipPathUnits="userSpaceOnUse"
       id="clipPath26030">
      <path
         d="M -538.2217,577.9479 H 58.054299 V -17.328098 H -538.2217 Z"
         id="path26032"
         style="stroke-width:0.999998" />
    </clipPath>
    <clipPath
       clipPathUnits="userSpaceOnUse"
       id="clipPath26036">
      <path
         d="m -316.4521,298.629 h 596.276 v -595.276 h -596.276 z"
         id="path26038"
         style="stroke-width:0.999998" />
    </clipPath>
    <clipPath
       clipPathUnits="userSpaceOnUse"
       id="clipPath26043">
      <path
         d="M -556.4014,578.0143 H 39.874606 V -17.2617 H -556.4014 Z"
         id="path26045"
         style="stroke-width:0.999998" />
    </clipPath>
    <clipPath
       clipPathUnits="userSpaceOnUse"
       id="clipPath26049">
      <path
         d="m -491.2646,210.2174 h 596.276 v -595.276 h -596.276 z"
         id="path26051"
         style="stroke-width:0.999998" />
    </clipPath>
    <clipPath
       clipPathUnits="userSpaceOnUse"
       id="clipPath26055">
      <path
         d="M -586.5449,579.5026 H 9.7311002 V -15.7734 H -586.5449 Z"
         id="path26057"
         style="stroke-width:0.999998" />
    </clipPath>
    <clipPath
       clipPathUnits="userSpaceOnUse"
       id="clipPath26061">
      <path
         d="M -564.5732,585.8483 H 31.702801 V -9.4277027 H -564.5732 Z"
         id="path26063"
         style="stroke-width:0.999998" />
    </clipPath>
    <clipPath
       clipPathUnits="userSpaceOnUse"
       id="clipPath26067">
      <path
         d="M -557.0645,585.8483 H 39.211501 V -9.4277027 H -557.0645 Z"
         id="path26069"
         style="stroke-width:0.999998" />
    </clipPath>
    <clipPath
       clipPathUnits="userSpaceOnUse"
       id="clipPath26073">
      <path
         d="M -553.8975,585.8483 H 42.378504 V -9.4277027 H -553.8975 Z"
         id="path26075"
         style="stroke-width:0.999998" />
    </clipPath>
    <clipPath
       clipPathUnits="userSpaceOnUse"
       id="clipPath26079">
      <path
         d="m -300.4453,322.1637 h 596.276 v -595.276 h -596.276 z"
         id="path26081"
         style="stroke-width:0.999998" />
    </clipPath>
    <clipPath
       clipPathUnits="userSpaceOnUse"
       id="clipPath26085">
      <path
         d="m -321.0557,303.4576 h 596.276 v -595.276 h -596.276 z"
         id="path26087"
         style="stroke-width:0.999998" />
    </clipPath>
    <clipPath
       clipPathUnits="userSpaceOnUse"
       id="clipPath26091">
      <path
         d="M -567.7754,585.8522 H 28.500601 V -9.4238027 H -567.7754 Z"
         id="path26093"
         style="stroke-width:0.999998" />
    </clipPath>
    <clipPath
       clipPathUnits="userSpaceOnUse"
       id="clipPath26098">
      <path
         d="M -576.3691,585.5885 H 19.906905 V -9.6875027 H -576.3691 Z"
         id="path26100"
         style="stroke-width:0.999998" />
    </clipPath>
    <clipPath
       clipPathUnits="userSpaceOnUse"
       id="clipPath26104">
      <path
         d="M -572.8174,586.1354 H 23.458606 V -9.1406027 H -572.8174 Z"
         id="path26106"
         style="stroke-width:0.999998" />
    </clipPath>
    <clipPath
       clipPathUnits="userSpaceOnUse"
       id="clipPath26111">
      <path
         d="M -574.5459,585.8522 H 21.730103 V -9.4238027 H -574.5459 Z"
         id="path26113"
         style="stroke-width:0.999998" />
    </clipPath>
    <clipPath
       clipPathUnits="userSpaceOnUse"
       id="clipPath26117">
      <path
         d="M -557.4951,577.8502 H 38.780903 V -17.4258 H -557.4951 Z"
         id="path26119"
         style="stroke-width:0.999998" />
    </clipPath>
    <clipPath
       clipPathUnits="userSpaceOnUse"
       id="clipPath26123">
      <path
         d="M -548.9834,585.8522 H 47.292601 V -9.4238027 H -548.9834 Z"
         id="path26125"
         style="stroke-width:0.999998" />
    </clipPath>
    <clipPath
       clipPathUnits="userSpaceOnUse"
       id="clipPath26129">
      <path
         d="M -545.417,584.5729 H 50.859001 V -10.7031 H -545.417 Z"
         id="path26131"
         style="stroke-width:0.999998" />
    </clipPath>
    <clipPath
       clipPathUnits="userSpaceOnUse"
       id="clipPath26135">
      <path
         d="M -550.2637,577.3248 H 46.012306 V -17.951198 H -550.2637 Z"
         id="path26137"
         style="stroke-width:0.999998" />
    </clipPath>
    <clipPath
       clipPathUnits="userSpaceOnUse"
       id="clipPath26141">
      <path
         d="M -568.2266,575.819 H 28.049401 V -19.457003 H -568.2266 Z"
         id="path26143"
         style="stroke-width:0.999998" />
    </clipPath>
  </defs>
  <sodipodi:namedview
     id="namedview25274"
     pagecolor="#ffffff"
     bordercolor="#000000"
     borderopacity="0.25"
     inkscape:showpageshadow="2"
     inkscape:pageopacity="0.0"
     inkscape:pagecheckerboard="0"
     inkscape:deskcolor="#d1d1d1"
     showgrid="false"
     inkscape:zoom="0.29734106"
     inkscape:cx="-215.24105"
     inkscape:cy="396.85068"
     inkscape:window-width="1419"
     inkscape:window-height="456"
     inkscape:window-x="0"
     inkscape:window-y="25"
     inkscape:window-maximized="0"
     inkscape:current-layer="svg25272">
    <inkscape:page
       x="0"
       y="0"
       id="page25278"
       width="795.03467"
       height="793.70135" />
  </sodipodi:namedview>
  <path
     d="M 421.936 398.172 C 421.936 411.848 410.847 422.933 397.176 422.933 C 383.495 422.933 372.412 411.848 372.412 398.172 C 372.412 384.496 383.495 373.408 397.176 373.408 C 410.847 373.408 421.936 384.496 421.936 398.172"
     style="fill:#000000;fill-opacity:1;fill-rule:nonzero;stroke:none"
     id="path25392" />
  <path
     d="M 138.658 406.089 L 138.658 138.668 L 280.288 138.668 L 217.998 200.958 L 200.943 200.958 L 200.938 468.368 Z"
     style="fill:#000000;fill-opacity:1;fill-rule:nonzero;stroke:none"
     id="path25396" />
  <path
     d="M 655.019 280.29 L 655.024 138.669 L 387.588 138.669 L 325.3 200.957 L 592.734 200.957 L 592.744 218.013 Z"
     style="fill:#000000;fill-opacity:1;fill-rule:nonzero;stroke:none"
     id="path25400" />
  <path
     d="m 513.40359,655.032 h 141.62133 v -31.13733 l 0.007,-236.28133 -62.29734,-62.29467 v 267.42666 h -17.04533 z"
     style="fill:#000000;fill-opacity:1;fill-rule:nonzero;stroke:none;stroke-width:1.33333"
     id="path25404" />
  <path
     d="M 138.646 513.386 L 138.658 655.031 L 406.079 655.031 L 468.371 592.746 L 200.945 592.746 L 200.945 575.682 Z"
     style="fill:#000000;fill-opacity:1;fill-rule:nonzero;stroke:none"
     id="path25408" />
  <path
     d="M 585.937 572.88 L 418.877 739.948 L 396.849 761.974 L 296.72 661.818 L 384.79 661.818 L 396.849 673.888 L 585.937 484.791 Z"
     style="fill:#000000;fill-opacity:1;fill-rule:nonzero;stroke:none"
     id="path25412" />
  <path
     d="M 572.87 207.751 L 761.968 396.847 L 661.822 496.994 L 661.83 408.901 L 673.879 396.847 L 484.786 207.747 Z"
     style="fill:#000000;fill-opacity:1;fill-rule:nonzero;stroke:none"
     id="path25416" />
  <path
     d="m 207.73506,308.92654 189.11466,-189.11866 12.068,12.06666 88.07333,-0.007 L 396.84972,31.729214 207.73506,220.83454 Z"
     style="fill:#000000;fill-opacity:1;fill-rule:nonzero;stroke:none;stroke-width:1.33333"
     id="path25420" />
  <path
     d="M 220.83 585.957 L 31.7211 396.847 L 131.861 296.712 L 131.861 384.795 L 119.812 396.847 L 308.914 585.949 Z"
     style="fill:#000000;fill-opacity:1;fill-rule:nonzero;stroke:none"
     id="path25424" />
  <path
     d="M 412.842 370.77 L 455.221 312.462 C 462.718 302.084 465.457 292.46 465.457 283.906 C 465.457 277.276 463.791 271.264 461.347 266.056 C 455.359 253.334 448.495 248.209 427.822 233.27 C 410.314 220.624 399.946 211.684 397.177 209.234 C 394.399 211.684 384.025 220.624 366.517 233.27 C 345.845 248.209 338.977 253.334 332.988 266.056 C 330.528 271.264 328.864 277.276 328.864 283.906 C 328.873 292.46 331.61 302.07 339.137 312.462 L 381.498 370.778 C 385.174 368.67 389.323 367.275 393.746 366.798 L 393.746 338.771 C 393.746 336.883 395.285 335.358 397.177 335.358 C 399.057 335.358 400.583 336.883 400.583 338.771 L 400.583 366.787 C 405.073 367.242 409.109 368.635 412.842 370.77"
     style="fill:#000000;fill-opacity:1;fill-rule:nonzero;stroke:none"
     id="path25428" />
  <path
     d="M 375.952 374.8 L 333.596 316.476 C 326.037 306.139 317.731 300.559 309.601 297.918 C 303.296 295.87 297.059 295.594 291.351 296.311 C 277.404 298.074 270.41 303.019 249.815 318.059 C 232.378 330.803 220.666 337.903 217.48 339.781 C 218.951 343.184 224.248 355.811 230.868 376.367 C 238.687 400.641 241.436 408.763 251.691 418.387 C 255.882 422.333 261.086 425.776 267.39 427.825 C 275.524 430.459 285.511 430.827 297.724 426.88 L 366.273 404.609 C 365.405 400.463 365.361 396.088 366.273 391.732 L 339.619 383.071 C 337.827 382.485 336.848 380.553 337.428 378.759 C 338.013 376.965 339.939 375.984 341.731 376.568 L 368.375 385.225 C 370.201 381.096 372.767 377.688 375.952 374.8"
     style="fill:#000000;fill-opacity:1;fill-rule:nonzero;stroke:none"
     id="path25432" />
  <path
     d="M 368.386 411.128 L 299.83 433.389 C 287.664 437.381 279.788 443.556 274.761 450.477 C 270.868 455.839 268.677 461.684 267.594 467.329 C 264.961 481.144 267.506 489.324 275.446 513.561 C 282.172 534.082 285.312 547.41 286.116 551.021 C 289.804 550.674 303.451 549.54 325.041 549.593 C 350.547 549.66 359.118 549.552 371.439 542.78 C 376.495 540.012 381.37 536.126 385.27 530.766 C 390.286 523.836 393.726 514.452 393.742 501.62 L 393.747 429.545 C 389.534 429.088 385.358 427.779 381.498 425.56 L 365.025 448.237 C 363.918 449.767 361.771 450.096 360.246 448.988 C 358.719 447.879 358.389 445.743 359.494 444.219 L 375.962 421.556 C 372.595 418.547 370.15 415.049 368.386 411.128"
     style="fill:#000000;fill-opacity:1;fill-rule:nonzero;stroke:none"
     id="path25436" />
  <path
     d="M 400.594 429.552 L 400.583 501.632 C 400.627 514.437 404.062 523.834 409.089 530.753 C 412.99 536.117 417.87 539.998 422.902 542.781 C 435.231 549.548 443.795 549.661 469.295 549.597 C 490.898 549.54 504.539 550.678 508.223 551.024 C 509.028 547.413 512.171 534.082 518.896 513.56 C 526.836 489.328 529.386 481.14 526.754 467.328 C 525.682 461.675 523.491 455.825 519.598 450.465 C 514.56 443.552 506.696 437.38 494.498 433.401 L 425.955 411.127 C 424.219 414.988 421.681 418.556 418.379 421.544 L 434.853 444.212 C 435.965 445.744 435.618 447.88 434.09 448.993 C 432.565 450.101 430.43 449.76 429.319 448.233 L 412.861 425.569 C 408.955 427.843 404.875 429.085 400.594 429.552"
     style="fill:#000000;fill-opacity:1;fill-rule:nonzero;stroke:none"
     id="path25440" />
  <path
     d="M 428.074 404.61 L 496.626 426.897 C 508.814 430.815 518.812 430.45 526.947 427.806 C 533.252 425.755 538.456 422.315 542.652 418.382 C 552.899 408.754 555.655 400.641 563.472 376.371 C 570.094 355.807 575.391 343.185 576.863 339.79 C 573.676 337.908 561.97 330.802 544.527 318.064 C 523.932 303.021 516.936 298.069 502.987 296.304 C 497.271 295.574 491.041 295.85 484.737 297.896 C 476.601 300.552 468.305 306.125 460.754 316.497 L 418.379 374.801 C 421.521 377.647 424.131 381.161 425.955 385.222 L 452.606 376.558 C 454.402 375.974 456.325 376.967 456.913 378.763 C 457.498 380.557 456.51 382.483 454.718 383.066 L 428.079 391.721 C 429.03 396.133 428.953 400.398 428.074 404.61"
     style="fill:#000000;fill-opacity:1;fill-rule:nonzero;stroke:none"
     id="path25444" />
</svg>
