<?xml version="1.0" encoding="UTF-8" standalone="no"?>
<!-- Created with Inkscape (http://www.inkscape.org/) -->

<svg
   version="1.1"
   id="svg26448"
   width="793.70135"
   height="793.70135"
   viewBox="0 0 793.70135 793.70135"
   sodipodi:docname="Maruni Kikyou.svg"
   inkscape:version="1.2 (dc2aeda, 2022-05-15)"
   xmlns:inkscape="http://www.inkscape.org/namespaces/inkscape"
   xmlns:sodipodi="http://sodipodi.sourceforge.net/DTD/sodipodi-0.dtd"
   xmlns="http://www.w3.org/2000/svg"
   xmlns:svg="http://www.w3.org/2000/svg">
  <defs
     id="defs26452">
    <clipPath
       clipPathUnits="userSpaceOnUse"
       id="clipPath27025">
      <path
         d="M -584.1943,578.9381 H 11.0817 V -16.337903 h -595.276 z"
         id="path27027"
         style="stroke-width:0.999998" />
    </clipPath>
    <clipPath
       clipPathUnits="userSpaceOnUse"
       id="clipPath27031">
      <path
         d="M -548.9834,585.8522 H 46.292596 V -9.4238027 H -548.9834 Z"
         id="path27033"
         style="stroke-width:0.999998" />
    </clipPath>
    <clipPath
       clipPathUnits="userSpaceOnUse"
       id="clipPath27037">
      <path
         d="M -553.8975,585.8483 H 41.378499 V -9.4277027 H -553.8975 Z"
         id="path27039"
         style="stroke-width:0.999998" />
    </clipPath>
    <clipPath
       clipPathUnits="userSpaceOnUse"
       id="clipPath27043">
      <path
         d="M -550.2637,577.3248 H 45.012301 V -17.951198 H -550.2637 Z"
         id="path27045"
         style="stroke-width:0.999998" />
    </clipPath>
    <clipPath
       clipPathUnits="userSpaceOnUse"
       id="clipPath27050">
      <path
         d="m -326.0908,297.714 h 595.276 v -595.276 h -595.276 z"
         id="path27052"
         style="stroke-width:0.999998" />
    </clipPath>
    <clipPath
       clipPathUnits="userSpaceOnUse"
       id="clipPath27056">
      <path
         d="m -315.8633,264.9332 h 595.27599 v -595.276 H -315.8633 Z"
         id="path27058"
         style="stroke-width:0.999998" />
    </clipPath>
    <clipPath
       clipPathUnits="userSpaceOnUse"
       id="clipPath27062">
      <path
         d="m -272.0947,270.2487 h 595.276 v -595.276 h -595.276 z"
         id="path27064"
         style="stroke-width:0.999998" />
    </clipPath>
    <clipPath
       clipPathUnits="userSpaceOnUse"
       id="clipPath27068">
      <path
         d="M -538.2217,577.9479 H 57.054294 V -17.328098 H -538.2217 Z"
         id="path27070"
         style="stroke-width:0.999998" />
    </clipPath>
    <clipPath
       clipPathUnits="userSpaceOnUse"
       id="clipPath27074">
      <path
         d="m -457.6836,457.6862 h 595.276 v -595.276 h -595.276 z"
         id="path27076"
         style="stroke-width:0.999998" />
    </clipPath>
    <clipPath
       clipPathUnits="userSpaceOnUse"
       id="clipPath27080">
      <path
         d="M -557.4951,577.8502 H 37.780898 V -17.4258 H -557.4951 Z"
         id="path27082"
         style="stroke-width:0.999998" />
    </clipPath>
    <clipPath
       clipPathUnits="userSpaceOnUse"
       id="clipPath27086">
      <path
         d="M -540.8213,585.8483 H 54.454696 V -9.4277027 H -540.8213 Z"
         id="path27088"
         style="stroke-width:0.999998" />
    </clipPath>
    <clipPath
       clipPathUnits="userSpaceOnUse"
       id="clipPath27092">
      <path
         d="M -576.3691,585.5885 H 18.9069 V -9.6875027 h -595.276 z"
         id="path27094"
         style="stroke-width:0.999998" />
    </clipPath>
    <clipPath
       clipPathUnits="userSpaceOnUse"
       id="clipPath27098">
      <path
         d="M -574.5459,585.8522 H 20.730098 V -9.4238027 H -574.5459 Z"
         id="path27100"
         style="stroke-width:0.999998" />
    </clipPath>
    <clipPath
       clipPathUnits="userSpaceOnUse"
       id="clipPath27104">
      <path
         d="M -542.9326,584.5729 H 52.343394 V -10.7031 H -542.9326 Z"
         id="path27106"
         style="stroke-width:0.999998" />
    </clipPath>
    <clipPath
       clipPathUnits="userSpaceOnUse"
       id="clipPath27110">
      <path
         d="M -567.7754,585.8522 H 27.500596 V -9.4238027 H -567.7754 Z"
         id="path27112"
         style="stroke-width:0.999998" />
    </clipPath>
    <clipPath
       clipPathUnits="userSpaceOnUse"
       id="clipPath27116">
      <path
         d="M -572.8174,586.1354 H 22.458601 V -9.1406027 H -572.8174 Z"
         id="path27118"
         style="stroke-width:0.999998" />
    </clipPath>
    <clipPath
       clipPathUnits="userSpaceOnUse"
       id="clipPath27122">
      <path
         d="M -536.6982,584.5729 H 58.577799 V -10.7031 H -536.6982 Z"
         id="path27124"
         style="stroke-width:0.999998" />
    </clipPath>
    <clipPath
       clipPathUnits="userSpaceOnUse"
       id="clipPath27128">
      <path
         d="M -528.0898,575.3815 H 67.186194 V -19.8945 H -528.0898 Z"
         id="path27130"
         style="stroke-width:0.999998" />
    </clipPath>
    <clipPath
       clipPathUnits="userSpaceOnUse"
       id="clipPath27134">
      <path
         d="M -568.2266,575.819 H 27.049396 V -19.457003 H -568.2266 Z"
         id="path27136"
         style="stroke-width:0.999998" />
    </clipPath>
    <clipPath
       clipPathUnits="userSpaceOnUse"
       id="clipPath27140">
      <path
         d="M -531.1924,581.5885 H 64.083594 V -13.6875 H -531.1924 Z"
         id="path27142"
         style="stroke-width:0.999998" />
    </clipPath>
    <clipPath
       clipPathUnits="userSpaceOnUse"
       id="clipPath27146">
      <path
         d="M -545.417,584.5729 H 49.858996 V -10.7031 H -545.417 Z"
         id="path27148"
         style="stroke-width:0.999998" />
    </clipPath>
    <clipPath
       clipPathUnits="userSpaceOnUse"
       id="clipPath27152">
      <path
         d="M -564.5732,585.8483 H 30.702796 V -9.4277027 H -564.5732 Z"
         id="path27154"
         style="stroke-width:0.999998" />
    </clipPath>
    <clipPath
       clipPathUnits="userSpaceOnUse"
       id="clipPath27158">
      <path
         d="M -561.4131,585.8522 H 33.862898 V -9.4238027 H -561.4131 Z"
         id="path27160"
         style="stroke-width:0.999998" />
    </clipPath>
    <clipPath
       clipPathUnits="userSpaceOnUse"
       id="clipPath27164">
      <path
         d="M -557.0645,585.8483 H 38.211496 V -9.4277027 H -557.0645 Z"
         id="path27166"
         style="stroke-width:0.999998" />
    </clipPath>
    <clipPath
       clipPathUnits="userSpaceOnUse"
       id="clipPath27170">
      <path
         d="M -586.5449,579.5026 H 8.7310952 V -15.7734 H -586.5449 Z"
         id="path27172"
         style="stroke-width:0.999998" />
    </clipPath>
    <clipPath
       clipPathUnits="userSpaceOnUse"
       id="clipPath27176">
      <path
         d="M -556.4014,578.0143 H 38.874601 V -17.2617 H -556.4014 Z"
         id="path27178"
         style="stroke-width:0.999998" />
    </clipPath>
    <clipPath
       clipPathUnits="userSpaceOnUse"
       id="clipPath27183">
      <path
         d="m -263.625,313.5182 h 595.276 v -595.276 h -595.276 z"
         id="path27185"
         style="stroke-width:0.999998" />
    </clipPath>
    <clipPath
       clipPathUnits="userSpaceOnUse"
       id="clipPath27189">
      <path
         d="m -302.1582,334.944 h 595.276 v -595.276 h -595.276 z"
         id="path27191"
         style="stroke-width:0.999998" />
    </clipPath>
    <clipPath
       clipPathUnits="userSpaceOnUse"
       id="clipPath27195">
      <path
         d="m -334.4443,304.9166 h 595.276 v -595.276 h -595.276 z"
         id="path27197"
         style="stroke-width:0.999998" />
    </clipPath>
  </defs>
  <sodipodi:namedview
     id="namedview26450"
     pagecolor="#ffffff"
     bordercolor="#000000"
     borderopacity="0.25"
     inkscape:showpageshadow="2"
     inkscape:pageopacity="0.0"
     inkscape:pagecheckerboard="0"
     inkscape:deskcolor="#d1d1d1"
     showgrid="false"
     inkscape:zoom="0.29734106"
     inkscape:cx="-215.24105"
     inkscape:cy="396.85068"
     inkscape:window-width="1419"
     inkscape:window-height="456"
     inkscape:window-x="0"
     inkscape:window-y="25"
     inkscape:window-maximized="0"
     inkscape:current-layer="svg26448">
    <inkscape:page
       x="0"
       y="0"
       id="page26454"
       width="793.70135"
       height="793.70135" />
  </sodipodi:namedview>
  <path
     d="M 610.245 610.248 C 555.43 664.961 480.385 698.608 396.851 698.638 C 313.312 698.608 238.265 664.961 183.453 610.248 C 128.74 555.433 95.093 480.388 95.0623 396.854 C 95.093 313.315 128.74 238.268 183.453 183.453 C 238.267 128.74 313.312 95.0933 396.851 95.0626 C 480.385 95.0933 555.43 128.74 610.245 183.453 C 664.957 238.268 698.606 313.315 698.635 396.854 C 698.606 480.388 664.957 555.433 610.245 610.248 M 396.851 31.7308 C 195.201 31.7308 31.7291 195.201 31.7291 396.854 C 31.7291 598.503 195.201 761.974 396.851 761.974 C 598.502 761.974 761.973 598.503 761.973 396.854 C 761.973 195.201 598.502 31.7308 396.851 31.7308"
     style="fill:#000000;fill-opacity:1;fill-rule:nonzero;stroke:none"
     id="path26568" />
  <path
     d="M 434.788 396.952 C 434.788 417.903 417.805 434.889 396.851 434.889 C 375.899 434.889 358.911 417.903 358.911 396.952 C 358.911 375.993 375.899 359.009 396.851 359.009 C 417.805 359.009 434.788 375.993 434.788 396.952"
     style="fill:#000000;fill-opacity:1;fill-rule:nonzero;stroke:none"
     id="path26572" />
  <path
     d="M 421.151 353.244 L 485.127 265.191 C 496.559 249.395 500.697 234.835 500.704 221.902 C 500.704 211.871 498.192 202.783 494.473 194.883 C 485.371 175.582 475.056 167.866 443.352 144.949 C 417.5 126.279 401.788 112.87 396.847 108.537 C 391.907 112.87 376.195 126.279 350.339 144.949 C 318.637 167.866 308.325 175.582 299.219 194.883 C 295.501 202.783 292.987 211.871 292.987 221.902 C 292.995 234.835 297.133 249.395 308.567 265.188 L 372.544 353.244 C 378.076 350.163 384.254 348.1 390.826 347.309 L 390.824 300.305 C 390.827 296.973 393.522 294.293 396.848 294.289 C 400.17 294.293 402.868 296.973 402.875 300.305 L 402.871 347.309 C 409.443 348.099 415.619 350.161 421.151 353.244"
     style="fill:#000000;fill-opacity:1;fill-rule:nonzero;stroke:none"
     id="path26576" />
  <path
     d="M 362.793 360.332 L 298.82 272.276 C 287.329 256.524 274.763 248.088 262.463 244.084 C 252.924 240.986 243.503 240.566 234.841 241.662 C 213.672 244.354 203.147 251.78 171.552 274.85 C 145.81 293.667 128.202 304.468 122.552 307.827 C 125.148 313.864 133.044 332.951 142.81 363.311 C 154.81 400.543 158.962 412.736 174.504 427.36 C 180.869 433.337 188.735 438.534 198.273 441.636 C 210.577 445.625 225.704 446.189 244.256 440.193 L 347.773 406.559 C 346.552 400.345 346.5 393.833 347.778 387.339 L 303.074 372.815 C 299.908 371.783 298.189 368.391 299.214 365.225 C 300.244 362.069 303.628 360.332 306.798 361.353 L 351.5 375.883 C 354.281 369.877 358.152 364.641 362.793 360.332"
     style="fill:#000000;fill-opacity:1;fill-rule:nonzero;stroke:none"
     id="path26580" />
  <path
     d="M 351.5 418.024 L 247.984 451.655 C 229.452 457.715 217.546 467.06 209.939 477.521 C 204.043 485.633 200.734 494.464 199.098 503.04 C 195.118 524.005 198.927 536.31 211.104 573.488 C 221.046 603.786 225.876 623.87 227.326 630.278 C 233.868 629.677 254.463 628.062 286.355 628.159 C 325.472 628.253 338.351 628.07 357.063 617.808 C 364.713 613.602 372.087 607.729 377.984 599.612 C 385.581 589.146 390.792 574.933 390.821 555.438 L 390.823 446.592 C 384.535 445.833 378.325 443.872 372.545 440.648 L 344.917 478.677 C 342.957 481.368 339.2 481.953 336.507 480 C 333.823 478.048 333.216 474.292 335.168 471.592 L 362.8 433.568 C 357.947 429.067 354.164 423.769 351.5 418.024"
     style="fill:#000000;fill-opacity:1;fill-rule:nonzero;stroke:none"
     id="path26584" />
  <path
     d="M 402.878 446.592 L 402.875 555.433 C 402.911 574.93 408.122 589.141 415.721 599.61 C 421.615 607.725 428.989 613.6 436.639 617.805 C 455.35 628.068 468.23 628.248 507.35 628.157 C 539.238 628.064 559.831 629.676 566.375 630.28 C 567.824 623.868 572.654 603.785 582.6 573.485 C 594.776 536.31 598.584 524.006 594.604 503.037 C 592.968 494.461 589.662 485.633 583.764 477.516 C 576.158 467.059 564.252 457.711 545.719 451.657 L 442.199 418.02 C 439.537 423.767 435.751 429.065 430.901 433.565 L 458.53 471.592 C 460.483 474.289 459.881 478.045 457.19 480.004 C 454.503 481.952 450.743 481.368 448.779 478.677 L 421.155 440.648 C 415.374 443.873 409.166 445.833 402.878 446.592"
     style="fill:#000000;fill-opacity:1;fill-rule:nonzero;stroke:none"
     id="path26588" />
  <path
     d="M 445.926 406.555 L 549.438 440.192 C 567.994 446.182 583.12 445.619 595.423 441.627 C 604.96 438.528 612.828 433.331 619.192 427.354 C 634.735 412.732 638.887 400.538 650.887 363.304 C 660.652 332.947 668.551 313.862 671.145 307.823 C 665.497 304.465 647.888 293.665 622.144 274.842 C 590.552 251.774 580.027 244.35 558.855 241.657 C 550.194 240.561 540.776 240.979 531.234 244.079 C 518.936 248.082 506.367 256.515 494.885 272.271 L 430.903 360.33 C 435.545 364.638 439.415 369.876 442.195 375.879 L 486.901 361.354 C 490.069 360.33 493.454 362.063 494.485 365.226 C 495.507 368.383 493.789 371.779 490.623 372.815 L 445.919 387.336 C 447.199 393.831 447.146 400.342 445.926 406.555"
     style="fill:#000000;fill-opacity:1;fill-rule:nonzero;stroke:none"
     id="path26592" />
</svg>
