<?xml version="1.0" encoding="UTF-8" standalone="no"?>
<!-- Created with Inkscape (http://www.inkscape.org/) -->

<svg
   version="1.1"
   id="svg5441"
   width="795.03467"
   height="793.70135"
   viewBox="0 0 795.03467 793.70135"
   sodipodi:docname="Maruni Hoso Kikyou.svg"
   inkscape:version="1.2 (dc2aeda, 2022-05-15)"
   xmlns:inkscape="http://www.inkscape.org/namespaces/inkscape"
   xmlns:sodipodi="http://sodipodi.sourceforge.net/DTD/sodipodi-0.dtd"
   xmlns="http://www.w3.org/2000/svg"
   xmlns:svg="http://www.w3.org/2000/svg">
  <defs
     id="defs5445">
    <clipPath
       clipPathUnits="userSpaceOnUse"
       id="clipPath5935">
      <path
         d="M -574.5459,585.8522 H 21.730103 V -9.4238027 H -574.5459 Z"
         id="path5937"
         style="stroke-width:0.999998" />
    </clipPath>
    <clipPath
       clipPathUnits="userSpaceOnUse"
       id="clipPath5941">
      <path
         d="M -576.3691,585.5885 H 19.906905 V -9.6875027 H -576.3691 Z"
         id="path5943"
         style="stroke-width:0.999998" />
    </clipPath>
    <clipPath
       clipPathUnits="userSpaceOnUse"
       id="clipPath5947">
      <path
         d="M -557.4951,577.8502 H 38.780903 V -17.4258 H -557.4951 Z"
         id="path5949"
         style="stroke-width:0.999998" />
    </clipPath>
    <clipPath
       clipPathUnits="userSpaceOnUse"
       id="clipPath5953">
      <path
         d="M -568.2266,575.819 H 28.049401 V -19.457003 H -568.2266 Z"
         id="path5955"
         style="stroke-width:0.999998" />
    </clipPath>
    <clipPath
       clipPathUnits="userSpaceOnUse"
       id="clipPath5959">
      <path
         d="M -550.2637,577.3248 H 46.012306 V -17.951198 H -550.2637 Z"
         id="path5961"
         style="stroke-width:0.999998" />
    </clipPath>
    <clipPath
       clipPathUnits="userSpaceOnUse"
       id="clipPath5965">
      <path
         d="M -564.5732,585.8483 H 31.702801 V -9.4277027 H -564.5732 Z"
         id="path5967"
         style="stroke-width:0.999998" />
    </clipPath>
    <clipPath
       clipPathUnits="userSpaceOnUse"
       id="clipPath5971">
      <path
         d="M -567.7754,585.8522 H 28.500601 V -9.4238027 H -567.7754 Z"
         id="path5973"
         style="stroke-width:0.999998" />
    </clipPath>
    <clipPath
       clipPathUnits="userSpaceOnUse"
       id="clipPath5978">
      <path
         d="M -572.8174,586.1354 H 23.458606 V -9.1406027 H -572.8174 Z"
         id="path5980"
         style="stroke-width:0.999998" />
    </clipPath>
    <clipPath
       clipPathUnits="userSpaceOnUse"
       id="clipPath5984">
      <path
         d="M -531.1924,581.5885 H 65.083599 V -13.6875 H -531.1924 Z"
         id="path5986"
         style="stroke-width:0.999998" />
    </clipPath>
    <clipPath
       clipPathUnits="userSpaceOnUse"
       id="clipPath5990">
      <path
         d="M -528.0898,575.3815 H 68.186199 V -19.8945 H -528.0898 Z"
         id="path5992"
         style="stroke-width:0.999998" />
    </clipPath>
    <clipPath
       clipPathUnits="userSpaceOnUse"
       id="clipPath5996">
      <path
         d="m -396.9297,228.2023 h 596.276 v -595.276 h -596.276 z"
         id="path5998"
         style="stroke-width:0.999998" />
    </clipPath>
    <clipPath
       clipPathUnits="userSpaceOnUse"
       id="clipPath6002">
      <path
         d="M -584.1943,578.9381 H 12.081705 V -16.337903 H -584.1943 Z"
         id="path6004"
         style="stroke-width:0.999998" />
    </clipPath>
    <clipPath
       clipPathUnits="userSpaceOnUse"
       id="clipPath6008">
      <path
         d="M -538.2217,577.9479 H 58.054299 V -17.328098 H -538.2217 Z"
         id="path6010"
         style="stroke-width:0.999998" />
    </clipPath>
    <clipPath
       clipPathUnits="userSpaceOnUse"
       id="clipPath6014">
      <path
         d="M -556.4014,578.0143 H 39.874606 V -17.2617 H -556.4014 Z"
         id="path6016"
         style="stroke-width:0.999998" />
    </clipPath>
    <clipPath
       clipPathUnits="userSpaceOnUse"
       id="clipPath6020">
      <path
         d="M -586.5449,579.5026 H 9.7311002 V -15.7734 H -586.5449 Z"
         id="path6022"
         style="stroke-width:0.999998" />
    </clipPath>
    <clipPath
       clipPathUnits="userSpaceOnUse"
       id="clipPath6026">
      <path
         d="M -536.6982,584.5729 H 59.577804 V -10.7031 H -536.6982 Z"
         id="path6028"
         style="stroke-width:0.999998" />
    </clipPath>
    <clipPath
       clipPathUnits="userSpaceOnUse"
       id="clipPath6032">
      <path
         d="M -540.8213,585.8483 H 55.454701 V -9.4277027 H -540.8213 Z"
         id="path6034"
         style="stroke-width:0.999998" />
    </clipPath>
    <clipPath
       clipPathUnits="userSpaceOnUse"
       id="clipPath6038">
      <path
         d="M -542.9326,584.5729 H 53.343399 V -10.7031 H -542.9326 Z"
         id="path6040"
         style="stroke-width:0.999998" />
    </clipPath>
    <clipPath
       clipPathUnits="userSpaceOnUse"
       id="clipPath6044">
      <path
         d="M -545.417,584.5729 H 50.859001 V -10.7031 H -545.417 Z"
         id="path6046"
         style="stroke-width:0.999998" />
    </clipPath>
    <clipPath
       clipPathUnits="userSpaceOnUse"
       id="clipPath6050">
      <path
         d="M -548.9834,585.8522 H 47.292601 V -9.4238027 H -548.9834 Z"
         id="path6052"
         style="stroke-width:0.999998" />
    </clipPath>
    <clipPath
       clipPathUnits="userSpaceOnUse"
       id="clipPath6056">
      <path
         d="M -553.8975,585.8483 H 42.378504 V -9.4277027 H -553.8975 Z"
         id="path6058"
         style="stroke-width:0.999998" />
    </clipPath>
    <clipPath
       clipPathUnits="userSpaceOnUse"
       id="clipPath6062">
      <path
         d="M -557.0645,585.8483 H 39.211501 V -9.4277027 H -557.0645 Z"
         id="path6064"
         style="stroke-width:0.999998" />
    </clipPath>
    <clipPath
       clipPathUnits="userSpaceOnUse"
       id="clipPath6068">
      <path
         d="M -561.4131,585.8522 H 34.862903 V -9.4238027 H -561.4131 Z"
         id="path6070"
         style="stroke-width:0.999998" />
    </clipPath>
  </defs>
  <sodipodi:namedview
     id="namedview5443"
     pagecolor="#ffffff"
     bordercolor="#000000"
     borderopacity="0.25"
     inkscape:showpageshadow="2"
     inkscape:pageopacity="0.0"
     inkscape:pagecheckerboard="0"
     inkscape:deskcolor="#d1d1d1"
     showgrid="false"
     inkscape:zoom="0.29734106"
     inkscape:cx="-215.24105"
     inkscape:cy="396.85068"
     inkscape:window-width="1419"
     inkscape:window-height="456"
     inkscape:window-x="0"
     inkscape:window-y="25"
     inkscape:window-maximized="0"
     inkscape:current-layer="svg5441">
    <inkscape:page
       x="0"
       y="0"
       id="page5447"
       width="795.03467"
       height="793.70135" />
  </sodipodi:namedview>
  <path
     d="M 529.24 304.27 C 487.727 317.761 452.679 341.921 426.103 372.722 C 427.928 374.936 429.522 377.378 430.828 380.028 L 471.149 366.93 C 474.024 365.995 477.103 367.566 478.039 370.438 C 478.969 373.31 477.403 376.394 474.528 377.326 L 434.207 390.426 C 434.711 393.339 434.855 396.25 434.68 399.112 C 474.283 408.404 516.839 407.355 558.353 393.867 C 608.286 377.643 648.882 345.987 676.616 305.911 C 630.622 289.795 579.176 288.046 529.24 304.27 M 428.807 417.191 C 427.264 419.61 425.435 421.88 423.318 423.943 L 448.236 458.243 C 450.012 460.688 449.472 464.1 447.027 465.879 C 444.584 467.652 441.167 467.112 439.392 464.67 L 414.472 430.368 C 411.858 431.748 409.134 432.784 406.358 433.506 C 409.758 474.04 423.907 514.191 449.563 549.5 C 480.424 591.98 523.075 620.805 569.759 634.797 C 570.876 586.073 556.64 536.604 525.78 494.128 C 500.121 458.814 466.312 432.948 428.807 417.191 M 354.311 464.67 C 352.535 467.112 349.12 467.652 346.675 465.879 C 344.232 464.103 343.688 460.688 345.467 458.243 L 370.386 423.943 C 368.268 421.88 366.439 419.612 364.896 417.196 C 327.395 432.954 293.585 458.819 267.929 494.131 C 237.067 536.607 222.831 586.079 223.949 634.803 C 270.634 620.808 313.282 591.983 344.144 549.503 C 369.8 514.191 383.952 474.043 387.35 433.506 C 384.571 432.784 381.847 431.746 379.231 430.368 Z M 359.024 399.118 C 358.85 396.252 358.994 393.342 359.495 390.427 L 319.175 377.326 C 316.301 376.392 314.731 373.312 315.665 370.438 C 316.599 367.566 319.678 365.995 322.553 366.927 L 362.876 380.028 C 364.18 377.378 365.774 374.938 367.598 372.724 C 341.019 341.927 305.974 317.763 264.461 304.275 C 214.527 288.051 163.077 289.799 117.085 305.918 C 144.82 345.994 185.416 377.648 235.349 393.872 C 276.863 407.36 319.421 408.412 359.024 399.118 M 391.384 359.315 L 391.384 316.919 C 391.384 313.897 393.83 311.454 396.852 311.454 C 399.871 311.454 402.319 313.897 402.319 316.919 L 402.319 359.315 C 405.243 359.739 408.056 360.499 410.724 361.55 C 431.802 326.757 443.952 285.959 443.952 242.31 C 443.952 189.805 426.391 141.414 396.848 102.653 C 367.306 141.414 349.744 189.805 349.744 242.31 C 349.744 285.961 361.895 326.758 382.975 361.553 C 385.644 360.501 388.459 359.739 391.384 359.315 M 423.812 396.812 C 423.812 381.923 411.742 369.853 396.851 369.853 C 381.962 369.853 369.89 381.923 369.89 396.812 C 369.89 411.704 381.962 423.774 396.851 423.774 C 411.742 423.774 423.812 411.704 423.812 396.812 M 396.848 701.906 C 228.35 701.906 91.7544 565.311 91.7544 396.81 C 91.7544 228.31 228.35 91.7225 396.848 91.7225 C 565.347 91.7225 701.942 228.31 701.942 396.81 C 701.942 565.311 565.347 701.906 396.848 701.906 M 396.851 31.7307 C 195.22 31.7307 31.7626 195.181 31.7626 396.814 C 31.7626 598.445 195.22 761.906 396.851 761.906 C 598.482 761.906 761.939 598.445 761.939 396.814 C 761.939 195.181 598.482 31.7307 396.851 31.7307"
     style="fill:#000000;fill-opacity:1;fill-rule:nonzero;stroke:none"
     id="path5561" />
</svg>
