<?xml version="1.0" encoding="UTF-8" standalone="no"?>
<!-- Created with Inkscape (http://www.inkscape.org/) -->

<svg
   version="1.1"
   id="svg9043"
   width="795.03467"
   height="793.70135"
   viewBox="0 0 795.03467 793.70135"
   sodipodi:docname="Musubi Kikyou.svg"
   inkscape:version="1.2 (dc2aeda, 2022-05-15)"
   xmlns:inkscape="http://www.inkscape.org/namespaces/inkscape"
   xmlns:sodipodi="http://sodipodi.sourceforge.net/DTD/sodipodi-0.dtd"
   xmlns="http://www.w3.org/2000/svg"
   xmlns:svg="http://www.w3.org/2000/svg">
  <defs
     id="defs9047">
    <clipPath
       clipPathUnits="userSpaceOnUse"
       id="clipPath9592">
      <path
         d="M -524.5029,250.0763 H 71.773104 v -595.276 H -524.5029 Z"
         id="path9594"
         style="stroke-width:0.999998" />
    </clipPath>
    <clipPath
       clipPathUnits="userSpaceOnUse"
       id="clipPath9598">
      <path
         d="m -70.7788,250.0782 h 596.276 v -595.276 h -596.276 z"
         id="path9600"
         style="stroke-width:0.999998" />
    </clipPath>
    <clipPath
       clipPathUnits="userSpaceOnUse"
       id="clipPath9604">
      <path
         d="m -437.8506,516.7682 h 596.276 V -78.507797 h -596.276 z"
         id="path9606"
         style="stroke-width:0.999998" />
    </clipPath>
    <clipPath
       clipPathUnits="userSpaceOnUse"
       id="clipPath9610">
      <path
         d="m -157.4341,516.7682 h 596.276 V -78.507797 h -596.276 z"
         id="path9612"
         style="stroke-width:0.999998" />
    </clipPath>
    <clipPath
       clipPathUnits="userSpaceOnUse"
       id="clipPath9616">
      <path
         d="m -297.6396,85.251102 h 596.276 V -510.0249 h -596.276 z"
         id="path9618"
         style="stroke-width:0.999998" />
    </clipPath>
    <clipPath
       clipPathUnits="userSpaceOnUse"
       id="clipPath9622">
      <path
         d="M -536.6982,584.5729 H 59.577804 V -10.7031 H -536.6982 Z"
         id="path9624"
         style="stroke-width:0.999998" />
    </clipPath>
    <clipPath
       clipPathUnits="userSpaceOnUse"
       id="clipPath9628">
      <path
         d="M -538.2217,577.9479 H 58.054299 V -17.328098 H -538.2217 Z"
         id="path9630"
         style="stroke-width:0.999998" />
    </clipPath>
    <clipPath
       clipPathUnits="userSpaceOnUse"
       id="clipPath9634">
      <path
         d="M -531.1924,581.5885 H 65.083599 V -13.6875 H -531.1924 Z"
         id="path9636"
         style="stroke-width:0.999998" />
    </clipPath>
    <clipPath
       clipPathUnits="userSpaceOnUse"
       id="clipPath9640">
      <path
         d="M -528.0898,575.3815 H 68.186199 V -19.8945 H -528.0898 Z"
         id="path9642"
         style="stroke-width:0.999998" />
    </clipPath>
    <clipPath
       clipPathUnits="userSpaceOnUse"
       id="clipPath9646">
      <path
         d="M -540.8213,585.8483 H 55.454701 V -9.4277027 H -540.8213 Z"
         id="path9648"
         style="stroke-width:0.999998" />
    </clipPath>
    <clipPath
       clipPathUnits="userSpaceOnUse"
       id="clipPath9652">
      <path
         d="M -584.1943,578.9381 H 12.081705 V -16.337903 H -584.1943 Z"
         id="path9654"
         style="stroke-width:0.999998" />
    </clipPath>
    <clipPath
       clipPathUnits="userSpaceOnUse"
       id="clipPath9658">
      <path
         d="M -542.9326,584.5729 H 53.343399 V -10.7031 H -542.9326 Z"
         id="path9660"
         style="stroke-width:0.999998" />
    </clipPath>
    <clipPath
       clipPathUnits="userSpaceOnUse"
       id="clipPath9665">
      <path
         d="M -545.417,584.5729 H 50.859001 V -10.7031 H -545.417 Z"
         id="path9667"
         style="stroke-width:0.999998" />
    </clipPath>
    <clipPath
       clipPathUnits="userSpaceOnUse"
       id="clipPath9671">
      <path
         d="M -567.7754,585.8522 H 28.500601 V -9.4238027 H -567.7754 Z"
         id="path9673"
         style="stroke-width:0.999998" />
    </clipPath>
    <clipPath
       clipPathUnits="userSpaceOnUse"
       id="clipPath9677">
      <path
         d="M -572.8174,586.1354 H 23.458606 V -9.1406027 H -572.8174 Z"
         id="path9679"
         style="stroke-width:0.999998" />
    </clipPath>
    <clipPath
       clipPathUnits="userSpaceOnUse"
       id="clipPath9683">
      <path
         d="M -548.9834,585.8522 H 47.292601 V -9.4238027 H -548.9834 Z"
         id="path9685"
         style="stroke-width:0.999998" />
    </clipPath>
    <clipPath
       clipPathUnits="userSpaceOnUse"
       id="clipPath9689">
      <path
         d="M -553.8975,585.8483 H 42.378504 V -9.4277027 H -553.8975 Z"
         id="path9691"
         style="stroke-width:0.999998" />
    </clipPath>
    <clipPath
       clipPathUnits="userSpaceOnUse"
       id="clipPath9695">
      <path
         d="M -576.3691,585.5885 H 19.906905 V -9.6875027 H -576.3691 Z"
         id="path9697"
         style="stroke-width:0.999998" />
    </clipPath>
    <clipPath
       clipPathUnits="userSpaceOnUse"
       id="clipPath9702">
      <path
         d="M -557.4951,577.8502 H 38.780903 V -17.4258 H -557.4951 Z"
         id="path9704"
         style="stroke-width:0.999998" />
    </clipPath>
    <clipPath
       clipPathUnits="userSpaceOnUse"
       id="clipPath9708">
      <path
         d="M -564.5732,585.8483 H 31.702801 V -9.4277027 H -564.5732 Z"
         id="path9710"
         style="stroke-width:0.999998" />
    </clipPath>
    <clipPath
       clipPathUnits="userSpaceOnUse"
       id="clipPath9714">
      <path
         d="M -550.2637,577.3248 H 46.012306 V -17.951198 H -550.2637 Z"
         id="path9716"
         style="stroke-width:0.999998" />
    </clipPath>
    <clipPath
       clipPathUnits="userSpaceOnUse"
       id="clipPath9720">
      <path
         d="M -557.0645,585.8483 H 39.211501 V -9.4277027 H -557.0645 Z"
         id="path9722"
         style="stroke-width:0.999998" />
    </clipPath>
    <clipPath
       clipPathUnits="userSpaceOnUse"
       id="clipPath9726">
      <path
         d="M -586.5449,579.5026 H 9.7311002 V -15.7734 H -586.5449 Z"
         id="path9728"
         style="stroke-width:0.999998" />
    </clipPath>
    <clipPath
       clipPathUnits="userSpaceOnUse"
       id="clipPath9732">
      <path
         d="M -561.4131,585.8522 H 34.862903 V -9.4238027 H -561.4131 Z"
         id="path9734"
         style="stroke-width:0.999998" />
    </clipPath>
    <clipPath
       clipPathUnits="userSpaceOnUse"
       id="clipPath9738">
      <path
         d="M -568.2266,575.819 H 28.049401 V -19.457003 H -568.2266 Z"
         id="path9740"
         style="stroke-width:0.999998" />
    </clipPath>
    <clipPath
       clipPathUnits="userSpaceOnUse"
       id="clipPath9744">
      <path
         d="M -556.4014,578.0143 H 39.874606 V -17.2617 H -556.4014 Z"
         id="path9746"
         style="stroke-width:0.999998" />
    </clipPath>
    <clipPath
       clipPathUnits="userSpaceOnUse"
       id="clipPath9750">
      <path
         d="M -574.5459,585.8522 H 21.730103 V -9.4238027 H -574.5459 Z"
         id="path9752"
         style="stroke-width:0.999998" />
    </clipPath>
  </defs>
  <sodipodi:namedview
     id="namedview9045"
     pagecolor="#ffffff"
     bordercolor="#000000"
     borderopacity="0.25"
     inkscape:showpageshadow="2"
     inkscape:pageopacity="0.0"
     inkscape:pagecheckerboard="0"
     inkscape:deskcolor="#d1d1d1"
     showgrid="false"
     inkscape:zoom="0.29734106"
     inkscape:cx="-215.24105"
     inkscape:cy="396.85068"
     inkscape:window-width="1419"
     inkscape:window-height="456"
     inkscape:window-x="0"
     inkscape:window-y="25"
     inkscape:window-maximized="0"
     inkscape:current-layer="svg9043">
    <inkscape:page
       x="0"
       y="0"
       id="page9049"
       width="795.03467"
       height="793.70135" />
  </sodipodi:namedview>
  <path
     d="M 94.3717 333.438 C 100.942 353.657 113.79 393.19 123.594 423.371 C 132.177 449.798 141.344 466.024 154.668 481.86 C 185.706 518.751 233.354 512.327 247.741 505.347 C 262.061 498.399 270.978 490.107 268.514 473.426 C 267.154 464.238 249.597 453.59 232.943 459.8 C 214.783 466.574 197.595 476.1 185.346 493.374 C 177.538 489.464 169.929 483.74 162.27 475.128 C 160.377 472.983 158.49 470.644 156.621 468.112 C 173.818 445.863 196.187 432.058 221.175 423.582 C 257.318 411.322 296.311 430.995 304.73 461.655 C 313.151 492.311 298.269 528.71 259.509 541.568 C 197.777 562.049 147.55 533.993 126.109 507.052 C 109.537 486.227 97.2157 465.431 87.3731 435.142 L 49.5998 318.891 C 49.5998 318.891 112.47 273.214 148.488 247.048 C 174.667 228 199.73 216.44 223.323 211.388 C 217.573 225.501 214.471 239.825 213.834 253.832 C 200.797 258.793 186.487 266.521 170.87 277.854 C 145.445 296.331 111.014 321.345 94.3717 333.438"
     style="fill:#000000;fill-opacity:1;fill-rule:nonzero;stroke:none"
     id="path9163" />
  <path
     d="M 209.912 689.024 L 304.472 689.024 C 332.258 689.027 350.524 685.327 369.704 677.548 C 414.378 659.428 422.993 612.126 420.801 596.287 C 418.618 580.519 413.487 569.478 396.86 566.667 C 387.701 565.118 372.149 578.527 372.91 596.287 C 373.741 615.65 377.488 634.939 390.134 651.925 C 384.004 658.144 376.206 663.612 365.649 668.235 C 363.024 669.373 360.217 670.445 357.23 671.44 C 341.384 648.209 335.168 622.669 334.829 596.284 C 334.337 558.12 365.097 527.118 396.857 528.584 C 428.615 530.048 458.634 555.451 458.886 596.287 C 459.287 661.327 417.083 700.425 384.837 712.493 C 359.91 721.819 336.324 727.109 304.472 727.109 L 182.243 727.112 C 182.243 727.112 158.228 653.204 144.472 610.863 C 134.448 580.079 131.199 552.67 133.684 528.67 C 145.331 538.5 157.995 545.876 171.119 550.811 C 171.808 564.743 174.736 580.74 180.688 599.095 C 190.404 628.988 203.553 669.459 209.912 689.024"
     style="fill:#000000;fill-opacity:1;fill-rule:nonzero;stroke:none"
     id="path9167" />
  <path
     d="M 583.801 689.024 C 590.372 668.805 603.213 629.269 613.02 599.092 C 621.61 572.667 623.733 554.15 622.262 533.506 C 618.834 485.418 576.509 462.607 560.768 459.798 C 545.101 457.001 533.012 458.47 525.2 473.415 C 520.897 481.647 528.845 500.582 545.97 505.344 C 564.642 510.538 584.145 512.936 604.208 506.16 C 608.228 513.912 611.02 523.016 612.153 534.486 C 612.426 537.334 612.577 540.334 612.601 543.483 C 585.608 551.374 559.397 549.394 534.2 541.563 C 497.752 530.238 477.773 491.402 488.981 461.65 C 500.187 431.897 533.621 411.197 572.538 423.577 C 634.52 443.293 658.662 495.514 660.173 529.912 C 661.339 556.498 659.082 580.568 649.241 610.86 L 611.473 727.108 L 489.241 727.108 C 456.867 727.128 429.793 721.748 407.739 711.967 C 420.684 703.931 431.613 694.164 440.364 683.207 C 453.825 686.857 469.944 689.016 489.241 689.027 C 520.673 689.024 563.228 689.024 583.801 689.024"
     style="fill:#000000;fill-opacity:1;fill-rule:nonzero;stroke:none"
     id="path9171" />
  <path
     d="M 396.853 113.668 C 413.496 125.76 447.926 150.775 473.355 169.247 C 488.959 180.597 500.733 191.818 509.478 202.684 C 522.998 198.962 537.577 197.485 552.777 198.592 C 540.681 177.717 521.941 157.452 495.738 138.439 C 459.722 112.269 396.85 66.5921 396.85 66.5921 L 297.968 138.44 C 272.2 157.16 256.228 175.307 241.544 197.501 C 222.545 226.217 211.384 282.658 249.939 335.041 C 274.148 367.929 313.364 370.835 339.918 353.354 C 366.473 335.869 373.137 292.708 350.306 262.122 C 334.522 240.976 314.484 223.966 288.007 214.485 C 286.176 217.048 284.536 219.564 283.08 222.028 C 277.257 231.973 274.163 240.978 272.859 249.614 C 293.075 255.924 307.444 269.328 319.496 284.505 C 330.55 298.424 325.848 318.414 317.531 322.543 C 302.427 330.043 291.785 324.127 280.752 312.653 C 269.668 301.13 248.835 257.797 274.327 216.878 C 285.269 199.312 297.872 185.58 320.353 169.252 C 346.028 150.6 379.656 126.165 396.853 113.668"
     style="fill:#000000;fill-opacity:1;fill-rule:nonzero;stroke:none"
     id="path9175" />
  <path
     d="M 699.337 333.435 C 682.137 320.938 648.504 296.508 622.835 277.854 C 600.359 261.518 583.403 253.779 563.313 248.797 C 516.523 237.197 481.75 270.402 474.212 284.503 C 466.712 298.542 464.371 310.492 476.171 322.539 C 482.671 329.175 503.135 327.468 512.957 312.654 C 523.665 296.5 531.973 278.692 531.728 257.517 C 540.343 256.089 549.865 256.247 561.124 258.714 C 563.916 259.337 566.816 260.121 569.816 261.069 C 568.983 289.178 558.999 313.495 543.764 335.039 C 521.731 366.203 478.624 373.203 453.788 353.352 C 428.958 333.498 419.6 295.302 443.403 262.118 C 481.307 209.262 538.431 202.437 571.613 211.63 C 597.259 218.737 619.452 228.321 645.22 247.042 L 744.108 318.886 C 744.108 318.886 720.092 392.795 706.334 435.136 C 696.35 465.931 682.868 490.016 666.752 507.969 C 663.108 493.172 657.197 479.761 649.48 468.055 C 657.11 456.379 664.146 441.713 670.118 423.368 C 679.829 393.471 692.98 353 699.337 333.435"
     style="fill:#000000;fill-opacity:1;fill-rule:nonzero;stroke:none"
     id="path9179" />
</svg>
