<?xml version="1.0" encoding="UTF-8" standalone="no"?>
<!-- Created with Inkscape (http://www.inkscape.org/) -->

<svg
   version="1.1"
   id="svg25004"
   width="793.70135"
   height="793.70099"
   viewBox="0 0 793.70135 793.70097"
   sodipodi:docname="Tyuukage Kikyou.svg"
   inkscape:version="1.2 (dc2aeda, 2022-05-15)"
   xmlns:inkscape="http://www.inkscape.org/namespaces/inkscape"
   xmlns:sodipodi="http://sodipodi.sourceforge.net/DTD/sodipodi-0.dtd"
   xmlns="http://www.w3.org/2000/svg"
   xmlns:svg="http://www.w3.org/2000/svg">
  <defs
     id="defs25008">
    <clipPath
       clipPathUnits="userSpaceOnUse"
       id="clipPath25159">
      <path
         d="m -379.7109,412.0477 h 595.276 v -841.89 h -595.276 z"
         id="path25161"
         style="stroke-width:0.999998" />
    </clipPath>
  </defs>
  <sodipodi:namedview
     id="namedview25006"
     pagecolor="#ffffff"
     bordercolor="#000000"
     borderopacity="0.25"
     inkscape:showpageshadow="2"
     inkscape:pageopacity="0.0"
     inkscape:pagecheckerboard="0"
     inkscape:deskcolor="#d1d1d1"
     showgrid="false"
     inkscape:zoom="0.21024124"
     inkscape:cx="-470.88764"
     inkscape:cy="561.26002"
     inkscape:window-width="1419"
     inkscape:window-height="456"
     inkscape:window-x="0"
     inkscape:window-y="25"
     inkscape:window-maximized="0"
     inkscape:current-layer="svg25004">
    <inkscape:page
       x="0"
       y="0"
       id="page25010"
       width="793.70135"
       height="793.70099" />
  </sodipodi:namedview>
  <path
     d="m 506.281,385.397 -62.18,23.695 c 0.787,1.749 1.481,3.56 2.096,5.424 0.604,1.865 1.009,3.753 1.4,5.633 l 64.317,-17.396 c 4.79,-1.56 7.419,-6.704 5.859,-11.495 -1.556,-4.797 -6.703,-7.418 -11.492,-5.861 m -79.188,87.9 c -1.586,1.152 -3.254,2.125 -4.921,3.073 l 36.42,55.792 c 2.961,4.077 8.669,4.984 12.742,2.023 4.086,-2.963 4.982,-8.67 2.022,-12.744 l -41.745,-51.814 c -1.422,1.287 -2.93,2.511 -4.518,3.67 m -66.25,-3.734 -41.804,51.878 c -2.967,4.077 -2.059,9.784 2.014,12.744 4.079,2.964 9.782,2.06 12.743,-2.018 l 36.379,-55.714 c -1.668,-0.955 -3.294,-2.007 -4.886,-3.159 -1.582,-1.153 -3.025,-2.44 -4.446,-3.731 m -86.227,-78.305 c -1.561,4.794 1.059,9.943 5.859,11.498 l 64.225,17.38 c 0.389,-1.88 0.887,-3.755 1.497,-5.626 0.599,-1.861 1.379,-3.629 2.17,-5.38 l -62.259,-23.728 c -4.789,-1.557 -9.942,1.064 -11.492,5.856 m 121.579,-13.07 c 1.961,0 3.886,0.193 5.793,0.402 l 3.324,-66.543 c 0,-5.04 -4.083,-9.123 -9.117,-9.123 -5.047,0 -9.13,4.083 -9.13,9.123 l 3.324,66.455 c 1.904,-0.208 3.844,-0.314 5.806,-0.314 m 44.363,52.578 c 0,-24.508 -19.861,-44.369 -44.363,-44.369 -24.502,0 -44.364,19.861 -44.364,44.369 0,24.5 19.862,44.361 44.364,44.361 24.502,0 44.363,-19.861 44.363,-44.361 m 220.98,-57.497 c -4.981,15.645 -10.611,33.648 -19.52,52.727 -9.001,19.289 -34.945,40.489 -68.872,34.606 l -125.33,-20.034 c -0.823,4.33 -2.174,8.532 -4.067,12.554 l 113.197,57.469 c 30.9,15.18 39.425,47.586 35.373,68.484 -4.009,20.669 -10.032,38.543 -15.189,54.136 -5.169,15.585 -8.468,34.88 -8.468,34.88 0,0 -19.364,-2.823 -35.79,-2.737 -16.419,0.097 -35.283,0.305 -56.18,-2.271 -21.131,-2.604 -49.309,-20.729 -54.195,-54.807 L 402.828,482.829 c -4.372,0.554 -8.797,0.624 -13.203,0.069 l -19.68,125.414 c -4.885,34.082 -33.07,52.206 -54.198,54.807 -20.9,2.579 -39.757,2.371 -56.177,2.279 -16.426,-0.096 -35.791,2.724 -35.791,2.724 0,0 -3.303,-19.283 -8.467,-34.88 -5.164,-15.586 -11.181,-33.46 -15.189,-54.129 -4.057,-20.899 4.473,-53.303 35.372,-68.483 l 113.172,-57.435 c -1.876,-3.983 -3.255,-8.207 -4.09,-12.573 l -125.351,20.043 c -33.926,5.882 -59.876,-15.321 -68.876,-34.609 -8.905,-19.082 -14.54,-37.08 -19.527,-52.728 -4.986,-15.648 -13.656,-33.195 -13.656,-33.195 0,0 17.328,-9.1 30.563,-18.828 13.229,-9.728 28.361,-20.98 46.786,-31.18 18.622,-10.314 52.075,-12.213 76.066,12.482 l 89.57,89.835 c 3.208,-3.016 6.821,-5.58 10.712,-7.724 L 313.068,271.693 c -16.078,-30.446 -3.928,-61.674 11.631,-76.201 15.393,-14.366 30.772,-25.284 44.112,-34.861 13.341,-9.579 27.352,-23.247 27.352,-23.247 0,0 14.009,13.668 27.35,23.247 13.342,9.577 28.719,20.495 44.112,34.861 15.56,14.527 27.709,45.755 11.631,76.201 l -57.784,113.004 c 3.859,2.119 7.44,4.707 10.684,7.745 l 89.637,-89.893 c 23.983,-24.7 57.442,-22.796 76.065,-12.484 18.419,10.198 33.556,21.454 46.789,31.177 13.224,9.732 30.552,18.831 30.552,18.831 0,0 -8.664,17.543 -13.661,33.196 m 65.509,-58.477 c -0.037,-0.024 -0.053,-0.032 -0.06,-0.035 l -0.047,-0.028 c -0.006,-0.005 -0.017,-0.01 -0.026,-0.018 -0.482,-0.294 -22.107,-12.622 -58.272,-39.044 -36.197,-26.558 -52.413,-38.1 -81.107,-41.638 -3.837,-0.494 -7.825,-0.766 -11.913,-0.766 -8.648,0 -17.777,1.234 -26.997,4.234 -6.051,1.948 -12.087,4.691 -18.024,8.262 1.56,-6.74 2.293,-13.3 2.287,-19.642 -0.011,0 0,-0.045 0,-0.045 0,-14.309 -3.612,-27.193 -8.734,-38.095 -12.229,-26.185 -28.21,-38.026 -64.653,-64.269 -18.259,-13.173 -32.049,-24.022 -41.258,-31.561 -4.602,-3.767 -8.055,-6.701 -10.364,-8.693 -1.144,-1 -2.006,-1.75 -2.576,-2.254 -0.29,-0.26 -0.503,-0.449 -0.663,-0.582 -0.064,-0.067 -0.123,-0.112 -0.176,-0.168 -0.039,-0.023 -0.06,-0.047 -0.101,-0.092 -0.023,-0.018 -0.054,-0.04 -0.108,-0.086 l -2.551,-2.321 -5.541,-5.044 -8.286,7.576 h 0.006 c -1.246,1.117 -19.76,17.783 -55.007,43.236 -36.448,26.232 -52.422,38.073 -64.658,64.269 -5.115,10.864 -8.707,23.687 -8.728,37.939 v 0.145 0.088 c -0.011,6.34 0.76,12.9 2.32,19.632 -5.966,-3.589 -11.984,-6.331 -18.056,-8.289 -9.226,-3.011 -18.366,-4.222 -27.003,-4.222 -4.1,0 -8.071,0.268 -11.915,0.763 -28.676,3.528 -44.893,15.071 -81.099,41.616 -18.179,13.296 -32.755,23.064 -42.7723,29.488 -4.992,3.212 -8.8626,5.592 -11.4586,7.164 -1.3053,0.787 -2.3,1.381 -2.956,1.764 -0.3267,0.192 -0.5733,0.336 -0.7427,0.437 -0.0853,0.058 -0.1613,0.091 -0.2146,0.124 -0.032,0.024 -0.0534,0.035 -0.1134,0.066 -0.0146,0.008 -0.036,0.021 -0.068,0.046 l -3.052,1.74 -6.5159,3.707 4.5799,10.06 c 0.172,0.416 0.0267,0.056 0.1614,0.37 1.1386,2.55 11.096,25.267 24.0306,65.456 13.6786,42.772 20.0136,61.64 41.1396,81.369 8.778,8.242 19.928,15.64 33.526,20.067 6.008,1.959 12.465,3.331 19.35,3.94 -5.203,4.532 -9.638,9.436 -13.342,14.557 -8.408,11.568 -13.059,24.104 -15.314,35.94 -1.352,6.988 -2.048,13.543 -2.048,20.063 0.06,19.638 6.03,37.732 16.571,69.93 7.019,21.391 11.802,38.271 14.826,49.783 1.507,5.753 2.588,10.167 3.271,13.123 0.343,1.482 0.6,2.598 0.76,3.352 0.085,0.374 0.144,0.658 0.192,0.844 0.021,0.101 0.032,0.172 0.041,0.241 l 0.007,0.016 0.755,3.641 1.517,7.333 11.16,-1.264 v -0.005 c 2.085,-0.208 25.523,-2.65 66.701,-2.65 1.016,-0.011 2.08,0 3.192,0.016 3.928,0 7.643,0.013 11.18,0.013 37.043,0.072 55.931,-1.232 78.927,-14.005 10.56,-5.8 21.042,-14.107 29.44,-25.683 3.741,-5.117 7.028,-10.847 9.732,-17.205 2.7,6.358 5.993,12.088 9.722,17.205 8.403,11.576 18.89,19.867 29.452,25.672 23.016,12.784 41.937,14.088 79.097,14.016 3.468,0 7.124,-0.013 10.967,-0.013 1.123,-0.027 2.139,-0.027 3.187,-0.027 21.486,0 38.194,0.669 49.526,1.347 5.665,0.328 9.975,0.664 12.871,0.914 1.458,0.124 2.556,0.227 3.288,0.304 0.368,0.024 0.641,0.055 0.833,0.076 0.096,0.011 0.176,0.011 0.24,0.02 v 0.005 l 3.72,0.407 7.452,0.823 2.175,-10.667 c 0.017,-0.07 0.017,-0.085 0.017,-0.09 l 0.009,-0.044 c 0,-0.006 0,-0.011 0.006,-0.022 0.112,-0.528 5.168,-24.94 19.13,-67.481 10.54,-32.204 16.506,-50.297 16.564,-69.936 0,-6.522 -0.689,-13.054 -2.032,-20.061 -2.26,-11.836 -6.921,-24.373 -15.324,-35.94 -3.72,-5.149 -8.188,-10.043 -13.426,-14.589 6.906,-0.604 13.396,-1.94 19.429,-3.904 13.615,-4.427 24.743,-11.826 33.52,-20.08 21.133,-19.716 27.467,-38.584 41.145,-81.343 6.895,-21.44 12.956,-37.913 17.269,-48.997 2.166,-5.533 3.886,-9.735 5.074,-12.541 0.588,-1.392 1.046,-2.448 1.352,-3.156 0.144,-0.347 0.268,-0.607 0.346,-0.787 0.034,-0.087 0.064,-0.167 0.087,-0.224 0.025,-0.031 0.037,-0.067 0.059,-0.123 0.005,-0.006 0.005,-0.014 0.016,-0.025 l 1.464,-3.253 3.09,-6.839 z"
     style="fill:#231f20;fill-opacity:1;fill-rule:nonzero;stroke:none"
     id="path25024" />
</svg>
