<?xml version="1.0" encoding="UTF-8" standalone="no"?>
<!-- Created with Inkscape (http://www.inkscape.org/) -->

<svg
   version="1.1"
   id="svg109948"
   width="795.03467"
   height="793.70135"
   viewBox="0 0 795.03467 793.70135"
   sodipodi:docname="Bishamon Kikkou.svg"
   inkscape:version="1.2 (dc2aeda, 2022-05-15)"
   xmlns:inkscape="http://www.inkscape.org/namespaces/inkscape"
   xmlns:sodipodi="http://sodipodi.sourceforge.net/DTD/sodipodi-0.dtd"
   xmlns="http://www.w3.org/2000/svg"
   xmlns:svg="http://www.w3.org/2000/svg">
  <defs
     id="defs109952">
    <clipPath
       clipPathUnits="userSpaceOnUse"
       id="clipPath110511">
      <path
         d="M -542.9326,584.5729 H 53.343399 V -10.7031 H -542.9326 Z"
         id="path110513"
         style="stroke-width:0.999998" />
    </clipPath>
    <clipPath
       clipPathUnits="userSpaceOnUse"
       id="clipPath110517">
      <path
         d="M -564.5732,585.8483 H 31.702801 V -9.4277027 H -564.5732 Z"
         id="path110519"
         style="stroke-width:0.999998" />
    </clipPath>
    <clipPath
       clipPathUnits="userSpaceOnUse"
       id="clipPath110523">
      <path
         d="M -567.7754,585.8522 H 28.500601 V -9.4238027 H -567.7754 Z"
         id="path110525"
         style="stroke-width:0.999998" />
    </clipPath>
    <clipPath
       clipPathUnits="userSpaceOnUse"
       id="clipPath110529">
      <path
         d="M -548.9834,585.8522 H 47.292601 V -9.4238027 H -548.9834 Z"
         id="path110531"
         style="stroke-width:0.999998" />
    </clipPath>
    <clipPath
       clipPathUnits="userSpaceOnUse"
       id="clipPath110535">
      <path
         d="M -545.417,584.5729 H 50.859001 V -10.7031 H -545.417 Z"
         id="path110537"
         style="stroke-width:0.999998" />
    </clipPath>
    <clipPath
       clipPathUnits="userSpaceOnUse"
       id="clipPath110541">
      <path
         d="M -553.8975,585.8483 H 42.378504 V -9.4277027 H -553.8975 Z"
         id="path110543"
         style="stroke-width:0.999998" />
    </clipPath>
    <clipPath
       clipPathUnits="userSpaceOnUse"
       id="clipPath110547">
      <path
         d="M -557.0645,585.8483 H 39.211501 V -9.4277027 H -557.0645 Z"
         id="path110549"
         style="stroke-width:0.999998" />
    </clipPath>
    <clipPath
       clipPathUnits="userSpaceOnUse"
       id="clipPath110553">
      <path
         d="M -561.4131,585.8522 H 34.862903 V -9.4238027 H -561.4131 Z"
         id="path110555"
         style="stroke-width:0.999998" />
    </clipPath>
    <clipPath
       clipPathUnits="userSpaceOnUse"
       id="clipPath110560">
      <path
         d="M -540.8213,585.8483 H 55.454701 V -9.4277027 H -540.8213 Z"
         id="path110562"
         style="stroke-width:0.999998" />
    </clipPath>
    <clipPath
       clipPathUnits="userSpaceOnUse"
       id="clipPath110566">
      <path
         d="M -536.6982,584.5729 H 59.577804 V -10.7031 H -536.6982 Z"
         id="path110568"
         style="stroke-width:0.999998" />
    </clipPath>
    <clipPath
       clipPathUnits="userSpaceOnUse"
       id="clipPath110572">
      <path
         d="M -550.2637,577.3248 H 46.012306 V -17.951198 H -550.2637 Z"
         id="path110574"
         style="stroke-width:0.999998" />
    </clipPath>
    <clipPath
       clipPathUnits="userSpaceOnUse"
       id="clipPath110578">
      <path
         d="M -572.8174,586.1354 H 23.458606 V -9.1406027 H -572.8174 Z"
         id="path110580"
         style="stroke-width:0.999998" />
    </clipPath>
    <clipPath
       clipPathUnits="userSpaceOnUse"
       id="clipPath110584">
      <path
         d="M -576.3691,585.5885 H 19.906905 V -9.6875027 H -576.3691 Z"
         id="path110586"
         style="stroke-width:0.999998" />
    </clipPath>
    <clipPath
       clipPathUnits="userSpaceOnUse"
       id="clipPath110590">
      <path
         d="M -556.4014,578.0143 H 39.874606 V -17.2617 H -556.4014 Z"
         id="path110592"
         style="stroke-width:0.999998" />
    </clipPath>
    <clipPath
       clipPathUnits="userSpaceOnUse"
       id="clipPath110596">
      <path
         d="M -557.4951,577.8502 H 38.780903 V -17.4258 H -557.4951 Z"
         id="path110598"
         style="stroke-width:0.999998" />
    </clipPath>
    <clipPath
       clipPathUnits="userSpaceOnUse"
       id="clipPath110602">
      <path
         d="M -531.1924,581.5885 H 65.083599 V -13.6875 H -531.1924 Z"
         id="path110604"
         style="stroke-width:0.999998" />
    </clipPath>
    <clipPath
       clipPathUnits="userSpaceOnUse"
       id="clipPath110608">
      <path
         d="M -586.5449,579.5026 H 9.7311002 V -15.7734 H -586.5449 Z"
         id="path110610"
         style="stroke-width:0.999998" />
    </clipPath>
    <clipPath
       clipPathUnits="userSpaceOnUse"
       id="clipPath110614">
      <path
         d="M -574.5459,585.8522 H 21.730103 V -9.4238027 H -574.5459 Z"
         id="path110616"
         style="stroke-width:0.999998" />
    </clipPath>
    <clipPath
       clipPathUnits="userSpaceOnUse"
       id="clipPath110620">
      <path
         d="M -568.2266,575.819 H 28.049401 V -19.457003 H -568.2266 Z"
         id="path110622"
         style="stroke-width:0.999998" />
    </clipPath>
    <clipPath
       clipPathUnits="userSpaceOnUse"
       id="clipPath110627">
      <path
         d="M -528.0898,575.3815 H 68.186199 V -19.8945 H -528.0898 Z"
         id="path110629"
         style="stroke-width:0.999998" />
    </clipPath>
    <clipPath
       clipPathUnits="userSpaceOnUse"
       id="clipPath110633">
      <path
         d="M -538.2217,577.9479 H 58.054299 V -17.328098 H -538.2217 Z"
         id="path110635"
         style="stroke-width:0.999998" />
    </clipPath>
    <clipPath
       clipPathUnits="userSpaceOnUse"
       id="clipPath110639">
      <path
         d="m -369.377,251.9098 h 596.27601 v -595.276 H -369.377 Z"
         id="path110641"
         style="stroke-width:0.999998" />
    </clipPath>
    <clipPath
       clipPathUnits="userSpaceOnUse"
       id="clipPath110645">
      <path
         d="m -403.8779,271.8287 h 596.276 v -595.276 h -596.276 z"
         id="path110647"
         style="stroke-width:0.999998" />
    </clipPath>
    <clipPath
       clipPathUnits="userSpaceOnUse"
       id="clipPath110651">
      <path
         d="m -247.542,462.9264 h 596.276 v -595.276 h -596.276 z"
         id="path110653"
         style="stroke-width:0.999998" />
    </clipPath>
    <clipPath
       clipPathUnits="userSpaceOnUse"
       id="clipPath110657">
      <path
         d="m -239.3643,507.483 h 596.276 V -87.793 h -596.276 z"
         id="path110659"
         style="stroke-width:0.999998" />
    </clipPath>
    <clipPath
       clipPathUnits="userSpaceOnUse"
       id="clipPath110663">
      <path
         d="m -491.2051,462.9283 h 596.276 v -595.276 h -596.276 z"
         id="path110665"
         style="stroke-width:0.999998" />
    </clipPath>
    <clipPath
       clipPathUnits="userSpaceOnUse"
       id="clipPath110669">
      <path
         d="M -525.71,482.8483 H 70.566002 v -595.276 H -525.71 Z"
         id="path110671"
         style="stroke-width:0.999998" />
    </clipPath>
    <clipPath
       clipPathUnits="userSpaceOnUse"
       id="clipPath110675">
      <path
         d="M -584.1943,578.9381 H 12.081705 V -16.337903 H -584.1943 Z"
         id="path110677"
         style="stroke-width:0.999998" />
    </clipPath>
  </defs>
  <sodipodi:namedview
     id="namedview109950"
     pagecolor="#ffffff"
     bordercolor="#000000"
     borderopacity="0.25"
     inkscape:showpageshadow="2"
     inkscape:pageopacity="0.0"
     inkscape:pagecheckerboard="0"
     inkscape:deskcolor="#d1d1d1"
     showgrid="false"
     inkscape:zoom="0.29734106"
     inkscape:cx="-215.24105"
     inkscape:cy="396.85068"
     inkscape:window-width="1419"
     inkscape:window-height="456"
     inkscape:window-x="0"
     inkscape:window-y="25"
     inkscape:window-maximized="0"
     inkscape:current-layer="svg109948">
    <inkscape:page
       x="0"
       y="0"
       id="page109954"
       width="795.03467"
       height="793.70135" />
  </sodipodi:namedview>
  <path
     d="M 492.503 335.88 L 481.611 342.169 L 396.857 293.231 L 312.094 342.163 L 301.201 335.875 L 301.203 323.296 L 385.965 274.364 L 385.965 176.495 L 396.857 170.206 L 407.75 176.495 L 407.75 274.364 L 492.504 323.304 Z M 438.015 256.891 L 438.015 159.019 L 396.857 135.259 L 355.698 159.019 L 355.698 256.891 L 270.942 305.817 L 270.932 353.351 L 312.097 377.108 L 396.854 328.177 L 481.611 377.117 L 522.767 353.356 L 522.771 305.831 Z"
     style="fill:#000000;fill-opacity:1;fill-rule:nonzero;stroke:none"
     id="path110068" />
  <path
     d="M 538.504 362.438 L 481.605 395.287 L 396.851 346.347 L 312.097 395.277 L 255.193 362.433 L 255.203 296.727 L 339.958 247.801 L 339.958 149.929 L 396.854 117.083 L 453.752 149.929 L 453.75 247.801 L 538.509 296.743 Z M 465.855 240.809 L 465.858 142.939 L 396.851 103.103 L 327.853 142.94 L 327.853 240.809 L 243.097 289.734 L 243.083 369.417 L 312.097 409.255 L 396.848 360.325 L 481.604 409.263 L 550.609 369.427 L 550.615 289.752 Z"
     style="fill:#000000;fill-opacity:1;fill-rule:nonzero;stroke:none"
     id="path110072" />
  <path
     d="M 330.056 617.235 L 319.161 623.522 L 234.407 574.584 L 149.647 623.519 L 138.755 617.23 L 138.754 604.651 L 223.515 555.716 L 223.52 457.847 L 234.411 451.561 L 245.303 457.849 L 245.299 555.716 L 330.056 604.656 Z M 360.316 587.183 L 275.564 538.246 L 275.568 440.375 L 234.414 416.613 L 193.251 440.373 L 193.248 538.243 L 108.489 587.178 L 108.49 634.704 L 149.647 658.467 L 234.407 609.53 L 319.156 658.47 L 360.324 634.711 Z"
     style="fill:#000000;fill-opacity:1;fill-rule:nonzero;stroke:none"
     id="path110076" />
  <path
     d="M 319.152 676.644 L 234.404 627.707 L 149.644 676.644 L 92.7512 643.792 L 92.7486 578.095 L 177.51 529.16 L 177.514 431.286 L 234.41 398.443 L 291.308 431.295 L 291.3 529.163 L 376.053 578.098 L 376.061 643.8 Z M 388.157 571.108 L 303.405 522.178 L 303.412 424.307 L 234.41 384.465 L 165.407 424.298 L 165.402 522.172 L 80.6406 571.106 L 80.6446 650.784 L 149.644 690.623 L 234.402 641.685 L 319.149 690.625 L 388.165 650.795 Z"
     style="fill:#000000;fill-opacity:1;fill-rule:nonzero;stroke:none"
     id="path110080" />
  <path
     d="M 654.94 617.238 L 644.048 623.527 L 559.291 574.593 L 474.528 623.522 L 463.639 617.235 L 463.638 604.657 L 548.398 555.725 L 548.403 457.857 L 559.295 451.566 L 570.187 457.858 L 570.182 555.725 L 654.941 604.662 Z M 600.448 538.252 L 600.455 440.388 L 559.295 416.615 L 518.136 440.385 L 518.135 538.252 L 433.374 587.183 L 433.371 634.707 L 474.528 658.473 L 559.291 609.541 L 644.048 658.478 L 685.205 634.711 L 685.207 587.189 Z"
     style="fill:#000000;fill-opacity:1;fill-rule:nonzero;stroke:none"
     id="path110084" />
  <path
     d="M 700.947 643.798 L 644.051 676.65 L 559.294 627.713 L 474.53 676.647 L 417.64 643.793 L 417.641 578.093 L 502.401 529.165 L 502.403 431.301 L 559.299 398.443 L 616.197 431.304 L 616.19 529.165 L 700.95 578.103 Z M 628.297 522.178 L 628.307 424.317 L 559.306 384.463 L 490.298 424.312 L 490.298 522.173 L 405.536 571.104 L 405.533 650.782 L 474.53 690.626 L 559.297 641.691 L 644.054 690.629 L 713.056 650.787 L 713.056 571.113 Z"
     style="fill:#000000;fill-opacity:1;fill-rule:nonzero;stroke:none"
     id="path110088" />
</svg>
