<?xml version="1.0" encoding="UTF-8" standalone="no"?>
<!-- Created with Inkscape (http://www.inkscape.org/) -->

<svg
   version="1.1"
   id="svg95310"
   width="795.03467"
   height="793.70135"
   viewBox="0 0 795.03467 793.70135"
   sodipodi:docname="Chuuwani Warikikkouni Hanakaku.svg"
   inkscape:version="1.2 (dc2aeda, 2022-05-15)"
   xmlns:inkscape="http://www.inkscape.org/namespaces/inkscape"
   xmlns:sodipodi="http://sodipodi.sourceforge.net/DTD/sodipodi-0.dtd"
   xmlns="http://www.w3.org/2000/svg"
   xmlns:svg="http://www.w3.org/2000/svg">
  <defs
     id="defs95314">
    <clipPath
       clipPathUnits="userSpaceOnUse"
       id="clipPath95803">
      <path
         d="M -528.0898,575.3815 H 68.186199 V -19.8945 H -528.0898 Z"
         id="path95805"
         style="stroke-width:0.999998" />
    </clipPath>
    <clipPath
       clipPathUnits="userSpaceOnUse"
       id="clipPath95809">
      <path
         d="M -536.6982,584.5729 H 59.577804 V -10.7031 H -536.6982 Z"
         id="path95811"
         style="stroke-width:0.999998" />
    </clipPath>
    <clipPath
       clipPathUnits="userSpaceOnUse"
       id="clipPath95815">
      <path
         d="M -557.0645,585.8483 H 39.211501 V -9.4277027 H -557.0645 Z"
         id="path95817"
         style="stroke-width:0.999998" />
    </clipPath>
    <clipPath
       clipPathUnits="userSpaceOnUse"
       id="clipPath95822">
      <path
         d="M -567.7754,585.8522 H 28.500601 V -9.4238027 H -567.7754 Z"
         id="path95824"
         style="stroke-width:0.999998" />
    </clipPath>
    <clipPath
       clipPathUnits="userSpaceOnUse"
       id="clipPath95828">
      <path
         d="M -542.9326,584.5729 H 53.343399 V -10.7031 H -542.9326 Z"
         id="path95830"
         style="stroke-width:0.999998" />
    </clipPath>
    <clipPath
       clipPathUnits="userSpaceOnUse"
       id="clipPath95834">
      <path
         d="M -561.4131,585.8522 H 34.862903 V -9.4238027 H -561.4131 Z"
         id="path95836"
         style="stroke-width:0.999998" />
    </clipPath>
    <clipPath
       clipPathUnits="userSpaceOnUse"
       id="clipPath95840">
      <path
         d="M -553.8975,585.8483 H 42.378504 V -9.4277027 H -553.8975 Z"
         id="path95842"
         style="stroke-width:0.999998" />
    </clipPath>
    <clipPath
       clipPathUnits="userSpaceOnUse"
       id="clipPath95846">
      <path
         d="M -540.8213,585.8483 H 55.454701 V -9.4277027 H -540.8213 Z"
         id="path95848"
         style="stroke-width:0.999998" />
    </clipPath>
    <clipPath
       clipPathUnits="userSpaceOnUse"
       id="clipPath95852">
      <path
         d="M -548.9834,585.8522 H 47.292601 V -9.4238027 H -548.9834 Z"
         id="path95854"
         style="stroke-width:0.999998" />
    </clipPath>
    <clipPath
       clipPathUnits="userSpaceOnUse"
       id="clipPath95858">
      <path
         d="M -545.417,584.5729 H 50.859001 V -10.7031 H -545.417 Z"
         id="path95860"
         style="stroke-width:0.999998" />
    </clipPath>
    <clipPath
       clipPathUnits="userSpaceOnUse"
       id="clipPath95864">
      <path
         d="M -531.1924,581.5885 H 65.083599 V -13.6875 H -531.1924 Z"
         id="path95866"
         style="stroke-width:0.999998" />
    </clipPath>
    <clipPath
       clipPathUnits="userSpaceOnUse"
       id="clipPath95870">
      <path
         d="M -564.5732,585.8483 H 31.702801 V -9.4277027 H -564.5732 Z"
         id="path95872"
         style="stroke-width:0.999998" />
    </clipPath>
    <clipPath
       clipPathUnits="userSpaceOnUse"
       id="clipPath95876">
      <path
         d="M -572.8174,586.1354 H 23.458606 V -9.1406027 H -572.8174 Z"
         id="path95878"
         style="stroke-width:0.999998" />
    </clipPath>
    <clipPath
       clipPathUnits="userSpaceOnUse"
       id="clipPath95882">
      <path
         d="M -574.5459,585.8522 H 21.730103 V -9.4238027 H -574.5459 Z"
         id="path95884"
         style="stroke-width:0.999998" />
    </clipPath>
    <clipPath
       clipPathUnits="userSpaceOnUse"
       id="clipPath95888">
      <path
         d="M -576.3691,585.5885 H 19.906905 V -9.6875027 H -576.3691 Z"
         id="path95890"
         style="stroke-width:0.999998" />
    </clipPath>
    <clipPath
       clipPathUnits="userSpaceOnUse"
       id="clipPath95894">
      <path
         d="M -557.4951,577.8502 H 38.780903 V -17.4258 H -557.4951 Z"
         id="path95896"
         style="stroke-width:0.999998" />
    </clipPath>
    <clipPath
       clipPathUnits="userSpaceOnUse"
       id="clipPath95900">
      <path
         d="M -568.2266,575.819 H 28.049401 V -19.457003 H -568.2266 Z"
         id="path95902"
         style="stroke-width:0.999998" />
    </clipPath>
    <clipPath
       clipPathUnits="userSpaceOnUse"
       id="clipPath95906">
      <path
         d="M -550.2637,577.3248 H 46.012306 V -17.951198 H -550.2637 Z"
         id="path95908"
         style="stroke-width:0.999998" />
    </clipPath>
    <clipPath
       clipPathUnits="userSpaceOnUse"
       id="clipPath95913">
      <path
         d="M -556.4014,578.0143 H 39.874606 V -17.2617 H -556.4014 Z"
         id="path95915"
         style="stroke-width:0.999998" />
    </clipPath>
    <clipPath
       clipPathUnits="userSpaceOnUse"
       id="clipPath95919">
      <path
         d="M -586.5449,579.5026 H 9.7311002 V -15.7734 H -586.5449 Z"
         id="path95921"
         style="stroke-width:0.999998" />
    </clipPath>
    <clipPath
       clipPathUnits="userSpaceOnUse"
       id="clipPath95925">
      <path
         d="M -584.1943,578.9381 H 12.081705 V -16.337903 H -584.1943 Z"
         id="path95927"
         style="stroke-width:0.999998" />
    </clipPath>
    <clipPath
       clipPathUnits="userSpaceOnUse"
       id="clipPath95931">
      <path
         d="M -538.2217,577.9479 H 58.054299 V -17.328098 H -538.2217 Z"
         id="path95933"
         style="stroke-width:0.999998" />
    </clipPath>
    <clipPath
       clipPathUnits="userSpaceOnUse"
       id="clipPath95937">
      <path
         d="m -391.6846,375.7526 h 596.276 v -595.276 h -596.276 z"
         id="path95939"
         style="stroke-width:0.999998" />
    </clipPath>
  </defs>
  <sodipodi:namedview
     id="namedview95312"
     pagecolor="#ffffff"
     bordercolor="#000000"
     borderopacity="0.25"
     inkscape:showpageshadow="2"
     inkscape:pageopacity="0.0"
     inkscape:pagecheckerboard="0"
     inkscape:deskcolor="#d1d1d1"
     showgrid="false"
     inkscape:zoom="0.29734106"
     inkscape:cx="-215.24105"
     inkscape:cy="396.85068"
     inkscape:window-width="1419"
     inkscape:window-height="456"
     inkscape:window-x="0"
     inkscape:window-y="25"
     inkscape:window-maximized="0"
     inkscape:current-layer="svg95310">
    <inkscape:page
       x="0"
       y="0"
       id="page95316"
       width="795.03467"
       height="793.70135" />
  </sodipodi:namedview>
  <path
     d="M 522.246 501.003 C 524.027 490.85 521.055 480.019 513.294 472.096 C 500.505 459.047 479.557 458.847 466.509 471.634 L 422.541 515.602 C 425.296 519.448 427.208 523.935 428.01 528.8 L 465.209 528.8 C 468.067 528.8 470.386 531.118 470.386 533.976 L 470.386 533.979 L 552.713 533.979 C 552.713 516.587 539.295 502.334 522.246 501.003 M 219.079 430.131 L 219.079 533.979 L 233.449 533.979 L 233.449 438.427 L 396.85 344.089 L 560.239 438.427 L 560.239 533.979 L 574.614 533.979 L 574.614 430.131 L 396.85 327.493 Z M 280.397 472.096 C 272.633 480.019 269.663 490.85 271.444 501.003 C 254.393 502.334 240.976 516.587 240.976 533.979 L 323.304 533.979 L 323.304 533.976 C 323.304 531.118 325.622 528.8 328.478 528.8 L 365.681 528.8 C 366.481 523.935 368.394 519.448 371.148 515.602 L 327.181 471.634 C 314.133 458.847 293.184 459.047 280.397 472.096 M 396.844 512.74 C 385.113 512.74 375.606 522.248 375.606 533.979 L 418.08 533.979 C 418.08 522.248 408.573 512.74 396.844 512.74 M 396.85 214.477 L 121.203 373.622 L 121.203 533.979 L 202.591 533.979 L 202.591 420.61 L 396.85 308.455 L 591.103 420.61 L 591.103 533.979 L 672.488 533.979 L 672.488 373.622 Z M 415.222 508.282 L 459.193 464.312 C 471.978 451.266 471.775 430.315 458.726 417.53 C 450.805 409.766 439.973 406.795 429.821 408.579 C 428.492 391.529 414.238 378.11 396.846 378.11 C 379.452 378.11 365.2 391.529 363.869 408.579 C 353.718 406.795 342.885 409.766 334.962 417.53 C 321.916 430.315 321.713 451.266 334.501 464.312 L 378.47 508.282 C 382.314 505.527 386.801 503.615 391.668 502.812 L 391.668 465.612 C 391.668 462.755 393.986 460.435 396.846 460.435 C 399.705 460.435 402.022 462.755 402.022 465.612 L 402.022 502.812 C 406.888 503.615 411.378 505.527 415.222 508.282 M 396.85 719.432 C 218.685 719.424 74.2711 575.011 74.2565 396.846 C 74.2711 218.685 218.685 74.2787 396.85 74.2721 C 575.005 74.2787 719.426 218.685 719.436 396.846 C 719.426 575.011 575.005 719.424 396.85 719.432 M 396.85 31.7295 C 195.189 31.7402 31.7286 195.19 31.7139 396.846 C 31.7286 598.505 195.189 761.964 396.85 761.974 C 598.5 761.964 761.967 598.505 761.977 396.846 C 761.967 195.19 598.5 31.7402 396.85 31.7295"
     style="fill:#000000;fill-opacity:1;fill-rule:nonzero;stroke:none"
     id="path95430" />
</svg>
