<?xml version="1.0" encoding="UTF-8" standalone="no"?>
<!-- Created with Inkscape (http://www.inkscape.org/) -->

<svg
   version="1.1"
   id="svg93360"
   width="795.03467"
   height="793.70135"
   viewBox="0 0 795.03467 793.70135"
   sodipodi:docname="Hana Kikkou Kuzushi.svg"
   inkscape:version="1.2 (dc2aeda, 2022-05-15)"
   xmlns:inkscape="http://www.inkscape.org/namespaces/inkscape"
   xmlns:sodipodi="http://sodipodi.sourceforge.net/DTD/sodipodi-0.dtd"
   xmlns="http://www.w3.org/2000/svg"
   xmlns:svg="http://www.w3.org/2000/svg">
  <defs
     id="defs93364">
    <clipPath
       clipPathUnits="userSpaceOnUse"
       id="clipPath94003">
      <path
         d="M -572.8174,586.1354 H 23.458606 V -9.1406027 H -572.8174 Z"
         id="path94005"
         style="stroke-width:0.999998" />
    </clipPath>
    <clipPath
       clipPathUnits="userSpaceOnUse"
       id="clipPath94009">
      <path
         d="M -574.5459,585.8522 H 21.730103 V -9.4238027 H -574.5459 Z"
         id="path94011"
         style="stroke-width:0.999998" />
    </clipPath>
    <clipPath
       clipPathUnits="userSpaceOnUse"
       id="clipPath94015">
      <path
         d="M -576.3691,585.5885 H 19.906905 V -9.6875027 H -576.3691 Z"
         id="path94017"
         style="stroke-width:0.999998" />
    </clipPath>
    <clipPath
       clipPathUnits="userSpaceOnUse"
       id="clipPath94021">
      <path
         d="M -561.4131,585.8522 H 34.862903 V -9.4238027 H -561.4131 Z"
         id="path94023"
         style="stroke-width:0.999998" />
    </clipPath>
    <clipPath
       clipPathUnits="userSpaceOnUse"
       id="clipPath94027">
      <path
         d="M -564.5732,585.8483 H 31.702801 V -9.4277027 H -564.5732 Z"
         id="path94029"
         style="stroke-width:0.999998" />
    </clipPath>
    <clipPath
       clipPathUnits="userSpaceOnUse"
       id="clipPath94033">
      <path
         d="M -567.7754,585.8522 H 28.500601 V -9.4238027 H -567.7754 Z"
         id="path94035"
         style="stroke-width:0.999998" />
    </clipPath>
    <clipPath
       clipPathUnits="userSpaceOnUse"
       id="clipPath94040">
      <path
         d="M -557.4951,577.8502 H 38.780903 V -17.4258 H -557.4951 Z"
         id="path94042"
         style="stroke-width:0.999998" />
    </clipPath>
    <clipPath
       clipPathUnits="userSpaceOnUse"
       id="clipPath94046">
      <path
         d="M -568.2266,575.819 H 28.049401 V -19.457003 H -568.2266 Z"
         id="path94048"
         style="stroke-width:0.999998" />
    </clipPath>
    <clipPath
       clipPathUnits="userSpaceOnUse"
       id="clipPath94052">
      <path
         d="M -550.2637,577.3248 H 46.012306 V -17.951198 H -550.2637 Z"
         id="path94054"
         style="stroke-width:0.999998" />
    </clipPath>
    <clipPath
       clipPathUnits="userSpaceOnUse"
       id="clipPath94059">
      <path
         d="M -556.4014,578.0143 H 39.874606 V -17.2617 H -556.4014 Z"
         id="path94061"
         style="stroke-width:0.999998" />
    </clipPath>
    <clipPath
       clipPathUnits="userSpaceOnUse"
       id="clipPath94065">
      <path
         d="M -586.5449,579.5026 H 9.7311002 V -15.7734 H -586.5449 Z"
         id="path94067"
         style="stroke-width:0.999998" />
    </clipPath>
    <clipPath
       clipPathUnits="userSpaceOnUse"
       id="clipPath94071">
      <path
         d="M -584.1943,578.9381 H 12.081705 V -16.337903 H -584.1943 Z"
         id="path94073"
         style="stroke-width:0.999998" />
    </clipPath>
    <clipPath
       clipPathUnits="userSpaceOnUse"
       id="clipPath94077">
      <path
         d="M -538.2217,577.9479 H 58.054299 V -17.328098 H -538.2217 Z"
         id="path94079"
         style="stroke-width:0.999998" />
    </clipPath>
    <clipPath
       clipPathUnits="userSpaceOnUse"
       id="clipPath94083">
      <path
         d="m -364.6143,230.6486 h 596.276 v -595.276 h -596.276 z"
         id="path94085"
         style="stroke-width:0.999998" />
    </clipPath>
    <clipPath
       clipPathUnits="userSpaceOnUse"
       id="clipPath94089">
      <path
         d="m -291.0957,273.0919 h 596.276 v -595.276 h -596.276 z"
         id="path94091"
         style="stroke-width:0.999998" />
    </clipPath>
    <clipPath
       clipPathUnits="userSpaceOnUse"
       id="clipPath94095">
      <path
         d="m -206.1338,273.1329 h 596.276 v -595.276 h -596.276 z"
         id="path94097"
         style="stroke-width:0.999998" />
    </clipPath>
    <clipPath
       clipPathUnits="userSpaceOnUse"
       id="clipPath94101">
      <path
         d="m -279.6494,315.5787 h 596.276 v -595.276 h -596.276 z"
         id="path94103"
         style="stroke-width:0.999998" />
    </clipPath>
    <clipPath
       clipPathUnits="userSpaceOnUse"
       id="clipPath94107">
      <path
         d="M -322.166,389.1393 H 274.11 v -595.276 h -596.276 z"
         id="path94109"
         style="stroke-width:0.999998" />
    </clipPath>
    <clipPath
       clipPathUnits="userSpaceOnUse"
       id="clipPath94113">
      <path
         d="m -322.168,304.2467 h 596.276 v -595.276 h -596.276 z"
         id="path94115"
         style="stroke-width:0.999998" />
    </clipPath>
    <clipPath
       clipPathUnits="userSpaceOnUse"
       id="clipPath94119">
      <path
         d="m -321.1172,178.4279 h 596.276 v -595.276 h -596.276 z"
         id="path94121"
         style="stroke-width:0.999998" />
    </clipPath>
    <clipPath
       clipPathUnits="userSpaceOnUse"
       id="clipPath94125">
      <path
         d="m -297.6377,113.1075 h 596.276 v -595.276 h -596.276 z"
         id="path94127"
         style="stroke-width:0.999998" />
    </clipPath>
    <clipPath
       clipPathUnits="userSpaceOnUse"
       id="clipPath94131">
      <path
         d="m -182.6572,336.9127 h 596.276 v -595.276 h -596.276 z"
         id="path94133"
         style="stroke-width:0.999998" />
    </clipPath>
    <clipPath
       clipPathUnits="userSpaceOnUse"
       id="clipPath94137">
      <path
         d="m -137.8271,389.9069 h 596.276 v -595.276 h -596.276 z"
         id="path94139"
         style="stroke-width:0.999998" />
    </clipPath>
    <clipPath
       clipPathUnits="userSpaceOnUse"
       id="clipPath94144">
      <path
         d="m -457.4482,389.9069 h 596.276 v -595.276 h -596.276 z"
         id="path94146"
         style="stroke-width:0.999998" />
    </clipPath>
    <clipPath
       clipPathUnits="userSpaceOnUse"
       id="clipPath94150">
      <path
         d="M -542.9326,584.5729 H 53.343399 V -10.7031 H -542.9326 Z"
         id="path94152"
         style="stroke-width:0.999998" />
    </clipPath>
    <clipPath
       clipPathUnits="userSpaceOnUse"
       id="clipPath94156">
      <path
         d="M -536.6982,584.5729 H 59.577804 V -10.7031 H -536.6982 Z"
         id="path94158"
         style="stroke-width:0.999998" />
    </clipPath>
    <clipPath
       clipPathUnits="userSpaceOnUse"
       id="clipPath94162">
      <path
         d="M -540.8213,585.8483 H 55.454701 V -9.4277027 H -540.8213 Z"
         id="path94164"
         style="stroke-width:0.999998" />
    </clipPath>
    <clipPath
       clipPathUnits="userSpaceOnUse"
       id="clipPath94168">
      <path
         d="M -528.0898,575.3815 H 68.186199 V -19.8945 H -528.0898 Z"
         id="path94170"
         style="stroke-width:0.999998" />
    </clipPath>
    <clipPath
       clipPathUnits="userSpaceOnUse"
       id="clipPath94174">
      <path
         d="M -545.417,584.5729 H 50.859001 V -10.7031 H -545.417 Z"
         id="path94176"
         style="stroke-width:0.999998" />
    </clipPath>
    <clipPath
       clipPathUnits="userSpaceOnUse"
       id="clipPath94180">
      <path
         d="M -557.0645,585.8483 H 39.211501 V -9.4277027 H -557.0645 Z"
         id="path94182"
         style="stroke-width:0.999998" />
    </clipPath>
    <clipPath
       clipPathUnits="userSpaceOnUse"
       id="clipPath94186">
      <path
         d="M -531.1924,581.5885 H 65.083599 V -13.6875 H -531.1924 Z"
         id="path94188"
         style="stroke-width:0.999998" />
    </clipPath>
    <clipPath
       clipPathUnits="userSpaceOnUse"
       id="clipPath94192">
      <path
         d="M -548.9834,585.8522 H 47.292601 V -9.4238027 H -548.9834 Z"
         id="path94194"
         style="stroke-width:0.999998" />
    </clipPath>
    <clipPath
       clipPathUnits="userSpaceOnUse"
       id="clipPath94198">
      <path
         d="M -553.8975,585.8483 H 42.378504 V -9.4277027 H -553.8975 Z"
         id="path94200"
         style="stroke-width:0.999998" />
    </clipPath>
  </defs>
  <sodipodi:namedview
     id="namedview93362"
     pagecolor="#ffffff"
     bordercolor="#000000"
     borderopacity="0.25"
     inkscape:showpageshadow="2"
     inkscape:pageopacity="0.0"
     inkscape:pagecheckerboard="0"
     inkscape:deskcolor="#d1d1d1"
     showgrid="false"
     inkscape:zoom="0.29734106"
     inkscape:cx="-215.24105"
     inkscape:cy="396.85068"
     inkscape:window-width="1419"
     inkscape:window-height="456"
     inkscape:window-x="0"
     inkscape:window-y="25"
     inkscape:window-maximized="0"
     inkscape:current-layer="svg93360">
    <inkscape:page
       x="0"
       y="0"
       id="page93366"
       width="795.03467"
       height="793.70135" />
  </sodipodi:namedview>
  <path
     d="M 486.152 307.531 L 695.454 186.693 C 679.588 164.19 661.24 143.565 640.813 125.209 L 405.58 261.014 Z"
     style="fill:#000000;fill-opacity:1;fill-rule:nonzero;stroke:none"
     id="path93480" />
  <path
     d="M 388.128 364.123 L 307.559 317.607 L 283.592 331.446 L 283.595 744.034 C 309.315 752.417 336.285 758.023 364.157 760.495 L 364.157 377.962 Z"
     style="fill:#000000;fill-opacity:1;fill-rule:nonzero;stroke:none"
     id="path93484" />
  <path
     d="M 274.845 364.177 L 65.5455 243.336 C 53.9896 268.325 45.3042 294.529 39.6189 321.396 L 274.846 457.209 Z"
     style="fill:#000000;fill-opacity:1;fill-rule:nonzero;stroke:none"
     id="path93488" />
  <path
     d="M 372.866 420.772 L 372.869 513.805 L 396.837 527.641 L 754.146 321.347 C 748.549 294.882 739.914 268.719 728.12 243.344 L 396.838 434.611 Z"
     style="fill:#000000;fill-opacity:1;fill-rule:nonzero;stroke:none"
     id="path93492" />
  <path
     d="M 429.555 518.852 L 429.554 760.531 C 456.974 758.042 484.008 752.466 510.121 743.953 L 510.125 472.331 Z"
     style="fill:#000000;fill-opacity:1;fill-rule:nonzero;stroke:none"
     id="path93496" />
  <path
     d="M 429.557 405.662 L 510.125 359.146 L 510.125 331.472 L 152.811 125.18 C 132.69 143.261 114.354 163.817 98.2725 186.719 L 429.557 377.986 Z"
     style="fill:#000000;fill-opacity:1;fill-rule:nonzero;stroke:none"
     id="path93500" />
  <path
     d="M 428.156 237.904 L 396.835 255.988 L 365.539 237.92 C 369.423 224.28 381.967 214.291 396.851 214.291 C 411.728 214.291 424.267 224.272 428.156 237.904"
     style="fill:#000000;fill-opacity:1;fill-rule:nonzero;stroke:none"
     id="path93504" />
  <path
     d="M 396.85 150.81 L 422.383 165.553 C 412.533 176.446 406.51 190.867 406.434 206.691 C 420.239 209.978 431.347 220.183 435.899 233.448 L 504.475 193.857 C 505.595 193.245 506.7 192.609 507.79 191.943 C 525.562 181.114 539.244 163.555 544.66 141.765 C 555.575 97.8648 528.831 53.4276 484.932 42.5156 C 450.353 33.9196 415.447 48.6983 396.85 76.8155 C 378.251 48.6983 343.347 33.9196 308.768 42.5156 C 264.869 53.4276 238.125 97.8648 249.04 141.765 C 254.456 163.555 268.138 181.114 285.91 191.943 C 286.998 192.609 288.105 193.245 289.225 193.857 L 357.801 233.448 C 362.353 220.183 373.461 209.978 387.266 206.691 C 387.19 190.867 381.167 176.446 371.317 165.553 Z"
     style="fill:#000000;fill-opacity:1;fill-rule:nonzero;stroke:none"
     id="path93508" />
  <path
     d="M 243.543 449.217 L 274.863 467.302 L 274.863 503.438 C 261.111 506.892 246.186 501.026 238.746 488.136 C 231.306 475.25 233.682 459.402 243.543 449.217"
     style="fill:#000000;fill-opacity:1;fill-rule:nonzero;stroke:none"
     id="path93512" />
  <path
     d="M 183.769 519.876 L 183.77 490.392 C 198.13 493.477 213.63 491.483 227.372 483.636 C 223.316 470.037 226.6 455.313 235.813 444.74 L 167.237 405.147 C 166.148 404.48 165.042 403.846 163.921 403.234 C 145.657 393.256 123.61 390.186 102.029 396.391 C 58.556 408.89 33.444 454.267 45.9413 497.743 C 55.7893 531.988 86.0399 554.827 119.688 556.873 C 104.637 587.037 109.291 624.657 134.024 650.305 C 165.425 682.865 217.28 683.808 249.841 652.406 C 266.006 636.821 274.37 616.19 274.861 595.386 C 274.894 594.11 274.894 592.834 274.861 591.561 L 274.861 512.373 C 261.097 515.064 246.706 510.548 236.957 500.236 C 223.29 508.215 213.812 520.639 209.302 534.619 Z"
     style="fill:#000000;fill-opacity:1;fill-rule:nonzero;stroke:none"
     id="path93516" />
  <path
     d="m 518.85279,503.44094 v -36.16667 l 31.296,-18.068 c 9.868,10.18 12.248,26.04 4.80667,38.92934 -7.44,12.88666 -22.352,18.75066 -36.10267,15.30533"
     style="fill:#000000;fill-opacity:1;fill-rule:nonzero;stroke:none;stroke-width:1.33333"
     id="path93520" />
  <path
     d="M 609.931 519.876 L 584.396 534.619 C 579.888 520.636 570.41 508.215 556.743 500.236 C 546.996 510.545 532.603 515.064 518.841 512.373 L 518.839 591.561 C 518.807 592.834 518.807 594.113 518.841 595.386 C 519.331 616.19 527.695 636.821 543.859 652.406 C 576.419 683.808 628.275 682.865 659.676 650.305 C 684.409 624.654 689.063 587.037 674.012 556.873 C 707.66 554.827 737.912 531.985 747.757 497.743 C 760.256 454.267 735.144 408.89 691.671 396.391 C 670.088 390.186 648.043 393.256 629.779 403.234 C 628.658 403.846 627.552 404.48 626.463 405.147 L 557.888 444.738 C 567.1 455.313 570.384 470.035 566.328 483.636 C 580.07 491.483 595.571 493.475 609.931 490.392 Z"
     style="fill:#000000;fill-opacity:1;fill-rule:nonzero;stroke:none"
     id="path93524" />
</svg>
