<?xml version="1.0" encoding="UTF-8" standalone="no"?>
<!-- Created with Inkscape (http://www.inkscape.org/) -->

<svg
   version="1.1"
   id="svg89458"
   width="795.03467"
   height="793.70135"
   viewBox="0 0 795.03467 793.70135"
   sodipodi:docname="Itobishini Nozokikikkou Hanabishi.svg"
   inkscape:version="1.2 (dc2aeda, 2022-05-15)"
   xmlns:inkscape="http://www.inkscape.org/namespaces/inkscape"
   xmlns:sodipodi="http://sodipodi.sourceforge.net/DTD/sodipodi-0.dtd"
   xmlns="http://www.w3.org/2000/svg"
   xmlns:svg="http://www.w3.org/2000/svg">
  <defs
     id="defs89462">
    <clipPath
       clipPathUnits="userSpaceOnUse"
       id="clipPath89951">
      <path
         d="M -531.1924,581.5885 H 65.083599 V -13.6875 H -531.1924 Z"
         id="path89953"
         style="stroke-width:0.999998" />
    </clipPath>
    <clipPath
       clipPathUnits="userSpaceOnUse"
       id="clipPath89957">
      <path
         d="M -548.9834,585.8522 H 47.292601 V -9.4238027 H -548.9834 Z"
         id="path89959"
         style="stroke-width:0.999998" />
    </clipPath>
    <clipPath
       clipPathUnits="userSpaceOnUse"
       id="clipPath89963">
      <path
         d="M -561.4131,585.8522 H 34.862903 V -9.4238027 H -561.4131 Z"
         id="path89965"
         style="stroke-width:0.999998" />
    </clipPath>
    <clipPath
       clipPathUnits="userSpaceOnUse"
       id="clipPath89969">
      <path
         d="M -557.0645,585.8483 H 39.211501 V -9.4277027 H -557.0645 Z"
         id="path89971"
         style="stroke-width:0.999998" />
    </clipPath>
    <clipPath
       clipPathUnits="userSpaceOnUse"
       id="clipPath89975">
      <path
         d="M -574.5459,585.8522 H 21.730103 V -9.4238027 H -574.5459 Z"
         id="path89977"
         style="stroke-width:0.999998" />
    </clipPath>
    <clipPath
       clipPathUnits="userSpaceOnUse"
       id="clipPath89982">
      <path
         d="M -528.0898,575.3815 H 68.186199 V -19.8945 H -528.0898 Z"
         id="path89984"
         style="stroke-width:0.999998" />
    </clipPath>
    <clipPath
       clipPathUnits="userSpaceOnUse"
       id="clipPath89988">
      <path
         d="M -567.7754,585.8522 H 28.500601 V -9.4238027 H -567.7754 Z"
         id="path89990"
         style="stroke-width:0.999998" />
    </clipPath>
    <clipPath
       clipPathUnits="userSpaceOnUse"
       id="clipPath89994">
      <path
         d="M -564.5732,585.8483 H 31.702801 V -9.4277027 H -564.5732 Z"
         id="path89996"
         style="stroke-width:0.999998" />
    </clipPath>
    <clipPath
       clipPathUnits="userSpaceOnUse"
       id="clipPath90000">
      <path
         d="M -536.6982,584.5729 H 59.577804 V -10.7031 H -536.6982 Z"
         id="path90002"
         style="stroke-width:0.999998" />
    </clipPath>
    <clipPath
       clipPathUnits="userSpaceOnUse"
       id="clipPath90006">
      <path
         d="M -576.3691,585.5885 H 19.906905 V -9.6875027 H -576.3691 Z"
         id="path90008"
         style="stroke-width:0.999998" />
    </clipPath>
    <clipPath
       clipPathUnits="userSpaceOnUse"
       id="clipPath90012">
      <path
         d="M -542.9326,584.5729 H 53.343399 V -10.7031 H -542.9326 Z"
         id="path90014"
         style="stroke-width:0.999998" />
    </clipPath>
    <clipPath
       clipPathUnits="userSpaceOnUse"
       id="clipPath90018">
      <path
         d="M -545.417,584.5729 H 50.859001 V -10.7031 H -545.417 Z"
         id="path90020"
         style="stroke-width:0.999998" />
    </clipPath>
    <clipPath
       clipPathUnits="userSpaceOnUse"
       id="clipPath90024">
      <path
         d="M -553.8975,585.8483 H 42.378504 V -9.4277027 H -553.8975 Z"
         id="path90026"
         style="stroke-width:0.999998" />
    </clipPath>
    <clipPath
       clipPathUnits="userSpaceOnUse"
       id="clipPath90030">
      <path
         d="M -557.4951,577.8502 H 38.780903 V -17.4258 H -557.4951 Z"
         id="path90032"
         style="stroke-width:0.999998" />
    </clipPath>
    <clipPath
       clipPathUnits="userSpaceOnUse"
       id="clipPath90036">
      <path
         d="M -568.2266,575.819 H 28.049401 V -19.457003 H -568.2266 Z"
         id="path90038"
         style="stroke-width:0.999998" />
    </clipPath>
    <clipPath
       clipPathUnits="userSpaceOnUse"
       id="clipPath90042">
      <path
         d="M -550.2637,577.3248 H 46.012306 V -17.951198 H -550.2637 Z"
         id="path90044"
         style="stroke-width:0.999998" />
    </clipPath>
    <clipPath
       clipPathUnits="userSpaceOnUse"
       id="clipPath90049">
      <path
         d="M -556.4014,578.0143 H 39.874606 V -17.2617 H -556.4014 Z"
         id="path90051"
         style="stroke-width:0.999998" />
    </clipPath>
    <clipPath
       clipPathUnits="userSpaceOnUse"
       id="clipPath90055">
      <path
         d="M -586.5449,579.5026 H 9.7311002 V -15.7734 H -586.5449 Z"
         id="path90057"
         style="stroke-width:0.999998" />
    </clipPath>
    <clipPath
       clipPathUnits="userSpaceOnUse"
       id="clipPath90061">
      <path
         d="M -584.1943,578.9381 H 12.081705 V -16.337903 H -584.1943 Z"
         id="path90063"
         style="stroke-width:0.999998" />
    </clipPath>
    <clipPath
       clipPathUnits="userSpaceOnUse"
       id="clipPath90067">
      <path
         d="M -538.2217,577.9479 H 58.054299 V -17.328098 H -538.2217 Z"
         id="path90069"
         style="stroke-width:0.999998" />
    </clipPath>
    <clipPath
       clipPathUnits="userSpaceOnUse"
       id="clipPath90073">
      <path
         d="m -348.3311,398.6295 h 596.276 v -595.276 h -596.276 z"
         id="path90075"
         style="stroke-width:0.999998" />
    </clipPath>
    <clipPath
       clipPathUnits="userSpaceOnUse"
       id="clipPath90079">
      <path
         d="M -540.8213,585.8483 H 55.454701 V -9.4277027 H -540.8213 Z"
         id="path90081"
         style="stroke-width:0.999998" />
    </clipPath>
    <clipPath
       clipPathUnits="userSpaceOnUse"
       id="clipPath90085">
      <path
         d="M -572.8174,586.1354 H 23.458606 V -9.1406027 H -572.8174 Z"
         id="path90087"
         style="stroke-width:0.999998" />
    </clipPath>
  </defs>
  <sodipodi:namedview
     id="namedview89460"
     pagecolor="#ffffff"
     bordercolor="#000000"
     borderopacity="0.25"
     inkscape:showpageshadow="2"
     inkscape:pageopacity="0.0"
     inkscape:pagecheckerboard="0"
     inkscape:deskcolor="#d1d1d1"
     showgrid="false"
     inkscape:zoom="0.29734106"
     inkscape:cx="-215.24105"
     inkscape:cy="396.85068"
     inkscape:window-width="1419"
     inkscape:window-height="456"
     inkscape:window-x="0"
     inkscape:window-y="25"
     inkscape:window-maximized="0"
     inkscape:current-layer="svg89458">
    <inkscape:page
       x="0"
       y="0"
       id="page89464"
       width="795.03467"
       height="793.70135" />
  </sodipodi:namedview>
  <path
     d="M 464.441 531.506 C 465.402 526.03 463.801 520.194 459.616 515.925 C 452.722 508.889 441.432 508.779 434.397 515.673 L 410.696 539.375 C 412.181 541.446 413.212 543.866 413.644 546.487 L 433.696 546.487 C 435.238 546.487 436.486 547.741 436.486 549.279 C 436.486 550.821 435.238 552.071 433.696 552.071 L 413.644 552.071 C 413.212 554.694 412.181 557.113 410.696 559.186 L 434.397 582.889 C 434.424 582.915 434.454 582.935 434.481 582.965 L 480.801 550.629 C 480.833 550.183 480.864 549.735 480.864 549.279 C 480.864 539.905 473.633 532.219 464.441 531.506 M 301.021 493.301 L 301.021 542.342 L 308.767 547.749 L 308.767 497.774 L 396.848 446.921 L 484.921 497.774 L 484.921 547.751 L 492.669 542.342 L 492.669 493.301 L 396.848 437.976 Z M 396.848 377.053 L 248.26 462.84 L 248.26 505.511 L 292.133 536.139 L 292.133 488.17 L 396.848 427.712 L 501.558 488.17 L 501.558 536.137 L 545.429 505.511 L 545.429 462.84 Z M 396.844 537.831 C 390.524 537.831 385.396 542.959 385.396 549.279 C 385.396 555.602 390.524 560.727 396.844 560.727 C 403.169 560.727 408.292 555.602 408.292 549.279 C 408.292 542.959 403.169 537.831 396.844 537.831 M 380.047 552.071 L 359.992 552.071 C 358.453 552.071 357.203 550.821 357.203 549.279 C 357.203 547.741 358.453 546.487 359.992 546.487 L 380.047 546.487 C 380.479 543.866 381.511 541.446 382.992 539.375 L 359.293 515.673 C 352.26 508.779 340.968 508.889 334.075 515.925 C 329.889 520.194 328.289 526.03 329.249 531.506 C 320.057 532.219 312.825 539.905 312.825 549.279 C 312.825 549.733 312.857 550.181 312.888 550.626 L 359.208 582.962 C 359.237 582.935 359.267 582.915 359.293 582.889 L 382.992 559.186 C 381.511 557.113 380.479 554.694 380.047 552.071 M 399.636 566.079 L 399.636 586.129 C 399.636 587.67 398.386 588.921 396.847 588.921 C 395.303 588.921 394.055 587.67 394.055 586.129 L 394.055 566.079 C 391.432 565.646 389.013 564.615 386.94 563.131 L 363.863 586.209 L 396.847 609.235 L 429.829 586.209 L 406.752 563.131 C 404.68 564.615 402.258 565.646 399.636 566.079 M 430.202 486.509 C 425.932 482.323 420.093 480.722 414.62 481.683 C 413.904 472.493 406.22 465.261 396.847 465.261 C 387.471 465.261 379.787 472.493 379.071 481.683 C 373.597 480.722 367.757 482.323 363.487 486.509 C 356.455 493.402 356.345 504.694 363.24 511.727 L 386.94 535.427 C 389.013 533.943 391.432 532.913 394.055 532.482 L 394.055 512.425 C 394.055 510.886 395.303 509.637 396.847 509.637 C 398.386 509.637 399.636 510.886 399.636 512.425 L 399.636 532.482 C 402.258 532.913 404.68 533.943 406.752 535.427 L 430.453 511.727 C 437.345 504.694 437.237 493.402 430.202 486.509 M 396.849 620.258 L 76.822 396.852 L 396.852 173.442 L 716.876 396.846 Z M 396.853 141.962 L 31.7301 396.852 L 396.853 651.74 L 761.972 396.852 Z"
     style="fill:#000000;fill-opacity:1;fill-rule:nonzero;stroke:none"
     id="path89578" />
</svg>
