<?xml version="1.0" encoding="UTF-8" standalone="no"?>
<!-- Created with Inkscape (http://www.inkscape.org/) -->

<svg
   version="1.1"
   id="svg86376"
   width="795.03467"
   height="793.70135"
   viewBox="0 0 795.03467 793.70135"
   sodipodi:docname="Itowani Futatsukikkouni Hanakaku.svg"
   inkscape:version="1.2 (dc2aeda, 2022-05-15)"
   xmlns:inkscape="http://www.inkscape.org/namespaces/inkscape"
   xmlns:sodipodi="http://sodipodi.sourceforge.net/DTD/sodipodi-0.dtd"
   xmlns="http://www.w3.org/2000/svg"
   xmlns:svg="http://www.w3.org/2000/svg">
  <defs
     id="defs86380">
    <clipPath
       clipPathUnits="userSpaceOnUse"
       id="clipPath86870">
      <path
         d="M -576.3691,585.5885 H 19.906905 V -9.6875027 H -576.3691 Z"
         id="path86872"
         style="stroke-width:0.999998" />
    </clipPath>
    <clipPath
       clipPathUnits="userSpaceOnUse"
       id="clipPath86876">
      <path
         d="M -574.5459,585.8522 H 21.730103 V -9.4238027 H -574.5459 Z"
         id="path86878"
         style="stroke-width:0.999998" />
    </clipPath>
    <clipPath
       clipPathUnits="userSpaceOnUse"
       id="clipPath86882">
      <path
         d="M -572.8174,586.1354 H 23.458606 V -9.1406027 H -572.8174 Z"
         id="path86884"
         style="stroke-width:0.999998" />
    </clipPath>
    <clipPath
       clipPathUnits="userSpaceOnUse"
       id="clipPath86888">
      <path
         d="M -542.9326,584.5729 H 53.343399 V -10.7031 H -542.9326 Z"
         id="path86890"
         style="stroke-width:0.999998" />
    </clipPath>
    <clipPath
       clipPathUnits="userSpaceOnUse"
       id="clipPath86894">
      <path
         d="M -550.2637,577.3248 H 46.012306 V -17.951198 H -550.2637 Z"
         id="path86896"
         style="stroke-width:0.999998" />
    </clipPath>
    <clipPath
       clipPathUnits="userSpaceOnUse"
       id="clipPath86900">
      <path
         d="M -545.417,584.5729 H 50.859001 V -10.7031 H -545.417 Z"
         id="path86902"
         style="stroke-width:0.999998" />
    </clipPath>
    <clipPath
       clipPathUnits="userSpaceOnUse"
       id="clipPath86906">
      <path
         d="M -557.0645,585.8483 H 39.211501 V -9.4277027 H -557.0645 Z"
         id="path86908"
         style="stroke-width:0.999998" />
    </clipPath>
    <clipPath
       clipPathUnits="userSpaceOnUse"
       id="clipPath86912">
      <path
         d="M -548.9834,585.8522 H 47.292601 V -9.4238027 H -548.9834 Z"
         id="path86914"
         style="stroke-width:0.999998" />
    </clipPath>
    <clipPath
       clipPathUnits="userSpaceOnUse"
       id="clipPath86918">
      <path
         d="M -553.8975,585.8483 H 42.378504 V -9.4277027 H -553.8975 Z"
         id="path86920"
         style="stroke-width:0.999998" />
    </clipPath>
    <clipPath
       clipPathUnits="userSpaceOnUse"
       id="clipPath86925">
      <path
         d="M -557.4951,577.8502 H 38.780903 V -17.4258 H -557.4951 Z"
         id="path86927"
         style="stroke-width:0.999998" />
    </clipPath>
    <clipPath
       clipPathUnits="userSpaceOnUse"
       id="clipPath86931">
      <path
         d="M -556.4014,578.0143 H 39.874606 V -17.2617 H -556.4014 Z"
         id="path86933"
         style="stroke-width:0.999998" />
    </clipPath>
    <clipPath
       clipPathUnits="userSpaceOnUse"
       id="clipPath86937">
      <path
         d="M -586.5449,579.5026 H 9.7311002 V -15.7734 H -586.5449 Z"
         id="path86939"
         style="stroke-width:0.999998" />
    </clipPath>
    <clipPath
       clipPathUnits="userSpaceOnUse"
       id="clipPath86943">
      <path
         d="M -584.1943,578.9381 H 12.081705 V -16.337903 H -584.1943 Z"
         id="path86945"
         style="stroke-width:0.999998" />
    </clipPath>
    <clipPath
       clipPathUnits="userSpaceOnUse"
       id="clipPath86949">
      <path
         d="M -538.2217,577.9479 H 58.054299 V -17.328098 H -538.2217 Z"
         id="path86951"
         style="stroke-width:0.999998" />
    </clipPath>
    <clipPath
       clipPathUnits="userSpaceOnUse"
       id="clipPath86955">
      <path
         d="m -456.3652,358.2155 h 596.276 v -595.276 h -596.276 z"
         id="path86957"
         style="stroke-width:0.999998" />
    </clipPath>
    <clipPath
       clipPathUnits="userSpaceOnUse"
       id="clipPath86961">
      <path
         d="M -531.1924,581.5885 H 65.083599 V -13.6875 H -531.1924 Z"
         id="path86963"
         style="stroke-width:0.999998" />
    </clipPath>
    <clipPath
       clipPathUnits="userSpaceOnUse"
       id="clipPath86967">
      <path
         d="M -540.8213,585.8483 H 55.454701 V -9.4277027 H -540.8213 Z"
         id="path86969"
         style="stroke-width:0.999998" />
    </clipPath>
    <clipPath
       clipPathUnits="userSpaceOnUse"
       id="clipPath86973">
      <path
         d="M -528.0898,575.3815 H 68.186199 V -19.8945 H -528.0898 Z"
         id="path86975"
         style="stroke-width:0.999998" />
    </clipPath>
    <clipPath
       clipPathUnits="userSpaceOnUse"
       id="clipPath86979">
      <path
         d="M -568.2266,575.819 H 28.049401 V -19.457003 H -568.2266 Z"
         id="path86981"
         style="stroke-width:0.999998" />
    </clipPath>
    <clipPath
       clipPathUnits="userSpaceOnUse"
       id="clipPath86985">
      <path
         d="M -536.6982,584.5729 H 59.577804 V -10.7031 H -536.6982 Z"
         id="path86987"
         style="stroke-width:0.999998" />
    </clipPath>
    <clipPath
       clipPathUnits="userSpaceOnUse"
       id="clipPath86991">
      <path
         d="M -567.7754,585.8522 H 28.500601 V -9.4238027 H -567.7754 Z"
         id="path86993"
         style="stroke-width:0.999998" />
    </clipPath>
    <clipPath
       clipPathUnits="userSpaceOnUse"
       id="clipPath86997">
      <path
         d="M -564.5732,585.8483 H 31.702801 V -9.4277027 H -564.5732 Z"
         id="path86999"
         style="stroke-width:0.999998" />
    </clipPath>
    <clipPath
       clipPathUnits="userSpaceOnUse"
       id="clipPath87003">
      <path
         d="M -561.4131,585.8522 H 34.862903 V -9.4238027 H -561.4131 Z"
         id="path87005"
         style="stroke-width:0.999998" />
    </clipPath>
  </defs>
  <sodipodi:namedview
     id="namedview86378"
     pagecolor="#ffffff"
     bordercolor="#000000"
     borderopacity="0.25"
     inkscape:showpageshadow="2"
     inkscape:pageopacity="0.0"
     inkscape:pagecheckerboard="0"
     inkscape:deskcolor="#d1d1d1"
     showgrid="false"
     inkscape:zoom="0.29734106"
     inkscape:cx="-215.24105"
     inkscape:cy="396.85068"
     inkscape:window-width="1419"
     inkscape:window-height="456"
     inkscape:window-x="0"
     inkscape:window-y="25"
     inkscape:window-maximized="0"
     inkscape:current-layer="svg86376">
    <inkscape:page
       x="0"
       y="0"
       id="page86382"
       width="795.03467"
       height="793.70135" />
  </sodipodi:namedview>
  <path
     d="M 608.487 477.621 L 515.217 477.621 L 468.581 396.845 L 515.217 316.075 L 608.487 316.075 L 655.12 396.845 Z M 641.03 259.706 L 482.671 259.706 L 403.492 396.845 L 482.671 533.99 L 641.03 533.99 L 720.208 396.845 Z M 185.204 477.624 L 138.57 396.848 L 185.204 316.077 L 278.473 316.077 L 325.108 396.848 L 278.473 477.624 Z M 390.196 396.848 L 311.017 259.708 L 152.659 259.708 L 73.479 396.848 L 152.659 533.993 L 311.017 533.993 Z M 370.556 610.323 L 333.126 610.323 C 330.573 610.323 328.514 608.254 328.514 605.706 C 328.521 603.162 330.573 601.094 333.126 601.094 L 370.556 601.094 C 371.033 598.373 371.917 595.798 373.15 593.426 L 331.638 561.735 C 326.512 558.113 320.264 555.995 313.508 555.995 C 297.126 555.987 283.681 568.501 282.168 584.481 L 282.026 585.978 L 270.267 585.978 C 259.363 585.995 250.551 594.809 250.535 605.706 C 250.551 616.597 259.363 625.421 270.267 625.435 L 282.026 625.435 L 282.168 626.933 C 283.681 642.91 297.126 655.426 313.508 655.421 C 320.264 655.421 326.512 653.293 331.597 649.717 L 373.15 617.987 C 371.918 615.621 371.033 613.042 370.556 610.323 M 523.429 585.975 L 511.67 585.975 L 511.526 584.475 C 510.013 568.495 496.569 555.985 480.187 555.99 C 473.429 555.99 467.181 558.115 462.101 561.694 L 420.543 593.421 C 421.775 595.793 422.663 598.369 423.134 601.09 L 460.566 601.09 C 463.123 601.09 465.177 603.157 465.177 605.706 C 465.173 608.246 463.123 610.315 460.566 610.315 L 423.134 610.315 C 422.663 613.033 421.778 615.61 420.543 617.985 L 462.055 649.675 C 467.181 653.295 473.429 655.418 480.187 655.418 C 496.569 655.421 510.013 642.907 511.526 626.927 L 511.67 625.433 L 523.429 625.433 C 534.33 625.413 543.144 616.599 543.158 605.706 C 543.144 594.811 534.33 585.993 523.429 585.975 M 447.417 650.113 L 414.914 625.339 C 411.241 628.717 406.593 631.094 401.461 631.99 L 401.461 658.355 C 401.461 660.907 399.397 662.962 396.849 662.967 C 394.298 662.967 392.233 660.907 392.233 658.355 L 392.233 631.99 C 387.097 631.093 382.457 628.717 378.78 625.345 L 346.297 650.094 C 343.917 651.978 341.854 654.358 340.245 657.167 C 338.045 661.014 337.009 665.194 337.009 669.321 C 337.009 677.831 341.442 686.104 349.354 690.628 C 353.198 692.831 357.381 693.871 361.506 693.871 C 363.849 693.871 366.157 693.539 368.37 692.891 L 370.445 692.292 L 370.49 694.44 C 370.808 708.722 382.488 720.211 396.849 720.211 C 411.206 720.211 422.883 708.722 423.206 694.44 L 423.25 692.292 L 425.321 692.891 C 427.545 693.539 429.861 693.878 432.193 693.878 C 436.323 693.871 440.505 692.836 444.342 690.628 C 452.261 686.099 456.69 677.831 456.695 669.321 C 456.695 665.194 455.657 661.017 453.454 657.167 C 451.842 654.35 449.779 651.978 447.417 650.113 M 453.446 554.241 C 455.654 550.397 456.685 546.214 456.685 542.088 C 456.685 533.58 452.251 525.301 444.338 520.785 C 440.495 518.58 436.315 517.54 432.186 517.54 C 429.849 517.54 427.537 517.872 425.323 518.517 L 423.25 519.118 L 423.206 516.97 C 422.886 502.686 411.206 491.197 396.846 491.197 C 382.488 491.197 370.813 502.686 370.49 516.97 L 370.444 519.118 L 368.373 518.517 C 366.149 517.872 363.834 517.536 361.504 517.536 C 357.373 517.54 353.189 518.574 349.349 520.785 C 341.429 525.312 337.006 533.58 336.998 542.088 C 336.998 546.214 338.04 550.394 340.24 554.241 C 341.854 557.058 343.914 559.433 346.282 561.295 L 378.78 586.069 C 382.452 582.691 387.1 580.315 392.233 579.421 L 392.233 553.058 C 392.233 550.506 394.3 548.446 396.846 548.443 C 399.397 548.443 401.462 550.506 401.462 553.058 L 401.462 579.421 C 406.597 580.315 411.238 582.691 414.914 586.066 L 447.397 561.311 C 449.773 559.433 451.843 557.05 453.446 554.241 M 396.849 586.593 C 386.289 586.593 377.734 595.147 377.734 605.706 C 377.734 616.266 386.289 624.823 396.849 624.823 C 407.408 624.823 415.963 616.266 415.963 605.706 C 415.963 595.147 407.408 586.593 396.849 586.593 M 423.139 183.384 L 460.57 183.384 C 463.126 183.384 465.181 185.454 465.181 188.002 C 465.177 190.54 463.126 192.612 460.57 192.612 L 423.139 192.612 C 422.669 195.33 421.782 197.908 420.547 200.28 L 462.061 231.974 C 467.185 235.594 473.434 237.714 480.193 237.714 C 496.571 237.719 510.017 225.204 511.53 209.224 L 511.677 207.73 L 523.433 207.73 C 534.334 207.71 543.148 198.896 543.164 188.002 C 543.148 177.108 534.334 168.288 523.433 168.27 L 511.677 168.27 L 511.53 166.771 C 510.017 150.794 496.571 138.281 480.193 138.286 C 473.434 138.286 467.185 140.414 462.107 143.991 L 420.547 175.718 C 421.781 178.088 422.669 180.663 423.139 183.384 M 270.272 207.731 L 282.03 207.731 L 282.173 209.23 C 283.685 225.207 297.132 237.722 313.513 237.716 C 320.268 237.716 326.516 235.591 331.601 232.012 L 373.156 200.286 C 371.924 197.916 371.037 195.339 370.561 192.619 L 333.13 192.619 C 330.578 192.619 328.518 190.55 328.518 188.002 C 328.526 185.459 330.578 183.391 333.13 183.391 L 370.561 183.391 C 371.037 180.671 371.921 178.094 373.156 175.722 L 331.644 144.031 C 326.516 140.411 320.268 138.293 313.513 138.293 C 297.132 138.283 283.685 150.799 282.173 166.778 L 282.03 168.275 L 270.272 168.275 C 259.368 168.294 250.556 177.106 250.54 188.002 C 250.556 198.895 259.368 207.715 270.272 207.731 M 423.21 276.738 L 423.257 274.591 L 425.325 275.19 C 427.549 275.836 429.866 276.174 432.197 276.174 C 436.329 276.168 440.509 275.134 444.347 272.926 C 452.267 268.396 456.695 260.127 456.701 251.616 C 456.701 247.49 455.663 243.315 453.458 239.466 C 451.846 236.648 449.783 234.272 447.422 232.408 L 414.921 207.638 C 411.246 211.015 406.598 213.391 401.466 214.286 L 401.466 240.65 C 401.466 243.203 399.402 245.26 396.853 245.264 C 394.302 245.264 392.237 243.203 392.237 240.65 L 392.237 214.286 C 387.102 213.388 382.461 211.015 378.785 207.64 L 346.302 232.392 C 343.922 234.272 341.86 236.654 340.25 239.466 C 338.049 243.311 337.014 247.49 337.014 251.616 C 337.014 260.127 341.446 268.402 349.36 272.926 C 353.204 275.127 357.386 276.168 361.512 276.168 C 363.853 276.168 366.162 275.836 368.376 275.19 L 370.449 274.591 L 370.496 276.738 C 370.813 291.019 382.493 302.508 396.853 302.508 C 411.21 302.508 422.887 291.019 423.21 276.738 M 346.288 143.593 L 378.785 168.366 C 382.457 164.988 387.105 162.612 392.237 161.715 L 392.237 135.354 C 392.237 132.805 394.305 130.745 396.85 130.739 C 399.402 130.739 401.466 132.805 401.466 135.354 L 401.466 161.715 C 406.602 162.615 411.242 164.988 414.921 168.364 L 447.402 143.609 C 449.778 141.73 451.847 139.349 453.453 136.538 C 455.658 132.695 456.69 128.513 456.69 124.387 C 456.69 115.874 452.257 107.599 444.343 103.081 C 440.501 100.877 436.319 99.8366 432.193 99.8366 C 429.854 99.8366 427.542 100.169 425.327 100.815 L 423.257 101.414 L 423.21 99.2646 C 422.89 84.9833 411.21 73.4953 396.85 73.4953 C 382.493 73.4953 370.818 84.9833 370.496 99.2646 L 370.449 101.414 L 368.378 100.815 C 366.154 100.169 363.84 99.8299 361.509 99.8299 C 357.378 99.8366 353.193 100.871 349.354 103.081 C 341.434 107.606 337.01 115.874 337.004 124.387 C 337.004 128.513 338.045 132.69 340.245 136.538 C 341.86 139.357 343.92 141.73 346.288 143.593 M 396.853 207.12 C 407.413 207.12 415.97 198.562 415.97 188.004 C 415.97 177.444 407.413 168.887 396.853 168.887 C 386.293 168.887 377.738 177.444 377.738 188.004 C 377.738 198.562 386.293 207.12 396.853 207.12 M 396.85 733.519 C 210.904 733.511 60.187 582.793 60.171 396.848 C 60.187 210.908 210.904 60.1954 396.85 60.186 C 582.786 60.1954 733.511 210.908 733.521 396.848 C 733.511 582.793 582.786 733.511 396.85 733.519 M 396.85 31.7301 C 195.191 31.7394 31.7324 195.194 31.7151 396.848 C 31.7324 598.506 195.191 761.964 396.85 761.975 C 598.502 761.964 761.965 598.506 761.975 396.848 C 761.965 195.194 598.502 31.7394 396.85 31.7301"
     style="fill:#000000;fill-opacity:1;fill-rule:nonzero;stroke:none"
     id="path86496" />
</svg>
