<?xml version="1.0" encoding="UTF-8" standalone="no"?>
<!-- Created with Inkscape (http://www.inkscape.org/) -->

<svg
   version="1.1"
   id="svg122176"
   width="795.03467"
   height="793.70135"
   viewBox="0 0 795.03467 793.70135"
   sodipodi:docname="Kage Kikkou Hanakaku.svg"
   inkscape:version="1.2 (dc2aeda, 2022-05-15)"
   xmlns:inkscape="http://www.inkscape.org/namespaces/inkscape"
   xmlns:sodipodi="http://sodipodi.sourceforge.net/DTD/sodipodi-0.dtd"
   xmlns="http://www.w3.org/2000/svg"
   xmlns:svg="http://www.w3.org/2000/svg">
  <defs
     id="defs122180">
    <clipPath
       clipPathUnits="userSpaceOnUse"
       id="clipPath122711">
      <path
         d="M -572.8174,586.1354 H 23.458606 V -9.1406027 H -572.8174 Z"
         id="path122713"
         style="stroke-width:0.999998" />
    </clipPath>
    <clipPath
       clipPathUnits="userSpaceOnUse"
       id="clipPath122717">
      <path
         d="M -536.6982,584.5729 H 59.577804 V -10.7031 H -536.6982 Z"
         id="path122719"
         style="stroke-width:0.999998" />
    </clipPath>
    <clipPath
       clipPathUnits="userSpaceOnUse"
       id="clipPath122723">
      <path
         d="M -561.4131,585.8522 H 34.862903 V -9.4238027 H -561.4131 Z"
         id="path122725"
         style="stroke-width:0.999998" />
    </clipPath>
    <clipPath
       clipPathUnits="userSpaceOnUse"
       id="clipPath122729">
      <path
         d="M -564.5732,585.8483 H 31.702801 V -9.4277027 H -564.5732 Z"
         id="path122731"
         style="stroke-width:0.999998" />
    </clipPath>
    <clipPath
       clipPathUnits="userSpaceOnUse"
       id="clipPath122735">
      <path
         d="M -557.4951,577.8502 H 38.780903 V -17.4258 H -557.4951 Z"
         id="path122737"
         style="stroke-width:0.999998" />
    </clipPath>
    <clipPath
       clipPathUnits="userSpaceOnUse"
       id="clipPath122742">
      <path
         d="M -567.7754,585.8522 H 28.500601 V -9.4238027 H -567.7754 Z"
         id="path122744"
         style="stroke-width:0.999998" />
    </clipPath>
    <clipPath
       clipPathUnits="userSpaceOnUse"
       id="clipPath122748">
      <path
         d="M -548.9834,585.8522 H 47.292601 V -9.4238027 H -548.9834 Z"
         id="path122750"
         style="stroke-width:0.999998" />
    </clipPath>
    <clipPath
       clipPathUnits="userSpaceOnUse"
       id="clipPath122754">
      <path
         d="M -545.417,584.5729 H 50.859001 V -10.7031 H -545.417 Z"
         id="path122756"
         style="stroke-width:0.999998" />
    </clipPath>
    <clipPath
       clipPathUnits="userSpaceOnUse"
       id="clipPath122760">
      <path
         d="M -528.0898,575.3815 H 68.186199 V -19.8945 H -528.0898 Z"
         id="path122762"
         style="stroke-width:0.999998" />
    </clipPath>
    <clipPath
       clipPathUnits="userSpaceOnUse"
       id="clipPath122766">
      <path
         d="M -576.3691,585.5885 H 19.906905 V -9.6875027 H -576.3691 Z"
         id="path122768"
         style="stroke-width:0.999998" />
    </clipPath>
    <clipPath
       clipPathUnits="userSpaceOnUse"
       id="clipPath122772">
      <path
         d="M -574.5459,585.8522 H 21.730103 V -9.4238027 H -574.5459 Z"
         id="path122774"
         style="stroke-width:0.999998" />
    </clipPath>
    <clipPath
       clipPathUnits="userSpaceOnUse"
       id="clipPath122778">
      <path
         d="M -542.9326,584.5729 H 53.343399 V -10.7031 H -542.9326 Z"
         id="path122780"
         style="stroke-width:0.999998" />
    </clipPath>
    <clipPath
       clipPathUnits="userSpaceOnUse"
       id="clipPath122784">
      <path
         d="M -553.8975,585.8483 H 42.378504 V -9.4277027 H -553.8975 Z"
         id="path122786"
         style="stroke-width:0.999998" />
    </clipPath>
    <clipPath
       clipPathUnits="userSpaceOnUse"
       id="clipPath122790">
      <path
         d="M -540.8213,585.8483 H 55.454701 V -9.4277027 H -540.8213 Z"
         id="path122792"
         style="stroke-width:0.999998" />
    </clipPath>
    <clipPath
       clipPathUnits="userSpaceOnUse"
       id="clipPath122796">
      <path
         d="M -557.0645,585.8483 H 39.211501 V -9.4277027 H -557.0645 Z"
         id="path122798"
         style="stroke-width:0.999998" />
    </clipPath>
    <clipPath
       clipPathUnits="userSpaceOnUse"
       id="clipPath122802">
      <path
         d="M -531.1924,581.5885 H 65.083599 V -13.6875 H -531.1924 Z"
         id="path122804"
         style="stroke-width:0.999998" />
    </clipPath>
    <clipPath
       clipPathUnits="userSpaceOnUse"
       id="clipPath122808">
      <path
         d="M -568.2266,575.819 H 28.049401 V -19.457003 H -568.2266 Z"
         id="path122810"
         style="stroke-width:0.999998" />
    </clipPath>
    <clipPath
       clipPathUnits="userSpaceOnUse"
       id="clipPath122814">
      <path
         d="M -550.2637,577.3248 H 46.012306 V -17.951198 H -550.2637 Z"
         id="path122816"
         style="stroke-width:0.999998" />
    </clipPath>
    <clipPath
       clipPathUnits="userSpaceOnUse"
       id="clipPath122821">
      <path
         d="M -556.4014,578.0143 H 39.874606 V -17.2617 H -556.4014 Z"
         id="path122823"
         style="stroke-width:0.999998" />
    </clipPath>
    <clipPath
       clipPathUnits="userSpaceOnUse"
       id="clipPath122827">
      <path
         d="M -586.5449,579.5026 H 9.7311002 V -15.7734 H -586.5449 Z"
         id="path122829"
         style="stroke-width:0.999998" />
    </clipPath>
    <clipPath
       clipPathUnits="userSpaceOnUse"
       id="clipPath122833">
      <path
         d="M -584.1943,578.9381 H 12.081705 V -16.337903 H -584.1943 Z"
         id="path122835"
         style="stroke-width:0.999998" />
    </clipPath>
    <clipPath
       clipPathUnits="userSpaceOnUse"
       id="clipPath122839">
      <path
         d="M -538.2217,577.9479 H 58.054299 V -17.328098 H -538.2217 Z"
         id="path122841"
         style="stroke-width:0.999998" />
    </clipPath>
    <clipPath
       clipPathUnits="userSpaceOnUse"
       id="clipPath122845">
      <path
         d="M -523.0547,427.7877 H 73.221302 v -595.276 H -523.0547 Z"
         id="path122847"
         style="stroke-width:0.999998" />
    </clipPath>
    <clipPath
       clipPathUnits="userSpaceOnUse"
       id="clipPath122851">
      <path
         d="m -442.2363,381.1237 h 596.276 v -595.276 h -596.276 z"
         id="path122853"
         style="stroke-width:0.999998" />
    </clipPath>
    <clipPath
       clipPathUnits="userSpaceOnUse"
       id="clipPath122857">
      <path
         d="m -420.9141,368.819 h 596.276 v -595.276 h -596.276 z"
         id="path122859"
         style="stroke-width:0.999998" />
    </clipPath>
    <clipPath
       clipPathUnits="userSpaceOnUse"
       id="clipPath122863">
      <path
         d="m -350.0508,292.1539 h 596.276 v -595.276 h -596.276 z"
         id="path122865"
         style="stroke-width:0.999998" />
    </clipPath>
  </defs>
  <sodipodi:namedview
     id="namedview122178"
     pagecolor="#ffffff"
     bordercolor="#000000"
     borderopacity="0.25"
     inkscape:showpageshadow="2"
     inkscape:pageopacity="0.0"
     inkscape:pagecheckerboard="0"
     inkscape:deskcolor="#d1d1d1"
     showgrid="false"
     inkscape:zoom="0.29734106"
     inkscape:cx="-215.24105"
     inkscape:cy="396.85068"
     inkscape:window-width="1419"
     inkscape:window-height="456"
     inkscape:window-x="0"
     inkscape:window-y="25"
     inkscape:window-maximized="0"
     inkscape:current-layer="svg122176">
    <inkscape:page
       x="0"
       y="0"
       id="page122182"
       width="795.03467"
       height="793.70135" />
  </sodipodi:namedview>
  <path
     d="M 697.406 570.384 L 396.848 743.912 L 96.2822 570.384 L 96.2822 223.32 L 396.848 49.7906 L 697.406 223.321 Z M 396.851 31.7307 L 80.6422 214.293 L 80.6422 579.413 L 396.851 761.973 L 713.049 579.413 L 713.049 214.293 Z"
     style="fill:#000000;fill-opacity:1;fill-rule:nonzero;stroke:none"
     id="path122296" />
  <path
     d="M 589.648 508.165 L 396.846 619.479 L 204.045 508.165 L 204.045 285.536 L 396.848 174.222 L 589.648 285.536 Z M 396.848 154.925 L 187.334 275.891 L 187.334 517.814 L 396.848 638.777 L 606.356 517.814 L 606.356 275.891 Z"
     style="fill:#000000;fill-opacity:1;fill-rule:nonzero;stroke:none"
     id="path122300" />
  <path
     d="M 561.219 491.759 L 396.849 586.659 L 232.469 491.759 L 232.469 301.949 L 396.849 207.04 L 561.219 301.947 Z M 396.853 187.542 L 215.584 292.198 L 215.584 501.508 L 396.853 606.161 L 578.11 501.508 L 578.11 292.198 Z"
     style="fill:#000000;fill-opacity:1;fill-rule:nonzero;stroke:none"
     id="path122304" />
  <path
     d="M 466.734 389.539 C 462.69 389.539 440.262 392.815 440.262 396.859 C 440.262 400.9 462.69 404.178 466.734 404.178 C 470.778 404.178 474.054 400.9 474.054 396.859 C 474.054 392.815 470.778 389.539 466.734 389.539 M 396.838 440.27 C 392.794 440.27 389.518 462.7 389.518 466.74 C 389.518 470.785 392.794 474.065 396.838 474.065 C 400.879 474.065 404.158 470.785 404.158 466.74 C 404.158 462.7 400.879 440.27 396.838 440.27 M 326.956 389.524 C 322.913 389.524 319.636 392.8 319.636 396.844 C 319.636 400.886 322.913 404.163 326.956 404.163 C 330.998 404.163 353.428 400.886 353.428 396.844 C 353.428 392.8 330.998 389.524 326.956 389.524 M 396.854 353.434 C 400.895 353.434 404.171 331.006 404.171 326.96 C 404.171 322.919 400.895 319.641 396.854 319.641 C 392.812 319.641 389.534 322.919 389.534 326.96 C 389.534 331.006 392.812 353.434 396.854 353.434 M 396.846 369.087 C 381.513 369.087 369.081 381.518 369.081 396.854 C 369.081 412.19 381.513 424.618 396.846 424.618 C 412.179 424.618 424.606 412.19 424.606 396.854 C 424.606 381.518 412.179 369.087 396.846 369.087 M 508.939 425.203 C 510.471 433.928 507.919 443.238 501.245 450.047 C 490.255 461.268 472.25 461.44 461.037 450.447 L 432.377 421.787 C 429.482 425.906 425.89 429.495 421.773 432.391 L 450.419 461.041 C 461.417 472.257 461.242 490.257 450.026 501.249 C 443.215 507.925 433.909 510.479 425.182 508.948 C 424.039 523.599 411.783 535.135 396.838 535.135 C 381.885 535.135 369.638 523.599 368.493 508.948 C 359.768 510.479 350.46 507.925 343.65 501.249 C 332.432 490.257 332.258 472.257 343.25 461.041 L 371.909 432.383 C 367.789 429.486 364.201 425.896 361.308 421.778 L 332.656 450.424 C 321.442 461.421 303.436 461.247 292.446 450.031 C 285.773 443.222 283.218 433.911 284.753 425.186 C 270.098 424.043 258.564 411.79 258.564 396.844 C 258.564 381.89 270.098 369.643 284.753 368.498 C 283.218 359.772 285.773 350.463 292.446 343.656 C 303.436 332.438 321.442 332.264 332.656 343.254 L 361.317 371.914 C 364.213 367.796 367.805 364.208 371.922 361.314 L 343.27 332.662 C 332.276 321.449 332.45 303.443 343.666 292.451 C 350.477 285.779 359.785 283.226 368.51 284.755 C 369.653 270.103 381.908 258.567 396.854 258.567 C 411.807 258.567 424.054 270.103 425.198 284.755 C 433.922 283.226 443.234 285.779 450.039 292.451 C 461.258 303.443 461.431 321.449 450.442 332.662 L 421.783 361.32 C 425.898 364.218 429.486 367.807 432.379 371.928 L 461.037 343.276 C 472.25 332.28 490.255 332.455 501.245 343.672 C 507.919 350.482 510.471 359.788 508.939 368.515 C 523.594 369.658 535.127 381.911 535.127 396.859 C 535.127 411.81 523.594 424.058 508.939 425.203 M 524.343 356.934 C 523.054 348.188 519.059 339.703 512.419 332.932 C 503.971 324.3 492.653 319.913 481.466 319.929 C 478.614 319.925 475.75 320.214 472.929 320.782 C 473.497 317.954 473.789 315.083 473.783 312.225 C 473.799 301.037 469.411 289.725 460.778 281.277 C 454.01 274.633 445.523 270.641 436.778 269.35 C 430.195 253.795 414.807 242.914 396.854 242.898 C 378.904 242.917 363.513 253.794 356.929 269.349 C 348.182 270.638 339.69 274.63 332.922 281.281 C 324.297 289.721 319.904 301.037 319.92 312.225 C 319.917 315.078 320.206 317.943 320.776 320.766 C 317.946 320.197 315.08 319.906 312.22 319.909 C 301.034 319.894 289.713 324.279 281.262 332.922 C 274.626 339.682 270.633 348.17 269.341 356.916 C 253.785 363.5 242.908 378.888 242.891 396.843 C 242.909 414.79 253.785 430.178 269.34 436.764 C 270.629 445.508 274.625 453.998 281.273 460.771 C 289.697 469.383 300.984 473.771 312.146 473.771 L 312.22 473.771 C 315.074 473.773 317.936 473.487 320.761 472.916 C 320.193 475.747 319.898 478.617 319.904 481.479 C 319.885 492.66 324.276 503.975 332.912 512.428 C 339.674 519.065 348.164 523.061 356.908 524.351 C 363.492 539.907 378.88 550.787 396.836 550.807 C 414.786 550.787 430.177 539.909 436.761 524.351 C 445.502 523.061 453.983 519.065 460.761 512.432 C 469.395 503.975 473.778 492.66 473.762 481.479 C 473.765 478.62 473.477 475.757 472.909 472.935 C 475.737 473.504 478.603 473.793 481.466 473.791 L 481.531 473.791 C 492.695 473.791 503.985 469.401 512.417 460.789 C 519.059 454.016 523.054 445.531 524.343 436.787 C 539.9 430.203 550.778 414.815 550.802 396.862 C 550.778 378.908 539.9 363.518 524.343 356.934"
     style="fill:#000000;fill-opacity:1;fill-rule:nonzero;stroke:none"
     id="path122308" />
</svg>
