<?xml version="1.0" encoding="UTF-8" standalone="no"?>
<!-- Created with Inkscape (http://www.inkscape.org/) -->

<svg
   version="1.1"
   id="svg99594"
   width="795.03467"
   height="793.70135"
   viewBox="0 0 795.03467 793.70135"
   sodipodi:docname="Kawari Hanakikkou.svg"
   inkscape:version="1.2 (dc2aeda, 2022-05-15)"
   xmlns:inkscape="http://www.inkscape.org/namespaces/inkscape"
   xmlns:sodipodi="http://sodipodi.sourceforge.net/DTD/sodipodi-0.dtd"
   xmlns="http://www.w3.org/2000/svg"
   xmlns:svg="http://www.w3.org/2000/svg">
  <defs
     id="defs99598">
    <clipPath
       clipPathUnits="userSpaceOnUse"
       id="clipPath100144">
      <path
         d="M -572.8174,586.1354 H 23.458606 V -9.1406027 H -572.8174 Z"
         id="path100146"
         style="stroke-width:0.999998" />
    </clipPath>
    <clipPath
       clipPathUnits="userSpaceOnUse"
       id="clipPath100150">
      <path
         d="M -574.5459,585.8522 H 21.730103 V -9.4238027 H -574.5459 Z"
         id="path100152"
         style="stroke-width:0.999998" />
    </clipPath>
    <clipPath
       clipPathUnits="userSpaceOnUse"
       id="clipPath100156">
      <path
         d="M -576.3691,585.5885 H 19.906905 V -9.6875027 H -576.3691 Z"
         id="path100158"
         style="stroke-width:0.999998" />
    </clipPath>
    <clipPath
       clipPathUnits="userSpaceOnUse"
       id="clipPath100162">
      <path
         d="M -557.4951,577.8502 H 38.780903 V -17.4258 H -557.4951 Z"
         id="path100164"
         style="stroke-width:0.999998" />
    </clipPath>
    <clipPath
       clipPathUnits="userSpaceOnUse"
       id="clipPath100168">
      <path
         d="M -568.2266,575.819 H 28.049401 V -19.457003 H -568.2266 Z"
         id="path100170"
         style="stroke-width:0.999998" />
    </clipPath>
    <clipPath
       clipPathUnits="userSpaceOnUse"
       id="clipPath100174">
      <path
         d="M -550.2637,577.3248 H 46.012306 V -17.951198 H -550.2637 Z"
         id="path100176"
         style="stroke-width:0.999998" />
    </clipPath>
    <clipPath
       clipPathUnits="userSpaceOnUse"
       id="clipPath100181">
      <path
         d="M -556.4014,578.0143 H 39.874606 V -17.2617 H -556.4014 Z"
         id="path100183"
         style="stroke-width:0.999998" />
    </clipPath>
    <clipPath
       clipPathUnits="userSpaceOnUse"
       id="clipPath100187">
      <path
         d="M -586.5449,579.5026 H 9.7311002 V -15.7734 H -586.5449 Z"
         id="path100189"
         style="stroke-width:0.999998" />
    </clipPath>
    <clipPath
       clipPathUnits="userSpaceOnUse"
       id="clipPath100193">
      <path
         d="M -584.1943,578.9381 H 12.081705 V -16.337903 H -584.1943 Z"
         id="path100195"
         style="stroke-width:0.999998" />
    </clipPath>
    <clipPath
       clipPathUnits="userSpaceOnUse"
       id="clipPath100199">
      <path
         d="M -538.2217,577.9479 H 58.054299 V -17.328098 H -538.2217 Z"
         id="path100201"
         style="stroke-width:0.999998" />
    </clipPath>
    <clipPath
       clipPathUnits="userSpaceOnUse"
       id="clipPath100205">
      <path
         d="m -417.3652,472.9615 h 596.276 v -595.276 h -596.276 z"
         id="path100207"
         style="stroke-width:0.999998" />
    </clipPath>
    <clipPath
       clipPathUnits="userSpaceOnUse"
       id="clipPath100211">
      <path
         d="m -314.8496,332.317 h 596.276 v -595.276 h -596.276 z"
         id="path100213"
         style="stroke-width:0.999998" />
    </clipPath>
    <clipPath
       clipPathUnits="userSpaceOnUse"
       id="clipPath100217">
      <path
         d="m -297.6406,234.3292 h 596.276 v -595.276 h -596.276 z"
         id="path100219"
         style="stroke-width:0.999998" />
    </clipPath>
    <clipPath
       clipPathUnits="userSpaceOnUse"
       id="clipPath100223">
      <path
         d="m -212.7783,381.3151 h 596.276 v -595.276 h -596.276 z"
         id="path100225"
         style="stroke-width:0.999998" />
    </clipPath>
    <clipPath
       clipPathUnits="userSpaceOnUse"
       id="clipPath100229">
      <path
         d="m -382.502,381.3151 h 596.27601 v -595.276 H -382.502 Z"
         id="path100231"
         style="stroke-width:0.999998" />
    </clipPath>
    <clipPath
       clipPathUnits="userSpaceOnUse"
       id="clipPath100235">
      <path
         d="M -542.9326,584.5729 H 53.343399 V -10.7031 H -542.9326 Z"
         id="path100237"
         style="stroke-width:0.999998" />
    </clipPath>
    <clipPath
       clipPathUnits="userSpaceOnUse"
       id="clipPath100241">
      <path
         d="M -564.5732,585.8483 H 31.702801 V -9.4277027 H -564.5732 Z"
         id="path100243"
         style="stroke-width:0.999998" />
    </clipPath>
    <clipPath
       clipPathUnits="userSpaceOnUse"
       id="clipPath100247">
      <path
         d="M -567.7754,585.8522 H 28.500601 V -9.4238027 H -567.7754 Z"
         id="path100249"
         style="stroke-width:0.999998" />
    </clipPath>
    <clipPath
       clipPathUnits="userSpaceOnUse"
       id="clipPath100253">
      <path
         d="M -557.0645,585.8483 H 39.211501 V -9.4277027 H -557.0645 Z"
         id="path100255"
         style="stroke-width:0.999998" />
    </clipPath>
    <clipPath
       clipPathUnits="userSpaceOnUse"
       id="clipPath100259">
      <path
         d="M -561.4131,585.8522 H 34.862903 V -9.4238027 H -561.4131 Z"
         id="path100261"
         style="stroke-width:0.999998" />
    </clipPath>
    <clipPath
       clipPathUnits="userSpaceOnUse"
       id="clipPath100265">
      <path
         d="M -553.8975,585.8483 H 42.378504 V -9.4277027 H -553.8975 Z"
         id="path100267"
         style="stroke-width:0.999998" />
    </clipPath>
    <clipPath
       clipPathUnits="userSpaceOnUse"
       id="clipPath100271">
      <path
         d="M -536.6982,584.5729 H 59.577804 V -10.7031 H -536.6982 Z"
         id="path100273"
         style="stroke-width:0.999998" />
    </clipPath>
    <clipPath
       clipPathUnits="userSpaceOnUse"
       id="clipPath100277">
      <path
         d="M -540.8213,585.8483 H 55.454701 V -9.4277027 H -540.8213 Z"
         id="path100279"
         style="stroke-width:0.999998" />
    </clipPath>
    <clipPath
       clipPathUnits="userSpaceOnUse"
       id="clipPath100283">
      <path
         d="M -548.9834,585.8522 H 47.292601 V -9.4238027 H -548.9834 Z"
         id="path100285"
         style="stroke-width:0.999998" />
    </clipPath>
    <clipPath
       clipPathUnits="userSpaceOnUse"
       id="clipPath100289">
      <path
         d="M -531.1924,581.5885 H 65.083599 V -13.6875 H -531.1924 Z"
         id="path100291"
         style="stroke-width:0.999998" />
    </clipPath>
    <clipPath
       clipPathUnits="userSpaceOnUse"
       id="clipPath100295">
      <path
         d="M -528.0898,575.3815 H 68.186199 V -19.8945 H -528.0898 Z"
         id="path100297"
         style="stroke-width:0.999998" />
    </clipPath>
    <clipPath
       clipPathUnits="userSpaceOnUse"
       id="clipPath100301">
      <path
         d="M -545.417,584.5729 H 50.859001 V -10.7031 H -545.417 Z"
         id="path100303"
         style="stroke-width:0.999998" />
    </clipPath>
  </defs>
  <sodipodi:namedview
     id="namedview99596"
     pagecolor="#ffffff"
     bordercolor="#000000"
     borderopacity="0.25"
     inkscape:showpageshadow="2"
     inkscape:pageopacity="0.0"
     inkscape:pagecheckerboard="0"
     inkscape:deskcolor="#d1d1d1"
     showgrid="false"
     inkscape:zoom="0.29734106"
     inkscape:cx="-215.24105"
     inkscape:cy="396.85068"
     inkscape:window-width="1419"
     inkscape:window-height="456"
     inkscape:window-x="0"
     inkscape:window-y="25"
     inkscape:window-maximized="0"
     inkscape:current-layer="svg99594">
    <inkscape:page
       x="0"
       y="0"
       id="page99600"
       width="795.03467"
       height="793.70135" />
  </sodipodi:namedview>
  <path
     d="M 556.487 630.615 L 639.201 582.86 L 639.201 487.342 L 498.035 405.837 L 479.573 395.176 L 479.573 210.848 L 396.85 163.088 L 314.136 210.845 L 314.136 395.176 L 154.499 487.342 L 154.499 582.86 L 237.217 630.615 L 396.85 538.451 Z M 396.85 623.727 L 237.22 715.893 L 80.6469 625.495 L 80.6495 444.701 L 240.281 352.541 L 240.281 168.211 L 396.85 77.8124 L 553.424 168.208 L 553.424 352.54 L 713.055 444.701 L 713.057 625.495 L 556.48 715.893 Z"
     style="fill:#000000;fill-opacity:1;fill-rule:nonzero;stroke:none"
     id="path99714" />
  <path
     d="M 419.799 443.089 C 419.799 455.766 409.526 466.037 396.854 466.037 C 384.182 466.037 373.908 455.766 373.908 443.089 C 373.908 430.42 384.182 420.146 396.854 420.146 C 409.526 420.146 419.799 430.42 419.799 443.089"
     style="fill:#000000;fill-opacity:1;fill-rule:nonzero;stroke:none"
     id="path99718" />
  <path
     d="M 396.854 312.439 C 414.403 312.439 428.626 326.663 428.626 344.212 C 428.626 345.322 428.567 346.416 428.458 347.496 C 442.659 342.366 458.925 347.966 466.736 361.499 C 475.512 376.696 470.304 396.128 455.106 404.901 L 421.366 424.381 C 416.486 417.995 409.167 413.579 400.801 412.508 L 400.801 391.543 C 400.801 389.36 399.038 387.595 396.854 387.595 C 394.67 387.595 392.906 389.36 392.906 391.543 L 392.906 412.508 C 384.539 413.579 377.222 417.995 372.341 424.381 L 338.602 404.901 C 323.404 396.128 318.196 376.696 326.972 361.499 C 334.783 347.966 351.049 342.366 365.25 347.496 C 365.139 346.416 365.081 345.322 365.081 344.212 C 365.081 326.663 379.307 312.439 396.854 312.439"
     style="fill:#000000;fill-opacity:1;fill-rule:nonzero;stroke:none"
     id="path99722" />
  <path
     d="M 283.704 508.42 C 274.931 493.223 280.136 473.789 295.336 465.016 C 296.295 464.461 297.272 463.964 298.263 463.521 C 286.719 453.787 283.437 436.899 291.249 423.368 C 300.024 408.17 319.455 402.962 334.653 411.738 L 368.393 431.218 C 365.304 438.636 365.137 447.183 368.393 454.967 L 350.237 465.451 C 348.348 466.54 347.699 468.951 348.792 470.841 C 349.884 472.732 352.294 473.376 354.182 472.284 L 372.341 461.803 C 377.45 468.513 384.937 472.641 392.905 473.675 L 392.905 512.636 C 392.905 530.185 378.681 544.409 361.132 544.412 C 345.507 544.409 332.525 533.125 329.867 518.261 C 328.988 518.896 328.068 519.493 327.107 520.048 C 311.911 528.824 292.479 523.615 283.704 508.42"
     style="fill:#000000;fill-opacity:1;fill-rule:nonzero;stroke:none"
     id="path99726" />
  <path
     d="M 510.003 508.42 C 501.23 523.615 481.798 528.824 466.599 520.051 C 465.639 519.493 464.719 518.896 463.84 518.261 C 461.183 533.125 448.2 544.412 432.575 544.412 C 415.026 544.412 400.802 530.185 400.802 512.636 L 400.802 473.677 C 408.77 472.641 416.255 468.513 421.366 461.803 L 439.525 472.287 C 441.413 473.376 443.823 472.732 444.915 470.841 C 446.01 468.951 445.358 466.543 443.47 465.451 L 425.313 454.967 C 428.571 447.185 428.403 438.636 425.313 431.218 L 459.052 411.738 C 474.252 402.964 493.683 408.17 502.456 423.368 C 510.268 436.902 506.988 453.787 495.444 463.521 C 496.434 463.964 497.412 464.461 498.371 465.019 C 513.571 473.792 518.776 493.225 510.003 508.42"
     style="fill:#000000;fill-opacity:1;fill-rule:nonzero;stroke:none"
     id="path99730" />
</svg>
