<?xml version="1.0" encoding="UTF-8" standalone="no"?>
<!-- Created with Inkscape (http://www.inkscape.org/) -->

<svg
   version="1.1"
   id="svg114458"
   width="793.70135"
   height="793.70135"
   viewBox="0 0 793.70135 793.70135"
   sodipodi:docname="Kikkou Hanabishi.svg"
   inkscape:version="1.2 (dc2aeda, 2022-05-15)"
   xmlns:inkscape="http://www.inkscape.org/namespaces/inkscape"
   xmlns:sodipodi="http://sodipodi.sourceforge.net/DTD/sodipodi-0.dtd"
   xmlns="http://www.w3.org/2000/svg"
   xmlns:svg="http://www.w3.org/2000/svg">
  <defs
     id="defs114462">
    <clipPath
       clipPathUnits="userSpaceOnUse"
       id="clipPath115021">
      <path
         d="M -576.3691,585.5885 H 18.9069 V -9.6875027 h -595.276 z"
         id="path115023"
         style="stroke-width:0.999998" />
    </clipPath>
    <clipPath
       clipPathUnits="userSpaceOnUse"
       id="clipPath115027">
      <path
         d="M -550.2637,577.3248 H 45.012301 V -17.951198 H -550.2637 Z"
         id="path115029"
         style="stroke-width:0.999998" />
    </clipPath>
    <clipPath
       clipPathUnits="userSpaceOnUse"
       id="clipPath115033">
      <path
         d="M -574.5459,585.8522 H 20.730098 V -9.4238027 H -574.5459 Z"
         id="path115035"
         style="stroke-width:0.999998" />
    </clipPath>
    <clipPath
       clipPathUnits="userSpaceOnUse"
       id="clipPath115039">
      <path
         d="M -538.2217,577.9479 H 57.054294 V -17.328098 H -538.2217 Z"
         id="path115041"
         style="stroke-width:0.999998" />
    </clipPath>
    <clipPath
       clipPathUnits="userSpaceOnUse"
       id="clipPath115045">
      <path
         d="M -584.1943,578.9381 H 11.0817 V -16.337903 h -595.276 z"
         id="path115047"
         style="stroke-width:0.999998" />
    </clipPath>
    <clipPath
       clipPathUnits="userSpaceOnUse"
       id="clipPath115051">
      <path
         d="m -431.4834,298.1666 h 595.27599 v -595.276 H -431.4834 Z"
         id="path115053"
         style="stroke-width:0.999998" />
    </clipPath>
    <clipPath
       clipPathUnits="userSpaceOnUse"
       id="clipPath115057">
      <path
         d="M -548.9834,585.8522 H 46.292596 V -9.4238027 H -548.9834 Z"
         id="path115059"
         style="stroke-width:0.999998" />
    </clipPath>
    <clipPath
       clipPathUnits="userSpaceOnUse"
       id="clipPath115063">
      <path
         d="M -556.4014,578.0143 H 38.874601 V -17.2617 H -556.4014 Z"
         id="path115065"
         style="stroke-width:0.999998" />
    </clipPath>
    <clipPath
       clipPathUnits="userSpaceOnUse"
       id="clipPath115069">
      <path
         d="M -586.5449,579.5026 H 8.7310952 V -15.7734 H -586.5449 Z"
         id="path115071"
         style="stroke-width:0.999998" />
    </clipPath>
    <clipPath
       clipPathUnits="userSpaceOnUse"
       id="clipPath115075">
      <path
         d="M -567.7754,585.8522 H 27.500596 V -9.4238027 H -567.7754 Z"
         id="path115077"
         style="stroke-width:0.999998" />
    </clipPath>
    <clipPath
       clipPathUnits="userSpaceOnUse"
       id="clipPath115082">
      <path
         d="M -568.2266,575.819 H 27.049396 V -19.457003 H -568.2266 Z"
         id="path115084"
         style="stroke-width:0.999998" />
    </clipPath>
    <clipPath
       clipPathUnits="userSpaceOnUse"
       id="clipPath115088">
      <path
         d="M -561.4131,585.8522 H 33.862898 V -9.4238027 H -561.4131 Z"
         id="path115090"
         style="stroke-width:0.999998" />
    </clipPath>
    <clipPath
       clipPathUnits="userSpaceOnUse"
       id="clipPath115094">
      <path
         d="M -557.0645,585.8483 H 38.211496 V -9.4277027 H -557.0645 Z"
         id="path115096"
         style="stroke-width:0.999998" />
    </clipPath>
    <clipPath
       clipPathUnits="userSpaceOnUse"
       id="clipPath115100">
      <path
         d="M -553.8975,585.8483 H 41.378499 V -9.4277027 H -553.8975 Z"
         id="path115102"
         style="stroke-width:0.999998" />
    </clipPath>
    <clipPath
       clipPathUnits="userSpaceOnUse"
       id="clipPath115106">
      <path
         d="m -437.9473,378.1364 h 595.276 v -595.276 h -595.276 z"
         id="path115108"
         style="stroke-width:0.999998" />
    </clipPath>
    <clipPath
       clipPathUnits="userSpaceOnUse"
       id="clipPath115112">
      <path
         d="M -564.5732,585.8483 H 30.702796 V -9.4277027 H -564.5732 Z"
         id="path115114"
         style="stroke-width:0.999998" />
    </clipPath>
    <clipPath
       clipPathUnits="userSpaceOnUse"
       id="clipPath115118">
      <path
         d="M -572.8174,586.1354 H 22.458601 V -9.1406027 H -572.8174 Z"
         id="path115120"
         style="stroke-width:0.999998" />
    </clipPath>
    <clipPath
       clipPathUnits="userSpaceOnUse"
       id="clipPath115124">
      <path
         d="m -315.1211,298.1686 h 595.27599 v -595.276 H -315.1211 Z"
         id="path115126"
         style="stroke-width:0.999998" />
    </clipPath>
    <clipPath
       clipPathUnits="userSpaceOnUse"
       id="clipPath115131">
      <path
         d="m -297.6318,245.7799 h 595.276 v -595.276 h -595.276 z"
         id="path115133"
         style="stroke-width:0.999998" />
    </clipPath>
    <clipPath
       clipPathUnits="userSpaceOnUse"
       id="clipPath115137">
      <path
         d="m -163.7822,298.1656 h 595.276 v -595.276 h -595.276 z"
         id="path115139"
         style="stroke-width:0.999998" />
    </clipPath>
    <clipPath
       clipPathUnits="userSpaceOnUse"
       id="clipPath115143">
      <path
         d="m -297.6338,350.5524 h 595.27599 v -595.276 H -297.6338 Z"
         id="path115145"
         style="stroke-width:0.999998" />
    </clipPath>
    <clipPath
       clipPathUnits="userSpaceOnUse"
       id="clipPath115149">
      <path
         d="M -557.4951,577.8502 H 37.780898 V -17.4258 H -557.4951 Z"
         id="path115151"
         style="stroke-width:0.999998" />
    </clipPath>
    <clipPath
       clipPathUnits="userSpaceOnUse"
       id="clipPath115155">
      <path
         d="M -531.1924,581.5885 H 64.083594 V -13.6875 H -531.1924 Z"
         id="path115157"
         style="stroke-width:0.999998" />
    </clipPath>
    <clipPath
       clipPathUnits="userSpaceOnUse"
       id="clipPath115161">
      <path
         d="M -528.0898,575.3815 H 67.186194 V -19.8945 H -528.0898 Z"
         id="path115163"
         style="stroke-width:0.999998" />
    </clipPath>
    <clipPath
       clipPathUnits="userSpaceOnUse"
       id="clipPath115167">
      <path
         d="M -536.6982,584.5729 H 58.577799 V -10.7031 H -536.6982 Z"
         id="path115169"
         style="stroke-width:0.999998" />
    </clipPath>
    <clipPath
       clipPathUnits="userSpaceOnUse"
       id="clipPath115173">
      <path
         d="M -540.8213,585.8483 H 54.454696 V -9.4277027 H -540.8213 Z"
         id="path115175"
         style="stroke-width:0.999998" />
    </clipPath>
    <clipPath
       clipPathUnits="userSpaceOnUse"
       id="clipPath115179">
      <path
         d="M -545.417,584.5729 H 49.858996 V -10.7031 H -545.417 Z"
         id="path115181"
         style="stroke-width:0.999998" />
    </clipPath>
    <clipPath
       clipPathUnits="userSpaceOnUse"
       id="clipPath115185">
      <path
         d="M -542.9326,584.5729 H 52.343394 V -10.7031 H -542.9326 Z"
         id="path115187"
         style="stroke-width:0.999998" />
    </clipPath>
  </defs>
  <sodipodi:namedview
     id="namedview114460"
     pagecolor="#ffffff"
     bordercolor="#000000"
     borderopacity="0.25"
     inkscape:showpageshadow="2"
     inkscape:pageopacity="0.0"
     inkscape:pagecheckerboard="0"
     inkscape:deskcolor="#d1d1d1"
     showgrid="false"
     inkscape:zoom="0.29734106"
     inkscape:cx="-215.24105"
     inkscape:cy="396.85068"
     inkscape:window-width="1419"
     inkscape:window-height="456"
     inkscape:window-x="0"
     inkscape:window-y="25"
     inkscape:window-maximized="0"
     inkscape:current-layer="svg114458">
    <inkscape:page
       x="0"
       y="0"
       id="page114464"
       width="793.70135"
       height="793.70135" />
  </sodipodi:namedview>
  <path
     d="M 583.93 504.182 L 396.85 612.195 L 209.76 504.182 L 209.76 288.151 L 396.85 180.133 L 583.93 288.151 Z M 193.306 278.649 L 193.306 513.682 L 396.85 631.198 L 600.389 513.682 L 600.389 278.649 L 396.85 161.131 Z M 619.267 524.581 L 396.85 652.994 L 174.427 524.581 L 174.427 267.751 L 396.85 139.335 L 619.267 267.751 Z M 396.85 31.7312 L 81.2379 213.948 L 81.2379 578.382 L 396.85 760.597 L 712.454 578.382 L 712.454 213.948 Z"
     style="fill:#000000;fill-opacity:1;fill-rule:nonzero;stroke:none"
     id="path114578" />
  <path
     d="M 420.161 397.558 C 420.161 410.437 409.724 420.875 396.845 420.875 C 383.965 420.875 373.53 410.437 373.53 397.558 C 373.53 384.679 383.965 374.242 396.845 374.242 C 409.724 374.242 420.161 384.679 420.161 397.558"
     style="fill:#000000;fill-opacity:1;fill-rule:nonzero;stroke:none"
     id="path114582" />
  <path
     d="M 396.842 327.707 C 399.953 327.707 402.475 330.226 402.475 333.338 L 402.475 365.494 C 408.738 366.588 414.397 369.486 418.883 373.599 L 458.502 343.408 C 461.401 341.114 463.924 338.21 465.883 334.784 C 468.572 330.094 469.832 324.992 469.832 319.96 C 469.832 309.576 464.424 299.484 454.771 293.971 C 450.083 291.284 444.983 290.014 439.95 290.014 C 437.098 290.014 434.278 290.418 431.577 291.207 L 429.051 291.939 L 428.994 289.316 C 428.603 271.896 414.357 257.883 396.842 257.883 C 379.329 257.883 365.086 271.896 364.695 289.316 L 364.635 291.939 L 362.115 291.207 C 359.398 290.418 356.573 290.007 353.731 290.007 C 348.693 290.014 343.591 291.276 338.91 293.971 C 329.249 299.491 323.849 309.576 323.841 319.96 C 323.841 324.992 325.112 330.087 327.798 334.784 C 329.765 338.218 332.279 341.114 335.163 343.387 L 374.806 373.602 C 379.285 369.486 384.954 366.586 391.214 365.492 L 391.214 333.338 C 391.214 330.226 393.737 327.714 396.842 327.707"
     style="fill:#000000;fill-opacity:1;fill-rule:nonzero;stroke:none"
     id="path114586" />
  <path
     d="M 218.376 397.554 C 218.397 410.841 229.144 421.601 242.444 421.622 L 256.788 421.622 L 256.961 423.45 C 258.805 442.939 275.208 458.203 295.186 458.197 C 303.43 458.197 311.053 455.603 317.249 451.238 L 367.937 412.538 C 366.437 409.646 365.354 406.505 364.774 403.187 L 319.121 403.187 C 316.005 403.187 313.493 400.663 313.493 397.554 C 313.504 394.453 316.005 391.929 319.121 391.929 L 364.774 391.929 C 365.354 388.614 366.434 385.47 367.937 382.577 L 317.305 343.921 C 311.053 339.505 303.43 336.919 295.186 336.919 C 275.208 336.911 258.805 352.174 256.961 371.666 L 256.788 373.494 L 242.444 373.494 C 229.144 373.515 218.397 384.265 218.376 397.554"
     style="fill:#000000;fill-opacity:1;fill-rule:nonzero;stroke:none"
     id="path114590" />
  <path
     d="M 396.845 467.403 C 393.734 467.403 391.214 464.883 391.214 461.772 L 391.214 429.616 C 384.952 428.522 379.29 425.624 374.806 421.51 L 335.185 451.7 C 332.285 453.996 329.765 456.9 327.804 460.326 C 325.117 465.018 323.855 470.118 323.855 475.151 C 323.855 485.534 329.261 495.624 338.916 501.14 C 343.602 503.826 348.704 505.096 353.737 505.096 C 356.592 505.096 359.409 504.692 362.11 503.903 L 364.638 503.171 L 364.696 505.794 C 365.084 523.212 379.329 537.227 396.845 537.227 C 414.357 537.227 428.601 523.212 428.994 505.794 L 429.052 503.171 L 431.574 503.903 C 434.286 504.692 437.114 505.103 439.956 505.103 C 444.994 505.096 450.094 503.834 454.777 501.14 C 464.438 495.619 469.838 485.534 469.846 475.151 C 469.846 470.118 468.578 465.023 465.889 460.326 C 463.922 456.892 461.408 453.996 458.526 451.72 L 418.884 421.507 C 414.402 425.624 408.733 428.524 402.473 429.616 L 402.473 461.772 C 402.473 464.883 399.953 467.396 396.845 467.403"
     style="fill:#000000;fill-opacity:1;fill-rule:nonzero;stroke:none"
     id="path114594" />
  <path
     d="M 575.311 397.555 C 575.292 384.267 564.539 373.51 551.243 373.488 L 536.902 373.488 L 536.726 371.66 C 534.882 352.167 518.479 336.906 498.501 336.912 C 490.255 336.912 482.634 339.506 476.438 343.871 L 425.749 382.57 C 427.25 385.463 428.335 388.603 428.91 391.923 L 474.566 391.923 C 477.682 391.923 480.191 394.447 480.191 397.555 C 480.186 400.655 477.682 403.179 474.566 403.179 L 428.91 403.179 C 428.335 406.494 427.253 409.639 425.749 412.532 L 476.382 451.19 C 482.634 455.604 490.255 458.191 498.501 458.191 C 518.479 458.198 534.882 442.934 536.726 423.442 L 536.902 421.616 L 551.243 421.616 C 564.539 421.594 575.292 410.843 575.311 397.555"
     style="fill:#000000;fill-opacity:1;fill-rule:nonzero;stroke:none"
     id="path114598" />
</svg>
