<?xml version="1.0" encoding="UTF-8" standalone="no"?>
<!-- Created with Inkscape (http://www.inkscape.org/) -->

<svg
   version="1.1"
   id="svg105462"
   width="795.03467"
   height="793.70135"
   viewBox="0 0 795.03467 793.70135"
   sodipodi:docname="Kikkouni Hanakaku.svg"
   inkscape:version="1.2 (dc2aeda, 2022-05-15)"
   xmlns:inkscape="http://www.inkscape.org/namespaces/inkscape"
   xmlns:sodipodi="http://sodipodi.sourceforge.net/DTD/sodipodi-0.dtd"
   xmlns="http://www.w3.org/2000/svg"
   xmlns:svg="http://www.w3.org/2000/svg">
  <defs
     id="defs105466">
    <clipPath
       clipPathUnits="userSpaceOnUse"
       id="clipPath106035">
      <path
         d="M -531.1924,581.5885 H 65.083599 V -13.6875 H -531.1924 Z"
         id="path106037"
         style="stroke-width:0.999998" />
    </clipPath>
    <clipPath
       clipPathUnits="userSpaceOnUse"
       id="clipPath106041">
      <path
         d="M -567.7754,585.8522 H 28.500601 V -9.4238027 H -567.7754 Z"
         id="path106043"
         style="stroke-width:0.999998" />
    </clipPath>
    <clipPath
       clipPathUnits="userSpaceOnUse"
       id="clipPath106047">
      <path
         d="M -557.0645,585.8483 H 39.211501 V -9.4277027 H -557.0645 Z"
         id="path106049"
         style="stroke-width:0.999998" />
    </clipPath>
    <clipPath
       clipPathUnits="userSpaceOnUse"
       id="clipPath106053">
      <path
         d="M -553.8975,585.8483 H 42.378504 V -9.4277027 H -553.8975 Z"
         id="path106055"
         style="stroke-width:0.999998" />
    </clipPath>
    <clipPath
       clipPathUnits="userSpaceOnUse"
       id="clipPath106059">
      <path
         d="M -561.4131,585.8522 H 34.862903 V -9.4238027 H -561.4131 Z"
         id="path106061"
         style="stroke-width:0.999998" />
    </clipPath>
    <clipPath
       clipPathUnits="userSpaceOnUse"
       id="clipPath106065">
      <path
         d="M -545.417,584.5729 H 50.859001 V -10.7031 H -545.417 Z"
         id="path106067"
         style="stroke-width:0.999998" />
    </clipPath>
    <clipPath
       clipPathUnits="userSpaceOnUse"
       id="clipPath106071">
      <path
         d="M -542.9326,584.5729 H 53.343399 V -10.7031 H -542.9326 Z"
         id="path106073"
         style="stroke-width:0.999998" />
    </clipPath>
    <clipPath
       clipPathUnits="userSpaceOnUse"
       id="clipPath106077">
      <path
         d="M -564.5732,585.8483 H 31.702801 V -9.4277027 H -564.5732 Z"
         id="path106079"
         style="stroke-width:0.999998" />
    </clipPath>
    <clipPath
       clipPathUnits="userSpaceOnUse"
       id="clipPath106083">
      <path
         d="M -528.0898,575.3815 H 68.186199 V -19.8945 H -528.0898 Z"
         id="path106085"
         style="stroke-width:0.999998" />
    </clipPath>
    <clipPath
       clipPathUnits="userSpaceOnUse"
       id="clipPath106089">
      <path
         d="M -548.9834,585.8522 H 47.292601 V -9.4238027 H -548.9834 Z"
         id="path106091"
         style="stroke-width:0.999998" />
    </clipPath>
    <clipPath
       clipPathUnits="userSpaceOnUse"
       id="clipPath106096">
      <path
         d="M -572.8174,586.1354 H 23.458606 V -9.1406027 H -572.8174 Z"
         id="path106098"
         style="stroke-width:0.999998" />
    </clipPath>
    <clipPath
       clipPathUnits="userSpaceOnUse"
       id="clipPath106102">
      <path
         d="M -574.5459,585.8522 H 21.730103 V -9.4238027 H -574.5459 Z"
         id="path106104"
         style="stroke-width:0.999998" />
    </clipPath>
    <clipPath
       clipPathUnits="userSpaceOnUse"
       id="clipPath106108">
      <path
         d="M -576.3691,585.5885 H 19.906905 V -9.6875027 H -576.3691 Z"
         id="path106110"
         style="stroke-width:0.999998" />
    </clipPath>
    <clipPath
       clipPathUnits="userSpaceOnUse"
       id="clipPath106114">
      <path
         d="M -557.4951,577.8502 H 38.780903 V -17.4258 H -557.4951 Z"
         id="path106116"
         style="stroke-width:0.999998" />
    </clipPath>
    <clipPath
       clipPathUnits="userSpaceOnUse"
       id="clipPath106120">
      <path
         d="M -568.2266,575.819 H 28.049401 V -19.457003 H -568.2266 Z"
         id="path106122"
         style="stroke-width:0.999998" />
    </clipPath>
    <clipPath
       clipPathUnits="userSpaceOnUse"
       id="clipPath106126">
      <path
         d="M -550.2637,577.3248 H 46.012306 V -17.951198 H -550.2637 Z"
         id="path106128"
         style="stroke-width:0.999998" />
    </clipPath>
    <clipPath
       clipPathUnits="userSpaceOnUse"
       id="clipPath106133">
      <path
         d="M -556.4014,578.0143 H 39.874606 V -17.2617 H -556.4014 Z"
         id="path106135"
         style="stroke-width:0.999998" />
    </clipPath>
    <clipPath
       clipPathUnits="userSpaceOnUse"
       id="clipPath106139">
      <path
         d="M -586.5449,579.5026 H 9.7311002 V -15.7734 H -586.5449 Z"
         id="path106141"
         style="stroke-width:0.999998" />
    </clipPath>
    <clipPath
       clipPathUnits="userSpaceOnUse"
       id="clipPath106145">
      <path
         d="M -584.1943,578.9381 H 12.081705 V -16.337903 H -584.1943 Z"
         id="path106147"
         style="stroke-width:0.999998" />
    </clipPath>
    <clipPath
       clipPathUnits="userSpaceOnUse"
       id="clipPath106151">
      <path
         d="M -538.2217,577.9479 H 58.054299 V -17.328098 H -538.2217 Z"
         id="path106153"
         style="stroke-width:0.999998" />
    </clipPath>
    <clipPath
       clipPathUnits="userSpaceOnUse"
       id="clipPath106157">
      <path
         d="m -315.8691,298.1661 h 596.276 v -595.276 h -596.276 z"
         id="path106159"
         style="stroke-width:0.999998" />
    </clipPath>
    <clipPath
       clipPathUnits="userSpaceOnUse"
       id="clipPath106164">
      <path
         d="m -297.6348,235.0128 h 596.276 v -595.276 h -596.276 z"
         id="path106166"
         style="stroke-width:0.999998" />
    </clipPath>
    <clipPath
       clipPathUnits="userSpaceOnUse"
       id="clipPath106170">
      <path
         d="m -297.6348,361.317 h 596.276 v -595.276 h -596.276 z"
         id="path106172"
         style="stroke-width:0.999998" />
    </clipPath>
    <clipPath
       clipPathUnits="userSpaceOnUse"
       id="clipPath106176">
      <path
         d="m -360.7861,298.1652 h 596.276 v -595.276 h -596.276 z"
         id="path106178"
         style="stroke-width:0.999998" />
    </clipPath>
    <clipPath
       clipPathUnits="userSpaceOnUse"
       id="clipPath106182">
      <path
         d="m -234.4814,298.1652 h 596.276 v -595.276 h -596.276 z"
         id="path106184"
         style="stroke-width:0.999998" />
    </clipPath>
    <clipPath
       clipPathUnits="userSpaceOnUse"
       id="clipPath106188">
      <path
         d="m -437.9473,378.1373 h 596.276 v -595.276 h -596.276 z"
         id="path106190"
         style="stroke-width:0.999998" />
    </clipPath>
    <clipPath
       clipPathUnits="userSpaceOnUse"
       id="clipPath106194">
      <path
         d="M -540.8213,585.8483 H 55.454701 V -9.4277027 H -540.8213 Z"
         id="path106196"
         style="stroke-width:0.999998" />
    </clipPath>
    <clipPath
       clipPathUnits="userSpaceOnUse"
       id="clipPath106200">
      <path
         d="M -536.6982,584.5729 H 59.577804 V -10.7031 H -536.6982 Z"
         id="path106202"
         style="stroke-width:0.999998" />
    </clipPath>
  </defs>
  <sodipodi:namedview
     id="namedview105464"
     pagecolor="#ffffff"
     bordercolor="#000000"
     borderopacity="0.25"
     inkscape:showpageshadow="2"
     inkscape:pageopacity="0.0"
     inkscape:pagecheckerboard="0"
     inkscape:deskcolor="#d1d1d1"
     showgrid="false"
     inkscape:zoom="0.29734106"
     inkscape:cx="-215.24105"
     inkscape:cy="396.85068"
     inkscape:window-width="1419"
     inkscape:window-height="456"
     inkscape:window-x="0"
     inkscape:window-y="25"
     inkscape:window-maximized="0"
     inkscape:current-layer="svg105462">
    <inkscape:page
       x="0"
       y="0"
       id="page105468"
       width="795.03467"
       height="793.70135" />
  </sodipodi:namedview>
  <path
     d="M 421.159 397.555 C 421.159 410.986 410.274 421.871 396.844 421.871 C 383.414 421.871 372.526 410.986 372.526 397.555 C 372.526 384.124 383.414 373.236 396.844 373.236 C 410.274 373.236 421.159 384.124 421.159 397.555"
     style="fill:#000000;fill-opacity:1;fill-rule:nonzero;stroke:none"
     id="path105582" />
  <path
     d="M 396.84372,387.81921 Z"
     style="fill:#000000;fill-opacity:1;fill-rule:nonzero;stroke:none;stroke-width:1.33333"
     id="path105586" />
  <path
     d="M 396.846 313.35 C 400.119 313.35 402.773 316.003 402.773 319.275 L 402.773 361.871 C 408.343 362.789 413.485 364.978 417.887 368.131 L 468.231 317.789 C 482.871 302.849 482.64 278.863 467.698 264.222 C 458.627 255.333 446.226 251.931 434.601 253.973 C 433.079 234.452 416.759 219.086 396.846 219.086 C 376.93 219.086 360.611 234.452 359.089 253.973 C 347.463 251.931 335.062 255.333 325.992 264.222 C 311.05 278.863 310.818 302.849 325.461 317.789 L 375.806 368.131 C 380.207 364.978 385.346 362.789 390.917 361.871 L 390.917 319.275 C 390.917 316.003 393.57 313.35 396.846 313.35"
     style="fill:#000000;fill-opacity:1;fill-rule:nonzero;stroke:none"
     id="path105590" />
  <path
     d="M 396.846 481.756 C 400.119 481.756 402.773 479.105 402.773 475.832 L 402.773 433.235 C 408.343 432.319 413.485 430.128 417.887 426.975 L 468.231 477.319 C 482.871 492.259 482.64 516.243 467.698 530.884 C 458.627 539.775 446.226 543.175 434.601 541.133 C 433.079 560.654 416.759 576.021 396.846 576.021 C 376.93 576.021 360.611 560.654 359.089 541.133 C 347.463 543.175 335.062 539.775 325.992 530.884 C 311.05 516.243 310.818 492.259 325.461 477.319 L 375.806 426.975 C 380.207 430.128 385.346 432.319 390.917 433.235 L 390.917 475.832 C 390.917 479.105 393.57 481.756 396.846 481.756"
     style="fill:#000000;fill-opacity:1;fill-rule:nonzero;stroke:none"
     id="path105594" />
  <path
     d="M 481.048 397.554 C 481.048 394.281 478.395 391.627 475.121 391.627 L 432.528 391.627 C 431.609 386.057 429.42 380.915 426.265 376.515 L 476.609 326.169 C 491.549 311.53 515.535 311.761 530.177 326.702 C 539.065 335.773 542.467 348.174 540.427 359.799 C 559.948 361.321 575.31 377.641 575.31 397.555 C 575.31 417.47 559.948 433.79 540.427 435.311 C 542.467 446.937 539.065 459.337 530.177 468.407 C 515.535 483.35 491.549 483.582 476.609 468.942 L 426.265 418.598 C 429.42 414.194 431.609 409.054 432.528 403.483 L 475.121 403.483 C 478.395 403.483 481.048 400.83 481.048 397.554"
     style="fill:#000000;fill-opacity:1;fill-rule:nonzero;stroke:none"
     id="path105598" />
  <path
     d="M 312.642 397.554 C 312.642 394.281 315.294 391.627 318.566 391.627 L 361.162 391.627 C 362.079 386.057 364.271 380.915 367.422 376.515 L 317.081 326.169 C 302.141 311.53 278.155 311.761 263.513 326.702 C 254.625 335.773 251.223 348.174 253.265 359.799 C 233.742 361.321 218.377 377.641 218.377 397.555 C 218.377 417.47 233.742 433.79 253.265 435.311 C 251.223 446.937 254.625 459.337 263.513 468.407 C 278.155 483.35 302.141 483.582 317.081 468.942 L 367.422 418.598 C 364.271 414.194 362.079 409.054 361.162 403.483 L 318.566 403.483 C 315.294 403.483 312.642 400.83 312.642 397.554"
     style="fill:#000000;fill-opacity:1;fill-rule:nonzero;stroke:none"
     id="path105602" />
  <path
     d="M 583.93 504.183 L 396.85 612.196 L 209.76 504.183 L 209.76 288.15 L 396.85 180.133 L 583.93 288.15 Z M 193.306 278.649 L 193.306 513.683 L 396.85 631.199 L 600.389 513.683 L 600.389 278.649 L 396.85 161.131 Z M 619.267 524.582 L 396.85 652.995 L 174.427 524.582 L 174.427 267.75 L 396.85 139.335 L 619.267 267.75 Z M 396.85 31.7308 L 81.2379 213.949 L 81.2379 578.383 L 396.85 760.597 L 712.454 578.383 L 712.454 213.949 Z"
     style="fill:#000000;fill-opacity:1;fill-rule:nonzero;stroke:none"
     id="path105606" />
</svg>
