<?xml version="1.0" encoding="UTF-8" standalone="no"?>
<!-- Created with Inkscape (http://www.inkscape.org/) -->

<svg
   version="1.1"
   id="svg85558"
   width="795.03467"
   height="793.70135"
   viewBox="0 0 795.03467 793.70135"
   sodipodi:docname="Maruni Mukaiwarikikkouni Hanakaku.svg"
   inkscape:version="1.2 (dc2aeda, 2022-05-15)"
   xmlns:inkscape="http://www.inkscape.org/namespaces/inkscape"
   xmlns:sodipodi="http://sodipodi.sourceforge.net/DTD/sodipodi-0.dtd"
   xmlns="http://www.w3.org/2000/svg"
   xmlns:svg="http://www.w3.org/2000/svg">
  <defs
     id="defs85562">
    <clipPath
       clipPathUnits="userSpaceOnUse"
       id="clipPath86051">
      <path
         d="M -568.2266,575.819 H 28.049401 V -19.457003 H -568.2266 Z"
         id="path86053"
         style="stroke-width:0.999998" />
    </clipPath>
    <clipPath
       clipPathUnits="userSpaceOnUse"
       id="clipPath86057">
      <path
         d="M -557.4951,577.8502 H 38.780903 V -17.4258 H -557.4951 Z"
         id="path86059"
         style="stroke-width:0.999998" />
    </clipPath>
    <clipPath
       clipPathUnits="userSpaceOnUse"
       id="clipPath86063">
      <path
         d="M -561.4131,585.8522 H 34.862903 V -9.4238027 H -561.4131 Z"
         id="path86065"
         style="stroke-width:0.999998" />
    </clipPath>
    <clipPath
       clipPathUnits="userSpaceOnUse"
       id="clipPath86069">
      <path
         d="M -576.3691,585.5885 H 19.906905 V -9.6875027 H -576.3691 Z"
         id="path86071"
         style="stroke-width:0.999998" />
    </clipPath>
    <clipPath
       clipPathUnits="userSpaceOnUse"
       id="clipPath86076">
      <path
         d="M -586.5449,579.5026 H 9.7311002 V -15.7734 H -586.5449 Z"
         id="path86078"
         style="stroke-width:0.999998" />
    </clipPath>
    <clipPath
       clipPathUnits="userSpaceOnUse"
       id="clipPath86082">
      <path
         d="M -548.9834,585.8522 H 47.292601 V -9.4238027 H -548.9834 Z"
         id="path86084"
         style="stroke-width:0.999998" />
    </clipPath>
    <clipPath
       clipPathUnits="userSpaceOnUse"
       id="clipPath86088">
      <path
         d="M -545.417,584.5729 H 50.859001 V -10.7031 H -545.417 Z"
         id="path86090"
         style="stroke-width:0.999998" />
    </clipPath>
    <clipPath
       clipPathUnits="userSpaceOnUse"
       id="clipPath86094">
      <path
         d="M -564.5732,585.8483 H 31.702801 V -9.4277027 H -564.5732 Z"
         id="path86096"
         style="stroke-width:0.999998" />
    </clipPath>
    <clipPath
       clipPathUnits="userSpaceOnUse"
       id="clipPath86100">
      <path
         d="M -550.2637,577.3248 H 46.012306 V -17.951198 H -550.2637 Z"
         id="path86102"
         style="stroke-width:0.999998" />
    </clipPath>
    <clipPath
       clipPathUnits="userSpaceOnUse"
       id="clipPath86106">
      <path
         d="M -556.4014,578.0143 H 39.874606 V -17.2617 H -556.4014 Z"
         id="path86108"
         style="stroke-width:0.999998" />
    </clipPath>
    <clipPath
       clipPathUnits="userSpaceOnUse"
       id="clipPath86112">
      <path
         d="M -540.8213,585.8483 H 55.454701 V -9.4277027 H -540.8213 Z"
         id="path86114"
         style="stroke-width:0.999998" />
    </clipPath>
    <clipPath
       clipPathUnits="userSpaceOnUse"
       id="clipPath86118">
      <path
         d="M -553.8975,585.8483 H 42.378504 V -9.4277027 H -553.8975 Z"
         id="path86120"
         style="stroke-width:0.999998" />
    </clipPath>
    <clipPath
       clipPathUnits="userSpaceOnUse"
       id="clipPath86124">
      <path
         d="M -542.9326,584.5729 H 53.343399 V -10.7031 H -542.9326 Z"
         id="path86126"
         style="stroke-width:0.999998" />
    </clipPath>
    <clipPath
       clipPathUnits="userSpaceOnUse"
       id="clipPath86131">
      <path
         d="M -531.1924,581.5885 H 65.083599 V -13.6875 H -531.1924 Z"
         id="path86133"
         style="stroke-width:0.999998" />
    </clipPath>
    <clipPath
       clipPathUnits="userSpaceOnUse"
       id="clipPath86137">
      <path
         d="M -528.0898,575.3815 H 68.186199 V -19.8945 H -528.0898 Z"
         id="path86139"
         style="stroke-width:0.999998" />
    </clipPath>
    <clipPath
       clipPathUnits="userSpaceOnUse"
       id="clipPath86143">
      <path
         d="M -567.7754,585.8522 H 28.500601 V -9.4238027 H -567.7754 Z"
         id="path86145"
         style="stroke-width:0.999998" />
    </clipPath>
    <clipPath
       clipPathUnits="userSpaceOnUse"
       id="clipPath86149">
      <path
         d="M -536.6982,584.5729 H 59.577804 V -10.7031 H -536.6982 Z"
         id="path86151"
         style="stroke-width:0.999998" />
    </clipPath>
    <clipPath
       clipPathUnits="userSpaceOnUse"
       id="clipPath86155">
      <path
         d="M -557.0645,585.8483 H 39.211501 V -9.4277027 H -557.0645 Z"
         id="path86157"
         style="stroke-width:0.999998" />
    </clipPath>
    <clipPath
       clipPathUnits="userSpaceOnUse"
       id="clipPath86161">
      <path
         d="M -574.5459,585.8522 H 21.730103 V -9.4238027 H -574.5459 Z"
         id="path86163"
         style="stroke-width:0.999998" />
    </clipPath>
    <clipPath
       clipPathUnits="userSpaceOnUse"
       id="clipPath86167">
      <path
         d="m -361.3125,448.3502 h 596.276 v -595.276 h -596.276 z"
         id="path86169"
         style="stroke-width:0.999998" />
    </clipPath>
    <clipPath
       clipPathUnits="userSpaceOnUse"
       id="clipPath86173">
      <path
         d="M -584.1943,578.9381 H 12.081705 V -16.337903 H -584.1943 Z"
         id="path86175"
         style="stroke-width:0.999998" />
    </clipPath>
    <clipPath
       clipPathUnits="userSpaceOnUse"
       id="clipPath86179">
      <path
         d="M -538.2217,577.9479 H 58.054299 V -17.328098 H -538.2217 Z"
         id="path86181"
         style="stroke-width:0.999998" />
    </clipPath>
    <clipPath
       clipPathUnits="userSpaceOnUse"
       id="clipPath86185">
      <path
         d="M -572.8174,586.1354 H 23.458606 V -9.1406027 H -572.8174 Z"
         id="path86187"
         style="stroke-width:0.999998" />
    </clipPath>
  </defs>
  <sodipodi:namedview
     id="namedview85560"
     pagecolor="#ffffff"
     bordercolor="#000000"
     borderopacity="0.25"
     inkscape:showpageshadow="2"
     inkscape:pageopacity="0.0"
     inkscape:pagecheckerboard="0"
     inkscape:deskcolor="#d1d1d1"
     showgrid="false"
     inkscape:zoom="0.29734106"
     inkscape:cx="-215.24105"
     inkscape:cy="396.85068"
     inkscape:window-width="1419"
     inkscape:window-height="456"
     inkscape:window-x="0"
     inkscape:window-y="25"
     inkscape:window-maximized="0"
     inkscape:current-layer="svg85558">
    <inkscape:page
       x="0"
       y="0"
       id="page85564"
       width="795.03467"
       height="793.70135" />
  </sodipodi:namedview>
  <path
     d="M 481.75 597.8 C 482.957 590.925 480.946 583.592 475.689 578.229 C 467.031 569.393 452.849 569.259 444.014 577.915 L 414.246 607.685 C 416.11 610.287 417.405 613.327 417.95 616.62 L 443.134 616.62 C 445.069 616.62 446.639 618.188 446.639 620.125 L 502.377 620.125 C 502.377 608.349 493.295 598.699 481.75 597.8 M 396.848 605.745 C 388.906 605.745 382.468 612.183 382.468 620.125 L 411.226 620.125 C 411.226 612.183 404.788 605.745 396.848 605.745 M 528.377 250.34 L 396.85 326.274 L 265.329 250.34 L 265.329 173.581 L 210.225 173.581 L 210.225 282.154 L 396.85 389.905 L 583.48 282.154 L 583.48 173.581 L 528.377 173.581 Z M 409.293 602.727 L 439.059 572.956 C 447.718 564.123 447.579 549.94 438.743 541.284 C 433.381 536.027 426.05 534.016 419.173 535.221 C 418.275 523.68 408.624 514.592 396.848 514.592 C 385.072 514.592 375.424 523.68 374.522 535.221 C 367.65 534.016 360.314 536.027 354.952 541.284 C 346.113 549.94 345.98 564.123 354.637 572.956 L 384.405 602.727 C 387.008 600.863 390.05 599.568 393.341 599.024 L 393.341 573.839 C 393.341 571.901 394.912 570.333 396.848 570.333 C 398.785 570.333 400.353 571.901 400.353 573.839 L 400.353 599.024 C 403.648 599.568 406.689 600.863 409.293 602.727 M 276.492 549.813 L 276.492 620.125 L 286.218 620.125 L 286.218 555.431 L 396.85 491.558 L 507.478 555.431 L 507.478 620.125 L 517.207 620.125 L 517.207 549.813 L 396.85 480.322 Z M 210.221 511.555 L 210.221 620.125 L 265.325 620.125 L 265.325 543.371 L 396.85 467.434 L 528.371 543.371 L 528.371 620.125 L 583.475 620.125 L 583.475 511.555 L 396.85 403.803 Z M 384.408 190.982 L 354.645 220.75 C 345.986 229.584 346.121 243.766 354.957 252.425 C 360.321 257.684 367.653 259.693 374.528 258.488 C 375.428 270.029 385.077 279.118 396.853 279.118 C 408.629 279.118 418.279 270.029 419.175 258.488 C 426.054 259.693 433.387 257.684 438.753 252.425 C 447.587 243.766 447.722 229.584 439.063 220.75 L 409.296 190.982 C 406.693 192.848 403.656 194.141 400.361 194.686 L 400.361 219.87 C 400.361 221.808 398.789 223.373 396.853 223.373 C 394.92 223.373 393.35 221.808 393.35 219.87 L 393.35 194.686 C 390.054 194.141 387.014 192.848 384.408 190.982 M 318.005 578.229 C 312.748 583.592 310.737 590.925 311.945 597.8 C 300.397 598.699 291.314 608.349 291.314 620.125 L 347.058 620.125 C 347.058 618.188 348.624 616.62 350.558 616.62 L 375.746 616.62 C 376.29 613.327 377.584 610.287 379.449 607.685 L 349.678 577.915 C 340.848 569.259 326.662 569.393 318.005 578.229 M 475.695 215.48 C 480.953 210.118 482.963 202.782 481.757 195.91 C 493.301 195.012 502.389 185.36 502.389 173.581 L 446.645 173.584 C 446.645 175.52 445.077 177.089 443.142 177.089 L 417.954 177.089 C 417.413 180.384 416.113 183.422 414.252 186.024 L 444.019 215.796 C 452.853 224.452 467.038 224.316 475.695 215.48 M 396.856 187.965 C 404.794 187.965 411.233 181.526 411.233 173.581 L 382.478 173.581 C 382.478 181.526 388.913 187.965 396.856 187.965 M 517.211 243.897 L 517.211 173.581 L 507.483 173.581 L 507.483 238.277 L 396.85 302.151 L 286.226 238.277 L 286.226 173.581 L 276.496 173.581 L 276.496 243.897 L 396.85 313.389 Z M 311.95 195.91 C 310.744 202.782 312.754 210.118 318.009 215.48 C 326.669 224.316 340.85 224.452 349.69 215.796 L 379.454 186.024 C 377.592 183.422 376.296 180.384 375.75 177.089 L 350.568 177.089 C 348.632 177.089 347.064 175.52 347.064 173.584 L 291.322 173.581 C 291.322 185.36 300.408 195.012 311.95 195.91 M 396.852 701.977 C 228.337 701.977 91.7283 565.368 91.7283 396.853 C 91.7283 228.337 228.337 91.7306 396.852 91.7306 C 565.366 91.7306 701.973 228.337 701.973 396.853 C 701.973 565.368 565.366 701.977 396.852 701.977 M 396.85 31.7307 C 195.2 31.7307 31.7285 195.201 31.7285 396.855 C 31.7285 598.505 195.2 761.977 396.85 761.977 C 598.5 761.977 761.972 598.505 761.972 396.855 C 761.972 195.201 598.5 31.7307 396.85 31.7307"
     style="fill:#000000;fill-opacity:1;fill-rule:nonzero;stroke:none"
     id="path85678" />
</svg>
