<?xml version="1.0" encoding="UTF-8" standalone="no"?>
<!-- Created with Inkscape (http://www.inkscape.org/) -->

<svg
   version="1.1"
   id="svg116826"
   width="795.03467"
   height="793.70135"
   viewBox="0 0 795.03467 793.70135"
   sodipodi:docname="Mitsu Kumiai Teppou Kikkou.svg"
   inkscape:version="1.2 (dc2aeda, 2022-05-15)"
   xmlns:inkscape="http://www.inkscape.org/namespaces/inkscape"
   xmlns:sodipodi="http://sodipodi.sourceforge.net/DTD/sodipodi-0.dtd"
   xmlns="http://www.w3.org/2000/svg"
   xmlns:svg="http://www.w3.org/2000/svg">
  <defs
     id="defs116830">
    <clipPath
       clipPathUnits="userSpaceOnUse"
       id="clipPath117389">
      <path
         d="M -528.0898,575.3815 H 68.186199 V -19.8945 H -528.0898 Z"
         id="path117391"
         style="stroke-width:0.999998" />
    </clipPath>
    <clipPath
       clipPathUnits="userSpaceOnUse"
       id="clipPath117395">
      <path
         d="M -540.8213,585.8483 H 55.454701 V -9.4277027 H -540.8213 Z"
         id="path117397"
         style="stroke-width:0.999998" />
    </clipPath>
    <clipPath
       clipPathUnits="userSpaceOnUse"
       id="clipPath117401">
      <path
         d="M -536.6982,584.5729 H 59.577804 V -10.7031 H -536.6982 Z"
         id="path117403"
         style="stroke-width:0.999998" />
    </clipPath>
    <clipPath
       clipPathUnits="userSpaceOnUse"
       id="clipPath117407">
      <path
         d="M -531.1924,581.5885 H 65.083599 V -13.6875 H -531.1924 Z"
         id="path117409"
         style="stroke-width:0.999998" />
    </clipPath>
    <clipPath
       clipPathUnits="userSpaceOnUse"
       id="clipPath117413">
      <path
         d="M -545.417,584.5729 H 50.859001 V -10.7031 H -545.417 Z"
         id="path117415"
         style="stroke-width:0.999998" />
    </clipPath>
    <clipPath
       clipPathUnits="userSpaceOnUse"
       id="clipPath117419">
      <path
         d="M -542.9326,584.5729 H 53.343399 V -10.7031 H -542.9326 Z"
         id="path117421"
         style="stroke-width:0.999998" />
    </clipPath>
    <clipPath
       clipPathUnits="userSpaceOnUse"
       id="clipPath117425">
      <path
         d="M -548.9834,585.8522 H 47.292601 V -9.4238027 H -548.9834 Z"
         id="path117427"
         style="stroke-width:0.999998" />
    </clipPath>
    <clipPath
       clipPathUnits="userSpaceOnUse"
       id="clipPath117431">
      <path
         d="M -553.8975,585.8483 H 42.378504 V -9.4277027 H -553.8975 Z"
         id="path117433"
         style="stroke-width:0.999998" />
    </clipPath>
    <clipPath
       clipPathUnits="userSpaceOnUse"
       id="clipPath117437">
      <path
         d="M -557.0645,585.8483 H 39.211501 V -9.4277027 H -557.0645 Z"
         id="path117439"
         style="stroke-width:0.999998" />
    </clipPath>
    <clipPath
       clipPathUnits="userSpaceOnUse"
       id="clipPath117443">
      <path
         d="M -561.4131,585.8522 H 34.862903 V -9.4238027 H -561.4131 Z"
         id="path117445"
         style="stroke-width:0.999998" />
    </clipPath>
    <clipPath
       clipPathUnits="userSpaceOnUse"
       id="clipPath117449">
      <path
         d="M -564.5732,585.8483 H 31.702801 V -9.4277027 H -564.5732 Z"
         id="path117451"
         style="stroke-width:0.999998" />
    </clipPath>
    <clipPath
       clipPathUnits="userSpaceOnUse"
       id="clipPath117455">
      <path
         d="M -567.7754,585.8522 H 28.500601 V -9.4238027 H -567.7754 Z"
         id="path117457"
         style="stroke-width:0.999998" />
    </clipPath>
    <clipPath
       clipPathUnits="userSpaceOnUse"
       id="clipPath117462">
      <path
         d="M -572.8174,586.1354 H 23.458606 V -9.1406027 H -572.8174 Z"
         id="path117464"
         style="stroke-width:0.999998" />
    </clipPath>
    <clipPath
       clipPathUnits="userSpaceOnUse"
       id="clipPath117468">
      <path
         d="M -574.5459,585.8522 H 21.730103 V -9.4238027 H -574.5459 Z"
         id="path117470"
         style="stroke-width:0.999998" />
    </clipPath>
    <clipPath
       clipPathUnits="userSpaceOnUse"
       id="clipPath117474">
      <path
         d="M -576.3691,585.5885 H 19.906905 V -9.6875027 H -576.3691 Z"
         id="path117476"
         style="stroke-width:0.999998" />
    </clipPath>
    <clipPath
       clipPathUnits="userSpaceOnUse"
       id="clipPath117480">
      <path
         d="M -557.4951,577.8502 H 38.780903 V -17.4258 H -557.4951 Z"
         id="path117482"
         style="stroke-width:0.999998" />
    </clipPath>
    <clipPath
       clipPathUnits="userSpaceOnUse"
       id="clipPath117486">
      <path
         d="M -568.2266,575.819 H 28.049401 V -19.457003 H -568.2266 Z"
         id="path117488"
         style="stroke-width:0.999998" />
    </clipPath>
    <clipPath
       clipPathUnits="userSpaceOnUse"
       id="clipPath117492">
      <path
         d="M -550.2637,577.3248 H 46.012306 V -17.951198 H -550.2637 Z"
         id="path117494"
         style="stroke-width:0.999998" />
    </clipPath>
    <clipPath
       clipPathUnits="userSpaceOnUse"
       id="clipPath117499">
      <path
         d="M -556.4014,578.0143 H 39.874606 V -17.2617 H -556.4014 Z"
         id="path117501"
         style="stroke-width:0.999998" />
    </clipPath>
    <clipPath
       clipPathUnits="userSpaceOnUse"
       id="clipPath117505">
      <path
         d="M -586.5449,579.5026 H 9.7311002 V -15.7734 H -586.5449 Z"
         id="path117507"
         style="stroke-width:0.999998" />
    </clipPath>
    <clipPath
       clipPathUnits="userSpaceOnUse"
       id="clipPath117511">
      <path
         d="M -584.1943,578.9381 H 12.081705 V -16.337903 H -584.1943 Z"
         id="path117513"
         style="stroke-width:0.999998" />
    </clipPath>
    <clipPath
       clipPathUnits="userSpaceOnUse"
       id="clipPath117517">
      <path
         d="M -538.2217,577.9479 H 58.054299 V -17.328098 H -538.2217 Z"
         id="path117519"
         style="stroke-width:0.999998" />
    </clipPath>
    <clipPath
       clipPathUnits="userSpaceOnUse"
       id="clipPath117523">
      <path
         d="m -215.5352,490.3678 h 596.276 v -595.276 h -596.276 z"
         id="path117525"
         style="stroke-width:0.999998" />
    </clipPath>
    <clipPath
       clipPathUnits="userSpaceOnUse"
       id="clipPath117529">
      <path
         d="m -186.6553,250.5626 h 596.276 v -595.276 h -596.276 z"
         id="path117531"
         style="stroke-width:0.999998" />
    </clipPath>
    <clipPath
       clipPathUnits="userSpaceOnUse"
       id="clipPath117535">
      <path
         d="m -379.7432,189.6974 h 596.27601 v -595.276 H -379.7432 Z"
         id="path117537"
         style="stroke-width:0.999998" />
    </clipPath>
    <clipPath
       clipPathUnits="userSpaceOnUse"
       id="clipPath117541">
      <path
         d="m -258.1084,368.7369 h 596.27601 v -595.276 H -258.1084 Z"
         id="path117543"
         style="stroke-width:0.999998" />
    </clipPath>
    <clipPath
       clipPathUnits="userSpaceOnUse"
       id="clipPath117547">
      <path
         d="m -176.0029,226.5314 h 596.276 v -595.276 h -596.276 z"
         id="path117549"
         style="stroke-width:0.999998" />
    </clipPath>
    <clipPath
       clipPathUnits="userSpaceOnUse"
       id="clipPath117553">
      <path
         d="m -297.6357,348.1647 h 596.276 v -595.276 h -596.276 z"
         id="path117555"
         style="stroke-width:0.999998" />
    </clipPath>
  </defs>
  <sodipodi:namedview
     id="namedview116828"
     pagecolor="#ffffff"
     bordercolor="#000000"
     borderopacity="0.25"
     inkscape:showpageshadow="2"
     inkscape:pageopacity="0.0"
     inkscape:pagecheckerboard="0"
     inkscape:deskcolor="#d1d1d1"
     showgrid="false"
     inkscape:zoom="0.29734106"
     inkscape:cx="-215.24105"
     inkscape:cy="396.85068"
     inkscape:window-width="1419"
     inkscape:window-height="456"
     inkscape:window-x="0"
     inkscape:window-y="25"
     inkscape:window-maximized="0"
     inkscape:current-layer="svg116826">
    <inkscape:page
       x="0"
       y="0"
       id="page116832"
       width="795.03467"
       height="793.70135" />
  </sodipodi:namedview>
  <path
     d="M 287.38 653.824 C 197.814 653.824 125.204 581.218 125.204 491.65 C 125.204 443.598 146.11 400.434 179.314 370.735 L 179.314 315.325 L 80.6445 372.287 L 80.6445 611.007 L 287.383 730.365 L 494.111 611.007 L 494.111 497.067 L 446.173 524.743 C 430.892 598.439 365.604 653.824 287.38 653.824"
     style="fill:#000000;fill-opacity:1;fill-rule:nonzero;stroke:none"
     id="path116946" />
  <path
     d="M 248.874 334.083 C 261.218 331.075 274.111 329.47 287.381 329.47 C 361.174 329.47 423.451 378.766 443.098 446.216 C 461.989 440.161 479.253 430.5 494.112 418.027 L 494.112 372.286 L 287.383 252.93 L 247.735 275.82 C 246.249 284.335 245.469 293.095 245.467 302.043 C 245.469 313.042 246.65 323.758 248.874 334.083"
     style="fill:#000000;fill-opacity:1;fill-rule:nonzero;stroke:none"
     id="path116950" />
  <path
     d="M 506.324 252.93 L 407.648 309.899 L 455.585 337.575 C 471.547 332.323 488.601 329.47 506.321 329.47 C 595.888 329.47 668.498 402.084 668.498 491.649 C 668.498 581.216 595.888 653.822 506.321 653.822 C 488.599 653.822 471.544 650.969 455.58 645.716 L 407.643 673.393 L 506.324 730.365 L 713.053 611.005 L 713.053 372.287 Z"
     style="fill:#000000;fill-opacity:1;fill-rule:nonzero;stroke:none"
     id="path116954" />
  <path
     d="M 344.145 491.649 C 344.145 448.173 361.257 408.693 389.106 379.573 C 374.73 366.511 357.83 356.191 339.224 349.404 L 299.585 372.287 L 299.585 611.006 L 339.252 633.906 C 357.85 627.121 374.733 616.779 389.109 603.725 C 361.257 574.605 344.145 535.125 344.145 491.649"
     style="fill:#000000;fill-opacity:1;fill-rule:nonzero;stroke:none"
     id="path116958" />
  <path
     d="M 234.671 302.042 C 234.671 212.477 307.283 139.864 396.848 139.864 C 475.066 139.864 540.352 195.245 555.638 268.933 L 603.579 296.615 L 603.579 182.681 L 396.851 63.3239 L 190.111 182.681 L 190.111 421.4 L 288.787 478.371 L 288.787 422.96 C 255.58 393.262 234.671 350.098 234.671 302.042"
     style="fill:#000000;fill-opacity:1;fill-rule:nonzero;stroke:none"
     id="path116962" />
  <path
     d="M 396.848 464.22 C 383.581 464.22 370.689 462.613 358.348 459.608 C 356.123 469.933 354.941 480.649 354.939 491.649 C 354.941 500.595 355.721 509.359 357.208 517.868 L 396.851 540.758 L 603.579 421.401 L 603.579 375.656 C 588.721 363.183 571.457 353.52 552.568 347.467 C 532.922 414.924 470.644 464.22 396.848 464.22"
     style="fill:#000000;fill-opacity:1;fill-rule:nonzero;stroke:none"
     id="path116966" />
</svg>
