<?xml version="1.0" encoding="UTF-8" standalone="no"?>
<!-- Created with Inkscape (http://www.inkscape.org/) -->

<svg
   version="1.1"
   id="svg115426"
   width="795.03467"
   height="793.70135"
   viewBox="0 0 795.03467 793.70135"
   sodipodi:docname="Mochiai Mitsumori Kikkouni Hanakaku.svg"
   inkscape:version="1.2 (dc2aeda, 2022-05-15)"
   xmlns:inkscape="http://www.inkscape.org/namespaces/inkscape"
   xmlns:sodipodi="http://sodipodi.sourceforge.net/DTD/sodipodi-0.dtd"
   xmlns="http://www.w3.org/2000/svg"
   xmlns:svg="http://www.w3.org/2000/svg">
  <defs
     id="defs115430">
    <clipPath
       clipPathUnits="userSpaceOnUse"
       id="clipPath116201">
      <path
         d="m -297.6357,237.8839 h 596.276 v -595.276 h -596.276 z"
         id="path116203"
         style="stroke-width:0.999998" />
    </clipPath>
    <clipPath
       clipPathUnits="userSpaceOnUse"
       id="clipPath116207">
      <path
         d="m -331.7949,203.7238 h 596.276 v -595.276 h -596.276 z"
         id="path116209"
         style="stroke-width:0.999998" />
    </clipPath>
    <clipPath
       clipPathUnits="userSpaceOnUse"
       id="clipPath116213">
      <path
         d="m -263.4746,203.7238 h 596.276 v -595.276 h -596.276 z"
         id="path116215"
         style="stroke-width:0.999998" />
    </clipPath>
    <clipPath
       clipPathUnits="userSpaceOnUse"
       id="clipPath116219">
      <path
         d="m -373.5322,246.9825 h 596.276 v -595.276 h -596.276 z"
         id="path116221"
         style="stroke-width:0.999998" />
    </clipPath>
    <clipPath
       clipPathUnits="userSpaceOnUse"
       id="clipPath116225">
      <path
         d="m -198.4902,392.6803 h 596.276 v -595.276 h -596.276 z"
         id="path116227"
         style="stroke-width:0.999998" />
    </clipPath>
    <clipPath
       clipPathUnits="userSpaceOnUse"
       id="clipPath116232">
      <path
         d="m -188.627,358.5221 h 596.276 v -595.276 h -596.276 z"
         id="path116234"
         style="stroke-width:0.999998" />
    </clipPath>
    <clipPath
       clipPathUnits="userSpaceOnUse"
       id="clipPath116238">
      <path
         d="m -188.627,426.8405 h 596.276 v -595.276 h -596.276 z"
         id="path116240"
         style="stroke-width:0.999998" />
    </clipPath>
    <clipPath
       clipPathUnits="userSpaceOnUse"
       id="clipPath116244">
      <path
         d="m -222.7861,392.6803 h 596.276 v -595.276 h -596.276 z"
         id="path116246"
         style="stroke-width:0.999998" />
    </clipPath>
    <clipPath
       clipPathUnits="userSpaceOnUse"
       id="clipPath116250">
      <path
         d="m -154.4658,392.6803 h 596.27601 v -595.276 H -154.4658 Z"
         id="path116252"
         style="stroke-width:0.999998" />
    </clipPath>
    <clipPath
       clipPathUnits="userSpaceOnUse"
       id="clipPath116256">
      <path
         d="m -264.5244,435.9381 h 596.276 v -595.276 h -596.276 z"
         id="path116258"
         style="stroke-width:0.999998" />
    </clipPath>
    <clipPath
       clipPathUnits="userSpaceOnUse"
       id="clipPath116262">
      <path
         d="m -416.7627,392.6803 h 596.276 v -595.276 h -596.276 z"
         id="path116264"
         style="stroke-width:0.999998" />
    </clipPath>
    <clipPath
       clipPathUnits="userSpaceOnUse"
       id="clipPath116269">
      <path
         d="m -406.8994,358.5221 h 596.276 v -595.276 h -596.276 z"
         id="path116271"
         style="stroke-width:0.999998" />
    </clipPath>
    <clipPath
       clipPathUnits="userSpaceOnUse"
       id="clipPath116275">
      <path
         d="m -406.8994,426.8405 h 596.276 v -595.276 h -596.276 z"
         id="path116277"
         style="stroke-width:0.999998" />
    </clipPath>
    <clipPath
       clipPathUnits="userSpaceOnUse"
       id="clipPath116281">
      <path
         d="m -441.0596,392.6803 h 596.276 v -595.276 h -596.276 z"
         id="path116283"
         style="stroke-width:0.999998" />
    </clipPath>
    <clipPath
       clipPathUnits="userSpaceOnUse"
       id="clipPath116287">
      <path
         d="m -372.7393,392.6803 h 596.276 v -595.276 h -596.276 z"
         id="path116289"
         style="stroke-width:0.999998" />
    </clipPath>
    <clipPath
       clipPathUnits="userSpaceOnUse"
       id="clipPath116293">
      <path
         d="m -482.7979,435.9381 h 596.276 v -595.276 h -596.276 z"
         id="path116295"
         style="stroke-width:0.999998" />
    </clipPath>
    <clipPath
       clipPathUnits="userSpaceOnUse"
       id="clipPath116299">
      <path
         d="M -497.1338,444.2155 H 99.142202 v -595.276 H -497.1338 Z"
         id="path116301"
         style="stroke-width:0.999998" />
    </clipPath>
    <clipPath
       clipPathUnits="userSpaceOnUse"
       id="clipPath116305">
      <path
         d="M -531.1924,581.5885 H 65.083599 V -13.6875 H -531.1924 Z"
         id="path116307"
         style="stroke-width:0.999998" />
    </clipPath>
    <clipPath
       clipPathUnits="userSpaceOnUse"
       id="clipPath116311">
      <path
         d="M -548.9834,585.8522 H 47.292601 V -9.4238027 H -548.9834 Z"
         id="path116313"
         style="stroke-width:0.999998" />
    </clipPath>
    <clipPath
       clipPathUnits="userSpaceOnUse"
       id="clipPath116317">
      <path
         d="M -553.8975,585.8483 H 42.378504 V -9.4277027 H -553.8975 Z"
         id="path116319"
         style="stroke-width:0.999998" />
    </clipPath>
    <clipPath
       clipPathUnits="userSpaceOnUse"
       id="clipPath116323">
      <path
         d="M -557.0645,585.8483 H 39.211501 V -9.4277027 H -557.0645 Z"
         id="path116325"
         style="stroke-width:0.999998" />
    </clipPath>
    <clipPath
       clipPathUnits="userSpaceOnUse"
       id="clipPath116329">
      <path
         d="M -545.417,584.5729 H 50.859001 V -10.7031 H -545.417 Z"
         id="path116331"
         style="stroke-width:0.999998" />
    </clipPath>
    <clipPath
       clipPathUnits="userSpaceOnUse"
       id="clipPath116335">
      <path
         d="M -528.0898,575.3815 H 68.186199 V -19.8945 H -528.0898 Z"
         id="path116337"
         style="stroke-width:0.999998" />
    </clipPath>
    <clipPath
       clipPathUnits="userSpaceOnUse"
       id="clipPath116341">
      <path
         d="M -542.9326,584.5729 H 53.343399 V -10.7031 H -542.9326 Z"
         id="path116343"
         style="stroke-width:0.999998" />
    </clipPath>
    <clipPath
       clipPathUnits="userSpaceOnUse"
       id="clipPath116347">
      <path
         d="M -540.8213,585.8483 H 55.454701 V -9.4277027 H -540.8213 Z"
         id="path116349"
         style="stroke-width:0.999998" />
    </clipPath>
    <clipPath
       clipPathUnits="userSpaceOnUse"
       id="clipPath116353">
      <path
         d="M -536.6982,584.5729 H 59.577804 V -10.7031 H -536.6982 Z"
         id="path116355"
         style="stroke-width:0.999998" />
    </clipPath>
    <clipPath
       clipPathUnits="userSpaceOnUse"
       id="clipPath116359">
      <path
         d="M -561.4131,585.8522 H 34.862903 V -9.4238027 H -561.4131 Z"
         id="path116361"
         style="stroke-width:0.999998" />
    </clipPath>
    <clipPath
       clipPathUnits="userSpaceOnUse"
       id="clipPath116365">
      <path
         d="M -564.5732,585.8483 H 31.702801 V -9.4277027 H -564.5732 Z"
         id="path116367"
         style="stroke-width:0.999998" />
    </clipPath>
    <clipPath
       clipPathUnits="userSpaceOnUse"
       id="clipPath116371">
      <path
         d="M -567.7754,585.8522 H 28.500601 V -9.4238027 H -567.7754 Z"
         id="path116373"
         style="stroke-width:0.999998" />
    </clipPath>
    <clipPath
       clipPathUnits="userSpaceOnUse"
       id="clipPath116378">
      <path
         d="M -572.8174,586.1354 H 23.458606 V -9.1406027 H -572.8174 Z"
         id="path116380"
         style="stroke-width:0.999998" />
    </clipPath>
    <clipPath
       clipPathUnits="userSpaceOnUse"
       id="clipPath116384">
      <path
         d="M -574.5459,585.8522 H 21.730103 V -9.4238027 H -574.5459 Z"
         id="path116386"
         style="stroke-width:0.999998" />
    </clipPath>
    <clipPath
       clipPathUnits="userSpaceOnUse"
       id="clipPath116390">
      <path
         d="M -576.3691,585.5885 H 19.906905 V -9.6875027 H -576.3691 Z"
         id="path116392"
         style="stroke-width:0.999998" />
    </clipPath>
    <clipPath
       clipPathUnits="userSpaceOnUse"
       id="clipPath116396">
      <path
         d="M -557.4951,577.8502 H 38.780903 V -17.4258 H -557.4951 Z"
         id="path116398"
         style="stroke-width:0.999998" />
    </clipPath>
    <clipPath
       clipPathUnits="userSpaceOnUse"
       id="clipPath116402">
      <path
         d="M -568.2266,575.819 H 28.049401 V -19.457003 H -568.2266 Z"
         id="path116404"
         style="stroke-width:0.999998" />
    </clipPath>
    <clipPath
       clipPathUnits="userSpaceOnUse"
       id="clipPath116408">
      <path
         d="M -550.2637,577.3248 H 46.012306 V -17.951198 H -550.2637 Z"
         id="path116410"
         style="stroke-width:0.999998" />
    </clipPath>
    <clipPath
       clipPathUnits="userSpaceOnUse"
       id="clipPath116415">
      <path
         d="M -556.4014,578.0143 H 39.874606 V -17.2617 H -556.4014 Z"
         id="path116417"
         style="stroke-width:0.999998" />
    </clipPath>
    <clipPath
       clipPathUnits="userSpaceOnUse"
       id="clipPath116421">
      <path
         d="M -586.5449,579.5026 H 9.7311002 V -15.7734 H -586.5449 Z"
         id="path116423"
         style="stroke-width:0.999998" />
    </clipPath>
    <clipPath
       clipPathUnits="userSpaceOnUse"
       id="clipPath116427">
      <path
         d="M -584.1943,578.9381 H 12.081705 V -16.337903 H -584.1943 Z"
         id="path116429"
         style="stroke-width:0.999998" />
    </clipPath>
    <clipPath
       clipPathUnits="userSpaceOnUse"
       id="clipPath116433">
      <path
         d="M -538.2217,577.9479 H 58.054299 V -17.328098 H -538.2217 Z"
         id="path116435"
         style="stroke-width:0.999998" />
    </clipPath>
    <clipPath
       clipPathUnits="userSpaceOnUse"
       id="clipPath116439">
      <path
         d="m -307.499,203.7238 h 596.276 v -595.276 h -596.276 z"
         id="path116441"
         style="stroke-width:0.999998" />
    </clipPath>
    <clipPath
       clipPathUnits="userSpaceOnUse"
       id="clipPath116446">
      <path
         d="m -297.6357,169.5636 h 596.276 v -595.276 h -596.276 z"
         id="path116448"
         style="stroke-width:0.999998" />
    </clipPath>
  </defs>
  <sodipodi:namedview
     id="namedview115428"
     pagecolor="#ffffff"
     bordercolor="#000000"
     borderopacity="0.25"
     inkscape:showpageshadow="2"
     inkscape:pageopacity="0.0"
     inkscape:pagecheckerboard="0"
     inkscape:deskcolor="#d1d1d1"
     showgrid="false"
     inkscape:zoom="0.29734106"
     inkscape:cx="-215.24105"
     inkscape:cy="396.85068"
     inkscape:window-width="1419"
     inkscape:window-height="456"
     inkscape:window-x="0"
     inkscape:window-y="25"
     inkscape:window-maximized="0"
     inkscape:current-layer="svg115426">
    <inkscape:page
       x="0"
       y="0"
       id="page115432"
       width="795.03467"
       height="793.70135" />
  </sodipodi:namedview>
  <path
     d="M 409.999 271.632 C 409.999 278.897 404.111 284.785 396.846 284.785 C 389.582 284.785 383.692 278.897 383.692 271.632 C 383.692 264.368 389.582 258.479 396.846 258.479 C 404.111 258.479 409.999 264.368 409.999 271.632"
     style="fill:#000000;fill-opacity:1;fill-rule:nonzero;stroke:none"
     id="path115546" />
  <path
     d="M 396.84506,266.36601 Z"
     style="fill:#000000;fill-opacity:1;fill-rule:nonzero;stroke:none;stroke-width:1.33333"
     id="path115550" />
  <path
     d="M 396.848 226.085 C 398.619 226.085 400.053 227.52 400.053 229.289 L 400.053 252.332 C 403.067 252.828 405.848 254.012 408.228 255.718 L 435.46 228.486 C 443.379 220.405 443.255 207.43 435.172 199.51 C 430.265 194.702 423.559 192.861 417.269 193.965 C 416.447 183.408 407.619 175.096 396.848 175.096 C 386.075 175.096 377.248 183.408 376.424 193.965 C 370.135 192.861 363.428 194.702 358.521 199.51 C 350.439 207.43 350.315 220.405 358.233 228.486 L 385.465 255.718 C 387.848 254.012 390.627 252.828 393.64 252.332 L 393.64 229.289 C 393.64 227.52 395.077 226.085 396.848 226.085"
     style="fill:#000000;fill-opacity:1;fill-rule:nonzero;stroke:none"
     id="path115554" />
  <path
     d="M 396.848 317.179 C 398.619 317.179 400.053 315.744 400.053 313.974 L 400.053 290.934 C 403.067 290.436 405.848 289.252 408.228 287.547 L 435.46 314.779 C 443.379 322.859 443.255 335.834 435.172 343.755 C 430.265 348.563 423.559 350.403 417.269 349.299 C 416.447 359.856 407.619 368.168 396.848 368.168 C 386.075 368.168 377.248 359.856 376.424 349.299 C 370.135 350.403 363.428 348.563 358.521 343.755 C 350.439 335.834 350.315 322.859 358.233 314.779 L 385.465 287.547 C 387.848 289.252 390.627 290.436 393.64 290.934 L 393.64 313.974 C 393.64 315.744 395.077 317.179 396.848 317.179"
     style="fill:#000000;fill-opacity:1;fill-rule:nonzero;stroke:none"
     id="path115558" />
  <path
     d="M 442.393 271.632 C 442.393 269.863 440.958 268.427 439.188 268.427 L 416.148 268.427 C 415.649 265.413 414.468 262.632 412.758 260.252 L 439.992 233.019 C 448.074 225.101 461.048 225.225 468.968 233.307 C 473.774 238.215 475.616 244.923 474.512 251.211 C 485.072 252.033 493.381 260.861 493.381 271.632 C 493.381 282.404 485.072 291.233 474.512 292.056 C 475.616 298.345 473.774 305.051 468.968 309.959 C 461.048 318.041 448.074 318.165 439.992 310.247 L 412.758 283.015 C 414.468 280.633 415.649 277.853 416.148 274.84 L 439.188 274.84 C 440.958 274.84 442.393 273.405 442.393 271.632"
     style="fill:#000000;fill-opacity:1;fill-rule:nonzero;stroke:none"
     id="path115562" />
  <path
     d="M 351.299 271.632 C 351.299 269.863 352.734 268.427 354.503 268.427 L 377.544 268.427 C 378.04 265.413 379.226 262.632 380.931 260.252 L 353.702 233.019 C 345.618 225.101 332.644 225.225 324.724 233.307 C 319.918 238.215 318.076 244.923 319.18 251.211 C 308.62 252.033 300.308 260.861 300.308 271.632 C 300.308 282.404 308.62 291.233 319.18 292.056 C 318.076 298.345 319.918 305.051 324.724 309.959 C 332.644 318.041 345.618 318.165 353.702 310.247 L 380.931 283.015 C 379.226 280.633 378.04 277.853 377.544 274.84 L 354.503 274.84 C 352.734 274.84 351.299 273.405 351.299 271.632"
     style="fill:#000000;fill-opacity:1;fill-rule:nonzero;stroke:none"
     id="path115566" />
  <path
     d="M 498.043 329.31 L 396.85 387.735 L 295.648 329.31 L 295.648 212.454 L 396.85 154.025 L 498.043 212.454 Z M 396.85 143.746 L 286.746 207.314 L 286.746 334.449 L 396.85 398.014 L 506.947 334.449 L 506.947 207.314 Z"
     style="fill:#000000;fill-opacity:1;fill-rule:nonzero;stroke:none"
     id="path115570" />
  <path
     d="M 264.654 523.574 C 264.654 530.839 258.766 536.73 251.502 536.73 C 244.237 536.73 238.349 530.839 238.349 523.574 C 238.349 516.311 244.237 510.421 251.502 510.421 C 258.766 510.421 264.654 516.311 264.654 523.574"
     style="fill:#000000;fill-opacity:1;fill-rule:nonzero;stroke:none"
     id="path115574" />
  <path
     d="M 251.50133,518.30814 Z"
     style="fill:#000000;fill-opacity:1;fill-rule:nonzero;stroke:none;stroke-width:1.33333"
     id="path115578" />
  <path
     d="M 251.503 478.029 C 253.272 478.029 254.71 479.461 254.71 481.232 L 254.71 504.272 C 257.72 504.769 260.502 505.953 262.884 507.66 L 290.116 480.428 C 298.035 472.346 297.911 459.373 289.827 451.45 C 284.92 446.644 278.214 444.802 271.924 445.909 C 271.102 435.349 262.272 427.037 251.503 427.037 C 240.731 427.037 231.903 435.349 231.08 445.909 C 224.791 444.802 218.083 446.644 213.176 451.45 C 205.095 459.373 204.97 472.346 212.89 480.428 L 240.122 507.66 C 242.502 505.953 245.283 504.769 248.296 504.272 L 248.296 481.232 C 248.296 479.461 249.731 478.029 251.503 478.029"
     style="fill:#000000;fill-opacity:1;fill-rule:nonzero;stroke:none"
     id="path115582" />
  <path
     d="M 251.503 569.121 C 253.272 569.121 254.71 567.686 254.71 565.916 L 254.71 542.876 C 257.72 542.378 260.502 541.194 262.884 539.488 L 290.116 566.72 C 298.035 574.801 297.911 587.777 289.827 595.697 C 284.92 600.504 278.214 602.342 271.924 601.241 C 271.102 611.798 262.272 620.11 251.503 620.11 C 240.731 620.11 231.903 611.798 231.08 601.241 C 224.791 602.342 218.083 600.504 213.176 595.697 C 205.095 587.777 204.97 574.801 212.89 566.72 L 240.122 539.488 C 242.502 541.194 245.283 542.378 248.296 542.876 L 248.296 565.916 C 248.296 567.686 249.731 569.121 251.503 569.121"
     style="fill:#000000;fill-opacity:1;fill-rule:nonzero;stroke:none"
     id="path115586" />
  <path
     d="M 297.048 523.574 C 297.048 521.803 295.613 520.369 293.843 520.369 L 270.803 520.369 C 270.305 517.355 269.121 514.574 267.415 512.194 L 294.647 484.962 C 302.729 477.043 315.704 477.165 323.624 485.249 C 328.431 490.157 330.272 496.863 329.168 503.153 C 339.728 503.975 348.037 512.803 348.037 523.574 C 348.037 534.345 339.728 543.175 329.168 543.998 C 330.272 550.285 328.431 556.993 323.624 561.902 C 315.704 569.983 302.729 570.107 294.647 562.189 L 267.415 534.957 C 269.121 532.574 270.305 529.793 270.803 526.782 L 293.843 526.782 C 295.613 526.782 297.048 525.345 297.048 523.574"
     style="fill:#000000;fill-opacity:1;fill-rule:nonzero;stroke:none"
     id="path115590" />
  <path
     d="M 205.954 523.574 C 205.954 521.803 207.389 520.369 209.158 520.369 L 232.199 520.369 C 232.697 517.355 233.881 514.574 235.586 512.194 L 208.355 484.962 C 200.274 477.043 187.299 477.165 179.379 485.249 C 174.571 490.157 172.731 496.863 173.834 503.153 C 163.274 503.975 154.965 512.803 154.965 523.574 C 154.965 534.345 163.274 543.175 173.834 543.998 C 172.731 550.285 174.571 556.993 179.379 561.902 C 187.299 569.983 200.274 570.107 208.355 562.189 L 235.586 534.957 C 233.881 532.574 232.697 529.793 232.199 526.782 L 209.158 526.782 C 207.389 526.782 205.954 525.345 205.954 523.574"
     style="fill:#000000;fill-opacity:1;fill-rule:nonzero;stroke:none"
     id="path115594" />
  <path
     d="M 352.699 581.251 L 251.505 639.675 L 150.304 581.251 L 150.304 464.397 L 251.505 405.967 L 352.699 464.397 Z M 251.505 395.691 L 141.402 459.257 L 141.402 586.39 L 251.505 649.956 L 361.603 586.39 L 361.603 459.257 Z"
     style="fill:#000000;fill-opacity:1;fill-rule:nonzero;stroke:none"
     id="path115598" />
  <path
     d="M 555.684 523.574 C 555.684 530.839 549.796 536.73 542.533 536.73 C 535.267 536.73 529.377 530.839 529.377 523.574 C 529.377 516.311 535.267 510.421 542.533 510.421 C 549.796 510.421 555.684 516.311 555.684 523.574"
     style="fill:#000000;fill-opacity:1;fill-rule:nonzero;stroke:none"
     id="path115602" />
  <path
     d="M 542.53252,518.30814 Z"
     style="fill:#000000;fill-opacity:1;fill-rule:nonzero;stroke:none;stroke-width:1.33333"
     id="path115606" />
  <path
     d="M 542.533 478.029 C 544.304 478.029 545.738 479.461 545.738 481.232 L 545.738 504.272 C 548.752 504.769 551.533 505.953 553.916 507.66 L 581.148 480.428 C 589.064 472.346 588.942 459.373 580.858 451.45 C 575.952 446.644 569.244 444.802 562.956 445.909 C 562.133 435.349 553.304 427.037 542.533 427.037 C 531.762 427.037 522.934 435.349 522.109 445.909 C 515.822 444.802 509.114 446.644 504.208 451.45 C 496.124 459.373 496 472.346 503.921 480.428 L 531.153 507.66 C 533.533 505.953 536.313 504.769 539.328 504.272 L 539.328 481.232 C 539.328 479.461 540.762 478.029 542.533 478.029"
     style="fill:#000000;fill-opacity:1;fill-rule:nonzero;stroke:none"
     id="path115610" />
  <path
     d="M 542.533 569.121 C 544.304 569.121 545.738 567.686 545.738 565.916 L 545.738 542.876 C 548.752 542.378 551.533 541.194 553.916 539.488 L 581.148 566.72 C 589.064 574.801 588.942 587.777 580.858 595.697 C 575.952 600.504 569.244 602.342 562.956 601.241 C 562.133 611.798 553.304 620.11 542.533 620.11 C 531.762 620.11 522.934 611.798 522.109 601.241 C 515.822 602.342 509.114 600.504 504.208 595.697 C 496.124 587.777 496 574.801 503.921 566.72 L 531.153 539.488 C 533.533 541.194 536.313 542.378 539.328 542.876 L 539.328 565.916 C 539.328 567.686 540.762 569.121 542.533 569.121"
     style="fill:#000000;fill-opacity:1;fill-rule:nonzero;stroke:none"
     id="path115614" />
  <path
     d="M 588.079 523.574 C 588.079 521.803 586.644 520.369 584.874 520.369 L 561.834 520.369 C 561.336 517.355 560.152 514.574 558.444 512.194 L 585.678 484.962 C 593.759 477.043 606.732 477.165 614.655 485.249 C 619.462 490.157 621.3 496.863 620.199 503.153 C 630.756 503.975 639.068 512.803 639.068 523.574 C 639.068 534.345 630.756 543.175 620.199 543.998 C 621.3 550.285 619.462 556.993 614.655 561.902 C 606.732 569.983 593.759 570.107 585.678 562.189 L 558.444 534.957 C 560.152 532.574 561.336 529.793 561.834 526.782 L 584.874 526.782 C 586.644 526.782 588.079 525.345 588.079 523.574"
     style="fill:#000000;fill-opacity:1;fill-rule:nonzero;stroke:none"
     id="path115618" />
  <path
     d="M 496.986 523.574 C 496.986 521.803 498.421 520.369 500.19 520.369 L 523.231 520.369 C 523.729 517.355 524.913 514.574 526.617 512.194 L 499.387 484.962 C 491.305 477.043 478.331 477.165 470.41 485.249 C 465.603 490.157 463.762 496.863 464.866 503.153 C 454.307 503.975 445.997 512.803 445.997 523.574 C 445.997 534.345 454.307 543.175 464.866 543.998 C 463.762 550.285 465.603 556.993 470.41 561.902 C 478.331 569.983 491.305 570.107 499.387 562.189 L 526.617 534.957 C 524.913 532.574 523.729 529.793 523.231 526.782 L 500.19 526.782 C 498.421 526.782 496.986 525.345 496.986 523.574"
     style="fill:#000000;fill-opacity:1;fill-rule:nonzero;stroke:none"
     id="path115622" />
  <path
     d="M 643.731 581.251 L 542.537 639.675 L 441.336 581.251 L 441.336 464.397 L 542.537 405.967 L 643.731 464.397 Z M 542.537 395.691 L 432.434 459.257 L 432.434 586.39 L 542.537 649.956 L 652.632 586.39 L 652.632 459.257 Z"
     style="fill:#000000;fill-opacity:1;fill-rule:nonzero;stroke:none"
     id="path115626" />
  <path
     d="M 662.845 592.287 L 542.536 661.748 L 422.222 592.287 L 422.222 453.361 L 542.536 383.9 L 662.845 453.361 Z M 276.537 340.145 L 276.537 201.419 L 396.851 131.955 L 517.159 201.419 L 517.159 340.344 L 397.018 409.706 Z M 371.815 592.287 L 251.505 661.748 L 131.193 592.287 L 131.193 453.361 L 251.335 384 L 251.505 383.9 L 371.815 453.457 Z M 567.565 340.144 L 567.565 172.317 L 396.851 73.7523 L 226.13 172.317 L 226.13 340.344 L 80.7838 424.259 L 80.7838 621.388 L 251.505 719.951 L 397.018 635.94 L 542.536 719.951 L 713.252 621.388 L 713.252 424.259 Z"
     style="fill:#000000;fill-opacity:1;fill-rule:nonzero;stroke:none"
     id="path115630" />
</svg>
