<?xml version="1.0" encoding="UTF-8" standalone="no"?>
<!-- Created with Inkscape (http://www.inkscape.org/) -->

<svg
   version="1.1"
   id="svg13819"
   width="795.03467"
   height="793.70135"
   viewBox="0 0 795.03467 793.70135"
   sodipodi:docname="Futoigetani Hanabishi.svg"
   inkscape:version="1.2 (dc2aeda, 2022-05-15)"
   xmlns:inkscape="http://www.inkscape.org/namespaces/inkscape"
   xmlns:sodipodi="http://sodipodi.sourceforge.net/DTD/sodipodi-0.dtd"
   xmlns="http://www.w3.org/2000/svg"
   xmlns:svg="http://www.w3.org/2000/svg">
  <defs
     id="defs13823">
    <clipPath
       clipPathUnits="userSpaceOnUse"
       id="clipPath14335">
      <path
         d="M -542.9326,584.5729 H 53.343402 V -10.7031 H -542.9326 Z"
         id="path14337"
         style="stroke-width:0.999998" />
    </clipPath>
    <clipPath
       clipPathUnits="userSpaceOnUse"
       id="clipPath14341">
      <path
         d="M -545.417,584.5729 H 50.859002 V -10.7031 H -545.417 Z"
         id="path14343"
         style="stroke-width:0.999998" />
    </clipPath>
    <clipPath
       clipPathUnits="userSpaceOnUse"
       id="clipPath14347">
      <path
         d="M -548.9834,585.8522 H 47.292602 V -9.4238 H -548.9834 Z"
         id="path14349"
         style="stroke-width:0.999998" />
    </clipPath>
    <clipPath
       clipPathUnits="userSpaceOnUse"
       id="clipPath14353">
      <path
         d="M -528.0898,575.3815 H 68.186202 V -19.8945 H -528.0898 Z"
         id="path14355"
         style="stroke-width:0.999998" />
    </clipPath>
    <clipPath
       clipPathUnits="userSpaceOnUse"
       id="clipPath14359">
      <path
         d="M -536.6982,584.5729 H 59.577802 V -10.7031 H -536.6982 Z"
         id="path14361"
         style="stroke-width:0.999998" />
    </clipPath>
    <clipPath
       clipPathUnits="userSpaceOnUse"
       id="clipPath14365">
      <path
         d="M -540.8213,585.8483 H 55.454702 V -9.4277 H -540.8213 Z"
         id="path14367"
         style="stroke-width:0.999998" />
    </clipPath>
    <clipPath
       clipPathUnits="userSpaceOnUse"
       id="clipPath14371">
      <path
         d="M -557.0645,585.8483 H 39.211502 V -9.4277 H -557.0645 Z"
         id="path14373"
         style="stroke-width:0.999998" />
    </clipPath>
    <clipPath
       clipPathUnits="userSpaceOnUse"
       id="clipPath14377">
      <path
         d="M -531.1924,581.5885 H 65.083602 V -13.6875 H -531.1924 Z"
         id="path14379"
         style="stroke-width:0.999998" />
    </clipPath>
    <clipPath
       clipPathUnits="userSpaceOnUse"
       id="clipPath14383">
      <path
         d="M -553.8975,585.8483 H 42.378502 V -9.4277 H -553.8975 Z"
         id="path14385"
         style="stroke-width:0.999998" />
    </clipPath>
    <clipPath
       clipPathUnits="userSpaceOnUse"
       id="clipPath14389">
      <path
         d="M -561.4131,585.8522 H 34.862902 V -9.4238 H -561.4131 Z"
         id="path14391"
         style="stroke-width:0.999998" />
    </clipPath>
    <clipPath
       clipPathUnits="userSpaceOnUse"
       id="clipPath14395">
      <path
         d="M -564.5732,585.8483 H 31.702802 V -9.4277 H -564.5732 Z"
         id="path14397"
         style="stroke-width:0.999998" />
    </clipPath>
    <clipPath
       clipPathUnits="userSpaceOnUse"
       id="clipPath14401">
      <path
         d="M -567.7754,585.8522 H 28.500602 V -9.4238 H -567.7754 Z"
         id="path14403"
         style="stroke-width:0.999998" />
    </clipPath>
    <clipPath
       clipPathUnits="userSpaceOnUse"
       id="clipPath14408">
      <path
         d="M -572.8174,586.1354 H 23.458602 V -9.1406 H -572.8174 Z"
         id="path14410"
         style="stroke-width:0.999998" />
    </clipPath>
    <clipPath
       clipPathUnits="userSpaceOnUse"
       id="clipPath14414">
      <path
         d="M -574.5459,585.8522 H 21.730102 V -9.4238 H -574.5459 Z"
         id="path14416"
         style="stroke-width:0.999998" />
    </clipPath>
    <clipPath
       clipPathUnits="userSpaceOnUse"
       id="clipPath14420">
      <path
         d="M -576.3691,585.5885 H 19.906902 V -9.6875 H -576.3691 Z"
         id="path14422"
         style="stroke-width:0.999998" />
    </clipPath>
    <clipPath
       clipPathUnits="userSpaceOnUse"
       id="clipPath14426">
      <path
         d="M -557.4951,577.8502 H 38.780902 V -17.4258 H -557.4951 Z"
         id="path14428"
         style="stroke-width:0.999998" />
    </clipPath>
    <clipPath
       clipPathUnits="userSpaceOnUse"
       id="clipPath14432">
      <path
         d="M -568.2266,575.819 H 28.049402 V -19.457 H -568.2266 Z"
         id="path14434"
         style="stroke-width:0.999998" />
    </clipPath>
    <clipPath
       clipPathUnits="userSpaceOnUse"
       id="clipPath14438">
      <path
         d="M -550.2637,577.3248 H 46.012302 V -17.9512 H -550.2637 Z"
         id="path14440"
         style="stroke-width:0.999998" />
    </clipPath>
    <clipPath
       clipPathUnits="userSpaceOnUse"
       id="clipPath14445">
      <path
         d="M -556.4014,578.0143 H 39.874602 V -17.2617 H -556.4014 Z"
         id="path14447"
         style="stroke-width:0.999998" />
    </clipPath>
    <clipPath
       clipPathUnits="userSpaceOnUse"
       id="clipPath14451">
      <path
         d="M -586.5449,579.5026 H 9.7311024 V -15.7734 H -586.5449 Z"
         id="path14453"
         style="stroke-width:0.999998" />
    </clipPath>
    <clipPath
       clipPathUnits="userSpaceOnUse"
       id="clipPath14457">
      <path
         d="M -584.1943,578.9381 H 12.081702 V -16.3379 H -584.1943 Z"
         id="path14459"
         style="stroke-width:0.999998" />
    </clipPath>
    <clipPath
       clipPathUnits="userSpaceOnUse"
       id="clipPath14463">
      <path
         d="M -538.2217,577.9479 H 58.054302 V -17.3281 H -538.2217 Z"
         id="path14465"
         style="stroke-width:0.999998" />
    </clipPath>
    <clipPath
       clipPathUnits="userSpaceOnUse"
       id="clipPath14469">
      <path
         d="m -281.0381,241.8024 h 596.276 v -595.276 h -596.276 z"
         id="path14471"
         style="stroke-width:0.999998" />
    </clipPath>
  </defs>
  <sodipodi:namedview
     id="namedview13821"
     pagecolor="#ffffff"
     bordercolor="#000000"
     borderopacity="0.25"
     inkscape:showpageshadow="2"
     inkscape:pageopacity="0.0"
     inkscape:pagecheckerboard="0"
     inkscape:deskcolor="#d1d1d1"
     showgrid="false"
     inkscape:zoom="0.29734106"
     inkscape:cx="-215.24105"
     inkscape:cy="396.85068"
     inkscape:window-width="1419"
     inkscape:window-height="456"
     inkscape:window-x="0"
     inkscape:window-y="25"
     inkscape:window-maximized="0"
     inkscape:current-layer="svg13819">
    <inkscape:page
       x="0"
       y="0"
       id="page13825"
       width="795.03467"
       height="793.70135" />
  </sodipodi:namedview>
  <path
     d="m 374.716,322.404 -0.041,1.802 -1.735,-0.505 c -1.866,-0.54 -3.812,-0.824 -5.765,-0.824 -3.467,0.005 -6.975,0.873 -10.196,2.727 -6.645,3.797 -10.356,10.734 -10.364,17.873 0,3.462 0.875,6.968 2.721,10.197 1.354,2.363 3.083,4.355 5.071,5.917 l 27.263,20.784 c 3.08,-2.833 6.978,-4.826 11.286,-5.578 v -22.118 c 0,-2.14 1.734,-3.866 3.87,-3.872 2.141,0 3.874,1.732 3.874,3.872 v 22.118 c 4.306,0.752 8.199,2.745 11.284,5.576 l 27.251,-20.77 c 1.995,-1.574 3.732,-3.572 5.077,-5.929 1.85,-3.227 2.716,-6.735 2.716,-10.197 0,-7.139 -3.721,-14.084 -10.361,-17.873 -3.221,-1.848 -6.729,-2.722 -10.193,-2.722 -1.96,0 -3.9,0.279 -5.758,0.819 l -1.737,0.505 -0.039,-1.802 c -0.268,-11.984 -10.068,-21.62 -22.114,-21.62 -12.047,0 -21.842,9.636 -22.11,21.62 m 44.164,70.57 h 31.404 c 2.143,0 3.867,1.736 3.867,3.875 -0.003,2.13 -1.724,3.866 -3.867,3.866 H 418.88 c -0.396,2.282 -1.14,4.446 -2.174,6.436 l 34.825,26.586 c 4.3,3.038 9.543,4.817 15.213,4.817 13.743,0.005 25.024,-10.495 26.292,-23.9 l 0.123,-1.256 h 9.862 c 9.146,-0.016 16.542,-7.409 16.555,-16.549 -0.013,-9.139 -7.409,-16.539 -16.555,-16.555 h -9.862 l -0.123,-1.255 c -1.268,-13.406 -12.549,-23.904 -26.292,-23.898 -5.67,0 -10.913,1.781 -15.173,4.784 l -34.865,26.618 c 1.034,1.988 1.778,4.15 2.174,6.431 m 20.37,41.127 -27.266,-20.779 c -3.08,2.833 -6.981,4.827 -11.286,5.579 v 22.117 c 0,2.137 -1.731,3.867 -3.87,3.869 -2.14,0 -3.872,-1.732 -3.872,-3.869 v -22.117 c -4.31,-0.752 -8.204,-2.746 -11.286,-5.576 l -27.254,20.766 c -1.994,1.578 -3.726,3.575 -5.077,5.932 -1.847,3.227 -2.713,6.735 -2.713,10.195 0,7.141 3.718,14.084 10.358,17.876 3.222,1.848 6.732,2.721 10.194,2.721 1.965,0 3.9,-0.279 5.76,-0.821 l 1.74,-0.503 0.038,1.803 c 0.266,11.981 10.063,21.62 22.112,21.62 12.044,0 21.842,-9.639 22.112,-21.62 l 0.039,-1.803 1.735,0.503 c 1.866,0.542 3.809,0.826 5.765,0.826 3.467,-0.005 6.972,-0.873 10.193,-2.726 6.646,-3.798 10.359,-10.735 10.364,-17.876 0,-3.46 -0.869,-6.965 -2.721,-10.195 -1.351,-2.362 -3.083,-4.354 -5.065,-5.922 m -64.482,-33.38 h -31.401 c -2.14,0 -3.869,-1.734 -3.869,-3.872 0.008,-2.134 1.729,-3.87 3.869,-3.87 h 31.401 c 0.402,-2.278 1.143,-4.442 2.178,-6.433 L 342.12,359.958 c -4.302,-3.036 -9.542,-4.812 -15.21,-4.812 -13.743,-0.008 -25.024,10.492 -26.295,23.897 l -0.117,1.256 h -9.867 c -9.146,0.016 -16.54,7.41 -16.554,16.55 0.014,9.138 7.408,16.538 16.554,16.552 h 9.867 l 0.117,1.257 c 1.271,13.407 12.552,23.904 26.295,23.899 5.668,0 10.908,-1.784 15.173,-4.784 l 34.863,-26.619 c -1.035,-1.991 -1.776,-4.149 -2.178,-6.433 m 22.06,12.166 c 8.858,0 16.036,-7.178 16.036,-16.036 0,-8.86 -7.178,-16.038 -16.036,-16.038 -8.86,0 -16.036,7.178 -16.036,16.038 0,8.858 7.176,16.036 16.036,16.036 m 0.044,99.281 L 247.235,396.833 396.826,281.532 546.464,396.87 Z m 322.39,-115.301 41.372,-31.89 -86.84,-66.935 -41.376,31.889 -148.743,-114.653 41.372,-31.89 -86.841,-66.935 -41.375,31.891 -41.375,-31.893 -86.849,66.937 41.378,31.893 -148.7,114.617 -41.377,-31.893 -86.8467,66.937 41.3772,31.893 -41.3746,31.891 86.8441,66.934 41.372,-31.89 148.746,114.654 -41.375,31.888 86.844,66.937 41.372,-31.89 41.377,31.89 86.847,-66.937 -41.375,-31.89 148.7,-114.618 41.378,31.894 86.843,-66.94 z"
     style="fill:#000000;fill-opacity:1;fill-rule:nonzero;stroke:none"
     id="path13939" />
</svg>
