<?xml version="1.0" encoding="UTF-8" standalone="no"?>
<!-- Created with Inkscape (http://www.inkscape.org/) -->

<svg
   version="1.1"
   id="svg9950"
   width="793.70135"
   height="793.70135"
   viewBox="0 0 793.70135 793.70135"
   sodipodi:docname="Hosowari Mitsuwari Igeta.svg"
   inkscape:version="1.2 (dc2aeda, 2022-05-15)"
   xmlns:inkscape="http://www.inkscape.org/namespaces/inkscape"
   xmlns:sodipodi="http://sodipodi.sourceforge.net/DTD/sodipodi-0.dtd"
   xmlns="http://www.w3.org/2000/svg"
   xmlns:svg="http://www.w3.org/2000/svg">

  <sodipodi:namedview
     id="namedview9952"
     pagecolor="#ffffff"
     bordercolor="#000000"
     borderopacity="0.25"
     inkscape:showpageshadow="2"
     inkscape:pageopacity="0.0"
     inkscape:pagecheckerboard="0"
     inkscape:deskcolor="#d1d1d1"
     showgrid="false"
     inkscape:zoom="0.29734106"
     inkscape:cx="-215.24105"
     inkscape:cy="396.85068"
     inkscape:window-width="1419"
     inkscape:window-height="456"
     inkscape:window-x="0"
     inkscape:window-y="25"
     inkscape:window-maximized="0"
     inkscape:current-layer="svg9950">
    <inkscape:page
       x="0"
       y="0"
       id="page9956"
       width="793.70135"
       height="793.70135" />
  </sodipodi:namedview>
  <path
     d="m 705.65,291.782 -129.026,74.507 0,-67.197 -116.352,67.187 v 67.198 l -58.196,33.599 -0.009,134.356 58.194,-33.597 -0.013,148.988 c 41.276,-8.198 80.873,-24.327 116.354,-47.71 l 0.014,-168.462 145.893,-84.244 c 2.509,-42.422 -3.322,-84.778 -16.858,-124.625 M 391.61,467.068 333.414,433.469 v -67.2 L 217.063,299.085 217.061,366.279 88.0398,291.777 c -13.5387,39.844 -19.3666,82.2 -16.86,124.618 l 145.8872,84.243 0.011,168.467 c 35.485,23.386 75.081,39.518 116.357,47.715 l -0.011,-148.993 58.196,33.597 z M 571.405,290.04 513.213,256.441 642.244,181.957 c -27.736,-31.646 -61.503,-57.872 -99.492,-76.91 l -145.901,84.22 -145.902,-84.224 c -37.992,19.037 -71.761,45.264 -99.5,76.912 l 129.038,74.486 -58.196,33.599 116.363,67.171 58.194,-33.599 58.196,33.599 z M 396.848,733.518 C 210.906,733.51 60.1852,582.788 60.1705,396.845 60.1852,210.906 210.906,60.1948 396.848,60.1868 582.784,60.1948 733.51,210.906 733.519,396.845 733.51,582.788 582.784,733.51 396.848,733.518 m 0,-701.7871 C 195.188,31.7389 31.7306,195.19 31.7146,396.845 31.7306,598.504 195.188,761.964 396.848,761.974 598.5,761.964 761.965,598.504 761.975,396.845 761.965,195.19 598.5,31.7389 396.848,31.7309"
     style="fill:#000000;fill-opacity:1;fill-rule:nonzero;stroke:none"
     id="path10070" />
</svg>
