<?xml version="1.0" encoding="UTF-8" standalone="no"?>
<!-- Created with Inkscape (http://www.inkscape.org/) -->

<svg
   version="1.1"
   id="svg7177"
   width="795.03467"
   height="793.70135"
   viewBox="0 0 795.03467 793.70135"
   sodipodi:docname="Chuukage Ura Zakura.svg"
   inkscape:version="1.2 (dc2aeda, 2022-05-15)"
   xmlns:inkscape="http://www.inkscape.org/namespaces/inkscape"
   xmlns:sodipodi="http://sodipodi.sourceforge.net/DTD/sodipodi-0.dtd"
   xmlns="http://www.w3.org/2000/svg"
   xmlns:svg="http://www.w3.org/2000/svg">
  <defs
     id="defs7181">
    <clipPath
       clipPathUnits="userSpaceOnUse"
       id="clipPath7670">
      <path
         d="M -540.8213,585.8483 H 55.454701 V -9.4277027 H -540.8213 Z"
         id="path7672"
         style="stroke-width:0.999998" />
    </clipPath>
    <clipPath
       clipPathUnits="userSpaceOnUse"
       id="clipPath7676">
      <path
         d="M -564.5732,585.8483 H 31.702801 V -9.4277027 H -564.5732 Z"
         id="path7678"
         style="stroke-width:0.999998" />
    </clipPath>
    <clipPath
       clipPathUnits="userSpaceOnUse"
       id="clipPath7682">
      <path
         d="M -542.9326,584.5729 H 53.343399 V -10.7031 H -542.9326 Z"
         id="path7684"
         style="stroke-width:0.999998" />
    </clipPath>
    <clipPath
       clipPathUnits="userSpaceOnUse"
       id="clipPath7688">
      <path
         d="M -561.4131,585.8522 H 34.862903 V -9.4238027 H -561.4131 Z"
         id="path7690"
         style="stroke-width:0.999998" />
    </clipPath>
    <clipPath
       clipPathUnits="userSpaceOnUse"
       id="clipPath7694">
      <path
         d="M -553.8975,585.8483 H 42.378504 V -9.4277027 H -553.8975 Z"
         id="path7696"
         style="stroke-width:0.999998" />
    </clipPath>
    <clipPath
       clipPathUnits="userSpaceOnUse"
       id="clipPath7700">
      <path
         d="M -545.417,584.5729 H 50.859001 V -10.7031 H -545.417 Z"
         id="path7702"
         style="stroke-width:0.999998" />
    </clipPath>
    <clipPath
       clipPathUnits="userSpaceOnUse"
       id="clipPath7706">
      <path
         d="M -528.0898,575.3815 H 68.186199 V -19.8945 H -528.0898 Z"
         id="path7708"
         style="stroke-width:0.999998" />
    </clipPath>
    <clipPath
       clipPathUnits="userSpaceOnUse"
       id="clipPath7712">
      <path
         d="M -557.0645,585.8483 H 39.211501 V -9.4277027 H -557.0645 Z"
         id="path7714"
         style="stroke-width:0.999998" />
    </clipPath>
    <clipPath
       clipPathUnits="userSpaceOnUse"
       id="clipPath7718">
      <path
         d="M -548.9834,585.8522 H 47.292601 V -9.4238027 H -548.9834 Z"
         id="path7720"
         style="stroke-width:0.999998" />
    </clipPath>
    <clipPath
       clipPathUnits="userSpaceOnUse"
       id="clipPath7724">
      <path
         d="M -576.3691,585.5885 H 19.906905 V -9.6875027 H -576.3691 Z"
         id="path7726"
         style="stroke-width:0.999998" />
    </clipPath>
    <clipPath
       clipPathUnits="userSpaceOnUse"
       id="clipPath7730">
      <path
         d="M -531.1924,581.5885 H 65.083599 V -13.6875 H -531.1924 Z"
         id="path7732"
         style="stroke-width:0.999998" />
    </clipPath>
    <clipPath
       clipPathUnits="userSpaceOnUse"
       id="clipPath7736">
      <path
         d="M -536.6982,584.5729 H 59.577804 V -10.7031 H -536.6982 Z"
         id="path7738"
         style="stroke-width:0.999998" />
    </clipPath>
    <clipPath
       clipPathUnits="userSpaceOnUse"
       id="clipPath7742">
      <path
         d="M -538.2217,577.9479 H 58.054299 V -17.328098 H -538.2217 Z"
         id="path7744"
         style="stroke-width:0.999998" />
    </clipPath>
    <clipPath
       clipPathUnits="userSpaceOnUse"
       id="clipPath7748">
      <path
         d="M -584.1943,578.9381 H 12.081705 V -16.337903 H -584.1943 Z"
         id="path7750"
         style="stroke-width:0.999998" />
    </clipPath>
    <clipPath
       clipPathUnits="userSpaceOnUse"
       id="clipPath7754">
      <path
         d="m -340.2813,251.4513 h 596.276 v -595.276 h -596.276 z"
         id="path7756"
         style="stroke-width:0.999998" />
    </clipPath>
    <clipPath
       clipPathUnits="userSpaceOnUse"
       id="clipPath7760">
      <path
         d="M -567.7754,585.8522 H 28.500601 V -9.4238027 H -567.7754 Z"
         id="path7762"
         style="stroke-width:0.999998" />
    </clipPath>
    <clipPath
       clipPathUnits="userSpaceOnUse"
       id="clipPath7766">
      <path
         d="M -574.5459,585.8522 H 21.730103 V -9.4238027 H -574.5459 Z"
         id="path7768"
         style="stroke-width:0.999998" />
    </clipPath>
    <clipPath
       clipPathUnits="userSpaceOnUse"
       id="clipPath7772">
      <path
         d="M -572.8174,586.1354 H 23.458606 V -9.1406027 H -572.8174 Z"
         id="path7774"
         style="stroke-width:0.999998" />
    </clipPath>
    <clipPath
       clipPathUnits="userSpaceOnUse"
       id="clipPath7778">
      <path
         d="M -586.5449,579.5026 H 9.7311002 V -15.7734 H -586.5449 Z"
         id="path7780"
         style="stroke-width:0.999998" />
    </clipPath>
    <clipPath
       clipPathUnits="userSpaceOnUse"
       id="clipPath7785">
      <path
         d="M -556.4014,578.0143 H 39.874606 V -17.2617 H -556.4014 Z"
         id="path7787"
         style="stroke-width:0.999998" />
    </clipPath>
    <clipPath
       clipPathUnits="userSpaceOnUse"
       id="clipPath7792">
      <path
         d="M -557.4951,577.8502 H 38.780903 V -17.4258 H -557.4951 Z"
         id="path7794"
         style="stroke-width:0.999998" />
    </clipPath>
    <clipPath
       clipPathUnits="userSpaceOnUse"
       id="clipPath7798">
      <path
         d="M -568.2266,575.819 H 28.049401 V -19.457003 H -568.2266 Z"
         id="path7800"
         style="stroke-width:0.999998" />
    </clipPath>
    <clipPath
       clipPathUnits="userSpaceOnUse"
       id="clipPath7804">
      <path
         d="M -550.2637,577.3248 H 46.012306 V -17.951198 H -550.2637 Z"
         id="path7806"
         style="stroke-width:0.999998" />
    </clipPath>
  </defs>
  <sodipodi:namedview
     id="namedview7179"
     pagecolor="#ffffff"
     bordercolor="#000000"
     borderopacity="0.25"
     inkscape:showpageshadow="2"
     inkscape:pageopacity="0.0"
     inkscape:pagecheckerboard="0"
     inkscape:deskcolor="#d1d1d1"
     showgrid="false"
     inkscape:zoom="0.29734106"
     inkscape:cx="-215.24105"
     inkscape:cy="396.85068"
     inkscape:window-width="1419"
     inkscape:window-height="456"
     inkscape:window-x="0"
     inkscape:window-y="25"
     inkscape:window-maximized="0"
     inkscape:current-layer="svg7177">
    <inkscape:page
       x="0"
       y="0"
       id="page7183"
       width="795.03467"
       height="793.70135" />
  </sodipodi:namedview>
  <path
     d="M 453.708 335.268 C 442.344 310.864 421.968 291.503 396.847 281.473 C 371.726 291.503 351.348 310.864 339.986 335.268 C 335.032 334.56 329.975 334.177 324.827 334.177 C 296.347 334.177 270.512 345.432 251.47 363.711 C 262.384 389.407 283.152 409.893 309.027 420.458 C 309.139 446.54 318.68 470.38 334.406 488.786 C 353.234 485.92 370.407 478.078 384.6 466.672 C 377.887 444.808 365.783 425.833 350.095 411.146 C 337.84 399.672 324.847 391.724 307.671 384.637 C 289.384 377.093 280.183 375.404 280.291 374.545 C 280.398 373.685 294.836 374.249 308.099 377.872 C 327.748 383.241 342.57 392.859 355.91 405.221 C 378.534 426.188 388.843 447.77 395.868 476.828 C 406.351 520.19 429.795 536.526 449.981 550.267 L 466.3 538.674 C 419.013 514.554 402.495 484.185 416.052 440.324 C 423.236 417.086 440.707 398.333 460.541 385.323 C 472.877 377.229 486.2 372.435 498.359 369.337 C 515.432 364.988 527.67 366.76 527.832 368.209 C 527.993 369.659 516.236 369.257 499.889 375.377 C 488.723 379.557 476.847 384.624 465.636 391.96 C 446.735 404.218 430.475 421.862 424.052 442.794 C 421.26 451.825 419.951 459.901 419.951 467.198 C 419.96 469.766 420.128 472.242 420.444 474.644 C 432.105 481.734 445.236 486.649 459.287 488.786 C 475.013 470.38 484.555 446.54 484.667 420.458 C 510.54 409.893 531.309 389.407 542.222 363.711 C 523.18 345.432 497.345 334.177 468.867 334.177 C 463.719 334.177 458.66 334.56 453.708 335.268 M 651.83 479.706 C 676.263 509.052 678.715 552.281 655.241 584.589 C 631.772 616.893 589.902 627.919 554.441 613.75 C 556.96 651.859 533.533 688.267 495.553 700.608 C 457.573 712.947 417.223 697.26 396.861 664.953 C 376.502 697.263 336.15 712.952 298.168 700.611 C 260.188 688.272 236.766 651.862 239.283 613.755 C 203.819 627.925 161.949 616.901 138.475 584.591 C 115.005 552.286 117.458 509.06 141.89 479.713 C 104.87 470.333 77.4809 436.8 77.4809 396.867 C 77.4809 356.933 104.87 323.405 141.887 314.023 C 117.453 284.675 115.001 241.448 138.471 209.14 C 161.946 176.832 203.811 165.81 239.275 179.978 C 236.755 141.872 260.18 105.463 298.16 93.1233 C 336.139 80.782 376.491 96.4713 396.852 128.779 C 417.212 96.4686 457.568 80.782 495.547 93.1233 C 533.524 105.463 556.949 141.872 554.432 179.976 C 589.897 165.806 631.762 176.832 655.237 209.14 C 678.709 241.448 676.259 284.671 651.826 314.017 C 688.845 323.399 716.238 356.927 716.237 396.861 C 716.235 436.797 688.846 470.325 651.83 479.706 M 761.975 396.861 C 761.975 354.424 739.565 317.224 705.941 296.435 C 720.921 259.85 717.182 216.587 692.238 182.255 C 667.294 147.923 627.3 131.001 587.876 133.941 C 578.492 95.5393 550.04 62.738 509.68 49.6234 C 469.319 36.5087 427.015 46.3247 396.848 71.878 C 366.686 46.3261 324.386 36.5087 284.026 49.6234 C 243.666 62.738 215.21 95.5419 205.829 133.947 C 166.405 131.003 126.413 147.924 101.469 182.256 C 76.5249 216.588 72.789 259.856 87.7702 296.441 C 54.1477 317.232 31.7411 354.431 31.7411 396.867 C 31.7411 439.305 54.1503 476.502 87.7756 497.297 C 72.7956 533.88 76.5276 577.146 101.472 611.477 C 126.418 645.81 166.413 662.734 205.838 659.789 C 215.223 698.195 243.674 730.999 284.035 744.111 C 324.395 757.223 366.699 747.408 396.864 721.851 C 427.027 747.408 469.329 757.22 509.687 744.108 C 550.049 730.994 578.505 698.19 587.889 659.781 C 627.309 662.723 667.302 645.805 692.246 611.471 C 717.19 577.141 720.927 533.87 705.945 497.286 C 739.567 476.492 761.975 439.297 761.975 396.861"
     style="fill:#000000;fill-opacity:1;fill-rule:nonzero;stroke:none"
     id="path7297" />
</svg>
