<?xml version="1.0" encoding="UTF-8" standalone="no"?>
<!-- Created with Inkscape (http://www.inkscape.org/) -->

<svg
   version="1.1"
   id="svg15723"
   width="795.03467"
   height="793.70135"
   viewBox="0 0 795.03467 793.70135"
   sodipodi:docname="Itowani Hanare Sakura.svg"
   inkscape:version="1.2 (dc2aeda, 2022-05-15)"
   xmlns:inkscape="http://www.inkscape.org/namespaces/inkscape"
   xmlns:sodipodi="http://sodipodi.sourceforge.net/DTD/sodipodi-0.dtd"
   xmlns="http://www.w3.org/2000/svg"
   xmlns:svg="http://www.w3.org/2000/svg">
  <defs
     id="defs15727">
    <clipPath
       clipPathUnits="userSpaceOnUse"
       id="clipPath16300">
      <path
         d="M -574.5459,585.8522 H 21.730103 V -9.4238027 H -574.5459 Z"
         id="path16302"
         style="stroke-width:0.999998" />
    </clipPath>
    <clipPath
       clipPathUnits="userSpaceOnUse"
       id="clipPath16306">
      <path
         d="M -542.9326,584.5729 H 53.343399 V -10.7031 H -542.9326 Z"
         id="path16308"
         style="stroke-width:0.999998" />
    </clipPath>
    <clipPath
       clipPathUnits="userSpaceOnUse"
       id="clipPath16312">
      <path
         d="M -550.2637,577.3248 H 46.012306 V -17.951198 H -550.2637 Z"
         id="path16314"
         style="stroke-width:0.999998" />
    </clipPath>
    <clipPath
       clipPathUnits="userSpaceOnUse"
       id="clipPath16319">
      <path
         d="m -368.3027,292.9254 h 596.27601 v -595.276 H -368.3027 Z"
         id="path16321"
         style="stroke-width:0.999998" />
    </clipPath>
    <clipPath
       clipPathUnits="userSpaceOnUse"
       id="clipPath16325">
      <path
         d="m -306.8379,297.5778 h 596.276 v -595.276 h -596.276 z"
         id="path16327"
         style="stroke-width:0.999998" />
    </clipPath>
    <clipPath
       clipPathUnits="userSpaceOnUse"
       id="clipPath16331">
      <path
         d="M -576.3691,585.5885 H 19.906905 V -9.6875027 H -576.3691 Z"
         id="path16333"
         style="stroke-width:0.999998" />
    </clipPath>
    <clipPath
       clipPathUnits="userSpaceOnUse"
       id="clipPath16337">
      <path
         d="M -584.1943,578.9381 H 12.081705 V -16.337903 H -584.1943 Z"
         id="path16339"
         style="stroke-width:0.999998" />
    </clipPath>
    <clipPath
       clipPathUnits="userSpaceOnUse"
       id="clipPath16343">
      <path
         d="M -586.5449,579.5026 H 9.7311002 V -15.7734 H -586.5449 Z"
         id="path16345"
         style="stroke-width:0.999998" />
    </clipPath>
    <clipPath
       clipPathUnits="userSpaceOnUse"
       id="clipPath16349">
      <path
         d="M -538.2217,577.9479 H 58.054299 V -17.328098 H -538.2217 Z"
         id="path16351"
         style="stroke-width:0.999998" />
    </clipPath>
    <clipPath
       clipPathUnits="userSpaceOnUse"
       id="clipPath16355">
      <path
         d="m -297.6367,550.1393 h 596.276 V -45.136704 h -596.276 z"
         id="path16357"
         style="stroke-width:0.999998" />
    </clipPath>
    <clipPath
       clipPathUnits="userSpaceOnUse"
       id="clipPath16361">
      <path
         d="m -243.1953,342.8834 h 596.276 v -595.276 h -596.276 z"
         id="path16363"
         style="stroke-width:0.999998" />
    </clipPath>
    <clipPath
       clipPathUnits="userSpaceOnUse"
       id="clipPath16367">
      <path
         d="m -323.8975,363.3522 h 596.276 v -595.276 h -596.276 z"
         id="path16369"
         style="stroke-width:0.999998" />
    </clipPath>
    <clipPath
       clipPathUnits="userSpaceOnUse"
       id="clipPath16373">
      <path
         d="M -568.2266,575.819 H 28.049401 V -19.457003 H -568.2266 Z"
         id="path16375"
         style="stroke-width:0.999998" />
    </clipPath>
    <clipPath
       clipPathUnits="userSpaceOnUse"
       id="clipPath16379">
      <path
         d="m -237.7236,259.8063 h 596.276 v -595.276 h -596.276 z"
         id="path16381"
         style="stroke-width:0.999998" />
    </clipPath>
    <clipPath
       clipPathUnits="userSpaceOnUse"
       id="clipPath16385">
      <path
         d="M -557.4951,577.8502 H 38.780903 V -17.4258 H -557.4951 Z"
         id="path16387"
         style="stroke-width:0.999998" />
    </clipPath>
    <clipPath
       clipPathUnits="userSpaceOnUse"
       id="clipPath16391">
      <path
         d="m -315.0439,228.9293 h 596.276 v -595.276 h -596.276 z"
         id="path16393"
         style="stroke-width:0.999998" />
    </clipPath>
    <clipPath
       clipPathUnits="userSpaceOnUse"
       id="clipPath16397">
      <path
         d="M -556.4014,578.0143 H 39.874606 V -17.2617 H -556.4014 Z"
         id="path16399"
         style="stroke-width:0.999998" />
    </clipPath>
    <clipPath
       clipPathUnits="userSpaceOnUse"
       id="clipPath16403">
      <path
         d="M -545.417,584.5729 H 50.859001 V -10.7031 H -545.417 Z"
         id="path16405"
         style="stroke-width:0.999998" />
    </clipPath>
    <clipPath
       clipPathUnits="userSpaceOnUse"
       id="clipPath16409">
      <path
         d="M -548.9834,585.8522 H 47.292601 V -9.4238027 H -548.9834 Z"
         id="path16411"
         style="stroke-width:0.999998" />
    </clipPath>
    <clipPath
       clipPathUnits="userSpaceOnUse"
       id="clipPath16415">
      <path
         d="M -572.8174,586.1354 H 23.458606 V -9.1406027 H -572.8174 Z"
         id="path16417"
         style="stroke-width:0.999998" />
    </clipPath>
    <clipPath
       clipPathUnits="userSpaceOnUse"
       id="clipPath16422">
      <path
         d="M -553.8975,585.8483 H 42.378504 V -9.4277027 H -553.8975 Z"
         id="path16424"
         style="stroke-width:0.999998" />
    </clipPath>
    <clipPath
       clipPathUnits="userSpaceOnUse"
       id="clipPath16428">
      <path
         d="M -536.6982,584.5729 H 59.577804 V -10.7031 H -536.6982 Z"
         id="path16430"
         style="stroke-width:0.999998" />
    </clipPath>
    <clipPath
       clipPathUnits="userSpaceOnUse"
       id="clipPath16434">
      <path
         d="M -564.5732,585.8483 H 31.702801 V -9.4277027 H -564.5732 Z"
         id="path16436"
         style="stroke-width:0.999998" />
    </clipPath>
    <clipPath
       clipPathUnits="userSpaceOnUse"
       id="clipPath16440">
      <path
         d="M -567.7754,585.8522 H 28.500601 V -9.4238027 H -567.7754 Z"
         id="path16442"
         style="stroke-width:0.999998" />
    </clipPath>
    <clipPath
       clipPathUnits="userSpaceOnUse"
       id="clipPath16446">
      <path
         d="M -528.0898,575.3815 H 68.186199 V -19.8945 H -528.0898 Z"
         id="path16448"
         style="stroke-width:0.999998" />
    </clipPath>
    <clipPath
       clipPathUnits="userSpaceOnUse"
       id="clipPath16452">
      <path
         d="M -531.1924,581.5885 H 65.083599 V -13.6875 H -531.1924 Z"
         id="path16454"
         style="stroke-width:0.999998" />
    </clipPath>
    <clipPath
       clipPathUnits="userSpaceOnUse"
       id="clipPath16458">
      <path
         d="M -557.0645,585.8483 H 39.211501 V -9.4277027 H -557.0645 Z"
         id="path16460"
         style="stroke-width:0.999998" />
    </clipPath>
    <clipPath
       clipPathUnits="userSpaceOnUse"
       id="clipPath16464">
      <path
         d="M -561.4131,585.8522 H 34.862903 V -9.4238027 H -561.4131 Z"
         id="path16466"
         style="stroke-width:0.999998" />
    </clipPath>
    <clipPath
       clipPathUnits="userSpaceOnUse"
       id="clipPath16470">
      <path
         d="M -540.8213,585.8483 H 55.454701 V -9.4277027 H -540.8213 Z"
         id="path16472"
         style="stroke-width:0.999998" />
    </clipPath>
  </defs>
  <sodipodi:namedview
     id="namedview15725"
     pagecolor="#ffffff"
     bordercolor="#000000"
     borderopacity="0.25"
     inkscape:showpageshadow="2"
     inkscape:pageopacity="0.0"
     inkscape:pagecheckerboard="0"
     inkscape:deskcolor="#d1d1d1"
     showgrid="false"
     inkscape:zoom="0.29734106"
     inkscape:cx="-215.24105"
     inkscape:cy="396.85068"
     inkscape:window-width="1419"
     inkscape:window-height="456"
     inkscape:window-x="0"
     inkscape:window-y="25"
     inkscape:window-maximized="0"
     inkscape:current-layer="svg15723">
    <inkscape:page
       x="0"
       y="0"
       id="page15729"
       width="795.03467"
       height="793.70135" />
  </sodipodi:namedview>
  <path
     d="M 396.849 733.519 C 210.904 733.511 60.1832 582.79 60.1685 396.847 C 60.1832 210.907 210.904 60.194 396.849 60.186 C 582.783 60.194 733.509 210.907 733.52 396.847 C 733.509 582.79 582.783 733.511 396.849 733.519 M 396.85 31.7301 C 195.19 31.7394 31.7286 195.191 31.7126 396.847 C 31.7286 598.506 195.19 761.966 396.85 761.975 C 598.5 761.966 761.967 598.506 761.977 396.847 C 761.967 195.191 598.5 31.7394 396.85 31.7301"
     style="fill:#000000;fill-opacity:1;fill-rule:nonzero;stroke:none"
     id="path15843" />
  <path
     d="M 409.117 396.77 C 409.117 403.549 403.622 409.043 396.844 409.043 C 390.065 409.043 384.57 403.549 384.57 396.77 C 384.57 389.991 390.065 384.497 396.844 384.497 C 403.622 384.497 409.117 389.991 409.117 396.77"
     style="fill:#000000;fill-opacity:1;fill-rule:nonzero;stroke:none"
     id="path15847" />
  <path
     d="M 420.059 305.239 C 418.136 304.752 416.21 304.519 414.318 304.519 C 408.044 304.516 402.099 307.075 397.79 311.422 L 396.84 312.375 L 395.898 311.422 C 391.582 307.075 385.638 304.516 379.364 304.519 C 377.472 304.519 375.548 304.75 373.626 305.239 C 363.075 307.914 356.051 317.4 356.051 327.802 C 356.051 329.696 356.282 331.622 356.774 333.548 C 357.563 336.662 358.943 339.463 360.782 341.891 L 389.45 381.351 C 390.798 380.703 392.243 380.225 393.759 379.948 L 393.762 362.9 C 393.762 361.2 395.14 359.82 396.843 359.82 C 398.547 359.82 399.924 361.2 399.924 362.9 L 399.924 379.947 C 401.442 380.224 402.888 380.703 404.238 381.351 L 432.92 341.872 C 434.744 339.46 436.124 336.662 436.914 333.548 C 437.4 331.622 437.631 329.696 437.631 327.802 C 437.631 317.398 430.603 307.911 420.059 305.239"
     style="fill:#000000;fill-opacity:1;fill-rule:nonzero;stroke:none"
     id="path15851" />
  <path
     d="M 316.965 346.408 C 315.906 348.087 315.09 349.845 314.505 351.645 C 312.564 357.611 313.16 364.056 315.961 369.497 L 316.576 370.695 L 315.377 371.296 C 309.91 374.059 305.64 378.921 303.704 384.887 C 303.118 386.688 302.744 388.588 302.616 390.569 C 301.897 401.429 308.75 411.041 318.642 414.254 C 320.444 414.84 322.346 415.216 324.33 415.342 C 327.537 415.556 330.628 415.108 333.504 414.11 L 379.892 399.039 C 379.692 397.556 379.684 396.036 379.889 394.507 L 363.677 389.236 C 362.058 388.711 361.172 386.973 361.698 385.353 C 362.225 383.733 363.964 382.849 365.582 383.375 L 381.794 388.643 C 382.526 387.285 383.428 386.056 384.461 384.976 L 355.777 345.496 C 354.049 343.017 351.814 340.84 349.096 339.127 C 347.414 338.068 345.654 337.255 343.852 336.668 C 333.957 333.453 322.764 337.205 316.965 346.408"
     style="fill:#000000;fill-opacity:1;fill-rule:nonzero;stroke:none"
     id="path15855" />
  <path
     d="M 324.26 457.178 C 325.529 458.705 326.951 460.023 328.48 461.135 C 333.555 464.825 339.868 466.25 345.909 465.267 L 347.237 465.054 L 347.44 466.379 C 348.379 472.431 351.681 477.997 356.759 481.682 C 358.289 482.794 359.981 483.738 361.825 484.471 C 371.932 488.511 383.191 484.963 389.304 476.549 C 390.417 475.015 391.364 473.322 392.097 471.475 C 393.289 468.491 393.82 465.414 393.76 462.37 L 393.76 413.594 C 392.288 413.327 390.84 412.865 389.449 412.198 L 379.427 425.986 C 378.427 427.365 376.501 427.67 375.123 426.669 C 373.744 425.666 373.441 423.742 374.441 422.365 L 384.46 408.573 C 383.397 407.458 382.507 406.221 381.796 404.903 L 335.387 419.983 C 332.495 420.862 329.732 422.315 327.264 424.371 C 325.737 425.643 324.419 427.065 323.305 428.598 C 317.189 437.015 317.299 448.819 324.26 457.178"
     style="fill:#000000;fill-opacity:1;fill-rule:nonzero;stroke:none"
     id="path15859" />
  <path
     d="M 431.863 484.47 C 433.707 483.734 435.4 482.791 436.931 481.679 C 442.007 477.994 445.314 472.43 446.247 466.381 L 446.452 465.05 L 447.778 465.269 C 453.824 466.245 460.136 464.823 465.21 461.134 C 466.74 460.021 468.162 458.705 469.428 457.177 C 476.394 448.814 476.5 437.01 470.386 428.595 C 469.271 427.062 467.954 425.639 466.423 424.371 C 463.954 422.315 461.19 420.859 458.278 419.977 L 411.89 404.904 C 411.18 406.22 410.292 407.456 409.227 408.572 L 419.246 422.365 C 420.246 423.741 419.943 425.666 418.564 426.669 C 417.184 427.669 415.26 427.363 414.259 425.987 L 404.239 412.196 C 402.85 412.864 401.398 413.329 399.926 413.597 L 399.927 462.394 C 399.868 465.417 400.395 468.493 401.59 471.475 C 402.327 473.319 403.272 475.013 404.387 476.546 C 410.502 484.963 421.763 488.507 431.863 484.47"
     style="fill:#000000;fill-opacity:1;fill-rule:nonzero;stroke:none"
     id="path15863" />
  <path
     d="M 491.07 390.567 C 490.938 388.586 490.566 386.683 489.982 384.884 C 488.045 378.918 483.774 374.054 478.31 371.296 L 477.109 370.69 L 477.725 369.496 C 480.523 364.048 481.122 357.606 479.181 351.64 C 478.595 349.84 477.782 348.083 476.721 346.406 C 470.919 337.196 459.726 333.448 449.833 336.663 C 448.031 337.25 446.27 338.062 444.593 339.127 C 441.874 340.838 439.635 343.018 437.894 345.515 L 409.225 384.976 C 410.26 386.056 411.158 387.283 411.892 388.64 L 428.105 383.374 C 429.722 382.848 431.461 383.732 431.987 385.352 C 432.514 386.974 431.627 388.71 430.009 389.236 L 413.797 394.504 C 414.002 396.032 413.996 397.556 413.796 399.039 L 460.206 414.118 C 463.061 415.107 466.15 415.556 469.355 415.343 C 471.337 415.211 473.241 414.835 475.042 414.25 C 484.937 411.036 491.787 401.42 491.07 390.567"
     style="fill:#000000;fill-opacity:1;fill-rule:nonzero;stroke:none"
     id="path15867" />
</svg>
