<?xml version="1.0" encoding="UTF-8" standalone="no"?>
<!-- Created with Inkscape (http://www.inkscape.org/) -->

<svg
   version="1.1"
   id="svg215"
   width="795.03467"
   height="793.70135"
   viewBox="0 0 795.03467 793.70135"
   sodipodi:docname="Kawari Yae Zakura.svg"
   inkscape:version="1.2 (dc2aeda, 2022-05-15)"
   xmlns:inkscape="http://www.inkscape.org/namespaces/inkscape"
   xmlns:sodipodi="http://sodipodi.sourceforge.net/DTD/sodipodi-0.dtd"
   xmlns="http://www.w3.org/2000/svg"
   xmlns:svg="http://www.w3.org/2000/svg">
  <defs
     id="defs219">
    <clipPath
       clipPathUnits="userSpaceOnUse"
       id="clipPath813">
      <path
         d="M -572.8174,586.1354 H 23.458606 V -9.1406027 H -572.8174 Z"
         id="path815"
         style="stroke-width:0.999998" />
    </clipPath>
    <clipPath
       clipPathUnits="userSpaceOnUse"
       id="clipPath819">
      <path
         d="M -550.2637,577.3248 H 46.012306 V -17.951198 H -550.2637 Z"
         id="path821"
         style="stroke-width:0.999998" />
    </clipPath>
    <clipPath
       clipPathUnits="userSpaceOnUse"
       id="clipPath826">
      <path
         d="M -574.5459,585.8522 H 21.730103 V -9.4238027 H -574.5459 Z"
         id="path828"
         style="stroke-width:0.999998" />
    </clipPath>
    <clipPath
       clipPathUnits="userSpaceOnUse"
       id="clipPath832">
      <path
         d="M -545.417,584.5729 H 50.859001 V -10.7031 H -545.417 Z"
         id="path834"
         style="stroke-width:0.999998" />
    </clipPath>
    <clipPath
       clipPathUnits="userSpaceOnUse"
       id="clipPath838">
      <path
         d="M -540.8213,585.8483 H 55.454701 V -9.4277027 H -540.8213 Z"
         id="path840"
         style="stroke-width:0.999998" />
    </clipPath>
    <clipPath
       clipPathUnits="userSpaceOnUse"
       id="clipPath844">
      <path
         d="M -576.3691,585.5885 H 19.906905 V -9.6875027 H -576.3691 Z"
         id="path846"
         style="stroke-width:0.999998" />
    </clipPath>
    <clipPath
       clipPathUnits="userSpaceOnUse"
       id="clipPath850">
      <path
         d="M -557.4951,577.8502 H 38.780903 V -17.4258 H -557.4951 Z"
         id="path852"
         style="stroke-width:0.999998" />
    </clipPath>
    <clipPath
       clipPathUnits="userSpaceOnUse"
       id="clipPath856">
      <path
         d="M -568.2266,575.819 H 28.049401 V -19.457003 H -568.2266 Z"
         id="path858"
         style="stroke-width:0.999998" />
    </clipPath>
    <clipPath
       clipPathUnits="userSpaceOnUse"
       id="clipPath862">
      <path
         d="M -556.4014,578.0143 H 39.874606 V -17.2617 H -556.4014 Z"
         id="path864"
         style="stroke-width:0.999998" />
    </clipPath>
    <clipPath
       clipPathUnits="userSpaceOnUse"
       id="clipPath868">
      <path
         d="M -586.5449,579.5026 H 9.7311002 V -15.7734 H -586.5449 Z"
         id="path870"
         style="stroke-width:0.999998" />
    </clipPath>
    <clipPath
       clipPathUnits="userSpaceOnUse"
       id="clipPath874">
      <path
         d="M -584.1943,578.9381 H 12.081705 V -16.337903 H -584.1943 Z"
         id="path876"
         style="stroke-width:0.999998" />
    </clipPath>
    <clipPath
       clipPathUnits="userSpaceOnUse"
       id="clipPath880">
      <path
         d="M -538.2217,577.9479 H 58.054299 V -17.328098 H -538.2217 Z"
         id="path882"
         style="stroke-width:0.999998" />
    </clipPath>
    <clipPath
       clipPathUnits="userSpaceOnUse"
       id="clipPath886">
      <path
         d="m -203.6475,385.0885 h 596.276 v -595.276 h -596.276 z"
         id="path888"
         style="stroke-width:0.999998" />
    </clipPath>
    <clipPath
       clipPathUnits="userSpaceOnUse"
       id="clipPath892">
      <path
         d="M -542.9326,584.5729 H 53.343399 V -10.7031 H -542.9326 Z"
         id="path894"
         style="stroke-width:0.999998" />
    </clipPath>
    <clipPath
       clipPathUnits="userSpaceOnUse"
       id="clipPath898">
      <path
         d="M -564.5732,585.8483 H 31.702801 V -9.4277027 H -564.5732 Z"
         id="path900"
         style="stroke-width:0.999998" />
    </clipPath>
    <clipPath
       clipPathUnits="userSpaceOnUse"
       id="clipPath904">
      <path
         d="M -567.7754,585.8522 H 28.500601 V -9.4238027 H -567.7754 Z"
         id="path906"
         style="stroke-width:0.999998" />
    </clipPath>
    <clipPath
       clipPathUnits="userSpaceOnUse"
       id="clipPath910">
      <path
         d="M -536.6982,584.5729 H 59.577804 V -10.7031 H -536.6982 Z"
         id="path912"
         style="stroke-width:0.999998" />
    </clipPath>
    <clipPath
       clipPathUnits="userSpaceOnUse"
       id="clipPath916">
      <path
         d="M -561.4131,585.8522 H 34.862903 V -9.4238027 H -561.4131 Z"
         id="path918"
         style="stroke-width:0.999998" />
    </clipPath>
    <clipPath
       clipPathUnits="userSpaceOnUse"
       id="clipPath922">
      <path
         d="M -548.9834,585.8522 H 47.292601 V -9.4238027 H -548.9834 Z"
         id="path924"
         style="stroke-width:0.999998" />
    </clipPath>
    <clipPath
       clipPathUnits="userSpaceOnUse"
       id="clipPath928">
      <path
         d="M -553.8975,585.8483 H 42.378504 V -9.4277027 H -553.8975 Z"
         id="path930"
         style="stroke-width:0.999998" />
    </clipPath>
    <clipPath
       clipPathUnits="userSpaceOnUse"
       id="clipPath934">
      <path
         d="M -557.0645,585.8483 H 39.211501 V -9.4277027 H -557.0645 Z"
         id="path936"
         style="stroke-width:0.999998" />
    </clipPath>
    <clipPath
       clipPathUnits="userSpaceOnUse"
       id="clipPath940">
      <path
         d="M -531.1924,581.5885 H 65.083599 V -13.6875 H -531.1924 Z"
         id="path942"
         style="stroke-width:0.999998" />
    </clipPath>
    <clipPath
       clipPathUnits="userSpaceOnUse"
       id="clipPath946">
      <path
         d="M -528.0898,575.3815 H 68.186199 V -19.8945 H -528.0898 Z"
         id="path948"
         style="stroke-width:0.999998" />
    </clipPath>
  </defs>
  <sodipodi:namedview
     id="namedview217"
     pagecolor="#ffffff"
     bordercolor="#000000"
     borderopacity="0.25"
     inkscape:showpageshadow="2"
     inkscape:pageopacity="0.0"
     inkscape:pagecheckerboard="0"
     inkscape:deskcolor="#d1d1d1"
     showgrid="false"
     inkscape:zoom="0.29734106"
     inkscape:cx="-215.24105"
     inkscape:cy="396.85068"
     inkscape:window-width="1419"
     inkscape:window-height="456"
     inkscape:window-x="0"
     inkscape:window-y="25"
     inkscape:window-maximized="0"
     inkscape:current-layer="svg215">
    <inkscape:page
       x="0"
       y="0"
       id="page221"
       width="795.03467"
       height="793.70135" />
  </sodipodi:namedview>
  <path
     d="M 271.53 513.451 C 263.482 507.604 257.873 499.55 255.015 490.746 L 255.01 490.73 C 250.662 477.38 252.573 462.136 261.466 449.899 C 263.214 447.472 265.063 445.375 266.973 443.547 C 264.351 443.183 261.619 442.574 258.779 441.639 C 244.409 436.965 233.901 425.769 229.569 412.43 C 229.569 412.43 229.562 412.41 229.558 412.399 C 226.693 403.594 226.491 393.777 229.574 384.305 C 233.266 372.938 241.047 364.007 250.734 358.622 C 222.61 350.01 202.382 343.87 184.305 349.745 C 149.901 360.922 131.072 397.875 142.25 432.282 C 148.321 450.962 161.996 465.034 178.726 472.219 C 169.413 487.867 166.621 507.287 172.69 525.97 C 183.872 560.378 220.823 579.203 255.226 568.024 C 273.307 562.151 286.062 545.292 303.758 521.79 C 292.75 523.126 281.202 520.479 271.53 513.451 M 556.063 386.93 C 550.876 370.966 535.867 360.949 519.901 361.365 C 533.064 352.318 539.316 335.391 534.128 319.425 C 527.811 299.982 506.927 289.341 487.483 295.657 C 476.369 299.272 471.971 305.185 466.863 312.193 L 429.655 363.406 C 435.346 368.318 439.982 374.57 443.052 381.875 L 479.475 370.042 C 481.703 369.318 484.092 370.534 484.816 372.763 C 485.54 374.99 484.324 377.383 482.095 378.107 L 445.674 389.941 C 447.483 397.657 447.407 405.441 445.687 412.757 L 505.896 432.321 C 514.147 434.99 521.18 437.189 532.295 433.577 C 551.739 427.258 562.38 406.373 556.063 386.93 M 251.505 316.802 C 254.578 307.341 260.505 299.518 267.995 294.078 L 268.002 294.07 C 279.359 285.81 294.45 282.917 308.835 287.592 C 311.682 288.506 314.249 289.618 316.581 290.865 C 316.114 288.261 315.851 285.474 315.862 282.485 C 315.867 267.373 323.267 253.92 334.614 245.677 C 334.622 245.673 334.633 245.665 334.641 245.66 C 342.13 240.212 351.404 236.985 361.364 236.993 C 373.315 236.99 384.212 241.63 392.328 249.18 C 391.828 219.769 391.416 198.636 380.243 183.26 C 358.982 153.995 318.019 147.505 288.753 168.769 C 272.861 180.313 263.703 197.666 262.039 215.801 C 244.279 211.777 224.946 215.126 209.055 226.67 C 179.789 247.936 173.301 288.896 194.562 318.162 C 205.737 333.542 225.714 340.463 253.534 350.029 C 248.859 339.974 247.809 328.173 251.505 316.802 M 517.181 506.591 C 533.721 494.576 537.388 471.424 525.371 454.886 C 518.501 445.435 511.516 443.077 503.273 440.383 L 443.067 420.823 C 440.155 427.754 435.643 434.094 429.643 439.271 L 452.152 470.256 C 453.53 472.151 453.112 474.798 451.215 476.178 C 449.323 477.552 446.668 477.134 445.291 475.238 L 422.78 444.258 C 416.003 448.363 408.578 450.696 401.087 451.323 L 401.087 514.628 C 401.1 523.3 401.18 530.667 408.05 540.12 C 420.067 556.662 443.218 560.328 459.756 548.312 C 473.337 538.448 478.228 521.079 472.896 506.022 C 485.569 515.746 503.6 516.459 517.181 506.591 M 459.047 245.649 L 459.059 245.66 C 470.423 253.904 477.836 267.362 477.835 282.49 C 477.845 285.477 477.583 288.261 477.116 290.865 C 479.449 289.618 482.017 288.506 484.864 287.592 C 499.237 282.928 514.319 285.808 525.665 294.053 C 525.673 294.058 525.683 294.065 525.683 294.065 C 533.185 299.513 539.12 307.337 542.192 316.807 C 545.888 328.174 544.84 339.971 540.168 350.023 C 567.985 340.461 587.959 333.537 599.131 318.159 C 620.392 288.894 613.906 247.936 584.639 226.668 C 568.749 215.124 549.415 211.777 531.655 215.798 C 529.992 197.666 520.835 180.312 504.944 168.767 C 475.675 147.503 434.714 153.992 413.45 183.257 C 402.278 198.636 401.867 219.772 401.367 249.188 C 409.484 241.636 420.384 236.99 432.339 236.99 C 442.287 236.99 451.559 240.209 459.047 245.649 M 333.938 548.311 C 350.478 560.326 373.627 556.659 385.646 540.12 C 392.512 530.667 392.595 523.298 392.608 514.626 L 392.608 451.323 C 385.116 450.694 377.69 448.36 370.912 444.257 L 348.402 475.235 C 347.024 477.131 344.378 477.552 342.48 476.175 C 340.587 474.8 340.164 472.148 341.542 470.254 L 364.051 439.269 C 358.052 434.091 353.539 427.751 350.628 420.823 L 290.421 440.381 C 282.177 443.077 275.194 445.43 268.326 454.883 C 256.307 471.424 259.974 494.574 276.513 506.59 C 290.094 516.459 308.125 515.743 320.797 506.019 C 315.466 521.076 320.357 538.446 333.938 548.311 M 609.393 349.742 C 591.315 343.867 571.085 350.007 542.953 358.622 C 552.645 364.007 560.435 372.938 564.127 384.31 C 567.203 393.771 567.004 403.587 564.144 412.386 L 564.139 412.402 C 559.809 425.757 549.3 436.967 534.913 441.642 C 532.075 442.574 529.345 443.186 526.725 443.545 C 528.633 445.378 530.484 447.475 532.232 449.902 C 541.112 462.131 543.031 477.363 538.695 490.703 C 538.695 490.703 538.689 490.722 538.687 490.732 C 535.828 499.542 530.221 507.604 522.161 513.454 C 512.495 520.479 500.948 523.128 489.947 521.792 C 507.637 545.292 520.393 562.148 538.471 568.022 C 572.875 579.202 609.828 560.372 621.006 525.967 C 627.076 507.287 624.284 487.866 614.972 472.216 C 631.704 465.032 645.378 450.959 651.446 432.279 C 662.626 397.873 643.797 360.919 609.393 349.742 M 237.635 386.927 C 231.318 406.37 241.958 427.257 261.402 433.574 C 272.515 437.183 279.551 434.985 287.802 432.318 L 348.007 412.757 C 346.291 405.435 346.215 397.657 348.024 389.938 L 311.605 378.105 C 309.375 377.381 308.157 374.99 308.881 372.761 C 309.605 370.537 311.997 369.313 314.225 370.037 L 350.646 381.873 C 353.718 374.567 358.351 368.315 364.044 363.403 L 326.835 312.188 C 321.726 305.182 317.329 299.269 306.217 295.657 C 286.771 289.34 265.889 299.98 259.569 319.422 C 254.382 335.389 260.634 352.315 273.797 361.362 C 257.831 360.943 242.823 370.963 237.635 386.927 M 464.742 555.172 C 456.694 561.022 447.299 563.868 438.044 563.866 L 438.034 563.866 C 423.991 563.872 410.079 557.344 401.19 545.104 C 399.424 542.694 398.002 540.287 396.848 537.907 C 395.692 540.287 394.271 542.696 392.504 545.107 C 383.618 557.331 369.724 563.866 355.698 563.866 L 355.676 563.866 C 346.406 563.868 337.005 561.027 328.951 555.167 C 319.283 548.146 313.195 537.984 311.065 527.107 C 294.182 551.196 282.094 568.535 282.094 587.544 C 282.094 623.716 311.419 653.041 347.596 653.041 C 367.236 653.041 384.844 644.385 396.85 630.693 C 408.855 644.385 426.463 653.041 446.104 653.041 C 482.28 653.041 511.607 623.716 511.607 587.544 C 511.607 568.532 499.515 551.191 482.628 527.102 C 480.501 537.982 474.415 548.146 464.742 555.172 M 361.359 245.469 C 340.916 245.469 324.342 262.042 324.342 282.49 C 324.342 294.173 328.61 300.182 333.695 307.206 L 370.904 358.422 C 377.335 354.526 384.714 352.05 392.61 351.386 L 392.61 313.092 C 392.61 310.748 394.504 308.849 396.85 308.849 C 399.19 308.849 401.091 310.748 401.091 313.092 L 401.091 351.386 C 408.988 352.05 416.366 354.526 422.794 358.422 L 460.004 307.206 C 465.091 300.182 469.358 294.173 469.358 282.49 C 469.358 262.042 452.783 245.469 432.339 245.469 C 415.554 245.469 401.387 256.646 396.85 271.961 C 392.314 256.646 378.146 245.469 361.359 245.469 M 438.519 401.347 C 438.519 378.331 419.863 359.674 396.85 359.674 C 373.835 359.674 355.179 378.331 355.179 401.347 C 355.179 424.358 373.835 443.014 396.85 443.014 C 419.863 443.014 438.519 424.358 438.519 401.347 M 626.409 475.935 C 630.494 485.206 632.701 495.342 632.701 505.732 C 632.701 513.308 631.529 521.016 629.068 528.587 C 618.897 559.839 589.933 579.722 558.74 579.722 L 558.724 579.722 C 551.141 579.722 543.428 578.547 535.849 576.087 C 528.1 573.568 521.34 569.394 515.113 564.12 C 518.203 571.672 520.085 579.391 520.085 587.539 C 520.079 628.401 486.965 661.516 446.103 661.524 C 427.202 661.524 409.915 654.396 396.847 642.724 C 383.78 654.396 366.495 661.524 347.596 661.524 C 306.73 661.516 273.617 628.401 273.61 587.539 C 273.61 579.394 275.493 571.678 278.581 564.126 C 272.355 569.399 265.594 573.574 257.841 576.091 C 250.279 578.544 242.577 579.722 235.003 579.722 L 234.971 579.722 C 203.772 579.732 174.796 559.85 164.624 528.594 C 162.16 521.014 160.988 513.306 160.988 505.738 C 160.99 495.344 163.196 485.208 167.285 475.938 C 152.141 467.118 140.021 452.88 134.186 434.905 C 131.72 427.323 130.542 419.605 130.545 412.025 C 130.536 380.823 150.426 351.849 181.68 341.682 C 187.581 339.758 193.649 338.943 199.784 338.946 C 201.693 338.953 203.612 339.039 205.539 339.182 C 198.584 334.886 192.5 329.753 187.704 323.149 C 178.172 310.04 173.562 294.78 173.565 279.714 C 173.556 256.868 184.16 234.274 204.068 219.812 C 217.166 210.285 232.419 205.681 247.471 205.689 C 249.977 205.689 252.481 205.817 254.969 206.066 C 258.677 188.94 268.471 173.012 283.766 161.908 C 296.866 152.381 312.13 147.769 327.195 147.773 C 350.042 147.76 372.638 158.364 387.104 178.273 C 391.892 184.864 394.907 192.216 396.846 200.142 C 398.782 192.217 401.796 184.864 406.587 178.273 C 421.047 158.361 443.647 147.757 466.492 147.772 C 481.559 147.765 496.821 152.381 509.927 161.905 C 525.22 173.015 535.016 188.938 538.724 206.064 C 541.211 205.814 543.712 205.686 546.216 205.686 C 561.271 205.684 576.524 210.285 589.623 219.809 C 609.528 234.269 620.13 256.865 620.121 279.712 C 620.128 294.777 615.514 310.04 605.99 323.143 C 601.193 329.747 595.108 334.883 588.153 339.179 C 590.081 339.037 592 338.951 593.911 338.943 C 600.049 338.938 606.113 339.753 612.013 341.677 C 643.269 351.841 663.156 380.818 663.149 412.019 C 663.149 419.602 661.974 427.318 659.509 434.899 C 653.672 452.878 641.554 467.115 626.409 475.935 M 696.898 475.878 C 746.101 459.888 773.023 407.045 757.038 357.843 C 748.446 331.395 729.193 311.398 705.586 301.032 C 718.589 278.769 722.412 251.274 713.818 224.826 C 697.832 175.624 644.988 148.697 595.785 164.684 C 575.595 171.244 558.308 182.181 545.639 196.557 C 555.395 180.067 560.453 160.244 560.453 139.015 C 560.453 87.2814 518.515 45.3428 466.782 45.3428 C 438.972 45.3428 414.006 57.4761 396.85 76.7214 C 379.695 57.4761 354.727 45.3428 326.919 45.3428 C 275.185 45.3428 233.245 87.2814 233.245 139.015 C 233.245 160.244 238.305 180.067 248.061 196.557 C 235.393 182.181 218.105 171.244 197.914 164.684 C 148.713 148.697 95.8678 175.624 79.8811 224.826 C 71.2865 251.274 75.1118 278.769 88.1131 301.029 C 64.5079 311.398 45.2546 331.394 36.6626 357.843 C 20.6746 407.045 47.5999 459.891 96.7998 475.878 C 116.992 482.438 137.406 483.751 156.105 479.568 C 138.518 487.172 122.776 500.238 110.297 517.412 C 79.8891 559.263 89.1691 617.844 131.021 648.253 C 153.518 664.599 180.849 669.459 206.039 663.972 C 208.607 689.625 221.674 714.117 244.171 730.464 C 286.026 760.872 344.606 751.593 375.012 709.74 C 387.492 692.568 395.05 673.555 396.85 654.479 C 398.648 673.555 406.21 692.568 418.684 709.74 C 449.095 751.593 507.673 760.869 549.527 730.464 C 572.024 714.117 585.093 689.625 587.66 663.972 C 612.85 669.459 640.18 664.599 662.678 648.251 C 704.532 617.844 713.81 559.263 683.404 517.415 C 670.925 500.238 655.18 487.175 637.594 479.568 C 656.292 483.751 676.709 482.438 696.898 475.878"
     style="fill:#000000;fill-opacity:1;fill-rule:nonzero;stroke:none"
     id="path335" />
</svg>
