<?xml version="1.0" encoding="UTF-8" standalone="no"?>
<!-- Created with Inkscape (http://www.inkscape.org/) -->

<svg
   version="1.1"
   id="svg10261"
   width="795.03467"
   height="793.70135"
   viewBox="0 0 795.03467 793.70135"
   sodipodi:docname="Kuyou Sakura.svg"
   inkscape:version="1.2 (dc2aeda, 2022-05-15)"
   xmlns:inkscape="http://www.inkscape.org/namespaces/inkscape"
   xmlns:sodipodi="http://sodipodi.sourceforge.net/DTD/sodipodi-0.dtd"
   xmlns="http://www.w3.org/2000/svg"
   xmlns:svg="http://www.w3.org/2000/svg">
  <defs
     id="defs10265">
    <clipPath
       clipPathUnits="userSpaceOnUse"
       id="clipPath11516">
      <path
         d="M -540.8213,585.8483 H 55.454701 V -9.4277027 H -540.8213 Z"
         id="path11518"
         style="stroke-width:0.999998" />
    </clipPath>
    <clipPath
       clipPathUnits="userSpaceOnUse"
       id="clipPath11522">
      <path
         d="M -545.417,584.5729 H 50.859001 V -10.7031 H -545.417 Z"
         id="path11524"
         style="stroke-width:0.999998" />
    </clipPath>
    <clipPath
       clipPathUnits="userSpaceOnUse"
       id="clipPath11528">
      <path
         d="M -498.959,307.361 H 97.317002 V -287.915 H -498.959 Z"
         id="path11530"
         style="stroke-width:0.999998" />
    </clipPath>
    <clipPath
       clipPathUnits="userSpaceOnUse"
       id="clipPath11534">
      <path
         d="m -307.3594,96.316498 h 596.276 V -498.9595 h -596.276 z"
         id="path11536"
         style="stroke-width:0.999998" />
    </clipPath>
    <clipPath
       clipPathUnits="userSpaceOnUse"
       id="clipPath11540">
      <path
         d="m -204.0713,99.627103 h 596.276 V -495.6489 h -596.276 z"
         id="path11542"
         style="stroke-width:0.999998" />
    </clipPath>
    <clipPath
       clipPathUnits="userSpaceOnUse"
       id="clipPath11546">
      <path
         d="M -574.5459,585.8522 H 21.730103 V -9.4238027 H -574.5459 Z"
         id="path11548"
         style="stroke-width:0.999998" />
    </clipPath>
    <clipPath
       clipPathUnits="userSpaceOnUse"
       id="clipPath11552">
      <path
         d="M -586.5449,579.5026 H 9.7311002 V -15.7734 H -586.5449 Z"
         id="path11554"
         style="stroke-width:0.999998" />
    </clipPath>
    <clipPath
       clipPathUnits="userSpaceOnUse"
       id="clipPath11558">
      <path
         d="M -557.0645,585.8483 H 39.211501 V -9.4277027 H -557.0645 Z"
         id="path11560"
         style="stroke-width:0.999998" />
    </clipPath>
    <clipPath
       clipPathUnits="userSpaceOnUse"
       id="clipPath11564">
      <path
         d="m -372.0068,410.9274 h 596.27601 v -595.276 H -372.0068 Z"
         id="path11566"
         style="stroke-width:0.999998" />
    </clipPath>
    <clipPath
       clipPathUnits="userSpaceOnUse"
       id="clipPath11570">
      <path
         d="M -567.7754,585.8522 H 28.500601 V -9.4238027 H -567.7754 Z"
         id="path11572"
         style="stroke-width:0.999998" />
    </clipPath>
    <clipPath
       clipPathUnits="userSpaceOnUse"
       id="clipPath11577">
      <path
         d="m -315.9209,24.6896 h 596.276 v -595.276 h -596.276 z"
         id="path11579"
         style="stroke-width:0.999998" />
    </clipPath>
    <clipPath
       clipPathUnits="userSpaceOnUse"
       id="clipPath11583">
      <path
         d="m -235.248,56.9064 h 596.276 v -595.276 h -596.276 z"
         id="path11585"
         style="stroke-width:0.999998" />
    </clipPath>
    <clipPath
       clipPathUnits="userSpaceOnUse"
       id="clipPath11589">
      <path
         d="M -556.4014,578.0143 H 39.874606 V -17.2617 H -556.4014 Z"
         id="path11591"
         style="stroke-width:0.999998" />
    </clipPath>
    <clipPath
       clipPathUnits="userSpaceOnUse"
       id="clipPath11595">
      <path
         d="M -538.3691,235.2477 H 57.906901 v -595.276 H -538.3691 Z"
         id="path11597"
         style="stroke-width:0.999998" />
    </clipPath>
    <clipPath
       clipPathUnits="userSpaceOnUse"
       id="clipPath11601">
      <path
         d="M -576.3691,585.5885 H 19.906905 V -9.6875027 H -576.3691 Z"
         id="path11603"
         style="stroke-width:0.999998" />
    </clipPath>
    <clipPath
       clipPathUnits="userSpaceOnUse"
       id="clipPath11607">
      <path
         d="M -531.1924,581.5885 H 65.083599 V -13.6875 H -531.1924 Z"
         id="path11609"
         style="stroke-width:0.999998" />
    </clipPath>
    <clipPath
       clipPathUnits="userSpaceOnUse"
       id="clipPath11614">
      <path
         d="m -223.2686,184.3473 h 596.276 v -595.276 h -596.276 z"
         id="path11616"
         style="stroke-width:0.999998" />
    </clipPath>
    <clipPath
       clipPathUnits="userSpaceOnUse"
       id="clipPath11620">
      <path
         d="M -550.2637,577.3248 H 46.012306 V -17.951198 H -550.2637 Z"
         id="path11622"
         style="stroke-width:0.999998" />
    </clipPath>
    <clipPath
       clipPathUnits="userSpaceOnUse"
       id="clipPath11626">
      <path
         d="m -117.5625,91.706202 h 596.276 V -503.5698 h -596.276 z"
         id="path11628"
         style="stroke-width:0.999998" />
    </clipPath>
    <clipPath
       clipPathUnits="userSpaceOnUse"
       id="clipPath11632">
      <path
         d="M -83.297897,171.5309 H 512.97811 v -595.276 H -83.297897 Z"
         id="path11634"
         style="stroke-width:0.999998" />
    </clipPath>
    <clipPath
       clipPathUnits="userSpaceOnUse"
       id="clipPath11638">
      <path
         d="m -148.627,228.7867 h 596.276 v -595.276 h -596.276 z"
         id="path11640"
         style="stroke-width:0.999998" />
    </clipPath>
    <clipPath
       clipPathUnits="userSpaceOnUse"
       id="clipPath11644">
      <path
         d="m -371.4912,91.462002 h 596.276 V -503.814 h -596.276 z"
         id="path11646"
         style="stroke-width:0.999998" />
    </clipPath>
    <clipPath
       clipPathUnits="userSpaceOnUse"
       id="clipPath11650">
      <path
         d="m -451.6895,240.9567 h 596.276 v -595.276 h -596.276 z"
         id="path11652"
         style="stroke-width:0.999998" />
    </clipPath>
    <clipPath
       clipPathUnits="userSpaceOnUse"
       id="clipPath11656">
      <path
         d="m -240.9561,143.5875 h 596.276 v -595.276 h -596.276 z"
         id="path11658"
         style="stroke-width:0.999998" />
    </clipPath>
    <clipPath
       clipPathUnits="userSpaceOnUse"
       id="clipPath11662">
      <path
         d="m -162.1563,148.4078 h 596.27601 v -595.276 H -162.1563 Z"
         id="path11664"
         style="stroke-width:0.999998" />
    </clipPath>
    <clipPath
       clipPathUnits="userSpaceOnUse"
       id="clipPath11668">
      <path
         d="m -24.6885,279.3551 h 596.276 v -595.276 h -596.276 z"
         id="path11670"
         style="stroke-width:0.999998" />
    </clipPath>
    <clipPath
       clipPathUnits="userSpaceOnUse"
       id="clipPath11674">
      <path
         d="m -56.9053,360.027 h 596.276 v -595.276 h -596.276 z"
         id="path11676"
         style="stroke-width:0.999998" />
    </clipPath>
    <clipPath
       clipPathUnits="userSpaceOnUse"
       id="clipPath11680">
      <path
         d="M -568.2266,575.819 H 28.049401 V -19.457003 H -568.2266 Z"
         id="path11682"
         style="stroke-width:0.999998" />
    </clipPath>
    <clipPath
       clipPathUnits="userSpaceOnUse"
       id="clipPath11686">
      <path
         d="M -557.4951,577.8502 H 38.780903 V -17.4258 H -557.4951 Z"
         id="path11688"
         style="stroke-width:0.999998" />
    </clipPath>
    <clipPath
       clipPathUnits="userSpaceOnUse"
       id="clipPath11692">
      <path
         d="m -325.1592,164.943 h 596.276 v -595.276 h -596.276 z"
         id="path11694"
         style="stroke-width:0.999998" />
    </clipPath>
    <clipPath
       clipPathUnits="userSpaceOnUse"
       id="clipPath11698">
      <path
         d="M -584.1943,578.9381 H 12.081705 V -16.337903 H -584.1943 Z"
         id="path11700"
         style="stroke-width:0.999998" />
    </clipPath>
    <clipPath
       clipPathUnits="userSpaceOnUse"
       id="clipPath11704">
      <path
         d="M -538.2217,577.9479 H 58.054299 V -17.328098 H -538.2217 Z"
         id="path11706"
         style="stroke-width:0.999998" />
    </clipPath>
    <clipPath
       clipPathUnits="userSpaceOnUse"
       id="clipPath11710">
      <path
         d="m -143.5859,354.3199 h 596.276 v -595.276 h -596.276 z"
         id="path11712"
         style="stroke-width:0.999998" />
    </clipPath>
    <clipPath
       clipPathUnits="userSpaceOnUse"
       id="clipPath11716">
      <path
         d="m -96.3154,287.9156 h 596.276 v -595.276 h -596.276 z"
         id="path11718"
         style="stroke-width:0.999998" />
    </clipPath>
    <clipPath
       clipPathUnits="userSpaceOnUse"
       id="clipPath11722">
      <path
         d="M -572.8174,586.1354 H 23.458606 V -9.1406027 H -572.8174 Z"
         id="path11724"
         style="stroke-width:0.999998" />
    </clipPath>
    <clipPath
       clipPathUnits="userSpaceOnUse"
       id="clipPath11728">
      <path
         d="M -570.5859,315.9215 H 25.690103 v -595.276 H -570.5859 Z"
         id="path11730"
         style="stroke-width:0.999998" />
    </clipPath>
    <clipPath
       clipPathUnits="userSpaceOnUse"
       id="clipPath11734">
      <path
         d="M -553.8975,585.8483 H 42.378504 V -9.4277027 H -553.8975 Z"
         id="path11736"
         style="stroke-width:0.999998" />
    </clipPath>
    <clipPath
       clipPathUnits="userSpaceOnUse"
       id="clipPath11740">
      <path
         d="M -548.9834,585.8522 H 47.292601 V -9.4238027 H -548.9834 Z"
         id="path11742"
         style="stroke-width:0.999998" />
    </clipPath>
    <clipPath
       clipPathUnits="userSpaceOnUse"
       id="clipPath11746">
      <path
         d="M -528.0898,575.3815 H 68.186199 V -19.8945 H -528.0898 Z"
         id="path11748"
         style="stroke-width:0.999998" />
    </clipPath>
    <clipPath
       clipPathUnits="userSpaceOnUse"
       id="clipPath11752">
      <path
         d="M -391.2041,495.6481 H 205.07191 V -99.627902 H -391.2041 Z"
         id="path11754"
         style="stroke-width:0.999998" />
    </clipPath>
    <clipPath
       clipPathUnits="userSpaceOnUse"
       id="clipPath11758">
      <path
         d="m -446.6484,366.4879 h 596.276 v -595.276 h -596.276 z"
         id="path11760"
         style="stroke-width:0.999998" />
    </clipPath>
    <clipPath
       clipPathUnits="userSpaceOnUse"
       id="clipPath11764">
      <path
         d="m -164.9424,270.1168 h 596.27601 v -595.276 H -164.9424 Z"
         id="path11766"
         style="stroke-width:0.999998" />
    </clipPath>
    <clipPath
       clipPathUnits="userSpaceOnUse"
       id="clipPath11770">
      <path
         d="M -91.460897,223.7848 H 504.81511 v -595.276 H -91.460897 Z"
         id="path11772"
         style="stroke-width:0.999998" />
    </clipPath>
    <clipPath
       clipPathUnits="userSpaceOnUse"
       id="clipPath11776">
      <path
         d="m -148.4063,433.1188 h 596.276 v -595.276 h -596.276 z"
         id="path11778"
         style="stroke-width:0.999998" />
    </clipPath>
    <clipPath
       clipPathUnits="userSpaceOnUse"
       id="clipPath11782">
      <path
         d="M -91.705097,477.7145 H 504.57091 v -595.276 H -91.705097 Z"
         id="path11784"
         style="stroke-width:0.999998" />
    </clipPath>
    <clipPath
       clipPathUnits="userSpaceOnUse"
       id="clipPath11788">
      <path
         d="m -171.5303,511.9781 h 596.276 V -83.297897 h -596.276 z"
         id="path11790"
         style="stroke-width:0.999998" />
    </clipPath>
    <clipPath
       clipPathUnits="userSpaceOnUse"
       id="clipPath11794">
      <path
         d="m -228.7871,446.6481 h 596.276 v -595.276 h -596.276 z"
         id="path11796"
         style="stroke-width:0.999998" />
    </clipPath>
    <clipPath
       clipPathUnits="userSpaceOnUse"
       id="clipPath11800">
      <path
         d="m -184.3477,372.0074 h 596.276 v -595.276 h -596.276 z"
         id="path11802"
         style="stroke-width:0.999998" />
    </clipPath>
    <clipPath
       clipPathUnits="userSpaceOnUse"
       id="clipPath11806">
      <path
         d="M -99.627002,391.2047 H 496.649 v -595.276 H -99.627002 Z"
         id="path11808"
         style="stroke-width:0.999998" />
    </clipPath>
    <clipPath
       clipPathUnits="userSpaceOnUse"
       id="clipPath11812">
      <path
         d="M -287.916,498.9606 H 308.36 v -595.276 h -596.276 z"
         id="path11814"
         style="stroke-width:0.999998" />
    </clipPath>
    <clipPath
       clipPathUnits="userSpaceOnUse"
       id="clipPath11818">
      <path
         d="M -279.3535,570.5875 H 316.92251 V -24.688501 H -279.3535 Z"
         id="path11820"
         style="stroke-width:0.999998" />
    </clipPath>
    <clipPath
       clipPathUnits="userSpaceOnUse"
       id="clipPath11824">
      <path
         d="m -360.0273,538.3707 h 596.276 V -56.905299 h -596.276 z"
         id="path11826"
         style="stroke-width:0.999998" />
    </clipPath>
    <clipPath
       clipPathUnits="userSpaceOnUse"
       id="clipPath11830">
      <path
         d="m -354.3193,451.6891 h 596.276 v -595.276 h -596.276 z"
         id="path11832"
         style="stroke-width:0.999998" />
    </clipPath>
    <clipPath
       clipPathUnits="userSpaceOnUse"
       id="clipPath11836">
      <path
         d="m -342.9189,411.0348 h 596.276 v -595.276 h -596.276 z"
         id="path11838"
         style="stroke-width:0.999998" />
    </clipPath>
    <clipPath
       clipPathUnits="userSpaceOnUse"
       id="clipPath11842">
      <path
         d="m -270.1162,430.3336 h 596.27601 v -595.276 H -270.1162 Z"
         id="path11844"
         style="stroke-width:0.999998" />
    </clipPath>
    <clipPath
       clipPathUnits="userSpaceOnUse"
       id="clipPath11848">
      <path
         d="m -223.7842,503.8141 h 596.276 V -91.461902 h -596.276 z"
         id="path11850"
         style="stroke-width:0.999998" />
    </clipPath>
    <clipPath
       clipPathUnits="userSpaceOnUse"
       id="clipPath11854">
      <path
         d="m -433.1191,446.8688 h 596.276 v -595.276 h -596.276 z"
         id="path11856"
         style="stroke-width:0.999998" />
    </clipPath>
    <clipPath
       clipPathUnits="userSpaceOnUse"
       id="clipPath11860">
      <path
         d="m -477.7129,503.5699 h 596.276 V -91.706102 h -596.276 z"
         id="path11862"
         style="stroke-width:0.999998" />
    </clipPath>
    <clipPath
       clipPathUnits="userSpaceOnUse"
       id="clipPath11866">
      <path
         d="M -511.9766,423.7457 H 84.299402 v -595.276 H -511.9766 Z"
         id="path11868"
         style="stroke-width:0.999998" />
    </clipPath>
    <clipPath
       clipPathUnits="userSpaceOnUse"
       id="clipPath11872">
      <path
         d="m -430.333,325.1598 h 596.276 v -595.276 h -596.276 z"
         id="path11874"
         style="stroke-width:0.999998" />
    </clipPath>
    <clipPath
       clipPathUnits="userSpaceOnUse"
       id="clipPath11878">
      <path
         d="M -503.8145,371.4918 H 92.461502 v -595.276 H -503.8145 Z"
         id="path11880"
         style="stroke-width:0.999998" />
    </clipPath>
    <clipPath
       clipPathUnits="userSpaceOnUse"
       id="clipPath11884">
      <path
         d="m -446.8672,162.1578 h 596.276 v -595.276 h -596.276 z"
         id="path11886"
         style="stroke-width:0.999998" />
    </clipPath>
    <clipPath
       clipPathUnits="userSpaceOnUse"
       id="clipPath11890">
      <path
         d="m -503.5693,117.5621 h 596.276 v -595.276 h -596.276 z"
         id="path11892"
         style="stroke-width:0.999998" />
    </clipPath>
    <clipPath
       clipPathUnits="userSpaceOnUse"
       id="clipPath11896">
      <path
         d="m -423.7441,83.298897 h 596.276 V -511.9771 h -596.276 z"
         id="path11898"
         style="stroke-width:0.999998" />
    </clipPath>
    <clipPath
       clipPathUnits="userSpaceOnUse"
       id="clipPath11902">
      <path
         d="m -366.4883,148.6266 h 596.27601 v -595.276 H -366.4883 Z"
         id="path11904"
         style="stroke-width:0.999998" />
    </clipPath>
    <clipPath
       clipPathUnits="userSpaceOnUse"
       id="clipPath11908">
      <path
         d="m -410.9277,223.2692 h 596.276 v -595.276 h -596.276 z"
         id="path11910"
         style="stroke-width:0.999998" />
    </clipPath>
    <clipPath
       clipPathUnits="userSpaceOnUse"
       id="clipPath11914">
      <path
         d="m -495.6484,204.0719 h 596.276 v -595.276 h -596.276 z"
         id="path11916"
         style="stroke-width:0.999998" />
    </clipPath>
    <clipPath
       clipPathUnits="userSpaceOnUse"
       id="clipPath11920">
      <path
         d="m -313.2861,297.6383 h 596.276 v -595.276 h -596.276 z"
         id="path11922"
         style="stroke-width:0.999998" />
    </clipPath>
    <clipPath
       clipPathUnits="userSpaceOnUse"
       id="clipPath11928">
      <path
         d="m -327.6582,179.2828 h 596.276 v -595.276 h -596.276 z"
         id="path11930"
         style="stroke-width:0.999998" />
    </clipPath>
    <clipPath
       clipPathUnits="userSpaceOnUse"
       id="clipPath11934">
      <path
         d="m -194.3525,232.5133 h 596.276 v -595.276 h -596.276 z"
         id="path11936"
         style="stroke-width:0.999998" />
    </clipPath>
    <clipPath
       clipPathUnits="userSpaceOnUse"
       id="clipPath11940">
      <path
         d="m -203.7852,375.7438 h 596.276 v -595.276 h -596.276 z"
         id="path11942"
         style="stroke-width:0.999998" />
    </clipPath>
    <clipPath
       clipPathUnits="userSpaceOnUse"
       id="clipPath11946">
      <path
         d="m -419.4785,289.6149 h 596.276 v -595.276 h -596.276 z"
         id="path11948"
         style="stroke-width:0.999998" />
    </clipPath>
    <clipPath
       clipPathUnits="userSpaceOnUse"
       id="clipPath11952">
      <path
         d="M -561.4131,585.8522 H 34.862903 V -9.4238027 H -561.4131 Z"
         id="path11954"
         style="stroke-width:0.999998" />
    </clipPath>
    <clipPath
       clipPathUnits="userSpaceOnUse"
       id="clipPath11958">
      <path
         d="M -564.5732,585.8483 H 31.702801 V -9.4277027 H -564.5732 Z"
         id="path11960"
         style="stroke-width:0.999998" />
    </clipPath>
    <clipPath
       clipPathUnits="userSpaceOnUse"
       id="clipPath11964">
      <path
         d="M -542.9326,584.5729 H 53.343399 V -10.7031 H -542.9326 Z"
         id="path11966"
         style="stroke-width:0.999998" />
    </clipPath>
    <clipPath
       clipPathUnits="userSpaceOnUse"
       id="clipPath11970">
      <path
         d="M -536.6982,584.5729 H 59.577804 V -10.7031 H -536.6982 Z"
         id="path11972"
         style="stroke-width:0.999998" />
    </clipPath>
  </defs>
  <sodipodi:namedview
     id="namedview10263"
     pagecolor="#ffffff"
     bordercolor="#000000"
     borderopacity="0.25"
     inkscape:showpageshadow="2"
     inkscape:pageopacity="0.0"
     inkscape:pagecheckerboard="0"
     inkscape:deskcolor="#d1d1d1"
     showgrid="false"
     inkscape:zoom="0.29734106"
     inkscape:cx="-215.24105"
     inkscape:cy="396.85068"
     inkscape:window-width="1419"
     inkscape:window-height="456"
     inkscape:window-x="0"
     inkscape:window-y="25"
     inkscape:window-maximized="0"
     inkscape:current-layer="svg10261">
    <inkscape:page
       x="0"
       y="0"
       id="page10267"
       width="795.03467"
       height="793.70135" />
  </sodipodi:namedview>
  <path
     d="M 409.813 128.422 C 409.813 135.495 404.08 141.226 397.008 141.226 C 389.936 141.226 384.201 135.495 384.201 128.422 C 384.201 121.349 389.936 115.615 397.008 115.615 C 404.08 115.615 409.813 121.349 409.813 128.422"
     style="fill:#000000;fill-opacity:1;fill-rule:nonzero;stroke:none"
     id="path10381" />
  <path
     d="M 421.228 32.9195 C 419.223 32.4115 417.212 32.1688 415.24 32.1688 C 408.693 32.1662 402.489 34.8355 397.993 39.3702 L 397.003 40.3648 L 396.02 39.3702 C 391.516 34.8355 385.313 32.1662 378.771 32.1688 C 376.795 32.1688 374.788 32.4088 372.781 32.9195 C 361.773 35.7102 354.444 45.6101 354.444 56.4608 C 354.444 58.4381 354.685 60.4474 355.199 62.4568 C 356.023 65.7061 357.461 68.6274 359.38 71.1621 L 389.292 112.334 C 390.699 111.657 392.205 111.159 393.789 110.87 L 393.792 93.0833 C 393.792 91.3074 395.229 89.8674 397.005 89.8674 C 398.784 89.8674 400.221 91.3074 400.221 93.0833 L 400.221 110.869 C 401.804 111.159 403.313 111.657 404.721 112.334 L 434.647 71.1407 C 436.551 68.6247 437.991 65.7061 438.813 62.4568 C 439.323 60.4474 439.563 58.4381 439.563 56.4608 C 439.563 45.6075 432.231 35.7075 421.228 32.9195"
     style="fill:#000000;fill-opacity:1;fill-rule:nonzero;stroke:none"
     id="path10385" />
  <path
     d="M 313.664 75.8752 C 312.559 77.6259 311.705 79.4605 311.096 81.3392 C 309.071 87.5645 309.692 94.2898 312.616 99.9658 L 313.256 101.214 L 312.005 101.843 C 306.303 104.726 301.847 109.796 299.825 116.023 C 299.216 117.902 298.824 119.884 298.692 121.952 C 297.941 133.283 305.091 143.312 315.412 146.663 C 317.292 147.275 319.277 147.668 321.349 147.799 C 324.692 148.023 327.917 147.554 330.919 146.515 L 379.32 130.788 C 379.111 129.242 379.103 127.655 379.317 126.06 L 362.401 120.56 C 360.712 120.012 359.788 118.2 360.336 116.51 C 360.888 114.819 362.7 113.898 364.388 114.444 L 381.304 119.942 C 382.068 118.526 383.008 117.242 384.085 116.115 L 354.159 74.9245 C 352.355 72.3365 350.024 70.0659 347.188 68.2792 C 345.433 67.1739 343.596 66.3246 341.716 65.7126 C 331.393 62.3579 319.712 66.2739 313.664 75.8752"
     style="fill:#000000;fill-opacity:1;fill-rule:nonzero;stroke:none"
     id="path10389" />
  <path
     d="M 321.275 191.45 C 322.599 193.041 324.08 194.419 325.679 195.578 C 330.971 199.429 337.56 200.914 343.863 199.89 L 345.25 199.666 L 345.462 201.049 C 346.44 207.365 349.887 213.171 355.183 217.015 C 356.782 218.177 358.546 219.161 360.47 219.926 C 371.016 224.143 382.763 220.439 389.14 211.661 C 390.303 210.059 391.289 208.294 392.055 206.367 C 393.3 203.255 393.853 200.041 393.791 196.867 L 393.791 145.977 C 392.255 145.698 390.743 145.213 389.292 144.518 L 378.835 158.903 C 377.792 160.343 375.783 160.661 374.346 159.617 C 372.907 158.57 372.59 156.562 373.634 155.125 L 384.086 140.737 C 382.976 139.573 382.048 138.282 381.307 136.906 L 332.884 152.643 C 329.867 153.557 326.984 155.075 324.41 157.218 C 322.818 158.546 321.44 160.031 320.28 161.63 C 313.899 170.411 314.012 182.729 321.275 191.45"
     style="fill:#000000;fill-opacity:1;fill-rule:nonzero;stroke:none"
     id="path10393" />
  <path
     d="M 433.546 219.924 C 435.469 219.159 437.238 218.173 438.834 217.012 C 444.13 213.167 447.579 207.361 448.555 201.049 L 448.769 199.661 L 450.15 199.891 C 456.459 200.908 463.045 199.424 468.339 195.577 C 469.937 194.416 471.418 193.041 472.741 191.448 C 480.01 182.721 480.119 170.405 473.741 161.627 C 472.575 160.028 471.202 158.541 469.605 157.219 C 467.029 155.075 464.145 153.555 461.106 152.632 L 412.705 136.907 C 411.966 138.282 411.041 139.57 409.929 140.734 L 420.382 155.124 C 421.425 156.563 421.109 158.569 419.671 159.617 C 418.231 160.661 416.223 160.34 415.179 158.903 L 404.723 144.515 C 403.275 145.211 401.761 145.698 400.223 145.976 L 400.225 196.893 C 400.163 200.044 400.713 203.255 401.961 206.367 C 402.729 208.291 403.715 210.057 404.878 211.656 C 411.257 220.44 423.009 224.137 433.546 219.924"
     style="fill:#000000;fill-opacity:1;fill-rule:nonzero;stroke:none"
     id="path10397" />
  <path
     d="M 495.322 121.949 C 495.183 119.881 494.794 117.896 494.185 116.021 C 492.166 109.794 487.709 104.718 482.007 101.842 L 480.755 101.208 L 481.398 99.9651 C 484.317 94.2811 484.942 87.5584 482.917 81.3331 C 482.303 79.4558 481.458 77.6224 480.35 75.8718 C 474.295 66.2625 462.618 62.3531 452.295 65.7078 C 450.415 66.3171 448.578 67.1665 446.827 68.2785 C 443.99 70.0625 441.657 72.3358 439.839 74.9425 L 409.925 116.114 C 411.005 117.242 411.944 118.524 412.708 119.937 L 429.625 114.444 C 431.313 113.896 433.127 114.817 433.677 116.508 C 434.226 118.2 433.301 120.012 431.613 120.56 L 414.696 126.057 C 414.91 127.65 414.905 129.242 414.694 130.788 L 463.118 146.52 C 466.098 147.554 469.319 148.022 472.665 147.798 C 474.733 147.664 476.718 147.27 478.599 146.658 C 488.922 143.306 496.071 133.273 495.322 121.949"
     style="fill:#000000;fill-opacity:1;fill-rule:nonzero;stroke:none"
     id="path10401" />
  <path
     d="M 216.208 197.877 C 221.208 202.877 221.208 210.986 216.208 215.986 C 211.207 220.989 203.099 220.986 198.097 215.986 C 193.096 210.984 193.096 202.877 198.097 197.877 C 203.099 192.874 211.207 192.874 216.208 197.877"
     style="fill:#000000;fill-opacity:1;fill-rule:nonzero;stroke:none"
     id="path10405" />
  <path
     d="M 156.75 122.275 C 154.973 123.334 153.379 124.583 151.985 125.978 C 147.354 130.606 144.854 136.879 144.881 143.266 L 144.886 144.668 L 143.486 144.662 C 137.094 144.638 130.822 147.138 126.195 151.766 C 124.798 153.164 123.55 154.752 122.493 156.531 C 116.682 166.288 118.499 178.471 126.171 186.143 C 127.57 187.542 129.162 188.791 130.945 189.851 C 133.826 191.564 136.909 192.613 140.057 193.049 L 190.322 201.009 C 190.837 199.539 191.553 198.119 192.466 196.796 L 179.89 184.216 C 178.635 182.963 178.633 180.927 179.89 179.671 C 181.149 178.414 183.182 178.416 184.438 179.668 L 197.015 192.247 C 198.338 191.332 199.758 190.616 201.23 190.101 L 193.266 139.812 C 192.833 136.688 191.786 133.604 190.07 130.727 C 189.009 128.946 187.758 127.355 186.359 125.956 C 178.685 118.282 166.501 116.467 156.75 122.275"
     style="fill:#000000;fill-opacity:1;fill-rule:nonzero;stroke:none"
     id="path10409" />
  <path
     d="M 111.064 228.708 C 111.521 230.729 112.216 232.627 113.112 234.388 C 116.083 240.221 121.276 244.536 127.359 246.484 L 128.695 246.913 L 128.255 248.241 C 126.259 254.315 126.696 261.052 129.669 266.883 C 130.565 268.643 131.691 270.32 133.059 271.877 C 140.54 280.419 152.688 282.453 162.356 277.528 C 164.119 276.629 165.8 275.505 167.357 274.132 C 169.879 271.924 171.829 269.315 173.216 266.456 L 196.32 221.112 C 195.078 220.167 193.95 219.049 192.976 217.771 L 177.125 225.844 C 175.543 226.648 173.607 226.02 172.8 224.44 C 171.995 222.853 172.625 220.919 174.204 220.112 L 190.052 212.039 C 189.592 210.497 189.349 208.924 189.314 207.367 L 139.027 199.401 C 135.923 198.848 132.667 198.891 129.396 199.632 C 127.376 200.091 125.477 200.789 123.715 201.687 C 114.044 206.615 108.551 217.64 111.064 228.708"
     style="fill:#000000;fill-opacity:1;fill-rule:nonzero;stroke:none"
     id="path10413" />
  <path
     d="M 198.169 305.049 C 200.232 305.24 202.253 305.164 204.202 304.856 C 210.669 303.836 216.377 300.226 220.11 295.046 L 220.933 293.909 L 222.06 294.737 C 227.218 298.51 233.76 300.18 240.224 299.15 C 242.174 298.844 244.12 298.292 246.02 297.47 C 256.458 292.994 262.146 282.07 260.449 271.354 C 260.14 269.401 259.588 267.453 258.766 265.549 C 257.445 262.468 255.566 259.804 253.276 257.604 L 217.29 221.62 C 216.008 222.508 214.596 223.235 213.081 223.768 L 215.858 241.336 C 216.138 243.09 214.942 244.737 213.188 245.016 C 211.429 245.292 209.786 244.096 209.508 242.344 L 206.724 224.776 C 205.116 224.737 203.546 224.481 202.05 224.033 L 178.937 269.401 C 177.45 272.18 176.485 275.292 176.18 278.63 C 175.994 280.692 176.07 282.716 176.38 284.669 C 178.078 295.39 186.866 304.021 198.169 305.049"
     style="fill:#000000;fill-opacity:1;fill-rule:nonzero;stroke:none"
     id="path10417" />
  <path
     d="M 297.691 245.796 C 298.508 243.895 299.063 241.949 299.372 239.999 C 300.398 233.533 298.731 226.991 294.958 221.837 L 294.128 220.705 L 295.267 219.889 C 300.447 216.148 304.054 210.441 305.078 203.979 C 305.386 202.028 305.462 200.007 305.271 197.944 C 304.239 186.635 295.608 177.851 284.888 176.154 C 282.938 175.843 280.916 175.766 278.848 175.96 C 275.511 176.266 272.398 177.228 269.598 178.726 L 224.253 201.829 C 224.702 203.324 224.958 204.892 224.997 206.501 L 242.563 209.285 C 244.316 209.564 245.512 211.208 245.236 212.963 C 244.956 214.72 243.311 215.913 241.555 215.637 L 223.99 212.856 C 223.457 214.372 222.729 215.785 221.841 217.069 L 257.843 253.072 C 260.028 255.345 262.687 257.225 265.77 258.547 C 267.674 259.361 269.619 259.913 271.575 260.223 C 282.296 261.921 293.22 256.228 297.691 245.796"
     style="fill:#000000;fill-opacity:1;fill-rule:nonzero;stroke:none"
     id="path10421" />
  <path
     d="M 272.095 132.836 C 270.535 131.472 268.856 130.344 267.099 129.448 C 261.268 126.473 254.528 126.036 248.462 128.033 L 247.13 128.472 L 246.703 127.139 C 244.75 121.053 240.438 115.857 234.604 112.888 C 232.843 111.993 230.948 111.296 228.927 110.841 C 217.851 108.328 206.83 113.82 201.901 123.492 C 201.006 125.252 200.305 127.151 199.853 129.176 C 199.11 132.443 199.066 135.701 199.625 138.831 L 207.586 189.096 C 209.146 189.129 210.715 189.372 212.255 189.831 L 220.334 173.984 C 221.139 172.403 223.074 171.773 224.656 172.577 C 226.242 173.388 226.87 175.323 226.064 176.903 L 217.99 192.752 C 219.268 193.725 220.388 194.856 221.334 196.099 L 266.698 172.984 C 269.536 171.607 272.146 169.659 274.352 167.137 C 275.719 165.577 276.844 163.895 277.742 162.132 C 282.672 152.463 280.631 140.312 272.095 132.836"
     style="fill:#000000;fill-opacity:1;fill-rule:nonzero;stroke:none"
     id="path10425" />
  <path
     d="M 128.421 383.887 C 135.496 383.887 141.226 389.622 141.226 396.692 C 141.226 403.764 135.496 409.496 128.421 409.499 C 121.348 409.499 115.616 403.767 115.616 396.692 C 115.616 389.622 121.348 383.887 128.421 383.887"
     style="fill:#000000;fill-opacity:1;fill-rule:nonzero;stroke:none"
     id="path10429" />
  <path
     d="M 32.918 372.473 C 32.41 374.478 32.1673 376.489 32.1673 378.46 C 32.166 385.006 34.834 391.21 39.3687 395.708 L 40.3646 396.694 L 39.3687 397.681 C 34.834 402.186 32.166 408.388 32.1673 414.932 C 32.1673 416.905 32.4073 418.913 32.918 420.918 C 35.7087 431.929 45.6073 439.257 56.4579 439.257 C 58.4366 439.257 60.4459 439.014 62.4553 438.501 C 65.7046 437.678 68.6272 436.238 71.1619 434.32 L 112.334 404.408 C 111.656 403.001 111.159 401.494 110.868 399.91 L 93.0805 399.91 C 91.3072 399.908 89.8672 398.47 89.8672 396.694 C 89.8672 394.916 91.3072 393.478 93.0805 393.478 L 110.868 393.478 C 111.159 391.897 111.656 390.388 112.331 388.978 L 71.1406 359.054 C 68.6246 357.15 65.7046 355.708 62.4553 354.888 C 60.4459 354.377 58.4366 354.137 56.4606 354.137 C 45.6046 354.137 35.706 361.47 32.918 372.473"
     style="fill:#000000;fill-opacity:1;fill-rule:nonzero;stroke:none"
     id="path10433" />
  <path
     d="M 75.8737 480.036 C 77.6244 481.143 79.4604 481.995 81.339 482.604 C 87.563 484.629 94.2897 484.008 99.9643 481.085 L 101.214 480.445 L 101.843 481.695 C 104.724 487.397 109.796 491.853 116.022 493.875 C 117.902 494.487 119.883 494.877 121.951 495.009 C 133.282 495.76 143.31 488.609 146.664 478.288 C 147.276 476.408 147.67 474.424 147.799 472.351 C 148.02 469.008 147.555 465.784 146.512 462.781 L 130.787 414.38 C 129.24 414.591 127.654 414.599 126.06 414.383 L 120.56 431.299 C 120.011 432.989 118.198 433.913 116.51 433.364 C 114.818 432.812 113.896 431 114.444 429.312 L 119.94 412.396 C 118.524 411.632 117.242 410.692 116.115 409.615 L 74.9217 439.541 C 72.3364 441.345 70.0657 443.676 68.2764 446.512 C 67.1737 448.268 66.3231 450.104 65.7124 451.984 C 62.3564 462.307 66.2711 473.989 75.8737 480.036"
     style="fill:#000000;fill-opacity:1;fill-rule:nonzero;stroke:none"
     id="path10437" />
  <path
     d="M 191.448 472.427 C 193.041 471.102 194.417 469.62 195.579 468.023 C 199.428 462.73 200.915 456.14 199.891 449.839 L 199.667 448.451 L 201.049 448.239 C 207.365 447.26 213.172 443.815 217.016 438.518 C 218.176 436.922 219.161 435.156 219.924 433.232 C 224.143 422.684 220.439 410.938 211.66 404.563 C 210.06 403.399 208.295 402.411 206.365 401.646 C 203.253 400.401 200.041 399.846 196.865 399.911 L 145.975 399.911 C 145.696 401.449 145.211 402.958 144.519 404.409 L 158.904 414.867 C 160.341 415.908 160.661 417.919 159.616 419.356 C 158.571 420.794 156.563 421.112 155.125 420.067 L 140.736 409.615 C 139.571 410.727 138.281 411.654 136.907 412.394 L 152.641 460.818 C 153.557 463.834 155.073 466.716 157.217 469.294 C 158.545 470.883 160.029 472.26 161.631 473.422 C 170.412 479.802 182.728 479.69 191.448 472.427"
     style="fill:#000000;fill-opacity:1;fill-rule:nonzero;stroke:none"
     id="path10441" />
  <path
     d="M 219.923 360.156 C 219.156 358.232 218.172 356.463 217.012 354.867 C 213.167 349.571 207.362 346.123 201.05 345.148 L 199.662 344.932 L 199.888 343.552 C 200.908 337.241 199.424 330.656 195.575 325.361 C 194.415 323.765 193.04 322.284 191.447 320.961 C 182.722 313.692 170.406 313.583 161.624 319.961 C 160.026 321.125 158.542 322.497 157.219 324.096 C 155.072 326.672 153.555 329.557 152.633 332.596 L 136.906 380.997 C 138.281 381.735 139.567 382.661 140.734 383.771 L 155.124 373.32 C 156.56 372.276 158.57 372.593 159.618 374.031 C 160.66 375.468 160.339 377.476 158.903 378.523 L 144.513 388.979 C 145.211 390.427 145.695 391.94 145.977 393.479 L 196.891 393.476 C 200.044 393.539 203.254 392.987 206.364 391.741 C 208.288 390.973 210.058 389.987 211.656 388.823 C 220.44 382.445 224.138 370.692 219.923 360.156"
     style="fill:#000000;fill-opacity:1;fill-rule:nonzero;stroke:none"
     id="path10445" />
  <path
     d="M 121.948 298.38 C 119.88 298.519 117.896 298.907 116.02 299.516 C 109.793 301.536 104.719 305.992 101.843 311.695 L 101.208 312.945 L 99.9641 312.304 C 94.2787 309.385 87.5574 308.76 81.3334 310.784 C 79.4548 311.399 77.6214 312.244 75.8708 313.352 C 66.2628 319.407 62.3521 331.083 65.7055 341.407 C 66.3175 343.287 67.1655 345.123 68.2775 346.875 C 70.0628 349.711 72.3361 352.044 74.9415 353.861 L 116.115 383.776 C 117.243 382.697 118.523 381.757 119.937 380.994 L 114.443 364.075 C 113.896 362.388 114.817 360.575 116.507 360.025 C 118.199 359.476 120.011 360.401 120.56 362.088 L 126.057 379.005 C 127.651 378.792 129.241 378.797 130.787 379.005 L 146.521 330.583 C 147.553 327.604 148.021 324.38 147.8 321.036 C 147.661 318.968 147.268 316.984 146.659 315.101 C 143.307 304.779 133.272 297.629 121.948 298.38"
     style="fill:#000000;fill-opacity:1;fill-rule:nonzero;stroke:none"
     id="path10449" />
  <path
     d="M 197.875 577.492 C 202.878 572.492 210.984 572.492 215.986 577.492 C 220.987 582.495 220.987 590.599 215.986 595.604 C 210.984 600.604 202.878 600.604 197.875 595.604 C 192.875 590.601 192.875 582.495 197.875 577.492"
     style="fill:#000000;fill-opacity:1;fill-rule:nonzero;stroke:none"
     id="path10453" />
  <path
     d="M 122.273 636.953 C 123.333 638.729 124.582 640.322 125.977 641.716 C 130.604 646.349 136.877 648.846 143.262 648.82 L 144.666 648.814 L 144.658 650.216 C 144.637 656.606 147.136 662.88 151.765 667.505 C 153.161 668.904 154.752 670.15 156.53 671.21 C 166.289 677.018 178.468 675.204 186.142 667.529 C 187.541 666.13 188.792 664.538 189.849 662.756 C 191.565 659.874 192.614 656.792 193.049 653.644 L 201.01 603.38 C 199.535 602.865 198.119 602.148 196.795 601.234 L 184.216 613.81 C 182.961 615.065 180.926 615.068 179.67 613.81 C 178.412 612.552 178.414 610.518 179.669 609.262 L 192.246 596.685 C 191.331 595.365 190.617 593.942 190.098 592.472 L 139.812 600.434 C 136.688 600.869 133.604 601.914 130.724 603.63 C 128.944 604.69 127.353 605.942 125.956 607.341 C 118.28 615.016 116.466 627.201 122.273 636.953"
     style="fill:#000000;fill-opacity:1;fill-rule:nonzero;stroke:none"
     id="path10457" />
  <path
     d="M 228.707 682.637 C 230.728 682.178 232.627 681.484 234.386 680.588 C 240.222 677.618 244.536 672.424 246.482 666.342 L 246.912 665.006 L 248.242 665.446 C 254.314 667.442 261.052 667.004 266.88 664.033 C 268.64 663.134 270.32 662.009 271.876 660.642 C 280.416 653.161 282.454 641.014 277.526 631.345 C 276.63 629.582 275.504 627.9 274.132 626.342 C 271.924 623.822 269.312 621.872 266.456 620.484 L 221.111 597.38 C 220.167 598.624 219.048 599.749 217.771 600.725 L 225.843 616.574 C 226.648 618.158 226.02 620.093 224.438 620.9 C 222.851 621.705 220.919 621.074 220.112 619.497 L 212.038 603.648 C 210.498 604.109 208.924 604.351 207.364 604.385 L 199.399 654.676 C 198.846 657.777 198.888 661.033 199.63 664.304 C 200.091 666.325 200.79 668.222 201.686 669.986 C 206.612 679.656 217.64 685.15 228.707 682.637"
     style="fill:#000000;fill-opacity:1;fill-rule:nonzero;stroke:none"
     id="path10461" />
  <path
     d="M 305.049 595.531 C 305.24 593.468 305.162 591.447 304.854 589.498 C 303.834 583.031 300.226 577.323 295.046 573.591 L 293.906 572.768 L 294.736 571.64 C 298.509 566.482 300.177 559.94 299.15 553.476 C 298.842 551.526 298.289 549.583 297.47 547.682 C 292.994 537.242 282.069 531.555 271.353 533.252 C 269.398 533.562 267.453 534.112 265.546 534.935 C 262.466 536.255 259.804 538.135 257.601 540.424 L 221.617 576.411 C 222.508 577.692 223.235 579.104 223.768 580.622 L 241.336 577.843 C 243.089 577.562 244.737 578.758 245.013 580.515 C 245.292 582.271 244.093 583.914 242.341 584.192 L 224.775 586.976 C 224.737 588.586 224.481 590.154 224.031 591.648 L 269.398 614.763 C 272.18 616.25 275.292 617.216 278.628 617.52 C 280.692 617.706 282.714 617.63 284.668 617.32 C 295.389 615.622 304.018 606.834 305.049 595.531"
     style="fill:#000000;fill-opacity:1;fill-rule:nonzero;stroke:none"
     id="path10465" />
  <path
     d="M 245.797 496.01 C 243.894 495.19 241.948 494.638 240 494.327 C 233.534 493.302 226.99 494.969 221.838 498.742 L 220.706 499.573 L 219.888 498.434 C 216.149 493.253 210.442 489.646 203.977 488.625 C 202.029 488.315 200.008 488.239 197.945 488.429 C 186.636 489.461 177.851 498.091 176.153 508.813 C 175.844 510.762 175.767 512.783 175.96 514.849 C 176.267 518.19 177.229 521.302 178.727 524.103 L 201.83 569.447 C 203.325 568.999 204.89 568.744 206.5 568.703 L 209.286 551.138 C 209.562 549.385 211.208 548.187 212.964 548.463 C 214.72 548.742 215.913 550.39 215.636 552.146 L 212.854 569.712 C 214.373 570.244 215.785 570.971 217.07 571.859 L 253.073 535.857 C 255.346 533.671 257.226 531.013 258.545 527.931 C 259.362 526.026 259.914 524.081 260.221 522.125 C 261.922 511.403 256.228 500.479 245.797 496.01"
     style="fill:#000000;fill-opacity:1;fill-rule:nonzero;stroke:none"
     id="path10469" />
  <path
     d="M 132.836 521.606 C 131.472 523.166 130.344 524.843 129.447 526.601 C 126.472 532.431 126.035 539.171 128.033 545.239 L 128.472 546.573 L 127.136 546.997 C 121.052 548.953 115.857 553.262 112.888 559.095 C 111.992 560.858 111.295 562.751 110.841 564.773 C 108.325 575.849 113.819 586.869 123.491 591.799 C 125.252 592.694 127.151 593.395 129.175 593.848 C 132.443 594.59 135.7 594.634 138.828 594.078 L 189.093 586.114 C 189.128 584.557 189.369 582.986 189.831 581.445 L 173.981 573.366 C 172.403 572.562 171.772 570.627 172.579 569.043 C 173.385 567.458 175.32 566.83 176.904 567.637 L 192.753 575.71 C 193.727 574.431 194.856 573.311 196.096 572.366 L 172.981 527.002 C 171.604 524.163 169.659 521.554 167.137 519.349 C 165.576 517.981 163.896 516.855 162.133 515.958 C 152.463 511.027 140.312 513.07 132.836 521.606"
     style="fill:#000000;fill-opacity:1;fill-rule:nonzero;stroke:none"
     id="path10473" />
  <path
     d="M 383.888 665.281 C 383.888 658.205 389.621 652.474 396.693 652.474 C 403.765 652.474 409.497 658.205 409.499 665.281 C 409.499 672.354 403.767 678.086 396.693 678.086 C 389.621 678.086 383.885 672.354 383.888 665.281"
     style="fill:#000000;fill-opacity:1;fill-rule:nonzero;stroke:none"
     id="path10477" />
  <path
     d="M 372.471 760.783 C 374.476 761.291 376.487 761.534 378.46 761.534 C 385.006 761.535 391.21 758.866 395.706 754.332 L 396.695 753.338 L 397.679 754.332 C 402.184 758.866 408.387 761.535 414.931 761.534 C 416.906 761.534 418.912 761.294 420.919 760.783 C 431.927 757.991 439.255 748.092 439.256 737.242 C 439.256 735.264 439.014 733.255 438.502 731.244 C 437.676 727.996 436.239 725.072 434.32 722.538 L 404.407 681.366 C 403 682.043 401.495 682.541 399.911 682.833 L 399.908 700.619 C 399.908 702.392 398.471 703.832 396.695 703.832 C 394.916 703.832 393.479 702.392 393.479 700.619 L 393.479 682.833 C 391.895 682.541 390.387 682.043 388.979 681.369 L 359.052 722.559 C 357.148 725.075 355.708 727.996 354.886 731.244 C 354.376 733.255 354.136 735.264 354.138 737.239 C 354.136 748.095 361.47 757.994 372.471 760.783"
     style="fill:#000000;fill-opacity:1;fill-rule:nonzero;stroke:none"
     id="path10481" />
  <path
     d="M 480.036 717.828 C 481.141 716.076 481.992 714.243 482.604 712.364 C 484.628 706.135 484.008 699.411 481.083 693.737 L 480.443 692.487 L 481.695 691.859 C 487.397 688.976 491.853 683.904 493.873 677.68 C 494.484 675.8 494.876 673.817 495.008 671.749 C 495.759 660.419 488.609 650.391 478.287 647.039 C 476.407 646.424 474.421 646.034 472.351 645.902 C 469.007 645.68 465.781 646.148 462.781 647.186 L 414.38 662.913 C 414.589 664.461 414.596 666.047 414.383 667.64 L 431.299 673.14 C 432.988 673.689 433.912 675.503 433.363 677.192 C 432.812 678.885 430.999 679.804 429.311 679.257 L 412.396 673.76 C 411.631 675.177 410.69 676.459 409.612 677.585 L 439.54 718.781 C 441.343 721.364 443.675 723.635 446.511 725.424 C 448.267 726.528 450.103 727.377 451.984 727.987 C 462.305 731.344 473.988 727.432 480.036 717.828"
     style="fill:#000000;fill-opacity:1;fill-rule:nonzero;stroke:none"
     id="path10485" />
  <path
     d="M 472.426 602.252 C 471.102 600.659 469.619 599.283 468.022 598.121 C 462.73 594.273 456.139 592.785 449.838 593.809 L 448.45 594.033 L 448.239 592.651 C 447.259 586.333 443.813 580.528 438.518 576.684 C 436.919 575.525 435.154 574.541 433.231 573.776 C 422.685 569.559 410.937 573.263 404.561 582.041 C 403.398 583.64 402.41 585.405 401.646 587.335 C 400.401 590.447 399.846 593.659 399.909 596.835 L 399.909 647.725 C 401.448 648.004 402.958 648.489 404.408 649.181 L 414.866 634.796 C 415.907 633.359 417.917 633.039 419.354 634.085 C 420.794 635.129 421.11 637.137 420.067 638.575 L 409.613 652.965 C 410.725 654.129 411.653 655.419 412.393 656.793 L 460.817 641.059 C 463.834 640.143 466.717 638.627 469.291 636.484 C 470.883 635.156 472.261 633.671 473.421 632.069 C 479.802 623.288 479.687 610.973 472.426 602.252"
     style="fill:#000000;fill-opacity:1;fill-rule:nonzero;stroke:none"
     id="path10489" />
  <path
     d="M 360.155 573.778 C 358.232 574.541 356.462 575.529 354.867 576.687 C 349.571 580.533 346.122 586.338 345.146 592.65 L 344.932 594.038 L 343.551 593.811 C 337.239 592.794 330.656 594.275 325.36 598.125 C 323.766 599.283 322.283 600.661 320.959 602.254 C 313.691 610.978 313.58 623.294 319.96 632.075 C 321.126 633.674 322.498 635.158 324.095 636.481 C 326.672 638.627 329.555 640.145 332.594 641.067 L 380.995 656.796 C 381.734 655.42 382.66 654.132 383.771 652.966 L 373.319 638.575 C 372.276 637.139 372.592 635.13 374.028 634.083 C 375.468 633.038 377.476 633.362 378.52 634.797 L 388.976 649.187 C 390.427 648.488 391.94 648.004 393.478 647.723 L 393.476 596.809 C 393.538 593.655 392.987 590.447 391.742 587.335 C 390.971 585.411 389.987 583.642 388.823 582.043 C 382.443 573.259 370.692 569.562 360.155 573.778"
     style="fill:#000000;fill-opacity:1;fill-rule:nonzero;stroke:none"
     id="path10493" />
  <path
     d="M 298.379 671.752 C 298.518 673.82 298.907 675.804 299.515 677.681 C 301.534 683.908 305.991 688.981 311.694 691.859 L 312.946 692.492 L 312.303 693.736 C 309.383 699.421 308.758 706.143 310.784 712.367 C 311.396 714.247 312.242 716.08 313.351 717.831 C 319.406 727.44 331.08 731.348 341.406 727.995 C 343.286 727.383 345.123 726.536 346.872 725.424 C 349.708 723.637 352.044 721.364 353.862 718.76 L 383.776 677.585 C 382.695 676.46 381.757 675.179 380.993 673.763 L 364.075 679.257 C 362.388 679.804 360.574 678.883 360.024 677.192 C 359.474 675.503 360.4 673.689 362.088 673.137 L 379.005 667.643 C 378.789 666.049 378.796 664.46 379.005 662.913 L 330.583 647.179 C 327.602 646.148 324.38 645.676 321.036 645.9 C 318.968 646.039 316.982 646.432 315.102 647.041 C 304.778 650.395 297.63 660.429 298.379 671.752"
     style="fill:#000000;fill-opacity:1;fill-rule:nonzero;stroke:none"
     id="path10497" />
  <path
     d="M 577.492 595.825 C 572.489 590.822 572.491 582.716 577.492 577.716 C 582.492 572.713 590.6 572.713 595.603 577.713 C 600.604 582.716 600.604 590.822 595.603 595.825 C 590.601 600.825 582.492 600.825 577.492 595.825"
     style="fill:#000000;fill-opacity:1;fill-rule:nonzero;stroke:none"
     id="path10501" />
  <path
     d="M 636.951 671.427 C 638.728 670.37 640.322 669.118 641.716 667.724 C 646.347 663.096 648.847 656.823 648.818 650.438 L 648.814 649.034 L 650.214 649.042 C 656.606 649.063 662.879 646.563 667.504 641.935 C 668.903 640.539 670.15 638.951 671.208 637.17 C 677.019 627.414 675.202 615.232 667.53 607.558 C 666.131 606.159 664.538 604.908 662.756 603.851 C 659.874 602.135 656.791 601.086 653.642 600.651 L 603.379 592.69 C 602.863 594.165 602.148 595.581 601.235 596.906 L 613.811 609.484 C 615.066 610.739 615.066 612.774 613.811 614.031 C 612.554 615.288 610.518 615.287 609.263 614.031 L 596.687 601.454 C 595.363 602.37 593.943 603.083 592.471 603.602 L 600.434 653.891 C 600.867 657.015 601.914 660.096 603.63 662.976 C 604.691 664.758 605.942 666.348 607.34 667.744 C 615.015 675.422 627.2 677.234 636.951 671.427"
     style="fill:#000000;fill-opacity:1;fill-rule:nonzero;stroke:none"
     id="path10505" />
  <path
     d="M 682.635 564.994 C 682.178 562.973 681.483 561.075 680.588 559.314 C 677.616 553.478 672.423 549.163 666.34 547.218 L 665.004 546.789 L 665.446 545.458 C 667.44 539.387 667.004 532.647 664.032 526.819 C 663.135 525.059 662.01 523.379 660.642 521.825 C 653.16 513.283 641.014 511.246 631.343 516.174 C 629.582 517.07 627.899 518.197 626.343 519.567 C 623.822 521.775 621.87 524.387 620.484 527.243 L 597.381 572.59 C 598.622 573.535 599.749 574.653 600.725 575.929 L 616.575 567.858 C 618.158 567.051 620.094 567.679 620.898 569.262 C 621.707 570.849 621.076 572.783 619.496 573.587 L 603.649 581.663 C 604.107 583.202 604.349 584.775 604.385 586.335 L 654.674 594.301 C 657.776 594.855 661.032 594.811 664.302 594.07 C 666.324 593.609 668.222 592.913 669.986 592.013 C 679.658 587.087 685.15 576.059 682.635 564.994"
     style="fill:#000000;fill-opacity:1;fill-rule:nonzero;stroke:none"
     id="path10509" />
  <path
     d="M 595.531 488.651 C 593.468 488.46 591.447 488.539 589.498 488.846 C 583.031 489.867 577.32 493.476 573.59 498.656 L 572.766 499.794 L 571.639 498.966 C 566.48 495.192 559.938 493.523 553.476 494.55 C 551.524 494.859 549.58 495.411 547.68 496.23 C 537.24 500.706 531.552 511.632 533.251 522.348 C 533.56 524.302 534.111 526.25 534.934 528.154 C 536.255 531.235 538.132 533.896 540.424 536.099 L 576.408 572.083 C 577.691 571.192 579.104 570.465 580.62 569.932 L 577.842 552.364 C 577.56 550.612 578.756 548.963 580.512 548.69 C 582.271 548.408 583.912 549.607 584.192 551.359 L 586.974 568.927 C 588.584 568.963 590.152 569.219 591.648 569.669 L 614.763 524.302 C 616.248 521.52 617.215 518.411 617.519 515.072 C 617.706 513.008 617.631 510.987 617.32 509.034 C 615.623 498.31 606.832 489.682 595.531 488.651"
     style="fill:#000000;fill-opacity:1;fill-rule:nonzero;stroke:none"
     id="path10513" />
  <path
     d="M 496.009 547.903 C 495.19 549.807 494.636 551.752 494.326 553.7 C 493.302 560.166 494.968 566.71 498.741 571.862 L 499.572 572.994 L 498.433 573.812 C 493.253 577.551 489.644 583.258 488.622 589.723 C 488.314 591.671 488.238 593.692 488.428 595.755 C 489.46 607.064 498.092 615.851 508.812 617.548 C 510.764 617.856 512.784 617.936 514.849 617.741 C 518.188 617.436 521.302 616.471 524.102 614.973 L 569.446 591.87 C 568.997 590.376 568.742 588.81 568.703 587.2 L 551.137 584.414 C 549.384 584.138 548.188 582.494 548.461 580.736 C 548.742 578.982 550.389 577.788 552.144 578.064 L 569.711 580.846 C 570.243 579.327 570.97 577.916 571.858 576.63 L 535.857 540.627 C 533.669 538.356 531.012 536.474 527.93 535.155 C 526.026 534.34 524.08 533.786 522.125 533.479 C 511.404 531.778 500.481 537.471 496.009 547.903"
     style="fill:#000000;fill-opacity:1;fill-rule:nonzero;stroke:none"
     id="path10517" />
  <path
     d="M 521.605 660.864 C 523.165 662.228 524.842 663.356 526.6 664.255 C 532.43 667.228 539.17 667.667 545.238 665.667 L 546.57 665.228 L 546.997 666.564 C 548.952 672.648 553.262 677.843 559.094 680.812 C 560.857 681.708 562.752 682.408 564.773 682.859 C 575.849 685.375 586.869 679.883 591.798 670.211 C 592.694 668.448 593.394 666.549 593.846 664.525 C 594.589 661.257 594.633 658 594.075 654.872 L 586.114 604.607 C 584.554 604.572 582.985 604.331 581.445 603.869 L 573.365 619.719 C 572.56 621.299 570.625 621.929 569.042 621.121 C 567.457 620.315 566.83 618.38 567.634 616.796 L 575.71 600.947 C 574.43 599.973 573.31 598.845 572.365 597.607 L 527.001 620.719 C 524.164 622.096 521.554 624.041 519.346 626.564 C 517.981 628.121 516.854 629.807 515.957 631.567 C 511.026 641.239 513.069 653.388 521.605 660.864"
     style="fill:#000000;fill-opacity:1;fill-rule:nonzero;stroke:none"
     id="path10521" />
  <path
     d="M 665.279 409.815 C 658.206 409.812 652.474 404.08 652.474 397.008 C 652.474 389.935 658.206 384.203 665.28 384.203 C 672.354 384.203 678.086 389.935 678.086 397.008 C 678.084 404.08 672.352 409.815 665.279 409.815"
     style="fill:#000000;fill-opacity:1;fill-rule:nonzero;stroke:none"
     id="path10525" />
  <path
     d="M 760.781 421.229 C 761.29 419.224 761.532 417.213 761.532 415.24 C 761.534 408.696 758.866 402.492 754.33 397.994 L 753.336 397.005 L 754.33 396.021 C 758.865 391.518 761.534 385.312 761.532 378.77 C 761.533 376.794 761.292 374.789 760.781 372.781 C 757.989 361.776 748.092 354.445 737.241 354.445 C 735.264 354.445 733.253 354.688 731.245 355.198 C 727.994 356.024 725.072 357.461 722.538 359.382 L 681.367 389.292 C 682.044 390.701 682.543 392.205 682.832 393.789 L 700.617 393.794 C 702.393 393.792 703.832 395.229 703.832 397.005 C 703.833 398.784 702.392 400.221 700.618 400.221 L 682.832 400.221 C 682.543 401.808 682.044 403.314 681.368 404.721 L 722.558 434.65 C 725.076 436.554 727.994 437.992 731.244 438.814 C 733.253 439.325 735.262 439.565 737.238 439.565 C 748.093 439.565 757.992 432.232 760.781 421.229"
     style="fill:#000000;fill-opacity:1;fill-rule:nonzero;stroke:none"
     id="path10529" />
  <path
     d="M 717.825 313.664 C 716.074 312.56 714.24 311.708 712.361 311.096 C 706.134 309.073 699.41 309.692 693.734 312.617 L 692.486 313.257 L 691.857 312.005 C 688.974 306.303 683.904 301.847 677.678 299.828 C 675.798 299.216 673.817 298.825 671.748 298.692 C 660.417 297.943 650.391 305.091 647.036 315.412 C 646.424 317.292 646.031 319.279 645.901 321.349 C 645.679 324.692 646.145 327.919 647.185 330.919 L 662.913 379.32 C 664.46 379.112 666.045 379.104 667.64 379.317 L 673.138 362.401 C 673.688 360.713 675.502 359.789 677.189 360.339 C 678.882 360.888 679.804 362.7 679.256 364.388 L 673.76 381.304 C 675.176 382.07 676.458 383.01 677.584 384.088 L 718.778 354.161 C 721.364 352.357 723.633 350.025 725.422 347.191 C 726.526 345.435 727.376 343.599 727.986 341.716 C 731.342 331.396 727.429 319.713 717.825 313.664"
     style="fill:#000000;fill-opacity:1;fill-rule:nonzero;stroke:none"
     id="path10533" />
  <path
     d="M 602.253 321.276 C 600.66 322.599 599.284 324.083 598.122 325.68 C 594.273 330.971 592.786 337.563 593.81 343.864 L 594.033 345.252 L 592.65 345.461 C 586.336 346.443 580.529 349.888 576.684 355.183 C 575.524 356.781 574.54 358.547 573.776 360.469 C 569.558 371.016 573.262 382.765 582.041 389.14 C 583.642 390.302 585.405 391.292 587.336 392.054 C 590.448 393.3 593.658 393.854 596.836 393.792 L 647.725 393.792 C 648.004 392.254 648.489 390.742 649.182 389.292 L 634.797 378.836 C 633.358 377.795 633.038 375.784 634.085 374.347 C 635.132 372.907 637.138 372.591 638.576 373.633 L 652.964 384.088 C 654.13 382.976 655.418 382.049 656.794 381.309 L 641.06 332.885 C 640.144 329.867 638.628 326.984 636.484 324.409 C 635.154 322.817 633.672 321.44 632.07 320.281 C 623.289 313.899 610.972 314.013 602.253 321.276"
     style="fill:#000000;fill-opacity:1;fill-rule:nonzero;stroke:none"
     id="path10537" />
  <path
     d="M 573.777 433.546 C 574.542 435.467 575.528 437.239 576.685 438.833 C 580.533 444.13 586.34 447.579 592.649 448.554 L 594.038 448.767 L 593.809 450.15 C 592.793 456.461 594.274 463.043 598.125 468.341 C 599.284 469.934 600.658 471.418 602.252 472.741 C 610.978 480.01 623.294 480.119 632.076 473.739 C 633.674 472.574 635.158 471.202 636.481 469.606 C 638.626 467.03 640.145 464.145 641.067 461.106 L 656.794 412.705 C 655.419 411.967 654.133 411.041 652.966 409.929 L 638.576 420.382 C 637.14 421.423 635.132 421.109 634.082 419.671 C 633.038 418.231 633.361 416.223 634.797 415.179 L 649.186 404.723 C 648.489 403.273 648.002 401.762 647.722 400.223 L 596.808 400.223 C 593.654 400.163 590.445 400.713 587.334 401.958 C 585.41 402.729 583.642 403.713 582.042 404.877 C 573.26 411.257 569.561 423.007 573.777 433.546"
     style="fill:#000000;fill-opacity:1;fill-rule:nonzero;stroke:none"
     id="path10541" />
  <path
     d="M 671.753 495.322 C 673.821 495.182 675.804 494.794 677.68 494.186 C 683.906 492.166 688.981 487.71 691.858 482.007 L 692.492 480.754 L 693.737 481.398 C 699.42 484.317 706.144 484.942 712.366 482.918 C 714.245 482.303 716.08 481.461 717.83 480.349 C 727.44 474.295 731.346 462.619 727.994 452.295 C 727.384 450.415 726.534 448.579 725.424 446.83 C 723.637 443.991 721.365 441.655 718.758 439.838 L 677.586 409.924 C 676.46 411.005 675.178 411.942 673.764 412.708 L 679.257 429.625 C 679.805 431.311 678.882 433.127 677.193 433.677 C 675.501 434.226 673.689 433.301 673.138 431.614 L 667.644 414.694 C 666.05 414.91 664.46 414.905 662.914 414.697 L 647.178 463.119 C 646.148 466.098 645.677 469.319 645.9 472.663 C 646.04 474.731 646.43 476.718 647.042 478.598 C 650.394 488.923 660.428 496.07 671.753 495.322"
     style="fill:#000000;fill-opacity:1;fill-rule:nonzero;stroke:none"
     id="path10545" />
  <path
     d="M 595.823 216.21 C 590.822 221.21 582.715 221.21 577.715 216.207 C 572.712 211.207 572.712 203.101 577.714 198.098 C 582.715 193.095 590.823 193.095 595.824 198.098 C 600.824 203.098 600.827 211.207 595.823 216.21"
     style="fill:#000000;fill-opacity:1;fill-rule:nonzero;stroke:none"
     id="path10549" />
  <path
     d="M 671.426 156.749 C 670.369 154.973 669.119 153.38 667.722 151.984 C 663.097 147.353 656.823 144.853 650.435 144.882 L 649.033 144.885 L 649.041 143.486 C 649.062 137.094 646.563 130.82 641.935 126.196 C 640.538 124.797 638.95 123.552 637.169 122.492 C 627.413 116.684 615.231 118.5 607.558 126.172 C 606.159 127.57 604.909 129.162 603.85 130.945 C 602.136 133.826 601.086 136.912 600.652 140.058 L 592.689 190.322 C 594.164 190.837 595.581 191.552 596.905 192.465 L 609.483 179.892 C 610.738 178.634 612.773 178.634 614.029 179.889 C 615.287 181.148 615.286 183.184 614.031 184.437 L 601.454 197.014 C 602.369 198.337 603.084 199.757 603.601 201.23 L 653.889 193.268 C 657.014 192.833 660.095 191.788 662.975 190.072 C 664.757 189.009 666.347 187.76 667.743 186.361 C 675.419 178.686 677.233 166.501 671.426 156.749"
     style="fill:#000000;fill-opacity:1;fill-rule:nonzero;stroke:none"
     id="path10553" />
  <path
     d="M 564.992 111.065 C 562.972 111.522 561.073 112.216 559.312 113.113 C 553.479 116.084 549.163 121.278 547.217 127.36 L 546.788 128.696 L 545.457 128.254 C 539.385 126.26 532.649 126.696 526.82 129.669 C 525.06 130.565 523.38 131.69 521.823 133.06 C 513.281 140.541 511.247 152.686 516.172 162.356 C 517.071 164.12 518.195 165.801 519.568 167.356 C 521.776 169.88 524.387 171.83 527.243 173.216 L 572.589 196.319 C 573.535 195.077 574.651 193.953 575.929 192.973 L 567.856 177.124 C 567.051 175.544 567.68 173.606 569.261 172.801 C 570.849 171.994 572.783 172.624 573.587 174.205 L 581.661 190.054 C 583.204 189.593 584.775 189.35 586.335 189.317 L 594.301 139.025 C 594.853 135.922 594.811 132.669 594.069 129.398 C 593.611 127.376 592.912 125.48 592.013 123.716 C 587.088 114.044 576.06 108.55 564.992 111.065"
     style="fill:#000000;fill-opacity:1;fill-rule:nonzero;stroke:none"
     id="path10557" />
  <path
     d="M 488.651 198.169 C 488.46 200.232 488.538 202.254 488.844 204.202 C 489.866 210.669 493.474 216.38 498.655 220.112 L 499.792 220.934 L 498.963 222.062 C 495.19 227.221 493.523 233.762 494.548 240.226 C 494.858 242.177 495.408 244.122 496.228 246.021 C 500.706 256.458 511.631 262.148 522.347 260.45 C 524.302 260.141 526.247 259.59 528.151 258.768 C 531.234 257.445 533.895 255.568 536.098 253.276 L 572.081 217.292 C 571.191 216.008 570.465 214.596 569.931 213.081 L 552.364 215.86 C 550.611 216.138 548.963 214.942 548.687 213.188 C 548.407 211.429 549.604 209.789 551.358 209.508 L 568.924 206.726 C 568.964 205.117 569.219 203.549 569.668 202.052 L 524.302 178.937 C 521.519 177.453 518.41 176.486 515.071 176.18 C 513.007 175.994 510.986 176.07 509.032 176.38 C 498.31 178.078 489.682 186.869 488.651 198.169"
     style="fill:#000000;fill-opacity:1;fill-rule:nonzero;stroke:none"
     id="path10561" />
  <path
     d="M 547.904 297.692 C 549.805 298.509 551.753 299.064 553.7 299.375 C 560.167 300.397 566.711 298.731 571.861 294.96 L 572.995 294.129 L 573.811 295.268 C 577.553 300.449 583.259 304.056 589.724 305.077 C 591.672 305.387 593.692 305.463 595.755 305.273 C 607.064 304.241 615.85 295.608 617.548 284.889 C 617.856 282.937 617.936 280.916 617.741 278.851 C 617.436 275.512 616.47 272.397 614.974 269.599 L 591.871 224.252 C 590.376 224.703 588.811 224.958 587.201 224.998 L 584.415 242.564 C 584.139 244.317 582.493 245.512 580.736 245.239 C 578.98 244.957 577.788 243.312 578.064 241.556 L 580.847 223.99 C 579.327 223.458 577.915 222.731 576.628 221.84 L 540.627 257.843 C 538.355 260.031 536.475 262.689 535.155 265.771 C 534.339 267.673 533.787 269.619 533.477 271.575 C 531.779 282.296 537.472 293.22 547.904 297.692"
     style="fill:#000000;fill-opacity:1;fill-rule:nonzero;stroke:none"
     id="path10565" />
  <path
     d="M 660.865 272.096 C 662.228 270.533 663.356 268.859 664.253 267.101 C 667.228 261.271 667.666 254.531 665.668 248.463 L 665.23 247.132 L 666.564 246.703 C 672.648 244.749 677.844 240.437 680.813 234.607 C 681.708 232.844 682.406 230.948 682.86 228.927 C 685.374 217.851 679.881 206.831 670.209 201.903 C 668.448 201.006 666.55 200.307 664.526 199.854 C 661.257 199.112 658 199.068 654.872 199.624 L 604.605 207.585 C 604.573 209.145 604.332 210.716 603.869 212.257 L 619.717 220.333 C 621.298 221.14 621.928 223.075 621.121 224.659 C 620.314 226.244 618.38 226.872 616.797 226.065 L 600.949 217.989 C 599.973 219.268 598.845 220.391 597.605 221.336 L 620.718 266.7 C 622.096 269.536 624.041 272.145 626.562 274.353 C 628.122 275.719 629.805 276.847 631.566 277.744 C 641.238 282.672 653.386 280.632 660.865 272.096"
     style="fill:#000000;fill-opacity:1;fill-rule:nonzero;stroke:none"
     id="path10569" />
  <path
     d="M 417.715 396.851 C 417.715 408.375 408.374 417.715 396.851 417.715 C 385.327 417.715 375.984 408.375 375.984 396.851 C 375.984 385.327 385.327 375.987 396.851 375.987 C 408.374 375.987 417.715 385.327 417.715 396.851"
     style="fill:#000000;fill-opacity:1;fill-rule:nonzero;stroke:none"
     id="path10573" />
  <path
     d="m 333.70839,304.88748 c 0.008,0.0107 0.0133,0.0187 0.0213,0.028"
     style="fill:#000000;fill-opacity:1;fill-rule:nonzero;stroke:none;stroke-width:1.33333"
     id="path10577" />
  <path
     d="m 333.70839,304.88748 0.0213,0.028"
     style="fill:#000000;fill-opacity:1;fill-rule:nonzero;stroke:none;stroke-width:1.33333"
     id="path10581" />
  <path
     d="M 436.878 239.044 C 421.989 235.268 406.945 239.992 396.85 250.153 C 386.757 239.992 371.713 235.268 356.824 239.044 C 334.409 244.732 320.846 267.511 326.532 289.924 C 327.952 295.517 330.434 300.56 333.709 304.888 L 383.597 373.552 C 386.691 371.786 390.17 370.62 393.878 370.21 L 393.878 339.27 C 393.878 337.629 395.209 336.298 396.851 336.298 C 398.493 336.298 399.825 337.629 399.825 339.27 L 399.825 370.21 C 403.533 370.62 407.011 371.786 410.106 373.552 L 459.993 304.888 C 463.269 300.56 465.75 295.517 467.171 289.924 C 472.857 267.511 459.294 244.732 436.878 239.044"
     style="fill:#000000;fill-opacity:1;fill-rule:nonzero;stroke:none"
     id="path10585" />
  <path
     d="M 259.137 310.018 C 250.942 323.013 250.788 338.778 257.333 351.521 C 244.548 357.979 235.408 370.827 234.398 386.156 C 232.881 409.228 250.353 429.168 273.43 430.687 C 279.185 431.064 284.748 430.263 289.876 428.484 L 370.594 402.258 C 369.873 398.768 369.838 395.099 370.594 391.444 L 341.171 381.884 C 339.609 381.378 338.755 379.703 339.263 378.14 C 339.77 376.578 341.447 375.723 343.007 376.231 L 372.433 385.791 C 373.967 382.39 376.153 379.442 378.786 377.046 L 328.898 308.382 C 325.796 303.93 321.769 300.01 316.888 296.933 C 297.328 284.599 271.472 290.458 259.137 310.018"
     style="fill:#000000;fill-opacity:1;fill-rule:nonzero;stroke:none"
     id="path10589" />
  <path
     d="M 271.714 500.992 C 281.537 512.799 296.485 517.823 310.626 515.531 C 312.818 529.687 322.213 542.352 336.477 548.049 C 357.955 556.623 382.316 546.167 390.892 524.689 C 393.031 519.331 393.984 513.795 393.88 508.367 L 393.88 423.492 C 390.339 423.102 386.839 422.003 383.596 420.151 L 365.411 445.183 C 364.446 446.511 362.588 446.804 361.26 445.839 C 359.932 444.875 359.638 443.016 360.602 441.687 L 378.787 416.659 C 376.027 414.146 373.9 411.159 372.432 407.911 L 291.714 434.138 C 286.519 435.713 281.547 438.333 277.113 442.023 C 259.337 456.815 256.921 483.219 271.714 500.992"
     style="fill:#000000;fill-opacity:1;fill-rule:nonzero;stroke:none"
     id="path10593" />
  <path
     d="M 457.225 548.046 C 471.49 542.351 480.885 529.686 483.078 515.53 C 497.218 517.819 512.165 512.798 521.99 500.991 C 536.782 483.215 534.365 456.814 516.589 442.022 C 512.154 438.333 507.185 435.713 501.989 434.137 L 421.27 407.91 C 419.804 411.156 417.676 414.145 414.916 416.656 L 433.1 441.686 C 434.066 443.016 433.772 444.872 432.442 445.838 C 431.114 446.804 429.254 446.508 428.29 445.182 L 410.106 420.15 C 406.864 422 403.364 423.101 399.824 423.492 L 399.824 508.363 C 399.718 513.794 400.673 519.33 402.81 524.686 C 411.386 546.166 435.749 556.622 457.225 548.046"
     style="fill:#000000;fill-opacity:1;fill-rule:nonzero;stroke:none"
     id="path10597" />
  <path
     d="M 559.305 386.153 C 558.294 370.828 549.153 357.978 536.369 351.517 C 542.914 338.778 542.757 323.01 534.565 310.017 C 522.23 290.456 496.374 284.596 476.815 296.932 C 471.935 300.008 467.908 303.929 464.803 308.38 L 414.915 377.044 C 417.551 379.442 419.735 382.39 421.272 385.792 L 450.693 376.232 C 452.256 375.724 453.933 376.577 454.441 378.14 C 454.947 379.7 454.093 381.377 452.531 381.885 L 423.109 391.445 C 423.864 395.098 423.829 398.768 423.107 402.257 L 503.826 428.484 C 508.954 430.26 514.516 431.065 520.274 430.684 C 543.349 429.169 560.822 409.229 559.305 386.153"
     style="fill:#000000;fill-opacity:1;fill-rule:nonzero;stroke:none"
     id="path10601" />
</svg>
