<?xml version="1.0" encoding="UTF-8" standalone="no"?>
<!-- Created with Inkscape (http://www.inkscape.org/) -->

<svg
   version="1.1"
   id="svg16737"
   width="795.03467"
   height="793.70135"
   viewBox="0 0 795.03467 793.70135"
   sodipodi:docname="Maruni Sakura.svg"
   inkscape:version="1.2 (dc2aeda, 2022-05-15)"
   xmlns:inkscape="http://www.inkscape.org/namespaces/inkscape"
   xmlns:sodipodi="http://sodipodi.sourceforge.net/DTD/sodipodi-0.dtd"
   xmlns="http://www.w3.org/2000/svg"
   xmlns:svg="http://www.w3.org/2000/svg">
  <defs
     id="defs16741">
    <clipPath
       clipPathUnits="userSpaceOnUse"
       id="clipPath17314">
      <path
         d="M -584.1943,578.9381 H 12.081705 V -16.337903 H -584.1943 Z"
         id="path17316"
         style="stroke-width:0.999998" />
    </clipPath>
    <clipPath
       clipPathUnits="userSpaceOnUse"
       id="clipPath17320">
      <path
         d="M -538.2217,577.9479 H 58.054299 V -17.328098 H -538.2217 Z"
         id="path17322"
         style="stroke-width:0.999998" />
    </clipPath>
    <clipPath
       clipPathUnits="userSpaceOnUse"
       id="clipPath17326">
      <path
         d="m -333.1328,297.6432 h 596.276 v -595.276 h -596.276 z"
         id="path17328"
         style="stroke-width:0.999998" />
    </clipPath>
    <clipPath
       clipPathUnits="userSpaceOnUse"
       id="clipPath17332">
      <path
         d="m -319.2129,261.816 h 596.276 V -333.46 h -596.276 z"
         id="path17334"
         style="stroke-width:0.999998" />
    </clipPath>
    <clipPath
       clipPathUnits="userSpaceOnUse"
       id="clipPath17338">
      <path
         d="m -270.2354,266.0553 h 596.276 v -595.276 h -596.276 z"
         id="path17340"
         style="stroke-width:0.999998" />
    </clipPath>
    <clipPath
       clipPathUnits="userSpaceOnUse"
       id="clipPath17344">
      <path
         d="m -259.1313,313.9479 h 596.276 v -595.276 h -596.276 z"
         id="path17346"
         style="stroke-width:0.999998" />
    </clipPath>
    <clipPath
       clipPathUnits="userSpaceOnUse"
       id="clipPath17350">
      <path
         d="m -301.2441,339.3092 h 596.276 v -595.276 h -596.276 z"
         id="path17352"
         style="stroke-width:0.999998" />
    </clipPath>
    <clipPath
       clipPathUnits="userSpaceOnUse"
       id="clipPath17356">
      <path
         d="m -338.374,307.0914 h 596.276 v -595.276 h -596.276 z"
         id="path17358"
         style="stroke-width:0.999998" />
    </clipPath>
    <clipPath
       clipPathUnits="userSpaceOnUse"
       id="clipPath17362">
      <path
         d="m -141.2578,141.2594 h 596.276 v -595.276 h -596.276 z"
         id="path17364"
         style="stroke-width:0.999998" />
    </clipPath>
    <clipPath
       clipPathUnits="userSpaceOnUse"
       id="clipPath17369">
      <path
         d="M -556.4014,578.0143 H 39.874606 V -17.2617 H -556.4014 Z"
         id="path17371"
         style="stroke-width:0.999998" />
    </clipPath>
    <clipPath
       clipPathUnits="userSpaceOnUse"
       id="clipPath17375">
      <path
         d="M -586.5449,579.5026 H 9.7311002 V -15.7734 H -586.5449 Z"
         id="path17377"
         style="stroke-width:0.999998" />
    </clipPath>
    <clipPath
       clipPathUnits="userSpaceOnUse"
       id="clipPath17381">
      <path
         d="M -557.4951,577.8502 H 38.780903 V -17.4258 H -557.4951 Z"
         id="path17383"
         style="stroke-width:0.999998" />
    </clipPath>
    <clipPath
       clipPathUnits="userSpaceOnUse"
       id="clipPath17387">
      <path
         d="M -568.2266,575.819 H 28.049401 V -19.457003 H -568.2266 Z"
         id="path17389"
         style="stroke-width:0.999998" />
    </clipPath>
    <clipPath
       clipPathUnits="userSpaceOnUse"
       id="clipPath17393">
      <path
         d="M -550.2637,577.3248 H 46.012306 V -17.951198 H -550.2637 Z"
         id="path17395"
         style="stroke-width:0.999998" />
    </clipPath>
    <clipPath
       clipPathUnits="userSpaceOnUse"
       id="clipPath17399">
      <path
         d="M -540.8213,585.8483 H 55.454701 V -9.4277027 H -540.8213 Z"
         id="path17401"
         style="stroke-width:0.999998" />
    </clipPath>
    <clipPath
       clipPathUnits="userSpaceOnUse"
       id="clipPath17405">
      <path
         d="M -531.1924,581.5885 H 65.083599 V -13.6875 H -531.1924 Z"
         id="path17407"
         style="stroke-width:0.999998" />
    </clipPath>
    <clipPath
       clipPathUnits="userSpaceOnUse"
       id="clipPath17411">
      <path
         d="M -564.5732,585.8483 H 31.702801 V -9.4277027 H -564.5732 Z"
         id="path17413"
         style="stroke-width:0.999998" />
    </clipPath>
    <clipPath
       clipPathUnits="userSpaceOnUse"
       id="clipPath17417">
      <path
         d="M -553.8975,585.8483 H 42.378504 V -9.4277027 H -553.8975 Z"
         id="path17419"
         style="stroke-width:0.999998" />
    </clipPath>
    <clipPath
       clipPathUnits="userSpaceOnUse"
       id="clipPath17423">
      <path
         d="M -572.8174,586.1354 H 23.458606 V -9.1406027 H -572.8174 Z"
         id="path17425"
         style="stroke-width:0.999998" />
    </clipPath>
    <clipPath
       clipPathUnits="userSpaceOnUse"
       id="clipPath17429">
      <path
         d="M -576.3691,585.5885 H 19.906905 V -9.6875027 H -576.3691 Z"
         id="path17431"
         style="stroke-width:0.999998" />
    </clipPath>
    <clipPath
       clipPathUnits="userSpaceOnUse"
       id="clipPath17435">
      <path
         d="M -542.9326,584.5729 H 53.343399 V -10.7031 H -542.9326 Z"
         id="path17437"
         style="stroke-width:0.999998" />
    </clipPath>
    <clipPath
       clipPathUnits="userSpaceOnUse"
       id="clipPath17441">
      <path
         d="M -557.0645,585.8483 H 39.211501 V -9.4277027 H -557.0645 Z"
         id="path17443"
         style="stroke-width:0.999998" />
    </clipPath>
    <clipPath
       clipPathUnits="userSpaceOnUse"
       id="clipPath17447">
      <path
         d="M -561.4131,585.8522 H 34.862903 V -9.4238027 H -561.4131 Z"
         id="path17449"
         style="stroke-width:0.999998" />
    </clipPath>
    <clipPath
       clipPathUnits="userSpaceOnUse"
       id="clipPath17453">
      <path
         d="M -567.7754,585.8522 H 28.500601 V -9.4238027 H -567.7754 Z"
         id="path17455"
         style="stroke-width:0.999998" />
    </clipPath>
    <clipPath
       clipPathUnits="userSpaceOnUse"
       id="clipPath17459">
      <path
         d="M -574.5459,585.8522 H 21.730103 V -9.4238027 H -574.5459 Z"
         id="path17461"
         style="stroke-width:0.999998" />
    </clipPath>
    <clipPath
       clipPathUnits="userSpaceOnUse"
       id="clipPath17465">
      <path
         d="M -548.9834,585.8522 H 47.292601 V -9.4238027 H -548.9834 Z"
         id="path17467"
         style="stroke-width:0.999998" />
    </clipPath>
    <clipPath
       clipPathUnits="userSpaceOnUse"
       id="clipPath17471">
      <path
         d="M -545.417,584.5729 H 50.859001 V -10.7031 H -545.417 Z"
         id="path17473"
         style="stroke-width:0.999998" />
    </clipPath>
    <clipPath
       clipPathUnits="userSpaceOnUse"
       id="clipPath17478">
      <path
         d="M -536.6982,584.5729 H 59.577804 V -10.7031 H -536.6982 Z"
         id="path17480"
         style="stroke-width:0.999998" />
    </clipPath>
    <clipPath
       clipPathUnits="userSpaceOnUse"
       id="clipPath17484">
      <path
         d="M -528.0898,575.3815 H 68.186199 V -19.8945 H -528.0898 Z"
         id="path17486"
         style="stroke-width:0.999998" />
    </clipPath>
  </defs>
  <sodipodi:namedview
     id="namedview16739"
     pagecolor="#ffffff"
     bordercolor="#000000"
     borderopacity="0.25"
     inkscape:showpageshadow="2"
     inkscape:pageopacity="0.0"
     inkscape:pagecheckerboard="0"
     inkscape:deskcolor="#d1d1d1"
     showgrid="false"
     inkscape:zoom="0.29734106"
     inkscape:cx="-215.24105"
     inkscape:cy="396.85068"
     inkscape:window-width="1419"
     inkscape:window-height="456"
     inkscape:window-x="0"
     inkscape:window-y="25"
     inkscape:window-maximized="0"
     inkscape:current-layer="svg16737">
    <inkscape:page
       x="0"
       y="0"
       id="page16743"
       width="795.03467"
       height="793.70135" />
  </sodipodi:namedview>
  <path
     d="M 444.177 396.858 C 444.177 422.997 422.982 444.183 396.849 444.183 C 370.717 444.183 349.527 422.997 349.527 396.858 C 349.527 370.718 370.717 349.533 396.849 349.533 C 422.982 349.533 444.177 370.718 444.177 396.858"
     style="fill:#000000;fill-opacity:1;fill-rule:nonzero;stroke:none"
     id="path16857" />
  <path
     d="M 425.617 349.088 L 508.423 235.068 C 517.469 222.852 522.813 207.743 522.813 191.386 C 522.746 150.786 489.909 117.954 449.324 117.886 C 429.26 117.886 411.106 125.931 397.838 138.971 L 396.861 139.937 L 395.873 138.971 C 382.616 125.931 364.45 117.886 344.4 117.886 C 303.813 117.954 270.977 150.786 270.909 191.386 C 270.909 207.743 276.243 222.852 285.3 235.08 L 368.117 349.065 C 375.196 344.803 383.306 342.061 391.988 341.307 L 391.998 290.531 C 391.998 287.837 394.184 285.691 396.861 285.679 C 399.541 285.679 401.722 287.837 401.736 290.531 L 401.736 341.291 C 410.414 342.048 418.537 344.811 425.617 349.088"
     style="fill:#000000;fill-opacity:1;fill-rule:nonzero;stroke:none"
     id="path16861" />
  <path
     d="M 360.314 354.74 L 277.464 240.75 C 268.638 228.372 255.918 218.62 240.356 213.567 C 201.722 201.084 160.357 222.166 147.748 260.746 C 141.547 279.828 143.588 299.576 151.896 316.229 L 152.509 317.455 L 151.281 318.099 C 134.787 326.679 121.516 341.463 115.327 360.535 C 102.848 399.159 123.931 440.53 162.518 453.145 C 178.072 458.198 194.094 457.794 208.516 452.962 L 342.523 409.421 C 340.658 401.367 340.549 392.801 342.511 384.317 L 294.233 368.615 C 291.665 367.784 290.302 365.044 291.116 362.492 C 291.95 359.944 294.671 358.537 297.239 359.356 L 345.509 375.043 C 348.922 367.017 354.047 360.155 360.314 354.74"
     style="fill:#000000;fill-opacity:1;fill-rule:nonzero;stroke:none"
     id="path16865" />
  <path
     d="M 345.508 418.597 L 211.49 462.169 C 196.992 466.737 183.788 475.82 174.174 489.054 C 150.358 521.937 157.624 567.797 190.428 591.71 C 206.66 603.507 226.064 607.662 244.47 604.913 L 245.832 604.705 L 246.063 606.066 C 249.124 624.411 259.09 641.598 275.312 653.38 C 308.192 677.182 354.045 669.919 377.973 637.114 C 387.587 623.882 392.151 608.525 392.011 593.311 L 392.011 452.414 C 383.767 451.701 375.592 449.15 368.139 444.662 L 338.275 485.734 C 336.696 487.913 333.667 488.367 331.493 486.799 C 329.331 485.226 328.836 482.197 330.407 480.013 L 360.237 438.946 C 353.663 433.225 348.712 426.222 345.508 418.597"
     style="fill:#000000;fill-opacity:1;fill-rule:nonzero;stroke:none"
     id="path16869" />
  <path
     d="M 401.659 452.412 L 401.68 593.33 C 401.55 608.53 406.102 623.894 415.716 637.129 C 439.643 669.935 485.497 677.197 518.377 653.39 C 534.612 641.604 544.567 624.422 547.637 606.07 L 547.859 604.72 L 549.232 604.913 C 567.616 607.672 587.039 603.514 603.262 591.724 C 636.065 567.808 643.321 521.948 619.516 489.063 C 609.901 475.831 596.709 466.74 582.188 462.168 L 448.192 418.631 C 444.966 426.245 440.018 433.232 433.443 438.943 L 463.272 480.028 C 464.863 482.208 464.36 485.228 462.198 486.815 C 460.023 488.385 456.995 487.921 455.404 485.753 L 425.562 444.685 C 418.088 449.177 409.902 451.712 401.659 452.412"
     style="fill:#000000;fill-opacity:1;fill-rule:nonzero;stroke:none"
     id="path16873" />
  <path
     d="M 451.165 409.455 L 585.195 452.978 C 599.618 457.806 615.641 458.216 631.193 453.163 C 669.782 440.552 690.864 399.182 678.384 360.556 C 672.186 341.475 658.926 326.697 642.419 318.105 L 641.203 317.477 L 641.805 316.237 C 650.126 299.597 652.164 279.838 645.966 260.77 C 633.354 222.182 591.979 201.108 553.346 213.586 C 537.794 218.641 525.075 228.383 516.24 240.771 L 433.42 354.762 C 439.664 360.182 444.778 367.048 448.182 375.066 L 496.472 359.384 C 499.038 358.554 501.75 359.967 502.594 362.512 C 503.418 365.056 502.036 367.8 499.492 368.643 L 451.21 384.331 C 453.177 392.827 453.056 401.396 451.165 409.455"
     style="fill:#000000;fill-opacity:1;fill-rule:nonzero;stroke:none"
     id="path16877" />
  <path
     d="M 188.344 188.346 C 134.917 241.821 101.991 315.318 101.982 396.86 C 101.991 478.392 134.917 551.889 188.344 605.362 C 241.816 658.777 315.316 691.713 396.85 691.738 C 478.397 691.713 551.896 658.777 605.37 605.362 C 658.784 551.889 691.72 478.392 691.732 396.86 C 691.72 315.318 658.784 241.821 605.37 188.346 C 551.896 134.927 478.397 101.992 396.85 101.97 C 315.316 101.992 241.816 134.927 188.344 188.346 M 31.7391 396.86 C 31.7604 195.186 195.192 31.7544 396.85 31.7304 C 598.519 31.7544 761.951 195.186 761.973 396.86 C 761.951 598.525 598.519 761.95 396.85 761.974 C 195.192 761.95 31.7604 598.525 31.7391 396.86"
     style="fill:#000000;fill-opacity:1;fill-rule:nonzero;stroke:none"
     id="path16881" />
</svg>
