<?xml version="1.0" encoding="UTF-8" standalone="no"?>
<!-- Created with Inkscape (http://www.inkscape.org/) -->

<svg
   version="1.1"
   id="svg14905"
   width="795.03467"
   height="793.70135"
   viewBox="0 0 795.03467 793.70135"
   sodipodi:docname="Maruni Hoso Sakura.svg"
   inkscape:version="1.2 (dc2aeda, 2022-05-15)"
   xmlns:inkscape="http://www.inkscape.org/namespaces/inkscape"
   xmlns:sodipodi="http://sodipodi.sourceforge.net/DTD/sodipodi-0.dtd"
   xmlns="http://www.w3.org/2000/svg"
   xmlns:svg="http://www.w3.org/2000/svg">
  <defs
     id="defs14909">
    <clipPath
       clipPathUnits="userSpaceOnUse"
       id="clipPath15398">
      <path
         d="M -536.6982,584.5729 H 59.577804 V -10.7031 H -536.6982 Z"
         id="path15400"
         style="stroke-width:0.999998" />
    </clipPath>
    <clipPath
       clipPathUnits="userSpaceOnUse"
       id="clipPath15404">
      <path
         d="M -557.0645,585.8483 H 39.211501 V -9.4277027 H -557.0645 Z"
         id="path15406"
         style="stroke-width:0.999998" />
    </clipPath>
    <clipPath
       clipPathUnits="userSpaceOnUse"
       id="clipPath15411">
      <path
         d="M -572.8174,586.1354 H 23.458606 V -9.1406027 H -572.8174 Z"
         id="path15413"
         style="stroke-width:0.999998" />
    </clipPath>
    <clipPath
       clipPathUnits="userSpaceOnUse"
       id="clipPath15417">
      <path
         d="M -574.5459,585.8522 H 21.730103 V -9.4238027 H -574.5459 Z"
         id="path15419"
         style="stroke-width:0.999998" />
    </clipPath>
    <clipPath
       clipPathUnits="userSpaceOnUse"
       id="clipPath15423">
      <path
         d="M -553.8975,585.8483 H 42.378504 V -9.4277027 H -553.8975 Z"
         id="path15425"
         style="stroke-width:0.999998" />
    </clipPath>
    <clipPath
       clipPathUnits="userSpaceOnUse"
       id="clipPath15429">
      <path
         d="M -545.417,584.5729 H 50.859001 V -10.7031 H -545.417 Z"
         id="path15431"
         style="stroke-width:0.999998" />
    </clipPath>
    <clipPath
       clipPathUnits="userSpaceOnUse"
       id="clipPath15435">
      <path
         d="M -528.0898,575.3815 H 68.186199 V -19.8945 H -528.0898 Z"
         id="path15437"
         style="stroke-width:0.999998" />
    </clipPath>
    <clipPath
       clipPathUnits="userSpaceOnUse"
       id="clipPath15441">
      <path
         d="M -531.1924,581.5885 H 65.083599 V -13.6875 H -531.1924 Z"
         id="path15443"
         style="stroke-width:0.999998" />
    </clipPath>
    <clipPath
       clipPathUnits="userSpaceOnUse"
       id="clipPath15447">
      <path
         d="M -548.9834,585.8522 H 47.292601 V -9.4238027 H -548.9834 Z"
         id="path15449"
         style="stroke-width:0.999998" />
    </clipPath>
    <clipPath
       clipPathUnits="userSpaceOnUse"
       id="clipPath15453">
      <path
         d="M -538.2217,577.9479 H 58.054299 V -17.328098 H -538.2217 Z"
         id="path15455"
         style="stroke-width:0.999998" />
    </clipPath>
    <clipPath
       clipPathUnits="userSpaceOnUse"
       id="clipPath15459">
      <path
         d="m -493.9277,233.7389 h 596.276 v -595.276 h -596.276 z"
         id="path15461"
         style="stroke-width:0.999998" />
    </clipPath>
    <clipPath
       clipPathUnits="userSpaceOnUse"
       id="clipPath15465">
      <path
         d="M -540.8213,585.8483 H 55.454701 V -9.4277027 H -540.8213 Z"
         id="path15467"
         style="stroke-width:0.999998" />
    </clipPath>
    <clipPath
       clipPathUnits="userSpaceOnUse"
       id="clipPath15471">
      <path
         d="M -542.9326,584.5729 H 53.343399 V -10.7031 H -542.9326 Z"
         id="path15473"
         style="stroke-width:0.999998" />
    </clipPath>
    <clipPath
       clipPathUnits="userSpaceOnUse"
       id="clipPath15477">
      <path
         d="M -561.4131,585.8522 H 34.862903 V -9.4238027 H -561.4131 Z"
         id="path15479"
         style="stroke-width:0.999998" />
    </clipPath>
    <clipPath
       clipPathUnits="userSpaceOnUse"
       id="clipPath15483">
      <path
         d="M -564.5732,585.8483 H 31.702801 V -9.4277027 H -564.5732 Z"
         id="path15485"
         style="stroke-width:0.999998" />
    </clipPath>
    <clipPath
       clipPathUnits="userSpaceOnUse"
       id="clipPath15489">
      <path
         d="M -567.7754,585.8522 H 28.500601 V -9.4238027 H -567.7754 Z"
         id="path15491"
         style="stroke-width:0.999998" />
    </clipPath>
    <clipPath
       clipPathUnits="userSpaceOnUse"
       id="clipPath15495">
      <path
         d="M -576.3691,585.5885 H 19.906905 V -9.6875027 H -576.3691 Z"
         id="path15497"
         style="stroke-width:0.999998" />
    </clipPath>
    <clipPath
       clipPathUnits="userSpaceOnUse"
       id="clipPath15501">
      <path
         d="M -557.4951,577.8502 H 38.780903 V -17.4258 H -557.4951 Z"
         id="path15503"
         style="stroke-width:0.999998" />
    </clipPath>
    <clipPath
       clipPathUnits="userSpaceOnUse"
       id="clipPath15507">
      <path
         d="M -568.2266,575.819 H 28.049401 V -19.457003 H -568.2266 Z"
         id="path15509"
         style="stroke-width:0.999998" />
    </clipPath>
    <clipPath
       clipPathUnits="userSpaceOnUse"
       id="clipPath15513">
      <path
         d="M -550.2637,577.3248 H 46.012306 V -17.951198 H -550.2637 Z"
         id="path15515"
         style="stroke-width:0.999998" />
    </clipPath>
    <clipPath
       clipPathUnits="userSpaceOnUse"
       id="clipPath15520">
      <path
         d="M -556.4014,578.0143 H 39.874606 V -17.2617 H -556.4014 Z"
         id="path15522"
         style="stroke-width:0.999998" />
    </clipPath>
    <clipPath
       clipPathUnits="userSpaceOnUse"
       id="clipPath15526">
      <path
         d="M -586.5449,579.5026 H 9.7311002 V -15.7734 H -586.5449 Z"
         id="path15528"
         style="stroke-width:0.999998" />
    </clipPath>
    <clipPath
       clipPathUnits="userSpaceOnUse"
       id="clipPath15532">
      <path
         d="M -584.1943,578.9381 H 12.081705 V -16.337903 H -584.1943 Z"
         id="path15534"
         style="stroke-width:0.999998" />
    </clipPath>
  </defs>
  <sodipodi:namedview
     id="namedview14907"
     pagecolor="#ffffff"
     bordercolor="#000000"
     borderopacity="0.25"
     inkscape:showpageshadow="2"
     inkscape:pageopacity="0.0"
     inkscape:pagecheckerboard="0"
     inkscape:deskcolor="#d1d1d1"
     showgrid="false"
     inkscape:zoom="0.29734106"
     inkscape:cx="-215.24105"
     inkscape:cy="396.85068"
     inkscape:window-width="1419"
     inkscape:window-height="456"
     inkscape:window-x="0"
     inkscape:window-y="25"
     inkscape:window-maximized="0"
     inkscape:current-layer="svg14905">
    <inkscape:page
       x="0"
       y="0"
       id="page14911"
       width="795.03467"
       height="793.70135" />
  </sodipodi:namedview>
  <path
     d="M 658.57 311.652 L 670.523 288.188 C 627.214 276.665 580.218 277.071 534.4 291.955 C 493.841 305.136 459.206 328.037 432.181 357.248 C 437.725 362.183 442.299 368.327 445.432 375.461 L 493.112 359.969 C 495.912 359.059 498.92 360.589 499.829 363.392 C 500.741 366.193 499.206 369.204 496.409 370.113 L 448.727 385.605 C 450.387 393.22 450.297 400.873 448.713 408.125 C 487.745 415.873 529.228 414.042 569.786 400.868 C 615.682 385.952 653.994 358.592 682.271 323.728 Z M 445.435 418.214 C 442.455 425.013 438.025 431.261 432.207 436.446 L 461.674 477.004 C 463.405 479.386 462.878 482.72 460.496 484.452 C 458.112 486.182 454.775 485.654 453.045 483.274 L 423.577 442.714 C 416.849 446.646 409.541 448.925 402.153 449.662 C 406.848 489.176 421.408 528.063 446.472 562.566 C 474.84 601.605 512.7 629.589 554.597 645.706 L 558.758 619.433 L 584.765 623.553 C 582.342 578.799 567.433 534.23 539.118 495.253 C 514.049 460.753 481.565 434.892 445.435 418.214 M 340.653 483.272 C 338.923 485.654 335.589 486.182 333.207 484.452 C 330.821 482.72 330.293 479.384 332.023 477.004 L 361.491 436.444 C 355.673 431.258 351.247 425.012 348.265 418.214 C 312.135 434.889 279.651 460.753 254.582 495.253 C 226.219 534.294 211.304 578.951 208.922 623.777 L 235.195 619.615 L 239.315 645.623 C 281.127 629.49 318.908 601.539 347.228 562.566 C 372.292 528.063 386.852 489.176 391.545 449.66 C 384.16 448.928 376.849 446.644 370.12 442.712 Z M 344.987 408.125 C 343.403 400.876 343.315 393.217 344.975 385.602 L 297.294 370.111 C 294.494 369.201 292.96 366.193 293.871 363.395 C 294.78 360.592 297.791 359.056 300.59 359.967 L 348.269 375.457 C 351.403 368.324 355.976 362.183 361.519 357.245 C 334.495 328.037 299.859 305.136 259.302 291.955 C 213.406 277.045 166.327 276.66 122.958 288.245 L 135.035 311.947 L 111.574 323.903 C 139.837 358.683 178.097 385.974 223.914 400.865 C 264.474 414.042 305.956 415.873 344.987 408.125 M 391.519 344.04 L 391.519 293.904 C 391.519 290.961 393.904 288.573 396.849 288.573 C 399.796 288.573 402.185 290.961 402.185 293.904 L 402.185 344.04 C 409.939 344.813 417.193 347.264 423.599 351.012 C 443.029 316.285 454.105 276.267 454.109 233.622 C 454.105 185.363 439.925 140.47 415.504 102.805 L 396.695 121.612 L 378.076 102.995 C 353.731 140.623 339.596 185.444 339.592 233.622 C 339.596 276.267 350.672 316.285 370.101 351.012 C 376.508 347.264 383.765 344.813 391.519 344.04 M 439.264 396.852 C 439.264 373.428 420.275 354.441 396.851 354.441 C 373.427 354.441 354.437 373.428 354.437 396.852 C 354.437 420.277 373.427 439.264 396.851 439.264 C 420.275 439.264 439.264 420.277 439.264 396.852 M 396.848 701.971 C 228.334 701.971 91.7248 565.362 91.7248 396.849 C 91.7248 228.335 228.334 91.7259 396.848 91.7259 C 565.362 91.7259 701.97 228.335 701.97 396.849 C 701.97 565.362 565.362 701.971 396.848 701.971 M 396.851 31.73 C 195.2 31.73 31.7289 195.202 31.7289 396.852 C 31.7289 598.503 195.2 761.974 396.851 761.974 C 598.501 761.974 761.972 598.503 761.972 396.852 C 761.972 195.202 598.501 31.73 396.851 31.73"
     style="fill:#000000;fill-opacity:1;fill-rule:nonzero;stroke:none"
     id="path15025" />
</svg>
