<?xml version="1.0" encoding="UTF-8" standalone="no"?>
<!-- Created with Inkscape (http://www.inkscape.org/) -->

<svg
   version="1.1"
   id="svg1137"
   width="795.03467"
   height="793.70135"
   viewBox="0 0 795.03467 793.70135"
   sodipodi:docname="Mitsuwari Hoso Yamazakura.svg"
   inkscape:version="1.2 (dc2aeda, 2022-05-15)"
   xmlns:inkscape="http://www.inkscape.org/namespaces/inkscape"
   xmlns:sodipodi="http://sodipodi.sourceforge.net/DTD/sodipodi-0.dtd"
   xmlns="http://www.w3.org/2000/svg"
   xmlns:svg="http://www.w3.org/2000/svg">
  <defs
     id="defs1141">
    <clipPath
       clipPathUnits="userSpaceOnUse"
       id="clipPath1784">
      <path
         d="M -567.7754,585.8522 H 28.500601 V -9.4238027 H -567.7754 Z"
         id="path1786"
         style="stroke-width:0.999998" />
    </clipPath>
    <clipPath
       clipPathUnits="userSpaceOnUse"
       id="clipPath1790">
      <path
         d="M -564.5732,585.8483 H 31.702801 V -9.4277027 H -564.5732 Z"
         id="path1792"
         style="stroke-width:0.999998" />
    </clipPath>
    <clipPath
       clipPathUnits="userSpaceOnUse"
       id="clipPath1797">
      <path
         d="M -572.8174,586.1354 H 23.458606 V -9.1406027 H -572.8174 Z"
         id="path1799"
         style="stroke-width:0.999998" />
    </clipPath>
    <clipPath
       clipPathUnits="userSpaceOnUse"
       id="clipPath1803">
      <path
         d="M -574.5459,585.8522 H 21.730103 V -9.4238027 H -574.5459 Z"
         id="path1805"
         style="stroke-width:0.999998" />
    </clipPath>
    <clipPath
       clipPathUnits="userSpaceOnUse"
       id="clipPath1809">
      <path
         d="M -576.3691,585.5885 H 19.906905 V -9.6875027 H -576.3691 Z"
         id="path1811"
         style="stroke-width:0.999998" />
    </clipPath>
    <clipPath
       clipPathUnits="userSpaceOnUse"
       id="clipPath1815">
      <path
         d="M -557.4951,577.8502 H 38.780903 V -17.4258 H -557.4951 Z"
         id="path1817"
         style="stroke-width:0.999998" />
    </clipPath>
    <clipPath
       clipPathUnits="userSpaceOnUse"
       id="clipPath1821">
      <path
         d="m -317.334,61.8199 h 596.276 v -595.276 h -596.276 z"
         id="path1823"
         style="stroke-width:0.999998" />
    </clipPath>
    <clipPath
       clipPathUnits="userSpaceOnUse"
       id="clipPath1827">
      <path
         d="M -496.333,455.0377 H 99.943 v -595.276 h -596.276 z"
         id="path1829"
         style="stroke-width:0.999998" />
    </clipPath>
    <clipPath
       clipPathUnits="userSpaceOnUse"
       id="clipPath1833">
      <path
         d="m -492.0361,432.6393 h 596.276 v -595.276 h -596.276 z"
         id="path1835"
         style="stroke-width:0.999998" />
    </clipPath>
    <clipPath
       clipPathUnits="userSpaceOnUse"
       id="clipPath1839">
      <path
         d="M -553.8975,585.8483 H 42.378504 V -9.4277027 H -553.8975 Z"
         id="path1841"
         style="stroke-width:0.999998" />
    </clipPath>
    <clipPath
       clipPathUnits="userSpaceOnUse"
       id="clipPath1845">
      <path
         d="M -557.0645,585.8483 H 39.211501 V -9.4277027 H -557.0645 Z"
         id="path1847"
         style="stroke-width:0.999998" />
    </clipPath>
    <clipPath
       clipPathUnits="userSpaceOnUse"
       id="clipPath1851">
      <path
         d="M -561.4131,585.8522 H 34.862903 V -9.4238027 H -561.4131 Z"
         id="path1853"
         style="stroke-width:0.999998" />
    </clipPath>
    <clipPath
       clipPathUnits="userSpaceOnUse"
       id="clipPath1857">
      <path
         d="M -568.2266,575.819 H 28.049401 V -19.457003 H -568.2266 Z"
         id="path1859"
         style="stroke-width:0.999998" />
    </clipPath>
    <clipPath
       clipPathUnits="userSpaceOnUse"
       id="clipPath1863">
      <path
         d="M -550.2637,577.3248 H 46.012306 V -17.951198 H -550.2637 Z"
         id="path1865"
         style="stroke-width:0.999998" />
    </clipPath>
    <clipPath
       clipPathUnits="userSpaceOnUse"
       id="clipPath1870">
      <path
         d="M -556.4014,578.0143 H 39.874606 V -17.2617 H -556.4014 Z"
         id="path1872"
         style="stroke-width:0.999998" />
    </clipPath>
    <clipPath
       clipPathUnits="userSpaceOnUse"
       id="clipPath1876">
      <path
         d="M -586.5449,579.5026 H 9.7311002 V -15.7734 H -586.5449 Z"
         id="path1878"
         style="stroke-width:0.999998" />
    </clipPath>
    <clipPath
       clipPathUnits="userSpaceOnUse"
       id="clipPath1882">
      <path
         d="M -584.1943,578.9381 H 12.081705 V -16.337903 H -584.1943 Z"
         id="path1884"
         style="stroke-width:0.999998" />
    </clipPath>
    <clipPath
       clipPathUnits="userSpaceOnUse"
       id="clipPath1888">
      <path
         d="M -538.2217,577.9479 H 58.054299 V -17.328098 H -538.2217 Z"
         id="path1890"
         style="stroke-width:0.999998" />
    </clipPath>
    <clipPath
       clipPathUnits="userSpaceOnUse"
       id="clipPath1894">
      <path
         d="m -297.6377,60.1031 h 596.276 v -595.276 h -596.276 z"
         id="path1896"
         style="stroke-width:0.999998" />
    </clipPath>
    <clipPath
       clipPathUnits="userSpaceOnUse"
       id="clipPath1900">
      <path
         d="m -334.584,46.8981 h 596.276 v -595.276 h -596.276 z"
         id="path1902"
         style="stroke-width:0.999998" />
    </clipPath>
    <clipPath
       clipPathUnits="userSpaceOnUse"
       id="clipPath1906">
      <path
         d="M -503.3711,416.4381 H 92.904902 v -595.276 H -503.3711 Z"
         id="path1908"
         style="stroke-width:0.999998" />
    </clipPath>
    <clipPath
       clipPathUnits="userSpaceOnUse"
       id="clipPath1912">
      <path
         d="M -533.2793,391.0455 H 62.996702 v -595.276 H -533.2793 Z"
         id="path1914"
         style="stroke-width:0.999998" />
    </clipPath>
    <clipPath
       clipPathUnits="userSpaceOnUse"
       id="clipPath1918">
      <path
         d="m -260.6934,46.8981 h 596.276 v -595.276 h -596.276 z"
         id="path1920"
         style="stroke-width:0.999998" />
    </clipPath>
    <clipPath
       clipPathUnits="userSpaceOnUse"
       id="clipPath1924">
      <path
         d="M -91.908197,416.444 H 504.36781 V -178.832 H -91.908197 Z"
         id="path1926"
         style="stroke-width:0.999998" />
    </clipPath>
    <clipPath
       clipPathUnits="userSpaceOnUse"
       id="clipPath1930">
      <path
         d="M -98.945297,455.0377 H 497.3307 v -595.276 H -98.945297 Z"
         id="path1932"
         style="stroke-width:0.999998" />
    </clipPath>
    <clipPath
       clipPathUnits="userSpaceOnUse"
       id="clipPath1936">
      <path
         d="m -62,391.0455 h 596.276 v -595.276 H -62 Z"
         id="path1938"
         style="stroke-width:0.999998" />
    </clipPath>
    <clipPath
       clipPathUnits="userSpaceOnUse"
       id="clipPath1942">
      <path
         d="M -83.546897,398.526 H 512.72911 V -196.75 H -83.546897 Z"
         id="path1944"
         style="stroke-width:0.999998" />
    </clipPath>
    <clipPath
       clipPathUnits="userSpaceOnUse"
       id="clipPath1948">
      <path
         d="M -536.6982,584.5729 H 59.577804 V -10.7031 H -536.6982 Z"
         id="path1950"
         style="stroke-width:0.999998" />
    </clipPath>
    <clipPath
       clipPathUnits="userSpaceOnUse"
       id="clipPath1954">
      <path
         d="M -545.417,584.5729 H 50.859001 V -10.7031 H -545.417 Z"
         id="path1956"
         style="stroke-width:0.999998" />
    </clipPath>
    <clipPath
       clipPathUnits="userSpaceOnUse"
       id="clipPath1960">
      <path
         d="M -528.0898,575.3815 H 68.186199 V -19.8945 H -528.0898 Z"
         id="path1962"
         style="stroke-width:0.999998" />
    </clipPath>
    <clipPath
       clipPathUnits="userSpaceOnUse"
       id="clipPath1966">
      <path
         d="M -531.1924,581.5885 H 65.083599 V -13.6875 H -531.1924 Z"
         id="path1968"
         style="stroke-width:0.999998" />
    </clipPath>
    <clipPath
       clipPathUnits="userSpaceOnUse"
       id="clipPath1972">
      <path
         d="M -542.9326,584.5729 H 53.343399 V -10.7031 H -542.9326 Z"
         id="path1974"
         style="stroke-width:0.999998" />
    </clipPath>
    <clipPath
       clipPathUnits="userSpaceOnUse"
       id="clipPath1978">
      <path
         d="M -548.9834,585.8522 H 47.292601 V -9.4238027 H -548.9834 Z"
         id="path1980"
         style="stroke-width:0.999998" />
    </clipPath>
    <clipPath
       clipPathUnits="userSpaceOnUse"
       id="clipPath1984">
      <path
         d="M -540.8213,585.8483 H 55.454701 V -9.4277027 H -540.8213 Z"
         id="path1986"
         style="stroke-width:0.999998" />
    </clipPath>
  </defs>
  <sodipodi:namedview
     id="namedview1139"
     pagecolor="#ffffff"
     bordercolor="#000000"
     borderopacity="0.25"
     inkscape:showpageshadow="2"
     inkscape:pageopacity="0.0"
     inkscape:pagecheckerboard="0"
     inkscape:deskcolor="#d1d1d1"
     showgrid="false"
     inkscape:zoom="0.29734106"
     inkscape:cx="-215.24105"
     inkscape:cy="396.85068"
     inkscape:window-width="1419"
     inkscape:window-height="456"
     inkscape:window-x="0"
     inkscape:window-y="25"
     inkscape:window-maximized="0"
     inkscape:current-layer="svg1137">
    <inkscape:page
       x="0"
       y="0"
       id="page1143"
       width="795.03467"
       height="793.70135" />
  </sodipodi:namedview>
  <path
     d="M 396.85 80.1375 C 422.994 80.1375 444.555 60.5855 447.754 35.3096 C 431.114 32.9883 414.127 31.7603 396.85 31.7603 C 379.573 31.7603 362.586 32.9883 345.946 35.3096 C 349.143 60.5855 370.707 80.1375 396.85 80.1375"
     style="fill:#000000;fill-opacity:1;fill-rule:nonzero;stroke:none"
     id="path1257" />
  <path
     d="M 347.591 62.5308 L 297.822 102.741 C 297.044 103.369 296.116 103.671 295.192 103.671 C 293.968 103.671 292.759 103.14 291.932 102.116 C 290.48 100.317 290.758 97.6814 292.558 96.228 L 343.312 55.2255 C 340.463 49.4628 338.526 43.1735 337.667 36.5415 C 230.741 53.9722 139.417 117.841 85.073 206.778 L 119.377 197.585 L 129.668 235.994 C 228.009 228.281 312.204 170.612 357.424 88.5121 C 359.372 84.9747 361.38 81.5308 363.378 78.2441 C 357.182 74.0428 351.824 68.7028 347.591 62.5308"
     style="fill:#000000;fill-opacity:1;fill-rule:nonzero;stroke:none"
     id="path1261" />
  <path
     d="M 446.112 62.5308 L 495.883 102.741 C 496.659 103.369 497.588 103.671 498.512 103.671 C 499.735 103.671 500.944 103.14 501.771 102.116 C 503.223 100.317 502.947 97.6814 501.145 96.228 L 450.391 55.2255 C 453.241 49.4628 455.177 43.1735 456.037 36.5415 C 562.962 53.9722 654.285 117.841 708.631 206.778 L 674.327 197.585 L 664.035 235.994 C 565.694 228.281 481.497 170.612 436.279 88.5121 C 434.331 84.9747 432.323 81.5308 430.325 78.2441 C 436.523 74.0428 441.88 68.7028 446.112 62.5308"
     style="fill:#000000;fill-opacity:1;fill-rule:nonzero;stroke:none"
     id="path1265" />
  <path
     d="M 423.112 82.4265 C 416.371 85.7332 408.915 87.7985 401.036 88.3465 L 401.036 144.582 C 401.036 146.894 399.16 148.768 396.849 148.768 C 394.536 148.768 392.663 146.894 392.663 144.582 L 392.663 88.3478 C 384.787 87.7998 377.331 85.7345 370.588 82.4278 C 343.923 126.676 328.57 178.508 328.57 233.933 C 328.57 282.617 340.414 328.529 361.359 368.967 L 396.849 348.477 L 432.344 368.968 C 453.291 328.53 465.136 282.617 465.136 233.933 C 465.136 178.506 449.779 126.674 423.112 82.4265"
     style="fill:#000000;fill-opacity:1;fill-rule:nonzero;stroke:none"
     id="path1269" />
  <path
     d="M 671.161 555.251 C 658.088 577.894 664.238 606.342 684.53 621.751 C 694.861 608.502 704.417 594.402 713.056 579.444 C 721.696 564.483 729.125 549.152 735.434 533.584 C 711.944 523.712 684.232 532.612 671.161 555.251"
     style="fill:#000000;fill-opacity:1;fill-rule:nonzero;stroke:none"
     id="path1273" />
  <path
     d="M 711.039 521.394 L 701.099 458.186 C 700.946 457.203 701.148 456.249 701.61 455.446 C 702.222 454.389 703.286 453.605 704.584 453.4 C 706.87 453.042 709.014 454.602 709.372 456.886 L 719.503 521.342 C 725.919 521.758 732.335 523.225 738.508 525.795 C 776.874 424.482 767.224 313.456 717.378 221.924 L 708.186 256.229 L 669.778 245.936 C 627.286 334.958 635.133 436.712 683.622 516.921 C 685.712 520.375 687.687 523.837 689.536 527.209 C 696.274 523.946 703.576 521.975 711.039 521.394"
     style="fill:#000000;fill-opacity:1;fill-rule:nonzero;stroke:none"
     id="path1277" />
  <path
     d="M 661.777 606.717 L 602.068 629.712 C 601.138 630.074 600.412 630.728 599.949 631.526 C 599.338 632.584 599.193 633.9 599.665 635.126 C 600.498 637.285 602.918 638.36 605.077 637.529 L 665.965 614.074 C 669.53 619.428 674.008 624.245 679.321 628.308 C 610.764 712.19 509.789 759.345 405.598 761.941 L 430.71 736.829 L 402.592 708.714 C 458.442 627.405 550.484 583.324 644.194 585.212 C 648.232 585.293 652.216 585.277 656.062 585.19 C 656.604 592.657 658.548 599.965 661.777 606.717"
     style="fill:#000000;fill-opacity:1;fill-rule:nonzero;stroke:none"
     id="path1281" />
  <path
     d="M 656.048 576.852 C 656.552 569.357 658.493 561.871 661.957 554.773 L 613.256 526.655 C 611.253 525.497 610.569 522.937 611.727 520.935 C 612.881 518.933 615.441 518.248 617.444 519.404 L 666.143 547.519 C 670.557 540.972 676.073 535.547 682.307 531.368 C 657.321 486.144 620.111 446.934 572.111 419.222 C 529.95 394.88 484.266 382.179 438.773 380.1 L 438.773 421.082 L 403.279 441.576 C 427.826 479.935 461.666 513.149 503.827 537.491 C 551.83 565.204 604.395 577.821 656.048 576.852"
     style="fill:#000000;fill-opacity:1;fill-rule:nonzero;stroke:none"
     id="path1285" />
  <path
     d="M 122.544 555.259 C 109.471 532.614 81.7601 523.715 58.2708 533.587 C 64.5801 549.155 72.0108 564.483 80.6481 579.447 C 89.2881 594.407 98.8441 608.504 109.175 621.754 C 129.465 606.344 135.617 577.895 122.544 555.259"
     style="fill:#000000;fill-opacity:1;fill-rule:nonzero;stroke:none"
     id="path1289" />
  <path
     d="M 131.927 606.717 L 191.635 629.714 C 192.566 630.074 193.292 630.728 193.755 631.526 C 194.366 632.584 194.511 633.9 194.039 635.126 C 193.206 637.285 190.784 638.36 188.627 637.529 L 127.739 614.074 C 124.175 619.428 119.694 624.245 114.383 628.308 C 182.94 712.19 283.913 759.347 388.106 761.943 L 362.994 736.831 L 391.112 708.714 C 335.261 627.405 243.22 583.324 149.511 585.212 C 145.472 585.293 141.487 585.277 137.643 585.19 C 137.1 592.657 135.156 599.966 131.927 606.717"
     style="fill:#000000;fill-opacity:1;fill-rule:nonzero;stroke:none"
     id="path1293" />
  <path
     d="M 82.6667 521.394 L 92.6067 458.189 C 92.7587 457.203 92.5573 456.249 92.0947 455.446 C 91.484 454.389 90.4187 453.605 89.12 453.402 C 86.8347 453.045 84.6907 454.602 84.332 456.886 L 74.2001 521.345 C 67.7841 521.758 61.3694 523.225 55.1961 525.795 C 16.8282 424.482 26.4802 313.459 76.328 221.927 L 85.5187 256.229 L 123.927 245.937 C 166.418 334.958 158.573 436.712 110.083 516.925 C 107.992 520.375 106.017 523.837 104.168 527.211 C 97.4307 523.946 90.128 521.978 82.6667 521.394"
     style="fill:#000000;fill-opacity:1;fill-rule:nonzero;stroke:none"
     id="path1297" />
  <path
     d="M 111.396 531.368 C 117.631 535.551 123.148 540.977 127.563 547.524 L 176.263 519.407 C 178.265 518.251 180.825 518.941 181.981 520.941 C 183.137 522.944 182.452 525.504 180.449 526.657 L 131.748 554.777 C 135.212 561.873 137.153 569.363 137.659 576.855 C 189.312 577.821 241.876 565.204 289.876 537.491 C 332.037 513.149 365.877 479.936 390.425 441.579 L 354.934 421.087 L 354.931 380.1 C 309.44 382.179 263.756 394.88 221.593 419.223 C 173.592 446.934 136.383 486.149 111.396 531.368"
     style="fill:#000000;fill-opacity:1;fill-rule:nonzero;stroke:none"
     id="path1301" />
</svg>
