<?xml version="1.0" encoding="UTF-8" standalone="no"?>
<!-- Created with Inkscape (http://www.inkscape.org/) -->

<svg
   version="1.1"
   id="svg13605"
   width="795.03467"
   height="793.70135"
   viewBox="0 0 795.03467 793.70135"
   sodipodi:docname="Mukou Yamazakura.svg"
   inkscape:version="1.2 (dc2aeda, 2022-05-15)"
   xmlns:inkscape="http://www.inkscape.org/namespaces/inkscape"
   xmlns:sodipodi="http://sodipodi.sourceforge.net/DTD/sodipodi-0.dtd"
   xmlns="http://www.w3.org/2000/svg"
   xmlns:svg="http://www.w3.org/2000/svg">
  <defs
     id="defs13609">
    <clipPath
       clipPathUnits="userSpaceOnUse"
       id="clipPath14098">
      <path
         d="M -542.9326,584.5729 H 53.343399 V -10.7031 H -542.9326 Z"
         id="path14100"
         style="stroke-width:0.999998" />
    </clipPath>
    <clipPath
       clipPathUnits="userSpaceOnUse"
       id="clipPath14104">
      <path
         d="M -574.5459,585.8522 H 21.730103 V -9.4238027 H -574.5459 Z"
         id="path14106"
         style="stroke-width:0.999998" />
    </clipPath>
    <clipPath
       clipPathUnits="userSpaceOnUse"
       id="clipPath14110">
      <path
         d="M -550.2637,577.3248 H 46.012306 V -17.951198 H -550.2637 Z"
         id="path14112"
         style="stroke-width:0.999998" />
    </clipPath>
    <clipPath
       clipPathUnits="userSpaceOnUse"
       id="clipPath14117">
      <path
         d="M -556.4014,578.0143 H 39.874606 V -17.2617 H -556.4014 Z"
         id="path14119"
         style="stroke-width:0.999998" />
    </clipPath>
    <clipPath
       clipPathUnits="userSpaceOnUse"
       id="clipPath14123">
      <path
         d="M -586.5449,579.5026 H 9.7311002 V -15.7734 H -586.5449 Z"
         id="path14125"
         style="stroke-width:0.999998" />
    </clipPath>
    <clipPath
       clipPathUnits="userSpaceOnUse"
       id="clipPath14129">
      <path
         d="M -584.1943,578.9381 H 12.081705 V -16.337903 H -584.1943 Z"
         id="path14131"
         style="stroke-width:0.999998" />
    </clipPath>
    <clipPath
       clipPathUnits="userSpaceOnUse"
       id="clipPath14135">
      <path
         d="M -538.2217,577.9479 H 58.054299 V -17.328098 H -538.2217 Z"
         id="path14137"
         style="stroke-width:0.999998" />
    </clipPath>
    <clipPath
       clipPathUnits="userSpaceOnUse"
       id="clipPath14141">
      <path
         d="m -297.6357,262.1564 h 596.276 v -595.276 h -596.276 z"
         id="path14143"
         style="stroke-width:0.999998" />
    </clipPath>
    <clipPath
       clipPathUnits="userSpaceOnUse"
       id="clipPath14147">
      <path
         d="M -576.3691,585.5885 H 19.906905 V -9.6875027 H -576.3691 Z"
         id="path14149"
         style="stroke-width:0.999998" />
    </clipPath>
    <clipPath
       clipPathUnits="userSpaceOnUse"
       id="clipPath14153">
      <path
         d="M -557.4951,577.8502 H 38.780903 V -17.4258 H -557.4951 Z"
         id="path14155"
         style="stroke-width:0.999998" />
    </clipPath>
    <clipPath
       clipPathUnits="userSpaceOnUse"
       id="clipPath14159">
      <path
         d="M -568.2266,575.819 H 28.049401 V -19.457003 H -568.2266 Z"
         id="path14161"
         style="stroke-width:0.999998" />
    </clipPath>
    <clipPath
       clipPathUnits="userSpaceOnUse"
       id="clipPath14165">
      <path
         d="M -557.0645,585.8483 H 39.211501 V -9.4277027 H -557.0645 Z"
         id="path14167"
         style="stroke-width:0.999998" />
    </clipPath>
    <clipPath
       clipPathUnits="userSpaceOnUse"
       id="clipPath14171">
      <path
         d="M -572.8174,586.1354 H 23.458606 V -9.1406027 H -572.8174 Z"
         id="path14173"
         style="stroke-width:0.999998" />
    </clipPath>
    <clipPath
       clipPathUnits="userSpaceOnUse"
       id="clipPath14178">
      <path
         d="M -531.1924,581.5885 H 65.083599 V -13.6875 H -531.1924 Z"
         id="path14180"
         style="stroke-width:0.999998" />
    </clipPath>
    <clipPath
       clipPathUnits="userSpaceOnUse"
       id="clipPath14184">
      <path
         d="M -561.4131,585.8522 H 34.862903 V -9.4238027 H -561.4131 Z"
         id="path14186"
         style="stroke-width:0.999998" />
    </clipPath>
    <clipPath
       clipPathUnits="userSpaceOnUse"
       id="clipPath14190">
      <path
         d="M -567.7754,585.8522 H 28.500601 V -9.4238027 H -567.7754 Z"
         id="path14192"
         style="stroke-width:0.999998" />
    </clipPath>
    <clipPath
       clipPathUnits="userSpaceOnUse"
       id="clipPath14196">
      <path
         d="M -564.5732,585.8483 H 31.702801 V -9.4277027 H -564.5732 Z"
         id="path14198"
         style="stroke-width:0.999998" />
    </clipPath>
    <clipPath
       clipPathUnits="userSpaceOnUse"
       id="clipPath14202">
      <path
         d="M -553.8975,585.8483 H 42.378504 V -9.4277027 H -553.8975 Z"
         id="path14204"
         style="stroke-width:0.999998" />
    </clipPath>
    <clipPath
       clipPathUnits="userSpaceOnUse"
       id="clipPath14208">
      <path
         d="M -528.0898,575.3815 H 68.186199 V -19.8945 H -528.0898 Z"
         id="path14210"
         style="stroke-width:0.999998" />
    </clipPath>
    <clipPath
       clipPathUnits="userSpaceOnUse"
       id="clipPath14214">
      <path
         d="M -536.6982,584.5729 H 59.577804 V -10.7031 H -536.6982 Z"
         id="path14216"
         style="stroke-width:0.999998" />
    </clipPath>
    <clipPath
       clipPathUnits="userSpaceOnUse"
       id="clipPath14220">
      <path
         d="M -545.417,584.5729 H 50.859001 V -10.7031 H -545.417 Z"
         id="path14222"
         style="stroke-width:0.999998" />
    </clipPath>
    <clipPath
       clipPathUnits="userSpaceOnUse"
       id="clipPath14226">
      <path
         d="M -548.9834,585.8522 H 47.292601 V -9.4238027 H -548.9834 Z"
         id="path14228"
         style="stroke-width:0.999998" />
    </clipPath>
    <clipPath
       clipPathUnits="userSpaceOnUse"
       id="clipPath14232">
      <path
         d="M -540.8213,585.8483 H 55.454701 V -9.4277027 H -540.8213 Z"
         id="path14234"
         style="stroke-width:0.999998" />
    </clipPath>
  </defs>
  <sodipodi:namedview
     id="namedview13607"
     pagecolor="#ffffff"
     bordercolor="#000000"
     borderopacity="0.25"
     inkscape:showpageshadow="2"
     inkscape:pageopacity="0.0"
     inkscape:pagecheckerboard="0"
     inkscape:deskcolor="#d1d1d1"
     showgrid="false"
     inkscape:zoom="0.29734106"
     inkscape:cx="-215.24105"
     inkscape:cy="396.85068"
     inkscape:window-width="1419"
     inkscape:window-height="456"
     inkscape:window-x="0"
     inkscape:window-y="25"
     inkscape:window-maximized="0"
     inkscape:current-layer="svg13605">
    <inkscape:page
       x="0"
       y="0"
       id="page13611"
       width="795.03467"
       height="793.70135" />
  </sodipodi:namedview>
  <path
     d="M 396.848 349.542 C 370.719 349.542 349.539 370.723 349.539 396.851 C 349.539 422.98 370.719 444.162 396.848 444.162 C 422.977 444.162 444.157 422.98 444.157 396.851 C 444.157 370.723 422.977 349.542 396.848 349.542 M 452.152 396.851 C 452.152 397.899 452.115 398.938 452.057 399.973 L 579.186 413.334 C 580.669 409.99 584.177 407.826 588.012 408.23 C 592.773 408.73 596.225 412.995 595.725 417.756 C 595.224 422.516 590.96 425.97 586.201 425.467 C 582.366 425.066 579.381 422.219 578.629 418.639 L 451.513 405.279 C 451.196 407.358 450.749 409.391 450.208 411.386 L 571.774 450.886 C 573.921 447.923 577.802 446.535 581.469 447.727 C 586.022 449.207 588.512 454.098 587.033 458.65 C 585.553 463.202 580.664 465.691 576.113 464.211 C 572.445 463.022 570.118 459.618 570.126 455.959 L 448.561 416.459 C 447.82 418.418 446.967 420.319 446.016 422.162 L 556.717 486.076 C 559.432 483.623 563.518 483.074 566.857 485 C 571.002 487.394 572.422 492.696 570.029 496.839 C 567.636 500.986 562.334 502.407 558.192 500.011 C 554.85 498.084 553.282 494.271 554.05 490.694 L 443.344 426.776 C 442.213 428.532 440.995 430.222 439.68 431.831 L 534.673 517.366 C 537.838 515.53 541.949 515.842 544.814 518.423 C 548.373 521.626 548.657 527.104 545.456 530.662 C 542.253 534.219 536.772 534.506 533.217 531.303 C 530.35 528.724 529.609 524.667 531.104 521.328 L 436.109 435.795 C 434.645 437.274 433.092 438.662 431.468 439.97 L 506.605 543.388 C 510.084 542.251 514.04 543.412 516.305 546.53 C 519.118 550.404 518.26 555.823 514.386 558.636 C 510.514 561.448 505.094 560.592 502.282 556.719 C 500.014 553.599 500.134 549.48 502.29 546.522 L 427.155 443.107 C 425.42 444.248 423.615 445.29 421.751 446.232 L 473.741 563.005 C 477.378 562.617 481.006 564.576 482.574 568.097 C 484.521 572.469 482.553 577.592 478.181 579.54 C 473.809 581.485 468.685 579.519 466.74 575.147 C 465.17 571.625 466.145 567.617 468.868 565.175 L 416.877 448.404 C 414.948 449.154 412.969 449.808 410.941 450.342 L 437.516 575.363 C 441.153 575.74 444.296 578.409 445.097 582.177 C 446.092 586.86 443.103 591.461 438.421 592.459 C 433.74 593.453 429.137 590.464 428.143 585.781 C 427.34 582.011 429.127 578.295 432.297 576.472 L 405.721 451.44 C 403.685 451.771 401.615 451.992 399.512 452.095 L 399.512 579.917 C 402.992 581.041 405.511 584.305 405.511 588.161 C 405.511 592.948 401.631 596.828 396.844 596.828 C 392.057 596.828 388.177 592.948 388.177 588.161 C 388.177 584.305 390.696 581.041 394.176 579.917 L 394.176 452.095 C 392.073 451.992 390.003 451.771 387.967 451.44 L 361.391 576.472 C 364.561 578.295 366.348 582.011 365.545 585.781 C 364.551 590.464 359.948 593.453 355.267 592.459 C 350.585 591.461 347.597 586.86 348.592 582.177 C 349.392 578.409 352.535 575.74 356.172 575.363 L 382.747 450.342 C 380.719 449.808 378.74 449.154 376.811 448.404 L 324.82 565.175 C 327.543 567.617 328.518 571.625 326.948 575.147 C 325.003 579.519 319.879 581.485 315.507 579.54 C 311.135 577.592 309.167 572.469 311.114 568.097 C 312.682 564.576 316.31 562.617 319.947 563.005 L 371.937 446.232 C 370.073 445.29 368.268 444.248 366.533 443.107 L 291.398 546.522 C 293.554 549.48 293.674 553.599 291.406 556.719 C 288.595 560.592 283.174 561.448 279.302 558.636 C 275.43 555.823 274.57 550.404 277.383 546.53 C 279.65 543.412 283.604 542.251 287.083 543.388 L 362.22 439.97 C 360.597 438.662 359.043 437.274 357.579 435.795 L 262.584 521.328 C 264.079 524.667 263.338 528.724 260.471 531.303 C 256.916 534.506 251.435 534.219 248.232 530.662 C 245.031 527.104 245.316 521.626 248.875 518.423 C 251.739 515.842 255.85 515.53 259.015 517.366 L 354.008 431.831 C 352.693 430.222 351.475 428.532 350.344 426.776 L 239.638 490.694 C 240.406 494.271 238.838 498.084 235.496 500.011 C 231.354 502.407 226.052 500.986 223.659 496.839 C 221.266 492.696 222.686 487.394 226.831 485 C 230.17 483.074 234.256 483.623 236.971 486.076 L 347.672 422.162 C 346.721 420.319 345.869 418.418 345.127 416.459 L 223.562 455.959 C 223.57 459.618 221.243 463.022 217.575 464.211 C 213.024 465.691 208.135 463.202 206.655 458.65 C 205.176 454.098 207.666 449.207 212.219 447.727 C 215.886 446.535 219.767 447.923 221.914 450.886 L 343.481 411.386 C 342.939 409.391 342.492 407.358 342.175 405.279 L 215.059 418.639 C 214.307 422.219 211.322 425.066 207.487 425.467 C 202.728 425.97 198.464 422.516 197.963 417.756 C 197.463 412.995 200.915 408.73 205.676 408.23 C 209.511 407.826 213.019 409.99 214.502 413.334 L 341.631 399.973 C 341.573 398.938 341.537 397.899 341.537 396.851 C 341.537 395.802 341.572 394.763 341.631 393.73 L 214.502 380.367 C 213.019 383.713 209.511 385.877 205.676 385.474 C 200.915 384.973 197.463 380.709 197.963 375.949 C 198.464 371.187 202.728 367.735 207.487 368.235 C 211.322 368.637 214.307 371.482 215.059 375.063 L 342.175 388.425 C 342.492 386.347 342.939 384.313 343.481 382.318 L 221.914 342.818 C 219.767 345.781 215.886 347.167 212.219 345.977 C 207.666 344.497 205.176 339.607 206.655 335.055 C 208.135 330.503 213.024 328.011 217.575 329.491 C 221.243 330.681 223.57 334.086 223.562 337.745 L 345.127 377.242 C 345.869 375.287 346.721 373.386 347.672 371.542 L 236.971 307.627 C 234.256 310.081 230.17 310.63 226.831 308.702 C 222.686 306.307 221.266 301.009 223.659 296.862 C 226.052 292.718 231.354 291.297 235.496 293.69 C 238.838 295.618 240.406 299.431 239.638 303.009 L 350.344 366.925 C 351.475 365.173 352.693 363.481 354.008 361.871 L 259.015 276.34 C 255.85 278.173 251.739 277.86 248.875 275.282 C 245.316 272.077 245.031 266.598 248.232 263.041 C 251.435 259.485 256.916 259.196 260.471 262.4 C 263.338 264.98 264.079 269.034 262.584 272.376 L 357.579 357.907 C 359.043 356.43 360.597 355.041 362.22 353.735 L 287.083 250.316 C 283.604 251.453 279.65 250.292 277.383 247.173 C 274.57 243.3 275.43 237.881 279.302 235.068 C 283.174 232.253 288.595 233.113 291.406 236.985 C 293.674 240.104 293.554 244.225 291.398 247.181 L 366.533 350.597 C 368.268 349.457 370.073 348.414 371.937 347.471 L 319.947 230.697 C 316.31 231.086 312.682 229.128 311.114 225.608 C 309.167 221.234 311.135 216.112 315.507 214.165 C 319.879 212.217 325.003 214.182 326.948 218.556 C 328.518 222.078 327.543 226.084 324.82 228.529 L 376.811 345.299 C 378.74 344.55 380.719 343.897 382.747 343.362 L 356.172 218.341 C 352.535 217.964 349.392 215.294 348.592 211.524 C 347.597 206.842 350.585 202.24 355.267 201.245 C 359.948 200.25 364.551 203.238 365.545 207.92 C 366.348 211.692 364.561 215.408 361.391 217.233 L 387.967 342.261 C 390.003 341.933 392.073 341.71 394.176 341.61 L 394.176 213.786 C 390.696 212.661 388.177 209.397 388.177 205.542 C 388.177 200.756 392.057 196.876 396.844 196.876 C 401.631 196.876 405.511 200.756 405.511 205.542 C 405.511 209.397 402.992 212.661 399.512 213.786 L 399.512 341.61 C 401.615 341.71 403.685 341.933 405.721 342.261 L 432.297 217.233 C 429.127 215.408 427.34 211.692 428.143 207.92 C 429.137 203.238 433.74 200.25 438.421 201.245 C 443.103 202.24 446.092 206.842 445.097 211.524 C 444.296 215.294 441.153 217.964 437.516 218.341 L 410.941 343.362 C 412.969 343.897 414.948 344.55 416.877 345.299 L 468.868 228.529 C 466.145 226.084 465.17 222.078 466.74 218.556 C 468.685 214.182 473.809 212.217 478.181 214.165 C 482.553 216.112 484.521 221.234 482.574 225.608 C 481.006 229.128 477.378 231.086 473.741 230.697 L 421.751 347.471 C 423.615 348.414 425.42 349.457 427.155 350.597 L 502.29 247.181 C 500.134 244.225 500.014 240.104 502.282 236.985 C 505.094 233.113 510.514 232.253 514.386 235.068 C 518.26 237.881 519.118 243.3 516.305 247.173 C 514.04 250.292 510.084 251.453 506.605 250.316 L 431.468 353.735 C 433.092 355.041 434.645 356.43 436.109 357.907 L 531.104 272.376 C 529.609 269.034 530.35 264.98 533.217 262.4 C 536.772 259.196 542.253 259.485 545.456 263.041 C 548.657 266.598 548.373 272.077 544.814 275.282 C 541.949 277.86 537.838 278.173 534.673 276.34 L 439.68 361.871 C 440.995 363.481 442.213 365.173 443.344 366.925 L 554.05 303.009 C 553.282 299.431 554.85 295.618 558.192 293.69 C 562.334 291.297 567.636 292.718 570.029 296.862 C 572.422 301.009 571.002 306.307 566.857 308.702 C 563.518 310.63 559.432 310.081 556.717 307.627 L 446.016 371.542 C 446.967 373.386 447.82 375.287 448.561 377.242 L 570.126 337.745 C 570.118 334.086 572.445 330.681 576.113 329.491 C 580.664 328.011 585.553 330.503 587.033 335.055 C 588.512 339.607 586.022 344.497 581.469 345.977 C 577.802 347.167 573.921 345.781 571.774 342.818 L 450.208 382.318 C 450.749 384.313 451.196 386.347 451.513 388.425 L 578.629 375.063 C 579.381 371.482 582.366 368.637 586.201 368.235 C 590.96 367.735 595.224 371.187 595.725 375.949 C 596.225 380.709 592.773 384.973 588.012 385.474 C 584.177 385.877 580.669 383.713 579.186 380.367 L 452.057 393.73 C 452.116 394.763 452.152 395.802 452.152 396.851 M 702.646 297.493 L 726.169 239.084 C 726.169 239.084 673.075 202.834 608.819 203.61 C 558.78 204.214 518.313 229.674 518.313 229.674 C 518.313 229.674 530.021 183.321 515.133 135.543 C 496.016 74.192 445.133 34.8988 445.133 34.8988 L 396.851 75.3214 L 348.568 34.8988 C 348.568 34.8988 297.686 74.192 278.568 135.543 C 263.68 183.321 275.388 229.676 275.388 229.676 C 275.388 229.676 234.923 204.214 184.882 203.61 C 120.627 202.834 67.5328 239.084 67.5328 239.084 L 91.0554 297.493 L 37.6929 330.922 C 37.6929 330.922 59.3395 391.457 111.779 428.598 C 152.618 457.519 200.32 460.708 200.32 460.708 C 200.32 460.708 163.603 491.326 147.565 538.732 C 126.971 599.601 145.039 661.3 145.039 661.3 L 207.859 656.977 L 223.16 718.057 C 223.16 718.057 287.423 716.177 338.949 677.781 C 379.077 647.877 396.851 603.495 396.851 603.495 C 396.851 603.495 414.624 647.877 454.753 677.781 C 506.28 716.177 570.541 718.057 570.541 718.057 L 585.842 656.977 L 648.662 661.3 C 648.662 661.3 666.731 599.601 646.137 538.732 C 630.098 491.328 593.38 460.708 593.38 460.708 C 593.38 460.708 641.082 457.519 681.923 428.598 C 734.362 391.457 756.008 330.922 756.008 330.922 Z"
     style="fill:#000000;fill-opacity:1;fill-rule:nonzero;stroke:none"
     id="path13725" />
</svg>
