<?xml version="1.0" encoding="UTF-8" standalone="no"?>
<!-- Created with Inkscape (http://www.inkscape.org/) -->

<svg
   version="1.1"
   id="svg12697"
   width="795.03467"
   height="793.70135"
   viewBox="0 0 795.03467 793.70135"
   sodipodi:docname="Tsukiochi Sakura.svg"
   inkscape:version="1.2 (dc2aeda, 2022-05-15)"
   xmlns:inkscape="http://www.inkscape.org/namespaces/inkscape"
   xmlns:sodipodi="http://sodipodi.sourceforge.net/DTD/sodipodi-0.dtd"
   xmlns="http://www.w3.org/2000/svg"
   xmlns:svg="http://www.w3.org/2000/svg">
  <defs
     id="defs12701">
    <clipPath
       clipPathUnits="userSpaceOnUse"
       id="clipPath13232">
      <path
         d="M -542.9326,584.5729 H 53.343399 V -10.7031 H -542.9326 Z"
         id="path13234"
         style="stroke-width:0.999998" />
    </clipPath>
    <clipPath
       clipPathUnits="userSpaceOnUse"
       id="clipPath13238">
      <path
         d="M -545.417,584.5729 H 50.859001 V -10.7031 H -545.417 Z"
         id="path13240"
         style="stroke-width:0.999998" />
    </clipPath>
    <clipPath
       clipPathUnits="userSpaceOnUse"
       id="clipPath13244">
      <path
         d="M -567.7754,585.8522 H 28.500601 V -9.4238027 H -567.7754 Z"
         id="path13246"
         style="stroke-width:0.999998" />
    </clipPath>
    <clipPath
       clipPathUnits="userSpaceOnUse"
       id="clipPath13250">
      <path
         d="M -561.4131,585.8522 H 34.862903 V -9.4238027 H -561.4131 Z"
         id="path13252"
         style="stroke-width:0.999998" />
    </clipPath>
    <clipPath
       clipPathUnits="userSpaceOnUse"
       id="clipPath13256">
      <path
         d="M -540.8213,585.8483 H 55.454701 V -9.4277027 H -540.8213 Z"
         id="path13258"
         style="stroke-width:0.999998" />
    </clipPath>
    <clipPath
       clipPathUnits="userSpaceOnUse"
       id="clipPath13262">
      <path
         d="M -553.8975,585.8483 H 42.378504 V -9.4277027 H -553.8975 Z"
         id="path13264"
         style="stroke-width:0.999998" />
    </clipPath>
    <clipPath
       clipPathUnits="userSpaceOnUse"
       id="clipPath13268">
      <path
         d="M -557.0645,585.8483 H 39.211501 V -9.4277027 H -557.0645 Z"
         id="path13270"
         style="stroke-width:0.999998" />
    </clipPath>
    <clipPath
       clipPathUnits="userSpaceOnUse"
       id="clipPath13274">
      <path
         d="M -564.5732,585.8483 H 31.702801 V -9.4277027 H -564.5732 Z"
         id="path13276"
         style="stroke-width:0.999998" />
    </clipPath>
    <clipPath
       clipPathUnits="userSpaceOnUse"
       id="clipPath13281">
      <path
         d="M -536.6982,584.5729 H 59.577804 V -10.7031 H -536.6982 Z"
         id="path13283"
         style="stroke-width:0.999998" />
    </clipPath>
    <clipPath
       clipPathUnits="userSpaceOnUse"
       id="clipPath13287">
      <path
         d="M -548.9834,585.8522 H 47.292601 V -9.4238027 H -548.9834 Z"
         id="path13289"
         style="stroke-width:0.999998" />
    </clipPath>
    <clipPath
       clipPathUnits="userSpaceOnUse"
       id="clipPath13293">
      <path
         d="m -297.6377,118.0353 h 596.276 v -595.276 h -596.276 z"
         id="path13295"
         style="stroke-width:0.999998" />
    </clipPath>
    <clipPath
       clipPathUnits="userSpaceOnUse"
       id="clipPath13299">
      <path
         d="M -574.5459,585.8522 H 21.730103 V -9.4238027 H -574.5459 Z"
         id="path13301"
         style="stroke-width:0.999998" />
    </clipPath>
    <clipPath
       clipPathUnits="userSpaceOnUse"
       id="clipPath13305">
      <path
         d="m -237.4063,430.4449 h 596.276 v -595.276 h -596.276 z"
         id="path13307"
         style="stroke-width:0.999998" />
    </clipPath>
    <clipPath
       clipPathUnits="userSpaceOnUse"
       id="clipPath13311">
      <path
         d="M -584.1943,578.9381 H 12.081705 V -16.337903 H -584.1943 Z"
         id="path13313"
         style="stroke-width:0.999998" />
    </clipPath>
    <clipPath
       clipPathUnits="userSpaceOnUse"
       id="clipPath13317">
      <path
         d="M -538.2217,577.9479 H 58.054299 V -17.328098 H -538.2217 Z"
         id="path13319"
         style="stroke-width:0.999998" />
    </clipPath>
    <clipPath
       clipPathUnits="userSpaceOnUse"
       id="clipPath13323">
      <path
         d="M -556.4014,578.0143 H 39.874606 V -17.2617 H -556.4014 Z"
         id="path13325"
         style="stroke-width:0.999998" />
    </clipPath>
    <clipPath
       clipPathUnits="userSpaceOnUse"
       id="clipPath13329">
      <path
         d="M -586.5449,579.5026 H 9.7311002 V -15.7734 H -586.5449 Z"
         id="path13331"
         style="stroke-width:0.999998" />
    </clipPath>
    <clipPath
       clipPathUnits="userSpaceOnUse"
       id="clipPath13335">
      <path
         d="M -572.8174,586.1354 H 23.458606 V -9.1406027 H -572.8174 Z"
         id="path13337"
         style="stroke-width:0.999998" />
    </clipPath>
    <clipPath
       clipPathUnits="userSpaceOnUse"
       id="clipPath13341">
      <path
         d="M -550.2637,577.3248 H 46.012306 V -17.951198 H -550.2637 Z"
         id="path13343"
         style="stroke-width:0.999998" />
    </clipPath>
    <clipPath
       clipPathUnits="userSpaceOnUse"
       id="clipPath13347">
      <path
         d="m -357.8682,430.4449 h 596.276 v -595.276 h -596.276 z"
         id="path13349"
         style="stroke-width:0.999998" />
    </clipPath>
    <clipPath
       clipPathUnits="userSpaceOnUse"
       id="clipPath13354">
      <path
         d="M -544.6875,376.0328 H 51.588504 v -595.276 H -544.6875 Z"
         id="path13356"
         style="stroke-width:0.999998" />
    </clipPath>
    <clipPath
       clipPathUnits="userSpaceOnUse"
       id="clipPath13360">
      <path
         d="M -568.2266,575.819 H 28.049401 V -19.457003 H -568.2266 Z"
         id="path13362"
         style="stroke-width:0.999998" />
    </clipPath>
    <clipPath
       clipPathUnits="userSpaceOnUse"
       id="clipPath13366">
      <path
         d="M -576.3691,585.5885 H 19.906905 V -9.6875027 H -576.3691 Z"
         id="path13368"
         style="stroke-width:0.999998" />
    </clipPath>
    <clipPath
       clipPathUnits="userSpaceOnUse"
       id="clipPath13372">
      <path
         d="M -528.0898,575.3815 H 68.186199 V -19.8945 H -528.0898 Z"
         id="path13374"
         style="stroke-width:0.999998" />
    </clipPath>
    <clipPath
       clipPathUnits="userSpaceOnUse"
       id="clipPath13378">
      <path
         d="M -531.1924,581.5885 H 65.083599 V -13.6875 H -531.1924 Z"
         id="path13380"
         style="stroke-width:0.999998" />
    </clipPath>
    <clipPath
       clipPathUnits="userSpaceOnUse"
       id="clipPath13384">
      <path
         d="M -557.4951,577.8502 H 38.780903 V -17.4258 H -557.4951 Z"
         id="path13386"
         style="stroke-width:0.999998" />
    </clipPath>
  </defs>
  <sodipodi:namedview
     id="namedview12699"
     pagecolor="#ffffff"
     bordercolor="#000000"
     borderopacity="0.25"
     inkscape:showpageshadow="2"
     inkscape:pageopacity="0.0"
     inkscape:pagecheckerboard="0"
     inkscape:deskcolor="#d1d1d1"
     showgrid="false"
     inkscape:zoom="0.29734106"
     inkscape:cx="-215.24105"
     inkscape:cy="396.85068"
     inkscape:window-width="1419"
     inkscape:window-height="456"
     inkscape:window-x="0"
     inkscape:window-y="25"
     inkscape:window-maximized="0"
     inkscape:current-layer="svg12697">
    <inkscape:page
       x="0"
       y="0"
       id="page12703"
       width="795.03467"
       height="793.70135" />
  </sodipodi:namedview>
  <path
     d="M 396.85 157.38 C 558.431 157.38 694.529 266.405 735.646 414.897 C 737.321 401.189 738.198 387.235 738.198 373.077 C 738.198 184.556 585.375 31.7296 396.85 31.7296 C 208.328 31.7296 55.5002 184.556 55.5002 373.077 C 55.5002 387.235 56.3789 401.189 58.0548 414.897 C 99.1721 266.405 235.268 157.38 396.85 157.38"
     style="fill:#000000;fill-opacity:1;fill-rule:nonzero;stroke:none"
     id="path12817" />
  <path
     d="M 316.542 573.927 C 316.542 573.927 292.667 544.08 249.965 547.294 C 200.8 550.992 179.236 586.651 178.796 625.81 C 178.337 666.675 199.058 703.809 199.058 703.809 C 199.058 703.809 222.873 702.932 233.972 701.057 C 247.556 698.76 260.067 694.224 260.067 694.224 C 260.067 694.224 260.703 706.916 262.133 716.033 C 263.625 725.56 267.034 738.221 267.034 738.221 C 267.034 738.221 317.105 734.948 352.357 714.427 C 383.121 696.52 392.716 667.593 392.716 646.471 C 392.716 615.25 382.662 575.304 316.542 573.927"
     style="fill:#000000;fill-opacity:1;fill-rule:nonzero;stroke:none"
     id="path12821" />
  <path
     d="M 726.25 501.377 C 718.391 494.51 709.722 489.21 709.722 489.21 C 709.722 489.21 718.217 482.093 724.645 475.205 C 731.073 468.32 735.205 461.432 735.205 461.432 C 735.205 461.432 697.962 408.104 633.732 395.312 C 568.588 382.341 520.321 413.724 520.321 413.724 C 520.321 413.724 509.233 383.32 485.883 353.989 C 464.589 327.241 434.916 308.992 434.916 308.992 C 434.916 308.992 424.995 312.575 413.865 319.757 C 402.213 327.276 396.851 333.56 396.851 333.56 C 396.851 333.56 391.49 327.276 379.836 319.757 C 368.71 312.575 358.786 308.992 358.786 308.992 C 358.786 308.992 329.112 327.241 307.82 353.989 C 284.47 383.32 273.382 413.724 273.382 413.724 C 273.382 413.724 225.113 382.341 159.97 395.312 C 95.7396 408.104 58.4997 461.432 58.4997 461.432 C 58.4997 461.432 62.629 468.32 69.057 475.205 C 75.4863 482.093 83.9809 489.21 83.9809 489.21 C 83.9809 489.21 75.3103 494.51 67.4516 501.377 C 58.7517 508.978 52.1157 517.45 52.1157 517.45 C 52.1157 517.45 71.0583 548.096 115.596 576.103 C 135.473 588.603 154.341 597.189 173.019 603.609 C 175.889 590.606 181.303 578.387 189.694 568.041 C 202.681 551.956 222.889 540.97 249.337 539.052 C 251.73 538.869 254.074 538.786 256.361 538.786 C 277.655 538.778 294.324 546.216 305.5 553.582 C 312.564 558.238 317.523 562.872 320.319 565.776 C 326.62 566.041 332.456 566.672 337.898 567.609 L 337.898 563.416 L 278.334 513.434 C 276.1 514.476 273.379 514.221 271.368 512.533 C 268.6 510.213 268.239 506.085 270.562 503.317 C 272.884 500.549 277.01 500.186 279.779 502.51 C 281.79 504.2 282.511 506.836 281.876 509.213 L 343.41 560.85 L 343.41 568.702 C 344.602 568.97 345.79 569.241 346.939 569.541 L 346.939 554.093 L 296.779 494.312 C 294.399 494.948 291.764 494.226 290.076 492.216 C 287.752 489.448 288.112 485.32 290.883 482.997 C 293.65 480.674 297.776 481.036 300.1 483.804 C 301.787 485.814 302.04 488.538 301 490.77 L 352.451 552.088 L 352.451 571.182 C 354.158 571.741 355.81 572.343 357.415 572.981 L 357.415 546.494 L 318.266 478.682 C 315.811 478.896 313.339 477.726 312.027 475.453 C 310.22 472.322 311.292 468.322 314.423 466.516 C 317.551 464.708 321.552 465.778 323.36 468.908 C 324.672 471.182 324.447 473.908 323.038 475.926 L 362.926 545.02 L 362.927 575.41 C 365.058 576.455 367.079 577.579 369.003 578.77 L 369 540.836 L 342.136 467.017 C 339.684 466.804 337.454 465.224 336.556 462.754 C 335.319 459.358 337.07 455.606 340.467 454.369 C 343.862 453.132 347.615 454.885 348.852 458.281 C 349.751 460.746 349.056 463.393 347.315 465.134 L 374.514 539.869 L 374.516 582.543 C 377.006 584.453 379.278 586.494 381.355 588.639 L 381.355 537.281 L 367.674 459.68 C 365.295 459.041 363.372 457.098 362.916 454.51 C 362.29 450.953 364.666 447.56 368.224 446.932 C 371.782 446.304 375.175 448.682 375.803 452.238 C 376.259 454.825 375.116 457.312 373.098 458.724 L 386.868 536.804 L 386.868 595.199 C 389.842 599.306 392.216 603.606 394.095 608.002 L 394.095 456.885 C 391.863 455.844 390.308 453.596 390.308 450.97 C 390.308 447.356 393.237 444.426 396.851 444.426 C 400.464 444.426 403.393 447.356 403.393 450.97 C 403.393 453.596 401.839 455.844 399.608 456.885 L 399.608 608.002 C 401.487 603.606 403.859 599.306 406.835 595.199 L 406.835 536.804 L 420.605 458.724 C 418.585 457.312 417.444 454.825 417.899 452.238 C 418.525 448.682 421.92 446.304 425.477 446.932 C 429.037 447.56 431.413 450.953 430.785 454.51 C 430.331 457.098 428.407 459.041 426.028 459.68 L 412.347 537.281 L 412.347 588.639 C 414.424 586.494 416.695 584.453 419.185 582.543 L 419.188 539.869 L 446.388 465.134 C 444.645 463.393 443.951 460.746 444.849 458.281 C 446.087 454.885 449.84 453.132 453.236 454.369 C 456.632 455.606 458.383 459.358 457.147 462.754 C 456.248 465.224 454.017 466.804 451.565 467.017 L 424.7 540.836 L 424.699 578.77 C 426.624 577.579 428.644 576.455 430.776 575.41 L 430.777 545.02 L 470.667 475.926 C 469.255 473.908 469.029 471.182 470.343 468.908 C 472.151 465.778 476.152 464.708 479.28 466.516 C 482.411 468.322 483.483 472.322 481.675 475.453 C 480.363 477.726 477.889 478.896 475.437 478.682 L 436.288 546.494 L 436.288 572.981 C 437.892 572.343 439.545 571.741 441.251 571.182 L 441.252 552.088 L 492.701 490.77 C 491.663 488.538 491.915 485.814 493.603 483.804 C 495.927 481.036 500.053 480.674 502.82 482.997 C 505.589 485.32 505.949 489.448 503.627 492.216 C 501.939 494.226 499.301 494.948 496.923 494.312 L 446.764 554.093 L 446.763 569.541 C 447.912 569.241 449.101 568.97 450.292 568.702 L 450.292 560.85 L 511.825 509.213 C 511.191 506.836 511.913 504.2 513.923 502.51 C 516.692 500.186 520.819 500.549 523.14 503.317 C 525.463 506.085 525.103 510.213 522.333 512.533 C 520.324 514.221 517.603 514.476 515.369 513.434 L 455.804 563.416 L 455.804 567.609 C 461.245 566.672 467.081 566.041 473.384 565.776 C 476.179 562.872 481.137 558.238 488.203 553.582 C 499.379 546.216 516.048 538.778 537.341 538.786 C 539.628 538.786 541.972 538.869 544.365 539.052 C 570.814 540.97 591.02 551.956 604.008 568.041 C 612.398 578.387 617.814 590.606 620.682 603.609 C 639.361 597.189 658.229 588.603 678.107 576.103 C 722.645 548.096 741.586 517.45 741.586 517.45 C 741.586 517.45 734.95 508.978 726.25 501.377"
     style="fill:#000000;fill-opacity:1;fill-rule:nonzero;stroke:none"
     id="path12825" />
  <path
     d="M 477.158 573.927 C 477.158 573.927 501.034 544.08 543.737 547.294 C 592.902 550.992 614.464 586.651 614.906 625.81 C 615.364 666.675 594.644 703.809 594.644 703.809 C 594.644 703.809 570.83 702.932 559.73 701.057 C 546.146 698.76 533.634 694.224 533.634 694.224 C 533.634 694.224 532.998 706.916 531.569 716.033 C 530.075 725.56 526.667 738.221 526.667 738.221 C 526.667 738.221 476.597 734.948 441.345 714.427 C 410.581 696.52 400.985 667.593 400.985 646.471 C 400.985 615.25 411.039 575.304 477.158 573.927"
     style="fill:#000000;fill-opacity:1;fill-rule:nonzero;stroke:none"
     id="path12829" />
</svg>
