<?xml version="1.0" encoding="UTF-8" standalone="no"?>
<!-- Created with Inkscape (http://www.inkscape.org/) -->

<svg
   version="1.1"
   id="svg14637"
   width="793.70135"
   height="793.70099"
   viewBox="0 0 793.70135 793.70097"
   sodipodi:docname="Tyuukage Sakura.svg"
   inkscape:version="1.2 (dc2aeda, 2022-05-15)"
   xmlns:inkscape="http://www.inkscape.org/namespaces/inkscape"
   xmlns:sodipodi="http://sodipodi.sourceforge.net/DTD/sodipodi-0.dtd"
   xmlns="http://www.w3.org/2000/svg"
   xmlns:svg="http://www.w3.org/2000/svg">
  <defs
     id="defs14641">
    <clipPath
       clipPathUnits="userSpaceOnUse"
       id="clipPath14792">
      <path
         d="m -384.3105,385.9462 h 595.276 v -841.89 h -595.276 z"
         id="path14794"
         style="stroke-width:0.999998" />
    </clipPath>
  </defs>
  <sodipodi:namedview
     id="namedview14639"
     pagecolor="#ffffff"
     bordercolor="#000000"
     borderopacity="0.25"
     inkscape:showpageshadow="2"
     inkscape:pageopacity="0.0"
     inkscape:pagecheckerboard="0"
     inkscape:deskcolor="#d1d1d1"
     showgrid="false"
     inkscape:zoom="0.21024124"
     inkscape:cx="-470.88764"
     inkscape:cy="561.26002"
     inkscape:window-width="1419"
     inkscape:window-height="456"
     inkscape:window-x="0"
     inkscape:window-y="25"
     inkscape:window-maximized="0"
     inkscape:current-layer="svg14637">
    <inkscape:page
       x="0"
       y="0"
       id="page14643"
       width="793.70135"
       height="793.70099" />
  </sodipodi:namedview>
  <path
     d="m 512.414,350.595 c -8.476,2.752 -41.861,15.191 -58.328,21.353 1.489,2.943 2.74,6.062 3.789,9.292 1.036,3.2 1.854,6.586 2.378,9.803 16.906,-4.693 51.281,-14.265 59.773,-17.027 10.904,-3.541 15.213,-10.737 13.107,-17.205 -2.096,-6.467 -9.812,-9.76 -20.719,-6.216 m -78.101,103.173 c -2.719,1.975 -5.688,3.8 -8.584,5.292 9.685,14.633 29.409,44.363 34.657,51.584 6.747,9.281 14.919,11.153 20.419,7.153 5.505,-3.997 6.252,-12.349 -0.492,-21.628 -5.238,-7.21 -27.383,-35.117 -38.333,-48.874 -2.336,2.325 -4.92,4.478 -7.667,6.473 m -83.949,-6.525 c -10.919,13.734 -33.096,41.682 -38.344,48.906 -6.747,9.279 -5.997,17.632 -0.493,21.627 5.505,3.997 13.673,2.128 20.418,-7.151 5.239,-7.208 24.935,-36.893 34.636,-51.557 -2.935,-1.508 -5.777,-3.297 -8.531,-5.292 -2.714,-1.979 -5.365,-4.239 -7.686,-6.533 m -91.127,-90.467 c -2.1,6.47 2.202,13.666 13.111,17.211 8.477,2.753 42.792,12.312 59.736,17.005 0.529,-3.254 1.346,-6.509 2.4,-9.744 1.042,-3.193 2.369,-6.416 3.832,-9.326 -16.43,-6.147 -49.868,-18.602 -58.356,-21.359 -10.909,-3.547 -18.623,-0.255 -20.723,6.213 m 136.94,-20.353 c 3.363,0 6.836,0.269 10.055,0.764 0.768,-17.532 2.281,-53.177 2.281,-62.104 0,-11.47 -5.511,-17.788 -12.316,-17.788 -6.803,0 -12.313,6.318 -12.313,17.788 0,8.911 1.512,44.505 2.281,62.069 3.26,-0.505 6.612,-0.729 10.012,-0.729 m 0.005,8.217 c -31.29,0 -56.653,25.363 -56.653,56.652 0,31.289 25.363,56.651 56.653,56.651 31.29,0 56.651,-25.362 56.651,-56.651 0,-31.289 -25.361,-56.652 -56.651,-56.652 m 250.906,103.105 c -16.974,5.511 -37.245,1.602 -50.038,-1.966 -10.142,-2.831 -99.685,-28.299 -136.235,-38.697 -0.868,9.658 -3.88,19.101 -8.928,27.543 35.696,13.076 123.06,45.091 132.923,48.763 12.448,4.636 31.15,13.388 41.637,27.823 23.592,32.469 23.839,76.266 -10.115,100.933 -17.692,12.858 -35.858,18.236 -55.902,15.254 -3.352,19.979 -14.084,35.599 -31.776,48.448 -33.953,24.672 -75.527,10.904 -99.12,-21.573 -10.486,-14.432 -13.032,-34.924 -13.592,-48.189 -0.442,-10.527 -3.889,-103.557 -5.296,-141.532 -9.45,2.161 -19.365,2.209 -28.949,0.019 -1.411,37.992 -4.864,130.97 -5.308,141.489 -0.561,13.268 -3.105,33.76 -13.592,48.193 -23.593,32.476 -65.166,46.244 -99.118,21.583 -17.692,-12.862 -28.426,-28.479 -31.776,-48.459 -20.04,2.983 -38.212,-2.395 -55.904,-15.255 -33.952,-24.664 -33.707,-68.463 -10.113,-100.934 10.486,-14.432 29.189,-23.183 41.638,-27.82 9.867,-3.672 97.28,-35.699 132.962,-48.769 -4.97,-8.32 -8.081,-17.736 -8.962,-27.531 -36.565,10.404 -126.064,35.852 -136.203,38.677 -12.792,3.568 -33.07,7.479 -50.035,1.966 -38.175,-12.403 -64.1189,-47.687 -51.1523,-87.599 6.7563,-20.796 18.2903,-35.833 36.2723,-45.194 -9.044,-18.139 -9.536,-37.084 -2.78,-57.883 12.966,-39.909 54.701,-53.206 92.875,-40.804 16.966,5.514 31.066,20.595 39.318,31.002 6.264,7.894 86.467,110.097 87.478,111.382 6.371,-7.304 14.367,-13.167 23.411,-17.032 -21.199,-31.563 -73.056,-108.814 -78.872,-117.582 -7.349,-11.067 -17.333,-29.139 -17.333,-46.98 0,-40.139 25.544,-75.716 67.502,-75.716 21.872,0 39.735,6.323 54.192,20.525 14.46,-14.202 32.321,-20.525 54.193,-20.525 41.959,0 67.503,35.577 67.503,75.716 0,17.841 -9.984,35.913 -17.334,46.98 -5.82,8.77 -57.715,86.063 -78.902,117.606 8.927,3.808 16.965,9.6 23.437,17.005 23.471,-29.91 80.919,-103.102 87.456,-111.347 8.252,-10.407 22.359,-25.488 39.323,-30.999 38.174,-12.405 79.898,0.896 92.871,40.801 6.76,20.802 6.263,39.744 -2.776,57.885 17.972,9.362 29.511,24.394 36.263,45.191 12.972,39.912 -12.968,75.201 -51.143,87.602 m 103.544,-93.138 c -7.74,-23.817 -19.524,-44.007 -39.642,-55.584 9.475,-21.196 7.134,-44.452 -0.604,-68.269 C 690.01,168.049 613.234,139.113 561.034,174.417 578.479,113.869 527.242,49.765 461.318,49.765 c -25.046,0 -47.893,4.964 -65.121,20.525 C 378.97,54.729 356.126,49.765 331.08,49.765 c -65.927,0 -117.175,64.088 -99.728,124.636 -52.189,-35.304 -128.993,-6.387 -149.3623,56.318 -7.7399,23.818 -10.0799,47.076 -0.604,68.272 -20.1239,11.577 -31.9039,31.767 -39.6439,55.585 -20.3759,62.703 24.7426,131.241 87.7172,133.364 -49.7039,38.724 -45.9346,120.709 7.403,159.458 20.264,14.722 41.66,24.128 64.75,21.67 4.789,22.715 20.355,40.163 40.612,54.882 53.344,38.753 132.466,17.032 153.942,-42.213 21.472,59.232 100.6,80.986 153.943,42.234 20.264,-14.718 35.823,-32.164 40.617,-54.882 23.084,2.46 44.482,-6.948 64.745,-21.667 53.331,-38.753 57.128,-120.721 7.429,-159.455 62.964,-2.118 108.097,-70.651 87.732,-133.36"
     style="fill:#231f20;fill-opacity:1;fill-rule:nonzero;stroke:none"
     id="path14657" />
</svg>
