<?xml version="1.0" encoding="UTF-8" standalone="no"?>
<!-- Created with Inkscape (http://www.inkscape.org/) -->

<svg
   version="1.1"
   id="svg2285"
   width="795.03467"
   height="793.70135"
   viewBox="0 0 795.03467 793.70135"
   sodipodi:docname="Yotsuwari Sakura Musubi Yotsume.svg"
   inkscape:version="1.2 (dc2aeda, 2022-05-15)"
   xmlns:inkscape="http://www.inkscape.org/namespaces/inkscape"
   xmlns:sodipodi="http://sodipodi.sourceforge.net/DTD/sodipodi-0.dtd"
   xmlns="http://www.w3.org/2000/svg"
   xmlns:svg="http://www.w3.org/2000/svg">
  <defs
     id="defs2289">
    <clipPath
       clipPathUnits="userSpaceOnUse"
       id="clipPath3044">
      <path
         d="M -545.417,584.5729 H 50.859001 V -10.7031 H -545.417 Z"
         id="path3046"
         style="stroke-width:0.999998" />
    </clipPath>
    <clipPath
       clipPathUnits="userSpaceOnUse"
       id="clipPath3050">
      <path
         d="M -531.1924,581.5885 H 65.083599 V -13.6875 H -531.1924 Z"
         id="path3052"
         style="stroke-width:0.999998" />
    </clipPath>
    <clipPath
       clipPathUnits="userSpaceOnUse"
       id="clipPath3056">
      <path
         d="M -528.0898,575.3815 H 68.186199 V -19.8945 H -528.0898 Z"
         id="path3058"
         style="stroke-width:0.999998" />
    </clipPath>
    <clipPath
       clipPathUnits="userSpaceOnUse"
       id="clipPath3062">
      <path
         d="M -548.9834,585.8522 H 47.292601 V -9.4238027 H -548.9834 Z"
         id="path3064"
         style="stroke-width:0.999998" />
    </clipPath>
    <clipPath
       clipPathUnits="userSpaceOnUse"
       id="clipPath3068">
      <path
         d="m -327.2842,215.132 h 596.276 v -595.276 h -596.276 z"
         id="path3070"
         style="stroke-width:0.999998" />
    </clipPath>
    <clipPath
       clipPathUnits="userSpaceOnUse"
       id="clipPath3074">
      <path
         d="m -47.1045,297.6388 h 596.276 v -595.276 h -596.276 z"
         id="path3076"
         style="stroke-width:0.999998" />
    </clipPath>
    <clipPath
       clipPathUnits="userSpaceOnUse"
       id="clipPath3080">
      <path
         d="m -40.8232,347.9205 h 596.276 v -595.276 h -596.276 z"
         id="path3082"
         style="stroke-width:0.999998" />
    </clipPath>
    <clipPath
       clipPathUnits="userSpaceOnUse"
       id="clipPath3086">
      <path
         d="m -40.8232,247.3566 h 596.276 v -595.276 h -596.276 z"
         id="path3088"
         style="stroke-width:0.999998" />
    </clipPath>
    <clipPath
       clipPathUnits="userSpaceOnUse"
       id="clipPath3092">
      <path
         d="m -45.3799,277.9132 h 596.276 v -595.276 h -596.276 z"
         id="path3094"
         style="stroke-width:0.999998" />
    </clipPath>
    <clipPath
       clipPathUnits="userSpaceOnUse"
       id="clipPath3098">
      <path
         d="m -215.1299,267.9913 h 596.276 v -595.276 h -596.276 z"
         id="path3100"
         style="stroke-width:0.999998" />
    </clipPath>
    <clipPath
       clipPathUnits="userSpaceOnUse"
       id="clipPath3104">
      <path
         d="m -297.6367,548.1705 h 596.276 V -47.105499 h -596.276 z"
         id="path3106"
         style="stroke-width:0.999998" />
    </clipPath>
    <clipPath
       clipPathUnits="userSpaceOnUse"
       id="clipPath3110">
      <path
         d="m -347.9189,554.4537 h 596.276 V -40.822299 h -596.276 z"
         id="path3112"
         style="stroke-width:0.999998" />
    </clipPath>
    <clipPath
       clipPathUnits="userSpaceOnUse"
       id="clipPath3116">
      <path
         d="m -247.3545,554.4537 h 596.276 V -40.822299 h -596.276 z"
         id="path3118"
         style="stroke-width:0.999998" />
    </clipPath>
    <clipPath
       clipPathUnits="userSpaceOnUse"
       id="clipPath3122">
      <path
         d="M -277.9111,549.8951 H 318.36491 V -45.380904 H -277.9111 Z"
         id="path3124"
         style="stroke-width:0.999998" />
    </clipPath>
    <clipPath
       clipPathUnits="userSpaceOnUse"
       id="clipPath3128">
      <path
         d="m -267.9893,380.1451 h 596.276 v -595.276 h -596.276 z"
         id="path3130"
         style="stroke-width:0.999998" />
    </clipPath>
    <clipPath
       clipPathUnits="userSpaceOnUse"
       id="clipPath3134">
      <path
         d="M -548.1689,297.6398 H 48.107101 v -595.276 H -548.1689 Z"
         id="path3136"
         style="stroke-width:0.999998" />
    </clipPath>
    <clipPath
       clipPathUnits="userSpaceOnUse"
       id="clipPath3140">
      <path
         d="M -554.4512,247.3575 H 41.824801 v -595.276 H -554.4512 Z"
         id="path3142"
         style="stroke-width:0.999998" />
    </clipPath>
    <clipPath
       clipPathUnits="userSpaceOnUse"
       id="clipPath3146">
      <path
         d="M -554.4512,347.9225 H 41.824801 v -595.276 H -554.4512 Z"
         id="path3148"
         style="stroke-width:0.999998" />
    </clipPath>
    <clipPath
       clipPathUnits="userSpaceOnUse"
       id="clipPath3152">
      <path
         d="M -549.8945,317.3658 H 46.381501 v -595.276 H -549.8945 Z"
         id="path3154"
         style="stroke-width:0.999998" />
    </clipPath>
    <clipPath
       clipPathUnits="userSpaceOnUse"
       id="clipPath3158">
      <path
         d="m -380.1445,327.2858 h 596.276 v -595.276 h -596.276 z"
         id="path3160"
         style="stroke-width:0.999998" />
    </clipPath>
    <clipPath
       clipPathUnits="userSpaceOnUse"
       id="clipPath3164">
      <path
         d="M -536.6982,584.5729 H 59.577804 V -10.7031 H -536.6982 Z"
         id="path3166"
         style="stroke-width:0.999998" />
    </clipPath>
    <clipPath
       clipPathUnits="userSpaceOnUse"
       id="clipPath3170">
      <path
         d="M -542.9326,584.5729 H 53.343399 V -10.7031 H -542.9326 Z"
         id="path3172"
         style="stroke-width:0.999998" />
    </clipPath>
    <clipPath
       clipPathUnits="userSpaceOnUse"
       id="clipPath3176">
      <path
         d="M -540.8213,585.8483 H 55.454701 V -9.4277027 H -540.8213 Z"
         id="path3178"
         style="stroke-width:0.999998" />
    </clipPath>
    <clipPath
       clipPathUnits="userSpaceOnUse"
       id="clipPath3182">
      <path
         d="M -553.8975,585.8483 H 42.378504 V -9.4277027 H -553.8975 Z"
         id="path3184"
         style="stroke-width:0.999998" />
    </clipPath>
    <clipPath
       clipPathUnits="userSpaceOnUse"
       id="clipPath3188">
      <path
         d="m -317.3633,45.382 h 596.276 v -595.276 h -596.276 z"
         id="path3190"
         style="stroke-width:0.999998" />
    </clipPath>
    <clipPath
       clipPathUnits="userSpaceOnUse"
       id="clipPath3195">
      <path
         d="M -584.1943,578.9381 H 12.081705 V -16.337903 H -584.1943 Z"
         id="path3197"
         style="stroke-width:0.999998" />
    </clipPath>
    <clipPath
       clipPathUnits="userSpaceOnUse"
       id="clipPath3201">
      <path
         d="M -586.5449,579.5026 H 9.7311002 V -15.7734 H -586.5449 Z"
         id="path3203"
         style="stroke-width:0.999998" />
    </clipPath>
    <clipPath
       clipPathUnits="userSpaceOnUse"
       id="clipPath3207">
      <path
         d="M -557.0645,585.8483 H 39.211501 V -9.4277027 H -557.0645 Z"
         id="path3209"
         style="stroke-width:0.999998" />
    </clipPath>
    <clipPath
       clipPathUnits="userSpaceOnUse"
       id="clipPath3213">
      <path
         d="M -564.5732,585.8483 H 31.702801 V -9.4277027 H -564.5732 Z"
         id="path3215"
         style="stroke-width:0.999998" />
    </clipPath>
    <clipPath
       clipPathUnits="userSpaceOnUse"
       id="clipPath3219">
      <path
         d="M -567.7754,585.8522 H 28.500601 V -9.4238027 H -567.7754 Z"
         id="path3221"
         style="stroke-width:0.999998" />
    </clipPath>
    <clipPath
       clipPathUnits="userSpaceOnUse"
       id="clipPath3225">
      <path
         d="m -347.9199,40.8243 h 596.276 v -595.276 h -596.276 z"
         id="path3227"
         style="stroke-width:0.999998" />
    </clipPath>
    <clipPath
       clipPathUnits="userSpaceOnUse"
       id="clipPath3231">
      <path
         d="M -550.2637,577.3248 H 46.012306 V -17.951198 H -550.2637 Z"
         id="path3233"
         style="stroke-width:0.999998" />
    </clipPath>
    <clipPath
       clipPathUnits="userSpaceOnUse"
       id="clipPath3237">
      <path
         d="M -574.5459,585.8522 H 21.730103 V -9.4238027 H -574.5459 Z"
         id="path3239"
         style="stroke-width:0.999998" />
    </clipPath>
    <clipPath
       clipPathUnits="userSpaceOnUse"
       id="clipPath3243">
      <path
         d="M -572.8174,586.1354 H 23.458606 V -9.1406027 H -572.8174 Z"
         id="path3245"
         style="stroke-width:0.999998" />
    </clipPath>
    <clipPath
       clipPathUnits="userSpaceOnUse"
       id="clipPath3249">
      <path
         d="M -538.2217,577.9479 H 58.054299 V -17.328098 H -538.2217 Z"
         id="path3251"
         style="stroke-width:0.999998" />
    </clipPath>
    <clipPath
       clipPathUnits="userSpaceOnUse"
       id="clipPath3255">
      <path
         d="M -557.4951,577.8502 H 38.780903 V -17.4258 H -557.4951 Z"
         id="path3257"
         style="stroke-width:0.999998" />
    </clipPath>
    <clipPath
       clipPathUnits="userSpaceOnUse"
       id="clipPath3261">
      <path
         d="m -297.6377,47.1066 h 596.276 v -595.276 h -596.276 z"
         id="path3263"
         style="stroke-width:0.999998" />
    </clipPath>
    <clipPath
       clipPathUnits="userSpaceOnUse"
       id="clipPath3267">
      <path
         d="M -576.3691,585.5885 H 19.906905 V -9.6875027 H -576.3691 Z"
         id="path3269"
         style="stroke-width:0.999998" />
    </clipPath>
    <clipPath
       clipPathUnits="userSpaceOnUse"
       id="clipPath3273">
      <path
         d="M -556.4014,578.0143 H 39.874606 V -17.2617 H -556.4014 Z"
         id="path3275"
         style="stroke-width:0.999998" />
    </clipPath>
    <clipPath
       clipPathUnits="userSpaceOnUse"
       id="clipPath3279">
      <path
         d="M -568.2266,575.819 H 28.049401 V -19.457003 H -568.2266 Z"
         id="path3281"
         style="stroke-width:0.999998" />
    </clipPath>
    <clipPath
       clipPathUnits="userSpaceOnUse"
       id="clipPath3285">
      <path
         d="M -561.4131,585.8522 H 34.862903 V -9.4238027 H -561.4131 Z"
         id="path3287"
         style="stroke-width:0.999998" />
    </clipPath>
    <clipPath
       clipPathUnits="userSpaceOnUse"
       id="clipPath3291">
      <path
         d="m -247.3555,40.8243 h 596.276 v -595.276 h -596.276 z"
         id="path3293"
         style="stroke-width:0.999998" />
    </clipPath>
  </defs>
  <sodipodi:namedview
     id="namedview2287"
     pagecolor="#ffffff"
     bordercolor="#000000"
     borderopacity="0.25"
     inkscape:showpageshadow="2"
     inkscape:pageopacity="0.0"
     inkscape:pagecheckerboard="0"
     inkscape:deskcolor="#d1d1d1"
     showgrid="false"
     inkscape:zoom="0.29734106"
     inkscape:cx="-215.24105"
     inkscape:cy="396.85068"
     inkscape:window-width="1419"
     inkscape:window-height="456"
     inkscape:window-x="0"
     inkscape:window-y="25"
     inkscape:window-maximized="0"
     inkscape:current-layer="svg2285">
    <inkscape:page
       x="0"
       y="0"
       id="page2291"
       width="795.03467"
       height="793.70135" />
  </sodipodi:namedview>
  <path
     d="M 396.85 62.8088 C 412.237 62.8088 424.709 50.3355 424.709 34.9489 C 424.709 34.2155 424.654 33.4942 424.599 32.7729 C 415.438 32.0849 406.185 31.7289 396.85 31.7289 C 387.514 31.7289 378.262 32.0849 369.102 32.7729 C 369.045 33.4942 368.991 34.2155 368.991 34.9489 C 368.991 50.3355 381.465 62.8088 396.85 62.8088"
     style="fill:#000000;fill-opacity:1;fill-rule:nonzero;stroke:none"
     id="path2405" />
  <path
     d="M 329.807 54.4324 C 329.522 54.4871 329.238 54.5151 328.959 54.5151 C 326.888 54.5151 325.042 53.0511 324.631 50.9417 C 324.166 48.5497 325.727 46.2311 328.12 45.7644 C 338.807 43.6831 349.666 42.0924 360.666 40.9884 C 360.339 39.0218 360.163 37.0084 360.16 34.9511 C 360.16 34.4804 360.179 34.0165 360.196 33.5511 C 277.151 41.8298 202.297 77.931 145.095 132.404 C 155.066 139.592 167.298 143.84 180.529 143.84 C 195.225 143.84 208.702 138.612 219.201 129.915 C 228.663 134.111 239.121 136.46 250.137 136.46 C 277.732 136.46 297.879 124.623 315.246 103.352 C 321.999 95.0843 327.596 88.239 334.826 80.859 C 344.183 71.327 354.8 62.1337 365.191 53.4777 C 364.458 52.2311 363.795 50.9364 363.215 49.6004 C 351.912 50.6817 340.767 52.2977 329.807 54.4324"
     style="fill:#000000;fill-opacity:1;fill-rule:nonzero;stroke:none"
     id="path2409" />
  <path
     d="M 463.893 54.4324 C 464.178 54.4871 464.462 54.5151 464.742 54.5151 C 466.812 54.5151 468.658 53.0511 469.07 50.9417 C 469.534 48.5497 467.973 46.2311 465.58 45.7644 C 454.893 43.6831 444.034 42.0924 433.033 40.9884 C 433.361 39.0218 433.537 37.0084 433.538 34.9511 C 433.538 34.4804 433.521 34.0165 433.504 33.5511 C 516.549 41.8298 591.403 77.931 648.605 132.404 C 638.635 139.592 626.403 143.84 613.171 143.84 C 598.474 143.84 584.998 138.612 574.499 129.915 C 565.038 134.111 554.578 136.46 543.562 136.46 C 515.968 136.46 495.821 124.623 478.454 103.352 C 471.702 95.0843 466.104 88.239 458.874 80.859 C 449.517 71.327 438.9 62.1337 428.51 53.4777 C 429.242 52.2311 429.904 50.9364 430.486 49.6004 C 441.789 50.6817 452.932 52.2977 463.893 54.4324"
     style="fill:#000000;fill-opacity:1;fill-rule:nonzero;stroke:none"
     id="path2413" />
  <path
     d="M 423.151 60.5093 C 417.454 66.3733 409.812 70.3346 401.264 71.3613 L 401.264 94.4025 C 401.264 96.8399 399.288 98.8159 396.848 98.8159 C 394.412 98.8159 392.435 96.8399 392.435 94.4025 L 392.435 71.3613 C 383.887 70.3346 376.246 66.3733 370.546 60.5106 C 342.207 84.1492 313.199 111.012 314.689 135.736 C 316.282 162.197 334.674 180.37 359.324 180.37 C 375.071 180.37 388.904 172.208 396.85 159.89 C 404.795 172.208 418.628 180.37 434.376 180.37 C 459.026 180.37 477.419 162.197 479.012 135.736 C 480.502 111.012 451.492 84.1479 423.151 60.5093"
     style="fill:#000000;fill-opacity:1;fill-rule:nonzero;stroke:none"
     id="path2417" />
  <path
     d="M 436.379 286.843 L 361.615 361.611 L 390.611 390.605 L 494.376 286.84 L 396.85 189.315 L 299.429 286.739 L 361.715 349.024 L 390.61 320.127 L 357.327 286.843 L 396.852 247.316 Z"
     style="fill:#000000;fill-opacity:1;fill-rule:nonzero;stroke:none"
     id="path2421" />
  <path
     d="M 62.806 396.852 C 62.806 381.465 50.334 368.993 34.9487 368.993 C 34.2127 368.993 33.4914 369.048 32.7701 369.103 C 32.0821 378.264 31.7261 387.517 31.7261 396.852 C 31.7261 406.185 32.0821 415.441 32.7701 424.6 C 33.4914 424.655 34.2127 424.709 34.9487 424.709 C 50.334 424.709 62.806 412.236 62.806 396.852"
     style="fill:#000000;fill-opacity:1;fill-rule:nonzero;stroke:none"
     id="path2425" />
  <path
     d="M 54.4309 463.894 C 54.4856 464.181 54.5136 464.465 54.5136 464.743 C 54.5136 466.813 53.0482 468.659 50.9389 469.071 C 48.5482 469.534 46.2283 467.973 45.7616 465.582 C 43.6803 454.894 42.0909 444.037 40.9856 433.034 C 39.0189 433.363 37.0069 433.539 34.9496 433.539 C 34.4789 433.539 34.0136 433.522 33.5483 433.506 C 41.8283 516.55 77.9282 591.404 132.401 648.607 C 139.589 638.636 143.84 626.404 143.84 613.172 C 143.84 598.475 138.611 584.998 129.912 574.5 C 134.111 565.039 136.459 554.579 136.459 543.563 C 136.459 515.967 124.621 495.821 103.349 478.454 C 95.0828 471.703 88.2375 466.105 80.8575 458.875 C 71.3242 449.517 62.1309 438.902 53.4762 428.511 C 52.2282 429.243 50.9362 429.905 49.5976 430.487 C 50.6802 441.79 52.2949 452.935 54.4309 463.894"
     style="fill:#000000;fill-opacity:1;fill-rule:nonzero;stroke:none"
     id="path2429" />
  <path
     d="M 54.4309 329.809 C 54.4856 329.524 54.5136 329.24 54.5136 328.96 C 54.5136 326.89 53.0482 325.044 50.9389 324.632 C 48.5482 324.166 46.2283 325.728 45.7616 328.124 C 43.6803 338.809 42.0909 349.666 40.9856 360.669 C 39.0189 360.341 37.0069 360.164 34.9496 360.164 C 34.4789 360.164 34.0136 360.181 33.5483 360.198 C 41.8283 277.153 77.9282 202.299 132.401 145.096 C 139.589 155.067 143.84 167.299 143.84 180.531 C 143.84 195.228 138.611 208.705 129.912 219.203 C 134.111 228.664 136.459 239.124 136.459 250.14 C 136.459 277.734 124.621 297.88 103.349 315.248 C 95.0828 322 88.2375 327.598 80.8575 334.828 C 71.3242 344.184 62.1309 354.802 53.4762 365.192 C 52.2282 364.46 50.9362 363.798 49.5976 363.216 C 50.6802 351.913 52.2949 340.77 54.4309 329.809"
     style="fill:#000000;fill-opacity:1;fill-rule:nonzero;stroke:none"
     id="path2433" />
  <path
     d="M 60.5065 370.551 C 66.3705 376.248 70.3318 383.89 71.3598 392.436 L 94.4024 392.436 C 96.8371 392.436 98.8131 394.412 98.8131 396.854 C 98.8131 399.29 96.8371 401.267 94.4024 401.267 L 71.3598 401.267 C 70.3318 409.816 66.3705 417.456 60.5078 423.155 C 84.1464 451.493 111.009 480.503 135.733 479.013 C 162.194 477.42 180.368 459.027 180.368 434.379 C 180.368 418.628 172.206 404.795 159.888 396.852 C 172.206 388.907 180.368 375.074 180.368 359.324 C 180.368 334.676 162.194 316.283 135.733 314.69 C 111.009 313.2 84.1451 342.21 60.5065 370.551"
     style="fill:#000000;fill-opacity:1;fill-rule:nonzero;stroke:none"
     id="path2437" />
  <path
     d="M 286.84 357.322 L 361.608 432.087 L 390.602 403.09 L 286.837 299.326 L 189.314 396.853 L 286.736 494.271 L 349.023 431.988 L 320.125 403.093 L 286.84 436.376 L 247.313 396.85 Z"
     style="fill:#000000;fill-opacity:1;fill-rule:nonzero;stroke:none"
     id="path2441" />
  <path
     d="M 396.849 730.894 C 381.462 730.894 368.99 743.367 368.99 758.754 C 368.99 759.487 369.045 760.209 369.1 760.93 C 378.262 761.618 387.514 761.975 396.849 761.975 C 406.184 761.975 415.437 761.618 424.598 760.93 C 424.653 760.209 424.708 759.487 424.708 758.754 C 424.708 743.367 412.234 730.894 396.849 730.894"
     style="fill:#000000;fill-opacity:1;fill-rule:nonzero;stroke:none"
     id="path2445" />
  <path
     d="M 463.892 739.272 C 464.177 739.217 464.461 739.188 464.741 739.188 C 466.811 739.188 468.657 740.655 469.069 742.764 C 469.533 745.152 467.972 747.475 465.579 747.941 C 454.892 750.023 444.033 751.611 433.032 752.717 C 433.36 754.681 433.536 756.696 433.537 758.753 C 433.537 759.223 433.52 759.689 433.503 760.152 C 516.548 751.873 591.402 715.775 648.604 661.3 C 638.634 654.114 626.401 649.863 613.17 649.863 C 598.473 649.863 584.997 655.09 574.498 663.791 C 565.037 659.592 554.577 657.244 543.561 657.244 C 515.967 657.244 495.82 669.082 478.453 690.353 C 471.701 698.619 466.103 705.465 458.873 712.845 C 449.516 722.376 438.899 731.572 428.509 740.225 C 429.241 741.472 429.903 742.767 430.484 744.103 C 441.788 743.02 452.931 741.405 463.892 739.272"
     style="fill:#000000;fill-opacity:1;fill-rule:nonzero;stroke:none"
     id="path2449" />
  <path
     d="M 329.806 739.272 C 329.521 739.217 329.237 739.188 328.957 739.188 C 326.887 739.188 325.041 740.655 324.629 742.764 C 324.165 745.152 325.726 747.475 328.121 747.941 C 338.806 750.023 349.665 751.611 360.666 752.717 C 360.338 754.681 360.161 756.696 360.161 758.753 C 360.161 759.223 360.178 759.689 360.195 760.152 C 277.15 751.873 202.296 715.775 145.094 661.3 C 155.064 654.114 167.296 649.863 180.528 649.863 C 195.225 649.863 208.702 655.09 219.2 663.791 C 228.661 659.592 239.121 657.244 250.137 657.244 C 277.731 657.244 297.877 669.082 315.245 690.353 C 321.997 698.619 327.595 705.465 334.825 712.845 C 344.181 722.376 354.799 731.572 365.189 740.225 C 364.457 741.472 363.795 742.767 363.213 744.103 C 351.91 743.02 340.767 741.405 329.806 739.272"
     style="fill:#000000;fill-opacity:1;fill-rule:nonzero;stroke:none"
     id="path2453" />
  <path
     d="M 370.548 733.193 C 376.245 727.332 383.887 723.37 392.435 722.341 L 392.435 699.3 C 392.435 696.862 394.409 694.888 396.851 694.888 C 399.287 694.888 401.264 696.862 401.264 699.3 L 401.264 722.341 C 409.812 723.37 417.453 727.329 423.152 733.193 C 451.492 709.554 480.5 682.693 479.012 657.969 C 477.417 631.505 459.024 613.333 434.375 613.333 C 418.628 613.333 404.795 621.496 396.849 633.813 C 388.904 621.496 375.072 613.333 359.321 613.333 C 334.673 613.333 316.28 631.505 314.687 657.969 C 313.199 682.693 342.207 709.554 370.548 733.193"
     style="fill:#000000;fill-opacity:1;fill-rule:nonzero;stroke:none"
     id="path2457" />
  <path
     d="M 357.319 506.86 L 432.084 432.095 L 403.088 403.098 L 299.323 506.863 L 396.85 604.388 L 494.271 506.967 L 431.985 444.677 L 403.09 473.576 L 436.372 506.86 L 396.847 546.387 Z"
     style="fill:#000000;fill-opacity:1;fill-rule:nonzero;stroke:none"
     id="path2461" />
  <path
     d="M 730.892 396.853 C 730.892 412.238 743.365 424.712 758.752 424.712 C 759.487 424.712 760.208 424.654 760.929 424.6 C 761.617 415.441 761.973 406.186 761.973 396.853 C 761.973 387.517 761.617 378.265 760.929 369.104 C 760.208 369.048 759.487 368.993 758.752 368.993 C 743.365 368.993 730.892 381.468 730.892 396.853"
     style="fill:#000000;fill-opacity:1;fill-rule:nonzero;stroke:none"
     id="path2465" />
  <path
     d="M 739.268 329.81 C 739.215 329.525 739.185 329.241 739.185 328.961 C 739.185 326.891 740.651 325.045 742.761 324.633 C 745.151 324.169 747.471 325.73 747.937 328.123 C 750.019 338.809 751.608 349.669 752.713 360.669 C 754.679 360.342 756.693 360.166 758.751 360.163 C 759.22 360.163 759.685 360.181 760.149 360.199 C 751.871 277.154 715.771 202.3 661.298 145.098 C 654.11 155.068 649.86 167.301 649.86 180.53 C 649.86 195.228 655.088 208.705 663.787 219.205 C 659.59 228.665 657.24 239.124 657.24 250.14 C 657.24 277.735 669.078 297.882 690.349 315.249 C 698.616 322.001 705.461 327.599 712.841 334.827 C 722.375 344.186 731.568 354.803 740.223 365.193 C 741.469 364.461 742.764 363.798 744.1 363.218 C 743.019 351.914 741.403 340.77 739.268 329.81"
     style="fill:#000000;fill-opacity:1;fill-rule:nonzero;stroke:none"
     id="path2469" />
  <path
     d="M 739.268 463.897 C 739.215 464.181 739.185 464.465 739.185 464.746 C 739.185 466.814 740.651 468.66 742.761 469.072 C 745.151 469.537 747.471 467.976 747.937 465.582 C 750.019 454.894 751.608 444.037 752.713 433.036 C 754.679 433.364 756.693 433.54 758.751 433.542 C 759.22 433.542 759.685 433.525 760.149 433.506 C 751.871 516.55 715.771 591.405 661.298 648.607 C 654.11 638.639 649.86 626.407 649.86 613.173 C 649.86 598.478 655.088 585.001 663.787 574.501 C 659.59 565.042 657.24 554.582 657.24 543.563 C 657.24 515.97 669.078 495.824 690.349 478.457 C 698.616 471.706 705.461 466.105 712.841 458.876 C 722.375 449.52 731.568 438.902 740.223 428.514 C 741.469 429.246 742.764 429.905 744.1 430.49 C 743.019 441.79 741.403 452.936 739.268 463.897"
     style="fill:#000000;fill-opacity:1;fill-rule:nonzero;stroke:none"
     id="path2473" />
  <path
     d="M 733.193 423.154 C 727.329 417.457 723.368 409.815 722.34 401.266 L 699.298 401.266 C 696.861 401.266 694.886 399.29 694.886 396.851 C 694.886 394.415 696.861 392.435 699.298 392.435 L 722.34 392.435 C 723.368 383.889 727.328 376.249 733.192 370.547 C 709.553 342.21 682.69 313.202 657.967 314.69 C 631.504 316.282 613.331 334.676 613.331 359.326 C 613.331 375.074 621.493 388.907 633.812 396.853 C 621.493 404.797 613.331 418.63 613.331 434.378 C 613.331 459.026 631.504 477.422 657.967 479.014 C 682.69 480.503 709.554 451.493 733.193 423.154"
     style="fill:#000000;fill-opacity:1;fill-rule:nonzero;stroke:none"
     id="path2477" />
  <path
     d="M 506.859 436.381 L 432.091 361.617 L 403.097 390.613 L 506.862 494.378 L 604.387 396.852 L 506.963 299.432 L 444.676 361.716 L 473.574 390.612 L 506.859 357.329 L 546.386 396.856 Z"
     style="fill:#000000;fill-opacity:1;fill-rule:nonzero;stroke:none"
     id="path2481" />
</svg>
