<?xml version="1.0" encoding="UTF-8" standalone="no"?>
<!-- Created with Inkscape (http://www.inkscape.org/) -->

<svg
   version="1.1"
   id="svg6595"
   width="793.70135"
   height="793.70135"
   viewBox="0 0 793.70135 793.70135"
   sodipodi:docname="asakura-yoshikage.svg"
   inkscape:version="1.2 (dc2aeda, 2022-05-15)"
   xmlns:inkscape="http://www.inkscape.org/namespaces/inkscape"
   xmlns:sodipodi="http://sodipodi.sourceforge.net/DTD/sodipodi-0.dtd"
   xmlns="http://www.w3.org/2000/svg"
   xmlns:svg="http://www.w3.org/2000/svg">
  <defs
     id="defs6599">
    <clipPath
       clipPathUnits="userSpaceOnUse"
       id="clipPath7643">
      <path
         d="M -557.0645,585.8483 H 38.211497 V -9.4277 H -557.0645 Z"
         id="path7645"
         style="stroke-width:0.999998" />
    </clipPath>
    <clipPath
       clipPathUnits="userSpaceOnUse"
       id="clipPath7649">
      <path
         d="M -528.0898,575.3815 H 67.186197 V -19.8945 H -528.0898 Z"
         id="path7651"
         style="stroke-width:0.999998" />
    </clipPath>
    <clipPath
       clipPathUnits="userSpaceOnUse"
       id="clipPath7655">
      <path
         d="M -564.5732,585.8483 H 30.702797 V -9.4277 H -564.5732 Z"
         id="path7657"
         style="stroke-width:0.999998" />
    </clipPath>
    <clipPath
       clipPathUnits="userSpaceOnUse"
       id="clipPath7661">
      <path
         d="M -561.4131,585.8522 H 33.862897 V -9.4238 H -561.4131 Z"
         id="path7663"
         style="stroke-width:0.999998" />
    </clipPath>
    <clipPath
       clipPathUnits="userSpaceOnUse"
       id="clipPath7667">
      <path
         d="M -557.4951,577.8502 H 37.780897 V -17.4258 H -557.4951 Z"
         id="path7669"
         style="stroke-width:0.999998" />
    </clipPath>
    <clipPath
       clipPathUnits="userSpaceOnUse"
       id="clipPath7673">
      <path
         d="M -568.2266,575.819 H 27.049397 V -19.457 H -568.2266 Z"
         id="path7675"
         style="stroke-width:0.999998" />
    </clipPath>
    <clipPath
       clipPathUnits="userSpaceOnUse"
       id="clipPath7679">
      <path
         d="M -576.3691,585.5885 H 18.906897 V -9.6875 H -576.3691 Z"
         id="path7681"
         style="stroke-width:0.999998" />
    </clipPath>
    <clipPath
       clipPathUnits="userSpaceOnUse"
       id="clipPath7685">
      <path
         d="M -550.2637,577.3248 H 45.012297 V -17.9512 H -550.2637 Z"
         id="path7687"
         style="stroke-width:0.999998" />
    </clipPath>
    <clipPath
       clipPathUnits="userSpaceOnUse"
       id="clipPath7691">
      <path
         d="M -536.6982,584.5729 H 58.577797 V -10.7031 H -536.6982 Z"
         id="path7693"
         style="stroke-width:0.999998" />
    </clipPath>
    <clipPath
       clipPathUnits="userSpaceOnUse"
       id="clipPath7697">
      <path
         d="M -540.8213,585.8483 H 54.454697 V -9.4277 H -540.8213 Z"
         id="path7699"
         style="stroke-width:0.999998" />
    </clipPath>
    <clipPath
       clipPathUnits="userSpaceOnUse"
       id="clipPath7703">
      <path
         d="M -538.2217,577.9479 H 57.054297 V -17.3281 H -538.2217 Z"
         id="path7705"
         style="stroke-width:0.999998" />
    </clipPath>
    <clipPath
       clipPathUnits="userSpaceOnUse"
       id="clipPath7709">
      <path
         d="M -556.4014,578.0143 H 38.874597 V -17.2617 H -556.4014 Z"
         id="path7711"
         style="stroke-width:0.999998" />
    </clipPath>
    <clipPath
       clipPathUnits="userSpaceOnUse"
       id="clipPath7715">
      <path
         d="M -586.5449,579.5026 H 8.7310974 V -15.7734 H -586.5449 Z"
         id="path7717"
         style="stroke-width:0.999998" />
    </clipPath>
    <clipPath
       clipPathUnits="userSpaceOnUse"
       id="clipPath7722">
      <path
         d="M -584.1943,578.9381 H 11.081697 V -16.3379 H -584.1943 Z"
         id="path7724"
         style="stroke-width:0.999998" />
    </clipPath>
    <clipPath
       clipPathUnits="userSpaceOnUse"
       id="clipPath7728">
      <path
         d="M -545.417,584.5729 H 49.858997 V -10.7031 H -545.417 Z"
         id="path7730"
         style="stroke-width:0.999998" />
    </clipPath>
    <clipPath
       clipPathUnits="userSpaceOnUse"
       id="clipPath7734">
      <path
         d="M -553.8975,585.8483 H 41.378497 V -9.4277 H -553.8975 Z"
         id="path7736"
         style="stroke-width:0.999998" />
    </clipPath>
    <clipPath
       clipPathUnits="userSpaceOnUse"
       id="clipPath7740">
      <path
         d="M -574.5459,585.8522 H 20.730097 V -9.4238 H -574.5459 Z"
         id="path7742"
         style="stroke-width:0.999998" />
    </clipPath>
    <clipPath
       clipPathUnits="userSpaceOnUse"
       id="clipPath7746">
      <path
         d="M -572.8174,586.1354 H 22.458597 V -9.1406 H -572.8174 Z"
         id="path7748"
         style="stroke-width:0.999998" />
    </clipPath>
    <clipPath
       clipPathUnits="userSpaceOnUse"
       id="clipPath7752">
      <path
         d="M -567.7754,585.8522 H 27.500597 V -9.4238 H -567.7754 Z"
         id="path7754"
         style="stroke-width:0.999998" />
    </clipPath>
    <clipPath
       clipPathUnits="userSpaceOnUse"
       id="clipPath7759">
      <path
         d="M -531.1924,581.5885 H 64.083597 V -13.6875 H -531.1924 Z"
         id="path7761"
         style="stroke-width:0.999998" />
    </clipPath>
    <clipPath
       clipPathUnits="userSpaceOnUse"
       id="clipPath7765">
      <path
         d="M -548.9834,585.8522 H 46.292597 V -9.4238 H -548.9834 Z"
         id="path7767"
         style="stroke-width:0.999998" />
    </clipPath>
    <clipPath
       clipPathUnits="userSpaceOnUse"
       id="clipPath7771">
      <path
         d="M -542.9326,584.5729 H 52.343397 V -10.7031 H -542.9326 Z"
         id="path7773"
         style="stroke-width:0.999998" />
    </clipPath>
    <clipPath
       clipPathUnits="userSpaceOnUse"
       id="clipPath7777">
      <path
         d="m -446.6357,316.2653 h 595.276 v -595.276 h -595.276 z"
         id="path7779"
         style="stroke-width:0.999998" />
    </clipPath>
    <clipPath
       clipPathUnits="userSpaceOnUse"
       id="clipPath7783">
      <path
         d="m -444.2871,355.4 h 595.276 v -595.276 h -595.276 z"
         id="path7785"
         style="stroke-width:0.999998" />
    </clipPath>
    <clipPath
       clipPathUnits="userSpaceOnUse"
       id="clipPath7789">
      <path
         d="m -434.1152,247.6534 h 595.276 v -595.276 h -595.276 z"
         id="path7791"
         style="stroke-width:0.999998" />
    </clipPath>
    <clipPath
       clipPathUnits="userSpaceOnUse"
       id="clipPath7795">
      <path
         d="m -434.1152,294.2574 h 595.276 v -595.276 h -595.276 z"
         id="path7797"
         style="stroke-width:0.999998" />
    </clipPath>
    <clipPath
       clipPathUnits="userSpaceOnUse"
       id="clipPath7801">
      <path
         d="m -351.6152,355.4 h 595.276 v -595.276 h -595.276 z"
         id="path7803"
         style="stroke-width:0.999998" />
    </clipPath>
    <clipPath
       clipPathUnits="userSpaceOnUse"
       id="clipPath7807">
      <path
         d="m -359.9316,355.4 h 595.276 v -595.276 h -595.276 z"
         id="path7809"
         style="stroke-width:0.999998" />
    </clipPath>
    <clipPath
       clipPathUnits="userSpaceOnUse"
       id="clipPath7813">
      <path
         d="m -421.5947,394.5367 h 595.276 v -595.276 h -595.276 z"
         id="path7815"
         style="stroke-width:0.999998" />
    </clipPath>
    <clipPath
       clipPathUnits="userSpaceOnUse"
       id="clipPath7819">
      <path
         d="m -434.1152,463.15 h 595.276 v -595.276 h -595.276 z"
         id="path7821"
         style="stroke-width:0.999998" />
    </clipPath>
    <clipPath
       clipPathUnits="userSpaceOnUse"
       id="clipPath7825">
      <path
         d="m -434.1152,416.5485 h 595.276 v -595.276 h -595.276 z"
         id="path7827"
         style="stroke-width:0.999998" />
    </clipPath>
    <clipPath
       clipPathUnits="userSpaceOnUse"
       id="clipPath7831">
      <path
         d="M -516.6143,355.402 H 78.661697 V -239.874 H -516.6143 Z"
         id="path7833"
         style="stroke-width:0.999998" />
    </clipPath>
    <clipPath
       clipPathUnits="userSpaceOnUse"
       id="clipPath7837">
      <path
         d="M -508.2988,355.402 H 86.977197 V -239.874 H -508.2988 Z"
         id="path7839"
         style="stroke-width:0.999998" />
    </clipPath>
    <clipPath
       clipPathUnits="userSpaceOnUse"
       id="clipPath7843">
      <path
         d="m -406.0938,355.4 h 595.276 v -595.276 h -595.276 z"
         id="path7845"
         style="stroke-width:0.999998" />
    </clipPath>
    <clipPath
       clipPathUnits="userSpaceOnUse"
       id="clipPath7849">
      <path
         d="m -462.1357,355.402 h 595.276 v -595.276 h -595.276 z"
         id="path7851"
         style="stroke-width:0.999998" />
    </clipPath>
    <clipPath
       clipPathUnits="userSpaceOnUse"
       id="clipPath7855">
      <path
         d="m -161.165,416.5485 h 595.276 v -595.276 h -595.276 z"
         id="path7857"
         style="stroke-width:0.999998" />
    </clipPath>
    <clipPath
       clipPathUnits="userSpaceOnUse"
       id="clipPath7861">
      <path
         d="m -243.6641,355.402 h 595.276 v -595.276 h -595.276 z"
         id="path7863"
         style="stroke-width:0.999998" />
    </clipPath>
    <clipPath
       clipPathUnits="userSpaceOnUse"
       id="clipPath7867">
      <path
         d="m -235.3486,355.402 h 595.276 v -595.276 h -595.276 z"
         id="path7869"
         style="stroke-width:0.999998" />
    </clipPath>
    <clipPath
       clipPathUnits="userSpaceOnUse"
       id="clipPath7873">
      <path
         d="m -133.1436,355.4 h 595.276 v -595.276 h -595.276 z"
         id="path7875"
         style="stroke-width:0.999998" />
    </clipPath>
    <clipPath
       clipPathUnits="userSpaceOnUse"
       id="clipPath7879">
      <path
         d="m -189.1855,355.402 h 595.276 v -595.276 h -595.276 z"
         id="path7881"
         style="stroke-width:0.999998" />
    </clipPath>
    <clipPath
       clipPathUnits="userSpaceOnUse"
       id="clipPath7885">
      <path
         d="m -310.1611,144.8658 h 595.276 v -595.276 h -595.276 z"
         id="path7887"
         style="stroke-width:0.999998" />
    </clipPath>
    <clipPath
       clipPathUnits="userSpaceOnUse"
       id="clipPath7891">
      <path
         d="m -307.8125,184.0006 h 595.276 v -595.276 h -595.276 z"
         id="path7893"
         style="stroke-width:0.999998" />
    </clipPath>
    <clipPath
       clipPathUnits="userSpaceOnUse"
       id="clipPath7897">
      <path
         d="m -297.6406,76.2531 h 595.276 v -595.276 h -595.276 z"
         id="path7899"
         style="stroke-width:0.999998" />
    </clipPath>
    <clipPath
       clipPathUnits="userSpaceOnUse"
       id="clipPath7903">
      <path
         d="m -297.6406,122.8566 h 595.276 v -595.276 h -595.276 z"
         id="path7905"
         style="stroke-width:0.999998" />
    </clipPath>
    <clipPath
       clipPathUnits="userSpaceOnUse"
       id="clipPath7909">
      <path
         d="m -215.1406,184.0006 h 595.276 v -595.276 h -595.276 z"
         id="path7911"
         style="stroke-width:0.999998" />
    </clipPath>
    <clipPath
       clipPathUnits="userSpaceOnUse"
       id="clipPath7915">
      <path
         d="m -223.457,184.0006 h 595.276 v -595.276 h -595.276 z"
         id="path7917"
         style="stroke-width:0.999998" />
    </clipPath>
    <clipPath
       clipPathUnits="userSpaceOnUse"
       id="clipPath7921">
      <path
         d="m -285.1201,223.1364 h 595.276 v -595.276 h -595.276 z"
         id="path7923"
         style="stroke-width:0.999998" />
    </clipPath>
    <clipPath
       clipPathUnits="userSpaceOnUse"
       id="clipPath7927">
      <path
         d="m -297.6406,291.7496 h 595.276 v -595.276 h -595.276 z"
         id="path7929"
         style="stroke-width:0.999998" />
    </clipPath>
    <clipPath
       clipPathUnits="userSpaceOnUse"
       id="clipPath7933">
      <path
         d="m -297.6406,245.1471 h 595.276 v -595.276 h -595.276 z"
         id="path7935"
         style="stroke-width:0.999998" />
    </clipPath>
    <clipPath
       clipPathUnits="userSpaceOnUse"
       id="clipPath7939">
      <path
         d="m -380.1396,184.0016 h 595.276 v -595.276 h -595.276 z"
         id="path7941"
         style="stroke-width:0.999998" />
    </clipPath>
    <clipPath
       clipPathUnits="userSpaceOnUse"
       id="clipPath7945">
      <path
         d="m -371.8242,184.0016 h 595.276 v -595.276 h -595.276 z"
         id="path7947"
         style="stroke-width:0.999998" />
    </clipPath>
    <clipPath
       clipPathUnits="userSpaceOnUse"
       id="clipPath7951">
      <path
         d="m -269.6191,184.0006 h 595.276 v -595.276 h -595.276 z"
         id="path7953"
         style="stroke-width:0.999998" />
    </clipPath>
    <clipPath
       clipPathUnits="userSpaceOnUse"
       id="clipPath7957">
      <path
         d="m -325.6611,184.0016 h 595.276 v -595.276 h -595.276 z"
         id="path7959"
         style="stroke-width:0.999998" />
    </clipPath>
    <clipPath
       clipPathUnits="userSpaceOnUse"
       id="clipPath7963">
      <path
         d="m -173.6855,316.2653 h 595.276 v -595.276 h -595.276 z"
         id="path7965"
         style="stroke-width:0.999998" />
    </clipPath>
    <clipPath
       clipPathUnits="userSpaceOnUse"
       id="clipPath7969">
      <path
         d="m -171.3369,355.4 h 595.276 v -595.276 h -595.276 z"
         id="path7971"
         style="stroke-width:0.999998" />
    </clipPath>
    <clipPath
       clipPathUnits="userSpaceOnUse"
       id="clipPath7975">
      <path
         d="m -161.165,247.6534 h 595.276 v -595.276 h -595.276 z"
         id="path7977"
         style="stroke-width:0.999998" />
    </clipPath>
    <clipPath
       clipPathUnits="userSpaceOnUse"
       id="clipPath7981">
      <path
         d="m -161.165,294.2574 h 595.276 v -595.276 h -595.276 z"
         id="path7983"
         style="stroke-width:0.999998" />
    </clipPath>
    <clipPath
       clipPathUnits="userSpaceOnUse"
       id="clipPath7987">
      <path
         d="M -78.665,355.4 H 516.611 V -239.876 H -78.665 Z"
         id="path7989"
         style="stroke-width:0.999998" />
    </clipPath>
    <clipPath
       clipPathUnits="userSpaceOnUse"
       id="clipPath7993">
      <path
         d="m -86.9814,355.4 h 595.276 v -595.276 h -595.276 z"
         id="path7995"
         style="stroke-width:0.999998" />
    </clipPath>
    <clipPath
       clipPathUnits="userSpaceOnUse"
       id="clipPath7999">
      <path
         d="m -148.6445,394.5367 h 595.276 v -595.276 h -595.276 z"
         id="path8001"
         style="stroke-width:0.999998" />
    </clipPath>
    <clipPath
       clipPathUnits="userSpaceOnUse"
       id="clipPath8005">
      <path
         d="M -161.165,463.15 H 434.111 V -132.126 H -161.165 Z"
         id="path8007"
         style="stroke-width:0.999998" />
    </clipPath>
  </defs>
  <sodipodi:namedview
     id="namedview6597"
     pagecolor="#ffffff"
     bordercolor="#000000"
     borderopacity="0.25"
     inkscape:showpageshadow="2"
     inkscape:pageopacity="0.0"
     inkscape:pagecheckerboard="0"
     inkscape:deskcolor="#d1d1d1"
     showgrid="false"
     inkscape:zoom="0.29734106"
     inkscape:cx="-215.24105"
     inkscape:cy="454.02408"
     inkscape:window-width="1419"
     inkscape:window-height="456"
     inkscape:window-x="0"
     inkscape:window-y="25"
     inkscape:window-maximized="0"
     inkscape:current-layer="svg6595">
    <inkscape:page
       x="0"
       y="0"
       id="page6601"
       width="793.70135"
       height="793.70135" />
  </sodipodi:namedview>
  <path
     d="m 413.547,193.156 c 1.257,-0.339 2.581,-0.523 3.948,-0.523 8.343,0 15.107,6.764 15.107,15.107 0,4.704 -2.15,8.902 -5.518,11.673 l -17.268,13.237 c -2.793,-2.829 -6.51,-4.737 -10.66,-5.241 v -14.027 c 0,-1.242 -1.005,-2.245 -2.248,-2.245 -1.244,0 -2.248,1.003 -2.248,2.245 v 14.027 c -4.15,0.504 -7.866,2.412 -10.66,5.241 l -17.268,-13.237 c -3.369,-2.771 -5.517,-6.969 -5.517,-11.673 0,-8.343 6.763,-15.107 15.107,-15.107 1.364,0 2.689,0.182 3.948,0.522 0.786,-8.499 7.934,-15.148 16.638,-15.148 8.702,0 15.851,6.652 16.639,15.149"
     style="fill:#000000;fill-opacity:1;fill-rule:nonzero;stroke:none"
     id="path6715" />
  <path
     d="m 410.415,245.336 c 0,7.493 -6.075,13.565 -13.564,13.565 -7.487,0 -13.565,-6.072 -13.565,-13.565 0,-7.492 6.078,-13.564 13.565,-13.564 7.489,0 13.564,6.072 13.564,13.564"
     style="fill:#000000;fill-opacity:1;fill-rule:nonzero;stroke:none"
     id="path6719" />
  <path
     d="m 396.854,101.672 c 26.57,0 51.453,7.215 72.801,19.788 18.409,11.179 29.109,31.372 18.741,46.801 -8.293,12.347 -23.686,21.858 -25.816,23.138 -1.178,-5.067 -5.804,-10.494 -10.016,-13.783 -15.358,-12.013 -34.697,-19.169 -55.71,-19.169 -21.016,0 -40.352,7.156 -55.711,19.169 -4.216,3.289 -8.837,8.716 -10.02,13.783 -2.126,-1.28 -17.518,-10.791 -25.814,-23.138 -10.368,-15.429 0.33,-35.622 18.744,-46.801 21.347,-12.573 46.23,-19.788 72.801,-19.788"
     style="fill:#000000;fill-opacity:1;fill-rule:nonzero;stroke:none"
     id="path6723" />
  <path
     d="m 396.854,163.811 c 19.772,0 37.672,6.212 52.377,17.754 2.675,2.127 5.052,4.431 6.631,7.015 0.982,1.609 1.489,3.445 1.236,5.884 -0.263,2.537 -2.666,4.454 -5.091,4.454 -2.432,0 -4.935,-1.449 -4.935,-4.412 0,-1.702 0.438,-2.739 2.179,-3.955 0,0 -0.527,-1.443 -3.783,-3.986 -13.573,-10.364 -30.282,-16.522 -48.614,-16.529 -18.332,0.007 -35.042,6.165 -48.619,16.529 -3.255,2.543 -3.78,3.986 -3.78,3.986 1.74,1.216 2.177,2.253 2.177,3.955 0,2.963 -2.5,4.412 -4.932,4.412 -2.426,0 -4.829,-1.917 -5.093,-4.454 -0.255,-2.439 0.253,-4.275 1.237,-5.884 1.578,-2.584 3.956,-4.888 6.632,-7.015 14.706,-11.542 32.606,-17.754 52.378,-17.754"
     style="fill:#000000;fill-opacity:1;fill-rule:nonzero;stroke:none"
     id="path6727" />
  <path
     d="m 286.854,245.336 c 0,24.7 17.348,45.349 40.521,50.434 -11.226,9.182 -25.569,14.687 -41.2,14.687 -35.966,0 -65.122,-29.157 -65.122,-65.121 0,-35.966 29.156,-65.12 65.122,-65.12 15.631,0 29.974,5.505 41.2,14.685 -23.173,5.088 -40.521,25.736 -40.521,50.435"
     style="fill:#000000;fill-opacity:1;fill-rule:nonzero;stroke:none"
     id="path6731" />
  <path
     d="m 297.942,245.336 c 0,16.581 9.964,30.841 24.227,37.113 6.153,2.781 6.717,1.517 6.717,1.517 0.283,-2.104 1.001,-2.968 2.517,-3.749 2.631,-1.36 5.067,0.197 6.181,2.356 1.115,2.155 0.514,5.169 -1.617,6.569 -2.052,1.344 -3.914,1.736 -5.797,1.603 -3.015,-0.216 -6.141,-1.268 -9.256,-2.664 -16.833,-6.893 -28.681,-23.42 -28.715,-42.745 0.034,-19.324 11.882,-35.852 28.715,-42.746 3.115,-1.397 6.241,-2.446 9.256,-2.665 1.883,-0.132 3.745,0.26 5.797,1.605 2.131,1.4 2.732,4.412 1.617,6.57 -1.114,2.16 -3.55,3.716 -6.181,2.356 -1.516,-0.782 -2.234,-1.647 -2.517,-3.75 0,0 -0.564,-1.265 -6.717,1.515 -14.263,6.275 -24.227,20.533 -24.227,37.115"
     style="fill:#000000;fill-opacity:1;fill-rule:nonzero;stroke:none"
     id="path6735" />
  <path
     d="m 380.159,297.516 c -1.257,0.338 -2.581,0.522 -3.948,0.522 -8.343,0 -15.107,-6.762 -15.107,-15.106 0,-4.704 2.15,-8.903 5.519,-11.674 l 17.267,-13.236 c 2.793,2.827 6.51,4.736 10.66,5.24 v 14.027 c 0,1.243 1.005,2.247 2.248,2.247 1.244,0 2.246,-1.004 2.246,-2.247 v -14.027 c 4.152,-0.504 7.867,-2.413 10.662,-5.24 l 17.268,13.236 c 3.369,2.771 5.517,6.97 5.517,11.674 0,8.344 -6.763,15.106 -15.107,15.106 -1.364,0 -2.689,-0.184 -3.948,-0.521 -0.785,8.499 -7.934,15.148 -16.638,15.148 -8.702,0 -15.851,-6.652 -16.639,-15.149"
     style="fill:#000000;fill-opacity:1;fill-rule:nonzero;stroke:none"
     id="path6739" />
  <path
     d="m 396.854,389.001 c -26.571,0 -51.454,-7.214 -72.801,-19.788 -18.41,-11.18 -29.11,-31.372 -18.742,-46.801 8.294,-12.347 23.686,-21.858 25.816,-23.138 1.179,5.066 5.804,10.495 10.016,13.783 15.359,12.012 34.697,19.168 55.711,19.168 21.016,0 40.352,-7.156 55.71,-19.168 4.216,-3.288 8.838,-8.717 10.02,-13.783 2.13,1.28 17.519,10.791 25.815,23.138 10.368,15.429 -0.332,35.621 -18.743,46.801 -21.349,12.574 -46.232,19.788 -72.802,19.788"
     style="fill:#000000;fill-opacity:1;fill-rule:nonzero;stroke:none"
     id="path6743" />
  <path
     d="m 396.854,326.864 c -19.772,0 -37.672,-6.215 -52.378,-17.758 -2.676,-2.126 -5.052,-4.429 -6.63,-7.012 -0.983,-1.612 -1.49,-3.448 -1.236,-5.884 0.265,-2.54 2.665,-4.456 5.093,-4.456 2.431,0 4.931,1.45 4.931,4.411 0,1.704 -0.438,2.74 -2.179,3.957 0,0 0.528,1.444 3.784,3.986 13.573,10.362 30.283,16.522 48.615,16.529 18.332,-0.007 35.041,-6.167 48.618,-16.529 3.255,-2.542 3.779,-3.986 3.779,-3.986 -1.739,-1.217 -2.177,-2.253 -2.177,-3.957 0,-2.961 2.501,-4.411 4.933,-4.411 2.427,0 4.828,1.916 5.093,4.456 0.255,2.436 -0.253,4.272 -1.237,5.884 -1.579,2.583 -3.957,4.886 -6.632,7.012 -14.705,11.543 -32.605,17.758 -52.377,17.758"
     style="fill:#000000;fill-opacity:1;fill-rule:nonzero;stroke:none"
     id="path6747" />
  <path
     d="m 506.852,245.337 c 0,-24.699 -17.347,-45.348 -40.52,-50.433 11.225,-9.18 25.569,-14.688 41.201,-14.688 35.966,0 65.12,29.157 65.12,65.121 0,35.965 -29.154,65.12 -65.12,65.12 -15.632,0 -29.976,-5.505 -41.201,-14.685 23.173,-5.086 40.52,-25.735 40.52,-50.435"
     style="fill:#000000;fill-opacity:1;fill-rule:nonzero;stroke:none"
     id="path6751" />
  <path
     d="m 495.764,245.337 c 0,-16.58 -9.964,-30.839 -24.227,-37.113 -6.153,-2.782 -6.717,-1.516 -6.717,-1.516 -0.282,2.102 -1.002,2.966 -2.517,3.75 -2.631,1.359 -5.067,-0.197 -6.181,-2.358 -1.115,-2.155 -0.514,-5.17 1.617,-6.568 2.051,-1.347 3.915,-1.738 5.796,-1.606 3.016,0.218 6.144,1.27 9.257,2.666 16.832,6.893 28.68,23.42 28.715,42.745 -0.035,19.324 -11.883,35.852 -28.715,42.745 -3.113,1.398 -6.241,2.448 -9.257,2.664 -1.881,0.135 -3.745,-0.258 -5.796,-1.604 -2.131,-1.398 -2.732,-4.412 -1.617,-6.569 1.114,-2.159 3.55,-3.716 6.181,-2.356 1.515,0.784 2.235,1.647 2.517,3.751 0,0 0.564,1.264 6.717,-1.518 14.263,-6.273 24.227,-20.532 24.227,-37.113"
     style="fill:#000000;fill-opacity:1;fill-rule:nonzero;stroke:none"
     id="path6755" />
  <path
     d="m 359.491,245.336 c 0,-1.24 1.005,-2.247 2.248,-2.247 h 17.196 c 0.307,-2.484 1.117,-4.809 2.328,-6.875 0,0 -7.664,-5.902 -19.841,-15.209 -2.54,-1.847 -7.734,-3.997 -13.431,-3.997 -11.075,0 -20.053,6.66 -20.053,14.876 -9.292,0 -16.827,5.282 -16.827,13.452 0,8.168 7.535,13.453 16.827,13.453 0,8.216 8.978,14.876 20.053,14.876 5.697,0 10.891,-2.152 13.431,-3.997 12.177,-9.307 19.841,-15.211 19.841,-15.211 -1.211,-2.065 -2.021,-4.389 -2.328,-6.873 h -17.196 c -1.243,0 -2.248,-1.008 -2.248,-2.248"
     style="fill:#000000;fill-opacity:1;fill-rule:nonzero;stroke:none"
     id="path6759" />
  <path
     d="m 434.214,245.337 c 0,1.24 -1.008,2.247 -2.247,2.247 h -17.196 c -0.309,2.484 -1.117,4.809 -2.329,6.876 0,0 7.662,5.902 19.84,15.209 2.542,1.845 7.732,3.996 13.432,3.996 11.076,0 20.052,-6.66 20.052,-14.876 9.294,0 16.829,-5.284 16.829,-13.452 0,-8.169 -7.535,-13.452 -16.829,-13.452 0,-8.217 -8.976,-14.876 -20.052,-14.876 -5.7,0 -10.89,2.149 -13.432,3.997 -12.178,9.307 -19.84,15.21 -19.84,15.21 1.212,2.065 2.02,4.39 2.329,6.873 h 17.196 c 1.239,0 2.247,1.008 2.247,2.248"
     style="fill:#000000;fill-opacity:1;fill-rule:nonzero;stroke:none"
     id="path6763" />
  <path
     d="m 231.579,421.687 c 1.258,-0.338 2.582,-0.521 3.948,-0.521 8.343,0 15.107,6.764 15.107,15.107 0,4.704 -2.149,8.901 -5.517,11.672 l -17.268,13.237 c -2.794,-2.828 -6.511,-4.737 -10.66,-5.24 v -14.025 c 0,-1.246 -1.006,-2.248 -2.248,-2.248 -1.244,0 -2.248,1.002 -2.248,2.248 v 14.025 c -4.151,0.503 -7.867,2.412 -10.66,5.24 l -17.268,-13.237 c -3.369,-2.771 -5.517,-6.968 -5.517,-11.672 0,-8.343 6.762,-15.107 15.106,-15.107 1.364,0 2.69,0.18 3.948,0.521 0.787,-8.497 7.935,-15.148 16.639,-15.148 8.701,0 15.85,6.651 16.638,15.148"
     style="fill:#000000;fill-opacity:1;fill-rule:nonzero;stroke:none"
     id="path6767" />
  <path
     d="m 228.449,473.867 c 0,7.495 -6.075,13.568 -13.564,13.568 -7.487,0 -13.566,-6.073 -13.566,-13.568 0,-7.489 6.079,-13.562 13.566,-13.562 7.489,0 13.564,6.073 13.564,13.562"
     style="fill:#000000;fill-opacity:1;fill-rule:nonzero;stroke:none"
     id="path6771" />
  <path
     d="m 214.886,330.205 c 26.571,0 51.453,7.214 72.801,19.788 18.41,11.18 29.11,31.372 18.742,46.801 -8.294,12.347 -23.687,21.856 -25.816,23.137 -1.179,-5.066 -5.804,-10.494 -10.016,-13.782 -15.359,-12.014 -34.698,-19.17 -55.711,-19.17 -21.016,0 -40.352,7.156 -55.71,19.17 -4.216,3.288 -8.838,8.716 -10.02,13.782 -2.127,-1.281 -17.519,-10.79 -25.815,-23.137 -10.368,-15.429 0.331,-35.621 18.744,-46.801 21.348,-12.574 46.231,-19.788 72.801,-19.788"
     style="fill:#000000;fill-opacity:1;fill-rule:nonzero;stroke:none"
     id="path6775" />
  <path
     d="m 214.886,392.343 c 19.772,0 37.672,6.211 52.377,17.755 2.675,2.125 5.052,4.431 6.631,7.013 0.983,1.61 1.489,3.446 1.236,5.886 -0.263,2.537 -2.665,4.453 -5.091,4.453 -2.432,0 -4.934,-1.451 -4.934,-4.412 0,-1.703 0.437,-2.739 2.178,-3.955 0,0 -0.526,-1.442 -3.782,-3.988 -13.574,-10.361 -30.283,-16.52 -48.615,-16.528 -18.332,0.008 -35.041,6.167 -48.618,16.528 -3.255,2.546 -3.78,3.988 -3.78,3.988 1.74,1.216 2.177,2.252 2.177,3.955 0,2.961 -2.5,4.412 -4.932,4.412 -2.427,0 -4.829,-1.916 -5.093,-4.453 -0.255,-2.44 0.253,-4.276 1.237,-5.886 1.577,-2.582 3.956,-4.888 6.632,-7.013 14.705,-11.544 32.605,-17.755 52.377,-17.755"
     style="fill:#000000;fill-opacity:1;fill-rule:nonzero;stroke:none"
     id="path6779" />
  <path
     d="m 104.886,473.867 c 0,24.7 17.348,45.352 40.522,50.435 -11.227,9.182 -25.57,14.688 -41.2,14.688 -35.9668,0 -65.1228,-29.156 -65.1228,-65.123 0,-35.964 29.156,-65.12 65.1228,-65.12 15.63,0 29.973,5.506 41.2,14.688 -23.174,5.086 -40.522,25.735 -40.522,50.432"
     style="fill:#000000;fill-opacity:1;fill-rule:nonzero;stroke:none"
     id="path6783" />
  <path
     d="m 115.975,473.867 c 0,16.584 9.964,30.841 24.227,37.115 6.153,2.781 6.717,1.518 6.717,1.518 0.282,-2.105 1.001,-2.969 2.517,-3.75 2.631,-1.359 5.067,0.198 6.181,2.357 1.115,2.153 0.514,5.169 -1.617,6.567 -2.052,1.344 -3.915,1.737 -5.797,1.605 -3.015,-0.217 -6.141,-1.269 -9.256,-2.664 -16.833,-6.893 -28.681,-23.423 -28.715,-42.748 0.034,-19.322 11.882,-35.852 28.715,-42.745 3.115,-1.395 6.241,-2.445 9.256,-2.664 1.882,-0.132 3.745,0.259 5.797,1.604 2.131,1.401 2.732,4.412 1.617,6.571 -1.114,2.158 -3.55,3.716 -6.181,2.357 -1.516,-0.784 -2.235,-1.649 -2.517,-3.751 0,0 -0.564,-1.265 -6.717,1.514 -14.263,6.276 -24.227,20.533 -24.227,37.114"
     style="fill:#000000;fill-opacity:1;fill-rule:nonzero;stroke:none"
     id="path6787" />
  <path
     d="m 198.192,526.05 c -1.258,0.338 -2.582,0.524 -3.948,0.524 -8.343,0 -15.107,-6.764 -15.107,-15.108 0,-4.706 2.149,-8.903 5.519,-11.674 l 17.266,-13.237 c 2.793,2.828 6.511,4.737 10.66,5.24 v 14.028 c 0,1.243 1.005,2.248 2.248,2.248 1.244,0 2.247,-1.005 2.247,-2.248 v -14.028 c 4.152,-0.503 7.866,-2.412 10.661,-5.24 l 17.268,13.237 c 3.369,2.771 5.517,6.968 5.517,11.674 0,8.344 -6.762,15.108 -15.106,15.108 -1.364,0 -2.69,-0.186 -3.948,-0.522 -0.786,8.498 -7.935,15.148 -16.639,15.148 -8.701,0 -15.85,-6.653 -16.638,-15.15"
     style="fill:#000000;fill-opacity:1;fill-rule:nonzero;stroke:none"
     id="path6791" />
  <path
     d="m 214.886,617.533 c -26.57,0 -51.453,-7.213 -72.801,-19.789 -18.409,-11.177 -29.109,-31.369 -18.741,-46.798 8.293,-12.347 23.685,-21.86 25.816,-23.139 1.178,5.065 5.804,10.495 10.016,13.784 15.358,12.011 34.697,19.167 55.71,19.167 21.016,0 40.352,-7.156 55.711,-19.167 4.216,-3.289 8.837,-8.719 10.02,-13.784 2.129,1.279 17.518,10.792 25.814,23.139 10.368,15.429 -0.332,35.621 -18.742,46.798 -21.35,12.576 -46.232,19.789 -72.803,19.789"
     style="fill:#000000;fill-opacity:1;fill-rule:nonzero;stroke:none"
     id="path6795" />
  <path
     d="m 214.886,555.399 c -19.772,0 -37.672,-6.216 -52.377,-17.757 -2.676,-2.128 -5.052,-4.431 -6.631,-7.014 -0.982,-1.612 -1.489,-3.448 -1.236,-5.882 0.266,-2.54 2.666,-4.456 5.094,-4.456 2.43,0 4.93,1.448 4.93,4.409 0,1.705 -0.437,2.741 -2.178,3.957 0,0 0.528,1.443 3.784,3.986 13.573,10.364 30.282,16.522 48.614,16.528 18.332,-0.006 35.041,-6.164 48.619,-16.528 3.254,-2.543 3.778,-3.986 3.778,-3.986 -1.738,-1.216 -2.177,-2.252 -2.177,-3.957 0,-2.961 2.501,-4.409 4.933,-4.409 2.427,0 4.828,1.916 5.094,4.456 0.254,2.434 -0.254,4.27 -1.238,5.882 -1.578,2.583 -3.957,4.886 -6.632,7.014 -14.705,11.541 -32.605,17.757 -52.377,17.757"
     style="fill:#000000;fill-opacity:1;fill-rule:nonzero;stroke:none"
     id="path6799" />
  <path
     d="m 324.885,473.87 c 0,-24.697 -17.347,-45.349 -40.52,-50.435 11.225,-9.18 25.569,-14.688 41.201,-14.688 35.965,0 65.12,29.159 65.12,65.123 0,35.966 -29.155,65.12 -65.12,65.12 -15.632,0 -29.976,-5.506 -41.201,-14.686 23.173,-5.085 40.52,-25.734 40.52,-50.434"
     style="fill:#000000;fill-opacity:1;fill-rule:nonzero;stroke:none"
     id="path6803" />
  <path
     d="m 313.798,473.87 c 0,-16.581 -9.964,-30.839 -24.227,-37.115 -6.153,-2.781 -6.717,-1.516 -6.717,-1.516 -0.283,2.104 -1.003,2.97 -2.517,3.751 -2.631,1.359 -5.067,-0.196 -6.182,-2.357 -1.114,-2.156 -0.513,-5.17 1.618,-6.57 2.05,-1.346 3.914,-1.737 5.796,-1.605 3.016,0.219 6.144,1.269 9.257,2.667 16.832,6.893 28.68,23.42 28.715,42.745 -0.035,19.322 -11.883,35.852 -28.715,42.745 -3.113,1.397 -6.241,2.448 -9.257,2.664 -1.882,0.135 -3.746,-0.259 -5.796,-1.603 -2.131,-1.4 -2.732,-4.413 -1.618,-6.569 1.115,-2.159 3.551,-3.716 6.182,-2.357 1.514,0.784 2.234,1.646 2.517,3.75 0,0 0.564,1.266 6.717,-1.516 14.263,-6.273 24.227,-20.533 24.227,-37.114"
     style="fill:#000000;fill-opacity:1;fill-rule:nonzero;stroke:none"
     id="path6807" />
  <path
     d="m 177.525,473.867 c 0,-1.24 1.005,-2.245 2.248,-2.245 h 17.196 c 0.307,-2.484 1.117,-4.81 2.328,-6.875 0,0 -7.664,-5.904 -19.841,-15.208 -2.54,-1.849 -7.734,-4 -13.431,-4 -11.075,0 -20.053,6.662 -20.053,14.877 -9.292,0 -16.827,5.282 -16.827,13.451 0,8.169 7.535,13.453 16.827,13.453 0,8.216 8.978,14.878 20.053,14.878 5.697,0 10.891,-2.154 13.431,-3.998 12.177,-9.306 19.841,-15.21 19.841,-15.21 -1.211,-2.066 -2.021,-4.391 -2.328,-6.875 h -17.196 c -1.243,0 -2.248,-1.008 -2.248,-2.248"
     style="fill:#000000;fill-opacity:1;fill-rule:nonzero;stroke:none"
     id="path6811" />
  <path
     d="m 252.246,473.87 c 0,1.24 -1.008,2.248 -2.247,2.248 h -17.196 c -0.309,2.484 -1.117,4.809 -2.329,6.874 0,0 7.663,5.904 19.84,15.208 2.543,1.847 7.732,3.998 13.432,3.998 11.076,0 20.052,-6.659 20.052,-14.875 9.295,0 16.829,-5.287 16.829,-13.453 0,-8.17 -7.534,-13.454 -16.829,-13.454 0,-8.215 -8.976,-14.874 -20.052,-14.874 -5.7,0 -10.889,2.148 -13.432,3.997 -12.177,9.307 -19.84,15.208 -19.84,15.208 1.212,2.065 2.02,4.391 2.329,6.875 h 17.196 c 1.239,0 2.247,1.008 2.247,2.248"
     style="fill:#000000;fill-opacity:1;fill-rule:nonzero;stroke:none"
     id="path6815" />
  <path
     d="m 595.513,421.687 c 1.258,-0.338 2.582,-0.521 3.948,-0.521 8.343,0 15.107,6.764 15.107,15.107 0,4.704 -2.15,8.901 -5.518,11.672 l -17.267,13.237 c -2.794,-2.828 -6.511,-4.737 -10.66,-5.24 v -14.025 c 0,-1.246 -1.006,-2.248 -2.248,-2.248 -1.244,0 -2.248,1.002 -2.248,2.248 v 14.025 c -4.151,0.503 -7.867,2.412 -10.66,5.24 l -17.268,-13.237 c -3.37,-2.771 -5.518,-6.968 -5.518,-11.672 0,-8.343 6.763,-15.107 15.107,-15.107 1.364,0 2.689,0.18 3.948,0.521 0.787,-8.497 7.935,-15.148 16.639,-15.148 8.701,0 15.85,6.651 16.638,15.148"
     style="fill:#000000;fill-opacity:1;fill-rule:nonzero;stroke:none"
     id="path6819" />
  <path
     d="m 592.381,473.867 c 0,7.495 -6.074,13.568 -13.564,13.568 -7.486,0 -13.565,-6.073 -13.565,-13.568 0,-7.489 6.079,-13.562 13.565,-13.562 7.49,0 13.564,6.073 13.564,13.562"
     style="fill:#000000;fill-opacity:1;fill-rule:nonzero;stroke:none"
     id="path6823" />
  <path
     d="m 578.819,330.205 c 26.57,0 51.453,7.214 72.801,19.788 18.409,11.18 29.109,31.372 18.741,46.801 -8.293,12.347 -23.687,21.856 -25.816,23.137 -1.179,-5.066 -5.804,-10.494 -10.016,-13.782 -15.359,-12.014 -34.697,-19.17 -55.71,-19.17 -21.016,0 -40.352,7.156 -55.711,19.17 -4.216,3.288 -8.837,8.716 -10.02,13.782 -2.127,-1.281 -17.519,-10.79 -25.815,-23.137 -10.368,-15.429 0.331,-35.621 18.744,-46.801 21.348,-12.574 46.231,-19.788 72.802,-19.788"
     style="fill:#000000;fill-opacity:1;fill-rule:nonzero;stroke:none"
     id="path6827" />
  <path
     d="m 578.819,392.343 c 19.772,0 37.671,6.211 52.377,17.755 2.674,2.125 5.052,4.431 6.63,7.013 0.983,1.61 1.49,3.446 1.236,5.886 -0.262,2.537 -2.665,4.453 -5.09,4.453 -2.432,0 -4.935,-1.451 -4.935,-4.412 0,-1.703 0.437,-2.739 2.179,-3.955 0,0 -0.527,-1.442 -3.783,-3.988 -13.573,-10.361 -30.282,-16.52 -48.614,-16.528 -18.332,0.008 -35.042,6.167 -48.619,16.528 -3.255,2.546 -3.78,3.988 -3.78,3.988 1.74,1.216 2.177,2.252 2.177,3.955 0,2.961 -2.5,4.412 -4.932,4.412 -2.426,0 -4.829,-1.916 -5.093,-4.453 -0.255,-2.44 0.253,-4.276 1.237,-5.886 1.578,-2.582 3.956,-4.888 6.632,-7.013 14.706,-11.544 32.606,-17.755 52.378,-17.755"
     style="fill:#000000;fill-opacity:1;fill-rule:nonzero;stroke:none"
     id="path6831" />
  <path
     d="m 468.819,473.867 c 0,24.7 17.348,45.352 40.521,50.435 -11.227,9.182 -25.569,14.688 -41.2,14.688 -35.966,0 -65.122,-29.156 -65.122,-65.123 0,-35.964 29.156,-65.12 65.122,-65.12 15.631,0 29.973,5.506 41.2,14.688 -23.173,5.086 -40.521,25.735 -40.521,50.432"
     style="fill:#000000;fill-opacity:1;fill-rule:nonzero;stroke:none"
     id="path6835" />
  <path
     d="m 479.908,473.867 c 0,16.584 9.964,30.841 24.227,37.115 6.153,2.781 6.717,1.518 6.717,1.518 0.283,-2.105 1.001,-2.969 2.517,-3.75 2.631,-1.359 5.067,0.198 6.182,2.357 1.114,2.153 0.513,5.169 -1.618,6.567 -2.052,1.344 -3.914,1.737 -5.797,1.605 -3.015,-0.217 -6.141,-1.269 -9.256,-2.664 -16.833,-6.893 -28.681,-23.423 -28.715,-42.748 0.034,-19.322 11.882,-35.852 28.715,-42.745 3.115,-1.395 6.241,-2.445 9.256,-2.664 1.883,-0.132 3.745,0.259 5.797,1.604 2.131,1.401 2.732,4.412 1.618,6.571 -1.115,2.158 -3.551,3.716 -6.182,2.357 -1.516,-0.784 -2.234,-1.649 -2.517,-3.751 0,0 -0.564,-1.265 -6.717,1.514 -14.263,6.276 -24.227,20.533 -24.227,37.114"
     style="fill:#000000;fill-opacity:1;fill-rule:nonzero;stroke:none"
     id="path6839" />
  <path
     d="m 562.125,526.05 c -1.257,0.338 -2.581,0.524 -3.948,0.524 -8.342,0 -15.106,-6.764 -15.106,-15.108 0,-4.706 2.149,-8.903 5.518,-11.674 l 17.267,-13.237 c 2.793,2.828 6.511,4.737 10.66,5.24 v 14.028 c 0,1.243 1.005,2.248 2.248,2.248 1.244,0 2.247,-1.005 2.247,-2.248 v -14.028 c 4.152,-0.503 7.866,-2.412 10.661,-5.24 l 17.268,13.237 c 3.369,2.771 5.517,6.968 5.517,11.674 0,8.344 -6.763,15.108 -15.106,15.108 -1.364,0 -2.69,-0.186 -3.948,-0.522 -0.786,8.498 -7.935,15.148 -16.639,15.148 -8.701,0 -15.851,-6.653 -16.639,-15.15"
     style="fill:#000000;fill-opacity:1;fill-rule:nonzero;stroke:none"
     id="path6843" />
  <path
     d="m 578.819,617.533 c -26.571,0 -51.454,-7.213 -72.802,-19.789 -18.409,-11.177 -29.109,-31.369 -18.741,-46.798 8.293,-12.347 23.685,-21.86 25.816,-23.139 1.179,5.065 5.804,10.495 10.016,13.784 15.359,12.011 34.697,19.167 55.711,19.167 21.016,0 40.351,-7.156 55.71,-19.167 4.216,-3.289 8.837,-8.719 10.02,-13.784 2.129,1.279 17.519,10.792 25.815,23.139 10.368,15.429 -0.332,35.621 -18.743,46.798 -21.349,12.576 -46.232,19.789 -72.802,19.789"
     style="fill:#000000;fill-opacity:1;fill-rule:nonzero;stroke:none"
     id="path6847" />
  <path
     d="m 578.819,555.399 c -19.772,0 -37.672,-6.216 -52.378,-17.757 -2.676,-2.128 -5.052,-4.431 -6.63,-7.014 -0.983,-1.612 -1.49,-3.448 -1.236,-5.882 0.265,-2.54 2.665,-4.456 5.093,-4.456 2.431,0 4.931,1.448 4.931,4.409 0,1.705 -0.438,2.741 -2.179,3.957 0,0 0.528,1.443 3.784,3.986 13.573,10.364 30.283,16.522 48.615,16.528 18.332,-0.006 35.041,-6.164 48.618,-16.528 3.255,-2.543 3.779,-3.986 3.779,-3.986 -1.739,-1.216 -2.178,-2.252 -2.178,-3.957 0,-2.961 2.502,-4.409 4.934,-4.409 2.426,0 4.828,1.916 5.093,4.456 0.255,2.434 -0.253,4.27 -1.237,5.882 -1.579,2.583 -3.958,4.886 -6.632,7.014 -14.706,11.541 -32.605,17.757 -52.377,17.757"
     style="fill:#000000;fill-opacity:1;fill-rule:nonzero;stroke:none"
     id="path6851" />
  <path
     d="m 688.817,473.87 c 0,-24.697 -17.347,-45.349 -40.52,-50.435 11.225,-9.18 25.569,-14.688 41.201,-14.688 35.966,0 65.12,29.159 65.12,65.123 0,35.966 -29.154,65.12 -65.12,65.12 -15.632,0 -29.976,-5.506 -41.201,-14.686 23.173,-5.085 40.52,-25.734 40.52,-50.434"
     style="fill:#000000;fill-opacity:1;fill-rule:nonzero;stroke:none"
     id="path6855" />
  <path
     d="m 677.73,473.87 c 0,-16.581 -9.964,-30.839 -24.226,-37.115 -6.154,-2.781 -6.718,-1.516 -6.718,-1.516 -0.282,2.104 -1.002,2.97 -2.517,3.751 -2.631,1.359 -5.067,-0.196 -6.181,-2.357 -1.115,-2.156 -0.514,-5.17 1.617,-6.57 2.051,-1.346 3.915,-1.737 5.796,-1.605 3.016,0.219 6.144,1.269 9.257,2.667 16.832,6.893 28.68,23.42 28.715,42.745 -0.035,19.322 -11.883,35.852 -28.715,42.745 -3.113,1.397 -6.241,2.448 -9.257,2.664 -1.881,0.135 -3.745,-0.259 -5.796,-1.603 -2.131,-1.4 -2.732,-4.413 -1.617,-6.569 1.114,-2.159 3.55,-3.716 6.181,-2.357 1.515,0.784 2.235,1.646 2.517,3.75 0,0 0.564,1.266 6.718,-1.516 14.262,-6.273 24.226,-20.533 24.226,-37.114"
     style="fill:#000000;fill-opacity:1;fill-rule:nonzero;stroke:none"
     id="path6859" />
  <path
     d="m 541.457,473.867 c 0,-1.24 1.006,-2.245 2.248,-2.245 h 17.196 c 0.307,-2.484 1.118,-4.81 2.328,-6.875 0,0 -7.664,-5.904 -19.841,-15.208 -2.54,-1.849 -7.733,-4 -13.431,-4 -11.074,0 -20.053,6.662 -20.053,14.877 -9.292,0 -16.827,5.282 -16.827,13.451 0,8.169 7.535,13.453 16.827,13.453 0,8.216 8.979,14.878 20.053,14.878 5.698,0 10.891,-2.154 13.431,-3.998 12.177,-9.306 19.841,-15.21 19.841,-15.21 -1.21,-2.066 -2.021,-4.391 -2.328,-6.875 h -17.196 c -1.242,0 -2.248,-1.008 -2.248,-2.248"
     style="fill:#000000;fill-opacity:1;fill-rule:nonzero;stroke:none"
     id="path6863" />
  <path
     d="m 616.18,473.87 c 0,1.24 -1.008,2.248 -2.247,2.248 h -17.196 c -0.309,2.484 -1.117,4.809 -2.329,6.874 0,0 7.662,5.904 19.84,15.208 2.542,1.847 7.732,3.998 13.432,3.998 11.076,0 20.052,-6.659 20.052,-14.875 9.294,0 16.829,-5.287 16.829,-13.453 0,-8.17 -7.535,-13.454 -16.829,-13.454 0,-8.215 -8.976,-14.874 -20.052,-14.874 -5.7,0 -10.89,2.148 -13.432,3.997 -12.178,9.307 -19.84,15.208 -19.84,15.208 1.212,2.065 2.02,4.391 2.329,6.875 h 17.196 c 1.239,0 2.247,1.008 2.247,2.248"
     style="fill:#000000;fill-opacity:1;fill-rule:nonzero;stroke:none"
     id="path6867" />
</svg>
