<?xml version="1.0" encoding="UTF-8" standalone="no"?>
<!-- Created with Inkscape (http://www.inkscape.org/) -->

<svg
   version="1.1"
   id="svg2433"
   width="793.70135"
   height="793.70135"
   viewBox="0 0 793.70135 793.70135"
   sodipodi:docname="atamaawasemitsusuhama.svg"
   inkscape:version="1.2 (dc2aeda, 2022-05-15)"
   xmlns:inkscape="http://www.inkscape.org/namespaces/inkscape"
   xmlns:sodipodi="http://sodipodi.sourceforge.net/DTD/sodipodi-0.dtd"
   xmlns="http://www.w3.org/2000/svg"
   xmlns:svg="http://www.w3.org/2000/svg">
  <defs
     id="defs2437">
    <clipPath
       clipPathUnits="userSpaceOnUse"
       id="clipPath2639">
      <path
         d="m -436.2734,499.9603 h 595.276 v -841.89 h -595.276 z"
         id="path2641"
         style="stroke-width:0.999998" />
    </clipPath>
    <clipPath
       clipPathUnits="userSpaceOnUse"
       id="clipPath2645">
      <path
         d="m -172.8989,526.266 h 595.276 v -841.89 h -595.276 z"
         id="path2647"
         style="stroke-width:0.999998" />
    </clipPath>
    <clipPath
       clipPathUnits="userSpaceOnUse"
       id="clipPath2651">
      <path
         d="m -281.8062,285.0282 h 595.276 v -841.89 h -595.276 z"
         id="path2653"
         style="stroke-width:0.999998" />
    </clipPath>
  </defs>
  <sodipodi:namedview
     id="namedview2435"
     pagecolor="#ffffff"
     bordercolor="#000000"
     borderopacity="0.25"
     inkscape:showpageshadow="2"
     inkscape:pageopacity="0.0"
     inkscape:pagecheckerboard="0"
     inkscape:deskcolor="#d1d1d1"
     showgrid="false"
     inkscape:zoom="0.20068634"
     inkscape:cx="281.53386"
     inkscape:cy="607.91382"
     inkscape:window-width="1419"
     inkscape:window-height="456"
     inkscape:window-x="0"
     inkscape:window-y="25"
     inkscape:window-maximized="0"
     inkscape:current-layer="svg2433">
    <inkscape:page
       x="0"
       y="0"
       id="page2439"
       width="793.70135"
       height="793.70135" />
  </sodipodi:namedview>
  <path
     d="m 375.74132,220.03735 c 6.99067,2.51734 13.544,5.96 19.53067,10.14533 6.05067,-4.23866 12.70933,-7.65999 19.79333,-10.18266 -9.96933,-14.57067 -15.77333,-32.172 -15.77333,-51.16267 0,-50.16266 40.68133,-90.85999 90.85333,-90.85999 50.17467,0 90.86267,40.69733 90.86267,90.85999 0,37.19067 -22.36,69.18133 -54.35467,83.23333 0.47733,4.576 0.72667,9.22 0.72667,13.91867 0,72.55867 -58.828,131.38133 -131.396,131.38133 -72.55466,0 -131.38133,-58.82266 -131.38133,-131.38133 0,-4.37733 0.23867,-8.70133 0.652,-12.968 -32.72267,-13.72533 -55.712,-46.084 -55.712,-83.816 0,-50.16266 40.68533,-90.84933 90.86533,-90.84933 50.18,0 90.85067,40.68667 90.85067,90.84933 0,18.81467 -5.72,36.32 -15.51734,50.832"
     style="fill:#231f20;fill-opacity:1;fill-rule:nonzero;stroke:none;stroke-width:1.33333"
     id="path2453" />
  <path
     d="m 230.53199,541.68801 c -1.31866,-7.312 -1.608,-14.71467 -0.97733,-21.984 -6.70267,-3.13333 -12.98933,-7.184 -18.71333,-12.05867 -7.63334,15.928 -19.98,29.74934 -36.42667,39.248 -43.43866,25.08534 -99.026662,10.204 -124.111995,-33.24533 -25.078666,-43.456 -10.187999,-99.04 33.257333,-124.124 32.209332,-18.59466 71.100002,-15.228 99.262662,5.45867 3.72534,-2.7 7.612,-5.23867 11.684,-7.59733 62.84133,-36.276 143.2,-14.74534 179.48266,48.10133 36.27067,62.83733 14.74534,143.19333 -48.09066,179.47066 -3.79467,2.18667 -7.66,4.148 -11.56133,5.92267 4.48,35.20266 -12.048,71.28133 -44.72667,90.14933 -43.444,25.07867 -99.028,10.19333 -124.112,-33.26133 -25.09066,-43.45067 -10.188,-99.01733 33.25067,-124.10267 16.29733,-9.412 34.32,-13.20666 51.78266,-11.97733"
     style="fill:#231f20;fill-opacity:1;fill-rule:nonzero;stroke:none;stroke-width:1.33333"
     id="path2457" />
  <path
     d="m 581.69732,506.61334 c -5.68267,4.80534 -11.92933,8.76 -18.54667,11.844 0.62934,7.37067 0.26534,14.83867 -1.08133,22.236 17.59733,-1.352 35.748,2.42134 52.196,11.91334 43.432,25.08533 58.336,80.66799 33.24933,124.11199 -25.07733,43.45067 -80.66666,58.34134 -124.112,33.25734 -32.208,-18.596 -48.736,-53.94667 -44.908,-88.69067 -4.19066,-1.86533 -8.344,-3.97733 -12.41199,-6.32266 -62.84667,-36.28267 -84.372,-116.63467 -48.08267,-179.472 36.28,-62.84667 116.62666,-84.372 179.46533,-48.09333 3.784,2.18666 7.41733,4.55333 10.90933,7.04933 28.24667,-21.48667 67.75733,-25.20667 100.43733,-6.34533 43.43467,25.08533 58.336,80.65733 33.24667,124.11333 -25.08533,43.45466 -80.656,58.34133 -124.10133,33.25733 -16.30134,-9.408 -28.596,-23.11733 -36.26,-38.85867"
     style="fill:#231f20;fill-opacity:1;fill-rule:nonzero;stroke:none;stroke-width:1.33333"
     id="path2461" />
</svg>
