<?xml version="1.0" encoding="UTF-8" standalone="no"?>
<!-- Created with Inkscape (http://www.inkscape.org/) -->

<svg
   inkscape:version="1.2 (dc2aeda, 2022-05-15)"
   sodipodi:docname="fukushima-masanori.svg"
   viewBox="0 0 793.70135 793.70135"
   height="793.70135"
   width="793.70135"
   id="svg45508"
   version="1.1"
   xmlns:inkscape="http://www.inkscape.org/namespaces/inkscape"
   xmlns:sodipodi="http://sodipodi.sourceforge.net/DTD/sodipodi-0.dtd"
   xmlns="http://www.w3.org/2000/svg"
   xmlns:svg="http://www.w3.org/2000/svg">
  <defs
     id="defs45512">
    <clipPath
       clipPathUnits="userSpaceOnUse"
       id="clipPath46056">
      <path
         d="M -538.2217,577.9479 H 57.054297 V -17.3281 H -538.2217 Z"
         id="path46058"
         style="stroke-width:0.999998" />
    </clipPath>
    <clipPath
       clipPathUnits="userSpaceOnUse"
       id="clipPath46060">
      <path
         d="M -584.1943,578.9381 H 11.081697 V -16.3379 H -584.1943 Z"
         id="path46062"
         style="stroke-width:0.999998" />
    </clipPath>
    <clipPath
       clipPathUnits="userSpaceOnUse"
       id="clipPath46064">
      <path
         d="M -586.5449,579.5026 H 8.7310974 V -15.7734 H -586.5449 Z"
         id="path46066"
         style="stroke-width:0.999998" />
    </clipPath>
    <clipPath
       clipPathUnits="userSpaceOnUse"
       id="clipPath46068">
      <path
         d="M -556.4014,578.0143 H 38.874597 V -17.2617 H -556.4014 Z"
         id="path46070"
         style="stroke-width:0.999998" />
    </clipPath>
    <clipPath
       clipPathUnits="userSpaceOnUse"
       id="clipPath46072">
      <path
         d="M -550.2637,577.3248 H 45.012297 V -17.9512 H -550.2637 Z"
         id="path46074"
         style="stroke-width:0.999998" />
    </clipPath>
    <clipPath
       clipPathUnits="userSpaceOnUse"
       id="clipPath46076">
      <path
         d="M -568.2266,575.819 H 27.049397 V -19.457 H -568.2266 Z"
         id="path46078"
         style="stroke-width:0.999998" />
    </clipPath>
    <clipPath
       clipPathUnits="userSpaceOnUse"
       id="clipPath46080">
      <path
         d="M -557.4951,577.8502 H 37.780897 V -17.4258 H -557.4951 Z"
         id="path46082"
         style="stroke-width:0.999998" />
    </clipPath>
    <clipPath
       clipPathUnits="userSpaceOnUse"
       id="clipPath46084">
      <path
         d="M -576.3691,585.5885 H 18.906897 V -9.6875 H -576.3691 Z"
         id="path46086"
         style="stroke-width:0.999998" />
    </clipPath>
    <clipPath
       clipPathUnits="userSpaceOnUse"
       id="clipPath46088">
      <path
         d="M -574.5459,585.8522 H 20.730097 V -9.4238 H -574.5459 Z"
         id="path46090"
         style="stroke-width:0.999998" />
    </clipPath>
    <clipPath
       clipPathUnits="userSpaceOnUse"
       id="clipPath46092">
      <path
         d="M -572.8174,586.1354 H 22.458597 V -9.1406 H -572.8174 Z"
         id="path46094"
         style="stroke-width:0.999998" />
    </clipPath>
    <clipPath
       clipPathUnits="userSpaceOnUse"
       id="clipPath46096">
      <path
         d="M -567.7754,585.8522 H 27.500597 V -9.4238 H -567.7754 Z"
         id="path46098"
         style="stroke-width:0.999998" />
    </clipPath>
    <clipPath
       clipPathUnits="userSpaceOnUse"
       id="clipPath46100">
      <path
         d="M -564.5732,585.8483 H 30.702797 V -9.4277 H -564.5732 Z"
         id="path46102"
         style="stroke-width:0.999998" />
    </clipPath>
    <clipPath
       clipPathUnits="userSpaceOnUse"
       id="clipPath46104">
      <path
         d="M -561.4131,585.8522 H 33.862897 V -9.4238 H -561.4131 Z"
         id="path46106"
         style="stroke-width:0.999998" />
    </clipPath>
    <clipPath
       clipPathUnits="userSpaceOnUse"
       id="clipPath46108">
      <path
         d="M -557.0645,585.8483 H 38.211497 V -9.4277 H -557.0645 Z"
         id="path46110"
         style="stroke-width:0.999998" />
    </clipPath>
    <clipPath
       clipPathUnits="userSpaceOnUse"
       id="clipPath46112">
      <path
         d="M -553.8975,585.8483 H 41.378497 V -9.4277 H -553.8975 Z"
         id="path46114"
         style="stroke-width:0.999998" />
    </clipPath>
    <clipPath
       clipPathUnits="userSpaceOnUse"
       id="clipPath46116">
      <path
         d="M -548.9834,585.8522 H 46.292597 V -9.4238 H -548.9834 Z"
         id="path46118"
         style="stroke-width:0.999998" />
    </clipPath>
    <clipPath
       clipPathUnits="userSpaceOnUse"
       id="clipPath46120">
      <path
         d="M -545.417,584.5729 H 49.858997 V -10.7031 H -545.417 Z"
         id="path46122"
         style="stroke-width:0.999998" />
    </clipPath>
    <clipPath
       clipPathUnits="userSpaceOnUse"
       id="clipPath46124">
      <path
         d="M -542.9326,584.5729 H 52.343397 V -10.7031 H -542.9326 Z"
         id="path46126"
         style="stroke-width:0.999998" />
    </clipPath>
    <clipPath
       clipPathUnits="userSpaceOnUse"
       id="clipPath46128">
      <path
         d="M -540.8213,585.8483 H 54.454697 V -9.4277 H -540.8213 Z"
         id="path46130"
         style="stroke-width:0.999998" />
    </clipPath>
    <clipPath
       clipPathUnits="userSpaceOnUse"
       id="clipPath46132">
      <path
         d="M -536.6982,584.5729 H 58.577797 V -10.7031 H -536.6982 Z"
         id="path46134"
         style="stroke-width:0.999998" />
    </clipPath>
    <clipPath
       clipPathUnits="userSpaceOnUse"
       id="clipPath46136">
      <path
         d="M -528.0898,575.3815 H 67.186197 V -19.8945 H -528.0898 Z"
         id="path46138"
         style="stroke-width:0.999998" />
    </clipPath>
    <clipPath
       clipPathUnits="userSpaceOnUse"
       id="clipPath46140">
      <path
         d="M -531.1924,581.5885 H 64.083597 V -13.6875 H -531.1924 Z"
         id="path46142"
         style="stroke-width:0.999998" />
    </clipPath>
    <clipPath
       clipPathUnits="userSpaceOnUse"
       id="clipPath46342">
      <path
         d="m -402.9268,301.9869 h 595.276 v -595.276 h -595.276 z"
         id="path46344"
         style="stroke-width:0.999998" />
    </clipPath>
    <clipPath
       clipPathUnits="userSpaceOnUse"
       id="clipPath46348">
      <path
         d="m -419.3828,262.4191 h 595.276 v -595.276 h -595.276 z"
         id="path46350"
         style="stroke-width:0.999998" />
    </clipPath>
    <clipPath
       clipPathUnits="userSpaceOnUse"
       id="clipPath46354">
      <path
         d="m -454.4463,480.5865 h 595.276 v -595.276 h -595.276 z"
         id="path46356"
         style="stroke-width:0.999998" />
    </clipPath>
    <clipPath
       clipPathUnits="userSpaceOnUse"
       id="clipPath46360">
      <path
         d="m -138.9277,241.2667 h 595.276 v -595.276 h -595.276 z"
         id="path46362"
         style="stroke-width:0.999998" />
    </clipPath>
    <clipPath
       clipPathUnits="userSpaceOnUse"
       id="clipPath46366">
      <path
         d="m -456.3477,241.2667 h 595.276 v -595.276 h -595.276 z"
         id="path46368"
         style="stroke-width:0.999998" />
    </clipPath>
    <clipPath
       clipPathUnits="userSpaceOnUse"
       id="clipPath46372">
      <path
         d="m -321.2715,490.5944 h 595.276 v -595.276 h -595.276 z"
         id="path46374"
         style="stroke-width:0.999998" />
    </clipPath>
    <clipPath
       clipPathUnits="userSpaceOnUse"
       id="clipPath46379">
      <path
         d="m -208.167,252.8038 h 595.276 v -595.276 h -595.276 z"
         id="path46381"
         style="stroke-width:0.999998" />
    </clipPath>
    <clipPath
       clipPathUnits="userSpaceOnUse"
       id="clipPath46385">
      <path
         d="m -265.5938,425.3815 h 595.276 v -595.276 h -595.276 z"
         id="path46387"
         style="stroke-width:0.999998" />
    </clipPath>
    <clipPath
       clipPathUnits="userSpaceOnUse"
       id="clipPath46391">
      <path
         d="m -192.3486,301.9869 h 595.276 v -595.276 h -595.276 z"
         id="path46393"
         style="stroke-width:0.999998" />
    </clipPath>
  </defs>
  <sodipodi:namedview
     id="namedview45510"
     pagecolor="#ffffff"
     bordercolor="#000000"
     borderopacity="0.25"
     inkscape:showpageshadow="2"
     inkscape:pageopacity="0.0"
     inkscape:pagecheckerboard="0"
     inkscape:deskcolor="#d1d1d1"
     showgrid="false"
     inkscape:zoom="0.29734106"
     inkscape:cx="-215.24105"
     inkscape:cy="396.85068"
     inkscape:window-width="1419"
     inkscape:window-height="456"
     inkscape:window-x="0"
     inkscape:window-y="25"
     inkscape:window-maximized="0"
     inkscape:current-layer="svg45508">
    <inkscape:page
       x="0"
       y="0"
       id="page45514"
       width="793.70135"
       height="793.70135" />
  </sodipodi:namedview>
  <path
     d="M 605.928 640.782 C 603.428 641.711 591.247 615.681 567.024 581.681 C 550.311 558.222 545.413 552.55 534.319 538.157 C 494.992 487.137 448.692 441.764 396.85 403.471 C 345.009 441.764 298.709 487.137 259.382 538.157 C 248.288 552.55 243.39 558.222 226.677 581.681 C 202.454 615.681 190.273 641.711 187.773 640.782 C 186.01 640.126 192.01 613.459 221.97 572.1 C 267.637 503.296 325.117 443.014 391.517 394.148 L 391.517 144.569 C 391.517 100.347 393.913 60.9048 396.85 60.9048 C 399.789 60.9048 402.183 100.347 402.183 144.569 L 402.183 394.148 C 468.584 443.014 526.064 503.296 571.731 572.1 C 601.691 613.459 607.691 640.126 605.928 640.782 M 460.042 347.679 C 471.394 315.003 477.563 279.898 477.563 243.355 C 477.563 162.077 447.048 87.9234 396.85 31.7302 C 346.653 87.9234 316.138 162.077 316.138 243.355 C 316.138 279.898 322.307 315.003 333.659 347.679 C 233.185 424.421 168.364 545.473 168.364 681.662 C 266.606 647.191 347.994 576.889 396.85 486.433 C 445.707 576.889 527.095 647.191 625.337 681.662 C 625.337 545.473 560.515 424.421 460.042 347.679"
     style="fill:#000000;fill-opacity:1;fill-rule:nonzero;stroke:none"
     id="path45628" />
  <path
     d="M 354.125 567.175 C 348.482 573.735 342.641 580.126 336.614 586.328 C 340.71 605.91 344.029 629.42 344.005 654.125 C 344.005 705.677 344.005 758.172 344.008 758.177 L 365.342 758.177 L 365.338 758.177 L 365.338 654.125 C 365.309 620.868 359.844 590.202 354.125 567.175"
     style="fill:#000000;fill-opacity:1;fill-rule:nonzero;stroke:none"
     id="path45632" />
  <path
     d="m 386.18492,758.17533 h 21.32934 l 0.001,-233.29466 c -3.684,-5.54133 -7.24,-11.17467 -10.66667,-16.89333 -3.42533,5.71866 -6.98133,11.34933 -10.664,16.89066 z"
     style="fill:#000000;fill-opacity:1;fill-rule:nonzero;stroke:none;stroke-width:1.33333"
     id="path45636" />
  <path
     d="M 277.556 337.072 C 271.344 338.897 266.955 340.785 262.749 344.195 L 262.753 344.192 C 258.551 347.599 255.797 351.501 252.724 357.2 C 248.427 365.173 248.196 373.78 246.883 373.875 C 245.572 373.965 243.103 366.725 246.324 355.684 C 246.492 355.111 246.64 354.528 246.823 353.952 C 243.185 352.116 239.557 351.061 234.524 349.892 C 228.324 348.455 220.38 348.64 220.505 347.452 C 220.631 346.267 226.681 342.916 234.6 342.913 C 239.503 342.911 245.141 344.335 250.135 346.705 C 251.436 344.553 252.991 342.525 254.764 340.689 C 252.053 337.351 247.444 331.655 243.171 326.384 C 234.917 316.197 232.388 309.093 233.544 308.155 C 234.705 307.217 241.129 311.16 249.383 321.348 C 253.657 326.619 258.276 332.309 260.983 335.648 C 263.144 334.296 265.453 333.195 267.825 332.364 C 266.539 326.991 266.311 321.179 267.329 316.384 C 268.976 308.64 273.505 303.408 274.688 303.533 C 275.876 303.655 274.052 311.392 274.175 317.755 C 274.279 322.919 274.559 326.684 275.6 330.627 C 276.201 330.567 276.804 330.544 277.397 330.496 C 288.868 329.635 295.439 333.544 295.079 334.809 C 294.715 336.075 286.248 334.52 277.556 337.072 M 300.628 321.916 C 303.105 318.541 304.748 314.481 305.216 310.015 C 306.62 296.585 296.876 284.559 283.448 283.155 C 271.965 281.955 261.505 288.911 257.841 299.345 C 257.62 299.044 257.392 298.752 257.156 298.455 C 248.653 287.968 233.261 286.359 222.769 294.859 C 212.284 303.359 210.671 318.755 219.173 329.241 C 219.407 329.536 219.651 329.821 219.903 330.099 C 208.928 331.525 199.962 340.317 198.758 351.799 C 197.354 365.225 207.1 377.252 220.532 378.656 C 224.996 379.124 229.308 378.359 233.125 376.635 C 235.703 386.077 243.848 393.436 254.175 394.517 C 267.6 395.921 279.624 386.176 281.028 372.749 C 281.251 370.648 281.203 368.58 280.909 366.583 C 282.796 367.291 284.813 367.76 286.912 367.984 C 300.343 369.384 312.363 359.64 313.768 346.211 C 314.847 335.887 309.336 326.392 300.628 321.916"
     style="fill:#000000;fill-opacity:1;fill-rule:nonzero;stroke:none"
     id="path45640" />
  <path
     d="M 256.465 402.649 C 255.43 402.641 254.389 402.578 253.341 402.466 C 244.445 401.545 236.708 397.064 231.494 390.621 C 230.405 389.274 229.42 387.84 228.55 386.326 C 225.688 386.818 222.708 386.928 219.694 386.61 C 216.7 386.298 213.841 385.585 211.162 384.53 C 207.948 385.921 205.152 387.558 202.426 389.769 L 202.43 389.766 C 197.696 393.597 194.601 397.988 191.141 404.404 C 186.303 413.378 186.048 423.066 184.568 423.165 C 183.089 423.272 180.313 415.122 183.937 402.698 C 184.128 402.053 184.293 401.397 184.503 400.748 C 180.403 398.682 176.325 397.498 170.66 396.184 C 163.687 394.564 154.745 394.766 154.881 393.438 C 155.023 392.102 161.836 388.329 170.747 388.326 C 176.263 388.324 182.611 389.924 188.224 392.594 C 189.692 390.181 191.441 387.892 193.434 385.821 C 190.389 382.066 185.2 375.657 180.388 369.725 C 171.101 358.261 168.256 350.269 169.557 349.214 C 170.864 348.157 178.092 352.594 187.381 364.058 C 192.192 369.99 197.388 376.392 200.433 380.152 C 200.994 379.801 201.568 379.462 202.145 379.142 C 200.581 377.816 199.144 376.358 197.864 374.772 C 192.644 368.35 189.869 359.85 190.798 350.968 C 191.317 346.014 192.936 341.418 195.382 337.418 C 185.685 326.411 168.939 324.927 157.435 334.252 C 145.633 343.816 143.821 361.14 153.383 372.944 C 153.655 373.272 153.923 373.593 154.208 373.908 C 141.855 375.512 131.767 385.402 130.415 398.324 C 128.831 413.433 139.8 426.964 154.909 428.548 C 159.937 429.073 164.792 428.212 169.084 426.269 C 171.985 436.9 181.155 445.177 192.769 446.392 C 207.878 447.98 221.409 437.013 222.99 421.901 C 223.24 419.54 223.189 417.209 222.857 414.966 C 224.984 415.758 227.252 416.288 229.614 416.534 C 240.87 417.712 251.253 411.925 256.465 402.649"
     style="fill:#000000;fill-opacity:1;fill-rule:nonzero;stroke:none"
     id="path45644" />
  <path
     d="M 185.237 321.689 C 184.273 319.705 183.294 317.665 182.292 315.564 C 169.32 314.337 158.128 313.08 149.793 312.08 C 147.601 311.908 145.426 312.992 144.052 314.996 C 138.946 322.46 129.189 327.437 113.651 324.184 C 104.525 322.273 96.9039 317.882 94.5972 316.501 C 90.8879 314.274 88.9692 311.512 89.9906 309.397 C 91.1186 307.061 94.6159 307.926 96.6839 309.424 C 98.6425 310.848 100.813 312.64 105.516 314.642 C 114.316 318.389 118.424 315.656 118.88 311.768 C 118.944 311.262 118.279 307.27 114.012 305.432 C 111.912 304.525 109.155 303.353 95.2412 302.473 C 92.7092 302.314 90.8866 300.845 91.1839 298.328 C 91.4799 295.806 93.5972 294.814 96.0972 295.249 C 109.833 297.64 112.788 297.121 115.041 296.73 C 119.62 295.937 121.197 292.208 121.256 291.702 C 121.713 287.814 118.36 284.197 108.931 285.79 C 103.889 286.642 101.36 287.877 99.1212 288.801 C 96.7639 289.78 93.1586 289.798 92.6079 287.265 C 92.1066 284.973 94.6172 282.736 98.7465 281.437 C 101.312 280.626 109.747 278.14 119.062 278.41 C 134.417 278.856 142.893 285.46 146.17 293.605 C 147.272 296.564 149.352 298.392 153.314 298.872 C 155.846 299.17 158.616 299.492 161.597 299.822 C 165.869 300.301 170.572 300.806 175.621 301.317 C 170.013 289.096 164.074 275.541 158.226 261.161 C 156.134 256.016 154.054 250.769 152.008 245.439 C 151.606 244.396 151.209 243.355 150.816 242.316 C 140.498 241.308 131.573 240.303 124.742 239.483 C 122.733 239.324 120.742 240.316 119.486 242.155 C 114.813 248.985 105.877 253.54 91.6506 250.563 C 83.2999 248.813 76.3199 244.795 74.2106 243.529 C 70.8133 241.491 69.056 238.964 69.9906 237.027 C 71.024 234.888 74.2266 235.677 76.1173 237.052 C 77.9119 238.355 79.8999 239.993 84.2053 241.828 C 92.2612 245.259 96.0226 242.756 96.4412 239.199 C 96.4959 238.735 95.8892 235.076 91.9839 233.393 C 90.0599 232.565 87.5386 231.493 74.7999 230.685 C 72.4826 230.54 70.812 229.199 71.0853 226.891 C 71.356 224.584 73.2933 223.675 75.5813 224.073 C 88.1572 226.264 90.8626 225.787 92.9252 225.431 C 97.1159 224.704 98.5586 221.289 98.6145 220.827 C 99.0359 217.267 95.9639 213.956 87.3292 215.415 C 82.7146 216.193 80.4026 217.324 78.3519 218.169 C 76.1946 219.068 72.8919 219.084 72.3866 216.764 C 71.9293 214.664 74.2279 212.617 78.0066 211.428 C 80.3573 210.688 88.0786 208.409 96.6079 208.657 C 110.663 209.065 118.423 215.112 121.425 222.571 C 122.432 225.279 124.336 226.951 127.964 227.391 C 130.284 227.664 132.818 227.956 135.546 228.261 C 138.773 228.623 142.265 229 145.986 229.384 C 138.36 208.568 132.27 190.144 128.408 178.019 C 127.664 175.98 125.801 174.472 123.441 174.063 C 114.66 172.54 106.205 165.821 102.767 150.555 C 100.749 141.595 101.564 132.961 101.863 130.328 C 102.344 126.089 104.033 123.24 106.345 123.289 C 108.9 123.347 109.561 126.836 109.061 129.303 C 108.587 131.644 107.871 134.324 107.995 139.357 C 108.233 148.781 112.367 151.347 116.041 150.169 C 116.517 150.016 119.826 147.787 119.73 143.212 C 119.685 140.953 119.608 138.003 114.708 125.167 C 113.813 122.828 114.381 120.595 116.764 119.831 C 119.146 119.068 120.9 120.558 121.533 122.977 C 125.006 136.273 126.684 138.712 127.956 140.573 C 130.537 144.355 134.528 144.243 135.004 144.089 C 138.681 142.912 140.549 138.423 135.265 130.617 C 132.438 126.445 130.298 124.683 128.553 123.055 C 126.709 121.339 125.217 118.115 127.265 116.584 C 129.117 115.199 132.15 116.535 135.004 119.704 C 136.777 121.672 142.461 128.221 146.028 136.685 C 151.909 150.636 149.453 160.939 143.49 167.212 C 141.286 169.409 140.5 172.021 141.69 175.769 C 142.457 178.164 143.302 180.779 144.224 183.589 C 147.878 194.748 152.706 208.951 158.396 224.493 C 160.866 221.535 163.174 218.745 165.288 216.167 C 167.03 214.045 168.641 212.065 170.11 210.251 C 172.402 207.404 172.598 204.876 171.43 202.235 C 168.376 194.8 169.709 185.052 179.493 174.948 C 185.428 168.821 192.549 165.06 194.748 163.951 C 198.286 162.167 201.361 162.029 202.497 163.852 C 203.754 165.865 201.377 168.157 199.206 169.021 C 197.148 169.844 194.702 170.652 190.853 173.316 C 183.653 178.295 183.765 182.811 186.549 185.065 C 186.91 185.36 190.326 186.797 193.834 184.391 C 195.561 183.207 197.832 181.661 205.31 171.316 C 206.67 169.433 208.693 168.732 210.497 170.196 C 212.304 171.657 212.044 173.784 210.486 175.505 C 201.926 184.975 200.869 187.503 200.069 189.439 C 198.446 193.371 200.562 196.412 200.925 196.707 C 203.71 198.961 208.153 198.128 211.526 190.051 C 213.328 185.732 213.609 183.172 213.984 180.985 C 214.378 178.683 216.124 175.881 218.356 176.691 C 220.376 177.425 220.88 180.461 219.872 184.292 C 219.244 186.672 217.049 194.423 212.289 201.5 C 204.178 213.565 194.601 216.537 186.486 214.907 C 184.304 214.467 182.184 215.147 180.856 216.661 C 176.368 222.227 170.396 229.516 163.372 237.824 C 163.706 238.701 164.117 239.773 164.456 240.657 C 164.844 241.667 165.23 242.669 165.62 243.672 C 167.257 247.888 168.913 252.051 170.577 256.141 C 176.502 270.716 182.54 284.454 188.217 296.785 C 191.77 292.553 195.04 288.608 197.973 285.03 C 199.877 282.713 201.637 280.55 203.242 278.566 C 205.746 275.46 205.96 272.697 204.682 269.812 C 201.346 261.69 202.806 251.043 213.492 240.008 C 219.976 233.313 227.752 229.207 230.154 227.995 C 234.018 226.045 237.376 225.896 238.617 227.885 C 239.992 230.087 237.397 232.587 235.025 233.532 C 232.774 234.433 230.105 235.313 225.9 238.221 C 218.034 243.661 218.156 248.592 221.2 251.057 C 221.594 251.379 225.325 252.948 229.16 250.324 C 231.042 249.027 233.524 247.339 241.69 236.04 C 243.177 233.983 245.386 233.215 247.358 234.816 C 249.329 236.409 249.046 238.735 247.346 240.615 C 237.996 250.956 236.84 253.719 235.969 255.833 C 234.194 260.128 236.505 263.452 236.902 263.772 C 239.942 266.238 244.796 265.328 248.481 256.5 C 250.449 251.784 250.757 248.988 251.164 246.6 C 251.598 244.084 253.501 241.024 255.939 241.912 C 258.146 242.712 258.701 246.029 257.598 250.212 C 256.911 252.813 254.515 261.276 249.314 269.012 C 240.456 282.186 229.994 285.434 221.13 283.653 C 218.746 283.173 216.43 283.916 214.981 285.569 C 209.793 291.998 202.8 300.533 194.542 310.27 C 197.741 316.973 200.748 323.088 203.454 328.496 C 202.398 329.298 201.39 330.168 200.437 331.096 C 196.128 326.582 190.873 323.426 185.237 321.689"
     style="fill:#000000;fill-opacity:1;fill-rule:nonzero;stroke:none"
     id="path45648" />
  <path
     d="M 428.362 654.126 L 428.362 654.126 L 428.362 758.178 L 428.358 758.178 L 449.693 758.178 C 449.695 758.172 449.695 705.678 449.695 654.126 C 449.671 629.421 452.99 605.91 457.086 586.329 C 451.059 580.126 445.219 573.736 439.575 567.176 C 433.857 590.202 428.391 620.869 428.362 654.126"
     style="fill:#000000;fill-opacity:1;fill-rule:nonzero;stroke:none"
     id="path45652" />
  <path
     d="M 559.177 349.892 C 554.144 351.061 550.516 352.116 546.877 353.952 C 547.06 354.528 547.208 355.111 547.376 355.684 C 550.597 366.725 548.129 373.965 546.817 373.873 C 545.504 373.78 545.273 365.173 540.977 357.199 C 537.904 351.501 535.149 347.597 530.946 344.192 L 530.952 344.195 C 526.746 340.785 522.357 338.897 516.145 337.072 C 507.453 334.52 498.985 336.075 498.622 334.808 C 498.261 333.543 504.832 329.635 516.304 330.496 C 516.897 330.543 517.498 330.567 518.1 330.627 C 519.142 326.684 519.422 322.919 519.526 317.753 C 519.649 311.392 517.824 303.655 519.013 303.532 C 520.196 303.408 524.724 308.64 526.372 316.384 C 527.389 321.179 527.161 326.991 525.874 332.364 C 528.248 333.195 530.556 334.296 532.717 335.647 C 535.425 332.308 540.042 326.619 544.317 321.348 C 552.572 311.16 558.994 307.217 560.156 308.155 C 561.313 309.092 558.784 316.197 550.53 326.384 C 546.257 331.655 541.648 337.351 538.936 340.689 C 540.709 342.525 542.264 344.553 543.566 346.704 C 548.558 344.335 554.198 342.911 559.1 342.913 C 567.02 342.916 573.07 346.267 573.196 347.452 C 573.32 348.64 565.376 348.455 559.177 349.892 M 594.942 351.799 C 593.74 340.316 584.772 331.525 573.798 330.097 C 574.049 329.821 574.294 329.535 574.528 329.241 C 583.03 318.753 581.417 303.359 570.93 294.859 C 560.438 286.359 545.046 287.968 536.544 298.455 C 536.309 298.752 536.081 299.043 535.86 299.345 C 532.196 288.911 521.736 281.955 510.253 283.155 C 496.824 284.559 487.081 296.585 488.484 310.015 C 488.953 314.48 490.595 318.54 493.073 321.916 C 484.365 326.392 478.855 335.887 479.932 346.209 C 481.337 359.64 493.358 369.384 506.789 367.983 C 508.886 367.759 510.905 367.291 512.792 366.583 C 512.497 368.58 512.449 370.647 512.672 372.749 C 514.077 386.176 526.1 395.92 539.526 394.517 C 549.853 393.436 557.997 386.077 560.576 376.635 C 564.392 378.359 568.705 379.124 573.168 378.655 C 586.6 377.252 596.348 365.225 594.942 351.799"
     style="fill:#000000;fill-opacity:1;fill-rule:nonzero;stroke:none"
     id="path45656" />
  <path
     d="M 537.236 402.649 C 538.271 402.641 539.312 402.578 540.36 402.466 C 549.256 401.545 556.993 397.064 562.207 390.621 C 563.296 389.274 564.281 387.84 565.151 386.326 C 568.013 386.818 570.993 386.928 574.007 386.61 C 577.001 386.298 579.86 385.585 582.539 384.53 C 585.753 385.921 588.549 387.558 591.275 389.769 L 591.271 389.766 C 596.005 393.597 599.1 397.988 602.56 404.404 C 607.398 413.378 607.653 423.066 609.133 423.165 C 610.612 423.272 613.388 415.122 609.764 402.698 C 609.573 402.053 609.408 401.397 609.198 400.748 C 613.298 398.682 617.376 397.498 623.041 396.184 C 630.014 394.564 638.956 394.766 638.82 393.438 C 638.678 392.102 631.865 388.329 622.954 388.326 C 617.438 388.324 611.09 389.924 605.477 392.594 C 604.009 390.181 602.26 387.892 600.267 385.821 C 603.312 382.066 608.501 375.657 613.313 369.725 C 622.6 358.261 625.445 350.269 624.144 349.214 C 622.837 348.157 615.609 352.594 606.32 364.058 C 601.509 369.99 596.313 376.392 593.268 380.152 C 592.707 379.801 592.133 379.462 591.556 379.142 C 593.12 377.816 594.557 376.358 595.837 374.772 C 601.057 368.35 603.832 359.85 602.903 350.968 C 602.384 346.014 600.765 341.418 598.319 337.418 C 608.016 326.411 624.762 324.927 636.266 334.252 C 648.068 343.816 649.88 361.14 640.318 372.944 C 640.046 373.272 639.778 373.593 639.493 373.908 C 651.846 375.512 661.934 385.402 663.286 398.324 C 664.87 413.433 653.901 426.964 638.792 428.548 C 633.764 429.073 628.909 428.212 624.617 426.269 C 621.716 436.9 612.546 445.177 600.932 446.392 C 585.823 447.98 572.292 437.013 570.711 421.901 C 570.461 419.54 570.512 417.209 570.844 414.966 C 568.717 415.758 566.449 416.288 564.087 416.534 C 552.831 417.712 542.448 411.925 537.236 402.649"
     style="fill:#000000;fill-opacity:1;fill-rule:nonzero;stroke:none"
     id="path45660" />
  <path
     d="M 608.464 321.689 C 609.428 319.705 610.407 317.665 611.409 315.564 C 624.381 314.337 635.573 313.08 643.908 312.08 C 646.1 311.908 648.275 312.992 649.649 314.996 C 654.755 322.46 664.512 327.437 680.05 324.184 C 689.176 322.273 696.797 317.882 699.104 316.501 C 702.813 314.274 704.732 311.512 703.71 309.397 C 702.582 307.061 699.085 307.926 697.017 309.424 C 695.058 310.848 692.888 312.64 688.185 314.642 C 679.385 318.389 675.277 315.656 674.821 311.768 C 674.757 311.262 675.422 307.27 679.689 305.432 C 681.789 304.525 684.546 303.353 698.46 302.473 C 700.992 302.314 702.814 300.845 702.517 298.328 C 702.221 295.806 700.104 294.814 697.604 295.249 C 683.868 297.64 680.913 297.121 678.66 296.73 C 674.081 295.937 672.504 292.208 672.445 291.702 C 671.988 287.814 675.341 284.197 684.77 285.79 C 689.812 286.642 692.341 287.877 694.58 288.801 C 696.937 289.78 700.542 289.798 701.093 287.265 C 701.594 284.973 699.084 282.736 694.954 281.437 C 692.389 280.626 683.954 278.14 674.639 278.41 C 659.284 278.856 650.808 285.46 647.531 293.605 C 646.429 296.564 644.349 298.392 640.387 298.872 C 637.855 299.17 635.085 299.492 632.104 299.822 C 627.832 300.301 623.129 300.806 618.08 301.317 C 623.688 289.096 629.627 275.541 635.475 261.161 C 637.567 256.016 639.647 250.769 641.693 245.439 C 642.095 244.396 642.492 243.355 642.885 242.316 C 653.203 241.308 662.128 240.303 668.959 239.483 C 670.968 239.324 672.959 240.316 674.215 242.155 C 678.888 248.985 687.824 253.54 702.05 250.563 C 710.401 248.813 717.381 244.795 719.49 243.529 C 722.888 241.491 724.645 238.964 723.71 237.027 C 722.677 234.888 719.474 235.677 717.584 237.052 C 715.789 238.355 713.801 239.993 709.496 241.828 C 701.44 245.259 697.678 242.756 697.26 239.199 C 697.205 238.735 697.812 235.076 701.717 233.393 C 703.641 232.565 706.162 231.493 718.901 230.685 C 721.218 230.54 722.889 229.199 722.616 226.891 C 722.345 224.584 720.408 223.675 718.12 224.073 C 705.544 226.264 702.838 225.787 700.776 225.431 C 696.585 224.704 695.142 221.289 695.086 220.827 C 694.665 217.267 697.737 213.956 706.372 215.415 C 710.986 216.193 713.298 217.324 715.349 218.169 C 717.506 219.068 720.809 219.084 721.314 216.764 C 721.772 214.664 719.473 212.617 715.694 211.428 C 713.344 210.688 705.622 208.409 697.093 208.657 C 683.038 209.065 675.278 215.112 672.276 222.571 C 671.269 225.279 669.365 226.951 665.737 227.391 C 663.417 227.664 660.883 227.956 658.155 228.261 C 654.928 228.623 651.436 229 647.715 229.384 C 655.341 208.568 661.431 190.144 665.293 178.019 C 666.037 175.98 667.9 174.472 670.26 174.063 C 679.041 172.54 687.496 165.821 690.934 150.555 C 692.952 141.595 692.137 132.961 691.838 130.328 C 691.357 126.089 689.668 123.24 687.356 123.289 C 684.801 123.347 684.14 126.836 684.64 129.303 C 685.114 131.644 685.83 134.324 685.706 139.357 C 685.468 148.781 681.334 151.347 677.66 150.169 C 677.184 150.016 673.875 147.787 673.971 143.212 C 674.016 140.953 674.093 138.003 678.993 125.167 C 679.888 122.828 679.32 120.595 676.937 119.831 C 674.555 119.068 672.801 120.558 672.168 122.977 C 668.695 136.273 667.017 138.712 665.745 140.573 C 663.164 144.355 659.173 144.243 658.697 144.089 C 655.02 142.912 653.152 138.423 658.436 130.617 C 661.263 126.445 663.403 124.683 665.148 123.055 C 666.992 121.339 668.484 118.115 666.436 116.584 C 664.584 115.199 661.551 116.535 658.697 119.704 C 656.924 121.672 651.24 128.221 647.673 136.685 C 641.792 150.636 644.248 160.939 650.211 167.212 C 652.415 169.409 653.201 172.021 652.011 175.769 C 651.244 178.164 650.399 180.779 649.477 183.589 C 645.823 194.748 640.995 208.951 635.305 224.493 C 632.835 221.535 630.527 218.745 628.413 216.167 C 626.671 214.045 625.06 212.065 623.591 210.251 C 621.299 207.404 621.103 204.876 622.271 202.235 C 625.325 194.8 623.992 185.052 614.208 174.948 C 608.273 168.821 601.152 165.06 598.953 163.951 C 595.415 162.167 592.34 162.029 591.204 163.852 C 589.947 165.865 592.324 168.157 594.495 169.021 C 596.553 169.844 598.999 170.652 602.848 173.316 C 610.048 178.295 609.936 182.811 607.152 185.065 C 606.791 185.36 603.375 186.797 599.867 184.391 C 598.14 183.207 595.869 181.661 588.391 171.316 C 587.031 169.433 585.008 168.732 583.204 170.196 C 581.397 171.657 581.657 173.784 583.215 175.505 C 591.775 184.975 592.832 187.503 593.632 189.439 C 595.255 193.371 593.139 196.412 592.776 196.707 C 589.991 198.961 585.548 198.128 582.175 190.051 C 580.373 185.732 580.092 183.172 579.717 180.985 C 579.323 178.683 577.577 175.881 575.345 176.691 C 573.325 177.425 572.821 180.461 573.829 184.292 C 574.457 186.672 576.652 194.423 581.412 201.5 C 589.523 213.565 599.1 216.537 607.215 214.907 C 609.397 214.467 611.517 215.147 612.845 216.661 C 617.333 222.227 623.305 229.516 630.329 237.824 C 629.995 238.701 629.584 239.773 629.245 240.657 C 628.857 241.667 628.471 242.669 628.081 243.672 C 626.444 247.888 624.788 252.051 623.124 256.141 C 617.199 270.716 611.161 284.454 605.484 296.785 C 601.931 292.553 598.661 288.608 595.728 285.03 C 593.824 282.713 592.064 280.55 590.459 278.566 C 587.955 275.46 587.741 272.697 589.019 269.812 C 592.355 261.69 590.895 251.043 580.209 240.008 C 573.725 233.313 565.949 229.207 563.547 227.995 C 559.683 226.045 556.325 225.896 555.084 227.885 C 553.709 230.087 556.304 232.587 558.676 233.532 C 560.927 234.433 563.596 235.313 567.801 238.221 C 575.667 243.661 575.545 248.592 572.501 251.057 C 572.107 251.379 568.376 252.948 564.541 250.324 C 562.659 249.027 560.177 247.339 552.011 236.04 C 550.524 233.983 548.315 233.215 546.343 234.816 C 544.372 236.409 544.655 238.735 546.355 240.615 C 555.705 250.956 556.861 253.719 557.732 255.833 C 559.507 260.128 557.196 263.452 556.799 263.772 C 553.759 266.238 548.905 265.328 545.22 256.5 C 543.252 251.784 542.944 248.988 542.537 246.6 C 542.103 244.084 540.2 241.024 537.762 241.912 C 535.555 242.712 535 246.029 536.103 250.212 C 536.79 252.813 539.186 261.276 544.387 269.012 C 553.245 282.186 563.707 285.434 572.571 283.653 C 574.955 283.173 577.271 283.916 578.72 285.569 C 583.908 291.998 590.901 300.533 599.159 310.27 C 595.96 316.973 592.953 323.088 590.247 328.496 C 591.303 329.298 592.311 330.168 593.264 331.096 C 597.573 326.582 602.828 323.426 608.464 321.689"
     style="fill:#000000;fill-opacity:1;fill-rule:nonzero;stroke:none"
     id="path45664" />
</svg>
