<?xml version="1.0" encoding="UTF-8" standalone="no"?>
<!-- Created with Inkscape (http://www.inkscape.org/) -->

<svg
   version="1.1"
   id="svg3421"
   width="793.70135"
   height="793.70135"
   viewBox="0 0 793.70135 793.70135"
   sodipodi:docname="goshichigiri.svg"
   inkscape:version="1.2 (dc2aeda, 2022-05-15)"
   xmlns:inkscape="http://www.inkscape.org/namespaces/inkscape"
   xmlns:sodipodi="http://sodipodi.sourceforge.net/DTD/sodipodi-0.dtd"
   xmlns="http://www.w3.org/2000/svg"
   xmlns:svg="http://www.w3.org/2000/svg">
  <defs
     id="defs3425">
    <clipPath
       clipPathUnits="userSpaceOnUse"
       id="clipPath1767">
      <path
         d="M -541.9326,584.1871 H 53.343397 V -11.0889 H -541.9326 Z"
         id="path1769"
         style="stroke-width:0.999998" />
    </clipPath>
    <clipPath
       clipPathUnits="userSpaceOnUse"
       id="clipPath1773">
      <path
         d="M -539.8213,585.4625 H 55.454697 V -9.8135 H -539.8213 Z"
         id="path1775"
         style="stroke-width:0.999998" />
    </clipPath>
    <clipPath
       clipPathUnits="userSpaceOnUse"
       id="clipPath1779">
      <path
         d="M -527.0898,574.9957 H 68.186197 V -20.2803 H -527.0898 Z"
         id="path1781"
         style="stroke-width:0.999998" />
    </clipPath>
    <clipPath
       clipPathUnits="userSpaceOnUse"
       id="clipPath1785">
      <path
         d="M -535.6982,584.1871 H 59.577797 V -11.0889 H -535.6982 Z"
         id="path1787"
         style="stroke-width:0.999998" />
    </clipPath>
    <clipPath
       clipPathUnits="userSpaceOnUse"
       id="clipPath1791">
      <path
         d="M -530.1924,581.2028 H 65.083597 V -14.0732 H -530.1924 Z"
         id="path1793"
         style="stroke-width:0.999998" />
    </clipPath>
    <clipPath
       clipPathUnits="userSpaceOnUse"
       id="clipPath1797">
      <path
         d="M -544.417,584.1871 H 50.858997 V -11.0889 H -544.417 Z"
         id="path1799"
         style="stroke-width:0.999998" />
    </clipPath>
    <clipPath
       clipPathUnits="userSpaceOnUse"
       id="clipPath1803">
      <path
         d="M -547.9834,585.4664 H 47.292597 V -9.8096 H -547.9834 Z"
         id="path1805"
         style="stroke-width:0.999998" />
    </clipPath>
    <clipPath
       clipPathUnits="userSpaceOnUse"
       id="clipPath1809">
      <path
         d="M -552.8975,585.4625 H 42.378497 V -9.8135 H -552.8975 Z"
         id="path1811"
         style="stroke-width:0.999998" />
    </clipPath>
    <clipPath
       clipPathUnits="userSpaceOnUse"
       id="clipPath1815">
      <path
         d="M -556.0645,585.4625 H 39.211497 V -9.8135 H -556.0645 Z"
         id="path1817"
         style="stroke-width:0.999998" />
    </clipPath>
    <clipPath
       clipPathUnits="userSpaceOnUse"
       id="clipPath1821">
      <path
         d="M -560.4131,585.4664 H 34.862897 V -9.8096 H -560.4131 Z"
         id="path1823"
         style="stroke-width:0.999998" />
    </clipPath>
    <clipPath
       clipPathUnits="userSpaceOnUse"
       id="clipPath1827">
      <path
         d="M -563.5732,585.4625 H 31.702797 V -9.8135 H -563.5732 Z"
         id="path1829"
         style="stroke-width:0.999998" />
    </clipPath>
    <clipPath
       clipPathUnits="userSpaceOnUse"
       id="clipPath1833">
      <path
         d="M -566.7754,585.4664 H 28.500597 V -9.8096 H -566.7754 Z"
         id="path1835"
         style="stroke-width:0.999998" />
    </clipPath>
    <clipPath
       clipPathUnits="userSpaceOnUse"
       id="clipPath1840">
      <path
         d="M -571.8174,585.7496 H 23.458597 V -9.5264 H -571.8174 Z"
         id="path1842"
         style="stroke-width:0.999998" />
    </clipPath>
    <clipPath
       clipPathUnits="userSpaceOnUse"
       id="clipPath1846">
      <path
         d="M -573.5459,585.4664 H 21.730097 V -9.8096 H -573.5459 Z"
         id="path1848"
         style="stroke-width:0.999998" />
    </clipPath>
    <clipPath
       clipPathUnits="userSpaceOnUse"
       id="clipPath1852">
      <path
         d="M -575.3691,585.2028 H 19.906897 V -10.0732 H -575.3691 Z"
         id="path1854"
         style="stroke-width:0.999998" />
    </clipPath>
    <clipPath
       clipPathUnits="userSpaceOnUse"
       id="clipPath1858">
      <path
         d="M -556.4951,577.4645 H 38.780897 V -17.8115 H -556.4951 Z"
         id="path1860"
         style="stroke-width:0.999998" />
    </clipPath>
    <clipPath
       clipPathUnits="userSpaceOnUse"
       id="clipPath1864">
      <path
         d="M -567.2266,575.4332 H 28.049397 V -19.8428 H -567.2266 Z"
         id="path1866"
         style="stroke-width:0.999998" />
    </clipPath>
    <clipPath
       clipPathUnits="userSpaceOnUse"
       id="clipPath1870">
      <path
         d="M -549.2637,576.9391 H 46.012297 V -18.3369 H -549.2637 Z"
         id="path1872"
         style="stroke-width:0.999998" />
    </clipPath>
    <clipPath
       clipPathUnits="userSpaceOnUse"
       id="clipPath1877">
      <path
         d="M -555.4014,577.6285 H 39.874597 V -17.6475 H -555.4014 Z"
         id="path1879"
         style="stroke-width:0.999998" />
    </clipPath>
    <clipPath
       clipPathUnits="userSpaceOnUse"
       id="clipPath1883">
      <path
         d="M -585.5449,579.1168 H 9.7310974 V -16.1592 H -585.5449 Z"
         id="path1885"
         style="stroke-width:0.999998" />
    </clipPath>
    <clipPath
       clipPathUnits="userSpaceOnUse"
       id="clipPath1889">
      <path
         d="M -583.1943,578.5524 H 12.081697 V -16.7236 H -583.1943 Z"
         id="path1891"
         style="stroke-width:0.999998" />
    </clipPath>
    <clipPath
       clipPathUnits="userSpaceOnUse"
       id="clipPath1895">
      <path
         d="M -537.2217,577.5621 H 58.054297 V -17.7139 H -537.2217 Z"
         id="path1897"
         style="stroke-width:0.999998" />
    </clipPath>
    <clipPath
       clipPathUnits="userSpaceOnUse"
       id="clipPath1901">
      <path
         d="m -256.0298,306.4039 h 595.276 v -595.276 h -595.276 z"
         id="path1903"
         style="stroke-width:0.999998" />
    </clipPath>
    <clipPath
       clipPathUnits="userSpaceOnUse"
       id="clipPath1907">
      <path
         d="m -275.4497,298.2838 h 595.276 v -595.276 h -595.276 z"
         id="path1909"
         style="stroke-width:0.999998" />
    </clipPath>
    <clipPath
       clipPathUnits="userSpaceOnUse"
       id="clipPath1913">
      <path
         d="m -280.8677,314.8531 h 595.276 v -595.276 h -595.276 z"
         id="path1915"
         style="stroke-width:0.999998" />
    </clipPath>
    <clipPath
       clipPathUnits="userSpaceOnUse"
       id="clipPath1919">
      <path
         d="m -297.6411,563.9459 h 595.276 v -595.276 h -595.276 z"
         id="path1921"
         style="stroke-width:0.999998" />
    </clipPath>
    <clipPath
       clipPathUnits="userSpaceOnUse"
       id="clipPath1925">
      <path
         d="m -339.2461,306.4039 h 595.276 v -595.276 h -595.276 z"
         id="path1927"
         style="stroke-width:0.999998" />
    </clipPath>
    <clipPath
       clipPathUnits="userSpaceOnUse"
       id="clipPath1931">
      <path
         d="m -319.8242,298.2838 h 595.276 v -595.276 h -595.276 z"
         id="path1933"
         style="stroke-width:0.999998" />
    </clipPath>
    <clipPath
       clipPathUnits="userSpaceOnUse"
       id="clipPath1937">
      <path
         d="m -128.147,259.2281 h 595.276 v -595.276 h -595.276 z"
         id="path1939"
         style="stroke-width:0.999998" />
    </clipPath>
    <clipPath
       clipPathUnits="userSpaceOnUse"
       id="clipPath1943">
      <path
         d="m -314.4043,314.8531 h 595.276 v -595.276 h -595.276 z"
         id="path1945"
         style="stroke-width:0.999998" />
    </clipPath>
    <clipPath
       clipPathUnits="userSpaceOnUse"
       id="clipPath1949">
      <path
         d="m -315.3418,300.2233 h 595.276 v -595.276 h -595.276 z"
         id="path1951"
         style="stroke-width:0.999998" />
    </clipPath>
    <clipPath
       clipPathUnits="userSpaceOnUse"
       id="clipPath1955">
      <path
         d="m -467.1328,259.2281 h 595.276 v -595.276 h -595.276 z"
         id="path1957"
         style="stroke-width:0.999998" />
    </clipPath>
    <clipPath
       clipPathUnits="userSpaceOnUse"
       id="clipPath1961">
      <path
         d="m -307.373,280.1959 h 595.276 v -595.276 h -595.276 z"
         id="path1963"
         style="stroke-width:0.999998" />
    </clipPath>
  </defs>
  <sodipodi:namedview
     id="namedview3423"
     pagecolor="#ffffff"
     bordercolor="#000000"
     borderopacity="0.25"
     inkscape:showpageshadow="2"
     inkscape:pageopacity="0.0"
     inkscape:pagecheckerboard="0"
     inkscape:deskcolor="#d1d1d1"
     showgrid="false"
     inkscape:zoom="0.29734106"
     inkscape:cx="-280.8223"
     inkscape:cy="396.85067"
     inkscape:window-width="1419"
     inkscape:window-height="456"
     inkscape:window-x="0"
     inkscape:window-y="25"
     inkscape:window-maximized="0"
     inkscape:current-layer="g3429">
    <inkscape:page
       x="0"
       y="0"
       id="page3427"
       width="793.70135"
       height="793.70135" />
  </sodipodi:namedview>
  <g
     id="g3429"
     inkscape:groupmode="layer"
     inkscape:label="Page 1"
     transform="matrix(1.3333333,0,0,-1.3333333,0,793.70133)">
    <path
       d="m 0,0 c -0.524,-0.672 -0.918,-1.061 -1.479,-1.666 -0.499,-0.537 -0.771,-1.111 -0.944,-1.789 -0.173,-0.678 -0.212,-1.031 -0.253,-1.231 -0.047,-0.228 -0.153,-0.418 -0.438,-0.605 -0.362,-0.24 -0.659,-0.344 -0.986,-0.344 -0.327,0 -0.625,0.104 -0.987,0.344 -0.284,0.187 -0.392,0.377 -0.437,0.605 -0.041,0.2 -0.08,0.553 -0.253,1.231 -0.173,0.678 -0.446,1.252 -0.944,1.789 -0.562,0.605 -0.955,0.994 -1.479,1.666 -0.619,0.793 -1.014,1.844 -1.014,2.795 0,2.824 2.29,5.113 5.114,5.113 2.824,0 5.113,-2.289 5.113,-5.113 C 1.013,1.844 0.619,0.793 0,0 m -4.1,9.49 c -3.698,0 -6.695,-2.998 -6.696,-6.695 0,-1.44 0.588,-2.764 1.336,-3.75 0.31,-0.408 0.659,-0.809 1.034,-1.201 0.655,-0.692 0.847,-0.858 1.043,-1.459 0.163,-0.5 0.254,-1.176 0.356,-1.615 0.177,-0.764 0.9,-1.165 1.315,-1.309 0.077,-0.135 0.577,-0.908 1.612,-0.908 1.034,0 1.535,0.773 1.612,0.908 0.415,0.144 1.138,0.545 1.315,1.309 0.102,0.439 0.192,1.115 0.355,1.615 0.196,0.601 0.388,0.767 1.044,1.459 0.374,0.392 0.723,0.793 1.034,1.201 0.747,0.986 1.335,2.31 1.335,3.75 0,3.697 -2.997,6.695 -6.695,6.695"
       style="fill:#331c15;fill-opacity:1;fill-rule:nonzero;stroke:none"
       id="path3441"
       transform="translate(530.1924,14.0732)"
       clip-path="url(#clipPath1791)" />
    <path
       d="m 0,0 -2.953,-3.828 h 1.8 l -0.842,-2.795 2.952,3.83 h -1.798 z"
       style="fill:#331c15;fill-opacity:1;fill-rule:nonzero;stroke:none"
       id="path3445"
       transform="translate(527.0898,20.2803)"
       clip-path="url(#clipPath1779)" />
    <path
       d="m 0,0 h 0.339 v -1.486 c 0.137,0.179 0.288,0.314 0.452,0.404 0.164,0.09 0.343,0.135 0.534,0.135 0.196,0 0.371,-0.051 0.524,-0.151 C 2.001,-1.197 2.113,-1.332 2.186,-1.5 2.258,-1.67 2.294,-1.932 2.294,-2.293 V -3.646 H 1.956 v 1.255 c 0,0.303 -0.012,0.504 -0.036,0.608 -0.042,0.174 -0.118,0.304 -0.229,0.392 -0.11,0.086 -0.254,0.131 -0.433,0.131 -0.205,0 -0.389,-0.068 -0.55,-0.203 C 0.545,-1.598 0.439,-1.766 0.387,-1.967 0.354,-2.094 0.339,-2.332 0.339,-2.682 V -3.646 H 0 Z"
       style="fill:#331c15;fill-opacity:1;fill-rule:nonzero;stroke:none"
       id="path3449"
       transform="translate(535.6982,11.0889)"
       clip-path="url(#clipPath1785)" />
    <path
       d="m 0,0 c -0.189,0 -0.363,-0.045 -0.522,-0.139 -0.16,-0.091 -0.287,-0.222 -0.38,-0.388 -0.095,-0.168 -0.142,-0.346 -0.142,-0.532 0,-0.185 0.048,-0.363 0.143,-0.531 0.094,-0.17 0.222,-0.301 0.382,-0.396 0.161,-0.092 0.332,-0.141 0.516,-0.141 0.185,0 0.361,0.047 0.526,0.141 0.166,0.093 0.293,0.218 0.383,0.379 0.089,0.16 0.134,0.339 0.134,0.539 0,0.304 -0.101,0.558 -0.301,0.763 C 0.539,-0.102 0.292,0 0,0 M 1.352,0.26 V -2.371 H 1.019 v 0.453 C 0.876,-2.09 0.717,-2.221 0.541,-2.307 0.364,-2.395 0.171,-2.438 -0.038,-2.438 c -0.372,0 -0.691,0.135 -0.953,0.405 -0.264,0.269 -0.396,0.597 -0.396,0.984 0,0.379 0.133,0.703 0.399,0.973 0.266,0.269 0.586,0.404 0.96,0.404 0.216,0 0.411,-0.047 0.587,-0.139 0.173,-0.091 0.327,-0.228 0.46,-0.414 V 0.26 Z"
       style="fill:#331c15;fill-opacity:1;fill-rule:nonzero;stroke:none"
       id="path3453"
       transform="translate(539.8213,9.8135)"
       clip-path="url(#clipPath1773)" />
    <path
       d="m 0,0 h 0.338 v -2.076 l 1.219,1.06 H 2.055 L 0.609,-2.27 2.139,-3.646 H 1.662 L 0.338,-2.463 V -3.646 H 0 Z"
       style="fill:#331c15;fill-opacity:1;fill-rule:nonzero;stroke:none"
       id="path3457"
       transform="translate(541.9326,11.0889)"
       clip-path="url(#clipPath1767)" />
    <path
       d="m 0,0 h 0.339 v -2.076 l 1.22,1.06 H 2.055 L 0.609,-2.27 2.14,-3.646 H 1.663 L 0.339,-2.463 V -3.646 H 0 Z"
       style="fill:#331c15;fill-opacity:1;fill-rule:nonzero;stroke:none"
       id="path3461"
       transform="translate(544.417,11.0889)"
       clip-path="url(#clipPath1797)" />
    <path
       d="m 0,0 c -0.281,0 -0.523,-0.104 -0.726,-0.313 -0.202,-0.207 -0.303,-0.458 -0.303,-0.753 0,-0.19 0.046,-0.368 0.138,-0.532 0.093,-0.164 0.217,-0.291 0.374,-0.381 0.158,-0.089 0.329,-0.134 0.517,-0.134 0.188,0 0.359,0.045 0.517,0.134 0.157,0.09 0.281,0.217 0.373,0.381 0.092,0.164 0.138,0.342 0.138,0.532 0,0.295 -0.101,0.546 -0.304,0.753 C 0.521,-0.104 0.28,0 0,0 m 0.001,0.332 c 0.405,0 0.741,-0.148 1.007,-0.441 0.243,-0.268 0.363,-0.584 0.363,-0.95 0,-0.367 -0.127,-0.689 -0.383,-0.962 -0.257,-0.276 -0.585,-0.413 -0.987,-0.413 -0.403,0 -0.733,0.137 -0.989,0.413 -0.256,0.273 -0.384,0.595 -0.384,0.962 0,0.364 0.121,0.68 0.363,0.948 0.267,0.295 0.603,0.443 1.01,0.443"
       style="fill:#331c15;fill-opacity:1;fill-rule:nonzero;stroke:none"
       id="path3465"
       transform="translate(547.9834,9.8096)"
       clip-path="url(#clipPath1803)" />
    <path
       d="m 549.761,8.972 h 1.33 V 8.677 h -1.33 z"
       style="fill:#331c15;fill-opacity:1;fill-rule:nonzero;stroke:none"
       id="path3467" />
    <path
       d="m 0,0 c -0.188,0 -0.362,-0.045 -0.521,-0.139 -0.16,-0.091 -0.287,-0.222 -0.38,-0.388 -0.095,-0.168 -0.142,-0.346 -0.142,-0.532 0,-0.185 0.047,-0.363 0.143,-0.531 0.094,-0.17 0.222,-0.301 0.382,-0.396 0.161,-0.092 0.332,-0.141 0.516,-0.141 0.185,0 0.36,0.047 0.526,0.141 0.165,0.093 0.293,0.218 0.383,0.379 0.089,0.16 0.134,0.339 0.134,0.539 0,0.304 -0.101,0.558 -0.301,0.763 C 0.539,-0.102 0.293,0 0,0 M 1.353,1.275 V -2.371 H 1.019 v 0.453 C 0.877,-2.09 0.718,-2.221 0.542,-2.307 0.365,-2.395 0.173,-2.438 -0.037,-2.438 c -0.372,0 -0.691,0.135 -0.954,0.405 -0.264,0.269 -0.395,0.597 -0.395,0.984 0,0.379 0.133,0.703 0.399,0.973 0.265,0.269 0.585,0.404 0.96,0.404 0.215,0 0.411,-0.047 0.586,-0.139 0.174,-0.091 0.328,-0.228 0.46,-0.414 v 1.5 z"
       style="fill:#331c15;fill-opacity:1;fill-rule:nonzero;stroke:none"
       id="path3471"
       transform="translate(552.8975,9.8135)"
       clip-path="url(#clipPath1809)" />
    <path
       d="m 0,0 c -0.188,0 -0.362,-0.045 -0.521,-0.139 -0.161,-0.091 -0.287,-0.222 -0.38,-0.388 -0.095,-0.168 -0.142,-0.346 -0.142,-0.532 0,-0.185 0.047,-0.363 0.142,-0.531 0.095,-0.17 0.222,-0.301 0.383,-0.396 0.161,-0.092 0.331,-0.141 0.515,-0.141 0.186,0 0.361,0.047 0.526,0.141 0.166,0.093 0.294,0.218 0.382,0.379 0.091,0.16 0.136,0.339 0.136,0.539 0,0.304 -0.101,0.558 -0.302,0.763 C 0.539,-0.102 0.292,0 0,0 M 1.353,0.26 V -2.371 H 1.019 v 0.453 C 0.876,-2.09 0.718,-2.221 0.541,-2.307 0.365,-2.395 0.171,-2.438 -0.038,-2.438 c -0.372,0 -0.69,0.135 -0.953,0.405 -0.264,0.269 -0.396,0.597 -0.396,0.984 0,0.379 0.134,0.703 0.4,0.973 0.265,0.269 0.585,0.404 0.959,0.404 0.216,0 0.412,-0.047 0.587,-0.139 0.174,-0.091 0.327,-0.228 0.46,-0.414 V 0.26 Z"
       style="fill:#331c15;fill-opacity:1;fill-rule:nonzero;stroke:none"
       id="path3475"
       transform="translate(556.0645,9.8135)"
       clip-path="url(#clipPath1815)" />
    <path
       d="m 558.127,10.073 h 0.339 V 7.442 h -0.339 z m 0.169,1.082 c 0.076,0 0.142,-0.027 0.197,-0.082 0.054,-0.054 0.082,-0.121 0.082,-0.197 0,-0.076 -0.028,-0.141 -0.082,-0.197 -0.055,-0.055 -0.121,-0.082 -0.197,-0.082 -0.076,0 -0.141,0.027 -0.195,0.082 -0.055,0.056 -0.082,0.121 -0.082,0.197 0,0.076 0.027,0.143 0.082,0.197 0.054,0.055 0.119,0.082 0.195,0.082"
       style="fill:#331c15;fill-opacity:1;fill-rule:nonzero;stroke:none"
       id="path3477" />
    <path
       d="m 0,0 c -0.281,0 -0.523,-0.104 -0.726,-0.313 -0.202,-0.207 -0.302,-0.458 -0.302,-0.753 0,-0.19 0.046,-0.368 0.137,-0.532 0.092,-0.164 0.217,-0.291 0.374,-0.381 0.158,-0.089 0.329,-0.134 0.517,-0.134 0.188,0 0.359,0.045 0.517,0.134 0.156,0.09 0.281,0.217 0.374,0.381 0.091,0.164 0.137,0.342 0.137,0.532 0,0.295 -0.101,0.546 -0.304,0.753 C 0.521,-0.104 0.279,0 0,0 m 0.001,0.332 c 0.405,0 0.741,-0.148 1.007,-0.441 0.243,-0.268 0.363,-0.584 0.363,-0.95 0,-0.367 -0.128,-0.689 -0.384,-0.962 -0.256,-0.276 -0.584,-0.413 -0.986,-0.413 -0.403,0 -0.733,0.137 -0.989,0.413 -0.256,0.273 -0.384,0.595 -0.384,0.962 0,0.364 0.121,0.68 0.363,0.948 0.267,0.295 0.604,0.443 1.01,0.443"
       style="fill:#331c15;fill-opacity:1;fill-rule:nonzero;stroke:none"
       id="path3481"
       transform="translate(560.4131,9.8096)"
       clip-path="url(#clipPath1821)" />
    <path
       d="m 0,0 c -0.188,0 -0.362,-0.045 -0.521,-0.139 -0.16,-0.091 -0.287,-0.222 -0.38,-0.388 -0.095,-0.168 -0.142,-0.346 -0.142,-0.532 0,-0.185 0.048,-0.363 0.143,-0.531 0.094,-0.17 0.222,-0.301 0.382,-0.396 0.161,-0.092 0.332,-0.141 0.516,-0.141 0.185,0 0.36,0.047 0.526,0.141 0.166,0.093 0.293,0.218 0.383,0.379 0.089,0.16 0.134,0.339 0.134,0.539 0,0.304 -0.101,0.558 -0.301,0.763 C 0.54,-0.102 0.293,0 0,0 M 1.354,1.275 V -2.371 H 1.019 v 0.453 C 0.877,-2.09 0.718,-2.221 0.542,-2.307 0.365,-2.395 0.172,-2.438 -0.037,-2.438 c -0.372,0 -0.691,0.135 -0.954,0.405 -0.263,0.269 -0.395,0.597 -0.395,0.984 0,0.379 0.132,0.703 0.399,0.973 0.266,0.269 0.586,0.404 0.959,0.404 0.216,0 0.412,-0.047 0.587,-0.139 0.174,-0.091 0.328,-0.228 0.46,-0.414 v 1.5 z"
       style="fill:#331c15;fill-opacity:1;fill-rule:nonzero;stroke:none"
       id="path3485"
       transform="translate(563.5732,9.8135)"
       clip-path="url(#clipPath1827)" />
    <path
       d="m 0,0 c -0.282,0 -0.523,-0.104 -0.726,-0.313 -0.202,-0.207 -0.302,-0.458 -0.302,-0.753 0,-0.19 0.046,-0.368 0.137,-0.532 0.092,-0.164 0.217,-0.291 0.373,-0.381 0.158,-0.089 0.33,-0.134 0.518,-0.134 0.187,0 0.358,0.045 0.517,0.134 0.156,0.09 0.281,0.217 0.373,0.381 0.092,0.164 0.138,0.342 0.138,0.532 0,0.295 -0.101,0.546 -0.304,0.753 C 0.521,-0.104 0.279,0 0,0 m 0.001,0.332 c 0.404,0 0.741,-0.148 1.008,-0.441 0.241,-0.268 0.362,-0.584 0.362,-0.95 0,-0.367 -0.128,-0.689 -0.384,-0.962 -0.256,-0.276 -0.585,-0.413 -0.986,-0.413 -0.404,0 -0.733,0.137 -0.989,0.413 -0.256,0.273 -0.384,0.595 -0.384,0.962 0,0.364 0.12,0.68 0.363,0.948 0.266,0.295 0.603,0.443 1.01,0.443"
       style="fill:#331c15;fill-opacity:1;fill-rule:nonzero;stroke:none"
       id="path3489"
       transform="translate(566.7754,9.8096)"
       clip-path="url(#clipPath1833)" />
    <path
       d="m 568.5967,7.9756 c 0.082,0 0.152,-0.029 0.21,-0.088 0.058,-0.058 0.087,-0.129 0.087,-0.213 0,-0.082 -0.029,-0.152 -0.087,-0.211 -0.058,-0.058 -0.128,-0.088 -0.21,-0.088 -0.082,0 -0.152,0.03 -0.21,0.088 -0.059,0.059 -0.087,0.129 -0.087,0.211 0,0.084 0.028,0.155 0.087,0.213 0.058,0.059 0.128,0.088 0.21,0.088"
       style="fill:#331c15;fill-opacity:1;fill-rule:nonzero;stroke:none"
       id="path3493" />
    <path
       d="m 0,0 -0.269,-0.166 c -0.231,0.307 -0.547,0.461 -0.948,0.461 -0.32,0 -0.587,-0.104 -0.799,-0.309 -0.211,-0.207 -0.317,-0.457 -0.317,-0.752 0,-0.191 0.049,-0.371 0.146,-0.539 0.098,-0.17 0.231,-0.3 0.402,-0.394 0.17,-0.094 0.359,-0.141 0.57,-0.141 0.387,0 0.701,0.154 0.946,0.463 L 0,-1.555 C -0.126,-1.744 -0.295,-1.891 -0.506,-1.994 -0.719,-2.1 -0.959,-2.15 -1.23,-2.15 c -0.416,0 -0.761,0.13 -1.036,0.396 -0.273,0.264 -0.41,0.586 -0.41,0.965 0,0.254 0.064,0.49 0.192,0.709 0.129,0.217 0.304,0.389 0.529,0.512 0.224,0.121 0.475,0.183 0.751,0.183 0.175,0 0.343,-0.027 0.504,-0.08 C -0.538,0.48 -0.4,0.412 -0.288,0.326 -0.175,0.24 -0.079,0.133 0,0"
       style="fill:#331c15;fill-opacity:1;fill-rule:nonzero;stroke:none"
       id="path3497"
       transform="translate(571.8174,9.5264)"
       clip-path="url(#clipPath1840)" />
    <path
       d="m 0,0 c -0.281,0 -0.522,-0.104 -0.725,-0.313 -0.202,-0.207 -0.303,-0.458 -0.303,-0.753 0,-0.19 0.047,-0.368 0.138,-0.532 0.092,-0.164 0.217,-0.291 0.374,-0.381 0.157,-0.089 0.328,-0.134 0.516,-0.134 0.188,0 0.36,0.045 0.518,0.134 0.156,0.09 0.281,0.217 0.373,0.381 0.092,0.164 0.138,0.342 0.138,0.532 0,0.295 -0.101,0.546 -0.304,0.753 C 0.521,-0.104 0.28,0 0,0 m 0.002,0.332 c 0.405,0 0.74,-0.148 1.007,-0.441 0.242,-0.268 0.363,-0.584 0.363,-0.95 0,-0.367 -0.128,-0.689 -0.384,-0.962 -0.256,-0.276 -0.585,-0.413 -0.986,-0.413 -0.403,0 -0.733,0.137 -0.99,0.413 -0.256,0.273 -0.383,0.595 -0.383,0.962 0,0.364 0.121,0.68 0.363,0.948 0.266,0.295 0.604,0.443 1.01,0.443"
       style="fill:#331c15;fill-opacity:1;fill-rule:nonzero;stroke:none"
       id="path3501"
       transform="translate(573.5459,9.8096)"
       clip-path="url(#clipPath1846)" />
    <path
       d="m 0,0 h 0.338 v -0.455 c 0.118,0.168 0.239,0.291 0.364,0.367 0.171,0.104 0.351,0.156 0.539,0.156 0.127,0 0.248,-0.025 0.363,-0.076 0.115,-0.049 0.209,-0.115 0.281,-0.199 0.073,-0.082 0.136,-0.201 0.188,-0.357 0.113,0.207 0.254,0.363 0.423,0.472 0.169,0.106 0.351,0.16 0.545,0.16 0.182,0 0.342,-0.047 0.481,-0.138 0.139,-0.092 0.242,-0.221 0.31,-0.385 0.067,-0.164 0.102,-0.41 0.102,-0.738 V -2.631 H 3.587 v 1.438 c 0,0.281 -0.02,0.474 -0.06,0.58 -0.04,0.105 -0.108,0.191 -0.207,0.256 -0.096,0.064 -0.213,0.095 -0.347,0.095 -0.163,0 -0.314,-0.047 -0.45,-0.144 C 2.388,-0.504 2.289,-0.631 2.226,-0.793 2.163,-0.955 2.132,-1.223 2.132,-1.6 V -2.631 H 1.794 v 1.348 c 0,0.316 -0.02,0.533 -0.06,0.646 -0.04,0.114 -0.108,0.205 -0.206,0.274 -0.098,0.068 -0.215,0.101 -0.35,0.101 -0.157,0 -0.303,-0.047 -0.44,-0.14 C 0.603,-0.496 0.502,-0.623 0.437,-0.783 0.371,-0.943 0.338,-1.188 0.338,-1.516 V -2.631 H 0 Z"
       style="fill:#331c15;fill-opacity:1;fill-rule:nonzero;stroke:none"
       id="path3505"
       transform="translate(575.3691,10.0732)"
       clip-path="url(#clipPath1852)" />
    <path
       d="M 0,0 H 3.84 L 0.494,-5.463 h 0.997 l 3.3,5.44 3.376,-5.44 0.975,0.002 L 5.68,0.002 H 9.574 V 0.715 H 5.215 V 3.328 H 4.361 V 0.715 H 0 Z"
       style="fill:#331c15;fill-opacity:1;fill-rule:nonzero;stroke:none"
       id="path3509"
       transform="translate(556.4951,17.8115)"
       clip-path="url(#clipPath1858)" />
    <path
       d="M 0,0 H 3.669 V -2.686 H 0.317 V -3.4 h 3.352 v -3.375 l -3.904,-0.002 v -0.715 h 8.623 v 0.715 H 4.523 V -3.4 h 3.314 v 0.714 H 4.523 V 0 h 3.63 V 0.717 H 0 Z"
       style="fill:#331c15;fill-opacity:1;fill-rule:nonzero;stroke:none"
       id="path3513"
       transform="translate(567.2266,19.8428)"
       clip-path="url(#clipPath1864)" />
    <path
       d="M 0,0 -1.709,2.238 H -2.678 L -2.657,2.211 -2.635,2.227 -2.609,2.193 -2.632,2.178 -0.97,0 Z"
       style="fill:#331c15;fill-opacity:1;fill-rule:nonzero;stroke:none"
       id="path3517"
       transform="translate(549.2637,18.3369)"
       clip-path="url(#clipPath1870)" />
    <path
       d="m 552.2979,18.3369 h 0.987 l 1.709,2.238 h -0.987 z"
       style="fill:#331c15;fill-opacity:1;fill-rule:nonzero;stroke:none"
       id="path3521" />
    <path
       d="M 0,0 H -4.241 V 3.492 H -5.056 V 0 h -4.241 v -0.715 h 3.234 l -3.26,-4.603 h 0.994 l 3.23,4.603 h 1.017 V -5.318 H 0.21 v 2.451 h -0.775 v -1.746 h -2.703 v 3.898 H 0 Z"
       style="fill:#331c15;fill-opacity:1;fill-rule:nonzero;stroke:none"
       id="path3525"
       transform="translate(555.4014,17.6475)"
       clip-path="url(#clipPath1877)" />
    <path
       d="m 0,0 v 3.869 h -1.813 l 1.036,1.338 H -1.643 L -2.748,3.869 H -3.944 V 5.371 H -4.773 V 3.869 H -6.072 L -7.057,5.207 H -7.921 L -6.886,3.869 H -8.719 V 0 h 0.751 v 3.18 h 7.217 V 0 Z"
       style="fill:#331c15;fill-opacity:1;fill-rule:nonzero;stroke:none"
       id="path3529"
       transform="translate(585.5449,16.1592)"
       clip-path="url(#clipPath1883)" />
    <path
       d="m 0,0 v 0.021 z m -4.039,-0.021 v 1.343 h 4.06 V 0 -0.021 Z m 6.115,-4.34 v 0.697 h -3.709 v 1.307 h 2.948 v 0.697 h -2.948 v 0.941 h 2.405 v 0.35 2.387 h -5.561 v -2.737 h 2.405 V -1.66 h -2.949 v -0.697 h 2.949 v -1.307 h -3.709 v -0.697 z"
       style="fill:#331c15;fill-opacity:1;fill-rule:nonzero;stroke:none"
       id="path3533"
       transform="translate(583.1943,16.7236)"
       clip-path="url(#clipPath1889)" />
    <path
       d="M 0,0 2.609,2.625 5.246,0 Z M 3.152,-2.049 H 1.711 l 0.303,1.346 h 1.138 z m 2.366,1.346 v 0.436 L 6.447,-1.248 H 8 v 0.707 H 6.831 L 5.549,0.758 7.014,2.385 H 6.181 L 5.086,1.199 4.408,1.875 5.785,3.355 H 4.912 L 3.942,2.344 2.923,3.355 H -0.546 V 2.781 H 1.723 L 0.623,1.688 H -1.754 V 1.105 h 1.791 l -2.439,-2.408 h 1.105 L -0.25,-0.25 V -0.703 H 1.186 L 0.852,-2.049 H -1.287 V -2.756 H 0.647 L 0.148,-4.68 h -1.82 v -0.705 h 2.548 l 0.645,2.629 h 1.631 v -2.629 h 3.827 v 1.69 H 6.203 V -4.68 H 3.928 v 1.924 h 2.401 v 0.707 H 3.945 v 1.346 z"
       style="fill:#331c15;fill-opacity:1;fill-rule:nonzero;stroke:none"
       id="path3537"
       transform="translate(537.2217,17.7139)"
       clip-path="url(#clipPath1895)" />
    <path
       d="m 0,0 c -8.074,-1.61 -16.586,-4.012 -25.883,-7.563 0.135,-2.482 0.33,-7.437 0.33,-14.457 0,-3.24 -0.035,-6.921 -0.142,-11.011 -0.08,-2.961 -0.338,-6.113 -0.561,-9.172 8.832,8.465 18.182,15.013 27.031,20.442 0.088,1.908 0.143,3.8 0.143,5.666 C 0.918,-9.502 0.373,-3.394 0,0"
       style="fill:#000000;fill-opacity:1;fill-rule:nonzero;stroke:none"
       id="path3541"
       transform="translate(256.0298,288.8721)"
       clip-path="url(#clipPath1901)" />
    <path
       d="m 0,0 c 0.248,2.826 1.006,5.508 2.211,7.936 -13.852,6.101 -34.135,17.972 -72.584,26.194 -47.377,10.123 -95.211,0.179 -118.793,-16.275 -23.322,-16.273 -34.445,-36.02 -33.082,-58.961 0,0 -16.275,-16.274 -12.309,-47.011 4.11,-31.661 27.496,-39.049 27.496,-39.049 0,0 -0.009,-32.545 24.581,-44.114 24.597,-11.574 44.472,-3.26 44.472,-3.26 0,0 8.449,-7.403 40.408,-8.238 -1.675,4.711 -2.726,10.187 -2.754,16.451 0,2.408 0.151,4.928 0.491,7.549 4.349,34.964 15.4,64.151 45.523,99.297 0.901,1.054 1.819,2.083 2.736,3.094 0.483,5.058 0.875,10.406 1.006,15.388 0.108,4.034 0.162,7.665 0.162,10.859 0,5.463 -0.125,9.619 -0.24,12.304 -7.951,-3.315 -16.48,-7.47 -25.793,-12.674 0.16,-6.046 1.694,-21.033 -5.89,-49.731 -7.887,-29.88 -29.313,-65.513 -30.694,-65.339 -1.39,0.175 17.85,36.267 25.336,66.447 6.641,26.787 6.053,38.395 5.813,45.516 -4.69,-2.734 -9.563,-5.725 -14.662,-8.997 -3.11,-2 -6.131,-4.162 -9.065,-6.459 -0.275,-4.88 -1.807,-23.03 -10.383,-50.274 -10.06,-32.006 -25.265,-48.569 -24.748,-46.53 0.508,2.039 9.83,16.476 19.528,48.156 8.394,27.394 9.588,37.119 9.955,43.968 -14.075,-12.316 -25.901,-27.59 -35.383,-42.506 -11.809,-17.503 -21.791,-40.534 -25.818,-49.216 -4.032,-8.683 -5.903,-9.827 -2.809,0.621 3.082,10.448 14.107,37.336 28.717,58.699 8.304,12.138 18.154,24.224 29.56,34.599 -2.101,-0.394 -4.5,-0.939 -7.119,-1.694 -9.287,-2.654 -21.033,-7.822 -31.015,-17.798 -5.563,-5.557 -10.588,-12.045 -14.93,-18.48 -10.676,-15.239 -19.606,-34.376 -20.844,-33.175 -1.24,1.203 7.129,24.614 21.514,43.506 3.181,4.187 6.656,8.274 10.392,12.014 19.491,19.426 44.516,21.83 49.686,22.146 3.154,2.494 6.426,4.849 9.803,7.032 4.671,3.02 9.207,5.798 13.564,8.367 -4.982,1.156 -12.842,2.517 -22.379,2.517 -12.939,0 -28.76,-2.508 -44.25,-11.383 -9.963,-5.705 -18.332,-12.948 -25.14,-20.284 -12.522,-13.846 -25.901,-36.385 -26.719,-35.763 -0.83,0.62 8.324,26.735 29.525,46.29 5.695,5.255 12.219,10.256 19.617,14.508 16.514,9.461 33.332,12.107 46.967,12.107 14.84,-0.005 25.963,-3.112 29.117,-4.096 8.707,4.869 16.782,8.852 24.377,12.1 -1.953,0.885 -4.449,1.905 -7.496,2.931 -8.619,2.888 -21.603,5.805 -38.929,5.805 -8.922,0 -19.01,-0.772 -30.25,-2.737 -17.78,-3.086 -32.387,-10.642 -43.848,-19.165 -20.018,-14.644 -34.615,-37.145 -35.401,-36.067 -0.783,1.076 12.569,29.019 40.756,46.299 10.473,6.422 22.979,11.76 37.559,14.33 11.541,2.012 21.939,2.822 31.184,2.822 30.292,0 48.134,-8.64 53.169,-11.478 8.317,3.214 16.061,5.541 23.424,7.228 -4.074,2.193 -10.08,5.151 -17.781,8.131 -15.213,5.887 -36.816,11.773 -62.297,11.773 -7.808,0 -15.98,-0.552 -24.447,-1.832 -10.828,-1.627 -20.188,-4.093 -28.235,-7 -32.253,-11.587 -46.273,-33.024 -47.341,-31.432 -1.071,1.595 13.662,28.003 55.095,39.671 5.981,1.683 12.522,3.113 19.67,4.181 8.752,1.319 17.182,1.891 25.258,1.891 47.735,-0.016 82.02,-19.895 88.215,-23.738 C -10.865,-1.041 -5.393,-0.402 0,0"
       style="fill:#000000;fill-opacity:1;fill-rule:nonzero;stroke:none"
       id="path3545"
       transform="translate(275.4497,296.9922)"
       clip-path="url(#clipPath1907)" />
    <path
       d="m 0,0 c -2.684,3.065 -4.535,6.874 -5.213,11.075 -4.662,-0.345 -9.377,-0.864 -14.225,-1.651 0.383,-3.452 0.991,-9.958 0.999,-17.07 0,-0.755 -0.008,-1.518 -0.028,-2.285 C -11.559,-5.968 -5.205,-2.745 0,0"
       style="fill:#000000;fill-opacity:1;fill-rule:nonzero;stroke:none"
       id="path3549"
       transform="translate(280.8677,280.4229)"
       clip-path="url(#clipPath1913)" />
    <path
       d="m 0,0 c 24.591,0 41.22,20.975 41.22,20.975 0,0 21.514,-4.697 37.432,9.403 15.908,14.099 14.642,30.374 14.642,30.374 0,0 28.582,11.053 24.225,45.559 -4.34,34.353 -14.814,62.194 -44.473,96.911 -19.375,22.696 -44.66,34.514 -59.82,42.579 -2.967,-2.201 -6.523,-3.66 -10.383,-4.153 v -17.307 c 9.643,-3.274 50.578,-18.754 71.131,-54.966 3.652,-6.487 6.727,-13.149 9.303,-19.762 13.422,-34.423 12.236,-72.375 10.84,-70.453 -1.401,1.923 -1.455,28.499 -13.799,62.636 -2.889,8.303 -6.531,16.765 -11.121,24.885 -10.891,19.34 -28.379,32.675 -43.207,41.126 -9.905,5.642 -18.522,9.066 -23.147,10.728 v -23.431 c 8.53,-2.92 40.828,-15.742 57.11,-48.682 2.798,-5.703 5.123,-11.574 7.06,-17.433 8.697,-26.309 8.154,-67.153 6.613,-68.075 -1.541,-0.926 -3.289,37.014 -9.947,60.313 -2.183,7.646 -5.01,15.393 -8.644,22.779 -8.735,17.773 -22.676,29.423 -34.502,36.637 -7.395,4.513 -13.875,7.225 -17.69,8.639 v -25.353 c 6.791,-3.123 30.633,-15.449 40.213,-40.561 2.906,-7.714 5,-16.674 6.516,-25.713 3.726,-22.269 2.334,-56.668 0.693,-55.21 -1.709,1.521 -2.451,29.321 -5.338,49.399 -1.506,10.45 -3.724,20.984 -6.986,29.586 -5.008,13.284 -14.725,22.882 -23.272,29.139 -4.668,3.427 -8.929,5.809 -11.826,7.274 v -26.372 c 4.528,-2.764 16.764,-12.166 22.067,-34.686 1.4,-5.908 2.423,-12.273 3.191,-18.597 1.809,-15.062 -0.08,-46.009 -1.033,-44.11 -0.955,1.903 -2.567,24.216 -3.674,36.404 -0.766,8.433 -1.959,17.236 -3.805,25.051 -3.037,12.809 -8.341,20.772 -12.824,25.579 -1.416,1.52 -2.764,2.724 -3.922,3.654 V 83.134 c 0,0 -0.685,-60.627 -2.843,-60.627 -2.156,0 -2.852,60.627 -2.852,60.627 v 41.632 c -1.158,-0.93 -2.496,-2.134 -3.923,-3.654 -4.481,-4.807 -9.776,-12.77 -12.815,-25.579 -1.853,-7.815 -3.047,-16.618 -3.814,-25.051 -1.104,-12.188 -2.709,-34.501 -3.662,-36.404 -0.954,-1.899 -2.844,29.048 -1.036,44.11 0.76,6.324 1.793,12.689 3.182,18.597 5.303,22.52 17.549,31.922 22.068,34.686 v 26.372 c -2.896,-1.465 -7.148,-3.847 -11.826,-7.274 -8.549,-6.257 -18.261,-15.855 -23.261,-29.139 -3.272,-8.602 -5.491,-19.136 -6.989,-29.586 -2.886,-20.078 -3.627,-47.878 -5.338,-49.399 -1.64,-1.458 -3.029,32.941 0.696,55.21 1.515,9.039 3.609,17.999 6.506,25.713 9.589,25.112 33.421,37.438 40.212,40.561 v 25.353 c -3.806,-1.414 -10.293,-4.126 -17.691,-8.639 -11.818,-7.214 -25.766,-18.864 -34.49,-36.637 -3.645,-7.386 -6.463,-15.133 -8.645,-22.779 -6.66,-23.299 -8.414,-61.239 -9.957,-60.313 -1.541,0.922 -2.084,41.766 6.614,68.075 1.943,5.859 4.269,11.73 7.068,17.433 16.283,32.94 48.582,45.762 57.101,48.682 v 23.431 c -4.627,-1.662 -13.244,-5.086 -23.146,-10.728 -14.82,-8.451 -32.305,-21.786 -43.207,-41.126 -4.58,-8.12 -8.225,-16.582 -11.123,-24.885 -12.344,-34.137 -12.397,-60.713 -13.795,-62.636 -1.4,-1.922 -2.576,36.03 10.836,70.453 2.586,6.613 5.652,13.275 9.305,19.762 20.552,36.212 61.486,51.692 71.13,54.966 v 17.307 c -3.851,0.493 -7.406,1.952 -10.382,4.153 -15.161,-8.065 -40.436,-19.883 -59.821,-42.579 -29.65,-34.717 -40.131,-62.558 -44.474,-96.911 -4.348,-34.506 24.234,-45.559 24.234,-45.559 0,0 -1.264,-16.275 14.645,-30.374 15.906,-14.1 37.421,-9.403 37.421,-9.403 C -41.229,20.975 -24.59,0 0,0"
       style="fill:#000000;fill-opacity:1;fill-rule:nonzero;stroke:none"
       id="path3553"
       transform="translate(297.6411,31.3301)"
       clip-path="url(#clipPath1919)" />
    <path
       d="M 0,0 C 8.074,-1.61 16.584,-4.012 25.879,-7.563 25.754,-10.045 25.551,-15 25.551,-22.02 c 0,-3.24 0.035,-6.921 0.14,-11.011 0.09,-2.961 0.34,-6.113 0.563,-9.172 -8.832,8.465 -18.172,15.013 -27.031,20.442 -0.09,1.908 -0.143,3.8 -0.143,5.666 0,6.593 0.545,12.701 0.92,16.095"
       style="fill:#000000;fill-opacity:1;fill-rule:nonzero;stroke:none"
       id="path3557"
       transform="translate(339.2461,288.8721)"
       clip-path="url(#clipPath1925)" />
    <path
       d="m 0,0 c -0.24,2.826 -1.006,5.508 -2.211,7.936 13.852,6.101 34.145,17.972 72.592,26.194 47.379,10.123 95.213,0.179 118.787,-16.275 23.32,-16.273 34.453,-36.02 33.09,-58.961 0,0 16.273,-16.274 12.299,-47.011 -4.1,-31.661 -27.487,-39.049 -27.487,-39.049 0,0 0,-32.545 -24.58,-44.114 -24.597,-11.574 -44.48,-3.26 -44.48,-3.26 0,0 -8.442,-7.403 -40.401,-8.238 1.676,4.711 2.727,10.187 2.754,16.451 0,2.408 -0.16,4.928 -0.49,7.549 -4.359,34.964 -15.41,64.151 -45.535,99.297 -0.9,1.054 -1.809,2.083 -2.734,3.094 -0.481,5.058 -0.864,10.406 -1.01,15.388 -0.104,4.034 -0.153,7.665 -0.153,10.859 0,5.463 0.127,9.619 0.245,12.304 7.939,-3.315 16.468,-7.47 25.791,-12.674 -0.17,-6.046 -1.692,-21.033 5.884,-49.731 7.893,-29.88 29.311,-65.513 30.702,-65.339 1.38,0.175 -17.86,36.267 -25.338,66.447 -6.641,26.787 -6.051,38.395 -5.813,45.516 4.68,-2.734 9.565,-5.725 14.662,-8.997 3.112,-2 6.133,-4.162 9.065,-6.459 0.267,-4.88 1.808,-23.03 10.373,-50.274 10.072,-32.006 25.267,-48.569 24.759,-46.53 -0.517,2.039 -9.83,16.476 -19.537,48.156 -8.384,27.394 -9.58,37.119 -9.955,43.968 14.082,-12.316 25.901,-27.59 35.391,-42.506 11.81,-17.503 21.783,-40.534 25.81,-49.216 4.03,-8.683 5.903,-9.827 2.817,0.621 -3.092,10.448 -14.106,37.336 -28.723,58.699 -8.297,12.138 -18.146,24.224 -29.564,34.599 2.103,-0.394 4.511,-0.939 7.131,-1.694 9.285,-2.654 21.033,-7.822 31.015,-17.798 5.551,-5.557 10.588,-12.045 14.918,-18.48 10.678,-15.239 19.61,-34.376 20.846,-33.175 1.238,1.203 -7.129,24.614 -21.506,43.506 -3.189,4.187 -6.664,8.274 -10.391,12.014 -19.5,19.426 -44.515,21.83 -49.685,22.146 -3.164,2.494 -6.426,4.849 -9.805,7.032 -4.678,3.02 -9.215,5.798 -13.564,8.367 4.982,1.156 12.834,2.517 22.369,2.517 12.943,0 28.769,-2.508 44.25,-11.383 9.965,-5.705 18.334,-12.948 25.15,-20.284 12.524,-13.846 25.891,-36.385 26.719,-35.763 0.822,0.62 -8.324,26.735 -29.525,46.29 -5.696,5.255 -12.227,10.256 -19.625,14.508 -16.504,9.461 -33.332,12.107 -46.969,12.107 -14.83,-0.005 -25.951,-3.112 -29.108,-4.096 -8.707,4.869 -16.791,8.852 -24.382,12.1 1.951,0.885 4.457,1.905 7.504,2.931 8.619,2.888 21.603,5.805 38.921,5.805 8.92,0 19.008,-0.772 30.247,-2.737 17.789,-3.086 32.388,-10.642 43.849,-19.165 20.026,-14.644 34.613,-37.145 35.401,-36.067 0.783,1.076 -12.559,29.019 -40.749,46.299 -10.48,6.422 -22.976,11.76 -37.566,14.33 -11.533,2.012 -21.934,2.822 -31.182,2.822 -30.287,0 -48.138,-8.64 -53.173,-11.478 -8.315,3.214 -16.059,5.541 -23.422,7.228 4.074,2.193 10.082,5.151 17.781,8.131 15.221,5.887 36.818,11.773 62.305,11.773 7.808,0 15.98,-0.552 24.447,-1.832 10.828,-1.627 20.185,-4.093 28.236,-7 32.246,-11.587 46.264,-33.024 47.334,-31.432 1.067,1.595 -13.664,28.003 -55.099,39.671 -5.979,1.683 -12.518,3.113 -19.661,4.181 -8.751,1.319 -17.181,1.891 -25.257,1.891 C 57.021,21.693 22.736,1.814 16.543,-2.029 10.873,-1.041 5.391,-0.402 0,0"
       style="fill:#000000;fill-opacity:1;fill-rule:nonzero;stroke:none"
       id="path3561"
       transform="translate(319.8242,296.9922)"
       clip-path="url(#clipPath1931)" />
    <path
       d="M 0,0 C 2.684,3.065 4.539,6.874 5.217,11.075 9.885,10.73 14.6,10.211 19.447,9.424 19.055,5.972 18.449,-0.534 18.449,-7.646 c 0,-0.755 0.01,-1.518 0.02,-2.285 C 11.568,-5.968 5.207,-2.745 0,0"
       style="fill:#000000;fill-opacity:1;fill-rule:nonzero;stroke:none"
       id="path3565"
       transform="translate(314.4043,280.4229)"
       clip-path="url(#clipPath1943)" />
    <path
       d="m 0,0 c 0,-9.775 -7.932,-17.692 -17.701,-17.692 -9.777,0 -17.699,7.917 -17.699,17.692 0,9.775 7.922,17.701 17.699,17.701 C -7.932,17.701 0,9.775 0,0"
       style="fill:#000000;fill-opacity:1;fill-rule:nonzero;stroke:none"
       id="path3569"
       transform="translate(315.3418,295.0527)"
       clip-path="url(#clipPath1949)" />
    <path
       d="m 0,0 c 4.461,0.907 9.078,1.657 13.816,2.245 l 13.909,12.402 c 6.093,-0.873 15.968,-2.191 21.537,-1.978 9.722,0.366 16.605,2.792 20.09,10.778 3.962,9.094 -1.946,15.509 -1.946,15.509 0,0 9.108,8.476 0.594,17.845 -8.512,9.37 -17.814,1.111 -17.814,1.111 0,0 -5.825,6.497 -15.25,3.417 C 26.646,58.629 23.572,52.013 22.283,42.364 21.521,36.716 21.842,27.072 22.125,21.042 L 10.051,10.398 v 45.357 l 13.818,12.302 c 5.895,-0.855 15.42,-2.202 21.279,-1.978 9.723,0.367 16.606,2.793 20.088,10.778 3.963,9.095 -1.945,15.51 -1.945,15.51 0,0 9.107,8.475 0.596,17.845 -8.514,9.37 -17.817,1.111 -17.817,1.111 0,0 -5.822,6.496 -15.248,3.416 C 22.533,112.04 19.459,105.424 18.17,95.774 17.373,89.859 17.781,80.307 18.072,74.393 l -8.021,-7.118 0.015,36.726 c 4.803,3.955 12.651,10.451 16.725,15.296 6.604,7.844 9.59,14.929 5.83,23.305 -4.285,9.533 -13.475,9.47 -13.475,9.47 0,0 -0.156,13.108 -13.494,13.108 -13.338,0 -13.494,-13.108 -13.494,-13.108 0,0 -9.191,0.063 -13.474,-9.47 -3.76,-8.376 -0.774,-15.461 5.828,-23.305 4.076,-4.845 11.924,-11.341 16.726,-15.296 l 0.016,-36.726 -8.022,7.118 c 0.289,5.914 0.7,15.466 -0.097,21.381 -1.289,9.65 -4.364,16.266 -12.653,18.965 -9.425,3.08 -15.248,-3.416 -15.248,-3.416 0,0 -9.302,8.259 -17.816,-1.111 -8.512,-9.37 0.596,-17.845 0.596,-17.845 0,0 -5.909,-6.415 -1.948,-15.51 3.485,-7.985 10.368,-10.411 20.09,-10.778 5.86,-0.224 15.385,1.123 21.28,1.978 L 1.254,55.755 V 10.398 L -10.82,21.042 c 0.281,6.03 0.603,15.674 -0.16,21.322 -1.29,9.649 -4.362,16.265 -12.651,18.965 -9.426,3.08 -15.25,-3.417 -15.25,-3.417 0,0 -9.303,8.259 -17.816,-1.111 -8.512,-9.369 0.595,-17.845 0.595,-17.845 0,0 -5.908,-6.415 -1.945,-15.509 3.484,-7.986 10.367,-10.412 20.09,-10.778 5.568,-0.213 15.443,1.105 21.537,1.978 z"
       style="fill:#000000;fill-opacity:1;fill-rule:nonzero;stroke:none"
       id="path3573"
       transform="translate(128.147,336.0479)"
       clip-path="url(#clipPath1937)" />
    <path
       d="m 0,0 c -4.461,0.907 -9.078,1.657 -13.816,2.245 l -13.907,12.402 c -6.093,-0.873 -15.968,-2.191 -21.539,-1.978 -9.722,0.366 -16.603,2.792 -20.088,10.778 -3.963,9.094 1.946,15.509 1.946,15.509 0,0 -9.108,8.476 -0.596,17.845 8.514,9.37 17.816,1.111 17.816,1.111 0,0 5.825,6.497 15.25,3.417 8.288,-2.7 11.362,-9.316 12.651,-18.965 0.762,-5.648 0.441,-15.292 0.16,-21.322 l 12.074,-10.644 v 45.357 l -13.818,12.302 c -5.895,-0.855 -15.42,-2.202 -21.279,-1.978 -9.723,0.367 -16.606,2.793 -20.09,10.778 -3.963,9.095 1.945,15.51 1.945,15.51 0,0 -9.105,8.475 -0.594,17.845 8.514,9.37 17.817,1.111 17.817,1.111 0,0 5.822,6.496 15.248,3.416 8.289,-2.699 11.363,-9.315 12.652,-18.965 0.797,-5.915 0.387,-15.467 0.098,-21.381 l 8.021,-7.118 -0.015,36.726 c -4.803,3.955 -12.653,10.451 -16.727,15.296 -6.604,7.844 -9.588,14.929 -5.828,23.305 4.283,9.533 13.474,9.47 13.474,9.47 0,0 0.157,13.108 13.495,13.108 13.338,0 13.494,-13.108 13.494,-13.108 0,0 9.189,0.063 13.472,-9.47 3.76,-8.376 0.776,-15.461 -5.828,-23.305 C 11.414,114.452 3.566,107.956 -1.236,104.001 L -1.252,67.275 6.77,74.393 c -0.291,5.914 -0.702,15.466 0.097,21.381 1.289,9.65 4.363,16.266 12.651,18.965 9.427,3.08 15.25,-3.416 15.25,-3.416 0,0 9.302,8.259 17.816,-1.111 8.512,-9.37 -0.596,-17.845 -0.596,-17.845 0,0 5.908,-6.415 1.946,-15.51 C 50.449,68.872 43.568,66.446 33.846,66.079 27.986,65.855 18.461,67.202 12.566,68.057 L -1.252,55.755 V 10.398 l 12.074,10.644 c -0.283,6.03 -0.603,15.674 0.158,21.322 1.29,9.649 4.364,16.265 12.653,18.965 9.426,3.08 15.25,-3.417 15.25,-3.417 0,0 9.303,8.259 17.814,-1.111 8.514,-9.369 -0.593,-17.845 -0.593,-17.845 0,0 5.908,-6.415 1.945,-15.509 -3.485,-7.986 -10.367,-10.412 -20.09,-10.778 -5.57,-0.213 -15.443,1.105 -21.537,1.978 z"
       style="fill:#000000;fill-opacity:1;fill-rule:nonzero;stroke:none"
       id="path3577"
       transform="translate(467.1328,336.0479)"
       clip-path="url(#clipPath1955)" />
    <path
       d="m 0,0 15.613,13.797 c 6.748,-0.955 17.852,-2.521 25.116,-2.204 11.316,0.47 19.32,3.328 23.332,12.653 4.572,10.619 -2.342,18.063 -2.342,18.063 0,0 10.568,9.911 0.603,20.785 -9.955,10.879 -20.756,1.197 -20.756,1.197 0,0 -6.808,7.541 -17.789,3.908 C 14.152,65.005 10.596,57.285 9.15,46.041 8.207,38.897 8.785,27.801 9.15,20.979 L -4.777,8.709 v 50.048 l 19.908,17.757 c 6.865,-0.984 17.988,-2.469 24.262,-2.23 10.953,0.413 18.705,3.146 22.63,12.142 4.463,10.244 -2.191,17.47 -2.191,17.47 0,0 10.258,9.547 0.67,20.102 -9.59,10.556 -20.07,1.252 -20.07,1.252 0,0 -6.559,7.318 -17.178,3.849 C 13.918,126.058 10.455,118.604 9.002,107.735 8.145,101.373 8.506,90.51 8.824,83.717 L -4.777,71.727 v 51.493 l 15.566,13.858 c 6.639,-0.963 17.369,-2.479 23.969,-2.227 10.953,0.413 18.705,3.145 22.631,12.141 4.463,10.244 -2.192,17.471 -2.192,17.471 0,0 10.258,9.547 0.67,20.101 -9.59,10.556 -20.07,1.252 -20.07,1.252 0,0 -6.559,7.319 -17.178,3.849 C 9.283,186.624 5.82,179.171 4.367,168.302 3.469,161.638 3.932,150.877 4.258,144.215 l -9.035,-8.017 0.017,43.749 c 5.41,4.456 14.25,11.774 18.84,17.232 7.44,8.835 10.801,16.816 6.566,26.252 C 15.82,234.17 5.469,234.1 5.469,234.1 c 0,0 -0.176,14.764 -15.201,14.764 -15.025,0 -15.201,-14.764 -15.201,-14.764 0,0 -10.354,0.07 -15.178,-10.669 -4.236,-9.436 -0.873,-17.417 6.565,-26.252 4.589,-5.458 13.431,-12.776 18.841,-17.232 l 0.018,-43.749 -9.035,8.017 c 0.326,6.662 0.787,17.423 -0.111,24.087 -1.452,10.869 -4.915,18.322 -14.252,21.363 -10.618,3.47 -17.178,-3.849 -17.178,-3.849 0,0 -10.479,9.304 -20.069,-1.252 -9.589,-10.554 0.67,-20.101 0.67,-20.101 0,0 -6.656,-7.227 -2.191,-17.471 3.924,-8.996 11.678,-11.728 22.629,-12.141 6.601,-0.252 17.33,1.264 23.971,2.227 L -14.687,123.22 V 71.727 l -13.602,11.99 c 0.319,6.793 0.68,17.656 -0.179,24.018 -1.451,10.869 -4.914,18.323 -14.252,21.364 -10.617,3.469 -17.178,-3.849 -17.178,-3.849 0,0 -10.478,9.304 -20.068,-1.252 -9.59,-10.555 0.67,-20.102 0.67,-20.102 0,0 -6.657,-6.025 -2.192,-16.269 3.924,-8.996 11.678,-12.93 22.629,-13.343 6.276,-0.239 17.399,1.246 24.264,2.23 L -14.687,58.757 V 8.709 l -13.928,12.27 c 0.365,6.822 0.944,17.918 0,25.062 -1.445,11.244 -5.002,18.964 -14.627,22.158 -10.98,3.633 -17.789,-3.908 -17.789,-3.908 0,0 -10.801,9.682 -20.756,-1.197 -9.964,-10.874 0.604,-20.785 0.604,-20.785 0,0 -6.914,-7.444 -2.342,-18.063 4.012,-9.325 12.016,-12.183 23.332,-12.653 7.264,-0.317 18.367,1.249 25.115,2.204 L -19.464,0 c 2.896,1.428 6.293,2.232 9.732,2.234 C -6.293,2.232 -2.896,1.428 0,0"
       style="fill:#000000;fill-opacity:1;fill-rule:nonzero;stroke:none"
       id="path3581"
       transform="translate(307.373,315.0801)"
       clip-path="url(#clipPath1961)" />
  </g>
</svg>
