<?xml version="1.0" encoding="UTF-8" standalone="no"?>
<!-- Created with Inkscape (http://www.inkscape.org/) -->

<svg
   version="1.1"
   id="svg48703"
   width="793.70135"
   height="793.70135"
   viewBox="0 0 793.70135 793.70135"
   sodipodi:docname="honda-tadakatsu.svg"
   inkscape:version="1.2 (dc2aeda, 2022-05-15)"
   xmlns:inkscape="http://www.inkscape.org/namespaces/inkscape"
   xmlns:sodipodi="http://sodipodi.sourceforge.net/DTD/sodipodi-0.dtd"
   xmlns="http://www.w3.org/2000/svg"
   xmlns:svg="http://www.w3.org/2000/svg">
  <defs
     id="defs48707">
    <clipPath
       clipPathUnits="userSpaceOnUse"
       id="clipPath50961">
      <path
         d="M -531.1924,581.5885 H 64.083597 V -13.6875 H -531.1924 Z"
         id="path50963"
         style="stroke-width:0.999998" />
    </clipPath>
    <clipPath
       clipPathUnits="userSpaceOnUse"
       id="clipPath50967">
      <path
         d="m -345.1387,128.0436 h 595.276 v -595.276 h -595.276 z"
         id="path50969"
         style="stroke-width:0.999998" />
    </clipPath>
    <clipPath
       clipPathUnits="userSpaceOnUse"
       id="clipPath50974">
      <path
         d="m -318.4727,115.4025 h 595.276 v -595.276 h -595.276 z"
         id="path50976"
         style="stroke-width:0.999998" />
    </clipPath>
    <clipPath
       clipPathUnits="userSpaceOnUse"
       id="clipPath50980">
      <path
         d="m -283.5449,187.236 h 595.276 V -408.04 h -595.276 z"
         id="path50982"
         style="stroke-width:0.999998" />
    </clipPath>
    <clipPath
       clipPathUnits="userSpaceOnUse"
       id="clipPath50986">
      <path
         d="m -271.1445,207.5939 h 595.276 v -595.276 h -595.276 z"
         id="path50988"
         style="stroke-width:0.999998" />
    </clipPath>
    <clipPath
       clipPathUnits="userSpaceOnUse"
       id="clipPath50992">
      <path
         d="m -348.3086,213.6656 h 595.276 v -595.276 h -595.276 z"
         id="path50994"
         style="stroke-width:0.999998" />
    </clipPath>
    <clipPath
       clipPathUnits="userSpaceOnUse"
       id="clipPath51001">
      <path
         d="m -381.7344,200.5446 h 595.276 v -595.276 h -595.276 z"
         id="path51003"
         style="stroke-width:0.999998" />
    </clipPath>
    <clipPath
       clipPathUnits="userSpaceOnUse"
       id="clipPath51007">
      <path
         d="m -317.668,165.2911 h 595.276 v -595.276 h -595.276 z"
         id="path51009"
         style="stroke-width:0.999998" />
    </clipPath>
    <clipPath
       clipPathUnits="userSpaceOnUse"
       id="clipPath51014">
      <path
         d="m -372.4336,207.8253 h 595.276 v -595.276 h -595.276 z"
         id="path51016"
         style="stroke-width:0.999998" />
    </clipPath>
    <clipPath
       clipPathUnits="userSpaceOnUse"
       id="clipPath51020">
      <path
         d="m -309.8867,187.236 h 595.276 V -408.04 h -595.276 z"
         id="path51022"
         style="stroke-width:0.999998" />
    </clipPath>
    <clipPath
       clipPathUnits="userSpaceOnUse"
       id="clipPath51026">
      <path
         d="m -325.3584,216.465 h 595.276 v -595.276 h -595.276 z"
         id="path51028"
         style="stroke-width:0.999998" />
    </clipPath>
    <clipPath
       clipPathUnits="userSpaceOnUse"
       id="clipPath51032">
      <path
         d="m -296.7158,80.796 h 595.276 V -514.48 h -595.276 z"
         id="path51034"
         style="stroke-width:0.999998" />
    </clipPath>
    <clipPath
       clipPathUnits="userSpaceOnUse"
       id="clipPath51038">
      <path
         d="m -377.1494,372.4889 h 595.276 v -595.276 h -595.276 z"
         id="path51040"
         style="stroke-width:0.999998" />
    </clipPath>
    <clipPath
       clipPathUnits="userSpaceOnUse"
       id="clipPath51044">
      <path
         d="m -462.7715,369.319 h 595.276 v -595.276 h -595.276 z"
         id="path51046"
         style="stroke-width:0.999998" />
    </clipPath>
    <clipPath
       clipPathUnits="userSpaceOnUse"
       id="clipPath51050">
      <path
         d="m -475.4131,342.653 h 595.276 v -595.276 h -595.276 z"
         id="path51052"
         style="stroke-width:0.999998" />
    </clipPath>
    <clipPath
       clipPathUnits="userSpaceOnUse"
       id="clipPath51056">
      <path
         d="m -390.1973,410.9752 h 595.276 v -595.276 h -595.276 z"
         id="path51058"
         style="stroke-width:0.999998" />
    </clipPath>
    <clipPath
       clipPathUnits="userSpaceOnUse"
       id="clipPath51062">
      <path
         d="m -405.6475,413.6647 h 595.276 v -595.276 h -595.276 z"
         id="path51064"
         style="stroke-width:0.999998" />
    </clipPath>
    <clipPath
       clipPathUnits="userSpaceOnUse"
       id="clipPath51068">
      <path
         d="m -421.1787,412.2428 h 595.276 v -595.276 h -595.276 z"
         id="path51070"
         style="stroke-width:0.999998" />
    </clipPath>
    <clipPath
       clipPathUnits="userSpaceOnUse"
       id="clipPath51074">
      <path
         d="m -435.8057,406.7604 h 595.276 v -595.276 h -595.276 z"
         id="path51076"
         style="stroke-width:0.999998" />
    </clipPath>
    <clipPath
       clipPathUnits="userSpaceOnUse"
       id="clipPath51080">
      <path
         d="m -448.3799,397.6334 h 595.276 v -595.276 h -595.276 z"
         id="path51082"
         style="stroke-width:0.999998" />
    </clipPath>
    <clipPath
       clipPathUnits="userSpaceOnUse"
       id="clipPath51086">
      <path
         d="m -458.5039,385.9713 h 595.276 v -595.276 h -595.276 z"
         id="path51088"
         style="stroke-width:0.999998" />
    </clipPath>
    <clipPath
       clipPathUnits="userSpaceOnUse"
       id="clipPath51092">
      <path
         d="m -466.5303,372.899 h 595.276 v -595.276 h -595.276 z"
         id="path51094"
         style="stroke-width:0.999998" />
    </clipPath>
    <clipPath
       clipPathUnits="userSpaceOnUse"
       id="clipPath51098">
      <path
         d="m -487.6943,330.3776 h 595.276 v -595.276 h -595.276 z"
         id="path51100"
         style="stroke-width:0.999998" />
    </clipPath>
    <clipPath
       clipPathUnits="userSpaceOnUse"
       id="clipPath51104">
      <path
         d="m -479.9658,345.1842 h 595.276 v -595.276 h -595.276 z"
         id="path51106"
         style="stroke-width:0.999998" />
    </clipPath>
    <clipPath
       clipPathUnits="userSpaceOnUse"
       id="clipPath51110">
      <path
         d="m -485.2402,368.9381 h 595.276 v -595.276 h -595.276 z"
         id="path51112"
         style="stroke-width:0.999998" />
    </clipPath>
    <clipPath
       clipPathUnits="userSpaceOnUse"
       id="clipPath51116">
      <path
         d="m -445.6973,393.1998 h 595.276 v -595.276 h -595.276 z"
         id="path51118"
         style="stroke-width:0.999998" />
    </clipPath>
    <clipPath
       clipPathUnits="userSpaceOnUse"
       id="clipPath51122">
      <path
         d="m -419.8135,407.278 h 595.276 v -595.276 h -595.276 z"
         id="path51124"
         style="stroke-width:0.999998" />
    </clipPath>
    <clipPath
       clipPathUnits="userSpaceOnUse"
       id="clipPath51128">
      <path
         d="m -390.2695,405.9147 h 595.276 v -595.276 h -595.276 z"
         id="path51130"
         style="stroke-width:0.999998" />
    </clipPath>
    <clipPath
       clipPathUnits="userSpaceOnUse"
       id="clipPath51134">
      <path
         d="m -203.2324,230.816 h 595.276 V -364.46 h -595.276 z"
         id="path51136"
         style="stroke-width:0.999998" />
    </clipPath>
    <clipPath
       clipPathUnits="userSpaceOnUse"
       id="clipPath51140">
      <path
         d="m -396.2061,356.3483 h 595.276 v -595.276 h -595.276 z"
         id="path51142"
         style="stroke-width:0.999998" />
    </clipPath>
    <clipPath
       clipPathUnits="userSpaceOnUse"
       id="clipPath51146">
      <path
         d="m -382.9893,396.6139 h 595.276 v -595.276 h -595.276 z"
         id="path51148"
         style="stroke-width:0.999998" />
    </clipPath>
    <clipPath
       clipPathUnits="userSpaceOnUse"
       id="clipPath51152">
      <path
         d="m -403.5791,334.067 h 595.276 v -595.276 h -595.276 z"
         id="path51154"
         style="stroke-width:0.999998" />
    </clipPath>
    <clipPath
       clipPathUnits="userSpaceOnUse"
       id="clipPath51158">
      <path
         d="m -374.3506,349.5397 h 595.276 v -595.276 h -595.276 z"
         id="path51160"
         style="stroke-width:0.999998" />
    </clipPath>
    <clipPath
       clipPathUnits="userSpaceOnUse"
       id="clipPath51164">
      <path
         d="m -377.1494,269.3038 h 595.276 v -595.276 h -595.276 z"
         id="path51166"
         style="stroke-width:0.999998" />
    </clipPath>
    <clipPath
       clipPathUnits="userSpaceOnUse"
       id="clipPath51171">
      <path
         d="m -459.7627,306.7643 h 595.276 v -595.276 h -595.276 z"
         id="path51173"
         style="stroke-width:0.999998" />
    </clipPath>
    <clipPath
       clipPathUnits="userSpaceOnUse"
       id="clipPath51183">
      <path
         d="M -507.6895,316.9928 H 87.586497 v -595.276 H -507.6895 Z"
         id="path51185"
         style="stroke-width:0.999998" />
    </clipPath>
    <clipPath
       clipPathUnits="userSpaceOnUse"
       id="clipPath51189">
      <path
         d="M -498.0107,299.3014 H 97.265297 v -595.276 H -498.0107 Z"
         id="path51191"
         style="stroke-width:0.999998" />
    </clipPath>
    <clipPath
       clipPathUnits="userSpaceOnUse"
       id="clipPath51202">
      <path
         d="m -403.5791,307.7252 h 595.276 v -595.276 h -595.276 z"
         id="path51204"
         style="stroke-width:0.999998" />
    </clipPath>
    <clipPath
       clipPathUnits="userSpaceOnUse"
       id="clipPath51208">
      <path
         d="m -383.2207,295.3253 h 595.276 v -595.276 h -595.276 z"
         id="path51210"
         style="stroke-width:0.999998" />
    </clipPath>
    <clipPath
       clipPathUnits="userSpaceOnUse"
       id="clipPath51214">
      <path
         d="M -510.0186,320.8971 H 85.257397 v -595.276 H -510.0186 Z"
         id="path51216"
         style="stroke-width:0.999998" />
    </clipPath>
    <clipPath
       clipPathUnits="userSpaceOnUse"
       id="clipPath51220">
      <path
         d="m -216.2803,372.4889 h 595.276 v -595.276 h -595.276 z"
         id="path51222"
         style="stroke-width:0.999998" />
    </clipPath>
    <clipPath
       clipPathUnits="userSpaceOnUse"
       id="clipPath51226">
      <path
         d="M -133.667,335.028 H 461.609 V -260.248 H -133.667 Z"
         id="path51228"
         style="stroke-width:0.999998" />
    </clipPath>
    <clipPath
       clipPathUnits="userSpaceOnUse"
       id="clipPath51232">
      <path
         d="m -144.8486,357.2955 h 595.276 v -595.276 h -595.276 z"
         id="path51234"
         style="stroke-width:0.999998" />
    </clipPath>
    <clipPath
       clipPathUnits="userSpaceOnUse"
       id="clipPath51238">
      <path
         d="m -383.0977,171.0016 h 595.276 v -595.276 h -595.276 z"
         id="path51240"
         style="stroke-width:0.999998" />
    </clipPath>
    <clipPath
       clipPathUnits="userSpaceOnUse"
       id="clipPath51245">
      <path
         d="m -425.5244,341.8483 h 595.276 v -595.276 h -595.276 z"
         id="path51247"
         style="stroke-width:0.999998" />
    </clipPath>
    <clipPath
       clipPathUnits="userSpaceOnUse"
       id="clipPath51251">
      <path
         d="m -369.0205,145.1173 h 595.276 v -595.276 h -595.276 z"
         id="path51253"
         style="stroke-width:0.999998" />
    </clipPath>
    <clipPath
       clipPathUnits="userSpaceOnUse"
       id="clipPath51257">
      <path
         d="m -344.7568,105.5739 h 595.276 v -595.276 h -595.276 z"
         id="path51259"
         style="stroke-width:0.999998" />
    </clipPath>
    <clipPath
       clipPathUnits="userSpaceOnUse"
       id="clipPath51266">
      <path
         d="m -306.1963,103.1202 h 595.276 v -595.276 h -595.276 z"
         id="path51268"
         style="stroke-width:0.999998" />
    </clipPath>
    <clipPath
       clipPathUnits="userSpaceOnUse"
       id="clipPath51272">
      <path
         d="m -120.1484,359.1998 h 595.276 v -595.276 h -595.276 z"
         id="path51274"
         style="stroke-width:0.999998" />
    </clipPath>
    <clipPath
       clipPathUnits="userSpaceOnUse"
       id="clipPath51278">
      <path
         d="m -321.0039,110.8492 h 595.276 v -595.276 h -595.276 z"
         id="path51280"
         style="stroke-width:0.999998" />
    </clipPath>
    <clipPath
       clipPathUnits="userSpaceOnUse"
       id="clipPath51284">
      <path
         d="m -203.2324,410.9752 h 595.276 v -595.276 h -595.276 z"
         id="path51286"
         style="stroke-width:0.999998" />
    </clipPath>
    <clipPath
       clipPathUnits="userSpaceOnUse"
       id="clipPath51290">
      <path
         d="m -187.7822,413.6647 h 595.276 v -595.276 h -595.276 z"
         id="path51292"
         style="stroke-width:0.999998" />
    </clipPath>
    <clipPath
       clipPathUnits="userSpaceOnUse"
       id="clipPath51296">
      <path
         d="m -172.251,412.2408 h 595.276 v -595.276 h -595.276 z"
         id="path51298"
         style="stroke-width:0.999998" />
    </clipPath>
    <clipPath
       clipPathUnits="userSpaceOnUse"
       id="clipPath51302">
      <path
         d="m -157.624,406.7604 h 595.276 v -595.276 h -595.276 z"
         id="path51304"
         style="stroke-width:0.999998" />
    </clipPath>
    <clipPath
       clipPathUnits="userSpaceOnUse"
       id="clipPath51308">
      <path
         d="m -145.0498,397.6315 h 595.276 v -595.276 h -595.276 z"
         id="path51310"
         style="stroke-width:0.999998" />
    </clipPath>
    <clipPath
       clipPathUnits="userSpaceOnUse"
       id="clipPath51314">
      <path
         d="m -134.9258,385.9713 h 595.276 v -595.276 h -595.276 z"
         id="path51316"
         style="stroke-width:0.999998" />
    </clipPath>
    <clipPath
       clipPathUnits="userSpaceOnUse"
       id="clipPath51320">
      <path
         d="m -126.8994,372.899 h 595.276 v -595.276 h -595.276 z"
         id="path51322"
         style="stroke-width:0.999998" />
    </clipPath>
    <clipPath
       clipPathUnits="userSpaceOnUse"
       id="clipPath51326">
      <path
         d="m -85.7402,324.7994 h 595.276 v -595.276 h -595.276 z"
         id="path51328"
         style="stroke-width:0.999998" />
    </clipPath>
    <clipPath
       clipPathUnits="userSpaceOnUse"
       id="clipPath51332">
      <path
         d="m -95.4189,342.4908 h 595.276 v -595.276 h -595.276 z"
         id="path51334"
         style="stroke-width:0.999998" />
    </clipPath>
    <clipPath
       clipPathUnits="userSpaceOnUse"
       id="clipPath51338">
      <path
         d="m -158.3887,377.7662 h 595.276 v -595.276 h -595.276 z"
         id="path51340"
         style="stroke-width:0.999998" />
    </clipPath>
    <clipPath
       clipPathUnits="userSpaceOnUse"
       id="clipPath51344">
      <path
         d="m -178.7754,392.0221 h 595.276 v -595.276 h -595.276 z"
         id="path51346"
         style="stroke-width:0.999998" />
    </clipPath>
    <clipPath
       clipPathUnits="userSpaceOnUse"
       id="clipPath51350">
      <path
         d="m -203.6055,394.444 h 595.276 v -595.276 h -595.276 z"
         id="path51352"
         style="stroke-width:0.999998" />
    </clipPath>
    <clipPath
       clipPathUnits="userSpaceOnUse"
       id="clipPath51356">
      <path
         d="m -180.4121,335.1822 h 595.276 v -595.276 h -595.276 z"
         id="path51358"
         style="stroke-width:0.999998" />
    </clipPath>
    <clipPath
       clipPathUnits="userSpaceOnUse"
       id="clipPath51362">
      <path
         d="m -197.2236,356.3463 h 595.276 v -595.276 h -595.276 z"
         id="path51364"
         style="stroke-width:0.999998" />
    </clipPath>
    <clipPath
       clipPathUnits="userSpaceOnUse"
       id="clipPath51368">
      <path
         d="m -211.4229,382.608 h 595.276 v -595.276 h -595.276 z"
         id="path51370"
         style="stroke-width:0.999998" />
    </clipPath>
    <clipPath
       clipPathUnits="userSpaceOnUse"
       id="clipPath51374">
      <path
         d="m -189.8506,334.067 h 595.276 v -595.276 h -595.276 z"
         id="path51376"
         style="stroke-width:0.999998" />
    </clipPath>
    <clipPath
       clipPathUnits="userSpaceOnUse"
       id="clipPath51380">
      <path
         d="m -210.209,346.4674 h 595.276 v -595.276 h -595.276 z"
         id="path51382"
         style="stroke-width:0.999998" />
    </clipPath>
    <clipPath
       clipPathUnits="userSpaceOnUse"
       id="clipPath51386">
      <path
         d="m -216.2803,269.3029 h 595.276 v -595.276 h -595.276 z"
         id="path51388"
         style="stroke-width:0.999998" />
    </clipPath>
    <clipPath
       clipPathUnits="userSpaceOnUse"
       id="clipPath51392">
      <path
         d="m -130.6582,272.4728 h 595.276 v -595.276 h -595.276 z"
         id="path51394"
         style="stroke-width:0.999998" />
    </clipPath>
    <clipPath
       clipPathUnits="userSpaceOnUse"
       id="clipPath51398">
      <path
         d="m -118.0166,299.1393 h 595.276 v -595.276 h -595.276 z"
         id="path51400"
         style="stroke-width:0.999998" />
    </clipPath>
    <clipPath
       clipPathUnits="userSpaceOnUse"
       id="clipPath51404">
      <path
         d="m -187.7822,228.1266 h 595.276 v -595.276 h -595.276 z"
         id="path51406"
         style="stroke-width:0.999998" />
    </clipPath>
    <clipPath
       clipPathUnits="userSpaceOnUse"
       id="clipPath51410">
      <path
         d="m -172.251,229.5504 h 595.276 v -595.276 h -595.276 z"
         id="path51412"
         style="stroke-width:0.999998" />
    </clipPath>
    <clipPath
       clipPathUnits="userSpaceOnUse"
       id="clipPath51416">
      <path
         d="m -157.624,235.0314 h 595.276 v -595.276 h -595.276 z"
         id="path51418"
         style="stroke-width:0.999998" />
    </clipPath>
    <clipPath
       clipPathUnits="userSpaceOnUse"
       id="clipPath51422">
      <path
         d="m -145.0498,244.1588 h 595.276 v -595.276 h -595.276 z"
         id="path51424"
         style="stroke-width:0.999998" />
    </clipPath>
    <clipPath
       clipPathUnits="userSpaceOnUse"
       id="clipPath51428">
      <path
         d="m -134.9258,255.8204 h 595.276 v -595.276 h -595.276 z"
         id="path51430"
         style="stroke-width:0.999998" />
    </clipPath>
    <clipPath
       clipPathUnits="userSpaceOnUse"
       id="clipPath51434">
      <path
         d="m -126.8994,268.8927 h 595.276 v -595.276 h -595.276 z"
         id="path51436"
         style="stroke-width:0.999998" />
    </clipPath>
    <clipPath
       clipPathUnits="userSpaceOnUse"
       id="clipPath51440">
      <path
         d="m -105.7354,311.4147 h 595.276 v -595.276 h -595.276 z"
         id="path51442"
         style="stroke-width:0.999998" />
    </clipPath>
    <clipPath
       clipPathUnits="userSpaceOnUse"
       id="clipPath51446">
      <path
         d="m -113.4639,296.6075 h 595.276 v -595.276 h -595.276 z"
         id="path51448"
         style="stroke-width:0.999998" />
    </clipPath>
    <clipPath
       clipPathUnits="userSpaceOnUse"
       id="clipPath51452">
      <path
         d="m -108.1895,272.8546 h 595.276 v -595.276 h -595.276 z"
         id="path51454"
         style="stroke-width:0.999998" />
    </clipPath>
    <clipPath
       clipPathUnits="userSpaceOnUse"
       id="clipPath51458">
      <path
         d="m -147.7324,248.5914 h 595.276 v -595.276 h -595.276 z"
         id="path51460"
         style="stroke-width:0.999998" />
    </clipPath>
    <clipPath
       clipPathUnits="userSpaceOnUse"
       id="clipPath51464">
      <path
         d="m -173.6162,234.5138 h 595.276 v -595.276 h -595.276 z"
         id="path51466"
         style="stroke-width:0.999998" />
    </clipPath>
    <clipPath
       clipPathUnits="userSpaceOnUse"
       id="clipPath51470">
      <path
         d="m -203.1602,235.8771 h 595.276 v -595.276 h -595.276 z"
         id="path51472"
         style="stroke-width:0.999998" />
    </clipPath>
    <clipPath
       clipPathUnits="userSpaceOnUse"
       id="clipPath51476">
      <path
         d="m -167.9053,299.944 h 595.276 v -595.276 h -595.276 z"
         id="path51478"
         style="stroke-width:0.999998" />
    </clipPath>
    <clipPath
       clipPathUnits="userSpaceOnUse"
       id="clipPath51482">
      <path
         d="m -197.2236,285.4445 h 595.276 v -595.276 h -595.276 z"
         id="path51484"
         style="stroke-width:0.999998" />
    </clipPath>
    <clipPath
       clipPathUnits="userSpaceOnUse"
       id="clipPath51488">
      <path
         d="m -210.4404,245.1774 h 595.276 v -595.276 h -595.276 z"
         id="path51490"
         style="stroke-width:0.999998" />
    </clipPath>
    <clipPath
       clipPathUnits="userSpaceOnUse"
       id="clipPath51494">
      <path
         d="m -189.8506,307.7252 h 595.276 v -595.276 h -595.276 z"
         id="path51496"
         style="stroke-width:0.999998" />
    </clipPath>
    <clipPath
       clipPathUnits="userSpaceOnUse"
       id="clipPath51500">
      <path
         d="m -219.0791,292.2531 h 595.276 v -595.276 h -595.276 z"
         id="path51502"
         style="stroke-width:0.999998" />
    </clipPath>
    <clipPath
       clipPathUnits="userSpaceOnUse"
       id="clipPath51506">
      <path
         d="m -83.4111,320.8951 h 595.276 v -595.276 h -595.276 z"
         id="path51508"
         style="stroke-width:0.999998" />
    </clipPath>
    <clipPath
       clipPathUnits="userSpaceOnUse"
       id="clipPath51512">
      <path
         d="m -234.8887,313.5358 h 595.276 v -595.276 h -595.276 z"
         id="path51514"
         style="stroke-width:0.999998" />
    </clipPath>
    <clipPath
       clipPathUnits="userSpaceOnUse"
       id="clipPath51518">
      <path
         d="m -383.9395,496.6412 h 595.276 v -595.276 h -595.276 z"
         id="path51520"
         style="stroke-width:0.999998" />
    </clipPath>
    <clipPath
       clipPathUnits="userSpaceOnUse"
       id="clipPath51524">
      <path
         d="M -540.8213,585.8483 H 54.454697 V -9.4277 H -540.8213 Z"
         id="path51526"
         style="stroke-width:0.999998" />
    </clipPath>
    <clipPath
       clipPathUnits="userSpaceOnUse"
       id="clipPath51530">
      <path
         d="M -528.0898,575.3815 H 67.186197 V -19.8945 H -528.0898 Z"
         id="path51532"
         style="stroke-width:0.999998" />
    </clipPath>
    <clipPath
       clipPathUnits="userSpaceOnUse"
       id="clipPath51536">
      <path
         d="M -542.9326,584.5729 H 52.343397 V -10.7031 H -542.9326 Z"
         id="path51538"
         style="stroke-width:0.999998" />
    </clipPath>
    <clipPath
       clipPathUnits="userSpaceOnUse"
       id="clipPath51542">
      <path
         d="m -245.123,213.6656 h 595.276 v -595.276 h -595.276 z"
         id="path51544"
         style="stroke-width:0.999998" />
    </clipPath>
    <clipPath
       clipPathUnits="userSpaceOnUse"
       id="clipPath51548">
      <path
         d="m -458.0371,458.0397 h 595.276 v -595.276 h -595.276 z"
         id="path51550"
         style="stroke-width:0.999998" />
    </clipPath>
    <clipPath
       clipPathUnits="userSpaceOnUse"
       id="clipPath51554">
      <path
         d="M -561.4131,585.8522 H 33.862897 V -9.4238 H -561.4131 Z"
         id="path51556"
         style="stroke-width:0.999998" />
    </clipPath>
    <clipPath
       clipPathUnits="userSpaceOnUse"
       id="clipPath51560">
      <path
         d="M -564.5732,585.8483 H 30.702797 V -9.4277 H -564.5732 Z"
         id="path51562"
         style="stroke-width:0.999998" />
    </clipPath>
    <clipPath
       clipPathUnits="userSpaceOnUse"
       id="clipPath51566">
      <path
         d="M -567.7754,585.8522 H 27.500597 V -9.4238 H -567.7754 Z"
         id="path51568"
         style="stroke-width:0.999998" />
    </clipPath>
    <clipPath
       clipPathUnits="userSpaceOnUse"
       id="clipPath51573">
      <path
         d="M -572.8174,586.1354 H 22.458597 V -9.1406 H -572.8174 Z"
         id="path51575"
         style="stroke-width:0.999998" />
    </clipPath>
    <clipPath
       clipPathUnits="userSpaceOnUse"
       id="clipPath51579">
      <path
         d="M -574.5459,585.8522 H 20.730097 V -9.4238 H -574.5459 Z"
         id="path51581"
         style="stroke-width:0.999998" />
    </clipPath>
    <clipPath
       clipPathUnits="userSpaceOnUse"
       id="clipPath51586">
      <path
         d="M -586.5449,579.5026 H 8.7310974 V -15.7734 H -586.5449 Z"
         id="path51588"
         style="stroke-width:0.999998" />
    </clipPath>
    <clipPath
       clipPathUnits="userSpaceOnUse"
       id="clipPath51592">
      <path
         d="M -556.4014,578.0143 H 38.874597 V -17.2617 H -556.4014 Z"
         id="path51594"
         style="stroke-width:0.999998" />
    </clipPath>
    <clipPath
       clipPathUnits="userSpaceOnUse"
       id="clipPath51598">
      <path
         d="M -538.2217,577.9479 H 57.054297 V -17.3281 H -538.2217 Z"
         id="path51600"
         style="stroke-width:0.999998" />
    </clipPath>
    <clipPath
       clipPathUnits="userSpaceOnUse"
       id="clipPath51604">
      <path
         d="M -584.1943,578.9381 H 11.081697 V -16.3379 H -584.1943 Z"
         id="path51606"
         style="stroke-width:0.999998" />
    </clipPath>
    <clipPath
       clipPathUnits="userSpaceOnUse"
       id="clipPath51610">
      <path
         d="M -576.3691,585.5885 H 18.906897 V -9.6875 H -576.3691 Z"
         id="path51612"
         style="stroke-width:0.999998" />
    </clipPath>
    <clipPath
       clipPathUnits="userSpaceOnUse"
       id="clipPath51616">
      <path
         d="M -557.4951,577.8502 H 37.780897 V -17.4258 H -557.4951 Z"
         id="path51618"
         style="stroke-width:0.999998" />
    </clipPath>
    <clipPath
       clipPathUnits="userSpaceOnUse"
       id="clipPath51622">
      <path
         d="M -568.2266,575.819 H 27.049397 V -19.457 H -568.2266 Z"
         id="path51624"
         style="stroke-width:0.999998" />
    </clipPath>
    <clipPath
       clipPathUnits="userSpaceOnUse"
       id="clipPath51628">
      <path
         d="M -550.2637,577.3248 H 45.012297 V -17.9512 H -550.2637 Z"
         id="path51630"
         style="stroke-width:0.999998" />
    </clipPath>
    <clipPath
       clipPathUnits="userSpaceOnUse"
       id="clipPath51634">
      <path
         d="M -545.417,584.5729 H 49.858997 V -10.7031 H -545.417 Z"
         id="path51636"
         style="stroke-width:0.999998" />
    </clipPath>
    <clipPath
       clipPathUnits="userSpaceOnUse"
       id="clipPath51640">
      <path
         d="M -548.9834,585.8522 H 46.292597 V -9.4238 H -548.9834 Z"
         id="path51642"
         style="stroke-width:0.999998" />
    </clipPath>
    <clipPath
       clipPathUnits="userSpaceOnUse"
       id="clipPath51646">
      <path
         d="M -553.8975,585.8483 H 41.378497 V -9.4277 H -553.8975 Z"
         id="path51648"
         style="stroke-width:0.999998" />
    </clipPath>
    <clipPath
       clipPathUnits="userSpaceOnUse"
       id="clipPath51652">
      <path
         d="M -557.0645,585.8483 H 38.211497 V -9.4277 H -557.0645 Z"
         id="path51654"
         style="stroke-width:0.999998" />
    </clipPath>
    <clipPath
       clipPathUnits="userSpaceOnUse"
       id="clipPath51658">
      <path
         d="M -536.6982,584.5729 H 58.577797 V -10.7031 H -536.6982 Z"
         id="path51660"
         style="stroke-width:0.999998" />
    </clipPath>
    <clipPath
       clipPathUnits="userSpaceOnUse"
       id="clipPath51664">
      <path
         d="m -258.4121,117.5333 h 595.276 v -595.276 h -595.276 z"
         id="path51666"
         style="stroke-width:0.999998" />
    </clipPath>
    <clipPath
       clipPathUnits="userSpaceOnUse"
       id="clipPath51670">
      <path
         d="m -239.8447,155.774 h 595.276 v -595.276 h -595.276 z"
         id="path51672"
         style="stroke-width:0.999998" />
    </clipPath>
    <clipPath
       clipPathUnits="userSpaceOnUse"
       id="clipPath51676">
      <path
         d="m -260.3164,142.234 h 595.276 v -595.276 h -595.276 z"
         id="path51678"
         style="stroke-width:0.999998" />
    </clipPath>
    <clipPath
       clipPathUnits="userSpaceOnUse"
       id="clipPath51682">
      <path
         d="m -282.583,131.0529 h 595.276 v -595.276 h -595.276 z"
         id="path51684"
         style="stroke-width:0.999998" />
    </clipPath>
    <clipPath
       clipPathUnits="userSpaceOnUse"
       id="clipPath51688">
      <path
         d="m -206.6367,200.6173 h 595.276 v -595.276 h -595.276 z"
         id="path51690"
         style="stroke-width:0.999998" />
    </clipPath>
    <clipPath
       clipPathUnits="userSpaceOnUse"
       id="clipPath51694">
      <path
         d="m -203.9473,185.1676 h 595.276 v -595.276 h -595.276 z"
         id="path51696"
         style="stroke-width:0.999998" />
    </clipPath>
    <clipPath
       clipPathUnits="userSpaceOnUse"
       id="clipPath51700">
      <path
         d="m -205.3701,169.6354 h 595.276 v -595.276 h -595.276 z"
         id="path51702"
         style="stroke-width:0.999998" />
    </clipPath>
    <clipPath
       clipPathUnits="userSpaceOnUse"
       id="clipPath51706">
      <path
         d="m -210.8516,155.0089 h 595.276 v -595.276 h -595.276 z"
         id="path51708"
         style="stroke-width:0.999998" />
    </clipPath>
    <clipPath
       clipPathUnits="userSpaceOnUse"
       id="clipPath51712">
      <path
         d="m -219.9795,142.4347 h 595.276 v -595.276 h -595.276 z"
         id="path51714"
         style="stroke-width:0.999998" />
    </clipPath>
    <clipPath
       clipPathUnits="userSpaceOnUse"
       id="clipPath51718">
      <path
         d="m -231.6406,132.3107 h 595.276 v -595.276 h -595.276 z"
         id="path51720"
         style="stroke-width:0.999998" />
    </clipPath>
    <clipPath
       clipPathUnits="userSpaceOnUse"
       id="clipPath51724">
      <path
         d="m -244.7129,124.2848 h 595.276 v -595.276 h -595.276 z"
         id="path51726"
         style="stroke-width:0.999998" />
    </clipPath>
    <clipPath
       clipPathUnits="userSpaceOnUse"
       id="clipPath51730">
      <path
         d="m -292.8115,83.1241 h 595.276 v -595.276 h -595.276 z"
         id="path51732"
         style="stroke-width:0.999998" />
    </clipPath>
    <clipPath
       clipPathUnits="userSpaceOnUse"
       id="clipPath51736">
      <path
         d="m -275.1211,92.8038 h 595.276 v -595.276 h -595.276 z"
         id="path51738"
         style="stroke-width:0.999998" />
    </clipPath>
    <clipPath
       clipPathUnits="userSpaceOnUse"
       id="clipPath51742">
      <path
         d="m -223.167,200.9904 h 595.276 v -595.276 h -595.276 z"
         id="path51744"
         style="stroke-width:0.999998" />
    </clipPath>
    <clipPath
       clipPathUnits="userSpaceOnUse"
       id="clipPath51748">
      <path
         d="m -225.5898,176.1598 h 595.276 v -595.276 h -595.276 z"
         id="path51750"
         style="stroke-width:0.999998" />
    </clipPath>
    <clipPath
       clipPathUnits="userSpaceOnUse"
       id="clipPath51754">
      <path
         d="m -282.4297,177.798 h 595.276 v -595.276 h -595.276 z"
         id="path51756"
         style="stroke-width:0.999998" />
    </clipPath>
    <clipPath
       clipPathUnits="userSpaceOnUse"
       id="clipPath51760">
      <path
         d="m -261.2646,194.609 h 595.276 v -595.276 h -595.276 z"
         id="path51762"
         style="stroke-width:0.999998" />
    </clipPath>
    <clipPath
       clipPathUnits="userSpaceOnUse"
       id="clipPath51766">
      <path
         d="m -235.0039,208.8077 h 595.276 v -595.276 h -595.276 z"
         id="path51768"
         style="stroke-width:0.999998" />
    </clipPath>
  </defs>
  <sodipodi:namedview
     id="namedview48705"
     pagecolor="#ffffff"
     bordercolor="#000000"
     borderopacity="0.25"
     inkscape:showpageshadow="2"
     inkscape:pageopacity="0.0"
     inkscape:pagecheckerboard="0"
     inkscape:deskcolor="#d1d1d1"
     showgrid="false"
     inkscape:zoom="0.29734106"
     inkscape:cx="-215.24105"
     inkscape:cy="396.85068"
     inkscape:window-width="1419"
     inkscape:window-height="456"
     inkscape:window-x="0"
     inkscape:window-y="25"
     inkscape:window-maximized="0"
     inkscape:current-layer="svg48703">
    <inkscape:page
       x="0"
       y="0"
       id="page48709"
       width="793.70135"
       height="793.70135" />
  </sodipodi:namedview>
  <path
     d="M 610.714,610.72 C 555.783,665.551 480.568,699.277 396.848,699.305 313.129,699.277 237.91,665.551 182.978,610.72 128.148,555.791 94.4224,480.57 94.3944,396.854 c 0.028,-83.721 33.7536,-158.941 88.5836,-213.871 54.935,-54.831 130.151,-88.5563 213.87,-88.5869 83.72,0.0306 158.935,33.7559 213.866,88.5869 54.834,54.93 88.555,130.15 88.587,213.871 -0.032,83.716 -33.753,158.937 -88.587,213.866 M 396.85,31.7309 c -201.652,0 -365.1221,163.4711 -365.1221,365.1231 0,201.65 163.4701,365.12 365.1221,365.12 201.65,0 365.12,-163.47 365.12,-365.12 C 761.97,195.202 598.5,31.7309 396.85,31.7309"
     style="fill:#000000;fill-opacity:1;fill-rule:nonzero;stroke:none"
     id="path48823" />
  <path
     d="m 326.83,284.889 c -8.663,-2.124 -21.084,-3.847 -32.167,-3.847 -6.869,0 -13.658,0.522 -20.253,1.508 15.424,20.815 40.169,34.304 68.065,34.304 11.965,0 23.351,-2.482 33.671,-6.958 3.313,-1.439 5.221,-1.947 9.594,-4.915 3.855,-2.617 7.91,-8.827 7.91,-14.428 0,-9.447 -5.659,-17.105 -17.106,-17.105 -8.377,0 -15.173,6.793 -15.173,15.173 0,5.263 4.267,9.529 9.527,9.529 5.262,0 9.526,-4.33 9.526,-9.529 0,-1.997 2.923,-2.095 3.075,0.163 0.451,6.69 -5.149,13.27 -12.579,13.273 -13.346,0 -23.853,-12.205 -44.09,-17.168"
     style="fill:#000000;fill-opacity:1;fill-rule:nonzero;stroke:none"
     id="path48827" />
  <path
     d="m 347.087,189.647 c -1.195,-8.696 -1.984,-17.4 -2.349,-26.039 -5.299,-7.345 -10.95,-14.399 -16.883,-21.095 0.566,9.395 1.627,18.811 3.202,28.214 5.586,6.017 10.939,12.326 16.03,18.92"
     style="fill:#000000;fill-opacity:1;fill-rule:nonzero;stroke:none"
     id="path48831" />
  <path
     d="m 376.776,174.739 c 1.074,-10.308 2.652,-20.467 4.716,-30.447 -3.073,-7.809 -6.474,-15.436 -10.188,-22.864 -2.173,10.64 -3.749,21.468 -4.693,32.444 3.656,6.768 7.049,13.727 10.165,20.867"
     style="fill:#000000;fill-opacity:1;fill-rule:nonzero;stroke:none"
     id="path48835" />
  <path
     d="m 275.515,267.49 c -4.889,-3.498 -9.614,-7.172 -14.169,-11.006 1.189,3.977 2.664,7.83 4.399,11.538 l 1.67,-0.117 c 2.691,-0.192 5.391,-0.331 8.1,-0.415"
     style="fill:#000000;fill-opacity:1;fill-rule:nonzero;stroke:none"
     id="path48839" />
  <path
     d="m 271.929,246.892 c -4.928,-4.65 -9.636,-9.475 -14.119,-14.464 0.013,4.545 0.38,9.005 1.083,13.356 l 0.948,0.056 c 4.025,0.242 8.058,0.593 12.088,1.052"
     style="fill:#000000;fill-opacity:1;fill-rule:nonzero;stroke:none"
     id="path48843" />
  <path
     d="m 273.826,226.181 c -4.585,-5.669 -8.911,-11.504 -12.964,-17.477 -1.211,4.39 -2.091,9.04 -2.587,13.972 l 0.416,0.081 c 5.063,0.98 10.107,2.117 15.135,3.424"
     style="fill:#000000;fill-opacity:1;fill-rule:nonzero;stroke:none"
     id="path48847" />
  <path
     d="m 281.135,206.68 c -3.853,-6.362 -7.417,-12.852 -10.696,-19.444 -2.565,4.009 -4.821,8.308 -6.688,12.932 5.847,1.954 11.646,4.124 17.384,6.512"
     style="fill:#000000;fill-opacity:1;fill-rule:nonzero;stroke:none"
     id="path48851" />
  <path
     d="m 293.306,189.915 c -2.913,-6.722 -5.535,-13.52 -7.872,-20.388 -3.576,3.304 -6.952,6.873 -10.031,10.75 6.062,2.971 12.034,6.186 17.903,9.638"
     style="fill:#000000;fill-opacity:1;fill-rule:nonzero;stroke:none"
     id="path48855" />
  <path
     d="m 308.854,176.416 c -1.955,-6.919 -3.628,-13.879 -5.021,-20.864 -4.099,2.603 -8.14,5.427 -12.02,8.511 5.812,3.878 11.498,7.996 17.041,12.353"
     style="fill:#000000;fill-opacity:1;fill-rule:nonzero;stroke:none"
     id="path48859" />
  <path
     d="m 326.283,165.715 c -1.038,-7.127 -1.792,-14.242 -2.262,-21.362 -4.267,2.1 -8.647,4.39 -13.02,6.884 5.254,4.608 10.353,9.431 15.282,14.478"
     style="fill:#000000;fill-opacity:1;fill-rule:nonzero;stroke:none"
     id="path48863" />
  <path
     d="m 390.415,110.833 c -3.505,2.04 -8.751,5.014 -15.645,8.714 2.928,5.86 5.669,11.844 8.21,17.948 2.084,-9.046 4.571,-17.94 7.435,-26.662"
     style="fill:#000000;fill-opacity:1;fill-rule:nonzero;stroke:none"
     id="path48867" />
  <path
     d="m 366.827,123.74 c -4.253,2.209 -8.961,4.603 -14.107,7.145 3.692,5.49 7.199,11.128 10.516,16.915 0.862,-8.108 2.063,-16.137 3.591,-24.06"
     style="fill:#000000;fill-opacity:1;fill-rule:nonzero;stroke:none"
     id="path48871" />
  <path
     d="m 344.548,156.712 c -0.028,-1.611 -0.04,-3.216 -0.04,-4.824 -0.004,-5.796 0.18,-11.569 0.54,-17.313 -4.117,1.912 -8.674,3.95 -13.482,6.192 4.505,5.125 8.838,10.445 12.982,15.945"
     style="fill:#000000;fill-opacity:1;fill-rule:nonzero;stroke:none"
     id="path48875" />
  <path
     d="m 319.793,207.7 c -3.411,-8.135 -6.402,-16.363 -8.976,-24.659 -7.155,-5.869 -14.562,-11.324 -22.187,-16.361 3.024,9.061 6.551,18.013 10.585,26.811 7.026,4.382 13.894,9.119 20.578,14.209"
     style="fill:#000000;fill-opacity:1;fill-rule:nonzero;stroke:none"
     id="path48879" />
  <path
     d="m 300.786,234.881 c -5.759,-7.232 -11.093,-14.693 -16.003,-22.347 -7.374,-3.261 -14.86,-6.153 -22.425,-8.677 5.508,8.339 11.539,16.405 18.087,24.147 6.833,1.981 13.618,4.273 20.341,6.877"
     style="fill:#000000;fill-opacity:1;fill-rule:nonzero;stroke:none"
     id="path48883" />
  <path
     d="m 297.555,267.988 c -7.22,-5.172 -14.093,-10.68 -20.601,-16.488 -5.784,-0.804 -11.573,-1.379 -17.348,-1.727 7.113,6.304 14.668,12.192 22.656,17.62 5.08,0.009 10.176,0.204 15.293,0.595"
     style="fill:#000000;fill-opacity:1;fill-rule:nonzero;stroke:none"
     id="path48887" />
  <path
     d="m 376.572,237.065 c -0.965,-9.919 -1.458,-19.975 -1.458,-30.144 0,-8.015 0.309,-15.957 0.909,-23.817 -3.971,-9.805 -8.464,-19.279 -13.439,-28.399 -4.156,-7.617 -8.649,-14.988 -13.453,-22.097 -1.483,20.936 -0.571,42.293 2.949,63.714 5.556,7.666 10.768,15.69 15.604,24.067 3.175,5.497 6.136,11.059 8.888,16.676"
     style="fill:#000000;fill-opacity:1;fill-rule:nonzero;stroke:none"
     id="path48891" />
  <path
     d="m 348.352,259.48 c -4.589,-6.555 -8.929,-13.363 -13.004,-20.422 -4.499,-7.794 -8.578,-15.722 -12.23,-23.75 -15.721,-12.664 -32.552,-23.275 -50.132,-31.828 9.352,19.218 21.157,37.54 35.424,54.498 9.147,3.899 18.153,8.388 26.977,13.484 4.432,2.558 8.755,5.234 12.965,8.018"
     style="fill:#000000;fill-opacity:1;fill-rule:nonzero;stroke:none"
     id="path48895" />
  <path
     d="m 313.338,278.412 c -3.112,-1.891 -6.168,-3.84 -9.168,-5.846 -12.261,-1.361 -24.463,-1.581 -36.473,-0.73 3.188,2.154 6.444,4.269 9.772,6.324 5.633,-0.694 11.384,-1.058 17.194,-1.058 6.147,0.004 12.612,0.506 18.675,1.31"
     style="fill:#000000;fill-opacity:1;fill-rule:nonzero;stroke:none"
     id="path48899" />
  <path
     d="m 378.059,249.649 c -4.033,-9.243 -8.625,-18.349 -13.787,-27.288 -15.441,-26.749 -34.767,-49.856 -56.855,-69.022 5.553,28.712 15.902,57.003 31.342,83.75 7.612,13.184 16.165,25.484 25.531,36.861 3.317,-2.773 7.59,-4.442 12.254,-4.444 1.764,-0.009 3.447,0.151 5.043,0.468 -1.395,-6.696 -2.576,-13.474 -3.528,-20.325"
     style="fill:#000000;fill-opacity:1;fill-rule:nonzero;stroke:none"
     id="path48903" />
  <path
     d="m 361.524,276.793 c -2.033,-2.464 -4.032,-4.972 -5.99,-7.521 -7.031,-5.135 -14.407,-9.947 -22.116,-14.398 -24.104,-13.916 -49.597,-23.242 -75.475,-28.248 17.274,19.906 38.096,37.322 62.202,51.239 1.444,0.833 2.893,1.651 4.348,2.451 1.133,0.241 2.226,0.49 3.274,0.746 10.696,2.623 18.772,7.155 25.557,10.802 1.967,1.065 3.815,2.04 5.576,2.886 -0.941,-1.838 -1.47,-3.921 -1.47,-6.129 0.001,-4.467 1.529,-8.575 4.094,-11.828"
     style="fill:#000000;fill-opacity:1;fill-rule:nonzero;stroke:none"
     id="path48907" />
  <path
     d="m 464.411,284.889 c 8.662,-2.124 21.084,-3.847 32.166,-3.847 6.87,0 13.659,0.522 20.254,1.508 -15.424,20.815 -40.17,34.304 -68.065,34.304 -11.966,0 -23.351,-2.482 -33.671,-6.958 -3.313,-1.439 -5.221,-1.947 -9.595,-4.915 -3.854,-2.617 -7.909,-8.827 -7.909,-14.428 0,-9.447 5.659,-17.105 17.105,-17.105 8.378,0 15.174,6.793 15.174,15.173 0,5.263 -4.267,9.529 -9.527,9.529 -5.263,0 -9.527,-4.33 -9.527,-9.529 0,-1.997 -2.922,-2.095 -3.074,0.163 -0.451,6.69 5.149,13.27 12.578,13.273 13.347,0 23.854,-12.205 44.091,-17.168"
     style="fill:#000000;fill-opacity:1;fill-rule:nonzero;stroke:none"
     id="path48911" />
  <path
     d="m 460.184,170.727 c 1.575,-9.403 2.636,-18.818 3.2,-28.214 -5.933,6.698 -11.582,13.751 -16.882,21.096 -0.364,8.639 -1.155,17.342 -2.348,26.038 5.09,-6.594 10.444,-12.903 16.03,-18.92"
     style="fill:#000000;fill-opacity:1;fill-rule:nonzero;stroke:none"
     id="path48915" />
  <path
     d="m 424.63,153.872 c -0.944,-10.975 -2.52,-21.804 -4.695,-32.444 -3.712,7.428 -7.113,15.055 -10.187,22.864 2.064,9.98 3.643,20.139 4.716,30.447 3.116,-7.14 6.51,-14.099 10.166,-20.867"
     style="fill:#000000;fill-opacity:1;fill-rule:nonzero;stroke:none"
     id="path48919" />
  <path
     d="m 515.725,267.491 c 4.89,-3.499 9.615,-7.172 14.17,-11.007 -1.19,3.977 -2.664,7.831 -4.399,11.539 l -1.671,-0.118 c -2.69,-0.192 -5.39,-0.33 -8.1,-0.414"
     style="fill:#000000;fill-opacity:1;fill-rule:nonzero;stroke:none"
     id="path48923" />
  <path
     d="m 519.311,246.891 c 4.928,-4.649 9.636,-9.474 14.119,-14.464 -0.013,4.546 -0.38,9.006 -1.083,13.356 l -0.948,0.056 c -4.025,0.243 -8.058,0.594 -12.088,1.052"
     style="fill:#000000;fill-opacity:1;fill-rule:nonzero;stroke:none"
     id="path48927" />
  <path
     d="m 517.414,226.182 c 4.585,-5.67 8.911,-11.504 12.964,-17.478 1.211,4.391 2.091,9.04 2.587,13.972 l -0.416,0.082 c -5.063,0.98 -10.107,2.117 -15.135,3.424"
     style="fill:#000000;fill-opacity:1;fill-rule:nonzero;stroke:none"
     id="path48931" />
  <path
     d="m 510.106,206.68 c 3.853,-6.362 7.417,-12.852 10.695,-19.444 2.566,4.009 4.822,8.308 6.688,12.932 -5.846,1.954 -11.645,4.124 -17.383,6.512"
     style="fill:#000000;fill-opacity:1;fill-rule:nonzero;stroke:none"
     id="path48935" />
  <path
     d="m 497.935,189.914 c 2.913,-6.721 5.535,-13.52 7.872,-20.388 3.576,3.304 6.952,6.873 10.031,10.751 -6.062,2.97 -12.034,6.185 -17.903,9.637"
     style="fill:#000000;fill-opacity:1;fill-rule:nonzero;stroke:none"
     id="path48939" />
  <path
     d="m 482.387,176.415 c 1.954,-6.918 3.628,-13.878 5.021,-20.863 4.099,2.602 8.14,5.426 12.02,8.51 -5.812,3.879 -11.499,7.996 -17.041,12.353"
     style="fill:#000000;fill-opacity:1;fill-rule:nonzero;stroke:none"
     id="path48943" />
  <path
     d="m 464.957,165.714 c 1.039,-7.126 1.792,-14.241 2.263,-21.361 4.267,2.1 8.647,4.389 13.02,6.884 -5.255,4.608 -10.353,9.431 -15.283,14.477"
     style="fill:#000000;fill-opacity:1;fill-rule:nonzero;stroke:none"
     id="path48947" />
  <path
     d="m 408.26,137.495 c 2.542,-6.104 5.283,-12.088 8.211,-17.948 -6.896,-3.7 -12.14,-6.674 -15.645,-8.714 2.864,8.722 5.35,17.616 7.434,26.662"
     style="fill:#000000;fill-opacity:1;fill-rule:nonzero;stroke:none"
     id="path48951" />
  <path
     d="m 428.004,147.8 c 3.316,-5.787 6.823,-11.427 10.516,-16.915 -5.146,-2.542 -9.853,-4.936 -14.106,-7.145 1.528,7.923 2.729,15.951 3.59,24.06"
     style="fill:#000000;fill-opacity:1;fill-rule:nonzero;stroke:none"
     id="path48955" />
  <path
     d="m 459.675,140.767 c -4.808,-2.24 -9.365,-4.28 -13.483,-6.191 0.359,5.744 0.544,11.516 0.54,17.313 0,1.607 -0.013,3.212 -0.04,4.823 4.144,-5.5 8.478,-10.819 12.983,-15.945"
     style="fill:#000000;fill-opacity:1;fill-rule:nonzero;stroke:none"
     id="path48959" />
  <path
     d="m 492.027,193.491 c 4.033,-8.799 7.561,-17.75 10.584,-26.811 -7.624,5.036 -15.031,10.492 -22.186,16.361 -2.576,8.296 -5.566,16.524 -8.977,24.659 6.684,-5.091 13.552,-9.827 20.579,-14.209"
     style="fill:#000000;fill-opacity:1;fill-rule:nonzero;stroke:none"
     id="path48963" />
  <path
     d="m 510.796,228.004 c 6.548,-7.742 12.58,-15.808 18.087,-24.147 -7.564,2.524 -15.051,5.416 -22.426,8.677 -4.909,7.655 -10.244,15.115 -16.002,22.347 6.722,-2.603 13.508,-4.896 20.341,-6.877"
     style="fill:#000000;fill-opacity:1;fill-rule:nonzero;stroke:none"
     id="path48967" />
  <path
     d="m 508.977,267.394 c 7.988,-5.428 15.543,-11.316 22.656,-17.62 -5.774,0.348 -11.564,0.923 -17.348,1.727 -6.506,5.808 -13.381,11.316 -20.601,16.488 5.117,-0.392 10.213,-0.585 15.293,-0.595"
     style="fill:#000000;fill-opacity:1;fill-rule:nonzero;stroke:none"
     id="path48971" />
  <path
     d="m 423.556,220.389 v 0 c 4.836,-8.377 10.048,-16.401 15.604,-24.067 3.52,-21.421 4.432,-42.778 2.95,-63.714 -4.804,7.109 -9.298,14.479 -13.454,22.097 -4.974,9.12 -9.468,18.594 -13.438,28.399 0.6,7.86 0.909,15.802 0.909,23.816 0,10.17 -0.493,20.226 -1.459,30.145 2.752,-5.617 5.714,-11.179 8.888,-16.676"
     style="fill:#000000;fill-opacity:1;fill-rule:nonzero;stroke:none"
     id="path48975" />
  <path
     d="m 442.888,259.48 c 4.211,-2.784 8.534,-5.46 12.966,-8.018 8.824,-5.096 17.83,-9.585 26.977,-13.484 14.266,-16.958 26.072,-35.28 35.424,-54.498 -17.58,8.553 -34.411,19.164 -50.132,31.828 -3.652,8.028 -7.731,15.956 -12.231,23.75 -4.074,7.059 -8.414,13.867 -13.004,20.422"
     style="fill:#000000;fill-opacity:1;fill-rule:nonzero;stroke:none"
     id="path48979" />
  <path
     d="m 496.577,277.101 v 0 c 5.811,0 11.562,0.364 17.195,1.057 3.329,-2.054 6.584,-4.168 9.773,-6.322 -12.012,-0.852 -24.213,-0.632 -36.474,0.73 -3,2.006 -6.056,3.954 -9.168,5.844 6.062,-0.802 12.528,-1.305 18.674,-1.309"
     style="fill:#000000;fill-opacity:1;fill-rule:nonzero;stroke:none"
     id="path48983" />
  <path
     d="m 413.182,249.649 c 4.033,-9.243 8.625,-18.349 13.786,-27.288 15.442,-26.749 34.768,-49.856 56.856,-69.022 -5.553,28.712 -15.903,57.003 -31.342,83.75 -7.612,13.184 -16.166,25.484 -25.531,36.861 -3.317,-2.773 -7.591,-4.442 -12.255,-4.444 -1.764,-0.009 -3.446,0.151 -5.042,0.468 1.394,-6.696 2.576,-13.474 3.528,-20.325"
     style="fill:#000000;fill-opacity:1;fill-rule:nonzero;stroke:none"
     id="path48987" />
  <path
     d="m 433.81,288.621 v 0 c 0,2.208 -0.53,4.291 -1.472,6.129 1.762,-0.846 3.61,-1.821 5.577,-2.886 6.785,-3.647 14.861,-8.179 25.557,-10.802 1.047,-0.256 2.142,-0.505 3.275,-0.746 1.454,-0.8 2.904,-1.618 4.348,-2.451 24.105,-13.917 44.928,-31.333 62.2,-51.239 -25.876,5.006 -51.37,14.331 -75.473,28.247 -7.71,4.452 -15.087,9.264 -22.116,14.399 -1.959,2.548 -3.958,5.057 -5.991,7.521 2.565,3.253 4.093,7.361 4.095,11.828"
     style="fill:#000000;fill-opacity:1;fill-rule:nonzero;stroke:none"
     id="path48991" />
  <path
     d="m 395.62,107.729 c -10.736,31.086 -16.565,64.458 -16.565,99.191 0,22.09 2.36,43.628 6.839,64.38 2.502,1.07 4.665,2.592 6.394,4.49 1.396,1.519 2.5,3.235 3.331,5.08 0.831,-1.846 1.936,-3.56 3.333,-5.08 1.73,-1.898 3.892,-3.42 6.395,-4.49 4.479,-20.752 6.839,-42.29 6.839,-64.38 0,-34.733 -5.83,-68.105 -16.566,-99.191"
     style="fill:#000000;fill-opacity:1;fill-rule:nonzero;stroke:none"
     id="path48995" />
  <path
     d="m 502.864,496.652 c 2.124,8.664 3.845,21.084 3.845,32.167 0,6.869 -0.521,13.659 -1.505,20.255 -20.816,-15.424 -34.307,-40.171 -34.307,-68.067 0,-11.964 2.484,-23.349 6.96,-33.669 1.439,-3.313 1.947,-5.221 4.915,-9.595 2.616,-3.856 8.827,-7.91 14.428,-7.91 9.448,0 17.104,5.658 17.104,17.106 0,8.378 -6.792,15.172 -15.172,15.172 -5.264,0 -9.529,-4.265 -9.529,-9.526 0,-5.263 4.33,-9.526 9.529,-9.526 1.997,0 2.095,-2.922 -0.164,-3.076 -6.689,-0.45 -13.269,5.151 -13.272,12.579 0,13.348 12.204,23.853 17.168,44.09"
     style="fill:#000000;fill-opacity:1;fill-rule:nonzero;stroke:none"
     id="path48999" />
  <path
     d="m 617.028,492.426 c 9.402,1.576 18.817,2.636 28.212,3.2 -6.696,-5.932 -13.75,-11.583 -21.094,-16.883 -8.64,-0.364 -17.344,-1.153 -26.038,-2.348 6.592,5.091 12.901,10.445 18.92,16.031"
     style="fill:#000000;fill-opacity:1;fill-rule:nonzero;stroke:none"
     id="path49003" />
  <path
     d="m 633.882,456.871 c 10.974,-0.942 21.804,-2.518 32.443,-4.693 -7.428,-3.713 -15.055,-7.113 -22.863,-10.187 -9.982,2.063 -20.141,3.643 -30.446,4.716 7.137,3.115 14.097,6.508 20.866,10.164"
     style="fill:#000000;fill-opacity:1;fill-rule:nonzero;stroke:none"
     id="path49007" />
  <path
     d="m 520.261,547.967 c 3.499,4.891 7.174,9.615 11.008,14.169 -3.978,-1.188 -7.833,-2.664 -11.538,-4.398 l 0.116,-1.67 c 0.192,-2.692 0.33,-5.39 0.414,-8.101"
     style="fill:#000000;fill-opacity:1;fill-rule:nonzero;stroke:none"
     id="path49011" />
  <path
     d="m 540.861,551.554 c 4.648,4.929 9.475,9.636 14.463,14.12 -4.544,-0.014 -9.004,-0.38 -13.355,-1.084 l -0.057,-0.948 c -0.243,-4.026 -0.592,-8.058 -1.051,-12.088"
     style="fill:#000000;fill-opacity:1;fill-rule:nonzero;stroke:none"
     id="path49015" />
  <path
     d="m 561.571,549.658 c 5.67,4.585 11.505,8.909 17.477,12.964 -4.389,1.21 -9.039,2.09 -13.972,2.585 l -0.081,-0.416 c -0.978,-5.063 -2.118,-10.107 -3.424,-15.133"
     style="fill:#000000;fill-opacity:1;fill-rule:nonzero;stroke:none"
     id="path49019" />
  <path
     d="m 581.073,542.347 c 6.362,3.855 12.852,7.419 19.444,10.697 -4.009,2.566 -8.308,4.822 -12.932,6.688 -1.954,-5.846 -4.125,-11.645 -6.512,-17.385"
     style="fill:#000000;fill-opacity:1;fill-rule:nonzero;stroke:none"
     id="path49023" />
  <path
     d="m 597.839,530.178 c 6.721,2.912 13.519,5.533 20.387,7.872 -3.304,3.576 -6.873,6.95 -10.749,10.029 -2.972,-6.06 -6.185,-12.032 -9.638,-17.901"
     style="fill:#000000;fill-opacity:1;fill-rule:nonzero;stroke:none"
     id="path49027" />
  <path
     d="m 611.337,514.628 c 6.917,1.956 13.877,3.628 20.864,5.022 -2.603,4.098 -5.427,8.14 -8.511,12.02 -3.878,-5.812 -7.997,-11.498 -12.353,-17.042"
     style="fill:#000000;fill-opacity:1;fill-rule:nonzero;stroke:none"
     id="path49031" />
  <path
     d="m 622.038,497.199 c 7.127,1.039 14.243,1.792 21.36,2.263 -2.098,4.268 -4.388,8.646 -6.884,13.021 -4.606,-5.256 -9.43,-10.355 -14.476,-15.284"
     style="fill:#000000;fill-opacity:1;fill-rule:nonzero;stroke:none"
     id="path49035" />
  <path
     d="m 650.257,440.505 c 6.104,2.541 12.088,5.281 17.948,8.21 3.699,-6.896 6.673,-12.14 8.712,-15.645 -8.721,2.864 -17.616,5.349 -26.66,7.435"
     style="fill:#000000;fill-opacity:1;fill-rule:nonzero;stroke:none"
     id="path49039" />
  <path
     d="m 639.953,460.246 c 5.787,3.317 11.425,6.822 16.915,10.516 2.542,-5.147 4.936,-9.852 7.145,-14.107 -7.923,1.528 -15.952,2.73 -24.06,3.591"
     style="fill:#000000;fill-opacity:1;fill-rule:nonzero;stroke:none"
     id="path49043" />
  <path
     d="m 646.985,491.918 c 2.241,-4.81 4.28,-9.367 6.192,-13.484 -5.744,0.358 -11.516,0.544 -17.313,0.541 -1.608,0 -3.214,-0.013 -4.824,-0.041 5.501,4.145 10.818,8.478 15.945,12.984"
     style="fill:#000000;fill-opacity:1;fill-rule:nonzero;stroke:none"
     id="path49047" />
  <path
     d="m 594.261,524.267 c 8.799,4.036 17.751,7.563 26.811,10.585 -5.038,-7.624 -10.492,-15.03 -16.36,-22.184 -8.297,-2.576 -16.525,-5.568 -24.659,-8.977 5.09,6.683 9.827,13.552 14.208,20.576"
     style="fill:#000000;fill-opacity:1;fill-rule:nonzero;stroke:none"
     id="path49051" />
  <path
     d="m 559.749,543.038 c 7.742,6.549 15.807,12.581 24.146,18.088 -2.523,-7.564 -5.415,-15.052 -8.676,-22.427 -7.656,-4.909 -15.115,-10.243 -22.348,-16.003 2.604,6.724 4.897,13.508 6.878,20.342"
     style="fill:#000000;fill-opacity:1;fill-rule:nonzero;stroke:none"
     id="path49055" />
  <path
     d="m 520.357,541.22 c 5.428,7.99 11.318,15.544 17.62,22.656 -0.348,-5.773 -0.922,-11.562 -1.725,-17.346 -5.809,-6.507 -11.316,-13.383 -16.488,-20.602 0.392,5.118 0.585,10.214 0.593,15.292"
     style="fill:#000000;fill-opacity:1;fill-rule:nonzero;stroke:none"
     id="path49059" />
  <path
     d="m 567.364,455.798 v 0 c 8.376,4.836 16.401,10.049 24.065,15.604 21.421,3.521 42.779,4.432 63.715,2.95 -7.108,-4.804 -14.48,-9.297 -22.096,-13.453 -9.122,-4.976 -18.595,-9.468 -28.399,-13.44 -7.861,0.602 -15.804,0.91 -23.817,0.91 -10.169,0 -20.225,-0.492 -30.144,-1.459 5.616,2.752 11.179,5.713 16.676,8.888"
     style="fill:#000000;fill-opacity:1;fill-rule:nonzero;stroke:none"
     id="path49063" />
  <path
     d="m 528.273,475.131 c 2.784,4.211 5.46,8.533 8.018,12.964 5.097,8.825 9.585,17.831 13.482,26.979 16.96,14.265 35.282,26.07 54.5,35.424 -8.554,-17.58 -19.164,-34.411 -31.828,-50.132 -8.029,-3.654 -15.956,-7.732 -23.752,-12.232 -7.057,-4.074 -13.866,-8.415 -20.42,-13.003"
     style="fill:#000000;fill-opacity:1;fill-rule:nonzero;stroke:none"
     id="path49067" />
  <path
     d="m 510.651,528.819 v 0 c 0,5.812 -0.363,11.563 -1.058,17.195 2.055,3.329 4.17,6.584 6.323,9.774 0.851,-12.013 0.632,-24.214 -0.731,-36.474 -2.005,-3 -3.953,-6.058 -5.844,-9.17 0.803,6.063 1.306,12.53 1.31,18.675"
     style="fill:#000000;fill-opacity:1;fill-rule:nonzero;stroke:none"
     id="path49071" />
  <path
     d="m 538.104,445.423 c 9.243,4.034 18.348,8.626 27.288,13.787 26.748,15.442 49.856,34.768 69.022,56.856 -28.713,-5.552 -57.003,-15.903 -83.751,-31.343 -13.183,-7.612 -25.483,-16.164 -36.862,-25.529 2.775,-3.317 4.443,-7.591 4.446,-12.255 0.008,-1.764 -0.152,-3.448 -0.468,-5.042 6.696,1.393 13.473,2.576 20.325,3.526"
     style="fill:#000000;fill-opacity:1;fill-rule:nonzero;stroke:none"
     id="path49075" />
  <path
     d="m 499.133,466.054 v 0 c -2.208,0 -4.292,-0.531 -6.13,-1.472 0.845,1.761 1.821,3.61 2.888,5.576 3.645,6.786 8.177,14.862 10.8,25.557 0.254,1.047 0.505,2.141 0.748,3.276 0.798,1.453 1.616,2.904 2.449,4.347 13.917,24.106 31.332,44.929 51.239,62.2 -5.006,-25.875 -14.332,-51.37 -28.247,-75.474 -4.451,-7.708 -9.264,-15.086 -14.399,-22.114 -2.548,-1.959 -5.056,-3.959 -7.521,-5.992 -3.253,2.565 -7.361,4.093 -11.827,4.096"
     style="fill:#000000;fill-opacity:1;fill-rule:nonzero;stroke:none"
     id="path49079" />
  <path
     d="m 502.864,359.073 c 2.124,-8.663 3.845,-21.084 3.845,-32.167 0,-6.869 -0.521,-13.658 -1.505,-20.254 -20.816,15.425 -34.307,40.17 -34.307,68.066 0,11.965 2.484,23.351 6.96,33.672 1.439,3.312 1.947,5.221 4.915,9.593 2.616,3.855 8.827,7.91 14.428,7.91 9.448,0 17.104,-5.659 17.104,-17.104 0,-8.379 -6.792,-15.175 -15.172,-15.175 -5.264,0 -9.529,4.267 -9.529,9.525 0,5.264 4.33,9.53 9.529,9.53 1.997,0 2.095,2.921 -0.164,3.072 -6.689,0.45 -13.269,-5.148 -13.272,-12.578 0,-13.346 12.204,-23.853 17.168,-44.09"
     style="fill:#000000;fill-opacity:1;fill-rule:nonzero;stroke:none"
     id="path49083" />
  <path
     d="m 598.107,379.33 c 8.694,-1.194 17.4,-1.984 26.038,-2.349 7.344,-5.299 14.398,-10.949 21.095,-16.883 -9.395,0.566 -18.811,1.627 -28.213,3.202 -6.018,5.586 -12.328,10.94 -18.92,16.03"
     style="fill:#000000;fill-opacity:1;fill-rule:nonzero;stroke:none"
     id="path49087" />
  <path
     d="m 613.016,409.019 c 10.305,1.074 20.465,2.651 30.446,4.716 7.808,-3.073 15.435,-6.476 22.863,-10.188 -10.639,-2.173 -21.468,-3.749 -32.443,-4.694 -6.769,3.656 -13.728,7.049 -20.866,10.166"
     style="fill:#000000;fill-opacity:1;fill-rule:nonzero;stroke:none"
     id="path49091" />
  <path
     d="m 520.262,307.757 c 3.498,-4.889 7.173,-9.613 11.008,-14.168 -3.979,1.189 -7.834,2.664 -11.539,4.397 l 0.116,1.672 c 0.192,2.691 0.331,5.391 0.415,8.099"
     style="fill:#000000;fill-opacity:1;fill-rule:nonzero;stroke:none"
     id="path49095" />
  <path
     d="m 540.862,304.171 c 4.648,-4.927 9.475,-9.635 14.463,-14.119 -4.544,0.014 -9.004,0.382 -13.355,1.083 l -0.057,0.948 c -0.243,4.027 -0.592,8.059 -1.051,12.088"
     style="fill:#000000;fill-opacity:1;fill-rule:nonzero;stroke:none"
     id="path49099" />
  <path
     d="m 561.57,306.069 c 5.671,-4.586 11.506,-8.912 17.477,-12.964 -4.389,-1.21 -9.038,-2.092 -13.971,-2.586 l -0.082,0.416 c -0.977,5.062 -2.117,10.106 -3.424,15.134"
     style="fill:#000000;fill-opacity:1;fill-rule:nonzero;stroke:none"
     id="path49103" />
  <path
     d="m 581.073,313.377 c 6.361,-3.853 12.852,-7.418 19.444,-10.696 -4.01,-2.565 -8.308,-4.82 -12.932,-6.688 -1.955,5.847 -4.126,11.646 -6.512,17.384"
     style="fill:#000000;fill-opacity:1;fill-rule:nonzero;stroke:none"
     id="path49107" />
  <path
     d="m 597.838,325.547 c 6.722,-2.913 13.52,-5.533 20.388,-7.872 -3.304,-3.576 -6.873,-6.952 -10.749,-10.029 -2.972,6.061 -6.185,12.033 -9.639,17.901"
     style="fill:#000000;fill-opacity:1;fill-rule:nonzero;stroke:none"
     id="path49111" />
  <path
     d="m 611.337,341.096 c 6.917,-1.955 13.877,-3.628 20.864,-5.02 -2.603,-4.099 -5.427,-8.143 -8.511,-12.021 -3.878,5.812 -7.997,11.497 -12.353,17.041"
     style="fill:#000000;fill-opacity:1;fill-rule:nonzero;stroke:none"
     id="path49115" />
  <path
     d="m 622.039,358.526 c 7.126,-1.039 14.242,-1.792 21.36,-2.263 -2.099,-4.267 -4.388,-8.647 -6.884,-13.02 -4.607,5.255 -9.431,10.353 -14.476,15.283"
     style="fill:#000000;fill-opacity:1;fill-rule:nonzero;stroke:none"
     id="path49119" />
  <path
     d="m 676.918,422.658 c -2.038,-3.505 -5.013,-8.751 -8.712,-15.645 -5.86,2.926 -11.844,5.669 -17.948,8.21 9.044,2.083 17.939,4.571 26.66,7.435"
     style="fill:#000000;fill-opacity:1;fill-rule:nonzero;stroke:none"
     id="path49123" />
  <path
     d="m 664.013,399.069 c -2.209,-4.254 -4.603,-8.96 -7.145,-14.107 -5.49,3.693 -11.128,7.2 -16.915,10.516 8.108,0.863 16.137,2.063 24.06,3.591"
     style="fill:#000000;fill-opacity:1;fill-rule:nonzero;stroke:none"
     id="path49127" />
  <path
     d="m 631.04,376.791 c 1.611,-0.028 3.216,-0.04 4.824,-0.04 5.797,-0.004 11.569,0.18 17.313,0.54 -1.912,-4.117 -3.95,-8.674 -6.192,-13.482 -5.126,4.505 -10.444,8.838 -15.945,12.982"
     style="fill:#000000;fill-opacity:1;fill-rule:nonzero;stroke:none"
     id="path49131" />
  <path
     d="m 580.053,352.035 c 8.135,-3.411 16.362,-6.402 24.659,-8.976 5.869,-7.155 11.322,-14.562 16.361,-22.187 -9.061,3.024 -18.013,6.551 -26.812,10.585 -4.381,7.026 -9.118,13.894 -14.208,20.578"
     style="fill:#000000;fill-opacity:1;fill-rule:nonzero;stroke:none"
     id="path49135" />
  <path
     d="m 552.871,333.028 c 7.233,-5.758 14.693,-11.093 22.348,-16.001 3.261,-7.377 6.153,-14.861 8.677,-22.428 -8.338,5.509 -16.405,11.54 -24.146,18.088 -1.982,6.833 -4.275,13.619 -6.879,20.341"
     style="fill:#000000;fill-opacity:1;fill-rule:nonzero;stroke:none"
     id="path49139" />
  <path
     d="m 519.764,329.798 c 5.172,-7.22 10.68,-14.095 16.488,-20.601 0.804,-5.786 1.378,-11.574 1.726,-17.348 -6.302,7.113 -12.191,14.668 -17.62,22.656 -0.008,5.08 -0.202,10.176 -0.594,15.293"
     style="fill:#000000;fill-opacity:1;fill-rule:nonzero;stroke:none"
     id="path49143" />
  <path
     d="m 550.689,408.814 c 9.917,-0.964 19.973,-1.459 30.142,-1.459 8.015,0 15.958,0.311 23.819,0.91 9.804,-3.97 19.277,-8.464 28.399,-13.439 7.614,-4.156 14.988,-8.648 22.095,-13.453 -20.935,-1.483 -42.293,-0.57 -63.714,2.949 -7.664,5.556 -15.689,10.769 -24.065,15.604 -5.498,3.175 -11.06,6.136 -16.676,8.888"
     style="fill:#000000;fill-opacity:1;fill-rule:nonzero;stroke:none"
     id="path49147" />
  <path
     d="m 528.273,380.595 c 6.554,-4.59 13.363,-8.93 20.42,-13.004 7.796,-4.5 15.723,-8.579 23.752,-12.231 12.664,-15.721 23.274,-32.552 31.828,-50.132 -19.218,9.352 -37.54,21.157 -54.5,35.424 -3.897,9.147 -8.385,18.153 -13.482,26.977 -2.558,4.432 -5.234,8.755 -8.018,12.966"
     style="fill:#000000;fill-opacity:1;fill-rule:nonzero;stroke:none"
     id="path49151" />
  <path
     d="m 509.341,345.581 c 1.891,-3.113 3.84,-6.168 5.845,-9.169 1.362,-12.262 1.58,-24.463 0.731,-36.473 -2.155,3.189 -4.269,6.443 -6.324,9.771 0.695,5.635 1.057,11.384 1.057,17.195 -0.004,6.148 -0.505,12.613 -1.309,18.676"
     style="fill:#000000;fill-opacity:1;fill-rule:nonzero;stroke:none"
     id="path49155" />
  <path
     d="m 538.104,410.301 c 9.243,-4.034 18.348,-8.626 27.288,-13.786 26.748,-15.441 49.856,-34.769 69.022,-56.857 -28.713,5.553 -57.003,15.904 -83.751,31.344 -13.183,7.612 -25.483,16.165 -36.862,25.529 2.775,3.319 4.443,7.592 4.446,12.256 0.008,1.764 -0.152,3.446 -0.468,5.042 6.696,-1.395 13.473,-2.575 20.325,-3.528"
     style="fill:#000000;fill-opacity:1;fill-rule:nonzero;stroke:none"
     id="path49159" />
  <path
     d="m 510.96,393.767 c 2.465,-2.033 4.972,-4.032 7.521,-5.99 5.135,-7.031 9.948,-14.407 14.398,-22.116 13.916,-24.104 23.242,-49.599 28.248,-75.475 -19.907,17.274 -37.322,38.095 -51.239,62.201 -0.833,1.444 -1.651,2.894 -2.451,4.348 -0.241,1.134 -0.492,2.227 -0.746,3.275 -2.623,10.696 -7.155,18.772 -10.8,25.557 -1.068,1.967 -2.043,3.815 -2.888,5.576 1.838,-0.941 3.922,-1.47 6.13,-1.47 4.466,0.001 8.574,1.529 11.827,4.094"
     style="fill:#000000;fill-opacity:1;fill-rule:nonzero;stroke:none"
     id="path49163" />
  <path
     d="m 680.024,427.863 c -31.084,10.735 -64.458,16.566 -99.191,16.566 -22.09,0 -43.629,-2.36 -64.38,-6.839 -1.069,-2.503 -2.592,-4.667 -4.49,-6.396 -1.52,-1.396 -3.235,-2.5 -5.08,-3.331 1.845,-0.83 3.558,-1.934 5.08,-3.333 1.898,-1.729 3.421,-3.891 4.49,-6.393 20.751,-4.479 42.29,-6.839 64.38,-6.839 34.733,0 68.107,5.828 99.191,16.565"
     style="fill:#000000;fill-opacity:1;fill-rule:nonzero;stroke:none"
     id="path49167" />
  <path
     d="m 288.373,496.652 c -2.124,8.662 -3.846,21.084 -3.846,32.167 0,6.869 0.522,13.659 1.506,20.252 20.816,-15.424 34.306,-40.168 34.306,-68.064 0,-11.967 -2.484,-23.352 -6.96,-33.672 -1.438,-3.313 -1.946,-5.221 -4.914,-9.594 -2.616,-3.854 -8.827,-7.908 -14.428,-7.908 -9.448,0 -17.104,5.658 -17.104,17.104 0,8.377 6.792,15.174 15.172,15.174 5.264,0 9.529,-4.268 9.529,-9.526 0,-5.263 -4.331,-9.528 -9.529,-9.528 -1.998,0 -2.095,-2.923 0.164,-3.074 6.689,-0.45 13.269,5.148 13.272,12.579 0,13.345 -12.204,23.853 -17.168,44.09"
     style="fill:#000000;fill-opacity:1;fill-rule:nonzero;stroke:none"
     id="path49171" />
  <path
     d="m 193.132,476.394 c -8.695,1.193 -17.4,1.984 -26.039,2.349 -7.344,5.299 -14.397,10.948 -21.095,16.883 9.395,-0.566 18.811,-1.628 28.214,-3.202 6.017,-5.588 12.328,-10.94 18.92,-16.03"
     style="fill:#000000;fill-opacity:1;fill-rule:nonzero;stroke:none"
     id="path49175" />
  <path
     d="m 178.222,446.705 c -10.305,-1.074 -20.465,-2.651 -30.446,-4.716 -7.808,3.073 -15.435,6.476 -22.863,10.188 10.639,2.173 21.468,3.749 32.443,4.694 6.769,-3.656 13.728,-7.049 20.866,-10.166"
     style="fill:#000000;fill-opacity:1;fill-rule:nonzero;stroke:none"
     id="path49179" />
  <path
     d="m 270.975,547.967 c -3.498,4.888 -7.173,9.615 -11.008,14.169 3.979,-1.19 7.834,-2.664 11.539,-4.398 l -0.116,-1.672 c -0.192,-2.69 -0.331,-5.391 -0.415,-8.099"
     style="fill:#000000;fill-opacity:1;fill-rule:nonzero;stroke:none"
     id="path49183" />
  <path
     d="m 250.375,551.554 c -4.648,4.926 -9.474,9.636 -14.462,14.117 4.544,-0.013 9.004,-0.38 13.354,-1.081 l 0.058,-0.948 c 0.242,-4.026 0.592,-8.06 1.05,-12.088"
     style="fill:#000000;fill-opacity:1;fill-rule:nonzero;stroke:none"
     id="path49187" />
  <path
     d="m 229.667,549.655 c -5.67,4.585 -11.505,8.912 -17.477,12.964 4.389,1.211 9.039,2.091 13.972,2.588 l 0.081,-0.416 c 0.978,-5.063 2.118,-10.108 3.424,-15.136"
     style="fill:#000000;fill-opacity:1;fill-rule:nonzero;stroke:none"
     id="path49191" />
  <path
     d="m 210.165,542.347 c -6.362,3.852 -12.852,7.417 -19.444,10.695 4.009,2.565 8.308,4.821 12.932,6.688 1.954,-5.847 4.125,-11.646 6.512,-17.383"
     style="fill:#000000;fill-opacity:1;fill-rule:nonzero;stroke:none"
     id="path49195" />
  <path
     d="m 193.4,530.176 c -6.722,2.915 -13.52,5.536 -20.388,7.872 3.304,3.576 6.873,6.954 10.749,10.032 2.972,-6.062 6.185,-12.034 9.639,-17.904"
     style="fill:#000000;fill-opacity:1;fill-rule:nonzero;stroke:none"
     id="path49199" />
  <path
     d="m 179.901,514.628 c -6.917,1.954 -13.877,3.628 -20.864,5.022 2.603,4.098 5.427,8.14 8.511,12.02 3.878,-5.812 7.997,-11.5 12.353,-17.042"
     style="fill:#000000;fill-opacity:1;fill-rule:nonzero;stroke:none"
     id="path49203" />
  <path
     d="m 169.198,497.199 c -7.126,1.039 -14.242,1.792 -21.36,2.263 2.099,4.265 4.388,8.646 6.884,13.018 4.607,-5.254 9.431,-10.352 14.476,-15.281"
     style="fill:#000000;fill-opacity:1;fill-rule:nonzero;stroke:none"
     id="path49207" />
  <path
     d="m 114.32,433.066 c 2.039,3.505 5.013,8.751 8.712,15.645 5.86,-2.926 11.844,-5.669 17.948,-8.21 -9.044,-2.083 -17.939,-4.571 -26.66,-7.435"
     style="fill:#000000;fill-opacity:1;fill-rule:nonzero;stroke:none"
     id="path49211" />
  <path
     d="m 127.225,456.655 c 2.209,4.252 4.603,8.961 7.145,14.107 5.49,-3.692 11.128,-7.2 16.915,-10.516 -8.108,-0.861 -16.137,-2.063 -24.06,-3.591"
     style="fill:#000000;fill-opacity:1;fill-rule:nonzero;stroke:none"
     id="path49215" />
  <path
     d="m 160.197,478.934 c -1.611,0.026 -3.216,0.038 -4.824,0.038 -5.797,0.006 -11.569,-0.178 -17.313,-0.538 1.912,4.117 3.95,8.674 6.192,13.481 5.126,-4.505 10.444,-8.839 15.945,-12.981"
     style="fill:#000000;fill-opacity:1;fill-rule:nonzero;stroke:none"
     id="path49219" />
  <path
     d="m 211.185,503.688 c -8.135,3.412 -16.361,6.402 -24.659,8.976 -5.869,7.155 -11.322,14.563 -16.361,22.188 9.061,-3.024 18.013,-6.552 26.812,-10.585 4.381,-7.027 9.118,-13.893 14.208,-20.579"
     style="fill:#000000;fill-opacity:1;fill-rule:nonzero;stroke:none"
     id="path49223" />
  <path
     d="m 238.366,522.696 c -7.233,5.758 -14.693,11.094 -22.348,16.003 -3.261,7.375 -6.153,14.859 -8.677,22.424 8.338,-5.508 16.405,-11.539 24.146,-18.085 1.982,-6.834 4.275,-13.62 6.879,-20.342"
     style="fill:#000000;fill-opacity:1;fill-rule:nonzero;stroke:none"
     id="path49227" />
  <path
     d="m 271.474,525.926 c -5.172,7.221 -10.68,14.093 -16.488,20.601 -0.804,5.784 -1.377,11.573 -1.725,17.349 6.301,-7.114 12.19,-14.669 17.62,-22.656 0.008,-5.081 0.201,-10.177 0.593,-15.294"
     style="fill:#000000;fill-opacity:1;fill-rule:nonzero;stroke:none"
     id="path49231" />
  <path
     d="m 240.549,446.91 c -9.918,0.964 -19.974,1.459 -30.143,1.459 -8.015,0 -15.957,-0.311 -23.818,-0.91 -9.804,3.97 -19.278,8.464 -28.399,13.437 -7.615,4.156 -14.988,8.65 -22.096,13.454 20.936,1.484 42.293,0.57 63.715,-2.948 7.663,-5.558 15.689,-10.768 24.065,-15.604 5.497,-3.175 11.06,-6.136 16.676,-8.888"
     style="fill:#000000;fill-opacity:1;fill-rule:nonzero;stroke:none"
     id="path49235" />
  <path
     d="m 262.965,475.128 c -6.554,4.591 -13.363,8.93 -20.42,13.006 -7.796,4.5 -15.723,8.578 -23.752,12.229 -12.664,15.721 -23.273,32.552 -31.828,50.132 19.218,-9.351 37.54,-21.156 54.5,-35.424 3.897,-9.145 8.385,-18.153 13.482,-26.976 2.558,-4.433 5.234,-8.756 8.018,-12.967"
     style="fill:#000000;fill-opacity:1;fill-rule:nonzero;stroke:none"
     id="path49239" />
  <path
     d="m 281.897,510.144 c -1.891,3.112 -3.84,6.167 -5.846,9.167 -1.361,12.263 -1.58,24.464 -0.73,36.473 2.154,-3.186 4.269,-6.442 6.324,-9.77 -0.695,-5.635 -1.058,-11.386 -1.058,-17.195 0.004,-6.148 0.506,-12.612 1.31,-18.675"
     style="fill:#000000;fill-opacity:1;fill-rule:nonzero;stroke:none"
     id="path49243" />
  <path
     d="m 253.134,445.423 c -9.243,4.034 -18.348,8.626 -27.288,13.787 -26.748,15.44 -49.856,34.768 -69.022,56.856 28.713,-5.555 57.003,-15.903 83.751,-31.343 13.183,-7.612 25.483,-16.167 36.862,-25.532 -2.775,-3.317 -4.443,-7.59 -4.446,-12.254 -0.008,-1.764 0.152,-3.446 0.468,-5.042 -6.696,1.395 -13.473,2.575 -20.325,3.528"
     style="fill:#000000;fill-opacity:1;fill-rule:nonzero;stroke:none"
     id="path49247" />
  <path
     d="m 280.278,461.956 c -2.465,2.034 -4.972,4.031 -7.521,5.99 -5.135,7.032 -9.948,14.406 -14.398,22.117 -13.916,24.104 -23.242,49.596 -28.248,75.475 19.907,-17.275 37.322,-38.098 51.239,-62.202 0.833,-1.445 1.651,-2.893 2.451,-4.349 0.241,-1.132 0.492,-2.225 0.746,-3.273 2.623,-10.698 7.155,-18.774 10.8,-25.558 1.068,-1.968 2.043,-3.814 2.888,-5.577 -1.838,0.943 -3.922,1.471 -6.13,1.471 -4.466,0 -8.574,-1.528 -11.827,-4.094"
     style="fill:#000000;fill-opacity:1;fill-rule:nonzero;stroke:none"
     id="path49251" />
  <path
     d="m 288.373,359.071 c -2.124,-8.662 -3.846,-21.084 -3.846,-32.166 0,-6.869 0.522,-13.659 1.506,-20.255 20.816,15.426 34.306,40.171 34.306,68.067 0,11.965 -2.484,23.35 -6.96,33.67 -1.438,3.312 -1.946,5.222 -4.914,9.594 -2.616,3.857 -8.827,7.912 -14.428,7.912 -9.448,0 -17.104,-5.659 -17.104,-17.107 0,-8.379 6.792,-15.173 15.172,-15.173 5.264,0 9.529,4.266 9.529,9.526 0,5.264 -4.331,9.527 -9.529,9.527 -1.998,0 -2.095,2.921 0.164,3.075 6.689,0.45 13.269,-5.151 13.272,-12.578 0,-13.348 -12.204,-23.854 -17.168,-44.092"
     style="fill:#000000;fill-opacity:1;fill-rule:nonzero;stroke:none"
     id="path49255" />
  <path
     d="m 174.21,363.298 c -9.402,-1.575 -18.817,-2.636 -28.212,-3.2 6.696,5.933 13.75,11.583 21.094,16.883 8.64,0.364 17.344,1.154 26.038,2.348 -6.592,-5.091 -12.901,-10.444 -18.92,-16.031"
     style="fill:#000000;fill-opacity:1;fill-rule:nonzero;stroke:none"
     id="path49259" />
  <path
     d="m 157.356,398.853 c -10.974,0.942 -21.804,2.518 -32.443,4.693 7.428,3.713 15.055,7.113 22.863,10.187 9.982,-2.063 20.141,-3.643 30.446,-4.716 -7.137,-3.115 -14.097,-6.508 -20.866,-10.164"
     style="fill:#000000;fill-opacity:1;fill-rule:nonzero;stroke:none"
     id="path49263" />
  <path
     d="m 270.975,307.756 c -3.498,-4.89 -7.173,-9.614 -11.008,-14.168 3.979,1.189 7.834,2.664 11.539,4.397 l -0.116,1.672 c -0.192,2.691 -0.331,5.391 -0.415,8.099"
     style="fill:#000000;fill-opacity:1;fill-rule:nonzero;stroke:none"
     id="path49267" />
  <path
     d="m 250.375,304.17 c -4.648,-4.926 -9.474,-9.634 -14.462,-14.118 4.544,0.013 9.004,0.381 13.354,1.082 l 0.058,0.948 c 0.242,4.027 0.592,8.059 1.05,12.088"
     style="fill:#000000;fill-opacity:1;fill-rule:nonzero;stroke:none"
     id="path49271" />
  <path
     d="m 229.667,306.068 c -5.67,-4.587 -11.505,-8.912 -17.477,-12.964 4.389,-1.211 9.039,-2.092 13.972,-2.587 l 0.081,0.416 c 0.978,5.063 2.118,10.107 3.424,15.135"
     style="fill:#000000;fill-opacity:1;fill-rule:nonzero;stroke:none"
     id="path49275" />
  <path
     d="m 210.165,313.376 c -6.362,-3.854 -12.852,-7.419 -19.444,-10.696 4.009,-2.566 8.308,-4.82 12.932,-6.688 1.954,5.846 4.125,11.645 6.512,17.384"
     style="fill:#000000;fill-opacity:1;fill-rule:nonzero;stroke:none"
     id="path49279" />
  <path
     d="m 193.4,325.546 c -6.722,-2.913 -13.52,-5.533 -20.388,-7.872 3.304,-3.576 6.873,-6.952 10.749,-10.029 2.972,6.061 6.185,12.033 9.639,17.901"
     style="fill:#000000;fill-opacity:1;fill-rule:nonzero;stroke:none"
     id="path49283" />
  <path
     d="m 179.901,341.094 c -6.917,-1.955 -13.877,-3.628 -20.864,-5.02 2.603,-4.099 5.427,-8.143 8.511,-12.021 3.878,5.812 7.997,11.497 12.353,17.041"
     style="fill:#000000;fill-opacity:1;fill-rule:nonzero;stroke:none"
     id="path49287" />
  <path
     d="m 169.198,358.525 c -7.126,-1.039 -14.242,-1.792 -21.36,-2.263 2.099,-4.267 4.388,-8.647 6.884,-13.02 4.607,5.255 9.431,10.353 14.476,15.283"
     style="fill:#000000;fill-opacity:1;fill-rule:nonzero;stroke:none"
     id="path49291" />
  <path
     d="m 140.98,415.221 c -6.104,-2.542 -12.088,-5.282 -17.948,-8.211 -3.699,6.896 -6.674,12.14 -8.712,15.645 8.721,-2.864 17.616,-5.349 26.66,-7.434"
     style="fill:#000000;fill-opacity:1;fill-rule:nonzero;stroke:none"
     id="path49295" />
  <path
     d="m 151.285,395.478 c -5.787,-3.316 -11.425,-6.823 -16.915,-10.516 -2.542,5.147 -4.936,9.853 -7.145,14.108 7.923,-1.529 15.952,-2.731 24.06,-3.592"
     style="fill:#000000;fill-opacity:1;fill-rule:nonzero;stroke:none"
     id="path49299" />
  <path
     d="m 144.252,363.807 c -2.242,4.808 -4.28,9.366 -6.192,13.483 5.744,-0.359 11.516,-0.544 17.313,-0.54 1.608,0 3.213,0.013 4.824,0.04 -5.501,-4.144 -10.819,-8.477 -15.945,-12.983"
     style="fill:#000000;fill-opacity:1;fill-rule:nonzero;stroke:none"
     id="path49303" />
  <path
     d="m 196.976,331.455 c -8.799,-4.034 -17.751,-7.561 -26.811,-10.583 5.037,7.623 10.492,15.03 16.36,22.185 8.297,2.574 16.525,5.565 24.658,8.976 -5.089,-6.684 -9.826,-13.551 -14.207,-20.578"
     style="fill:#000000;fill-opacity:1;fill-rule:nonzero;stroke:none"
     id="path49307" />
  <path
     d="m 231.487,312.686 c -7.741,-6.549 -15.806,-12.58 -24.145,-18.088 2.523,7.566 5.415,15.051 8.676,22.427 7.656,4.909 15.115,10.244 22.348,16.002 -2.604,-6.722 -4.897,-13.507 -6.879,-20.341"
     style="fill:#000000;fill-opacity:1;fill-rule:nonzero;stroke:none"
     id="path49311" />
  <path
     d="m 270.879,314.504 c -5.428,-7.988 -11.317,-15.544 -17.62,-22.658 0.348,5.776 0.923,11.564 1.726,17.35 5.809,6.506 11.316,13.381 16.488,20.601 -0.392,-5.117 -0.586,-10.213 -0.594,-15.293"
     style="fill:#000000;fill-opacity:1;fill-rule:nonzero;stroke:none"
     id="path49315" />
  <path
     d="m 223.873,399.926 v 0 c -8.376,-4.836 -16.402,-10.049 -24.065,-15.605 -21.422,-3.519 -42.779,-4.432 -63.715,-2.95 7.108,4.806 14.48,9.298 22.096,13.454 9.121,4.976 18.595,9.468 28.399,13.44 7.861,-0.602 15.803,-0.91 23.817,-0.91 10.169,0 20.225,0.492 30.144,1.459 -5.616,-2.752 -11.179,-5.713 -16.676,-8.888"
     style="fill:#000000;fill-opacity:1;fill-rule:nonzero;stroke:none"
     id="path49319" />
  <path
     d="m 262.965,380.593 c -2.784,-4.211 -5.46,-8.534 -8.018,-12.966 -5.097,-8.824 -9.585,-17.83 -13.482,-26.977 -16.96,-14.266 -35.282,-26.072 -54.5,-35.424 8.555,17.58 19.164,34.411 31.828,50.132 8.029,3.652 15.956,7.731 23.752,12.231 7.057,4.074 13.866,8.414 20.42,13.004"
     style="fill:#000000;fill-opacity:1;fill-rule:nonzero;stroke:none"
     id="path49323" />
  <path
     d="m 280.586,326.904 v 0 c 0,-5.811 0.363,-11.56 1.057,-17.195 -2.054,-3.328 -4.169,-6.583 -6.322,-9.772 -0.851,12.011 -0.632,24.212 0.73,36.473 2.006,3.001 3.954,6.056 5.844,9.169 -0.802,-6.064 -1.305,-12.528 -1.309,-18.675"
     style="fill:#000000;fill-opacity:1;fill-rule:nonzero;stroke:none"
     id="path49327" />
  <path
     d="m 253.134,410.301 c -9.243,-4.034 -18.348,-8.626 -27.288,-13.787 -26.748,-15.441 -49.856,-34.769 -69.022,-56.857 28.713,5.553 57.003,15.904 83.751,31.344 13.183,7.612 25.483,16.165 36.862,25.529 -2.775,3.317 -4.443,7.591 -4.446,12.255 -0.008,1.764 0.152,3.448 0.468,5.042 -6.696,-1.393 -13.473,-2.576 -20.325,-3.526"
     style="fill:#000000;fill-opacity:1;fill-rule:nonzero;stroke:none"
     id="path49331" />
  <path
     d="m 292.105,389.671 v 0 c 2.208,0 4.292,0.53 6.13,1.472 -0.845,-1.762 -1.821,-3.61 -2.888,-5.577 -3.645,-6.785 -8.177,-14.861 -10.8,-25.557 -0.254,-1.047 -0.505,-2.142 -0.748,-3.275 -0.798,-1.455 -1.616,-2.904 -2.449,-4.348 -13.917,-24.105 -31.332,-44.928 -51.239,-62.2 5.006,25.875 14.332,51.371 28.247,75.473 4.451,7.71 9.264,15.087 14.399,22.116 2.548,1.959 5.056,3.958 7.521,5.991 3.253,-2.565 7.361,-4.093 11.827,-4.095"
     style="fill:#000000;fill-opacity:1;fill-rule:nonzero;stroke:none"
     id="path49335" />
  <path
     d="m 111.215,427.861 c 31.083,10.737 64.457,16.565 99.19,16.565 22.091,0 43.629,-2.36 64.38,-6.839 1.069,-2.502 2.592,-4.664 4.49,-6.393 1.52,-1.396 3.235,-2.5 5.08,-3.331 -1.845,-0.83 -3.558,-1.937 -5.08,-3.333 -1.898,-1.729 -3.421,-3.893 -4.49,-6.396 -20.751,-4.479 -42.289,-6.839 -64.38,-6.839 -34.733,0 -68.107,5.831 -99.19,16.566"
     style="fill:#000000;fill-opacity:1;fill-rule:nonzero;stroke:none"
     id="path49339" />
  <path
     d="m 313.185,418.049 c -0.414,0.677 -0.878,1.398 -1.411,2.18 -1.773,2.58 -4.352,4.83 -7.397,6.612 -0.632,0.364 -1.218,0.736 -1.887,1.052 0.623,0.296 1.296,0.648 1.887,0.986 3.045,1.782 5.624,4.031 7.397,6.615 2.629,3.844 3.625,6.292 4.637,8.737 8.924,3.651 17.023,9.403 23.812,16.711 12.109,13.038 19.603,30.844 19.576,49.046 0,88.669 -80.477,152.2 -80.477,152.2 H 407.44 V 310.784 c -1.209,-0.646 -2.56,-1.454 -4.152,-2.542 -2.577,-1.769 -4.822,-4.342 -6.598,-7.38 -0.382,-0.665 -0.742,-1.353 -1.07,-2.061 -0.33,0.708 -0.689,1.396 -1.072,2.063 -1.778,3.036 -4.021,5.609 -6.597,7.377 -1.592,1.089 -2.943,1.897 -4.152,2.541 v 199.206 c -0.025,-24.742 -9.94,-48.036 -25.976,-65.361 -11.827,-12.781 -27.232,-22.414 -44.638,-26.578"
     style="fill:#000000;fill-opacity:1;fill-rule:nonzero;stroke:none"
     id="path49343" />
  <path
     d="m 511.919,662.188 c 0,0 -80.477,-63.53 -80.477,-152.199 -0.028,-18.204 7.465,-36.008 19.574,-49.048 6.791,-7.307 14.888,-13.059 23.813,-16.711 1.011,-2.445 2.007,-4.891 4.636,-8.736 1.774,-2.581 4.354,-4.832 7.399,-6.612 0.589,-0.338 1.263,-0.69 1.885,-0.99 -0.669,-0.315 -1.253,-0.687 -1.885,-1.05 -3.045,-1.781 -5.625,-4.03 -7.399,-6.614 -0.532,-0.779 -0.997,-1.503 -1.409,-2.178 -17.406,4.163 -32.813,13.795 -44.64,26.576 -8.208,8.868 -14.812,19.308 -19.306,30.699 v 186.863 z"
     style="fill:#000000;fill-opacity:1;fill-rule:nonzero;stroke:none"
     id="path49347" />
</svg>
