<?xml version="1.0" encoding="UTF-8" standalone="no"?>
<!-- Created with Inkscape (http://www.inkscape.org/) -->

<svg
   version="1.1"
   id="svg1050"
   width="793.70135"
   height="793.70135"
   viewBox="0 0 793.70135 793.70135"
   sodipodi:docname="kikyou.svg"
   inkscape:version="1.2 (dc2aeda, 2022-05-15)"
   xmlns:inkscape="http://www.inkscape.org/namespaces/inkscape"
   xmlns:sodipodi="http://sodipodi.sourceforge.net/DTD/sodipodi-0.dtd"
   xmlns="http://www.w3.org/2000/svg"
   xmlns:svg="http://www.w3.org/2000/svg">
  <defs
     id="defs3824" />
  <sodipodi:namedview
     id="namedview1052"
     pagecolor="#ffffff"
     bordercolor="#000000"
     borderopacity="0.25"
     inkscape:showpageshadow="2"
     inkscape:pageopacity="0.0"
     inkscape:pagecheckerboard="0"
     inkscape:deskcolor="#d1d1d1"
     showgrid="false"
     inkscape:zoom="0.29734106"
     inkscape:cx="-756.70679"
     inkscape:cy="396.85067"
     inkscape:window-width="1419"
     inkscape:window-height="456"
     inkscape:window-x="0"
     inkscape:window-y="25"
     inkscape:window-maximized="0"
     inkscape:current-layer="svg1050">
    <inkscape:page
       x="0"
       y="0"
       id="page1056"
       width="793.70135"
       height="793.70135" />
  </sodipodi:namedview>
  <path
     d="m 444.88546,399.75467 c 0,26.52533 -21.50533,48.03067 -48.03333,48.03067 -26.528,0 -48.036,-21.50534 -48.036,-48.03067 0,-26.536 21.508,-48.04 48.036,-48.04 26.528,0 48.03333,21.504 48.03333,48.04"
     />
  <path
     d="m 427.16532,346.77227 82.27866,-113.24 c 14.58,-20.14133 19.90667,-38.808 19.91467,-55.40666 0,-12.87067 -3.22533,-24.528 -7.98133,-34.64 -11.628,-24.67333 -24.95734,-34.64 -65.05333,-63.613333 -33.984,-24.542666 -54.10934,-41.893333 -59.47334,-46.631999 -5.36666,4.738666 -25.49066,22.089333 -59.47599,46.631999 -40.096,28.973333 -53.42134,38.940003 -65.05334,63.613333 -4.76,10.112 -7.984,21.76933 -7.984,34.64 0.007,16.59866 5.332,35.26533 19.91867,55.40266 l 82.27866,113.244 c 7.12267,-4.084 15.152,-6.772 23.70667,-7.69467 v -61.68399 c 0.007,-3.65334 2.96,-6.596 6.61067,-6.6 3.64533,0.004 6.604,2.94666 6.61066,6.6 l 10e-4,61.68266 c 8.55466,0.92267 16.57866,3.612 23.70133,7.696"
     />
  <path
     d="m 355.83466,354.54894 -82.27333,-113.244 c -14.65067,-20.08933 -30.756,-30.92533 -46.54,-36.06133 -12.24133,-3.976 -24.324,-4.512 -35.41067,-3.11467 -27.06,3.436 -40.65866,13.03067 -80.60399,42.21067 -33.84267,24.73733 -56.562669,38.516 -62.728002,42.15333 2.849333,6.568 13.131999,31.07067 25.971999,70.976 15.165333,47.08533 20.525333,62.83867 40.396003,81.52533 8.14666,7.652 18.23733,14.32133 30.47733,18.3 15.78933,5.12 35.188,5.82533 58.848,-1.82533 l 133.12533,-43.25733 c -1.68267,-8.03467 -1.75734,-16.50134 0.008,-24.92267 l -58.664,-19.06133 c -3.472,-1.136 -5.35867,-4.85467 -4.236,-8.32667 1.13067,-3.46667 4.844,-5.37067 8.32133,-4.248 l 58.664,19.06 c 3.52133,-7.85067 8.55867,-14.652 14.644,-20.164"
     />
  <path
     d="m 341.18746,424.79254 -133.124,43.252 c -23.63466,7.72267 -38.91733,19.69333 -48.67866,33.12 -7.56534,10.41066 -11.808,21.73733 -13.90534,32.71333 -5.09466,26.79733 -0.17066,42.69467 15.23734,89.704 13.06933,39.83066 19.152,65.69466 20.70666,72.68266 7.12534,-0.68 33.60667,-2.888 75.52667,-2.76666 49.46666,0.12666 66.10533,-0.104 90.01866,-13.228 9.796,-5.38267 19.25734,-12.91867 26.82134,-23.332 9.75066,-13.432 16.416,-31.664 16.44933,-56.53067 l -0.001,-139.97733 c -8.16267,-0.884 -16.23867,-3.42666 -23.7,-7.70666 l -36.25867,49.90266 c -2.152,2.94933 -6.272,3.59467 -9.22667,1.45467 -2.948,-2.14934 -3.61066,-6.26534 -1.468,-9.22534 l 36.25334,-49.90533 c -6.37734,-5.77466 -11.288,-12.668 -14.65067,-20.15733"
     />
  <path
     d="m 403.46612,460.4292 -10e-4,139.97466 c 0.0427,24.864 6.704,43.096 16.456,56.52934 7.564,10.41333 17.024,17.94933 26.816,23.33466 23.91066,13.12667 40.55199,13.35467 90.02133,13.22667 41.91866,-0.12134 68.39866,2.08666 75.52266,2.76933 1.55733,-6.98667 7.64133,-32.85467 20.70933,-72.688 15.40667,-47.00666 20.33067,-62.9 15.23734,-89.7 -2.092,-10.97733 -6.33734,-22.30799 -13.90134,-32.71599 -9.76266,-13.42534 -25.04266,-25.39734 -48.67999,-33.11467 l -133.128,-43.25467 c -3.36133,7.49067 -8.27867,14.38534 -14.65467,20.16 l 36.256,49.904 c 2.14,2.95734 1.48267,7.07734 -1.46667,9.22534 -2.95466,2.14133 -7.07599,1.49733 -9.22933,-1.45734 l -36.25866,-49.89866 c -7.46267,4.28 -15.536,6.82 -23.69867,7.70533"
     />
  <path
     d="m 456.60412,412.21041 133.12533,43.256 c 23.65867,7.64133 43.05867,6.94133 58.84667,1.82 12.23999,-3.97733 22.33199,-10.648 30.47866,-18.29467 19.872,-18.68533 25.23333,-34.44 40.39867,-81.528 12.84,-39.90533 23.12133,-64.40533 25.96933,-70.97199 -6.16267,-3.64 -28.88533,-17.41867 -62.72933,-42.15467 -39.94533,-29.18 -53.54,-38.77333 -80.60133,-42.212 -11.08667,-1.40266 -23.17334,-0.86666 -35.41067,3.112 -15.78267,5.13467 -31.89333,15.96667 -46.536,36.064 l -82.27733,113.24533 c 6.08533,5.512 11.12267,12.31867 14.64533,20.16667 l 58.66534,-19.06 c 3.47466,-1.12134 7.188,0.77733 8.32,4.24666 1.12266,3.47067 -0.76267,7.19067 -4.23867,8.32667 l -58.66,19.064 c 1.764,8.42 1.68667,16.884 0.004,24.92"
     />
</svg>
