<?xml version="1.0" encoding="UTF-8" standalone="no"?>
<!-- Created with Inkscape (http://www.inkscape.org/) -->

<svg
   version="1.1"
   id="svg23048"
   width="795.03467"
   height="793.70135"
   viewBox="0 0 795.03467 793.70135"
   sodipodi:docname="kuroda-kanbee.svg"
   inkscape:version="1.2 (dc2aeda, 2022-05-15)"
   xmlns:inkscape="http://www.inkscape.org/namespaces/inkscape"
   xmlns:sodipodi="http://sodipodi.sourceforge.net/DTD/sodipodi-0.dtd"
   xmlns="http://www.w3.org/2000/svg"
   xmlns:svg="http://www.w3.org/2000/svg">
  <defs
     id="defs23052">
    <clipPath
       clipPathUnits="userSpaceOnUse"
       id="clipPath24788">
      <path
         d="M -531.1924,581.5885 H 65.083602 V -13.6875 H -531.1924 Z"
         id="path24790"
         style="stroke-width:0.999998" />
    </clipPath>
    <clipPath
       clipPathUnits="userSpaceOnUse"
       id="clipPath24794">
      <path
         d="M -528.0898,575.3815 H 68.186202 V -19.8945 H -528.0898 Z"
         id="path24796"
         style="stroke-width:0.999998" />
    </clipPath>
    <clipPath
       clipPathUnits="userSpaceOnUse"
       id="clipPath24800">
      <path
         d="m -262.8232,542.7428 h 596.276 v -595.276 h -596.276 z"
         id="path24802"
         style="stroke-width:0.999998" />
    </clipPath>
    <clipPath
       clipPathUnits="userSpaceOnUse"
       id="clipPath24806">
      <path
         d="M -536.6982,584.5729 H 59.577802 V -10.7031 H -536.6982 Z"
         id="path24808"
         style="stroke-width:0.999998" />
    </clipPath>
    <clipPath
       clipPathUnits="userSpaceOnUse"
       id="clipPath24812">
      <path
         d="m -368.0176,255.7936 h 596.276 v -595.276 h -596.276 z"
         id="path24814"
         style="stroke-width:0.999998" />
    </clipPath>
    <clipPath
       clipPathUnits="userSpaceOnUse"
       id="clipPath24818">
      <path
         d="m -225.8945,79.0441 h 596.276 v -595.276 h -596.276 z"
         id="path24820"
         style="stroke-width:0.999998" />
    </clipPath>
    <clipPath
       clipPathUnits="userSpaceOnUse"
       id="clipPath24824">
      <path
         d="m -46.8828,294.0455 h 596.276 v -595.276 h -596.276 z"
         id="path24826"
         style="stroke-width:0.999998" />
    </clipPath>
    <clipPath
       clipPathUnits="userSpaceOnUse"
       id="clipPath24830">
      <path
         d="M -557.4951,577.8502 H 38.780902 V -17.4258 H -557.4951 Z"
         id="path24832"
         style="stroke-width:0.999998" />
    </clipPath>
    <clipPath
       clipPathUnits="userSpaceOnUse"
       id="clipPath24836">
      <path
         d="M -538.2217,577.9479 H 58.054302 V -17.3281 H -538.2217 Z"
         id="path24838"
         style="stroke-width:0.999998" />
    </clipPath>
    <clipPath
       clipPathUnits="userSpaceOnUse"
       id="clipPath24842">
      <path
         d="m -369.0518,205.8121 h 596.276 v -595.276 h -596.276 z"
         id="path24844"
         style="stroke-width:0.999998" />
    </clipPath>
    <clipPath
       clipPathUnits="userSpaceOnUse"
       id="clipPath24849">
      <path
         d="M -576.3691,585.5885 H 19.906902 V -9.6875 H -576.3691 Z"
         id="path24851"
         style="stroke-width:0.999998" />
    </clipPath>
    <clipPath
       clipPathUnits="userSpaceOnUse"
       id="clipPath24855">
      <path
         d="m -363.2529,154.7076 h 596.276 v -595.276 h -596.276 z"
         id="path24857"
         style="stroke-width:0.999998" />
    </clipPath>
    <clipPath
       clipPathUnits="userSpaceOnUse"
       id="clipPath24861">
      <path
         d="M -586.5449,579.5026 H 9.7311024 V -15.7734 H -586.5449 Z"
         id="path24863"
         style="stroke-width:0.999998" />
    </clipPath>
    <clipPath
       clipPathUnits="userSpaceOnUse"
       id="clipPath24867">
      <path
         d="m -332.9209,117.3292 h 596.276 v -595.276 h -596.276 z"
         id="path24869"
         style="stroke-width:0.999998" />
    </clipPath>
    <clipPath
       clipPathUnits="userSpaceOnUse"
       id="clipPath24874">
      <path
         d="M -574.5459,585.8522 H 21.730102 V -9.4238 H -574.5459 Z"
         id="path24876"
         style="stroke-width:0.999998" />
    </clipPath>
    <clipPath
       clipPathUnits="userSpaceOnUse"
       id="clipPath24880">
      <path
         d="m -133.1904,116.5236 h 596.276 v -595.276 h -596.276 z"
         id="path24882"
         style="stroke-width:0.999998" />
    </clipPath>
    <clipPath
       clipPathUnits="userSpaceOnUse"
       id="clipPath24886">
      <path
         d="m -304.3555,549.6471 h 596.276 v -595.276 h -596.276 z"
         id="path24888"
         style="stroke-width:0.999998" />
    </clipPath>
    <clipPath
       clipPathUnits="userSpaceOnUse"
       id="clipPath24892">
      <path
         d="m -102.5586,142.4655 h 596.276 v -595.276 h -596.276 z"
         id="path24894"
         style="stroke-width:0.999998" />
    </clipPath>
    <clipPath
       clipPathUnits="userSpaceOnUse"
       id="clipPath24898">
      <path
         d="m -75.8135,174.9811 h 596.276 v -595.276 h -596.276 z"
         id="path24900"
         style="stroke-width:0.999998" />
    </clipPath>
    <clipPath
       clipPathUnits="userSpaceOnUse"
       id="clipPath24904">
      <path
         d="m -55.4492,211.3522 h 596.276 v -595.276 h -596.276 z"
         id="path24906"
         style="stroke-width:0.999998" />
    </clipPath>
    <clipPath
       clipPathUnits="userSpaceOnUse"
       id="clipPath24910">
      <path
         d="m -41.9707,249.0084 h 596.276 v -595.276 h -596.276 z"
         id="path24912"
         style="stroke-width:0.999998" />
    </clipPath>
    <clipPath
       clipPathUnits="userSpaceOnUse"
       id="clipPath24916">
      <path
         d="m -330.2617,296.3405 h 596.276 v -595.276 h -596.276 z"
         id="path24918"
         style="stroke-width:0.999998" />
    </clipPath>
    <clipPath
       clipPathUnits="userSpaceOnUse"
       id="clipPath24922">
      <path
         d="m -301.2402,258.4381 h 596.276 v -595.276 h -596.276 z"
         id="path24924"
         style="stroke-width:0.999998" />
    </clipPath>
    <clipPath
       clipPathUnits="userSpaceOnUse"
       id="clipPath24928">
      <path
         d="m -279.7441,96.7521 h 596.276 v -595.276 h -596.276 z"
         id="path24930"
         style="stroke-width:0.999998" />
    </clipPath>
    <clipPath
       clipPathUnits="userSpaceOnUse"
       id="clipPath24935">
      <path
         d="m -34.1191,291.0045 h 596.276 v -595.276 h -596.276 z"
         id="path24937"
         style="stroke-width:0.999998" />
    </clipPath>
    <clipPath
       clipPathUnits="userSpaceOnUse"
       id="clipPath24941">
      <path
         d="m -174.9121,93.4156 h 596.276 v -595.276 h -596.276 z"
         id="path24943"
         style="stroke-width:0.999998" />
    </clipPath>
    <clipPath
       clipPathUnits="userSpaceOnUse"
       id="clipPath24947">
      <path
         d="M -540.8213,585.8483 H 55.454702 V -9.4277 H -540.8213 Z"
         id="path24949"
         style="stroke-width:0.999998" />
    </clipPath>
    <clipPath
       clipPathUnits="userSpaceOnUse"
       id="clipPath24953">
      <path
         d="M -584.1943,578.9381 H 12.081702 V -16.3379 H -584.1943 Z"
         id="path24955"
         style="stroke-width:0.999998" />
    </clipPath>
    <clipPath
       clipPathUnits="userSpaceOnUse"
       id="clipPath24959">
      <path
         d="M -568.2266,575.819 H 28.049402 V -19.457 H -568.2266 Z"
         id="path24961"
         style="stroke-width:0.999998" />
    </clipPath>
    <clipPath
       clipPathUnits="userSpaceOnUse"
       id="clipPath24965">
      <path
         d="M -550.2637,577.3248 H 46.012302 V -17.9512 H -550.2637 Z"
         id="path24967"
         style="stroke-width:0.999998" />
    </clipPath>
    <clipPath
       clipPathUnits="userSpaceOnUse"
       id="clipPath24972">
      <path
         d="M -556.4014,578.0143 H 39.874602 V -17.2617 H -556.4014 Z"
         id="path24974"
         style="stroke-width:0.999998" />
    </clipPath>
    <clipPath
       clipPathUnits="userSpaceOnUse"
       id="clipPath24978">
      <path
         d="M -542.9326,584.5729 H 53.343402 V -10.7031 H -542.9326 Z"
         id="path24980"
         style="stroke-width:0.999998" />
    </clipPath>
    <clipPath
       clipPathUnits="userSpaceOnUse"
       id="clipPath24984">
      <path
         d="M -545.417,584.5729 H 50.859002 V -10.7031 H -545.417 Z"
         id="path24986"
         style="stroke-width:0.999998" />
    </clipPath>
    <clipPath
       clipPathUnits="userSpaceOnUse"
       id="clipPath24990">
      <path
         d="M -548.9834,585.8522 H 47.292602 V -9.4238 H -548.9834 Z"
         id="path24992"
         style="stroke-width:0.999998" />
    </clipPath>
    <clipPath
       clipPathUnits="userSpaceOnUse"
       id="clipPath24996">
      <path
         d="M -553.8975,585.8483 H 42.378502 V -9.4277 H -553.8975 Z"
         id="path24998"
         style="stroke-width:0.999998" />
    </clipPath>
    <clipPath
       clipPathUnits="userSpaceOnUse"
       id="clipPath25002">
      <path
         d="M -557.0645,585.8483 H 39.211502 V -9.4277 H -557.0645 Z"
         id="path25004"
         style="stroke-width:0.999998" />
    </clipPath>
    <clipPath
       clipPathUnits="userSpaceOnUse"
       id="clipPath25008">
      <path
         d="M -561.4131,585.8522 H 34.862902 V -9.4238 H -561.4131 Z"
         id="path25010"
         style="stroke-width:0.999998" />
    </clipPath>
    <clipPath
       clipPathUnits="userSpaceOnUse"
       id="clipPath25014">
      <path
         d="M -564.5732,585.8483 H 31.702802 V -9.4277 H -564.5732 Z"
         id="path25016"
         style="stroke-width:0.999998" />
    </clipPath>
    <clipPath
       clipPathUnits="userSpaceOnUse"
       id="clipPath25020">
      <path
         d="M -567.7754,585.8522 H 28.500602 V -9.4238 H -567.7754 Z"
         id="path25022"
         style="stroke-width:0.999998" />
    </clipPath>
    <clipPath
       clipPathUnits="userSpaceOnUse"
       id="clipPath25027">
      <path
         d="M -572.8174,586.1354 H 23.458602 V -9.1406 H -572.8174 Z"
         id="path25029"
         style="stroke-width:0.999998" />
    </clipPath>
    <clipPath
       clipPathUnits="userSpaceOnUse"
       id="clipPath25033">
      <path
         d="m -452.4141,190.0983 h 596.276 v -595.276 h -596.276 z"
         id="path25035"
         style="stroke-width:0.999998" />
    </clipPath>
    <clipPath
       clipPathUnits="userSpaceOnUse"
       id="clipPath25039">
      <path
         d="m -424.5693,117.9044 h 596.276 v -595.276 h -596.276 z"
         id="path25041"
         style="stroke-width:0.999998" />
    </clipPath>
    <clipPath
       clipPathUnits="userSpaceOnUse"
       id="clipPath25045">
      <path
         d="m -467.3662,98.068 h 596.276 v -595.276 h -596.276 z"
         id="path25047"
         style="stroke-width:0.999998" />
    </clipPath>
    <clipPath
       clipPathUnits="userSpaceOnUse"
       id="clipPath25051">
      <path
         d="m -377.8145,72.3156 h 596.276 v -595.276 h -596.276 z"
         id="path25053"
         style="stroke-width:0.999998" />
    </clipPath>
    <clipPath
       clipPathUnits="userSpaceOnUse"
       id="clipPath25057">
      <path
         d="m -318.4238,45.9864 h 596.276 v -595.276 h -596.276 z"
         id="path25059"
         style="stroke-width:0.999998" />
    </clipPath>
    <clipPath
       clipPathUnits="userSpaceOnUse"
       id="clipPath25063">
      <path
         d="m -312.6992,43.8468 h 596.276 v -595.276 h -596.276 z"
         id="path25065"
         style="stroke-width:0.999998" />
    </clipPath>
    <clipPath
       clipPathUnits="userSpaceOnUse"
       id="clipPath25069">
      <path
         d="m -115.7471,191.7389 h 596.276 v -595.276 h -596.276 z"
         id="path25071"
         style="stroke-width:0.999998" />
    </clipPath>
    <clipPath
       clipPathUnits="userSpaceOnUse"
       id="clipPath25075">
      <path
         d="m -53.1201,292.1373 h 596.276 v -595.276 h -596.276 z"
         id="path25077"
         style="stroke-width:0.999998" />
    </clipPath>
    <clipPath
       clipPathUnits="userSpaceOnUse"
       id="clipPath25081">
      <path
         d="m -62.1836,247.4664 h 596.276 v -595.276 h -596.276 z"
         id="path25083"
         style="stroke-width:0.999998" />
    </clipPath>
    <clipPath
       clipPathUnits="userSpaceOnUse"
       id="clipPath25087">
      <path
         d="m -84.0488,197.4381 h 596.276 v -595.276 h -596.276 z"
         id="path25089"
         style="stroke-width:0.999998" />
    </clipPath>
    <clipPath
       clipPathUnits="userSpaceOnUse"
       id="clipPath25093">
      <path
         d="m -116.9824,154.8971 h 596.276 v -595.276 h -596.276 z"
         id="path25095"
         style="stroke-width:0.999998" />
    </clipPath>
    <clipPath
       clipPathUnits="userSpaceOnUse"
       id="clipPath25099">
      <path
         d="m -424.4414,86.1593 h 596.276 v -595.276 h -596.276 z"
         id="path25101"
         style="stroke-width:0.999998" />
    </clipPath>
    <clipPath
       clipPathUnits="userSpaceOnUse"
       id="clipPath25105">
      <path
         d="m -163.5117,119.9786 h 596.276 v -595.276 h -596.276 z"
         id="path25107"
         style="stroke-width:0.999998" />
    </clipPath>
    <clipPath
       clipPathUnits="userSpaceOnUse"
       id="clipPath25111">
      <path
         d="m -224.4043,98.5431 h 596.276 v -595.276 h -596.276 z"
         id="path25113"
         style="stroke-width:0.999998" />
    </clipPath>
    <clipPath
       clipPathUnits="userSpaceOnUse"
       id="clipPath25117">
      <path
         d="m -266.3779,524.0358 h 596.276 v -595.276 h -596.276 z"
         id="path25119"
         style="stroke-width:0.999998" />
    </clipPath>
    <clipPath
       clipPathUnits="userSpaceOnUse"
       id="clipPath25123">
      <path
         d="m -184.4365,280.2799 h 596.276 v -595.276 h -596.276 z"
         id="path25125"
         style="stroke-width:0.999998" />
    </clipPath>
    <clipPath
       clipPathUnits="userSpaceOnUse"
       id="clipPath25132">
      <path
         d="m -425.6816,527.7438 h 596.276 v -595.276 h -596.276 z"
         id="path25134"
         style="stroke-width:0.999998" />
    </clipPath>
    <clipPath
       clipPathUnits="userSpaceOnUse"
       id="clipPath25138">
      <path
         d="m -184.1689,504.608 h 596.276 V -90.668 h -596.276 z"
         id="path25140"
         style="stroke-width:0.999998" />
    </clipPath>
    <clipPath
       clipPathUnits="userSpaceOnUse"
       id="clipPath25144">
      <path
         d="M -225.042,529.1862 H 371.234 V -66.0898 H -225.042 Z"
         id="path25146"
         style="stroke-width:0.999998" />
    </clipPath>
    <clipPath
       clipPathUnits="userSpaceOnUse"
       id="clipPath25150">
      <path
         d="m -346.0361,549.0973 h 596.276 v -595.276 h -596.276 z"
         id="path25152"
         style="stroke-width:0.999998" />
    </clipPath>
    <clipPath
       clipPathUnits="userSpaceOnUse"
       id="clipPath25156">
      <path
         d="m -385.3867,541.942 h 596.276 V -53.334 h -596.276 z"
         id="path25158"
         style="stroke-width:0.999998" />
    </clipPath>
    <clipPath
       clipPathUnits="userSpaceOnUse"
       id="clipPath25162">
      <path
         d="M -263.918,312.693 H 332.358 V -282.583 H -263.918 Z"
         id="path25164"
         style="stroke-width:0.999998" />
    </clipPath>
    <clipPath
       clipPathUnits="userSpaceOnUse"
       id="clipPath25168">
      <path
         d="m -134.6426,412.152 h 596.276 v -595.276 h -596.276 z"
         id="path25170"
         style="stroke-width:0.999998" />
    </clipPath>
    <clipPath
       clipPathUnits="userSpaceOnUse"
       id="clipPath25174">
      <path
         d="m -125.874,355.8112 h 596.276 v -595.276 h -596.276 z"
         id="path25176"
         style="stroke-width:0.999998" />
    </clipPath>
    <clipPath
       clipPathUnits="userSpaceOnUse"
       id="clipPath25180">
      <path
         d="m -143.0781,310.8541 h 596.276 v -595.276 h -596.276 z"
         id="path25182"
         style="stroke-width:0.999998" />
    </clipPath>
    <clipPath
       clipPathUnits="userSpaceOnUse"
       id="clipPath25186">
      <path
         d="m -421.9336,515.1696 h 596.276 v -595.276 h -596.276 z"
         id="path25188"
         style="stroke-width:0.999998" />
    </clipPath>
    <clipPath
       clipPathUnits="userSpaceOnUse"
       id="clipPath25192">
      <path
         d="m -146.2314,467.6412 h 596.276 v -595.276 h -596.276 z"
         id="path25194"
         style="stroke-width:0.999998" />
    </clipPath>
    <clipPath
       clipPathUnits="userSpaceOnUse"
       id="clipPath25198">
      <path
         d="m -228.2393,256.1842 h 596.276 v -595.276 h -596.276 z"
         id="path25200"
         style="stroke-width:0.999998" />
    </clipPath>
    <clipPath
       clipPathUnits="userSpaceOnUse"
       id="clipPath25204">
      <path
         d="m -129.1475,215.943 h 596.276 v -595.276 h -596.276 z"
         id="path25206"
         style="stroke-width:0.999998" />
    </clipPath>
    <clipPath
       clipPathUnits="userSpaceOnUse"
       id="clipPath25210">
      <path
         d="m -80.5479,276.1539 h 596.276 v -595.276 h -596.276 z"
         id="path25212"
         style="stroke-width:0.999998" />
    </clipPath>
    <clipPath
       clipPathUnits="userSpaceOnUse"
       id="clipPath25216">
      <path
         d="m -64.4443,339.4391 h 596.276 v -595.276 h -596.276 z"
         id="path25218"
         style="stroke-width:0.999998" />
    </clipPath>
    <clipPath
       clipPathUnits="userSpaceOnUse"
       id="clipPath25222">
      <path
         d="m -71.3379,404.0377 h 596.276 v -595.276 h -596.276 z"
         id="path25224"
         style="stroke-width:0.999998" />
    </clipPath>
    <clipPath
       clipPathUnits="userSpaceOnUse"
       id="clipPath25228">
      <path
         d="m -72.3477,410.0651 h 596.276 v -595.276 h -596.276 z"
         id="path25230"
         style="stroke-width:0.999998" />
    </clipPath>
    <clipPath
       clipPathUnits="userSpaceOnUse"
       id="clipPath25234">
      <path
         d="m -298.9014,506.6842 h 596.276 v -595.276 h -596.276 z"
         id="path25236"
         style="stroke-width:0.999998" />
    </clipPath>
    <clipPath
       clipPathUnits="userSpaceOnUse"
       id="clipPath25240">
      <path
         d="m -417.1621,510.7223 h 596.276 v -595.276 h -596.276 z"
         id="path25242"
         style="stroke-width:0.999998" />
    </clipPath>
    <clipPath
       clipPathUnits="userSpaceOnUse"
       id="clipPath25246">
      <path
         d="m -373.9443,525.2086 h 596.276 v -595.276 h -596.276 z"
         id="path25248"
         style="stroke-width:0.999998" />
    </clipPath>
    <clipPath
       clipPathUnits="userSpaceOnUse"
       id="clipPath25252">
      <path
         d="m -319.6865,531.2867 h 596.276 v -595.276 h -596.276 z"
         id="path25254"
         style="stroke-width:0.999998" />
    </clipPath>
    <clipPath
       clipPathUnits="userSpaceOnUse"
       id="clipPath25258">
      <path
         d="M -212.873,501.1989 H 383.403 V -94.0771 H -212.873 Z"
         id="path25260"
         style="stroke-width:0.999998" />
    </clipPath>
    <clipPath
       clipPathUnits="userSpaceOnUse"
       id="clipPath25264">
      <path
         d="m -163.8633,459.1822 h 596.276 v -595.276 h -596.276 z"
         id="path25266"
         style="stroke-width:0.999998" />
    </clipPath>
    <clipPath
       clipPathUnits="userSpaceOnUse"
       id="clipPath25270">
      <path
         d="m -341.2354,402.9274 h 596.276 v -595.276 h -596.276 z"
         id="path25272"
         style="stroke-width:0.999998" />
    </clipPath>
    <clipPath
       clipPathUnits="userSpaceOnUse"
       id="clipPath25279">
      <path
         d="m -434.9229,70.2706 h 596.276 v -595.276 h -596.276 z"
         id="path25281"
         style="stroke-width:0.999998" />
    </clipPath>
    <clipPath
       clipPathUnits="userSpaceOnUse"
       id="clipPath25285">
      <path
         d="M -535.6436,290.9947 H 60.632402 v -595.276 H -535.6436 Z"
         id="path25287"
         style="stroke-width:0.999998" />
    </clipPath>
    <clipPath
       clipPathUnits="userSpaceOnUse"
       id="clipPath25291">
      <path
         d="M -536.4922,243.3092 H 59.783802 v -595.276 H -536.4922 Z"
         id="path25293"
         style="stroke-width:0.999998" />
    </clipPath>
    <clipPath
       clipPathUnits="userSpaceOnUse"
       id="clipPath25297">
      <path
         d="M -529.3418,203.8112 H 66.934202 v -595.276 H -529.3418 Z"
         id="path25299"
         style="stroke-width:0.999998" />
    </clipPath>
    <clipPath
       clipPathUnits="userSpaceOnUse"
       id="clipPath25303">
      <path
         d="M -514.5547,164.3912 H 81.721302 v -595.276 H -514.5547 Z"
         id="path25305"
         style="stroke-width:0.999998" />
    </clipPath>
    <clipPath
       clipPathUnits="userSpaceOnUse"
       id="clipPath25309">
      <path
         d="m -493.2383,128.569 h 596.276 v -595.276 h -596.276 z"
         id="path25311"
         style="stroke-width:0.999998" />
    </clipPath>
    <clipPath
       clipPathUnits="userSpaceOnUse"
       id="clipPath25315">
      <path
         d="m -329.5654,317.8883 h 596.276 v -595.276 h -596.276 z"
         id="path25317"
         style="stroke-width:0.999998" />
    </clipPath>
    <clipPath
       clipPathUnits="userSpaceOnUse"
       id="clipPath25321">
      <path
         d="m -480.3369,380.1139 h 596.276 v -595.276 h -596.276 z"
         id="path25323"
         style="stroke-width:0.999998" />
    </clipPath>
    <clipPath
       clipPathUnits="userSpaceOnUse"
       id="clipPath25327">
      <path
         d="m -435.9287,415.8785 h 596.276 v -595.276 h -596.276 z"
         id="path25329"
         style="stroke-width:0.999998" />
    </clipPath>
    <clipPath
       clipPathUnits="userSpaceOnUse"
       id="clipPath25333">
      <path
         d="m -388.3926,423.4576 h 596.276 v -595.276 h -596.276 z"
         id="path25335"
         style="stroke-width:0.999998" />
    </clipPath>
    <clipPath
       clipPathUnits="userSpaceOnUse"
       id="clipPath25339">
      <path
         d="m -425.9072,79.8033 h 596.276 v -595.276 h -596.276 z"
         id="path25341"
         style="stroke-width:0.999998" />
    </clipPath>
    <clipPath
       clipPathUnits="userSpaceOnUse"
       id="clipPath25345">
      <path
         d="M -522.5977,342.3336 H 73.678302 v -595.276 H -522.5977 Z"
         id="path25347"
         style="stroke-width:0.999998" />
    </clipPath>
    <clipPath
       clipPathUnits="userSpaceOnUse"
       id="clipPath25351">
      <path
         d="m -298.4668,377.0406 h 596.276 v -595.276 h -596.276 z"
         id="path25353"
         style="stroke-width:0.999998" />
    </clipPath>
    <clipPath
       clipPathUnits="userSpaceOnUse"
       id="clipPath25357">
      <path
         d="m -313.1621,482.9772 h 596.276 v -595.276 h -596.276 z"
         id="path25359"
         style="stroke-width:0.999998" />
    </clipPath>
    <clipPath
       clipPathUnits="userSpaceOnUse"
       id="clipPath25363">
      <path
         d="m -389.6064,494.9606 h 596.276 v -595.276 h -596.276 z"
         id="path25365"
         style="stroke-width:0.999998" />
    </clipPath>
    <clipPath
       clipPathUnits="userSpaceOnUse"
       id="clipPath25369">
      <path
         d="m -452.4648,477.2643 h 596.276 v -595.276 h -596.276 z"
         id="path25371"
         style="stroke-width:0.999998" />
    </clipPath>
    <clipPath
       clipPathUnits="userSpaceOnUse"
       id="clipPath25375">
      <path
         d="M -504.9619,438.9947 H 91.314102 v -595.276 H -504.9619 Z"
         id="path25377"
         style="stroke-width:0.999998" />
    </clipPath>
    <clipPath
       clipPathUnits="userSpaceOnUse"
       id="clipPath25381">
      <path
         d="M -509.6768,435.1061 H 86.599202 v -595.276 H -509.6768 Z"
         id="path25383"
         style="stroke-width:0.999998" />
    </clipPath>
    <clipPath
       clipPathUnits="userSpaceOnUse"
       id="clipPath25387">
      <path
         d="m -480.0752,190.5953 h 596.276 v -595.276 h -596.276 z"
         id="path25389"
         style="stroke-width:0.999998" />
    </clipPath>
    <clipPath
       clipPathUnits="userSpaceOnUse"
       id="clipPath25393">
      <path
         d="m -458.5957,116.3439 h 596.276 v -595.276 h -596.276 z"
         id="path25395"
         style="stroke-width:0.999998" />
    </clipPath>
    <clipPath
       clipPathUnits="userSpaceOnUse"
       id="clipPath25399">
      <path
         d="m -490.9883,160.2936 h 596.276 v -595.276 h -596.276 z"
         id="path25401"
         style="stroke-width:0.999998" />
    </clipPath>
    <clipPath
       clipPathUnits="userSpaceOnUse"
       id="clipPath25405">
      <path
         d="M -511.3633,210.0856 H 84.912702 v -595.276 H -511.3633 Z"
         id="path25407"
         style="stroke-width:0.999998" />
    </clipPath>
    <clipPath
       clipPathUnits="userSpaceOnUse"
       id="clipPath25411">
      <path
         d="M -518.3389,267.8414 H 77.937102 v -595.276 H -518.3389 Z"
         id="path25413"
         style="stroke-width:0.999998" />
    </clipPath>
    <clipPath
       clipPathUnits="userSpaceOnUse"
       id="clipPath25417">
      <path
         d="M -506.4561,331.2936 H 89.819902 v -595.276 H -506.4561 Z"
         id="path25419"
         style="stroke-width:0.999998" />
    </clipPath>
  </defs>
  <sodipodi:namedview
     id="namedview23050"
     pagecolor="#ffffff"
     bordercolor="#000000"
     borderopacity="0.25"
     inkscape:showpageshadow="2"
     inkscape:pageopacity="0.0"
     inkscape:pagecheckerboard="0"
     inkscape:deskcolor="#d1d1d1"
     showgrid="false"
     inkscape:zoom="0.29734106"
     inkscape:cx="-215.24105"
     inkscape:cy="396.85068"
     inkscape:window-width="1419"
     inkscape:window-height="456"
     inkscape:window-x="0"
     inkscape:window-y="25"
     inkscape:window-maximized="0"
     inkscape:current-layer="svg23048">
    <inkscape:page
       x="0"
       y="0"
       id="page23054"
       width="795.03467"
       height="793.70135" />
  </sodipodi:namedview>
  <path
     d="m 492.068,274.417 c -0.864,-0.923 -2.08,-1.86 -3.677,-2.283 -3.596,-0.952 -7.487,1.834 -7.487,1.834 0,0 -3.167,-6.446 -9.807,-6.446 -6.669,0 -9.567,6.654 -9.567,6.654 0,0 -4.292,-2.208 -8.834,-0.916 -4.542,1.292 -7.256,6.193 -7.256,6.193 0.632,4.904 0.958,9.901 0.958,14.975 0.002,22.206 -6.247,43.021 -17.074,60.679 l -0.18,0.288 c 1.655,1.315 3.224,2.728 4.702,4.235 8.585,-5.209 16.497,-11.437 23.576,-18.511 17.803,-17.818 30.203,-40.829 34.646,-66.702"
     style="fill:#000000;fill-opacity:1;fill-rule:nonzero;stroke:none"
     id="path23168" />
  <path
     d="M 509.62,286.515 Z"
     style="fill:#000000;fill-opacity:1;fill-rule:nonzero;stroke:none"
     id="path23172" />
  <path
     d="M 505.083,226.895 Z"
     style="fill:#000000;fill-opacity:1;fill-rule:nonzero;stroke:none"
     id="path23176" />
  <path
     d="M 318.576,114.889 Z"
     style="fill:#000000;fill-opacity:1;fill-rule:nonzero;stroke:none"
     id="path23180" />
  <path
     d="m 45.492,388.006 c 1.7027,-15.917 4.38,-31.34 7.9667,-46.228 -4.6547,1.775 -9.5133,3.179 -13.9787,4.271 0,0 -4.072,1.253 -4.6266,7.586 -0.556,6.334 4.496,8.555 4.496,8.555 0,0 -5.744,2.548 -6.0773,9.436 -0.3334,6.891 4.6333,10.008 4.6333,10.008 0,0 -5.2507,3.216 -5.3613,10.327 -0.1107,7.11 3.1759,10.026 3.1759,10.026 2.8387,-5.733 6.4227,-10.462 9.772,-13.981"
     style="fill:#000000;fill-opacity:1;fill-rule:nonzero;stroke:none"
     id="path23184" />
  <path
     d="m 233.215,124.556 c 18.4,-7.721 37.574,-13.545 57.251,-17.327 -5.181,-4.28 -10.735,-9.6516 -16.249,-16.3436 -5.527,-6.7173 -10.542,-13.8266 -14.9,-20.5813 0,0 -5.146,-7.0199 -13.368,-3.7426 -8.164,3.256 -6.686,10.9226 -6.686,10.9226 0,0 -5.798,-5.8026 -14.241,-1.5666 -8.441,4.2373 -6.428,11.9013 -6.428,11.9013 0,0 -6.512,-5.6627 -15.255,-0.2374 -7.497,4.6534 -4.151,11.7133 -4.151,11.7133 3.281,3.3483 6.794,6.7363 10.486,10.0243 6.627,5.928 15.445,11.154 23.541,15.237"
     style="fill:#000000;fill-opacity:1;fill-rule:nonzero;stroke:none"
     id="path23188" />
  <path
     d="m 177.586,155.367 c 14.644,-10.312 30.129,-19.243 46.264,-26.688 -6.763,-3.747 -13.683,-8.242 -19.496,-13.387 -3.916,-3.491 -7.625,-7.071 -11.072,-10.596 0,0 -8.256,-5.7026 -13.868,-1.619 -5.614,4.084 -2.482,11.64 -2.482,11.64 0,0 -7.335,-4.537 -13.335,0.352 -6,4.888 -2.249,12.899 -2.249,12.899 0,0 -8.058,-4.481 -13.28,0.629 -5.222,5.112 -0.471,12.671 -0.471,12.671 4.333,3.257 9.189,6.331 14.421,8.731 5.178,2.39 10.51,4.12 15.568,5.368"
     style="fill:#000000;fill-opacity:1;fill-rule:nonzero;stroke:none"
     id="path23192" />
  <path
     d="m 136.745,189.956 c 10.247,-10.369 21.155,-19.917 32.625,-28.589 -3.525,-1.112 -7.12,-2.462 -10.694,-4.099 -6.924,-3.205 -13.118,-7.333 -18.407,-11.56 0,0 -6.665,-3.063 -10.999,1.827 -4.333,4.889 -0.81,9.1 -0.81,9.1 0,0 -5.988,-1.523 -9.89,3.021 -4.69,5.465 -1.221,10.645 -1.221,10.645 0,0 -6.756,-1.09 -10.868,4.464 -4.112,5.556 0.395,10.207 0.395,10.207 5.145,1.473 10.649,2.804 16.128,3.716 4.681,0.78 9.334,1.157 13.741,1.268"
     style="fill:#000000;fill-opacity:1;fill-rule:nonzero;stroke:none"
     id="path23196" />
  <path
     d="m 101.084,233.309 c 8.668,-12.732 18.166,-24.667 28.388,-35.741 -2.526,-0.224 -5.113,-0.546 -7.782,-0.991 -6.363,-1.065 -12.658,-2.628 -18.423,-4.325 0,0 -7.7106,-2.467 -11.1332,2.845 -3.2467,5.039 0.448,9.092 0.448,9.092 0,0 -5.46,-1.396 -8.844,4.331 -3.384,5.728 1.0467,9.55 1.0467,9.55 0,0 -6.5614,-0.233 -9.628,5.676 -3.4573,6.662 3.1146,9.879 3.1146,9.879 3.0374,0.236 6.2627,0.377 9.6293,0.377 4.6747,0.002 9.116,-0.274 13.1836,-0.693"
     style="fill:#000000;fill-opacity:1;fill-rule:nonzero;stroke:none"
     id="path23200" />
  <path
     d="m 73.9321,281.804 c 6.3346,-14.036 13.6239,-27.402 21.6386,-40.028 -2.4853,0.142 -5.0107,0.222 -7.6693,0.224 -5.4107,-0.002 -10.46,-0.34 -14.9986,-0.85 0,0 -6.1774,-0.88 -8.2347,3.954 -2.0707,4.869 1.8467,8.864 1.8467,8.864 0,0 -5.6254,-0.167 -7.9587,5.5 -2.3333,5.666 3.1253,9.833 3.1253,9.833 0,0 -6.8066,-0.359 -8.9733,5.808 -2.1666,6.167 2.9747,9.391 2.9747,9.391 2.2613,-0.12 4.6626,-0.292 7.2013,-0.527 3.5573,-0.319 7.372,-1.136 11.048,-2.169"
     style="fill:#000000;fill-opacity:1;fill-rule:nonzero;stroke:none"
     id="path23204" />
  <path
     d="m 55.9608,332.011 c 3.86,-14.205 8.552,-27.897 14.0066,-41.029 -2.1106,0.423 -4.2413,0.754 -6.3493,0.956 -4.3613,0.403 -8.3413,0.631 -11.9386,0.732 0,0 -5.0613,1.394 -6.228,5.727 -1.1667,4.333 2.7866,7.904 2.7866,7.904 0,0 -5.1613,1.328 -6.3279,6.161 -1.1667,4.834 3.412,8.588 3.412,8.588 0,0 -5.6307,1.222 -6.5654,6.565 -1.4093,8.052 2.9454,9.591 2.9454,9.591 4.9173,-1.371 9.9826,-3.104 14.2586,-5.195"
     style="fill:#000000;fill-opacity:1;fill-rule:nonzero;stroke:none"
     id="path23208" />
  <path
     d="m 440.348,395.122 c 0,23.579 -19.114,42.693 -42.694,42.693 -23.578,0 -42.694,-19.114 -42.694,-42.693 0,-23.58 19.116,-42.695 42.694,-42.695 23.58,0 42.694,19.115 42.694,42.695"
     style="fill:#000000;fill-opacity:1;fill-rule:nonzero;stroke:none"
     id="path23212" />
  <path
     d="m 401.652,344.585 v -75.061 c 0,-16.446 -1.79,-42.304 -4,-42.304 -2.209,0 -3.998,25.858 -3.998,42.304 v 75.061 c -7.534,0.589 -14.604,2.825 -20.852,6.346 -10.083,-16.449 -15.894,-35.795 -15.894,-56.503 0,-34.262 15.911,-64.807 40.746,-84.65 24.834,19.844 40.744,50.39 40.744,84.65 0,20.704 -5.815,40.05 -15.892,56.501 -6.247,-3.522 -13.32,-5.755 -20.854,-6.344"
     style="fill:#000000;fill-opacity:1;fill-rule:nonzero;stroke:none"
     id="path23216" />
  <path
     d="m 372.991,129.004 c -1.284,0.915 -2.616,1.896 -3.975,2.939 -9.688,7.414 -20.684,18.078 -26.182,30.389 -3.579,7.951 -5.354,16.36 -6.046,24.297 0,0 -2.106,12.579 7.56,13.328 8.175,0.636 11.5,-7.656 11.5,-7.656 0,0 0.415,9.055 8.499,10.555 8.083,1.5 11.501,-6.471 11.501,-6.471 0,0 -0.546,8.375 6.704,10.624 7.25,2.251 13.252,-8.561 13.252,-8.561 0.544,-3.679 1.335,-7.209 3.25,-10.212 2.596,-4.02 5.11,-6.368 7.092,-7.721 -0.082,-0.738 -0.138,-1.575 -0.14,-2.49 -0.028,-3.884 1.102,-9.552 6.002,-13.894 4.215,-3.75 9.15,-4.728 12.899,-4.715 1.208,0.003 2.316,0.096 3.288,0.231 0.12,-0.278 0.253,-0.56 0.4,-0.851 1.244,-2.5 3.597,-5.403 7.497,-7.673 -18.348,-11.618 -39.848,-19.34 -63.101,-22.119"
     style="fill:#000000;fill-opacity:1;fill-rule:nonzero;stroke:none"
     id="path23220" />
  <path
     d="m 443.894,156.44 c -1.506,0.289 -3.272,0.893 -4.907,2.111 -3.916,2.917 -4.816,9.417 -4.816,9.417 0,0 -9.684,-2.917 -15.6,2.5 -6.205,5.683 -3.996,14.163 -3.996,14.163 0,0 -4.504,2.004 -8.088,6.92 -3.583,4.917 -3.195,12.498 -3.195,12.498 7.796,6.317 14.759,13.628 20.698,21.741 0.802,-2.601 2.018,-5.158 4.094,-7.289 3.826,-3.773 7.886,-5.156 10.934,-5.372 0.172,-1.133 -0.364,-8.457 8.302,-13.643 8.667,-5.185 18.29,0.838 18.592,1.034 1.661,-1.502 4.065,-3.204 7.195,-4.164 1.153,-0.332 2.314,-0.468 3.436,-0.468 0.958,0.012 1.889,0.109 2.793,0.269 -5.828,-10.462 -13.253,-19.965 -21.989,-28.406 -4.191,-4.036 -8.687,-7.814 -13.453,-11.311"
     style="fill:#000000;fill-opacity:1;fill-rule:nonzero;stroke:none"
     id="path23224" />
  <path
     d="m 484.336,206.278 c -1.852,-1.309 -4.892,-2.905 -8.265,-2.396 -5.5,0.83 -8.5,5.92 -8.5,5.92 0,0 -7.251,-6.417 -15.409,-2.666 -8.355,3.84 -7.008,13.916 -7.008,13.916 0,0 -5.944,-1.058 -10.528,2.388 -4.586,3.445 -4.259,11.109 -4.336,11.888 0.442,0.75 0.876,1.521 1.302,2.281 1.562,2.86 2.768,5.129 3.874,7.536 3.698,7.895 6.537,16.275 8.394,25.015 1.818,-1.45 3.936,-2.884 6.388,-3.754 1.895,-0.649 3.73,-0.853 5.347,-0.857 1.272,0.007 2.419,0.131 3.384,0.295 0.417,-0.534 0.911,-1.107 1.488,-1.692 2.139,-2.183 5.751,-4.63 10.63,-4.627 4.559,-0.015 8.048,1.821 10.198,3.617 0.556,0.462 1.034,0.918 1.444,1.347 0.938,-0.129 1.869,-0.185 2.78,-0.187 1.608,0 3.146,0.174 4.564,0.479 1.169,0.268 2.213,0.677 3.153,1.163 0.432,-4.228 0.653,-8.522 0.655,-12.867 -0.026,-16.975 -3.41,-32.645 -9.555,-46.799"
     style="fill:#000000;fill-opacity:1;fill-rule:nonzero;stroke:none"
     id="path23228" />
  <path
     d="m 62.5102,392.061 c 4.9974,6.25 11.4,20.041 8.8,34.353 -2.224,12.241 -7.748,22.344 -14.2199,27.452 2.9813,10.585 5.8479,21.446 7.8999,32.45 0.8774,4.702 1.6654,9.439 2.3667,14.211 0.588,4.009 1.1133,8.045 1.5733,12.093 1.4827,13.05 2.1854,26.226 2.232,39.211 C 55.8209,530.15 46.517,503.842 45.773,475.306 c -0.1987,-7.622 0.2173,-15.12 1.2093,-22.439 -5.348,-6.276 -8.7867,-17.265 -8.572,-29.706 0.2427,-14.067 8.652,-26.01 14.744,-31.439 7.8106,-78.83 40.0599,-145.192 86.8237,-193.626 53.997,-55.945 127.337,-88.009 204.505,-88.009 8.399,0 16.841,0.381 25.313,1.149 38.553,3.511 73.835,19.264 99.575,44.029 25.739,24.742 41.875,58.627 41.855,97.809 -0.001,51.09 -27.003,95.867 -67.517,120.841 -1.312,-2.844 -2.882,-5.549 -4.676,-8.081 8.742,-5.413 16.808,-11.819 24.046,-19.056 23.989,-23.993 38.811,-57.094 38.814,-93.704 -0.019,-36.592 -14.917,-67.882 -38.997,-91.085 -24.073,-23.18 -57.385,-38.136 -93.948,-41.454 -8.187,-0.748 -16.346,-1.112 -24.465,-1.112 -138.92,0.049 -265.3088,107.425 -281.9728,272.638"
     style="fill:#000000;fill-opacity:1;fill-rule:nonzero;stroke:none"
     id="path23232" />
  <path
     d="m 301.191,105.393 c 14.236,-2.18 28.688,-3.309 43.292,-3.309 4.641,0 9.297,0.115 13.964,0.343 -4.895,-6.6536 -10.217,-15.1056 -14.748,-25.1522 -3.48,-7.7453 -6.145,-15.56 -8.179,-22.8586 0,0 -2.188,-9.8253 -11.513,-8.6373 -9.326,1.188 -10.549,9.8546 -10.549,9.8546 0,0 -2.468,-7.936 -12.789,-5.8013 -10.322,2.1347 -9.878,10.58 -9.878,10.58 0,0 -5.218,-7.0987 -15.22,-4.216 -10.001,2.8826 -6.966,13.6693 -6.966,13.6693 3.582,5.34 7.544,10.7839 11.785,15.9346 7.263,8.8173 14.551,15.1369 20.801,19.5929"
     style="fill:#000000;fill-opacity:1;fill-rule:nonzero;stroke:none"
     id="path23236" />
  <path
     d="m 490.689,341.059 c -11.833,16.29 -26.865,30.102 -44.174,40.516 0.557,2.012 0.988,4.022 1.295,6.128 l 0.328,-0.008 c 20.707,-0.55 41.858,4.45 61.09,15.556 18.253,10.538 32.58,25.295 42.447,42.326 0.245,0.09 0.521,0.188 0.833,0.288 0,0 7.059,2.662 13.765,-5.736 6.706,-8.398 2.52,-22.828 2.52,-22.828 0,0 14.392,-1.714 19.059,-11.047 4.667,-9.335 -0.169,-19.62 -0.169,-19.62 0,0 10.18,-1.751 12.778,-8.221 2.684,-6.684 0.301,-10.984 0.301,-10.984 -2.195,-2.491 -4.767,-5.082 -7.771,-7.655 -8.46,-7.187 -20.427,-14.367 -36.863,-18.603 -8.081,-2.084 -17.337,-2.882 -26.537,-2.878 -7.355,-0.011 -25.695,1.133 -37.352,2.572 -0.528,0.062 -1.047,0.129 -1.55,0.194"
     style="fill:#000000;fill-opacity:1;fill-rule:nonzero;stroke:none"
     id="path23240" />
  <path
     d="m 603.217,253.465 c -5.985,-1.395 -13.065,-2.385 -21.136,-2.388 -4.116,0.003 -8.492,0.259 -13.08,0.853 -17.113,2.13 -38.617,14.158 -50.344,24.978 l 0.003,0.002 -1.555,1.415 c -3.318,19.553 -10.422,37.815 -20.533,54.008 11.641,-1.186 26.147,-2.036 33.016,-2.04 9.653,0.002 19.521,0.813 28.535,3.133 17.633,4.533 30.601,12.211 39.905,20.129 0,0 12.012,-4.872 13.957,-16.045 1.945,-11.173 -7.637,-21.209 -7.637,-21.209 0,0 11.408,-4.364 11.884,-16.119 0.457,-11.318 -8.884,-16.881 -8.884,-16.881 0,0 8.838,-3.363 8.001,-14.667 -0.837,-11.305 -10.32,-14.725 -10.32,-14.725 z"
     style="fill:#000000;fill-opacity:1;fill-rule:nonzero;stroke:none"
     id="path23244" />
  <path
     d="m 566.091,157.207 -2.944,1.109 c -7.426,2.925 -14.66,6.7 -20.852,11.42 -10.51,8.005 -23.822,26.096 -29.616,38.657 v 0.003 l -0.283,0.609 c 4.399,13.649 6.799,28.28 6.827,43.643 l 0.004,0.034 v 0.391 c -0.002,4.519 -0.203,8.991 -0.594,13.408 13.199,-10.344 32.206,-20.209 49.315,-22.483 4.963,-0.637 9.681,-0.918 14.135,-0.918 8.726,0.002 16.42,1.072 22.951,2.594 0,0 5.727,-7.914 2.812,-19.04 -2.913,-11.125 -12.499,-13.666 -12.499,-13.666 0,0 6.91,-5.102 1.833,-18 -5.076,-12.899 -15.5,-11 -15.5,-11 0,0 7.069,-7.271 0.967,-18.068 -6.103,-10.797 -16.04,-8.879 -16.556,-8.693"
     style="fill:#000000;fill-opacity:1;fill-rule:nonzero;stroke:none"
     id="path23248" />
  <path
     d="m 503.752,96.4227 -0.62,0.7974 c -4.424,5.7269 -8.823,12.6609 -12.404,20.7969 -4.131,9.34 -7.261,23.631 -8.671,36.527 l -0.226,2.044 c 11.238,12.313 20.39,26.511 26.825,42.19 7.115,-12.721 18.4,-27.343 28.739,-35.362 6.989,-5.323 14.87,-9.405 22.817,-12.539 0,0 7.259,-8.697 1.773,-15.238 -6.953,-8.291 -17.205,-5.398 -17.205,-5.398 0,0 4.716,-9.245 -2.479,-16.377 -7.193,-7.132 -16.521,-2.456 -16.521,-2.456 0,0 4.54,-9.184 -3.755,-15.4199 -9.416,-7.08 -18.273,0.4346 -18.273,0.4346"
     style="fill:#000000;fill-opacity:1;fill-rule:nonzero;stroke:none"
     id="path23252" />
  <path
     d="m 424.564,61.3162 c -0.926,5.7279 -1.54,12.3079 -1.554,19.6439 l 0.002,0.316 c 0.01,10.8787 3.246,22.4449 5.967,29.9049 0.904,2.499 2.413,6.027 3.813,9.176 15.526,7.504 29.676,17.224 41.863,28.888 1.654,-12.226 4.604,-24.994 8.748,-34.442 3.885,-8.82 8.633,-16.3043 13.398,-22.4736 0,0 4.284,-11.1893 -4.582,-16.5519 -8.866,-5.364 -17.648,1.0786 -17.648,1.0786 0,0 0.776,-10.3479 -7.748,-13.8453 -8.523,-3.496 -17.031,3.1774 -17.031,3.1774 0,0 -0.682,-10.4427 -9.497,-12.88 -11.109,-3.072 -15.731,8.008 -15.731,8.008"
     style="fill:#000000;fill-opacity:1;fill-rule:nonzero;stroke:none"
     id="path23256" />
  <path
     d="m 416.931,58.4642 c 0,0 -0.139,-11.4733 -10.703,-12.8533 -10.565,-1.3787 -14.436,8.0226 -14.436,8.0226 0,0 -2.332,-9.9666 -12.777,-10.6493 -10.445,-0.684 -13.64,10.1227 -13.64,10.1227 0,0 -3.753,-10.5227 -12.897,-9.952 -9.143,0.5693 -8.464,11.8479 -8.464,11.8479 1.828,6.1734 4.118,12.6347 6.981,18.988 5.593,12.436 12.556,22.3439 18.141,29.1582 0.462,0.04 0.924,0.08 1.384,0.122 18.052,1.646 35.446,5.861 51.588,12.362 -0.234,-0.598 -0.452,-1.174 -0.65,-1.721 -2.898,-8.013 -6.399,-20.2199 -6.447,-32.5906 v -0.3346 c 0.015,-8.508 0.78,-16.0573 1.92,-22.5226"
     style="fill:#000000;fill-opacity:1;fill-rule:nonzero;stroke:none"
     id="path23260" />
  <path
     d="m 154.329,255.653 c -1.012,-1.856 -1.996,-3.817 -2.927,-5.88 -3.521,-7.82 -5,-15.415 -5.324,-22.204"
     style="fill:#000000;fill-opacity:1;fill-rule:nonzero;stroke:none"
     id="path23264" />
  <path
     d="m 70.8266,389.517 c 0.9694,1.57 2.1814,3.612 2.7707,4.754 0.7973,1.566 1.5653,3.25 2.2733,5.038 0,0 4.6067,-1.366 6.052,-8.588 1.4453,-7.223 -2.1293,-9.864 -2.1293,-9.864 0,0 4.5893,-0.468 6.0333,-5.914 1.4453,-5.444 -1.9213,-9.864 -1.9213,-9.864 0,0 4.6346,0.567 6.8119,-5.414 2.2214,-6.112 -1.7186,-10.232 -1.7186,-10.232 -0.6094,-0.535 -4.9573,-5.635 -8.7467,-10.162 -4.312,16.022 -7.4959,32.79 -9.4253,50.246"
     style="fill:#000000;fill-opacity:1;fill-rule:nonzero;stroke:none"
     id="path23268" />
  <path
     d="m 82.9113,329.955 c 0.7053,0.86 1.5453,1.872 2.444,2.951 2.2506,2.697 4.8879,5.819 6.8213,8.072 0.0466,0.055 0.092,0.109 0.1386,0.161 1.62,0.52 5.2547,1.095 7.368,-3.174 2.7788,-5.611 0.1654,-10.331 0.1654,-10.331 0,0 4.1494,1.788 7.1494,-3.934 3,-5.722 0.295,-9.12 0.295,-9.12 0,0 4.377,1.209 7.654,-4.18 3.278,-5.388 -0.316,-11.187 -0.316,-11.187 -1.369,-1.895 -2.633,-3.984 -3.718,-6.28 -1.746,-3.768 -3.03,-7.484 -3.956,-11.072 -0.691,-2.645 -1.166,-4.951 -1.49,-6.839 -9.0638,17.075 -16.6598,35.422 -22.5557,54.933"
     style="fill:#000000;fill-opacity:1;fill-rule:nonzero;stroke:none"
     id="path23272" />
  <path
     d="m 112.065,263.252 c 0.008,0.076 0.017,0.152 0.025,0.232 0.116,1.177 0.297,2.832 0.539,4.705 0.47,3.736 1.217,8.427 2.074,11.672 0.81,3.149 1.935,6.403 3.439,9.649 0.431,0.914 0.899,1.786 1.396,2.622 0,0 5.408,3.566 9.408,-1.323 4,-4.889 1.513,-11.175 1.513,-11.175 0,0 5.291,2.962 9.735,-2.038 4.444,-5 1.488,-11.183 1.488,-11.183 0,0 4.517,4.907 9.633,-0.209 5.334,-5.334 3.014,-10.551 3.014,-10.551 -1.012,-1.856 -1.996,-3.819 -2.927,-5.88 -3.521,-7.821 -5,-15.415 -5.323,-22.204 -0.229,-3.933 0.088,-8.007 0.475,-11.151 -12.833,14.143 -24.416,29.794 -34.489,46.834"
     style="fill:#000000;fill-opacity:1;fill-rule:nonzero;stroke:none"
     id="path23276" />
  <path
     d="m 155.976,206.53 c 0,0 -2.256,8.022 -1.979,18.272 0,0.776 0.021,1.547 0.067,2.29 l 0.004,0.098 c 0.284,5.919 1.561,12.484 4.622,19.291 0.288,0.637 0.583,1.267 0.882,1.885 0,0 4.416,6.534 9.8,2.144 4.532,-3.693 3.226,-10.958 3.226,-10.958 0,0 4.858,4.91 10.188,1.129 5.331,-3.784 3.259,-10.203 3.259,-10.203 0,0 4.203,4.974 9.241,2.23 5.265,-2.866 3.696,-11.29 3.696,-11.29 -0.636,-3.784 -1.041,-8.148 -1.037,-13.117 0,-3.997 0.264,-8.383 0.879,-13.168 0.756,-5.894 1.909,-11.206 3.278,-15.94 1.027,-3.428 2.893,-8.25 4.737,-12.75 -18.279,11.176 -35.363,24.604 -50.863,40.087"
     style="fill:#000000;fill-opacity:1;fill-rule:nonzero;stroke:none"
     id="path23280" />
  <path
     d="m 218.015,159.973 c -0.733,1.667 -1.754,4.028 -2.861,6.663 -2.141,5.076 -4.601,11.301 -5.636,14.779 -1.253,4.35 -2.323,9.26 -3.029,14.735 -0.571,4.462 -0.814,8.506 -0.814,12.152 l -0.001,0.019 c 0,0.013 0.001,0.029 0.001,0.049 0,1.487 0.16,2.904 0.387,4.275 0,0 1.62,11.436 11.788,8.188 8.409,-2.688 7.832,-12.309 7.832,-12.309 0,0 4.017,6.992 10.915,4.609 6.896,-2.383 7.126,-10.123 7.126,-10.123 0,0 2.168,6.966 10.591,4.466 6.807,-2.022 6.432,-11.954 6.432,-11.954 0.167,-8.565 1.659,-19.123 5.749,-31.429 2.844,-8.469 6.904,-15.529 11.359,-21.344 2.169,-2.886 4.693,-5.777 7.225,-8.464 -23.4,5.468 -45.94,14.123 -67.064,25.688"
     style="fill:#000000;fill-opacity:1;fill-rule:nonzero;stroke:none"
     id="path23284" />
  <path
     d="m 299.205,131.392 -5.195,5.183 c -3.379,3.364 -7.004,7.301 -9.808,11.036 -3.979,5.201 -7.585,11.469 -10.119,19.005 -2.942,8.861 -4.421,16.655 -5.021,23.308 0,0 -1.548,13.961 10.036,12.068 8.156,-1.334 9.515,-10.205 9.515,-10.205 0,0 0.714,8.574 9.924,7.767 9.5,-0.833 9.894,-8.669 9.894,-8.669 0,0 1.659,7.639 10.859,7.793 8.309,0.142 9.591,-13.399 9.591,-13.399 0.79,-8.446 2.73,-17.479 6.655,-26.226 5.602,-12.402 15.323,-22.545 24.49,-30.164 0.405,-0.317 0.809,-0.628 1.206,-0.932 -5.601,-0.358 -11.184,-0.534 -16.746,-0.534 -15.295,0.005 -30.433,1.352 -45.281,3.969"
     style="fill:#000000;fill-opacity:1;fill-rule:nonzero;stroke:none"
     id="path23288" />
  <path
     d="m 245.914,373.707 c -0.367,1.21 -0.571,2.731 -0.139,4.326 0.975,3.59 5.334,5.568 5.334,5.568 0,0 -4,5.965 -0.68,11.714 3.336,5.776 10.546,4.96 10.546,4.96 0,0 0.234,4.82 3.623,8.108 3.391,3.288 8.992,3.186 8.992,3.186 3.931,-2.999 8.096,-5.778 12.489,-8.315 19.231,-11.107 40.382,-16.101 61.085,-15.555 l 0.342,0.012 c 0.31,-2.089 0.75,-4.154 1.317,-6.189 -8.805,-4.831 -18.154,-8.567 -27.818,-11.161 -24.335,-6.511 -50.462,-5.743 -75.091,3.346"
     style="fill:#000000;fill-opacity:1;fill-rule:nonzero;stroke:none"
     id="path23292" />
  <path
     d="M 247.617,352.457 Z"
     style="fill:#000000;fill-opacity:1;fill-rule:nonzero;stroke:none"
     id="path23296" />
  <path
     d="M 198.252,386.197 Z"
     style="fill:#000000;fill-opacity:1;fill-rule:nonzero;stroke:none"
     id="path23300" />
  <path
     d="M 194.506,603.72 Z"
     style="fill:#000000;fill-opacity:1;fill-rule:nonzero;stroke:none"
     id="path23304" />
  <path
     d="m 567.575,703.658 c -14.638,6.484 -29.331,11.876 -44.018,16.215 3.864,3.144 7.51,6.649 10.688,9.971 0,0 3.12,2.898 8.883,0.214 5.763,-2.686 5.161,-8.172 5.161,-8.172 0,0 5.079,3.7 11.21,0.546 6.134,-3.158 6.35,-9.018 6.35,-9.018 0,0 5.412,2.939 11.624,-0.52 6.214,-3.46 7.096,-7.764 7.096,-7.764 -6.385,0.408 -12.273,-0.332 -16.994,-1.472"
     style="fill:#000000;fill-opacity:1;fill-rule:nonzero;stroke:none"
     id="path23308" />
  <path
     d="m 245.558,672.811 c -15.887,-12.076 -30.517,-25.767 -43.631,-40.918 -1.116,6.627 -2.991,14.122 -6.029,22.244 -3.054,8.144 -6.702,16.042 -10.374,23.195 0,0 -3.507,7.965 3.444,13.448 6.901,5.443 12.799,0.329 12.799,0.329 0,0 -2.125,7.923 5.764,13.116 7.891,5.191 13.522,-0.385 13.522,-0.385 0,0 -1.648,8.472 7.421,13.332 7.779,4.167 12.221,-2.263 12.221,-2.263 1.259,-4.514 2.436,-9.252 3.438,-14.092 1.82,-8.704 1.937,-18.954 1.425,-28.006"
     style="fill:#000000;fill-opacity:1;fill-rule:nonzero;stroke:none"
     id="path23312" />
  <path
     d="m 300.055,705.581 c -16.253,-7.527 -31.729,-16.471 -46.245,-26.722 0.137,7.731 -0.295,15.972 -1.844,23.578 -1.065,5.136 -2.312,10.138 -3.643,14.886 0,0 -0.809,10.002 5.534,12.82 6.344,2.82 11.322,-3.671 11.322,-3.671 0,0 -0.262,8.621 6.972,11.372 7.234,2.753 12.295,-4.501 12.295,-4.501 0,0 0.148,9.217 7.187,11.186 7.037,1.966 11.208,-5.926 11.208,-5.926 0.653,-5.383 0.886,-11.126 0.349,-16.856 -0.519,-5.679 -1.685,-11.162 -3.135,-16.166"
     style="fill:#000000;fill-opacity:1;fill-rule:nonzero;stroke:none"
     id="path23316" />
  <path
     d="m 350.43,723.657 c -14.103,-3.689 -27.825,-8.361 -41.071,-13.96 0.8,3.608 1.43,7.396 1.798,11.312 0.686,7.599 0.208,15.025 -0.807,21.72 0,0 0.679,7.304 7.081,8.612 6.402,1.308 8.286,-3.848 8.286,-3.848 0,0 1.676,5.947 7.561,7.053 7.077,1.331 9.83,-4.265 9.83,-4.265 0,0 2.432,6.397 9.299,7.181 6.868,0.783 8.641,-5.444 8.641,-5.444 -1.296,-5.194 -2.896,-10.625 -4.846,-15.828 -1.664,-4.444 -3.664,-8.662 -5.772,-12.533"
     style="fill:#000000;fill-opacity:1;fill-rule:nonzero;stroke:none"
     id="path23320" />
  <path
     d="m 405.807,732.863 c -15.36,-1.14 -30.444,-3.399 -45.147,-6.715 1.07,2.299 2.084,4.701 3.034,7.236 2.258,6.043 4.053,12.276 5.466,18.117 0,0 1.719,7.911 8.03,8.22 5.986,0.291 7.649,-4.936 7.649,-4.936 0,0 1.521,5.427 8.173,5.495 6.654,0.065 7.748,-5.683 7.748,-5.683 0,0 3.078,5.799 9.73,5.502 7.498,-0.338 6.998,-7.638 6.998,-7.638 -1.316,-2.748 -2.806,-5.612 -4.489,-8.528 -2.336,-4.048 -4.795,-7.758 -7.192,-11.07"
     style="fill:#000000;fill-opacity:1;fill-rule:nonzero;stroke:none"
     id="path23324" />
  <path
     d="m 461.38,732.13 c -15.322,1.532 -30.541,1.902 -45.485,1.276 1.367,2.08 2.699,4.226 4.029,6.529 2.704,4.685 4.935,9.228 6.763,13.413 0,0 2.328,5.791 7.541,5.155 5.252,-0.642 6.754,-6.032 6.754,-6.032 0,0 2.669,4.956 8.742,4.142 6.074,-0.812 6.954,-7.622 6.954,-7.622 0,0 3.092,6.073 9.516,4.866 6.423,-1.206 6.646,-7.271 6.646,-7.271 -1.236,-1.898 -2.585,-3.891 -4.057,-5.974 -2.055,-2.92 -4.669,-5.816 -7.403,-8.482"
     style="fill:#000000;fill-opacity:1;fill-rule:nonzero;stroke:none"
     id="path23328" />
  <path
     d="m 513.848,722.589 c -14.233,3.76 -28.436,6.543 -42.536,8.385 1.421,1.616 2.773,3.296 4.003,5.02 2.529,3.576 4.717,6.908 6.604,9.974 0,0 3.736,3.686 8.072,2.53 4.336,-1.157 5.452,-6.366 5.452,-6.366 0,0 3.73,3.806 8.5,2.4 4.768,-1.407 5.732,-7.248 5.732,-7.248 0,0 3.872,4.265 8.969,2.402 7.676,-2.805 6.833,-7.346 6.833,-7.346 -3.648,-3.574 -7.68,-7.093 -11.629,-9.751"
     style="fill:#000000;fill-opacity:1;fill-rule:nonzero;stroke:none"
     id="path23332" />
  <path
     d="m 351.89,416.925 -65.005,37.53 c -14.243,8.223 -35.742,22.704 -34.636,24.616 1.105,1.915 24.393,-9.465 38.636,-17.688 l 65.005,-37.532 c 4.277,6.231 9.749,11.236 15.921,14.886 -9.204,16.957 -23.053,31.661 -40.988,42.015 -29.67,17.131 -64.077,18.626 -93.681,7.039 4.771,-31.429 23.268,-60.478 52.939,-77.609 17.93,-10.352 37.59,-14.991 56.877,-14.488 0.073,7.169 1.676,14.412 4.932,21.231"
     style="fill:#000000;fill-opacity:1;fill-rule:nonzero;stroke:none"
     id="path23336" />
  <path
     d="m 179.524,549.536 c 1.433,0.655 2.949,1.318 4.53,1.974 11.267,4.682 25.999,8.873 39.411,7.48 8.674,-0.876 16.844,-3.544 24.065,-6.914 0,0 11.945,-4.464 7.761,-13.21 -3.537,-7.399 -12.38,-6.132 -12.38,-6.132 0,0 7.635,-4.887 4.891,-12.636 -2.743,-7.752 -11.355,-6.726 -11.355,-6.726 0,0 7.527,-3.714 5.85,-11.118 -1.676,-7.404 -14.04,-7.196 -14.04,-7.196 -3.459,1.369 -6.912,2.449 -10.47,2.292 -4.78,-0.238 -8.069,-1.242 -10.233,-2.282 -0.597,0.44 -1.295,0.907 -2.085,1.367 -3.351,1.965 -8.823,3.821 -15.033,1.748 -5.355,-1.776 -8.67,-5.56 -10.534,-8.812 -0.601,-1.048 -1.073,-2.055 -1.444,-2.965 -0.298,0.036 -0.612,0.062 -0.937,0.08 -2.787,0.173 -6.476,-0.415 -10.393,-2.656 -0.887,21.697 3.174,44.178 12.396,65.706"
     style="fill:#000000;fill-opacity:1;fill-rule:nonzero;stroke:none"
     id="path23340" />
  <path
     d="m 167.832,474.415 c 1.002,1.159 2.41,2.387 4.281,3.195 4.484,1.933 10.564,-0.539 10.564,-0.539 0,0 2.315,9.845 9.964,12.261 8.024,2.532 14.264,-3.621 14.264,-3.621 0,0 3.986,2.899 10.037,3.544 6.049,0.644 12.42,-3.481 12.42,-3.481 1.573,-9.912 4.424,-19.598 8.481,-28.796 -2.654,0.605 -5.478,0.831 -8.36,0.099 -5.18,-1.427 -8.408,-4.251 -10.12,-6.783 -1.066,0.417 -7.141,4.543 -15.966,-0.369 -8.823,-4.914 -8.42,-16.259 -8.4,-16.618 -2.132,-0.689 -4.808,-1.92 -7.204,-4.149 -0.865,-0.832 -1.563,-1.771 -2.123,-2.743 -0.469,-0.834 -0.85,-1.69 -1.164,-2.552 -6.146,10.279 -10.664,21.462 -13.605,33.247 -1.4,5.646 -2.424,11.429 -3.069,17.305"
     style="fill:#000000;fill-opacity:1;fill-rule:nonzero;stroke:none"
     id="path23344" />
  <path
     d="m 190.77,414.473 c -0.208,2.257 -0.069,5.689 2.059,8.356 3.469,4.348 9.376,4.401 9.376,4.401 0,0 -1.932,9.488 5.394,14.677 7.504,5.316 15.556,-0.889 15.556,-0.889 0,0 2.058,5.677 7.334,7.925 5.276,2.247 11.749,-1.868 12.462,-2.189 0.428,-0.759 0.879,-1.52 1.324,-2.269 1.695,-2.782 3.059,-4.962 4.591,-7.123 4.988,-7.151 10.825,-13.8 17.465,-19.776 -2.162,-0.851 -4.465,-1.968 -6.444,-3.656 -1.51,-1.319 -2.604,-2.804 -3.417,-4.203 -0.629,-1.105 -1.096,-2.16 -1.436,-3.077 -0.671,-0.095 -1.413,-0.236 -2.208,-0.443 -2.961,-0.761 -6.887,-2.665 -9.324,-6.893 -2.292,-3.94 -2.447,-7.88 -1.965,-10.64 0.121,-0.712 0.277,-1.355 0.444,-1.924 -0.582,-0.748 -1.095,-1.527 -1.552,-2.313 -0.803,-1.392 -1.422,-2.814 -1.867,-4.192 -0.352,-1.147 -0.52,-2.255 -0.569,-3.312 -3.878,1.738 -7.707,3.693 -11.472,5.865 -14.687,8.509 -26.565,19.275 -35.751,31.675"
     style="fill:#000000;fill-opacity:1;fill-rule:nonzero;stroke:none"
     id="path23348" />
  <path
     d="m 562.577,686.893 c 2.916,-7.454 11.656,-19.894 25.351,-24.798 11.715,-4.194 23.225,-4.462 30.885,-1.41 7.676,-7.876 15.649,-15.789 24.152,-23.068 3.633,-3.109 7.343,-6.161 11.124,-9.153 3.179,-2.516 6.409,-4.988 9.685,-7.411 10.56,-7.808 21.619,-15.005 32.842,-21.539 -11.106,24.127 -29.236,45.339 -53.578,60.251 -6.501,3.984 -13.204,7.372 -20.037,10.172 -2.76,7.769 -10.559,16.242 -21.44,22.277 -12.304,6.821 -26.85,5.511 -34.6,2.949 -72.174,32.652 -145.769,37.904 -211.095,21.623 -75.449,-18.791 -139.888,-66.273 -178.472,-133.102 -4.198,-7.274 -8.09,-14.775 -11.66,-22.496 -16.237,-35.144 -20.234,-73.575 -11.657,-108.249 8.556,-34.663 29.833,-65.578 63.776,-85.152 44.246,-25.544 96.526,-24.548 138.41,-1.949 -1.807,2.558 -3.365,5.27 -4.659,8.089 -9.06,-4.863 -18.641,-8.647 -28.526,-11.295 -32.773,-8.778 -68.853,-5.065 -100.559,13.236 -31.679,18.312 -51.329,46.861 -59.382,79.316 -8.037,32.437 -4.333,68.765 11.075,102.088 3.445,7.464 7.209,14.713 11.268,21.744 69.503,120.283 225.686,176.053 377.097,107.877"
     style="fill:#000000;fill-opacity:1;fill-rule:nonzero;stroke:none"
     id="path23352" />
  <path
     d="m 194.974,623.521 c -9.005,-11.238 -17.209,-23.189 -24.512,-35.837 -2.32,-4.02 -4.55,-8.109 -6.684,-12.265 -3.316,7.568 -7.974,16.403 -14.409,25.35 -4.968,6.886 -10.403,13.1 -15.707,18.511 0,0 -7.416,6.807 -1.724,14.289 5.692,7.483 13.81,4.208 13.81,4.208 0,0 -5.638,6.106 1.369,13.978 7.011,7.87 14.103,3.264 14.103,3.264 0,0 -3.539,8.069 3.958,15.289 7.496,7.22 15.323,-0.801 15.323,-0.801 2.832,-5.774 5.565,-11.926 7.905,-18.175 4.006,-10.697 5.835,-20.169 6.568,-27.811"
     style="fill:#000000;fill-opacity:1;fill-rule:nonzero;stroke:none"
     id="path23356" />
  <path
     d="m 304.318,341.579 c 20.024,2.104 39.501,8.216 57.174,17.999 1.464,-1.488 2.99,-2.867 4.66,-4.185 l -0.172,-0.28 c -10.829,-17.659 -17.076,-38.476 -17.073,-60.684 0,-21.076 5.617,-40.863 15.432,-57.923 -0.044,-0.257 -0.097,-0.545 -0.165,-0.865 0,0 -1.226,-7.444 -11.852,-9.052 -10.626,-1.609 -21.031,9.231 -21.031,9.231 0,0 -8.678,-11.607 -19.096,-10.983 -10.416,0.627 -16.905,9.957 -16.905,9.957 0,0 -6.607,-7.941 -13.509,-6.956 -7.131,1.018 -9.662,5.231 -9.662,5.231 -1.06,3.148 -2.018,6.669 -2.744,10.559 -1.994,10.92 -2.229,24.872 2.32,41.225 2.236,8.041 6.172,16.456 10.776,24.421 3.668,6.375 13.828,21.684 20.903,31.061 0.319,0.427 0.637,0.842 0.944,1.244"
     style="fill:#000000;fill-opacity:1;fill-rule:nonzero;stroke:none"
     id="path23360" />
  <path
     d="m 172.197,287.925 c 1.785,5.88 4.467,12.507 8.499,19.497 2.061,3.564 4.472,7.226 7.28,10.903 10.401,13.754 31.569,26.364 46.803,31.109 v -0.004 l 2.002,0.64 c 18.593,-6.901 37.96,-9.881 57.041,-9.223 -6.849,-9.488 -14.837,-21.623 -18.276,-27.571 -4.824,-8.362 -9.056,-17.314 -11.553,-26.278 -4.891,-17.54 -4.727,-32.606 -2.522,-44.625 0,0 -10.225,-7.967 -20.873,-4.065 -10.649,3.902 -14.549,17.22 -14.549,17.22 0,0 -9.486,-7.698 -19.902,-2.234 -10.031,5.266 -10.177,16.136 -10.177,16.136 0,0 -7.33,-5.974 -16.702,0.404 -9.372,6.378 -7.594,16.299 -7.594,16.299 z"
     style="fill:#000000;fill-opacity:1;fill-rule:nonzero;stroke:none"
     id="path23364" />
  <path
     d="m 107.397,368.206 2.433,1.995 c 6.247,4.968 13.134,9.345 20.318,12.348 12.185,5.1 34.507,7.581 48.283,6.32 l 0.002,-0.002 0.669,-0.06 c 9.623,-10.633 21.093,-20.026 34.383,-27.733 l 0.029,-0.02 0.337,-0.196 c 3.914,-2.257 7.888,-4.32 11.907,-6.189 -15.556,-6.259 -33.603,-17.787 -44.125,-31.467 -3.035,-3.978 -5.638,-7.925 -7.864,-11.782 -4.362,-7.559 -7.282,-14.755 -9.23,-21.175 0,0 -9.717,-1.001 -17.894,7.085 -8.177,8.086 -5.587,17.659 -5.587,17.659 0,0 -7.872,-3.433 -16.504,7.412 -8.632,10.845 -1.777,18.924 -1.777,18.924 0,0 -9.831,-2.487 -16.131,8.196 -6.297,10.684 0.334,18.33 0.751,18.685"
     style="fill:#000000;fill-opacity:1;fill-rule:nonzero;stroke:none"
     id="path23368" />
  <path
     d="m 85.9255,452.586 1.0013,0.139 c 7.1707,0.968 15.3742,1.309 24.2122,0.342 10.153,-1.092 24.094,-5.526 35.968,-10.754 l 1.885,-0.824 c 5.044,-15.891 12.763,-30.915 23.125,-44.327 -14.576,0.199 -32.882,-2.264 -44.996,-7.209 -8.104,-3.391 -15.578,-8.174 -22.266,-13.49 0,0 -11.1615,-1.938 -14.0842,6.084 -3.704,10.167 3.928,17.599 3.928,17.599 0,0 -10.3626,0.537 -12.9439,10.335 -2.5787,9.796 6.1359,15.536 6.1359,15.536 0,0 -10.2253,0.66 -11.4786,10.961 -1.4227,11.695 9.5133,15.608 9.5133,15.608"
     style="fill:#000000;fill-opacity:1;fill-rule:nonzero;stroke:none"
     id="path23372" />
  <path
     d="m 95.117,538.718 c 5.424,-2.062 11.429,-4.82 17.791,-8.476 l 0.272,-0.162 c 9.416,-5.446 17.814,-14.032 22.914,-20.118 1.714,-2.034 4.014,-5.106 6.042,-7.891 -1.266,-17.199 0.077,-34.312 4.085,-50.698 -11.415,4.681 -23.948,8.51 -34.203,9.646 -9.581,1.044 -18.4357,0.673 -26.1597,-0.368 0,0 -11.8333,1.885 -12.0453,12.245 -0.212,10.359 9.7587,14.744 9.7587,14.744 0,0 -9.3494,4.502 -8.116,13.632 1.2346,9.131 11.2666,13.16 11.2666,13.16 0,0 -8.7013,5.814 -6.4053,14.666 2.8947,11.157 14.8,9.62 14.8,9.62"
     style="fill:#000000;fill-opacity:1;fill-rule:nonzero;stroke:none"
     id="path23376" />
  <path
     d="m 96.4634,546.754 c 0,0 -9.868,5.857 -5.78,15.694 4.088,9.839 14.1666,8.492 14.1666,8.492 0,0 -7.468,7.003 -2.836,16.39 4.632,9.387 15.588,6.75 15.588,6.75 0,0 -7.236,8.513 -2.171,16.145 5.064,7.634 14.494,1.407 14.494,1.407 4.432,-4.669 8.881,-9.885 12.953,-15.54 7.972,-11.061 13.072,-22.045 16.18,-30.29 -0.195,-0.419 -0.392,-0.84 -0.585,-1.259 -7.6,-16.457 -12.648,-33.628 -15.09,-50.859 -0.4,0.503 -0.789,0.98 -1.164,1.426 -5.49,6.514 -14.312,15.652 -25.002,21.878 l -0.288,0.168 c -7.376,4.239 -14.296,7.352 -20.4656,9.598"
     style="fill:#000000;fill-opacity:1;fill-rule:nonzero;stroke:none"
     id="path23380" />
  <path
     d="m 398.534,675.579 c -1.102,1.805 -2.308,3.639 -3.63,5.475 -5.01,6.96 -10.848,12.038 -16.565,15.713"
     style="fill:#000000;fill-opacity:1;fill-rule:nonzero;stroke:none"
     id="path23384" />
  <path
     d="m 556.215,680.963 c 0.876,-1.625 2.037,-3.695 2.733,-4.777 0.957,-1.474 2.031,-2.98 3.225,-4.487 0,0 -3.486,-3.308 -10.464,-0.948 -6.976,2.359 -7.477,6.777 -7.477,6.777 0,0 -2.7,-3.742 -8.137,-2.269 -5.438,1.469 -7.582,6.596 -7.582,6.596 0,0 -1.826,-4.297 -8.096,-3.193 -6.402,1.133 -8.001,6.605 -8.001,6.605 -0.159,0.795 -2.401,7.111 -4.427,12.655 16.031,-4.275 32.143,-9.903 48.226,-16.959"
     style="fill:#000000;fill-opacity:1;fill-rule:nonzero;stroke:none"
     id="path23388" />
  <path
     d="m 498.591,700.278 c 0.392,-1.041 0.849,-2.275 1.333,-3.592 1.211,-3.299 2.595,-7.144 3.58,-9.944 0.024,-0.068 0.049,-0.133 0.071,-0.2 -0.359,-1.664 -1.679,-5.099 -6.434,-4.793 -6.248,0.397 -9.029,5.021 -9.029,5.021 0,0 -0.527,-4.488 -6.983,-4.225 -6.456,0.262 -8.045,4.306 -8.045,4.306 0,0 -1.141,-4.396 -7.448,-4.541 -6.304,-0.143 -9.528,5.868 -9.528,5.868 -0.956,2.133 -2.134,4.272 -3.58,6.36 -2.39,3.396 -4.965,6.367 -7.612,8.963 -1.944,1.921 -3.704,3.484 -5.177,4.709 19.321,-0.688 39.006,-3.283 58.852,-7.932"
     style="fill:#000000;fill-opacity:1;fill-rule:nonzero;stroke:none"
     id="path23392" />
  <path
     d="m 426.248,708.382 c 0.062,-0.044 0.123,-0.091 0.188,-0.139 0.96,-0.689 2.303,-1.673 3.806,-2.818 3,-2.276 6.69,-5.268 9.072,-7.632 2.322,-2.276 4.576,-4.877 6.636,-7.803 0.576,-0.83 1.097,-1.672 1.572,-2.521 0,0 0.385,-6.465 -5.85,-7.485 -6.233,-1.019 -10.434,4.276 -10.434,4.276 0,0 -0.08,-6.062 -6.632,-7.41 -6.552,-1.349 -10.43,4.302 -10.43,4.302 0,0 1.991,-6.364 -4.997,-8.238 -7.285,-1.95 -10.644,2.664 -10.644,2.664 -1.101,1.806 -2.309,3.639 -3.629,5.476 -5.012,6.96 -10.85,12.038 -16.567,15.712 -3.292,2.166 -6.979,3.925 -9.896,5.163 18.667,4.042 38.011,6.25 57.805,6.453"
     style="fill:#000000;fill-opacity:1;fill-rule:nonzero;stroke:none"
     id="path23396" />
  <path
     d="m 355.17,698.714 c 0,0 8.074,-2.056 16.813,-7.421 0.672,-0.388 1.328,-0.793 1.948,-1.204 l 0.085,-0.053 c 4.983,-3.204 10.031,-7.594 14.395,-13.648 0.408,-0.568 0.805,-1.138 1.191,-1.706 0,0 3.45,-7.092 -3.042,-9.558 -5.466,-2.079 -11.105,2.684 -11.105,2.684 0,0 1.824,-6.663 -4.116,-9.388 -5.941,-2.726 -10.465,2.28 -10.465,2.28 0,0 2.208,-6.127 -2.69,-9.119 -5.113,-3.127 -11.625,2.444 -11.625,2.444 -2.959,2.443 -6.535,4.977 -10.84,7.457 -3.462,1.999 -7.392,3.963 -11.844,5.823 -5.482,2.292 -10.66,3.949 -15.444,5.131 -3.482,0.825 -8.592,1.621 -13.409,2.272 18.819,10.245 38.988,18.325 60.148,24.006"
     style="fill:#000000;fill-opacity:1;fill-rule:nonzero;stroke:none"
     id="path23400" />
  <path
     d="m 283.83,668.265 c 1.809,-0.197 4.365,-0.493 7.201,-0.853 5.466,-0.683 12.087,-1.667 15.615,-2.508 4.396,-1.089 9.181,-2.617 14.277,-4.745 4.15,-1.735 7.772,-3.547 10.931,-5.37 l 0.017,-0.009 c 0.011,-0.007 0.024,-0.016 0.043,-0.027 1.285,-0.741 2.434,-1.589 3.508,-2.472 0,0 9.093,-7.12 1.197,-14.302 -6.533,-5.939 -14.577,-0.628 -14.577,-0.628 0,0 4.047,-6.975 -1.464,-11.756 -5.513,-4.782 -12.331,-1.112 -12.331,-1.112 0,0 4.948,-5.359 -1.428,-11.404 -5.154,-4.884 -13.569,0.406 -13.569,0.406 -7.501,4.14 -17.391,8.127 -30.092,10.736 -8.756,1.771 -16.9,1.786 -24.164,0.835 -3.583,-0.435 -7.351,-1.176 -10.941,-2.025 16.434,17.53 35.2,32.724 55.777,45.234"
     style="fill:#000000;fill-opacity:1;fill-rule:nonzero;stroke:none"
     id="path23404" />
  <path
     d="m 218.483,612.243 7.086,1.906 c 4.602,1.244 9.826,2.416 14.461,2.976 6.495,0.847 13.725,0.836 21.519,-0.74 9.145,-1.881 16.633,-4.497 22.696,-7.302 0,0 12.864,-5.643 5.433,-14.727 -5.233,-6.396 -13.596,-3.137 -13.596,-3.137 0,0 7.069,-4.905 1.764,-12.479 -5.471,-7.809 -12.453,-4.234 -12.453,-4.234 0,0 5.785,-5.255 1.32,-13.3 -4.034,-7.267 -16.402,-1.604 -16.402,-1.604 -7.708,3.537 -16.501,6.373 -26.038,7.345 -13.542,1.352 -27.185,-1.997 -38.368,-6.125 -0.477,-0.192 -0.948,-0.386 -1.409,-0.58 2.489,5.03 5.128,9.954 7.909,14.77 7.653,13.244 16.388,25.681 26.078,37.231"
     style="fill:#000000;fill-opacity:1;fill-rule:nonzero;stroke:none"
     id="path23408" />
  <path
     d="m 454.979,537.236 c 1.232,-0.286 2.649,-0.87 3.815,-2.042 2.622,-2.64 2.157,-7.403 2.157,-7.403 0,0 7.164,0.48 10.484,-5.268 3.334,-5.777 -0.979,-11.613 -0.979,-11.613 0,0 4.057,-2.612 5.212,-7.192 1.151,-4.58 -1.737,-9.38 -1.737,-9.38 -4.563,-1.906 -9.053,-4.123 -13.447,-6.659 -19.233,-11.101 -34.134,-26.92 -44.013,-45.125 l -0.16,-0.3 c -1.965,0.776 -3.973,1.427 -6.019,1.955 0.219,10.04 1.659,20.003 4.243,29.669 6.529,24.33 20.257,46.574 40.444,63.358"
     style="fill:#000000;fill-opacity:1;fill-rule:nonzero;stroke:none"
     id="path23412" />
  <path
     d="M 435.725,546.388 Z"
     style="fill:#000000;fill-opacity:1;fill-rule:nonzero;stroke:none"
     id="path23416" />
  <path
     d="M 489.626,572.269 Z"
     style="fill:#000000;fill-opacity:1;fill-rule:nonzero;stroke:none"
     id="path23420" />
  <path
     d="M 679.88,466.751 Z"
     style="fill:#000000;fill-opacity:1;fill-rule:nonzero;stroke:none"
     id="path23424" />
  <path
     d="m 579.896,93.6961 c 12.933,9.4329 24.95,19.4629 36.05,30.0119 0.791,-4.917 2.004,-9.828 3.291,-14.24 0,0 0.952,-4.152 -4.256,-7.8 -5.207,-3.6479 -9.657,-0.385 -9.657,-0.385 0,0 0.665,-6.2483 -5.132,-9.9802 -5.801,-3.7334 -10.984,-0.9907 -10.984,-0.9907 0,0 -0.161,-6.156 -6.263,-9.8067 -6.102,-3.6506 -10.272,-2.2626 -10.272,-2.2626 3.547,5.3253 5.851,10.7933 7.223,15.4533"
     style="fill:#000000;fill-opacity:1;fill-rule:nonzero;stroke:none"
     id="path23428" />
  <path
     d="m 714.19,387.994 c -2.516,19.797 -7.057,39.312 -13.62,58.244 6.296,-2.347 13.726,-4.469 22.278,-5.9 8.58,-1.427 17.245,-2.216 25.274,-2.612 0,0 8.652,-0.947 9.925,-9.707 1.262,-8.698 -6.116,-11.25 -6.116,-11.25 0,0 7.924,-2.122 8.476,-11.55 0.551,-9.429 -7.092,-11.518 -7.092,-11.518 0,0 8.16,-2.807 7.834,-13.092 -0.282,-8.82 -8.07,-9.452 -8.07,-9.452 -4.54,1.166 -9.23,2.517 -13.922,4.069 -8.448,2.776 -17.383,7.799 -24.967,12.768"
     style="fill:#000000;fill-opacity:1;fill-rule:nonzero;stroke:none"
     id="path23432" />
  <path
     d="m 715.321,324.413 c 1.608,17.84 1.599,35.713 -0.021,53.41 6.626,-3.985 13.98,-7.73 21.342,-10.192 4.981,-1.645 9.935,-3.068 14.712,-4.289 0,0 9.067,-4.299 8.336,-11.2 -0.731,-6.907 -8.84,-7.972 -8.84,-7.972 0,0 7.597,-4.083 6.363,-11.724 -1.234,-7.64 -10.046,-8.396 -10.046,-8.396 0,0 7.908,-4.737 6.095,-11.817 -1.817,-7.076 -10.737,-6.743 -10.737,-6.743 -4.988,2.124 -10.077,4.794 -14.772,8.126 -4.659,3.288 -8.824,7.04 -12.432,10.797"
     style="fill:#000000;fill-opacity:1;fill-rule:nonzero;stroke:none"
     id="path23436" />
  <path
     d="m 705.788,271.749 c 3.857,14.057 6.67,28.279 8.445,42.547 2.725,-2.496 5.692,-4.935 8.897,-7.211 6.239,-4.395 12.908,-7.695 19.213,-10.163 0,0 5.987,-4.24 3.918,-10.437 -2.067,-6.199 -7.475,-5.252 -7.475,-5.252 0,0 4.312,-4.424 2.328,-10.075 -2.387,-6.794 -8.609,-6.381 -8.609,-6.381 0,0 4.324,-5.304 1.569,-11.644 -2.756,-6.339 -9.036,-4.76 -9.036,-4.76 -3.849,3.719 -7.753,7.82 -11.281,12.111 -3.017,3.662 -5.671,7.504 -7.969,11.265"
     style="fill:#000000;fill-opacity:1;fill-rule:nonzero;stroke:none"
     id="path23440" />
  <path
     d="m 686.072,219.189 c 6.692,13.871 12.278,28.064 16.758,42.456 1.456,-2.077 3.03,-4.156 4.75,-6.247 4.104,-4.977 8.604,-9.646 12.957,-13.792 0,0 5.992,-5.444 3.104,-11.062 -2.741,-5.331 -8.099,-4.159 -8.099,-4.159 0,0 3.939,-4.029 0.67,-9.825 -3.268,-5.794 -8.794,-3.868 -8.794,-3.868 0,0 3.483,-5.566 -0.1,-11.176 -4.042,-6.326 -10.113,-2.243 -10.113,-2.243 -1.723,2.513 -3.457,5.236 -5.141,8.153 -2.339,4.047 -4.322,8.03 -5.992,11.763"
     style="fill:#000000;fill-opacity:1;fill-rule:nonzero;stroke:none"
     id="path23444" />
  <path
     d="m 657.649,171.427 c 8.988,12.504 16.917,25.498 23.848,38.753 1.117,-2.224 2.311,-4.45 3.639,-6.754 2.708,-4.685 5.525,-8.888 8.236,-12.563 0,0 3.85,-4.91 0.694,-9.108 -3.182,-4.228 -8.602,-2.834 -8.602,-2.834 0,0 2.957,-4.789 -0.783,-9.642 -3.74,-4.854 -10.079,-2.21 -10.079,-2.21 0,0 3.715,-5.714 -0.542,-10.676 -4.258,-4.958 -9.622,-2.12 -9.622,-2.12 -1.025,2.02 -2.077,4.184 -3.144,6.5 -1.502,3.242 -2.702,6.954 -3.645,10.654"
     style="fill:#000000;fill-opacity:1;fill-rule:nonzero;stroke:none"
     id="path23448" />
  <path
     d="m 623.153,130.759 c 10.373,10.445 19.884,21.354 28.529,32.645 0.69,-2.04 1.468,-4.051 2.347,-5.977 1.832,-3.979 3.625,-7.54 5.336,-10.707 0,0 1.323,-5.079 -1.847,-8.256 -3.169,-3.176 -8.237,-1.539 -8.237,-1.539 0,0 1.431,-5.133 -2.172,-8.56 -3.601,-3.426 -9.144,-1.34 -9.144,-1.34 0,0 1.759,-5.486 -2.403,-8.969 -6.269,-5.245 -9.778,-2.244 -9.778,-2.244 -1.271,4.945 -2.304,10.197 -2.631,14.947"
     style="fill:#000000;fill-opacity:1;fill-rule:nonzero;stroke:none"
     id="path23452" />
  <path
     d="m 439.419,423.851 65.005,37.529 c 14.243,8.223 37.532,19.602 38.636,17.69 1.105,-1.915 -20.395,-16.394 -34.637,-24.616 l -65.005,-37.531 c 3.257,-6.82 4.857,-14.06 4.929,-21.232 19.288,-0.506 38.946,4.134 56.881,14.49 29.671,17.13 48.169,46.181 52.937,77.61 -29.604,11.585 -64.01,10.089 -93.679,-7.04 -17.932,-10.353 -31.779,-25.06 -40.987,-42.013 6.171,-3.649 11.643,-8.657 15.92,-14.887"
     style="fill:#000000;fill-opacity:1;fill-rule:nonzero;stroke:none"
     id="path23456" />
  <path
     d="m 640.448,506.819 c -0.15,-1.569 -0.334,-3.212 -0.556,-4.912 -1.579,-12.096 -5.315,-26.949 -13.228,-37.869 -5.096,-7.073 -11.491,-12.813 -18.02,-17.384 0,0 -9.837,-8.112 -15.321,-0.116 -4.638,6.763 0.88,13.787 0.88,13.787 0,0 -8.05,-4.168 -13.39,2.082 -5.34,6.251 -0.146,13.196 -0.146,13.196 0,0 -6.98,-4.66 -12.554,0.495 -5.574,5.152 0.788,15.756 0.788,15.756 2.915,2.312 5.576,4.762 7.22,7.921 2.184,4.259 2.96,7.609 3.14,10.003 0.682,0.296 1.435,0.669 2.227,1.124 3.377,1.917 7.721,5.728 9.032,12.144 1.139,5.525 -0.481,10.288 -2.367,13.528 -0.606,1.045 -1.241,1.957 -1.844,2.733 0.179,0.241 0.359,0.499 0.538,0.772 1.542,2.325 2.878,5.816 2.896,10.328 19.233,-10.08 36.673,-24.837 50.705,-43.588"
     style="fill:#000000;fill-opacity:1;fill-rule:nonzero;stroke:none"
     id="path23460" />
  <path
     d="m 581.237,554.504 c 0.503,-1.448 0.862,-3.281 0.626,-5.305 -0.568,-4.849 -5.748,-8.88 -5.748,-8.88 0,0 7.369,-6.927 5.636,-14.759 -1.819,-8.214 -10.267,-10.541 -10.267,-10.541 0,0 0.515,-4.903 -1.949,-10.467 -2.468,-5.561 -9.227,-9.016 -9.227,-9.016 -9.371,3.595 -19.183,5.968 -29.177,7.054 1.852,1.997 3.458,4.33 4.264,7.19 1.356,5.2 0.524,9.41 -0.814,12.156 0.895,0.716 7.506,3.914 7.664,14.014 0.156,10.096 -9.869,15.418 -10.192,15.582 0.471,2.191 0.743,5.124 0.01,8.315 -0.29,1.164 -0.752,2.239 -1.314,3.208 -0.488,0.823 -1.04,1.583 -1.629,2.284 11.976,0.185 23.919,-1.495 35.595,-4.84 5.592,-1.611 11.11,-3.616 16.522,-5.995"
     style="fill:#000000;fill-opacity:1;fill-rule:nonzero;stroke:none"
     id="path23464" />
  <path
     d="m 517.856,564.611 c 2.06,-0.948 4.961,-2.785 6.207,-5.961 2.032,-5.178 -0.876,-10.32 -0.876,-10.32 0,0 9.182,-3.071 10.014,-12.011 0.851,-9.157 -8.548,-13.027 -8.548,-13.027 0,0 3.888,-4.621 3.195,-10.314 -0.691,-5.692 -7.491,-9.24 -8.127,-9.698 -0.87,0.01 -1.754,-0.001 -2.626,-0.012 -3.258,-0.077 -5.826,-0.169 -8.464,-0.414 -8.687,-0.744 -17.363,-2.476 -25.859,-5.238 0.344,2.299 0.528,4.851 0.056,7.41 -0.387,1.966 -1.127,3.657 -1.932,5.058 -0.641,1.1 -1.321,2.031 -1.947,2.783 0.254,0.629 0.503,1.343 0.72,2.135 0.823,2.944 1.136,7.297 -1.306,11.522 -2.267,3.954 -5.602,6.059 -8.232,7.02 -0.678,0.252 -1.312,0.438 -1.888,0.579 -0.358,0.877 -0.775,1.711 -1.228,2.501 -0.804,1.391 -1.725,2.636 -2.696,3.712 -0.819,0.878 -1.695,1.578 -2.585,2.148 3.445,2.488 7.053,4.828 10.817,7.003 14.712,8.465 29.974,13.371 45.305,15.124"
     style="fill:#000000;fill-opacity:1;fill-rule:nonzero;stroke:none"
     id="path23468" />
  <path
     d="m 567.875,106.405 c -7.914,1.202 -23.056,-0.148 -34.15,-9.5556 -9.49,-8.0466 -15.478,-17.8813 -16.665,-26.0413 -10.657,-2.7093 -21.499,-5.6586 -32.053,-9.3826 -4.51,-1.5907 -9.007,-3.2773 -13.49,-5.056 -3.768,-1.4947 -7.523,-3.0586 -11.261,-4.684 -12.041,-5.2413 -23.802,-11.22 -35.073,-17.6706 26.447,-2.4467 53.884,2.6493 78.968,16.2733 6.7,3.6386 12.985,7.7493 18.828,12.2666 8.108,-1.4946 19.345,1.0227 30.013,7.4293 12.06,7.2454 18.197,20.4987 19.855,28.4893 64.363,46.1786 105.709,107.2886 124.273,172.0046 21.45,74.735 12.549,154.283 -26.036,221.112 -4.199,7.273 -8.75,14.394 -13.652,21.344 -22.316,31.634 -53.6,54.312 -87.917,64.221 -34.296,9.921 -71.71,6.952 -105.632,-12.656 -44.245,-25.545 -69.523,-71.32 -70.893,-118.892 3.12,0.286 6.246,0.279 9.336,-0.009 0.317,10.277 1.832,20.466 4.48,30.35 8.784,32.772 30.041,62.162 61.743,80.47 31.698,18.28 66.247,21.021 98.38,11.769 32.111,-9.257 61.719,-30.631 82.873,-60.636 4.742,-6.715 9.139,-13.6 13.198,-20.629 69.416,-120.335 39.622,-283.478 -95.125,-380.517"
     style="fill:#000000;fill-opacity:1;fill-rule:nonzero;stroke:none"
     id="path23472" />
  <path
     d="m 696.796,456.446 c -5.231,13.417 -11.478,26.497 -18.78,39.145 -2.322,4.02 -4.748,7.996 -7.28,11.923 8.21,-0.914 18.192,-1.296 29.158,-0.198 8.447,0.86 16.546,2.459 23.884,4.348 0,0 9.603,3.019 13.237,-5.652 3.635,-8.672 -3.26,-14.064 -3.26,-14.064 0,0 8.107,1.83 11.419,-8.174 3.312,-10.007 -4.224,-13.846 -4.224,-13.846 0,0 8.757,-0.969 11.263,-11.071 2.502,-10.103 -8.356,-12.87 -8.356,-12.87 -6.416,0.434 -13.111,1.143 -19.693,2.24 -11.267,1.88 -20.384,5.032 -27.368,8.219"
     style="fill:#000000;fill-opacity:1;fill-rule:nonzero;stroke:none"
     id="path23476" />
  <path
     d="m 397.955,502.722 c -8.191,-18.392 -12.636,-38.316 -13,-58.513 -2.023,-0.524 -3.977,-1.156 -5.955,-1.944 l -0.156,0.289 c -9.878,18.208 -24.784,34.026 -44.018,45.128 -18.252,10.537 -38.196,15.566 -57.877,15.597 -0.202,0.167 -0.424,0.357 -0.667,0.576 0,0 -5.835,4.784 -1.913,14.789 3.918,10.007 18.508,13.599 18.508,13.599 0,0 -5.712,13.32 0.038,22.028 5.75,8.707 17.075,9.663 17.075,9.663 0,0 -3.573,9.692 0.731,15.177 4.446,5.667 9.361,5.751 9.361,5.751 3.255,-0.655 6.785,-1.586 10.515,-2.903 10.454,-3.732 22.655,-10.505 34.543,-22.621 5.846,-5.958 11.164,-13.574 15.762,-21.544 3.685,-6.364 11.864,-22.818 16.448,-33.632 0.209,-0.49 0.41,-0.972 0.605,-1.44"
     style="fill:#000000;fill-opacity:1;fill-rule:nonzero;stroke:none"
     id="path23480" />
  <path
     d="m 417.548,643.969 c 4.2,-4.485 8.599,-10.121 12.638,-17.108 2.056,-3.568 4.02,-7.485 5.801,-11.756 6.711,-15.885 7.047,-40.521 3.539,-56.087 l -0.003,0.002 -0.447,-2.054 c -15.274,-12.651 -27.537,-27.934 -36.506,-44.788 -4.794,10.676 -11.31,23.662 -14.742,29.614 -4.828,8.359 -10.465,16.499 -16.98,23.144 -12.744,13.006 -25.876,20.396 -37.385,24.496 0,0 -1.786,12.839 6.916,20.109 8.703,7.271 22.188,3.991 22.188,3.991 0,0 -1.925,12.063 8.016,18.352 9.575,6.055 19.061,0.744 19.061,0.744 0,0 -1.508,9.336 8.703,14.264 10.208,4.928 17.911,-1.573 17.911,-1.573 z"
     style="fill:#000000;fill-opacity:1;fill-rule:nonzero;stroke:none"
     id="path23484" />
  <path
     d="m 519.473,659.948 0.511,-3.105 c 1.18,-7.892 1.527,-16.046 0.535,-23.768 -1.676,-13.103 -10.687,-33.678 -18.668,-44.977 h -0.003 l -0.387,-0.55 c -14.018,-3.016 -27.889,-8.252 -41.207,-15.909 l -0.032,-0.015 -0.338,-0.194 c -3.913,-2.26 -7.686,-4.672 -11.316,-7.218 2.359,16.6 1.399,37.995 -5.186,53.948 -1.93,4.617 -4.047,8.844 -6.272,12.701 -4.366,7.558 -9.139,13.683 -13.723,18.58 0,0 3.991,8.916 15.083,11.956 11.09,3.038 18.086,-3.992 18.086,-3.992 0,0 0.962,8.534 14.671,10.586 13.709,2.054 17.276,-7.922 17.276,-7.922 0,0 2.762,9.756 15.165,9.871 12.4,0.112 15.708,-9.453 15.805,-9.992"
     style="fill:#000000;fill-opacity:1;fill-rule:nonzero;stroke:none"
     id="path23488" />
  <path
     d="m 603.285,636.352 -0.381,-0.936 c -2.747,-6.695 -6.552,-13.971 -11.809,-21.141 -6.022,-8.247 -16.834,-18.103 -27.296,-25.771 l -1.658,-1.221 c -16.284,3.577 -33.154,4.405 -49.95,2.137 7.46,12.523 14.481,29.608 16.254,42.571 1.116,8.714 0.711,17.58 -0.549,26.028 0,0 3.903,10.637 12.311,9.156 10.657,-1.876 13.277,-12.202 13.277,-12.202 0,0 5.648,8.707 15.423,6.043 9.772,-2.665 10.386,-13.081 10.386,-13.081 0,0 5.686,8.525 15.232,4.458 10.84,-4.614 8.76,-16.041 8.76,-16.041"
     style="fill:#000000;fill-opacity:1;fill-rule:nonzero;stroke:none"
     id="path23492" />
  <path
     d="m 673.281,585.327 c -4.497,-3.667 -9.889,-7.488 -16.236,-11.169 l -0.275,-0.155 c -9.425,-5.432 -21.06,-8.413 -28.881,-9.785 -2.617,-0.468 -6.427,-0.923 -9.855,-1.287 -14.261,9.695 -29.753,17.089 -45.947,21.812 9.761,7.545 19.344,16.484 25.454,24.796 5.695,7.776 9.803,15.629 12.763,22.84 0,0 7.549,9.305 16.625,4.308 9.079,-4.996 7.891,-15.824 7.891,-15.824 0,0 8.573,5.846 15.864,0.214 7.29,-5.634 5.764,-16.337 5.764,-16.337 0,0 9.384,4.628 15.902,-1.787 8.216,-8.085 0.931,-17.626 0.931,-17.626"
     style="fill:#000000;fill-opacity:1;fill-rule:nonzero;stroke:none"
     id="path23496" />
  <path
     d="m 679.568,580.142 c 0,0 10.006,5.618 16.482,-2.842 6.478,-8.461 0.27,-16.514 0.27,-16.514 0,0 9.798,2.966 15.612,-5.738 5.814,-8.706 -1.947,-16.876 -1.947,-16.876 0,0 10.991,2.01 15.068,-6.192 4.079,-8.202 -6.028,-13.256 -6.028,-13.256 -6.261,-1.502 -13.003,-2.748 -19.935,-3.446 -13.566,-1.375 -25.629,-0.299 -34.324,1.132 -0.265,0.377 -0.53,0.76 -0.797,1.137 -10.452,14.809 -22.799,27.765 -36.5,38.496 0.636,0.095 1.243,0.193 1.816,0.295 8.388,1.498 20.711,4.569 31.449,10.714 l 0.29,0.167 c 7.358,4.267 13.516,8.703 18.544,12.923"
     style="fill:#000000;fill-opacity:1;fill-rule:nonzero;stroke:none"
     id="path23500" />
  <path
     d="m 640.098,254.128 c 2.114,0.052 4.306,0.181 6.556,0.405 8.532,0.86 15.85,3.377 21.891,6.491"
     style="fill:#000000;fill-opacity:1;fill-rule:nonzero;stroke:none"
     id="path23504" />
  <path
     d="m 565.92,114.88 c -1.845,0.053 -4.219,0.083 -5.504,0.023 -1.753,-0.094 -3.596,-0.27 -5.499,-0.551 0,0 -1.121,4.672 4.412,9.536 5.531,4.861 9.608,3.087 9.608,3.087 0,0 -1.89,4.209 2.103,8.182 3.992,3.974 9.504,3.268 9.504,3.268 0,0 -2.808,3.731 1.283,8.606 4.181,4.98 9.72,3.628 9.72,3.628 0.768,-0.26 7.358,-1.475 13.173,-2.494 -11.717,-11.745 -24.648,-22.885 -38.8,-33.285"
     style="fill:#000000;fill-opacity:1;fill-rule:nonzero;stroke:none"
     id="path23508" />
  <path
     d="m 611.46,155.127 c -1.098,0.181 -2.395,0.402 -3.778,0.641 -3.462,0.601 -7.484,1.325 -10.401,1.873 -0.072,0.012 -0.14,0.023 -0.208,0.036 -1.261,1.144 -3.577,4.006 -0.936,7.97 3.47,5.212 8.864,5.31 8.864,5.31 0,0 -3.624,2.699 -0.168,8.159 3.456,5.459 7.752,4.815 7.752,4.815 0,0 -3.236,3.186 -0.208,8.72 3.028,5.531 9.845,5.317 9.845,5.317 2.326,-0.238 4.767,-0.287 7.299,-0.079 4.135,0.372 7.996,1.117 11.568,2.111 2.635,0.722 4.869,1.465 6.667,2.128 -10.258,-16.388 -22.347,-32.14 -36.296,-47.001"
     style="fill:#000000;fill-opacity:1;fill-rule:nonzero;stroke:none"
     id="path23512" />
  <path
     d="m 654.649,213.726 c -0.068,-0.029 -0.139,-0.06 -0.212,-0.092 -1.079,-0.488 -2.603,-1.158 -4.345,-1.886 -3.471,-1.462 -7.908,-3.16 -11.146,-4.042 -3.133,-0.873 -6.512,-1.524 -10.076,-1.845 -1.006,-0.084 -1.996,-0.113 -2.969,-0.101 0,0 -5.791,2.898 -3.557,8.808 2.233,5.909 8.92,6.9 8.92,6.9 0,0 -5.208,3.1 -3.1,9.449 2.108,6.348 8.94,6.88 8.94,6.88 0,0 -6.508,1.457 -4.636,8.447 1.953,7.285 7.63,7.885 7.63,7.885 2.114,0.052 4.304,0.181 6.556,0.404 8.532,0.861 15.85,3.379 21.891,6.492 3.521,1.769 6.889,4.081 9.417,5.989 -5.83,-18.186 -13.592,-36.042 -23.313,-53.288"
     style="fill:#000000;fill-opacity:1;fill-rule:nonzero;stroke:none"
     id="path23516" />
  <path
     d="m 681.816,280.116 c 0,0 -5.818,-5.964 -14.835,-10.85 -0.672,-0.388 -1.351,-0.753 -2.016,-1.085 l -0.088,-0.047 c -5.267,-2.713 -11.592,-4.89 -19.017,-5.642 -0.696,-0.071 -1.388,-0.128 -2.072,-0.179 0,0 -7.867,0.557 -6.759,7.413 0.933,5.774 7.879,8.276 7.879,8.276 0,0 -6.682,1.752 -6.072,8.258 0.61,6.508 7.206,7.924 7.206,7.924 0,0 -6.41,1.152 -6.552,6.889 -0.15,5.992 7.93,8.845 7.93,8.845 3.594,1.34 7.577,3.171 11.877,5.659 3.463,1.999 7.128,4.42 10.965,7.345 4.727,3.603 8.75,7.257 12.166,10.809 2.456,2.604 5.698,6.632 8.672,10.478 -0.536,-21.419 -3.624,-42.927 -9.284,-64.093"
     style="fill:#000000;fill-opacity:1;fill-rule:nonzero;stroke:none"
     id="path23520" />
  <path
     d="m 691.117,357.122 c -1.077,-1.469 -2.611,-3.535 -4.34,-5.811 -3.324,-4.39 -7.487,-9.633 -9.979,-12.269 -3.142,-3.261 -6.858,-6.641 -11.249,-9.992 -3.576,-2.725 -6.959,-4.956 -10.116,-6.78 l -0.016,-0.01 c -0.011,-0.006 -0.025,-0.012 -0.044,-0.023 -1.285,-0.744 -2.593,-1.313 -3.895,-1.804 0,0 -10.713,-4.313 -12.985,6.115 -1.876,8.627 6.745,12.937 6.745,12.937 0,0 -8.064,-0.016 -9.449,7.148 -1.384,7.165 5.203,11.234 5.203,11.234 0,0 -7.116,-1.606 -9.163,6.939 -1.652,6.905 7.137,11.547 7.137,11.547 7.335,4.426 15.734,10.998 24.344,20.693 5.911,6.699 9.995,13.743 12.804,20.509 1.415,3.32 2.656,6.954 3.716,10.488 6.966,-22.998 10.74,-46.846 11.287,-70.921"
     style="fill:#000000;fill-opacity:1;fill-rule:nonzero;stroke:none"
     id="path23524" />
  <path
     d="m 675.273,441.726 -1.892,-7.089 c -1.223,-4.608 -2.82,-9.718 -4.652,-14.012 -2.516,-6.048 -6.14,-12.306 -11.4,-18.266 -6.203,-6.981 -12.212,-12.158 -17.673,-16.005 0,0 -11.318,-8.32 -15.47,2.659 -2.924,7.73 4.08,13.342 4.08,13.342 0,0 -7.784,-3.669 -11.688,4.712 -4.029,8.643 2.559,12.903 2.559,12.903 0,0 -7.444,-2.384 -12.179,5.505 -4.276,7.127 6.811,15.007 6.811,15.007 6.919,4.907 13.771,11.105 19.383,18.879 7.94,11.05 11.862,24.541 13.877,36.287 0.073,0.511 0.141,1.015 0.204,1.512 3.112,-4.672 6.056,-9.418 8.837,-14.236 7.643,-13.248 14.046,-27.033 19.203,-41.198"
     style="fill:#000000;fill-opacity:1;fill-rule:nonzero;stroke:none"
     id="path23528" />
</svg>
