<?xml version="1.0" encoding="UTF-8" standalone="no"?>
<!-- Created with Inkscape (http://www.inkscape.org/) -->

<svg
   version="1.1"
   id="svg47626"
   width="793.70135"
   height="793.70135"
   viewBox="0 0 793.70135 793.70135"
   sodipodi:docname="kuyou.svg"
   inkscape:version="1.2 (dc2aeda, 2022-05-15)"
   xmlns:inkscape="http://www.inkscape.org/namespaces/inkscape"
   xmlns:sodipodi="http://sodipodi.sourceforge.net/DTD/sodipodi-0.dtd"
   xmlns="http://www.w3.org/2000/svg"
   xmlns:svg="http://www.w3.org/2000/svg">
  <defs
     id="defs47630">
    <clipPath
       clipPathUnits="userSpaceOnUse"
       id="clipPath48254">
      <path
         d="M -561.4131,585.8522 H 33.862897 V -9.4238 H -561.4131 Z"
         id="path48256"
         style="stroke-width:0.999998" />
    </clipPath>
    <clipPath
       clipPathUnits="userSpaceOnUse"
       id="clipPath48260">
      <path
         d="M -531.1924,581.5885 H 64.083597 V -13.6875 H -531.1924 Z"
         id="path48262"
         style="stroke-width:0.999998" />
    </clipPath>
    <clipPath
       clipPathUnits="userSpaceOnUse"
       id="clipPath48266">
      <path
         d="M -550.2637,577.3248 H 45.012297 V -17.9512 H -550.2637 Z"
         id="path48268"
         style="stroke-width:0.999998" />
    </clipPath>
    <clipPath
       clipPathUnits="userSpaceOnUse"
       id="clipPath48273">
      <path
         d="M -556.4014,578.0143 H 38.874597 V -17.2617 H -556.4014 Z"
         id="path48275"
         style="stroke-width:0.999998" />
    </clipPath>
    <clipPath
       clipPathUnits="userSpaceOnUse"
       id="clipPath48279">
      <path
         d="M -586.5449,579.5026 H 8.7310974 V -15.7734 H -586.5449 Z"
         id="path48281"
         style="stroke-width:0.999998" />
    </clipPath>
    <clipPath
       clipPathUnits="userSpaceOnUse"
       id="clipPath48285">
      <path
         d="M -584.1943,578.9381 H 11.081697 V -16.3379 H -584.1943 Z"
         id="path48287"
         style="stroke-width:0.999998" />
    </clipPath>
    <clipPath
       clipPathUnits="userSpaceOnUse"
       id="clipPath48291">
      <path
         d="M -538.2217,577.9479 H 57.054297 V -17.3281 H -538.2217 Z"
         id="path48293"
         style="stroke-width:0.999998" />
    </clipPath>
    <clipPath
       clipPathUnits="userSpaceOnUse"
       id="clipPath48297">
      <path
         d="m -369.3838,95.5431 h 595.276 v -595.276 h -595.276 z"
         id="path48299"
         style="stroke-width:0.999998" />
    </clipPath>
    <clipPath
       clipPathUnits="userSpaceOnUse"
       id="clipPath48303">
      <path
         d="m -369.3838,499.736 h 595.276 V -95.54 h -595.276 z"
         id="path48305"
         style="stroke-width:0.999998" />
    </clipPath>
    <clipPath
       clipPathUnits="userSpaceOnUse"
       id="clipPath48309">
      <path
         d="m -205.4658,104.0031 h 595.276 v -595.276 h -595.276 z"
         id="path48311"
         style="stroke-width:0.999998" />
    </clipPath>
    <clipPath
       clipPathUnits="userSpaceOnUse"
       id="clipPath48315">
      <path
         d="m -491.2725,389.8102 h 595.276 v -595.276 h -595.276 z"
         id="path48317"
         style="stroke-width:0.999998" />
    </clipPath>
    <clipPath
       clipPathUnits="userSpaceOnUse"
       id="clipPath48321">
      <path
         d="m -95.541,225.8927 h 595.276 v -595.276 H -95.541 Z"
         id="path48323"
         style="stroke-width:0.999998" />
    </clipPath>
    <clipPath
       clipPathUnits="userSpaceOnUse"
       id="clipPath48327">
      <path
         d="M -499.7334,225.8927 H 95.542597 v -595.276 H -499.7334 Z"
         id="path48329"
         style="stroke-width:0.999998" />
    </clipPath>
    <clipPath
       clipPathUnits="userSpaceOnUse"
       id="clipPath48333">
      <path
         d="m -104.001,389.8102 h 595.276 v -595.276 h -595.276 z"
         id="path48335"
         style="stroke-width:0.999998" />
    </clipPath>
    <clipPath
       clipPathUnits="userSpaceOnUse"
       id="clipPath48339">
      <path
         d="m -389.8086,104.0031 h 595.276 v -595.276 h -595.276 z"
         id="path48341"
         style="stroke-width:0.999998" />
    </clipPath>
    <clipPath
       clipPathUnits="userSpaceOnUse"
       id="clipPath48345">
      <path
         d="m -414.0127,297.6393 h 595.276 v -595.276 h -595.276 z"
         id="path48347"
         style="stroke-width:0.999998" />
    </clipPath>
    <clipPath
       clipPathUnits="userSpaceOnUse"
       id="clipPath48351">
      <path
         d="M -542.9326,584.5729 H 52.343397 V -10.7031 H -542.9326 Z"
         id="path48353"
         style="stroke-width:0.999998" />
    </clipPath>
    <clipPath
       clipPathUnits="userSpaceOnUse"
       id="clipPath48357">
      <path
         d="M -545.417,584.5729 H 49.858997 V -10.7031 H -545.417 Z"
         id="path48359"
         style="stroke-width:0.999998" />
    </clipPath>
    <clipPath
       clipPathUnits="userSpaceOnUse"
       id="clipPath48363">
      <path
         d="M -568.2266,575.819 H 27.049397 V -19.457 H -568.2266 Z"
         id="path48365"
         style="stroke-width:0.999998" />
    </clipPath>
    <clipPath
       clipPathUnits="userSpaceOnUse"
       id="clipPath48369">
      <path
         d="M -557.4951,577.8502 H 37.780897 V -17.4258 H -557.4951 Z"
         id="path48371"
         style="stroke-width:0.999998" />
    </clipPath>
    <clipPath
       clipPathUnits="userSpaceOnUse"
       id="clipPath48375">
      <path
         d="M -574.5459,585.8522 H 20.730097 V -9.4238 H -574.5459 Z"
         id="path48377"
         style="stroke-width:0.999998" />
    </clipPath>
    <clipPath
       clipPathUnits="userSpaceOnUse"
       id="clipPath48381">
      <path
         d="M -576.3691,585.5885 H 18.906897 V -9.6875 H -576.3691 Z"
         id="path48383"
         style="stroke-width:0.999998" />
    </clipPath>
    <clipPath
       clipPathUnits="userSpaceOnUse"
       id="clipPath48387">
      <path
         d="M -557.0645,585.8483 H 38.211497 V -9.4277 H -557.0645 Z"
         id="path48389"
         style="stroke-width:0.999998" />
    </clipPath>
    <clipPath
       clipPathUnits="userSpaceOnUse"
       id="clipPath48393">
      <path
         d="M -572.8174,586.1354 H 22.458597 V -9.1406 H -572.8174 Z"
         id="path48395"
         style="stroke-width:0.999998" />
    </clipPath>
    <clipPath
       clipPathUnits="userSpaceOnUse"
       id="clipPath48400">
      <path
         d="M -528.0898,575.3815 H 67.186197 V -19.8945 H -528.0898 Z"
         id="path48402"
         style="stroke-width:0.999998" />
    </clipPath>
    <clipPath
       clipPathUnits="userSpaceOnUse"
       id="clipPath48406">
      <path
         d="M -553.8975,585.8483 H 41.378497 V -9.4277 H -553.8975 Z"
         id="path48408"
         style="stroke-width:0.999998" />
    </clipPath>
    <clipPath
       clipPathUnits="userSpaceOnUse"
       id="clipPath48412">
      <path
         d="M -564.5732,585.8483 H 30.702797 V -9.4277 H -564.5732 Z"
         id="path48414"
         style="stroke-width:0.999998" />
    </clipPath>
    <clipPath
       clipPathUnits="userSpaceOnUse"
       id="clipPath48418">
      <path
         d="M -536.6982,584.5729 H 58.577797 V -10.7031 H -536.6982 Z"
         id="path48420"
         style="stroke-width:0.999998" />
    </clipPath>
    <clipPath
       clipPathUnits="userSpaceOnUse"
       id="clipPath48424">
      <path
         d="M -548.9834,585.8522 H 46.292597 V -9.4238 H -548.9834 Z"
         id="path48426"
         style="stroke-width:0.999998" />
    </clipPath>
    <clipPath
       clipPathUnits="userSpaceOnUse"
       id="clipPath48430">
      <path
         d="M -567.7754,585.8522 H 27.500597 V -9.4238 H -567.7754 Z"
         id="path48432"
         style="stroke-width:0.999998" />
    </clipPath>
    <clipPath
       clipPathUnits="userSpaceOnUse"
       id="clipPath48436">
      <path
         d="M -540.8213,585.8483 H 54.454697 V -9.4277 H -540.8213 Z"
         id="path48438"
         style="stroke-width:0.999998" />
    </clipPath>
  </defs>
  <sodipodi:namedview
     id="namedview47628"
     pagecolor="#ffffff"
     bordercolor="#000000"
     borderopacity="0.25"
     inkscape:showpageshadow="2"
     inkscape:pageopacity="0.0"
     inkscape:pagecheckerboard="0"
     inkscape:deskcolor="#d1d1d1"
     showgrid="false"
     inkscape:zoom="0.29734106"
     inkscape:cx="-215.24105"
     inkscape:cy="396.85068"
     inkscape:window-width="1419"
     inkscape:window-height="456"
     inkscape:window-x="0"
     inkscape:window-y="25"
     inkscape:window-maximized="0"
     inkscape:current-layer="svg47626">
    <inkscape:page
       x="0"
       y="0"
       id="page47632"
       width="793.70135"
       height="793.70135" />
  </sodipodi:namedview>
  <path
     d="m 492.511,127.392 c 0,52.833 -42.828,95.661 -95.661,95.661 -52.835,0 -95.663,-42.828 -95.663,-95.661 0,-52.8332 42.828,-95.6611 95.663,-95.6611 52.833,0 95.661,42.8279 95.661,95.6611"
     style="fill:#000000;fill-opacity:1;fill-rule:nonzero;stroke:none"
     id="path47746" />
  <path
     d="m 492.511,666.315 c 0,52.832 -42.828,95.659 -95.661,95.659 -52.835,0 -95.663,-42.827 -95.663,-95.659 0,-52.835 42.828,-95.663 95.663,-95.663 52.833,0 95.661,42.828 95.661,95.663"
     style="fill:#000000;fill-opacity:1;fill-rule:nonzero;stroke:none"
     id="path47750" />
  <path
     d="m 273.954,138.672 c 37.36,37.36 37.36,97.926 0,135.285 -37.36,37.36 -97.926,37.36 -135.286,0.001 -37.358,-37.358 -37.358,-97.926 0.002,-135.286 37.358,-37.36 97.927,-37.359 135.284,0"
     style="fill:#000000;fill-opacity:1;fill-rule:nonzero;stroke:none"
     id="path47754" />
  <path
     d="m 655.028,519.747 c 37.36,37.36 37.36,97.926 0,135.288 -37.359,37.356 -97.927,37.356 -135.285,0 -37.359,-37.362 -37.359,-97.928 0.001,-135.288 37.36,-37.359 97.926,-37.359 135.284,0"
     style="fill:#000000;fill-opacity:1;fill-rule:nonzero;stroke:none"
     id="path47758" />
  <path
     d="m 127.388,301.192 c 52.833,0 95.661,42.827 95.661,95.661 0,52.833 -42.828,95.661 -95.661,95.663 -52.8322,0 -95.6614,-42.827 -95.6614,-95.663 0,-52.834 42.8292,-95.661 95.6614,-95.661"
     style="fill:#000000;fill-opacity:1;fill-rule:nonzero;stroke:none"
     id="path47762" />
  <path
     d="m 666.309,301.192 c 52.833,0 95.661,42.827 95.661,95.662 0,52.835 -42.828,95.662 -95.661,95.662 -52.833,0 -95.661,-42.827 -95.661,-95.663 0,-52.834 42.828,-95.661 95.661,-95.661"
     style="fill:#000000;fill-opacity:1;fill-rule:nonzero;stroke:none"
     id="path47766" />
  <path
     d="m 138.668,519.747 c 37.36,-37.359 97.926,-37.359 135.285,0 37.358,37.36 37.358,97.926 0.001,135.288 -37.357,37.356 -97.926,37.356 -135.288,-0.004 -37.357,-37.358 -37.357,-97.927 0.002,-135.284"
     style="fill:#000000;fill-opacity:1;fill-rule:nonzero;stroke:none"
     id="path47770" />
  <path
     d="m 519.744,138.672 c 37.359,-37.36 97.926,-37.36 135.285,0 37.359,37.36 37.359,97.928 0,135.286 -37.357,37.359 -97.924,37.359 -135.285,-0.001 -37.36,-37.359 -37.36,-97.926 0,-135.285"
     style="fill:#000000;fill-opacity:1;fill-rule:nonzero;stroke:none"
     id="path47774" />
  <path
     d="m 552.016,396.853 c 0,85.695 -69.471,155.165 -155.166,155.165 -85.695,0 -155.167,-69.47 -155.167,-155.165 0,-85.695 69.472,-155.167 155.167,-155.167 85.695,0 155.166,69.472 155.166,155.167"
     style="fill:#000000;fill-opacity:1;fill-rule:nonzero;stroke:none"
     id="path47778" />
</svg>
