<?xml version="1.0" encoding="UTF-8" standalone="no"?>
<!-- Created with Inkscape (http://www.inkscape.org/) -->

<svg
   version="1.1"
   id="svg54972"
   width="793.70135"
   height="793.70135"
   viewBox="0 0 793.70135 793.70135"
   sodipodi:docname="mouri-motonari-alt.svg"
   inkscape:version="1.2 (dc2aeda, 2022-05-15)"
   xmlns:inkscape="http://www.inkscape.org/namespaces/inkscape"
   xmlns:sodipodi="http://sodipodi.sourceforge.net/DTD/sodipodi-0.dtd"
   xmlns="http://www.w3.org/2000/svg"
   xmlns:svg="http://www.w3.org/2000/svg">
  <defs
     id="defs54976">
    <clipPath
       clipPathUnits="userSpaceOnUse"
       id="clipPath55530">
      <path
         d="M -557.0645,585.8483 H 38.211497 V -9.4277 H -557.0645 Z"
         id="path55532"
         style="stroke-width:0.999998" />
    </clipPath>
    <clipPath
       clipPathUnits="userSpaceOnUse"
       id="clipPath55536">
      <path
         d="M -542.9326,584.5729 H 52.343397 V -10.7031 H -542.9326 Z"
         id="path55538"
         style="stroke-width:0.999998" />
    </clipPath>
    <clipPath
       clipPathUnits="userSpaceOnUse"
       id="clipPath55542">
      <path
         d="M -545.417,584.5729 H 49.858997 V -10.7031 H -545.417 Z"
         id="path55544"
         style="stroke-width:0.999998" />
    </clipPath>
    <clipPath
       clipPathUnits="userSpaceOnUse"
       id="clipPath55548">
      <path
         d="M -548.9834,585.8522 H 46.292597 V -9.4238 H -548.9834 Z"
         id="path55550"
         style="stroke-width:0.999998" />
    </clipPath>
    <clipPath
       clipPathUnits="userSpaceOnUse"
       id="clipPath55554">
      <path
         d="M -553.8975,585.8483 H 41.378497 V -9.4277 H -553.8975 Z"
         id="path55556"
         style="stroke-width:0.999998" />
    </clipPath>
    <clipPath
       clipPathUnits="userSpaceOnUse"
       id="clipPath55561">
      <path
         d="m -308.1426,541.1891 h 595.276 v -595.276 h -595.276 z"
         id="path55563"
         style="stroke-width:0.999998" />
    </clipPath>
    <clipPath
       clipPathUnits="userSpaceOnUse"
       id="clipPath55567">
      <path
         d="m -314.9531,51.7125 h 595.276 v -595.276 h -595.276 z"
         id="path55569"
         style="stroke-width:0.999998" />
    </clipPath>
    <clipPath
       clipPathUnits="userSpaceOnUse"
       id="clipPath55573">
      <path
         d="M -561.4131,585.8522 H 33.862897 V -9.4238 H -561.4131 Z"
         id="path55575"
         style="stroke-width:0.999998" />
    </clipPath>
    <clipPath
       clipPathUnits="userSpaceOnUse"
       id="clipPath55579">
      <path
         d="M -586.5449,579.5026 H 8.7310974 V -15.7734 H -586.5449 Z"
         id="path55581"
         style="stroke-width:0.999998" />
    </clipPath>
    <clipPath
       clipPathUnits="userSpaceOnUse"
       id="clipPath55585">
      <path
         d="M -576.3691,585.5885 H 18.906897 V -9.6875 H -576.3691 Z"
         id="path55587"
         style="stroke-width:0.999998" />
    </clipPath>
    <clipPath
       clipPathUnits="userSpaceOnUse"
       id="clipPath55591">
      <path
         d="m -360.7998,118.5787 h 595.276 v -595.276 h -595.276 z"
         id="path55593"
         style="stroke-width:0.999998" />
    </clipPath>
    <clipPath
       clipPathUnits="userSpaceOnUse"
       id="clipPath55597">
      <path
         d="M -550.2637,577.3248 H 45.012297 V -17.9512 H -550.2637 Z"
         id="path55599"
         style="stroke-width:0.999998" />
    </clipPath>
    <clipPath
       clipPathUnits="userSpaceOnUse"
       id="clipPath55603">
      <path
         d="M -531.1924,581.5885 H 64.083597 V -13.6875 H -531.1924 Z"
         id="path55605"
         style="stroke-width:0.999998" />
    </clipPath>
    <clipPath
       clipPathUnits="userSpaceOnUse"
       id="clipPath55609">
      <path
         d="M -568.2266,575.819 H 27.049397 V -19.457 H -568.2266 Z"
         id="path55611"
         style="stroke-width:0.999998" />
    </clipPath>
    <clipPath
       clipPathUnits="userSpaceOnUse"
       id="clipPath55615">
      <path
         d="M -567.7754,585.8522 H 27.500597 V -9.4238 H -567.7754 Z"
         id="path55617"
         style="stroke-width:0.999998" />
    </clipPath>
    <clipPath
       clipPathUnits="userSpaceOnUse"
       id="clipPath55621">
      <path
         d="M -557.4951,577.8502 H 37.780897 V -17.4258 H -557.4951 Z"
         id="path55623"
         style="stroke-width:0.999998" />
    </clipPath>
    <clipPath
       clipPathUnits="userSpaceOnUse"
       id="clipPath55627">
      <path
         d="M -564.5732,585.8483 H 30.702797 V -9.4277 H -564.5732 Z"
         id="path55629"
         style="stroke-width:0.999998" />
    </clipPath>
    <clipPath
       clipPathUnits="userSpaceOnUse"
       id="clipPath55633">
      <path
         d="M -536.6982,584.5729 H 58.577797 V -10.7031 H -536.6982 Z"
         id="path55635"
         style="stroke-width:0.999998" />
    </clipPath>
    <clipPath
       clipPathUnits="userSpaceOnUse"
       id="clipPath55640">
      <path
         d="M -528.0898,575.3815 H 67.186197 V -19.8945 H -528.0898 Z"
         id="path55642"
         style="stroke-width:0.999998" />
    </clipPath>
    <clipPath
       clipPathUnits="userSpaceOnUse"
       id="clipPath55646">
      <path
         d="M -540.8213,585.8483 H 54.454697 V -9.4277 H -540.8213 Z"
         id="path55648"
         style="stroke-width:0.999998" />
    </clipPath>
    <clipPath
       clipPathUnits="userSpaceOnUse"
       id="clipPath55652">
      <path
         d="m -250.8154,93.5582 h 595.276 v -595.276 h -595.276 z"
         id="path55654"
         style="stroke-width:0.999998" />
    </clipPath>
    <clipPath
       clipPathUnits="userSpaceOnUse"
       id="clipPath55658">
      <path
         d="M -538.2217,577.9479 H 57.054297 V -17.3281 H -538.2217 Z"
         id="path55660"
         style="stroke-width:0.999998" />
    </clipPath>
    <clipPath
       clipPathUnits="userSpaceOnUse"
       id="clipPath55664">
      <path
         d="M -584.1943,578.9381 H 11.081697 V -16.3379 H -584.1943 Z"
         id="path55666"
         style="stroke-width:0.999998" />
    </clipPath>
    <clipPath
       clipPathUnits="userSpaceOnUse"
       id="clipPath55670">
      <path
         d="M -574.5459,585.8522 H 20.730097 V -9.4238 H -574.5459 Z"
         id="path55672"
         style="stroke-width:0.999998" />
    </clipPath>
    <clipPath
       clipPathUnits="userSpaceOnUse"
       id="clipPath55676">
      <path
         d="M -572.8174,586.1354 H 22.458597 V -9.1406 H -572.8174 Z"
         id="path55678"
         style="stroke-width:0.999998" />
    </clipPath>
    <clipPath
       clipPathUnits="userSpaceOnUse"
       id="clipPath55682">
      <path
         d="M -556.4014,578.0143 H 38.874597 V -17.2617 H -556.4014 Z"
         id="path55684"
         style="stroke-width:0.999998" />
    </clipPath>
  </defs>
  <sodipodi:namedview
     id="namedview54974"
     pagecolor="#ffffff"
     bordercolor="#000000"
     borderopacity="0.25"
     inkscape:showpageshadow="2"
     inkscape:pageopacity="0.0"
     inkscape:pagecheckerboard="0"
     inkscape:deskcolor="#d1d1d1"
     showgrid="false"
     inkscape:zoom="0.29734106"
     inkscape:cx="-215.24105"
     inkscape:cy="396.85068"
     inkscape:window-width="1419"
     inkscape:window-height="456"
     inkscape:window-x="0"
     inkscape:window-y="25"
     inkscape:window-maximized="0"
     inkscape:current-layer="svg54972">
    <inkscape:page
       x="0"
       y="0"
       id="page54978"
       width="793.70135"
       height="793.70135" />
  </sodipodi:namedview>
  <path
     d="m 419.936,68.9521 c -1.21,0.7774 -2.822,0.4214 -3.598,-0.7853 -3.944,-6.0786 -10.25,-9.716 -19.488,-9.7666 -9.24,0.0506 -15.546,3.688 -19.49,9.7666 -0.776,1.2067 -2.388,1.5627 -3.598,0.7853 -1.215,-0.7746 -1.563,-2.3853 -0.791,-3.5959 4.793,-7.5694 13.207,-12.2107 23.879,-12.1693 10.67,-0.0414 19.084,4.5999 23.877,12.1693 0.772,1.2106 0.424,2.8213 -0.791,3.5959 m 14.395,18.4253 c -0.92,-21.1266 -13.895,-39.7052 -37.481,-39.7212 -23.588,0.016 -36.563,18.5946 -37.483,39.7212 3.519,0.968 8.271,2.4187 12.044,4.1027 3.517,1.5827 6.365,3.516 8.332,5.0493 1.033,-2.408 2.78,-5.7546 5.673,-9.5733 5.584,-7.38 9.61,-10.3826 9.798,-10.5186 l 1.636,-1.2174 1.634,1.2174 c 0.188,0.136 4.214,3.1386 9.798,10.5186 2.893,3.8187 4.64,7.1653 5.673,9.5733 1.967,-1.5333 4.815,-3.4666 8.332,-5.0493 3.773,-1.684 8.525,-3.1347 12.044,-4.1027 m 55.648,151.3886 c -0.567,1.324 -2.094,1.94 -3.419,1.374 -1.321,-0.564 -1.935,-2.096 -1.373,-3.418 2.805,-6.681 2.26,-13.944 -2.896,-21.612 -5.231,-7.616 -11.784,-10.793 -19.028,-10.644 -1.437,0.035 -2.635,-1.098 -2.675,-2.537 -0.038,-1.439 1.098,-2.633 2.535,-2.673 8.952,-0.284 17.52,4.073 23.48,12.924 6.037,8.798 6.936,18.368 3.376,26.586 M 437.26,200.372 c 1.178,3.452 2.646,8.196 3.371,12.265 0.665,3.801 0.667,7.241 0.5,9.732 2.575,-0.5 6.328,-0.932 11.109,-0.685 9.238,0.476 13.988,2.121 14.206,2.198 l 1.934,0.683 -0.079,2.052 c -0.004,0.232 -0.221,5.252 -3.181,14.019 -1.532,4.537 -3.313,7.866 -4.721,10.074 2.373,0.766 5.573,2.031 8.861,4.047 3.516,2.171 7.388,5.284 10.167,7.649 16.949,-12.646 25.008,-33.826 11.75,-53.334 -13.26,-19.505 -35.922,-19.809 -53.917,-8.7 m 80.297,135.393 c 4.29,-7.426 1.744,-16.917 -5.68,-21.204 -4.228,-2.44 -10.092,-3.111 -15.533,0.004 -0.867,0.496 -3.408,1.961 -7.071,4.076 1.848,5.075 1.524,10.896 -1.388,15.945 -2.916,5.044 -7.796,8.235 -13.114,9.172 0.002,4.229 0.002,7.165 0.006,8.163 0.022,6.269 3.535,11.013 7.763,13.452 7.424,4.286 16.917,1.745 21.204,-5.682 3.008,-5.212 2.648,-11.452 -0.403,-16.184 5.623,0.276 11.207,-2.53 14.216,-7.742 m -32.274,-55.837 c -6.018,0 -11.242,3.434 -13.815,8.441 -2.572,-5.007 -7.794,-8.441 -13.812,-8.441 -8.577,0 -15.525,6.949 -15.525,15.522 0,4.88 2.353,10.296 7.772,13.45 0.861,0.502 3.401,1.969 7.063,4.085 3.472,-4.137 8.676,-6.769 14.502,-6.771 5.828,0.002 11.032,2.634 14.503,6.771 3.661,-2.116 6.202,-3.583 7.065,-4.085 5.419,-3.154 7.769,-8.57 7.769,-13.45 0,-8.573 -6.948,-15.522 -15.522,-15.522 m -13.819,32.912 c -6.797,0 -12.302,5.506 -12.302,12.302 0,6.791 5.505,12.3 12.302,12.3 6.796,0 12.303,-5.509 12.303,-12.3 0,-6.796 -5.507,-12.302 -12.303,-12.302 m -46.028,22.958 c 3.008,5.209 8.594,8.017 14.218,7.741 -3.051,4.734 -3.412,10.974 -0.404,16.184 4.288,7.427 13.78,9.97 21.205,5.683 4.225,-2.44 7.738,-7.185 7.762,-13.453 0.004,-0.999 0.004,-3.932 0.004,-8.162 -5.315,-0.937 -10.197,-4.129 -13.113,-9.174 -2.91,-5.047 -3.234,-10.869 -1.388,-15.944 -3.661,-2.115 -6.205,-3.58 -7.07,-4.077 -5.44,-3.115 -11.307,-2.444 -15.532,-0.003 -7.426,4.287 -9.97,13.777 -5.682,21.205 M 333.11,201.929 c -0.039,1.439 -1.237,2.572 -2.675,2.537 -7.244,-0.149 -13.797,3.028 -19.026,10.644 -5.158,7.668 -5.703,14.931 -2.896,21.612 0.561,1.322 -0.052,2.854 -1.375,3.418 -1.325,0.566 -2.852,-0.05 -3.419,-1.374 -3.56,-8.218 -2.661,-17.788 3.376,-26.586 5.96,-8.851 14.53,-13.208 23.48,-12.924 1.439,0.04 2.574,1.234 2.535,2.673 m -30.589,7.143 c -13.258,19.508 -5.199,40.688 11.75,53.334 2.779,-2.365 6.651,-5.478 10.167,-7.649 3.288,-2.016 6.488,-3.281 8.861,-4.047 -1.408,-2.208 -3.189,-5.537 -4.721,-10.074 -2.96,-8.767 -3.176,-13.787 -3.181,-14.019 l -0.079,-2.052 1.935,-0.683 c 0.217,-0.077 4.968,-1.722 14.206,-2.198 4.781,-0.247 8.533,0.185 11.108,0.685 -0.165,-2.491 -0.164,-5.931 0.5,-9.732 0.727,-4.069 2.193,-8.813 3.371,-12.265 -17.995,-11.109 -40.657,-10.805 -53.917,8.7 m 5.206,103.913 c 3.471,-4.137 8.676,-6.769 14.503,-6.771 5.827,0.002 11.031,2.634 14.502,6.771 3.662,-2.116 6.202,-3.583 7.064,-4.085 5.418,-3.154 7.771,-8.57 7.771,-13.45 0,-8.573 -6.948,-15.522 -15.525,-15.522 -6.017,0 -11.24,3.434 -13.812,8.441 -2.573,-5.007 -7.797,-8.441 -13.815,-8.441 -8.574,0 -15.522,6.949 -15.522,15.522 0,4.88 2.35,10.296 7.769,13.45 0.863,0.502 3.404,1.969 7.065,4.085 m 60.535,22.813 c 4.288,-7.428 1.744,-16.918 -5.682,-21.205 -4.225,-2.441 -10.092,-3.112 -15.532,0.003 -0.864,0.497 -3.409,1.962 -7.07,4.077 1.846,5.075 1.522,10.897 -1.388,15.944 -2.916,5.045 -7.796,8.237 -13.113,9.174 0,4.23 0,7.163 0.004,8.162 0.024,6.268 3.538,11.013 7.762,13.453 7.425,4.287 16.917,1.744 21.205,-5.683 3.01,-5.21 2.647,-11.45 -0.404,-16.184 5.624,0.276 11.21,-2.532 14.218,-7.741 m -33.726,-10.656 c 0,-6.796 -5.505,-12.302 -12.301,-12.302 -6.797,0 -12.304,5.506 -12.304,12.302 0,6.791 5.507,12.3 12.304,12.3 6.796,0 12.301,-5.509 12.301,-12.3 m -44.582,34.549 c 4.288,7.427 13.78,9.968 21.204,5.682 4.228,-2.439 7.741,-7.183 7.763,-13.452 0.004,-0.998 0.004,-3.934 0.006,-8.163 -5.318,-0.937 -10.198,-4.128 -13.114,-9.172 -2.911,-5.049 -3.236,-10.87 -1.388,-15.945 -3.663,-2.115 -6.204,-3.58 -7.071,-4.076 -5.441,-3.115 -11.305,-2.444 -15.533,-0.004 -7.424,4.287 -9.968,13.778 -5.68,21.204 3.009,5.212 8.593,8.018 14.216,7.742 -3.051,4.732 -3.411,10.972 -0.403,16.184 m 299.91,20.531 c -8.836,0 -16,7.164 -16,16 0,8.836 7.164,16 16,16 8.836,0 16,-7.164 16,-16 0,-8.836 -7.164,-16 -16,-16 m -17.888,307.497 c -16.191,14.48 -43.905,32.474 -54.38,38.21 -25.289,13.849 -53.338,22.043 -53.338,22.043 0,0 32.271,-15.527 52.271,-28.193 14.328,-9.076 35.771,-23.826 50.78,-37.274 50.477,-45.166 102.439,-116.366 102.388,-200.953 -0.007,-22.426 -6.459,-41.734 -18.436,-56.07 -9.525,-11.383 -22.563,-19.728 -39.008,-23.984 -2.388,10.159 -11.501,17.721 -22.389,17.724 -10.812,-0.003 -19.872,-7.459 -22.335,-17.511 -25.129,7.451 -49.54,28.738 -66.398,72.431 -12.268,31.08 -18.268,87.746 -41.165,133.303 -9.174,18.254 -20.738,28.318 -20.738,28.318 0,0 7.079,-12.208 14.495,-29.734 27.241,-64.381 25.913,-95.133 40.874,-134.395 17.495,-45.923 44.443,-69.248 72.331,-77.055 0.779,-11 9.275,-19.856 20.112,-21.184 1.164,-14.469 2.091,-32.46 2.091,-53.083 0,-20.498 -0.914,-43.59 -3.416,-68.407 -9.97,-98.661 -55.47,-147.892 -78.15,-167.7129 -23.258,-22.1919 -56.298,-37.8959 -56.298,-37.8959 0,0 30.929,6.5933 60.897,32.6226 23.592,20.5226 70.415,71.6702 80.517,172.2852 2.528,25.077 3.448,48.402 3.45,69.108 0,20.666 -0.919,38.718 -2.083,53.29 10.125,1.861 17.926,10.349 18.748,20.805 18.288,4.49 33.13,13.755 43.836,26.586 13.192,15.781 20.07,36.81 20.065,60.559 -0.052,87.596 -53.42,160.219 -104.721,206.167 M 717.64,456.889 c -2.403,-57.314 -28.914,-98.122 -75.691,-115.756 3.008,-15.843 4.581,-32.193 4.581,-48.911 0,-126.643 -85.017,-254.8284 -239.78,-260.1031 31.528,10.7093 62.238,33.7679 78.435,57.4612 26.223,38.3569 35.668,73.1359 33.446,124.2459 -2.395,55.076 -0.62,81.278 8.189,112.394 4.921,17.383 11.588,27.383 11.588,27.383 -58.667,30.002 -97.333,101.335 -98.545,187.285 C 438.751,619.771 418.972,658 418.972,658 c 0,0 16.89,-5.333 51.556,-34.667 41.621,-35.218 73.199,-117.382 81.547,-139.909 6.112,-16.486 23.889,-32.929 47.812,-23.558 19.379,7.59 25.854,27.405 24.642,45.689 -0.684,10.333 -2.221,18.24 -4.333,25.333 -31.667,96.667 -108.541,186.44 -202.198,230.701 141.077,0 306.41,-143.318 299.642,-304.7 M 203.834,412.222 c 8.836,0 16,-7.164 16,-16 0,-8.836 -7.164,-16 -16,-16 -8.836,0 -16,7.164 -16,16 0,8.836 7.164,16 16,16 m 125.607,335.75 c 0,0 -28.05,-8.194 -53.339,-22.043 -10.473,-5.736 -38.189,-23.73 -54.38,-38.21 -51.301,-45.948 -104.669,-118.571 -104.721,-206.167 -0.005,-23.749 6.873,-44.778 20.065,-60.559 10.706,-12.831 25.548,-22.096 43.838,-26.586 0.82,-10.456 8.621,-18.944 18.746,-20.805 -1.164,-14.572 -2.081,-32.624 -2.082,-53.29 0.002,-20.706 0.921,-44.031 3.45,-69.108 10.101,-100.615 56.924,-151.7626 80.516,-172.2852 29.968,-26.0293 60.897,-32.6226 60.897,-32.6226 0,0 -33.04,15.704 -56.298,37.8959 -22.68,19.8209 -68.18,69.0519 -78.15,167.7129 -2.502,24.817 -3.414,47.909 -3.414,68.407 0,20.623 0.925,38.614 2.089,53.083 10.837,1.328 19.333,10.184 20.112,21.184 27.888,7.807 54.836,31.132 72.331,77.055 14.961,39.262 13.634,70.014 40.874,134.395 7.416,17.526 14.495,29.734 14.495,29.734 0,0 -11.563,-10.064 -20.738,-28.318 -22.897,-45.557 -28.897,-102.223 -41.165,-133.303 -16.858,-43.693 -41.269,-64.98 -66.398,-72.431 -2.463,10.052 -11.523,17.508 -22.335,17.511 -10.888,-0.003 -20.001,-7.565 -22.389,-17.724 -16.445,4.256 -29.481,12.601 -39.008,23.984 -11.976,14.336 -18.429,33.644 -18.436,56.07 -0.051,84.587 51.911,155.787 102.388,200.953 15.009,13.448 36.452,28.198 50.78,37.274 20,12.666 52.272,28.193 52.272,28.193 M 173.502,530.888 c -2.112,-7.093 -3.649,-15.002 -4.333,-25.333 -1.212,-18.284 5.263,-38.099 24.643,-45.689 23.923,-9.373 41.701,7.072 47.811,23.558 8.348,22.527 39.926,104.691 81.547,139.909 34.666,29.334 51.556,34.667 51.556,34.667 0,0 -19.779,-38.229 -20.891,-117.112 -1.212,-85.95 -39.878,-157.283 -98.545,-187.285 0,0 6.667,-10 11.588,-27.383 8.809,-31.116 10.585,-57.318 8.191,-112.394 -2.223,-51.11 7.221,-85.889 33.445,-124.2459 16.196,-23.6933 46.906,-46.7519 78.434,-57.4612 -154.762,5.2747 -239.78,133.4601 -239.78,260.1031 0,16.718 1.574,33.068 4.581,48.911 -46.777,17.634 -73.2865,58.444 -75.6905,115.756 -6.768,161.382 158.5665,304.7 299.6415,304.7 C 282.043,717.328 205.169,627.555 173.502,530.888"
     style="fill:#000000;fill-opacity:1;fill-rule:nonzero;stroke:none"
     id="path55092" />
  <path
     d="m 334.419,124.745 c -6.774,-0.138 -12.902,2.834 -17.793,9.956 -4.823,7.17 -5.332,13.962 -2.709,20.21 0.525,1.236 -0.048,2.666 -1.284,3.196 -1.24,0.53 -2.668,-0.048 -3.198,-1.284 -3.329,-7.686 -2.488,-16.636 3.158,-24.863 5.574,-8.276 13.586,-12.352 21.958,-12.085 1.343,0.037 2.405,1.153 2.368,2.5 -0.036,1.344 -1.156,2.404 -2.5,2.37 m 24.315,-3.826 c -16.827,-10.39 -38.019,-10.106 -50.419,8.133 -12.397,18.243 -4.862,38.052 10.988,49.876 2.599,-2.211 6.22,-5.121 9.508,-7.153 3.075,-1.886 6.067,-3.068 8.287,-3.782 -1.318,-2.066 -2.984,-5.18 -4.416,-9.424 -2.769,-8.197 -2.969,-12.892 -2.975,-13.109 l -0.074,-1.917 1.81,-0.639 c 0.203,-0.075 4.644,-1.612 13.284,-2.057 4.472,-0.23 7.98,0.173 10.387,0.64 -0.155,-2.327 -0.154,-5.546 0.468,-9.1 0.68,-3.806 2.052,-8.24 3.152,-11.468"
     style="fill:#000000;fill-opacity:1;fill-rule:nonzero;stroke:none"
     id="path55096" />
  <path
     d="m 481.065,158.107 c -1.236,-0.528 -1.808,-1.96 -1.284,-3.195 2.623,-6.249 2.114,-13.041 -2.709,-20.211 -4.891,-7.122 -11.018,-10.093 -17.793,-9.956 -1.344,0.035 -2.464,-1.025 -2.5,-2.37 -0.037,-1.347 1.025,-2.463 2.369,-2.5 8.371,-0.266 16.384,3.81 21.957,12.086 5.647,8.227 6.488,17.176 3.158,24.862 -0.53,1.237 -1.958,1.814 -3.198,1.284 m 4.318,-29.054 c -12.4,-18.24 -33.592,-18.524 -50.419,-8.134 1.1,3.228 2.472,7.662 3.152,11.469 0.622,3.555 0.623,6.772 0.468,9.099 2.407,-0.466 5.915,-0.868 10.387,-0.639 8.64,0.445 13.081,1.983 13.285,2.057 l 1.81,0.638 -0.075,1.918 c -0.005,0.218 -0.205,4.911 -2.975,13.11 -1.432,4.242 -3.097,7.356 -4.416,9.422 2.22,0.714 5.214,1.898 8.287,3.783 3.288,2.031 6.909,4.941 9.508,7.152 15.85,-11.824 23.385,-31.632 10.988,-49.875"
     style="fill:#000000;fill-opacity:1;fill-rule:nonzero;stroke:none"
     id="path55100" />
  <path
     d="m 410.856,721.585 c 36.8,-16.836 70.032,-39.809 98.372,-67.817 48.627,-48.024 82.845,-110.898 96.132,-182.763 -2.274,-1.84 -4.922,-3.395 -8.023,-4.622 -4.06,-1.592 -7.742,-2.106 -11.092,-2.114 -0.022,0.132 0,0 0,0 -12.16,69.074 -44.696,129.421 -91.074,175.27 -24.6,24.298 -53.104,44.588 -84.585,60.046 l -3.151,-258.578 c 36.632,-4.726 65.713,-33.514 70.881,-70.006 -2.595,-1.617 -4.971,-3.875 -6.809,-6.649 -2.011,3.046 -4.67,5.473 -7.548,7.113 -0.416,0.241 -0.836,0.467 -1.263,0.679 -3.248,11.282 -9.314,21.354 -17.412,29.461 -10.124,10.109 -23.313,17.06 -38.094,19.301 l -1.798,-146.224 20.79,-12.88 c 12.756,11.336 34.749,11.367 48.702,3.595 -2.525,-2.105 -5.681,-4.561 -8.352,-6.203 -2.781,-1.71 -5.562,-2.82 -7.633,-3.49 -1.035,-0.335 -1.891,-0.563 -2.477,-0.703 -0.583,-0.141 -0.851,-0.181 -0.85,-0.185 l -4.805,-0.838 3.371,-3.528 c 0.001,-0.001 0.006,-0.002 0.088,-0.1 0.572,-0.657 3.568,-4.299 5.961,-11.382 1.393,-4.135 2.125,-7.329 2.504,-9.46 0.036,-0.201 0.187,-1.203 0.187,-1.203 l -1.186,-0.268 c -2.122,-0.429 -5.362,-0.926 -9.718,-1.152 -7.466,-0.381 -11.954,1.063 -12.778,1.352 -0.12,0.043 -0.124,0.046 -0.125,0.047 l -4.52,1.836 0.991,-4.777 c -0.004,0 0.056,-0.264 0.138,-0.858 0.087,-0.596 0.191,-1.474 0.258,-2.561 0.138,-2.169 0.132,-5.168 -0.436,-8.381 -0.543,-3.088 -1.667,-6.926 -2.695,-10.05 -12.56,10.279 -20.687,31.234 -14.293,47.373 l -13.299,8.243 -0.808,-67.776 20.435,-12.761 c 11.964,10.392 32.344,10.375 45.305,3.153 -2.363,-1.968 -5.315,-4.265 -7.811,-5.8 -2.601,-1.598 -5.201,-2.637 -7.137,-3.262 -0.969,-0.315 -1.768,-0.528 -2.317,-0.659 -0.546,-0.132 -0.796,-0.168 -0.795,-0.172 l -4.493,-0.784 3.152,-3.299 c 0.001,-0.001 0.006,-0.004 0.082,-0.093 0.535,-0.615 3.336,-4.023 5.575,-10.645 1.304,-3.867 1.985,-6.854 2.341,-8.846 0.035,-0.189 0.174,-1.125 0.174,-1.125 l -1.107,-0.251 c -1.984,-0.401 -5.016,-0.866 -9.089,-1.077 -6.98,-0.356 -11.176,0.995 -11.948,1.265 -0.112,0.038 -0.115,0.042 -0.116,0.043 l -4.228,1.717 0.925,-4.466 c -0.004,0 0.053,-0.248 0.131,-0.803 0.08,-0.559 0.177,-1.379 0.238,-2.396 0.132,-2.028 0.126,-4.832 -0.404,-7.839 -0.508,-2.886 -1.558,-6.473 -2.522,-9.396 -11.61,9.5 -19.168,28.76 -13.567,43.779 l -13.008,8.145 -0.569,-44.646 c 16.656,-4.06 29.162,-22.319 30.596,-38.2988 -3.162,0.9053 -6.971,2.132 -9.831,3.416 -2.979,1.3373 -5.46,3.0107 -7.179,4.3458 -0.858,0.666 -1.529,1.246 -1.977,1.654 -0.441,0.4 -0.627,0.6 -0.628,0.596 l -3.397,3.503 -1.019,-4.772 c -0.001,-0.001 0,-0.007 -0.032,-0.129 -0.223,-0.843 -1.549,-5.3711 -6.057,-11.3324 -2.634,-3.48 -4.863,-5.8814 -6.412,-7.3934 -0.147,-0.144 -0.868,-0.8306 -0.868,-0.8306 0,0 -0.722,0.6866 -0.868,0.8306 -1.548,1.512 -3.779,3.9134 -6.412,7.3934 -4.508,5.9613 -5.835,10.4894 -6.058,11.3324 -0.032,0.122 -0.03,0.128 -0.032,0.129 l -1.018,4.772 -3.398,-3.503 c -0.001,0.004 -0.185,-0.196 -0.626,-0.596 -0.448,-0.408 -1.119,-0.988 -1.979,-1.654 -1.719,-1.3351 -4.2,-3.0085 -7.179,-4.3458 -2.86,-1.284 -6.669,-2.5107 -9.83,-3.416 1.434,15.9798 13.94,34.2388 30.597,38.2988 l -0.571,44.646 -13.008,-8.145 c 5.602,-15.019 -1.957,-34.279 -13.566,-43.779 -0.963,2.923 -2.015,6.51 -2.522,9.396 -0.53,3.007 -0.537,5.811 -0.405,7.839 0.061,1.017 0.159,1.837 0.24,2.396 0.076,0.555 0.133,0.803 0.129,0.803 l 0.927,4.466 -4.228,-1.717 c -0.001,-0.001 -0.005,-0.005 -0.116,-0.043 -0.772,-0.27 -4.969,-1.621 -11.949,-1.265 -4.074,0.211 -7.104,0.676 -9.09,1.077 l -1.106,0.251 c 0,0 0.138,0.936 0.173,1.125 0.356,1.992 1.039,4.979 2.341,8.846 2.239,6.622 5.04,10.03 5.575,10.645 0.076,0.089 0.081,0.092 0.083,0.093 l 3.152,3.299 -4.494,0.784 c 0.002,0.004 -0.249,0.04 -0.793,0.172 -0.549,0.131 -1.349,0.344 -2.319,0.659 -1.936,0.625 -4.536,1.664 -7.137,3.262 -2.496,1.535 -5.448,3.832 -7.81,5.8 12.961,7.222 33.341,7.239 45.305,-3.153 l 20.434,12.761 -0.806,67.776 -13.3,-8.243 c 6.393,-16.139 -1.734,-37.094 -14.294,-47.373 -1.028,3.124 -2.152,6.962 -2.694,10.05 -0.568,3.213 -0.575,6.212 -0.435,8.381 0.065,1.087 0.171,1.965 0.256,2.561 0.084,0.594 0.143,0.858 0.14,0.858 l 0.991,4.777 -4.522,-1.836 c -0.001,-0.001 -0.005,-0.004 -0.125,-0.047 -0.824,-0.289 -5.312,-1.733 -12.777,-1.352 -4.356,0.226 -7.596,0.723 -9.719,1.152 l -1.184,0.268 c 0,0 0.15,1.002 0.186,1.203 0.378,2.131 1.11,5.325 2.503,9.46 2.394,7.083 5.39,10.725 5.962,11.382 0.081,0.098 0.086,0.099 0.088,0.1 l 3.372,3.528 -4.807,0.838 c 0.001,0.004 -0.267,0.044 -0.849,0.185 -0.587,0.14 -1.443,0.368 -2.478,0.703 -2.07,0.67 -4.851,1.78 -7.633,3.49 -2.67,1.642 -5.826,4.098 -8.352,6.203 13.955,7.772 35.948,7.741 48.703,-3.595 l 20.789,12.88 -1.797,146.224 c -14.782,-2.241 -27.97,-9.192 -38.095,-19.301 -8.096,-8.107 -14.164,-18.179 -17.412,-29.461 -0.426,-0.212 -0.845,-0.438 -1.262,-0.679 -2.879,-1.64 -5.538,-4.067 -7.548,-7.113 -1.839,2.774 -4.215,5.032 -6.808,6.649 5.166,36.492 34.247,65.28 70.881,70.006 l -3.152,258.578 c -31.482,-15.458 -59.985,-35.748 -84.585,-60.046 -46.378,-45.849 -78.915,-106.196 -91.075,-175.27 0,0 0.023,0.132 0,0 -3.348,0.008 -7.032,0.522 -11.092,2.114 -3.1,1.227 -5.749,2.782 -8.022,4.622 13.286,71.865 47.505,134.739 96.131,182.763 28.34,28.008 61.573,50.981 98.372,67.817 l -0.341,27.97 h 28.696 z"
     style="fill:#000000;fill-opacity:1;fill-rule:nonzero;stroke:none"
     id="path55104" />
</svg>
