<?xml version="1.0" encoding="UTF-8" standalone="no"?>
<!-- Created with Inkscape (http://www.inkscape.org/) -->

<svg
   version="1.1"
   id="svg34"
   width="795.03467"
   height="793.70135"
   viewBox="0 0 795.03467 793.70135"
   sodipodi:docname="odanobunaga-kamon.svg"
   inkscape:version="1.2 (dc2aeda, 2022-05-15)"
   xmlns:inkscape="http://www.inkscape.org/namespaces/inkscape"
   xmlns:sodipodi="http://sodipodi.sourceforge.net/DTD/sodipodi-0.dtd"
   xmlns="http://www.w3.org/2000/svg"
   xmlns:svg="http://www.w3.org/2000/svg">
  <defs
     id="defs22" />
  <sodipodi:namedview
     id="namedview36"
     pagecolor="#ffffff"
     bordercolor="#000000"
     borderopacity="0.25"
     inkscape:showpageshadow="2"
     inkscape:pageopacity="0.0"
     inkscape:pagecheckerboard="0"
     inkscape:deskcolor="#d1d1d1"
     showgrid="false"
     inkscape:zoom="0.29734106"
     inkscape:cx="-346.40355"
     inkscape:cy="403.57696"
     inkscape:window-width="1419"
     inkscape:window-height="612"
     inkscape:window-x="0"
     inkscape:window-y="25"
     inkscape:window-maximized="0"
     inkscape:current-layer="svg34">
    <inkscape:page
       x="0"
       y="0"
       id="page40"
       width="795.03467"
       height="793.70135" />
  </sodipodi:namedview>
  <path
     d="m 396.85026,152.39855 c 56.40133,0 93.70533,15.90266 118.93199,29.86533 15.328,8.48933 15.87067,19.97866 15.87067,19.97866 l 36.18133,-49.80266 c 21.688,-29.98133 10.85467,-62.162666 -12.99466,-79.505332 -23.84667,-17.342666 -80.672,-41.205332 -157.98933,-41.205332 -77.316,0 -134.14267,23.862666 -157.98933,41.205332 -23.84934,17.342666 -34.68267,49.524002 -12.99467,79.505332 l 36.18133,49.80266 c 0,0 0.54267,-11.48933 15.87067,-19.97866 25.22667,-13.96267 62.52933,-29.86533 118.932,-29.86533"
     style="fill:#000000;fill-opacity:1;fill-rule:nonzero;stroke:none;stroke-width:1.33333"
     id="path154"
     clip-path="url(#clipPath804)" />
  <path
     d="m 396.85026,174.66948 c 34.48666,0 64.28133,6.26267 93.46133,21.012 11.15866,5.64133 14.05466,8.396 14.05466,12.29333 -0.003,1.64933 -1.248,2.42667 -1.248,2.42667 -4.98133,0 -9.02533,4.04 -9.02533,9.024 0,4.984 4.31467,8.47066 9.02533,9.024 10.14667,1.19466 17.708,-7.61334 17.352,-17.35067 -0.404,-11.016 -8.99733,-18.62 -15.008,-21.964 -29.82266,-16.592 -68.18266,-27.10266 -108.61199,-27.10266 -40.428,0 -78.79067,10.51066 -108.612,27.10266 -6.01067,3.344 -14.604,10.948 -15.008,21.964 -0.356,9.73733 7.20533,18.54533 17.352,17.35067 4.71067,-0.55334 9.02533,-4.04 9.02533,-9.024 0,-4.984 -4.044,-9.024 -9.02533,-9.024 0,0 -1.24533,-0.77734 -1.248,-2.42667 0,-3.89733 2.896,-6.652 14.05467,-12.29333 29.17866,-14.74933 58.97333,-21.012 93.46133,-21.012"
     style="fill:#000000;fill-opacity:1;fill-rule:nonzero;stroke:none;stroke-width:1.33333"
     id="path158"
     clip-path="url(#clipPath718)" />
  <path
     d="m 164.36066,321.31268 c 17.42934,-53.64 44.08133,-84.20534 65.156,-103.88267 12.81067,-11.95467 23.904,-8.91867 23.904,-8.91867 l -36.18267,-49.80133 c -21.81199,-29.892 -55.76799,-29.532 -79.62933,-12.20933 -23.86533,17.32 -64.117329,63.99066 -88.010661,137.52266 -23.893333,73.532 -18.758666,134.952 -9.633333,162.988 9.125333,28.04133 36.382665,48.292 71.598664,36.92666 l 58.54533,-19.02 c 0,0 -10.75866,-4.06533 -14.09466,-21.26666 -5.48667,-28.30667 -9.08267,-68.69867 8.34666,-122.33866"
     style="fill:#000000;fill-opacity:1;fill-rule:nonzero;stroke:none;stroke-width:1.33333"
     id="path162"
     clip-path="url(#clipPath810)" />
  <path
     d="m 185.54293,328.19294 c 10.656,-32.8 25.81733,-59.19733 48.864,-82.39333 8.81333,-8.86933 12.32666,-10.77067 16.03466,-9.56533 1.568,0.51066 1.92134,1.93466 1.92134,1.93466 -1.53867,4.73734 1.05466,9.83067 5.79466,11.37334 4.74,1.53866 9.388,-1.488 11.372,-5.79734 4.27067,-9.27866 -1.77066,-19.19333 -11.14,-21.864 -10.60133,-3.02 -20.48933,2.80534 -25.52933,7.48667 -24.99467,23.23733 -46.844,56.47067 -59.33866,94.92133 -12.492,38.448 -14.35067,78.18133 -7.78534,111.67067 1.32534,6.74933 5.89734,17.27333 16.252,21.06266 9.148,3.34534 19.864,-1.12533 21.86133,-11.14133 0.93067,-4.65067 -1.052,-9.83333 -5.79066,-11.372 -4.74,-1.54133 -9.83333,1.05467 -11.37333,5.79467 0,0 -1.12134,0.94266 -2.692,0.43466 -3.70534,-1.204 -5.432,-4.808 -7.34934,-17.164 -5.01066,-32.31066 -1.76,-62.58133 8.89867,-95.38133"
     style="fill:#000000;fill-opacity:1;fill-rule:nonzero;stroke:none;stroke-width:1.33333"
     id="path166"
     clip-path="url(#clipPath792)" />
  <path
     d="m 253.16533,594.618 c -45.63067,-33.15066 -66.464,-67.94266 -78.664,-94.068 -7.412,-15.87733 -1.096,-25.48933 -1.096,-25.48933 l -58.54533,19.024 c -35.168002,11.50667 -45.320002,43.91067 -36.218669,71.95733 9.097333,28.04933 41.045329,80.756 103.594669,126.20133 62.55199,45.44533 122.54933,59.54133 152.03466,59.52533 29.48666,-0.012 57.16933,-19.67866 57.24533,-56.68133 l 0.003,-61.55733 c 0,0 -7.19067,8.976 -24.584,6.83333 -28.61467,-3.532 -68.14133,-12.592 -113.76933,-45.74533"
     style="fill:#000000;fill-opacity:1;fill-rule:nonzero;stroke:none;stroke-width:1.33333"
     id="path170"
     clip-path="url(#clipPath834)" />
  <path
     d="m 266.25386,576.59974 c -27.90133,-20.268 -48.32267,-42.84934 -63.26,-71.932 -5.712,-11.12267 -6.43466,-15.052 -4.144,-18.20667 0.972,-1.33333 2.43467,-1.23067 2.43467,-1.23067 4.032,2.92934 9.67733,2.036 12.608,-1.99466 2.92666,-4.032 1.48666,-9.388 -1.99867,-12.608 -7.504,-6.92934 -18.804,-4.24667 -24.236,3.83866 -6.14933,9.152 -3.664,20.352 -0.768,26.592 14.372,30.95334 39.228,62.00267 71.93733,85.768 32.70534,23.76267 69.91734,37.80667 103.79733,41.912 6.828,0.828 18.25334,-0.272 25.052,-8.94533 6.01334,-7.66934 5.07067,-19.24 -3.83866,-24.23734 -4.13467,-2.32266 -9.676,-2.03733 -12.60667,1.99467 -2.92933,4.03067 -2.03333,9.67733 1.99733,12.60667 0,0 0.55067,1.36 -0.416,2.69466 -2.292,3.15467 -6.25333,3.68 -18.596,1.68534 -32.27599,-5.21867 -60.06133,-17.664 -87.96266,-37.93733"
     style="fill:#000000;fill-opacity:1;fill-rule:nonzero;stroke:none;stroke-width:1.33333"
     id="path174"
     clip-path="url(#clipPath700)" />
  <path
     d="m 540.53772,594.618 c -45.63067,33.15333 -85.156,42.21333 -113.77333,45.74533 -17.39067,2.14267 -24.58133,-6.836 -24.58133,-6.836 v 61.56 c 0.0787,37.00267 27.75866,56.66933 57.248,56.68133 29.48399,0.016 89.48399,-14.08266 152.03332,-59.52533 62.54934,-45.448 94.49734,-98.15333 103.59734,-126.20133 9.09866,-28.04666 -1.052,-60.452 -36.22134,-71.95733 l -58.54533,-19.024 c 0,0 6.316,9.612 -1.096,25.48933 -12.2,26.12534 -33.03066,60.91734 -78.66133,94.068"
     style="fill:#000000;fill-opacity:1;fill-rule:nonzero;stroke:none;stroke-width:1.33333"
     id="path178"
     clip-path="url(#clipPath822)" />
  <path
     d="m 527.44665,576.59974 c -27.90133,20.27333 -55.68533,32.71866 -87.96133,37.93733 -12.344,1.99466 -16.304,1.46933 -18.596,-1.68534 -0.96666,-1.33466 -0.41866,-2.69466 -0.41866,-2.69466 4.03333,-2.92934 4.92933,-8.576 2,-12.60667 -2.93067,-4.032 -8.472,-4.31466 -12.608,-1.99733 -8.91067,4.99733 -9.85067,16.57066 -3.83734,24.23733 6.80134,8.676 18.22134,9.77333 25.052,8.948 33.87734,-4.10533 71.09067,-18.152 103.79867,-41.912 32.70666,-23.76266 57.56266,-54.81466 71.93466,-85.768 2.89867,-6.24 5.384,-17.44266 -0.76533,-26.592 -5.43467,-8.08533 -16.732,-10.768 -24.23733,-3.83866 -3.48667,3.21733 -4.92667,8.57333 -1.99734,12.608 2.93067,4.03066 8.576,4.924 12.608,1.99466 0,0 1.46,-0.10266 2.432,1.23067 2.29067,3.152 1.56934,7.084 -4.144,18.20667 -14.93466,29.08266 -35.35866,51.66133 -63.26,71.932"
     style="fill:#000000;fill-opacity:1;fill-rule:nonzero;stroke:none;stroke-width:1.33333"
     id="path182"
     clip-path="url(#clipPath774)" />
  <path
     d="m 629.33985,321.31001 c 17.42933,53.64 13.83333,94.03466 8.34667,122.34133 -3.336,17.20133 -14.09734,21.26666 -14.09734,21.26666 l 58.548,19.02 c 35.216,11.36267 62.47333,-8.88533 71.59867,-36.92666 9.12533,-28.03867 14.25733,-89.456 -9.63334,-162.99066 -23.89333,-73.53067 -64.14533,-120.20133 -88.01066,-137.52133 -23.86133,-17.32134 -57.81733,-17.68134 -79.62933,12.21066 l -36.18267,49.8 c 0,0 11.09334,-3.03467 23.904,8.92133 21.07734,19.676 47.72667,50.23867 65.156,103.87867"
     style="fill:#000000;fill-opacity:1;fill-rule:nonzero;stroke:none;stroke-width:1.33333"
     id="path186"
     clip-path="url(#clipPath786)" />
  <path
     d="m 608.15758,328.19294 c 10.65867,32.8 13.912,63.07067 8.89867,95.38133 -1.91733,12.356 -3.64133,15.96 -7.34933,17.164 -1.568,0.508 -2.692,-0.43466 -2.692,-0.43466 -1.54,-4.74 -6.63067,-7.336 -11.37333,-5.79734 -4.73867,1.54134 -6.72134,6.724 -5.79334,11.372 2,10.01867 12.716,14.48934 21.864,11.14134 10.35467,-3.78667 14.92667,-14.31067 16.252,-21.06 6.56533,-33.48934 4.70667,-73.22267 -7.78533,-111.67333 -12.49334,-38.448 -34.34133,-71.684 -59.33867,-94.91734 -5.04,-4.68266 -14.928,-10.50933 -25.52666,-7.488 -9.372,2.66934 -15.41067,12.58534 -11.14267,21.864 1.984,4.30934 6.632,7.336 11.372,5.79734 4.74267,-1.54267 7.33333,-6.636 5.79467,-11.376 0,0 0.35333,-1.42134 1.92133,-1.932 3.70533,-1.20534 7.22133,0.696 16.03467,9.56533 23.04666,23.19333 38.208,49.59333 48.86399,82.39333"
     style="fill:#000000;fill-opacity:1;fill-rule:nonzero;stroke:none;stroke-width:1.33333"
     id="path190"
     clip-path="url(#clipPath828)" />
  <path
     d="m 408.14972,362.05747 c 19.21867,6.24267 29.73467,26.87734 23.48667,46.092 -6.236,19.21867 -26.87467,29.73467 -46.092,23.48934 -19.21333,-6.24 -29.72933,-26.88 -23.484,-46.09734 6.23867,-19.21066 26.88,-29.72666 46.08933,-23.484"
     style="fill:#000000;fill-opacity:1;fill-rule:nonzero;stroke:none;stroke-width:1.33333"
     id="path194"
     clip-path="url(#clipPath858)" />
  <path
     d="m 396.85026,301.00534 c 2.948,0 5.336,2.388 5.336,5.336 l 0.003,43.54933 c 6.356,0.724 12.464,2.73467 17.956,5.84667 l 56.67867,-78.01333 c 3.85466,-5.612 6.11466,-12.416 6.11466,-19.74 0,-19.27867 -15.62933,-34.908 -34.90799,-34.908 -5.13067,0 -10,1.104 -14.388,3.09467 -1.08934,-19.37734 -17.14134,-34.75733 -36.792,-34.75733 -19.64934,0 -35.704,15.37999 -36.79334,34.75733 -4.388,-1.99067 -9.25466,-3.09467 -14.38533,-3.09467 -19.27866,0 -34.908,15.62933 -34.908,34.908 0,7.324 2.26,14.128 6.112,19.74 l 56.67867,78.01333 c 5.492,-3.112 11.60133,-5.12267 17.95866,-5.84667 v -43.54933 c 0,-2.948 2.39067,-5.336 5.33734,-5.336"
     style="fill:#000000;fill-opacity:1;fill-rule:nonzero;stroke:none;stroke-width:1.33333"
     id="path198"
     clip-path="url(#clipPath870)" />
  <path
     d="m 305.69666,367.23187 c 0.912,-2.80266 3.92133,-4.336 6.72267,-3.42666 l 41.41866,13.45733 c 2.65467,-5.82267 6.45333,-11.00933 11.11067,-15.27067 l -56.67867,-78.01199 c -4.148,-5.39867 -9.92133,-9.652 -16.884,-11.91467 -18.33733,-5.95867 -38.03333,4.076 -43.98933,22.412 -1.58533,4.88 -2.03867,9.85067 -1.50533,14.63733 -18.76267,-4.95066 -38.35067,5.56267 -44.424,24.25067 -6.072,18.68933 3.59466,38.71066 21.688,45.73066 -3.248,3.56 -5.804,7.84934 -7.388,12.72667 -5.95867,18.33733 4.076,38.032 22.41333,43.99067 6.964,2.26266 14.13333,2.216 20.66133,0.284 l 91.71067,-29.79734 c -1.264,-6.184 -1.288,-12.61466 -0.012,-18.88533 l -41.42,-13.45867 c -2.8,-0.912 -4.33333,-3.92133 -3.424,-6.724"
     style="fill:#000000;fill-opacity:1;fill-rule:nonzero;stroke:none;stroke-width:1.33333"
     id="path202"
     clip-path="url(#clipPath876)" />
  <path
     d="m 340.51559,474.3888 c -2.38533,-1.732 -2.91467,-5.068 -1.18267,-7.45333 l 25.59867,-35.232 c -4.71867,-4.32266 -8.47867,-9.53866 -11.09067,-15.28666 l -91.70933,29.8 c -6.41733,2.27333 -12.24533,6.45066 -16.54933,12.37466 -11.332,15.6 -7.87467,37.43067 7.72267,48.764 4.14933,3.012 8.73866,4.98133 13.45733,5.952 -10.508,16.316 -6.56,38.19333 9.336,49.74267 15.896,11.552 37.92533,8.544 50.19333,-6.492 2.38134,4.188 5.67067,7.94533 9.82133,10.95866 15.596,11.33334 37.42934,7.87467 48.76267,-7.72133 4.30267,-5.92533 6.47333,-12.75867 6.656,-19.56533 v -96.42933 c -6.27333,-0.70934 -12.396,-2.672 -17.964,-5.824 l -25.6,35.23199 c -1.732,2.38267 -5.06933,2.912 -7.452,1.18"
     style="fill:#000000;fill-opacity:1;fill-rule:nonzero;stroke:none;stroke-width:1.33333"
     id="path206"
     clip-path="url(#clipPath882)" />
  <path
     d="m 453.18612,474.3888 c -2.38266,1.732 -5.72133,1.20267 -7.45333,-1.18 l -25.59867,-35.23199 c -5.568,3.152 -11.69066,5.11466 -17.964,5.824 v 96.42933 c 0.18267,6.804 2.35467,13.63733 6.656,19.56266 11.33334,15.59867 33.16667,19.05734 48.764,7.724 4.148,-3.016 7.43734,-6.77066 9.82,-10.95866 12.268,15.036 34.29733,18.04133 50.19333,6.492 15.89734,-11.54934 19.84534,-33.42667 9.33467,-49.744 4.72,-0.96934 9.308,-2.93867 13.45867,-5.95334 15.596,-11.33066 19.05466,-33.16133 7.72133,-48.76133 -4.30133,-5.924 -10.12933,-10.10133 -16.54667,-12.37733 l -91.71066,-29.79733 c -2.612,5.74533 -6.372,10.964 -11.092,15.284 l 25.6,35.23466 c 1.72933,2.38267 1.2,5.72133 -1.18267,7.45333"
     style="fill:#000000;fill-opacity:1;fill-rule:nonzero;stroke:none;stroke-width:1.33333"
     id="path210"
     clip-path="url(#clipPath888)" />
  <path
     d="m 488.00385,367.23187 c 0.90934,2.80267 -0.62266,5.812 -3.424,6.724 l -41.41999,13.45867 c 1.276,6.268 1.25333,12.69867 -0.0107,18.88267 l 91.70933,29.8 c 6.528,1.92933 13.69733,1.976 20.66133,-0.284 18.33867,-5.95867 28.372,-25.65334 22.41334,-43.99067 -1.58267,-4.87733 -4.14,-9.16667 -7.388,-12.72667 18.092,-7.02266 27.76133,-27.044 21.688,-45.73066 -6.07334,-18.688 -25.66134,-29.204 -44.424,-24.25067 0.53333,-4.78666 0.08,-9.76 -1.50534,-14.63733 -5.956,-18.336 -25.652,-28.37333 -43.988,-22.41467 -6.96266,2.26267 -12.736,6.516 -16.88533,11.91467 l -56.67866,78.012 c 4.65866,4.264 8.45733,9.45066 11.10933,15.27066 l 41.41866,-13.45466 c 2.80267,-0.90934 5.812,0.624 6.724,3.42666"
     style="fill:#000000;fill-opacity:1;fill-rule:nonzero;stroke:none;stroke-width:1.33333"
     id="path214"
     clip-path="url(#clipPath864)" />
</svg>
