<?xml version="1.0" encoding="UTF-8" standalone="no"?>
<!-- Created with Inkscape (http://www.inkscape.org/) -->

<svg
   version="1.1"
   id="svg18683"
   width="793.70135"
   height="793.70135"
   viewBox="0 0 793.70135 793.70135"
   sodipodi:docname="otani-yoshitsugu-kamon.svg"
   inkscape:version="1.2 (dc2aeda, 2022-05-15)"
   xmlns:inkscape="http://www.inkscape.org/namespaces/inkscape"
   xmlns:sodipodi="http://sodipodi.sourceforge.net/DTD/sodipodi-0.dtd"
   xmlns="http://www.w3.org/2000/svg"
   xmlns:svg="http://www.w3.org/2000/svg">
  <defs
     id="defs18687">
    <clipPath
       clipPathUnits="userSpaceOnUse"
       id="clipPath19735">
      <path
         d="M -538.2217,577.9479 H 57.054297 V -17.3281 H -538.2217 Z"
         id="path19737"
         style="stroke-width:0.999998" />
    </clipPath>
    <clipPath
       clipPathUnits="userSpaceOnUse"
       id="clipPath19739">
      <path
         d="M -584.1943,578.9381 H 11.081697 V -16.3379 H -584.1943 Z"
         id="path19741"
         style="stroke-width:0.999998" />
    </clipPath>
    <clipPath
       clipPathUnits="userSpaceOnUse"
       id="clipPath19743">
      <path
         d="M -586.5449,579.5026 H 8.7310974 V -15.7734 H -586.5449 Z"
         id="path19745"
         style="stroke-width:0.999998" />
    </clipPath>
    <clipPath
       clipPathUnits="userSpaceOnUse"
       id="clipPath19747">
      <path
         d="M -556.4014,578.0143 H 38.874597 V -17.2617 H -556.4014 Z"
         id="path19749"
         style="stroke-width:0.999998" />
    </clipPath>
    <clipPath
       clipPathUnits="userSpaceOnUse"
       id="clipPath19751">
      <path
         d="M -550.2637,577.3248 H 45.012297 V -17.9512 H -550.2637 Z"
         id="path19753"
         style="stroke-width:0.999998" />
    </clipPath>
    <clipPath
       clipPathUnits="userSpaceOnUse"
       id="clipPath19755">
      <path
         d="M -568.2266,575.819 H 27.049397 V -19.457 H -568.2266 Z"
         id="path19757"
         style="stroke-width:0.999998" />
    </clipPath>
    <clipPath
       clipPathUnits="userSpaceOnUse"
       id="clipPath19759">
      <path
         d="M -557.4951,577.8502 H 37.780897 V -17.4258 H -557.4951 Z"
         id="path19761"
         style="stroke-width:0.999998" />
    </clipPath>
    <clipPath
       clipPathUnits="userSpaceOnUse"
       id="clipPath19763">
      <path
         d="M -576.3691,585.5885 H 18.906897 V -9.6875 H -576.3691 Z"
         id="path19765"
         style="stroke-width:0.999998" />
    </clipPath>
    <clipPath
       clipPathUnits="userSpaceOnUse"
       id="clipPath19767">
      <path
         d="M -574.5459,585.8522 H 20.730097 V -9.4238 H -574.5459 Z"
         id="path19769"
         style="stroke-width:0.999998" />
    </clipPath>
    <clipPath
       clipPathUnits="userSpaceOnUse"
       id="clipPath19771">
      <path
         d="M -572.8174,586.1354 H 22.458597 V -9.1406 H -572.8174 Z"
         id="path19773"
         style="stroke-width:0.999998" />
    </clipPath>
    <clipPath
       clipPathUnits="userSpaceOnUse"
       id="clipPath19775">
      <path
         d="M -567.7754,585.8522 H 27.500597 V -9.4238 H -567.7754 Z"
         id="path19777"
         style="stroke-width:0.999998" />
    </clipPath>
    <clipPath
       clipPathUnits="userSpaceOnUse"
       id="clipPath19779">
      <path
         d="M -564.5732,585.8483 H 30.702797 V -9.4277 H -564.5732 Z"
         id="path19781"
         style="stroke-width:0.999998" />
    </clipPath>
    <clipPath
       clipPathUnits="userSpaceOnUse"
       id="clipPath19783">
      <path
         d="M -561.4131,585.8522 H 33.862897 V -9.4238 H -561.4131 Z"
         id="path19785"
         style="stroke-width:0.999998" />
    </clipPath>
    <clipPath
       clipPathUnits="userSpaceOnUse"
       id="clipPath19787">
      <path
         d="M -557.0645,585.8483 H 38.211497 V -9.4277 H -557.0645 Z"
         id="path19789"
         style="stroke-width:0.999998" />
    </clipPath>
    <clipPath
       clipPathUnits="userSpaceOnUse"
       id="clipPath19791">
      <path
         d="M -553.8975,585.8483 H 41.378497 V -9.4277 H -553.8975 Z"
         id="path19793"
         style="stroke-width:0.999998" />
    </clipPath>
    <clipPath
       clipPathUnits="userSpaceOnUse"
       id="clipPath19795">
      <path
         d="M -548.9834,585.8522 H 46.292597 V -9.4238 H -548.9834 Z"
         id="path19797"
         style="stroke-width:0.999998" />
    </clipPath>
    <clipPath
       clipPathUnits="userSpaceOnUse"
       id="clipPath19799">
      <path
         d="M -545.417,584.5729 H 49.858997 V -10.7031 H -545.417 Z"
         id="path19801"
         style="stroke-width:0.999998" />
    </clipPath>
    <clipPath
       clipPathUnits="userSpaceOnUse"
       id="clipPath19803">
      <path
         d="M -542.9326,584.5729 H 52.343397 V -10.7031 H -542.9326 Z"
         id="path19805"
         style="stroke-width:0.999998" />
    </clipPath>
    <clipPath
       clipPathUnits="userSpaceOnUse"
       id="clipPath19807">
      <path
         d="M -540.8213,585.8483 H 54.454697 V -9.4277 H -540.8213 Z"
         id="path19809"
         style="stroke-width:0.999998" />
    </clipPath>
    <clipPath
       clipPathUnits="userSpaceOnUse"
       id="clipPath19811">
      <path
         d="M -536.6982,584.5729 H 58.577797 V -10.7031 H -536.6982 Z"
         id="path19813"
         style="stroke-width:0.999998" />
    </clipPath>
    <clipPath
       clipPathUnits="userSpaceOnUse"
       id="clipPath19815">
      <path
         d="M -528.0898,575.3815 H 67.186197 V -19.8945 H -528.0898 Z"
         id="path19817"
         style="stroke-width:0.999998" />
    </clipPath>
    <clipPath
       clipPathUnits="userSpaceOnUse"
       id="clipPath19819">
      <path
         d="M -531.1924,581.5885 H 64.083597 V -13.6875 H -531.1924 Z"
         id="path19821"
         style="stroke-width:0.999998" />
    </clipPath>
    <clipPath
       clipPathUnits="userSpaceOnUse"
       id="clipPath19825">
      <path
         d="m -153.9082,263.4147 h 595.276 v -595.276 h -595.276 z"
         id="path19827"
         style="stroke-width:0.999998" />
    </clipPath>
    <clipPath
       clipPathUnits="userSpaceOnUse"
       id="clipPath19831">
      <path
         d="m -110.3857,202.2667 h 595.276 v -595.276 h -595.276 z"
         id="path19833"
         style="stroke-width:0.999998" />
    </clipPath>
    <clipPath
       clipPathUnits="userSpaceOnUse"
       id="clipPath19837">
      <path
         d="m -108.877,196.7238 h 595.276 v -595.276 h -595.276 z"
         id="path19839"
         style="stroke-width:0.999998" />
    </clipPath>
    <clipPath
       clipPathUnits="userSpaceOnUse"
       id="clipPath19843">
      <path
         d="m -183.0742,258.9845 h 595.276 v -595.276 h -595.276 z"
         id="path19845"
         style="stroke-width:0.999998" />
    </clipPath>
    <clipPath
       clipPathUnits="userSpaceOnUse"
       id="clipPath19849">
      <path
         d="m -201.6279,259.8937 h 595.276 v -595.276 h -595.276 z"
         id="path19851"
         style="stroke-width:0.999998" />
    </clipPath>
    <clipPath
       clipPathUnits="userSpaceOnUse"
       id="clipPath19855">
      <path
         d="m -235.5977,241.8346 h 595.276 v -595.276 h -595.276 z"
         id="path19857"
         style="stroke-width:0.999998" />
    </clipPath>
    <clipPath
       clipPathUnits="userSpaceOnUse"
       id="clipPath19861">
      <path
         d="m -229.459,258.9811 h 595.276 v -595.276 h -595.276 z"
         id="path19863"
         style="stroke-width:0.999998" />
    </clipPath>
    <clipPath
       clipPathUnits="userSpaceOnUse"
       id="clipPath19867">
      <path
         d="m -252.7939,147.4391 h 595.276 v -595.276 h -595.276 z"
         id="path19869"
         style="stroke-width:0.999998" />
    </clipPath>
    <clipPath
       clipPathUnits="userSpaceOnUse"
       id="clipPath19873">
      <path
         d="m -128.8418,127.6173 h 595.276 v -595.276 h -595.276 z"
         id="path19875"
         style="stroke-width:0.999998" />
    </clipPath>
    <clipPath
       clipPathUnits="userSpaceOnUse"
       id="clipPath19879">
      <path
         d="m -229.459,336.2975 h 595.276 v -595.276 h -595.276 z"
         id="path19881"
         style="stroke-width:0.999998" />
    </clipPath>
    <clipPath
       clipPathUnits="userSpaceOnUse"
       id="clipPath19885">
      <path
         d="m -196.0723,297.6398 h 595.276 v -595.276 h -595.276 z"
         id="path19887"
         style="stroke-width:0.999998" />
    </clipPath>
    <clipPath
       clipPathUnits="userSpaceOnUse"
       id="clipPath19891">
      <path
         d="m -131.7578,297.6398 h 595.276 v -595.276 h -595.276 z"
         id="path19893"
         style="stroke-width:0.999998" />
    </clipPath>
    <clipPath
       clipPathUnits="userSpaceOnUse"
       id="clipPath19897">
      <path
         d="m -271.2588,297.6398 h 595.276 v -595.276 h -595.276 z"
         id="path19899"
         style="stroke-width:0.999998" />
    </clipPath>
    <clipPath
       clipPathUnits="userSpaceOnUse"
       id="clipPath19903">
      <path
         d="m -98.0293,297.6398 h 595.276 v -595.276 h -595.276 z"
         id="path19905"
         style="stroke-width:0.999998" />
    </clipPath>
    <clipPath
       clipPathUnits="userSpaceOnUse"
       id="clipPath19909">
      <path
         d="m -110.3857,393.0123 h 595.276 v -595.276 h -595.276 z"
         id="path19911"
         style="stroke-width:0.999998" />
    </clipPath>
    <clipPath
       clipPathUnits="userSpaceOnUse"
       id="clipPath19915">
      <path
         d="m -44.5068,297.6398 h 595.276 v -595.276 h -595.276 z"
         id="path19917"
         style="stroke-width:0.999998" />
    </clipPath>
    <clipPath
       clipPathUnits="userSpaceOnUse"
       id="clipPath19921">
      <path
         d="m -235.5977,353.444 h 595.276 v -595.276 h -595.276 z"
         id="path19923"
         style="stroke-width:0.999998" />
    </clipPath>
    <clipPath
       clipPathUnits="userSpaceOnUse"
       id="clipPath19927">
      <path
         d="m -108.877,398.5553 h 595.276 v -595.276 h -595.276 z"
         id="path19929"
         style="stroke-width:0.999998" />
    </clipPath>
    <clipPath
       clipPathUnits="userSpaceOnUse"
       id="clipPath19933">
      <path
         d="m -201.6279,335.3854 h 595.276 v -595.276 h -595.276 z"
         id="path19935"
         style="stroke-width:0.999998" />
    </clipPath>
    <clipPath
       clipPathUnits="userSpaceOnUse"
       id="clipPath19939">
      <path
         d="m -183.0742,336.2955 h 595.276 v -595.276 h -595.276 z"
         id="path19941"
         style="stroke-width:0.999998" />
    </clipPath>
    <clipPath
       clipPathUnits="userSpaceOnUse"
       id="clipPath19945">
      <path
         d="m -153.9082,331.8658 h 595.276 v -595.276 h -595.276 z"
         id="path19947"
         style="stroke-width:0.999998" />
    </clipPath>
    <clipPath
       clipPathUnits="userSpaceOnUse"
       id="clipPath19951">
      <path
         d="m -252.7939,447.8405 h 595.276 v -595.276 h -595.276 z"
         id="path19953"
         style="stroke-width:0.999998" />
    </clipPath>
    <clipPath
       clipPathUnits="userSpaceOnUse"
       id="clipPath19957">
      <path
         d="m -246.4111,523.2467 h 595.276 v -595.276 h -595.276 z"
         id="path19959"
         style="stroke-width:0.999998" />
    </clipPath>
    <clipPath
       clipPathUnits="userSpaceOnUse"
       id="clipPath19963">
      <path
         d="m -365.8164,336.2975 h 595.276 v -595.276 h -595.276 z"
         id="path19965"
         style="stroke-width:0.999998" />
    </clipPath>
    <clipPath
       clipPathUnits="userSpaceOnUse"
       id="clipPath19969">
      <path
         d="m -484.8896,393.0123 h 595.276 v -595.276 h -595.276 z"
         id="path19971"
         style="stroke-width:0.999998" />
    </clipPath>
    <clipPath
       clipPathUnits="userSpaceOnUse"
       id="clipPath19975">
      <path
         d="m -359.6777,353.444 h 595.276 v -595.276 h -595.276 z"
         id="path19977"
         style="stroke-width:0.999998" />
    </clipPath>
    <clipPath
       clipPathUnits="userSpaceOnUse"
       id="clipPath19981">
      <path
         d="m -486.3984,398.5553 h 595.276 v -595.276 h -595.276 z"
         id="path19983"
         style="stroke-width:0.999998" />
    </clipPath>
    <clipPath
       clipPathUnits="userSpaceOnUse"
       id="clipPath19987">
      <path
         d="m -393.6475,335.3854 h 595.276 v -595.276 h -595.276 z"
         id="path19989"
         style="stroke-width:0.999998" />
    </clipPath>
    <clipPath
       clipPathUnits="userSpaceOnUse"
       id="clipPath19993">
      <path
         d="m -412.2012,336.2936 h 595.276 v -595.276 h -595.276 z"
         id="path19995"
         style="stroke-width:0.999998" />
    </clipPath>
    <clipPath
       clipPathUnits="userSpaceOnUse"
       id="clipPath19999">
      <path
         d="m -441.3672,331.8639 h 595.276 v -595.276 h -595.276 z"
         id="path20001"
         style="stroke-width:0.999998" />
    </clipPath>
    <clipPath
       clipPathUnits="userSpaceOnUse"
       id="clipPath20006">
      <path
         d="m -466.4336,467.6608 h 595.276 v -595.276 h -595.276 z"
         id="path20008"
         style="stroke-width:0.999998" />
    </clipPath>
    <clipPath
       clipPathUnits="userSpaceOnUse"
       id="clipPath20012">
      <path
         d="m -365.8164,258.9806 h 595.276 v -595.276 h -595.276 z"
         id="path20014"
         style="stroke-width:0.999998" />
    </clipPath>
    <clipPath
       clipPathUnits="userSpaceOnUse"
       id="clipPath20018">
      <path
         d="m -399.2031,297.6388 h 595.276 v -595.276 h -595.276 z"
         id="path20020"
         style="stroke-width:0.999998" />
    </clipPath>
    <clipPath
       clipPathUnits="userSpaceOnUse"
       id="clipPath20024">
      <path
         d="m -463.5176,297.6388 h 595.276 v -595.276 h -595.276 z"
         id="path20026"
         style="stroke-width:0.999998" />
    </clipPath>
    <clipPath
       clipPathUnits="userSpaceOnUse"
       id="clipPath20030">
      <path
         d="m -324.0166,297.6388 h 595.276 v -595.276 h -595.276 z"
         id="path20032"
         style="stroke-width:0.999998" />
    </clipPath>
    <clipPath
       clipPathUnits="userSpaceOnUse"
       id="clipPath20036">
      <path
         d="M -497.2461,297.6388 H 98.029897 v -595.276 H -497.2461 Z"
         id="path20038"
         style="stroke-width:0.999998" />
    </clipPath>
    <clipPath
       clipPathUnits="userSpaceOnUse"
       id="clipPath20042">
      <path
         d="m -484.8896,202.2657 h 595.276 v -595.276 h -595.276 z"
         id="path20044"
         style="stroke-width:0.999998" />
    </clipPath>
    <clipPath
       clipPathUnits="userSpaceOnUse"
       id="clipPath20048">
      <path
         d="M -550.7686,297.6388 H 44.507397 v -595.276 H -550.7686 Z"
         id="path20050"
         style="stroke-width:0.999998" />
    </clipPath>
    <clipPath
       clipPathUnits="userSpaceOnUse"
       id="clipPath20054">
      <path
         d="m -359.6777,241.8341 h 595.276 v -595.276 h -595.276 z"
         id="path20056"
         style="stroke-width:0.999998" />
    </clipPath>
    <clipPath
       clipPathUnits="userSpaceOnUse"
       id="clipPath20060">
      <path
         d="m -486.3984,196.7228 h 595.276 v -595.276 h -595.276 z"
         id="path20062"
         style="stroke-width:0.999998" />
    </clipPath>
    <clipPath
       clipPathUnits="userSpaceOnUse"
       id="clipPath20066">
      <path
         d="m -393.6475,259.8927 h 595.276 v -595.276 h -595.276 z"
         id="path20068"
         style="stroke-width:0.999998" />
    </clipPath>
    <clipPath
       clipPathUnits="userSpaceOnUse"
       id="clipPath20072">
      <path
         d="m -412.2012,258.9835 h 595.276 v -595.276 h -595.276 z"
         id="path20074"
         style="stroke-width:0.999998" />
    </clipPath>
    <clipPath
       clipPathUnits="userSpaceOnUse"
       id="clipPath20078">
      <path
         d="m -441.3672,263.4132 h 595.276 v -595.276 h -595.276 z"
         id="path20080"
         style="stroke-width:0.999998" />
    </clipPath>
    <clipPath
       clipPathUnits="userSpaceOnUse"
       id="clipPath20084">
      <path
         d="m -342.4814,147.4376 h 595.276 v -595.276 h -595.276 z"
         id="path20086"
         style="stroke-width:0.999998" />
    </clipPath>
    <clipPath
       clipPathUnits="userSpaceOnUse"
       id="clipPath20090">
      <path
         d="m -483.8271,159.5138 h 595.276 v -595.276 h -595.276 z"
         id="path20092"
         style="stroke-width:0.999998" />
    </clipPath>
  </defs>
  <sodipodi:namedview
     id="namedview18685"
     pagecolor="#ffffff"
     bordercolor="#000000"
     borderopacity="0.25"
     inkscape:showpageshadow="2"
     inkscape:pageopacity="0.0"
     inkscape:pagecheckerboard="0"
     inkscape:deskcolor="#d1d1d1"
     showgrid="false"
     inkscape:zoom="0.29734106"
     inkscape:cx="-215.24105"
     inkscape:cy="396.85068"
     inkscape:window-width="1419"
     inkscape:window-height="456"
     inkscape:window-x="0"
     inkscape:window-y="25"
     inkscape:window-maximized="0"
     inkscape:current-layer="svg18683">
    <inkscape:page
       x="0"
       y="0"
       id="page18689"
       width="793.70135"
       height="793.70135" />
  </sodipodi:namedview>
  <path
     d="m 305.945,345.309 c 0.004,2.857 2.322,5.177 5.182,5.18 2.86,-0.003 5.179,-2.323 5.18,-5.18 -0.001,-2.86 -2.32,-5.18 -5.18,-5.184 -2.86,0.004 -5.178,2.324 -5.182,5.184 m -11.207,0 c 0.003,-9.056 7.333,-16.388 16.389,-16.39 9.052,0.002 16.386,7.334 16.391,16.39 -0.005,9.053 -7.339,16.384 -16.391,16.386 -9.056,-0.002 -16.386,-7.333 -16.389,-16.386"
     style="fill:#000000;fill-opacity:1;fill-rule:nonzero;stroke:none"
     id="path18803" />
  <path
     d="m 147.181,269.69 c 8.229,31.231 13.451,63.639 15.443,96.956 -15.126,-7.289 -32.135,-11.399 -50.048,-11.4 -1.039,0 -2.075,0.013 -3.106,0.04 -0.474,-2.525 -0.722,-5.131 -0.722,-7.795 0,-17.254 10.405,-32.078 25.282,-38.539 -0.26,-2.006 -0.393,-4.051 -0.393,-6.127 0,-12.904 5.167,-24.601 13.544,-33.135"
     style="fill:#000000;fill-opacity:1;fill-rule:nonzero;stroke:none"
     id="path18807" />
  <path
     d="m 314.13,322.448 c 23.156,-50.022 39.048,-104.255 46.245,-161.375 1.292,-9.017 4.265,-16.136 8.389,-21.617 1.742,2.029 4.33,3.317 7.215,3.317 5.247,0 9.5,-4.253 9.5,-9.5 0,-5.248 -3.784,-8.938 -8.967,-9.768 -8.75,-1.398 -17.501,6.351 -23.562,23.195 -1.348,3.748 -2.491,8.271 -3.138,12.875 l -0.01,0.081 c -7.363,58.505 -24.015,113.898 -48.375,164.733 2.948,-1.369 6.234,-2.135 9.7,-2.135 1.018,0 2.022,0.066 3.003,0.194"
     style="fill:#000000;fill-opacity:1;fill-rule:nonzero;stroke:none"
     id="path18811" />
  <path
     d="m 145.169,262.3 c -5.632,-20.108 -12.493,-39.703 -20.5,-58.7 -3.621,-8.739 -5.341,-17.825 -5.341,-26.748 0,-1.357 0.038,-2.709 0.117,-4.057 -22.5626,9.324 -38.4305,31.546 -38.4305,57.477 0,6.47 0.988,12.71 2.8226,18.577 -21.9066,7.859 -37.5745,28.812 -37.5745,53.423 0,9.402 2.2879,18.272 6.3346,26.079 -12.112,9.672 -19.6959,24.567 -19.6959,41.272 0,5.552 0.7746,10.904 2.3106,15.93 8.0413,-7.446 17.1586,-13.747 27.0946,-18.642 -2.1653,-4.105 -4.7613,-7.949 -7.7293,-11.473 l 0.004,0.003 c -1.1893,-1.408 -1.008,-3.512 0.3987,-4.698 1.4053,-1.188 3.5093,-1.006 4.6986,0.402 3.3533,3.978 6.2787,8.334 8.7027,12.996 5.0266,-2.119 10.2373,-3.884 15.6013,-5.271 -3.3827,-14.431 -8.6494,-28.128 -15.5293,-40.834 -0.8774,-1.618 -0.272,-3.642 1.3453,-4.519 1.6173,-0.879 3.6413,-0.273 4.5186,1.344 7.164,13.228 12.648,27.5 16.168,42.529 4.0213,-0.789 8.1173,-1.371 12.2789,-1.727 -0.451,-2.661 -0.684,-5.392 -0.684,-8.172 0,-0.626 0.012,-1.252 0.036,-1.872 -4.2456,-21.853 -11.1496,-42.754 -20.3669,-62.355 -0.784,-1.666 -0.0693,-3.651 1.596,-4.434 1.6654,-0.784 3.6507,-0.069 4.4333,1.596 7.38,15.692 13.3146,32.196 17.6336,49.345 2.438,-6.235 6.125,-11.847 10.756,-16.523 -5.148,-22.21 -12.306,-43.647 -21.2696,-64.116 h 0.0027 c -0.7413,-1.69 0.0253,-3.654 1.7147,-4.391 1.688,-0.74 3.6522,0.029 4.3902,1.717 8.667,19.791 15.675,40.472 20.85,61.87 1.642,-1.214 3.364,-2.328 5.156,-3.331 -0.03,-0.721 -0.044,-1.445 -0.044,-2.172 -0.002,-6.416 1.122,-12.58 3.185,-18.299 -5.941,-23.041 -13.669,-45.414 -23.037,-66.982 h 0.004 c -0.736,-1.688 0.038,-3.652 1.729,-4.384 1.687,-0.734 3.651,0.038 4.384,1.729 8.464,19.489 15.609,39.628 21.331,60.319 2.213,-3.71 4.854,-7.131 7.857,-10.187 l 2.731,-2.789"
     style="fill:#000000;fill-opacity:1;fill-rule:nonzero;stroke:none"
     id="path18815" />
  <path
     d="m 268.837,346.526 c 4.254,0.539 8.456,1.245 12.6,2.112 21.412,-38.765 38.148,-80.565 49.405,-124.685 -14.64,6.86 -30.98,10.693 -48.207,10.692 -1.152,0.001 -2.301,-0.015 -3.444,-0.049 -4.133,30.232 -12.349,69.296 -27.945,110.678 3.552,0.057 7.075,0.232 10.569,0.519 14.836,-31.405 26.104,-63.585 34,-96.051 h 0.003 c 0.435,-1.789 2.237,-2.884 4.028,-2.45 1.787,0.433 2.884,2.237 2.447,4.026 -7.824,32.168 -18.918,64.062 -33.456,95.208"
     style="fill:#000000;fill-opacity:1;fill-rule:nonzero;stroke:none"
     id="path18819" />
  <path
     d="m 244.098,345.314 c 15.081,-39.341 23.367,-76.785 27.745,-106.412 -10.265,7.066 -22.71,11.206 -36.104,11.203 -5.357,0 -10.566,-0.663 -15.546,-1.909 0.101,3.824 0.166,7.908 0.189,12.296 0.003,0.66 0.003,1.321 0.003,1.981 -0.002,37.663 -4.967,70.3 -8.043,86.916 4.247,-0.988 8.599,-1.81 12.968,-2.45 1.068,-3.504 2.391,-7.953 3.777,-13.265 3.818,-14.613 8.43,-35.789 11.576,-61.932 h 0.003 c 0.22,-1.825 1.879,-3.128 3.704,-2.909 1.829,0.22 3.133,1.879 2.913,3.704 -4.058,33.731 -10.528,59.32 -14.708,73.509 3.804,-0.379 7.647,-0.625 11.523,-0.732"
     style="fill:#000000;fill-opacity:1;fill-rule:nonzero;stroke:none"
     id="path18823" />
  <path
     d="m 205.21,351.221 c 0.94,-4.863 2.156,-11.692 3.375,-20.031 2.568,-17.581 5.133,-41.894 5.133,-68.718 0,-0.65 0,-1.3 -0.003,-1.954 -0.016,-3.594 -0.062,-6.98 -0.134,-10.185 -13.075,9.212 -29.031,14.628 -46.232,14.627 h -0.012 c -5.085,0 -10.065,-0.475 -14.892,-1.378 9.02,33.018 14.772,67.383 16.884,102.719 5.124,-2.938 10.424,-5.599 15.884,-7.966 0.156,-1.748 0.34,-3.978 0.524,-6.653 0.489,-7.171 0.983,-17.463 0.983,-29.888 0,-9.361 -0.282,-19.936 -1.047,-31.297 -0.125,-1.839 1.261,-3.424 3.1,-3.551 1.839,-0.122 3.424,1.266 3.549,3.103 0.779,11.528 1.06,22.251 1.06,31.745 0,14.705 -0.677,26.467 -1.244,33.732 4.272,-1.616 8.633,-3.055 13.072,-4.305"
     style="fill:#000000;fill-opacity:1;fill-rule:nonzero;stroke:none"
     id="path18827" />
  <path
     d="m 337.058,196.586 c -15.588,7.226 -32.96,11.259 -51.264,11.256 -1.884,0 -3.759,-0.04 -5.623,-0.124 -11.982,10.424 -27.67,16.75 -44.796,16.747 -6.852,0 -13.477,-1.012 -19.728,-2.895 -14.74,11.802 -33.455,18.866 -53.801,18.864 h -0.014 c -5.766,0 -11.404,-0.565 -16.858,-1.646 1.915,5.805 3.727,11.657 5.435,17.554 5.432,1.278 11.099,1.951 16.928,1.951 17.992,-0.003 34.448,-6.435 47.249,-17.129 0.889,-0.746 2.088,-0.974 3.188,-0.608 5.645,1.869 11.683,2.882 17.967,2.882 14.757,0 28.177,-5.589 38.316,-14.772 0.66,-0.601 1.538,-0.909 2.428,-0.858 2.034,0.113 4.088,0.17 6.15,0.17 18.19,0 35.307,-4.529 50.3,-12.524 1.484,-6.245 2.86,-12.534 4.123,-18.868"
     style="fill:#000000;fill-opacity:1;fill-rule:nonzero;stroke:none"
     id="path18831" />
  <path
     d="m 171.789,170.157 c 6.381,-0.009 11.541,-5.173 11.552,-11.552 -0.011,-6.381 -5.171,-11.545 -11.552,-11.554 -6.381,0.009 -11.545,5.173 -11.555,11.554 0.01,6.379 5.174,11.543 11.555,11.552 m 98.221,-3.552 c -7.707,0 -15.089,-1.468 -21.857,-4.14 -1.715,-0.677 -2.555,-2.61 -1.878,-4.325 0.675,-1.711 2.608,-2.551 4.323,-1.876 6.011,2.372 12.549,3.673 19.412,3.673 14.619,-0.002 27.817,-5.913 37.399,-15.49 9.574,-9.582 15.485,-22.782 15.485,-37.396 0,-3.346 -0.309,-6.615 -0.901,-9.7829 v 0.0026 c -0.335,-1.8106 0.858,-3.552 2.665,-3.8906 1.811,-0.3387 3.551,0.8546 3.889,2.6653 0.666,3.5667 1.015,7.2476 1.015,11.0056 0,32.89 -26.655,59.552 -59.552,59.554 m 1.335,-76.4462 c 10.065,0.0026 18.218,8.1599 18.222,18.2242 -0.004,10.062 -8.157,18.218 -18.222,18.222 -10.068,-0.004 -18.222,-8.16 -18.222,-18.222 0,-10.0643 8.154,-18.2216 18.222,-18.2242 m 31.077,12.2692 c -0.26,-1.821 1.011,-3.5066 2.832,-3.7653 1.821,-0.2546 3.509,1.012 3.765,2.8333 0.258,1.819 0.391,3.672 0.391,5.553 -0.003,21.76 -17.637,39.398 -39.397,39.402 -4.95,0 -9.696,-0.916 -14.066,-2.584 -1.718,-0.66 -2.58,-2.588 -1.924,-4.306 0.658,-1.718 2.584,-2.581 4.306,-1.924 3.625,1.386 7.556,2.146 11.684,2.146 18.078,-0.034 32.696,-14.655 32.73,-32.734 0,-1.569 -0.109,-3.112 -0.321,-4.621 m -131.968,114.4 c -7.706,0 -15.089,-1.47 -21.857,-4.14 -1.715,-0.678 -2.555,-2.611 -1.877,-4.326 0.674,-1.71 2.608,-2.552 4.322,-1.877 6.011,2.372 12.55,3.675 19.412,3.675 14.619,-0.003 27.818,-5.914 37.399,-15.492 9.574,-9.581 15.485,-22.78 15.485,-37.395 0,-3.345 -0.309,-6.614 -0.901,-9.784 v 0.003 c -0.335,-1.809 0.858,-3.551 2.665,-3.891 1.811,-0.337 3.551,0.855 3.889,2.666 0.666,3.568 1.015,7.249 1.015,11.006 0,32.89 -26.655,59.551 -59.552,59.555 m 1.335,-76.448 c 10.065,0.004 18.219,8.161 18.223,18.225 -0.004,10.062 -8.158,18.219 -18.223,18.222 -10.068,-0.003 -18.221,-8.16 -18.221,-18.222 0,-10.064 8.153,-18.221 18.221,-18.225 m 31.398,16.891 c 0,-1.568 -0.109,-3.112 -0.321,-4.62 -0.26,-1.822 1.011,-3.507 2.832,-3.766 1.821,-0.256 3.509,1.012 3.765,2.832 0.258,1.819 0.391,3.674 0.391,5.554 -0.003,21.761 -17.637,39.398 -39.397,39.401 -4.949,0 -9.696,-0.915 -14.065,-2.584 -1.719,-0.66 -2.58,-2.587 -1.924,-4.305 0.657,-1.719 2.584,-2.58 4.305,-1.924 3.625,1.386 7.556,2.146 11.684,2.146 18.079,-0.033 32.696,-14.654 32.73,-32.734 M 335.998,35.8496 c -22.533,3.7813 -41.651,15.7426 -54.817,32.3319 -18.227,-5.5347 -38.575,-4.0467 -56.63,5.772 -16.449,8.9426 -28.123,23.2386 -34.053,39.5515 -8.46,-0.164 -17.086,1.375 -25.405,4.819 -32.303,13.371 -47.633,50.425 -34.264,82.726 4.196,9.956 8.085,20.076 11.649,30.348 6.191,1.548 12.672,2.37 19.354,2.372 19.409,-0.002 37.154,-6.94 50.963,-18.477 0.89,-0.747 2.087,-0.975 3.186,-0.608 6.097,2.021 12.61,3.112 19.394,3.112 15.931,0 30.424,-6.033 41.364,-15.947 0.659,-0.601 1.538,-0.91 2.428,-0.86 2.192,0.124 4.398,0.188 6.627,0.188 19.047,-0.001 37.004,-4.612 52.829,-12.778 3.976,-21.692 6.644,-43.872 7.921,-66.461 1.926,-31.0042 12.36,-59.7028 28.996,-83.7894 -12.449,-3.6374 -25.893,-4.592 -39.542,-2.3 m -64.653,84.0854 c 6.381,-0.01 11.541,-5.172 11.552,-11.552 -0.011,-6.382 -5.171,-11.5443 -11.552,-11.5549 -6.382,0.0106 -11.546,5.1729 -11.555,11.5549 0.009,6.38 5.173,11.542 11.555,11.552"
     style="fill:#000000;fill-opacity:1;fill-rule:nonzero;stroke:none"
     id="path18835" />
  <path
     d="m 305.945,448.398 c 0.004,2.861 2.322,5.183 5.182,5.185 2.86,-0.002 5.179,-2.324 5.18,-5.185 -0.001,-2.857 -2.32,-5.175 -5.18,-5.18 -2.86,0.005 -5.178,2.323 -5.182,5.18 m -11.207,0 c 0.003,-9.052 7.333,-16.383 16.389,-16.385 9.052,0.002 16.386,7.333 16.391,16.385 -0.005,9.057 -7.339,16.388 -16.391,16.39 -9.056,-0.002 -16.386,-7.333 -16.389,-16.39"
     style="fill:#000000;fill-opacity:1;fill-rule:nonzero;stroke:none"
     id="path18839" />
  <path
     d="m 261.429,396.854 c 0.004,-15.757 4.597,-30.473 12.514,-42.847 4.782,0.795 9.49,1.814 14.11,3.04 -8.342,11.084 -13.291,24.88 -13.29,39.807 -0.001,14.929 4.948,28.723 13.29,39.807 -4.62,1.226 -9.328,2.245 -14.11,3.041 -7.917,-12.375 -12.51,-27.091 -12.514,-42.848"
     style="fill:#000000;fill-opacity:1;fill-rule:nonzero;stroke:none"
     id="path18843" />
  <path
     d="m 175.677,396.854 v 0 c 0,1.843 1.493,3.325 3.335,3.325 h 75.813 c 0.565,14.752 4.845,28.578 11.921,40.544 -5.956,0.703 -12.012,1.066 -18.157,1.066 -42.36,0 -80.705,-17.167 -108.456,-44.935 27.751,-27.767 66.096,-44.933 108.456,-44.933 6.145,0 12.201,0.36 18.157,1.064 -7.076,11.965 -11.356,25.79 -11.921,40.544 h -75.813 c -1.842,0 -3.335,1.482 -3.335,3.325"
     style="fill:#000000;fill-opacity:1;fill-rule:nonzero;stroke:none"
     id="path18847" />
  <path
     d="m 361.678,396.854 c 0,20.059 -11.454,37.443 -28.18,45.963 -2.497,-10.034 -11.56,-17.463 -22.373,-17.468 -6.907,0 -13.1,3.036 -17.324,7.842 -7.756,-10.057 -12.37,-22.656 -12.37,-36.337 0,-13.681 4.614,-26.281 12.37,-36.337 4.224,4.808 10.417,7.842 17.324,7.844 10.813,-0.006 19.876,-7.435 22.373,-17.471 16.726,8.523 28.18,25.905 28.18,45.964"
     style="fill:#000000;fill-opacity:1;fill-rule:nonzero;stroke:none"
     id="path18851" />
  <path
     d="m 130.705,396.854 4.712,4.712 c 7.271,7.279 15.242,13.863 23.807,19.636 -3.407,1.639 -6.916,3.104 -10.508,4.383 -19.373,-7.064 -38.023,-16.836 -50.6238,-28.731 12.6008,-11.896 31.2508,-21.667 50.6238,-28.731 3.592,1.279 7.101,2.744 10.508,4.382 -8.565,5.774 -16.536,12.358 -23.807,19.637 z"
     style="fill:#000000;fill-opacity:1;fill-rule:nonzero;stroke:none"
     id="path18855" />
  <path
     d="m 147.181,524.016 c 8.229,-31.229 13.451,-63.638 15.443,-96.955 -15.126,7.289 -32.135,11.398 -50.048,11.401 -1.039,0 -2.075,-0.013 -3.106,-0.041 -0.474,2.525 -0.722,5.132 -0.722,7.793 0,17.256 10.405,32.081 25.282,38.542 -0.26,2.006 -0.393,4.05 -0.393,6.124 0,12.907 5.167,24.603 13.544,33.136"
     style="fill:#000000;fill-opacity:1;fill-rule:nonzero;stroke:none"
     id="path18859" />
  <path
     d="m 59.3423,396.854 v 0 c 0,1.839 1.4946,3.333 3.3333,3.333 h 29.2812 c 11.9122,11.803 28.6022,21.278 46.3462,28.518 -8.245,2.018 -16.861,3.092 -25.729,3.092 -31.4411,0 -59.7384,-13.467 -79.4397,-34.943 19.7013,-21.476 47.9986,-34.941 79.4397,-34.941 8.868,0 17.484,1.073 25.729,3.09 -17.744,7.24 -34.434,16.715 -46.3462,28.518 H 62.6756 c -1.8387,0 -3.3333,1.494 -3.3333,3.333"
     style="fill:#000000;fill-opacity:1;fill-rule:nonzero;stroke:none"
     id="path18863" />
  <path
     d="m 314.13,471.259 c 23.156,50.024 39.048,104.255 46.245,161.374 1.292,9.019 4.265,16.136 8.389,21.618 1.742,-2.028 4.33,-3.315 7.215,-3.315 5.247,0 9.5,4.252 9.5,9.5 0,5.247 -3.784,8.937 -8.967,9.765 -8.75,1.402 -17.501,-6.349 -23.562,-23.194 -1.348,-3.748 -2.491,-8.27 -3.138,-12.874 l -0.01,-0.08 c -7.363,-58.505 -24.015,-113.898 -48.375,-164.734 2.948,1.369 6.234,2.133 9.7,2.135 1.018,0 2.022,-0.067 3.003,-0.195"
     style="fill:#000000;fill-opacity:1;fill-rule:nonzero;stroke:none"
     id="path18867" />
  <path
     d="m 145.169,531.407 c -5.632,20.107 -12.493,39.703 -20.5,58.7 -3.621,8.74 -5.341,17.826 -5.341,26.748 0,1.357 0.038,2.71 0.117,4.057 -22.5626,-9.323 -38.4305,-31.546 -38.4305,-57.477 0,-6.471 0.988,-12.711 2.8226,-18.577 C 61.9305,537 46.2626,516.046 46.2626,491.435 c 0,-9.403 2.2879,-18.271 6.3346,-26.08 -12.112,-9.672 -19.6959,-24.565 -19.6959,-41.27 0,-5.552 0.7746,-10.904 2.3106,-15.93 8.0413,7.446 17.1586,13.747 27.0946,18.64 -2.1653,4.107 -4.7613,7.951 -7.7293,11.474 l 0.004,-0.002 c -1.1893,1.408 -1.008,3.512 0.3987,4.698 1.4053,1.188 3.5093,1.008 4.6986,-0.402 3.3533,-3.978 6.2787,-8.336 8.7027,-12.997 5.0266,2.12 10.2373,3.885 15.6013,5.271 -3.3827,14.43 -8.6494,28.127 -15.5293,40.833 -0.8774,1.617 -0.272,3.644 1.3453,4.521 1.6173,0.877 3.6413,0.273 4.5186,-1.344 7.164,-13.229 12.648,-27.502 16.168,-42.53 4.0213,0.79 8.1173,1.372 12.2789,1.726 -0.451,2.662 -0.684,5.392 -0.684,8.174 0,0.625 0.012,1.25 0.036,1.87 -4.2456,21.853 -11.1496,42.755 -20.3669,62.356 -0.784,1.664 -0.0693,3.652 1.596,4.433 1.6654,0.783 3.6507,0.07 4.4333,-1.597 7.38,-15.689 13.3146,-32.195 17.6336,-49.344 2.438,6.237 6.125,11.849 10.756,16.524 -5.148,22.211 -12.306,43.648 -21.2696,64.117 h 0.0027 c -0.7413,1.688 0.0253,3.651 1.7147,4.391 1.688,0.74 3.6522,-0.029 4.3902,-1.719 8.667,-19.789 15.675,-40.472 20.85,-61.869 1.642,1.213 3.364,2.328 5.156,3.331 -0.03,0.721 -0.044,1.445 -0.044,2.173 -0.002,6.415 1.122,12.579 3.185,18.297 -5.941,23.042 -13.669,45.415 -23.037,66.984 h 0.004 c -0.736,1.686 0.038,3.652 1.729,4.383 1.687,0.732 3.651,-0.039 4.384,-1.728 8.464,-19.491 15.609,-39.628 21.331,-60.321 2.213,3.712 4.854,7.133 7.857,10.188 l 2.731,2.789"
     style="fill:#000000;fill-opacity:1;fill-rule:nonzero;stroke:none"
     id="path18871" />
  <path
     d="m 268.837,447.181 c 4.254,-0.539 8.456,-1.246 12.6,-2.112 21.412,38.765 38.148,80.565 49.405,124.685 -14.64,-6.86 -30.98,-10.694 -48.207,-10.691 -1.152,-0.003 -2.301,0.013 -3.444,0.047 -4.133,-30.232 -12.349,-69.294 -27.945,-110.677 3.552,-0.058 7.075,-0.231 10.569,-0.518 14.836,31.404 26.104,63.585 34,96.049 h 0.003 c 0.435,1.79 2.237,2.886 4.028,2.451 1.787,-0.432 2.884,-2.237 2.447,-4.027 -7.824,-32.169 -18.918,-64.06 -33.456,-95.207"
     style="fill:#000000;fill-opacity:1;fill-rule:nonzero;stroke:none"
     id="path18875" />
  <path
     d="m 244.098,448.394 c 15.081,39.341 23.367,76.784 27.745,106.412 -10.265,-7.066 -22.71,-11.207 -36.104,-11.204 -5.357,0 -10.566,0.661 -15.546,1.909 0.101,-3.823 0.166,-7.909 0.189,-12.295 0.003,-0.661 0.003,-1.322 0.003,-1.981 -0.002,-37.664 -4.967,-70.3 -8.043,-86.917 4.247,0.988 8.599,1.811 12.968,2.451 1.068,3.502 2.391,7.95 3.777,13.264 3.818,14.613 8.43,35.787 11.576,61.931 h 0.003 c 0.22,1.826 1.879,3.13 3.704,2.908 1.829,-0.218 3.133,-1.877 2.913,-3.702 -4.058,-33.732 -10.528,-59.32 -14.708,-73.508 3.804,0.377 7.647,0.625 11.523,0.732"
     style="fill:#000000;fill-opacity:1;fill-rule:nonzero;stroke:none"
     id="path18879" />
  <path
     d="m 205.21,442.489 c 0.94,4.861 2.156,11.69 3.375,20.027 2.568,17.582 5.133,41.896 5.133,68.72 0,0.651 0,1.299 -0.003,1.952 -0.016,3.595 -0.062,6.983 -0.134,10.186 -13.075,-9.211 -29.031,-14.628 -46.232,-14.626 h -0.012 c -5.085,0 -10.065,0.475 -14.892,1.379 9.02,-33.019 14.772,-67.384 16.884,-102.72 5.124,2.939 10.424,5.6 15.884,7.964 0.156,1.751 0.34,3.982 0.524,6.656 0.489,7.17 0.983,17.462 0.983,29.885 0,9.363 -0.282,19.938 -1.047,31.3 -0.125,1.836 1.261,3.422 3.1,3.55 1.839,0.122 3.424,-1.266 3.549,-3.104 0.779,-11.527 1.06,-22.251 1.06,-31.746 0,-14.705 -0.677,-26.465 -1.244,-33.73 4.272,1.616 8.633,3.055 13.072,4.307"
     style="fill:#000000;fill-opacity:1;fill-rule:nonzero;stroke:none"
     id="path18883" />
  <path
     d="m 337.058,597.121 c -15.588,-7.226 -32.96,-11.257 -51.264,-11.257 -1.884,0 -3.759,0.042 -5.623,0.124 -11.982,-10.424 -27.67,-16.749 -44.796,-16.744 -6.852,0 -13.477,1.011 -19.728,2.894 -14.74,-11.803 -33.455,-18.866 -53.801,-18.866 h -0.014 c -5.766,0 -11.404,0.566 -16.858,1.647 1.915,-5.805 3.727,-11.657 5.435,-17.552 5.432,-1.279 11.099,-1.953 16.928,-1.953 17.992,0.005 34.448,6.434 47.249,17.129 0.889,0.745 2.088,0.975 3.188,0.609 5.645,-1.869 11.683,-2.882 17.967,-2.882 14.757,0 28.177,5.589 38.316,14.77 0.66,0.603 1.538,0.91 2.428,0.86 2.034,-0.114 4.088,-0.172 6.15,-0.172 18.19,0 35.307,4.532 50.3,12.527 1.484,6.244 2.86,12.533 4.123,18.866"
     style="fill:#000000;fill-opacity:1;fill-rule:nonzero;stroke:none"
     id="path18887" />
  <path
     d="m 328.547,697.662 c -0.338,1.81 -2.08,3.003 -3.889,2.664 -1.807,-0.338 -3,-2.08 -2.665,-3.89 v 0.002 c 0.59,-3.169 0.901,-6.437 0.901,-9.784 0,-14.614 -5.911,-27.812 -15.485,-37.393 -9.582,-9.577 -22.78,-15.489 -37.399,-15.492 -6.864,0 -13.401,1.303 -19.412,3.675 -1.715,0.674 -3.648,-0.167 -4.323,-1.878 -0.677,-1.713 0.163,-3.649 1.878,-4.325 6.766,-2.672 14.149,-4.141 21.857,-4.141 32.897,0.005 59.552,26.666 59.552,59.554 0,3.758 -0.349,7.44 -1.015,11.008 m -19.528,-5.45 c -0.256,1.82 -1.944,3.086 -3.766,2.83 -1.82,-0.257 -3.091,-1.942 -2.832,-3.762 0.212,-1.511 0.321,-3.052 0.321,-4.623 -0.033,-18.079 -14.652,-32.7 -32.729,-32.735 -4.128,0 -8.059,0.762 -11.684,2.147 -1.722,0.659 -3.648,-0.204 -4.307,-1.923 -0.656,-1.718 0.207,-3.645 1.925,-4.306 4.368,-1.667 9.116,-2.584 14.066,-2.584 21.76,0.002 39.394,17.641 39.396,39.401 0,1.88 -0.132,3.735 -0.39,5.555 m -37.674,11.335 c -10.068,-0.002 -18.222,-8.158 -18.222,-18.223 0,-10.063 8.154,-18.219 18.222,-18.222 10.064,0.003 18.218,8.159 18.222,18.222 -0.004,10.065 -8.158,18.221 -18.222,18.223 m -42.354,-56.106 c -0.338,1.809 -2.08,3.003 -3.889,2.664 -1.807,-0.339 -3,-2.081 -2.665,-3.891 v 0.003 c 0.59,-3.169 0.901,-6.437 0.901,-9.784 0,-14.615 -5.911,-27.812 -15.485,-37.396 -9.581,-9.577 -22.78,-15.487 -37.399,-15.489 -6.864,0 -13.401,1.302 -19.412,3.674 -1.714,0.675 -3.648,-0.166 -4.322,-1.877 -0.678,-1.716 0.162,-3.649 1.877,-4.325 6.767,-2.672 14.149,-4.142 21.857,-4.142 32.897,0.003 59.552,26.664 59.552,59.555 0,3.757 -0.349,7.44 -1.015,11.008 m -19.528,-5.453 c -0.256,1.822 -1.944,3.089 -3.766,2.833 -1.82,-0.257 -3.091,-1.943 -2.832,-3.765 0.212,-1.508 0.321,-3.052 0.321,-4.62 -0.033,-18.079 -14.652,-32.7 -32.729,-32.735 -4.128,0 -8.059,0.761 -11.684,2.147 -1.721,0.656 -3.648,-0.207 -4.307,-1.926 -0.656,-1.716 0.207,-3.642 1.926,-4.304 4.368,-1.669 9.116,-2.584 14.065,-2.584 21.76,0.003 39.394,17.642 39.396,39.402 0,1.88 -0.132,3.734 -0.39,5.552 m -37.674,11.338 c -10.068,-0.002 -18.221,-8.161 -18.221,-18.224 0,-10.062 8.153,-18.218 18.221,-18.224 10.064,0.006 18.219,8.162 18.223,18.224 -0.004,10.063 -8.159,18.222 -18.223,18.224 m 174.755,18.443 c -1.277,-22.591 -3.945,-44.771 -7.921,-66.461 -15.826,-8.167 -33.782,-12.779 -52.829,-12.782 -2.229,0 -4.436,0.066 -6.627,0.191 -0.89,0.049 -1.769,-0.26 -2.428,-0.86 -10.941,-9.913 -25.434,-15.947 -41.364,-15.947 -6.785,0 -13.298,1.091 -19.396,3.112 -1.097,0.367 -2.294,0.138 -3.184,-0.608 -13.809,-11.538 -31.554,-18.475 -50.963,-18.478 -6.682,0.003 -13.163,0.823 -19.355,2.372 -3.564,10.27 -7.453,20.39 -11.648,30.349 -13.369,32.3 1.961,69.355 34.263,82.727 8.318,3.442 16.945,4.981 25.406,4.817 5.93,16.313 17.604,30.609 34.053,39.552 18.055,9.818 38.403,11.308 56.63,5.77 13.166,16.592 32.282,28.554 54.817,32.334 13.648,2.292 27.092,1.338 39.542,-2.299 -16.636,-24.087 -27.072,-52.787 -28.996,-83.789 m -75.199,2.003 c -6.382,0.01 -11.547,5.172 -11.555,11.552 0.008,6.38 5.173,11.544 11.555,11.554 6.381,-0.01 11.541,-5.174 11.552,-11.554 -0.011,-6.38 -5.171,-11.542 -11.552,-11.552 M 171.789,623.55 c -6.381,0.008 -11.547,5.172 -11.555,11.552 0.008,6.38 5.174,11.544 11.555,11.555 6.381,-0.011 11.541,-5.175 11.552,-11.555 -0.011,-6.38 -5.171,-11.544 -11.552,-11.552"
     style="fill:#000000;fill-opacity:1;fill-rule:nonzero;stroke:none"
     id="path18891" />
  <path
     d="m 487.753,448.398 c -0.004,-2.857 -2.322,-5.177 -5.182,-5.18 -2.86,0.003 -5.179,2.323 -5.18,5.18 0.001,2.86 2.32,5.18 5.18,5.183 2.86,-0.003 5.178,-2.323 5.182,-5.183 m 11.207,0 c -0.003,9.057 -7.333,16.388 -16.389,16.39 -9.052,-0.002 -16.385,-7.333 -16.391,-16.39 0.006,-9.052 7.339,-16.385 16.391,-16.388 9.056,0.003 16.386,7.336 16.389,16.388"
     style="fill:#000000;fill-opacity:1;fill-rule:nonzero;stroke:none"
     id="path18895" />
  <path
     d="m 646.518,524.016 c -8.229,-31.232 -13.45,-63.64 -15.442,-96.955 15.125,7.289 32.134,11.396 50.048,11.398 1.038,0 2.074,-0.013 3.105,-0.038 0.475,2.525 0.723,5.129 0.723,7.793 0,17.256 -10.406,32.078 -25.283,38.54 0.26,2.005 0.393,4.052 0.393,6.126 0,12.904 -5.166,24.603 -13.544,33.136"
     style="fill:#000000;fill-opacity:1;fill-rule:nonzero;stroke:none"
     id="path18899" />
  <path
     d="m 479.569,471.259 c -23.155,50.021 -39.047,104.255 -46.245,161.374 -1.292,9.016 -4.265,16.136 -8.389,21.618 -1.741,-2.028 -4.329,-3.318 -7.215,-3.318 -5.246,0 -9.5,4.252 -9.5,9.5 0,5.247 3.784,8.938 8.967,9.768 8.751,1.399 17.501,-6.352 23.563,-23.194 1.348,-3.748 2.49,-8.272 3.137,-12.876 l 0.011,-0.08 c 7.362,-58.505 24.014,-113.899 48.374,-164.732 -2.948,1.367 -6.233,2.133 -9.7,2.133 -1.017,0 -2.021,-0.065 -3.003,-0.193"
     style="fill:#000000;fill-opacity:1;fill-rule:nonzero;stroke:none"
     id="path18903" />
  <path
     d="m 648.529,531.407 c 5.632,20.107 12.493,39.7 20.5,58.697 3.621,8.74 5.341,17.827 5.341,26.751 0,1.357 -0.038,2.708 -0.117,4.057 22.563,-9.325 38.431,-31.546 38.431,-57.477 0,-6.471 -0.988,-12.713 -2.823,-18.577 21.907,-7.86 37.574,-28.812 37.574,-53.424 0,-9.402 -2.288,-18.272 -6.334,-26.079 12.112,-9.674 19.696,-24.568 19.696,-41.273 0,-5.552 -0.775,-10.904 -2.311,-15.929 -8.041,7.446 -17.159,13.746 -27.094,18.64 2.165,4.106 4.761,7.95 7.729,11.476 l -0.004,-0.004 c 1.189,1.408 1.008,3.512 -0.399,4.697 -1.405,1.188 -3.509,1.008 -4.699,-0.401 -3.353,-3.979 -6.278,-8.334 -8.702,-12.995 -5.027,2.117 -10.237,3.883 -15.601,5.271 3.382,14.43 8.649,28.127 15.529,40.833 0.877,1.617 0.272,3.641 -1.345,4.518 -1.618,0.878 -3.642,0.274 -4.519,-1.344 -7.164,-13.229 -12.648,-27.499 -16.168,-42.527 -4.021,0.788 -8.117,1.369 -12.279,1.726 0.451,2.662 0.684,5.391 0.684,8.171 0,0.628 -0.012,1.253 -0.036,1.873 4.246,21.851 11.15,42.752 20.367,62.353 0.784,1.667 0.069,3.652 -1.596,4.436 -1.665,0.783 -3.651,0.067 -4.433,-1.597 -7.38,-15.692 -13.315,-32.195 -17.634,-49.344 -2.438,6.235 -6.125,11.847 -10.756,16.524 5.148,22.208 12.306,43.645 21.27,64.115 h -0.003 c 0.741,1.69 -0.025,3.653 -1.715,4.39 -1.688,0.74 -3.652,-0.029 -4.39,-1.716 -8.667,-19.792 -15.675,-40.472 -20.85,-61.869 -1.642,1.213 -3.364,2.328 -5.156,3.331 0.03,0.721 0.044,1.445 0.044,2.17 0.002,6.418 -1.122,12.582 -3.185,18.3 5.941,23.042 13.669,45.415 23.037,66.982 h -0.004 c 0.736,1.688 -0.038,3.652 -1.729,4.385 -1.687,0.732 -3.651,-0.041 -4.384,-1.731 -8.464,-19.488 -15.609,-39.628 -21.331,-60.318 -2.213,3.709 -4.854,7.13 -7.857,10.188 l -2.731,2.789"
     style="fill:#000000;fill-opacity:1;fill-rule:nonzero;stroke:none"
     id="path18907" />
  <path
     d="m 524.861,447.181 c -4.254,-0.539 -8.456,-1.246 -12.6,-2.115 -21.412,38.768 -38.148,80.568 -49.405,124.688 14.64,-6.86 30.98,-10.696 48.207,-10.694 1.152,-0.002 2.301,0.016 3.444,0.05 4.133,-30.232 12.349,-69.296 27.945,-110.677 -3.552,-0.059 -7.075,-0.234 -10.569,-0.52 -14.836,31.406 -26.104,63.585 -34,96.051 h -0.003 c -0.435,1.79 -2.237,2.883 -4.028,2.451 -1.787,-0.435 -2.884,-2.237 -2.447,-4.029 7.824,-32.167 18.918,-64.06 33.456,-95.205"
     style="fill:#000000;fill-opacity:1;fill-rule:nonzero;stroke:none"
     id="path18911" />
  <path
     d="m 549.6,448.393 c -15.081,39.341 -23.367,76.786 -27.745,106.411 10.265,-7.065 22.71,-11.204 36.104,-11.201 5.357,0 10.566,0.661 15.546,1.909 -0.101,-3.825 -0.166,-7.909 -0.189,-12.297 -0.003,-0.661 -0.003,-1.32 -0.003,-1.981 0.002,-37.662 4.967,-70.3 8.043,-86.915 -4.247,0.988 -8.599,1.808 -12.968,2.448 -1.068,3.503 -2.391,7.954 -3.777,13.266 -3.818,14.614 -8.43,35.789 -11.576,61.933 h -0.003 c -0.22,1.825 -1.879,3.126 -3.704,2.908 -1.829,-0.219 -3.133,-1.88 -2.913,-3.706 4.058,-33.729 10.528,-59.317 14.708,-73.507 -3.804,0.38 -7.647,0.625 -11.523,0.732"
     style="fill:#000000;fill-opacity:1;fill-rule:nonzero;stroke:none"
     id="path18915" />
  <path
     d="m 588.488,442.486 c -0.94,4.861 -2.156,11.691 -3.375,20.03 -2.568,17.582 -5.133,41.894 -5.133,68.718 0,0.65 0,1.301 0.003,1.954 0.016,3.595 0.062,6.98 0.134,10.186 13.075,-9.211 29.031,-14.628 46.232,-14.628 h 0.012 c 5.085,0 10.065,0.477 14.892,1.378 -9.02,-33.016 -14.772,-67.384 -16.884,-102.719 -5.124,2.938 -10.424,5.6 -15.884,7.966 -0.156,1.748 -0.34,3.979 -0.524,6.654 -0.489,7.169 -0.983,17.461 -0.983,29.887 0,9.363 0.282,19.935 1.047,31.298 0.125,1.838 -1.261,3.424 -3.1,3.549 -1.839,0.123 -3.424,-1.263 -3.549,-3.101 -0.779,-11.53 -1.06,-22.251 -1.06,-31.746 0,-14.705 0.677,-26.465 1.244,-33.733 -4.272,1.616 -8.633,3.055 -13.072,4.307"
     style="fill:#000000;fill-opacity:1;fill-rule:nonzero;stroke:none"
     id="path18919" />
  <path
     d="m 456.641,597.118 c 15.588,-7.224 32.96,-11.257 51.264,-11.254 1.884,0 3.758,0.041 5.622,0.124 11.983,-10.424 27.671,-16.75 44.796,-16.747 6.852,0 13.477,1.013 19.728,2.896 14.74,-11.803 33.456,-18.868 53.801,-18.865 h 0.015 c 5.765,0 11.404,0.565 16.857,1.646 -1.914,-5.805 -3.726,-11.657 -5.434,-17.554 -5.432,-1.276 -11.099,-1.951 -16.928,-1.951 -17.992,0.003 -34.448,6.435 -47.25,17.129 -0.889,0.746 -2.088,0.972 -3.188,0.607 -5.645,-1.869 -11.682,-2.883 -17.966,-2.883 -14.757,0 -28.177,5.592 -38.316,14.774 -0.66,0.6 -1.539,0.909 -2.428,0.86 -2.035,-0.115 -4.088,-0.172 -6.151,-0.172 -18.189,0 -35.306,4.529 -50.3,12.524 -1.484,6.244 -2.86,12.533 -4.122,18.866"
     style="fill:#000000;fill-opacity:1;fill-rule:nonzero;stroke:none"
     id="path18923" />
  <path
     d="m 621.91,623.548 c -6.381,0.011 -11.541,5.175 -11.552,11.552 0.011,6.383 5.171,11.544 11.552,11.555 6.382,-0.011 11.546,-5.172 11.555,-11.555 -0.009,-6.377 -5.173,-11.541 -11.555,-11.552 m -99.555,50.221 c -6.382,0.011 -11.542,5.175 -11.552,11.552 0.01,6.383 5.17,11.547 11.552,11.555 6.381,-0.008 11.545,-5.172 11.554,-11.555 -0.009,-6.377 -5.173,-11.541 -11.554,-11.552 M 646.98,585.343 c -0.675,1.711 -2.608,2.552 -4.323,1.877 -6.011,-2.372 -12.549,-3.674 -19.412,-3.674 -14.619,0.002 -27.817,5.914 -37.398,15.491 -9.575,9.582 -15.486,22.782 -15.486,37.396 0,3.344 0.31,6.615 0.902,9.784 v -0.005 c 0.334,1.812 -0.859,3.552 -2.666,3.891 -1.81,0.338 -3.55,-0.855 -3.889,-2.664 -0.665,-3.568 -1.015,-7.248 -1.015,-11.006 0,-32.89 26.655,-59.551 59.552,-59.554 7.707,0 15.089,1.469 21.857,4.139 1.715,0.678 2.555,2.612 1.878,4.325 m -25.07,67.981 c -10.065,-0.003 -18.218,-8.159 -18.222,-18.224 0.004,-10.063 8.157,-18.219 18.222,-18.221 10.068,0.002 18.222,8.158 18.222,18.221 0,10.065 -8.154,18.221 -18.222,18.224 m -31.398,-16.891 c 0,1.571 0.109,3.112 0.321,4.623 0.26,1.82 -1.01,3.505 -2.832,3.765 -1.821,0.255 -3.509,-1.013 -3.765,-2.833 -0.257,-1.817 -0.391,-3.672 -0.391,-5.555 0.003,-21.76 17.637,-39.396 39.397,-39.401 4.95,0 9.696,0.917 14.066,2.587 1.718,0.658 2.58,2.585 1.924,4.304 -0.658,1.718 -2.584,2.581 -4.306,1.925 -3.625,-1.388 -7.556,-2.147 -11.684,-2.147 -18.078,0.032 -32.695,14.654 -32.73,32.732 m -43.088,-0.866 c -0.675,1.71 -2.608,2.549 -4.323,1.874 -6.01,-2.372 -12.549,-3.674 -19.412,-3.674 -14.618,0.005 -27.817,5.914 -37.398,15.492 -9.575,9.581 -15.486,22.781 -15.486,37.396 0,3.346 0.31,6.614 0.902,9.784 v -0.003 c 0.334,1.809 -0.859,3.549 -2.666,3.891 -1.81,0.338 -3.55,-0.855 -3.889,-2.667 -0.665,-3.568 -1.014,-7.248 -1.014,-11.005 0,-32.891 26.654,-59.552 59.551,-59.555 7.707,0 15.09,1.469 21.858,4.141 1.714,0.676 2.554,2.61 1.877,4.326 m -25.069,67.981 c -10.066,-0.005 -18.219,-8.161 -18.223,-18.227 0.004,-10.06 8.157,-18.218 18.223,-18.221 10.068,0.003 18.221,8.161 18.221,18.221 0,10.066 -8.153,18.222 -18.221,18.227 m -31.078,-12.271 c 0.26,1.82 -1.01,3.508 -2.832,3.766 -1.821,0.256 -3.509,-1.014 -3.765,-2.834 -0.257,-1.817 -0.391,-3.672 -0.391,-5.552 0.003,-21.76 17.638,-39.398 39.398,-39.401 4.949,0 9.696,0.915 14.065,2.584 1.719,0.659 2.58,2.585 1.924,4.304 -0.657,1.719 -2.584,2.581 -4.305,1.925 -3.626,-1.385 -7.556,-2.146 -11.684,-2.146 -18.079,0.034 -32.696,14.653 -32.731,32.734 0,1.568 0.109,3.112 0.321,4.62 M 662.87,592.655 c -4.196,-9.956 -8.085,-20.076 -11.649,-30.349 -6.191,-1.547 -12.672,-2.367 -19.353,-2.37 -19.41,0.003 -37.155,6.938 -50.964,18.476 -0.889,0.746 -2.087,0.975 -3.185,0.61 -6.098,-2.023 -12.611,-3.114 -19.395,-3.114 -15.931,0 -30.424,6.034 -41.364,15.947 -0.659,0.603 -1.537,0.909 -2.428,0.86 -2.192,-0.125 -4.397,-0.188 -6.627,-0.188 -19.046,0.003 -37.004,4.612 -52.829,12.778 -3.976,21.694 -6.644,43.874 -7.921,66.462 -1.925,31.005 -12.36,59.702 -28.996,83.789 12.449,3.637 25.893,4.593 39.543,2.301 22.533,-3.783 41.65,-15.744 54.817,-32.333 18.226,5.534 38.574,4.048 56.629,-5.771 16.449,-8.942 28.124,-23.238 34.053,-39.554 8.46,0.166 17.087,-1.372 25.405,-4.818 32.303,-13.369 47.634,-50.424 34.264,-82.726"
     style="fill:#000000;fill-opacity:1;fill-rule:nonzero;stroke:none"
     id="path18927" />
  <path
     d="m 487.753,345.309 c -0.004,-2.862 -2.322,-5.182 -5.182,-5.186 -2.86,0.004 -5.179,2.324 -5.18,5.186 0.001,2.857 2.32,5.176 5.18,5.18 2.86,-0.004 5.178,-2.323 5.182,-5.18 m 11.207,0 c -0.003,9.052 -7.333,16.384 -16.389,16.386 -9.052,-0.002 -16.385,-7.334 -16.391,-16.386 0.006,-9.058 7.339,-16.388 16.391,-16.391 9.056,0.003 16.386,7.333 16.389,16.391"
     style="fill:#000000;fill-opacity:1;fill-rule:nonzero;stroke:none"
     id="path18931" />
  <path
     d="m 532.269,396.853 c -0.004,15.757 -4.597,30.472 -12.514,42.846 -4.782,-0.796 -9.49,-1.812 -14.11,-3.041 8.342,-11.083 13.291,-24.877 13.29,-39.805 0.001,-14.928 -4.948,-28.723 -13.29,-39.806 4.62,-1.228 9.328,-2.245 14.11,-3.042 7.917,12.376 12.51,27.09 12.514,42.848"
     style="fill:#000000;fill-opacity:1;fill-rule:nonzero;stroke:none"
     id="path18935" />
  <path
     d="m 618.022,396.853 v 0 c 0,-1.843 -1.493,-3.326 -3.334,-3.326 h -75.813 c -0.566,-14.753 -4.846,-28.578 -11.922,-40.544 5.956,-0.704 12.012,-1.064 18.158,-1.064 42.36,0 80.705,17.167 108.455,44.934 -27.75,27.766 -66.095,44.933 -108.455,44.933 -6.146,0 -12.202,-0.36 -18.158,-1.063 7.076,-11.966 11.356,-25.792 11.922,-40.545 h 75.813 c 1.841,0 3.334,-1.484 3.334,-3.325"
     style="fill:#000000;fill-opacity:1;fill-rule:nonzero;stroke:none"
     id="path18939" />
  <path
     d="m 432.022,396.853 c 0,-20.059 11.453,-37.442 28.18,-45.964 2.497,10.036 11.559,17.465 22.373,17.47 6.906,-0.001 13.1,-3.036 17.324,-7.844 7.756,10.056 12.369,22.656 12.369,36.338 0,13.68 -4.613,26.281 -12.369,36.336 -4.224,-4.807 -10.418,-7.84 -17.324,-7.843 -10.814,0.005 -19.876,7.435 -22.373,17.471 -16.727,-8.523 -28.18,-25.906 -28.18,-45.964"
     style="fill:#000000;fill-opacity:1;fill-rule:nonzero;stroke:none"
     id="path18943" />
  <path
     d="m 662.993,396.853 -4.712,-4.712 c -7.271,-7.279 -15.241,-13.863 -23.807,-19.638 3.407,-1.637 6.916,-3.102 10.508,-4.381 19.374,7.064 38.023,16.835 50.624,28.731 -12.601,11.896 -31.25,21.666 -50.624,28.729 -3.592,-1.279 -7.101,-2.741 -10.508,-4.38 8.566,-5.776 16.536,-12.359 23.807,-19.637 z"
     style="fill:#000000;fill-opacity:1;fill-rule:nonzero;stroke:none"
     id="path18947" />
  <path
     d="m 646.518,269.689 c -8.229,31.231 -13.45,63.638 -15.442,96.956 15.125,-7.29 32.134,-11.398 50.048,-11.4 1.038,0 2.074,0.013 3.105,0.04 0.475,-2.526 0.723,-5.131 0.723,-7.794 0,-17.256 -10.406,-32.079 -25.283,-38.541 0.26,-2.005 0.393,-4.05 0.393,-6.125 0,-12.905 -5.166,-24.603 -13.544,-33.136"
     style="fill:#000000;fill-opacity:1;fill-rule:nonzero;stroke:none"
     id="path18951" />
  <path
     d="m 734.357,396.853 v 0 c 0,-1.839 -1.495,-3.334 -3.333,-3.334 h -29.282 c -11.912,-11.802 -28.602,-21.277 -46.346,-28.517 8.245,-2.017 16.861,-3.091 25.729,-3.091 31.441,0 59.738,13.466 79.44,34.942 -19.702,21.477 -47.999,34.941 -79.44,34.941 -8.868,0 -17.484,-1.073 -25.729,-3.092 17.744,-7.239 34.434,-16.713 46.346,-28.516 h 29.282 c 1.838,0 3.333,-1.495 3.333,-3.333"
     style="fill:#000000;fill-opacity:1;fill-rule:nonzero;stroke:none"
     id="path18955" />
  <path
     d="m 479.569,322.446 c -23.155,-50.022 -39.047,-104.254 -46.245,-161.374 -1.292,-9.019 -4.265,-16.136 -8.389,-21.617 -1.741,2.028 -4.329,3.316 -7.215,3.316 -5.246,0 -9.5,-4.254 -9.5,-9.5 0,-5.247 3.784,-8.939 8.967,-9.767 8.751,-1.4 17.501,6.351 23.563,23.195 1.348,3.748 2.49,8.27 3.137,12.873 l 0.011,0.081 c 7.362,58.505 24.014,113.899 48.374,164.733 -2.948,-1.368 -6.233,-2.133 -9.7,-2.134 -1.017,0 -2.021,0.066 -3.003,0.194"
     style="fill:#000000;fill-opacity:1;fill-rule:nonzero;stroke:none"
     id="path18959" />
  <path
     d="m 648.529,262.298 c 5.632,-20.106 12.493,-39.702 20.5,-58.7 3.621,-8.738 5.341,-17.825 5.341,-26.747 0,-1.358 -0.038,-2.71 -0.117,-4.058 22.563,9.324 38.431,31.547 38.431,57.477 0,6.471 -0.988,12.711 -2.823,18.578 21.907,7.858 37.574,28.812 37.574,53.422 0,9.403 -2.288,18.272 -6.334,26.08 12.112,9.672 19.696,24.567 19.696,41.272 0,5.552 -0.775,10.904 -2.311,15.929 -8.041,-7.445 -17.159,-13.746 -27.094,-18.64 2.165,-4.106 4.761,-7.95 7.729,-11.474 l -0.004,0.002 c 1.189,-1.408 1.008,-3.512 -0.399,-4.697 -1.405,-1.188 -3.509,-1.008 -4.699,0.401 -3.353,3.979 -6.278,8.335 -8.702,12.996 -5.027,-2.118 -10.237,-3.884 -15.601,-5.27 3.382,-14.431 8.649,-28.128 15.529,-40.833 0.877,-1.618 0.272,-3.644 -1.345,-4.522 -1.618,-0.877 -3.642,-0.272 -4.519,1.346 -7.164,13.227 -12.648,27.501 -16.168,42.529 -4.021,-0.79 -8.117,-1.371 -12.279,-1.727 0.451,-2.661 0.684,-5.392 0.684,-8.172 0,-0.627 -0.012,-1.252 -0.036,-1.872 4.246,-21.853 11.15,-42.754 20.367,-62.356 0.784,-1.664 0.069,-3.65 -1.596,-4.433 -1.665,-0.783 -3.651,-0.069 -4.433,1.597 -7.38,15.691 -13.315,32.195 -17.634,49.344 -2.438,-6.236 -6.125,-11.848 -10.756,-16.524 5.148,-22.209 12.306,-43.646 21.27,-64.117 h -0.003 c 0.741,-1.688 -0.025,-3.651 -1.715,-4.391 -1.688,-0.738 -3.652,0.031 -4.39,1.719 -8.667,19.791 -15.675,40.472 -20.85,61.869 -1.642,-1.213 -3.364,-2.328 -5.156,-3.33 0.03,-0.722 0.044,-1.446 0.044,-2.172 0.002,-6.416 -1.122,-12.58 -3.185,-18.299 5.941,-23.041 13.669,-45.415 23.037,-66.983 h -0.004 c 0.736,-1.686 -0.038,-3.652 -1.729,-4.384 -1.687,-0.732 -3.651,0.039 -4.384,1.728 -8.464,19.491 -15.609,39.63 -21.331,60.322 -2.213,-3.712 -4.854,-7.132 -7.857,-10.188 l -2.731,-2.79"
     style="fill:#000000;fill-opacity:1;fill-rule:nonzero;stroke:none"
     id="path18963" />
  <path
     d="m 524.861,346.525 c -4.254,0.538 -8.456,1.245 -12.6,2.112 -21.412,-38.765 -38.148,-80.565 -49.405,-124.685 14.64,6.86 30.98,10.693 48.207,10.692 1.152,0.001 2.301,-0.015 3.444,-0.048 4.133,30.232 12.349,69.294 27.945,110.677 -3.552,0.057 -7.075,0.23 -10.569,0.517 -14.836,-31.404 -26.104,-63.584 -34,-96.049 h -0.003 c -0.435,-1.789 -2.237,-2.885 -4.028,-2.451 -1.787,0.434 -2.884,2.238 -2.447,4.027 7.824,32.169 18.918,64.061 33.456,95.208"
     style="fill:#000000;fill-opacity:1;fill-rule:nonzero;stroke:none"
     id="path18967" />
  <path
     d="M 549.6,345.311 C 534.519,305.97 526.233,268.526 521.855,238.9 c 10.265,7.065 22.71,11.205 36.104,11.202 5.357,0 10.566,-0.661 15.546,-1.909 -0.101,3.823 -0.166,7.909 -0.189,12.296 -0.003,0.66 -0.003,1.321 -0.003,1.98 0.002,37.664 4.967,70.301 8.043,86.917 -4.247,-0.988 -8.599,-1.811 -12.968,-2.449 -1.068,-3.504 -2.391,-7.952 -3.777,-13.264 -3.818,-14.615 -8.43,-35.789 -11.576,-61.933 h -0.003 c -0.22,-1.826 -1.879,-3.128 -3.704,-2.908 -1.829,0.218 -3.133,1.877 -2.913,3.702 4.058,33.732 10.528,59.32 14.708,73.509 -3.804,-0.378 -7.647,-0.625 -11.523,-0.732"
     style="fill:#000000;fill-opacity:1;fill-rule:nonzero;stroke:none"
     id="path18971" />
  <path
     d="m 588.488,351.218 c -0.94,-4.863 -2.156,-11.692 -3.375,-20.029 -2.568,-17.581 -5.133,-41.896 -5.133,-68.72 0,-0.649 0,-1.299 0.003,-1.952 0.016,-3.595 0.062,-6.981 0.134,-10.185 13.075,9.21 29.031,14.628 46.232,14.626 h 0.012 c 5.085,0 10.065,-0.476 14.892,-1.378 -9.02,33.017 -14.772,67.382 -16.884,102.719 -5.124,-2.938 -10.424,-5.6 -15.884,-7.965 -0.156,-1.749 -0.34,-3.98 -0.524,-6.655 -0.489,-7.169 -0.983,-17.462 -0.983,-29.886 0,-9.363 0.282,-19.936 1.047,-31.299 0.125,-1.837 -1.261,-3.422 -3.1,-3.55 -1.839,-0.123 -3.424,1.265 -3.549,3.104 -0.779,11.528 -1.06,22.25 -1.06,31.745 0,14.705 0.677,26.465 1.244,33.732 -4.272,-1.616 -8.633,-3.055 -13.072,-4.307"
     style="fill:#000000;fill-opacity:1;fill-rule:nonzero;stroke:none"
     id="path18975" />
  <path
     d="m 456.64,196.585 c 15.588,7.227 32.96,11.259 51.264,11.257 1.884,0 3.759,-0.041 5.623,-0.124 11.982,10.424 27.67,16.75 44.796,16.746 6.852,0 13.477,-1.012 19.728,-2.895 14.74,11.803 33.455,18.865 53.801,18.865 h 0.014 c 5.766,0 11.404,-0.565 16.858,-1.646 -1.915,5.805 -3.727,11.657 -5.435,17.553 -5.432,1.277 -11.099,1.952 -16.928,1.952 -17.992,-0.004 -34.448,-6.435 -47.249,-17.129 -0.889,-0.746 -2.088,-0.975 -3.188,-0.608 -5.645,1.868 -11.683,2.881 -17.967,2.881 -14.757,0 -28.177,-5.589 -38.316,-14.771 -0.66,-0.602 -1.538,-0.909 -2.428,-0.86 -2.034,0.115 -4.088,0.172 -6.15,0.172 -18.19,0 -35.307,-4.53 -50.3,-12.525 -1.484,-6.244 -2.86,-12.535 -4.123,-18.868"
     style="fill:#000000;fill-opacity:1;fill-rule:nonzero;stroke:none"
     id="path18979" />
  <path
     d="m 645.101,212.686 c -6.767,2.672 -14.149,4.14 -21.857,4.14 -32.896,-0.001 -59.552,-26.663 -59.552,-59.554 0,-3.757 0.349,-7.439 1.015,-11.005 0.338,-1.812 2.08,-3.004 3.889,-2.666 1.808,0.339 3,2.08 2.665,3.891 v -0.003 c -0.59,3.17 -0.901,6.438 -0.901,9.783 0,14.615 5.911,27.815 15.487,37.396 9.58,9.578 22.779,15.488 37.397,15.49 6.864,0 13.401,-1.301 19.412,-3.673 1.714,-0.675 3.648,0.165 4.322,1.876 0.678,1.716 -0.162,3.648 -1.877,4.325 m -60.865,-60.969 c 0.255,-1.821 1.944,-3.088 3.765,-2.833 1.82,0.259 3.091,1.944 2.832,3.767 -0.212,1.508 -0.321,3.052 -0.321,4.618 0.033,18.08 14.652,32.702 32.729,32.735 4.128,0 8.059,-0.76 11.684,-2.145 1.721,-0.656 3.648,0.205 4.307,1.924 0.656,1.717 -0.207,3.645 -1.926,4.305 -4.368,1.669 -9.116,2.582 -14.065,2.582 -21.76,-0.002 -39.393,-17.639 -39.396,-39.401 0,-1.88 0.132,-3.733 0.391,-5.552 m 37.673,-11.337 c 10.068,0.003 18.221,8.161 18.221,18.224 0,10.061 -8.153,18.22 -18.221,18.223 -10.064,-0.003 -18.219,-8.162 -18.223,-18.223 0.004,-10.063 8.159,-18.221 18.223,-18.224 m -76.364,22.085 c -6.766,2.672 -14.149,4.14 -21.857,4.14 -32.896,-0.002 -59.552,-26.665 -59.552,-59.554 0,-3.758 0.35,-7.4403 1.015,-11.0069 0.339,-1.8107 2.08,-3.0027 3.889,-2.664 1.808,0.3373 3,2.08 2.665,3.8893 v -0.0013 c -0.59,3.1679 -0.901,6.4369 -0.901,9.7829 0,14.614 5.911,27.813 15.487,37.394 9.58,9.579 22.78,15.49 37.397,15.491 6.864,0 13.401,-1.301 19.412,-3.673 1.715,-0.675 3.648,0.166 4.323,1.877 0.677,1.715 -0.163,3.648 -1.878,4.325 m -60.865,-60.97 c 0.255,-1.8216 1.944,-3.0869 3.765,-2.8323 1.82,0.2587 3.091,1.9423 2.832,3.7653 -0.212,1.508 -0.321,3.052 -0.321,4.62 0.033,18.079 14.652,32.701 32.729,32.735 4.128,0 8.059,-0.76 11.684,-2.146 1.722,-0.657 3.648,0.204 4.307,1.923 0.656,1.717 -0.207,3.645 -1.925,4.307 -4.368,1.668 -9.116,2.582 -14.066,2.582 -21.76,-0.002 -39.393,-17.64 -39.396,-39.401 0,-1.88 0.132,-3.733 0.391,-5.553 m 37.673,-11.3362 c 10.068,0.0013 18.222,8.1599 18.222,18.2222 0,10.063 -8.154,18.22 -18.222,18.223 -10.064,-0.003 -18.218,-8.16 -18.222,-18.223 0.004,-10.0623 8.158,-18.2209 18.222,-18.2222 M 628.606,118.324 C 620.288,114.88 611.661,113.34 603.2,113.504 597.271,97.1921 585.596,82.8948 569.147,73.9521 551.092,64.1348 530.744,62.6455 512.517,68.1815 499.351,51.5922 480.235,39.6309 457.7,35.8482 c -13.648,-2.292 -27.092,-1.3373 -39.542,2.3014 16.637,24.0852 27.072,52.7852 28.996,83.7874 1.277,22.591 3.945,44.771 7.921,66.462 15.826,8.166 33.782,12.777 52.83,12.779 2.228,0 4.435,-0.065 6.626,-0.188 0.89,-0.052 1.769,0.259 2.429,0.859 10.94,9.915 25.433,15.947 41.363,15.947 6.785,0 13.298,-1.091 19.396,-3.112 1.097,-0.366 2.296,-0.138 3.185,0.608 13.808,11.537 31.554,18.476 50.962,18.478 6.682,-0.002 13.163,-0.824 19.355,-2.373 3.564,-10.271 7.453,-20.391 11.648,-30.348 13.371,-32.3 -1.961,-69.354 -34.263,-82.725 m -106.253,1.611 c 6.383,-0.01 11.547,-5.172 11.555,-11.554 -0.008,-6.38 -5.172,-11.5436 -11.555,-11.5543 -6.381,0.0107 -11.541,5.1743 -11.552,11.5543 0.011,6.382 5.171,11.544 11.552,11.554 m 99.556,50.222 c 6.383,-0.009 11.547,-5.173 11.555,-11.553 -0.008,-6.381 -5.172,-11.545 -11.555,-11.555 -6.381,0.01 -11.541,5.174 -11.552,11.555 0.011,6.38 5.171,11.544 11.552,11.553"
     style="fill:#000000;fill-opacity:1;fill-rule:nonzero;stroke:none"
     id="path18983" />
</svg>
