<?xml version="1.0" encoding="UTF-8" standalone="no"?>
<!-- Created with Inkscape (http://www.inkscape.org/) -->

<svg
   version="1.1"
   id="svg30350"
   width="795.03467"
   height="793.70135"
   viewBox="0 0 795.03467 793.70135"
   sodipodi:docname="sanadarokumonsen.svg"
   inkscape:version="1.2 (dc2aeda, 2022-05-15)"
   xmlns:inkscape="http://www.inkscape.org/namespaces/inkscape"
   xmlns:sodipodi="http://sodipodi.sourceforge.net/DTD/sodipodi-0.dtd"
   xmlns="http://www.w3.org/2000/svg"
   xmlns:svg="http://www.w3.org/2000/svg">
  <defs
     id="defs30354">
    <clipPath
       clipPathUnits="userSpaceOnUse"
       id="clipPath30882">
      <path
         d="M -584.1943,578.9381 H 12.081702 V -16.3379 H -584.1943 Z"
         id="path30884"
         style="stroke-width:0.999998" />
    </clipPath>
    <clipPath
       clipPathUnits="userSpaceOnUse"
       id="clipPath30888">
      <path
         d="M -557.4951,577.8502 H 38.780902 V -17.4258 H -557.4951 Z"
         id="path30890"
         style="stroke-width:0.999998" />
    </clipPath>
    <clipPath
       clipPathUnits="userSpaceOnUse"
       id="clipPath30894">
      <path
         d="M -586.5449,579.5026 H 9.7311024 V -15.7734 H -586.5449 Z"
         id="path30896"
         style="stroke-width:0.999998" />
    </clipPath>
    <clipPath
       clipPathUnits="userSpaceOnUse"
       id="clipPath30900">
      <path
         d="M -538.2217,577.9479 H 58.054302 V -17.3281 H -538.2217 Z"
         id="path30902"
         style="stroke-width:0.999998" />
    </clipPath>
    <clipPath
       clipPathUnits="userSpaceOnUse"
       id="clipPath30907">
      <path
         d="M -550.2637,577.3248 H 46.012302 V -17.9512 H -550.2637 Z"
         id="path30909"
         style="stroke-width:0.999998" />
    </clipPath>
    <clipPath
       clipPathUnits="userSpaceOnUse"
       id="clipPath30913">
      <path
         d="M -556.4014,578.0143 H 39.874602 V -17.2617 H -556.4014 Z"
         id="path30915"
         style="stroke-width:0.999998" />
    </clipPath>
    <clipPath
       clipPathUnits="userSpaceOnUse"
       id="clipPath30919">
      <path
         d="M -568.2266,575.819 H 28.049402 V -19.457 H -568.2266 Z"
         id="path30921"
         style="stroke-width:0.999998" />
    </clipPath>
    <clipPath
       clipPathUnits="userSpaceOnUse"
       id="clipPath30925">
      <path
         d="M -572.8174,586.1354 H 23.458602 V -9.1406 H -572.8174 Z"
         id="path30927"
         style="stroke-width:0.999998" />
    </clipPath>
    <clipPath
       clipPathUnits="userSpaceOnUse"
       id="clipPath30932">
      <path
         d="M -564.5732,585.8483 H 31.702802 V -9.4277 H -564.5732 Z"
         id="path30934"
         style="stroke-width:0.999998" />
    </clipPath>
    <clipPath
       clipPathUnits="userSpaceOnUse"
       id="clipPath30938">
      <path
         d="M -574.5459,585.8522 H 21.730102 V -9.4238 H -574.5459 Z"
         id="path30940"
         style="stroke-width:0.999998" />
    </clipPath>
    <clipPath
       clipPathUnits="userSpaceOnUse"
       id="clipPath30944">
      <path
         d="M -561.4131,585.8522 H 34.862902 V -9.4238 H -561.4131 Z"
         id="path30946"
         style="stroke-width:0.999998" />
    </clipPath>
    <clipPath
       clipPathUnits="userSpaceOnUse"
       id="clipPath30950">
      <path
         d="M -553.8975,585.8483 H 42.378502 V -9.4277 H -553.8975 Z"
         id="path30952"
         style="stroke-width:0.999998" />
    </clipPath>
    <clipPath
       clipPathUnits="userSpaceOnUse"
       id="clipPath30956">
      <path
         d="M -548.9834,585.8522 H 47.292602 V -9.4238 H -548.9834 Z"
         id="path30958"
         style="stroke-width:0.999998" />
    </clipPath>
    <clipPath
       clipPathUnits="userSpaceOnUse"
       id="clipPath30962">
      <path
         d="M -557.0645,585.8483 H 39.211502 V -9.4277 H -557.0645 Z"
         id="path30964"
         style="stroke-width:0.999998" />
    </clipPath>
    <clipPath
       clipPathUnits="userSpaceOnUse"
       id="clipPath30968">
      <path
         d="M -567.7754,585.8522 H 28.500602 V -9.4238 H -567.7754 Z"
         id="path30970"
         style="stroke-width:0.999998" />
    </clipPath>
    <clipPath
       clipPathUnits="userSpaceOnUse"
       id="clipPath30974">
      <path
         d="M -576.3691,585.5885 H 19.906902 V -9.6875 H -576.3691 Z"
         id="path30976"
         style="stroke-width:0.999998" />
    </clipPath>
    <clipPath
       clipPathUnits="userSpaceOnUse"
       id="clipPath30980">
      <path
         d="M -542.9326,584.5729 H 53.343402 V -10.7031 H -542.9326 Z"
         id="path30982"
         style="stroke-width:0.999998" />
    </clipPath>
    <clipPath
       clipPathUnits="userSpaceOnUse"
       id="clipPath30986">
      <path
         d="M -545.417,584.5729 H 50.859002 V -10.7031 H -545.417 Z"
         id="path30988"
         style="stroke-width:0.999998" />
    </clipPath>
    <clipPath
       clipPathUnits="userSpaceOnUse"
       id="clipPath30992">
      <path
         d="M -528.0898,575.3815 H 68.186202 V -19.8945 H -528.0898 Z"
         id="path30994"
         style="stroke-width:0.999998" />
    </clipPath>
    <clipPath
       clipPathUnits="userSpaceOnUse"
       id="clipPath30998">
      <path
         d="M -536.6982,584.5729 H 59.577802 V -10.7031 H -536.6982 Z"
         id="path31000"
         style="stroke-width:0.999998" />
    </clipPath>
    <clipPath
       clipPathUnits="userSpaceOnUse"
       id="clipPath31004">
      <path
         d="M -531.1924,581.5885 H 65.083602 V -13.6875 H -531.1924 Z"
         id="path31006"
         style="stroke-width:0.999998" />
    </clipPath>
    <clipPath
       clipPathUnits="userSpaceOnUse"
       id="clipPath31010">
      <path
         d="M -540.8213,585.8483 H 55.454702 V -9.4277 H -540.8213 Z"
         id="path31012"
         style="stroke-width:0.999998" />
    </clipPath>
  </defs>
  <sodipodi:namedview
     id="namedview30352"
     pagecolor="#ffffff"
     bordercolor="#000000"
     borderopacity="0.25"
     inkscape:showpageshadow="2"
     inkscape:pageopacity="0.0"
     inkscape:pagecheckerboard="0"
     inkscape:deskcolor="#d1d1d1"
     showgrid="false"
     inkscape:zoom="0.29734106"
     inkscape:cx="-215.24105"
     inkscape:cy="396.85068"
     inkscape:window-width="1419"
     inkscape:window-height="456"
     inkscape:window-x="0"
     inkscape:window-y="25"
     inkscape:window-maximized="0"
     inkscape:current-layer="svg30350">
    <inkscape:page
       x="0"
       y="0"
       id="page30356"
       width="795.03467"
       height="793.70135" />
  </sodipodi:namedview>
  <path
     d="m 185.809,305.804 h -43.511 v -43.511 h 43.511 z M 164.052,178.82 c -58.114,0 -105.2228,47.112 -105.2228,105.229 0,58.116 47.1088,105.229 105.2228,105.229 58.118,0 105.234,-47.113 105.234,-105.229 0,-58.117 -47.116,-105.229 -105.234,-105.229"
     style="fill:#000000;fill-opacity:1;fill-rule:nonzero;stroke:none"
     id="path30468" />
  <path
     d="m 185.809,532.96 h -43.511 v -43.517 h 43.511 z M 164.052,405.973 c -58.114,0 -105.2228,47.117 -105.2228,105.229 0,58.114 47.1088,105.229 105.2228,105.229 58.118,0 105.234,-47.115 105.234,-105.229 0,-58.112 -47.116,-105.229 -105.234,-105.229"
     style="fill:#000000;fill-opacity:1;fill-rule:nonzero;stroke:none"
     id="path30470" />
  <path
     d="m 418.527,305.804 h -43.511 v -43.511 h 43.511 z M 396.776,178.82 c -58.12,0 -105.235,47.112 -105.235,105.229 0,58.116 47.115,105.229 105.235,105.229 58.114,0 105.221,-47.113 105.221,-105.229 0,-58.117 -47.107,-105.229 -105.221,-105.229"
     style="fill:#000000;fill-opacity:1;fill-rule:nonzero;stroke:none"
     id="path30472" />
  <path
     d="m 418.527,532.96 h -43.511 v -43.517 h 43.511 z M 396.776,405.973 c -58.12,0 -105.235,47.117 -105.235,105.229 0,58.114 47.115,105.229 105.235,105.229 58.114,0 105.221,-47.115 105.221,-105.229 0,-58.112 -47.107,-105.229 -105.221,-105.229"
     style="fill:#000000;fill-opacity:1;fill-rule:nonzero;stroke:none"
     id="path30474" />
  <path
     d="m 651.246,305.804 h -43.51 v -43.511 h 43.51 z M 629.488,178.82 c -58.112,0 -105.221,47.112 -105.221,105.229 0,58.116 47.109,105.229 105.221,105.229 58.118,0 105.234,-47.113 105.234,-105.229 0,-58.117 -47.116,-105.229 -105.234,-105.229"
     style="fill:#000000;fill-opacity:1;fill-rule:nonzero;stroke:none"
     id="path30476" />
  <path
     d="m 651.246,532.96 h -43.51 v -43.517 h 43.51 z M 629.488,405.973 c -58.112,0 -105.221,47.117 -105.221,105.229 0,58.114 47.109,105.229 105.221,105.229 58.118,0 105.234,-47.115 105.234,-105.229 0,-58.112 -47.116,-105.229 -105.234,-105.229"
     style="fill:#000000;fill-opacity:1;fill-rule:nonzero;stroke:none"
     id="path30478" />
</svg>
