<?xml version="1.0" encoding="UTF-8" standalone="no"?>
<!-- Created with Inkscape (http://www.inkscape.org/) -->

<svg
   version="1.1"
   id="svg32037"
   width="793.70135"
   height="793.70135"
   viewBox="0 0 793.70135 793.70135"
   sodipodi:docname="shibata-katsuie.svg"
   inkscape:version="1.2 (dc2aeda, 2022-05-15)"
   xmlns:inkscape="http://www.inkscape.org/namespaces/inkscape"
   xmlns:sodipodi="http://sodipodi.sourceforge.net/DTD/sodipodi-0.dtd"
   xmlns="http://www.w3.org/2000/svg"
   xmlns:svg="http://www.w3.org/2000/svg">
  <defs
     id="defs32041">
    <clipPath
       clipPathUnits="userSpaceOnUse"
       id="clipPath32638">
      <path
         d="M -556.4014,578.0143 H 38.874597 V -17.2617 H -556.4014 Z"
         id="path32640"
         style="stroke-width:0.999998" />
    </clipPath>
    <clipPath
       clipPathUnits="userSpaceOnUse"
       id="clipPath32644">
      <path
         d="M -586.5449,579.5026 H 8.7310974 V -15.7734 H -586.5449 Z"
         id="path32646"
         style="stroke-width:0.999998" />
    </clipPath>
    <clipPath
       clipPathUnits="userSpaceOnUse"
       id="clipPath32650">
      <path
         d="m -289.6914,371.0387 h 595.276 v -595.276 h -595.276 z"
         id="path32652"
         style="stroke-width:0.999998" />
    </clipPath>
    <clipPath
       clipPathUnits="userSpaceOnUse"
       id="clipPath32656">
      <path
         d="m -364.0908,364.9498 h 595.276 v -595.276 h -595.276 z"
         id="path32658"
         style="stroke-width:0.999998" />
    </clipPath>
    <clipPath
       clipPathUnits="userSpaceOnUse"
       id="clipPath32662">
      <path
         d="m -192.1582,197.2462 h 595.276 v -595.276 h -595.276 z"
         id="path32664"
         style="stroke-width:0.999998" />
    </clipPath>
    <clipPath
       clipPathUnits="userSpaceOnUse"
       id="clipPath32668">
      <path
         d="m -342.1348,347.2233 h 595.276 v -595.276 h -595.276 z"
         id="path32670"
         style="stroke-width:0.999998" />
    </clipPath>
    <clipPath
       clipPathUnits="userSpaceOnUse"
       id="clipPath32674">
      <path
         d="M -538.2217,577.9479 H 57.054297 V -17.3281 H -538.2217 Z"
         id="path32676"
         style="stroke-width:0.999998" />
    </clipPath>
    <clipPath
       clipPathUnits="userSpaceOnUse"
       id="clipPath32680">
      <path
         d="M -531.1924,581.5885 H 64.083597 V -13.6875 H -531.1924 Z"
         id="path32682"
         style="stroke-width:0.999998" />
    </clipPath>
    <clipPath
       clipPathUnits="userSpaceOnUse"
       id="clipPath32686">
      <path
         d="M -536.6982,584.5729 H 58.577797 V -10.7031 H -536.6982 Z"
         id="path32688"
         style="stroke-width:0.999998" />
    </clipPath>
    <clipPath
       clipPathUnits="userSpaceOnUse"
       id="clipPath32692">
      <path
         d="M -540.8213,585.8483 H 54.454697 V -9.4277 H -540.8213 Z"
         id="path32694"
         style="stroke-width:0.999998" />
    </clipPath>
    <clipPath
       clipPathUnits="userSpaceOnUse"
       id="clipPath32698">
      <path
         d="m -214.1143,214.9718 h 595.276 v -595.276 h -595.276 z"
         id="path32700"
         style="stroke-width:0.999998" />
    </clipPath>
    <clipPath
       clipPathUnits="userSpaceOnUse"
       id="clipPath32704">
      <path
         d="M -561.4131,585.8522 H 33.862897 V -9.4238 H -561.4131 Z"
         id="path32706"
         style="stroke-width:0.999998" />
    </clipPath>
    <clipPath
       clipPathUnits="userSpaceOnUse"
       id="clipPath32710">
      <path
         d="M -564.5732,585.8483 H 30.702797 V -9.4277 H -564.5732 Z"
         id="path32712"
         style="stroke-width:0.999998" />
    </clipPath>
    <clipPath
       clipPathUnits="userSpaceOnUse"
       id="clipPath32716">
      <path
         d="M -542.9326,584.5729 H 52.343397 V -10.7031 H -542.9326 Z"
         id="path32718"
         style="stroke-width:0.999998" />
    </clipPath>
    <clipPath
       clipPathUnits="userSpaceOnUse"
       id="clipPath32722">
      <path
         d="M -545.417,584.5729 H 49.858997 V -10.7031 H -545.417 Z"
         id="path32724"
         style="stroke-width:0.999998" />
    </clipPath>
    <clipPath
       clipPathUnits="userSpaceOnUse"
       id="clipPath32728">
      <path
         d="M -557.0645,585.8483 H 38.211497 V -9.4277 H -557.0645 Z"
         id="path32730"
         style="stroke-width:0.999998" />
    </clipPath>
    <clipPath
       clipPathUnits="userSpaceOnUse"
       id="clipPath32734">
      <path
         d="M -548.9834,585.8522 H 46.292597 V -9.4238 H -548.9834 Z"
         id="path32736"
         style="stroke-width:0.999998" />
    </clipPath>
    <clipPath
       clipPathUnits="userSpaceOnUse"
       id="clipPath32740">
      <path
         d="M -553.8975,585.8483 H 41.378497 V -9.4277 H -553.8975 Z"
         id="path32742"
         style="stroke-width:0.999998" />
    </clipPath>
    <clipPath
       clipPathUnits="userSpaceOnUse"
       id="clipPath32746">
      <path
         d="M -528.0898,575.3815 H 67.186197 V -19.8945 H -528.0898 Z"
         id="path32748"
         style="stroke-width:0.999998" />
    </clipPath>
    <clipPath
       clipPathUnits="userSpaceOnUse"
       id="clipPath32752">
      <path
         d="m -139.7148,221.0612 h 595.276 v -595.276 h -595.276 z"
         id="path32754"
         style="stroke-width:0.999998" />
    </clipPath>
    <clipPath
       clipPathUnits="userSpaceOnUse"
       id="clipPath32759">
      <path
         d="M -557.4951,577.8502 H 37.780897 V -17.4258 H -557.4951 Z"
         id="path32761"
         style="stroke-width:0.999998" />
    </clipPath>
    <clipPath
       clipPathUnits="userSpaceOnUse"
       id="clipPath32765">
      <path
         d="M -568.2266,575.819 H 27.049397 V -19.457 H -568.2266 Z"
         id="path32767"
         style="stroke-width:0.999998" />
    </clipPath>
    <clipPath
       clipPathUnits="userSpaceOnUse"
       id="clipPath32771">
      <path
         d="M -572.8174,586.1354 H 22.458597 V -9.1406 H -572.8174 Z"
         id="path32773"
         style="stroke-width:0.999998" />
    </clipPath>
    <clipPath
       clipPathUnits="userSpaceOnUse"
       id="clipPath32777">
      <path
         d="M -576.3691,585.5885 H 18.906897 V -9.6875 H -576.3691 Z"
         id="path32779"
         style="stroke-width:0.999998" />
    </clipPath>
    <clipPath
       clipPathUnits="userSpaceOnUse"
       id="clipPath32783">
      <path
         d="M -567.7754,585.8522 H 27.500597 V -9.4238 H -567.7754 Z"
         id="path32785"
         style="stroke-width:0.999998" />
    </clipPath>
    <clipPath
       clipPathUnits="userSpaceOnUse"
       id="clipPath32789">
      <path
         d="m -462.9883,462.9879 h 595.276 v -595.276 h -595.276 z"
         id="path32791"
         style="stroke-width:0.999998" />
    </clipPath>
    <clipPath
       clipPathUnits="userSpaceOnUse"
       id="clipPath32795">
      <path
         d="M -574.5459,585.8522 H 20.730097 V -9.4238 H -574.5459 Z"
         id="path32797"
         style="stroke-width:0.999998" />
    </clipPath>
    <clipPath
       clipPathUnits="userSpaceOnUse"
       id="clipPath32801">
      <path
         d="M -550.2637,577.3248 H 45.012297 V -17.9512 H -550.2637 Z"
         id="path32803"
         style="stroke-width:0.999998" />
    </clipPath>
    <clipPath
       clipPathUnits="userSpaceOnUse"
       id="clipPath32807">
      <path
         d="M -584.1943,578.9381 H 11.081697 V -16.3379 H -584.1943 Z"
         id="path32809"
         style="stroke-width:0.999998" />
    </clipPath>
  </defs>
  <sodipodi:namedview
     id="namedview32039"
     pagecolor="#ffffff"
     bordercolor="#000000"
     borderopacity="0.25"
     inkscape:showpageshadow="2"
     inkscape:pageopacity="0.0"
     inkscape:pagecheckerboard="0"
     inkscape:deskcolor="#d1d1d1"
     showgrid="false"
     inkscape:zoom="0.29734106"
     inkscape:cx="-215.24105"
     inkscape:cy="396.85068"
     inkscape:window-width="1419"
     inkscape:window-height="456"
     inkscape:window-x="0"
     inkscape:window-y="25"
     inkscape:window-maximized="0"
     inkscape:current-layer="svg32037">
    <inkscape:page
       x="0"
       y="0"
       id="page32043"
       width="793.70135"
       height="793.70135" />
  </sodipodi:namedview>
  <path
     d="M 617.316,617.317 C 560.723,673.827 483.113,708.615 396.844,708.641 310.579,708.615 232.967,673.827 176.381,617.317 119.87,560.73 85.0825,483.122 85.0585,396.851 85.0838,310.585 119.87,232.974 176.38,176.381 232.967,119.877 310.582,85.0894 396.844,85.0628 c 86.269,0.028 163.879,34.8142 220.472,91.3202 56.504,56.591 91.292,134.201 91.318,220.47 -0.026,86.269 -34.814,163.877 -91.318,220.464 M 396.848,31.7309 c -201.65,0 -365.1201,163.4711 -365.1187,365.1231 0,201.649 163.4707,365.12 365.1187,365.12 201.653,0 365.122,-163.471 365.122,-365.121 0,-201.652 -163.469,-365.1221 -365.122,-365.1221"
     style="fill:#000000;fill-opacity:1;fill-rule:nonzero;stroke:none"
     id="path32157" />
  <path
     d="m 186.286,294.749 -21.368,-0.003 -8.494,29.866 z m 6.42,27.783 -0.001,-21.359 -29.853,29.854 z"
     style="fill:#000000;fill-opacity:1;fill-rule:nonzero;stroke:none"
     id="path32161" />
  <path
     d="m 285.485,286.63 c 8.661,-37.213 27.496,-72.538 56.501,-101.543 40.026,-40.027 92.088,-60.684 144.534,-61.97 -15.135,9.375 -29.437,20.631 -42.57,33.766 -61.614,61.613 -81.87,148.921 -60.774,227.431 -78.515,-21.096 -165.823,-0.836 -227.439,60.779 -13.132,13.136 -24.391,27.437 -33.765,42.573 1.286,-52.447 21.945,-104.509 61.972,-144.536 29.005,-29.005 64.327,-47.837 101.541,-56.5"
     style="fill:#000000;fill-opacity:1;fill-rule:nonzero;stroke:none"
     id="path32165" />
  <path
     d="m 256.21,262.996 c -4.335,4.334 -9.4,7.549 -14.788,9.613 -2.412,0.923 -5.111,-0.283 -6.035,-2.692 -0.922,-2.409 0.286,-5.111 2.694,-6.032 4.197,-1.611 8.124,-4.096 11.522,-7.495 12.88,-12.925 12.878,-33.802 0,-46.725 -2.834,-2.835 -6.038,-5.037 -9.464,-6.623 -2.341,-1.085 -3.354,-3.862 -2.27,-6.204 1.085,-2.341 3.861,-3.358 6.202,-2.27 4.396,2.034 8.522,4.876 12.138,8.49 16.552,16.556 16.55,43.383 0.001,59.938 m -29.667,-10.294 c -8.561,8.558 -22.428,8.558 -30.993,0.003 -8.553,-8.565 -8.554,-22.432 0.003,-30.993 8.56,-8.556 22.43,-8.559 30.992,0 l -0.002,0.001 c 8.558,8.56 8.556,22.429 0,30.989 m 96.038,-63.725 c -37.21,-37.208 -100.571,-29.681 -132.5,2.247 -26.84,26.84 -34.099,59.809 -25.343,95.086 l 36.405,-0.001 v 29.871 c 23.438,-17.626 49.602,-29.984 76.835,-37.054 8.253,-31.792 23.716,-62.126 46.343,-88.363 -0.57,-0.602 -1.151,-1.195 -1.74,-1.786 m -106.716,53.047 c -2.66,2.66 -6.972,2.66 -9.634,0 -2.66,-2.662 -2.66,-6.974 -0.001,-9.634 2.66,-2.66 6.972,-2.66 9.632,0.002 2.66,2.66 2.66,6.972 0.003,9.632 m -14.207,-14.207 c -5.176,5.195 -5.176,13.585 0,18.781 5.193,5.174 13.583,5.174 18.779,-0.004 5.176,-5.193 5.173,-13.582 0,-18.776 -5.196,-5.176 -13.586,-5.177 -18.779,-0.001"
     style="fill:#000000;fill-opacity:1;fill-rule:nonzero;stroke:none"
     id="path32169" />
  <path
     d="m 386.254,494.719 -21.368,-0.003 -8.495,29.866 z m 6.42,27.783 -0.002,-21.359 -29.853,29.855 z"
     style="fill:#000000;fill-opacity:1;fill-rule:nonzero;stroke:none"
     id="path32173" />
  <path
     d="m 485.453,486.6 c 8.662,-37.213 27.496,-72.538 56.502,-101.545 40.026,-40.025 92.087,-60.682 144.534,-61.967 -15.135,9.374 -29.437,20.629 -42.571,33.765 -61.613,61.613 -81.869,148.921 -60.774,227.431 -78.515,-21.097 -165.822,-0.836 -227.438,60.78 -13.132,13.133 -24.391,27.437 -33.765,42.572 1.285,-52.448 21.945,-104.509 61.971,-144.536 29.006,-29.005 64.328,-47.837 101.541,-56.5"
     style="fill:#000000;fill-opacity:1;fill-rule:nonzero;stroke:none"
     id="path32177" />
  <path
     d="m 456.179,462.964 c -4.335,4.336 -9.4,7.55 -14.788,9.615 -2.412,0.923 -5.111,-0.284 -6.035,-2.693 -0.922,-2.408 0.284,-5.11 2.694,-6.031 4.197,-1.609 8.124,-4.096 11.522,-7.494 12.88,-12.926 12.878,-33.803 0,-46.724 -2.836,-2.836 -6.038,-5.039 -9.464,-6.626 -2.341,-1.084 -3.354,-3.861 -2.27,-6.202 1.085,-2.342 3.861,-3.359 6.202,-2.271 4.396,2.035 8.522,4.875 12.136,8.491 16.552,16.556 16.552,43.384 0.003,59.935 m -29.667,-10.291 c -8.562,8.557 -22.428,8.555 -30.993,0.002 -8.555,-8.565 -8.555,-22.432 0.003,-30.994 8.56,-8.555 22.429,-8.559 30.992,0 l -0.003,0.001 c 8.559,8.56 8.557,22.431 0.001,30.991 m 96.037,-63.726 c -37.209,-37.208 -100.57,-29.681 -132.499,2.247 -26.84,26.84 -34.099,59.809 -25.344,95.086 l 36.406,-0.001 v 29.871 c 23.438,-17.626 49.6,-29.986 76.835,-37.055 8.253,-31.79 23.716,-62.125 46.342,-88.364 -0.57,-0.6 -1.15,-1.194 -1.74,-1.784 m -106.717,53.046 c -2.66,2.66 -6.972,2.66 -9.632,0 -2.66,-2.662 -2.66,-6.974 -0.001,-9.632 2.66,-2.659 6.972,-2.66 9.632,0 2.66,2.661 2.66,6.973 0.001,9.632 m -14.205,-14.207 c -5.176,5.195 -5.176,13.587 0,18.781 5.192,5.175 13.583,5.176 18.779,-0.004 5.174,-5.19 5.174,-13.582 0,-18.776 -5.196,-5.177 -13.587,-5.177 -18.779,-0.001"
     style="fill:#000000;fill-opacity:1;fill-rule:nonzero;stroke:none"
     id="path32181" />
</svg>
