<?xml version="1.0" encoding="UTF-8" standalone="no"?>
<!-- Created with Inkscape (http://www.inkscape.org/) -->

<svg
   version="1.1"
   id="svg2831"
   width="793.70135"
   height="793.70135"
   viewBox="0 0 793.70135 793.70135"
   sodipodi:docname="tachi-kajinoha.svg"
   inkscape:version="1.2 (dc2aeda, 2022-05-15)"
   xmlns:inkscape="http://www.inkscape.org/namespaces/inkscape"
   xmlns:sodipodi="http://sodipodi.sourceforge.net/DTD/sodipodi-0.dtd"
   xmlns="http://www.w3.org/2000/svg"
   xmlns:svg="http://www.w3.org/2000/svg">
  <defs
     id="defs33" />
  <sodipodi:namedview
     id="namedview2833"
     pagecolor="#ffffff"
     bordercolor="#000000"
     borderopacity="0.25"
     inkscape:showpageshadow="2"
     inkscape:pageopacity="0.0"
     inkscape:pagecheckerboard="0"
     inkscape:deskcolor="#d1d1d1"
     showgrid="false"
     inkscape:zoom="0.29734106"
     inkscape:cx="586.86816"
     inkscape:cy="457.38722"
     inkscape:window-width="1419"
     inkscape:window-height="456"
     inkscape:window-x="0"
     inkscape:window-y="25"
     inkscape:window-maximized="0"
     inkscape:current-layer="svg2831">
    <inkscape:page
       x="0"
       y="0"
       id="page2837"
       width="793.70135"
       height="793.70135" />
  </sodipodi:namedview>
  <path
     d="m 423.51692,647.03467 c -7.33867,-6.69067 -16.88267,-10.32533 -26.66667,-10.344 -9.784,0.0187 -19.328,3.65333 -26.66666,10.344 v 44.51867 c 0,41.53599 -24.01333,66.92933 -24.01333,66.92933 h 101.36266 c 0,0 -24.016,-25.39334 -24.016,-66.92933 z M 686.25425,375.38134 c -18.172,1.29734 -42.688,5.28134 -66.07867,9.67467 17.13867,9.33867 40.85467,14.77067 54.828,14.77067 18.604,0 39.552,-6.256 40.22667,-4.21334 0.66933,2.044 -19.268,10.79334 -40.78134,11.072 -21.51333,0.28134 -45.36666,-6.28666 -65.68666,-19.35733 -14.37067,3.028 -28.92267,6.74133 -43.22667,11.28 27.49734,15.48667 59.05467,24.75733 86.91333,27.76267 31.18534,3.364 65.992,-3.09334 66.412,-0.984 0.41867,2.10933 -36.45066,12.19466 -75.06533,7.18133 -29.64266,-3.84533 -60.31733,-13.89467 -88.10666,-30.68133 -12.06,4.192 -23.86267,9.012 -35.156,14.53866 34.63466,19.156 73.39066,30.38 108.06533,35.21333 35.69466,4.97734 73.87466,-0.16666 74.15333,1.96667 0.27333,2.12933 -37.15867,10.25467 -79.71333,4.47867 -36.95067,-5.01334 -75.62267,-17.15067 -110.82133,-37.416 -0.0747,0.0387 -0.15334,0.0747 -0.22667,0.116 -10.932,5.85467 -20.804,11.996 -29.79066,18.35733 36.66399,23.45333 77.42133,35.82 117.95333,40.836 21.848,2.70267 56.01466,0.18267 56.25199,2.32 0.23734,2.13867 -20.45066,9.04 -62.29466,4.37333 -40.03333,-4.464 -81.76267,-18.44266 -118.63733,-42.60533 -37.74267,28.652 -58.35467,61.53733 -72.75067,94.23467 7.816,0.216 15.52667,0.84933 23.104,1.90133 21.948,-16.54933 47.75067,-24.60133 73.34133,-24.59867 9.70134,0 19.376,1.15067 28.80267,3.42934 8.09333,1.964 16.29867,4.67466 24.164,8.41866 26.81733,12.77734 49.312,35.34134 47.85867,36.93067 -1.44934,1.588 -22.55467,-16.584 -45.836,-27.35733 -9.33067,-4.32 -18.71067,-8.18 -28.01734,-10.41867 -8.82533,-2.13333 -17.888,-3.216 -26.972,-3.21067 -21.58533,0 -43.27599,6.096 -62.39866,18.62667 10.54267,2.04 20.81067,4.86 30.72667,8.41733 12.79733,-4.89066 25.79199,-7.19866 38.58933,-7.19866 21.11733,0.0133 41.968,5.62266 60.08266,16.91733 27.71067,17.28133 45.128,43.724 43.412,45.02533 -1.71333,1.29733 -17.29733,-20.396 -43.60933,-36.18133 -18.37733,-11.02933 -39.144,-17.98533 -59.88533,-17.96933 -9.052,0 -18.18267,1.24266 -27.292,3.83866 13.53866,5.76534 26.35466,12.91334 38.252,21.268 21.94533,2.068 41.72,10.96667 57.032,24.62533 24.77866,22.104 34.912,50.80667 33.00266,51.79467 -1.912,0.984 -10.82,-23.42 -36.34933,-45.70133 -10.88267,-9.49734 -25.74933,-16.888 -40.34667,-20.56267 10.83334,8.97733 20.58134,19.16133 29.58134,29.98 17.90666,21.52 23.32533,39.684 21.41333,40.67733 -1.91067,0.984 -10.648,-16.77733 -26.872,-35.816 -9.78933,-11.484 -21.80667,-23.312 -34.14,-32.888 2.49733,18.16667 10.08533,33.68267 20.53067,47.80267 13.60933,18.40133 31.05733,33.46 29.688,35.11733 -0.77067,0.92934 -24.3,-11.308 -39.77334,-35.81333 -10.28666,-16.292 -17.51866,-32.88533 -18.89866,-53.29867 -12.5,-8.70666 -26.03467,-16.03466 -40.37733,-21.76399 1.184,16.824 10.73866,35.70399 22.18133,54.13866 15.576,25.09333 48.32133,56.57733 46.76666,58.03333 -1.552,1.456 -15.83066,-8.49466 -39.5,-35.708 -5.16,-5.932 -9.71866,-12.35466 -14.04533,-18.74 -13.356,-19.75733 -22.91066,-40.61199 -23.304,-60.68133 -10.59066,-3.71866 -21.584,-6.576 -32.89333,-8.49466 0.32,20.16666 9.11467,39.68133 19.492,57.15333 17.09067,28.77066 40.19866,48.044 38.16133,50.62933 -2.03333,2.58933 -26.47866,-19.04667 -44.976,-47.61467 -11.73733,-18.132 -20.45333,-38.67066 -20.492,-61.33466 -8.53733,-1.108 -17.23733,-1.69067 -26.076,-1.69067 -8.83866,0 -17.53866,0.58267 -26.076,1.69067 -0.036,22.664 -8.75466,43.20266 -20.49199,61.33466 -18.49467,28.568 -42.94267,50.204 -44.976,47.61467 -2.03467,-2.58533 21.072,-21.85867 38.164,-50.62933 10.37733,-17.472 19.16933,-36.98667 19.49199,-57.15333 -11.31199,1.91866 -22.30533,4.776 -32.89333,8.49466 -0.39333,20.06934 -9.948,40.924 -23.30666,60.68133 -4.32667,6.38534 -8.884,12.808 -14.04267,18.74 -23.672,27.21334 -37.948,37.164 -39.50267,35.708 -1.55466,-1.456 31.19067,-32.94 46.76934,-58.03333 11.44266,-18.43467 20.99466,-37.31466 22.17866,-54.13866 -14.34133,5.72933 -27.87466,13.05733 -40.37733,21.76399 -1.37733,20.41334 -8.60933,37.00667 -18.89867,53.29867 -15.47333,24.50533 -39,36.74267 -39.77333,35.81333 -1.36933,-1.65733 16.08133,-16.716 29.69067,-35.11733 10.44266,-14.12 18.03066,-29.636 20.528,-47.80267 -12.33067,9.576 -24.35067,21.404 -34.13734,32.888 -16.22666,19.03867 -24.96399,36.8 -26.87466,35.816 -1.912,-0.99333 3.50933,-19.15733 21.416,-40.67733 9,-10.81867 18.74533,-21.00267 29.57866,-29.98 -14.59733,3.67467 -29.464,11.06533 -40.34666,20.56267 -25.52933,22.28133 -34.43733,46.68533 -36.34667,45.70133 -1.912,-0.988 8.224,-29.69067 33,-51.79467 15.31467,-13.65866 35.088,-22.55733 57.032,-24.62533 11.9,-8.35466 24.716,-15.50266 38.252,-21.268 -9.10667,-2.596 -18.23733,-3.83866 -27.292,-3.83866 -20.74133,-0.016 -41.508,6.94 -59.88533,17.96933 -26.312,15.78533 -41.89333,37.47866 -43.60933,36.18133 -1.71334,-1.30133 15.70266,-27.744 43.41199,-45.02533 18.11467,-11.29467 38.96534,-16.904 60.08267,-16.91733 12.8,0 25.79467,2.308 38.592,7.19866 9.91333,-3.55733 20.184,-6.37733 30.72533,-8.41733 -19.12133,-12.53067 -40.81466,-18.62667 -62.4,-18.62667 -9.08133,-0.005 -18.144,1.07734 -26.96933,3.21067 -9.30933,2.23867 -18.68667,6.09867 -28.02,10.41867 -23.27866,10.77333 -44.38666,28.94533 -45.83333,27.35733 -1.456,-1.58933 21.04133,-24.15333 47.85866,-36.93067 7.86267,-3.744 16.068,-6.45466 24.164,-8.41866 9.42667,-2.27867 19.09867,-3.42934 28.8,-3.42934 25.59334,-0.003 51.39334,8.04934 73.34133,24.59867 7.57734,-1.052 15.288,-1.68533 23.104,-1.90133 -14.396,-32.69734 -35.00799,-65.58267 -72.75066,-94.23467 -36.87467,24.16267 -78.604,38.14133 -118.63466,42.60533 -41.84667,4.66667 -62.532,-2.23466 -62.29467,-4.37333 0.23733,-2.13733 34.40133,0.38267 56.252,-2.32 40.532,-5.016 81.28666,-17.38267 117.95333,-40.836 -8.98667,-6.36133 -18.86133,-12.50266 -29.792,-18.35733 -0.0747,-0.0413 -0.15333,-0.0773 -0.22533,-0.116 -35.20134,20.26533 -73.87067,32.40266 -110.824,37.416 -42.552,5.776 -79.986665,-2.34934 -79.710665,-4.47867 0.278667,-2.13333 38.455995,3.01067 74.150665,-1.96667 34.67733,-4.83333 73.43066,-16.05733 108.06533,-35.21333 -11.29333,-5.52666 -23.096,-10.34666 -35.156,-14.53866 -27.78933,16.78666 -58.464,26.836 -88.104,30.68133 -38.61733,5.01333 -75.483995,-5.072 -75.067995,-7.18133 0.422667,-2.10934 35.229335,4.348 66.414665,0.984 27.856,-3.00534 59.41333,-12.276 86.91333,-27.76267 -14.30666,-4.53867 -28.85866,-8.252 -43.22666,-11.28 -20.32,13.07067 -44.176,19.63867 -65.68934,19.35733 -21.510662,-0.27866 -41.450661,-9.028 -40.781328,-11.072 0.674667,-2.04266 21.622668,4.21334 40.229328,4.21334 13.97067,0 37.68934,-5.432 54.82534,-14.77067 -23.39067,-4.39333 -47.904,-8.37733 -66.076,-9.67467 -18.172002,-1.29733 -52.349334,-2.60933 -52.349334,-4.76 0,-2.15066 30.933332,-3.46133 53.622664,-1.88 17.532,1.22 40.25067,3.93734 62.44533,7.94534 -20.70266,-16.564 -44.24933,-24.49734 -71.03333,-25.14667 -26.786665,-0.65067 -55.281331,12.48267 -56.247997,10.55733 -0.962667,-1.924 25.974666,-17.92266 56.247997,-18.08533 28.38,-0.15333 62.24667,11.90933 85.964,35.59067 14.216,2.98666 28.63467,6.644 42.87466,11.10266 -22.99733,-36.30266 -60.87999,-59.22533 -98.81066,-66.16266 -35.475998,-6.48934 -57.614665,-0.17867 -58.027998,-2.288 -0.417333,-2.10934 32.934668,-9.82667 55.515998,-5.8 46.424,8.276 88.34533,34.272 112.57466,77.96666 11.72134,4.06667 23.25067,8.72 34.34667,14.032 -18.768,-50.15333 -58.84133,-84.99333 -106.388,-103.70399 -25.148,-9.89867 -68.447995,-9.84934 -68.562662,-11.996 -0.112,-2.148 39.521332,-6.50134 73.354662,6.06533 50.80133,18.87066 93.58267,59.128 111.58267,114.66666 0.27333,0.14534 0.552,0.284 0.82266,0.432 10.28667,5.48667 19.69334,11.248 28.324,17.224 -7.084,-60.36266 -50.96666,-113.30666 -106.58133,-140.34666 -29.36666,-14.27733 -65.92666,-19.15733 -65.69066,-21.29333 0.24,-2.13867 39.78666,-0.556 74.87066,17.96666 57.672,30.44933 100.98667,85.60667 105.796,149.75467 35.108,26.45199 56.21733,56.68666 70.86266,86.77066 v -68.92267 c -12.49466,-19.05466 -32.196,-38.24933 -45.49199,-51.18666 -6.00267,-5.84133 -20.70134,-15.44267 -19.54667,-17.25467 1.15867,-1.81333 13.38267,3.95067 22.80933,11.152 2.40667,1.83867 5.024,3.99867 7.75733,6.392 -1.17866,-10.708 -3.34799,-18.81466 -6.36933,-26.84533 -3.784,-10.05867 -15.26266,-24.76133 -14.068,-25.79333 1.19867,-1.03067 13.852,10.54266 19.95067,21.82 3.79466,7.012 8.08666,22.28 8.94266,38.62533 9.13067,8.844 18.66134,19.38 26.016,29.42667 v -82.56934 c -66.88533,-38.236 -116.96133,-113.17466 -116.96133,-197.85066 0,-12.108 2.77867,-21.248 4.92267,-21.072 2.14,0.176 2.60667,15.48534 2.612,21.072 -0.04,79.88933 46.768,151.284 109.42666,188.83466 v -31.69466 c -53.90666,-35.68933 -84.78933,-104.924 -88.02399,-178.70266 -0.26534,-6.20267 -0.42667,-12.476 -0.42667,-18.80134 0,-13.928 2.688,-25.619996 4.836,-25.475996 2.14267,0.14 2.432,18.399996 2.432,25.475996 0,6.192 0.67733,12.35467 0.94267,18.464 3.01333,69.87733 31.69866,135.02267 80.23999,169.61067 v -36.524 c -42.02666,-34.73734 -57.73466,-86.80134 -60.92399,-144.712 -0.39067,-7.096 -0.62,-14.232 -0.62,-21.38 0,-15.611999 3.19733,-29.958666 5.33866,-29.766666 2.13734,0.189334 2.18934,21.226666 2.18934,29.766666 0,6.984 0.48,13.97867 0.868,20.95067 3.036,54.49333 17.15599,102.12266 53.14799,134.84666 v -41.89867 c -25.852,-26.892 -31.896,-65.79466 -33.24266,-108.51866 -0.13467,-4.38267 -0.21067,-8.73467 -0.21067,-13.050666 0,-23.949333 3.636,-35.589333 5.77867,-35.371999 2.136,0.218666 1.75066,24.731999 1.75066,35.371999 0,4.227996 0.336,8.501336 0.46534,12.811996 1.17466,38.728 6.48,72.768 25.45866,96.94533 v -97.14666 c 0,-48.006665 1.74,-63.803998 3.888,-63.815998 2.15067,0.012 3.888,15.809333 3.888,63.815998 v 97.14666 c 18.97867,-24.17733 24.28667,-58.21733 25.45867,-96.94533 0.132,-4.31066 0.46533,-8.584 0.46533,-12.811996 0,-10.64 -0.38266,-35.153333 1.75334,-35.371999 2.14,-0.217334 5.776,11.422666 5.776,35.371999 0,4.315996 -0.076,8.667996 -0.21067,13.050666 -1.34667,42.724 -7.39067,81.62666 -33.24267,108.51866 v 41.89867 c 35.99467,-32.724 50.112,-80.35333 53.148,-134.84666 0.388,-6.972 0.87067,-13.96667 0.87067,-20.95067 0,-8.54 0.0493,-29.577332 2.18933,-29.766666 2.13867,-0.192 5.336,14.154667 5.336,29.766666 0,7.148 -0.22666,14.284 -0.62,21.38 -3.18666,57.91066 -18.89466,109.97466 -60.924,144.712 v 36.524 c 48.544,-34.588 77.22667,-99.73334 80.24,-169.61067 0.268,-6.10933 0.94534,-12.272 0.94534,-18.464 0,-7.076 0.288,-25.335996 2.432,-25.475996 2.14533,-0.144 4.836,11.547996 4.836,25.475996 0,6.32534 -0.16134,12.59867 -0.42667,18.80134 -3.23467,73.77866 -34.11733,143.01333 -88.02667,178.70266 v 31.69466 c 62.65867,-37.55066 109.46667,-108.94533 109.42933,-188.83466 0.003,-5.58666 0.46934,-20.896 2.60934,-21.072 2.14666,-0.176 4.92266,8.964 4.92266,21.072 0,84.676 -50.07599,159.61466 -116.96133,197.85066 v 82.56934 c 7.35467,-10.04667 16.88534,-20.58267 26.016,-29.42667 0.85867,-16.34533 5.15067,-31.61333 8.94267,-38.62533 6.09867,-11.27734 18.75467,-22.85067 19.95067,-21.82 1.19733,1.032 -10.28134,15.73466 -14.068,25.79333 -3.02134,8.03067 -5.19067,16.13733 -6.368,26.84533 2.73466,-2.39333 5.34933,-4.55333 7.75866,-6.392 9.42667,-7.20133 21.65067,-12.96533 22.80667,-11.152 1.15733,1.812 -13.544,11.41334 -19.54667,17.25467 -13.29466,12.93733 -32.99733,32.132 -45.492,51.18666 v 68.92267 c 14.64534,-30.084 35.75467,-60.31867 70.86267,-86.77066 4.812,-64.148 48.124,-119.30534 105.796,-149.75467 35.08666,-18.52266 74.63066,-20.10533 74.87066,-17.96666 0.236,2.136 -36.324,7.016 -65.69066,21.29333 -55.61467,27.04 -99.49467,79.984 -106.58133,140.34666 8.63066,-5.976 18.03999,-11.73733 28.32399,-17.224 0.27334,-0.148 0.552,-0.28666 0.82534,-0.432 17.99733,-55.53866 60.77866,-95.796 111.58266,-114.66666 33.83333,-12.56667 73.464,-8.21333 73.352,-6.06533 -0.112,2.14666 -43.41467,2.09733 -68.56267,11.996 -47.54666,18.71066 -87.61999,53.55066 -106.38533,103.70399 11.096,-5.312 22.62534,-9.96533 34.34667,-14.032 24.22933,-43.69466 66.15067,-69.69066 112.57466,-77.96666 22.57867,-4.02667 55.93067,3.69066 55.516,5.8 -0.416,2.10933 -22.552,-4.20134 -58.03066,2.288 -37.928,6.93733 -75.81067,29.86 -98.81067,66.16266 14.24,-4.45866 28.65867,-8.116 42.87734,-11.10266 23.71466,-23.68134 57.58133,-35.744 85.96399,-35.59067 30.27067,0.16267 57.21067,16.16133 56.24534,18.08533 -0.96667,1.92534 -29.46134,-11.208 -56.24534,-10.55733 -26.78666,0.64933 -50.33333,8.58267 -71.03333,25.14667 22.192,-4.008 44.91333,-6.72534 62.44267,-7.94534 22.692,-1.58133 53.624,-0.27066 53.624,1.88 0,2.15067 -34.176,3.46267 -52.348,4.76 m 74.55999,-5.696 c 0,-21.04933 -13.19066,-39.00933 -31.75333,-46.09066 1.02667,-4.04534 1.57334,-8.27867 1.57334,-12.64267 0,-28.35466 -22.98667,-51.34266 -51.34134,-51.34266 -7.156,0 -13.96933,1.468 -20.156,4.112 -11.3,-9.37334 -25.81066,-15.012 -41.63866,-15.012 -28.312,0 -52.40533,18.03733 -61.44,43.24266 -17.43733,-0.156 -34.39067,7.10934 -47.864,20.24134 -11.33867,11.05066 -15.88,26.82533 -20.37066,31.32399 -3.03867,3.044 -7.97067,3.04134 -11.01467,0 -3.04,-3.04133 -3.04133,-7.972 0,-11.01466 3.41333,-3.412 31.07733,-29.592 36.22933,-37.168 11.028,-16.22133 14.2,-35.46667 10.072,-53.17467 17.068,-12.49866 28.15867,-32.676 28.15867,-55.452 0,-22.88666 -11.20267,-43.14666 -28.416,-55.63333 0.69733,-3.48666 1.07066,-7.09333 1.07066,-10.78533 0,-30.290666 -24.56,-54.849332 -54.84933,-54.849332 -4.29466,0 -8.464,0.508 -12.472,1.44 l 0.005,-0.0013 c -11.676,-20.961333 -34.05467,-35.149333 -59.75734,-35.149333 -25.7,0 -48.07866,14.188 -59.75733,35.149333 l 0.005,0.0013 c -4.00534,-0.932 -8.17467,-1.44 -12.46934,-1.44 -30.28933,0 -54.84933,24.558666 -54.84933,54.849332 0,3.692 0.37067,7.29867 1.068,10.78533 -17.21067,12.48667 -28.416,32.74667 -28.416,55.63333 0,22.776 11.09333,42.95334 28.16133,55.452 -4.128,17.708 -0.956,36.95334 10.072,53.17467 5.14934,7.576 32.816,33.756 36.22667,37.168 3.04133,3.04266 3.04133,7.97333 0,11.01466 -3.04133,3.04134 -7.976,3.044 -11.01333,0 -4.492,-4.49866 -9.03334,-20.27333 -20.372,-31.32399 -13.47067,-13.132 -30.42667,-20.39734 -47.86134,-20.24134 -9.03733,-25.20533 -33.13066,-43.24266 -61.44266,-43.24266 -15.828,0 -30.336,5.63866 -41.63867,15.012 -6.18666,-2.644 -13,-4.112 -20.15333,-4.112 -28.357332,0 -51.343998,22.988 -51.343998,51.34266 0,4.364 0.549334,8.59733 1.573334,12.64267 -18.56,7.08133 -31.753333,25.04133 -31.753333,46.09066 0,21.37867 13.606666,39.57867 32.627999,46.42 -3.833333,7.192 -6.018666,15.40267 -6.018666,24.124 0,28.35467 22.990666,51.34133 51.343994,51.34133 3.792,0 7.48267,-0.42133 11.03867,-1.2 11.96133,14.92667 30.33333,24.49734 50.948,24.49734 15.532,0 29.78667,-5.43734 40.99333,-14.49467 11.228,5.232 24.23067,6.79467 37.216,3.67733 20.17467,-4.84666 36.15067,-14.52133 40.98133,-15.12 4.33067,-0.536 8.36667,2.208 9.076,6.51334 0.70534,4.30133 -2.43733,7.50933 -6.51333,9.072 -4.54667,1.748 -12.74267,2.80266 -29.852,3.04666 -19.68933,0.28134 -37.03867,10.02667 -47.22666,25.248 -27.08534,4.31467 -47.78934,27.77334 -47.78934,56.07333 0,13.164 4.496,25.276 12.016,34.90534 -4.26533,6.56266 -6.752,14.384 -6.752,22.78933 0,23.11733 18.74134,41.86 41.85867,41.86 8.84933,0 17.052,-2.75333 23.81333,-7.43733 8.244,11.49466 21.708,18.992 36.932,18.992 17.07333,0 31.93733,-9.42534 39.7,-23.34667 15.308,-0.544 29.97733,-8.81733 38.032,-23.14533 8.612,-15.69867 24.81466,-24.58134 41.53866,-24.59734 16.724,0.016 32.92667,8.89867 41.54134,24.59734 8.052,14.328 22.72133,22.60133 38.032,23.14533 7.76,13.92133 22.62666,23.34667 39.69733,23.34667 15.224,0 28.688,-7.49734 36.932,-18.992 6.76133,4.684 14.96666,7.43733 23.81333,7.43733 23.11733,0 41.86133,-18.74267 41.86133,-41.86 0,-8.40533 -2.48666,-16.22667 -6.75466,-22.78933 7.52266,-9.62934 12.01733,-21.74134 12.01733,-34.90534 0,-28.29999 -20.70533,-51.75866 -47.79067,-56.07333 -10.18533,-15.22133 -27.53733,-24.96666 -47.224,-25.248 -17.112,-0.244 -25.30533,-1.29866 -29.85466,-3.04666 -4.07334,-1.56267 -7.21867,-4.77067 -6.51067,-9.072 0.70667,-4.30534 4.74533,-7.04934 9.07333,-6.51334 4.83067,0.59867 20.80667,10.27334 40.98134,15.12 12.98533,3.11734 25.988,1.55467 37.21866,-3.67733 11.204,9.05733 25.45867,14.49467 40.99067,14.49467 20.616,0 38.98933,-9.57067 50.948,-24.49734 3.556,0.77867 7.24666,1.2 11.03866,1.2 28.356,0 51.344,-22.98666 51.344,-51.34133 0,-8.72133 -2.18266,-16.932 -6.01866,-24.124 19.024,-6.84133 32.62799,-25.04133 32.62799,-46.42"
     style="fill:#000000;fill-opacity:1;fill-rule:nonzero;stroke:none;stroke-width:1.33333"
     id="path2951"
     clip-path="url(#clipPath3353)" />
</svg>
