<?xml version="1.0" encoding="UTF-8" standalone="no"?>
<!-- Created with Inkscape (http://www.inkscape.org/) -->

<svg
   version="1.1"
   id="svg5991"
   width="793.70135"
   height="793.70135"
   viewBox="0 0 793.70135 793.70135"
   sodipodi:docname="tokugawaaoi.svg"
   inkscape:version="1.2 (dc2aeda, 2022-05-15)"
   xmlns:inkscape="http://www.inkscape.org/namespaces/inkscape"
   xmlns:sodipodi="http://sodipodi.sourceforge.net/DTD/sodipodi-0.dtd"
   xmlns="http://www.w3.org/2000/svg"
   xmlns:svg="http://www.w3.org/2000/svg">
  <defs
     id="defs5995">
    <clipPath
       clipPathUnits="userSpaceOnUse"
       id="clipPath942">
      <path
         d="M -531.1924,581.5875 H 64.083597 V -13.6885 H -531.1924 Z"
         id="path944"
         style="stroke-width:0.999998" />
    </clipPath>
    <clipPath
       clipPathUnits="userSpaceOnUse"
       id="clipPath948">
      <path
         d="M -536.6982,584.5719 H 58.577797 V -10.7041 H -536.6982 Z"
         id="path950"
         style="stroke-width:0.999998" />
    </clipPath>
    <clipPath
       clipPathUnits="userSpaceOnUse"
       id="clipPath954">
      <path
         d="M -540.8213,585.8473 H 54.454697 V -9.4287 H -540.8213 Z"
         id="path956"
         style="stroke-width:0.999998" />
    </clipPath>
    <clipPath
       clipPathUnits="userSpaceOnUse"
       id="clipPath960">
      <path
         d="M -542.9326,584.5719 H 52.343397 V -10.7041 H -542.9326 Z"
         id="path962"
         style="stroke-width:0.999998" />
    </clipPath>
    <clipPath
       clipPathUnits="userSpaceOnUse"
       id="clipPath966">
      <path
         d="M -545.417,584.5719 H 49.858997 V -10.7041 H -545.417 Z"
         id="path968"
         style="stroke-width:0.999998" />
    </clipPath>
    <clipPath
       clipPathUnits="userSpaceOnUse"
       id="clipPath972">
      <path
         d="M -548.9834,585.8512 H 46.292597 V -9.4248 H -548.9834 Z"
         id="path974"
         style="stroke-width:0.999998" />
    </clipPath>
    <clipPath
       clipPathUnits="userSpaceOnUse"
       id="clipPath978">
      <path
         d="M -553.8975,585.8473 H 41.378497 V -9.4287 H -553.8975 Z"
         id="path980"
         style="stroke-width:0.999998" />
    </clipPath>
    <clipPath
       clipPathUnits="userSpaceOnUse"
       id="clipPath984">
      <path
         d="M -557.0645,585.8473 H 38.211497 V -9.4287 H -557.0645 Z"
         id="path986"
         style="stroke-width:0.999998" />
    </clipPath>
    <clipPath
       clipPathUnits="userSpaceOnUse"
       id="clipPath990">
      <path
         d="M -561.4131,585.8512 H 33.862897 V -9.4248 H -561.4131 Z"
         id="path992"
         style="stroke-width:0.999998" />
    </clipPath>
    <clipPath
       clipPathUnits="userSpaceOnUse"
       id="clipPath996">
      <path
         d="M -564.5732,585.8473 H 30.702797 V -9.4287 H -564.5732 Z"
         id="path998"
         style="stroke-width:0.999998" />
    </clipPath>
    <clipPath
       clipPathUnits="userSpaceOnUse"
       id="clipPath1002">
      <path
         d="M -567.7754,585.8512 H 27.500597 V -9.4248 H -567.7754 Z"
         id="path1004"
         style="stroke-width:0.999998" />
    </clipPath>
    <clipPath
       clipPathUnits="userSpaceOnUse"
       id="clipPath1009">
      <path
         d="M -572.8174,586.1344 H 22.458597 V -9.1416 H -572.8174 Z"
         id="path1011"
         style="stroke-width:0.999998" />
    </clipPath>
    <clipPath
       clipPathUnits="userSpaceOnUse"
       id="clipPath1015">
      <path
         d="M -574.5459,585.8512 H 20.730097 V -9.4248 H -574.5459 Z"
         id="path1017"
         style="stroke-width:0.999998" />
    </clipPath>
    <clipPath
       clipPathUnits="userSpaceOnUse"
       id="clipPath1021">
      <path
         d="M -576.3691,585.5875 H 18.906897 V -9.6885 H -576.3691 Z"
         id="path1023"
         style="stroke-width:0.999998" />
    </clipPath>
    <clipPath
       clipPathUnits="userSpaceOnUse"
       id="clipPath1027">
      <path
         d="M -557.4951,577.8492 H 37.780897 V -17.4268 H -557.4951 Z"
         id="path1029"
         style="stroke-width:0.999998" />
    </clipPath>
    <clipPath
       clipPathUnits="userSpaceOnUse"
       id="clipPath1033">
      <path
         d="M -568.2266,575.818 H 27.049397 V -19.458 H -568.2266 Z"
         id="path1035"
         style="stroke-width:0.999998" />
    </clipPath>
    <clipPath
       clipPathUnits="userSpaceOnUse"
       id="clipPath1039">
      <path
         d="M -550.2637,577.3239 H 45.012297 V -17.9521 H -550.2637 Z"
         id="path1041"
         style="stroke-width:0.999998" />
    </clipPath>
    <clipPath
       clipPathUnits="userSpaceOnUse"
       id="clipPath1045">
      <path
         d="M -556.4014,578.0133 H 38.874597 V -17.2627 H -556.4014 Z"
         id="path1047"
         style="stroke-width:0.999998" />
    </clipPath>
    <clipPath
       clipPathUnits="userSpaceOnUse"
       id="clipPath1051">
      <path
         d="M -586.5449,579.5016 H 8.7310974 V -15.7744 H -586.5449 Z"
         id="path1053"
         style="stroke-width:0.999998" />
    </clipPath>
    <clipPath
       clipPathUnits="userSpaceOnUse"
       id="clipPath1057">
      <path
         d="M -584.1943,578.9371 H 11.081697 V -16.3389 H -584.1943 Z"
         id="path1059"
         style="stroke-width:0.999998" />
    </clipPath>
    <clipPath
       clipPathUnits="userSpaceOnUse"
       id="clipPath1063">
      <path
         d="M -538.2217,577.9469 H 57.054297 V -17.3291 H -538.2217 Z"
         id="path1065"
         style="stroke-width:0.999998" />
    </clipPath>
    <clipPath
       clipPathUnits="userSpaceOnUse"
       id="clipPath1069">
      <path
         d="M -504.7314,301.2438 H 90.544597 v -595.276 H -504.7314 Z"
         id="path1071"
         style="stroke-width:0.999998" />
    </clipPath>
    <clipPath
       clipPathUnits="userSpaceOnUse"
       id="clipPath1075">
      <path
         d="M -528.0898,575.3805 H 67.186197 V -19.8955 H -528.0898 Z"
         id="path1077"
         style="stroke-width:0.999998" />
    </clipPath>
  </defs>
  <sodipodi:namedview
     id="namedview5993"
     pagecolor="#ffffff"
     bordercolor="#000000"
     borderopacity="0.25"
     inkscape:showpageshadow="2"
     inkscape:pageopacity="0.0"
     inkscape:pagecheckerboard="0"
     inkscape:deskcolor="#d1d1d1"
     showgrid="false"
     inkscape:zoom="0.48729904"
     inkscape:cx="-51.3032"
     inkscape:cy="391.95645"
     inkscape:window-width="1419"
     inkscape:window-height="456"
     inkscape:window-x="0"
     inkscape:window-y="25"
     inkscape:window-maximized="0"
     inkscape:current-layer="svg5991">
    <inkscape:page
       x="0"
       y="0"
       id="page5997"
       width="793.70135"
       height="793.70135" />
  </sodipodi:namedview>
  <path
     d="M 0,0 C 16.811641,7.1219719 -15.854836,53.234394 -2.2559844,18.132912 -0.85503448,12.191197 -0.08383208,6.1052904 0,0 Z m -79.104,64.85 c -17.245978,-4.607872 -50.07541,-16.037783 -18.934,-28.501 10.545723,-11.505292 15.146902,-16.647119 12.625328,2.734609 0.523472,8.88389 3.641801,17.362476 6.308672,25.766391 z m 14.561,-66.069 c 6.047894,-9.644916 16.452903,-31.913939 10.18825,-7.4316875 C -52.105728,14.642295 -59.306875,47.646234 -76.739125,57.371641 -83.807024,34.762534 -82.832676,15.066169 -64.543,-1.219 Z m 38.568,26.476 c 8.554077,15.136123 13.862662,27.38012 -7.48875,33.52925 -12.408462,9.393458 10.168721,-28.737166 7.48875,-33.52925 z m -24.182,-25.32 c -0.663502,-21.44088 12.15662,-64.387006 27.059875,-25.423 2.606074,22.4696417 -7.671195,47.895062 -14.326125,70.376625 C -45.874588,83.981708 -52.889039,5.1344128 -50.157,-0.063 Z m -12.869,51.758 c 5.789451,-9.578216 11.073473,-27.709004 11.688566,-5.434488 C -38.216975,66.652066 -56.578461,69.325645 -74.867,65.67 c 4.558557,-4.078815 8.721104,-8.691912 11.841,-13.975 z m 0.187,-90.201 c 25.130818,6.626716 -12.76101,37.76634788 -19.19736,51.569537 -8.52194,8.198194 -43.23863,47.252253 -31.2743,18.076173 9.12904,-28.5378487 24.522687,-54.938339 43.87066,-77.73571 1.630247,3.099633 3.858185,5.898006 6.601,8.09 z M 6.432,-1.672 c -18.747963,-15.758136 -32.558333,-36.123477 -45.607,-56.593 6.109507,36.391722 -48.952216,7.138261 -17.748,-10.414 28.26891,-16.110647 53.9474984,15.661241 60.7178594,40.502281 C 6.4111584,-19.672524 7.9697276,-10.534587 6.432,-1.672 Z m -112.852,0.856 c -12.71666,8.890937 -58.06569,40.87184 -41.442,6.486 6.58464,-27.170554 43.69725,-25.191848 61.530324,-44.445115 19.929225,-15.340486 -13.004956,18.629361 -14.545734,28.150099 -1.86287,3.2609625 -3.72155,6.5244272 -5.54259,9.809016 z m -4.194,9.55 c -8.98488,18.087491 -7.17864,47.43278 -30.7702,24.072187 -21.77403,-6.252415 26.062,-15.438452 30.7702,-24.072187 z m -47.23,14.485 C -166.79348,15.396503 -211.20315,0.57633409 -179.06546,0.35287109 -163.52898,-1.1029639 -137.65274,-17.877259 -154.042,8.155 c -1.54204,4.946308 -2.84051,9.97185 -3.802,15.064 z m 134.196,-7.235 c 5.758465,-14.99933284 2.989402,-48.859673 19.857,-19.492 -2.0568712,13.869168 -6.993289,64.90231 -17.498719,27.164219 L -22.73275,19.47075 Z m -131.471,-129.469 c -14.92685,-5.24902 -52.88303,-30.56694 -15.45728,-26.30018 21.84259,-4.65882 47.74592,18.73974 61.18626,22.0601 -15.30039,0.63578 -31.02722,-1.10891 -45.72898,4.24008 z m -8.175,30.975 c -11.53948,3.043099 -32.57498,25.052459 -36.1875,19.733625 -0.29296,-15.191831 -4.51909,-36.151414 16.5475,-22.860625 6.41743,1.699902 13.00252,2.8186 19.64,3.127 z m -19.639,-41.563 c 9.65371,8.61142 30.16865,13.59976 5.28262,15.78708 -17.2644,9.676109 -27.69902,10.794794 -21.80762,-12.48908 1.99056,-22.09749 2.68677,-17.72251 16.525,-3.298 z m 88.143,33.57 c -34.19681,6.302487 -69.90561,5.229669 -103.408,-4.349 31.85222,-14.10271 67.24379,-20.92799 101.985,-16.904 -3.668204,6.78958 -2.826504,14.948277 1.423,21.253 z m -104.81,62.146 c -3.87984,-19.9181 3.43315,-22.826212 21.41253,-15.031844 24.73213,0.591599 -18.92942,22.692649 -21.33453,36.083844 -0.0366,-7.017283 -0.0718,-14.034612 -0.078,-21.052 z m 2.612,-24.991 c 19.1638,-18.113859 43.55834,-32.756052 70.77458,-28.033936 11.64345,0.06704 38.179792,-6.916596 13.21782,3.062309 -25.53963,6.389317 -42.20982,40.3878 -70.00127,28.783291 -4.71099,-1.086419 -9.38817,-2.329583 -13.99113,-3.811664 z m 109.99,-60.976 c 13.973028,-2.75089 22.338054,9.16889 10.784328,-9.94162 -7.452603,-15.39082 -21.150189,-43.09697 -16.483765,-53.1644 24.183317,13.5545 45.597113,43.81545 36.654232,72.30514 -6.864237,28.509741 -55.111465,17.531694 -30.954795,-9.19912 z m -81.89,-40.854 c 28.99849,19.17166 -13.2569,4.50707 -25.841,13.242 6.83245,-12.60326 14.16965,-36.04114 25.841,-13.242 z m 56.881,-2.215 c -17.0407,2.04526 -44.65686,-37.10119 -13.27187,-21.41178 14.99237,2.66976 35.398149,13.62607 30.118183,27.54219 -5.541473,-2.23484 -11.117503,-4.41661 -16.846313,-6.13041 z m -60.684,-9.104 c 27.92966,3.94603 55.16309,11.69912 81.406,21.955 8.59652,14.38033 17.286262,32.4734 -7.066,24.7 -28.56837,-8.80731 -54.64956,-23.84715 -74.34,-46.655 z m 39.768,-19.397 c 11.74571,-6.46754 48.068255,12.87705 23.83538,7.74906 -7.7747,-3.07615 -15.87207,-5.23181 -23.83538,-7.74906 z m -2.359,21.824 c -11.06371,-6.23976 -54.72574,-3.31174 -23.939,-15.213 14.49062,-12.47763 14.2939,8.5033 23.939,15.213 z m 9.01,224.609 c -3.71349,34.636292 -15.49823,68.69912 -36.354,96.774 -10.20656,-11.00206 -26.53003,-7.62286 -12.68463,-25.65975 11.76904,-26.5265 28.11679,-50.932805 49.03863,-71.11425 z m 47.794,40.359 c 16.43148,18.13893 -21.57334,15.09703 -24.97042,19.22989 12.532039,-7.82584 13.752195,-51.976556 24.97042,-19.22989 z M -185.817,66.412 c 9.34057,-12.677076 28.52116,-38.675223 26.10859,-6.969516 7.46208,29.882367 -13.92508,52.004306 -23.57784,78.031816 0.0941,-12.65043 2.70513,-49.532052 -2.53075,-71.0623 z m 20.808,100.166 c -4.60647,13.47607 -19.10852,14.7594 3.21778,14.30933 17.05504,1.24077 47.8983,3.23315 54.28338,12.30623 -23.83036,14.16741 -60.74364,17.58141 -80.94577,-4.40852 -21.25856,-20.20004 12.37468,-56.49151 23.44461,-22.20704 z m -0.474,-130.127 c -12.816,8.491258 -24.88051,38.16306 -25.90223,7.539516 -1.46479,-12.010227 -19.32866,-38.6560205 2.54835,-21.175907 7.83055,4.466398 15.59343,9.049733 23.35388,13.636391 z m 71.13,139.33 c 11.257649,-11.85856 19.510886,-16.47898 4.903453,1.31859 -7.467002,15.64119 -28.336973,11.01922 -4.903453,-1.31859 z m -2.312,-4.312 c -8.16111,17.58213 -49.26071,11.14545 -20.8604,-2.8819 3.56335,-12.50782 40.855437,-21.94371 35.867109,-11.52869 -4.686967,5.11338 -9.56234,10.09395 -15.006709,14.41059 z m -9.781,-20.078 c -14.09917,16.85535 -38.64323,34.79095 -55.767,22.92762 9.34399,-25.94748 41.17461,-40.69754 66.315125,-50.689 12.349284,-4.74317 25.376399,-7.61686 9.393375,6.27275 -6.376071,7.40635 -12.918114,14.68641 -19.9415,21.48863 z m -8.328,-24.924 c -12.41125,3.8634 -30.83905,19.64443 -36.09331,22.41756 14.43342,-22.63716 17.81818,-53.957809 50.00681,-57.61806 19.431937,-9.479993 -11.13229,32.80723 -13.9135,35.2005 z m 27.373,21.541 c -24.19894,11.60285 19.301129,-33.72218 14.909375,-21.624 -0.666166,12.85466 3.45803,26.32181 -14.909375,21.624 z M -90.06,83.826 c -14.69236,-4.522575 -48.6271,30.1888 -34.85226,1.224732 0.25122,-19.790837 4.5018,-29.385157 21.72026,-12.640732 4.766262,3.315841 9.309041,7.024405 13.132,11.416 z M -142.739,49.42 c 32.28144,4.933746 -18.9831,34.264516 -11.67266,32.390219 C -148.63234,68.180417 -169.28533,25.497471 -142.739,49.42 Z M -409.055,-4.955 c 11.30102,-18.790634 13.32724,-8.912419 14.989,6.716 10.29172,13.734798 -9.80168,57.222597 -11.90705,22.198906 -1.04367,-9.13454 -5.45811,-20.5937291 -3.08195,-28.914906 z m 39.783,-36.477 c -9.36882,-10.726296 -3.22982,-23.929304 -14.00227,-4.367859 -9.60231,14.14928 -26.74795,39.8645113 -37.79959,40.8564528 -0.35263,-27.7205358 15.1466,-61.3948728 44.29072,-67.8954668 28.12406,-8.311769 42.73947,38.962376 7.51114,31.406873 z m -43.298,56.587 c 4.63902,15.679321 4.51516,25.137731 -3.59433,3.587656 -9.81162,-14.2871257 4.62636,-30.052055 3.59433,-3.587656 z m 115.761,29.98 c -28.13903,-20.534059 -51.74227,-47.7731732 -65.631,-79.87 14.63105,-3.342035 19.86687,-19.166661 28.56375,1.843199 17.08662,23.4567843 30.0506,49.816859 37.06725,78.026801 z m 35.339,-21.801 c -25.26946,-7.539294 -50.14732,-21.3433361 -59.66538,-47.27508 -5.76365,-10.117432 -25.08063,-29.606398 -3.95695,-12.978289 18.30396,18.922241 56.0847,16.359619 59.92762,46.2312342 1.4142,4.6230548 2.67618,9.2950558 3.69471,14.0221348 z m -126.741,1.923 c 0.12585,12.702137 24.4963,49.045067 -1.205,28.336 -18.05241,-6.309274 0.21608,-16.628177 1.205,-28.336 z m 72.064,11.092 c 13.88477,8.17875 20.89632,15.346724 1.10817,21.059775 -15.63177,9.902996 -24.0865,7.736292 -14.70817,-10.885775 2.62974,-12.666817 -3.30479,-32.9266 11.03092,-12.466842 z m -45.931,-58.417 c 10.78521,23.8721593 38.29243,40.927836 26.7017,70.094283 -8.49062,24.869558 -31.01355,-35.248765 -24.01579,-52.2548377 -0.52693,-5.9913743 -1.31811,-11.9772333 -2.68591,-17.8394453 z m -31.22,-0.541 c 8.15592,-14.638042 19.47779,-31.207759 24.92387,-6.232 6.66847,28.93022129 6.64147,59.488887 -3.23287,87.706 -10.55341,-26.177343 -17.44473,-53.6010059 -21.691,-81.474 z m 111.079,43.77 c 21.58286,4.990084 15.99846,9.753671 0.01,17.182623 -16.29113,18.885702 -16.43918,-30.9027071 -18.95005,-28.215639 6.32259,3.661907 12.64816,7.319013 18.94036,11.033016 z m 25.877,2.058 c -0.94927,-15.3422385 -20.60713,-40.628829 6.42123,-26.2007187 11.13309,4.7389012 43.14081,2.58589413 17.06535,12.7954375 -7.78231,4.5495352 -15.63399,8.9786482 -23.48658,13.4052812 z m -104.332,10.108 c 1.60876,15.145446 35.9547,38.857719 5.017,33.018 -25.53246,2.510581 -1.46014,-19.21222 -5.017,-33.018 z m 46.912,-207.265 c -2.23745,-18.11937 54.02714,-12.88405 16.83058,-7.11199 -5.84616,1.75621 -11.50102,4.13376 -16.83058,7.11199 z m -20.776,42.743 c -3.30654,9.66516 -18.70203,27.33109 1.00337,15.3192 31.73496,6.82401 -4.87751,46.984851 -20.16675,18.381425 -17.95259,-25.670885 3.15621,-58.825445 24.34338,-75.243495 24.53432,-22.84277 -3.37192,37.23261 -5.18,41.54287 z m 101.272,23.988 c -15.2354,-3.38365 -21.98909,-4.79587 -3.94308,-12.30222 11.80322,-9.18673 23.48879,-27.46344 22.48108,-1.26578 0.96748,22.619541 4.82286,24.794945 -18.538,13.568 z m -54.83,-54.242 c -15.86699,2.51187 -43.80944,21.8395 -26.809,-7.45 13.03896,-5.15591 59.70361,-26.39608 32.27397,1.57159 l -2.90297,3.34216 z m 73.364,112.599 c -2.30444,11.660936 7.07275,57.5297193 -9.1919,29.81218 -9.0279,-12.724985 -36.49396,-26.752249 -5.7561,-25.57118 5.05479,-1.139418 10.05656,-2.528273 14.948,-4.241 z m -43.413,-95.409 c 14.12183,-8.56191 24.43118,-34.76591 34.33172,-7.21433 16.88976,17.80351 -26.27218,0.54317 -34.33172,7.21433 z m -20.758,-19.811 c 8.83219,-14.9742 16.78162,-25.69748 32.783,-10.28038 14.34116,6.04905 -29.97331,5.56492 -32.783,10.28038 z m 49.45,93.839 c -13.13466,-7.311065 -29.92638,-14.095422 -5.80743,-14.423803 18.65812,-9.679382 24.15338,-2.822176 20.60041,16.7571 3.74567,21.796931 -7.04316,-2.013595 -14.79298,-2.333297 z m -94.113,-47.422 c -23.18988,-2.13453 4.78492,-36.45391 21.74632,-34.43188 15.96906,-4.68526 54.64113,-17.88451 56.57279,-10.36507 -20.80787,22.81232 -48.85675,36.80017 -78.31911,44.79695 z m 62.305,36.288 c 14.05925,6.565666 64.43087,29.849268 26.339,32.646 -26.82314,7.880374 -43.66447,-25.248599 -69.2558,-31.063969 -23.24996,-9.588499 22.63617,1.948577 31.65147,-1.478672 3.75523,-0.01726 7.51053,-0.03927 11.26533,-0.103359 z m 37.095,-56.355 c -17.91767,25.18445 -44.55394,24.09335 -71.58273,20.1678 -25.98295,1.22608 22.90837,-10.37856 28.41573,-20.2208 14.16831,-3.35558 28.93196,-2.2113 43.167,0.053 z m -93.807,25.964 c 34.74152,-4.02393 70.13345,2.80123 101.986,16.904 -33.50273,9.578655 -69.21186,10.651516 -103.409,4.349 4.24539,-6.284882 5.09457,-14.47432 1.423,-21.253 z m 27.999,193.436 c 4.68766,14.885864 6.84098,21.43786 -8.68241,9.564875 C -312.51381,85.61716 -334.1846,84.63503 -310.993,72.41 c 19.10385,-12.148015 19.06355,-16.575787 21.019,9.27 z m 29.862,99.699 c 10.02337,-1.97057 33.0201,2.5294 12.76453,-8.52966 -9.95756,-30.89432 43.13096,-19.26684 26.00335,8.27478 -13.25667,28.38191 -52.52271,26.6799 -77.33488,16.53888 -32.04943,-9.82535 33.92955,-15.6964 38.567,-16.284 z m 9.588,-5.34 c -28.86029,10.0758 -46.54398,-14.82189 -65.09188,-32.65749 -8.60628,-9.94785 -33.10359,-32.41117 -6.60653,-21.01794 25.66826,8.83381 56.74233,23.9491 68.41441,48.00943 l 1.8355,3.94562 z m -89.817,-62.523 c 3.48242,-12.55588 14.75884,-38.792119 18.02028,-12.17196 4.10494,9.92097 21.96132,27.47811 0.41187,15.82435 -5.98422,-1.82373 -12.12146,-3.61467 -18.43215,-3.65239 z m 29.432,-2.752 c -7.42741,-11.928997 -16.10166,-29.687561 5.19659,-16.7815 27.62058,3.953462 31.24482,41.8804 42.13829,55.54561 -14.26,-15.58551 -38.4769,-18.4761 -47.33488,-38.76411 z m 84.344,-49.758 c -10.62209,-15.029859 -32.93751,-27.166289 -4.463,-34.928 11.19162,-6.646518 24.61978,-16.7156237 12.74003,3.427629 -3.66672,10.234533 -6.37531,20.800467 -8.27703,31.500371 z m -101.932,75.842 c 11.21342,10.84291 14.69417,14.43813 -3.34303,11.01319 -16.53975,6.26968 -12.29163,-45.52483 -0.8948,-16.04407 l 2.18052,2.63486 z m 68.639,-76.957 c 0.2377,15.030343 2.7555,32.962975 -9.587,12.239955 -17.71048,-11.319784 -14.52262,-19.50592 4.21164,-26.218174 17.00373,-14.143384 1.77684,7.107772 5.37536,13.978219 z m -63.582,93.82 c 13.25136,-1.91824 41.64835,23.61263 33.97963,26.7495 -17.16629,9.94213 -41.73657,-20.44271 -43.75738,-27.41025 l 3.90141,0.17944 z m 90.998,-5.793 c -14.83839,0.68403 -22.41205,17.24009 -28.84225,-5.29418 -13.25875,-20.63727 -29.88619,-68.2599 -22.99852,-78.478476 23.27159,23.609371 40.74877,52.600346 51.84077,83.772656 z m -75.075,36.84 c -14.57287,10.99461 -38.17073,-40.34737 -14.5736,-11.02069 4.4445,4.18421 9.32926,7.89462 14.5736,11.02069 z m 69.024,-130.889 c 20.23451,19.290789 -0.0326,50.43958 7.72543,75.51061 3.32015,24.92996 -9.62986,-20.57852 -17.1067,-26.67206 -10.89641,-12.493755 -12.57891,-76.444412 6.80668,-51.662505 z M -58.99,-73.283 c -13.779574,19.267388 -31.633939,34.969483 -54.45,45.706 -25.81969,14.41905 -55.0728,21.5336229 -84.144,25.694 27.57351,-37.318917 65.80469,-66.419752 109.463,-82.216 26.125295,6.953482 48.017129,-21.80141 53.672419,-44.61481 -1.569678,-34.85026 -47.371514,-54.30594 -74.837799,-71.58057 -86.61519,-42.95177 -199.46343,-21.91487 -263.95056,50.53933 -20.1458,21.68872 8.00541,55.895509 30.11587,65.761323 23.94892,-2.226892 44.82292,12.221708 65.44052,24.026506 23.89163,15.151952 43.73648,35.924507 61.07855,58.084221 -46.10478,-5.2218548 -90.42445,-23.776791 -125.931,-53.691 -7.0464,-26.102325 -42.89584,-30.685716 -65.48618,-24.186936 C -434.68564,-65.818401 -429.4903,-23.47 -433.168,3.607 c -1.7893,100.05777 71.47217,194.79397 168.5567,218.69696 29.08956,14.9628 48.56671,-23.13783 49.91368,-47.51127 -5.00115,-23.19279 -16.43622,-44.66689 -12.20577,-70.81323 -0.3328,-30.82354 8.4529,-61.01548 19.81039,-89.39346 18.53182,42.538814 24.62191,90.19883 16.469,135.906 -19.08275,19.1503 -5.12842,52.48696 11.79878,68.79495 25.13869,16.06368 58.91804,-9.1906 84.029642,-19.41878 84.9464445,-46.9652 131.209951,-152.295188 108.141592,-246.617703 1.823852,-33.771383 -34.113427,-42.465856 -60.294869,-32.045914 -4.177032,1.448692 -8.212817,3.301663 -12.041145,5.512447 z m -148.103,350.732 c -107.68211,1.49529 -211.53198,-67.717 -252.32203,-167.25023 -42.58687,-97.780793 -20.5514,-219.24693 54.09667,-295.52739 71.82218,-77.2973 190.14905,-105.50074 289.22691,-69.42378 102.697076,34.88666 178.415538,135.77064 182.484129,244.267415 C 73.209918,94.986358 12.076152,200.40967 -82.425894,247.49089 -120.81756,267.21997 -163.93835,277.51471 -207.093,277.449 Z"
     style="fill:#000000;fill-opacity:1;fill-rule:nonzero;stroke:none"
     id="path6111"
     clip-path="url(#clipPath1069)"
     transform="matrix(1.3333333,0,0,-1.3333333,672.97518,401.65841)" />
</svg>
