<?xml version="1.0" encoding="UTF-8" standalone="no"?>
<!-- Created with Inkscape (http://www.inkscape.org/) -->

<svg
   version="1.1"
   id="svg39524"
   width="793.70135"
   height="793.70135"
   viewBox="0 0 793.70135 793.70135"
   sodipodi:docname="toudou-duta.svg"
   inkscape:version="1.2 (dc2aeda, 2022-05-15)"
   xmlns:inkscape="http://www.inkscape.org/namespaces/inkscape"
   xmlns:sodipodi="http://sodipodi.sourceforge.net/DTD/sodipodi-0.dtd"
   xmlns="http://www.w3.org/2000/svg"
   xmlns:svg="http://www.w3.org/2000/svg">
  <defs
     id="defs39528">
    <clipPath
       clipPathUnits="userSpaceOnUse"
       id="clipPath40194">
      <path
         d="M -548.9834,585.8522 H 46.292597 V -9.4238 H -548.9834 Z"
         id="path40196"
         style="stroke-width:0.999998" />
    </clipPath>
    <clipPath
       clipPathUnits="userSpaceOnUse"
       id="clipPath40200">
      <path
         d="M -567.7754,585.8522 H 27.500597 V -9.4238 H -567.7754 Z"
         id="path40202"
         style="stroke-width:0.999998" />
    </clipPath>
    <clipPath
       clipPathUnits="userSpaceOnUse"
       id="clipPath40207">
      <path
         d="m -201.2256,262.2765 h 595.276 v -595.276 h -595.276 z"
         id="path40209"
         style="stroke-width:0.999998" />
    </clipPath>
    <clipPath
       clipPathUnits="userSpaceOnUse"
       id="clipPath40213">
      <path
         d="m -449.6445,298.5504 h 595.276 v -595.276 h -595.276 z"
         id="path40215"
         style="stroke-width:0.999998" />
    </clipPath>
    <clipPath
       clipPathUnits="userSpaceOnUse"
       id="clipPath40219">
      <path
         d="M -564.5732,585.8483 H 30.702797 V -9.4277 H -564.5732 Z"
         id="path40221"
         style="stroke-width:0.999998" />
    </clipPath>
    <clipPath
       clipPathUnits="userSpaceOnUse"
       id="clipPath40225">
      <path
         d="m -394.0498,262.2765 h 595.276 v -595.276 h -595.276 z"
         id="path40227"
         style="stroke-width:0.999998" />
    </clipPath>
    <clipPath
       clipPathUnits="userSpaceOnUse"
       id="clipPath40231">
      <path
         d="M -557.4951,577.8502 H 37.780897 V -17.4258 H -557.4951 Z"
         id="path40233"
         style="stroke-width:0.999998" />
    </clipPath>
    <clipPath
       clipPathUnits="userSpaceOnUse"
       id="clipPath40237">
      <path
         d="M -561.4131,585.8522 H 33.862897 V -9.4238 H -561.4131 Z"
         id="path40239"
         style="stroke-width:0.999998" />
    </clipPath>
    <clipPath
       clipPathUnits="userSpaceOnUse"
       id="clipPath40243">
      <path
         d="M -545.417,584.5729 H 49.858997 V -10.7031 H -545.417 Z"
         id="path40245"
         style="stroke-width:0.999998" />
    </clipPath>
    <clipPath
       clipPathUnits="userSpaceOnUse"
       id="clipPath40249">
      <path
         d="M -557.0645,585.8483 H 38.211497 V -9.4277 H -557.0645 Z"
         id="path40251"
         style="stroke-width:0.999998" />
    </clipPath>
    <clipPath
       clipPathUnits="userSpaceOnUse"
       id="clipPath40256">
      <path
         d="M -553.8975,585.8483 H 41.378497 V -9.4277 H -553.8975 Z"
         id="path40258"
         style="stroke-width:0.999998" />
    </clipPath>
    <clipPath
       clipPathUnits="userSpaceOnUse"
       id="clipPath40262">
      <path
         d="M -542.9326,584.5729 H 52.343397 V -10.7031 H -542.9326 Z"
         id="path40264"
         style="stroke-width:0.999998" />
    </clipPath>
    <clipPath
       clipPathUnits="userSpaceOnUse"
       id="clipPath40268">
      <path
         d="M -556.4014,578.0143 H 38.874597 V -17.2617 H -556.4014 Z"
         id="path40270"
         style="stroke-width:0.999998" />
    </clipPath>
    <clipPath
       clipPathUnits="userSpaceOnUse"
       id="clipPath40274">
      <path
         d="m -328.3281,243.0934 h 595.276 v -595.276 h -595.276 z"
         id="path40276"
         style="stroke-width:0.999998" />
    </clipPath>
    <clipPath
       clipPathUnits="userSpaceOnUse"
       id="clipPath40280">
      <path
         d="m -362.6914,250.4283 h 595.276 v -595.276 h -595.276 z"
         id="path40282"
         style="stroke-width:0.999998" />
    </clipPath>
    <clipPath
       clipPathUnits="userSpaceOnUse"
       id="clipPath40286">
      <path
         d="m -295.1152,209.9684 h 595.276 v -595.276 h -595.276 z"
         id="path40288"
         style="stroke-width:0.999998" />
    </clipPath>
    <clipPath
       clipPathUnits="userSpaceOnUse"
       id="clipPath40292">
      <path
         d="m -145.6309,298.5504 h 595.276 v -595.276 h -595.276 z"
         id="path40294"
         style="stroke-width:0.999998" />
    </clipPath>
    <clipPath
       clipPathUnits="userSpaceOnUse"
       id="clipPath40298">
      <path
         d="m -297.6377,485.1422 h 595.276 v -595.276 h -595.276 z"
         id="path40300"
         style="stroke-width:0.999998" />
    </clipPath>
    <clipPath
       clipPathUnits="userSpaceOnUse"
       id="clipPath40304">
      <path
         d="M -586.5449,579.5026 H 8.7310974 V -15.7734 H -586.5449 Z"
         id="path40306"
         style="stroke-width:0.999998" />
    </clipPath>
    <clipPath
       clipPathUnits="userSpaceOnUse"
       id="clipPath40310">
      <path
         d="m -232.5859,250.4283 h 595.276 v -595.276 h -595.276 z"
         id="path40312"
         style="stroke-width:0.999998" />
    </clipPath>
    <clipPath
       clipPathUnits="userSpaceOnUse"
       id="clipPath40316">
      <path
         d="M -584.1943,578.9381 H 11.081697 V -16.3379 H -584.1943 Z"
         id="path40318"
         style="stroke-width:0.999998" />
    </clipPath>
    <clipPath
       clipPathUnits="userSpaceOnUse"
       id="clipPath40322">
      <path
         d="M -538.2217,577.9479 H 57.054297 V -17.3281 H -538.2217 Z"
         id="path40324"
         style="stroke-width:0.999998" />
    </clipPath>
    <clipPath
       clipPathUnits="userSpaceOnUse"
       id="clipPath40328">
      <path
         d="m -266.9473,243.0934 h 595.276 v -595.276 h -595.276 z"
         id="path40330"
         style="stroke-width:0.999998" />
    </clipPath>
    <clipPath
       clipPathUnits="userSpaceOnUse"
       id="clipPath40334">
      <path
         d="m -300.1621,209.9684 h 595.276 v -595.276 h -595.276 z"
         id="path40336"
         style="stroke-width:0.999998" />
    </clipPath>
    <clipPath
       clipPathUnits="userSpaceOnUse"
       id="clipPath40340">
      <path
         d="m -297.6377,214.8258 h 595.276 v -595.276 h -595.276 z"
         id="path40342"
         style="stroke-width:0.999998" />
    </clipPath>
    <clipPath
       clipPathUnits="userSpaceOnUse"
       id="clipPath40346">
      <path
         d="M -574.5459,585.8522 H 20.730097 V -9.4238 H -574.5459 Z"
         id="path40348"
         style="stroke-width:0.999998" />
    </clipPath>
    <clipPath
       clipPathUnits="userSpaceOnUse"
       id="clipPath40352">
      <path
         d="M -576.3691,585.5885 H 18.906897 V -9.6875 H -576.3691 Z"
         id="path40354"
         style="stroke-width:0.999998" />
    </clipPath>
    <clipPath
       clipPathUnits="userSpaceOnUse"
       id="clipPath40358">
      <path
         d="M -572.8174,586.1354 H 22.458597 V -9.1406 H -572.8174 Z"
         id="path40360"
         style="stroke-width:0.999998" />
    </clipPath>
    <clipPath
       clipPathUnits="userSpaceOnUse"
       id="clipPath40364">
      <path
         d="M -550.2637,577.3248 H 45.012297 V -17.9512 H -550.2637 Z"
         id="path40366"
         style="stroke-width:0.999998" />
    </clipPath>
    <clipPath
       clipPathUnits="userSpaceOnUse"
       id="clipPath40370">
      <path
         d="M -568.2266,575.819 H 27.049397 V -19.457 H -568.2266 Z"
         id="path40372"
         style="stroke-width:0.999998" />
    </clipPath>
    <clipPath
       clipPathUnits="userSpaceOnUse"
       id="clipPath40376">
      <path
         d="M -536.6982,584.5729 H 58.577797 V -10.7031 H -536.6982 Z"
         id="path40378"
         style="stroke-width:0.999998" />
    </clipPath>
    <clipPath
       clipPathUnits="userSpaceOnUse"
       id="clipPath40382">
      <path
         d="M -528.0898,575.3815 H 67.186197 V -19.8945 H -528.0898 Z"
         id="path40384"
         style="stroke-width:0.999998" />
    </clipPath>
    <clipPath
       clipPathUnits="userSpaceOnUse"
       id="clipPath40388">
      <path
         d="M -540.8213,585.8483 H 54.454697 V -9.4277 H -540.8213 Z"
         id="path40390"
         style="stroke-width:0.999998" />
    </clipPath>
    <clipPath
       clipPathUnits="userSpaceOnUse"
       id="clipPath40394">
      <path
         d="M -531.1924,581.5885 H 64.083597 V -13.6875 H -531.1924 Z"
         id="path40396"
         style="stroke-width:0.999998" />
    </clipPath>
  </defs>
  <sodipodi:namedview
     id="namedview39526"
     pagecolor="#ffffff"
     bordercolor="#000000"
     borderopacity="0.25"
     inkscape:showpageshadow="2"
     inkscape:pageopacity="0.0"
     inkscape:pagecheckerboard="0"
     inkscape:deskcolor="#d1d1d1"
     showgrid="false"
     inkscape:zoom="0.29734106"
     inkscape:cx="-215.24105"
     inkscape:cy="396.85068"
     inkscape:window-width="1419"
     inkscape:window-height="456"
     inkscape:window-x="0"
     inkscape:window-y="25"
     inkscape:window-maximized="0"
     inkscape:current-layer="svg39524">
    <inkscape:page
       x="0"
       y="0"
       id="page39530"
       width="793.70135"
       height="793.70135" />
  </sodipodi:namedview>
  <path
     d="m 355.928,324.125 c 1.194,7.144 2.071,14.414 2.627,21.786 11.059,-3.918 22.401,-6.786 33.879,-8.604 l 1.052,-0.165 -0.006,-12.63 c -2.928,-0.442 -5.681,-1.446 -8.122,-2.898 -9.94,0.368 -19.762,1.215 -29.43,2.511"
     style="fill:#000000;fill-opacity:1;fill-rule:nonzero;stroke:none"
     id="path39644" />
  <path
     d="m 310.114,333.905 c 1.16,10.19 1.753,20.557 1.753,31.058 0,1.754 -0.016,3.51 -0.048,5.271 12.646,-9.011 26.147,-16.299 40.169,-21.857 -0.529,-7.899 -1.44,-15.666 -2.716,-23.288 -13.364,2.092 -26.434,5.05 -39.158,8.816"
     style="fill:#000000;fill-opacity:1;fill-rule:nonzero;stroke:none"
     id="path39648" />
  <path
     d="m 268.301,349.702 c 0.518,6.427 0.746,12.861 0.746,19.419 0,13.305 -0.942,27.093 -2.326,42.353 -0.138,1.505 -0.291,3.02 -0.462,4.539 6.23,-8.83 13.291,-17.248 21.187,-25.144 5.551,-5.551 11.416,-10.734 17.444,-15.459 0.132,-3.481 0.255,-6.993 0.255,-10.447 0,-9.816 -0.534,-19.508 -1.572,-29.041 -12.102,3.879 -23.875,8.489 -35.272,13.78"
     style="fill:#000000;fill-opacity:1;fill-rule:nonzero;stroke:none"
     id="path39652" />
  <path
     d="m 194.174,398.067 c -5.752,5.048 -11.318,10.304 -16.69,15.751 -9.058,9.193 -17.024,17.632 -27.078,29.853 -22.862,27.796 -33.397,51.329 -35.809,51.721 -3.151,0.508 3.533,-22.357 32.671,-58.669 7.889,-9.83 18.856,-21.161 28.261,-30.468 3.815,-3.777 7.727,-7.458 11.725,-11.042 -16.176,1.474 -31.274,6.684 -44.425,14.757 -8.499,5.216 -14.839,10.839 -22.821,19.007 -19.938,20.397 -23.4949,34.63 -25.5269,34.867 -1.904,0.224 3.14,-23.199 24.2609,-43.317 10.104,-9.625 16.255,-14.146 25.787,-19.298 15.195,-8.219 32.547,-12.962 50.987,-13.164 7.637,-6.388 15.575,-12.426 23.791,-18.086 -6.226,-0.864 -12.586,-1.416 -19.07,-1.637 -1.992,-0.067 -3.979,-0.103 -5.956,-0.103 -12.497,0.01 -24.716,1.359 -36.381,4.056 -14.45,3.342 -25.311,8.259 -40.28,16.255 -23.9642,12.803 -45.2162,44.475 -46.2162,42.616 -1.4346,-2.664 15.704,-34.901 49.3802,-52.173 12.794,-6.564 27.766,-12.012 43.002,-14.784 9.916,-1.804 20.136,-2.699 30.495,-2.691 2.055,0 4.117,0.033 6.185,0.105 9.275,0.318 18.317,1.283 27.092,2.862 8.939,-5.752 18.179,-11.07 27.699,-15.914 -16.71,-4.176 -35.018,-6.798 -54.983,-7.278 -1.573,-0.039 -3.146,-0.056 -4.714,-0.056 -11.294,-0.015 -22.506,0.952 -33.38,2.74 -16.135,2.654 -33.652,8.54 -45.319,12.865 -29.9999,11.124 -52.0225,34.323 -52.6705,32.397 -1.22,-3.626 21.9973,-29.51 57.5315,-41.552 13.758,-4.661 29.926,-9.194 46.178,-11.333 9.069,-1.192 18.329,-1.831 27.66,-1.844 1.624,0 3.252,0.023 4.873,0.06 23.502,0.564 44.836,4.029 64.025,9.504 10.411,-4.879 21.137,-9.201 32.137,-12.931 -26.376,-10.138 -55.244,-16.373 -85.872,-18.022 -5.27,-0.281 -10.529,-0.428 -15.765,-0.428 -9.598,-0.003 -19.112,0.483 -28.448,1.473 -12.274,1.303 -24.305,3.683 -35.681,6.592 -37.1306,9.497 -55.3292,23.924 -55.4025,21.832 -0.112,-3.199 28.0855,-23.286 60.1415,-29.981 15.805,-3.301 25.286,-4.885 38.43,-5.868 6.927,-0.517 13.926,-0.771 20.96,-0.772 5.359,0 10.736,0.151 16.125,0.437 34.283,1.846 66.468,9.312 95.544,21.523 11.706,-3.533 23.71,-6.396 35.959,-8.545 -35.728,-21.186 -79.22,-34.152 -129.193,-36.466 -6.116,-0.282 -12.156,-0.436 -18.112,-0.436 -16.945,0 -28.257,1.027 -48.669,4.131 -37.896,5.761 -56.7242,19.435 -56.6856,17.145 0.068,-3.994 24.3916,-18.556 60.7316,-24.678 16.062,-2.706 29.263,-3.323 44.623,-3.323 6.07,0.003 12.209,0.157 18.422,0.447 54.119,2.5 101.087,17.289 139.079,41.562 8.445,-1.194 17,-2.052 25.652,-2.557 -2.578,-3.651 -4.096,-8.105 -4.112,-12.916 -47.621,-28.824 -104.129,-46.165 -165.82,-48.471 -138.7782,-5.184 -150.4421,60.071 -141.4768,76.209 0,0 -34.5186,10.31 -34.5186,44.828 0,23.158 9.2853,34.01 15.3933,38.644 -6.4253,9.192 -10.196,20.384 -10.196,32.452 0,31.32 27.2786,56.709 56.7092,56.709 3.5427,27.862 36.8279,53.414 74.1479,36.603 0,0 15.129,23.872 36.982,23.872 11.664,0 20.999,-3.711 28.15,-8.436 -1.452,-9.549 -2.176,-19.173 -2.176,-28.812 -0.002,-4.489 0.156,-8.981 0.47,-13.463 -3.07,4.283 -14.046,13.79 -14.568,12.244 -0.442,-1.318 8.522,-9.946 16.196,-27.109 3.53,-23.644 11.507,-46.762 23.922,-67.993 1.104,-6.289 1.933,-12.553 2.488,-18.703 1.376,-15.17 2.3,-28.764 2.297,-41.746 0,-5.518 -0.167,-10.924 -0.533,-16.303 -10.3,5.08 -20.274,10.716 -29.891,16.872 1.169,8.452 1.776,17.133 1.773,26.004 0,0.084 0.003,0.2 0.003,0.348 -0.019,8.423 -0.468,16.812 -1.395,25.063 -1.582,14.117 -4.858,28.72 -9.142,40.598 -11.767,32.623 -42.921,57.056 -42.389,53.168 0.462,-3.397 20.986,-19.873 33.127,-47.973 4.668,-10.804 8.671,-25.308 10.755,-39.137 1.553,-10.315 2.304,-20.963 2.32,-31.724 0,-0.09 -0.003,-0.206 -0.003,-0.343 0,-7.452 -0.441,-14.761 -1.297,-21.897 -8.763,5.909 -17.208,12.252 -25.309,19.001 0.672,4.979 1.004,9.933 1.004,14.837 -0.003,7.194 -0.71,14.268 -2.065,21.143 -2.147,10.881 -4.267,19.261 -11.087,30.852 -16.719,28.42 -48.996,46.128 -47.869,42.65 0.722,-2.236 25.098,-19.16 38.285,-39.581 5.132,-7.941 8.427,-15.369 11.12,-23.772 3.185,-9.944 4.888,-20.476 4.885,-31.292 0,-3.165 -0.142,-6.357 -0.44,-9.568"
     style="fill:#000000;fill-opacity:1;fill-rule:nonzero;stroke:none"
     id="path39656" />
  <path
     d="m 393.486,279.958 v -79.594 c 0,-41.017 -54.13,-60.855 -93.152,-42.733 -15.749,-12.842 -35.856,-20.544 -57.761,-20.544 -33.21,0 -62.283,17.697 -78.303,44.178 -1.029,-0.041 -2.066,-0.066 -3.108,-0.066 -40.602,0 -73.5209,32.915 -73.5209,73.518 0,5.285 0.5613,10.441 1.6213,15.409 20.8826,-13.546 53.6476,-23.312 103.9456,-23.322 5.005,0 10.185,0.097 15.543,0.301 10.56,0.395 20.975,1.22 31.223,2.464 -8.609,-5.341 -16.705,-9.744 -26.587,-12.781 -8.906,-2.74 -19.226,-5.131 -29.362,-6.052 -19.724,-1.794 -39.225,2.69 -40.621,1.874 -2.344,-1.37 21.121,-8.598 44.344,-7.244 8.393,0.491 18.997,2.203 27.657,4.922 14.616,4.586 27.505,12.162 39.308,21.373 11.178,1.82 22.15,4.144 32.88,6.943 -11.107,-14.423 -25.48,-26.294 -42.099,-34.699 -10.579,-5.349 -24.791,-10.671 -35.019,-12.669 -16.958,-3.318 -43.933,-2.69 -45.593,-3.714 -2.585,-1.592 27.214,-6.373 55.076,-0.214 8.155,1.802 24.359,7.906 35.16,14.164 17.236,9.981 31.889,23.656 42.795,39.99 9.982,2.934 19.737,6.284 29.262,10.036 -9.661,-25.553 -27.6,-47.018 -50.726,-61.552 -7.711,-4.846 -17.798,-10.105 -27.871,-13.953 -19.948,-7.62 -46.397,-9.189 -47.075,-9.829 -1.921,-1.813 30.04,-4.741 59.123,7.949 8.631,3.765 20.109,10.051 28.94,16.717 21.351,16.122 37.564,38.298 45.932,64.076 7.365,3.13 14.93,6.683 21.984,10.291 -4.879,-37.207 -24.957,-68.496 -54.243,-88.585 -6.301,-4.325 -7.445,-5.355 -21.04,-12.049 -15.017,-7.398 -41.914,-13.45 -42.642,-14.555 -1.538,-2.336 30.986,0.433 54.273,13.031 8.828,4.774 14.176,8.401 20.571,13.45 27.946,22.079 46.618,54.593 50.29,92.519 3.64,1.981 7.229,4.025 10.775,6.13 1.536,-4.625 4.528,-8.586 8.436,-11.337 -1.86,-27.072 -12.79,-51.967 -29.352,-72.036 -7.659,-9.277 -15.546,-16.56 -25.277,-24.29 -15.243,-12.103 -44.935,-24.318 -44.935,-24.318 -1.912,-2.802 33.055,5.044 55.845,24.804 10.936,9.479 18.655,17.575 26.057,28.071 13.2,18.71 21.94,40.748 24.134,64.529 1.006,-0.3 2.052,-0.443 3.112,-0.603"
     style="fill:#000000;fill-opacity:1;fill-rule:nonzero;stroke:none"
     id="path39660" />
  <path
     d="m 437.77,324.125 c -1.192,7.144 -2.071,14.414 -2.627,21.786 -11.059,-3.918 -22.401,-6.786 -33.879,-8.604 l -1.049,-0.165 0.005,-12.63 c 2.924,-0.442 5.678,-1.446 8.12,-2.898 9.94,0.368 19.762,1.215 29.43,2.511"
     style="fill:#000000;fill-opacity:1;fill-rule:nonzero;stroke:none"
     id="path39664" />
  <path
     d="m 483.587,333.905 c -1.163,10.19 -1.756,20.557 -1.756,31.058 0,1.754 0.016,3.51 0.048,5.271 -12.646,-9.011 -26.145,-16.299 -40.168,-21.857 0.528,-7.899 1.439,-15.666 2.715,-23.288 13.364,2.092 26.434,5.05 39.161,8.816"
     style="fill:#000000;fill-opacity:1;fill-rule:nonzero;stroke:none"
     id="path39668" />
  <path
     d="m 525.399,349.702 c -0.519,6.427 -0.747,12.861 -0.747,19.419 0,13.305 0.943,27.093 2.325,42.353 0.139,1.505 0.292,3.02 0.463,4.539 -6.229,-8.83 -13.291,-17.248 -21.187,-25.144 -5.55,-5.551 -11.416,-10.734 -17.444,-15.459 -0.132,-3.481 -0.254,-6.993 -0.254,-10.447 0,-9.816 0.533,-19.508 1.573,-29.041 12.101,3.879 23.873,8.489 35.271,13.78"
     style="fill:#000000;fill-opacity:1;fill-rule:nonzero;stroke:none"
     id="path39672" />
  <path
     d="m 599.524,398.067 c 5.752,5.048 11.32,10.304 16.69,15.751 9.058,9.193 17.026,17.632 27.078,29.853 22.862,27.796 33.397,51.329 35.809,51.721 3.151,0.508 -3.533,-22.357 -32.671,-58.669 -7.888,-9.83 -18.856,-21.161 -28.261,-30.468 -3.816,-3.777 -7.727,-7.458 -11.727,-11.042 16.178,1.474 31.276,6.684 44.427,14.757 8.499,5.216 14.84,10.839 22.821,19.007 19.938,20.397 23.495,34.63 25.527,34.867 1.904,0.224 -3.14,-23.199 -24.261,-43.317 -10.104,-9.625 -16.255,-14.146 -25.787,-19.298 -15.195,-8.219 -32.545,-12.962 -50.986,-13.164 -7.638,-6.388 -15.576,-12.426 -23.792,-18.086 6.226,-0.864 12.586,-1.416 19.07,-1.637 1.992,-0.067 3.979,-0.103 5.956,-0.103 12.497,0.01 24.716,1.359 36.383,4.056 14.448,3.342 25.309,8.259 40.278,16.255 23.964,12.803 45.218,44.475 46.216,42.616 1.435,-2.664 -15.704,-34.901 -49.378,-52.173 -12.796,-6.564 -27.767,-12.012 -43.004,-14.784 -9.916,-1.804 -20.136,-2.699 -30.495,-2.691 -2.054,0 -4.117,0.033 -6.185,0.105 -9.275,0.318 -18.317,1.283 -27.092,2.862 -8.939,-5.752 -18.179,-11.07 -27.699,-15.914 16.71,-4.176 35.018,-6.798 54.983,-7.278 1.573,-0.039 3.147,-0.056 4.715,-0.056 11.294,-0.015 22.505,0.952 33.379,2.74 16.135,2.654 33.651,8.54 45.32,12.865 29.999,11.124 52.022,34.323 52.67,32.397 1.22,-3.626 -21.998,-29.51 -57.534,-41.552 -13.756,-4.661 -29.924,-9.194 -46.176,-11.333 -9.069,-1.192 -18.33,-1.831 -27.659,-1.844 -1.624,0 -3.252,0.023 -4.874,0.06 -23.502,0.564 -44.836,4.029 -64.024,9.504 -10.413,-4.879 -21.138,-9.201 -32.136,-12.931 26.374,-10.138 55.242,-16.373 85.871,-18.022 5.269,-0.281 10.528,-0.428 15.764,-0.428 9.598,-0.003 19.113,0.483 28.448,1.473 12.274,1.303 24.305,3.683 35.681,6.592 37.131,9.497 55.329,23.924 55.403,21.832 0.112,-3.199 -28.084,-23.286 -60.142,-29.981 -15.805,-3.301 -25.285,-4.885 -38.43,-5.868 -6.927,-0.517 -13.926,-0.771 -20.96,-0.772 -5.359,0 -10.736,0.151 -16.124,0.437 -34.284,1.846 -66.469,9.312 -95.544,21.523 -11.707,-3.533 -23.71,-6.396 -35.96,-8.545 35.729,-21.186 79.22,-34.152 129.193,-36.466 6.116,-0.282 12.156,-0.436 18.112,-0.436 16.945,0 28.257,1.027 48.668,4.131 37.897,5.761 56.727,19.435 56.687,17.145 -0.068,-3.994 -24.392,-18.556 -60.732,-24.678 -16.063,-2.706 -29.263,-3.323 -44.623,-3.323 -6.069,0.003 -12.209,0.157 -18.422,0.447 -54.119,2.5 -101.087,17.289 -139.079,41.562 -8.444,-1.194 -16.998,-2.052 -25.652,-2.557 2.578,-3.651 4.099,-8.105 4.112,-12.916 47.623,-28.824 104.129,-46.165 165.821,-48.471 138.777,-5.184 150.442,60.071 141.476,76.209 0,0 34.518,10.31 34.518,44.828 0,23.158 -9.284,34.01 -15.393,38.644 6.428,9.192 10.196,20.384 10.196,32.452 0,31.32 -27.278,56.709 -56.71,56.709 -3.542,27.862 -36.828,53.414 -74.147,36.603 0,0 -15.129,23.872 -36.982,23.872 -11.664,0 -20.999,-3.711 -28.147,-8.436 1.448,-9.549 2.173,-19.173 2.173,-28.812 0.002,-4.489 -0.156,-8.981 -0.47,-13.463 3.07,4.283 14.046,13.79 14.568,12.244 0.442,-1.318 -8.522,-9.946 -16.198,-27.109 -3.528,-23.644 -11.504,-46.762 -23.92,-67.993 -1.102,-6.289 -1.933,-12.553 -2.486,-18.703 -1.378,-15.17 -2.302,-28.764 -2.299,-41.746 0,-5.518 0.167,-10.924 0.533,-16.303 10.3,5.08 20.274,10.716 29.891,16.872 -1.169,8.452 -1.776,17.133 -1.771,26.004 0,0.084 -0.005,0.2 -0.005,0.348 0.019,8.423 0.468,16.812 1.393,25.063 1.584,14.117 4.86,28.72 9.144,40.598 11.767,32.623 42.921,57.056 42.389,53.168 -0.462,-3.397 -20.986,-19.873 -33.127,-47.973 -4.668,-10.804 -8.671,-25.308 -10.755,-39.137 -1.553,-10.315 -2.304,-20.963 -2.32,-31.724 0,-0.09 0.003,-0.206 0.003,-0.343 0,-7.452 0.441,-14.761 1.3,-21.897 8.76,5.909 17.205,12.252 25.306,19.001 -0.672,4.979 -1.004,9.933 -1.004,14.837 0.003,7.194 0.711,14.268 2.067,21.143 2.144,10.881 4.267,19.261 11.086,30.852 16.718,28.42 48.995,46.128 47.87,42.65 -0.724,-2.236 -25.1,-19.16 -38.287,-39.581 -5.131,-7.941 -8.427,-15.369 -11.12,-23.772 -3.185,-9.944 -4.888,-20.476 -4.885,-31.292 0,-3.165 0.144,-6.357 0.44,-9.568"
     style="fill:#000000;fill-opacity:1;fill-rule:nonzero;stroke:none"
     id="path39676" />
  <path
     d="m 400.215,279.958 c 0,-19.948 -0.003,-51.084 -0.003,-79.594 0,-41.017 54.13,-60.855 93.152,-42.733 15.749,-12.842 35.856,-20.544 57.761,-20.544 33.208,0 62.284,17.697 78.303,44.178 1.03,-0.041 2.068,-0.066 3.108,-0.066 40.602,0 73.52,32.915 73.52,73.518 0,5.285 -0.56,10.441 -1.622,15.409 -20.881,-13.546 -53.646,-23.312 -103.944,-23.322 -5.005,0 -10.185,0.097 -15.543,0.301 -10.56,0.395 -20.975,1.22 -31.222,2.464 8.608,-5.341 16.704,-9.744 26.586,-12.781 8.906,-2.74 19.226,-5.131 29.362,-6.052 19.724,-1.794 39.225,2.69 40.623,1.874 2.342,-1.37 -21.123,-8.598 -44.346,-7.244 -8.393,0.491 -18.997,2.203 -27.657,4.922 -14.616,4.586 -27.504,12.162 -39.308,21.373 -11.178,1.82 -22.15,4.144 -32.88,6.943 11.107,-14.423 25.48,-26.294 42.099,-34.699 10.579,-5.349 24.791,-10.671 35.019,-12.669 16.958,-3.318 43.933,-2.69 45.593,-3.714 2.585,-1.592 -27.212,-6.373 -55.075,-0.214 -8.157,1.802 -24.36,7.906 -35.161,14.164 -17.236,9.981 -31.889,23.656 -42.792,39.99 -9.984,2.934 -19.74,6.284 -29.265,10.036 9.662,-25.553 27.6,-47.018 50.726,-61.552 7.711,-4.846 17.798,-10.105 27.87,-13.953 19.949,-7.62 46.398,-9.189 47.076,-9.829 1.921,-1.813 -30.04,-4.741 -59.123,7.949 -8.631,3.765 -20.108,10.051 -28.94,16.717 -21.349,16.122 -37.564,38.298 -45.932,64.076 -7.365,3.13 -14.93,6.683 -21.984,10.291 4.879,-37.207 24.958,-68.496 54.241,-88.585 6.303,-4.325 7.447,-5.355 21.042,-12.049 15.017,-7.398 41.914,-13.45 42.642,-14.555 1.538,-2.336 -30.986,0.433 -54.273,13.031 -8.828,4.774 -14.176,8.401 -20.569,13.45 -27.948,22.079 -46.62,54.593 -50.292,92.519 -3.64,1.981 -7.229,4.025 -10.775,6.13 -1.536,-4.625 -4.528,-8.586 -8.436,-11.337 1.86,-27.072 12.79,-51.967 29.352,-72.036 7.658,-9.277 15.546,-16.56 25.278,-24.29 15.243,-12.103 44.934,-24.318 44.934,-24.318 1.912,-2.802 -33.055,5.044 -55.845,24.804 -10.936,9.479 -18.655,17.575 -26.057,28.071 -13.2,18.71 -21.939,40.748 -24.134,64.529 -1.006,-0.3 -2.052,-0.443 -3.109,-0.603"
     style="fill:#000000;fill-opacity:1;fill-rule:nonzero;stroke:none"
     id="path39680" />
  <path
     d="m 396.85,286.436 c 8.726,0 15.804,7.074 15.804,15.802 0,8.727 -7.078,15.802 -15.804,15.802 -8.728,0 -15.802,-7.075 -15.802,-15.802 0,-8.728 7.074,-15.802 15.802,-15.802"
     style="fill:#000000;fill-opacity:1;fill-rule:nonzero;stroke:none"
     id="path39684" />
  <path
     d="m 396.85,646.856 c 3.362,0 3.362,-45.837 3.362,-68.25 v -34.295 c 7.956,8.629 13.559,18.94 14.792,37.88 0.535,8.192 0.135,16.906 -1.07,31.134 -1.28,15.152 -4.371,25.547 -3.299,25.124 1.397,-0.546 6.465,-12.733 9.257,-30.281 0.978,-6.136 2.371,-16.08 2.375,-20.9 0.024,-19.086 -7.373,-44.19 -22.055,-53.512 v -38.758 c 13.12,10.881 23.095,19.889 29.592,35.95 5.148,12.727 7.728,20.76 9.24,39.42 0.462,5.696 0.835,11.62 0.728,21.798 -0.194,18.885 -1.568,27.346 -0.81,27.457 1.532,0.222 6.454,-18.147 6.501,-42.588 0.005,-2.913 0.105,-5.435 0.049,-6.629 -0.785,-41.562 -19.636,-70.811 -45.3,-84.519 V 455.55 c 6.712,3.211 17.535,9.681 24.23,16.216 12.62,12.184 21.82,25.486 28.338,39.721 8.122,17.728 12.674,38.759 14.505,57.608 2.355,24.205 -0.336,38.328 1.576,39.438 1.256,0.732 6.147,-20.029 3.627,-48.517 -1.427,-16.105 -5.46,-34.974 -12.702,-51.069 -6.863,-15.257 -16.636,-29.828 -30.138,-42.831 -8.764,-8.365 -22.16,-15.442 -29.436,-18.453 v -29.097 c 10.192,3.521 27.464,12.263 40.888,23.319 14.544,11.902 26.251,27.255 34.959,44.697 7.898,15.817 13.452,33.938 16.778,51.65 5.212,27.738 3.042,45.364 4.576,45.32 1.532,-0.042 6.552,-19.857 0.503,-54.936 -3.571,-20.698 -9.943,-38.105 -19.372,-54.421 -8.485,-14.678 -19.469,-27.994 -32.373,-38.588 -15.279,-12.47 -34.872,-21.233 -45.959,-24.636 v -31.032 c 19.139,4.24 46.682,14.756 64.998,33.139 12.59,12.612 23.303,25.931 31.93,40.349 9.779,16.345 16.993,30.401 21.979,53.7 7.005,32.725 4.598,53.748 6.306,53.995 1.707,0.248 6.383,-35.302 -3.402,-70.018 -4.86,-17.238 -12.25,-33.543 -21.828,-48.285 -8.211,-12.641 -18.258,-24.432 -29.423,-35.573 -20.313,-20.245 -50.449,-30.449 -70.56,-34.716 v -28.58 c 37.079,5.873 72.709,23.099 101.285,51.676 44.082,44.081 61.154,104.945 51.216,162.024 -3.277,16.297 -17.674,28.576 -34.938,28.576 -0.263,0 -0.531,-0.004 -0.792,-0.008 1.576,23.486 -18.092,39.793 -36.642,39.227 -1.12,25.782 -29.305,37.268 -47.069,34.972 -4.202,14.288 -24.486,25.215 -36.422,25.215 -11.936,0 -32.22,-10.927 -36.423,-25.215 -17.764,2.296 -45.95,-9.19 -47.068,-34.972 -18.55,0.566 -38.218,-15.741 -36.641,-39.227 -0.263,0.004 -0.531,0.008 -0.793,0.008 -17.264,0 -31.66,-12.279 -34.938,-28.576 -9.938,-57.079 7.134,-117.943 51.215,-162.024 28.576,-28.577 64.206,-45.803 101.286,-51.676 v 28.58 c -20.112,4.267 -50.248,14.471 -70.559,34.716 -11.166,11.141 -21.212,22.932 -29.424,35.573 -9.579,14.742 -16.968,31.047 -21.828,48.285 -9.784,34.716 -5.11,70.266 -3.403,70.018 1.708,-0.247 -0.699,-21.27 6.305,-53.995 4.987,-23.299 12.202,-37.355 21.98,-53.7 8.627,-14.418 19.34,-27.737 31.931,-40.349 18.316,-18.383 45.861,-28.899 64.998,-33.139 v 31.032 c -11.089,3.403 -30.681,12.166 -45.96,24.636 -12.904,10.594 -23.889,23.91 -32.373,38.588 -9.429,16.316 -15.801,33.723 -19.372,54.421 -6.049,35.079 -1.029,54.894 0.503,54.936 1.535,0.044 -0.636,-17.582 4.576,-45.32 3.327,-17.712 8.88,-35.833 16.78,-51.65 8.708,-17.442 20.413,-32.795 34.957,-44.697 13.424,-11.056 30.696,-19.798 40.889,-23.319 v 29.097 c -7.277,3.011 -20.673,10.088 -29.437,18.453 -13.501,13.003 -23.275,27.574 -30.137,42.831 -7.24,16.095 -11.276,34.964 -12.701,51.069 -2.522,28.488 2.37,49.249 3.625,48.517 1.912,-1.11 -0.779,-15.233 1.575,-39.438 1.833,-18.849 6.385,-39.88 14.506,-57.608 6.519,-14.235 15.719,-27.537 28.339,-39.721 6.694,-6.535 17.517,-13.005 24.23,-16.216 v 30.337 c -25.665,13.708 -44.516,42.957 -45.301,84.519 -0.056,1.194 0.045,3.716 0.051,6.629 0.044,24.441 4.968,42.81 6.501,42.588 0.756,-0.111 -0.617,-8.572 -0.812,-27.457 -0.107,-10.178 0.267,-16.102 0.728,-21.798 1.512,-18.66 4.092,-26.693 9.24,-39.42 6.497,-16.061 16.473,-25.069 29.593,-35.95 v 38.758 c -14.682,9.322 -22.08,34.426 -22.057,53.512 0.004,4.82 1.399,14.764 2.376,20.9 2.793,17.548 7.86,29.735 9.257,30.281 1.072,0.423 -2.016,-9.972 -3.298,-25.124 -1.207,-14.228 -1.606,-22.942 -1.071,-31.134 1.232,-18.94 6.836,-29.251 14.793,-37.88 v 34.295 c 0,22.413 0,68.25 3.362,68.25"
     style="fill:#000000;fill-opacity:1;fill-rule:nonzero;stroke:none"
     id="path39688" />
</svg>
