<?xml version="1.0" encoding="UTF-8" standalone="no"?>
<!-- Created with Inkscape (http://www.inkscape.org/) -->

<svg
   inkscape:version="1.2 (dc2aeda, 2022-05-15)"
   sodipodi:docname="uesugi-kenshin.svg"
   viewBox="0 0 793.70135 793.70135"
   height="793.70135"
   width="793.70135"
   id="svg12504"
   version="1.1"
   xmlns:inkscape="http://www.inkscape.org/namespaces/inkscape"
   xmlns:sodipodi="http://sodipodi.sourceforge.net/DTD/sodipodi-0.dtd"
   xmlns="http://www.w3.org/2000/svg"
   xmlns:svg="http://www.w3.org/2000/svg">
  <defs
     id="defs12508">
    <clipPath
       clipPathUnits="userSpaceOnUse"
       id="clipPath14284">
      <path
         d="M -538.2217,577.9479 H 57.054297 V -17.3281 H -538.2217 Z"
         id="path14286"
         style="stroke-width:0.999998" />
    </clipPath>
    <clipPath
       clipPathUnits="userSpaceOnUse"
       id="clipPath14288">
      <path
         d="M -584.1943,578.9381 H 11.081697 V -16.3379 H -584.1943 Z"
         id="path14290"
         style="stroke-width:0.999998" />
    </clipPath>
    <clipPath
       clipPathUnits="userSpaceOnUse"
       id="clipPath14292">
      <path
         d="M -586.5449,579.5026 H 8.7310974 V -15.7734 H -586.5449 Z"
         id="path14294"
         style="stroke-width:0.999998" />
    </clipPath>
    <clipPath
       clipPathUnits="userSpaceOnUse"
       id="clipPath14296">
      <path
         d="M -556.4014,578.0143 H 38.874597 V -17.2617 H -556.4014 Z"
         id="path14298"
         style="stroke-width:0.999998" />
    </clipPath>
    <clipPath
       clipPathUnits="userSpaceOnUse"
       id="clipPath14300">
      <path
         d="M -550.2637,577.3248 H 45.012297 V -17.9512 H -550.2637 Z"
         id="path14302"
         style="stroke-width:0.999998" />
    </clipPath>
    <clipPath
       clipPathUnits="userSpaceOnUse"
       id="clipPath14304">
      <path
         d="M -568.2266,575.819 H 27.049397 V -19.457 H -568.2266 Z"
         id="path14306"
         style="stroke-width:0.999998" />
    </clipPath>
    <clipPath
       clipPathUnits="userSpaceOnUse"
       id="clipPath14308">
      <path
         d="M -557.4951,577.8502 H 37.780897 V -17.4258 H -557.4951 Z"
         id="path14310"
         style="stroke-width:0.999998" />
    </clipPath>
    <clipPath
       clipPathUnits="userSpaceOnUse"
       id="clipPath14312">
      <path
         d="M -576.3691,585.5885 H 18.906897 V -9.6875 H -576.3691 Z"
         id="path14314"
         style="stroke-width:0.999998" />
    </clipPath>
    <clipPath
       clipPathUnits="userSpaceOnUse"
       id="clipPath14316">
      <path
         d="M -574.5459,585.8522 H 20.730097 V -9.4238 H -574.5459 Z"
         id="path14318"
         style="stroke-width:0.999998" />
    </clipPath>
    <clipPath
       clipPathUnits="userSpaceOnUse"
       id="clipPath14320">
      <path
         d="M -572.8174,586.1354 H 22.458597 V -9.1406 H -572.8174 Z"
         id="path14322"
         style="stroke-width:0.999998" />
    </clipPath>
    <clipPath
       clipPathUnits="userSpaceOnUse"
       id="clipPath14324">
      <path
         d="M -567.7754,585.8522 H 27.500597 V -9.4238 H -567.7754 Z"
         id="path14326"
         style="stroke-width:0.999998" />
    </clipPath>
    <clipPath
       clipPathUnits="userSpaceOnUse"
       id="clipPath14328">
      <path
         d="M -564.5732,585.8483 H 30.702797 V -9.4277 H -564.5732 Z"
         id="path14330"
         style="stroke-width:0.999998" />
    </clipPath>
    <clipPath
       clipPathUnits="userSpaceOnUse"
       id="clipPath14332">
      <path
         d="M -561.4131,585.8522 H 33.862897 V -9.4238 H -561.4131 Z"
         id="path14334"
         style="stroke-width:0.999998" />
    </clipPath>
    <clipPath
       clipPathUnits="userSpaceOnUse"
       id="clipPath14336">
      <path
         d="M -557.0645,585.8483 H 38.211497 V -9.4277 H -557.0645 Z"
         id="path14338"
         style="stroke-width:0.999998" />
    </clipPath>
    <clipPath
       clipPathUnits="userSpaceOnUse"
       id="clipPath14340">
      <path
         d="M -553.8975,585.8483 H 41.378497 V -9.4277 H -553.8975 Z"
         id="path14342"
         style="stroke-width:0.999998" />
    </clipPath>
    <clipPath
       clipPathUnits="userSpaceOnUse"
       id="clipPath14344">
      <path
         d="M -548.9834,585.8522 H 46.292597 V -9.4238 H -548.9834 Z"
         id="path14346"
         style="stroke-width:0.999998" />
    </clipPath>
    <clipPath
       clipPathUnits="userSpaceOnUse"
       id="clipPath14348">
      <path
         d="M -545.417,584.5729 H 49.858997 V -10.7031 H -545.417 Z"
         id="path14350"
         style="stroke-width:0.999998" />
    </clipPath>
    <clipPath
       clipPathUnits="userSpaceOnUse"
       id="clipPath14352">
      <path
         d="M -542.9326,584.5729 H 52.343397 V -10.7031 H -542.9326 Z"
         id="path14354"
         style="stroke-width:0.999998" />
    </clipPath>
    <clipPath
       clipPathUnits="userSpaceOnUse"
       id="clipPath14356">
      <path
         d="M -540.8213,585.8483 H 54.454697 V -9.4277 H -540.8213 Z"
         id="path14358"
         style="stroke-width:0.999998" />
    </clipPath>
    <clipPath
       clipPathUnits="userSpaceOnUse"
       id="clipPath14360">
      <path
         d="M -536.6982,584.5729 H 58.577797 V -10.7031 H -536.6982 Z"
         id="path14362"
         style="stroke-width:0.999998" />
    </clipPath>
    <clipPath
       clipPathUnits="userSpaceOnUse"
       id="clipPath14364">
      <path
         d="M -528.0898,575.3815 H 67.186197 V -19.8945 H -528.0898 Z"
         id="path14366"
         style="stroke-width:0.999998" />
    </clipPath>
    <clipPath
       clipPathUnits="userSpaceOnUse"
       id="clipPath14368">
      <path
         d="M -531.1924,581.5885 H 64.083597 V -13.6875 H -531.1924 Z"
         id="path14370"
         style="stroke-width:0.999998" />
    </clipPath>
    <clipPath
       clipPathUnits="userSpaceOnUse"
       id="clipPath15642">
      <path
         d="m -224.5635,161.0529 h 595.276 v -595.276 h -595.276 z"
         id="path15644"
         style="stroke-width:0.999998" />
    </clipPath>
    <clipPath
       clipPathUnits="userSpaceOnUse"
       id="clipPath15648">
      <path
         d="m -364.7354,157.1613 h 595.276 v -595.276 h -595.276 z"
         id="path15650"
         style="stroke-width:0.999998" />
    </clipPath>
    <clipPath
       clipPathUnits="userSpaceOnUse"
       id="clipPath15654">
      <path
         d="m -362.9531,353.5865 h 595.276 v -595.276 h -595.276 z"
         id="path15656"
         style="stroke-width:0.999998" />
    </clipPath>
    <clipPath
       clipPathUnits="userSpaceOnUse"
       id="clipPath15660">
      <path
         d="m -371.8994,340.4596 h 595.276 v -595.276 h -595.276 z"
         id="path15662"
         style="stroke-width:0.999998" />
    </clipPath>
    <clipPath
       clipPathUnits="userSpaceOnUse"
       id="clipPath15666">
      <path
         d="m -380.0313,330.1217 h 595.276 v -595.276 h -595.276 z"
         id="path15668"
         style="stroke-width:0.999998" />
    </clipPath>
    <clipPath
       clipPathUnits="userSpaceOnUse"
       id="clipPath15672">
      <path
         d="m -349.71,326.8522 h 595.276 v -595.276 H -349.71 Z"
         id="path15674"
         style="stroke-width:0.999998" />
    </clipPath>
    <clipPath
       clipPathUnits="userSpaceOnUse"
       id="clipPath15678">
      <path
         d="m -103.8838,258.2853 h 595.276 v -595.276 h -595.276 z"
         id="path15680"
         style="stroke-width:0.999998" />
    </clipPath>
    <clipPath
       clipPathUnits="userSpaceOnUse"
       id="clipPath15684">
      <path
         d="m -96.3779,253.5402 h 595.276 v -595.276 h -595.276 z"
         id="path15686"
         style="stroke-width:0.999998" />
    </clipPath>
    <clipPath
       clipPathUnits="userSpaceOnUse"
       id="clipPath15690">
      <path
         d="m -294.001,120.6114 h 595.276 v -595.276 h -595.276 z"
         id="path15692"
         style="stroke-width:0.999998" />
    </clipPath>
    <clipPath
       clipPathUnits="userSpaceOnUse"
       id="clipPath15696">
      <path
         d="m -337.9395,380.6627 h 595.276 v -595.276 h -595.276 z"
         id="path15698"
         style="stroke-width:0.999998" />
    </clipPath>
    <clipPath
       clipPathUnits="userSpaceOnUse"
       id="clipPath15702">
      <path
         d="m -98.6309,208.2003 h 595.276 v -595.276 h -595.276 z"
         id="path15704"
         style="stroke-width:0.999998" />
    </clipPath>
    <clipPath
       clipPathUnits="userSpaceOnUse"
       id="clipPath15708">
      <path
         d="m -294.0049,135.8566 h 595.276 v -595.276 h -595.276 z"
         id="path15710"
         style="stroke-width:0.999998" />
    </clipPath>
    <clipPath
       clipPathUnits="userSpaceOnUse"
       id="clipPath15714">
      <path
         d="m -301.6494,132.4767 h 595.276 v -595.276 h -595.276 z"
         id="path15716"
         style="stroke-width:0.999998" />
    </clipPath>
    <clipPath
       clipPathUnits="userSpaceOnUse"
       id="clipPath15720">
      <path
         d="m -301.2471,242.6261 h 595.276 v -595.276 h -595.276 z"
         id="path15722"
         style="stroke-width:0.999998" />
    </clipPath>
    <clipPath
       clipPathUnits="userSpaceOnUse"
       id="clipPath15726">
      <path
         d="m -288.5459,308.0787 h 595.276 v -595.276 h -595.276 z"
         id="path15728"
         style="stroke-width:0.999998" />
    </clipPath>
    <clipPath
       clipPathUnits="userSpaceOnUse"
       id="clipPath15732">
      <path
         d="m -351.9756,367.8737 h 595.276 v -595.276 h -595.276 z"
         id="path15734"
         style="stroke-width:0.999998" />
    </clipPath>
    <clipPath
       clipPathUnits="userSpaceOnUse"
       id="clipPath15738">
      <path
         d="m -312.54,377.9869 h 595.276 v -595.276 H -312.54 Z"
         id="path15740"
         style="stroke-width:0.999998" />
    </clipPath>
    <clipPath
       clipPathUnits="userSpaceOnUse"
       id="clipPath15746">
      <path
         d="m -387.8125,321.776 h 595.276 V -273.5 h -595.276 z"
         id="path15748"
         style="stroke-width:0.999998" />
    </clipPath>
    <clipPath
       clipPathUnits="userSpaceOnUse"
       id="clipPath15752">
      <path
         d="m -395.5313,313.6354 h 595.276 v -595.276 h -595.276 z"
         id="path15754"
         style="stroke-width:0.999998" />
    </clipPath>
    <clipPath
       clipPathUnits="userSpaceOnUse"
       id="clipPath15758">
      <path
         d="m -401.8633,306.2936 h 595.276 v -595.276 h -595.276 z"
         id="path15760"
         style="stroke-width:0.999998" />
    </clipPath>
    <clipPath
       clipPathUnits="userSpaceOnUse"
       id="clipPath15764">
      <path
         d="m -338.1396,392.8697 h 595.276 v -595.276 h -595.276 z"
         id="path15766"
         style="stroke-width:0.999998" />
    </clipPath>
    <clipPath
       clipPathUnits="userSpaceOnUse"
       id="clipPath15770">
      <path
         d="m -353.2188,381.1998 h 595.276 v -595.276 h -595.276 z"
         id="path15772"
         style="stroke-width:0.999998" />
    </clipPath>
    <clipPath
       clipPathUnits="userSpaceOnUse"
       id="clipPath15776">
      <path
         d="m -365.7568,366.9713 h 595.276 v -595.276 h -595.276 z"
         id="path15778"
         style="stroke-width:0.999998" />
    </clipPath>
    <clipPath
       clipPathUnits="userSpaceOnUse"
       id="clipPath15782">
      <path
         d="m -376.4248,351.4889 h 595.276 v -595.276 h -595.276 z"
         id="path15784"
         style="stroke-width:0.999998" />
    </clipPath>
    <clipPath
       clipPathUnits="userSpaceOnUse"
       id="clipPath15788">
      <path
         d="m -385.7568,338.3678 h 595.276 v -595.276 h -595.276 z"
         id="path15790"
         style="stroke-width:0.999998" />
    </clipPath>
    <clipPath
       clipPathUnits="userSpaceOnUse"
       id="clipPath15794">
      <path
         d="m -394.5518,328.192 h 595.276 v -595.276 h -595.276 z"
         id="path15796"
         style="stroke-width:0.999998" />
    </clipPath>
    <clipPath
       clipPathUnits="userSpaceOnUse"
       id="clipPath15800">
      <path
         d="m -403.3604,318.1412 h 595.276 v -595.276 h -595.276 z"
         id="path15802"
         style="stroke-width:0.999998" />
    </clipPath>
    <clipPath
       clipPathUnits="userSpaceOnUse"
       id="clipPath15806">
      <path
         d="m -411.1182,308.61 h 595.276 v -595.276 h -595.276 z"
         id="path15808"
         style="stroke-width:0.999998" />
    </clipPath>
    <clipPath
       clipPathUnits="userSpaceOnUse"
       id="clipPath15812">
      <path
         d="m -268.3721,250.9884 h 595.276 v -595.276 h -595.276 z"
         id="path15814"
         style="stroke-width:0.999998" />
    </clipPath>
    <clipPath
       clipPathUnits="userSpaceOnUse"
       id="clipPath15818">
      <path
         d="m -237.459,251.1251 h 595.276 v -595.276 h -595.276 z"
         id="path15820"
         style="stroke-width:0.999998" />
    </clipPath>
    <clipPath
       clipPathUnits="userSpaceOnUse"
       id="clipPath15824">
      <path
         d="m -260.1768,183.5841 h 595.276 v -595.276 h -595.276 z"
         id="path15826"
         style="stroke-width:0.999998" />
    </clipPath>
    <clipPath
       clipPathUnits="userSpaceOnUse"
       id="clipPath15830">
      <path
         d="m -255.1846,184.6163 h 595.276 v -595.276 h -595.276 z"
         id="path15832"
         style="stroke-width:0.999998" />
    </clipPath>
    <clipPath
       clipPathUnits="userSpaceOnUse"
       id="clipPath15836">
      <path
         d="m -242.4463,190.8468 h 595.276 v -595.276 h -595.276 z"
         id="path15838"
         style="stroke-width:0.999998" />
    </clipPath>
    <clipPath
       clipPathUnits="userSpaceOnUse"
       id="clipPath15842">
      <path
         d="m -229.8799,197.7228 h 595.276 v -595.276 h -595.276 z"
         id="path15844"
         style="stroke-width:0.999998" />
    </clipPath>
    <clipPath
       clipPathUnits="userSpaceOnUse"
       id="clipPath15848">
      <path
         d="M -217.126,205.5079 H 378.15 v -595.276 h -595.276 z"
         id="path15850"
         style="stroke-width:0.999998" />
    </clipPath>
    <clipPath
       clipPathUnits="userSpaceOnUse"
       id="clipPath15854">
      <path
         d="m -204.0205,214.3185 h 595.276 v -595.276 h -595.276 z"
         id="path15856"
         style="stroke-width:0.999998" />
    </clipPath>
    <clipPath
       clipPathUnits="userSpaceOnUse"
       id="clipPath15860">
      <path
         d="m -192.4111,224.7911 h 595.276 v -595.276 h -595.276 z"
         id="path15862"
         style="stroke-width:0.999998" />
    </clipPath>
    <clipPath
       clipPathUnits="userSpaceOnUse"
       id="clipPath15866">
      <path
         d="m -278.0156,157.4972 h 595.276 v -595.276 h -595.276 z"
         id="path15868"
         style="stroke-width:0.999998" />
    </clipPath>
    <clipPath
       clipPathUnits="userSpaceOnUse"
       id="clipPath15872">
      <path
         d="m -172.0195,242.9933 h 595.276 v -595.276 h -595.276 z"
         id="path15874"
         style="stroke-width:0.999998" />
    </clipPath>
    <clipPath
       clipPathUnits="userSpaceOnUse"
       id="clipPath15878">
      <path
         d="m -254.3467,340.2174 h 595.276 v -595.276 h -595.276 z"
         id="path15880"
         style="stroke-width:0.999998" />
    </clipPath>
    <clipPath
       clipPathUnits="userSpaceOnUse"
       id="clipPath15884">
      <path
         d="m -242.8564,346.067 h 595.276 v -595.276 h -595.276 z"
         id="path15886"
         style="stroke-width:0.999998" />
    </clipPath>
    <clipPath
       clipPathUnits="userSpaceOnUse"
       id="clipPath15890">
      <path
         d="m -231.8916,349.1412 h 595.276 v -595.276 h -595.276 z"
         id="path15892"
         style="stroke-width:0.999998" />
    </clipPath>
    <clipPath
       clipPathUnits="userSpaceOnUse"
       id="clipPath15896">
      <path
         d="m -220.6465,349.9244 h 595.276 v -595.276 h -595.276 z"
         id="path15898"
         style="stroke-width:0.999998" />
    </clipPath>
    <clipPath
       clipPathUnits="userSpaceOnUse"
       id="clipPath15902">
      <path
         d="m -203.7998,384.9987 h 595.276 v -595.276 h -595.276 z"
         id="path15904"
         style="stroke-width:0.999998" />
    </clipPath>
    <clipPath
       clipPathUnits="userSpaceOnUse"
       id="clipPath15908">
      <path
         d="m -215.4531,395.6256 h 595.276 v -595.276 h -595.276 z"
         id="path15910"
         style="stroke-width:0.999998" />
    </clipPath>
    <clipPath
       clipPathUnits="userSpaceOnUse"
       id="clipPath15914">
      <path
         d="M -227.377,411.317 H 367.899 V -183.959 H -227.377 Z"
         id="path15916"
         style="stroke-width:0.999998" />
    </clipPath>
    <clipPath
       clipPathUnits="userSpaceOnUse"
       id="clipPath15920">
      <path
         d="m -239.9316,433.067 h 595.276 v -595.276 h -595.276 z"
         id="path15922"
         style="stroke-width:0.999998" />
    </clipPath>
    <clipPath
       clipPathUnits="userSpaceOnUse"
       id="clipPath15926">
      <path
         d="m -254.0547,446.8776 h 595.276 v -595.276 h -595.276 z"
         id="path15928"
         style="stroke-width:0.999998" />
    </clipPath>
    <clipPath
       clipPathUnits="userSpaceOnUse"
       id="clipPath15932">
      <path
         d="m -350.7627,298.5197 h 595.276 v -595.276 h -595.276 z"
         id="path15934"
         style="stroke-width:0.999998" />
    </clipPath>
    <clipPath
       clipPathUnits="userSpaceOnUse"
       id="clipPath15938">
      <path
         d="m -269.2051,457.6901 h 595.276 v -595.276 h -595.276 z"
         id="path15940"
         style="stroke-width:0.999998" />
    </clipPath>
    <clipPath
       clipPathUnits="userSpaceOnUse"
       id="clipPath15946">
      <path
         d="m -209.2295,349.444 h 595.276 v -595.276 h -595.276 z"
         id="path15948"
         style="stroke-width:0.999998" />
    </clipPath>
    <clipPath
       clipPathUnits="userSpaceOnUse"
       id="clipPath15952">
      <path
         d="m -198.0947,348.0494 h 595.276 v -595.276 h -595.276 z"
         id="path15954"
         style="stroke-width:0.999998" />
    </clipPath>
    <clipPath
       clipPathUnits="userSpaceOnUse"
       id="clipPath15958">
      <path
         d="m -187.0654,345.3287 h 595.276 v -595.276 h -595.276 z"
         id="path15960"
         style="stroke-width:0.999998" />
    </clipPath>
    <clipPath
       clipPathUnits="userSpaceOnUse"
       id="clipPath15964">
      <path
         d="m -335.0928,183.5841 h 595.276 v -595.276 h -595.276 z"
         id="path15966"
         style="stroke-width:0.999998" />
    </clipPath>
    <clipPath
       clipPathUnits="userSpaceOnUse"
       id="clipPath15970">
      <path
         d="m -340.085,184.6163 h 595.276 v -595.276 h -595.276 z"
         id="path15972"
         style="stroke-width:0.999998" />
    </clipPath>
    <clipPath
       clipPathUnits="userSpaceOnUse"
       id="clipPath15976">
      <path
         d="m -352.8232,190.8468 h 595.276 v -595.276 h -595.276 z"
         id="path15978"
         style="stroke-width:0.999998" />
    </clipPath>
    <clipPath
       clipPathUnits="userSpaceOnUse"
       id="clipPath15982">
      <path
         d="m -365.3896,197.7228 h 595.276 v -595.276 h -595.276 z"
         id="path15984"
         style="stroke-width:0.999998" />
    </clipPath>
    <clipPath
       clipPathUnits="userSpaceOnUse"
       id="clipPath15988">
      <path
         d="m -378.1436,205.5079 h 595.276 v -595.276 h -595.276 z"
         id="path15990"
         style="stroke-width:0.999998" />
    </clipPath>
    <clipPath
       clipPathUnits="userSpaceOnUse"
       id="clipPath15994">
      <path
         d="m -391.249,214.3185 h 595.276 v -595.276 h -595.276 z"
         id="path15996"
         style="stroke-width:0.999998" />
    </clipPath>
    <clipPath
       clipPathUnits="userSpaceOnUse"
       id="clipPath16000">
      <path
         d="m -402.8584,224.7911 h 595.276 v -595.276 h -595.276 z"
         id="path16002"
         style="stroke-width:0.999998" />
    </clipPath>
    <clipPath
       clipPathUnits="userSpaceOnUse"
       id="clipPath16006">
      <path
         d="m -317.2539,157.4972 h 595.276 v -595.276 h -595.276 z"
         id="path16008"
         style="stroke-width:0.999998" />
    </clipPath>
    <clipPath
       clipPathUnits="userSpaceOnUse"
       id="clipPath16012">
      <path
         d="m -266.3262,348.2799 h 595.276 v -595.276 h -595.276 z"
         id="path16014"
         style="stroke-width:0.999998" />
    </clipPath>
    <clipPath
       clipPathUnits="userSpaceOnUse"
       id="clipPath16018">
      <path
         d="m -258.5947,337.2623 h 595.276 v -595.276 h -595.276 z"
         id="path16020"
         style="stroke-width:0.999998" />
    </clipPath>
    <clipPath
       clipPathUnits="userSpaceOnUse"
       id="clipPath16024">
      <path
         d="m -322.79,260.9318 h 595.276 v -595.276 H -322.79 Z"
         id="path16026"
         style="stroke-width:0.999998" />
    </clipPath>
    <clipPath
       clipPathUnits="userSpaceOnUse"
       id="clipPath16031">
      <path
         d="m -341.1455,259.6739 h 595.276 v -595.276 h -595.276 z"
         id="path16033"
         style="stroke-width:0.999998" />
    </clipPath>
    <clipPath
       clipPathUnits="userSpaceOnUse"
       id="clipPath16038">
      <path
         d="m -425.8838,235.4347 h 595.276 v -595.276 h -595.276 z"
         id="path16040"
         style="stroke-width:0.999998" />
    </clipPath>
    <clipPath
       clipPathUnits="userSpaceOnUse"
       id="clipPath16044">
      <path
         d="m -321.6396,352.4459 h 595.276 v -595.276 h -595.276 z"
         id="path16046"
         style="stroke-width:0.999998" />
    </clipPath>
    <clipPath
       clipPathUnits="userSpaceOnUse"
       id="clipPath16050">
      <path
         d="m -410.9717,303.3873 h 595.276 v -595.276 h -595.276 z"
         id="path16052"
         style="stroke-width:0.999998" />
    </clipPath>
    <clipPath
       clipPathUnits="userSpaceOnUse"
       id="clipPath16057">
      <path
         d="m -421.1006,191.6183 h 595.276 v -595.276 h -595.276 z"
         id="path16059"
         style="stroke-width:0.999998" />
    </clipPath>
    <clipPath
       clipPathUnits="userSpaceOnUse"
       id="clipPath16063">
      <path
         d="m -475.1904,210.671 h 595.276 v -595.276 h -595.276 z"
         id="path16065"
         style="stroke-width:0.999998" />
    </clipPath>
    <clipPath
       clipPathUnits="userSpaceOnUse"
       id="clipPath16069">
      <path
         d="m -406.3486,356.2194 h 595.276 v -595.276 h -595.276 z"
         id="path16071"
         style="stroke-width:0.999998" />
    </clipPath>
    <clipPath
       clipPathUnits="userSpaceOnUse"
       id="clipPath16075">
      <path
         d="m -368.5117,412.8385 h 595.276 v -595.276 h -595.276 z"
         id="path16077"
         style="stroke-width:0.999998" />
    </clipPath>
    <clipPath
       clipPathUnits="userSpaceOnUse"
       id="clipPath16081">
      <path
         d="m -364.7998,417.8971 h 595.276 v -595.276 h -595.276 z"
         id="path16083"
         style="stroke-width:0.999998" />
    </clipPath>
    <clipPath
       clipPathUnits="userSpaceOnUse"
       id="clipPath16087">
      <path
         d="m -227.5547,420.3619 h 595.276 v -595.276 h -595.276 z"
         id="path16089"
         style="stroke-width:0.999998" />
    </clipPath>
    <clipPath
       clipPathUnits="userSpaceOnUse"
       id="clipPath16093">
      <path
         d="m -182.1006,368.5299 h 595.276 v -595.276 h -595.276 z"
         id="path16095"
         style="stroke-width:0.999998" />
    </clipPath>
    <clipPath
       clipPathUnits="userSpaceOnUse"
       id="clipPath16099">
      <path
         d="m -145.4893,308.2076 h 595.276 v -595.276 h -595.276 z"
         id="path16101"
         style="stroke-width:0.999998" />
    </clipPath>
    <clipPath
       clipPathUnits="userSpaceOnUse"
       id="clipPath16105">
      <path
         d="m -301.6963,284.4064 h 595.276 v -595.276 h -595.276 z"
         id="path16107"
         style="stroke-width:0.999998" />
    </clipPath>
    <clipPath
       clipPathUnits="userSpaceOnUse"
       id="clipPath16111">
      <path
         d="m -302.4834,302.4322 h 595.276 v -595.276 h -595.276 z"
         id="path16113"
         style="stroke-width:0.999998" />
    </clipPath>
    <clipPath
       clipPathUnits="userSpaceOnUse"
       id="clipPath16117">
      <path
         d="m -266.2695,274.5099 h 595.276 v -595.276 h -595.276 z"
         id="path16119"
         style="stroke-width:0.999998" />
    </clipPath>
    <clipPath
       clipPathUnits="userSpaceOnUse"
       id="clipPath16123">
      <path
         d="m -453.0742,302.9498 h 595.276 v -595.276 h -595.276 z"
         id="path16125"
         style="stroke-width:0.999998" />
    </clipPath>
    <clipPath
       clipPathUnits="userSpaceOnUse"
       id="clipPath16130">
      <path
         d="m -282.7295,377.9869 h 595.276 v -595.276 h -595.276 z"
         id="path16132"
         style="stroke-width:0.999998" />
    </clipPath>
    <clipPath
       clipPathUnits="userSpaceOnUse"
       id="clipPath16136">
      <path
         d="m -188.2158,237.6163 h 595.276 v -595.276 h -595.276 z"
         id="path16138"
         style="stroke-width:0.999998" />
    </clipPath>
    <clipPath
       clipPathUnits="userSpaceOnUse"
       id="clipPath16142">
      <path
         d="m -211.2236,246.8907 h 595.276 v -595.276 h -595.276 z"
         id="path16144"
         style="stroke-width:0.999998" />
    </clipPath>
    <clipPath
       clipPathUnits="userSpaceOnUse"
       id="clipPath16148">
      <path
         d="m -225.6514,250.9933 h 595.276 v -595.276 h -595.276 z"
         id="path16150"
         style="stroke-width:0.999998" />
    </clipPath>
    <clipPath
       clipPathUnits="userSpaceOnUse"
       id="clipPath16154">
      <path
         d="m -229.9727,256.546 h 595.276 V -338.73 h -595.276 z"
         id="path16156"
         style="stroke-width:0.999998" />
    </clipPath>
    <clipPath
       clipPathUnits="userSpaceOnUse"
       id="clipPath16160">
      <path
         d="m -174.7891,255.2472 h 595.276 v -595.276 h -595.276 z"
         id="path16162"
         style="stroke-width:0.999998" />
    </clipPath>
    <clipPath
       clipPathUnits="userSpaceOnUse"
       id="clipPath16166">
      <path
         d="m -207.499,251.2833 h 595.276 v -595.276 h -595.276 z"
         id="path16168"
         style="stroke-width:0.999998" />
    </clipPath>
    <clipPath
       clipPathUnits="userSpaceOnUse"
       id="clipPath16172">
      <path
         d="M -284.916,465.858 H 310.36 v -595.276 h -595.276 z"
         id="path16174"
         style="stroke-width:0.999998" />
    </clipPath>
    <clipPath
       clipPathUnits="userSpaceOnUse"
       id="clipPath16178">
      <path
         d="m -319.0371,340.0963 h 595.276 v -595.276 h -595.276 z"
         id="path16180"
         style="stroke-width:0.999998" />
    </clipPath>
    <clipPath
       clipPathUnits="userSpaceOnUse"
       id="clipPath16184">
      <path
         d="m -464.6533,464.653 h 595.276 v -595.276 h -595.276 z"
         id="path16186"
         style="stroke-width:0.999998" />
    </clipPath>
    <clipPath
       clipPathUnits="userSpaceOnUse"
       id="clipPath16190">
      <path
         d="M -518.6104,239.3165 H 76.665594 v -595.276 H -518.6104 Z"
         id="path16192"
         style="stroke-width:0.999998" />
    </clipPath>
    <clipPath
       clipPathUnits="userSpaceOnUse"
       id="clipPath16196">
      <path
         d="m -498.9414,253.1915 h 595.276 v -595.276 h -595.276 z"
         id="path16198"
         style="stroke-width:0.999998" />
    </clipPath>
  </defs>
  <sodipodi:namedview
     id="namedview12506"
     pagecolor="#ffffff"
     bordercolor="#000000"
     borderopacity="0.25"
     inkscape:showpageshadow="2"
     inkscape:pageopacity="0.0"
     inkscape:pagecheckerboard="0"
     inkscape:deskcolor="#d1d1d1"
     showgrid="false"
     inkscape:zoom="0.29734106"
     inkscape:cx="-215.24105"
     inkscape:cy="396.85068"
     inkscape:window-width="1419"
     inkscape:window-height="456"
     inkscape:window-x="0"
     inkscape:window-y="25"
     inkscape:window-maximized="0"
     inkscape:current-layer="svg12504">
    <inkscape:page
       x="0"
       y="0"
       id="page12510"
       width="793.70135"
       height="793.70135" />
  </sodipodi:namedview>
  <path
     d="M 619.538 619.537 C 562.366 676.616 483.996 711.747 396.848 711.779 C 309.703 711.747 231.332 676.616 174.164 619.537 C 117.081 562.365 81.95 483.996 81.9233 396.85 C 81.95 309.706 117.081 231.331 174.164 174.161 C 231.332 117.082 309.703 81.949 396.848 81.9237 C 483.996 81.949 562.366 117.082 619.538 174.161 C 676.618 231.331 711.748 309.704 711.779 396.85 C 711.748 483.996 676.618 562.365 619.538 619.537 M 396.851 31.7305 C 195.2 31.7305 31.7301 195.202 31.7301 396.852 C 31.7301 598.504 195.2 761.974 396.851 761.974 C 598.502 761.974 761.972 598.504 761.972 396.852 C 761.972 195.202 598.502 31.7305 396.851 31.7305"
     style="fill:#000000;fill-opacity:1;fill-rule:nonzero;stroke:none"
     id="path12624" />
  <path
     d="M 425.383 453.462 C 418.986 439.162 414.286 426.527 411.167 417.402"
     style="fill:#000000;fill-opacity:1;fill-rule:nonzero;stroke:none"
     id="path12628" />
  <path
     d="M 665.255 337.589 C 661.284 368.78 654.187 399.837 643.831 430.347 C 643.83 430.35 643.748 430.585 643.604 430.998 L 643.504 431.287 C 644.903 432.587 646.283 433.915 647.638 435.274 C 651.358 439.001 654.9 442.935 658.2 447.074 C 671.058 463.197 680.279 482.597 681.014 504.29 C 681.046 505.151 681.06 506.017 681.064 506.883 C 704.932 445.547 707.514 380.1 691.48 319.092"
     style="fill:#000000;fill-opacity:1;fill-rule:nonzero;stroke:none"
     id="path12632" />
  <path
     d="M 691.481 319.089 C 689.86 320.353 687.973 321.846 685.901 323.524 C 682.68 326.113 675.157 331.246 665.256 337.589 M 425.386 453.465 C 426.287 450.003 427.386 445.921 428.606 441.642 C 429.803 437.457 430.988 434.082 432.066 431.397 C 423.786 428.842 416.552 423.907 411.164 417.399 M 384.728 410.771 L 379.035 413.703 L 371.722 417.498 C 368.762 423.347 365.247 428.763 361.295 433.691 L 362.535 437.355 C 364.159 442.173 365.995 448.025 367.816 454.594 M 128.508 338.06 C 118.701 331.768 111.256 326.681 108.046 324.102 C 105.841 322.317 103.841 320.736 102.141 319.413 M 96.3052 314.969 Z"
     style="fill:#000000;fill-opacity:1;fill-rule:nonzero;stroke:none"
     id="path12636" />
  <path
     d="M 379.888 621.144 C 377.913 607.283 375.983 592.964 374.595 580.969 C 373.108 568.068 372.649 556.324 372.275 544.306 C 370.647 545.155 368.796 545.636 366.832 545.636 C 364.975 545.636 363.22 545.204 361.66 544.442 C 361.775 563.581 363.46 585.988 364.999 603.295 C 366.572 622.671 379.888 621.144 379.888 621.144"
     style="fill:#000000;fill-opacity:1;fill-rule:nonzero;stroke:none"
     id="path12640" />
  <path
     d="M 376.973 503.983 C 377.897 514.764 378.313 524.494 378.618 533.759 C 379.142 549.595 379.346 564.087 381.22 580.204 C 382.416 590.564 384.028 602.699 385.724 614.789 C 387.708 602.165 389.278 575.439 381.353 527.59 C 379.981 519.303 378.504 511.426 376.973 503.983"
     style="fill:#000000;fill-opacity:1;fill-rule:nonzero;stroke:none"
     id="path12644" />
  <path
     d="M 300.869 334.658 C 303.878 361.091 292.237 384.301 268.128 386.834 C 244.018 389.366 227.507 369.786 224.499 343.351 L 235.785 354.639 L 243.594 341.213 L 254.88 352.471 L 262.688 339.039 L 273.972 350.295 L 281.78 336.867 L 293.064 348.123 Z"
     style="fill:#000000;fill-opacity:1;fill-rule:nonzero;stroke:none"
     id="path12648" />
  <path
     d="M 233.052 340.33 C 233.773 341.818 234.535 343.313 235.331 344.813 L 240.845 335.326 C 239.681 333.026 238.564 330.79 237.503 328.585 C 237.157 327.839 234.408 327.839 232.408 330.255 C 230.408 332.673 231.029 336.154 233.052 340.33"
     style="fill:#000000;fill-opacity:1;fill-rule:nonzero;stroke:none"
     id="path12652" />
  <path
     d="M 250.954 316.822 C 250.407 315.339 247.074 315.173 244.823 317.673 C 242.574 320.173 242.355 323.461 244.298 327.317 C 246.462 331.727 248.886 336.393 251.462 341.531 L 253.743 343.806 L 258.622 335.417 C 255.874 328.669 253.239 322.625 250.954 316.822"
     style="fill:#000000;fill-opacity:1;fill-rule:nonzero;stroke:none"
     id="path12656" />
  <path
     d="M 276.665 335.044 C 275.384 331.559 274.233 328.285 273.301 325.405 C 270.446 316.583 266.408 304.421 266.408 304.421 C 266.074 303.172 262.574 303.172 259.99 305.505 C 257.628 307.64 256.152 311.339 257.988 316.463 C 260.117 321.743 265.232 333.977 265.276 334.087 L 272.836 341.629 Z"
     style="fill:#000000;fill-opacity:1;fill-rule:nonzero;stroke:none"
     id="path12660" />
  <path
     d="M 281.631 329.188 L 291.922 339.451 L 294.163 335.92 C 291.83 328.232 289.632 320.661 287.886 313.752 C 285.628 304.828 282.466 291.136 282.466 291.136 C 282.074 289.672 278.407 289.256 275.324 291.589 C 271.886 294.191 271.324 298.423 273.328 304.311 C 275.043 309.589 277.163 315.693 279.642 323.356 C 280.219 325.145 280.89 327.104 281.631 329.188"
     style="fill:#000000;fill-opacity:1;fill-rule:nonzero;stroke:none"
     id="path12664" />
  <path
     d="M 306.63 342.061 C 307.898 340.849 309.241 339.706 310.647 338.646 C 308.051 327.288 305.229 315.204 302.91 303.076 C 301.294 294.622 299.033 279.62 299.033 279.62 C 298.825 277.922 294.921 278.257 292.074 280.256 C 288.158 283.005 288.178 286.676 289.71 293.049 C 290.938 298.526 292.482 304.734 294.35 312.12 C 295.643 317.237 297.205 322.772 298.893 328.477 L 303.325 321.505 C 303.325 321.505 306.273 337.744 306.63 342.061"
     style="fill:#000000;fill-opacity:1;fill-rule:nonzero;stroke:none"
     id="path12668" />
  <path
     d="M 412.47399,580.204 Z"
     style="fill:#000000;fill-opacity:1;fill-rule:nonzero;stroke:none;stroke-width:1.33333"
     id="path12672" />
  <path
     d="m 413.80466,621.144 c 1.97467,-13.86133 3.90533,-28.18 5.29333,-40.17467 1.48667,-12.90133 1.94534,-24.64533 2.32,-36.66399 1.628,0.84933 3.47867,1.33066 5.44267,1.33066 1.85733,0 3.612,-0.432 5.172,-1.19466 -0.11467,19.13999 -1.8,41.54666 -3.33867,58.85333 -1.57333,19.376 -14.88933,17.84933 -14.88933,17.84933"
     style="fill:#000000;fill-opacity:1;fill-rule:nonzero;stroke:none;stroke-width:1.33333"
     id="path12676" />
  <path
     d="M 416.72 503.983 C 415.796 514.764 415.38 524.494 415.075 533.759 C 414.551 549.595 414.347 564.087 412.473 580.204 C 411.277 590.564 409.665 602.699 407.969 614.789 C 405.985 602.165 404.415 575.439 412.34 527.59 C 413.712 519.303 415.189 511.426 416.72 503.983"
     style="fill:#000000;fill-opacity:1;fill-rule:nonzero;stroke:none"
     id="path12680" />
  <path
     d="m 603.40358,358.59654 h 0.0147 -0.0373 z"
     style="fill:#000000;fill-opacity:1;fill-rule:nonzero;stroke:none;stroke-width:1.33333"
     id="path12684" />
  <path
     d="m 481.83465,343.97147 c 3.888,-2.63067 7.44,-5.64533 10.68133,-7.92133 2.55334,-8.352 4.964,-16.57067 6.824,-23.932 1.868,-7.384 3.412,-13.592 4.64134,-19.06934 1.532,-6.37333 1.55333,-10.044 -2.36267,-12.79333 -2.84667,-1.99733 -6.752,-2.33333 -6.96,-0.636 -0.96933,7.24 -2.26133,15.004 -3.88,23.45333 -2.68533,14.044 -6.04267,28.02934 -8.944,40.89867 m 19.26533,-13.28133 c 3.956,-2.24667 8.21867,-4.396 12.628,-6.34934 0.10934,-0.33466 0.21867,-0.66266 0.32267,-0.98533 2.47867,-7.66267 4.59867,-13.76667 6.312,-19.04533 2.00533,-5.888 1.444,-10.12 -1.99467,-12.72134 -3.08266,-2.33333 -6.74933,-1.91733 -7.14133,-0.45333 0,0 -3.16267,13.69333 -5.42,22.616 -1.34933,5.336 -2.96667,11.06533 -4.70667,16.93867 m 34.46,-13.86934 c 0.0493,-0.12266 0.0973,-0.24133 0.144,-0.35733 1.836,-5.12533 0.36134,-8.82267 -2.00266,-10.95867 -2.58267,-2.33333 -6.08267,-2.33333 -6.416,-1.08266 0,0 -2.86667,8.632 -5.47734,16.62933 4.58667,-1.70533 9.224,-3.148 13.752,-4.23067"
     style="fill:#000000;fill-opacity:1;fill-rule:nonzero;stroke:none;stroke-width:1.33333"
     id="path12688" />
  <path
     d="M 517.083 429.035 C 513.222 425.511 509.43 422.223 505.914 419.272 C 505.472 419.486 505.031 419.699 504.587 419.915 C 503.358 420.514 502.139 421.131 500.926 421.762 C 505.084 426.863 509.658 432.764 514.246 439.226 C 514.246 439.226 525.175 436.316 517.083 429.035"
     style="fill:#000000;fill-opacity:1;fill-rule:nonzero;stroke:none"
     id="path12692" />
  <path
     d="M 527.375 418.181 C 524.336 416.542 521.368 415.033 518.548 413.66 C 516.608 414.452 514.623 415.293 512.595 416.189 C 516.65 419.648 520.995 423.501 525.36 427.621 C 525.36 427.621 537.259 423.689 527.375 418.181"
     style="fill:#000000;fill-opacity:1;fill-rule:nonzero;stroke:none"
     id="path12696" />
  <path
     d="M 535.818 408.391 C 535.294 408.271 534.774 408.156 534.257 408.042 C 531.917 408.755 529.311 409.55 526.811 410.438 C 529.925 412.044 533.153 413.787 536.418 415.664 C 536.418 415.664 548.231 411.315 535.818 408.391"
     style="fill:#000000;fill-opacity:1;fill-rule:nonzero;stroke:none"
     id="path12700" />
  <path
     d="M 450.853 523.826 C 447.573 526.529 443.856 527.167 441.385 527.167 L 441.262 527.167 C 440.329 527.165 439.524 527.089 438.872 526.998 C 438.844 546.539 438.277 568.651 436.726 588.105 C 436.265 593.774 435.734 599.198 435.11 604.274 C 435.11 604.274 450.898 601.112 451.125 578.353 C 451.289 572.365 451.353 566.255 451.352 560.173 C 451.353 547.503 451.078 534.965 450.853 523.826"
     style="fill:#000000;fill-opacity:1;fill-rule:nonzero;stroke:none"
     id="path12704" />
  <path
     d="M 470.958 508.266 C 469.847 509.641 468.647 510.785 467.455 511.678 C 463.15 515.009 459.23 515.829 458.65 515.974 L 457.374 516.242 C 457.598 529.011 458.019 544.477 458.019 560.173 C 458.019 568.042 457.915 575.974 457.623 583.67 C 457.623 583.67 473.65 576.039 473.111 551.258 C 472.781 537.539 472.102 522.779 470.958 508.266"
     style="fill:#000000;fill-opacity:1;fill-rule:nonzero;stroke:none"
     id="path12708" />
  <path
     d="M 487.676 489.295 C 486.845 490.527 485.945 491.582 485.053 492.44 C 481.931 495.522 479.02 496.696 478.504 496.92 L 476.725 497.631 C 478.537 516.656 479.488 536.56 479.851 554.478 C 479.851 554.478 494.788 540.311 492.292 518.339 C 491.093 508.978 489.577 499.292 487.676 489.295"
     style="fill:#000000;fill-opacity:1;fill-rule:nonzero;stroke:none"
     id="path12712" />
  <path
     d="M 501.9 468.652 C 500.939 470.392 499.783 471.808 498.692 472.865 C 496.139 475.379 493.824 476.449 493.391 476.668 L 492.051 477.288 C 495.283 492.449 497.639 506.947 499.308 520.743 C 499.308 520.743 514.716 506.949 509.868 491.324 C 507.451 483.852 504.788 476.256 501.9 468.652"
     style="fill:#000000;fill-opacity:1;fill-rule:nonzero;stroke:none"
     id="path12716" />
  <path
     d="M 514.342 451.157 C 514.106 451.67 513.883 452.066 513.606 452.509 C 512.489 454.297 511.17 455.566 509.97 456.524 C 507.853 458.185 506.022 458.972 505.353 459.248 C 506.219 461.362 507.041 463.428 507.803 465.42 C 511.383 474.81 514.63 484.185 517.503 493.342 C 517.503 493.342 532.821 482.78 525.865 470.574 C 525.191 469.316 524.501 468.042 523.793 466.756 C 520.843 461.392 517.638 456.154 514.342 451.157"
     style="fill:#000000;fill-opacity:1;fill-rule:nonzero;stroke:none"
     id="path12720" />
  <path
     d="M 526.069 437.589 C 525.61 438.792 524.964 439.826 524.298 440.61 C 523.018 442.144 521.678 443.062 520.506 443.753 C 519.649 444.242 518.856 444.617 518.178 444.898 C 522.16 450.794 526.068 457.062 529.634 463.542 C 531.242 466.464 532.76 469.313 534.192 472.084 C 534.192 472.084 549.446 463.944 540.844 453.933 C 539.101 451.753 537.289 449.589 535.408 447.461 C 532.438 444.1 529.285 440.789 526.069 437.589"
     style="fill:#000000;fill-opacity:1;fill-rule:nonzero;stroke:none"
     id="path12724" />
  <path
     d="M 537.814 424.188 C 537.418 426.373 536.306 428.037 535.327 429.109 C 534.073 430.491 532.831 431.324 531.722 431.991 C 531.311 432.229 530.915 432.443 530.542 432.636 C 533.923 435.995 537.253 439.485 540.403 443.045 C 543.822 446.915 547.011 450.885 549.971 454.852 C 549.971 454.852 567.166 446.199 556.37 437.615 C 554.87 436.308 553.362 435.055 551.855 433.881 C 547.385 430.385 542.614 427.147 537.814 424.188"
     style="fill:#000000;fill-opacity:1;fill-rule:nonzero;stroke:none"
     id="path12728" />
  <path
     d="M 548.158 411.48 C 548.159 411.548 548.159 411.616 548.158 411.683 C 548.162 413.3 547.667 414.675 547.122 415.663 C 546.567 416.663 545.962 417.36 545.398 417.925 C 544.599 418.704 543.853 419.256 543.154 419.707 C 547.51 422.441 551.837 425.412 555.958 428.625 C 559.41 431.329 562.829 434.36 566.133 437.545 C 566.133 437.545 583.622 425.384 569.765 419.321 C 567.578 418.267 565.323 417.272 563.01 416.352 C 558.51 414.565 553.391 412.933 548.158 411.48"
     style="fill:#000000;fill-opacity:1;fill-rule:nonzero;stroke:none"
     id="path12732" />
  <path
     d="M 357.829 334.651 C 360.133 335.844 362.324 337.234 364.37 338.792 C 367.084 320.184 368.884 301.263 369.714 282.07 C 370.069 273.892 370.244 265.555 370.244 257.449 C 370.244 257.449 370.305 255.153 370.305 253.006 C 370.305 250.255 367.408 248.173 363.574 249.006 C 359.741 249.839 356.464 252.938 356.464 258.589 C 356.464 281.216 357.641 303.56 357.753 319.09 C 357.78 322.936 357.8 328.287 357.829 334.651"
     style="fill:#000000;fill-opacity:1;fill-rule:nonzero;stroke:none"
     id="path12736" />
  <path
     d="M 316.612 334.833 C 318.941 333.596 321.34 332.601 323.892 331.788 C 322.137 319.972 320.053 305.969 318.108 291.833 C 317.084 284.396 316.236 276.805 315.608 269.352 C 315.408 267.421 311.461 267.969 308.991 270.005 C 305.657 272.754 304.68 275.085 305.908 282.588 C 306.78 288.578 308.145 294.958 309.459 301.822 C 311.587 312.966 314.167 324.146 316.612 334.833 M 330.403 330.245 C 332.687 329.884 335.163 329.696 337.545 329.697 C 336.177 309.218 333.531 283.752 332.437 260.044 C 332.365 258.631 328.824 258.755 325.991 260.588 C 323.597 262.139 321.241 264.672 322.157 271.088 C 323.121 277.832 323.811 284.364 324.713 290.926 C 326.623 304.789 328.665 318.548 330.403 330.245 M 344.253 330.222 C 346.649 330.592 348.983 331.153 351.236 331.89 C 351.163 326.762 351.112 322.416 351.088 319.138 C 350.98 303.872 350.093 281.528 350.093 258.688 C 350.091 257.229 349.991 254.172 349.991 252.839 C 349.991 251.505 346.075 250.839 343.491 252.005 C 337.988 254.489 339.181 259.819 339.324 264.505 C 340.403 287.953 342.813 308.744 344.196 329.408 C 344.215 329.673 344.233 329.945 344.253 330.222"
     style="fill:#000000;fill-opacity:1;fill-rule:nonzero;stroke:none"
     id="path12740" />
  <path
     d="M 346.902 244.779 L 346.902 244.779 C 346.891 243.678 346.889 242.604 346.889 241.51 C 346.885 227.412 347.518 214.218 349.234 204.315 C 350.926 194.536 352.558 187.402 359.907 179.588 C 366.909 172.145 380.575 168.034 391.489 167.751 C 372.822 183.766 363.206 196.419 360.407 233.922 C 360.213 236.524 360.041 239.634 359.886 243.155 C 357.735 243.966 355.667 245.279 353.971 247.132 C 352.499 245.891 351.287 245.53 350.158 245.188 C 349.051 244.899 347.993 244.806 346.902 244.779"
     style="fill:#000000;fill-opacity:1;fill-rule:nonzero;stroke:none"
     id="path12744" />
  <path
     d="M 340.246 246.155 C 340.241 245.72 340.238 245.286 340.234 244.851 C 340.223 243.724 340.223 242.608 340.223 241.51 C 340.227 227.206 341.175 212.726 342.663 203.18 C 344.47 191.599 348.629 183.49 353.523 177.69 C 353.523 177.69 340.685 182.367 335.574 192.922 C 333.291 197.636 332.241 202.255 330.951 211.082 C 329.923 216.892 329.439 225.708 329.441 235.591 C 329.441 240.974 329.582 246.683 329.841 252.45 C 330.101 252.432 330.362 252.422 330.625 252.416 C 331.534 252.423 332.505 252.503 333.675 252.87 C 333.689 252.874 333.701 252.878 333.714 252.883 C 333.767 252.759 333.822 252.635 333.879 252.512 C 335.039 249.916 337.413 247.519 340.246 246.155"
     style="fill:#000000;fill-opacity:1;fill-rule:nonzero;stroke:none"
     id="path12748" />
  <path
     d="M 323.262 254.462 L 323.223 253.638 C 322.931 247.481 322.778 241.362 322.778 235.591 C 322.785 225.477 323.245 216.455 324.386 209.93 C 325.411 203.89 326.909 198.657 328.71 194.094 C 321.241 199.089 316.137 203.846 314.074 210.422 C 312.741 214.671 312.658 218.005 312.407 221.922 C 312.158 225.841 311.878 232.534 311.878 238.794 C 311.878 245.765 312.289 253.479 313.007 261.523 C 313.241 261.507 313.477 261.494 313.717 261.489 C 314.538 261.502 315.458 261.565 316.489 261.873 C 316.783 261.15 317.129 260.465 317.523 259.827 C 318.97 257.461 320.899 255.935 322.358 254.997 C 322.661 254.809 322.962 254.63 323.262 254.462"
     style="fill:#000000;fill-opacity:1;fill-rule:nonzero;stroke:none"
     id="path12752" />
  <path
     d="M 306.507 263.63 C 306.502 263.57 306.496 263.509 306.491 263.449 C 305.68 254.775 305.212 246.411 305.212 238.794 C 305.212 232.295 305.552 226.343 306.338 221.158 C 306.423 220.583 306.646 219.51 306.742 218.95 C 306.742 218.95 303.991 219.338 301.491 221.422 C 296.78 225.349 295.742 228.671 295.324 232.005 C 294.804 236.167 294.476 242.589 294.476 251.021 C 294.479 257.766 294.934 264.429 295.946 271.927 C 296.335 271.89 296.652 271.867 297.055 271.859 C 297.799 271.873 298.596 271.917 299.49 272.134 C 299.722 271.41 300.012 270.703 300.368 270.026 C 301.562 267.726 303.231 266.111 304.74 264.867 C 305.328 264.406 305.916 263.994 306.507 263.63"
     style="fill:#000000;fill-opacity:1;fill-rule:nonzero;stroke:none"
     id="path12756" />
  <path
     d="M 289.501 274.011 C 288.344 265.778 287.808 258.432 287.808 251.022 C 287.808 246.972 287.969 242.902 288.273 238.659 C 288.398 236.852 288.637 233.735 289.046 231.895 C 289.046 231.895 281.324 235.506 278.976 241.436 C 277.397 245.427 276.488 249.199 276.13 258.256 C 276.042 260.476 276.094 262.967 276.094 265.195 C 276.1 271.686 276.866 277.202 278.313 283.375 C 278.852 283.31 279.388 283.275 279.921 283.272 C 280.73 283.278 281.544 283.343 282.386 283.53 C 282.614 282.388 282.984 281.239 283.538 280.128 C 284.618 277.932 286.346 276.112 288.236 274.806 C 288.657 274.519 289.08 274.255 289.501 274.011"
     style="fill:#000000;fill-opacity:1;fill-rule:nonzero;stroke:none"
     id="path12760" />
  <path
     d="M 272.027 285.758 C 270.366 278.903 269.426 272.537 269.43 265.194 C 269.43 262.778 269.53 260.261 269.735 257.586 C 270.14 252.203 271.246 246.71 272.532 242.422 C 266.074 244.839 262.907 249.506 261.324 253.673 C 259.719 257.897 259.251 264.326 259.022 271.717 C 258.992 272.679 258.976 273.609 258.976 274.507 C 258.99 283.282 260.267 289.587 262.699 297.079 C 263.327 296.982 263.958 296.931 264.592 296.922 C 264.898 296.925 265.21 296.937 265.528 296.962 C 265.811 292.923 267.884 288.719 271.29 286.279 C 271.534 286.097 271.779 285.923 272.027 285.758"
     style="fill:#000000;fill-opacity:1;fill-rule:nonzero;stroke:none"
     id="path12764" />
  <path
     d="M 256.548 299.721 C 253.857 291.606 252.297 284.186 252.309 274.508 C 252.309 273.529 252.329 272.533 252.357 271.518 C 252.588 263.518 254.259 255.436 256.843 249.649 C 248.575 252.172 245.157 257.672 243.408 263.254 C 241.795 268.402 241.308 273.516 241.152 281.136 C 241.143 281.442 241.139 281.778 241.143 282.136 C 241.139 291.344 243.537 299.836 247.229 309.193 C 247.76 309.116 248.295 309.076 248.828 309.073 C 249.448 309.078 250.081 309.128 250.732 309.248 C 251.368 305.658 253.219 302.585 255.508 300.569 C 255.852 300.265 256.196 299.982 256.548 299.721"
     style="fill:#000000;fill-opacity:1;fill-rule:nonzero;stroke:none"
     id="path12768" />
  <path
     d="M 370.687 209.996 C 369.01 216.579 367.795 224.511 367.055 234.417 C 366.926 236.164 366.8 238.177 366.688 240.416 C 366.847 241.049 367.019 241.676 367.207 242.297 C 368.559 242.497 369.878 242.907 371.096 243.541 C 372.998 227.069 378.044 208.645 385.647 194.033 C 385.647 194.033 382.74 196.151 380.699 197.943 C 379.535 198.964 378.344 200.065 377.334 201.099 C 374.744 203.744 372.503 206.735 370.687 209.996"
     style="fill:#000000;fill-opacity:1;fill-rule:nonzero;stroke:none"
     id="path12772" />
  <path
     d="M 229.359 323.991 C 228.484 321.715 227.664 319.467 226.907 317.255 C 219.406 295.336 222.246 271.727 238.77 258.683 C 236.208 264.787 234.652 272.127 234.488 280.975 C 234.475 281.364 234.475 281.763 234.475 282.135 C 234.475 292.654 237.259 302.147 241.158 311.968 C 240.707 312.35 240.272 312.766 239.858 313.222 C 237.838 315.402 236.524 318.435 236.331 321.48 C 234.035 321.508 231.423 322.479 229.359 323.991"
     style="fill:#000000;fill-opacity:1;fill-rule:nonzero;stroke:none"
     id="path12776" />
  <path
     d="M 339.129 453.623 C 338.574 453.978 338.017 454.326 337.457 454.667 C 338.064 457.3 338.657 460.024 339.21 462.787 C 343.188 482.662 344.657 501.651 344.79 525.044 C 344.79 527.852 347.07 530.133 349.88 530.133 C 352.69 530.133 354.968 527.797 354.968 524.987 C 354.409 499.522 351.213 476.154 347.67 461.828 C 347.512 461.188 347.352 460.544 347.188 459.902 C 344.72 458.246 342.425 456.404 340.486 454.771 Z"
     style="fill:#000000;fill-opacity:1;fill-rule:nonzero;stroke:none"
     id="path12780" />
  <path
     d="M 323.809 461.423 C 324.057 462.835 324.292 464.248 324.51 465.663 C 326.633 479.42 327.669 494.579 327.845 512.355 C 327.845 515.128 330.097 517.382 332.872 517.382 C 335.648 517.382 337.897 515.131 337.897 512.355 C 337.354 494.887 335.812 479.787 332.674 464.098 C 332.268 462.059 331.836 460.032 331.393 458.054 C 328.902 459.311 326.372 460.431 323.809 461.423"
     style="fill:#000000;fill-opacity:1;fill-rule:nonzero;stroke:none"
     id="path12784" />
  <path
     d="M 309.189 465.522 C 309.316 466.517 309.437 467.525 309.552 468.543 C 310.517 477.006 311.072 486.834 311.233 497.939 C 311.233 500.582 313.38 502.73 316.025 502.73 C 318.67 502.73 320.817 500.59 320.817 497.943 C 320.332 486.467 319.389 476.199 317.92 466.683 C 317.762 465.658 317.596 464.629 317.421 463.601 C 314.696 464.397 311.946 465.041 309.189 465.522"
     style="fill:#000000;fill-opacity:1;fill-rule:nonzero;stroke:none"
     id="path12788" />
  <path
     d="M 294.195 466.566 C 294.319 468.167 294.426 469.806 294.512 471.473 C 294.815 477.271 295.028 482.323 295.158 486.941 C 295.158 489.454 297.196 491.493 299.708 491.493 C 302.223 491.493 304.259 489.493 304.259 486.981 C 303.978 480.485 303.535 474.605 302.927 469.301 C 302.814 468.311 302.695 467.331 302.572 466.366 C 300.792 466.509 299.014 466.585 297.239 466.587 L 297.054 466.587 C 296.09 466.587 295.136 466.579 294.195 466.566"
     style="fill:#000000;fill-opacity:1;fill-rule:nonzero;stroke:none"
     id="path12792" />
  <path
     d="M 271.733 513.332 C 272.422 504.739 272.744 496.955 272.745 486.865 C 272.745 485.124 272.734 483.313 272.716 481.417 C 271.376 482.009 269.894 482.337 268.336 482.337 C 266.753 482.337 265.249 481.996 263.893 481.389 C 263.736 486.52 263.55 491.173 263.321 495.551 C 262.75 512.515 271.733 513.332 271.733 513.332"
     style="fill:#000000;fill-opacity:1;fill-rule:nonzero;stroke:none"
     id="path12796" />
  <path
     d="M 287.271 527.501 C 288.167 515.413 288.639 506.741 288.639 496.974 C 288.639 494.93 288.619 492.826 288.576 490.641 C 287.135 491.324 285.523 491.698 283.82 491.701 C 282.246 491.698 280.75 491.37 279.394 490.782 C 279.334 497.386 279.119 503.124 278.738 508.946 C 278.096 525.722 287.271 527.501 287.271 527.501"
     style="fill:#000000;fill-opacity:1;fill-rule:nonzero;stroke:none"
     id="path12800" />
  <path
     d="M 303.169 548.423 C 303.232 547.338 303.294 546.235 303.358 545.12 C 304.194 530.42 304.617 516.996 304.617 504.983 C 304.617 502.267 304.594 499.623 304.55 497.051 C 303.08 497.759 301.434 498.155 299.708 498.158 C 298.145 498.158 296.657 497.838 295.308 497.259 C 295.297 506.508 294.873 514.798 294.089 525.68 C 293.689 545.522 303.169 548.423 303.169 548.423"
     style="fill:#000000;fill-opacity:1;fill-rule:nonzero;stroke:none"
     id="path12804" />
  <path
     d="M 319.909 577.423 C 320.177 564.668 320.469 552.183 320.772 542.759 C 321.053 533.92 321.208 525.691 321.208 517.975 C 321.208 514.623 321.177 511.368 321.121 508.202 C 319.586 508.965 317.854 509.395 316.025 509.395 C 314.329 509.395 312.72 509.025 311.274 508.366 C 311.202 519.65 310.777 532.054 310.012 545.499 C 309.866 548.062 309.724 550.543 309.586 552.95 C 309.586 572.978 319.909 577.423 319.909 577.423"
     style="fill:#000000;fill-opacity:1;fill-rule:nonzero;stroke:none"
     id="path12808" />
  <path
     d="M 338.74 595.837 C 338.319 581.764 337.972 565.744 337.971 551.14 C 337.973 547.368 337.996 543.692 338.048 540.168 C 338.101 536.198 338.133 532.376 338.133 528.676 C 338.133 526.687 338.125 524.733 338.107 522.809 C 336.533 523.6 334.755 524.045 332.872 524.048 C 331.076 524.045 329.375 523.64 327.855 522.919 C 327.804 529.261 327.659 535.93 327.435 542.976 C 327.155 551.665 326.884 562.988 326.632 574.73 C 326.632 592.954 338.74 595.837 338.74 595.837"
     style="fill:#000000;fill-opacity:1;fill-rule:nonzero;stroke:none"
     id="path12812" />
  <path
     d="M 358.94 610.253 C 357.216 591.726 354.991 564.726 354.988 542.347 C 354.985 540.835 354.999 539.339 355.021 537.879 C 355.029 537.113 355.037 536.352 355.043 535.592 C 353.495 536.352 351.747 536.784 349.88 536.797 C 348.045 536.797 346.311 536.376 344.767 535.631 C 344.751 537.155 344.735 538.696 344.713 540.261 C 344.661 543.75 344.639 547.396 344.639 551.138 C 344.639 563.846 344.905 577.672 345.252 590.338 C 346.015 609.089 358.94 610.253 358.94 610.253"
     style="fill:#000000;fill-opacity:1;fill-rule:nonzero;stroke:none"
     id="path12816" />
  <path
     d="m 375.97399,407.78734 c 1.64533,-4.43467 2.98267,-9.07333 3.96933,-13.89467 l 7.63067,7.91867 z"
     style="fill:#000000;fill-opacity:1;fill-rule:nonzero;stroke:none;stroke-width:1.33333"
     id="path12820" />
  <path
     d="m 380.90492,388.35961 10.11333,-7.82667 -9.12133,-4.788 c -0.0627,4.32 -0.40133,8.524 -0.992,12.61467"
     style="fill:#000000;fill-opacity:1;fill-rule:nonzero;stroke:none;stroke-width:1.33333"
     id="path12824" />
  <path
     d="M 278.973 465.925 C 279.112 468.576 279.22 471.342 279.276 474.188 C 279.32 476.428 279.352 478.553 279.376 480.586 C 279.376 483.042 281.368 485.034 283.822 485.034 C 286.278 485.034 288.269 483.04 288.269 480.586 C 288.157 477.857 288.021 474.949 287.858 471.816 C 287.761 469.949 287.642 468.201 287.497 466.412 C 284.564 466.302 281.728 466.141 278.973 465.925"
     style="fill:#000000;fill-opacity:1;fill-rule:nonzero;stroke:none"
     id="path12828" />
  <path
     d="M 264.126 464.066 C 264.147 465.389 264.159 466.759 264.159 468.17 C 264.157 469.246 264.15 470.347 264.135 471.473 C 264.135 473.79 266.017 475.673 268.337 475.673 C 270.654 475.673 272.535 473.798 272.535 471.481 C 272.469 469.35 272.371 467.271 272.257 465.266 C 269.457 464.933 266.749 464.535 264.126 464.066"
     style="fill:#000000;fill-opacity:1;fill-rule:nonzero;stroke:none"
     id="path12832" />
  <path
     d="M 249.421 460.438 C 249.337 465.457 249.109 471.623 248.62 478.949 C 247.249 497.058 256.445 499.086 256.445 499.086 C 256.881 491.911 257.172 484.077 257.413 474.517 C 257.437 473.509 257.454 472.519 257.468 471.55 C 257.484 470.397 257.492 469.271 257.492 468.17 C 257.492 466.258 257.47 464.425 257.432 462.678 C 254.676 462.022 251.997 461.277 249.421 460.438"
     style="fill:#000000;fill-opacity:1;fill-rule:nonzero;stroke:none"
     id="path12836" />
  <path
     d="M 446.79 244.779 L 446.79 244.779 C 446.801 243.678 446.803 242.604 446.803 241.51 C 446.807 227.412 446.174 214.218 444.458 204.315 C 442.766 194.536 441.134 187.402 433.785 179.588 C 426.783 172.145 413.117 168.034 402.203 167.751 C 420.87 183.766 430.486 196.419 433.285 233.922 C 433.479 236.524 433.651 239.634 433.806 243.155 C 435.957 243.966 438.025 245.279 439.721 247.132 C 441.193 245.891 442.405 245.53 443.534 245.188 C 444.641 244.899 445.699 244.806 446.79 244.779"
     style="fill:#000000;fill-opacity:1;fill-rule:nonzero;stroke:none"
     id="path12840" />
  <path
     d="M 453.447 246.155 C 453.452 245.72 453.455 245.286 453.459 244.851 C 453.47 243.724 453.47 242.608 453.47 241.51 C 453.466 227.206 452.518 212.726 451.03 203.18 C 449.223 191.599 445.064 183.49 440.17 177.69 C 440.17 177.69 453.008 182.367 458.119 192.922 C 460.402 197.636 461.452 202.255 462.742 211.082 C 463.77 216.892 464.254 225.708 464.252 235.591 C 464.252 240.974 464.111 246.683 463.852 252.45 C 463.592 252.432 463.331 252.422 463.068 252.416 C 462.159 252.423 461.188 252.503 460.018 252.87 C 460.004 252.874 459.992 252.878 459.979 252.883 C 459.926 252.759 459.871 252.635 459.814 252.512 C 458.654 249.916 456.28 247.519 453.447 246.155"
     style="fill:#000000;fill-opacity:1;fill-rule:nonzero;stroke:none"
     id="path12844" />
  <path
     d="M 470.431 254.462 L 470.47 253.638 C 470.762 247.481 470.915 241.362 470.915 235.591 C 470.908 225.477 470.448 216.455 469.307 209.93 C 468.282 203.89 466.784 198.657 464.983 194.094 C 472.452 199.089 477.556 203.846 479.619 210.422 C 480.952 214.671 481.035 218.005 481.286 221.922 C 481.535 225.841 481.815 232.534 481.815 238.794 C 481.815 245.765 481.404 253.479 480.686 261.523 C 480.452 261.507 480.216 261.494 479.976 261.489 C 479.155 261.502 478.235 261.565 477.204 261.873 C 476.91 261.15 476.564 260.465 476.17 259.827 C 474.723 257.461 472.794 255.935 471.335 254.997 C 471.032 254.809 470.731 254.63 470.431 254.462"
     style="fill:#000000;fill-opacity:1;fill-rule:nonzero;stroke:none"
     id="path12848" />
  <path
     d="M 487.186 263.63 C 487.191 263.57 487.197 263.509 487.202 263.449 C 488.013 254.775 488.481 246.411 488.481 238.794 C 488.481 232.295 488.141 226.343 487.355 221.158 C 487.27 220.583 487.047 219.51 486.951 218.95 C 486.951 218.95 489.702 219.338 492.202 221.422 C 496.913 225.349 497.951 228.671 498.369 232.005 C 498.889 236.167 499.217 242.589 499.217 251.021 C 499.214 257.766 498.759 264.429 497.747 271.927 C 497.358 271.89 497.041 271.867 496.638 271.859 C 495.894 271.873 495.097 271.917 494.203 272.134 C 493.971 271.41 493.681 270.703 493.325 270.026 C 492.131 267.726 490.462 266.111 488.953 264.867 C 488.365 264.406 487.777 263.994 487.186 263.63"
     style="fill:#000000;fill-opacity:1;fill-rule:nonzero;stroke:none"
     id="path12852" />
  <path
     d="M 504.191 274.011 C 505.348 265.778 505.884 258.432 505.884 251.022 C 505.884 246.972 505.723 242.902 505.419 238.659 C 505.294 236.852 505.055 233.735 504.646 231.895 C 504.646 231.895 512.368 235.506 514.716 241.436 C 516.295 245.427 517.204 249.199 517.562 258.256 C 517.65 260.476 517.598 262.967 517.598 265.195 C 517.592 271.686 516.826 277.202 515.379 283.375 C 514.84 283.31 514.304 283.275 513.771 283.272 C 512.962 283.278 512.148 283.343 511.306 283.53 C 511.078 282.388 510.708 281.239 510.154 280.128 C 509.074 277.932 507.346 276.112 505.456 274.806 C 505.035 274.519 504.612 274.255 504.191 274.011"
     style="fill:#000000;fill-opacity:1;fill-rule:nonzero;stroke:none"
     id="path12856" />
  <path
     d="M 521.665 285.758 C 523.326 278.903 524.266 272.537 524.262 265.194 C 524.262 262.778 524.162 260.261 523.957 257.586 C 523.552 252.203 522.446 246.71 521.16 242.422 C 527.618 244.839 530.785 249.506 532.368 253.673 C 533.973 257.897 534.441 264.326 534.67 271.717 C 534.7 272.679 534.716 273.609 534.716 274.507 C 534.702 283.282 533.425 289.587 530.993 297.079 C 530.365 296.982 529.734 296.931 529.1 296.922 C 528.794 296.925 528.482 296.937 528.164 296.962 C 527.881 292.923 525.808 288.719 522.402 286.279 C 522.158 286.097 521.913 285.923 521.665 285.758"
     style="fill:#000000;fill-opacity:1;fill-rule:nonzero;stroke:none"
     id="path12860" />
  <path
     d="M 537.145 299.721 C 539.836 291.606 541.396 284.186 541.384 274.508 C 541.384 273.529 541.364 272.533 541.336 271.518 C 541.105 263.518 539.434 255.436 536.85 249.649 C 545.118 252.172 548.536 257.672 550.285 263.254 C 551.898 268.402 552.385 273.516 552.541 281.136 C 552.55 281.442 552.554 281.778 552.55 282.136 C 552.554 291.344 550.156 299.836 546.464 309.193 C 545.933 309.116 545.398 309.076 544.865 309.073 C 544.245 309.078 543.612 309.128 542.961 309.248 C 542.325 305.658 540.474 302.585 538.185 300.569 C 537.841 300.265 537.497 299.982 537.145 299.721"
     style="fill:#000000;fill-opacity:1;fill-rule:nonzero;stroke:none"
     id="path12864" />
  <path
     d="M 423.005 209.996 C 424.682 216.579 425.897 224.511 426.637 234.417 C 426.766 236.164 426.892 238.177 427.004 240.416 C 426.845 241.049 426.673 241.676 426.485 242.297 C 425.133 242.497 423.814 242.907 422.596 243.541 C 420.694 227.069 415.648 208.645 408.045 194.033 C 408.045 194.033 410.952 196.151 412.993 197.943 C 414.157 198.964 415.348 200.065 416.358 201.099 C 418.948 203.744 421.189 206.735 423.005 209.996"
     style="fill:#000000;fill-opacity:1;fill-rule:nonzero;stroke:none"
     id="path12868" />
  <path
     d="M 355.102 464.373 C 358.753 481.076 361.715 506.094 361.719 532.834 C 361.719 533.173 361.719 533.513 361.718 533.854 C 361.718 536.679 364.01 538.971 366.834 538.971 C 369.659 538.971 371.951 536.682 371.951 533.859 C 371.618 523.714 371.155 513.11 370.033 501.234 C 368.966 489.878 366.902 478.678 364.513 468.521"
     style="fill:#000000;fill-opacity:1;fill-rule:nonzero;stroke:none"
     id="path12872" />
  <path
     d="M 344.793 449.683 C 348.262 447.068 351.584 444.178 354.72 441.03 C 355.229 440.516 355.72 440.014 356.22 439.488 C 358.134 445.162 360.354 452.331 362.489 460.42 C 359.877 459.308 356.042 457.54 352.464 455.368 C 349.81 453.756 347.037 451.582 344.793 449.683"
     style="fill:#000000;fill-opacity:1;fill-rule:nonzero;stroke:none"
     id="path12876" />
  <path
     d="M 430.387 347.909 C 432.028 347.328 433.726 346.842 435.451 346.458 C 435.715 334.88 435.902 325.117 435.944 319.093 C 436.05 303.562 437.23 281.216 437.23 258.589 C 437.23 252.937 433.952 249.839 430.119 249.005 C 426.286 248.172 423.387 250.256 423.387 253.005 C 423.387 255.153 423.45 257.448 423.45 257.448 C 423.45 265.555 423.624 273.892 423.978 282.07 C 424.808 301.264 426.608 320.185 429.322 338.793 C 429.663 341.937 430.028 345.078 430.387 347.909"
     style="fill:#000000;fill-opacity:1;fill-rule:nonzero;stroke:none"
     id="path12880" />
  <path
     d="m 467.16532,349.30881 c 0.58933,0.10133 1.10533,0.14933 1.57733,0.13867 0.272,0 0.56934,-0.0147 0.88,-0.048 1.448,-0.14267 3.05734,-0.59734 4.74267,-1.28267 3.17067,-14.44933 7.10267,-30.35867 10.12667,-46.18933 1.31733,-6.90134 2.41733,-13.31734 3.29333,-19.33867 1.228,-7.50266 0.24933,-9.83333 -3.084,-12.584 -2.46933,-2.036 -6.41733,-2.58266 -6.61867,-0.65333 -0.62666,7.45333 -1.47733,15.044 -2.50133,22.48533 -2.49333,18.09733 -5.20667,35.984 -7.172,49.33333 -0.34267,2.33067 -0.764,5.07067 -1.244,8.13867"
     style="fill:#000000;fill-opacity:1;fill-rule:nonzero;stroke:none;stroke-width:1.33333"
     id="path12884" />
  <path
     d="M 454.861 346.232 C 457.252 346.649 459.22 347.149 460.98 347.653 C 461.41 344.899 461.788 342.427 462.101 340.305 C 464.066 326.927 466.777 309.068 469.262 291.029 C 470.169 284.431 470.94 277.714 471.536 271.09 C 472.452 264.672 470.096 262.139 467.702 260.59 C 464.869 258.756 461.324 258.631 461.252 260.044 C 460.16 283.753 457.51 309.371 456.145 329.853 C 455.866 334.025 455.421 339.657 454.861 346.232"
     style="fill:#000000;fill-opacity:1;fill-rule:nonzero;stroke:none"
     id="path12888" />
  <path
     d="m 442.01172,345.51054 c 1.004,-0.0693 2.01733,-0.104 3.03867,-0.104 1.10666,-0.003 2.16666,0.0253 3.18666,0.0787 0.54934,-6.46667 0.984,-11.99734 1.256,-16.07867 1.29067,-19.27467 3.624,-42.792 4.876,-64.90133 0.14267,-4.68667 1.336,-10.016 -4.16666,-12.5 -2.584,-1.16667 -6.5,-0.5 -6.5,0.83333 0.0227,2.18667 0.032,4.368 0.032,6.54667 0,22.84 -1.18667,45.284 -1.28934,60.55066 -0.04,5.764 -0.20133,14.824 -0.43333,25.57467"
     style="fill:#000000;fill-opacity:1;fill-rule:nonzero;stroke:none;stroke-width:1.33333"
     id="path12892" />
  <path
     d="M 567.845 313.913 C 573.965 292.972 570.609 271.065 554.924 258.682 C 557.484 264.786 559.04 272.126 559.205 280.976 C 559.217 281.365 559.217 281.764 559.217 282.136 C 559.217 292.654 556.433 302.148 552.536 311.969 C 552.985 312.349 553.421 312.766 553.834 313.221 C 554.077 313.484 554.309 313.756 554.528 314.04 C 557.254 313.868 559.87 313.793 562.354 313.793 C 564.265 313.794 566.1 313.837 567.845 313.913"
     style="fill:#000000;fill-opacity:1;fill-rule:nonzero;stroke:none"
     id="path12896" />
  <path
     d="M 428.853 469.928 C 426.602 479.707 424.677 490.4 423.66 501.235 C 422.538 513.111 422.076 523.715 421.742 533.86 C 421.742 536.682 424.034 538.972 426.86 538.972 C 429.684 538.972 431.976 536.68 431.976 533.855 C 431.974 533.513 431.974 533.173 431.974 532.835 C 431.978 506.337 434.978 481.173 438.598 464.409 C 437.442 465.163 436.44 465.775 435.617 466.209 C 432.421 467.879 431.65 468.305 431.573 468.349 L 431.573 468.347 Z"
     style="fill:#000000;fill-opacity:1;fill-rule:nonzero;stroke:none"
     id="path12900" />
  <path
     d="M 547.962 404.516 C 554.069 406.155 560.063 408.019 565.47 410.156 C 571.35 412.495 576.829 415.281 581.799 418.204 C 581.799 418.204 585.847 414.699 585.795 410.923 C 585.741 406.923 583.713 405.005 581.99 404.284 C 579.373 403.185 574.741 402.589 567.598 402.488 C 562.186 402.488 555.59 403.005 547.962 404.516"
     style="fill:#000000;fill-opacity:1;fill-rule:nonzero;stroke:none"
     id="path12904" />
  <path
     d="M 450.586 507.55 C 450.573 506.077 450.566 504.654 450.566 503.29 C 450.566 502.581 450.569 501.897 450.573 501.235 C 450.657 487.315 451.678 469.81 452.834 454.206 C 450.67 455.821 448.535 457.399 446.529 458.857 C 446.41 458.943 446.293 459.029 446.175 459.113 C 442.523 476.974 439.377 497.837 438.925 520.225 C 438.925 520.225 450.265 523.511 450.586 507.55"
     style="fill:#000000;fill-opacity:1;fill-rule:nonzero;stroke:none"
     id="path12908" />
  <path
     d="M 469.301 490.498 C 467.87 476.801 466.106 460.123 464.541 445.381 C 463.465 446.189 462.406 446.985 461.364 447.779 C 460.889 448.138 460.41 448.503 459.926 448.87 C 458.606 465.733 457.329 485.881 457.238 501.274 C 457.234 501.935 457.23 502.605 457.23 503.29 C 457.23 505.225 457.245 507.285 457.27 509.451 C 457.27 509.451 470.861 506.574 469.301 490.498"
     style="fill:#000000;fill-opacity:1;fill-rule:nonzero;stroke:none"
     id="path12912" />
  <path
     d="M 483.937 471.449 C 483.526 469.654 483.104 467.85 482.668 466.034 C 480.229 455.902 477.426 446.246 474.79 437.916 C 473.426 438.876 472.08 439.832 470.756 440.793 C 472.452 456.758 474.452 475.652 476.028 490.73 C 476.028 490.73 487.717 486.061 483.937 471.449"
     style="fill:#000000;fill-opacity:1;fill-rule:nonzero;stroke:none"
     id="path12916" />
  <path
     d="M 495.866 453.946 C 492.555 446.358 488.833 438.394 485.205 430.897 C 483.626 431.907 482.066 432.93 480.527 433.962 C 483.379 442.837 486.47 453.35 489.147 464.474 C 489.643 466.534 490.122 468.585 490.586 470.621 C 490.586 470.621 501.325 465.639 495.866 453.946"
     style="fill:#000000;fill-opacity:1;fill-rule:nonzero;stroke:none"
     id="path12920" />
  <path
     d="M 506.708 440.162 C 502.636 434.577 498.62 429.459 494.959 425.001 C 493.595 425.774 492.245 426.566 490.905 427.367 C 494.941 435.693 499.12 444.641 502.765 453.102 C 502.765 453.102 513.343 449.071 506.708 440.162"
     style="fill:#000000;fill-opacity:1;fill-rule:nonzero;stroke:none"
     id="path12924" />
  <path
     d="M 466.28 435.803 C 463.173 438.063 460.187 440.3 457.331 442.47 C 452.537 446.11 447.204 450.123 442.609 453.467 C 438.052 456.787 434.061 459.514 432.529 460.3 C 431.957 460.6 430.991 461.108 430.971 461.118 C 430.78 461.207 430.496 461.347 430.224 461.488 C 431.211 457.516 432.936 450.767 435.019 443.478 C 436.301 438.991 437.551 435.548 438.627 432.975 C 440.512 433.222 442.433 433.35 444.384 433.35 C 450.812 433.339 457.376 434.144 465.749 435.699 C 465.976 435.743 466.077 435.764 466.28 435.803"
     style="fill:#000000;fill-opacity:1;fill-rule:nonzero;stroke:none"
     id="path12928" />
  <path
     d="M 384.728 410.772 C 381.785 419.963 376.231 435.912 367.812 454.584"
     style="fill:#000000;fill-opacity:1;fill-rule:nonzero;stroke:none"
     id="path12932" />
  <path
     d="M 128.504 338.054 C 132.484 369.086 139.564 399.989 149.868 430.344 C 149.869 430.347 149.951 430.582 150.095 430.996 L 150.196 431.284 C 148.795 432.584 147.417 433.912 146.061 435.272 C 142.34 438.996 138.799 442.936 135.497 447.071 C 122.643 463.194 113.42 482.598 112.684 504.287 C 112.653 505.152 112.639 506.014 112.635 506.882 C 88.8094 445.655 86.1961 380.326 102.136 319.41"
     style="fill:#000000;fill-opacity:1;fill-rule:nonzero;stroke:none"
     id="path12936" />
  <path
     d="M 131.508 277.6 C 131.472 276.919 131.435 276.268 131.396 275.629 C 131.153 271.587 130.161 270.221 129.516 270.128 C 128.869 270.031 127.703 271.62 127.097 275.244 C 127.013 275.757 126.813 277.212 126.599 279.048 C 124.401 279.832 122.313 280.761 120.343 281.792 L 113.195 285.521 C 117.933 273.415 123.439 261.607 129.695 250.173 C 139.588 257.985 149.773 268.463 159.856 280.58 C 153.437 277.727 147.167 276.459 141.26 276.461 C 141.259 276.463 141.215 276.461 141.132 276.464 C 137.768 276.473 134.553 276.885 131.508 277.6"
     style="fill:#000000;fill-opacity:1;fill-rule:nonzero;stroke:none"
     id="path12940" />
  <path
     d="M 299.418 214.737 C 299.19 211.37 299.069 207.993 299.062 204.609 C 299.067 195.557 299.759 186.092 301.289 176.584 C 301.231 176.593 301.179 176.601 301.126 176.609 C 263.173 184.438 227.042 196.374 194.064 210.736 C 181.506 216.204 172.402 220.805 166.089 224.042 C 163.189 225.513 161.113 226.592 159.145 227.573 C 155.522 229.382 153.845 229.209 153.44 228.696 C 153.033 228.185 153.828 226.38 156.665 224.042 C 157.498 223.36 161.594 220.218 165.073 217.892 C 172.037 213.24 181.348 207.765 190.824 203.209 C 225.858 186.534 263.226 173.998 302.367 166.213 C 302.37 166.213 302.613 166.165 303.045 166.084 L 303.345 166.026 C 303.773 164.162 304.231 162.305 304.73 160.452 C 306.098 155.368 307.735 150.33 309.669 145.404 C 317.203 126.209 329.394 108.523 347.813 97.04 C 348.545 96.5813 349.283 96.136 350.033 95.6986 C 284.591 105.757 226.313 136.552 181.385 181.377 C 164.134 198.669 148.957 217.934 136.248 238.828 C 160.785 248.593 196.076 253.608 232.216 255.49 C 232.991 254.788 233.798 254.105 234.635 253.446 L 254.885 237.47 L 252.031 244.276 C 252.942 243.898 253.895 243.56 254.893 243.268 L 261.974 241.109 C 264.177 239.13 266.905 237.39 270.198 236.172 L 275.549 234.182 C 277.289 231.956 279.267 230.325 280.931 229.077 C 283.643 227.062 286.054 225.933 286.218 225.853 L 291.029 223.602 C 292.374 221.098 294.389 218.58 297.237 216.282 C 297.97 215.68 298.705 215.169 299.418 214.737"
     style="fill:#000000;fill-opacity:1;fill-rule:nonzero;stroke:none"
     id="path12944" />
  <path
     d="M 392.001 160.815 C 391.996 137.12 391.993 113.56 391.99 92.2418 C 328.134 95.1885 307.305 156.315 307.305 204.611 C 307.305 206.242 307.333 207.875 307.389 209.506 C 307.489 209.148 307.597 208.787 307.713 208.42 C 310.517 199.567 317.189 193.772 324.997 188.548 L 336.048 181.155 C 340.693 176.543 345.798 173.858 348.736 172.495 C 349.598 172.098 350.35 171.788 350.724 171.636 L 350.806 171.576 L 374.776 162.844 L 373.706 164.111 C 377.381 162.939 381.152 162.126 384.841 161.632 L 383.637 160.599 Z"
     style="fill:#000000;fill-opacity:1;fill-rule:nonzero;stroke:none"
     id="path12948" />
  <path
     d="M 392.007 181.142 L 392.007 177.63 L 391.488 176.637 C 386.302 181.366 382.194 185.778 378.868 190.81 C 380.111 189.833 381.175 189.047 381.563 188.762 L 381.566 188.766 L 381.639 188.703 Z"
     style="fill:#000000;fill-opacity:1;fill-rule:nonzero;stroke:none"
     id="path12952" />
  <path
     d="M 402.199 176.636 L 401.691 177.612 L 401.691 181.165 L 412.007 188.675 L 412.008 188.673 L 412.026 188.684 C 412.046 188.7 412.082 188.725 412.124 188.76 C 412.214 188.825 412.344 188.921 412.506 189.043 C 412.832 189.283 413.283 189.621 413.807 190.02 C 414.123 190.265 414.466 190.531 414.823 190.812 C 411.498 185.779 407.386 181.367 402.199 176.636"
     style="fill:#000000;fill-opacity:1;fill-rule:nonzero;stroke:none"
     id="path12956" />
  <path
     d="M 401.663 323.501 C 401.663 316.957 401.676 260.078 401.69 196.261 L 402.13 197.107 C 409.252 210.748 414.176 228.604 415.971 244.3 L 416.81 251.608 C 416.751 252.047 416.72 252.496 416.719 252.951 C 416.719 253.024 416.72 253.08 416.722 253.124 C 416.723 254.217 416.736 255.316 416.751 256.152 C 416.762 256.587 416.768 256.952 416.775 257.209 C 416.778 257.337 416.778 257.44 416.782 257.509 L 416.784 257.534 C 416.784 265.646 416.959 274.077 417.315 282.357 C 418.152 301.709 419.967 320.798 422.694 339.564 C 423.04 342.725 423.408 345.88 423.772 348.746 L 424.026 350.75 C 416.475 354.866 410.275 361.12 406.227 368.712 L 395.852 375.537 L 381.479 367.996 C 380.212 358.908 376.198 350.696 370.311 344.236 L 370.968 339.752 C 373.712 320.92 375.532 301.773 376.372 282.357 C 376.732 274.077 376.907 265.646 376.91 257.442 C 376.911 257.417 376.911 257.389 376.91 257.362 C 376.927 256.724 376.968 254.88 376.968 253 L 376.968 252.756 L 376.962 252.704 C 376.951 252.332 376.92 251.964 376.872 251.601 L 377.716 244.304 C 379.512 228.604 384.438 210.753 391.558 197.113 L 392.011 196.243 C 392.024 260.068 392.039 316.956 392.039 323.501 C 392.039 332.118 392.706 342.721 393.548 351.184 C 393.974 355.416 394.454 359.185 394.912 361.842 C 395.766 366.426 396.5 367.154 396.851 367.154 C 397.202 367.154 397.935 366.426 398.788 361.842 C 399.247 359.185 399.727 355.416 400.152 351.184 C 400.995 342.721 401.663 332.118 401.663 323.501"
     style="fill:#000000;fill-opacity:1;fill-rule:nonzero;stroke:none"
     id="path12960" />
  <path
     d="M 486.314 209.548 C 486.21 209.176 486.099 208.803 485.979 208.42 C 483.169 199.568 476.497 193.772 468.687 188.548 L 457.681 181.193 C 454.907 178.433 451.963 176.364 449.425 174.848 C 447.514 173.712 445.827 172.888 444.594 172.333 C 443.979 172.055 443.471 171.843 443.121 171.701 C 443.059 171.676 442.999 171.651 442.947 171.631 L 442.873 171.576 L 418.945 162.868 L 419.993 164.111 C 416.32 162.94 412.549 162.127 408.864 161.632 L 410.09 160.581 L 401.7 160.807 C 401.705 137.116 401.709 113.556 401.712 92.2403 C 465.606 95.1576 486.398 156.301 486.398 204.611 C 486.398 206.255 486.371 207.905 486.314 209.548"
     style="fill:#000000;fill-opacity:1;fill-rule:nonzero;stroke:none"
     id="path12964" />
  <path
     d="M 561.467 255.491 C 597.612 253.61 632.913 248.595 657.455 238.828 C 644.745 217.935 629.568 198.67 612.319 181.378 C 567.39 136.553 509.111 105.757 443.67 95.6981 C 444.419 96.1354 445.159 96.5807 445.891 97.0394 C 464.309 108.522 476.501 126.21 484.035 145.405 C 485.967 150.331 487.607 155.367 488.973 160.453 C 489.471 162.305 489.933 164.163 490.359 166.026 L 490.659 166.083 C 491.09 166.166 491.333 166.214 491.335 166.214 C 530.475 173.999 567.844 186.534 602.879 203.208 C 612.355 207.766 621.668 213.24 628.627 217.892 C 632.107 220.219 636.205 223.359 637.041 224.043 C 639.877 226.38 640.669 228.186 640.264 228.695 C 639.859 229.208 638.18 229.383 634.557 227.574 C 632.589 226.591 630.512 225.514 627.614 224.043 C 621.3 220.804 612.196 216.203 599.639 210.736 C 566.662 196.374 530.53 184.439 492.577 176.61 C 492.523 176.602 492.471 176.593 492.414 176.583 C 493.945 186.091 494.637 195.558 494.642 204.61 C 494.635 207.996 494.515 211.378 494.287 214.747 C 494.988 215.175 495.71 215.678 496.426 216.267 C 499.292 218.575 501.312 221.099 502.658 223.606 L 507.474 225.856 C 507.706 225.967 510.008 227.05 512.774 229.09 C 514.483 230.372 516.424 231.99 518.126 234.168 L 523.484 236.172 C 526.783 237.394 529.515 239.134 531.719 241.118 L 538.762 243.262 C 539.77 243.556 540.731 243.898 541.648 244.278 L 538.795 237.476 L 559.05 253.447 C 559.886 254.106 560.694 254.788 561.467 255.491"
     style="fill:#000000;fill-opacity:1;fill-rule:nonzero;stroke:none"
     id="path12968" />
  <path
     d="M 633.587 280.895 C 640.295 277.732 646.864 276.327 653.036 276.33 C 653.038 276.33 653.055 276.33 653.084 276.331 L 653.09 276.33 C 656.27 276.33 659.314 276.696 662.208 277.339 C 662.239 276.754 662.27 276.188 662.303 275.634 C 662.546 271.59 663.536 270.224 664.183 270.131 C 664.83 270.034 665.995 271.623 666.6 275.251 C 666.679 275.73 666.875 277.042 667.074 278.714 C 669.419 279.524 671.658 280.511 673.746 281.6 L 680.304 285.014 C 675.611 273.087 670.171 261.447 664.004 250.176 C 654.027 258.055 643.754 268.644 633.587 280.895"
     style="fill:#000000;fill-opacity:1;fill-rule:nonzero;stroke:none"
     id="path12972" />
  <path
     d="M 541.798 474.959 C 580.022 497.016 625.562 523.295 663.079 544.948 C 692.455 488.172 649.934 439.571 608.107 415.423 C 605.421 413.871 602.681 412.41 599.897 411.035 C 599.246 412.035 598.571 413.024 597.874 414.003 L 586.77 429.53 L 586.431 422.998 C 586.293 423.123 586.199 423.204 586.159 423.24 L 582.537 426.374 L 581.754 425.912 C 581.443 431.836 577.815 435.759 575.366 438.375 C 572.823 440.956 570.439 442.654 570.01 442.959 L 570.011 442.962 L 570.007 442.962 L 569.975 442.91 L 569.935 443.014 L 566.441 445.44 C 565.611 451.035 561.739 454.555 559.151 456.746 C 556.069 459.248 553.142 460.708 552.966 460.803 L 549.967 462.311 C 549.179 467.659 545.818 471.363 543.306 473.68 C 542.793 474.144 542.286 474.568 541.798 474.959"
     style="fill:#000000;fill-opacity:1;fill-rule:nonzero;stroke:none"
     id="path12976" />
  <path
     d="M 491.349 550.451 C 494.385 545.536 497.538 538.683 498.733 530.203 L 504.17 525.334 L 504.225 525.235 C 506.093 523.386 515.258 514.615 517.138 501.686 L 521.286 498.826 C 521.512 498.664 524.516 496.594 527.601 493.076 C 529.969 490.342 532.714 486.47 533.83 481.517 C 572.671 503.954 619.678 531.107 658.221 553.368 C 623.747 607.243 560.397 594.678 518.562 570.522 C 508.801 564.886 499.737 558.068 491.349 550.451"
     style="fill:#000000;fill-opacity:1;fill-rule:nonzero;stroke:none"
     id="path12980" />
  <path
     d="M 486.4 557.196 C 485.435 558.311 484.765 558.977 484.537 559.209 L 478.336 565.095 C 476.633 572.037 473.651 577.368 470.567 581.18 C 465.851 587.037 461.075 589.401 460.489 589.683 L 455.672 591.977 C 453.745 597.683 450.719 601.904 447.525 604.769 C 442.305 609.545 437.108 610.901 436.483 611.035 C 420.261 642.982 407.178 675.669 403.402 701.556 C 427.849 700.996 452.123 697.482 475.721 691.19 C 537.005 674.693 592.816 639.62 634.246 587.975 C 633.493 588.404 632.738 588.824 631.976 589.229 C 612.821 599.436 591.408 601.152 571.018 598.079 C 565.785 597.289 560.602 596.193 555.517 594.832 C 553.662 594.336 551.824 593.808 549.997 593.245 L 549.797 593.477 C 549.511 593.808 549.348 593.996 549.347 593.999 C 523.035 624.001 493.493 650.097 461.536 672.1 C 452.852 678.029 443.453 683.357 435.945 687.056 C 432.191 688.906 427.423 690.886 426.412 691.269 C 422.971 692.556 421.011 692.338 420.771 691.732 C 420.531 691.125 421.216 689.584 424.596 687.352 C 426.431 686.138 428.403 684.878 431.125 683.105 C 437.087 679.256 445.624 673.672 456.637 665.529 C 485.564 644.152 514 618.829 539.757 589.873 C 539.791 589.832 539.719 589.792 539.757 589.748 C 530.757 586.319 522.263 582.207 514.42 577.685 C 504.356 571.847 494.992 564.915 486.4 557.196"
     style="fill:#000000;fill-opacity:1;fill-rule:nonzero;stroke:none"
     id="path12984" />
  <path
     d="M 303.406 560.483 C 295.891 566.874 287.845 572.68 279.258 577.66 C 271.415 582.18 262.871 586.316 253.873 589.746 C 253.909 589.79 253.943 589.83 253.978 589.874 C 279.734 618.827 308.135 644.149 337.062 665.527 C 348.075 673.671 356.613 679.253 362.574 683.103 C 365.298 684.879 367.267 686.136 369.102 687.349 C 372.483 689.581 373.168 691.123 372.928 691.731 C 372.688 692.337 370.728 692.553 367.286 691.264 C 366.277 690.884 361.51 688.907 357.755 687.059 C 350.245 683.352 340.847 678.027 332.163 672.097 C 300.206 650.095 270.665 624.002 244.353 593.996 C 244.351 593.994 244.189 593.806 243.902 593.475 L 243.702 593.243 C 241.875 593.806 240.037 594.335 238.182 594.83 C 233.096 596.188 227.914 597.288 222.681 598.076 C 202.29 601.15 180.878 599.436 161.724 589.228 C 160.961 588.822 160.206 588.404 159.453 587.975 C 200.884 639.619 256.694 674.691 317.978 691.188 C 341.577 697.483 365.85 700.993 390.298 701.553 C 386.76 677.292 375.042 647.059 360.229 617.056 L 358.278 616.882 C 357.679 616.819 353.021 616.327 348.258 612.568 C 345.579 610.494 343.07 607.42 341.274 603.292 L 337.146 602.308 C 336.523 602.152 332.214 601.027 328.006 596.863 C 325.309 594.238 322.826 590.407 321.354 585.306 L 317.283 583.551 C 316.434 583.186 312.769 581.395 309.323 576.574 C 306.706 572.926 304.383 567.642 303.406 560.483"
     style="fill:#000000;fill-opacity:1;fill-rule:nonzero;stroke:none"
     id="path12988" />
  <path
     d="M 242.801 491.373 C 207.793 511.597 168.527 534.28 135.481 553.365 C 169.961 607.193 233.313 594.67 275.138 570.521 C 283.566 565.654 291.398 559.977 298.8 553.597 C 297.242 552.685 295.186 551.212 293.286 548.682 C 290.85 545.444 288.8 540.805 287.896 534.414 L 286.009 534.048 C 285.093 533.87 281.505 532.972 278.098 529.292 C 276.053 527.108 274.288 524.086 273.197 520.146 L 271.157 519.969 C 270.145 519.889 266.38 519.31 262.782 515.712 C 260.554 513.477 258.73 510.329 257.662 506.173 L 255.032 505.6 C 254.041 505.389 250.636 504.397 247.429 500.725 C 245.461 498.474 243.796 495.389 242.801 491.373"
     style="fill:#000000;fill-opacity:1;fill-rule:nonzero;stroke:none"
     id="path12992" />
  <path
     d="M 193.986 410.943 C 196.819 416.511 200.331 422.232 204.682 427.73 C 215.433 441.287 227.095 451.312 241.957 457.634 C 242.233 457.75 242.51 457.867 242.787 457.982 L 242.753 460.328 C 242.673 465.23 242.447 471.287 241.966 478.5 C 241.907 479.257 241.865 480.016 241.839 480.763 C 205.866 501.521 164.894 525.164 130.619 544.948 C 101.198 488.153 143.755 439.576 185.591 415.422 C 188.339 413.836 191.139 412.344 193.986 410.943"
     style="fill:#000000;fill-opacity:1;fill-rule:nonzero;stroke:none"
     id="path12996" />
  <path
     d="M 138.512 344.38 C 152.068 352.809 167.963 362.172 181.98 369.399 L 182.463 374.124 C 182.651 375.564 184.127 388.229 190.527 403.475 C 187.46 404.975 184.437 406.576 181.469 408.281 C 173.632 412.813 165.779 418.146 158.311 424.224 C 158.289 424.169 158.272 424.12 158.253 424.07 C 149.444 397.507 142.965 370.696 138.52 344.387"
     style="fill:#000000;fill-opacity:1;fill-rule:nonzero;stroke:none"
     id="path13000" />
  <path
     d="M 402.262 379.209 L 389.061 388.197 L 401.095 388.197 C 401.177 385.112 401.575 382.105 402.262 379.209"
     style="fill:#000000;fill-opacity:1;fill-rule:nonzero;stroke:none"
     id="path13004" />
  <path
     d="M 403.311 403.243 C 402.283 400.144 401.588 396.891 401.274 393.528 L 389.059 393.531 L 403.304 403.232"
     style="fill:#000000;fill-opacity:1;fill-rule:nonzero;stroke:none"
     id="path13008" />
  <path
     d="M 355.026 366.013 C 354.803 367.288 353.585 368.144 352.307 367.92 C 351.639 367.802 350.973 367.677 350.302 367.541 C 350.257 368.038 350.181 368.534 350.075 369.034 C 348.521 376.466 341.238 381.229 333.805 379.678 C 326.371 378.124 321.607 370.845 323.155 363.409 C 323.587 361.341 324.465 359.484 325.663 357.908 C 324.813 357.386 323.975 356.856 323.15 356.305 C 322.069 355.585 321.775 354.125 322.494 353.046 C 323.213 351.965 324.669 351.672 325.751 352.389 C 333.137 357.301 341.561 360.914 350.779 362.844 C 351.559 363.002 352.339 363.154 353.118 363.292 L 353.118 363.294 C 354.397 363.518 355.251 364.736 355.026 366.013 M 329.205 389.236 C 328.661 390.149 327.654 390.618 326.663 390.525 C 326.279 390.488 325.898 390.368 325.547 390.157 C 319.501 386.548 314.418 381.576 310.671 375.708 C 309.878 374.465 310.242 372.817 311.482 372.024 C 312.721 371.232 314.371 371.594 315.166 372.833 C 318.469 378.013 322.957 382.398 328.282 385.578 L 328.282 385.582 C 329.549 386.334 329.961 387.972 329.205 389.236 M 319.467 393.649 C 318.886 394.401 317.982 394.757 317.102 394.673 C 316.617 394.628 316.141 394.449 315.725 394.129 C 312.623 391.73 309.798 389.005 307.299 386.013 C 306.354 384.881 306.506 383.201 307.635 382.258 C 308.765 381.312 310.446 381.464 311.39 382.593 C 313.645 385.292 316.19 387.749 318.989 389.908 C 320.153 390.809 320.365 392.481 319.467 393.649 M 285.956 433.018 C 285.466 433.889 284.562 434.378 283.63 434.378 C 283.188 434.378 282.737 434.266 282.324 434.031 C 281.04 433.305 280.586 431.68 281.309 430.397 C 281.722 429.696 282.48 428.04 282.456 426.564 C 282.382 425.206 282.146 424.001 280.008 422.537 C 279.985 425.57 278.774 427.902 278.173 428.993 C 277.682 429.862 276.777 430.349 275.846 430.349 C 275.404 430.349 274.953 430.237 274.54 430.006 C 273.253 429.28 272.801 427.654 273.526 426.37 C 273.941 425.668 274.696 424.013 274.673 422.537 C 274.628 421.753 274.53 421.016 274.044 420.253 C 271.076 419.605 267.116 419.18 261.942 419.19 C 254.592 419.118 247.057 415.685 242.841 411.012 L 242.845 411.013 C 241.87 409.909 241.974 408.225 243.08 407.25 C 244.184 406.277 245.869 406.384 246.842 407.488 C 249.606 410.74 256.404 413.93 261.942 413.854 C 271.833 413.873 278.028 415.23 282.096 417.548 C 286.197 419.808 287.876 423.537 287.79 426.564 C 287.769 429.597 286.556 431.928 285.956 433.018 M 265.636 438.839 C 264.678 441.719 262.806 443.561 261.897 444.414 C 261.164 445.091 260.153 445.277 259.268 444.987 C 258.845 444.851 258.452 444.605 258.13 444.255 C 257.133 443.17 257.204 441.482 258.288 440.485 C 258.898 439.946 260.128 438.605 260.56 437.193 C 260.91 435.881 261.058 434.659 259.476 432.608 C 258.517 435.485 256.645 437.329 255.738 438.179 C 255.002 438.857 253.992 439.042 253.106 438.755 C 252.685 438.618 252.29 438.373 251.969 438.023 C 250.969 436.935 251.042 435.25 252.128 434.253 C 252.737 433.714 253.968 432.373 254.401 430.961 C 254.601 430.201 254.734 429.469 254.508 428.594 C 251.885 427.064 248.249 425.436 243.326 423.846 C 236.354 421.512 230.248 415.92 227.681 410.173 L 227.684 410.176 C 227.098 408.824 227.717 407.253 229.069 406.668 C 230.42 406.084 231.989 406.706 232.574 408.058 C 234.2 412.004 239.68 417.136 244.972 418.774 C 254.376 421.842 259.846 425.045 263.001 428.506 C 266.205 431.922 266.65 435.987 265.636 438.839 M 337.409 336.365 C 326.197 336.365 316.123 341.242 309.195 348.992 C 308.365 349.922 307.275 351.217 305.945 352.766 C 304.693 361.278 301.797 369.113 297.177 375.624 C 290.831 384.63 280.945 390.889 268.68 392.136 C 267.089 392.302 265.52 392.384 263.977 392.384 L 263.845 392.384 C 254.994 392.382 246.99 389.565 240.38 384.769 C 237.705 382.828 235.258 380.564 233.076 378.032 C 225.625 369.432 220.96 357.885 219.322 344.982 C 218.965 344.508 218.606 344.042 218.241 343.589 C 201.908 323.256 189.942 305.057 161.574 288.923 C 146.623 280.419 133.591 282.413 123.431 287.705 C 124.891 288.852 126.524 290.149 128.281 291.571 C 131.527 294.211 142.836 301.852 156.722 310.508 C 170.634 319.188 187.262 328.996 201.485 336.273 C 202.794 336.944 203.316 338.549 202.642 339.864 C 202.17 340.782 201.234 341.314 200.266 341.314 C 199.858 341.314 199.444 341.22 199.057 341.021 C 184.61 333.63 167.904 323.769 153.897 315.033 C 139.869 306.273 128.679 298.745 124.925 295.716 C 122.504 293.759 120.331 292.044 118.521 290.639 C 115.78 292.495 113.312 294.54 111.14 296.576 C 113.091 298.084 115.513 299.989 118.239 302.196 C 121.487 304.833 132.796 312.474 146.681 321.13 C 160.592 329.809 177.22 339.616 191.442 346.894 C 192.753 347.564 193.27 349.17 192.601 350.485 C 192.128 351.405 191.193 351.934 190.222 351.933 C 189.816 351.933 189.4 351.84 189.012 351.642 C 174.568 344.25 157.862 334.39 143.856 325.653 C 129.825 316.893 118.637 309.37 114.884 306.34 C 111.943 303.96 109.361 301.938 107.364 300.398 C 102.763 305.424 100.241 309.589 100.241 309.589 C 100.241 309.589 105.241 313.256 112.241 318.922 C 119.241 324.589 157.241 349.256 185.908 363.922 C 192.864 367.481 200.213 370.81 207.638 374.102 C 208.59 374.505 209.26 375.442 209.26 376.541 C 209.26 378.005 208.073 379.193 206.609 379.193 C 206.368 379.193 206.137 379.166 205.916 379.106 C 191.26 374.818 189.074 373.256 189.074 373.256 C 189.074 373.256 191.897 400.93 209.908 423.589 C 230.574 449.589 252.574 459.922 297.241 459.922 C 333.907 459.922 375.243 425.589 375.243 374.198 C 375.243 353.304 358.305 336.365 337.409 336.365 M 340.146 366.96 C 339.738 368.91 337.829 370.158 335.881 369.753 C 333.931 369.346 332.682 367.436 333.09 365.485 C 333.343 364.268 334.199 363.314 335.271 362.877 C 333.506 362.122 331.795 361.294 330.111 360.416 C 329.125 361.517 328.405 362.885 328.077 364.438 C 327.103 369.153 330.118 373.762 334.831 374.758 C 339.551 375.733 344.162 372.716 345.151 368.005 C 345.267 367.45 345.321 366.906 345.33 366.362 C 343.474 365.857 341.651 365.288 339.866 364.654 C 340.199 365.348 340.315 366.15 340.146 366.96"
     style="fill:#000000;fill-opacity:1;fill-rule:nonzero;stroke:none"
     id="path13012" />
  <path
     d="M 467.684 398.026 C 465.185 401.019 462.36 403.743 459.259 406.141 C 458.843 406.462 458.367 406.641 457.881 406.686 C 457.001 406.769 456.099 406.415 455.516 405.662 C 454.619 404.493 454.831 402.821 455.995 401.919 C 458.793 399.761 461.339 397.305 463.593 394.606 C 464.537 393.477 466.219 393.325 467.348 394.271 C 468.477 395.214 468.629 396.894 467.684 398.026 M 448.321 402.537 C 447.329 402.631 446.323 402.162 445.779 401.249 C 445.023 399.985 445.435 398.347 446.701 397.595 L 446.701 397.591 C 452.027 394.411 456.515 390.026 459.817 384.846 C 460.612 383.607 462.263 383.245 463.501 384.037 C 464.741 384.83 465.105 386.478 464.312 387.721 C 460.565 393.589 455.483 398.561 449.436 402.17 C 449.085 402.381 448.704 402.501 448.321 402.537 M 441.179 391.691 C 433.745 393.242 426.463 388.479 424.908 381.047 C 424.803 380.547 424.727 380.051 424.681 379.554 C 424.011 379.69 423.344 379.815 422.676 379.933 C 421.399 380.157 420.18 379.301 419.957 378.026 C 419.732 376.749 420.587 375.531 421.865 375.307 L 421.865 375.305 C 422.644 375.167 423.424 375.015 424.204 374.857 C 433.423 372.927 441.847 369.314 449.232 364.402 C 450.315 363.685 451.771 363.978 452.489 365.059 C 453.209 366.138 452.915 367.598 451.833 368.318 C 451.008 368.869 450.171 369.399 449.321 369.921 C 450.519 371.497 451.396 373.354 451.828 375.422 C 453.377 382.858 448.612 390.137 441.179 391.691 M 587.516 372.827 C 594.848 369.575 602.105 366.287 608.973 362.774 C 637.28 348.291 674.802 323.936 681.714 318.338 C 688.626 312.745 693.563 309.124 693.563 309.124 C 693.563 309.124 691.074 305.01 686.53 300.05 C 684.558 301.57 682.009 303.565 679.105 305.916 C 675.398 308.908 664.352 316.336 650.496 324.988 C 636.666 333.613 620.17 343.349 605.908 350.649 C 605.525 350.843 605.114 350.937 604.712 350.937 C 603.754 350.938 602.832 350.414 602.365 349.505 C 601.705 348.209 602.214 346.621 603.508 345.961 C 617.553 338.774 633.972 329.09 647.708 320.521 C 661.418 311.973 672.585 304.428 675.791 301.824 C 678.483 299.645 680.877 297.764 682.802 296.274 C 680.657 294.264 678.219 292.245 675.513 290.412 C 673.727 291.8 671.579 293.493 669.19 295.426 C 665.484 298.417 654.434 305.849 640.582 314.498 C 626.752 323.126 610.254 332.863 595.989 340.161 C 595.606 340.357 595.198 340.45 594.796 340.45 C 593.84 340.45 592.916 339.926 592.449 339.018 C 591.785 337.721 592.298 336.135 593.593 335.473 C 607.637 328.286 624.054 318.602 637.792 310.032 C 651.504 301.485 662.67 293.941 665.876 291.332 C 667.61 289.928 669.222 288.646 670.665 287.514 C 660.634 282.289 647.765 280.321 633.001 288.717 C 605.414 304.408 593.538 322.072 577.778 341.781 C 577.536 342.086 577.306 342.403 577.045 342.697 C 576.476 343.338 576.712 343.829 575.98 344.533 C 574.476 345.978 568.938 346.317 568.938 346.317 C 568.938 346.317 568.938 338.417 573.217 333.809 C 579.728 326.798 586.053 322.948 586.053 322.948 C 586.053 322.948 564.33 317.352 538.657 322.948 C 524.283 326.081 507.589 333.751 496.528 341.379 C 490.672 345.417 480.728 354.874 470.361 356.026 C 463.208 356.821 458.676 352.074 445.052 352.074 C 424.448 352.074 407.748 368.775 407.748 389.378 C 407.748 409.982 424.448 426.683 445.052 426.683 C 453.708 426.683 462.285 427.998 473.939 430.383 C 482.479 424.511 491.776 418.746 501.671 413.922 C 530.94 399.657 552.704 395.818 567.598 395.818 C 570.153 395.818 572.502 395.931 574.653 396.122 C 578.592 396.426 581.725 396.997 584.584 398.138 C 586.508 398.941 588.521 400.391 590.042 402.618 C 591.452 404.665 592.312 407.293 592.454 410.126 C 604.801 392.865 609.424 370.673 609.424 370.673 C 609.424 370.673 603.689 373.533 589.217 377.769 C 588.998 377.827 588.77 377.853 588.533 377.853 C 587.088 377.853 585.916 376.679 585.916 375.234 C 585.916 374.15 586.577 373.223 587.516 372.827 M 444.872 372.429 C 443.188 373.307 441.477 374.135 439.712 374.89 C 440.784 375.327 441.64 376.281 441.893 377.498 C 442.301 379.449 441.052 381.359 439.103 381.766 C 437.156 382.171 435.245 380.923 434.837 378.973 C 434.668 378.163 434.784 377.361 435.117 376.667 C 433.332 377.301 431.509 377.87 429.655 378.375 C 429.663 378.919 429.716 379.463 429.832 380.018 C 430.823 384.729 435.433 387.746 440.152 386.771 C 444.865 385.775 447.88 381.166 446.907 376.451 C 446.579 374.898 445.859 373.53 444.872 372.429"
     style="fill:#000000;fill-opacity:1;fill-rule:nonzero;stroke:none"
     id="path13016" />
  <path
     d="M 604.099 403.933 C 606.85 405.302 609.562 406.75 612.231 408.288 C 620.068 412.816 627.92 418.149 635.39 424.228 C 635.41 424.176 635.368 424.277 635.39 424.228 C 644.252 397.496 650.815 370.358 655.263 343.892 C 643.383 351.268 629.738 359.333 617.204 365.993 L 615.907 372.225 L 615.9 372.249 C 615.892 372.285 615.882 372.329 615.871 372.38 C 615.827 372.565 615.766 372.84 615.686 373.186 C 615.52 373.882 615.276 374.88 614.947 376.125 C 614.288 378.608 613.279 382.085 611.863 386.128 C 610.018 391.39 607.486 397.626 604.095 403.933"
     style="fill:#000000;fill-opacity:1;fill-rule:nonzero;stroke:none"
     id="path13020" />
</svg>
