<?xml version="1.0" encoding="UTF-8" standalone="no"?>
<!-- Created with Inkscape (http://www.inkscape.org/) -->

<svg
   version="1.1"
   id="svg55894"
   width="793.70135"
   height="793.70135"
   viewBox="0 0 793.70135 793.70135"
   sodipodi:docname="yamauchi-kazutoyo.svg"
   inkscape:version="1.2 (dc2aeda, 2022-05-15)"
   xmlns:inkscape="http://www.inkscape.org/namespaces/inkscape"
   xmlns:sodipodi="http://sodipodi.sourceforge.net/DTD/sodipodi-0.dtd"
   xmlns="http://www.w3.org/2000/svg"
   xmlns:svg="http://www.w3.org/2000/svg">
  <defs
     id="defs55898">
    <clipPath
       clipPathUnits="userSpaceOnUse"
       id="clipPath56476">
      <path
         d="M -553.8975,585.8483 H 41.378497 V -9.4277 H -553.8975 Z"
         id="path56478"
         style="stroke-width:0.999998" />
    </clipPath>
    <clipPath
       clipPathUnits="userSpaceOnUse"
       id="clipPath56482">
      <path
         d="M -564.5732,585.8483 H 30.702797 V -9.4277 H -564.5732 Z"
         id="path56484"
         style="stroke-width:0.999998" />
    </clipPath>
    <clipPath
       clipPathUnits="userSpaceOnUse"
       id="clipPath56488">
      <path
         d="M -557.0645,585.8483 H 38.211497 V -9.4277 H -557.0645 Z"
         id="path56490"
         style="stroke-width:0.999998" />
    </clipPath>
    <clipPath
       clipPathUnits="userSpaceOnUse"
       id="clipPath56494">
      <path
         d="M -561.4131,585.8522 H 33.862897 V -9.4238 H -561.4131 Z"
         id="path56496"
         style="stroke-width:0.999998" />
    </clipPath>
    <clipPath
       clipPathUnits="userSpaceOnUse"
       id="clipPath56501">
      <path
         d="M -545.417,584.5729 H 49.858997 V -10.7031 H -545.417 Z"
         id="path56503"
         style="stroke-width:0.999998" />
    </clipPath>
    <clipPath
       clipPathUnits="userSpaceOnUse"
       id="clipPath56507">
      <path
         d="M -536.6982,584.5729 H 58.577797 V -10.7031 H -536.6982 Z"
         id="path56509"
         style="stroke-width:0.999998" />
    </clipPath>
    <clipPath
       clipPathUnits="userSpaceOnUse"
       id="clipPath56513">
      <path
         d="M -540.8213,585.8483 H 54.454697 V -9.4277 H -540.8213 Z"
         id="path56515"
         style="stroke-width:0.999998" />
    </clipPath>
    <clipPath
       clipPathUnits="userSpaceOnUse"
       id="clipPath56519">
      <path
         d="M -542.9326,584.5729 H 52.343397 V -10.7031 H -542.9326 Z"
         id="path56521"
         style="stroke-width:0.999998" />
    </clipPath>
    <clipPath
       clipPathUnits="userSpaceOnUse"
       id="clipPath56525">
      <path
         d="M -531.1924,581.5885 H 64.083597 V -13.6875 H -531.1924 Z"
         id="path56527"
         style="stroke-width:0.999998" />
    </clipPath>
    <clipPath
       clipPathUnits="userSpaceOnUse"
       id="clipPath56531">
      <path
         d="M -548.9834,585.8522 H 46.292597 V -9.4238 H -548.9834 Z"
         id="path56533"
         style="stroke-width:0.999998" />
    </clipPath>
    <clipPath
       clipPathUnits="userSpaceOnUse"
       id="clipPath56537">
      <path
         d="M -567.7754,585.8522 H 27.500597 V -9.4238 H -567.7754 Z"
         id="path56539"
         style="stroke-width:0.999998" />
    </clipPath>
    <clipPath
       clipPathUnits="userSpaceOnUse"
       id="clipPath56543">
      <path
         d="M -528.0898,575.3815 H 67.186197 V -19.8945 H -528.0898 Z"
         id="path56545"
         style="stroke-width:0.999998" />
    </clipPath>
    <clipPath
       clipPathUnits="userSpaceOnUse"
       id="clipPath56549">
      <path
         d="M -572.8174,586.1354 H 22.458597 V -9.1406 H -572.8174 Z"
         id="path56551"
         style="stroke-width:0.999998" />
    </clipPath>
    <clipPath
       clipPathUnits="userSpaceOnUse"
       id="clipPath56555">
      <path
         d="M -574.5459,585.8522 H 20.730097 V -9.4238 H -574.5459 Z"
         id="path56557"
         style="stroke-width:0.999998" />
    </clipPath>
    <clipPath
       clipPathUnits="userSpaceOnUse"
       id="clipPath56561">
      <path
         d="M -576.3691,585.5885 H 18.906897 V -9.6875 H -576.3691 Z"
         id="path56563"
         style="stroke-width:0.999998" />
    </clipPath>
    <clipPath
       clipPathUnits="userSpaceOnUse"
       id="clipPath56567">
      <path
         d="M -557.4951,577.8502 H 37.780897 V -17.4258 H -557.4951 Z"
         id="path56569"
         style="stroke-width:0.999998" />
    </clipPath>
    <clipPath
       clipPathUnits="userSpaceOnUse"
       id="clipPath56573">
      <path
         d="M -568.2266,575.819 H 27.049397 V -19.457 H -568.2266 Z"
         id="path56575"
         style="stroke-width:0.999998" />
    </clipPath>
    <clipPath
       clipPathUnits="userSpaceOnUse"
       id="clipPath56579">
      <path
         d="M -550.2637,577.3248 H 45.012297 V -17.9512 H -550.2637 Z"
         id="path56581"
         style="stroke-width:0.999998" />
    </clipPath>
    <clipPath
       clipPathUnits="userSpaceOnUse"
       id="clipPath56586">
      <path
         d="M -556.4014,578.0143 H 38.874597 V -17.2617 H -556.4014 Z"
         id="path56588"
         style="stroke-width:0.999998" />
    </clipPath>
    <clipPath
       clipPathUnits="userSpaceOnUse"
       id="clipPath56592">
      <path
         d="M -586.5449,579.5026 H 8.7310974 V -15.7734 H -586.5449 Z"
         id="path56594"
         style="stroke-width:0.999998" />
    </clipPath>
    <clipPath
       clipPathUnits="userSpaceOnUse"
       id="clipPath56598">
      <path
         d="M -584.1943,578.9381 H 11.081697 V -16.3379 H -584.1943 Z"
         id="path56600"
         style="stroke-width:0.999998" />
    </clipPath>
    <clipPath
       clipPathUnits="userSpaceOnUse"
       id="clipPath56604">
      <path
         d="M -538.2217,577.9479 H 57.054297 V -17.3281 H -538.2217 Z"
         id="path56606"
         style="stroke-width:0.999998" />
    </clipPath>
    <clipPath
       clipPathUnits="userSpaceOnUse"
       id="clipPath56611">
      <path
         d="m -459.4521,459.4537 h 595.276 v -595.276 h -595.276 z"
         id="path56613"
         style="stroke-width:0.999998" />
    </clipPath>
    <clipPath
       clipPathUnits="userSpaceOnUse"
       id="clipPath56617">
      <path
         d="m -279.5986,297.6398 h 595.276 v -595.276 h -595.276 z"
         id="path56619"
         style="stroke-width:0.999998" />
    </clipPath>
    <clipPath
       clipPathUnits="userSpaceOnUse"
       id="clipPath56623">
      <path
         d="m -298.1729,74.797 h 595.276 v -595.276 h -595.276 z"
         id="path56625"
         style="stroke-width:0.999998" />
    </clipPath>
    <clipPath
       clipPathUnits="userSpaceOnUse"
       id="clipPath56629">
      <path
         d="m -104.3823,408.5944 h 595.276 v -595.276 h -595.276 z"
         id="path56631"
         style="stroke-width:0.999998" />
    </clipPath>
    <clipPath
       clipPathUnits="userSpaceOnUse"
       id="clipPath56635">
      <path
         d="m -490.3545,409.5231 h 595.276 v -595.276 h -595.276 z"
         id="path56637"
         style="stroke-width:0.999998" />
    </clipPath>
  </defs>
  <sodipodi:namedview
     id="namedview55896"
     pagecolor="#ffffff"
     bordercolor="#000000"
     borderopacity="0.25"
     inkscape:showpageshadow="2"
     inkscape:pageopacity="0.0"
     inkscape:pagecheckerboard="0"
     inkscape:deskcolor="#d1d1d1"
     showgrid="false"
     inkscape:zoom="0.29734106"
     inkscape:cx="-215.24105"
     inkscape:cy="396.85068"
     inkscape:window-width="1419"
     inkscape:window-height="456"
     inkscape:window-x="0"
     inkscape:window-y="25"
     inkscape:window-maximized="0"
     inkscape:current-layer="svg55894">
    <inkscape:page
       x="0"
       y="0"
       id="page55900"
       width="793.70135"
       height="793.70135" />
  </sodipodi:namedview>
  <path
     d="m 549.819,133.427 0.003,-0.001 z"
     style="fill:#000000;fill-opacity:1;fill-rule:nonzero;stroke:none"
     id="path56014" />
  <path
     d="M 612.601,612.605 C 557.195,667.912 481.295,701.944 396.848,701.972 312.401,701.944 236.499,667.912 181.093,612.605 125.785,557.199 91.7531,481.299 91.7264,396.851 91.7531,312.405 125.785,236.504 181.093,181.097 236.499,125.788 312.401,91.7588 396.848,91.7308 c 84.447,0.028 160.347,34.0572 215.753,89.3662 55.309,55.407 89.336,131.308 89.367,215.754 -0.031,84.448 -34.058,160.348 -89.367,215.754 M 396.85,31.7309 c -201.652,0 -365.1221,163.4711 -365.1221,365.1231 0,201.65 163.4701,365.12 365.1221,365.12 201.651,0 365.12,-163.47 365.12,-365.12 0,-201.652 -163.469,-365.1231 -365.12,-365.1231"
     style="fill:#000000;fill-opacity:1;fill-rule:nonzero;stroke:none"
     id="path56018" />
  <path
     d="m 372.798,396.854 c 0,-13.284 10.768,-24.052 24.052,-24.055 13.282,0.003 24.049,10.771 24.049,24.055 0,13.28 -10.767,24.051 -24.049,24.051 -13.284,0 -24.052,-10.771 -24.052,-24.051"
     style="fill:#000000;fill-opacity:1;fill-rule:nonzero;stroke:none"
     id="path56022" />
  <path
     d="m 397.563,99.7307 c 11.016,0 26.243,16.5453 26.243,35.7053 0,1.673 -0.082,3.321 -0.255,4.929 17.936,7.588 30.531,25.352 30.531,46.054 0,10.349 -3.132,19.941 -8.522,27.917 9.795,8.64 15.987,21.26 15.987,35.345 0,15.025 -7.028,28.408 -17.976,37.043 0.112,6.72 0.192,14.197 0.192,21.924 0,25.987 -11.896,49.189 -30.553,64.461 -3.784,-2.386 -8.2,-3.896 -12.918,-4.236 -0.261,-0.01 -0.504,-0.018 -0.728,-0.024 v -30.743 l 0.13,-0.176 c 2.933,-3.095 19.182,-19.261 29.908,-61.436 2.134,-8.244 3.82,-18.077 5.13,-27.92 1.311,-9.833 2.254,-19.678 2.914,-27.966 0.309,-3.848 0.444,-7.623 0.444,-11.004 0,-3.794 -0.174,-7.096 -0.459,-9.42 -0.145,-1.159 -0.317,-2.079 -0.499,-2.662 -0.022,-0.073 -0.045,-0.142 -0.068,-0.204 -0.673,1.812 -0.892,8.307 -2.073,17.868 -1.48,11.863 -3.247,25.53 -4.227,32.87 -1.296,9.738 -2.952,19.416 -5.037,27.434 -8.691,33.511 -21.433,50.768 -26.159,56.289 0,-7.187 -0.004,-46.31 -0.004,-46.31 l 0.102,-0.161 c 3.141,-5.108 16.157,-23.722 21.706,-58.332 2.36,-14.739 3.292,-30.244 3.644,-42.22 0.027,-0.887 0.042,-1.785 0.039,-2.692 0.003,-5.624 -0.468,-11.539 -1.055,-16.027 -0.293,-2.246 -0.617,-4.137 -0.917,-5.444 -0.016,-0.066 -0.032,-0.133 -0.047,-0.197 -0.181,1.736 -0.345,4.676 -0.469,8.045 -0.209,5.1 -0.436,11.398 -0.905,17.052 -1.002,11.989 -1.956,26.605 -4.239,40.849 -3.856,24.148 -13.796,44.438 -17.859,51.438 v -48.558 l 0.122,-0.173 c 2.181,-3.124 12.274,-20.061 12.274,-65.568 h 0.002 l -0.004,-0.038 0.002,-0.051 c 0.003,-0.031 0.003,-0.069 0.003,-0.128 0,-1.261 0.003,-2.339 0.003,-3.331 -0.003,-3.488 -0.04,-5.968 -0.379,-12.064 -0.336,-6.056 -1.145,-10.553 -1.968,-13.509 -0.411,-1.476 -0.828,-2.573 -1.177,-3.265 -0.024,-0.048 -0.048,-0.095 -0.072,-0.14 -0.019,0.289 -0.031,0.644 -0.026,1.05 0,2.647 0.303,7.763 0.307,15.654 -0.004,1.745 0.003,3.402 0.003,5.037 0.002,7.937 -0.104,15.296 -1.344,29.611 -2.406,25.695 -5.279,32.067 -7.746,39.029 v -4.03 c 0.004,0 0,-32.481 0,-54.979 0,-14.574 -0.376,-25.755 -0.898,-33.279 -0.256,-3.761 -0.555,-6.612 -0.852,-8.497 -0.086,-0.526 -0.416,-0.526 -0.502,0 -0.297,1.885 -0.596,4.736 -0.852,8.497 -0.522,7.524 -0.898,18.705 -0.898,33.279 0,22.498 -0.004,54.979 0,54.979 v 4.03 c -2.467,-6.962 -5.34,-13.334 -7.746,-39.029 -1.24,-14.315 -1.346,-21.674 -1.344,-29.611 0,-1.635 0.007,-3.292 0.003,-5.037 0.004,-7.891 0.307,-13.007 0.307,-15.654 0.005,-0.406 -0.007,-0.761 -0.026,-1.05 -0.024,0.045 -0.048,0.092 -0.072,0.14 -0.349,0.692 -0.766,1.789 -1.177,3.265 -0.823,2.956 -1.632,7.453 -1.968,13.509 -0.339,6.096 -0.376,8.576 -0.379,12.064 0,0.992 0.003,2.07 0.003,3.331 0,0.059 0,0.097 0.003,0.128 l 0.002,0.051 -0.004,0.038 h 0.002 c 0,45.507 10.093,62.444 12.274,65.568 l 0.122,0.173 v 48.558 c -4.063,-7 -14.003,-27.29 -17.859,-51.438 -2.283,-14.244 -3.237,-28.86 -4.239,-40.849 -0.469,-5.654 -0.696,-11.952 -0.905,-17.052 -0.124,-3.369 -0.288,-6.309 -0.469,-8.045 -0.015,0.064 -0.031,0.131 -0.047,0.197 -0.3,1.307 -0.624,3.198 -0.917,5.444 -0.587,4.488 -1.058,10.403 -1.055,16.027 -0.003,0.907 0.012,1.805 0.039,2.692 0.352,11.976 1.284,27.481 3.644,42.22 5.549,34.61 18.565,53.224 21.706,58.332 l 0.102,0.161 c 0,0 -0.004,39.123 -0.004,46.31 -4.726,-5.521 -17.468,-22.778 -26.159,-56.289 -2.085,-8.018 -3.741,-17.696 -5.037,-27.434 -0.98,-7.34 -2.747,-21.007 -4.227,-32.87 -1.181,-9.561 -1.4,-16.056 -2.073,-17.868 -0.023,0.062 -0.046,0.131 -0.068,0.204 -0.182,0.583 -0.354,1.503 -0.499,2.662 -0.285,2.324 -0.459,5.626 -0.459,9.42 0,3.381 0.135,7.156 0.444,11.004 0.66,8.288 1.603,18.133 2.914,27.966 1.31,9.843 2.996,19.676 5.13,27.92 10.726,42.175 26.975,58.341 29.908,61.436 l 0.13,0.176 v 30.744 c -0.224,0.005 -0.467,0.013 -0.728,0.023 -4.718,0.34 -9.134,1.85 -12.918,4.236 -18.657,-15.272 -30.553,-38.474 -30.553,-64.461 0,-7.727 0.08,-15.204 0.192,-21.924 -10.948,-8.635 -17.976,-22.018 -17.976,-37.043 0,-14.085 6.192,-26.705 15.987,-35.345 -5.39,-7.976 -8.522,-17.568 -8.522,-27.917 0,-20.702 12.595,-38.466 30.531,-46.054 -0.173,-1.608 -0.255,-3.256 -0.255,-4.929 0,-19.16 15.227,-35.7053 26.243,-35.7053"
     style="fill:#000000;fill-opacity:1;fill-rule:nonzero;stroke:none"
     id="path56026" />
  <path
     d="m 139.176,544.792 c -5.508,-9.538 1.206,-30.998 17.801,-40.58 1.448,-0.836 2.916,-1.589 4.395,-2.242 -2.396,-19.327 6.69,-39.116 24.618,-49.467 8.963,-5.176 18.835,-7.258 28.437,-6.58 2.586,-12.802 10.419,-24.474 22.618,-31.517 13.012,-7.513 28.116,-8.117 41.068,-2.953 5.764,-3.458 12.198,-7.266 18.889,-11.13 22.507,-12.993 48.548,-14.29 71.102,-5.77 -0.174,4.47 0.727,9.049 2.791,13.305 0.123,0.232 0.237,0.445 0.343,0.641 l -26.624,15.374 -0.216,-0.024 c -4.148,-0.994 -26.273,-6.983 -68.16,4.816 -8.207,2.273 -17.565,5.73 -26.745,9.517 -9.171,3.781 -18.168,7.887 -25.676,11.461 -3.487,1.655 -6.823,3.426 -9.751,5.118 -3.285,1.894 -6.06,3.697 -7.929,5.106 -0.931,0.704 -1.642,1.315 -2.056,1.763 -0.052,0.056 -0.1,0.109 -0.143,0.16 1.907,-0.323 7.64,-3.381 16.512,-7.139 11.012,-4.649 23.731,-9.952 30.577,-12.774 9.084,-3.747 18.292,-7.151 26.279,-9.355 33.365,-9.229 54.684,-6.821 61.828,-5.489 -6.225,3.593 -40.105,23.158 -40.105,23.158 l -0.191,-0.008 c -5.995,-0.165 -28.621,-2.132 -61.369,10.367 -13.944,5.325 -27.839,12.27 -38.385,17.954 -0.782,0.422 -1.568,0.858 -2.352,1.314 -4.871,2.809 -9.758,6.174 -13.352,8.926 -1.799,1.376 -3.275,2.603 -4.255,3.518 -0.051,0.046 -0.1,0.093 -0.149,0.137 1.594,-0.709 4.224,-2.039 7.202,-3.616 4.523,-2.368 10.088,-5.32 15.22,-7.741 10.885,-5.128 24.019,-11.611 37.497,-16.755 22.84,-8.734 45.382,-10.27 53.475,-10.252 l -42.052,24.279 -0.211,-0.019 c -3.796,-0.325 -23.51,-0.599 -62.921,22.153 v 0 l -0.032,0.023 -0.045,0.023 c -0.027,0.013 -0.061,0.033 -0.112,0.061 -1.092,0.631 -2.025,1.167 -2.885,1.663 -3.019,1.746 -5.15,3.018 -10.258,6.361 -5.077,3.319 -8.568,6.267 -10.717,8.459 -1.072,1.093 -1.813,2.004 -2.239,2.652 -0.029,0.045 -0.057,0.088 -0.085,0.13 0.26,-0.126 0.573,-0.293 0.921,-0.501 2.295,-1.324 6.574,-4.145 13.404,-8.093 1.514,-0.87 2.946,-1.704 4.362,-2.52 6.872,-3.972 13.298,-7.559 26.315,-13.642 23.455,-10.765 30.412,-11.464 37.672,-12.806 l -3.488,2.013 c -0.002,-0.004 -28.129,16.241 -47.614,27.491 -12.621,7.286 -22.116,13.202 -28.372,17.417 -3.128,2.103 -5.448,3.787 -6.932,4.987 -0.412,0.336 -0.247,0.622 0.251,0.433 1.781,-0.684 4.4,-1.852 7.785,-3.509 6.777,-3.311 16.648,-8.575 29.269,-15.862 19.484,-11.249 47.616,-27.486 47.615,-27.49 l 3.488,-2.015 c -4.795,5.616 -8.876,11.292 -29.927,26.221 -11.776,8.232 -18.097,12.004 -24.972,15.971 -1.414,0.817 -2.853,1.64 -4.364,2.516 -6.834,3.943 -11.416,6.237 -13.71,7.561 -0.354,0.199 -0.655,0.386 -0.896,0.548 0.052,-0.002 0.104,-0.005 0.158,-0.008 0.774,-0.045 1.932,-0.23 3.415,-0.613 2.972,-0.765 7.271,-2.315 12.684,-5.051 5.449,-2.754 7.615,-3.962 10.636,-5.704 0.86,-0.497 1.792,-1.037 2.884,-1.668 0.05,-0.029 0.084,-0.049 0.109,-0.065 l 0.043,-0.028 0.036,-0.016 -0.002,-0.001 c 39.411,-22.754 49.031,-39.963 50.647,-43.414 l 0.089,-0.192 42.052,-24.279 c -4.03,7.018 -16.632,25.771 -35.616,41.185 -11.194,9.1 -23.374,17.234 -33.258,24.096 -4.663,3.233 -10.003,6.578 -14.315,9.31 -2.855,1.791 -5.32,3.403 -6.732,4.43 0.063,-0.022 0.128,-0.039 0.195,-0.06 1.281,-0.392 3.081,-1.058 5.172,-1.927 4.18,-1.736 9.538,-4.285 14.408,-7.1 0.785,-0.451 1.557,-0.913 2.312,-1.38 10.194,-6.292 23.157,-14.852 34.741,-24.265 27.199,-22.111 36.809,-42.691 39.663,-47.965 l 0.089,-0.168 c 0,0 33.884,-19.559 40.109,-23.152 -2.419,6.853 -10.993,26.518 -35.669,50.799 -5.903,5.814 -13.455,12.087 -21.24,18.079 -5.868,4.519 -16.82,12.881 -26.352,20.096 -7.691,5.803 -13.205,9.239 -14.439,10.729 0.066,-0.012 0.136,-0.026 0.211,-0.044 0.595,-0.133 1.479,-0.445 2.553,-0.898 2.156,-0.915 5.103,-2.416 8.39,-4.314 2.928,-1.69 6.129,-3.693 9.305,-5.886 6.849,-4.715 14.904,-10.454 22.764,-16.506 7.869,-6.057 15.543,-12.433 21.615,-18.404 31.161,-30.374 37.037,-52.53 38.25,-56.618 l 0.088,-0.2 26.625,-15.372 c 0.118,0.191 0.244,0.397 0.383,0.62 2.655,3.915 6.171,6.984 10.128,9.068 -3.897,23.793 -18.043,45.697 -40.548,58.692 -6.692,3.862 -13.206,7.53 -19.082,10.794 -2.004,13.798 -10.08,26.576 -23.092,34.09 -12.199,7.042 -26.224,7.989 -38.603,3.826 -4.215,8.656 -10.955,16.164 -19.917,21.339 -17.928,10.351 -39.61,8.327 -55.149,-3.412 -1.306,0.952 -2.692,1.847 -4.142,2.683 -16.593,9.581 -38.534,4.666 -44.042,-4.874"
     style="fill:#000000;fill-opacity:1;fill-rule:nonzero;stroke:none"
     id="path56030" />
  <path
     d="m 653.804,546.031 c -5.507,9.54 -27.45,14.455 -44.043,4.873 -1.448,-0.836 -2.835,-1.729 -4.141,-2.682 -15.539,11.737 -37.221,13.762 -55.148,3.412 -8.964,-5.175 -15.704,-12.683 -19.919,-21.339 -12.378,4.163 -26.402,3.215 -38.602,-3.828 -13.011,-7.512 -21.087,-20.291 -23.091,-34.088 -5.876,-3.264 -12.392,-6.932 -19.084,-10.795 -22.505,-12.994 -36.65,-34.898 -40.548,-58.691 3.959,-2.084 7.475,-5.154 10.127,-9.068 0.14,-0.223 0.267,-0.43 0.384,-0.619 l 26.625,15.371 0.088,0.2 c 1.214,4.088 7.09,26.244 38.252,56.618 6.072,5.971 13.744,12.347 21.615,18.404 7.858,6.052 15.913,11.791 22.762,16.505 3.176,2.194 6.378,4.196 9.307,5.887 3.284,1.897 6.232,3.399 8.388,4.313 1.075,0.454 1.959,0.764 2.555,0.899 0.074,0.017 0.144,0.032 0.209,0.044 -1.232,-1.491 -6.748,-4.927 -14.437,-10.729 -9.534,-7.215 -20.486,-15.578 -26.352,-20.096 -7.787,-5.992 -15.339,-12.266 -21.242,-18.079 -24.675,-24.281 -33.249,-43.946 -35.667,-50.8 6.224,3.594 40.107,23.152 40.107,23.152 l 0.09,0.17 c 2.853,5.273 12.464,25.853 39.662,47.963 11.584,9.414 24.547,17.974 34.742,24.266 0.756,0.466 1.526,0.929 2.313,1.38 4.868,2.814 10.228,5.362 14.408,7.1 2.091,0.869 3.889,1.534 5.172,1.926 0.065,0.022 0.131,0.039 0.195,0.06 -1.414,-1.026 -3.878,-2.638 -6.734,-4.429 -4.312,-2.732 -9.652,-6.077 -14.314,-9.311 -9.883,-6.861 -22.064,-14.996 -33.259,-24.096 -18.984,-15.414 -31.585,-34.166 -35.615,-41.185 l 42.052,24.28 0.088,0.192 c 1.618,3.451 11.238,20.66 50.646,43.413 h 0.001 l 0.036,0.018 0.043,0.028 c 0.024,0.016 0.058,0.036 0.108,0.065 1.092,0.631 2.024,1.171 2.882,1.668 3.023,1.741 5.19,2.949 10.639,5.704 5.412,2.736 9.71,4.285 12.682,5.051 1.484,0.382 2.643,0.568 3.416,0.613 0.055,0.003 0.107,0.007 0.158,0.008 -0.242,-0.163 -0.542,-0.349 -0.898,-0.548 -2.292,-1.324 -6.874,-3.619 -13.709,-7.561 -1.511,-0.876 -2.949,-1.699 -4.364,-2.516 -6.874,-3.966 -13.194,-7.739 -24.97,-15.971 -21.051,-14.929 -25.135,-20.605 -29.928,-26.221 l 3.489,2.014 c -0.003,0.004 28.129,16.242 47.615,27.491 12.621,7.287 22.49,12.551 29.269,15.861 3.385,1.658 6.002,2.826 7.785,3.51 0.497,0.189 0.663,-0.098 0.249,-0.434 -1.484,-1.2 -3.804,-2.884 -6.932,-4.986 -6.254,-4.215 -15.749,-10.131 -28.37,-17.418 -19.485,-11.25 -47.612,-27.494 -47.615,-27.49 l -3.489,-2.014 c 7.261,1.343 14.217,2.042 37.673,12.807 13.016,6.083 19.443,9.669 26.315,13.641 1.416,0.816 2.848,1.651 4.361,2.52 6.831,3.948 11.109,6.768 13.404,8.094 0.348,0.208 0.661,0.374 0.921,0.501 -0.028,-0.043 -0.056,-0.085 -0.085,-0.132 -0.424,-0.647 -1.165,-1.557 -2.239,-2.651 -2.149,-2.19 -5.638,-5.14 -10.716,-8.46 -5.109,-3.341 -7.24,-4.613 -10.257,-6.36 -0.861,-0.496 -1.795,-1.03 -2.887,-1.662 -0.05,-0.028 -0.085,-0.048 -0.112,-0.062 l -0.044,-0.022 -0.032,-0.024 -0.001,0.001 c -39.409,-22.752 -59.125,-22.479 -62.92,-22.153 l -0.21,0.018 -42.054,-24.278 c 8.094,-0.019 30.635,1.517 53.476,10.252 13.478,5.144 26.612,11.626 37.496,16.754 5.132,2.422 10.697,5.374 15.22,7.742 2.979,1.577 5.608,2.905 7.203,3.616 -0.051,-0.044 -0.098,-0.091 -0.15,-0.138 -0.978,-0.914 -2.456,-2.141 -4.254,-3.517 -3.594,-2.753 -8.482,-6.117 -13.352,-8.927 -0.784,-0.456 -1.571,-0.892 -2.352,-1.313 -10.547,-5.684 -24.441,-12.629 -38.385,-17.955 -32.747,-12.499 -55.375,-10.531 -61.37,-10.366 l -0.19,0.008 c 0,0 -33.88,-19.567 -40.105,-23.16 7.145,-1.331 28.462,-3.739 61.829,5.491 7.986,2.204 17.194,5.608 26.277,9.354 6.847,2.823 19.565,8.126 30.579,12.775 8.87,3.757 14.604,6.816 16.51,7.138 -0.042,-0.049 -0.09,-0.104 -0.142,-0.16 -0.414,-0.449 -1.124,-1.058 -2.055,-1.762 -1.871,-1.409 -4.644,-3.212 -7.931,-5.108 -2.928,-1.691 -6.262,-3.461 -9.75,-5.116 -7.507,-3.575 -16.504,-7.681 -25.676,-11.461 -9.18,-3.787 -18.54,-7.244 -26.746,-9.518 -41.886,-11.798 -64.011,-5.809 -68.158,-4.816 l -0.217,0.024 -26.626,-15.373 c 0.107,-0.196 0.222,-0.409 0.346,-0.641 2.064,-4.256 2.964,-8.835 2.79,-13.306 22.554,-8.52 48.595,-7.222 71.103,5.771 6.689,3.864 13.125,7.671 18.889,11.128 12.952,-5.163 28.056,-4.559 41.068,2.953 12.199,7.043 20.031,18.716 22.616,31.519 9.604,-0.679 19.476,1.404 28.438,6.58 17.927,10.35 27.015,30.138 24.619,49.466 1.477,0.654 2.945,1.407 4.393,2.244 16.595,9.58 23.31,31.04 17.802,40.579"
     style="fill:#000000;fill-opacity:1;fill-rule:nonzero;stroke:none"
     id="path56034" />
</svg>
