<?xml version="1.0" encoding="UTF-8" standalone="no"?>
<!-- Created with Inkscape (http://www.inkscape.org/) -->

<svg
   version="1.1"
   id="svg29152"
   width="793.70135"
   height="793.70099"
   viewBox="0 0 793.70135 793.70097"
   sodipodi:docname="Atamaawase Mitsusuhama.svg"
   inkscape:version="1.2 (dc2aeda, 2022-05-15)"
   xmlns:inkscape="http://www.inkscape.org/namespaces/inkscape"
   xmlns:sodipodi="http://sodipodi.sourceforge.net/DTD/sodipodi-0.dtd"
   xmlns="http://www.w3.org/2000/svg"
   xmlns:svg="http://www.w3.org/2000/svg">
  <defs
     id="defs29156">
    <clipPath
       clipPathUnits="userSpaceOnUse"
       id="clipPath29335">
      <path
         d="m -436.2734,499.9603 h 595.276 v -841.89 h -595.276 z"
         id="path29337"
         style="stroke-width:0.999998" />
    </clipPath>
    <clipPath
       clipPathUnits="userSpaceOnUse"
       id="clipPath29341">
      <path
         d="m -281.8062,285.0282 h 595.276 v -841.89 h -595.276 z"
         id="path29343"
         style="stroke-width:0.999998" />
    </clipPath>
    <clipPath
       clipPathUnits="userSpaceOnUse"
       id="clipPath29347">
      <path
         d="m -172.8989,526.266 h 595.276 v -841.89 h -595.276 z"
         id="path29349"
         style="stroke-width:0.999998" />
    </clipPath>
  </defs>
  <sodipodi:namedview
     id="namedview29154"
     pagecolor="#ffffff"
     bordercolor="#000000"
     borderopacity="0.25"
     inkscape:showpageshadow="2"
     inkscape:pageopacity="0.0"
     inkscape:pagecheckerboard="0"
     inkscape:deskcolor="#d1d1d1"
     showgrid="false"
     inkscape:zoom="0.21024124"
     inkscape:cx="-470.88764"
     inkscape:cy="561.26002"
     inkscape:window-width="1419"
     inkscape:window-height="456"
     inkscape:window-x="0"
     inkscape:window-y="25"
     inkscape:window-maximized="0"
     inkscape:current-layer="svg29152">
    <inkscape:page
       x="0"
       y="0"
       id="page29158"
       width="793.70135"
       height="793.70099" />
  </sodipodi:namedview>
  <path
     d="m 375.742,214.038 c 6.991,2.517 13.544,5.96 19.531,10.145 6.05,-4.238 12.709,-7.66 19.793,-10.182 -9.969,-14.571 -15.773,-32.172 -15.773,-51.163 0,-50.162 40.681,-90.86 90.853,-90.86 50.174,0 90.862,40.698 90.862,90.86 0,37.191 -22.36,69.181 -54.354,83.233 0.477,4.576 0.726,9.22 0.726,13.919 0,72.558 -58.828,131.381 -131.395,131.381 -72.555,0 -131.381,-58.823 -131.381,-131.381 0,-4.377 0.238,-8.701 0.652,-12.968 -32.723,-13.725 -55.712,-46.084 -55.712,-83.816 0,-50.162 40.685,-90.849 90.865,-90.849 50.18,0 90.85,40.687 90.85,90.849 0,18.815 -5.72,36.32 -15.517,50.832"
     style="fill:#231f20;fill-opacity:1;fill-rule:nonzero;stroke:none"
     id="path29172" />
  <path
     d="m 230.532,535.688 c -1.319,-7.312 -1.608,-14.715 -0.977,-21.984 -6.703,-3.133 -12.99,-7.184 -18.714,-12.059 -7.633,15.928 -19.98,29.75 -36.426,39.248 -43.439,25.086 -99.0266,10.204 -124.1119,-33.245 -25.0786,-43.456 -10.188,-99.04 33.2573,-124.124 32.2096,-18.594 71.0996,-15.228 99.2626,5.459 3.725,-2.7 7.612,-5.239 11.684,-7.597 62.841,-36.276 143.199,-14.746 179.482,48.101 36.271,62.837 14.745,143.193 -48.091,179.47 -3.794,2.187 -7.66,4.148 -11.561,5.923 4.48,35.202 -12.048,71.281 -44.726,90.149 -43.444,25.079 -99.028,10.193 -124.112,-33.261 -25.091,-43.451 -10.188,-99.017 33.25,-124.103 16.298,-9.412 34.32,-13.206 51.783,-11.977"
     style="fill:#231f20;fill-opacity:1;fill-rule:nonzero;stroke:none"
     id="path29176" />
  <path
     d="m 581.698,500.614 c -5.683,4.805 -11.929,8.76 -18.547,11.844 0.63,7.371 0.266,14.839 -1.081,22.236 17.597,-1.352 35.748,2.421 52.196,11.913 43.432,25.085 58.336,80.668 33.249,124.112 -25.077,43.45 -80.666,58.341 -124.112,33.257 -32.207,-18.596 -48.735,-53.946 -44.907,-88.69 -4.191,-1.866 -8.344,-3.978 -12.412,-6.323 -62.847,-36.283 -84.372,-116.634 -48.083,-179.471 36.28,-62.847 116.626,-84.372 179.465,-48.094 3.784,2.187 7.417,4.554 10.909,7.05 28.247,-21.487 67.757,-25.207 100.437,-6.346 43.435,25.086 58.336,80.657 33.247,124.113 -25.085,43.455 -80.656,58.342 -124.101,33.258 -16.301,-9.408 -28.596,-23.118 -36.26,-38.859"
     style="fill:#231f20;fill-opacity:1;fill-rule:nonzero;stroke:none"
     id="path29180" />
</svg>
