<?xml version="1.0" encoding="UTF-8" standalone="no"?>
<!-- Created with Inkscape (http://www.inkscape.org/) -->

<svg
   version="1.1"
   id="svg27650"
   width="793.70135"
   height="793.70099"
   viewBox="0 0 793.70135 793.70097"
   sodipodi:docname="Kagesuhamani Mokkou.svg"
   inkscape:version="1.2 (dc2aeda, 2022-05-15)"
   xmlns:inkscape="http://www.inkscape.org/namespaces/inkscape"
   xmlns:sodipodi="http://sodipodi.sourceforge.net/DTD/sodipodi-0.dtd"
   xmlns="http://www.w3.org/2000/svg"
   xmlns:svg="http://www.w3.org/2000/svg">
  <defs
     id="defs27654">
    <clipPath
       clipPathUnits="userSpaceOnUse"
       id="clipPath28015">
      <path
         d="m -322.498,461.4359 h 595.276 v -841.89 h -595.276 z"
         id="path28017"
         style="stroke-width:0.999998" />
    </clipPath>
    <clipPath
       clipPathUnits="userSpaceOnUse"
       id="clipPath28021">
      <path
         d="m -407.3828,390.1898 h 595.276 v -841.89 h -595.276 z"
         id="path28023"
         style="stroke-width:0.999998" />
    </clipPath>
    <clipPath
       clipPathUnits="userSpaceOnUse"
       id="clipPath28027">
      <path
         d="m -407.3828,399.0384 h 595.276 v -841.89 h -595.276 z"
         id="path28029"
         style="stroke-width:0.999998" />
    </clipPath>
    <clipPath
       clipPathUnits="userSpaceOnUse"
       id="clipPath28033">
      <path
         d="m -419.1934,461.4359 h 595.276 v -841.89 h -595.276 z"
         id="path28035"
         style="stroke-width:0.999998" />
    </clipPath>
    <clipPath
       clipPathUnits="userSpaceOnUse"
       id="clipPath28039">
      <path
         d="m -313.457,461.4359 h 595.27599 v -841.89 H -313.457 Z"
         id="path28041"
         style="stroke-width:0.999998" />
    </clipPath>
    <clipPath
       clipPathUnits="userSpaceOnUse"
       id="clipPath28045">
      <path
         d="m -464.0234,355.6478 h 595.276 v -841.89 h -595.276 z"
         id="path28047"
         style="stroke-width:0.999998" />
    </clipPath>
    <clipPath
       clipPathUnits="userSpaceOnUse"
       id="clipPath28051">
      <path
         d="m -407.3828,523.8324 h 595.276 v -841.89 h -595.276 z"
         id="path28053"
         style="stroke-width:0.999998" />
    </clipPath>
    <clipPath
       clipPathUnits="userSpaceOnUse"
       id="clipPath28057">
      <path
         d="m -375.418,461.4359 h 595.276 v -841.89 h -595.276 z"
         id="path28059"
         style="stroke-width:0.999998" />
    </clipPath>
    <clipPath
       clipPathUnits="userSpaceOnUse"
       id="clipPath28063">
      <path
         d="m -407.3828,532.682 h 595.276 v -841.89 h -595.276 z"
         id="path28065"
         style="stroke-width:0.999998" />
    </clipPath>
    <clipPath
       clipPathUnits="userSpaceOnUse"
       id="clipPath28069">
      <path
         d="M -541.1855,510.2513 H 54.090496 v -841.89 H -541.1855 Z"
         id="path28071"
         style="stroke-width:0.999998" />
    </clipPath>
    <clipPath
       clipPathUnits="userSpaceOnUse"
       id="clipPath28075">
      <path
         d="m -245.7729,454.308 h 595.276 v -841.89 h -595.276 z"
         id="path28077"
         style="stroke-width:0.999998" />
    </clipPath>
    <clipPath
       clipPathUnits="userSpaceOnUse"
       id="clipPath28081">
      <path
         d="m -407.3828,520.5736 h 595.276 v -841.89 h -595.276 z"
         id="path28083"
         style="stroke-width:0.999998" />
    </clipPath>
    <clipPath
       clipPathUnits="userSpaceOnUse"
       id="clipPath28087">
      <path
         d="M -501.3125,461.4359 H 93.963497 v -841.89 H -501.3125 Z"
         id="path28089"
         style="stroke-width:0.999998" />
    </clipPath>
    <clipPath
       clipPathUnits="userSpaceOnUse"
       id="clipPath28093">
      <path
         d="m -407.3828,402.2982 h 595.276 v -841.89 h -595.276 z"
         id="path28095"
         style="stroke-width:0.999998" />
    </clipPath>
    <clipPath
       clipPathUnits="userSpaceOnUse"
       id="clipPath28099">
      <path
         d="m -492.2695,461.4359 h 595.276 v -841.89 h -595.276 z"
         id="path28101"
         style="stroke-width:0.999998" />
    </clipPath>
    <clipPath
       clipPathUnits="userSpaceOnUse"
       id="clipPath28105">
      <path
         d="m -439.3496,461.4359 h 595.276 v -841.89 h -595.276 z"
         id="path28107"
         style="stroke-width:0.999998" />
    </clipPath>
  </defs>
  <sodipodi:namedview
     id="namedview27652"
     pagecolor="#ffffff"
     bordercolor="#000000"
     borderopacity="0.25"
     inkscape:showpageshadow="2"
     inkscape:pageopacity="0.0"
     inkscape:pagecheckerboard="0"
     inkscape:deskcolor="#d1d1d1"
     showgrid="false"
     inkscape:zoom="0.21024124"
     inkscape:cx="-470.88764"
     inkscape:cy="561.26002"
     inkscape:window-width="1419"
     inkscape:window-height="456"
     inkscape:window-x="0"
     inkscape:window-y="25"
     inkscape:window-maximized="0"
     inkscape:current-layer="svg27650">
    <inkscape:page
       x="0"
       y="0"
       id="page27656"
       width="793.70135"
       height="793.70099" />
  </sodipodi:namedview>
  <path
     d="m 558.925,455.248 c 0,8.695 -7.055,15.744 -15.748,15.744 -8.689,0 -15.744,-7.049 -15.744,-15.744 0,-8.696 7.055,-15.744 15.744,-15.744 8.693,0 15.748,7.048 15.748,15.744"
     style="fill:#231f20;fill-opacity:1;fill-rule:nonzero;stroke:none"
     id="path27670" />
  <path
     d="m 543.177,372.051 c 18.317,0.005 35.213,5.981 49.011,15.961 5.156,3.984 6.749,6.447 6.749,6.447 -1.945,1.44 -2.453,2.709 -2.453,4.732 0,3.515 2.794,5.237 5.51,5.237 2.711,0 5.699,-2.572 5.836,-5.292 0.142,-1.557 0.05,-2.814 -0.405,-4.137 -0.459,-1.323 -1.327,-4.175 -8.147,-9.76 -15.468,-12.183 -34.869,-19.701 -56.101,-19.701 -21.229,0 -40.633,7.518 -56.101,19.701 -6.82,5.585 -7.686,8.437 -8.147,9.76 -0.452,1.323 -0.539,2.58 -0.405,4.137 0.14,2.72 3.126,5.292 5.838,5.292 2.714,0 5.51,-1.722 5.51,-5.237 0,-2.023 -0.507,-3.292 -2.452,-4.732 0,0 1.59,-2.463 6.749,-6.447 13.795,-9.98 30.691,-15.956 49.008,-15.961"
     style="fill:#231f20;fill-opacity:1;fill-rule:nonzero;stroke:none"
     id="path27674" />
  <path
     d="m 543.177,360.253 c 25.377,0 48.412,9.968 65.467,26.157 5.574,5.292 5.986,10.279 5.986,10.279 0,0 3.315,-1.341 12.172,-8.06 12.011,-9.159 19.749,-21.647 18.525,-34.469 -1.224,-12.828 -6.21,-21.046 -24.786,-32.603 -18.567,-11.564 -49.173,-20.747 -77.364,-20.747 -28.191,0 -58.795,9.183 -77.364,20.747 -18.573,11.557 -23.56,19.775 -24.784,32.603 -1.224,12.822 6.515,25.31 18.526,34.469 8.857,6.719 12.169,8.06 12.169,8.06 0,0 0.412,-4.987 5.986,-10.279 17.058,-16.189 40.09,-26.157 65.467,-26.157"
     style="fill:#231f20;fill-opacity:1;fill-rule:nonzero;stroke:none"
     id="path27678" />
  <path
     d="m 417.943,455.248 c 0,27.921 19.541,51.277 45.685,57.143 -13.357,11.693 -30.846,18.786 -49.992,18.786 -41.933,0 -75.926,-33.994 -75.926,-75.929 0,-41.935 33.993,-75.928 75.926,-75.928 19.146,0 36.635,7.091 49.992,18.784 -26.144,5.867 -45.685,29.221 -45.685,57.144"
     style="fill:#231f20;fill-opacity:1;fill-rule:nonzero;stroke:none"
     id="path27682" />
  <path
     d="m 429.997,455.248 c 0,14.156 6.527,26.624 16.36,35.307 6.544,5.78 10.507,7.312 13.457,8.02 2.951,0.713 3.904,0.332 3.904,0.332 0.555,-2.443 2.982,-4.095 5.156,-4.095 2.98,0 5.394,2.408 5.394,5.391 0,2.98 -2.115,5.186 -5.394,5.801 -2.708,0.511 -5.901,0.308 -11.096,-1.221 -5.19,-1.523 -8.857,-3.867 -14.362,-8.339 -12.031,-9.76 -19.935,-24.499 -19.935,-41.196 0,-16.697 7.904,-31.436 19.935,-41.196 5.505,-4.467 9.172,-6.805 14.362,-8.333 5.195,-1.53 8.388,-1.732 11.096,-1.222 3.279,0.61 5.394,2.818 5.394,5.802 0,2.974 -2.414,5.396 -5.394,5.396 -2.174,0 -4.601,-1.662 -5.156,-4.104 0,0 -0.953,-0.378 -3.904,0.338 -2.95,0.708 -6.913,2.236 -13.457,8.014 -9.833,8.689 -16.36,21.149 -16.36,35.305"
     style="fill:#231f20;fill-opacity:1;fill-rule:nonzero;stroke:none"
     id="path27686" />
  <path
     d="m 500.557,455.248 v 0 c 0,1.801 1.459,3.263 3.265,3.263 h 18.98 c 0.406,2.585 1.304,5.001 2.575,7.17 l -20.929,15.822 c -3.454,2.584 -7.536,5.089 -14.112,6.442 -9.263,1.918 -17.596,-0.461 -23.396,-4.737 -5.8,-4.276 -4.987,-12.423 -4.987,-12.423 0,0 -26.8,1.022 -26.8,-15.537 0,-16.559 26.8,-15.537 26.8,-15.537 0,0 -0.813,-8.147 4.987,-12.423 5.8,-4.276 14.133,-6.644 23.396,-4.739 6.576,1.355 10.658,3.859 14.112,6.444 l 20.929,15.822 c -1.271,2.169 -2.169,4.593 -2.575,7.168 l -18.98,0.008 c -1.806,0 -3.265,1.466 -3.265,3.257"
     style="fill:#231f20;fill-opacity:1;fill-rule:nonzero;stroke:none"
     id="path27690" />
  <path
     d="m 543.177,376.398 c 18.729,0 19.675,19.951 19.675,19.951 0,0 9.916,-3.802 16.833,0.137 6.927,3.933 8.588,10.115 7.643,16.363 -0.951,6.24 -3.282,8.278 -6.678,10.85 l -22.645,17.23 c -3.031,-3.143 -7.055,-5.33 -11.568,-6.048 v -14.646 c 0,-1.804 -1.457,-3.26 -3.26,-3.26 -1.8,0 -3.255,1.456 -3.255,3.26 v 14.646 c -4.516,0.718 -8.542,2.905 -11.57,6.048 l -22.648,-17.23 c -3.394,-2.572 -5.724,-4.61 -6.675,-10.85 -0.948,-6.248 0.716,-12.43 7.643,-16.363 6.917,-3.939 16.83,-0.137 16.83,-0.137 0,0 0.946,-19.951 19.675,-19.951"
     style="fill:#231f20;fill-opacity:1;fill-rule:nonzero;stroke:none"
     id="path27694" />
  <path
     d="m 543.177,538.443 c -18.317,-0.005 -35.213,-5.98 -49.008,-15.96 -5.159,-3.985 -6.749,-6.447 -6.749,-6.447 1.945,-1.44 2.452,-2.709 2.452,-4.732 0,-3.514 -2.796,-5.238 -5.51,-5.238 -2.712,0 -5.698,2.573 -5.838,5.292 -0.134,1.557 -0.047,2.817 0.405,4.14 0.461,1.321 1.327,4.17 8.147,9.758 15.468,12.183 34.872,19.7 56.101,19.7 21.232,0 40.633,-7.517 56.101,-19.7 6.82,-5.588 7.688,-8.437 8.147,-9.758 0.455,-1.323 0.547,-2.583 0.405,-4.14 -0.137,-2.719 -3.125,-5.292 -5.836,-5.292 -2.716,0 -5.51,1.724 -5.51,5.238 0,2.023 0.508,3.292 2.453,4.732 0,0 -1.593,2.462 -6.749,6.447 -13.798,9.98 -30.694,15.955 -49.011,15.96"
     style="fill:#231f20;fill-opacity:1;fill-rule:nonzero;stroke:none"
     id="path27698" />
  <path
     d="m 543.177,550.243 c -25.377,0 -48.409,-9.969 -65.467,-26.159 -5.574,-5.292 -5.986,-10.278 -5.986,-10.278 0,0 -3.312,1.342 -12.169,8.061 -12.011,9.159 -19.75,21.647 -18.526,34.469 1.224,12.828 6.211,21.046 24.784,32.602 18.569,11.564 49.173,20.748 77.364,20.748 28.191,0 58.797,-9.184 77.364,-20.748 18.576,-11.556 23.562,-19.774 24.786,-32.602 1.224,-12.822 -6.514,-25.31 -18.525,-34.469 -8.857,-6.719 -12.172,-8.061 -12.172,-8.061 0,0 -0.412,4.986 -5.986,10.278 -17.055,16.19 -40.09,26.159 -65.467,26.159"
     style="fill:#231f20;fill-opacity:1;fill-rule:nonzero;stroke:none"
     id="path27702" />
  <path
     d="m 668.417,455.248 c 0,-27.923 -19.547,-51.277 -45.688,-57.144 13.357,-11.693 30.847,-18.784 49.997,-18.784 41.926,0 75.931,33.993 75.931,75.928 0,41.935 -34.005,75.929 -75.931,75.929 -19.15,0 -36.64,-7.093 -49.997,-18.786 26.141,-5.866 45.688,-29.222 45.688,-57.143"
     style="fill:#231f20;fill-opacity:1;fill-rule:nonzero;stroke:none"
     id="path27706" />
  <path
     d="m 656.359,455.248 c 0,-14.156 -6.527,-26.616 -16.361,-35.305 -6.543,-5.778 -10.508,-7.306 -13.459,-8.014 -2.951,-0.716 -3.901,-0.338 -3.901,-0.338 -0.558,2.442 -2.984,4.104 -5.159,4.104 -2.977,0 -5.393,-2.422 -5.393,-5.396 0,-2.984 2.117,-5.192 5.393,-5.802 2.711,-0.51 5.901,-0.308 11.096,1.222 5.191,1.528 8.857,3.866 14.363,8.333 12.03,9.76 19.937,24.499 19.937,41.196 0,16.697 -7.907,31.436 -19.937,41.196 -5.506,4.472 -9.172,6.816 -14.363,8.339 -5.195,1.529 -8.385,1.732 -11.096,1.221 -3.276,-0.615 -5.393,-2.821 -5.393,-5.801 0,-2.983 2.416,-5.391 5.393,-5.391 2.175,0 4.601,1.652 5.159,4.095 0,0 0.95,0.381 3.901,-0.332 2.951,-0.708 6.916,-2.24 13.459,-8.02 9.834,-8.683 16.361,-21.151 16.361,-35.307"
     style="fill:#231f20;fill-opacity:1;fill-rule:nonzero;stroke:none"
     id="path27710" />
  <path
     d="m 585.799,455.248 v 0 c 0,-1.791 -1.459,-3.257 -3.265,-3.257 l -18.983,-0.008 c -0.405,-2.575 -1.301,-4.999 -2.575,-7.168 l 20.938,-15.822 c 3.448,-2.585 7.53,-5.089 14.104,-6.444 9.262,-1.905 17.596,0.463 23.401,4.739 5.795,4.276 4.981,12.423 4.981,12.423 0,0 26.8,-1.022 26.8,15.537 0,16.559 -26.8,15.537 -26.8,15.537 0,0 0.814,8.147 -4.981,12.423 -5.805,4.276 -14.139,6.655 -23.401,4.737 -6.574,-1.353 -10.656,-3.858 -14.104,-6.442 l -20.938,-15.822 c 1.274,-2.169 2.17,-4.585 2.575,-7.17 h 18.983 c 1.806,0 3.265,-1.462 3.265,-3.263"
     style="fill:#231f20;fill-opacity:1;fill-rule:nonzero;stroke:none"
     id="path27714" />
  <path
     d="m 543.177,534.098 c -18.729,0 -19.675,-19.951 -19.675,-19.951 0,0 -9.913,3.802 -16.83,-0.138 -6.927,-3.932 -8.591,-10.112 -7.643,-16.354 0.951,-6.249 3.281,-8.28 6.675,-10.856 l 22.648,-17.232 c 3.028,3.14 7.054,5.336 11.57,6.054 v 14.648 c 0,1.793 1.455,3.252 3.255,3.252 1.803,0 3.26,-1.459 3.26,-3.252 v -14.648 c 4.513,-0.718 8.537,-2.914 11.568,-6.054 l 22.645,17.232 c 3.396,2.576 5.727,4.607 6.678,10.856 0.945,6.242 -0.716,12.422 -7.643,16.354 -6.917,3.94 -16.833,0.138 -16.833,0.138 0,0 -0.946,19.951 -19.675,19.951"
     style="fill:#231f20;fill-opacity:1;fill-rule:nonzero;stroke:none"
     id="path27718" />
  <path
     d="m 327.697,445.744 v 0 l -16.736,-24.476 27.924,-9.951 c 2.94,-1.049 5.74,-2.158 8.572,-3.4 -9.108,12.743 -14.709,28.256 -15.179,45 -1.454,-2.436 -2.984,-4.829 -4.581,-7.173"
     style="fill:#231f20;fill-opacity:1;fill-rule:nonzero;stroke:none"
     id="path27722" />
  <path
     d="M 618.698,314.197 C 601.889,198.209 502.016,109.14 381.389,109.14 c -132.439,0 -239.804,107.349 -239.804,239.781 0,8.573 0.465,17.057 1.33,25.392 -58.389,25.65 -99.2036,84.032 -99.2036,151.911 0,91.563 74.2536,165.823 165.8306,165.823 91.275,0 165.326,-73.8 165.786,-164.971 -9.204,-4.922 -17.383,-11.561 -24.043,-19.487 0.792,6.125 1.192,12.263 1.198,18.63 C 352.339,605.155 288.46,669.041 209.536,669.18 130.601,669.041 66.706,605.144 66.566,526.219 66.546,467.69 101.769,417.383 152.098,395.235 l 15.27,-6.705 -1.716,-16.582 c -0.79,-7.587 -1.206,-15.279 -1.206,-23.03 0.009,-59.973 24.245,-114.057 63.53,-153.389 39.334,-39.286 93.431,-63.516 153.403,-63.528 59.975,0.012 114.057,24.242 153.382,63.528 29.101,29.131 49.964,66.335 58.814,108.051 9.248,2.969 17.795,6.592 25.123,10.617"
     style="fill:#231f20;fill-opacity:1;fill-rule:nonzero;stroke:none"
     id="path27726" />
  <path
     d="m 721.581,520.335 c 0.052,1.737 0.068,3.472 0.068,5.221 0,91.547 -74.253,165.801 -165.83,165.801 -89.005,0 -161.612,-70.146 -165.621,-158.125 7.324,2.196 15.089,3.395 23.124,3.426 5.784,73.721 67.293,131.699 142.497,131.833 76.617,-0.134 139.057,-60.343 142.789,-136.033 8.348,-2.796 16.077,-6.939 22.973,-12.123"
     style="fill:#231f20;fill-opacity:1;fill-rule:nonzero;stroke:none"
     id="path27730" />
</svg>
