<?xml version="1.0" encoding="UTF-8" standalone="no"?>
<!-- Created with Inkscape (http://www.inkscape.org/) -->

<svg
   version="1.1"
   id="svg28528"
   width="793.70135"
   height="793.70099"
   viewBox="0 0 793.70135 793.70097"
   sodipodi:docname="Maruni Atamaawase Mitsusuhama.svg"
   inkscape:version="1.2 (dc2aeda, 2022-05-15)"
   xmlns:inkscape="http://www.inkscape.org/namespaces/inkscape"
   xmlns:sodipodi="http://sodipodi.sourceforge.net/DTD/sodipodi-0.dtd"
   xmlns="http://www.w3.org/2000/svg"
   xmlns:svg="http://www.w3.org/2000/svg">
  <defs
     id="defs28532">
    <clipPath
       clipPathUnits="userSpaceOnUse"
       id="clipPath28725">
      <path
         d="m -403.2246,467.5043 h 595.27599 v -841.89 H -403.2246 Z"
         id="path28727"
         style="stroke-width:0.999998" />
    </clipPath>
    <clipPath
       clipPathUnits="userSpaceOnUse"
       id="clipPath28731">
      <path
         d="m -202.4087,487.5599 h 595.276 v -841.89 h -595.276 z"
         id="path28733"
         style="stroke-width:0.999998" />
    </clipPath>
    <clipPath
       clipPathUnits="userSpaceOnUse"
       id="clipPath28737">
      <path
         d="m -285.4468,303.6214 h 595.276 v -841.89 h -595.276 z"
         id="path28739"
         style="stroke-width:0.999998" />
    </clipPath>
    <clipPath
       clipPathUnits="userSpaceOnUse"
       id="clipPath28743">
      <path
         d="m -146.5898,269.891 h 595.276 v -841.89 h -595.276 z"
         id="path28745"
         style="stroke-width:0.999998" />
    </clipPath>
  </defs>
  <sodipodi:namedview
     id="namedview28530"
     pagecolor="#ffffff"
     bordercolor="#000000"
     borderopacity="0.25"
     inkscape:showpageshadow="2"
     inkscape:pageopacity="0.0"
     inkscape:pagecheckerboard="0"
     inkscape:deskcolor="#d1d1d1"
     showgrid="false"
     inkscape:zoom="0.21024124"
     inkscape:cx="-470.88764"
     inkscape:cy="561.26002"
     inkscape:window-width="1419"
     inkscape:window-height="456"
     inkscape:window-x="0"
     inkscape:window-y="25"
     inkscape:window-maximized="0"
     inkscape:current-layer="svg28528">
    <inkscape:page
       x="0"
       y="0"
       id="page28534"
       width="793.70135"
       height="793.70099" />
  </sodipodi:namedview>
  <path
     d="m 380.596,242.829 c 5.335,1.919 10.332,4.543 14.891,7.735 4.617,-3.23 9.696,-5.838 15.094,-7.763 -7.598,-11.111 -12.026,-24.533 -12.026,-39.012 0,-38.249 31.018,-69.277 69.273,-69.277 38.258,0 69.281,31.028 69.281,69.277 0,28.36 -17.049,52.749 -41.445,63.467 0.365,3.485 0.554,7.029 0.554,10.609 0,55.326 -44.853,100.177 -100.186,100.177 -55.321,0 -100.177,-44.851 -100.177,-100.177 0,-3.335 0.183,-6.632 0.497,-9.888 -24.95,-10.465 -42.476,-35.137 -42.476,-63.904 0,-38.25 31.023,-69.272 69.283,-69.272 38.258,0 69.27,31.022 69.27,69.272 0,14.344 -4.361,27.692 -11.833,38.756"
     style="fill:#231f20;fill-opacity:1;fill-rule:nonzero;stroke:none"
     id="path28548" />
  <path
     d="m 269.878,488.08 c -1.005,-5.575 -1.229,-11.219 -0.749,-16.761 -5.11,-2.39 -9.898,-5.479 -14.266,-9.194 -5.82,12.144 -15.233,22.684 -27.773,29.927 -33.122,19.124 -75.509,7.777 -94.633,-25.352 -19.125,-33.133 -7.767,-75.514 25.356,-94.638 24.561,-14.18 54.209,-11.616 75.685,4.157 2.839,-2.056 5.805,-3.992 8.911,-5.787 47.914,-27.661 109.183,-11.246 136.85,36.672 27.66,47.912 11.247,109.183 -36.668,136.843 -2.891,1.668 -5.836,3.164 -8.813,4.517 3.414,26.842 -9.188,54.353 -34.107,68.737 -33.122,19.125 -75.505,7.772 -94.629,-25.363 -19.13,-33.128 -7.772,-75.498 25.351,-94.622 12.428,-7.179 26.17,-10.071 39.485,-9.136"
     style="fill:#231f20;fill-opacity:1;fill-rule:nonzero;stroke:none"
     id="path28552" />
  <path
     d="m 537.633,461.339 c -4.328,3.661 -9.096,6.676 -14.143,9.028 0.487,5.623 0.208,11.316 -0.824,16.955 13.423,-1.032 27.262,1.849 39.8,9.086 33.118,19.126 44.481,61.505 25.358,94.633 -19.126,33.13 -61.511,44.483 -94.634,25.358 -24.562,-14.18 -37.163,-41.136 -34.247,-67.626 -3.195,-1.421 -6.359,-3.03 -9.46,-4.821 -47.918,-27.665 -64.334,-88.93 -36.667,-136.844 27.667,-47.917 88.932,-64.333 136.844,-36.671 2.888,1.666 5.656,3.474 8.317,5.376 21.541,-16.382 51.664,-19.22 76.582,-4.836 33.118,19.124 44.478,61.499 25.347,94.633 -19.125,33.134 -61.5,44.481 -94.622,25.357 -12.427,-7.173 -21.802,-17.628 -27.651,-29.628"
     style="fill:#231f20;fill-opacity:1;fill-rule:nonzero;stroke:none"
     id="path28556" />
  <path
     d="m 195.453,197.855 c -51.431,51.469 -83.137,122.242 -83.148,200.734 0.011,78.497 31.717,149.26 83.148,200.737 51.468,51.415 122.23,83.126 200.727,83.137 78.494,-0.011 149.267,-31.722 200.728,-83.137 51.432,-51.477 83.128,-122.24 83.148,-200.737 -0.02,-78.492 -31.716,-149.265 -83.148,-200.734 -51.461,-51.424 -122.234,-83.12 -200.728,-83.146 -78.497,0.026 -149.259,31.722 -200.727,83.146 M 47.2667,398.589 C 47.288,205.879 203.46,49.691 396.18,49.669 588.903,49.691 745.074,205.879 745.1,398.589 745.074,591.309 588.903,747.491 396.18,747.518 203.46,747.48 47.288,591.309 47.2667,398.589"
     style="fill:#231f20;fill-opacity:1;fill-rule:nonzero;stroke:none"
     id="path28560" />
</svg>
