<?xml version="1.0" encoding="UTF-8" standalone="no"?>
<!-- Created with Inkscape (http://www.inkscape.org/) -->

<svg
   version="1.1"
   id="svg28832"
   width="793.70135"
   height="793.70099"
   viewBox="0 0 793.70135 793.70097"
   sodipodi:docname="Maruni Shiriawase Mitsusuhama.svg"
   inkscape:version="1.2 (dc2aeda, 2022-05-15)"
   xmlns:inkscape="http://www.inkscape.org/namespaces/inkscape"
   xmlns:sodipodi="http://sodipodi.sourceforge.net/DTD/sodipodi-0.dtd"
   xmlns="http://www.w3.org/2000/svg"
   xmlns:svg="http://www.w3.org/2000/svg">
  <defs
     id="defs28836">
    <clipPath
       clipPathUnits="userSpaceOnUse"
       id="clipPath29029">
      <path
         d="m -188.5845,470.1107 h 595.276 v -841.89 h -595.276 z"
         id="path29031"
         style="stroke-width:0.999998" />
    </clipPath>
    <clipPath
       clipPathUnits="userSpaceOnUse"
       id="clipPath29035">
      <path
         d="m -394.4199,488.1341 h 595.276 v -841.89 h -595.276 z"
         id="path29037"
         style="stroke-width:0.999998" />
    </clipPath>
    <clipPath
       clipPathUnits="userSpaceOnUse"
       id="clipPath29041">
      <path
         d="m -453.3809,576.6927 h 595.276 v -841.89 h -595.276 z"
         id="path29043"
         style="stroke-width:0.999998" />
    </clipPath>
    <clipPath
       clipPathUnits="userSpaceOnUse"
       id="clipPath29047">
      <path
         d="m -307.1152,300.8675 h 595.276 v -841.89 h -595.276 z"
         id="path29049"
         style="stroke-width:0.999998" />
    </clipPath>
  </defs>
  <sodipodi:namedview
     id="namedview28834"
     pagecolor="#ffffff"
     bordercolor="#000000"
     borderopacity="0.25"
     inkscape:showpageshadow="2"
     inkscape:pageopacity="0.0"
     inkscape:pagecheckerboard="0"
     inkscape:deskcolor="#d1d1d1"
     showgrid="false"
     inkscape:zoom="0.21024124"
     inkscape:cx="-470.88764"
     inkscape:cy="561.26002"
     inkscape:window-width="1419"
     inkscape:window-height="456"
     inkscape:window-x="0"
     inkscape:window-y="25"
     inkscape:window-maximized="0"
     inkscape:current-layer="svg28832">
    <inkscape:page
       x="0"
       y="0"
       id="page28838"
       width="793.70135"
       height="793.70099" />
  </sodipodi:namedview>
  <path
     d="m 409.487,239.157 c -4.992,-1.796 -9.675,-4.253 -13.94,-7.243 -4.329,3.026 -9.075,5.463 -14.131,7.266 7.12,10.4 11.256,22.956 11.256,36.51 0,35.791 -29.013,64.825 -64.825,64.825 -35.801,0 -64.824,-29.034 -64.824,-64.825 0,-26.544 15.95,-49.366 38.784,-59.394 -0.353,-3.26 -0.524,-6.579 -0.524,-9.926 0,-51.777 41.969,-93.746 93.752,-93.746 51.761,0 93.741,41.969 93.741,93.746 0,3.122 -0.172,6.206 -0.459,9.248 23.347,9.791 39.746,32.888 39.746,59.806 0,35.79 -29.035,64.818 -64.836,64.818 -35.8,0 -64.825,-29.028 -64.825,-64.818 0,-13.422 4.096,-25.912 11.085,-36.267"
     style="fill:#231f20;fill-opacity:1;fill-rule:nonzero;stroke:none"
     id="path28852" />
  <path
     d="m 251.446,464.814 c 0.94,5.223 1.153,10.504 0.704,15.683 4.779,2.238 9.269,5.13 13.353,8.605 5.442,-11.359 14.26,-21.225 25.987,-27.997 30.99,-17.9 70.661,-7.28 88.557,23.721 17.895,31.013 7.269,70.668 -23.721,88.562 -22.995,13.272 -50.736,10.862 -70.833,-3.89 -2.651,1.929 -5.43,3.74 -8.338,5.413 -44.834,25.892 -102.175,10.525 -128.057,-34.32 -25.89,-44.834 -10.529,-102.17 34.306,-128.052 2.703,-1.566 5.462,-2.961 8.241,-4.228 -3.186,-25.11 8.616,-50.862 31.932,-64.321 31.001,-17.896 70.64,-7.269 88.546,23.738 17.895,31.001 7.28,70.65 -23.721,88.545 -11.632,6.713 -24.492,9.418 -36.956,8.541"
     style="fill:#231f20;fill-opacity:1;fill-rule:nonzero;stroke:none"
     id="path28856" />
  <path
     d="m 525.893,488.845 c 4.052,-3.425 8.519,-6.248 13.245,-8.451 -0.461,-5.253 -0.204,-10.588 0.768,-15.862 -12.56,0.961 -25.505,-1.732 -37.256,-8.51 -30.989,-17.896 -41.614,-57.545 -23.721,-88.551 17.907,-31.007 57.557,-41.634 88.557,-23.732 22.986,13.27 34.776,38.5 32.04,63.28 3.003,1.33 5.965,2.837 8.861,4.51 44.834,25.887 60.206,83.228 34.306,128.072 -25.882,44.829 -83.212,60.197 -128.048,34.31 -2.703,-1.565 -5.301,-3.249 -7.78,-5.029 -20.152,15.324 -48.352,17.976 -71.666,4.516 -31.003,-17.894 -41.618,-57.549 -23.723,-88.55 17.896,-31.008 57.545,-41.628 88.548,-23.727 11.629,6.708 20.396,16.495 25.869,27.724"
     style="fill:#231f20;fill-opacity:1;fill-rule:nonzero;stroke:none"
     id="path28860" />
  <path
     d="m 604.508,606.924 c -53.409,53.36 -126.86,86.269 -208.329,86.28 -81.457,-0.011 -154.898,-32.92 -208.317,-86.28 C 134.487,553.5 101.583,480.06 101.572,398.59 c 0.011,-81.459 32.915,-154.91 86.29,-208.328 53.419,-53.37 126.86,-86.263 208.317,-86.291 81.469,0.028 154.92,32.921 208.329,86.291 53.375,53.418 86.268,126.869 86.289,208.328 -0.021,81.47 -32.914,154.91 -86.289,208.334 M 396.179,36.468 C 196.168,36.491 34.0854,198.589 34.0641,398.59 34.0854,598.601 196.168,760.684 396.179,760.722 596.191,760.696 758.273,598.601 758.308,398.59 758.273,198.589 596.191,36.491 396.179,36.468"
     style="fill:#231f20;fill-opacity:1;fill-rule:nonzero;stroke:none"
     id="path28864" />
</svg>
