<?xml version="1.0" encoding="UTF-8" standalone="no"?>
<!-- Created with Inkscape (http://www.inkscape.org/) -->

<svg
   version="1.1"
   id="svg9014"
   width="795.03467"
   height="793.70135"
   viewBox="0 0 795.03467 793.70135"
   sodipodi:docname="Itowani Mame Kumaizasa.svg"
   inkscape:version="1.2 (dc2aeda, 2022-05-15)"
   xmlns:inkscape="http://www.inkscape.org/namespaces/inkscape"
   xmlns:sodipodi="http://sodipodi.sourceforge.net/DTD/sodipodi-0.dtd"
   xmlns="http://www.w3.org/2000/svg"
   xmlns:svg="http://www.w3.org/2000/svg">
  <defs
     id="defs9018">
    <clipPath
       clipPathUnits="userSpaceOnUse"
       id="clipPath9507">
      <path
         d="M -531.1924,581.5885 H 65.083599 V -13.6875 H -531.1924 Z"
         id="path9509"
         style="stroke-width:0.999998" />
    </clipPath>
    <clipPath
       clipPathUnits="userSpaceOnUse"
       id="clipPath9513">
      <path
         d="M -553.8975,585.8483 H 42.378504 V -9.4277027 H -553.8975 Z"
         id="path9515"
         style="stroke-width:0.999998" />
    </clipPath>
    <clipPath
       clipPathUnits="userSpaceOnUse"
       id="clipPath9519">
      <path
         d="M -536.6982,584.5729 H 59.577804 V -10.7031 H -536.6982 Z"
         id="path9521"
         style="stroke-width:0.999998" />
    </clipPath>
    <clipPath
       clipPathUnits="userSpaceOnUse"
       id="clipPath9525">
      <path
         d="M -542.9326,584.5729 H 53.343399 V -10.7031 H -542.9326 Z"
         id="path9527"
         style="stroke-width:0.999998" />
    </clipPath>
    <clipPath
       clipPathUnits="userSpaceOnUse"
       id="clipPath9531">
      <path
         d="M -548.9834,585.8522 H 47.292601 V -9.4238027 H -548.9834 Z"
         id="path9533"
         style="stroke-width:0.999998" />
    </clipPath>
    <clipPath
       clipPathUnits="userSpaceOnUse"
       id="clipPath9537">
      <path
         d="M -545.417,584.5729 H 50.859001 V -10.7031 H -545.417 Z"
         id="path9539"
         style="stroke-width:0.999998" />
    </clipPath>
    <clipPath
       clipPathUnits="userSpaceOnUse"
       id="clipPath9543">
      <path
         d="M -540.8213,585.8483 H 55.454701 V -9.4277027 H -540.8213 Z"
         id="path9545"
         style="stroke-width:0.999998" />
    </clipPath>
    <clipPath
       clipPathUnits="userSpaceOnUse"
       id="clipPath9549">
      <path
         d="M -528.0898,575.3815 H 68.186199 V -19.8945 H -528.0898 Z"
         id="path9551"
         style="stroke-width:0.999998" />
    </clipPath>
    <clipPath
       clipPathUnits="userSpaceOnUse"
       id="clipPath9555">
      <path
         d="m -276.4648,340.0651 h 596.27601 v -595.276 H -276.4648 Z"
         id="path9557"
         style="stroke-width:0.999998" />
    </clipPath>
    <clipPath
       clipPathUnits="userSpaceOnUse"
       id="clipPath9561">
      <path
         d="M -538.2217,577.9479 H 58.054299 V -17.328098 H -538.2217 Z"
         id="path9563"
         style="stroke-width:0.999998" />
    </clipPath>
    <clipPath
       clipPathUnits="userSpaceOnUse"
       id="clipPath9567">
      <path
         d="M -584.1943,578.9381 H 12.081705 V -16.337903 H -584.1943 Z"
         id="path9569"
         style="stroke-width:0.999998" />
    </clipPath>
    <clipPath
       clipPathUnits="userSpaceOnUse"
       id="clipPath9573">
      <path
         d="M -550.2637,577.3248 H 46.012306 V -17.951198 H -550.2637 Z"
         id="path9575"
         style="stroke-width:0.999998" />
    </clipPath>
    <clipPath
       clipPathUnits="userSpaceOnUse"
       id="clipPath9579">
      <path
         d="M -564.5732,585.8483 H 31.702801 V -9.4277027 H -564.5732 Z"
         id="path9581"
         style="stroke-width:0.999998" />
    </clipPath>
    <clipPath
       clipPathUnits="userSpaceOnUse"
       id="clipPath9586">
      <path
         d="M -576.3691,585.5885 H 19.906905 V -9.6875027 H -576.3691 Z"
         id="path9588"
         style="stroke-width:0.999998" />
    </clipPath>
    <clipPath
       clipPathUnits="userSpaceOnUse"
       id="clipPath9592">
      <path
         d="M -572.8174,586.1354 H 23.458606 V -9.1406027 H -572.8174 Z"
         id="path9594"
         style="stroke-width:0.999998" />
    </clipPath>
    <clipPath
       clipPathUnits="userSpaceOnUse"
       id="clipPath9599">
      <path
         d="M -557.0645,585.8483 H 39.211501 V -9.4277027 H -557.0645 Z"
         id="path9601"
         style="stroke-width:0.999998" />
    </clipPath>
    <clipPath
       clipPathUnits="userSpaceOnUse"
       id="clipPath9605">
      <path
         d="M -567.7754,585.8522 H 28.500601 V -9.4238027 H -567.7754 Z"
         id="path9607"
         style="stroke-width:0.999998" />
    </clipPath>
    <clipPath
       clipPathUnits="userSpaceOnUse"
       id="clipPath9611">
      <path
         d="M -586.5449,579.5026 H 9.7311002 V -15.7734 H -586.5449 Z"
         id="path9613"
         style="stroke-width:0.999998" />
    </clipPath>
    <clipPath
       clipPathUnits="userSpaceOnUse"
       id="clipPath9617">
      <path
         d="M -561.4131,585.8522 H 34.862903 V -9.4238027 H -561.4131 Z"
         id="path9619"
         style="stroke-width:0.999998" />
    </clipPath>
    <clipPath
       clipPathUnits="userSpaceOnUse"
       id="clipPath9623">
      <path
         d="M -557.4951,577.8502 H 38.780903 V -17.4258 H -557.4951 Z"
         id="path9625"
         style="stroke-width:0.999998" />
    </clipPath>
    <clipPath
       clipPathUnits="userSpaceOnUse"
       id="clipPath9629">
      <path
         d="M -574.5459,585.8522 H 21.730103 V -9.4238027 H -574.5459 Z"
         id="path9631"
         style="stroke-width:0.999998" />
    </clipPath>
    <clipPath
       clipPathUnits="userSpaceOnUse"
       id="clipPath9635">
      <path
         d="M -568.2266,575.819 H 28.049401 V -19.457003 H -568.2266 Z"
         id="path9637"
         style="stroke-width:0.999998" />
    </clipPath>
    <clipPath
       clipPathUnits="userSpaceOnUse"
       id="clipPath9641">
      <path
         d="M -556.4014,578.0143 H 39.874606 V -17.2617 H -556.4014 Z"
         id="path9643"
         style="stroke-width:0.999998" />
    </clipPath>
  </defs>
  <sodipodi:namedview
     id="namedview9016"
     pagecolor="#ffffff"
     bordercolor="#000000"
     borderopacity="0.25"
     inkscape:showpageshadow="2"
     inkscape:pageopacity="0.0"
     inkscape:pagecheckerboard="0"
     inkscape:deskcolor="#d1d1d1"
     showgrid="false"
     inkscape:zoom="0.29734106"
     inkscape:cx="-215.24105"
     inkscape:cy="396.85068"
     inkscape:window-width="1419"
     inkscape:window-height="456"
     inkscape:window-x="0"
     inkscape:window-y="25"
     inkscape:window-maximized="0"
     inkscape:current-layer="svg9014">
    <inkscape:page
       x="0"
       y="0"
       id="page9020"
       width="795.03467"
       height="793.70135" />
  </sodipodi:namedview>
  <path
     d="M 368.62 453.42 C 364.701 457.321 360.332 460.837 355.464 463.657 C 353.059 465.048 350.575 466.295 348.036 467.373 C 351.279 470.884 353.532 473.303 357.812 477.623 C 362.103 481.959 365.788 485.269 371.899 490.092 C 381.22 497.448 387.612 501.043 387.232 501.824 C 386.852 502.605 377.781 499.615 368.987 493.86 C 363.64 490.36 358.541 486.357 353.871 482.084 C 349.607 478.188 345.512 474.056 341.604 469.699 C 338.843 470.524 336.037 471.139 333.217 471.491 C 327.847 472.168 322.375 471.892 317.189 470.321 C 337.107 491.941 364.724 504.147 393.236 505.12 C 389.54 491.884 384.141 478.892 376.951 466.436 C 374.347 461.931 371.565 457.589 368.62 453.42 M 411.827 371.866 C 419.825 359.655 427.744 343.419 427.728 327.546 C 427.733 317.806 425.535 308.199 420.811 301.012 C 416.288 294.163 409.597 289.454 400.003 288.586 L 400.003 349.978 C 400.003 369.684 397.877 381.544 396.843 381.544 C 395.808 381.544 393.683 369.684 393.683 349.978 L 393.683 288.586 C 384.089 289.454 377.399 294.163 372.876 301.012 C 368.152 308.199 365.955 317.806 365.96 327.546 C 365.908 351.368 383.835 375.954 392.845 386.647 C 394.588 388.723 395.981 390.271 396.844 391.204 C 397.705 390.271 399.1 388.723 400.843 386.647 C 403.839 383.078 407.837 377.972 411.827 371.866 M 467.092 379.226 C 464.49 383.734 462.122 388.312 459.984 392.948 C 465.324 394.391 470.552 396.419 475.429 399.223 C 477.834 400.611 480.156 402.136 482.364 403.797 C 483.78 399.232 484.749 396.073 486.352 390.205 C 487.958 384.322 488.982 379.476 490.104 371.772 C 491.814 360.023 491.73 352.69 492.597 352.627 C 493.465 352.567 495.412 361.916 494.824 372.411 C 494.465 378.791 493.548 385.207 492.184 391.387 C 490.94 397.031 489.41 402.641 487.59 408.204 C 489.686 410.183 491.62 412.305 493.336 414.571 C 496.606 418.887 499.102 423.761 500.336 429.037 C 509.101 400.977 505.864 370.958 492.45 345.78 C 482.836 355.598 474.285 366.77 467.092 379.226 M 472.272 404.693 C 451.668 392.736 421.413 395.969 407.648 398.425 C 404.98 398.896 402.94 399.329 401.7 399.611 C 402.077 400.824 402.721 402.805 403.648 405.352 C 405.241 409.732 407.665 415.748 410.957 422.256 C 417.532 435.287 427.633 450.261 441.389 458.185 C 449.821 463.06 459.24 465.959 467.825 465.461 C 476.018 464.969 483.441 461.532 488.992 453.655 C 474.585 445.336 448.976 430.551 435.822 422.959 C 418.759 413.105 409.548 405.336 410.067 404.439 C 410.584 403.543 421.92 407.633 438.982 417.485 C 452.136 425.079 477.744 439.863 492.152 448.18 C 496.197 439.439 495.464 431.289 491.793 423.948 C 487.929 416.267 480.71 409.559 472.272 404.693 M 460.473 471.491 C 457.653 471.139 454.849 470.524 452.086 469.699 C 448.178 474.056 444.084 478.188 439.82 482.084 C 435.149 486.357 430.051 490.36 424.704 493.86 C 415.911 499.615 406.839 502.605 406.459 501.824 C 406.08 501.043 412.471 497.448 421.793 490.092 C 427.903 485.269 431.589 481.956 435.88 477.623 C 440.158 473.303 442.412 470.884 445.657 467.373 C 443.117 466.295 440.633 465.045 438.228 463.657 C 433.361 460.835 428.991 457.321 425.072 453.42 C 422.127 457.587 419.344 461.931 416.74 466.433 C 409.551 478.892 404.151 491.884 400.457 505.12 C 428.968 504.147 456.585 491.939 476.502 470.319 C 471.314 471.892 465.845 472.165 460.473 471.491 M 429.707 304.364 C 430.815 306.983 431.683 309.719 432.351 312.526 C 438.077 313.728 443.702 315.211 449.209 316.955 C 455.245 318.864 461.258 321.278 466.964 324.158 C 476.346 328.895 483.472 335.256 482.982 335.976 C 482.496 336.698 476.189 332.958 465.157 328.563 C 457.925 325.684 453.214 324.147 447.316 322.596 C 441.433 321.051 438.213 320.31 433.551 319.255 C 433.885 321.996 434.047 324.77 434.047 327.547 C 434.037 333.174 433.179 338.715 431.759 344.059 C 436.842 344.526 441.993 344.764 447.196 344.767 C 461.58 344.764 475.529 342.946 488.84 339.528 C 473.742 315.322 449.361 297.507 420.68 291.07 C 424.632 294.775 427.607 299.374 429.707 304.364 M 352.304 458.188 C 372.963 446.321 385.289 418.503 390.044 405.355 C 390.972 402.808 391.616 400.827 391.993 399.613 C 390.753 399.335 388.715 398.899 386.045 398.429 C 381.456 397.619 375.036 396.709 367.753 396.307 C 353.179 395.485 335.159 396.747 321.421 404.696 C 312.981 409.563 305.763 416.269 301.9 423.953 C 298.23 431.295 297.496 439.444 301.542 448.188 C 315.951 439.868 341.559 425.084 354.711 417.491 C 371.775 407.639 383.109 403.548 383.627 404.444 C 384.145 405.339 374.935 413.111 357.871 422.964 C 344.719 430.556 319.111 445.341 304.703 453.66 C 310.252 461.535 317.676 464.975 325.868 465.467 C 334.453 465.961 343.871 463.063 352.304 458.188 M 306.1 408.204 C 304.28 402.641 302.751 397.029 301.508 391.389 C 300.143 385.207 299.226 378.791 298.868 372.411 C 298.28 361.918 300.226 352.567 301.092 352.627 C 301.96 352.69 301.876 360.023 303.588 371.772 C 304.707 379.476 305.733 384.323 307.34 390.207 C 308.941 396.073 309.912 399.232 311.329 403.797 C 313.535 402.139 315.857 400.611 318.261 399.223 C 323.14 396.419 328.367 394.391 333.707 392.949 C 331.569 388.313 329.2 383.734 326.6 379.226 C 319.407 366.771 310.856 355.598 301.24 345.78 C 287.827 370.959 284.591 400.98 293.356 429.037 C 294.588 423.761 297.086 418.887 300.355 414.571 C 302.071 412.305 304.004 410.183 306.1 408.204 M 361.932 344.059 C 360.512 338.715 359.653 333.174 359.644 327.547 C 359.644 324.77 359.805 321.996 360.14 319.255 C 355.477 320.31 352.257 321.051 346.373 322.596 C 340.476 324.147 335.764 325.684 328.533 328.563 C 317.501 332.958 311.195 336.698 310.707 335.976 C 310.22 335.256 317.344 328.895 326.727 324.158 C 332.431 321.278 338.447 318.864 344.481 316.955 C 349.988 315.211 355.613 313.728 361.34 312.526 C 362.008 309.719 362.877 306.983 363.983 304.364 C 366.084 299.374 369.059 294.775 373.012 291.07 C 344.329 297.507 319.948 315.322 304.851 339.528 C 318.161 342.946 332.112 344.764 346.495 344.767 C 351.699 344.764 356.849 344.526 361.932 344.059 M 396.849 733.518 C 210.904 733.51 60.1834 582.789 60.1688 396.847 C 60.1834 210.909 210.904 60.1943 396.849 60.1876 C 582.783 60.1943 733.51 210.909 733.52 396.847 C 733.51 582.789 582.783 733.51 396.849 733.518 M 396.851 31.7304 C 195.19 31.7397 31.7288 195.191 31.7128 396.847 C 31.7288 598.505 195.19 761.966 396.851 761.974 C 598.501 761.966 761.967 598.505 761.978 396.847 C 761.967 195.191 598.501 31.7397 396.851 31.7304"
     style="fill:#000000;fill-opacity:1;fill-rule:nonzero;stroke:none"
     id="path9134" />
</svg>
