<?xml version="1.0" encoding="UTF-8" standalone="no"?>
<!-- Created with Inkscape (http://www.inkscape.org/) -->

<svg
   version="1.1"
   id="svg200"
   width="795.03467"
   height="793.70135"
   viewBox="0 0 795.03467 793.70135"
   sodipodi:docname="Kage Kumaizasa.svg"
   inkscape:version="1.2 (dc2aeda, 2022-05-15)"
   xmlns:inkscape="http://www.inkscape.org/namespaces/inkscape"
   xmlns:sodipodi="http://sodipodi.sourceforge.net/DTD/sodipodi-0.dtd"
   xmlns="http://www.w3.org/2000/svg"
   xmlns:svg="http://www.w3.org/2000/svg">
  <defs
     id="defs204">
    <clipPath
       clipPathUnits="userSpaceOnUse"
       id="clipPath993">
      <path
         d="M -540.8213,585.8483 H 55.454701 V -9.4277027 H -540.8213 Z"
         id="path995"
         style="stroke-width:0.999998" />
    </clipPath>
    <clipPath
       clipPathUnits="userSpaceOnUse"
       id="clipPath999">
      <path
         d="M -528.0898,575.3815 H 68.186199 V -19.8945 H -528.0898 Z"
         id="path1001"
         style="stroke-width:0.999998" />
    </clipPath>
    <clipPath
       clipPathUnits="userSpaceOnUse"
       id="clipPath1005">
      <path
         d="M -550.2637,577.3248 H 46.012306 V -17.951198 H -550.2637 Z"
         id="path1007"
         style="stroke-width:0.999998" />
    </clipPath>
    <clipPath
       clipPathUnits="userSpaceOnUse"
       id="clipPath1011">
      <path
         d="M -525.3828,420.6364 H 70.893204 v -595.276 H -525.3828 Z"
         id="path1013"
         style="stroke-width:0.999998" />
    </clipPath>
    <clipPath
       clipPathUnits="userSpaceOnUse"
       id="clipPath1017">
      <path
         d="M -542.9326,584.5729 H 53.343399 V -10.7031 H -542.9326 Z"
         id="path1019"
         style="stroke-width:0.999998" />
    </clipPath>
    <clipPath
       clipPathUnits="userSpaceOnUse"
       id="clipPath1024">
      <path
         d="M -545.417,584.5729 H 50.859001 V -10.7031 H -545.417 Z"
         id="path1026"
         style="stroke-width:0.999998" />
    </clipPath>
    <clipPath
       clipPathUnits="userSpaceOnUse"
       id="clipPath1030">
      <path
         d="M -548.9834,585.8522 H 47.292601 V -9.4238027 H -548.9834 Z"
         id="path1032"
         style="stroke-width:0.999998" />
    </clipPath>
    <clipPath
       clipPathUnits="userSpaceOnUse"
       id="clipPath1036">
      <path
         d="M -553.8975,585.8483 H 42.378504 V -9.4277027 H -553.8975 Z"
         id="path1038"
         style="stroke-width:0.999998" />
    </clipPath>
    <clipPath
       clipPathUnits="userSpaceOnUse"
       id="clipPath1042">
      <path
         d="M -557.0645,585.8483 H 39.211501 V -9.4277027 H -557.0645 Z"
         id="path1044"
         style="stroke-width:0.999998" />
    </clipPath>
    <clipPath
       clipPathUnits="userSpaceOnUse"
       id="clipPath1048">
      <path
         d="M -561.4131,585.8522 H 34.862903 V -9.4238027 H -561.4131 Z"
         id="path1050"
         style="stroke-width:0.999998" />
    </clipPath>
    <clipPath
       clipPathUnits="userSpaceOnUse"
       id="clipPath1054">
      <path
         d="M -564.5732,585.8483 H 31.702801 V -9.4277027 H -564.5732 Z"
         id="path1056"
         style="stroke-width:0.999998" />
    </clipPath>
    <clipPath
       clipPathUnits="userSpaceOnUse"
       id="clipPath1060">
      <path
         d="M -567.7754,585.8522 H 28.500601 V -9.4238027 H -567.7754 Z"
         id="path1062"
         style="stroke-width:0.999998" />
    </clipPath>
    <clipPath
       clipPathUnits="userSpaceOnUse"
       id="clipPath1066">
      <path
         d="m -198.5088,506.5826 h 596.276 V -88.693397 h -596.276 z"
         id="path1068"
         style="stroke-width:0.999998" />
    </clipPath>
    <clipPath
       clipPathUnits="userSpaceOnUse"
       id="clipPath1072">
      <path
         d="m -112.5283,259.3766 h 596.276 v -595.276 h -596.276 z"
         id="path1074"
         style="stroke-width:0.999998" />
    </clipPath>
    <clipPath
       clipPathUnits="userSpaceOnUse"
       id="clipPath1078">
      <path
         d="m -67.1211,279.0123 h 596.276 v -595.276 h -596.276 z"
         id="path1080"
         style="stroke-width:0.999998" />
    </clipPath>
    <clipPath
       clipPathUnits="userSpaceOnUse"
       id="clipPath1085">
      <path
         d="M -572.8174,586.1354 H 23.458606 V -9.1406027 H -572.8174 Z"
         id="path1087"
         style="stroke-width:0.999998" />
    </clipPath>
    <clipPath
       clipPathUnits="userSpaceOnUse"
       id="clipPath1091">
      <path
         d="M -574.5459,585.8522 H 21.730103 V -9.4238027 H -574.5459 Z"
         id="path1093"
         style="stroke-width:0.999998" />
    </clipPath>
    <clipPath
       clipPathUnits="userSpaceOnUse"
       id="clipPath1097">
      <path
         d="M -576.3691,585.5885 H 19.906905 V -9.6875027 H -576.3691 Z"
         id="path1099"
         style="stroke-width:0.999998" />
    </clipPath>
    <clipPath
       clipPathUnits="userSpaceOnUse"
       id="clipPath1103">
      <path
         d="M -557.4951,577.8502 H 38.780903 V -17.4258 H -557.4951 Z"
         id="path1105"
         style="stroke-width:0.999998" />
    </clipPath>
    <clipPath
       clipPathUnits="userSpaceOnUse"
       id="clipPath1109">
      <path
         d="M -568.2266,575.819 H 28.049401 V -19.457003 H -568.2266 Z"
         id="path1111"
         style="stroke-width:0.999998" />
    </clipPath>
    <clipPath
       clipPathUnits="userSpaceOnUse"
       id="clipPath1115">
      <path
         d="M -556.4014,578.0143 H 39.874606 V -17.2617 H -556.4014 Z"
         id="path1117"
         style="stroke-width:0.999998" />
    </clipPath>
    <clipPath
       clipPathUnits="userSpaceOnUse"
       id="clipPath1121">
      <path
         d="M -586.5449,579.5026 H 9.7311002 V -15.7734 H -586.5449 Z"
         id="path1123"
         style="stroke-width:0.999998" />
    </clipPath>
    <clipPath
       clipPathUnits="userSpaceOnUse"
       id="clipPath1127">
      <path
         d="M -584.1943,578.9381 H 12.081705 V -16.337903 H -584.1943 Z"
         id="path1129"
         style="stroke-width:0.999998" />
    </clipPath>
    <clipPath
       clipPathUnits="userSpaceOnUse"
       id="clipPath1133">
      <path
         d="M -538.2217,577.9479 H 58.054299 V -17.328098 H -538.2217 Z"
         id="path1135"
         style="stroke-width:0.999998" />
    </clipPath>
    <clipPath
       clipPathUnits="userSpaceOnUse"
       id="clipPath1139">
      <path
         d="m -311.3564,249.4352 h 596.276 v -595.276 h -596.276 z"
         id="path1141"
         style="stroke-width:0.999998" />
    </clipPath>
    <clipPath
       clipPathUnits="userSpaceOnUse"
       id="clipPath1145">
      <path
         d="m -171.9482,156.4606 h 596.276 v -595.276 h -596.276 z"
         id="path1147"
         style="stroke-width:0.999998" />
    </clipPath>
    <clipPath
       clipPathUnits="userSpaceOnUse"
       id="clipPath1151">
      <path
         d="m -166.249,107.3199 h 596.276 v -595.276 h -596.276 z"
         id="path1153"
         style="stroke-width:0.999998" />
    </clipPath>
    <clipPath
       clipPathUnits="userSpaceOnUse"
       id="clipPath1157">
      <path
         d="m -423.3252,156.4606 h 596.276 v -595.276 h -596.276 z"
         id="path1159"
         style="stroke-width:0.999998" />
    </clipPath>
    <clipPath
       clipPathUnits="userSpaceOnUse"
       id="clipPath1163">
      <path
         d="m -429.0244,107.3199 h 596.276 v -595.276 h -596.276 z"
         id="path1165"
         style="stroke-width:0.999998" />
    </clipPath>
    <clipPath
       clipPathUnits="userSpaceOnUse"
       id="clipPath1169">
      <path
         d="m -221.2158,405.1237 h 596.276 v -595.276 h -596.276 z"
         id="path1171"
         style="stroke-width:0.999998" />
    </clipPath>
    <clipPath
       clipPathUnits="userSpaceOnUse"
       id="clipPath1175">
      <path
         d="m -238.2168,477.0768 h 596.276 v -595.276 h -596.276 z"
         id="path1177"
         style="stroke-width:0.999998" />
    </clipPath>
    <clipPath
       clipPathUnits="userSpaceOnUse"
       id="clipPath1181">
      <path
         d="M -536.6982,584.5729 H 59.577804 V -10.7031 H -536.6982 Z"
         id="path1183"
         style="stroke-width:0.999998" />
    </clipPath>
    <clipPath
       clipPathUnits="userSpaceOnUse"
       id="clipPath1187">
      <path
         d="m -482.7441,259.3776 h 596.27601 v -595.276 H -482.7441 Z"
         id="path1189"
         style="stroke-width:0.999998" />
    </clipPath>
    <clipPath
       clipPathUnits="userSpaceOnUse"
       id="clipPath1193">
      <path
         d="M -528.1514,279.0133 H 68.124602 v -595.276 H -528.1514 Z"
         id="path1195"
         style="stroke-width:0.999998" />
    </clipPath>
    <clipPath
       clipPathUnits="userSpaceOnUse"
       id="clipPath1199">
      <path
         d="m -357.0547,477.0778 h 596.276 v -595.276 h -596.276 z"
         id="path1201"
         style="stroke-width:0.999998" />
    </clipPath>
    <clipPath
       clipPathUnits="userSpaceOnUse"
       id="clipPath1205">
      <path
         d="m -396.7637,506.5836 h 596.276 v -595.276 h -596.276 z"
         id="path1207"
         style="stroke-width:0.999998" />
    </clipPath>
    <clipPath
       clipPathUnits="userSpaceOnUse"
       id="clipPath1211">
      <path
         d="M -531.1924,581.5885 H 65.083599 V -13.6875 H -531.1924 Z"
         id="path1213"
         style="stroke-width:0.999998" />
    </clipPath>
  </defs>
  <sodipodi:namedview
     id="namedview202"
     pagecolor="#ffffff"
     bordercolor="#000000"
     borderopacity="0.25"
     inkscape:showpageshadow="2"
     inkscape:pageopacity="0.0"
     inkscape:pagecheckerboard="0"
     inkscape:deskcolor="#d1d1d1"
     showgrid="false"
     inkscape:zoom="0.29734106"
     inkscape:cx="-215.24105"
     inkscape:cy="396.85068"
     inkscape:window-width="1419"
     inkscape:window-height="456"
     inkscape:window-x="0"
     inkscape:window-y="25"
     inkscape:window-maximized="0"
     inkscape:current-layer="svg200">
    <inkscape:page
       x="0"
       y="0"
       id="page206"
       width="795.03467"
       height="793.70135" />
  </sodipodi:namedview>
  <path
     d="M 415.142 332.58 C 408.341 341.608 402.045 349.345 396.85 355.467 C 386.451 343.209 371.634 324.492 357.194 301.919 C 344.746 282.477 332.586 260.195 323.681 236.95 C 314.752 213.704 309.132 189.57 309.15 166.399 C 309.088 136.19 316.116 106.887 329.7 86.3726 C 336.484 76.054 344.73 67.8513 354.749 61.9167 C 363.698 56.6487 374.215 53.1167 387.043 51.8754 C 387.054 81.91 387.173 243.922 388.627 282.237 C 390.314 326.637 392.494 339.312 396.849 339.312 C 401.206 339.312 403.385 326.637 405.069 282.237 C 406.523 243.923 406.645 81.922 406.654 51.878 C 419.479 53.1167 429.998 56.6487 438.946 61.9167 C 453.919 70.774 465.162 84.93 472.943 103.286 C 480.683 121.562 484.566 143.774 484.548 166.399 C 484.566 190.318 478.569 215.263 469.139 239.199 C 455.046 275.101 433.323 308.491 415.142 332.58 M 402.847 31.8808 C 402.847 31.8808 398.155 31.7461 396.847 31.7461 C 395.541 31.7461 390.847 31.8808 390.847 31.8808 C 319.15 35.3074 289.545 100.233 289.545 166.4 C 289.545 275.061 396.85 384.851 396.85 384.851 C 396.85 384.851 504.154 275.061 504.154 166.4 C 504.154 100.233 474.549 35.3061 402.847 31.8808"
     style="fill:#000000;fill-opacity:1;fill-rule:nonzero;stroke:none"
     id="path320" />
  <path
     d="M 229.264 208.614 C 190.14 208.614 152.018 204.458 115.291 196.573 C 161.358 131.937 229.071 83.8516 307.861 62.909 C 315.496 52.7371 324.744 43.8517 335.706 36.8278 C 228.688 54.8731 137.494 119.484 83.655 209.097 C 130.086 221.567 178.897 228.221 229.264 228.221 C 245.573 228.221 265.231 227.166 286.636 225.155 C 284.811 218.814 283.237 212.387 281.931 205.901 C 262.128 207.695 244.073 208.625 229.264 208.614"
     style="fill:#000000;fill-opacity:1;fill-rule:nonzero;stroke:none"
     id="path324" />
  <path
     d="M 221.665 143.093 C 205.728 147.624 186.54 154.614 172.476 161.341 C 146.449 173.79 131.261 188.897 132.639 190.586 C 134.02 192.277 156.186 183.626 178.31 175.829 C 194.686 170.06 205.384 166.953 226.954 161.236 C 244.99 156.457 262.302 152.546 278.417 149.497 C 278.922 142.68 279.744 135.912 280.894 129.241 C 262.758 132.638 243.077 137.232 221.665 143.093"
     style="fill:#000000;fill-opacity:1;fill-rule:nonzero;stroke:none"
     id="path328" />
  <path
     d="M 564.434 208.614 C 603.558 208.614 641.679 204.458 678.407 196.573 C 632.34 131.937 564.629 83.8516 485.836 62.909 C 478.202 52.7371 468.954 43.8517 457.989 36.8278 C 565.009 54.8731 656.204 119.484 710.043 209.097 C 663.612 221.567 614.799 228.221 564.434 228.221 C 548.125 228.221 528.466 227.166 507.062 225.155 C 508.887 218.814 510.461 212.387 511.766 205.901 C 531.569 207.695 549.625 208.625 564.434 208.614"
     style="fill:#000000;fill-opacity:1;fill-rule:nonzero;stroke:none"
     id="path332" />
  <path
     d="M 572.033 143.093 C 587.97 147.624 607.157 154.614 621.221 161.341 C 647.249 173.79 662.435 188.897 661.058 190.586 C 659.678 192.277 637.512 183.626 615.388 175.829 C 599.01 170.06 588.316 166.953 566.744 161.236 C 548.706 156.457 531.394 152.546 515.28 149.497 C 514.774 142.68 513.954 135.912 512.802 129.241 C 530.938 132.638 550.62 137.232 572.033 143.093"
     style="fill:#000000;fill-opacity:1;fill-rule:nonzero;stroke:none"
     id="path336" />
  <path
     d="M 294.954 540.165 C 279.287 559.525 261.197 576.46 241.121 588.026 C 214.989 603.186 186.1 611.749 161.54 610.246 C 149.212 609.526 137.984 606.488 127.834 600.778 C 118.798 595.662 110.482 588.318 102.99 577.832 C 128.998 562.805 269.246 481.696 301.701 461.28 C 339.309 437.619 349.197 429.395 347.018 425.621 C 344.839 421.848 332.773 426.299 293.479 447.037 C 259.57 464.936 119.213 545.832 93.1905 560.846 C 87.8505 549.12 85.6492 538.246 85.7372 527.86 C 85.9212 510.468 92.5585 493.65 104.566 477.734 C 116.525 461.892 133.816 447.425 153.421 436.127 C 174.126 424.151 198.728 416.873 224.17 413.071 C 262.311 407.325 302.087 409.444 332.039 413.141 C 343.259 414.519 353.109 416.105 361.007 417.543 C 355.593 432.679 346.79 454.868 334.462 478.66 C 323.849 499.16 310.631 520.833 294.954 540.165 M 143.62 419.147 C 86.3159 452.232 44.892 510.334 77.7732 574.141 C 77.7732 574.141 80.0052 578.274 80.6572 579.405 C 81.3119 580.537 83.7745 584.533 83.7745 584.533 C 122.59 644.913 193.621 638.089 250.925 605.004 C 345.027 550.674 386.454 402.851 386.454 402.851 C 386.454 402.851 237.722 364.817 143.62 419.147"
     style="fill:#000000;fill-opacity:1;fill-rule:nonzero;stroke:none"
     id="path340" />
  <path
     d="M 317.622 636.102 C 337.185 669.985 352.646 705.075 364.182 740.827 C 285.17 733.248 209.67 698.651 152.138 640.887 C 139.514 639.362 127.194 635.795 115.629 629.811 C 184.766 713.468 286.319 760.143 390.844 761.962 C 378.427 715.518 359.787 669.917 334.602 626.297 C 326.447 612.173 315.706 595.678 303.261 578.146 C 298.682 582.897 293.902 587.474 288.938 591.85 C 300.394 608.099 310.227 623.271 317.622 636.102"
     style="fill:#000000;fill-opacity:1;fill-rule:nonzero;stroke:none"
     id="path344" />
  <path
     d="M 264.678 675.443 C 276.571 686.979 292.219 700.102 305.077 708.918 C 328.871 725.234 349.547 730.834 350.322 728.795 C 351.095 726.755 332.522 711.883 314.706 696.622 C 301.522 685.326 293.483 677.612 277.749 661.791 C 264.59 648.56 252.547 635.524 241.849 623.091 C 235.693 626.062 229.422 628.738 223.067 631.074 C 235.079 645.082 248.897 659.831 264.678 675.443"
     style="fill:#000000;fill-opacity:1;fill-rule:nonzero;stroke:none"
     id="path348" />
  <path
     d="M 150.038 345.835 C 130.477 311.955 107.815 281.018 82.6235 253.153 C 49.6809 325.366 41.8929 408.051 63.1516 486.757 C 58.1609 498.455 55.0902 510.907 54.4889 523.912 C 16.609 422.208 26.965 310.924 77.6515 219.494 C 111.666 253.471 141.835 292.414 167.019 336.032 C 175.174 350.158 184.09 367.707 193.05 387.252 C 186.645 388.842 180.291 390.692 174.019 392.804 C 165.674 374.756 157.453 358.655 150.038 345.835"
     style="fill:#000000;fill-opacity:1;fill-rule:nonzero;stroke:none"
     id="path352" />
  <path
     d="M 89.4948 372.016 C 85.4495 355.949 81.9108 335.836 80.7042 320.293 C 78.4722 291.528 83.9601 270.822 86.1135 271.171 C 88.2668 271.522 91.8575 295.043 96.1681 318.101 C 99.3574 335.168 102.017 345.987 107.853 367.525 C 112.733 385.536 118.001 402.483 123.417 417.964 C 117.767 421.809 112.316 425.904 107.115 430.236 C 100.988 412.832 95.1255 393.489 89.4948 372.016"
     style="fill:#000000;fill-opacity:1;fill-rule:nonzero;stroke:none"
     id="path356" />
  <path
     d="M 700.51 560.849 C 674.491 545.837 534.126 464.937 500.217 447.041 C 460.923 426.3 448.857 421.851 446.677 425.621 C 444.5 429.395 454.387 437.62 491.995 461.28 C 524.448 481.697 664.686 562.801 690.701 577.829 C 683.214 588.317 674.898 595.661 665.861 600.777 C 650.705 609.317 632.822 611.977 613.037 609.536 C 593.336 607.1 572.16 599.358 552.576 588.029 C 531.852 576.088 513.246 558.421 497.233 538.285 C 473.188 508.129 455.132 472.621 443.361 444.832 C 438.943 434.427 435.391 425.105 432.688 417.545 C 448.503 414.668 472.121 411.195 498.889 409.976 C 521.949 408.919 547.326 409.528 571.91 413.439 C 596.506 417.327 620.217 424.527 640.274 436.128 C 666.469 451.179 688.327 471.917 699.306 493.936 C 704.85 504.974 707.829 516.217 707.959 527.861 C 708.047 538.245 705.847 549.118 700.51 560.849 M 650.077 419.151 C 555.973 364.819 407.239 402.853 407.239 402.853 C 407.239 402.853 448.668 550.676 542.769 605.006 C 600.073 638.09 671.103 644.915 709.922 584.534 C 709.922 584.534 712.385 580.536 713.038 579.404 C 713.693 578.272 715.922 574.142 715.922 574.142 C 748.805 510.337 707.379 452.233 650.077 419.151"
     style="fill:#000000;fill-opacity:1;fill-rule:nonzero;stroke:none"
     id="path360" />
  <path
     d="M 643.659 345.837 C 663.219 311.956 685.88 281.02 711.075 253.153 C 744.016 325.368 751.803 408.052 730.544 486.758 C 735.535 498.455 738.608 510.907 739.208 523.915 C 777.089 422.209 766.733 310.926 716.044 219.497 C 682.03 253.472 651.862 292.414 626.679 336.034 C 618.522 350.16 609.608 367.709 600.647 387.253 C 607.052 388.844 613.404 390.694 619.676 392.808 C 628.023 374.758 636.243 358.658 643.659 345.837"
     style="fill:#000000;fill-opacity:1;fill-rule:nonzero;stroke:none"
     id="path364" />
  <path
     d="M 704.202 372.018 C 708.245 355.95 711.786 335.837 712.991 320.294 C 715.226 291.53 709.735 270.824 707.582 271.172 C 705.43 271.524 701.838 295.045 697.529 318.103 C 694.338 335.169 691.677 345.987 685.842 367.526 C 680.963 385.537 675.694 402.483 670.278 417.965 C 675.93 421.811 681.381 425.905 686.582 430.238 C 692.706 412.833 698.57 393.491 704.202 372.018"
     style="fill:#000000;fill-opacity:1;fill-rule:nonzero;stroke:none"
     id="path368" />
  <path
     d="M 476.073 636.104 C 456.51 669.985 441.05 705.077 429.514 740.829 C 508.524 733.249 584.026 698.652 641.558 640.889 C 654.182 639.363 666.501 635.796 678.066 629.812 C 608.929 713.469 507.376 760.144 402.851 761.964 C 415.268 715.518 433.908 669.917 459.094 626.299 C 467.248 612.173 477.99 595.679 490.434 578.147 C 495.014 582.899 499.793 587.475 504.76 591.851 C 493.302 608.1 483.469 623.272 476.073 636.104"
     style="fill:#000000;fill-opacity:1;fill-rule:nonzero;stroke:none"
     id="path372" />
  <path
     d="M 529.018 675.445 C 517.125 686.981 501.475 700.102 488.619 708.918 C 464.825 725.236 444.148 730.834 443.374 728.796 C 442.601 726.756 461.174 711.885 478.99 696.622 C 492.173 685.326 500.213 677.616 515.947 661.792 C 529.103 648.561 541.149 635.526 551.847 623.093 C 558.002 626.064 564.274 628.738 570.629 631.077 C 558.617 645.084 544.799 659.832 529.018 675.445"
     style="fill:#000000;fill-opacity:1;fill-rule:nonzero;stroke:none"
     id="path376" />
</svg>
