<?xml version="1.0" encoding="UTF-8" standalone="no"?>
<!-- Created with Inkscape (http://www.inkscape.org/) -->

<svg
   version="1.1"
   id="svg9832"
   width="795.03467"
   height="793.70135"
   viewBox="0 0 795.03467 793.70135"
   sodipodi:docname="Maruni Nezasa.svg"
   inkscape:version="1.2 (dc2aeda, 2022-05-15)"
   xmlns:inkscape="http://www.inkscape.org/namespaces/inkscape"
   xmlns:sodipodi="http://sodipodi.sourceforge.net/DTD/sodipodi-0.dtd"
   xmlns="http://www.w3.org/2000/svg"
   xmlns:svg="http://www.w3.org/2000/svg">
  <defs
     id="defs9836">
    <clipPath
       clipPathUnits="userSpaceOnUse"
       id="clipPath10325">
      <path
         d="M -531.1924,581.5885 H 65.083599 V -13.6875 H -531.1924 Z"
         id="path10327"
         style="stroke-width:0.999998" />
    </clipPath>
    <clipPath
       clipPathUnits="userSpaceOnUse"
       id="clipPath10331">
      <path
         d="M -574.5459,585.8522 H 21.730103 V -9.4238027 H -574.5459 Z"
         id="path10333"
         style="stroke-width:0.999998" />
    </clipPath>
    <clipPath
       clipPathUnits="userSpaceOnUse"
       id="clipPath10337">
      <path
         d="M -584.1943,578.9381 H 12.081705 V -16.337903 H -584.1943 Z"
         id="path10339"
         style="stroke-width:0.999998" />
    </clipPath>
    <clipPath
       clipPathUnits="userSpaceOnUse"
       id="clipPath10345">
      <path
         d="M -545.417,584.5729 H 50.859001 V -10.7031 H -545.417 Z"
         id="path10347"
         style="stroke-width:0.999998" />
    </clipPath>
    <clipPath
       clipPathUnits="userSpaceOnUse"
       id="clipPath10351">
      <path
         d="M -538.2217,577.9479 H 58.054299 V -17.328098 H -538.2217 Z"
         id="path10353"
         style="stroke-width:0.999998" />
    </clipPath>
    <clipPath
       clipPathUnits="userSpaceOnUse"
       id="clipPath10357">
      <path
         d="M -540.8213,585.8483 H 55.454701 V -9.4277027 H -540.8213 Z"
         id="path10359"
         style="stroke-width:0.999998" />
    </clipPath>
    <clipPath
       clipPathUnits="userSpaceOnUse"
       id="clipPath10363">
      <path
         d="M -586.5449,579.5026 H 9.7311002 V -15.7734 H -586.5449 Z"
         id="path10365"
         style="stroke-width:0.999998" />
    </clipPath>
    <clipPath
       clipPathUnits="userSpaceOnUse"
       id="clipPath10369">
      <path
         d="M -542.9326,584.5729 H 53.343399 V -10.7031 H -542.9326 Z"
         id="path10371"
         style="stroke-width:0.999998" />
    </clipPath>
    <clipPath
       clipPathUnits="userSpaceOnUse"
       id="clipPath10375">
      <path
         d="M -564.5732,585.8483 H 31.702801 V -9.4277027 H -564.5732 Z"
         id="path10377"
         style="stroke-width:0.999998" />
    </clipPath>
    <clipPath
       clipPathUnits="userSpaceOnUse"
       id="clipPath10381">
      <path
         d="M -553.8975,585.8483 H 42.378504 V -9.4277027 H -553.8975 Z"
         id="path10383"
         style="stroke-width:0.999998" />
    </clipPath>
    <clipPath
       clipPathUnits="userSpaceOnUse"
       id="clipPath10387">
      <path
         d="M -568.2266,575.819 H 28.049401 V -19.457003 H -568.2266 Z"
         id="path10389"
         style="stroke-width:0.999998" />
    </clipPath>
    <clipPath
       clipPathUnits="userSpaceOnUse"
       id="clipPath10393">
      <path
         d="M -548.9834,585.8522 H 47.292601 V -9.4238027 H -548.9834 Z"
         id="path10395"
         style="stroke-width:0.999998" />
    </clipPath>
    <clipPath
       clipPathUnits="userSpaceOnUse"
       id="clipPath10399">
      <path
         d="M -561.4131,585.8522 H 34.862903 V -9.4238027 H -561.4131 Z"
         id="path10401"
         style="stroke-width:0.999998" />
    </clipPath>
    <clipPath
       clipPathUnits="userSpaceOnUse"
       id="clipPath10405">
      <path
         d="M -557.0645,585.8483 H 39.211501 V -9.4277027 H -557.0645 Z"
         id="path10407"
         style="stroke-width:0.999998" />
    </clipPath>
    <clipPath
       clipPathUnits="userSpaceOnUse"
       id="clipPath10411">
      <path
         d="M -556.4014,578.0143 H 39.874606 V -17.2617 H -556.4014 Z"
         id="path10413"
         style="stroke-width:0.999998" />
    </clipPath>
    <clipPath
       clipPathUnits="userSpaceOnUse"
       id="clipPath10417">
      <path
         d="M -567.7754,585.8522 H 28.500601 V -9.4238027 H -567.7754 Z"
         id="path10419"
         style="stroke-width:0.999998" />
    </clipPath>
    <clipPath
       clipPathUnits="userSpaceOnUse"
       id="clipPath10423">
      <path
         d="M -572.8174,586.1354 H 23.458606 V -9.1406027 H -572.8174 Z"
         id="path10425"
         style="stroke-width:0.999998" />
    </clipPath>
    <clipPath
       clipPathUnits="userSpaceOnUse"
       id="clipPath10429">
      <path
         d="M -536.6982,584.5729 H 59.577804 V -10.7031 H -536.6982 Z"
         id="path10431"
         style="stroke-width:0.999998" />
    </clipPath>
    <clipPath
       clipPathUnits="userSpaceOnUse"
       id="clipPath10435">
      <path
         d="M -528.0898,575.3815 H 68.186199 V -19.8945 H -528.0898 Z"
         id="path10437"
         style="stroke-width:0.999998" />
    </clipPath>
    <clipPath
       clipPathUnits="userSpaceOnUse"
       id="clipPath10441">
      <path
         d="m -423.5313,231.0172 h 596.276 v -595.276 h -596.276 z"
         id="path10443"
         style="stroke-width:0.999998" />
    </clipPath>
    <clipPath
       clipPathUnits="userSpaceOnUse"
       id="clipPath10447">
      <path
         d="M -550.2637,577.3248 H 46.012306 V -17.951198 H -550.2637 Z"
         id="path10449"
         style="stroke-width:0.999998" />
    </clipPath>
    <clipPath
       clipPathUnits="userSpaceOnUse"
       id="clipPath10453">
      <path
         d="M -576.3691,585.5885 H 19.906905 V -9.6875027 H -576.3691 Z"
         id="path10455"
         style="stroke-width:0.999998" />
    </clipPath>
    <clipPath
       clipPathUnits="userSpaceOnUse"
       id="clipPath10459">
      <path
         d="M -557.4951,577.8502 H 38.780903 V -17.4258 H -557.4951 Z"
         id="path10461"
         style="stroke-width:0.999998" />
    </clipPath>
  </defs>
  <sodipodi:namedview
     id="namedview9834"
     pagecolor="#ffffff"
     bordercolor="#000000"
     borderopacity="0.25"
     inkscape:showpageshadow="2"
     inkscape:pageopacity="0.0"
     inkscape:pagecheckerboard="0"
     inkscape:deskcolor="#d1d1d1"
     showgrid="false"
     inkscape:zoom="0.29734106"
     inkscape:cx="-215.24105"
     inkscape:cy="396.85068"
     inkscape:window-width="1419"
     inkscape:window-height="456"
     inkscape:window-x="0"
     inkscape:window-y="25"
     inkscape:window-maximized="0"
     inkscape:current-layer="svg9832">
    <inkscape:page
       x="0"
       y="0"
       id="page9838"
       width="795.03467"
       height="793.70135" />
  </sodipodi:namedview>
  <path
     d="M 564.708 308.023 C 575.523 311.494 585.576 316.058 594.913 321.396 C 605.331 317.636 613.823 314.674 617.953 313.386 C 625.959 310.884 644.302 305.506 662.23 300.41 C 666.045 299.324 669.848 298.25 673.545 297.215 C 671.532 291.606 669.356 286.076 667.017 280.63 C 663.86 281.516 660.629 282.431 657.38 283.352 C 639.332 288.49 621.025 293.85 612.664 296.462 C 608.387 297.803 600.809 300.436 591.52 303.774 C 593.884 298.61 596.033 293.868 597.851 289.748 C 603.612 276.612 620.792 245.16 634.344 223.347 C 630.636 218.27 626.779 213.309 622.76 208.483 C 622.72 208.543 622.681 208.601 622.643 208.662 C 617.793 216.235 612.411 225.207 607.116 234.398 C 596.513 252.822 586.355 271.888 581.625 282.598 C 580.447 285.276 579.109 288.251 577.657 291.446 C 576.747 288.988 575.881 286.754 575.081 284.822 C 569.853 272.212 562.408 254.334 555.392 239.213 C 549.219 240.379 542.405 241.77 537.509 242.831 C 544.756 258.082 553.037 277.936 558.707 291.612 C 560.327 295.51 562.451 301.36 564.708 308.023 M 175.154 313.386 C 179.457 314.727 188.484 317.884 199.493 321.868 C 200.884 320.968 202.284 320.084 203.702 319.232 C 212.502 313.97 220.898 309.844 228.865 306.655 C 230.949 300.562 232.893 295.24 234.399 291.612 C 240.07 277.936 248.35 258.082 255.599 242.831 C 250.701 241.77 243.889 240.379 237.714 239.213 C 230.698 254.334 223.253 272.212 218.025 284.822 C 217.226 286.754 216.36 288.988 215.449 291.446 C 213.998 288.251 212.661 285.276 211.48 282.598 C 206.75 271.888 196.594 252.822 185.99 234.398 C 180.696 225.207 175.313 216.235 170.464 208.662 C 170.425 208.601 170.388 208.543 170.348 208.483 C 166.329 213.309 162.47 218.27 158.764 223.347 C 172.314 245.16 189.496 276.612 195.256 289.748 C 197.073 293.868 199.222 298.61 201.586 303.774 C 192.297 300.436 184.72 297.803 180.444 296.462 C 172.081 293.85 153.776 288.49 135.728 283.352 C 132.477 282.431 129.246 281.516 126.089 280.63 C 123.75 286.076 121.573 291.606 119.562 297.215 C 123.258 298.25 127.061 299.324 130.877 300.41 C 148.802 305.506 167.148 310.884 175.154 313.386 M 402.807 283.331 C 405.388 283.04 407.959 282.876 410.511 282.874 C 414.491 282.871 418.412 283.25 422.247 283.978 C 419.212 276.448 415.82 268.582 411.967 260.328 C 423.322 251.276 437.763 240.739 445.892 235.189 C 453.2 230.186 463.158 224.369 471.183 219.883 C 475.206 217.634 478.758 215.71 481.292 214.347 C 482.796 213.543 483.922 212.946 484.6 212.591 C 479.404 209.361 472.539 205.494 466.383 202.271 C 457.658 207.071 445.312 214.121 435.887 220.553 C 428.011 225.945 415.203 235.243 404.004 244.026 C 399.042 234.298 393.472 224.101 387.167 213.377 C 384.235 208.386 381.108 203.241 377.85 198.006 C 387.36 185.847 398.118 172.501 402.61 167.275 C 406.691 162.525 411.899 156.634 416.07 151.957 C 419.423 148.191 422.098 145.218 423.024 144.191 C 417.3 142.634 409.924 140.957 403.284 139.654 C 399.006 144.451 393.52 150.645 389.16 155.722 C 384.906 160.681 376.256 171.375 367.754 182.158 C 357.081 165.746 345.615 149.099 334.851 134.079 C 329.381 126.439 324.095 119.231 319.189 112.686 C 313.094 114.343 307.075 116.181 301.146 118.213 C 321.894 145.498 351.815 188.191 371.875 222.358 C 385.222 245.106 395.14 265.248 402.807 283.331 M 343.419 260.718 C 352.969 270.388 360.791 279.207 367.164 286.954 C 367.459 287.003 367.767 287.042 368.06 287.094 L 380.448 289.3 C 383.347 288.091 386.246 287.047 389.138 286.172 C 381.272 275.806 370.479 262.868 356.03 248.254 C 349.135 241.277 338.785 231.621 328.975 222.909 C 324.07 218.555 319.317 214.45 315.185 211.041 C 315.083 210.957 314.99 210.879 314.889 210.798 C 307.826 213.251 301.227 216.135 296.023 218.577 C 297.703 219.738 300.585 221.966 303.897 224.713 C 315.607 234.371 333.763 250.934 343.419 260.718 M 295.583 218.329 L 295.579 218.327 L 295.582 218.329 Z M 561.663 317.215 C 522.768 304.932 497.386 302.364 480.442 306.803 C 495.21 315.702 509.568 329.584 523.125 348.94 C 524.181 350.454 525.219 351.97 526.249 353.488 C 536.156 356.29 547.787 359.968 560.661 364.743 C 585.289 373.882 609.491 386.819 629.456 399.445 C 635.768 403.448 637.258 404.212 646.978 411.204 C 661.672 421.773 673.674 438.043 672.674 439.34 C 671.674 440.639 661.9 430.637 644.102 418.727 C 637.552 414.344 631.617 410.844 625.123 406.74 C 605.624 394.399 581.128 382.513 557.341 373.696 C 549.116 370.646 541.416 368.055 534.365 365.86 C 548.936 388.923 560.845 412.461 570.588 435.341 C 631.733 449.94 686.521 448.595 686.521 448.595 C 686.521 448.595 648.034 344.491 561.663 317.215 M 205.1 383.368 C 184.19 396.92 168.917 408.601 153.333 421.581 C 140.598 432.188 125.998 445.563 124.714 444.351 C 123.43 443.139 134.885 429.419 150.006 414.511 C 166.618 398.133 187.062 382.716 220.518 362.511 C 228.533 352.56 237.299 342.944 246.901 333.896 C 258.417 323.048 269.951 314.384 281.239 307.56 C 263.649 305.896 239.266 309.538 208.894 327.672 C 145.706 365.404 109.154 458.731 109.154 458.731 C 109.154 458.731 135.808 455.541 171.084 445.524 C 179.96 425.253 191.118 403.943 205.1 383.368 M 427.136 583.264 C 425.504 599.914 424.85 618.04 424.847 636.269 C 424.848 654.417 425.496 672.655 426.495 689.577 C 431.966 689.031 437.391 688.327 442.77 687.485 C 441.823 671.153 441.212 653.622 441.215 636.269 C 441.212 618.44 441.859 600.792 443.428 584.861 C 445.8 560.628 452.367 538.336 459.823 519.717 C 455.568 515.824 451.314 511.81 447.075 507.671 C 438.203 528.505 430.014 554.417 427.136 583.264 M 459.698 307.59 C 468.406 319.451 472.936 334.688 472.878 351.6 C 472.864 361.136 471.486 371.272 468.72 381.885 C 471.607 385.921 474.57 390.116 477.616 394.499 C 497.583 423.235 517.379 454.193 534.761 482.451 C 543.088 495.985 551.784 510.161 557.835 520.652 C 568.651 539.398 575.652 552.55 580.504 562.413 C 586.039 573.664 591.992 586.253 590.464 586.948 C 588.937 587.644 582.171 577.752 575.684 567.016 C 565.287 549.797 559.4 540.638 548.516 522.885 C 530.12 492.876 498.6 441.429 469.775 399.945 C 468.235 397.729 466.72 395.571 465.223 393.445 C 460.056 408.421 452.235 424.233 441.611 440.613 C 435.467 450.068 429.226 459.133 422.923 467.836 C 501.927 561.04 604.144 605.608 604.144 605.608 C 604.144 605.608 595.673 469.195 515.307 354.42 C 497.164 328.508 478.13 313.686 459.698 307.59 M 280.851 404.929 C 260.813 423.588 242.275 442.767 226.252 460.592 C 211.349 477.157 196.824 493.076 187.756 504.509 C 177.3 517.692 166.409 533.341 164.581 531.769 C 162.753 530.193 175.029 510.054 184.029 496.781 C 193.121 483.371 205.314 469.607 219.152 454.209 C 240.779 430.157 266.901 403.675 295.25 379.183 C 299.927 371.246 304.853 363.248 310.078 355.2 C 325.499 331.459 342.235 313.618 359.337 301.535 C 361.777 299.814 364.227 298.223 366.682 296.735 C 340.231 292.022 297.313 299.568 253.449 340.852 C 166.829 422.376 148.292 554.33 148.292 554.33 C 148.292 554.33 186.452 540.448 237.362 508.169 C 247.271 477.101 261.225 442.001 280.851 404.929 M 388.664 690.939 C 391.383 691.013 394.11 691.057 396.847 691.057 C 399.584 691.057 402.312 691.013 405.031 690.939 L 405.031 491.395 C 399.586 498.232 394.122 504.792 388.664 511.108 Z M 359.019 543.13 C 354.479 547.705 349.975 552.101 345.521 556.326 C 347.657 565.44 349.315 574.992 350.273 584.862 C 351.837 600.789 352.481 618.437 352.481 636.266 C 352.482 653.622 351.87 671.153 350.925 687.485 C 356.302 688.327 361.727 689.031 367.195 689.577 C 368.195 672.654 368.844 654.414 368.847 636.266 C 368.844 618.041 368.192 599.917 366.558 583.264 C 365.144 569.094 362.449 555.634 359.019 543.13 M 433.604 435.417 C 472.247 375.915 470.958 325.964 442.763 303.646 C 438.47 308.607 433.758 314.172 428.704 320.303 C 410.894 341.882 388.814 370.322 366.298 402.479 C 336.395 445.183 299.813 506.328 269.231 556.438 C 248.693 590.089 236.634 614.248 233.789 612.281 C 230.944 610.316 239.159 592.265 263.531 549.206 C 289.926 502.577 328.767 439.439 358.479 397.004 C 381.159 364.61 403.378 335.991 421.344 314.223 C 426.128 308.434 430.584 303.158 434.68 298.404 C 402.824 281.78 356.703 300.932 318.086 360.399 C 224.365 504.715 222.589 633.904 222.589 633.904 C 222.589 633.904 339.885 579.733 433.604 435.417 M 396.847 701.971 C 228.334 701.971 91.7252 565.362 91.7252 396.847 C 91.7252 228.331 228.334 91.7249 396.847 91.7249 C 565.361 91.7249 701.969 228.331 701.969 396.847 C 701.969 565.362 565.361 701.971 396.847 701.971 M 396.85 31.729 C 195.198 31.729 31.728 195.199 31.728 396.852 C 31.728 598.502 195.198 761.974 396.85 761.974 C 598.503 761.974 761.973 598.502 761.973 396.852 C 761.973 195.199 598.503 31.729 396.85 31.729"
     style="fill:#000000;fill-opacity:1;fill-rule:nonzero;stroke:none"
     id="path9952" />
</svg>
