<?xml version="1.0" encoding="UTF-8" standalone="no"?>
<!-- Created with Inkscape (http://www.inkscape.org/) -->

<svg
   version="1.1"
   id="svg2360"
   width="795.03467"
   height="793.70135"
   viewBox="0 0 795.03467 793.70135"
   sodipodi:docname="Mukai Juumaizasa.svg"
   inkscape:version="1.2 (dc2aeda, 2022-05-15)"
   xmlns:inkscape="http://www.inkscape.org/namespaces/inkscape"
   xmlns:sodipodi="http://sodipodi.sourceforge.net/DTD/sodipodi-0.dtd"
   xmlns="http://www.w3.org/2000/svg"
   xmlns:svg="http://www.w3.org/2000/svg">
  <defs
     id="defs2364">
    <clipPath
       clipPathUnits="userSpaceOnUse"
       id="clipPath2979">
      <path
         d="M -567.7754,585.8522 H 28.500601 V -9.4238027 H -567.7754 Z"
         id="path2981"
         style="stroke-width:0.999998" />
    </clipPath>
    <clipPath
       clipPathUnits="userSpaceOnUse"
       id="clipPath2985">
      <path
         d="m -394.7715,162.8121 h 596.276 v -595.276 h -596.276 z"
         id="path2987"
         style="stroke-width:0.999998" />
    </clipPath>
    <clipPath
       clipPathUnits="userSpaceOnUse"
       id="clipPath2991">
      <path
         d="m -111.0498,162.4137 h 596.276 v -595.276 h -596.276 z"
         id="path2993"
         style="stroke-width:0.999998" />
    </clipPath>
    <clipPath
       clipPathUnits="userSpaceOnUse"
       id="clipPath2997">
      <path
         d="m -484.2256,162.4137 h 596.276 v -595.276 h -596.276 z"
         id="path2999"
         style="stroke-width:0.999998" />
    </clipPath>
    <clipPath
       clipPathUnits="userSpaceOnUse"
       id="clipPath3003">
      <path
         d="m -302.2764,571.3219 h 596.276 V -23.954101 h -596.276 z"
         id="path3005"
         style="stroke-width:0.999998" />
    </clipPath>
    <clipPath
       clipPathUnits="userSpaceOnUse"
       id="clipPath3009">
      <path
         d="M -564.5732,585.8483 H 31.702801 V -9.4277027 H -564.5732 Z"
         id="path3011"
         style="stroke-width:0.999998" />
    </clipPath>
    <clipPath
       clipPathUnits="userSpaceOnUse"
       id="clipPath3015">
      <path
         d="M -531.1924,581.5885 H 65.083599 V -13.6875 H -531.1924 Z"
         id="path3017"
         style="stroke-width:0.999998" />
    </clipPath>
    <clipPath
       clipPathUnits="userSpaceOnUse"
       id="clipPath3021">
      <path
         d="M -528.0898,575.3815 H 68.186199 V -19.8945 H -528.0898 Z"
         id="path3023"
         style="stroke-width:0.999998" />
    </clipPath>
    <clipPath
       clipPathUnits="userSpaceOnUse"
       id="clipPath3027">
      <path
         d="M -561.4131,585.8522 H 34.862903 V -9.4238027 H -561.4131 Z"
         id="path3029"
         style="stroke-width:0.999998" />
    </clipPath>
    <clipPath
       clipPathUnits="userSpaceOnUse"
       id="clipPath3033">
      <path
         d="M -557.0645,585.8483 H 39.211501 V -9.4277027 H -557.0645 Z"
         id="path3035"
         style="stroke-width:0.999998" />
    </clipPath>
    <clipPath
       clipPathUnits="userSpaceOnUse"
       id="clipPath3039">
      <path
         d="M -548.9834,585.8522 H 47.292601 V -9.4238027 H -548.9834 Z"
         id="path3041"
         style="stroke-width:0.999998" />
    </clipPath>
    <clipPath
       clipPathUnits="userSpaceOnUse"
       id="clipPath3045">
      <path
         d="M -557.4951,577.8502 H 38.780903 V -17.4258 H -557.4951 Z"
         id="path3047"
         style="stroke-width:0.999998" />
    </clipPath>
    <clipPath
       clipPathUnits="userSpaceOnUse"
       id="clipPath3051">
      <path
         d="M -553.8975,585.8483 H 42.378504 V -9.4277027 H -553.8975 Z"
         id="path3053"
         style="stroke-width:0.999998" />
    </clipPath>
    <clipPath
       clipPathUnits="userSpaceOnUse"
       id="clipPath3057">
      <path
         d="m -200.5039,432.4645 h 596.276 v -595.276 h -596.276 z"
         id="path3059"
         style="stroke-width:0.999998" />
    </clipPath>
    <clipPath
       clipPathUnits="userSpaceOnUse"
       id="clipPath3063">
      <path
         d="m -111.0498,432.8629 h 596.276 v -595.276 h -596.276 z"
         id="path3065"
         style="stroke-width:0.999998" />
    </clipPath>
    <clipPath
       clipPathUnits="userSpaceOnUse"
       id="clipPath3069">
      <path
         d="m -394.7715,432.4645 h 596.276 v -595.276 h -596.276 z"
         id="path3071"
         style="stroke-width:0.999998" />
    </clipPath>
    <clipPath
       clipPathUnits="userSpaceOnUse"
       id="clipPath3075">
      <path
         d="m -484.2256,432.8629 h 596.276 v -595.276 h -596.276 z"
         id="path3077"
         style="stroke-width:0.999998" />
    </clipPath>
    <clipPath
       clipPathUnits="userSpaceOnUse"
       id="clipPath3082">
      <path
         d="M -572.8174,586.1354 H 23.458606 V -9.1406027 H -572.8174 Z"
         id="path3084"
         style="stroke-width:0.999998" />
    </clipPath>
    <clipPath
       clipPathUnits="userSpaceOnUse"
       id="clipPath3088">
      <path
         d="M -574.5459,585.8522 H 21.730103 V -9.4238027 H -574.5459 Z"
         id="path3090"
         style="stroke-width:0.999998" />
    </clipPath>
    <clipPath
       clipPathUnits="userSpaceOnUse"
       id="clipPath3094">
      <path
         d="M -576.3691,585.5885 H 19.906905 V -9.6875027 H -576.3691 Z"
         id="path3096"
         style="stroke-width:0.999998" />
    </clipPath>
    <clipPath
       clipPathUnits="userSpaceOnUse"
       id="clipPath3100">
      <path
         d="M -568.2266,575.819 H 28.049401 V -19.457003 H -568.2266 Z"
         id="path3102"
         style="stroke-width:0.999998" />
    </clipPath>
    <clipPath
       clipPathUnits="userSpaceOnUse"
       id="clipPath3106">
      <path
         d="M -550.2637,577.3248 H 46.012306 V -17.951198 H -550.2637 Z"
         id="path3108"
         style="stroke-width:0.999998" />
    </clipPath>
    <clipPath
       clipPathUnits="userSpaceOnUse"
       id="clipPath3112">
      <path
         d="M -540.8213,585.8483 H 55.454701 V -9.4277027 H -540.8213 Z"
         id="path3114"
         style="stroke-width:0.999998" />
    </clipPath>
    <clipPath
       clipPathUnits="userSpaceOnUse"
       id="clipPath3118">
      <path
         d="M -556.4014,578.0143 H 39.874606 V -17.2617 H -556.4014 Z"
         id="path3120"
         style="stroke-width:0.999998" />
    </clipPath>
    <clipPath
       clipPathUnits="userSpaceOnUse"
       id="clipPath3124">
      <path
         d="M -542.9326,584.5729 H 53.343399 V -10.7031 H -542.9326 Z"
         id="path3126"
         style="stroke-width:0.999998" />
    </clipPath>
    <clipPath
       clipPathUnits="userSpaceOnUse"
       id="clipPath3130">
      <path
         d="M -586.5449,579.5026 H 9.7311002 V -15.7734 H -586.5449 Z"
         id="path3132"
         style="stroke-width:0.999998" />
    </clipPath>
    <clipPath
       clipPathUnits="userSpaceOnUse"
       id="clipPath3136">
      <path
         d="M -538.2217,577.9479 H 58.054299 V -17.328098 H -538.2217 Z"
         id="path3138"
         style="stroke-width:0.999998" />
    </clipPath>
    <clipPath
       clipPathUnits="userSpaceOnUse"
       id="clipPath3142">
      <path
         d="m -302.2764,23.9537 h 596.276 v -595.276 h -596.276 z"
         id="path3144"
         style="stroke-width:0.999998" />
    </clipPath>
    <clipPath
       clipPathUnits="userSpaceOnUse"
       id="clipPath3148">
      <path
         d="M -545.417,584.5729 H 50.859001 V -10.7031 H -545.417 Z"
         id="path3150"
         style="stroke-width:0.999998" />
    </clipPath>
    <clipPath
       clipPathUnits="userSpaceOnUse"
       id="clipPath3154">
      <path
         d="M -536.6982,584.5729 H 59.577804 V -10.7031 H -536.6982 Z"
         id="path3156"
         style="stroke-width:0.999998" />
    </clipPath>
    <clipPath
       clipPathUnits="userSpaceOnUse"
       id="clipPath3160">
      <path
         d="M -584.1943,578.9381 H 12.081705 V -16.337903 H -584.1943 Z"
         id="path3162"
         style="stroke-width:0.999998" />
    </clipPath>
    <clipPath
       clipPathUnits="userSpaceOnUse"
       id="clipPath3166">
      <path
         d="m -200.5039,162.8121 h 596.276 v -595.276 h -596.276 z"
         id="path3168"
         style="stroke-width:0.999998" />
    </clipPath>
  </defs>
  <sodipodi:namedview
     id="namedview2362"
     pagecolor="#ffffff"
     bordercolor="#000000"
     borderopacity="0.25"
     inkscape:showpageshadow="2"
     inkscape:pageopacity="0.0"
     inkscape:pagecheckerboard="0"
     inkscape:deskcolor="#d1d1d1"
     showgrid="false"
     inkscape:zoom="0.29734106"
     inkscape:cx="-215.24105"
     inkscape:cy="396.85068"
     inkscape:window-width="1419"
     inkscape:window-height="456"
     inkscape:window-x="0"
     inkscape:window-y="25"
     inkscape:window-maximized="0"
     inkscape:current-layer="svg2360">
    <inkscape:page
       x="0"
       y="0"
       id="page2366"
       width="795.03467"
       height="793.70135" />
  </sodipodi:namedview>
  <path
     d="M 403.035 31.9383 C 450.286 34.8396 479.757 83.0715 479.757 141.575 C 479.757 305.707 396.85 383.603 396.85 383.603 C 396.85 383.603 313.943 305.707 313.943 141.575 C 313.943 83.0715 343.415 34.8396 390.666 31.9383 L 390.666 244.322 C 390.666 302.042 394.035 356.483 396.85 356.483 C 399.664 356.483 403.035 302.042 403.035 244.322 Z"
     style="fill:#000000;fill-opacity:1;fill-rule:nonzero;stroke:none"
     id="path2480" />
  <path
     d="M 267.339 217.083 C 254.532 242.67 245.091 270.891 237.534 294.713 C 229.734 319.291 220.168 359.7 217.147 359.076 C 214.128 358.452 220.199 318.155 227.626 288.825 C 235.242 258.752 243.532 237.074 256.279 211.551 C 271.408 181.332 288.503 157.144 304.368 138.747 C 304.842 108.982 312.475 81.5887 326.602 60.5354 C 330.844 54.1794 335.747 48.4101 341.228 43.3821 C 300.386 55.5461 263.614 81.7407 239.034 120.493 C 178.887 215.319 205.086 362.083 210.055 383.604 C 210.055 383.604 274.735 330.805 322.682 269.115 C 313.142 238.15 306.048 201.14 304.6 157.936 C 292.046 173.936 279.047 193.639 267.339 217.083"
     style="fill:#000000;fill-opacity:1;fill-rule:nonzero;stroke:none"
     id="path2484" />
  <path
     d="M 148.066 216.552 C 124.566 240.811 100.266 273.069 80.7142 303.358 C 61.1636 333.652 46.5849 360.902 44.2543 359.933 C 41.9236 358.962 54.0622 326.093 77.7302 287.52 C 95.1115 259.191 117.254 230.68 139.173 207.957 C 162.75 183.624 189.845 161.751 215.179 145.274 C 219.642 134.952 224.848 124.923 230.908 115.339 C 253.927 79.035 287.182 53.1751 324.498 38.9164 C 161.707 71.6484 38.1063 212.627 31.997 383.566 C 90.9835 358.873 144.566 323.845 190.501 280.761 C 190.685 244.703 194.669 203.879 207.463 165.528 C 187.235 179.984 166.383 197.556 148.066 216.552"
     style="fill:#000000;fill-opacity:1;fill-rule:nonzero;stroke:none"
     id="path2488" />
  <path
     d="M 526.362 217.083 C 539.169 242.67 548.61 270.891 556.167 294.713 C 563.967 319.291 573.534 359.7 576.554 359.076 C 579.573 358.452 573.502 318.155 566.075 288.825 C 558.459 258.752 550.169 237.074 537.422 211.551 C 522.293 181.332 505.198 157.144 489.333 138.747 C 488.858 108.982 481.226 81.5887 467.099 60.5354 C 462.857 54.1794 457.954 48.4101 452.472 43.3821 C 493.315 55.5461 530.087 81.7407 554.667 120.493 C 614.815 215.319 588.615 362.083 583.646 383.604 C 583.646 383.604 518.965 330.805 471.019 269.115 C 480.558 238.15 487.654 201.14 489.101 157.936 C 501.655 173.936 514.654 193.639 526.362 217.083"
     style="fill:#000000;fill-opacity:1;fill-rule:nonzero;stroke:none"
     id="path2492" />
  <path
     d="M 645.634 216.552 C 669.134 240.811 693.435 273.069 712.986 303.358 C 732.538 333.652 747.114 360.902 749.446 359.933 C 751.776 358.962 739.638 326.093 715.97 287.52 C 698.589 259.191 676.446 230.68 654.527 207.957 C 630.95 183.624 603.855 161.751 578.521 145.274 C 574.058 134.952 568.85 124.923 562.792 115.339 C 539.773 79.035 506.518 53.1751 469.202 38.9164 C 631.993 71.6484 755.594 212.627 761.703 383.566 C 702.717 358.873 649.133 323.845 603.199 280.761 C 603.015 244.703 599.031 203.879 586.235 165.528 C 606.465 179.984 627.317 197.556 645.634 216.552"
     style="fill:#000000;fill-opacity:1;fill-rule:nonzero;stroke:none"
     id="path2496" />
  <path
     d="M 403.035 761.763 C 450.286 758.863 479.757 710.632 479.757 652.127 C 479.757 487.997 396.85 410.1 396.85 410.1 C 396.85 410.1 313.943 487.997 313.943 652.127 C 313.943 710.632 343.415 758.863 390.666 761.763 L 390.666 549.381 C 390.666 491.661 394.035 437.221 396.85 437.221 C 399.664 437.221 403.035 491.661 403.035 549.381 Z"
     style="fill:#000000;fill-opacity:1;fill-rule:nonzero;stroke:none"
     id="path2500" />
  <path
     d="M 267.339 576.619 C 254.532 551.034 245.091 522.81 237.534 498.99 C 229.734 474.411 220.168 434.002 217.147 434.626 C 214.128 435.251 220.199 475.547 227.626 504.875 C 235.242 534.95 243.532 556.628 256.279 582.15 C 271.408 612.37 288.503 636.559 304.368 654.956 C 304.842 684.719 312.475 712.113 326.602 733.164 C 330.844 739.523 335.747 745.292 341.228 750.321 C 300.386 738.157 263.614 711.963 239.034 673.211 C 178.887 578.383 205.086 431.618 210.055 410.098 C 210.055 410.098 274.735 462.898 322.682 524.587 C 313.142 555.554 306.048 592.562 304.6 635.767 C 292.046 619.767 279.047 600.066 267.339 576.619"
     style="fill:#000000;fill-opacity:1;fill-rule:nonzero;stroke:none"
     id="path2504" />
  <path
     d="M 148.066 577.151 C 124.566 552.895 100.266 520.634 80.7142 490.343 C 61.1636 460.051 46.5849 432.798 44.2543 433.771 C 41.9236 434.742 54.0622 467.61 77.7302 506.183 C 95.1115 534.512 117.254 563.023 139.173 585.746 C 162.75 610.078 189.845 631.952 215.179 648.432 C 219.642 658.751 224.848 668.781 230.908 678.364 C 253.927 714.668 287.182 740.528 324.498 754.787 C 161.707 722.056 38.1063 581.075 31.997 410.137 C 90.9835 434.83 144.566 469.857 190.501 512.942 C 190.685 548.999 194.669 589.826 207.463 628.175 C 187.235 613.72 166.383 596.147 148.066 577.151"
     style="fill:#000000;fill-opacity:1;fill-rule:nonzero;stroke:none"
     id="path2508" />
  <path
     d="M 526.362 576.619 C 539.169 551.034 548.61 522.81 556.167 498.99 C 563.967 474.411 573.534 434.002 576.554 434.626 C 579.573 435.251 573.502 475.547 566.075 504.875 C 558.459 534.95 550.169 556.628 537.422 582.15 C 522.293 612.37 505.198 636.559 489.333 654.956 C 488.858 684.719 481.226 712.113 467.099 733.164 C 462.857 739.523 457.954 745.292 452.472 750.321 C 493.315 738.157 530.087 711.963 554.667 673.211 C 614.815 578.383 588.615 431.618 583.646 410.098 C 583.646 410.098 518.965 462.898 471.019 524.587 C 480.558 555.554 487.654 592.562 489.101 635.767 C 501.655 619.767 514.654 600.066 526.362 576.619"
     style="fill:#000000;fill-opacity:1;fill-rule:nonzero;stroke:none"
     id="path2512" />
  <path
     d="M 645.634 577.151 C 669.134 552.895 693.435 520.634 712.986 490.343 C 732.538 460.051 747.114 432.798 749.446 433.771 C 751.776 434.742 739.638 467.61 715.97 506.183 C 698.589 534.512 676.446 563.023 654.527 585.746 C 630.95 610.078 603.855 631.952 578.521 648.432 C 574.058 658.751 568.85 668.781 562.792 678.364 C 539.773 714.668 506.518 740.528 469.202 754.787 C 631.993 722.056 755.594 581.075 761.703 410.137 C 702.717 434.83 649.133 469.857 603.199 512.942 C 603.015 548.999 599.031 589.826 586.235 628.175 C 606.465 613.72 627.317 596.147 645.634 577.151"
     style="fill:#000000;fill-opacity:1;fill-rule:nonzero;stroke:none"
     id="path2516" />
</svg>
