<?xml version="1.0" encoding="UTF-8" standalone="no"?>
<!-- Created with Inkscape (http://www.inkscape.org/) -->

<svg
   version="1.1"
   id="svg4266"
   width="795.03467"
   height="793.70135"
   viewBox="0 0 795.03467 793.70135"
   sodipodi:docname="Takenaka Hanbee Kamon.svg"
   inkscape:version="1.2 (dc2aeda, 2022-05-15)"
   xmlns:inkscape="http://www.inkscape.org/namespaces/inkscape"
   xmlns:sodipodi="http://sodipodi.sourceforge.net/DTD/sodipodi-0.dtd"
   xmlns="http://www.w3.org/2000/svg"
   xmlns:svg="http://www.w3.org/2000/svg">
  <defs
     id="defs4270">
    <clipPath
       clipPathUnits="userSpaceOnUse"
       id="clipPath4885">
      <path
         d="M -531.1924,581.5885 H 65.083599 V -13.6875 H -531.1924 Z"
         id="path4887"
         style="stroke-width:0.999998" />
    </clipPath>
    <clipPath
       clipPathUnits="userSpaceOnUse"
       id="clipPath4891">
      <path
         d="M -567.7754,585.8522 H 28.500601 V -9.4238027 H -567.7754 Z"
         id="path4893"
         style="stroke-width:0.999998" />
    </clipPath>
    <clipPath
       clipPathUnits="userSpaceOnUse"
       id="clipPath4898">
      <path
         d="M -568.2266,575.819 H 28.049401 V -19.457003 H -568.2266 Z"
         id="path4900"
         style="stroke-width:0.999998" />
    </clipPath>
    <clipPath
       clipPathUnits="userSpaceOnUse"
       id="clipPath4905">
      <path
         d="M -574.5459,585.8522 H 21.730103 V -9.4238027 H -574.5459 Z"
         id="path4907"
         style="stroke-width:0.999998" />
    </clipPath>
    <clipPath
       clipPathUnits="userSpaceOnUse"
       id="clipPath4911">
      <path
         d="M -564.5732,585.8483 H 31.702801 V -9.4277027 H -564.5732 Z"
         id="path4913"
         style="stroke-width:0.999998" />
    </clipPath>
    <clipPath
       clipPathUnits="userSpaceOnUse"
       id="clipPath4917">
      <path
         d="M -561.4131,585.8522 H 34.862903 V -9.4238027 H -561.4131 Z"
         id="path4919"
         style="stroke-width:0.999998" />
    </clipPath>
    <clipPath
       clipPathUnits="userSpaceOnUse"
       id="clipPath4923">
      <path
         d="M -550.2637,577.3248 H 46.012306 V -17.951198 H -550.2637 Z"
         id="path4925"
         style="stroke-width:0.999998" />
    </clipPath>
    <clipPath
       clipPathUnits="userSpaceOnUse"
       id="clipPath4929">
      <path
         d="M -572.8174,586.1354 H 23.458606 V -9.1406027 H -572.8174 Z"
         id="path4931"
         style="stroke-width:0.999998" />
    </clipPath>
    <clipPath
       clipPathUnits="userSpaceOnUse"
       id="clipPath4935">
      <path
         d="M -557.0645,585.8483 H 39.211501 V -9.4277027 H -557.0645 Z"
         id="path4937"
         style="stroke-width:0.999998" />
    </clipPath>
    <clipPath
       clipPathUnits="userSpaceOnUse"
       id="clipPath4941">
      <path
         d="M -557.4951,577.8502 H 38.780903 V -17.4258 H -557.4951 Z"
         id="path4943"
         style="stroke-width:0.999998" />
    </clipPath>
    <clipPath
       clipPathUnits="userSpaceOnUse"
       id="clipPath4947">
      <path
         d="M -576.3691,585.5885 H 19.906905 V -9.6875027 H -576.3691 Z"
         id="path4949"
         style="stroke-width:0.999998" />
    </clipPath>
    <clipPath
       clipPathUnits="userSpaceOnUse"
       id="clipPath4953">
      <path
         d="M -553.8975,585.8483 H 42.378504 V -9.4277027 H -553.8975 Z"
         id="path4955"
         style="stroke-width:0.999998" />
    </clipPath>
    <clipPath
       clipPathUnits="userSpaceOnUse"
       id="clipPath4959">
      <path
         d="M -548.9834,585.8522 H 47.292601 V -9.4238027 H -548.9834 Z"
         id="path4961"
         style="stroke-width:0.999998" />
    </clipPath>
    <clipPath
       clipPathUnits="userSpaceOnUse"
       id="clipPath4965">
      <path
         d="M -536.6982,584.5729 H 59.577804 V -10.7031 H -536.6982 Z"
         id="path4967"
         style="stroke-width:0.999998" />
    </clipPath>
    <clipPath
       clipPathUnits="userSpaceOnUse"
       id="clipPath4971">
      <path
         d="M -540.8213,585.8483 H 55.454701 V -9.4277027 H -540.8213 Z"
         id="path4973"
         style="stroke-width:0.999998" />
    </clipPath>
    <clipPath
       clipPathUnits="userSpaceOnUse"
       id="clipPath4977">
      <path
         d="M -528.0898,575.3815 H 68.186199 V -19.8945 H -528.0898 Z"
         id="path4979"
         style="stroke-width:0.999998" />
    </clipPath>
    <clipPath
       clipPathUnits="userSpaceOnUse"
       id="clipPath4983">
      <path
         d="M -545.417,584.5729 H 50.859001 V -10.7031 H -545.417 Z"
         id="path4985"
         style="stroke-width:0.999998" />
    </clipPath>
    <clipPath
       clipPathUnits="userSpaceOnUse"
       id="clipPath4989">
      <path
         d="M -542.9326,584.5729 H 53.343399 V -10.7031 H -542.9326 Z"
         id="path4991"
         style="stroke-width:0.999998" />
    </clipPath>
    <clipPath
       clipPathUnits="userSpaceOnUse"
       id="clipPath4995">
      <path
         d="m -103.7715,405.3541 h 596.276 v -595.276 h -596.276 z"
         id="path4997"
         style="stroke-width:0.999998" />
    </clipPath>
    <clipPath
       clipPathUnits="userSpaceOnUse"
       id="clipPath5001">
      <path
         d="m -475.1885,176.0426 h 596.276 v -595.276 h -596.276 z"
         id="path5003"
         style="stroke-width:0.999998" />
    </clipPath>
    <clipPath
       clipPathUnits="userSpaceOnUse"
       id="clipPath5007">
      <path
         d="M -586.5449,579.5026 H 9.7311002 V -15.7734 H -586.5449 Z"
         id="path5009"
         style="stroke-width:0.999998" />
    </clipPath>
    <clipPath
       clipPathUnits="userSpaceOnUse"
       id="clipPath5013">
      <path
         d="M -584.1943,578.9381 H 12.081705 V -16.337903 H -584.1943 Z"
         id="path5015"
         style="stroke-width:0.999998" />
    </clipPath>
    <clipPath
       clipPathUnits="userSpaceOnUse"
       id="clipPath5019">
      <path
         d="m -120.083,176.0426 h 596.276 v -595.276 h -596.276 z"
         id="path5021"
         style="stroke-width:0.999998" />
    </clipPath>
    <clipPath
       clipPathUnits="userSpaceOnUse"
       id="clipPath5025">
      <path
         d="M -538.2217,577.9479 H 58.054299 V -17.328098 H -538.2217 Z"
         id="path5027"
         style="stroke-width:0.999998" />
    </clipPath>
    <clipPath
       clipPathUnits="userSpaceOnUse"
       id="clipPath5031">
      <path
         d="M -556.4014,578.0143 H 39.874606 V -17.2617 H -556.4014 Z"
         id="path5033"
         style="stroke-width:0.999998" />
    </clipPath>
    <clipPath
       clipPathUnits="userSpaceOnUse"
       id="clipPath5037">
      <path
         d="m -301.2803,75.8849 h 596.276 v -595.276 h -596.276 z"
         id="path5039"
         style="stroke-width:0.999998" />
    </clipPath>
    <clipPath
       clipPathUnits="userSpaceOnUse"
       id="clipPath5043">
      <path
         d="m -491.7129,204.6666 h 596.27601 v -595.276 H -491.7129 Z"
         id="path5045"
         style="stroke-width:0.999998" />
    </clipPath>
    <clipPath
       clipPathUnits="userSpaceOnUse"
       id="clipPath5049">
      <path
         d="m -297.6357,526.4791 h 596.276 V -68.796902 h -596.276 z"
         id="path5051"
         style="stroke-width:0.999998" />
    </clipPath>
    <clipPath
       clipPathUnits="userSpaceOnUse"
       id="clipPath5055">
      <path
         d="m -487.8545,411.6676 h 596.276 v -595.276 h -596.276 z"
         id="path5057"
         style="stroke-width:0.999998" />
    </clipPath>
    <clipPath
       clipPathUnits="userSpaceOnUse"
       id="clipPath5061">
      <path
         d="m -103.5576,204.6666 h 596.276 v -595.276 h -596.276 z"
         id="path5063"
         style="stroke-width:0.999998" />
    </clipPath>
    <clipPath
       clipPathUnits="userSpaceOnUse"
       id="clipPath5067">
      <path
         d="m -314.1611,512.1959 h 596.276 V -83.080097 h -596.276 z"
         id="path5069"
         style="stroke-width:0.999998" />
    </clipPath>
    <clipPath
       clipPathUnits="userSpaceOnUse"
       id="clipPath5073">
      <path
         d="m -281.1104,512.1959 h 596.276 V -83.080097 h -596.276 z"
         id="path5075"
         style="stroke-width:0.999998" />
    </clipPath>
  </defs>
  <sodipodi:namedview
     id="namedview4268"
     pagecolor="#ffffff"
     bordercolor="#000000"
     borderopacity="0.25"
     inkscape:showpageshadow="2"
     inkscape:pageopacity="0.0"
     inkscape:pagecheckerboard="0"
     inkscape:deskcolor="#d1d1d1"
     showgrid="false"
     inkscape:zoom="0.29734106"
     inkscape:cx="-215.24105"
     inkscape:cy="396.85068"
     inkscape:window-width="1419"
     inkscape:window-height="456"
     inkscape:window-x="0"
     inkscape:window-y="25"
     inkscape:window-maximized="0"
     inkscape:current-layer="svg4266">
    <inkscape:page
       x="0"
       y="0"
       id="page4272"
       width="795.03467"
       height="793.70135" />
  </sodipodi:namedview>
  <path
     d="M 401.707 101.18 L 401.707 302.999 C 401.707 337.743 398.551 364.027 396.846 364.027 C 395.142 364.027 391.986 337.743 391.986 302.999 L 391.986 101.18 C 333.902 103.956 309.918 156.553 309.918 210.157 C 309.918 298.184 396.847 387.126 396.847 387.126 C 396.847 387.126 483.777 298.184 483.777 210.157 C 483.777 156.553 459.791 103.956 401.707 101.18"
     style="fill:#000000;fill-opacity:1;fill-rule:nonzero;stroke:none"
     id="path4386" />
  <path
     d="M 160.111 234.723 C 158.95 233.392 175.49 219.552 199.296 208.095 C 216.219 199.95 237.016 191.326 256.759 185.08 C 272.233 180.186 288.047 176.062 304.157 172.751 C 305.972 164.57 308.431 156.621 311.612 149.07 C 319.055 131.407 330.585 115.801 346.813 105.277 C 260.335 120.013 186.654 172.288 143.126 244.747 C 180.74 254.847 220.283 260.239 261.087 260.239 C 276.723 260.239 292.173 259.442 307.403 257.898 C 302.952 242.454 300.235 226.408 300.195 210.155 C 300.2 201.071 300.856 191.991 302.215 183.104 C 287.775 186.2 273.581 189.966 259.671 194.366 C 238.407 201.09 217.354 209.116 197.059 217.647 C 174.544 227.114 161.272 236.056 160.111 234.723"
     style="fill:#000000;fill-opacity:1;fill-rule:nonzero;stroke:none"
     id="path4390" />
  <path
     d="M 633.585 234.723 C 634.744 233.392 618.205 219.552 594.397 208.095 C 577.476 199.95 556.679 191.326 536.935 185.08 C 521.463 180.186 505.648 176.062 489.539 172.751 C 487.723 164.57 485.265 156.621 482.083 149.07 C 474.64 131.407 463.109 115.801 446.883 105.277 C 533.361 120.013 607.041 172.288 650.569 244.747 C 612.954 254.847 573.413 260.239 532.609 260.239 C 516.972 260.239 501.523 259.442 486.291 257.898 C 490.744 242.454 493.46 226.408 493.5 210.155 C 493.495 201.071 492.84 191.991 491.479 183.104 C 505.921 186.2 520.113 189.966 534.025 194.366 C 555.288 201.09 576.34 209.116 596.636 217.647 C 619.15 227.114 632.424 236.056 633.585 234.723"
     style="fill:#000000;fill-opacity:1;fill-rule:nonzero;stroke:none"
     id="path4394" />
  <path
     d="M 138.362 540.472 C 173.47 520.203 293.612 450.836 313.143 439.563 C 343.232 422.19 367.573 411.782 368.425 413.258 C 369.277 414.731 348.092 430.611 318.003 447.98 C 298.475 459.256 178.333 528.62 143.223 548.891 C 174.667 597.805 232.212 592.277 278.632 565.476 C 354.867 521.461 388.428 401.708 388.428 401.708 C 388.428 401.708 267.938 370.895 191.705 414.908 C 145.281 441.71 111.723 488.781 138.362 540.472"
     style="fill:#000000;fill-opacity:1;fill-rule:nonzero;stroke:none"
     id="path4398" />
  <path
     d="M 374.814 682.928 C 374.238 684.601 353.985 677.196 332.158 662.308 C 316.643 651.724 298.776 638.025 283.496 624.051 C 271.521 613.098 260.042 601.464 249.12 589.167 C 241.126 591.686 233.013 593.532 224.885 594.552 C 205.866 596.939 186.585 594.754 169.356 585.963 C 225.358 653.488 307.47 691.159 391.986 692.628 C 381.926 655.003 366.822 618.061 346.421 582.726 C 338.603 569.183 330.187 556.2 321.235 543.783 C 310.087 555.36 297.549 565.735 283.494 573.898 C 275.624 578.434 267.434 582.408 259.057 585.674 C 268.958 596.631 279.317 607.04 290.082 616.887 C 306.538 631.939 324.014 646.157 341.551 659.468 C 361.005 674.233 375.387 681.256 374.814 682.928"
     style="fill:#000000;fill-opacity:1;fill-rule:nonzero;stroke:none"
     id="path4402" />
  <path
     d="M 138.077 272.889 C 136.342 272.55 132.626 293.794 134.608 320.14 C 136.014 338.868 138.944 361.191 143.408 381.411 C 146.905 397.257 151.241 413.015 156.43 428.623 C 150.252 434.286 144.597 440.39 139.648 446.919 C 128.073 462.195 120.325 479.987 119.322 499.303 C 88.8451 417.042 97.2771 327.093 138.262 253.169 C 165.817 280.693 190.257 312.242 210.661 347.581 C 218.478 361.122 225.514 374.901 231.79 388.861 C 216.191 392.727 200.937 398.398 186.842 406.49 C 178.977 411.035 171.441 416.142 164.425 421.765 C 159.884 407.71 156.049 393.535 152.905 379.289 C 148.098 357.513 144.521 335.265 141.762 313.425 C 138.702 289.194 139.812 273.229 138.077 272.889"
     style="fill:#000000;fill-opacity:1;fill-rule:nonzero;stroke:none"
     id="path4406" />
  <path
     d="M 650.473 548.89 C 615.364 528.621 495.221 459.253 475.691 447.98 C 445.603 430.608 424.418 414.732 425.271 413.256 C 426.122 411.781 450.463 422.19 480.552 439.561 C 500.08 450.837 620.225 520.201 655.333 540.471 C 681.97 488.782 648.413 441.709 601.992 414.909 C 525.757 370.896 405.268 401.708 405.268 401.708 C 405.268 401.708 438.828 521.462 515.061 565.475 C 561.483 592.277 619.026 597.806 650.473 548.89"
     style="fill:#000000;fill-opacity:1;fill-rule:nonzero;stroke:none"
     id="path4410" />
  <path
     d="M 655.617 272.889 C 657.352 272.55 661.069 293.794 659.088 320.14 C 657.678 338.868 654.749 361.191 650.285 381.411 C 646.788 397.258 642.453 413.015 637.264 428.623 C 643.441 434.286 649.097 440.39 654.045 446.918 C 665.621 462.195 673.369 479.986 674.37 499.303 C 704.849 417.042 696.416 327.094 655.43 253.169 C 627.876 280.693 603.436 312.244 583.035 347.581 C 575.215 361.122 568.18 374.901 561.903 388.861 C 577.503 392.727 592.757 398.398 606.853 406.489 C 614.717 411.035 622.254 416.142 629.269 421.765 C 633.809 407.71 637.645 393.535 640.79 379.289 C 645.596 357.513 649.173 335.266 651.93 313.426 C 654.993 289.194 653.884 273.229 655.617 272.889"
     style="fill:#000000;fill-opacity:1;fill-rule:nonzero;stroke:none"
     id="path4414" />
  <path
     d="M 418.881 682.928 C 419.454 684.601 439.709 677.196 461.534 662.308 C 477.05 651.724 494.917 638.025 510.198 624.051 C 522.171 613.098 533.651 601.464 544.574 589.168 C 552.567 591.686 560.681 593.532 568.81 594.552 C 587.829 596.939 607.109 594.754 624.338 585.963 C 568.335 653.488 486.223 691.159 401.709 692.628 C 411.769 655.003 426.87 618.061 447.272 582.726 C 455.09 569.183 463.506 556.2 472.457 543.783 C 483.608 555.36 496.143 565.735 510.199 573.898 C 518.071 578.436 526.261 582.408 534.635 585.674 C 524.735 596.631 514.378 607.04 503.613 616.887 C 487.155 631.939 469.68 646.16 452.144 659.468 C 432.688 674.233 418.308 681.256 418.881 682.928"
     style="fill:#000000;fill-opacity:1;fill-rule:nonzero;stroke:none"
     id="path4418" />
  <path
     d="M 396.848 701.972 C 228.332 701.972 91.7234 565.363 91.7234 396.849 C 91.7234 228.335 228.332 91.7255 396.848 91.7255 C 565.361 91.7255 701.97 228.335 701.97 396.849 C 701.97 565.363 565.361 701.972 396.848 701.972 M 396.851 31.7297 C 195.201 31.7297 31.7289 195.201 31.7289 396.853 C 31.7289 598.503 195.201 761.975 396.851 761.975 C 598.501 761.975 761.972 598.503 761.972 396.853 C 761.972 195.201 598.501 31.7297 396.851 31.7297"
     style="fill:#000000;fill-opacity:1;fill-rule:nonzero;stroke:none"
     id="path4422" />
</svg>
