<?xml version="1.0" encoding="UTF-8" standalone="no"?>
<!-- Created with Inkscape (http://www.inkscape.org/) -->

<svg
   version="1.1"
   id="svg6215"
   width="793.70135"
   height="793.70135"
   viewBox="0 0 793.70135 793.70135"
   sodipodi:docname="Itowani Janome Kuzushi.svg"
   inkscape:version="1.2 (dc2aeda, 2022-05-15)"
   xmlns:inkscape="http://www.inkscape.org/namespaces/inkscape"
   xmlns:sodipodi="http://sodipodi.sourceforge.net/DTD/sodipodi-0.dtd"
   xmlns="http://www.w3.org/2000/svg"
   xmlns:svg="http://www.w3.org/2000/svg">
  <defs
     id="defs6219">
    <clipPath
       clipPathUnits="userSpaceOnUse"
       id="clipPath6708">
      <path
         d="m -420.4404,226.7418 h 595.27599 v -595.276 H -420.4404 Z"
         id="path6710"
         style="stroke-width:0.999998" />
    </clipPath>
    <clipPath
       clipPathUnits="userSpaceOnUse"
       id="clipPath6714">
      <path
         d="M -548.9834,585.8522 H 46.292596 V -9.4238027 H -548.9834 Z"
         id="path6716"
         style="stroke-width:0.999998" />
    </clipPath>
    <clipPath
       clipPathUnits="userSpaceOnUse"
       id="clipPath6720">
      <path
         d="M -553.8975,585.8483 H 41.378499 V -9.4277027 H -553.8975 Z"
         id="path6722"
         style="stroke-width:0.999998" />
    </clipPath>
    <clipPath
       clipPathUnits="userSpaceOnUse"
       id="clipPath6727">
      <path
         d="M -556.4014,578.0143 H 38.874601 V -17.2617 H -556.4014 Z"
         id="path6729"
         style="stroke-width:0.999998" />
    </clipPath>
    <clipPath
       clipPathUnits="userSpaceOnUse"
       id="clipPath6733">
      <path
         d="M -538.2217,577.9479 H 57.054294 V -17.328098 H -538.2217 Z"
         id="path6735"
         style="stroke-width:0.999998" />
    </clipPath>
    <clipPath
       clipPathUnits="userSpaceOnUse"
       id="clipPath6739">
      <path
         d="M -545.417,584.5729 H 49.858996 V -10.7031 H -545.417 Z"
         id="path6741"
         style="stroke-width:0.999998" />
    </clipPath>
    <clipPath
       clipPathUnits="userSpaceOnUse"
       id="clipPath6745">
      <path
         d="M -574.5459,585.8522 H 20.730098 V -9.4238027 H -574.5459 Z"
         id="path6747"
         style="stroke-width:0.999998" />
    </clipPath>
    <clipPath
       clipPathUnits="userSpaceOnUse"
       id="clipPath6751">
      <path
         d="M -576.3691,585.5885 H 18.9069 V -9.6875027 h -595.276 z"
         id="path6753"
         style="stroke-width:0.999998" />
    </clipPath>
    <clipPath
       clipPathUnits="userSpaceOnUse"
       id="clipPath6757">
      <path
         d="M -561.4131,585.8522 H 33.862898 V -9.4238027 H -561.4131 Z"
         id="path6759"
         style="stroke-width:0.999998" />
    </clipPath>
    <clipPath
       clipPathUnits="userSpaceOnUse"
       id="clipPath6763">
      <path
         d="M -550.2637,577.3248 H 45.012301 V -17.951198 H -550.2637 Z"
         id="path6765"
         style="stroke-width:0.999998" />
    </clipPath>
    <clipPath
       clipPathUnits="userSpaceOnUse"
       id="clipPath6769">
      <path
         d="M -567.7754,585.8522 H 27.500596 V -9.4238027 H -567.7754 Z"
         id="path6771"
         style="stroke-width:0.999998" />
    </clipPath>
    <clipPath
       clipPathUnits="userSpaceOnUse"
       id="clipPath6776">
      <path
         d="M -564.5732,585.8483 H 30.702796 V -9.4277027 H -564.5732 Z"
         id="path6778"
         style="stroke-width:0.999998" />
    </clipPath>
    <clipPath
       clipPathUnits="userSpaceOnUse"
       id="clipPath6782">
      <path
         d="M -568.2266,575.819 H 27.049396 V -19.457003 H -568.2266 Z"
         id="path6784"
         style="stroke-width:0.999998" />
    </clipPath>
    <clipPath
       clipPathUnits="userSpaceOnUse"
       id="clipPath6788">
      <path
         d="M -586.5449,579.5026 H 8.7310952 V -15.7734 H -586.5449 Z"
         id="path6790"
         style="stroke-width:0.999998" />
    </clipPath>
    <clipPath
       clipPathUnits="userSpaceOnUse"
       id="clipPath6794">
      <path
         d="M -572.8174,586.1354 H 22.458601 V -9.1406027 H -572.8174 Z"
         id="path6796"
         style="stroke-width:0.999998" />
    </clipPath>
    <clipPath
       clipPathUnits="userSpaceOnUse"
       id="clipPath6800">
      <path
         d="M -557.0645,585.8483 H 38.211496 V -9.4277027 H -557.0645 Z"
         id="path6802"
         style="stroke-width:0.999998" />
    </clipPath>
    <clipPath
       clipPathUnits="userSpaceOnUse"
       id="clipPath6806">
      <path
         d="M -557.4951,577.8502 H 37.780898 V -17.4258 H -557.4951 Z"
         id="path6808"
         style="stroke-width:0.999998" />
    </clipPath>
    <clipPath
       clipPathUnits="userSpaceOnUse"
       id="clipPath6812">
      <path
         d="M -584.1943,578.9381 H 11.0817 V -16.337903 h -595.276 z"
         id="path6814"
         style="stroke-width:0.999998" />
    </clipPath>
    <clipPath
       clipPathUnits="userSpaceOnUse"
       id="clipPath6818">
      <path
         d="M -540.8213,585.8483 H 54.454696 V -9.4277027 H -540.8213 Z"
         id="path6820"
         style="stroke-width:0.999998" />
    </clipPath>
    <clipPath
       clipPathUnits="userSpaceOnUse"
       id="clipPath6824">
      <path
         d="M -542.9326,584.5729 H 52.343394 V -10.7031 H -542.9326 Z"
         id="path6826"
         style="stroke-width:0.999998" />
    </clipPath>
    <clipPath
       clipPathUnits="userSpaceOnUse"
       id="clipPath6830">
      <path
         d="M -528.0898,575.3815 H 67.186194 V -19.8945 H -528.0898 Z"
         id="path6832"
         style="stroke-width:0.999998" />
    </clipPath>
    <clipPath
       clipPathUnits="userSpaceOnUse"
       id="clipPath6836">
      <path
         d="M -536.6982,584.5729 H 58.577799 V -10.7031 H -536.6982 Z"
         id="path6838"
         style="stroke-width:0.999998" />
    </clipPath>
    <clipPath
       clipPathUnits="userSpaceOnUse"
       id="clipPath6842">
      <path
         d="M -531.1924,581.5885 H 64.083594 V -13.6875 H -531.1924 Z"
         id="path6844"
         style="stroke-width:0.999998" />
    </clipPath>
  </defs>
  <sodipodi:namedview
     id="namedview6217"
     pagecolor="#ffffff"
     bordercolor="#000000"
     borderopacity="0.25"
     inkscape:showpageshadow="2"
     inkscape:pageopacity="0.0"
     inkscape:pagecheckerboard="0"
     inkscape:deskcolor="#d1d1d1"
     showgrid="false"
     inkscape:zoom="0.29734106"
     inkscape:cx="-215.24105"
     inkscape:cy="396.85068"
     inkscape:window-width="1419"
     inkscape:window-height="456"
     inkscape:window-x="1920"
     inkscape:window-y="142"
     inkscape:window-maximized="0"
     inkscape:current-layer="svg6215">
    <inkscape:page
       x="0"
       y="0"
       id="page6221"
       width="793.70135"
       height="793.70135" />
  </sodipodi:namedview>
  <path
     d="M 560.587 302.322 C 594.394 360.877 656.375 393.016 719.52 391.516 C 718.923 353.253 711.509 314.711 696.768 277.731 C 680.544 273.125 666.021 262.461 656.923 246.699 C 647.823 230.94 645.849 213.03 649.973 196.68 C 625.318 165.421 595.646 139.729 562.808 120.077 C 529.935 174.016 526.78 243.765 560.587 302.322 M 560.583 491.39 C 526.776 549.945 529.931 619.691 562.804 673.626 C 595.642 653.977 625.314 628.288 649.968 597.029 C 645.845 580.677 647.82 562.768 656.919 547.009 C 666.017 531.247 680.541 520.584 696.764 515.977 C 711.505 478.999 718.92 440.455 719.52 402.191 C 656.372 400.691 594.39 432.835 560.583 491.39 M 396.841 585.92 C 329.228 585.92 270.402 623.525 240.129 678.961 C 273.565 697.576 310.65 710.428 350.048 716.15 C 362.149 704.405 378.645 697.16 396.842 697.16 C 415.042 697.158 431.538 704.405 443.638 716.15 C 483.035 710.428 520.12 697.576 553.559 678.964 C 523.283 623.527 464.455 585.92 396.841 585.92 M 233.106 491.382 C 199.299 432.827 137.319 400.684 74.1722 402.186 C 74.7709 440.45 82.1829 478.991 96.9255 515.971 C 113.149 520.579 127.671 531.241 136.771 547.001 C 145.871 562.761 147.843 580.672 143.721 597.024 C 168.376 628.281 198.048 653.972 230.885 673.625 C 263.758 619.685 266.913 549.936 233.106 491.382 M 233.112 302.311 C 266.917 243.757 263.762 174.01 230.89 120.074 C 198.052 139.724 168.38 165.414 143.725 196.672 C 147.847 213.025 145.873 230.934 136.775 246.694 C 127.675 262.455 113.152 273.119 96.9295 277.725 C 82.1869 314.705 74.7735 353.246 74.1722 391.511 C 137.321 393.012 199.304 360.869 233.112 302.311 M 396.851 207.784 C 464.465 207.784 523.29 170.177 553.563 114.738 C 520.127 96.1278 483.043 83.2759 443.646 77.5519 C 431.545 89.2985 415.049 96.5438 396.85 96.5438 C 378.651 96.5438 362.155 89.2985 350.056 77.5519 C 310.658 83.2745 273.572 96.1252 240.134 114.737 C 270.409 170.176 329.237 207.784 396.851 207.784 M 396.85 464.047 C 359.74 464.044 329.66 433.964 329.661 396.858 C 329.658 359.746 359.742 329.666 396.85 329.666 C 433.958 329.666 464.043 359.75 464.042 396.858 C 464.039 433.962 433.959 464.046 396.85 464.047 M 396.85 218.449 C 298.321 218.449 218.447 298.322 218.445 396.854 C 218.445 495.387 298.321 575.264 396.851 575.261 C 495.383 575.261 575.255 495.387 575.259 396.854 C 575.255 298.325 495.383 218.449 396.85 218.449 M 396.85 733.517 C 210.905 733.51 60.1843 582.789 60.1709 396.846 C 60.1843 210.905 210.905 60.1919 396.85 60.1839 C 582.784 60.1919 733.511 210.905 733.521 396.846 C 733.511 582.789 582.784 733.51 396.85 733.517 M 396.85 31.7293 C 195.189 31.7387 31.7283 195.189 31.7137 396.846 C 31.7283 598.505 195.189 761.964 396.85 761.973 C 598.502 761.964 761.966 598.505 761.977 396.846 C 761.966 195.189 598.502 31.7387 396.85 31.7293"
     style="fill:#000000;fill-opacity:1;fill-rule:nonzero;stroke:none"
     id="path6335" />
</svg>
