<?xml version="1.0" encoding="UTF-8" standalone="no"?>
<!-- Created with Inkscape (http://www.inkscape.org/) -->

<svg
   version="1.1"
   id="svg8759"
   width="793.70135"
   height="793.70135"
   viewBox="0 0 793.70135 793.70135"
   sodipodi:docname="Itsutsu Ken Janome.svg"
   inkscape:version="1.2 (dc2aeda, 2022-05-15)"
   xmlns:inkscape="http://www.inkscape.org/namespaces/inkscape"
   xmlns:sodipodi="http://sodipodi.sourceforge.net/DTD/sodipodi-0.dtd"
   xmlns="http://www.w3.org/2000/svg"
   xmlns:svg="http://www.w3.org/2000/svg">
  <defs
     id="defs8763">
    <clipPath
       clipPathUnits="userSpaceOnUse"
       id="clipPath9476">
      <path
         d="M -531.1924,581.5885 H 64.083594 V -13.6875 H -531.1924 Z"
         id="path9478"
         style="stroke-width:0.999998" />
    </clipPath>
    <clipPath
       clipPathUnits="userSpaceOnUse"
       id="clipPath9482">
      <path
         d="M -553.8975,585.8483 H 41.378499 V -9.4277027 H -553.8975 Z"
         id="path9484"
         style="stroke-width:0.999998" />
    </clipPath>
    <clipPath
       clipPathUnits="userSpaceOnUse"
       id="clipPath9488">
      <path
         d="M -548.9834,585.8522 H 46.292596 V -9.4238027 H -548.9834 Z"
         id="path9490"
         style="stroke-width:0.999998" />
    </clipPath>
    <clipPath
       clipPathUnits="userSpaceOnUse"
       id="clipPath9494">
      <path
         d="M -572.8174,586.1354 H 22.458601 V -9.1406027 H -572.8174 Z"
         id="path9496"
         style="stroke-width:0.999998" />
    </clipPath>
    <clipPath
       clipPathUnits="userSpaceOnUse"
       id="clipPath9500">
      <path
         d="M -542.9326,584.5729 H 52.343394 V -10.7031 H -542.9326 Z"
         id="path9502"
         style="stroke-width:0.999998" />
    </clipPath>
    <clipPath
       clipPathUnits="userSpaceOnUse"
       id="clipPath9506">
      <path
         d="M -564.5732,585.8483 H 30.702796 V -9.4277027 H -564.5732 Z"
         id="path9508"
         style="stroke-width:0.999998" />
    </clipPath>
    <clipPath
       clipPathUnits="userSpaceOnUse"
       id="clipPath9512">
      <path
         d="M -557.0645,585.8483 H 38.211496 V -9.4277027 H -557.0645 Z"
         id="path9514"
         style="stroke-width:0.999998" />
    </clipPath>
    <clipPath
       clipPathUnits="userSpaceOnUse"
       id="clipPath9518">
      <path
         d="M -567.7754,585.8522 H 27.500596 V -9.4238027 H -567.7754 Z"
         id="path9520"
         style="stroke-width:0.999998" />
    </clipPath>
    <clipPath
       clipPathUnits="userSpaceOnUse"
       id="clipPath9524">
      <path
         d="M -561.4131,585.8522 H 33.862898 V -9.4238027 H -561.4131 Z"
         id="path9526"
         style="stroke-width:0.999998" />
    </clipPath>
    <clipPath
       clipPathUnits="userSpaceOnUse"
       id="clipPath9530">
      <path
         d="m -348.4912,329.3951 h 595.276 v -595.276 h -595.276 z"
         id="path9532"
         style="stroke-width:0.999998" />
    </clipPath>
    <clipPath
       clipPathUnits="userSpaceOnUse"
       id="clipPath9536">
      <path
         d="M -536.6982,584.5729 H 58.577799 V -10.7031 H -536.6982 Z"
         id="path9538"
         style="stroke-width:0.999998" />
    </clipPath>
    <clipPath
       clipPathUnits="userSpaceOnUse"
       id="clipPath9542">
      <path
         d="m -322.6377,351.9283 h 595.276 v -595.276 h -595.276 z"
         id="path9544"
         style="stroke-width:0.999998" />
    </clipPath>
    <clipPath
       clipPathUnits="userSpaceOnUse"
       id="clipPath9548">
      <path
         d="M -528.0898,575.3815 H 67.186194 V -19.8945 H -528.0898 Z"
         id="path9550"
         style="stroke-width:0.999998" />
    </clipPath>
    <clipPath
       clipPathUnits="userSpaceOnUse"
       id="clipPath9554">
      <path
         d="m -357.5049,290.2706 h 595.276 v -595.276 h -595.276 z"
         id="path9556"
         style="stroke-width:0.999998" />
    </clipPath>
    <clipPath
       clipPathUnits="userSpaceOnUse"
       id="clipPath9560">
      <path
         d="M -574.5459,585.8522 H 20.730098 V -9.4238027 H -574.5459 Z"
         id="path9562"
         style="stroke-width:0.999998" />
    </clipPath>
    <clipPath
       clipPathUnits="userSpaceOnUse"
       id="clipPath9566">
      <path
         d="M -556.4014,578.0143 H 38.874601 V -17.2617 H -556.4014 Z"
         id="path9568"
         style="stroke-width:0.999998" />
    </clipPath>
    <clipPath
       clipPathUnits="userSpaceOnUse"
       id="clipPath9572">
      <path
         d="M -586.5449,579.5026 H 8.7310952 V -15.7734 H -586.5449 Z"
         id="path9574"
         style="stroke-width:0.999998" />
    </clipPath>
    <clipPath
       clipPathUnits="userSpaceOnUse"
       id="clipPath9578">
      <path
         d="M -584.1943,578.9381 H 11.0817 V -16.337903 h -595.276 z"
         id="path9580"
         style="stroke-width:0.999998" />
    </clipPath>
    <clipPath
       clipPathUnits="userSpaceOnUse"
       id="clipPath9584">
      <path
         d="M -538.2217,577.9479 H 57.054294 V -17.328098 H -538.2217 Z"
         id="path9586"
         style="stroke-width:0.999998" />
    </clipPath>
    <clipPath
       clipPathUnits="userSpaceOnUse"
       id="clipPath9591">
      <path
         d="m -344.0635,258.7198 h 595.276 v -595.276 h -595.276 z"
         id="path9593"
         style="stroke-width:0.999998" />
    </clipPath>
    <clipPath
       clipPathUnits="userSpaceOnUse"
       id="clipPath9597">
      <path
         d="M -540.8213,585.8483 H 54.454696 V -9.4277027 H -540.8213 Z"
         id="path9599"
         style="stroke-width:0.999998" />
    </clipPath>
    <clipPath
       clipPathUnits="userSpaceOnUse"
       id="clipPath9603">
      <path
         d="m -253.2236,337.8209 h 595.276 v -595.276 h -595.276 z"
         id="path9605"
         style="stroke-width:0.999998" />
    </clipPath>
    <clipPath
       clipPathUnits="userSpaceOnUse"
       id="clipPath9609">
      <path
         d="M -568.2266,575.819 H 27.049396 V -19.457003 H -568.2266 Z"
         id="path9611"
         style="stroke-width:0.999998" />
    </clipPath>
    <clipPath
       clipPathUnits="userSpaceOnUse"
       id="clipPath9615">
      <path
         d="M -550.2637,577.3248 H 45.012301 V -17.951198 H -550.2637 Z"
         id="path9617"
         style="stroke-width:0.999998" />
    </clipPath>
    <clipPath
       clipPathUnits="userSpaceOnUse"
       id="clipPath9621">
      <path
         d="M -576.3691,585.5885 H 18.9069 V -9.6875027 h -595.276 z"
         id="path9623"
         style="stroke-width:0.999998" />
    </clipPath>
    <clipPath
       clipPathUnits="userSpaceOnUse"
       id="clipPath9627">
      <path
         d="M -557.4951,577.8502 H 37.780898 V -17.4258 H -557.4951 Z"
         id="path9629"
         style="stroke-width:0.999998" />
    </clipPath>
    <clipPath
       clipPathUnits="userSpaceOnUse"
       id="clipPath9633">
      <path
         d="m -349.8838,297.1027 h 595.276 v -595.276 h -595.276 z"
         id="path9635"
         style="stroke-width:0.999998" />
    </clipPath>
    <clipPath
       clipPathUnits="userSpaceOnUse"
       id="clipPath9639">
      <path
         d="m -297.6377,140.5197 h 595.27599 v -595.276 H -297.6377 Z"
         id="path9641"
         style="stroke-width:0.999998" />
    </clipPath>
    <clipPath
       clipPathUnits="userSpaceOnUse"
       id="clipPath9645">
      <path
         d="m -309.6396,238.0568 h 595.276 v -595.276 h -595.276 z"
         id="path9647"
         style="stroke-width:0.999998" />
    </clipPath>
    <clipPath
       clipPathUnits="userSpaceOnUse"
       id="clipPath9651">
      <path
         d="m -470.7334,509.8287 h 595.276 v -595.276 h -595.276 z"
         id="path9653"
         style="stroke-width:0.999998" />
    </clipPath>
    <clipPath
       clipPathUnits="userSpaceOnUse"
       id="clipPath9657">
      <path
         d="m -275.4775,241.0919 h 595.276 v -595.276 h -595.276 z"
         id="path9659"
         style="stroke-width:0.999998" />
    </clipPath>
    <clipPath
       clipPathUnits="userSpaceOnUse"
       id="clipPath9663">
      <path
         d="m -148.7188,248.7179 h 595.276 v -595.276 h -595.276 z"
         id="path9665"
         style="stroke-width:0.999998" />
    </clipPath>
    <clipPath
       clipPathUnits="userSpaceOnUse"
       id="clipPath9669">
      <path
         d="m -245.1904,267.4454 h 595.27599 v -595.276 H -245.1904 Z"
         id="path9671"
         style="stroke-width:0.999998" />
    </clipPath>
    <clipPath
       clipPathUnits="userSpaceOnUse"
       id="clipPath9675">
      <path
         d="m -282.6436,355.4459 h 595.276 v -595.276 h -595.276 z"
         id="path9677"
         style="stroke-width:0.999998" />
    </clipPath>
    <clipPath
       clipPathUnits="userSpaceOnUse"
       id="clipPath9681">
      <path
         d="m -427.2188,475.4537 h 595.276 v -595.276 h -595.276 z"
         id="path9683"
         style="stroke-width:0.999998" />
    </clipPath>
    <clipPath
       clipPathUnits="userSpaceOnUse"
       id="clipPath9687">
      <path
         d="m -237.5205,300.8717 h 595.276 v -595.276 h -595.276 z"
         id="path9689"
         style="stroke-width:0.999998" />
    </clipPath>
    <clipPath
       clipPathUnits="userSpaceOnUse"
       id="clipPath9693">
      <path
         d="m -212.665,468.3873 h 595.27599 v -595.276 H -212.665 Z"
         id="path9695"
         style="stroke-width:0.999998" />
    </clipPath>
    <clipPath
       clipPathUnits="userSpaceOnUse"
       id="clipPath9699">
      <path
         d="m -486.7979,269.2198 h 595.276 v -595.276 h -595.276 z"
         id="path9701"
         style="stroke-width:0.999998" />
    </clipPath>
    <clipPath
       clipPathUnits="userSpaceOnUse"
       id="clipPath9706">
      <path
         d="M -545.417,584.5729 H 49.858996 V -10.7031 H -545.417 Z"
         id="path9708"
         style="stroke-width:0.999998" />
    </clipPath>
  </defs>
  <sodipodi:namedview
     id="namedview8761"
     pagecolor="#ffffff"
     bordercolor="#000000"
     borderopacity="0.25"
     inkscape:showpageshadow="2"
     inkscape:pageopacity="0.0"
     inkscape:pagecheckerboard="0"
     inkscape:deskcolor="#d1d1d1"
     showgrid="false"
     inkscape:zoom="0.29734106"
     inkscape:cx="-215.24105"
     inkscape:cy="396.85068"
     inkscape:window-width="1419"
     inkscape:window-height="456"
     inkscape:window-x="1920"
     inkscape:window-y="142"
     inkscape:window-maximized="0"
     inkscape:current-layer="svg8759">
    <inkscape:page
       x="0"
       y="0"
       id="page8765"
       width="793.70135"
       height="793.70135" />
  </sodipodi:namedview>
  <path
     d="M 466.512 396.137 C 466.512 434.608 435.327 465.795 396.856 465.795 C 358.384 465.795 327.198 434.608 327.198 396.137 C 327.198 357.665 358.384 326.479 396.856 326.479 C 435.327 326.479 466.512 357.665 466.512 396.137"
     style="fill:#000000;fill-opacity:1;fill-rule:nonzero;stroke:none"
     id="path8879" />
  <path
     d="M 396.85 187.36 C 373.334 187.359 354.274 168.299 354.274 144.783 C 354.271 121.267 373.337 102.207 396.85 102.206 C 420.366 102.206 439.431 121.269 439.429 144.783 C 439.429 168.296 420.366 187.359 396.85 187.36 M 396.85 31.7297 C 334.415 31.7297 283.801 82.3443 283.798 144.781 C 283.798 207.221 334.415 257.834 396.853 257.834 C 459.291 257.834 509.903 207.221 509.906 144.781 C 509.903 82.3456 459.291 31.7297 396.85 31.7297"
     style="fill:#000000;fill-opacity:1;fill-rule:nonzero;stroke:none"
     id="path8883" />
  <path
     d="M 412.853 317.409 L 412.853 267.47 C 407.613 268.148 402.274 268.5 396.85 268.5 C 391.429 268.5 386.088 268.148 380.849 267.47 L 380.849 317.412 C 386.022 316.365 391.374 315.812 396.856 315.81 C 402.334 315.812 407.684 316.365 412.853 317.409"
     style="fill:#000000;fill-opacity:1;fill-rule:nonzero;stroke:none"
     id="path8887" />
  <path
     d="M 627.645 679.772 L 595.288 703.285"
     style="fill:#000000;fill-opacity:1;fill-rule:nonzero;stroke:none"
     id="path8891" />
  <path
     d="M 367.303 321.456 C 354.6 326.484 343.516 334.587 334.951 344.965 L 269.727 255.191 C 244.791 223.368 204.346 193.48 157.776 194.711 C 139.134 194.712 121.458 198.838 105.604 206.22 L 182.239 100.754 L 306.222 60.462 C 294.303 73.2593 284.918 88.7952 279.158 106.523 C 263.593 150.434 279.519 198.134 302.079 231.683 Z"
     style="fill:#000000;fill-opacity:1;fill-rule:nonzero;stroke:none"
     id="path8895" />
  <path
     d="M 198.292 331.624 C 191.023 353.988 167.004 366.227 144.643 358.959 C 122.275 351.695 110.039 327.673 117.304 305.311 C 124.571 282.945 148.593 270.707 170.955 277.973 C 193.317 285.24 205.556 309.26 198.292 331.624 M 192.733 210.946 C 133.351 191.654 69.5737 224.15 50.2777 283.532 C 30.9844 342.912 63.4817 406.69 122.862 425.985 C 182.244 445.28 246.023 412.782 265.317 353.401 C 284.61 294.02 252.113 230.243 192.733 210.946"
     style="fill:#000000;fill-opacity:1;fill-rule:nonzero;stroke:none"
     id="path8899" />
  <path
     d="M 326.921 356.594 L 279.426 341.162 C 278.449 346.353 277.137 351.541 275.461 356.698 C 273.782 361.855 271.798 366.827 269.536 371.599 L 317.033 387.031 C 317.634 381.789 318.762 376.527 320.454 371.314 C 322.15 366.103 324.33 361.187 326.921 356.594"
     style="fill:#000000;fill-opacity:1;fill-rule:nonzero;stroke:none"
     id="path8903" />
  <path
     d="M 316.694 401.162 C 317.549 414.801 321.83 427.845 329.054 439.195 L 223.517 473.487 C 185.546 487.37 144.625 516.599 131.404 561.271 C 125.645 578.998 124.106 597.086 126.228 614.445 L 49.604 508.968 L 49.5987 378.603 C 58.0853 393.894 69.9613 407.621 85.0412 418.579 C 121.994 446.949 172.28 446.542 211.158 435.454 Z"
     style="fill:#000000;fill-opacity:1;fill-rule:nonzero;stroke:none"
     id="path8907" />
  <path
     d="M 283.553 624.516 C 269.733 643.544 243.105 647.759 224.081 633.937 C 205.059 620.117 200.84 593.488 214.663 574.464 C 228.485 555.443 255.11 551.227 274.134 565.047 C 293.16 578.871 297.376 605.492 283.553 624.516 M 315.558 508.03 C 265.045 471.331 194.349 482.53 157.644 533.04 C 120.949 583.555 132.144 654.253 182.657 690.953 C 233.17 727.652 303.868 716.456 340.57 665.943 C 377.269 615.431 366.071 544.73 315.558 508.03"
     style="fill:#000000;fill-opacity:1;fill-rule:nonzero;stroke:none"
     id="path8911" />
  <path
     d="M 337.631 450.428 L 308.276 490.832 C 312.915 493.363 317.44 496.215 321.828 499.404 C 326.214 502.592 330.328 506.016 334.17 509.641 L 363.524 469.237 C 358.722 467.045 354.07 464.347 349.634 461.125 C 345.202 457.904 341.199 454.313 337.631 450.428"
     style="fill:#000000;fill-opacity:1;fill-rule:nonzero;stroke:none"
     id="path8915" />
  <path
     d="M 376.858 473.928 C 390.093 477.329 403.822 477.288 416.85 473.925 L 416.85 584.892 C 418.322 625.294 433.473 673.248 471.874 699.625 C 486.954 710.578 503.682 717.633 520.844 720.979 L 396.855 761.258 L 272.866 720.979 C 290.033 717.633 306.757 710.581 321.837 699.625 C 360.239 673.248 375.391 625.294 376.858 584.894 Z"
     style="fill:#000000;fill-opacity:1;fill-rule:nonzero;stroke:none"
     id="path8919" />
  <path
     d="M 569.625 633.938 C 550.6 647.758 523.97 643.542 510.15 624.517 C 496.329 605.493 500.548 578.867 519.573 565.045 C 538.597 551.225 565.22 555.441 579.041 574.465 C 592.866 593.49 588.645 620.115 569.625 633.938 M 636.058 533.042 C 599.358 482.526 528.657 471.329 478.145 508.029 C 427.635 544.73 416.436 615.427 453.135 665.943 C 489.835 716.454 560.533 727.654 611.048 690.954 C 661.558 654.253 672.759 583.555 636.058 533.042"
     style="fill:#000000;fill-opacity:1;fill-rule:nonzero;stroke:none"
     id="path8923" />
  <path
     d="M 430.184 469.238 L 459.539 509.639 C 463.379 506.011 467.491 502.59 471.879 499.402 C 476.268 496.214 480.796 493.361 485.432 490.829 L 456.075 450.426 C 452.504 454.314 448.501 457.905 444.067 461.129 C 439.635 464.35 434.981 467.045 430.184 469.238"
     style="fill:#000000;fill-opacity:1;fill-rule:nonzero;stroke:none"
     id="path8927" />
  <path
     d="M 464.655 439.193 C 471.978 427.657 476.183 414.586 477.01 401.157 L 582.545 435.448 C 621.425 446.534 671.714 446.941 708.668 418.573 C 723.745 407.614 735.625 393.886 744.11 378.594 L 744.102 508.963 L 667.48 614.438 C 669.602 597.078 668.064 578.993 662.303 561.263 C 649.084 516.591 608.16 487.362 570.188 473.482 Z"
     style="fill:#000000;fill-opacity:1;fill-rule:nonzero;stroke:none"
     id="path8931" />
  <path
     d="M 649.064 358.96 C 626.7 366.224 602.683 353.985 595.413 331.623 C 588.147 309.257 600.384 285.239 622.749 277.974 C 645.116 270.704 669.132 282.946 676.404 305.308 C 683.668 327.672 671.428 351.695 649.064 358.96 M 743.428 283.53 C 724.132 224.151 660.356 191.652 600.973 210.947 C 541.591 230.24 509.092 294.02 528.387 353.401 C 547.683 412.783 611.461 445.277 670.843 425.988 C 730.222 406.691 762.72 342.913 743.428 283.53"
     style="fill:#000000;fill-opacity:1;fill-rule:nonzero;stroke:none"
     id="path8935" />
  <path
     d="M 476.673 387.027 L 524.168 371.595 C 521.906 366.822 519.921 361.852 518.244 356.694 C 516.57 351.538 515.254 346.347 514.28 341.158 L 466.782 356.591 C 469.376 361.187 471.556 366.106 473.252 371.318 C 474.944 376.53 476.07 381.787 476.673 387.027"
     style="fill:#000000;fill-opacity:1;fill-rule:nonzero;stroke:none"
     id="path8939" />
  <path
     d="M 458.751 344.96 C 450.043 334.431 438.91 326.393 426.394 321.456 L 491.618 231.682 C 514.178 198.131 530.105 150.43 514.543 106.519 C 508.782 88.7926 499.394 73.254 487.475 60.4567 L 611.461 100.751 L 688.094 206.215 C 672.24 198.832 654.563 194.708 635.925 194.707 C 589.352 193.476 548.909 223.364 523.975 255.187 Z"
     style="fill:#000000;fill-opacity:1;fill-rule:nonzero;stroke:none"
     id="path8943" />
</svg>
