<?xml version="1.0" encoding="UTF-8" standalone="no"?>
<!-- Created with Inkscape (http://www.inkscape.org/) -->

<svg
   version="1.1"
   id="svg5277"
   width="793.70135"
   height="793.70135"
   viewBox="0 0 793.70135 793.70135"
   sodipodi:docname="Itsutsu Neji Janome.svg"
   inkscape:version="1.2 (dc2aeda, 2022-05-15)"
   xmlns:inkscape="http://www.inkscape.org/namespaces/inkscape"
   xmlns:sodipodi="http://sodipodi.sourceforge.net/DTD/sodipodi-0.dtd"
   xmlns="http://www.w3.org/2000/svg"
   xmlns:svg="http://www.w3.org/2000/svg">
  <defs
     id="defs5281">
    <clipPath
       clipPathUnits="userSpaceOnUse"
       id="clipPath5826">
      <path
         d="m -166.0352,413.3502 h 595.276 v -595.276 h -595.276 z"
         id="path5828"
         style="stroke-width:0.999998" />
    </clipPath>
    <clipPath
       clipPathUnits="userSpaceOnUse"
       id="clipPath5832">
      <path
         d="m -354.5879,467.5885 h 595.276 v -595.276 h -595.276 z"
         id="path5834"
         style="stroke-width:0.999998" />
    </clipPath>
    <clipPath
       clipPathUnits="userSpaceOnUse"
       id="clipPath5838">
      <path
         d="M -584.1943,578.9381 H 11.0817 V -16.337903 h -595.276 z"
         id="path5840"
         style="stroke-width:0.999998" />
    </clipPath>
    <clipPath
       clipPathUnits="userSpaceOnUse"
       id="clipPath5844">
      <path
         d="M -536.6982,584.5729 H 58.577799 V -10.7031 H -536.6982 Z"
         id="path5846"
         style="stroke-width:0.999998" />
    </clipPath>
    <clipPath
       clipPathUnits="userSpaceOnUse"
       id="clipPath5850">
      <path
         d="M -538.2217,577.9479 H 57.054294 V -17.328098 H -538.2217 Z"
         id="path5852"
         style="stroke-width:0.999998" />
    </clipPath>
    <clipPath
       clipPathUnits="userSpaceOnUse"
       id="clipPath5856">
      <path
         d="m -464.4375,305.025 h 595.276 v -595.276 h -595.276 z"
         id="path5858"
         style="stroke-width:0.999998" />
    </clipPath>
    <clipPath
       clipPathUnits="userSpaceOnUse"
       id="clipPath5862">
      <path
         d="M -550.2637,577.3248 H 45.012301 V -17.951198 H -550.2637 Z"
         id="path5864"
         style="stroke-width:0.999998" />
    </clipPath>
    <clipPath
       clipPathUnits="userSpaceOnUse"
       id="clipPath5869">
      <path
         d="M -568.2266,575.819 H 27.049396 V -19.457003 H -568.2266 Z"
         id="path5871"
         style="stroke-width:0.999998" />
    </clipPath>
    <clipPath
       clipPathUnits="userSpaceOnUse"
       id="clipPath5875">
      <path
         d="M -586.5449,579.5026 H 8.7310952 V -15.7734 H -586.5449 Z"
         id="path5877"
         style="stroke-width:0.999998" />
    </clipPath>
    <clipPath
       clipPathUnits="userSpaceOnUse"
       id="clipPath5881">
      <path
         d="m -159.3525,217.2653 h 595.276 v -595.276 h -595.276 z"
         id="path5883"
         style="stroke-width:0.999998" />
    </clipPath>
    <clipPath
       clipPathUnits="userSpaceOnUse"
       id="clipPath5887">
      <path
         d="M -545.417,584.5729 H 49.858996 V -10.7031 H -545.417 Z"
         id="path5889"
         style="stroke-width:0.999998" />
    </clipPath>
    <clipPath
       clipPathUnits="userSpaceOnUse"
       id="clipPath5893">
      <path
         d="M -548.9834,585.8522 H 46.292596 V -9.4238027 H -548.9834 Z"
         id="path5895"
         style="stroke-width:0.999998" />
    </clipPath>
    <clipPath
       clipPathUnits="userSpaceOnUse"
       id="clipPath5899">
      <path
         d="M -553.8975,585.8483 H 41.378499 V -9.4277027 H -553.8975 Z"
         id="path5901"
         style="stroke-width:0.999998" />
    </clipPath>
    <clipPath
       clipPathUnits="userSpaceOnUse"
       id="clipPath5905">
      <path
         d="M -557.0645,585.8483 H 38.211496 V -9.4277027 H -557.0645 Z"
         id="path5907"
         style="stroke-width:0.999998" />
    </clipPath>
    <clipPath
       clipPathUnits="userSpaceOnUse"
       id="clipPath5911">
      <path
         d="M -561.4131,585.8522 H 33.862898 V -9.4238027 H -561.4131 Z"
         id="path5913"
         style="stroke-width:0.999998" />
    </clipPath>
    <clipPath
       clipPathUnits="userSpaceOnUse"
       id="clipPath5917">
      <path
         d="M -564.5732,585.8483 H 30.702796 V -9.4277027 H -564.5732 Z"
         id="path5919"
         style="stroke-width:0.999998" />
    </clipPath>
    <clipPath
       clipPathUnits="userSpaceOnUse"
       id="clipPath5923">
      <path
         d="M -567.7754,585.8522 H 27.500596 V -9.4238027 H -567.7754 Z"
         id="path5925"
         style="stroke-width:0.999998" />
    </clipPath>
    <clipPath
       clipPathUnits="userSpaceOnUse"
       id="clipPath5930">
      <path
         d="M -572.8174,586.1354 H 22.458601 V -9.1406027 H -572.8174 Z"
         id="path5932"
         style="stroke-width:0.999998" />
    </clipPath>
    <clipPath
       clipPathUnits="userSpaceOnUse"
       id="clipPath5936">
      <path
         d="M -574.5459,585.8522 H 20.730098 V -9.4238027 H -574.5459 Z"
         id="path5938"
         style="stroke-width:0.999998" />
    </clipPath>
    <clipPath
       clipPathUnits="userSpaceOnUse"
       id="clipPath5942">
      <path
         d="M -576.3691,585.5885 H 18.9069 V -9.6875027 h -595.276 z"
         id="path5944"
         style="stroke-width:0.999998" />
    </clipPath>
    <clipPath
       clipPathUnits="userSpaceOnUse"
       id="clipPath5948">
      <path
         d="M -557.4951,577.8502 H 37.780898 V -17.4258 H -557.4951 Z"
         id="path5950"
         style="stroke-width:0.999998" />
    </clipPath>
    <clipPath
       clipPathUnits="userSpaceOnUse"
       id="clipPath5954">
      <path
         d="M -528.0898,575.3815 H 67.186194 V -19.8945 H -528.0898 Z"
         id="path5956"
         style="stroke-width:0.999998" />
    </clipPath>
    <clipPath
       clipPathUnits="userSpaceOnUse"
       id="clipPath5960">
      <path
         d="m -343.7754,150.316 h 595.276 V -444.96 h -595.276 z"
         id="path5962"
         style="stroke-width:0.999998" />
    </clipPath>
    <clipPath
       clipPathUnits="userSpaceOnUse"
       id="clipPath5966">
      <path
         d="M -556.4014,578.0143 H 38.874601 V -17.2617 H -556.4014 Z"
         id="path5968"
         style="stroke-width:0.999998" />
    </clipPath>
    <clipPath
       clipPathUnits="userSpaceOnUse"
       id="clipPath5972">
      <path
         d="M -540.8213,585.8483 H 54.454696 V -9.4277027 H -540.8213 Z"
         id="path5974"
         style="stroke-width:0.999998" />
    </clipPath>
    <clipPath
       clipPathUnits="userSpaceOnUse"
       id="clipPath5978">
      <path
         d="M -542.9326,584.5729 H 52.343394 V -10.7031 H -542.9326 Z"
         id="path5980"
         style="stroke-width:0.999998" />
    </clipPath>
    <clipPath
       clipPathUnits="userSpaceOnUse"
       id="clipPath5984">
      <path
         d="M -531.1924,581.5885 H 64.083594 V -13.6875 H -531.1924 Z"
         id="path5986"
         style="stroke-width:0.999998" />
    </clipPath>
  </defs>
  <sodipodi:namedview
     id="namedview5279"
     pagecolor="#ffffff"
     bordercolor="#000000"
     borderopacity="0.25"
     inkscape:showpageshadow="2"
     inkscape:pageopacity="0.0"
     inkscape:pagecheckerboard="0"
     inkscape:deskcolor="#d1d1d1"
     showgrid="false"
     inkscape:zoom="0.29734106"
     inkscape:cx="-215.24105"
     inkscape:cy="396.85068"
     inkscape:window-width="1419"
     inkscape:window-height="456"
     inkscape:window-x="1920"
     inkscape:window-y="142"
     inkscape:window-maximized="0"
     inkscape:current-layer="svg5277">
    <inkscape:page
       x="0"
       y="0"
       id="page5283"
       width="793.70135"
       height="793.70135" />
  </sodipodi:namedview>
  <path
     d="M 458.367 200.421 C 473.995 189.301 491.558 180.336 510.764 174.09 C 529.304 168.065 548.125 164.993 566.685 164.621 C 539.947 96.9946 473.988 49.156 396.85 49.156 C 296.027 49.156 214.29 130.888 214.29 231.716 C 214.29 328.749 289.994 408.087 385.559 413.919 C 379.902 395.286 377.194 376.405 377.194 357.825 C 377.193 337.875 380.313 318.273 386.213 299.65 C 353.29 294.534 328.095 266.072 328.095 231.718 C 328.093 193.744 358.878 162.962 396.85 162.96 C 423.612 162.96 447.006 178.101 458.367 200.421"
     style="fill:#000000;fill-opacity:1;fill-rule:nonzero;stroke:none"
     id="path5397" />
  <path
     d="M 212.47 289.687 C 206.722 271.387 203.623 251.915 203.619 231.718 C 203.619 212.223 206.514 193.374 211.895 175.606 C 139.316 180.141 73.4357 228.087 49.5984 301.45 C 18.4425 397.337 70.917 500.33 166.809 531.49 C 259.094 561.474 357.942 513.992 393.02 424.907 C 373.552 424.529 354.756 421.269 337.086 415.528 C 318.112 409.364 300.432 400.339 284.546 388.973 C 269.506 418.704 234.653 433.871 201.979 423.256 C 165.862 411.523 146.102 372.731 157.833 336.616 C 166.103 311.166 187.73 293.594 212.47 289.687"
     style="fill:#000000;fill-opacity:1;fill-rule:nonzero;stroke:none"
     id="path5401" />
  <path
     d="M 221.38 551.134 C 202.201 550.946 182.724 547.877 163.515 541.639 C 144.972 535.613 127.94 527.038 112.707 516.429 C 94.5883 586.858 119.831 664.328 182.239 709.67 C 263.803 768.933 377.972 750.852 437.238 669.282 C 494.273 590.779 479.659 482.098 405.776 421.208 C 399.4 439.606 390.49 456.473 379.572 471.506 C 367.845 487.645 353.798 501.67 338.08 513.27 C 361.708 536.759 365.361 574.595 345.169 602.386 C 322.85 633.11 279.852 639.918 249.131 617.601 C 227.479 601.871 217.452 575.871 221.38 551.134"
     style="fill:#000000;fill-opacity:1;fill-rule:nonzero;stroke:none"
     id="path5405" />
  <path
     d="M 472.784 623.451 C 466.679 641.634 457.74 659.208 445.871 675.55 C 434.412 691.323 420.992 704.872 406.196 716.081 C 467.579 755.076 549.058 755.011 611.465 709.669 C 693.033 650.41 711.117 536.241 651.853 454.667 C 594.817 376.166 486.939 356.48 406.197 407.93 C 421.724 419.681 435.015 433.366 445.936 448.397 C 457.661 464.537 466.661 482.23 472.833 500.761 C 502.476 485.55 539.589 493.766 559.781 521.561 C 582.104 552.279 575.29 595.276 544.572 617.599 C 522.921 633.328 495.096 634.831 472.784 623.451"
     style="fill:#000000;fill-opacity:1;fill-rule:nonzero;stroke:none"
     id="path5409" />
  <path
     d="M 619.25 406.7 C 634.657 418.125 648.61 432.059 660.483 448.396 C 671.943 464.168 680.681 481.117 686.77 498.654 C 742.824 452.327 767.94 374.812 744.103 301.45 C 712.947 205.562 609.957 153.081 514.062 184.238 C 421.778 214.224 369.72 310.739 393.703 403.428 C 409.675 392.291 426.797 383.88 444.468 378.137 C 463.44 371.973 483.048 368.883 502.581 368.739 C 497.273 335.847 516.556 303.09 549.229 292.474 C 585.345 280.736 624.131 300.504 635.867 336.616 C 644.138 362.069 636.969 388.996 619.25 406.7"
     style="fill:#000000;fill-opacity:1;fill-rule:nonzero;stroke:none"
     id="path5413" />
</svg>
