<?xml version="1.0" encoding="UTF-8" standalone="no"?>
<!-- Created with Inkscape (http://www.inkscape.org/) -->

<svg
   version="1.1"
   id="svg15599"
   width="793.70135"
   height="793.70099"
   viewBox="0 0 793.70135 793.70097"
   sodipodi:docname="Janome Kyuusei.svg"
   inkscape:version="1.2 (dc2aeda, 2022-05-15)"
   xmlns:inkscape="http://www.inkscape.org/namespaces/inkscape"
   xmlns:sodipodi="http://sodipodi.sourceforge.net/DTD/sodipodi-0.dtd"
   xmlns="http://www.w3.org/2000/svg"
   xmlns:svg="http://www.w3.org/2000/svg">
  <defs
     id="defs15603">
    <clipPath
       clipPathUnits="userSpaceOnUse"
       id="clipPath15866">
      <path
         d="M -325.2266,609.64 H 270.04939 V -232.25 H -325.2266 Z"
         id="path15868"
         style="stroke-width:0.999998" />
    </clipPath>
    <clipPath
       clipPathUnits="userSpaceOnUse"
       id="clipPath15872">
      <path
         d="m -411.0547,266.8046 h 595.276 v -841.89 h -595.276 z"
         id="path15874"
         style="stroke-width:0.999998" />
    </clipPath>
    <clipPath
       clipPathUnits="userSpaceOnUse"
       id="clipPath15878">
      <path
         d="m -253.0054,420.5091 h 595.276 v -841.89 h -595.276 z"
         id="path15880"
         style="stroke-width:0.999998" />
    </clipPath>
    <clipPath
       clipPathUnits="userSpaceOnUse"
       id="clipPath15884">
      <path
         d="m -269.0483,231.2547 h 595.276 v -841.89 h -595.276 z"
         id="path15886"
         style="stroke-width:0.999998" />
    </clipPath>
    <clipPath
       clipPathUnits="userSpaceOnUse"
       id="clipPath15890">
      <path
         d="m -450.7754,534.3636 h 595.276 v -841.89 h -595.276 z"
         id="path15892"
         style="stroke-width:0.999998" />
    </clipPath>
    <clipPath
       clipPathUnits="userSpaceOnUse"
       id="clipPath15896">
      <path
         d="m -486.3242,392.3558 h 595.276 v -841.89 h -595.276 z"
         id="path15898"
         style="stroke-width:0.999998" />
    </clipPath>
    <clipPath
       clipPathUnits="userSpaceOnUse"
       id="clipPath15902">
      <path
         d="m -183.2202,574.0863 h 595.276 v -841.89 h -595.276 z"
         id="path15904"
         style="stroke-width:0.999998" />
    </clipPath>
    <clipPath
       clipPathUnits="userSpaceOnUse"
       id="clipPath15908">
      <path
         d="m -143.4927,306.5257 h 595.27599 v -841.89 H -143.4927 Z"
         id="path15910"
         style="stroke-width:0.999998" />
    </clipPath>
    <clipPath
       clipPathUnits="userSpaceOnUse"
       id="clipPath15914">
      <path
         d="m -107.9429,448.5326 h 595.276 v -841.89 h -595.276 z"
         id="path15916"
         style="stroke-width:0.999998" />
    </clipPath>
  </defs>
  <sodipodi:namedview
     id="namedview15601"
     pagecolor="#ffffff"
     bordercolor="#000000"
     borderopacity="0.25"
     inkscape:showpageshadow="2"
     inkscape:pageopacity="0.0"
     inkscape:pagecheckerboard="0"
     inkscape:deskcolor="#d1d1d1"
     showgrid="false"
     inkscape:zoom="0.21024124"
     inkscape:cx="-470.88764"
     inkscape:cy="561.26002"
     inkscape:window-width="1419"
     inkscape:window-height="456"
     inkscape:window-x="1920"
     inkscape:window-y="142"
     inkscape:window-maximized="0"
     inkscape:current-layer="svg15599">
    <inkscape:page
       x="0"
       y="0"
       id="page15605"
       width="793.70135"
       height="793.70099" />
  </sodipodi:namedview>
  <path
     d="m 337.341,396.679 c 0.053,32.479 26.361,58.769 58.839,58.839 32.477,-0.07 58.783,-26.36 58.835,-58.839 -0.052,-32.481 -26.358,-58.783 -58.835,-58.839 -32.467,0.056 -58.786,26.358 -58.839,58.839 m -93.046,0 c 0.03,-83.909 67.987,-151.861 151.885,-151.881 83.895,0.02 151.862,67.972 151.883,151.881 -0.021,83.897 -67.988,151.848 -151.883,151.88 -83.898,-0.032 -151.855,-67.983 -151.885,-151.88"
     style="fill:#231f20;fill-opacity:1;fill-rule:nonzero;stroke:none"
     id="path15619" />
  <path
     d="m 358.731,144.34 c 0.043,20.667 16.772,37.411 37.448,37.443 20.675,-0.032 37.425,-16.776 37.456,-37.443 -0.031,-20.672 -16.781,-37.416 -37.456,-37.451 -20.664,0.035 -37.405,16.779 -37.448,37.451 m -56.851,0 c 0.023,-52.099 42.215,-94.292 94.299,-94.313 52.092,0.021 94.286,42.214 94.308,94.313 -0.022,52.092 -42.216,94.286 -94.308,94.297 -52.084,-0.011 -94.276,-42.205 -94.299,-94.297"
     style="fill:#231f20;fill-opacity:1;fill-rule:nonzero;stroke:none"
     id="path15623" />
  <path
     d="m 548.073,191.739 c -14.581,14.645 -14.591,38.316 0,52.959 14.645,14.597 38.325,14.597 52.961,0.008 14.591,-14.64 14.591,-38.322 0,-52.964 -14.636,-14.59 -38.316,-14.587 -52.961,-0.003 m -40.203,-40.2 c 36.859,-36.825 96.52,-36.825 133.369,-0.005 36.815,36.845 36.826,96.517 0,133.371 -36.849,36.823 -96.523,36.82 -133.359,-0.005 -36.828,-36.84 -36.828,-96.51 -0.01,-133.361"
     style="fill:#231f20;fill-opacity:1;fill-rule:nonzero;stroke:none"
     id="path15627" />
  <path
     d="m 648.432,359.141 c -20.664,0.045 -37.404,16.775 -37.437,37.452 0.033,20.676 16.773,37.418 37.437,37.453 20.675,-0.032 37.417,-16.777 37.459,-37.453 -0.042,-20.665 -16.784,-37.407 -37.459,-37.452 m 0,-56.853 c 52.104,0.021 94.297,42.214 94.32,94.305 -0.023,52.088 -42.216,94.288 -94.32,94.302 -52.091,-0.014 -94.286,-42.214 -94.297,-94.302 0.011,-52.091 42.206,-94.284 94.297,-94.305"
     style="fill:#231f20;fill-opacity:1;fill-rule:nonzero;stroke:none"
     id="path15631" />
  <path
     d="m 601.034,548.485 c -14.645,-14.583 -38.315,-14.597 -52.961,0.005 -14.591,14.639 -14.591,38.318 0,52.959 14.636,14.592 38.316,14.592 52.961,0 14.591,-14.641 14.581,-38.32 0,-52.964 m 40.205,-40.205 c 36.825,36.853 36.825,96.525 0,133.374 -36.838,36.816 -96.522,36.821 -133.369,-0.005 -36.828,-36.849 -36.817,-96.521 0.011,-133.359 36.836,-36.829 96.51,-36.833 133.358,-0.01"
     style="fill:#231f20;fill-opacity:1;fill-rule:nonzero;stroke:none"
     id="path15635" />
  <path
     d="m 433.635,648.853 c -0.052,-20.669 -16.771,-37.42 -37.456,-37.447 -20.676,0.031 -37.416,16.772 -37.448,37.442 0.032,20.669 16.772,37.416 37.448,37.453 20.675,-0.037 37.404,-16.784 37.456,-37.448 m 56.852,-0.005 c -0.021,52.098 -42.216,94.291 -94.308,94.313 -52.084,-0.022 -94.288,-42.215 -94.298,-94.313 0.01,-52.092 42.214,-94.287 94.298,-94.292 52.092,0.005 94.287,42.194 94.308,94.292"
     style="fill:#231f20;fill-opacity:1;fill-rule:nonzero;stroke:none"
     id="path15639" />
  <path
     d="m 244.294,601.448 c 14.581,-14.645 14.592,-38.319 -0.012,-52.959 -14.633,-14.597 -38.312,-14.602 -52.959,-0.005 -14.591,14.635 -14.591,38.319 0,52.964 14.647,14.587 38.326,14.581 52.971,0 m 40.205,40.2 c -36.86,36.822 -96.532,36.822 -133.381,0.005 -36.816,-36.844 -36.816,-96.52 0.011,-133.374 36.849,-36.823 96.522,-36.817 133.36,0.011 36.827,36.838 36.827,96.505 0.01,133.358"
     style="fill:#231f20;fill-opacity:1;fill-rule:nonzero;stroke:none"
     id="path15643" />
  <path
     d="m 143.924,434.043 c 20.664,-0.044 37.416,-16.772 37.448,-37.451 -0.032,-20.674 -16.773,-37.422 -37.448,-37.449 -20.664,0.03 -37.416,16.775 -37.448,37.447 0.032,20.67 16.784,37.409 37.448,37.453 m 0,56.853 c -52.0919,-0.021 -94.2864,-42.214 -94.3078,-94.304 0.0214,-52.083 42.2159,-94.286 94.3078,-94.303 52.092,0.014 94.286,42.217 94.297,94.301 -0.011,52.092 -42.194,94.29 -94.297,94.306"
     style="fill:#231f20;fill-opacity:1;fill-rule:nonzero;stroke:none"
     id="path15647" />
  <path
     d="m 191.324,244.701 c 14.645,14.581 38.324,14.599 52.959,-0.003 14.603,-14.64 14.603,-38.321 0.012,-52.958 -14.636,-14.592 -38.326,-14.592 -52.971,-0.003 -14.581,14.643 -14.581,38.319 0,52.964 m -40.195,40.204 c -36.827,-36.853 -36.827,-96.523 -0.01,-133.37 36.848,-36.818 96.52,-36.823 133.381,0.005 36.816,36.845 36.816,96.521 -0.012,133.356 -36.837,36.827 -96.511,36.837 -133.359,0.009"
     style="fill:#231f20;fill-opacity:1;fill-rule:nonzero;stroke:none"
     id="path15651" />
</svg>
