<?xml version="1.0" encoding="UTF-8" standalone="no"?>
<!-- Created with Inkscape (http://www.inkscape.org/) -->

<svg
   version="1.1"
   id="svg13479"
   width="793.70135"
   height="793.70135"
   viewBox="0 0 793.70135 793.70135"
   sodipodi:docname="Kage Janome.svg"
   inkscape:version="1.2 (dc2aeda, 2022-05-15)"
   xmlns:inkscape="http://www.inkscape.org/namespaces/inkscape"
   xmlns:sodipodi="http://sodipodi.sourceforge.net/DTD/sodipodi-0.dtd"
   xmlns="http://www.w3.org/2000/svg"
   xmlns:svg="http://www.w3.org/2000/svg">
  <defs
     id="defs13483">
    <clipPath
       clipPathUnits="userSpaceOnUse"
       id="clipPath13972">
      <path
         d="M -567.7754,585.8522 H 27.500596 V -9.4238027 H -567.7754 Z"
         id="path13974"
         style="stroke-width:0.999998" />
    </clipPath>
    <clipPath
       clipPathUnits="userSpaceOnUse"
       id="clipPath13978">
      <path
         d="M -542.9326,584.5729 H 52.343394 V -10.7031 H -542.9326 Z"
         id="path13980"
         style="stroke-width:0.999998" />
    </clipPath>
    <clipPath
       clipPathUnits="userSpaceOnUse"
       id="clipPath13984">
      <path
         d="M -545.417,584.5729 H 49.858996 V -10.7031 H -545.417 Z"
         id="path13986"
         style="stroke-width:0.999998" />
    </clipPath>
    <clipPath
       clipPathUnits="userSpaceOnUse"
       id="clipPath13990">
      <path
         d="M -540.8213,585.8483 H 54.454696 V -9.4277027 H -540.8213 Z"
         id="path13992"
         style="stroke-width:0.999998" />
    </clipPath>
    <clipPath
       clipPathUnits="userSpaceOnUse"
       id="clipPath13996">
      <path
         d="M -553.8975,585.8483 H 41.378499 V -9.4277027 H -553.8975 Z"
         id="path13998"
         style="stroke-width:0.999998" />
    </clipPath>
    <clipPath
       clipPathUnits="userSpaceOnUse"
       id="clipPath14002">
      <path
         d="M -548.9834,585.8522 H 46.292596 V -9.4238027 H -548.9834 Z"
         id="path14004"
         style="stroke-width:0.999998" />
    </clipPath>
    <clipPath
       clipPathUnits="userSpaceOnUse"
       id="clipPath14008">
      <path
         d="M -574.5459,585.8522 H 20.730098 V -9.4238027 H -574.5459 Z"
         id="path14010"
         style="stroke-width:0.999998" />
    </clipPath>
    <clipPath
       clipPathUnits="userSpaceOnUse"
       id="clipPath14014">
      <path
         d="M -576.3691,585.5885 H 18.9069 V -9.6875027 h -595.276 z"
         id="path14016"
         style="stroke-width:0.999998" />
    </clipPath>
    <clipPath
       clipPathUnits="userSpaceOnUse"
       id="clipPath14020">
      <path
         d="M -557.0645,585.8483 H 38.211496 V -9.4277027 H -557.0645 Z"
         id="path14022"
         style="stroke-width:0.999998" />
    </clipPath>
    <clipPath
       clipPathUnits="userSpaceOnUse"
       id="clipPath14026">
      <path
         d="M -561.4131,585.8522 H 33.862898 V -9.4238027 H -561.4131 Z"
         id="path14028"
         style="stroke-width:0.999998" />
    </clipPath>
    <clipPath
       clipPathUnits="userSpaceOnUse"
       id="clipPath14032">
      <path
         d="M -564.5732,585.8483 H 30.702796 V -9.4277027 H -564.5732 Z"
         id="path14034"
         style="stroke-width:0.999998" />
    </clipPath>
    <clipPath
       clipPathUnits="userSpaceOnUse"
       id="clipPath14038">
      <path
         d="M -528.0898,575.3815 H 67.186194 V -19.8945 H -528.0898 Z"
         id="path14040"
         style="stroke-width:0.999998" />
    </clipPath>
    <clipPath
       clipPathUnits="userSpaceOnUse"
       id="clipPath14044">
      <path
         d="M -531.1924,581.5885 H 64.083594 V -13.6875 H -531.1924 Z"
         id="path14046"
         style="stroke-width:0.999998" />
    </clipPath>
    <clipPath
       clipPathUnits="userSpaceOnUse"
       id="clipPath14051">
      <path
         d="M -556.4014,578.0143 H 38.874601 V -17.2617 H -556.4014 Z"
         id="path14053"
         style="stroke-width:0.999998" />
    </clipPath>
    <clipPath
       clipPathUnits="userSpaceOnUse"
       id="clipPath14057">
      <path
         d="M -550.2637,577.3248 H 45.012301 V -17.951198 H -550.2637 Z"
         id="path14059"
         style="stroke-width:0.999998" />
    </clipPath>
    <clipPath
       clipPathUnits="userSpaceOnUse"
       id="clipPath14063">
      <path
         d="M -536.6982,584.5729 H 58.577799 V -10.7031 H -536.6982 Z"
         id="path14065"
         style="stroke-width:0.999998" />
    </clipPath>
    <clipPath
       clipPathUnits="userSpaceOnUse"
       id="clipPath14069">
      <path
         d="M -557.4951,577.8502 H 37.780898 V -17.4258 H -557.4951 Z"
         id="path14071"
         style="stroke-width:0.999998" />
    </clipPath>
    <clipPath
       clipPathUnits="userSpaceOnUse"
       id="clipPath14075">
      <path
         d="M -568.2266,575.819 H 27.049396 V -19.457003 H -568.2266 Z"
         id="path14077"
         style="stroke-width:0.999998" />
    </clipPath>
    <clipPath
       clipPathUnits="userSpaceOnUse"
       id="clipPath14081">
      <path
         d="M -584.1943,578.9381 H 11.0817 V -16.337903 h -595.276 z"
         id="path14083"
         style="stroke-width:0.999998" />
    </clipPath>
    <clipPath
       clipPathUnits="userSpaceOnUse"
       id="clipPath14087">
      <path
         d="M -572.8174,586.1354 H 22.458601 V -9.1406027 H -572.8174 Z"
         id="path14089"
         style="stroke-width:0.999998" />
    </clipPath>
    <clipPath
       clipPathUnits="userSpaceOnUse"
       id="clipPath14094">
      <path
         d="M -297.6377,391.483 H 297.63829 V -203.793 H -297.6377 Z"
         id="path14096"
         style="stroke-width:0.999998" />
    </clipPath>
    <clipPath
       clipPathUnits="userSpaceOnUse"
       id="clipPath14100">
      <path
         d="M -586.5449,579.5026 H 8.7310952 V -15.7734 H -586.5449 Z"
         id="path14102"
         style="stroke-width:0.999998" />
    </clipPath>
    <clipPath
       clipPathUnits="userSpaceOnUse"
       id="clipPath14106">
      <path
         d="M -538.2217,577.9479 H 57.054294 V -17.328098 H -538.2217 Z"
         id="path14108"
         style="stroke-width:0.999998" />
    </clipPath>
  </defs>
  <sodipodi:namedview
     id="namedview13481"
     pagecolor="#ffffff"
     bordercolor="#000000"
     borderopacity="0.25"
     inkscape:showpageshadow="2"
     inkscape:pageopacity="0.0"
     inkscape:pagecheckerboard="0"
     inkscape:deskcolor="#d1d1d1"
     showgrid="false"
     inkscape:zoom="0.29734106"
     inkscape:cx="-215.24105"
     inkscape:cy="396.85068"
     inkscape:window-width="1419"
     inkscape:window-height="456"
     inkscape:window-x="1920"
     inkscape:window-y="142"
     inkscape:window-maximized="0"
     inkscape:current-layer="svg13479">
    <inkscape:page
       x="0"
       y="0"
       id="page13485"
       width="793.70135"
       height="793.70135" />
  </sodipodi:namedview>
  <path
     d="M 396.85 521.977 C 327.748 521.977 271.729 465.956 271.729 396.855 C 271.729 327.752 327.748 271.732 396.85 271.732 C 465.952 271.732 521.971 327.752 521.971 396.855 C 521.971 465.956 465.952 521.977 396.85 521.977 M 396.85 245.064 C 313.02 245.064 245.06 313.024 245.06 396.855 C 245.06 480.685 313.02 548.644 396.85 548.644 C 480.682 548.644 548.639 480.685 548.639 396.855 C 548.639 313.024 480.682 245.064 396.85 245.064 M 396.85 735.307 C 209.929 735.307 58.3948 583.777 58.3948 396.853 C 58.3948 209.928 209.929 58.3968 396.85 58.3968 C 583.774 58.3968 735.305 209.928 735.305 396.853 C 735.305 583.777 583.774 735.307 396.85 735.307 M 396.85 31.7302 C 195.2 31.7302 31.7282 195.2 31.7282 396.853 C 31.7282 598.503 195.2 761.974 396.85 761.974 C 598.501 761.974 761.972 598.503 761.972 396.853 C 761.972 195.2 598.501 31.7302 396.85 31.7302"
     style="fill:#000000;fill-opacity:1;fill-rule:nonzero;stroke:none"
     id="path13599" />
</svg>
