<?xml version="1.0" encoding="UTF-8" standalone="no"?>
<!-- Created with Inkscape (http://www.inkscape.org/) -->

<svg
   version="1.1"
   id="svg11753"
   width="793.70135"
   height="793.70135"
   viewBox="0 0 793.70135 793.70135"
   sodipodi:docname="Yotsu Neji Janome.svg"
   inkscape:version="1.2 (dc2aeda, 2022-05-15)"
   xmlns:inkscape="http://www.inkscape.org/namespaces/inkscape"
   xmlns:sodipodi="http://sodipodi.sourceforge.net/DTD/sodipodi-0.dtd"
   xmlns="http://www.w3.org/2000/svg"
   xmlns:svg="http://www.w3.org/2000/svg">
  <defs
     id="defs11757">
    <clipPath
       clipPathUnits="userSpaceOnUse"
       id="clipPath12288">
      <path
         d="M -531.1924,581.5885 H 64.083594 V -13.6875 H -531.1924 Z"
         id="path12290"
         style="stroke-width:0.999998" />
    </clipPath>
    <clipPath
       clipPathUnits="userSpaceOnUse"
       id="clipPath12294">
      <path
         d="M -561.4131,585.8522 H 33.862898 V -9.4238027 H -561.4131 Z"
         id="path12296"
         style="stroke-width:0.999998" />
    </clipPath>
    <clipPath
       clipPathUnits="userSpaceOnUse"
       id="clipPath12300">
      <path
         d="M -538.2217,577.9479 H 57.054294 V -17.328098 H -538.2217 Z"
         id="path12302"
         style="stroke-width:0.999998" />
    </clipPath>
    <clipPath
       clipPathUnits="userSpaceOnUse"
       id="clipPath12307">
      <path
         d="M -557.0645,585.8483 H 38.211496 V -9.4277027 H -557.0645 Z"
         id="path12309"
         style="stroke-width:0.999998" />
    </clipPath>
    <clipPath
       clipPathUnits="userSpaceOnUse"
       id="clipPath12314">
      <path
         d="M -586.5449,579.5026 H 8.7310952 V -15.7734 H -586.5449 Z"
         id="path12316"
         style="stroke-width:0.999998" />
    </clipPath>
    <clipPath
       clipPathUnits="userSpaceOnUse"
       id="clipPath12320">
      <path
         d="M -553.8975,585.8483 H 41.378499 V -9.4277027 H -553.8975 Z"
         id="path12322"
         style="stroke-width:0.999998" />
    </clipPath>
    <clipPath
       clipPathUnits="userSpaceOnUse"
       id="clipPath12326">
      <path
         d="M -572.8174,586.1354 H 22.458601 V -9.1406027 H -572.8174 Z"
         id="path12328"
         style="stroke-width:0.999998" />
    </clipPath>
    <clipPath
       clipPathUnits="userSpaceOnUse"
       id="clipPath12332">
      <path
         d="M -557.4951,577.8502 H 37.780898 V -17.4258 H -557.4951 Z"
         id="path12334"
         style="stroke-width:0.999998" />
    </clipPath>
    <clipPath
       clipPathUnits="userSpaceOnUse"
       id="clipPath12338">
      <path
         d="M -567.7754,585.8522 H 27.500596 V -9.4238027 H -567.7754 Z"
         id="path12340"
         style="stroke-width:0.999998" />
    </clipPath>
    <clipPath
       clipPathUnits="userSpaceOnUse"
       id="clipPath12344">
      <path
         d="M -528.0898,575.3815 H 67.186194 V -19.8945 H -528.0898 Z"
         id="path12346"
         style="stroke-width:0.999998" />
    </clipPath>
    <clipPath
       clipPathUnits="userSpaceOnUse"
       id="clipPath12350">
      <path
         d="M -542.9326,584.5729 H 52.343394 V -10.7031 H -542.9326 Z"
         id="path12352"
         style="stroke-width:0.999998" />
    </clipPath>
    <clipPath
       clipPathUnits="userSpaceOnUse"
       id="clipPath12356">
      <path
         d="M -548.9834,585.8522 H 46.292596 V -9.4238027 H -548.9834 Z"
         id="path12358"
         style="stroke-width:0.999998" />
    </clipPath>
    <clipPath
       clipPathUnits="userSpaceOnUse"
       id="clipPath12362">
      <path
         d="M -576.3691,585.5885 H 18.9069 V -9.6875027 h -595.276 z"
         id="path12364"
         style="stroke-width:0.999998" />
    </clipPath>
    <clipPath
       clipPathUnits="userSpaceOnUse"
       id="clipPath12368">
      <path
         d="M -584.1943,578.9381 H 11.0817 V -16.337903 h -595.276 z"
         id="path12370"
         style="stroke-width:0.999998" />
    </clipPath>
    <clipPath
       clipPathUnits="userSpaceOnUse"
       id="clipPath12374">
      <path
         d="M -540.8213,585.8483 H 54.454696 V -9.4277027 H -540.8213 Z"
         id="path12376"
         style="stroke-width:0.999998" />
    </clipPath>
    <clipPath
       clipPathUnits="userSpaceOnUse"
       id="clipPath12380">
      <path
         d="M -564.5732,585.8483 H 30.702796 V -9.4277027 H -564.5732 Z"
         id="path12382"
         style="stroke-width:0.999998" />
    </clipPath>
    <clipPath
       clipPathUnits="userSpaceOnUse"
       id="clipPath12386">
      <path
         d="m -434.5566,342.1412 h 595.27599 v -595.276 H -434.5566 Z"
         id="path12388"
         style="stroke-width:0.999998" />
    </clipPath>
    <clipPath
       clipPathUnits="userSpaceOnUse"
       id="clipPath12392">
      <path
         d="M -556.4014,578.0143 H 38.874601 V -17.2617 H -556.4014 Z"
         id="path12394"
         style="stroke-width:0.999998" />
    </clipPath>
    <clipPath
       clipPathUnits="userSpaceOnUse"
       id="clipPath12398">
      <path
         d="M -550.2637,577.3248 H 45.012301 V -17.951198 H -550.2637 Z"
         id="path12400"
         style="stroke-width:0.999998" />
    </clipPath>
    <clipPath
       clipPathUnits="userSpaceOnUse"
       id="clipPath12404">
      <path
         d="m -297.6377,205.2198 h 595.27599 v -595.276 H -297.6377 Z"
         id="path12406"
         style="stroke-width:0.999998" />
    </clipPath>
    <clipPath
       clipPathUnits="userSpaceOnUse"
       id="clipPath12410">
      <path
         d="M -545.417,584.5729 H 49.858996 V -10.7031 H -545.417 Z"
         id="path12412"
         style="stroke-width:0.999998" />
    </clipPath>
    <clipPath
       clipPathUnits="userSpaceOnUse"
       id="clipPath12416">
      <path
         d="M -536.6982,584.5729 H 58.577799 V -10.7031 H -536.6982 Z"
         id="path12418"
         style="stroke-width:0.999998" />
    </clipPath>
    <clipPath
       clipPathUnits="userSpaceOnUse"
       id="clipPath12422">
      <path
         d="m -297.6377,479.0612 h 595.27599 v -595.276 H -297.6377 Z"
         id="path12424"
         style="stroke-width:0.999998" />
    </clipPath>
    <clipPath
       clipPathUnits="userSpaceOnUse"
       id="clipPath12428">
      <path
         d="M -568.2266,575.819 H 27.049396 V -19.457003 H -568.2266 Z"
         id="path12430"
         style="stroke-width:0.999998" />
    </clipPath>
    <clipPath
       clipPathUnits="userSpaceOnUse"
       id="clipPath12434">
      <path
         d="m -160.7188,342.1412 h 595.276 v -595.276 h -595.276 z"
         id="path12436"
         style="stroke-width:0.999998" />
    </clipPath>
    <clipPath
       clipPathUnits="userSpaceOnUse"
       id="clipPath12440">
      <path
         d="M -574.5459,585.8522 H 20.730098 V -9.4238027 H -574.5459 Z"
         id="path12442"
         style="stroke-width:0.999998" />
    </clipPath>
  </defs>
  <sodipodi:namedview
     id="namedview11755"
     pagecolor="#ffffff"
     bordercolor="#000000"
     borderopacity="0.25"
     inkscape:showpageshadow="2"
     inkscape:pageopacity="0.0"
     inkscape:pagecheckerboard="0"
     inkscape:deskcolor="#d1d1d1"
     showgrid="false"
     inkscape:zoom="0.29734106"
     inkscape:cx="-215.24105"
     inkscape:cy="396.85068"
     inkscape:window-width="1419"
     inkscape:window-height="456"
     inkscape:window-x="1920"
     inkscape:window-y="142"
     inkscape:window-maximized="0"
     inkscape:current-layer="svg11753">
    <inkscape:page
       x="0"
       y="0"
       id="page11759"
       width="793.70135"
       height="793.70135" />
  </sodipodi:namedview>
  <path
     d="M 396.85 273.626 C 364.081 273.623 337.514 247.059 337.517 214.291 C 337.514 181.521 364.083 154.958 396.85 154.954 C 429.619 154.954 456.187 181.524 456.185 214.291 C 456.182 247.059 429.621 273.625 396.85 273.626 M 396.85 31.7293 C 296.029 31.7293 214.29 113.461 214.289 214.289 C 214.289 311.682 290.552 391.252 386.615 396.562 C 386.778 290.307 472.863 204.218 579.122 204.054 C 573.81 107.993 494.242 31.7293 396.85 31.7293"
     style="fill:#000000;fill-opacity:1;fill-rule:nonzero;stroke:none"
     id="path11873" />
  <path
     d="M 579.409 456.188 C 546.638 456.185 520.073 429.623 520.076 396.855 C 520.073 364.083 546.641 337.522 579.409 337.518 C 612.178 337.518 638.748 364.086 638.744 396.855 C 638.741 429.623 612.18 456.188 579.409 456.188 M 579.412 214.29 C 482.019 214.29 402.448 290.552 397.14 386.618 C 503.395 386.78 589.482 472.865 589.646 579.122 C 685.709 573.81 761.973 494.243 761.973 396.852 C 761.973 296.028 680.239 214.293 579.412 214.29"
     style="fill:#000000;fill-opacity:1;fill-rule:nonzero;stroke:none"
     id="path11877" />
  <path
     d="M 396.85 638.748 C 364.081 638.745 337.514 612.18 337.517 579.412 C 337.514 546.642 364.083 520.079 396.85 520.076 C 429.619 520.076 456.187 546.644 456.185 579.412 C 456.182 612.18 429.621 638.745 396.85 638.748 M 407.085 397.141 C 406.922 503.396 320.837 589.483 214.578 589.647 C 219.89 685.709 299.458 761.974 396.85 761.974 C 497.672 761.974 579.41 680.24 579.411 579.412 C 579.411 482.019 503.15 402.449 407.085 397.141"
     style="fill:#000000;fill-opacity:1;fill-rule:nonzero;stroke:none"
     id="path11881" />
  <path
     d="M 214.292 456.188 C 181.521 456.185 154.956 429.62 154.959 396.853 C 154.956 364.082 181.524 337.52 214.292 337.516 C 247.061 337.516 273.629 364.084 273.627 396.853 C 273.624 429.62 247.063 456.185 214.292 456.188 M 204.055 214.578 C 107.992 219.893 31.7285 299.459 31.7285 396.852 C 31.7285 497.675 113.462 579.412 214.289 579.412 C 311.682 579.412 391.252 503.152 396.561 407.087 C 290.308 406.923 204.219 320.838 204.055 214.578"
     style="fill:#000000;fill-opacity:1;fill-rule:nonzero;stroke:none"
     id="path11885" />
</svg>
