<?xml version="1.0" encoding="UTF-8" standalone="no"?>
<!-- Created with Inkscape (http://www.inkscape.org/) -->

<svg
   version="1.1"
   id="svg10743"
   width="793.70135"
   height="793.70099"
   viewBox="0 0 793.70135 793.70097"
   sodipodi:docname="Maruni Futatsu Syamigoma.svg"
   inkscape:version="1.2 (dc2aeda, 2022-05-15)"
   xmlns:inkscape="http://www.inkscape.org/namespaces/inkscape"
   xmlns:sodipodi="http://sodipodi.sourceforge.net/DTD/sodipodi-0.dtd"
   xmlns="http://www.w3.org/2000/svg"
   xmlns:svg="http://www.w3.org/2000/svg">
  <defs
     id="defs10747">
    <clipPath
       clipPathUnits="userSpaceOnUse"
       id="clipPath10926">
      <path
         d="m -305.5,375.2225 h 595.276 v -841.89 H -305.5 Z"
         id="path10928"
         style="stroke-width:0.999998" />
    </clipPath>
    <clipPath
       clipPathUnits="userSpaceOnUse"
       id="clipPath10932">
      <path
         d="m -145.6299,268.9374 h 595.27599 v -841.89 H -145.6299 Z"
         id="path10934"
         style="stroke-width:0.999998" />
    </clipPath>
    <clipPath
       clipPathUnits="userSpaceOnUse"
       id="clipPath10938">
      <path
         d="m -305.5,521.2933 h 595.276 v -841.89 H -305.5 Z"
         id="path10940"
         style="stroke-width:0.999998" />
    </clipPath>
  </defs>
  <sodipodi:namedview
     id="namedview10745"
     pagecolor="#ffffff"
     bordercolor="#000000"
     borderopacity="0.25"
     inkscape:showpageshadow="2"
     inkscape:pageopacity="0.0"
     inkscape:pagecheckerboard="0"
     inkscape:deskcolor="#d1d1d1"
     showgrid="false"
     inkscape:zoom="0.21024124"
     inkscape:cx="-470.88764"
     inkscape:cy="561.26002"
     inkscape:window-width="1419"
     inkscape:window-height="456"
     inkscape:window-x="0"
     inkscape:window-y="25"
     inkscape:window-maximized="0"
     inkscape:current-layer="svg10743">
    <inkscape:page
       x="0"
       y="0"
       id="page10749"
       width="793.70135"
       height="793.70099" />
  </sodipodi:namedview>
  <path
     d="m 407.333,336.297 h -22.256 c -14.608,0 -26.441,-15.856 -26.441,-35.417 0,-19.559 11.833,-35.416 26.441,-35.416 h 22.256 c 14.603,0 26.437,15.857 26.437,35.416 0,19.561 -11.834,35.417 -26.437,35.417 m 188.296,33.912 c -52.778,-22.247 -73.474,-33.372 -96.607,-51.997 -16.987,-13.684 -33.092,-39.104 -33.092,-56.556 0,-22.388 8.875,-38.26 26.501,-48.875 h -47.886 l -0.043,7.654 c 0,1.782 -1.42,3.225 -3.164,3.225 -1.753,0 -3.169,-1.448 -3.169,-3.231 l 0.043,-7.648 h -38.858 v 7.654 c 0,1.782 -1.417,3.225 -3.17,3.225 -1.754,0 -3.17,-1.443 -3.17,-3.225 v -7.654 h -38.858 l 0.041,7.648 c 0,1.783 -1.415,3.231 -3.169,3.231 -1.742,0 -3.164,-1.443 -3.164,-3.225 l -0.043,-7.654 h -47.885 c 17.628,10.615 26.5,26.487 26.5,48.875 0,17.452 -16.104,42.872 -33.091,56.556 -23.133,18.625 -43.829,29.75 -96.606,51.997 -45.224,19.068 -76.028,24.333 -76.028,24.333 h 550.945 c 0,0 -30.802,-5.265 -76.027,-24.333"
     style="fill:#231f20;fill-opacity:1;fill-rule:nonzero;stroke:none"
     id="path10763" />
  <path
     d="m 407.333,531.058 h -22.256 c -14.608,0 -26.441,-15.857 -26.441,-35.417 0,-19.559 11.833,-35.416 26.441,-35.416 h 22.256 c 14.603,0 26.437,15.857 26.437,35.416 0,19.56 -11.834,35.417 -26.437,35.417 M 396.184,401.98 H 120.711 c 0,0 30.804,5.266 76.028,24.333 52.777,22.245 73.473,33.373 96.606,51.997 16.987,13.683 33.091,39.105 33.091,56.555 0,22.388 -8.872,38.261 -26.5,48.876 h 47.885 l 0.043,-7.655 c 0,-1.783 1.422,-3.225 3.164,-3.225 1.754,0 3.169,1.448 3.169,3.23 l -0.041,7.65 h 38.858 v -7.655 c 0,-1.783 1.416,-3.225 3.17,-3.225 1.753,0 3.17,1.442 3.17,3.225 v 7.655 h 38.858 l -0.043,-7.65 c 0,-1.782 1.416,-3.23 3.169,-3.23 1.744,0 3.164,1.442 3.164,3.225 l 0.043,7.655 h 47.886 c -17.626,-10.615 -26.501,-26.488 -26.501,-48.876 0,-17.45 16.105,-42.872 33.092,-56.555 23.133,-18.624 43.829,-29.752 96.607,-51.997 45.225,-19.067 76.027,-24.333 76.027,-24.333 z"
     style="fill:#231f20;fill-opacity:1;fill-rule:nonzero;stroke:none"
     id="path10767" />
  <path
     d="m 194.173,194.583 c -51.735,51.793 -83.65,123.024 -83.672,202.005 0.022,78.993 31.937,150.221 83.672,202.015 51.793,51.735 123.022,83.656 202.015,83.667 78.984,-0.011 150.212,-31.932 202.007,-83.667 51.749,-51.794 83.659,-123.022 83.674,-202.015 C 681.854,317.607 649.944,246.376 598.195,194.583 546.4,142.835 475.172,110.919 396.188,110.909 c -78.993,0.01 -150.222,31.926 -202.015,83.674 M 50.2894,396.588 C 50.316,205.548 205.141,50.723 396.188,50.699 587.225,50.723 742.056,205.548 742.077,396.588 742.056,587.638 587.225,742.466 396.188,742.486 205.141,742.466 50.316,587.638 50.2894,396.588"
     style="fill:#231f20;fill-opacity:1;fill-rule:nonzero;stroke:none"
     id="path10771" />
</svg>
