<?xml version="1.0" encoding="UTF-8" standalone="no"?>
<!-- Created with Inkscape (http://www.inkscape.org/) -->

<svg
   inkscape:version="1.2 (dc2aeda, 2022-05-15)"
   sodipodi:docname="Asanohana.svg"
   viewBox="0 0 793.70135 793.70135"
   height="793.70135"
   width="793.70135"
   id="svg3012"
   version="1.1"
   xmlns:inkscape="http://www.inkscape.org/namespaces/inkscape"
   xmlns:sodipodi="http://sodipodi.sourceforge.net/DTD/sodipodi-0.dtd"
   xmlns="http://www.w3.org/2000/svg"
   xmlns:svg="http://www.w3.org/2000/svg">
  <defs
     id="defs3016">
    <clipPath
       clipPathUnits="userSpaceOnUse"
       id="clipPath3549">
      <path
         d="M -538.2217,577.9479 H 57.054297 V -17.3281 H -538.2217 Z"
         id="path3551"
         style="stroke-width:0.999998" />
    </clipPath>
    <clipPath
       clipPathUnits="userSpaceOnUse"
       id="clipPath3553">
      <path
         d="M -584.1943,578.9381 H 11.081697 V -16.3379 H -584.1943 Z"
         id="path3555"
         style="stroke-width:0.999998" />
    </clipPath>
    <clipPath
       clipPathUnits="userSpaceOnUse"
       id="clipPath3557">
      <path
         d="M -586.5449,579.5026 H 8.7310974 V -15.7734 H -586.5449 Z"
         id="path3559"
         style="stroke-width:0.999998" />
    </clipPath>
    <clipPath
       clipPathUnits="userSpaceOnUse"
       id="clipPath3561">
      <path
         d="M -556.4014,578.0143 H 38.874597 V -17.2617 H -556.4014 Z"
         id="path3563"
         style="stroke-width:0.999998" />
    </clipPath>
    <clipPath
       clipPathUnits="userSpaceOnUse"
       id="clipPath3565">
      <path
         d="M -550.2637,577.3248 H 45.012297 V -17.9512 H -550.2637 Z"
         id="path3567"
         style="stroke-width:0.999998" />
    </clipPath>
    <clipPath
       clipPathUnits="userSpaceOnUse"
       id="clipPath3569">
      <path
         d="M -568.2266,575.819 H 27.049397 V -19.457 H -568.2266 Z"
         id="path3571"
         style="stroke-width:0.999998" />
    </clipPath>
    <clipPath
       clipPathUnits="userSpaceOnUse"
       id="clipPath3573">
      <path
         d="M -557.4951,577.8502 H 37.780897 V -17.4258 H -557.4951 Z"
         id="path3575"
         style="stroke-width:0.999998" />
    </clipPath>
    <clipPath
       clipPathUnits="userSpaceOnUse"
       id="clipPath3577">
      <path
         d="M -576.3691,585.5885 H 18.906897 V -9.6875 H -576.3691 Z"
         id="path3579"
         style="stroke-width:0.999998" />
    </clipPath>
    <clipPath
       clipPathUnits="userSpaceOnUse"
       id="clipPath3581">
      <path
         d="M -574.5459,585.8522 H 20.730097 V -9.4238 H -574.5459 Z"
         id="path3583"
         style="stroke-width:0.999998" />
    </clipPath>
    <clipPath
       clipPathUnits="userSpaceOnUse"
       id="clipPath3585">
      <path
         d="M -572.8174,586.1354 H 22.458597 V -9.1406 H -572.8174 Z"
         id="path3587"
         style="stroke-width:0.999998" />
    </clipPath>
    <clipPath
       clipPathUnits="userSpaceOnUse"
       id="clipPath3589">
      <path
         d="M -567.7754,585.8522 H 27.500597 V -9.4238 H -567.7754 Z"
         id="path3591"
         style="stroke-width:0.999998" />
    </clipPath>
    <clipPath
       clipPathUnits="userSpaceOnUse"
       id="clipPath3593">
      <path
         d="M -564.5732,585.8483 H 30.702797 V -9.4277 H -564.5732 Z"
         id="path3595"
         style="stroke-width:0.999998" />
    </clipPath>
    <clipPath
       clipPathUnits="userSpaceOnUse"
       id="clipPath3597">
      <path
         d="M -561.4131,585.8522 H 33.862897 V -9.4238 H -561.4131 Z"
         id="path3599"
         style="stroke-width:0.999998" />
    </clipPath>
    <clipPath
       clipPathUnits="userSpaceOnUse"
       id="clipPath3601">
      <path
         d="M -557.0645,585.8483 H 38.211497 V -9.4277 H -557.0645 Z"
         id="path3603"
         style="stroke-width:0.999998" />
    </clipPath>
    <clipPath
       clipPathUnits="userSpaceOnUse"
       id="clipPath3605">
      <path
         d="M -553.8975,585.8483 H 41.378497 V -9.4277 H -553.8975 Z"
         id="path3607"
         style="stroke-width:0.999998" />
    </clipPath>
    <clipPath
       clipPathUnits="userSpaceOnUse"
       id="clipPath3609">
      <path
         d="M -548.9834,585.8522 H 46.292597 V -9.4238 H -548.9834 Z"
         id="path3611"
         style="stroke-width:0.999998" />
    </clipPath>
    <clipPath
       clipPathUnits="userSpaceOnUse"
       id="clipPath3613">
      <path
         d="M -545.417,584.5729 H 49.858997 V -10.7031 H -545.417 Z"
         id="path3615"
         style="stroke-width:0.999998" />
    </clipPath>
    <clipPath
       clipPathUnits="userSpaceOnUse"
       id="clipPath3617">
      <path
         d="M -542.9326,584.5729 H 52.343397 V -10.7031 H -542.9326 Z"
         id="path3619"
         style="stroke-width:0.999998" />
    </clipPath>
    <clipPath
       clipPathUnits="userSpaceOnUse"
       id="clipPath3621">
      <path
         d="M -540.8213,585.8483 H 54.454697 V -9.4277 H -540.8213 Z"
         id="path3623"
         style="stroke-width:0.999998" />
    </clipPath>
    <clipPath
       clipPathUnits="userSpaceOnUse"
       id="clipPath3625">
      <path
         d="M -536.6982,584.5729 H 58.577797 V -10.7031 H -536.6982 Z"
         id="path3627"
         style="stroke-width:0.999998" />
    </clipPath>
    <clipPath
       clipPathUnits="userSpaceOnUse"
       id="clipPath3629">
      <path
         d="M -528.0898,575.3815 H 67.186197 V -19.8945 H -528.0898 Z"
         id="path3631"
         style="stroke-width:0.999998" />
    </clipPath>
    <clipPath
       clipPathUnits="userSpaceOnUse"
       id="clipPath3633">
      <path
         d="M -531.1924,581.5885 H 64.083597 V -13.6875 H -531.1924 Z"
         id="path3635"
         style="stroke-width:0.999998" />
    </clipPath>
    <clipPath
       clipPathUnits="userSpaceOnUse"
       id="clipPath12445">
      <path
         d="M -505.292,171.1237 H 89.983997 v -595.276 H -505.292 Z"
         id="path12447"
         style="stroke-width:0.999998" />
    </clipPath>
    <clipPath
       clipPathUnits="userSpaceOnUse"
       id="clipPath12451">
      <path
         d="m -488.7764,101.7408 h 595.276 v -595.276 h -595.276 z"
         id="path12453"
         style="stroke-width:0.999998" />
    </clipPath>
    <clipPath
       clipPathUnits="userSpaceOnUse"
       id="clipPath12457">
      <path
         d="M -171.125,89.983 H 424.151 V -505.293 H -171.125 Z"
         id="path12459"
         style="stroke-width:0.999998" />
    </clipPath>
    <clipPath
       clipPathUnits="userSpaceOnUse"
       id="clipPath12463">
      <path
         d="m -23.9629,301.0026 h 595.276 v -595.276 h -595.276 z"
         id="path12465"
         style="stroke-width:0.999998" />
    </clipPath>
    <clipPath
       clipPathUnits="userSpaceOnUse"
       id="clipPath12469">
      <path
         d="M -571.3135,294.274 H 23.962501 V -301.002 H -571.3135 Z"
         id="path12471"
         style="stroke-width:0.999998" />
    </clipPath>
    <clipPath
       clipPathUnits="userSpaceOnUse"
       id="clipPath12475">
      <path
         d="m -355.0137,61.3463 h 595.276 v -595.276 h -595.276 z"
         id="path12477"
         style="stroke-width:0.999998" />
    </clipPath>
    <clipPath
       clipPathUnits="userSpaceOnUse"
       id="clipPath12481">
      <path
         d="M -533.9307,355.0143 H 61.345299 v -595.276 H -533.9307 Z"
         id="path12483"
         style="stroke-width:0.999998" />
    </clipPath>
    <clipPath
       clipPathUnits="userSpaceOnUse"
       id="clipPath12487">
      <path
         d="m -334.8135,297.6393 h 595.276 v -595.276 h -595.276 z"
         id="path12489"
         style="stroke-width:0.999998" />
    </clipPath>
    <clipPath
       clipPathUnits="userSpaceOnUse"
       id="clipPath12493">
      <path
         d="m -424.1523,505.2936 h 595.276 v -595.276 h -595.276 z"
         id="path12495"
         style="stroke-width:0.999998" />
    </clipPath>
    <clipPath
       clipPathUnits="userSpaceOnUse"
       id="clipPath12499">
      <path
         d="m -294.2734,23.9635 h 595.276 v -595.276 h -595.276 z"
         id="path12501"
         style="stroke-width:0.999998" />
    </clipPath>
    <clipPath
       clipPathUnits="userSpaceOnUse"
       id="clipPath12505">
      <path
         d="m -493.5342,488.776 h 595.276 V -106.5 h -595.276 z"
         id="path12507"
         style="stroke-width:0.999998" />
    </clipPath>
    <clipPath
       clipPathUnits="userSpaceOnUse"
       id="clipPath12511">
      <path
         d="m -61.3457,240.2623 h 595.276 v -595.276 h -595.276 z"
         id="path12513"
         style="stroke-width:0.999998" />
    </clipPath>
    <clipPath
       clipPathUnits="userSpaceOnUse"
       id="clipPath12517">
      <path
         d="m -101.7402,106.5006 h 595.276 v -595.276 h -595.276 z"
         id="path12519"
         style="stroke-width:0.999998" />
    </clipPath>
    <clipPath
       clipPathUnits="userSpaceOnUse"
       id="clipPath12523">
      <path
         d="m -89.9824,424.151 h 595.276 v -595.276 h -595.276 z"
         id="path12525"
         style="stroke-width:0.999998" />
    </clipPath>
    <clipPath
       clipPathUnits="userSpaceOnUse"
       id="clipPath12529">
      <path
         d="m -106.5,493.5358 h 595.276 v -595.276 H -106.5 Z"
         id="path12531"
         style="stroke-width:0.999998" />
    </clipPath>
    <clipPath
       clipPathUnits="userSpaceOnUse"
       id="clipPath12536">
      <path
         d="m -240.2627,533.9303 h 595.276 V -61.345697 h -595.276 z"
         id="path12538"
         style="stroke-width:0.999998" />
    </clipPath>
  </defs>
  <sodipodi:namedview
     id="namedview3014"
     pagecolor="#ffffff"
     bordercolor="#000000"
     borderopacity="0.25"
     inkscape:showpageshadow="2"
     inkscape:pageopacity="0.0"
     inkscape:pagecheckerboard="0"
     inkscape:deskcolor="#d1d1d1"
     showgrid="false"
     inkscape:zoom="0.29734106"
     inkscape:cx="47.083978"
     inkscape:cy="386.76125"
     inkscape:window-width="1735"
     inkscape:window-height="582"
     inkscape:window-x="0"
     inkscape:window-y="25"
     inkscape:window-maximized="0"
     inkscape:current-layer="svg3012">
    <inkscape:page
       x="0"
       y="0"
       id="page3018"
       width="793.70135"
       height="793.70135" />
  </sodipodi:namedview>
  <path
     d="M 446.418 396.852 C 446.418 424.227 424.226 446.417 396.85 446.417 C 369.477 446.417 347.282 424.227 347.282 396.852 C 347.282 369.477 369.477 347.283 396.85 347.283 C 424.226 347.283 446.418 369.477 446.418 396.852"
     style="fill:#000000;fill-opacity:1;fill-rule:nonzero;stroke:none"
     id="path3132" />
  <path
     d="M 473.352 81.7951 C 463.081 77.5031 452.133 77.2671 442.276 80.3364 C 442.344 79.3218 442.391 78.3018 442.391 77.2698 C 442.391 53.6325 424.38 34.2046 401.334 31.9512 L 401.334 338.498 C 406.087 338.86 410.676 339.784 415.043 341.212 L 497.821 141.37 C 507.515 118.162 496.559 91.4884 473.352 81.7951"
     style="fill:#000000;fill-opacity:1;fill-rule:nonzero;stroke:none"
     id="path3136" />
  <path
     d="M 392.365 31.9513 C 369.32 34.2046 351.31 53.6339 351.31 77.2699 C 351.31 78.3019 351.357 79.3205 351.425 80.3365 C 341.568 77.2659 330.62 77.5032 320.349 81.7952 C 297.144 91.4872 286.187 118.162 295.881 141.368 L 378.66 341.211 C 383.024 339.784 387.614 338.86 392.365 338.499 Z"
     style="fill:#000000;fill-opacity:1;fill-rule:nonzero;stroke:none"
     id="path3140" />
  <path
     d="M 228.167 119.977 C 217.87 124.206 209.962 131.78 205.162 140.92 C 204.492 140.154 203.806 139.4 203.075 138.672 C 186.362 121.956 159.887 120.953 141.998 135.657 L 358.76 352.419 C 362.375 349.315 366.273 346.722 370.369 344.643 L 287.594 144.8 C 278.039 121.537 251.43 110.422 228.167 119.977"
     style="fill:#000000;fill-opacity:1;fill-rule:nonzero;stroke:none"
     id="path3144" />
  <path
     d="M 135.654 142.001 C 120.954 159.889 121.958 186.362 138.671 203.076 C 139.401 203.806 140.154 204.493 140.919 205.162 C 131.779 209.962 124.206 217.869 119.977 228.167 C 110.422 251.43 121.535 278.039 144.801 287.594 L 344.643 370.37 C 346.721 366.275 349.313 362.376 352.416 358.762 Z"
     style="fill:#000000;fill-opacity:1;fill-rule:nonzero;stroke:none"
     id="path3148" />
  <path
     d="M 81.7943 320.35 C 77.5036 330.621 77.2663 341.569 80.3356 351.426 C 79.3223 351.358 78.3023 351.311 77.269 351.311 C 53.6317 351.311 34.2038 369.322 31.9504 392.368 L 338.498 392.366 C 338.859 387.615 339.783 383.026 341.211 378.659 L 141.369 295.881 C 118.161 286.187 91.4876 297.145 81.7943 320.35"
     style="fill:#000000;fill-opacity:1;fill-rule:nonzero;stroke:none"
     id="path3152" />
  <path
     d="M 31.9505 401.337 C 34.2038 424.381 53.6331 442.392 77.2691 442.392 C 78.3024 442.392 79.321 442.345 80.3357 442.277 C 77.2651 452.134 77.5024 463.082 81.7944 473.353 C 91.4877 496.558 118.161 507.517 141.368 497.821 L 341.21 415.042 C 339.783 410.678 338.859 406.088 338.498 401.337 Z"
     style="fill:#000000;fill-opacity:1;fill-rule:nonzero;stroke:none"
     id="path3156" />
  <path
     d="M 119.977 565.535 C 124.206 575.832 131.78 583.74 140.92 588.54 C 140.154 589.21 139.4 589.896 138.672 590.626 C 121.956 607.34 120.953 633.816 135.658 651.704 L 352.419 434.942 C 349.315 431.327 346.722 427.429 344.643 423.33 L 144.801 506.108 C 121.536 515.663 110.422 542.272 119.977 565.535"
     style="fill:#000000;fill-opacity:1;fill-rule:nonzero;stroke:none"
     id="path3160" />
  <path
     d="M 142 658.048 C 159.888 672.748 186.361 671.743 203.075 655.029 C 203.805 654.303 204.493 653.548 205.164 652.783 C 209.961 661.923 217.868 669.496 228.166 673.725 C 251.429 683.28 278.038 672.165 287.593 648.9 L 370.371 449.059 C 366.274 446.981 362.375 444.39 358.761 441.286 Z"
     style="fill:#000000;fill-opacity:1;fill-rule:nonzero;stroke:none"
     id="path3164" />
  <path
     d="M 320.35 711.907 C 330.619 716.199 341.567 716.435 351.425 713.366 C 351.357 714.38 351.31 715.399 351.31 716.434 C 351.31 740.068 369.321 759.498 392.367 761.751 L 392.364 455.202 C 387.616 454.842 383.025 453.918 378.658 452.49 L 295.879 652.331 C 286.186 675.54 297.143 702.214 320.35 711.907"
     style="fill:#000000;fill-opacity:1;fill-rule:nonzero;stroke:none"
     id="path3168" />
  <path
     d="m 401.33599,761.7508 c 23.04533,-2.252 41.05467,-21.68267 41.05467,-45.31733 0,-1.03467 -0.0453,-2.05467 -0.11334,-3.068 9.856,3.07066 20.804,2.83333 31.07467,-1.45867 23.20666,-9.69467 34.16266,-36.36666 24.468,-59.57466 L 415.04132,452.49081 c -4.364,1.42666 -8.95466,2.35066 -13.70533,2.71066 z"
     style="fill:#000000;fill-opacity:1;fill-rule:nonzero;stroke:none;stroke-width:1.33333"
     id="path3172" />
  <path
     d="M 565.536 673.725 C 575.831 669.496 583.739 661.922 588.539 652.782 C 589.208 653.548 589.896 654.304 590.625 655.03 C 607.34 671.746 633.813 672.749 651.702 658.045 L 434.94 441.283 C 431.327 444.387 427.427 446.98 423.328 449.059 L 506.107 648.9 C 515.663 672.165 542.269 683.28 565.536 673.725"
     style="fill:#000000;fill-opacity:1;fill-rule:nonzero;stroke:none"
     id="path3176" />
  <path
     d="M 658.046 651.701 C 672.747 633.813 671.743 607.34 655.03 590.625 C 654.301 589.896 653.547 589.209 652.783 588.537 C 661.922 583.74 669.497 575.832 673.725 565.535 C 683.278 542.272 672.166 515.663 648.902 506.108 L 449.057 423.33 C 446.98 427.426 444.388 431.327 441.285 434.939 Z"
     style="fill:#000000;fill-opacity:1;fill-rule:nonzero;stroke:none"
     id="path3180" />
  <path
     d="M 711.908 473.352 C 716.197 463.081 716.436 452.133 713.367 442.279 C 714.38 442.344 715.399 442.391 716.432 442.391 C 740.069 442.391 759.497 424.38 761.751 401.334 L 455.203 401.336 C 454.843 406.084 453.919 410.675 452.491 415.043 L 652.332 497.821 C 675.54 507.516 702.213 496.557 711.908 473.352"
     style="fill:#000000;fill-opacity:1;fill-rule:nonzero;stroke:none"
     id="path3184" />
  <path
     d="M 761.751 392.365 C 759.496 369.32 740.067 351.31 716.431 351.31 C 715.398 351.31 714.379 351.356 713.366 351.422 C 716.435 341.568 716.199 330.62 711.907 320.349 C 702.212 297.144 675.539 286.187 652.334 295.881 L 452.49 378.66 C 453.918 383.024 454.841 387.614 455.202 392.365 Z"
     style="fill:#000000;fill-opacity:1;fill-rule:nonzero;stroke:none"
     id="path3188" />
  <path
     d="M 673.723 228.165 C 669.495 217.87 661.922 209.962 652.783 205.165 C 653.547 204.493 654.302 203.805 655.03 203.076 C 671.746 186.361 672.748 159.888 658.043 141.999 L 441.284 358.761 C 444.386 362.374 446.978 366.274 449.057 370.373 L 648.902 287.594 C 672.166 278.04 683.279 251.43 673.723 228.165"
     style="fill:#000000;fill-opacity:1;fill-rule:nonzero;stroke:none"
     id="path3192" />
  <path
     d="M 651.702 135.654 C 633.813 120.954 607.341 121.958 590.626 138.671 C 589.897 139.402 589.207 140.154 588.539 140.919 C 583.74 131.779 575.834 124.206 565.534 119.977 C 542.27 110.422 515.664 121.537 506.109 144.799 L 423.329 344.643 C 427.427 346.721 431.325 349.313 434.94 352.416 Z"
     style="fill:#000000;fill-opacity:1;fill-rule:nonzero;stroke:none"
     id="path3196" />
</svg>
