<?xml version="1.0" encoding="UTF-8" standalone="no"?>
<!-- Created with Inkscape (http://www.inkscape.org/) -->

<svg
   version="1.1"
   id="svg6251"
   width="795.03467"
   height="793.70135"
   viewBox="0 0 795.03467 793.70135"
   sodipodi:docname="Hoso Asanoha.svg"
   inkscape:version="1.2 (dc2aeda, 2022-05-15)"
   xmlns:inkscape="http://www.inkscape.org/namespaces/inkscape"
   xmlns:sodipodi="http://sodipodi.sourceforge.net/DTD/sodipodi-0.dtd"
   xmlns="http://www.w3.org/2000/svg"
   xmlns:svg="http://www.w3.org/2000/svg">

  <sodipodi:namedview
     id="namedview6253"
     pagecolor="#ffffff"
     bordercolor="#000000"
     borderopacity="0.25"
     inkscape:showpageshadow="2"
     inkscape:pageopacity="0.0"
     inkscape:pagecheckerboard="0"
     inkscape:deskcolor="#d1d1d1"
     showgrid="false"
     inkscape:zoom="0.29734106"
     inkscape:cx="-770.15936"
     inkscape:cy="558.28146"
     inkscape:window-width="1419"
     inkscape:window-height="456"
     inkscape:window-x="0"
     inkscape:window-y="25"
     inkscape:window-maximized="0"
     inkscape:current-layer="svg6251">
    <inkscape:page
       x="0"
       y="0"
       id="page6257"
       width="795.03467"
       height="793.70135" />
  </sodipodi:namedview>
  <path
     d="m 305.21,228.485 86.836,150.401 V 42.0442 Z"
     />
  <path
     d="M 488.488,228.485 401.648,42.0349 V 378.894 Z"
     />
  <path
     d="M 205.221,392.03 H 378.888 L 87.1744,223.609 Z"
     />
  <path
     d="M 296.858,233.306 91.9678,215.286 383.696,383.718 Z"
     />
  <path
     d="M 296.858,560.398 383.691,409.997 91.9784,578.419 Z"
     />
  <path
     d="M 205.218,401.673 87.1678,570.102 378.898,401.675 Z"
     />
  <path
     d="m 488.485,565.218 -86.834,-150.401 0,336.845 z"
     />
  <path
     d="m 305.21,565.22 86.838,186.45 V 414.811 Z"
     />
  <path
     d="M 588.477,401.677 H 414.808 l 291.714,168.418 z"
     />
  <path
     d="M 496.839,560.398 701.729,578.419 410,409.989 Z"
     />
  <path
     d="M 496.839,233.309 410.006,383.71 701.718,215.288 Z"
     />
  <path
     d="M 588.479,392.033 706.529,223.601 414.799,392.03 Z"
     />
</svg>
