<?xml version="1.0" encoding="UTF-8" standalone="no"?>
<!-- Created with Inkscape (http://www.inkscape.org/) -->

<svg
   version="1.1"
   id="svg2110"
   width="793.70135"
   height="793.70135"
   viewBox="0 0 793.70135 793.70135"
   sodipodi:docname="Mukou Maasa.svg"
   inkscape:version="1.2 (dc2aeda, 2022-05-15)"
   xmlns:inkscape="http://www.inkscape.org/namespaces/inkscape"
   xmlns:sodipodi="http://sodipodi.sourceforge.net/DTD/sodipodi-0.dtd"
   xmlns="http://www.w3.org/2000/svg"
   xmlns:svg="http://www.w3.org/2000/svg">
  <sodipodi:namedview
     id="namedview2112"
     pagecolor="#ffffff"
     bordercolor="#000000"
     borderopacity="0.25"
     inkscape:showpageshadow="2"
     inkscape:pageopacity="0.0"
     inkscape:pagecheckerboard="0"
     inkscape:deskcolor="#d1d1d1"
     showgrid="false"
     inkscape:zoom="0.29734106"
     inkscape:cx="-756.70679"
     inkscape:cy="396.85067"
     inkscape:window-width="1419"
     inkscape:window-height="456"
     inkscape:window-x="0"
     inkscape:window-y="25"
     inkscape:window-maximized="0"
     inkscape:current-layer="svg2110">
    <inkscape:page
       x="0"
       y="0"
       id="page2116"
       width="793.70135"
       height="793.70135" />
  </sodipodi:namedview>
  <path
     d="m 442.332,397.214 c 0,25.119 -20.362,45.483 -45.482,45.483 -25.12,0 -45.484,-20.364 -45.484,-45.483 0,-25.12 20.364,-45.484 45.484,-45.484 25.12,0 45.482,20.364 45.482,45.484"
     style="fill:#000000;fill-opacity:1;fill-rule:nonzero;stroke:none"
     id="path2230" />
  <path
     d="m 392.43,36.3029 c -5.008,5.464 -13.155,15.236 -18.426,26.1013 -8.328,17.1666 -10.198,28.8946 -10.198,28.8946 l -12.07,-9.348 c 0,0 -5.778,9.688 -9.857,26.5162 -4.487,18.51 -5.133,29.576 -5.133,29.576 l -11.695,-11.388 c 0,0 -4.873,13.081 -7.308,30.934 -2.549,18.695 -1.36,34.164 -1.36,34.164 l -13.428,-7.31 c 0,0 -3.289,35.971 9.288,57.387 l 61.36,106.28 c 5.785,-2.744 12.135,-4.485 18.827,-5.025 z"
     style="fill:#000000;fill-opacity:1;fill-rule:nonzero;stroke:none"
     id="path2234" />
  <path
     d="m 401.268,343.085 c 6.692,0.54 13.042,2.281 18.827,5.026 l 61.361,-106.279 c 12.577,-21.418 9.285,-57.388 9.285,-57.388 l -13.426,7.309 c 0,0 1.19,-15.469 -1.359,-34.164 -2.436,-17.853 -7.311,-30.934 -7.311,-30.934 l -11.691,11.388 c 0,0 -0.648,-11.066 -5.135,-29.576 -4.079,-16.8282 -9.857,-26.5162 -9.857,-26.5162 l -12.068,9.348 c 0,0 -1.871,-11.728 -10.2,-28.8946 -5.271,-10.8653 -13.418,-20.6373 -18.426,-26.1013 z"
     style="fill:#000000;fill-opacity:1;fill-rule:nonzero;stroke:none"
     id="path2238" />
  <path
     d="m 82.0831,220.586 c 2.2267,7.068 6.6173,19.01 13.3907,29.008 10.7022,15.798 19.9242,23.279 19.9242,23.279 l -14.13,5.777 c 0,0 5.503,9.85 18.034,21.796 13.789,13.14 23.046,19.234 23.046,19.234 l -15.709,4.433 c 0,0 8.893,10.762 23.137,21.796 14.916,11.557 28.906,18.261 28.906,18.261 l -13.042,7.973 c 0,0 29.506,20.835 54.341,20.651 h 122.721 c 0.516,-6.383 2.184,-12.752 5.062,-18.817 z"
     style="fill:#000000;fill-opacity:1;fill-rule:nonzero;stroke:none"
     id="path2242" />
  <path
     d="m 352.183,366.323 c 3.813,-5.526 8.496,-10.153 13.767,-13.792 L 304.589,246.25 C 292.33,224.652 259.534,209.516 259.534,209.516 l -0.385,15.282 c 0,0 -12.8,-8.764 -30.268,-15.904 -16.676,-6.818 -30.444,-9.138 -30.444,-9.138 l 4.016,15.82 c 0,0 -9.907,-4.971 -28.18,-10.34 -16.612,-4.882 -27.893,-4.72 -27.893,-4.72 l 2.062,15.125 c 0,0 -11.092,-4.245 -30.122,-5.617 -12.047,-0.867 -24.5829,1.302 -31.8175,2.908 z"
     style="fill:#000000;fill-opacity:1;fill-rule:nonzero;stroke:none"
     id="path2246" />
  <path
     d="m 86.5025,581.498 c 7.2346,1.605 19.7705,3.773 31.8175,2.906 19.032,-1.372 30.122,-5.616 30.122,-5.616 l -2.061,15.127 c 0,0 11.28,0.158 27.892,-4.723 18.273,-5.369 28.18,-10.34 28.18,-10.34 l -4.016,15.82 c 0,0 13.766,-2.318 30.445,-9.137 17.467,-7.141 30.265,-15.905 30.265,-15.905 l 0.386,15.285 c 0,0 32.797,-15.136 45.054,-36.739 L 365.95,441.898 c -5.27,-3.639 -9.954,-8.267 -13.767,-13.792 z"
     style="fill:#000000;fill-opacity:1;fill-rule:nonzero;stroke:none"
     id="path2250" />
  <path
     d="m 347.764,420.451 c -2.878,-6.065 -4.545,-12.434 -5.06,-18.817 l -122.721,0 c -24.835,-0.185 -54.343,20.65 -54.343,20.65 l 13.044,7.976 c 0,0 -13.992,6.702 -28.908,18.258 -14.243,11.035 -23.138,21.796 -23.138,21.796 l 15.71,4.433 c 0,0 -9.258,6.092 -23.047,19.234 -12.531,11.946 -18.032,21.796 -18.032,21.796 l 14.131,5.777 c 0,0 -9.223,7.483 -19.9269,23.28 -6.7733,9.999 -11.164,21.94 -13.3906,29.007 z"
     style="fill:#000000;fill-opacity:1;fill-rule:nonzero;stroke:none"
     id="path2254" />
  <path
     d="m 401.27,758.123 c 5.008,-5.463 13.154,-15.235 18.425,-26.1 8.329,-17.168 10.2,-28.895 10.2,-28.895 l 12.068,9.348 c 0,0 5.777,-9.689 9.857,-26.517 4.487,-18.509 5.135,-29.574 5.135,-29.574 l 11.692,11.389 c 0,0 4.875,-13.083 7.311,-30.936 2.548,-18.696 1.358,-34.163 1.358,-34.163 l 13.427,7.308 c 0,0 3.292,-35.97 -9.285,-57.388 L 420.096,446.317 c -5.785,2.743 -12.134,4.485 -18.826,5.024 z"
     style="fill:#000000;fill-opacity:1;fill-rule:nonzero;stroke:none"
     id="path2258" />
  <path
     d="m 392.431,451.341 c -6.692,-0.539 -13.041,-2.282 -18.827,-5.028 l -61.361,106.281 c -12.577,21.417 -9.285,57.387 -9.285,57.387 l 13.427,-7.308 c 0,0 -1.191,15.468 1.358,34.166 2.436,17.85 7.311,30.934 7.311,30.934 l 11.692,-11.389 c 0,0 0.648,11.065 5.134,29.577 4.079,16.826 9.858,26.515 9.858,26.515 l 12.068,-9.349 c 0,0 1.87,11.729 10.2,28.895 5.272,10.866 13.417,20.639 18.425,26.102 z"
     style="fill:#000000;fill-opacity:1;fill-rule:nonzero;stroke:none"
     id="path2262" />
  <path
     d="m 711.618,573.842 c -2.228,-7.068 -6.617,-19.011 -13.39,-29.008 -10.703,-15.798 -19.926,-23.28 -19.926,-23.28 l 14.13,-5.776 c 0,0 -5.502,-9.85 -18.035,-21.798 -13.787,-13.14 -23.045,-19.232 -23.045,-19.232 l 15.709,-4.433 c 0,0 -8.893,-10.764 -23.137,-21.797 -14.916,-11.555 -28.906,-18.26 -28.906,-18.26 l 13.042,-7.975 c 0,0 -29.505,-20.834 -54.341,-20.649 H 450.998 c -0.516,6.381 -2.184,12.751 -5.062,18.816 z"
     style="fill:#000000;fill-opacity:1;fill-rule:nonzero;stroke:none"
     id="path2266" />
  <path
     d="m 441.516,428.103 c -3.812,5.527 -8.494,10.154 -13.764,13.792 l 61.36,106.281 c 12.259,21.599 45.055,36.736 45.055,36.736 l 0.385,-15.282 c 0,0 12.8,8.764 30.268,15.904 16.676,6.818 30.445,9.137 30.445,9.137 l -4.016,-15.82 c 0,0 9.905,4.971 28.18,10.34 16.612,4.882 27.892,4.72 27.892,4.72 l -2.063,-15.124 c 0,0 11.092,4.244 30.123,5.616 12.047,0.867 24.583,-1.303 31.819,-2.907 z"
     style="fill:#000000;fill-opacity:1;fill-rule:nonzero;stroke:none"
     id="path2270" />
  <path
     d="m 707.196,212.93 c -7.235,-1.605 -19.77,-3.773 -31.816,-2.908 -19.032,1.372 -30.123,5.616 -30.123,5.616 l 2.061,-15.125 c 0,0 -11.278,-0.16 -27.892,4.723 -18.273,5.368 -28.179,10.34 -28.179,10.34 l 4.017,-15.822 c 0,0 -13.768,2.32 -30.447,9.138 -17.466,7.142 -30.265,15.905 -30.265,15.905 l -0.385,-15.284 c 0,0 -32.798,15.136 -45.055,36.737 l -61.361,106.279 c 5.268,3.638 9.952,8.268 13.765,13.792 z"
     style="fill:#000000;fill-opacity:1;fill-rule:nonzero;stroke:none"
     id="path2274" />
  <path
     d="m 445.935,373.977 c 2.877,6.064 4.545,12.432 5.061,18.816 l 122.721,-0.002 c 24.836,0.187 54.343,-20.648 54.343,-20.648 l -13.043,-7.976 c 0,0 13.991,-6.702 28.907,-18.26 14.242,-11.033 23.137,-21.795 23.137,-21.795 l -15.711,-4.435 c 0,0 9.26,-6.091 23.047,-19.232 12.533,-11.947 18.033,-21.796 18.033,-21.796 l -14.13,-5.776 c 0,0 9.222,-7.484 19.925,-23.281 6.775,-9.998 11.165,-21.939 13.391,-29.008 z"
     style="fill:#000000;fill-opacity:1;fill-rule:nonzero;stroke:none"
     id="path2278" />
</svg>
