<?xml version="1.0" encoding="UTF-8" standalone="no"?>
<svg
   id="emoji"
   viewBox="0 0 72 72"
   version="1.1"
   sodipodi:docname="American Samoa.svg"
   inkscape:version="1.2 (dc2aeda, 2022-05-15)"
   xmlns:inkscape="http://www.inkscape.org/namespaces/inkscape"
   xmlns:sodipodi="http://sodipodi.sourceforge.net/DTD/sodipodi-0.dtd"
   xmlns="http://www.w3.org/2000/svg"
   xmlns:svg="http://www.w3.org/2000/svg">
  <defs
     id="defs73910" />
  <sodipodi:namedview
     id="namedview73908"
     pagecolor="#ffffff"
     bordercolor="#000000"
     borderopacity="0.25"
     inkscape:showpageshadow="2"
     inkscape:pageopacity="0.0"
     inkscape:pagecheckerboard="0"
     inkscape:deskcolor="#d1d1d1"
     showgrid="false"
     inkscape:zoom="3.2777778"
     inkscape:cx="11.59322"
     inkscape:cy="40.271186"
     inkscape:window-width="1309"
     inkscape:window-height="456"
     inkscape:window-x="0"
     inkscape:window-y="25"
     inkscape:window-maximized="0"
     inkscape:current-layer="emoji" />
  <path
     id="path76733"
     style="fill:#ffffff"
     d="M 5,17 H 67 V 55 H 5 Z" />
  <path
     style="color:#000000;fill:#1e50a0;stroke-width:2;stroke-linecap:round;stroke-linejoin:round;-inkscape-stroke:none"
     d="M 5,36 67,17 H 5 Z"
     id="path76721" />
  <path
     style="color:#000000;fill:#d22f27;stroke-linecap:round;stroke-linejoin:round;-inkscape-stroke:none"
     d="m 5,16 a 1.0001,1.0001 0 0 0 -1,1 v 19 a 1.0001,1.0001 0 0 0 1.2929687,0.957031 l 62.0000003,-19 A 1.0001,1.0001 0 0 0 67,16 Z m 1,2 H 60.320312 L 6,34.646484 Z"
     id="path76718" />
  <path
     style="color:#000000;fill:#1e50a0;stroke-width:2;stroke-linecap:round;stroke-linejoin:round"
     d="M 5,55 H 67 L 5,36 Z"
     id="path76727" />
  <path
     style="color:#000000;fill:#d22f27;stroke-linecap:round;stroke-linejoin:round"
     d="M 5.2929687,35.042969 A 1.0001,1.0001 0 0 0 4,36 v 19 a 1.0001,1.0001 0 0 0 1,1 h 62 a 1.0001,1.0001 0 0 0 0.292969,-1.957031 z M 6,37.353516 60.320312,54 H 6 Z"
     id="path76724" />
  <path
     fill="#a57939"
     d="m 46.0234,38.8825 c 0,0 -2.1058,-4.7163 5.49,-4.297 0,0 1.6922,-7.057 12.2217,-9.3977 0,0 1.02,9.8122 -8.8748,13.31 a 4.1454,4.1454 0 0 0 3.3844,3.9128 c 0.4513,0.1048 1.1282,-0.1048 1.2786,0 0.8273,0.7686 -5.2451,1.8956 -6.5237,1.5113 v -2.7163 c 0,0 -2.3511,0.0525 -3.5921,-3.0916 -0.0375,0 -0.8645,-1.5721 -3.3841,0.7685 z"
     id="path76736" />
  <path
     fill="#6a462f"
     d="m 52.0944,33.9612 c 0,0 -1.1598,-8.8083 1.8112,-9.9612 0,0 2.85,2 2.85,4 z"
     id="path76739" />
  <path
     fill="#ffffff"
     d="m 50.2833,39.3945 c 0,0 -1.8056,-2.8619 -3.6222,-0.9055 0,0 -2.6263,-4.6637 5.0944,-4.489 z"
     id="path76742" />
  <path
     d="m 54.4762,44.7153 a 2.8485,2.8485 0 0 1 -1.9824,-0.5512 0.75,0.75 0 0 1 -0.1406,-0.8662 v 0 a 2.773,2.773 0 0 0 0.05,-1.2724 c -0.961,-0.128 -2.6221,-0.772 -3.5879,-3.5488 A 0.3236,0.3236 0 0 0 48.618,38.3849 c -0.1416,-0.02 -0.6845,0.0117 -1.7353,1.0625 a 0.76,0.76 0 0 1 -0.6973,0.2011 0.7519,0.7519 0 0 1 -0.541,-0.4834 4.6707,4.6707 0 0 1 0.1728,-3.4521 3.31,3.31 0 0 1 2.336,-1.5825 11.2583,11.2583 0 0 1 2.3906,-0.2622 c 0.1279,-0.002 0.2793,-0.0044 0.375,-0.0127 0.0322,-0.1221 0.1,-0.4405 0.1777,-0.9258 a 19.4218,19.4218 0 0 0 0.1709,-2.3726 c 0.0938,-2.5972 0.209,-5.83 2.2207,-7.18 a 0.75,0.75 0 0 1 0.5166,-0.1211 2.6873,2.6873 0 0 1 2.462,2.5547 0.75,0.75 0 0 1 -1.5,0 1.0927,1.0927 0 0 0 -0.878,-1 c -1.1523,1.0738 -1.2461,3.6812 -1.3222,5.8008 a 20.1992,20.1992 0 0 1 -0.1914,2.5674 2.9115,2.9115 0 0 1 -0.7129,1.8789 2.0372,2.0372 0 0 1 -1.295,0.3106 9.7854,9.7854 0 0 0 -2.1015,0.23 1.8612,1.8612 0 0 0 -1.3379,0.8462 2.1754,2.1754 0 0 0 -0.2442,1.0464 2.7941,2.7941 0 0 1 1.9854,-0.5849 1.8,1.8 0 0 1 1.2949,0.9018 0.7467,0.7467 0 0 1 0.043,0.1021 c 0.9531,2.8276 2.6357,2.6528 2.709,2.6411 a 0.7694,0.7694 0 0 1 0.8369,0.5639 5.5691,5.5691 0 0 1 0.1494,2.0977 11.0916,11.0916 0 0 0 3.3262,-0.4048 4.0469,4.0469 0 0 1 -3.3784,-4.351 0.75,0.75 0 0 1 0.3789,-0.5781 24.4836,24.4836 0 0 0 3.3282,-2.2168 6.3988,6.3988 0 0 0 -0.5147,-1.9551 0.75023225,0.75023225 0 0 1 1.3965,-0.5488 c 0.81,2.062 0.61,2.9351 0.53,3.1533 a 0.75,0.75 0 0 1 -0.2266,0.3194 25.0572,25.0572 0 0 1 -3.3923,2.3359 2.6623,2.6623 0 0 0 0.5957,1.5029 3.3445,3.3445 0 0 0 2.4336,0.9829 c 0.5713,0.0342 1.6338,0.0977 1.8155,0.9034 0.0742,0.3281 0.0049,0.8066 -0.7461,1.2207 a 13.0255,13.0255 0 0 1 -4.9725,1.1386 z"
     id="path76745" />
  <path
     d="m 51.7565,35.75 a 0.76,0.76 0 0 1 -0.1045,-0.0073 0.7506,0.7506 0 0 1 -0.64,-0.8462 c 0.415,-2.9732 5.1005,-6.7349 5.6328,-7.1538 0.2041,-0.15 4.55,-3.3047 7.5214,-3.3047 a 0.749,0.749 0 0 1 0.7354,0.604 11.0427,11.0427 0 0 1 -2.8216,9.0254 0.75,0.75 0 0 1 -1.2216,-0.1563 12.405,12.405 0 0 0 -1.4707,-2.2187 0.75006927,0.75006927 0 1 1 1.0839,-1.0371 9.9241,9.9241 0 0 1 1.1612,1.5893 9.6344,9.6344 0 0 0 1.873,-6.2441 18.1327,18.1327 0 0 0 -5.9531,2.937 c -1.2959,1.02 -4.7734,4.1509 -5.0537,6.166 A 0.751,0.751 0 0 1 51.7565,35.75 Z"
     id="path76748" />
  <path
     d="M 50.6842,43.958 A 0.7571,0.7571 0 0 1 50.4811,43.9302 4.3691,4.3691 0 0 0 49.1051,43.7349 0.75,0.75 0 0 1 48.1305,42.6 2.2712,2.2712 0 0 1 50.0749,42.3 l 0.1835,-1.1016 a 0.75024303,0.75024303 0 0 1 1.48,0.2471 l -0.3144,1.8862 a 0.7513,0.7513 0 0 1 -0.74,0.6265 z m -1.6133,-0.2153 z m 0.12,-0.0816 0,0.001 z"
     id="path76751" />
  <path
     id="path76754"
     style="fill:#ffffff"
     d="m 42.755501,42 12,5" />
  <path
     d="m 54.7555,47.75 a 0.7485,0.7485 0 0 1 -0.2881,-0.0576 l -12,-5 a 0.75,0.75 0 1 1 0.5762,-1.3848 l 12,5 A 0.75,0.75 0 0 1 54.7555,47.75 Z"
     id="path76757" />
  <path
     style="color:#000000;fill:#000000;stroke-linecap:round;stroke-linejoin:round"
     d="m 5,16 a 1.0001,1.0001 0 0 0 -1,1 v 38 a 1.0001,1.0001 0 0 0 1,1 h 62 a 1.0001,1.0001 0 0 0 1,-1 V 17 a 1.0001,1.0001 0 0 0 -1,-1 z m 1,2 H 66 V 54 H 6 Z"
     id="path76730" />
</svg>
