<?xml version="1.0" encoding="UTF-8" standalone="no"?>
<svg
   id="emoji"
   viewBox="0 0 72 72"
   version="1.1"
   sodipodi:docname="Angola.svg"
   inkscape:version="1.2 (dc2aeda, 2022-05-15)"
   xmlns:inkscape="http://www.inkscape.org/namespaces/inkscape"
   xmlns:sodipodi="http://sodipodi.sourceforge.net/DTD/sodipodi-0.dtd"
   xmlns="http://www.w3.org/2000/svg"
   xmlns:svg="http://www.w3.org/2000/svg">
  <defs
     id="defs73434" />
  <sodipodi:namedview
     id="namedview73432"
     pagecolor="#ffffff"
     bordercolor="#000000"
     borderopacity="0.25"
     inkscape:showpageshadow="2"
     inkscape:pageopacity="0.0"
     inkscape:pagecheckerboard="0"
     inkscape:deskcolor="#d1d1d1"
     showgrid="false"
     inkscape:zoom="3.2777778"
     inkscape:cx="-62.084745"
     inkscape:cy="36"
     inkscape:window-width="1309"
     inkscape:window-height="456"
     inkscape:window-x="0"
     inkscape:window-y="25"
     inkscape:window-maximized="0"
     inkscape:current-layer="emoji" />
  <path
     id="path77345"
     d="M 5,17 H 67 V 55 H 5 Z" />
  <path
     id="path77348"
     style="fill:#d22f27"
     d="M 5,17 H 67 V 36 H 5 Z" />
  <path
     style="color:#000000;fill:#f1b31c;stroke-linecap:round;stroke-linejoin:round;-inkscape-stroke:none"
     d="m 34.291,31 h 5.41 l -4.376,3.179 1.671,-5.144 1.672,5.144 z"
     id="path77330" />
  <path
     style="color:#000000;fill:#f1b31c;stroke-linecap:round;stroke-linejoin:round;-inkscape-stroke:none"
     d="m 36.996094,28.535156 a 0.50005,0.50005 0 0 0 -0.476563,0.345703 L 35.994141,30.5 h -1.703125 a 0.50005,0.50005 0 0 0 -0.292969,0.904297 l 1.376953,1 -0.525391,1.621094 a 0.50005,0.50005 0 0 0 0.769532,0.558593 l 1.376953,-1.001953 1.378906,1.001953 a 0.50005,0.50005 0 0 0 0.767578,-0.558593 L 38.617187,32.40625 39.994141,31.404297 A 0.50005,0.50005 0 0 0 39.701172,30.5 H 37.996094 L 37.470703,28.880859 A 0.50005,0.50005 0 0 0 36.996094,28.535156 Z M 36.720703,31.5 h 0.550781 l 0.169922,0.523437 -0.445312,0.324219 -0.445313,-0.324219 z"
     id="path77327" />
  <path
     style="color:#000000;fill:#f1b31c;stroke-linecap:round;stroke-linejoin:round;-inkscape-stroke:none"
     d="m 38.492187,24.689453 a 1,1 0 0 0 -1.164062,0.802734 1,1 0 0 0 0.802734,1.164063 c 6.328511,1.163843 9.420095,8.300893 5.939453,13.712891 -0.03193,0.04949 -0.06287,0.0976 -0.0957,0.146484 a 1,1 0 0 0 0.271485,1.388672 1,1 0 0 0 1.388672,-0.273438 c 0.0397,-0.05911 0.07858,-0.117893 0.117187,-0.177734 a 1.0001,1.0001 0 0 0 0,-0.002 C 49.96441,34.901286 46.151287,26.097998 38.492187,24.689453 Z"
     id="path77333" />
  <path
     style="color:#000000;fill:#f1b31c;stroke-linecap:round;stroke-linejoin:round"
     d="m 31.289062,42.828125 a 1,1 0 0 0 -1.394531,0.234375 1,1 0 0 0 0.234375,1.394531 c 2.794893,1.993788 6.362027,2.567359 9.640625,1.548828 a 1.0001,1.0001 0 0 0 0.002,-0.002 c 0.341165,-0.106146 0.674782,-0.227033 1.001953,-0.365234 a 1,1 0 0 0 0.53125,-1.310547 1,1 0 0 0 -1.308593,-0.53125 c -0.266561,0.112599 -0.540945,0.211908 -0.820313,0.298828 -2.682848,0.832803 -5.599777,0.363854 -7.886719,-1.267578 z"
     id="path77336" />
  <path
     style="color:#000000;fill:#f1b31c;stroke-linecap:round;stroke-linejoin:round"
     d="m 30.230469,33.671875 a 1,1 0 0 0 -0.640625,0.417969 1,1 0 0 0 0.259765,1.390625 l 16.585938,11.345703 a 1,1 0 0 0 1.390625,-0.261719 1,1 0 0 0 -0.261719,-1.390625 L 30.980469,33.830078 a 1,1 0 0 0 -0.75,-0.158203 z"
     id="path77339" />
  <path
     style="color:#000000;fill:#000000;stroke-linecap:round;stroke-linejoin:round"
     d="m 5,16 a 1.0001,1.0001 0 0 0 -1,1 v 38 a 1.0001,1.0001 0 0 0 1,1 h 62 a 1.0001,1.0001 0 0 0 1,-1 V 17 a 1.0001,1.0001 0 0 0 -1,-1 z m 1,2 H 66 V 54 H 6 Z"
     id="path77342" />
</svg>
