<?xml version="1.0" encoding="UTF-8" standalone="no"?>
<svg
   id="emoji"
   viewBox="0 0 72 72"
   version="1.1"
   sodipodi:docname="Anguilla.svg"
   inkscape:version="1.2 (dc2aeda, 2022-05-15)"
   xmlns:inkscape="http://www.inkscape.org/namespaces/inkscape"
   xmlns:sodipodi="http://sodipodi.sourceforge.net/DTD/sodipodi-0.dtd"
   xmlns="http://www.w3.org/2000/svg"
   xmlns:svg="http://www.w3.org/2000/svg">
  <defs
     id="defs72905" />
  <sodipodi:namedview
     id="namedview72903"
     pagecolor="#ffffff"
     bordercolor="#000000"
     borderopacity="0.25"
     inkscape:showpageshadow="2"
     inkscape:pageopacity="0.0"
     inkscape:pagecheckerboard="0"
     inkscape:deskcolor="#d1d1d1"
     showgrid="false"
     inkscape:zoom="3.2777778"
     inkscape:cx="-13.271186"
     inkscape:cy="36"
     inkscape:window-width="1309"
     inkscape:window-height="456"
     inkscape:window-x="0"
     inkscape:window-y="25"
     inkscape:window-maximized="0"
     inkscape:current-layer="emoji" />
  <path
     id="rect72862"
     style="fill:#1e50a0"
     d="M 5,17 H 67 V 55 H 5 Z" />
  <path
     fill="#ffffff"
     d="m 59,29 v 5 c 0,9 -2.6667,13 -8,15 -5.3333,-2 -8,-6 -8,-15 v -5 z"
     id="path72864" />
  <path
     id="polygon72866"
     style="fill:#ffffff"
     d="M 36,36 V 33.668 L 9.887,18 H 6 v 2.332 L 32.113,36 Z" />
  <path
     id="polygon72868"
     style="fill:#ffffff"
     d="M 6,36 H 9.887 L 36,20.332 V 18 H 32.113 L 6,33.668 Z" />
  <path
     id="rect72870"
     style="fill:#ffffff"
     d="m 6,24 h 30 v 6 H 6 Z" />
  <path
     id="rect72872"
     style="fill:#ffffff"
     d="m 18,18 h 6 v 18 h -6 z" />
  <path
     id="rect72874"
     style="fill:#d22f27"
     d="m 20,18 h 2 v 18 h -2 z" />
  <path
     id="rect72876"
     style="fill:#d22f27"
     d="m 6,26 h 30 v 2 H 6 Z" />
  <path
     id="polygon72878"
     style="fill:#d22f27"
     d="M 36,35.999 V 33.668 L 29.887,30 H 26 l 10,6 z" />
  <path
     id="polygon72880"
     style="fill:#d22f27"
     d="M 26.001,24 36,18.001 V 18 H 32.113 L 24,22.868 V 24 Z" />
  <path
     id="polygon72882"
     style="fill:#d22f27"
     d="m 6,18.001 v 2.331 L 12.113,24 h 3.888 l -10,-6 z" />
  <path
     id="polygon72884"
     style="fill:#d22f27"
     d="M 16,30 6,35.999 V 36 H 9.887 L 18,31.132 V 30 Z" />
  <path
     fill="none"
     stroke="#f1b31c"
     stroke-linecap="round"
     stroke-linejoin="round"
     stroke-width="2"
     d="m 54.5,32.5 c -2.204,-0.506 -3.5006,0.187 -4,2"
     id="path72888" />
  <path
     fill="none"
     stroke="#f1b31c"
     stroke-linecap="round"
     stroke-linejoin="round"
     stroke-width="2"
     d="m 46.5359,35.9019 c 0.6638,2.1617 1.9122,2.9381 3.732,2.4641"
     id="path72890" />
  <path
     fill="none"
     stroke="#f1b31c"
     stroke-linecap="round"
     stroke-linejoin="round"
     stroke-width="2"
     d="m 53.4641,41.0981 c 1.54,-1.6557 1.5883,-3.1251 0.268,-4.4641"
     id="path72892" />
  <path
     fill="#92d3f5"
     d="M 44.4545,43 A 10.67,10.67 0 0 0 51,49 10.67,10.67 0 0 0 57.5455,43 Z"
     id="path72894" />
  <path
     fill="none"
     stroke="#fcea2b"
     stroke-linecap="round"
     stroke-linejoin="round"
     stroke-width="2"
     d="m 59,29 v 5 c 0,9 -2.6667,13 -8,15 -5.3333,-2 -8,-6 -8,-15 v -5 z"
     id="path72896" />
  <path
     id="rect72899"
     style="fill:none;stroke:#000000;stroke-width:2;stroke-linecap:round;stroke-linejoin:round"
     d="M 5,17 H 67 V 55 H 5 Z" />
</svg>
