<?xml version="1.0" encoding="UTF-8" standalone="no"?>
<svg
   id="emoji"
   viewBox="0 0 72 72"
   version="1.1"
   sodipodi:docname="Antarctica.svg"
   inkscape:version="1.2 (dc2aeda, 2022-05-15)"
   xmlns:inkscape="http://www.inkscape.org/namespaces/inkscape"
   xmlns:sodipodi="http://sodipodi.sourceforge.net/DTD/sodipodi-0.dtd"
   xmlns="http://www.w3.org/2000/svg"
   xmlns:svg="http://www.w3.org/2000/svg">
  <defs
     id="defs73586" />
  <sodipodi:namedview
     id="namedview73584"
     pagecolor="#ffffff"
     bordercolor="#000000"
     borderopacity="0.25"
     inkscape:showpageshadow="2"
     inkscape:pageopacity="0.0"
     inkscape:pagecheckerboard="0"
     inkscape:deskcolor="#d1d1d1"
     showgrid="false"
     inkscape:zoom="3.2777778"
     inkscape:cx="-62.084745"
     inkscape:cy="36"
     inkscape:window-width="1309"
     inkscape:window-height="456"
     inkscape:window-x="0"
     inkscape:window-y="25"
     inkscape:window-maximized="0"
     inkscape:current-layer="emoji" />
  <path
     id="path77901"
     style="fill:#61b2e4"
     d="m 5,17.08 h 62 v 38 H 5 Z" />
  <path
     style="color:#000000;fill:#ffffff;stroke-width:2;stroke-linecap:round;stroke-linejoin:round;-inkscape-stroke:none"
     d="m 23.59,33.2 c 0.1669,-0.868 -0.04314,-1.763 -0.5644,-1.353 -1.067,-0.4851 -2.39,-2.864 -2.527,-3.269 4.986,3.782 9.793,4.234 10.72,-1.684 0.9256,-5.918 4.905,-4.075 7.306,-3.63 2.983,0.4838 6.239,1.854 8.872,3.304 1.459,0.7628 1.705,3.005 1.34,4.707 -0.7856,1.686 0.6629,2.657 1.791,3.562 1.517,1.584 0.955,3.955 0.4262,5.831 -0.4979,1.562 -2.163,3.021 -1.797,4.634 0.1987,0.8754 -0.9009,1.524 -1.493,2.192 -2.176,2.243 -5.569,2.092 -8.394,1.502 -1.493,0.02412 0.5204,-0.8074 0.1759,-1.801 0.6309,-1.816 -1.043,-2.689 -2.849,-2.888 -2.538,-0.3144 -3.007,-0.02543 -5.544,-0.5997 -1.324,0.8931 -5.073,-0.8008 -5.456,-2.743 -0.3229,-1.639 -1.799,-2.888 -2.049,-4.516 1.44,0.2821 -0.2505,-1.575 1.289,-2.164 -0.07913,-0.7664 -0.7052,-1.763 -1.246,-1.084 z"
     id="path77895" />
  <path
     style="color:#000000;fill:#ffffff;stroke-linecap:round;stroke-linejoin:round;-inkscape-stroke:none"
     d="m 34.162109,21.705078 c -0.893074,0.141415 -1.823456,0.58392 -2.519531,1.423828 -0.696074,0.839909 -1.162581,2.01592 -1.412109,3.611328 -0.211124,1.34566 -0.629278,2.232129 -1.119141,2.775391 -0.490159,0.543591 -1.053248,0.80124 -1.810547,0.861328 -1.514598,0.120177 -3.812268,-0.786625 -6.197265,-2.595703 a 1.0001,1.0001 0 0 0 -1.552735,1.117187 c 0.09558,0.282545 0.202713,0.466088 0.376953,0.779297 0.174241,0.31321 0.399664,0.68622 0.660157,1.06836 0.520986,0.764279 1.071043,1.578723 2.023437,2.011718 a 1.0001,1.0001 0 0 0 0.002,0 c 0,0.108274 0.01656,0.137325 -0.0059,0.253907 a 1.0001,1.0001 0 0 0 0.58789,1.107422 h 0.002 a 1.0001,1.0001 0 0 0 0.49414,-0.123047 c 0.01523,0.03067 0.02264,0.06496 0.04102,0.107422 -0.153545,0.187324 -0.431633,0.301715 -0.496094,0.503906 -0.13965,0.438032 -0.09302,0.763233 -0.06641,1.027344 a 1.0001,1.0001 0 0 0 -0.611328,0.964843 c 0.163993,1.067925 0.68927,1.899624 1.132812,2.625 0.443543,0.725377 0.808926,1.350366 0.923828,1.933594 0.30065,1.524599 1.597135,2.504041 2.921875,3.142578 0.66237,0.319269 1.357537,0.540959 2.042969,0.621094 0.422533,0.0494 0.833394,-0.134287 1.251953,-0.238281 h 0.0039 c 1.313724,0.297089 2.158189,0.37965 2.9375,0.419922 0.780327,0.04032 1.476727,0.04363 2.701172,0.195312 a 1.0001,1.0001 0 0 0 0.01172,0.002 c 0.778193,0.08575 1.487351,0.346153 1.808594,0.613281 0.321243,0.267129 0.416207,0.351027 0.207031,0.953125 a 1.0001,1.0001 0 0 0 -0.002,0.65625 c -0.02678,-0.07724 0.01407,-0.17458 -0.02734,-0.09766 -0.04141,0.07693 -0.163162,0.23019 -0.314453,0.41211 -0.07565,0.09096 -0.159262,0.184752 -0.255859,0.345703 -0.0966,0.16095 -0.294721,0.462418 -0.146485,0.964843 0.148236,0.502426 0.615167,0.724893 0.861328,0.78711 0.246162,0.06222 0.436765,0.06428 0.667969,0.06055 l -0.220703,-0.02148 c 2.948427,0.615778 6.763045,0.846825 9.316406,-1.785156 a 1.0001,1.0001 0 0 0 0.03125,-0.03125 c 0.198791,-0.224274 0.624534,-0.560051 1.033203,-1.007812 0.40867,-0.447762 0.886791,-1.192313 0.6875,-2.070313 -0.09619,-0.42391 0.07247,-0.923679 0.46875,-1.621094 0.396278,-0.697415 0.985137,-1.48384 1.304688,-2.486328 a 1.0001,1.0001 0 0 0 0.0098,-0.0332 c 0.269148,-0.954845 0.572076,-2.088224 0.591796,-3.279297 0.01972,-1.191072 -0.284254,-2.499069 -1.257812,-3.515625 a 1.0001,1.0001 0 0 0 -0.0957,-0.08789 c -0.590839,-0.473991 -1.160757,-0.918217 -1.425781,-1.289063 -0.265024,-0.370845 -0.34832,-0.507207 -0.08594,-1.070312 a 1.0001,1.0001 0 0 0 0.07227,-0.212891 c 0.211036,-0.984066 0.249372,-2.086863 0.0098,-3.136719 -0.23941,-1.048999 -0.799409,-2.106598 -1.863281,-2.664062 -2.702074,-1.486393 -6.017994,-2.894102 -9.175781,-3.40625 -1.055855,-0.199325 -2.746782,-0.853592 -4.523438,-0.572266 z m 0.3125,1.974609 c 1.035199,-0.163919 2.520798,0.318821 3.867188,0.56836 a 1.0001,1.0001 0 0 0 0.02344,0.0039 c 2.801982,0.454441 5.987797,1.78104 8.548828,3.191406 a 1.0001,1.0001 0 0 0 0.01953,0.01172 c 0.393434,0.205697 0.684903,0.648495 0.841797,1.335938 0.156893,0.687442 0.138338,1.555505 -0.01563,2.273437 l 0.07031,-0.210937 c -0.523217,1.122892 -0.273366,2.313768 0.271484,3.076171 0.544851,0.762404 1.263521,1.256492 1.800782,1.6875 l -0.09766,-0.08789 c 0.543441,0.567442 0.717355,1.23823 0.703125,2.097656 -0.01413,0.85335 -0.254149,1.834407 -0.511718,2.75 -0.180769,0.55822 -0.668084,1.274383 -1.134766,2.095703 -0.469246,0.825834 -0.949499,1.861693 -0.679687,3.050781 0,-0.0026 0.02659,0.01496 -0.212891,0.277344 -0.23948,0.262388 -0.659426,0.585571 -1.052734,1.029297 l 0.0293,-0.0332 c -1.624046,1.674051 -4.205293,1.68806 -6.679687,1.277344 0.134411,-0.348653 0.28453,-0.746918 0.125,-1.207032 v 0.65625 C 40.812348,46.309538 40.3837,45.048121 39.574219,44.375 38.767838,43.704457 37.74264,43.428519 36.71875,43.314453 c -0.0018,0 -0.0021,0 -0.0039,0 -1.310377,-0.162076 -2.11791,-0.171677 -2.839844,-0.208984 -0.722922,-0.03736 -1.381231,-0.09681 -2.601563,-0.373047 a 1.0001,1.0001 0 0 0 -0.779296,0.146484 c -0.02813,0.01897 -0.279793,0.103622 -0.681641,0.05664 -0.401848,-0.04698 -0.917996,-0.202157 -1.40625,-0.4375 -0.976508,-0.470686 -1.745775,-1.308964 -1.828125,-1.726563 -0.207998,-1.05577 -0.741956,-1.875924 -1.179688,-2.591797 -0.292378,-0.47816 -0.418109,-0.858029 -0.576171,-1.257812 0.06417,-0.07558 0.182855,-0.101777 0.220703,-0.181641 0.286226,-0.60397 0.130995,-0.910395 0.107422,-1.146484 -0.02357,-0.236089 -0.0096,-0.379333 -0.0098,-0.378906 0,0 -0.111294,0.06666 0.05273,0.0039 a 1.0001,1.0001 0 0 0 0.638672,-1.037109 c -0.06269,-0.607154 -0.258456,-1.158361 -0.701172,-1.650391 -0.126003,-0.140039 -0.393016,-0.206155 -0.601562,-0.314453 -0.01797,-0.130393 0.02596,-0.262155 -0.01367,-0.394531 1.002067,0.329013 2.000077,0.623673 2.943359,0.548828 1.183574,-0.09391 2.309036,-0.597718 3.136719,-1.515625 0.827683,-0.917908 1.358829,-2.194676 1.611328,-3.806641 0.213271,-1.363589 0.591145,-2.177519 0.976563,-2.642578 0.385418,-0.465059 0.773416,-0.644603 1.291015,-0.726563 z M 24.373047,33.824219 c 0.0012,-0.0016 -0.143952,0.03638 -0.234375,0.07813 l 0.01367,-0.02344 a 1.0001,1.0001 0 0 0 0.220703,-0.05469 z m -0.482422,0.121093 c -0.0035,0.0034 -0.0063,0.0063 -0.0098,0.0098 -0.0072,-0.0016 -0.005,-0.0022 -0.01172,-0.0039 a 1.0001,1.0001 0 0 0 0.02148,-0.0059 z"
     id="path77892" />
  <path
     style="color:#000000;fill:#000000;stroke-linecap:round;stroke-linejoin:round"
     d="m 5,16 a 1.0001,1.0001 0 0 0 -1,1 v 38 a 1.0001,1.0001 0 0 0 1,1 h 62 a 1.0001,1.0001 0 0 0 1,-1 V 17 a 1.0001,1.0001 0 0 0 -1,-1 z m 1,2 H 66 V 54 H 6 Z"
     id="path77898" />
</svg>
