<?xml version="1.0" encoding="UTF-8" standalone="no"?>
<svg
   id="emoji"
   viewBox="0 0 72 72"
   version="1.1"
   sodipodi:docname="Antigua and Barbuda.svg"
   inkscape:version="1.2 (dc2aeda, 2022-05-15)"
   xmlns:inkscape="http://www.inkscape.org/namespaces/inkscape"
   xmlns:sodipodi="http://sodipodi.sourceforge.net/DTD/sodipodi-0.dtd"
   xmlns="http://www.w3.org/2000/svg"
   xmlns:svg="http://www.w3.org/2000/svg">
  <defs
     id="defs72716" />
  <sodipodi:namedview
     id="namedview72714"
     pagecolor="#ffffff"
     bordercolor="#000000"
     borderopacity="0.25"
     inkscape:showpageshadow="2"
     inkscape:pageopacity="0.0"
     inkscape:pagecheckerboard="0"
     inkscape:deskcolor="#d1d1d1"
     showgrid="false"
     inkscape:zoom="3.2777778"
     inkscape:cx="-62.084745"
     inkscape:cy="36"
     inkscape:window-width="1309"
     inkscape:window-height="456"
     inkscape:window-x="0"
     inkscape:window-y="25"
     inkscape:window-maximized="0"
     inkscape:current-layer="emoji" />
  <path
     id="path78085"
     style="fill:#ffffff"
     d="M 5,17 H 67 V 55 H 5 Z" />
  <path
     id="path78088"
     d="M 5,17 H 67 V 30 H 5 Z" />
  <path
     style="color:#000000;fill:#f1b31c;stroke-width:2;stroke-linecap:round;stroke-linejoin:round;-inkscape-stroke:none"
     d="m 36.39,28.038 3.437,-7.277 -2.716,7.576 5.96,-5.408 -5.408,5.96 7.576,-2.716 L 37.962,29.61 46,30 l -8.038,0.39 7.277,3.437 -7.576,-2.716 5.408,5.96 -5.96,-5.408 2.716,7.576 L 36.39,31.962 36,40 l -0.39,-8.038 -3.437,7.277 2.716,-7.576 -5.96,5.408 5.408,-5.96 -7.576,2.716 L 34.038,30.39 26,30 l 8.038,-0.39 -7.277,-3.437 7.576,2.716 -5.408,-5.96 5.96,5.408 -2.716,-7.576 3.437,7.277 L 36,20 Z"
     id="path78079" />
  <path
     style="color:#000000;fill:#f1b31c;stroke-linecap:round;stroke-linejoin:round;-inkscape-stroke:none"
     d="m 36,19.001953 a 1.0001,1.0001 0 0 0 -0.998047,0.949219 l -0.197266,4.041015 -1.726562,-3.658203 a 1.0001,1.0001 0 0 0 -1.845703,0.763672 L 32.597656,24.90625 29.601562,22.1875 A 1.0001,1.0001 0 0 0 28.1875,23.601562 l 2.71875,2.996094 -3.808594,-1.365234 a 1.0001,1.0001 0 0 0 -0.763672,1.845703 l 3.658203,1.726562 -4.041015,0.197266 a 1.0001,1.0001 0 0 0 0,1.996094 l 4.041015,0.197265 -3.658203,1.726563 a 1.0001,1.0001 0 0 0 0.763672,1.845703 l 3.808594,-1.365234 -2.71875,2.996093 a 1.0001,1.0001 0 0 0 1.414062,1.414063 l 2.996094,-2.71875 -1.365234,3.808594 a 1.0001,1.0001 0 0 0 1.845703,0.763672 l 1.726562,-3.658204 0.197266,4.041016 a 1.0001,1.0001 0 0 0 1.996094,0 l 0.197265,-4.041016 1.726563,3.658204 a 1.0001,1.0001 0 0 0 1.845703,-0.763672 L 39.402344,35.09375 42.398437,37.8125 A 1.0001,1.0001 0 0 0 43.8125,36.398437 l -2.71875,-2.996093 3.808594,1.365234 a 1.0001,1.0001 0 0 0 0.763672,-1.845703 l -3.658204,-1.726563 4.041016,-0.197265 a 1.0001,1.0001 0 0 0 0,-1.996094 l -4.041016,-0.197266 3.658204,-1.726562 A 1.0001,1.0001 0 0 0 44.902344,25.232422 L 41.09375,26.597656 43.8125,23.601562 A 1.0001,1.0001 0 0 0 42.398437,22.1875 l -2.996093,2.71875 1.365234,-3.808594 a 1.0001,1.0001 0 0 0 -1.845703,-0.763672 l -1.726563,3.658203 -0.197265,-4.041015 A 1.0001,1.0001 0 0 0 36,19.001953 Z m 0,9.789063 a 1.0001,1.0001 0 0 0 0.460937,0.09375 1.0001,1.0001 0 0 0 0.392579,0.261718 1.0001,1.0001 0 0 0 0.261718,0.392578 A 1.0001,1.0001 0 0 0 37.208984,30 1.0001,1.0001 0 0 0 37.115234,30.460937 1.0001,1.0001 0 0 0 36.853516,30.853516 1.0001,1.0001 0 0 0 36.460937,31.115234 1.0001,1.0001 0 0 0 36,31.208984 1.0001,1.0001 0 0 0 35.628906,31.070312 1.0001,1.0001 0 0 0 35.208984,30.791016 1.0001,1.0001 0 0 0 34.966797,30.427734 1.0001,1.0001 0 0 0 34.882812,30 1.0001,1.0001 0 0 0 34.966797,29.572266 1.0001,1.0001 0 0 0 35.208984,29.208984 1.0001,1.0001 0 0 0 35.628906,28.929687 1.0001,1.0001 0 0 0 36,28.791016 Z"
     id="path78076" />
  <path
     id="path78091"
     style="fill:#1e50a0"
     d="M 5,30 H 67 V 42 H 5 Z" />
  <path
     id="path78094"
     style="fill:#d22f27"
     d="M 36,55 5,17 v 38 z" />
  <path
     id="path78097"
     style="fill:#d22f27"
     d="M 67,55 V 17 L 36,55 Z" />
  <path
     style="color:#000000;fill:#000000;stroke-linecap:round;stroke-linejoin:round"
     d="m 5,16 a 1.0001,1.0001 0 0 0 -1,1 v 38 a 1.0001,1.0001 0 0 0 1,1 h 62 a 1.0001,1.0001 0 0 0 1,-1 V 17 a 1.0001,1.0001 0 0 0 -1,-1 z m 1,2 H 66 V 54 H 6 Z"
     id="path78082" />
</svg>
