<?xml version="1.0" encoding="UTF-8" standalone="no"?>
<svg
   id="emoji"
   viewBox="0 0 72 72"
   version="1.1"
   sodipodi:docname="Argentina.svg"
   inkscape:version="1.2 (dc2aeda, 2022-05-15)"
   xmlns:inkscape="http://www.inkscape.org/namespaces/inkscape"
   xmlns:sodipodi="http://sodipodi.sourceforge.net/DTD/sodipodi-0.dtd"
   xmlns="http://www.w3.org/2000/svg"
   xmlns:svg="http://www.w3.org/2000/svg">
  <defs
     id="defs73733" />
  <sodipodi:namedview
     id="namedview73731"
     pagecolor="#ffffff"
     bordercolor="#000000"
     borderopacity="0.25"
     inkscape:showpageshadow="2"
     inkscape:pageopacity="0.0"
     inkscape:pagecheckerboard="0"
     inkscape:deskcolor="#d1d1d1"
     showgrid="false"
     inkscape:zoom="3.2777778"
     inkscape:cx="-13.271186"
     inkscape:cy="36"
     inkscape:window-width="1309"
     inkscape:window-height="456"
     inkscape:window-x="0"
     inkscape:window-y="25"
     inkscape:window-maximized="0"
     inkscape:current-layer="emoji" />
  <path
     id="rect73716"
     style="fill:#1e50a0"
     d="M 5,17 H 67 V 55 H 5 Z" />
  <path
     id="rect73718"
     style="fill:#ffffff"
     d="M 5,17 H 67 V 55 H 5 Z" />
  <path
     id="rect73720"
     style="fill:#61b2e4"
     d="M 5,42 H 67 V 55 H 5 Z" />
  <path
     id="rect73722"
     style="fill:#61b2e4"
     d="M 5,17 H 67 V 30 H 5 Z" />
  <path
     id="polygon73724"
     style="fill:#f1b31c;stroke:#f1b31c;stroke-linecap:round;stroke-linejoin:round"
     d="M 37.176,34.299 39.236,33.528 37.902,35.35 40,36 37.902,36.65 39.236,38.472 37.176,37.701 37.236,40 36,38.103 34.764,40 34.824,37.701 32.764,38.472 34.098,36.65 32,36 34.098,35.35 32.764,33.528 34.824,34.299 34.764,32 36,33.897 37.236,32 Z" />
  <path
     id="rect73727"
     style="fill:none;stroke:#000000;stroke-width:2;stroke-linecap:round;stroke-linejoin:round"
     d="M 5,17 H 67 V 55 H 5 Z" />
</svg>
