<?xml version="1.0" encoding="UTF-8" standalone="no"?>
<svg
   id="emoji"
   viewBox="0 0 72 72"
   version="1.1"
   sodipodi:docname="Ascension Island.svg"
   inkscape:version="1.2 (dc2aeda, 2022-05-15)"
   xmlns:inkscape="http://www.inkscape.org/namespaces/inkscape"
   xmlns:sodipodi="http://sodipodi.sourceforge.net/DTD/sodipodi-0.dtd"
   xmlns="http://www.w3.org/2000/svg"
   xmlns:svg="http://www.w3.org/2000/svg">
  <defs
     id="defs71939" />
  <sodipodi:namedview
     id="namedview71937"
     pagecolor="#ffffff"
     bordercolor="#000000"
     borderopacity="0.25"
     inkscape:showpageshadow="2"
     inkscape:pageopacity="0.0"
     inkscape:pagecheckerboard="0"
     inkscape:deskcolor="#d1d1d1"
     showgrid="false"
     inkscape:zoom="3.2777778"
     inkscape:cx="-13.271186"
     inkscape:cy="36"
     inkscape:window-width="1309"
     inkscape:window-height="456"
     inkscape:window-x="407"
     inkscape:window-y="104"
     inkscape:window-maximized="0"
     inkscape:current-layer="emoji" />
  <path
     id="rect71880"
     style="fill:#1e50a0"
     d="M 5,17 H 67 V 55 H 5 Z" />
  <path
     id="polygon71882"
     style="fill:#ffffff"
     d="M 36,36 V 33.668 L 9.887,18 H 6 v 2.332 L 32.113,36 Z" />
  <path
     id="polygon71884"
     style="fill:#ffffff"
     d="M 6,36 H 9.887 L 36,20.332 V 18 H 32.113 L 6,33.668 Z" />
  <path
     id="rect71886"
     style="fill:#ffffff"
     d="m 6,24 h 30 v 6 H 6 Z" />
  <path
     id="rect71888"
     style="fill:#ffffff"
     d="m 18,18 h 6 v 18 h -6 z" />
  <path
     id="rect71890"
     style="fill:#d22f27"
     d="m 20,18 h 2 v 18 h -2 z" />
  <path
     id="rect71892"
     style="fill:#d22f27"
     d="m 6,26 h 30 v 2 H 6 Z" />
  <path
     id="polygon71894"
     style="fill:#d22f27"
     d="M 36,35.999 V 33.668 L 29.887,30 H 26 l 10,6 z" />
  <path
     id="polygon71896"
     style="fill:#d22f27"
     d="M 26.001,24 36,18.001 V 18 H 32.113 L 24,22.868 V 24 Z" />
  <path
     id="polygon71898"
     style="fill:#d22f27"
     d="m 6,18.001 v 2.331 L 12.113,24 h 3.888 l -10,-6 z" />
  <path
     id="polygon71900"
     style="fill:#d22f27"
     d="M 16,30 6,35.999 V 36 H 9.887 L 18,31.132 V 30 Z" />
  <path
     id="polygon71904"
     style="fill:#5c9e31;stroke:#5c9e31;stroke-linecap:round;stroke-linejoin:round"
     d="m 53.564,40.521 h -2.61 -2.61 l 1.305,-2.261 1.305,-2.26 1.305,2.26 z" />
  <path
     fill="#ffffff"
     d="m 55.0483,41.7818 c 0,5.4893 -1.8016,9.9393 -4.0241,9.9393 -2.2225,0 -4.0242,-4.45 -4.0242,-9.9393 z"
     id="path71906" />
  <path
     d="m 54.0279,42.7818 c -0.2013,4.8789 -1.8477,7.9393 -3.0037,7.9393 -1.156,0 -2.8025,-3.06 -3.0038,-7.9393 h 6.0075 m 1.02,-1 H 47 c 0,5.4893 1.8017,9.9393 4.0242,9.9393 2.2225,0 4.0241,-4.45 4.0241,-9.9393 z"
     id="path71908" />
  <path
     id="ellipse71912"
     transform="rotate(-31.65)"
     style="fill:#a57939;stroke:#6a462f;stroke-miterlimit:10"
     d="m 18.463211,59.154171 a 1,0.5 0 0 1 -1,0.5 1,0.5 0 0 1 -1,-0.5 1,0.5 0 0 1 1,-0.5 1,0.5 0 0 1 1,0.5 z" />
  <path
     id="ellipse71914"
     transform="rotate(-31.65)"
     style="fill:#a57939;stroke:#6a462f;stroke-miterlimit:10"
     d="m 11.599245,65.518173 a 0.5,1 0 0 1 -0.5,1 0.5,1 0 0 1 -0.5,-1 0.5,1 0 0 1 0.5,-1 0.5,1 0 0 1 0.5,1 z" />
  <path
     fill="#a57939"
     stroke="#6a462f"
     stroke-miterlimit="10"
     d="m 40.757,49.4724 c -1.3634,-0.3235 -1.9723,-2.6772 -1.36,-5.2572 0.6123,-2.58 2.2138,-4.4091 3.5772,-4.0856 a 2.0232,2.0232 0 0 1 1.3007,1.4393 l -1.7092,7.2022 a 2.0226,2.0226 0 0 1 -1.8087,0.7013 z"
     id="path71916" />
  <path
     id="ellipse71918"
     transform="rotate(-58.35)"
     style="fill:#a57939;stroke:#6a462f;stroke-miterlimit:10"
     d="m -5.1318903,69.366234 a 0.5,1 0 0 1 -0.5,1 0.5,1 0 0 1 -0.5,-1 0.5,1 0 0 1 0.5,-1 0.5,1 0 0 1 0.5,1 z" />
  <path
     id="ellipse71920"
     transform="rotate(-58.35)"
     style="fill:#a57939;stroke:#6a462f;stroke-miterlimit:10"
     d="m -10.995851,75.730247 a 1,0.5 0 0 1 -1,0.5 1,0.5 0 0 1 -1,-0.5 1,0.5 0 0 1 1,-0.5 1,0.5 0 0 1 1,0.5 z" />
  <path
     fill="#a57939"
     stroke="#6a462f"
     stroke-miterlimit="10"
     d="m 61.243,49.4724 c 1.3634,-0.3235 1.9723,-2.6772 1.36,-5.2572 -0.6123,-2.58 -2.2138,-4.4091 -3.5772,-4.0856 a 2.0232,2.0232 0 0 0 -1.3007,1.4393 l 1.7092,7.2022 a 2.0226,2.0226 0 0 0 1.8087,0.7013 z"
     id="path71922" />
  <path
     fill="#5c9e31"
     d="M 53.5645,48.0205 A 0.5009,0.5009 0 0 1 53.2168,47.8799 L 50.9541,45.6953 48.6914,47.88 a 0.50002888,0.50002888 0 0 1 -0.6953,-0.7188 l 2.61,-2.52 a 0.5,0.5 0 0 1 0.6954,0 l 2.61,2.52 a 0.5,0.5 0 0 1 -0.3476,0.8594 z"
     id="path71924" />
  <path
     d="m 54.0279,42.7818 c -0.2013,4.8789 -1.8477,7.9393 -3.0037,7.9393 -1.156,0 -2.8025,-3.06 -3.0038,-7.9393 h 6.0075 m 1.02,-1 H 47 c 0,5.4893 1.8017,9.9393 4.0242,9.9393 2.2225,0 4.0241,-4.45 4.0241,-9.9393 z"
     id="path71926" />
  <path
     id="ellipse71928"
     transform="rotate(-13.35)"
     style="fill:#a57939;stroke:#6a462f;stroke-miterlimit:10"
     d="m 48.067089,51.031784 a 1,1.5 0 0 1 -1,1.5 1,1.5 0 0 1 -1,-1.5 1,1.5 0 0 1 1,-1.5 1,1.5 0 0 1 1,1.5 z" />
  <path
     id="ellipse71930"
     transform="rotate(-76.65)"
     style="fill:#a57939;stroke:#6a462f;stroke-miterlimit:10"
     d="m -25.980021,52.176678 a 1.5,1 0 0 1 -1.5,1 1.5,1 0 0 1 -1.5,-1 1.5,1 0 0 1 1.5,-1 1.5,1 0 0 1 1.5,1 z" />
  <path
     id="rect71933"
     style="fill:none;stroke:#000000;stroke-width:2;stroke-linecap:round;stroke-linejoin:round"
     d="M 5,17 H 67 V 55 H 5 Z" />
</svg>
