<?xml version="1.0" encoding="UTF-8" standalone="no"?>
<svg
   id="emoji"
   viewBox="0 0 72 72"
   version="1.1"
   sodipodi:docname="Ascension Island.svg"
   inkscape:version="1.2 (dc2aeda, 2022-05-15)"
   xmlns:inkscape="http://www.inkscape.org/namespaces/inkscape"
   xmlns:sodipodi="http://sodipodi.sourceforge.net/DTD/sodipodi-0.dtd"
   xmlns="http://www.w3.org/2000/svg"
   xmlns:svg="http://www.w3.org/2000/svg">
  <defs
     id="defs71939" />
  <sodipodi:namedview
     id="namedview71937"
     pagecolor="#ffffff"
     bordercolor="#000000"
     borderopacity="0.25"
     inkscape:showpageshadow="2"
     inkscape:pageopacity="0.0"
     inkscape:pagecheckerboard="0"
     inkscape:deskcolor="#d1d1d1"
     showgrid="false"
     inkscape:zoom="3.2777778"
     inkscape:cx="-62.084745"
     inkscape:cy="36"
     inkscape:window-width="1309"
     inkscape:window-height="456"
     inkscape:window-x="131"
     inkscape:window-y="76"
     inkscape:window-maximized="0"
     inkscape:current-layer="emoji" />
  <path
     id="path79062"
     style="fill:#1e50a0"
     d="M 5,17 H 67 V 55 H 5 Z" />
  <path
     id="path79065"
     style="fill:#ffffff"
     d="M 36,36 V 33.668 L 9.887,18 H 6 v 2.332 L 32.113,36 Z" />
  <path
     id="path79068"
     style="fill:#ffffff"
     d="M 6,36 H 9.887 L 36,20.332 V 18 H 32.113 L 6,33.668 Z" />
  <path
     id="path79071"
     style="fill:#ffffff"
     d="m 6,24 h 30 v 6 H 6 Z" />
  <path
     id="path79074"
     style="fill:#ffffff"
     d="m 18,18 h 6 v 18 h -6 z" />
  <path
     id="path79077"
     style="fill:#d22f27"
     d="m 20,18 h 2 v 18 h -2 z" />
  <path
     id="path79080"
     style="fill:#d22f27"
     d="m 6,26 h 30 v 2 H 6 Z" />
  <path
     id="path79083"
     style="fill:#d22f27"
     d="M 36,35.999 V 33.668 L 29.887,30 H 26 l 10,6 z" />
  <path
     id="path79086"
     style="fill:#d22f27"
     d="M 26.001,24 36,18.001 V 18 H 32.113 L 24,22.868 V 24 Z" />
  <path
     id="path79089"
     style="fill:#d22f27"
     d="m 6,18.001 v 2.331 L 12.113,24 h 3.888 l -10,-6 z" />
  <path
     id="path79092"
     style="fill:#d22f27"
     d="M 16,30 6,35.999 V 36 H 9.887 L 18,31.132 V 30 Z" />
  <path
     style="color:#000000;fill:#5c9e31;stroke-linecap:round;stroke-linejoin:round;-inkscape-stroke:none"
     d="m 53.564,40.521 h -2.61 -2.61 l 1.305,-2.261 1.305,-2.26 1.305,2.26 z"
     id="path79008" />
  <path
     style="color:#000000;fill:#5c9e31;stroke-linecap:round;stroke-linejoin:round;-inkscape-stroke:none"
     d="m 50.953125,35.5 a 0.50005,0.50005 0 0 0 -0.431641,0.25 l -1.304687,2.259766 -1.306641,2.261718 a 0.50005,0.50005 0 0 0 0.433594,0.75 h 2.609375 2.611328 a 0.50005,0.50005 0 0 0 0.431641,-0.75 L 52.691406,38.009766 51.386719,35.75 A 0.50005,0.50005 0 0 0 50.953125,35.5 Z m 0,1.5 0.873047,1.509766 0.871094,1.511718 h -1.744141 -1.742188 l 0.871094,-1.511718 z"
     id="path79005" />
  <path
     fill="#ffffff"
     d="m 55.0483,41.7818 c 0,5.4893 -1.8016,9.9393 -4.0241,9.9393 -2.2225,0 -4.0242,-4.45 -4.0242,-9.9393 z"
     id="path79095" />
  <path
     d="m 54.0279,42.7818 c -0.2013,4.8789 -1.8477,7.9393 -3.0037,7.9393 -1.156,0 -2.8025,-3.06 -3.0038,-7.9393 h 6.0075 m 1.02,-1 H 47 c 0,5.4893 1.8017,9.9393 4.0242,9.9393 2.2225,0 4.0241,-4.45 4.0241,-9.9393 z"
     id="path79098" />
  <path
     style="color:#000000;fill:#a57939;stroke-miterlimit:10;-inkscape-stroke:none"
     d="m 46.757073,40.667951 a 0.5,1 58.35 0 1 -0.588905,0.950363 0.5,1 58.35 0 1 -1.113633,0.0991 0.5,1 58.35 0 1 0.588904,-0.950364 0.5,1 58.35 0 1 1.113634,-0.09909 z"
     id="path79014" />
  <path
     style="color:#000000;fill:#6a462f;stroke-miterlimit:10;-inkscape-stroke:none"
     d="m 45.380869,40.341685 c -0.292579,0.180348 -0.526725,0.398967 -0.686879,0.657424 -0.160155,0.258455 -0.279539,0.633374 -0.0653,0.980939 0.214242,0.347566 0.602825,0.40937 0.905682,0.382421 0.302857,-0.02695 0.603372,-0.137897 0.895951,-0.318245 0.292578,-0.180348 0.528386,-0.399991 0.68854,-0.658447 0.160155,-0.258456 0.277877,-0.63235 0.06363,-0.979916 -0.214242,-0.347565 -0.601164,-0.410394 -0.904021,-0.383445 -0.302857,0.02695 -0.605034,0.138922 -0.897612,0.319269 z"
     id="path79011" />
  <path
     style="color:#000000;fill:#a57939;stroke-miterlimit:10;-inkscape-stroke:none"
     d="m 44.253366,49.687152 a 1,0.5 58.35 0 1 0.09909,1.113634 1,0.5 58.35 0 1 -0.950364,-0.588905 1,0.5 58.35 0 1 -0.09909,-1.113634 1,0.5 58.35 0 1 0.950364,0.588905 z"
     id="path79020" />
  <path
     style="color:#000000;fill:#6a462f;stroke-miterlimit:10;-inkscape-stroke:none"
     d="m 43.040635,48.671915 c -0.347565,0.214242 -0.40937,0.602825 -0.38242,0.905683 0.02695,0.302857 0.137897,0.603372 0.318244,0.89595 0.180348,0.292579 0.399991,0.528388 0.658448,0.688542 0.258456,0.160155 0.63235,0.277875 0.979915,0.06363 0.347566,-0.214242 0.410396,-0.601163 0.383447,-0.90402 -0.02695,-0.302857 -0.138923,-0.605034 -0.319271,-0.897613 -0.180348,-0.292578 -0.398966,-0.526724 -0.657422,-0.686878 -0.258456,-0.160156 -0.633375,-0.279539 -0.980941,-0.0653 z"
     id="path79017" />
  <path
     style="color:#000000;fill:#a57939;stroke-miterlimit:10;-inkscape-stroke:none"
     d="m 40.757,49.4724 c -1.3634,-0.3235 -1.9723,-2.6772 -1.36,-5.2572 0.6123,-2.58 2.2138,-4.4091 3.5772,-4.0856 a 2.0232,2.0232 0 0 1 1.3007,1.4393 l -1.7092,7.2022 a 2.0226,2.0226 0 0 1 -1.8087,0.7013 z"
     id="path79026" />
  <path
     style="color:#000000;fill:#6a462f;stroke-miterlimit:10;-inkscape-stroke:none"
     d="m 43.089844,39.642578 c -0.930447,-0.220771 -1.845956,0.292948 -2.5625,1.111328 -0.716545,0.81838 -1.294553,1.986241 -1.617188,3.345703 -0.322636,1.359468 -0.331019,2.661767 -0.05859,3.714844 0.272426,1.053077 0.858602,1.923757 1.789063,2.144531 l 0.02539,0.0059 0.02539,0.0039 c 0.851189,0.111506 1.702327,-0.218831 2.25586,-0.875 l 0.07813,-0.0918 1.763671,-7.433594 -0.02734,-0.115234 C 44.561977,40.61832 43.9491,39.94121 43.138683,39.658234 l -0.02344,-0.0098 z m -0.257813,0.986328 c 0.450647,0.17009 0.781326,0.546085 0.914063,1.007813 l -1.623047,6.835937 c -0.326001,0.352885 -0.788575,0.540874 -1.267578,0.490235 -0.42464,-0.11295 -0.818997,-0.562862 -1.035157,-1.398438 -0.219798,-0.849646 -0.227163,-2.013845 0.0625,-3.234375 0.289665,-1.220535 0.818355,-2.257675 1.396485,-2.917969 0.568142,-0.648886 1.122728,-0.87252 1.552734,-0.783203 z"
     id="path79023" />
  <path
     style="color:#000000;fill:#a57939;stroke-miterlimit:10;-inkscape-stroke:none"
     d="m 56.356497,40.767094 a 1,0.5 31.65 0 1 0.588905,0.950364 1,0.5 31.65 0 1 -1.113634,-0.09909 1,0.5 31.65 0 1 -0.588905,-0.950363 1,0.5 31.65 0 1 1.113634,0.09909 z"
     id="path79032" />
  <path
     style="color:#000000;fill:#6a462f;stroke-miterlimit:10;-inkscape-stroke:none"
     d="m 54.817556,40.40692 c -0.214242,0.347566 -0.09652,0.721461 0.06363,0.979916 0.160155,0.258455 0.395962,0.478099 0.688541,0.658447 0.29258,0.180348 0.593094,0.291296 0.895951,0.318245 0.302857,0.02695 0.691441,-0.03486 0.905682,-0.382421 0.214242,-0.347565 0.09486,-0.722484 -0.0653,-0.98094 -0.160155,-0.258455 -0.394299,-0.477074 -0.686879,-0.657423 -0.292579,-0.180347 -0.594755,-0.29232 -0.897612,-0.319269 -0.302858,-0.02695 -0.689778,0.03588 -0.904021,0.383445 z"
     id="path79029" />
  <path
     style="color:#000000;fill:#a57939;stroke-miterlimit:10;-inkscape-stroke:none"
     d="m 58.696996,49.098286 a 0.5,1 31.65 0 1 -0.09909,1.113634 0.5,1 31.65 0 1 -0.950364,0.588905 0.5,1 31.65 0 1 0.0991,-1.113634 0.5,1 31.65 0 1 0.950363,-0.588905 z"
     id="path79038" />
  <path
     style="color:#000000;fill:#6a462f;stroke-miterlimit:10;-inkscape-stroke:none"
     d="m 57.321059,49.42515 c -0.180347,0.292578 -0.291297,0.593092 -0.318245,0.895949 -0.02695,0.302858 0.03486,0.691442 0.382421,0.905684 0.347566,0.214242 0.722485,0.09486 0.98094,-0.0653 0.258455,-0.160155 0.477075,-0.3943 0.657423,-0.686878 0.180348,-0.292579 0.292323,-0.594755 0.31927,-0.897614 0.02695,-0.302857 -0.03588,-0.689777 -0.383446,-0.904019 -0.347565,-0.214242 -0.721459,-0.09652 -0.979915,0.06363 -0.258456,0.160155 -0.4781,0.395963 -0.658448,0.688542 z"
     id="path79035" />
  <path
     style="color:#000000;fill:#a57939;stroke-miterlimit:10;-inkscape-stroke:none"
     d="m 61.243,49.4724 c 1.3634,-0.3235 1.9723,-2.6772 1.36,-5.2572 -0.6123,-2.58 -2.2138,-4.4091 -3.5772,-4.0856 a 2.0232,2.0232 0 0 0 -1.3007,1.4393 l 1.7092,7.2022 a 2.0226,2.0226 0 0 0 1.8087,0.7013 z"
     id="path79044" />
  <path
     style="color:#000000;fill:#6a462f;stroke-miterlimit:10;-inkscape-stroke:none"
     d="m 58.910156,39.642578 -0.02539,0.0059 -0.02344,0.0098 c -0.810417,0.282976 -1.423294,0.960086 -1.623047,1.794922 l -0.02734,0.115234 1.763672,7.433594 0.07813,0.0918 c 0.553533,0.656169 1.404671,0.986506 2.25586,0.875 l 0.02539,-0.0039 0.02539,-0.0059 c 0.930461,-0.220774 1.516637,-1.091454 1.789062,-2.144531 0.272426,-1.053077 0.264043,-2.355376 -0.05859,-3.714844 -0.322635,-1.359462 -0.900643,-2.527323 -1.617188,-3.345703 -0.716544,-0.81838 -1.632053,-1.332099 -2.5625,-1.111328 z m 0.257813,0.986328 c 0.430006,-0.08932 0.984592,0.134317 1.552734,0.783203 0.57813,0.660294 1.10682,1.697434 1.396484,2.917969 0.289664,1.22053 0.282299,2.384729 0.0625,3.234375 -0.216159,0.835576 -0.610516,1.285488 -1.035156,1.398438 -0.479003,0.05064 -0.941577,-0.13735 -1.267578,-0.490235 l -1.623047,-6.835937 c 0.132737,-0.461728 0.463416,-0.837723 0.914063,-1.007813 z"
     id="path79041" />
  <path
     fill="#5c9e31"
     d="M 53.5645,48.0205 A 0.5009,0.5009 0 0 1 53.2168,47.8799 L 50.9541,45.6953 48.6914,47.88 a 0.50002888,0.50002888 0 0 1 -0.6953,-0.7188 l 2.61,-2.52 a 0.5,0.5 0 0 1 0.6954,0 l 2.61,2.52 a 0.5,0.5 0 0 1 -0.3476,0.8594 z"
     id="path79101" />
  <path
     d="m 54.0279,42.7818 c -0.2013,4.8789 -1.8477,7.9393 -3.0037,7.9393 -1.156,0 -2.8025,-3.06 -3.0038,-7.9393 h 6.0075 m 1.02,-1 H 47 c 0,5.4893 1.8017,9.9393 4.0242,9.9393 2.2225,0 4.0241,-4.45 4.0241,-9.9393 z"
     id="path79104" />
  <path
     style="color:#000000;fill:#a57939;stroke-miterlimit:10;-inkscape-stroke:none"
     d="m 58.551391,38.554152 a 1.5,1 76.65 0 1 -0.626629,1.690365 1.5,1 76.65 0 1 -1.319326,-1.228567 1.5,1 76.65 0 1 0.626629,-1.690366 1.5,1 76.65 0 1 1.319326,1.228568 z"
     id="path79050" />
  <path
     style="color:#000000;fill:#6a462f;stroke-miterlimit:10;-inkscape-stroke:none"
     d="m 57.115828,36.838733 c -0.465869,0.110556 -0.785621,0.487572 -0.93982,0.903528 -0.154197,0.415957 -0.174288,0.898117 -0.05785,1.388776 0.116439,0.490659 0.351031,0.91238 0.675684,1.2147 0.324654,0.302319 0.779712,0.495463 1.24558,0.384907 0.465869,-0.110556 0.785622,-0.487571 0.93982,-0.903527 0.154198,-0.415958 0.174288,-0.898117 0.05785,-1.388777 -0.116439,-0.490659 -0.351031,-0.912379 -0.675684,-1.2147 -0.324653,-0.302319 -0.779712,-0.495463 -1.24558,-0.384907 z m 0.230899,0.972978 c 0.07149,-0.01697 0.180363,0.0014 0.33321,0.143743 0.152848,0.142334 0.309334,0.398404 0.384177,0.713785 0.07484,0.315381 0.0501,0.614459 -0.0225,0.810294 -0.0726,0.195834 -0.161601,0.261168 -0.233094,0.278134 -0.07149,0.01697 -0.180362,-0.0014 -0.333209,-0.143744 -0.152849,-0.142334 -0.309335,-0.398404 -0.384178,-0.713785 -0.07484,-0.315381 -0.0501,-0.614458 0.0225,-0.810293 0.0726,-0.195835 0.161601,-0.261168 0.233093,-0.278134 z"
     id="path79047" />
  <path
     style="color:#000000;fill:#a57939;stroke-miterlimit:10;-inkscape-stroke:none"
     d="m 44.767988,37.32552 a 1,1.5 13.35 0 1 0.626629,1.690366 1,1.5 13.35 0 1 -1.319326,1.228567 1,1.5 13.35 0 1 -0.626629,-1.690365 1,1.5 13.35 0 1 1.319326,-1.228568 z"
     id="path79056" />
  <path
     style="color:#000000;fill:#6a462f;stroke-miterlimit:10;-inkscape-stroke:none"
     d="m 42.961197,38.438867 c -0.116439,0.490659 -0.09635,0.972819 0.05785,1.388776 0.154199,0.415957 0.473951,0.792972 0.93982,0.903528 0.465868,0.110556 0.922827,-0.08214 1.24748,-0.384457 0.324653,-0.302319 0.557345,-0.724491 0.673784,-1.21515 0.116439,-0.49066 0.09825,-0.972368 -0.05595,-1.388325 -0.154198,-0.415957 -0.475851,-0.793423 -0.94172,-0.903979 -0.465868,-0.110556 -0.920925,0.08259 -1.24558,0.384907 -0.324653,0.30232 -0.559245,0.72404 -0.675684,1.2147 z m 0.972978,0.230899 c 0.07484,-0.315381 0.231328,-0.571452 0.384178,-0.713784 0.152848,-0.142334 0.261718,-0.16071 0.333209,-0.143744 0.07149,0.01697 0.160497,0.0823 0.233094,0.278134 0.0726,0.195833 0.09734,0.494912 0.0225,0.810293 -0.07484,0.315381 -0.231328,0.571452 -0.384177,0.713785 -0.152848,0.142334 -0.261718,0.160709 -0.33321,0.143743 -0.07149,-0.01697 -0.160496,-0.0823 -0.233093,-0.278133 -0.0726,-0.195835 -0.09734,-0.494913 -0.0225,-0.810294 z"
     id="path79053" />
  <path
     style="color:#000000;fill:#000000;stroke-linecap:round;stroke-linejoin:round;-inkscape-stroke:none"
     d="m 5,16 a 1.0001,1.0001 0 0 0 -1,1 v 38 a 1.0001,1.0001 0 0 0 1,1 h 62 a 1.0001,1.0001 0 0 0 1,-1 V 17 a 1.0001,1.0001 0 0 0 -1,-1 z m 1,2 H 66 V 54 H 6 Z"
     id="path79059" />
</svg>
