<?xml version="1.0" encoding="UTF-8" standalone="no"?>
<svg
   id="emoji"
   viewBox="0 0 72 72"
   version="1.1"
   sodipodi:docname="Australia.svg"
   inkscape:version="1.2 (dc2aeda, 2022-05-15)"
   xmlns:inkscape="http://www.inkscape.org/namespaces/inkscape"
   xmlns:sodipodi="http://sodipodi.sourceforge.net/DTD/sodipodi-0.dtd"
   xmlns="http://www.w3.org/2000/svg"
   xmlns:svg="http://www.w3.org/2000/svg">
  <defs
     id="defs74275" />
  <sodipodi:namedview
     id="namedview74273"
     pagecolor="#ffffff"
     bordercolor="#000000"
     borderopacity="0.25"
     inkscape:showpageshadow="2"
     inkscape:pageopacity="0.0"
     inkscape:pagecheckerboard="0"
     inkscape:deskcolor="#d1d1d1"
     showgrid="false"
     inkscape:zoom="3.2777778"
     inkscape:cx="-62.084745"
     inkscape:cy="36"
     inkscape:window-width="1309"
     inkscape:window-height="456"
     inkscape:window-x="0"
     inkscape:window-y="25"
     inkscape:window-maximized="0"
     inkscape:current-layer="emoji" />
  <path
     id="path79449"
     style="fill:#1e50a0"
     d="M 5,17 H 67 V 55 H 5 Z" />
  <path
     style="color:#000000;fill:#ffffff;stroke-linecap:round;stroke-linejoin:round;-inkscape-stroke:none"
     d="m 56.087,38.945 -2.427,-1.855 3,0 -2.427,1.854 0.927,-3 z"
     id="path79413" />
  <path
     style="color:#000000;fill:#ffffff;stroke-linecap:round;stroke-linejoin:round;-inkscape-stroke:none"
     d="m 55.160156,35.445312 a 0.50005,0.50005 0 0 0 -0.478515,0.351563 L 54.4375,36.589844 h -0.777344 a 0.50005,0.50005 0 0 0 -0.304687,0.896484 l 0.65039,0.498047 -0.25,0.8125 a 0.50005,0.50005 0 0 0 0.78125,0.544922 l 0.623047,-0.476563 0.623047,0.476563 a 0.50005,0.50005 0 0 0 0.78125,-0.544922 l -0.25,-0.8125 0.648438,-0.496094 a 0.50005,0.50005 0 0 0 -0.302735,-0.896484 h -0.77539 l -0.246094,-0.794922 a 0.50005,0.50005 0 0 0 -0.478516,-0.351563 z"
     id="path79410" />
  <path
     style="color:#000000;fill:#ffffff;stroke-linecap:round;stroke-linejoin:round;-inkscape-stroke:none"
     d="M 19.097,46.306 17,45.978 l 1.75,-1.23 -1.057,-1.886 2.028,0.637 0.779,-2.023 0.779,2.023 2.028,-0.637 -1.057,1.886 1.75,1.23 -2.097,0.328 0.155,2.17 -1.558,-1.477 -1.558,1.477 z"
     id="path79419" />
  <path
     style="color:#000000;fill:#ffffff;stroke-linecap:round;stroke-linejoin:round;-inkscape-stroke:none"
     d="m 20.5,40.976562 a 0.50005,0.50005 0 0 0 -0.466797,0.320313 l -0.609375,1.583984 -1.580078,-0.496093 a 0.50005,0.50005 0 0 0 -0.587891,0.722656 l 0.837891,1.490234 -1.380859,0.970703 a 0.50005,0.50005 0 0 0 0.208984,0.904297 l 1.642578,0.257813 -0.121094,1.708984 a 0.50005,0.50005 0 0 0 0.841797,0.398438 L 20.5,47.6875 l 1.214844,1.150391 a 0.50005,0.50005 0 0 0 0.841797,-0.398438 l -0.123047,-1.710937 1.644531,-0.25586 a 0.50005,0.50005 0 0 0 0.208984,-0.904297 L 22.90625,44.597656 23.744141,43.107422 A 0.50005,0.50005 0 0 0 23.15625,42.384766 l -1.580078,0.496093 -0.609375,-1.583984 A 0.50005,0.50005 0 0 0 20.5,40.976562 Z m 0,1.890625 0.3125,0.810547 a 0.50005,0.50005 0 0 0 0.617187,0.298828 l 0.826172,-0.259765 -0.441406,0.787109 a 0.50005,0.50005 0 0 0 0.148438,0.652344 l 0.738281,0.519531 -0.875,0.136719 a 0.50005,0.50005 0 0 0 -0.421875,0.529297 l 0.0625,0.884765 -0.623047,-0.589843 a 0.50005,0.50005 0 0 0 -0.6875,0 l -0.623047,0.589843 0.0625,-0.884765 A 0.50005,0.50005 0 0 0 19.173828,45.8125 l -0.875,-0.136719 0.738281,-0.519531 a 0.50005,0.50005 0 0 0 0.148438,-0.652344 l -0.441406,-0.787109 0.826171,0.259765 A 0.50005,0.50005 0 0 0 20.1875,43.677734 Z"
     id="path79416" />
  <path
     style="color:#000000;fill:#ffffff;stroke-linecap:round;stroke-linejoin:round;-inkscape-stroke:none"
     d="M 43.498,34.926 42,34.691 l 1.25,-0.878 -0.755,-1.347 1.449,0.455 0.556,-1.445 0.556,1.445 1.449,-0.455 -0.755,1.347 1.25,0.878 -1.498,0.235 0.111,1.55 -1.113,-1.055 -1.113,1.055 z"
     id="path79425" />
  <path
     style="color:#000000;fill:#ffffff;stroke-linecap:round;stroke-linejoin:round;-inkscape-stroke:none"
     d="m 44.5,30.976562 a 0.50005,0.50005 0 0 0 -0.466797,0.320313 l -0.386719,1.005859 -1.001953,-0.314453 a 0.50005,0.50005 0 0 0 -0.585937,0.722656 l 0.535156,0.953125 -0.880859,0.617188 a 0.50005,0.50005 0 0 0 0.208984,0.904297 l 1.044922,0.164062 -0.07813,1.089844 a 0.50005,0.50005 0 0 0 0.841797,0.400391 L 44.5,36.109375 l 0.769531,0.730469 a 0.50005,0.50005 0 0 0 0.841797,-0.400391 l -0.07813,-1.089844 1.044922,-0.164062 a 0.50005,0.50005 0 0 0 0.208984,-0.904297 l -0.880859,-0.617188 0.535156,-0.953125 a 0.50005,0.50005 0 0 0 -0.585937,-0.722656 l -1.001953,0.314453 -0.386719,-1.005859 A 0.50005,0.50005 0 0 0 44.5,30.976562 Z m 0,1.890625 0.08984,0.232422 a 0.50005,0.50005 0 0 0 0.615234,0.298828 l 0.248047,-0.07813 -0.138672,0.248047 a 0.50005,0.50005 0 0 0 0.148438,0.654297 l 0.236328,0.166016 -0.275391,0.04297 a 0.50005,0.50005 0 0 0 -0.419922,0.529296 l 0.01953,0.267579 -0.179687,-0.169922 a 0.50005,0.50005 0 0 0 -0.6875,0 l -0.179688,0.169922 0.01953,-0.267579 a 0.50005,0.50005 0 0 0 -0.419922,-0.529296 l -0.275391,-0.04297 0.236328,-0.166016 a 0.50005,0.50005 0 0 0 0.148438,-0.654297 l -0.138672,-0.248047 0.248047,0.07813 a 0.50005,0.50005 0 0 0 0.615234,-0.298828 z"
     id="path79422" />
  <path
     style="color:#000000;fill:#ffffff;stroke-linecap:round;stroke-linejoin:round;-inkscape-stroke:none"
     d="M 58.498,31.926 57,31.691 l 1.25,-0.878 -0.755,-1.347 1.449,0.455 0.556,-1.445 0.556,1.445 1.449,-0.455 -0.755,1.347 1.25,0.878 -1.498,0.235 0.111,1.55 -1.113,-1.055 -1.113,1.055 z"
     id="path79431" />
  <path
     style="color:#000000;fill:#ffffff;stroke-linecap:round;stroke-linejoin:round;-inkscape-stroke:none"
     d="m 59.5,27.976562 a 0.50005,0.50005 0 0 0 -0.466797,0.320313 l -0.386719,1.005859 -1.001953,-0.314453 a 0.50005,0.50005 0 0 0 -0.585937,0.722656 l 0.535156,0.953125 -0.880859,0.617188 a 0.50005,0.50005 0 0 0 0.208984,0.904297 l 1.044922,0.164062 -0.07813,1.089844 a 0.50005,0.50005 0 0 0 0.841797,0.400391 L 59.5,33.109375 l 0.769531,0.730469 a 0.50005,0.50005 0 0 0 0.841797,-0.400391 l -0.07813,-1.089844 1.044922,-0.164062 a 0.50005,0.50005 0 0 0 0.208984,-0.904297 l -0.880859,-0.617188 0.535156,-0.953125 a 0.50005,0.50005 0 0 0 -0.585937,-0.722656 l -1.001953,0.314453 -0.386719,-1.005859 A 0.50005,0.50005 0 0 0 59.5,27.976562 Z m 0,1.890625 0.08984,0.232422 a 0.50005,0.50005 0 0 0 0.615234,0.298828 l 0.248047,-0.07813 -0.138672,0.248047 a 0.50005,0.50005 0 0 0 0.148438,0.654297 l 0.236328,0.166016 -0.275391,0.04297 a 0.50005,0.50005 0 0 0 -0.419922,0.529296 l 0.01953,0.267579 -0.179687,-0.169922 a 0.50005,0.50005 0 0 0 -0.6875,0 l -0.179688,0.169922 0.01953,-0.267579 a 0.50005,0.50005 0 0 0 -0.419922,-0.529296 l -0.275391,-0.04297 0.236328,-0.166016 a 0.50005,0.50005 0 0 0 0.148438,-0.654297 l -0.138672,-0.248047 0.248047,0.07813 a 0.50005,0.50005 0 0 0 0.615234,-0.298828 z"
     id="path79428" />
  <path
     style="color:#000000;fill:#ffffff;stroke-linecap:round;stroke-linejoin:round;-inkscape-stroke:none"
     d="M 50.498,25.926 49,25.691 l 1.25,-0.878 -0.755,-1.347 1.449,0.455 0.556,-1.445 0.556,1.445 1.449,-0.455 -0.755,1.347 1.25,0.878 -1.498,0.235 0.111,1.55 -1.113,-1.055 -1.113,1.055 z"
     id="path79437" />
  <path
     style="color:#000000;fill:#ffffff;stroke-linecap:round;stroke-linejoin:round;-inkscape-stroke:none"
     d="m 51.5,21.976562 a 0.50005,0.50005 0 0 0 -0.466797,0.320313 l -0.386719,1.005859 -1.001953,-0.314453 a 0.50005,0.50005 0 0 0 -0.585937,0.722656 l 0.535156,0.953125 -0.880859,0.617188 a 0.50005,0.50005 0 0 0 0.208984,0.904297 l 1.044922,0.164062 -0.07813,1.089844 a 0.50005,0.50005 0 0 0 0.841797,0.400391 L 51.5,27.109375 l 0.769531,0.730469 a 0.50005,0.50005 0 0 0 0.841797,-0.400391 l -0.07813,-1.089844 1.044922,-0.164062 a 0.50005,0.50005 0 0 0 0.208984,-0.904297 l -0.880859,-0.617188 0.535156,-0.953125 a 0.50005,0.50005 0 0 0 -0.585937,-0.722656 l -1.001953,0.314453 -0.386719,-1.005859 A 0.50005,0.50005 0 0 0 51.5,21.976562 Z m 0,1.890625 0.08984,0.232422 a 0.50005,0.50005 0 0 0 0.615234,0.298828 l 0.248047,-0.07813 -0.138672,0.248047 a 0.50005,0.50005 0 0 0 0.148438,0.654297 l 0.236328,0.166016 -0.275391,0.04297 a 0.50005,0.50005 0 0 0 -0.419922,0.529296 l 0.01953,0.267579 -0.179687,-0.169922 a 0.50005,0.50005 0 0 0 -0.6875,0 l -0.179688,0.169922 0.01953,-0.267579 a 0.50005,0.50005 0 0 0 -0.419922,-0.529296 l -0.275391,-0.04297 0.236328,-0.166016 a 0.50005,0.50005 0 0 0 0.148438,-0.654297 l -0.138672,-0.248047 0.248047,0.07813 a 0.50005,0.50005 0 0 0 0.615234,-0.298828 z"
     id="path79434" />
  <path
     style="color:#000000;fill:#ffffff;stroke-linecap:round;stroke-linejoin:round;-inkscape-stroke:none"
     d="M 50.498,46.926 49,46.691 l 1.25,-0.878 -0.755,-1.347 1.449,0.455 0.556,-1.445 0.556,1.445 1.449,-0.455 -0.755,1.347 1.25,0.878 -1.498,0.235 0.111,1.55 -1.113,-1.055 -1.113,1.055 z"
     id="path79443" />
  <path
     style="color:#000000;fill:#ffffff;stroke-linecap:round;stroke-linejoin:round;-inkscape-stroke:none"
     d="m 51.5,42.976562 a 0.50005,0.50005 0 0 0 -0.466797,0.320313 l -0.386719,1.005859 -1.001953,-0.314453 a 0.50005,0.50005 0 0 0 -0.585937,0.722656 l 0.535156,0.953125 -0.880859,0.617188 a 0.50005,0.50005 0 0 0 0.208984,0.904297 l 1.044922,0.164062 -0.07813,1.089844 a 0.50005,0.50005 0 0 0 0.841797,0.400391 L 51.5,48.109375 l 0.769531,0.730469 a 0.50005,0.50005 0 0 0 0.841797,-0.400391 l -0.07813,-1.089844 1.044922,-0.164062 a 0.50005,0.50005 0 0 0 0.208984,-0.904297 l -0.880859,-0.617188 0.535156,-0.953125 a 0.50005,0.50005 0 0 0 -0.585937,-0.722656 l -1.001953,0.314453 -0.386719,-1.005859 A 0.50005,0.50005 0 0 0 51.5,42.976562 Z m 0,1.890625 0.08984,0.232422 a 0.50005,0.50005 0 0 0 0.615234,0.298828 l 0.248047,-0.07813 -0.138672,0.248047 a 0.50005,0.50005 0 0 0 0.148438,0.654297 l 0.236328,0.166016 -0.275391,0.04297 a 0.50005,0.50005 0 0 0 -0.419922,0.529296 l 0.01953,0.267579 -0.179687,-0.169922 a 0.50005,0.50005 0 0 0 -0.6875,0 l -0.179688,0.169922 0.01953,-0.267579 a 0.50005,0.50005 0 0 0 -0.419922,-0.529296 l -0.275391,-0.04297 0.236328,-0.166016 a 0.50005,0.50005 0 0 0 0.148438,-0.654297 l -0.138672,-0.248047 0.248047,0.07813 a 0.50005,0.50005 0 0 0 0.615234,-0.298828 z"
     id="path79440" />
  <path
     id="path79452"
     style="fill:#ffffff"
     d="M 36,36 V 33.668 L 9.887,18 H 6 v 2.332 L 32.113,36 Z" />
  <path
     id="path79455"
     style="fill:#ffffff"
     d="M 6,36 H 9.887 L 36,20.332 V 18 H 32.113 L 6,33.668 Z" />
  <path
     id="path79458"
     style="fill:#ffffff"
     d="m 6,24 h 30 v 6 H 6 Z" />
  <path
     id="path79461"
     style="fill:#ffffff"
     d="m 18,18 h 6 v 18 h -6 z" />
  <path
     id="path79464"
     style="fill:#d22f27"
     d="m 20,18 h 2 v 18 h -2 z" />
  <path
     id="path79467"
     style="fill:#d22f27"
     d="m 6,26 h 30 v 2 H 6 Z" />
  <path
     id="path79470"
     style="fill:#d22f27"
     d="M 36,35.999 V 33.668 L 29.887,30 H 26 l 10,6 z" />
  <path
     id="path79473"
     style="fill:#d22f27"
     d="M 26.001,24 36,18.001 V 18 H 32.113 L 24,22.868 V 24 Z" />
  <path
     id="path79476"
     style="fill:#d22f27"
     d="m 6,18.001 v 2.331 L 12.113,24 h 3.888 l -10,-6 z" />
  <path
     id="path79479"
     style="fill:#d22f27"
     d="M 16,30 6,35.999 V 36 H 9.887 L 18,31.132 V 30 Z" />
  <path
     style="color:#000000;fill:#000000;stroke-linecap:round;stroke-linejoin:round;-inkscape-stroke:none"
     d="m 5,16 a 1.0001,1.0001 0 0 0 -1,1 v 38 a 1.0001,1.0001 0 0 0 1,1 h 62 a 1.0001,1.0001 0 0 0 1,-1 V 17 a 1.0001,1.0001 0 0 0 -1,-1 z m 1,2 H 66 V 54 H 6 Z"
     id="path79446" />
</svg>
