<?xml version="1.0" encoding="UTF-8" standalone="no"?>
<svg
   id="emoji"
   viewBox="0 0 72 72"
   version="1.1"
   sodipodi:docname="Australia.svg"
   inkscape:version="1.2 (dc2aeda, 2022-05-15)"
   xmlns:inkscape="http://www.inkscape.org/namespaces/inkscape"
   xmlns:sodipodi="http://sodipodi.sourceforge.net/DTD/sodipodi-0.dtd"
   xmlns="http://www.w3.org/2000/svg"
   xmlns:svg="http://www.w3.org/2000/svg">
  <defs
     id="defs74275" />
  <sodipodi:namedview
     id="namedview74273"
     pagecolor="#ffffff"
     bordercolor="#000000"
     borderopacity="0.25"
     inkscape:showpageshadow="2"
     inkscape:pageopacity="0.0"
     inkscape:pagecheckerboard="0"
     inkscape:deskcolor="#d1d1d1"
     showgrid="false"
     inkscape:zoom="3.2777778"
     inkscape:cx="-13.271186"
     inkscape:cy="36"
     inkscape:window-width="1309"
     inkscape:window-height="456"
     inkscape:window-x="0"
     inkscape:window-y="25"
     inkscape:window-maximized="0"
     inkscape:current-layer="emoji" />
  <path
     id="rect74232"
     style="fill:#1e50a0"
     d="M 5,17 H 67 V 55 H 5 Z" />
  <path
     id="polygon74234"
     style="fill:#ffffff;stroke:#ffffff;stroke-linecap:round;stroke-linejoin:round"
     d="m 56.087,38.945 -2.427,-1.855 3,10e-4 -2.427,1.854 0.927,-3 z" />
  <path
     id="polygon74236"
     style="fill:#ffffff;stroke:#ffffff;stroke-linecap:round;stroke-linejoin:round"
     d="M 19.097,46.306 17,45.978 l 1.75,-1.23 -1.057,-1.886 2.028,0.637 0.779,-2.023 0.779,2.023 2.028,-0.637 -1.057,1.886 1.75,1.23 -2.097,0.328 0.155,2.17 -1.558,-1.477 -1.558,1.477 z" />
  <path
     id="polygon74238"
     style="fill:#ffffff;stroke:#ffffff;stroke-linecap:round;stroke-linejoin:round"
     d="M 43.498,34.926 42,34.691 l 1.25,-0.878 -0.755,-1.347 1.449,0.455 0.556,-1.445 0.556,1.445 1.449,-0.455 -0.755,1.347 1.25,0.878 -1.498,0.235 0.111,1.55 -1.113,-1.055 -1.113,1.055 z" />
  <path
     id="polygon74240"
     style="fill:#ffffff;stroke:#ffffff;stroke-linecap:round;stroke-linejoin:round"
     d="M 58.498,31.926 57,31.691 l 1.25,-0.878 -0.755,-1.347 1.449,0.455 0.556,-1.445 0.556,1.445 1.449,-0.455 -0.755,1.347 1.25,0.878 -1.498,0.235 0.111,1.55 -1.113,-1.055 -1.113,1.055 z" />
  <path
     id="polygon74242"
     style="fill:#ffffff;stroke:#ffffff;stroke-linecap:round;stroke-linejoin:round"
     d="M 50.498,25.926 49,25.691 l 1.25,-0.878 -0.755,-1.347 1.449,0.455 0.556,-1.445 0.556,1.445 1.449,-0.455 -0.755,1.347 1.25,0.878 -1.498,0.235 0.111,1.55 -1.113,-1.055 -1.113,1.055 z" />
  <path
     id="polygon74244"
     style="fill:#ffffff;stroke:#ffffff;stroke-linecap:round;stroke-linejoin:round"
     d="M 50.498,46.926 49,46.691 l 1.25,-0.878 -0.755,-1.347 1.449,0.455 0.556,-1.445 0.556,1.445 1.449,-0.455 -0.755,1.347 1.25,0.878 -1.498,0.235 0.111,1.55 -1.113,-1.055 -1.113,1.055 z" />
  <path
     id="polygon74246"
     style="fill:#ffffff"
     d="M 36,36 V 33.668 L 9.887,18 H 6 v 2.332 L 32.113,36 Z" />
  <path
     id="polygon74248"
     style="fill:#ffffff"
     d="M 6,36 H 9.887 L 36,20.332 V 18 H 32.113 L 6,33.668 Z" />
  <path
     id="rect74250"
     style="fill:#ffffff"
     d="m 6,24 h 30 v 6 H 6 Z" />
  <path
     id="rect74252"
     style="fill:#ffffff"
     d="m 18,18 h 6 v 18 h -6 z" />
  <path
     id="rect74254"
     style="fill:#d22f27"
     d="m 20,18 h 2 v 18 h -2 z" />
  <path
     id="rect74256"
     style="fill:#d22f27"
     d="m 6,26 h 30 v 2 H 6 Z" />
  <path
     id="polygon74258"
     style="fill:#d22f27"
     d="M 36,35.999 V 33.668 L 29.887,30 H 26 l 10,6 z" />
  <path
     id="polygon74260"
     style="fill:#d22f27"
     d="M 26.001,24 36,18.001 V 18 H 32.113 L 24,22.868 V 24 Z" />
  <path
     id="polygon74262"
     style="fill:#d22f27"
     d="m 6,18.001 v 2.331 L 12.113,24 h 3.888 l -10,-6 z" />
  <path
     id="polygon74264"
     style="fill:#d22f27"
     d="M 16,30 6,35.999 V 36 H 9.887 L 18,31.132 V 30 Z" />
  <path
     id="rect74269"
     style="fill:none;stroke:#000000;stroke-width:2;stroke-linecap:round;stroke-linejoin:round"
     d="M 5,17 H 67 V 55 H 5 Z" />
</svg>
