<?xml version="1.0" encoding="UTF-8" standalone="no"?>
<svg
   id="emoji"
   viewBox="0 0 72 72"
   version="1.1"
   sodipodi:docname="Azerbaijan.svg"
   inkscape:version="1.2 (dc2aeda, 2022-05-15)"
   xmlns:inkscape="http://www.inkscape.org/namespaces/inkscape"
   xmlns:sodipodi="http://sodipodi.sourceforge.net/DTD/sodipodi-0.dtd"
   xmlns="http://www.w3.org/2000/svg"
   xmlns:svg="http://www.w3.org/2000/svg">
  <defs
     id="defs74773" />
  <sodipodi:namedview
     id="namedview74771"
     pagecolor="#ffffff"
     bordercolor="#000000"
     borderopacity="0.25"
     inkscape:showpageshadow="2"
     inkscape:pageopacity="0.0"
     inkscape:pagecheckerboard="0"
     inkscape:deskcolor="#d1d1d1"
     showgrid="false"
     inkscape:zoom="3.2777778"
     inkscape:cx="-62.084745"
     inkscape:cy="36"
     inkscape:window-width="1309"
     inkscape:window-height="456"
     inkscape:window-x="0"
     inkscape:window-y="25"
     inkscape:window-maximized="0"
     inkscape:current-layer="emoji" />
  <path
     id="path79841"
     style="fill:#d22f27"
     d="M 5,17 H 67 V 55 H 5 Z" />
  <path
     id="path79844"
     style="fill:#5c9e31"
     d="M 5,42 H 67 V 55 H 5 Z" />
  <path
     id="path79847"
     style="fill:#61b2e4"
     d="M 5,17 H 67 V 30 H 5 Z" />
  <path
     style="color:#000000;fill:#ffffff;stroke-linecap:round;stroke-linejoin:round;-inkscape-stroke:none"
     d="m 39.584,34.618 1.553,-0.724 -0.747,1.542 1.61,0.586 -1.618,0.562 0.724,1.553 L 39.564,37.39 38.978,39 38.416,37.382 36.863,38.106 37.61,36.564 36,35.978 37.618,35.416 36.894,33.863 38.436,34.61 39.022,33 Z"
     id="path79829" />
  <path
     style="color:#000000;fill:#ffffff;stroke-linecap:round;stroke-linejoin:round;-inkscape-stroke:none"
     d="m 39.025391,32.5 a 0.50005,0.50005 0 0 0 -0.472657,0.328125 l -0.396484,1.089844 -1.044922,-0.50586 a 0.50005,0.50005 0 0 0 -0.669922,0.66211 l 0.488281,1.050781 -1.09375,0.380859 a 0.50005,0.50005 0 0 0 -0.0078,0.941407 l 1.089844,0.396484 -0.50586,1.044922 a 0.50005,0.50005 0 0 0 0.66211,0.669922 l 1.050781,-0.488282 0.380859,1.09375 a 0.50005,0.50005 0 0 0 0.941407,0.0078 l 0.396484,-1.089844 1.044922,0.50586 a 0.50005,0.50005 0 0 0 0.669922,-0.66211 L 41.070312,36.875 l 1.09375,-0.380859 a 0.50005,0.50005 0 0 0 0.0078,-0.941407 l -1.089844,-0.396484 0.50586,-1.044922 a 0.50005,0.50005 0 0 0 -0.66211,-0.669922 L 39.875,33.929687 39.494141,32.835937 A 0.50005,0.50005 0 0 0 39.025391,32.5 Z m -0.01367,1.994141 0.09961,0.287109 a 0.50005,0.50005 0 0 0 0.683594,0.289062 l 0.279297,-0.130859 -0.134766,0.279297 a 0.50005,0.50005 0 0 0 0.279297,0.6875 l 0.287109,0.105469 -0.287109,0.09961 a 0.50005,0.50005 0 0 0 -0.289063,0.683594 l 0.13086,0.279297 -0.279297,-0.134766 a 0.50005,0.50005 0 0 0 -0.6875,0.279297 l -0.105469,0.287109 -0.09961,-0.287109 A 0.50005,0.50005 0 0 0 38.20508,36.929688 l -0.279297,0.13086 0.134766,-0.279297 a 0.50005,0.50005 0 0 0 -0.279297,-0.6875 l -0.287109,-0.105469 0.287109,-0.09961 a 0.50005,0.50005 0 0 0 0.289062,-0.683594 l -0.130859,-0.279297 0.279297,0.134766 a 0.50005,0.50005 0 0 0 0.6875,-0.279297 z"
     id="path79826" />
  <path
     style="color:#000000;fill:#ffffff;stroke-linecap:round;stroke-linejoin:round;-inkscape-stroke:none"
     d="M 30.5307,36 A 4.0529,4.0529 0 0 1 33.9091,32.0764 4.3955,4.3955 0 0 0 33.0983,32 a 4.0043,4.0043 0 1 0 0,8 4.3955,4.3955 0 0 0 0.8108,-0.0764 A 4.0529,4.0529 0 0 1 30.5307,36 Z"
     id="path79835" />
  <path
     style="color:#000000;fill:#ffffff;stroke-linecap:round;stroke-linejoin:round;-inkscape-stroke:none"
     d="m 33.113281,31.501953 c -1.519106,-0.06813 -2.731647,0.474228 -3.52539,1.335938 -0.795289,0.863387 -1.179688,2.01699 -1.179688,3.162109 0,1.145119 0.384399,2.298722 1.179688,3.162109 0.793743,0.86171 2.006284,1.404063 3.52539,1.335938 0.298362,-0.0012 0.595475,-0.02859 0.888672,-0.08398 a 0.50005,0.50005 0 0 0 -0.0098,-0.984375 C 32.306375,39.145444 31.071163,37.708147 31.035156,36 c 0.03601,-1.708147 1.271219,-3.145444 2.957031,-3.429688 a 0.50005,0.50005 0 0 0 0.0098,-0.984375 c -0.293197,-0.05539 -0.59031,-0.08279 -0.888672,-0.08398 z m -1.511719,1.214844 C 30.67718,33.539616 30.05478,34.68211 30.03125,35.990234 a 0.50005,0.50005 0 0 0 0,0.01953 c 0.02353,1.308124 0.64593,2.450618 1.570312,3.273437 C 31.087726,39.105024 30.653088,38.841404 30.324219,38.484375 29.722903,37.83157 29.408203,36.919654 29.408203,36 c 0,-0.919654 0.3147,-1.83157 0.916016,-2.484375 0.328869,-0.357029 0.763507,-0.620649 1.277343,-0.798828 z"
     id="path79832" />
  <path
     style="color:#000000;fill:#000000;stroke-linecap:round;stroke-linejoin:round;-inkscape-stroke:none"
     d="m 5,16 a 1.0001,1.0001 0 0 0 -1,1 v 38 a 1.0001,1.0001 0 0 0 1,1 h 62 a 1.0001,1.0001 0 0 0 1,-1 V 17 a 1.0001,1.0001 0 0 0 -1,-1 z m 1,2 H 66 V 54 H 6 Z"
     id="path79838" />
</svg>
