<?xml version="1.0" encoding="UTF-8" standalone="no"?>
<svg
   id="emoji"
   viewBox="0 0 72 72"
   version="1.1"
   sodipodi:docname="Belarus.svg"
   inkscape:version="1.2 (dc2aeda, 2022-05-15)"
   xmlns:inkscape="http://www.inkscape.org/namespaces/inkscape"
   xmlns:sodipodi="http://sodipodi.sourceforge.net/DTD/sodipodi-0.dtd"
   xmlns="http://www.w3.org/2000/svg"
   xmlns:svg="http://www.w3.org/2000/svg">
  <defs
     id="defs80725" />
  <sodipodi:namedview
     id="namedview80723"
     pagecolor="#ffffff"
     bordercolor="#000000"
     borderopacity="0.25"
     inkscape:showpageshadow="2"
     inkscape:pageopacity="0.0"
     inkscape:pagecheckerboard="0"
     inkscape:deskcolor="#d1d1d1"
     showgrid="false"
     inkscape:zoom="3.2777778"
     inkscape:cx="-68.338983"
     inkscape:cy="36"
     inkscape:window-width="1309"
     inkscape:window-height="456"
     inkscape:window-x="0"
     inkscape:window-y="25"
     inkscape:window-maximized="0"
     inkscape:current-layer="emoji" />
  <path
     id="path80974"
     style="fill:#d22f27"
     d="M 5,17 H 67 V 55 H 5 Z" />
  <path
     id="path80977"
     style="fill:#5c9e31"
     d="M 5,42 H 67 V 55 H 5 Z" />
  <path
     id="path80980"
     style="fill:#ffffff"
     d="M 5,17 H 17 V 55 H 5 Z" />
  <path
     style="color:#000000;fill:#d22f27;stroke-linecap:round;stroke-linejoin:round;-inkscape-stroke:none"
     d="M 7.29204 21.2933 C 6.90157 21.6839 6.90157 22.317 7.29204 22.7075 L 10.7917 26.2071 C 11.1822 26.5976 11.8153 26.5976 12.2059 26.2071 L 15.7069 22.7061 C 16.0974 22.3156 16.0974 21.6825 15.7069 21.2919 L 12.2073 17.7923 C 11.8167 17.4018 11.1836 17.4018 10.793 17.7923 Z M 9.41336 22.0004 L 11.5002 19.9136 L 13.5856 21.999 L 11.4988 24.0858 Z"
     id="path80956" />
  <path
     style="color:#000000;fill:#d22f27;stroke-linecap:round;stroke-linejoin:round"
     d="M 7.29204 28.2926 C 6.90157 28.6831 6.90157 29.3162 7.29204 29.7068 L 10.793 33.2078 C 11.1836 33.5982 11.8167 33.5982 12.2073 33.2078 L 15.7069 29.7082 C 16.0974 29.3176 16.0974 28.6845 15.7069 28.2939 L 12.2059 24.7929 C 11.8153 24.4025 11.1822 24.4025 10.7917 24.7929 Z M 9.41336 28.9997 L 11.4988 26.9143 L 13.5856 29.001 L 11.5002 31.0865 Z"
     id="path80959" />
  <path
     style="color:#000000;fill:#d22f27;stroke-linecap:round;stroke-linejoin:round"
     d="M 7.29342 35.2932 C 6.90295 35.6837 6.90295 36.3169 7.29342 36.7074 L 10.793 40.207 C 11.1836 40.5975 11.8167 40.5975 12.2073 40.207 L 15.7069 36.7074 C 16.0974 36.3169 16.0974 35.6837 15.7069 35.2932 L 12.2073 31.7936 C 11.8167 31.4031 11.1836 31.4031 10.793 31.7936 Z M 9.41474 36.0003 L 11.5002 33.9149 L 13.5856 36.0003 L 11.5002 38.0857 Z"
     id="path80962" />
  <path
     style="color:#000000;fill:#d22f27;stroke-linecap:round;stroke-linejoin:round"
     d="M 7.29342 42.2924 C 6.90295 42.683 6.90295 43.3161 7.29342 43.7067 L 10.793 47.2063 C 11.1836 47.5968 11.8167 47.5968 12.2073 47.2063 L 15.7069 43.7067 C 16.0974 43.3161 16.0974 42.683 15.7069 42.2924 L 12.2073 38.7928 C 11.8167 38.4023 11.1836 38.4023 10.793 38.7928 Z M 9.41474 42.9996 L 11.5002 40.9141 L 13.5856 42.9996 L 11.5002 45.085 Z"
     id="path80965" />
  <path
     style="color:#000000;fill:#d22f27;stroke-linecap:round;stroke-linejoin:round"
     d="M 7.29204 49.2931 C 6.90157 49.6836 6.90157 50.3167 7.29204 50.7073 L 10.7917 54.2069 C 11.1822 54.5974 11.8153 54.5974 12.2059 54.2069 L 15.7069 50.7059 C 16.0974 50.3154 16.0974 49.6822 15.7069 49.2917 L 12.2073 45.7921 C 11.8167 45.4016 11.1836 45.4016 10.793 45.7921 Z M 9.41336 50.0002 L 11.5002 47.9134 L 13.5856 49.9988 L 11.4988 52.0856 Z"
     id="path80968" />
  <path
     style="color:#000000;fill:#000000;stroke-linecap:round;stroke-linejoin:round"
     d="m 5,16 a 1.0001,1.0001 0 0 0 -1,1 v 38 a 1.0001,1.0001 0 0 0 1,1 h 62 a 1.0001,1.0001 0 0 0 1,-1 V 17 a 1.0001,1.0001 0 0 0 -1,-1 z m 1,2 H 66 V 54 H 6 Z"
     id="path80971" />
</svg>
