<?xml version="1.0" encoding="UTF-8" standalone="no"?>
<svg
   id="emoji"
   viewBox="0 0 72 72"
   version="1.1"
   sodipodi:docname="Bermuda.svg"
   inkscape:version="1.2 (dc2aeda, 2022-05-15)"
   xmlns:inkscape="http://www.inkscape.org/namespaces/inkscape"
   xmlns:sodipodi="http://sodipodi.sourceforge.net/DTD/sodipodi-0.dtd"
   xmlns="http://www.w3.org/2000/svg"
   xmlns:svg="http://www.w3.org/2000/svg">
  <defs
     id="defs81690" />
  <sodipodi:namedview
     id="namedview81688"
     pagecolor="#ffffff"
     bordercolor="#000000"
     borderopacity="0.25"
     inkscape:showpageshadow="2"
     inkscape:pageopacity="0.0"
     inkscape:pagecheckerboard="0"
     inkscape:deskcolor="#d1d1d1"
     showgrid="false"
     inkscape:zoom="3.2777778"
     inkscape:cx="-13.271186"
     inkscape:cy="36"
     inkscape:window-width="1309"
     inkscape:window-height="456"
     inkscape:window-x="0"
     inkscape:window-y="25"
     inkscape:window-maximized="0"
     inkscape:current-layer="emoji" />
  <path
     id="path82008"
     style="fill:#d22f27"
     d="M 5,17 H 67 V 55 H 5 Z" />
  <path
     id="path82011"
     style="fill:#1e50a0"
     d="M 5,17 H 36 V 36 H 5 Z" />
  <path
     id="path81978"
     style="fill:#ffffff"
     d="M 36,36 V 33.668 L 9.887,18 H 6 v 2.332 L 32.113,36 Z" />
  <path
     id="path81981"
     style="fill:#ffffff"
     d="M 6,36 H 9.887 L 36,20.332 V 18 H 32.113 L 6,33.668 Z" />
  <path
     id="path81984"
     style="fill:#ffffff"
     d="m 6,24 h 30 v 6 H 6 Z" />
  <path
     id="path81987"
     style="fill:#ffffff"
     d="m 18,18 h 6 v 18 h -6 z" />
  <path
     id="path81990"
     style="fill:#d22f27"
     d="m 20,18 h 2 v 18 h -2 z" />
  <path
     id="path81993"
     style="fill:#d22f27"
     d="m 6,26 h 30 v 2 H 6 Z" />
  <path
     id="path81996"
     style="fill:#d22f27"
     d="M 36,35.999 V 33.668 L 29.887,30 H 26 l 10,6 z" />
  <path
     id="path81999"
     style="fill:#d22f27"
     d="M 26.001,24 36,18.001 V 18 H 32.113 L 24,22.868 V 24 Z" />
  <path
     id="path82002"
     style="fill:#d22f27"
     d="m 6,18.001 v 2.331 L 12.113,24 h 3.888 l -10,-6 z" />
  <path
     id="path82005"
     style="fill:#d22f27"
     d="M 16,30 6,35.999 V 36 H 9.887 L 18,31.132 V 30 Z" />
  <path
     id="path82014"
     style="fill:#ffffff"
     d="M 44,29 H 64 V 46 H 44 Z" />
  <path
     fill="#5c9e31"
     d="m 43.9133,45 v 0.4933 a 3.8071,3.8071 0 0 0 0.1237,1.2247 3.8582,3.8582 0 0 0 0.269,0.6564 4.561,4.561 0 0 0 0.3533,0.5593 4.0657,4.0657 0 0 0 0.399,0.4567 5.2435,5.2435 0 0 0 0.56,0.4889 c 0.2175,0.16 0.43,0.3255 0.6594,0.4672 0.2,0.1233 0.4038,0.2394 0.6066,0.3575 0.25,0.1455 0.5135,0.26 0.7682,0.3929 0.2874,0.1505 0.592,0.2574 0.8871,0.388 0.1621,0.0718 0.3281,0.1354 0.4954,0.1933 0.112,0.0388 0.2221,0.0881 0.3348,0.1181 0.1877,0.05 0.3638,0.134 0.5536,0.1776 0.1633,0.0376 0.3182,0.109 0.482,0.15 0.1116,0.0279 0.22,0.07 0.33,0.1027 0.1142,0.0333 0.2284,0.0688 0.3449,0.0912 0.13,0.025 0.2575,0.0616 0.3836,0.0962 0.1261,0.0346 0.2539,0.0741 0.3807,0.0974 0.1951,0.0358 0.3832,0.0989 0.5786,0.1336 0.1883,0.0334 0.3758,0.0774 0.5629,0.1192 0.0781,0.0174 0.1576,0.02 0.2334,0.0391 a 4.9463,4.9463 0 0 0 0.6426,0.1149 0.305,0.305 0 0 0 0.2166,-10e-4 1.4022,1.4022 0 0 0 0.1538,-0.0116 c 0.1857,-0.0345 0.37,-0.0805 0.5563,-0.1055 0.0979,-0.0131 0.1939,-0.0371 0.29,-0.056 0.1657,-0.0328 0.3306,-0.0736 0.4958,-0.1114 0.0707,-0.0163 0.1438,-0.0237 0.2122,-0.0452 0.1471,-0.0463 0.2983,-0.0717 0.4472,-0.1089 0.1281,-0.0321 0.2591,-0.0541 0.3847,-0.0946 0.1728,-0.0557 0.35,-0.0944 0.5236,-0.1442 a 3.4119,3.4119 0 0 0 0.3336,-0.0947 4.1273,4.1273 0 0 1 0.4371,-0.1379 c 0.1871,-0.0518 0.3675,-0.1233 0.5534,-0.1782 0.24,-0.0711 0.4728,-0.172 0.7076,-0.263 0.1879,-0.0729 0.3772,-0.1417 0.5607,-0.2272 q 0.2709,-0.126 0.5451,-0.2443 c 0.24,-0.1031 0.47,-0.225 0.7015,-0.344 a 4.6368,4.6368 0 0 0 0.4491,-0.2594 c 0.2123,-0.1413 0.2954,-0.4162 0.4545,-0.62 0.1833,-0.235 0.395,-0.4463 0.5779,-0.6818 a 5.3028,5.3028 0 0 0 0.368,-0.5522 c 0.1687,-0.2846 0.3237,-0.5771 0.4785,-0.87 l 0.2008,-0.3793 0.369,-0.6969 A 1.2625,1.2625 0 0 0 63.9982,45 Z"
     id="path81972" />
  <path
     id="path82017"
     style="fill:#d22f27"
     d="m 57.25,31.75 a 1,1 0 0 1 -1,1 1,1 0 0 1 -1,-1 1,1 0 0 1 1,-1 1,1 0 0 1 1,1 z" />
  <path
     id="path82020"
     style="fill:#d22f27"
     d="m 52.75,31.75 a 1,1 0 0 1 -1,1 1,1 0 0 1 -1,-1 1,1 0 0 1 1,-1 1,1 0 0 1 1,1 z" />
  <path
     id="path82023"
     style="fill:#d22f27"
     d="m 53.5,31 h 1 c 1.385,0 2.5,1.115 2.5,2.5 v 3 c 0,1.385 -1.115,2.5 -2.5,2.5 h -1 C 52.115,39 51,37.885 51,36.5 v -3 C 51,32.115 52.115,31 53.5,31 Z" />
  <path
     id="path82026"
     style="fill:#d22f27"
     d="m 59,40 h 2 c 0.554,0 1,0.446 1,1 0,0.554 -0.446,1 -1,1 h -2 c -0.554,0 -1,-0.446 -1,-1 0,-0.554 0.446,-1 1,-1 z" />
  <path
     id="path82029"
     transform="rotate(45)"
     style="fill:#d22f27"
     d="m 73.246201,-8.7781487 h 2 c 0.554,0 1,0.446 1,1 0,0.554 -0.446,1 -1,1 h -2 c -0.554,0 -1,-0.446 -1,-1 0,-0.554 0.446,-1 1,-1 z" />
  <path
     id="path82032"
     transform="rotate(135)"
     style="fill:#d22f27"
     d="m -3.121336,-69.589401 h 2 c 0.55400002,0 1.00000002,0.446 1.00000002,1 0,0.554 -0.446,1 -1.00000002,1 h -2 c -0.554,0 -1,-0.446 -1,-1 0,-0.554 0.446,-1 1,-1 z" />
  <path
     id="path82035"
     style="fill:#d22f27"
     d="m 47,40 h 2 c 0.554,0 1,0.446 1,1 0,0.554 -0.446,1 -1,1 h -2 c -0.554,0 -1,-0.446 -1,-1 0,-0.554 0.446,-1 1,-1 z" />
  <path
     fill="#92d3f5"
     d="m 60,36 c -2.5714,2.3636 -6,0 -6,0 0,0 -3.4286,2.3636 -6,0 v 2.3636 a 2.0759,2.0759 0 0 1 0,2.3637 c 0,0 0.8571,8.2727 6,8.2727 5.1429,0 6,-8.2727 6,-8.2727 a 2.0759,2.0759 0 0 1 0,-2.3637 z"
     id="path81975" />
  <path
     style="color:#000000;fill:#000000;stroke-miterlimit:10;-inkscape-stroke:none"
     d="m 43,28 v 15.539062 c 0,0 0.0031,2.030933 1.361328,4.148438 1.358225,2.117505 4.098005,4.329474 9.34375,4.810547 l 0.04492,0.0039 0.04492,-0.0039 C 59.040667,52.016974 61.780447,49.805005 63.138672,47.6875 64.496897,45.569995 64.5,43.539062 64.5,43.539062 V 28 H 53.75 Z m 1,1 h 9.75 9.75 v 14.539062 c 0,0 0.0031,1.731885 -1.201172,3.609375 C 61.098666,49.019519 58.71936,51.026193 53.75,51.494141 48.78064,51.026193 46.401334,49.019519 45.201172,47.148437 43.996899,45.270947 44,43.539062 44,43.539062 Z"
     id="path81966" />
  <path
     style="color:#000000;fill:#000000;stroke-linecap:round;stroke-linejoin:round;-inkscape-stroke:none"
     d="m 5,16 a 1.0001,1.0001 0 0 0 -1,1 v 38 a 1.0001,1.0001 0 0 0 1,1 h 62 a 1.0001,1.0001 0 0 0 1,-1 V 17 a 1.0001,1.0001 0 0 0 -1,-1 z m 1,2 H 66 V 54 H 6 Z"
     id="path81969" />
</svg>
