<?xml version="1.0" encoding="UTF-8" standalone="no"?>
<svg
   id="emoji"
   viewBox="0 0 72 72"
   version="1.1"
   sodipodi:docname="Bhutan.svg"
   inkscape:version="1.2 (dc2aeda, 2022-05-15)"
   xmlns:inkscape="http://www.inkscape.org/namespaces/inkscape"
   xmlns:sodipodi="http://sodipodi.sourceforge.net/DTD/sodipodi-0.dtd"
   xmlns="http://www.w3.org/2000/svg"
   xmlns:svg="http://www.w3.org/2000/svg">
  <defs
     id="defs82099" />
  <sodipodi:namedview
     id="namedview82097"
     pagecolor="#ffffff"
     bordercolor="#000000"
     borderopacity="0.25"
     inkscape:showpageshadow="2"
     inkscape:pageopacity="0.0"
     inkscape:pagecheckerboard="0"
     inkscape:deskcolor="#d1d1d1"
     showgrid="false"
     inkscape:zoom="3.2777778"
     inkscape:cx="-13.271186"
     inkscape:cy="36"
     inkscape:window-width="1309"
     inkscape:window-height="456"
     inkscape:window-x="0"
     inkscape:window-y="25"
     inkscape:window-maximized="0"
     inkscape:current-layer="emoji" />
  <path
     id="path82331"
     style="fill:#d22f27"
     d="M 5,17 H 67 V 55 H 5 Z" />
  <path
     id="path82334"
     style="fill:#f1b31c"
     d="M 67,17 H 5 v 38 z" />
  <path
     style="color:#000000;fill:#ffffff;stroke-linecap:round;stroke-linejoin:round;-inkscape-stroke:none"
     d="m 45.148437,25.988281 c -0.868423,-0.10135 -2.01821,-0.176473 -3.210937,0.113281 -1.192727,0.289755 -2.566935,1.139293 -3.048828,2.66211 -0.481894,1.522816 -0.146075,3.306695 0.93164,5.615234 0.229854,0.49238 0.20489,0.556069 0.263672,0.794922 -0.413575,-0.05147 -1.16829,-0.114792 -2.425781,-0.435547 -1.57026,-0.400534 -3.357236,-0.906074 -5.119141,-0.835937 -0.880952,0.03507 -1.807193,0.22701 -2.611328,0.810547 -0.804134,0.583536 -1.360738,1.553326 -1.546875,2.644531 -0.336037,1.970622 -1.002931,3.428367 -1.978515,4.476562 -0.975584,1.048195 -2.291532,1.751264 -4.19336,2.080078 a 1.5,1.5 0 0 0 -1.222656,1.734375 1.5,1.5 0 0 0 1.734375,1.220704 c 2.407168,-0.416185 4.417989,-1.424636 5.876953,-2.992188 1.458964,-1.567552 2.333473,-3.630252 2.740235,-6.015625 0.08636,-0.506294 0.203631,-0.611401 0.351562,-0.71875 0.147931,-0.107349 0.454313,-0.221709 0.96875,-0.242187 1.028874,-0.04096 2.681451,0.34205 4.257813,0.74414 1.576361,0.402091 2.937151,0.986936 4.583984,0.523438 0.411708,-0.115875 0.874965,-0.355698 1.220703,-0.765625 0.345739,-0.409927 0.520268,-0.94081 0.554688,-1.417969 0.06884,-0.954318 -0.232822,-1.794462 -0.736329,-2.873047 -0.914282,-1.958456 -0.915793,-3.049053 -0.791015,-3.443359 0.124778,-0.394307 0.303029,-0.505746 0.898437,-0.650391 0.595409,-0.144645 1.470325,-0.128652 2.154297,-0.04883 0.341986,0.03991 0.6346,0.09027 0.847656,0.128906 0.106529,0.01932 0.186984,0.03549 0.279297,0.05078 0.04616,0.0076 0.06136,0.01741 0.234375,0.02539 0.04325,0.002 0.0977,0.0056 0.207032,-0.0039 0.05467,-0.0048 0.227893,-0.03696 0.228515,-0.03711 0,0 0.472311,-0.206802 0.472656,-0.207031 0,0 0.638605,-0.931334 0.638672,-0.93164 0,0 -0.154082,-1.048442 -0.154297,-1.048829 0,0 -0.214294,-0.300915 -0.287109,-0.36914 -0.07281,-0.06822 -0.125827,-0.10526 -0.167969,-0.134766 a 1.5,1.5 0 0 0 -1.929687,0.341797 c 0.116723,-0.170242 0.246227,-0.359463 0.246094,-0.359375 0,0 0.469372,-0.20523 0.46875,-0.205078 0,0 0.171733,-0.03251 0.224609,-0.03711 0.105752,-0.0092 0.15389,-0.0056 0.191406,-0.0039 0.150065,0.0069 0.126725,0.01134 0.117188,0.0098 -0.01907,-0.0032 -0.113182,-0.01939 -0.232422,-0.04102 -0.23848,-0.04325 -0.602898,-0.107527 -1.03711,-0.158203 z m -0.203125,1.121094 a 1.5,1.5 0 0 0 -0.123046,0.552734 c -0.01886,-0.128428 -0.0449,-0.308684 -0.04492,-0.308593 0,0 0.103059,-0.149509 0.167968,-0.244141 z m -0.05273,1.023437 a 1.5,1.5 0 0 0 0.486328,0.765625 c -0.04057,-0.02841 -0.09029,-0.06552 -0.162109,-0.132812 -0.07182,-0.06729 -0.285371,-0.36562 -0.285156,-0.365234 0,0 -0.02413,-0.165665 -0.03906,-0.267579 z"
     id="path82328" />
  <path
     style="color:#000000;fill:#ffffff;stroke-linecap:round;stroke-linejoin:round;-inkscape-stroke:none"
     d="m 40.611328,31.599609 a 1,1 0 0 0 -0.634766,0.427735 1,1 0 0 0 0.28125,1.386718 c 1.340356,0.887841 2.750774,1.798359 4.296875,2.185547 1.546102,0.387189 3.320403,0.09593 4.710938,-1.304687 a 1,1 0 0 0 -0.0059,-1.414063 1,1 0 0 0 -1.414063,0.0059 C 46.891241,33.8481 46.118411,33.929967 45.041016,33.660156 43.96362,33.390345 42.67197,32.614252 41.361328,31.746094 a 1,1 0 0 0 -0.75,-0.146485 z"
     id="path82325" />
  <path
     style="color:#000000;fill:#ffffff;stroke-linecap:round;stroke-linejoin:round;-inkscape-stroke:none"
     d="m 41.552734,35.464844 a 1,1 0 0 0 -1.197265,0.751953 c -0.49253,2.156221 -0.750953,3.504803 -0.05859,4.679687 0.346179,0.587443 0.89666,0.968883 1.492187,1.248047 0.595528,0.279165 1.274083,0.49169 2.105469,0.751953 a 1,1 0 0 0 1.253906,-0.65625 1,1 0 0 0 -0.65625,-1.251953 c -0.824911,-0.258236 -1.452503,-0.465399 -1.855468,-0.654297 -0.402966,-0.188897 -0.540693,-0.323318 -0.617188,-0.453125 -0.15299,-0.259614 -0.188312,-1.145975 0.285156,-3.21875 a 1,1 0 0 0 -0.751953,-1.197265 z"
     id="path82322" />
  <path
     id="path82319"
     style="fill:#ffffff"
     d="m 48.419998,43.060001 a 1.5,1.5 0 0 1 -1.5,1.5 1.5,1.5 0 0 1 -1.5,-1.5 1.5,1.5 0 0 1 1.5,-1.5 1.5,1.5 0 0 1 1.5,1.5 z" />
  <path
     id="path82316"
     style="fill:#ffffff"
     d="m 52.509998,32.07 a 1.5,1.5 0 0 1 -1.5,1.5 1.5,1.5 0 0 1 -1.5,-1.5 1.5,1.5 0 0 1 1.5,-1.5 1.5,1.5 0 0 1 1.5,1.5 z" />
  <path
     id="path82313"
     style="fill:#ffffff;stroke-width:0.6666"
     d="m 31.894998,48.414998 a 1.5,1.5 0 0 1 -1.5,1.5 1.5,1.5 0 0 1 -1.5,-1.5 1.5,1.5 0 0 1 1.5,-1.5 1.5,1.5 0 0 1 1.5,1.5 z" />
  <path
     style="color:#000000;fill:#ffffff;stroke-linecap:round;stroke-linejoin:round;-inkscape-stroke:none"
     d="m 29.480469,39.398437 a 1,1 0 0 0 -0.759766,0.08984 1,1 0 0 0 -0.382812,1.361328 c 1.276458,2.277852 1.324682,2.47672 0.970703,4.53711 A 1,1 0 0 0 30.125,46.541012 1,1 0 0 0 31.28125,45.724605 C 31.66327,43.501 31.41357,42.247234 30.082031,39.87109 a 1,1 0 0 0 -0.601562,-0.472657 z"
     id="path82310" />
  <path
     style="color:#000000;fill:#ffffff;stroke-linecap:round;stroke-linejoin:round;-inkscape-stroke:none"
     d="m 29.630859,37.765625 a 1,1 0 0 0 -1.27539,0.613281 1,1 0 0 0 0.613281,1.275391 c 0.646126,0.226102 1.272444,0.602718 2.03125,0.947265 0.758806,0.344548 1.688731,0.637647 2.78125,0.523438 a 1,1 0 0 0 0.890625,-1.097656 1,1 0 0 0 -1.099609,-0.890625 c -0.648479,0.06779 -1.136651,-0.07874 -1.746094,-0.355469 -0.609443,-0.276727 -1.30144,-0.702828 -2.195313,-1.015625 z"
     id="path82307" />
  <path
     id="path82304"
     style="fill:#ffffff;stroke-width:0.6666"
     d="m 37.944998,39.874998 a 1.5,1.5 0 0 1 -1.5,1.5 1.5,1.5 0 0 1 -1.5,-1.5 1.5,1.5 0 0 1 1.5,-1.5 1.5,1.5 0 0 1 1.5,1.5 z" />
  <path
     style="color:#000000;fill:#000000;stroke-linecap:round;stroke-linejoin:round;-inkscape-stroke:none"
     d="m 5,16 a 1.0001,1.0001 0 0 0 -1,1 v 38 a 1.0001,1.0001 0 0 0 1,1 h 62 a 1.0001,1.0001 0 0 0 1,-1 V 17 a 1.0001,1.0001 0 0 0 -1,-1 z m 1,2 H 66 V 54 H 6 Z"
     id="path82301" />
</svg>
