<?xml version="1.0" encoding="UTF-8" standalone="no"?>
<svg
   id="emoji"
   viewBox="0 0 72 72"
   version="1.1"
   sodipodi:docname="Bolivia.svg"
   inkscape:version="1.2 (dc2aeda, 2022-05-15)"
   xmlns:inkscape="http://www.inkscape.org/namespaces/inkscape"
   xmlns:sodipodi="http://sodipodi.sourceforge.net/DTD/sodipodi-0.dtd"
   xmlns="http://www.w3.org/2000/svg"
   xmlns:svg="http://www.w3.org/2000/svg">
  <defs
     id="defs82389" />
  <sodipodi:namedview
     id="namedview82387"
     pagecolor="#ffffff"
     bordercolor="#000000"
     borderopacity="0.25"
     inkscape:showpageshadow="2"
     inkscape:pageopacity="0.0"
     inkscape:pagecheckerboard="0"
     inkscape:deskcolor="#d1d1d1"
     showgrid="false"
     inkscape:zoom="3.2777778"
     inkscape:cx="-26.237288"
     inkscape:cy="46.983051"
     inkscape:window-width="1309"
     inkscape:window-height="456"
     inkscape:window-x="0"
     inkscape:window-y="25"
     inkscape:window-maximized="0"
     inkscape:current-layer="emoji" />
  <path
     id="path82587"
     style="fill:#f1b31c"
     d="M 5,17 H 67 V 55 H 5 Z" />
  <path
     id="path82590"
     style="fill:#5c9e31"
     d="M 5,42 H 67 V 55 H 5 Z" />
  <path
     id="path82593"
     style="fill:#d22f27"
     d="M 5,17 H 67 V 30 H 5 Z" />
  <path
     id="path82578"
     d="M 40.0556 31.6444 C 40.2806 31.8694 40.3326 32.2492 40.2 32.7 C 40.0673 33.1509 39.7611 33.636 39.3485 34.0486 C 38.9359 34.4611 38.4508 34.7674 38 34.9 C 37.5491 35.0326 37.1694 34.9807 36.9443 34.7557 C 36.7193 34.5306 36.6673 34.1509 36.8 33.7 C 36.9326 33.2492 37.2388 32.7641 37.6514 32.3515 C 38.064 31.9389 38.5491 31.6326 39 31.5 C 39.4508 31.3674 39.8305 31.4194 40.0556 31.6444 Z" />
  <path
     id="path82581"
     d="M 35.3486 32.3514 C 35.7611 32.764 36.0674 33.2491 36.2 33.7 C 36.3326 34.1508 36.2807 34.5306 36.0557 34.7556 C 35.8306 34.9806 35.4509 35.0326 35 34.9 C 34.5492 34.7674 34.0641 34.4611 33.6515 34.0485 C 33.2389 33.6359 32.9326 33.1508 32.8 32.7 C 32.6674 32.2491 32.7194 31.8694 32.9444 31.6443 C 33.1694 31.4193 33.5492 31.3674 34 31.5 C 34.4509 31.6326 34.936 31.9389 35.3486 32.3514 Z" />
  <path
     id="path82584"
     style="fill:#61b2e4"
     d="m 38.5,36.866699 a 2,3.1333001 0 0 1 -2,3.1333 2,3.1333001 0 0 1 -2,-3.1333 2,3.1333001 0 0 1 2,-3.1333 2,3.1333001 0 0 1 2,3.1333 z" />
  <path
     fill="#d22f27"
     d="m 40,41 a 1,1 0 0 1 -0.707,-1.707 1.725,1.725 0 0 0 -0.0059,-2.5918 1,1 0 0 1 1.42,-1.4082 3.7206,3.7206 0 0 1 0,5.414 A 0.9967,0.9967 0 0 1 40,41 Z"
     id="path82572" />
  <path
     fill="#d22f27"
     d="m 32.8887,41 a 0.9971,0.9971 0 0 1 -0.7071,-0.293 3.7208,3.7208 0 0 1 0,-5.414 1.0002076,1.0002076 0 0 1 1.419,1.41 1.7242,1.7242 0 0 0 -0.0049,2.59 1,1 0 0 1 -0.707,1.707 z"
     id="path82575" />
  <path
     style="color:#000000;fill:#ff0000;stroke-linecap:round;stroke-linejoin:round;-inkscape-stroke:none"
     d="m 5,16 a 1.0001,1.0001 0 0 0 -1,1 v 38 a 1.0001,1.0001 0 0 0 1,1 h 62 a 1.0001,1.0001 0 0 0 1,-1 V 17 a 1.0001,1.0001 0 0 0 -1,-1 z m 1,2 H 66 V 54 H 6 Z"
     id="path82569" />
</svg>
