<?xml version="1.0" encoding="UTF-8" standalone="no"?>
<svg
   id="emoji"
   viewBox="0 0 72 72"
   version="1.1"
   sodipodi:docname="Bosnia and Herzegovina.svg"
   inkscape:version="1.2 (dc2aeda, 2022-05-15)"
   xmlns:inkscape="http://www.inkscape.org/namespaces/inkscape"
   xmlns:sodipodi="http://sodipodi.sourceforge.net/DTD/sodipodi-0.dtd"
   xmlns="http://www.w3.org/2000/svg"
   xmlns:svg="http://www.w3.org/2000/svg">
  <defs
     id="defs82636" />
  <sodipodi:namedview
     id="namedview82634"
     pagecolor="#ffffff"
     bordercolor="#000000"
     borderopacity="0.25"
     inkscape:showpageshadow="2"
     inkscape:pageopacity="0.0"
     inkscape:pagecheckerboard="0"
     inkscape:deskcolor="#d1d1d1"
     showgrid="false"
     inkscape:zoom="3.2777778"
     inkscape:cx="-13.271186"
     inkscape:cy="36"
     inkscape:window-width="1309"
     inkscape:window-height="456"
     inkscape:window-x="0"
     inkscape:window-y="25"
     inkscape:window-maximized="0"
     inkscape:current-layer="emoji" />
  <path
     id="path82833"
     style="fill:#1e50a0"
     d="M 5,17 H 67 V 55 H 5 Z" />
  <path
     id="path82836"
     style="fill:#f1b31c"
     d="M 49.999,16.999 50,55 15,16.999 Z" />
  <path
     id="path82839"
     style="fill:#ffffff"
     d="M 12.85,18 A 1.75,1.75 0 0 1 11.1,19.75 1.75,1.75 0 0 1 9.3500004,18 1.75,1.75 0 0 1 11.1,16.25 1.75,1.75 0 0 1 12.85,18 Z" />
  <path
     id="path82842"
     style="fill:#ffffff"
     d="m 45.849998,54 a 1.75,1.75 0 0 1 -1.75,1.75 1.75,1.75 0 0 1 -1.75,-1.75 1.75,1.75 0 0 1 1.75,-1.75 1.75,1.75 0 0 1 1.75,1.75 z" />
  <path
     id="path82845"
     style="fill:#ffffff"
     d="m 41.849998,49.5 a 1.75,1.75 0 0 1 -1.75,1.75 1.75,1.75 0 0 1 -1.75,-1.75 1.75,1.75 0 0 1 1.75,-1.75 1.75,1.75 0 0 1 1.75,1.75 z" />
  <path
     id="path82848"
     style="fill:#ffffff"
     d="m 36.849998,45 a 1.75,1.75 0 0 1 -1.75,1.75 1.75,1.75 0 0 1 -1.75,-1.75 1.75,1.75 0 0 1 1.75,-1.75 1.75,1.75 0 0 1 1.75,1.75 z" />
  <path
     id="path82851"
     style="fill:#ffffff"
     d="M 32.85,40.5 A 1.75,1.75 0 0 1 31.1,42.25 1.75,1.75 0 0 1 29.35,40.5 1.75,1.75 0 0 1 31.1,38.75 1.75,1.75 0 0 1 32.85,40.5 Z" />
  <path
     id="path82854"
     style="fill:#ffffff"
     d="M 24.85,31.5 A 1.75,1.75 0 0 1 23.1,33.25 1.75,1.75 0 0 1 21.35,31.5 1.75,1.75 0 0 1 23.1,29.75 1.75,1.75 0 0 1 24.85,31.5 Z" />
  <path
     id="path82857"
     style="fill:#ffffff"
     d="M 28.85,36 A 1.75,1.75 0 0 1 27.1,37.75 1.75,1.75 0 0 1 25.35,36 1.75,1.75 0 0 1 27.1,34.25 1.75,1.75 0 0 1 28.85,36 Z" />
  <path
     id="path82860"
     style="fill:#ffffff"
     d="M 16.85,22.5 A 1.75,1.75 0 0 1 15.1,24.25 1.75,1.75 0 0 1 13.35,22.5 1.75,1.75 0 0 1 15.1,20.75 1.75,1.75 0 0 1 16.85,22.5 Z" />
  <path
     id="path82863"
     style="fill:#ffffff"
     d="M 20.85,27 A 1.75,1.75 0 0 1 19.1,28.75 1.75,1.75 0 0 1 17.35,27 1.75,1.75 0 0 1 19.1,25.25 1.75,1.75 0 0 1 20.85,27 Z" />
  <path
     style="color:#000000;fill:#000000;stroke-linecap:round;stroke-linejoin:round;-inkscape-stroke:none"
     d="m 5,16 a 1.0001,1.0001 0 0 0 -1,1 v 38 a 1.0001,1.0001 0 0 0 1,1 h 62 a 1.0001,1.0001 0 0 0 1,-1 V 17 a 1.0001,1.0001 0 0 0 -1,-1 z m 1,2 H 66 V 54 H 6 Z"
     id="path82830" />
</svg>
