<?xml version="1.0" encoding="UTF-8" standalone="no"?>
<svg
   id="emoji"
   viewBox="0 0 72 72"
   version="1.1"
   sodipodi:docname="British Virgin Islands.svg"
   inkscape:version="1.2 (dc2aeda, 2022-05-15)"
   xmlns:inkscape="http://www.inkscape.org/namespaces/inkscape"
   xmlns:sodipodi="http://sodipodi.sourceforge.net/DTD/sodipodi-0.dtd"
   xmlns="http://www.w3.org/2000/svg"
   xmlns:svg="http://www.w3.org/2000/svg">
  <defs
     id="defs85542" />
  <sodipodi:namedview
     id="namedview85540"
     pagecolor="#ffffff"
     bordercolor="#000000"
     borderopacity="0.25"
     inkscape:showpageshadow="2"
     inkscape:pageopacity="0.0"
     inkscape:pagecheckerboard="0"
     inkscape:deskcolor="#d1d1d1"
     showgrid="false"
     inkscape:zoom="3.2777778"
     inkscape:cx="-13.271186"
     inkscape:cy="36"
     inkscape:window-width="1309"
     inkscape:window-height="456"
     inkscape:window-x="0"
     inkscape:window-y="25"
     inkscape:window-maximized="0"
     inkscape:current-layer="emoji" />
  <path
     id="path86111"
     style="fill:#1e50a0"
     d="M 5,17 H 67 V 55 H 5 Z" />
  <path
     id="path86105"
     style="fill:#1e50a0"
     d="M 5,17 H 36 V 36 H 5 Z" />
  <path
     fill="#ffffff"
     d="M 9.5,36 H 5 L 31.5,17 H 36 Z"
     id="path86087" />
  <path
     fill="#ffffff"
     d="M 36,32.5 5,17 v 3.5 L 36,36 Z"
     id="path86090" />
  <path
     fill="#d22f27"
     d="M 36,33.5 5,18 v 1.5 L 36,35 Z"
     id="path86093" />
  <path
     fill="#d22f27"
     d="M 8.5,36 H 6 L 32.5,17 H 35 Z"
     id="path86096" />
  <path
     id="path86108"
     style="fill:#d22f27"
     d="M 19,25 H 5 v 3 h 14 v 8 h 3 V 28 H 36 V 25 H 22 v -8 h -3 z" />
  <path
     style="color:#000000;fill:#ffffff;stroke-linejoin:round"
     d="m 5,27.5 v 1 H 18.5 V 36 h 1 V 28 A 0.50005,0.50005 0 0 0 19,27.5 Z"
     id="path86066" />
  <path
     style="color:#000000;fill:#ffffff;stroke-linejoin:round"
     d="m 18.5,17 v 7.5 H 5 v 1 H 19 A 0.50005,0.50005 0 0 0 19.5,25 v -8 z"
     id="path86069" />
  <path
     style="color:#000000;fill:#ffffff;stroke-linejoin:round"
     d="m 21.5,17 v 8 a 0.50005,0.50005 0 0 0 0.5,0.5 h 14 v -1 H 22.5 V 17 Z"
     id="path86072" />
  <path
     style="color:#000000;fill:#ffffff;stroke-linejoin:round"
     d="M 22,27.5 A 0.50005,0.50005 0 0 0 21.5,28 v 8 h 1 V 28.5 H 36 v -1 z"
     id="path86075" />
  <path
     fill="#fcea2b"
     d="m 57.4518,44.7545 c -4.5023,3.939 -9.0187,3.8068 -13.3557,0.1308 -0.4754,0.112 -0.8438,0.3264 -1.1072,0.2357 -0.6456,-0.2222 -0.704,-0.8505 -0.1978,-1.3206 a 8.0456,8.0456 0 0 0 0.9669,-0.9378 c 0.3463,-0.4526 0.6265,-0.3777 0.9966,-0.0522 a 19.9329,19.9329 0 0 0 1.9685,1.6365 7.357,7.357 0 0 0 9.6994,-1.4055 c 0.6294,-0.7476 0.8221,-0.7463 1.4606,-0.0087 a 3.6555,3.6555 0 0 0 0.6087,0.6286 c 0.4793,0.3369 0.7014,0.7127 0.3,1.2333 -0.32,0.4154 -0.7352,0.3809 -1.34,-0.1401 z"
     id="path86099" />
  <path
     fill="#186648"
     d="m 50.6427,27.723 h -5.0756 a 1.8626,1.8626 0 0 0 -1.8626,1.8626 v 10.7523 c 0,2.0873 4.749,3.7429 6.389,4.2524 a 1.84,1.84 0 0 0 1.0983,0 c 1.64,-0.5095 6.389,-2.1651 6.389,-4.2524 V 29.5856 A 1.8626,1.8626 0 0 0 55.7183,27.723 Z"
     id="path86102" />
  <path
     id="path86114"
     style="fill:#fcea2b"
     d="m 55.8462,30.246 a 0.63069999,0.63069999 0 0 1 -0.6307,0.6307 0.63069999,0.63069999 0 0 1 -0.6307,-0.6307 0.63069999,0.63069999 0 0 1 0.6307,-0.6307 0.63069999,0.63069999 0 0 1 0.6307,0.6307 z" />
  <path
     id="path86117"
     style="fill:#fcea2b"
     d="m 55.8462,32.138199 a 0.63069999,0.63069999 0 0 1 -0.6307,0.6307 0.63069999,0.63069999 0 0 1 -0.6307,-0.6307 0.63069999,0.63069999 0 0 1 0.6307,-0.6307 0.63069999,0.63069999 0 0 1 0.6307,0.6307 z" />
  <path
     id="path86120"
     style="fill:#fcea2b"
     d="m 55.8462,34.030499 a 0.63069999,0.63069999 0 0 1 -0.6307,0.630699 0.63069999,0.63069999 0 0 1 -0.6307,-0.630699 0.63069999,0.63069999 0 0 1 0.6307,-0.6307 0.63069999,0.63069999 0 0 1 0.6307,0.6307 z" />
  <path
     id="path86123"
     style="fill:#fcea2b"
     d="m 55.8462,35.922699 a 0.63069999,0.63069999 0 0 1 -0.6307,0.6307 0.63069999,0.63069999 0 0 1 -0.6307,-0.6307 0.63069999,0.63069999 0 0 1 0.6307,-0.6307 0.63069999,0.63069999 0 0 1 0.6307,0.6307 z" />
  <path
     id="path86126"
     style="fill:#fcea2b"
     d="m 55.8462,37.814899 a 0.63069999,0.63069999 0 0 1 -0.6307,0.6307 0.63069999,0.63069999 0 0 1 -0.6307,-0.6307 0.63069999,0.63069999 0 0 1 0.6307,-0.6307 0.63069999,0.63069999 0 0 1 0.6307,0.6307 z" />
  <path
     id="path86129"
     style="fill:#fcea2b"
     d="m 55.8462,39.707199 a 0.63069999,0.63069999 0 0 1 -0.6307,0.6307 0.63069999,0.63069999 0 0 1 -0.6307,-0.6307 0.63069999,0.63069999 0 0 1 0.6307,-0.6307 0.63069999,0.63069999 0 0 1 0.6307,0.6307 z" />
  <path
     id="path86132"
     style="fill:#fcea2b"
     d="m 47.015801,30.246 a 0.63069999,0.63069999 0 0 1 -0.6307,0.6307 0.63069999,0.63069999 0 0 1 -0.6307,-0.6307 0.63069999,0.63069999 0 0 1 0.6307,-0.6307 0.63069999,0.63069999 0 0 1 0.6307,0.6307 z" />
  <path
     id="path86135"
     style="fill:#ffa7c0"
     d="m 52.0618,29.930599 a 0.9461,0.9461 0 0 1 -0.9461,0.9461 0.9461,0.9461 0 0 1 -0.9461,-0.9461 0.9461,0.9461 0 0 1 0.9461,-0.9461 0.9461,0.9461 0 0 1 0.9461,0.9461 z" />
  <path
     id="path86138"
     style="fill:#fcea2b"
     d="m 47.015801,32.138199 a 0.63069999,0.63069999 0 0 1 -0.6307,0.6307 0.63069999,0.63069999 0 0 1 -0.6307,-0.6307 0.63069999,0.63069999 0 0 1 0.6307,-0.6307 0.63069999,0.63069999 0 0 1 0.6307,0.6307 z" />
  <path
     id="path86141"
     style="fill:#fcea2b"
     d="m 47.015801,34.030499 a 0.63069999,0.63069999 0 0 1 -0.6307,0.630699 0.63069999,0.63069999 0 0 1 -0.6307,-0.630699 0.63069999,0.63069999 0 0 1 0.6307,-0.6307 0.63069999,0.63069999 0 0 1 0.6307,0.6307 z" />
  <path
     id="path86144"
     style="fill:#fcea2b"
     d="m 48.277299,35.922699 a 0.63069999,0.63069999 0 0 1 -0.6307,0.6307 0.63069999,0.63069999 0 0 1 -0.6307,-0.6307 0.63069999,0.63069999 0 0 1 0.6307,-0.6307 0.63069999,0.63069999 0 0 1 0.6307,0.6307 z" />
  <path
     id="path86147"
     style="fill:#fcea2b"
     d="m 47.015801,37.814899 a 0.63069999,0.63069999 0 0 1 -0.6307,0.6307 0.63069999,0.63069999 0 0 1 -0.6307,-0.6307 0.63069999,0.63069999 0 0 1 0.6307,-0.6307 0.63069999,0.63069999 0 0 1 0.6307,0.6307 z" />
  <path
     id="path86150"
     style="fill:#fcea2b"
     d="m 47.015801,39.707199 a 0.63069999,0.63069999 0 0 1 -0.6307,0.6307 0.63069999,0.63069999 0 0 1 -0.6307,-0.6307 0.63069999,0.63069999 0 0 1 0.6307,-0.6307 0.63069999,0.63069999 0 0 1 0.6307,0.6307 z" />
  <path
     id="path86153"
     style="fill:#fcea2b"
     d="m 50.800301,41.5994 a 0.63069999,0.63069999 0 0 1 -0.6307,0.6307 0.63069999,0.63069999 0 0 1 -0.6307,-0.6307 0.63069999,0.63069999 0 0 1 0.6307,-0.6307 0.63069999,0.63069999 0 0 1 0.6307,0.6307 z" />
  <path
     id="path86156"
     style="fill:#fcea2b"
     d="m 52.061799,41.5994 a 0.63069999,0.63069999 0 0 1 -0.6307,0.6307 0.63069999,0.63069999 0 0 1 -0.6307,-0.6307 0.63069999,0.63069999 0 0 1 0.6307,-0.6307 0.63069999,0.63069999 0 0 1 0.6307,0.6307 z" />
  <path
     style="color:#000000;fill:#ffa7c0;stroke-linecap:round;stroke-linejoin:round"
     d="m 49.810547,32.140625 a 0.31535,0.31535 0 0 0 -0.208985,0.123047 l -1.892578,2.523437 a 0.31535,0.31535 0 0 0 0.06445,0.441407 0.31535,0.31535 0 0 0 0.441407,-0.0625 l 1.892578,-2.523438 a 0.31535,0.31535 0 0 0 -0.06445,-0.441406 0.31535,0.31535 0 0 0 -0.232422,-0.06055 z"
     id="path86078" />
  <path
     id="path86159"
     style="fill:#ffffff"
     d="m 50.614599,31.5075 h 0.8445 c 0.639649,0 1.1546,0.514951 1.1546,1.1546 v 7.7827 c 0,0.639648 -0.514951,1.1546 -1.1546,1.1546 h -0.8445 c -0.639648,0 -1.1546,-0.514952 -1.1546,-1.1546 v -7.7827 c 0,-0.639649 0.514952,-1.1546 1.1546,-1.1546 z" />
  <path
     style="color:#000000;fill:#ffa7c0;stroke-linecap:round;stroke-linejoin:round"
     d="m 52.324219,32.142578 a 0.31535,0.31535 0 0 0 -0.257813,0.363281 l 0.585938,3.447266 a 0.31535,0.31535 0 0 0 0.363281,0.257812 0.31535,0.31535 0 0 0 0.257812,-0.365234 L 52.6875,32.400391 a 0.31535,0.31535 0 0 0 -0.363281,-0.257813 z"
     id="path86081" />
  <path
     style="color:#000000;fill:#a57939;stroke-width:0.6307;stroke-linecap:round;stroke-linejoin:round;-inkscape-stroke:none"
     d="m 52.081,29.1231 a 0.9461,0.9461 0 0 0 -1.338,0 l 1.338,1.338 a 0.9461,0.9461 0 0 0 0,-1.338 z"
     id="path86063" />
  <path
     style="color:#000000;fill:#a57939;stroke-linecap:round;stroke-linejoin:round;-inkscape-stroke:none"
     d="m 51.412109,28.533203 c -0.323497,0 -0.647584,0.12219 -0.892578,0.367188 a 0.31538153,0.31538153 0 0 0 0,0.445312 l 1.337891,1.337891 a 0.31538153,0.31538153 0 0 0 0.447265,0 c 0.489997,-0.489987 0.489997,-1.293216 0,-1.783203 -0.244993,-0.244998 -0.569081,-0.367188 -0.892578,-0.367188 z m 0,0.8125 c 0.160765,0 0.32083,-0.124485 0.445313,0 0.124212,0.12421 0,0.2849 0,0.445313 z"
     id="path86060" />
  <path
     style="color:#000000;fill:#000000;stroke-linecap:round;stroke-linejoin:round"
     d="m 5,16 a 1.0001,1.0001 0 0 0 -1,1 v 38 a 1.0001,1.0001 0 0 0 1,1 h 62 a 1.0001,1.0001 0 0 0 1,-1 V 17 a 1.0001,1.0001 0 0 0 -1,-1 z m 1,2 H 66 V 54 H 6 Z"
     id="path86084" />
</svg>
