<?xml version="1.0" encoding="UTF-8" standalone="no"?>
<svg
   id="emoji"
   viewBox="0 0 72 72"
   version="1.1"
   sodipodi:docname="Brunei.svg"
   inkscape:version="1.2 (dc2aeda, 2022-05-15)"
   xmlns:inkscape="http://www.inkscape.org/namespaces/inkscape"
   xmlns:sodipodi="http://sodipodi.sourceforge.net/DTD/sodipodi-0.dtd"
   xmlns="http://www.w3.org/2000/svg"
   xmlns:svg="http://www.w3.org/2000/svg">
  <defs
     id="defs86265" />
  <sodipodi:namedview
     id="namedview86263"
     pagecolor="#ffffff"
     bordercolor="#000000"
     borderopacity="0.25"
     inkscape:showpageshadow="2"
     inkscape:pageopacity="0.0"
     inkscape:pagecheckerboard="0"
     inkscape:deskcolor="#d1d1d1"
     showgrid="false"
     inkscape:zoom="3.2777778"
     inkscape:cx="-62.084745"
     inkscape:cy="36"
     inkscape:window-width="1309"
     inkscape:window-height="456"
     inkscape:window-x="0"
     inkscape:window-y="25"
     inkscape:window-maximized="0"
     inkscape:current-layer="emoji" />
  <path
     id="path86563"
     style="fill:#f1b31c"
     d="M 5,17 H 67 V 55 H 5 Z" />
  <path
     style="color:#000000;fill:#ffffff;stroke-miterlimit:10"
     d="m 5,19 v 5 l 62,23 v -5 z"
     id="path86551" />
  <path
     style="color:#000000;fill:#ffffff;stroke-miterlimit:10"
     d="M 4.5,18.28125 V 19 24.347656 l 63,23.371094 v -6.066406 z m 1,1.4375 61,22.628906 V 46.28125 L 5.5,23.652344 Z"
     id="path86548" />
  <path
     style="color:#000000;fill:#000000;stroke-miterlimit:10"
     d="m 5,25 v 5 l 62,23 v -5 z"
     id="path86557" />
  <path
     style="color:#000000;fill:#000000;stroke-miterlimit:10"
     d="M 4.5,24.28125 V 25 30.347656 l 63,23.371094 v -6.066406 z m 1,1.4375 61,22.628906 V 52.28125 L 5.5,29.652344 Z"
     id="path86554" />
  <path
     style="color:#000000;fill:#d22f27;stroke-linecap:round;stroke-linejoin:round;-inkscape-stroke:none"
     d="m 41.904297,33.988281 a 1,1 0 0 0 -0.765625,0.0059 1,1 0 0 0 -0.53125,1.310546 C 40.860128,35.902144 41,36.556596 41,37.25 c 0,2.773254 -2.226746,5 -5,5 -2.773254,0 -5,-2.226746 -5,-5 0,-0.693322 0.139855,-1.347756 0.392578,-1.945313 a 1,1 0 0 0 -0.53125,-1.310546 1,1 0 0 0 -1.310547,0.53125 C 29.196265,35.363633 29,36.286464 29,37.25 c 0,3.854139 3.145861,7 7,7 3.854139,0 7,-3.145861 7,-7 0,-0.963595 -0.196248,-1.886407 -0.550781,-2.724609 a 1,1 0 0 0 -0.544922,-0.53711 z"
     id="path86530" />
  <path
     style="color:#000000;fill:#d22f27;stroke-linecap:round;stroke-linejoin:round"
     d="m 36,27 a 1,1 0 0 0 -1,1 v 12.5 a 1,1 0 0 0 1,1 1,1 0 0 0 1,-1 V 28 a 1,1 0 0 0 -1,-1 z"
     id="path86533" />
  <path
     style="color:#000000;fill:#d22f27;stroke-linecap:round;stroke-linejoin:round"
     d="m 30.640625,42.482422 a 1,1 0 0 0 -1.408203,0.126953 1,1 0 0 0 0.126953,1.408203 c 4.151886,3.459959 9.279302,3.387349 13.287109,-0.0039 a 1,1 0 0 0 0.117188,-1.410156 1,1 0 0 0 -1.410156,-0.117188 c -3.420786,2.894539 -7.150584,2.964729 -10.712891,-0.0039 z"
     id="path86536" />
  <path
     style="color:#000000;fill:#d22f27;stroke-linecap:round;stroke-linejoin:round"
     d="m 24.337891,30.808594 a 1,1 0 0 0 -0.763672,0.03711 1,1 0 0 0 -0.478516,1.330078 L 25,36.222656 V 41.75 a 1,1 0 0 0 1,1 1,1 0 0 0 1,-1 V 36 a 1.0001,1.0001 0 0 0 -0.0957,-0.425781 l -2,-4.25 a 1,1 0 0 0 -0.566406,-0.515625 z"
     id="path86539" />
  <path
     style="color:#000000;fill:#d22f27;stroke-linecap:round;stroke-linejoin:round"
     d="m 47.623047,30.824219 a 1,1 0 0 0 -0.544922,0.537109 l -2,4.75 A 1.0001,1.0001 0 0 0 45,36.5 v 5.25 a 1,1 0 0 0 1,1 1,1 0 0 0 1,-1 v -5.048828 l 1.921875,-4.5625 a 1,1 0 0 0 -0.533203,-1.310547 1,1 0 0 0 -0.765625,-0.0039 z"
     id="path86542" />
  <path
     style="color:#000000;fill:#d22f27;stroke-linecap:round;stroke-linejoin:round"
     d="m 35.923828,30 c -1.267198,0.0046 -2.520345,0.220582 -3.714844,0.613281 a 1,1 0 0 0 -0.638672,1.261719 1,1 0 0 0 1.263672,0.636719 c 2.015599,-0.662641 4.160059,-0.715688 6.212891,0.02148 a 1,1 0 0 0 1.279297,-0.603516 1,1 0 0 0 -0.603516,-1.279296 C 38.471575,30.201127 37.191027,29.995407 35.923828,30 Z"
     id="path86545" />
  <path
     style="color:#000000;fill:#000000;stroke-linecap:round;stroke-linejoin:round"
     d="m 5,16 a 1.0001,1.0001 0 0 0 -1,1 v 38 a 1.0001,1.0001 0 0 0 1,1 h 62 a 1.0001,1.0001 0 0 0 1,-1 V 17 a 1.0001,1.0001 0 0 0 -1,-1 z m 1,2 H 66 V 54 H 6 Z"
     id="path86560" />
</svg>
