<?xml version="1.0" encoding="UTF-8" standalone="no"?>
<svg
   id="emoji"
   viewBox="0 0 72 72"
   version="1.1"
   sodipodi:docname="Cameroon.svg"
   inkscape:version="1.2 (dc2aeda, 2022-05-15)"
   xmlns:inkscape="http://www.inkscape.org/namespaces/inkscape"
   xmlns:sodipodi="http://sodipodi.sourceforge.net/DTD/sodipodi-0.dtd"
   xmlns="http://www.w3.org/2000/svg"
   xmlns:svg="http://www.w3.org/2000/svg">
  <defs
     id="defs87983" />
  <sodipodi:namedview
     id="namedview87981"
     pagecolor="#ffffff"
     bordercolor="#000000"
     borderopacity="0.25"
     inkscape:showpageshadow="2"
     inkscape:pageopacity="0.0"
     inkscape:pagecheckerboard="0"
     inkscape:deskcolor="#d1d1d1"
     showgrid="false"
     inkscape:zoom="3.2777778"
     inkscape:cx="-62.084745"
     inkscape:cy="36"
     inkscape:window-width="1309"
     inkscape:window-height="456"
     inkscape:window-x="0"
     inkscape:window-y="25"
     inkscape:window-maximized="0"
     inkscape:current-layer="emoji" />
  <path
     id="path88180"
     style="fill:#d22f27"
     d="M 5,17 H 67 V 55 H 5 Z" />
  <path
     id="path88183"
     style="fill:#5c9e31"
     d="M 5,17 H 26 V 55 H 5 Z" />
  <path
     id="path88186"
     style="fill:#f1b31c"
     d="M 46,17 H 67 V 55 H 46 Z" />
  <path
     style="color:#000000;fill:#f1b31c;stroke-linecap:round;stroke-linejoin:round;-inkscape-stroke:none"
     d="M 38.473,40 32,35.055 40,35.056 33.528,40 36,32 Z"
     id="path88174" />
  <path
     style="color:#000000;fill:#f1b31c;stroke-linecap:round;stroke-linejoin:round;-inkscape-stroke:none"
     d="m 36,31.5 a 0.50005,0.50005 0 0 0 -0.478516,0.351562 l -0.835937,2.703125 H 32 a 0.50005,0.50005 0 0 0 -0.302734,0.898438 l 2.195312,1.675781 -0.841797,2.722656 a 0.50005,0.50005 0 0 0 0.78125,0.544922 L 36,38.740234 l 2.169922,1.65625 a 0.50005,0.50005 0 0 0 0.78125,-0.544922 l -0.841797,-2.722656 2.193359,-1.675781 A 0.50005,0.50005 0 0 0 40,34.556641 H 37.314453 L 36.478516,31.851562 A 0.50005,0.50005 0 0 0 36,31.5 Z m 0,2.195312 0.265625,0.861329 -0.53125,-0.002 z m -2.523438,1.859375 h 0.900391 l -0.171875,0.556641 z m 1.949219,0 1.150391,0.002 0.371094,1.203125 L 36,37.482422 35.052734,36.759766 Z m 2.197266,0.002 h 0.898437 l -0.726562,0.554687 z m -2.884766,2.21875 0.439453,0.335937 -0.708984,0.542969 z m 2.523438,0 0.271484,0.878906 -0.708984,-0.542969 z"
     id="path88171" />
  <path
     style="color:#000000;fill:#000000;stroke-linecap:round;stroke-linejoin:round;-inkscape-stroke:none"
     d="m 5,16 a 1.0001,1.0001 0 0 0 -1,1 v 38 a 1.0001,1.0001 0 0 0 1,1 h 62 a 1.0001,1.0001 0 0 0 1,-1 V 17 a 1.0001,1.0001 0 0 0 -1,-1 z m 1,2 H 66 V 54 H 6 Z"
     id="path88177" />
</svg>
