<?xml version="1.0" encoding="UTF-8" standalone="no"?>
<svg
   id="emoji"
   viewBox="0 0 72 72"
   version="1.1"
   sodipodi:docname="Canada.svg"
   inkscape:version="1.2 (dc2aeda, 2022-05-15)"
   xmlns:inkscape="http://www.inkscape.org/namespaces/inkscape"
   xmlns:sodipodi="http://sodipodi.sourceforge.net/DTD/sodipodi-0.dtd"
   xmlns="http://www.w3.org/2000/svg"
   xmlns:svg="http://www.w3.org/2000/svg">
  <defs
     id="defs88217" />
  <sodipodi:namedview
     id="namedview88215"
     pagecolor="#ffffff"
     bordercolor="#000000"
     borderopacity="0.25"
     inkscape:showpageshadow="2"
     inkscape:pageopacity="0.0"
     inkscape:pagecheckerboard="0"
     inkscape:deskcolor="#d1d1d1"
     showgrid="false"
     inkscape:zoom="3.2777778"
     inkscape:cx="-62.084745"
     inkscape:cy="36"
     inkscape:window-width="1309"
     inkscape:window-height="456"
     inkscape:window-x="0"
     inkscape:window-y="25"
     inkscape:window-maximized="0"
     inkscape:current-layer="emoji" />
  <path
     id="path92424"
     style="fill:#ffffff"
     d="M 5,17 H 67 V 55 H 5 Z" />
  <path
     id="path92427"
     style="fill:#d22f27"
     d="M 5,17 H 22 V 55 H 5 Z" />
  <path
     id="path92430"
     style="fill:#d22f27"
     d="M 50,17 H 67 V 55 H 50 Z" />
  <path
     style="color:#000000;fill:#d22f27;stroke-width:2;stroke-linecap:round;stroke-linejoin:round;-inkscape-stroke:none"
     d="M 36,46 V 41"
     id="path92418" />
  <path
     style="color:#000000;fill:#d22f27;stroke-linecap:round;stroke-linejoin:round;-inkscape-stroke:none"
     d="m 36,40 a 1,1 0 0 0 -1,1 v 5 a 1,1 0 0 0 1,1 1,1 0 0 0 1,-1 v -5 a 1,1 0 0 0 -1,-1 z"
     id="path92421" />
  <path
     style="color:#000000;fill:#d22f27;stroke-width:2;stroke-linecap:round;stroke-linejoin:round"
     d="m 36,41 h 6.8 L 42,39 46,35 v -3 h -3 l -4,4 v -7 l -3,-3"
     id="path92412" />
  <path
     style="color:#000000;fill:#d22f27;stroke-linecap:round;stroke-linejoin:round"
     d="m 35.292969,25.292969 a 1,1 0 0 0 0,1.414062 L 38,29.414062 V 36 a 1.0001,1.0001 0 0 0 1.707031,0.707031 L 43.414062,33 H 45 v 1.585937 l -3.707031,3.707032 a 1.0001,1.0001 0 0 0 -0.220703,1.078125 L 41.324219,40 H 36 a 1,1 0 0 0 -1,1 1,1 0 0 0 1,1 h 6.800781 a 1.0001,1.0001 0 0 0 0.927735,-1.371094 l -0.554688,-1.388672 3.533203,-3.533203 A 1.0001,1.0001 0 0 0 47,35 v -3 a 1.0001,1.0001 0 0 0 -1,-1 h -3 a 1.0001,1.0001 0 0 0 -0.707031,0.292969 L 40,33.585937 V 29 a 1.0001,1.0001 0 0 0 -0.292969,-0.707031 l -3,-3 a 1,1 0 0 0 -1.414062,0 z"
     id="path92415" />
  <path
     style="color:#000000;fill:#d22f27;stroke-width:2;stroke-linecap:round;stroke-linejoin:round"
     d="M 36,41 H 29.2 L 30,39 26,35 v -3 h 3 l 4,4 v -7 l 3,-3"
     id="path92406" />
  <path
     style="color:#000000;fill:#d22f27;stroke-linecap:round;stroke-linejoin:round"
     d="m 35.292969,25.292969 -3,3 A 1.0001,1.0001 0 0 0 32,29 v 4.585937 L 29.707031,31.292969 A 1.0001,1.0001 0 0 0 29,31 h -3 a 1.0001,1.0001 0 0 0 -1,1 v 3 a 1.0001,1.0001 0 0 0 0.292969,0.707031 l 3.533203,3.533203 -0.554688,1.388672 A 1.0001,1.0001 0 0 0 29.199219,42 H 36 a 1,1 0 0 0 1,-1 1,1 0 0 0 -1,-1 h -5.324219 l 0.251953,-0.628906 A 1.0001,1.0001 0 0 0 30.707031,38.292969 L 27,34.585937 V 33 h 1.585937 l 3.707032,3.707031 A 1.0001,1.0001 0 0 0 34,36 v -6.585938 l 2.707031,-2.707031 a 1,1 0 0 0 0,-1.414062 1,1 0 0 0 -1.414062,0 z"
     id="path92409" />
  <path
     style="color:#000000;fill:#000000;stroke-linecap:round;stroke-linejoin:round"
     d="m 5,16 a 1.0001,1.0001 0 0 0 -1,1 v 38 a 1.0001,1.0001 0 0 0 1,1 h 62 a 1.0001,1.0001 0 0 0 1,-1 V 17 a 1.0001,1.0001 0 0 0 -1,-1 z m 1,2 H 66 V 54 H 6 Z"
     id="path92433" />
</svg>
