<?xml version="1.0" encoding="UTF-8" standalone="no"?>
<svg
   id="emoji"
   viewBox="0 0 72 72"
   version="1.1"
   sodipodi:docname="Ceuta and Melilla.svg"
   inkscape:version="1.2 (dc2aeda, 2022-05-15)"
   xmlns:inkscape="http://www.inkscape.org/namespaces/inkscape"
   xmlns:sodipodi="http://sodipodi.sourceforge.net/DTD/sodipodi-0.dtd"
   xmlns="http://www.w3.org/2000/svg"
   xmlns:svg="http://www.w3.org/2000/svg">
  <defs
     id="defs90194" />
  <sodipodi:namedview
     id="namedview90192"
     pagecolor="#ffffff"
     bordercolor="#000000"
     borderopacity="0.25"
     inkscape:showpageshadow="2"
     inkscape:pageopacity="0.0"
     inkscape:pagecheckerboard="0"
     inkscape:deskcolor="#d1d1d1"
     showgrid="false"
     inkscape:zoom="3.2777778"
     inkscape:cx="-13.271186"
     inkscape:cy="36"
     inkscape:window-width="1309"
     inkscape:window-height="456"
     inkscape:window-x="0"
     inkscape:window-y="25"
     inkscape:window-maximized="0"
     inkscape:current-layer="emoji" />
  <path
     id="path90532"
     style="fill:#f1b31c"
     d="M 5,17 H 67 V 55 H 5 Z" />
  <path
     fill="#d22f27"
     d="m 23,33 v 7 a 2.0059,2.0059 0 0 1 -2,2 h -4 a 2.0059,2.0059 0 0 1 -2,-2 v -7"
     id="path90529" />
  <path
     id="path90535"
     style="fill:#d22f27"
     d="m 5,17 h 62 v 9 H 5 Z" />
  <path
     id="path90538"
     style="fill:#d22f27"
     d="m 5,46 h 62 v 9 H 5 Z" />
  <path
     id="path90541"
     style="fill:#f1b31c"
     d="m 19,33 h 4 v 4 h -4 z" />
  <path
     id="path90544"
     style="fill:#6a462f"
     d="M 20.5,37 A 1.5,1.5 0 0 1 19,38.5 1.5,1.5 0 0 1 17.5,37 1.5,1.5 0 0 1 19,35.5 1.5,1.5 0 0 1 20.5,37 Z" />
  <path
     style="color:#000000;fill:#6a462f;stroke-linecap:round;stroke-linejoin:round"
     d="m 27,32 a 1,1 0 0 0 -1,1 v 9 a 1,1 0 0 0 1,1 1,1 0 0 0 1,-1 v -9 a 1,1 0 0 0 -1,-1 z"
     id="path90511" />
  <path
     style="color:#000000;fill:#6a462f;stroke-linecap:round;stroke-linejoin:round"
     d="m 11,32 a 1,1 0 0 0 -1,1 v 9 a 1,1 0 0 0 1,1 1,1 0 0 0 1,-1 v -9 a 1,1 0 0 0 -1,-1 z"
     id="path90514" />
  <path
     style="color:#000000;fill:#6a462f;stroke-linecap:round;stroke-linejoin:round;-inkscape-stroke:none"
     d="m 18.998047,28 c -1.557622,0.0031 -3.090975,0.386907 -4.466797,1.117187 a 1,1 0 0 0 -0.414062,1.351563 1,1 0 0 0 1.351562,0.414062 C 16.557033,30.305157 17.769865,30.002437 19.001953,30 A 1,1 0 0 0 20,28.998047 1,1 0 0 0 18.998047,28 Z"
     id="path90502" />
  <path
     style="color:#000000;fill:#6a462f;stroke-linecap:round;stroke-linejoin:round"
     d="M 19.001953,28 A 1,1 0 0 0 18,28.998047 1,1 0 0 0 18.998047,30 c 1.232088,0.0024 2.44492,0.305157 3.533203,0.882812 A 1,1 0 0 0 23.882812,30.46875 1,1 0 0 0 23.46875,29.117187 C 22.092928,28.386907 20.559575,28.003081 19.001953,28 Z"
     id="path90505" />
  <path
     style="color:#000000;fill:#6a462f;stroke-linecap:round;stroke-linejoin:round"
     d="m 15,32 a 1,1 0 0 0 -1,1 1,1 0 0 0 1,1 h 8 a 1,1 0 0 0 1,-1 1,1 0 0 0 -1,-1 z"
     id="path90517" />
  <path
     style="color:#000000;fill:#6a462f;stroke-linecap:round;stroke-linejoin:round"
     d="m 15,32 a 1,1 0 0 0 -1,1 v 7 a 1.0001,1.0001 0 0 0 0,0.0039 C 14.004821,41.64549 15.35451,42.995179 16.996094,43 A 1.0001,1.0001 0 0 0 17,43 h 4 a 1.0001,1.0001 0 0 0 0.0039,0 C 22.64549,42.995179 23.995179,41.64549 24,40.003906 A 1.0001,1.0001 0 0 0 24,40 v -7 a 1,1 0 0 0 -1,-1 1,1 0 0 0 -1,1 v 6.996094 C 21.998341,40.560957 21.560957,40.998341 20.996094,41 H 17.003906 C 16.439043,40.998341 16.001659,40.560957 16,39.996094 V 33 a 1,1 0 0 0 -1,-1 z"
     id="path90508" />
  <path
     style="color:#000000;fill:#6a462f;stroke-linecap:round;stroke-linejoin:round"
     d="m 10,41 a 1,1 0 0 0 -1,1 1,1 0 0 0 1,1 h 2 a 1,1 0 0 0 1,-1 1,1 0 0 0 -1,-1 z"
     id="path90520" />
  <path
     style="color:#000000;fill:#6a462f;stroke-linecap:round;stroke-linejoin:round"
     d="m 26,41 a 1,1 0 0 0 -1,1 1,1 0 0 0 1,1 h 2 a 1,1 0 0 0 1,-1 1,1 0 0 0 -1,-1 z"
     id="path90523" />
  <path
     style="color:#000000;fill:#000000;stroke-linecap:round;stroke-linejoin:round"
     d="m 5,16 a 1.0001,1.0001 0 0 0 -1,1 v 38 a 1.0001,1.0001 0 0 0 1,1 h 62 a 1.0001,1.0001 0 0 0 1,-1 V 17 a 1.0001,1.0001 0 0 0 -1,-1 z m 1,2 H 66 V 54 H 6 Z"
     id="path90526" />
</svg>
