<?xml version="1.0" encoding="UTF-8" standalone="no"?>
<svg
   id="emoji"
   viewBox="0 0 72 72"
   version="1.1"
   sodipodi:docname="Chile.svg"
   inkscape:version="1.2 (dc2aeda, 2022-05-15)"
   xmlns:inkscape="http://www.inkscape.org/namespaces/inkscape"
   xmlns:sodipodi="http://sodipodi.sourceforge.net/DTD/sodipodi-0.dtd"
   xmlns="http://www.w3.org/2000/svg"
   xmlns:svg="http://www.w3.org/2000/svg">
  <defs
     id="defs90776" />
  <sodipodi:namedview
     id="namedview90774"
     pagecolor="#ffffff"
     bordercolor="#000000"
     borderopacity="0.25"
     inkscape:showpageshadow="2"
     inkscape:pageopacity="0.0"
     inkscape:pagecheckerboard="0"
     inkscape:deskcolor="#d1d1d1"
     showgrid="false"
     inkscape:zoom="3.2777778"
     inkscape:cx="-62.084745"
     inkscape:cy="36"
     inkscape:window-width="1309"
     inkscape:window-height="456"
     inkscape:window-x="0"
     inkscape:window-y="25"
     inkscape:window-maximized="0"
     inkscape:current-layer="emoji" />
  <path
     id="path94018"
     style="fill:#ffffff"
     d="M 5,17 H 67 V 55 H 5 Z" />
  <path
     id="path94021"
     style="fill:#d22f27"
     d="M 5,36 H 67 V 55 H 5 Z" />
  <path
     id="path94024"
     style="fill:#1e50a0"
     d="M 5,17 H 26 V 36 H 5 Z" />
  <path
     style="color:#000000;fill:#ffffff;stroke-linecap:round;stroke-linejoin:round"
     d="M 17.632,30.445 11.16,25.5 h 8 l -6.472,4.945 2.472,-8 z"
     id="path94012" />
  <path
     style="color:#000000;fill:#ffffff;stroke-linecap:round;stroke-linejoin:round"
     d="m 15.160156,21.945312 a 0.50005,0.50005 0 0 0 -0.478515,0.351563 L 13.847656,25 h -2.6875 a 0.50005,0.50005 0 0 0 -0.304687,0.896484 l 2.195312,1.677735 -0.839843,2.722656 a 0.50005,0.50005 0 0 0 0.78125,0.544922 l 2.167968,-1.65625 2.167969,1.65625 a 0.50005,0.50005 0 0 0 0.78125,-0.544922 l -0.841797,-2.722656 2.195313,-1.677735 A 0.50005,0.50005 0 0 0 19.160156,25 h -2.6875 l -0.833984,-2.703125 a 0.50005,0.50005 0 0 0 -0.478516,-0.351563 z m 0,2.195313 L 15.425781,25 h -0.53125 z M 12.636719,26 h 0.90039 l -0.171875,0.556641 z m 1.949219,0 h 1.148437 l 0.373047,1.203125 -0.947266,0.724609 -0.947265,-0.724609 z m 2.197265,0 h 0.898438 l -0.728516,0.556641 z m -2.884765,2.220703 0.4375,0.335938 -0.707032,0.541015 z m 2.523437,0 0.271484,0.876953 -0.710937,-0.541015 z"
     id="path94015" />
  <path
     style="color:#000000;fill:#000000;stroke-linecap:round;stroke-linejoin:round;-inkscape-stroke:none"
     d="m 5,16 a 1.0001,1.0001 0 0 0 -1,1 v 38 a 1.0001,1.0001 0 0 0 1,1 h 62 a 1.0001,1.0001 0 0 0 1,-1 V 17 a 1.0001,1.0001 0 0 0 -1,-1 z m 1,2 H 66 V 54 H 6 Z"
     id="path94027" />
</svg>
