<?xml version="1.0" encoding="UTF-8" standalone="no"?>
<svg
   id="emoji"
   viewBox="0 0 72 72"
   version="1.1"
   sodipodi:docname="China.svg"
   inkscape:version="1.2 (dc2aeda, 2022-05-15)"
   xmlns:inkscape="http://www.inkscape.org/namespaces/inkscape"
   xmlns:sodipodi="http://sodipodi.sourceforge.net/DTD/sodipodi-0.dtd"
   xmlns="http://www.w3.org/2000/svg"
   xmlns:svg="http://www.w3.org/2000/svg">
  <defs
     id="defs91010" />
  <sodipodi:namedview
     id="namedview91008"
     pagecolor="#ffffff"
     bordercolor="#000000"
     borderopacity="0.25"
     inkscape:showpageshadow="2"
     inkscape:pageopacity="0.0"
     inkscape:pagecheckerboard="0"
     inkscape:deskcolor="#d1d1d1"
     showgrid="false"
     inkscape:zoom="3.2777778"
     inkscape:cx="-62.084745"
     inkscape:cy="36"
     inkscape:window-width="1309"
     inkscape:window-height="456"
     inkscape:window-x="0"
     inkscape:window-y="25"
     inkscape:window-maximized="0"
     inkscape:current-layer="emoji" />
  <path
     id="path94232"
     style="fill:#d22f27"
     d="M 5,17 H 67 V 55 H 5 Z" />
  <path
     id="path94235"
     style="fill:#f1b31c"
     d="M 25.75,34 A 1.75,1.75 0 0 1 24,35.75 1.75,1.75 0 0 1 22.25,34 1.75,1.75 0 0 1 24,32.25 1.75,1.75 0 0 1 25.75,34 Z" />
  <path
     id="path94238"
     style="fill:#f1b31c"
     d="M 25.75,24 A 1.75,1.75 0 0 1 24,25.75 1.75,1.75 0 0 1 22.25,24 1.75,1.75 0 0 1 24,22.25 1.75,1.75 0 0 1 25.75,24 Z" />
  <path
     id="path94241"
     style="fill:#f1b31c"
     d="M 29.75,31 A 1.75,1.75 0 0 1 28,32.75 1.75,1.75 0 0 1 26.25,31 1.75,1.75 0 0 1 28,29.25 1.75,1.75 0 0 1 29.75,31 Z" />
  <path
     id="path94244"
     style="fill:#f1b31c"
     d="M 29.75,26 A 1.75,1.75 0 0 1 28,27.75 1.75,1.75 0 0 1 26.25,26 1.75,1.75 0 0 1 28,24.25 1.75,1.75 0 0 1 29.75,26 Z" />
  <path
     style="color:#000000;fill:#f1b31c;stroke-linecap:round;stroke-linejoin:round;-inkscape-stroke:none"
     d="M 18.473,32.445 12,27.5 h 8 l -6.472,4.945 2.472,-8 z"
     id="path94226" />
  <path
     style="color:#000000;fill:#f1b31c;stroke-linecap:round;stroke-linejoin:round;-inkscape-stroke:none"
     d="m 16,23.945312 a 0.50005,0.50005 0 0 0 -0.478516,0.351563 L 14.6875,27 H 12 a 0.50005,0.50005 0 0 0 -0.302734,0.896484 l 2.195312,1.677735 -0.841797,2.722656 a 0.50005,0.50005 0 0 0 0.78125,0.544922 L 16,31.183594 l 2.169922,1.658203 a 0.50005,0.50005 0 0 0 0.78125,-0.544922 l -0.841797,-2.724609 2.193359,-1.675782 A 0.50005,0.50005 0 0 0 20,27 H 17.314453 L 16.478516,24.296875 A 0.50005,0.50005 0 0 0 16,23.945312 Z m 0,2.19336 L 16.265625,27 h -0.53125 z M 13.476563,28 h 0.90039 l -0.171875,0.556641 z m 1.949218,0 h 1.150391 L 16.947266,29.203125 16,29.927734 15.052734,29.203125 Z m 2.197266,0 h 0.90039 l -0.728515,0.556641 z m -2.884766,2.220703 0.439453,0.333984 -0.710937,0.542969 z m 2.523438,0 0.271484,0.876953 -0.708984,-0.542969 z"
     id="path94229" />
  <path
     style="color:#000000;fill:#000000;stroke-linecap:round;stroke-linejoin:round;-inkscape-stroke:none"
     d="m 5,16 a 1.0001,1.0001 0 0 0 -1,1 v 38 a 1.0001,1.0001 0 0 0 1,1 h 62 a 1.0001,1.0001 0 0 0 1,-1 V 17 a 1.0001,1.0001 0 0 0 -1,-1 z m 1,2 H 66 V 54 H 6 Z"
     id="path94247" />
</svg>
