<?xml version="1.0" encoding="UTF-8" standalone="no"?>
<svg
   id="emoji"
   viewBox="0 0 72 72"
   version="1.1"
   sodipodi:docname="Christmas Island.svg"
   inkscape:version="1.2 (dc2aeda, 2022-05-15)"
   xmlns:inkscape="http://www.inkscape.org/namespaces/inkscape"
   xmlns:sodipodi="http://sodipodi.sourceforge.net/DTD/sodipodi-0.dtd"
   xmlns="http://www.w3.org/2000/svg"
   xmlns:svg="http://www.w3.org/2000/svg">
  <defs
     id="defs91286" />
  <sodipodi:namedview
     id="namedview91284"
     pagecolor="#ffffff"
     bordercolor="#000000"
     borderopacity="0.25"
     inkscape:showpageshadow="2"
     inkscape:pageopacity="0.0"
     inkscape:pagecheckerboard="0"
     inkscape:deskcolor="#d1d1d1"
     showgrid="false"
     inkscape:zoom="3.2777778"
     inkscape:cx="-62.084745"
     inkscape:cy="36"
     inkscape:window-width="1309"
     inkscape:window-height="456"
     inkscape:window-x="0"
     inkscape:window-y="25"
     inkscape:window-maximized="0"
     inkscape:current-layer="emoji" />
  <path
     id="path94682"
     style="fill:#1e50a0"
     d="M 5,17 H 67 V 55 H 5 Z" />
  <path
     id="path94685"
     style="fill:#5c9e31"
     d="M 5,17 H 67 V 55 Z" />
  <path
     id="path94688"
     style="fill:#f1b31c"
     d="m 45,36 a 9,9 0 0 1 -9,9 9,9 0 0 1 -9,-9 9,9 0 0 1 9,-9 9,9 0 0 1 9,9 z" />
  <path
     style="color:#000000;fill:#ffffff;stroke-linecap:round;stroke-linejoin:round;-inkscape-stroke:none"
     d="m 19.565,44.737 -1.82,-1.391 h 2.25 l -1.821,1.391 0.696,-2.25 z"
     id="path94664" />
  <path
     style="color:#000000;fill:#ffffff;stroke-linecap:round;stroke-linejoin:round;-inkscape-stroke:none"
     d="m 18.869141,41.986328 a 0.50005,0.50005 0 0 0 -0.476563,0.353516 l -0.15625,0.505859 h -0.492187 a 0.50005,0.50005 0 0 0 -0.302735,0.898438 l 0.417969,0.320312 -0.162109,0.525391 a 0.50005,0.50005 0 0 0 0.779296,0.544922 l 0.392579,-0.298829 0.392578,0.298829 a 0.50005,0.50005 0 0 0 0.78125,-0.544922 l -0.16211,-0.525391 0.417969,-0.320312 a 0.50005,0.50005 0 0 0 -0.304687,-0.898438 h -0.490235 l -0.15625,-0.505859 a 0.50005,0.50005 0 0 0 -0.478515,-0.353516 z"
     id="path94667" />
  <path
     style="color:#000000;fill:#ffffff;stroke-linecap:round;stroke-linejoin:round;-inkscape-stroke:none"
     d="M 10.123,41.723 9,41.547 9.938,40.889 9.371,39.878 l 1.087,0.341 0.417,-1.084 0.417,1.084 1.087,-0.341 -0.566,1.011 0.937,0.658 -1.123,0.176 0.082,1.162 -0.834,-0.791 -0.834,0.791 z"
     id="path94670" />
  <path
     style="color:#000000;fill:#ffffff;stroke-linecap:round;stroke-linejoin:round;-inkscape-stroke:none"
     d="m 10.875,38.634766 a 0.50005,0.50005 0 0 0 -0.466797,0.320312 L 10.160156,39.601562 9.5214844,39.400391 A 0.50005,0.50005 0 0 0 8.9355469,40.123047 L 9.28125,40.740234 8.7128906,41.136719 a 0.50005,0.50005 0 0 0 0.2089844,0.904297 l 0.6699219,0.105468 -0.048828,0.703125 a 0.50005,0.50005 0 0 0 0.8417971,0.398438 l 0.490234,-0.464844 0.490234,0.464844 a 0.50005,0.50005 0 0 0 0.841797,-0.398438 l -0.04883,-0.703125 0.669922,-0.105468 a 0.50005,0.50005 0 0 0 0.208984,-0.902344 l -0.566406,-0.398438 0.34375,-0.617187 a 0.50005,0.50005 0 0 0 -0.585937,-0.722656 l -0.638672,0.201171 -0.248047,-0.646484 A 0.50005,0.50005 0 0 0 10.875,38.634766 Z m 0,1.787109 a 0.50005,0.50005 0 0 0 0.507813,0.244141 0.50005,0.50005 0 0 0 0.134765,0.601562 0.50005,0.50005 0 0 0 -0.367187,0.462891 0.50005,0.50005 0 0 0 -0.533203,0 0.50005,0.50005 0 0 0 -0.347657,-0.476563 0.50005,0.50005 0 0 0 0.111328,-0.59375 0.50005,0.50005 0 0 0 0.494141,-0.238281 z"
     id="path94673" />
  <path
     style="color:#000000;fill:#ffffff;stroke-linecap:round;stroke-linejoin:round;-inkscape-stroke:none"
     d="m 21.373,39.473 -1.123,-0.176 0.938,-0.658 -0.567,-1.011 1.087,0.341 0.417,-1.084 0.417,1.084 1.087,-0.341 -0.566,1.011 0.937,0.658 -1.123,0.176 0.082,1.162 -0.834,-0.791 -0.834,0.791 z"
     id="path94658" />
  <path
     style="color:#000000;fill:#ffffff;stroke-linecap:round;stroke-linejoin:round;-inkscape-stroke:none"
     d="m 22.125,36.384766 a 0.50005,0.50005 0 0 0 -0.466797,0.320312 l -0.248047,0.646484 -0.638672,-0.201171 a 0.50005,0.50005 0 0 0 -0.585937,0.722656 l 0.345703,0.617187 -0.568359,0.396485 a 0.50005,0.50005 0 0 0 0.208984,0.904297 l 0.669922,0.105468 -0.04883,0.703125 a 0.50005,0.50005 0 0 0 0.841797,0.398438 l 0.490234,-0.464844 0.490234,0.464844 a 0.50005,0.50005 0 0 0 0.841797,-0.398438 l -0.04883,-0.703125 0.669922,-0.105468 a 0.50005,0.50005 0 0 0 0.208984,-0.902344 l -0.566406,-0.398438 0.34375,-0.617187 A 0.50005,0.50005 0 0 0 23.478512,37.150391 L 22.83984,37.351562 22.591793,36.705078 A 0.50005,0.50005 0 0 0 22.125,36.384766 Z m 0,1.787109 a 0.50005,0.50005 0 0 0 0.507812,0.244141 0.50005,0.50005 0 0 0 0.134766,0.601562 0.50005,0.50005 0 0 0 -0.367187,0.462891 0.50005,0.50005 0 0 0 -0.533204,0 0.50005,0.50005 0 0 0 -0.347656,-0.476563 0.50005,0.50005 0 0 0 0.111328,-0.59375 0.50005,0.50005 0 0 0 0.494141,-0.238281 z"
     id="path94661" />
  <path
     style="color:#000000;fill:#ffffff;stroke-linecap:round;stroke-linejoin:round;-inkscape-stroke:none"
     d="m 15.373,34.973 -1.123,-0.176 0.938,-0.658 -0.567,-1.011 1.087,0.341 0.417,-1.084 0.417,1.084 1.087,-0.341 -0.566,1.011 0.937,0.658 -1.123,0.176 0.082,1.162 -0.834,-0.791 -0.834,0.791 z"
     id="path94652" />
  <path
     style="color:#000000;fill:#ffffff;stroke-linecap:round;stroke-linejoin:round;-inkscape-stroke:none"
     d="m 16.125,31.884766 a 0.50005,0.50005 0 0 0 -0.466797,0.320312 l -0.248047,0.646484 -0.638672,-0.201171 a 0.50005,0.50005 0 0 0 -0.585937,0.722656 l 0.345703,0.617187 -0.568359,0.396485 a 0.50005,0.50005 0 0 0 0.208984,0.904297 l 0.669922,0.105468 -0.04883,0.703125 a 0.50005,0.50005 0 0 0 0.841797,0.398438 l 0.490234,-0.464844 0.490234,0.464844 a 0.50005,0.50005 0 0 0 0.841797,-0.398438 l -0.04883,-0.703125 0.669922,-0.105468 a 0.50005,0.50005 0 0 0 0.208984,-0.902344 l -0.566406,-0.398438 0.34375,-0.617187 A 0.50005,0.50005 0 0 0 17.478512,32.650391 L 16.83984,32.851562 16.591793,32.205078 A 0.50005,0.50005 0 0 0 16.125,31.884766 Z m 0,1.787109 a 0.50005,0.50005 0 0 0 0.507812,0.244141 0.50005,0.50005 0 0 0 0.134766,0.601562 0.50005,0.50005 0 0 0 -0.367187,0.462891 0.50005,0.50005 0 0 0 -0.533203,0 0.50005,0.50005 0 0 0 -0.347657,-0.476563 0.50005,0.50005 0 0 0 0.111328,-0.59375 0.50005,0.50005 0 0 0 0.494141,-0.238281 z"
     id="path94655" />
  <path
     style="color:#000000;fill:#ffffff;stroke-linecap:round;stroke-linejoin:round;-inkscape-stroke:none"
     d="m 15.373,50.723 -1.123,-0.176 0.938,-0.658 -0.567,-1.011 1.087,0.341 0.417,-1.084 0.417,1.084 1.087,-0.341 -0.566,1.011 0.937,0.658 -1.123,0.176 0.082,1.162 -0.834,-0.791 -0.834,0.791 z"
     id="path94676" />
  <path
     style="color:#000000;fill:#ffffff;stroke-linecap:round;stroke-linejoin:round;-inkscape-stroke:none"
     d="m 16.125,47.634766 a 0.50005,0.50005 0 0 0 -0.466797,0.320312 l -0.248047,0.646484 -0.638672,-0.201171 a 0.50005,0.50005 0 0 0 -0.585937,0.722656 l 0.345703,0.617187 -0.568359,0.396485 a 0.50005,0.50005 0 0 0 0.208984,0.904297 l 0.669922,0.105468 -0.04883,0.703125 a 0.50005,0.50005 0 0 0 0.841797,0.398438 l 0.490234,-0.464844 0.490234,0.464844 a 0.50005,0.50005 0 0 0 0.841797,-0.398438 l -0.04883,-0.703125 0.669922,-0.105468 a 0.50005,0.50005 0 0 0 0.208984,-0.902344 l -0.566406,-0.398438 0.34375,-0.617187 A 0.50005,0.50005 0 0 0 17.478512,48.400391 L 16.83984,48.601562 16.591793,47.955078 A 0.50005,0.50005 0 0 0 16.125,47.634766 Z m 0,1.787109 a 0.50005,0.50005 0 0 0 0.507812,0.244141 0.50005,0.50005 0 0 0 0.134766,0.601562 0.50005,0.50005 0 0 0 -0.367187,0.462891 0.50005,0.50005 0 0 0 -0.533203,0 0.50005,0.50005 0 0 0 -0.347657,-0.476563 0.50005,0.50005 0 0 0 0.111328,-0.59375 0.50005,0.50005 0 0 0 0.494141,-0.238281 z"
     id="path94679" />
  <path
     style="color:#000000;fill:#5c9e31;stroke-linecap:round;stroke-linejoin:round;-inkscape-stroke:none"
     d="m 31.6167,33.9578 a 3.9219,3.9219 0 0 1 1.3637,0.618 3.7837,3.7837 0 0 0 4.1357,0.1622 7.3908,7.3908 0 0 0 1.383,-1.2213 l 1.3647,-1.4247 a 1.767,1.767 0 0 0 1.2557,0.0939 5.833,5.833 0 0 0 0.6047,3.0157 7.2091,7.2091 0 0 0 -2.5037,2.7337 10.1762,10.1762 0 0 0 -0.4691,2.74 2.3962,2.3962 0 0 1 -0.2922,1.0169 0.9378,0.9378 0 0 1 -0.8912,0.47 c -0.6224,-0.1 -0.8053,-0.9185 -0.7177,-1.5428 0.0876,-0.6243 0.2827,-1.3239 -0.0822,-1.838 A 2.008,2.008 0 0 0 35.5136,38.1475 L 32.757,37.5117 c -0.644,-0.1485 -1.4613,-0.2346 -1.8317,0.3128 a 0.55,0.55 0 0 1 -0.1781,0.2081 c -0.2479,0.1248 -0.4224,-0.2919 -0.3351,-0.5554 a 4.2479,4.2479 0 0 1 1.0534,-1.3153 c 0.3756,-0.4246 0.6276,-1.1023 0.26,-1.5345 -0.4614,-0.5437 -0.3861,-0.6999 -0.1088,-0.6696 z"
     id="path94646" />
  <path
     style="color:#000000;fill:#5c9e31;stroke-linecap:round;stroke-linejoin:round;-inkscape-stroke:none"
     d="m 40.076172,31.638672 a 0.50005,0.50005 0 0 0 -0.574219,0.107422 l -1.363281,1.423828 a 0.50005,0.50005 0 0 0 -0.01563,0.01563 c -0.376292,0.427083 -0.805984,0.803136 -1.275391,1.125 -1.117691,0.663575 -2.517988,0.610905 -3.578125,-0.142578 -0.463014,-0.32884 -0.984606,-0.565895 -1.537109,-0.697266 a 0.50005,0.50005 0 0 0 -0.06055,-0.0098 c -0.117866,-0.01288 -0.254052,-0.0276 -0.439453,0.0625 -0.185401,0.0901 -0.345827,0.378574 -0.337891,0.574219 0.01587,0.39129 0.194552,0.553424 0.449219,0.853516 0.06371,0.0749 0.08294,0.161259 0.04297,0.333984 -0.03998,0.172726 -0.157822,0.389937 -0.294922,0.544922 l 0.05273,-0.05273 c -0.486694,0.406492 -0.887386,0.906961 -1.177734,1.470703 a 0.50005,0.50005 0 0 0 -0.0293,0.07227 c -0.09968,0.300853 -0.05676,0.56264 0.07422,0.8125 0.06549,0.124931 0.161709,0.257076 0.33789,0.347657 0.176182,0.09058 0.440211,0.09009 0.623047,-0.002 a 0.50005,0.50005 0 0 0 0.06055,-0.03711 c 0.145009,-0.101623 0.263786,-0.237522 0.341797,-0.396484 l -0.03516,0.06055 c 0.08272,-0.122255 0.19981,-0.178543 0.441406,-0.199219 0.241596,-0.02068 0.565792,0.0232 0.863281,0.0918 l 2.75586,0.636719 a 0.50005,0.50005 0 0 0 0.05859,0.0098 c 0.349296,0.03869 0.666244,0.209006 0.910157,0.460938 0.083,0.131472 0.120163,0.28877 0.109375,0.53125 -0.0115,0.258578 -0.07572,0.57678 -0.123047,0.914062 -0.05463,0.389348 -0.03144,0.814901 0.121093,1.214844 0.152539,0.399943 0.497136,0.807948 1.011719,0.890625 a 0.50005,0.50005 0 0 0 0.03906,0.0039 c 0.555576,0.04554 1.089031,-0.236502 1.365234,-0.720703 a 0.50005,0.50005 0 0 0 0.0039,-0.0059 c 0.207855,-0.37818 0.328871,-0.799514 0.353542,-1.230396 a 0.50005,0.50005 0 0 0 0.002,-0.01172 c 0.0282,-0.866178 0.178819,-1.723219 0.435547,-2.550781 0.541411,-1.023097 1.331325,-1.893448 2.306641,-2.517578 a 0.50005,0.50005 0 0 0 0.177734,-0.646485 C 41.744266,34.123486 41.553481,33.172705 41.619188,32.220702 A 0.50005,0.50005 0 0 0 40.976609,31.70703 c -0.298338,0.08892 -0.618595,0.06395 -0.90039,-0.06836 z m 0.01367,0.939453 c 0.207679,0.0507 0.413705,0.05597 0.626953,0.04687 0.0069,0.819139 0.160933,1.62069 0.476562,2.376953 -1.001619,0.706049 -1.846979,1.612115 -2.416015,2.701172 a 0.50005,0.50005 0 0 0 -0.0332,0.08203 c -0.294772,0.931184 -0.460405,1.896839 -0.492188,2.873047 v -0.01172 c -0.01607,0.280679 -0.09372,0.554108 -0.228516,0.800782 -0.08046,0.138979 -0.231646,0.207994 -0.390625,0.205078 -0.09594,-0.02047 -0.154353,-0.06311 -0.222656,-0.242188 -0.07261,-0.190382 -0.09742,-0.485751 -0.06445,-0.720703 0.04027,-0.287017 0.116092,-0.631992 0.132813,-1.007812 0.01672,-0.375821 -0.03398,-0.810809 -0.302735,-1.189454 a 0.50005,0.50005 0 0 0 -0.04102,-0.05078 c -0.40977,-0.443973 -0.965907,-0.724499 -1.566407,-0.791015 l 0.05664,0.0098 -2.755859,-0.634765 c -0.34651,-0.0799 -0.753175,-0.153187 -1.173829,-0.117188 -0.124995,0.0107 -0.223137,0.151394 -0.351562,0.189453 0.149896,-0.18349 0.258647,-0.400092 0.441406,-0.552734 a 0.50005,0.50005 0 0 0 0.05469,-0.05078 c 0.2385,-0.269615 0.433461,-0.604052 0.521484,-0.984375 0.05455,-0.235679 -0.08236,-0.491899 -0.158203,-0.748047 0.161027,0.07973 0.341127,0.118144 0.488281,0.222656 v -0.002 c 1.384894,0.984301 3.223912,1.056409 4.681641,0.183594 a 0.50005,0.50005 0 0 0 0.02539,-0.01563 c 0.538619,-0.367099 1.028697,-0.799293 1.460938,-1.28711 l 0.01172,-0.01172 z"
     id="path94649" />
  <path
     style="color:#000000;fill:#f1b31c;stroke-linecap:round;stroke-linejoin:round;-inkscape-stroke:none"
     d="m 62.140625,25.339844 -13,4 a 1,1 0 0 0 -0.662109,1.25 1,1 0 0 0 1.25,0.662109 l 13,-4 a 1,1 0 0 0 0.662109,-1.25 1,1 0 0 0 -1.25,-0.662109 z"
     id="path94691" />
  <path
     style="color:#000000;fill:#f1b31c;stroke-linecap:round;stroke-linejoin:round"
     d="m 55.099609,23.699219 a 1,1 0 0 0 -1.40039,0.201172 1,1 0 0 0 0.201172,1.40039 l 4,3 a 1,1 0 0 0 1.40039,-0.201172 1,1 0 0 0 -0.201172,-1.40039 z"
     id="path94694" />
  <path
     style="color:#000000;fill:#f1b31c;stroke-linecap:round;stroke-linejoin:round"
     d="m 58.042969,20.611328 a 1,1 0 0 0 -0.431641,1.345703 l 1.140625,2.220703 -1.179687,2.951172 a 1,1 0 0 0 0.55664,1.298828 1,1 0 0 0 1.298828,-0.55664 l 1.351563,-3.375 a 1.0001,1.0001 0 0 0 -0.03906,-0.828125 l -1.351562,-2.625 a 1,1 0 0 0 -1.345703,-0.431641 z"
     id="path94697" />
  <path
     style="color:#000000;fill:#000000;stroke-linecap:round;stroke-linejoin:round"
     d="m 5,16 a 1.0001,1.0001 0 0 0 -1,1 v 38 a 1.0001,1.0001 0 0 0 1,1 h 62 a 1.0001,1.0001 0 0 0 1,-1 V 17 a 1.0001,1.0001 0 0 0 -1,-1 z m 1,2 H 66 V 54 H 6 Z"
     id="path94700" />
</svg>
