<?xml version="1.0" encoding="UTF-8" standalone="no"?>
<svg
   id="emoji"
   viewBox="0 0 72 72"
   version="1.1"
   sodipodi:docname="Cocos Islands.svg"
   inkscape:version="1.2 (dc2aeda, 2022-05-15)"
   xmlns:inkscape="http://www.inkscape.org/namespaces/inkscape"
   xmlns:sodipodi="http://sodipodi.sourceforge.net/DTD/sodipodi-0.dtd"
   xmlns="http://www.w3.org/2000/svg"
   xmlns:svg="http://www.w3.org/2000/svg">
  <defs
     id="defs94944" />
  <sodipodi:namedview
     id="namedview94942"
     pagecolor="#ffffff"
     bordercolor="#000000"
     borderopacity="0.25"
     inkscape:showpageshadow="2"
     inkscape:pageopacity="0.0"
     inkscape:pagecheckerboard="0"
     inkscape:deskcolor="#d1d1d1"
     showgrid="false"
     inkscape:zoom="3.2777778"
     inkscape:cx="-13.271186"
     inkscape:cy="36"
     inkscape:window-width="1309"
     inkscape:window-height="456"
     inkscape:window-x="0"
     inkscape:window-y="25"
     inkscape:window-maximized="0"
     inkscape:current-layer="emoji" />
  <path
     id="path95194"
     style="fill:#5c9e31"
     d="M 5,17 H 67 V 55 H 5 Z" />
  <path
     style="color:#000000;fill:#fcea2b;stroke-linecap:round;stroke-linejoin:round"
     d="M 54.087,39.354 51.66,37.5 h 3 l -2.427,1.854 0.927,-3 z"
     id="path95167" />
  <path
     style="color:#000000;fill:#fcea2b;stroke-linecap:round;stroke-linejoin:round"
     d="m 53.160156,35.853516 a 0.50005,0.50005 0 0 0 -0.478515,0.353515 L 52.4375,37 h -0.777344 a 0.50005,0.50005 0 0 0 -0.302734,0.896484 l 0.65039,0.496094 -0.251953,0.814453 a 0.50005,0.50005 0 0 0 0.78125,0.544922 l 0.623047,-0.476562 0.623047,0.476562 a 0.50005,0.50005 0 0 0 0.78125,-0.544922 L 54.3125,38.392578 54.962891,37.896484 A 0.50005,0.50005 0 0 0 54.660156,37 h -0.777344 l -0.24414,-0.792969 a 0.50005,0.50005 0 0 0 -0.478516,-0.353515 z"
     id="path95164" />
  <path
     style="color:#000000;fill:#fcea2b;stroke-linecap:round;stroke-linejoin:round"
     d="M 41.498,35.336 40,35.101 l 1.25,-0.878 -0.755,-1.347 1.449,0.455 0.556,-1.446 0.556,1.446 1.449,-0.455 -0.755,1.347 1.25,0.878 -1.498,0.235 0.111,1.549 -1.113,-1.054 -1.113,1.054 z"
     id="path95173" />
  <path
     style="color:#000000;fill:#fcea2b;stroke-linecap:round;stroke-linejoin:round"
     d="m 42.5,31.384766 a 0.50005,0.50005 0 0 0 -0.466797,0.320312 l -0.386719,1.007813 -1.001953,-0.314454 a 0.50005,0.50005 0 0 0 -0.585937,0.722657 l 0.535156,0.953125 -0.880859,0.617187 a 0.50005,0.50005 0 0 0 0.208984,0.904297 l 1.044922,0.164063 -0.07813,1.089843 a 0.50005,0.50005 0 0 0 0.841797,0.398438 L 42.5,36.519531 l 0.769531,0.728516 a 0.50005,0.50005 0 0 0 0.841797,-0.398438 l -0.07813,-1.091797 1.044922,-0.162109 a 0.50005,0.50005 0 0 0 0.208984,-0.904297 l -0.880859,-0.617187 0.535156,-0.953125 a 0.50005,0.50005 0 0 0 -0.585937,-0.722657 l -1.001953,0.314454 -0.386719,-1.007813 A 0.50005,0.50005 0 0 0 42.5,31.384766 Z m 0,1.892578 0.08984,0.232422 a 0.50005,0.50005 0 0 0 0.615234,0.298828 l 0.248047,-0.07813 -0.138672,0.248047 a 0.50005,0.50005 0 0 0 0.148438,0.654296 l 0.236328,0.166016 -0.275391,0.04297 a 0.50005,0.50005 0 0 0 -0.419922,0.529297 l 0.01953,0.267578 -0.179687,-0.169922 a 0.50005,0.50005 0 0 0 -0.6875,0 l -0.179688,0.169922 0.01953,-0.267578 a 0.50005,0.50005 0 0 0 -0.419922,-0.529297 l -0.275391,-0.04297 0.236328,-0.166016 a 0.50005,0.50005 0 0 0 0.148438,-0.654296 l -0.138672,-0.248047 0.248047,0.07813 a 0.50005,0.50005 0 0 0 0.615234,-0.298828 z"
     id="path95170" />
  <path
     style="color:#000000;fill:#fcea2b;stroke-linecap:round;stroke-linejoin:round"
     d="M 56.498,32.336 55,32.101 l 1.25,-0.878 -0.755,-1.347 1.449,0.455 0.556,-1.446 0.556,1.446 1.449,-0.455 -0.755,1.347 1.25,0.878 -1.498,0.235 0.111,1.549 -1.113,-1.054 -1.113,1.054 z"
     id="path95179" />
  <path
     style="color:#000000;fill:#fcea2b;stroke-linecap:round;stroke-linejoin:round"
     d="m 57.5,28.384766 a 0.50005,0.50005 0 0 0 -0.466797,0.320312 l -0.386719,1.007813 -1.001953,-0.314454 a 0.50005,0.50005 0 0 0 -0.585937,0.722657 l 0.535156,0.953125 -0.880859,0.617187 a 0.50005,0.50005 0 0 0 0.208984,0.904297 l 1.044922,0.164063 -0.07813,1.089843 a 0.50005,0.50005 0 0 0 0.841797,0.398438 L 57.5,33.519531 l 0.769531,0.728516 a 0.50005,0.50005 0 0 0 0.841797,-0.398438 l -0.07813,-1.091797 1.044922,-0.162109 a 0.50005,0.50005 0 0 0 0.208984,-0.904297 l -0.880859,-0.617187 0.535156,-0.953125 a 0.50005,0.50005 0 0 0 -0.585937,-0.722657 l -1.001953,0.314454 -0.386719,-1.007813 A 0.50005,0.50005 0 0 0 57.5,28.384766 Z m 0,1.892578 0.08984,0.232422 a 0.50005,0.50005 0 0 0 0.615234,0.298828 l 0.248047,-0.07813 -0.138672,0.248047 a 0.50005,0.50005 0 0 0 0.148438,0.654296 l 0.236328,0.166016 -0.275391,0.04297 a 0.50005,0.50005 0 0 0 -0.419922,0.529297 l 0.01953,0.267578 -0.179687,-0.169922 a 0.50005,0.50005 0 0 0 -0.6875,0 l -0.179688,0.169922 0.01953,-0.267578 a 0.50005,0.50005 0 0 0 -0.419922,-0.529297 l -0.275391,-0.04297 0.236328,-0.166016 a 0.50005,0.50005 0 0 0 0.148438,-0.654296 l -0.138672,-0.248047 0.248047,0.07813 a 0.50005,0.50005 0 0 0 0.615234,-0.298828 z"
     id="path95176" />
  <path
     style="color:#000000;fill:#fcea2b;stroke-linecap:round;stroke-linejoin:round"
     d="M 48.498,26.336 47,26.101 l 1.25,-0.878 -0.755,-1.347 1.449,0.455 0.556,-1.446 0.556,1.446 1.449,-0.455 -0.755,1.347 1.25,0.878 -1.498,0.235 0.111,1.549 -1.113,-1.054 -1.113,1.054 z"
     id="path95185" />
  <path
     style="color:#000000;fill:#fcea2b;stroke-linecap:round;stroke-linejoin:round"
     d="m 49.5,22.384766 a 0.50005,0.50005 0 0 0 -0.466797,0.320312 l -0.386719,1.007813 -1.001953,-0.314454 a 0.50005,0.50005 0 0 0 -0.585937,0.722657 l 0.535156,0.953125 -0.880859,0.617187 a 0.50005,0.50005 0 0 0 0.208984,0.904297 l 1.044922,0.164063 -0.07813,1.089843 a 0.50005,0.50005 0 0 0 0.841797,0.398438 L 49.5,27.519531 l 0.769531,0.728516 a 0.50005,0.50005 0 0 0 0.841797,-0.398438 l -0.07813,-1.091797 1.044922,-0.162109 a 0.50005,0.50005 0 0 0 0.208984,-0.904297 l -0.880859,-0.617187 0.535156,-0.953125 a 0.50005,0.50005 0 0 0 -0.585937,-0.722657 l -1.001953,0.314454 -0.386719,-1.007813 A 0.50005,0.50005 0 0 0 49.5,22.384766 Z m 0,1.892578 0.08984,0.232422 a 0.50005,0.50005 0 0 0 0.615234,0.298828 l 0.248047,-0.07813 -0.138672,0.248047 a 0.50005,0.50005 0 0 0 0.148438,0.654296 l 0.236328,0.166016 -0.275391,0.04297 a 0.50005,0.50005 0 0 0 -0.419922,0.529297 l 0.01953,0.267578 -0.179687,-0.169922 a 0.50005,0.50005 0 0 0 -0.6875,0 l -0.179688,0.169922 0.01953,-0.267578 a 0.50005,0.50005 0 0 0 -0.419922,-0.529297 l -0.275391,-0.04297 0.236328,-0.166016 a 0.50005,0.50005 0 0 0 0.148438,-0.654296 l -0.138672,-0.248047 0.248047,0.07813 a 0.50005,0.50005 0 0 0 0.615234,-0.298828 z"
     id="path95182" />
  <path
     style="color:#000000;fill:#fcea2b;stroke-linecap:round;stroke-linejoin:round"
     d="M 48.498,47.336 47,47.101 l 1.25,-0.878 -0.755,-1.347 1.449,0.455 0.556,-1.446 0.556,1.446 1.449,-0.455 -0.755,1.347 1.25,0.878 -1.498,0.235 0.111,1.549 -1.113,-1.054 -1.113,1.054 z"
     id="path95191" />
  <path
     style="color:#000000;fill:#fcea2b;stroke-linecap:round;stroke-linejoin:round"
     d="m 49.5,43.384766 a 0.50005,0.50005 0 0 0 -0.466797,0.320312 l -0.386719,1.007813 -1.001953,-0.314454 a 0.50005,0.50005 0 0 0 -0.585937,0.722657 l 0.535156,0.953125 -0.880859,0.617187 a 0.50005,0.50005 0 0 0 0.208984,0.904297 l 1.044922,0.164063 -0.07813,1.089843 a 0.50005,0.50005 0 0 0 0.841797,0.398438 L 49.5,48.519531 l 0.769531,0.728516 a 0.50005,0.50005 0 0 0 0.841797,-0.398438 l -0.07813,-1.091797 1.044922,-0.162109 a 0.50005,0.50005 0 0 0 0.208984,-0.904297 l -0.880859,-0.617187 0.535156,-0.953125 a 0.50005,0.50005 0 0 0 -0.585937,-0.722657 l -1.001953,0.314454 -0.386719,-1.007813 A 0.50005,0.50005 0 0 0 49.5,43.384766 Z m 0,1.892578 0.08984,0.232422 a 0.50005,0.50005 0 0 0 0.615234,0.298828 l 0.248047,-0.07813 -0.138672,0.248047 a 0.50005,0.50005 0 0 0 0.148438,0.654296 l 0.236328,0.166016 -0.275391,0.04297 a 0.50005,0.50005 0 0 0 -0.419922,0.529297 l 0.01953,0.267578 -0.179687,-0.169922 a 0.50005,0.50005 0 0 0 -0.6875,0 l -0.179688,0.169922 0.01953,-0.267578 a 0.50005,0.50005 0 0 0 -0.419922,-0.529297 l -0.275391,-0.04297 0.236328,-0.166016 a 0.50005,0.50005 0 0 0 0.148438,-0.654296 l -0.138672,-0.248047 0.248047,0.07813 a 0.50005,0.50005 0 0 0 0.615234,-0.298828 z"
     id="path95188" />
  <path
     id="path95197"
     style="fill:#fcea2b"
     d="m 17,25 a 4,4 0 0 1 -4,4 4,4 0 0 1 -4,-4 4,4 0 0 1 4,-4 4,4 0 0 1 4,4 z" />
  <path
     style="color:#000000;fill:#fcea2b;stroke-linecap:round;stroke-linejoin:round;-inkscape-stroke:none"
     d="M 32.98,42.5958 A 6.5958,6.5958 0 1 1 36,30.13 a 8.3947,8.3947 0 1 0 0,11.74 6.6516,6.6516 0 0 1 -3.02,0.7258 z"
     id="path95158" />
  <path
     style="color:#000000;fill:#fcea2b;stroke-linecap:round;stroke-linejoin:round;-inkscape-stroke:none"
     d="m 29.082031,27.144531 c -0.840191,0.09181 -1.663798,0.302022 -2.441406,0.619141 -3.110432,1.268473 -5.535156,4.272346 -5.535156,8.236328 0,3.963982 2.424724,6.967855 5.535156,8.236328 3.065307,1.250071 6.824001,0.805056 9.585937,-1.919922 0.04066,-0.04012 0.09064,-0.05654 0.13086,-0.09766 a 0.50005,0.50005 0 0 0 -0.583985,-0.794922 c -0.86499,0.44103 -1.822032,0.671675 -2.792968,0.671875 -3.954555,-0.0072 -6.843215,-3.687882 -5.91211,-7.53125 0.931106,-3.843368 5.183716,-5.793652 8.703125,-3.990234 a 0.50005,0.50005 0 0 0 0.585938,-0.792969 c -0.03954,-0.04043 -0.08893,-0.05624 -0.128906,-0.0957 -2.061598,-2.035225 -4.673852,-2.811211 -7.146485,-2.541015 z m 0.103516,0.990235 c 1.543271,-0.174223 3.137741,0.12792 4.597656,0.945312 -3.421118,-0.382553 -6.81877,1.664103 -7.6875,5.25 -1.07787,4.449175 2.304925,8.757237 6.882813,8.765625 a 0.50005,0.50005 0 0 0 0.002,0 c 0.291354,0 0.55024,-0.165884 0.83789,-0.201172 -2.172291,1.231693 -4.658415,1.2897 -6.800781,0.416016 C 24.245637,42.180114 22.105469,39.559278 22.105469,36 c 0,-3.559278 2.140168,-6.180114 4.912109,-7.310547 0.692985,-0.282608 1.423958,-0.470694 2.167969,-0.554687 z"
     id="path95155" />
  <path
     style="color:#000000;fill:#000000;stroke-linecap:round;stroke-linejoin:round;-inkscape-stroke:none"
     d="m 5,16 a 1.0001,1.0001 0 0 0 -1,1 v 38 a 1.0001,1.0001 0 0 0 1,1 h 62 a 1.0001,1.0001 0 0 0 1,-1 V 17 a 1.0001,1.0001 0 0 0 -1,-1 z m 1,2 H 66 V 54 H 6 Z"
     id="path95161" />
</svg>
