<?xml version="1.0" encoding="UTF-8" standalone="no"?>
<svg
   id="emoji"
   viewBox="0 0 72 72"
   version="1.1"
   sodipodi:docname="Congo Kinshasa.svg"
   inkscape:version="1.2 (dc2aeda, 2022-05-15)"
   xmlns:inkscape="http://www.inkscape.org/namespaces/inkscape"
   xmlns:sodipodi="http://sodipodi.sourceforge.net/DTD/sodipodi-0.dtd"
   xmlns="http://www.w3.org/2000/svg"
   xmlns:svg="http://www.w3.org/2000/svg">
  <defs
     id="defs95895" />
  <sodipodi:namedview
     id="namedview95893"
     pagecolor="#ffffff"
     bordercolor="#000000"
     borderopacity="0.25"
     inkscape:showpageshadow="2"
     inkscape:pageopacity="0.0"
     inkscape:pagecheckerboard="0"
     inkscape:deskcolor="#d1d1d1"
     showgrid="false"
     inkscape:zoom="3.2777778"
     inkscape:cx="-13.271186"
     inkscape:cy="36"
     inkscape:window-width="1309"
     inkscape:window-height="456"
     inkscape:window-x="0"
     inkscape:window-y="25"
     inkscape:window-maximized="0"
     inkscape:current-layer="emoji" />
  <path
     id="path96068"
     style="fill:#61b2e4"
     d="M 5,17 H 67 V 55 H 5 Z" />
  <path
     style="color:#000000;fill:#d22f27;stroke-width:2;stroke-linecap:round;stroke-linejoin:round;-inkscape-stroke:none"
     d="M 59,17 5,48 v 7 h 8 L 67,24 v -7 z"
     id="path96056" />
  <path
     style="color:#000000;fill:#f1b31c;stroke-linecap:round;stroke-linejoin:round;-inkscape-stroke:none"
     d="m 59,16 a 1.0001,1.0001 0 0 0 -0.498047,0.132812 l -53.9999999,31 A 1.0001,1.0001 0 0 0 4,48 v 7 a 1.0001,1.0001 0 0 0 1,1 h 8 a 1.0001,1.0001 0 0 0 0.498047,-0.132813 l 54,-31 A 1.0001,1.0001 0 0 0 68,24 v -7 a 1.0001,1.0001 0 0 0 -1,-1 z m 0.267578,2 H 66 v 5.421875 L 12.732422,54 H 6 v -5.421875 z"
     id="path96053" />
  <path
     style="color:#000000;fill:#f1b31c;stroke-linecap:round;stroke-linejoin:round"
     d="m 16.674,30.476 -5.564,-4.154 7,-0.172 -5.762,4.433 2.323,-7 z"
     id="path96062" />
  <path
     style="color:#000000;fill:#f1b31c;stroke-linecap:round;stroke-linejoin:round"
     d="m 14.679688,23.083984 a 0.50005,0.50005 0 0 0 -0.482422,0.341797 l -0.777344,2.339844 -2.322266,0.05664 a 0.50005,0.50005 0 0 0 -0.287109,0.90039 l 1.835937,1.371094 -0.773437,2.332031 a 0.50005,0.50005 0 0 0 0.779297,0.552735 l 1.90039,-1.460938 1.822266,1.359375 a 0.50005,0.50005 0 0 0 0.779297,-0.541016 l -0.669922,-2.304687 1.929687,-1.484375 A 0.50005,0.50005 0 0 0 18.097656,25.65039 l -2.289062,0.05664 -0.658203,-2.263672 a 0.50005,0.50005 0 0 0 -0.470703,-0.359374 z m -0.03906,2.181641 0.134766,0.466797 -0.292969,0.0059 z M 16.589844,26.6875 16.185547,27 16.097656,26.699219 Z m -1.525391,0.03711 0.269531,0.931641 -0.789062,0.607422 -0.720703,-0.539063 0.324219,-0.976562 z m -1.978515,0.04883 -0.107422,0.320313 -0.41211,-0.306641 z m 2.546875,1.91211 0.144531,0.498047 L 15.375,28.884766 Z m -2.140625,0.03906 0.228515,0.171875 -0.384765,0.294922 z"
     id="path96059" />
  <path
     style="color:#000000;fill:#000000;stroke-linecap:round;stroke-linejoin:round"
     d="m 5,16 a 1.0001,1.0001 0 0 0 -1,1 v 38 a 1.0001,1.0001 0 0 0 1,1 h 62 a 1.0001,1.0001 0 0 0 1,-1 V 17 a 1.0001,1.0001 0 0 0 -1,-1 z m 1,2 H 66 V 54 H 6 Z"
     id="path96065" />
</svg>
