<?xml version="1.0" encoding="UTF-8" standalone="no"?>
<svg
   id="emoji"
   viewBox="0 0 72 72"
   version="1.1"
   sodipodi:docname="Cyprus.svg"
   inkscape:version="1.2 (dc2aeda, 2022-05-15)"
   xmlns:inkscape="http://www.inkscape.org/namespaces/inkscape"
   xmlns:sodipodi="http://sodipodi.sourceforge.net/DTD/sodipodi-0.dtd"
   xmlns="http://www.w3.org/2000/svg"
   xmlns:svg="http://www.w3.org/2000/svg">
  <defs
     id="defs98018" />
  <sodipodi:namedview
     id="namedview98016"
     pagecolor="#ffffff"
     bordercolor="#000000"
     borderopacity="0.25"
     inkscape:showpageshadow="2"
     inkscape:pageopacity="0.0"
     inkscape:pagecheckerboard="0"
     inkscape:deskcolor="#d1d1d1"
     showgrid="false"
     inkscape:zoom="3.2777778"
     inkscape:cx="-13.271186"
     inkscape:cy="36"
     inkscape:window-width="1309"
     inkscape:window-height="456"
     inkscape:window-x="0"
     inkscape:window-y="25"
     inkscape:window-maximized="0"
     inkscape:current-layer="emoji" />
  <path
     id="path98195"
     style="fill:#ffffff"
     d="M 5,17 H 67 V 55 H 5 Z" />
  <path
     style="color:#000000;fill:#e27022;stroke-linecap:round;stroke-linejoin:round"
     d="m 53.3956,25.8867 a 22.4569,22.4569 0 0 0 -3.912,1.7784 1.2328,1.2328 0 0 1 -1.08,0.2357 8.4457,8.4457 0 0 1 -2.772,1.677 c -0.5144,0.188 -1.0457,0.3253 -1.5759,0.4624 l -1.6436,0.4247 a 15.6892,15.6892 0 0 1 -2.54,0.5091 15.6949,15.6949 0 0 1 -2.77,-0.084 l -1.9812,-0.1773 a 4.5448,4.5448 0 0 1 -2.4609,-0.7106 4.9509,4.9509 0 0 1 0.1615,2.3536 c -0.1173,0.6706 -0.511,1.4233 -1.19,1.4691 a 2.816,2.816 0 0 1 -1.23,-0.4253 2.6661,2.6661 0 0 0 -2.2932,0.1061 c -0.4684,0.4485 -0.66,1.1472 -1.1813,1.533 -0.6371,0.4716 -1.1327,0.1157 -1.7391,-0.107 -0.9379,-0.3444 -0.4842,0.42 -0.2224,1.0519 a 2.6344,2.6344 0 0 1 0.1524,1.4925 2.1325,2.1325 0 0 1 1.1052,1.9224 26.0579,26.0579 0 0 0 2.93,1.3147 2.6293,2.6293 0 0 0 0.9883,0.225 c 0.516,-0.0153 0.9953,-0.3174 1.5114,-0.3086 a 1.3283,1.3283 0 0 1 1.2364,1.4653 3.4945,3.4945 0 0 1 1.24,-0.0275 c -0.546,-0.35 -0.327,-1.2705 0.2195,-1.62 a 3.8876,3.8876 0 0 1 1.8876,-0.365 8.0513,8.0513 0 0 0 3.78,-1.2291 1.4765,1.4765 0 0 1 1.16,-0.3631 c 0.55,-0.3392 0.2986,-1.22 0.63,-1.775 0.3865,-0.6478 1.3656,-0.5691 2.0385,-0.228 a 1.159,1.159 0 0 0 0.58,0.1884 1.3224,1.3224 0 0 0 0.5192,-0.22 2.29,2.29 0 0 1 2.3387,0.11 12.3481,12.3481 0 0 0 -2.3708,-2.9752 3.5207,3.5207 0 0 1 0.1563,-1.458 1.2014,1.2014 0 0 1 1.1224,-0.8041 1.5714,1.5714 0 0 0 0.377,0.0285 c 0.2865,-0.0456 0.4344,-0.3548 0.5849,-0.6028 0.8345,-1.3751 2.8112,-1.5874 3.86,-2.8067 a 4.6449,4.6449 0 0 1 0.534,-0.6082 4.9435,4.9435 0 0 1 1.1279,-0.5264 1.0671,1.0671 0 0 0 0.7212,-0.9259 z"
     id="path98189" />
  <path
     style="color:#000000;fill:#e27022;stroke-linecap:round;stroke-linejoin:round"
     d="m 53.232422,25.414062 c -1.388081,0.47677 -2.726194,1.08592 -3.998047,1.81836 a 0.50005,0.50005 0 0 0 -0.06445,0.04297 c -0.180233,0.14568 -0.418038,0.197967 -0.642578,0.140625 a 0.50005,0.50005 0 0 0 -0.458985,0.115234 c -0.75934,0.689277 -1.646403,1.223487 -2.609375,1.576172 -0.483367,0.176531 -0.999672,0.312267 -1.529297,0.449219 l -1.642578,0.423828 a 0.50005,0.50005 0 0 0 -0.01367,0.0039 c -0.800885,0.2307 -1.619424,0.393819 -2.447265,0.490234 -0.888745,0.05065 -1.780119,0.0234 -2.664063,-0.08203 a 0.50005,0.50005 0 0 0 -0.01563,0 L 35.166016,30.21484 a 0.50005,0.50005 0 0 0 -0.04687,-0.002 c -0.775628,0.0035 -1.537053,-0.216361 -2.191407,-0.632813 a 0.50005,0.50005 0 0 0 -0.74414,0.574219 c 0.218189,0.683314 0.267339,1.408521 0.144531,2.115234 -0.04776,0.273053 -0.159017,0.569482 -0.298828,0.765625 -0.131083,0.183899 -0.255632,0.254415 -0.404297,0.273438 -0.338265,-0.04281 -0.66688,-0.14889 -0.955078,-0.332032 a 0.50005,0.50005 0 0 0 -0.07422,-0.03711 c -0.87995,-0.370836 -1.880707,-0.325504 -2.722656,0.125 a 0.50005,0.50005 0 0 0 -0.111328,0.08008 c -0.303282,0.290397 -0.483972,0.618152 -0.650391,0.888672 -0.166419,0.27052 -0.314243,0.479051 -0.482422,0.603516 -0.220374,0.163127 -0.301213,0.156676 -0.482422,0.11914 -0.181208,-0.03753 -0.444378,-0.1671 -0.787109,-0.292968 -0.27841,-0.102234 -0.500485,-0.190578 -0.820313,-0.06641 -0.159913,0.06209 -0.31397,0.2222 -0.371093,0.375 -0.05712,0.152801 -0.05047,0.277891 -0.03711,0.382813 0.05345,0.419687 0.253952,0.734028 0.373047,1.021484 0.156886,0.382135 0.199843,0.801117 0.123047,1.207031 a 0.50005,0.50005 0 0 0 0.25,0.53125 c 0.53582,0.294306 0.860979,0.861522 0.845703,1.472657 a 0.50005,0.50005 0 0 0 0.267578,0.455078 c 0.95865,0.503277 1.94808,0.945531 2.960938,1.328125 0.370995,0.164703 0.77005,0.255449 1.175781,0.267578 a 0.50005,0.50005 0 0 0 0.0293,0 c 0.694299,-0.02059 1.156958,-0.303826 1.472656,-0.304688 0.471794,0.03522 0.813577,0.438259 0.763672,0.910157 a 0.50005,0.50005 0 0 0 0.595703,0.541015 c 0.349958,-0.07115 0.709732,-0.07901 1.0625,-0.02344 a 0.50005,0.50005 0 0 0 0.347656,-0.914063 c -0.07977,-0.05113 -0.107306,-0.124305 -0.07617,-0.304687 0.02956,-0.171266 0.154935,-0.358018 0.279296,-0.449219 0.503228,-0.230141 1.052659,-0.343118 1.605469,-0.310547 a 0.50005,0.50005 0 0 0 0.0625,0 c 1.426296,-0.09278 2.805573,-0.542819 4.013672,-1.30664 a 0.50005,0.50005 0 0 0 0.06641,-0.04883 c 0.209601,-0.186664 0.487003,-0.274076 0.765625,-0.240234 a 0.50005,0.50005 0 0 0 0.324219,-0.07031 c 0.468551,-0.288968 0.577252,-0.799768 0.628906,-1.16211 0.05165,-0.362342 0.09049,-0.653448 0.167969,-0.783203 0.0935,-0.156713 0.239056,-0.227034 0.505859,-0.240234 0.266804,-0.0132 0.613904,0.06978 0.876954,0.203125 l -0.04883,-0.0293 c 0.247681,0.162376 0.534256,0.257316 0.830079,0.271484 a 0.50005,0.50005 0 0 0 0.117187,-0.0098 c 0.257517,-0.04844 0.50092,-0.151413 0.714844,-0.302735 l -0.05273,0.0332 c 0.579858,-0.308974 1.279829,-0.276099 1.828125,0.08594 a 0.50005,0.50005 0 0 0 0.708985,-0.664063 c -0.611723,-1.072967 -1.404512,-2.026307 -2.294922,-2.880859 -0.02652,-0.384695 1.33e-4,-0.773234 0.119141,-1.140625 2.1e-5,-6.6e-5 0.0019,6.6e-5 0.002,0 0.09873,-0.279616 0.355681,-0.465929 0.652343,-0.46875 l -0.101562,-0.0098 c 0.163536,0.03248 0.329534,0.04463 0.496094,0.03711 a 0.50005,0.50005 0 0 0 0.05664,-0.0059 c 0.303308,-0.04828 0.521153,-0.238593 0.654297,-0.404297 0.133144,-0.165703 0.214173,-0.324327 0.279297,-0.43164 0.33233,-0.547617 0.933428,-0.905489 1.652344,-1.277344 0.718916,-0.371855 1.541889,-0.746385 2.158203,-1.462891 a 0.50005,0.50005 0 0 0 0.02539,-0.03125 c 0.13234,-0.180258 0.281805,-0.345399 0.441406,-0.501953 0.304583,-0.187428 0.628096,-0.341888 0.96875,-0.451172 a 0.50005,0.50005 0 0 0 0.0078,-0.002 c 0.591686,-0.200538 1.01094,-0.738554 1.060547,-1.361328 a 0.50005,0.50005 0 0 0 -0.662109,-0.511719 z m -2.929688,2.423829 c -0.425176,0.371853 -0.922135,0.694704 -1.53125,1.009765 -0.740257,0.382894 -1.544705,0.819003 -2.046875,1.646485 -0.08538,0.140686 -0.153069,0.261922 -0.203125,0.324218 -0.03886,0.04836 -0.03157,0.03796 -0.02539,0.03516 -0.06982,-4.1e-5 -0.140423,-0.002 -0.208985,-0.01563 a 0.50005,0.50005 0 0 0 -0.101562,-0.0098 c -0.715094,0.0068 -1.353386,0.46377 -1.589844,1.138672 a 0.50005,0.50005 0 0 0 -0.002,0.0098 c -0.175699,0.536333 -0.23771,1.104628 -0.179688,1.666016 a 0.50005,0.50005 0 0 0 0.160157,0.316406 c 0.558217,0.513109 0.95916,1.159292 1.408203,1.767578 -0.435673,0.0066 -0.875569,0.07511 -1.273438,0.28711 a 0.50005,0.50005 0 0 0 -0.05469,0.0332 c -0.07844,0.05549 -0.169367,0.0861 -0.261719,0.111328 -0.09613,-0.01346 -0.191833,-0.03634 -0.273437,-0.08984 a 0.50005,0.50005 0 0 0 -0.04883,-0.02734 c -0.409849,-0.207757 -0.889357,-0.334672 -1.376953,-0.310547 -0.487596,0.02412 -1.023407,0.237429 -1.316406,0.728515 -0.253921,0.425245 -0.255832,0.85269 -0.298828,1.154297 -0.043,0.301607 -0.08261,0.40094 -0.164063,0.451172 l 0.322266,-0.07031 c -0.563104,-0.0684 -1.129126,0.109074 -1.552734,0.486328 L 39.75,38.429687 c -1.066854,0.67452 -2.287335,1.072369 -3.546875,1.154297 h 0.0625 c -0.733393,-0.04321 -1.466443,0.09666 -2.130859,0.410157 a 0.50005,0.50005 0 0 0 -0.05469,0.03125 c -0.41556,0.265761 -0.66565,0.691742 -0.744141,1.146484 -0.02492,0.144363 0.144124,0.26376 0.166016,0.417969 -0.0954,0.002 -0.190093,-0.003 -0.285156,0.0059 -0.178289,-0.762718 -0.707994,-1.412345 -1.53125,-1.464844 a 0.50005,0.50005 0 0 0 -0.02344,-0.002 c -0.709046,-0.01209 -1.189437,0.288931 -1.519531,0.304688 -0.271162,-0.0099 -0.539025,-0.0676 -0.787109,-0.177735 a 0.50005,0.50005 0 0 0 -0.02539,-0.0098 c -0.924857,-0.34824 -1.824865,-0.761983 -2.703125,-1.214844 -0.093,-0.723518 -0.4556,-1.355226 -1.050781,-1.78125 0.04109,-0.493804 0.04134,-0.995992 -0.148438,-1.457031 -0.05314,-0.128257 -0.0647,-0.165846 -0.113281,-0.285157 0.194049,0.08283 0.374731,0.173508 0.630859,0.226563 0.377467,0.07819 0.862572,0.0155 1.279297,-0.292969 0.353121,-0.261335 0.561476,-0.597361 0.738282,-0.884765 0.156875,-0.255007 0.291802,-0.454105 0.435546,-0.611329 0.565603,-0.283675 1.223693,-0.332431 1.808594,-0.08594 l -0.07422,-0.03711 c 0.437057,0.277736 0.933953,0.448449 1.449219,0.5 a 0.50005,0.50005 0 0 0 0.08398,0.002 c 0.516528,-0.03484 0.921621,-0.349679 1.177734,-0.708985 0.256113,-0.359305 0.401165,-0.776281 0.470703,-1.173828 0.103702,-0.596765 -0.02743,-1.192778 -0.123047,-1.787109 0.624869,0.263485 1.247752,0.561712 1.931641,0.558594 l -0.04687,-0.002 1.966797,0.175782 c 0.948328,0.113114 1.903982,0.14138 2.857422,0.08594 a 0.50005,0.50005 0 0 0 0.0293,-0.002 c 0.881935,-0.102015 1.754097,-0.276489 2.607422,-0.521484 l 0.01367,-0.0039 1.63086,-0.421875 c 0.530151,-0.137087 1.076156,-0.277401 1.621093,-0.476562 1.071669,-0.392495 2.056015,-0.990766 2.904297,-1.753906 0.384471,-0.0051 0.786352,0.0086 1.091797,-0.238282 l -0.06641,0.04297 c 0.181398,-0.104464 0.386109,-0.160587 0.570312,-0.259765 z"
     id="path98186" />
  <path
     style="color:#000000;fill:#5c9e31;stroke-linecap:round;stroke-linejoin:round;-inkscape-stroke:none"
     d="m 23.394531,41.005859 a 1,1 0 0 0 -0.671875,0.365235 1,1 0 0 0 0.148438,1.40625 C 26.163936,45.436159 30.250858,46.922667 34.482422,47 A 1,1 0 0 0 35.5,46.017578 1,1 0 0 0 34.517578,45 c -3.787244,-0.06921 -7.441581,-1.397707 -10.388672,-3.777344 a 1,1 0 0 0 -0.734375,-0.216797 z"
     id="path98180" />
  <path
     style="color:#000000;fill:#5c9e31;stroke-linecap:round;stroke-linejoin:round"
     d="M 47.871094,41.222656 C 44.924017,43.60231 41.269667,44.930809 37.482422,45 A 1,1 0 0 0 36.5,46.017578 1,1 0 0 0 37.517578,47 c 4.231572,-0.07731 8.318495,-1.563818 11.611328,-4.222656 a 1,1 0 0 0 0.148438,-1.40625 1,1 0 0 0 -1.40625,-0.148438 z"
     id="path98183" />
  <path
     style="color:#000000;fill:#000000;stroke-linecap:round;stroke-linejoin:round"
     d="m 5,16 a 1.0001,1.0001 0 0 0 -1,1 v 38 a 1.0001,1.0001 0 0 0 1,1 h 62 a 1.0001,1.0001 0 0 0 1,-1 V 17 a 1.0001,1.0001 0 0 0 -1,-1 z m 1,2 H 66 V 54 H 6 Z"
     id="path98192" />
</svg>
