<?xml version="1.0" encoding="UTF-8" standalone="no"?>
<svg
   id="emoji"
   viewBox="0 0 72 72"
   version="1.1"
   sodipodi:docname="Diego Garcia.svg"
   inkscape:version="1.2 (dc2aeda, 2022-05-15)"
   xmlns:inkscape="http://www.inkscape.org/namespaces/inkscape"
   xmlns:sodipodi="http://sodipodi.sourceforge.net/DTD/sodipodi-0.dtd"
   xmlns="http://www.w3.org/2000/svg"
   xmlns:svg="http://www.w3.org/2000/svg">
  <defs
     id="defs98634" />
  <sodipodi:namedview
     id="namedview98632"
     pagecolor="#ffffff"
     bordercolor="#000000"
     borderopacity="0.25"
     inkscape:showpageshadow="2"
     inkscape:pageopacity="0.0"
     inkscape:pagecheckerboard="0"
     inkscape:deskcolor="#d1d1d1"
     showgrid="false"
     inkscape:zoom="3.2777778"
     inkscape:cx="-13.271186"
     inkscape:cy="36"
     inkscape:window-width="1309"
     inkscape:window-height="456"
     inkscape:window-x="0"
     inkscape:window-y="25"
     inkscape:window-maximized="0"
     inkscape:current-layer="emoji" />
  <path
     id="path99038"
     style="fill:#ffffff"
     d="M 5,17 H 67 V 55 H 5 Z" />
  <path
     fill="#ffffff"
     d="m 67,44 a 42.5886,42.5886 0 0 1 -6.2,1 c -1.5693,-0.0494 -4.6308,-1.0494 -6.2,-1 -1.5692,0.0494 -4.6308,1.0494 -6.2,1 -1.5692,-0.0494 -4.6307,-1.0494 -6.2,-1 -1.5693,0.0494 -4.6307,1.0494 -6.2,1 -1.5693,-0.0494 -4.6308,-1.0492 -6.2,-1 -1.5692,0.0492 -4.6308,1.0481 -6.2,1 -1.5692,-0.0481 -4.6306,-1.0415 -6.2,-1 -1.5694,0.0415 -4.63,1 -6.2,1 A 50.8361,50.8361 0 0 1 5,44 v -2 a 50.8361,50.8361 0 0 0 6.2,1 c 1.57,0 4.6305,-0.9586 6.2,-1 1.5695,-0.0414 4.6308,0.9519 6.2,1 1.5692,0.0481 4.6308,-0.9508 6.2,-1 1.5692,-0.0492 4.6307,0.9506 6.2,1 1.5693,0.0494 4.6307,-0.9506 6.2,-1 1.5693,-0.0494 4.6307,0.9506 6.2,1 1.5693,0.0494 4.6307,-0.9506 6.2,-1 1.5693,-0.0494 4.6307,0.9506 6.2,1 A 42.5886,42.5886 0 0 0 67,42 Z"
     id="path98948" />
  <path
     fill="#1e50a0"
     d="m 67,46 a 42.5886,42.5886 0 0 1 -6.2,1 c -1.5693,-0.0494 -4.6308,-1.0494 -6.2,-1 -1.5692,0.0494 -4.6308,1.0494 -6.2,1 -1.5692,-0.0494 -4.6307,-1.0494 -6.2,-1 -1.5693,0.0494 -4.6307,1.0494 -6.2,1 -1.5693,-0.0494 -4.6308,-1.0492 -6.2,-1 -1.5692,0.0492 -4.6308,1.0481 -6.2,1 -1.5692,-0.0481 -4.6306,-1.0415 -6.2,-1 -1.5694,0.0415 -4.63,1 -6.2,1 A 50.8361,50.8361 0 0 1 5,46 v -2 a 50.8361,50.8361 0 0 0 6.2,1 c 1.57,0 4.6305,-0.9586 6.2,-1 1.5695,-0.0414 4.6308,0.9519 6.2,1 1.5692,0.0481 4.6308,-0.9508 6.2,-1 1.5692,-0.0492 4.6307,0.9506 6.2,1 1.5693,0.0494 4.6307,-0.9506 6.2,-1 1.5693,-0.0494 4.6307,0.9506 6.2,1 1.5693,0.0494 4.6307,-0.9506 6.2,-1 1.5693,-0.0494 4.6307,0.9506 6.2,1 A 42.5886,42.5886 0 0 0 67,44 Z"
     id="path98951" />
  <path
     fill="#ffffff"
     d="m 67,48 a 42.5886,42.5886 0 0 1 -6.2,1 c -1.5693,-0.0494 -4.6308,-1.0494 -6.2,-1 -1.5692,0.0494 -4.6308,1.0494 -6.2,1 -1.5692,-0.0494 -4.6307,-1.0494 -6.2,-1 -1.5693,0.0494 -4.6307,1.0494 -6.2,1 -1.5693,-0.0494 -4.6308,-1.0492 -6.2,-1 -1.5692,0.0492 -4.6308,1.0481 -6.2,1 -1.5692,-0.0481 -4.6306,-1.0415 -6.2,-1 -1.5694,0.0415 -4.63,1 -6.2,1 A 50.8361,50.8361 0 0 1 5,48 v -2 a 50.8361,50.8361 0 0 0 6.2,1 c 1.57,0 4.6305,-0.9586 6.2,-1 1.5695,-0.0414 4.6308,0.9519 6.2,1 1.5692,0.0481 4.6308,-0.9508 6.2,-1 1.5692,-0.0492 4.6307,0.9506 6.2,1 1.5693,0.0494 4.6307,-0.9506 6.2,-1 1.5693,-0.0494 4.6307,0.9506 6.2,1 1.5693,0.0494 4.6307,-0.9506 6.2,-1 1.5693,-0.0494 4.6307,0.9506 6.2,1 A 42.5886,42.5886 0 0 0 67,46 Z"
     id="path98954" />
  <path
     fill="#1e50a0"
     d="m 67,50 a 42.5886,42.5886 0 0 1 -6.2,1 c -1.5693,-0.0494 -4.6308,-1.0494 -6.2,-1 -1.5692,0.0494 -4.6308,1.0494 -6.2,1 -1.5692,-0.0494 -4.6307,-1.0494 -6.2,-1 -1.5693,0.0494 -4.6307,1.0494 -6.2,1 -1.5693,-0.0494 -4.6308,-1.0492 -6.2,-1 -1.5692,0.0492 -4.6308,1.0481 -6.2,1 -1.5692,-0.0481 -4.6306,-1.0415 -6.2,-1 -1.5694,0.0415 -4.63,1 -6.2,1 A 50.8361,50.8361 0 0 1 5,50 v -2 a 50.8361,50.8361 0 0 0 6.2,1 c 1.57,0 4.6305,-0.9586 6.2,-1 1.5695,-0.0414 4.6308,0.9519 6.2,1 1.5692,0.0481 4.6308,-0.9508 6.2,-1 1.5692,-0.0492 4.6307,0.9506 6.2,1 1.5693,0.0494 4.6307,-0.9506 6.2,-1 1.5693,-0.0494 4.6307,0.9506 6.2,1 1.5693,0.0494 4.6307,-0.9506 6.2,-1 1.5693,-0.0494 4.6307,0.9506 6.2,1 A 42.5886,42.5886 0 0 0 67,48 Z"
     id="path98957" />
  <path
     fill="#1e50a0"
     d="m 67,55 c 0,0 -4.6307,-0.9506 -6.2,-1 -1.5693,-0.0494 -4.6308,0.9506 -6.2,1 -1.5692,0.0494 -4.6308,-0.9506 -6.2,-1 -1.5692,-0.0494 -4.6307,0.9506 -6.2,1 -1.5693,0.0494 -4.6307,-0.9506 -6.2,-1 -1.5693,-0.0494 -4.6308,0.9508 -6.2,1 -1.5692,0.0492 -4.6308,-0.9519 -6.2,-1 -1.5692,-0.0481 -4.6306,0.9585 -6.2,1 -1.5694,0.0415 -4.63,-1 -6.2,-1 A 50.8361,50.8361 0 0 0 5,55 v -4 a 50.8361,50.8361 0 0 0 6.2,1 c 1.57,0 4.6305,-0.9586 6.2,-1 1.5695,-0.0414 4.6308,0.9519 6.2,1 1.5692,0.0481 4.6308,-0.9508 6.2,-1 1.5692,-0.0492 4.6307,0.9506 6.2,1 1.5693,0.0494 4.6307,-0.9506 6.2,-1 1.5693,-0.0494 4.6307,0.9506 6.2,1 1.5693,0.0494 4.6307,-0.9506 6.2,-1 1.5693,-0.0494 4.6307,0.9506 6.2,1 A 42.5886,42.5886 0 0 0 67,51 Z"
     id="path98960" />
  <path
     fill="#ffffff"
     d="m 67,52 a 42.5886,42.5886 0 0 1 -6.2,1 c -1.5693,-0.0494 -4.6308,-1.0494 -6.2,-1 -1.5692,0.0494 -4.6308,1.0494 -6.2,1 -1.5692,-0.0494 -4.6307,-1.0494 -6.2,-1 -1.5693,0.0494 -4.6307,1.0494 -6.2,1 -1.5693,-0.0494 -4.6308,-1.0492 -6.2,-1 -1.5692,0.0492 -4.6308,1.0481 -6.2,1 -1.5692,-0.0481 -4.6306,-1.0415 -6.2,-1 -1.5694,0.0415 -4.63,1 -6.2,1 A 50.8361,50.8361 0 0 1 5,52 v -2 a 50.8361,50.8361 0 0 0 6.2,1 c 1.57,0 4.6305,-0.9586 6.2,-1 1.5695,-0.0414 4.6308,0.9519 6.2,1 1.5692,0.0481 4.6308,-0.9508 6.2,-1 1.5692,-0.0492 4.6307,0.9506 6.2,1 1.5693,0.0494 4.6307,-0.9506 6.2,-1 1.5693,-0.0494 4.6307,0.9506 6.2,1 1.5693,0.0494 4.6307,-0.9506 6.2,-1 1.5693,-0.0494 4.6307,0.9506 6.2,1 A 42.5886,42.5886 0 0 0 67,50 Z"
     id="path98963" />
  <path
     fill="#1e50a0"
     d="m 67,38 a 42.5886,42.5886 0 0 1 -6.2,1 c -1.5693,-0.0494 -4.6308,-1.0494 -6.2,-1 -1.5692,0.0494 -4.6308,1.0494 -6.2,1 -1.5692,-0.0494 -4.6307,-1.0494 -6.2,-1 -1.5693,0.0494 -4.6307,1.0494 -6.2,1 -1.5693,-0.0494 -4.6308,-1.0492 -6.2,-1 -1.5692,0.0492 -4.6308,1.0481 -6.2,1 -1.5692,-0.0481 -4.6306,-1.0415 -6.2,-1 -1.5694,0.0415 -4.63,1 -6.2,1 A 50.8361,50.8361 0 0 1 5,38 v -2 a 50.8361,50.8361 0 0 0 6.2,1 c 1.57,0 4.6305,-0.9586 6.2,-1 1.5695,-0.0414 4.6308,0.9519 6.2,1 1.5692,0.0481 4.6308,-0.9508 6.2,-1 1.5692,-0.0492 4.6307,0.9506 6.2,1 1.5693,0.0494 4.6307,-0.9506 6.2,-1 1.5693,-0.0494 4.6307,0.9506 6.2,1 1.5693,0.0494 4.6307,-0.9506 6.2,-1 1.5693,-0.0494 4.6307,0.9506 6.2,1 A 42.5886,42.5886 0 0 0 67,36 Z"
     id="path98966" />
  <path
     fill="#ffffff"
     d="m 67,40 a 42.5886,42.5886 0 0 1 -6.2,1 c -1.5693,-0.0494 -4.6308,-1.0494 -6.2,-1 -1.5692,0.0494 -4.6308,1.0494 -6.2,1 -1.5692,-0.0494 -4.6307,-1.0494 -6.2,-1 -1.5693,0.0494 -4.6307,1.0494 -6.2,1 -1.5693,-0.0494 -4.6308,-1.0492 -6.2,-1 -1.5692,0.0492 -4.6308,1.0481 -6.2,1 -1.5692,-0.0481 -4.6306,-1.0415 -6.2,-1 -1.5694,0.0415 -4.63,1 -6.2,1 A 50.8361,50.8361 0 0 1 5,40 v -2 a 50.8361,50.8361 0 0 0 6.2,1 c 1.57,0 4.6305,-0.9586 6.2,-1 1.5695,-0.0414 4.6308,0.9519 6.2,1 1.5692,0.0481 4.6308,-0.9508 6.2,-1 1.5692,-0.0492 4.6307,0.9506 6.2,1 1.5693,0.0494 4.6307,-0.9506 6.2,-1 1.5693,-0.0494 4.6307,0.9506 6.2,1 1.5693,0.0494 4.6307,-0.9506 6.2,-1 1.5693,-0.0494 4.6307,0.9506 6.2,1 A 42.5886,42.5886 0 0 0 67,38 Z"
     id="path98969" />
  <path
     fill="#1e50a0"
     d="m 67,42 a 42.5886,42.5886 0 0 1 -6.2,1 c -1.5693,-0.0494 -4.6308,-1.0494 -6.2,-1 -1.5692,0.0494 -4.6308,1.0494 -6.2,1 -1.5692,-0.0494 -4.6307,-1.0494 -6.2,-1 -1.5693,0.0494 -4.6307,1.0494 -6.2,1 -1.5693,-0.0494 -4.6308,-1.0492 -6.2,-1 -1.5692,0.0492 -4.6308,1.0481 -6.2,1 -1.5692,-0.0481 -4.6306,-1.0415 -6.2,-1 -1.5694,0.0415 -4.63,1 -6.2,1 A 50.8361,50.8361 0 0 1 5,42 v -2 a 50.8361,50.8361 0 0 0 6.2,1 c 1.57,0 4.6305,-0.9586 6.2,-1 1.5695,-0.0414 4.6308,0.9519 6.2,1 1.5692,0.0481 4.6308,-0.9508 6.2,-1 1.5692,-0.0492 4.6307,0.9506 6.2,1 1.5693,0.0494 4.6307,-0.9506 6.2,-1 1.5693,-0.0494 4.6307,0.9506 6.2,1 1.5693,0.0494 4.6307,-0.9506 6.2,-1 1.5693,-0.0494 4.6307,0.9506 6.2,1 A 42.5886,42.5886 0 0 0 67,40 Z"
     id="path98972" />
  <path
     fill="#ffffff"
     d="m 67,44 a 42.5886,42.5886 0 0 1 -6.2,1 c -1.5693,-0.0494 -4.6308,-1.0494 -6.2,-1 -1.5692,0.0494 -4.6308,1.0494 -6.2,1 -1.5692,-0.0494 -4.6307,-1.0494 -6.2,-1 -1.5693,0.0494 -4.6307,1.0494 -6.2,1 -1.5693,-0.0494 -4.6308,-1.0492 -6.2,-1 -1.5692,0.0492 -4.6308,1.0481 -6.2,1 -1.5692,-0.0481 -4.6306,-1.0415 -6.2,-1 -1.5694,0.0415 -4.63,1 -6.2,1 A 50.8361,50.8361 0 0 1 5,44 v -2 a 50.8361,50.8361 0 0 0 6.2,1 c 1.57,0 4.6305,-0.9586 6.2,-1 1.5695,-0.0414 4.6308,0.9519 6.2,1 1.5692,0.0481 4.6308,-0.9508 6.2,-1 1.5692,-0.0492 4.6307,0.9506 6.2,1 1.5693,0.0494 4.6307,-0.9506 6.2,-1 1.5693,-0.0494 4.6307,0.9506 6.2,1 1.5693,0.0494 4.6307,-0.9506 6.2,-1 1.5693,-0.0494 4.6307,0.9506 6.2,1 A 42.5886,42.5886 0 0 0 67,42 Z"
     id="path98975" />
  <path
     fill="#1e50a0"
     d="m 67,30 a 42.5886,42.5886 0 0 1 -6.2,1 c -1.5693,-0.0494 -4.6308,-1.0494 -6.2,-1 -1.5692,0.0494 -4.6308,1.0494 -6.2,1 -1.5692,-0.0494 -4.6307,-1.0494 -6.2,-1 -1.5693,0.0494 -4.6307,1.0494 -6.2,1 -1.5693,-0.0494 -4.6308,-1.0492 -6.2,-1 -1.5692,0.0492 -4.6308,1.0481 -6.2,1 -1.5692,-0.0481 -4.6306,-1.0415 -6.2,-1 -1.5694,0.0415 -4.63,1 -6.2,1 A 50.8361,50.8361 0 0 1 5,30 v -2 a 50.8361,50.8361 0 0 0 6.2,1 c 1.57,0 4.6305,-0.9586 6.2,-1 1.5695,-0.0414 4.6308,0.9519 6.2,1 1.5692,0.0481 4.6308,-0.9508 6.2,-1 1.5692,-0.0492 4.6307,0.9506 6.2,1 1.5693,0.0494 4.6307,-0.9506 6.2,-1 1.5693,-0.0494 4.6307,0.9506 6.2,1 1.5693,0.0494 4.6307,-0.9506 6.2,-1 1.5693,-0.0494 4.6307,0.9506 6.2,1 A 42.5886,42.5886 0 0 0 67,28 Z"
     id="path98978" />
  <path
     fill="#ffffff"
     d="m 67,32 a 42.5886,42.5886 0 0 1 -6.2,1 c -1.5693,-0.0494 -4.6308,-1.0494 -6.2,-1 -1.5692,0.0494 -4.6308,1.0494 -6.2,1 -1.5692,-0.0494 -4.6307,-1.0494 -6.2,-1 -1.5693,0.0494 -4.6307,1.0494 -6.2,1 -1.5693,-0.0494 -4.6308,-1.0492 -6.2,-1 -1.5692,0.0492 -4.6308,1.0481 -6.2,1 -1.5692,-0.0481 -4.6306,-1.0415 -6.2,-1 -1.5694,0.0415 -4.63,1 -6.2,1 A 50.8361,50.8361 0 0 1 5,32 v -2 a 50.8361,50.8361 0 0 0 6.2,1 c 1.57,0 4.6305,-0.9586 6.2,-1 1.5695,-0.0414 4.6308,0.9519 6.2,1 1.5692,0.0481 4.6308,-0.9508 6.2,-1 1.5692,-0.0492 4.6307,0.9506 6.2,1 1.5693,0.0494 4.6307,-0.9506 6.2,-1 1.5693,-0.0494 4.6307,0.9506 6.2,1 1.5693,0.0494 4.6307,-0.9506 6.2,-1 1.5693,-0.0494 4.6307,0.9506 6.2,1 A 42.5886,42.5886 0 0 0 67,30 Z"
     id="path98981" />
  <path
     fill="#1e50a0"
     d="m 67,34 a 42.5886,42.5886 0 0 1 -6.2,1 c -1.5693,-0.0494 -4.6308,-1.0494 -6.2,-1 -1.5692,0.0494 -4.6308,1.0494 -6.2,1 -1.5692,-0.0494 -4.6307,-1.0494 -6.2,-1 -1.5693,0.0494 -4.6307,1.0494 -6.2,1 -1.5693,-0.0494 -4.6308,-1.0492 -6.2,-1 -1.5692,0.0492 -4.6308,1.0481 -6.2,1 -1.5692,-0.0481 -4.6306,-1.0415 -6.2,-1 -1.5694,0.0415 -4.63,1 -6.2,1 A 50.8361,50.8361 0 0 1 5,34 v -2 a 50.8361,50.8361 0 0 0 6.2,1 c 1.57,0 4.6305,-0.9586 6.2,-1 1.5695,-0.0414 4.6308,0.9519 6.2,1 1.5692,0.0481 4.6308,-0.9508 6.2,-1 1.5692,-0.0492 4.6307,0.9506 6.2,1 1.5693,0.0494 4.6307,-0.9506 6.2,-1 1.5693,-0.0494 4.6307,0.9506 6.2,1 1.5693,0.0494 4.6307,-0.9506 6.2,-1 1.5693,-0.0494 4.6307,0.9506 6.2,1 A 42.5886,42.5886 0 0 0 67,32 Z"
     id="path98984" />
  <path
     fill="#ffffff"
     d="m 67,36 a 42.5886,42.5886 0 0 1 -6.2,1 c -1.5693,-0.0494 -4.6308,-1.0494 -6.2,-1 -1.5692,0.0494 -4.6308,1.0494 -6.2,1 -1.5692,-0.0494 -4.6307,-1.0494 -6.2,-1 -1.5693,0.0494 -4.6307,1.0494 -6.2,1 -1.5693,-0.0494 -4.6308,-1.0492 -6.2,-1 -1.5692,0.0492 -4.6308,1.0481 -6.2,1 -1.5692,-0.0481 -4.6306,-1.0415 -6.2,-1 -1.5694,0.0415 -4.63,1 -6.2,1 A 50.8361,50.8361 0 0 1 5,36 v -2 a 50.8361,50.8361 0 0 0 6.2,1 c 1.57,0 4.6305,-0.9586 6.2,-1 1.5695,-0.0414 4.6308,0.9519 6.2,1 1.5692,0.0481 4.6308,-0.9508 6.2,-1 1.5692,-0.0492 4.6307,0.9506 6.2,1 1.5693,0.0494 4.6307,-0.9506 6.2,-1 1.5693,-0.0494 4.6307,0.9506 6.2,1 1.5693,0.0494 4.6307,-0.9506 6.2,-1 1.5693,-0.0494 4.6307,0.9506 6.2,1 A 42.5886,42.5886 0 0 0 67,34 Z"
     id="path98987" />
  <path
     fill="#1e50a0"
     d="m 67,22 a 42.5886,42.5886 0 0 1 -6.2,1 c -1.5693,-0.0494 -4.6308,-1.0494 -6.2,-1 -1.5692,0.0494 -4.6308,1.0494 -6.2,1 -1.5692,-0.0494 -4.6307,-1.0494 -6.2,-1 -1.5693,0.0494 -4.6307,1.0494 -6.2,1 -1.5693,-0.0494 -4.6308,-1.0492 -6.2,-1 -1.5692,0.0492 -4.6308,1.0481 -6.2,1 -1.5692,-0.0481 -4.6306,-1.0415 -6.2,-1 -1.5694,0.0415 -4.63,1 -6.2,1 A 50.8361,50.8361 0 0 1 5,22 v -2 a 50.8361,50.8361 0 0 0 6.2,1 c 1.57,0 4.6305,-0.9586 6.2,-1 1.5695,-0.0414 4.6308,0.9519 6.2,1 1.5692,0.0481 4.6308,-0.9508 6.2,-1 1.5692,-0.0492 4.6307,0.9506 6.2,1 1.5693,0.0494 4.6307,-0.9506 6.2,-1 1.5693,-0.0494 4.6307,0.9506 6.2,1 1.5693,0.0494 4.6307,-0.9506 6.2,-1 1.5693,-0.0494 4.6307,0.9506 6.2,1 A 42.5886,42.5886 0 0 0 67,20 Z"
     id="path98990" />
  <path
     fill="#ffffff"
     d="m 67,24 a 42.5886,42.5886 0 0 1 -6.2,1 c -1.5693,-0.0494 -4.6308,-1.0494 -6.2,-1 -1.5692,0.0494 -4.6308,1.0494 -6.2,1 -1.5692,-0.0494 -4.6307,-1.0494 -6.2,-1 -1.5693,0.0494 -4.6307,1.0494 -6.2,1 -1.5693,-0.0494 -4.6308,-1.0492 -6.2,-1 -1.5692,0.0492 -4.6308,1.0481 -6.2,1 -1.5692,-0.0481 -4.6306,-1.0415 -6.2,-1 -1.5694,0.0415 -4.63,1 -6.2,1 A 50.8361,50.8361 0 0 1 5,24 v -2 a 50.8361,50.8361 0 0 0 6.2,1 c 1.57,0 4.6305,-0.9586 6.2,-1 1.5695,-0.0414 4.6308,0.9519 6.2,1 1.5692,0.0481 4.6308,-0.9508 6.2,-1 1.5692,-0.0492 4.6307,0.9506 6.2,1 1.5693,0.0494 4.6307,-0.9506 6.2,-1 1.5693,-0.0494 4.6307,0.9506 6.2,1 1.5693,0.0494 4.6307,-0.9506 6.2,-1 1.5693,-0.0494 4.6307,0.9506 6.2,1 A 42.5886,42.5886 0 0 0 67,22 Z"
     id="path98993" />
  <path
     fill="#1e50a0"
     d="m 67,18 a 42.5886,42.5886 0 0 1 -6.2,1 c -1.5693,-0.0494 -4.6308,-1.0494 -6.2,-1 -1.5692,0.0494 -4.6308,1.0494 -6.2,1 -1.5692,-0.0494 -4.6307,-1.0494 -6.2,-1 -1.5693,0.0494 -4.6307,1.0494 -6.2,1 -1.5693,-0.0494 -4.6308,-1.0492 -6.2,-1 -1.5692,0.0492 -4.6308,1.0481 -6.2,1 -1.5692,-0.0481 -4.6306,-1.0415 -6.2,-1 -1.5694,0.0415 -4.63,1 -6.2,1 A 50.8361,50.8361 0 0 1 5,18 v -2 a 50.8361,50.8361 0 0 0 6.2,1 c 1.57,0 4.6305,-0.9586 6.2,-1 1.5695,-0.0414 4.6308,0.9519 6.2,1 1.5692,0.0481 4.6308,-0.9508 6.2,-1 1.5692,-0.0492 4.6307,0.9506 6.2,1 1.5693,0.0494 4.6307,-0.9506 6.2,-1 1.5693,-0.0494 4.6307,0.9506 6.2,1 1.5693,0.0494 4.6307,-0.9506 6.2,-1 1.5693,-0.0494 4.6307,0.9506 6.2,1 A 42.5886,42.5886 0 0 0 67,16 Z"
     id="path98996" />
  <path
     fill="#ffffff"
     d="m 67,20 a 42.5886,42.5886 0 0 1 -6.2,1 c -1.5693,-0.0494 -4.6308,-1.0494 -6.2,-1 -1.5692,0.0494 -4.6308,1.0494 -6.2,1 -1.5692,-0.0494 -4.6307,-1.0494 -6.2,-1 -1.5693,0.0494 -4.6307,1.0494 -6.2,1 -1.5693,-0.0494 -4.6308,-1.0492 -6.2,-1 -1.5692,0.0492 -4.6308,1.0481 -6.2,1 -1.5692,-0.0481 -4.6306,-1.0415 -6.2,-1 -1.5694,0.0415 -4.63,1 -6.2,1 A 50.8361,50.8361 0 0 1 5,20 v -2 a 50.8361,50.8361 0 0 0 6.2,1 c 1.57,0 4.6305,-0.9586 6.2,-1 1.5695,-0.0414 4.6308,0.9519 6.2,1 1.5692,0.0481 4.6308,-0.9508 6.2,-1 1.5692,-0.0492 4.6307,0.9506 6.2,1 1.5693,0.0494 4.6307,-0.9506 6.2,-1 1.5693,-0.0494 4.6307,0.9506 6.2,1 1.5693,0.0494 4.6307,-0.9506 6.2,-1 1.5693,-0.0494 4.6307,0.9506 6.2,1 A 42.5886,42.5886 0 0 0 67,18 Z"
     id="path98999" />
  <path
     fill="#1e50a0"
     d="m 67,26 a 42.5886,42.5886 0 0 1 -6.2,1 c -1.5693,-0.0494 -4.6308,-1.0494 -6.2,-1 -1.5692,0.0494 -4.6308,1.0494 -6.2,1 -1.5692,-0.0494 -4.6307,-1.0494 -6.2,-1 -1.5693,0.0494 -4.6307,1.0494 -6.2,1 -1.5693,-0.0494 -4.6308,-1.0492 -6.2,-1 -1.5692,0.0492 -4.6308,1.0481 -6.2,1 -1.5692,-0.0481 -4.6306,-1.0415 -6.2,-1 -1.5694,0.0415 -4.63,1 -6.2,1 A 50.8361,50.8361 0 0 1 5,26 v -2 a 50.8361,50.8361 0 0 0 6.2,1 c 1.57,0 4.6305,-0.9586 6.2,-1 1.5695,-0.0414 4.6308,0.9519 6.2,1 1.5692,0.0481 4.6308,-0.9508 6.2,-1 1.5692,-0.0492 4.6307,0.9506 6.2,1 1.5693,0.0494 4.6307,-0.9506 6.2,-1 1.5693,-0.0494 4.6307,0.9506 6.2,1 1.5693,0.0494 4.6307,-0.9506 6.2,-1 1.5693,-0.0494 4.6307,0.9506 6.2,1 A 42.5886,42.5886 0 0 0 67,24 Z"
     id="path99002" />
  <path
     fill="#ffffff"
     d="m 67,28 a 42.5886,42.5886 0 0 1 -6.2,1 c -1.5693,-0.0494 -4.6308,-1.0494 -6.2,-1 -1.5692,0.0494 -4.6308,1.0494 -6.2,1 -1.5692,-0.0494 -4.6307,-1.0494 -6.2,-1 -1.5693,0.0494 -4.6307,1.0494 -6.2,1 -1.5693,-0.0494 -4.6308,-1.0492 -6.2,-1 -1.5692,0.0492 -4.6308,1.0481 -6.2,1 -1.5692,-0.0481 -4.6306,-1.0415 -6.2,-1 -1.5694,0.0415 -4.63,1 -6.2,1 A 50.8361,50.8361 0 0 1 5,28 v -2 a 50.8361,50.8361 0 0 0 6.2,1 c 1.57,0 4.6305,-0.9586 6.2,-1 1.5695,-0.0414 4.6308,0.9519 6.2,1 1.5692,0.0481 4.6308,-0.9508 6.2,-1 1.5692,-0.0492 4.6307,0.9506 6.2,1 1.5693,0.0494 4.6307,-0.9506 6.2,-1 1.5693,-0.0494 4.6307,0.9506 6.2,1 1.5693,0.0494 4.6307,-0.9506 6.2,-1 1.5693,-0.0494 4.6307,0.9506 6.2,1 A 42.5886,42.5886 0 0 0 67,26 Z"
     id="path99005" />
  <path
     id="path99041"
     style="fill:#1e50a0"
     d="M 5,17 H 36 V 36 H 5 Z" />
  <path
     id="path99008"
     style="fill:#ffffff"
     d="M 36,36 V 33.668 L 9.887,18 H 6 v 2.332 L 32.113,36 Z" />
  <path
     id="path99011"
     style="fill:#ffffff"
     d="M 6,36 H 9.887 L 36,20.332 V 18 H 32.113 L 6,33.668 Z" />
  <path
     id="path99014"
     style="fill:#ffffff"
     d="m 6,24 h 30 v 6 H 6 Z" />
  <path
     id="path99017"
     style="fill:#ffffff"
     d="m 18,18 h 6 v 18 h -6 z" />
  <path
     id="path99020"
     style="fill:#d22f27"
     d="m 20,18 h 2 v 18 h -2 z" />
  <path
     id="path99023"
     style="fill:#d22f27"
     d="m 6,26 h 30 v 2 H 6 Z" />
  <path
     id="path99026"
     style="fill:#d22f27"
     d="M 36,35.999 V 33.668 L 29.887,30 H 26 l 10,6 z" />
  <path
     id="path99029"
     style="fill:#d22f27"
     d="M 26.001,24 36,18.001 V 18 H 32.113 L 24,22.868 V 24 Z" />
  <path
     id="path99032"
     style="fill:#d22f27"
     d="m 6,18.001 v 2.331 L 12.113,24 h 3.888 l -10,-6 z" />
  <path
     id="path99035"
     style="fill:#d22f27"
     d="M 16,30 6,35.999 V 36 H 9.887 L 18,31.132 V 30 Z" />
  <path
     style="color:#000000;fill:#000000;stroke-linecap:round;stroke-linejoin:round;-inkscape-stroke:none"
     d="m 5,16 a 1.0001,1.0001 0 0 0 -1,1 v 38 a 1.0001,1.0001 0 0 0 1,1 h 62 a 1.0001,1.0001 0 0 0 1,-1 V 17 a 1.0001,1.0001 0 0 0 -1,-1 z m 1,2 H 66 V 54 H 6 Z"
     id="path98945" />
</svg>
