<?xml version="1.0" encoding="UTF-8" standalone="no"?>
<svg
   id="emoji"
   viewBox="0 0 72 72"
   version="1.1"
   sodipodi:docname="Djibouti.svg"
   inkscape:version="1.2 (dc2aeda, 2022-05-15)"
   xmlns:inkscape="http://www.inkscape.org/namespaces/inkscape"
   xmlns:sodipodi="http://sodipodi.sourceforge.net/DTD/sodipodi-0.dtd"
   xmlns="http://www.w3.org/2000/svg"
   xmlns:svg="http://www.w3.org/2000/svg">
  <defs
     id="defs99094" />
  <sodipodi:namedview
     id="namedview99092"
     pagecolor="#ffffff"
     bordercolor="#000000"
     borderopacity="0.25"
     inkscape:showpageshadow="2"
     inkscape:pageopacity="0.0"
     inkscape:pagecheckerboard="0"
     inkscape:deskcolor="#d1d1d1"
     showgrid="false"
     inkscape:zoom="3.2777778"
     inkscape:cx="-13.271186"
     inkscape:cy="36"
     inkscape:window-width="1309"
     inkscape:window-height="456"
     inkscape:window-x="0"
     inkscape:window-y="25"
     inkscape:window-maximized="0"
     inkscape:current-layer="emoji" />
  <path
     id="path99261"
     style="fill:#61b2e4"
     d="M 5,17 H 67 V 55 H 5 Z" />
  <path
     id="path99264"
     style="fill:#5c9e31"
     d="M 5,36 H 67 V 55 H 5 Z" />
  <path
     id="path99267"
     style="fill:#ffffff"
     d="M 5,17 26,36 5,55 Z" />
  <path
     style="color:#000000;fill:#d22f27;stroke-linecap:round;stroke-linejoin:round"
     d="m 15.739,38.939 -5.564,-4.154 7,-0.172 -5.762,4.433 2.323,-7 z"
     id="path99258" />
  <path
     style="color:#000000;fill:#d22f27;stroke-linecap:round;stroke-linejoin:round"
     d="m 13.746094,31.546875 a 0.50005,0.50005 0 0 0 -0.484375,0.341797 l -0.777344,2.339844 -2.322266,0.05664 A 0.50005,0.50005 0 0 0 9.875,35.185547 l 1.835938,1.371094 -0.773438,2.332031 a 0.50005,0.50005 0 0 0 0.78125,0.552734 l 1.900391,-1.460937 1.820312,1.359375 a 0.50005,0.50005 0 0 0 0.779297,-0.541016 l -0.669922,-2.304687 1.931641,-1.484375 a 0.50005,0.50005 0 0 0 -0.31836,-0.896485 L 14.875,34.169922 14.216797,31.90625 a 0.50005,0.50005 0 0 0 -0.470703,-0.359375 z m -0.04102,2.181641 0.134766,0.466796 -0.292969,0.0059 z m 1.949219,1.421875 -0.404297,0.3125 -0.08789,-0.300782 z m -1.525391,0.03711 0.269532,0.929687 -0.789063,0.607422 -0.720703,-0.537109 0.324219,-0.976563 z m -1.978515,0.04883 -0.107422,0.320313 L 11.632813,35.25 Z m 2.548828,1.912109 0.144531,0.498047 -0.402344,-0.298828 z m -2.142578,0.03906 0.228515,0.171875 -0.384765,0.294922 z"
     id="path99255" />
  <path
     style="color:#000000;fill:#000000;stroke-linecap:round;stroke-linejoin:round;-inkscape-stroke:none"
     d="m 5,16 a 1.0001,1.0001 0 0 0 -1,1 v 38 a 1.0001,1.0001 0 0 0 1,1 h 62 a 1.0001,1.0001 0 0 0 1,-1 V 17 a 1.0001,1.0001 0 0 0 -1,-1 z m 1,2 H 66 V 54 H 6 Z"
     id="path99252" />
</svg>
