<?xml version="1.0" encoding="UTF-8" standalone="no"?>
<svg
   id="emoji"
   viewBox="0 0 72 72"
   version="1.1"
   sodipodi:docname="Dominica.svg"
   inkscape:version="1.2 (dc2aeda, 2022-05-15)"
   xmlns:inkscape="http://www.inkscape.org/namespaces/inkscape"
   xmlns:sodipodi="http://sodipodi.sourceforge.net/DTD/sodipodi-0.dtd"
   xmlns="http://www.w3.org/2000/svg"
   xmlns:svg="http://www.w3.org/2000/svg">
  <defs
     id="defs99337" />
  <sodipodi:namedview
     id="namedview99335"
     pagecolor="#ffffff"
     bordercolor="#000000"
     borderopacity="0.25"
     inkscape:showpageshadow="2"
     inkscape:pageopacity="0.0"
     inkscape:pagecheckerboard="0"
     inkscape:deskcolor="#d1d1d1"
     showgrid="false"
     inkscape:zoom="3.2777778"
     inkscape:cx="-62.084745"
     inkscape:cy="36"
     inkscape:window-width="1309"
     inkscape:window-height="456"
     inkscape:window-x="0"
     inkscape:window-y="25"
     inkscape:window-maximized="0"
     inkscape:current-layer="emoji" />
  <path
     id="path99664"
     style="fill:#186648"
     d="M 5,17 H 67 V 55 H 5 Z" />
  <path
     id="path99667"
     style="fill:#ffffff;stroke-width:2"
     d="m 38,16.999901 h 4 v 38 h -4 z" />
  <path
     id="path99670"
     d="m 5,34 h 62 v 4 H 5 Z" />
  <path
     id="path99673"
     style="fill:#ffffff;stroke-width:2"
     d="m 5,38 h 62 v 4 H 5 Z" />
  <path
     id="path99676"
     style="fill:#fcea2b"
     d="m 5,30 h 62 v 4 H 5 Z" />
  <path
     id="path99679"
     d="m 34,16.999901 h 4 v 38 h -4 z" />
  <path
     id="path99682"
     style="fill:#fcea2b"
     d="m 30,16.999901 h 4 v 38 h -4 z" />
  <path
     id="path99685"
     style="fill:#d22f27"
     d="M 49,36 A 13,13 0 0 1 36,49 13,13 0 0 1 23,36 13,13 0 0 1 36,23 13,13 0 0 1 49,36 Z" />
  <path
     d="m 36.3668,34.9556 a 5.1,5.1 0 0 0 2.9144,3.5044 0.2572,0.2572 0 0 0 0.3528,-0.1087 0.1829,0.1829 0 0 0 -0.0858,-0.2935 v 0 A 4.81,4.81 0 0 1 36.8555,34.917 v 0 a 0.2261,0.2261 0 0 0 -0.2408,-0.1658 0.2317,0.2317 0 0 0 -0.2479,0.2044 z"
     id="path99619" />
  <path
     fill="#8967aa"
     d="m 38.76838,36.930886 -0.04049,-0.07964 c -0.35042,-0.700289 -0.900863,-1.247485 -1.279496,-1.921372 -0.3688,-0.656515 0.523623,-1.402075 1.152692,-1.766677 0.735111,-0.425818 0.540407,-1.883677 0.185768,-2.432192 L 37.245235,28.7955 c 0,0 -0.81116,-1.158456 -3.568533,0.201086 0,0 -3.539239,0.856733 -3.846066,1.5378 0,0 2.683445,-0.73296 2.954423,0.520945 0.270979,1.253904 -1.404094,1.699196 0.241578,4.689899 0,0 1.39113,2.968668 3.114979,3.446877 a 6.2,6.2 0 0 1 2.542156,0.423068 c -0.222069,-0.587995 0.171291,-2.063302 0.08461,-2.684289 z"
     id="path99622" />
  <path
     d="m 36.546061,40.353075 c -0.02413,-0.0043 -0.04798,-0.0095 -0.0716,-0.01608 -1.880332,-0.521946 -3.872761,-3.835772 -4.093515,-4.211819 -1.156731,-2.193184 -0.677442,-3.058197 -0.08869,-3.758501 0.190669,-0.226735 0.189081,-0.234428 0.171232,-0.324394 -0.0715,-0.308604 -1.465792,-0.825676 -2.947315,-0.971861 a 0.7645,0.7645 0 0 1 -0.575368,-0.370134 0.7471,0.7471 0 0 1 -0.03515,-0.683487 c 0.125943,-0.281203 0.458813,-1.021853 5.183722,-1.908856 a 3.1158,3.1158 0 0 1 3.03469,-0.716314 c 1.632216,0.629901 2.056766,2.90519 2.099993,3.162201 a 0.75,0.75 0 0 1 -1.478873,0.249385 c -0.07498,-0.435131 -0.44983,-1.739743 -1.16317,-2.013269 -0.521466,-0.203036 -1.221084,0.221324 -1.714145,0.611025 a 0.7464,0.7464 0 0 1 -0.328729,0.148777 c -0.811766,0.149916 -1.698281,0.346562 -2.462138,0.545542 a 2.5786,2.5786 0 0 1 1.859247,1.659669 1.7587,1.7587 0 0 1 -0.496261,1.576882 c -0.276065,0.328655 -0.514158,0.612421 0.250862,2.064222 0.753312,1.278636 2.257123,3.238546 3.185376,3.49625 a 0.75,0.75 0 0 1 -0.33,1.4615 z m -6.359238,-9.592806 z"
     id="path99625" />
  <path
     fill="#186648"
     d="m 36.064435,37.754768 c -0.30154,-2.450592 1.415024,-5.90865 3.020755,-4.276826 1.605732,1.631823 0.736585,11.198537 0.736585,11.198537 0,0 -3.455817,-4.471021 -3.75734,-6.921711 z"
     id="path99631" />
  <path
     d="M 39.892396,45.388561 A 0.75,0.75 0 0 1 39.444515,45.12813 c -0.381778,-0.461404 -3.745087,-4.585186 -4.149067,-7.153353 l 0,0 c -0.301704,-1.921584 0.463771,-4.649199 1.940178,-5.424198 a 1.8249,1.8249 0 0 1 2.193312,0.388771 c 1.819223,1.72887 1.436977,10.094283 1.342634,11.754016 a 0.75,0.75 0 0 1 -0.879263,0.695687 z M 36.77649,37.74131 c 0.199565,1.263855 1.483043,3.286457 2.5771,4.803688 0.08008,-3.890399 -0.220846,-7.818734 -0.958078,-8.519397 -0.263163,-0.250707 -0.37794,-0.190625 -0.462799,-0.147607 -0.695015,0.364855 -1.394724,2.342293 -1.155239,3.86349 z"
     id="path99628" />
  <path
     id="path99634"
     style="fill:#186648"
     d="m 37,25 a 1,1 0 0 1 -1,1 1,1 0 0 1 -1,-1 1,1 0 0 1 1,-1 1,1 0 0 1 1,1 z" />
  <path
     id="path99637"
     style="fill:#186648"
     d="M 43.2747 27.6886 C 43.1188 27.9031 42.8841 28.047 42.6221 28.0885 C 42.3602 28.13 42.0925 28.0657 41.8779 27.9098 C 41.6633 27.7539 41.5195 27.5192 41.478 27.2572 C 41.4365 26.9953 41.5008 26.7276 41.6567 26.513 C 41.8126 26.2984 42.0473 26.1546 42.3092 26.1131 C 42.5712 26.0716 42.8389 26.1359 43.0535 26.2918 C 43.268 26.4477 43.4119 26.6824 43.4534 26.9444 C 43.4949 27.2063 43.4306 27.474 43.2747 27.6886 Z" />
  <path
     id="path99640"
     style="fill:#186648"
     d="M 46.7706 33.5518 C 46.5184 33.6338 46.2439 33.6122 46.0076 33.4918 C 45.7713 33.3714 45.5925 33.162 45.5105 32.9098 C 45.4286 32.6576 45.4502 32.3831 45.5706 32.1468 C 45.691 31.9105 45.9003 31.7317 46.1526 31.6497 C 46.4048 31.5678 46.6793 31.5894 46.9156 31.7098 C 47.1519 31.8302 47.3307 32.0395 47.4126 32.2918 C 47.4946 32.544 47.473 32.8185 47.3526 33.0548 C 47.2322 33.2911 47.0228 33.4699 46.7706 33.5518 Z" />
  <path
     id="path99643"
     style="fill:#186648"
     d="M 46.1526 40.3502 C 45.9003 40.2683 45.691 40.0895 45.5706 39.8531 C 45.4502 39.6168 45.4286 39.3424 45.5105 39.0901 C 45.5925 38.8379 45.7713 38.6285 46.0076 38.5081 C 46.2439 38.3877 46.5184 38.3661 46.7706 38.4481 C 47.0228 38.5301 47.2322 38.7089 47.3526 38.9452 C 47.473 39.1815 47.4946 39.4559 47.4126 39.7082 C 47.3307 39.9604 47.1519 40.1698 46.9156 40.2902 C 46.6793 40.4106 46.4048 40.4322 46.1526 40.3502 Z" />
  <path
     id="path99646"
     style="fill:#186648"
     d="M 41.6566 45.487 C 41.5007 45.2724 41.4364 45.0047 41.4779 44.7428 C 41.5194 44.4808 41.6633 44.2461 41.8778 44.0902 C 42.0924 43.9343 42.3601 43.8701 42.622 43.9115 C 42.884 43.953 43.1187 44.0969 43.2746 44.3114 C 43.4305 44.526 43.4948 44.7937 43.4533 45.0557 C 43.4118 45.3176 43.268 45.5524 43.0534 45.7082 C 42.8388 45.8641 42.5711 45.9284 42.3092 45.8869 C 42.0472 45.8454 41.8125 45.7016 41.6566 45.487 Z" />
  <path
     id="path99649"
     style="fill:#186648"
     d="M 35 47 C 35 46.7348 35.1054 46.4804 35.2929 46.2929 C 35.4804 46.1054 35.7348 46 36 46 C 36.2652 46 36.5196 46.1054 36.7071 46.2929 C 36.8946 46.4804 37 46.7348 37 47 C 37 47.2652 36.8946 47.5196 36.7071 47.7071 C 36.5196 47.8946 36.2652 48 36 48 C 35.7348 48 35.4804 47.8946 35.2929 47.7071 C 35.1054 47.5196 35 47.2652 35 47 Z" />
  <path
     id="path99652"
     style="fill:#186648"
     d="M 28.7254 44.3114 C 28.8813 44.0968 29.116 43.953 29.378 43.9115 C 29.6399 43.87 29.9076 43.9343 30.1222 44.0901 C 30.3368 44.246 30.4806 44.4808 30.5221 44.7427 C 30.5636 45.0047 30.4993 45.2724 30.3434 45.4869 C 30.1875 45.7015 29.9528 45.8454 29.6908 45.8869 C 29.4289 45.9283 29.1612 45.8641 28.9466 45.7082 C 28.7321 45.5523 28.5882 45.3175 28.5467 45.0556 C 28.5052 44.7936 28.5695 44.5259 28.7254 44.3114 Z" />
  <path
     id="path99655"
     style="fill:#186648"
     d="M 25.2293 38.4481 C 25.4816 38.3661 25.756 38.3877 25.9923 38.5081 C 26.2286 38.6285 26.4074 38.8379 26.4894 39.0901 C 26.5714 39.3424 26.5498 39.6168 26.4293 39.8531 C 26.3089 40.0894 26.0996 40.2682 25.8474 40.3502 C 25.5951 40.4322 25.3207 40.4106 25.0844 40.2902 C 24.848 40.1697 24.6692 39.9604 24.5873 39.7082 C 24.5053 39.4559 24.5269 39.1815 24.6473 38.9452 C 24.7677 38.7088 24.9771 38.53 25.2293 38.4481 Z" />
  <path
     id="path99658"
     style="fill:#186648"
     d="M 25.8474 31.6497 C 26.0996 31.7317 26.3089 31.9105 26.4293 32.1468 C 26.5498 32.3831 26.5714 32.6576 26.4894 32.9098 C 26.4074 33.162 26.2286 33.3714 25.9923 33.4918 C 25.756 33.6122 25.4816 33.6338 25.2293 33.5518 C 24.9771 33.4699 24.7677 33.2911 24.6473 33.0548 C 24.5269 32.8185 24.5053 32.544 24.5873 32.2918 C 24.6692 32.0395 24.848 31.8302 25.0843 31.7098 C 25.3207 31.5894 25.5951 31.5678 25.8474 31.6497 Z" />
  <path
     id="path99661"
     style="fill:#186648"
     d="M 30.3434 26.5131 C 30.4992 26.7276 30.5635 26.9953 30.522 27.2573 C 30.4805 27.5192 30.3367 27.754 30.1221 27.9099 C 29.9076 28.0658 29.6399 28.13 29.3779 28.0885 C 29.116 28.0471 28.8812 27.9032 28.7253 27.6886 C 28.5694 27.4741 28.5052 27.2064 28.5467 26.9444 C 28.5881 26.6825 28.732 26.4477 28.9466 26.2918 C 29.1611 26.1359 29.4288 26.0717 29.6908 26.1132 C 29.9527 26.1547 30.1875 26.2985 30.3434 26.5131 Z" />
  <path
     style="color:#000000;fill:#000000;stroke-linecap:round;stroke-linejoin:round;-inkscape-stroke:none"
     d="m 5,16 a 1.0001,1.0001 0 0 0 -1,1 v 38 a 1.0001,1.0001 0 0 0 1,1 h 62 a 1.0001,1.0001 0 0 0 1,-1 V 17 a 1.0001,1.0001 0 0 0 -1,-1 z m 1,2 H 66 V 54 H 6 Z"
     id="path99616" />
</svg>
