<?xml version="1.0" encoding="UTF-8" standalone="no"?>
<svg
   id="emoji"
   viewBox="0 0 72 72"
   version="1.1"
   sodipodi:docname="Equatorial Guinea.svg"
   inkscape:version="1.2 (dc2aeda, 2022-05-15)"
   xmlns:inkscape="http://www.inkscape.org/namespaces/inkscape"
   xmlns:sodipodi="http://sodipodi.sourceforge.net/DTD/sodipodi-0.dtd"
   xmlns="http://www.w3.org/2000/svg"
   xmlns:svg="http://www.w3.org/2000/svg">
  <defs
     id="defs100646" />
  <sodipodi:namedview
     id="namedview100644"
     pagecolor="#ffffff"
     bordercolor="#000000"
     borderopacity="0.25"
     inkscape:showpageshadow="2"
     inkscape:pageopacity="0.0"
     inkscape:pagecheckerboard="0"
     inkscape:deskcolor="#d1d1d1"
     showgrid="false"
     inkscape:zoom="3.2777778"
     inkscape:cx="-13.271186"
     inkscape:cy="36"
     inkscape:window-width="1309"
     inkscape:window-height="456"
     inkscape:window-x="0"
     inkscape:window-y="25"
     inkscape:window-maximized="0"
     inkscape:current-layer="emoji" />
  <path
     id="path100830"
     style="fill:#d22f27"
     d="M 5,17 H 67 V 55 H 5 Z" />
  <path
     id="path100833"
     style="fill:#ffffff"
     d="M 5,30 H 67 V 42 H 5 Z" />
  <path
     id="path100836"
     style="fill:#5c9e31"
     d="M 5,17 H 67 V 30 H 5 Z" />
  <path
     id="path100839"
     style="fill:#1e50a0"
     d="M 5,17 26,36 5,55 Z" />
  <path
     style="color:#000000;fill:#6a462f;stroke-linecap:round;stroke-linejoin:round"
     d="m 40,33.5 a 1,1 0 0 0 -1,1 v 4 a 1,1 0 0 0 1,1 1,1 0 0 0 1,-1 v -4 a 1,1 0 0 0 -1,-1 z"
     id="path100821" />
  <path
     style="color:#000000;fill:#5c9e31;stroke-width:3;stroke-linecap:round;stroke-linejoin:round"
     d="m 38,33.5 h 4"
     id="path100827" />
  <path
     style="color:#000000;fill:#5c9e31;stroke-linecap:round;stroke-linejoin:round"
     d="M 38,32 A 1.5,1.5 0 0 0 36.5,33.5 1.5,1.5 0 0 0 38,35 h 4 A 1.5,1.5 0 0 0 43.5,33.5 1.5,1.5 0 0 0 42,32 Z"
     id="path100824" />
  <path
     style="color:#000000;fill:#000000;stroke-linecap:round;stroke-linejoin:round;-inkscape-stroke:none"
     d="m 5,16 a 1.0001,1.0001 0 0 0 -1,1 v 38 a 1.0001,1.0001 0 0 0 1,1 h 62 a 1.0001,1.0001 0 0 0 1,-1 V 17 a 1.0001,1.0001 0 0 0 -1,-1 z m 1,2 H 66 V 54 H 6 Z"
     id="path100818" />
</svg>
