<?xml version="1.0" encoding="UTF-8" standalone="no"?>
<svg
   id="emoji"
   viewBox="0 0 72 72"
   version="1.1"
   sodipodi:docname="Falkland Islands.svg"
   inkscape:version="1.2 (dc2aeda, 2022-05-15)"
   xmlns:inkscape="http://www.inkscape.org/namespaces/inkscape"
   xmlns:sodipodi="http://sodipodi.sourceforge.net/DTD/sodipodi-0.dtd"
   xmlns="http://www.w3.org/2000/svg"
   xmlns:svg="http://www.w3.org/2000/svg">
  <defs
     id="defs102502" />
  <sodipodi:namedview
     id="namedview102500"
     pagecolor="#ffffff"
     bordercolor="#000000"
     borderopacity="0.25"
     inkscape:showpageshadow="2"
     inkscape:pageopacity="0.0"
     inkscape:pagecheckerboard="0"
     inkscape:deskcolor="#d1d1d1"
     showgrid="false"
     inkscape:zoom="3.2777778"
     inkscape:cx="-13.271186"
     inkscape:cy="36"
     inkscape:window-width="1309"
     inkscape:window-height="456"
     inkscape:window-x="0"
     inkscape:window-y="25"
     inkscape:window-maximized="0"
     inkscape:current-layer="emoji" />
  <path
     id="path102856"
     style="fill:#1e50a0"
     d="M 5,17 H 67 V 55 H 5 Z" />
  <path
     id="path102826"
     style="fill:#ffffff"
     d="M 36,36 V 33.668 L 9.887,18 H 6 v 2.332 L 32.113,36 Z" />
  <path
     id="path102829"
     style="fill:#ffffff"
     d="M 6,36 H 9.887 L 36,20.332 V 18 H 32.113 L 6,33.668 Z" />
  <path
     id="path102832"
     style="fill:#ffffff"
     d="m 6,24 h 30 v 6 H 6 Z" />
  <path
     id="path102835"
     style="fill:#ffffff"
     d="m 18,18 h 6 v 18 h -6 z" />
  <path
     id="path102838"
     style="fill:#d22f27"
     d="m 20,18 h 2 v 18 h -2 z" />
  <path
     id="path102841"
     style="fill:#d22f27"
     d="m 6,26 h 30 v 2 H 6 Z" />
  <path
     id="path102844"
     style="fill:#d22f27"
     d="M 36,35.999 V 33.668 L 29.887,30 H 26 l 10,6 z" />
  <path
     id="path102847"
     style="fill:#d22f27"
     d="M 26.001,24 36,18.001 V 18 H 32.113 L 24,22.868 V 24 Z" />
  <path
     id="path102850"
     style="fill:#d22f27"
     d="m 6,18.001 v 2.331 L 12.113,24 h 3.888 l -10,-6 z" />
  <path
     id="path102853"
     style="fill:#d22f27"
     d="M 16,30 6,35.999 V 36 H 9.887 L 18,31.132 V 30 Z" />
  <path
     fill="#61b2e4"
     d="m 59,29 v 5 c 0,9 -2.6667,13 -8,15 -5.3333,-2 -8,-6 -8,-15 v -5 z"
     id="path102823" />
  <path
     style="color:#000000;fill:#ffffff;stroke-linecap:round;stroke-linejoin:round;-inkscape-stroke:none"
     d="m 43,28 a 1.0001,1.0001 0 0 0 -1,1 v 5 c 0,4.598762 0.67459,8.024742 2.128906,10.615234 1.454316,2.590493 3.698968,4.262595 6.519531,5.320313 a 1.0001,1.0001 0 0 0 0.703125,0 c 2.820564,-1.057718 5.065216,-2.72982 6.519532,-5.320313 C 59.32541,42.024742 60,38.598762 60,34 v -5 a 1.0001,1.0001 0 0 0 -1,-1 z m 1,2 h 14 v 4 c 0,4.401229 -0.658738,7.475263 -1.871094,9.634766 C 54.982558,45.676692 53.298413,46.94126 51,47.873047 48.701587,46.94126 47.017442,45.676692 45.871094,43.634766 44.658738,41.475263 44,38.401229 44,34 Z"
     id="path102787" />
  <path
     style="color:#000000;fill:#ffffff;stroke-linecap:round;stroke-linejoin:round"
     d="m 49,32 a 1.0001,1.0001 0 0 0 -1,1 v 2 a 1.0001,1.0001 0 0 0 1,1 h 5 a 1.0001,1.0001 0 0 0 1,-1 v -2 a 1.0001,1.0001 0 0 0 -1,-1 z"
     id="path102808" />
  <path
     style="color:#000000;fill:#ffffff;stroke-linecap:round;stroke-linejoin:round"
     d="m 54,34 a 1,1 0 0 0 -1,1 v 2 a 1,1 0 0 0 1,1 1,1 0 0 0 1,-1 v -2 a 1,1 0 0 0 -1,-1 z"
     id="path102811" />
  <path
     style="color:#000000;fill:#ffffff;stroke-linecap:round;stroke-linejoin:round"
     d="m 49,34 a 1,1 0 0 0 -1,1 v 2 a 1,1 0 0 0 1,1 1,1 0 0 0 1,-1 v -2 a 1,1 0 0 0 -1,-1 z"
     id="path102814" />
  <path
     style="color:#000000;fill:#ffffff;stroke-linecap:round;stroke-linejoin:round"
     d="m 47,32 a 1,1 0 0 0 -1,1 1,1 0 0 0 1,1 h 2 a 1,1 0 0 0 1,-1 1,1 0 0 0 -1,-1 z"
     id="path102817" />
  <path
     style="color:#000000;fill:#000000;stroke-width:2;stroke-linecap:round;stroke-linejoin:round"
     d="m 44.035,40.115 c 1,0.433 1.91,0.81 2.965,0.885 2,0 2,-1 4,-1"
     id="path102793" />
  <path
     style="color:#000000;fill:#ffffff;stroke-linecap:round;stroke-linejoin:round"
     d="m 51,39 c -1.166666,0 -1.947266,0.355469 -2.447266,0.605469 -0.488614,0.244307 -0.730086,0.378358 -1.517578,0.384765 -0.845766,-0.06696 -1.625601,-0.369531 -2.603515,-0.792968 a 1,1 0 0 0 -1.314454,0.519531 1,1 0 0 0 0.519532,1.316406 c 1.008772,0.436799 2.042105,0.87592 3.292968,0.964844 A 1.0001,1.0001 0 0 0 47,42 c 1.166665,0 1.947266,-0.355469 2.447266,-0.605469 C 49.947265,41.144531 50.166668,41 51,41 a 1,1 0 0 0 1,-1 1,1 0 0 0 -1,-1 z"
     id="path102790" />
  <path
     style="color:#000000;fill:#ffffff;stroke-linecap:round;stroke-linejoin:round"
     d="m 51,43 c -1.166666,0 -1.947266,0.355469 -2.447266,0.605469 -0.494382,0.247191 -0.724712,0.387421 -1.535156,0.390625 -0.438335,-0.02944 -0.749649,-0.04163 -0.933594,-0.113282 a 1,1 0 0 0 -1.294922,0.56836 1,1 0 0 0 0.56836,1.294922 c 0.648056,0.252449 1.211556,0.226971 1.574219,0.251953 A 1.0001,1.0001 0 0 0 47,46 c 1.166665,0 1.947266,-0.355469 2.447266,-0.605469 C 49.947265,45.144531 50.166668,45 51,45 a 1,1 0 0 0 1,-1 1,1 0 0 0 -1,-1 z"
     id="path102796" />
  <path
     style="color:#000000;fill:#000000;stroke-width:2;stroke-linecap:round;stroke-linejoin:round"
     d="m 57.965,40.115 c -1,0.433 -1.91,0.81 -2.965,0.885 -2,0 -2,-1 -4,-1"
     id="path102802" />
  <path
     style="color:#000000;fill:#ffffff;stroke-linecap:round;stroke-linejoin:round"
     d="m 51,39 a 1,1 0 0 0 -1,1 1,1 0 0 0 1,1 c 0.833332,0 1.052735,0.144532 1.552734,0.394531 C 53.052734,41.644531 53.833334,42 55,42 a 1.0001,1.0001 0 0 0 0.07031,-0.002 c 1.250864,-0.08892 2.284197,-0.528045 3.292969,-0.964844 A 1,1 0 0 0 58.88281,39.71675 1,1 0 0 0 57.568357,39.197219 c -0.977914,0.423437 -1.757749,0.726012 -2.603515,0.792968 -0.787492,-0.0064 -1.028964,-0.140458 -1.517578,-0.384765 C 52.947266,39.355469 52.166665,39 51,39 Z"
     id="path102799" />
  <path
     style="color:#000000;fill:#ffffff;stroke-linecap:round;stroke-linejoin:round"
     d="m 51,43 a 1,1 0 0 0 -1,1 1,1 0 0 0 1,1 c 0.833332,0 1.052735,0.144532 1.552734,0.394531 C 53.052734,45.644531 53.833334,46 55,46 a 1.0001,1.0001 0 0 0 0.06836,-0.002 c 0.362663,-0.02498 0.926163,0 1.574219,-0.251953 a 1,1 0 0 0 0.568359,-1.294922 1,1 0 0 0 -1.294921,-0.56836 c -0.183945,0.07166 -0.495259,0.08385 -0.933594,0.113282 C 54.171978,43.99289 53.941648,43.85266 53.447266,43.605469 52.947266,43.355469 52.166665,43 51,43 Z"
     id="path102805" />
  <path
     style="color:#000000;fill:#000000;stroke-linecap:round;stroke-linejoin:round"
     d="m 5,16 a 1.0001,1.0001 0 0 0 -1,1 v 38 a 1.0001,1.0001 0 0 0 1,1 h 62 a 1.0001,1.0001 0 0 0 1,-1 V 17 a 1.0001,1.0001 0 0 0 -1,-1 z m 1,2 H 66 V 54 H 6 Z"
     id="path102820" />
</svg>
