<?xml version="1.0" encoding="UTF-8" standalone="no"?>
<svg
   id="emoji"
   viewBox="0 0 72 72"
   version="1.1"
   sodipodi:docname="Fiji.svg"
   inkscape:version="1.2 (dc2aeda, 2022-05-15)"
   xmlns:inkscape="http://www.inkscape.org/namespaces/inkscape"
   xmlns:sodipodi="http://sodipodi.sourceforge.net/DTD/sodipodi-0.dtd"
   xmlns="http://www.w3.org/2000/svg"
   xmlns:svg="http://www.w3.org/2000/svg">
  <defs
     id="defs103123" />
  <sodipodi:namedview
     id="namedview103121"
     pagecolor="#ffffff"
     bordercolor="#000000"
     borderopacity="0.25"
     inkscape:showpageshadow="2"
     inkscape:pageopacity="0.0"
     inkscape:pagecheckerboard="0"
     inkscape:deskcolor="#d1d1d1"
     showgrid="false"
     inkscape:zoom="3.2777778"
     inkscape:cx="-13.271186"
     inkscape:cy="36"
     inkscape:window-width="1309"
     inkscape:window-height="456"
     inkscape:window-x="0"
     inkscape:window-y="25"
     inkscape:window-maximized="0"
     inkscape:current-layer="emoji" />
  <path
     id="path103421"
     style="fill:#61b2e4"
     d="M 5,17 H 67 V 55 H 5 Z" />
  <path
     id="path103424"
     style="fill:#1e50a0"
     d="M 5,17 H 36 V 36 H 5 Z" />
  <path
     fill="#d22f27"
     d="m 52,48 c 0,0 6,-1.9375 6,-7.75 V 34.5 H 46 v 5.75 c 0,5.8125 6,7.75 6,7.75 z"
     id="path103382" />
  <path
     id="path103427"
     style="fill:#ffffff"
     d="m 53,37 h 5 v 4 h -5 z" />
  <path
     id="path103430"
     style="fill:#ffffff"
     d="m 46,37 h 5 v 4 h -5 z" />
  <path
     fill="#ffffff"
     d="M 51,47.5743 V 43 H 46.5118 A 9.0283,9.0283 0 0 0 51,47.5743 Z"
     id="path103385" />
  <path
     fill="#ffffff"
     d="M 57.4882,43 H 53 v 4.5743 A 9.028,9.028 0 0 0 57.4882,43 Z"
     id="path103388" />
  <path
     style="color:#000000;fill:#d22f27;stroke-linecap:round;stroke-linejoin:round"
     d="m 46.5,34 h 11 v 2 h -11 z"
     id="path103379" />
  <path
     style="color:#000000;fill:#d22f27;stroke-linecap:round;stroke-linejoin:round"
     d="M 46.5,33.5 A 0.50005,0.50005 0 0 0 46,34 v 2 a 0.50005,0.50005 0 0 0 0.5,0.5 h 11 A 0.50005,0.50005 0 0 0 58,36 v -2 a 0.50005,0.50005 0 0 0 -0.5,-0.5 z m 0.5,1 h 10 v 1 H 47 Z"
     id="path103376" />
  <path
     id="path103391"
     style="fill:#ffffff"
     d="M 36,36 V 33.668 L 9.887,18 H 6 v 2.332 L 32.113,36 Z" />
  <path
     id="path103394"
     style="fill:#ffffff"
     d="M 6,36 H 9.887 L 36,20.332 V 18 H 32.113 L 6,33.668 Z" />
  <path
     id="path103397"
     style="fill:#ffffff"
     d="m 6,24 h 30 v 6 H 6 Z" />
  <path
     id="path103400"
     style="fill:#ffffff"
     d="m 18,18 h 6 v 18 h -6 z" />
  <path
     id="path103403"
     style="fill:#d22f27"
     d="m 20,18 h 2 v 18 h -2 z" />
  <path
     id="path103406"
     style="fill:#d22f27"
     d="m 6,26 h 30 v 2 H 6 Z" />
  <path
     id="path103409"
     style="fill:#d22f27"
     d="M 36,35.999 V 33.668 L 29.887,30 H 26 l 10,6 z" />
  <path
     id="path103412"
     style="fill:#d22f27"
     d="M 26.001,24 36,18.001 V 18 H 32.113 L 24,22.868 V 24 Z" />
  <path
     id="path103415"
     style="fill:#d22f27"
     d="m 6,18.001 v 2.331 L 12.113,24 h 3.888 l -10,-6 z" />
  <path
     id="path103418"
     style="fill:#d22f27"
     d="M 16,30 6,35.999 V 36 H 9.887 L 18,31.132 V 30 Z" />
  <path
     style="color:#000000;fill:#000000;stroke-linecap:round;stroke-linejoin:round;-inkscape-stroke:none"
     d="m 5,16 a 1.0001,1.0001 0 0 0 -1,1 v 38 a 1.0001,1.0001 0 0 0 1,1 h 62 a 1.0001,1.0001 0 0 0 1,-1 V 17 a 1.0001,1.0001 0 0 0 -1,-1 z m 1,2 H 66 V 54 H 6 Z"
     id="path103373" />
</svg>
