<?xml version="1.0" encoding="UTF-8" standalone="no"?>
<svg
   id="emoji"
   viewBox="0 0 72 72"
   version="1.1"
   sodipodi:docname="French Guiana.svg"
   inkscape:version="1.2 (dc2aeda, 2022-05-15)"
   xmlns:inkscape="http://www.inkscape.org/namespaces/inkscape"
   xmlns:sodipodi="http://sodipodi.sourceforge.net/DTD/sodipodi-0.dtd"
   xmlns="http://www.w3.org/2000/svg"
   xmlns:svg="http://www.w3.org/2000/svg">
  <defs
     id="defs103824" />
  <sodipodi:namedview
     id="namedview103822"
     pagecolor="#ffffff"
     bordercolor="#000000"
     borderopacity="0.25"
     inkscape:showpageshadow="2"
     inkscape:pageopacity="0.0"
     inkscape:pagecheckerboard="0"
     inkscape:deskcolor="#d1d1d1"
     showgrid="false"
     inkscape:zoom="3.2777778"
     inkscape:cx="-13.271186"
     inkscape:cy="36"
     inkscape:window-width="1309"
     inkscape:window-height="456"
     inkscape:window-x="0"
     inkscape:window-y="25"
     inkscape:window-maximized="0"
     inkscape:current-layer="emoji" />
  <path
     id="path103985"
     style="fill:#fcea2b"
     d="M 5,17 H 67 V 55 H 5 Z" />
  <path
     id="path103988"
     style="fill:#5c9e31"
     d="M 5,17 H 67 V 55 Z" />
  <path
     style="color:#000000;fill:#d22f27;stroke-linecap:round;stroke-linejoin:round;-inkscape-stroke:none"
     d="M 38.431,39.155 32.35,34.737 40,34.553 l -6.297,4.716 2.539,-7.446 z"
     id="path103979" />
  <path
     style="color:#000000;fill:#d22f27;stroke-linecap:round;stroke-linejoin:round;-inkscape-stroke:none"
     d="m 36.251953,31.322266 a 0.50005,0.50005 0 0 0 -0.482422,0.339843 l -0.857422,2.511719 -2.574218,0.0625 a 0.50005,0.50005 0 0 0 -0.28125,0.904297 l 2.02539,1.470703 -0.851562,2.496094 a 0.50005,0.50005 0 0 0 0.771484,0.5625 l 2.111328,-1.582031 2.023438,1.470703 a 0.50005,0.50005 0 0 0 0.773437,-0.546875 l -0.736328,-2.466797 2.125,-1.591797 a 0.50005,0.50005 0 0 0 -0.310547,-0.900391 l -2.541015,0.06055 -0.726563,-2.433594 a 0.50005,0.50005 0 0 0 -0.46875,-0.357421 z m -0.04102,2.140625 0.201172,0.675781 -0.435547,0.0098 z m 2.238282,1.626953 -0.580078,0.435547 -0.125,-0.417969 z m -1.740235,0.04297 0.306641,1.03125 -0.912109,0.681641 -0.837891,-0.609375 0.367187,-1.078125 z m -2.140625,0.05078 -0.148437,0.4375 -0.580078,-0.419922 z m 2.751953,2 0.207032,0.697265 -0.576172,-0.419922 z m -2.392578,0.04297 0.339844,0.246094 -0.570312,0.425781 z"
     id="path103976" />
  <path
     style="color:#000000;fill:#000000;stroke-linecap:round;stroke-linejoin:round;-inkscape-stroke:none"
     d="m 5,16 a 1.0001,1.0001 0 0 0 -1,1 v 38 a 1.0001,1.0001 0 0 0 1,1 h 62 a 1.0001,1.0001 0 0 0 1,-1 V 17 a 1.0001,1.0001 0 0 0 -1,-1 z m 1,2 H 66 V 54 H 6 Z"
     id="path103982" />
</svg>
