<?xml version="1.0" encoding="UTF-8" standalone="no"?>
<svg
   id="emoji"
   viewBox="0 0 72 72"
   version="1.1"
   sodipodi:docname="Grenada.svg"
   inkscape:version="1.2 (dc2aeda, 2022-05-15)"
   xmlns:inkscape="http://www.inkscape.org/namespaces/inkscape"
   xmlns:sodipodi="http://sodipodi.sourceforge.net/DTD/sodipodi-0.dtd"
   xmlns="http://www.w3.org/2000/svg"
   xmlns:svg="http://www.w3.org/2000/svg">
  <defs
     id="defs106456" />
  <sodipodi:namedview
     id="namedview106454"
     pagecolor="#ffffff"
     bordercolor="#000000"
     borderopacity="0.25"
     inkscape:showpageshadow="2"
     inkscape:pageopacity="0.0"
     inkscape:pagecheckerboard="0"
     inkscape:deskcolor="#d1d1d1"
     showgrid="false"
     inkscape:zoom="3.2777778"
     inkscape:cx="-13.271186"
     inkscape:cy="36"
     inkscape:window-width="1309"
     inkscape:window-height="456"
     inkscape:window-x="0"
     inkscape:window-y="25"
     inkscape:window-maximized="0"
     inkscape:current-layer="emoji" />
  <path
     id="path106782"
     style="fill:#fcea2b"
     d="M 5,17 H 67 V 55 H 5 Z" />
  <path
     id="path106785"
     style="fill:#5c9e31"
     d="M 12,24 V 48 L 36,36 Z" />
  <path
     id="path106788"
     style="fill:#5c9e31"
     d="M 60,24 V 48 L 36,36 Z" />
  <path
     id="path106791"
     style="fill:#d22f27"
     d="m 41,36 a 5,5 0 0 1 -5,5 5,5 0 0 1 -5,-5 5,5 0 0 1 5,-5 5,5 0 0 1 5,5 z" />
  <path
     style="color:#000000;fill:#fcea2b;stroke-linecap:round;stroke-linejoin:round"
     d="m 33.5,35.41 h 5 l -4.045,3.09 1.545,-5 1.545,5 z"
     id="path106740" />
  <path
     style="color:#000000;fill:#fcea2b;stroke-linecap:round;stroke-linejoin:round"
     d="m 36,33 a 0.50005,0.50005 0 0 0 -0.478516,0.351562 l -0.482422,1.558594 H 33.5 a 0.50005,0.50005 0 0 0 -0.302734,0.896485 l 1.267578,0.966796 -0.488282,1.578125 a 0.50005,0.50005 0 0 0 0.78125,0.544922 L 36,37.947266 l 1.242187,0.949218 a 0.50005,0.50005 0 0 0 0.78125,-0.544922 l -0.488281,-1.578125 1.267578,-0.966796 A 0.50005,0.50005 0 0 0 38.5,34.910156 H 36.960937 L 36.478516,33.351562 A 0.50005,0.50005 0 0 0 36,33 Z m -0.220703,2.910156 h 0.441406 L 36.373047,36.40625 36,36.691406 35.626953,36.40625 Z"
     id="path106737" />
  <path
     fill="#d22f27"
     d="M 5,17 V 55 H 67 V 17 Z M 60,48 H 12 V 24 h 48 z"
     id="path106779" />
  <path
     style="color:#000000;fill:#fcea2b;stroke-linecap:round;stroke-linejoin:round"
     d="m 36.816,22.2 -2.2,-1.598 2.768,-0.067 -2.279,1.707 0.919,-2.695 z"
     id="path106746" />
  <path
     style="color:#000000;fill:#fcea2b;stroke-linecap:round;stroke-linejoin:round"
     d="m 36.033203,19.046875 a 0.50005,0.50005 0 0 0 -0.482422,0.337891 l -0.238281,0.699218 -0.708984,0.01758 a 0.50005,0.50005 0 0 0 -0.28125,0.904297 l 0.541015,0.392578 -0.232422,0.681641 a 0.50005,0.50005 0 0 0 0.773438,0.5625 l 0.576172,-0.431641 0.541015,0.394532 a 0.50005,0.50005 0 0 0 0.773438,-0.548828 l -0.203125,-0.677735 0.591797,-0.443359 a 0.50005,0.50005 0 0 0 -0.3125,-0.900391 l -0.673828,0.01563 -0.19336,-0.646484 a 0.50005,0.50005 0 0 0 -0.470703,-0.357422 z"
     id="path106743" />
  <path
     style="color:#000000;fill:#fcea2b;stroke-linecap:round;stroke-linejoin:round"
     d="m 46.816,22.2 -2.2,-1.598 2.768,-0.067 -2.279,1.707 0.919,-2.695 z"
     id="path106752" />
  <path
     style="color:#000000;fill:#fcea2b;stroke-linecap:round;stroke-linejoin:round"
     d="m 46.033203,19.046875 a 0.50005,0.50005 0 0 0 -0.482422,0.337891 l -0.238281,0.699218 -0.708984,0.01758 a 0.50005,0.50005 0 0 0 -0.28125,0.904297 l 0.541015,0.392578 -0.232422,0.681641 a 0.50005,0.50005 0 0 0 0.773438,0.5625 l 0.576172,-0.431641 0.541015,0.394532 a 0.50005,0.50005 0 0 0 0.773438,-0.548828 l -0.203125,-0.677735 0.591797,-0.443359 a 0.50005,0.50005 0 0 0 -0.3125,-0.900391 l -0.673828,0.01563 -0.19336,-0.646484 a 0.50005,0.50005 0 0 0 -0.470703,-0.357422 z"
     id="path106749" />
  <path
     style="color:#000000;fill:#fcea2b;stroke-linecap:round;stroke-linejoin:round"
     d="m 26.816,22.2 -2.2,-1.598 2.768,-0.067 -2.279,1.707 0.919,-2.695 z"
     id="path106758" />
  <path
     style="color:#000000;fill:#fcea2b;stroke-linecap:round;stroke-linejoin:round"
     d="m 26.033203,19.046875 a 0.50005,0.50005 0 0 0 -0.482422,0.337891 l -0.238281,0.699218 -0.708984,0.01758 a 0.50005,0.50005 0 0 0 -0.28125,0.904297 l 0.541015,0.392578 -0.232422,0.681641 a 0.50005,0.50005 0 0 0 0.773438,0.5625 l 0.576172,-0.431641 0.541015,0.394532 a 0.50005,0.50005 0 0 0 0.773438,-0.548828 l -0.203125,-0.677735 0.591797,-0.443359 a 0.50005,0.50005 0 0 0 -0.3125,-0.900391 l -0.673828,0.01563 -0.19336,-0.646484 a 0.50005,0.50005 0 0 0 -0.470703,-0.357422 z"
     id="path106755" />
  <path
     style="color:#000000;fill:#fcea2b;stroke-linecap:round;stroke-linejoin:round"
     d="m 36.816,52.2 -2.2,-1.598 2.768,-0.067 -2.279,1.707 0.919,-2.695 z"
     id="path106764" />
  <path
     style="color:#000000;fill:#fcea2b;stroke-linecap:round;stroke-linejoin:round"
     d="m 36.033203,49.046875 a 0.50005,0.50005 0 0 0 -0.482422,0.337891 l -0.238281,0.699218 -0.708984,0.01758 a 0.50005,0.50005 0 0 0 -0.28125,0.904297 l 0.541015,0.392578 -0.232422,0.681641 a 0.50005,0.50005 0 0 0 0.773438,0.5625 l 0.576172,-0.431641 0.541015,0.394532 a 0.50005,0.50005 0 0 0 0.773438,-0.548828 l -0.203125,-0.677735 0.591797,-0.443359 a 0.50005,0.50005 0 0 0 -0.3125,-0.900391 l -0.673828,0.01563 -0.19336,-0.646484 a 0.50005,0.50005 0 0 0 -0.470703,-0.357422 z"
     id="path106761" />
  <path
     style="color:#000000;fill:#fcea2b;stroke-linecap:round;stroke-linejoin:round"
     d="m 46.816,52.2 -2.2,-1.598 2.768,-0.067 -2.279,1.707 0.919,-2.695 z"
     id="path106770" />
  <path
     style="color:#000000;fill:#fcea2b;stroke-linecap:round;stroke-linejoin:round"
     d="m 46.033203,49.046875 a 0.50005,0.50005 0 0 0 -0.482422,0.337891 l -0.238281,0.699218 -0.708984,0.01758 a 0.50005,0.50005 0 0 0 -0.28125,0.904297 l 0.541015,0.392578 -0.232422,0.681641 a 0.50005,0.50005 0 0 0 0.773438,0.5625 l 0.576172,-0.431641 0.541015,0.394532 a 0.50005,0.50005 0 0 0 0.773438,-0.548828 l -0.203125,-0.677735 0.591797,-0.443359 a 0.50005,0.50005 0 0 0 -0.3125,-0.900391 l -0.673828,0.01563 -0.19336,-0.646484 a 0.50005,0.50005 0 0 0 -0.470703,-0.357422 z"
     id="path106767" />
  <path
     style="color:#000000;fill:#fcea2b;stroke-linecap:round;stroke-linejoin:round"
     d="m 26.816,52.2 -2.2,-1.598 2.768,-0.067 -2.279,1.707 0.919,-2.695 z"
     id="path106776" />
  <path
     style="color:#000000;fill:#fcea2b;stroke-linecap:round;stroke-linejoin:round"
     d="m 26.033203,49.046875 a 0.50005,0.50005 0 0 0 -0.482422,0.337891 l -0.238281,0.699218 -0.708984,0.01758 a 0.50005,0.50005 0 0 0 -0.28125,0.904297 l 0.541015,0.392578 -0.232422,0.681641 a 0.50005,0.50005 0 0 0 0.773438,0.5625 l 0.576172,-0.431641 0.541015,0.394532 a 0.50005,0.50005 0 0 0 0.773438,-0.548828 l -0.203125,-0.677735 0.591797,-0.443359 a 0.50005,0.50005 0 0 0 -0.3125,-0.900391 l -0.673828,0.01563 -0.19336,-0.646484 a 0.50005,0.50005 0 0 0 -0.470703,-0.357422 z"
     id="path106773" />
  <path
     style="color:#000000;fill:#fcea2b;stroke-linecap:round;stroke-linejoin:round;-inkscape-stroke:none"
     d="m 18.6308,37.9167 a 6.7812,6.7812 0 0 0 -1.258,-2.6215 6.7812,6.7812 0 0 0 2.6215,1.258 1.7666,1.7666 0 0 0 -1.5618,-2.1251 c -0.0249,-0.0023 -0.05,-0.0017 -0.0749,-0.003 l 0.0025,-0.0022 c -0.0212,0 -0.0414,0 -0.0623,0 -0.0284,-5e-4 -0.0566,-0.0012 -0.0849,0 a 5.7735,5.7735 0 0 1 -2.09,-0.3772 5.7764,5.7764 0 0 1 0.3771,2.0977 c -8e-4,0.0321 -6e-4,0.0642 0,0.0963 0,0.0145 0,0.0282 0,0.0428 l 0.0018,-0.0021 a 1.7633,1.7633 0 0 0 2.1285,1.6363 z"
     id="path106725" />
  <path
     style="color:#000000;fill:#fcea2b;stroke-linecap:round;stroke-linejoin:round;-inkscape-stroke:none"
     d="m 16.300781,33.578125 a 0.50005,0.50005 0 0 0 -0.644531,0.644531 c 0.23268,0.611817 0.348777,1.261467 0.34375,1.916016 -8.25e-4,0.03931 -6.33e-4,0.07745 0,0.111328 v 0.0332 a 0.50005,0.50005 0 0 0 0.01953,0.02734 l -0.01758,-0.0059 c 0.06854,1.367065 1.3538,2.348643 2.691406,2.091797 a 0.50005,0.50005 0 0 0 0.423828,-0.59375 c -0.125608,-0.53322 -0.463205,-0.975891 -0.703125,-1.464843 0.488972,0.239935 0.9316,0.575558 1.464844,0.701171 a 0.50005,0.50005 0 0 0 0.605469,-0.382812 C 20.763524,35.339365 19.820583,34.05643 18.480466,33.92964 a 0.50005,0.50005 0 0 0 -0.002,0 c -0.06348,-0.0059 -0.09627,-0.0039 -0.0957,-0.0039 l 0.0039,0.0098 a 0.50005,0.50005 0 0 0 -0.02734,-0.01172 h -0.05273 c -0.02204,-3.88e-4 -0.05797,-10e-4 -0.09766,0 -0.652167,0.0042 -1.298644,-0.113802 -1.908203,-0.345703 z m 0.431641,1.078125 c 0.491104,0.117712 0.977413,0.270833 1.484375,0.267578 a 0.50005,0.50005 0 0 0 0.01758,-0.002 c 0.006,-2.56e-4 0.0239,-5.42e-4 0.05469,0 a 0.50005,0.50005 0 0 0 0.0078,0.002 h 0.03516 0.02734 c 0.0085,2.05e-4 0.03069,0.0025 0.02539,0.002 0.481283,0.04554 0.785775,0.373853 0.96289,0.775391 -0.578981,-0.222589 -1.174846,-0.416825 -1.666015,-0.800781 a 0.50005,0.50005 0 0 0 -0.703125,0.703125 c 0.3816,0.488156 0.572661,1.081244 0.794921,1.65625 -0.412846,-0.185715 -0.746377,-0.503153 -0.771484,-1.003907 A 0.50005,0.50005 0 0 0 17,36.253906 v -0.01367 a 0.50005,0.50005 0 0 0 0,-0.0098 c -5.22e-4,-0.02795 -5.41e-4,-0.05249 0,-0.07422 a 0.50005,0.50005 0 0 0 0,-0.0098 c 0.0039,-0.509018 -0.149584,-0.997098 -0.267578,-1.490234 z"
     id="path106722" />
  <path
     style="color:#000000;fill:#d22f27;stroke-linecap:round;stroke-linejoin:round;-inkscape-stroke:none"
     d="m 18.8014,36.2773 a 1.77,1.77 0 0 1 0.4464,0.8929 1.5782,1.5782 0 0 1 -1.3393,-1.3393 1.77,1.77 0 0 1 0.8929,0.4464 z"
     id="path106731" />
  <path
     style="color:#000000;fill:#d22f27;stroke-linecap:round;stroke-linejoin:round;-inkscape-stroke:none"
     d="m 17.996094,35.337891 a 0.50005,0.50005 0 0 0 -0.582032,0.564453 c 0.130249,0.912301 0.851372,1.633423 1.763672,1.763672 a 0.50005,0.50005 0 0 0 0.5625,-0.583985 c -0.077,-0.428694 -0.27554,-0.825685 -0.572265,-1.144531 a 0.50005,0.50005 0 0 0 -0.02539,-0.02539 c -0.318846,-0.296724 -0.71779,-0.497215 -1.146484,-0.574218 z"
     id="path106728" />
  <path
     style="color:#000000;fill:#000000;stroke-linecap:round;stroke-linejoin:round;-inkscape-stroke:none"
     d="m 5,16 a 1.0001,1.0001 0 0 0 -1,1 v 38 a 1.0001,1.0001 0 0 0 1,1 h 62 a 1.0001,1.0001 0 0 0 1,-1 V 17 a 1.0001,1.0001 0 0 0 -1,-1 z m 1,2 H 66 V 54 H 6 Z"
     id="path106734" />
</svg>
