<?xml version="1.0" encoding="UTF-8" standalone="no"?>
<svg
   id="emoji"
   viewBox="0 0 72 72"
   version="1.1"
   sodipodi:docname="Guam.svg"
   inkscape:version="1.2 (dc2aeda, 2022-05-15)"
   xmlns:inkscape="http://www.inkscape.org/namespaces/inkscape"
   xmlns:sodipodi="http://sodipodi.sourceforge.net/DTD/sodipodi-0.dtd"
   xmlns="http://www.w3.org/2000/svg"
   xmlns:svg="http://www.w3.org/2000/svg">
  <defs
     id="defs107253" />
  <sodipodi:namedview
     id="namedview107251"
     pagecolor="#ffffff"
     bordercolor="#000000"
     borderopacity="0.25"
     inkscape:showpageshadow="2"
     inkscape:pageopacity="0.0"
     inkscape:pagecheckerboard="0"
     inkscape:deskcolor="#d1d1d1"
     showgrid="false"
     inkscape:zoom="3.2777778"
     inkscape:cx="-13.271186"
     inkscape:cy="36"
     inkscape:window-width="1309"
     inkscape:window-height="456"
     inkscape:window-x="0"
     inkscape:window-y="25"
     inkscape:window-maximized="0"
     inkscape:current-layer="emoji" />
  <path
     id="path107447"
     style="fill:#1e50a0"
     d="M 5,17 H 67 V 55 H 5 Z" />
  <path
     style="color:#000000;fill:#92d3f5;stroke-linecap:round;stroke-linejoin:round;-inkscape-stroke:none"
     d="M 36.0018,46.5 A 11.7362,11.7362 0 0 0 42,36.0005 11.736,11.736 0 0 0 36,25.5 11.736,11.736 0 0 0 30,36.0005 11.7364,11.7364 0 0 0 35.9982,46.5 Z"
     id="path107429" />
  <path
     style="color:#000000;fill:#d22f27;stroke-linecap:round;stroke-linejoin:round;-inkscape-stroke:none"
     d="m 35.755859,25.064453 c -3.945937,2.209152 -6.350412,6.416824 -6.253906,10.9375 -0.09565,4.519126 2.307725,8.724382 6.251953,10.933594 A 0.50005,0.50005 0 0 0 35.998047,47 h 0.0039 a 0.50005,0.50005 0 0 0 0.244141,-0.06445 c 3.944265,-2.209179 6.347653,-6.414453 6.251953,-10.933594 0.09651,-4.520676 -2.307969,-8.728348 -6.253906,-10.9375 a 0.50005,0.50005 0 0 0 -0.488282,0 z M 36,26.119141 c 3.467575,2.06867 5.589855,5.818293 5.5,9.871093 a 0.50005,0.50005 0 0 0 0,0.02148 c 0.08981,4.05258 -2.032661,7.800354 -5.5,9.86914 -3.467313,-2.068816 -5.589769,-5.816568 -5.5,-9.86914 a 0.50005,0.50005 0 0 0 0,-0.02148 c -0.08986,-4.0528 2.032425,-7.802423 5.5,-9.871093 z"
     id="path107426" />
  <path
     fill="#fcea2b"
     d="m 30.64,40 a 11.2419,11.2419 0 0 0 5.3581,6.5 h 0.0035 A 11.2419,11.2419 0 0 0 41.36,40 Z"
     id="path107444" />
  <path
     style="color:#000000;fill:#d22f27;stroke-miterlimit:10"
     d="m 6,18 v 1 35 H 66 V 18 Z m 2,2 H 64 V 52 H 8 Z"
     id="path107438" />
  <path
     style="color:#000000;fill:#1e50a0;stroke-linecap:round;stroke-linejoin:round"
     d="m 28,38 a 1,1 0 0 0 -1,1 1,1 0 0 0 1,1 h 16 a 1,1 0 0 0 1,-1 1,1 0 0 0 -1,-1 z"
     id="path107441" />
  <path
     style="color:#000000;fill:#d22f27;stroke-linecap:round;stroke-linejoin:round;-inkscape-stroke:none"
     d="M 35.511719,24.626953 C 31.409235,26.923748 28.906573,31.300588 29.001953,36 c -0.09601,4.699328 2.405935,9.075534 6.507813,11.373047 A 1.0001,1.0001 0 0 0 35.998047,47.5 h 0.0039 a 1.0001,1.0001 0 0 0 0.488281,-0.126953 C 40.592153,45.075566 43.09411,40.699346 42.998047,36 43.093427,31.300588 40.590765,26.923748 36.488281,24.626953 a 1.0001,1.0001 0 0 0 -0.976562,0 z M 36,26.742187 c 3.148604,2.009433 5.083463,5.471837 5,9.236329 a 1.0001,1.0001 0 0 0 0,0.04492 c 0.08343,3.764777 -1.850879,7.226928 -5,9.236329 -3.1491,-2.009428 -5.083394,-5.471556 -5,-9.236329 a 1.0001,1.0001 0 0 0 0,-0.04492 c -0.08346,-3.764492 1.851396,-7.226896 5,-9.236329 z"
     id="path107432" />
  <path
     style="color:#000000;fill:#000000;stroke-linecap:round;stroke-linejoin:round"
     d="m 5,16 a 1.0001,1.0001 0 0 0 -1,1 v 38 a 1.0001,1.0001 0 0 0 1,1 h 62 a 1.0001,1.0001 0 0 0 1,-1 V 17 a 1.0001,1.0001 0 0 0 -1,-1 z m 1,2 H 66 V 54 H 6 Z"
     id="path107435" />
</svg>
