<?xml version="1.0" encoding="UTF-8" standalone="no"?>
<svg
   id="emoji"
   viewBox="0 0 72 72"
   version="1.1"
   sodipodi:docname="Guernsey.svg"
   inkscape:version="1.2 (dc2aeda, 2022-05-15)"
   xmlns:inkscape="http://www.inkscape.org/namespaces/inkscape"
   xmlns:sodipodi="http://sodipodi.sourceforge.net/DTD/sodipodi-0.dtd"
   xmlns="http://www.w3.org/2000/svg"
   xmlns:svg="http://www.w3.org/2000/svg">
  <defs
     id="defs107716" />
  <sodipodi:namedview
     id="namedview107714"
     pagecolor="#ffffff"
     bordercolor="#000000"
     borderopacity="0.25"
     inkscape:showpageshadow="2"
     inkscape:pageopacity="0.0"
     inkscape:pagecheckerboard="0"
     inkscape:deskcolor="#d1d1d1"
     showgrid="false"
     inkscape:zoom="3.2777778"
     inkscape:cx="-13.271186"
     inkscape:cy="36"
     inkscape:window-width="1309"
     inkscape:window-height="456"
     inkscape:window-x="0"
     inkscape:window-y="25"
     inkscape:window-maximized="0"
     inkscape:current-layer="emoji" />
  <path
     id="path107889"
     style="fill:#ffffff"
     d="M 5,17 H 67 V 55 H 5 Z" />
  <path
     style="color:#000000;fill:#d22f27;stroke-width:2;stroke-miterlimit:10;-inkscape-stroke:none"
     d="M 39,17 H 33 V 33 H 5 v 6 h 28 v 16 h 6 V 39 H 67 V 33 H 39 Z"
     id="path107877" />
  <path
     style="color:#000000;fill:#d22f27;stroke-miterlimit:10;-inkscape-stroke:none"
     d="M 32,16 V 32 H 4 v 8 h 28 v 16 h 8 V 40 H 68 V 32 H 40 V 16 h -1 z m 2,2 h 4 v 16 h 28 v 4 H 38 V 54 H 34 V 38 H 6 v -4 h 28 z"
     id="path107874" />
  <path
     style="color:#000000;fill:#fcea2b;stroke-linejoin:round"
     d="M 37.316,22 H 34.684 V 34.684 H 22.042 v 2.632 H 34.684 V 50 h 2.632 V 37.316 H 49.958 V 34.684 H 37.316 Z"
     id="path107883" />
  <path
     style="color:#000000;fill:#fcea2b;stroke-linejoin:round"
     d="m 34.683594,21.5 a 0.50005,0.50005 0 0 0 -0.5,0.5 V 34.183594 H 22.042969 a 0.50005,0.50005 0 0 0 -0.5,0.5 v 2.632812 a 0.50005,0.50005 0 0 0 0.5,0.5 H 34.183594 V 50 a 0.50005,0.50005 0 0 0 0.5,0.5 h 2.632812 a 0.50005,0.50005 0 0 0 0.5,-0.5 V 37.816406 h 12.140625 a 0.50005,0.50005 0 0 0 0.5,-0.5 v -2.632812 a 0.50005,0.50005 0 0 0 -0.5,-0.5 H 37.816406 V 22 a 0.50005,0.50005 0 0 0 -0.5,-0.5 z m 0.5,1 h 1.632812 v 12.183594 a 0.50005,0.50005 0 0 0 0.5,0.5 h 12.140625 v 1.632812 H 37.316406 a 0.50005,0.50005 0 0 0 -0.5,0.5 V 49.5 H 35.183594 V 37.316406 a 0.50005,0.50005 0 0 0 -0.5,-0.5 H 22.542969 v -1.632812 h 12.140625 a 0.50005,0.50005 0 0 0 0.5,-0.5 z"
     id="path107880" />
  <path
     style="color:#000000;fill:#000000;stroke-linecap:round;stroke-linejoin:round"
     d="m 5,16 a 1.0001,1.0001 0 0 0 -1,1 v 38 a 1.0001,1.0001 0 0 0 1,1 h 62 a 1.0001,1.0001 0 0 0 1,-1 V 17 a 1.0001,1.0001 0 0 0 -1,-1 z m 1,2 H 66 V 54 H 6 Z"
     id="path107886" />
</svg>
