<?xml version="1.0" encoding="UTF-8" standalone="no"?>
<svg
   id="emoji"
   viewBox="0 0 72 72"
   version="1.1"
   sodipodi:docname="Guinea Bissau.svg"
   inkscape:version="1.2 (dc2aeda, 2022-05-15)"
   xmlns:inkscape="http://www.inkscape.org/namespaces/inkscape"
   xmlns:sodipodi="http://sodipodi.sourceforge.net/DTD/sodipodi-0.dtd"
   xmlns="http://www.w3.org/2000/svg"
   xmlns:svg="http://www.w3.org/2000/svg">
  <defs
     id="defs107919" />
  <sodipodi:namedview
     id="namedview107917"
     pagecolor="#ffffff"
     bordercolor="#000000"
     borderopacity="0.25"
     inkscape:showpageshadow="2"
     inkscape:pageopacity="0.0"
     inkscape:pagecheckerboard="0"
     inkscape:deskcolor="#d1d1d1"
     showgrid="false"
     inkscape:zoom="3.2777778"
     inkscape:cx="-13.271186"
     inkscape:cy="36"
     inkscape:window-width="1309"
     inkscape:window-height="456"
     inkscape:window-x="0"
     inkscape:window-y="25"
     inkscape:window-maximized="0"
     inkscape:current-layer="emoji" />
  <path
     id="path108086"
     style="fill:#fcea2b"
     d="M 5,17 H 67 V 55 H 5 Z" />
  <path
     id="path108089"
     style="fill:#5c9e31"
     d="M 5,36 H 67 V 55 H 5 Z" />
  <path
     id="path108092"
     style="fill:#d22f27"
     d="M 5,17 H 26 V 55 H 5 Z" />
  <path
     style="color:#000000;fill:#000000;stroke-linecap:round;stroke-linejoin:round"
     d="m 13,35.41 h 5 l -4.045,3.09 1.545,-5 1.545,5 z"
     id="path108083" />
  <path
     style="color:#000000;fill:#000000;stroke-linecap:round;stroke-linejoin:round"
     d="m 15.5,33 a 0.50005,0.50005 0 0 0 -0.478516,0.351562 l -0.482421,1.558594 H 13 a 0.50005,0.50005 0 0 0 -0.302734,0.896485 l 1.267578,0.966796 -0.488281,1.578125 a 0.50005,0.50005 0 0 0 0.78125,0.544922 L 15.5,37.947266 l 1.242187,0.949218 a 0.50005,0.50005 0 0 0 0.78125,-0.544922 l -0.488281,-1.578125 1.267578,-0.966796 A 0.50005,0.50005 0 0 0 18,34.910156 H 16.460937 L 15.978516,33.351562 A 0.50005,0.50005 0 0 0 15.5,33 Z m -0.220703,2.910156 h 0.441406 L 15.873047,36.40625 15.5,36.691406 15.126953,36.40625 Z"
     id="path108080" />
  <path
     style="color:#000000;fill:#000000;stroke-linecap:round;stroke-linejoin:round;-inkscape-stroke:none"
     d="m 5,16 a 1.0001,1.0001 0 0 0 -1,1 v 38 a 1.0001,1.0001 0 0 0 1,1 h 62 a 1.0001,1.0001 0 0 0 1,-1 V 17 a 1.0001,1.0001 0 0 0 -1,-1 z m 1,2 H 66 V 54 H 6 Z"
     id="path108077" />
</svg>
