<?xml version="1.0" encoding="UTF-8" standalone="no"?>
<svg
   id="emoji"
   viewBox="0 0 72 72"
   version="1.1"
   sodipodi:docname="Guyana.svg"
   inkscape:version="1.2 (dc2aeda, 2022-05-15)"
   xmlns:inkscape="http://www.inkscape.org/namespaces/inkscape"
   xmlns:sodipodi="http://sodipodi.sourceforge.net/DTD/sodipodi-0.dtd"
   xmlns="http://www.w3.org/2000/svg"
   xmlns:svg="http://www.w3.org/2000/svg">
  <defs
     id="defs108295" />
  <sodipodi:namedview
     id="namedview108293"
     pagecolor="#ffffff"
     bordercolor="#000000"
     borderopacity="0.25"
     inkscape:showpageshadow="2"
     inkscape:pageopacity="0.0"
     inkscape:pagecheckerboard="0"
     inkscape:deskcolor="#d1d1d1"
     showgrid="false"
     inkscape:zoom="3.2777778"
     inkscape:cx="-13.271186"
     inkscape:cy="36"
     inkscape:window-width="1309"
     inkscape:window-height="456"
     inkscape:window-x="0"
     inkscape:window-y="25"
     inkscape:window-maximized="0"
     inkscape:current-layer="emoji" />
  <path
     id="path108468"
     style="fill:#5c9e31"
     d="M 5,17 H 67 V 55 H 5 Z" />
  <path
     style="color:#000000;fill:#fcea2b;stroke-width:2;stroke-linecap:round;stroke-linejoin:round"
     d="M 5,17 66,36 5,55 Z"
     id="path108459" />
  <path
     style="color:#000000;fill:#ffffff;stroke-linecap:round;stroke-linejoin:round"
     d="M 5.296875,16.044922 A 1.0001,1.0001 0 0 0 4,17 v 38 a 1.0001,1.0001 0 0 0 1.296875,0.955078 l 61,-19 a 1.0001,1.0001 0 0 0 0,-1.910156 z M 6,18.359375 62.636719,36 6,53.640625 Z"
     id="path108456" />
  <path
     style="color:#000000;fill:#d22f27;stroke-width:2;stroke-linecap:round;stroke-linejoin:round"
     d="M 5,17 26,36 5,55 Z"
     id="path108465" />
  <path
     style="color:#000000;fill:#000000;stroke-linecap:round;stroke-linejoin:round"
     d="M 4.59375,16.085937 A 1.0001,1.0001 0 0 0 4,17 v 38 a 1.0001,1.0001 0 0 0 1.671875,0.742187 l 21,-19 a 1.0001,1.0001 0 0 0 0,-1.484375 l -21,-19 A 1.0001,1.0001 0 0 0 4.59375,16.085937 Z M 6,19.253906 24.507812,36 6,52.746094 Z"
     id="path108462" />
  <path
     style="color:#000000;fill:#000000;stroke-linecap:round;stroke-linejoin:round;-inkscape-stroke:none"
     d="m 5,16 a 1.0001,1.0001 0 0 0 -1,1 v 38 a 1.0001,1.0001 0 0 0 1,1 h 62 a 1.0001,1.0001 0 0 0 1,-1 V 17 a 1.0001,1.0001 0 0 0 -1,-1 z m 1,2 H 66 V 54 H 6 Z"
     id="path108453" />
</svg>
