<?xml version="1.0" encoding="UTF-8" standalone="no"?>
<svg
   id="emoji"
   viewBox="0 0 72 72"
   version="1.1"
   sodipodi:docname="Haiti.svg"
   inkscape:version="1.2 (dc2aeda, 2022-05-15)"
   xmlns:inkscape="http://www.inkscape.org/namespaces/inkscape"
   xmlns:sodipodi="http://sodipodi.sourceforge.net/DTD/sodipodi-0.dtd"
   xmlns="http://www.w3.org/2000/svg"
   xmlns:svg="http://www.w3.org/2000/svg">
  <defs
     id="defs108506" />
  <sodipodi:namedview
     id="namedview108504"
     pagecolor="#ffffff"
     bordercolor="#000000"
     borderopacity="0.25"
     inkscape:showpageshadow="2"
     inkscape:pageopacity="0.0"
     inkscape:pagecheckerboard="0"
     inkscape:deskcolor="#d1d1d1"
     showgrid="false"
     inkscape:zoom="3.2777778"
     inkscape:cx="-13.271186"
     inkscape:cy="36"
     inkscape:window-width="1309"
     inkscape:window-height="456"
     inkscape:window-x="0"
     inkscape:window-y="25"
     inkscape:window-maximized="0"
     inkscape:current-layer="emoji" />
  <path
     id="path108705"
     style="fill:#1e50a0"
     d="M 5,17 H 67 V 55 H 5 Z" />
  <path
     id="path108708"
     style="fill:#d22f27"
     d="M 5,36 H 67 V 55 H 5 Z" />
  <path
     id="path108711"
     style="fill:#ffffff"
     d="M 29,29 H 43 V 43 H 29 Z" />
  <path
     style="color:#000000;fill:#a57939;stroke-linecap:round;stroke-linejoin:round"
     d="m 36,32 a 1,1 0 0 0 -1,1 v 8 a 1,1 0 0 0 1,1 1,1 0 0 0 1,-1 v -8 a 1,1 0 0 0 -1,-1 z"
     id="path108693" />
  <path
     style="color:#000000;fill:#a57939;stroke-linecap:round;stroke-linejoin:round"
     d="m 40,35.5 a 1.5,1.5 0 0 0 -1.060547,0.439453 l -4,4 a 1.5,1.5 0 0 0 0,2.121094 1.5,1.5 0 0 0 2.121094,0 l 4,-4 a 1.5,1.5 0 0 0 0,-2.121094 A 1.5,1.5 0 0 0 40,35.5 Z"
     id="path108696" />
  <path
     style="color:#000000;fill:#a57939;stroke-linecap:round;stroke-linejoin:round"
     d="m 32,35.5 a 1.5,1.5 0 0 0 -1.060547,0.439453 1.5,1.5 0 0 0 0,2.121094 l 4,4 a 1.5,1.5 0 0 0 2.121094,0 1.5,1.5 0 0 0 0,-2.121094 l -4,-4 A 1.5,1.5 0 0 0 32,35.5 Z"
     id="path108699" />
  <path
     style="color:#000000;fill:#5c9e31;stroke-linecap:round;stroke-linejoin:round"
     d="m 33,31 a 1,1 0 0 0 -1,1 1,1 0 0 0 1,1 h 6 a 1,1 0 0 0 1,-1 1,1 0 0 0 -1,-1 z"
     id="path108702" />
  <path
     id="path108714"
     style="fill:#5c9e31"
     d="m 29,41 h 14 v 2 H 29 Z" />
  <path
     style="color:#000000;fill:#000000;stroke-linecap:round;stroke-linejoin:round;-inkscape-stroke:none"
     d="m 5,16 a 1.0001,1.0001 0 0 0 -1,1 v 38 a 1.0001,1.0001 0 0 0 1,1 h 62 a 1.0001,1.0001 0 0 0 1,-1 V 17 a 1.0001,1.0001 0 0 0 -1,-1 z m 1,2 H 66 V 54 H 6 Z"
     id="path108690" />
</svg>
