<?xml version="1.0" encoding="UTF-8" standalone="no"?>
<svg
   id="emoji"
   viewBox="0 0 72 72"
   version="1.1"
   sodipodi:docname="Honduras.svg"
   inkscape:version="1.2 (dc2aeda, 2022-05-15)"
   xmlns:inkscape="http://www.inkscape.org/namespaces/inkscape"
   xmlns:sodipodi="http://sodipodi.sourceforge.net/DTD/sodipodi-0.dtd"
   xmlns="http://www.w3.org/2000/svg"
   xmlns:svg="http://www.w3.org/2000/svg">
  <defs
     id="defs110055" />
  <sodipodi:namedview
     id="namedview110053"
     pagecolor="#ffffff"
     bordercolor="#000000"
     borderopacity="0.25"
     inkscape:showpageshadow="2"
     inkscape:pageopacity="0.0"
     inkscape:pagecheckerboard="0"
     inkscape:deskcolor="#d1d1d1"
     showgrid="false"
     inkscape:zoom="3.2777778"
     inkscape:cx="-13.271186"
     inkscape:cy="36"
     inkscape:window-width="1309"
     inkscape:window-height="456"
     inkscape:window-x="0"
     inkscape:window-y="25"
     inkscape:window-maximized="0"
     inkscape:current-layer="emoji" />
  <path
     id="path110234"
     style="fill:#ffffff"
     d="M 5,17 H 67 V 55 H 5 Z" />
  <path
     id="path110237"
     style="fill:#61b2e4"
     d="M 5,17 H 67 V 30 H 5 Z" />
  <path
     id="path110240"
     style="fill:#61b2e4"
     d="M 5,42 H 67 V 55 H 5 Z" />
  <path
     id="path110243"
     style="fill:#61b2e4"
     d="M 37.5,36 A 1.5,1.5 0 0 1 36,37.5 1.5,1.5 0 0 1 34.5,36 1.5,1.5 0 0 1 36,34.5 1.5,1.5 0 0 1 37.5,36 Z" />
  <path
     id="path110246"
     style="fill:#61b2e4"
     d="M 44.5,39 A 1.5,1.5 0 0 1 43,40.5 1.5,1.5 0 0 1 41.5,39 1.5,1.5 0 0 1 43,37.5 1.5,1.5 0 0 1 44.5,39 Z" />
  <path
     id="path110249"
     style="fill:#61b2e4"
     d="M 44.5,33 A 1.5,1.5 0 0 1 43,34.5 1.5,1.5 0 0 1 41.5,33 1.5,1.5 0 0 1 43,31.5 1.5,1.5 0 0 1 44.5,33 Z" />
  <path
     id="path110252"
     style="fill:#61b2e4"
     d="M 30.5,39 A 1.5,1.5 0 0 1 29,40.5 1.5,1.5 0 0 1 27.5,39 1.5,1.5 0 0 1 29,37.5 1.5,1.5 0 0 1 30.5,39 Z" />
  <path
     id="path110255"
     style="fill:#61b2e4"
     d="M 30.5,33 A 1.5,1.5 0 0 1 29,34.5 1.5,1.5 0 0 1 27.5,33 1.5,1.5 0 0 1 29,31.5 1.5,1.5 0 0 1 30.5,33 Z" />
  <path
     style="color:#000000;fill:#000000;stroke-linecap:round;stroke-linejoin:round;-inkscape-stroke:none"
     d="m 5,16 a 1.0001,1.0001 0 0 0 -1,1 v 38 a 1.0001,1.0001 0 0 0 1,1 h 62 a 1.0001,1.0001 0 0 0 1,-1 V 17 a 1.0001,1.0001 0 0 0 -1,-1 z m 1,2 H 66 V 54 H 6 Z"
     id="path110231" />
</svg>
