<?xml version="1.0" encoding="UTF-8" standalone="no"?>
<svg
   id="emoji"
   viewBox="0 0 72 72"
   version="1.1"
   sodipodi:docname="Hong Kong SAR China.svg"
   inkscape:version="1.2 (dc2aeda, 2022-05-15)"
   xmlns:inkscape="http://www.inkscape.org/namespaces/inkscape"
   xmlns:sodipodi="http://sodipodi.sourceforge.net/DTD/sodipodi-0.dtd"
   xmlns="http://www.w3.org/2000/svg"
   xmlns:svg="http://www.w3.org/2000/svg">
  <defs
     id="defs110298" />
  <sodipodi:namedview
     id="namedview110296"
     pagecolor="#ffffff"
     bordercolor="#000000"
     borderopacity="0.25"
     inkscape:showpageshadow="2"
     inkscape:pageopacity="0.0"
     inkscape:pagecheckerboard="0"
     inkscape:deskcolor="#d1d1d1"
     showgrid="false"
     inkscape:zoom="3.2777778"
     inkscape:cx="13.576271"
     inkscape:cy="40.881356"
     inkscape:window-width="1309"
     inkscape:window-height="456"
     inkscape:window-x="0"
     inkscape:window-y="25"
     inkscape:window-maximized="0"
     inkscape:current-layer="emoji" />
  <path
     id="path113898"
     style="fill:#d22f27"
     d="M 5,17 H 67 V 55 H 5 Z" />
  <path
     style="color:#000000;fill:#ffffff;stroke-linecap:round;stroke-linejoin:round;-inkscape-stroke:none"
     d="m 36.7,31.62 c 0.9815,-0.658 1.256,-2.365 0.7196,-3.238 -0.5361,-0.8724 -0.3786,-2.135 -0.1436,-2.686 -5.763,1.337 -5.569,7.762 -2.637,9.448 -0.3602,-2.147 1.079,-2.866 2.061,-3.524 z"
     id="path113901" />
  <path
     style="color:#000000;fill:#ffffff;stroke-linecap:round;stroke-linejoin:round;-inkscape-stroke:none"
     d="m 37.162109,25.208984 c -6.10892,1.417253 -6.171085,8.414255 -2.771484,10.369141 a 0.50005,0.50005 0 0 0 0.742187,-0.517578 c -0.160613,-0.957352 0.05887,-1.480291 0.419922,-1.917969 0.361056,-0.437678 0.910908,-0.762425 1.425782,-1.107422 0.63895,-0.428354 0.996428,-1.138183 1.140625,-1.855469 0.144196,-0.717285 0.09078,-1.465831 -0.273438,-2.058593 -0.200281,-0.32592 -0.288617,-0.772787 -0.287109,-1.201172 0.0015,-0.428386 0.09849,-0.841534 0.177734,-1.027344 a 0.50005,0.50005 0 0 0 -0.574219,-0.683594 z m -0.521484,1.257813 c -0.01897,0.162046 -0.08141,0.271939 -0.08203,0.449219 -0.002,0.558763 0.09973,1.182036 0.435547,1.728515 0.172187,0.280238 0.248859,0.818927 0.144531,1.337891 -0.104328,0.518964 -0.374248,0.993011 -0.716797,1.222656 -0.467125,0.313003 -1.126632,0.67771 -1.640625,1.300781 -0.287645,0.348688 -0.482679,0.809201 -0.591797,1.335938 -1.569118,-1.957184 -1.504182,-5.960339 2.451171,-7.375 z"
     id="path113904" />
  <path
     id="path113907"
     style="fill:#d22f27;fill-rule:evenodd"
     d="m 36.189999,29.67 a 0.75,0.75 0 0 1 -0.75,0.75 0.75,0.75 0 0 1 -0.75,-0.75 0.75,0.75 0 0 1 0.75,-0.75 0.75,0.75 0 0 1 0.75,0.75 z" />
  <path
     style="color:#000000;fill:#ffffff;stroke-linecap:round;stroke-linejoin:round;-inkscape-stroke:none"
     d="m 40.47,36.18 c 0.9291,0.7302 2.638,0.4633 3.302,-0.3161 0.664,-0.7794 1.913,-1.02 2.51,-0.9667 -3.052,-5.067 -9.103,-2.898 -9.8,0.4118 1.931,-1.006 3.059,0.1408 3.988,0.871 z"
     id="path113910" />
  <path
     style="color:#000000;fill:#ffffff;stroke-linecap:round;stroke-linejoin:round;-inkscape-stroke:none"
     d="m 42.111328,31.445312 c -2.816203,-0.358721 -5.614036,1.361207 -6.119141,3.759766 a 0.50005,0.50005 0 0 0 0.720704,0.546875 c 0.861075,-0.448597 1.427374,-0.401491 1.955078,-0.193359 0.527704,0.208131 1.005003,0.630742 1.492187,1.013672 0.604917,0.475417 1.390399,0.596278 2.117188,0.511718 0.726788,-0.08456 1.423953,-0.367048 1.875,-0.896484 0.248107,-0.291227 0.644942,-0.511605 1.052734,-0.642578 0.407792,-0.130973 0.83184,-0.168368 1.033203,-0.150391 a 0.50005,0.50005 0 0 0 0.472656,-0.755859 C 45.49772,32.624461 43.80105,31.660545 42.111328,31.445312 Z m -1.554687,1.009766 c 1.598976,-0.278734 3.400693,0.27135 4.794921,2.076172 -0.159991,0.03205 -0.284336,0.0063 -0.453125,0.06055 -0.531957,0.170852 -1.09192,0.459094 -1.507812,0.947265 -0.212953,0.249964 -0.70258,0.491544 -1.228516,0.552735 -0.525935,0.06119 -1.05863,-0.04991 -1.382812,-0.304688 -0.441815,-0.347269 -0.992846,-0.861885 -1.744141,-1.158203 -0.420848,-0.165986 -0.919789,-0.207728 -1.455078,-0.148437 0.628577,-0.959076 1.630241,-1.7907 2.976563,-2.025391 z"
     id="path113913" />
  <path
     id="path113916"
     style="fill:#d22f27;fill-rule:evenodd"
     d="M 42.1663 35.0872 C 41.9771 35.1487 41.7713 35.1325 41.594 35.0421 C 41.4168 34.9518 41.2827 34.7948 41.2212 34.6057 C 41.1598 34.4165 41.176 34.2106 41.2663 34.0334 C 41.3566 33.8562 41.5136 33.7221 41.7028 33.6606 C 41.892 33.5991 42.0978 33.6153 42.275 33.7056 C 42.4523 33.7959 42.5864 33.953 42.6478 34.1421 C 42.7093 34.3313 42.6931 34.5372 42.6028 34.7144 C 42.5125 34.8916 42.3555 35.0257 42.1663 35.0872 Z" />
  <path
     style="color:#000000;fill:#ffffff;stroke-linecap:round;stroke-linejoin:round;-inkscape-stroke:none"
     d="m 37.3,41.17 c -0.4073,1.109 0.3744,2.652 1.321,3.042 0.9464,0.3907 1.561,1.505 1.695,2.089 3.876,-4.469 -0.0571,-9.553 -3.42,-9.193 1.554,1.526 0.8113,2.953 0.404,4.062 z"
     id="path113919" />
  <path
     style="color:#000000;fill:#ffffff;stroke-linecap:round;stroke-linejoin:round;-inkscape-stroke:none"
     d="m 36.84375,36.611328 a 0.50005,0.50005 0 0 0 -0.298828,0.853516 c 0.692995,0.680508 0.823996,1.232685 0.789062,1.798828 -0.03493,0.566143 -0.290276,1.152701 -0.503906,1.734375 -0.265208,0.722111 -0.137026,1.506824 0.167969,2.171875 0.304995,0.66505 0.788423,1.2389 1.43164,1.503906 0.353513,0.14594 0.686912,0.455181 0.9375,0.802734 0.250589,0.347554 0.4157,0.738392 0.460938,0.935547 a 0.50005,0.50005 0 0 0 0.865234,0.216797 c 4.108673,-4.73727 0.0497,-10.435001 -3.849609,-10.017578 z m 1.181641,1.285156 c 2.41965,0.660446 4.719104,3.936926 2.351562,7.40625 -0.07988,-0.14222 -0.09361,-0.268347 -0.197266,-0.412109 C 39.852877,44.437355 39.405386,43.99476 38.8125,43.75 a 0.50005,0.50005 0 0 0 -0.002,0 c -0.303382,-0.124993 -0.681664,-0.516848 -0.902344,-0.998047 -0.220679,-0.481198 -0.280763,-1.023269 -0.138672,-1.410156 0.19367,-0.527325 0.512759,-1.209519 0.5625,-2.015625 0.02785,-0.451351 -0.08503,-0.939078 -0.30664,-1.429688 z"
     id="path113922" />
  <path
     id="path113925"
     style="fill:#d22f27;fill-rule:evenodd"
     d="M 38.8676 42.4518 C 38.7507 42.2909 38.7025 42.0901 38.7336 41.8936 C 38.7647 41.6972 38.8726 41.5211 39.0335 41.4042 C 39.1944 41.2873 39.3952 41.2391 39.5917 41.2702 C 39.7881 41.3013 39.9642 41.4092 40.0811 41.5701 C 40.198 41.731 40.2462 41.9318 40.2151 42.1283 C 40.184 42.3247 40.0761 42.5008 39.9152 42.6177 C 39.7543 42.7346 39.5535 42.7828 39.357 42.7517 C 39.1605 42.7206 38.9845 42.6127 38.8676 42.4518 Z" />
  <path
     style="color:#000000;fill:#ffffff;stroke-linecap:round;stroke-linejoin:round;-inkscape-stroke:none"
     d="m 31.57,39.7 c -1.181,-0.04461 -2.406,1.176 -2.485,2.196 -0.07908,1.021 -0.9486,1.95 -1.463,2.258 5.448,2.306 9.068,-3.006 7.686,-6.094 -0.9708,1.949 -2.558,1.684 -3.738,1.639 z"
     id="path113928" />
  <path
     style="color:#000000;fill:#ffffff;stroke-linecap:round;stroke-linejoin:round;-inkscape-stroke:none"
     d="m 35.318359,37.560547 a 0.50005,0.50005 0 0 0 -0.457031,0.277344 c -0.432882,0.869064 -0.919481,1.162966 -1.46875,1.304687 -0.549268,0.141722 -1.183918,0.08024 -1.802734,0.05664 a 0.50005,0.50005 0 0 0 -0.375,0.15625 c -0.603806,0.08812 -1.200742,0.272483 -1.638672,0.675781 -0.538115,0.49556 -0.936556,1.133106 -0.990235,1.826172 -0.02955,0.381469 -0.219593,0.794856 -0.472656,1.140625 -0.253063,0.345768 -0.574409,0.622596 -0.748047,0.726562 a 0.50005,0.50005 0 0 0 0.0625,0.890625 c 5.77504,2.444428 9.938259,-3.179469 8.335938,-6.759765 a 0.50005,0.50005 0 0 0 -0.445313,-0.294921 z m -0.412109,1.818359 c 0.118833,2.505701 -2.286439,5.704603 -6.316406,4.525391 0.11076,-0.120095 0.225234,-0.173155 0.330078,-0.316406 0.330066,-0.450981 0.614529,-1.012814 0.664062,-1.652344 0.02532,-0.326933 0.280538,-0.811331 0.669922,-1.169922 0.389385,-0.358591 0.88478,-0.581972 1.296875,-0.566406 0.561182,0.0214 1.309767,0.113887 2.091797,-0.08789 0.437685,-0.112931 0.865692,-0.370377 1.263672,-0.732423 z"
     id="path113931" />
  <path
     id="path113934"
     style="fill:#d22f27;fill-rule:evenodd"
     d="M 30.8408 41.5786 C 30.9577 41.4176 31.1338 41.3098 31.3302 41.2786 C 31.5267 41.2475 31.7275 41.2957 31.8884 41.4126 C 32.0493 41.5296 32.1572 41.7056 32.1883 41.9021 C 32.2194 42.0985 32.1712 42.2993 32.0543 42.4602 C 31.9374 42.6212 31.7614 42.7291 31.5649 42.7602 C 31.3684 42.7913 31.1676 42.7431 31.0067 42.6262 C 30.8458 42.5093 30.7379 42.3332 30.7068 42.1367 C 30.6757 41.9403 30.7239 41.7395 30.8408 41.5786 Z" />
  <path
     style="color:#000000;fill:#ffffff;stroke-linecap:round;stroke-linejoin:round;-inkscape-stroke:none"
     d="m 31.21,33.8 c -0.3225,-1.137 -1.862,-1.925 -2.857,-1.685 -0.995,0.24 -2.147,-0.2996 -2.599,-0.6935 -0.5094,5.894 5.661,7.695 8.171,5.427 -2.154,-0.321 -2.392,-1.912 -2.714,-3.049 z"
     id="path113937" />
  <path
     style="color:#000000;fill:#ffffff;stroke-linecap:round;stroke-linejoin:round;-inkscape-stroke:none"
     d="m 25.566406,30.957031 a 0.50005,0.50005 0 0 0 -0.310547,0.421875 c -0.539977,6.247791 6.093768,8.469403 9.003907,5.839844 a 0.50005,0.50005 0 0 0 -0.261719,-0.865234 c -0.96054,-0.143145 -1.390854,-0.513635 -1.695313,-0.992188 -0.304458,-0.478553 -0.442468,-1.101011 -0.611328,-1.697266 -0.209969,-0.740263 -0.774435,-1.299515 -1.412109,-1.658203 -0.637674,-0.358687 -1.367069,-0.539984 -2.042969,-0.376953 -0.371706,0.08966 -0.823489,0.03613 -1.230469,-0.09766 -0.406979,-0.13379 -0.771189,-0.35331 -0.923828,-0.486328 a 0.50005,0.50005 0 0 0 -0.515625,-0.08789 z m 0.72461,1.306641 c 0.148382,0.06818 0.233795,0.161388 0.402343,0.216797 0.53077,0.174484 1.154051,0.271435 1.777344,0.121093 0.319099,-0.07697 0.85691,0.01583 1.318359,0.275391 0.46145,0.259562 0.826923,0.661859 0.939454,1.058594 a 0.50005,0.50005 0 0 0 0.0039,0.0039 c 0.152779,0.540449 0.293921,1.278952 0.726562,1.958984 0.242804,0.381643 0.622029,0.707951 1.089844,0.97461 -2.346501,0.889127 -6.135039,-0.409151 -6.257812,-4.609375 z"
     id="path113940" />
  <path
     id="path113943"
     style="fill:#d22f27;fill-rule:evenodd"
     d="M 29.1787 33.6854 C 29.3679 33.7469 29.5249 33.881 29.6152 34.0582 C 29.7055 34.2354 29.7217 34.4413 29.6603 34.6305 C 29.5323 35.0244 29.1092 35.24 28.7152 35.112 C 28.3213 34.984 28.1057 34.5609 28.2337 34.1669 C 28.2952 33.9778 28.4293 33.8208 28.6065 33.7304 C 28.7837 33.6401 28.9896 33.6239 29.1787 33.6854 Z" />
  <path
     style="color:#000000;fill:#000000;stroke-linecap:round;stroke-linejoin:round;-inkscape-stroke:none"
     d="m 5,16 a 1.0001,1.0001 0 0 0 -1,1 v 38 a 1.0001,1.0001 0 0 0 1,1 h 62 a 1.0001,1.0001 0 0 0 1,-1 V 17 a 1.0001,1.0001 0 0 0 -1,-1 z m 1,2 H 66 V 54 H 6 Z"
     id="path113946" />
</svg>
