<?xml version="1.0" encoding="UTF-8" standalone="no"?>
<svg
   id="emoji"
   viewBox="0 0 72 72"
   version="1.1"
   sodipodi:docname="Iran.svg"
   inkscape:version="1.2 (dc2aeda, 2022-05-15)"
   xmlns:inkscape="http://www.inkscape.org/namespaces/inkscape"
   xmlns:sodipodi="http://sodipodi.sourceforge.net/DTD/sodipodi-0.dtd"
   xmlns="http://www.w3.org/2000/svg"
   xmlns:svg="http://www.w3.org/2000/svg">
  <defs
     id="defs111344" />
  <sodipodi:namedview
     id="namedview111342"
     pagecolor="#ffffff"
     bordercolor="#000000"
     borderopacity="0.25"
     inkscape:showpageshadow="2"
     inkscape:pageopacity="0.0"
     inkscape:pagecheckerboard="0"
     inkscape:deskcolor="#d1d1d1"
     showgrid="false"
     inkscape:zoom="3.2777778"
     inkscape:cx="-13.271186"
     inkscape:cy="36"
     inkscape:window-width="1309"
     inkscape:window-height="456"
     inkscape:window-x="0"
     inkscape:window-y="25"
     inkscape:window-maximized="0"
     inkscape:current-layer="emoji" />
  <path
     id="path111544"
     style="fill:#d22f27"
     d="M 5,17 H 67 V 55 H 5 Z" />
  <path
     id="path111547"
     style="fill:#5c9e31"
     d="M 5,17 H 67 V 30 H 5 Z" />
  <path
     id="path111550"
     style="fill:#ffffff"
     d="M 5,30 H 67 V 42 H 5 Z" />
  <path
     style="color:#000000;fill:#d22f27;stroke-linecap:round;stroke-linejoin:round;-inkscape-stroke:none"
     d="M 36,31.5 A 0.5,0.5 0 0 0 35.5,32 v 8 A 0.5,0.5 0 0 0 36,40.5 0.5,0.5 0 0 0 36.5,40 V 32 A 0.5,0.5 0 0 0 36,31.5 Z"
     id="path111538" />
  <path
     style="color:#000000;fill:#d22f27;stroke-linecap:round;stroke-linejoin:round;-inkscape-stroke:none"
     d="M 38,31.5 A 0.5,0.5 0 0 0 37.5,32 0.5,0.5 0 0 0 38,32.5 c 1.208331,0 2.051924,0.435123 2.626953,1.082031 C 41.201983,34.22894 41.5,35.111112 41.5,36 c 0,0.888888 -0.298017,1.77106 -0.873047,2.417969 C 40.051924,39.064877 39.208331,39.5 38,39.5 A 0.5,0.5 0 0 0 37.5,40 0.5,0.5 0 0 0 38,40.5 c 1.458331,0 2.614745,-0.564879 3.373047,-1.417969 C 42.131349,38.228941 42.5,37.11111 42.5,36 42.5,34.88889 42.131349,33.771059 41.373047,32.917969 40.614745,32.064879 39.458331,31.5 38,31.5 Z"
     id="path111526" />
  <path
     style="color:#000000;fill:#d22f27;stroke-linecap:round;stroke-linejoin:round;-inkscape-stroke:none"
     d="m 37.556641,32.855469 a 0.5,0.5 0 0 0 -0.705079,0.04883 0.5,0.5 0 0 0 0.04883,0.705078 c 2.020488,1.757822 1.435174,4.986323 -1.074219,5.921875 a 0.5,0.5 0 0 0 -0.294922,0.642578 0.5,0.5 0 0 0 0.642578,0.294922 c 3.17758,-1.184666 3.941305,-5.387396 1.382813,-7.613281 z"
     id="path111529" />
  <path
     style="color:#000000;fill:#d22f27;stroke-linecap:round;stroke-linejoin:round;-inkscape-stroke:none"
     d="m 34.806641,32.734375 a 0.5,0.5 0 0 0 -0.363282,0.121094 c -2.558343,2.225899 -1.794598,6.428459 1.382813,7.613281 A 0.5,0.5 0 0 0 36.46875,40.173828 0.5,0.5 0 0 0 36.173828,39.53125 c -2.509269,-0.935679 -3.094596,-4.164035 -1.074219,-5.921875 a 0.5,0.5 0 0 0 0.04883,-0.705078 0.5,0.5 0 0 0 -0.341796,-0.169922 z"
     id="path111532" />
  <path
     style="color:#000000;fill:#d22f27;stroke-linecap:round;stroke-linejoin:round;-inkscape-stroke:none"
     d="m 34,31.5 c -1.458331,0 -2.614745,0.564879 -3.373047,1.417969 C 29.868651,33.771059 29.5,34.88889 29.5,36 c 0,1.11111 0.368651,2.228941 1.126953,3.082031 C 31.385255,39.935121 32.541669,40.5 34,40.5 A 0.5,0.5 0 0 0 34.5,40 0.5,0.5 0 0 0 34,39.5 c -1.208331,0 -2.051924,-0.435123 -2.626953,-1.082031 C 30.798017,37.77106 30.5,36.888888 30.5,36 c 0,-0.888888 0.298017,-1.77106 0.873047,-2.417969 C 31.948076,32.935123 32.791669,32.5 34,32.5 A 0.5,0.5 0 0 0 34.5,32 0.5,0.5 0 0 0 34,31.5 Z"
     id="path111535" />
  <path
     style="color:#000000;fill:#000000;stroke-linecap:round;stroke-linejoin:round;-inkscape-stroke:none"
     d="m 5,16 a 1.0001,1.0001 0 0 0 -1,1 v 38 a 1.0001,1.0001 0 0 0 1,1 h 62 a 1.0001,1.0001 0 0 0 1,-1 V 17 a 1.0001,1.0001 0 0 0 -1,-1 z m 1,2 H 66 V 54 H 6 Z"
     id="path111541" />
</svg>
