<?xml version="1.0" encoding="UTF-8" standalone="no"?>
<svg
   id="emoji"
   viewBox="0 0 72 72"
   version="1.1"
   sodipodi:docname="Israel.svg"
   inkscape:version="1.2 (dc2aeda, 2022-05-15)"
   xmlns:inkscape="http://www.inkscape.org/namespaces/inkscape"
   xmlns:sodipodi="http://sodipodi.sourceforge.net/DTD/sodipodi-0.dtd"
   xmlns="http://www.w3.org/2000/svg"
   xmlns:svg="http://www.w3.org/2000/svg">
  <defs
     id="defs112222" />
  <sodipodi:namedview
     id="namedview112220"
     pagecolor="#ffffff"
     bordercolor="#000000"
     borderopacity="0.25"
     inkscape:showpageshadow="2"
     inkscape:pageopacity="0.0"
     inkscape:pagecheckerboard="0"
     inkscape:deskcolor="#d1d1d1"
     showgrid="false"
     inkscape:zoom="3.2777778"
     inkscape:cx="-13.271186"
     inkscape:cy="36"
     inkscape:window-width="1309"
     inkscape:window-height="456"
     inkscape:window-x="0"
     inkscape:window-y="25"
     inkscape:window-maximized="0"
     inkscape:current-layer="emoji" />
  <path
     id="path112393"
     style="fill:#ffffff"
     d="M 5,17 H 67 V 55 H 5 Z" />
  <path
     id="path112396"
     style="fill:#1e50a0"
     d="m 5,20 h 62 v 3 H 5 Z" />
  <path
     id="path112399"
     style="fill:#1e50a0"
     d="m 5,49 h 62 v 3 H 5 Z" />
  <path
     style="color:#000000;fill:#1e50a0;stroke-linecap:round;stroke-linejoin:round;-inkscape-stroke:none"
     d="m 36,25 a 1.0001,1.0001 0 0 0 -0.857422,0.486328 l -9,15 A 1.0001,1.0001 0 0 0 27,42 h 18 a 1.0001,1.0001 0 0 0 0.857422,-1.513672 l -9,-15 A 1.0001,1.0001 0 0 0 36,25 Z M 36,27.943359 43.234375,40 h -14.46875 z"
     id="path112384" />
  <path
     style="color:#000000;fill:#1e50a0;stroke-linecap:round;stroke-linejoin:round"
     d="m 27,30 a 1.0001,1.0001 0 0 0 -0.857422,1.513672 l 9,15 a 1.0001,1.0001 0 0 0 1.714844,0 l 9,-15 A 1.0001,1.0001 0 0 0 45,30 Z m 1.765625,2 h 14.46875 L 36,44.056641 Z"
     id="path112387" />
  <path
     style="color:#000000;fill:#000000;stroke-linecap:round;stroke-linejoin:round"
     d="m 5,16 a 1.0001,1.0001 0 0 0 -1,1 v 38 a 1.0001,1.0001 0 0 0 1,1 h 62 a 1.0001,1.0001 0 0 0 1,-1 V 17 a 1.0001,1.0001 0 0 0 -1,-1 z m 1,2 H 66 V 54 H 6 Z"
     id="path112390" />
</svg>
