<?xml version="1.0" encoding="UTF-8" standalone="no"?>
<svg
   id="emoji"
   viewBox="0 0 72 72"
   version="1.1"
   sodipodi:docname="Jordan.svg"
   inkscape:version="1.2 (dc2aeda, 2022-05-15)"
   xmlns:inkscape="http://www.inkscape.org/namespaces/inkscape"
   xmlns:sodipodi="http://sodipodi.sourceforge.net/DTD/sodipodi-0.dtd"
   xmlns="http://www.w3.org/2000/svg"
   xmlns:svg="http://www.w3.org/2000/svg">
  <defs
     id="defs113283" />
  <sodipodi:namedview
     id="namedview113281"
     pagecolor="#ffffff"
     bordercolor="#000000"
     borderopacity="0.25"
     inkscape:showpageshadow="2"
     inkscape:pageopacity="0.0"
     inkscape:pagecheckerboard="0"
     inkscape:deskcolor="#d1d1d1"
     showgrid="false"
     inkscape:zoom="3.2777778"
     inkscape:cx="-13.271186"
     inkscape:cy="36"
     inkscape:window-width="1309"
     inkscape:window-height="456"
     inkscape:window-x="0"
     inkscape:window-y="25"
     inkscape:window-maximized="0"
     inkscape:current-layer="emoji" />
  <path
     id="path113456"
     style="fill:#5c9e31"
     d="M 5,17 H 67 V 55 H 5 Z" />
  <path
     id="path113459"
     style="fill:#ffffff"
     d="M 5,30 H 67 V 42 H 5 Z" />
  <path
     id="path113462"
     d="M 5,17 H 67 V 30 H 5 Z" />
  <path
     id="path113465"
     style="fill:#d22f27"
     d="M 5,17 26,36 5,55 Z" />
  <path
     style="color:#000000;fill:#ffffff;stroke-linecap:round;stroke-linejoin:round"
     d="M 15.005,34.49 14.25,35.838 15.5,36.716 14.002,36.95 14.113,38.5 13,37.445 11.887,38.5 11.998,36.95 10.5,36.716 11.75,35.838 10.995,34.49 12.444,34.945 13,33.5 l 0.556,1.445 z"
     id="path113453" />
  <path
     style="color:#000000;fill:#ffffff;stroke-linecap:round;stroke-linejoin:round"
     d="m 13,33 a 0.50005,0.50005 0 0 0 -0.466797,0.320312 l -0.386719,1.007813 -1.001953,-0.314453 a 0.50005,0.50005 0 0 0 -0.585937,0.720703 l 0.535156,0.953125 -0.880859,0.619141 a 0.50005,0.50005 0 0 0 0.208984,0.904296 l 1.044922,0.16211 -0.07813,1.091797 a 0.50005,0.50005 0 0 0 0.841797,0.398437 L 13,38.134766 l 0.769531,0.728515 a 0.50005,0.50005 0 0 0 0.841797,-0.398437 l -0.07813,-1.091797 1.044922,-0.16211 a 0.50005,0.50005 0 0 0 0.208984,-0.904296 L 14.90625,35.6875 15.441406,34.734375 a 0.50005,0.50005 0 0 0 -0.585937,-0.720703 l -1.001953,0.314453 -0.386719,-1.007813 A 0.50005,0.50005 0 0 0 13,33 Z m 0,1.892578 0.08984,0.232422 a 0.50005,0.50005 0 0 0 0.615234,0.296875 l 0.25,-0.07813 -0.140625,0.25 a 0.50005,0.50005 0 0 0 0.148438,0.654297 l 0.234375,0.164062 -0.271485,0.04297 a 0.50005,0.50005 0 0 0 -0.421875,0.53125 l 0.01953,0.265625 -0.179688,-0.169922 a 0.50005,0.50005 0 0 0 -0.6875,0 l -0.179687,0.169922 0.01953,-0.265625 a 0.50005,0.50005 0 0 0 -0.421875,-0.53125 l -0.271485,-0.04297 0.234375,-0.164062 a 0.50005,0.50005 0 0 0 0.148438,-0.654297 l -0.140625,-0.25 0.25,0.07813 A 0.50005,0.50005 0 0 0 12.910156,35.125 Z"
     id="path113450" />
  <path
     style="color:#000000;fill:#000000;stroke-linecap:round;stroke-linejoin:round;-inkscape-stroke:none"
     d="m 5,16 a 1.0001,1.0001 0 0 0 -1,1 v 38 a 1.0001,1.0001 0 0 0 1,1 h 62 a 1.0001,1.0001 0 0 0 1,-1 V 17 a 1.0001,1.0001 0 0 0 -1,-1 z m 1,2 H 66 V 54 H 6 Z"
     id="path113447" />
</svg>
