<?xml version="1.0" encoding="UTF-8" standalone="no"?>
<svg
   id="emoji"
   viewBox="0 0 72 72"
   version="1.1"
   sodipodi:docname="Kazakhstan.svg"
   inkscape:version="1.2 (dc2aeda, 2022-05-15)"
   xmlns:inkscape="http://www.inkscape.org/namespaces/inkscape"
   xmlns:sodipodi="http://sodipodi.sourceforge.net/DTD/sodipodi-0.dtd"
   xmlns="http://www.w3.org/2000/svg"
   xmlns:svg="http://www.w3.org/2000/svg">
  <defs
     id="defs113494" />
  <sodipodi:namedview
     id="namedview113492"
     pagecolor="#ffffff"
     bordercolor="#000000"
     borderopacity="0.25"
     inkscape:showpageshadow="2"
     inkscape:pageopacity="0.0"
     inkscape:pagecheckerboard="0"
     inkscape:deskcolor="#d1d1d1"
     showgrid="false"
     inkscape:zoom="3.2777778"
     inkscape:cx="-13.271186"
     inkscape:cy="36"
     inkscape:window-width="1309"
     inkscape:window-height="456"
     inkscape:window-x="0"
     inkscape:window-y="25"
     inkscape:window-maximized="0"
     inkscape:current-layer="emoji" />
  <path
     id="path113669"
     style="fill:#61b2e4"
     d="M 5,17 H 67 V 55 H 5 Z" />
  <path
     style="color:#000000;fill:#fcea2b;stroke-width:0.6848;stroke-linecap:round;stroke-linejoin:round;-inkscape-stroke:none"
     d="m 45.922752,29.879472 -2.828224,2.040704 3.471936,-0.3424 -3.232256,1.307968 3.451392,0.493056 -3.451392,0.493056 3.232256,1.307968 -3.471936,-0.3424 2.828224,2.040704 -3.28704,-1.16416 2.252992,2.657024 -2.9104,-1.91744 1.554496,3.122688 -2.369408,-2.561152 0.760128,3.403456 -1.684608,-3.04736 -0.07533,3.485632 -0.910784,-3.369216 -0.910784,3.369216 -0.07533,-3.485632 -1.684608,3.04736 0.760128,-3.403456 -2.369408,2.561152 1.554496,-3.122688 -2.9104,1.91744 2.252992,-2.657024 -3.28704,1.16416 2.828224,-2.040704 -3.471936,0.3424 3.232256,-1.307968 L 31.72,33.3788 l 3.451392,-0.493056 -3.232256,-1.307968 3.471936,0.3424 -2.828224,-2.040704 3.28704,1.16416 -2.252992,-2.657024 2.9104,1.91744 -1.554496,-3.122688 2.369408,2.561152 -0.760128,-3.403456 1.684608,3.04736 0.07533,-3.485632 0.910784,3.369216 0.910784,-3.369216 0.07533,3.485632 1.684608,-3.04736 -0.760128,3.403456 2.369408,-2.561152 -1.554496,3.122688 2.9104,-1.91744 -2.252992,2.657024 z"
     id="path113666" />
  <path
     style="color:#000000;fill:#fcea2b;stroke-width:0.6848;stroke-linecap:round;stroke-linejoin:round;-inkscape-stroke:none"
     d="m 38.3005,25.561112 a 0.34243424,0.34243424 0 0 0 -0.300937,0.3317 l -0.04815,2.216238 -1.07,-1.935362 A 0.34243424,0.34243424 0 0 0 36.247439,26.4131 l 0.484175,2.165412 -1.507362,-1.629075 A 0.34243424,0.34243424 0 0 0 34.666514,27.3333 l 0.988413,1.986188 -1.849762,-1.218463 a 0.34243424,0.34243424 0 0 0 -0.4494,0.506912 l 1.431123,1.689263 -2.089176,-0.740975 a 0.34243424,0.34243424 0 0 0 -0.315649,0.600538 l 1.800274,1.298712 -2.209549,-0.218012 a 0.34243424,0.34243424 0 0 0 -0.161838,0.658049 l 2.053062,0.831925 -2.192162,0.312975 a 0.34243424,0.34243424 0 0 0 0,0.676776 l 2.192162,0.312975 -2.053062,0.831925 a 0.34243424,0.34243424 0 0 0 0.161838,0.658049 l 2.209549,-0.218012 -1.800274,1.298712 a 0.34243424,0.34243424 0 0 0 0.315649,0.600538 l 2.089176,-0.740975 -1.431125,1.689263 a 0.34243424,0.34243424 0 0 0 0.4494,0.506912 l 1.849762,-1.218463 -0.988413,1.986188 a 0.34243424,0.34243424 0 0 0 0.557738,0.383863 l 1.507362,-1.629075 -0.484175,2.165412 a 0.34243424,0.34243424 0 0 0 0.633975,0.239412 l 1.07,-1.935362 0.04815,2.216238 a 0.34243424,0.34243424 0 0 0 0.672762,0.08159 l 0.580477,-2.146687 0.580475,2.146687 a 0.34243424,0.34243424 0 0 0 0.672762,-0.08159 l 0.04815,-2.216238 1.07,1.935362 A 0.34243424,0.34243424 0 0 0 42.258161,40.3445 l -0.484175,-2.165412 1.507362,1.629075 A 0.34243424,0.34243424 0 0 0 43.839086,39.4243 l -0.988413,-1.986188 1.849762,1.218463 a 0.34243424,0.34243424 0 0 0 0.4494,-0.506912 l -1.431123,-1.689263 2.089176,0.740975 a 0.34243424,0.34243424 0 0 0 0.315649,-0.600538 l -1.800274,-1.298712 2.209549,0.218012 a 0.34243424,0.34243424 0 0 0 0.161838,-0.658049 l -2.053062,-0.831925 2.192162,-0.312975 a 0.34243424,0.34243424 0 0 0 0,-0.676776 l -2.192162,-0.312975 2.053062,-0.831925 a 0.34243424,0.34243424 0 0 0 -0.161838,-0.658049 l -2.209549,0.218012 1.800274,-1.298712 a 0.34243424,0.34243424 0 0 0 -0.315649,-0.600538 l -2.089176,0.740975 1.431125,-1.689263 a 0.34243424,0.34243424 0 0 0 -0.4494,-0.506912 L 42.850675,29.319488 43.839088,27.3333 A 0.34243424,0.34243424 0 0 0 43.28135,26.949437 l -1.507362,1.629075 0.484175,-2.165412 a 0.34243424,0.34243424 0 0 0 -0.633975,-0.239412 l -1.07,1.935362 -0.04815,-2.216238 a 0.34243424,0.34243424 0 0 0 -0.672762,-0.08159 L 39.2528,27.957912 38.672325,25.811225 A 0.34243424,0.34243424 0 0 0 38.3005,25.561112 Z m 0.333037,2.7285 0.2889,1.07 a 0.34243424,0.34243424 0 0 0 0.660726,0 l 0.2889,-1.07 0.02408,1.104776 a 0.34243424,0.34243424 0 0 0 0.642,0.157824 l 0.532325,-0.963 -0.24075,1.078025 a 0.34243424,0.34243424 0 0 0 0.584488,0.307626 l 0.748997,-0.809188 -0.490863,0.985737 a 0.34243424,0.34243424 0 0 0 0.494875,0.4387 l 0.917525,-0.604549 -0.710212,0.837274 a 0.34243424,0.34243424 0 0 0 0.375838,0.543026 l 1.036562,-0.366475 -0.892113,0.643337 a 0.34243424,0.34243424 0 0 0 0.232725,0.617925 l 1.107451,-0.109675 -1.029876,0.4173 a 0.34243424,0.34243424 0 0 0 0.08025,0.656713 l 1.079362,0.153812 -1.079362,0.153812 a 0.34243424,0.34243424 0 0 0 -0.08025,0.656713 l 1.029876,0.4173 -1.107451,-0.109675 a 0.34243424,0.34243424 0 0 0 -0.232725,0.617925 l 0.892113,0.643337 -1.036562,-0.366475 a 0.34243424,0.34243424 0 0 0 -0.375838,0.543026 l 0.710212,0.837274 -0.917525,-0.604549 a 0.34243424,0.34243424 0 0 0 -0.494875,0.4387 l 0.490863,0.985737 -0.749,-0.809188 a 0.34243424,0.34243424 0 0 0 -0.584488,0.307626 l 0.240751,1.078025 -0.532326,-0.963 a 0.34243424,0.34243424 0 0 0 -0.642,0.157824 l -0.02408,1.104776 -0.2889,-1.07 a 0.34243424,0.34243424 0 0 0 -0.660725,0 l -0.2889,1.07 -0.02408,-1.104776 a 0.34243424,0.34243424 0 0 0 -0.642,-0.157824 l -0.532325,0.963 0.24075,-1.078025 A 0.34243424,0.34243424 0 0 0 37.0914,36.782737 l -0.749,0.809188 0.490863,-0.985737 a 0.34243424,0.34243424 0 0 0 -0.494875,-0.4387 l -0.917525,0.604549 0.710212,-0.837274 a 0.34243424,0.34243424 0 0 0 -0.375838,-0.543026 l -1.036562,0.366475 0.892113,-0.643337 A 0.34243424,0.34243424 0 0 0 35.378063,34.49695 l -1.107451,0.109675 1.029876,-0.4173 a 0.34243424,0.34243424 0 0 0 -0.08025,-0.656713 L 34.140875,33.3788 35.220237,33.224988 a 0.34243424,0.34243424 0 0 0 0.08025,-0.656713 l -1.029876,-0.4173 1.107451,0.109675 a 0.34243424,0.34243424 0 0 0 0.232725,-0.617925 l -0.892113,-0.643337 1.036562,0.366475 a 0.34243424,0.34243424 0 0 0 0.375838,-0.543026 l -0.710212,-0.837274 0.917525,0.604549 a 0.34243424,0.34243424 0 0 0 0.494875,-0.4387 l -0.490863,-0.985737 0.749,0.809188 a 0.34243424,0.34243424 0 0 0 0.584488,-0.307626 l -0.240751,-1.078025 0.532326,0.963 a 0.34243424,0.34243424 0 0 0 0.642,-0.157824 z"
     id="path113663" />
  <path
     style="color:#000000;fill:#fcea2b;stroke-linecap:round;stroke-linejoin:round"
     d="m 31.361328,38.167969 a 1,1 0 0 0 -0.759766,0.08984 1,1 0 0 0 -0.384765,1.361329 c 0,0 2.086464,3.478219 6.009765,4.71875 -0.131234,0.04779 -0.519531,0.173828 -0.519531,0.173828 v 0.002 c -5e-5,1.9e-5 -0.01563,0.002 -0.01563,0.002 a 1.0001,1.0001 0 0 0 0.720703,1.865234 c 0,0 0.01546,-0.0058 0.01563,-0.0059 v 0.002 c 0,0 1.135129,-0.457557 3.119141,-0.546875 0.526242,-0.02368 0.881577,-0.0408 1.121094,-0.05469 0.119758,-0.0069 0.207611,-0.01268 0.292968,-0.02148 0.04268,-0.0044 0.0828,-0.0089 0.148438,-0.02148 0.03282,-0.0063 0.0712,-0.01318 0.138672,-0.03516 0.03374,-0.01099 0.07619,-0.02421 0.134765,-0.05273 0.02929,-0.01426 0.06148,-0.03294 0.101563,-0.05859 0.04008,-0.02565 0.140233,-0.10706 0.140625,-0.107421 3.92e-4,-3.62e-4 0.173602,-0.20862 0.173828,-0.208985 2.27e-4,-3.64e-4 0.134703,-0.36096 0.134766,-0.361328 5.6e-5,-3.31e-4 -0.0125,-0.311203 -0.01563,-0.380859 3.068684,-1.111364 5.514704,-2.790479 6.414062,-5.023438 a 1,1 0 0 0 -0.554687,-1.300781 1,1 0 0 0 -1.300782,0.552734 c -0.621075,1.542028 -3.460054,3.391904 -7.019531,4.375 -0.394959,-0.138632 -0.838264,-0.213074 -1.550781,-0.304687 -3.807068,-0.489803 -5.943359,-4.185547 -5.943359,-4.185547 a 1,1 0 0 0 -0.601563,-0.472656 z"
     id="path113654" />
  <path
     style="color:#000000;fill:#fcea2b;stroke-linecap:round;stroke-linejoin:round"
     d="M 10.5,20.023437 A 1.9974999,1.9974999 0 0 0 8.5019531,22.019531 V 49.970703 A 1.9974999,1.9974999 0 0 0 10.5,51.966797 1.9974999,1.9974999 0 0 0 12.498047,49.970703 V 22.019531 A 1.9974999,1.9974999 0 0 0 10.5,20.023437 Z"
     id="path113657" />
  <path
     style="color:#000000;fill:#000000;stroke-linecap:round;stroke-linejoin:round"
     d="m 5,16 a 1.0001,1.0001 0 0 0 -1,1 v 38 a 1.0001,1.0001 0 0 0 1,1 h 62 a 1.0001,1.0001 0 0 0 1,-1 V 17 a 1.0001,1.0001 0 0 0 -1,-1 z m 1,2 H 66 V 54 H 6 Z"
     id="path113660" />
</svg>
