<?xml version="1.0" encoding="UTF-8" standalone="no"?>
<svg
   id="emoji"
   viewBox="0 0 72 72"
   version="1.1"
   sodipodi:docname="Kiribati.svg"
   inkscape:version="1.2 (dc2aeda, 2022-05-15)"
   xmlns:inkscape="http://www.inkscape.org/namespaces/inkscape"
   xmlns:sodipodi="http://sodipodi.sourceforge.net/DTD/sodipodi-0.dtd"
   xmlns="http://www.w3.org/2000/svg"
   xmlns:svg="http://www.w3.org/2000/svg">
  <defs
     id="defs33" />
  <sodipodi:namedview
     id="namedview31"
     pagecolor="#ffffff"
     bordercolor="#000000"
     borderopacity="0.25"
     inkscape:showpageshadow="2"
     inkscape:pageopacity="0.0"
     inkscape:pagecheckerboard="0"
     inkscape:deskcolor="#d1d1d1"
     showgrid="false"
     inkscape:zoom="3.2777778"
     inkscape:cx="-13.271186"
     inkscape:cy="36"
     inkscape:window-width="1309"
     inkscape:window-height="456"
     inkscape:window-x="0"
     inkscape:window-y="25"
     inkscape:window-maximized="0"
     inkscape:current-layer="emoji" />
  <path
     id="path339"
     style="fill:#d22f27"
     d="M 5,17 H 67 V 55 H 5 Z" />
  <path
     style="color:#000000;fill:#f1b31c;stroke-linecap:round;stroke-linejoin:round"
     d="m 37.436,36.174 2.465,-4.459 -1.113,4.972 3.461,-3.74 -2.27,4.562 4.255,-2.803 -3.296,3.886 4.802,-1.704 -4.13,2.984 5.07,-0.504 -4.724,1.909 L 47,42 l -5.044,0.723 4.724,1.909 -5.07,-0.504 4.13,2.984 -4.802,-1.704 3.296,3.886 -4.255,-2.803 2.27,4.562 -3.461,-3.74 1.113,4.972 -2.465,-4.459 -0.11,5.094 L 36,48 l -1.326,4.92 -0.11,-5.094 -2.465,4.459 1.113,-4.972 -3.461,3.74 2.27,-4.562 -4.255,2.803 3.296,-3.886 -4.802,1.704 4.13,-2.984 -5.07,0.504 4.724,-1.909 L 25,42 l 5.044,-0.723 -4.724,-1.909 5.07,0.504 -4.13,-2.984 4.802,1.704 -3.296,-3.886 4.255,2.803 -2.27,-4.562 3.461,3.74 -1.113,-4.972 2.465,4.459 0.11,-5.094 L 36,36 37.326,31.08 Z"
     id="path315" />
  <path
     style="color:#000000;fill:#f1b31c;stroke-linecap:round;stroke-linejoin:round"
     d="m 34.613281,30.583984 a 0.50005,0.50005 0 0 0 -0.439453,0.484375 l -0.07031,3.240235 -1.566407,-2.835938 a 0.50005,0.50005 0 0 0 -0.925781,0.351563 l 0.708984,3.164062 -2.203125,-2.380859 a 0.50005,0.50005 0 0 0 -0.814453,0.5625 l 1.445313,2.90039 -2.707031,-1.78125 a 0.50005,0.50005 0 0 0 -0.65625,0.740235 L 29.480469,37.5 26.427734,36.416016 a 0.50005,0.50005 0 0 0 -0.460937,0.876953 l 2.628906,1.898437 -3.226562,-0.320312 a 0.50005,0.50005 0 0 0 -0.236329,0.960937 l 3.003907,1.212891 -3.207032,0.460937 a 0.50005,0.50005 0 0 0 0,0.988282 l 3.207032,0.460937 -3.003907,1.212891 a 0.50005,0.50005 0 0 0 0.236329,0.960937 l 3.226562,-0.320312 -2.628906,1.898437 a 0.50005,0.50005 0 0 0 0.460937,0.876953 L 29.480469,46.5 27.384766,48.970703 a 0.50005,0.50005 0 0 0 0.65625,0.740234 l 2.707031,-1.78125 -1.445313,2.900391 a 0.50005,0.50005 0 0 0 0.814453,0.5625 l 2.203125,-2.380859 -0.708984,3.164062 a 0.50005,0.50005 0 0 0 0.925781,0.351563 l 1.566407,-2.835938 0.07031,3.240235 a 0.50005,0.50005 0 0 0 0.982422,0.11914 L 36,49.919922 l 0.84375,3.130859 a 0.50005,0.50005 0 0 0 0.982422,-0.11914 l 0.07031,-3.240235 1.566407,2.835938 a 0.50005,0.50005 0 0 0 0.925781,-0.351563 l -0.708985,-3.164062 2.203125,2.380859 a 0.50005,0.50005 0 0 0 0.814454,-0.5625 l -1.445313,-2.900391 2.707031,1.78125 a 0.50005,0.50005 0 0 0 0.65625,-0.740234 L 42.519531,46.5 l 3.052735,1.083984 a 0.50005,0.50005 0 0 0 0.460937,-0.876953 l -2.628906,-1.898437 3.226562,0.320312 a 0.50005,0.50005 0 0 0 0.236328,-0.960937 l -3.003906,-1.212891 3.207031,-0.460937 a 0.50005,0.50005 0 0 0 0,-0.988282 l -3.207031,-0.460937 3.003906,-1.212891 a 0.50005,0.50005 0 0 0 -0.236328,-0.960937 l -3.226562,0.320312 2.628906,-1.898437 A 0.50005,0.50005 0 0 0 45.572266,36.416016 L 42.519531,37.5 44.615234,35.029297 a 0.50005,0.50005 0 0 0 -0.65625,-0.740235 l -2.707031,1.78125 1.445313,-2.90039 a 0.50005,0.50005 0 0 0 -0.814454,-0.5625 l -2.203125,2.380859 0.708985,-3.164062 a 0.50005,0.50005 0 0 0 -0.925781,-0.351563 l -1.566407,2.835938 -0.07031,-3.240235 A 0.50005,0.50005 0 0 0 36.84375,30.949219 L 36,34.080078 35.15625,30.949219 a 0.50005,0.50005 0 0 0 -0.542969,-0.365235 z m 0.486328,3.994141 0.417969,1.552734 a 0.50005,0.50005 0 0 0 0.964844,0 l 0.417969,-1.552734 0.03516,1.607422 a 0.50005,0.50005 0 0 0 0.9375,0.230469 l 0.779297,-1.408204 -0.351563,1.570313 a 0.50005,0.50005 0 0 0 0.853516,0.449219 l 1.09375,-1.183594 -0.716797,1.443359 a 0.50005,0.50005 0 0 0 0.722656,0.638672 l 1.345703,-0.886719 -1.042968,1.230469 a 0.50005,0.50005 0 0 0 0.548828,0.792969 l 1.513672,-0.537109 -1.302735,0.941406 a 0.50005,0.50005 0 0 0 0.34375,0.902344 l 1.59961,-0.158204 -1.490235,0.601563 a 0.50005,0.50005 0 0 0 0.115235,0.958984 L 43.480469,42 41.884766,42.228516 A 0.50005,0.50005 0 0 0 41.769531,43.1875 l 1.490235,0.601562 -1.59961,-0.158203 a 0.50005,0.50005 0 0 0 -0.34375,0.902344 l 1.302735,0.941406 -1.513672,-0.537109 a 0.50005,0.50005 0 0 0 -0.548828,0.792969 l 1.042968,1.230468 -1.345703,-0.886718 a 0.50005,0.50005 0 0 0 -0.722656,0.638672 l 0.716797,1.443359 -1.09375,-1.183594 a 0.50005,0.50005 0 0 0 -0.853516,0.449219 l 0.351563,1.570312 -0.779297,-1.408203 a 0.50005,0.50005 0 0 0 -0.9375,0.230469 l -0.03516,1.607422 -0.417969,-1.552734 a 0.50005,0.50005 0 0 0 -0.964844,0 l -0.417969,1.552734 -0.03516,-1.607422 a 0.50005,0.50005 0 0 0 -0.9375,-0.230469 l -0.779297,1.408203 0.351563,-1.570312 a 0.50005,0.50005 0 0 0 -0.853516,-0.449219 l -1.09375,1.183594 0.716797,-1.443359 a 0.50005,0.50005 0 0 0 -0.722656,-0.638672 l -1.345703,0.886718 1.042968,-1.230468 A 0.50005,0.50005 0 0 0 30.894531,44.9375 l -1.513672,0.537109 1.302735,-0.941406 a 0.50005,0.50005 0 0 0 -0.34375,-0.902344 l -1.59961,0.158203 1.490235,-0.601562 A 0.50005,0.50005 0 0 0 30.115234,42.228516 L 28.519531,42 30.115234,41.771484 A 0.50005,0.50005 0 0 0 30.230469,40.8125 l -1.490235,-0.601563 1.59961,0.158204 a 0.50005,0.50005 0 0 0 0.34375,-0.902344 l -1.302735,-0.941406 1.513672,0.537109 a 0.50005,0.50005 0 0 0 0.548828,-0.792969 l -1.042968,-1.230469 1.345703,0.886719 a 0.50005,0.50005 0 0 0 0.722656,-0.638672 l -0.716797,-1.443359 1.09375,1.183594 a 0.50005,0.50005 0 0 0 0.853516,-0.449219 l -0.351563,-1.570313 0.779297,1.408204 a 0.50005,0.50005 0 0 0 0.9375,-0.230469 z"
     id="path312" />
  <path
     fill="#ffffff"
     d="m 67,44 a 42.5886,42.5886 0 0 1 -6.2,1 c -1.5693,-0.0494 -4.6308,-1.0494 -6.2,-1 -1.5692,0.0494 -4.6308,1.0494 -6.2,1 -1.5692,-0.0494 -4.6307,-1.0494 -6.2,-1 -1.5693,0.0494 -4.6307,1.0494 -6.2,1 -1.5693,-0.0494 -4.6308,-1.0492 -6.2,-1 -1.5692,0.0492 -4.6308,1.0481 -6.2,1 -1.5692,-0.0481 -4.6306,-1.0415 -6.2,-1 -1.5694,0.0415 -4.63,1 -6.2,1 A 50.8361,50.8361 0 0 1 5,44 v -2 a 50.8361,50.8361 0 0 0 6.2,1 c 1.57,0 4.6305,-0.9586 6.2,-1 1.5695,-0.0414 4.6308,0.9519 6.2,1 1.5692,0.0481 4.6308,-0.9508 6.2,-1 1.5692,-0.0492 4.6307,0.9506 6.2,1 1.5693,0.0494 4.6307,-0.9506 6.2,-1 1.5693,-0.0494 4.6307,0.9506 6.2,1 1.5693,0.0494 4.6307,-0.9506 6.2,-1 1.5693,-0.0494 4.6307,0.9506 6.2,1 A 42.5886,42.5886 0 0 0 67,42 Z"
     id="path321" />
  <path
     fill="#1e50a0"
     d="m 67,46 a 42.5886,42.5886 0 0 1 -6.2,1 c -1.5693,-0.0494 -4.6308,-1.0494 -6.2,-1 -1.5692,0.0494 -4.6308,1.0494 -6.2,1 -1.5692,-0.0494 -4.6307,-1.0494 -6.2,-1 -1.5693,0.0494 -4.6307,1.0494 -6.2,1 -1.5693,-0.0494 -4.6308,-1.0492 -6.2,-1 -1.5692,0.0492 -4.6308,1.0481 -6.2,1 -1.5692,-0.0481 -4.6306,-1.0415 -6.2,-1 -1.5694,0.0415 -4.63,1 -6.2,1 A 50.8361,50.8361 0 0 1 5,46 v -2 a 50.8361,50.8361 0 0 0 6.2,1 c 1.57,0 4.6305,-0.9586 6.2,-1 1.5695,-0.0414 4.6308,0.9519 6.2,1 1.5692,0.0481 4.6308,-0.9508 6.2,-1 1.5692,-0.0492 4.6307,0.9506 6.2,1 1.5693,0.0494 4.6307,-0.9506 6.2,-1 1.5693,-0.0494 4.6307,0.9506 6.2,1 1.5693,0.0494 4.6307,-0.9506 6.2,-1 1.5693,-0.0494 4.6307,0.9506 6.2,1 A 42.5886,42.5886 0 0 0 67,44 Z"
     id="path324" />
  <path
     fill="#ffffff"
     d="m 67,48 a 42.5886,42.5886 0 0 1 -6.2,1 c -1.5693,-0.0494 -4.6308,-1.0494 -6.2,-1 -1.5692,0.0494 -4.6308,1.0494 -6.2,1 -1.5692,-0.0494 -4.6307,-1.0494 -6.2,-1 -1.5693,0.0494 -4.6307,1.0494 -6.2,1 -1.5693,-0.0494 -4.6308,-1.0492 -6.2,-1 -1.5692,0.0492 -4.6308,1.0481 -6.2,1 -1.5692,-0.0481 -4.6306,-1.0415 -6.2,-1 -1.5694,0.0415 -4.63,1 -6.2,1 A 50.8361,50.8361 0 0 1 5,48 v -2 a 50.8361,50.8361 0 0 0 6.2,1 c 1.57,0 4.6305,-0.9586 6.2,-1 1.5695,-0.0414 4.6308,0.9519 6.2,1 1.5692,0.0481 4.6308,-0.9508 6.2,-1 1.5692,-0.0492 4.6307,0.9506 6.2,1 1.5693,0.0494 4.6307,-0.9506 6.2,-1 1.5693,-0.0494 4.6307,0.9506 6.2,1 1.5693,0.0494 4.6307,-0.9506 6.2,-1 1.5693,-0.0494 4.6307,0.9506 6.2,1 A 42.5886,42.5886 0 0 0 67,46 Z"
     id="path327" />
  <path
     fill="#1e50a0"
     d="m 67,50 a 42.5886,42.5886 0 0 1 -6.2,1 c -1.5693,-0.0494 -4.6308,-1.0494 -6.2,-1 -1.5692,0.0494 -4.6308,1.0494 -6.2,1 -1.5692,-0.0494 -4.6307,-1.0494 -6.2,-1 -1.5693,0.0494 -4.6307,1.0494 -6.2,1 -1.5693,-0.0494 -4.6308,-1.0492 -6.2,-1 -1.5692,0.0492 -4.6308,1.0481 -6.2,1 -1.5692,-0.0481 -4.6306,-1.0415 -6.2,-1 -1.5694,0.0415 -4.63,1 -6.2,1 A 50.8361,50.8361 0 0 1 5,50 v -2 a 50.8361,50.8361 0 0 0 6.2,1 c 1.57,0 4.6305,-0.9586 6.2,-1 1.5695,-0.0414 4.6308,0.9519 6.2,1 1.5692,0.0481 4.6308,-0.9508 6.2,-1 1.5692,-0.0492 4.6307,0.9506 6.2,1 1.5693,0.0494 4.6307,-0.9506 6.2,-1 1.5693,-0.0494 4.6307,0.9506 6.2,1 1.5693,0.0494 4.6307,-0.9506 6.2,-1 1.5693,-0.0494 4.6307,0.9506 6.2,1 A 42.5886,42.5886 0 0 0 67,48 Z"
     id="path330" />
  <path
     fill="#1e50a0"
     d="m 67,55 c 0,0 -4.6307,-0.9506 -6.2,-1 -1.5693,-0.0494 -4.6308,0.9506 -6.2,1 -1.5692,0.0494 -4.6308,-0.9506 -6.2,-1 -1.5692,-0.0494 -4.6307,0.9506 -6.2,1 -1.5693,0.0494 -4.6307,-0.9506 -6.2,-1 -1.5693,-0.0494 -4.6308,0.9508 -6.2,1 -1.5692,0.0492 -4.6308,-0.9519 -6.2,-1 -1.5692,-0.0481 -4.6306,0.9585 -6.2,1 -1.5694,0.0415 -4.63,-1 -6.2,-1 A 50.8361,50.8361 0 0 0 5,55 v -4 a 50.8361,50.8361 0 0 0 6.2,1 c 1.57,0 4.6305,-0.9586 6.2,-1 1.5695,-0.0414 4.6308,0.9519 6.2,1 1.5692,0.0481 4.6308,-0.9508 6.2,-1 1.5692,-0.0492 4.6307,0.9506 6.2,1 1.5693,0.0494 4.6307,-0.9506 6.2,-1 1.5693,-0.0494 4.6307,0.9506 6.2,1 1.5693,0.0494 4.6307,-0.9506 6.2,-1 1.5693,-0.0494 4.6307,0.9506 6.2,1 A 42.5886,42.5886 0 0 0 67,51 Z"
     id="path333" />
  <path
     fill="#ffffff"
     d="m 67,52 a 42.5886,42.5886 0 0 1 -6.2,1 c -1.5693,-0.0494 -4.6308,-1.0494 -6.2,-1 -1.5692,0.0494 -4.6308,1.0494 -6.2,1 -1.5692,-0.0494 -4.6307,-1.0494 -6.2,-1 -1.5693,0.0494 -4.6307,1.0494 -6.2,1 -1.5693,-0.0494 -4.6308,-1.0492 -6.2,-1 -1.5692,0.0492 -4.6308,1.0481 -6.2,1 -1.5692,-0.0481 -4.6306,-1.0415 -6.2,-1 -1.5694,0.0415 -4.63,1 -6.2,1 A 50.8361,50.8361 0 0 1 5,52 v -2 a 50.8361,50.8361 0 0 0 6.2,1 c 1.57,0 4.6305,-0.9586 6.2,-1 1.5695,-0.0414 4.6308,0.9519 6.2,1 1.5692,0.0481 4.6308,-0.9508 6.2,-1 1.5692,-0.0492 4.6307,0.9506 6.2,1 1.5693,0.0494 4.6307,-0.9506 6.2,-1 1.5693,-0.0494 4.6307,0.9506 6.2,1 1.5693,0.0494 4.6307,-0.9506 6.2,-1 1.5693,-0.0494 4.6307,0.9506 6.2,1 A 42.5886,42.5886 0 0 0 67,50 Z"
     id="path336" />
  <path
     style="color:#000000;fill:#f1b31c;stroke-width:2;stroke-linecap:round;stroke-linejoin:round;-inkscape-stroke:none"
     d="m 45.5,22 a 17.1366,17.1366 0 0 1 -8,2"
     id="path300" />
  <path
     style="color:#000000;fill:#f1b31c;stroke-linecap:round;stroke-linejoin:round;-inkscape-stroke:none"
     d="M 45.03125,21.117187 C 42.710892,22.34878 40.124994,22.994766 37.498047,23 A 1,1 0 0 0 36.5,24.001953 1,1 0 0 0 37.501953,25 c 2.952462,-0.0059 5.858916,-0.732984 8.466797,-2.117188 A 1,1 0 0 0 46.382812,21.53125 1,1 0 0 0 45.03125,21.117187 Z"
     id="path297" />
  <path
     style="color:#000000;fill:#f1b31c;stroke-width:2;stroke-linecap:round;stroke-linejoin:round"
     d="m 26.5,22 a 17.1366,17.1366 0 0 0 8,2"
     id="path306" />
  <path
     style="color:#000000;fill:#f1b31c;stroke-linecap:round;stroke-linejoin:round"
     d="m 26.207031,21.042969 a 1,1 0 0 0 -0.589844,0.488281 1,1 0 0 0 0.414063,1.351562 C 28.639131,24.267016 31.545585,24.994118 34.498047,25 A 1,1 0 0 0 35.5,24.001953 1,1 0 0 0 34.501953,23 C 31.875006,22.9948 29.289108,22.34878 26.96875,21.117187 a 1,1 0 0 0 -0.761719,-0.07422 z"
     id="path303" />
  <path
     style="color:#000000;fill:#f1b31c;stroke-linecap:round;stroke-linejoin:round"
     d="m 36,23.966797 c -1.676332,0 -3.353216,0.351734 -4.916016,1.054687 a 1,1 0 0 0 -0.501953,1.322266 1,1 0 0 0 1.322266,0.501953 c 2.604987,-1.171733 5.586133,-1.17305 8.191406,-0.002 a 1,1 0 0 0 1.322266,-0.501953 1,1 0 0 0 -0.501953,-1.322266 C 39.353044,24.316959 37.676332,23.966592 36,23.966797 Z"
     id="path309" />
  <path
     style="color:#000000;fill:#000000;stroke-linecap:round;stroke-linejoin:round"
     d="m 5,16 a 1.0001,1.0001 0 0 0 -1,1 v 38 a 1.0001,1.0001 0 0 0 1,1 h 62 a 1.0001,1.0001 0 0 0 1,-1 V 17 a 1.0001,1.0001 0 0 0 -1,-1 z m 1,2 H 66 V 54 H 6 Z"
     id="path318" />
</svg>
