<?xml version="1.0" encoding="UTF-8" standalone="no"?>
<svg
   id="emoji"
   viewBox="0 0 72 72"
   version="1.1"
   sodipodi:docname="Liberia.svg"
   inkscape:version="1.2 (dc2aeda, 2022-05-15)"
   xmlns:inkscape="http://www.inkscape.org/namespaces/inkscape"
   xmlns:sodipodi="http://sodipodi.sourceforge.net/DTD/sodipodi-0.dtd"
   xmlns="http://www.w3.org/2000/svg"
   xmlns:svg="http://www.w3.org/2000/svg">
  <defs
     id="defs2008" />
  <sodipodi:namedview
     id="namedview2006"
     pagecolor="#ffffff"
     bordercolor="#000000"
     borderopacity="0.25"
     inkscape:showpageshadow="2"
     inkscape:pageopacity="0.0"
     inkscape:pagecheckerboard="0"
     inkscape:deskcolor="#d1d1d1"
     showgrid="false"
     inkscape:zoom="3.2777778"
     inkscape:cx="-13.271186"
     inkscape:cy="36"
     inkscape:window-width="1309"
     inkscape:window-height="456"
     inkscape:window-x="0"
     inkscape:window-y="25"
     inkscape:window-maximized="0"
     inkscape:current-layer="emoji" />
  <path
     id="path2199"
     style="fill:#ffffff"
     d="M 5,17 H 67 V 55 H 5 Z" />
  <path
     id="path2202"
     style="fill:#d22f27"
     d="m 5,17 h 62 v 5 H 5 Z" />
  <path
     id="path2205"
     style="fill:#d22f27"
     d="m 5,26 h 62 v 4 H 5 Z" />
  <path
     id="path2208"
     style="fill:#d22f27"
     d="m 5,34 h 62 v 4 H 5 Z" />
  <path
     id="path2211"
     style="fill:#d22f27"
     d="m 5,42 h 62 v 4 H 5 Z" />
  <path
     id="path2214"
     style="fill:#d22f27"
     d="m 5,50 h 62 v 5 H 5 Z" />
  <path
     id="path2217"
     style="fill:#1e50a0"
     d="M 5,17 H 22 V 34 H 5 Z" />
  <path
     style="color:#000000;fill:#ffffff;stroke-linecap:round;stroke-linejoin:round;-inkscape-stroke:none"
     d="M 14.09,24.91 13.5,23 12.91,24.91 H 11 L 12.545,26.09 11.955,28 13.5,26.82 15.045,28 14.455,26.09 16,24.91 Z"
     id="path2193" />
  <path
     style="color:#000000;fill:#ffffff;stroke-linecap:round;stroke-linejoin:round;-inkscape-stroke:none"
     d="m 13.5,22.5 a 0.50005,0.50005 0 0 0 -0.478516,0.351562 l -0.480468,1.558594 H 11 a 0.50005,0.50005 0 0 0 -0.302734,0.896485 l 1.267578,0.96875 -0.488281,1.576171 a 0.50005,0.50005 0 0 0 0.78125,0.544922 L 13.5,27.449219 l 1.242188,0.947265 a 0.50005,0.50005 0 0 0 0.78125,-0.544922 l -0.488282,-1.576171 1.267578,-0.96875 A 0.50005,0.50005 0 0 0 16,24.410156 H 14.458984 L 13.978516,22.851562 A 0.50005,0.50005 0 0 0 13.5,22.5 Z m 0,2.197266 0.111328,0.359375 a 0.50005,0.50005 0 0 0 0.478516,0.353515 h 0.433594 l -0.371094,0.283203 a 0.50005,0.50005 0 0 0 -0.175781,0.544922 l 0.128906,0.414063 -0.302735,-0.230469 a 0.50005,0.50005 0 0 0 -0.605468,0 l -0.302735,0.230469 0.128907,-0.414063 a 0.50005,0.50005 0 0 0 -0.175782,-0.544922 l -0.371093,-0.283203 h 0.433593 a 0.50005,0.50005 0 0 0 0.478516,-0.353515 z"
     id="path2190" />
  <path
     style="color:#000000;fill:#000000;stroke-linecap:round;stroke-linejoin:round;-inkscape-stroke:none"
     d="m 5,16 a 1.0001,1.0001 0 0 0 -1,1 v 38 a 1.0001,1.0001 0 0 0 1,1 h 62 a 1.0001,1.0001 0 0 0 1,-1 V 17 a 1.0001,1.0001 0 0 0 -1,-1 z m 1,2 H 66 V 54 H 6 Z"
     id="path2196" />
</svg>
