<?xml version="1.0" encoding="UTF-8" standalone="no"?>
<svg
   id="emoji"
   viewBox="0 0 72 72"
   version="1.1"
   sodipodi:docname="Malaysia.svg"
   inkscape:version="1.2 (dc2aeda, 2022-05-15)"
   xmlns:inkscape="http://www.inkscape.org/namespaces/inkscape"
   xmlns:sodipodi="http://sodipodi.sourceforge.net/DTD/sodipodi-0.dtd"
   xmlns="http://www.w3.org/2000/svg"
   xmlns:svg="http://www.w3.org/2000/svg">
  <defs
     id="defs4124" />
  <sodipodi:namedview
     id="namedview4122"
     pagecolor="#ffffff"
     bordercolor="#000000"
     borderopacity="0.25"
     inkscape:showpageshadow="2"
     inkscape:pageopacity="0.0"
     inkscape:pagecheckerboard="0"
     inkscape:deskcolor="#d1d1d1"
     showgrid="false"
     inkscape:zoom="3.2777778"
     inkscape:cx="-13.271186"
     inkscape:cy="36"
     inkscape:window-width="1309"
     inkscape:window-height="456"
     inkscape:window-x="0"
     inkscape:window-y="25"
     inkscape:window-maximized="0"
     inkscape:current-layer="emoji" />
  <path
     id="path4335"
     style="fill:#ffffff"
     d="M 5,17 H 67 V 55 H 5 Z" />
  <path
     id="path4338"
     style="fill:#d22f27"
     d="m 5,17 h 62 v 5 H 5 Z" />
  <path
     id="path4341"
     style="fill:#d22f27"
     d="m 5,26 h 62 v 4 H 5 Z" />
  <path
     id="path4344"
     style="fill:#d22f27"
     d="m 5,34 h 62 v 4 H 5 Z" />
  <path
     id="path4347"
     style="fill:#d22f27"
     d="m 5,42 h 62 v 4 H 5 Z" />
  <path
     id="path4350"
     style="fill:#d22f27"
     d="m 5,50 h 62 v 5 H 5 Z" />
  <path
     id="path4353"
     style="fill:#1e50a0"
     d="M 5,17 H 34 V 38 H 5 Z" />
  <path
     style="color:#000000;fill:#f1b31c;stroke-linecap:round;stroke-linejoin:round;-inkscape-stroke:none"
     d="M 13.8446,27.5 A 6.2149,6.2149 0 0 1 19.25,21.6146 7.4868,7.4868 0 0 0 17.9527,21.5 c -3.7018,0 -6.7027,2.6863 -6.7027,6 0,3.3137 3.0009,6 6.7027,6 A 7.4868,7.4868 0 0 0 19.25,33.3854 6.2149,6.2149 0 0 1 13.8446,27.5 Z"
     id="path4323" />
  <path
     style="color:#000000;fill:#f1b31c;stroke-linecap:round;stroke-linejoin:round;-inkscape-stroke:none"
     d="M 17.953125,21 C 14.009438,21 10.75,23.884436 10.75,27.5 c 0,3.615564 3.259438,6.5 7.203125,6.5 0.463988,0 0.92788,-0.04217 1.384766,-0.123047 a 0.50005,0.50005 0 0 0 -0.02344,-0.988281 C 16.5679,32.530663 14.481895,30.264337 14.347656,27.5 14.481895,24.735663 16.5679,22.469337 19.314453,22.111328 a 0.50005,0.50005 0 0 0 0.02344,-0.988281 C 18.881005,21.042174 18.417113,21.000474 17.953125,21 Z m -1.615234,1.289062 c -1.706298,1.160251 -2.895033,3.014695 -2.992188,5.189454 a 0.50005,0.50005 0 0 0 0,0.04297 c 0.09715,2.174759 1.28589,4.029203 2.992188,5.189453 C 13.698375,32.066606 11.75,30.011296 11.75,27.5 c 0,-2.511296 1.948375,-4.566606 4.587891,-5.210938 z"
     id="path4320" />
  <path
     style="color:#000000;fill:#f1b31c;stroke-linecap:round;stroke-linejoin:round;-inkscape-stroke:none"
     d="m 25.703,26.822 4.047,-0.532 -3.889,1.214 3.883,1.233 -4.044,-0.552 2.949,2.755 -3.398,-2.209 1.433,3.73 -2.079,-3.428 -0.369,3.967 -0.348,-3.969 -2.097,3.418 1.451,-3.723 -3.409,2.192 2.964,-2.74 -4.047,0.532 3.889,-1.214 -3.883,-1.233 4.044,0.552 -2.949,-2.755 3.398,2.209 -1.433,-3.73 2.079,3.428 0.369,-3.967 0.348,3.969 2.097,-3.418 -1.451,3.723 3.409,-2.192 z"
     id="path4329" />
  <path
     style="color:#000000;fill:#f1b31c;stroke-linecap:round;stroke-linejoin:round;-inkscape-stroke:none"
     d="m 24.265625,21.5 a 0.50005,0.50005 0 0 0 -0.5,0.453125 l -0.228516,2.458984 -1.292968,-2.132812 a 0.50005,0.50005 0 0 0 -0.894532,0.439453 l 0.88086,2.291016 -2.107422,-1.369141 a 0.50005,0.50005 0 0 0 -0.613281,0.785156 l 1.800781,1.681641 -2.486328,-0.339844 a 0.50005,0.50005 0 0 0 -0.21875,0.972656 l 2.36914,0.751953 -2.373047,0.740235 a 0.50005,0.50005 0 0 0 0.212891,0.972656 l 2.488281,-0.326172 -1.808593,1.671875 a 0.50005,0.50005 0 0 0 0.609375,0.78711 l 2.113281,-1.357422 -0.892578,2.287109 a 0.50005,0.50005 0 0 0 0.892578,0.443359 l 1.30664,-2.128906 0.214844,2.460938 a 0.50005,0.50005 0 0 0 0.996094,0.0039 l 0.228516,-2.458984 1.292968,2.132812 a 0.50005,0.50005 0 0 0 0.894532,-0.439453 l -0.88086,-2.291016 2.107422,1.369141 a 0.50005,0.50005 0 0 0 0.613281,-0.785156 l -1.800781,-1.681641 2.486328,0.339844 a 0.50005,0.50005 0 0 0 0.21875,-0.972656 l -2.36914,-0.751954 2.373046,-0.740234 a 0.50005,0.50005 0 0 0 -0.21289,-0.972656 l -2.488281,0.326172 1.808593,-1.671875 a 0.50005,0.50005 0 0 0 -0.609375,-0.78711 l -2.113281,1.357422 0.892578,-2.287109 a 0.50005,0.50005 0 0 0 -0.892578,-0.44336 l -1.306641,2.128907 -0.214843,-2.460938 A 0.50005,0.50005 0 0 0 24.265625,21.5 Z m -0.01172,4.673828 a 0.50005,0.50005 0 0 0 0.595703,0.134766 0.50005,0.50005 0 0 0 0.46875,0.375 0.50005,0.50005 0 0 0 0.257813,0.529297 0.50005,0.50005 0 0 0 -0.002,0.582031 0.50005,0.50005 0 0 0 -0.257813,0.527344 0.50005,0.50005 0 0 0 -0.474609,0.371093 0.50005,0.50005 0 0 0 -0.595703,0.132813 0.50005,0.50005 0 0 0 -0.548828,-0.154297 0.50005,0.50005 0 0 0 -0.439454,-0.410156 0.50005,0.50005 0 0 0 -0.238281,-0.494141 0.50005,0.50005 0 0 0 0.002,-0.541016 0.50005,0.50005 0 0 0 0.238282,-0.49414 0.50005,0.50005 0 0 0 0.443359,-0.40625 0.50005,0.50005 0 0 0 0.550781,-0.152344 z"
     id="path4326" />
  <path
     style="color:#000000;fill:#000000;stroke-linecap:round;stroke-linejoin:round;-inkscape-stroke:none"
     d="m 5,16 a 1.0001,1.0001 0 0 0 -1,1 v 38 a 1.0001,1.0001 0 0 0 1,1 h 62 a 1.0001,1.0001 0 0 0 1,-1 V 17 a 1.0001,1.0001 0 0 0 -1,-1 z m 1,2 H 66 V 54 H 6 Z"
     id="path4332" />
</svg>
