<?xml version="1.0" encoding="UTF-8" standalone="no"?>
<svg
   id="emoji"
   viewBox="0 0 72 72"
   version="1.1"
   sodipodi:docname="Malawi.svg"
   inkscape:version="1.2 (dc2aeda, 2022-05-15)"
   xmlns:inkscape="http://www.inkscape.org/namespaces/inkscape"
   xmlns:sodipodi="http://sodipodi.sourceforge.net/DTD/sodipodi-0.dtd"
   xmlns="http://www.w3.org/2000/svg"
   xmlns:svg="http://www.w3.org/2000/svg">
  <defs
     id="defs3901" />
  <sodipodi:namedview
     id="namedview3899"
     pagecolor="#ffffff"
     bordercolor="#000000"
     borderopacity="0.25"
     inkscape:showpageshadow="2"
     inkscape:pageopacity="0.0"
     inkscape:pagecheckerboard="0"
     inkscape:deskcolor="#d1d1d1"
     showgrid="false"
     inkscape:zoom="3.2777778"
     inkscape:cx="-13.271186"
     inkscape:cy="36"
     inkscape:window-width="1309"
     inkscape:window-height="456"
     inkscape:window-x="0"
     inkscape:window-y="25"
     inkscape:window-maximized="0"
     inkscape:current-layer="emoji" />
  <path
     id="path4077"
     style="fill:#5c9e31"
     d="M 5,17 H 67 V 55 H 5 Z" />
  <path
     id="path4080"
     d="M 5,17 H 67 V 30 H 5 Z" />
  <path
     id="path4083"
     style="fill:#d22f27"
     d="M 5,30 H 67 V 42 H 5 Z" />
  <path
     style="color:#000000;fill:#d22f27;stroke-miterlimit:10;-inkscape-stroke:none"
     d="M 29.2393,30.9991 A 7.503,7.503 0 0 1 42.76,30.9984 Z"
     id="path4068" />
  <path
     style="color:#000000;fill:#d22f27;stroke-miterlimit:10;-inkscape-stroke:none"
     d="m 36,26.273437 c -2.881872,0 -5.763985,1.503841 -7.210938,4.509766 L 28.443359,31.5 h 0.796875 L 43.556641,31.498 43.210937,30.781203 C 41.763674,27.775475 38.881872,26.273288 36,26.273437 Z m 0,0.955079 c 2.256415,0 4.461593,1.129481 5.826172,3.269531 L 30.169922,30.5 C 31.534181,28.358813 33.74306,27.228632 36,27.228516 Z"
     id="path4065" />
  <path
     style="color:#000000;fill:#d22f27;stroke-miterlimit:10;-inkscape-stroke:none"
     d="m 36,23.75 c -4.145638,0 -8.317379,2.388496 -9.933594,7.087891 L 25.839844,31.5 h 0.699218 19.621094 L 45.933594,30.835937 C 44.316932,26.136697 40.145638,23.749803 36,23.75 Z m 0,1 c 3.545192,0 6.999263,1.943868 8.634766,5.75 H 27.365234 C 29.000375,26.693713 32.454808,24.750169 36,24.75 Z"
     id="path4071" />
  <path
     style="color:#000000;fill:#000000;stroke-linecap:round;stroke-linejoin:round;-inkscape-stroke:none"
     d="m 5,16 a 1.0001,1.0001 0 0 0 -1,1 v 38 a 1.0001,1.0001 0 0 0 1,1 h 62 a 1.0001,1.0001 0 0 0 1,-1 V 17 a 1.0001,1.0001 0 0 0 -1,-1 z m 1,2 H 66 V 54 H 6 Z"
     id="path4074" />
</svg>
