<?xml version="1.0" encoding="UTF-8" standalone="no"?>
<svg
   id="emoji"
   viewBox="0 0 72 72"
   version="1.1"
   sodipodi:docname="Marshall Islands.svg"
   inkscape:version="1.2 (dc2aeda, 2022-05-15)"
   xmlns:inkscape="http://www.inkscape.org/namespaces/inkscape"
   xmlns:sodipodi="http://sodipodi.sourceforge.net/DTD/sodipodi-0.dtd"
   xmlns="http://www.w3.org/2000/svg"
   xmlns:svg="http://www.w3.org/2000/svg">
  <defs
     id="defs4945" />
  <sodipodi:namedview
     id="namedview4943"
     pagecolor="#ffffff"
     bordercolor="#000000"
     borderopacity="0.25"
     inkscape:showpageshadow="2"
     inkscape:pageopacity="0.0"
     inkscape:pagecheckerboard="0"
     inkscape:deskcolor="#d1d1d1"
     showgrid="false"
     inkscape:zoom="3.2777778"
     inkscape:cx="-13.271186"
     inkscape:cy="36"
     inkscape:window-width="1309"
     inkscape:window-height="456"
     inkscape:window-x="0"
     inkscape:window-y="25"
     inkscape:window-maximized="0"
     inkscape:current-layer="emoji" />
  <path
     id="path5112"
     style="fill:#1e50a0"
     d="M 5,17 H 67 V 55 H 5 Z" />
  <path
     id="path5115"
     style="fill:#f1b31c"
     d="m 6,53 v 1 L 67,24 v -6 z" />
  <path
     id="path5118"
     style="fill:#ffffff"
     d="m 6,54 v 1 L 67,30 v -6 z" />
  <path
     style="color:#000000;fill:#ffffff;stroke-linecap:round;stroke-linejoin:round"
     d="m 17.081,27.059 1.962,-2.802 -1.643,2.979 2.662,-2.226 -2.403,2.475 3.181,-1.5 -2.999,1.804 3.483,-0.671 -3.391,1.009 5.186,0.188 -5.189,0.161 3.372,1.065 -3.471,-0.728 2.966,1.852 -3.153,-1.552 2.357,2.515 -2.621,-2.27 1.588,3.006 -1.909,-2.834 0.71,3.291 -1.068,-3.204 -0.19,5.673 -0.18,-5.676 -1.127,3.186 0.771,-3.279 -1.961,2.802 1.643,-2.979 -2.662,2.226 2.403,-2.475 -3.181,1.5 2.999,-1.804 -3.484,0.671 3.391,-1.009 -6.004,-0.18 6.008,-0.169 -3.372,-1.065 3.47,0.729 -2.965,-1.853 3.153,1.552 -2.357,-2.515 2.621,2.27 -1.588,-3.005 1.909,2.833 -0.71,-3.291 1.068,3.204 0.19,-5.673 0.179,5.676 1.127,-3.186 z"
     id="path5109" />
  <path
     style="color:#000000;fill:#ffffff;stroke-linecap:round;stroke-linejoin:round"
     d="m 16.546875,20.791016 a 0.50005,0.50005 0 0 0 -0.5,0.482421 l -0.09766,2.890625 -0.1875,-0.5625 a 0.50005,0.50005 0 0 0 -0.962891,0.263672 l 0.16211,0.751953 -0.457032,-0.679687 a 0.50005,0.50005 0 0 0 -0.857422,0.513672 l 0.341797,0.648437 -0.605468,-0.52539 a 0.50005,0.50005 0 0 0 -0.691407,0.71875 l 0.482422,0.513672 -0.648437,-0.316407 -0.04492,-0.02344 a 0.50005,0.50005 0 0 0 -0.486328,0.873047 l 0.574218,0.359375 -0.710937,-0.150391 a 0.50005,0.50005 0 0 0 -0.253906,0.966797 l 0.544922,0.171875 -3.0136724,0.08594 h -0.029297 a 0.50005,0.50005 0 0 0 -0.00195,1 h 0.029297 l 2.8691404,0.08594 -0.412109,0.123047 a 0.50005,0.50005 0 0 0 0.236328,0.970703 l 0.716797,-0.138672 -0.583985,0.351563 a 0.50005,0.50005 0 0 0 0.470704,0.880859 L 13.125,30.71875 l -0.451172,0.466797 -0.03711,0.03711 a 0.50005,0.50005 0 0 0 0.679687,0.730469 l 0.613282,-0.511719 -0.353516,0.640625 a 0.50005,0.50005 0 0 0 0.847656,0.527344 l 0.46875,-0.667969 -0.175781,0.744141 a 0.50005,0.50005 0 0 0 0.958984,0.28125 l 0.240235,-0.679688 0.0957,3.019532 a 0.50005,0.50005 0 0 0 0.998047,0 l 0.002,-0.0332 v -0.01172 l 0.0957,-2.845703 0.1875,0.5625 a 0.50005,0.50005 0 0 0 0.96289,-0.263672 l -0.162109,-0.751953 0.457031,0.679687 a 0.50005,0.50005 0 0 0 0.857422,-0.511719 l -0.34375,-0.65039 0.607422,0.52539 a 0.50005,0.50005 0 0 0 0.691406,-0.720703 l -0.478515,-0.511719 0.644531,0.316407 0.04492,0.02344 a 0.50005,0.50005 0 0 0 0.48629,-0.873053 l -0.574219,-0.357422 0.710938,0.148438 a 0.50005,0.50005 0 0 0 0.253906,-0.966797 l -0.570313,-0.179687 2.251954,-0.07031 a 0.50005,0.50005 0 0 0 0.002,-1 l -2.138672,-0.07813 0.46875,-0.138672 a 0.50005,0.50005 0 0 0 -0.238281,-0.970703 l -0.714844,0.138672 0.583984,-0.351563 A 0.50005,0.50005 0 0 0 20.627,25.533201 l -0.695312,0.328125 0.451171,-0.466797 0.03711,-0.03711 A 0.50005,0.50005 0 0 0 19.742187,24.626953 L 19.125,25.142578 19.480469,24.498047 a 0.50005,0.50005 0 0 0 -0.847657,-0.527344 l -0.470703,0.671875 0.175782,-0.748047 a 0.50005,0.50005 0 0 0 -0.957032,-0.28125 l -0.240234,0.679688 -0.0957,-3.019532 a 0.50005,0.50005 0 0 0 -0.498047,-0.482421 z m -0.0098,6.542968 a 0.50005,0.50005 0 0 0 0.265625,0.0332 0.50005,0.50005 0 0 0 0.25,0.09961 0.50005,0.50005 0 0 0 0.210938,0.154297 0.50005,0.50005 0 0 0 0.162109,0.199218 0.50005,0.50005 0 0 0 0.101563,0.232422 0.50005,0.50005 0 0 0 0.0293,0.246094 0.50005,0.50005 0 0 0 -0.03516,0.246094 0.50005,0.50005 0 0 0 -0.105468,0.228515 0.50005,0.50005 0 0 0 -0.164063,0.197266 0.50005,0.50005 0 0 0 -0.216797,0.150391 0.50005,0.50005 0 0 0 -0.25,0.09766 0.50005,0.50005 0 0 0 -0.265625,0.02734 0.50005,0.50005 0 0 0 -0.210937,-0.06641 0.50005,0.50005 0 0 0 -0.324219,-0.144531 0.50005,0.50005 0 0 0 -0.195312,-0.160156 0.50005,0.50005 0 0 0 -0.136719,-0.191406 0.50005,0.50005 0 0 0 -0.07617,-0.201172 0.50005,0.50005 0 0 0 -0.02539,-0.191406 0.50005,0.50005 0 0 0 0.0293,-0.212891 0.50005,0.50005 0 0 0 0.07813,-0.193359 0.50005,0.50005 0 0 0 0.138672,-0.185547 0.50005,0.50005 0 0 0 0.205078,-0.164063 0.50005,0.50005 0 0 0 0.326172,-0.138672 0.50005,0.50005 0 0 0 0.208984,-0.0625 z"
     id="path5106" />
  <path
     style="color:#000000;fill:#000000;stroke-linecap:round;stroke-linejoin:round;-inkscape-stroke:none"
     d="m 5,16 a 1.0001,1.0001 0 0 0 -1,1 v 38 a 1.0001,1.0001 0 0 0 1,1 h 62 a 1.0001,1.0001 0 0 0 1,-1 V 17 a 1.0001,1.0001 0 0 0 -1,-1 z m 1,2 H 66 V 54 H 6 Z"
     id="path5103" />
</svg>
