<?xml version="1.0" encoding="UTF-8" standalone="no"?>
<svg
   id="emoji"
   viewBox="0 0 72 72"
   version="1.1"
   sodipodi:docname="Mayotte.svg"
   inkscape:version="1.2 (dc2aeda, 2022-05-15)"
   xmlns:inkscape="http://www.inkscape.org/namespaces/inkscape"
   xmlns:sodipodi="http://sodipodi.sourceforge.net/DTD/sodipodi-0.dtd"
   xmlns="http://www.w3.org/2000/svg"
   xmlns:svg="http://www.w3.org/2000/svg">
  <defs
     id="defs6147" />
  <sodipodi:namedview
     id="namedview6145"
     pagecolor="#ffffff"
     bordercolor="#000000"
     borderopacity="0.25"
     inkscape:showpageshadow="2"
     inkscape:pageopacity="0.0"
     inkscape:pagecheckerboard="0"
     inkscape:deskcolor="#d1d1d1"
     showgrid="false"
     inkscape:zoom="3.2777778"
     inkscape:cx="-13.271186"
     inkscape:cy="36"
     inkscape:window-width="1309"
     inkscape:window-height="456"
     inkscape:window-x="0"
     inkscape:window-y="25"
     inkscape:window-maximized="0"
     inkscape:current-layer="emoji" />
  <path
     id="path6425"
     style="fill:#ffffff"
     d="M 5,17 H 67 V 55 H 5 Z" />
  <path
     fill="#1e50a0"
     stroke-width="0.7699"
     d="m 28.63,36.7 a 1.357,1.357 0 0 0 1.21,1.346 v 0.0154 h 12.1 V 38.046 a 1.342,1.342 0 0 0 0.1513,0.0154 1.362,1.362 0 0 0 0,-2.723 1.342,1.342 0 0 0 -0.1513,0.0154 V 35.323 a 1.342,1.342 0 0 0 0.1513,0.0154 1.362,1.362 0 1 0 0,-2.723 1.324,1.324 0 0 0 -0.1513,0.0154 V 32.6 a 1.324,1.324 0 0 0 0.1513,0.0154 1.362,1.362 0 1 0 -1.346,-1.513 h -0.333 a 1.354,1.354 0 0 0 -2.693,0 h -0.3328 a 1.354,1.354 0 0 0 -2.693,0 h -0.333 a 1.354,1.354 0 0 0 -2.692,0 h -0.3331 a 1.358,1.358 0 1 0 -1.498,1.498 v 0.0308 a 1.354,1.354 0 0 0 0,2.692 v 0.0308 a 1.357,1.357 0 0 0 -1.21,1.346 z"
     id="path6395" />
  <path
     fill="#d22f27"
     stroke-width="0.7699"
     d="m 43.45,39.43 a 1.357,1.357 0 0 0 -1.21,-1.346 v -0.0154 h -12.1 v 0.0154 a 1.342,1.342 0 0 0 -0.1513,-0.0154 1.362,1.362 0 0 0 0,2.723 1.324,1.324 0 0 0 0.1513,-0.0154 v 0.0308 a 1.324,1.324 0 0 0 -0.1513,-0.0154 1.362,1.362 0 0 0 0,2.723 1.342,1.342 0 0 0 0.1513,-0.0154 V 43.53 a 1.342,1.342 0 0 0 -0.1513,-0.0154 1.362,1.362 0 1 0 1.346,1.513 h 0.3331 a 1.354,1.354 0 0 0 2.692,0 h 0.333 a 1.354,1.354 0 0 0 2.693,0 h 0.333 a 1.354,1.354 0 0 0 2.693,0 h 0.333 a 1.358,1.358 0 1 0 1.498,-1.498 v -0.0308 a 1.354,1.354 0 0 0 0,-2.692 V 40.776 a 1.357,1.357 0 0 0 1.21,-1.346 z"
     id="path6398" />
  <path
     style="color:#000000;fill:#ffffff;stroke-width:0.7413;stroke-linecap:round;stroke-linejoin:round;-inkscape-stroke:none"
     d="m 36.04,35.5 a 2.382,2.382 0 0 1 -2.306,-1.986 2.581,2.581 0 0 0 -0.04496,0.4766 2.354,2.354 0 1 0 4.703,0 2.588,2.588 0 0 0 -0.04489,-0.4766 2.382,2.382 0 0 1 -2.306,1.986 z"
     id="path6374" />
  <path
     style="color:#000000;fill:#ffffff;stroke-linecap:round;stroke-linejoin:round;-inkscape-stroke:none"
     d="m 33.738281,33.142578 a 0.37068706,0.37068706 0 0 0 -0.36914,0.302734 c -0.03325,0.175805 -0.0479,0.354301 -0.04883,0.533204 -0.04027,0.911613 0.288146,1.649755 0.810547,2.130859 0.523682,0.482283 1.21979,0.714844 1.910157,0.714844 0.690366,0 1.386474,-0.232561 1.910156,-0.714844 0.522401,-0.481104 0.848866,-1.219246 0.808594,-2.130859 0,-0.178838 -0.01566,-0.35745 -0.04883,-0.533204 a 0.37068706,0.37068706 0 0 0 -0.728515,0.0078 c -0.160841,0.95498 -0.973834,1.653297 -1.941406,1.673828 -0.967573,-0.02053 -1.780565,-0.718848 -1.941407,-1.673828 a 0.37068706,0.37068706 0 0 0 -0.361328,-0.310547 z m 0.796875,2.154297 c 0.438321,0.309626 0.930582,0.563993 1.498047,0.574219 a 0.37068706,0.37068706 0 0 0 0.0059,0 h 0.002 a 0.37068706,0.37068706 0 0 0 0.0059,0 c 0.568111,-0.01024 1.061391,-0.263954 1.5,-0.574219 -0.05482,0.06759 -0.03452,0.209436 -0.09766,0.267578 -0.367595,0.338536 -0.884962,0.517578 -1.408203,0.517578 -0.523242,0 -1.040608,-0.179042 -1.408204,-0.517578 -0.06311,-0.05812 -0.04286,-0.200018 -0.09766,-0.267578 z"
     id="path6371" />
  <path
     fill="#f1b31c"
     stroke-width="0.7699"
     d="m 33.5,39.46 a 0.3537,0.3537 0 0 1 0.3537,0.3537 v 2.83 A 0.3537,0.3537 0 0 1 33.5,42.9974 0.3537,0.3537 0 0 1 33.1463,42.6437 v -2.83 A 0.3537,0.3537 0 0 1 33.5,39.46 Z"
     id="path6401" />
  <path
     fill="#f1b31c"
     stroke-width="0.7699"
     d="m 31.97,40.34 a 0.3537,0.3537 0 0 1 0.4832,-0.1295 l 2.451,1.415 a 0.3537,0.3537 0 0 1 0.1295,0.4831 0.3537,0.3537 0 0 1 -0.4832,0.1295 l -2.451,-1.415 A 0.3537,0.3537 0 0 1 31.97,40.3399 Z"
     id="path6404" />
  <path
     fill="#f1b31c"
     stroke-width="0.7699"
     d="m 31.97,42.11 a 0.3537,0.3537 0 0 1 0.1294,-0.4831 l 2.451,-1.415 a 0.3537,0.3537 0 0 1 0.4832,0.1295 0.3537,0.3537 0 0 1 -0.1294,0.4831 l -2.451,1.415 A 0.3537,0.3537 0 0 1 31.97,42.11 Z"
     id="path6407" />
  <path
     fill="#f1b31c"
     stroke-width="0.7699"
     d="m 38.58,39.46 a 0.3537,0.3537 0 0 1 0.3537,0.3537 v 2.83 A 0.3537,0.3537 0 0 1 38.58,42.9974 0.3537,0.3537 0 0 1 38.2263,42.6437 v -2.83 A 0.3537,0.3537 0 0 1 38.58,39.46 Z"
     id="path6410" />
  <path
     fill="#f1b31c"
     stroke-width="0.7699"
     d="m 37.04,40.34 a 0.3537,0.3537 0 0 1 0.4831,-0.1295 l 2.451,1.415 a 0.3537,0.3537 0 0 1 0.1295,0.4831 0.3537,0.3537 0 0 1 -0.4832,0.1295 l -2.45,-1.415 a 0.3537,0.3537 0 0 1 -0.1295,-0.4832 z"
     id="path6413" />
  <path
     fill="#f1b31c"
     stroke-width="0.7699"
     d="m 37.04,42.11 a 0.3537,0.3537 0 0 1 0.1295,-0.4831 l 2.451,-1.415 a 0.3537,0.3537 0 0 1 0.4831,0.1295 0.3537,0.3537 0 0 1 -0.1295,0.4832 l -2.45,1.415 a 0.3537,0.3537 0 0 1 -0.4832,-0.1295 z"
     id="path6416" />
  <path
     style="color:#000000;fill:#9b9b9a;stroke-width:0.7413;stroke-linecap:round;stroke-linejoin:round;-inkscape-stroke:none"
     d="m 50.78,40.82 c 1.466,-0.6358 2.694,-2.471 3.014,-2.864 0.7899,-0.9716 1.58,-4.797 -1.038,-7.285 a 5.519,5.519 0 0 0 -1.245,-0.8671 c -2.557,-1.347 -2.557,-0.4474 -2.557,-0.4474 a 1.538,1.538 0 0 1 1.076,0.6615 c 0.5377,0.6615 0,0.6615 -1.076,1.323 -1.076,0.6615 -0.5378,1.985 -1.076,2.646 -0.5381,0.6615 -1.076,0.6615 -0.5377,1.323 0.5378,0.6615 2.282,-1.038 2.282,-1.038 l 0.0034,-0.0028 a 1.412,1.412 0 0 0 0.9415,0.379 1.781,1.781 0 0 0 1.597,-1.789 0.3873,0.3873 0 0 1 0.2848,0.1347 c 0.5365,0.6599 0.05351,2.131 -3.738,3.955 -4.91,2.362 -4.68,7.095 -4.385,8.916 a 3.977,3.977 0 0 0 0.4345,1.271 c 0.1405,0.2571 0.2843,0.5062 0.4287,0.7423 a 5.625,5.625 0 0 0 5.109,2.977 c 2.198,0 3.986,-2.163 4.032,-4.853 0.001,-0.06467 -0.0055,-0.1283 -0.0092,-0.1925 -0.1041,2.259 -1.622,4.053 -3.485,4.053 -0.0629,0 -0.1243,-0.0077 -0.1862,-0.0117 -0.0522,-0.0022 -0.104,-0.0035 -0.1559,-0.0095 -1.77,-0.2116 -3.153,-2.046 -3.153,-4.279 a 5.271,5.271 0 0 1 3.44,-4.744 z"
     id="path6380" />
  <path
     style="color:#000000;fill:#9b9b9a;stroke-linecap:round;stroke-linejoin:round;-inkscape-stroke:none"
     d="m 49.208984,28.710937 c -0.242822,0.04294 -0.436451,0.181047 -0.529297,0.328125 -0.09285,0.147079 -0.0957,0.31836 -0.0957,0.31836 a 0.37068706,0.37068706 0 0 0 0.322266,0.367187 c 0.331768,0.04273 0.628511,0.225202 0.816406,0.501953 a 0.37068706,0.37068706 0 0 0 0.01953,0.02539 c 0.09135,0.112386 0.09486,0.140765 0.101563,0.150391 -0.116381,0.0906 -0.531405,0.283334 -1.083984,0.623047 -0.655439,0.402948 -0.840472,1.061084 -0.91211,1.589843 -0.07164,0.52876 -0.103384,0.949008 -0.257812,1.138672 -0.230898,0.283849 -0.461071,0.400865 -0.671875,0.660156 -0.105402,0.129646 -0.196624,0.350942 -0.16211,0.5625 0.03442,0.210988 0.143882,0.37822 0.296875,0.566407 0.122659,0.150871 0.304895,0.247864 0.478516,0.277343 0.173621,0.02948 0.337481,0.0058 0.492187,-0.03711 0.309413,-0.08579 0.597726,-0.254287 0.867188,-0.4375 0.446468,-0.303563 0.701048,-0.556978 0.820312,-0.669922 0.267593,0.160743 0.535173,0.338977 0.851563,0.34375 a 0.37068706,0.37068706 0 0 0 0.04297,-0.002 c 0.426057,-0.04423 0.754837,-0.295578 1.068359,-0.548828 -0.509332,0.585791 -1.388042,1.311817 -3.123047,2.146484 -2.544189,1.223906 -3.794196,3.100705 -4.33789,4.886719 -0.543695,1.786014 -0.405128,3.476348 -0.251954,4.421875 0.07841,0.486731 0.238645,0.955804 0.47461,1.388672 a 0.37068706,0.37068706 0 0 0 0,0.002 c 0.139495,0.255261 0.281885,0.502282 0.425781,0.738281 0,0 0.0015,0.0011 0.002,0.002 1.067386,1.99996 3.175239,3.226796 5.441406,3.169922 2.438106,-0.0041 4.347778,-2.368516 4.396485,-5.216797 0.0014,-0.09325 -0.0067,-0.165399 -0.0098,-0.21875 a 0.37068706,0.37068706 0 0 0 -0.740234,0.0039 c -0.09689,2.102504 -1.490184,3.699219 -3.115235,3.699218 -0.03265,0 -0.0854,-0.0068 -0.162109,-0.01172 a 0.37068706,0.37068706 0 0 0 -0.0078,0 c -0.05637,-0.0024 -0.09889,-0.0043 -0.128907,-0.0078 -1.539678,-0.184065 -2.82053,-1.826625 -2.824218,-3.902344 0.07784,-1.98024 1.337975,-3.717165 3.197265,-4.404296 l -0.0098,-0.01172 a 0.37068706,0.37068706 0 0 0 0.02734,0.0059 c 0.817771,-0.354665 1.51621,-1.007902 2.064453,-1.615234 0.548244,-0.607333 0.961632,-1.198008 1.089844,-1.355469 0.50699,-0.623612 0.874458,-1.852623 0.841797,-3.316406 -0.03266,-1.463783 -0.520853,-3.148532 -1.912109,-4.470703 a 0.37068706,0.37068706 0 0 0 -0.0039,-0.0039 c -0.396822,-0.3669 -0.842728,-0.676452 -1.324218,-0.921875 -1.308602,-0.689357 -1.988965,-0.85151 -2.47461,-0.765625 z m 1.03125,1.041016 c 0.327415,0.08565 0.41261,0.01803 1.097657,0.378906 a 0.37068706,0.37068706 0 0 0 0.0059,0.0039 c 0.42252,0.214871 0.81211,0.486791 1.160156,0.808593 1.22343,1.165175 1.648455,2.634991 1.677735,3.947266 0.02931,1.313814 -0.392872,2.484045 -0.675782,2.832031 -0.191787,0.235539 -0.552197,0.758706 -1.064453,1.326172 -0.512256,0.567467 -1.160366,1.150506 -1.808594,1.431641 l 0.002,0.0039 c -2.128797,0.796666 -3.577689,2.791611 -3.664063,5.064453 a 0.37068706,0.37068706 0 0 0 0,0.01367 c 0,2.386038 1.480416,4.407616 3.478516,4.646484 a 0.37068706,0.37068706 0 0 0 0.002,0 c 0.06987,0.0081 0.127037,0.0099 0.173828,0.01172 0.04709,0.003 0.117788,0.01172 0.210937,0.01172 0.36984,0 0.70151,-0.129286 1.03711,-0.244141 -0.485032,0.295037 -1.00798,0.496094 -1.574219,0.496094 a 0.37068706,0.37068706 0 0 0 -0.0098,0 c -1.989761,0.0514 -3.837097,-1.024816 -4.773437,-2.78125 a 0.37068706,0.37068706 0 0 0 -0.0098,-0.01758 C 45.364924,47.454988 45.223781,47.211087 45.086003,46.958969 44.89027,46.599904 44.75651,46.21037 44.691472,45.806626 a 0.37068706,0.37068706 0 0 0 0,-0.002 c -0.141825,-0.87547 -0.264585,-2.461657 0.230469,-4.08789 0.495054,-1.626233 1.583413,-3.295502 3.949219,-4.433594 1.925292,-0.926209 3.037758,-1.766583 3.625,-2.521484 0.293621,-0.377451 0.457088,-0.738221 0.496093,-1.085938 0.03901,-0.347717 -0.06204,-0.677616 -0.255859,-0.916015 a 0.37068706,0.37068706 0 0 0 -0.0059,-0.0078 c -0.139936,-0.16268 -0.34407,-0.258705 -0.558619,-0.263624 a 0.37068706,0.37068706 0 0 0 -0.378906,0.375 c 0.0071,0.722281 -0.528114,1.31709 -1.242188,1.404297 -0.24934,-0.0096 -0.488947,-0.09901 -0.671875,-0.269531 a 0.37068706,0.37068706 0 0 0 -0.488281,-0.01563 l -0.0039,0.0039 a 0.37068706,0.37068706 0 0 0 -0.02344,0.01953 c 0,0 -0.421048,0.408615 -0.888672,0.726563 -0.233812,0.158974 -0.481509,0.291067 -0.65039,0.33789 -0.08444,0.02341 -0.145219,0.02373 -0.169922,0.01953 -0.0247,-0.0042 -0.01555,0 -0.02734,-0.01367 C 47.520871,34.945811 47.503632,34.883317 47.5,34.875 c 0.06314,-0.07388 0.362407,-0.281063 0.666016,-0.654297 0.383771,-0.471335 0.353203,-1.042245 0.416015,-1.505859 0.06281,-0.463615 0.145846,-0.800043 0.566406,-1.058594 0.514534,-0.316323 0.888192,-0.447266 1.183594,-0.689453 0.147701,-0.121094 0.296719,-0.34731 0.277344,-0.585938 -0.01869,-0.230136 -0.135664,-0.393346 -0.28125,-0.574218 -0.0204,-0.02975 -0.06596,-0.0263 -0.08789,-0.05469 z m -0.380859,4.802734 h 0.002 l -0.0039,0.0039 z"
     id="path6377" />
  <path
     style="color:#000000;fill:#9b9b9a;stroke-width:0.7413;stroke-linecap:round;stroke-linejoin:round;-inkscape-stroke:none"
     d="m 21.28,40.82 c -1.466,-0.6358 -2.694,-2.471 -3.014,-2.864 -0.7899,-0.9716 -1.58,-4.797 1.038,-7.285 a 5.521,5.521 0 0 1 1.245,-0.8671 c 2.557,-1.347 2.557,-0.4474 2.557,-0.4474 A 1.538,1.538 0 0 0 22.03,30.018 c -0.5377,0.6615 0,0.6615 1.076,1.323 1.076,0.6615 0.5378,1.985 1.076,2.646 0.5377,0.6615 1.076,0.6615 0.5378,1.323 -0.5377,0.6615 -2.282,-1.038 -2.282,-1.038 l -0.0034,-0.0028 a 1.412,1.412 0 0 1 -0.9415,0.379 1.781,1.781 0 0 1 -1.597,-1.789 0.3875,0.3875 0 0 0 -0.2848,0.1347 c -0.5365,0.6599 -0.05343,2.131 3.738,3.955 4.91,2.362 4.68,7.095 4.385,8.916 a 3.977,3.977 0 0 1 -0.4345,1.271 c -0.1405,0.2571 -0.2843,0.5062 -0.4287,0.7423 a 5.625,5.625 0 0 1 -5.109,2.977 c -2.198,0 -3.986,-2.163 -4.032,-4.853 -0.0011,-0.06467 0.0055,-0.1283 0.0092,-0.1925 0.1045,2.259 1.623,4.053 3.485,4.053 0.06282,0 0.1242,-0.0077 0.1862,-0.0117 0.0522,-0.0022 0.104,-0.0035 0.1558,-0.0095 1.77,-0.2116 3.154,-2.046 3.154,-4.279 a 5.271,5.271 0 0 0 -3.44,-4.744 z"
     id="path6386" />
  <path
     style="color:#000000;fill:#9b9b9a;stroke-linecap:round;stroke-linejoin:round;-inkscape-stroke:none"
     d="m 22.851562,28.710937 c -0.485644,-0.08589 -1.166007,0.07627 -2.474609,0.765625 -0.481465,0.245441 -0.927388,0.555005 -1.324219,0.921875 a 0.37068706,0.37068706 0 0 0 -0.0039,0.0039 c -1.391256,1.322171 -1.879449,3.00692 -1.912109,4.470703 -0.03266,1.463783 0.334807,2.692794 0.841797,3.316406 0.128212,0.157461 0.5416,0.748136 1.089843,1.355469 0.548244,0.607332 1.246683,1.260569 2.064453,1.615234 a 0.37068706,0.37068706 0 0 0 0.03125,-0.002 l -0.01172,0.0078 c 1.85929,0.687131 3.117469,2.424056 3.195312,4.404296 -0.0037,2.075609 -1.286477,3.718277 -2.826172,3.902344 -0.02975,0.0033 -0.07143,0.0055 -0.126953,0.0078 a 0.37068706,0.37068706 0 0 0 -0.0078,0 c -0.07681,0.005 -0.129577,0.01172 -0.16211,0.01172 -1.623922,0 -3.017975,-1.596741 -3.115234,-3.699218 a 0.37068706,0.37068706 0 0 0 -0.740234,-0.0039 c -0.0031,0.05297 -0.01136,0.12474 -0.0098,0.21875 0.04871,2.848281 1.958379,5.212666 4.396484,5.216797 2.267124,0.0569 4.374448,-1.170419 5.441407,-3.171875 0.144063,-0.236243 0.288079,-0.482727 0.427734,-0.738281 a 0.37068706,0.37068706 0 0 0 0,-0.002 c 0.235965,-0.432868 0.396203,-0.901941 0.474609,-1.388672 0.153175,-0.945527 0.291742,-2.635861 -0.251953,-4.421875 -0.543694,-1.786014 -1.793701,-3.662813 -4.33789,-4.886719 -1.732482,-0.833471 -2.609099,-1.557133 -3.119141,-2.142578 0.3126,0.250925 0.640736,0.500932 1.064453,0.544922 a 0.37068706,0.37068706 0 0 0 0.04297,0.002 c 0.31639,-0.0048 0.58397,-0.183007 0.851562,-0.34375 0.119372,0.113034 0.371993,0.366435 0.81836,0.669922 0.269467,0.183212 0.559734,0.351714 0.86914,0.4375 0.154704,0.04289 0.318568,0.06659 0.492188,0.03711 0.17362,-0.02948 0.35587,-0.12646 0.478515,-0.277343 0.15364,-0.188838 0.262446,-0.354801 0.296875,-0.566407 0.03443,-0.211605 -0.0567,-0.432902 -0.162109,-0.5625 -0.210824,-0.259195 -0.443164,-0.376384 -0.673828,-0.660156 -0.154428,-0.189664 -0.184221,-0.609912 -0.255859,-1.138672 -0.07164,-0.528759 -0.256671,-1.186895 -0.91211,-1.589843 -0.55259,-0.33972 -0.969567,-0.53245 -1.085937,-0.623047 0.0065,-0.0089 0.01161,-0.03732 0.103515,-0.150391 a 0.37068706,0.37068706 0 0 0 0.01758,-0.02539 c 0.187895,-0.276751 0.486592,-0.459227 0.81836,-0.501953 a 0.37068706,0.37068706 0 0 0 0.322265,-0.367187 c 0,0 -0.0048,-0.171281 -0.09766,-0.31836 -0.09285,-0.147078 -0.284521,-0.285182 -0.527344,-0.328125 z m -1.035156,1.041016 c -0.02096,0.02719 -0.06442,0.0243 -0.08398,0.05273 -0.146174,0.181454 -0.262513,0.345404 -0.28125,0.576172 -0.01938,0.238628 0.129643,0.464844 0.277344,0.585938 0.295402,0.242187 0.66906,0.37313 1.183593,0.689453 0.420561,0.258551 0.503595,0.594979 0.566407,1.058594 0.06281,0.463614 0.03224,1.034524 0.416015,1.505859 0.304339,0.374409 0.60401,0.582872 0.666016,0.65625 -0.0039,0.0091 -0.02355,0.06973 -0.128906,0.199219 -0.01178,0.01449 0,0.0095 -0.02539,0.01367 -0.02469,0.0042 -0.08548,0.0039 -0.169922,-0.01953 -0.168877,-0.04682 -0.416571,-0.178915 -0.650391,-0.33789 -0.467639,-0.31795 -0.888671,-0.726563 -0.888671,-0.726563 a 0.37068706,0.37068706 0 0 0 -0.02344,-0.01953 l -0.0039,-0.0039 a 0.37068706,0.37068706 0 0 0 -0.488281,0.01563 c -0.182928,0.170523 -0.422535,0.259934 -0.671875,0.269531 -0.714075,-0.08721 -1.251247,-0.682016 -1.244141,-1.404297 a 0.37068706,0.37068706 0 0 0 -0.378906,-0.375 c -0.214484,0.005 -0.416734,0.101025 -0.556641,0.263672 a 0.37068706,0.37068706 0 0 0 -0.0059,0.0078 c -0.193822,0.238402 -0.296826,0.568299 -0.257813,0.916015 0.03901,0.347717 0.204422,0.708489 0.498047,1.085938 0.58725,0.754897 1.697796,1.595275 3.623047,2.521484 2.365806,1.138092 3.456117,2.807361 3.951172,4.433594 0.495054,1.626233 0.372294,3.21242 0.230469,4.08789 a 0.37068706,0.37068706 0 0 0 0,0.002 c -0.06504,0.403744 -0.198798,0.793278 -0.394532,1.152343 -0.137777,0.252118 -0.27892,0.496019 -0.419922,0.726563 a 0.37068706,0.37068706 0 0 0 -0.01172,0.01758 c -0.93634,1.756434 -2.781723,2.832653 -4.771485,2.78125 a 0.37068706,0.37068706 0 0 0 -0.0098,0 c -0.566239,0 -1.089187,-0.201057 -1.574219,-0.496094 0.335521,0.11485 0.667424,0.244141 1.037109,0.244141 0.08964,0 0.154123,-0.0084 0.201172,-0.01172 0.04803,-0.002 0.109818,-0.0032 0.183594,-0.01172 1.998083,-0.238867 3.480469,-2.260335 3.480469,-4.646484 a 0.37068706,0.37068706 0 0 0 0,-0.01367 c -0.08641,-2.273794 -1.535754,-4.270415 -3.666016,-5.066406 l 0.0039,-0.002 C 20.779432,40.19933 20.131321,39.616291 19.619066,39.048824 19.10681,38.481358 18.744447,37.958191 18.552659,37.722652 18.26975,37.374666 17.847564,36.204435 17.876878,34.890621 c 0.02928,-1.312274 0.454306,-2.782092 1.677734,-3.947266 l 0.002,-0.002 c 0,0 0.0012,-0.0013 0.002,-0.002 0.34706,-0.320176 0.737307,-0.590615 1.158203,-0.804687 a 0.37068706,0.37068706 0 0 0 0.0059,-0.0039 c 0.682869,-0.359728 0.76635,-0.292916 1.09375,-0.378906 z m 0.382813,4.802734 c 0,0 0.0019,0 0.002,0 l 0.002,0.0039 z"
     id="path6383" />
  <path
     fill="#3f3f3f"
     stroke-width="0.7699"
     d="m 18.25,39.7 c -0.4458,-0.6433 -1.984,-2.941 -2.03,-4.092 a 0.2377,0.2377 0 0 0 -0.2027,-0.2497 1.778,1.778 0 0 1 -1.321,-0.5939 c -0.1262,-0.1644 -0.3502,-0.07698 -0.3695,0.1477 -0.1296,1.516 -0.01879,4.816 3.168,5.944 a 0.1987,0.1987 0 0 0 0.2269,-0.08114 l 0.5239,-0.7314 a 0.3079,0.3079 0 0 0 0.0042,-0.344 z"
     id="path6419" />
  <path
     fill="#3f3f3f"
     stroke-width="0.7699"
     d="m 53.75,39.7 c 0.4458,-0.6433 1.984,-2.941 2.03,-4.092 a 0.2377,0.2377 0 0 1 0.2027,-0.2497 1.778,1.778 0 0 0 1.321,-0.5939 c 0.1262,-0.1644 0.3502,-0.07698 0.3695,0.1477 0.1296,1.516 0.01879,4.816 -3.168,5.944 a 0.1986,0.1986 0 0 1 -0.2268,-0.08114 l -0.5235,-0.7314 a 0.3079,0.3079 0 0 1 -0.0047,-0.344 z"
     id="path6422" />
  <path
     style="color:#000000;fill:#d22f27;stroke-linecap:round;stroke-linejoin:round;-inkscape-stroke:none"
     d="m 20.675781,21.841797 a 1.4985,1.4985 0 0 0 -1.503906,1.492187 1.4985,1.4985 0 0 0 1.492187,1.503907 l 30.660157,0.115234 a 1.4985,1.4985 0 0 0 1.503906,-1.492188 1.4985,1.4985 0 0 0 -1.492188,-1.503906 z"
     id="path6389" />
  <path
     style="color:#000000;fill:#000000;stroke-linecap:round;stroke-linejoin:round;-inkscape-stroke:none"
     d="m 5,16 a 1.0001,1.0001 0 0 0 -1,1 v 38 a 1.0001,1.0001 0 0 0 1,1 h 62 a 1.0001,1.0001 0 0 0 1,-1 V 17 a 1.0001,1.0001 0 0 0 -1,-1 z m 1,2 H 66 V 54 H 6 Z"
     id="path6392" />
</svg>
