<?xml version="1.0" encoding="UTF-8" standalone="no"?>
<svg
   id="emoji"
   viewBox="0 0 72 72"
   version="1.1"
   sodipodi:docname="Mexico.svg"
   inkscape:version="1.2 (dc2aeda, 2022-05-15)"
   xmlns:inkscape="http://www.inkscape.org/namespaces/inkscape"
   xmlns:sodipodi="http://sodipodi.sourceforge.net/DTD/sodipodi-0.dtd"
   xmlns="http://www.w3.org/2000/svg"
   xmlns:svg="http://www.w3.org/2000/svg">
  <defs
     id="defs6472" />
  <sodipodi:namedview
     id="namedview6470"
     pagecolor="#ffffff"
     bordercolor="#000000"
     borderopacity="0.25"
     inkscape:showpageshadow="2"
     inkscape:pageopacity="0.0"
     inkscape:pagecheckerboard="0"
     inkscape:deskcolor="#d1d1d1"
     showgrid="false"
     inkscape:zoom="3.2777778"
     inkscape:cx="-13.271186"
     inkscape:cy="36"
     inkscape:window-width="1309"
     inkscape:window-height="456"
     inkscape:window-x="0"
     inkscape:window-y="25"
     inkscape:window-maximized="0"
     inkscape:current-layer="emoji" />
  <path
     id="path6649"
     style="fill:#ffffff"
     d="M 5,17 H 67 V 55 H 5 Z" />
  <path
     id="path6652"
     style="fill:#5c9e31"
     d="M 5,17 H 26 V 55 H 5 Z" />
  <path
     id="path6655"
     style="fill:#d22f27"
     d="M 46,17 H 67 V 55 H 46 Z" />
  <path
     style="color:#000000;fill:#a57939;stroke-width:2;stroke-miterlimit:10"
     d="M 39.5,35 A 3.5,3.5 0 0 1 36,38.5 3.5,3.5 0 0 1 32.5,35 3.5,3.5 0 0 1 36,31.5 3.5,3.5 0 0 1 39.5,35 Z"
     id="path6643" />
  <path
     style="color:#000000;fill:#a57939;stroke-miterlimit:10"
     d="m 36,30.5 c -2.473434,0 -4.5,2.026566 -4.5,4.5 0,2.473434 2.026566,4.5 4.5,4.5 2.473434,0 4.5,-2.026566 4.5,-4.5 0,-2.473434 -2.026566,-4.5 -4.5,-4.5 z m 0,2 c 1.392555,0 2.5,1.107445 2.5,2.5 0,1.392555 -1.107445,2.5 -2.5,2.5 -1.392555,0 -2.5,-1.107445 -2.5,-2.5 0,-1.392555 1.107445,-2.5 2.5,-2.5 z"
     id="path6640" />
  <path
     style="color:#000000;fill:#5c9e31;stroke-linecap:round;stroke-linejoin:round;-inkscape-stroke:none"
     d="m 41.855469,38.496094 a 1,1 0 0 0 -0.658203,0.392578 c -2.607389,3.502525 -7.787143,3.502525 -10.394532,0 a 1,1 0 0 0 -1.40039,-0.205078 1,1 0 0 0 -0.205078,1.40039 c 3.374681,4.533235 10.230787,4.533235 13.605468,0 a 1,1 0 0 0 -0.205078,-1.40039 1,1 0 0 0 -0.742187,-0.1875 z"
     id="path6637" />
  <path
     style="color:#000000;fill:#000000;stroke-linecap:round;stroke-linejoin:round"
     d="m 5,16 a 1.0001,1.0001 0 0 0 -1,1 v 38 a 1.0001,1.0001 0 0 0 1,1 h 62 a 1.0001,1.0001 0 0 0 1,-1 V 17 a 1.0001,1.0001 0 0 0 -1,-1 z m 1,2 H 66 V 54 H 6 Z"
     id="path6646" />
</svg>
