<?xml version="1.0" encoding="UTF-8" standalone="no"?>
<svg
   id="emoji"
   viewBox="0 0 72 72"
   version="1.1"
   sodipodi:docname="Moldova.svg"
   inkscape:version="1.2 (dc2aeda, 2022-05-15)"
   xmlns:inkscape="http://www.inkscape.org/namespaces/inkscape"
   xmlns:sodipodi="http://sodipodi.sourceforge.net/DTD/sodipodi-0.dtd"
   xmlns="http://www.w3.org/2000/svg"
   xmlns:svg="http://www.w3.org/2000/svg">
  <defs
     id="defs6953" />
  <sodipodi:namedview
     id="namedview6951"
     pagecolor="#ffffff"
     bordercolor="#000000"
     borderopacity="0.25"
     inkscape:showpageshadow="2"
     inkscape:pageopacity="0.0"
     inkscape:pagecheckerboard="0"
     inkscape:deskcolor="#d1d1d1"
     showgrid="false"
     inkscape:zoom="3.2777778"
     inkscape:cx="-13.271186"
     inkscape:cy="36"
     inkscape:window-width="1309"
     inkscape:window-height="456"
     inkscape:window-x="0"
     inkscape:window-y="25"
     inkscape:window-maximized="0"
     inkscape:current-layer="emoji" />
  <path
     id="path7169"
     style="fill:#fcea2b"
     d="M 5,17 H 67 V 55 H 5 Z" />
  <path
     id="path7172"
     style="fill:#1e50a0"
     d="M 5,17 H 26 V 55 H 5 Z" />
  <path
     id="path7175"
     style="fill:#d22f27"
     d="M 46,17 H 67 V 55 H 46 Z" />
  <path
     style="color:#000000;fill:#a57939;stroke-width:2;stroke-linecap:round;stroke-linejoin:round;-inkscape-stroke:none"
     d="M 34.6566,30.5657 34.1579,32.27 h -2.21 A 2.0412,2.0412 0 0 0 29,32.27 v 8.1052 l 2.9474,-2.9473 h 2.21 L 31.8283,44 h 8.4848 l -2.471,-6.572 H 40.79 L 43,40.3753 V 32.27 a 2.0412,2.0412 0 0 0 -2.9474,0 h -2.21 l -0.3573,-1.7044 v -1.4141 a 2.5259,2.5259 0 0 0 -1.8481,-2.6862 1.8866,1.8866 0 0 0 -1.5806,0.2582 l -1.5207,1.0139 2.1212,1.4141 z"
     id="path7151" />
  <path
     style="color:#000000;fill:#a57939;stroke-linecap:round;stroke-linejoin:round;-inkscape-stroke:none"
     d="m 34.65625,25.431641 c -0.413215,0.0675 -0.810604,0.224835 -1.164063,0.466796 l -1.511718,1.007813 a 1.0001,1.0001 0 0 0 0,1.664062 L 33.65625,29.6875 v 0.738281 l -0.248047,0.84375 H 32.21875 c -1.201484,-0.8588 -2.884874,-0.79423 -3.941406,0.308594 A 1.0001,1.0001 0 0 0 28,32.269531 V 40.375 a 1.0001,1.0001 0 0 0 1.707031,0.707031 l 2.654297,-2.654297 h 0.380859 l -1.857421,5.238282 A 1.0001,1.0001 0 0 0 31.828125,45 H 40.3125 A 1.0001,1.0001 0 0 0 41.25,43.648437 l -1.964844,-5.220703 h 1.003906 l 1.910157,2.546875 A 1.0001,1.0001 0 0 0 44,40.375 V 32.269531 A 1.0001,1.0001 0 0 0 43.722656,31.578125 C 42.66601,30.475572 40.982609,30.410624 39.78125,31.269531 h -1.126953 l -0.169922,-0.808594 v -1.308593 l -0.0039,0.09766 c 0.169025,-1.702607 -0.925302,-3.292029 -2.574219,-3.746094 -0.410899,-0.115957 -0.838068,-0.139557 -1.25,-0.07227 z m 0.708984,1.996093 a 1.0001,1.0001 0 0 0 0.0078,0.002 c 0.724742,0.197925 1.191406,0.87544 1.117187,1.623047 a 1.0001,1.0001 0 0 0 -0.0059,0.09961 v 1.414062 a 1.0001,1.0001 0 0 0 0.02148,0.205078 l 0.357422,1.703125 a 1.0001,1.0001 0 0 0 0.978516,0.794922 h 2.210937 a 1.0001,1.0001 0 0 0 0.722657,-0.30664 C 41.117305,32.606122 41.597793,32.616628 42,32.841797 V 37.375 L 41.589844,36.828125 A 1.0001,1.0001 0 0 0 40.789062,36.427734 H 37.841797 A 1.0001,1.0001 0 0 0 36.90625,37.779297 L 38.869141,43 h -5.625 l 1.855468,-5.238281 a 1.0001,1.0001 0 0 0 -0.941406,-1.333985 h -2.210937 a 1.0001,1.0001 0 0 0 -0.707032,0.292969 L 30,37.960937 v -5.121093 c 0.402272,-0.225267 0.884621,-0.23583 1.226562,0.121093 a 1.0001,1.0001 0 0 0 0.720704,0.308594 h 2.210937 a 1.0001,1.0001 0 0 0 0.958984,-0.71875 l 0.5,-1.705078 a 1.0001,1.0001 0 0 0 0.03906,-0.279297 v -1.414062 a 1.0001,1.0001 0 0 0 -0.445313,-0.832032 l -0.873046,-0.582031 0.273437,-0.183594 a 1.0001,1.0001 0 0 0 0.0098,-0.0059 c 0.21784,-0.149124 0.49017,-0.193144 0.74414,-0.121094 z"
     id="path7148" />
  <path
     id="path7166"
     style="fill:#d22f27"
     d="m 32.219398,31.5 h 7.764101 v 4.529 h -7.764101 z" />
  <path
     fill="#1e50a0"
     d="m 32.2194,35.382 h 7.7641 c 0.3235,4.5291 -4.2056,6.47 -4.2056,6.47 0,0 -4.8525,-3.2349 -3.5585,-6.47 z"
     id="path7163" />
  <path
     style="color:#000000;fill:#fcea2b;stroke-width:2;stroke-linecap:round;stroke-linejoin:round"
     d="M 36.748,35.25 36.101,37.2 35.454,35.25 Z"
     id="path7157" />
  <path
     style="color:#000000;fill:#fcea2b;stroke-linecap:round;stroke-linejoin:round"
     d="m 35.453125,34.25 a 1.0001,1.0001 0 0 0 -0.949219,1.314453 l 0.648438,1.951172 a 1.0001,1.0001 0 0 0 1.898437,0 l 0.646485,-1.951172 A 1.0001,1.0001 0 0 0 36.748047,34.25 Z"
     id="path7154" />
  <path
     style="color:#000000;fill:#000000;stroke-linecap:round;stroke-linejoin:round;-inkscape-stroke:none"
     d="m 32.111328,31 a 0.50005,0.50005 0 0 0 -0.5,0.5 v 5.175781 c 0,4.215421 4.224609,5.650391 4.224609,5.650391 a 0.50005,0.50005 0 0 0 0.316407,0 c 0,0 4.222656,-1.43497 4.222656,-5.650391 V 31.5 a 0.50005,0.50005 0 0 0 -0.5,-0.5 z m 0.5,1 H 39.375 v 4.675781 c 0,3.389854 -3.09156,4.508355 -3.380859,4.609375 -0.289082,-0.100938 -3.382813,-1.219389 -3.382813,-4.609375 z"
     id="path7145" />
  <path
     style="color:#000000;fill:#000000;stroke-linecap:round;stroke-linejoin:round"
     d="m 5,16 a 1.0001,1.0001 0 0 0 -1,1 v 38 a 1.0001,1.0001 0 0 0 1,1 h 62 a 1.0001,1.0001 0 0 0 1,-1 V 17 a 1.0001,1.0001 0 0 0 -1,-1 z m 1,2 H 66 V 54 H 6 Z"
     id="path7160" />
</svg>
