<?xml version="1.0" encoding="UTF-8" standalone="no"?>
<svg
   id="emoji"
   viewBox="0 0 72 72"
   version="1.1"
   sodipodi:docname="Montserrat.svg"
   inkscape:version="1.2 (dc2aeda, 2022-05-15)"
   xmlns:inkscape="http://www.inkscape.org/namespaces/inkscape"
   xmlns:sodipodi="http://sodipodi.sourceforge.net/DTD/sodipodi-0.dtd"
   xmlns="http://www.w3.org/2000/svg"
   xmlns:svg="http://www.w3.org/2000/svg">
  <defs
     id="defs8047" />
  <sodipodi:namedview
     id="namedview8045"
     pagecolor="#ffffff"
     bordercolor="#000000"
     borderopacity="0.25"
     inkscape:showpageshadow="2"
     inkscape:pageopacity="0.0"
     inkscape:pagecheckerboard="0"
     inkscape:deskcolor="#d1d1d1"
     showgrid="false"
     inkscape:zoom="3.2777778"
     inkscape:cx="-13.271186"
     inkscape:cy="36"
     inkscape:window-width="1309"
     inkscape:window-height="456"
     inkscape:window-x="0"
     inkscape:window-y="25"
     inkscape:window-maximized="0"
     inkscape:current-layer="emoji" />
  <path
     id="path8341"
     style="fill:#1e50a0"
     d="M 5,17 H 67 V 55 H 5 Z" />
  <path
     style="color:#000000;fill:#92d3f5;stroke-linecap:round;stroke-linejoin:round;-inkscape-stroke:none"
     d="m 52.679,47 c 0,0 6.75,-2.25 6.75,-9 v -9 h -13.5 v 9 c 0,6.75 6.75,9 6.75,9 z"
     id="path8293" />
  <path
     style="color:#000000;fill:#92d3f5;stroke-linecap:round;stroke-linejoin:round;-inkscape-stroke:none"
     d="m 45.929687,28.5 a 0.50005,0.50005 0 0 0 -0.5,0.5 v 9 c 0,7.083326 7.091797,9.474609 7.091797,9.474609 a 0.50005,0.50005 0 0 0 0.316407,0 c 0,0 7.091797,-2.391283 7.091796,-9.474609 v -9 a 0.50005,0.50005 0 0 0 -0.5,-0.5 z m 0.5,1 h 12.5 V 38 c 0,6.162654 -5.782036,8.293362 -6.25,8.457031 C 52.212432,46.293626 46.429688,44.163073 46.429687,38 Z"
     id="path8290" />
  <path
     style="color:#000000;fill:#d22f27;stroke-linecap:round;stroke-linejoin:round;-inkscape-stroke:none"
     d="m 46.2767,40.5 c 1.3694,4.8127 6.4023,6.5 6.4023,6.5 0,0 5.033,-1.6873 6.4024,-6.5 z"
     id="path8299" />
  <path
     style="color:#000000;fill:#d22f27;stroke-linecap:round;stroke-linejoin:round;-inkscape-stroke:none"
     d="m 46.277344,40 a 0.50005,0.50005 0 0 0 -0.482422,0.636719 c 1.449234,5.093272 6.724609,6.83789 6.724609,6.83789 a 0.50005,0.50005 0 0 0 0.31836,0 c 0,0 5.275374,-1.744612 6.724609,-6.83789 A 0.50005,0.50005 0 0 0 59.082031,40 Z m 0.810547,1 h 11.18164 c -1.508618,3.849821 -5.323535,5.345153 -5.589844,5.439453 C 52.415748,46.346026 48.596989,44.851072 47.087891,41 Z"
     id="path8296" />
  <path
     style="color:#000000;fill:#000000;stroke-linecap:round;stroke-linejoin:round;-inkscape-stroke:none"
     d="m 52.458984,31.0625 a 1,1 0 0 0 -1,1 v 10.625 a 1,1 0 0 0 1,1 1,1 0 0 0 1,-1 v -10.625 a 1,1 0 0 0 -1,-1 z"
     id="path8302" />
  <path
     style="color:#000000;fill:#000000;stroke-linecap:round;stroke-linejoin:round"
     d="m 49.271484,34.25 a 1,1 0 0 0 -1,1 1,1 0 0 0 1,1 h 6.375 a 1,1 0 0 0 1,-1 1,1 0 0 0 -1,-1 z"
     id="path8305" />
  <path
     id="path8311"
     style="fill:#ffffff"
     d="M 36,36 V 33.668 L 9.887,18 H 6 v 2.332 L 32.113,36 Z" />
  <path
     id="path8314"
     style="fill:#ffffff"
     d="M 6,36 H 9.887 L 36,20.332 V 18 H 32.113 L 6,33.668 Z" />
  <path
     id="path8317"
     style="fill:#ffffff"
     d="m 6,24 h 30 v 6 H 6 Z" />
  <path
     id="path8320"
     style="fill:#ffffff"
     d="m 18,18 h 6 v 18 h -6 z" />
  <path
     id="path8323"
     style="fill:#d22f27"
     d="m 20,18 h 2 v 18 h -2 z" />
  <path
     id="path8326"
     style="fill:#d22f27"
     d="m 6,26 h 30 v 2 H 6 Z" />
  <path
     id="path8329"
     style="fill:#d22f27"
     d="M 36,35.999 V 33.668 L 29.887,30 H 26 l 10,6 z" />
  <path
     id="path8332"
     style="fill:#d22f27"
     d="M 26.001,24 36,18.001 V 18 H 32.113 L 24,22.868 V 24 Z" />
  <path
     id="path8335"
     style="fill:#d22f27"
     d="m 6,18.001 v 2.331 L 12.113,24 h 3.888 l -10,-6 z" />
  <path
     id="path8338"
     style="fill:#d22f27"
     d="M 16,30 6,35.999 V 36 H 9.887 L 18,31.132 V 30 Z" />
  <path
     style="color:#000000;fill:#000000;stroke-linecap:round;stroke-linejoin:round"
     d="m 5,16 a 1.0001,1.0001 0 0 0 -1,1 v 38 a 1.0001,1.0001 0 0 0 1,1 h 62 a 1.0001,1.0001 0 0 0 1,-1 V 17 a 1.0001,1.0001 0 0 0 -1,-1 z m 1,2 H 66 V 54 H 6 Z"
     id="path8308" />
</svg>
