<?xml version="1.0" encoding="UTF-8" standalone="no"?>
<svg
   id="emoji"
   viewBox="0 0 72 72"
   version="1.1"
   sodipodi:docname="Morocco.svg"
   inkscape:version="1.2 (dc2aeda, 2022-05-15)"
   xmlns:inkscape="http://www.inkscape.org/namespaces/inkscape"
   xmlns:sodipodi="http://sodipodi.sourceforge.net/DTD/sodipodi-0.dtd"
   xmlns="http://www.w3.org/2000/svg"
   xmlns:svg="http://www.w3.org/2000/svg">
  <defs
     id="defs8379" />
  <sodipodi:namedview
     id="namedview8377"
     pagecolor="#ffffff"
     bordercolor="#000000"
     borderopacity="0.25"
     inkscape:showpageshadow="2"
     inkscape:pageopacity="0.0"
     inkscape:pagecheckerboard="0"
     inkscape:deskcolor="#d1d1d1"
     showgrid="false"
     inkscape:zoom="3.2777778"
     inkscape:cx="-13.271186"
     inkscape:cy="36"
     inkscape:window-width="1309"
     inkscape:window-height="456"
     inkscape:window-x="0"
     inkscape:window-y="25"
     inkscape:window-maximized="0"
     inkscape:current-layer="emoji" />
  <path
     id="path8527"
     style="fill:#d22f27"
     d="M 5,17 H 67 V 55 H 5 Z" />
  <path
     style="color:#000000;fill:#5c9e31;stroke-linecap:round;stroke-linejoin:round"
     d="m 36,24.289062 a 0.750075,0.750075 0 0 0 -0.712891,0.517579 l -2.427734,7.472656 H 25 a 0.750075,0.750075 0 0 0 -0.441406,1.357422 l 6.357422,4.61914 -2.427735,7.47461 a 0.750075,0.750075 0 0 0 1.154297,0.83789 L 36,41.949219 l 6.357422,4.61914 a 0.750075,0.750075 0 0 0 1.154297,-0.83789 l -2.427735,-7.47461 6.357422,-4.61914 A 0.750075,0.750075 0 0 0 47,32.279297 H 39.140625 L 36.712891,24.806641 A 0.750075,0.750075 0 0 0 36,24.289062 Z m 0,3.175782 1.564453,4.814453 h -3.128906 z m -8.693359,6.314453 h 5.064453 l -0.966797,2.976562 z m 6.642578,0 h 4.101562 L 39.320312,37.683594 36,40.095703 32.679687,37.683594 Z m 5.679687,0 h 5.064453 l -4.097656,2.976562 z m -7.435547,5.404297 2.53125,1.839843 -4.095703,2.97461 z m 7.613282,0 1.564453,4.814453 -4.095703,-2.97461 z"
     id="path8524" />
  <path
     style="color:#000000;fill:#000000;stroke-linecap:round;stroke-linejoin:round;-inkscape-stroke:none"
     d="m 5,16 a 1.0001,1.0001 0 0 0 -1,1 v 38 a 1.0001,1.0001 0 0 0 1,1 h 62 a 1.0001,1.0001 0 0 0 1,-1 V 17 a 1.0001,1.0001 0 0 0 -1,-1 z m 1,2 H 66 V 54 H 6 Z"
     id="path8521" />
</svg>
