<?xml version="1.0" encoding="UTF-8" standalone="no"?>
<svg
   id="emoji"
   viewBox="0 0 72 72"
   version="1.1"
   sodipodi:docname="Mozambique.svg"
   inkscape:version="1.2 (dc2aeda, 2022-05-15)"
   xmlns:inkscape="http://www.inkscape.org/namespaces/inkscape"
   xmlns:sodipodi="http://sodipodi.sourceforge.net/DTD/sodipodi-0.dtd"
   xmlns="http://www.w3.org/2000/svg"
   xmlns:svg="http://www.w3.org/2000/svg">
  <defs
     id="defs8558" />
  <sodipodi:namedview
     id="namedview8556"
     pagecolor="#ffffff"
     bordercolor="#000000"
     borderopacity="0.25"
     inkscape:showpageshadow="2"
     inkscape:pageopacity="0.0"
     inkscape:pagecheckerboard="0"
     inkscape:deskcolor="#d1d1d1"
     showgrid="false"
     inkscape:zoom="3.2777778"
     inkscape:cx="-13.271186"
     inkscape:cy="36"
     inkscape:window-width="1309"
     inkscape:window-height="456"
     inkscape:window-x="0"
     inkscape:window-y="25"
     inkscape:window-maximized="0"
     inkscape:current-layer="emoji" />
  <path
     id="path8783"
     style="fill:#fcea2b"
     d="M 5,17 H 67 V 55 H 5 Z" />
  <path
     id="path8786"
     style="fill:#186648"
     d="M 5,17 H 67 V 30 H 5 Z" />
  <path
     style="color:#000000;fill:#000000;stroke-width:2;stroke-miterlimit:10;-inkscape-stroke:none"
     d="M 5,30 H 67 V 42 H 5 Z"
     id="path8759" />
  <path
     style="color:#000000;fill:#ffffff;stroke-miterlimit:10;-inkscape-stroke:none"
     d="m 4,29 v 1 13 H 68 V 29 Z m 2,2 H 66 V 41 H 6 Z"
     id="path8756" />
  <path
     id="path8789"
     style="fill:#d22f27"
     d="M 5,17 26,36 5,55 Z" />
  <path
     style="color:#000000;fill:#fcea2b;stroke-linecap:round;stroke-linejoin:round"
     d="m 16.689,41.245 -8.598,-6.42 10.818,-0.266 -8.905,6.85 3.589,-10.818 z"
     id="path8765" />
  <path
     style="color:#000000;fill:#fcea2b;stroke-linecap:round;stroke-linejoin:round"
     d="m 13.601563,30.091797 a 0.50005,0.50005 0 0 0 -0.482422,0.341797 l -1.259766,3.796875 -3.78125,0.09375 a 0.50005,0.50005 0 0 0 -0.2871094,0.902343 l 2.9960934,2.236329 -1.2578121,3.789062 a 0.50005,0.50005 0 0 0 0.7792971,0.552734 l 3.099609,-2.384765 2.982422,2.226562 a 0.50005,0.50005 0 0 0 0.779297,-0.541015 l -1.087891,-3.742188 3.13086,-2.408203 a 0.50005,0.50005 0 0 0 -0.316407,-0.896484 l -3.748046,0.0918 -1.076172,-3.699219 A 0.50005,0.50005 0 0 0 13.601563,30.0918 Z m -0.03906,2.18164 0.552734,1.902344 -1.193359,0.0293 z m 3.826172,2.822266 -1.607422,1.236328 -0.34375,-1.1875 z m -2.986328,0.07422 0.529297,1.816406 -1.53125,1.177734 -1.4375,-1.072265 0.623047,-1.876953 z m -2.878906,0.07031 -0.404297,1.220703 -1.5703129,-1.171875 z m 3.707031,2.777344 0.5625,1.933594 -1.560547,-1.166016 z m -3.59961,0.07617 0.945313,0.705078 -1.583984,1.21875 z"
     id="path8762" />
  <path
     style="color:#000000;fill:#ffffff;stroke-linecap:round;stroke-linejoin:round"
     d="m 11.033,35.585 h 4.934 l 0.902,3.219 h -6.738 z"
     id="path8771" />
  <path
     style="color:#000000;fill:#ffffff;stroke-linecap:round;stroke-linejoin:round"
     d="m 11.033203,35.085937 a 0.50005,0.50005 0 0 0 -0.482422,0.363282 l -0.9003904,3.220703 a 0.50005,0.50005 0 0 0 0.4804684,0.634765 h 6.738282 a 0.50005,0.50005 0 0 0 0.480468,-0.634765 l -0.90039,-3.220703 a 0.50005,0.50005 0 0 0 -0.482422,-0.363282 z m 0.378906,1 h 4.175782 l 0.621093,2.21875 h -5.417968 z"
     id="path8768" />
  <path
     style="color:#000000;fill:#000000;stroke-linecap:round;stroke-linejoin:round"
     d="M 16.261719,32.03125 A 0.75,0.75 0 0 0 15.732422,32.25 l -7.3281251,7.341797 a 0.75,0.75 0 0 0 0,1.060547 0.75,0.75 0 0 0 1.0605469,-0.002 l 7.3281252,-7.339844 a 0.75,0.75 0 0 0 0,-1.060547 0.75,0.75 0 0 0 -0.53125,-0.21875 z"
     id="path8774" />
  <path
     style="color:#000000;fill:#000000;stroke-linecap:round;stroke-linejoin:round"
     d="m 10.207031,32.25 a 0.75,0.75 0 0 0 0,1.060547 l 7.328125,7.339844 a 0.75,0.75 0 0 0 1.060547,0.002 0.75,0.75 0 0 0 0,-1.060547 L 11.267578,32.25 a 0.75,0.75 0 0 0 -1.060547,0 z"
     id="path8777" />
  <path
     style="color:#000000;fill:#000000;stroke-linecap:round;stroke-linejoin:round"
     d="m 5,16 a 1.0001,1.0001 0 0 0 -1,1 v 38 a 1.0001,1.0001 0 0 0 1,1 h 62 a 1.0001,1.0001 0 0 0 1,-1 V 17 a 1.0001,1.0001 0 0 0 -1,-1 z m 1,2 H 66 V 54 H 6 Z"
     id="path8780" />
</svg>
