<?xml version="1.0" encoding="UTF-8" standalone="no"?>
<svg
   id="emoji"
   viewBox="0 0 72 72"
   version="1.1"
   sodipodi:docname="Namibia.svg"
   inkscape:version="1.2 (dc2aeda, 2022-05-15)"
   xmlns:inkscape="http://www.inkscape.org/namespaces/inkscape"
   xmlns:sodipodi="http://sodipodi.sourceforge.net/DTD/sodipodi-0.dtd"
   xmlns="http://www.w3.org/2000/svg"
   xmlns:svg="http://www.w3.org/2000/svg">
  <defs
     id="defs8998" />
  <sodipodi:namedview
     id="namedview8996"
     pagecolor="#ffffff"
     bordercolor="#000000"
     borderopacity="0.25"
     inkscape:showpageshadow="2"
     inkscape:pageopacity="0.0"
     inkscape:pagecheckerboard="0"
     inkscape:deskcolor="#d1d1d1"
     showgrid="false"
     inkscape:zoom="3.2777778"
     inkscape:cx="-13.271186"
     inkscape:cy="36"
     inkscape:window-width="1309"
     inkscape:window-height="456"
     inkscape:window-x="0"
     inkscape:window-y="25"
     inkscape:window-maximized="0"
     inkscape:current-layer="emoji" />
  <path
     id="path9177"
     style="fill:#5c9e31"
     d="M 5,17 H 67 V 55 H 5 Z" />
  <path
     id="path9180"
     style="fill:#1e50a0"
     d="M 67,17 H 5 v 38 z" />
  <path
     style="color:#000000;fill:#d22f27;stroke-width:2;stroke-linecap:round;stroke-linejoin:round"
     d="M 59,17 5,48 v 7 h 8 L 67,24 v -7 z"
     id="path9168" />
  <path
     style="color:#000000;fill:#ffffff;stroke-linecap:round;stroke-linejoin:round"
     d="m 59,16 a 1.0001,1.0001 0 0 0 -0.498047,0.132812 l -53.9999999,31 A 1.0001,1.0001 0 0 0 4,48 v 7 a 1.0001,1.0001 0 0 0 1,1 h 8 a 1.0001,1.0001 0 0 0 0.498047,-0.132813 l 54,-31 A 1.0001,1.0001 0 0 0 68,24 v -7 a 1.0001,1.0001 0 0 0 -1,-1 z m 0.267578,2 H 66 v 5.421875 L 12.732422,54 H 6 v -5.421875 z"
     id="path9165" />
  <path
     style="color:#000000;fill:#fcea2b;stroke-width:2;stroke-linecap:round;stroke-linejoin:round"
     d="m 21,27 a 4,4 0 0 1 -4,4 4,4 0 0 1 -4,-4 4,4 0 0 1 4,-4 4,4 0 0 1 4,4 z"
     id="path9174" />
  <path
     style="color:#000000;fill:#fcea2b;stroke-linecap:round;stroke-linejoin:round"
     d="m 17,22 c -2.749576,0 -5,2.250424 -5,5 0,2.749576 2.250424,5 5,5 2.749576,0 5,-2.250424 5,-5 0,-2.749576 -2.250424,-5 -5,-5 z m 0,2 c 1.668697,0 3,1.331303 3,3 0,1.668697 -1.331303,3 -3,3 -1.668697,0 -3,-1.331303 -3,-3 0,-1.668697 1.331303,-3 3,-3 z"
     id="path9171" />
  <path
     style="color:#000000;fill:#000000;stroke-linecap:round;stroke-linejoin:round;-inkscape-stroke:none"
     d="m 5,16 a 1.0001,1.0001 0 0 0 -1,1 v 38 a 1.0001,1.0001 0 0 0 1,1 h 62 a 1.0001,1.0001 0 0 0 1,-1 V 17 a 1.0001,1.0001 0 0 0 -1,-1 z m 1,2 H 66 V 54 H 6 Z"
     id="path9162" />
</svg>
