<?xml version="1.0" encoding="UTF-8" standalone="no"?>
<!-- Created with Inkscape (http://www.inkscape.org/) -->

<svg
   sodipodi:docname="Chuuwani Hitotsu Ichou.svg"
   viewBox="0 0 795.03467 793.70135"
   height="793.70135"
   width="795.03467"
   id="svg9459"
   version="1.1"
   inkscape:version="1.2 (dc2aeda, 2022-05-15)"
   xmlns:inkscape="http://www.inkscape.org/namespaces/inkscape"
   xmlns:sodipodi="http://sodipodi.sourceforge.net/DTD/sodipodi-0.dtd"
   xmlns="http://www.w3.org/2000/svg"
   xmlns:svg="http://www.w3.org/2000/svg">
  <defs
     id="defs10882" />
  <sodipodi:namedview
     id="namedview9461"
     pagecolor="#ffffff"
     bordercolor="#000000"
     borderopacity="0.25"
     inkscape:showpageshadow="2"
     inkscape:pageopacity="0.0"
     inkscape:pagecheckerboard="0"
     inkscape:deskcolor="#d1d1d1"
     showgrid="false"
     inkscape:zoom="0.29734106"
     inkscape:cx="-127.79937"
     inkscape:cy="403.57696"
     inkscape:window-width="1419"
     inkscape:window-height="456"
     inkscape:window-x="0"
     inkscape:window-y="25"
     inkscape:window-maximized="0"
     inkscape:current-layer="svg9459">
    <inkscape:page
       x="0"
       y="0"
       id="page9465"
       width="795.03467"
       height="793.70135" />
  </sodipodi:namedview>
  <path
     d="M 396.848 445.535 C 382.581 445.535 369.733 451.579 360.701 461.238 C 373.469 489.23 380.589 520.341 380.589 553.119 L 380.589 698.722 C 385.973 699.008 391.392 699.162 396.848 699.162 C 402.308 699.162 407.732 699.008 413.12 698.722 L 413.12 553.119 C 413.12 520.344 420.239 489.238 433.003 461.246 C 423.971 451.584 411.119 445.535 396.848 445.535 M 652.177 291.577 C 649.373 276.793 641.431 262.915 628.673 252.886 C 615.205 242.296 598.838 237.936 583.024 239.356 C 577.409 218.746 558.57 203.59 536.182 203.59 C 530.58 203.59 525.205 204.553 520.197 206.298 C 519.868 213.818 519.224 220.066 517.508 224.978 C 515.704 230.142 510.764 233.48 505.465 232.126 C 500.165 230.774 497.429 225.48 498.318 220.082 C 499.173 214.894 501.648 209.03 505.014 202.178 C 496.116 191.988 483.045 185.536 468.452 185.536 C 460.428 185.536 452.865 187.493 446.196 190.941 C 432.547 180.392 415.436 174.1 396.855 174.1 C 378.272 174.1 361.161 180.392 347.513 190.941 C 340.844 187.493 333.281 185.536 325.258 185.536 C 310.663 185.536 297.594 191.988 288.695 202.178 C 292.062 209.03 294.536 214.894 295.391 220.082 C 296.28 225.48 293.543 230.774 288.244 232.126 C 282.946 233.48 278.006 230.142 276.202 224.978 C 274.486 220.066 273.842 213.818 273.512 206.298 C 268.504 204.553 263.13 203.59 257.527 203.59 C 235.139 203.59 216.3 218.746 210.686 239.356 C 194.871 237.936 178.505 242.296 165.037 252.886 C 152.277 262.915 144.337 276.793 141.533 291.577 C 121.019 298.918 104.715 316.467 100.001 339.369 C 118.762 334.209 138.51 331.441 158.909 331.441 C 245.292 331.441 320.131 380.855 356.713 452.956 C 361.667 448.23 367.444 444.366 373.82 441.614 C 365.081 403.238 345.828 366.793 315.939 336.905 C 295.132 316.097 265.522 298.73 245.395 289.301 C 222.395 278.522 194.495 272.993 194.834 271.479 C 195.173 269.967 225.506 273.189 249.05 282.691 C 273.727 292.649 300.494 309.199 322.068 330.774 C 352.907 361.61 372.871 399.196 382.057 438.77 C 385.432 437.887 388.931 437.308 392.516 437.043 L 392.516 273.855 C 392.516 244.522 393.755 208.189 396.855 208.189 C 399.955 208.189 401.193 244.522 401.193 273.855 L 401.193 437.046 C 404.777 437.311 408.275 437.89 411.651 438.775 C 420.837 399.199 440.801 361.613 471.641 330.774 C 493.214 309.199 519.982 292.649 544.658 282.691 C 568.204 273.189 598.537 269.967 598.875 271.479 C 599.213 272.993 571.314 278.522 548.314 289.301 C 528.188 298.73 498.577 316.097 477.769 336.905 C 447.879 366.795 428.625 403.243 419.888 441.62 C 426.263 444.374 432.04 448.24 436.989 452.967 C 473.572 380.86 548.413 331.441 634.801 331.441 C 655.199 331.441 674.947 334.209 693.709 339.369 C 688.993 316.467 672.69 298.918 652.177 291.577 M 396.851 709.832 C 224.002 709.832 83.8781 569.712 83.8781 396.86 C 83.8781 224.012 224.002 83.8799 396.851 83.8799 C 569.7 83.8799 709.822 224.012 709.822 396.86 C 709.822 569.712 569.7 709.832 396.851 709.832 M 396.851 31.7307 C 195.202 31.7307 31.7289 195.209 31.7289 396.863 C 31.7289 598.513 195.202 761.985 396.851 761.985 C 598.501 761.985 761.972 598.513 761.972 396.863 C 761.972 195.209 598.501 31.7307 396.851 31.7307"
     style="fill:#000000;fill-opacity:1;fill-rule:nonzero;stroke:none"
     id="path9579" />
</svg>
