<?xml version="1.0" encoding="UTF-8" standalone="no"?>
<!-- Created with Inkscape (http://www.inkscape.org/) -->

<svg
   sodipodi:docname="Itowani Mame Mitsu Icho.svg"
   viewBox="0 0 795.03467 793.70135"
   height="793.70135"
   width="795.03467"
   id="svg4566"
   version="1.1"
   inkscape:version="1.2 (dc2aeda, 2022-05-15)"
   xmlns:inkscape="http://www.inkscape.org/namespaces/inkscape"
   xmlns:sodipodi="http://sodipodi.sourceforge.net/DTD/sodipodi-0.dtd"
   xmlns="http://www.w3.org/2000/svg"
   xmlns:svg="http://www.w3.org/2000/svg">
  <defs
     id="defs11581" />
  <sodipodi:namedview
     id="namedview4568"
     pagecolor="#ffffff"
     bordercolor="#000000"
     borderopacity="0.25"
     inkscape:showpageshadow="2"
     inkscape:pageopacity="0.0"
     inkscape:pagecheckerboard="0"
     inkscape:deskcolor="#d1d1d1"
     showgrid="false"
     inkscape:zoom="0.29734106"
     inkscape:cx="-195.0622"
     inkscape:cy="390.12439"
     inkscape:window-width="1419"
     inkscape:window-height="456"
     inkscape:window-x="0"
     inkscape:window-y="25"
     inkscape:window-maximized="0"
     inkscape:current-layer="svg4566">
    <inkscape:page
       x="0"
       y="0"
       id="page4572"
       width="795.03467"
       height="793.70135" />
  </sodipodi:namedview>
  <path
     d="M 485.225 402.055 C 488.014 402.404 491.73 403.935 494.509 406.698 C 496.29 404.706 497.394 402.094 497.436 399.214 C 497.477 396.382 496.488 393.776 494.821 391.747 C 496.209 389.091 496.81 385.992 496.332 382.796 C 495.848 379.566 494.329 376.755 492.181 374.615 C 493.157 371.927 493.277 368.906 492.304 365.979 C 490.766 361.362 486.918 358.176 482.474 357.254 C 468.129 379.863 444.654 393.504 419.686 396.135 C 419.744 396.927 419.752 397.723 419.725 398.522 C 428.353 399.867 437.105 399.443 445.446 397.354 C 451.602 395.815 457.512 393.944 463.72 390.444 C 470.704 386.508 478.105 380.326 478.944 381.096 C 479.785 381.867 473.913 389.276 466.982 394.162 C 461.728 397.864 455.418 400.638 449.037 402.451 C 439.28 405.224 428.944 405.875 418.766 404.282 C 418.537 405.047 418.269 405.806 417.957 406.555 C 433.6 415.588 445.146 422.255 448.673 424.29 C 468.654 435.826 472.865 440.67 472.449 441.394 C 472.032 442.115 465.73 440.891 445.749 429.355 C 442.222 427.318 430.678 420.651 415.032 411.62 C 414.54 412.263 414.017 412.878 413.468 413.459 C 419.938 421.474 424.542 430.752 427.02 440.588 C 428.64 447.022 429.392 453.872 428.81 460.276 C 428.045 468.721 424.566 477.511 423.477 477.167 C 422.389 476.825 424.045 467.323 423.962 459.307 C 423.889 452.18 422.553 446.131 420.81 440.028 C 418.447 431.76 414.439 423.97 408.957 417.167 C 408.283 417.588 407.587 417.979 406.873 418.328 C 417.08 441.266 417.004 468.415 404.595 492.145 C 407.616 495.531 412.301 497.271 417.069 496.295 C 420.086 495.675 422.644 494.06 424.482 491.872 C 427.41 492.661 430.602 492.568 433.646 491.375 C 436.652 490.193 439.032 488.12 440.64 485.588 C 443.23 486.019 445.98 485.576 448.413 484.123 C 450.886 482.643 452.597 480.383 453.433 477.847 C 449.654 476.82 446.468 474.367 444.769 472.128 C 442.064 468.55 441.949 464.079 444.512 462.14 C 447.077 460.198 451.348 461.527 454.053 465.104 C 455.644 467.206 457.064 470.617 457.206 474.268 C 460.689 474.047 464.116 472.643 466.821 470.024 C 469.982 466.964 471.512 462.864 471.433 458.787 C 476.532 456.806 481.02 453.151 483.97 448.044 C 486.918 442.935 487.837 437.219 487.006 431.815 C 490.577 429.847 493.358 426.472 494.43 422.2 C 495.345 418.552 494.848 414.88 493.298 411.752 C 490.069 413.456 486.4 413.932 483.782 413.607 C 479.334 413.05 476.048 410.016 476.449 406.823 C 476.845 403.636 480.774 401.5 485.225 402.055 M 413.892 397.744 C 413.892 388.331 406.261 380.698 396.845 380.698 C 387.431 380.698 379.799 388.331 379.799 397.744 C 379.799 407.159 387.431 414.795 396.845 414.795 C 406.261 414.795 413.892 407.159 413.892 397.744 M 386.816 418.328 C 386.103 417.979 385.411 417.588 384.731 417.167 C 379.252 423.97 375.244 431.758 372.879 440.028 C 371.137 446.131 369.801 452.18 369.728 459.307 C 369.644 467.323 371.301 476.825 370.212 477.167 C 369.124 477.511 365.644 468.719 364.879 460.276 C 364.299 453.872 365.051 447.022 366.671 440.588 C 369.149 430.75 373.752 421.474 380.223 413.459 C 379.673 412.878 379.152 412.263 378.657 411.618 C 363.012 420.651 351.468 427.318 347.941 429.355 C 327.96 440.891 321.657 442.115 321.241 441.391 C 320.827 440.67 325.035 435.826 345.017 424.29 C 348.543 422.252 360.089 415.588 375.733 406.555 C 375.423 405.806 375.152 405.047 374.923 404.282 C 364.747 405.875 354.411 405.224 344.652 402.451 C 338.275 400.638 331.963 397.864 326.707 394.159 C 319.777 389.275 313.903 381.867 314.744 381.096 C 315.585 380.326 322.985 386.508 329.971 390.444 C 336.179 393.944 342.087 395.815 348.244 397.354 C 356.585 399.443 365.337 399.864 373.965 398.522 C 373.939 397.723 373.947 396.927 374.004 396.135 C 349.035 393.504 325.564 379.863 311.215 357.252 C 306.772 358.176 302.923 361.362 301.387 365.979 C 300.416 368.906 300.535 371.927 301.509 374.614 C 299.361 376.755 297.845 379.566 297.356 382.796 C 296.879 385.992 297.48 389.088 298.871 391.746 C 297.204 393.776 296.212 396.38 296.253 399.211 C 296.296 402.094 297.4 404.706 299.181 406.695 C 301.96 403.935 305.676 402.404 308.465 402.055 C 312.916 401.5 316.845 403.636 317.244 406.823 C 317.641 410.016 314.359 413.05 309.908 413.604 C 307.291 413.932 303.624 413.456 300.392 411.752 C 298.843 414.88 298.345 418.55 299.261 422.2 C 300.329 426.47 303.116 429.847 306.687 431.815 C 305.853 437.219 306.775 442.935 309.723 448.044 C 312.671 453.151 317.16 456.806 322.259 458.787 C 322.179 462.864 323.709 466.962 326.871 470.024 C 329.577 472.64 333.001 474.044 336.485 474.265 C 336.627 470.617 338.045 467.203 339.64 465.102 C 342.345 461.527 346.616 460.198 349.179 462.14 C 351.744 464.079 351.627 468.55 348.92 472.125 C 347.225 474.367 344.037 476.82 340.256 477.847 C 341.095 480.383 342.804 482.643 345.277 484.123 C 347.709 485.576 350.46 486.019 353.051 485.588 C 354.657 488.12 357.037 490.193 360.045 491.375 C 363.087 492.568 366.28 492.661 369.207 491.869 C 371.048 494.057 373.605 495.672 376.624 496.295 C 381.392 497.271 386.075 495.531 389.095 492.145 C 376.689 468.415 376.611 441.266 386.816 418.328 M 384.032 378.766 C 384.692 378.322 385.376 377.915 386.08 377.539 C 382.928 369.394 378.187 362.026 372.207 355.846 C 367.796 351.286 363.223 347.104 357.089 343.476 C 350.187 339.395 341.132 336.079 341.379 334.965 C 341.627 333.851 350.977 335.234 358.673 338.794 C 364.509 341.491 370.069 345.57 374.827 350.188 C 382.108 357.254 387.84 365.878 391.548 375.49 C 392.327 375.304 393.116 375.159 393.923 375.055 L 393.923 339.586 C 393.923 316.511 396.012 310.443 396.845 310.443 C 397.679 310.443 399.769 316.511 399.769 339.586 L 399.769 375.055 C 400.577 375.159 401.365 375.304 402.141 375.49 C 405.853 365.878 411.585 357.254 418.864 350.188 C 423.624 345.57 429.184 341.491 435.017 338.794 C 442.712 335.234 452.066 333.851 452.313 334.965 C 452.561 336.079 443.504 339.395 436.602 343.476 C 430.468 347.104 425.894 351.286 421.482 355.846 C 415.504 362.026 410.761 369.394 407.611 377.539 C 408.313 377.915 409.001 378.322 409.657 378.766 C 424.42 358.458 447.973 344.95 474.725 343.831 C 476.146 339.52 475.313 334.597 472.082 330.955 C 470.034 328.651 467.361 327.245 464.542 326.745 C 463.764 323.813 462.086 321.094 459.534 319.055 C 457.006 317.046 454.022 316.018 451.025 315.893 C 450.1 313.435 448.342 311.275 445.868 309.893 C 443.353 308.49 440.537 308.141 437.922 308.685 C 438.922 312.471 438.394 316.458 437.301 319.047 C 435.556 323.178 431.741 325.515 428.782 324.265 C 425.818 323.014 424.832 318.653 426.577 314.521 C 427.602 312.091 429.85 309.154 432.936 307.207 C 431.004 304.302 428.077 302.037 424.454 301.002 C 420.222 299.795 415.908 300.518 412.419 302.626 C 408.152 299.202 402.744 297.142 396.845 297.141 C 390.947 297.142 385.537 299.202 381.272 302.626 C 377.783 300.518 373.468 299.795 369.236 301.002 C 365.616 302.037 362.687 304.302 360.753 307.207 C 363.843 309.154 366.089 312.091 367.116 314.521 C 368.859 318.653 367.873 323.014 364.911 324.265 C 361.949 325.515 358.137 323.178 356.389 319.047 C 355.296 316.458 354.767 312.471 355.767 308.685 C 353.152 308.141 350.34 308.49 347.824 309.893 C 345.351 311.275 343.589 313.435 342.665 315.893 C 339.671 316.018 336.687 317.046 334.157 319.055 C 331.603 321.094 329.928 323.813 329.147 326.745 C 326.332 327.245 323.655 328.651 321.608 330.955 C 318.379 334.597 317.543 339.52 318.965 343.831 C 345.72 344.95 369.272 358.458 384.032 378.766 M 396.851 733.518 C 210.904 733.51 60.1861 582.787 60.1701 396.844 C 60.1861 210.906 210.904 60.1932 396.851 60.1852 C 582.786 60.1932 733.511 210.906 733.52 396.844 C 733.511 582.787 582.786 733.51 396.851 733.518 M 396.851 31.7293 C 195.192 31.7386 31.7315 195.19 31.7128 396.844 C 31.7315 598.505 195.192 761.963 396.851 761.973 C 598.498 761.963 761.967 598.505 761.976 396.844 C 761.967 195.19 598.498 31.7386 396.851 31.7293"
     style="fill:#000000;fill-opacity:1;fill-rule:nonzero;stroke:none"
     id="path4686" />
</svg>
