<?xml version="1.0" encoding="UTF-8" standalone="no"?>
<!-- Created with Inkscape (http://www.inkscape.org/) -->

<svg
   sodipodi:docname="Itsutsu Ityou.svg"
   viewBox="0 0 793.70135 793.70135"
   height="793.70135"
   width="793.70135"
   id="svg12061"
   version="1.1"
   inkscape:version="1.2 (dc2aeda, 2022-05-15)"
   xmlns:inkscape="http://www.inkscape.org/namespaces/inkscape"
   xmlns:sodipodi="http://sodipodi.sourceforge.net/DTD/sodipodi-0.dtd"
   xmlns="http://www.w3.org/2000/svg"
   xmlns:svg="http://www.w3.org/2000/svg">
  <defs
     id="defs12712" />
  <sodipodi:namedview
     id="namedview12063"
     pagecolor="#ffffff"
     bordercolor="#000000"
     borderopacity="0.25"
     inkscape:showpageshadow="2"
     inkscape:pageopacity="0.0"
     inkscape:pagecheckerboard="0"
     inkscape:deskcolor="#d1d1d1"
     showgrid="false"
     inkscape:zoom="0.21024124"
     inkscape:cx="-834.75535"
     inkscape:cy="542.23424"
     inkscape:window-width="1419"
     inkscape:window-height="456"
     inkscape:window-x="0"
     inkscape:window-y="25"
     inkscape:window-maximized="0"
     inkscape:current-layer="svg12061">
    <inkscape:page
       x="0"
       y="0"
       id="page12067"
       width="793.70135"
       height="793.70135" />
  </sodipodi:namedview>
  <path
     d="m 445.417,401.443 c 0,27.203 -22.059,49.259 -49.259,49.259 -27.202,0 -49.261,-22.056 -49.261,-49.259 0,-27.203 22.059,-49.26 49.261,-49.26 27.2,0 49.259,22.057 49.259,49.26"
     style="fill:#231f20;fill-opacity:1;fill-rule:nonzero;stroke:none"
     id="path12081" />
  <path
     d="m 399.07,344.037 c 0.952,0.048 2.027,0.149 2.967,0.241 3.18,-21.834 11.39,-63.881 31.064,-104.13 34.086,-69.509 88.643,-111.658 88.809,-111.805 1.197,-0.919 2.922,-0.708 3.849,0.495 0.919,1.192 0.693,2.921 -0.497,3.842 -0.039,0.023 -13.38,10.326 -31.03,29.287 -17.66,18.95 -39.51,46.473 -56.218,80.588 -13.833,28.261 -21.931,57.658 -26.56,79.947 -1.833,8.814 -3.105,16.49 -3.987,22.562 1.203,0.234 2.39,0.534 3.566,0.844 5.814,-22.375 18.868,-57.456 48.238,-102.277 52.911,-80.732 124.149,-106.732 124.149,-106.732 0,0 -0.914,-6.5 -10.604,-13 -9.696,-6.5 -21.097,-4.789 -21.097,-4.789 0,0 -4.105,-11.743 -17.677,-18.815 -13.564,-7.071 -28.163,-1.48 -28.163,-1.48 0,0 -8.097,-11.747 -18.472,-14.025 -10.375,-2.28 -16.42,2.394 -16.42,2.394 0,0 1.824,8.436 0.341,13.456 -1.48,5.019 -5.979,9.055 -10.999,7.686 -5.018,-1.368 -6.787,-7.344 -5.762,-11.791 1.027,-4.447 6.73,-10.72 6.73,-10.72 0,0 -2.736,-6.841 -15.966,-10.035 -13.229,-3.193 -22.122,4.563 -22.122,4.563 0,0 -10.204,-13 -26.967,-13 -16.761,0 -26.965,13 -26.965,13 0,0 -8.895,-7.756 -22.124,-4.563 -13.228,3.194 -15.965,10.035 -15.965,10.035 0,0 5.702,6.273 6.73,10.72 1.025,4.447 -0.744,10.423 -5.764,11.791 -5.017,1.369 -9.518,-2.667 -11,-7.686 -1.48,-5.02 0.343,-13.456 0.343,-13.456 0,0 -6.045,-4.674 -16.419,-2.394 -10.374,2.278 -18.473,14.025 -18.473,14.025 0,0 -14.597,-5.591 -28.164,1.48 -13.569,7.072 -17.676,18.815 -17.676,18.815 0,0 -11.4,-1.711 -21.096,4.789 -9.691,6.5 -10.604,13 -10.604,13 0,0 71.239,26 124.148,106.732 29.372,44.821 42.425,79.902 48.24,102.277 1.176,-0.31 2.362,-0.61 3.565,-0.844 -0.881,-6.072 -2.153,-13.748 -3.987,-22.562 -4.629,-22.289 -12.726,-51.686 -26.56,-79.947 -16.708,-34.115 -38.559,-61.638 -56.219,-80.588 -17.65,-18.961 -30.99,-29.264 -31.028,-29.287 -1.192,-0.921 -1.416,-2.65 -0.498,-3.842 0.926,-1.203 2.651,-1.414 3.85,-0.495 0.165,0.147 54.722,42.296 88.806,111.805 19.676,40.249 27.885,82.296 31.067,104.13 0.94,-0.092 2.014,-0.193 2.966,-0.241 V 97.668 c 0,-1.505 1.315,-2.729 2.827,-2.729 1.513,0 2.828,1.224 2.828,2.729 z"
     style="fill:#231f20;fill-opacity:1;fill-rule:nonzero;stroke:none"
     id="path12085" />
  <path
     d="m 342.461,380.934 c 0.336,-0.889 0.769,-1.881 1.148,-2.748 C 323.822,368.413 286.376,347.61 254.177,316.462 198.6,262.569 175.369,197.656 175.284,197.45 c -0.503,-1.42 0.231,-2.996 1.657,-3.504 1.422,-0.505 2.992,0.243 3.506,1.659 0.012,0.04 5.682,15.915 18.26,38.56 12.57,22.649 31.994,51.935 59.276,78.371 22.598,21.885 48.057,38.674 67.829,49.963 7.813,4.468 14.72,8.05 20.22,10.764 0.593,-1.072 1.244,-2.11 1.908,-3.129 -19.488,-12.444 -48.816,-35.696 -82.368,-77.484 -60.431,-75.269 -63.145,-151.054 -63.145,-151.054 0,0 -6.463,-1.14 -15.64,6.069 -9.172,7.211 -11.076,18.583 -11.076,18.583 0,0 -12.432,0.275 -23.352,10.995 -10.92,10.719 -10.112,26.33 -10.112,26.33 0,0 -13.673,4.069 -19.045,13.233 -5.378,9.164 -2.8,16.356 -2.8,16.356 0,0 8.589,0.874 12.902,3.832 4.319,2.963 6.767,8.491 3.912,12.84 -2.853,4.348 -9.081,4.184 -12.993,1.836 -3.912,-2.352 -8.12,-9.712 -8.12,-9.712 0,0 -7.348,0.49 -14.473,12.082 -7.1257,11.59 -2.4964,22.449 -2.4964,22.449 0,0 -15.5173,5.688 -20.6959,21.629 -5.18,15.942 4.0293,29.663 4.0293,29.663 0,0 -10.128,6.066 -11.176,19.632 -1.048,13.565 4.6133,18.282 4.6133,18.282 0,0 7.724,-3.485 12.272,-3.086 4.548,0.398 9.68,3.93 9.4333,9.124 -0.2453,5.194 -5.4786,8.23 -10.7106,8.086 -5.228,-0.141 -12.6893,-4.484 -12.6893,-4.484 0,0 -6.3133,4.303 -7.3547,14.878 -1.0373,10.573 7.632,21.901 7.632,21.901 0,0 -9.824,12.155 -7.296,27.247 2.5333,15.089 12.4333,22.619 12.4333,22.619 0,0 -5.148,10.316 -1.9626,21.54 3.1866,11.231 9.0866,14.107 9.0866,14.107 0,0 46.7377,-59.716 139.8687,-85.088 51.708,-14.086 89.103,-15.658 112.183,-14.273 0.064,-1.211 0.149,-2.435 0.3,-3.651 -6.052,-1.041 -13.748,-2.2 -22.696,-3.181 -22.626,-2.484 -53.087,-3.867 -84.239,0.551 -37.612,5.356 -70.537,17.632 -94.018,28.569 -23.487,10.925 -37.405,20.432 -37.436,20.459 -1.2507,0.844 -2.9627,0.522 -3.8121,-0.718 -0.86,-1.244 -0.524,-2.954 0.7214,-3.81 0.188,-0.112 57.1327,-38.975 133.7757,-49.912 44.353,-6.272 86.878,-1.091 108.633,2.633 0.203,-0.923 0.439,-1.977 0.684,-2.897 L 106.408,310.177 c -1.433,-0.465 -2.192,-2.091 -1.726,-3.531 0.465,-1.441 2.036,-2.309 3.469,-1.844 z"
     style="fill:#231f20;fill-opacity:1;fill-rule:nonzero;stroke:none"
     id="path12089" />
  <path
     d="m 360.063,446.17 c -0.744,-0.592 -1.556,-1.308 -2.261,-1.935 -15.41,15.791 -46.764,44.984 -86.339,65.979 -68.432,36.204 -137.346,38.234 -137.57,38.256 -1.503,0.042 -2.78,-1.146 -2.817,-2.662 -0.043,-1.502 1.16,-2.776 2.656,-2.818 0.044,0 16.896,-0.486 42.322,-5.458 25.421,-4.948 59.277,-14.372 92.849,-32.149 27.799,-14.737 51.632,-33.754 68.475,-49.068 6.67,-6.05 12.209,-11.518 16.49,-15.906 -0.833,-0.898 -1.62,-1.839 -2.389,-2.779 -17.853,14.681 -49.036,35.395 -99.14,54.385 -90.262,34.213 -163.174,13.379 -163.174,13.379 0,0 -3.084,5.795 0.9413,16.75 4.0187,10.952 14.2497,16.271 14.2497,16.271 0,0 -3.582,11.913 3.238,25.615 6.822,13.693 21.915,17.749 21.915,17.749 0,0 -0.352,14.26 6.703,22.203 7.056,7.949 14.689,7.714 14.689,7.714 0,0 3.484,-7.894 7.632,-11.086 4.148,-3.19 10.166,-3.806 13.417,0.252 3.26,4.052 1.175,9.925 -2.267,12.924 -3.442,2.993 -11.749,4.72 -11.749,4.72 0,0 -1.806,7.14 7.024,17.5 8.819,10.358 20.577,9.309 20.577,9.309 0,0 0.611,16.517 14.176,26.368 13.555,9.856 29.451,5.334 29.451,5.334 0,0 2.641,11.503 15.223,16.692 12.572,5.196 18.816,1.267 18.816,1.267 0,0 -0.931,-8.429 0.854,-12.624 1.786,-4.203 6.73,-7.996 11.588,-6.157 4.864,1.842 6.136,7.754 4.383,12.682 -1.753,4.934 -8.188,10.686 -8.188,10.686 0,0 2.148,7.333 11.881,11.593 9.733,4.255 23.187,-0.492 23.187,-0.492 0,0 8.525,13.107 23.657,15.363 15.132,2.249 25.357,-4.838 25.357,-4.838 0,0 8.216,8.087 19.879,8.524 11.663,0.439 16.221,-4.281 16.221,-4.281 0,0 -42.348,-62.904 -37.698,-159.318 2.576,-53.531 12.641,-89.583 21.092,-111.103 -1.134,-0.432 -2.271,-0.893 -3.383,-1.412 -2.86,5.432 -6.335,12.391 -10.033,20.596 -9.359,20.755 -20.087,49.296 -25.514,80.292 -6.525,37.427 -5.028,72.533 -1.88,98.242 3.132,25.715 7.874,41.89 7.883,41.932 0.424,1.443 -0.411,2.972 -1.853,3.4 -1.448,0.427 -2.979,-0.418 -3.4,-1.861 -0.048,-0.219 -19.419,-66.385 -6.131,-142.653 7.74,-44.124 25.807,-82.965 36.068,-102.502 -0.812,-0.48 -1.743,-1.031 -2.539,-1.55 L 219.819,648.811 c -0.888,1.22 -2.661,1.438 -3.892,0.546 -1.224,-0.888 -1.565,-2.652 -0.682,-3.87 z"
     style="fill:#231f20;fill-opacity:1;fill-rule:nonzero;stroke:none"
     id="path12093" />
  <path
     d="m 427.538,449.597 c -0.791,0.519 -1.721,1.069 -2.533,1.549 10.252,19.532 28.329,58.379 36.068,102.503 13.282,76.268 -6.083,142.434 -6.124,142.653 -0.43,1.442 -1.952,2.288 -3.406,1.861 -1.444,-0.424 -2.282,-1.957 -1.856,-3.4 0.011,-0.043 4.759,-16.217 7.884,-41.932 3.15,-25.709 4.646,-60.821 -1.886,-98.242 -5.419,-30.996 -16.142,-59.537 -25.507,-80.288 -3.687,-8.209 -7.183,-15.169 -10.027,-20.6 -1.117,0.519 -2.254,0.98 -3.382,1.412 8.444,21.519 18.509,57.576 21.085,111.102 4.651,96.413 -37.704,159.319 -37.704,159.319 0,0 4.565,4.72 16.228,4.281 11.657,-0.437 19.872,-8.524 19.872,-8.524 0,0 10.231,7.087 25.369,4.836 15.126,-2.26 23.651,-15.361 23.651,-15.361 0,0 13.454,4.746 23.186,0.492 9.739,-4.255 11.872,-11.588 11.872,-11.588 0,0 -6.425,-5.758 -8.178,-10.686 -1.752,-4.933 -0.48,-10.845 4.382,-12.689 4.86,-1.837 9.804,1.956 11.59,6.153 1.784,4.2 0.86,12.63 0.86,12.63 0,0 6.232,3.929 18.808,-1.267 12.584,-5.189 15.218,-16.692 15.218,-16.692 0,0 15.902,4.516 29.456,-5.335 13.567,-9.85 14.176,-26.367 14.176,-26.367 0,0 11.759,1.042 20.579,-9.31 8.829,-10.36 7.022,-17.505 7.022,-17.505 0,0 -8.305,-1.721 -11.747,-4.715 -3.443,-2.993 -5.523,-8.873 -2.272,-12.929 3.254,-4.057 9.273,-3.437 13.415,-0.247 4.152,3.191 7.634,11.086 7.634,11.086 0,0 7.637,0.23 14.692,-7.714 7.056,-7.942 6.704,-22.202 6.704,-22.202 0,0 15.094,-4.056 21.914,-17.751 6.82,-13.7 3.239,-25.615 3.239,-25.615 0,0 10.231,-5.317 14.249,-16.269 4.02,-10.956 0.942,-16.75 0.942,-16.75 0,0 -72.912,20.834 -163.173,-13.379 -50.109,-18.996 -81.288,-39.704 -99.145,-54.392 -0.764,0.941 -1.551,1.881 -2.39,2.78 4.287,4.397 9.83,9.856 16.49,15.912 16.848,15.308 40.681,34.331 68.481,49.073 33.57,17.772 67.426,27.195 92.848,32.144 25.426,4.967 42.274,5.457 42.322,5.457 1.497,0.048 2.693,1.315 2.656,2.818 -0.041,1.512 -1.313,2.7 -2.816,2.657 -0.224,-0.016 -69.138,-2.048 -137.57,-38.25 -39.576,-20.995 -70.929,-50.184 -86.34,-65.979 -0.711,0.625 -1.517,1.343 -2.26,1.935 l 144.813,199.317 c 0.887,1.218 0.545,2.981 -0.68,3.869 -1.229,0.892 -3.009,0.673 -3.891,-0.545 z"
     style="fill:#231f20;fill-opacity:1;fill-rule:nonzero;stroke:none"
     id="path12097" />
  <path
     d="m 451.655,386.474 c 0.247,0.917 0.48,1.971 0.684,2.895 21.744,-3.72 64.28,-8.906 108.632,-2.631 76.644,10.936 133.585,49.8 133.781,49.907 1.241,0.856 1.577,2.566 0.716,3.81 -0.848,1.247 -2.564,1.567 -3.804,0.716 -0.038,-0.02 -13.956,-9.532 -37.443,-20.454 -23.481,-10.938 -56.412,-23.215 -94.02,-28.567 -31.15,-4.417 -61.611,-3.04 -84.238,-0.552 -8.947,0.975 -16.644,2.145 -22.693,3.177 0.149,1.219 0.234,2.443 0.3,3.651 23.078,-1.381 60.478,0.187 112.179,14.276 93.133,25.375 139.871,85.089 139.871,85.089 0,0 5.9,-2.88 9.085,-14.105 3.187,-11.224 -1.967,-21.54 -1.967,-21.54 0,0 9.899,-7.536 12.444,-22.625 2.523,-15.09 -7.301,-27.243 -7.301,-27.243 0,0 8.669,-11.328 7.633,-21.901 -1.038,-10.576 -7.356,-14.875 -7.356,-14.875 0,0 -7.461,4.339 -12.689,4.483 -5.232,0.141 -10.465,-2.896 -10.711,-8.094 -0.245,-5.188 4.886,-8.717 9.428,-9.122 4.55,-0.396 12.283,3.089 12.283,3.089 0,0 5.656,-4.715 4.608,-18.283 -1.053,-13.566 -11.176,-19.629 -11.176,-19.629 0,0 9.209,-13.725 4.029,-29.664 -5.18,-15.946 -20.694,-21.626 -20.694,-21.626 0,0 4.621,-10.863 -2.498,-22.45 -7.124,-11.596 -14.48,-12.089 -14.48,-12.089 0,0 -4.206,7.367 -8.108,9.713 -3.912,2.351 -10.15,2.511 -13.005,-1.83 -2.849,-4.355 -0.4,-9.882 3.913,-12.836 4.319,-2.962 12.903,-3.836 12.903,-3.836 0,0 2.581,-7.192 -2.795,-16.359 -5.377,-9.167 -19.049,-13.232 -19.049,-13.232 0,0 0.812,-15.616 -10.102,-26.332 -10.926,-10.717 -23.364,-10.992 -23.364,-10.992 0,0 -1.898,-11.374 -11.07,-18.582 -9.177,-7.211 -15.64,-6.07 -15.64,-6.07 0,0 -2.714,75.78 -63.146,151.049 -33.556,41.791 -62.879,65.047 -82.367,77.489 0.663,1.016 1.31,2.056 1.903,3.128 5.505,-2.713 12.411,-6.3 20.227,-10.762 19.765,-11.292 45.224,-28.078 67.838,-49.965 27.271,-26.44 46.695,-55.723 59.26,-78.372 12.579,-22.648 18.253,-38.518 18.264,-38.559 0.513,-1.415 2.085,-2.163 3.507,-1.66 1.422,0.507 2.16,2.084 1.657,3.504 -0.085,0.208 -23.315,65.117 -78.893,119.015 -32.199,31.146 -69.645,51.947 -89.428,61.721 0.373,0.869 0.808,1.861 1.139,2.748 l 234.315,-76.132 c 1.433,-0.467 3.004,0.404 3.465,1.844 0.47,1.44 -0.289,3.068 -1.722,3.532 z"
     style="fill:#231f20;fill-opacity:1;fill-rule:nonzero;stroke:none"
     id="path12101" />
</svg>
