<?xml version="1.0" encoding="UTF-8" standalone="no"?>
<!-- Created with Inkscape (http://www.inkscape.org/) -->

<svg
   sodipodi:docname="Mitsuoi Ichouni Katabami.svg"
   viewBox="0 0 795.03467 793.70135"
   height="793.70135"
   width="795.03467"
   id="svg7706"
   version="1.1"
   inkscape:version="1.2 (dc2aeda, 2022-05-15)"
   xmlns:inkscape="http://www.inkscape.org/namespaces/inkscape"
   xmlns:sodipodi="http://sodipodi.sourceforge.net/DTD/sodipodi-0.dtd"
   xmlns="http://www.w3.org/2000/svg"
   xmlns:svg="http://www.w3.org/2000/svg">

  <sodipodi:namedview
     id="namedview7708"
     pagecolor="#ffffff"
     bordercolor="#000000"
     borderopacity="0.25"
     inkscape:showpageshadow="2"
     inkscape:pageopacity="0.0"
     inkscape:pagecheckerboard="0"
     inkscape:deskcolor="#d1d1d1"
     showgrid="false"
     inkscape:zoom="0.29734106"
     inkscape:cx="-827.33276"
     inkscape:cy="396.85067"
     inkscape:window-width="1419"
     inkscape:window-height="456"
     inkscape:window-x="0"
     inkscape:window-y="25"
     inkscape:window-maximized="0"
     inkscape:current-layer="svg7706">
    <inkscape:page
       x="0"
       y="0"
       id="page7712"
       width="795.03467"
       height="793.70135" />
  </sodipodi:namedview>
  <path
     d="M 420.565 396.619 C 420.565 409.715 409.952 420.335 396.848 420.335 C 383.753 420.335 373.142 409.715 373.142 396.619 C 373.142 383.526 383.753 372.906 396.848 372.906 C 409.952 372.906 420.565 383.526 420.565 396.619"
     style="fill:#000000;fill-opacity:1;fill-rule:nonzero;stroke:none"
     id="path7826" />
  <path
     d="M 396.866 261.406 L 398.419 259.927 C 408.755 250.127 422.681 244.127 438.035 244.127 C 469.851 244.185 495.591 269.922 495.636 301.731 C 495.636 322.994 484.119 341.523 466.98 351.554 C 461.447 354.799 452.735 357.64 437.049 366.198 C 430.593 369.731 425.139 373.378 420.607 376.671 C 415.723 370.864 408.746 366.882 400.843 365.875 C 401.145 363.114 401.73 359.682 402.85 356.036 C 405.415 347.7 410.119 341.932 410.119 341.932 L 396.866 328.916 L 383.615 341.932 C 383.615 341.932 388.319 347.7 390.885 356.036 C 392.005 359.682 392.587 363.114 392.893 365.875 C 384.987 366.882 378.011 370.864 373.126 376.671 C 368.597 373.378 363.143 369.731 356.686 366.198 C 340.999 357.64 332.286 354.799 326.757 351.554 C 309.618 341.523 298.098 322.994 298.098 301.731 C 298.144 269.922 323.882 244.185 355.697 244.127 C 371.053 244.127 384.981 250.127 395.311 259.927 Z"
     style="fill:#000000;fill-opacity:1;fill-rule:nonzero;stroke:none"
     id="path7830" />
  <path
     d="M 279.723 464.2 L 277.666 463.593 C 264.015 459.544 251.852 450.484 244.175 437.184 C 228.315 409.604 237.736 374.443 265.26 358.5 C 283.676 347.87 305.483 348.578 322.739 358.406 C 328.314 361.572 335.131 367.698 350.387 377.006 C 356.673 380.834 362.559 383.728 367.673 386.007 C 365.089 393.14 365.127 401.172 368.207 408.52 C 365.669 409.637 362.405 410.848 358.687 411.705 C 350.181 413.651 342.838 412.46 342.838 412.46 L 338.192 430.445 L 356.087 435.411 C 356.087 435.411 358.729 428.455 364.665 422.064 C 367.264 419.271 369.947 417.052 372.184 415.405 C 377.009 421.749 383.945 425.799 391.415 427.127 C 390.829 432.697 390.395 439.244 390.564 446.601 C 391 464.463 392.895 473.432 392.848 479.843 C 392.731 499.7 382.444 518.945 364.031 529.575 C 336.46 545.44 301.302 536.017 285.344 508.492 C 277.666 495.197 275.903 480.129 279.22 466.284 Z"
     style="fill:#000000;fill-opacity:1;fill-rule:nonzero;stroke:none"
     id="path7834" />
  <path
     d="M 513.944 464.239 L 514.449 466.324 C 517.769 480.171 516.001 495.234 508.328 508.531 C 492.371 536.056 457.209 545.479 429.639 529.614 C 411.226 518.984 400.942 499.742 400.82 479.884 C 400.775 473.468 402.672 464.504 403.106 446.638 C 403.276 439.283 402.842 432.736 402.258 427.166 C 409.727 425.838 416.663 421.788 421.487 415.447 C 423.726 417.091 426.406 419.312 429.004 422.106 C 434.942 428.494 437.584 435.452 437.584 435.452 L 455.48 430.484 L 450.837 412.499 C 450.837 412.499 443.488 413.69 434.986 411.744 C 431.27 410.892 428.003 409.676 425.466 408.559 C 428.543 401.212 428.582 393.182 425.996 386.049 C 431.114 383.767 436.999 380.873 443.286 377.045 C 458.539 367.737 465.357 361.614 470.933 358.447 C 488.189 348.619 509.996 347.909 528.412 358.539 C 555.933 374.482 565.357 409.643 549.496 437.223 C 541.817 450.52 529.657 459.583 516.004 463.632 Z"
     style="fill:#000000;fill-opacity:1;fill-rule:nonzero;stroke:none"
     id="path7838" />
  <path
     d="m 683.33198,440.77814 0.009,-0.0333 c 0.001,-0.008 0.004,-0.0187 0.005,-0.0267 z"
     style="fill:#000000;fill-opacity:1;fill-rule:nonzero;stroke:none;stroke-width:1.33333"
     id="path7842" />
  <path
     d="M 560.449 251.208 C 542.312 251.208 527.004 263.284 522.1 279.831 C 537.144 295.924 549.118 314.919 557.1 335.885 C 564.517 312.465 575.629 292.161 589.316 275.315 C 590.888 273.375 592.492 271.484 594.126 269.637 C 587.014 258.557 574.593 251.208 560.449 251.208"
     style="fill:#000000;fill-opacity:1;fill-rule:nonzero;stroke:none"
     id="path7846" />
  <path
     d="M 662.211 169.156 C 662.234 154.476 656.447 139.821 644.93 128.951 C 634.743 119.336 621.858 114.367 608.878 113.945 C 604.196 101.112 595.182 89.7762 582.459 82.3576 C 571.625 76.0402 559.642 73.4829 548.002 74.2482 C 547.755 89.8749 543.17 101.846 539.813 107.476 C 535.166 115.276 525.709 117.384 520.047 114.503 C 514.239 111.928 509.906 103.263 513.025 94.7362 C 515.25 88.6469 521.531 77.7176 533.239 67.7549 C 525.482 57.9963 514.67 50.523 501.718 47.0016 C 486.833 42.9523 471.738 44.827 458.918 51.171 C 445.401 39.199 427.633 31.919 408.158 31.919 C 390.864 31.919 374.912 37.655 362.089 47.319 C 352.925 42.0297 342.3 38.987 330.96 38.987 C 311.179 38.987 293.563 48.2083 282.137 62.5736 C 288.889 74.3856 293.48 84.5789 293.831 91.0749 C 294.197 97.8775 291.985 104.463 285.447 106.372 C 278.908 108.28 273.501 103.919 270.152 97.9868 C 266.979 92.3709 265.365 81.4549 264.691 68.0243 C 253.895 65.0083 241.985 65.8669 231.219 71.3736 C 219.004 77.6176 210.757 88.5455 207.533 100.85 C 192.74 99.4268 177.418 103.876 165.38 114.467 C 152.394 125.892 145.995 142.019 146.49 158.056 C 132.906 155.497 118.395 160.359 109.206 171.94 C 96.0004 188.58 101.987 211.436 115.427 225.987 C 155.756 269.653 230.961 292.432 314.097 246.692 C 338.632 233.143 366.841 225.429 396.85 225.429 C 442.814 225.429 484.549 243.522 515.33 272.968 C 517.759 266.965 521.346 261.556 525.822 257.022 C 507.429 239.394 489.554 224.215 470.705 212.429 C 442.662 194.913 412.548 184.731 374.616 184.707 C 366.988 184.707 359.044 185.121 350.74 185.983 C 323.025 188.849 301.457 190.183 283.865 190.183 C 255.207 190.244 234.307 185.719 220.592 180.36 C 202.851 173.429 189.391 162.571 189.982 161.249 C 190.574 159.929 204.517 167.429 223.347 173.044 C 236.756 177.043 255.904 181.455 283.865 181.517 C 301.017 181.517 322.32 180.211 349.845 177.363 C 358.428 176.471 366.672 176.039 374.616 176.039 C 414.126 176.017 446.192 186.845 475.298 205.081 C 495.125 217.492 513.626 233.272 532.478 251.394 C 537.125 248.124 542.361 245.642 548.006 244.153 C 541.661 219.141 533.257 200.58 523.502 186.433 C 511.366 168.851 497.161 157.931 481.603 149.707 C 463.643 140.224 442.406 129.431 426.85 117.088 C 413.713 106.667 404.053 93.6309 405.008 92.5855 C 405.961 91.5402 420.189 103.644 432.233 111.997 C 448.073 122.985 467.661 132.552 485.647 142.041 C 502.093 150.707 517.662 162.663 530.641 181.516 C 541.183 196.813 550.022 216.569 556.586 242.708 C 557.862 242.605 559.147 242.541 560.45 242.538 C 565.141 242.541 569.671 243.217 573.962 244.457 C 574.489 225.941 577.299 210.635 581.621 197.784 C 585.135 187.329 591.179 176.825 595.479 170.863 C 603.406 159.873 613.2 153.519 614.247 154.169 C 615.294 154.819 606.627 164.429 601.103 174.864 C 597.98 180.763 593.291 190.328 589.991 200.021 C 585.65 212.779 582.89 228.329 582.57 247.864 C 589.617 251.468 595.666 256.736 600.203 263.156 C 623.464 239.465 651.915 224.288 680.814 217.757 C 686.252 216.523 691.812 215.907 697.406 215.903 C 702.648 215.912 707.952 216.46 713.191 217.633 C 711.147 211.74 708.35 206.001 704.762 200.555 C 694.347 184.74 679.072 174.061 662.211 169.156"
     style="fill:#000000;fill-opacity:1;fill-rule:nonzero;stroke:none"
     id="path7850" />
  <path
     d="M 188.919 327.992 C 197.988 343.697 216.1 350.919 232.882 346.893 C 239.296 325.817 249.759 305.951 263.927 288.555 C 239.936 293.841 216.795 294.369 195.362 290.94 C 192.896 290.547 190.458 290.104 188.042 289.612 C 182.002 301.312 181.847 315.741 188.919 327.992"
     style="fill:#000000;fill-opacity:1;fill-rule:nonzero;stroke:none"
     id="path7854" />
  <path
     d="M 66.9792 280.89 C 54.2552 288.21 44.4566 300.549 40.8006 315.958 C 37.5673 329.587 39.7073 343.231 45.8326 354.682 C 37.0593 365.152 31.7486 378.63 31.686 393.356 C 31.6326 405.898 35.4086 417.554 41.8926 427.251 C 55.5486 419.65 68.2072 417.638 74.7632 417.728 C 83.8405 417.854 90.3951 424.988 90.7298 431.332 C 91.4045 437.65 86.0658 445.736 77.1218 447.299 C 70.7365 448.416 58.1312 448.442 43.6499 443.283 C 39.0766 454.879 38.0113 467.98 41.4379 480.957 C 45.3726 495.873 54.5446 508.009 66.4485 515.939 C 62.8392 533.632 65.4179 552.657 75.1552 569.525 C 83.8018 584.501 96.7458 595.449 111.526 601.72 C 111.528 612.301 114.206 623.025 119.876 632.848 C 129.767 649.977 146.56 660.624 164.714 663.334 C 171.567 651.582 178.1 642.509 183.551 638.957 C 189.258 635.238 196.067 633.861 200.99 638.569 C 205.911 643.277 204.839 650.141 201.375 656.006 C 198.098 661.564 189.451 668.417 178.158 675.717 C 180.943 686.577 187.642 696.46 197.794 703.032 C 209.308 710.488 222.896 712.165 235.163 708.806 C 241.328 722.326 252.841 733.373 268.033 738.501 C 284.42 744.037 301.587 741.514 315.228 733.069 C 319.804 746.11 331.269 756.246 345.893 758.415 C 366.906 761.529 383.708 744.917 389.588 726.004 C 407.238 669.244 389.362 592.725 308.184 543.597 C 284.181 529.124 263.399 508.551 248.395 482.561 C 225.412 442.756 220.213 397.567 230.324 356.187 C 223.909 357.084 217.433 356.684 211.268 355.072 C 205.199 379.816 200.991 402.884 200.208 425.103 C 199.062 458.144 205.299 489.316 224.244 522.179 C 228.059 528.785 232.389 535.457 237.287 542.217 C 253.627 564.785 265.565 582.799 274.361 598.032 C 288.744 622.821 295.276 643.184 297.492 657.741 C 300.36 676.569 297.685 693.657 296.247 693.806 C 294.808 693.954 294.331 678.126 289.78 659.014 C 286.537 645.4 280.784 626.613 266.857 602.365 C 258.283 587.512 246.499 569.717 230.271 547.304 C 225.207 540.316 220.711 533.392 216.737 526.515 C 196.963 492.307 190.308 459.124 191.548 424.799 C 192.383 401.423 196.799 377.51 203.066 352.122 C 197.912 349.734 193.143 346.439 189.032 342.297 C 170.544 360.296 158.671 376.856 151.296 392.376 C 142.136 411.679 139.784 429.439 140.44 447.026 C 141.207 467.319 142.479 491.108 139.568 510.751 C 137.112 527.34 130.652 542.223 129.27 541.92 C 127.887 541.616 131.255 523.241 132.468 508.637 C 134.063 489.423 132.555 467.676 131.78 447.356 C 131.062 428.78 133.63 409.319 143.468 388.652 C 151.447 371.874 164.134 354.34 183.49 335.587 C 182.763 334.533 182.063 333.453 181.411 332.327 C 179.067 328.262 177.39 323.999 176.316 319.663 C 160.018 328.469 145.356 333.685 132.067 336.369 C 121.255 338.551 109.138 338.57 101.824 337.827 C 88.3418 336.458 77.9432 331.153 77.9818 329.921 C 78.0218 328.69 90.6778 331.39 102.476 330.958 C 109.147 330.71 119.775 329.991 129.82 328.002 C 143.038 325.382 157.886 319.997 174.963 310.507 C 174.562 302.603 176.099 294.729 179.39 287.59 C 147.242 279.289 119.872 262.239 99.7685 240.478 C 95.9805 236.385 92.6658 231.879 89.8658 227.035 C 87.2525 222.491 85.0752 217.625 83.4725 212.501 C 79.3912 217.218 75.8192 222.51 72.8965 228.341 C 64.4072 245.267 62.7965 263.835 66.9792 280.89"
     style="fill:#000000;fill-opacity:1;fill-rule:nonzero;stroke:none"
     id="path7858" />
  <path
     d="M 441.181 611.354 C 450.249 595.649 447.445 576.351 435.568 563.833 C 414.108 568.815 391.672 569.687 369.523 566.114 C 386.097 584.25 398.125 604.023 405.872 624.302 C 406.764 626.633 407.6 628.966 408.381 631.305 C 421.534 630.687 434.108 623.605 441.181 611.354"
     style="fill:#000000;fill-opacity:1;fill-rule:nonzero;stroke:none"
     id="path7862" />
  <path
     d="M 461.359 740.51 C 474.06 747.87 489.646 750.185 504.819 745.646 C 518.238 741.63 528.984 732.958 535.839 721.926 C 549.293 724.289 563.619 722.15 576.404 714.841 C 587.292 708.614 595.497 699.518 600.656 689.054 C 587.245 681.029 579.172 671.073 575.973 665.349 C 571.543 657.425 574.445 648.18 579.772 644.718 C 584.904 640.977 594.576 641.557 600.401 648.521 C 604.561 653.492 610.887 664.396 613.66 679.515 C 625.991 677.677 637.868 672.049 647.393 662.593 C 658.344 651.729 664.268 637.718 665.182 623.445 C 682.31 617.724 697.497 605.977 707.236 589.112 C 715.882 574.136 718.89 557.45 716.934 541.516 C 726.096 536.221 734.045 528.541 739.714 518.719 C 749.605 501.589 750.428 481.724 743.698 464.647 C 730.093 464.587 718.969 463.467 713.168 460.521 C 707.094 457.437 702.497 452.229 704.113 445.612 C 705.73 438.995 712.212 436.492 719.022 436.56 C 725.473 436.62 735.733 440.683 747.701 446.813 C 755.713 438.972 760.922 428.227 761.537 416.149 C 762.237 402.448 756.896 389.844 747.853 380.902 C 756.481 368.8 760.289 353.306 757.136 337.584 C 753.736 320.626 742.968 307.022 728.832 299.43 C 737.84 288.946 740.886 273.948 735.45 260.202 C 727.642 240.443 704.856 234.199 685.534 238.566 C 627.553 251.657 570.224 305.399 568.268 400.266 C 567.735 428.289 560.311 456.573 545.304 482.563 C 522.323 522.368 485.787 549.466 444.895 561.401 C 448.88 566.505 451.772 572.316 453.459 578.458 C 477.922 571.344 500.004 563.453 519.636 553.024 C 548.827 537.495 572.703 516.505 591.689 483.669 C 595.503 477.063 599.116 469.977 602.521 462.355 C 613.896 436.92 623.527 417.573 632.323 402.339 C 646.599 377.49 660.967 361.651 672.465 352.454 C 687.337 340.555 703.473 334.328 704.321 335.5 C 705.168 336.672 691.701 344.998 677.424 358.495 C 667.256 368.11 653.861 382.487 639.828 406.67 C 631.251 421.524 621.731 440.628 610.435 465.888 C 606.915 473.765 603.167 481.123 599.196 488.003 C 579.46 522.232 554.049 544.586 523.703 560.674 C 503.043 571.641 480.124 579.77 455.004 587.038 C 455.514 592.696 455.046 598.474 453.511 604.104 C 478.344 611.114 498.622 613.12 515.751 611.745 C 537.047 610.026 553.605 603.182 568.505 593.822 C 585.699 583.01 605.664 570.016 624.131 562.713 C 639.724 556.546 655.844 554.701 656.273 556.049 C 656.701 557.398 639.105 563.669 625.848 569.92 C 608.412 578.146 590.333 590.325 573.121 601.156 C 557.395 611.068 539.257 618.573 516.44 620.385 C 497.922 621.865 476.392 619.646 450.475 612.258 C 449.924 613.414 449.338 614.562 448.688 615.69 C 446.34 619.75 443.49 623.336 440.271 626.432 C 456.043 636.146 467.892 646.234 476.862 656.401 C 484.159 664.674 490.232 675.158 493.246 681.865 C 498.8 694.223 499.406 705.882 498.32 706.466 C 497.232 707.046 493.243 694.734 486.97 684.734 C 483.422 679.081 477.484 670.237 470.738 662.532 C 461.862 652.393 449.775 642.229 433.016 632.182 C 426.372 636.484 418.784 639.089 410.956 639.81 C 419.84 671.8 418.762 704.029 409.967 732.317 C 408.316 737.646 406.071 742.77 403.276 747.614 C 400.648 752.15 397.522 756.469 393.886 760.419 C 400.011 761.595 406.38 762.043 412.891 761.658 C 431.795 760.546 448.68 752.658 461.359 740.51"
     style="fill:#000000;fill-opacity:1;fill-rule:nonzero;stroke:none"
     id="path7866" />
</svg>
