<?xml version="1.0" encoding="UTF-8" standalone="no"?>
<!-- Created with Inkscape (http://www.inkscape.org/) -->

<svg
   sodipodi:docname="Mitsuoi Ichoni Kenkatabami.svg"
   viewBox="0 0 795.03467 793.70135"
   height="793.70135"
   width="795.03467"
   id="svg171"
   version="1.1"
   inkscape:version="1.2 (dc2aeda, 2022-05-15)"
   xmlns:inkscape="http://www.inkscape.org/namespaces/inkscape"
   xmlns:sodipodi="http://sodipodi.sourceforge.net/DTD/sodipodi-0.dtd"
   xmlns="http://www.w3.org/2000/svg"
   xmlns:svg="http://www.w3.org/2000/svg">
  <defs
     id="defs12958" />
  <sodipodi:namedview
     id="namedview173"
     pagecolor="#ffffff"
     bordercolor="#000000"
     borderopacity="0.25"
     inkscape:showpageshadow="2"
     inkscape:pageopacity="0.0"
     inkscape:pagecheckerboard="0"
     inkscape:deskcolor="#d1d1d1"
     showgrid="false"
     inkscape:zoom="0.29734106"
     inkscape:cx="-827.33276"
     inkscape:cy="396.85067"
     inkscape:window-width="1419"
     inkscape:window-height="456"
     inkscape:window-x="0"
     inkscape:window-y="25"
     inkscape:window-maximized="0"
     inkscape:current-layer="svg171">
    <inkscape:page
       x="0"
       y="0"
       id="page177"
       width="795.03467"
       height="793.70135" />
  </sodipodi:namedview>
  <path
     d="m 683.33065,440.77681 0.009,-0.0307 c 10e-4,-0.0107 0.004,-0.0187 0.005,-0.0267 z"
     style="fill:#000000;fill-opacity:1;fill-rule:nonzero;stroke:none;stroke-width:1.33333"
     id="path291" />
  <path
     d="M 560.448 251.209 C 542.311 251.209 527.003 263.285 522.099 279.832 C 537.143 295.925 549.117 314.917 557.099 335.886 C 564.516 312.466 575.628 292.16 589.315 275.313 C 590.887 273.376 592.491 271.485 594.125 269.638 C 587.013 258.558 574.592 251.209 560.448 251.209"
     style="fill:#000000;fill-opacity:1;fill-rule:nonzero;stroke:none"
     id="path295" />
  <path
     d="M 662.21 169.156 C 662.233 154.476 656.446 139.821 644.929 128.951 C 634.742 119.336 621.857 114.367 608.877 113.945 C 604.195 101.112 595.181 89.7762 582.458 82.3576 C 571.624 76.0402 559.641 73.4842 548.001 74.2482 C 547.754 89.8749 543.169 101.846 539.812 107.476 C 535.165 115.276 525.708 117.384 520.046 114.503 C 514.238 111.928 509.905 103.263 513.024 94.7362 C 515.249 88.6469 521.53 77.7176 533.238 67.7549 C 525.481 57.9963 514.669 50.523 501.717 47.0016 C 486.832 42.9523 471.737 44.827 458.917 51.171 C 445.4 39.199 427.632 31.919 408.156 31.919 C 390.861 31.919 374.911 37.655 362.088 47.319 C 352.924 42.0297 342.299 38.987 330.959 38.987 C 311.178 38.987 293.562 48.2083 282.136 62.5736 C 288.888 74.3856 293.479 84.5789 293.83 91.0749 C 294.195 97.8775 291.984 104.463 285.446 106.373 C 278.906 108.28 273.5 103.919 270.151 97.9868 C 266.978 92.3709 265.364 81.4549 264.69 68.0243 C 253.894 65.0083 241.984 65.8669 231.218 71.3736 C 219.003 77.6176 210.756 88.5455 207.532 100.85 C 192.739 99.4282 177.417 103.876 165.379 114.467 C 152.393 125.892 145.994 142.019 146.489 158.056 C 132.905 155.497 118.394 160.359 109.205 171.94 C 95.9994 188.58 101.986 211.436 115.426 225.987 C 155.755 269.652 230.96 292.43 314.096 246.69 C 338.631 233.141 366.84 225.429 396.851 225.429 C 442.813 225.429 484.548 243.521 515.329 272.969 C 517.758 266.964 521.345 261.554 525.821 257.021 C 507.428 239.394 489.553 224.215 470.704 212.429 C 442.661 194.913 412.547 184.731 374.615 184.707 C 366.987 184.707 359.043 185.121 350.739 185.983 C 323.024 188.849 301.456 190.183 283.864 190.183 C 255.206 190.244 234.306 185.719 220.591 180.36 C 202.851 173.429 189.39 162.571 189.981 161.249 C 190.573 159.929 204.518 167.429 223.346 173.044 C 236.755 177.043 255.903 181.455 283.864 181.517 C 301.016 181.517 322.318 180.211 349.844 177.363 C 358.427 176.471 366.671 176.04 374.615 176.04 C 414.125 176.017 446.191 186.845 475.297 205.081 C 495.124 217.492 513.625 233.273 532.477 251.393 C 537.124 248.125 542.36 245.641 548.005 244.153 C 541.66 219.141 533.256 200.58 523.501 186.433 C 511.365 168.851 497.16 157.931 481.602 149.707 C 463.642 140.224 442.405 129.431 426.849 117.088 C 413.712 106.667 404.052 93.6309 405.007 92.5855 C 405.96 91.5402 420.188 103.644 432.232 111.997 C 448.072 122.985 467.66 132.552 485.646 142.041 C 502.092 150.707 517.661 162.663 530.64 181.516 C 541.182 196.813 550.021 216.569 556.585 242.706 C 557.861 242.605 559.146 242.54 560.449 242.54 C 565.14 242.54 569.67 243.218 573.961 244.457 C 574.488 225.941 577.298 210.635 581.62 197.784 C 585.134 187.329 591.178 176.825 595.478 170.863 C 603.405 159.873 613.199 153.519 614.246 154.169 C 615.293 154.819 606.626 164.429 601.102 174.864 C 597.979 180.763 593.29 190.328 589.99 200.021 C 585.649 212.779 582.889 228.329 582.569 247.864 C 589.616 251.469 595.665 256.737 600.202 263.156 C 623.463 239.465 651.914 224.288 680.813 217.757 C 686.251 216.523 691.811 215.907 697.405 215.903 C 702.647 215.912 707.951 216.46 713.19 217.633 C 711.146 211.74 708.349 206.001 704.761 200.555 C 694.346 184.74 679.071 174.061 662.21 169.156"
     style="fill:#000000;fill-opacity:1;fill-rule:nonzero;stroke:none"
     id="path299" />
  <path
     d="M 188.918 327.993 C 197.987 343.698 216.099 350.917 232.881 346.892 C 239.295 325.818 249.758 305.949 263.926 288.553 C 239.935 293.84 216.794 294.37 195.361 290.938 C 192.895 290.548 190.457 290.105 188.041 289.613 C 182.001 301.31 181.847 315.742 188.918 327.993"
     style="fill:#000000;fill-opacity:1;fill-rule:nonzero;stroke:none"
     id="path303" />
  <path
     d="M 66.9779 280.889 C 54.2539 288.209 44.4553 300.548 40.7993 315.96 C 37.566 329.586 39.706 343.23 45.8313 354.683 C 37.058 365.154 31.7473 378.629 31.6847 393.358 C 31.6313 405.899 35.4073 417.553 41.8913 427.25 C 55.5473 419.651 68.2059 417.639 74.7619 417.73 C 83.8392 417.855 90.3938 424.99 90.7285 431.334 C 91.4045 437.649 86.0645 445.735 77.1205 447.298 C 70.7352 448.415 58.1299 448.441 43.6486 443.282 C 39.0753 454.881 38.01 467.979 41.4366 480.959 C 45.3713 495.872 54.5433 508.008 66.4472 515.938 C 62.8379 533.631 65.4166 552.659 75.1539 569.524 C 83.8005 584.5 96.7445 595.448 111.524 601.722 C 111.527 612.303 114.204 623.027 119.875 632.847 C 129.766 649.976 146.559 660.623 164.712 663.333 C 171.566 651.581 178.099 642.508 183.55 638.956 C 189.256 635.237 196.066 633.861 200.988 638.571 C 205.91 643.279 204.838 650.14 201.374 656.008 C 198.096 661.563 189.45 668.419 178.155 675.719 C 180.942 686.576 187.64 696.461 197.792 703.031 C 209.307 710.487 222.895 712.164 235.161 708.805 C 241.327 722.328 252.84 733.372 268.032 738.503 C 284.419 744.036 301.585 741.516 315.227 733.068 C 319.803 746.112 331.268 756.248 345.892 758.414 C 366.904 761.53 383.706 744.919 389.586 726.003 C 407.237 669.245 389.36 592.724 308.183 543.596 C 284.18 529.126 263.397 508.552 248.393 482.56 C 225.411 442.755 220.212 397.566 230.321 356.186 C 223.908 357.083 217.432 356.683 211.267 355.074 C 205.198 379.818 200.988 402.886 200.207 425.102 C 199.06 458.146 205.298 489.318 224.243 522.18 C 228.057 528.784 232.388 535.459 237.285 542.219 C 253.625 564.787 265.564 582.8 274.36 598.034 C 288.743 622.82 295.275 643.185 297.491 657.74 C 300.359 676.571 297.684 693.656 296.245 693.805 C 294.807 693.953 294.329 678.128 289.777 659.013 C 286.536 645.401 280.783 626.612 266.856 602.367 C 258.281 587.514 246.497 569.716 230.269 547.303 C 225.206 540.315 220.71 533.394 216.738 526.514 C 196.962 492.307 190.307 459.123 191.547 424.798 C 192.382 401.422 196.798 377.511 203.064 352.123 C 197.911 349.735 193.142 346.441 189.031 342.296 C 170.543 360.298 158.67 376.855 151.295 392.375 C 142.135 411.678 139.783 429.441 140.439 447.025 C 141.206 467.321 142.478 491.107 139.567 510.752 C 137.111 527.339 130.651 542.224 129.268 541.919 C 127.886 541.615 131.254 523.243 132.467 508.636 C 134.062 489.422 132.554 467.678 131.779 447.355 C 131.06 428.782 133.628 409.321 143.467 388.651 C 151.444 371.875 164.132 354.342 183.488 335.589 C 182.762 334.534 182.062 333.454 181.41 332.326 C 179.066 328.264 177.388 324.001 176.315 319.665 C 160.016 328.468 145.355 333.686 132.066 336.37 C 121.254 338.553 109.136 338.572 101.822 337.826 C 88.3405 336.457 77.9419 331.152 77.9805 329.92 C 78.0205 328.689 90.6765 331.389 102.475 330.957 C 109.146 330.712 119.774 329.99 129.819 328.001 C 143.036 325.384 157.884 319.998 174.962 310.509 C 174.56 302.602 176.098 294.73 179.388 287.589 C 147.24 279.29 119.871 262.241 99.7672 240.478 C 95.9792 236.386 92.6645 231.88 89.8645 227.037 C 87.2512 222.492 85.0739 217.625 83.4712 212.5 C 79.3899 217.218 75.8179 222.509 72.8952 228.34 C 64.4046 245.269 62.7952 263.834 66.9779 280.889"
     style="fill:#000000;fill-opacity:1;fill-rule:nonzero;stroke:none"
     id="path307" />
  <path
     d="M 441.18 611.355 C 450.248 595.647 447.444 576.352 435.567 563.831 C 414.107 568.814 391.671 569.686 369.522 566.115 C 386.096 584.248 398.124 604.024 405.871 624.3 C 406.763 626.631 407.599 628.964 408.38 631.306 C 421.533 630.686 434.107 623.603 441.18 611.355"
     style="fill:#000000;fill-opacity:1;fill-rule:nonzero;stroke:none"
     id="path311" />
  <path
     d="M 461.358 740.509 C 474.059 747.869 489.645 750.184 504.818 745.648 C 518.237 741.632 528.983 732.957 535.838 721.925 C 549.292 724.29 563.618 722.149 576.403 714.84 C 587.291 708.616 595.496 699.517 600.655 689.053 C 587.244 681.028 579.171 671.072 575.972 665.348 C 571.542 657.424 574.444 648.181 579.771 644.717 C 584.903 640.976 594.575 641.556 600.4 648.52 C 604.56 653.491 610.886 664.395 613.659 679.517 C 625.99 677.678 637.867 672.051 647.392 662.595 C 658.343 651.731 664.267 637.717 665.181 623.444 C 682.309 617.725 697.496 605.979 707.235 589.111 C 715.881 574.135 718.889 557.449 716.933 541.515 C 726.095 536.223 734.044 528.54 739.713 518.72 C 749.604 501.591 750.427 481.723 743.697 464.648 C 730.092 464.588 718.968 463.466 713.167 460.523 C 707.093 457.439 702.496 452.228 704.112 445.614 C 705.729 438.996 712.211 436.494 719.021 436.562 C 725.472 436.622 735.732 440.682 747.7 446.812 C 755.712 438.971 760.921 428.226 761.536 416.15 C 762.236 402.45 756.895 389.843 747.852 380.901 C 756.48 368.799 760.288 353.307 757.135 337.586 C 753.735 320.627 742.967 307.021 728.831 299.431 C 737.839 288.945 740.885 273.95 735.449 260.201 C 727.641 240.445 704.855 234.2 685.533 238.566 C 627.552 251.658 570.223 305.401 568.267 400.265 C 567.734 428.288 560.31 456.572 545.303 482.564 C 522.322 522.37 485.786 549.465 444.894 561.4 C 448.879 566.507 451.771 572.315 453.458 578.46 C 477.921 571.345 500.003 563.455 519.635 553.023 C 548.826 537.494 572.702 516.507 591.688 483.668 C 595.502 477.064 599.115 469.976 602.52 462.354 C 613.895 436.919 623.526 417.572 632.322 402.338 C 646.598 377.489 660.966 361.65 672.464 352.455 C 687.336 340.554 703.472 334.327 704.32 335.499 C 705.167 336.671 691.7 344.999 677.423 358.497 C 667.255 368.111 653.86 382.489 639.827 406.671 C 631.25 421.526 621.73 440.627 610.434 465.887 C 606.914 473.767 603.166 481.122 599.195 488.002 C 579.459 522.231 554.048 544.585 523.702 560.676 C 503.042 571.64 480.123 579.772 455.003 587.037 C 455.513 592.695 455.045 598.473 453.51 604.105 C 478.343 611.116 498.621 613.119 515.75 611.744 C 537.046 610.028 553.604 603.184 568.504 593.821 C 585.698 583.012 605.663 570.015 624.13 562.712 C 639.723 556.548 655.843 554.7 656.272 556.048 C 656.7 557.4 639.104 563.668 625.847 569.921 C 608.411 578.145 590.332 590.324 573.12 601.157 C 557.394 611.067 539.256 618.572 516.439 620.387 C 497.921 621.867 476.391 619.645 450.474 612.259 C 449.923 613.416 449.337 614.561 448.687 615.689 C 446.339 619.752 443.489 623.337 440.27 626.433 C 456.042 636.148 467.891 646.236 476.861 656.4 C 484.158 664.673 490.231 675.157 493.245 681.864 C 498.799 694.225 499.405 705.884 498.319 706.465 C 497.231 707.045 493.242 694.736 486.969 684.733 C 483.421 679.08 477.483 670.236 470.737 662.533 C 461.861 652.395 449.774 642.228 433.015 632.184 C 426.371 636.483 418.783 639.091 410.955 639.809 C 419.839 671.801 418.761 704.028 409.966 732.318 C 408.315 737.645 406.071 742.769 403.275 747.616 C 400.647 752.152 397.521 756.47 393.885 760.421 C 400.01 761.597 406.379 762.042 412.89 761.66 C 431.794 760.548 448.679 752.657 461.358 740.509"
     style="fill:#000000;fill-opacity:1;fill-rule:nonzero;stroke:none"
     id="path315" />
  <path
     d="M 420.665 396.621 C 420.665 409.788 409.993 420.46 396.828 420.46 C 383.665 420.46 372.99 409.788 372.99 396.621 C 372.992 383.454 383.662 372.782 396.826 372.785 C 409.993 372.782 420.668 383.454 420.665 396.621"
     style="fill:#000000;fill-opacity:1;fill-rule:nonzero;stroke:none"
     id="path319" />
  <path
     d="M 367.1 383.48 C 360.787 381.337 354.191 380.761 347.824 381.616 L 347.824 368.329 L 359.332 361.683 C 361.775 367.628 365.573 373.051 370.587 377.447 C 374.5 372.1 380.007 367.999 386.408 365.832 C 383.833 337.491 374.22 310.022 358.263 286.186 C 354.433 280.598 349.324 275.754 343.068 272.139 C 320.7 259.228 292.1 266.89 279.187 289.256 C 272.447 300.931 271.312 314.3 274.948 326.253 C 262.78 329.081 251.768 336.751 245.028 348.423 C 232.116 370.789 239.78 399.389 262.144 412.303 C 268.404 415.915 275.152 417.917 281.908 418.439 C 310.529 420.341 339.124 414.933 364.955 402.991 C 364.544 400.931 364.325 398.8 364.325 396.62 C 364.325 391.944 365.321 387.501 367.1 383.48"
     style="fill:#000000;fill-opacity:1;fill-rule:nonzero;stroke:none"
     id="path323" />
  <path
     d="M 444.075 262.959 L 396.822 235.678 L 349.567 262.959 C 352.698 265.598 363.587 275.823 376.059 299.691 C 386.327 319.828 392.69 341.724 394.842 364.183 C 395.499 364.144 396.159 364.117 396.826 364.117 C 397.49 364.117 398.147 364.144 398.8 364.183 C 400.952 341.724 407.315 319.828 417.583 299.691 C 430.055 275.823 440.944 265.598 444.075 262.959"
     style="fill:#000000;fill-opacity:1;fill-rule:nonzero;stroke:none"
     id="path327" />
  <path
     d="M 400.313 428.933 C 401.614 435.474 404.412 441.474 408.336 446.561 L 396.83 453.204 L 385.321 446.561 C 389.248 441.472 392.044 435.472 393.344 428.93 C 386.757 428.217 380.452 425.498 375.376 421.037 C 352.118 437.438 333.136 459.498 320.473 485.236 C 317.549 491.345 315.907 498.193 315.907 505.417 C 315.907 531.245 336.842 552.181 362.67 552.181 C 376.149 552.183 388.294 546.479 396.83 537.354 C 405.361 546.477 417.509 552.181 430.988 552.181 C 456.814 552.181 477.751 531.242 477.751 505.417 C 477.75 498.19 476.111 491.345 473.182 485.233 C 460.521 459.496 441.54 437.436 418.282 421.037 C 416.704 422.422 414.968 423.678 413.08 424.766 C 409.029 427.108 404.682 428.464 400.313 428.933"
     style="fill:#000000;fill-opacity:1;fill-rule:nonzero;stroke:none"
     id="path331" />
  <path
     d="M 257.452 422.532 L 257.451 477.097 L 304.705 504.378 C 305.424 500.349 308.836 485.805 323.269 463.068 C 335.576 444.108 351.356 427.652 369.73 414.559 C 369.368 414.008 369.014 413.448 368.681 412.873 C 368.349 412.297 368.042 411.715 367.75 411.131 C 347.224 420.496 325.081 425.933 302.508 427.111 C 275.601 428.24 261.301 423.925 257.452 422.532"
     style="fill:#000000;fill-opacity:1;fill-rule:nonzero;stroke:none"
     id="path335" />
  <path
     d="M 423.07 377.446 C 428.083 373.047 431.879 367.626 434.325 361.683 L 445.83 368.326 L 445.831 381.615 C 439.462 380.758 432.867 381.339 426.551 383.482 C 429.227 389.542 430.026 396.363 428.701 402.99 C 454.534 414.93 483.127 420.339 511.747 418.438 C 518.502 417.915 525.254 415.915 531.51 412.301 C 553.876 399.389 561.54 370.787 548.627 348.422 C 541.887 336.749 530.876 329.082 518.707 326.251 C 522.342 314.301 521.207 300.93 514.468 289.256 C 501.552 266.889 472.953 259.228 450.587 272.14 C 444.33 275.753 439.221 280.594 435.391 286.189 C 419.433 310.022 409.819 337.49 407.249 365.831 C 409.237 366.506 411.191 367.381 413.078 368.473 C 417.13 370.81 420.479 373.894 423.07 377.446"
     style="fill:#000000;fill-opacity:1;fill-rule:nonzero;stroke:none"
     id="path339" />
  <path
     d="M 488.957 504.368 L 536.21 477.087 L 536.21 422.522 C 532.362 423.912 518.06 428.23 491.153 427.1 C 468.581 425.923 446.438 420.486 425.912 411.118 C 425.617 411.707 425.309 412.292 424.977 412.871 C 424.645 413.444 424.293 414.002 423.933 414.548 C 442.306 427.642 458.088 444.097 470.392 463.059 C 484.825 485.795 488.238 500.337 488.957 504.368"
     style="fill:#000000;fill-opacity:1;fill-rule:nonzero;stroke:none"
     id="path343" />
</svg>
