<?xml version="1.0" encoding="UTF-8" standalone="no"?>
<!-- Created with Inkscape (http://www.inkscape.org/) -->

<svg
   sodipodi:docname="Mitsuwari Ichouni Hanabishi.svg"
   viewBox="0 0 795.03467 793.70135"
   height="793.70135"
   width="795.03467"
   id="svg6723"
   version="1.1"
   inkscape:version="1.2 (dc2aeda, 2022-05-15)"
   xmlns:inkscape="http://www.inkscape.org/namespaces/inkscape"
   xmlns:sodipodi="http://sodipodi.sourceforge.net/DTD/sodipodi-0.dtd"
   xmlns="http://www.w3.org/2000/svg"
   xmlns:svg="http://www.w3.org/2000/svg">
  <defs
     id="defs13159" />
  <sodipodi:namedview
     id="namedview6725"
     pagecolor="#ffffff"
     bordercolor="#000000"
     borderopacity="0.25"
     inkscape:showpageshadow="2"
     inkscape:pageopacity="0.0"
     inkscape:pagecheckerboard="0"
     inkscape:deskcolor="#d1d1d1"
     showgrid="false"
     inkscape:zoom="0.29734106"
     inkscape:cx="-827.33276"
     inkscape:cy="396.85067"
     inkscape:window-width="1419"
     inkscape:window-height="456"
     inkscape:window-x="0"
     inkscape:window-y="25"
     inkscape:window-maximized="0"
     inkscape:current-layer="svg6723">
    <inkscape:page
       x="0"
       y="0"
       id="page6729"
       width="795.03467"
       height="793.70135" />
  </sodipodi:namedview>
  <path
     d="M 415.072 396.873 C 415.072 406.933 406.917 415.088 396.856 415.088 C 386.793 415.088 378.644 406.933 378.644 396.873 C 378.644 386.812 386.793 378.657 396.856 378.657 C 406.917 378.657 415.072 386.812 415.072 396.873"
     style="fill:#000000;fill-opacity:1;fill-rule:nonzero;stroke:none"
     id="path6843" />
  <path
     d="M 396.853 342.307 C 399.284 342.307 401.254 344.274 401.254 346.703 L 401.254 371.823 C 406.145 372.679 410.566 374.942 414.072 378.158 L 445.021 354.57 C 447.284 352.779 449.257 350.51 450.785 347.834 C 452.889 344.168 453.874 340.184 453.874 336.255 C 453.874 328.143 449.648 320.258 442.106 315.951 C 438.445 313.852 434.461 312.862 430.528 312.862 C 428.301 312.862 426.098 313.175 423.988 313.791 L 422.014 314.364 L 421.972 312.316 C 421.664 298.708 410.536 287.763 396.853 287.763 C 383.172 287.763 372.048 298.708 371.742 312.316 L 371.696 314.364 L 369.724 313.791 C 367.604 313.175 365.396 312.855 363.177 312.855 C 359.241 312.862 355.256 313.847 351.598 315.951 C 344.049 320.266 339.833 328.143 339.825 336.255 C 339.825 340.184 340.82 344.166 342.918 347.834 C 344.456 350.516 346.42 352.779 348.673 354.554 L 379.638 378.159 C 383.138 374.942 387.568 372.676 392.457 371.823 L 392.457 346.703 C 392.457 344.274 394.428 342.31 396.853 342.307"
     style="fill:#000000;fill-opacity:1;fill-rule:nonzero;stroke:none"
     id="path6847" />
  <path
     d="M 257.44 396.87 C 257.456 407.249 265.853 415.654 276.243 415.67 L 287.447 415.67 L 287.581 417.097 C 289.024 432.321 301.837 444.249 317.444 444.241 C 323.883 444.241 329.836 442.214 334.68 438.806 L 374.273 408.574 C 373.101 406.315 372.256 403.863 371.801 401.269 L 336.137 401.269 C 333.705 401.269 331.744 399.298 331.744 396.87 C 331.752 394.447 333.705 392.475 336.137 392.475 L 371.801 392.475 C 372.256 389.886 373.098 387.429 374.273 385.17 L 334.721 354.971 C 329.836 351.521 323.883 349.503 317.444 349.503 C 301.837 349.495 289.024 361.421 287.581 376.646 L 287.447 378.073 L 276.243 378.073 C 265.853 378.091 257.456 386.489 257.44 396.87"
     style="fill:#000000;fill-opacity:1;fill-rule:nonzero;stroke:none"
     id="path6851" />
  <path
     d="M 396.855 451.431 C 394.424 451.431 392.456 449.464 392.456 447.035 L 392.456 421.915 C 387.564 421.059 383.142 418.798 379.638 415.582 L 348.687 439.168 C 346.423 440.959 344.455 443.231 342.922 445.904 C 340.823 449.57 339.838 453.554 339.838 457.486 C 339.838 465.595 344.06 473.48 351.602 477.786 C 355.263 479.887 359.248 480.879 363.18 480.879 C 365.411 480.879 367.611 480.562 369.72 479.944 L 371.698 479.374 L 371.742 481.423 C 372.044 495.03 383.171 505.978 396.855 505.978 C 410.535 505.978 421.662 495.03 421.971 481.423 L 422.014 479.374 L 423.984 479.944 C 426.106 480.562 428.314 480.884 430.534 480.884 C 434.468 480.879 438.452 479.892 442.108 477.786 C 449.656 473.472 453.876 465.595 453.882 457.486 C 453.882 453.554 452.891 449.574 450.79 445.904 C 449.255 443.223 447.288 440.959 445.038 439.18 L 414.071 415.579 C 410.57 418.798 406.142 421.062 401.251 421.915 L 401.251 447.035 C 401.251 449.464 399.283 451.428 396.855 451.431"
     style="fill:#000000;fill-opacity:1;fill-rule:nonzero;stroke:none"
     id="path6855" />
  <path
     d="M 536.267 396.87 C 536.252 386.49 527.852 378.085 517.466 378.067 L 506.263 378.067 L 506.127 376.641 C 504.684 361.415 491.872 349.493 476.266 349.498 C 469.824 349.498 463.87 351.523 459.03 354.933 L 419.434 385.165 C 420.606 387.423 421.454 389.878 421.905 392.47 L 457.569 392.47 C 460.006 392.47 461.962 394.443 461.962 396.87 C 461.959 399.29 460.006 401.263 457.569 401.263 L 421.905 401.263 C 421.454 403.853 420.609 406.311 419.434 408.569 L 458.987 438.766 C 463.87 442.217 469.824 444.238 476.266 444.238 C 491.872 444.243 504.684 432.318 506.127 417.093 L 506.263 415.665 L 517.466 415.665 C 527.852 415.647 536.252 407.251 536.267 396.87"
     style="fill:#000000;fill-opacity:1;fill-rule:nonzero;stroke:none"
     id="path6859" />
  <path
     d="M 461.35 88.6381 C 493.539 77.3328 530.216 79.2368 562.467 96.9634 C 622.748 130.278 671.919 181.226 703.052 242.838 C 708.164 241.338 713.483 240.547 718.845 240.548 C 721.627 240.547 724.42 240.78 727.204 241.206 C 675.617 131.909 571.402 52.3395 447.245 35.1956 C 442.607 41.0849 439.833 48.5102 439.833 56.5888 C 439.833 71.0728 448.727 83.4714 461.35 88.6381"
     style="fill:#000000;fill-opacity:1;fill-rule:nonzero;stroke:none"
     id="path6863" />
  <path
     d="M 439.204 81.616 C 390.273 84.584 347.732 111.232 322.899 150.25 C 317.346 158.972 312.46 167.046 307.896 178.145 C 300.93 195.081 297.64 212.972 296.356 212.533 C 295.072 212.096 292.643 196.958 300.622 176.013 C 304.856 164.898 309.346 155.596 315.195 146.305 C 340.716 105.751 384.253 77.7013 434.577 73.328 C 432.839 69.1907 431.736 64.72 431.365 60.0441 C 420.016 58.8947 408.504 58.3014 396.849 58.3014 C 335.856 58.3027 278.646 74.4254 229.227 102.644 C 213.17 111.812 196.357 122.087 182.667 132.724 C 160.517 149.934 150.482 160.89 149.25 159.645 C 148.018 158.401 159.106 143.352 179.857 125.836 C 192.709 114.987 209.366 104.028 225.381 94.9146 C 275.966 66.1267 334.496 49.6827 396.849 49.6827 C 408.556 49.6827 420.125 50.2721 431.536 51.4067 C 432.293 45.0761 434.408 39.1641 437.596 33.9788 C 424.22 32.4948 410.624 31.7295 396.849 31.7295 C 276.426 31.7295 169.631 90.04 103.124 179.956 C 107.957 198.885 124.202 213.253 144.105 215.27 C 146.769 224.725 152.938 233.205 162.077 238.568 C 171.985 244.38 183.381 245.352 193.559 242.233 C 193.583 236.656 194.178 230.944 196.247 226.054 C 197.935 222.065 202.318 219.97 206.367 221.509 C 210.417 223.049 212.302 227.525 210.914 231.629 C 209.181 236.754 205.733 241.505 201.963 245.753 C 207.97 256.718 219.115 264.614 232.499 265.866 C 243.135 266.862 253.168 263.481 260.826 257.208 C 267.911 265.908 278.102 272.133 290.058 274.021 C 305.911 276.524 321.155 270.822 331.495 260.072 C 340.152 265.054 350.351 267.568 361.062 266.713 C 371.56 265.872 381.061 261.92 388.736 255.836 C 373.791 221.685 374.299 181.221 393.643 146.029 C 407.037 121.66 427.405 103.56 450.899 92.8413 C 446.329 89.8666 442.361 86.0533 439.204 81.616"
     style="fill:#000000;fill-opacity:1;fill-rule:nonzero;stroke:none"
     id="path6867" />
  <path
     d="M 97.6809 495.1 C 71.7943 472.876 55.1037 440.157 54.3303 403.368 C 53.0437 334.504 72.5783 266.449 110.37 208.679 C 106.513 205.002 103.17 200.793 100.489 196.147 C 99.0982 193.741 97.9049 191.202 96.8796 188.581 C 28.0184 287.903 11.2184 417.942 58.4477 534.037 C 65.8703 535.108 73.6876 533.797 80.6836 529.759 C 93.2249 522.517 99.5169 508.613 97.6809 495.1"
     style="fill:#000000;fill-opacity:1;fill-rule:nonzero;stroke:none"
     id="path6871" />
  <path
     d="M 102.671 517.787 C 129.706 558.68 174.055 582.199 220.263 584.199 C 230.593 584.644 240.029 584.836 251.921 583.243 C 270.073 580.806 287.211 574.708 287.472 576.039 C 287.735 577.371 275.841 587.041 253.712 590.607 C 241.971 592.495 231.669 593.259 220.699 592.839 C 172.815 591.013 126.756 567.334 97.807 525.94 C 95.0924 529.516 91.7737 532.704 87.9097 535.363 C 92.587 545.766 97.8297 556.035 103.656 566.126 C 134.156 618.948 176.724 660.429 225.869 689.12 C 241.841 698.443 259.143 707.868 275.2 714.404 C 301.18 724.98 315.685 728.193 315.224 729.882 C 314.761 731.57 296.185 729.492 270.641 720.281 C 254.82 714.573 237 705.628 221.099 696.315 C 170.876 666.901 127.37 624.435 96.1937 570.438 C 90.3404 560.3 85.067 549.982 80.3417 539.535 C 74.4817 542.042 68.3058 543.167 62.2218 542.998 C 67.6244 555.326 73.7577 567.482 80.6444 579.412 C 140.858 683.704 244.755 747.034 355.874 759.672 C 369.854 746.021 374.173 724.77 365.972 706.524 C 372.825 699.489 377.085 689.909 377.158 679.313 C 377.24 667.825 372.382 657.472 364.593 650.216 C 359.75 652.981 354.505 655.323 349.237 655.977 C 344.938 656.511 340.932 653.76 340.24 649.484 C 339.549 645.208 342.482 641.339 346.732 640.487 C 352.038 639.425 357.876 640.037 363.437 641.177 C 369.932 630.492 371.198 616.893 365.589 604.675 C 361.133 594.967 353.19 587.967 343.926 584.475 C 347.918 573.987 348.214 562.05 343.872 550.751 C 338.113 535.771 325.554 525.42 311.073 521.839 C 311.06 511.85 308.138 501.76 302.041 492.915 C 296.064 484.24 287.891 477.99 278.784 474.386 C 256.681 504.402 221.385 524.196 181.235 525.039 C 153.435 525.623 127.576 517.035 106.546 502.047 C 106.254 507.492 104.935 512.836 102.671 517.787"
     style="fill:#000000;fill-opacity:1;fill-rule:nonzero;stroke:none"
     id="path6875" />
  <path
     d="M 631.519 606.816 C 625.218 640.344 605.227 671.157 573.751 690.225 C 514.759 725.772 446.053 742.881 377.128 739.037 C 375.873 744.214 373.897 749.217 371.216 753.86 C 369.825 756.269 368.225 758.57 366.466 760.769 C 486.914 770.742 607.93 720.274 684.856 621.324 C 682.074 614.36 677.031 608.245 670.035 604.207 C 657.491 596.964 642.306 598.467 631.519 606.816"
     style="fill:#000000;fill-opacity:1;fill-rule:nonzero;stroke:none"
     id="path6879" />
  <path
     d="M 648.676 591.149 C 670.571 547.289 668.763 497.123 647.391 456.108 C 642.612 446.939 638.063 438.671 630.733 429.168 C 619.549 414.668 605.701 402.873 606.72 401.983 C 607.743 401.089 622.067 406.553 636.216 423.936 C 643.724 433.16 649.536 441.699 654.657 451.409 C 677.019 493.789 679.54 545.516 658.167 591.288 C 662.62 591.849 667.041 593.13 671.276 595.146 C 677.947 585.894 684.217 576.22 690.043 566.125 C 720.537 513.303 735.182 455.696 735.453 398.789 C 735.541 380.298 735.052 360.602 732.684 343.427 C 728.854 315.642 724.384 301.472 726.077 301.027 C 727.77 300.584 735.26 317.708 740.053 344.438 C 743.022 360.991 744.185 380.898 744.072 399.324 C 743.708 457.527 728.686 516.436 697.509 570.438 C 691.655 580.573 685.36 590.297 678.673 599.613 C 683.776 603.436 687.837 608.222 690.732 613.576 C 698.708 602.733 706.168 591.342 713.056 579.412 C 773.268 475.121 776.165 353.48 731.55 250.926 C 712.74 245.647 692.176 252.533 680.476 268.759 C 670.957 266.338 660.529 267.44 651.315 272.675 C 641.328 278.348 634.788 287.732 632.4 298.104 C 637.217 300.915 641.867 304.287 645.065 308.524 C 647.677 311.979 647.301 316.822 643.943 319.56 C 640.587 322.298 635.767 321.692 632.907 318.438 C 629.332 314.372 626.943 309.011 625.149 303.624 C 612.649 303.344 600.239 309.044 592.461 320.011 C 586.283 328.724 584.195 339.104 585.799 348.872 C 574.72 350.659 564.236 356.372 556.623 365.782 C 546.528 378.26 543.842 394.312 547.983 408.641 C 539.339 413.649 532.063 421.225 527.448 430.928 C 522.926 440.439 521.599 450.644 523.031 460.332 C 560.079 464.464 594.868 485.136 615.672 519.485 C 630.08 543.269 635.571 569.958 633.104 595.665 C 637.968 593.193 643.255 591.665 648.676 591.149"
     style="fill:#000000;fill-opacity:1;fill-rule:nonzero;stroke:none"
     id="path6883" />
</svg>
