<?xml version="1.0" encoding="UTF-8" standalone="no"?>
<!-- Created with Inkscape (http://www.inkscape.org/) -->

<svg
   sodipodi:docname="Nakawani Mitsu Ityou.svg"
   viewBox="0 0 793.70135 793.70135"
   height="793.70135"
   width="793.70135"
   id="svg10112"
   version="1.1"
   inkscape:version="1.2 (dc2aeda, 2022-05-15)"
   xmlns:inkscape="http://www.inkscape.org/namespaces/inkscape"
   xmlns:sodipodi="http://sodipodi.sourceforge.net/DTD/sodipodi-0.dtd"
   xmlns="http://www.w3.org/2000/svg"
   xmlns:svg="http://www.w3.org/2000/svg">
  <defs
     id="defs13343" />
  <sodipodi:namedview
     id="namedview10114"
     pagecolor="#ffffff"
     bordercolor="#000000"
     borderopacity="0.25"
     inkscape:showpageshadow="2"
     inkscape:pageopacity="0.0"
     inkscape:pagecheckerboard="0"
     inkscape:deskcolor="#d1d1d1"
     showgrid="false"
     inkscape:zoom="0.21024124"
     inkscape:cx="-397.1628"
     inkscape:cy="399.54102"
     inkscape:window-width="1419"
     inkscape:window-height="456"
     inkscape:window-x="0"
     inkscape:window-y="25"
     inkscape:window-maximized="0"
     inkscape:current-layer="svg10112">
    <inkscape:page
       x="0"
       y="0"
       id="page10118"
       width="793.70135"
       height="793.70135" />
  </sodipodi:namedview>
  <path
     d="m 432.54,396.592 c 0,20.083 -16.28,36.364 -36.357,36.364 -20.086,0 -36.367,-16.281 -36.367,-36.364 0,-20.084 16.281,-36.361 36.367,-36.361 20.077,0 36.357,16.277 36.357,36.361"
     style="fill:#231f20;fill-opacity:1;fill-rule:nonzero;stroke:none"
     id="path10132" />
  <path
     d="M 396.184,692.915 C 232.53,692.915 99.8861,560.23 99.8861,396.576 c 0,-163.649 132.6439,-296.298 296.2979,-296.298 163.644,0 296.298,132.649 296.298,296.298 0,163.654 -132.654,296.339 -296.298,296.339 m 0,-640.584 c -190.134,0 -344.2418,154.113 -344.2418,344.242 0,190.137 154.1078,344.287 344.2418,344.287 190.124,0 344.243,-154.15 344.243,-344.287 0,-190.129 -154.119,-344.242 -344.243,-344.242"
     style="fill:#231f20;fill-opacity:1;fill-rule:nonzero;stroke:none"
     id="path10136" />
  <path
     d="m 396.216,142.569 c 1.972,0 3.619,1.801 3.619,3.771 v 206.038 c 1.465,0.122 3.029,0.322 4.452,0.58 2.549,-10.138 12.989,-44.712 43.836,-80.644 36.691,-42.677 91.254,-66.877 91.457,-67.002 1.664,-0.73 3.604,0.01 4.346,1.673 0.732,1.651 -0.012,3.592 -1.673,4.332 -0.032,0.013 -13.336,5.938 -31.227,17.12 -17.904,11.168 -40.241,27.545 -57.918,48.153 -17.76,20.679 -28.536,40.903 -34.881,55.923 -4.427,10.502 -6.639,18.367 -7.591,22.155 1.401,0.499 3.325,1.216 4.651,1.852 11.46,-16.134 35.346,-42.867 66.791,-66.103 71.612,-52.91 158.577,-40.779 158.577,-40.779 0,0 -3.041,-11.673 -16.725,-23.532 -9.007,-7.807 -25.084,-9.579 -25.084,-9.579 0,0 0.209,-15.502 -4.564,-24.171 -6.12,-11.126 -13,-15.926 -23.881,-20.566 -8.948,-3.816 -21.273,-4.065 -21.273,-4.065 0,0 -3.647,-8.667 -7.298,-13.227 -3.649,-4.558 -10.481,-10.705 -20.07,-14.14 -10.658,-3.821 -23.262,0.458 -23.262,0.458 0,0 3.196,11.858 1.828,19.156 -1.368,7.298 -11.982,12.425 -17.788,10.49 -6.842,-2.28 -9.578,-9.121 -8.21,-16.421 1.368,-7.297 10.032,-18.244 10.032,-18.244 0,0 -1.56,-6.247 -6.739,-11.268 -7.639,-7.411 -16.988,-9.007 -28.836,-7.432 -12.38,1.643 -20.981,10.947 -20.981,10.947 0,0 -8.263,-18.7 -31.588,-18.7 -23.321,0 -31.58,18.7 -31.58,18.7 0,0 -8.607,-9.304 -20.984,-10.947 -11.849,-1.575 -21.197,0.021 -28.841,7.432 -5.175,5.021 -6.736,11.268 -6.736,11.268 0,0 8.671,10.947 10.039,18.244 1.366,7.3 -1.368,14.141 -8.211,16.421 -5.805,1.935 -16.42,-3.192 -17.787,-10.49 -1.37,-7.298 1.818,-19.156 1.818,-19.156 0,0 -12.594,-4.279 -23.263,-0.458 -9.584,3.435 -16.42,9.582 -20.065,14.14 -3.646,4.56 -7.302,13.227 -7.302,13.227 0,0 -12.32,0.249 -21.273,4.065 -10.877,4.64 -17.756,9.44 -23.881,20.566 -4.768,8.669 -4.555,24.171 -4.555,24.171 0,0 -16.082,1.772 -25.089,9.579 -13.683,11.859 -16.731,23.532 -16.731,23.532 0,0 86.969,-12.131 158.579,40.779 31.449,23.236 55.339,49.969 66.79,66.103 1.331,-0.636 3.261,-1.353 4.652,-1.852 -0.948,-3.788 -3.167,-11.653 -7.592,-22.155 -6.339,-15.02 -17.115,-35.244 -34.872,-55.923 -17.68,-20.608 -40.018,-36.985 -57.917,-48.153 -17.895,-11.182 -31.199,-17.107 -31.232,-17.12 -1.661,-0.74 -2.4,-2.681 -1.672,-4.332 0.737,-1.663 2.683,-2.403 4.345,-1.673 0.198,0.125 54.766,24.325 91.457,67.002 30.852,35.932 41.287,70.506 43.836,80.644 1.428,-0.258 2.987,-0.458 4.454,-0.58 V 146.34 c 0,-1.97 1.645,-3.771 3.613,-3.771"
     style="fill:#231f20;fill-opacity:1;fill-rule:nonzero;stroke:none"
     id="path10140" />
  <path
     d="m 176.17,523.573 c -0.983,-1.7 -0.245,-4.031 1.46,-5.016 L 356.063,415.54 c -0.624,-1.331 -1.233,-2.784 -1.721,-4.147 -10.06,2.86 -45.219,11.11 -91.758,2.36 -55.305,-10.44 -103.55,-45.593 -103.758,-45.705 -1.46,-1.076 -1.791,-3.128 -0.721,-4.599 1.062,-1.458 3.116,-1.786 4.585,-0.716 0.032,0.02 11.813,8.578 30.445,18.482 18.623,9.92 43.968,21.077 70.663,26.085 26.784,5.039 49.688,4.257 65.86,2.243 11.312,-1.42 19.232,-3.434 22.984,-4.506 -0.26,-1.458 -0.61,-3.485 -0.716,-4.953 -19.7,-1.855 -54.798,-9.176 -90.642,-24.793 -81.629,-35.56 -114.607,-116.94 -114.607,-116.94 0,0 -8.586,8.472 -12.016,26.249 -2.256,11.703 4.249,26.519 4.249,26.519 0,0 -13.533,7.567 -18.66,16.033 -6.569,10.865 -7.291,19.221 -5.868,30.964 1.176,9.659 7.12,20.456 7.12,20.456 0,0 -5.677,7.497 -7.804,12.935 -2.128,5.44 -4.031,14.428 -2.213,24.449 2.02,11.145 12.026,19.917 12.026,19.917 0,0 8.675,-8.693 15.683,-11.157 7.001,-2.465 16.751,4.167 17.975,10.163 1.448,7.061 -3.111,12.853 -10.119,15.317 -7.001,2.463 -20.813,0.432 -20.813,0.432 0,0 -4.628,4.473 -6.394,11.469 -2.597,10.32 0.696,19.219 7.987,28.689 7.611,9.899 19.969,12.699 19.969,12.699 0,0 -12.064,16.507 -0.401,36.7 11.657,20.203 31.985,18.003 31.985,18.003 0,0 -3.758,12.101 1.01,23.645 4.565,11.054 10.621,18.344 20.857,21.264 6.937,1.965 13.127,0.202 13.127,0.202 0,0 5.148,-12.978 10.786,-17.819 5.634,-4.834 12.924,-5.88 18.323,-1.102 4.574,4.062 5.446,15.82 -0.192,20.653 -5.635,4.831 -17.5,7.995 -17.5,7.995 0,0 2.597,13.055 11.235,20.375 7.766,6.586 16.505,9.429 22.278,10.317 5.772,0.876 15.105,-0.299 15.105,-0.299 0,0 6.375,10.55 14.154,16.399 9.461,7.099 17.06,10.659 29.75,10.391 9.899,-0.204 23.219,-8.136 23.219,-8.136 0,0 9.573,13.041 20.836,16.932 17.114,5.925 28.744,2.726 28.744,2.726 0,0 -53.989,-69.249 -43.968,-157.721 4.393,-38.849 15.601,-72.909 23.849,-90.895 -1.216,-0.831 -2.8,-2.143 -3.933,-3.099 -2.801,2.713 -8.509,8.565 -15.393,17.648 -9.835,13.002 -21.958,32.453 -30.992,58.161 -9.006,25.615 -12.02,53.152 -12.742,74.245 -0.737,21.081 0.787,35.565 0.791,35.596 0.193,1.819 -1.121,3.423 -2.919,3.625 -1.806,0.183 -3.418,-1.122 -3.622,-2.929 0.01,-0.235 -6.312,-59.596 12.302,-112.706 15.695,-44.687 40.414,-71.009 47.919,-78.288 -0.935,-1.104 -1.885,-2.36 -2.732,-3.565 L 181.249,524.824 c -1.711,0.984 -4.095,0.457 -5.079,-1.251"
     style="fill:#231f20;fill-opacity:1;fill-rule:nonzero;stroke:none"
     id="path10144" />
  <path
     d="m 616.154,523.636 c -0.983,1.711 -3.367,2.235 -5.077,1.252 L 432.649,421.868 c -0.84,1.206 -1.797,2.459 -2.727,3.566 7.504,7.276 32.226,33.601 47.919,78.278 18.617,53.117 12.288,112.468 12.299,112.716 -0.203,1.793 -1.812,3.109 -3.624,2.916 -1.796,-0.192 -3.1,-1.804 -2.912,-3.612 0.005,-0.031 1.522,-14.518 0.785,-35.599 -0.716,-21.09 -3.731,-48.628 -12.743,-74.242 -9.028,-25.722 -21.156,-45.162 -30.99,-58.161 -6.884,-9.083 -12.587,-14.938 -15.395,-17.654 -1.133,0.962 -2.715,2.271 -3.928,3.104 8.247,17.984 19.451,52.047 23.849,90.896 10.023,88.472 -43.967,157.721 -43.967,157.721 0,0 11.625,3.196 28.741,-2.727 11.266,-3.89 20.834,-16.932 20.834,-16.932 0,0 13.326,7.932 23.219,8.136 12.693,0.266 20.289,-3.294 29.749,-10.39 7.783,-5.85 14.154,-16.402 14.154,-16.402 0,0 9.333,1.178 15.105,0.29 5.775,-0.876 14.517,-3.719 22.278,-10.306 8.65,-7.322 11.236,-20.374 11.236,-20.374 0,0 -11.866,-3.164 -17.499,-7.998 -5.634,-4.83 -4.768,-16.591 -0.192,-20.651 5.397,-4.779 12.687,-3.731 18.327,1.1 5.639,4.833 10.782,17.819 10.782,17.819 0,0 6.188,1.766 13.126,-0.202 10.242,-2.918 16.292,-10.21 20.856,-21.261 4.768,-11.547 1.011,-23.648 1.011,-23.648 0,0 20.328,2.202 31.991,-18.003 11.662,-20.193 -0.407,-36.697 -0.407,-36.697 0,0 12.357,-2.8 19.975,-12.702 7.285,-9.47 10.577,-18.366 7.98,-28.692 -1.759,-6.99 -6.388,-11.466 -6.388,-11.466 0,0 -13.811,2.031 -20.819,-0.429 -7.001,-2.467 -11.561,-8.256 -10.112,-15.32 1.224,-5.999 10.967,-12.626 17.98,-10.166 7.003,2.47 15.672,11.163 15.672,11.163 0,0 10.005,-8.775 12.027,-19.92 1.822,-10.019 -0.087,-19.009 -2.208,-24.449 -2.127,-5.439 -7.81,-12.934 -7.81,-12.934 0,0 5.944,-10.793 7.12,-20.454 1.422,-11.742 0.706,-20.102 -5.869,-30.964 -5.12,-8.467 -18.655,-16.039 -18.655,-16.039 0,0 6.5,-14.808 4.246,-26.51 -3.427,-17.784 -12.016,-26.255 -12.016,-26.255 0,0 -32.979,81.382 -114.604,116.941 -35.839,15.617 -70.944,22.937 -90.641,24.792 -0.111,1.468 -0.454,3.495 -0.722,4.953 3.752,1.07 11.674,3.086 22.984,4.506 16.175,2.017 39.083,2.796 65.867,-2.246 26.688,-5.002 52.034,-16.158 70.661,-26.08 18.628,-9.905 30.42,-18.465 30.44,-18.484 1.476,-1.07 3.529,-0.74 4.592,0.714 1.068,1.476 0.743,3.525 -0.721,4.602 -0.214,0.11 -48.454,35.267 -103.759,45.704 -46.544,8.752 -81.704,0.5 -91.758,-2.36 -0.486,1.363 -1.095,2.819 -1.726,4.147 l 178.439,103.02 c 1.7,0.985 2.437,3.316 1.453,5.013"
     style="fill:#231f20;fill-opacity:1;fill-rule:nonzero;stroke:none"
     id="path10148" />
</svg>
