<?xml version="1.0" encoding="UTF-8" standalone="no"?>
<svg
   enable-background="new 0 0 24 24"
   height="24"
   viewBox="0 0 24 24"
   width="24"
   version="1.1"
   id="svg14"
   sodipodi:docname="fiber_dvr.svg"
   inkscape:version="1.2 (dc2aeda, 2022-05-15)"
   xmlns:inkscape="http://www.inkscape.org/namespaces/inkscape"
   xmlns:sodipodi="http://sodipodi.sourceforge.net/DTD/sodipodi-0.dtd"
   xmlns="http://www.w3.org/2000/svg"
   xmlns:svg="http://www.w3.org/2000/svg">
  <defs
     id="defs18" />
  <sodipodi:namedview
     id="namedview16"
     pagecolor="#ffffff"
     bordercolor="#000000"
     borderopacity="0.25"
     inkscape:showpageshadow="2"
     inkscape:pageopacity="0.0"
     inkscape:pagecheckerboard="0"
     inkscape:deskcolor="#d1d1d1"
     showgrid="false"
     inkscape:zoom="9.8333333"
     inkscape:cx="8.2372881"
     inkscape:cy="12"
     inkscape:window-width="1309"
     inkscape:window-height="456"
     inkscape:window-x="0"
     inkscape:window-y="25"
     inkscape:window-maximized="0"
     inkscape:current-layer="svg14" />
  <path
     id="rect2"
     style="fill:none"
     d="M 0,0 H 24 V 24 H 0 Z" />
  <path
     d="m 17.5,10.5 h 2 v 1 h -2 z m -13,0 h 2 v 3 h -2 z M 21,3 H 3 C 1.89,3 1,3.89 1,5 v 14 c 0,1.1 0.89,2 2,2 h 18 c 1.11,0 2,-0.9 2,-2 V 5 C 23,3.89 22.11,3 21,3 Z M 8,13.5 C 8,14.35 7.35,15 6.5,15 H 3 V 9 H 6.5 C 7.35,9 8,9.65 8,10.5 Z m 4.62,1.5 h -1.5 L 9.37,9 h 1.5 l 1,3.43 1,-3.43 h 1.5 z M 21,11.5 c 0,0.6 -0.4,1.15 -0.9,1.4 L 21,15 H 19.5 L 18.65,13 H 17.5 v 2 H 16 V 9 h 3.5 c 0.85,0 1.5,0.65 1.5,1.5 z"
     id="path6" />
</svg>
