<?xml version="1.0" encoding="UTF-8" standalone="no"?>
<svg
   height="24"
   viewBox="0 0 24 24"
   width="24"
   version="1.1"
   id="svg10"
   sodipodi:docname="fiber_smart_record.svg"
   inkscape:version="1.2 (dc2aeda, 2022-05-15)"
   xmlns:inkscape="http://www.inkscape.org/namespaces/inkscape"
   xmlns:sodipodi="http://sodipodi.sourceforge.net/DTD/sodipodi-0.dtd"
   xmlns="http://www.w3.org/2000/svg"
   xmlns:svg="http://www.w3.org/2000/svg">
  <defs
     id="defs14" />
  <sodipodi:namedview
     id="namedview12"
     pagecolor="#ffffff"
     bordercolor="#000000"
     borderopacity="0.25"
     inkscape:showpageshadow="2"
     inkscape:pageopacity="0.0"
     inkscape:pagecheckerboard="0"
     inkscape:deskcolor="#d1d1d1"
     showgrid="false"
     inkscape:zoom="9.8333333"
     inkscape:cx="8.2372881"
     inkscape:cy="12"
     inkscape:window-width="1309"
     inkscape:window-height="456"
     inkscape:window-x="0"
     inkscape:window-y="25"
     inkscape:window-maximized="0"
     inkscape:current-layer="svg10" />
  <path
     d="M24 24H0V0h24v24z"
     fill="none"
     id="path2" />
  <path
     id="circle4"
     d="M 17,12 A 8,8 0 0 1 9,20 8,8 0 0 1 1,12 8,8 0 0 1 9,4 8,8 0 0 1 17,12 Z" />
  <path
     d="m 17,4.26 v 2.09 c 2.33,0.82 4,3.04 4,5.65 0,2.61 -1.67,4.83 -4,5.65 v 2.09 C 20.45,18.85 23,15.73 23,12 23,8.27 20.45,5.15 17,4.26 Z"
     id="path6" />
</svg>
