<?xml version="1.0" encoding="UTF-8" standalone="no"?>
<svg
   enable-background="new 0 0 24 24"
   height="24"
   viewBox="0 0 24 24"
   width="24"
   version="1.1"
   id="svg16"
   sodipodi:docname="forward_10.svg"
   inkscape:version="1.2 (dc2aeda, 2022-05-15)"
   xmlns:inkscape="http://www.inkscape.org/namespaces/inkscape"
   xmlns:sodipodi="http://sodipodi.sourceforge.net/DTD/sodipodi-0.dtd"
   xmlns="http://www.w3.org/2000/svg"
   xmlns:svg="http://www.w3.org/2000/svg">
  <defs
     id="defs20" />
  <sodipodi:namedview
     id="namedview18"
     pagecolor="#ffffff"
     bordercolor="#000000"
     borderopacity="0.25"
     inkscape:showpageshadow="2"
     inkscape:pageopacity="0.0"
     inkscape:pagecheckerboard="0"
     inkscape:deskcolor="#d1d1d1"
     showgrid="false"
     inkscape:zoom="9.8333333"
     inkscape:cx="8.2372881"
     inkscape:cy="12"
     inkscape:window-width="1309"
     inkscape:window-height="456"
     inkscape:window-x="0"
     inkscape:window-y="25"
     inkscape:window-maximized="0"
     inkscape:current-layer="svg16" />
  <path
     id="rect2"
     style="fill:none"
     d="M 0,0 H 24 V 24 H 0 Z" />
  <path
     d="m 18,13 c 0,3.31 -2.69,6 -6,6 C 8.69,19 6,16.31 6,13 6,9.69 8.69,7 12,7 v 4 L 17,6 12,1 v 4 c -4.42,0 -8,3.58 -8,8 0,4.42 3.58,8 8,8 4.42,0 8,-3.58 8,-8 z"
     id="path6" />
  <path
     id="polygon8"
     d="m 9,12.99 1.01,-0.31 v 3.26 h 0.85 V 11.67 H 10.77 L 9,12.3 Z" />
  <path
     d="m 12.25,13.44 v 0.74 c 0,1.9 1.31,1.82 1.44,1.82 0.14,0 1.44,0.09 1.44,-1.82 v -0.74 c 0,-1.9 -1.31,-1.82 -1.44,-1.82 -0.14,0 -1.44,-0.09 -1.44,1.82 z m 2.04,-0.12 v 0.97 c 0,0.77 -0.21,1.03 -0.59,1.03 -0.38,0 -0.6,-0.26 -0.6,-1.03 v -0.97 c 0,-0.75 0.22,-1.01 0.59,-1.01 0.38,-0.01 0.6,0.26 0.6,1.01 z"
     id="path10" />
</svg>
