<?xml version="1.0" encoding="UTF-8" standalone="no"?>
<svg
   enable-background="new 0 0 24 24"
   height="24"
   viewBox="0 0 24 24"
   width="24"
   version="1.1"
   id="svg14"
   sodipodi:docname="forward_5.svg"
   inkscape:version="1.2 (dc2aeda, 2022-05-15)"
   xmlns:inkscape="http://www.inkscape.org/namespaces/inkscape"
   xmlns:sodipodi="http://sodipodi.sourceforge.net/DTD/sodipodi-0.dtd"
   xmlns="http://www.w3.org/2000/svg"
   xmlns:svg="http://www.w3.org/2000/svg">
  <defs
     id="defs18" />
  <sodipodi:namedview
     id="namedview16"
     pagecolor="#ffffff"
     bordercolor="#000000"
     borderopacity="0.25"
     inkscape:showpageshadow="2"
     inkscape:pageopacity="0.0"
     inkscape:pagecheckerboard="0"
     inkscape:deskcolor="#d1d1d1"
     showgrid="false"
     inkscape:zoom="9.8333333"
     inkscape:cx="8.2372881"
     inkscape:cy="12"
     inkscape:window-width="1309"
     inkscape:window-height="456"
     inkscape:window-x="0"
     inkscape:window-y="25"
     inkscape:window-maximized="0"
     inkscape:current-layer="svg14" />
  <path
     id="rect2"
     style="fill:none"
     d="M 0,0 H 24 V 24 H 0 Z" />
  <path
     d="m 18,13 c 0,3.31 -2.69,6 -6,6 C 8.69,19 6,16.31 6,13 6,9.69 8.69,7 12,7 v 4 L 17,6 12,1 v 4 c -4.42,0 -8,3.58 -8,8 0,4.42 3.58,8 8,8 4.42,0 8,-3.58 8,-8 z"
     id="path6" />
  <path
     d="m 12.03,15.38 c -0.44,0 -0.58,-0.31 -0.6,-0.56 h -0.84 c 0.03,0.85 0.79,1.25 1.44,1.25 0.93,0 1.44,-0.63 1.44,-1.43 0,-1.33 -0.97,-1.44 -1.3,-1.44 -0.2,0 -0.43,0.05 -0.64,0.16 l 0.11,-0.92 h 1.7 v -0.71 h -2.39 l -0.25,2.17 0.67,0.17 c 0.13,-0.13 0.28,-0.23 0.57,-0.23 0.4,0 0.69,0.23 0.69,0.75 -0.01,0.05 0.02,0.79 -0.6,0.79 z"
     id="path8" />
</svg>
