<?xml version="1.0" encoding="UTF-8" standalone="no"?>
<svg
   enable-background="new 0 0 24 24"
   height="24"
   viewBox="0 0 24 24"
   width="24"
   version="1.1"
   id="svg18"
   sodipodi:docname="replay_10.svg"
   inkscape:version="1.2 (dc2aeda, 2022-05-15)"
   xmlns:inkscape="http://www.inkscape.org/namespaces/inkscape"
   xmlns:sodipodi="http://sodipodi.sourceforge.net/DTD/sodipodi-0.dtd"
   xmlns="http://www.w3.org/2000/svg"
   xmlns:svg="http://www.w3.org/2000/svg">
  <defs
     id="defs22" />
  <sodipodi:namedview
     id="namedview20"
     pagecolor="#ffffff"
     bordercolor="#000000"
     borderopacity="0.25"
     inkscape:showpageshadow="2"
     inkscape:pageopacity="0.0"
     inkscape:pagecheckerboard="0"
     inkscape:deskcolor="#d1d1d1"
     showgrid="false"
     inkscape:zoom="9.8333333"
     inkscape:cx="5.4915254"
     inkscape:cy="12"
     inkscape:window-width="1309"
     inkscape:window-height="456"
     inkscape:window-x="0"
     inkscape:window-y="25"
     inkscape:window-maximized="0"
     inkscape:current-layer="svg18" />
  <path
     id="rect2"
     style="fill:none"
     d="M 0,0 H 24 V 24 H 0 Z" />
  <path
     d="M 11.99,5 V 1 l -5,5 5,5 V 7 c 3.31,0 6,2.69 6,6 0,3.31 -2.69,6 -6,6 -3.31,0 -6,-2.69 -6,-6 h -2 c 0,4.42 3.58,8 8,8 4.42,0 8,-3.58 8,-8 0,-4.42 -3.58,-8 -8,-8 z"
     id="path6" />
  <path
     d="m 10.89,16 h -0.85 v -3.26 l -1.01,0.31 v -0.69 l 1.77,-0.63 h 0.09 z"
     id="path8" />
  <path
     d="m 15.17,14.24 c 0,0.32 -0.03,0.6 -0.1,0.82 -0.07,0.22 -0.17,0.42 -0.29,0.57 -0.12,0.15 -0.28,0.26 -0.45,0.33 -0.17,0.07 -0.37,0.1 -0.59,0.1 -0.22,0 -0.41,-0.03 -0.59,-0.1 -0.18,-0.07 -0.33,-0.18 -0.46,-0.33 -0.13,-0.15 -0.23,-0.34 -0.3,-0.57 -0.07,-0.23 -0.11,-0.5 -0.11,-0.82 V 13.5 c 0,-0.32 0.03,-0.6 0.1,-0.82 0.07,-0.22 0.17,-0.42 0.29,-0.57 0.12,-0.15 0.28,-0.26 0.45,-0.33 0.17,-0.07 0.37,-0.1 0.59,-0.1 0.22,0 0.41,0.03 0.59,0.1 0.18,0.07 0.33,0.18 0.46,0.33 0.13,0.15 0.23,0.34 0.3,0.57 0.07,0.23 0.11,0.5 0.11,0.82 z m -0.85,-0.86 c 0,-0.19 -0.01,-0.35 -0.04,-0.48 -0.03,-0.13 -0.07,-0.23 -0.12,-0.31 -0.05,-0.08 -0.11,-0.14 -0.19,-0.17 -0.08,-0.03 -0.16,-0.05 -0.25,-0.05 -0.09,0 -0.18,0.02 -0.25,0.05 -0.07,0.03 -0.14,0.09 -0.19,0.17 -0.05,0.08 -0.09,0.18 -0.12,0.31 -0.03,0.13 -0.04,0.29 -0.04,0.48 v 0.97 c 0,0.19 0.01,0.35 0.04,0.48 0.03,0.13 0.07,0.24 0.12,0.32 0.05,0.08 0.11,0.14 0.19,0.17 0.08,0.03 0.16,0.05 0.25,0.05 0.09,0 0.18,-0.02 0.25,-0.05 0.07,-0.03 0.14,-0.09 0.19,-0.17 0.05,-0.08 0.09,-0.19 0.11,-0.32 0.02,-0.13 0.04,-0.29 0.04,-0.48 v -0.97 z"
     id="path10" />
</svg>
