<?xml version="1.0" encoding="UTF-8" standalone="no"?>
<svg
   enable-background="new 0 0 24 24"
   height="24"
   viewBox="0 0 24 24"
   width="24"
   version="1.1"
   id="svg16"
   sodipodi:docname="replay_5.svg"
   inkscape:version="1.2 (dc2aeda, 2022-05-15)"
   xmlns:inkscape="http://www.inkscape.org/namespaces/inkscape"
   xmlns:sodipodi="http://sodipodi.sourceforge.net/DTD/sodipodi-0.dtd"
   xmlns="http://www.w3.org/2000/svg"
   xmlns:svg="http://www.w3.org/2000/svg">
  <defs
     id="defs20" />
  <sodipodi:namedview
     id="namedview18"
     pagecolor="#ffffff"
     bordercolor="#000000"
     borderopacity="0.25"
     inkscape:showpageshadow="2"
     inkscape:pageopacity="0.0"
     inkscape:pagecheckerboard="0"
     inkscape:deskcolor="#d1d1d1"
     showgrid="false"
     inkscape:zoom="9.8333333"
     inkscape:cx="5.4915254"
     inkscape:cy="12"
     inkscape:window-width="1309"
     inkscape:window-height="456"
     inkscape:window-x="0"
     inkscape:window-y="25"
     inkscape:window-maximized="0"
     inkscape:current-layer="svg16" />
  <path
     id="rect2"
     style="fill:none"
     d="M 0,0 H 24 V 24 H 0 Z" />
  <path
     d="M 12,5 V 1 l -5,5 5,5 V 7 c 3.31,0 6,2.69 6,6 0,3.31 -2.69,6 -6,6 C 8.69,19 6,16.31 6,13 H 4 c 0,4.42 3.58,8 8,8 4.42,0 8,-3.58 8,-8 0,-4.42 -3.58,-8 -8,-8 z"
     id="path6" />
  <path
     d="m 10.69,13.9 0.25,-2.17 h 2.39 v 0.71 h -1.7 l -0.11,0.92 c 0.03,-0.02 0.07,-0.03 0.11,-0.05 0.04,-0.02 0.09,-0.04 0.15,-0.05 0.06,-0.01 0.12,-0.03 0.18,-0.04 0.06,-0.01 0.13,-0.02 0.2,-0.02 0.21,0 0.39,0.03 0.55,0.1 0.16,0.07 0.3,0.16 0.41,0.28 0.11,0.12 0.2,0.27 0.25,0.45 0.05,0.18 0.09,0.38 0.09,0.6 0,0.19 -0.03,0.37 -0.09,0.54 -0.06,0.17 -0.15,0.32 -0.27,0.45 -0.12,0.13 -0.27,0.24 -0.45,0.31 -0.18,0.07 -0.39,0.12 -0.64,0.12 -0.18,0 -0.36,-0.03 -0.53,-0.08 -0.17,-0.05 -0.32,-0.14 -0.46,-0.24 -0.14,-0.1 -0.24,-0.24 -0.32,-0.39 -0.08,-0.15 -0.13,-0.33 -0.13,-0.53 h 0.84 c 0.02,0.18 0.08,0.32 0.19,0.41 0.11,0.09 0.25,0.15 0.42,0.15 0.11,0 0.2,-0.02 0.27,-0.06 0.07,-0.04 0.14,-0.1 0.18,-0.17 0.04,-0.07 0.08,-0.15 0.11,-0.25 0.03,-0.1 0.03,-0.2 0.03,-0.31 0,-0.11 -0.01,-0.21 -0.04,-0.31 -0.03,-0.1 -0.07,-0.17 -0.13,-0.24 -0.06,-0.07 -0.13,-0.12 -0.21,-0.15 -0.08,-0.03 -0.19,-0.05 -0.3,-0.05 -0.08,0 -0.15,0.01 -0.2,0.02 -0.05,0.01 -0.11,0.03 -0.15,0.05 -0.04,0.02 -0.08,0.05 -0.12,0.07 -0.04,0.02 -0.07,0.06 -0.1,0.09 z"
     id="path8" />
</svg>
