<?xml version="1.0" encoding="UTF-8" standalone="no"?>
<svg
   enable-background="new 0 0 24 24"
   height="24"
   viewBox="0 0 24 24"
   width="24"
   version="1.1"
   id="svg91"
   sodipodi:docname="video_settings.svg"
   inkscape:version="1.2 (dc2aeda, 2022-05-15)"
   xmlns:inkscape="http://www.inkscape.org/namespaces/inkscape"
   xmlns:sodipodi="http://sodipodi.sourceforge.net/DTD/sodipodi-0.dtd"
   xmlns="http://www.w3.org/2000/svg"
   xmlns:svg="http://www.w3.org/2000/svg">
  <defs
     id="defs95" />
  <sodipodi:namedview
     id="namedview93"
     pagecolor="#ffffff"
     bordercolor="#000000"
     borderopacity="0.25"
     inkscape:showpageshadow="2"
     inkscape:pageopacity="0.0"
     inkscape:pagecheckerboard="0"
     inkscape:deskcolor="#d1d1d1"
     showgrid="false"
     inkscape:zoom="9.8333333"
     inkscape:cx="5.4915254"
     inkscape:cy="12"
     inkscape:window-width="1309"
     inkscape:window-height="456"
     inkscape:window-x="0"
     inkscape:window-y="25"
     inkscape:window-maximized="0"
     inkscape:current-layer="svg91" />
  <path
     id="rect77"
     style="fill:none"
     d="M 0,0 H 24 V 24 H 0 Z" />
  <path
     d="m 3,6 h 18 v 5 h 2 V 6 C 23,4.9 22.1,4 21,4 H 3 C 1.9,4 1,4.9 1,6 v 12 c 0,1.1 0.9,2 2,2 h 9 V 18 H 3 Z"
     id="path81" />
  <path
     id="polygon83"
     d="m 9,8 v 8 l 6,-4 z" />
  <path
     d="m 22.71,18.43 c 0.03,-0.29 0.04,-0.58 0.01,-0.86 l 1.07,-0.85 c 0.1,-0.08 0.12,-0.21 0.06,-0.32 L 22.82,14.61 C 22.76,14.5 22.63,14.46 22.51,14.5 L 21.23,15 C 21,14.83 20.75,14.69 20.48,14.58 l -0.2,-1.36 C 20.26,13.09 20.16,13 20.03,13 h -2.07 c -0.12,0 -0.23,0.09 -0.25,0.21 l -0.2,1.36 c -0.26,0.11 -0.51,0.26 -0.74,0.42 l -1.28,-0.5 c -0.12,-0.05 -0.25,0 -0.31,0.11 l -1.03,1.79 c -0.06,0.11 -0.04,0.24 0.06,0.32 l 1.07,0.86 c -0.03,0.29 -0.04,0.58 -0.01,0.86 l -1.07,0.85 c -0.1,0.08 -0.12,0.21 -0.06,0.32 l 1.03,1.79 c 0.06,0.11 0.19,0.15 0.31,0.11 L 16.75,21 c 0.23,0.17 0.48,0.31 0.75,0.42 l 0.2,1.36 c 0.02,0.12 0.12,0.21 0.25,0.21 h 2.07 c 0.12,0 0.23,-0.09 0.25,-0.21 l 0.2,-1.36 c 0.26,-0.11 0.51,-0.26 0.74,-0.42 l 1.28,0.5 c 0.12,0.05 0.25,0 0.31,-0.11 l 1.03,-1.79 c 0.06,-0.11 0.04,-0.24 -0.06,-0.32 z M 19,19.5 c -0.83,0 -1.5,-0.67 -1.5,-1.5 0,-0.83 0.67,-1.5 1.5,-1.5 0.83,0 1.5,0.67 1.5,1.5 0,0.83 -0.67,1.5 -1.5,1.5 z"
     id="path85" />
</svg>
