<?xml version="1.0" encoding="UTF-8" standalone="no"?>
<!-- Created with Inkscape (http://www.inkscape.org/) -->

<svg
   version="1.1"
   id="svg5785"
   width="795.03467"
   height="793.70135"
   viewBox="0 0 795.03467 793.70135"
   sodipodi:docname="Chuuwani Chuukashiwa.svg"
   inkscape:version="1.2 (dc2aeda, 2022-05-15)"
   xmlns:inkscape="http://www.inkscape.org/namespaces/inkscape"
   xmlns:sodipodi="http://sodipodi.sourceforge.net/DTD/sodipodi-0.dtd"
   xmlns="http://www.w3.org/2000/svg"
   xmlns:svg="http://www.w3.org/2000/svg">
  <defs
     id="defs5789">
    <clipPath
       clipPathUnits="userSpaceOnUse"
       id="clipPath6278">
      <path
         d="M -538.2217,577.9479 H 58.054299 V -17.328098 H -538.2217 Z"
         id="path6280"
         style="stroke-width:0.999998" />
    </clipPath>
    <clipPath
       clipPathUnits="userSpaceOnUse"
       id="clipPath6284">
      <path
         d="M -584.1943,578.9381 H 12.081705 V -16.337903 H -584.1943 Z"
         id="path6286"
         style="stroke-width:0.999998" />
    </clipPath>
    <clipPath
       clipPathUnits="userSpaceOnUse"
       id="clipPath6290">
      <path
         d="m -487.1807,371.692 h 596.276 v -595.276 h -596.276 z"
         id="path6292"
         style="stroke-width:0.999998" />
    </clipPath>
    <clipPath
       clipPathUnits="userSpaceOnUse"
       id="clipPath6296">
      <path
         d="M -528.0898,575.3815 H 68.186199 V -19.8945 H -528.0898 Z"
         id="path6298"
         style="stroke-width:0.999998" />
    </clipPath>
    <clipPath
       clipPathUnits="userSpaceOnUse"
       id="clipPath6302">
      <path
         d="M -542.9326,584.5729 H 53.343399 V -10.7031 H -542.9326 Z"
         id="path6304"
         style="stroke-width:0.999998" />
    </clipPath>
    <clipPath
       clipPathUnits="userSpaceOnUse"
       id="clipPath6308">
      <path
         d="M -540.8213,585.8483 H 55.454701 V -9.4277027 H -540.8213 Z"
         id="path6310"
         style="stroke-width:0.999998" />
    </clipPath>
    <clipPath
       clipPathUnits="userSpaceOnUse"
       id="clipPath6314">
      <path
         d="M -536.6982,584.5729 H 59.577804 V -10.7031 H -536.6982 Z"
         id="path6316"
         style="stroke-width:0.999998" />
    </clipPath>
    <clipPath
       clipPathUnits="userSpaceOnUse"
       id="clipPath6320">
      <path
         d="M -553.8975,585.8483 H 42.378504 V -9.4277027 H -553.8975 Z"
         id="path6322"
         style="stroke-width:0.999998" />
    </clipPath>
    <clipPath
       clipPathUnits="userSpaceOnUse"
       id="clipPath6326">
      <path
         d="M -548.9834,585.8522 H 47.292601 V -9.4238027 H -548.9834 Z"
         id="path6328"
         style="stroke-width:0.999998" />
    </clipPath>
    <clipPath
       clipPathUnits="userSpaceOnUse"
       id="clipPath6333">
      <path
         d="M -564.5732,585.8483 H 31.702801 V -9.4277027 H -564.5732 Z"
         id="path6335"
         style="stroke-width:0.999998" />
    </clipPath>
    <clipPath
       clipPathUnits="userSpaceOnUse"
       id="clipPath6339">
      <path
         d="M -567.7754,585.8522 H 28.500601 V -9.4238027 H -567.7754 Z"
         id="path6341"
         style="stroke-width:0.999998" />
    </clipPath>
    <clipPath
       clipPathUnits="userSpaceOnUse"
       id="clipPath6345">
      <path
         d="M -561.4131,585.8522 H 34.862903 V -9.4238027 H -561.4131 Z"
         id="path6347"
         style="stroke-width:0.999998" />
    </clipPath>
    <clipPath
       clipPathUnits="userSpaceOnUse"
       id="clipPath6351">
      <path
         d="M -572.8174,586.1354 H 23.458606 V -9.1406027 H -572.8174 Z"
         id="path6353"
         style="stroke-width:0.999998" />
    </clipPath>
    <clipPath
       clipPathUnits="userSpaceOnUse"
       id="clipPath6357">
      <path
         d="M -574.5459,585.8522 H 21.730103 V -9.4238027 H -574.5459 Z"
         id="path6359"
         style="stroke-width:0.999998" />
    </clipPath>
    <clipPath
       clipPathUnits="userSpaceOnUse"
       id="clipPath6363">
      <path
         d="M -557.0645,585.8483 H 39.211501 V -9.4277027 H -557.0645 Z"
         id="path6365"
         style="stroke-width:0.999998" />
    </clipPath>
    <clipPath
       clipPathUnits="userSpaceOnUse"
       id="clipPath6369">
      <path
         d="M -576.3691,585.5885 H 19.906905 V -9.6875027 H -576.3691 Z"
         id="path6371"
         style="stroke-width:0.999998" />
    </clipPath>
    <clipPath
       clipPathUnits="userSpaceOnUse"
       id="clipPath6375">
      <path
         d="M -531.1924,581.5885 H 65.083599 V -13.6875 H -531.1924 Z"
         id="path6377"
         style="stroke-width:0.999998" />
    </clipPath>
    <clipPath
       clipPathUnits="userSpaceOnUse"
       id="clipPath6381">
      <path
         d="M -557.4951,577.8502 H 38.780903 V -17.4258 H -557.4951 Z"
         id="path6383"
         style="stroke-width:0.999998" />
    </clipPath>
    <clipPath
       clipPathUnits="userSpaceOnUse"
       id="clipPath6387">
      <path
         d="M -568.2266,575.819 H 28.049401 V -19.457003 H -568.2266 Z"
         id="path6389"
         style="stroke-width:0.999998" />
    </clipPath>
    <clipPath
       clipPathUnits="userSpaceOnUse"
       id="clipPath6393">
      <path
         d="M -550.2637,577.3248 H 46.012306 V -17.951198 H -550.2637 Z"
         id="path6395"
         style="stroke-width:0.999998" />
    </clipPath>
    <clipPath
       clipPathUnits="userSpaceOnUse"
       id="clipPath6400">
      <path
         d="M -556.4014,578.0143 H 39.874606 V -17.2617 H -556.4014 Z"
         id="path6402"
         style="stroke-width:0.999998" />
    </clipPath>
    <clipPath
       clipPathUnits="userSpaceOnUse"
       id="clipPath6406">
      <path
         d="M -586.5449,579.5026 H 9.7311002 V -15.7734 H -586.5449 Z"
         id="path6408"
         style="stroke-width:0.999998" />
    </clipPath>
    <clipPath
       clipPathUnits="userSpaceOnUse"
       id="clipPath6412">
      <path
         d="M -545.417,584.5729 H 50.859001 V -10.7031 H -545.417 Z"
         id="path6414"
         style="stroke-width:0.999998" />
    </clipPath>
  </defs>
  <sodipodi:namedview
     id="namedview5787"
     pagecolor="#ffffff"
     bordercolor="#000000"
     borderopacity="0.25"
     inkscape:showpageshadow="2"
     inkscape:pageopacity="0.0"
     inkscape:pagecheckerboard="0"
     inkscape:deskcolor="#d1d1d1"
     showgrid="false"
     inkscape:zoom="0.29734106"
     inkscape:cx="-215.24105"
     inkscape:cy="396.85068"
     inkscape:window-width="1419"
     inkscape:window-height="456"
     inkscape:window-x="0"
     inkscape:window-y="25"
     inkscape:window-maximized="0"
     inkscape:current-layer="svg5785">
    <inkscape:page
       x="0"
       y="0"
       id="page5791"
       width="795.03467"
       height="793.70135" />
  </sodipodi:namedview>
  <path
     d="M 649.574 495.589 C 649.618 495.513 649.665 495.444 649.71 495.368 C 662.345 473.482 654.845 445.501 632.961 432.865 C 627.705 429.832 622.097 427.969 616.434 427.177 C 609.946 413.035 599.183 400.688 584.682 392.315 C 563.402 380.029 538.738 378.964 517.501 387.253 C 504.389 379.355 488.946 374.979 472.509 375.451 C 457.097 375.892 442.799 380.536 430.657 388.232 C 432.547 395.637 432.023 403.66 428.739 411.027 L 439.7 417.357 C 451.017 408.48 470.876 399.933 490.105 398.915 C 520.426 397.436 554.953 405.783 584.495 419.185 C 601.998 427.128 614.593 437.31 614.265 438.102 C 613.935 438.894 591.426 428.501 581.176 424.505 C 553.325 413.652 519.009 404.832 490.465 406.24 C 474.538 406.949 456.898 414.149 446.603 421.341 L 467.993 433.69 C 476.321 428.568 491.241 421.344 509.533 421.172 C 538.41 420.901 566.668 430.545 598.014 446.458 C 618.087 456.649 630.206 466.709 629.609 467.521 C 629.013 468.334 611.086 459.368 594.495 451.638 C 561.35 436.198 536.284 428.171 509.648 428.504 C 493.686 428.704 481.806 434.177 475.225 437.868 L 496 449.862 C 505.613 444.474 525.186 438.133 557.55 448.013 C 573.944 453.018 593.814 462.524 621.038 479.04 C 630.735 484.922 638.203 492.024 637.631 492.74 C 637.057 493.458 632.902 491.521 617.891 483.488 C 594.811 471.13 568.53 457.909 554.608 454.78 C 532.092 449.712 521.925 448.245 504.4 454.712 L 523.73 465.87 C 542.121 459.849 555.006 464.016 587.697 479.008 C 598.555 484.117 606.535 489.772 618.995 497.018 C 637.438 507.742 645.706 517.12 645.095 517.996 C 644.487 518.868 631.571 510.128 615.379 501.789 C 602.657 495.24 597.065 490.896 584.353 485.056 C 555.498 471.8 543.117 468.029 532.405 470.881 C 570.936 493.125 603.29 511.805 612.421 517.076 C 638.978 532.409 648.693 540.61 647.981 541.841 C 647.269 543.073 635.311 538.761 608.754 523.428 C 599.623 518.157 567.269 499.477 528.738 477.232 C 531.625 487.933 541.082 496.772 566.989 515.13 C 578.402 523.22 584.959 525.892 596.993 533.633 C 612.311 543.488 626.337 550.302 625.886 551.266 C 625.434 552.232 613.178 549.761 594.67 539.152 C 582.164 531.982 573.277 527.901 563.424 521.053 C 534.096 500.237 524.045 491.162 520.064 472.225 L 500.733 461.062 C 503.896 479.472 510.249 487.545 525.894 504.51 C 535.568 515.001 560.158 531.152 582.4 544.961 C 596.863 553.944 600.617 556.573 600.282 557.428 C 599.949 558.282 590.063 555.368 580.12 549.909 C 552.208 534.589 534.04 522.136 521.508 510.441 C 496.769 487.354 492.474 467.232 492.332 456.214 L 471.558 444.22 C 471.656 451.761 472.853 464.786 480.66 478.709 C 493.69 501.946 513.174 519.638 543.118 540.625 C 558.108 551.128 574.837 562.17 574.434 563.091 C 574.028 564.013 559.257 558.55 540.392 546.261 C 510.936 527.073 488.457 507.422 474.253 482.277 C 465.256 466.349 464.053 449.816 464.326 440.045 L 442.936 427.693 C 441.856 440.206 444.439 459.084 451.788 473.229 C 464.84 498.654 489.637 523.964 512.964 542.654 C 521.546 549.534 541.804 563.831 541.281 564.51 C 540.761 565.193 525.644 559.378 510.016 548.19 C 483.634 529.308 459.145 503.578 445.267 476.581 C 436.531 459.417 434.004 437.946 436.033 423.709 L 425.072 417.381 C 420.332 423.907 413.648 428.373 406.289 430.438 C 405.695 444.802 408.823 459.505 416.145 473.076 C 423.956 487.548 435.467 498.732 448.864 506.138 C 452.302 528.674 465.557 549.504 486.837 561.786 C 501.338 570.162 517.413 573.307 532.905 571.854 C 536.421 576.362 540.837 580.289 546.094 583.323 C 567.978 595.958 595.962 588.461 608.598 566.575 C 608.641 566.501 608.678 566.425 608.719 566.349 C 627.259 572.995 648.465 565.667 658.659 548.008 C 668.855 530.346 664.601 508.321 649.574 495.589 M 368.635 417.381 L 357.673 423.712 C 359.703 437.949 357.176 459.42 348.44 476.584 C 334.561 503.581 310.072 529.31 283.692 548.193 C 268.063 559.381 252.946 565.193 252.426 564.513 C 251.903 563.834 272.159 549.537 280.744 542.657 C 304.07 523.966 328.867 498.657 341.919 473.232 C 349.268 459.086 351.851 440.209 350.769 427.696 L 329.38 440.045 C 329.655 449.818 328.451 466.352 319.453 482.28 C 305.25 507.425 282.77 527.073 253.315 546.264 C 234.451 558.553 219.679 564.015 219.274 563.094 C 218.87 562.173 235.599 551.13 250.588 540.625 C 280.532 519.641 300.018 501.949 313.047 478.712 C 320.853 464.789 322.051 451.764 322.148 444.222 L 301.375 456.217 C 301.232 467.234 296.936 487.357 272.199 510.444 C 259.667 522.138 241.499 534.592 213.587 549.912 C 203.643 555.37 193.758 558.284 193.424 557.43 C 193.09 556.576 196.843 553.946 211.307 544.964 C 233.547 531.152 258.139 515.004 267.812 504.513 C 283.458 487.548 289.811 479.474 292.975 461.065 L 273.643 472.228 C 269.662 491.165 259.612 500.24 230.283 521.056 C 220.43 527.901 211.543 531.985 199.036 539.154 C 180.529 549.764 168.273 552.234 167.822 551.269 C 167.37 550.305 181.395 543.49 196.714 533.636 C 208.747 525.894 215.304 523.222 226.718 515.133 C 252.624 496.774 262.082 487.936 264.968 477.234 C 226.436 499.48 194.083 518.16 184.952 523.43 C 158.395 538.764 146.437 543.076 145.726 541.844 C 145.014 540.613 154.729 532.412 181.286 517.078 C 190.416 511.808 222.77 493.128 261.302 470.884 C 250.59 468.032 238.208 471.802 209.354 485.058 C 196.642 490.898 191.048 495.242 178.327 501.792 C 162.135 510.13 149.221 518.87 148.611 517.998 C 148.001 517.122 156.269 507.745 174.711 497.021 C 187.171 489.774 195.151 484.12 206.01 479.01 C 238.7 464.018 251.586 459.852 269.976 465.873 L 289.307 454.714 C 271.782 448.248 261.615 449.714 239.099 454.78 C 225.176 457.912 198.895 471.133 175.815 483.49 C 160.805 491.524 156.65 493.461 156.077 492.742 C 155.503 492.026 162.971 484.925 172.669 479.04 C 199.892 462.526 219.763 453.021 236.156 448.016 C 268.52 438.136 288.094 444.477 297.707 449.862 L 318.481 437.87 C 311.9 434.18 300.02 428.707 284.059 428.505 C 257.423 428.172 232.356 436.201 199.211 451.641 C 182.621 459.368 164.694 468.337 164.098 467.524 C 163.501 466.712 175.619 456.652 195.692 446.458 C 227.039 430.545 255.296 420.904 284.174 421.175 C 302.466 421.344 317.385 428.571 325.713 433.693 L 347.103 421.344 C 336.809 414.152 319.168 406.951 303.242 406.243 C 274.698 404.835 240.38 413.655 212.531 424.508 C 202.28 428.504 179.77 438.896 179.442 438.105 C 179.114 437.313 191.708 427.128 209.211 419.188 C 238.754 405.784 273.28 397.437 303.602 398.917 C 322.832 399.936 342.689 408.483 354.007 417.36 L 364.968 411.029 C 361.684 403.663 361.159 395.639 363.048 388.235 C 350.908 380.537 336.609 375.895 321.197 375.452 C 304.76 374.98 289.318 379.357 276.206 387.256 C 254.968 378.967 230.304 380.032 209.024 392.316 C 194.523 400.688 183.76 413.037 177.273 427.18 C 171.61 427.972 166.002 429.832 160.746 432.868 C 138.862 445.504 131.363 473.485 143.998 495.37 C 144.042 495.446 144.089 495.516 144.133 495.592 C 129.106 508.324 124.851 530.349 135.047 548.01 C 145.242 565.67 166.447 572.998 184.987 566.351 C 185.028 566.427 185.066 566.503 185.108 566.578 C 197.744 588.463 225.728 595.961 247.612 583.326 C 252.87 580.289 257.286 576.365 260.802 571.857 C 276.294 573.31 292.368 570.162 306.87 561.789 C 328.149 549.506 341.404 528.677 344.843 506.141 C 358.24 498.734 369.751 487.55 377.561 473.078 C 384.884 459.508 388.012 444.805 387.417 430.441 C 380.059 428.376 373.375 423.909 368.635 417.381 M 328.213 297.169 C 327.929 312.475 331.86 328.036 340.488 342.036 C 348.577 355.161 359.747 365.223 372.484 371.889 C 377.951 366.551 385.161 362.993 393.184 362.153 L 393.184 349.496 C 379.839 344.133 362.507 331.209 352.011 315.063 C 335.569 289.547 325.533 255.472 322.371 223.186 C 320.496 204.058 323.02 188.058 323.869 187.946 C 324.717 187.835 326.973 212.527 328.639 223.399 C 333.163 252.946 342.681 287.076 358.173 311.091 C 366.752 324.529 381.809 336.205 393.184 341.525 L 393.184 316.825 C 384.583 312.176 370.867 302.867 361.572 287.112 C 346.899 262.238 341.12 232.946 339.229 197.842 C 338.019 175.362 340.672 159.837 341.673 159.947 C 342.676 160.058 343.873 180.067 345.476 198.299 C 348.676 234.724 354.257 260.446 367.865 283.347 C 376.019 297.069 386.7 304.62 393.184 308.475 L 393.184 284.487 C 383.713 278.855 368.435 265.075 360.809 232.106 C 356.945 215.407 355.244 193.446 355.935 161.613 C 356.179 150.271 358.599 140.254 359.504 140.391 C 360.411 140.53 360.812 145.095 361.359 162.113 C 362.2 188.279 363.889 217.65 368.137 231.272 C 375.009 253.306 378.823 262.843 393.184 274.788 L 393.184 252.467 C 378.773 239.55 375.937 226.308 372.577 190.5 C 371.575 178.542 372.481 168.806 372.525 154.391 C 372.591 133.058 376.58 121.209 377.641 121.301 C 378.703 121.391 377.591 136.946 378.467 155.139 C 379.156 169.43 378.189 176.443 379.488 190.372 C 382.435 221.99 385.359 234.598 393.184 242.448 L 393.184 150.055 C 393.184 119.391 395.429 106.877 396.851 106.877 C 398.275 106.877 400.519 119.391 400.519 150.055 L 400.519 242.448 C 408.343 234.598 411.268 221.99 414.215 190.372 C 415.513 176.443 414.548 169.43 415.236 155.139 C 416.111 136.946 415 121.391 416.061 121.301 C 417.123 121.209 421.111 133.058 421.177 154.391 C 421.221 168.806 422.129 178.542 421.125 190.5 C 417.765 226.308 414.929 239.55 400.519 252.467 L 400.519 274.788 C 414.88 262.843 418.695 253.306 425.564 231.272 C 429.813 217.65 431.503 188.279 432.343 162.113 C 432.889 145.095 433.291 140.53 434.199 140.391 C 435.105 140.254 437.524 150.271 437.769 161.613 C 438.457 193.446 436.757 215.407 432.895 232.106 C 425.269 265.075 409.991 278.855 400.519 284.487 L 400.519 308.475 C 407.003 304.62 417.684 297.069 425.837 283.347 C 439.445 260.446 445.027 234.724 448.228 198.299 C 449.829 180.067 451.026 160.058 452.028 159.947 C 453.03 159.837 455.684 175.362 454.473 197.842 C 452.582 232.946 446.804 262.238 432.131 287.112 C 422.836 302.867 409.119 312.176 400.519 316.825 L 400.519 341.525 C 411.895 336.205 426.951 324.529 435.528 311.091 C 451.02 287.076 460.54 252.946 465.064 223.399 C 466.729 212.527 468.984 187.835 469.833 187.946 C 470.684 188.058 473.206 204.058 471.332 223.186 C 468.169 255.472 458.132 289.547 441.692 315.063 C 431.195 331.209 413.864 344.133 400.519 349.496 L 400.519 362.153 C 408.541 362.993 415.752 366.551 421.219 371.889 C 433.955 365.223 445.127 355.161 453.214 342.036 C 461.842 328.036 465.774 312.475 465.49 297.169 C 483.286 282.923 494.697 261.031 494.697 236.459 C 494.697 219.714 489.385 204.219 480.381 191.53 C 482.526 186.23 483.717 180.443 483.717 174.372 C 483.717 149.102 463.233 128.618 437.963 128.618 C 437.877 128.618 437.791 128.623 437.705 128.625 C 434.192 109.246 417.244 94.5447 396.851 94.5447 C 376.46 94.5447 359.512 109.246 355.997 128.625 C 355.911 128.623 355.827 128.618 355.74 128.618 C 330.469 128.618 309.984 149.102 309.984 174.372 C 309.984 180.443 311.176 186.23 313.323 191.53 C 304.318 204.219 299.006 219.714 299.006 236.459 C 299.006 261.031 310.416 282.923 328.213 297.169 M 424.408 396.852 C 424.408 381.633 412.069 369.295 396.851 369.295 C 381.632 369.295 369.296 381.633 369.296 396.852 C 369.296 412.071 381.632 424.407 396.851 424.407 C 412.069 424.407 424.408 412.071 424.408 396.852 M 396.851 709.823 C 224.002 709.823 83.8807 569.701 83.8807 396.852 C 83.8807 224.002 224.002 83.8794 396.851 83.8794 C 569.7 83.8794 709.825 224.002 709.825 396.852 C 709.825 569.701 569.7 709.823 396.851 709.823 M 396.851 31.7302 C 195.203 31.7302 31.7289 195.2 31.7289 396.853 C 31.7289 598.503 195.203 761.974 396.851 761.974 C 598.501 761.974 761.972 598.503 761.972 396.853 C 761.972 195.2 598.501 31.7302 396.851 31.7302"
     style="fill:#000000;fill-opacity:1;fill-rule:nonzero;stroke:none"
     id="path5905" />
</svg>
