<?xml version="1.0" encoding="UTF-8" standalone="no"?>
<!-- Created with Inkscape (http://www.inkscape.org/) -->

<svg
   version="1.1"
   id="svg6603"
   width="795.03467"
   height="793.70135"
   viewBox="0 0 795.03467 793.70135"
   sodipodi:docname="Daki Kashiwa.svg"
   inkscape:version="1.2 (dc2aeda, 2022-05-15)"
   xmlns:inkscape="http://www.inkscape.org/namespaces/inkscape"
   xmlns:sodipodi="http://sodipodi.sourceforge.net/DTD/sodipodi-0.dtd"
   xmlns="http://www.w3.org/2000/svg"
   xmlns:svg="http://www.w3.org/2000/svg">
  <defs
     id="defs6607">
    <clipPath
       clipPathUnits="userSpaceOnUse"
       id="clipPath7153">
      <path
         d="m -360.1387,564.0338 h 596.276 V -31.242203 h -596.276 z"
         id="path7155"
         style="stroke-width:0.999998" />
    </clipPath>
    <clipPath
       clipPathUnits="userSpaceOnUse"
       id="clipPath7159">
      <path
         d="m -214.0117,488.3522 h 596.276 v -595.276 h -596.276 z"
         id="path7161"
         style="stroke-width:0.999998" />
    </clipPath>
    <clipPath
       clipPathUnits="userSpaceOnUse"
       id="clipPath7165">
      <path
         d="m -381.2686,488.3522 h 596.276 v -595.276 h -596.276 z"
         id="path7167"
         style="stroke-width:0.999998" />
    </clipPath>
    <clipPath
       clipPathUnits="userSpaceOnUse"
       id="clipPath7171">
      <path
         d="m -263.9756,515.8112 h 596.276 V -79.464797 h -596.276 z"
         id="path7173"
         style="stroke-width:0.999998" />
    </clipPath>
    <clipPath
       clipPathUnits="userSpaceOnUse"
       id="clipPath7177">
      <path
         d="m -340.7119,528.8873 h 596.276 V -66.388697 h -596.276 z"
         id="path7179"
         style="stroke-width:0.999998" />
    </clipPath>
    <clipPath
       clipPathUnits="userSpaceOnUse"
       id="clipPath7183">
      <path
         d="M -561.4131,585.8522 H 34.862903 V -9.4238027 H -561.4131 Z"
         id="path7185"
         style="stroke-width:0.999998" />
    </clipPath>
    <clipPath
       clipPathUnits="userSpaceOnUse"
       id="clipPath7189">
      <path
         d="M -542.9326,584.5729 H 53.343399 V -10.7031 H -542.9326 Z"
         id="path7191"
         style="stroke-width:0.999998" />
    </clipPath>
    <clipPath
       clipPathUnits="userSpaceOnUse"
       id="clipPath7195">
      <path
         d="M -545.417,584.5729 H 50.859001 V -10.7031 H -545.417 Z"
         id="path7197"
         style="stroke-width:0.999998" />
    </clipPath>
    <clipPath
       clipPathUnits="userSpaceOnUse"
       id="clipPath7201">
      <path
         d="M -557.0645,585.8483 H 39.211501 V -9.4277027 H -557.0645 Z"
         id="path7203"
         style="stroke-width:0.999998" />
    </clipPath>
    <clipPath
       clipPathUnits="userSpaceOnUse"
       id="clipPath7207">
      <path
         d="M -548.9834,585.8522 H 47.292601 V -9.4238027 H -548.9834 Z"
         id="path7209"
         style="stroke-width:0.999998" />
    </clipPath>
    <clipPath
       clipPathUnits="userSpaceOnUse"
       id="clipPath7213">
      <path
         d="M -553.8975,585.8483 H 42.378504 V -9.4277027 H -553.8975 Z"
         id="path7215"
         style="stroke-width:0.999998" />
    </clipPath>
    <clipPath
       clipPathUnits="userSpaceOnUse"
       id="clipPath7219">
      <path
         d="M -572.8174,586.1354 H 23.458606 V -9.1406027 H -572.8174 Z"
         id="path7221"
         style="stroke-width:0.999998" />
    </clipPath>
    <clipPath
       clipPathUnits="userSpaceOnUse"
       id="clipPath7225">
      <path
         d="M -574.5459,585.8522 H 21.730103 V -9.4238027 H -574.5459 Z"
         id="path7227"
         style="stroke-width:0.999998" />
    </clipPath>
    <clipPath
       clipPathUnits="userSpaceOnUse"
       id="clipPath7231">
      <path
         d="M -576.3691,585.5885 H 19.906905 V -9.6875027 H -576.3691 Z"
         id="path7233"
         style="stroke-width:0.999998" />
    </clipPath>
    <clipPath
       clipPathUnits="userSpaceOnUse"
       id="clipPath7238">
      <path
         d="M -556.4014,578.0143 H 39.874606 V -17.2617 H -556.4014 Z"
         id="path7240"
         style="stroke-width:0.999998" />
    </clipPath>
    <clipPath
       clipPathUnits="userSpaceOnUse"
       id="clipPath7244">
      <path
         d="M -557.4951,577.8502 H 38.780903 V -17.4258 H -557.4951 Z"
         id="path7246"
         style="stroke-width:0.999998" />
    </clipPath>
    <clipPath
       clipPathUnits="userSpaceOnUse"
       id="clipPath7250">
      <path
         d="M -568.2266,575.819 H 28.049401 V -19.457003 H -568.2266 Z"
         id="path7252"
         style="stroke-width:0.999998" />
    </clipPath>
    <clipPath
       clipPathUnits="userSpaceOnUse"
       id="clipPath7256">
      <path
         d="M -528.0898,575.3815 H 68.186199 V -19.8945 H -528.0898 Z"
         id="path7258"
         style="stroke-width:0.999998" />
    </clipPath>
    <clipPath
       clipPathUnits="userSpaceOnUse"
       id="clipPath7262">
      <path
         d="M -536.6982,584.5729 H 59.577804 V -10.7031 H -536.6982 Z"
         id="path7264"
         style="stroke-width:0.999998" />
    </clipPath>
    <clipPath
       clipPathUnits="userSpaceOnUse"
       id="clipPath7268">
      <path
         d="M -586.5449,579.5026 H 9.7311002 V -15.7734 H -586.5449 Z"
         id="path7270"
         style="stroke-width:0.999998" />
    </clipPath>
    <clipPath
       clipPathUnits="userSpaceOnUse"
       id="clipPath7274">
      <path
         d="M -550.2637,577.3248 H 46.012306 V -17.951198 H -550.2637 Z"
         id="path7276"
         style="stroke-width:0.999998" />
    </clipPath>
    <clipPath
       clipPathUnits="userSpaceOnUse"
       id="clipPath7280">
      <path
         d="M -567.7754,585.8522 H 28.500601 V -9.4238027 H -567.7754 Z"
         id="path7282"
         style="stroke-width:0.999998" />
    </clipPath>
    <clipPath
       clipPathUnits="userSpaceOnUse"
       id="clipPath7286">
      <path
         d="M -531.1924,581.5885 H 65.083599 V -13.6875 H -531.1924 Z"
         id="path7288"
         style="stroke-width:0.999998" />
    </clipPath>
    <clipPath
       clipPathUnits="userSpaceOnUse"
       id="clipPath7292">
      <path
         d="M -584.1943,578.9381 H 12.081705 V -16.337903 H -584.1943 Z"
         id="path7294"
         style="stroke-width:0.999998" />
    </clipPath>
    <clipPath
       clipPathUnits="userSpaceOnUse"
       id="clipPath7298">
      <path
         d="M -538.2217,577.9479 H 58.054299 V -17.328098 H -538.2217 Z"
         id="path7300"
         style="stroke-width:0.999998" />
    </clipPath>
    <clipPath
       clipPathUnits="userSpaceOnUse"
       id="clipPath7304">
      <path
         d="M -564.5732,585.8483 H 31.702801 V -9.4277027 H -564.5732 Z"
         id="path7306"
         style="stroke-width:0.999998" />
    </clipPath>
    <clipPath
       clipPathUnits="userSpaceOnUse"
       id="clipPath7310">
      <path
         d="M -540.8213,585.8483 H 55.454701 V -9.4277027 H -540.8213 Z"
         id="path7312"
         style="stroke-width:0.999998" />
    </clipPath>
  </defs>
  <sodipodi:namedview
     id="namedview6605"
     pagecolor="#ffffff"
     bordercolor="#000000"
     borderopacity="0.25"
     inkscape:showpageshadow="2"
     inkscape:pageopacity="0.0"
     inkscape:pagecheckerboard="0"
     inkscape:deskcolor="#d1d1d1"
     showgrid="false"
     inkscape:zoom="0.29734106"
     inkscape:cx="-215.24105"
     inkscape:cy="396.85068"
     inkscape:window-width="1419"
     inkscape:window-height="456"
     inkscape:window-x="0"
     inkscape:window-y="25"
     inkscape:window-maximized="0"
     inkscape:current-layer="svg6603">
    <inkscape:page
       x="0"
       y="0"
       id="page6609"
       width="795.03467"
       height="793.70135" />
  </sodipodi:namedview>
  <path
     d="M 285.349 651.136 C 284.381 651.167 283.09 651.195 281.47 651.195 C 268.432 651.175 235.468 649.461 203.721 633.061 C 145.605 602.949 95.9628 542.7 70.8362 462.515 C 66.6562 449.174 63.7936 440.641 60.4056 420.886 C 56.2336 396.559 57.8949 380.822 58.9936 380.877 C 60.0936 380.933 62.7069 402.067 67.3575 420.634 C 71.7935 438.341 74.9695 448.263 79.0988 461.271 C 103.777 538.998 151.976 597.005 207.52 625.723 C 234.585 639.752 263.288 642.504 277.561 642.881 C 259.184 622.664 243.033 599.972 229.793 574.476 C 220.844 571.076 206.229 566.504 189.061 555.436 C 170.924 543.766 149.859 524.838 128.655 492.464 C 102.589 452.592 88.4295 399.366 83.0668 352.431 C 81.3482 337.382 80.3508 323.565 80.5202 309.87 C 80.8042 286.946 86.1482 271.754 87.5802 271.846 C 89.0108 271.936 87.2495 292.317 87.8482 309.87 C 88.2722 322.33 89.5975 337.183 91.3442 352.182 C 96.6868 398.009 110.635 449.977 135.567 487.935 C 156.227 519.455 176.377 537.439 193.533 548.492 C 205.525 556.207 216.012 560.527 224.452 563.691 C 214.791 543.239 206.963 521.052 201.291 496.967 C 190.096 486.635 176.932 475.956 164.08 457.782 C 150.88 439.117 138.103 412.655 127.553 370.574 C 119.545 338.671 116.687 309.406 116.687 283.934 C 116.692 260.458 118.311 244.36 122.2 224.094 C 127.223 197.917 136.937 183.855 138.071 183.965 C 139.204 184.077 133.007 204.113 129.46 225.241 C 126.66 241.914 124.941 260.86 124.947 283.934 C 124.947 308.788 127.744 337.366 135.567 368.561 C 145.951 409.937 158.321 435.321 170.827 453.01 C 180.032 466.03 189.351 474.947 198.315 483.096 C 193.981 460.888 191.419 437.146 190.889 411.731 C 179.575 396.219 157.173 353.745 152.777 288.873 C 152.268 281.346 152.009 273.894 152.013 266.537 C 152.004 242.382 154.801 219.118 160.797 197.068 C 166.1 177.571 173.564 159.289 184.012 141.648 C 193.304 125.964 208.933 112.055 210.821 113.059 C 211.913 113.64 200.829 127.204 190.796 145.628 C 181.687 162.352 173.923 180.284 168.783 199.165 C 162.993 220.442 160.283 242.973 160.275 266.537 C 160.275 273.702 160.523 280.964 161.02 288.32 C 164.449 339.734 179.717 376.733 190.815 396.267 C 191.012 373.335 192.569 351.749 195.295 331.435 C 190.176 317.112 186.189 295.908 186.176 271.369 C 186.176 248.494 189.672 222.777 199.16 197.368 C 206.679 177.22 215.585 160.071 224.82 145.588 C 233.408 132.113 242.246 120.203 250.113 111.344 C 266.238 93.1907 283.368 85.1481 284.614 86.0707 C 285.072 86.4067 266.196 103.536 255.812 116.795 C 248.35 126.321 240.392 136.552 231.949 149.764 C 222.956 163.841 214.263 180.553 206.9 200.258 C 197.816 224.568 194.441 249.334 194.441 271.369 C 194.433 286.404 196.021 300.17 198.392 311.598 C 208.195 256.589 226.656 211.417 249.072 174.136 C 258.444 158.548 268.506 144.336 278.912 131.359 C 290.384 117.048 302.996 103.912 314.116 92.7267 C 332.752 73.9801 346.646 67.3148 347.754 68.2721 C 348.864 69.2281 334.61 81.4161 319.214 97.7347 C 308.96 108.605 297.364 121.652 285.964 135.779 C 275.842 148.325 266.05 162.044 256.918 177.085 C 233.381 215.846 214.224 263.413 204.999 322.325 C 241.605 296.881 284.588 257.096 310.85 211.082 C 321.366 192.628 325.988 182.551 332.468 163.484 C 338.949 144.417 342.6 115.024 344.181 114.849 C 345.765 114.672 347.004 143.385 340.192 164.853 C 335.424 179.879 329.104 195.841 318.021 215.182 C 289.266 265.445 242.094 307.646 203.387 333.401 C 200.583 354.642 199.048 377.309 199.037 401.517 C 199.037 402.327 199.061 403.115 199.067 403.923 C 231.172 388.842 261.612 367.559 295.778 324.586 C 314.585 300.934 329.466 268.136 338.318 245.098 C 348.588 218.366 352.611 201.494 353.905 201.392 C 355.197 201.292 353.407 222.634 345.413 247.162 C 336.766 273.688 322.012 304.804 302.25 329.725 C 266.29 375.049 233.432 397.423 199.184 412.971 C 199.843 439.766 202.784 464.583 207.685 487.636 C 245.189 459.776 267.082 441.475 299.46 394.225 C 319.668 364.679 331.32 346.698 340.766 331.107 C 351.756 312.972 356.746 295.884 358.243 295.889 C 359.741 295.896 356.299 315.726 346.6 335.082 C 336.517 355.207 326.342 369.579 306.276 398.889 C 272.71 448.021 249.048 467.363 209.673 496.448 C 215.599 521.227 223.861 543.887 234.086 564.662 C 273.465 531.815 290.897 512.84 315.832 470.48 C 331.694 443.463 341.184 419.989 347.689 404.719 C 354.921 387.746 357.241 373.706 358.698 373.771 C 360.154 373.837 360.285 389.954 354.918 406.338 C 349.55 422.723 339.365 446.747 322.96 474.664 C 297.488 518.106 278.554 538.514 237.933 572.216 C 251.509 597.985 268.162 620.768 287.144 641.023 C 287.337 640.827 287.504 640.664 287.714 640.447 C 289.984 638.135 293.225 634.687 297.105 630.176 C 304.86 621.163 315.136 607.916 325.157 591.092 C 332.098 579.49 337.662 565.69 342.053 551.363 C 347.737 532.819 350.79 519.119 355.041 496.69 C 358.769 477.016 359.293 461.235 360.343 460.914 C 361.394 460.594 364.01 473.814 361.895 497.223 C 360.145 516.612 356.03 533.794 350.249 552.823 C 345.657 567.938 339.752 582.662 332.254 595.315 C 316.21 622.261 299.569 640.237 292.869 646.988 C 297.384 651.577 302.002 656.051 306.752 660.379 C 315.205 668.081 324.026 675.36 333.142 682.275 C 336.674 679.14 341.197 677.468 345.738 677.481 C 349.125 677.475 352.582 678.404 355.557 680.223 C 355.57 680.211 355.585 680.196 355.598 680.18 C 357.454 678.035 359.397 675.695 361.511 673.088 C 379.369 651.191 390.089 623.243 390.089 592.784 C 390.089 567.652 382.769 544.243 370.191 524.514 C 382.679 507.927 390.089 487.296 390.089 464.931 C 390.089 440.462 381.207 418.075 366.514 400.781 C 381.207 383.485 390.089 361.102 390.089 336.63 C 390.089 313.709 382.293 292.622 369.233 275.828 C 382.327 258.405 390.089 236.749 390.089 213.276 C 390.089 191.137 383.167 170.628 371.397 153.747 C 390.59 116.325 391.827 73.7734 390.089 32.0949 L 390.089 32.0922 C 334.405 32.8749 277.393 43.6149 244.217 91.8361 C 214.811 89.3667 184.479 98.2614 160.392 119.081 C 137.843 138.568 124.845 164.981 121.783 192.437 C 94.8695 204.909 72.3642 227.096 60.0562 256.633 C 48.2829 284.901 47.8896 315.05 56.7242 342.03 C 39.4803 366.586 30.5536 397.163 33.6616 429.37 C 36.6976 460.85 50.7056 488.619 71.5202 509.283 C 66.5602 536.227 71.4575 565.038 87.5362 589.844 C 101.159 610.861 120.684 625.744 142.525 633.735 C 159.577 683.868 207.019 719.953 262.918 719.953 C 284.574 719.953 310.277 711.169 325.074 704.083 C 325.968 703.655 326.874 703.179 327.781 702.681 C 327.09 700.68 326.725 698.581 326.73 696.477 C 326.728 693.94 327.257 691.369 328.296 688.957 C 318.946 681.875 309.882 674.401 301.189 666.487 C 295.758 661.549 290.484 656.421 285.349 651.136"
     style="fill:#000000;fill-opacity:1;fill-rule:nonzero;stroke:none"
     id="path6723" />
  <path
     d="M 454.283 705.183 C 422.986 726.822 388.999 744.422 354.166 759.114 C 340.369 757.506 326.805 755.147 313.523 752.044 C 358.515 735.478 402.622 714.762 441.742 687.748 C 446.567 684.296 453.267 685.419 456.712 690.251 C 460.144 695.054 459.05 701.723 454.283 705.183"
     style="fill:#000000;fill-opacity:1;fill-rule:nonzero;stroke:none"
     id="path6727" />
  <path
     d="M 508.358 651.136 C 509.325 651.167 510.617 651.195 512.235 651.195 C 525.277 651.175 558.239 649.461 589.986 633.061 C 648.103 602.949 697.744 542.7 722.871 462.515 C 727.051 449.174 729.915 440.641 733.301 420.886 C 737.473 396.559 735.813 380.822 734.715 380.877 C 733.615 380.933 731 402.067 726.349 420.634 C 721.913 438.341 718.737 448.263 714.608 461.271 C 689.928 538.998 641.73 597.005 586.188 625.723 C 559.122 639.752 530.421 642.504 516.147 642.881 C 534.523 622.664 550.674 599.972 563.913 574.476 C 572.863 571.076 587.478 566.504 604.647 555.436 C 622.783 543.766 643.85 524.838 665.051 492.464 C 691.118 452.592 705.276 399.366 710.639 352.431 C 712.357 337.382 713.355 323.565 713.185 309.87 C 712.904 286.946 707.558 271.754 706.128 271.846 C 704.696 271.936 706.459 292.317 705.86 309.87 C 705.436 322.33 704.11 337.183 702.363 352.182 C 697.019 398.009 683.071 449.977 658.139 487.935 C 637.48 519.455 617.33 537.439 600.175 548.492 C 588.18 556.207 577.695 560.527 569.255 563.691 C 578.916 543.239 586.744 521.052 592.415 496.967 C 603.611 486.635 616.775 475.956 629.627 457.782 C 642.827 439.117 655.604 412.655 666.154 370.574 C 674.16 338.671 677.02 309.406 677.02 283.934 C 677.015 260.458 675.396 244.36 671.507 224.094 C 666.484 197.917 656.77 183.855 655.636 183.965 C 654.503 184.077 660.7 204.113 664.248 225.241 C 667.048 241.914 668.764 260.86 668.759 283.934 C 668.759 308.788 665.962 337.366 658.139 368.561 C 647.756 409.937 635.386 435.321 622.88 453.01 C 613.675 466.03 604.355 474.947 595.392 483.096 C 599.724 460.888 602.288 437.146 602.819 411.731 C 614.131 396.219 636.532 353.745 640.928 288.873 C 641.439 281.346 641.699 273.894 641.694 266.537 C 641.704 242.382 638.907 219.118 632.91 197.068 C 627.608 177.571 620.144 159.289 609.694 141.648 C 600.404 125.964 584.772 112.055 582.886 113.059 C 581.794 113.64 592.878 127.204 602.912 145.628 C 612.019 162.352 619.784 180.284 624.923 199.165 C 630.714 220.442 633.426 242.973 633.434 266.537 C 633.434 273.702 633.183 280.964 632.687 288.32 C 629.258 339.734 613.988 376.733 602.894 396.267 C 602.695 373.335 601.138 351.749 598.412 331.435 C 603.531 317.112 607.516 295.908 607.53 271.369 C 607.53 248.494 604.035 222.777 594.548 197.368 C 587.03 177.22 578.123 160.071 568.889 145.588 C 560.301 132.113 551.459 120.203 543.593 111.344 C 527.467 93.1907 510.339 85.1481 509.093 86.0707 C 508.635 86.4067 527.511 103.536 537.897 116.795 C 545.357 126.321 553.317 136.552 561.758 149.764 C 570.751 163.841 579.446 180.553 586.806 200.258 C 595.891 224.568 599.267 249.334 599.267 271.369 C 599.275 286.404 597.686 300.17 595.314 311.598 C 585.511 256.589 567.051 211.417 544.635 174.136 C 535.263 158.548 525.202 144.336 514.795 131.359 C 503.323 117.048 490.71 103.912 479.591 92.7267 C 460.955 73.9801 447.061 67.3148 445.951 68.2721 C 444.843 69.2281 459.097 81.4161 474.491 97.7347 C 484.747 108.605 496.343 121.652 507.743 135.779 C 517.865 148.325 527.655 162.044 536.79 177.085 C 560.325 215.846 579.483 263.413 588.707 322.325 C 552.101 296.881 509.119 257.096 482.855 211.082 C 472.339 192.628 467.719 182.551 461.239 163.484 C 454.759 144.417 451.107 115.024 449.525 114.849 C 447.941 114.672 446.702 143.385 453.517 164.853 C 458.282 179.879 464.603 195.841 475.686 215.182 C 504.441 265.445 551.613 307.646 590.322 333.401 C 593.126 354.642 594.659 377.309 594.67 401.517 C 594.67 402.327 594.646 403.115 594.642 403.923 C 562.535 388.842 532.095 367.559 497.929 324.586 C 479.121 300.934 464.241 268.136 455.389 245.098 C 445.119 218.366 441.096 201.494 439.802 201.392 C 438.509 201.292 440.3 222.634 448.293 247.162 C 456.941 273.688 471.695 304.804 491.457 329.725 C 527.417 375.049 560.275 397.423 594.523 412.971 C 593.866 439.766 590.923 464.583 586.022 487.636 C 548.518 459.776 526.626 441.475 494.247 394.225 C 474.041 364.679 462.389 346.698 452.941 331.107 C 441.951 312.972 436.96 295.884 435.462 295.889 C 433.965 295.896 437.408 315.726 447.106 335.082 C 457.191 355.207 467.366 369.579 487.431 398.889 C 520.997 448.021 544.658 467.363 584.034 496.448 C 578.108 521.227 569.845 543.887 559.621 564.662 C 520.242 531.815 502.81 512.84 477.877 470.48 C 462.011 443.463 452.523 419.989 446.018 404.719 C 438.785 387.746 436.468 373.706 435.009 373.771 C 433.553 373.837 433.421 389.954 438.789 406.338 C 444.157 422.723 454.342 446.747 470.749 474.664 C 496.218 518.106 515.153 538.514 555.774 572.216 C 542.199 597.985 525.546 620.768 506.563 641.023 C 506.37 640.827 506.205 640.664 505.993 640.447 C 503.722 638.135 500.481 634.687 496.602 630.176 C 488.847 621.163 478.571 607.916 468.551 591.092 C 461.607 579.49 456.046 565.69 451.654 551.363 C 445.97 532.819 442.917 519.119 438.665 496.69 C 434.94 477.016 434.414 461.235 433.364 460.914 C 432.313 460.594 429.697 473.814 431.812 497.223 C 433.561 516.612 437.677 533.794 443.457 552.823 C 448.051 567.938 453.957 582.662 461.451 595.315 C 477.497 622.261 494.137 640.237 500.837 646.988 C 496.323 651.577 491.705 656.051 486.957 660.379 C 478.501 668.081 469.681 675.36 460.565 682.275 C 457.033 679.14 452.51 677.468 447.967 677.481 C 444.582 677.475 441.126 678.404 438.15 680.223 C 438.137 680.211 438.122 680.196 438.109 680.18 C 436.254 678.035 434.312 675.695 432.194 673.088 C 414.338 651.191 403.618 623.243 403.618 592.784 C 403.618 567.652 410.937 544.243 423.517 524.514 C 411.028 507.927 403.618 487.296 403.618 464.931 C 403.618 440.462 412.501 418.075 427.192 400.781 C 412.501 383.485 403.618 361.102 403.618 336.63 C 403.618 313.709 411.416 292.622 424.476 275.828 C 411.38 258.405 403.618 236.749 403.618 213.276 C 403.618 191.137 410.541 170.628 422.309 153.747 C 403.118 116.325 401.88 73.7734 403.618 32.0949 L 403.618 32.0922 C 459.303 32.8749 516.314 43.6149 549.49 91.8361 C 578.896 89.3667 609.23 98.2614 633.315 119.081 C 655.863 138.568 668.86 164.981 671.924 192.437 C 698.838 204.909 721.344 227.096 733.651 256.633 C 745.425 284.901 745.819 315.05 736.983 342.03 C 754.227 366.586 763.153 397.163 760.045 429.37 C 757.009 460.85 743.001 488.619 722.185 509.283 C 727.147 536.227 722.248 565.038 706.171 589.844 C 692.548 610.861 673.023 625.744 651.183 633.735 C 634.13 683.868 586.688 719.953 530.79 719.953 C 509.133 719.953 483.431 711.169 468.631 704.083 C 467.739 703.655 466.831 703.179 465.926 702.681 C 466.615 700.68 466.981 698.581 466.977 696.477 C 466.981 693.94 466.45 691.369 465.41 688.957 C 474.762 681.875 483.825 674.401 492.519 666.487 C 497.949 661.549 503.225 656.421 508.358 651.136"
     style="fill:#000000;fill-opacity:1;fill-rule:nonzero;stroke:none"
     id="path6731" />
  <path
     d="M 351.967 687.748 C 347.142 684.296 340.439 685.419 336.994 690.251 C 333.563 695.053 334.658 701.723 339.424 705.183 C 347.8 710.975 356.376 716.468 365.103 721.703 C 372.899 718.057 380.602 714.251 388.187 710.276 C 375.746 703.285 363.631 695.803 351.967 687.748"
     style="fill:#000000;fill-opacity:1;fill-rule:nonzero;stroke:none"
     id="path6735" />
  <path
     d="M 480.185 752.045 C 462.938 745.694 445.828 738.729 429.072 731.037 C 421.476 735.508 413.77 739.77 405.984 743.857 C 417.038 749.273 428.244 754.349 439.541 759.114 C 453.338 757.506 466.904 755.146 480.185 752.045"
     style="fill:#000000;fill-opacity:1;fill-rule:nonzero;stroke:none"
     id="path6739" />
</svg>
