<?xml version="1.0" encoding="UTF-8" standalone="no"?>
<!-- Created with Inkscape (http://www.inkscape.org/) -->

<svg
   version="1.1"
   id="svg14481"
   width="795.03467"
   height="793.70135"
   viewBox="0 0 795.03467 793.70135"
   sodipodi:docname="Hitotsu Ore Kashiwa.svg"
   inkscape:version="1.2 (dc2aeda, 2022-05-15)"
   xmlns:inkscape="http://www.inkscape.org/namespaces/inkscape"
   xmlns:sodipodi="http://sodipodi.sourceforge.net/DTD/sodipodi-0.dtd"
   xmlns="http://www.w3.org/2000/svg"
   xmlns:svg="http://www.w3.org/2000/svg">
  <defs
     id="defs14485">
    <clipPath
       clipPathUnits="userSpaceOnUse"
       id="clipPath15100">
      <path
         d="M -531.1924,581.5885 H 65.083599 V -13.6875 H -531.1924 Z"
         id="path15102"
         style="stroke-width:0.999998" />
    </clipPath>
    <clipPath
       clipPathUnits="userSpaceOnUse"
       id="clipPath15106">
      <path
         d="M -572.8174,586.1354 H 23.458606 V -9.1406027 H -572.8174 Z"
         id="path15108"
         style="stroke-width:0.999998" />
    </clipPath>
    <clipPath
       clipPathUnits="userSpaceOnUse"
       id="clipPath15113">
      <path
         d="m -414.9629,351.11 h 596.276 v -595.276 h -596.276 z"
         id="path15115"
         style="stroke-width:0.999998" />
    </clipPath>
    <clipPath
       clipPathUnits="userSpaceOnUse"
       id="clipPath15119">
      <path
         d="M -557.0645,585.8483 H 39.211501 V -9.4277027 H -557.0645 Z"
         id="path15121"
         style="stroke-width:0.999998" />
    </clipPath>
    <clipPath
       clipPathUnits="userSpaceOnUse"
       id="clipPath15125">
      <path
         d="M -538.2217,577.9479 H 58.054299 V -17.328098 H -538.2217 Z"
         id="path15127"
         style="stroke-width:0.999998" />
    </clipPath>
    <clipPath
       clipPathUnits="userSpaceOnUse"
       id="clipPath15131">
      <path
         d="M -561.4131,585.8522 H 34.862903 V -9.4238027 H -561.4131 Z"
         id="path15133"
         style="stroke-width:0.999998" />
    </clipPath>
    <clipPath
       clipPathUnits="userSpaceOnUse"
       id="clipPath15137">
      <path
         d="M -564.5732,585.8483 H 31.702801 V -9.4277027 H -564.5732 Z"
         id="path15139"
         style="stroke-width:0.999998" />
    </clipPath>
    <clipPath
       clipPathUnits="userSpaceOnUse"
       id="clipPath15143">
      <path
         d="M -557.4951,577.8502 H 38.780903 V -17.4258 H -557.4951 Z"
         id="path15145"
         style="stroke-width:0.999998" />
    </clipPath>
    <clipPath
       clipPathUnits="userSpaceOnUse"
       id="clipPath15149">
      <path
         d="M -576.3691,585.5885 H 19.906905 V -9.6875027 H -576.3691 Z"
         id="path15151"
         style="stroke-width:0.999998" />
    </clipPath>
    <clipPath
       clipPathUnits="userSpaceOnUse"
       id="clipPath15155">
      <path
         d="M -568.2266,575.819 H 28.049401 V -19.457003 H -568.2266 Z"
         id="path15157"
         style="stroke-width:0.999998" />
    </clipPath>
    <clipPath
       clipPathUnits="userSpaceOnUse"
       id="clipPath15162">
      <path
         d="M -550.2637,577.3248 H 46.012306 V -17.951198 H -550.2637 Z"
         id="path15164"
         style="stroke-width:0.999998" />
    </clipPath>
    <clipPath
       clipPathUnits="userSpaceOnUse"
       id="clipPath15168">
      <path
         d="M -556.4014,578.0143 H 39.874606 V -17.2617 H -556.4014 Z"
         id="path15170"
         style="stroke-width:0.999998" />
    </clipPath>
    <clipPath
       clipPathUnits="userSpaceOnUse"
       id="clipPath15174">
      <path
         d="m -392.7354,177.6383 h 596.276 v -595.276 h -596.276 z"
         id="path15176"
         style="stroke-width:0.999998" />
    </clipPath>
    <clipPath
       clipPathUnits="userSpaceOnUse"
       id="clipPath15180">
      <path
         d="M -586.5449,579.5026 H 9.7311002 V -15.7734 H -586.5449 Z"
         id="path15182"
         style="stroke-width:0.999998" />
    </clipPath>
    <clipPath
       clipPathUnits="userSpaceOnUse"
       id="clipPath15186">
      <path
         d="M -567.7754,585.8522 H 28.500601 V -9.4238027 H -567.7754 Z"
         id="path15188"
         style="stroke-width:0.999998" />
    </clipPath>
    <clipPath
       clipPathUnits="userSpaceOnUse"
       id="clipPath15192">
      <path
         d="M -528.0898,575.3815 H 68.186199 V -19.8945 H -528.0898 Z"
         id="path15194"
         style="stroke-width:0.999998" />
    </clipPath>
    <clipPath
       clipPathUnits="userSpaceOnUse"
       id="clipPath15198">
      <path
         d="m -397.3682,313.3014 h 596.276 v -595.276 h -596.276 z"
         id="path15200"
         style="stroke-width:0.999998" />
    </clipPath>
    <clipPath
       clipPathUnits="userSpaceOnUse"
       id="clipPath15204">
      <path
         d="M -548.9102,400.3502 H 47.365801 v -595.276 H -548.9102 Z"
         id="path15206"
         style="stroke-width:0.999998" />
    </clipPath>
    <clipPath
       clipPathUnits="userSpaceOnUse"
       id="clipPath15210">
      <path
         d="M -553.8975,585.8483 H 42.378504 V -9.4277027 H -553.8975 Z"
         id="path15212"
         style="stroke-width:0.999998" />
    </clipPath>
    <clipPath
       clipPathUnits="userSpaceOnUse"
       id="clipPath15216">
      <path
         d="m -474.5479,346.7311 h 596.276 v -595.276 h -596.276 z"
         id="path15218"
         style="stroke-width:0.999998" />
    </clipPath>
    <clipPath
       clipPathUnits="userSpaceOnUse"
       id="clipPath15222">
      <path
         d="M -505.874,387.9049 H 90.402002 v -595.276 H -505.874 Z"
         id="path15224"
         style="stroke-width:0.999998" />
    </clipPath>
    <clipPath
       clipPathUnits="userSpaceOnUse"
       id="clipPath15228">
      <path
         d="m -426.7891,308.4264 h 596.276 v -595.276 h -596.276 z"
         id="path15230"
         style="stroke-width:0.999998" />
    </clipPath>
    <clipPath
       clipPathUnits="userSpaceOnUse"
       id="clipPath15234">
      <path
         d="M -540.8213,585.8483 H 55.454701 V -9.4277027 H -540.8213 Z"
         id="path15236"
         style="stroke-width:0.999998" />
    </clipPath>
    <clipPath
       clipPathUnits="userSpaceOnUse"
       id="clipPath15240">
      <path
         d="m -433.5459,387.1647 h 596.276 v -595.276 h -596.276 z"
         id="path15242"
         style="stroke-width:0.999998" />
    </clipPath>
    <clipPath
       clipPathUnits="userSpaceOnUse"
       id="clipPath15246">
      <path
         d="m -511.4053,376.3805 h 596.276 v -595.276 h -596.276 z"
         id="path15248"
         style="stroke-width:0.999998" />
    </clipPath>
    <clipPath
       clipPathUnits="userSpaceOnUse"
       id="clipPath15252">
      <path
         d="m -410.5352,285.6149 h 596.276 v -595.276 h -596.276 z"
         id="path15254"
         style="stroke-width:0.999998" />
    </clipPath>
    <clipPath
       clipPathUnits="userSpaceOnUse"
       id="clipPath15258">
      <path
         d="M -542.9326,584.5729 H 53.343399 V -10.7031 H -542.9326 Z"
         id="path15260"
         style="stroke-width:0.999998" />
    </clipPath>
    <clipPath
       clipPathUnits="userSpaceOnUse"
       id="clipPath15264">
      <path
         d="M -584.1943,578.9381 H 12.081705 V -16.337903 H -584.1943 Z"
         id="path15266"
         style="stroke-width:0.999998" />
    </clipPath>
    <clipPath
       clipPathUnits="userSpaceOnUse"
       id="clipPath15270">
      <path
         d="M -574.5459,585.8522 H 21.730103 V -9.4238027 H -574.5459 Z"
         id="path15272"
         style="stroke-width:0.999998" />
    </clipPath>
    <clipPath
       clipPathUnits="userSpaceOnUse"
       id="clipPath15276">
      <path
         d="M -545.417,584.5729 H 50.859001 V -10.7031 H -545.417 Z"
         id="path15278"
         style="stroke-width:0.999998" />
    </clipPath>
    <clipPath
       clipPathUnits="userSpaceOnUse"
       id="clipPath15282">
      <path
         d="M -548.9834,585.8522 H 47.292601 V -9.4238027 H -548.9834 Z"
         id="path15284"
         style="stroke-width:0.999998" />
    </clipPath>
    <clipPath
       clipPathUnits="userSpaceOnUse"
       id="clipPath15288">
      <path
         d="M -536.6982,584.5729 H 59.577804 V -10.7031 H -536.6982 Z"
         id="path15290"
         style="stroke-width:0.999998" />
    </clipPath>
  </defs>
  <sodipodi:namedview
     id="namedview14483"
     pagecolor="#ffffff"
     bordercolor="#000000"
     borderopacity="0.25"
     inkscape:showpageshadow="2"
     inkscape:pageopacity="0.0"
     inkscape:pagecheckerboard="0"
     inkscape:deskcolor="#d1d1d1"
     showgrid="false"
     inkscape:zoom="0.29734106"
     inkscape:cx="-215.24105"
     inkscape:cy="396.85068"
     inkscape:window-width="1419"
     inkscape:window-height="456"
     inkscape:window-x="0"
     inkscape:window-y="25"
     inkscape:window-maximized="0"
     inkscape:current-layer="svg14481">
    <inkscape:page
       x="0"
       y="0"
       id="page14487"
       width="795.03467"
       height="793.70135" />
  </sodipodi:namedview>
  <path
     d="M 731.88 533.8 C 722.489 522.677 705.863 521.273 694.748 530.664 C 683.627 540.055 682.224 556.683 691.615 567.8 C 697.193 574.411 702.668 581.116 708.031 587.909 C 718.057 571.617 726.833 554.477 734.239 536.623 C 733.452 535.681 732.671 534.737 731.88 533.8"
     style="fill:#000000;fill-opacity:1;fill-rule:nonzero;stroke:none"
     id="path14601" />
  <path
     d="M 523.647 236.851 C 520.279 264.908 514.446 292.212 506.371 318.539 C 500.528 337.588 492.955 357.423 485.408 374.061 C 471.626 404.448 455.09 427.576 451.877 425.8 C 448.665 424.023 459.846 406.805 473.696 375.651 C 481.378 358.376 489.19 337.96 495.095 319.293 C 503.175 293.75 509.058 267.234 512.596 239.982 C 502.515 242.699 492.298 245.08 481.959 247.127 C 476.116 302.78 460.616 355.568 437.133 403.751 C 430.815 416.712 427.161 423.763 416.486 441.604 C 396.715 474.654 372.826 500.496 369.431 498.114 C 366.035 495.734 388.557 469.813 404.809 441.714 C 415.914 422.516 419.261 415.997 425.689 403.125 C 449.301 355.851 464.996 303.943 471.124 249.139 C 455.673 251.819 439.963 253.758 424.026 254.875 C 420.718 312.301 407.147 366.989 385.098 417.104 C 376.21 437.308 367.969 452.658 354.426 475.373 C 330.839 514.933 308.985 534.722 305.89 532.545 C 302.794 530.368 325.947 501.57 343.094 473.606 C 355.93 452.68 364.523 437.028 373.335 417.604 C 395.973 367.688 409.955 313.019 413.425 255.503 C 405.953 255.859 398.435 256.04 390.875 256.04 C 386.207 256.04 381.557 255.968 376.922 255.832 L 355.39 286.626 C 356.034 295.142 356.393 303.744 356.39 312.437 C 356.379 373.801 337.502 428.649 308.597 477.457 C 299.448 492.909 292.628 502.778 278.41 522.016 C 261.386 545.048 233.529 572.529 230.565 569.544 C 227.6 566.557 245.952 548.813 265.714 521.897 C 275.564 508.485 287.88 491.262 296.9 476.46 C 326.543 427.816 345.859 373.327 345.847 312.437 C 345.847 308.476 345.755 304.536 345.611 300.606 L 294.526 373.661 C 290.625 416.047 277.914 455.882 258.234 491.309 C 249.254 507.474 237.984 523.404 227.114 536.878 C 216.244 550.354 181.204 580.057 178.22 577.375 C 175.235 574.693 193.437 559.917 213.441 536.669 C 226.193 521.846 236.778 507.352 246.232 491.082 C 263.649 461.12 275.838 427.743 281.56 392.203 C 281.56 392.203 176.248 542.601 159.019 567.442 C 141.788 592.282 124.363 613.747 121.611 611.745 C 118.857 609.742 134.339 584.385 149.997 561.956 C 165.656 539.526 272.21 387.184 272.21 387.184 C 241.789 405.175 214.301 427.603 190.642 453.582 C 178.511 466.905 164.845 484.712 156.172 496.865 C 135.564 525.726 127.901 544.576 125.267 543.333 C 122.633 542.093 128.691 523.026 146.56 493.532 C 154.907 479.748 168.412 462.564 181.027 448.5 C 210.604 415.532 246.125 388.008 285.906 367.599 L 336.911 294.658 C 279.069 313.671 227.753 347.103 187.239 390.708 C 174.607 404.304 161.123 420.635 151.465 434.563 C 131.893 462.797 120.409 489.148 117.203 487.67 C 113.996 486.194 126.433 455.644 141.941 431.352 C 152.991 414.048 164.227 400.295 177.06 386.205 C 222.142 336.716 280.602 299.63 346.729 280.619 L 364.431 255.3 C 349.665 254.474 335.081 252.952 320.71 250.783 C 279.797 268.058 242.308 291.862 209.56 320.9 C 194.693 334.083 181.795 346.749 166.336 363.603 C 144.709 387.179 134.676 406.183 131.589 404.28 C 128.505 402.379 142.127 377.793 156.74 360.629 C 171.353 343.465 182.623 331.252 197.025 318.015 C 228.042 289.51 263.41 265.663 302.018 247.572 C 288.66 244.994 275.502 241.848 262.573 238.158 C 251.826 243.766 241.361 249.83 231.218 256.34 C 218.706 264.372 205.33 273.427 192.685 282.67 C 176.84 294.255 163.683 307.9 161.056 305.824 C 158.431 303.751 173.36 286.684 185.437 276.718 C 197.516 266.755 210.173 257.452 223.353 248.876 C 231.488 243.583 239.824 238.578 248.344 233.852 C 228.11 227.367 208.476 219.539 189.553 210.471 C 160.407 232.048 141.505 266.674 141.505 305.723 C 141.505 308.855 141.664 311.947 141.901 315.019 C 110.433 336.312 89.7481 372.335 89.7481 413.191 C 89.7481 437.709 97.1961 460.485 109.956 479.382 C 99.5841 500.81 93.7667 524.856 93.7667 550.261 C 93.7667 577.454 100.487 603.087 112.271 625.627 C 169.92 625.627 222.03 601.946 259.428 563.788 C 269.52 566.588 280.142 568.114 291.128 568.114 C 340.677 568.114 383.097 537.678 400.775 494.493 C 457.774 481.236 500.582 431.049 502.654 370.52 C 538.088 331.508 560.198 280.182 561.827 223.722 C 549.356 228.635 536.615 233.007 523.647 236.851"
     style="fill:#000000;fill-opacity:1;fill-rule:nonzero;stroke:none"
     id="path14605" />
  <path
     d="M 547.38 380.82 C 543.389 372.017 537.999 361.621 531.165 351.325 C 525.703 359.348 519.763 367.021 513.391 374.301 C 527.691 382.981 541.723 392.06 555.432 401.569 C 553.612 395.912 551.016 388.823 547.38 380.82"
     style="fill:#000000;fill-opacity:1;fill-rule:nonzero;stroke:none"
     id="path14609" />
  <path
     d="M 569.052 411.235 C 586.912 424.164 604.229 437.798 620.967 452.09 C 620.483 449.038 619.829 445.486 618.927 441.438 C 615.535 426.226 608.721 404.26 595.009 377.571 C 579.095 346.684 565.837 327.422 552.628 312.449 C 548.204 322.593 543.104 332.371 537.373 341.719 C 545.868 353.859 552.305 366.22 556.972 376.459 C 564.589 393.219 567.947 406.308 569.052 411.235"
     style="fill:#000000;fill-opacity:1;fill-rule:nonzero;stroke:none"
     id="path14613" />
  <path
     d="M 632.731 462.308 C 645.98 474.06 658.838 486.245 671.3 498.817 C 670.9 477.016 665.906 427.529 633.555 365.888 C 610.092 321.224 589.09 289.124 567.854 263.886 C 565.267 276.875 561.639 289.49 557.042 301.627 C 572.023 317.87 586.947 338.734 604.384 372.755 C 628.626 419.923 632.206 453.285 632.731 462.308"
     style="fill:#000000;fill-opacity:1;fill-rule:nonzero;stroke:none"
     id="path14617" />
  <path
     d="M 529.824 417.735 C 539.545 416.612 547.539 414.594 553.139 412.836 C 539.687 403.396 525.921 394.376 511.889 385.75 C 510.308 397.096 507.397 408.014 503.313 418.339 C 506.559 418.54 509.921 418.656 513.369 418.656 C 518.7 418.656 524.224 418.383 529.824 417.735"
     style="fill:#000000;fill-opacity:1;fill-rule:nonzero;stroke:none"
     id="path14621" />
  <path
     d="M 681.874 501.841 C 681.874 505.2 681.773 507.749 681.671 509.461 C 684.99 512.933 688.269 516.442 691.529 519.973 C 697.682 515.924 704.749 513.893 711.727 513.902 C 712.485 513.902 713.239 513.93 713.997 513.978 C 717.587 498.348 719.51 482.085 719.51 465.366 C 719.51 393.948 684.923 330.615 631.594 291.18 C 627.641 258.355 607.096 230.654 578.594 216.678 C 576.566 217.571 574.542 218.48 572.498 219.344 L 572.362 224.024 C 572.106 232.954 571.356 241.758 570.144 250.418 C 594.008 277.408 617.185 311.972 642.891 360.987 C 677.753 427.409 681.877 480.52 681.874 501.841"
     style="fill:#000000;fill-opacity:1;fill-rule:nonzero;stroke:none"
     id="path14625" />
  <path
     d="M 578.061 516.22 C 618.297 516.223 650.683 511.117 665.779 508.225 C 664.275 506.699 662.777 505.171 661.261 503.655 C 649.907 492.301 638.216 481.285 626.205 470.615 C 618.342 472.661 594.649 477.829 553.498 478.684 C 550.574 478.744 547.696 478.772 544.856 478.772 C 515.116 478.779 489.719 475.491 467.564 470.503 C 457.16 480.139 445.319 488.243 432.387 494.455 C 459.421 503.261 490.701 509.747 533.346 514.037 C 548.937 515.595 563.98 516.22 578.061 516.22"
     style="fill:#000000;fill-opacity:1;fill-rule:nonzero;stroke:none"
     id="path14629" />
  <path
     d="M 674.499 517.207 C 663.983 519.49 626.7 526.756 578.062 526.759 C 563.67 526.759 548.281 526.124 532.299 524.524 C 483.134 519.639 448.19 511.62 417.694 500.527 C 414.633 501.595 411.532 502.579 408.38 503.442 C 404.117 512.726 398.77 521.404 392.528 529.346 C 408.618 540.72 428.246 547.428 449.453 547.428 C 458.862 547.428 467.953 546.084 476.573 543.626 C 505.085 571.588 544.139 588.837 587.23 588.837 C 620.318 588.837 651.015 578.655 676.396 561.272 C 675.382 557.846 674.848 554.319 674.852 550.811 C 674.839 542.28 677.83 533.735 683.614 526.934 C 680.599 523.668 677.567 520.422 674.499 517.207"
     style="fill:#000000;fill-opacity:1;fill-rule:nonzero;stroke:none"
     id="path14633" />
  <path
     d="M 553.284 468.147 C 584.587 467.494 605.355 464.306 616.396 462.051 C 599.401 447.431 581.797 433.504 563.623 420.314 C 558.479 422.358 546.889 426.368 531.036 428.208 C 524.981 428.904 519.055 429.195 513.369 429.195 C 508.289 429.191 503.407 428.956 498.797 428.572 C 492.88 440.65 485.298 451.751 476.366 461.61 C 496.247 465.647 518.76 468.23 544.856 468.235 C 547.619 468.23 550.433 468.203 553.284 468.147"
     style="fill:#000000;fill-opacity:1;fill-rule:nonzero;stroke:none"
     id="path14637" />
</svg>
