<?xml version="1.0" encoding="UTF-8" standalone="no"?>
<!-- Created with Inkscape (http://www.inkscape.org/) -->

<svg
   version="1.1"
   id="svg17833"
   width="795.03467"
   height="793.70135"
   viewBox="0 0 795.03467 793.70135"
   sodipodi:docname="Kage Mitsukashiwa.svg"
   inkscape:version="1.2 (dc2aeda, 2022-05-15)"
   xmlns:inkscape="http://www.inkscape.org/namespaces/inkscape"
   xmlns:sodipodi="http://sodipodi.sourceforge.net/DTD/sodipodi-0.dtd"
   xmlns="http://www.w3.org/2000/svg"
   xmlns:svg="http://www.w3.org/2000/svg">
  <defs
     id="defs17837">
    <clipPath
       clipPathUnits="userSpaceOnUse"
       id="clipPath18425">
      <path
         d="M -531.1924,581.5885 H 65.083599 V -13.6875 H -531.1924 Z"
         id="path18427"
         style="stroke-width:0.999998" />
    </clipPath>
    <clipPath
       clipPathUnits="userSpaceOnUse"
       id="clipPath18431">
      <path
         d="M -540.8213,585.8483 H 55.454701 V -9.4277027 H -540.8213 Z"
         id="path18433"
         style="stroke-width:0.999998" />
    </clipPath>
    <clipPath
       clipPathUnits="userSpaceOnUse"
       id="clipPath18437">
      <path
         d="M -536.6982,584.5729 H 59.577804 V -10.7031 H -536.6982 Z"
         id="path18439"
         style="stroke-width:0.999998" />
    </clipPath>
    <clipPath
       clipPathUnits="userSpaceOnUse"
       id="clipPath18443">
      <path
         d="M -561.4131,585.8522 H 34.862903 V -9.4238027 H -561.4131 Z"
         id="path18445"
         style="stroke-width:0.999998" />
    </clipPath>
    <clipPath
       clipPathUnits="userSpaceOnUse"
       id="clipPath18449">
      <path
         d="M -528.0898,575.3815 H 68.186199 V -19.8945 H -528.0898 Z"
         id="path18451"
         style="stroke-width:0.999998" />
    </clipPath>
    <clipPath
       clipPathUnits="userSpaceOnUse"
       id="clipPath18455">
      <path
         d="M -548.9834,585.8522 H 47.292601 V -9.4238027 H -548.9834 Z"
         id="path18457"
         style="stroke-width:0.999998" />
    </clipPath>
    <clipPath
       clipPathUnits="userSpaceOnUse"
       id="clipPath18461">
      <path
         d="M -557.4951,577.8502 H 38.780903 V -17.4258 H -557.4951 Z"
         id="path18463"
         style="stroke-width:0.999998" />
    </clipPath>
    <clipPath
       clipPathUnits="userSpaceOnUse"
       id="clipPath18467">
      <path
         d="M -572.8174,586.1354 H 23.458606 V -9.1406027 H -572.8174 Z"
         id="path18469"
         style="stroke-width:0.999998" />
    </clipPath>
    <clipPath
       clipPathUnits="userSpaceOnUse"
       id="clipPath18473">
      <path
         d="M -574.5459,585.8522 H 21.730103 V -9.4238027 H -574.5459 Z"
         id="path18475"
         style="stroke-width:0.999998" />
    </clipPath>
    <clipPath
       clipPathUnits="userSpaceOnUse"
       id="clipPath18479">
      <path
         d="M -568.2266,575.819 H 28.049401 V -19.457003 H -568.2266 Z"
         id="path18481"
         style="stroke-width:0.999998" />
    </clipPath>
    <clipPath
       clipPathUnits="userSpaceOnUse"
       id="clipPath18485">
      <path
         d="M -550.2637,577.3248 H 46.012306 V -17.951198 H -550.2637 Z"
         id="path18487"
         style="stroke-width:0.999998" />
    </clipPath>
    <clipPath
       clipPathUnits="userSpaceOnUse"
       id="clipPath18492">
      <path
         d="M -556.4014,578.0143 H 39.874606 V -17.2617 H -556.4014 Z"
         id="path18494"
         style="stroke-width:0.999998" />
    </clipPath>
    <clipPath
       clipPathUnits="userSpaceOnUse"
       id="clipPath18498">
      <path
         d="M -586.5449,579.5026 H 9.7311002 V -15.7734 H -586.5449 Z"
         id="path18500"
         style="stroke-width:0.999998" />
    </clipPath>
    <clipPath
       clipPathUnits="userSpaceOnUse"
       id="clipPath18504">
      <path
         d="M -584.1943,578.9381 H 12.081705 V -16.337903 H -584.1943 Z"
         id="path18506"
         style="stroke-width:0.999998" />
    </clipPath>
    <clipPath
       clipPathUnits="userSpaceOnUse"
       id="clipPath18510">
      <path
         d="M -538.2217,577.9479 H 58.054299 V -17.328098 H -538.2217 Z"
         id="path18512"
         style="stroke-width:0.999998" />
    </clipPath>
    <clipPath
       clipPathUnits="userSpaceOnUse"
       id="clipPath18516">
      <path
         d="m -339.3096,335.0748 h 596.276 v -595.276 h -596.276 z"
         id="path18518"
         style="stroke-width:0.999998" />
    </clipPath>
    <clipPath
       clipPathUnits="userSpaceOnUse"
       id="clipPath18522">
      <path
         d="m -339.3096,335.0748 h 596.276 v -595.276 h -596.276 z"
         id="path18524"
         style="stroke-width:0.999998" />
    </clipPath>
    <clipPath
       clipPathUnits="userSpaceOnUse"
       id="clipPath18528">
      <path
         d="m -233.3447,296.069 h 596.276 v -595.276 h -596.276 z"
         id="path18530"
         style="stroke-width:0.999998" />
    </clipPath>
    <clipPath
       clipPathUnits="userSpaceOnUse"
       id="clipPath18534">
      <path
         d="M -297.626,288.0807 H 298.65 v -595.276 h -596.276 z"
         id="path18536"
         style="stroke-width:0.999998" />
    </clipPath>
    <clipPath
       clipPathUnits="userSpaceOnUse"
       id="clipPath18540">
      <path
         d="m -295.9863,410.2467 h 596.276 v -595.276 h -596.276 z"
         id="path18542"
         style="stroke-width:0.999998" />
    </clipPath>
    <clipPath
       clipPathUnits="userSpaceOnUse"
       id="clipPath18546">
      <path
         d="m -256.9297,358.5709 h 596.27601 v -595.276 H -256.9297 Z"
         id="path18548"
         style="stroke-width:0.999998" />
    </clipPath>
    <clipPath
       clipPathUnits="userSpaceOnUse"
       id="clipPath18552">
      <path
         d="m -363.5469,298.9088 h 596.276 v -595.276 h -596.276 z"
         id="path18554"
         style="stroke-width:0.999998" />
    </clipPath>
    <clipPath
       clipPathUnits="userSpaceOnUse"
       id="clipPath18558">
      <path
         d="m -338.3252,358.569 h 596.276 v -595.276 h -596.276 z"
         id="path18560"
         style="stroke-width:0.999998" />
    </clipPath>
    <clipPath
       clipPathUnits="userSpaceOnUse"
       id="clipPath18564">
      <path
         d="M -553.8975,585.8483 H 42.378504 V -9.4277027 H -553.8975 Z"
         id="path18566"
         style="stroke-width:0.999998" />
    </clipPath>
    <clipPath
       clipPathUnits="userSpaceOnUse"
       id="clipPath18570">
      <path
         d="M -557.0645,585.8483 H 39.211501 V -9.4277027 H -557.0645 Z"
         id="path18572"
         style="stroke-width:0.999998" />
    </clipPath>
    <clipPath
       clipPathUnits="userSpaceOnUse"
       id="clipPath18576">
      <path
         d="M -542.9326,584.5729 H 53.343399 V -10.7031 H -542.9326 Z"
         id="path18578"
         style="stroke-width:0.999998" />
    </clipPath>
    <clipPath
       clipPathUnits="userSpaceOnUse"
       id="clipPath18582">
      <path
         d="M -545.417,584.5729 H 50.859001 V -10.7031 H -545.417 Z"
         id="path18584"
         style="stroke-width:0.999998" />
    </clipPath>
    <clipPath
       clipPathUnits="userSpaceOnUse"
       id="clipPath18588">
      <path
         d="M -564.5732,585.8483 H 31.702801 V -9.4277027 H -564.5732 Z"
         id="path18590"
         style="stroke-width:0.999998" />
    </clipPath>
    <clipPath
       clipPathUnits="userSpaceOnUse"
       id="clipPath18594">
      <path
         d="M -567.7754,585.8522 H 28.500601 V -9.4238027 H -567.7754 Z"
         id="path18596"
         style="stroke-width:0.999998" />
    </clipPath>
    <clipPath
       clipPathUnits="userSpaceOnUse"
       id="clipPath18600">
      <path
         d="M -576.3691,585.5885 H 19.906905 V -9.6875027 H -576.3691 Z"
         id="path18602"
         style="stroke-width:0.999998" />
    </clipPath>
  </defs>
  <sodipodi:namedview
     id="namedview17835"
     pagecolor="#ffffff"
     bordercolor="#000000"
     borderopacity="0.25"
     inkscape:showpageshadow="2"
     inkscape:pageopacity="0.0"
     inkscape:pagecheckerboard="0"
     inkscape:deskcolor="#d1d1d1"
     showgrid="false"
     inkscape:zoom="0.29734106"
     inkscape:cx="-215.24105"
     inkscape:cy="396.85068"
     inkscape:window-width="1419"
     inkscape:window-height="456"
     inkscape:window-x="0"
     inkscape:window-y="25"
     inkscape:window-maximized="0"
     inkscape:current-layer="svg17833">
    <inkscape:page
       x="0"
       y="0"
       id="page17839"
       width="795.03467"
       height="793.70135" />
  </sodipodi:namedview>
  <path
     d="M 452.413 446.766 C 452.413 477.461 427.532 502.35 396.834 502.35 C 366.139 502.35 341.253 477.461 341.253 446.766 C 341.253 416.069 366.139 391.181 396.834 391.181 C 427.532 391.181 452.413 416.069 452.413 446.766"
     style="fill:#000000;fill-opacity:1;fill-rule:nonzero;stroke:none"
     id="path17953" />
  <path
     d="M 452.413 446.766 C 452.413 477.461 427.532 502.35 396.834 502.35 C 366.139 502.35 341.253 477.461 341.253 446.766 C 341.253 416.069 366.139 391.181 396.834 391.181 C 427.532 391.181 452.413 416.069 452.413 446.766"
     style="fill:#000000;fill-opacity:1;fill-rule:nonzero;stroke:none"
     id="path17957" />
  <path
     d="M 311.126 394.759 L 311.126 394.759 C 296.719 385.988 283.391 376.884 275.009 366.538 C 263.39 351.91 260.749 335.204 260.749 322.73 C 260.755 317.422 261.225 312.779 261.775 309.155 C 258.21 306.575 253.706 302.865 249.119 297.923 C 239.533 287.614 229.469 271.237 229.321 249.307 C 229.308 249.085 229.308 248.899 229.308 248.773 L 229.308 248.709 C 229.265 227.125 237.842 211.247 246.347 201.382 C 250.163 196.939 253.939 193.608 257.025 191.236 C 256.677 188.4 256.401 184.909 256.401 180.914 C 256.378 167.82 259.437 148.862 273.083 131.137 C 289.773 109.565 314.097 106.004 328.591 106.037 C 331.814 106.037 334.634 106.206 336.925 106.424 C 345.481 98.1037 366.149 81.5518 396.85 81.2425 C 427.52 81.5518 448.179 98.1037 456.734 106.424 C 459.02 106.206 461.842 106.037 465.071 106.037 C 479.548 106.004 503.872 109.578 520.575 131.137 C 534.208 148.862 537.264 167.82 537.255 180.914 C 537.255 184.909 536.98 188.396 536.624 191.233 C 539.717 193.605 543.493 196.937 547.313 201.382 C 555.815 211.247 564.389 227.125 564.347 248.709 L 564.347 248.853 C 564.325 271.01 554.195 287.543 544.537 297.923 C 539.948 302.87 535.439 306.583 531.877 309.165 C 532.429 312.787 532.895 317.426 532.905 322.73 C 532.895 335.204 530.267 351.91 518.661 366.538 C 510.264 376.884 496.943 385.988 482.531 394.759 C 472.671 400.694 459.136 407.671 449.368 412.598 C 445.127 406.1 439.804 400.442 433.526 395.91 C 443.968 390.748 459.911 382.712 471.192 375.926 C 484.612 367.947 496.792 358.898 501.464 352.844 C 508.843 343.623 510.92 332.254 510.92 322.73 C 510.931 315.766 509.788 310.061 509.284 307.933 C 509.115 307.222 509.07 307.078 509.07 307.065 L 506.563 298.457 L 514.501 294.287 C 514.501 294.273 514.657 294.206 515.368 293.766 C 516.092 293.338 517.184 292.653 518.509 291.69 C 521.18 289.797 524.823 286.869 528.395 283.002 C 535.587 275.159 542.316 264.114 542.361 248.842 L 542.361 248.709 C 542.316 233.901 537.189 223.982 531.701 217.005 C 526.225 210.105 520.241 206.522 519.48 206.115 L 511.581 202.003 L 513.961 193.425 C 513.951 193.417 513.972 193.396 514.083 192.873 C 514.209 192.354 514.38 191.51 514.544 190.409 C 514.911 188.185 515.268 184.885 515.268 180.914 C 515.252 171.033 513.044 157.398 503.154 144.537 C 492.775 130.877 476.495 128.046 465.071 128.014 C 460.3 128.014 456.675 128.533 455.39 128.748 C 454.964 128.814 454.924 128.825 454.924 128.825 L 448.427 130.188 L 444.203 125.061 C 444.188 125.074 444.104 124.948 443.615 124.41 C 443.107 123.854 442.3 123.021 441.219 121.994 C 439.064 119.934 435.798 117.102 431.607 114.312 C 423.179 108.674 411.311 103.245 396.85 103.232 C 371.641 103.064 353.641 120.385 350.057 124.41 C 349.549 124.948 349.461 125.061 349.461 125.061 L 345.245 130.188 L 338.742 128.825 C 338.73 128.85 338.051 128.68 336.254 128.466 C 334.442 128.24 331.765 128.014 328.591 128.014 C 317.158 128.046 300.885 130.866 290.501 144.537 C 280.61 157.406 278.402 171.033 278.382 180.914 C 278.382 186.857 279.214 191.309 279.573 192.864 C 279.685 193.381 279.695 193.417 279.695 193.417 L 282.09 201.993 L 274.185 206.115 L 274.174 206.115 C 274.087 206.175 273.891 206.287 273.611 206.454 C 273.071 206.782 272.203 207.347 271.133 208.137 C 268.977 209.722 266.003 212.225 263.063 215.675 C 257.166 222.65 251.343 232.942 251.302 248.709 L 251.302 248.773 L 251.302 248.821 C 251.343 262.233 256.477 272.274 262.617 279.926 C 268.699 287.513 275.774 292.266 278.286 293.766 C 278.999 294.206 279.153 294.287 279.153 294.287 L 287.091 298.457 L 284.586 307.078 C 284.597 307.078 284.541 307.234 284.375 307.933 C 284.206 308.654 283.966 309.759 283.723 311.165 C 283.238 314.006 282.743 318.087 282.743 322.73 C 282.729 332.254 284.818 343.623 292.199 352.844 C 296.871 358.898 309.05 367.947 322.462 375.926 C 333.631 382.642 349.554 390.876 360.037 396.076 C 353.799 400.614 348.469 406.287 344.266 412.775 C 334.465 407.79 320.883 400.628 311.126 394.759"
     style="fill:#000000;fill-opacity:1;fill-rule:nonzero;stroke:none"
     id="path17961" />
  <path
     d="M 396.835 384.108 C 399.311 384.108 401.751 384.283 404.158 384.561 L 404.136 364.132 C 414.708 361.58 462.063 348.103 485.953 301.232 C 503.417 266.831 506.411 237.599 506.411 221.598 C 506.411 213.363 505.615 208.624 505.592 208.442 C 505.089 205.088 501.917 202.62 498.187 202.62 L 498.057 202.62 C 497.925 202.62 497.667 202.62 497.291 202.67 C 493.493 203.074 490.661 205.971 490.677 209.354 C 490.677 209.418 490.661 209.8 490.755 210.292 C 490.74 210.28 490.976 212.76 490.976 217.238 C 490.976 230.82 488.669 261.799 470.911 296.143 C 452.234 332.184 417.363 344.139 404.136 347.58 L 404.15 319.112 C 417.93 314.422 447.387 300.326 463.191 262.563 C 472.252 240.99 474.853 221.587 474.853 206.426 C 474.853 186.032 470.155 173.295 470.033 172.981 C 469.095 170.19 466.169 168.309 462.902 168.299 C 462.262 168.299 461.5 168.363 460.672 168.602 C 457.58 169.378 455.391 172.046 455.391 175.007 C 455.391 175.582 455.476 176.267 455.727 176.975 C 455.775 177.178 458.728 188.832 458.728 206.01 C 458.728 220.66 456.526 239.143 448.538 257.582 C 436.071 286.314 414.372 297.967 404.15 302.242 L 404.15 264.696 C 414.086 258.948 430.248 246.152 437.891 220.143 C 441.347 208.474 442.558 197.068 442.558 186.731 C 442.543 161.009 435.048 141.898 434.948 141.618 C 433.962 138.849 431.02 137.058 427.852 137.047 C 427.176 137.047 426.372 137.125 425.498 137.397 C 422.471 138.229 420.354 140.831 420.343 143.759 C 420.343 144.387 420.454 145.119 420.73 145.863 C 420.668 145.694 422.131 150.153 423.635 157.533 C 425.136 164.921 426.636 175.109 426.636 186.191 C 426.636 196.067 425.439 206.651 422.072 216.586 C 417.715 229.462 409.983 238.704 404.099 244.746 L 402.923 129.603 L 402.923 129.59 C 402.878 125.941 400.947 122.925 396.84 122.925 C 392.96 122.925 391.155 125.619 390.8 128.989 C 390.7 129.233 390.7 129.562 390.756 129.926 L 389.586 244.746 C 383.702 238.702 375.963 229.456 371.614 216.572 C 368.246 206.651 367.042 196.067 367.042 186.191 C 367.031 164.019 373.083 145.729 373.015 145.683 C 373.23 145.062 373.331 144.387 373.331 143.759 C 373.319 140.842 371.238 138.229 368.008 137.341 C 367.319 137.147 366.558 137.047 365.834 137.047 C 362.67 137.047 359.686 138.838 358.675 141.799 C 358.635 141.898 351.123 161.009 351.112 186.742 C 351.123 197.068 352.326 208.474 355.792 220.143 C 363.443 246.152 379.606 258.948 389.535 264.696 L 389.535 302.242 C 379.319 297.967 357.615 286.314 345.14 257.582 C 337.158 239.154 334.939 220.671 334.951 206.01 C 334.951 188.476 338.108 176.697 338.047 176.662 C 338.196 176.237 338.284 175.615 338.284 175.007 C 338.284 172.057 336.114 169.387 332.819 168.555 C 332.2 168.386 331.483 168.299 330.79 168.299 C 327.543 168.299 324.55 170.175 323.591 173.15 C 323.535 173.295 318.821 186.032 318.821 206.426 C 318.821 221.587 321.426 240.99 330.495 262.563 C 346.299 300.328 375.744 314.424 389.535 319.112 L 389.54 347.584 C 376.339 344.141 341.458 332.189 322.773 296.143 C 304.999 261.81 302.697 230.82 302.697 217.238 C 302.697 212.498 302.99 210.007 302.974 209.998 C 303.001 209.703 303.011 209.52 303.001 209.354 C 303.001 205.919 300.119 202.991 296.229 202.656 C 296.122 202.642 295.863 202.62 295.487 202.62 C 291.718 202.61 288.483 205.156 288.063 208.616 C 287.91 209.554 287.27 214.143 287.27 221.598 C 287.27 237.599 290.261 266.818 307.725 301.232 C 331.523 347.915 378.607 361.469 389.547 364.124 L 389.552 384.559 C 391.943 384.283 394.366 384.108 396.835 384.108"
     style="fill:#000000;fill-opacity:1;fill-rule:nonzero;stroke:none"
     id="path17965" />
  <path
     d="M 394.648 546.996 L 394.648 546.996 C 394.255 563.86 393.031 579.952 388.265 592.387 C 381.404 609.761 368.257 620.394 357.459 626.634 C 352.855 629.288 348.605 631.201 345.195 632.54 C 344.735 636.91 343.777 642.673 341.787 649.113 C 337.653 662.572 328.503 679.474 309.586 690.572 C 309.398 690.686 309.238 690.78 309.128 690.845 L 309.072 690.878 C 290.402 701.709 272.363 702.222 259.568 699.782 C 253.811 698.701 249.036 697.1 245.444 695.61 C 243.164 697.332 240.272 699.313 236.816 701.31 C 225.488 707.878 207.543 714.706 185.37 711.753 C 158.343 708.084 143.099 688.802 135.878 676.233 C 134.267 673.441 133.003 670.913 132.047 668.821 C 120.561 665.569 95.8941 655.946 80.2715 629.514 C 65.2075 602.799 69.2088 576.632 72.1341 565.064 C 70.8101 563.191 69.2461 560.829 67.6355 558.035 C 60.3648 545.512 51.3022 522.663 61.6195 497.42 C 70.1595 476.746 85.0394 464.622 96.3901 458.084 C 99.8487 456.092 103.007 454.579 105.639 453.468 C 106.147 449.611 107.149 444.674 109.085 439.142 C 113.378 426.843 122.842 411.475 141.553 400.723 C 141.553 400.723 141.669 400.658 141.679 400.652 C 160.878 389.592 180.259 390.1 194.079 393.275 C 200.66 394.778 206.124 396.824 210.143 398.616 C 213.003 396.332 216.788 393.603 221.383 390.944 C 232.19 384.718 247.966 378.639 266.438 381.376 C 279.602 383.478 294.147 390.46 308.951 398.556 C 319.019 404.13 331.824 412.363 340.976 418.358 C 337.467 425.272 335.227 432.715 334.447 440.423 C 324.754 433.958 309.823 424.174 298.308 417.794 C 284.686 410.16 270.758 404.135 263.179 403.122 C 251.511 401.335 240.626 405.223 232.372 409.983 C 226.34 413.46 221.968 417.299 220.376 418.802 C 219.847 419.303 219.743 419.412 219.731 419.42 L 213.526 425.892 L 205.948 421.106 C 205.938 421.111 205.799 421.01 205.064 420.614 C 204.338 420.204 203.188 419.598 201.698 418.928 C 198.716 417.562 194.362 415.874 189.233 414.715 C 178.841 412.408 165.911 412.103 152.665 419.696 L 152.55 419.767 C 139.741 427.21 133.719 436.608 130.425 444.856 C 127.19 453.043 127.074 460.015 127.101 460.876 L 127.489 469.775 L 118.871 472.004 C 118.871 472.02 118.838 472.007 118.331 472.171 C 117.817 472.322 116.999 472.6 115.961 473.004 C 113.858 473.803 110.819 475.142 107.386 477.127 C 98.8301 482.077 88.1248 490.808 81.9368 505.805 C 75.3035 521.627 80.9888 537.136 86.6688 547.045 C 89.0528 551.181 91.3154 554.061 92.1448 555.067 C 92.4128 555.403 92.4474 555.428 92.4474 555.428 L 96.8754 560.376 L 94.5461 566.603 C 94.5648 566.603 94.4968 566.736 94.2808 567.436 C 94.0488 568.152 93.7288 569.264 93.3794 570.709 C 92.6728 573.608 91.8514 577.853 91.5314 582.881 C 90.8701 593.001 92.0928 605.988 99.3141 618.517 C 111.778 640.438 135.779 647.36 141.057 648.452 C 141.774 648.624 141.917 648.646 141.917 648.646 L 148.462 649.733 L 150.539 656.048 C 150.562 656.042 150.749 656.717 151.466 658.384 C 152.185 660.069 153.321 662.496 154.911 665.244 C 160.653 675.126 171.229 687.808 188.263 689.962 C 204.352 692.097 217.259 687.204 225.831 682.28 C 230.975 679.31 234.408 676.357 235.579 675.266 C 235.971 674.91 235.999 674.884 235.999 674.884 L 242.227 668.526 L 249.744 673.31 L 249.754 673.321 C 249.848 673.362 250.042 673.474 250.328 673.641 C 250.882 673.938 251.808 674.408 253.02 674.941 C 255.472 676.014 259.127 677.34 263.586 678.162 C 272.574 679.777 284.403 679.678 298.075 671.837 L 298.136 671.801 L 298.175 671.78 C 309.767 665.034 315.895 655.564 319.459 646.428 C 322.982 637.362 323.567 628.857 323.606 625.93 C 323.635 625.097 323.62 624.92 323.62 624.92 L 323.27 615.962 L 331.979 613.821 C 331.979 613.81 332.139 613.78 332.828 613.577 C 333.537 613.36 334.612 613.015 335.955 612.523 C 338.657 611.524 342.444 609.917 346.464 607.595 C 354.716 602.84 363.52 595.351 367.816 584.343 C 370.717 577.272 372.468 562.204 372.668 546.592 C 372.904 533.564 372.069 515.655 371.336 503.977 C 378.381 507.113 385.963 508.892 393.681 509.288 C 394.267 520.269 394.851 535.608 394.648 546.996"
     style="fill:#000000;fill-opacity:1;fill-rule:nonzero;stroke:none"
     id="path17969" />
  <path
     d="M 342.573 478.095 C 341.33 475.947 340.26 473.754 339.301 471.527 L 321.618 481.762 C 314.122 473.882 278.773 439.608 226.241 442.355 C 187.716 444.434 160.905 456.456 147.045 464.459 C 139.919 468.574 136.211 471.628 136.055 471.738 L 136.06 471.74 C 133.407 473.855 132.859 477.835 134.726 481.067 C 134.742 481.09 134.752 481.122 134.786 481.176 C 134.852 481.29 134.984 481.514 135.218 481.814 C 137.463 484.904 141.388 485.91 144.308 484.204 C 144.368 484.171 144.701 483.994 145.08 483.666 C 145.08 483.683 147.104 482.24 150.988 480.002 C 162.749 473.21 190.724 459.718 229.352 457.926 C 269.903 456.084 297.689 480.303 307.284 490.032 L 282.625 504.262 C 271.668 494.671 244.737 476.21 204.133 481.404 C 180.923 484.343 162.816 491.79 149.684 499.371 C 132.027 509.567 123.344 519.999 123.126 520.27 C 121.184 522.478 121.019 525.95 122.643 528.786 C 122.962 529.34 123.403 529.967 124.022 530.567 C 126.235 532.855 129.642 533.418 132.21 531.936 C 132.704 531.647 133.251 531.231 133.742 530.66 C 133.891 530.514 142.508 522.128 157.383 513.54 C 170.069 506.215 187.18 498.884 207.143 496.579 C 238.264 493.016 259.207 505.983 268.016 512.694 L 235.501 531.47 C 225.556 525.738 206.391 518.139 180.049 524.519 C 168.213 527.366 157.724 532.019 148.772 537.186 C 126.507 550.059 113.706 566.105 113.511 566.332 C 111.607 568.571 111.524 572.016 113.104 574.767 C 113.44 575.347 113.91 576.004 114.583 576.625 C 116.812 578.835 120.126 579.365 122.668 577.912 C 123.215 577.597 123.79 577.133 124.298 576.521 C 124.182 576.66 127.311 573.16 132.954 568.176 C 138.596 563.18 146.669 556.788 156.269 551.248 C 164.824 546.305 174.585 542.056 184.875 540.004 C 198.199 537.33 210.076 539.41 218.247 541.488 L 119.12 600.076 C 119.114 600.081 119.108 600.081 119.108 600.081 C 115.968 601.941 114.323 605.125 116.38 608.685 C 118.315 612.043 121.555 612.259 124.652 610.884 C 124.904 610.84 125.192 610.68 125.48 610.449 L 225.501 554.051 C 223.213 562.171 219.076 573.496 210.091 583.701 C 203.184 591.579 194.615 597.917 186.065 602.849 C 166.868 613.952 148.011 617.855 148 617.933 C 147.355 618.059 146.72 618.316 146.18 618.628 C 143.652 620.095 142.431 623.204 143.276 626.444 C 143.452 627.133 143.749 627.845 144.113 628.475 C 145.695 631.212 148.74 632.901 151.808 632.303 C 151.908 632.277 172.217 629.231 194.505 616.376 C 203.441 611.199 212.723 604.459 221.095 595.621 C 239.797 575.993 242.801 555.595 242.807 544.122 L 275.323 525.347 C 276.725 536.338 277.488 560.956 258.84 586.125 C 246.873 602.256 231.981 613.417 219.273 620.737 C 204.096 629.504 192.311 632.66 192.313 632.733 C 191.868 632.813 191.288 633.053 190.759 633.357 C 188.208 634.829 186.983 638.043 187.911 641.313 C 188.064 641.933 188.352 642.595 188.699 643.196 C 190.316 646.007 193.44 647.66 196.497 647.007 C 196.653 646.977 210.045 644.691 227.697 634.496 C 240.828 626.917 256.333 614.964 270.477 596.321 C 295.284 563.751 292.766 531.204 289.93 516.915 L 314.58 502.671 C 318.209 515.832 325.294 552.013 303.42 586.215 C 282.578 618.777 256.885 636.264 245.128 643.056 C 241.023 645.425 238.72 646.42 238.715 646.439 C 238.449 646.564 238.285 646.641 238.145 646.74 C 235.171 648.456 234.079 652.409 235.736 655.947 C 235.768 656.048 235.887 656.288 236.077 656.605 C 237.949 659.879 241.773 661.407 244.975 660.043 C 245.864 659.701 250.164 657.969 256.616 654.243 C 270.477 646.237 294.284 629.04 315.353 596.704 C 343.88 552.753 332.08 505.202 328.912 494.4 L 346.601 484.176 C 345.161 482.246 343.805 480.228 342.573 478.095"
     style="fill:#000000;fill-opacity:1;fill-rule:nonzero;stroke:none"
     id="path17973" />
  <path
     d="M 484.729 398.545 L 484.729 398.545 C 499.532 390.452 514.078 383.466 527.232 381.376 C 545.708 378.628 561.489 384.698 572.297 390.938 C 576.887 393.592 580.674 396.318 583.538 398.605 C 587.554 396.813 593.025 394.761 599.597 393.264 C 613.321 390.11 632.529 389.586 651.595 400.425 C 651.795 400.529 651.954 400.618 652.07 400.684 L 652.126 400.714 C 670.838 411.464 680.301 426.832 684.582 439.133 C 686.526 444.66 687.532 449.594 688.036 453.454 C 690.664 454.566 693.827 456.076 697.288 458.072 C 708.638 464.6 723.526 476.725 732.054 497.406 C 742.387 522.649 733.312 545.495 726.038 558.029 C 724.423 560.826 722.87 563.181 721.534 565.05 C 724.459 576.626 728.467 602.796 713.379 629.539 C 697.775 655.946 673.111 665.563 661.63 668.815 C 660.675 670.902 659.411 673.435 657.801 676.227 C 650.586 688.787 635.327 708.055 608.309 711.742 C 586.139 714.684 568.189 707.856 556.863 701.299 C 553.407 699.302 550.513 697.32 548.236 695.599 C 544.644 697.083 539.866 698.687 534.108 699.776 C 521.314 702.208 503.269 701.698 484.598 690.867 C 484.598 690.867 484.484 690.799 484.474 690.795 C 465.298 679.692 456.046 662.654 451.882 649.102 C 449.896 642.656 448.936 636.894 448.478 632.516 C 445.074 631.184 440.816 629.271 436.217 626.628 C 425.422 620.378 412.268 609.75 405.407 592.386 C 400.637 579.941 399.412 563.85 399.027 546.985 C 398.816 535.477 399.543 520.269 400.161 509.345 C 407.901 508.925 415.469 507.143 422.529 503.969 C 421.778 515.597 420.772 533.414 421.006 546.581 C 421.205 562.193 422.953 577.266 425.864 584.337 C 430.153 595.339 438.961 602.823 447.214 607.588 C 453.242 611.075 458.753 612.94 460.844 613.566 C 461.544 613.774 461.689 613.81 461.704 613.815 L 470.408 615.951 L 470.056 624.908 C 470.061 624.914 470.044 625.086 470.066 625.919 C 470.077 626.758 470.125 628.05 470.297 629.68 C 470.596 632.943 471.313 637.563 472.881 642.583 C 476.072 652.738 482.276 664.083 495.48 671.758 L 495.596 671.823 C 508.441 679.192 519.59 679.703 528.385 678.44 C 537.09 677.148 543.19 673.76 543.924 673.31 L 551.43 668.52 L 557.673 674.87 C 557.686 674.864 557.691 674.899 558.087 675.255 C 558.474 675.623 559.125 676.19 559.993 676.886 C 561.742 678.307 564.415 680.276 567.851 682.263 C 576.415 687.192 589.331 692.091 605.417 689.956 C 622.431 687.792 633.026 675.115 638.762 665.238 C 641.15 661.104 642.514 657.703 642.974 656.484 C 643.127 656.08 643.138 656.042 643.138 656.042 L 645.203 649.732 L 651.759 648.632 C 651.75 648.623 651.906 648.612 652.615 648.451 C 653.35 648.292 654.477 648.016 655.902 647.591 C 658.759 646.758 662.851 645.344 667.367 643.107 C 676.457 638.628 687.092 631.066 694.335 618.544 C 707.094 596.797 701.08 572.553 699.386 567.435 C 699.176 566.725 699.128 566.591 699.128 566.591 L 696.794 560.375 L 701.231 555.422 C 701.21 555.402 701.694 554.905 702.783 553.449 C 703.886 551.993 705.416 549.79 707.004 547.039 C 712.691 537.121 718.387 521.623 711.736 505.797 C 705.536 490.795 694.85 482.066 686.294 477.102 C 681.155 474.133 676.875 472.633 675.354 472.167 C 674.846 472.003 674.813 471.998 674.813 471.998 L 666.191 469.777 L 666.571 460.876 L 666.577 460.862 C 666.565 460.761 666.565 460.537 666.565 460.204 C 666.543 459.576 666.493 458.545 666.345 457.217 C 666.046 454.561 665.374 450.738 663.849 446.462 C 660.758 437.87 654.758 427.678 641.13 419.756 L 641.075 419.725 L 641.03 419.698 C 629.395 413.034 618.122 412.462 608.434 413.946 C 598.825 415.422 591.163 419.173 588.614 420.6 C 587.874 420.998 587.729 421.094 587.729 421.094 L 580.146 425.881 L 573.934 419.405 C 573.929 419.414 573.819 419.288 573.301 418.788 C 572.759 418.285 571.921 417.529 570.829 416.61 C 568.607 414.766 565.323 412.296 561.301 409.974 C 553.059 405.206 542.168 401.326 530.488 403.113 C 522.916 404.129 508.992 410.149 495.37 417.782 C 483.97 424.092 468.874 433.766 459.132 440.242 C 458.321 432.573 456.073 425.118 452.558 418.238 C 461.774 412.24 474.764 404.064 484.729 398.545"
     style="fill:#000000;fill-opacity:1;fill-rule:nonzero;stroke:none"
     id="path17977" />
  <path
     d="M 451.1 478.092 C 449.857 480.24 448.495 482.269 447.048 484.209 L 464.747 494.407 C 461.676 504.84 449.664 552.592 478.315 596.714 C 499.372 629.032 523.189 646.242 537.05 654.242 C 544.177 658.36 548.682 660.042 548.849 660.116 L 548.853 660.116 C 552.006 661.357 555.73 659.84 557.592 656.61 C 557.613 656.584 557.625 656.556 557.656 656.501 C 557.724 656.386 557.854 656.157 558.001 655.81 C 559.549 652.321 558.462 648.42 555.52 646.742 C 555.46 646.709 555.138 646.504 554.666 646.344 C 554.686 646.332 552.425 645.3 548.538 643.061 C 536.781 636.269 511.104 618.782 490.237 586.23 C 468.367 552.034 475.456 515.857 479.08 502.688 L 503.727 516.925 C 500.903 531.209 498.385 563.766 523.184 596.332 C 537.338 614.969 552.837 626.922 565.969 634.504 C 583.628 644.698 597.005 647.001 597.346 647.05 C 600.226 647.628 603.32 646.04 604.961 643.212 C 605.282 642.662 605.602 641.964 605.812 641.133 C 606.685 638.068 605.47 634.837 602.91 633.357 C 602.412 633.068 601.773 632.802 601.033 632.665 C 600.834 632.602 589.265 629.337 574.381 620.748 C 561.698 613.422 546.794 602.272 534.821 586.138 C 516.181 560.972 516.931 536.347 518.338 525.36 L 550.857 544.136 C 550.868 555.608 553.869 576.009 572.566 595.633 C 580.946 604.458 590.213 611.209 599.166 616.381 C 621.457 629.23 641.746 632.297 642.046 632.349 C 644.937 632.876 647.962 631.225 649.552 628.485 C 649.882 627.901 650.222 627.173 650.426 626.272 C 651.219 623.234 650.022 620.102 647.494 618.63 C 646.949 618.316 646.257 618.042 645.48 617.912 C 645.656 617.944 641.06 616.982 633.921 614.592 C 626.773 612.196 617.201 608.404 607.601 602.865 C 599.046 597.922 590.477 591.589 583.558 583.714 C 574.58 573.501 570.453 562.182 568.156 554.065 L 668.463 610.618 L 668.474 610.622 C 671.655 612.417 675.233 612.248 677.294 608.685 C 679.23 605.332 677.794 602.42 675.055 600.428 C 674.889 600.222 674.609 600.058 674.259 599.928 L 575.408 541.504 C 583.589 539.428 595.468 537.344 608.794 540.024 C 619.072 542.065 628.841 546.318 637.394 551.253 C 656.606 562.329 669.413 576.709 669.491 576.682 C 669.921 577.173 670.457 577.597 671.002 577.912 C 673.53 579.365 676.838 578.868 679.215 576.516 C 679.73 576.018 680.199 575.398 680.566 574.777 C 682.142 572.037 682.082 568.556 680.022 566.198 C 679.955 566.116 667.162 550.058 644.884 537.185 C 635.93 532.032 625.453 527.368 613.62 524.532 C 587.266 518.155 568.101 525.751 558.158 531.483 L 525.646 512.707 C 534.458 505.996 555.4 493.029 586.521 496.592 C 606.476 498.895 623.586 506.212 636.278 513.551 C 651.461 522.321 660.083 530.944 660.15 530.907 C 660.438 531.251 660.937 531.631 661.465 531.939 C 664.015 533.409 667.414 532.868 669.785 530.428 C 670.241 529.98 670.671 529.407 671.014 528.8 C 672.637 525.991 672.511 522.464 670.418 520.141 C 670.314 520.024 661.641 509.568 643.982 499.373 C 630.85 491.792 612.748 484.347 589.528 481.415 C 548.924 476.223 521.992 494.673 511.036 504.272 L 486.372 490.045 C 495.961 480.327 523.753 456.097 564.309 457.939 C 602.932 459.715 630.917 473.212 642.676 480.007 C 646.788 482.376 648.801 483.871 648.812 483.865 C 649.057 484.032 649.205 484.133 649.366 484.207 C 652.335 485.923 656.31 484.897 658.545 481.693 C 658.61 481.611 658.759 481.392 658.943 481.068 C 660.837 477.808 660.253 473.732 657.469 471.641 C 656.73 471.045 653.074 468.185 646.628 464.461 C 632.762 456.459 605.962 444.444 567.426 442.365 C 515.1 439.631 479.82 473.625 472.053 481.775 L 454.347 471.564 C 453.397 473.775 452.332 475.959 451.1 478.092"
     style="fill:#000000;fill-opacity:1;fill-rule:nonzero;stroke:none"
     id="path17981" />
</svg>
