<?xml version="1.0" encoding="UTF-8" standalone="no"?>
<!-- Created with Inkscape (http://www.inkscape.org/) -->

<svg
   version="1.1"
   id="svg21345"
   width="795.03467"
   height="793.70135"
   viewBox="0 0 795.03467 793.70135"
   sodipodi:docname="Maruni Demitsukashiwa.svg"
   inkscape:version="1.2 (dc2aeda, 2022-05-15)"
   xmlns:inkscape="http://www.inkscape.org/namespaces/inkscape"
   xmlns:sodipodi="http://sodipodi.sourceforge.net/DTD/sodipodi-0.dtd"
   xmlns="http://www.w3.org/2000/svg"
   xmlns:svg="http://www.w3.org/2000/svg">
  <defs
     id="defs21349">
    <clipPath
       clipPathUnits="userSpaceOnUse"
       id="clipPath21922">
      <path
         d="M -586.5449,579.5026 H 9.7311002 V -15.7734 H -586.5449 Z"
         id="path21924"
         style="stroke-width:0.999998" />
    </clipPath>
    <clipPath
       clipPathUnits="userSpaceOnUse"
       id="clipPath21928">
      <path
         d="M -576.3691,585.5885 H 19.906905 V -9.6875027 H -576.3691 Z"
         id="path21930"
         style="stroke-width:0.999998" />
    </clipPath>
    <clipPath
       clipPathUnits="userSpaceOnUse"
       id="clipPath21934">
      <path
         d="M -574.5459,585.8522 H 21.730103 V -9.4238027 H -574.5459 Z"
         id="path21936"
         style="stroke-width:0.999998" />
    </clipPath>
    <clipPath
       clipPathUnits="userSpaceOnUse"
       id="clipPath21940">
      <path
         d="m -330.9414,297.568 h 596.276 v -595.276 h -596.276 z"
         id="path21942"
         style="stroke-width:0.999998" />
    </clipPath>
    <clipPath
       clipPathUnits="userSpaceOnUse"
       id="clipPath21946">
      <path
         d="M -538.2217,577.9479 H 58.054299 V -17.328098 H -538.2217 Z"
         id="path21948"
         style="stroke-width:0.999998" />
    </clipPath>
    <clipPath
       clipPathUnits="userSpaceOnUse"
       id="clipPath21952">
      <path
         d="M -540.8213,585.8483 H 55.454701 V -9.4277027 H -540.8213 Z"
         id="path21954"
         style="stroke-width:0.999998" />
    </clipPath>
    <clipPath
       clipPathUnits="userSpaceOnUse"
       id="clipPath21958">
      <path
         d="M -584.1943,578.9381 H 12.081705 V -16.337903 H -584.1943 Z"
         id="path21960"
         style="stroke-width:0.999998" />
    </clipPath>
    <clipPath
       clipPathUnits="userSpaceOnUse"
       id="clipPath21964">
      <path
         d="M -564.5732,585.8483 H 31.702801 V -9.4277027 H -564.5732 Z"
         id="path21966"
         style="stroke-width:0.999998" />
    </clipPath>
    <clipPath
       clipPathUnits="userSpaceOnUse"
       id="clipPath21970">
      <path
         d="M -542.9326,584.5729 H 53.343399 V -10.7031 H -542.9326 Z"
         id="path21972"
         style="stroke-width:0.999998" />
    </clipPath>
    <clipPath
       clipPathUnits="userSpaceOnUse"
       id="clipPath21976">
      <path
         d="M -545.417,584.5729 H 50.859001 V -10.7031 H -545.417 Z"
         id="path21978"
         style="stroke-width:0.999998" />
    </clipPath>
    <clipPath
       clipPathUnits="userSpaceOnUse"
       id="clipPath21982">
      <path
         d="M -567.7754,585.8522 H 28.500601 V -9.4238027 H -567.7754 Z"
         id="path21984"
         style="stroke-width:0.999998" />
    </clipPath>
    <clipPath
       clipPathUnits="userSpaceOnUse"
       id="clipPath21988">
      <path
         d="M -548.9834,585.8522 H 47.292601 V -9.4238027 H -548.9834 Z"
         id="path21990"
         style="stroke-width:0.999998" />
    </clipPath>
    <clipPath
       clipPathUnits="userSpaceOnUse"
       id="clipPath21994">
      <path
         d="M -568.2266,575.819 H 28.049401 V -19.457003 H -568.2266 Z"
         id="path21996"
         style="stroke-width:0.999998" />
    </clipPath>
    <clipPath
       clipPathUnits="userSpaceOnUse"
       id="clipPath22000">
      <path
         d="M -550.2637,577.3248 H 46.012306 V -17.951198 H -550.2637 Z"
         id="path22002"
         style="stroke-width:0.999998" />
    </clipPath>
    <clipPath
       clipPathUnits="userSpaceOnUse"
       id="clipPath22006">
      <path
         d="M -561.4131,585.8522 H 34.862903 V -9.4238027 H -561.4131 Z"
         id="path22008"
         style="stroke-width:0.999998" />
    </clipPath>
    <clipPath
       clipPathUnits="userSpaceOnUse"
       id="clipPath22012">
      <path
         d="M -556.4014,578.0143 H 39.874606 V -17.2617 H -556.4014 Z"
         id="path22014"
         style="stroke-width:0.999998" />
    </clipPath>
    <clipPath
       clipPathUnits="userSpaceOnUse"
       id="clipPath22019">
      <path
         d="M -531.1924,581.5885 H 65.083599 V -13.6875 H -531.1924 Z"
         id="path22021"
         style="stroke-width:0.999998" />
    </clipPath>
    <clipPath
       clipPathUnits="userSpaceOnUse"
       id="clipPath22025">
      <path
         d="M -557.4951,577.8502 H 38.780903 V -17.4258 H -557.4951 Z"
         id="path22027"
         style="stroke-width:0.999998" />
    </clipPath>
    <clipPath
       clipPathUnits="userSpaceOnUse"
       id="clipPath22031">
      <path
         d="M -572.8174,586.1354 H 23.458606 V -9.1406027 H -572.8174 Z"
         id="path22033"
         style="stroke-width:0.999998" />
    </clipPath>
    <clipPath
       clipPathUnits="userSpaceOnUse"
       id="clipPath22037">
      <path
         d="M -528.0898,575.3815 H 68.186199 V -19.8945 H -528.0898 Z"
         id="path22039"
         style="stroke-width:0.999998" />
    </clipPath>
    <clipPath
       clipPathUnits="userSpaceOnUse"
       id="clipPath22044">
      <path
         d="M -536.6982,584.5729 H 59.577804 V -10.7031 H -536.6982 Z"
         id="path22046"
         style="stroke-width:0.999998" />
    </clipPath>
    <clipPath
       clipPathUnits="userSpaceOnUse"
       id="clipPath22050">
      <path
         d="m -415.668,490.7555 h 596.276 v -595.276 h -596.276 z"
         id="path22052"
         style="stroke-width:0.999998" />
    </clipPath>
    <clipPath
       clipPathUnits="userSpaceOnUse"
       id="clipPath22056">
      <path
         d="m -71.2983,303.2028 h 596.276 v -595.276 h -596.276 z"
         id="path22058"
         style="stroke-width:0.999998" />
    </clipPath>
    <clipPath
       clipPathUnits="userSpaceOnUse"
       id="clipPath22062">
      <path
         d="m -405.9102,98.748703 h 596.276 V -496.5273 h -596.276 z"
         id="path22064"
         style="stroke-width:0.999998" />
    </clipPath>
    <clipPath
       clipPathUnits="userSpaceOnUse"
       id="clipPath22068">
      <path
         d="M -518.1836,424.6569 H 78.092402 v -595.276 H -518.1836 Z"
         id="path22070"
         style="stroke-width:0.999998" />
    </clipPath>
    <clipPath
       clipPathUnits="userSpaceOnUse"
       id="clipPath22074">
      <path
         d="M -77.282199,425.0289 H 518.9938 v -595.276 H -77.282199 Z"
         id="path22076"
         style="stroke-width:0.999998" />
    </clipPath>
    <clipPath
       clipPathUnits="userSpaceOnUse"
       id="clipPath22080">
      <path
         d="M -297.416,43.0192 H 298.86 v -595.276 h -596.276 z"
         id="path22082"
         style="stroke-width:0.999998" />
    </clipPath>
    <clipPath
       clipPathUnits="userSpaceOnUse"
       id="clipPath22086">
      <path
         d="M -553.8975,585.8483 H 42.378504 V -9.4277027 H -553.8975 Z"
         id="path22088"
         style="stroke-width:0.999998" />
    </clipPath>
    <clipPath
       clipPathUnits="userSpaceOnUse"
       id="clipPath22092">
      <path
         d="M -557.0645,585.8483 H 39.211501 V -9.4277027 H -557.0645 Z"
         id="path22094"
         style="stroke-width:0.999998" />
    </clipPath>
  </defs>
  <sodipodi:namedview
     id="namedview21347"
     pagecolor="#ffffff"
     bordercolor="#000000"
     borderopacity="0.25"
     inkscape:showpageshadow="2"
     inkscape:pageopacity="0.0"
     inkscape:pagecheckerboard="0"
     inkscape:deskcolor="#d1d1d1"
     showgrid="false"
     inkscape:zoom="0.29734106"
     inkscape:cx="-215.24105"
     inkscape:cy="396.85068"
     inkscape:window-width="1419"
     inkscape:window-height="456"
     inkscape:window-x="0"
     inkscape:window-y="25"
     inkscape:window-maximized="0"
     inkscape:current-layer="svg21345">
    <inkscape:page
       x="0"
       y="0"
       id="page21351"
       width="795.03467"
       height="793.70135" />
  </sodipodi:namedview>
  <path
     d="M 441.255 396.757 C 441.255 421.285 421.375 441.177 396.834 441.177 C 372.307 441.177 352.413 421.285 352.413 396.757 C 352.413 372.22 372.307 352.341 396.834 352.341 C 421.375 352.341 441.255 372.22 441.255 396.757"
     style="fill:#000000;fill-opacity:1;fill-rule:nonzero;stroke:none"
     id="path21465" />
  <path
     d="M 396.555 57.3589 L 396.555 57.3589 C 398.18 57.3589 399.447 58.6722 399.447 60.2962 L 400.67 194.72 L 400.68 201.145 C 408.81 195.055 419.75 181.82 426.323 159.965 C 437.855 121.675 424.922 77.1215 424.922 77.1215 C 424.451 75.5922 425.323 73.9415 426.862 73.4682 C 428.396 72.9935 430.042 73.8562 430.516 75.3962 C 430.516 75.3962 445.039 117.047 433.372 161.441 C 425.323 192.057 409.623 205.196 400.68 210.405 L 400.67 243.748 C 405.163 242.389 436.031 231.685 452.823 188.108 C 471.044 140.768 460.14 93.8481 460.14 93.8481 C 459.694 92.2975 460.583 90.6668 462.154 90.2268 C 463.695 89.7748 465.315 90.6788 465.765 92.2228 C 465.765 92.2228 479.781 134.56 458.943 190.407 C 442.248 235.16 412.022 248.968 400.68 252.697 L 400.658 284.058 C 401.082 283.968 450.568 275.413 475.185 221.917 C 499.805 168.387 495.5 122.081 495.5 122.081 C 495.349 120.469 496.516 119.024 498.128 118.867 C 499.729 118.695 501.159 119.873 501.328 121.485 L 501.328 121.475 C 501.328 121.475 508.039 165.964 481.945 223.758 C 455.858 281.552 401.938 292.857 401.938 292.857 C 400.716 293.168 400.779 293.177 400.658 293.212 L 400.67 325.325 C 401.794 325.032 403.027 324.673 404.44 324.244 C 404.44 324.244 450.886 312.246 483.784 271.35 C 516.527 230.65 524.211 160.744 524.211 160.744 C 524.289 159.139 525.651 157.88 527.257 157.943 C 528.883 158.016 530.125 159.38 530.071 160.997 C 530.071 160.997 527.516 228.59 489.361 275.385 C 451.208 322.174 405.016 333.224 405.016 333.224 C 403.404 333.692 401.954 334.032 400.67 334.322 L 400.67 343.754 C 415.591 345.074 428.748 352.534 437.566 363.609 C 460.67 352.317 499.752 331.553 513.213 314.465 C 532.639 289.774 523.068 256.401 523.068 256.401 C 523.068 256.401 557.76 237.913 557.823 198.872 C 557.891 159.824 528.148 144.152 528.148 144.152 C 528.148 144.152 536.987 111.955 515.071 83.1242 C 493.164 54.2922 454.096 62.5149 454.096 62.5149 C 454.096 62.5149 432.191 35.6323 396.555 35.5763 C 360.922 35.6323 339.014 62.5149 339.014 62.5149 C 339.014 62.5149 299.943 54.2922 278.038 83.1242 C 256.121 111.955 264.962 144.152 264.962 144.152 C 264.962 144.152 235.214 159.824 235.287 198.872 C 235.35 237.913 270.045 256.401 270.045 256.401 C 270.045 256.401 260.47 289.774 279.895 314.465 C 293.35 331.553 332.442 352.317 355.542 363.609 C 364.362 352.534 377.516 345.074 392.439 343.754 L 392.434 334.322 C 391.155 334.032 389.706 333.692 388.091 333.224 C 388.091 333.224 341.899 322.174 303.746 275.385 C 265.59 228.59 263.038 160.997 263.038 160.997 C 262.974 159.38 264.227 158.016 265.853 157.943 C 267.453 157.88 268.819 159.139 268.899 160.744 C 268.899 160.744 276.582 230.65 309.325 271.35 C 342.222 312.246 388.67 324.244 388.67 324.244 C 390.082 324.673 391.318 325.032 392.439 325.325 L 392.451 293.212 C 392.328 293.177 392.396 293.168 391.171 292.857 C 391.171 292.857 337.246 281.552 311.165 223.758 C 285.074 165.964 291.785 121.475 291.785 121.475 L 291.785 121.485 C 291.951 119.873 293.371 118.695 294.979 118.867 C 296.591 119.024 297.753 120.469 297.61 122.081 C 297.61 122.081 293.305 168.387 317.925 221.917 C 342.534 275.413 392.028 283.968 392.451 284.058 L 392.428 252.697 C 381.082 248.968 350.862 235.16 334.16 190.407 C 313.326 134.56 327.345 92.2228 327.345 92.2228 C 327.787 90.6788 329.413 89.7748 330.959 90.2268 C 332.524 90.6668 333.416 92.2975 332.971 93.8481 C 332.971 93.8481 322.066 140.768 340.287 188.108 C 357.079 231.685 387.948 242.389 392.434 243.748 L 392.428 210.405 C 383.484 205.196 367.788 192.057 359.738 161.441 C 348.071 117.047 362.596 75.3962 362.596 75.3962 C 363.062 73.8562 364.714 72.9935 366.243 73.4682 C 367.788 73.9415 368.66 75.5922 368.187 77.1215 C 368.187 77.1215 355.255 121.675 366.787 159.965 C 373.359 181.82 384.303 195.055 392.428 201.145 L 392.439 194.72 L 393.664 60.2962 C 393.664 58.6722 394.93 57.3589 396.555 57.3589"
     style="fill:#000000;fill-opacity:1;fill-rule:nonzero;stroke:none"
     id="path21469" />
  <path
     d="M 103.043 566.705 L 103.043 566.705 C 102.231 565.298 102.73 563.536 104.144 562.728 L 219.948 494.461 L 225.508 491.24 C 216.167 487.245 199.237 484.391 177.023 489.616 C 138.092 498.78 105.979 532.253 105.979 532.253 C 104.883 533.429 103.026 533.497 101.842 532.4 C 100.663 531.31 100.584 529.454 101.682 528.272 C 101.682 528.272 130.487 494.869 174.771 482.776 C 205.312 474.439 224.539 481.468 233.523 486.609 L 262.401 469.943 C 258.983 466.733 234.281 445.352 188.143 452.608 C 138.039 460.493 102.855 493.392 102.855 493.392 C 101.73 494.556 99.8737 494.597 98.7123 493.464 C 97.551 492.345 97.5163 490.492 98.6283 489.328 C 98.6283 489.328 128.286 456.025 187.071 446.149 C 234.181 438.236 261.244 457.503 270.147 465.463 L 297.319 449.795 C 297.028 449.481 264.872 410.9 206.241 416.331 C 147.578 421.777 109.62 448.652 109.62 448.652 C 108.303 449.589 106.468 449.296 105.523 447.984 C 104.578 446.679 104.878 444.855 106.19 443.904 L 106.179 443.908 C 106.179 443.908 141.362 415.857 204.456 409.553 C 267.547 403.247 304.302 444.293 304.302 444.293 C 305.18 445.199 305.158 445.131 305.246 445.223 L 333.053 429.159 C 332.236 428.333 331.306 427.439 330.234 426.44 C 330.234 426.44 296.619 392.204 244.755 384.163 C 193.135 376.164 128.754 404.457 128.754 404.457 C 127.318 405.188 125.55 404.641 124.799 403.217 C 124.06 401.781 124.604 400.011 126.04 399.259 C 126.04 399.259 185.853 367.672 245.456 377.317 C 305.058 386.96 337.718 421.439 337.718 421.439 C 338.929 422.599 339.952 423.693 340.844 424.655 L 349.01 419.947 C 342.7 406.361 342.577 391.237 347.758 378.067 C 326.421 363.704 288.913 340.232 267.372 337.12 C 236.279 332.642 212.164 357.622 212.164 357.622 C 212.164 357.622 178.813 336.819 144.964 356.287 C 111.116 375.752 112.412 409.347 112.412 409.347 C 112.412 409.347 80.1031 417.785 66.1031 451.179 C 52.0805 484.572 78.7404 514.29 78.7404 514.29 C 78.7404 514.29 66.4138 546.704 84.1764 577.598 C 102.047 608.421 136.279 613.953 136.279 613.953 C 136.279 613.953 148.69 651.902 184.62 656.458 C 220.541 661.025 244.007 637.266 244.007 637.266 C 244.007 637.266 272.443 655.183 306.237 635.605 C 340.013 616.034 338.676 576.741 338.676 576.741 C 338.676 576.741 372.369 568.353 384.033 539.177 C 392.105 518.974 390.538 474.747 388.77 449.096 C 374.77 446.995 361.732 439.328 353.125 427.068 L 344.962 431.787 C 345.35 433.044 345.786 434.468 346.186 436.099 C 346.186 436.099 359.713 481.627 338.264 538.064 C 316.812 594.498 259.557 630.504 259.557 630.504 C 258.181 631.374 256.383 630.973 255.508 629.605 C 254.645 628.241 255.053 626.436 256.408 625.558 C 256.408 625.558 313.104 583.952 331.978 535.249 C 350.95 486.311 338.117 440.088 338.117 440.088 C 337.784 438.657 337.473 437.403 337.161 436.281 L 309.35 452.337 C 309.385 452.451 309.34 452.4 309.682 453.619 C 309.682 453.619 326.853 505.969 289.848 557.449 C 252.839 608.945 210.959 625.384 210.959 625.384 L 210.965 625.374 C 209.483 626.034 207.747 625.392 207.103 623.91 C 206.431 622.438 207.092 620.71 208.565 620.03 C 208.565 620.03 250.821 600.601 284.872 552.51 C 318.892 504.454 301.556 457.319 301.421 456.911 L 274.273 472.607 C 276.721 484.299 279.865 517.368 249.459 554.205 C 211.517 600.177 167.851 609.205 167.851 609.205 C 166.284 609.588 164.692 608.638 164.302 607.076 C 163.902 605.502 164.87 603.91 166.438 603.524 C 166.438 603.524 212.517 589.501 244.412 550.056 C 273.756 513.726 267.592 481.644 266.521 477.073 L 237.651 493.753 C 237.605 504.105 234.08 524.273 211.591 546.546 C 178.976 578.849 135.646 587.093 135.646 587.093 C 134.078 587.456 132.506 586.461 132.148 584.893 C 131.788 583.321 132.778 581.744 134.346 581.39 C 134.346 581.39 179.392 570.313 206.792 541.178 C 222.427 524.558 228.419 508.468 229.632 498.379 L 224.06 501.584 L 107.035 567.733 C 105.628 568.55 103.854 568.112 103.043 566.705"
     style="fill:#000000;fill-opacity:1;fill-rule:nonzero;stroke:none"
     id="path21473" />
  <path
     d="M 690.911 566.209 L 690.911 566.209 C 690.099 567.624 688.318 568.066 686.914 567.244 L 569.89 501.097 L 564.321 497.892 C 565.534 507.984 571.526 524.07 587.157 540.692 C 614.562 569.822 659.602 580.901 659.602 580.901 C 661.168 581.261 662.159 582.834 661.799 584.408 C 661.439 585.976 659.875 586.964 658.307 586.61 C 658.307 586.61 614.974 578.364 582.359 546.064 C 559.867 523.789 556.338 503.618 556.299 493.268 L 527.427 476.587 C 526.357 481.157 520.198 513.238 549.545 549.564 C 581.435 589.017 627.504 603.033 627.504 603.033 C 629.072 603.424 630.05 605.014 629.651 606.582 C 629.263 608.153 627.671 609.104 626.104 608.722 C 626.104 608.722 582.435 599.685 544.49 553.721 C 514.081 516.889 517.234 483.811 519.674 472.121 L 492.523 456.428 C 492.39 456.835 475.054 503.974 509.078 552.025 C 543.125 600.114 585.381 619.541 585.381 619.541 C 586.849 620.218 587.515 621.95 586.849 623.429 C 586.195 624.904 584.461 625.546 582.987 624.885 L 582.993 624.889 C 582.993 624.889 541.111 608.46 504.102 556.964 C 467.094 505.485 484.266 453.131 484.266 453.131 C 484.609 451.912 484.562 451.971 484.6 451.848 L 456.781 435.795 C 456.474 436.915 456.164 438.169 455.836 439.6 C 455.836 439.6 443.002 485.823 461.964 534.761 C 480.844 583.468 537.547 625.072 537.547 625.072 C 538.887 625.946 539.302 627.752 538.445 629.114 C 537.573 630.476 535.766 630.884 534.393 630.022 C 534.393 630.022 477.13 594.014 455.688 537.576 C 434.234 481.14 447.764 435.612 447.764 435.612 C 448.164 433.984 448.606 432.556 448.985 431.303 L 440.824 426.581 C 432.218 438.844 419.185 446.507 405.185 448.608 C 403.414 474.265 401.846 518.49 409.914 538.698 C 421.589 567.866 455.276 576.256 455.276 576.256 C 455.276 576.256 453.933 615.537 487.717 635.114 C 521.497 654.702 549.95 636.783 549.95 636.783 C 549.95 636.783 573.406 660.539 609.333 655.97 C 645.266 651.415 657.666 613.47 657.666 613.47 C 657.666 613.47 691.9 607.937 709.775 577.108 C 727.536 546.22 715.208 513.802 715.208 513.802 C 715.208 513.802 741.867 484.088 727.851 450.693 C 713.838 417.303 681.536 408.861 681.536 408.861 C 681.536 408.861 682.835 375.264 648.979 355.799 C 615.138 336.332 581.783 357.132 581.783 357.132 C 581.783 357.132 557.677 332.156 526.575 336.635 C 505.042 339.746 467.521 363.22 446.196 377.575 C 451.373 390.753 451.256 405.872 444.938 419.461 L 453.105 424.167 C 454.002 423.205 455.01 422.113 456.226 420.955 C 456.226 420.955 488.893 386.475 548.493 376.835 C 608.097 367.188 667.9 398.771 667.9 398.771 C 669.343 399.527 669.892 401.289 669.148 402.732 C 668.398 404.153 666.627 404.709 665.195 403.969 C 665.195 403.969 600.818 375.679 549.198 383.677 C 497.33 391.72 463.718 425.947 463.718 425.947 C 462.646 426.952 461.712 427.847 460.896 428.675 L 488.706 444.736 C 488.789 444.648 488.769 444.712 489.652 443.809 C 489.652 443.809 526.401 402.759 589.493 409.068 C 652.591 415.371 687.772 443.424 687.772 443.424 L 687.763 443.413 C 689.067 444.369 689.375 446.192 688.419 447.496 C 687.479 448.815 685.656 449.105 684.327 448.173 C 684.327 448.173 646.375 421.291 587.706 415.845 C 529.073 410.411 496.919 448.997 496.633 449.311 L 523.802 464.976 C 532.695 457.015 559.771 437.749 606.878 445.661 C 665.656 455.539 695.312 488.847 695.312 488.847 C 696.432 490.012 696.403 491.859 695.242 492.975 C 694.075 494.105 692.214 494.068 691.094 492.904 C 691.094 492.904 655.914 460.007 605.81 452.115 C 559.666 444.868 534.969 466.247 531.545 469.457 L 560.425 486.121 C 569.406 480.984 588.641 473.952 619.174 482.292 C 663.452 494.385 692.271 527.792 692.271 527.792 C 693.367 528.962 693.283 530.82 692.106 531.912 C 690.922 533.013 689.062 532.944 687.974 531.765 C 687.974 531.765 655.862 498.288 616.93 489.127 C 594.711 483.897 577.781 486.753 568.439 490.751 L 574.002 493.975 L 689.81 562.24 C 691.211 563.052 691.72 564.808 690.911 566.209"
     style="fill:#000000;fill-opacity:1;fill-rule:nonzero;stroke:none"
     id="path21477" />
  <path
     d="M 541.214 131.665 C 541.261 130.516 541.293 129.305 541.293 128.057 C 541.31 114.421 538.173 94.7038 524.129 76.2345 C 506.957 53.7665 481.81 49.9999 466.86 50.0345 C 463.569 50.0412 460.686 50.2159 458.34 50.4412 C 453.99 46.1625 446.624 39.8412 436.488 34.4599 C 619.104 54.2359 761.224 208.886 761.244 396.754 C 761.235 448.739 750.352 496.709 730.738 541.455 C 730.766 540.464 730.738 542.411 730.738 541.455 C 730.722 531.3 729.154 521.48 727.784 516.136 C 733.479 508.239 743.063 492.015 743.297 470.829 C 743.307 463.064 741.877 454.69 738.35 446.284 C 728.206 422.598 710.834 409.946 698.539 403.58 C 698.588 401.308 698.615 399.035 698.615 396.754 C 698.588 313.317 664.88 238.073 610.214 183.362 C 589.847 163.012 566.638 145.552 541.214 131.665"
     style="fill:#000000;fill-opacity:1;fill-rule:nonzero;stroke:none"
     id="path21481" />
  <path
     d="M 95.0644 404.27 C 94.0471 404.805 92.9804 405.383 91.9004 406.006 C 80.0804 412.814 64.5751 425.387 55.5978 446.787 C 44.7299 472.895 54.0378 496.547 61.5445 509.479 C 63.1938 512.328 64.7898 514.74 66.1578 516.658 C 64.6298 522.564 62.8338 532.102 63.2458 543.574 C -10.9367 375.534 51.9365 175.132 214.624 81.1801 C 259.644 55.1922 306.632 40.6322 355.185 35.2496 C 354.318 35.7149 356.021 34.7696 355.185 35.2496 C 346.4 40.3429 338.684 46.6096 334.737 50.4602 C 325.052 49.4856 306.211 49.2936 287.743 59.6789 C 281.016 63.5522 274.479 68.9802 268.963 76.2402 C 253.52 96.8654 251.249 118.241 251.883 132.071 C 249.893 133.159 247.913 134.275 245.94 135.413 C 173.687 177.155 125.383 243.97 105.334 318.668 C 97.8951 346.482 94.3764 375.307 95.0644 404.27"
     style="fill:#000000;fill-opacity:1;fill-rule:nonzero;stroke:none"
     id="path21485" />
  <path
     d="M 554.224 654.341 C 555.193 654.953 556.227 655.592 557.305 656.214 C 569.115 663.044 587.752 670.186 610.768 667.261 C 638.82 663.621 654.648 643.733 662.093 630.766 C 663.74 627.916 665.029 625.322 666 623.178 C 671.882 621.556 681.041 618.334 690.77 612.253 C 582.333 760.514 377.344 806.267 214.633 712.342 C 169.618 686.352 133.514 652.94 104.58 613.582 C 105.413 614.097 103.746 613.097 104.58 613.582 C 113.374 618.64 122.669 622.194 127.976 623.685 C 131.973 632.558 141.23 648.977 159.457 659.776 C 166.178 663.666 174.146 666.61 183.185 667.758 C 208.773 670.82 228.418 662.098 240.074 654.636 C 242.017 655.809 243.973 656.969 245.946 658.112 C 318.221 699.812 400.235 708.233 474.951 688.253 C 502.76 680.789 529.481 669.422 554.224 654.341"
     style="fill:#000000;fill-opacity:1;fill-rule:nonzero;stroke:none"
     id="path21489" />
</svg>
