<?xml version="1.0" encoding="UTF-8" standalone="no"?>
<!-- Created with Inkscape (http://www.inkscape.org/) -->

<svg
   version="1.1"
   id="svg16387"
   width="793.70135"
   height="793.70135"
   viewBox="0 0 793.70135 793.70135"
   sodipodi:docname="Maruni Katade Tsurukashiwa.svg"
   inkscape:version="1.2 (dc2aeda, 2022-05-15)"
   xmlns:inkscape="http://www.inkscape.org/namespaces/inkscape"
   xmlns:sodipodi="http://sodipodi.sourceforge.net/DTD/sodipodi-0.dtd"
   xmlns="http://www.w3.org/2000/svg"
   xmlns:svg="http://www.w3.org/2000/svg">
  <defs
     id="defs16391">
    <clipPath
       clipPathUnits="userSpaceOnUse"
       id="clipPath16978">
      <path
         d="M -561.4131,585.8522 H 33.862898 V -9.4238027 H -561.4131 Z"
         id="path16980"
         style="stroke-width:0.999998" />
    </clipPath>
    <clipPath
       clipPathUnits="userSpaceOnUse"
       id="clipPath16984">
      <path
         d="M -557.0645,585.8483 H 38.211496 V -9.4277027 H -557.0645 Z"
         id="path16986"
         style="stroke-width:0.999998" />
    </clipPath>
    <clipPath
       clipPathUnits="userSpaceOnUse"
       id="clipPath16991">
      <path
         d="M -556.4014,578.0143 H 38.874601 V -17.2617 H -556.4014 Z"
         id="path16993"
         style="stroke-width:0.999998" />
    </clipPath>
    <clipPath
       clipPathUnits="userSpaceOnUse"
       id="clipPath16997">
      <path
         d="M -586.5449,579.5026 H 8.7310952 V -15.7734 H -586.5449 Z"
         id="path16999"
         style="stroke-width:0.999998" />
    </clipPath>
    <clipPath
       clipPathUnits="userSpaceOnUse"
       id="clipPath17003">
      <path
         d="M -584.1943,578.9381 H 11.0817 V -16.337903 h -595.276 z"
         id="path17005"
         style="stroke-width:0.999998" />
    </clipPath>
    <clipPath
       clipPathUnits="userSpaceOnUse"
       id="clipPath17009">
      <path
         d="M -538.2217,577.9479 H 57.054294 V -17.328098 H -538.2217 Z"
         id="path17011"
         style="stroke-width:0.999998" />
    </clipPath>
    <clipPath
       clipPathUnits="userSpaceOnUse"
       id="clipPath17015">
      <path
         d="m -326.9766,297.6398 h 595.276 v -595.276 h -595.276 z"
         id="path17017"
         style="stroke-width:0.999998" />
    </clipPath>
    <clipPath
       clipPathUnits="userSpaceOnUse"
       id="clipPath17021">
      <path
         d="m -275.1914,272.1725 h 595.276 v -595.276 h -595.276 z"
         id="path17023"
         style="stroke-width:0.999998" />
    </clipPath>
    <clipPath
       clipPathUnits="userSpaceOnUse"
       id="clipPath17027">
      <path
         d="m -287.0195,329.9362 h 595.276 v -595.276 h -595.276 z"
         id="path17029"
         style="stroke-width:0.999998" />
    </clipPath>
    <clipPath
       clipPathUnits="userSpaceOnUse"
       id="clipPath17033">
      <path
         d="m -331.1309,290.8102 h 595.27599 v -595.276 H -331.1309 Z"
         id="path17035"
         style="stroke-width:0.999998" />
    </clipPath>
    <clipPath
       clipPathUnits="userSpaceOnUse"
       id="clipPath17039">
      <path
         d="M -271.52,275.755 H 323.756 V -319.521 H -271.52 Z"
         id="path17041"
         style="stroke-width:0.999998" />
    </clipPath>
    <clipPath
       clipPathUnits="userSpaceOnUse"
       id="clipPath17045">
      <path
         d="m -291.9556,331.3278 h 595.276 v -595.276 h -595.276 z"
         id="path17047"
         style="stroke-width:0.999998" />
    </clipPath>
    <clipPath
       clipPathUnits="userSpaceOnUse"
       id="clipPath17051">
      <path
         d="m -329.8672,285.8409 h 595.276 v -595.276 h -595.276 z"
         id="path17053"
         style="stroke-width:0.999998" />
    </clipPath>
    <clipPath
       clipPathUnits="userSpaceOnUse"
       id="clipPath17057">
      <path
         d="m -139.77,139.7677 h 595.27599 v -595.276 H -139.77 Z"
         id="path17059"
         style="stroke-width:0.999998" />
    </clipPath>
    <clipPath
       clipPathUnits="userSpaceOnUse"
       id="clipPath17063">
      <path
         d="M -564.5732,585.8483 H 30.702796 V -9.4277027 H -564.5732 Z"
         id="path17065"
         style="stroke-width:0.999998" />
    </clipPath>
    <clipPath
       clipPathUnits="userSpaceOnUse"
       id="clipPath17069">
      <path
         d="M -553.8975,585.8483 H 41.378499 V -9.4277027 H -553.8975 Z"
         id="path17071"
         style="stroke-width:0.999998" />
    </clipPath>
    <clipPath
       clipPathUnits="userSpaceOnUse"
       id="clipPath17075">
      <path
         d="M -567.7754,585.8522 H 27.500596 V -9.4238027 H -567.7754 Z"
         id="path17077"
         style="stroke-width:0.999998" />
    </clipPath>
    <clipPath
       clipPathUnits="userSpaceOnUse"
       id="clipPath17081">
      <path
         d="M -550.2637,577.3248 H 45.012301 V -17.951198 H -550.2637 Z"
         id="path17083"
         style="stroke-width:0.999998" />
    </clipPath>
    <clipPath
       clipPathUnits="userSpaceOnUse"
       id="clipPath17088">
      <path
         d="M -545.417,584.5729 H 49.858996 V -10.7031 H -545.417 Z"
         id="path17090"
         style="stroke-width:0.999998" />
    </clipPath>
    <clipPath
       clipPathUnits="userSpaceOnUse"
       id="clipPath17094">
      <path
         d="M -542.9326,584.5729 H 52.343394 V -10.7031 H -542.9326 Z"
         id="path17096"
         style="stroke-width:0.999998" />
    </clipPath>
    <clipPath
       clipPathUnits="userSpaceOnUse"
       id="clipPath17100">
      <path
         d="M -557.4951,577.8502 H 37.780898 V -17.4258 H -557.4951 Z"
         id="path17102"
         style="stroke-width:0.999998" />
    </clipPath>
    <clipPath
       clipPathUnits="userSpaceOnUse"
       id="clipPath17106">
      <path
         d="M -568.2266,575.819 H 27.049396 V -19.457003 H -568.2266 Z"
         id="path17108"
         style="stroke-width:0.999998" />
    </clipPath>
    <clipPath
       clipPathUnits="userSpaceOnUse"
       id="clipPath17112">
      <path
         d="M -574.5459,585.8522 H 20.730098 V -9.4238027 H -574.5459 Z"
         id="path17114"
         style="stroke-width:0.999998" />
    </clipPath>
    <clipPath
       clipPathUnits="userSpaceOnUse"
       id="clipPath17118">
      <path
         d="M -572.8174,586.1354 H 22.458601 V -9.1406027 H -572.8174 Z"
         id="path17120"
         style="stroke-width:0.999998" />
    </clipPath>
    <clipPath
       clipPathUnits="userSpaceOnUse"
       id="clipPath17124">
      <path
         d="M -576.3691,585.5885 H 18.9069 V -9.6875027 h -595.276 z"
         id="path17126"
         style="stroke-width:0.999998" />
    </clipPath>
    <clipPath
       clipPathUnits="userSpaceOnUse"
       id="clipPath17130">
      <path
         d="M -548.9834,585.8522 H 46.292596 V -9.4238027 H -548.9834 Z"
         id="path17132"
         style="stroke-width:0.999998" />
    </clipPath>
    <clipPath
       clipPathUnits="userSpaceOnUse"
       id="clipPath17136">
      <path
         d="M -528.0898,575.3815 H 67.186194 V -19.8945 H -528.0898 Z"
         id="path17138"
         style="stroke-width:0.999998" />
    </clipPath>
    <clipPath
       clipPathUnits="userSpaceOnUse"
       id="clipPath17142">
      <path
         d="M -536.6982,584.5729 H 58.577799 V -10.7031 H -536.6982 Z"
         id="path17144"
         style="stroke-width:0.999998" />
    </clipPath>
    <clipPath
       clipPathUnits="userSpaceOnUse"
       id="clipPath17148">
      <path
         d="M -540.8213,585.8483 H 54.454696 V -9.4277027 H -540.8213 Z"
         id="path17150"
         style="stroke-width:0.999998" />
    </clipPath>
    <clipPath
       clipPathUnits="userSpaceOnUse"
       id="clipPath17154">
      <path
         d="M -531.1924,581.5885 H 64.083594 V -13.6875 H -531.1924 Z"
         id="path17156"
         style="stroke-width:0.999998" />
    </clipPath>
  </defs>
  <sodipodi:namedview
     id="namedview16389"
     pagecolor="#ffffff"
     bordercolor="#000000"
     borderopacity="0.25"
     inkscape:showpageshadow="2"
     inkscape:pageopacity="0.0"
     inkscape:pagecheckerboard="0"
     inkscape:deskcolor="#d1d1d1"
     showgrid="false"
     inkscape:zoom="0.29734106"
     inkscape:cx="-75.670679"
     inkscape:cy="443.93465"
     inkscape:window-width="1419"
     inkscape:window-height="456"
     inkscape:window-x="0"
     inkscape:window-y="25"
     inkscape:window-maximized="0"
     inkscape:current-layer="svg16387">
    <inkscape:page
       x="0"
       y="0"
       id="page16393"
       width="793.70135"
       height="793.70135" />
  </sodipodi:namedview>
  <path
     d="M 186.36 186.357 C 132.44 240.336 99.1869 314.549 99.1762 396.848 C 99.1869 479.16 132.44 553.367 186.36 607.336 C 240.328 661.254 314.534 694.508 396.85 694.529 C 479.151 694.508 553.359 661.254 607.338 607.336 C 661.257 553.367 694.499 479.16 694.521 396.848 C 694.499 314.549 661.257 240.336 607.338 186.357 C 553.359 132.438 479.151 99.1946 396.85 99.1746 C 314.534 99.1946 240.328 132.438 186.36 186.357 M 31.7151 396.848 C 31.7431 195.178 195.179 31.7427 396.85 31.7294 C 598.518 31.7427 761.955 195.178 761.969 396.848 C 761.944 598.516 598.518 761.953 396.85 761.973 C 195.179 761.953 31.7431 598.516 31.7151 396.848"
     style="fill:#000000;fill-opacity:1;fill-rule:nonzero;stroke:none"
     id="path16535" />
  <path
     d="m 439.30993,397.63767 c 0,21.88852 -17.7388,39.64066 -39.64059,39.64066 -21.88387,0 -39.64142,-17.75214 -39.64142,-39.64066 0,-21.89783 17.75755,-39.64371 39.64142,-39.64371 21.90179,0 39.64059,17.74588 39.64059,39.64371"
     style="fill:#000000;fill-opacity:1;fill-rule:nonzero;stroke:none;stroke-width:0.779285"
     id="path20253" />
  <path
     d="m 368.99593,363.05546 c 7.39382,-6.59281 16.79904,-10.81725 27.28821,-11.57477 l -0.007,-11.06812 c -0.97885,-0.2237 -2.09011,-0.48007 -3.32676,-0.84082 0,0 -35.43566,-8.47553 -64.70009,-44.36466 -29.2636,-35.89618 -31.22428,-87.74659 -31.22428,-87.74659 -0.0439,-1.23364 0.91401,-2.27941 2.15467,-2.33942 1.23599,-0.0502 2.27708,0.92042 2.33943,2.14615 0,0 5.89767,53.62415 31.00771,84.84377 25.23402,31.37167 60.86436,40.57107 60.86436,40.57107 1.07623,0.33355 2.03008,0.60782 2.89589,0.83146 v -24.63471 c -0.089,-0.0243 -0.036,-0.0313 -0.97728,-0.27197 0,0 -41.36199,-8.66559 -61.36547,-52.99988 -20.02213,-44.33499 -14.86714,-78.45902 -14.86714,-78.45902 v 0.006 c 0.12386,-1.2345 1.21804,-2.14162 2.44612,-2.01053 1.24063,0.12764 2.13134,1.23118 2.02068,2.46705 0,0 -3.30099,35.52293 15.58179,76.58495 18.87819,41.03011 56.84177,47.59556 57.1613,47.66418 l -0.011,-24.05576 c -8.70384,-2.86074 -31.88054,-13.45594 -44.69431,-47.78106 -15.98777,-42.83798 -5.23365,-75.31252 -5.23365,-75.31252 0.3483,-1.1856 1.58739,-1.87863 2.77968,-1.52428 1.19544,0.32933 1.88044,1.58763 1.53524,2.77113 0,0 -8.35866,35.99077 5.61937,72.30375 12.87461,33.42824 36.55159,41.63638 39.99367,42.67749 v -25.57258 c -6.86245,-3.99623 -18.90383,-14.07548 -25.07814,-37.55997 -8.9524,-34.05392 2.18822,-66.00113 2.18822,-66.00113 0.36239,-1.17624 1.62635,-1.84535 2.80778,-1.47753 1.1829,0.3605 1.84613,1.62918 1.48374,2.80121 0,0 -9.92339,34.17707 -1.07777,63.5452 5.05057,16.76311 13.43567,26.91408 19.67617,31.58983 l 0.011,-4.93054 0.93589,-103.11145 c 0,-1.24163 0.97179,-2.25369 2.21546,-2.25369 1.24383,0 2.21939,1.01206 2.21475,2.25369 l 0.94141,103.11145 0.006,4.93054 c 6.24208,-4.67575 14.6318,-14.82672 19.67608,-31.58983 8.84412,-29.36813 -1.07766,-63.5452 -1.07766,-63.5452 -0.3601,-1.17203 0.30624,-2.44071 1.49304,-2.80121 1.17437,-0.36782 2.43527,0.30129 2.79693,1.47753 0,0 11.14213,31.94721 2.19047,66.00113 -6.16952,23.48449 -18.21182,33.56374 -25.07886,37.55997 v 25.57293 c 3.44212,-1.0411 27.12145,-9.24924 39.99832,-42.67748 13.97404,-36.31298 5.61552,-72.30375 5.61552,-72.30375 -0.34527,-1.1835 0.33818,-2.4418 1.54065,-2.77112 1.18683,-0.35435 2.43055,0.33866 2.775,1.52427 0,0 10.75257,32.47455 -5.23528,75.31253 -12.80747,34.32511 -35.99045,44.92031 -44.69421,47.78106 l -0.009,24.05575 c 0.31716,-0.0691 38.28455,-6.63407 57.15959,-47.66418 18.88366,-41.06201 15.58568,-76.58496 15.58568,-76.58496 -0.11609,-1.23588 0.78166,-2.33941 2.0168,-2.46705 1.22819,-0.13107 2.3215,0.77605 2.4556,2.01053 v -0.006 c 0,0 5.14717,34.12402 -14.87116,78.45901 -20.00961,44.33429 -61.36861,52.99988 -61.36861,52.99988 -0.94368,0.24085 -0.88678,0.24788 -0.9779,0.27198 l 0.005,24.63471 c 0.86028,-0.22364 1.81412,-0.4979 2.8911,-0.83147 0,0 35.62812,-9.19941 60.86367,-40.57106 25.11162,-31.21963 31.00695,-84.84377 31.00695,-84.84377 0.0644,-1.22572 1.105,-2.19601 2.34014,-2.14616 1.24373,0.0604 2.19756,1.10578 2.15475,2.33942 0,0 -1.95912,51.85042 -31.22516,87.7466 -29.26448,35.88914 -64.69455,44.36466 -64.69455,44.36466 -1.23676,0.36075 -2.3527,0.61712 -3.33223,0.84081 l -0.005,11.03701 c 10.51013,0.65456 20.06888,4.81442 27.52035,11.32843 18.05295,-8.88068 48.82681,-24.92851 58.80169,-37.59499 14.91236,-18.93736 7.56681,-44.54152 7.56681,-44.54152 0,0 26.60788,-14.17749 26.65073,-44.12455 0.0589,-29.95023 -22.75814,-41.97225 -22.75814,-41.97225 0,0 6.78057,-24.70013 -10.02863,-46.81108 -16.80349,-22.12021 -46.76936,-15.80902 -46.76936,-15.80902 0,0 -16.80599,-20.61984 -44.13939,-20.66451 -27.33099,0.0446 -44.13548,20.66451 -44.13548,20.66451 0,0 -29.97048,-6.31119 -46.77491,15.80902 -16.8092,22.11095 -10.02787,46.81108 -10.02787,46.81108 0,0 -22.81199,12.02202 -22.759,41.97225 0.0439,29.94706 26.65694,44.12455 26.65694,44.12455 0,0 -7.35016,25.60416 7.5599,44.54152 10.05975,12.77558 41.06356,29.04078 59.03621,37.87245"
     style="fill:#000000;fill-opacity:1;fill-rule:nonzero;stroke:none;stroke-width:0.779285"
     id="path20257" />
  <path
     d="m 207.26875,337.82147 c 21.47082,0 17.80512,-5.9982 15.26232,-6.02231 -2.13516,-0.0188 -5.15331,-1.10662 -7.76792,-2.70333 -7.85678,-4.80278 -10.70736,-14.79549 -6.0987,-22.76994 4.59853,-7.96812 14.43244,-10.01147 22.76603,-6.0979 10.87724,5.11057 16.10627,20.07598 10.31306,35.05612 -5.65138,14.59674 -18.08097,18.36532 -34.47479,18.36532 -34.63206,-0.009 -62.70933,-28.54513 -62.70933,-62.72218 0.01,-34.63297 28.07727,-62.70275 62.70933,-62.71054 11.33471,0.003 21.96415,3.00725 31.14025,8.26509 14.25389,6.80473 22.5415,26.01559 33.08678,47.85894 10.54525,21.84723 16.9503,39.9235 43.80047,55.44762 l 48.71616,28.12979 c -3.37123,4.04298 -6.04725,8.67655 -7.90037,13.71073 L 307.0779,353.31753 c -28.80233,-16.99624 -34.82775,-29.42733 -43.491,-48.63751 -8.66413,-19.21087 -18.08018,-47.45913 -33.35185,-54.61999 -6.78522,-3.82083 -14.61541,-6.00906 -22.9663,-6.02457 -25.89164,0.047 -46.8452,21.00083 -46.89298,46.89179 0.0477,25.89637 21.00134,46.84743 46.89298,46.89422"
     style="fill:#000000;fill-opacity:1;fill-rule:nonzero;stroke:none;stroke-width:0.779285"
     id="path20261" />
  <path
     d="m 385.05386,441.48959 c -9.40129,-3.10702 -17.76535,-9.14024 -23.66769,-17.84556 l -9.57658,5.53671 c 0.2953,0.9601 0.62576,2.05347 0.9351,3.30425 0,0 10.37775,34.92593 -6.07448,78.21199 -16.45463,43.29078 -60.37346,70.91483 -60.37346,70.91483 -1.05047,0.65233 -2.43605,0.34839 -3.10855,-0.69746 -0.66008,-1.04577 -0.34371,-2.43216 0.68888,-3.09914 0,0 43.49572,-31.91715 57.97404,-69.27447 14.54919,-37.53736 4.7053,-72.99321 4.7053,-72.99321 -0.25089,-1.09952 -0.49097,-2.06197 -0.7286,-2.92236 l -21.33216,12.31588 c 0.0221,0.0888 -0.01,0.0463 0.24709,0.98417 0,0 13.17921,40.15267 -15.21163,79.64129 -28.38468,39.50577 -60.51524,52.1029 -60.51524,52.1029 l 0.006,-0.005 c -1.13466,0.512 -2.46258,0.018 -2.96052,-1.11281 -0.51357,-1.13466 -0.006,-2.45709 1.11982,-2.98389 0,0 32.41671,-14.90149 58.5383,-51.78418 26.09114,-36.86175 12.79577,-73.02357 12.69449,-73.3345 l -20.82557,12.03755 c 1.87264,8.96796 4.28604,34.33914 -19.03324,62.59363 -29.10472,35.26807 -62.60602,42.19431 -62.60602,42.19431 -1.20257,0.28605 -2.41904,-0.43714 -2.71115,-1.64664 -0.30862,-1.20007 0.43789,-2.42433 1.63253,-2.7181 0,0 35.34675,-10.75413 59.80923,-41.01606 22.51127,-27.86408 17.78017,-52.47303 16.958,-55.97434 l -22.14518,12.78745 c -0.0291,7.94169 -2.73606,23.40975 -19.98943,40.49469 -25.00956,24.78131 -58.25132,31.10592 -58.25132,31.10592 -1.2003,0.27741 -2.40578,-0.4855 -2.68014,-1.6903 -0.28126,-1.20553 0.48632,-2.41493 1.68327,-2.6838 0,0 34.55583,-8.49738 55.5661,-30.84017 11.99709,-12.75533 16.59253,-25.09298 17.51906,-32.83592 l -4.26734,2.45632 -89.77186,50.74462 c -1.07632,0.62268 -2.43652,0.28676 -3.05389,-0.79489 -0.62652,-1.07536 -0.23888,-2.42823 0.83877,-3.04544 l 88.8293,-52.3671 4.26581,-2.46715 c -7.16941,-3.06731 -20.15462,-5.25943 -37.19677,-1.24691 -29.85675,7.02452 -54.49142,32.70576 -54.49142,32.70576 -0.83344,0.90085 -2.26319,0.95384 -3.17243,0.10755 -0.90085,-0.83459 -0.958,-2.26142 -0.11853,-3.15915 0,0 22.0997,-25.62213 56.06093,-34.89873 23.42916,-6.39868 38.17635,-1.00918 45.06989,2.93951 l 22.14568,-12.78574 c -2.62154,-2.46331 -21.56667,-18.86568 -56.9578,-13.30161 -38.43668,6.05353 -65.42302,31.28979 -65.42302,31.28979 -0.8521,0.89 -2.28698,0.92583 -3.17004,0.0519 -0.90086,-0.85093 -0.9279,-2.27551 -0.0708,-3.16704 0,0 22.74915,-25.54957 67.84322,-33.12115 36.13149,-6.07133 56.89481,8.70777 63.72754,14.81427 l 20.83417,-12.0197 c -0.21509,-0.24083 -24.88492,-29.83871 -69.85502,-25.67116 -45.00525,4.18005 -74.11938,24.79521 -74.11938,24.79521 -1.01458,0.72008 -2.41878,0.49493 -3.14261,-0.51426 -0.72858,-0.99824 -0.49362,-2.39555 0.51108,-3.12805 l -0.008,0.002 c 0,0 26.98195,-21.51838 75.38567,-26.34997 48.39813,-4.83862 76.58328,26.64525 76.58328,26.64525 0.68427,0.69747 0.65616,0.64448 0.72865,0.71077 l 21.32583,-12.31978 c -0.62338,-0.63278 -1.33717,-1.32166 -2.16169,-2.08761 0,0 -25.78726,-26.2557 -65.56975,-32.42371 -39.58761,-6.13924 -88.98095,15.56704 -88.98095,15.56704 -1.09416,0.561 -2.45468,0.1402 -3.02745,-0.95386 -0.56979,-1.10735 -0.14121,-2.45714 0.95313,-3.03378 0,0 45.8771,-24.2311 91.59768,-16.83407 45.71596,7.40083 70.7691,33.84817 70.7691,33.84817 0.932,0.88833 1.71208,1.72682 2.39712,2.4641 l 9.55706,-5.51343 c -4.685,-9.43015 -5.86642,-19.79069 -3.94624,-29.49904 -16.71955,-11.19288 -46.0019,-29.8216 -61.95853,-32.12679 -23.85858,-3.44521 -42.3588,15.71821 -42.3588,15.71821 0,0 -25.58071,-15.9527 -51.54407,-1.01617 -25.96412,14.92243 -24.96514,40.69339 -24.96514,40.69339 0,0 -24.78054,6.47744 -35.5232,32.08935 -10.75413,25.61347 9.69218,48.41066 9.69218,48.41066 0,0 -9.45526,24.86152 4.17588,48.55566 13.69994,23.64582 39.96351,27.88826 39.96351,27.88826 0,0 9.51673,29.1132 37.07766,32.60442 27.55076,3.50211 45.55143,-14.71994 45.55143,-14.71994 0,0 21.81377,13.74426 47.72338,-1.27571 25.91897,-15.01206 24.89106,-45.15092 24.89106,-45.15092 0,0 25.84727,-6.43447 34.7958,-28.81317 6.02938,-15.10099 4.61645,-50.08069 3.27382,-70.06387"
     style="fill:#000000;fill-opacity:1;fill-rule:nonzero;stroke:none;stroke-width:0.779285"
     id="path20265" />
  <path
     d="m 444.06897,594.16138 c -10.73298,-18.58822 -14.09802,-12.41627 -12.84337,-10.20151 1.04508,1.85469 1.61471,5.01461 1.53985,8.07797 -0.23527,9.20262 -7.46477,16.66738 -16.66725,16.66738 -9.20339,0 -15.89426,-7.4952 -16.66738,-16.66738 -1.0115,-11.97448 9.33425,-23.98945 25.20287,-26.45742 15.46642,-2.40408 24.94323,6.47658 33.13901,20.6666 17.30947,30.00167 6.63636,68.584 -22.96389,85.6698 -29.99775,17.31254 -68.33859,7.0408 -85.66126,-22.95226 -5.66384,-9.81661 -8.37733,-20.52476 -8.4147,-31.10045 -1.22971,-15.74467 11.26143,-32.52726 24.909,-52.58298 13.64371,-20.05329 26.09589,-34.64143 26.11222,-65.65075 l 0.0111,-56.25727 c 5.17986,0.89773 10.53119,0.89773 15.81792,-0.0125 v 56.62192 c -0.3172,33.43748 -8.0679,44.87507 -20.37437,61.97884 -12.30573,17.10913 -32.06366,39.38886 -30.62354,56.19492 0.0785,7.78501 2.10093,15.66436 6.25767,22.89925 12.99066,22.39975 41.61605,30.07177 64.06101,17.16448 22.40122,-12.98442 30.07258,-41.60986 17.16525,-64.05871"
     style="fill:#000000;fill-opacity:1;fill-rule:nonzero;stroke:none;stroke-width:0.779285"
     id="path20269" />
  <path
     d="m 444.95194,388.36495 c 2.01367,9.6982 0.97252,19.95678 -3.61975,29.41954 l 9.58831,5.53066 c 0.67714,-0.73954 1.46497,-1.57185 2.39085,-2.46339 0,0 25.05862,-26.45277 70.7737,-33.84894 45.72066,-7.3977 91.60018,16.83018 91.60018,16.83018 1.09407,0.58135 1.51571,1.93186 0.95149,3.03765 -0.57742,1.09412 -1.93727,1.51267 -3.03143,0.95148 0,0 -49.38865,-21.7053 -88.97939,-15.56769 -39.78395,6.16725 -65.56586,32.42283 -65.56586,32.42283 -0.83223,0.76925 -1.54604,1.45579 -2.16953,2.09326 l 21.33454,12.31413 c 0.0621,-0.0635 0.0432,-0.0125 0.72313,-0.70515 0,0 28.18825,-31.48697 76.58257,-26.64614 48.40294,4.82687 75.38168,26.35538 75.38168,26.35538 l -0.009,-0.004 c 1.01152,0.72319 1.24836,2.12354 0.51975,3.12256 -0.72239,1.01152 -2.12668,1.23132 -3.14752,0.51593 0,0 -29.10936,-20.61981 -74.11375,-24.79684 -44.971,-4.1668 -69.63915,25.42962 -69.86051,25.66964 l 20.83965,12.02277 c 6.82883,-6.11112 27.59517,-20.88561 63.72899,-14.8188 45.09175,7.5715 67.84213,33.12267 67.84213,33.12267 0.84787,0.89538 0.82996,2.31365 -0.0722,3.17009 -0.88217,0.87046 -2.31761,0.83226 -3.16703,-0.0548 0,0 -26.98971,-25.23714 -65.42314,-31.28821 -35.39359,-5.56103 -54.33718,10.83669 -56.96416,13.29846 l 22.14964,12.78724 c 6.88965,-3.94934 21.64143,-9.33582 45.06668,-2.94016 33.96515,9.2758 56.06095,34.89861 56.06095,34.89861 0.8416,0.89926 0.78553,2.32848 -0.1231,3.16702 -0.90088,0.8424 -2.33008,0.78553 -3.16393,-0.11761 0,0 -24.63475,-25.68139 -54.49451,-32.70423 -17.04377,-4.00716 -30.02975,-1.81892 -37.19678,1.24991 l 4.26264,2.47034 88.83446,52.36163 c 1.07702,0.62349 1.46586,1.9685 0.83849,3.04701 -0.62182,1.08013 -1.98481,1.42139 -3.05629,0.79409 l -89.768,-50.73991 -4.27132,-2.45942 c 0.92504,7.7422 5.52593,20.0837 17.51757,32.83276 21.01021,22.34368 55.573,30.83705 55.573,30.83705 1.19468,0.27349 1.95757,1.48765 1.67552,2.69172 -0.26809,1.2047 -1.4791,1.96301 -2.67453,1.68632 0,0 -33.24193,-6.3255 -58.25538,-31.10121 -17.25327,-17.08583 -19.95895,-32.55461 -19.9917,-40.49863 L 507.92811,463.522 c -0.82362,3.50286 -5.5516,28.11585 16.96033,55.9752 24.46252,30.26191 59.81007,41.01602 59.81007,41.01602 1.19462,0.29537 1.94195,1.51806 1.62792,2.72133 -0.28683,1.2055 -1.50484,1.93411 -2.70567,1.64195 0,0 -33.50301,-6.92555 -62.60849,-42.19199 -23.32394,-28.25066 -20.90499,-53.62719 -19.03165,-62.59446 l -20.82439,-12.03746 c -0.10209,0.31013 -13.40293,36.47598 12.69381,73.33528 26.12158,36.88119 58.52886,51.78887 58.52886,51.78887 1.13384,0.52055 1.64195,1.84847 1.13073,2.98315 -0.50416,1.12607 -1.82894,1.61929 -2.96753,1.11595 l 0.005,0.006 c 0,0 -32.1252,-12.60574 -60.509,-52.10527 -28.39244,-39.49102 -15.22099,-79.64435 -15.22099,-79.64435 0.26575,-0.94139 0.22917,-0.89466 0.25558,-0.98665 l -21.33705,-12.31273 c -0.23308,0.85639 -0.47536,1.82029 -0.72249,2.91681 0,0 -9.84936,35.45974 4.70388,72.99938 14.47825,37.35263 57.97324,69.26975 57.97324,69.26975 1.03251,0.66712 1.34575,2.05886 0.6881,3.1047 -0.67957,1.04427 -2.05579,1.34891 -3.10472,0.69202 0,0 -43.92043,-27.62246 -60.37656,-70.91096 -16.45066,-43.29312 -6.07378,-78.20974 -6.07378,-78.20974 0.30472,-1.24912 0.64139,-2.34951 0.93755,-3.30718 l -9.55165,-5.52047 c -5.82747,8.76996 -14.21026,14.97151 -23.58036,18.16583 -1.32866,20.07592 -2.82024,54.74939 3.15995,69.72333 8.94771,22.37867 34.79191,28.81873 34.79191,28.81873 0,0 -1.02551,30.13407 24.89503,45.14623 25.90103,15.02456 47.72172,1.27649 47.72172,1.27649 0,0 18.00154,18.22039 45.55389,14.72063 27.55547,-3.49275 37.0767,-32.60291 37.0767,-32.60291 0,0 26.25804,-4.24166 39.96328,-27.89057 13.6312,-23.6949 4.17152,-48.55092 4.17152,-48.55092 0,0 20.45071,-22.80338 9.69662,-48.41537 -10.74321,-25.61198 -35.5244,-32.08857 -35.5244,-32.08857 0,0 0.99901,-25.76929 -24.96516,-40.6958 -25.9618,-14.93651 -51.54419,1.02248 -51.54419,1.02248 0,0 -18.4994,-19.16883 -42.35715,-15.72282 -16.09306,2.32382 -45.67464,21.04146 -62.31625,32.19136"
     style="fill:#000000;fill-opacity:1;fill-rule:nonzero;stroke:none;stroke-width:0.779285"
     id="path20273" />
  <path
     d="m 547.66466,260.92247 c -10.72526,18.58824 -3.7032,18.4184 -2.41029,16.2255 1.0816,-1.83749 3.53007,-3.90964 6.22332,-5.37554 8.08746,-4.39984 18.16905,-1.87177 22.7676,6.10025 4.60553,7.9721 1.45721,17.51054 -6.10027,22.7684 -9.86419,6.86155 -25.44207,3.90961 -35.51432,-8.59788 -9.81588,-12.1958 -6.86316,-24.84196 1.33027,-39.03593 17.32344,-29.98993 56.07883,-40.038 85.6737,-22.94833 29.99228,17.32349 40.26867,55.66347 22.9561,85.66279 -5.67242,9.81666 -13.58446,17.5214 -22.73173,22.83692 -13.01553,8.94379 -33.79672,6.51479 -57.99037,4.72326 -24.18819,-1.79002 -43.04759,-5.28042 -69.91651,10.21011 l -48.72166,28.12286 c -1.81422,-4.94065 -4.48861,-9.57514 -7.91837,-13.69359 l 49.03412,-28.31219 c 29.11723,-16.44518 42.89888,-15.44849 63.86623,-13.34209 20.96586,2.09937 50.14226,8.06714 63.97689,-1.57962 6.69873,-3.96184 12.51611,-9.65299 16.70164,-16.87071 12.90646,-22.4496 5.23362,-51.07194 -17.16298,-64.06028 -22.44651,-12.9057 -51.07352,-5.23594 -64.06337,17.16607"
     style="fill:#000000;fill-opacity:1;fill-rule:nonzero;stroke:none;stroke-width:0.779285"
     id="path20277" />
</svg>
