<?xml version="1.0" encoding="UTF-8" standalone="no"?>
<!-- Created with Inkscape (http://www.inkscape.org/) -->

<svg
   version="1.1"
   id="svg16387"
   width="793.70135"
   height="793.70135"
   viewBox="0 0 793.70135 793.70135"
   sodipodi:docname="Maruni Tsurukashiwa.svg"
   inkscape:version="1.2 (dc2aeda, 2022-05-15)"
   xmlns:inkscape="http://www.inkscape.org/namespaces/inkscape"
   xmlns:sodipodi="http://sodipodi.sourceforge.net/DTD/sodipodi-0.dtd"
   xmlns="http://www.w3.org/2000/svg"
   xmlns:svg="http://www.w3.org/2000/svg">
  <defs
     id="defs16391">
    <clipPath
       clipPathUnits="userSpaceOnUse"
       id="clipPath16978">
      <path
         d="M -561.4131,585.8522 H 33.862898 V -9.4238027 H -561.4131 Z"
         id="path16980"
         style="stroke-width:0.999998" />
    </clipPath>
    <clipPath
       clipPathUnits="userSpaceOnUse"
       id="clipPath16984">
      <path
         d="M -557.0645,585.8483 H 38.211496 V -9.4277027 H -557.0645 Z"
         id="path16986"
         style="stroke-width:0.999998" />
    </clipPath>
    <clipPath
       clipPathUnits="userSpaceOnUse"
       id="clipPath16991">
      <path
         d="M -556.4014,578.0143 H 38.874601 V -17.2617 H -556.4014 Z"
         id="path16993"
         style="stroke-width:0.999998" />
    </clipPath>
    <clipPath
       clipPathUnits="userSpaceOnUse"
       id="clipPath16997">
      <path
         d="M -586.5449,579.5026 H 8.7310952 V -15.7734 H -586.5449 Z"
         id="path16999"
         style="stroke-width:0.999998" />
    </clipPath>
    <clipPath
       clipPathUnits="userSpaceOnUse"
       id="clipPath17003">
      <path
         d="M -584.1943,578.9381 H 11.0817 V -16.337903 h -595.276 z"
         id="path17005"
         style="stroke-width:0.999998" />
    </clipPath>
    <clipPath
       clipPathUnits="userSpaceOnUse"
       id="clipPath17009">
      <path
         d="M -538.2217,577.9479 H 57.054294 V -17.328098 H -538.2217 Z"
         id="path17011"
         style="stroke-width:0.999998" />
    </clipPath>
    <clipPath
       clipPathUnits="userSpaceOnUse"
       id="clipPath17015">
      <path
         d="m -326.9766,297.6398 h 595.276 v -595.276 h -595.276 z"
         id="path17017"
         style="stroke-width:0.999998" />
    </clipPath>
    <clipPath
       clipPathUnits="userSpaceOnUse"
       id="clipPath17021">
      <path
         d="m -275.1914,272.1725 h 595.276 v -595.276 h -595.276 z"
         id="path17023"
         style="stroke-width:0.999998" />
    </clipPath>
    <clipPath
       clipPathUnits="userSpaceOnUse"
       id="clipPath17027">
      <path
         d="m -287.0195,329.9362 h 595.276 v -595.276 h -595.276 z"
         id="path17029"
         style="stroke-width:0.999998" />
    </clipPath>
    <clipPath
       clipPathUnits="userSpaceOnUse"
       id="clipPath17033">
      <path
         d="m -331.1309,290.8102 h 595.27599 v -595.276 H -331.1309 Z"
         id="path17035"
         style="stroke-width:0.999998" />
    </clipPath>
    <clipPath
       clipPathUnits="userSpaceOnUse"
       id="clipPath17039">
      <path
         d="M -271.52,275.755 H 323.756 V -319.521 H -271.52 Z"
         id="path17041"
         style="stroke-width:0.999998" />
    </clipPath>
    <clipPath
       clipPathUnits="userSpaceOnUse"
       id="clipPath17045">
      <path
         d="m -291.9556,331.3278 h 595.276 v -595.276 h -595.276 z"
         id="path17047"
         style="stroke-width:0.999998" />
    </clipPath>
    <clipPath
       clipPathUnits="userSpaceOnUse"
       id="clipPath17051">
      <path
         d="m -329.8672,285.8409 h 595.276 v -595.276 h -595.276 z"
         id="path17053"
         style="stroke-width:0.999998" />
    </clipPath>
    <clipPath
       clipPathUnits="userSpaceOnUse"
       id="clipPath17057">
      <path
         d="m -139.77,139.7677 h 595.27599 v -595.276 H -139.77 Z"
         id="path17059"
         style="stroke-width:0.999998" />
    </clipPath>
    <clipPath
       clipPathUnits="userSpaceOnUse"
       id="clipPath17063">
      <path
         d="M -564.5732,585.8483 H 30.702796 V -9.4277027 H -564.5732 Z"
         id="path17065"
         style="stroke-width:0.999998" />
    </clipPath>
    <clipPath
       clipPathUnits="userSpaceOnUse"
       id="clipPath17069">
      <path
         d="M -553.8975,585.8483 H 41.378499 V -9.4277027 H -553.8975 Z"
         id="path17071"
         style="stroke-width:0.999998" />
    </clipPath>
    <clipPath
       clipPathUnits="userSpaceOnUse"
       id="clipPath17075">
      <path
         d="M -567.7754,585.8522 H 27.500596 V -9.4238027 H -567.7754 Z"
         id="path17077"
         style="stroke-width:0.999998" />
    </clipPath>
    <clipPath
       clipPathUnits="userSpaceOnUse"
       id="clipPath17081">
      <path
         d="M -550.2637,577.3248 H 45.012301 V -17.951198 H -550.2637 Z"
         id="path17083"
         style="stroke-width:0.999998" />
    </clipPath>
    <clipPath
       clipPathUnits="userSpaceOnUse"
       id="clipPath17088">
      <path
         d="M -545.417,584.5729 H 49.858996 V -10.7031 H -545.417 Z"
         id="path17090"
         style="stroke-width:0.999998" />
    </clipPath>
    <clipPath
       clipPathUnits="userSpaceOnUse"
       id="clipPath17094">
      <path
         d="M -542.9326,584.5729 H 52.343394 V -10.7031 H -542.9326 Z"
         id="path17096"
         style="stroke-width:0.999998" />
    </clipPath>
    <clipPath
       clipPathUnits="userSpaceOnUse"
       id="clipPath17100">
      <path
         d="M -557.4951,577.8502 H 37.780898 V -17.4258 H -557.4951 Z"
         id="path17102"
         style="stroke-width:0.999998" />
    </clipPath>
    <clipPath
       clipPathUnits="userSpaceOnUse"
       id="clipPath17106">
      <path
         d="M -568.2266,575.819 H 27.049396 V -19.457003 H -568.2266 Z"
         id="path17108"
         style="stroke-width:0.999998" />
    </clipPath>
    <clipPath
       clipPathUnits="userSpaceOnUse"
       id="clipPath17112">
      <path
         d="M -574.5459,585.8522 H 20.730098 V -9.4238027 H -574.5459 Z"
         id="path17114"
         style="stroke-width:0.999998" />
    </clipPath>
    <clipPath
       clipPathUnits="userSpaceOnUse"
       id="clipPath17118">
      <path
         d="M -572.8174,586.1354 H 22.458601 V -9.1406027 H -572.8174 Z"
         id="path17120"
         style="stroke-width:0.999998" />
    </clipPath>
    <clipPath
       clipPathUnits="userSpaceOnUse"
       id="clipPath17124">
      <path
         d="M -576.3691,585.5885 H 18.9069 V -9.6875027 h -595.276 z"
         id="path17126"
         style="stroke-width:0.999998" />
    </clipPath>
    <clipPath
       clipPathUnits="userSpaceOnUse"
       id="clipPath17130">
      <path
         d="M -548.9834,585.8522 H 46.292596 V -9.4238027 H -548.9834 Z"
         id="path17132"
         style="stroke-width:0.999998" />
    </clipPath>
    <clipPath
       clipPathUnits="userSpaceOnUse"
       id="clipPath17136">
      <path
         d="M -528.0898,575.3815 H 67.186194 V -19.8945 H -528.0898 Z"
         id="path17138"
         style="stroke-width:0.999998" />
    </clipPath>
    <clipPath
       clipPathUnits="userSpaceOnUse"
       id="clipPath17142">
      <path
         d="M -536.6982,584.5729 H 58.577799 V -10.7031 H -536.6982 Z"
         id="path17144"
         style="stroke-width:0.999998" />
    </clipPath>
    <clipPath
       clipPathUnits="userSpaceOnUse"
       id="clipPath17148">
      <path
         d="M -540.8213,585.8483 H 54.454696 V -9.4277027 H -540.8213 Z"
         id="path17150"
         style="stroke-width:0.999998" />
    </clipPath>
    <clipPath
       clipPathUnits="userSpaceOnUse"
       id="clipPath17154">
      <path
         d="M -531.1924,581.5885 H 64.083594 V -13.6875 H -531.1924 Z"
         id="path17156"
         style="stroke-width:0.999998" />
    </clipPath>
  </defs>
  <sodipodi:namedview
     id="namedview16389"
     pagecolor="#ffffff"
     bordercolor="#000000"
     borderopacity="0.25"
     inkscape:showpageshadow="2"
     inkscape:pageopacity="0.0"
     inkscape:pagecheckerboard="0"
     inkscape:deskcolor="#d1d1d1"
     showgrid="false"
     inkscape:zoom="0.29734106"
     inkscape:cx="-215.24105"
     inkscape:cy="396.85068"
     inkscape:window-width="1419"
     inkscape:window-height="456"
     inkscape:window-x="0"
     inkscape:window-y="25"
     inkscape:window-maximized="0"
     inkscape:current-layer="svg16387">
    <inkscape:page
       x="0"
       y="0"
       id="page16393"
       width="793.70135"
       height="793.70135" />
  </sodipodi:namedview>
  <path
     d="M 435.969 396.853 C 435.969 418.349 418.548 435.78 397.041 435.78 C 375.552 435.78 358.113 418.349 358.113 396.853 C 358.113 375.352 375.552 357.924 397.041 357.924 C 418.548 357.924 435.969 375.352 435.969 396.853"
     style="fill:#000000;fill-opacity:1;fill-rule:nonzero;stroke:none"
     id="path16507" />
  <path
     d="M 366.922 362.897 C 374.179 356.421 383.418 352.27 393.721 351.529 L 393.709 340.661 C 392.749 340.442 391.654 340.189 390.443 339.838 C 390.443 339.838 355.65 331.512 326.906 296.272 C 298.172 261.02 296.245 210.109 296.245 210.109 C 296.202 208.889 297.146 207.864 298.366 207.809 C 299.577 207.76 300.603 208.709 300.657 209.917 C 300.657 209.917 306.455 262.573 331.113 293.231 C 355.887 324.036 390.878 333.07 390.878 333.07 C 391.938 333.4 392.875 333.668 393.721 333.886 L 393.721 309.697 C 393.633 309.67 393.687 309.665 392.766 309.428 C 392.766 309.428 352.146 300.914 332.501 257.381 C 312.843 213.848 317.905 180.336 317.905 180.336 L 317.905 180.341 C 318.026 179.129 319.102 178.239 320.305 178.369 C 321.522 178.492 322.394 179.58 322.291 180.791 C 322.291 180.791 319.047 215.675 337.589 255.997 C 356.131 296.288 393.407 302.736 393.721 302.802 L 393.709 279.177 C 385.167 276.373 362.405 265.967 349.818 232.257 C 334.119 190.196 344.681 158.304 344.681 158.304 C 345.021 157.139 346.242 156.458 347.414 156.804 C 348.589 157.135 349.258 158.368 348.918 159.527 C 348.918 159.527 340.711 194.871 354.441 230.528 C 367.081 263.36 390.327 271.416 393.709 272.439 L 393.709 247.324 C 386.969 243.4 375.146 233.504 369.086 210.444 C 360.293 177.004 371.235 145.63 371.235 145.63 C 371.589 144.476 372.827 143.823 373.993 144.18 C 375.157 144.536 375.803 145.778 375.449 146.93 C 375.449 146.93 365.702 180.491 374.387 209.329 C 379.35 225.792 387.585 235.759 393.709 240.348 L 393.721 235.512 L 394.643 134.256 C 394.643 133.036 395.591 132.043 396.815 132.043 C 398.035 132.043 398.995 133.036 398.99 134.256 L 399.911 235.512 L 399.923 240.348 C 406.05 235.759 414.287 225.792 419.243 209.329 C 427.927 180.491 418.185 146.93 418.185 146.93 C 417.829 145.778 418.487 144.536 419.651 144.18 C 420.803 143.823 422.045 144.476 422.394 145.63 C 422.394 145.63 433.341 177.004 424.547 210.444 C 418.487 233.504 406.665 243.4 399.923 247.324 L 399.923 272.439 C 403.298 271.416 426.557 263.36 439.198 230.528 C 452.919 194.871 444.715 159.527 444.715 159.527 C 444.374 158.368 445.043 157.135 446.223 156.804 C 447.394 156.458 448.611 157.139 448.95 158.304 C 448.95 158.304 459.511 190.196 443.807 232.257 C 431.233 265.967 408.463 276.373 399.923 279.177 L 399.911 302.802 C 400.219 302.736 437.506 296.288 456.043 255.997 C 474.586 215.675 471.346 180.791 471.346 180.791 C 471.236 179.58 472.116 178.492 473.323 178.369 C 474.531 178.239 475.606 179.129 475.738 180.341 L 475.738 180.336 C 475.738 180.336 480.787 213.848 461.138 257.381 C 441.487 300.914 400.873 309.428 400.873 309.428 C 399.946 309.665 400.001 309.67 399.911 309.697 L 399.911 333.886 C 400.758 333.668 401.697 333.4 402.755 333.07 C 402.755 333.07 437.742 324.036 462.52 293.231 C 487.176 262.573 492.974 209.917 492.974 209.917 C 493.028 208.709 494.055 207.76 495.267 207.809 C 496.487 207.864 497.426 208.889 497.382 210.109 C 497.382 210.109 495.454 261.02 466.724 296.272 C 437.984 331.512 403.194 339.838 403.194 339.838 C 401.975 340.189 400.878 340.442 399.923 340.661 L 399.911 351.497 C 410.231 352.14 419.622 356.229 426.941 362.622 C 444.671 353.901 474.888 338.148 484.684 325.704 C 499.324 307.112 492.112 281.968 492.112 281.968 C 492.112 281.968 518.239 268.048 518.283 238.636 C 518.339 209.225 495.938 197.424 495.938 197.424 C 495.938 197.424 502.591 173.168 486.091 151.454 C 469.584 129.732 440.158 135.931 440.158 135.931 C 440.158 135.931 423.658 115.68 396.815 115.636 C 369.974 115.68 353.475 135.931 353.475 135.931 C 353.475 135.931 324.042 129.732 307.541 151.454 C 291.042 173.168 297.694 197.424 297.694 197.424 C 297.694 197.424 275.3 209.225 275.349 238.636 C 275.39 268.048 301.525 281.968 301.525 281.968 C 301.525 281.968 294.309 307.112 308.946 325.704 C 318.827 338.252 349.269 354.22 366.922 362.897"
     style="fill:#000000;fill-opacity:1;fill-rule:nonzero;stroke:none"
     id="path16511" />
  <path
     d="M 382.693 439.915 C 373.454 436.868 365.242 430.94 359.45 422.392 L 350.037 427.831 C 350.334 428.776 350.662 429.848 350.961 431.076 C 350.961 431.076 361.148 465.367 345 507.88 C 328.84 550.393 285.707 577.515 285.707 577.515 C 284.685 578.163 283.325 577.86 282.66 576.832 C 282.017 575.808 282.325 574.443 283.336 573.781 C 283.336 573.781 326.04 542.451 340.268 505.768 C 354.556 468.896 344.88 434.079 344.88 434.079 C 344.637 433.004 344.408 432.06 344.17 431.212 L 323.218 443.306 C 323.241 443.394 323.208 443.356 323.47 444.267 C 323.47 444.267 336.402 483.702 308.524 522.483 C 280.656 561.273 249.105 573.645 249.105 573.645 L 249.105 573.64 C 247.996 574.145 246.689 573.656 246.195 572.547 C 245.689 571.433 246.195 570.131 247.304 569.62 C 247.304 569.62 279.131 554.981 304.776 518.765 C 330.404 482.57 317.345 447.055 317.246 446.754 L 296.796 458.571 C 298.639 467.383 301.011 492.296 278.109 520.044 C 249.523 554.667 216.633 561.468 216.633 561.468 C 215.451 561.755 214.249 561.041 213.969 559.856 C 213.657 558.671 214.399 557.473 215.571 557.189 C 215.571 557.189 250.285 546.628 274.301 516.915 C 296.411 489.548 291.767 465.378 290.953 461.943 L 269.212 474.502 C 269.187 482.3 266.523 497.491 249.588 514.269 C 225.02 538.604 192.381 544.816 192.381 544.816 C 191.2 545.085 190.009 544.339 189.747 543.152 C 189.472 541.972 190.219 540.783 191.399 540.512 C 191.399 540.512 225.332 532.168 245.968 510.228 C 257.745 497.704 262.257 485.595 263.168 477.992 L 258.975 480.402 L 170.822 530.232 C 169.772 530.847 168.439 530.516 167.824 529.445 C 167.208 528.392 167.594 527.068 168.647 526.461 L 255.879 475.035 L 260.061 472.61 C 253.025 469.6 240.275 467.447 223.543 471.388 C 194.224 478.28 170.03 503.504 170.03 503.504 C 169.214 504.39 167.807 504.439 166.918 503.61 C 166.024 502.791 165.975 501.392 166.796 500.502 C 166.796 500.502 188.495 475.347 221.852 466.235 C 244.851 459.956 259.336 465.246 266.111 469.12 L 287.859 456.567 C 285.283 454.154 266.672 438.043 231.924 443.503 C 194.181 449.454 167.682 474.231 167.682 474.231 C 166.839 475.104 165.435 475.139 164.563 474.282 C 163.674 473.443 163.663 472.052 164.496 471.17 C 164.496 471.17 186.837 446.084 231.111 438.642 C 266.593 432.686 286.987 447.2 293.687 453.199 L 314.163 441.391 C 313.943 441.156 289.713 412.096 245.555 416.186 C 201.361 420.29 172.774 440.535 172.774 440.535 C 171.776 441.238 170.403 441.016 169.686 440.03 C 168.976 439.054 169.207 437.668 170.195 436.951 L 170.184 436.962 C 170.184 436.962 196.68 415.83 244.208 411.08 C 291.733 406.332 319.408 437.246 319.408 437.246 C 320.078 437.934 320.062 437.878 320.124 437.948 L 341.074 425.844 C 340.46 425.227 339.758 424.551 338.952 423.799 C 338.952 423.799 313.631 398.016 274.559 391.958 C 235.679 385.93 187.183 407.244 187.183 407.244 C 186.113 407.792 184.773 407.382 184.208 406.311 C 183.648 405.223 184.069 403.894 185.143 403.331 C 185.143 403.331 230.195 379.534 275.096 386.803 C 319.98 394.064 344.582 420.034 344.582 420.034 C 345.493 420.911 346.266 421.728 346.932 422.454 L 356.324 417.042 C 351.718 407.782 350.565 397.61 352.448 388.076 C 336.029 377.082 307.277 358.787 291.603 356.526 C 268.18 353.15 250.005 371.966 250.005 371.966 C 250.005 371.966 224.887 356.301 199.401 370.961 C 173.906 385.618 174.882 410.928 174.882 410.928 C 174.882 410.928 150.544 417.284 139.995 442.44 C 129.434 467.592 149.518 489.971 149.518 489.971 C 149.518 489.971 140.224 514.385 153.612 537.653 C 167.072 560.877 192.852 565.044 192.852 565.044 C 192.852 565.044 202.207 593.624 229.268 597.061 C 256.324 600.499 274.004 582.604 274.004 582.604 C 274.004 582.604 295.424 596.101 320.87 581.352 C 346.31 566.609 345.305 537.017 345.305 537.017 C 345.305 537.017 370.688 530.692 379.47 508.72 C 385.4 493.887 384.005 459.539 382.693 439.915"
     style="fill:#000000;fill-opacity:1;fill-rule:nonzero;stroke:none"
     id="path16515" />
  <path
     d="M 441.508 387.747 C 443.489 397.271 442.457 407.348 437.951 416.635 L 447.369 422.068 C 448.04 421.338 448.804 420.523 449.72 419.648 C 449.72 419.648 474.321 393.675 519.21 386.412 C 564.106 379.144 609.166 402.94 609.166 402.94 C 610.241 403.506 610.66 404.834 610.093 405.92 C 609.538 406.992 608.201 407.403 607.125 406.859 C 607.125 406.859 558.628 385.54 519.75 391.567 C 480.677 397.627 455.363 423.408 455.363 423.408 C 454.551 424.16 453.848 424.836 453.232 425.463 L 474.179 437.558 C 474.245 437.495 474.227 437.543 474.893 436.863 C 474.893 436.863 502.569 405.943 550.097 410.698 C 597.629 415.44 624.118 436.571 624.118 436.571 L 624.113 436.571 C 625.101 437.28 625.338 438.658 624.624 439.639 C 623.905 440.639 622.528 440.854 621.529 440.144 C 621.529 440.144 592.941 419.903 548.754 415.795 C 504.589 411.706 480.365 440.766 480.151 441.006 L 500.615 452.808 C 507.321 446.81 527.708 432.3 563.19 438.256 C 607.477 445.699 629.806 470.784 629.806 470.784 C 630.65 471.664 630.629 473.057 629.752 473.897 C 628.872 474.753 627.468 474.716 626.633 473.841 C 626.633 473.841 600.126 449.063 562.377 443.12 C 527.633 437.652 509.025 453.763 506.449 456.177 L 528.201 468.729 C 534.972 464.855 549.445 459.571 572.456 465.844 C 605.813 474.956 627.51 500.113 627.51 500.113 C 628.334 501.001 628.28 502.403 627.39 503.224 C 626.5 504.052 625.096 503.999 624.276 503.108 C 624.276 503.108 600.082 477.892 570.765 470.997 C 554.029 467.056 541.284 469.209 534.241 472.223 L 538.428 474.649 L 625.656 526.076 C 626.709 526.685 627.093 528.001 626.484 529.068 C 625.874 530.128 624.536 530.456 623.481 529.841 L 535.328 480.011 L 531.134 477.601 C 532.05 485.204 536.557 497.325 548.337 509.84 C 568.976 531.78 602.91 540.121 602.91 540.121 C 604.084 540.392 604.829 541.583 604.556 542.771 C 604.293 543.948 603.106 544.695 601.932 544.425 C 601.932 544.425 569.293 538.213 544.725 513.879 C 527.785 497.1 525.124 481.912 525.096 474.111 L 503.348 461.552 C 502.547 464.989 497.892 489.163 520.002 516.527 C 544.022 546.232 578.734 556.799 578.734 556.799 C 579.91 557.091 580.646 558.285 580.338 559.465 C 580.052 560.659 578.856 561.364 577.67 561.087 C 577.67 561.087 544.78 554.28 516.193 519.656 C 493.304 491.9 495.663 466.992 497.508 458.183 L 477.055 446.366 C 476.956 446.67 463.901 482.18 489.528 518.38 C 515.172 554.599 547.002 569.232 547.002 569.232 C 548.109 569.743 548.61 571.043 548.109 572.159 C 547.617 573.265 546.306 573.76 545.192 573.26 L 545.198 573.265 C 545.198 573.265 513.656 560.884 485.783 522.097 C 457.899 483.311 470.841 443.888 470.841 443.888 C 471.099 442.966 471.061 443.003 471.089 442.918 L 450.137 430.826 C 449.907 431.67 449.671 432.614 449.425 433.694 C 449.425 433.694 439.752 468.511 454.04 505.377 C 468.261 542.055 510.968 573.404 510.968 573.404 C 511.981 574.052 512.296 575.412 511.648 576.44 C 510.982 577.472 509.622 577.767 508.601 577.119 C 508.601 577.119 465.463 549.997 449.303 507.491 C 433.153 464.984 443.341 430.688 443.341 430.688 C 443.644 429.463 443.973 428.388 444.264 427.443 L 434.876 422.02 C 429.163 430.632 420.935 436.719 411.736 439.854 C 410.429 459.576 408.957 493.631 414.836 508.331 C 423.62 530.301 449 536.627 449 536.627 C 449 536.627 447.996 566.219 473.439 580.961 C 498.88 595.717 520.309 582.208 520.309 582.208 C 520.309 582.208 537.984 600.108 565.045 596.67 C 592.096 593.234 601.449 564.655 601.449 564.655 C 601.449 564.655 627.237 560.493 640.69 537.269 C 654.078 513.999 644.791 489.585 644.791 489.585 C 644.791 489.585 664.869 467.201 654.314 442.044 C 643.758 416.894 619.42 410.538 619.42 410.538 C 619.42 410.538 620.402 385.232 594.905 370.571 C 569.416 355.911 544.297 371.575 544.297 371.575 C 544.297 371.575 526.128 352.759 502.705 356.135 C 486.897 358.419 457.844 376.802 441.508 387.747"
     style="fill:#000000;fill-opacity:1;fill-rule:nonzero;stroke:none"
     id="path16519" />
  <path
     d="M 362.027 367.673 L 198.726 273.376 C 189.099 267.673 182.645 257.184 182.623 245.177 C 182.655 227.101 197.278 212.475 215.347 212.441 C 231.314 212.475 244.494 223.672 247.393 238.788 C 239.555 235.529 230.53 239.167 227.166 246.989 C 223.767 254.867 227.423 263.968 235.289 267.404 C 241.986 270.331 249.791 268.397 254.189 265.34 C 258.449 262.381 263.618 256.645 263.618 245.177 C 263.607 218.524 242.01 196.913 215.347 196.913 C 188.693 196.913 167.087 218.524 167.087 245.177 C 167.087 253.017 168.942 260.367 172.27 266.915 C 164.777 267.251 157.252 269.287 150.32 273.292 C 127.233 286.621 119.322 316.141 132.648 339.222 C 145.977 362.31 175.494 370.209 198.583 356.892 C 208.507 351.161 210.897 343.81 211.33 338.645 C 211.778 333.305 209.551 325.576 203.667 321.24 C 196.755 316.152 187.051 317.536 181.925 324.412 C 176.835 331.242 178.197 340.874 184.938 346.034 C 170.391 351.078 154.108 345.266 146.097 331.461 C 137.09 315.784 142.449 295.811 158.086 286.741 C 168.494 280.757 180.799 281.109 190.55 286.599 L 354.27 381.132 C 356.087 376.193 358.716 371.64 362.027 367.673"
     style="fill:#000000;fill-opacity:1;fill-rule:nonzero;stroke:none"
     id="path16523" />
  <path
     d="M 389.274 441.77 L 389.263 630.335 C 389.141 641.527 383.279 652.363 372.895 658.383 C 357.23 667.393 337.249 662.039 328.181 646.403 C 320.226 632.563 323.341 615.554 334.977 605.479 C 336.074 613.902 343.737 619.895 352.19 618.903 C 360.71 617.898 366.767 610.188 365.806 601.66 C 364.997 594.392 359.425 588.596 354.571 586.318 C 349.883 584.118 342.321 582.499 332.397 588.234 C 309.32 601.574 301.405 631.08 314.733 654.168 C 328.059 677.256 357.581 685.161 380.666 671.836 C 387.451 667.913 392.887 662.632 396.903 656.479 C 400.933 662.797 406.461 668.297 413.393 672.3 C 436.481 685.627 466 677.716 479.33 654.636 C 492.655 631.55 484.739 602.04 461.663 588.7 C 451.729 582.97 444.175 584.579 439.487 586.787 C 434.637 589.068 429.063 594.859 428.246 602.127 C 427.291 610.652 433.347 618.37 441.87 619.367 C 450.325 620.362 457.986 614.366 459.083 605.948 C 470.72 616.02 473.827 633.031 465.879 646.867 C 456.812 662.508 436.831 667.857 421.155 658.852 C 410.77 652.823 404.929 642 404.807 630.808 L 404.814 441.751 C 399.626 442.647 394.369 442.655 389.274 441.77"
     style="fill:#000000;fill-opacity:1;fill-rule:nonzero;stroke:none"
     id="path16527" />
  <path
     d="M 439.823 381.121 L 603.135 286.851 C 612.888 281.357 625.2 281.012 635.608 286.993 C 651.24 296.063 656.598 316.037 647.589 331.714 C 639.576 345.518 623.295 351.332 608.748 346.288 C 615.495 341.128 616.856 331.494 611.768 324.666 C 606.636 317.788 596.936 316.404 590.025 321.498 C 584.141 325.834 581.907 333.558 582.356 338.898 C 582.796 344.06 585.168 351.416 595.103 357.145 C 618.197 370.466 647.712 362.562 661.037 339.474 C 674.365 316.389 666.456 286.873 643.368 273.547 C 636.579 269.627 629.289 267.557 621.956 267.157 C 625.408 260.511 627.407 252.972 627.411 244.964 C 627.411 218.309 605.796 196.699 579.141 196.699 C 552.487 196.699 530.887 218.309 530.876 244.964 C 530.876 256.425 536.052 262.167 540.305 265.125 C 544.703 268.188 552.508 270.116 559.207 267.189 C 567.071 263.755 570.732 254.652 567.329 246.775 C 563.969 238.953 554.945 235.315 547.101 238.576 C 550.007 223.457 563.184 212.26 579.147 212.227 C 597.223 212.26 611.845 226.889 611.877 244.964 C 611.856 256.975 605.401 267.447 595.773 273.149 L 432.035 367.674 C 435.408 371.718 438.039 376.268 439.823 381.121"
     style="fill:#000000;fill-opacity:1;fill-rule:nonzero;stroke:none"
     id="path16531" />
  <path
     d="M 186.36 186.357 C 132.44 240.336 99.1869 314.549 99.1762 396.848 C 99.1869 479.16 132.44 553.367 186.36 607.336 C 240.328 661.254 314.534 694.508 396.85 694.529 C 479.151 694.508 553.359 661.254 607.338 607.336 C 661.257 553.367 694.499 479.16 694.521 396.848 C 694.499 314.549 661.257 240.336 607.338 186.357 C 553.359 132.438 479.151 99.1946 396.85 99.1746 C 314.534 99.1946 240.328 132.438 186.36 186.357 M 31.7151 396.848 C 31.7431 195.178 195.179 31.7427 396.85 31.7294 C 598.518 31.7427 761.955 195.178 761.969 396.848 C 761.944 598.516 598.518 761.953 396.85 761.973 C 195.179 761.953 31.7431 598.516 31.7151 396.848"
     style="fill:#000000;fill-opacity:1;fill-rule:nonzero;stroke:none"
     id="path16535" />
</svg>
