<?xml version="1.0" encoding="UTF-8" standalone="no"?>
<!-- Created with Inkscape (http://www.inkscape.org/) -->

<svg
   version="1.1"
   id="svg3148"
   width="795.03467"
   height="793.70135"
   viewBox="0 0 795.03467 793.70135"
   sodipodi:docname="Nakagawa Kashiwa.svg"
   inkscape:version="1.2 (dc2aeda, 2022-05-15)"
   xmlns:inkscape="http://www.inkscape.org/namespaces/inkscape"
   xmlns:sodipodi="http://sodipodi.sourceforge.net/DTD/sodipodi-0.dtd"
   xmlns="http://www.w3.org/2000/svg"
   xmlns:svg="http://www.w3.org/2000/svg">
  <defs
     id="defs3152">
    <clipPath
       clipPathUnits="userSpaceOnUse"
       id="clipPath3977">
      <path
         d="M -584.1943,578.9381 H 12.081705 V -16.337903 H -584.1943 Z"
         id="path3979"
         style="stroke-width:0.999998" />
    </clipPath>
    <clipPath
       clipPathUnits="userSpaceOnUse"
       id="clipPath3983">
      <path
         d="M -260.4805,527.1549 H 335.79551 V -68.121099 H -260.4805 Z"
         id="path3985"
         style="stroke-width:0.999998" />
    </clipPath>
    <clipPath
       clipPathUnits="userSpaceOnUse"
       id="clipPath3989">
      <path
         d="M -540.8213,585.8483 H 55.454701 V -9.4277027 H -540.8213 Z"
         id="path3991"
         style="stroke-width:0.999998" />
    </clipPath>
    <clipPath
       clipPathUnits="userSpaceOnUse"
       id="clipPath3995">
      <path
         d="m -359.793,396.7487 h 596.276 v -595.276 h -596.276 z"
         id="path3997"
         style="stroke-width:0.999998" />
    </clipPath>
    <clipPath
       clipPathUnits="userSpaceOnUse"
       id="clipPath4001">
      <path
         d="m -317.6826,525.0494 h 596.276 V -70.226597 h -596.276 z"
         id="path4003"
         style="stroke-width:0.999998" />
    </clipPath>
    <clipPath
       clipPathUnits="userSpaceOnUse"
       id="clipPath4007">
      <path
         d="m -290.2461,532.278 h 596.276 V -62.997999 h -596.276 z"
         id="path4009"
         style="stroke-width:0.999998" />
    </clipPath>
    <clipPath
       clipPathUnits="userSpaceOnUse"
       id="clipPath4014">
      <path
         d="M -536.6982,584.5729 H 59.577804 V -10.7031 H -536.6982 Z"
         id="path4016"
         style="stroke-width:0.999998" />
    </clipPath>
    <clipPath
       clipPathUnits="userSpaceOnUse"
       id="clipPath4020">
      <path
         d="m -334.7949,527.1549 h 596.276 V -68.121099 h -596.276 z"
         id="path4022"
         style="stroke-width:0.999998" />
    </clipPath>
    <clipPath
       clipPathUnits="userSpaceOnUse"
       id="clipPath4026">
      <path
         d="m -321.2715,517.0846 h 596.276 V -78.191402 h -596.276 z"
         id="path4028"
         style="stroke-width:0.999998" />
    </clipPath>
    <clipPath
       clipPathUnits="userSpaceOnUse"
       id="clipPath4032">
      <path
         d="m -321.2998,548.194 h 596.276 V -47.082001 h -596.276 z"
         id="path4034"
         style="stroke-width:0.999998" />
    </clipPath>
    <clipPath
       clipPathUnits="userSpaceOnUse"
       id="clipPath4038">
      <path
         d="m -447.0342,393.6217 h 596.276 v -595.276 h -596.276 z"
         id="path4040"
         style="stroke-width:0.999998" />
    </clipPath>
    <clipPath
       clipPathUnits="userSpaceOnUse"
       id="clipPath4044">
      <path
         d="m -392.2246,339.153 h 596.276 v -595.276 h -596.276 z"
         id="path4046"
         style="stroke-width:0.999998" />
    </clipPath>
    <clipPath
       clipPathUnits="userSpaceOnUse"
       id="clipPath4050">
      <path
         d="m -483.1025,298.0021 h 596.276 v -595.276 h -596.276 z"
         id="path4052"
         style="stroke-width:0.999998" />
    </clipPath>
    <clipPath
       clipPathUnits="userSpaceOnUse"
       id="clipPath4056">
      <path
         d="m -394.9189,261.2423 h 596.276 v -595.276 h -596.276 z"
         id="path4058"
         style="stroke-width:0.999998" />
    </clipPath>
    <clipPath
       clipPathUnits="userSpaceOnUse"
       id="clipPath4062">
      <path
         d="M -564.5732,585.8483 H 31.702801 V -9.4277027 H -564.5732 Z"
         id="path4064"
         style="stroke-width:0.999998" />
    </clipPath>
    <clipPath
       clipPathUnits="userSpaceOnUse"
       id="clipPath4068">
      <path
         d="m -480.5137,146.0206 h 596.276 v -595.276 h -596.276 z"
         id="path4070"
         style="stroke-width:0.999998" />
    </clipPath>
    <clipPath
       clipPathUnits="userSpaceOnUse"
       id="clipPath4074">
      <path
         d="M -567.7754,585.8522 H 28.500601 V -9.4238027 H -567.7754 Z"
         id="path4076"
         style="stroke-width:0.999998" />
    </clipPath>
    <clipPath
       clipPathUnits="userSpaceOnUse"
       id="clipPath4080">
      <path
         d="m -368.4844,189.3243 h 596.276 v -595.276 h -596.276 z"
         id="path4082"
         style="stroke-width:0.999998" />
    </clipPath>
    <clipPath
       clipPathUnits="userSpaceOnUse"
       id="clipPath4087">
      <path
         d="m -415.4932,138.2384 h 596.276 v -595.276 h -596.276 z"
         id="path4089"
         style="stroke-width:0.999998" />
    </clipPath>
    <clipPath
       clipPathUnits="userSpaceOnUse"
       id="clipPath4093">
      <path
         d="M -576.3691,585.5885 H 19.906905 V -9.6875027 H -576.3691 Z"
         id="path4095"
         style="stroke-width:0.999998" />
    </clipPath>
    <clipPath
       clipPathUnits="userSpaceOnUse"
       id="clipPath4099">
      <path
         d="M -574.5459,585.8522 H 21.730103 V -9.4238027 H -574.5459 Z"
         id="path4101"
         style="stroke-width:0.999998" />
    </clipPath>
    <clipPath
       clipPathUnits="userSpaceOnUse"
       id="clipPath4105">
      <path
         d="M -538.2217,577.9479 H 58.054299 V -17.328098 H -538.2217 Z"
         id="path4107"
         style="stroke-width:0.999998" />
    </clipPath>
    <clipPath
       clipPathUnits="userSpaceOnUse"
       id="clipPath4111">
      <path
         d="M -572.8174,586.1354 H 23.458606 V -9.1406027 H -572.8174 Z"
         id="path4113"
         style="stroke-width:0.999998" />
    </clipPath>
    <clipPath
       clipPathUnits="userSpaceOnUse"
       id="clipPath4117">
      <path
         d="M -557.4951,577.8502 H 38.780903 V -17.4258 H -557.4951 Z"
         id="path4119"
         style="stroke-width:0.999998" />
    </clipPath>
    <clipPath
       clipPathUnits="userSpaceOnUse"
       id="clipPath4123">
      <path
         d="m -376.0273,94.104597 h 596.276 V -501.1714 h -596.276 z"
         id="path4125"
         style="stroke-width:0.999998" />
    </clipPath>
    <clipPath
       clipPathUnits="userSpaceOnUse"
       id="clipPath4129">
      <path
         d="M -274.0039,517.0846 H 322.27211 V -78.191402 H -274.0039 Z"
         id="path4131"
         style="stroke-width:0.999998" />
    </clipPath>
    <clipPath
       clipPathUnits="userSpaceOnUse"
       id="clipPath4135">
      <path
         d="m -148.2412,393.6217 h 596.276 v -595.276 h -596.276 z"
         id="path4137"
         style="stroke-width:0.999998" />
    </clipPath>
    <clipPath
       clipPathUnits="userSpaceOnUse"
       id="clipPath4141">
      <path
         d="m -235.4824,396.7487 h 596.276 v -595.276 h -596.276 z"
         id="path4143"
         style="stroke-width:0.999998" />
    </clipPath>
    <clipPath
       clipPathUnits="userSpaceOnUse"
       id="clipPath4147">
      <path
         d="m -203.0508,339.153 h 596.276 v -595.276 h -596.276 z"
         id="path4149"
         style="stroke-width:0.999998" />
    </clipPath>
    <clipPath
       clipPathUnits="userSpaceOnUse"
       id="clipPath4153">
      <path
         d="m -112.1729,298.0021 h 596.276 v -595.276 h -596.276 z"
         id="path4155"
         style="stroke-width:0.999998" />
    </clipPath>
    <clipPath
       clipPathUnits="userSpaceOnUse"
       id="clipPath4159">
      <path
         d="m -200.3564,261.2423 h 596.276 v -595.276 h -596.276 z"
         id="path4161"
         style="stroke-width:0.999998" />
    </clipPath>
    <clipPath
       clipPathUnits="userSpaceOnUse"
       id="clipPath4165">
      <path
         d="m -226.791,189.3243 h 596.276 v -595.276 h -596.276 z"
         id="path4167"
         style="stroke-width:0.999998" />
    </clipPath>
    <clipPath
       clipPathUnits="userSpaceOnUse"
       id="clipPath4171">
      <path
         d="m -114.7617,146.0206 h 596.276 v -595.276 h -596.276 z"
         id="path4173"
         style="stroke-width:0.999998" />
    </clipPath>
    <clipPath
       clipPathUnits="userSpaceOnUse"
       id="clipPath4177">
      <path
         d="M -545.417,584.5729 H 50.859001 V -10.7031 H -545.417 Z"
         id="path4179"
         style="stroke-width:0.999998" />
    </clipPath>
    <clipPath
       clipPathUnits="userSpaceOnUse"
       id="clipPath4183">
      <path
         d="m -179.7822,138.2384 h 596.27601 v -595.276 H -179.7822 Z"
         id="path4185"
         style="stroke-width:0.999998" />
    </clipPath>
    <clipPath
       clipPathUnits="userSpaceOnUse"
       id="clipPath4189">
      <path
         d="M -219.248,94.104597 H 377.028 V -501.1714 h -596.276 z"
         id="path4191"
         style="stroke-width:0.999998" />
    </clipPath>
    <clipPath
       clipPathUnits="userSpaceOnUse"
       id="clipPath4195">
      <path
         d="M -561.4131,585.8522 H 34.862903 V -9.4238027 H -561.4131 Z"
         id="path4197"
         style="stroke-width:0.999998" />
    </clipPath>
    <clipPath
       clipPathUnits="userSpaceOnUse"
       id="clipPath4201">
      <path
         d="M -531.1924,581.5885 H 65.083599 V -13.6875 H -531.1924 Z"
         id="path4203"
         style="stroke-width:0.999998" />
    </clipPath>
    <clipPath
       clipPathUnits="userSpaceOnUse"
       id="clipPath4207">
      <path
         d="M -528.0898,575.3815 H 68.186199 V -19.8945 H -528.0898 Z"
         id="path4209"
         style="stroke-width:0.999998" />
    </clipPath>
    <clipPath
       clipPathUnits="userSpaceOnUse"
       id="clipPath4213">
      <path
         d="M -568.2266,575.819 H 28.049401 V -19.457003 H -568.2266 Z"
         id="path4215"
         style="stroke-width:0.999998" />
    </clipPath>
    <clipPath
       clipPathUnits="userSpaceOnUse"
       id="clipPath4219">
      <path
         d="M -553.8975,585.8483 H 42.378504 V -9.4277027 H -553.8975 Z"
         id="path4221"
         style="stroke-width:0.999998" />
    </clipPath>
    <clipPath
       clipPathUnits="userSpaceOnUse"
       id="clipPath4225">
      <path
         d="M -557.0645,585.8483 H 39.211501 V -9.4277027 H -557.0645 Z"
         id="path4227"
         style="stroke-width:0.999998" />
    </clipPath>
    <clipPath
       clipPathUnits="userSpaceOnUse"
       id="clipPath4231">
      <path
         d="M -556.4014,578.0143 H 39.874606 V -17.2617 H -556.4014 Z"
         id="path4233"
         style="stroke-width:0.999998" />
    </clipPath>
    <clipPath
       clipPathUnits="userSpaceOnUse"
       id="clipPath4237">
      <path
         d="M -550.2637,577.3248 H 46.012306 V -17.951198 H -550.2637 Z"
         id="path4239"
         style="stroke-width:0.999998" />
    </clipPath>
    <clipPath
       clipPathUnits="userSpaceOnUse"
       id="clipPath4243">
      <path
         d="M -586.5449,579.5026 H 9.7311002 V -15.7734 H -586.5449 Z"
         id="path4245"
         style="stroke-width:0.999998" />
    </clipPath>
    <clipPath
       clipPathUnits="userSpaceOnUse"
       id="clipPath4249">
      <path
         d="M -542.9326,584.5729 H 53.343399 V -10.7031 H -542.9326 Z"
         id="path4251"
         style="stroke-width:0.999998" />
    </clipPath>
    <clipPath
       clipPathUnits="userSpaceOnUse"
       id="clipPath4255">
      <path
         d="M -548.9834,585.8522 H 47.292601 V -9.4238027 H -548.9834 Z"
         id="path4257"
         style="stroke-width:0.999998" />
    </clipPath>
  </defs>
  <sodipodi:namedview
     id="namedview3150"
     pagecolor="#ffffff"
     bordercolor="#000000"
     borderopacity="0.25"
     inkscape:showpageshadow="2"
     inkscape:pageopacity="0.0"
     inkscape:pagecheckerboard="0"
     inkscape:deskcolor="#d1d1d1"
     showgrid="false"
     inkscape:zoom="0.29734106"
     inkscape:cx="-215.24105"
     inkscape:cy="396.85068"
     inkscape:window-width="1419"
     inkscape:window-height="456"
     inkscape:window-x="0"
     inkscape:window-y="25"
     inkscape:window-maximized="0"
     inkscape:current-layer="svg3148">
    <inkscape:page
       x="0"
       y="0"
       id="page3154"
       width="795.03467"
       height="793.70135" />
  </sodipodi:namedview>
  <path
     d="M 292.331 125.473 C 307.451 111.469 327.582 95.7677 341.046 87.7478 C 361.545 75.5371 375.624 70.6438 376.584 72.0065 C 377.545 73.3705 361.545 82.5371 345.772 94.0531 C 330.388 105.281 313.414 118.672 298.678 132.32 C 282.319 147.469 267.368 164.117 254.043 182.045 C 295.218 193.622 341.127 180.193 369.124 144.422 C 389.843 117.952 396.343 84.8891 389.765 54.4132 C 357.716 33.7106 315.103 32.7772 281.456 55.4425 C 241.336 82.4638 227.534 133.889 246.435 176.633 C 260.132 158.185 275.506 141.057 292.331 125.473"
     style="fill:#000000;fill-opacity:1;fill-rule:nonzero;stroke:none"
     id="path3268" />
  <path
     d="M 239.71 184.318 C 232.311 169.261 228.735 153.071 228.735 137.042 C 228.729 118.673 233.435 100.458 242.478 84.3076 C 215.114 93.2636 191.003 112.318 176.274 139.675 C 151.833 185.069 160.665 239.434 194.323 274.894 C 205.539 242.779 221.061 212.685 240.193 185.302 Z"
     style="fill:#000000;fill-opacity:1;fill-rule:nonzero;stroke:none"
     id="path3272" />
  <path
     d="M 302.388 252.432 C 324.443 233.049 337.528 207.277 341.372 180.323 C 323.583 190.309 303.593 195.448 283.505 195.447 L 283.46 195.447 C 271.632 195.447 259.755 193.653 248.255 190.057 C 229.05 217.429 213.543 247.585 202.486 279.811 C 236.981 286.263 273.981 277.397 302.388 252.432"
     style="fill:#000000;fill-opacity:1;fill-rule:nonzero;stroke:none"
     id="path3276" />
  <path
     d="M 153.016 194.694 C 153.016 190.263 153.265 185.818 153.741 181.375 C 126.265 192.235 103.117 213.889 91.2108 243.455 C 68.1869 300.635 95.8721 365.654 153.051 388.679 C 159.865 391.424 166.791 393.416 173.744 394.748 C 173.959 356.45 179.993 319.531 191.013 284.828 C 166.484 260.947 153.02 228.243 153.016 194.694"
     style="fill:#000000;fill-opacity:1;fill-rule:nonzero;stroke:none"
     id="path3280" />
  <path
     d="M 267.142 348.323 C 287.194 324.566 297.661 295.922 298.95 267.093 C 276.629 283.219 250.443 291.183 224.407 291.183 L 224.381 291.183 C 216.054 291.183 207.741 290.368 199.561 288.758 C 189.025 322.318 183.265 357.988 183.077 394.982 C 214.726 390.396 244.891 374.684 267.142 348.323"
     style="fill:#000000;fill-opacity:1;fill-rule:nonzero;stroke:none"
     id="path3284" />
  <path
     d="M 149.564 397.336 C 111.468 381.987 85.4522 349.444 76.8695 312.25 C 60.9376 339.148 54.2429 371.688 60.2536 404.865 C 72.1655 470.613 129.92 516.466 194.599 515.534 C 181.929 480.613 174.665 443.237 173.829 404.264 C 165.685 402.832 157.553 400.553 149.564 397.336"
     style="fill:#000000;fill-opacity:1;fill-rule:nonzero;stroke:none"
     id="path3288" />
  <path
     d="M 270.734 452.204 C 285.522 420.649 285.214 385.896 272.761 356.09 C 248.853 383.535 216.713 399.829 183.162 404.389 C 184.005 442.561 191.212 479.168 203.746 513.365 C 232.262 503.029 256.845 481.843 270.734 452.204"
     style="fill:#000000;fill-opacity:1;fill-rule:nonzero;stroke:none"
     id="path3292" />
  <path
     d="M 197.655 524.829 C 195.986 524.886 194.32 524.913 192.654 524.917 C 149.872 524.917 110.13 505.802 83.2846 474.441 C 76.5153 509.206 83.35 546.566 105.37 577.802 C 140.882 628.178 204.644 646.801 260.054 627.345 C 234.058 596.878 212.952 562.345 198.124 524.813 Z"
     style="fill:#000000;fill-opacity:1;fill-rule:nonzero;stroke:none"
     id="path3296" />
  <path
     d="M 313.977 528.998 C 316.252 494.941 305.522 463.025 286.046 438.086 C 284.238 444.192 281.964 450.236 279.185 456.168 C 264.242 488.058 237.755 510.933 207.084 522.091 C 221.557 558.479 242.103 591.985 267.402 621.571 C 293.814 599.068 311.48 566.355 313.977 528.998"
     style="fill:#000000;fill-opacity:1;fill-rule:nonzero;stroke:none"
     id="path3300" />
  <path
     d="M 365.339 689.446 C 366.302 689.446 367.268 689.53 368.234 689.675 C 379.064 663.173 379.78 632.545 367.774 604.077 C 357.87 580.597 340.867 562.29 320.324 550.558 C 313.551 581.714 296.677 608.824 273.543 628.571 C 280.245 636.019 287.235 643.217 294.53 650.118 C 312.156 666.787 331.471 681.766 352.111 694.853 C 355.756 691.251 360.611 689.435 365.339 689.446"
     style="fill:#000000;fill-opacity:1;fill-rule:nonzero;stroke:none"
     id="path3304" />
  <path
     d="M 347.307 702.873 C 317.184 683.789 289.851 660.733 266.249 634.425 C 266.09 634.543 265.939 634.671 265.779 634.789 L 264.649 635.623 L 263.329 636.089 C 247.789 641.566 231.642 644.242 215.59 644.242 C 191.767 644.248 168.122 638.337 146.976 626.928 C 163.058 667.589 196.478 701.037 241.306 715.625 C 277.333 727.346 314.559 724.868 346.962 711.294 C 346.731 710.168 346.607 708.993 346.603 707.782 C 346.596 706.125 346.843 704.466 347.307 702.873"
     style="fill:#000000;fill-opacity:1;fill-rule:nonzero;stroke:none"
     id="path3308" />
  <path
     d="M 501.37 125.473 C 486.25 111.469 466.119 95.7677 452.655 87.7478 C 432.156 75.5371 418.077 70.6438 417.117 72.0065 C 416.156 73.3705 432.156 82.5371 447.929 94.0531 C 463.313 105.281 480.287 118.672 495.023 132.32 C 511.382 147.469 526.333 164.117 539.658 182.045 C 498.483 193.622 452.574 180.193 424.577 144.422 C 403.858 117.952 397.358 84.8891 403.936 54.4132 C 435.985 33.7106 478.598 32.7772 512.245 55.4425 C 552.365 82.4638 566.167 133.889 547.266 176.633 C 533.569 158.185 518.195 141.057 501.37 125.473"
     style="fill:#000000;fill-opacity:1;fill-rule:nonzero;stroke:none"
     id="path3312" />
  <path
     d="M 553.991 184.318 C 561.39 169.261 564.966 153.071 564.966 137.042 C 564.972 118.673 560.266 100.458 551.223 84.3076 C 578.587 93.2636 602.698 112.318 617.427 139.675 C 641.868 185.069 633.036 239.434 599.378 274.894 C 588.162 242.779 572.64 212.685 553.508 185.302 Z"
     style="fill:#000000;fill-opacity:1;fill-rule:nonzero;stroke:none"
     id="path3316" />
  <path
     d="M 491.313 252.432 C 469.258 233.049 456.173 207.277 452.329 180.323 C 470.118 190.309 490.108 195.448 510.196 195.447 L 510.241 195.447 C 522.069 195.447 533.946 193.653 545.446 190.057 C 564.651 217.429 580.158 247.585 591.215 279.811 C 556.72 286.263 519.72 277.397 491.313 252.432"
     style="fill:#000000;fill-opacity:1;fill-rule:nonzero;stroke:none"
     id="path3320" />
  <path
     d="M 640.685 194.694 C 640.685 190.263 640.436 185.818 639.96 181.375 C 667.436 192.235 690.584 213.889 702.49 243.455 C 725.514 300.635 697.829 365.654 640.65 388.679 C 633.836 391.424 626.91 393.416 619.957 394.748 C 619.742 356.45 613.708 319.531 602.688 284.828 C 627.217 260.947 640.681 228.243 640.685 194.694"
     style="fill:#000000;fill-opacity:1;fill-rule:nonzero;stroke:none"
     id="path3324" />
  <path
     d="M 526.559 348.323 C 506.507 324.566 496.04 295.922 494.751 267.093 C 517.072 283.219 543.258 291.183 569.294 291.183 L 569.32 291.183 C 577.647 291.183 585.96 290.368 594.14 288.758 C 604.676 322.318 610.436 357.988 610.624 394.982 C 578.975 390.396 548.81 374.684 526.559 348.323"
     style="fill:#000000;fill-opacity:1;fill-rule:nonzero;stroke:none"
     id="path3328" />
  <path
     d="M 644.137 397.336 C 682.233 381.987 708.249 349.444 716.831 312.25 C 732.763 339.148 739.458 371.688 733.447 404.865 C 721.535 470.613 663.781 516.466 599.102 515.534 C 611.772 480.613 619.036 443.237 619.872 404.264 C 628.016 402.832 636.148 400.553 644.137 397.336"
     style="fill:#000000;fill-opacity:1;fill-rule:nonzero;stroke:none"
     id="path3332" />
  <path
     d="M 522.966 452.204 C 508.178 420.649 508.486 385.896 520.939 356.09 C 544.847 383.535 576.987 399.829 610.538 404.389 C 609.695 442.561 602.488 479.168 589.954 513.365 C 561.438 503.029 536.855 481.843 522.966 452.204"
     style="fill:#000000;fill-opacity:1;fill-rule:nonzero;stroke:none"
     id="path3336" />
  <path
     d="M 596.046 524.829 C 597.715 524.886 599.381 524.913 601.047 524.917 C 643.829 524.917 683.571 505.802 710.416 474.441 C 717.186 509.206 710.351 546.566 688.331 577.802 C 652.819 628.178 589.057 646.801 533.647 627.345 C 559.643 596.878 580.749 562.345 595.577 524.813 Z"
     style="fill:#000000;fill-opacity:1;fill-rule:nonzero;stroke:none"
     id="path3340" />
  <path
     d="M 479.724 528.998 C 477.449 494.941 488.179 463.025 507.655 438.086 C 509.463 444.192 511.737 450.236 514.516 456.168 C 529.459 488.058 555.946 510.933 586.617 522.091 C 572.144 558.479 551.598 591.985 526.299 621.571 C 499.887 599.068 482.221 566.355 479.724 528.998"
     style="fill:#000000;fill-opacity:1;fill-rule:nonzero;stroke:none"
     id="path3344" />
  <path
     d="M 423.577 700.066 C 427.814 697.563 433.722 698.779 436.404 703.181 C 439.085 707.585 437.656 712.371 433.29 716.006 C 428.926 719.642 414.916 729.027 386.156 746.038 C 378.869 750.347 370.225 755.257 361.268 760.246 C 345.848 758.754 330.711 756.306 315.912 752.957 C 330.621 747.209 348.635 739.017 371.989 727.705 C 393.593 717.241 411.489 707.205 423.577 700.066"
     style="fill:#000000;fill-opacity:1;fill-rule:nonzero;stroke:none"
     id="path3348" />
  <path
     d="M 428.4 730.925 C 427.028 731.834 425.561 732.794 423.927 733.852 C 419.121 736.949 413.169 740.67 405.921 745.073 C 406.461 745.394 406.996 745.712 407.545 746.037 C 414.832 750.346 423.476 755.256 432.433 760.245 C 447.853 758.753 462.991 756.305 477.789 752.956 C 464.519 747.772 448.544 740.586 428.4 730.925"
     style="fill:#000000;fill-opacity:1;fill-rule:nonzero;stroke:none"
     id="path3352" />
  <path
     d="M 386.995 709.704 C 380.56 706.144 374.886 702.879 370.124 700.065 C 365.887 697.564 359.978 698.78 357.298 703.18 C 354.616 707.584 356.046 712.371 360.411 716.007 C 361.578 716.977 363.439 718.365 366.079 720.193 C 366.694 719.897 367.298 719.605 367.919 719.305 C 374.666 716.037 381.044 712.811 386.995 709.704"
     style="fill:#000000;fill-opacity:1;fill-rule:nonzero;stroke:none"
     id="path3356" />
  <path
     d="M 428.362 689.446 C 427.399 689.446 426.433 689.53 425.467 689.675 C 414.637 663.173 413.921 632.545 425.927 604.077 C 435.831 580.597 452.834 562.29 473.377 550.558 C 480.15 581.714 497.024 608.824 520.158 628.571 C 513.456 636.019 506.466 643.217 499.171 650.118 C 481.545 666.787 462.23 681.766 441.59 694.853 C 437.945 691.251 433.09 689.435 428.362 689.446"
     style="fill:#000000;fill-opacity:1;fill-rule:nonzero;stroke:none"
     id="path3360" />
  <path
     d="M 446.393 702.873 C 476.516 683.789 503.849 660.733 527.451 634.425 C 527.61 634.543 527.761 634.671 527.921 634.789 L 529.051 635.623 L 530.371 636.089 C 545.911 641.566 562.058 644.242 578.11 644.242 C 601.933 644.248 625.578 638.337 646.724 626.928 C 630.642 667.589 597.222 701.037 552.394 715.625 C 516.367 727.346 479.141 724.868 446.738 711.294 C 446.969 710.168 447.093 708.993 447.097 707.782 C 447.104 706.125 446.857 704.466 446.393 702.873"
     style="fill:#000000;fill-opacity:1;fill-rule:nonzero;stroke:none"
     id="path3364" />
</svg>
