<?xml version="1.0" encoding="UTF-8" standalone="no"?>
<!-- Created with Inkscape (http://www.inkscape.org/) -->

<svg
   version="1.1"
   id="svg11991"
   width="795.03467"
   height="793.70135"
   viewBox="0 0 795.03467 793.70135"
   sodipodi:docname="Yae Mitsukashiwa.svg"
   inkscape:version="1.2 (dc2aeda, 2022-05-15)"
   xmlns:inkscape="http://www.inkscape.org/namespaces/inkscape"
   xmlns:sodipodi="http://sodipodi.sourceforge.net/DTD/sodipodi-0.dtd"
   xmlns="http://www.w3.org/2000/svg"
   xmlns:svg="http://www.w3.org/2000/svg">
  <defs
     id="defs11995">
    <clipPath
       clipPathUnits="userSpaceOnUse"
       id="clipPath12820">
      <path
         d="M -540.8213,585.8483 H 55.454701 V -9.4277027 H -540.8213 Z"
         id="path12822"
         style="stroke-width:0.999998" />
    </clipPath>
    <clipPath
       clipPathUnits="userSpaceOnUse"
       id="clipPath12826">
      <path
         d="M -542.9326,584.5729 H 53.343399 V -10.7031 H -542.9326 Z"
         id="path12828"
         style="stroke-width:0.999998" />
    </clipPath>
    <clipPath
       clipPathUnits="userSpaceOnUse"
       id="clipPath12832">
      <path
         d="M -528.0898,575.3815 H 68.186199 V -19.8945 H -528.0898 Z"
         id="path12834"
         style="stroke-width:0.999998" />
    </clipPath>
    <clipPath
       clipPathUnits="userSpaceOnUse"
       id="clipPath12838">
      <path
         d="M -536.6982,584.5729 H 59.577804 V -10.7031 H -536.6982 Z"
         id="path12840"
         style="stroke-width:0.999998" />
    </clipPath>
    <clipPath
       clipPathUnits="userSpaceOnUse"
       id="clipPath12844">
      <path
         d="M -545.417,584.5729 H 50.859001 V -10.7031 H -545.417 Z"
         id="path12846"
         style="stroke-width:0.999998" />
    </clipPath>
    <clipPath
       clipPathUnits="userSpaceOnUse"
       id="clipPath12850">
      <path
         d="M -561.4131,585.8522 H 34.862903 V -9.4238027 H -561.4131 Z"
         id="path12852"
         style="stroke-width:0.999998" />
    </clipPath>
    <clipPath
       clipPathUnits="userSpaceOnUse"
       id="clipPath12856">
      <path
         d="M -557.0645,585.8483 H 39.211501 V -9.4277027 H -557.0645 Z"
         id="path12858"
         style="stroke-width:0.999998" />
    </clipPath>
    <clipPath
       clipPathUnits="userSpaceOnUse"
       id="clipPath12862">
      <path
         d="M -553.8975,585.8483 H 42.378504 V -9.4277027 H -553.8975 Z"
         id="path12864"
         style="stroke-width:0.999998" />
    </clipPath>
    <clipPath
       clipPathUnits="userSpaceOnUse"
       id="clipPath12868">
      <path
         d="M -548.9834,585.8522 H 47.292601 V -9.4238027 H -548.9834 Z"
         id="path12870"
         style="stroke-width:0.999998" />
    </clipPath>
    <clipPath
       clipPathUnits="userSpaceOnUse"
       id="clipPath12874">
      <path
         d="m -390.2324,237.1119 h 596.27601 v -595.276 H -390.2324 Z"
         id="path12876"
         style="stroke-width:0.999998" />
    </clipPath>
    <clipPath
       clipPathUnits="userSpaceOnUse"
       id="clipPath12880">
      <path
         d="m -416.6797,99.859003 h 596.276 V -495.417 h -596.276 z"
         id="path12882"
         style="stroke-width:0.999998" />
    </clipPath>
    <clipPath
       clipPathUnits="userSpaceOnUse"
       id="clipPath12886">
      <path
         d="m -336.2764,267.8434 h 596.276 v -595.276 h -596.276 z"
         id="path12888"
         style="stroke-width:0.999998" />
    </clipPath>
    <clipPath
       clipPathUnits="userSpaceOnUse"
       id="clipPath12892">
      <path
         d="m -363.5479,253.3278 h 596.276 v -595.276 h -596.276 z"
         id="path12894"
         style="stroke-width:0.999998" />
    </clipPath>
    <clipPath
       clipPathUnits="userSpaceOnUse"
       id="clipPath12898">
      <path
         d="M -564.5732,585.8483 H 31.702801 V -9.4277027 H -564.5732 Z"
         id="path12900"
         style="stroke-width:0.999998" />
    </clipPath>
    <clipPath
       clipPathUnits="userSpaceOnUse"
       id="clipPath12904">
      <path
         d="M -567.7754,585.8522 H 28.500601 V -9.4238027 H -567.7754 Z"
         id="path12906"
         style="stroke-width:0.999998" />
    </clipPath>
    <clipPath
       clipPathUnits="userSpaceOnUse"
       id="clipPath12911">
      <path
         d="M -572.8174,586.1354 H 23.458606 V -9.1406027 H -572.8174 Z"
         id="path12913"
         style="stroke-width:0.999998" />
    </clipPath>
    <clipPath
       clipPathUnits="userSpaceOnUse"
       id="clipPath12917">
      <path
         d="M -574.5459,585.8522 H 21.730103 V -9.4238027 H -574.5459 Z"
         id="path12919"
         style="stroke-width:0.999998" />
    </clipPath>
    <clipPath
       clipPathUnits="userSpaceOnUse"
       id="clipPath12923">
      <path
         d="M -576.3691,585.5885 H 19.906905 V -9.6875027 H -576.3691 Z"
         id="path12925"
         style="stroke-width:0.999998" />
    </clipPath>
    <clipPath
       clipPathUnits="userSpaceOnUse"
       id="clipPath12929">
      <path
         d="M -557.4951,577.8502 H 38.780903 V -17.4258 H -557.4951 Z"
         id="path12931"
         style="stroke-width:0.999998" />
    </clipPath>
    <clipPath
       clipPathUnits="userSpaceOnUse"
       id="clipPath12935">
      <path
         d="M -568.2266,575.819 H 28.049401 V -19.457003 H -568.2266 Z"
         id="path12937"
         style="stroke-width:0.999998" />
    </clipPath>
    <clipPath
       clipPathUnits="userSpaceOnUse"
       id="clipPath12941">
      <path
         d="M -550.2637,577.3248 H 46.012306 V -17.951198 H -550.2637 Z"
         id="path12943"
         style="stroke-width:0.999998" />
    </clipPath>
    <clipPath
       clipPathUnits="userSpaceOnUse"
       id="clipPath12948">
      <path
         d="M -556.4014,578.0143 H 39.874606 V -17.2617 H -556.4014 Z"
         id="path12950"
         style="stroke-width:0.999998" />
    </clipPath>
    <clipPath
       clipPathUnits="userSpaceOnUse"
       id="clipPath12954">
      <path
         d="M -586.5449,579.5026 H 9.7311002 V -15.7734 H -586.5449 Z"
         id="path12956"
         style="stroke-width:0.999998" />
    </clipPath>
    <clipPath
       clipPathUnits="userSpaceOnUse"
       id="clipPath12960">
      <path
         d="M -584.1943,578.9381 H 12.081705 V -16.337903 H -584.1943 Z"
         id="path12962"
         style="stroke-width:0.999998" />
    </clipPath>
    <clipPath
       clipPathUnits="userSpaceOnUse"
       id="clipPath12966">
      <path
         d="M -538.2217,577.9479 H 58.054299 V -17.328098 H -538.2217 Z"
         id="path12968"
         style="stroke-width:0.999998" />
    </clipPath>
    <clipPath
       clipPathUnits="userSpaceOnUse"
       id="clipPath12972">
      <path
         d="m -331.5273,297.6403 h 596.276 v -595.276 h -596.276 z"
         id="path12974"
         style="stroke-width:0.999998" />
    </clipPath>
    <clipPath
       clipPathUnits="userSpaceOnUse"
       id="clipPath12978">
      <path
         d="m -297.6377,40.3092 h 596.276 v -595.276 h -596.276 z"
         id="path12980"
         style="stroke-width:0.999998" />
    </clipPath>
    <clipPath
       clipPathUnits="userSpaceOnUse"
       id="clipPath12984">
      <path
         d="M -75.102497,426.4869 H 521.17351 v -595.276 H -75.102497 Z"
         id="path12986"
         style="stroke-width:0.999998" />
    </clipPath>
    <clipPath
       clipPathUnits="userSpaceOnUse"
       id="clipPath12990">
      <path
         d="M -520.8096,426.1158 H 75.466404 v -595.276 H -520.8096 Z"
         id="path12992"
         style="stroke-width:0.999998" />
    </clipPath>
    <clipPath
       clipPathUnits="userSpaceOnUse"
       id="clipPath12996">
      <path
         d="m -267.2012,271.9352 h 596.276 v -595.276 h -596.276 z"
         id="path12998"
         style="stroke-width:0.999998" />
    </clipPath>
    <clipPath
       clipPathUnits="userSpaceOnUse"
       id="clipPath13002">
      <path
         d="m -253.1484,264.8365 h 596.276 v -595.276 h -596.276 z"
         id="path13004"
         style="stroke-width:0.999998" />
    </clipPath>
    <clipPath
       clipPathUnits="userSpaceOnUse"
       id="clipPath13008">
      <path
         d="m -226.0371,250.0914 h 596.276 v -595.276 h -596.276 z"
         id="path13010"
         style="stroke-width:0.999998" />
    </clipPath>
    <clipPath
       clipPathUnits="userSpaceOnUse"
       id="clipPath13014">
      <path
         d="m -199.2432,247.8942 h 596.276 v -595.276 h -596.276 z"
         id="path13016"
         style="stroke-width:0.999998" />
    </clipPath>
    <clipPath
       clipPathUnits="userSpaceOnUse"
       id="clipPath13020">
      <path
         d="m -226.6299,262.8981 h 596.276 v -595.276 h -596.276 z"
         id="path13022"
         style="stroke-width:0.999998" />
    </clipPath>
    <clipPath
       clipPathUnits="userSpaceOnUse"
       id="clipPath13026">
      <path
         d="m -252.8311,279.2555 h 596.27601 v -595.276 H -252.8311 Z"
         id="path13028"
         style="stroke-width:0.999998" />
    </clipPath>
    <clipPath
       clipPathUnits="userSpaceOnUse"
       id="clipPath13032">
      <path
         d="m -67.1514,293.6178 h 596.276 v -595.276 h -596.276 z"
         id="path13034"
         style="stroke-width:0.999998" />
    </clipPath>
    <clipPath
       clipPathUnits="userSpaceOnUse"
       id="clipPath13038">
      <path
         d="m -290.915,337.0299 h 596.276 v -595.276 h -596.276 z"
         id="path13040"
         style="stroke-width:0.999998" />
    </clipPath>
    <clipPath
       clipPathUnits="userSpaceOnUse"
       id="clipPath13044">
      <path
         d="m -291.7949,352.7496 h 596.276 v -595.276 h -596.276 z"
         id="path13046"
         style="stroke-width:0.999998" />
    </clipPath>
    <clipPath
       clipPathUnits="userSpaceOnUse"
       id="clipPath13050">
      <path
         d="m -292.5801,383.5983 h 596.276 v -595.276 h -596.276 z"
         id="path13052"
         style="stroke-width:0.999998" />
    </clipPath>
    <clipPath
       clipPathUnits="userSpaceOnUse"
       id="clipPath13056">
      <path
         d="m -304.0742,407.9049 h 596.276 v -595.276 h -596.276 z"
         id="path13058"
         style="stroke-width:0.999998" />
    </clipPath>
    <clipPath
       clipPathUnits="userSpaceOnUse"
       id="clipPath13062">
      <path
         d="m -303.373,376.6862 h 596.276 v -595.276 h -596.276 z"
         id="path13064"
         style="stroke-width:0.999998" />
    </clipPath>
    <clipPath
       clipPathUnits="userSpaceOnUse"
       id="clipPath13068">
      <path
         d="m -304.4365,345.8131 h 596.276 v -595.276 h -596.276 z"
         id="path13070"
         style="stroke-width:0.999998" />
    </clipPath>
    <clipPath
       clipPathUnits="userSpaceOnUse"
       id="clipPath13074">
      <path
         d="m -409.7148,499.4362 h 596.276 V -95.839802 h -596.276 z"
         id="path13076"
         style="stroke-width:0.999998" />
    </clipPath>
    <clipPath
       clipPathUnits="userSpaceOnUse"
       id="clipPath13080">
      <path
         d="m -335.4336,283.9469 h 596.276 v -595.276 h -596.276 z"
         id="path13082"
         style="stroke-width:0.999998" />
    </clipPath>
    <clipPath
       clipPathUnits="userSpaceOnUse"
       id="clipPath13086">
      <path
         d="m -348.6064,275.3258 h 596.276 v -595.276 h -596.276 z"
         id="path13088"
         style="stroke-width:0.999998" />
    </clipPath>
    <clipPath
       clipPathUnits="userSpaceOnUse"
       id="clipPath13092">
      <path
         d="m -374.9287,259.2203 h 596.276 v -595.276 h -596.276 z"
         id="path13094"
         style="stroke-width:0.999998" />
    </clipPath>
    <clipPath
       clipPathUnits="userSpaceOnUse"
       id="clipPath13098">
      <path
         d="M -531.1924,581.5885 H 65.083599 V -13.6875 H -531.1924 Z"
         id="path13100"
         style="stroke-width:0.999998" />
    </clipPath>
  </defs>
  <sodipodi:namedview
     id="namedview11993"
     pagecolor="#ffffff"
     bordercolor="#000000"
     borderopacity="0.25"
     inkscape:showpageshadow="2"
     inkscape:pageopacity="0.0"
     inkscape:pagecheckerboard="0"
     inkscape:deskcolor="#d1d1d1"
     showgrid="false"
     inkscape:zoom="0.29734106"
     inkscape:cx="-215.24105"
     inkscape:cy="396.85068"
     inkscape:window-width="1419"
     inkscape:window-height="456"
     inkscape:window-x="0"
     inkscape:window-y="25"
     inkscape:window-maximized="0"
     inkscape:current-layer="svg11991">
    <inkscape:page
       x="0"
       y="0"
       id="page11997"
       width="795.03467"
       height="793.70135" />
  </sodipodi:namedview>
  <path
     d="M 442.036 396.854 C 442.036 421.649 421.937 441.759 397.129 441.759 C 372.344 441.759 352.228 421.649 352.232 396.854 C 352.232 372.047 372.339 351.946 397.135 351.946 C 421.937 351.946 442.036 372.047 442.036 396.854"
     style="fill:#000000;fill-opacity:1;fill-rule:nonzero;stroke:none"
     id="path12111" />
  <path
     d="M 396.85 53.7456 L 396.85 53.7456 C 398.51 53.7456 399.801 55.0763 399.801 56.7189 L 401.047 192.609 L 401.063 199.104 C 409.361 192.947 420.523 179.565 427.241 157.481 C 439.009 118.767 425.81 73.7296 425.81 73.7296 C 425.322 72.1789 426.21 70.5189 427.79 70.0402 C 429.355 69.5576 431.03 70.4336 431.519 71.9842 C 431.519 71.9842 446.343 114.088 434.435 158.968 C 426.222 189.92 410.195 203.2 401.058 208.465 L 401.058 242.169 C 405.643 240.8 437.151 229.978 454.278 185.927 C 472.879 138.069 461.758 90.6375 461.758 90.6375 C 461.301 89.0708 462.21 87.4202 463.806 86.9749 C 465.386 86.5189 467.038 87.4348 467.499 88.9962 C 467.499 88.9962 481.802 131.792 460.534 188.251 C 443.489 233.489 412.643 247.449 401.063 251.217 L 401.047 282.922 C 401.471 282.829 451.991 274.186 477.116 220.105 C 502.235 165.992 497.85 119.177 497.85 119.177 C 497.694 117.548 498.886 116.093 500.534 115.931 C 502.168 115.756 503.626 116.947 503.792 118.579 L 503.792 118.564 C 503.792 118.564 510.643 163.536 484.011 221.964 C 457.39 280.386 402.349 291.817 402.349 291.817 C 401.101 292.132 401.169 292.142 401.047 292.174 L 401.053 324.636 C 402.203 324.342 403.462 323.981 404.897 323.548 C 404.897 323.548 452.31 311.422 485.891 270.076 C 519.308 228.934 527.155 158.268 527.155 158.268 C 527.238 156.641 528.628 155.368 530.27 155.432 C 531.918 155.507 533.198 156.884 533.131 158.519 C 533.131 158.519 530.527 226.853 491.584 274.152 C 452.643 321.456 405.498 332.625 405.498 332.625 C 403.851 333.102 402.366 333.438 401.058 333.733 L 401.142 343.593 C 412.077 344.553 422.705 348.864 431.218 356.102 C 460.545 341.88 514.716 312.774 525.84 300.69 C 547.972 276.666 534.099 254.98 534.099 254.98 C 534.099 254.98 568.515 236.297 568.578 196.829 C 568.65 157.356 545.072 134.02 545.072 134.02 C 545.072 134.02 551.048 111.173 527.266 82.0229 C 503.504 52.8763 462.091 60.6549 462.091 60.6549 C 462.091 60.6549 435.498 31.7937 396.85 31.7283 C 358.198 31.7937 331.599 60.6549 331.599 60.6549 C 331.599 60.6549 290.193 52.8763 266.426 82.0229 C 242.654 111.173 248.618 134.02 248.618 134.02 C 248.618 134.02 225.045 157.356 225.113 196.829 C 225.18 236.297 259.593 254.98 259.593 254.98 C 259.593 254.98 245.725 276.666 267.85 300.69 C 278.98 312.774 333.146 341.88 362.473 356.102 C 370.986 348.864 381.625 344.553 392.553 343.593 L 392.639 333.733 C 391.33 333.438 389.85 333.102 388.205 332.625 C 388.205 332.625 341.047 321.456 302.113 274.152 C 263.165 226.853 260.56 158.519 260.56 158.519 C 260.494 156.884 261.774 155.507 263.433 155.432 C 265.069 155.368 266.46 156.641 266.537 158.268 C 266.537 158.268 274.384 228.934 307.805 270.076 C 341.382 311.422 388.798 323.548 388.798 323.548 C 390.227 323.981 391.498 324.342 392.645 324.636 L 392.651 292.174 C 392.527 292.142 392.599 292.132 391.354 291.817 C 391.354 291.817 336.307 280.386 309.686 221.964 C 283.054 163.536 289.897 118.564 289.897 118.564 L 289.897 118.579 C 290.072 116.947 291.529 115.756 293.164 115.931 C 294.805 116.093 296.002 117.548 295.852 119.177 C 295.852 119.177 291.457 165.992 316.586 220.105 C 341.706 274.186 392.221 282.829 392.651 282.922 L 392.634 251.217 C 381.046 247.449 350.209 233.489 333.157 188.251 C 311.889 131.792 326.201 88.9962 326.201 88.9962 C 326.658 87.4348 328.312 86.5189 329.892 86.9749 C 331.489 87.4202 332.401 89.0708 331.945 90.6375 C 331.945 90.6375 320.817 138.069 339.413 185.927 C 356.551 229.978 388.058 240.8 392.639 242.169 L 392.634 208.465 C 383.507 203.2 367.475 189.92 359.262 158.968 C 347.353 114.088 362.177 71.9842 362.177 71.9842 C 362.661 70.4336 364.342 69.5576 365.913 70.0402 C 367.486 70.5189 368.37 72.1789 367.893 73.7296 C 367.893 73.7296 354.687 118.767 366.455 157.481 C 373.174 179.565 384.33 192.947 392.634 199.104 L 392.645 192.609 L 393.897 56.7189 C 393.89 55.0763 395.194 53.7456 396.85 53.7456"
     style="fill:#000000;fill-opacity:1;fill-rule:nonzero;stroke:none"
     id="path12115" />
  <path
     d="M 100.137 568.649 L 100.137 568.649 C 99.3077 567.214 99.809 565.421 101.237 564.605 L 218.298 495.576 L 223.91 492.319 C 214.429 488.209 197.263 485.235 174.775 490.46 C 135.366 499.625 102.964 533.577 102.964 533.577 C 101.866 534.772 99.981 534.833 98.7783 533.706 C 97.5757 532.59 97.4943 530.701 98.5957 529.502 C 98.5957 529.502 127.649 495.611 172.47 483.485 C 203.379 475.123 222.898 482.364 232.025 487.639 L 261.214 470.789 C 257.734 467.507 232.603 445.631 185.893 452.819 C 135.144 460.639 99.629 493.991 99.629 493.991 C 98.5063 495.172 96.6197 495.207 95.4343 494.047 C 94.2543 492.905 94.2197 491.016 95.337 489.84 C 95.337 489.84 125.25 456.048 184.781 446.239 C 232.481 438.383 259.994 458.112 269.042 466.261 L 296.507 450.421 C 296.221 450.099 263.471 410.672 204.078 415.956 C 144.648 421.255 106.308 448.463 106.308 448.463 C 104.972 449.412 103.113 449.107 102.145 447.763 C 101.177 446.432 101.484 444.573 102.813 443.612 L 102.802 443.617 C 102.802 443.617 138.321 415.204 202.237 409.055 C 266.147 402.899 303.564 444.848 303.564 444.848 C 304.46 445.773 304.432 445.705 304.522 445.797 L 332.636 429.561 C 331.806 428.712 330.858 427.799 329.763 426.775 C 329.763 426.775 295.563 391.776 242.966 383.365 C 190.623 374.999 125.5 403.537 125.5 403.537 C 124.054 404.28 122.256 403.712 121.488 402.26 C 120.73 400.791 121.281 398.993 122.734 398.233 C 122.734 398.233 183.211 366.324 243.642 376.4 C 304.087 386.471 337.331 421.72 337.331 421.72 C 338.567 422.907 339.602 424.023 340.51 425.009 L 349.006 420.007 C 344.371 410.06 342.784 398.692 344.799 387.701 C 317.822 369.415 265.523 337.056 249.498 333.462 C 217.635 326.311 205.781 349.168 205.781 349.168 C 205.781 349.168 172.398 328.703 138.182 348.382 C 103.965 368.059 95.5463 400.143 95.5463 400.143 C 95.5463 400.143 72.7757 406.396 59.4198 441.564 C 46.0531 476.716 73.4984 508.688 73.4984 508.688 C 73.4984 508.688 61.8011 546.152 81.0664 579.657 C 100.453 613.096 138.744 621.697 138.744 621.697 C 138.744 621.697 152.713 661.453 189.833 667.457 C 226.974 673.471 243.767 656.878 243.767 656.878 C 243.767 656.878 275.765 665.625 309.919 645.833 C 344.063 626.038 343.04 586.897 343.04 586.897 C 343.04 586.897 368.755 588.066 378.498 556.886 C 383.395 541.209 381.516 479.745 379.172 447.236 C 368.65 443.483 359.596 436.429 353.295 427.444 L 344.722 432.299 C 345.115 433.579 345.567 435.033 345.978 436.696 C 345.978 436.696 359.882 483.112 338.382 540.488 C 316.892 597.864 259.014 634.286 259.014 634.286 C 257.631 635.165 255.798 634.741 254.907 633.35 C 254.039 631.958 254.441 630.118 255.809 629.237 C 255.809 629.237 313.086 587.108 332.007 537.596 C 351.02 487.843 337.815 440.717 337.815 440.717 C 337.476 439.26 337.159 437.985 336.84 436.843 L 308.718 453.067 C 308.756 453.191 308.711 453.136 309.062 454.373 C 309.062 454.373 326.686 507.757 289.395 560.024 C 252.113 612.298 209.743 628.853 209.743 628.853 L 209.755 628.848 C 208.265 629.522 206.501 628.853 205.831 627.346 C 205.147 625.844 205.815 624.08 207.307 623.4 C 207.307 623.4 250.038 603.796 284.345 554.977 C 318.611 506.182 300.836 458.109 300.71 457.696 L 273.259 473.564 C 275.785 485.477 279.118 519.169 248.462 556.546 C 210.205 603.196 165.989 612.205 165.989 612.205 C 164.408 612.588 162.789 611.616 162.394 610.017 C 161.976 608.416 162.954 606.801 164.537 606.412 C 164.537 606.412 211.181 592.334 243.327 552.296 C 272.903 515.432 266.527 482.733 265.423 478.081 L 236.231 494.936 C 236.243 505.476 232.754 525.998 210.055 548.589 C 177.146 581.338 133.27 589.558 133.27 589.558 C 131.682 589.906 130.078 588.894 129.718 587.297 C 129.344 585.689 130.336 584.092 131.921 583.736 C 131.921 583.736 177.525 572.652 205.17 543.1 C 220.941 526.241 226.949 509.886 228.131 499.621 L 222.498 502.853 L 104.193 569.72 C 102.768 570.542 100.966 570.085 100.137 568.649"
     style="fill:#000000;fill-opacity:1;fill-rule:nonzero;stroke:none"
     id="path12119" />
  <path
     d="M 694.413 568.154 L 694.413 568.154 C 693.584 569.59 691.781 570.053 690.356 569.223 L 572.052 502.362 L 566.42 499.126 C 567.6 509.394 573.609 525.749 589.38 542.61 C 617.025 572.155 662.628 583.246 662.628 583.246 C 664.213 583.595 665.205 585.198 664.83 586.802 C 664.469 588.405 662.868 589.417 661.281 589.061 C 661.281 589.061 617.403 580.847 584.495 548.098 C 561.796 525.506 558.307 504.986 558.317 494.445 L 529.124 477.592 C 528.023 482.244 521.64 514.942 551.221 551.805 C 583.371 591.843 630.013 605.921 630.013 605.921 C 631.594 606.311 632.572 607.925 632.156 609.527 C 631.761 611.126 630.141 612.098 628.56 611.715 C 628.56 611.715 584.337 602.706 546.088 556.058 C 515.425 518.675 518.759 484.988 521.289 473.07 L 493.839 457.202 C 493.707 457.62 475.934 505.693 510.205 554.487 C 544.512 603.306 587.243 622.905 587.243 622.905 C 588.733 623.59 589.403 625.353 588.719 626.855 C 588.051 628.358 586.285 629.026 584.795 628.358 L 584.8 628.363 C 584.8 628.363 542.436 611.81 505.153 559.529 C 467.863 507.265 485.487 453.881 485.487 453.881 C 485.836 452.645 485.794 452.697 485.831 452.578 L 457.71 436.352 C 457.391 437.492 457.074 438.769 456.728 440.228 C 456.728 440.228 443.528 487.349 462.539 537.106 C 481.463 586.618 538.741 628.747 538.741 628.747 C 540.108 629.627 540.509 631.47 539.643 632.855 C 538.752 634.251 536.915 634.67 535.536 633.794 C 535.536 633.794 477.658 597.374 456.167 539.998 C 434.67 482.62 448.571 436.204 448.571 436.204 C 448.983 434.541 449.432 433.089 449.828 431.808 L 441.247 426.954 C 434.952 435.937 425.899 442.993 415.372 446.746 C 413.03 479.254 411.154 540.721 416.052 556.397 C 425.794 587.57 451.508 586.401 451.508 586.401 C 451.508 586.401 450.484 625.549 484.63 645.336 C 518.787 665.135 550.783 656.388 550.783 656.388 C 550.783 656.388 567.577 672.982 604.717 666.96 C 641.837 660.955 655.806 621.209 655.806 621.209 C 655.806 621.209 694.096 612.606 713.484 579.167 C 732.748 545.661 721.052 508.198 721.052 508.198 C 721.052 508.198 748.497 476.222 735.129 441.07 C 721.774 405.905 699.004 399.653 699.004 399.653 C 699.004 399.653 690.58 367.568 656.368 347.891 C 622.144 328.213 588.768 348.677 588.768 348.677 C 588.768 348.677 576.915 325.817 545.047 332.971 C 529.024 336.567 476.728 368.926 449.75 387.21 C 451.764 398.201 450.179 409.568 445.544 419.516 L 454.035 424.518 C 454.948 423.533 455.983 422.414 457.218 421.228 C 457.218 421.228 490.462 385.978 550.899 375.908 C 611.337 365.833 671.816 397.742 671.816 397.742 C 673.274 398.501 673.818 400.301 673.061 401.768 C 672.293 403.22 670.492 403.792 669.05 403.045 C 669.05 403.045 603.927 374.506 551.584 382.878 C 498.988 391.288 464.78 426.286 464.78 426.286 C 463.691 427.309 462.744 428.222 461.915 429.07 L 490.027 445.308 C 490.116 445.213 490.09 445.28 490.986 444.358 C 490.986 444.358 528.401 402.405 592.312 408.562 C 656.221 414.714 691.748 443.126 691.748 443.126 L 691.737 443.122 C 693.072 444.081 693.372 445.94 692.398 447.273 C 691.437 448.613 689.577 448.92 688.242 447.97 C 688.242 447.97 649.901 420.762 590.471 415.465 C 531.077 410.181 498.329 449.61 498.041 449.929 L 525.508 465.77 C 534.556 457.624 562.068 437.893 609.769 445.748 C 669.3 455.561 699.204 489.348 699.204 489.348 C 700.329 490.524 700.294 492.414 699.109 493.554 C 697.93 494.714 696.044 494.678 694.92 493.501 C 694.92 493.501 659.405 460.146 608.656 452.325 C 561.94 445.141 536.815 467.016 533.337 470.298 L 562.524 487.149 C 571.651 481.874 591.171 474.63 622.077 482.996 C 666.896 495.121 695.954 529.01 695.954 529.01 C 697.052 530.209 696.973 532.097 695.773 533.214 C 694.564 534.343 692.681 534.279 691.586 533.085 C 691.586 533.085 659.182 499.132 619.775 489.97 C 597.287 484.742 580.119 487.717 570.639 491.826 L 576.252 495.084 L 693.312 564.115 C 694.741 564.933 695.242 566.719 694.413 568.154"
     style="fill:#000000;fill-opacity:1;fill-rule:nonzero;stroke:none"
     id="path12123" />
  <path
     d="M 356.268 362.58 C 352.98 360.964 349.429 359.199 345.701 357.309 C 345.288 358.971 344.835 360.613 344.433 361.893 L 353.012 366.749 C 354.024 365.305 355.116 363.919 356.268 362.58"
     style="fill:#000000;fill-opacity:1;fill-rule:nonzero;stroke:none"
     id="path12127" />
  <path
     d="M 337.531 353.115 C 328.45 348.408 318.712 343.204 309.331 337.966 C 309 339.175 308.78 339.818 308.78 339.818 C 308.428 341.055 308.471 341 308.439 341.123 L 336.554 357.35 C 336.874 356.207 337.192 354.574 337.531 353.115"
     style="fill:#000000;fill-opacity:1;fill-rule:nonzero;stroke:none"
     id="path12131" />
  <path
     d="M 301.383 333.455 C 290.744 327.31 281.206 321.567 273.671 316.318 C 273.424 317.96 273.238 319.42 272.975 320.632 L 300.428 336.495 C 300.448 336.435 300.838 335.375 301.383 333.455"
     style="fill:#000000;fill-opacity:1;fill-rule:nonzero;stroke:none"
     id="path12135" />
  <path
     d="M 265.658 330.526 C 273.905 334.375 283.643 339.794 294.217 345.889 C 295.486 344.565 296.186 343.814 296.231 343.77 L 268.762 327.933 C 267.894 328.71 266.849 329.574 265.658 330.526"
     style="fill:#000000;fill-opacity:1;fill-rule:nonzero;stroke:none"
     id="path12139" />
  <path
     d="M 302.173 350.531 C 311.422 356.043 320.826 361.886 329.478 367.416 C 330.576 366.392 331.522 365.48 332.35 364.632 L 304.237 348.392 C 304.154 348.484 304.177 348.419 303.281 349.343 C 303.281 349.343 302.914 349.778 302.173 350.531"
     style="fill:#000000;fill-opacity:1;fill-rule:nonzero;stroke:none"
     id="path12143" />
  <path
     d="M 337.108 372.341 C 340.587 374.606 343.831 376.766 346.868 378.801 C 347.425 377.242 348.015 375.689 348.716 374.186 L 340.225 369.185 C 339.312 370.168 338.344 371.154 337.108 372.341"
     style="fill:#000000;fill-opacity:1;fill-rule:nonzero;stroke:none"
     id="path12147" />
  <path
     d="M 89.5352 391.49 C 92.6739 383.705 99.4525 370.101 112.539 357.222 C 105.94 353.279 102.513 350.573 102.513 350.573 L 102.522 350.579 C 101.198 349.618 100.898 347.758 101.866 346.431 C 102.823 345.087 104.683 344.783 106.016 345.729 C 106.016 345.729 110.067 348.567 117.548 352.611 C 122.274 348.526 127.71 344.561 133.907 340.973 C 137.192 339.083 140.462 337.553 143.734 336.27 C 111.328 322.686 95.0565 304.353 95.0565 304.353 C 93.9312 303.176 93.9645 301.288 95.1565 300.148 C 96.3365 298.982 98.2178 299.024 99.3512 300.2 C 99.3512 300.2 120.898 320.38 154.398 333.022 C 159.86 331.818 165.164 331.27 170.139 331.275 C 184.456 331.326 196.176 335.255 203.183 338.317 C 208.919 331.981 219.895 323.59 237.639 323.524 C 241.913 323.514 246.493 324.018 251.365 325.122 C 253.019 325.519 254.84 326.103 256.765 326.797 C 258.881 325.222 260.28 324.01 260.928 323.404 L 231.735 306.553 C 222.611 311.826 203.099 319.07 172.183 310.706 C 127.364 298.581 98.3178 264.69 98.3178 264.69 C 97.2138 263.494 97.2925 261.601 98.4938 260.485 C 99.6952 259.358 101.575 259.421 102.679 260.617 C 102.679 260.617 135.082 294.57 174.499 303.73 C 196.978 308.96 214.151 305.984 223.634 301.876 L 218.012 298.614 L 100.954 229.59 C 99.5285 228.769 99.0218 226.981 99.8525 225.545 C 100.681 224.109 102.479 223.65 103.903 224.477 L 222.215 291.341 L 227.844 294.574 C 226.662 284.308 220.651 267.954 204.886 251.093 C 177.246 221.544 131.638 210.46 131.638 210.46 C 130.058 210.104 129.056 208.504 129.434 206.898 C 129.802 205.301 131.392 204.285 132.986 204.638 C 132.986 204.638 176.855 212.852 209.771 245.605 C 232.47 268.194 235.952 288.714 235.952 299.257 L 265.133 316.11 C 265.345 315.232 265.747 313.348 266.047 310.621 C 264.333 309.19 262.824 307.81 261.563 306.482 C 250.371 294.441 246.685 281.761 246.748 271.777 C 246.772 266.297 247.756 261.678 248.896 258.144 C 245.324 255.5 240.695 251.617 236.008 246.404 C 229.92 239.649 223.712 230.413 219.999 218.845 C 192.371 196.297 164.259 187.78 164.259 187.78 C 162.667 187.395 161.698 185.781 162.111 184.173 C 162.504 182.577 164.123 181.603 165.706 181.988 C 165.706 181.988 189.588 186.907 217.474 208.053 C 216.932 204.562 216.588 200.956 216.566 197.129 C 216.555 196.754 216.566 196.652 216.566 196.652 C 216.583 189.684 217.294 183.153 218.426 177.156 C 211.356 172.832 207.016 170.793 207.016 170.793 C 205.531 170.113 204.87 168.351 205.55 166.847 C 206.215 165.341 207.974 164.675 209.476 165.341 L 209.466 165.336 C 209.466 165.336 213.384 166.852 219.895 170.455 C 224.455 152.701 232.726 140.029 237.924 133.36 C 230.266 128.881 214.503 122.693 189.555 126.74 C 152.428 132.741 138.462 172.493 138.462 172.493 C 138.462 172.493 100.165 181.099 80.7859 214.538 C 61.5166 248.04 73.2152 285.504 73.2152 285.504 C 73.2152 285.504 45.7753 317.476 59.1299 352.63 C 68.2873 376.739 81.9006 387.257 89.5352 391.49"
     style="fill:#000000;fill-opacity:1;fill-rule:nonzero;stroke:none"
     id="path12151" />
  <path
     d="M 387.887 449.373 C 388.132 453.032 388.376 456.982 388.607 461.16 C 390.251 460.682 391.9 460.261 393.207 459.965 L 393.124 450.108 C 391.364 449.956 389.618 449.698 387.887 449.373"
     style="fill:#000000;fill-opacity:1;fill-rule:nonzero;stroke:none"
     id="path12155" />
  <path
     d="M 389.06 470.333 C 389.523 480.556 389.884 491.584 390.04 502.33 C 391.255 502.01 391.921 501.881 391.921 501.881 C 393.168 501.568 393.093 501.556 393.224 501.526 L 393.212 469.061 C 392.065 469.357 390.485 469.9 389.06 470.333"
     style="fill:#000000;fill-opacity:1;fill-rule:nonzero;stroke:none"
     id="path12159" />
  <path
     d="M 390.107 511.464 C 390.107 523.756 389.898 534.888 389.123 544.037 C 390.664 543.425 392.022 542.864 393.202 542.481 L 393.218 510.776 C 393.155 510.789 392.044 510.98 390.107 511.464"
     style="fill:#000000;fill-opacity:1;fill-rule:nonzero;stroke:none"
     id="path12163" />
  <path
     d="M 405.432 543.873 C 404.641 534.808 404.463 523.665 404.459 511.461 C 402.672 511.018 401.676 510.789 401.615 510.777 L 401.637 542.481 C 402.737 542.841 404.007 543.313 405.432 543.873"
     style="fill:#000000;fill-opacity:1;fill-rule:nonzero;stroke:none"
     id="path12167" />
  <path
     d="M 404.497 502.248 C 404.646 491.484 405.004 480.415 405.466 470.155 C 404.034 469.72 402.772 469.356 401.62 469.06 L 401.614 501.524 C 401.738 501.555 401.67 501.567 402.916 501.881 C 402.916 501.881 403.472 501.981 404.497 502.248"
     style="fill:#000000;fill-opacity:1;fill-rule:nonzero;stroke:none"
     id="path12171" />
  <path
     d="M 405.915 461.084 C 406.144 456.941 406.388 453.049 406.634 449.4 C 404.998 449.699 403.362 449.963 401.715 450.108 L 401.624 459.965 C 402.934 460.261 404.275 460.609 405.915 461.084"
     style="fill:#000000;fill-opacity:1;fill-rule:nonzero;stroke:none"
     id="path12175" />
  <path
     d="M 546.286 665.915 C 537.978 667.096 522.803 668.019 505.106 663.127 C 504.995 670.812 504.362 675.135 504.362 675.135 L 504.362 675.119 C 504.195 676.75 502.735 677.946 501.099 677.768 C 499.458 677.607 498.262 676.15 498.418 674.519 C 498.418 674.519 498.846 669.594 498.611 661.098 C 492.714 659.05 486.559 656.316 480.355 652.744 C 477.077 650.851 474.112 648.776 471.362 646.59 C 475.804 681.44 468.068 704.702 468.068 704.702 C 467.605 706.266 465.953 707.178 464.372 706.72 C 462.776 706.282 461.87 704.628 462.325 703.064 C 462.325 703.064 469.025 674.307 463.228 638.976 C 459.448 634.852 456.32 630.53 453.84 626.216 C 446.721 613.796 444.268 601.682 443.417 594.081 C 435.058 592.283 422.305 586.975 413.378 571.639 C 411.23 567.943 409.377 563.725 407.897 558.95 C 407.414 557.321 407.006 555.455 406.645 553.442 C 404.23 552.395 402.472 551.783 401.625 551.527 L 401.625 585.233 C 410.762 590.498 426.789 603.779 435.002 634.73 C 446.912 679.61 432.088 721.712 432.088 721.712 C 431.602 723.266 429.922 724.144 428.36 723.66 C 426.778 723.182 425.893 721.518 426.377 719.97 C 426.377 719.97 439.578 674.931 427.808 636.218 C 421.092 614.135 409.933 600.752 401.632 594.594 L 401.614 601.087 L 400.369 736.976 C 400.373 738.623 399.077 739.952 397.42 739.952 C 395.76 739.952 394.458 738.623 394.464 736.976 L 393.212 601.087 L 393.201 594.594 C 384.897 600.752 373.746 614.135 367.025 636.218 C 355.261 674.931 368.462 719.97 368.462 719.97 C 368.938 721.518 368.056 723.182 366.48 723.66 C 364.91 724.144 363.234 723.266 362.745 721.712 C 362.745 721.712 347.922 679.61 359.829 634.73 C 368.049 603.779 384.076 590.498 393.206 585.233 L 393.206 551.527 C 392.345 551.789 390.506 552.385 387.992 553.487 C 387.613 555.69 387.174 557.682 386.657 559.441 C 381.825 575.155 372.684 584.682 364.008 589.623 C 359.252 592.345 354.758 593.803 351.126 594.575 C 350.62 598.995 349.573 604.948 347.405 611.61 C 344.597 620.263 339.703 630.256 331.544 639.255 C 325.823 674.452 332.512 703.059 332.512 703.059 C 332.969 704.628 332.056 706.282 330.46 706.72 C 328.879 707.178 327.225 706.266 326.769 704.702 C 326.769 704.702 319.085 681.558 323.46 646.84 C 320.704 649.054 317.756 651.158 314.451 653.083 C 314.139 653.283 314.037 653.323 314.037 653.323 C 307.995 656.794 301.984 659.443 296.225 661.463 C 296.02 669.744 296.42 674.519 296.42 674.519 C 296.576 676.15 295.379 677.607 293.737 677.768 C 292.096 677.94 290.639 676.75 290.465 675.119 L 290.465 675.135 C 290.465 675.135 289.82 670.979 289.687 663.546 C 272.024 668.464 256.923 667.64 248.547 666.472 C 248.497 675.347 251.024 692.091 266.999 711.674 C 290.76 740.823 332.168 733.043 332.168 733.043 C 332.168 733.043 358.766 761.907 397.42 761.973 C 436.065 761.907 462.658 733.043 462.658 733.043 C 462.658 733.043 504.071 740.823 527.833 711.674 C 544.137 691.691 546.441 674.64 546.286 665.915"
     style="fill:#000000;fill-opacity:1;fill-rule:nonzero;stroke:none"
     id="path12179" />
  <path
     d="M 447.245 378.596 C 450.284 376.553 453.59 374.368 457.096 372.081 C 455.86 370.895 454.662 369.672 453.757 368.691 L 445.26 373.693 C 446.005 375.291 446.656 376.932 447.245 378.596"
     style="fill:#000000;fill-opacity:1;fill-rule:nonzero;stroke:none"
     id="path12183" />
  <path
     d="M 464.809 367.101 C 473.428 361.586 482.804 355.761 492.03 350.254 C 491.146 349.365 490.7 348.85 490.7 348.85 C 489.804 347.928 489.828 347.993 489.737 347.898 L 461.63 364.14 C 462.458 364.989 463.718 366.078 464.809 367.101"
     style="fill:#000000;fill-opacity:1;fill-rule:nonzero;stroke:none"
     id="path12187" />
  <path
     d="M 499.905 345.627 C 510.549 339.48 520.294 334.096 528.6 330.195 C 527.305 329.166 526.137 328.266 525.217 327.436 L 497.75 343.278 C 497.796 343.324 498.52 344.195 499.905 345.627"
     style="fill:#000000;fill-opacity:1;fill-rule:nonzero;stroke:none"
     id="path12191" />
  <path
     d="M 520.31 316.149 C 512.853 321.365 503.293 327.088 492.726 333.2 C 493.231 334.965 493.533 335.948 493.555 336.005 L 521.001 320.136 C 520.766 319.002 520.533 317.664 520.31 316.149"
     style="fill:#000000;fill-opacity:1;fill-rule:nonzero;stroke:none"
     id="path12195" />
  <path
     d="M 484.731 337.77 C 475.332 343.023 465.564 348.249 456.45 352.978 C 456.788 354.435 457.106 355.714 457.428 356.857 L 485.542 340.631 C 485.51 340.51 485.552 340.565 485.203 339.325 C 485.203 339.325 485.008 338.791 484.731 337.77"
     style="fill:#000000;fill-opacity:1;fill-rule:nonzero;stroke:none"
     id="path12199" />
  <path
     d="M 448.369 357.125 C 444.67 359.004 441.174 360.736 437.897 362.349 C 438.965 363.612 440.01 364.901 440.969 366.254 L 449.55 361.402 C 449.149 360.122 448.782 358.789 448.369 357.125"
     style="fill:#000000;fill-opacity:1;fill-rule:nonzero;stroke:none"
     id="path12203" />
  <path
     d="M 555.573 133.145 C 560.749 139.75 569.134 152.43 573.748 170.202 C 580.465 166.458 584.514 164.841 584.514 164.841 L 584.504 164.849 C 586.001 164.182 587.766 164.844 588.433 166.349 C 589.112 167.854 588.445 169.618 586.957 170.302 C 586.957 170.302 582.48 172.39 575.233 176.841 C 576.413 182.974 577.125 189.669 577.132 196.832 C 577.132 200.613 576.814 204.222 576.296 207.693 C 604.26 186.421 628.27 181.493 628.27 181.493 C 629.857 181.112 631.47 182.084 631.866 183.678 C 632.282 185.284 631.309 186.897 629.727 187.284 C 629.727 187.284 601.469 195.862 573.776 218.55 C 572.096 223.881 569.914 228.749 567.416 233.058 C 560.22 245.429 550.954 253.614 544.794 258.153 C 547.421 266.289 549.197 279.987 540.382 295.386 C 538.25 299.093 535.524 302.807 532.129 306.478 C 530.961 307.71 529.546 308.995 527.985 310.314 C 528.289 312.931 528.634 314.758 528.846 315.617 L 558.028 298.766 C 558.021 288.225 561.51 267.701 584.204 245.113 C 617.12 212.354 660.995 204.146 660.995 204.146 C 662.577 203.79 664.179 204.806 664.546 206.403 C 664.921 208.011 663.925 209.607 662.343 209.962 C 662.343 209.962 616.734 221.049 589.09 250.601 C 573.329 267.454 567.321 283.813 566.128 294.081 L 571.762 290.846 L 690.071 223.981 C 691.497 223.154 693.294 223.617 694.129 225.051 C 694.951 226.486 694.451 228.277 693.026 229.098 L 575.968 298.125 L 570.348 301.382 C 579.829 305.49 597.002 308.461 619.484 303.241 C 658.893 294.073 691.302 260.119 691.302 260.119 C 692.398 258.93 694.285 258.865 695.486 259.991 C 696.689 261.105 696.766 262.998 695.665 264.199 C 695.665 264.199 666.617 298.087 621.793 310.215 C 590.88 318.574 571.366 311.335 562.24 306.057 L 533.052 322.91 C 533.71 323.53 535.146 324.817 537.349 326.443 C 539.452 325.669 541.394 325.058 543.18 324.622 C 559.208 320.954 572.024 324.105 580.642 329.147 C 585.373 331.907 588.889 335.07 591.372 337.828 C 595.45 336.056 601.132 333.987 607.988 332.539 C 616.88 330.638 627.982 329.879 639.857 332.45 C 673.195 319.802 694.629 299.711 694.629 299.711 C 695.759 298.53 697.646 298.49 698.825 299.655 C 700.011 300.793 700.049 302.682 698.921 303.857 C 698.921 303.857 682.719 322.085 650.469 335.659 C 653.763 336.934 657.055 338.439 660.378 340.338 C 660.707 340.51 660.791 340.571 660.791 340.571 C 666.817 344.071 672.114 347.952 676.745 351.93 C 684.023 347.968 687.957 345.238 687.957 345.238 C 689.293 344.286 691.151 344.592 692.114 345.936 C 693.083 347.268 692.782 349.123 691.451 350.087 L 691.469 350.076 C 691.469 350.076 688.191 352.722 681.819 356.55 C 694.907 369.387 701.746 382.878 704.925 390.718 C 712.635 386.323 725.871 375.763 734.839 352.135 C 748.207 316.985 720.762 285.009 720.762 285.009 C 720.762 285.009 732.463 247.547 713.193 214.038 C 693.818 180.605 655.521 172.005 655.521 172.005 C 655.521 172.005 641.554 132.253 604.426 126.245 C 578.973 122.118 563.052 128.653 555.573 133.145"
     style="fill:#000000;fill-opacity:1;fill-rule:nonzero;stroke:none"
     id="path12207" />
</svg>
