<?xml version="1.0" encoding="UTF-8" standalone="no"?>
<!-- Created with Inkscape (http://www.inkscape.org/) -->

<svg
   version="1.1"
   id="svg38548"
   width="795.03467"
   height="793.70135"
   viewBox="0 0 795.03467 793.70135"
   sodipodi:docname="Itsutsu Kuwagata Kuzushi.svg"
   inkscape:version="1.2 (dc2aeda, 2022-05-15)"
   xmlns:inkscape="http://www.inkscape.org/namespaces/inkscape"
   xmlns:sodipodi="http://sodipodi.sourceforge.net/DTD/sodipodi-0.dtd"
   xmlns="http://www.w3.org/2000/svg"
   xmlns:svg="http://www.w3.org/2000/svg">
  <defs
     id="defs38552">
    <clipPath
       clipPathUnits="userSpaceOnUse"
       id="clipPath39181">
      <path
         d="M -536.6982,584.5729 H 59.577804 V -10.7031 H -536.6982 Z"
         id="path39183"
         style="stroke-width:0.999998" />
    </clipPath>
    <clipPath
       clipPathUnits="userSpaceOnUse"
       id="clipPath39187">
      <path
         d="M -528.0898,575.3815 H 68.186199 V -19.8945 H -528.0898 Z"
         id="path39189"
         style="stroke-width:0.999998" />
    </clipPath>
    <clipPath
       clipPathUnits="userSpaceOnUse"
       id="clipPath39193">
      <path
         d="M -540.8213,585.8483 H 55.454701 V -9.4277027 H -540.8213 Z"
         id="path39195"
         style="stroke-width:0.999998" />
    </clipPath>
    <clipPath
       clipPathUnits="userSpaceOnUse"
       id="clipPath39199">
      <path
         d="M -542.9326,584.5729 H 53.343399 V -10.7031 H -542.9326 Z"
         id="path39201"
         style="stroke-width:0.999998" />
    </clipPath>
    <clipPath
       clipPathUnits="userSpaceOnUse"
       id="clipPath39205">
      <path
         d="M -567.7754,585.8522 H 28.500601 V -9.4238027 H -567.7754 Z"
         id="path39207"
         style="stroke-width:0.999998" />
    </clipPath>
    <clipPath
       clipPathUnits="userSpaceOnUse"
       id="clipPath39211">
      <path
         d="M -561.4131,585.8522 H 34.862903 V -9.4238027 H -561.4131 Z"
         id="path39213"
         style="stroke-width:0.999998" />
    </clipPath>
    <clipPath
       clipPathUnits="userSpaceOnUse"
       id="clipPath39217">
      <path
         d="M -557.0645,585.8483 H 39.211501 V -9.4277027 H -557.0645 Z"
         id="path39219"
         style="stroke-width:0.999998" />
    </clipPath>
    <clipPath
       clipPathUnits="userSpaceOnUse"
       id="clipPath39223">
      <path
         d="m -245.5415,297.983 h 596.276 v -595.276 h -596.276 z"
         id="path39225"
         style="stroke-width:0.999998" />
    </clipPath>
    <clipPath
       clipPathUnits="userSpaceOnUse"
       id="clipPath39229">
      <path
         d="M -534.707,424.1393 H 61.569002 v -595.276 H -534.707 Z"
         id="path39231"
         style="stroke-width:0.999998" />
    </clipPath>
    <clipPath
       clipPathUnits="userSpaceOnUse"
       id="clipPath39235">
      <path
         d="m -271.2026,240.9264 h 596.276 v -595.276 h -596.276 z"
         id="path39237"
         style="stroke-width:0.999998" />
    </clipPath>
    <clipPath
       clipPathUnits="userSpaceOnUse"
       id="clipPath39241">
      <path
         d="m -333.3965,247.7018 h 596.276 v -595.276 h -596.276 z"
         id="path39243"
         style="stroke-width:0.999998" />
    </clipPath>
    <clipPath
       clipPathUnits="userSpaceOnUse"
       id="clipPath39247">
      <path
         d="m -240.5786,554.9244 h 596.276 V -40.351599 h -596.276 z"
         id="path39249"
         style="stroke-width:0.999998" />
    </clipPath>
    <clipPath
       clipPathUnits="userSpaceOnUse"
       id="clipPath39253">
      <path
         d="M -545.417,584.5729 H 50.859001 V -10.7031 H -545.417 Z"
         id="path39255"
         style="stroke-width:0.999998" />
    </clipPath>
    <clipPath
       clipPathUnits="userSpaceOnUse"
       id="clipPath39259">
      <path
         d="M -584.1943,578.9381 H 12.081705 V -16.337903 H -584.1943 Z"
         id="path39261"
         style="stroke-width:0.999998" />
    </clipPath>
    <clipPath
       clipPathUnits="userSpaceOnUse"
       id="clipPath39265">
      <path
         d="M -538.2217,577.9479 H 58.054299 V -17.328098 H -538.2217 Z"
         id="path39267"
         style="stroke-width:0.999998" />
    </clipPath>
    <clipPath
       clipPathUnits="userSpaceOnUse"
       id="clipPath39271">
      <path
         d="m -344.2813,287.1139 h 596.276 v -595.276 h -596.276 z"
         id="path39273"
         style="stroke-width:0.999998" />
    </clipPath>
    <clipPath
       clipPathUnits="userSpaceOnUse"
       id="clipPath39277">
      <path
         d="M -501.2129,103.9894 H 95.063102 v -595.276 H -501.2129 Z"
         id="path39279"
         style="stroke-width:0.999998" />
    </clipPath>
    <clipPath
       clipPathUnits="userSpaceOnUse"
       id="clipPath39283">
      <path
         d="m -291.8745,340.0201 h 596.276 v -595.276 h -596.276 z"
         id="path39285"
         style="stroke-width:0.999998" />
    </clipPath>
    <clipPath
       clipPathUnits="userSpaceOnUse"
       id="clipPath39289">
      <path
         d="m -186.3833,36.9142 h 596.276 v -595.276 h -596.276 z"
         id="path39291"
         style="stroke-width:0.999998" />
    </clipPath>
    <clipPath
       clipPathUnits="userSpaceOnUse"
       id="clipPath39295">
      <path
         d="m -346.1719,308.944 h 596.276 v -595.276 h -596.276 z"
         id="path39297"
         style="stroke-width:0.999998" />
    </clipPath>
    <clipPath
       clipPathUnits="userSpaceOnUse"
       id="clipPath39301">
      <path
         d="m -25.3032,315.608 h 596.276 v -595.276 h -596.276 z"
         id="path39303"
         style="stroke-width:0.999998" />
    </clipPath>
    <clipPath
       clipPathUnits="userSpaceOnUse"
       id="clipPath39307">
      <path
         d="M -548.9834,585.8522 H 47.292601 V -9.4238027 H -548.9834 Z"
         id="path39309"
         style="stroke-width:0.999998" />
    </clipPath>
    <clipPath
       clipPathUnits="userSpaceOnUse"
       id="clipPath39314">
      <path
         d="M -574.5459,585.8522 H 21.730103 V -9.4238027 H -574.5459 Z"
         id="path39316"
         style="stroke-width:0.999998" />
    </clipPath>
    <clipPath
       clipPathUnits="userSpaceOnUse"
       id="clipPath39320">
      <path
         d="M -576.3691,585.5885 H 19.906905 V -9.6875027 H -576.3691 Z"
         id="path39322"
         style="stroke-width:0.999998" />
    </clipPath>
    <clipPath
       clipPathUnits="userSpaceOnUse"
       id="clipPath39326">
      <path
         d="M -553.8975,585.8483 H 42.378504 V -9.4277027 H -553.8975 Z"
         id="path39328"
         style="stroke-width:0.999998" />
    </clipPath>
    <clipPath
       clipPathUnits="userSpaceOnUse"
       id="clipPath39332">
      <path
         d="M -572.8174,586.1354 H 23.458606 V -9.1406027 H -572.8174 Z"
         id="path39334"
         style="stroke-width:0.999998" />
    </clipPath>
    <clipPath
       clipPathUnits="userSpaceOnUse"
       id="clipPath39338">
      <path
         d="M -531.1924,581.5885 H 65.083599 V -13.6875 H -531.1924 Z"
         id="path39340"
         style="stroke-width:0.999998" />
    </clipPath>
    <clipPath
       clipPathUnits="userSpaceOnUse"
       id="clipPath39344">
      <path
         d="M -564.5732,585.8483 H 31.702801 V -9.4277027 H -564.5732 Z"
         id="path39346"
         style="stroke-width:0.999998" />
    </clipPath>
    <clipPath
       clipPathUnits="userSpaceOnUse"
       id="clipPath39350">
      <path
         d="M -586.5449,579.5026 H 9.7311002 V -15.7734 H -586.5449 Z"
         id="path39352"
         style="stroke-width:0.999998" />
    </clipPath>
    <clipPath
       clipPathUnits="userSpaceOnUse"
       id="clipPath39356">
      <path
         d="M -557.4951,577.8502 H 38.780903 V -17.4258 H -557.4951 Z"
         id="path39358"
         style="stroke-width:0.999998" />
    </clipPath>
    <clipPath
       clipPathUnits="userSpaceOnUse"
       id="clipPath39362">
      <path
         d="M -556.4014,578.0143 H 39.874606 V -17.2617 H -556.4014 Z"
         id="path39364"
         style="stroke-width:0.999998" />
    </clipPath>
    <clipPath
       clipPathUnits="userSpaceOnUse"
       id="clipPath39369">
      <path
         d="M -568.2266,575.819 H 28.049401 V -19.457003 H -568.2266 Z"
         id="path39371"
         style="stroke-width:0.999998" />
    </clipPath>
    <clipPath
       clipPathUnits="userSpaceOnUse"
       id="clipPath39375">
      <path
         d="M -550.2637,577.3248 H 46.012306 V -17.951198 H -550.2637 Z"
         id="path39377"
         style="stroke-width:0.999998" />
    </clipPath>
  </defs>
  <sodipodi:namedview
     id="namedview38550"
     pagecolor="#ffffff"
     bordercolor="#000000"
     borderopacity="0.25"
     inkscape:showpageshadow="2"
     inkscape:pageopacity="0.0"
     inkscape:pagecheckerboard="0"
     inkscape:deskcolor="#d1d1d1"
     showgrid="false"
     inkscape:zoom="0.29734106"
     inkscape:cx="-215.24105"
     inkscape:cy="396.85068"
     inkscape:window-width="1419"
     inkscape:window-height="456"
     inkscape:window-x="0"
     inkscape:window-y="25"
     inkscape:window-maximized="0"
     inkscape:current-layer="svg38548">
    <inkscape:page
       x="0"
       y="0"
       id="page38554"
       width="795.03467"
       height="793.70135" />
  </sodipodi:namedview>
  <path
     d="M 459.042 382.819 C 459.042 417.168 431.198 445.014 396.85 445.014 C 362.502 445.014 334.658 417.168 334.658 382.819 C 334.658 348.472 362.502 320.628 396.85 320.628 C 431.198 320.628 459.042 348.472 459.042 382.819"
     style="fill:#000000;fill-opacity:1;fill-rule:nonzero;stroke:none"
     id="path38668" />
  <path
     d="M 668.284 138.653 C 630.641 96.7264 576.027 70.3438 515.24 70.3438 C 464.375 70.3438 417.834 88.8238 381.934 119.421 C 363.382 108.252 341.653 101.825 318.418 101.825 C 277.762 101.825 241.705 121.5 219.238 151.846 C 257.757 156.789 294.997 174.042 324.582 203.628 C 355.631 234.675 373.079 274.154 376.986 314.699 C 383.29 312.861 389.951 311.858 396.849 311.855 C 401.475 311.858 405.987 312.317 410.366 313.159 C 410.495 265.137 428.875 217.153 465.517 180.512 C 520.336 125.69 600.539 111.748 668.284 138.653"
     style="fill:#000000;fill-opacity:1;fill-rule:nonzero;stroke:none"
     id="path38672" />
  <path
     d="M 389.166 453.36 C 388.099 475.912 384.875 500.453 379.787 518.333 L 396.847 530.729 L 413.906 518.333 C 408.821 500.453 405.597 475.912 404.529 453.36 C 402.002 453.631 399.443 453.779 396.849 453.781 C 394.25 453.779 391.691 453.631 389.166 453.36"
     style="fill:#000000;fill-opacity:1;fill-rule:nonzero;stroke:none"
     id="path38676" />
  <path
     d="M 248.511 49.2189 C 197.003 72.0628 155.035 115.853 136.251 173.663 C 120.535 222.037 123.726 272.013 141.733 315.609 C 125.378 329.802 112.55 348.485 105.37 370.578 C 92.8074 409.247 100.377 449.617 122.294 480.364 C 138.899 445.258 166.817 415.174 204.096 396.177 C 243.219 376.239 286.158 371.846 325.923 380.662 C 326.125 374.097 327.228 367.453 329.36 360.89 C 330.788 356.495 332.617 352.341 334.775 348.438 C 289.143 333.474 249.186 301.166 225.66 254.997 C 190.466 185.917 201.987 105.333 248.511 49.2189"
     style="fill:#000000;fill-opacity:1;fill-rule:nonzero;stroke:none"
     id="path38680" />
  <path
     d="M 461.563 411.925 C 482.68 419.909 505.024 430.561 520.459 440.925 L 537.519 428.532 L 531.003 408.472 C 512.424 407.786 488.087 403.269 466.308 397.316 C 465.79 399.8 465.139 402.282 464.339 404.75 C 463.535 407.22 462.602 409.61 461.563 411.925"
     style="fill:#000000;fill-opacity:1;fill-rule:nonzero;stroke:none"
     id="path38684" />
  <path
     d="M 33.7376 420.811 C 39.5469 476.858 68.2228 530.303 117.399 566.032 C 158.551 595.928 207.067 608.337 254.096 604.683 C 262.54 624.622 276.341 642.597 295.136 656.253 C 328.029 680.146 368.763 685.425 404.775 674.081 C 376.521 647.441 356.534 611.595 349.987 570.269 C 343.118 526.899 352.209 484.704 372.879 449.608 C 366.699 447.39 360.719 444.284 355.139 440.232 C 351.398 437.514 348.014 434.488 344.969 431.232 C 316.637 470.008 273.562 498.024 222.384 506.131 C 145.811 518.259 72.7295 482.396 33.7376 420.811"
     style="fill:#000000;fill-opacity:1;fill-rule:nonzero;stroke:none"
     id="path38688" />
  <path
     d="M 444.529 330.269 C 458.646 312.652 475.68 294.69 490.308 283.214 L 483.792 263.16 L 462.704 263.16 C 456.308 280.618 444.493 302.365 432.1 321.241 C 434.302 322.501 436.461 323.889 438.56 325.409 C 440.662 326.938 442.646 328.566 444.529 330.269"
     style="fill:#000000;fill-opacity:1;fill-rule:nonzero;stroke:none"
     id="path38692" />
  <path
     d="M 320.771 739.899 C 375.87 751.696 435.561 740.938 484.739 705.208 C 525.886 675.311 552.678 633.003 563.738 587.147 C 585.312 585.277 606.67 577.706 625.468 564.05 C 658.358 540.151 675.962 503.04 676.303 465.288 C 642.236 483.928 601.968 491.858 560.64 485.314 C 517.271 478.444 479.949 456.76 452.96 426.254 C 448.939 431.449 444.143 436.176 438.561 440.23 C 434.82 442.946 430.897 445.233 426.859 447.121 C 454.984 486.05 468.317 535.673 460.213 586.853 C 448.083 663.426 391.392 721.847 320.771 739.899"
     style="fill:#000000;fill-opacity:1;fill-rule:nonzero;stroke:none"
     id="path38696" />
  <path
     d="M 361.603 321.235 C 349.211 302.366 337.394 280.615 331 263.156 L 309.911 263.156 L 303.395 283.211 C 318.023 294.688 335.055 312.647 349.175 330.266 C 351.058 328.56 353.042 326.935 355.138 325.41 C 357.242 323.886 359.402 322.498 361.603 321.235"
     style="fill:#000000;fill-opacity:1;fill-rule:nonzero;stroke:none"
     id="path38700" />
  <path
     d="M 712.943 565.519 C 741.188 516.762 749.402 456.667 730.618 398.855 C 714.899 350.481 682.943 311.926 642.749 287.238 C 647.636 266.145 647.034 243.492 639.855 221.396 C 627.293 182.729 597.438 154.519 561.637 142.525 C 568.837 180.687 563.935 221.436 544.938 258.717 C 525.006 297.84 492.85 326.634 455.498 342.877 C 459.193 348.304 462.206 354.329 464.34 360.889 C 465.766 365.288 466.728 369.722 467.277 374.147 C 512.99 359.432 564.305 362.085 610.474 385.606 C 679.552 420.809 717.596 492.774 712.943 565.519"
     style="fill:#000000;fill-opacity:1;fill-rule:nonzero;stroke:none"
     id="path38704" />
  <path
     d="M 327.389 397.311 C 305.612 403.267 281.276 407.783 262.694 408.467 L 256.179 428.527 L 273.24 440.92 C 288.673 430.556 311.017 419.907 332.137 411.92 C 331.096 409.608 330.165 407.215 329.361 404.751 C 328.561 402.28 327.91 399.795 327.389 397.311"
     style="fill:#000000;fill-opacity:1;fill-rule:nonzero;stroke:none"
     id="path38708" />
</svg>
