<?xml version="1.0" encoding="UTF-8" standalone="no"?>
<!-- Created with Inkscape (http://www.inkscape.org/) -->

<svg
   version="1.1"
   id="svg36852"
   width="795.03467"
   height="793.70135"
   viewBox="0 0 795.03467 793.70135"
   sodipodi:docname="Kawari Kuwagatani Futatsutomoe.svg"
   inkscape:version="1.2 (dc2aeda, 2022-05-15)"
   xmlns:inkscape="http://www.inkscape.org/namespaces/inkscape"
   xmlns:sodipodi="http://sodipodi.sourceforge.net/DTD/sodipodi-0.dtd"
   xmlns="http://www.w3.org/2000/svg"
   xmlns:svg="http://www.w3.org/2000/svg">
  <defs
     id="defs36856">
    <clipPath
       clipPathUnits="userSpaceOnUse"
       id="clipPath37345">
      <path
         d="M -568.2266,575.819 H 28.049401 V -19.457003 H -568.2266 Z"
         id="path37347"
         style="stroke-width:0.999998" />
    </clipPath>
    <clipPath
       clipPathUnits="userSpaceOnUse"
       id="clipPath37351">
      <path
         d="M -550.2637,577.3248 H 46.012306 V -17.951198 H -550.2637 Z"
         id="path37353"
         style="stroke-width:0.999998" />
    </clipPath>
    <clipPath
       clipPathUnits="userSpaceOnUse"
       id="clipPath37358">
      <path
         d="M -528.0898,575.3815 H 68.186199 V -19.8945 H -528.0898 Z"
         id="path37360"
         style="stroke-width:0.999998" />
    </clipPath>
    <clipPath
       clipPathUnits="userSpaceOnUse"
       id="clipPath37364">
      <path
         d="M -584.1943,578.9381 H 12.081705 V -16.337903 H -584.1943 Z"
         id="path37366"
         style="stroke-width:0.999998" />
    </clipPath>
    <clipPath
       clipPathUnits="userSpaceOnUse"
       id="clipPath37370">
      <path
         d="M -553.8975,585.8483 H 42.378504 V -9.4277027 H -553.8975 Z"
         id="path37372"
         style="stroke-width:0.999998" />
    </clipPath>
    <clipPath
       clipPathUnits="userSpaceOnUse"
       id="clipPath37377">
      <path
         d="M -538.2217,577.9479 H 58.054299 V -17.328098 H -538.2217 Z"
         id="path37379"
         style="stroke-width:0.999998" />
    </clipPath>
    <clipPath
       clipPathUnits="userSpaceOnUse"
       id="clipPath37383">
      <path
         d="m -296.6797,214.1129 h 596.276 v -595.276 h -596.276 z"
         id="path37385"
         style="stroke-width:0.999998" />
    </clipPath>
    <clipPath
       clipPathUnits="userSpaceOnUse"
       id="clipPath37389">
      <path
         d="M -542.9326,584.5729 H 53.343399 V -10.7031 H -542.9326 Z"
         id="path37391"
         style="stroke-width:0.999998" />
    </clipPath>
    <clipPath
       clipPathUnits="userSpaceOnUse"
       id="clipPath37395">
      <path
         d="M -536.6982,584.5729 H 59.577804 V -10.7031 H -536.6982 Z"
         id="path37397"
         style="stroke-width:0.999998" />
    </clipPath>
    <clipPath
       clipPathUnits="userSpaceOnUse"
       id="clipPath37401">
      <path
         d="M -545.417,584.5729 H 50.859001 V -10.7031 H -545.417 Z"
         id="path37403"
         style="stroke-width:0.999998" />
    </clipPath>
    <clipPath
       clipPathUnits="userSpaceOnUse"
       id="clipPath37407">
      <path
         d="M -556.4014,578.0143 H 39.874606 V -17.2617 H -556.4014 Z"
         id="path37409"
         style="stroke-width:0.999998" />
    </clipPath>
    <clipPath
       clipPathUnits="userSpaceOnUse"
       id="clipPath37413">
      <path
         d="M -586.5449,579.5026 H 9.7311002 V -15.7734 H -586.5449 Z"
         id="path37415"
         style="stroke-width:0.999998" />
    </clipPath>
    <clipPath
       clipPathUnits="userSpaceOnUse"
       id="clipPath37419">
      <path
         d="M -567.7754,585.8522 H 28.500601 V -9.4238027 H -567.7754 Z"
         id="path37421"
         style="stroke-width:0.999998" />
    </clipPath>
    <clipPath
       clipPathUnits="userSpaceOnUse"
       id="clipPath37425">
      <path
         d="M -561.4131,585.8522 H 34.862903 V -9.4238027 H -561.4131 Z"
         id="path37427"
         style="stroke-width:0.999998" />
    </clipPath>
    <clipPath
       clipPathUnits="userSpaceOnUse"
       id="clipPath37431">
      <path
         d="M -557.0645,585.8483 H 39.211501 V -9.4277027 H -557.0645 Z"
         id="path37433"
         style="stroke-width:0.999998" />
    </clipPath>
    <clipPath
       clipPathUnits="userSpaceOnUse"
       id="clipPath37437">
      <path
         d="M -572.8174,586.1354 H 23.458606 V -9.1406027 H -572.8174 Z"
         id="path37439"
         style="stroke-width:0.999998" />
    </clipPath>
    <clipPath
       clipPathUnits="userSpaceOnUse"
       id="clipPath37443">
      <path
         d="M -576.3691,585.5885 H 19.906905 V -9.6875027 H -576.3691 Z"
         id="path37445"
         style="stroke-width:0.999998" />
    </clipPath>
    <clipPath
       clipPathUnits="userSpaceOnUse"
       id="clipPath37449">
      <path
         d="M -574.5459,585.8522 H 21.730103 V -9.4238027 H -574.5459 Z"
         id="path37451"
         style="stroke-width:0.999998" />
    </clipPath>
    <clipPath
       clipPathUnits="userSpaceOnUse"
       id="clipPath37455">
      <path
         d="M -564.5732,585.8483 H 31.702801 V -9.4277027 H -564.5732 Z"
         id="path37457"
         style="stroke-width:0.999998" />
    </clipPath>
    <clipPath
       clipPathUnits="userSpaceOnUse"
       id="clipPath37461">
      <path
         d="M -540.8213,585.8483 H 55.454701 V -9.4277027 H -540.8213 Z"
         id="path37463"
         style="stroke-width:0.999998" />
    </clipPath>
    <clipPath
       clipPathUnits="userSpaceOnUse"
       id="clipPath37467">
      <path
         d="M -557.4951,577.8502 H 38.780903 V -17.4258 H -557.4951 Z"
         id="path37469"
         style="stroke-width:0.999998" />
    </clipPath>
    <clipPath
       clipPathUnits="userSpaceOnUse"
       id="clipPath37473">
      <path
         d="M -531.1924,581.5885 H 65.083599 V -13.6875 H -531.1924 Z"
         id="path37475"
         style="stroke-width:0.999998" />
    </clipPath>
    <clipPath
       clipPathUnits="userSpaceOnUse"
       id="clipPath37479">
      <path
         d="M -548.9834,585.8522 H 47.292601 V -9.4238027 H -548.9834 Z"
         id="path37481"
         style="stroke-width:0.999998" />
    </clipPath>
  </defs>
  <sodipodi:namedview
     id="namedview36854"
     pagecolor="#ffffff"
     bordercolor="#000000"
     borderopacity="0.25"
     inkscape:showpageshadow="2"
     inkscape:pageopacity="0.0"
     inkscape:pagecheckerboard="0"
     inkscape:deskcolor="#d1d1d1"
     showgrid="false"
     inkscape:zoom="0.29734106"
     inkscape:cx="-215.24105"
     inkscape:cy="396.85068"
     inkscape:window-width="1419"
     inkscape:window-height="456"
     inkscape:window-x="0"
     inkscape:window-y="25"
     inkscape:window-maximized="0"
     inkscape:current-layer="svg36852">
    <inkscape:page
       x="0"
       y="0"
       id="page36858"
       width="795.03467"
       height="793.70135" />
  </sodipodi:namedview>
  <path
     d="M 395.573 285.484 C 371.534 285.484 353.034 288.588 327.868 304.339 C 319.556 309.54 314.471 313.549 313.951 313.172 C 313.035 312.505 316.868 306.339 325.201 299.839 C 343.182 285.813 368.117 277.313 396.664 277.313 C 453.253 277.313 498.034 323.916 498.034 380.505 C 498.034 414.356 481.611 444.362 456.305 463.018 C 446.961 440.064 424.442 423.874 398.133 423.874 C 363.45 423.874 335.336 451.989 335.336 486.674 C 335.336 521.354 363.45 549.467 398.133 549.467 C 422.169 549.467 440.669 546.363 465.835 530.614 C 474.149 525.41 479.234 521.402 479.753 521.781 C 480.669 522.447 476.835 528.614 468.502 535.114 C 450.524 549.137 425.586 557.638 397.04 557.638 C 340.45 557.638 295.669 511.035 295.669 454.448 C 295.669 420.596 312.095 390.59 337.398 371.934 C 346.742 394.89 369.264 411.077 395.573 411.077 C 430.256 411.077 458.37 382.961 458.37 348.281 C 458.37 313.599 430.256 285.484 395.573 285.484 M 248.88 417.478 C 248.88 499.199 315.133 565.447 396.852 565.447 C 478.575 565.447 544.823 499.199 544.823 417.478 C 544.823 335.756 478.575 269.507 396.852 269.507 C 315.133 269.507 248.88 335.756 248.88 417.478 M 396.852 630.544 C 366.925 630.544 338.456 624.314 312.656 613.103 L 284.607 675.975 L 509.097 675.975 L 481.049 613.103 C 455.248 624.314 426.778 630.544 396.852 630.544 M 696.575 119.787 C 646.247 111.812 573.419 122.966 532.549 226.577 C 523.201 224.596 513.505 223.551 503.567 223.551 C 466.581 223.551 432.972 238 408.065 261.557 C 489.163 267.307 553.177 334.913 553.177 417.476 C 553.177 503.809 483.185 573.798 396.852 573.798 C 310.521 573.798 240.529 503.809 240.529 417.476 C 240.529 334.913 304.54 267.307 385.638 261.557 C 360.732 238 327.125 223.551 290.139 223.551 C 280.199 223.551 270.505 224.596 261.156 226.577 C 220.287 122.966 147.456 111.812 97.1284 119.787 C 155.415 198.612 190.639 295.517 192.836 400.549 C 192.379 406.133 192.136 411.776 192.136 417.476 C 192.136 530.535 283.792 622.191 396.852 622.191 C 509.911 622.191 601.57 530.535 601.57 417.476 C 601.57 411.776 601.324 406.133 600.867 400.549 C 603.064 295.517 638.291 198.612 696.575 119.787"
     style="fill:#000000;fill-opacity:1;fill-rule:nonzero;stroke:none"
     id="path36972" />
</svg>
