<?xml version="1.0" encoding="UTF-8" standalone="no"?>
<!-- Created with Inkscape (http://www.inkscape.org/) -->

<svg
   version="1.1"
   id="svg35974"
   width="795.03467"
   height="793.70135"
   viewBox="0 0 795.03467 793.70135"
   sodipodi:docname="Mitsugumi Kuwagata.svg"
   inkscape:version="1.2 (dc2aeda, 2022-05-15)"
   xmlns:inkscape="http://www.inkscape.org/namespaces/inkscape"
   xmlns:sodipodi="http://sodipodi.sourceforge.net/DTD/sodipodi-0.dtd"
   xmlns="http://www.w3.org/2000/svg"
   xmlns:svg="http://www.w3.org/2000/svg">
  <defs
     id="defs35978">
    <clipPath
       clipPathUnits="userSpaceOnUse"
       id="clipPath36495">
      <path
         d="M -528.0898,575.3815 H 68.186199 V -19.8945 H -528.0898 Z"
         id="path36497"
         style="stroke-width:0.999998" />
    </clipPath>
    <clipPath
       clipPathUnits="userSpaceOnUse"
       id="clipPath36501">
      <path
         d="M -531.1924,581.5885 H 65.083599 V -13.6875 H -531.1924 Z"
         id="path36503"
         style="stroke-width:0.999998" />
    </clipPath>
    <clipPath
       clipPathUnits="userSpaceOnUse"
       id="clipPath36507">
      <path
         d="M -536.6982,584.5729 H 59.577804 V -10.7031 H -536.6982 Z"
         id="path36509"
         style="stroke-width:0.999998" />
    </clipPath>
    <clipPath
       clipPathUnits="userSpaceOnUse"
       id="clipPath36513">
      <path
         d="M -540.8213,585.8483 H 55.454701 V -9.4277027 H -540.8213 Z"
         id="path36515"
         style="stroke-width:0.999998" />
    </clipPath>
    <clipPath
       clipPathUnits="userSpaceOnUse"
       id="clipPath36519">
      <path
         d="M -542.9326,584.5729 H 53.343399 V -10.7031 H -542.9326 Z"
         id="path36521"
         style="stroke-width:0.999998" />
    </clipPath>
    <clipPath
       clipPathUnits="userSpaceOnUse"
       id="clipPath36525">
      <path
         d="M -576.3691,585.5885 H 19.906905 V -9.6875027 H -576.3691 Z"
         id="path36527"
         style="stroke-width:0.999998" />
    </clipPath>
    <clipPath
       clipPathUnits="userSpaceOnUse"
       id="clipPath36531">
      <path
         d="M -557.4951,577.8502 H 38.780903 V -17.4258 H -557.4951 Z"
         id="path36533"
         style="stroke-width:0.999998" />
    </clipPath>
    <clipPath
       clipPathUnits="userSpaceOnUse"
       id="clipPath36537">
      <path
         d="M -568.2266,575.819 H 28.049401 V -19.457003 H -568.2266 Z"
         id="path36539"
         style="stroke-width:0.999998" />
    </clipPath>
    <clipPath
       clipPathUnits="userSpaceOnUse"
       id="clipPath36543">
      <path
         d="M -545.417,584.5729 H 50.859001 V -10.7031 H -545.417 Z"
         id="path36545"
         style="stroke-width:0.999998" />
    </clipPath>
    <clipPath
       clipPathUnits="userSpaceOnUse"
       id="clipPath36549">
      <path
         d="M -564.5732,585.8483 H 31.702801 V -9.4277027 H -564.5732 Z"
         id="path36551"
         style="stroke-width:0.999998" />
    </clipPath>
    <clipPath
       clipPathUnits="userSpaceOnUse"
       id="clipPath36555">
      <path
         d="M -567.7754,585.8522 H 28.500601 V -9.4238027 H -567.7754 Z"
         id="path36557"
         style="stroke-width:0.999998" />
    </clipPath>
    <clipPath
       clipPathUnits="userSpaceOnUse"
       id="clipPath36562">
      <path
         d="M -572.8174,586.1354 H 23.458606 V -9.1406027 H -572.8174 Z"
         id="path36564"
         style="stroke-width:0.999998" />
    </clipPath>
    <clipPath
       clipPathUnits="userSpaceOnUse"
       id="clipPath36568">
      <path
         d="M -574.5459,585.8522 H 21.730103 V -9.4238027 H -574.5459 Z"
         id="path36570"
         style="stroke-width:0.999998" />
    </clipPath>
    <clipPath
       clipPathUnits="userSpaceOnUse"
       id="clipPath36574">
      <path
         d="M -548.9834,585.8522 H 47.292601 V -9.4238027 H -548.9834 Z"
         id="path36576"
         style="stroke-width:0.999998" />
    </clipPath>
    <clipPath
       clipPathUnits="userSpaceOnUse"
       id="clipPath36580">
      <path
         d="M -553.8975,585.8483 H 42.378504 V -9.4277027 H -553.8975 Z"
         id="path36582"
         style="stroke-width:0.999998" />
    </clipPath>
    <clipPath
       clipPathUnits="userSpaceOnUse"
       id="clipPath36586">
      <path
         d="M -557.0645,585.8483 H 39.211501 V -9.4277027 H -557.0645 Z"
         id="path36588"
         style="stroke-width:0.999998" />
    </clipPath>
    <clipPath
       clipPathUnits="userSpaceOnUse"
       id="clipPath36592">
      <path
         d="M -561.4131,585.8522 H 34.862903 V -9.4238027 H -561.4131 Z"
         id="path36594"
         style="stroke-width:0.999998" />
    </clipPath>
    <clipPath
       clipPathUnits="userSpaceOnUse"
       id="clipPath36598">
      <path
         d="M -550.2637,577.3248 H 46.012306 V -17.951198 H -550.2637 Z"
         id="path36600"
         style="stroke-width:0.999998" />
    </clipPath>
    <clipPath
       clipPathUnits="userSpaceOnUse"
       id="clipPath36605">
      <path
         d="M -556.4014,578.0143 H 39.874606 V -17.2617 H -556.4014 Z"
         id="path36607"
         style="stroke-width:0.999998" />
    </clipPath>
    <clipPath
       clipPathUnits="userSpaceOnUse"
       id="clipPath36611">
      <path
         d="M -586.5449,579.5026 H 9.7311002 V -15.7734 H -586.5449 Z"
         id="path36613"
         style="stroke-width:0.999998" />
    </clipPath>
    <clipPath
       clipPathUnits="userSpaceOnUse"
       id="clipPath36617">
      <path
         d="M -584.1943,578.9381 H 12.081705 V -16.337903 H -584.1943 Z"
         id="path36619"
         style="stroke-width:0.999998" />
    </clipPath>
    <clipPath
       clipPathUnits="userSpaceOnUse"
       id="clipPath36623">
      <path
         d="M -538.2217,577.9479 H 58.054299 V -17.328098 H -538.2217 Z"
         id="path36625"
         style="stroke-width:0.999998" />
    </clipPath>
    <clipPath
       clipPathUnits="userSpaceOnUse"
       id="clipPath36629">
      <path
         d="m -351.9316,263.6945 h 596.276 v -595.276 h -596.276 z"
         id="path36631"
         style="stroke-width:0.999998" />
    </clipPath>
    <clipPath
       clipPathUnits="userSpaceOnUse"
       id="clipPath36635">
      <path
         d="m -389.6895,175.4406 h 596.276 v -595.276 h -596.276 z"
         id="path36637"
         style="stroke-width:0.999998" />
    </clipPath>
    <clipPath
       clipPathUnits="userSpaceOnUse"
       id="clipPath36641">
      <path
         d="m -331.9648,220.9093 h 596.276 v -595.276 h -596.276 z"
         id="path36643"
         style="stroke-width:0.999998" />
    </clipPath>
  </defs>
  <sodipodi:namedview
     id="namedview35976"
     pagecolor="#ffffff"
     bordercolor="#000000"
     borderopacity="0.25"
     inkscape:showpageshadow="2"
     inkscape:pageopacity="0.0"
     inkscape:pagecheckerboard="0"
     inkscape:deskcolor="#d1d1d1"
     showgrid="false"
     inkscape:zoom="0.29734106"
     inkscape:cx="-215.24105"
     inkscape:cy="396.85068"
     inkscape:window-width="1419"
     inkscape:window-height="456"
     inkscape:window-x="0"
     inkscape:window-y="25"
     inkscape:window-maximized="0"
     inkscape:current-layer="svg35974">
    <inkscape:page
       x="0"
       y="0"
       id="page35980"
       width="795.03467"
       height="793.70135" />
  </sodipodi:namedview>
  <path
     d="M 469.242 351.593 C 465.854 342.46 461.661 333.5 456.631 324.778 C 454.461 321.03 452.182 317.396 449.797 313.866 C 410.71 256.273 342.133 228.689 276.282 239.719 C 275.5 245.345 275.056 251.047 275.073 256.812 C 275.098 267.801 276.577 278.451 279.349 288.56 C 327.686 278.471 378.832 297.549 408.346 339.236 C 410.563 342.374 412.661 345.629 414.625 349.017 C 419.127 356.85 422.703 364.968 425.381 373.229 C 441.578 369.044 456.451 361.588 469.242 351.593 M 480.005 416.712 C 464.398 424.995 447.417 431.033 429.499 434.459 C 423.154 469.774 401.885 502.149 368.398 521.563 C 307.922 556.334 228.407 536.022 196.428 520.793 C 196.428 520.793 202.821 542.473 219.121 562.38 C 235.427 582.284 249.863 593.644 249.863 593.644 C 249.863 593.644 247.671 608.032 256.48 644.514 C 265.293 680.99 279.224 706.641 279.224 706.641 C 279.224 706.641 288.586 687.232 307.52 654.858 C 326.468 622.49 349.665 588.383 392.649 563.563 C 447.275 532.019 478.431 475.451 480.005 416.712 M 224.143 315.262 C 218.481 298.666 215.144 280.995 214.563 262.621 C 213.58 263.167 212.621 263.697 211.637 264.221 C 170.892 285.885 131.91 288.65 96.2069 288.856 C 58.7044 289.069 37.2111 287.47 37.2111 287.47 C 37.2111 287.47 52.4644 312.364 79.651 338.233 C 106.839 364.098 120.399 369.4 120.399 369.4 C 120.399 369.4 123.016 387.574 132.098 411.648 C 141.18 435.717 156.765 452.099 156.765 452.099 C 159.273 420.525 177.215 353.992 224.143 315.262"
     style="fill:#000000;fill-opacity:1;fill-rule:nonzero;stroke:none"
     id="path36094" />
  <path
     d="M 519.586 233.921 C 536.846 236.937 553.909 242.549 570.238 250.842 C 571.606 204.176 588.836 168.728 606.651 137.461 C 625.222 104.872 637.344 87.0627 637.344 87.0627 C 637.344 87.0627 608.167 87.82 572.17 98.4307 C 536.171 109.041 524.802 118.135 524.802 118.135 C 524.802 118.135 507.75 111.315 482.362 107.145 C 456.974 102.977 434.996 108.283 434.996 108.283 C 460.918 126.124 509.065 174.453 519.586 233.921 M 369.608 429.758 C 377.989 430.998 386.598 431.629 395.337 431.629 C 399.662 431.629 403.948 431.473 408.197 431.162 C 478.493 426.047 537.261 379.327 560.034 315.574 C 556.383 312.89 552.59 310.325 548.605 308.041 C 538.042 301.965 526.963 297.689 515.695 295.072 C 500.567 342.543 458.218 377.835 406.953 382.585 C 403.128 382.939 399.252 383.121 395.337 383.129 C 387.494 383.118 379.801 382.385 372.36 381.009 C 369.617 391.241 368.257 401.659 368.257 412.014 C 368.257 417.97 368.73 423.899 369.608 429.758 M 316.697 355.614 C 311 372.809 307.972 390.457 307.58 408.037 C 255.523 377.765 220.527 321.399 220.52 256.83 C 220.52 207.189 202.587 170.048 184.018 137.461 C 165.451 104.872 153.324 87.0627 153.324 87.0627 C 153.324 87.0627 182.503 87.82 218.501 98.4307 C 254.5 109.041 265.867 118.135 265.867 118.135 C 265.867 118.135 282.919 111.315 308.309 107.145 C 333.697 102.977 355.674 108.283 355.674 108.283 C 326.497 128.365 269.143 187.07 269.017 256.83 C 269.089 296.861 287.649 332.486 316.697 355.614"
     style="fill:#000000;fill-opacity:1;fill-rule:nonzero;stroke:none"
     id="path36098" />
  <path
     d="M 442.62 294.546 C 430.912 280.841 417.428 269.213 402.705 259.806 C 454.748 230.567 520.409 228.773 575.874 260.786 C 618.86 285.601 659.986 288.642 697.502 288.855 C 735.002 289.07 756.491 287.475 756.491 287.475 C 756.491 287.475 741.245 312.366 714.054 338.234 C 686.867 364.098 673.309 369.4 673.309 369.4 C 673.309 369.4 670.693 387.574 661.609 411.647 C 652.521 435.716 636.934 452.1 636.934 452.1 C 634.138 416.787 611.969 337.775 551.624 302.786 C 517.06 282.91 477.087 281.129 442.62 294.546 M 392.769 494.6 C 361.164 457.842 352.746 405.008 373.74 359.355 C 375.35 355.863 377.127 352.418 379.08 349.025 C 383.057 342.161 387.713 335.707 392.699 329.895 C 381.233 317.715 367.63 308.301 352.758 301.906 C 347.05 308.965 341.76 316.669 337.078 324.778 C 334.916 328.525 332.91 332.314 331.05 336.15 C 300.871 398.467 310.966 471.142 352.91 522.604 C 357.148 520.768 361.294 518.644 365.355 516.303 C 375.764 510.271 384.929 502.925 392.769 494.6 M 442.528 529.883 C 500.1 552.683 568.248 534.62 597.273 520.792 C 597.273 520.792 590.878 542.472 574.581 562.38 C 558.273 582.284 543.844 593.644 543.844 593.644 C 543.844 593.644 546.034 608.032 537.224 644.513 C 528.413 680.989 514.478 706.641 514.478 706.641 C 514.478 706.641 505.123 687.24 486.183 654.862 C 467.472 622.883 444.633 589.248 402.644 564.524 C 417.92 554.767 431.256 543.037 442.528 529.883"
     style="fill:#000000;fill-opacity:1;fill-rule:nonzero;stroke:none"
     id="path36102" />
</svg>
