<?xml version="1.0" encoding="UTF-8" standalone="no"?>
<!-- Created with Inkscape (http://www.inkscape.org/) -->

<svg
   version="1.1"
   id="svg34128"
   width="795.03467"
   height="793.70135"
   viewBox="0 0 795.03467 793.70135"
   sodipodi:docname="Mitsu Chigai Kuwagata.svg"
   inkscape:version="1.2 (dc2aeda, 2022-05-15)"
   xmlns:inkscape="http://www.inkscape.org/namespaces/inkscape"
   xmlns:sodipodi="http://sodipodi.sourceforge.net/DTD/sodipodi-0.dtd"
   xmlns="http://www.w3.org/2000/svg"
   xmlns:svg="http://www.w3.org/2000/svg">
  <defs
     id="defs34132">
    <clipPath
       clipPathUnits="userSpaceOnUse"
       id="clipPath34719">
      <path
         d="M -540.8213,585.8483 H 55.454701 V -9.4277027 H -540.8213 Z"
         id="path34721"
         style="stroke-width:0.999998" />
    </clipPath>
    <clipPath
       clipPathUnits="userSpaceOnUse"
       id="clipPath34725">
      <path
         d="M -542.9326,584.5729 H 53.343399 V -10.7031 H -542.9326 Z"
         id="path34727"
         style="stroke-width:0.999998" />
    </clipPath>
    <clipPath
       clipPathUnits="userSpaceOnUse"
       id="clipPath34731">
      <path
         d="M -567.7754,585.8522 H 28.500601 V -9.4238027 H -567.7754 Z"
         id="path34733"
         style="stroke-width:0.999998" />
    </clipPath>
    <clipPath
       clipPathUnits="userSpaceOnUse"
       id="clipPath34737">
      <path
         d="M -538.2217,577.9479 H 58.054299 V -17.328098 H -538.2217 Z"
         id="path34739"
         style="stroke-width:0.999998" />
    </clipPath>
    <clipPath
       clipPathUnits="userSpaceOnUse"
       id="clipPath34743">
      <path
         d="M -564.5732,585.8483 H 31.702801 V -9.4277027 H -564.5732 Z"
         id="path34745"
         style="stroke-width:0.999998" />
    </clipPath>
    <clipPath
       clipPathUnits="userSpaceOnUse"
       id="clipPath34749">
      <path
         d="M -561.4131,585.8522 H 34.862903 V -9.4238027 H -561.4131 Z"
         id="path34751"
         style="stroke-width:0.999998" />
    </clipPath>
    <clipPath
       clipPathUnits="userSpaceOnUse"
       id="clipPath34756">
      <path
         d="M -536.6982,584.5729 H 59.577804 V -10.7031 H -536.6982 Z"
         id="path34758"
         style="stroke-width:0.999998" />
    </clipPath>
    <clipPath
       clipPathUnits="userSpaceOnUse"
       id="clipPath34762">
      <path
         d="M -545.417,584.5729 H 50.859001 V -10.7031 H -545.417 Z"
         id="path34764"
         style="stroke-width:0.999998" />
    </clipPath>
    <clipPath
       clipPathUnits="userSpaceOnUse"
       id="clipPath34768">
      <path
         d="M -557.4951,577.8502 H 38.780903 V -17.4258 H -557.4951 Z"
         id="path34770"
         style="stroke-width:0.999998" />
    </clipPath>
    <clipPath
       clipPathUnits="userSpaceOnUse"
       id="clipPath34774">
      <path
         d="M -556.4014,578.0143 H 39.874606 V -17.2617 H -556.4014 Z"
         id="path34776"
         style="stroke-width:0.999998" />
    </clipPath>
    <clipPath
       clipPathUnits="userSpaceOnUse"
       id="clipPath34780">
      <path
         d="M -548.9834,585.8522 H 47.292601 V -9.4238027 H -548.9834 Z"
         id="path34782"
         style="stroke-width:0.999998" />
    </clipPath>
    <clipPath
       clipPathUnits="userSpaceOnUse"
       id="clipPath34786">
      <path
         d="M -528.0898,575.3815 H 68.186199 V -19.8945 H -528.0898 Z"
         id="path34788"
         style="stroke-width:0.999998" />
    </clipPath>
    <clipPath
       clipPathUnits="userSpaceOnUse"
       id="clipPath34792">
      <path
         d="M -572.8174,586.1354 H 23.458606 V -9.1406027 H -572.8174 Z"
         id="path34794"
         style="stroke-width:0.999998" />
    </clipPath>
    <clipPath
       clipPathUnits="userSpaceOnUse"
       id="clipPath34798">
      <path
         d="M -531.1924,581.5885 H 65.083599 V -13.6875 H -531.1924 Z"
         id="path34800"
         style="stroke-width:0.999998" />
    </clipPath>
    <clipPath
       clipPathUnits="userSpaceOnUse"
       id="clipPath34804">
      <path
         d="M -574.5459,585.8522 H 21.730103 V -9.4238027 H -574.5459 Z"
         id="path34806"
         style="stroke-width:0.999998" />
    </clipPath>
    <clipPath
       clipPathUnits="userSpaceOnUse"
       id="clipPath34810">
      <path
         d="M -553.8975,585.8483 H 42.378504 V -9.4277027 H -553.8975 Z"
         id="path34812"
         style="stroke-width:0.999998" />
    </clipPath>
    <clipPath
       clipPathUnits="userSpaceOnUse"
       id="clipPath34816">
      <path
         d="M -557.0645,585.8483 H 39.211501 V -9.4277027 H -557.0645 Z"
         id="path34818"
         style="stroke-width:0.999998" />
    </clipPath>
    <clipPath
       clipPathUnits="userSpaceOnUse"
       id="clipPath34822">
      <path
         d="M -550.2637,577.3248 H 46.012306 V -17.951198 H -550.2637 Z"
         id="path34824"
         style="stroke-width:0.999998" />
    </clipPath>
    <clipPath
       clipPathUnits="userSpaceOnUse"
       id="clipPath34828">
      <path
         d="m -140.1807,192.2989 h 596.276 v -595.276 h -596.276 z"
         id="path34830"
         style="stroke-width:0.999998" />
    </clipPath>
    <clipPath
       clipPathUnits="userSpaceOnUse"
       id="clipPath34834">
      <path
         d="m -319.8955,288.6354 h 596.276 v -595.276 h -596.276 z"
         id="path34836"
         style="stroke-width:0.999998" />
    </clipPath>
    <clipPath
       clipPathUnits="userSpaceOnUse"
       id="clipPath34840">
      <path
         d="m -297.6377,251.5572 h 596.276 v -595.276 h -596.276 z"
         id="path34842"
         style="stroke-width:0.999998" />
    </clipPath>
    <clipPath
       clipPathUnits="userSpaceOnUse"
       id="clipPath34846">
      <path
         d="m -311.9814,309.7643 h 596.276 v -595.276 h -596.276 z"
         id="path34848"
         style="stroke-width:0.999998" />
    </clipPath>
    <clipPath
       clipPathUnits="userSpaceOnUse"
       id="clipPath34852">
      <path
         d="M -586.5449,579.5026 H 9.7311002 V -15.7734 H -586.5449 Z"
         id="path34854"
         style="stroke-width:0.999998" />
    </clipPath>
    <clipPath
       clipPathUnits="userSpaceOnUse"
       id="clipPath34858">
      <path
         d="m -332.9629,312.7408 h 596.276 v -595.276 h -596.276 z"
         id="path34860"
         style="stroke-width:0.999998" />
    </clipPath>
    <clipPath
       clipPathUnits="userSpaceOnUse"
       id="clipPath34864">
      <path
         d="m -262.3125,312.7408 h 596.276 v -595.276 h -596.276 z"
         id="path34866"
         style="stroke-width:0.999998" />
    </clipPath>
    <clipPath
       clipPathUnits="userSpaceOnUse"
       id="clipPath34870">
      <path
         d="M -568.2266,575.819 H 28.049401 V -19.457003 H -568.2266 Z"
         id="path34872"
         style="stroke-width:0.999998" />
    </clipPath>
    <clipPath
       clipPathUnits="userSpaceOnUse"
       id="clipPath34876">
      <path
         d="M -576.3691,585.5885 H 19.906905 V -9.6875027 H -576.3691 Z"
         id="path34878"
         style="stroke-width:0.999998" />
    </clipPath>
    <clipPath
       clipPathUnits="userSpaceOnUse"
       id="clipPath34882">
      <path
         d="m -275.3818,296.0572 h 596.27601 v -595.276 H -275.3818 Z"
         id="path34884"
         style="stroke-width:0.999998" />
    </clipPath>
    <clipPath
       clipPathUnits="userSpaceOnUse"
       id="clipPath34888">
      <path
         d="m -289.7236,257.6647 h 596.27601 v -595.276 H -289.7236 Z"
         id="path34890"
         style="stroke-width:0.999998" />
    </clipPath>
    <clipPath
       clipPathUnits="userSpaceOnUse"
       id="clipPath34894">
      <path
         d="M -584.1943,578.9381 H 12.081705 V -16.337903 H -584.1943 Z"
         id="path34896"
         style="stroke-width:0.999998" />
    </clipPath>
  </defs>
  <sodipodi:namedview
     id="namedview34130"
     pagecolor="#ffffff"
     bordercolor="#000000"
     borderopacity="0.25"
     inkscape:showpageshadow="2"
     inkscape:pageopacity="0.0"
     inkscape:pagecheckerboard="0"
     inkscape:deskcolor="#d1d1d1"
     showgrid="false"
     inkscape:zoom="0.29734106"
     inkscape:cx="-215.24105"
     inkscape:cy="396.85068"
     inkscape:window-width="1419"
     inkscape:window-height="456"
     inkscape:window-x="0"
     inkscape:window-y="25"
     inkscape:window-maximized="0"
     inkscape:current-layer="svg34128">
    <inkscape:page
       x="0"
       y="0"
       id="page34134"
       width="795.03467"
       height="793.70135" />
  </sodipodi:namedview>
  <path
     d="M 396.85 335.41 C 456.746 335.41 506.683 293.845 520.279 238.096 C 531.362 192.654 545.183 127.097 604.661 89.6093 C 590.247 82.2173 573.923 78.0213 556.607 78.0213 C 542.146 78.0213 528.368 80.936 515.818 86.2013 C 501.04 78.324 484.175 73.8453 466.26 73.8453 C 453.106 73.8453 440.523 76.272 428.909 80.6693 C 462.231 103.909 492.654 143.892 492.654 208.514 C 492.654 261.422 449.761 304.315 396.85 304.315 C 343.941 304.315 301.046 261.422 301.046 208.514 C 301.046 143.892 331.469 103.909 364.79 80.6693 C 353.177 76.272 340.595 73.8453 327.438 73.8453 C 309.525 73.8453 292.66 78.324 277.882 86.2013 C 265.332 80.936 251.553 78.0213 237.093 78.0213 C 219.777 78.0213 203.453 82.2173 189.039 89.6093 C 248.517 127.097 262.34 192.654 273.421 238.096 C 287.017 293.845 336.954 335.41 396.85 335.41"
     style="fill:#000000;fill-opacity:1;fill-rule:nonzero;stroke:none"
     id="path34248" />
  <path
     d="M 386.298 343.553 L 386.298 638.31 L 407.401 638.31 L 407.401 343.553 C 403.918 343.824 400.403 343.98 396.85 343.98 C 393.297 343.98 389.781 343.824 386.298 343.553"
     style="fill:#000000;fill-opacity:1;fill-rule:nonzero;stroke:none"
     id="path34252" />
  <path
     d="M 349.75 416.988 C 319.801 365.119 258.837 342.652 203.76 358.751 C 158.866 371.876 95.18 392.683 32.9761 359.917 C 33.7815 376.097 38.3094 392.332 46.9681 407.329 C 54.1974 419.852 63.612 430.327 74.4467 438.564 C 75.0134 455.3 79.5653 472.144 88.524 487.66 C 95.1013 499.05 103.495 508.736 113.111 516.594 C 116.575 476.116 135.991 429.78 191.953 397.467 C 237.776 371.015 296.367 386.715 322.822 432.535 C 349.278 478.355 333.579 536.949 287.757 563.405 C 231.793 595.714 181.956 589.36 145.168 572.121 C 147.168 584.378 151.356 596.49 157.934 607.881 C 166.89 623.399 179.204 635.763 193.414 644.623 C 195.129 658.123 199.494 671.514 206.725 684.037 C 215.382 699.034 227.178 711.073 240.788 719.859 C 243.513 649.605 293.378 604.854 327.189 572.537 C 368.67 532.889 379.698 468.86 349.75 416.988"
     style="fill:#000000;fill-opacity:1;fill-rule:nonzero;stroke:none"
     id="path34256" />
  <path
     d="M 443.951 416.988 C 414.003 468.86 425.031 532.889 466.512 572.537 C 500.323 604.854 550.188 649.605 552.913 719.859 C 566.523 711.073 578.319 699.034 586.977 684.037 C 594.207 671.514 598.572 658.123 600.287 644.623 C 614.497 635.763 626.811 623.399 635.767 607.881 C 642.345 596.49 646.533 584.378 648.533 572.121 C 611.745 589.36 561.908 595.714 505.944 563.405 C 460.123 536.949 444.423 478.355 470.879 432.535 C 497.334 386.715 555.925 371.015 601.748 397.467 C 657.71 429.78 677.126 476.116 680.59 516.594 C 690.205 508.736 698.6 499.05 705.177 487.66 C 714.136 472.144 718.688 455.3 719.254 438.564 C 730.089 430.327 739.502 419.852 746.734 407.329 C 755.392 392.332 759.92 376.097 760.725 359.917 C 698.521 392.683 634.835 371.873 589.941 358.753 C 534.863 342.652 473.899 365.119 443.951 416.988"
     style="fill:#000000;fill-opacity:1;fill-rule:nonzero;stroke:none"
     id="path34260" />
  <path
     d="M 186.908 256.399 L 176.357 274.675 L 377.722 390.936 L 377.722 366.565 Z"
     style="fill:#000000;fill-opacity:1;fill-rule:nonzero;stroke:none"
     id="path34264" />
  <path
     d="M 415.975 413.019 L 431.622 422.052 C 433.13 418.902 434.748 415.779 436.526 412.702 C 438.303 409.623 440.198 406.658 442.172 403.776 L 415.975 388.652 Z"
     style="fill:#000000;fill-opacity:1;fill-rule:nonzero;stroke:none"
     id="path34268" />
  <path
     d="M 426.527 384.847 L 617.344 274.678 L 606.793 256.402 L 415.975 366.571 L 415.975 378.754 Z"
     style="fill:#000000;fill-opacity:1;fill-rule:nonzero;stroke:none"
     id="path34272" />
  <path
     d="M 367.176 394.743 L 351.529 403.779 C 353.504 406.66 355.397 409.623 357.173 412.702 C 358.952 415.779 360.572 418.902 362.08 422.055 L 377.723 413.024 L 377.723 400.834 Z"
     style="fill:#000000;fill-opacity:1;fill-rule:nonzero;stroke:none"
     id="path34276" />
</svg>
