<?xml version="1.0" encoding="UTF-8" standalone="no"?>
<!-- Created with Inkscape (http://www.inkscape.org/) -->

<svg
   version="1.1"
   id="svg29075"
   width="795.03467"
   height="793.70135"
   viewBox="0 0 795.03467 793.70135"
   sodipodi:docname="Maruni Sumidate Musubi Idutsu.svg"
   inkscape:version="1.2 (dc2aeda, 2022-05-15)"
   xmlns:inkscape="http://www.inkscape.org/namespaces/inkscape"
   xmlns:sodipodi="http://sodipodi.sourceforge.net/DTD/sodipodi-0.dtd"
   xmlns="http://www.w3.org/2000/svg"
   xmlns:svg="http://www.w3.org/2000/svg">
  <defs
     id="defs29079">
    <clipPath
       clipPathUnits="userSpaceOnUse"
       id="clipPath29514">
      <path
         d="M -561.4131,585.8522 H 34.862902 V -9.4238 H -561.4131 Z"
         id="path29516"
         style="stroke-width:0.999998" />
    </clipPath>
    <clipPath
       clipPathUnits="userSpaceOnUse"
       id="clipPath29520">
      <path
         d="M -564.5732,585.8483 H 31.702802 V -9.4277 H -564.5732 Z"
         id="path29522"
         style="stroke-width:0.999998" />
    </clipPath>
    <clipPath
       clipPathUnits="userSpaceOnUse"
       id="clipPath29526">
      <path
         d="M -538.2217,577.9479 H 58.054302 V -17.3281 H -538.2217 Z"
         id="path29528"
         style="stroke-width:0.999998" />
    </clipPath>
    <clipPath
       clipPathUnits="userSpaceOnUse"
       id="clipPath29532">
      <path
         d="m -297.6367,329.0963 h 596.276 v -595.276 h -596.276 z"
         id="path29534"
         style="stroke-width:0.999998" />
    </clipPath>
    <clipPath
       clipPathUnits="userSpaceOnUse"
       id="clipPath29538">
      <path
         d="M -542.9326,584.5729 H 53.343402 V -10.7031 H -542.9326 Z"
         id="path29540"
         style="stroke-width:0.999998" />
    </clipPath>
    <clipPath
       clipPathUnits="userSpaceOnUse"
       id="clipPath29545">
      <path
         d="M -572.8174,586.1354 H 23.458602 V -9.1406 H -572.8174 Z"
         id="path29547"
         style="stroke-width:0.999998" />
    </clipPath>
    <clipPath
       clipPathUnits="userSpaceOnUse"
       id="clipPath29551">
      <path
         d="M -574.5459,585.8522 H 21.730102 V -9.4238 H -574.5459 Z"
         id="path29553"
         style="stroke-width:0.999998" />
    </clipPath>
    <clipPath
       clipPathUnits="userSpaceOnUse"
       id="clipPath29557">
      <path
         d="M -576.3691,585.5885 H 19.906902 V -9.6875 H -576.3691 Z"
         id="path29559"
         style="stroke-width:0.999998" />
    </clipPath>
    <clipPath
       clipPathUnits="userSpaceOnUse"
       id="clipPath29563">
      <path
         d="M -557.4951,577.8502 H 38.780902 V -17.4258 H -557.4951 Z"
         id="path29565"
         style="stroke-width:0.999998" />
    </clipPath>
    <clipPath
       clipPathUnits="userSpaceOnUse"
       id="clipPath29569">
      <path
         d="M -568.2266,575.819 H 28.049402 V -19.457 H -568.2266 Z"
         id="path29571"
         style="stroke-width:0.999998" />
    </clipPath>
    <clipPath
       clipPathUnits="userSpaceOnUse"
       id="clipPath29575">
      <path
         d="M -550.2637,577.3248 H 46.012302 V -17.9512 H -550.2637 Z"
         id="path29577"
         style="stroke-width:0.999998" />
    </clipPath>
    <clipPath
       clipPathUnits="userSpaceOnUse"
       id="clipPath29582">
      <path
         d="M -556.4014,578.0143 H 39.874602 V -17.2617 H -556.4014 Z"
         id="path29584"
         style="stroke-width:0.999998" />
    </clipPath>
    <clipPath
       clipPathUnits="userSpaceOnUse"
       id="clipPath29588">
      <path
         d="M -586.5449,579.5026 H 9.7311024 V -15.7734 H -586.5449 Z"
         id="path29590"
         style="stroke-width:0.999998" />
    </clipPath>
    <clipPath
       clipPathUnits="userSpaceOnUse"
       id="clipPath29594">
      <path
         d="M -540.8213,585.8483 H 55.454702 V -9.4277 H -540.8213 Z"
         id="path29596"
         style="stroke-width:0.999998" />
    </clipPath>
    <clipPath
       clipPathUnits="userSpaceOnUse"
       id="clipPath29600">
      <path
         d="M -567.7754,585.8522 H 28.500602 V -9.4238 H -567.7754 Z"
         id="path29602"
         style="stroke-width:0.999998" />
    </clipPath>
    <clipPath
       clipPathUnits="userSpaceOnUse"
       id="clipPath29606">
      <path
         d="M -557.0645,585.8483 H 39.211502 V -9.4277 H -557.0645 Z"
         id="path29608"
         style="stroke-width:0.999998" />
    </clipPath>
    <clipPath
       clipPathUnits="userSpaceOnUse"
       id="clipPath29612">
      <path
         d="M -545.417,584.5729 H 50.859002 V -10.7031 H -545.417 Z"
         id="path29614"
         style="stroke-width:0.999998" />
    </clipPath>
    <clipPath
       clipPathUnits="userSpaceOnUse"
       id="clipPath29618">
      <path
         d="M -548.9834,585.8522 H 47.292602 V -9.4238 H -548.9834 Z"
         id="path29620"
         style="stroke-width:0.999998" />
    </clipPath>
    <clipPath
       clipPathUnits="userSpaceOnUse"
       id="clipPath29624">
      <path
         d="M -553.8975,585.8483 H 42.378502 V -9.4277 H -553.8975 Z"
         id="path29626"
         style="stroke-width:0.999998" />
    </clipPath>
    <clipPath
       clipPathUnits="userSpaceOnUse"
       id="clipPath29630">
      <path
         d="M -584.1943,578.9381 H 12.081702 V -16.3379 H -584.1943 Z"
         id="path29632"
         style="stroke-width:0.999998" />
    </clipPath>
    <clipPath
       clipPathUnits="userSpaceOnUse"
       id="clipPath29636">
      <path
         d="M -536.6982,584.5729 H 59.577802 V -10.7031 H -536.6982 Z"
         id="path29638"
         style="stroke-width:0.999998" />
    </clipPath>
    <clipPath
       clipPathUnits="userSpaceOnUse"
       id="clipPath29642">
      <path
         d="M -531.1924,581.5885 H 65.083602 V -13.6875 H -531.1924 Z"
         id="path29644"
         style="stroke-width:0.999998" />
    </clipPath>
    <clipPath
       clipPathUnits="userSpaceOnUse"
       id="clipPath29648">
      <path
         d="M -528.0898,575.3815 H 68.186202 V -19.8945 H -528.0898 Z"
         id="path29650"
         style="stroke-width:0.999998" />
    </clipPath>
  </defs>
  <sodipodi:namedview
     id="namedview29077"
     pagecolor="#ffffff"
     bordercolor="#000000"
     borderopacity="0.25"
     inkscape:showpageshadow="2"
     inkscape:pageopacity="0.0"
     inkscape:pagecheckerboard="0"
     inkscape:deskcolor="#d1d1d1"
     showgrid="false"
     inkscape:zoom="0.29734106"
     inkscape:cx="-215.24105"
     inkscape:cy="396.85068"
     inkscape:window-width="1419"
     inkscape:window-height="456"
     inkscape:window-x="0"
     inkscape:window-y="25"
     inkscape:window-maximized="0"
     inkscape:current-layer="svg29075">
    <inkscape:page
       x="0"
       y="0"
       id="page29081"
       width="795.03467"
       height="793.70135" />
  </sodipodi:namedview>
  <path
     d="m 396.848,438.795 -41.941,-41.942 41.944,-41.946 41.945,41.946 z m 225.074,-3.993 c -9.798,9.753 -23.046,15.705 -37.951,15.717 -3.563,-0.002 -7.304,-0.797 -11.636,-2.612 -4.298,-1.804 -9.051,-4.67 -13.848,-8.29 -9.691,-7.256 -19.06,-17.23 -27.611,-25.843 l -16.924,-16.921 16.924,-16.924 c 6.457,-6.484 13.227,-13.662 20.42,-19.959 7.139,-6.307 14.583,-11.492 21.039,-14.172 4.332,-1.817 8.073,-2.611 11.636,-2.616 14.905,0.013 28.153,5.967 37.951,15.719 8.691,8.729 14.35,20.206 15.492,33.15 h 53.248 C 688.136,335.282 641.364,290.052 583.971,290.04 c -11.823,-0.006 -22.758,2.762 -32.284,6.786 -9.556,4.043 -17.846,9.302 -25.167,14.811 -14.553,10.999 -25.74,23.288 -33.227,30.714 l -16.92,16.922 -41.942,-41.947 16.921,-16.918 c 7.426,-7.488 19.715,-18.675 30.713,-33.228 5.511,-7.32 10.77,-15.61 14.811,-25.167 4.024,-9.527 6.792,-20.461 6.787,-32.283 -0.012,-57.394 -45.244,-104.167 -102.015,-106.693 v 53.248 c 12.946,1.143 24.424,6.802 33.154,15.494 9.752,9.798 15.706,23.046 15.718,37.951 -0.005,3.562 -0.797,7.304 -2.616,11.635 -2.678,6.456 -7.865,13.901 -14.172,21.039 -6.298,7.193 -13.474,13.962 -19.96,20.421 l -16.921,16.924 -16.923,-16.924 c -8.613,-8.552 -18.586,-17.921 -25.844,-27.613 -3.617,-4.796 -6.485,-9.55 -8.286,-13.847 -1.819,-4.331 -2.614,-8.073 -2.615,-11.635 0.013,-14.905 5.965,-28.153 15.716,-37.951 8.732,-8.692 20.207,-14.351 33.153,-15.494 v -53.248 c -56.769,2.528 -101.999,49.299 -102.014,106.693 -0.005,11.822 2.764,22.756 6.788,32.283 6.089,14.331 14.804,25.831 23.208,35.453 8.416,9.574 16.77,17.37 22.317,22.942 l 16.92,16.917 -41.942,41.948 -16.919,-16.922 c -7.488,-7.426 -18.675,-19.715 -33.228,-30.714 -7.32,-5.509 -15.609,-10.768 -25.167,-14.811 -9.528,-4.024 -20.46,-6.792 -32.282,-6.786 -57.392,0.012 -104.165,45.241 -106.692,102.011 h 53.247 c 1.144,-12.944 6.8,-24.421 15.493,-33.15 9.797,-9.752 23.045,-15.706 37.952,-15.719 3.561,0.005 7.304,0.799 11.634,2.616 6.456,2.68 13.899,7.865 21.039,14.172 7.192,6.297 13.964,13.475 20.423,19.959 l 16.922,16.924 -16.922,16.921 c -8.554,8.613 -17.923,18.587 -27.614,25.843 -4.797,3.62 -9.549,6.486 -13.848,8.29 -4.33,1.815 -8.073,2.61 -11.634,2.612 -14.907,-0.012 -28.155,-5.964 -37.952,-15.717 -8.693,-8.728 -14.351,-20.208 -15.493,-33.155 h -53.247 c 2.527,56.772 49.3,102.001 106.692,102.016 11.822,0.005 22.754,-2.763 32.282,-6.785 14.33,-6.091 25.83,-14.804 35.454,-23.208 9.572,-8.418 17.372,-16.771 22.941,-22.319 l 16.917,-16.92 41.94,41.944 -16.919,16.919 c -5.546,5.57 -13.902,13.368 -22.318,22.94 -8.403,9.624 -17.117,21.122 -23.207,35.453 -4.024,9.527 -6.793,20.461 -6.788,32.283 0.015,57.394 45.245,104.166 102.017,106.693 v -53.248 c -12.946,-1.143 -24.425,-6.8 -33.157,-15.494 -9.749,-9.797 -15.703,-23.045 -15.715,-37.951 0.003,-3.562 0.798,-7.304 2.615,-11.635 1.803,-4.299 4.669,-9.049 8.287,-13.847 7.258,-9.692 17.23,-19.06 25.844,-27.613 l 16.922,-16.923 16.923,16.923 c 6.484,6.457 13.66,13.229 19.957,20.421 6.308,7.139 11.494,14.584 14.174,21.039 1.818,4.331 2.61,8.073 2.614,11.635 -0.01,14.906 -5.965,28.154 -15.717,37.951 -8.729,8.692 -20.207,14.35 -33.151,15.494 v 53.248 c 56.77,-2.528 101.999,-49.299 102.012,-106.693 0.005,-11.822 -2.763,-22.756 -6.787,-32.283 -4.042,-9.556 -9.301,-17.847 -14.81,-25.167 -10.999,-14.553 -23.288,-25.738 -30.715,-33.226 l -16.921,-16.92 41.948,-41.943 16.918,16.92 c 5.571,5.548 13.368,13.901 22.94,22.319 9.624,8.404 21.123,17.117 35.454,23.208 9.526,4.022 20.461,6.79 32.284,6.785 57.393,-0.015 104.165,-45.244 106.691,-102.014 h -53.248 c -1.142,12.945 -6.801,24.425 -15.492,33.153 M 396.85,701.969 C 228.338,701.969 91.7291,565.36 91.7291,396.846 91.7291,228.332 228.338,91.7241 396.85,91.7241 c 168.514,0 305.122,136.6079 305.122,305.1219 0,168.514 -136.608,305.123 -305.122,305.123 m 0,-670.2394 c -201.649,0 -365.1207,163.4714 -365.1207,365.1194 0,201.652 163.4717,365.124 365.1207,365.124 201.65,0 365.121,-163.472 365.121,-365.124 C 761.971,195.201 598.5,31.7296 396.85,31.7296"
     style="fill:#000000;fill-opacity:1;fill-rule:nonzero;stroke:none"
     id="path29195" />
</svg>
