<?xml version="1.0" encoding="UTF-8" standalone="no"?>
<!-- Created with Inkscape (http://www.inkscape.org/) -->

<svg
   version="1.1"
   id="svg13990"
   width="793.70135"
   height="793.70135"
   viewBox="0 0 793.70135 793.70135"
   sodipodi:docname="Sumidate Idutsu.svg"
   inkscape:version="1.2 (dc2aeda, 2022-05-15)"
   xmlns:inkscape="http://www.inkscape.org/namespaces/inkscape"
   xmlns:sodipodi="http://sodipodi.sourceforge.net/DTD/sodipodi-0.dtd"
   xmlns="http://www.w3.org/2000/svg"
   xmlns:svg="http://www.w3.org/2000/svg">
  <defs
     id="defs13994" />
  <sodipodi:namedview
     id="namedview13992"
     pagecolor="#ffffff"
     bordercolor="#000000"
     borderopacity="0.25"
     inkscape:showpageshadow="2"
     inkscape:pageopacity="0.0"
     inkscape:pagecheckerboard="0"
     inkscape:deskcolor="#d1d1d1"
     showgrid="false"
     inkscape:zoom="0.21024124"
     inkscape:cx="-882.31976"
     inkscape:cy="494.66984"
     inkscape:window-width="1419"
     inkscape:window-height="456"
     inkscape:window-x="0"
     inkscape:window-y="25"
     inkscape:window-maximized="0"
     inkscape:current-layer="svg13990">
    <inkscape:page
       x="0"
       y="0"
       id="page13996"
       width="793.70135"
       height="793.70135" />
  </sodipodi:namedview>
  <path
     d="M 396.177,540.819 253.962,398.6 396.183,256.364 538.386,398.61 Z M 753.697,355.538 667.582,269.427 624.554,312.513 482.301,170.257 525.35,127.195 439.236,41.084 396.204,84.167 353.128,41.084 l -86.114,86.111 43.054,43.06 -142.203,142.253 -43.082,-43.081 -86.114,86.111 43.0385,43.08 -43.0385,43.04 86.114,86.107 43.064,-43.05 142.212,142.221 -43.045,43.06 86.114,86.109 43.037,-43.016 43.071,43.016 86.114,-86.109 -43.037,-43.037 142.225,-142.23 43.044,43.036 86.115,-86.107 -43.05,-43.053 z"
     style="fill:#231f20;fill-opacity:1;fill-rule:nonzero;stroke:none"
     id="path14002" />
</svg>
