<?xml version="1.0" standalone="no"?>
<!DOCTYPE svg PUBLIC "-//W3C//DTD SVG 20010904//EN"
 "http://www.w3.org/TR/2001/REC-SVG-20010904/DTD/svg10.dtd">
<svg version="1.0" xmlns="http://www.w3.org/2000/svg"
 width="1280.000000pt" height="705.000000pt" viewBox="0 0 1280.000000 705.000000"
 preserveAspectRatio="xMidYMid meet">
<metadata>
Created by potrace 1.15, written by Peter Selinger 2001-2017
</metadata>
<g transform="translate(0.000000,705.000000) scale(0.100000,-0.100000)"
fill="#000000" stroke="none">
<path d="M874 7041 c-104 -18 -226 -169 -195 -241 7 -14 22 -40 36 -58 18 -25
23 -42 19 -65 -14 -82 -37 -106 -172 -177 -76 -40 -94 -69 -91 -145 2 -38 -2
-60 -13 -72 -21 -24 -30 -146 -15 -201 8 -32 17 -44 35 -49 22 -5 23 -8 16
-57 -16 -99 2 -648 23 -702 3 -8 23 -22 44 -31 22 -8 39 -16 39 -17 0 -2 14
-42 30 -90 30 -85 53 -222 64 -382 4 -45 13 -104 21 -130 17 -57 11 -166 -12
-202 -8 -13 -19 -69 -24 -125 -5 -56 -12 -120 -16 -141 -5 -33 -2 -42 18 -57
58 -45 146 -9 135 54 -13 76 -18 182 -8 172 26 -26 43 -129 40 -241 -2 -66 1
-117 7 -123 6 -5 29 -12 51 -16 35 -5 46 -3 69 17 l27 24 -26 117 c-15 65 -31
129 -37 144 -20 52 -28 112 -38 268 -9 148 -9 165 9 219 11 33 20 82 20 110 0
73 16 165 51 293 28 100 35 116 75 156 l44 45 -1 98 c0 55 -4 205 -8 334 -8
262 3 376 40 416 19 20 19 26 8 130 -7 60 -13 127 -13 149 -1 22 -7 51 -15 64
-12 21 -11 23 3 18 22 -9 20 10 -3 22 -10 6 -28 27 -40 46 -22 38 -19 58 13
85 23 18 20 90 -8 189 -38 132 -91 172 -202 152z"/>
<path d="M6155 7031 c-52 -24 -121 -99 -134 -147 -13 -45 -15 -134 -3 -134 4
0 14 -27 21 -60 22 -98 -4 -133 -108 -147 -117 -15 -132 -44 -142 -263 -4
-101 -15 -206 -28 -269 -12 -58 -28 -184 -37 -280 -8 -97 -19 -192 -24 -211
-15 -63 -23 -197 -11 -204 7 -4 11 1 11 13 0 12 5 21 10 21 6 0 10 -7 10 -15
0 -9 7 -18 15 -21 20 -8 20 -17 -16 -184 -30 -143 -45 -180 -122 -320 -21 -39
-51 -120 -73 -200 -20 -74 -44 -151 -54 -170 -10 -19 -34 -85 -54 -145 -20
-61 -50 -130 -66 -154 -38 -56 -39 -86 -2 -99 54 -18 134 15 152 63 4 11 16
20 26 20 15 0 20 9 24 40 3 22 14 51 23 65 14 21 15 36 8 81 -16 95 -8 121 70
245 39 63 83 145 96 182 14 37 36 82 49 100 14 18 43 69 66 115 22 45 67 123
99 173 58 90 60 91 106 98 26 3 70 14 100 23 29 9 55 14 58 11 3 -3 12 -79 21
-169 8 -90 19 -188 24 -218 6 -30 10 -97 10 -149 0 -61 9 -143 26 -230 26
-134 26 -134 9 -221 -9 -47 -22 -96 -28 -109 -9 -18 -7 -29 7 -53 11 -19 16
-39 12 -55 -4 -15 0 -41 10 -65 15 -32 26 -41 66 -55 52 -17 103 -12 112 12 3
8 -4 38 -15 66 -12 32 -24 94 -29 162 -5 61 -12 129 -15 152 -3 22 -1 83 5
135 15 128 14 256 0 370 -13 97 -13 102 36 444 4 22 14 48 23 59 21 24 28 167
11 260 -11 62 -11 70 5 85 19 17 19 16 -1 -34 -3 -8 -1 -15 5 -15 6 0 11 4 11
9 0 25 115 179 201 268 112 119 179 213 179 253 0 35 -49 79 -175 157 -49 30
-126 79 -170 108 -103 68 -133 83 -218 106 -128 36 -149 58 -106 113 15 20 25
24 32 17 16 -16 24 -14 46 11 48 50 65 195 33 278 -14 36 -27 50 -67 72 -59
32 -77 34 -130 9z m404 -770 c58 -33 130 -69 159 -81 28 -12 52 -27 52 -32 0
-17 -149 -226 -177 -247 -15 -12 -41 -21 -62 -21 -20 0 -56 -9 -80 -20 -24
-11 -47 -20 -51 -20 -7 0 -34 79 -45 138 -6 31 2 99 27 235 11 57 39 107 60
107 6 0 59 -27 117 -59z m-660 -299 c0 -52 -6 -84 -43 -257 -32 -146 -55 -213
-67 -194 -18 28 -8 92 37 236 26 81 49 176 52 210 5 72 22 75 21 5z m581 -140
c0 -5 -11 -19 -24 -31 l-24 -23 -12 21 c-8 17 -8 22 2 25 7 3 20 7 28 9 23 8
30 8 30 -1z m20 -116 c0 -3 -4 -8 -10 -11 -5 -3 -10 -1 -10 4 0 6 5 11 10 11
6 0 10 -2 10 -4z m-305 -406 c-16 -16 -25 -30 -19 -30 12 -1 -15 -16 -45 -25
-15 -4 -21 -3 -17 3 9 15 -19 33 -39 25 -13 -5 -16 -3 -10 6 5 9 21 12 50 8
36 -5 46 -3 65 18 13 14 28 25 34 25 5 0 -3 -13 -19 -30z"/>
<path d="M9213 7034 c-61 -21 -143 -132 -143 -195 0 -13 -4 -30 -9 -37 -10
-16 -141 -52 -190 -52 -37 0 -165 -64 -190 -94 -27 -32 -5 -62 71 -99 40 -20
99 -45 130 -57 31 -12 67 -29 79 -39 l21 -17 -20 -40 c-11 -21 -32 -50 -47
-64 -57 -53 -68 -84 -61 -168 3 -42 13 -124 23 -182 l16 -106 -33 -103 c-26
-82 -31 -112 -27 -152 7 -58 42 -135 75 -164 l23 -20 -65 -161 c-96 -243 -119
-312 -112 -349 4 -17 25 -62 47 -100 23 -37 54 -98 69 -136 16 -37 65 -134
110 -214 76 -136 82 -150 76 -188 -10 -64 -55 -138 -99 -163 -21 -12 -37 -25
-35 -30 2 -5 6 -8 11 -6 4 1 7 -7 7 -18 0 -23 -4 -24 -31 -10 -32 18 -24 -18
13 -51 27 -26 37 -30 82 -27 51 3 51 3 77 56 14 29 31 58 37 64 18 18 16 -30
-3 -65 -10 -19 -11 -35 -5 -51 10 -28 29 -36 78 -35 31 1 44 9 76 45 l39 44
-17 43 c-9 23 -16 61 -16 83 0 40 1 41 33 40 24 -1 42 -11 65 -36 17 -19 32
-30 32 -24 0 6 -11 21 -25 34 -14 13 -25 33 -25 45 0 12 -9 30 -19 39 -11 10
-23 30 -26 46 -7 32 -40 50 -90 50 -34 0 -35 1 -35 43 0 23 5 107 10 185 9
120 8 159 -5 235 -17 100 -18 88 32 375 21 118 33 160 69 237 25 52 50 118 56
147 10 50 9 58 -21 128 -17 41 -53 113 -81 159 -27 46 -50 89 -50 95 0 6 7 20
15 30 8 11 15 29 15 41 0 41 56 113 109 140 37 18 61 41 93 87 42 62 43 65 42
143 0 139 -13 374 -23 437 -12 74 -45 144 -78 165 -37 24 -106 32 -150 17z
m-115 -351 c20 -53 24 -93 10 -98 -22 -8 -211 19 -215 31 -5 16 42 45 117 70
82 28 76 29 88 -3z m-89 -1784 c12 -57 8 -71 -14 -48 -15 14 -19 36 -17 77 3
39 20 24 31 -29z"/>
<path d="M11552 7029 c-32 -16 -51 -36 -74 -75 -36 -65 -43 -66 -176 -24 -107
35 -236 49 -270 31 -31 -17 -28 -65 8 -126 16 -27 75 -99 130 -160 132 -144
145 -172 142 -297 -1 -53 2 -107 7 -121 5 -13 17 -64 25 -113 9 -49 18 -98 21
-109 4 -13 -10 -46 -39 -95 -72 -119 -80 -156 -81 -371 0 -200 3 -215 52 -221
21 -2 29 -13 47 -63 15 -44 28 -63 49 -73 15 -7 28 -21 28 -30 3 -44 10 -89
19 -121 17 -61 12 -106 -20 -166 -37 -70 -38 -107 -9 -283 25 -155 19 -224
-36 -418 -22 -76 -19 -109 10 -128 33 -21 78 -20 99 3 13 14 16 35 15 87 -1
38 3 101 9 139 7 39 12 101 12 138 0 89 20 208 33 200 8 -5 6 -188 -4 -378 0
-5 0 -59 2 -118 2 -123 9 -137 68 -137 64 0 99 49 68 95 -7 11 -22 43 -32 70
-29 77 -23 155 31 365 48 189 50 214 43 400 -2 63 6 132 37 297 2 12 15 34 28
50 24 29 39 95 51 222 4 35 15 86 26 113 10 27 19 59 19 72 0 53 -35 133 -102
232 l-72 105 28 56 c15 31 36 97 47 147 11 54 29 104 44 126 14 20 25 49 25
64 0 27 2 28 31 22 29 -5 31 -4 26 16 -4 12 -2 27 4 34 7 9 5 22 -5 43 -9 16
-16 35 -16 40 0 6 52 61 115 122 148 144 189 225 122 243 -50 13 -229 1 -299
-20 -13 -4 -21 4 -32 29 -18 43 -54 77 -82 77 -12 0 -35 7 -50 15 -40 20 -71
19 -122 -6z m-207 -203 l40 -12 0 -65 0 -66 -65 44 c-36 23 -78 59 -93 78
l-28 35 53 -1 c29 0 71 -6 93 -13z m580 -5 l30 -6 -48 -40 c-26 -22 -53 -40
-60 -40 -14 0 -32 58 -24 79 7 17 45 19 102 7z"/>
<path d="M3395 6987 c-22 -6 -46 -20 -54 -30 -11 -15 -21 -18 -50 -12 -58 10
-101 7 -126 -9 -37 -24 -66 -96 -67 -168 -2 -79 12 -207 23 -214 5 -3 9 -16 9
-30 0 -19 -5 -24 -24 -24 -67 0 -107 -49 -121 -145 -17 -117 -47 -243 -70
-290 -13 -27 -35 -79 -48 -115 -13 -36 -36 -89 -51 -118 l-26 -52 -51 0 c-53
0 -109 -22 -109 -43 0 -6 -3 -22 -6 -34 -5 -17 -2 -23 9 -23 8 0 17 -9 20 -20
5 -21 27 -28 27 -9 0 5 5 7 10 4 6 -3 10 3 10 13 0 32 25 45 74 38 l45 -7 71
96 c93 126 129 186 156 259 18 49 24 57 30 41 4 -11 21 -54 37 -95 33 -82 38
-149 18 -215 -7 -22 -14 -116 -16 -208 -4 -175 -1 -205 45 -362 11 -38 29
-122 40 -185 l20 -114 -21 -81 c-36 -133 -37 -150 -27 -328 8 -157 8 -180 -12
-276 -11 -57 -24 -140 -27 -183 l-6 -78 36 -15 c42 -17 100 -20 128 -5 19 11
27 50 10 50 -14 0 -34 149 -33 247 1 72 11 129 41 250 22 87 43 187 46 223 4
36 16 99 26 142 14 57 19 112 19 219 0 78 3 139 7 136 10 -10 12 -335 2 -387
-5 -28 -2 -112 8 -226 15 -169 15 -185 0 -223 -10 -23 -17 -57 -17 -77 0 -19
-7 -64 -16 -99 -16 -64 -16 -65 7 -112 22 -44 27 -48 64 -51 46 -3 79 12 56
27 -11 7 -11 13 -1 32 9 17 11 60 6 165 l-7 141 41 164 c40 158 53 284 35 331
-11 29 16 181 55 302 56 176 74 308 60 431 -12 114 -37 172 -109 255 -81 94
-85 102 -77 180 3 39 14 89 23 111 14 35 14 49 5 86 -10 36 -9 49 3 72 25 49
65 90 129 133 87 58 181 142 207 185 l23 36 -52 48 c-28 26 -86 63 -128 83
-79 38 -176 100 -232 148 -35 30 -38 31 -97 15z m76 -116 c49 -10 68 -22 161
-105 l106 -93 -32 -15 c-17 -8 -71 -36 -120 -62 -52 -28 -86 -42 -83 -33 9 23
-36 168 -76 245 -41 78 -43 87 -24 79 7 -2 38 -10 68 -16z m16 -303 c-3 -8 -6
-5 -6 6 -1 11 2 17 5 13 3 -3 4 -12 1 -19z"/>
<path d="M784 3126 c-28 -19 -72 -44 -98 -56 -56 -27 -83 -63 -95 -125 -5 -28
-19 -58 -35 -74 -30 -31 -34 -46 -9 -37 37 15 -30 -43 -83 -71 -30 -15 -54
-32 -54 -37 0 -4 6 -6 13 -3 52 22 53 22 36 1 -29 -33 -111 -186 -104 -192 4
-4 11 1 16 10 19 34 89 92 89 74 0 -2 -20 -39 -45 -82 -45 -80 -53 -104 -35
-104 6 0 10 -5 10 -11 0 -15 -65 -143 -96 -188 -13 -20 -24 -42 -24 -49 0 -8
-35 -80 -79 -160 -109 -205 -107 -200 -126 -267 -9 -33 -25 -78 -35 -100 -19
-42 -36 -125 -26 -125 4 0 10 10 15 23 8 21 9 20 18 -13 l10 -35 15 30 c8 17
19 48 23 70 14 79 48 102 63 43 4 -17 13 -33 19 -35 12 -4 12 6 -9 140 l-10
67 58 62 c77 84 132 154 155 200 23 45 34 46 98 14 l48 -25 -4 -53 c-3 -29
-15 -106 -27 -171 -21 -109 -22 -124 -10 -210 22 -148 50 -267 67 -280 35 -27
76 -283 77 -479 0 -59 7 -136 15 -171 52 -226 78 -387 78 -482 0 -56 -6 -118
-13 -139 -11 -34 -10 -39 11 -62 26 -28 46 -30 92 -8 l34 16 -2 142 c-2 109
-6 150 -20 181 -14 33 -17 66 -15 215 1 96 -2 276 -8 400 -17 338 -16 382 6
378 16 -3 17 -24 18 -253 l1 -250 28 -58 c26 -57 27 -63 21 -170 -12 -199 -10
-250 7 -283 23 -45 45 -50 79 -17 48 46 54 87 33 218 -16 96 -17 125 -7 173 6
31 16 95 22 141 10 73 9 89 -6 132 -18 49 -18 51 11 197 16 81 34 161 41 178
8 18 23 83 34 145 16 92 20 155 20 350 0 231 1 239 21 249 11 7 22 10 23 8 2
-2 21 -37 42 -78 21 -41 57 -98 80 -125 82 -102 79 -91 50 -205 -30 -116 -29
-110 -16 -110 5 0 16 16 24 35 8 19 20 35 25 35 17 0 31 -36 31 -78 0 -43 17
-102 30 -102 4 0 11 15 15 33 7 28 9 29 12 10 3 -13 9 -23 15 -23 11 0 2 94
-12 120 -4 8 -13 51 -20 95 -7 44 -25 109 -41 145 -40 91 -109 280 -109 298 0
8 -11 40 -24 71 -14 31 -38 101 -55 156 -39 130 -75 187 -139 219 -49 25 -62
44 -62 93 0 13 19 41 46 68 l47 45 -6 68 c-7 87 -75 228 -122 251 -16 8 -38
18 -47 23 -32 15 -63 8 -114 -26z"/>
<path d="M4932 3140 c-32 -14 -47 -29 -58 -57 -9 -21 -24 -47 -34 -58 -22 -24
-46 -115 -56 -210 -3 -38 -13 -83 -21 -99 -9 -16 -17 -43 -18 -60 -4 -39 -49
-165 -83 -231 -18 -35 -26 -69 -28 -111 -2 -58 -4 -64 -43 -102 -39 -38 -42
-45 -46 -104 -3 -35 -1 -69 4 -77 5 -8 36 -16 74 -20 37 -4 69 -10 72 -13 7
-7 -25 -104 -61 -182 l-27 -60 38 -32 c37 -31 37 -32 21 -55 -9 -13 -16 -35
-16 -49 0 -14 -9 -57 -20 -95 -40 -140 -100 -460 -100 -536 0 -15 16 -51 36
-80 82 -119 241 -472 232 -517 -2 -9 -14 -19 -28 -22 -18 -4 -32 -21 -48 -55
-35 -73 -49 -85 -98 -85 -24 0 -46 -5 -50 -12 -14 -23 29 -38 108 -38 65 0 81
3 98 20 30 30 43 25 25 -9 -20 -39 -32 -46 -80 -46 -31 0 -40 -4 -43 -19 -2
-11 4 -26 14 -33 24 -17 145 -17 214 1 30 8 80 17 110 21 81 11 90 22 90 121
0 80 11 171 46 388 16 97 15 152 -5 261 -13 66 -13 272 -1 415 5 63 12 189 14
280 2 91 7 202 12 247 6 70 4 91 -16 150 l-22 68 52 130 c71 178 99 350 66
413 -8 15 -26 38 -40 51 -23 22 -26 32 -25 81 1 31 -3 66 -10 77 -6 12 -11 47
-11 79 0 55 -19 132 -46 186 -8 14 -14 33 -14 41 0 13 -95 57 -123 57 -7 0
-31 -9 -55 -20z m-37 -1957 c13 -176 22 -232 50 -285 22 -42 27 -68 32 -157 3
-58 2 -146 -2 -195 -7 -85 -8 -88 -25 -70 -19 21 -65 151 -100 281 -12 46 -39
111 -61 147 -45 75 -46 90 -18 182 32 104 83 194 110 194 4 0 10 -44 14 -97z"/>
<path d="M3066 3127 c-23 -23 -30 -25 -47 -16 -28 15 -65 4 -72 -21 -5 -18 -8
-19 -31 -9 -35 16 -44 4 -24 -31 14 -24 14 -31 4 -37 -27 -16 -35 -50 -29
-120 4 -47 2 -72 -6 -77 -7 -5 0 -17 20 -34 37 -30 70 -98 71 -145 1 -18 7
-41 15 -53 7 -11 10 -24 6 -27 -3 -4 -1 -7 5 -7 16 0 24 17 12 25 -5 3 -10 17
-10 31 0 14 4 22 10 19 6 -3 7 1 4 9 -3 9 -10 16 -15 16 -5 0 -9 5 -9 11 0 18
24 4 37 -21 9 -18 9 -26 1 -31 -9 -6 -9 -11 0 -22 30 -36 -19 -68 -98 -65
l-54 3 -24 -50 c-14 -27 -29 -79 -34 -115 -17 -112 -34 -192 -60 -280 -40
-134 -46 -166 -59 -324 -9 -117 -9 -164 0 -220 17 -97 29 -149 42 -183 10 -26
12 -26 19 -8 5 13 10 -12 14 -70 4 -49 11 -120 17 -157 17 -121 13 -159 -23
-213 -18 -26 -45 -67 -60 -90 -17 -26 -33 -72 -43 -120 -9 -51 -22 -86 -36
-101 -17 -19 -19 -26 -10 -38 14 -16 9 -55 -12 -88 -18 -28 -22 -47 -42 -176
-18 -120 -10 -152 47 -196 52 -39 75 -35 99 19 17 39 19 56 12 118 -8 66 -6
93 11 200 13 81 130 327 188 395 52 61 63 92 78 222 11 101 30 220 37 232 2 4
10 5 17 2 10 -4 13 -41 14 -162 0 -86 5 -181 11 -211 6 -29 9 -83 6 -120 -3
-36 -7 -133 -9 -216 -3 -96 -10 -168 -20 -200 -9 -27 -16 -69 -16 -91 0 -23
-7 -61 -15 -84 -41 -116 2 -174 103 -139 44 15 56 52 48 157 -5 75 0 153 18
277 3 17 14 68 26 115 19 71 22 112 21 250 -1 155 1 173 32 295 l33 130 43 15
c37 13 43 13 51 0 10 -16 10 -17 33 30 l17 35 -6 -32 c-3 -18 -1 -33 4 -33 21
0 54 175 47 250 -17 188 -47 397 -75 510 -11 47 -23 130 -26 185 -8 147 -40
225 -92 225 -14 0 -38 14 -58 34 -33 33 -34 37 -33 108 1 81 9 120 24 118 6 0
9 -26 8 -60 -2 -32 1 -62 6 -65 17 -10 24 87 12 150 -10 49 -9 68 3 109 14 47
14 49 -10 75 -13 14 -31 40 -39 58 -9 18 -21 33 -26 33 -19 0 -39 28 -39 53 0
14 -8 35 -19 48 l-18 23 -27 -27z m219 -1107 c14 -91 39 -203 54 -250 46 -137
53 -178 38 -228 l-13 -44 -18 84 c-22 105 -51 168 -109 239 -66 81 -68 107
-21 249 21 65 40 117 41 116 1 -1 14 -76 28 -166z m-491 -265 c-12 -49 -23
-100 -23 -112 -1 -33 -21 -28 -21 5 0 38 55 211 64 201 2 -2 -7 -44 -20 -94z
m-41 -296 c-5 -52 -8 -59 -14 -37 -6 25 8 114 17 105 2 -2 1 -33 -3 -68z"/>
<path d="M7595 3135 c-60 -17 -85 -45 -85 -94 0 -32 -6 -43 -41 -70 -25 -20
-52 -57 -72 -97 -17 -35 -34 -64 -38 -64 -4 0 -1 24 7 53 19 73 18 99 -3 95
-13 -2 -22 -23 -35 -78 l-16 -75 -1 67 c-1 63 -12 91 -26 68 -3 -5 -9 -42 -12
-80 -6 -73 -19 -83 -25 -20 -2 23 -8 35 -18 35 -10 0 -14 -9 -13 -25 1 -14 7
-77 12 -140 6 -63 11 -215 11 -337 0 -123 5 -245 11 -273 6 -28 8 -54 4 -58
-3 -3 -71 -9 -150 -12 -79 -3 -146 -7 -148 -10 -3 -3 -17 -81 -32 -175 -56
-360 -88 -520 -160 -810 -91 -362 -181 -780 -177 -816 2 -19 17 -33 55 -56 56
-33 100 -46 217 -64 41 -6 80 -14 85 -18 6 -3 26 -6 45 -7 19 0 123 -6 230
-13 130 -9 235 -10 315 -5 l120 9 31 48 c18 27 42 59 54 72 29 31 28 51 -5
355 -32 286 -43 363 -61 425 -18 60 -52 289 -94 630 -28 229 -41 324 -56 398
-5 25 -9 27 -55 27 -27 0 -49 3 -49 6 0 3 33 45 73 93 41 48 95 119 122 157
27 38 51 71 53 74 2 3 14 -7 28 -23 25 -30 54 -113 54 -159 0 -58 63 -89 138
-69 42 11 45 10 80 -20 41 -36 90 -59 128 -59 14 0 87 -15 162 -34 76 -19 162
-38 193 -41 31 -4 61 -10 68 -14 6 -4 16 -55 21 -115 13 -135 41 -282 87 -456
36 -137 50 -173 86 -222 45 -61 93 -558 68 -702 -15 -85 -58 -216 -77 -236 -8
-8 -31 -19 -51 -25 -20 -6 -38 -15 -40 -20 -1 -6 14 -21 34 -35 30 -20 51 -26
115 -29 l79 -3 37 43 c20 24 67 75 105 114 38 41 67 80 67 92 0 11 -12 41 -26
67 -34 61 -41 139 -20 238 24 117 36 249 26 309 -4 30 -23 117 -40 194 -37
161 -45 221 -61 470 -9 144 -8 196 2 260 8 44 14 114 14 155 0 64 -4 82 -28
122 -28 49 -90 104 -142 128 -17 7 -81 15 -151 18 -111 4 -121 6 -130 26 -7
18 -20 22 -80 27 -76 7 -161 38 -170 63 -3 8 -78 79 -165 157 l-160 142 6 51
c9 81 -9 220 -36 272 -37 71 -90 104 -175 109 -43 3 -88 -1 -119 -10z m-154
-372 c7 -8 3 -16 -12 -27 -41 -28 -50 -1 -22 62 l17 37 4 -30 c2 -16 8 -35 13
-42z m114 -83 c14 -27 14 -31 -9 -65 -14 -20 -41 -78 -61 -129 -38 -100 -82
-173 -95 -159 -11 12 -28 96 -35 183 l-7 75 46 56 c76 93 127 105 161 39z"/>
<path d="M10344 1971 c-38 -24 -63 -48 -67 -62 -9 -37 -25 -295 -24 -384 1
-66 -3 -92 -26 -145 -19 -47 -32 -109 -47 -225 -11 -88 -30 -189 -41 -225 -17
-49 -23 -102 -28 -215 l-6 -150 -77 -5 c-42 -3 -82 -10 -89 -17 -35 -35 66
-61 186 -48 l64 6 10 52 c9 49 46 270 57 347 7 44 69 200 88 218 11 12 25 -9
89 -140 61 -124 77 -165 82 -218 4 -36 14 -78 23 -95 10 -20 14 -53 13 -102
-3 -87 13 -120 73 -154 35 -20 58 -24 157 -27 113 -4 117 -3 175 26 47 25 81
33 169 43 117 13 169 30 240 79 l44 30 35 -43 c41 -50 61 -94 71 -154 11 -67
34 -88 122 -111 91 -23 196 -39 309 -48 80 -7 81 -6 103 21 12 16 20 33 18 38
-1 5 -42 27 -91 48 -103 44 -179 92 -155 97 16 3 187 -67 289 -118 63 -32 76
-45 105 -104 l20 -41 70 -6 c39 -3 91 -2 117 3 39 8 53 6 90 -13 23 -12 54
-30 67 -40 13 -11 37 -19 53 -19 16 0 52 -7 80 -17 54 -17 80 -11 86 21 6 26
-98 121 -176 160 -39 20 -98 53 -131 74 -33 22 -86 50 -118 62 -100 40 -227
117 -527 318 -307 206 -302 203 -391 190 -16 -3 -31 23 -95 165 -61 137 -83
176 -117 208 -36 33 -49 39 -85 39 -55 0 -88 -26 -193 -154 -43 -53 -82 -96
-86 -96 -4 0 -12 14 -18 32 -9 26 -8 38 9 73 34 71 25 114 -36 172 -33 31 -34
35 -34 108 0 73 -1 76 -31 94 -17 10 -53 22 -80 25 -79 11 -77 9 -63 75 17 83
12 211 -9 241 -9 14 -17 32 -17 41 0 35 -119 109 -173 109 -12 0 -50 -18 -83
-39z"/>
</g>
</svg>
