<?xml version="1.0" encoding="UTF-8" standalone="no"?>
<!-- Created with Inkscape (http://www.inkscape.org/) -->

<svg
   width="120mm"
   height="120mm"
   viewBox="0 0 120 120"
   version="1.1"
   id="svg2123"
   inkscape:export-filename="bitmap.png"
   inkscape:export-xdpi="96"
   inkscape:export-ydpi="96"
   inkscape:version="1.2 (dc2aeda, 2022-05-15)"
   sodipodi:docname="woman_standing.svg"
   xmlns:inkscape="http://www.inkscape.org/namespaces/inkscape"
   xmlns:sodipodi="http://sodipodi.sourceforge.net/DTD/sodipodi-0.dtd"
   xmlns="http://www.w3.org/2000/svg"
   xmlns:svg="http://www.w3.org/2000/svg">
  <sodipodi:namedview
     id="namedview2125"
     pagecolor="#ffffff"
     bordercolor="#000000"
     borderopacity="0.25"
     inkscape:showpageshadow="2"
     inkscape:pageopacity="0.0"
     inkscape:pagecheckerboard="0"
     inkscape:deskcolor="#d1d1d1"
     inkscape:document-units="mm"
     showgrid="false"
     inkscape:zoom="0.2102413"
     inkscape:cx="-587.42026"
     inkscape:cy="561.25985"
     inkscape:window-width="1309"
     inkscape:window-height="456"
     inkscape:window-x="51"
     inkscape:window-y="307"
     inkscape:window-maximized="0"
     inkscape:current-layer="layer1" />
  <defs
     id="defs2120" />
  <g
     inkscape:label="Layer 1"
     inkscape:groupmode="layer"
     id="layer1">
    <path
       d="m 61.265861,5.6768103 c -0.987778,0.6702778 -2.54,1.5522222 -3.457222,1.9755556 -1.975555,0.9524999 -2.928055,2.2224999 -3.351389,4.4097231 -0.176389,0.987777 -0.670278,2.046111 -1.234722,2.610555 -1.058333,1.093611 -1.199444,1.622778 -0.3175,1.305278 1.305278,-0.529167 -1.058333,1.516944 -2.928055,2.504722 -1.058334,0.529167 -1.905,1.128889 -1.905,1.305278 0,0.141111 0.211666,0.211666 0.458611,0.105833 1.834444,-0.776111 1.869722,-0.776111 1.27,-0.03528 -1.023056,1.164167 -3.915834,6.561667 -3.668889,6.773333 0.141111,0.141112 0.388055,-0.03528 0.564444,-0.352777 0.670278,-1.199445 3.139722,-3.245556 3.139722,-2.610556 0,0.07056 -0.705555,1.375834 -1.5875,2.892778 -1.5875,2.822222 -1.869722,3.668889 -1.234722,3.668889 0.211667,0 0.352778,0.176389 0.352778,0.388055 0,0.529167 -2.293055,5.044722 -3.386667,6.632222 -0.458611,0.705556 -0.846666,1.481667 -0.846666,1.728611 0,0.282223 -1.234722,2.822223 -2.786945,5.644445 -3.845277,7.231944 -3.774722,7.055555 -4.444999,9.419166 -0.3175,1.164167 -0.881945,2.751667 -1.234723,3.527778 -0.670277,1.481667 -1.27,4.409722 -0.917222,4.409722 0.141111,0 0.352778,-0.352778 0.529167,-0.811389 0.282222,-0.740833 0.3175,-0.705555 0.635,0.458611 l 0.352778,1.234722 0.529166,-1.058333 c 0.282222,-0.599722 0.670278,-1.693333 0.811389,-2.469444 0.493889,-2.786945 1.693333,-3.598333 2.2225,-1.516945 0.141111,0.599723 0.458611,1.164167 0.670278,1.234723 0.423333,0.141111 0.423333,-0.211667 -0.3175,-4.938889 l -0.352778,-2.363611 2.046111,-2.187222 c 2.716389,-2.963334 4.656667,-5.432778 5.468055,-7.055556 0.811389,-1.5875 1.199445,-1.622778 3.457223,-0.493889 l 1.693333,0.881945 -0.141111,1.869722 c -0.105834,1.023055 -0.529167,3.739444 -0.9525,6.0325 -0.740833,3.845277 -0.776111,4.374444 -0.352778,7.408333 0.776111,5.221111 1.763889,9.419166 2.363611,9.877777 1.234722,0.9525 2.681111,9.983611 2.716389,16.898056 0,2.081388 0.246944,4.797777 0.529167,6.0325 1.834444,7.972777 2.751666,13.652508 2.751666,17.003898 0,1.97555 -0.211666,4.16278 -0.458611,4.90361 -0.388055,1.19944 -0.352778,1.37583 0.388056,2.18722 0.917222,0.98778 1.622777,1.05833 3.245555,0.28222 l 1.199445,-0.56444 -0.07056,-5.00945 c -0.07056,-3.84527 -0.211667,-5.29166 -0.705556,-6.38527 -0.493888,-1.16417 -0.599722,-2.32834 -0.529166,-7.584733 0.03528,-3.386667 -0.07056,-9.736666 -0.282222,-14.111111 -0.599723,-11.923888 -0.564445,-13.476111 0.211666,-13.335 0.564445,0.105834 0.599722,0.846667 0.635,8.925278 l 0.03528,8.819444 0.987778,2.046111 c 0.917222,2.010834 0.9525,2.2225 0.740833,5.997222 -0.423333,7.020289 -0.352778,8.819449 0.246945,9.983619 0.811388,1.5875 1.5875,1.76389 2.786944,0.59972 1.693333,-1.62278 1.905,-3.06916 1.164167,-7.690561 -0.564445,-3.386666 -0.599723,-4.409722 -0.246945,-6.103055 0.211667,-1.093611 0.564445,-3.351389 0.776111,-4.974167 0.352778,-2.575278 0.3175,-3.139722 -0.211666,-4.656666 -0.635,-1.728611 -0.635,-1.799167 0.388055,-6.949722 0.564445,-2.8575 1.199445,-5.679723 1.446389,-6.279445 0.282222,-0.635 0.811389,-2.928055 1.199444,-5.115277 0.564445,-3.245556 0.705556,-5.468056 0.705556,-12.347222 0,-8.149167 0.03528,-8.431389 0.740833,-8.784167 0.388056,-0.246944 0.776111,-0.352778 0.811389,-0.282222 0.07056,0.07056 0.740833,1.305278 1.481667,2.751667 0.740833,1.446388 2.010833,3.457222 2.822222,4.409722 2.892778,3.598333 2.786944,3.210277 1.763889,7.231944 -1.058334,4.092222 -1.023056,3.880555 -0.564445,3.880555 0.176389,0 0.564445,-0.564444 0.846667,-1.234722 0.282222,-0.670278 0.705556,-1.234722 0.881944,-1.234722 0.599723,0 1.093611,1.27 1.093611,2.751667 0,1.516944 0.599723,3.598333 1.058334,3.598333 0.141111,0 0.388055,-0.529167 0.529166,-1.164167 0.246945,-0.987778 0.3175,-1.023055 0.423334,-0.352778 0.105833,0.458612 0.3175,0.811389 0.529166,0.811389 0.388056,0 0.07056,-3.316111 -0.423333,-4.233333 -0.141111,-0.282222 -0.458611,-1.799167 -0.705555,-3.351389 -0.246945,-1.552222 -0.881945,-3.845277 -1.446389,-5.115277 -1.411111,-3.210278 -3.845278,-9.877778 -3.845278,-10.512778 0,-0.282222 -0.388056,-1.411111 -0.846667,-2.504722 -0.493889,-1.093611 -1.340555,-3.563056 -1.940277,-5.503333 -1.375834,-4.586111 -2.645834,-6.596945 -4.903611,-7.725833 -1.728611,-0.881945 -2.187223,-1.552223 -2.187223,-3.280834 0,-0.458611 0.670278,-1.446389 1.622778,-2.398889 l 1.658056,-1.5875 -0.211667,-2.398888 C 71.002528,11.356533 68.603639,6.3823659 66.945583,5.570977 66.381139,5.2887548 65.605028,4.935977 65.287528,4.7595881 64.158639,4.2304215 63.065028,4.4773659 61.265861,5.6768103 Z"
       id="path2412"
       style="fill:#000000;stroke:none;stroke-width:0.0352778" />
  </g>
</svg>
