<?xml version="1.0" encoding="UTF-8" standalone="no"?>
<!-- Created with Inkscape (http://www.inkscape.org/) -->

<svg
   version="1.1"
   id="svg42612"
   width="795.03467"
   height="793.70135"
   viewBox="0 0 795.03467 793.70135"
   sodipodi:docname="Ire Chigai Kama.svg"
   inkscape:version="1.2 (dc2aeda, 2022-05-15)"
   xmlns:inkscape="http://www.inkscape.org/namespaces/inkscape"
   xmlns:sodipodi="http://sodipodi.sourceforge.net/DTD/sodipodi-0.dtd"
   xmlns="http://www.w3.org/2000/svg"
   xmlns:svg="http://www.w3.org/2000/svg">
  <defs
     id="defs42616">
    <clipPath
       clipPathUnits="userSpaceOnUse"
       id="clipPath43105">
      <path
         d="M -561.4131,585.8522 H 34.862903 V -9.4238027 H -561.4131 Z"
         id="path43107"
         style="stroke-width:0.999998" />
    </clipPath>
    <clipPath
       clipPathUnits="userSpaceOnUse"
       id="clipPath43111">
      <path
         d="M -557.0645,585.8483 H 39.211501 V -9.4277027 H -557.0645 Z"
         id="path43113"
         style="stroke-width:0.999998" />
    </clipPath>
    <clipPath
       clipPathUnits="userSpaceOnUse"
       id="clipPath43117">
      <path
         d="M -553.8975,585.8483 H 42.378504 V -9.4277027 H -553.8975 Z"
         id="path43119"
         style="stroke-width:0.999998" />
    </clipPath>
    <clipPath
       clipPathUnits="userSpaceOnUse"
       id="clipPath43123">
      <path
         d="M -545.417,584.5729 H 50.859001 V -10.7031 H -545.417 Z"
         id="path43125"
         style="stroke-width:0.999998" />
    </clipPath>
    <clipPath
       clipPathUnits="userSpaceOnUse"
       id="clipPath43129">
      <path
         d="m -73.1865,240.8883 h 596.276 v -595.276 h -596.276 z"
         id="path43131"
         style="stroke-width:0.999998" />
    </clipPath>
    <clipPath
       clipPathUnits="userSpaceOnUse"
       id="clipPath43135">
      <path
         d="M -538.2217,577.9479 H 58.054299 V -17.328098 H -538.2217 Z"
         id="path43137"
         style="stroke-width:0.999998" />
    </clipPath>
    <clipPath
       clipPathUnits="userSpaceOnUse"
       id="clipPath43141">
      <path
         d="M -584.1943,578.9381 H 12.081705 V -16.337903 H -584.1943 Z"
         id="path43143"
         style="stroke-width:0.999998" />
    </clipPath>
    <clipPath
       clipPathUnits="userSpaceOnUse"
       id="clipPath43147">
      <path
         d="M -542.9326,584.5729 H 53.343399 V -10.7031 H -542.9326 Z"
         id="path43149"
         style="stroke-width:0.999998" />
    </clipPath>
    <clipPath
       clipPathUnits="userSpaceOnUse"
       id="clipPath43153">
      <path
         d="M -586.5449,579.5026 H 9.7311002 V -15.7734 H -586.5449 Z"
         id="path43155"
         style="stroke-width:0.999998" />
    </clipPath>
    <clipPath
       clipPathUnits="userSpaceOnUse"
       id="clipPath43159">
      <path
         d="M -540.8213,585.8483 H 55.454701 V -9.4277027 H -540.8213 Z"
         id="path43161"
         style="stroke-width:0.999998" />
    </clipPath>
    <clipPath
       clipPathUnits="userSpaceOnUse"
       id="clipPath43165">
      <path
         d="M -556.4014,578.0143 H 39.874606 V -17.2617 H -556.4014 Z"
         id="path43167"
         style="stroke-width:0.999998" />
    </clipPath>
    <clipPath
       clipPathUnits="userSpaceOnUse"
       id="clipPath43172">
      <path
         d="M -550.2637,577.3248 H 46.012306 V -17.951198 H -550.2637 Z"
         id="path43174"
         style="stroke-width:0.999998" />
    </clipPath>
    <clipPath
       clipPathUnits="userSpaceOnUse"
       id="clipPath43178">
      <path
         d="M -568.2266,575.819 H 28.049401 V -19.457003 H -568.2266 Z"
         id="path43180"
         style="stroke-width:0.999998" />
    </clipPath>
    <clipPath
       clipPathUnits="userSpaceOnUse"
       id="clipPath43184">
      <path
         d="M -557.4951,577.8502 H 38.780903 V -17.4258 H -557.4951 Z"
         id="path43186"
         style="stroke-width:0.999998" />
    </clipPath>
    <clipPath
       clipPathUnits="userSpaceOnUse"
       id="clipPath43190">
      <path
         d="M -576.3691,585.5885 H 19.906905 V -9.6875027 H -576.3691 Z"
         id="path43192"
         style="stroke-width:0.999998" />
    </clipPath>
    <clipPath
       clipPathUnits="userSpaceOnUse"
       id="clipPath43196">
      <path
         d="M -574.5459,585.8522 H 21.730103 V -9.4238027 H -574.5459 Z"
         id="path43198"
         style="stroke-width:0.999998" />
    </clipPath>
    <clipPath
       clipPathUnits="userSpaceOnUse"
       id="clipPath43202">
      <path
         d="M -572.8174,586.1354 H 23.458606 V -9.1406027 H -572.8174 Z"
         id="path43204"
         style="stroke-width:0.999998" />
    </clipPath>
    <clipPath
       clipPathUnits="userSpaceOnUse"
       id="clipPath43208">
      <path
         d="M -536.6982,584.5729 H 59.577804 V -10.7031 H -536.6982 Z"
         id="path43210"
         style="stroke-width:0.999998" />
    </clipPath>
    <clipPath
       clipPathUnits="userSpaceOnUse"
       id="clipPath43214">
      <path
         d="M -528.0898,575.3815 H 68.186199 V -19.8945 H -528.0898 Z"
         id="path43216"
         style="stroke-width:0.999998" />
    </clipPath>
    <clipPath
       clipPathUnits="userSpaceOnUse"
       id="clipPath43220">
      <path
         d="M -548.9834,585.8522 H 47.292601 V -9.4238027 H -548.9834 Z"
         id="path43222"
         style="stroke-width:0.999998" />
    </clipPath>
    <clipPath
       clipPathUnits="userSpaceOnUse"
       id="clipPath43227">
      <path
         d="M -567.7754,585.8522 H 28.500601 V -9.4238027 H -567.7754 Z"
         id="path43229"
         style="stroke-width:0.999998" />
    </clipPath>
    <clipPath
       clipPathUnits="userSpaceOnUse"
       id="clipPath43233">
      <path
         d="M -564.5732,585.8483 H 31.702801 V -9.4277027 H -564.5732 Z"
         id="path43235"
         style="stroke-width:0.999998" />
    </clipPath>
    <clipPath
       clipPathUnits="userSpaceOnUse"
       id="clipPath43239">
      <path
         d="M -531.1924,581.5885 H 65.083599 V -13.6875 H -531.1924 Z"
         id="path43241"
         style="stroke-width:0.999998" />
    </clipPath>
  </defs>
  <sodipodi:namedview
     id="namedview42614"
     pagecolor="#ffffff"
     bordercolor="#000000"
     borderopacity="0.25"
     inkscape:showpageshadow="2"
     inkscape:pageopacity="0.0"
     inkscape:pagecheckerboard="0"
     inkscape:deskcolor="#d1d1d1"
     showgrid="false"
     inkscape:zoom="0.29734106"
     inkscape:cx="-215.24105"
     inkscape:cy="396.85068"
     inkscape:window-width="1419"
     inkscape:window-height="456"
     inkscape:window-x="0"
     inkscape:window-y="25"
     inkscape:window-maximized="0"
     inkscape:current-layer="svg42612">
    <inkscape:page
       x="0"
       y="0"
       id="page42618"
       width="795.03467"
       height="793.70135" />
  </sodipodi:namedview>
  <path
     d="M 97.582 321.184 C 94.986 324.447 90.238 324.989 86.9754 322.397 C 83.71 319.803 83.1674 315.055 85.762 311.792 C 88.3554 308.527 93.1033 307.984 96.366 310.579 C 99.6287 313.171 100.173 317.92 97.582 321.184 M 103.767 301.264 C 95.3607 294.581 83.1287 295.98 76.4461 304.388 C 69.7647 312.797 71.1634 325.029 79.5714 331.712 C 87.9807 338.391 100.213 336.992 106.894 328.584 C 113.577 320.175 112.175 307.944 103.767 301.264 M 73.9727 338.756 C 61.6728 328.984 59.6261 311.087 69.3994 298.787 C 79.1727 286.487 97.066 284.44 109.369 294.215 C 121.667 303.988 123.715 321.88 113.942 334.183 C 104.166 346.483 86.2727 348.529 73.9727 338.756 M 147.063 336.027 C 144.385 329.073 142.871 321.089 140.986 311.213 C 138.303 297.168 133.874 286.803 122.527 277.656 C 101.202 260.464 69.8821 264.18 52.8394 285.628 C 35.7968 307.073 39.3661 338.281 60.8088 355.323 L 119.949 402.217 C 126.773 379.409 135.765 357.197 147.063 336.027 M 362.503 515.048 L 205.8 390.801 C 192.85 407.392 181.243 424.741 170.98 442.684 L 340.303 576.951 L 381.193 525.386 C 373.943 522.73 367.691 519.165 362.503 515.048 M 534.245 472.238 C 482.414 517.012 439.39 531.366 407.461 530.311 L 394.144 547.105 C 394.251 547.197 394.349 547.29 394.456 547.378 C 397.267 549.757 400.16 551.402 402.565 551.342 C 405.54 551.269 406.56 550.501 408.717 548.989 C 410.675 547.545 413.896 544.861 418.808 544.881 C 418.891 544.881 419 544.881 419.18 544.886 C 424.108 545.014 427.368 547.659 429.519 549.235 C 431.833 550.921 432.982 551.675 435.07 551.702 C 435.162 551.702 435.261 551.702 435.412 551.694 C 437.904 551.522 438.881 550.774 440.958 549.118 C 442.888 547.545 445.72 544.782 450.442 544.014 C 451.165 543.902 451.878 543.839 452.594 543.839 C 456.157 543.85 458.721 545.314 460.422 546.155 C 462.212 547.05 463.193 547.489 464.849 547.506 C 465.393 547.506 466.032 547.449 466.821 547.282 C 468.076 547.006 468.612 546.67 469.172 546.214 C 469.724 545.749 470.297 545.014 471.048 543.905 C 472.49 541.774 474.888 537.967 479.898 535.983 C 482.1 535.09 484.276 534.749 486.217 534.757 C 490.904 534.858 494.054 536.222 496.12 536.11 C 497.094 536.095 497.868 535.965 498.942 535.438 C 501.029 534.345 501.592 533.205 502.901 530.501 C 504.076 527.983 505.93 523.845 510.63 521.405 C 513.436 519.924 516.274 519.564 518.589 519.574 C 521.013 519.59 522.974 519.878 524.398 519.866 C 526.165 519.812 526.797 519.684 527.985 518.714 C 529.958 516.97 530.745 515.05 531.794 512.156 C 532.816 509.378 534.05 505.486 537.753 502.384 C 541.428 499.358 545.466 498.602 548.56 497.892 C 551.748 497.212 553.969 496.566 555.346 495.34 C 556.672 494.228 557.472 492.381 558.428 489.452 C 559.396 486.624 560.48 482.796 563.748 479.478 C 567.005 476.26 570.778 475.101 573.695 473.998 C 576.693 472.921 578.771 471.965 579.971 470.536 C 581.234 469.137 582.053 466.736 582.881 463.545 C 583.745 460.421 584.607 456.55 587.321 452.949 C 590.078 449.41 593.627 447.47 596.594 445.626 C 599.611 443.826 602.002 442.156 603.053 440.525 C 604.141 438.989 604.799 436.15 605.346 432.673 C 605.95 429.22 606.445 425.17 608.729 421.274 C 611.075 417.432 614.401 415.108 617.151 412.949 C 619.958 410.829 622.159 408.902 623.029 407.17 C 623.955 405.52 624.313 402.621 624.499 399.102 C 624.739 395.609 624.818 391.532 626.698 387.425 C 628.649 383.357 631.726 380.709 634.255 378.284 C 636.838 375.895 638.843 373.761 639.539 371.952 C 640.075 370.699 640.302 368.879 640.294 366.629 C 640.297 364.661 640.135 362.42 640.13 360.019 C 640.138 357.495 640.297 354.749 641.289 351.941 C 642.849 347.707 645.665 344.764 647.953 342.113 C 650.301 339.489 652.095 337.177 652.615 335.316 C 652.866 334.516 652.994 333.519 652.994 332.327 C 653.035 329.141 651.959 324.872 651.913 320.12 C 651.913 318.559 652.046 316.917 652.47 315.235 C 653.566 311.028 655.863 307.765 657.853 304.833 C 659.879 301.919 661.618 299.319 662.282 297.149 C 663.301 293.971 663.663 290.979 663.663 288.032 C 663.675 286.664 663.579 285.313 663.446 283.967 C 638.221 354.536 594.999 419.752 534.245 472.238 M 678.541 232.172 C 676.391 241.627 673.918 251.014 671.161 260.328 C 671.129 261.696 670.975 263.14 670.65 264.697 C 670.481 265.54 670.394 266.463 670.394 267.492 C 670.311 272.36 672.603 279.407 672.661 288.032 C 672.661 291.719 672.197 295.721 670.853 299.895 C 669.538 303.917 667.215 307.061 665.27 309.928 C 663.282 312.777 661.702 315.327 661.194 317.448 C 661.001 318.195 660.91 319.087 660.91 320.12 C 660.869 323.303 661.943 327.572 661.991 332.327 C 661.991 334.12 661.809 336.027 661.218 337.953 C 659.837 342.336 657.033 345.363 654.71 348.052 C 652.327 350.719 650.394 353.068 649.766 354.961 C 649.315 356.208 649.122 357.939 649.13 360.019 C 649.125 361.987 649.286 364.228 649.291 366.629 C 649.283 369.355 649.099 372.356 647.859 375.383 C 646.073 379.619 642.987 382.373 640.419 384.835 C 637.791 387.264 635.651 389.421 634.846 391.24 C 633.953 393.046 633.665 396.084 633.477 399.653 C 633.226 403.2 633.089 407.314 630.977 411.389 C 628.778 415.438 625.441 417.886 622.635 420.08 C 619.783 422.236 617.433 424.17 616.45 425.889 C 615.37 427.616 614.774 430.61 614.219 434.142 C 613.605 437.648 613.039 441.722 610.51 445.553 C 607.893 449.361 604.299 451.436 601.271 453.314 C 598.19 455.15 595.635 456.812 594.469 458.408 C 593.198 460.025 592.411 462.626 591.57 465.878 C 590.69 469.066 589.734 472.965 586.766 476.434 C 583.659 479.976 579.791 481.317 576.791 482.444 C 573.701 483.545 571.409 484.486 570.119 485.832 C 568.739 487.178 567.941 489.293 566.961 492.293 C 565.977 495.192 564.774 499.058 561.22 502.157 C 557.612 505.217 553.6 505.962 550.508 506.673 C 547.326 507.353 545.029 507.998 543.513 509.298 C 542.026 510.52 541.324 512.212 540.253 515.217 C 539.217 518.098 537.748 522.145 533.906 525.489 C 530.89 528.202 527.16 528.918 524.398 528.861 C 522.054 528.845 520.144 528.555 518.589 528.571 C 517.076 528.579 516.008 528.757 514.816 529.374 C 512.938 530.397 512.37 531.561 511.034 534.35 C 509.836 536.949 507.8 541.123 502.969 543.486 C 500.633 544.662 498.226 545.115 496.12 545.105 C 491.548 544.995 488.524 543.65 486.217 543.751 C 485.237 543.759 484.357 543.889 483.274 544.322 C 481.441 545.102 480.698 545.91 479.605 547.355 C 478.537 548.757 477.422 550.954 475.013 553.053 C 473.412 554.441 471.224 555.574 468.66 556.093 C 467.324 556.369 466.053 556.503 464.849 556.503 C 461.086 556.522 458.214 555.129 456.37 554.189 C 454.438 553.199 453.586 552.834 452.594 552.837 C 452.386 552.837 452.133 552.853 451.846 552.899 C 450.133 553.173 449.013 554.102 446.693 556.047 C 444.516 557.91 440.938 560.506 435.844 560.683 C 435.6 560.694 435.341 560.702 435.07 560.702 C 429.983 560.727 426.425 558.157 424.177 556.475 C 421.761 554.683 420.605 553.918 418.993 553.881 C 418.953 553.881 418.888 553.877 418.808 553.881 C 417.196 553.899 416.485 554.446 414.045 556.235 C 411.803 557.946 407.964 560.413 402.565 560.339 C 398.327 560.331 394.779 558.637 391.972 556.762 C 390.715 555.921 389.587 555.025 388.553 554.157 L 359.237 591.126 C 404.715 621.653 484.438 611.366 557.797 551.847 C 655.347 472.702 691.634 348.013 678.541 232.172 M 390.491 528.142 L 347.352 582.543 L 349.855 584.527 C 350.511 585.025 351.169 585.509 351.829 585.993 L 396.759 529.334 C 394.608 529.006 392.519 528.607 390.491 528.142 M 707.936 481.91 C 705.344 485.176 700.595 485.717 697.331 483.124 C 694.069 480.53 693.525 475.78 696.118 472.517 C 698.712 469.254 703.459 468.712 706.724 471.304 C 709.988 473.9 710.53 478.648 707.936 481.91 M 714.126 461.99 C 705.719 455.312 693.486 456.71 686.803 465.116 C 680.121 473.528 681.522 485.757 689.931 492.438 C 698.339 499.121 710.568 497.722 717.251 489.314 C 723.934 480.905 722.535 468.67 714.126 461.99 M 431.193 278.655 L 587.898 402.9 C 600.849 386.308 612.453 368.961 622.717 351.017 L 453.393 216.751 L 412.505 268.313 C 419.753 270.971 426.005 274.537 431.193 278.655 M 724.298 494.916 C 714.524 507.214 696.631 509.262 684.331 499.486 C 672.03 489.714 669.983 471.822 679.757 459.517 C 689.533 447.22 707.428 445.17 719.724 454.946 C 732.027 464.717 734.074 482.616 724.298 494.916 M 732.888 438.377 L 673.749 391.484 C 666.926 414.293 657.937 436.504 646.633 457.676 C 649.315 464.629 650.827 472.613 652.713 482.489 C 655.394 496.533 659.825 506.9 671.17 516.045 C 692.498 533.238 723.816 529.522 740.858 508.072 C 757.902 486.626 754.334 455.418 732.888 438.377 M 128.431 483.774 C 130.415 480.924 131.999 478.374 132.503 476.254 C 132.697 475.509 132.79 474.616 132.79 473.58 C 132.833 470.4 131.754 466.129 131.707 461.374 C 131.707 459.582 131.889 457.673 132.481 455.746 C 133.863 451.364 136.666 448.34 138.991 445.65 C 141.371 442.984 143.303 440.632 143.934 438.738 C 144.385 437.493 144.577 435.762 144.569 433.681 C 144.571 431.714 144.41 429.473 144.405 427.072 C 144.415 424.348 144.601 421.345 145.837 418.32 C 147.626 414.082 150.713 411.326 153.277 408.866 C 155.905 406.438 158.049 404.28 158.85 402.46 C 159.743 400.653 160.033 397.618 160.221 394.049 C 160.47 390.502 160.609 386.385 162.721 382.313 C 164.918 378.264 168.256 375.816 171.06 373.62 C 173.915 371.465 176.264 369.529 177.246 367.811 C 178.327 366.087 178.923 363.091 179.478 359.56 C 180.092 356.055 180.658 351.979 183.186 348.147 C 185.806 344.341 189.396 342.265 192.426 340.387 C 195.506 338.552 198.06 336.891 199.227 335.295 C 200.5 333.675 201.284 331.075 202.126 327.823 C 203.008 324.636 203.962 320.737 206.931 317.268 C 210.04 313.725 213.907 312.383 216.907 311.256 C 219.996 310.156 222.287 309.216 223.576 307.871 C 224.956 306.524 225.759 304.409 226.735 301.407 C 227.72 298.511 228.923 294.641 232.478 291.545 C 236.087 288.483 240.098 287.74 243.188 287.029 C 246.374 286.347 248.67 285.701 250.183 284.404 C 251.67 283.181 252.374 281.489 253.443 278.485 C 254.48 275.604 255.951 271.557 259.79 268.213 C 262.806 265.497 266.538 264.781 269.3 264.84 C 271.642 264.855 273.554 265.144 275.108 265.128 C 276.62 265.121 277.691 264.944 278.882 264.328 C 280.759 263.305 281.33 262.14 282.663 259.352 C 283.86 256.751 285.899 252.576 290.73 250.215 C 293.066 249.039 295.47 248.584 297.576 248.598 C 302.152 248.707 305.175 250.052 307.483 249.948 C 308.459 249.943 309.341 249.811 310.425 249.38 C 312.256 248.6 312.999 247.792 314.092 246.346 C 315.163 244.946 316.276 242.748 318.685 240.65 C 320.284 239.26 322.475 238.128 325.04 237.61 C 326.376 237.332 327.644 237.198 328.847 237.198 C 332.609 237.178 335.483 238.571 337.327 239.514 C 339.261 240.502 340.109 240.868 341.105 240.863 C 341.311 240.863 341.565 240.848 341.849 240.803 C 343.565 240.53 344.685 239.598 347.003 237.652 C 349.18 235.792 352.759 233.194 357.852 233.019 C 358.1 233.008 358.357 233 358.625 233 C 363.715 232.974 367.272 235.543 369.519 237.224 C 371.936 239.016 373.092 239.783 374.707 239.822 C 374.743 239.822 374.808 239.824 374.888 239.822 C 376.5 239.803 377.212 239.256 379.652 237.467 C 381.893 235.756 385.732 233.29 391.131 233.363 C 395.371 233.37 398.917 235.066 401.724 236.939 C 402.983 237.782 404.112 238.676 405.147 239.544 L 434.458 202.576 C 388.985 172.048 309.259 182.336 235.902 241.855 C 138.35 320.999 102.066 445.686 115.161 561.53 C 117.309 552.074 119.779 542.689 122.538 533.374 C 122.569 532.006 122.722 530.561 123.049 529.003 C 123.218 528.159 123.303 527.238 123.303 526.21 C 123.387 521.339 121.095 514.296 121.038 505.67 C 121.038 501.984 121.503 497.981 122.845 493.806 C 124.161 489.785 126.483 486.64 128.431 483.774 M 259.454 321.463 C 311.281 276.688 354.305 262.336 386.235 263.391 L 399.553 246.596 C 399.445 246.506 399.347 246.412 399.24 246.323 C 396.431 243.946 393.537 242.299 391.131 242.36 C 388.157 242.434 387.139 243.199 384.98 244.714 C 383.021 246.156 379.8 248.842 374.888 248.819 C 374.805 248.819 374.696 248.819 374.516 248.816 C 369.589 248.688 366.332 246.043 364.18 244.464 C 361.865 242.779 360.715 242.026 358.625 241.998 C 358.537 241.998 358.436 241.998 358.287 242.006 C 355.795 242.18 354.816 242.926 352.74 244.583 C 350.808 246.156 347.977 248.92 343.253 249.688 C 342.535 249.799 341.819 249.862 341.105 249.862 C 337.54 249.854 334.975 248.388 333.275 247.546 C 331.488 246.652 330.505 246.214 328.847 246.196 C 328.305 246.196 327.667 246.254 326.879 246.419 C 325.62 246.696 325.084 247.03 324.524 247.488 C 323.975 247.952 323.401 248.688 322.652 249.795 C 321.209 251.927 318.808 255.735 313.797 257.719 C 311.597 258.612 309.423 258.951 307.483 258.943 C 302.792 258.843 299.641 257.477 297.576 257.589 C 296.606 257.604 295.832 257.735 294.754 258.261 C 292.67 259.357 292.108 260.497 290.795 263.199 C 289.623 265.717 287.77 269.857 283.066 272.295 C 280.264 273.776 277.423 274.137 275.108 274.127 C 272.683 274.112 270.722 273.823 269.3 273.836 C 267.532 273.891 266.899 274.019 265.715 274.985 C 263.738 276.731 262.951 278.652 261.902 281.547 C 260.884 284.323 259.647 288.216 255.943 291.319 C 252.27 294.344 248.23 295.1 245.139 295.811 C 241.948 296.488 239.73 297.133 238.352 298.361 C 237.027 299.473 236.224 301.32 235.272 304.251 C 234.303 307.079 233.218 310.907 229.951 314.221 C 226.691 317.44 222.92 318.601 220.003 319.704 C 217.003 320.779 214.926 321.737 213.724 323.165 C 212.462 324.565 211.644 326.965 210.816 330.156 C 209.951 333.281 209.09 337.149 206.379 340.753 C 203.62 344.291 200.068 346.231 197.103 348.073 C 194.084 349.873 191.694 351.547 190.644 353.177 C 189.555 354.712 188.896 357.551 188.352 361.029 C 187.748 364.48 187.251 368.529 184.967 372.427 C 182.62 376.268 179.298 378.593 176.546 380.752 C 173.738 382.871 171.538 384.799 170.667 386.529 C 169.74 388.182 169.384 391.08 169.199 394.6 C 168.956 398.092 168.879 402.168 166.999 406.277 C 165.048 410.345 161.97 412.993 159.443 415.418 C 156.858 417.806 154.855 419.938 154.158 421.749 C 153.623 423.004 153.397 424.822 153.405 427.072 C 153.399 429.041 153.561 431.28 153.566 433.681 C 153.558 436.208 153.399 438.952 152.407 441.76 C 150.85 445.996 148.035 448.938 145.746 451.588 C 143.399 454.21 141.603 456.525 141.085 458.384 C 140.834 459.186 140.707 460.184 140.707 461.374 C 140.663 464.558 141.741 468.829 141.785 473.58 C 141.785 475.142 141.653 476.782 141.23 478.465 C 140.134 482.673 137.837 485.936 135.847 488.869 C 133.819 491.782 132.082 494.381 131.415 496.553 C 130.397 499.73 130.035 502.722 130.035 505.67 C 130.025 507.038 130.118 508.389 130.251 509.736 C 155.475 439.165 198.696 373.949 259.454 321.463 M 403.207 265.56 L 446.344 211.159 L 443.841 209.175 C 443.185 208.678 442.526 208.194 441.868 207.708 L 396.939 264.368 C 399.089 264.695 401.18 265.095 403.207 265.56"
     style="fill:#000000;fill-opacity:1;fill-rule:nonzero;stroke:none"
     id="path42732" />
</svg>
