<?xml version="1.0" encoding="UTF-8" standalone="no"?>
<!-- Created with Inkscape (http://www.inkscape.org/) -->

<svg
   version="1.1"
   id="svg39495"
   width="795.03467"
   height="793.70135"
   viewBox="0 0 795.03467 793.70135"
   sodipodi:docname="Mitsu Kama.svg"
   inkscape:version="1.2 (dc2aeda, 2022-05-15)"
   xmlns:inkscape="http://www.inkscape.org/namespaces/inkscape"
   xmlns:sodipodi="http://sodipodi.sourceforge.net/DTD/sodipodi-0.dtd"
   xmlns="http://www.w3.org/2000/svg"
   xmlns:svg="http://www.w3.org/2000/svg">
  <defs
     id="defs39499">
    <clipPath
       clipPathUnits="userSpaceOnUse"
       id="clipPath39988">
      <path
         d="M -542.9326,584.5729 H 53.343399 V -10.7031 H -542.9326 Z"
         id="path39990"
         style="stroke-width:0.999998" />
    </clipPath>
    <clipPath
       clipPathUnits="userSpaceOnUse"
       id="clipPath39994">
      <path
         d="M -545.417,584.5729 H 50.859001 V -10.7031 H -545.417 Z"
         id="path39996"
         style="stroke-width:0.999998" />
    </clipPath>
    <clipPath
       clipPathUnits="userSpaceOnUse"
       id="clipPath40000">
      <path
         d="M -557.0645,585.8483 H 39.211501 V -9.4277027 H -557.0645 Z"
         id="path40002"
         style="stroke-width:0.999998" />
    </clipPath>
    <clipPath
       clipPathUnits="userSpaceOnUse"
       id="clipPath40006">
      <path
         d="M -561.4131,585.8522 H 34.862903 V -9.4238027 H -561.4131 Z"
         id="path40008"
         style="stroke-width:0.999998" />
    </clipPath>
    <clipPath
       clipPathUnits="userSpaceOnUse"
       id="clipPath40012">
      <path
         d="M -553.8975,585.8483 H 42.378504 V -9.4277027 H -553.8975 Z"
         id="path40014"
         style="stroke-width:0.999998" />
    </clipPath>
    <clipPath
       clipPathUnits="userSpaceOnUse"
       id="clipPath40018">
      <path
         d="M -531.1924,581.5885 H 65.083599 V -13.6875 H -531.1924 Z"
         id="path40020"
         style="stroke-width:0.999998" />
    </clipPath>
    <clipPath
       clipPathUnits="userSpaceOnUse"
       id="clipPath40024">
      <path
         d="M -548.9834,585.8522 H 47.292601 V -9.4238027 H -548.9834 Z"
         id="path40026"
         style="stroke-width:0.999998" />
    </clipPath>
    <clipPath
       clipPathUnits="userSpaceOnUse"
       id="clipPath40030">
      <path
         d="M -528.0898,575.3815 H 68.186199 V -19.8945 H -528.0898 Z"
         id="path40032"
         style="stroke-width:0.999998" />
    </clipPath>
    <clipPath
       clipPathUnits="userSpaceOnUse"
       id="clipPath40036">
      <path
         d="M -567.7754,585.8522 H 28.500601 V -9.4238027 H -567.7754 Z"
         id="path40038"
         style="stroke-width:0.999998" />
    </clipPath>
    <clipPath
       clipPathUnits="userSpaceOnUse"
       id="clipPath40042">
      <path
         d="M -564.5732,585.8483 H 31.702801 V -9.4277027 H -564.5732 Z"
         id="path40044"
         style="stroke-width:0.999998" />
    </clipPath>
    <clipPath
       clipPathUnits="userSpaceOnUse"
       id="clipPath40049">
      <path
         d="M -584.1943,578.9381 H 12.081705 V -16.337903 H -584.1943 Z"
         id="path40051"
         style="stroke-width:0.999998" />
    </clipPath>
    <clipPath
       clipPathUnits="userSpaceOnUse"
       id="clipPath40055">
      <path
         d="M -572.8174,586.1354 H 23.458606 V -9.1406027 H -572.8174 Z"
         id="path40057"
         style="stroke-width:0.999998" />
    </clipPath>
    <clipPath
       clipPathUnits="userSpaceOnUse"
       id="clipPath40061">
      <path
         d="M -568.2266,575.819 H 28.049401 V -19.457003 H -568.2266 Z"
         id="path40063"
         style="stroke-width:0.999998" />
    </clipPath>
    <clipPath
       clipPathUnits="userSpaceOnUse"
       id="clipPath40067">
      <path
         d="M -550.2637,577.3248 H 46.012306 V -17.951198 H -550.2637 Z"
         id="path40069"
         style="stroke-width:0.999998" />
    </clipPath>
    <clipPath
       clipPathUnits="userSpaceOnUse"
       id="clipPath40073">
      <path
         d="M -557.4951,577.8502 H 38.780903 V -17.4258 H -557.4951 Z"
         id="path40075"
         style="stroke-width:0.999998" />
    </clipPath>
    <clipPath
       clipPathUnits="userSpaceOnUse"
       id="clipPath40080">
      <path
         d="M -576.3691,585.5885 H 19.906905 V -9.6875027 H -576.3691 Z"
         id="path40082"
         style="stroke-width:0.999998" />
    </clipPath>
    <clipPath
       clipPathUnits="userSpaceOnUse"
       id="clipPath40086">
      <path
         d="M -586.5449,579.5026 H 9.7311002 V -15.7734 H -586.5449 Z"
         id="path40088"
         style="stroke-width:0.999998" />
    </clipPath>
    <clipPath
       clipPathUnits="userSpaceOnUse"
       id="clipPath40092">
      <path
         d="M -556.4014,578.0143 H 39.874606 V -17.2617 H -556.4014 Z"
         id="path40094"
         style="stroke-width:0.999998" />
    </clipPath>
    <clipPath
       clipPathUnits="userSpaceOnUse"
       id="clipPath40098">
      <path
         d="M -538.2217,577.9479 H 58.054299 V -17.328098 H -538.2217 Z"
         id="path40100"
         style="stroke-width:0.999998" />
    </clipPath>
    <clipPath
       clipPathUnits="userSpaceOnUse"
       id="clipPath40104">
      <path
         d="m -215.7505,438.191 h 596.276 v -595.276 h -596.276 z"
         id="path40106"
         style="stroke-width:0.999998" />
    </clipPath>
    <clipPath
       clipPathUnits="userSpaceOnUse"
       id="clipPath40110">
      <path
         d="M -574.5459,585.8522 H 21.730103 V -9.4238027 H -574.5459 Z"
         id="path40112"
         style="stroke-width:0.999998" />
    </clipPath>
    <clipPath
       clipPathUnits="userSpaceOnUse"
       id="clipPath40116">
      <path
         d="M -536.6982,584.5729 H 59.577804 V -10.7031 H -536.6982 Z"
         id="path40118"
         style="stroke-width:0.999998" />
    </clipPath>
    <clipPath
       clipPathUnits="userSpaceOnUse"
       id="clipPath40122">
      <path
         d="M -540.8213,585.8483 H 55.454701 V -9.4277027 H -540.8213 Z"
         id="path40124"
         style="stroke-width:0.999998" />
    </clipPath>
  </defs>
  <sodipodi:namedview
     id="namedview39497"
     pagecolor="#ffffff"
     bordercolor="#000000"
     borderopacity="0.25"
     inkscape:showpageshadow="2"
     inkscape:pageopacity="0.0"
     inkscape:pagecheckerboard="0"
     inkscape:deskcolor="#d1d1d1"
     showgrid="false"
     inkscape:zoom="0.29734106"
     inkscape:cx="-215.24105"
     inkscape:cy="396.85068"
     inkscape:window-width="1419"
     inkscape:window-height="456"
     inkscape:window-x="0"
     inkscape:window-y="25"
     inkscape:window-maximized="0"
     inkscape:current-layer="svg39495">
    <inkscape:page
       x="0"
       y="0"
       id="page39501"
       width="795.03467"
       height="793.70135" />
  </sodipodi:namedview>
  <path
     d="M 287.667 584.255 C 272.536 571.875 258.6 557.047 245.686 539.728 C 245.7 540.104 245.731 540.474 245.787 540.826 C 246.182 543.619 247.826 546.61 250.071 549.911 C 252.278 553.219 255.016 556.736 256.858 561.055 C 258.64 565.336 259.227 569.708 260.047 573.588 C 260.846 577.492 261.85 580.782 263.636 583.102 C 264.832 584.682 266.74 586.115 269.202 587.528 C 271.668 588.958 274.631 590.336 277.634 592.07 C 279.476 593.132 281.344 594.339 283.087 595.818 C 286.59 598.807 288.964 602.484 291.36 605.692 C 293.722 608.908 296.034 611.612 298.688 613.167 C 298.711 613.176 298.754 613.2 298.81 613.231 C 301.05 614.558 304.468 615.219 308.524 615.75 C 309.899 615.94 312.784 616.331 315.118 616.684 L 315.118 608.558 C 302.778 602.331 293.839 594.036 287.667 584.255 M 323.683 692.989 L 339.172 692.989 L 339.172 615.052 C 333.895 612.888 328.734 610.507 323.683 607.914 Z M 294.604 620.695 C 294.595 620.69 294.551 620.67 294.451 620.612 C 289.978 617.982 287.016 614.203 284.47 610.783 C 281.951 607.339 279.768 604.198 277.552 602.359 C 276.355 601.34 274.924 600.395 273.35 599.487 C 270.784 597.998 267.839 596.63 264.916 594.95 C 262.042 593.276 259.112 591.282 256.823 588.294 C 253.703 584.171 252.548 579.528 251.662 575.334 C 250.802 571.115 250.18 567.219 248.967 564.394 C 247.738 561.446 245.378 558.25 242.964 554.698 C 240.586 551.138 238.083 547.124 237.312 542.08 C 236.694 537.742 237.551 533.755 238.574 530.091 C 234.112 523.992 226.74 513.687 221.84 505.677 C 228.552 509.367 235.126 513.007 241.763 516.599 C 241.836 513.763 241.195 510.277 240.575 506.43 C 239.927 502.227 239.303 497.513 240.562 492.529 C 241.13 490.357 242.034 488.403 243.067 486.61 C 245.979 481.643 249.815 477.654 252.052 473.709 C 252.527 472.886 252.935 472.078 253.266 471.266 C 254.402 468.591 254.842 464.823 255.363 460.625 C 255.92 456.441 256.575 451.763 259.019 447.31 L 259.068 447.222 L 259.11 447.157 C 259.11 447.157 259.136 447.113 259.219 446.958 C 261.632 442.818 264.995 439.87 267.956 437.177 C 270.918 434.526 273.487 432.117 274.862 429.729 L 274.86 429.729 L 274.896 429.667 L 274.934 429.599 C 276.372 427.117 277.184 423.654 277.991 419.777 C 278.828 415.911 279.651 411.63 281.962 407.586 C 282.104 407.337 282.258 407.081 282.43 406.81 C 285.083 402.687 288.755 399.985 292.06 397.531 C 295.391 395.097 298.391 392.886 300.196 390.495 C 300.618 389.95 301.012 389.351 301.399 388.682 C 303.631 384.922 305.039 379.274 308.086 373.898 C 309.039 372.248 310.178 370.616 311.615 369.125 C 315.006 365.66 319.138 363.852 322.904 362.172 C 326.696 360.524 330.192 359.008 332.639 357.005 C 334.748 355.321 336.5 352.602 338.498 349.313 C 340.508 346.058 342.782 342.253 346.539 339.058 C 350.766 335.482 355.229 334.605 358.421 333.782 C 361.732 332.909 363.7 332.305 365.944 329.834 C 368.897 326.496 372.373 323.286 377.06 321.206 C 381.744 319.117 387.449 318.297 394.424 319.13 C 395.047 319.204 395.685 319.286 396.325 319.37 C 403.333 314.174 410.975 309.045 419.449 303.878 C 341.92 311.625 288.131 346.558 248.068 414.209 C 192.579 507.909 178.93 654.26 315.116 677.075 L 315.118 625.503 C 312.598 625.042 309.17 624.476 307.36 624.236 C 303.24 623.651 298.79 623.055 294.604 620.695 M 372.361 335.513 C 368.585 339.841 363.976 341.24 360.533 342.084 C 356.981 342.977 354.533 343.534 352.071 345.605 C 349.636 347.649 347.796 350.518 345.803 353.789 C 343.798 357.026 341.659 360.696 338.031 363.662 C 334.238 366.709 330.011 368.386 326.348 370.016 C 322.656 371.617 319.584 373.168 317.778 375.078 C 316.943 375.949 316.196 376.98 315.503 378.182 C 313.196 382.07 311.806 387.685 308.818 392.966 C 308.279 393.901 307.672 394.831 306.988 395.717 C 304.06 399.501 300.364 402.031 297.14 404.425 C 293.887 406.805 291.148 409.021 289.656 411.414 C 289.568 411.55 289.476 411.701 289.38 411.87 C 287.982 414.245 287.178 417.667 286.371 421.553 C 285.536 425.411 284.695 429.727 282.388 433.826 C 282.37 433.859 282.347 433.901 282.318 433.95 C 279.962 437.995 276.643 440.857 273.694 443.542 C 270.716 446.203 268.1 448.677 266.639 451.242 C 266.624 451.269 266.576 451.357 266.492 451.503 C 265.018 454.151 264.362 457.701 263.86 461.722 C 263.324 465.745 262.962 470.179 261.183 474.539 C 260.686 475.753 260.1 476.901 259.472 477.993 C 256.468 483.119 252.596 487.159 250.488 490.894 C 249.722 492.227 249.167 493.474 248.855 494.671 C 248.091 497.583 248.391 501.117 249.036 505.097 C 249.643 509.062 250.587 513.383 250.271 518.026 C 250.194 519.02 250.058 519.99 249.894 520.943 C 258.383 525.422 267.123 529.815 276.512 534.119 C 278.472 493.117 299.64 445.261 320.878 408.479 C 340.842 373.898 358.845 349.949 385.833 327.586 C 383.787 327.854 382.064 328.365 380.536 329.037 C 377.427 330.42 374.933 332.61 372.361 335.513 M 695.427 636.878 C 690.897 644.722 680.865 647.411 673.018 642.88 C 665.173 638.351 662.485 628.318 667.014 620.471 C 671.543 612.627 681.577 609.94 689.423 614.468 C 697.269 618.998 699.955 629.031 695.427 636.878 M 701.286 593.914 C 682.093 582.834 657.549 589.408 646.467 608.604 C 639.833 620.091 635.139 621.192 621.698 620.695 L 516.622 620.695 C 488.518 628.659 458.772 632.408 430.516 632.102 C 402.995 631.81 377.765 628.104 354.617 620.695 L 347.743 620.698 L 347.743 678.489 L 643.514 678.489 C 678.738 680.184 701.803 679.719 715.974 648.731 C 725.194 628.578 720.479 604.995 701.286 593.914 M 126.519 642.883 C 118.673 647.411 108.639 644.724 104.11 636.88 C 99.5808 629.034 102.269 619 110.114 614.468 C 117.959 609.943 127.993 612.63 132.525 620.474 C 137.053 628.32 134.363 638.354 126.519 642.883 M 207.526 490.119 C 214.681 461.797 226.307 434.165 240.699 409.846 C 254.714 386.159 270.538 366.162 288.528 349.818 L 291.966 343.862 L 241.916 314.966 L 94.0288 571.115 C 74.9489 600.774 63.8209 620.982 83.5688 648.744 C 96.4128 666.804 119.194 674.515 138.389 663.435 C 157.581 652.351 164.157 627.807 153.075 608.615 C 146.442 597.124 147.837 592.512 154.987 581.116 Z M 315.066 329.42 L 241.388 286.88 L 233.643 300.294 L 301.139 339.264 C 305.651 335.777 310.295 332.498 315.066 329.42 M 402.103 294.67 C 398.136 294.93 393.719 295.54 389.057 294.977 C 384.46 294.381 380.38 292.701 376.609 291.472 C 372.828 290.212 369.479 289.436 366.579 289.824 C 364.611 290.07 362.417 291.005 359.96 292.43 C 357.489 293.852 354.812 295.728 351.812 297.461 C 349.97 298.526 347.991 299.54 345.839 300.31 C 341.498 301.849 337.128 302.068 333.15 302.54 C 329.184 302.977 325.687 303.625 323.015 305.146 C 322.992 305.16 322.951 305.188 322.896 305.22 C 320.628 306.496 318.347 309.128 315.86 312.373 C 315.006 313.469 313.227 315.772 311.752 317.616 L 318.792 321.68 C 330.352 314.108 342.006 310.513 353.563 310.058 C 371.849 303.146 391.657 298.49 413.112 295.961 C 412.779 295.789 412.445 295.63 412.111 295.504 C 409.496 294.449 406.084 294.378 402.103 294.67 M 309.091 307.12 C 311.656 303.846 314.399 300.289 318.534 297.846 C 318.544 297.841 318.584 297.813 318.684 297.756 C 323.199 295.196 327.952 294.521 332.186 294.026 C 336.43 293.565 340.24 293.245 342.942 292.248 C 344.423 291.72 345.956 290.95 347.528 290.042 C 350.102 288.565 352.759 286.7 355.675 285.008 C 358.56 283.354 361.752 281.814 365.487 281.328 C 370.617 280.685 375.215 282.008 379.292 283.338 C 383.375 284.701 387.057 286.11 390.115 286.474 C 393.281 286.882 397.229 286.437 401.509 286.122 C 405.781 285.844 410.509 285.684 415.263 287.536 C 419.331 289.172 422.353 291.906 425.016 294.625 C 432.528 293.81 445.137 292.578 454.524 292.338 C 447.972 296.308 441.533 300.177 435.107 304.13 C 437.525 305.616 440.865 306.802 444.505 308.188 C 448.469 309.728 452.865 311.545 456.551 315.125 C 458.148 316.704 459.389 318.466 460.425 320.256 C 463.268 325.261 464.807 330.578 467.107 334.49 C 467.58 335.31 468.076 336.068 468.612 336.761 C 470.363 339.081 473.405 341.346 476.78 343.898 C 480.124 346.472 483.848 349.378 486.483 353.722 L 486.535 353.808 L 486.571 353.876 C 486.571 353.876 486.597 353.92 486.687 354.07 C 489.066 358.229 489.938 362.616 490.789 366.526 C 491.604 370.417 492.405 373.846 493.785 376.232 L 493.788 376.229 L 493.825 376.292 L 493.862 376.36 C 495.293 378.846 497.888 381.28 500.842 383.917 C 503.772 386.575 507.065 389.43 509.413 393.45 C 509.557 393.698 509.704 393.961 509.852 394.245 C 512.096 398.605 512.598 403.135 513.073 407.225 C 513.516 411.326 513.93 415.031 515.098 417.789 C 515.358 418.425 515.68 419.065 516.065 419.734 C 518.208 423.55 522.392 427.594 525.525 432.919 C 526.478 434.57 527.324 436.373 527.894 438.362 C 529.201 443.031 528.7 447.513 528.272 451.615 C 527.802 455.725 527.369 459.51 527.88 462.627 C 528.282 465.299 529.761 468.174 531.612 471.55 C 533.426 474.919 535.584 478.789 536.47 483.643 C 537.454 489.089 535.985 493.394 535.101 496.57 C 534.201 499.875 533.74 501.881 534.758 505.061 C 536.172 509.286 537.214 513.901 536.67 519 C 536.138 524.099 533.997 529.45 529.788 535.075 C 529.413 535.578 529.022 536.088 528.628 536.602 C 529.622 545.268 530.248 554.452 530.484 564.375 C 562.538 493.359 559.181 429.31 520.625 360.789 C 467.223 265.881 347.306 180.888 259.454 287.42 L 304.118 313.206 C 305.776 311.256 307.976 308.57 309.091 307.12 M 519.66 440.725 C 519.324 439.565 518.801 438.403 518.108 437.203 C 515.893 433.261 511.725 429.25 508.646 424.018 C 508.108 423.083 507.606 422.097 507.178 421.061 C 505.366 416.633 505.022 412.167 504.561 408.177 C 504.128 404.17 503.576 400.69 502.252 398.201 C 502.177 398.058 502.092 397.903 501.994 397.734 C 500.636 395.337 498.074 392.927 495.113 390.286 C 492.189 387.635 488.873 384.75 486.477 380.701 C 486.456 380.668 486.431 380.625 486.403 380.578 C 484.08 376.513 483.259 372.212 482.409 368.313 C 481.592 364.404 480.759 360.901 479.268 358.354 C 479.252 358.329 479.199 358.242 479.115 358.097 C 477.559 355.496 474.813 353.154 471.583 350.709 C 468.367 348.232 464.705 345.701 461.821 341.98 C 461.019 340.944 460.317 339.862 459.687 338.774 C 456.748 333.608 455.183 328.234 453.003 324.542 C 452.235 323.212 451.429 322.108 450.551 321.237 C 448.409 319.12 445.199 317.616 441.428 316.182 C 437.692 314.725 433.479 313.384 429.615 310.786 C 428.792 310.222 428.02 309.62 427.277 309.004 C 419.155 314.116 410.98 319.488 402.557 325.466 C 437.087 347.662 467.945 389.925 489.181 426.706 C 509.148 461.286 520.889 488.854 526.76 523.406 C 527.55 521.5 527.97 519.752 528.15 518.094 C 528.509 514.711 527.86 511.455 526.63 507.779 C 524.77 502.343 525.865 497.651 526.854 494.25 C 527.856 490.727 528.598 488.329 528.036 485.159 C 527.482 482.029 525.918 479.001 524.082 475.638 C 522.28 472.282 520.173 468.594 519.418 463.971 C 518.674 459.162 519.336 454.665 519.758 450.677 C 520.217 446.679 520.409 443.245 519.66 440.725 M 286.711 547.542 C 287.967 549.179 289.27 550.416 290.616 551.403 C 293.367 553.406 296.511 554.471 300.311 555.244 C 305.947 556.351 309.464 559.646 311.916 562.203 C 314.467 564.834 316.172 566.674 319.198 567.774 C 322.186 568.859 325.59 569.018 329.418 569.11 C 333.226 569.227 337.472 569.244 341.855 570.903 C 346.391 572.664 349.956 575.484 353.198 577.843 C 356.432 580.239 359.309 582.124 361.867 582.734 C 363.037 583.023 364.305 583.151 365.693 583.151 C 370.213 583.206 375.771 581.602 381.84 581.55 C 382.919 581.55 384.027 581.61 385.137 581.758 C 389.877 582.403 393.917 584.339 397.601 585.932 C 401.288 587.562 404.577 588.823 407.395 588.922 C 407.557 588.93 407.733 588.932 407.929 588.932 C 410.685 588.955 414.052 587.94 417.819 586.698 C 421.577 585.49 425.735 584.06 430.439 584.01 C 430.479 584.01 430.527 584.007 430.583 584.007 C 435.263 584.026 439.4 585.468 443.201 586.682 C 446.996 587.927 450.444 588.958 453.396 588.94 C 453.428 588.94 453.528 588.938 453.695 588.938 C 456.727 588.891 460.128 587.682 463.861 586.107 C 467.612 584.56 471.637 582.656 476.3 582.015 C 477.601 581.84 478.887 581.774 480.145 581.771 C 486.088 581.81 491.522 583.14 495.812 583.102 C 497.348 583.102 498.706 582.952 499.898 582.627 C 502.802 581.831 505.713 579.804 508.838 577.255 C 511.969 574.75 515.237 571.771 519.417 569.724 C 520.318 569.291 521.225 568.924 522.132 568.591 C 521.766 559 521.201 549.234 520.233 538.952 C 483.745 557.755 431.717 563.348 389.245 563.348 C 349.315 563.348 319.571 559.734 286.711 547.542 M 430.609 623.539 C 539.502 624.744 673.069 563.388 624.734 434.042 L 580.07 459.829 C 580.93 462.239 582.157 465.49 582.853 467.179 C 584.405 471.039 586.114 475.19 586.165 479.995 L 586.166 479.995 C 586.166 480.005 586.169 480.055 586.169 480.17 C 586.126 485.359 584.336 489.813 582.649 493.727 C 580.924 497.633 579.296 501.091 578.81 503.933 C 578.526 505.479 578.425 507.187 578.425 509.005 C 578.418 511.971 578.706 515.209 578.713 518.578 C 578.702 521.903 578.438 525.438 576.994 528.916 C 574.985 533.679 571.541 537 568.35 539.864 C 565.126 542.722 562.065 545.206 560.224 547.671 C 558.285 550.206 556.698 553.848 554.83 557.716 C 552.936 561.555 550.71 565.728 546.728 568.916 C 543.278 571.624 539.4 572.875 535.713 573.823 C 532.662 580.734 527.426 592.271 522.94 600.52 C 522.777 592.859 522.645 585.348 522.436 577.807 C 519.942 579.162 517.241 581.458 514.222 583.919 C 510.906 586.58 507.136 589.479 502.192 590.88 C 500.026 591.474 497.881 591.67 495.812 591.672 C 490.056 591.63 484.681 590.304 480.145 590.339 C 479.197 590.339 478.293 590.391 477.425 590.51 C 474.541 590.864 471.056 592.364 467.16 594.012 C 463.259 595.622 458.881 597.395 453.803 597.506 L 453.7 597.507 L 453.623 597.506 C 453.623 597.506 453.572 597.506 453.396 597.507 C 448.605 597.49 444.371 596.05 440.557 594.834 C 436.781 593.591 433.411 592.572 430.656 592.575 L 430.656 592.578 L 430.583 592.578 L 430.505 592.578 C 427.637 592.572 424.232 593.602 420.469 594.84 C 416.705 596.05 412.585 597.476 407.929 597.5 C 407.641 597.5 407.341 597.495 407.023 597.482 C 402.125 597.244 397.949 595.414 394.172 593.782 C 390.397 592.115 386.981 590.619 384.009 590.252 C 383.329 590.159 382.612 590.116 381.84 590.116 C 377.467 590.064 371.872 591.67 365.693 591.716 C 363.787 591.716 361.803 591.547 359.795 591.047 C 355.097 589.846 351.467 587.17 348.13 584.747 C 344.806 582.286 341.743 580.018 338.788 578.9 C 336.272 577.916 333.043 577.758 329.195 577.674 C 325.37 577.56 320.938 577.492 316.295 575.836 C 311.084 573.963 308.09 570.536 305.782 568.184 C 303.371 565.752 301.864 564.351 298.602 563.643 C 294.235 562.755 289.716 561.348 285.574 558.328 C 281.422 555.32 277.858 550.788 275.092 544.331 C 274.844 543.755 274.596 543.162 274.35 542.562 C 266.347 539.091 258.082 535.042 249.37 530.283 C 294.844 593.552 351.992 622.67 430.609 623.539 M 399.768 124.781 C 408.827 124.781 416.171 132.125 416.171 141.185 C 416.171 150.245 408.827 157.589 399.768 157.589 C 390.708 157.589 383.361 150.245 383.361 141.185 C 383.361 132.125 390.708 124.781 399.768 124.781 M 399.763 181.317 C 413.028 181.317 416.325 184.833 422.617 196.724 L 475.156 287.721 C 496.106 308.078 514.224 331.966 528.088 356.586 C 541.594 380.568 551 404.271 556.16 428.023 L 559.597 433.977 L 609.646 405.081 L 461.76 148.932 C 445.615 117.582 433.679 97.8389 399.763 101.058 C 377.697 103.151 359.632 119.025 359.631 141.188 C 359.632 163.352 377.599 181.32 399.763 181.317 M 560.557 461.203 L 634.233 418.667 L 626.489 405.253 L 558.994 444.219 C 559.758 449.873 560.277 455.534 560.557 461.203 M 540.506 562.843 C 540.824 562.64 541.126 562.432 541.405 562.206 C 543.626 560.468 545.392 557.55 547.13 553.955 C 548.889 550.391 550.569 546.258 553.389 542.504 C 556.204 538.82 559.697 536.127 562.646 533.476 C 565.63 530.831 567.977 528.318 569.09 525.612 C 569.861 523.786 570.149 521.416 570.142 518.578 C 570.146 515.727 569.861 512.471 569.858 509.005 C 569.858 506.878 569.969 504.657 570.378 502.406 C 571.217 497.878 573.213 493.987 574.794 490.305 C 576.397 486.651 577.584 483.297 577.602 480.225 C 577.602 480.198 577.6 480.149 577.6 480.083 C 577.626 477.482 576.49 474.193 574.921 470.414 C 574.4 469.127 573.294 466.435 572.434 464.237 L 565.394 468.302 C 566.172 482.099 563.46 493.987 558.076 504.225 C 554.918 523.515 549.046 542.998 540.506 562.843"
     style="fill:#000000;fill-opacity:1;fill-rule:nonzero;stroke:none"
     id="path39615" />
</svg>
