<?xml version="1.0" encoding="UTF-8" standalone="no"?>
<!-- Created with Inkscape (http://www.inkscape.org/) -->

<svg
   version="1.1"
   id="svg38677"
   width="795.03467"
   height="793.70135"
   viewBox="0 0 795.03467 793.70135"
   sodipodi:docname="Yotsu Kama.svg"
   inkscape:version="1.2 (dc2aeda, 2022-05-15)"
   xmlns:inkscape="http://www.inkscape.org/namespaces/inkscape"
   xmlns:sodipodi="http://sodipodi.sourceforge.net/DTD/sodipodi-0.dtd"
   xmlns="http://www.w3.org/2000/svg"
   xmlns:svg="http://www.w3.org/2000/svg">
  <defs
     id="defs38681">
    <clipPath
       clipPathUnits="userSpaceOnUse"
       id="clipPath39170">
      <path
         d="M -561.4131,585.8522 H 34.862903 V -9.4238027 H -561.4131 Z"
         id="path39172"
         style="stroke-width:0.999998" />
    </clipPath>
    <clipPath
       clipPathUnits="userSpaceOnUse"
       id="clipPath39176">
      <path
         d="M -564.5732,585.8483 H 31.702801 V -9.4277027 H -564.5732 Z"
         id="path39178"
         style="stroke-width:0.999998" />
    </clipPath>
    <clipPath
       clipPathUnits="userSpaceOnUse"
       id="clipPath39183">
      <path
         d="M -567.7754,585.8522 H 28.500601 V -9.4238027 H -567.7754 Z"
         id="path39185"
         style="stroke-width:0.999998" />
    </clipPath>
    <clipPath
       clipPathUnits="userSpaceOnUse"
       id="clipPath39189">
      <path
         d="M -536.6982,584.5729 H 59.577804 V -10.7031 H -536.6982 Z"
         id="path39191"
         style="stroke-width:0.999998" />
    </clipPath>
    <clipPath
       clipPathUnits="userSpaceOnUse"
       id="clipPath39195">
      <path
         d="M -540.8213,585.8483 H 55.454701 V -9.4277027 H -540.8213 Z"
         id="path39197"
         style="stroke-width:0.999998" />
    </clipPath>
    <clipPath
       clipPathUnits="userSpaceOnUse"
       id="clipPath39201">
      <path
         d="M -572.8174,586.1354 H 23.458606 V -9.1406027 H -572.8174 Z"
         id="path39203"
         style="stroke-width:0.999998" />
    </clipPath>
    <clipPath
       clipPathUnits="userSpaceOnUse"
       id="clipPath39207">
      <path
         d="M -531.1924,581.5885 H 65.083599 V -13.6875 H -531.1924 Z"
         id="path39209"
         style="stroke-width:0.999998" />
    </clipPath>
    <clipPath
       clipPathUnits="userSpaceOnUse"
       id="clipPath39213">
      <path
         d="M -528.0898,575.3815 H 68.186199 V -19.8945 H -528.0898 Z"
         id="path39215"
         style="stroke-width:0.999998" />
    </clipPath>
    <clipPath
       clipPathUnits="userSpaceOnUse"
       id="clipPath39219">
      <path
         d="M -538.2217,577.9479 H 58.054299 V -17.328098 H -538.2217 Z"
         id="path39221"
         style="stroke-width:0.999998" />
    </clipPath>
    <clipPath
       clipPathUnits="userSpaceOnUse"
       id="clipPath39225">
      <path
         d="M -525.75,204.2775 H 70.526004 v -595.276 H -525.75 Z"
         id="path39227"
         style="stroke-width:0.999998" />
    </clipPath>
    <clipPath
       clipPathUnits="userSpaceOnUse"
       id="clipPath39231">
      <path
         d="M -557.0645,585.8483 H 39.211501 V -9.4277027 H -557.0645 Z"
         id="path39233"
         style="stroke-width:0.999998" />
    </clipPath>
    <clipPath
       clipPathUnits="userSpaceOnUse"
       id="clipPath39237">
      <path
         d="M -548.9834,585.8522 H 47.292601 V -9.4238027 H -548.9834 Z"
         id="path39239"
         style="stroke-width:0.999998" />
    </clipPath>
    <clipPath
       clipPathUnits="userSpaceOnUse"
       id="clipPath39243">
      <path
         d="M -553.8975,585.8483 H 42.378504 V -9.4277027 H -553.8975 Z"
         id="path39245"
         style="stroke-width:0.999998" />
    </clipPath>
    <clipPath
       clipPathUnits="userSpaceOnUse"
       id="clipPath39249">
      <path
         d="M -584.1943,578.9381 H 12.081705 V -16.337903 H -584.1943 Z"
         id="path39251"
         style="stroke-width:0.999998" />
    </clipPath>
    <clipPath
       clipPathUnits="userSpaceOnUse"
       id="clipPath39255">
      <path
         d="M -568.2266,575.819 H 28.049401 V -19.457003 H -568.2266 Z"
         id="path39257"
         style="stroke-width:0.999998" />
    </clipPath>
    <clipPath
       clipPathUnits="userSpaceOnUse"
       id="clipPath39261">
      <path
         d="M -586.5449,579.5026 H 9.7311002 V -15.7734 H -586.5449 Z"
         id="path39263"
         style="stroke-width:0.999998" />
    </clipPath>
    <clipPath
       clipPathUnits="userSpaceOnUse"
       id="clipPath39267">
      <path
         d="M -556.4014,578.0143 H 39.874606 V -17.2617 H -556.4014 Z"
         id="path39269"
         style="stroke-width:0.999998" />
    </clipPath>
    <clipPath
       clipPathUnits="userSpaceOnUse"
       id="clipPath39274">
      <path
         d="M -574.5459,585.8522 H 21.730103 V -9.4238027 H -574.5459 Z"
         id="path39276"
         style="stroke-width:0.999998" />
    </clipPath>
    <clipPath
       clipPathUnits="userSpaceOnUse"
       id="clipPath39280">
      <path
         d="M -550.2637,577.3248 H 46.012306 V -17.951198 H -550.2637 Z"
         id="path39282"
         style="stroke-width:0.999998" />
    </clipPath>
    <clipPath
       clipPathUnits="userSpaceOnUse"
       id="clipPath39286">
      <path
         d="M -576.3691,585.5885 H 19.906905 V -9.6875027 H -576.3691 Z"
         id="path39288"
         style="stroke-width:0.999998" />
    </clipPath>
    <clipPath
       clipPathUnits="userSpaceOnUse"
       id="clipPath39292">
      <path
         d="M -557.4951,577.8502 H 38.780903 V -17.4258 H -557.4951 Z"
         id="path39294"
         style="stroke-width:0.999998" />
    </clipPath>
    <clipPath
       clipPathUnits="userSpaceOnUse"
       id="clipPath39298">
      <path
         d="M -545.417,584.5729 H 50.859001 V -10.7031 H -545.417 Z"
         id="path39300"
         style="stroke-width:0.999998" />
    </clipPath>
    <clipPath
       clipPathUnits="userSpaceOnUse"
       id="clipPath39304">
      <path
         d="M -542.9326,584.5729 H 53.343399 V -10.7031 H -542.9326 Z"
         id="path39306"
         style="stroke-width:0.999998" />
    </clipPath>
  </defs>
  <sodipodi:namedview
     id="namedview38679"
     pagecolor="#ffffff"
     bordercolor="#000000"
     borderopacity="0.25"
     inkscape:showpageshadow="2"
     inkscape:pageopacity="0.0"
     inkscape:pagecheckerboard="0"
     inkscape:deskcolor="#d1d1d1"
     showgrid="false"
     inkscape:zoom="0.29734106"
     inkscape:cx="-215.24105"
     inkscape:cy="396.85068"
     inkscape:window-width="1419"
     inkscape:window-height="456"
     inkscape:window-x="0"
     inkscape:window-y="25"
     inkscape:window-maximized="0"
     inkscape:current-layer="svg38677">
    <inkscape:page
       x="0"
       y="0"
       id="page38683"
       width="795.03467"
       height="793.70135" />
  </sodipodi:namedview>
  <path
     d="M 701 272.37 C 700.125 270.042 697.933 267.495 695.216 264.667 C 692.547 261.817 689.392 258.699 687.323 254.391 C 685.333 250.119 684.959 245.765 684.455 241.899 C 683.989 238.015 683.407 234.67 682.109 232.394 C 680.916 230.187 678.393 227.943 675.331 225.494 C 672.305 223.014 668.772 220.338 666.173 216.327 C 663.649 212.334 662.729 208.053 661.748 204.277 C 660.805 200.477 659.813 197.217 658.252 195.122 C 656.795 193.066 654.015 191.138 650.681 189.07 C 647.383 186.969 643.561 184.733 640.511 181.056 C 637.531 177.38 636.116 173.226 634.704 169.586 C 633.331 165.917 631.975 162.794 630.19 160.894 C 628.498 159.012 625.516 157.408 621.968 155.73 C 618.451 154.012 614.406 152.224 610.963 148.912 C 607.59 145.592 605.716 141.616 603.908 138.154 C 602.132 134.662 600.438 131.709 598.456 130.021 C 596.563 128.337 593.422 127.07 589.706 125.792 C 586.026 124.474 581.806 123.144 578.02 120.233 C 574.299 117.302 572.002 113.558 569.823 110.316 C 567.672 107.04 565.667 104.292 563.51 102.832 C 561.444 101.364 558.182 100.453 554.354 99.5918 C 550.547 98.6864 546.207 97.8291 542.126 95.3531 C 538.106 92.8491 535.41 89.3811 532.886 86.4011 C 530.39 83.3811 528.091 80.8731 525.788 79.6598 C 523.574 78.4265 520.228 77.8838 516.328 77.4518 C 512.444 76.9718 508.038 76.6025 503.708 74.5945 C 499.441 72.5558 496.374 69.4198 493.531 66.7398 C 490.711 64.0159 488.141 61.7692 485.709 60.8025 C 484.506 60.2865 480.898 59.3239 476.058 58.3185 C 475.799 58.2639 475.518 58.2065 475.25 58.1505 C 509.4 77.7558 541.391 102.526 570.582 131.922 C 639.244 201.065 677.957 281.662 686.268 350.93 C 690.037 382.356 686.157 410.042 668.153 422.246 L 668.153 443.97 C 672.355 443.024 676.429 442.732 680.04 442.284 C 684.409 441.776 687.973 441 690.331 439.432 C 692.989 437.732 694.983 434.74 696.976 430.883 C 698.991 427.068 700.887 422.558 704.192 418.539 C 707.889 414.11 711.451 411.584 713.757 409.214 C 716.061 406.806 717.495 404.839 718.437 399.956 C 718.764 398.156 718.884 396.692 718.884 395.443 C 718.869 392.471 718.259 390.675 717.38 388.023 C 716.509 385.424 715.409 382.018 715.427 377.427 C 715.393 372.151 717.476 368.455 718.876 365.768 C 720.289 362.971 721.292 360.98 721.34 356.662 C 721.34 355.667 721.273 354.551 721.119 353.283 C 720.604 349.643 719.616 348.478 717.613 345.866 C 715.617 343.37 712.723 339.719 711.252 333.655 C 710.899 332.222 710.732 330.833 710.732 329.515 C 710.739 325.751 712.044 322.897 712.933 320.682 C 713.861 318.414 714.472 316.747 714.483 314.491 C 714.483 313.927 714.441 313.315 714.34 312.635 C 713.925 309.821 712.433 307.63 710.167 304.982 C 707.965 302.358 704.981 299.541 703.183 295.187 C 701.915 291.989 701.716 288.806 701.705 285.873 C 701.709 283.285 701.879 280.831 701.876 278.629 C 701.883 276.118 701.645 273.995 701 272.37 M 476.845 49.4639 C 482.463 50.6359 486.434 51.5786 489.058 52.6359 C 493.534 54.5012 496.739 57.6252 499.627 60.3519 C 502.495 63.1199 505.075 65.5065 507.466 66.6038 C 509.892 67.7745 513.395 68.2385 517.355 68.6812 C 521.296 69.1665 525.726 69.6198 529.987 71.8918 C 534.254 74.2318 537.09 77.7012 539.662 80.7385 C 542.2 83.8131 544.498 86.4798 546.75 87.8318 C 549.028 89.2611 552.458 90.1131 556.344 90.9891 C 560.204 91.9078 564.556 92.8518 568.54 95.5771 C 572.523 98.3731 574.962 102.136 577.182 105.436 C 579.366 108.774 581.355 111.676 583.442 113.266 C 585.55 114.941 588.867 116.165 592.634 117.461 C 596.371 118.797 600.592 120.214 604.255 123.362 C 607.907 126.58 609.916 130.586 611.756 134.113 C 613.563 137.672 615.218 140.778 617.12 142.584 C 619.032 144.482 622.195 146.065 625.796 147.774 C 629.363 149.513 633.4 151.388 636.689 154.917 C 639.964 158.521 641.519 162.732 642.957 166.441 C 644.356 170.181 645.652 173.452 647.335 175.456 C 649.029 177.565 651.999 179.494 655.381 181.6 C 658.728 183.732 662.528 186.045 665.393 189.925 C 668.24 193.884 669.305 198.25 670.305 202.104 C 671.264 205.981 672.175 209.383 673.609 211.565 C 675.053 213.867 677.777 216.138 680.889 218.633 C 683.96 221.151 687.453 223.898 689.824 228.099 C 692.177 232.383 692.699 236.855 693.213 240.807 C 693.685 244.779 694.16 248.269 695.303 250.61 C 696.451 253.097 698.865 255.711 701.625 258.594 C 704.345 261.495 707.444 264.677 709.227 269.161 C 710.489 272.417 710.697 275.653 710.703 278.629 C 710.7 281.238 710.529 283.697 710.536 285.873 C 710.528 288.355 710.765 290.401 711.376 291.898 C 712.177 294.001 714.307 296.305 716.869 299.238 C 719.364 302.146 722.287 305.958 723.077 311.351 C 723.236 312.442 723.309 313.487 723.309 314.491 C 723.32 318.546 722.057 321.702 721.108 324.023 C 720.123 326.398 719.553 327.898 719.56 329.515 C 719.56 330.103 719.632 330.747 719.82 331.527 C 720.981 335.991 722.501 337.771 724.551 340.4 C 726.587 342.915 729.265 346.571 729.881 352.208 C 730.077 353.798 730.167 355.276 730.167 356.662 C 730.216 362.678 728.26 366.907 726.719 369.826 C 725.161 372.852 724.291 374.37 724.255 377.427 C 724.273 380.719 724.905 382.64 725.76 385.239 C 726.612 387.787 727.728 391.055 727.716 395.443 C 727.716 397.266 727.536 399.271 727.129 401.527 C 726.033 407.967 723.168 412.342 720.032 415.427 C 716.9 418.55 713.879 420.675 710.983 424.18 C 708.757 426.826 706.969 430.771 704.805 434.964 C 702.627 439.115 699.964 443.68 695.143 446.836 C 690.669 449.708 685.743 450.47 681.101 451.052 C 676.459 451.596 671.967 451.94 668.153 453.074 L 668.153 476.341 L 675.943 476.341 C 779.009 476.341 781.194 331.467 713.336 214.659 C 653.939 112.412 546.826 41.2066 422.297 32.6106 C 431.517 36.2386 440.601 40.2532 449.567 44.5866 C 460.339 46.3492 469.787 48.0106 476.845 49.4639 M 397.118 452.568 C 397.118 455.828 399.761 458.475 403.023 458.475 C 406.287 458.475 408.931 455.828 408.931 452.568 C 408.931 449.306 406.287 446.659 403.023 446.659 C 399.761 446.659 397.118 449.306 397.118 452.568 M 417.761 452.568 C 417.761 460.706 411.163 467.306 403.022 467.306 C 394.883 467.306 388.286 460.706 388.286 452.568 C 388.286 444.43 394.883 437.828 403.022 437.828 C 411.163 437.828 417.761 444.43 417.761 452.568 M 379.25 452.568 C 379.25 465.696 389.894 476.339 403.022 476.339 L 641.328 476.341 L 641.328 428.795 L 403.022 428.798 C 389.894 428.798 379.25 439.438 379.25 452.568 M 659.324 476.341 L 659.324 426.576 C 656.495 427.524 653.44 428.172 650.156 428.508 L 650.156 476.341 Z M 354.269 690.333 C 355.97 692.992 358.962 694.986 362.817 696.98 C 366.633 698.992 371.143 700.888 375.161 704.193 C 379.591 707.89 382.118 711.453 384.486 713.76 C 386.897 716.062 388.862 717.497 393.745 718.44 C 395.545 718.765 397.01 718.885 398.258 718.885 C 401.231 718.872 403.027 718.26 405.678 717.382 C 408.278 716.51 411.683 715.412 416.275 715.429 C 421.551 715.396 425.247 717.48 427.933 718.88 C 430.731 720.292 432.722 721.294 437.041 721.344 C 438.035 721.344 439.151 721.276 440.419 721.122 C 444.059 720.606 445.225 719.617 447.837 717.614 C 450.331 715.62 453.983 712.726 460.047 711.256 C 461.481 710.901 462.87 710.734 464.187 710.734 C 467.95 710.742 470.806 712.046 473.019 712.937 C 475.289 713.865 476.955 714.477 479.211 714.486 C 479.775 714.486 480.386 714.442 481.066 714.344 C 483.882 713.929 486.073 712.437 488.719 710.169 C 491.345 707.966 494.161 704.984 498.514 703.185 C 501.712 701.917 504.895 701.718 507.828 701.708 C 510.418 701.713 512.87 701.88 515.074 701.877 C 517.583 701.885 519.707 701.648 521.331 701.002 C 523.659 700.128 526.206 697.934 529.035 695.218 C 531.884 692.549 535.003 689.393 539.311 687.325 C 543.583 685.336 547.938 684.961 551.802 684.458 C 555.686 683.992 559.032 683.409 561.308 682.112 C 563.515 680.917 565.759 678.396 568.208 675.333 C 570.688 672.308 573.364 668.776 577.374 666.177 C 581.368 663.65 585.65 662.732 589.426 661.75 C 593.226 660.81 596.484 659.817 598.58 658.256 C 600.636 656.797 602.564 654.018 604.632 650.685 C 606.734 647.385 608.97 643.565 612.647 640.513 C 616.323 637.534 620.476 636.117 624.116 634.705 C 627.786 633.333 630.908 631.98 632.807 630.19 C 634.691 628.5 636.293 625.518 637.972 621.969 C 639.691 618.453 641.479 614.406 644.791 610.964 C 648.111 607.593 652.085 605.718 655.547 603.909 C 659.039 602.133 661.993 600.44 663.681 598.459 C 665.365 596.565 666.632 593.425 667.911 589.708 C 669.228 586.027 670.557 581.808 673.469 578.021 C 676.4 574.3 680.143 572.005 683.387 569.825 C 686.661 567.675 689.411 565.669 690.871 563.513 C 692.339 561.445 693.249 558.183 694.111 554.355 C 695.016 550.549 695.873 546.211 698.349 542.128 C 700.853 538.107 704.32 535.412 707.301 532.888 C 710.321 530.393 712.829 528.093 714.043 525.792 C 715.275 523.576 715.819 520.232 716.251 516.331 C 716.729 512.448 717.1 508.039 719.108 503.711 C 721.147 499.443 724.283 496.375 726.963 493.535 C 729.685 490.713 731.932 488.144 732.899 485.711 C 733.416 484.508 734.379 480.899 735.384 476.06 C 735.439 475.8 735.496 475.519 735.552 475.251 C 715.945 509.404 691.175 541.393 661.78 570.584 C 592.638 639.248 512.04 677.961 442.773 686.27 C 411.346 690.041 383.658 686.161 371.457 668.156 L 349.732 668.156 C 350.678 672.357 350.97 676.432 351.417 680.041 C 351.924 684.412 352.701 687.977 354.269 690.333 M 749.115 449.571 C 747.352 460.342 745.691 469.79 744.237 476.847 C 743.067 482.464 742.123 486.437 741.067 489.06 C 739.201 493.536 736.077 496.74 733.351 499.628 C 730.583 502.497 728.195 505.076 727.099 507.467 C 725.928 509.896 725.464 513.396 725.02 517.357 C 724.536 521.297 724.081 525.729 721.809 529.989 C 719.472 534.256 716.001 537.093 712.964 539.664 C 709.889 542.203 707.221 544.5 705.871 546.751 C 704.441 549.032 703.588 552.459 702.713 556.347 C 701.795 560.208 700.849 564.557 698.125 568.544 C 695.329 572.524 691.567 574.964 688.265 577.183 C 684.928 579.368 682.028 581.357 680.436 583.445 C 678.761 585.552 677.537 588.869 676.24 592.636 C 674.904 596.375 673.488 600.593 670.339 604.259 C 667.123 607.909 663.115 609.917 659.588 611.76 C 656.031 613.565 652.924 615.221 651.119 617.122 C 649.219 619.036 647.636 622.196 645.928 625.797 C 644.188 629.368 642.315 633.404 638.785 636.69 C 635.181 639.966 630.97 641.521 627.262 642.958 C 623.522 644.357 620.251 645.653 618.246 647.336 C 616.138 649.032 614.208 652 612.103 655.382 C 609.971 658.729 607.656 662.529 603.776 665.396 C 599.818 668.242 595.452 669.308 591.599 670.308 C 587.722 671.268 584.319 672.177 582.138 673.612 C 579.834 675.057 577.563 677.778 575.07 680.89 C 572.551 683.964 569.803 687.456 565.603 689.828 C 561.319 692.18 556.847 692.701 552.895 693.216 C 548.923 693.688 545.432 694.161 543.091 695.305 C 540.606 696.453 537.991 698.869 535.108 701.628 C 532.207 704.346 529.024 707.445 524.542 709.229 C 521.284 710.492 518.05 710.701 515.074 710.705 C 512.464 710.702 510.006 710.534 507.828 710.538 C 505.347 710.532 503.302 710.768 501.806 711.38 C 499.701 712.18 497.398 714.31 494.465 716.872 C 491.557 719.368 487.745 722.289 482.351 723.078 C 481.261 723.24 480.214 723.313 479.211 723.313 C 475.155 723.322 472.001 722.06 469.678 721.109 C 467.303 720.125 465.805 719.554 464.187 719.562 C 463.599 719.562 462.955 719.636 462.175 719.822 C 457.711 720.984 455.931 722.502 453.301 724.552 C 450.787 726.589 447.131 729.268 441.494 729.885 C 439.903 730.078 438.425 730.169 437.041 730.169 C 431.025 730.218 426.795 728.262 423.877 726.721 C 420.85 725.164 419.333 724.292 416.275 724.258 C 412.983 724.276 411.061 724.906 408.462 725.762 C 405.915 726.614 402.646 727.729 398.258 727.718 C 396.437 727.718 394.43 727.538 392.177 727.133 C 385.735 726.036 381.361 723.172 378.274 720.034 C 375.151 716.904 373.029 713.88 369.522 710.984 C 366.876 708.76 362.932 706.972 358.738 704.81 C 354.588 702.63 350.022 699.966 346.865 695.146 C 343.994 690.672 343.233 685.745 342.65 681.104 C 342.104 676.461 341.761 671.969 340.628 668.156 L 317.362 668.156 L 317.362 675.945 C 317.362 779.01 462.235 781.195 579.043 713.338 C 681.289 653.942 752.496 546.828 761.092 422.3 C 757.464 431.519 753.449 440.604 749.115 449.571 M 341.134 397.12 C 337.872 397.12 335.228 399.763 335.228 403.027 C 335.228 406.29 337.872 408.932 341.134 408.932 C 344.397 408.932 347.041 406.29 347.041 403.027 C 347.041 399.763 344.397 397.12 341.134 397.12 M 365.194 650.158 L 317.362 650.158 L 317.362 659.328 L 367.125 659.328 C 366.18 656.497 365.529 653.442 365.194 650.158 M 341.134 417.763 C 332.996 417.763 326.397 411.164 326.397 403.024 C 326.397 394.887 332.996 388.288 341.134 388.288 C 349.272 388.288 355.872 394.887 355.872 403.024 C 355.872 411.164 349.272 417.763 341.134 417.763 M 341.134 379.252 C 328.006 379.252 317.362 389.896 317.362 403.024 L 317.362 641.33 L 364.908 641.33 L 364.906 403.024 C 364.906 389.896 354.262 379.252 341.134 379.252 M 92.6989 521.333 C 93.5749 523.661 95.7655 526.208 98.4828 529.039 C 101.152 531.888 104.307 535.005 106.376 539.313 C 108.365 543.584 108.741 547.94 109.245 551.805 C 109.709 555.688 110.293 559.035 111.589 561.311 C 112.784 563.519 115.307 565.76 118.368 568.211 C 121.395 570.691 124.927 573.368 127.525 577.377 C 130.051 581.369 130.971 585.651 131.952 589.427 C 132.892 593.227 133.884 596.487 135.447 598.581 C 136.905 600.639 139.684 602.565 143.019 604.636 C 146.316 606.734 150.137 608.972 153.189 612.648 C 156.168 616.325 157.584 620.48 158.995 624.117 C 160.368 627.786 161.723 630.912 163.511 632.81 C 165.201 634.693 168.184 636.297 171.733 637.974 C 175.249 639.693 179.296 641.481 182.737 644.792 C 186.109 648.112 187.983 652.089 189.792 655.549 C 191.568 659.041 193.261 661.997 195.244 663.685 C 197.137 665.368 200.277 666.633 203.993 667.912 C 207.675 669.229 211.895 670.56 215.681 673.472 C 219.401 676.404 221.696 680.146 223.876 683.388 C 226.028 686.664 228.032 689.414 230.191 690.872 C 232.255 692.341 235.518 693.25 239.348 694.112 C 243.152 695.018 247.49 695.874 251.574 698.352 C 255.594 700.857 258.29 704.322 260.813 707.302 C 263.308 710.325 265.608 712.83 267.912 714.044 C 270.126 715.278 273.47 715.822 277.37 716.256 C 281.253 716.732 285.661 717.104 289.99 719.109 C 294.258 721.148 297.325 724.284 300.168 726.964 C 302.988 729.688 305.558 731.934 307.99 732.901 C 309.194 733.42 312.802 734.38 317.641 735.388 C 317.902 735.44 318.184 735.497 318.45 735.554 C 284.3 715.948 252.308 691.177 223.119 661.784 C 154.456 592.641 115.743 512.041 107.431 442.774 C 103.661 411.35 107.54 383.662 125.545 371.458 L 125.545 349.734 C 121.345 350.679 117.269 350.972 113.66 351.419 C 109.291 351.927 105.725 352.703 103.368 354.272 C 100.71 355.972 98.7148 358.966 96.7228 362.82 C 94.7082 366.635 92.8122 371.147 89.5095 375.164 C 85.8095 379.594 82.2495 382.12 79.9416 384.49 C 77.6402 386.899 76.2042 388.864 75.2616 393.747 C 74.9349 395.548 74.8162 397.012 74.8162 398.26 C 74.8296 401.232 75.4416 403.03 76.3189 405.68 C 77.1909 408.279 78.2909 411.686 78.2722 416.276 C 78.3069 421.552 76.2229 425.248 74.8216 427.935 C 73.4109 430.732 72.4082 432.724 72.3589 437.042 C 72.3589 438.036 72.4256 439.154 72.5816 440.423 C 73.0949 444.063 74.0842 445.227 76.0869 447.839 C 78.0829 450.334 80.9749 453.984 82.4469 460.05 C 82.8015 461.482 82.9682 462.872 82.9682 464.191 C 82.9602 467.954 81.6549 470.808 80.7642 473.021 C 79.8376 475.292 79.2269 476.956 79.2149 479.213 C 79.2149 479.776 79.2589 480.388 79.3589 481.068 C 79.7722 483.883 81.2642 486.073 83.5322 488.721 C 85.7349 491.347 88.7175 494.164 90.5175 498.516 C 91.7855 501.716 91.9829 504.899 91.9935 507.831 C 91.9882 510.42 91.8202 512.872 91.8229 515.076 C 91.8162 517.587 92.0535 519.711 92.6989 521.333 M 316.856 744.239 C 311.237 743.067 307.265 742.125 304.641 741.067 C 300.165 739.205 296.961 736.078 294.073 733.354 C 291.204 730.586 288.625 728.198 286.234 727.101 C 283.806 725.932 280.305 725.466 276.345 725.024 C 272.405 724.538 267.973 724.084 263.712 721.813 C 259.445 719.474 256.609 716.002 254.037 712.966 C 251.498 709.893 249.201 707.224 246.95 705.874 C 244.672 704.445 241.244 703.592 237.356 702.716 C 233.493 701.797 229.143 700.852 225.157 698.128 C 221.177 695.333 218.739 691.568 216.52 688.268 C 214.335 684.929 212.345 682.029 210.256 680.44 C 208.149 678.762 204.832 677.541 201.067 676.242 C 197.327 674.906 193.107 673.489 189.444 670.341 C 185.793 667.125 183.784 663.117 181.943 659.592 C 180.137 656.034 178.481 652.926 176.58 651.122 C 174.667 649.221 171.505 647.638 167.904 645.929 C 164.335 644.19 160.299 642.317 157.011 638.786 C 153.736 635.182 152.181 630.972 150.743 627.262 C 149.345 623.524 148.047 620.256 146.364 618.248 C 144.669 616.141 141.7 614.21 138.319 612.104 C 134.972 609.972 131.172 607.658 128.307 603.779 C 125.46 599.82 124.393 595.456 123.395 591.601 C 122.433 587.724 121.525 584.32 120.089 582.139 C 118.645 579.836 115.923 577.565 112.811 575.071 C 109.74 572.555 106.247 569.805 103.875 565.604 C 101.523 561.323 101 556.849 100.486 552.896 C 100.015 548.925 99.5402 545.435 98.3975 543.093 C 97.2495 540.607 94.8335 537.992 92.0749 535.112 C 89.3549 532.208 86.2562 529.027 84.4735 524.544 C 83.2095 521.287 83.0015 518.052 82.9962 515.076 C 82.9989 512.467 83.1682 510.008 83.1629 507.831 C 83.1709 505.349 82.9335 503.303 82.3215 501.808 C 81.5229 499.703 79.3922 497.401 76.8296 494.467 C 74.3349 491.557 71.4136 487.745 70.6229 482.355 C 70.4642 481.263 70.3896 480.216 70.3896 479.213 C 70.3789 475.159 71.6416 472.003 72.5909 469.68 C 73.5776 467.306 74.1456 465.806 74.1402 464.191 C 74.1402 463.602 74.0682 462.956 73.8789 462.178 C 72.7176 457.714 71.1976 455.935 69.1482 453.303 C 67.1136 450.79 64.4336 447.134 63.8163 441.495 C 63.6229 439.907 63.5323 438.427 63.5323 437.042 C 63.4829 431.027 65.4389 426.798 66.9803 423.878 C 68.5376 420.852 69.4096 419.336 69.4442 416.276 C 69.4256 412.987 68.7949 411.063 67.9389 408.464 C 67.0869 405.918 65.9723 402.648 65.9829 398.26 C 65.9829 396.44 66.1629 394.432 66.5696 392.179 C 67.6656 385.739 70.5309 381.364 73.6669 378.276 C 76.7989 375.154 79.8216 373.031 82.7175 369.524 C 84.9415 366.88 86.7309 362.935 88.8922 358.74 C 91.0722 354.591 93.7362 350.024 98.5562 346.868 C 103.029 343.998 107.957 343.234 112.597 342.654 C 117.241 342.107 121.733 341.764 125.545 340.63 L 125.545 317.365 L 117.756 317.365 C 14.6924 317.365 12.5071 462.238 80.3629 579.044 C 139.759 681.292 246.873 752.499 371.403 761.093 C 362.184 757.466 353.097 753.45 344.133 749.117 C 333.361 747.354 323.913 745.693 316.856 744.239 M 396.582 341.136 C 396.582 337.875 393.938 335.23 390.675 335.23 C 387.413 335.23 384.767 337.875 384.767 341.136 C 384.767 344.398 387.413 347.044 390.675 347.044 C 393.938 347.044 396.582 344.398 396.582 341.136 M 143.543 365.195 L 143.543 317.365 L 134.373 317.365 L 134.373 367.127 C 137.204 366.182 140.259 365.531 143.543 365.195 M 375.938 341.136 C 375.938 332.999 382.537 326.398 390.678 326.398 C 398.815 326.398 405.414 332.999 405.414 341.136 C 405.414 349.275 398.815 355.875 390.678 355.875 C 382.537 355.875 375.938 349.275 375.938 341.136 M 414.449 341.136 C 414.449 328.009 403.806 317.365 390.678 317.365 L 152.371 317.365 L 152.371 364.908 L 390.678 364.908 C 403.806 364.908 414.449 354.266 414.449 341.136 M 49.463 316.857 C 50.6336 311.239 51.5776 307.269 52.635 304.643 C 54.4976 300.169 57.6229 296.963 60.3483 294.075 C 63.1176 291.206 65.5043 288.627 66.6003 286.237 C 67.7696 283.81 68.2362 280.307 68.6789 276.347 C 69.1629 272.406 69.6189 267.977 71.8896 263.715 C 74.2282 259.449 77.6976 256.613 80.7362 254.041 C 83.8082 251.501 86.4775 249.203 87.8269 246.953 C 89.2575 244.675 90.1109 241.245 90.9855 237.358 C 91.9055 233.498 92.8509 229.146 95.5748 225.162 C 98.3695 221.179 102.133 218.739 105.433 216.521 C 108.771 214.337 111.672 212.347 113.261 210.261 C 114.939 208.151 116.16 204.834 117.46 201.068 C 118.796 197.332 120.211 193.11 123.361 189.446 C 126.577 185.796 130.584 183.786 134.111 181.946 C 137.668 180.14 140.775 178.485 142.58 176.581 C 144.48 174.67 146.064 171.509 147.771 167.906 C 149.512 164.34 151.384 160.301 154.916 157.013 C 158.52 153.737 162.731 152.182 166.439 150.745 C 170.179 149.346 173.447 148.05 175.455 146.368 C 177.563 144.673 179.491 141.704 181.596 138.321 C 183.729 134.974 186.043 131.176 189.923 128.308 C 193.881 125.462 198.247 124.397 202.1 123.397 C 205.977 122.437 209.38 121.526 211.563 120.093 C 213.865 118.649 216.137 115.925 218.631 112.813 C 221.148 109.742 223.897 106.249 228.096 103.878 C 232.38 101.525 236.853 101.004 240.805 100.488 C 244.777 100.017 248.266 99.5424 250.608 98.3998 C 253.093 97.2504 255.708 94.8371 258.59 92.0758 C 261.492 89.3571 264.676 86.2585 269.157 84.4758 C 272.416 83.2131 275.649 83.0051 278.626 82.9998 C 281.236 83.0025 283.694 83.1731 285.87 83.1651 C 288.353 83.1758 290.398 82.9371 291.894 82.3265 C 293.998 81.5251 296.301 79.3958 299.236 76.8318 C 302.144 74.3372 305.957 71.4158 311.348 70.6252 C 312.438 70.4665 313.485 70.3918 314.488 70.3918 C 318.542 70.3812 321.698 71.6438 324.022 72.5945 C 326.397 73.5785 327.896 74.1492 329.513 74.1412 C 330.1 74.1412 330.745 74.0705 331.525 73.8825 C 335.988 72.7198 337.766 71.2012 340.4 69.1518 C 342.913 67.1158 346.569 64.4359 352.205 63.8212 C 353.796 63.6252 355.274 63.5345 356.658 63.5345 C 362.676 63.4852 366.905 65.4412 369.823 66.9825 C 372.85 68.5398 374.365 69.4118 377.423 69.4478 C 380.714 69.4292 382.639 68.7972 385.238 67.9412 C 387.785 67.0892 391.053 65.9745 395.441 65.9865 C 397.262 65.9865 399.269 66.1652 401.523 66.5732 C 407.963 67.6692 412.338 70.5345 415.425 73.6705 C 418.547 76.8012 420.671 79.8238 424.178 82.7198 C 426.822 84.9438 430.767 86.7318 434.961 88.8971 C 439.111 91.0745 443.678 93.7384 446.834 98.5598 C 449.705 103.032 450.467 107.958 451.049 112.601 C 451.595 117.242 451.938 121.734 453.073 125.548 L 476.338 125.548 L 476.338 117.76 C 476.338 14.6933 331.465 12.5093 214.656 80.3651 C 112.411 139.764 41.2016 246.875 32.607 371.406 C 36.2363 362.186 40.251 353.102 44.5843 344.135 C 46.3483 333.363 48.0096 323.914 49.463 316.857 M 439.43 103.37 C 437.73 100.712 434.737 98.7198 430.882 96.7251 C 427.067 94.7118 422.555 92.8158 418.538 89.5105 C 414.107 85.8131 411.582 82.2505 409.213 79.9438 C 406.803 77.6412 404.838 76.2065 399.955 75.2638 C 398.154 74.9385 396.689 74.8185 395.441 74.8185 C 392.469 74.8318 390.673 75.4438 388.022 76.3212 C 385.421 77.1932 382.017 78.2918 377.423 78.2758 C 372.149 78.3078 368.453 76.2265 365.766 74.8252 C 362.97 73.4118 360.977 72.4105 356.658 72.3625 C 355.664 72.3625 354.548 72.4278 353.28 72.5838 C 349.64 73.0972 348.474 74.0865 345.862 76.0892 C 343.368 78.0838 339.716 80.9798 333.652 82.4491 C 332.218 82.8025 330.829 82.9691 329.513 82.9691 C 325.749 82.9638 322.893 81.6585 320.681 80.7691 C 318.41 79.8411 316.745 79.2305 314.488 79.2198 C 313.924 79.2198 313.313 79.2611 312.634 79.3625 C 309.817 79.7771 307.628 81.2691 304.98 83.5345 C 302.356 85.7371 299.537 88.7211 295.186 90.5185 C 291.985 91.7865 288.804 91.9865 285.87 91.9958 C 283.282 91.9918 280.829 91.8238 278.626 91.8265 C 276.116 91.8185 273.992 92.0571 272.368 92.7011 C 270.04 93.5758 267.493 95.7691 264.664 98.4851 C 261.813 101.156 258.696 104.31 254.389 106.38 C 250.117 108.369 245.761 108.742 241.897 109.248 C 238.014 109.713 234.666 110.294 232.391 111.592 C 230.185 112.786 227.94 115.308 225.491 118.37 C 223.012 121.397 220.335 124.93 216.324 127.528 C 212.331 130.053 208.051 130.973 204.273 131.954 C 200.473 132.896 197.215 133.888 195.121 135.449 C 193.064 136.908 191.136 139.688 189.067 143.021 C 186.967 146.318 184.731 150.141 181.053 153.19 C 177.376 156.17 173.223 157.586 169.584 158.998 C 165.915 160.37 162.792 161.728 160.892 163.513 C 159.009 165.204 157.405 168.186 155.728 171.734 C 154.009 175.252 152.22 179.297 148.911 182.74 C 145.589 186.113 141.613 187.986 138.152 189.794 C 134.66 191.57 131.704 193.265 130.019 195.246 C 128.333 197.138 127.068 200.281 125.789 203.996 C 124.473 207.677 123.141 211.897 120.231 215.682 C 117.3 219.403 113.556 221.701 110.312 223.879 C 107.037 226.029 104.288 228.035 102.828 230.193 C 101.361 232.258 100.452 235.521 99.5882 239.349 C 98.6842 243.155 97.8255 247.495 95.3508 251.575 C 92.8455 255.597 89.3789 258.291 86.4002 260.817 C 83.3762 263.313 80.8696 265.611 79.6562 267.914 C 78.4229 270.129 77.8802 273.473 77.4469 277.373 C 76.9709 281.258 76.5976 285.665 74.5922 289.994 C 72.5536 294.261 69.4176 297.329 66.7376 300.171 C 64.0149 302.991 61.7669 305.561 60.8016 307.994 C 60.2829 309.197 59.3203 312.805 58.3149 317.643 C 58.2603 317.903 58.2043 318.185 58.1469 318.454 C 77.7536 284.302 102.525 252.31 131.919 223.119 C 201.061 154.458 281.66 115.745 350.926 107.434 C 382.354 103.665 410.041 107.545 422.243 125.548 L 443.969 125.548 C 443.023 121.346 442.729 117.273 442.282 113.662 C 441.775 109.293 440.998 105.728 439.43 103.37 M 452.566 396.584 C 455.827 396.584 458.473 393.94 458.473 390.679 C 458.473 387.415 455.827 384.771 452.566 384.771 C 449.303 384.771 446.658 387.415 446.658 390.679 C 446.658 393.94 449.303 396.584 452.566 396.584 M 428.506 143.546 L 476.338 143.546 L 476.338 134.377 L 426.575 134.377 C 427.521 137.206 428.17 140.261 428.506 143.546 M 452.566 375.94 C 460.703 375.94 467.303 382.539 467.303 390.679 C 467.303 398.818 460.703 405.418 452.566 405.418 C 444.426 405.418 437.827 398.818 437.827 390.679 C 437.827 382.539 444.426 375.94 452.566 375.94 M 452.566 414.451 C 465.694 414.451 476.337 403.808 476.337 390.679 L 476.338 152.374 L 428.793 152.374 L 428.794 390.679 C 428.794 403.808 439.437 414.451 452.566 414.451"
     style="fill:#000000;fill-opacity:1;fill-rule:nonzero;stroke:none"
     id="path38797" />
</svg>
