<?xml version="1.0" encoding="UTF-8" standalone="no"?>
<svg
   enable-background="new 0 0 24 24"
   height="24"
   viewBox="0 0 24 24"
   width="24"
   version="1.1"
   id="svg214"
   sodipodi:docname="123.svg"
   inkscape:version="1.2 (dc2aeda, 2022-05-15)"
   xmlns:inkscape="http://www.inkscape.org/namespaces/inkscape"
   xmlns:sodipodi="http://sodipodi.sourceforge.net/DTD/sodipodi-0.dtd"
   xmlns="http://www.w3.org/2000/svg"
   xmlns:svg="http://www.w3.org/2000/svg">
  <defs
     id="defs218" />
  <sodipodi:namedview
     id="namedview216"
     pagecolor="#ffffff"
     bordercolor="#000000"
     borderopacity="0.25"
     inkscape:showpageshadow="2"
     inkscape:pageopacity="0.0"
     inkscape:pagecheckerboard="0"
     inkscape:deskcolor="#d1d1d1"
     showgrid="false"
     inkscape:zoom="9.8333333"
     inkscape:cx="12.050847"
     inkscape:cy="12"
     inkscape:window-width="1309"
     inkscape:window-height="456"
     inkscape:window-x="0"
     inkscape:window-y="25"
     inkscape:window-maximized="0"
     inkscape:current-layer="svg214" />
  <path
     d="M 7,15 H 5.5 V 10.5 H 4 V 9 h 3 z m 6.5,-1.5 h -3 v -1 h 2 c 0.55,0 1,-0.45 1,-1 V 10 c 0,-0.55 -0.45,-1 -1,-1 H 9 v 1.5 h 3 v 1 h -2 c -0.55,0 -1,0.45 -1,1 V 15 h 4.5 z m 6,0.5 v -4 c 0,-0.55 -0.45,-1 -1,-1 H 15 v 1.5 h 3 v 1 h -2 v 1 h 2 v 1 H 15 V 15 h 3.5 c 0.55,0 1,-0.45 1,-1 z"
     id="path210" />
</svg>
