<?xml version="1.0" encoding="UTF-8" standalone="no"?>
<svg
   enable-background="new 0 0 24 24"
   height="24"
   viewBox="0 0 24 24"
   width="24"
   version="1.1"
   id="svg178"
   sodipodi:docname="abc.svg"
   inkscape:version="1.2 (dc2aeda, 2022-05-15)"
   xmlns:inkscape="http://www.inkscape.org/namespaces/inkscape"
   xmlns:sodipodi="http://sodipodi.sourceforge.net/DTD/sodipodi-0.dtd"
   xmlns="http://www.w3.org/2000/svg"
   xmlns:svg="http://www.w3.org/2000/svg">
  <defs
     id="defs182" />
  <sodipodi:namedview
     id="namedview180"
     pagecolor="#ffffff"
     bordercolor="#000000"
     borderopacity="0.25"
     inkscape:showpageshadow="2"
     inkscape:pageopacity="0.0"
     inkscape:pagecheckerboard="0"
     inkscape:deskcolor="#d1d1d1"
     showgrid="false"
     inkscape:zoom="9.8333333"
     inkscape:cx="12.050847"
     inkscape:cy="12"
     inkscape:window-width="1309"
     inkscape:window-height="456"
     inkscape:window-x="0"
     inkscape:window-y="25"
     inkscape:window-maximized="0"
     inkscape:current-layer="svg178" />
  <path
     d="m 21,11 h -1.5 v -0.5 h -2 v 3 h 2 V 13 H 21 v 1 c 0,0.55 -0.45,1 -1,1 h -3 c -0.55,0 -1,-0.45 -1,-1 v -4 c 0,-0.55 0.45,-1 1,-1 h 3 c 0.55,0 1,0.45 1,1 z M 8,10 v 5 H 6.5 v -1.5 h -2 V 15 H 3 V 10 C 3,9.45 3.45,9 4,9 h 3 c 0.55,0 1,0.45 1,1 z m -1.5,0.5 h -2 V 12 h 2 z m 7,1.5 c 0.55,0 1,0.45 1,1 v 1 c 0,0.55 -0.45,1 -1,1 h -4 V 9 h 4 c 0.55,0 1,0.45 1,1 v 1 c 0,0.55 -0.45,1 -1,1 z M 11,10.5 v 0.75 h 2 V 10.5 Z m 2,2.25 h -2 v 0.75 h 2 z"
     id="path174" />
</svg>
