<?xml version="1.0" encoding="UTF-8" standalone="no"?>
<svg
   enable-background="new 0 0 24 24"
   height="24"
   viewBox="0 0 24 24"
   width="24"
   version="1.1"
   id="svg14"
   sodipodi:docname="admin_panel_settings.svg"
   inkscape:version="1.2 (dc2aeda, 2022-05-15)"
   xmlns:inkscape="http://www.inkscape.org/namespaces/inkscape"
   xmlns:sodipodi="http://sodipodi.sourceforge.net/DTD/sodipodi-0.dtd"
   xmlns="http://www.w3.org/2000/svg"
   xmlns:svg="http://www.w3.org/2000/svg">
  <defs
     id="defs18" />
  <sodipodi:namedview
     id="namedview16"
     pagecolor="#ffffff"
     bordercolor="#000000"
     borderopacity="0.25"
     inkscape:showpageshadow="2"
     inkscape:pageopacity="0.0"
     inkscape:pagecheckerboard="0"
     inkscape:deskcolor="#d1d1d1"
     showgrid="false"
     inkscape:zoom="9.8333333"
     inkscape:cx="12.050847"
     inkscape:cy="12"
     inkscape:window-width="1309"
     inkscape:window-height="456"
     inkscape:window-x="0"
     inkscape:window-y="25"
     inkscape:window-maximized="0"
     inkscape:current-layer="svg14" />
  <path
     d="m 17,11 c 0.34,0 0.67,0.04 1,0.09 V 6.27 L 10.5,3 3,6.27 v 4.91 c 0,4.54 3.2,8.79 7.5,9.82 0.55,-0.13 1.08,-0.32 1.6,-0.55 C 11.41,19.47 11,18.28 11,17 c 0,-3.31 2.69,-6 6,-6 z"
     id="path6" />
  <path
     d="m 17,13 c -2.21,0 -4,1.79 -4,4 0,2.21 1.79,4 4,4 2.21,0 4,-1.79 4,-4 0,-2.21 -1.79,-4 -4,-4 z m 0,1.38 c 0.62,0 1.12,0.51 1.12,1.12 0,0.61 -0.51,1.12 -1.12,1.12 -0.61,0 -1.12,-0.51 -1.12,-1.12 0,-0.61 0.5,-1.12 1.12,-1.12 z m 0,5.37 c -0.93,0 -1.74,-0.46 -2.24,-1.17 0.05,-0.72 1.51,-1.08 2.24,-1.08 0.73,0 2.19,0.36 2.24,1.08 -0.5,0.71 -1.31,1.17 -2.24,1.17 z"
     id="path8" />
</svg>
