<?xml version="1.0" encoding="UTF-8" standalone="no"?>
<svg
   enable-background="new 0 0 24 24"
   height="24"
   viewBox="0 0 24 24"
   width="24"
   version="1.1"
   id="svg206"
   sodipodi:docname="anchor.svg"
   inkscape:version="1.2 (dc2aeda, 2022-05-15)"
   xmlns:inkscape="http://www.inkscape.org/namespaces/inkscape"
   xmlns:sodipodi="http://sodipodi.sourceforge.net/DTD/sodipodi-0.dtd"
   xmlns="http://www.w3.org/2000/svg"
   xmlns:svg="http://www.w3.org/2000/svg">
  <defs
     id="defs210" />
  <sodipodi:namedview
     id="namedview208"
     pagecolor="#ffffff"
     bordercolor="#000000"
     borderopacity="0.25"
     inkscape:showpageshadow="2"
     inkscape:pageopacity="0.0"
     inkscape:pagecheckerboard="0"
     inkscape:deskcolor="#d1d1d1"
     showgrid="false"
     inkscape:zoom="9.8333333"
     inkscape:cx="12.050847"
     inkscape:cy="12"
     inkscape:window-width="1309"
     inkscape:window-height="456"
     inkscape:window-x="0"
     inkscape:window-y="25"
     inkscape:window-maximized="0"
     inkscape:current-layer="svg206" />
  <path
     d="m 17,15 1.55,1.55 C 17.59,18.24 15.22,19.59 13,19.92 V 11 h 3 V 9 H 13 V 7.82 C 14.16,7.4 15,6.3 15,5 15,3.35 13.65,2 12,2 10.35,2 9,3.35 9,5 9,6.3 9.84,7.4 11,7.82 V 9 H 8 v 2 h 3 v 8.92 C 8.78,19.59 6.41,18.24 5.45,16.55 L 7,15 3,12 v 3 c 0,3.88 4.92,7 9,7 4.08,0 9,-3.12 9,-7 V 12 Z M 12,4 c 0.55,0 1,0.45 1,1 0,0.55 -0.45,1 -1,1 -0.55,0 -1,-0.45 -1,-1 0,-0.55 0.45,-1 1,-1 z"
     id="path202" />
</svg>
