<?xml version="1.0" encoding="UTF-8" standalone="no"?>
<svg
   enable-background="new 0 0 24 24"
   height="24"
   viewBox="0 0 24 24"
   width="24"
   version="1.1"
   id="svg18"
   sodipodi:docname="app_shortcut.svg"
   inkscape:version="1.2 (dc2aeda, 2022-05-15)"
   xmlns:inkscape="http://www.inkscape.org/namespaces/inkscape"
   xmlns:sodipodi="http://sodipodi.sourceforge.net/DTD/sodipodi-0.dtd"
   xmlns="http://www.w3.org/2000/svg"
   xmlns:svg="http://www.w3.org/2000/svg">
  <defs
     id="defs22" />
  <sodipodi:namedview
     id="namedview20"
     pagecolor="#ffffff"
     bordercolor="#000000"
     borderopacity="0.25"
     inkscape:showpageshadow="2"
     inkscape:pageopacity="0.0"
     inkscape:pagecheckerboard="0"
     inkscape:deskcolor="#d1d1d1"
     showgrid="false"
     inkscape:zoom="9.8333333"
     inkscape:cx="12.050847"
     inkscape:cy="12"
     inkscape:window-width="1309"
     inkscape:window-height="456"
     inkscape:window-x="0"
     inkscape:window-y="25"
     inkscape:window-maximized="0"
     inkscape:current-layer="svg18" />
  <path
     d="M 17,18 H 7 V 6 h 10 v 1 h 2 V 3 C 19,1.9 18.1,1 17,1 H 7 C 5.9,1 5,1.9 5,3 v 18 c 0,1.1 0.9,2 2,2 h 10 c 1.1,0 2,-0.9 2,-2 v -4 h -2 z"
     id="path6" />
  <path
     id="polygon8"
     d="M 21.62,8.38 21,7 20.38,8.38 19,9 20.38,9.62 21,11 21.62,9.62 23,9 Z" />
  <path
     id="polygon10"
     d="M 16,16 17.25,13.25 20,12 17.25,10.75 16,8 14.75,10.75 12,12 l 2.75,1.25 z" />
  <path
     id="polygon12"
     d="M 21,17 21.62,15.62 23,15 21.62,14.38 21,13 20.38,14.38 19,15 l 1.38,0.62 z" />
</svg>
