<?xml version="1.0" encoding="UTF-8" standalone="no"?>
<svg
   enable-background="new 0 0 24 24"
   height="24"
   viewBox="0 0 24 24"
   width="24"
   version="1.1"
   id="svg284"
   sodipodi:docname="assured_workload.svg"
   inkscape:version="1.2 (dc2aeda, 2022-05-15)"
   xmlns:inkscape="http://www.inkscape.org/namespaces/inkscape"
   xmlns:sodipodi="http://sodipodi.sourceforge.net/DTD/sodipodi-0.dtd"
   xmlns="http://www.w3.org/2000/svg"
   xmlns:svg="http://www.w3.org/2000/svg">
  <defs
     id="defs288" />
  <sodipodi:namedview
     id="namedview286"
     pagecolor="#ffffff"
     bordercolor="#000000"
     borderopacity="0.25"
     inkscape:showpageshadow="2"
     inkscape:pageopacity="0.0"
     inkscape:pagecheckerboard="0"
     inkscape:deskcolor="#d1d1d1"
     showgrid="false"
     inkscape:zoom="9.8333333"
     inkscape:cx="12.050847"
     inkscape:cy="12"
     inkscape:window-width="1309"
     inkscape:window-height="456"
     inkscape:window-x="0"
     inkscape:window-y="25"
     inkscape:window-maximized="0"
     inkscape:current-layer="svg284" />
  <path
     id="rect268"
     d="m 5,10 h 2 v 7 H 5 Z" />
  <path
     id="rect270"
     d="m 11,10 h 2 v 7 h -2 z" />
  <path
     id="polygon272"
     d="M 22,8 V 6 L 12,1 2,6 v 2 z" />
  <path
     d="m 2,19 v 2 h 12.4 c -0.21,-0.64 -0.32,-1.31 -0.36,-2 z"
     id="path274" />
  <path
     id="polygon276"
     d="M 19,12.26 V 10 h -2 v 3.26 z" />
  <path
     d="m 20,14 -4,2 v 2.55 c 0,2.52 1.71,4.88 4,5.45 2.29,-0.57 4,-2.93 4,-5.45 V 16 Z m -0.72,7 -2.03,-2.03 1.06,-1.06 0.97,0.97 2.41,-2.38 1.06,1.06 z"
     id="path278" />
</svg>
