<?xml version="1.0" encoding="UTF-8" standalone="no"?>
<svg
   enable-background="new 0 0 24 24"
   height="24"
   viewBox="0 0 24 24"
   width="24"
   version="1.1"
   id="svg8"
   sodipodi:docname="book_online.svg"
   inkscape:version="1.2 (dc2aeda, 2022-05-15)"
   xmlns:inkscape="http://www.inkscape.org/namespaces/inkscape"
   xmlns:sodipodi="http://sodipodi.sourceforge.net/DTD/sodipodi-0.dtd"
   xmlns="http://www.w3.org/2000/svg"
   xmlns:svg="http://www.w3.org/2000/svg">
  <defs
     id="defs12" />
  <sodipodi:namedview
     id="namedview10"
     pagecolor="#ffffff"
     bordercolor="#000000"
     borderopacity="0.25"
     inkscape:showpageshadow="2"
     inkscape:pageopacity="0.0"
     inkscape:pagecheckerboard="0"
     inkscape:deskcolor="#d1d1d1"
     showgrid="false"
     inkscape:zoom="9.8333333"
     inkscape:cx="12.050847"
     inkscape:cy="12"
     inkscape:window-width="1309"
     inkscape:window-height="456"
     inkscape:window-x="0"
     inkscape:window-y="25"
     inkscape:window-maximized="0"
     inkscape:current-layer="svg8" />
  <path
     d="M 17,1 H 7 C 5.9,1 5,1.9 5,3 v 18 c 0,1.1 0.9,2 2,2 h 10 c 1.1,0 2,-0.9 2,-2 V 3 C 19,1.9 18.1,1 17,1 Z M 7,18 V 6 h 10 v 12 z m 9,-7 V 9.14 C 16,8.51 15.55,8 15,8 H 9 C 8.45,8 8,8.51 8,9.14 v 1.96 c 0.55,0 1,0.45 1,1 0,0.55 -0.45,1 -1,1 v 1.76 C 8,15.49 8.45,16 9,16 h 6 c 0.55,0 1,-0.51 1,-1.14 V 13 c -0.55,0 -1,-0.45 -1,-1 0,-0.55 0.45,-1 1,-1 z m -3.5,3.5 h -1 v -1 h 1 z m 0,-2 h -1 v -1 h 1 z m 0,-2 h -1 v -1 h 1 z"
     id="path4" />
</svg>
