<?xml version="1.0" encoding="UTF-8" standalone="no"?>
<svg
   enable-background="new 0 0 24 24"
   height="24"
   viewBox="0 0 24 24"
   width="24"
   version="1.1"
   id="svg216"
   sodipodi:docname="browse_gallery.svg"
   inkscape:version="1.2 (dc2aeda, 2022-05-15)"
   xmlns:inkscape="http://www.inkscape.org/namespaces/inkscape"
   xmlns:sodipodi="http://sodipodi.sourceforge.net/DTD/sodipodi-0.dtd"
   xmlns="http://www.w3.org/2000/svg"
   xmlns:svg="http://www.w3.org/2000/svg">
  <defs
     id="defs220" />
  <sodipodi:namedview
     id="namedview218"
     pagecolor="#ffffff"
     bordercolor="#000000"
     borderopacity="0.25"
     inkscape:showpageshadow="2"
     inkscape:pageopacity="0.0"
     inkscape:pagecheckerboard="0"
     inkscape:deskcolor="#d1d1d1"
     showgrid="false"
     inkscape:zoom="9.8333333"
     inkscape:cx="12.050847"
     inkscape:cy="12"
     inkscape:window-width="1309"
     inkscape:window-height="456"
     inkscape:window-x="0"
     inkscape:window-y="25"
     inkscape:window-maximized="0"
     inkscape:current-layer="svg216" />
  <path
     d="m 9,3 c -4.97,0 -9,4.03 -9,9 0,4.97 4.03,9 9,9 4.97,0 9,-4.03 9,-9 C 18,7.03 13.97,3 9,3 Z M 11.79,16.21 8,12.41 V 7 h 2 v 4.59 l 3.21,3.21 z"
     id="path208" />
  <path
     d="M 17.99,3.52 V 5.68 C 20.36,6.8 22,9.21 22,12 c 0,2.79 -1.64,5.2 -4.01,6.32 v 2.16 C 21.48,19.24 24,15.91 24,12 24,8.09 21.48,4.76 17.99,3.52 Z"
     id="path210" />
</svg>
