<?xml version="1.0" encoding="UTF-8" standalone="no"?>
<svg
   enable-background="new 0 0 24 24"
   height="24"
   viewBox="0 0 24 24"
   width="24"
   version="1.1"
   id="svg288"
   sodipodi:docname="calendar_view_month.svg"
   inkscape:version="1.2 (dc2aeda, 2022-05-15)"
   xmlns:inkscape="http://www.inkscape.org/namespaces/inkscape"
   xmlns:sodipodi="http://sodipodi.sourceforge.net/DTD/sodipodi-0.dtd"
   xmlns="http://www.w3.org/2000/svg"
   xmlns:svg="http://www.w3.org/2000/svg">
  <defs
     id="defs292" />
  <sodipodi:namedview
     id="namedview290"
     pagecolor="#ffffff"
     bordercolor="#000000"
     borderopacity="0.25"
     inkscape:showpageshadow="2"
     inkscape:pageopacity="0.0"
     inkscape:pagecheckerboard="0"
     inkscape:deskcolor="#d1d1d1"
     showgrid="false"
     inkscape:zoom="9.8333333"
     inkscape:cx="12.050847"
     inkscape:cy="12"
     inkscape:window-width="1309"
     inkscape:window-height="456"
     inkscape:window-x="0"
     inkscape:window-y="25"
     inkscape:window-maximized="0"
     inkscape:current-layer="svg288" />
  <path
     d="M 20,4 H 4 C 2.9,4 2,4.9 2,6 v 12 c 0,1.1 0.9,2 2,2 h 16 c 1.1,0 2,-0.9 2,-2 V 6 C 22,4.9 21.1,4 20,4 Z M 8,11 H 4 V 6 h 4 z m 6,0 H 10 V 6 h 4 z m 6,0 H 16 V 6 h 4 z M 8,18 H 4 v -5 h 4 z m 6,0 h -4 v -5 h 4 z m 6,0 h -4 v -5 h 4 z"
     id="path284" />
</svg>
