<?xml version="1.0" encoding="UTF-8" standalone="no"?>
<svg
   enable-background="new 0 0 24 24"
   height="24"
   viewBox="0 0 24 24"
   width="24"
   version="1.1"
   id="svg443"
   sodipodi:docname="contactless.svg"
   inkscape:version="1.2 (dc2aeda, 2022-05-15)"
   xmlns:inkscape="http://www.inkscape.org/namespaces/inkscape"
   xmlns:sodipodi="http://sodipodi.sourceforge.net/DTD/sodipodi-0.dtd"
   xmlns="http://www.w3.org/2000/svg"
   xmlns:svg="http://www.w3.org/2000/svg">
  <defs
     id="defs447" />
  <sodipodi:namedview
     id="namedview445"
     pagecolor="#ffffff"
     bordercolor="#000000"
     borderopacity="0.25"
     inkscape:showpageshadow="2"
     inkscape:pageopacity="0.0"
     inkscape:pagecheckerboard="0"
     inkscape:deskcolor="#d1d1d1"
     showgrid="false"
     inkscape:zoom="9.8333333"
     inkscape:cx="12.050847"
     inkscape:cy="12"
     inkscape:window-width="1309"
     inkscape:window-height="456"
     inkscape:window-x="0"
     inkscape:window-y="25"
     inkscape:window-maximized="0"
     inkscape:current-layer="svg443" />
  <path
     d="M 12,2 C 6.48,2 2,6.48 2,12 2,17.52 6.48,22 12,22 17.52,22 22,17.52 22,12 22,6.48 17.52,2 12,2 Z M 8.46,14.45 7.1,13.83 C 7.38,13.22 7.51,12.59 7.5,11.97 7.49,11.34 7.36,10.73 7.1,10.17 L 8.46,9.54 c 0.35,0.75 0.53,1.56 0.54,2.4 0.01,0.86 -0.17,1.7 -0.54,2.51 z m 3.07,1.56 -1.3,-0.74 c 0.52,-0.92 0.78,-1.98 0.78,-3.15 0,-1.19 -0.27,-2.33 -0.8,-3.4 l 1.34,-0.67 c 0.64,1.28 0.96,2.65 0.96,4.07 0,1.43 -0.33,2.74 -0.98,3.89 z m 3.14,1.32 -1.35,-0.66 c 0.78,-1.6 1.18,-3.18 1.18,-4.69 0,-1.51 -0.4,-3.07 -1.18,-4.64 l 1.34,-0.67 c 0.9,1.78 1.34,3.56 1.34,5.31 0,1.74 -0.44,3.54 -1.33,5.35 z"
     id="path439" />
</svg>
