<?xml version="1.0" encoding="UTF-8" standalone="no"?>
<svg
   enable-background="new 0 0 24 24"
   height="24"
   viewBox="0 0 24 24"
   width="24"
   version="1.1"
   id="svg494"
   sodipodi:docname="css.svg"
   inkscape:version="1.2 (dc2aeda, 2022-05-15)"
   xmlns:inkscape="http://www.inkscape.org/namespaces/inkscape"
   xmlns:sodipodi="http://sodipodi.sourceforge.net/DTD/sodipodi-0.dtd"
   xmlns="http://www.w3.org/2000/svg"
   xmlns:svg="http://www.w3.org/2000/svg">
  <defs
     id="defs498" />
  <sodipodi:namedview
     id="namedview496"
     pagecolor="#ffffff"
     bordercolor="#000000"
     borderopacity="0.25"
     inkscape:showpageshadow="2"
     inkscape:pageopacity="0.0"
     inkscape:pagecheckerboard="0"
     inkscape:deskcolor="#d1d1d1"
     showgrid="false"
     inkscape:zoom="9.8333333"
     inkscape:cx="12.050847"
     inkscape:cy="12"
     inkscape:window-width="1309"
     inkscape:window-height="456"
     inkscape:window-x="0"
     inkscape:window-y="25"
     inkscape:window-maximized="0"
     inkscape:current-layer="svg494" />
  <path
     d="M 9.5,14 V 13 H 11 v 0.5 h 2 v -1 h -2.5 c -0.55,0 -1,-0.45 -1,-1 V 10 c 0,-0.55 0.45,-1 1,-1 h 3 c 0.55,0 1,0.45 1,1 v 1 H 13 v -0.5 h -2 v 1 h 2.5 c 0.55,0 1,0.45 1,1 V 14 c 0,0.55 -0.45,1 -1,1 h -3 c -0.55,0 -1,-0.45 -1,-1 z m 7.5,1 h 3 c 0.55,0 1,-0.45 1,-1 v -1.5 c 0,-0.55 -0.45,-1 -1,-1 h -2.5 v -1 h 2 V 11 H 21 V 10 C 21,9.45 20.55,9 20,9 h -3 c -0.55,0 -1,0.45 -1,1 v 1.5 c 0,0.55 0.45,1 1,1 h 2.5 v 1 h -2 V 13 H 16 v 1 c 0,0.55 0.45,1 1,1 z M 8,10 C 8,9.45 7.55,9 7,9 H 4 C 3.45,9 3,9.45 3,10 v 4 c 0,0.55 0.45,1 1,1 h 3 c 0.55,0 1,-0.45 1,-1 V 13 H 6.5 v 0.5 h -2 v -3 h 2 V 11 H 8 Z"
     id="path490" />
</svg>
