<?xml version="1.0" encoding="UTF-8" standalone="no"?>
<svg
   enable-background="new 0 0 24 24"
   height="24"
   viewBox="0 0 24 24"
   width="24"
   version="1.1"
   id="svg515"
   sodipodi:docname="currency_exchange.svg"
   inkscape:version="1.2 (dc2aeda, 2022-05-15)"
   xmlns:inkscape="http://www.inkscape.org/namespaces/inkscape"
   xmlns:sodipodi="http://sodipodi.sourceforge.net/DTD/sodipodi-0.dtd"
   xmlns="http://www.w3.org/2000/svg"
   xmlns:svg="http://www.w3.org/2000/svg">
  <defs
     id="defs519" />
  <sodipodi:namedview
     id="namedview517"
     pagecolor="#ffffff"
     bordercolor="#000000"
     borderopacity="0.25"
     inkscape:showpageshadow="2"
     inkscape:pageopacity="0.0"
     inkscape:pagecheckerboard="0"
     inkscape:deskcolor="#d1d1d1"
     showgrid="false"
     inkscape:zoom="9.8333333"
     inkscape:cx="12.050847"
     inkscape:cy="12"
     inkscape:window-width="1309"
     inkscape:window-height="456"
     inkscape:window-x="0"
     inkscape:window-y="25"
     inkscape:window-maximized="0"
     inkscape:current-layer="svg515" />
  <path
     d="m 12.89,11.1 c -1.78,-0.59 -2.64,-0.96 -2.64,-1.9 0,-1.02 1.11,-1.39 1.81,-1.39 1.31,0 1.79,0.99 1.9,1.34 L 15.54,8.48 C 15.39,8.03 14.72,6.56 13,6.24 V 5 H 11 V 6.26 C 8.52,6.82 8.51,9.12 8.51,9.22 c 0,2.27 2.25,2.91 3.35,3.31 1.58,0.56 2.28,1.07 2.28,2.03 0,1.13 -1.05,1.61 -1.98,1.61 -1.82,0 -2.34,-1.87 -2.4,-2.09 L 8.1,14.75 c 0.63,2.19 2.28,2.78 2.9,2.96 V 19 h 2 v -1.24 c 0.4,-0.09 2.9,-0.59 2.9,-3.22 0,-1.39 -0.61,-2.61 -3.01,-3.44 z M 3,21 H 1 v -6 h 6 v 2 H 4.52 c 1.61,2.41 4.36,4 7.48,4 4.97,0 9,-4.03 9,-9 h 2 C 23,18.08 18.08,23 12,23 8.28,23 4.99,21.15 3,18.33 Z M 1,12 C 1,5.92 5.92,1 12,1 c 3.72,0 7.01,1.85 9,4.67 V 3 h 2 V 9 H 17 V 7 h 2.48 C 17.87,4.59 15.12,3 12,3 7.03,3 3,7.03 3,12 Z"
     id="path511" />
</svg>
