<?xml version="1.0" encoding="UTF-8" standalone="no"?>
<svg
   enable-background="new 0 0 24 24"
   height="24"
   viewBox="0 0 24 24"
   width="24"
   version="1.1"
   id="svg222"
   sodipodi:docname="display_settings.svg"
   inkscape:version="1.2 (dc2aeda, 2022-05-15)"
   xmlns:inkscape="http://www.inkscape.org/namespaces/inkscape"
   xmlns:sodipodi="http://sodipodi.sourceforge.net/DTD/sodipodi-0.dtd"
   xmlns="http://www.w3.org/2000/svg"
   xmlns:svg="http://www.w3.org/2000/svg">
  <defs
     id="defs226" />
  <sodipodi:namedview
     id="namedview224"
     pagecolor="#ffffff"
     bordercolor="#000000"
     borderopacity="0.25"
     inkscape:showpageshadow="2"
     inkscape:pageopacity="0.0"
     inkscape:pagecheckerboard="0"
     inkscape:deskcolor="#d1d1d1"
     showgrid="false"
     inkscape:zoom="9.8333333"
     inkscape:cx="12.050847"
     inkscape:cy="12"
     inkscape:window-width="1309"
     inkscape:window-height="456"
     inkscape:window-x="0"
     inkscape:window-y="25"
     inkscape:window-maximized="0"
     inkscape:current-layer="svg222" />
  <path
     d="M 20,3 H 4 C 2.89,3 2,3.89 2,5 v 12 c 0,1.1 0.89,2 2,2 h 4 v 2 h 8 v -2 h 4 c 1.1,0 2,-0.9 2,-2 V 5 C 22,3.89 21.1,3 20,3 Z m 0,14 H 4 V 5 h 16 z"
     id="path208" />
  <path
     id="rect210"
     d="m 6,8.25 h 8 v 1.5 H 6 Z" />
  <path
     id="polygon212"
     d="M 16.5,7 H 15 v 4 h 1.5 V 9.75 H 18 v -1.5 h -1.5 z" />
  <path
     id="rect214"
     d="m 10,12.25 h 8 v 1.5 h -8 z" />
  <path
     id="polygon216"
     d="M 7.5,12.25 H 6 v 1.5 H 7.5 V 15 H 9 V 11 H 7.5 Z" />
</svg>
