<?xml version="1.0" encoding="UTF-8" standalone="no"?>
<svg
   enable-background="new 0 0 24 24"
   height="24"
   viewBox="0 0 24 24"
   width="24"
   version="1.1"
   id="svg265"
   sodipodi:docname="donut_large.svg"
   inkscape:version="1.2 (dc2aeda, 2022-05-15)"
   xmlns:inkscape="http://www.inkscape.org/namespaces/inkscape"
   xmlns:sodipodi="http://sodipodi.sourceforge.net/DTD/sodipodi-0.dtd"
   xmlns="http://www.w3.org/2000/svg"
   xmlns:svg="http://www.w3.org/2000/svg">
  <defs
     id="defs269" />
  <sodipodi:namedview
     id="namedview267"
     pagecolor="#ffffff"
     bordercolor="#000000"
     borderopacity="0.25"
     inkscape:showpageshadow="2"
     inkscape:pageopacity="0.0"
     inkscape:pagecheckerboard="0"
     inkscape:deskcolor="#d1d1d1"
     showgrid="false"
     inkscape:zoom="7.2336361"
     inkscape:cx="8.5019482"
     inkscape:cy="9.5387712"
     inkscape:window-width="1309"
     inkscape:window-height="456"
     inkscape:window-x="0"
     inkscape:window-y="25"
     inkscape:window-maximized="0"
     inkscape:current-layer="svg265" />
  <path
     d="M 11,5.08 V 2 C 6,2.5 2,6.81 2,12 c 0,5.19 4,9.5 9,10 V 18.92 C 8,18.44 5,15.52 5,12 5,8.48 8,5.56 11,5.08 Z M 18.97,11 H 22 C 21.53,6 18,2.47 13,2 V 5.08 C 16,5.51 18.54,8 18.97,11 Z M 13,18.92 V 22 c 5,-0.47 8.53,-4 9,-9 H 18.97 C 18.54,16 16,18.49 13,18.92 Z"
     id="path257" />
</svg>
