<?xml version="1.0" encoding="UTF-8" standalone="no"?>
<svg
   enable-background="new 0 0 24 24"
   height="24"
   viewBox="0 0 24 24"
   width="24"
   version="1.1"
   id="svg213"
   sodipodi:docname="event_repeat.svg"
   inkscape:version="1.2 (dc2aeda, 2022-05-15)"
   xmlns:inkscape="http://www.inkscape.org/namespaces/inkscape"
   xmlns:sodipodi="http://sodipodi.sourceforge.net/DTD/sodipodi-0.dtd"
   xmlns="http://www.w3.org/2000/svg"
   xmlns:svg="http://www.w3.org/2000/svg">
  <defs
     id="defs217" />
  <sodipodi:namedview
     id="namedview215"
     pagecolor="#ffffff"
     bordercolor="#000000"
     borderopacity="0.25"
     inkscape:showpageshadow="2"
     inkscape:pageopacity="0.0"
     inkscape:pagecheckerboard="0"
     inkscape:deskcolor="#d1d1d1"
     showgrid="false"
     inkscape:zoom="9.8333333"
     inkscape:cx="12.050847"
     inkscape:cy="12"
     inkscape:window-width="1309"
     inkscape:window-height="456"
     inkscape:window-x="0"
     inkscape:window-y="25"
     inkscape:window-maximized="0"
     inkscape:current-layer="svg213" />
  <path
     d="M 21,12 V 6 C 21,4.9 20.1,4 19,4 H 18 V 2 H 16 V 4 H 8 V 2 H 6 V 4 H 5 C 3.9,4 3,4.9 3,6 v 14 c 0,1.1 0.9,2 2,2 h 7 V 20 H 5 V 10 h 14 v 2 z m -5.36,8 c 0.43,1.45 1.77,2.5 3.36,2.5 1.93,0 3.5,-1.57 3.5,-3.5 0,-1.93 -1.57,-3.5 -3.5,-3.5 -0.95,0 -1.82,0.38 -2.45,1 H 18 V 18 h -4 v -4 h 1.5 v 1.43 C 16.4,14.55 17.64,14 19,14 c 2.76,0 5,2.24 5,5 0,2.76 -2.24,5 -5,5 -2.42,0 -4.44,-1.72 -4.9,-4 z"
     id="path209" />
</svg>
