<?xml version="1.0" encoding="UTF-8" standalone="no"?>
<svg
   enable-background="new 0 0 24 24"
   height="24"
   viewBox="0 0 24 24"
   width="24"
   version="1.1"
   id="svg10"
   sodipodi:docname="hide_source.svg"
   inkscape:version="1.2 (dc2aeda, 2022-05-15)"
   xmlns:inkscape="http://www.inkscape.org/namespaces/inkscape"
   xmlns:sodipodi="http://sodipodi.sourceforge.net/DTD/sodipodi-0.dtd"
   xmlns="http://www.w3.org/2000/svg"
   xmlns:svg="http://www.w3.org/2000/svg">
  <defs
     id="defs14" />
  <sodipodi:namedview
     id="namedview12"
     pagecolor="#ffffff"
     bordercolor="#000000"
     borderopacity="0.25"
     inkscape:showpageshadow="2"
     inkscape:pageopacity="0.0"
     inkscape:pagecheckerboard="0"
     inkscape:deskcolor="#d1d1d1"
     showgrid="false"
     inkscape:zoom="9.8333333"
     inkscape:cx="12.050847"
     inkscape:cy="12"
     inkscape:window-width="1309"
     inkscape:window-height="456"
     inkscape:window-x="0"
     inkscape:window-y="25"
     inkscape:window-maximized="0"
     inkscape:current-layer="svg10" />
  <path
     d="M 0,0 H 24 V 24 H 0 Z"
     fill="none"
     id="path2" />
  <path
     d="M 2.81,2.81 1.39,4.22 3.66,6.49 C 2.61,8.07 2,9.96 2,12 c 0,5.52 4.48,10 10,10 2.04,0 3.93,-0.61 5.51,-1.66 l 2.27,2.27 1.41,-1.41 z M 12,20 C 7.59,20 4,16.41 4,12 4,10.52 4.41,9.14 5.12,7.94 L 16.06,18.88 C 14.86,19.59 13.48,20 12,20 Z M 7.94,5.12 6.49,3.66 C 8.07,2.61 9.96,2 12,2 c 5.52,0 10,4.48 10,10 0,2.04 -0.61,3.93 -1.66,5.51 L 18.88,16.05 C 19.59,14.86 20,13.48 20,12 20,7.59 16.41,4 12,4 10.52,4 9.14,4.41 7.94,5.12 Z"
     id="path6" />
</svg>
