<?xml version="1.0" encoding="UTF-8" standalone="no"?>
<svg
   enable-background="new 0 0 24 24"
   height="24"
   viewBox="0 0 24 24"
   width="24"
   version="1.1"
   id="svg10"
   sodipodi:docname="hls.svg"
   inkscape:version="1.2 (dc2aeda, 2022-05-15)"
   xmlns:inkscape="http://www.inkscape.org/namespaces/inkscape"
   xmlns:sodipodi="http://sodipodi.sourceforge.net/DTD/sodipodi-0.dtd"
   xmlns="http://www.w3.org/2000/svg"
   xmlns:svg="http://www.w3.org/2000/svg">
  <defs
     id="defs14" />
  <sodipodi:namedview
     id="namedview12"
     pagecolor="#ffffff"
     bordercolor="#000000"
     borderopacity="0.25"
     inkscape:showpageshadow="2"
     inkscape:pageopacity="0.0"
     inkscape:pagecheckerboard="0"
     inkscape:deskcolor="#d1d1d1"
     showgrid="false"
     inkscape:zoom="9.8333333"
     inkscape:cx="12.050847"
     inkscape:cy="12"
     inkscape:window-width="1309"
     inkscape:window-height="456"
     inkscape:window-x="0"
     inkscape:window-y="25"
     inkscape:window-maximized="0"
     inkscape:current-layer="svg10" />
  <path
     id="rect2"
     style="fill:none"
     d="M 0,0 H 24 V 24 H 0 Z" />
  <path
     d="M 6.5,9 H 8 v 6 H 6.5 v -2.5 h -2 V 15 H 3 V 9 h 1.5 v 2 h 2 z m 10,6 h 3 c 0.55,0 1,-0.45 1,-1 v -1.5 c 0,-0.55 -0.45,-1 -1,-1 H 17 v -1 h 2 V 11 h 1.5 v -1 c 0,-0.55 -0.45,-1 -1,-1 h -3 c -0.55,0 -1,0.45 -1,1 v 1.5 c 0,0.55 0.45,1 1,1 H 19 v 1 H 17 V 13 h -1.5 v 1 c 0,0.55 0.45,1 1,1 z M 14,15 V 13.5 H 11.5 V 9 H 10 v 6 z"
     id="path6" />
</svg>
