<?xml version="1.0" encoding="UTF-8" standalone="no"?>
<svg
   enable-background="new 0 0 24 24"
   height="24"
   viewBox="0 0 24 24"
   width="24"
   version="1.1"
   id="svg14"
   sodipodi:docname="integration_instructions.svg"
   inkscape:version="1.2 (dc2aeda, 2022-05-15)"
   xmlns:inkscape="http://www.inkscape.org/namespaces/inkscape"
   xmlns:sodipodi="http://sodipodi.sourceforge.net/DTD/sodipodi-0.dtd"
   xmlns="http://www.w3.org/2000/svg"
   xmlns:svg="http://www.w3.org/2000/svg">
  <defs
     id="defs18" />
  <sodipodi:namedview
     id="namedview16"
     pagecolor="#ffffff"
     bordercolor="#000000"
     borderopacity="0.25"
     inkscape:showpageshadow="2"
     inkscape:pageopacity="0.0"
     inkscape:pagecheckerboard="0"
     inkscape:deskcolor="#d1d1d1"
     showgrid="false"
     inkscape:zoom="9.8333333"
     inkscape:cx="12.050847"
     inkscape:cy="12"
     inkscape:window-width="1309"
     inkscape:window-height="456"
     inkscape:window-x="0"
     inkscape:window-y="25"
     inkscape:window-maximized="0"
     inkscape:current-layer="svg14" />
  <path
     id="rect2"
     style="fill:none"
     d="M 0,0 H 24 V 24 H 0 Z" />
  <path
     id="circle4"
     style="fill:none"
     d="M 12.75,3.5 A 0.75,0.75 0 0 1 12,4.25 0.75,0.75 0 0 1 11.25,3.5 0.75,0.75 0 0 1 12,2.75 0.75,0.75 0 0 1 12.75,3.5 Z" />
  <path
     id="circle6"
     style="fill:none"
     d="M 12.75,3.5 A 0.75,0.75 0 0 1 12,4.25 0.75,0.75 0 0 1 11.25,3.5 0.75,0.75 0 0 1 12,2.75 0.75,0.75 0 0 1 12.75,3.5 Z" />
  <path
     id="circle8"
     style="fill:none"
     d="M 12.75,3.5 A 0.75,0.75 0 0 1 12,4.25 0.75,0.75 0 0 1 11.25,3.5 0.75,0.75 0 0 1 12,2.75 0.75,0.75 0 0 1 12.75,3.5 Z" />
  <path
     d="M 19,3 H 14.82 C 14.4,1.84 13.3,1 12,1 10.7,1 9.6,1.84 9.18,3 H 5 C 4.86,3 4.73,3.01 4.6,3.04 4.21,3.12 3.86,3.32 3.59,3.59 3.41,3.77 3.26,3.99 3.16,4.23 3.06,4.46 3,4.72 3,5 v 14 c 0,0.27 0.06,0.54 0.16,0.78 0.1,0.24 0.25,0.45 0.43,0.64 0.27,0.27 0.62,0.47 1.01,0.55 C 4.73,20.99 4.86,21 5,21 h 14 c 1.1,0 2,-0.9 2,-2 V 5 C 21,3.9 20.1,3 19,3 Z M 11,14.17 9.59,15.59 6,12 9.59,8.41 11,9.83 8.83,12 Z m 1,-9.92 c -0.41,0 -0.75,-0.34 -0.75,-0.75 0,-0.41 0.34,-0.75 0.75,-0.75 0.41,0 0.75,0.34 0.75,0.75 0,0.41 -0.34,0.75 -0.75,0.75 z M 14.41,15.59 13,14.17 15.17,12 13,9.83 14.41,8.41 18,12 Z"
     id="path10" />
</svg>
