<?xml version="1.0" encoding="UTF-8" standalone="no"?>
<svg
   enable-background="new 0 0 24 24"
   height="24"
   viewBox="0 0 24 24"
   width="24"
   version="1.1"
   id="svg22"
   sodipodi:docname="join_left.svg"
   inkscape:version="1.2 (dc2aeda, 2022-05-15)"
   xmlns:inkscape="http://www.inkscape.org/namespaces/inkscape"
   xmlns:sodipodi="http://sodipodi.sourceforge.net/DTD/sodipodi-0.dtd"
   xmlns="http://www.w3.org/2000/svg"
   xmlns:svg="http://www.w3.org/2000/svg">
  <defs
     id="defs26" />
  <sodipodi:namedview
     id="namedview24"
     pagecolor="#ffffff"
     bordercolor="#000000"
     borderopacity="0.25"
     inkscape:showpageshadow="2"
     inkscape:pageopacity="0.0"
     inkscape:pagecheckerboard="0"
     inkscape:deskcolor="#d1d1d1"
     showgrid="false"
     inkscape:zoom="9.8333333"
     inkscape:cx="12.050847"
     inkscape:cy="12"
     inkscape:window-width="1309"
     inkscape:window-height="456"
     inkscape:window-x="0"
     inkscape:window-y="25"
     inkscape:window-maximized="0"
     inkscape:current-layer="svg22" />
  <path
     id="rect2"
     style="fill:none"
     d="M 0,0 H 24 V 24 H 0 Z" />
  <path
     id="ellipse6"
     d="M 15,12 A 3,5.7399998 0 0 1 12,17.74 3,5.7399998 0 0 1 9,12 3,5.7399998 0 0 1 12,6.2600002 3,5.7399998 0 0 1 15,12 Z" />
  <path
     d="M 7.5,12 C 7.5,11.03 7.73,7.84 10.53,5.5 9.75,5.19 8.9,5 8,5 4.14,5 1,8.14 1,12 c 0,3.86 3.14,7 7,7 0.9,0 1.75,-0.19 2.53,-0.5 C 7.73,16.16 7.5,12.97 7.5,12 Z"
     id="path10" />
  <path
     d="m 16,5 c -0.9,0 -1.75,0.19 -2.53,0.5 0.61,0.51 1.1,1.07 1.49,1.63 C 15.29,7.05 15.64,7 16,7 c 2.76,0 5,2.24 5,5 0,2.76 -2.24,5 -5,5 -0.36,0 -0.71,-0.05 -1.04,-0.13 -0.39,0.56 -0.88,1.12 -1.49,1.63 0.78,0.31 1.63,0.5 2.53,0.5 3.86,0 7,-3.14 7,-7 0,-3.86 -3.14,-7 -7,-7 z"
     id="path14" />
</svg>
