<?xml version="1.0" encoding="UTF-8" standalone="no"?>
<svg
   enable-background="new 0 0 24 24"
   height="24"
   viewBox="0 0 24 24"
   width="24"
   version="1.1"
   id="svg10"
   sodipodi:docname="manage_history.svg"
   inkscape:version="1.2 (dc2aeda, 2022-05-15)"
   xmlns:inkscape="http://www.inkscape.org/namespaces/inkscape"
   xmlns:sodipodi="http://sodipodi.sourceforge.net/DTD/sodipodi-0.dtd"
   xmlns="http://www.w3.org/2000/svg"
   xmlns:svg="http://www.w3.org/2000/svg">
  <defs
     id="defs14" />
  <sodipodi:namedview
     id="namedview12"
     pagecolor="#ffffff"
     bordercolor="#000000"
     borderopacity="0.25"
     inkscape:showpageshadow="2"
     inkscape:pageopacity="0.0"
     inkscape:pagecheckerboard="0"
     inkscape:deskcolor="#d1d1d1"
     showgrid="false"
     inkscape:zoom="9.8333333"
     inkscape:cx="12.050847"
     inkscape:cy="12"
     inkscape:window-width="1309"
     inkscape:window-height="456"
     inkscape:window-x="0"
     inkscape:window-y="25"
     inkscape:window-maximized="0"
     inkscape:current-layer="svg10" />
  <path
     id="rect2"
     style="fill:none"
     d="M 0,0 H 24 V 24 H 0 Z" />
  <path
     d="m 22.69,18.37 1.14,-1 -1,-1.73 -1.45,0.49 C 21.06,15.86 20.7,15.65 20.3,15.5 L 20,14 h -2 l -0.3,1.49 c -0.4,0.15 -0.76,0.36 -1.08,0.63 l -1.45,-0.49 -1,1.73 1.14,1 c -0.08,0.5 -0.08,0.76 0,1.26 l -1.14,1 1,1.73 1.45,-0.49 c 0.32,0.27 0.68,0.48 1.08,0.63 L 18,24 h 2 l 0.3,-1.49 c 0.4,-0.15 0.76,-0.36 1.08,-0.63 l 1.45,0.49 1,-1.73 -1.14,-1 c 0.08,-0.51 0.08,-0.77 0,-1.27 z M 19,21 c -1.1,0 -2,-0.9 -2,-2 0,-1.1 0.9,-2 2,-2 1.1,0 2,0.9 2,2 0,1.1 -0.9,2 -2,2 z M 11,7 v 5.41 L 13.36,14.77 14.4,12.98 13,11.59 V 7 Z m 10,5 C 21,7.03 16.97,3 12,3 9.17,3 6.65,4.32 5,6.36 V 4 H 3 v 6 H 9 V 8 H 6.26 C 7.53,6.19 9.63,5 12,5 c 3.86,0 7,3.14 7,7 z M 10.86,18.91 C 7.87,18.42 5.51,16.01 5.08,13 H 3.06 c 0.5,4.5 4.31,8 8.94,8 0.02,0 0.05,0 0.07,0 z"
     id="path6" />
</svg>
