<?xml version="1.0" encoding="UTF-8" standalone="no"?>
<svg
   enable-background="new 0 0 24 24"
   height="24"
   viewBox="0 0 24 24"
   width="24"
   version="1.1"
   id="svg16"
   sodipodi:docname="manage_accounts.svg"
   inkscape:version="1.2 (dc2aeda, 2022-05-15)"
   xmlns:inkscape="http://www.inkscape.org/namespaces/inkscape"
   xmlns:sodipodi="http://sodipodi.sourceforge.net/DTD/sodipodi-0.dtd"
   xmlns="http://www.w3.org/2000/svg"
   xmlns:svg="http://www.w3.org/2000/svg">
  <defs
     id="defs20" />
  <sodipodi:namedview
     id="namedview18"
     pagecolor="#ffffff"
     bordercolor="#000000"
     borderopacity="0.25"
     inkscape:showpageshadow="2"
     inkscape:pageopacity="0.0"
     inkscape:pagecheckerboard="0"
     inkscape:deskcolor="#d1d1d1"
     showgrid="false"
     inkscape:zoom="9.8333333"
     inkscape:cx="12.050847"
     inkscape:cy="12"
     inkscape:window-width="1309"
     inkscape:window-height="456"
     inkscape:window-x="51"
     inkscape:window-y="25"
     inkscape:window-maximized="0"
     inkscape:current-layer="svg16" />
  <path
     d="M 0,0 H 24 V 24 H 0 Z"
     fill="none"
     id="path2" />
  <path
     id="circle6"
     d="M 14,8 A 4,4 0 0 1 10,12 4,4 0 0 1 6,8 4,4 0 0 1 10,4 4,4 0 0 1 14,8 Z" />
  <path
     d="M 10.67,13.02 C 10.45,13.01 10.23,13 10,13 7.58,13 5.32,13.67 3.39,14.82 2.51,15.34 2,16.32 2,17.35 V 20 h 9.26 C 10.47,18.87 10,17.49 10,16 c 0,-1.07 0.25,-2.07 0.67,-2.98 z"
     id="path8" />
  <path
     d="m 20.75,16 c 0,-0.22 -0.03,-0.42 -0.06,-0.63 l 1.14,-1.01 -1,-1.73 -1.45,0.49 C 19.06,12.85 18.7,12.64 18.3,12.49 L 18,11 h -2 l -0.3,1.49 c -0.4,0.15 -0.76,0.36 -1.08,0.63 l -1.45,-0.49 -1,1.73 1.14,1.01 c -0.03,0.21 -0.06,0.41 -0.06,0.63 0,0.22 0.03,0.42 0.06,0.63 l -1.14,1.01 1,1.73 1.45,-0.49 c 0.32,0.27 0.68,0.48 1.08,0.63 L 16,21 h 2 l 0.3,-1.49 c 0.4,-0.15 0.76,-0.36 1.08,-0.63 l 1.45,0.49 1,-1.73 -1.14,-1.01 C 20.72,16.42 20.75,16.22 20.75,16 Z M 17,18 c -1.1,0 -2,-0.9 -2,-2 0,-1.1 0.9,-2 2,-2 1.1,0 2,0.9 2,2 0,1.1 -0.9,2 -2,2 z"
     id="path10" />
</svg>
