<?xml version="1.0" encoding="UTF-8" standalone="no"?>
<svg
   enable-background="new 0 0 24 24"
   height="24"
   viewBox="0 0 24 24"
   width="24"
   version="1.1"
   id="svg22"
   sodipodi:docname="noise_control_off.svg"
   inkscape:version="1.2 (dc2aeda, 2022-05-15)"
   xmlns:inkscape="http://www.inkscape.org/namespaces/inkscape"
   xmlns:sodipodi="http://sodipodi.sourceforge.net/DTD/sodipodi-0.dtd"
   xmlns="http://www.w3.org/2000/svg"
   xmlns:svg="http://www.w3.org/2000/svg">
  <defs
     id="defs26" />
  <sodipodi:namedview
     id="namedview24"
     pagecolor="#ffffff"
     bordercolor="#000000"
     borderopacity="0.25"
     inkscape:showpageshadow="2"
     inkscape:pageopacity="0.0"
     inkscape:pagecheckerboard="0"
     inkscape:deskcolor="#d1d1d1"
     showgrid="false"
     inkscape:zoom="9.8333333"
     inkscape:cx="12.050847"
     inkscape:cy="12"
     inkscape:window-width="1309"
     inkscape:window-height="456"
     inkscape:window-x="0"
     inkscape:window-y="25"
     inkscape:window-maximized="0"
     inkscape:current-layer="svg22" />
  <path
     id="rect2"
     style="fill:none"
     d="M 0,0 H 24 V 24 H 0 Z" />
  <path
     d="m 12,4 c 1.44,0 2.79,0.38 3.95,1.05 L 17.4,3.6 C 15.85,2.59 13.99,2 12,2 10.01,2 8.15,2.59 6.59,3.59 L 8.04,5.04 C 9.21,4.38 10.56,4 12,4 Z"
     id="path6" />
  <path
     d="m 20,12 c 0,1.44 -0.38,2.79 -1.05,3.95 L 20.4,17.4 C 21.41,15.85 22,13.99 22,12 22,10.01 21.41,8.15 20.41,6.59 L 18.96,8.04 C 19.62,9.21 20,10.56 20,12 Z"
     id="path8" />
  <path
     d="M 12,20 C 10.56,20 9.21,19.62 8.05,18.95 L 6.6,20.4 c 1.55,1.01 3.41,1.6 5.4,1.6 1.99,0 3.85,-0.59 5.41,-1.59 L 15.96,18.96 C 14.79,19.62 13.44,20 12,20 Z"
     id="path10" />
  <path
     d="M 4,12 C 4,10.56 4.38,9.21 5.05,8.05 L 3.59,6.59 C 2.59,8.15 2,10.01 2,12 c 0,1.99 0.59,3.85 1.59,5.41 L 5.04,15.96 C 4.38,14.79 4,13.44 4,12 Z"
     id="path12" />
  <path
     d="M 11.5,6 C 9.02,6 7,8.02 7,10.5 c 0,1.22 0.49,2.41 1.35,3.27 l 1.36,1.36 c 0.17,0.17 0.31,0.44 0.44,0.82 0.41,1.22 1.56,2.05 2.85,2.05 1.65,0 3,-1.35 3,-3 h -2 c 0,0.55 -0.45,1 -1,1 -0.43,0 -0.81,-0.27 -0.95,-0.68 -0.15,-0.44 -0.4,-1.08 -0.93,-1.61 L 9.76,12.35 C 9.28,11.87 9,11.19 9,10.5 9,9.12 10.12,8 11.5,8 c 1.21,0 2.22,0.86 2.45,2 h 2.02 C 15.72,7.75 13.81,6 11.5,6 Z"
     id="path14" />
  <path
     id="circle16"
     d="M 15,12.5 A 1.5,1.5 0 0 1 13.5,14 1.5,1.5 0 0 1 12,12.5 1.5,1.5 0 0 1 13.5,11 1.5,1.5 0 0 1 15,12.5 Z" />
</svg>
