<?xml version="1.0" encoding="UTF-8" standalone="no"?>
<svg
   enable-background="new 0 0 24 24"
   height="24"
   viewBox="0 0 24 24"
   width="24"
   version="1.1"
   id="svg8"
   sodipodi:docname="not_accessible.svg"
   inkscape:version="1.2 (dc2aeda, 2022-05-15)"
   xmlns:inkscape="http://www.inkscape.org/namespaces/inkscape"
   xmlns:sodipodi="http://sodipodi.sourceforge.net/DTD/sodipodi-0.dtd"
   xmlns="http://www.w3.org/2000/svg"
   xmlns:svg="http://www.w3.org/2000/svg">
  <defs
     id="defs12" />
  <sodipodi:namedview
     id="namedview10"
     pagecolor="#ffffff"
     bordercolor="#000000"
     borderopacity="0.25"
     inkscape:showpageshadow="2"
     inkscape:pageopacity="0.0"
     inkscape:pagecheckerboard="0"
     inkscape:deskcolor="#d1d1d1"
     showgrid="false"
     inkscape:zoom="9.8333333"
     inkscape:cx="12.050847"
     inkscape:cy="12"
     inkscape:window-width="1309"
     inkscape:window-height="456"
     inkscape:window-x="0"
     inkscape:window-y="25"
     inkscape:window-maximized="0"
     inkscape:current-layer="svg8" />
  <path
     id="rect2"
     style="fill:none"
     d="M 0,0 H 24 V 24 H 0 Z" />
  <path
     d="M 14,11.05 10.58,7.63 c 0.32,-0.34 0.74,-0.57 1.23,-0.61 0.48,-0.04 0.84,0.07 1.2,0.26 0.19,0.1 0.39,0.22 0.63,0.46 l 1.29,1.43 c 0.98,1.08 2.53,1.85 4.07,1.83 v 2 C 17.25,12.99 15.29,12.12 14,11.05 Z M 12,6 c 1.1,0 2,-0.9 2,-2 0,-1.1 -0.9,-2 -2,-2 -1.1,0 -2,0.9 -2,2 0,1.1 0.9,2 2,2 z M 2.81,2.81 1.39,4.22 10,12.83 V 15 c 0,1.1 0.9,2 2,2 h 2.17 l 5.61,5.61 1.41,-1.41 z M 10,20 C 8.34,20 7,18.66 7,17 7,15.69 7.84,14.59 9,14.17 V 12.1 c -2.28,0.46 -4,2.48 -4,4.9 0,2.76 2.24,5 5,5 2.42,0 4.44,-1.72 4.9,-4 h -2.07 c -0.41,1.16 -1.52,2 -2.83,2 z"
     id="path4" />
</svg>
