<?xml version="1.0" encoding="UTF-8" standalone="no"?>
<svg
   enable-background="new 0 0 24 24"
   height="24"
   viewBox="0 0 24 24"
   width="24"
   version="1.1"
   id="svg20"
   sodipodi:docname="on_device_training.svg"
   inkscape:version="1.2 (dc2aeda, 2022-05-15)"
   xmlns:inkscape="http://www.inkscape.org/namespaces/inkscape"
   xmlns:sodipodi="http://sodipodi.sourceforge.net/DTD/sodipodi-0.dtd"
   xmlns="http://www.w3.org/2000/svg"
   xmlns:svg="http://www.w3.org/2000/svg">
  <defs
     id="defs24" />
  <sodipodi:namedview
     id="namedview22"
     pagecolor="#ffffff"
     bordercolor="#000000"
     borderopacity="0.25"
     inkscape:showpageshadow="2"
     inkscape:pageopacity="0.0"
     inkscape:pagecheckerboard="0"
     inkscape:deskcolor="#d1d1d1"
     showgrid="false"
     inkscape:zoom="9.8333333"
     inkscape:cx="12.050847"
     inkscape:cy="12"
     inkscape:window-width="1309"
     inkscape:window-height="456"
     inkscape:window-x="0"
     inkscape:window-y="25"
     inkscape:window-maximized="0"
     inkscape:current-layer="svg20" />
  <path
     id="rect2"
     style="fill:none"
     d="M 0,0 H 24 V 24 H 0 Z" />
  <path
     id="rect6"
     d="m 11,16 h 2 v 1 h -2 z" />
  <path
     d="m 12,11 c -1.1,0 -2,0.9 -2,2 0,0.74 0.4,1.38 1,1.72 v 0.78 h 2 v -0.78 c 0.6,-0.35 1,-0.98 1,-1.72 0,-1.1 -0.9,-2 -2,-2 z"
     id="path8" />
  <path
     d="M 18,1.01 6,1 C 4.9,1 4,1.9 4,3 v 18 c 0,1.1 0.9,2 2,2 h 12 c 1.1,0 2,-0.9 2,-2 V 3 C 20,1.9 19.1,1.01 18,1.01 Z M 18,18 H 6 V 6 h 12 z"
     id="path10" />
  <path
     d="M 16.01,15.95 C 16.63,15.12 17,14.11 17,13 17,11.89 16.63,10.88 16.01,10.05 l -1.07,1.07 c 0.35,0.54 0.56,1.19 0.56,1.88 0,0.69 -0.21,1.34 -0.56,1.88 z"
     id="path12" />
  <path
     d="M 9.06,14.88 C 8.71,14.34 8.5,13.69 8.5,13 8.5,11.07 10.07,9.5 12,9.5 v 1.25 l 2.25,-2 -2.25,-2 V 8 c -2.76,0 -5,2.24 -5,5 0,1.11 0.37,2.12 0.99,2.95 z"
     id="path14" />
</svg>
