<?xml version="1.0" encoding="UTF-8" standalone="no"?>
<svg
   enable-background="new 0 0 24 24"
   height="24"
   viewBox="0 0 24 24"
   width="24"
   version="1.1"
   id="svg14"
   sodipodi:docname="outgoing_mail.svg"
   inkscape:version="1.2 (dc2aeda, 2022-05-15)"
   xmlns:inkscape="http://www.inkscape.org/namespaces/inkscape"
   xmlns:sodipodi="http://sodipodi.sourceforge.net/DTD/sodipodi-0.dtd"
   xmlns="http://www.w3.org/2000/svg"
   xmlns:svg="http://www.w3.org/2000/svg">
  <defs
     id="defs18" />
  <sodipodi:namedview
     id="namedview16"
     pagecolor="#ffffff"
     bordercolor="#000000"
     borderopacity="0.25"
     inkscape:showpageshadow="2"
     inkscape:pageopacity="0.0"
     inkscape:pagecheckerboard="0"
     inkscape:deskcolor="#d1d1d1"
     showgrid="false"
     inkscape:zoom="9.8333333"
     inkscape:cx="12.050847"
     inkscape:cy="12"
     inkscape:window-width="1309"
     inkscape:window-height="456"
     inkscape:window-x="0"
     inkscape:window-y="25"
     inkscape:window-maximized="0"
     inkscape:current-layer="svg14" />
  <path
     id="rect2"
     style="fill:none"
     d="M 0,0 H 24 V 24 H 0 Z" />
  <path
     d="m 18.5,11 c 0.17,0 0.34,0.01 0.5,0.03 V 6.87 C 19,5.84 18.16,5 17.13,5 H 3.87 C 2.84,5 2,5.84 2,6.87 V 17.13 C 2,18.16 2.84,19 3.87,19 H 13.6 C 13.22,18.25 13,17.4 13,16.5 13,13.46 15.46,11 18.5,11 Z M 10.4,13 4,9.19 V 7 H 4.23 L 10.41,10.68 16.74,7 H 17 v 2.16 z"
     id="path6" />
  <path
     id="polygon8"
     d="m 15,18 h 4.17 L 17.59,19.59 19,21 23,17 19,13 17.59,14.41 19.17,16 H 15 Z" />
</svg>
