<?xml version="1.0" encoding="UTF-8" standalone="no"?>
<svg
   enable-background="new 0 0 24 24"
   height="24"
   viewBox="0 0 24 24"
   width="24"
   version="1.1"
   id="svg14"
   sodipodi:docname="pan_tool.svg"
   inkscape:version="1.2 (dc2aeda, 2022-05-15)"
   xmlns:inkscape="http://www.inkscape.org/namespaces/inkscape"
   xmlns:sodipodi="http://sodipodi.sourceforge.net/DTD/sodipodi-0.dtd"
   xmlns="http://www.w3.org/2000/svg"
   xmlns:svg="http://www.w3.org/2000/svg">
  <defs
     id="defs18" />
  <sodipodi:namedview
     id="namedview16"
     pagecolor="#ffffff"
     bordercolor="#000000"
     borderopacity="0.25"
     inkscape:showpageshadow="2"
     inkscape:pageopacity="0.0"
     inkscape:pagecheckerboard="0"
     inkscape:deskcolor="#d1d1d1"
     showgrid="false"
     inkscape:zoom="9.8333333"
     inkscape:cx="12.050847"
     inkscape:cy="12"
     inkscape:window-width="1309"
     inkscape:window-height="456"
     inkscape:window-x="0"
     inkscape:window-y="25"
     inkscape:window-maximized="0"
     inkscape:current-layer="svg14" />
  <path
     id="rect2"
     style="fill:none"
     d="M 0,0 H 24 V 24 H 0 Z" />
  <path
     d="M 23,5.5 V 20 c 0,2.2 -1.8,4 -4,4 H 11.7 C 10.62,24 9.6,23.57 8.85,22.81 L 1,14.83 c 0,0 1.26,-1.23 1.3,-1.25 0.22,-0.19 0.49,-0.29 0.79,-0.29 0.22,0 0.42,0.06 0.6,0.16 C 3.73,13.46 8,15.91 8,15.91 V 4 C 8,3.17 8.67,2.5 9.5,2.5 10.33,2.5 11,3.17 11,4 v 7 h 1 V 1.5 C 12,0.67 12.67,0 13.5,0 14.33,0 15,0.67 15,1.5 V 11 h 1 V 2.5 C 16,1.67 16.67,1 17.5,1 18.33,1 19,1.67 19,2.5 V 11 h 1 V 5.5 C 20,4.67 20.67,4 21.5,4 22.33,4 23,4.67 23,5.5 Z"
     id="path6" />
</svg>
