<?xml version="1.0" encoding="UTF-8" standalone="no"?>
<svg
   height="24"
   viewBox="0 0 24 24"
   width="24"
   version="1.1"
   id="svg14"
   sodipodi:docname="pets.svg"
   inkscape:version="1.2 (dc2aeda, 2022-05-15)"
   xmlns:inkscape="http://www.inkscape.org/namespaces/inkscape"
   xmlns:sodipodi="http://sodipodi.sourceforge.net/DTD/sodipodi-0.dtd"
   xmlns="http://www.w3.org/2000/svg"
   xmlns:svg="http://www.w3.org/2000/svg">
  <defs
     id="defs18" />
  <sodipodi:namedview
     id="namedview16"
     pagecolor="#ffffff"
     bordercolor="#000000"
     borderopacity="0.25"
     inkscape:showpageshadow="2"
     inkscape:pageopacity="0.0"
     inkscape:pagecheckerboard="0"
     inkscape:deskcolor="#d1d1d1"
     showgrid="false"
     inkscape:zoom="9.8333333"
     inkscape:cx="12.050847"
     inkscape:cy="12"
     inkscape:window-width="1309"
     inkscape:window-height="456"
     inkscape:window-x="0"
     inkscape:window-y="25"
     inkscape:window-maximized="0"
     inkscape:current-layer="svg14" />
  <path
     d="M0 0h24v24H0z"
     fill="none"
     id="path2" />
  <path
     id="circle4"
     d="M 7,9.5 A 2.5,2.5 0 0 1 4.5,12 2.5,2.5 0 0 1 2,9.5 2.5,2.5 0 0 1 4.5,7 2.5,2.5 0 0 1 7,9.5 Z" />
  <path
     id="circle6"
     d="M 11.5,5.5 A 2.5,2.5 0 0 1 9,8 2.5,2.5 0 0 1 6.5,5.5 2.5,2.5 0 0 1 9,3 2.5,2.5 0 0 1 11.5,5.5 Z" />
  <path
     id="circle8"
     d="M 17.5,5.5 A 2.5,2.5 0 0 1 15,8 2.5,2.5 0 0 1 12.5,5.5 2.5,2.5 0 0 1 15,3 2.5,2.5 0 0 1 17.5,5.5 Z" />
  <path
     id="circle10"
     d="M 22,9.5 A 2.5,2.5 0 0 1 19.5,12 2.5,2.5 0 0 1 17,9.5 2.5,2.5 0 0 1 19.5,7 2.5,2.5 0 0 1 22,9.5 Z" />
  <path
     d="M17.34 14.86c-.87-1.02-1.6-1.89-2.48-2.91-.46-.54-1.05-1.08-1.75-1.32-.11-.04-.22-.07-.33-.09-.25-.04-.52-.04-.78-.04s-.53 0-.79.05c-.11.02-.22.05-.33.09-.7.24-1.28.78-1.75 1.32-.87 1.02-1.6 1.89-2.48 2.91-1.31 1.31-2.92 2.76-2.62 4.79.29 1.02 1.02 2.03 2.33 2.32.73.15 3.06-.44 5.54-.44h.18c2.48 0 4.81.58 5.54.44 1.31-.29 2.04-1.31 2.33-2.32.31-2.04-1.3-3.49-2.61-4.8z"
     id="path12" />
</svg>
