<?xml version="1.0" encoding="UTF-8" standalone="no"?>
<svg
   enable-background="new 0 0 24 24"
   height="24"
   viewBox="0 0 24 24"
   width="24"
   version="1.1"
   id="svg10"
   sodipodi:docname="php.svg"
   inkscape:version="1.2 (dc2aeda, 2022-05-15)"
   xmlns:inkscape="http://www.inkscape.org/namespaces/inkscape"
   xmlns:sodipodi="http://sodipodi.sourceforge.net/DTD/sodipodi-0.dtd"
   xmlns="http://www.w3.org/2000/svg"
   xmlns:svg="http://www.w3.org/2000/svg">
  <defs
     id="defs14" />
  <sodipodi:namedview
     id="namedview12"
     pagecolor="#ffffff"
     bordercolor="#000000"
     borderopacity="0.25"
     inkscape:showpageshadow="2"
     inkscape:pageopacity="0.0"
     inkscape:pagecheckerboard="0"
     inkscape:deskcolor="#d1d1d1"
     showgrid="false"
     inkscape:zoom="9.8333333"
     inkscape:cx="12.050847"
     inkscape:cy="12"
     inkscape:window-width="1309"
     inkscape:window-height="456"
     inkscape:window-x="0"
     inkscape:window-y="25"
     inkscape:window-maximized="0"
     inkscape:current-layer="svg10" />
  <path
     id="rect2"
     style="fill:none"
     d="M 0,0 H 24 V 24 H 0 Z" />
  <path
     d="m 13,9 h 1.5 v 6 H 13 V 12.5 H 11 V 15 H 9.5 V 9 H 11 v 2 h 2 z m -5,1.5 v 1 C 8,12.3 7.3,13 6.5,13 h -2 v 2 H 3 V 9 H 6.5 C 7.3,9 8,9.7 8,10.5 Z m -1.5,0 h -2 v 1 h 2 z m 15,0 v 1 c 0,0.8 -0.7,1.5 -1.5,1.5 h -2 v 2 H 16.5 V 9 H 20 c 0.8,0 1.5,0.7 1.5,1.5 z m -1.5,0 h -2 v 1 h 2 z"
     id="path6" />
</svg>
