<?xml version="1.0" encoding="UTF-8" standalone="no"?>
<svg
   enable-background="new 0 0 24 24"
   height="24"
   viewBox="0 0 24 24"
   width="24"
   version="1.1"
   id="svg266"
   sodipodi:docname="pinch.svg"
   inkscape:version="1.2 (dc2aeda, 2022-05-15)"
   xmlns:inkscape="http://www.inkscape.org/namespaces/inkscape"
   xmlns:sodipodi="http://sodipodi.sourceforge.net/DTD/sodipodi-0.dtd"
   xmlns="http://www.w3.org/2000/svg"
   xmlns:svg="http://www.w3.org/2000/svg">
  <defs
     id="defs270" />
  <sodipodi:namedview
     id="namedview268"
     pagecolor="#ffffff"
     bordercolor="#000000"
     borderopacity="0.25"
     inkscape:showpageshadow="2"
     inkscape:pageopacity="0.0"
     inkscape:pagecheckerboard="0"
     inkscape:deskcolor="#d1d1d1"
     showgrid="false"
     inkscape:zoom="9.8333333"
     inkscape:cx="12.050847"
     inkscape:cy="12"
     inkscape:window-width="1309"
     inkscape:window-height="456"
     inkscape:window-x="0"
     inkscape:window-y="25"
     inkscape:window-maximized="0"
     inkscape:current-layer="svg266" />
  <path
     id="rect258"
     style="fill:none"
     d="M 0,0 H 24 V 24 H 0 Z" />
  <path
     d="M 6,2.5 V 1 h 5 V 6 H 9.5 V 3.56 L 3.56,9.5 H 6 V 11 H 1 V 6 H 2.5 V 8.44 L 8.44,2.5 Z m 16.98,14.32 -0.63,4.46 C 22.21,22.27 21.36,23 20.37,23 h -6.16 c -0.53,0 -1.29,-0.21 -1.66,-0.59 L 8,17.62 8.83,16.78 C 9.07,16.54 9.41,16.43 9.75,16.5 L 13,17.24 V 6.5 C 13,5.67 13.67,5 14.5,5 15.33,5 16,5.67 16,6.5 v 6 h 0.91 c 0.31,0 0.62,0.07 0.89,0.21 l 4.09,2.04 c 0.77,0.39 1.21,1.22 1.09,2.07 z"
     id="path262" />
</svg>
