<?xml version="1.0" encoding="UTF-8" standalone="no"?>
<svg
   enable-background="new 0 0 24 24"
   height="24"
   viewBox="0 0 24 24"
   width="24"
   version="1.1"
   id="svg14"
   sodipodi:docname="rowing.svg"
   inkscape:version="1.2 (dc2aeda, 2022-05-15)"
   xmlns:inkscape="http://www.inkscape.org/namespaces/inkscape"
   xmlns:sodipodi="http://sodipodi.sourceforge.net/DTD/sodipodi-0.dtd"
   xmlns="http://www.w3.org/2000/svg"
   xmlns:svg="http://www.w3.org/2000/svg">
  <defs
     id="defs18" />
  <sodipodi:namedview
     id="namedview16"
     pagecolor="#ffffff"
     bordercolor="#000000"
     borderopacity="0.25"
     inkscape:showpageshadow="2"
     inkscape:pageopacity="0.0"
     inkscape:pagecheckerboard="0"
     inkscape:deskcolor="#d1d1d1"
     showgrid="false"
     inkscape:zoom="9.8333333"
     inkscape:cx="11.949153"
     inkscape:cy="12"
     inkscape:window-width="1309"
     inkscape:window-height="456"
     inkscape:window-x="0"
     inkscape:window-y="25"
     inkscape:window-maximized="0"
     inkscape:current-layer="svg14" />
  <path
     id="rect2"
     style="fill:none"
     d="M 0,0 H 24 V 24 H 0 Z" />
  <path
     d="M 8.5,14.5 4,19 5.5,20.5 9,17 h 2 z M 15,1 c -1.1,0 -2,0.9 -2,2 0,1.1 0.9,2 2,2 1.1,0 2,-0.9 2,-2 C 17,1.9 16.1,1 15,1 Z M 21,21.01 18,24 15.01,20.99 V 19.5 L 7.91,12.41 C 7.6,12.46 7.3,12.48 7,12.48 v -2.16 c 1.66,0.03 3.61,-0.87 4.67,-2.04 l 1.4,-1.55 C 13.42,6.34 14.06,6 14.72,6 h 0.03 C 15.99,6.01 17,7.02 17,8.26 v 5.75 c 0,0.84 -0.35,1.61 -0.92,2.16 L 12.5,12.59 v -2.27 c -0.63,0.52 -1.43,1.02 -2.29,1.39 L 16.5,18 H 18 Z"
     id="path6" />
</svg>
