<?xml version="1.0" encoding="UTF-8" standalone="no"?>
<svg
   enable-background="new 0 0 24 24"
   height="24"
   viewBox="0 0 24 24"
   width="24"
   version="1.1"
   id="svg12"
   sodipodi:docname="satellite_alt.svg"
   inkscape:version="1.2 (dc2aeda, 2022-05-15)"
   xmlns:inkscape="http://www.inkscape.org/namespaces/inkscape"
   xmlns:sodipodi="http://sodipodi.sourceforge.net/DTD/sodipodi-0.dtd"
   xmlns="http://www.w3.org/2000/svg"
   xmlns:svg="http://www.w3.org/2000/svg">
  <defs
     id="defs16" />
  <sodipodi:namedview
     id="namedview14"
     pagecolor="#ffffff"
     bordercolor="#000000"
     borderopacity="0.25"
     inkscape:showpageshadow="2"
     inkscape:pageopacity="0.0"
     inkscape:pagecheckerboard="0"
     inkscape:deskcolor="#d1d1d1"
     showgrid="false"
     inkscape:zoom="9.8333333"
     inkscape:cx="11.949153"
     inkscape:cy="12"
     inkscape:window-width="1309"
     inkscape:window-height="456"
     inkscape:window-x="0"
     inkscape:window-y="25"
     inkscape:window-maximized="0"
     inkscape:current-layer="svg12" />
  <path
     id="rect2"
     style="fill:none"
     d="M 0,0 H 24 V 24 H 0 Z" />
  <path
     d="m 15.44,0.59 -3.18,3.18 c -0.78,0.78 -0.78,2.05 0,2.83 L 13.5,7.84 12.79,8.55 11.55,7.3 C 10.77,6.52 9.5,6.52 8.72,7.3 L 7.3,8.72 c -0.78,0.78 -0.78,2.05 0,2.83 L 8.54,12.79 7.83,13.5 6.6,12.25 c -0.78,-0.78 -2.05,-0.78 -2.83,0 l -3.18,3.18 c -0.78,0.78 -0.78,2.05 0,2.83 l 3.54,3.54 c 0.78,0.78 2.05,0.78 2.83,0 l 3.18,-3.18 c 0.78,-0.78 0.78,-2.05 0,-2.83 l -1.24,-1.24 0.71,-0.71 1.24,1.24 c 0.78,0.78 2.05,0.78 2.83,0 l 1.41,-1.41 c 0.78,-0.78 0.78,-2.05 0,-2.83 l -1.25,-1.24 0.71,-0.71 1.24,1.24 c 0.78,0.78 2.05,0.78 2.83,0 L 21.8,6.95 c 0.78,-0.78 0.78,-2.05 0,-2.83 L 18.26,0.58 C 17.48,-0.2 16.22,-0.2 15.44,0.59 Z M 6.6,19.32 5.54,20.38 2,16.85 3.06,15.79 Z M 8.72,17.2 7.66,18.26 4.12,14.72 5.18,13.66 Z M 18.26,7.66 17.2,8.72 13.66,5.18 14.72,4.12 Z M 20.38,5.54 19.32,6.6 15.78,3.06 16.85,2 Z M 14,21 v 2 c 4.97,0 9,-4.03 9,-9 h -2 c 0,3.87 -3.13,7 -7,7 z m 0,-4 v 2 c 2.76,0 5,-2.24 5,-5 h -2 c 0,1.66 -1.34,3 -3,3 z"
     id="path6" />
</svg>
