<?xml version="1.0" encoding="UTF-8" standalone="no"?>
<svg
   enable-background="new 0 0 24 24"
   height="24"
   viewBox="0 0 24 24"
   width="24"
   version="1.1"
   id="svg18"
   sodipodi:docname="spatial_audio.svg"
   inkscape:version="1.2 (dc2aeda, 2022-05-15)"
   xmlns:inkscape="http://www.inkscape.org/namespaces/inkscape"
   xmlns:sodipodi="http://sodipodi.sourceforge.net/DTD/sodipodi-0.dtd"
   xmlns="http://www.w3.org/2000/svg"
   xmlns:svg="http://www.w3.org/2000/svg">
  <defs
     id="defs22" />
  <sodipodi:namedview
     id="namedview20"
     pagecolor="#ffffff"
     bordercolor="#000000"
     borderopacity="0.25"
     inkscape:showpageshadow="2"
     inkscape:pageopacity="0.0"
     inkscape:pagecheckerboard="0"
     inkscape:deskcolor="#d1d1d1"
     showgrid="false"
     inkscape:zoom="9.8333333"
     inkscape:cx="11.084746"
     inkscape:cy="12"
     inkscape:window-width="1309"
     inkscape:window-height="456"
     inkscape:window-x="0"
     inkscape:window-y="25"
     inkscape:window-maximized="0"
     inkscape:current-layer="svg18" />
  <path
     id="rect2"
     style="fill:none"
     d="M 0,0 H 24 V 24 H 0 Z" />
  <path
     id="circle6"
     d="M 14,9 A 4,4 0 0 1 10,13 4,4 0 0 1 6,9 4,4 0 0 1 10,5 4,4 0 0 1 14,9 Z" />
  <path
     d="M 16.39,15.56 C 14.71,14.7 12.53,14 10,14 7.47,14 5.29,14.7 3.61,15.56 2.61,16.07 2,17.1 2,18.22 V 21 h 16 v -2.78 c 0,-1.12 -0.61,-2.15 -1.61,-2.66 z"
     id="path8" />
  <path
     d="m 16,1 h -2 c 0,4.97 4.03,9 9,9 V 8 C 19.14,8 16,4.86 16,1 Z"
     id="path10" />
  <path
     d="m 20,1 h -2 c 0,2.76 2.24,5 5,5 V 4 C 21.35,4 20,2.65 20,1 Z"
     id="path12" />
</svg>
