<?xml version="1.0" encoding="UTF-8" standalone="no"?>
<svg
   enable-background="new 0 0 24 24"
   height="24"
   viewBox="0 0 24 24"
   width="24"
   version="1.1"
   id="svg14"
   sodipodi:docname="subtitles_off.svg"
   inkscape:version="1.2 (dc2aeda, 2022-05-15)"
   xmlns:inkscape="http://www.inkscape.org/namespaces/inkscape"
   xmlns:sodipodi="http://sodipodi.sourceforge.net/DTD/sodipodi-0.dtd"
   xmlns="http://www.w3.org/2000/svg"
   xmlns:svg="http://www.w3.org/2000/svg">
  <defs
     id="defs18" />
  <sodipodi:namedview
     id="namedview16"
     pagecolor="#ffffff"
     bordercolor="#000000"
     borderopacity="0.25"
     inkscape:showpageshadow="2"
     inkscape:pageopacity="0.0"
     inkscape:pagecheckerboard="0"
     inkscape:deskcolor="#d1d1d1"
     showgrid="false"
     inkscape:zoom="9.8333333"
     inkscape:cx="8.2372881"
     inkscape:cy="12"
     inkscape:window-width="1309"
     inkscape:window-height="456"
     inkscape:window-x="0"
     inkscape:window-y="25"
     inkscape:window-maximized="0"
     inkscape:current-layer="svg14" />
  <path
     id="rect2"
     style="fill:none"
     d="M 0,0 H 24 V 24 H 0 Z" />
  <path
     d="M 20,4 H 6.83 l 8,8 H 20 v 2 h -3.17 l 4.93,4.93 C 21.91,18.65 22,18.34 22,18 V 6 C 22,4.9 21.1,4 20,4 Z"
     id="path6" />
  <path
     d="m 1.04,3.87 1.2,1.2 C 2.09,5.35 2,5.66 2,6 v 12 c 0,1.1 0.9,2 2,2 h 13.17 l 2.96,2.96 1.41,-1.41 L 2.45,2.45 Z M 8,12 v 2 H 4 v -2 z m 6,4.83 V 18 H 4 v -2 h 9.17 z"
     id="path8" />
</svg>
