<?xml version="1.0" encoding="UTF-8" standalone="no"?>
<svg
   enable-background="new 0 0 24 24"
   height="24"
   viewBox="0 0 24 24"
   width="24"
   version="1.1"
   id="svg8"
   sodipodi:docname="table_view.svg"
   inkscape:version="1.2 (dc2aeda, 2022-05-15)"
   xmlns:inkscape="http://www.inkscape.org/namespaces/inkscape"
   xmlns:sodipodi="http://sodipodi.sourceforge.net/DTD/sodipodi-0.dtd"
   xmlns="http://www.w3.org/2000/svg"
   xmlns:svg="http://www.w3.org/2000/svg">
  <defs
     id="defs12" />
  <sodipodi:namedview
     id="namedview10"
     pagecolor="#ffffff"
     bordercolor="#000000"
     borderopacity="0.25"
     inkscape:showpageshadow="2"
     inkscape:pageopacity="0.0"
     inkscape:pagecheckerboard="0"
     inkscape:deskcolor="#d1d1d1"
     showgrid="false"
     inkscape:zoom="9.8333333"
     inkscape:cx="8.2372881"
     inkscape:cy="12"
     inkscape:window-width="1309"
     inkscape:window-height="456"
     inkscape:window-x="0"
     inkscape:window-y="25"
     inkscape:window-maximized="0"
     inkscape:current-layer="svg8" />
  <path
     id="rect2"
     style="fill:none"
     d="M 0,0 H 24 V 24 H 0 Z" />
  <path
     d="M 19,7 H 9 C 7.9,7 7,7.9 7,9 v 10 c 0,1.1 0.9,2 2,2 h 10 c 1.1,0 2,-0.9 2,-2 V 9 C 21,7.9 20.1,7 19,7 Z m 0,2 v 2 H 9 V 9 Z m -6,6 v -2 h 2 v 2 z m 2,2 v 2 H 13 V 17 Z M 11,15 H 9 v -2 h 2 z m 6,-2 h 2 v 2 h -2 z m -8,4 h 2 v 2 H 9 Z m 8,2 v -2 h 2 v 2 z M 6,17 H 5 C 3.9,17 3,16.1 3,15 V 5 C 3,3.9 3.9,3 5,3 h 10 c 1.1,0 2,0.9 2,2 V 6 H 15 V 5 H 5 v 10 h 1 z"
     id="path4" />
</svg>
