<?xml version="1.0" encoding="UTF-8" standalone="no"?>
<svg
   enable-background="new 0 0 24 24"
   height="24"
   viewBox="0 0 24 24"
   width="24"
   version="1.1"
   id="svg10"
   sodipodi:docname="transcribe.svg"
   inkscape:version="1.2 (dc2aeda, 2022-05-15)"
   xmlns:inkscape="http://www.inkscape.org/namespaces/inkscape"
   xmlns:sodipodi="http://sodipodi.sourceforge.net/DTD/sodipodi-0.dtd"
   xmlns="http://www.w3.org/2000/svg"
   xmlns:svg="http://www.w3.org/2000/svg">
  <defs
     id="defs14" />
  <sodipodi:namedview
     id="namedview12"
     pagecolor="#ffffff"
     bordercolor="#000000"
     borderopacity="0.25"
     inkscape:showpageshadow="2"
     inkscape:pageopacity="0.0"
     inkscape:pagecheckerboard="0"
     inkscape:deskcolor="#d1d1d1"
     showgrid="false"
     inkscape:zoom="9.8333333"
     inkscape:cx="8.2372881"
     inkscape:cy="12"
     inkscape:window-width="1309"
     inkscape:window-height="456"
     inkscape:window-x="0"
     inkscape:window-y="25"
     inkscape:window-maximized="0"
     inkscape:current-layer="svg10" />
  <path
     id="rect2"
     style="fill:none"
     d="M 0,0 H 24 V 24 H 0 Z" />
  <path
     d="m 17.93,16 1.63,-1.63 c -2.77,-3.02 -2.77,-7.56 0,-10.74 L 17.93,2 c -3.9,3.89 -3.91,9.95 0,14 z m 4.99,-5.05 c -0.84,-1.18 -0.84,-2.71 0,-3.89 L 21.24,5.37 c -2.02,2.02 -2.02,5.07 0,7.27 z M 9,13 c 2.21,0 4,-1.79 4,-4 C 13,6.79 11.21,5 9,5 6.79,5 5,6.79 5,9 c 0,2.21 1.79,4 4,4 z m 6.39,2.56 C 13.71,14.7 11.53,14 9,14 6.47,14 4.29,14.7 2.61,15.56 1.61,16.07 1,17.1 1,18.22 V 21 h 16 v -2.78 c 0,-1.12 -0.61,-2.15 -1.61,-2.66 z"
     id="path6" />
</svg>
