<?xml version="1.0" encoding="UTF-8" standalone="no"?>
<svg
   enable-background="new 0 0 24 24"
   height="24"
   viewBox="0 0 24 24"
   width="24"
   version="1.1"
   id="svg14"
   sodipodi:docname="troubleshoot.svg"
   inkscape:version="1.2 (dc2aeda, 2022-05-15)"
   xmlns:inkscape="http://www.inkscape.org/namespaces/inkscape"
   xmlns:sodipodi="http://sodipodi.sourceforge.net/DTD/sodipodi-0.dtd"
   xmlns="http://www.w3.org/2000/svg"
   xmlns:svg="http://www.w3.org/2000/svg">
  <defs
     id="defs18" />
  <sodipodi:namedview
     id="namedview16"
     pagecolor="#ffffff"
     bordercolor="#000000"
     borderopacity="0.25"
     inkscape:showpageshadow="2"
     inkscape:pageopacity="0.0"
     inkscape:pagecheckerboard="0"
     inkscape:deskcolor="#d1d1d1"
     showgrid="false"
     inkscape:zoom="9.8333333"
     inkscape:cx="8.2372881"
     inkscape:cy="12"
     inkscape:window-width="1309"
     inkscape:window-height="456"
     inkscape:window-x="0"
     inkscape:window-y="25"
     inkscape:window-maximized="0"
     inkscape:current-layer="svg14" />
  <path
     id="rect2"
     style="fill:none"
     d="M 0,0 H 24 V 24 H 0 Z" />
  <path
     d="M 22,20.59 17.31,15.9 C 18.37,14.55 19,12.85 19,11 19,6.58 15.42,3 11,3 6.92,3 3.56,6.05 3.07,10 H 5.09 C 5.57,7.17 8.03,5 11,5 c 3.31,0 6,2.69 6,6 0,3.31 -2.69,6 -6,6 C 8.58,17 6.5,15.56 5.55,13.5 H 3.4 c 1.05,3.19 4.06,5.5 7.6,5.5 1.85,0 3.55,-0.63 4.9,-1.69 L 20.59,22 Z"
     id="path6" />
  <path
     id="polygon8"
     d="m 13.5,13.5 h 2 V 12 h -1 L 13.25,9 H 11.71 L 10.59,12.37 9.35,7 H 7.7 L 6.45,11 H 1 v 1.5 H 7.55 L 8.43,9.69 9.65,15 h 1.64 l 1.26,-3.78 z" />
</svg>
