<?xml version="1.0" encoding="UTF-8" standalone="no"?>
<svg
   enable-background="new 0 0 24 24"
   height="24"
   viewBox="0 0 24 24"
   width="24"
   version="1.1"
   id="svg8"
   sodipodi:docname="update_disabled.svg"
   inkscape:version="1.2 (dc2aeda, 2022-05-15)"
   xmlns:inkscape="http://www.inkscape.org/namespaces/inkscape"
   xmlns:sodipodi="http://sodipodi.sourceforge.net/DTD/sodipodi-0.dtd"
   xmlns="http://www.w3.org/2000/svg"
   xmlns:svg="http://www.w3.org/2000/svg">
  <defs
     id="defs12" />
  <sodipodi:namedview
     id="namedview10"
     pagecolor="#ffffff"
     bordercolor="#000000"
     borderopacity="0.25"
     inkscape:showpageshadow="2"
     inkscape:pageopacity="0.0"
     inkscape:pagecheckerboard="0"
     inkscape:deskcolor="#d1d1d1"
     showgrid="false"
     inkscape:zoom="9.8333333"
     inkscape:cx="8.2372881"
     inkscape:cy="12"
     inkscape:window-width="1309"
     inkscape:window-height="456"
     inkscape:window-x="0"
     inkscape:window-y="25"
     inkscape:window-maximized="0"
     inkscape:current-layer="svg8" />
  <path
     id="rect2"
     style="fill:none"
     d="M 0,0 H 24 V 24 H 0 Z" />
  <path
     d="M8.67,5.84L7.22,4.39C8.6,3.51,10.24,3,12,3c2.74,0,5.19,1.23,6.84,3.16L21,4v6h-6l2.41-2.41C16.12,6.02,14.18,5,12,5 C10.8,5,9.66,5.31,8.67,5.84z M13,7h-2v1.17l2,2V7z M19.78,22.61l-3-3C15.39,20.48,13.76,21,12,21c-4.97,0-9-4.03-9-9 c0-1.76,0.51-3.4,1.39-4.78L1.39,4.22l1.41-1.41l18.38,18.38L19.78,22.61z M15.32,18.15L5.84,8.67C5.31,9.66,5,10.8,5,12 c0,3.86,3.14,7,7,7C13.2,19,14.34,18.69,15.32,18.15z M20.94,13h-2.02c-0.12,0.83-0.39,1.61-0.77,2.32l1.47,1.47 C20.32,15.67,20.79,14.38,20.94,13z"
     id="path6" />
</svg>
