<?xml version="1.0" encoding="UTF-8" standalone="no"?>
<svg
   enable-background="new 0 0 24 24"
   height="24"
   viewBox="0 0 24 24"
   width="24"
   version="1.1"
   id="svg14"
   sodipodi:docname="update.svg"
   inkscape:version="1.2 (dc2aeda, 2022-05-15)"
   xmlns:inkscape="http://www.inkscape.org/namespaces/inkscape"
   xmlns:sodipodi="http://sodipodi.sourceforge.net/DTD/sodipodi-0.dtd"
   xmlns="http://www.w3.org/2000/svg"
   xmlns:svg="http://www.w3.org/2000/svg">
  <defs
     id="defs18" />
  <sodipodi:namedview
     id="namedview16"
     pagecolor="#ffffff"
     bordercolor="#000000"
     borderopacity="0.25"
     inkscape:showpageshadow="2"
     inkscape:pageopacity="0.0"
     inkscape:pagecheckerboard="0"
     inkscape:deskcolor="#d1d1d1"
     showgrid="false"
     inkscape:zoom="9.8333333"
     inkscape:cx="8.2372881"
     inkscape:cy="12"
     inkscape:window-width="1309"
     inkscape:window-height="456"
     inkscape:window-x="0"
     inkscape:window-y="25"
     inkscape:window-maximized="0"
     inkscape:current-layer="svg14" />
  <path
     id="rect2"
     style="fill:none"
     d="M 0,0 H 24 V 24 H 0 Z" />
  <path
     d="M 21,10.12 H 14.22 L 16.96,7.3 C 14.23,4.6 9.81,4.5 7.08,7.2 c -2.73,2.71 -2.73,7.08 0,9.79 2.73,2.71 7.15,2.71 9.88,0 C 18.32,15.65 19,14.08 19,12.1 h 2 c 0,1.98 -0.88,4.55 -2.64,6.29 -3.51,3.48 -9.21,3.48 -12.72,0 C 2.14,14.92 2.11,9.28 5.62,5.81 9.13,2.34 14.76,2.34 18.27,5.81 L 21,3 Z M 12.5,8 v 4.25 L 16,14.33 15.28,15.54 11,13 V 8 Z"
     id="path6" />
</svg>
