<?xml version="1.0" encoding="UTF-8" standalone="no"?>
<svg
   enable-background="new 0 0 24 24"
   height="24"
   viewBox="0 0 24 24"
   width="24"
   version="1.1"
   id="svg10"
   sodipodi:docname="webhook.svg"
   inkscape:version="1.2 (dc2aeda, 2022-05-15)"
   xmlns:inkscape="http://www.inkscape.org/namespaces/inkscape"
   xmlns:sodipodi="http://sodipodi.sourceforge.net/DTD/sodipodi-0.dtd"
   xmlns="http://www.w3.org/2000/svg"
   xmlns:svg="http://www.w3.org/2000/svg">
  <defs
     id="defs14" />
  <sodipodi:namedview
     id="namedview12"
     pagecolor="#ffffff"
     bordercolor="#000000"
     borderopacity="0.25"
     inkscape:showpageshadow="2"
     inkscape:pageopacity="0.0"
     inkscape:pagecheckerboard="0"
     inkscape:deskcolor="#d1d1d1"
     showgrid="false"
     inkscape:zoom="9.8333333"
     inkscape:cx="8.2372881"
     inkscape:cy="12"
     inkscape:window-width="1309"
     inkscape:window-height="456"
     inkscape:window-x="0"
     inkscape:window-y="25"
     inkscape:window-maximized="0"
     inkscape:current-layer="svg10" />
  <path
     id="rect2"
     style="fill:none"
     d="M 0,0 H 24 V 24 H 0 Z" />
  <path
     d="m 10,15 h 5.88 c 0.27,-0.31 0.67,-0.5 1.12,-0.5 0.83,0 1.5,0.67 1.5,1.5 0,0.83 -0.67,1.5 -1.5,1.5 -0.44,0 -0.84,-0.19 -1.12,-0.5 H 11.9 C 11.44,19.28 9.42,21 7,21 4.24,21 2,18.76 2,16 2,13.58 3.72,11.56 6,11.1 v 2.07 C 4.84,13.58 4,14.7 4,16 c 0,1.65 1.35,3 3,3 1.65,0 3,-1.35 3,-3 z M 12.5,4 c 1.65,0 3,1.35 3,3 h 2 c 0,-2.76 -2.24,-5 -5,-5 v 0 c -2.76,0 -5,2.24 -5,5 0,1.43 0.6,2.71 1.55,3.62 L 6.7,14.52 C 6.02,14.66 5.5,15.27 5.5,16 c 0,0.83 0.67,1.5 1.5,1.5 0.83,0 1.5,-0.67 1.5,-1.5 0,-0.16 -0.02,-0.31 -0.07,-0.45 L 11.81,9.92 C 10.49,9.61 9.5,8.42 9.5,7 c 0,-1.65 1.35,-3 3,-3 z m 4.5,9 c -0.64,0 -1.23,0.2 -1.72,0.54 L 12.23,8.47 C 11.53,8.35 11,7.74 11,7 11,6.17 11.67,5.5 12.5,5.5 13.33,5.5 14,6.17 14,7 14,7.15 13.98,7.29 13.94,7.43 l 2.19,3.65 C 16.41,11.03 16.7,11 17,11 v 0 c 2.76,0 5,2.24 5,5 0,2.76 -2.24,5 -5,5 -1.85,0 -3.47,-1.01 -4.33,-2.5 h 2.67 c 0.48,0.32 1.05,0.5 1.66,0.5 1.65,0 3,-1.35 3,-3 0,-1.65 -1.35,-3 -3,-3 z"
     id="path6" />
</svg>
