<?xml version="1.0" encoding="UTF-8" standalone="no"?>
<svg
   enable-background="new 0 0 24 24"
   height="24"
   viewBox="0 0 24 24"
   width="24"
   version="1.1"
   id="svg18"
   sodipodi:docname="wifi_protected_setup.svg"
   inkscape:version="1.2 (dc2aeda, 2022-05-15)"
   xmlns:inkscape="http://www.inkscape.org/namespaces/inkscape"
   xmlns:sodipodi="http://sodipodi.sourceforge.net/DTD/sodipodi-0.dtd"
   xmlns="http://www.w3.org/2000/svg"
   xmlns:svg="http://www.w3.org/2000/svg">
  <defs
     id="defs22" />
  <sodipodi:namedview
     id="namedview20"
     pagecolor="#ffffff"
     bordercolor="#000000"
     borderopacity="0.25"
     inkscape:showpageshadow="2"
     inkscape:pageopacity="0.0"
     inkscape:pagecheckerboard="0"
     inkscape:deskcolor="#d1d1d1"
     showgrid="false"
     inkscape:zoom="9.8333333"
     inkscape:cx="8.2372881"
     inkscape:cy="12"
     inkscape:window-width="1309"
     inkscape:window-height="456"
     inkscape:window-x="0"
     inkscape:window-y="25"
     inkscape:window-maximized="0"
     inkscape:current-layer="svg18" />
  <path
     id="rect2"
     style="fill:none"
     d="M 0,0 H 24 V 24 H 0 Z" />
  <path
     d="M 16.71,5.29 19,3 h -8 v 8 l 2.3,-2.3 c 1.97,1.46 3.25,3.78 3.25,6.42 0,1.31 -0.32,2.54 -0.88,3.63 2.33,-1.52 3.88,-4.14 3.88,-7.13 0,-2.52 -1.11,-4.77 -2.84,-6.33 z"
     id="path6" />
  <path
     d="M 7.46,8.88 C 7.46,7.57 7.78,6.34 8.34,5.25 6,6.77 4.46,9.39 4.46,12.38 c 0,2.52 1.1,4.77 2.84,6.33 L 5,21 h 8 v -8 l -2.3,2.3 C 8.74,13.84 7.46,11.52 7.46,8.88 Z"
     id="path10" />
</svg>
