<?xml version="1.0" encoding="UTF-8" standalone="no"?>
<svg
   enable-background="new 0 0 24 24"
   height="24"
   viewBox="0 0 24 24"
   width="24"
   version="1.1"
   id="svg14"
   sodipodi:docname="work_history.svg"
   inkscape:version="1.2 (dc2aeda, 2022-05-15)"
   xmlns:inkscape="http://www.inkscape.org/namespaces/inkscape"
   xmlns:sodipodi="http://sodipodi.sourceforge.net/DTD/sodipodi-0.dtd"
   xmlns="http://www.w3.org/2000/svg"
   xmlns:svg="http://www.w3.org/2000/svg">
  <defs
     id="defs18" />
  <sodipodi:namedview
     id="namedview16"
     pagecolor="#ffffff"
     bordercolor="#000000"
     borderopacity="0.25"
     inkscape:showpageshadow="2"
     inkscape:pageopacity="0.0"
     inkscape:pagecheckerboard="0"
     inkscape:deskcolor="#d1d1d1"
     showgrid="false"
     inkscape:zoom="9.8333333"
     inkscape:cx="8.2372881"
     inkscape:cy="12"
     inkscape:window-width="1309"
     inkscape:window-height="456"
     inkscape:window-x="0"
     inkscape:window-y="25"
     inkscape:window-maximized="0"
     inkscape:current-layer="svg14" />
  <path
     id="rect2"
     style="fill:none"
     d="M 0,0 H 24 V 24 H 0 Z" />
  <path
     d="m 18,11 c 1.49,0 2.87,0.47 4,1.26 V 8 C 22,6.89 21.11,6 20,6 H 16 V 4 C 16,2.89 15.11,2 14,2 H 10 C 8.89,2 8,2.89 8,4 V 6 H 4 C 2.89,6 2.01,6.89 2.01,8 L 2,19 c 0,1.11 0.89,2 2,2 h 7.68 C 11.25,20.09 11,19.08 11,18 c 0,-3.87 3.13,-7 7,-7 z M 10,4 h 4 v 2 h -4 z"
     id="path6" />
  <path
     d="m 18,13 c -2.76,0 -5,2.24 -5,5 0,2.76 2.24,5 5,5 2.76,0 5,-2.24 5,-5 0,-2.76 -2.24,-5 -5,-5 z M 19.65,20.35 17.5,18.2 V 15 h 1 v 2.79 l 1.85,1.85 z"
     id="path8" />
</svg>
