<?xml version="1.0" encoding="UTF-8" standalone="no"?>
<!-- Created with Inkscape (http://www.inkscape.org/) -->

<svg
   sodipodi:docname="Himotsuki Kawari Jingasa.svg"
   viewBox="0 0 795.03467 793.70135"
   height="793.70135"
   width="795.03467"
   id="svg54275"
   version="1.1"
   inkscape:version="1.2 (dc2aeda, 2022-05-15)"
   xmlns:inkscape="http://www.inkscape.org/namespaces/inkscape"
   xmlns:sodipodi="http://sodipodi.sourceforge.net/DTD/sodipodi-0.dtd"
   xmlns="http://www.w3.org/2000/svg"
   xmlns:svg="http://www.w3.org/2000/svg">
  <defs
     id="defs54279">
    <clipPath
       clipPathUnits="userSpaceOnUse"
       id="clipPath54624">
      <path
         d="M -538.2217,577.9479 H 58.054302 V -17.3281 H -538.2217 Z"
         id="path54626"
         style="stroke-width:0.999998" />
    </clipPath>
    <clipPath
       clipPathUnits="userSpaceOnUse"
       id="clipPath54628">
      <path
         d="M -584.1943,578.9381 H 12.081702 V -16.3379 H -584.1943 Z"
         id="path54630"
         style="stroke-width:0.999998" />
    </clipPath>
    <clipPath
       clipPathUnits="userSpaceOnUse"
       id="clipPath54632">
      <path
         d="M -586.5449,579.5026 H 9.7311024 V -15.7734 H -586.5449 Z"
         id="path54634"
         style="stroke-width:0.999998" />
    </clipPath>
    <clipPath
       clipPathUnits="userSpaceOnUse"
       id="clipPath54636">
      <path
         d="M -556.4014,578.0143 H 39.874602 V -17.2617 H -556.4014 Z"
         id="path54638"
         style="stroke-width:0.999998" />
    </clipPath>
    <clipPath
       clipPathUnits="userSpaceOnUse"
       id="clipPath54640">
      <path
         d="M -550.2637,577.3248 H 46.012302 V -17.9512 H -550.2637 Z"
         id="path54642"
         style="stroke-width:0.999998" />
    </clipPath>
    <clipPath
       clipPathUnits="userSpaceOnUse"
       id="clipPath54644">
      <path
         d="M -568.2266,575.819 H 28.049402 V -19.457 H -568.2266 Z"
         id="path54646"
         style="stroke-width:0.999998" />
    </clipPath>
    <clipPath
       clipPathUnits="userSpaceOnUse"
       id="clipPath54648">
      <path
         d="M -557.4951,577.8502 H 38.780902 V -17.4258 H -557.4951 Z"
         id="path54650"
         style="stroke-width:0.999998" />
    </clipPath>
    <clipPath
       clipPathUnits="userSpaceOnUse"
       id="clipPath54652">
      <path
         d="M -576.3691,585.5885 H 19.906902 V -9.6875 H -576.3691 Z"
         id="path54654"
         style="stroke-width:0.999998" />
    </clipPath>
    <clipPath
       clipPathUnits="userSpaceOnUse"
       id="clipPath54656">
      <path
         d="M -574.5459,585.8522 H 21.730102 V -9.4238 H -574.5459 Z"
         id="path54658"
         style="stroke-width:0.999998" />
    </clipPath>
    <clipPath
       clipPathUnits="userSpaceOnUse"
       id="clipPath54660">
      <path
         d="M -572.8174,586.1354 H 23.458602 V -9.1406 H -572.8174 Z"
         id="path54662"
         style="stroke-width:0.999998" />
    </clipPath>
    <clipPath
       clipPathUnits="userSpaceOnUse"
       id="clipPath54664">
      <path
         d="M -567.7754,585.8522 H 28.500602 V -9.4238 H -567.7754 Z"
         id="path54666"
         style="stroke-width:0.999998" />
    </clipPath>
    <clipPath
       clipPathUnits="userSpaceOnUse"
       id="clipPath54668">
      <path
         d="M -564.5732,585.8483 H 31.702802 V -9.4277 H -564.5732 Z"
         id="path54670"
         style="stroke-width:0.999998" />
    </clipPath>
    <clipPath
       clipPathUnits="userSpaceOnUse"
       id="clipPath54672">
      <path
         d="M -561.4131,585.8522 H 34.862902 V -9.4238 H -561.4131 Z"
         id="path54674"
         style="stroke-width:0.999998" />
    </clipPath>
    <clipPath
       clipPathUnits="userSpaceOnUse"
       id="clipPath54676">
      <path
         d="M -557.0645,585.8483 H 39.211502 V -9.4277 H -557.0645 Z"
         id="path54678"
         style="stroke-width:0.999998" />
    </clipPath>
    <clipPath
       clipPathUnits="userSpaceOnUse"
       id="clipPath54680">
      <path
         d="M -553.8975,585.8483 H 42.378502 V -9.4277 H -553.8975 Z"
         id="path54682"
         style="stroke-width:0.999998" />
    </clipPath>
    <clipPath
       clipPathUnits="userSpaceOnUse"
       id="clipPath54684">
      <path
         d="M -548.9834,585.8522 H 47.292602 V -9.4238 H -548.9834 Z"
         id="path54686"
         style="stroke-width:0.999998" />
    </clipPath>
    <clipPath
       clipPathUnits="userSpaceOnUse"
       id="clipPath54688">
      <path
         d="M -545.417,584.5729 H 50.859002 V -10.7031 H -545.417 Z"
         id="path54690"
         style="stroke-width:0.999998" />
    </clipPath>
    <clipPath
       clipPathUnits="userSpaceOnUse"
       id="clipPath54692">
      <path
         d="M -542.9326,584.5729 H 53.343402 V -10.7031 H -542.9326 Z"
         id="path54694"
         style="stroke-width:0.999998" />
    </clipPath>
    <clipPath
       clipPathUnits="userSpaceOnUse"
       id="clipPath54696">
      <path
         d="M -540.8213,585.8483 H 55.454702 V -9.4277 H -540.8213 Z"
         id="path54698"
         style="stroke-width:0.999998" />
    </clipPath>
    <clipPath
       clipPathUnits="userSpaceOnUse"
       id="clipPath54700">
      <path
         d="M -536.6982,584.5729 H 59.577802 V -10.7031 H -536.6982 Z"
         id="path54702"
         style="stroke-width:0.999998" />
    </clipPath>
    <clipPath
       clipPathUnits="userSpaceOnUse"
       id="clipPath54704">
      <path
         d="M -528.0898,575.3815 H 68.186202 V -19.8945 H -528.0898 Z"
         id="path54706"
         style="stroke-width:0.999998" />
    </clipPath>
    <clipPath
       clipPathUnits="userSpaceOnUse"
       id="clipPath54708">
      <path
         d="M -531.1924,581.5885 H 65.083602 V -13.6875 H -531.1924 Z"
         id="path54710"
         style="stroke-width:0.999998" />
    </clipPath>
    <clipPath
       clipPathUnits="userSpaceOnUse"
       id="clipPath54826">
      <path
         d="m -491.4346,442.4928 h 596.276 v -595.276 h -596.276 z"
         id="path54828"
         style="stroke-width:0.999998" />
    </clipPath>
  </defs>
  <sodipodi:namedview
     id="namedview54277"
     pagecolor="#ffffff"
     bordercolor="#000000"
     borderopacity="0.25"
     inkscape:showpageshadow="2"
     inkscape:pageopacity="0.0"
     inkscape:pagecheckerboard="0"
     inkscape:deskcolor="#d1d1d1"
     showgrid="false"
     inkscape:zoom="0.29734106"
     inkscape:cx="-215.24105"
     inkscape:cy="396.85068"
     inkscape:window-width="1419"
     inkscape:window-height="456"
     inkscape:window-x="0"
     inkscape:window-y="25"
     inkscape:window-maximized="0"
     inkscape:current-layer="svg54275">
    <inkscape:page
       x="0"
       y="0"
       id="page54281"
       width="795.03467"
       height="793.70135" />
  </sodipodi:namedview>
  <path
     d="M 655.246 589.99 C 652.937 588.747 647.41 587.501 632.371 591.55 C 626.086 593.242 621.125 596.287 617.335 599.498 C 621.645 601.894 624.563 606.487 624.563 611.766 C 624.563 616.126 622.575 620.021 619.454 622.597 C 623.579 625.107 628.755 627.269 634.959 628.023 C 650.419 629.911 655.715 627.897 657.826 626.339 C 661.163 623.875 663.898 618.269 663.185 607.693 C 662.471 597.118 658.898 591.959 655.246 589.99 M 700.941 591.313 C 697.513 583.539 689.715 578.141 680.683 578.217 C 673.755 578.277 667.615 581.545 663.637 586.591 C 667.494 590.706 670.203 597.238 671.095 607.159 C 671.606 617.154 669.822 624.018 666.553 628.633 C 670.49 632.086 675.651 634.167 681.299 634.091 C 690.33 633.969 698.007 628.399 701.265 620.553 C 708.385 619.391 713.85 613.25 713.901 605.79 C 713.685 598.334 708.086 592.315 700.941 591.313 M 709.489 494.576 C 707.134 486.412 700.131 480.017 691.17 478.881 C 684.298 478.009 677.775 480.425 673.155 484.892 C 676.425 489.485 678.233 496.321 677.785 506.274 C 676.95 516.245 674.261 522.808 670.402 526.943 C 673.839 530.894 678.675 533.649 684.282 534.331 C 693.249 535.419 701.605 530.933 705.885 523.594 C 713.097 523.399 719.335 518.048 720.387 510.662 C 721.175 503.245 716.434 496.529 709.489 494.576 M 624.079 514.253 C 627.891 517.441 632.875 520.452 639.175 522.1 C 654.243 526.045 659.761 524.758 662.061 523.498 C 665.701 521.504 669.163 516.316 669.875 505.74 C 670.587 495.165 667.739 489.573 664.385 487.133 C 662.262 485.589 656.953 483.613 641.506 485.608 C 635.342 486.405 630.209 488.581 626.113 491.105 C 629.079 493.517 631.058 497.121 631.294 501.245 C 631.313 501.524 631.315 501.777 631.315 502.001 C 631.31 507.25 628.411 511.85 624.079 514.253 M 373.829 432.9 C 380.113 457.894 390.388 481.996 404.481 504.198 C 408.532 504.717 412.663 504.99 416.853 504.988 C 417.769 504.988 418.673 504.954 419.583 504.93 C 404.297 482.736 393.203 458.332 386.452 432.9 Z M 455.386 432.9 L 442.756 432.9 C 437.495 451.652 427.823 468.545 414.953 482.438 C 417.007 486.126 419.168 489.761 421.441 493.345 C 437.62 476.796 449.532 456.056 455.386 432.9 M 284.955 432.9 C 284.862 432.964 284.766 433.024 284.671 433.089 C 271.01 442.584 259.283 453.334 250.82 465.061 C 247.923 469.081 245.414 473.236 243.354 477.496 C 246.307 480.649 249.442 483.629 252.735 486.43 C 254.638 481.684 257.312 476.925 260.719 472.198 C 268.979 460.704 281.476 449.626 296.335 439.957 C 295.872 438.17 295.44 436.368 295.054 434.55 L 294.703 432.9 Z M 610.513 605.667 C 563.885 605.547 517.049 591.487 476.628 562.75 C 472.608 564.839 468.552 566.909 464.426 568.941 C 508.084 601.701 559.445 617.745 610.483 617.867 L 610.499 617.867 C 613.862 617.867 616.589 615.146 616.598 611.785 C 616.605 608.414 613.882 605.675 610.513 605.667 M 617.615 508.086 C 620.981 507.902 623.561 505.026 623.378 501.665 C 623.191 498.297 620.319 495.72 616.955 495.902 L 616.953 495.902 C 602.79 496.676 588 498.49 572.697 501.545 C 517.54 512.605 482.07 539.687 442.099 557.198 C 409.197 571.695 383.34 580.959 356.228 580.941 C 347.163 580.941 337.908 579.917 328.091 577.675 C 307.69 573.031 287.638 565.555 273.148 553.75 C 262.542 545.037 254.76 534.318 251.312 520.056 C 246.482 517.037 241.848 513.742 237.432 510.184 C 239.244 533.339 250.178 550.933 265.455 563.222 C 282.26 576.837 303.958 584.659 325.372 589.571 C 336.033 592.003 346.241 593.141 356.228 593.141 C 386.252 593.123 413.824 582.966 447.013 568.365 C 488.789 549.881 522.865 523.886 575.085 513.512 C 589.818 510.569 604.031 508.829 617.615 508.086 M 425.663 532.714 C 430.501 538.323 435.597 543.774 441.013 549.001 C 444.973 547.235 448.915 545.365 452.859 543.409 C 448.48 539.347 444.301 535.138 440.303 530.818 C 435.515 531.733 430.628 532.365 425.663 532.714 M 372.88 525.055 C 367.208 522.912 361.731 520.368 356.489 517.457 C 346.764 519.972 336.567 521.313 326.055 521.313 C 270.478 521.31 223.646 483.906 209.342 432.9 L 196.714 432.9 C 211.33 490.72 263.69 533.511 326.055 533.514 C 342.533 533.514 358.309 530.517 372.88 525.055 M 530.897 432.9 L 518.365 432.9 C 507.381 478.796 466.118 512.917 416.855 512.92 C 367.595 512.917 326.331 478.796 315.346 432.9 L 302.814 432.9 C 314.026 485.594 360.82 525.118 416.855 525.121 C 472.893 525.118 519.686 485.594 530.897 432.9 M 453.079 236.907 C 444.853 192.915 406.276 159.611 359.897 159.611 C 313.519 159.611 274.942 192.915 266.718 236.907 C 296.552 229.474 327.761 225.518 359.895 225.518 C 392.031 225.518 423.241 229.475 453.079 236.907 M 426.08 295.017 C 425.403 302.889 419.672 309.323 411.773 309.323 C 403.871 309.323 397.465 302.917 397.465 295.017 C 397.465 294.276 397.539 293.556 397.648 292.845 C 397.925 290.937 398.065 289.027 398.065 287.144 C 398.065 275.155 393.523 264.433 387.752 255.634 C 404.429 258.639 427.945 273.297 426.08 295.017 M 359.895 307.468 C 349.932 307.468 341.909 297.86 341.909 285.659 C 341.909 265.984 359.895 250.123 359.895 250.123 C 359.895 250.123 377.88 265.984 377.88 285.659 C 377.88 297.86 369.857 307.468 359.895 307.468 M 322.143 292.845 C 322.251 293.556 322.325 294.276 322.325 295.017 C 322.325 302.917 315.919 309.323 308.016 309.323 C 300.116 309.323 294.386 302.889 293.711 295.017 C 291.843 273.297 315.36 258.639 332.039 255.634 C 326.268 264.433 321.723 275.155 321.723 287.144 C 321.723 289.027 321.864 290.937 322.143 292.845 M 359.895 233.448 C 219.22 233.448 96.5914 310.641 32.0049 424.966 L 687.791 424.966 C 623.203 310.641 500.572 233.448 359.895 233.448"
     style="fill:#000000;fill-opacity:1;fill-rule:nonzero;stroke:none"
     id="path54395" />
</svg>
