<?xml version="1.0" encoding="UTF-8" standalone="no"?>
<!-- Created with Inkscape (http://www.inkscape.org/) -->

<svg
   version="1.1"
   id="svg47657"
   width="793.70135"
   height="793.70135"
   viewBox="0 0 793.70135 793.70135"
   sodipodi:docname="Itowani Nikaigasa.svg"
   inkscape:version="1.2 (dc2aeda, 2022-05-15)"
   xmlns:inkscape="http://www.inkscape.org/namespaces/inkscape"
   xmlns:sodipodi="http://sodipodi.sourceforge.net/DTD/sodipodi-0.dtd"
   xmlns="http://www.w3.org/2000/svg"
   xmlns:svg="http://www.w3.org/2000/svg">
  <defs
     id="defs47661">
    <clipPath
       clipPathUnits="userSpaceOnUse"
       id="clipPath48714">
      <path
         d="m -369.9492,539.2484 h 595.276 v -841.89 h -595.276 z"
         id="path48716"
         style="stroke-width:0.999998" />
    </clipPath>
    <clipPath
       clipPathUnits="userSpaceOnUse"
       id="clipPath48720">
      <path
         d="m -391.1445,534.2855 h 595.276 v -841.89 h -595.276 z"
         id="path48722"
         style="stroke-width:0.999998" />
    </clipPath>
    <clipPath
       clipPathUnits="userSpaceOnUse"
       id="clipPath48726">
      <path
         d="m -318.9902,533.8031 h 595.276 v -841.89 h -595.276 z"
         id="path48728"
         style="stroke-width:0.999998" />
    </clipPath>
    <clipPath
       clipPathUnits="userSpaceOnUse"
       id="clipPath48732">
      <path
         d="m -241.4438,405.555 h 595.276 v -841.89 h -595.276 z"
         id="path48734"
         style="stroke-width:0.999998" />
    </clipPath>
    <clipPath
       clipPathUnits="userSpaceOnUse"
       id="clipPath48738">
      <path
         d="m -302.3145,546.68 h 595.276 v -841.89 h -595.276 z"
         id="path48740"
         style="stroke-width:0.999998" />
    </clipPath>
    <clipPath
       clipPathUnits="userSpaceOnUse"
       id="clipPath48745">
      <path
         d="M -532.916,384.639 H 62.359997 v -841.89 H -532.916 Z"
         id="path48747"
         style="stroke-width:0.999998" />
    </clipPath>
    <clipPath
       clipPathUnits="userSpaceOnUse"
       id="clipPath48751">
      <path
         d="m -256.9019,385.8539 h 595.276 v -841.89 h -595.276 z"
         id="path48753"
         style="stroke-width:0.999998" />
    </clipPath>
    <clipPath
       clipPathUnits="userSpaceOnUse"
       id="clipPath48757">
      <path
         d="m -260.2612,381.3714 h 595.276 v -841.89 h -595.276 z"
         id="path48759"
         style="stroke-width:0.999998" />
    </clipPath>
    <clipPath
       clipPathUnits="userSpaceOnUse"
       id="clipPath48763">
      <path
         d="m -426.8672,352.0052 h 595.276 v -841.89 h -595.276 z"
         id="path48765"
         style="stroke-width:0.999998" />
    </clipPath>
    <clipPath
       clipPathUnits="userSpaceOnUse"
       id="clipPath48769">
      <path
         d="m -284.5669,372.2816 h 595.276 v -841.89 h -595.276 z"
         id="path48771"
         style="stroke-width:0.999998" />
    </clipPath>
    <clipPath
       clipPathUnits="userSpaceOnUse"
       id="clipPath48775">
      <path
         d="m -339.7148,338.4359 h 595.276 v -841.89 h -595.276 z"
         id="path48777"
         style="stroke-width:0.999998" />
    </clipPath>
    <clipPath
       clipPathUnits="userSpaceOnUse"
       id="clipPath48781">
      <path
         d="m -362.9746,340.6625 h 595.276 v -841.89 h -595.276 z"
         id="path48783"
         style="stroke-width:0.999998" />
    </clipPath>
    <clipPath
       clipPathUnits="userSpaceOnUse"
       id="clipPath48787">
      <path
         d="m -404.0527,347.0404 h 595.276 v -841.89 h -595.276 z"
         id="path48789"
         style="stroke-width:0.999998" />
    </clipPath>
    <clipPath
       clipPathUnits="userSpaceOnUse"
       id="clipPath48793">
      <path
         d="M -510.582,535.3031 H 84.694 v -841.89 h -595.276 z"
         id="path48795"
         style="stroke-width:0.999998" />
    </clipPath>
    <clipPath
       clipPathUnits="userSpaceOnUse"
       id="clipPath48799">
      <path
         d="m -352.9199,405.973 h 595.276 v -841.89 h -595.276 z"
         id="path48801"
         style="stroke-width:0.999998" />
    </clipPath>
    <clipPath
       clipPathUnits="userSpaceOnUse"
       id="clipPath48806">
      <path
         d="m -473.7969,597.1019 h 595.276 v -841.89 h -595.276 z"
         id="path48808"
         style="stroke-width:0.999998" />
    </clipPath>
    <clipPath
       clipPathUnits="userSpaceOnUse"
       id="clipPath48812">
      <path
         d="m -302.2344,516.9906 h 595.276 v -841.89 h -595.276 z"
         id="path48814"
         style="stroke-width:0.999998" />
    </clipPath>
    <clipPath
       clipPathUnits="userSpaceOnUse"
       id="clipPath48818">
      <path
         d="m -395.3008,532.5921 h 595.276 v -841.89 h -595.276 z"
         id="path48820"
         style="stroke-width:0.999998" />
    </clipPath>
    <clipPath
       clipPathUnits="userSpaceOnUse"
       id="clipPath48824">
      <path
         d="m -217.3716,535.6566 h 595.276 v -841.89 h -595.276 z"
         id="path48826"
         style="stroke-width:0.999998" />
    </clipPath>
    <clipPath
       clipPathUnits="userSpaceOnUse"
       id="clipPath48830">
      <path
         d="m -282.2622,530.6605 h 595.276 v -841.89 h -595.276 z"
         id="path48832"
         style="stroke-width:0.999998" />
    </clipPath>
    <clipPath
       clipPathUnits="userSpaceOnUse"
       id="clipPath48836">
      <path
         d="m -243.729,544.0179 h 595.276 v -841.89 h -595.276 z"
         id="path48838"
         style="stroke-width:0.999998" />
    </clipPath>
    <clipPath
       clipPathUnits="userSpaceOnUse"
       id="clipPath48842">
      <path
         d="m -360.8105,544.0179 h 595.276 v -841.89 h -595.276 z"
         id="path48844"
         style="stroke-width:0.999998" />
    </clipPath>
    <clipPath
       clipPathUnits="userSpaceOnUse"
       id="clipPath48848">
      <path
         d="M -510.582,535.3031 H 84.694 v -841.89 h -595.276 z"
         id="path48850"
         style="stroke-width:0.999998" />
    </clipPath>
    <clipPath
       clipPathUnits="userSpaceOnUse"
       id="clipPath48854">
      <path
         d="m -341.7559,493.9925 h 595.276 v -841.89 h -595.276 z"
         id="path48856"
         style="stroke-width:0.999998" />
    </clipPath>
    <clipPath
       clipPathUnits="userSpaceOnUse"
       id="clipPath48860">
      <path
         d="m -286.1899,528.6078 h 595.276 v -841.89 h -595.276 z"
         id="path48862"
         style="stroke-width:0.999998" />
    </clipPath>
  </defs>
  <sodipodi:namedview
     id="namedview47659"
     pagecolor="#ffffff"
     bordercolor="#000000"
     borderopacity="0.25"
     inkscape:showpageshadow="2"
     inkscape:pageopacity="0.0"
     inkscape:pagecheckerboard="0"
     inkscape:deskcolor="#d1d1d1"
     showgrid="false"
     inkscape:zoom="0.21024124"
     inkscape:cx="-606.44619"
     inkscape:cy="361.4895"
     inkscape:window-width="1419"
     inkscape:window-height="456"
     inkscape:window-x="0"
     inkscape:window-y="25"
     inkscape:window-maximized="0"
     inkscape:current-layer="svg47657">
    <inkscape:page
       x="0"
       y="0"
       id="page47663"
       width="793.70135"
       height="793.70135" />
  </sodipodi:namedview>
  <path
     d="M 680.776,549.737 C 626.336,447.873 519.318,378.597 396.19,378.597 c -123.134,0 -230.174,69.255 -284.623,171.129 86.418,-40.664 182.843,-63.388 284.559,-63.388 101.749,0 198.221,22.724 284.65,63.399"
     style="fill:#231f20;fill-opacity:1;fill-rule:nonzero;stroke:none"
     id="path47677" />
  <path
     d="m 324.972,561.357 z m 0,20.312 z"
     style="fill:#231f20;fill-opacity:1;fill-rule:nonzero;stroke:none"
     id="path47681" />
  <path
     d="m 481.081,561.357 z m 0,20.312 z"
     style="fill:#231f20;fill-opacity:1;fill-rule:nonzero;stroke:none"
     id="path47685" />
  <path
     d="m 455.675,494.657 c -21.593,51.125 -71.949,87.002 -130.702,87.013 -48.886,-0.011 -91.989,-24.813 -117.537,-62.584 6.926,-2.036 13.908,-3.908 20.92,-5.726 22.256,29.12 57.235,47.933 96.617,47.997 47.925,-0.096 89.327,-27.875 109.221,-68.288 7.164,0.408 14.366,0.949 21.481,1.588"
     style="fill:#231f20;fill-opacity:1;fill-rule:nonzero;stroke:none"
     id="path47689" />
  <path
     d="m 289.829,550.209 c -22.091,-7.068 -41.356,-20.591 -55.531,-38.349 27.068,-6.75 54.772,-11.896 83.02,-15.235 -3.164,13.12 -10.509,32.092 -27.489,53.584 m 28.259,5.279 c -7.719,-0.459 -15.26,-1.623 -22.508,-3.527 17.398,-22.507 24.636,-42.403 27.64,-55.984 6.96,-0.76 13.95,-1.408 20.969,-1.948 -2.433,14.571 -9.001,36.625 -26.101,61.459 m -50.778,20.054 c -26.816,-11.448 -49.57,-30.625 -65.487,-54.757 -31.135,9.473 -61.298,21.172 -90.258,34.919 50.742,9.426 102.359,16.42 154.809,20.748 0.316,-0.3 0.626,-0.598 0.936,-0.91"
     style="fill:#231f20;fill-opacity:1;fill-rule:nonzero;stroke:none"
     id="path47693" />
  <path
     d="m 527.068,546.123 c 16.271,-7.079 30.633,-17.817 42.033,-31.123 -24.752,-6.554 -50.072,-11.817 -75.893,-15.585 6.985,12.236 17.943,28.804 33.86,46.708 m 22.904,24.011 c 1.263,1.273 2.481,2.492 3.705,3.7 43.016,-4.331 85.38,-10.424 127.099,-18.164 -25.523,-12.078 -51.916,-22.471 -79.148,-31.195 -13.375,18.987 -31.055,34.724 -51.656,45.659"
     style="fill:#231f20;fill-opacity:1;fill-rule:nonzero;stroke:none"
     id="path47697" />
  <path
     d="m 402.979,525.321 c 10.159,-9.263 18.711,-20.255 25.104,-32.604 -10.588,-0.495 -21.247,-0.727 -31.957,-0.727 -6.138,0 -12.267,0.11 -18.371,0.287 6.392,12.479 14.981,23.692 25.224,33.044"
     style="fill:#231f20;fill-opacity:1;fill-rule:nonzero;stroke:none"
     id="path47701" />
  <path
     d="m 376.35,543.547 c -11.545,-11.695 -21.156,-25.417 -28.34,-40.421 -3.313,14.09 -9.829,32.374 -23.219,52.609 0.102,0 -0.106,0 0,0 18.474,-0.032 36.058,-4.48 51.559,-12.188"
     style="fill:#231f20;fill-opacity:1;fill-rule:nonzero;stroke:none"
     id="path47705" />
  <path
     d="m 381.587,540.81 c 6.061,-3.417 11.803,-7.339 17.127,-11.755 -11.13,-10.286 -20.376,-22.778 -27.09,-36.581 -7.269,0.276 -14.522,0.683 -21.722,1.191 7.354,17.798 18.206,33.838 31.685,47.145"
     style="fill:#231f20;fill-opacity:1;fill-rule:nonzero;stroke:none"
     id="path47709" />
  <path
     d="m 493.266,554.998 c -17.82,-22.031 -28.568,-41.287 -34.443,-53.445 -7.292,15.716 -17.21,29.917 -29.226,42.049 15.51,7.719 32.984,12.079 51.478,12.112 4.115,-0.011 8.183,-0.289 12.191,-0.716"
     style="fill:#231f20;fill-opacity:1;fill-rule:nonzero;stroke:none"
     id="path47713" />
  <path
     d="m 521.526,548.381 c -6.943,2.596 -14.191,4.541 -21.695,5.771 -20.953,-25.362 -32.425,-47.148 -37.789,-58.891 8.028,0.795 16.017,1.699 23.965,2.765 0.792,1.464 1.647,3.008 2.555,4.604 6.961,12.183 17.537,28.199 32.964,45.751"
     style="fill:#231f20;fill-opacity:1;fill-rule:nonzero;stroke:none"
     id="path47717" />
  <path
     d="m 425.32,547.737 c -5.339,4.981 -10.989,9.633 -17.013,13.771 21.268,12.762 46.198,20.15 72.773,20.161 47.27,-0.011 89.154,-23.252 114.956,-58.959 -6.907,-2.148 -13.859,-4.208 -20.862,-6.134 -22.33,27.281 -56.166,44.716 -94.094,44.781 -20.172,-0.032 -39.008,-4.896 -55.76,-13.62"
     style="fill:#231f20;fill-opacity:1;fill-rule:nonzero;stroke:none"
     id="path47721" />
  <path
     d="m 403.086,564.907 c -11.407,7.151 -23.883,12.743 -37.107,16.571 10.028,0.192 20.087,0.276 30.147,0.276 14.324,0 28.616,-0.204 42.877,-0.596 -12.774,-3.798 -24.854,-9.324 -35.917,-16.251"
     style="fill:#231f20;fill-opacity:1;fill-rule:nonzero;stroke:none"
     id="path47725" />
  <path
     d="M 710.555,348.852 C 650.422,236.339 532.201,159.816 396.196,159.816 c -136.021,0 -254.258,76.499 -314.4061,189.023 95.4571,-44.896 201.9741,-70 314.3311,-70 112.396,0 218.961,25.09 314.434,70.013"
     style="fill:#231f20;fill-opacity:1;fill-rule:nonzero;stroke:none"
     id="path47729" />
  <path
     d="m 322.15559,161.15482 c 23.88667,-4.976 48.68267,-7.568 74.03333,-7.568 25.348,0 50.10533,2.592 73.988,7.55733 -8.98133,-32.62133 -38.672,-56.59333 -73.99733,-56.59333 -35.32667,0 -65.05067,23.972 -74.024,56.604"
     style="fill:#231f20;fill-opacity:1;fill-rule:nonzero;stroke:none;stroke-width:1.33333"
     id="path47733" />
  <path
     d="m 321.925,376.74 c -43.059,-8.251 -79.824,-34.472 -102.214,-70.574 -47.918,11.779 -93.998,28.305 -137.9227,49.278 77.9247,13.836 156.8767,23.277 237.5997,27.001 0.794,-1.934 1.618,-3.844 2.537,-5.705"
     style="fill:#231f20;fill-opacity:1;fill-rule:nonzero;stroke:none"
     id="path47737" />
  <path
     d="m 342.536,350.472 c -6.841,5.839 -12.699,12.748 -17.361,20.513 -41.552,-7.325 -77.129,-32.013 -99.081,-66.35 7.82,-1.839 15.666,-3.614 23.588,-5.195 21.381,29.007 54.786,48.439 92.854,51.032"
     style="fill:#231f20;fill-opacity:1;fill-rule:nonzero;stroke:none"
     id="path47741" />
  <path
     d="m 347.015,344.495 c -17.676,-14.517 -32.085,-32.949 -41.979,-53.891 -16.357,1.995 -32.542,4.479 -48.523,7.534 21.156,27.229 53.718,45.08 90.502,46.357"
     style="fill:#231f20;fill-opacity:1;fill-rule:nonzero;stroke:none"
     id="path47745" />
  <path
     d="m 379.423,332.375 c -9.017,1.861 -17.559,5.233 -25.245,9.771 -17.895,-13.906 -32.611,-31.758 -42.673,-52.356 8.015,-0.912 16.065,-1.656 24.167,-2.3 10.607,18.398 25.684,33.852 43.751,44.885"
     style="fill:#231f20;fill-opacity:1;fill-rule:nonzero;stroke:none"
     id="path47749" />
  <path
     d="m 452.953,287.248 c -11.469,18.661 -27.815,33.935 -47.323,44.011 -3.122,-0.367 -6.224,-0.61 -9.452,-0.61 -2.33,0 -4.51,0.12 -6.797,0.304 -19.317,-10.109 -35.412,-25.382 -46.769,-43.962 17.637,-1.24 35.485,-1.923 53.508,-1.923 19.161,0 38.093,0.779 56.833,2.18"
     style="fill:#231f20;fill-opacity:1;fill-rule:nonzero;stroke:none"
     id="path47753" />
  <path
     d="m 483.966,290.217 c -10.344,20.976 -25.443,39.165 -43.915,53.108 -7.494,-4.72 -15.798,-8.272 -24.663,-10.391 18.409,-11.034 33.761,-26.582 44.547,-45.21 8.055,0.678 16.062,1.556 24.031,2.493"
     style="fill:#231f20;fill-opacity:1;fill-rule:nonzero;stroke:none"
     id="path47757" />
  <path
     d="m 569.156,305.34 c -22.524,34.775 -59.107,59.584 -101.636,66.18 -4.666,-7.911 -10.621,-14.908 -17.522,-20.856 39.077,-1.669 73.515,-21.159 95.522,-50.58 7.925,1.629 15.811,3.383 23.636,5.256"
     style="fill:#231f20;fill-opacity:1;fill-rule:nonzero;stroke:none"
     id="path47761" />
  <path
     d="m 538.737,298.721 c -15.901,-3.1 -31.995,-5.657 -48.271,-7.715 -9.877,20.784 -24.213,39.072 -41.789,53.49 36.519,-1.25 68.883,-18.872 90.06,-45.775"
     style="fill:#231f20;fill-opacity:1;fill-rule:nonzero;stroke:none"
     id="path47765" />
  <path
     d="m 470.56,377.297 c 44.211,-7.469 82.01,-33.764 105.005,-70.436 46.88,11.716 91.976,28.021 134.989,48.548 -77.901,13.833 -156.91,23.279 -237.663,27.012 -0.711,-1.74 -1.508,-3.441 -2.331,-5.124"
     style="fill:#231f20;fill-opacity:1;fill-rule:nonzero;stroke:none"
     id="path47769" />
  <path
     d="M 680.776,549.737 C 626.336,447.873 519.318,378.597 396.19,378.597 c -123.134,0 -230.174,69.255 -284.623,171.129 86.418,-40.664 182.843,-63.388 284.559,-63.388 101.749,0 198.221,22.724 284.65,63.399"
     style="fill:#231f20;fill-opacity:1;fill-rule:nonzero;stroke:none"
     id="path47773" />
  <path
     d="m 326.99799,380.50055 c 22.30933,-4.81067 45.45467,-7.38 69.192,-7.38 23.7,0 46.808,2.508 69.07866,7.30133 -12.44266,-25.752 -38.67466,-43.53333 -69.08933,-43.53333 -30.46133,0 -56.764,17.77867 -69.18133,43.612"
     style="fill:#231f20;fill-opacity:1;fill-rule:nonzero;stroke:none;stroke-width:1.33333"
     id="path47777" />
  <path
     d="m 631.729,632.136 c -2.205,2.203 -4.451,4.372 -6.719,6.511 -24.464,-16.055 -50.83,-35.748 -72.627,-57.555 -2.768,-2.779 -5.394,-5.527 -7.888,-8.253 -6.566,3.164 -13.107,5.761 -20.175,7.933 4.18,4.831 8.784,9.684 13.743,14.635 21.836,21.786 47.346,41.136 71.299,57.148 -57.786,48.19 -132.034,77.127 -213.178,77.127 -75.038,0 -144.199,-24.768 -199.883,-66.609 28.237,-17.724 60.618,-40.888 87.462,-67.666 3.795,-3.787 7.494,-7.516 10.828,-11.247 -7.514,-1.56 -14.702,-3.764 -21.753,-6.425 -1.091,1.133 -2.256,2.213 -3.4,3.357 -27.052,27.068 -61.111,50.885 -89.888,68.523 -6.521,-5.591 -12.823,-11.406 -18.894,-17.479 -60.298,-60.333 -97.5589,-143.508 -97.5589,-235.533 0,-92.037 37.2609,-175.217 97.5589,-235.546 60.323,-60.292 143.503,-97.553 235.528,-97.553 92.027,0 175.217,37.261 235.545,97.553 60.3,60.329 97.554,143.509 97.554,235.546 0,92.025 -37.254,175.2 -97.554,235.533 M 396.184,36.128 C 197.109,36.137 35.7305,197.516 35.7198,396.603 35.7305,595.672 197.109,757.05 396.184,757.06 595.27,757.05 756.647,595.672 756.647,396.603 756.647,197.516 595.27,36.137 396.184,36.128"
     style="fill:#231f20;fill-opacity:1;fill-rule:nonzero;stroke:none"
     id="path47781" />
</svg>
