<?xml version="1.0" encoding="UTF-8" standalone="no"?>
<!-- Created with Inkscape (http://www.inkscape.org/) -->

<svg
   version="1.1"
   id="svg58283"
   width="795.03467"
   height="793.70135"
   viewBox="0 0 795.03467 793.70135"
   sodipodi:docname="Maruni Ashigaru Kasa.svg"
   inkscape:version="1.2 (dc2aeda, 2022-05-15)"
   xmlns:inkscape="http://www.inkscape.org/namespaces/inkscape"
   xmlns:sodipodi="http://sodipodi.sourceforge.net/DTD/sodipodi-0.dtd"
   xmlns="http://www.w3.org/2000/svg"
   xmlns:svg="http://www.w3.org/2000/svg">
  <defs
     id="defs58287">
    <clipPath
       clipPathUnits="userSpaceOnUse"
       id="clipPath58776">
      <path
         d="M -553.8975,585.8483 H 42.378504 V -9.4277027 H -553.8975 Z"
         id="path58778"
         style="stroke-width:0.999998" />
    </clipPath>
    <clipPath
       clipPathUnits="userSpaceOnUse"
       id="clipPath58782">
      <path
         d="M -557.0645,585.8483 H 39.211501 V -9.4277027 H -557.0645 Z"
         id="path58784"
         style="stroke-width:0.999998" />
    </clipPath>
    <clipPath
       clipPathUnits="userSpaceOnUse"
       id="clipPath58788">
      <path
         d="M -542.9326,584.5729 H 53.343399 V -10.7031 H -542.9326 Z"
         id="path58790"
         style="stroke-width:0.999998" />
    </clipPath>
    <clipPath
       clipPathUnits="userSpaceOnUse"
       id="clipPath58794">
      <path
         d="M -561.4131,585.8522 H 34.862903 V -9.4238027 H -561.4131 Z"
         id="path58796"
         style="stroke-width:0.999998" />
    </clipPath>
    <clipPath
       clipPathUnits="userSpaceOnUse"
       id="clipPath58800">
      <path
         d="M -564.5732,585.8483 H 31.702801 V -9.4277027 H -564.5732 Z"
         id="path58802"
         style="stroke-width:0.999998" />
    </clipPath>
    <clipPath
       clipPathUnits="userSpaceOnUse"
       id="clipPath58806">
      <path
         d="M -567.7754,585.8522 H 28.500601 V -9.4238027 H -567.7754 Z"
         id="path58808"
         style="stroke-width:0.999998" />
    </clipPath>
    <clipPath
       clipPathUnits="userSpaceOnUse"
       id="clipPath58813">
      <path
         d="M -556.4014,578.0143 H 39.874606 V -17.2617 H -556.4014 Z"
         id="path58815"
         style="stroke-width:0.999998" />
    </clipPath>
    <clipPath
       clipPathUnits="userSpaceOnUse"
       id="clipPath58819">
      <path
         d="M -576.3691,585.5885 H 19.906905 V -9.6875027 H -576.3691 Z"
         id="path58821"
         style="stroke-width:0.999998" />
    </clipPath>
    <clipPath
       clipPathUnits="userSpaceOnUse"
       id="clipPath58825">
      <path
         d="M -557.4951,577.8502 H 38.780903 V -17.4258 H -557.4951 Z"
         id="path58827"
         style="stroke-width:0.999998" />
    </clipPath>
    <clipPath
       clipPathUnits="userSpaceOnUse"
       id="clipPath58831">
      <path
         d="M -568.2266,575.819 H 28.049401 V -19.457003 H -568.2266 Z"
         id="path58833"
         style="stroke-width:0.999998" />
    </clipPath>
    <clipPath
       clipPathUnits="userSpaceOnUse"
       id="clipPath58837">
      <path
         d="M -550.2637,577.3248 H 46.012306 V -17.951198 H -550.2637 Z"
         id="path58839"
         style="stroke-width:0.999998" />
    </clipPath>
    <clipPath
       clipPathUnits="userSpaceOnUse"
       id="clipPath58843">
      <path
         d="M -574.5459,585.8522 H 21.730103 V -9.4238027 H -574.5459 Z"
         id="path58845"
         style="stroke-width:0.999998" />
    </clipPath>
    <clipPath
       clipPathUnits="userSpaceOnUse"
       id="clipPath58850">
      <path
         d="M -584.1943,578.9381 H 12.081705 V -16.337903 H -584.1943 Z"
         id="path58852"
         style="stroke-width:0.999998" />
    </clipPath>
    <clipPath
       clipPathUnits="userSpaceOnUse"
       id="clipPath58856">
      <path
         d="M -538.2217,577.9479 H 58.054299 V -17.328098 H -538.2217 Z"
         id="path58858"
         style="stroke-width:0.999998" />
    </clipPath>
    <clipPath
       clipPathUnits="userSpaceOnUse"
       id="clipPath58862">
      <path
         d="m -332.9326,344.0475 h 596.276 v -595.276 h -596.276 z"
         id="path58864"
         style="stroke-width:0.999998" />
    </clipPath>
    <clipPath
       clipPathUnits="userSpaceOnUse"
       id="clipPath58868">
      <path
         d="M -586.5449,579.5026 H 9.7311002 V -15.7734 H -586.5449 Z"
         id="path58870"
         style="stroke-width:0.999998" />
    </clipPath>
    <clipPath
       clipPathUnits="userSpaceOnUse"
       id="clipPath58874">
      <path
         d="M -572.8174,586.1354 H 23.458606 V -9.1406027 H -572.8174 Z"
         id="path58876"
         style="stroke-width:0.999998" />
    </clipPath>
    <clipPath
       clipPathUnits="userSpaceOnUse"
       id="clipPath58880">
      <path
         d="M -528.0898,575.3815 H 68.186199 V -19.8945 H -528.0898 Z"
         id="path58882"
         style="stroke-width:0.999998" />
    </clipPath>
    <clipPath
       clipPathUnits="userSpaceOnUse"
       id="clipPath58886">
      <path
         d="M -540.8213,585.8483 H 55.454701 V -9.4277027 H -540.8213 Z"
         id="path58888"
         style="stroke-width:0.999998" />
    </clipPath>
    <clipPath
       clipPathUnits="userSpaceOnUse"
       id="clipPath58892">
      <path
         d="M -545.417,584.5729 H 50.859001 V -10.7031 H -545.417 Z"
         id="path58894"
         style="stroke-width:0.999998" />
    </clipPath>
    <clipPath
       clipPathUnits="userSpaceOnUse"
       id="clipPath58898">
      <path
         d="M -531.1924,581.5885 H 65.083599 V -13.6875 H -531.1924 Z"
         id="path58900"
         style="stroke-width:0.999998" />
    </clipPath>
    <clipPath
       clipPathUnits="userSpaceOnUse"
       id="clipPath58904">
      <path
         d="M -548.9834,585.8522 H 47.292601 V -9.4238027 H -548.9834 Z"
         id="path58906"
         style="stroke-width:0.999998" />
    </clipPath>
    <clipPath
       clipPathUnits="userSpaceOnUse"
       id="clipPath58910">
      <path
         d="M -536.6982,584.5729 H 59.577804 V -10.7031 H -536.6982 Z"
         id="path58912"
         style="stroke-width:0.999998" />
    </clipPath>
  </defs>
  <sodipodi:namedview
     id="namedview58285"
     pagecolor="#ffffff"
     bordercolor="#000000"
     borderopacity="0.25"
     inkscape:showpageshadow="2"
     inkscape:pageopacity="0.0"
     inkscape:pagecheckerboard="0"
     inkscape:deskcolor="#d1d1d1"
     showgrid="false"
     inkscape:zoom="0.29734106"
     inkscape:cx="-218.60419"
     inkscape:cy="396.85068"
     inkscape:window-width="1419"
     inkscape:window-height="456"
     inkscape:window-x="0"
     inkscape:window-y="25"
     inkscape:window-maximized="0"
     inkscape:current-layer="svg58283">
    <inkscape:page
       x="0"
       y="0"
       id="page58289"
       width="795.03467"
       height="793.70135" />
  </sodipodi:namedview>
  <path
     d="M 443.91 458.73 C 440.426 458.73 436.982 458.566 433.578 458.257 C 426.05 463.875 417.942 468.758 409.355 472.798 C 420.367 475.787 431.95 477.397 443.91 477.397 C 464.578 477.397 484.125 472.618 501.523 464.123 C 495.699 460.003 490.015 455.697 484.485 451.209 C 471.893 456.066 458.214 458.727 443.91 458.73 M 517.591 431.331 C 522.742 435.134 528.036 438.751 533.44 442.206 C 540.282 435.847 546.442 428.763 551.808 421.085 L 528.028 421.085 C 524.772 424.719 521.286 428.145 517.591 431.331 M 626.604 480.178 C 618.14 478.277 609.93 479.93 604.332 484.001 C 561.896 471.519 523.439 449.751 491.263 421.085 L 464.15 421.085 C 500.739 458.146 546.463 486.17 597.687 501.49 C 599.714 509.457 607.482 516.522 617.914 518.863 C 631.572 521.927 644.588 515.758 646.989 505.074 C 649.387 494.391 640.262 483.249 626.604 480.178 M 336.018 421.085 C 343.461 431.738 352.436 441.243 362.63 449.269 C 371.068 448.23 379.189 446.189 386.873 443.261 C 376.724 437.301 367.59 429.803 359.789 421.085 Z M 307.726 441.209 C 315.309 434.85 322.565 428.121 329.514 421.085 L 302.461 421.085 C 298.485 424.615 294.409 428.039 290.249 431.366 C 295.716 435.183 301.564 438.485 307.726 441.209 M 189.368 484.001 C 183.772 479.93 175.56 478.277 167.097 480.178 C 153.439 483.249 144.313 494.391 146.712 505.074 C 149.112 515.758 162.128 521.927 175.787 518.863 C 186.219 516.522 193.988 509.457 196.013 501.49 C 224.457 492.982 251.204 480.555 275.633 464.842 C 269.929 461.279 264.498 457.321 259.382 452.998 C 237.716 466.197 214.221 476.689 189.368 484.001 M 457.687 421.085 L 433.903 421.085 C 413.241 444.181 383.221 458.727 349.79 458.73 C 316.358 458.727 286.338 444.181 265.674 421.085 L 241.892 421.085 C 265.665 455.123 305.12 477.394 349.79 477.397 C 394.459 477.394 433.915 455.123 457.687 421.085 M 264.938 340.016 C 287.473 339.976 305.706 321.741 305.748 299.206 C 305.729 289.71 302.474 280.986 297.038 274.058 L 230.835 321.577 C 238.128 332.666 250.666 339.992 264.938 340.016 M 396.847 202.413 L 304.102 268.986 C 310.562 277.345 314.417 287.822 314.418 299.206 C 314.414 326.533 292.264 348.682 264.938 348.686 C 247.764 348.684 232.641 339.933 223.769 326.65 L 104.286 412.415 L 689.409 412.415 Z M 396.847 701.972 C 228.333 701.972 91.7242 565.363 91.7242 396.849 C 91.7242 228.335 228.333 91.7269 396.847 91.7269 C 565.362 91.7269 701.969 228.335 701.969 396.849 C 701.969 565.363 565.362 701.972 396.847 701.972 M 396.85 31.7311 C 195.2 31.7311 31.7284 195.201 31.7284 396.853 C 31.7284 598.503 195.2 761.975 396.85 761.975 C 598.5 761.975 761.972 598.503 761.972 396.853 C 761.972 195.201 598.5 31.7311 396.85 31.7311"
     style="fill:#000000;fill-opacity:1;fill-rule:nonzero;stroke:none"
     id="path58403" />
</svg>
