<?xml version="1.0" encoding="UTF-8" standalone="no"?>
<!-- Created with Inkscape (http://www.inkscape.org/) -->

<svg
   version="1.1"
   id="svg57021"
   width="795.03467"
   height="793.70135"
   viewBox="0 0 795.03467 793.70135"
   sodipodi:docname="Mukai Kasa.svg"
   inkscape:version="1.2 (dc2aeda, 2022-05-15)"
   xmlns:inkscape="http://www.inkscape.org/namespaces/inkscape"
   xmlns:sodipodi="http://sodipodi.sourceforge.net/DTD/sodipodi-0.dtd"
   xmlns="http://www.w3.org/2000/svg"
   xmlns:svg="http://www.w3.org/2000/svg">
  <defs
     id="defs57025">
    <clipPath
       clipPathUnits="userSpaceOnUse"
       id="clipPath57734">
      <path
         d="M -538.2217,577.9479 H 58.054299 V -17.328098 H -538.2217 Z"
         id="path57736"
         style="stroke-width:0.999998" />
    </clipPath>
    <clipPath
       clipPathUnits="userSpaceOnUse"
       id="clipPath57740">
      <path
         d="M -584.1943,578.9381 H 12.081705 V -16.337903 H -584.1943 Z"
         id="path57742"
         style="stroke-width:0.999998" />
    </clipPath>
    <clipPath
       clipPathUnits="userSpaceOnUse"
       id="clipPath57746">
      <path
         d="M -540.8213,585.8483 H 55.454701 V -9.4277027 H -540.8213 Z"
         id="path57748"
         style="stroke-width:0.999998" />
    </clipPath>
    <clipPath
       clipPathUnits="userSpaceOnUse"
       id="clipPath57752">
      <path
         d="M -574.5459,585.8522 H 21.730103 V -9.4238027 H -574.5459 Z"
         id="path57754"
         style="stroke-width:0.999998" />
    </clipPath>
    <clipPath
       clipPathUnits="userSpaceOnUse"
       id="clipPath57759">
      <path
         d="M -572.8174,586.1354 H 23.458606 V -9.1406027 H -572.8174 Z"
         id="path57761"
         style="stroke-width:0.999998" />
    </clipPath>
    <clipPath
       clipPathUnits="userSpaceOnUse"
       id="clipPath57765">
      <path
         d="M -520.4326,308.3248 H 75.843399 v -595.276 H -520.4326 Z"
         id="path57767"
         style="stroke-width:0.999998" />
    </clipPath>
    <clipPath
       clipPathUnits="userSpaceOnUse"
       id="clipPath57771">
      <path
         d="M -536.6982,584.5729 H 59.577804 V -10.7031 H -536.6982 Z"
         id="path57773"
         style="stroke-width:0.999998" />
    </clipPath>
    <clipPath
       clipPathUnits="userSpaceOnUse"
       id="clipPath57777">
      <path
         d="M -530.8896,311.7096 H 65.386404 v -595.276 H -530.8896 Z"
         id="path57779"
         style="stroke-width:0.999998" />
    </clipPath>
    <clipPath
       clipPathUnits="userSpaceOnUse"
       id="clipPath57783">
      <path
         d="M -567.7754,585.8522 H 28.500601 V -9.4238027 H -567.7754 Z"
         id="path57785"
         style="stroke-width:0.999998" />
    </clipPath>
    <clipPath
       clipPathUnits="userSpaceOnUse"
       id="clipPath57789">
      <path
         d="M -522.8164,279.108 H 73.459599 V -316.168 H -522.8164 Z"
         id="path57791"
         style="stroke-width:0.999998" />
    </clipPath>
    <clipPath
       clipPathUnits="userSpaceOnUse"
       id="clipPath57795">
      <path
         d="M -556.4014,578.0143 H 39.874598 V -17.2617 H -556.4014 Z"
         id="path57797"
         style="stroke-width:0.999998" />
    </clipPath>
    <clipPath
       clipPathUnits="userSpaceOnUse"
       id="clipPath57802">
      <path
         d="M -550.2637,577.3248 H 46.012299 V -17.951198 H -550.2637 Z"
         id="path57804"
         style="stroke-width:0.999998" />
    </clipPath>
    <clipPath
       clipPathUnits="userSpaceOnUse"
       id="clipPath57808">
      <path
         d="M -586.5449,579.5026 H 9.7311002 V -15.7734 H -586.5449 Z"
         id="path57810"
         style="stroke-width:0.999998" />
    </clipPath>
    <clipPath
       clipPathUnits="userSpaceOnUse"
       id="clipPath57814">
      <path
         d="M -568.2266,575.819 H 28.049401 V -19.457003 H -568.2266 Z"
         id="path57816"
         style="stroke-width:0.999998" />
    </clipPath>
    <clipPath
       clipPathUnits="userSpaceOnUse"
       id="clipPath57820">
      <path
         d="M -576.3691,585.5885 H 19.906905 V -9.6875027 H -576.3691 Z"
         id="path57822"
         style="stroke-width:0.999998" />
    </clipPath>
    <clipPath
       clipPathUnits="userSpaceOnUse"
       id="clipPath57826">
      <path
         d="M -557.4951,577.8502 H 38.780903 V -17.4258 H -557.4951 Z"
         id="path57828"
         style="stroke-width:0.999998" />
    </clipPath>
    <clipPath
       clipPathUnits="userSpaceOnUse"
       id="clipPath57834">
      <path
         d="m -64.001,237.1139 h 596.276 v -595.276 H -64.001 Z"
         id="path57836"
         style="stroke-width:0.999998" />
    </clipPath>
    <clipPath
       clipPathUnits="userSpaceOnUse"
       id="clipPath57840">
      <path
         d="m -278.5361,224.0944 h 596.276 v -595.276 h -596.276 z"
         id="path57842"
         style="stroke-width:0.999998" />
    </clipPath>
    <clipPath
       clipPathUnits="userSpaceOnUse"
       id="clipPath57846">
      <path
         d="M -520.4326,286.9518 H 75.843399 v -595.276 H -520.4326 Z"
         id="path57848"
         style="stroke-width:0.999998" />
    </clipPath>
    <clipPath
       clipPathUnits="userSpaceOnUse"
       id="clipPath57852">
      <path
         d="m -388.4678,253.5553 h 596.276 v -595.276 h -596.276 z"
         id="path57854"
         style="stroke-width:0.999998" />
    </clipPath>
    <clipPath
       clipPathUnits="userSpaceOnUse"
       id="clipPath57858">
      <path
         d="M -530.8896,283.569 H 65.386404 V -311.707 H -530.8896 Z"
         id="path57860"
         style="stroke-width:0.999998" />
    </clipPath>
    <clipPath
       clipPathUnits="userSpaceOnUse"
       id="clipPath57865">
      <path
         d="M -564.5732,585.8483 H 31.702801 V -9.4277027 H -564.5732 Z"
         id="path57867"
         style="stroke-width:0.999998" />
    </clipPath>
    <clipPath
       clipPathUnits="userSpaceOnUse"
       id="clipPath57871">
      <path
         d="M -542.9326,584.5729 H 53.343399 V -10.7031 H -542.9326 Z"
         id="path57873"
         style="stroke-width:0.999998" />
    </clipPath>
    <clipPath
       clipPathUnits="userSpaceOnUse"
       id="clipPath57877">
      <path
         d="M -553.8975,585.8483 H 42.378504 V -9.4277027 H -553.8975 Z"
         id="path57879"
         style="stroke-width:0.999998" />
    </clipPath>
    <clipPath
       clipPathUnits="userSpaceOnUse"
       id="clipPath57883">
      <path
         d="M -548.9834,585.8522 H 47.292601 V -9.4238027 H -548.9834 Z"
         id="path57885"
         style="stroke-width:0.999998" />
    </clipPath>
    <clipPath
       clipPathUnits="userSpaceOnUse"
       id="clipPath57890">
      <path
         d="m -316.7393,371.1842 h 596.276 v -595.276 h -596.276 z"
         id="path57892"
         style="stroke-width:0.999998" />
    </clipPath>
    <clipPath
       clipPathUnits="userSpaceOnUse"
       id="clipPath57896">
      <path
         d="M -522.8164,316.1705 H 73.459599 v -595.276 H -522.8164 Z"
         id="path57898"
         style="stroke-width:0.999998" />
    </clipPath>
    <clipPath
       clipPathUnits="userSpaceOnUse"
       id="clipPath57902">
      <path
         d="M -545.417,584.5729 H 50.859001 V -10.7031 H -545.417 Z"
         id="path57904"
         style="stroke-width:0.999998" />
    </clipPath>
    <clipPath
       clipPathUnits="userSpaceOnUse"
       id="clipPath57908">
      <path
         d="m -72.46,316.1705 h 596.276 v -595.276 H -72.46 Z"
         id="path57910"
         style="stroke-width:0.999998" />
    </clipPath>
    <clipPath
       clipPathUnits="userSpaceOnUse"
       id="clipPath57914">
      <path
         d="M -531.1924,581.5885 H 65.083599 V -13.6875 H -531.1924 Z"
         id="path57916"
         style="stroke-width:0.999998" />
    </clipPath>
    <clipPath
       clipPathUnits="userSpaceOnUse"
       id="clipPath57920">
      <path
         d="m -74.8428,308.3248 h 596.276 v -595.276 h -596.276 z"
         id="path57922"
         style="stroke-width:0.999998" />
    </clipPath>
    <clipPath
       clipPathUnits="userSpaceOnUse"
       id="clipPath57926">
      <path
         d="M -557.0645,585.8483 H 39.211501 V -9.4277027 H -557.0645 Z"
         id="path57928"
         style="stroke-width:0.999998" />
    </clipPath>
    <clipPath
       clipPathUnits="userSpaceOnUse"
       id="clipPath57932">
      <path
         d="m -206.8076,341.7213 h 596.276 v -595.276 h -596.276 z"
         id="path57934"
         style="stroke-width:0.999998" />
    </clipPath>
    <clipPath
       clipPathUnits="userSpaceOnUse"
       id="clipPath57938">
      <path
         d="m -64.3857,311.7096 h 596.276 v -595.276 h -596.276 z"
         id="path57940"
         style="stroke-width:0.999998" />
    </clipPath>
    <clipPath
       clipPathUnits="userSpaceOnUse"
       id="clipPath57944">
      <path
         d="M -561.4131,585.8522 H 34.862903 V -9.4238027 H -561.4131 Z"
         id="path57946"
         style="stroke-width:0.999998" />
    </clipPath>
    <clipPath
       clipPathUnits="userSpaceOnUse"
       id="clipPath57950">
      <path
         d="M -528.0898,575.3815 H 68.186199 V -19.8945 H -528.0898 Z"
         id="path57952"
         style="stroke-width:0.999998" />
    </clipPath>
  </defs>
  <sodipodi:namedview
     id="namedview57023"
     pagecolor="#ffffff"
     bordercolor="#000000"
     borderopacity="0.25"
     inkscape:showpageshadow="2"
     inkscape:pageopacity="0.0"
     inkscape:pagecheckerboard="0"
     inkscape:deskcolor="#d1d1d1"
     showgrid="false"
     inkscape:zoom="0.29734106"
     inkscape:cx="-215.24105"
     inkscape:cy="396.85068"
     inkscape:window-width="1419"
     inkscape:window-height="456"
     inkscape:window-x="0"
     inkscape:window-y="25"
     inkscape:window-maximized="0"
     inkscape:current-layer="svg57021">
    <inkscape:page
       x="0"
       y="0"
       id="page57027"
       width="795.03467"
       height="793.70135" />
  </sodipodi:namedview>
  <path
     d="M 99.7904 411.1 C 112.588 429.671 127.02 447.027 142.918 462.928 C 183.989 503.993 234.687 535.4 291.334 553.514 C 284.491 524.441 279.526 494.644 276.541 464.267 C 212.099 461.376 151.872 442.343 99.7904 411.1"
     style="fill:#000000;fill-opacity:1;fill-rule:nonzero;stroke:none"
     id="path57141" />
  <path
     d="M 85.8476 415.613 C 94.2849 586.017 216.989 726.334 378.932 761.557 C 360.348 732.274 343.942 701.467 329.926 669.38 C 212.293 630.432 120.304 535.219 85.8476 415.613"
     style="fill:#000000;fill-opacity:1;fill-rule:nonzero;stroke:none"
     id="path57145" />
  <path
     d="M 275.743 455.628 C 274.087 436.253 273.219 416.655 273.219 396.852 C 273.219 377.047 274.087 357.448 275.743 338.076 C 208.618 341.298 146.222 362.451 93.1968 396.852 C 146.222 431.251 208.618 452.407 275.743 455.628"
     style="fill:#000000;fill-opacity:1;fill-rule:nonzero;stroke:none"
     id="path57149" />
  <path
     d="M 96.6133 421.561 C 114.629 478.941 146.279 530.282 187.785 571.793 C 226.225 610.227 273.097 640.194 325.381 658.727 C 312.57 627.982 301.958 596.097 293.715 563.266 C 213.372 538.811 144.389 488.301 96.6133 421.561"
     style="fill:#000000;fill-opacity:1;fill-rule:nonzero;stroke:none"
     id="path57153" />
  <path
     d="m 99.790398,382.60241 c 12.797332,-18.57067 27.229332,-35.92667 43.128002,-51.82533 41.07066,-41.068 91.76933,-72.472 148.41599,-90.58667 -6.84266,29.07334 -11.808,58.87067 -14.79333,89.248 -64.44133,2.888 -124.66933,21.924 -176.750662,53.164"
     style="fill:#000000;fill-opacity:1;fill-rule:nonzero;stroke:none;stroke-width:1.33333"
     id="path57157" />
  <path
     d="M 85.847598,378.09201 C 94.284931,207.68801 216.98893,67.369351 378.93292,32.144019 360.34892,61.429351 343.94226,92.234684 329.92626,124.32135 212.29293,163.27068 120.3036,258.48535 85.847598,378.09201"
     style="fill:#000000;fill-opacity:1;fill-rule:nonzero;stroke:none;stroke-width:1.33333"
     id="path57161" />
  <path
     d="m 96.613331,372.14401 c 18.015999,-57.38267 49.665329,-108.72133 91.171999,-150.23466 38.44,-38.43334 85.312,-68.40133 137.596,-86.93467 -12.81067,30.744 -23.42267,62.632 -31.66534,95.46133 -80.344,24.456 -149.32666,74.968 -197.102659,141.708"
     style="fill:#000000;fill-opacity:1;fill-rule:nonzero;stroke:none;stroke-width:1.33333"
     id="path57165" />
  <path
     d="M 371.381 298.793 C 371.38 324.345 367.056 348.884 359.122 371.735 C 341.514 341.766 317.649 315.933 289.365 295.944 C 288.168 303.91 287.112 311.924 286.196 319.981 C 312.345 340.514 333.808 366.743 348.629 396.853 C 333.808 426.959 312.345 453.189 286.196 473.722 C 287.112 481.782 288.168 489.793 289.365 497.759 C 317.65 477.771 341.514 451.938 359.124 421.97 C 367.056 444.819 371.38 469.358 371.381 494.913 C 371.378 546.636 353.696 594.216 324.076 631.99 C 326.897 639.555 329.854 647.055 332.938 654.487 C 370.056 611.748 392.545 555.964 392.549 494.913 C 392.548 460.019 385.193 426.855 371.977 396.853 C 385.193 366.85 392.548 333.684 392.549 298.793 C 392.545 237.738 370.056 181.955 332.938 139.215 C 329.854 146.648 326.897 154.147 324.076 161.713 C 353.696 199.485 371.378 247.066 371.381 298.793"
     style="fill:#000000;fill-opacity:1;fill-rule:nonzero;stroke:none"
     id="path57169" />
  <path
     d="M 85.3347 316.152 C 53.8414 329.403 31.7282 360.543 31.7282 396.852 C 31.7282 433.162 53.8414 464.302 85.3347 477.55 C 79.736 451.534 76.7694 424.542 76.7667 396.852 C 76.7694 369.163 79.736 342.168 85.3347 316.152"
     style="fill:#000000;fill-opacity:1;fill-rule:nonzero;stroke:none"
     id="path57173" />
  <path
     d="M 693.91 382.602 C 681.113 364.031 666.679 346.675 650.782 330.777 C 609.712 289.709 559.013 258.305 502.368 240.19 C 509.209 269.264 514.174 299.061 517.16 329.438 C 581.6 332.326 641.829 351.362 693.91 382.602"
     style="fill:#000000;fill-opacity:1;fill-rule:nonzero;stroke:none"
     id="path57177" />
  <path
     d="M 707.853 378.092 C 699.416 207.688 576.712 67.3701 414.768 32.1449 C 433.352 61.4301 449.759 92.2354 463.775 124.322 C 581.408 163.271 673.397 258.486 707.853 378.092"
     style="fill:#000000;fill-opacity:1;fill-rule:nonzero;stroke:none"
     id="path57181" />
  <path
     d="M 517.957 338.074 C 519.613 357.449 520.481 377.047 520.481 396.853 C 520.481 416.658 519.613 436.254 517.957 455.628 C 585.082 452.404 647.479 431.251 700.503 396.853 C 647.479 362.451 585.082 341.295 517.957 338.074"
     style="fill:#000000;fill-opacity:1;fill-rule:nonzero;stroke:none"
     id="path57185" />
  <path
     d="M 697.089 372.144 C 679.072 314.761 647.422 263.423 605.916 221.91 C 567.477 183.476 520.604 153.509 468.322 134.975 C 481.131 165.719 491.743 197.607 499.985 230.436 C 580.329 254.892 649.312 305.404 697.089 372.144"
     style="fill:#000000;fill-opacity:1;fill-rule:nonzero;stroke:none"
     id="path57189" />
  <path
     d="M 693.91 411.1 C 681.113 429.671 666.679 447.027 650.782 462.928 C 609.712 503.993 559.013 535.4 502.368 553.514 C 509.209 524.441 514.174 494.644 517.16 464.267 C 581.6 461.376 641.829 442.343 693.91 411.1"
     style="fill:#000000;fill-opacity:1;fill-rule:nonzero;stroke:none"
     id="path57193" />
  <path
     d="M 707.853 415.613 C 699.416 586.017 576.712 726.334 414.768 761.557 C 433.352 732.274 449.759 701.467 463.775 669.38 C 581.408 630.432 673.397 535.219 707.853 415.613"
     style="fill:#000000;fill-opacity:1;fill-rule:nonzero;stroke:none"
     id="path57197" />
  <path
     d="M 697.089 421.561 C 679.072 478.941 647.422 530.282 605.916 571.793 C 567.477 610.227 520.604 640.194 468.322 658.727 C 481.131 627.982 491.743 596.097 499.985 563.266 C 580.329 538.811 649.312 488.301 697.089 421.561"
     style="fill:#000000;fill-opacity:1;fill-rule:nonzero;stroke:none"
     id="path57201" />
  <path
     d="M 422.319 494.912 C 422.32 469.357 426.644 444.819 434.578 421.97 C 452.186 451.939 476.051 477.769 504.335 497.759 C 505.531 489.792 506.588 481.781 507.504 473.721 C 481.356 453.188 459.892 426.959 445.071 396.852 C 459.892 366.743 481.356 340.514 507.504 319.98 C 506.588 311.923 505.531 303.91 504.336 295.943 C 476.05 315.934 452.186 341.767 434.576 371.735 C 426.644 348.884 422.32 324.344 422.319 298.792 C 422.322 247.066 440.004 199.485 469.624 161.713 C 466.803 154.146 463.846 146.648 460.762 139.216 C 423.644 181.954 401.155 237.738 401.151 298.792 C 401.152 333.683 408.506 366.85 421.723 396.852 C 408.506 426.855 401.152 460.019 401.151 494.912 C 401.155 555.964 423.644 611.748 460.76 654.488 C 463.846 647.054 466.803 639.554 469.624 631.99 C 440.004 594.217 422.322 546.636 422.319 494.912"
     style="fill:#000000;fill-opacity:1;fill-rule:nonzero;stroke:none"
     id="path57205" />
  <path
     d="m 708.36585,477.55027 c 31.49333,-13.25067 53.60667,-44.388 53.60667,-80.69733 0,-36.31067 -22.11334,-67.45067 -53.608,-80.70133 5.59866,26.016 8.568,53.01066 8.57066,80.704 -0.003,27.68666 -2.972,54.67866 -8.56933,80.69466"
     style="fill:#000000;fill-opacity:1;fill-rule:nonzero;stroke:none;stroke-width:1.33333"
     id="path57209" />
</svg>
