<?xml version="1.0" encoding="UTF-8" standalone="no"?>
<!-- Created with Inkscape (http://www.inkscape.org/) -->

<svg
   sodipodi:docname="Takebe Kasa.svg"
   viewBox="0 0 795.03467 793.70135"
   height="793.70135"
   width="795.03467"
   id="svg55017"
   version="1.1"
   inkscape:version="1.2 (dc2aeda, 2022-05-15)"
   xmlns:inkscape="http://www.inkscape.org/namespaces/inkscape"
   xmlns:sodipodi="http://sodipodi.sourceforge.net/DTD/sodipodi-0.dtd"
   xmlns="http://www.w3.org/2000/svg"
   xmlns:svg="http://www.w3.org/2000/svg">
  <defs
     id="defs55021">
    <clipPath
       clipPathUnits="userSpaceOnUse"
       id="clipPath55366">
      <path
         d="M -538.2217,577.9479 H 58.054302 V -17.3281 H -538.2217 Z"
         id="path55368"
         style="stroke-width:0.999998" />
    </clipPath>
    <clipPath
       clipPathUnits="userSpaceOnUse"
       id="clipPath55370">
      <path
         d="M -584.1943,578.9381 H 12.081702 V -16.3379 H -584.1943 Z"
         id="path55372"
         style="stroke-width:0.999998" />
    </clipPath>
    <clipPath
       clipPathUnits="userSpaceOnUse"
       id="clipPath55374">
      <path
         d="M -586.5449,579.5026 H 9.7311024 V -15.7734 H -586.5449 Z"
         id="path55376"
         style="stroke-width:0.999998" />
    </clipPath>
    <clipPath
       clipPathUnits="userSpaceOnUse"
       id="clipPath55378">
      <path
         d="M -556.4014,578.0143 H 39.874602 V -17.2617 H -556.4014 Z"
         id="path55380"
         style="stroke-width:0.999998" />
    </clipPath>
    <clipPath
       clipPathUnits="userSpaceOnUse"
       id="clipPath55382">
      <path
         d="M -550.2637,577.3248 H 46.012302 V -17.9512 H -550.2637 Z"
         id="path55384"
         style="stroke-width:0.999998" />
    </clipPath>
    <clipPath
       clipPathUnits="userSpaceOnUse"
       id="clipPath55386">
      <path
         d="M -568.2266,575.819 H 28.049402 V -19.457 H -568.2266 Z"
         id="path55388"
         style="stroke-width:0.999998" />
    </clipPath>
    <clipPath
       clipPathUnits="userSpaceOnUse"
       id="clipPath55390">
      <path
         d="M -557.4951,577.8502 H 38.780902 V -17.4258 H -557.4951 Z"
         id="path55392"
         style="stroke-width:0.999998" />
    </clipPath>
    <clipPath
       clipPathUnits="userSpaceOnUse"
       id="clipPath55394">
      <path
         d="M -576.3691,585.5885 H 19.906902 V -9.6875 H -576.3691 Z"
         id="path55396"
         style="stroke-width:0.999998" />
    </clipPath>
    <clipPath
       clipPathUnits="userSpaceOnUse"
       id="clipPath55398">
      <path
         d="M -574.5459,585.8522 H 21.730102 V -9.4238 H -574.5459 Z"
         id="path55400"
         style="stroke-width:0.999998" />
    </clipPath>
    <clipPath
       clipPathUnits="userSpaceOnUse"
       id="clipPath55402">
      <path
         d="M -572.8174,586.1354 H 23.458602 V -9.1406 H -572.8174 Z"
         id="path55404"
         style="stroke-width:0.999998" />
    </clipPath>
    <clipPath
       clipPathUnits="userSpaceOnUse"
       id="clipPath55406">
      <path
         d="M -567.7754,585.8522 H 28.500602 V -9.4238 H -567.7754 Z"
         id="path55408"
         style="stroke-width:0.999998" />
    </clipPath>
    <clipPath
       clipPathUnits="userSpaceOnUse"
       id="clipPath55410">
      <path
         d="M -564.5732,585.8483 H 31.702802 V -9.4277 H -564.5732 Z"
         id="path55412"
         style="stroke-width:0.999998" />
    </clipPath>
    <clipPath
       clipPathUnits="userSpaceOnUse"
       id="clipPath55414">
      <path
         d="M -561.4131,585.8522 H 34.862902 V -9.4238 H -561.4131 Z"
         id="path55416"
         style="stroke-width:0.999998" />
    </clipPath>
    <clipPath
       clipPathUnits="userSpaceOnUse"
       id="clipPath55418">
      <path
         d="M -557.0645,585.8483 H 39.211502 V -9.4277 H -557.0645 Z"
         id="path55420"
         style="stroke-width:0.999998" />
    </clipPath>
    <clipPath
       clipPathUnits="userSpaceOnUse"
       id="clipPath55422">
      <path
         d="M -553.8975,585.8483 H 42.378502 V -9.4277 H -553.8975 Z"
         id="path55424"
         style="stroke-width:0.999998" />
    </clipPath>
    <clipPath
       clipPathUnits="userSpaceOnUse"
       id="clipPath55426">
      <path
         d="M -548.9834,585.8522 H 47.292602 V -9.4238 H -548.9834 Z"
         id="path55428"
         style="stroke-width:0.999998" />
    </clipPath>
    <clipPath
       clipPathUnits="userSpaceOnUse"
       id="clipPath55430">
      <path
         d="M -545.417,584.5729 H 50.859002 V -10.7031 H -545.417 Z"
         id="path55432"
         style="stroke-width:0.999998" />
    </clipPath>
    <clipPath
       clipPathUnits="userSpaceOnUse"
       id="clipPath55434">
      <path
         d="M -542.9326,584.5729 H 53.343402 V -10.7031 H -542.9326 Z"
         id="path55436"
         style="stroke-width:0.999998" />
    </clipPath>
    <clipPath
       clipPathUnits="userSpaceOnUse"
       id="clipPath55438">
      <path
         d="M -540.8213,585.8483 H 55.454702 V -9.4277 H -540.8213 Z"
         id="path55440"
         style="stroke-width:0.999998" />
    </clipPath>
    <clipPath
       clipPathUnits="userSpaceOnUse"
       id="clipPath55442">
      <path
         d="M -536.6982,584.5729 H 59.577802 V -10.7031 H -536.6982 Z"
         id="path55444"
         style="stroke-width:0.999998" />
    </clipPath>
    <clipPath
       clipPathUnits="userSpaceOnUse"
       id="clipPath55446">
      <path
         d="M -528.0898,575.3815 H 68.186202 V -19.8945 H -528.0898 Z"
         id="path55448"
         style="stroke-width:0.999998" />
    </clipPath>
    <clipPath
       clipPathUnits="userSpaceOnUse"
       id="clipPath55450">
      <path
         d="M -531.1924,581.5885 H 65.083602 V -13.6875 H -531.1924 Z"
         id="path55452"
         style="stroke-width:0.999998" />
    </clipPath>
    <clipPath
       clipPathUnits="userSpaceOnUse"
       id="clipPath55568">
      <path
         d="m -272.7715,151.3282 h 596.276 v -595.276 h -596.276 z"
         id="path55570"
         style="stroke-width:0.999998" />
    </clipPath>
  </defs>
  <sodipodi:namedview
     id="namedview55019"
     pagecolor="#ffffff"
     bordercolor="#000000"
     borderopacity="0.25"
     inkscape:showpageshadow="2"
     inkscape:pageopacity="0.0"
     inkscape:pagecheckerboard="0"
     inkscape:deskcolor="#d1d1d1"
     showgrid="false"
     inkscape:zoom="0.29734106"
     inkscape:cx="-215.24105"
     inkscape:cy="396.85068"
     inkscape:window-width="1419"
     inkscape:window-height="456"
     inkscape:window-x="0"
     inkscape:window-y="25"
     inkscape:window-maximized="0"
     inkscape:current-layer="svg55017">
    <inkscape:page
       x="0"
       y="0"
       id="page55023"
       width="795.03467"
       height="793.70135" />
  </sodipodi:namedview>
  <path
     d="M 363.695 201.771 C 375.624 235.302 407.624 259.312 445.251 259.315 C 473.22 259.312 498.071 246.038 513.892 225.459 C 510.635 223.954 507.344 222.506 504.021 221.123 C 490.061 238.066 468.919 248.87 445.249 248.872 C 413.082 248.87 385.599 228.904 374.458 200.698 C 370.85 200.984 367.264 201.35 363.695 201.771 M 289.681 221.124 C 286.355 222.507 283.066 223.955 279.809 225.462 C 295.631 246.038 320.48 259.312 348.448 259.315 C 362.991 259.314 376.687 255.711 388.718 249.374 C 385.65 247.106 382.732 244.648 379.962 242.036 C 370.358 246.412 359.694 248.871 348.448 248.872 C 324.78 248.87 303.639 238.067 289.681 221.124 M 383.619 200.123 C 386.87 207.422 391.362 214.044 396.85 219.703 C 402.338 214.044 406.831 207.422 410.08 200.123 C 405.695 199.919 401.287 199.802 396.852 199.802 C 392.416 199.802 388.006 199.919 383.619 200.123 M 298.214 217.744 C 310.56 231.524 328.488 240.202 348.448 240.203 C 357.319 240.203 365.779 238.474 373.536 235.362 C 365.347 225.988 358.963 215 354.927 202.938 C 335.275 205.896 316.298 210.914 298.214 217.744 M 403.271 225.524 C 406.028 227.722 408.959 229.704 412.044 231.454 C 419.89 222.959 426.043 212.886 430 201.771 C 426.432 201.348 422.846 200.984 419.236 200.698 C 415.554 210.011 410.1 218.43 403.271 225.524 M 495.489 217.743 C 477.4 210.912 458.427 205.895 438.773 202.935 C 434.736 215 428.354 225.988 420.166 235.362 C 427.92 238.474 436.381 240.203 445.251 240.203 C 465.213 240.202 483.14 231.523 495.489 217.743 M 396.851 278.14 C 533.111 278.14 643.569 388.6 643.569 524.86 C 643.569 587.955 619.856 645.497 580.886 689.119 C 639.258 637.933 676.121 562.815 676.124 479.078 C 676.121 369.78 613.332 275.167 521.861 229.299 C 504.519 252.758 476.668 267.976 445.251 267.98 C 427.574 267.979 411.035 263.144 396.85 254.752 C 382.666 263.144 366.126 267.979 348.448 267.98 C 317.032 267.976 289.182 252.76 271.839 229.299 C 180.371 275.169 117.58 369.783 117.577 479.078 C 117.58 562.813 154.444 637.93 212.813 689.114 C 173.845 645.493 150.133 587.955 150.133 524.86 C 150.133 388.6 260.593 278.14 396.851 278.14 M 469.957 154.683 C 462.572 160.178 452.135 158.643 446.635 151.263 C 440.663 143.248 438.748 136.519 434.329 128.081 C 428.831 117.581 420.83 107.247 414.496 101.414 C 440.829 103.914 464.996 115.914 473.377 131.362 C 477.767 139.452 477.34 149.187 469.957 154.683 M 396.85 176.58 C 389.871 176.58 376.999 170.284 376.999 151.432 C 376.999 128.581 396.85 103.247 396.85 103.247 C 396.85 103.247 416.702 128.581 416.702 151.432 C 416.702 170.284 403.83 176.58 396.85 176.58 M 347.064 151.263 C 341.564 158.643 331.126 160.178 323.743 154.683 C 316.359 149.187 315.934 139.452 320.322 131.362 C 328.704 115.914 352.871 103.914 379.204 101.414 C 372.871 107.247 364.871 117.581 359.371 128.081 C 354.951 136.519 353.038 143.248 347.064 151.263 M 514.196 124.678 C 502.828 95.1073 476.592 69.8073 450.723 53.0967 C 435.259 63.282 416.754 69.2247 396.85 69.2273 C 376.946 69.2247 358.442 63.282 342.975 53.098 C 317.106 69.8073 290.871 95.1086 279.501 124.681 C 155.517 171.966 67.4317 291.964 67.4317 432.554 C 67.4317 564.721 145.281 678.679 257.613 731.151 C 168.95 682.07 108.913 587.591 108.91 479.078 C 108.913 320.052 237.827 191.14 396.852 191.135 C 555.879 191.14 684.786 320.052 684.79 479.078 C 684.788 587.586 624.76 682.056 536.109 731.14 C 648.429 678.666 726.27 564.714 726.27 432.554 C 726.27 291.963 638.181 171.962 514.196 124.678 M 433.42 43.1381 C 418.956 35.8287 405.77 31.7301 396.85 31.7301 C 387.931 31.7301 374.743 35.8287 360.279 43.1381 C 371.256 48.7247 383.664 51.8914 396.85 51.894 C 410.035 51.8914 422.444 48.7247 433.42 43.1381"
     style="fill:#000000;fill-opacity:1;fill-rule:nonzero;stroke:none"
     id="path55137" />
</svg>
