<?xml version="1.0" encoding="UTF-8" standalone="no"?>
<!-- Created with Inkscape (http://www.inkscape.org/) -->

<svg
   version="1.1"
   id="svg20650"
   width="793.70135"
   height="793.70135"
   viewBox="0 0 793.70135 793.70135"
   sodipodi:docname="Chigai Ougi.svg"
   inkscape:version="1.2 (dc2aeda, 2022-05-15)"
   xmlns:inkscape="http://www.inkscape.org/namespaces/inkscape"
   xmlns:sodipodi="http://sodipodi.sourceforge.net/DTD/sodipodi-0.dtd"
   xmlns="http://www.w3.org/2000/svg"
   xmlns:svg="http://www.w3.org/2000/svg">
  <defs
     id="defs20654">
    <clipPath
       clipPathUnits="userSpaceOnUse"
       id="clipPath20883">
      <path
         d="m -486.6572,558.4144 h 595.276 v -841.89 h -595.276 z"
         id="path20885"
         style="stroke-width:0.999998" />
    </clipPath>
    <clipPath
       clipPathUnits="userSpaceOnUse"
       id="clipPath20889">
      <path
         d="m -391.6172,550.6048 h 595.276 v -841.89 h -595.276 z"
         id="path20891"
         style="stroke-width:0.999998" />
    </clipPath>
    <clipPath
       clipPathUnits="userSpaceOnUse"
       id="clipPath20895">
      <path
         d="m -402.7168,452.7142 h 595.276 v -841.89 h -595.276 z"
         id="path20897"
         style="stroke-width:0.999998" />
    </clipPath>
    <clipPath
       clipPathUnits="userSpaceOnUse"
       id="clipPath20901">
      <path
         d="m -108.2676,551.2904 h 595.276 v -841.89 h -595.276 z"
         id="path20903"
         style="stroke-width:0.999998" />
    </clipPath>
    <clipPath
       clipPathUnits="userSpaceOnUse"
       id="clipPath20907">
      <path
         d="m -228.6836,413.0961 h 595.276 v -841.89 h -595.276 z"
         id="path20909"
         style="stroke-width:0.999998" />
    </clipPath>
    <clipPath
       clipPathUnits="userSpaceOnUse"
       id="clipPath20913">
      <path
         d="m -290.0264,372.0375 h 595.276 v -841.89 h -595.276 z"
         id="path20915"
         style="stroke-width:0.999998" />
    </clipPath>
    <clipPath
       clipPathUnits="userSpaceOnUse"
       id="clipPath20919">
      <path
         d="m -244.4141,402.5502 h 595.276 v -841.89 h -595.276 z"
         id="path20921"
         style="stroke-width:0.999998" />
    </clipPath>
  </defs>
  <sodipodi:namedview
     id="namedview20652"
     pagecolor="#ffffff"
     bordercolor="#000000"
     borderopacity="0.25"
     inkscape:showpageshadow="2"
     inkscape:pageopacity="0.0"
     inkscape:pagecheckerboard="0"
     inkscape:deskcolor="#d1d1d1"
     showgrid="false"
     inkscape:zoom="0.21024124"
     inkscape:cx="-1234.2964"
     inkscape:cy="561.26001"
     inkscape:window-width="1419"
     inkscape:window-height="456"
     inkscape:window-x="0"
     inkscape:window-y="25"
     inkscape:window-maximized="0"
     inkscape:current-layer="svg20650">
    <inkscape:page
       x="0"
       y="0"
       id="page20656"
       width="793.70135"
       height="793.70135" />
  </sodipodi:namedview>
  <path
     d="m 642.23692,270.09362 -37.72534,-65.93867 -398.21732,266.52 21.03867,36.77866 z"
     style="fill:#231f20;fill-opacity:1;fill-rule:nonzero;stroke:none;stroke-width:1.33333"
     id="path20662" />
  <path
     d="m 657.25132,296.33775 37.72,65.93867 -431.59066,208.19332 -21.03333,-36.76933 z"
     style="fill:#231f20;fill-opacity:1;fill-rule:nonzero;stroke:none;stroke-width:1.33333"
     id="path20666" />
  <path
     d="m 144.357,579.054 c -2.801,1.603 -6.351,0.62 -7.943,-2.171 -1.593,-2.789 -0.641,-6.349 2.16,-7.942 2.784,-1.603 6.36,-0.631 7.952,2.16 1.599,2.79 0.62,6.349 -2.169,7.953 m 501.471,-302.679 -534.467,305.758 7.827,13.682 534.466,-305.762 z"
     style="fill:#231f20;fill-opacity:1;fill-rule:nonzero;stroke:none"
     id="path20678" />
  <path
     d="M 304.911,394.795 137.189,291.635 97.3955,356.344 246.255,434.058 Z"
     style="fill:#231f20;fill-opacity:1;fill-rule:nonzero;stroke:none"
     id="path20682" />
  <path
     d="M 325.885,380.734 149.231,272.048 140.979,285.469 311.501,390.383 Z"
     style="fill:#231f20;fill-opacity:1;fill-rule:nonzero;stroke:none"
     id="path20686" />
  <path
     d="M 386.702,340.05 332.546,376.29 153.027,265.88 192.821,201.169 Z"
     style="fill:#231f20;fill-opacity:1;fill-rule:nonzero;stroke:none"
     id="path20690" />
  <path
     d="m 522.156,578.14 22.203,-36.111 -89.263,-54.897 -55.733,26.913 z"
     style="fill:#231f20;fill-opacity:1;fill-rule:nonzero;stroke:none"
     id="path20694" />
  <path
     d="m 648.876,588.553 c -1.689,2.736 -5.271,3.601 -8.007,1.913 -2.746,-1.678 -3.602,-5.281 -1.918,-8.022 1.682,-2.743 5.274,-3.587 8.021,-1.91 2.748,1.69 3.583,5.276 1.904,8.019 m -169.278,-113.305 -16.751,8.124 202.641,124.648 8.257,-13.428 z"
     style="fill:#231f20;fill-opacity:1;fill-rule:nonzero;stroke:none"
     id="path20698" />
  <path
     d="m 536.956,447.619 45.439,32.565 -22.192,36.084 -72.823,-44.754 z"
     style="fill:#231f20;fill-opacity:1;fill-rule:nonzero;stroke:none"
     id="path20702" />
</svg>
