<?xml version="1.0" encoding="UTF-8" standalone="no"?>
<!-- Created with Inkscape (http://www.inkscape.org/) -->

<svg
   sodipodi:docname="Hinomaru Ougi.svg"
   viewBox="0 0 795.03467 793.70135"
   height="793.70135"
   width="795.03467"
   id="svg21327"
   version="1.1"
   inkscape:version="1.2 (dc2aeda, 2022-05-15)"
   xmlns:inkscape="http://www.inkscape.org/namespaces/inkscape"
   xmlns:sodipodi="http://sodipodi.sourceforge.net/DTD/sodipodi-0.dtd"
   xmlns="http://www.w3.org/2000/svg"
   xmlns:svg="http://www.w3.org/2000/svg">
  <defs
     id="defs21331">
    <clipPath
       clipPathUnits="userSpaceOnUse"
       id="clipPath21744">
      <path
         d="M -538.2217,577.9479 H 58.054302 V -17.3281 H -538.2217 Z"
         id="path21746"
         style="stroke-width:0.999998" />
    </clipPath>
    <clipPath
       clipPathUnits="userSpaceOnUse"
       id="clipPath21748">
      <path
         d="M -584.1943,578.9381 H 12.081702 V -16.3379 H -584.1943 Z"
         id="path21750"
         style="stroke-width:0.999998" />
    </clipPath>
    <clipPath
       clipPathUnits="userSpaceOnUse"
       id="clipPath21752">
      <path
         d="M -586.5449,579.5026 H 9.7311024 V -15.7734 H -586.5449 Z"
         id="path21754"
         style="stroke-width:0.999998" />
    </clipPath>
    <clipPath
       clipPathUnits="userSpaceOnUse"
       id="clipPath21756">
      <path
         d="M -556.4014,578.0143 H 39.874602 V -17.2617 H -556.4014 Z"
         id="path21758"
         style="stroke-width:0.999998" />
    </clipPath>
    <clipPath
       clipPathUnits="userSpaceOnUse"
       id="clipPath21760">
      <path
         d="M -550.2637,577.3248 H 46.012302 V -17.9512 H -550.2637 Z"
         id="path21762"
         style="stroke-width:0.999998" />
    </clipPath>
    <clipPath
       clipPathUnits="userSpaceOnUse"
       id="clipPath21764">
      <path
         d="M -568.2266,575.819 H 28.049402 V -19.457 H -568.2266 Z"
         id="path21766"
         style="stroke-width:0.999998" />
    </clipPath>
    <clipPath
       clipPathUnits="userSpaceOnUse"
       id="clipPath21768">
      <path
         d="M -557.4951,577.8502 H 38.780902 V -17.4258 H -557.4951 Z"
         id="path21770"
         style="stroke-width:0.999998" />
    </clipPath>
    <clipPath
       clipPathUnits="userSpaceOnUse"
       id="clipPath21772">
      <path
         d="M -576.3691,585.5885 H 19.906902 V -9.6875 H -576.3691 Z"
         id="path21774"
         style="stroke-width:0.999998" />
    </clipPath>
    <clipPath
       clipPathUnits="userSpaceOnUse"
       id="clipPath21776">
      <path
         d="M -574.5459,585.8522 H 21.730102 V -9.4238 H -574.5459 Z"
         id="path21778"
         style="stroke-width:0.999998" />
    </clipPath>
    <clipPath
       clipPathUnits="userSpaceOnUse"
       id="clipPath21780">
      <path
         d="M -572.8174,586.1354 H 23.458602 V -9.1406 H -572.8174 Z"
         id="path21782"
         style="stroke-width:0.999998" />
    </clipPath>
    <clipPath
       clipPathUnits="userSpaceOnUse"
       id="clipPath21784">
      <path
         d="M -567.7754,585.8522 H 28.500602 V -9.4238 H -567.7754 Z"
         id="path21786"
         style="stroke-width:0.999998" />
    </clipPath>
    <clipPath
       clipPathUnits="userSpaceOnUse"
       id="clipPath21788">
      <path
         d="M -564.5732,585.8483 H 31.702802 V -9.4277 H -564.5732 Z"
         id="path21790"
         style="stroke-width:0.999998" />
    </clipPath>
    <clipPath
       clipPathUnits="userSpaceOnUse"
       id="clipPath21792">
      <path
         d="M -561.4131,585.8522 H 34.862902 V -9.4238 H -561.4131 Z"
         id="path21794"
         style="stroke-width:0.999998" />
    </clipPath>
    <clipPath
       clipPathUnits="userSpaceOnUse"
       id="clipPath21796">
      <path
         d="M -557.0645,585.8483 H 39.211502 V -9.4277 H -557.0645 Z"
         id="path21798"
         style="stroke-width:0.999998" />
    </clipPath>
    <clipPath
       clipPathUnits="userSpaceOnUse"
       id="clipPath21800">
      <path
         d="M -553.8975,585.8483 H 42.378502 V -9.4277 H -553.8975 Z"
         id="path21802"
         style="stroke-width:0.999998" />
    </clipPath>
    <clipPath
       clipPathUnits="userSpaceOnUse"
       id="clipPath21804">
      <path
         d="M -548.9834,585.8522 H 47.292602 V -9.4238 H -548.9834 Z"
         id="path21806"
         style="stroke-width:0.999998" />
    </clipPath>
    <clipPath
       clipPathUnits="userSpaceOnUse"
       id="clipPath21808">
      <path
         d="M -545.417,584.5729 H 50.859002 V -10.7031 H -545.417 Z"
         id="path21810"
         style="stroke-width:0.999998" />
    </clipPath>
    <clipPath
       clipPathUnits="userSpaceOnUse"
       id="clipPath21812">
      <path
         d="M -542.9326,584.5729 H 53.343402 V -10.7031 H -542.9326 Z"
         id="path21814"
         style="stroke-width:0.999998" />
    </clipPath>
    <clipPath
       clipPathUnits="userSpaceOnUse"
       id="clipPath21816">
      <path
         d="M -540.8213,585.8483 H 55.454702 V -9.4277 H -540.8213 Z"
         id="path21818"
         style="stroke-width:0.999998" />
    </clipPath>
    <clipPath
       clipPathUnits="userSpaceOnUse"
       id="clipPath21820">
      <path
         d="M -536.6982,584.5729 H 59.577802 V -10.7031 H -536.6982 Z"
         id="path21822"
         style="stroke-width:0.999998" />
    </clipPath>
    <clipPath
       clipPathUnits="userSpaceOnUse"
       id="clipPath21824">
      <path
         d="M -528.0898,575.3815 H 68.186202 V -19.8945 H -528.0898 Z"
         id="path21826"
         style="stroke-width:0.999998" />
    </clipPath>
    <clipPath
       clipPathUnits="userSpaceOnUse"
       id="clipPath21828">
      <path
         d="M -531.1924,581.5885 H 65.083602 V -13.6875 H -531.1924 Z"
         id="path21830"
         style="stroke-width:0.999998" />
    </clipPath>
    <clipPath
       clipPathUnits="userSpaceOnUse"
       id="clipPath22014">
      <path
         d="m -335.8672,456.0406 h 596.276 v -595.276 h -596.276 z"
         id="path22016"
         style="stroke-width:0.999998" />
    </clipPath>
    <clipPath
       clipPathUnits="userSpaceOnUse"
       id="clipPath22020">
      <path
         d="m -297.6406,295.4889 h 596.276 v -595.276 h -596.276 z"
         id="path22022"
         style="stroke-width:0.999998" />
    </clipPath>
    <clipPath
       clipPathUnits="userSpaceOnUse"
       id="clipPath22027">
      <path
         d="m -304.2393,313.819 h 596.276 v -595.276 h -596.276 z"
         id="path22029"
         style="stroke-width:0.999998" />
    </clipPath>
    <clipPath
       clipPathUnits="userSpaceOnUse"
       id="clipPath22033">
      <path
         d="m -286.4209,408.525 h 596.276 v -595.276 h -596.276 z"
         id="path22035"
         style="stroke-width:0.999998" />
    </clipPath>
    <clipPath
       clipPathUnits="userSpaceOnUse"
       id="clipPath22039">
      <path
         d="m -269.9829,415.4869 h 596.276 v -595.276 h -596.276 z"
         id="path22041"
         style="stroke-width:0.999998" />
    </clipPath>
    <clipPath
       clipPathUnits="userSpaceOnUse"
       id="clipPath22045">
      <path
         d="m -297.8276,445.0035 h 596.276 v -595.276 h -596.276 z"
         id="path22047"
         style="stroke-width:0.999998" />
    </clipPath>
  </defs>
  <sodipodi:namedview
     id="namedview21329"
     pagecolor="#ffffff"
     bordercolor="#000000"
     borderopacity="0.25"
     inkscape:showpageshadow="2"
     inkscape:pageopacity="0.0"
     inkscape:pagecheckerboard="0"
     inkscape:deskcolor="#d1d1d1"
     showgrid="false"
     inkscape:zoom="0.29734106"
     inkscape:cx="-215.24105"
     inkscape:cy="396.85068"
     inkscape:window-width="1419"
     inkscape:window-height="456"
     inkscape:window-x="0"
     inkscape:window-y="25"
     inkscape:window-maximized="0"
     inkscape:current-layer="svg21327">
    <inkscape:page
       x="0"
       y="0"
       id="page21333"
       width="795.03467"
       height="793.70135" />
  </sodipodi:namedview>
  <path
     d="M 447.823 608.054 L 419.25 590.493 L 415.844 592.557 L 429.727 617.417 L 438.826 622.974 C 438.826 622.974 447.072 627.075 450.896 620.099 C 454.7 613.118 447.823 608.054 447.823 608.054 M 411.798 598.025 L 411.819 633.825 L 414.86 639.121 C 414.86 639.121 420.062 646.729 426.79 642.518 C 433.534 638.259 430.008 630.495 430.008 630.495 Z M 369.639 620.831 L 364.206 630.71 C 364.206 630.71 360.477 639.121 367.591 642.638 C 374.734 646.15 379.509 639.07 379.509 639.07 L 399.844 602.339 Z M 388.171 636.274 L 388.182 641.249 C 388.182 641.249 389.034 650.433 396.963 650.037 C 404.908 649.61 405.622 641.11 405.622 641.11 L 405.6 604.819 Z"
     style="fill:#000000;fill-opacity:1;fill-rule:nonzero;stroke:none"
     id="path21447" />
  <path
     d="M 397.103 593.338 C 393.271 593.338 390.171 590.23 390.171 586.397 C 390.171 582.559 393.271 579.455 397.103 579.455 C 400.935 579.455 404.035 582.559 404.035 586.397 C 404.035 590.23 400.935 593.338 397.103 593.338 M 752.418 359.148 L 345.802 607.649 C 345.802 607.649 338.391 613.149 342.879 619.705 C 347.362 626.263 355.016 622.443 355.016 622.443 L 759.831 375.289 C 759.831 375.289 757.493 369.252 752.418 359.148"
     style="fill:#000000;fill-opacity:1;fill-rule:nonzero;stroke:none"
     id="path21451" />
  <path
     d="M 359.977 553.983 L 249.332 486.295 C 245.52 490.764 241.943 495.366 238.553 500.155 L 374.1 583.032 L 375.748 582.004 Z"
     style="fill:#000000;fill-opacity:1;fill-rule:nonzero;stroke:none"
     id="path21455" />
  <path
     d="M 381.895 544.7 L 319.799 434.136 C 314.443 436.459 309.223 439.022 304.138 441.798 L 381.062 578.717 L 381.922 578.183 Z"
     style="fill:#000000;fill-opacity:1;fill-rule:nonzero;stroke:none"
     id="path21459" />
  <path
     d="M 405.652 418.425 C 402.739 418.294 399.807 418.232 396.855 418.232 C 393.911 418.232 390.999 418.294 388.083 418.425 L 388.165 574.539 L 405.531 543.385 L 405.531 418.428"
     style="fill:#000000;fill-opacity:1;fill-rule:nonzero;stroke:none"
     id="path21463" />
  <path
     d="m 399.01306,567.80027 30.272,-18.49733 60.304,-107.49467 c -5.08667,-2.76533 -10.30934,-5.332 -15.65867,-7.648 z"
     style="fill:#000000;fill-opacity:1;fill-rule:nonzero;stroke:none;stroke-width:1.33333"
     id="path21467" />
  <path
     d="M 396.854 393.985 C 332.382 393.985 280.12 341.721 280.12 277.251 C 280.12 212.784 332.382 160.516 396.854 160.516 C 461.326 160.516 513.588 212.784 513.588 277.251 C 513.588 341.721 461.326 393.985 396.854 393.985 M 396.854 143.655 C 124.028 143.655 33.8682 375.288 33.8682 375.288 L 231.934 496.113 C 268.43 444.302 328.654 410.412 396.854 410.412 C 456.433 410.412 509.984 436.256 546.908 477.333 L 748.524 354.316 C 681.344 228.901 549.076 143.655 396.854 143.655"
     style="fill:#000000;fill-opacity:1;fill-rule:nonzero;stroke:none"
     id="path21471" />
</svg>
