<?xml version="1.0" encoding="UTF-8" standalone="no"?>
<!-- Created with Inkscape (http://www.inkscape.org/) -->

<svg
   version="1.1"
   id="svg22289"
   width="793.70135"
   height="793.70135"
   viewBox="0 0 793.70135 793.70135"
   sodipodi:docname="Itowani Shiriawase Sanbon Ougi.svg"
   inkscape:version="1.2 (dc2aeda, 2022-05-15)"
   xmlns:inkscape="http://www.inkscape.org/namespaces/inkscape"
   xmlns:sodipodi="http://sodipodi.sourceforge.net/DTD/sodipodi-0.dtd"
   xmlns="http://www.w3.org/2000/svg"
   xmlns:svg="http://www.w3.org/2000/svg">
  <defs
     id="defs22293">
    <clipPath
       clipPathUnits="userSpaceOnUse"
       id="clipPath22534">
      <path
         d="m -298.1045,406.4618 h 595.276 v -841.89 h -595.276 z"
         id="path22536"
         style="stroke-width:0.999998" />
    </clipPath>
    <clipPath
       clipPathUnits="userSpaceOnUse"
       id="clipPath22540">
      <path
         d="m -94.3774,548.4574 h 595.276 v -841.89 h -595.276 z"
         id="path22542"
         style="stroke-width:0.999998" />
    </clipPath>
    <clipPath
       clipPathUnits="userSpaceOnUse"
       id="clipPath22546">
      <path
         d="m -284.5791,431.7386 h 595.276 v -841.89 h -595.276 z"
         id="path22548"
         style="stroke-width:0.999998" />
    </clipPath>
    <clipPath
       clipPathUnits="userSpaceOnUse"
       id="clipPath22552">
      <path
         d="M -510.6426,532.514 H 84.633397 v -841.89 H -510.6426 Z"
         id="path22554"
         style="stroke-width:0.999998" />
    </clipPath>
    <clipPath
       clipPathUnits="userSpaceOnUse"
       id="clipPath22558">
      <path
         d="M -501.2539,548.7855 H 94.022097 v -841.89 H -501.2539 Z"
         id="path22560"
         style="stroke-width:0.999998" />
    </clipPath>
    <clipPath
       clipPathUnits="userSpaceOnUse"
       id="clipPath22564">
      <path
         d="m -315.7031,430.8129 h 595.276 v -841.89 h -595.276 z"
         id="path22566"
         style="stroke-width:0.999998" />
    </clipPath>
    <clipPath
       clipPathUnits="userSpaceOnUse"
       id="clipPath22570">
      <path
         d="m -120.0737,243.39 h 595.276 V -598.5 h -595.276 z"
         id="path22572"
         style="stroke-width:0.999998" />
    </clipPath>
    <clipPath
       clipPathUnits="userSpaceOnUse"
       id="clipPath22576">
      <path
         d="m -84.9888,532.1859 h 595.276 v -841.89 h -595.276 z"
         id="path22578"
         style="stroke-width:0.999998" />
    </clipPath>
  </defs>
  <sodipodi:namedview
     id="namedview22291"
     pagecolor="#ffffff"
     bordercolor="#000000"
     borderopacity="0.25"
     inkscape:showpageshadow="2"
     inkscape:pageopacity="0.0"
     inkscape:pagecheckerboard="0"
     inkscape:deskcolor="#d1d1d1"
     showgrid="false"
     inkscape:zoom="0.21024124"
     inkscape:cx="-634.98484"
     inkscape:cy="456.61831"
     inkscape:window-width="1419"
     inkscape:window-height="456"
     inkscape:window-x="0"
     inkscape:window-y="25"
     inkscape:window-maximized="0"
     inkscape:current-layer="svg22289">
    <inkscape:page
       x="0"
       y="0"
       id="page22295"
       width="793.70135"
       height="793.70135" />
  </sodipodi:namedview>
  <path
     d="m 384.943,77.992 h -52.617 l 23.273,245.786 h 29.344 z"
     style="fill:#231f20;fill-opacity:1;fill-rule:nonzero;stroke:none"
     id="path22301" />
  <path
     d="m 410,77.992 h 52.618 L 439.346,323.778 H 410 Z"
     style="fill:#231f20;fill-opacity:1;fill-rule:nonzero;stroke:none"
     id="path22305" />
  <path
     d="m 397.471,379.951 c -2.512,0 -4.553,-2.016 -4.553,-4.523 0,-2.496 2.041,-4.532 4.553,-4.532 2.512,0 4.543,2.036 4.543,4.532 0,2.507 -2.031,4.523 -4.543,4.523 m -5.463,8.902 h 10.915 V 77.993 h -10.915 z"
     style="fill:#231f20;fill-opacity:1;fill-rule:nonzero;stroke:none"
     id="path22317" />
  <path
     d="m 125.836,569.277 26.319,45.571 201.221,-143.047 -14.678,-25.417 z"
     style="fill:#231f20;fill-opacity:1;fill-rule:nonzero;stroke:none"
     id="path22321" />
  <path
     d="M 113.318,547.582 86.9995,502.009 311.502,399.272 l 14.666,25.417 z"
     style="fill:#231f20;fill-opacity:1;fill-rule:nonzero;stroke:none"
     id="path22325" />
  <path
     d="m 379.438,413.653 c -2.16,1.248 -4.95,0.495 -6.2,-1.672 -1.252,-2.18 -0.503,-4.958 1.657,-6.205 2.169,-1.256 4.927,-0.5 6.188,1.677 1.252,2.17 0.524,4.948 -1.645,6.2 m 6.628,-15.377 -269.22,155.426 5.462,9.456 269.21,-155.429 z"
     style="fill:#231f20;fill-opacity:1;fill-rule:nonzero;stroke:none"
     id="path22329" />
  <path
     d="M 680.856,548.02 707.174,502.452 482.672,399.713 468.005,425.132 Z"
     style="fill:#231f20;fill-opacity:1;fill-rule:nonzero;stroke:none"
     id="path22333" />
  <path
     d="m 668.337,569.716 -26.319,45.578 -201.219,-143.05 14.677,-25.416 z"
     style="fill:#231f20;fill-opacity:1;fill-rule:nonzero;stroke:none"
     id="path22337" />
  <path
     d="m 420.936,412.419 c -1.261,2.177 -4.04,2.921 -6.2,1.672 -2.169,-1.254 -2.897,-4.022 -1.646,-6.199 1.25,-2.171 4.02,-2.932 6.189,-1.679 2.171,1.247 2.908,4.039 1.657,6.206 m -12.828,-13.706 -5.452,9.454 269.208,155.429 5.464,-9.456 z"
     style="fill:#231f20;fill-opacity:1;fill-rule:nonzero;stroke:none"
     id="path22341" />
  <path
     d="m 160.098,162.522 c -60.4422,60.449 -97.7715,143.842 -97.7822,236.079 0.0107,92.226 37.34,175.624 97.7822,236.077 60.452,60.432 143.857,97.779 236.081,97.789 92.245,-0.01 175.638,-37.357 236.09,-97.789 C 692.701,574.225 730.05,490.827 730.062,398.601 730.05,306.364 692.701,222.971 632.269,162.522 571.817,102.079 488.424,64.732 396.179,64.721 303.955,64.732 220.55,102.079 160.098,162.522 M 40.4226,398.601 c 0,-196.491 159.2824,-355.76 355.7564,-355.771 196.494,0.011 355.764,159.28 355.764,355.771 0,196.481 -159.27,355.749 -355.764,355.76 C 199.705,754.35 40.4226,595.082 40.4226,398.601"
     style="fill:#231f20;fill-opacity:1;fill-rule:nonzero;stroke:none"
     id="path22345" />
</svg>
