<?xml version="1.0" encoding="UTF-8" standalone="no"?>
<!-- Created with Inkscape (http://www.inkscape.org/) -->

<svg
   sodipodi:docname="Itsutsu Kasane Suehiro.svg"
   viewBox="0 0 795.03467 793.70135"
   height="793.70135"
   width="795.03467"
   id="svg32359"
   version="1.1"
   inkscape:version="1.2 (dc2aeda, 2022-05-15)"
   xmlns:inkscape="http://www.inkscape.org/namespaces/inkscape"
   xmlns:sodipodi="http://sodipodi.sourceforge.net/DTD/sodipodi-0.dtd"
   xmlns="http://www.w3.org/2000/svg"
   xmlns:svg="http://www.w3.org/2000/svg">
  <defs
     id="defs32363">
    <clipPath
       clipPathUnits="userSpaceOnUse"
       id="clipPath32756">
      <path
         d="M -538.2217,577.9479 H 58.054302 V -17.3281 H -538.2217 Z"
         id="path32758"
         style="stroke-width:0.999998" />
    </clipPath>
    <clipPath
       clipPathUnits="userSpaceOnUse"
       id="clipPath32760">
      <path
         d="M -584.1943,578.9381 H 12.081702 V -16.3379 H -584.1943 Z"
         id="path32762"
         style="stroke-width:0.999998" />
    </clipPath>
    <clipPath
       clipPathUnits="userSpaceOnUse"
       id="clipPath32764">
      <path
         d="M -586.5449,579.5026 H 9.7311024 V -15.7734 H -586.5449 Z"
         id="path32766"
         style="stroke-width:0.999998" />
    </clipPath>
    <clipPath
       clipPathUnits="userSpaceOnUse"
       id="clipPath32768">
      <path
         d="M -556.4014,578.0143 H 39.874602 V -17.2617 H -556.4014 Z"
         id="path32770"
         style="stroke-width:0.999998" />
    </clipPath>
    <clipPath
       clipPathUnits="userSpaceOnUse"
       id="clipPath32772">
      <path
         d="M -550.2637,577.3248 H 46.012302 V -17.9512 H -550.2637 Z"
         id="path32774"
         style="stroke-width:0.999998" />
    </clipPath>
    <clipPath
       clipPathUnits="userSpaceOnUse"
       id="clipPath32776">
      <path
         d="M -568.2266,575.819 H 28.049402 V -19.457 H -568.2266 Z"
         id="path32778"
         style="stroke-width:0.999998" />
    </clipPath>
    <clipPath
       clipPathUnits="userSpaceOnUse"
       id="clipPath32780">
      <path
         d="M -557.4951,577.8502 H 38.780902 V -17.4258 H -557.4951 Z"
         id="path32782"
         style="stroke-width:0.999998" />
    </clipPath>
    <clipPath
       clipPathUnits="userSpaceOnUse"
       id="clipPath32784">
      <path
         d="M -576.3691,585.5885 H 19.906902 V -9.6875 H -576.3691 Z"
         id="path32786"
         style="stroke-width:0.999998" />
    </clipPath>
    <clipPath
       clipPathUnits="userSpaceOnUse"
       id="clipPath32788">
      <path
         d="M -574.5459,585.8522 H 21.730102 V -9.4238 H -574.5459 Z"
         id="path32790"
         style="stroke-width:0.999998" />
    </clipPath>
    <clipPath
       clipPathUnits="userSpaceOnUse"
       id="clipPath32792">
      <path
         d="M -572.8174,586.1354 H 23.458602 V -9.1406 H -572.8174 Z"
         id="path32794"
         style="stroke-width:0.999998" />
    </clipPath>
    <clipPath
       clipPathUnits="userSpaceOnUse"
       id="clipPath32796">
      <path
         d="M -567.7754,585.8522 H 28.500602 V -9.4238 H -567.7754 Z"
         id="path32798"
         style="stroke-width:0.999998" />
    </clipPath>
    <clipPath
       clipPathUnits="userSpaceOnUse"
       id="clipPath32800">
      <path
         d="M -564.5732,585.8483 H 31.702802 V -9.4277 H -564.5732 Z"
         id="path32802"
         style="stroke-width:0.999998" />
    </clipPath>
    <clipPath
       clipPathUnits="userSpaceOnUse"
       id="clipPath32804">
      <path
         d="M -561.4131,585.8522 H 34.862902 V -9.4238 H -561.4131 Z"
         id="path32806"
         style="stroke-width:0.999998" />
    </clipPath>
    <clipPath
       clipPathUnits="userSpaceOnUse"
       id="clipPath32808">
      <path
         d="M -557.0645,585.8483 H 39.211502 V -9.4277 H -557.0645 Z"
         id="path32810"
         style="stroke-width:0.999998" />
    </clipPath>
    <clipPath
       clipPathUnits="userSpaceOnUse"
       id="clipPath32812">
      <path
         d="M -553.8975,585.8483 H 42.378502 V -9.4277 H -553.8975 Z"
         id="path32814"
         style="stroke-width:0.999998" />
    </clipPath>
    <clipPath
       clipPathUnits="userSpaceOnUse"
       id="clipPath32816">
      <path
         d="M -548.9834,585.8522 H 47.292602 V -9.4238 H -548.9834 Z"
         id="path32818"
         style="stroke-width:0.999998" />
    </clipPath>
    <clipPath
       clipPathUnits="userSpaceOnUse"
       id="clipPath32820">
      <path
         d="M -545.417,584.5729 H 50.859002 V -10.7031 H -545.417 Z"
         id="path32822"
         style="stroke-width:0.999998" />
    </clipPath>
    <clipPath
       clipPathUnits="userSpaceOnUse"
       id="clipPath32824">
      <path
         d="M -542.9326,584.5729 H 53.343402 V -10.7031 H -542.9326 Z"
         id="path32826"
         style="stroke-width:0.999998" />
    </clipPath>
    <clipPath
       clipPathUnits="userSpaceOnUse"
       id="clipPath32828">
      <path
         d="M -540.8213,585.8483 H 55.454702 V -9.4277 H -540.8213 Z"
         id="path32830"
         style="stroke-width:0.999998" />
    </clipPath>
    <clipPath
       clipPathUnits="userSpaceOnUse"
       id="clipPath32832">
      <path
         d="M -536.6982,584.5729 H 59.577802 V -10.7031 H -536.6982 Z"
         id="path32834"
         style="stroke-width:0.999998" />
    </clipPath>
    <clipPath
       clipPathUnits="userSpaceOnUse"
       id="clipPath32836">
      <path
         d="M -528.0898,575.3815 H 68.186202 V -19.8945 H -528.0898 Z"
         id="path32838"
         style="stroke-width:0.999998" />
    </clipPath>
    <clipPath
       clipPathUnits="userSpaceOnUse"
       id="clipPath32840">
      <path
         d="M -531.1924,581.5885 H 65.083602 V -13.6875 H -531.1924 Z"
         id="path32842"
         style="stroke-width:0.999998" />
    </clipPath>
    <clipPath
       clipPathUnits="userSpaceOnUse"
       id="clipPath33006">
      <path
         d="m -265.7471,162.3546 h 596.276 v -595.276 h -596.276 z"
         id="path33008"
         style="stroke-width:0.999998" />
    </clipPath>
    <clipPath
       clipPathUnits="userSpaceOnUse"
       id="clipPath33012">
      <path
         d="m -159.1191,286.1642 h 596.276 v -595.276 h -596.276 z"
         id="path33014"
         style="stroke-width:0.999998" />
    </clipPath>
    <clipPath
       clipPathUnits="userSpaceOnUse"
       id="clipPath33018">
      <path
         d="m -416.4463,225.504 h 596.276 v -595.276 h -596.276 z"
         id="path33020"
         style="stroke-width:0.999998" />
    </clipPath>
    <clipPath
       clipPathUnits="userSpaceOnUse"
       id="clipPath33024">
      <path
         d="m -243.9189,425.8307 h 596.276 v -595.276 h -596.276 z"
         id="path33026"
         style="stroke-width:0.999998" />
    </clipPath>
    <clipPath
       clipPathUnits="userSpaceOnUse"
       id="clipPath33030">
      <path
         d="m -402.9561,388.3424 h 596.276 v -595.276 h -596.276 z"
         id="path33032"
         style="stroke-width:0.999998" />
    </clipPath>
  </defs>
  <sodipodi:namedview
     id="namedview32361"
     pagecolor="#ffffff"
     bordercolor="#000000"
     borderopacity="0.25"
     inkscape:showpageshadow="2"
     inkscape:pageopacity="0.0"
     inkscape:pagecheckerboard="0"
     inkscape:deskcolor="#d1d1d1"
     showgrid="false"
     inkscape:zoom="0.29734106"
     inkscape:cx="-215.24105"
     inkscape:cy="396.85068"
     inkscape:window-width="1419"
     inkscape:window-height="456"
     inkscape:window-x="0"
     inkscape:window-y="25"
     inkscape:window-maximized="0"
     inkscape:current-layer="svg32359">
    <inkscape:page
       x="0"
       y="0"
       id="page32365"
       width="795.03467"
       height="793.70135" />
  </sodipodi:namedview>
  <path
     d="M 555.262 300.672 L 567.353 308.433 C 577.079 314.679 586.405 321.561 595.279 329.023 C 601.913 320.184 609.147 311.649 617.002 303.483 C 647.666 271.599 684.226 248.811 723.318 235.163 C 679.524 189.791 619.242 160.092 551.334 156.083 C 483.42 152.116 420.076 174.555 371.274 214.488 C 408.498 232.618 442.14 259.529 468.861 294.783 C 495.681 330.169 512.525 369.996 519.877 410.892 C 537.613 380.589 548.639 347.991 553.274 314.899 Z"
     style="fill:#000000;fill-opacity:1;fill-rule:nonzero;stroke:none"
     id="path32479" />
  <path
     d="M 354.329 216.473 L 365.448 207.372 C 374.393 200.052 383.82 193.309 393.656 187.176 C 387.301 178.136 381.421 168.617 376.08 158.624 C 355.233 119.609 344.858 77.796 343.958 36.4001 C 287.276 64.028 240.401 112.181 215.601 175.529 C 190.844 238.893 192.609 306.07 215.508 364.825 C 244.252 335.023 280.244 311.345 322.028 296.826 C 363.97 282.252 407.053 278.541 448.219 284.186 C 424.881 257.954 397.286 237.394 367.245 222.761 Z"
     style="fill:#000000;fill-opacity:1;fill-rule:nonzero;stroke:none"
     id="path32483" />
  <path
     d="M 212.159 381.552 L 206.94 368.165 C 202.742 357.397 199.242 346.347 196.448 335.095 C 185.888 338.347 175.019 340.999 163.863 342.988 C 120.314 350.759 77.3433 347.705 37.6941 335.769 C 46.4554 398.215 77.7673 457.674 130.351 500.836 C 182.964 543.964 247.399 563.042 310.352 559.422 C 290.892 522.876 279.495 481.329 278.599 437.103 C 277.699 392.709 287.481 350.587 305.573 313.182 C 273.414 327.271 245.331 347.161 222.131 371.212 Z"
     style="fill:#000000;fill-opacity:1;fill-rule:nonzero;stroke:none"
     id="path32487" />
  <path
     d="M 325.225 567.774 L 310.881 568.602 C 299.341 569.269 287.753 569.181 276.189 568.359 C 276.017 579.41 275.18 590.569 273.626 601.79 C 267.56 645.61 251.375 685.536 227.771 719.555 C 289.869 730.519 356.096 719.112 413.393 682.44 C 470.666 645.732 508.725 590.347 524.733 529.353 C 483.962 536.569 440.926 534.569 398.586 521.753 C 356.09 508.891 319.053 486.572 289.068 457.805 C 292.53 492.746 302.768 525.602 318.473 555.097 Z"
     style="fill:#000000;fill-opacity:1;fill-rule:nonzero;stroke:none"
     id="path32491" />
  <path
     d="M 537.275 517.79 L 533.63 531.689 C 530.696 542.869 527.031 553.863 522.68 564.607 C 533.135 568.183 543.486 572.43 553.682 577.375 C 593.48 596.686 626.452 624.415 651.509 657.378 C 681.129 601.707 690.747 535.197 673.575 469.371 C 656.359 403.556 615.445 350.246 562.386 316.175 C 556.647 357.18 541.448 397.492 516.176 433.798 C 490.81 470.241 458.138 498.566 421.515 518.197 C 455.814 525.699 490.226 526.115 523.131 520.295 Z"
     style="fill:#000000;fill-opacity:1;fill-rule:nonzero;stroke:none"
     id="path32495" />
</svg>
