<?xml version="1.0" encoding="UTF-8" standalone="no"?>
<!-- Created with Inkscape (http://www.inkscape.org/) -->

<svg
   sodipodi:docname="Kagewatanabe Ougi.svg"
   viewBox="0 0 793.70135 793.70135"
   height="793.70135"
   width="793.70135"
   id="svg23278"
   version="1.1"
   inkscape:version="1.2 (dc2aeda, 2022-05-15)"
   xmlns:inkscape="http://www.inkscape.org/namespaces/inkscape"
   xmlns:sodipodi="http://sodipodi.sourceforge.net/DTD/sodipodi-0.dtd"
   xmlns="http://www.w3.org/2000/svg"
   xmlns:svg="http://www.w3.org/2000/svg">
  <defs
     id="defs23282">
    <clipPath
       clipPathUnits="userSpaceOnUse"
       id="clipPath23702">
      <path
         d="m -377.7061,481.225 h 595.276 v -841.89 h -595.276 z"
         id="path23704"
         style="stroke-width:0.999998" />
    </clipPath>
    <clipPath
       clipPathUnits="userSpaceOnUse"
       id="clipPath23708">
      <path
         d="m -377.5898,370.5467 h 595.276 v -841.89 h -595.276 z"
         id="path23710"
         style="stroke-width:0.999998" />
    </clipPath>
    <clipPath
       clipPathUnits="userSpaceOnUse"
       id="clipPath23714">
      <path
         d="m -456.9277,558.1332 h 595.276 v -841.89 h -595.276 z"
         id="path23716"
         style="stroke-width:0.999998" />
    </clipPath>
    <clipPath
       clipPathUnits="userSpaceOnUse"
       id="clipPath23720">
      <path
         d="m -98.0137,489.9964 h 595.276 v -841.89 h -595.276 z"
         id="path23722"
         style="stroke-width:0.999998" />
    </clipPath>
    <clipPath
       clipPathUnits="userSpaceOnUse"
       id="clipPath23726">
      <path
         d="m -297.1382,264.5462 h 595.276 v -841.89 h -595.276 z"
         id="path23728"
         style="stroke-width:0.999998" />
    </clipPath>
    <clipPath
       clipPathUnits="userSpaceOnUse"
       id="clipPath23732">
      <path
         d="m -195.5552,493.3988 h 595.276 v -841.89 h -595.276 z"
         id="path23734"
         style="stroke-width:0.999998" />
    </clipPath>
    <clipPath
       clipPathUnits="userSpaceOnUse"
       id="clipPath23738">
      <path
         d="m -336.4795,213.2377 h 595.276 v -841.89 h -595.276 z"
         id="path23740"
         style="stroke-width:0.999998" />
    </clipPath>
    <clipPath
       clipPathUnits="userSpaceOnUse"
       id="clipPath23744">
      <path
         d="m -116.6865,600.9066 h 595.276 v -841.89 h -595.276 z"
         id="path23746"
         style="stroke-width:0.999998" />
    </clipPath>
    <clipPath
       clipPathUnits="userSpaceOnUse"
       id="clipPath23750">
      <path
         d="m -294.0552,515.2113 h 595.276 v -841.89 h -595.276 z"
         id="path23752"
         style="stroke-width:0.999998" />
    </clipPath>
    <clipPath
       clipPathUnits="userSpaceOnUse"
       id="clipPath23757">
      <path
         d="m -477.585,600.9066 h 595.276 v -841.89 h -595.276 z"
         id="path23759"
         style="stroke-width:0.999998" />
    </clipPath>
  </defs>
  <sodipodi:namedview
     id="namedview23280"
     pagecolor="#ffffff"
     bordercolor="#000000"
     borderopacity="0.25"
     inkscape:showpageshadow="2"
     inkscape:pageopacity="0.0"
     inkscape:pagecheckerboard="0"
     inkscape:deskcolor="#d1d1d1"
     showgrid="false"
     inkscape:zoom="0.21024124"
     inkscape:cx="-872.80688"
     inkscape:cy="409.0539"
     inkscape:window-width="1419"
     inkscape:window-height="456"
     inkscape:window-x="0"
     inkscape:window-y="25"
     inkscape:window-maximized="0"
     inkscape:current-layer="svg23278">
    <inkscape:page
       x="0"
       y="0"
       id="page23284"
       width="793.70135"
       height="793.70135" />
  </sodipodi:namedview>
  <path
     d="m 448.639,122.317 c 0,28.965 -23.485,52.451 -52.455,52.451 -28.97,0 -52.457,-23.486 -52.457,-52.451 0,-28.971 23.487,-52.456 52.457,-52.456 28.97,0 52.455,23.485 52.455,52.456"
     style="fill:#231f20;fill-opacity:1;fill-rule:nonzero;stroke:none"
     id="path23298" />
  <path
     d="m 130.685,491.329 c 25.089,-14.481 57.171,-5.885 71.656,19.197 14.484,25.092 5.884,57.172 -19.2,71.657 -25.089,14.484 -57.171,5.886 -71.656,-19.198 -14.4852,-25.091 -5.889,-57.172 19.2,-71.656"
     style="fill:#231f20;fill-opacity:1;fill-rule:nonzero;stroke:none"
     id="path23302" />
  <path
     d="m 609.237,582.178 c -25.089,-14.484 -33.685,-46.565 -19.199,-71.65 14.486,-25.09 46.566,-33.686 71.656,-19.199 25.083,14.48 33.673,46.565 19.199,71.649 -14.491,25.091 -46.572,33.684 -71.656,19.2"
     style="fill:#231f20;fill-opacity:1;fill-rule:nonzero;stroke:none"
     id="path23306" />
  <path
     d="m 503.608,479.633 c 3.251,-4.32 6.275,-8.883 9.044,-13.677 2.768,-4.807 5.211,-9.81 7.333,-14.796 l 28.138,16.254 c -4.56,10.036 -10.094,19.552 -16.454,28.404 z"
     style="fill:#231f20;fill-opacity:1;fill-rule:nonzero;stroke:none"
     id="path23310" />
  <path
     d="m 379.80666,265.20095 v -32.60533 c 5.37733,-0.53334 10.872,-0.812 16.388,-0.82267 5.54267,0.0107 11.016,0.29333 16.42,0.83333 l -0.005,32.58934 c -5.372,-0.66267 -10.76,-0.99467 -16.11467,-1 h -0.236 -0.0213 c -5.48934,0 -11.00534,0.33733 -16.43067,1.00533"
     style="fill:#231f20;fill-opacity:1;fill-rule:nonzero;stroke:none;stroke-width:1.33333"
     id="path23314" />
  <path
     d="m 260.74,495.865 28.02,-16.2 c -6.672,-8.852 -12.156,-18.409 -16.421,-28.48 l -28.078,16.261 c 4.57,10.05 10.098,19.558 16.479,28.419"
     style="fill:#231f20;fill-opacity:1;fill-rule:nonzero;stroke:none"
     id="path23318" />
  <path
     d="m 396.184,190.728 c -65.136,0.005 -123.256,29.964 -161.366,76.845 L 119.23,200.877 C 130.161,185.596 142.326,171.267 155.582,158 217.211,96.415 302.164,58.368 396.184,58.352 490.197,58.368 575.157,96.415 636.779,158 c 13.288,13.299 25.448,27.613 36.4,42.937 l -115.554,66.684 c -38.109,-46.95 -96.254,-76.888 -161.441,-76.893 m 0,-165.221 C 259.511,25.518 140.022,98.97 75.0381,208.575 L 281.822,327.902 c 5.2,-8.424 11.192,-16.057 17.836,-22.908 l -35.871,-20.708 c 32.076,-37.114 79.46,-60.622 132.397,-60.718 52.947,0.096 100.352,23.593 132.433,60.718 l -35.903,20.746 c 6.831,7.033 12.786,14.697 17.836,22.886 L 717.313,208.569 C 652.329,98.975 532.845,25.518 396.184,25.507"
     style="fill:#231f20;fill-opacity:1;fill-rule:nonzero;stroke:none"
     id="path23322" />
  <path
     d="m 503.453,332.062 -28.489,16.365 c -7.804,-12.261 -18.586,-22.854 -32.054,-30.626 -14.785,-8.536 -30.777,-12.54 -46.623,-12.55 -31.06,0.026 -61.214,15.403 -78.89,43.204 l -28.434,-16.441 c 23.774,-38.26 65.017,-59.619 107.324,-59.608 21.406,0 43.191,5.479 63.031,16.955 18.676,10.78 33.514,25.56 44.135,42.701"
     style="fill:#231f20;fill-opacity:1;fill-rule:nonzero;stroke:none"
     id="path23326" />
  <path
     d="m 392.074,524.948 v -32.872 c -14.501,-0.641 -29.125,-4.661 -42.616,-12.443 -30.001,-17.313 -46.716,-48.682 -46.742,-81.025 0.01,-14.618 3.416,-29.324 10.625,-43.093 l -28.483,-16.399 c -10.129,18.864 -14.988,39.34 -14.977,59.492 -0.021,43.598 22.668,86.088 63.157,109.46 18.607,10.744 38.917,16.24 59.036,16.88"
     style="fill:#231f20;fill-opacity:1;fill-rule:nonzero;stroke:none"
     id="path23330" />
  <path
     d="M 155.582,639.209 C 93.9862,577.586 55.9396,492.625 55.9289,398.614 c 0,-50.248 10.8613,-97.959 30.3813,-140.852 l 115.6448,66.689 c -8.797,23.037 -13.645,48.032 -13.645,74.163 0,103.634 75.829,189.535 175.034,205.286 l 0.005,133.397 C 282.463,729.553 209.946,693.542 155.582,639.209 M 363.451,529.176 h -0.107 l 0.043,41.351 C 282.404,555.1 221.299,484.081 221.15,398.614 c 0.037,-20.14 3.478,-39.462 9.754,-57.46 l 35.94,20.745 c 2.614,-9.161 6.211,-18.2 10.883,-26.88 L 70.9595,215.697 C 40.4983,269.739 23.0943,332.148 23.089,398.614 23.0997,603.274 187.946,769.419 392.073,771.681 V 533.155 c -9.552,-0.284 -19.166,-1.599 -28.622,-3.979"
     style="fill:#231f20;fill-opacity:1;fill-rule:nonzero;stroke:none"
     id="path23334" />
  <path
     d="M 636.78,639.209 C 582.42,693.542 509.9,729.553 429.025,737.293 V 603.9 c 99.203,-15.751 175.027,-101.652 175.038,-205.286 0,-26.106 -4.838,-51.126 -13.619,-74.142 L 706.025,257.81 c 19.509,42.877 30.413,90.576 30.413,140.804 -0.01,94.011 -38.057,178.972 -99.658,240.595 M 721.429,215.697 514.636,335.019 c 4.591,8.557 8.242,17.589 10.888,26.875 l 35.971,-20.676 c 6.239,17.954 9.686,37.309 9.722,57.396 -0.154,85.439 -61.258,156.445 -142.192,171.895 v -41.378 c -9.44,2.378 -18.966,3.74 -28.735,4.029 V 771.681 C 604.496,769.515 769.262,603.334 769.278,398.614 769.268,332.158 751.88,269.739 721.429,215.697 M 429.025,529.108 v 0.023 c 0.032,-0.007 0.062,-0.015 0.096,-0.023 z"
     style="fill:#231f20;fill-opacity:1;fill-rule:nonzero;stroke:none"
     id="path23338" />
  <path
     d="m 400.28906,524.94841 v -32.872 c 30.85733,-1.37867 60.23867,-17.928 76.80666,-46.63066 8.52134,-14.77867 12.52934,-30.776 12.54134,-46.63467 -0.012,-15.05733 -3.656,-29.93733 -10.568,-43.25733 l 28.468,-16.404 c 9.776,18.32266 14.94933,38.89066 14.94,59.66133 0.009,21.416 -5.48,43.192 -16.93467,63.044 -22.64667,39.2 -63.124,61.71866 -105.25333,63.09333"
     style="fill:#231f20;fill-opacity:1;fill-rule:nonzero;stroke:none;stroke-width:1.33333"
     id="path23342" />
</svg>
