<?xml version="1.0" encoding="UTF-8" standalone="no"?>
<!-- Created with Inkscape (http://www.inkscape.org/) -->

<svg
   sodipodi:docname="Maruni Chigai Ougi.svg"
   viewBox="0 0 793.70135 793.70135"
   height="793.70135"
   width="793.70135"
   id="svg24184"
   version="1.1"
   inkscape:version="1.2 (dc2aeda, 2022-05-15)"
   xmlns:inkscape="http://www.inkscape.org/namespaces/inkscape"
   xmlns:sodipodi="http://sodipodi.sourceforge.net/DTD/sodipodi-0.dtd"
   xmlns="http://www.w3.org/2000/svg"
   xmlns:svg="http://www.w3.org/2000/svg">
  <defs
     id="defs24188">
    <clipPath
       clipPathUnits="userSpaceOnUse"
       id="clipPath24545">
      <path
         d="m -267.4146,353.641 h 595.276 v -841.89 h -595.276 z"
         id="path24547"
         style="stroke-width:0.999998" />
    </clipPath>
    <clipPath
       clipPathUnits="userSpaceOnUse"
       id="clipPath24551">
      <path
         d="m -444.6523,548.2611 h 595.276 v -841.89 h -595.276 z"
         id="path24553"
         style="stroke-width:0.999998" />
    </clipPath>
    <clipPath
       clipPathUnits="userSpaceOnUse"
       id="clipPath24557">
      <path
         d="m -137.4941,260.7953 h 595.276 v -841.89 h -595.276 z"
         id="path24559"
         style="stroke-width:0.999998" />
    </clipPath>
    <clipPath
       clipPathUnits="userSpaceOnUse"
       id="clipPath24563">
      <path
         d="m -264.4487,357.016 h 595.276 v -841.89 h -595.276 z"
         id="path24565"
         style="stroke-width:0.999998" />
    </clipPath>
    <clipPath
       clipPathUnits="userSpaceOnUse"
       id="clipPath24569">
      <path
         d="m -152.1943,546.806 h 595.276 v -841.89 h -595.276 z"
         id="path24571"
         style="stroke-width:0.999998" />
    </clipPath>
    <clipPath
       clipPathUnits="userSpaceOnUse"
       id="clipPath24575">
      <path
         d="m -364.0586,405.6146 h 595.276 v -841.89 h -595.276 z"
         id="path24577"
         style="stroke-width:0.999998" />
    </clipPath>
    <clipPath
       clipPathUnits="userSpaceOnUse"
       id="clipPath24581">
      <path
         d="m -325.9277,438.9154 h 595.276 v -841.89 h -595.276 z"
         id="path24583"
         style="stroke-width:0.999998" />
    </clipPath>
    <clipPath
       clipPathUnits="userSpaceOnUse"
       id="clipPath24587">
      <path
         d="m -229.6118,396.9134 h 595.276 v -841.89 h -595.276 z"
         id="path24589"
         style="stroke-width:0.999998" />
    </clipPath>
  </defs>
  <sodipodi:namedview
     id="namedview24186"
     pagecolor="#ffffff"
     bordercolor="#000000"
     borderopacity="0.25"
     inkscape:showpageshadow="2"
     inkscape:pageopacity="0.0"
     inkscape:pagecheckerboard="0"
     inkscape:deskcolor="#d1d1d1"
     showgrid="false"
     inkscape:zoom="0.21024124"
     inkscape:cx="-532.72136"
     inkscape:cy="523.20848"
     inkscape:window-width="1419"
     inkscape:window-height="456"
     inkscape:window-x="0"
     inkscape:window-y="25"
     inkscape:window-maximized="0"
     inkscape:current-layer="svg24184">
    <inkscape:page
       x="0"
       y="0"
       id="page24190"
       width="793.70135"
       height="793.70135" />
  </sodipodi:namedview>
  <path
     d="m 558.05732,185.27202 -44.75067,-44.74933 -273.05066,312.62799 24.96134,24.96 z"
     style="fill:#231f20;fill-opacity:1;fill-rule:nonzero;stroke:none;stroke-width:1.33333"
     id="path24196" />
  <path
     d="m 575.87239,203.08709 44.74799,44.74799 -312.63332,273.044 -24.95467,-24.956 z"
     style="fill:#231f20;fill-opacity:1;fill-rule:nonzero;stroke:none;stroke-width:1.33333"
     id="path24200" />
  <path
     d="M 202.926 565.075 C 200.959 567.043 197.842 567.086 195.946 565.194 C 194.054 563.3 194.095 560.179 196.063 558.212 C 198.025 556.246 201.167 556.192 203.054 558.079 C 204.957 559.976 204.893 563.108 202.926 565.075 M 562.317 189.539 L 171.754 580.1 L 181.038 589.384 L 571.606 198.82 Z"
     style="fill:#231f20;fill-opacity:1;fill-rule:nonzero;stroke:none"
     id="path24212" />
  <path
     d="M 434.57 421.221 L 402.414 449.314 L 484.379 520.879 L 509.34 495.918 Z"
     style="fill:#231f20;fill-opacity:1;fill-rule:nonzero;stroke:none"
     id="path24216" />
  <path
     d="M 306.149 365.218 L 339.908 326.569 L 216.503 203.081 L 171.753 247.83 Z"
     style="fill:#231f20;fill-opacity:1;fill-rule:nonzero;stroke:none"
     id="path24220" />
  <path
     d="M 356.553 307.521 L 234.317 185.269 L 279.067 140.52 L 390.75 268.374 Z"
     style="fill:#231f20;fill-opacity:1;fill-rule:nonzero;stroke:none"
     id="path24224" />
  <path
     d="M 485.411 376.819 L 552.105 453.149 L 527.156 478.105 L 453.608 404.57 Z"
     style="fill:#231f20;fill-opacity:1;fill-rule:nonzero;stroke:none"
     id="path24228" />
  <path
     d="M 352.598 312.021 L 230.046 189.535 L 220.768 198.819 L 343.95 321.941 Z"
     style="fill:#231f20;fill-opacity:1;fill-rule:nonzero;stroke:none"
     id="path24232" />
  <path
     d="M 592.87 567.015 C 589.901 567.015 587.498 564.61 587.498 561.644 C 587.498 558.678 589.901 556.271 592.87 556.271 C 595.837 556.271 598.239 558.678 598.239 561.644 C 598.239 564.61 595.837 567.015 592.87 567.015 M 449.076 408.459 L 439.146 417.214 L 611.331 589.39 L 620.61 580.106 Z"
     style="fill:#231f20;fill-opacity:1;fill-rule:nonzero;stroke:none"
     id="path24236" />
  <path
     d="M 183.325 183.727 C 128.8 238.295 95.1692 313.379 95.1586 396.592 C 95.1692 479.808 128.8 554.891 183.325 609.459 C 237.882 663.968 312.974 697.615 396.191 697.626 C 479.403 697.615 554.491 663.968 609.04 609.459 C 663.566 554.891 697.201 479.808 697.225 396.592 C 697.201 313.379 663.566 238.295 609.04 183.727 C 554.491 129.215 479.403 95.5712 396.191 95.5606 C 312.974 95.5712 237.882 129.215 183.325 183.727 M 40.42 396.592 C 40.4414 200.094 199.686 40.846 396.191 40.822 C 592.676 40.846 751.936 200.094 751.946 396.592 C 751.936 593.093 592.676 752.343 396.191 752.364 C 199.686 752.343 40.4414 593.093 40.42 396.592"
     style="fill:#231f20;fill-opacity:1;fill-rule:nonzero;stroke:none"
     id="path24240" />
</svg>
