<?xml version="1.0" encoding="UTF-8" standalone="no"?>
<!-- Created with Inkscape (http://www.inkscape.org/) -->

<svg
   sodipodi:docname="Maruni Narabi Ougi.svg"
   viewBox="0 0 793.70135 793.70135"
   height="793.70135"
   width="793.70135"
   id="svg26333"
   version="1.1"
   inkscape:version="1.2 (dc2aeda, 2022-05-15)"
   xmlns:inkscape="http://www.inkscape.org/namespaces/inkscape"
   xmlns:sodipodi="http://sodipodi.sourceforge.net/DTD/sodipodi-0.dtd"
   xmlns="http://www.w3.org/2000/svg"
   xmlns:svg="http://www.w3.org/2000/svg">
  <defs
     id="defs26337">
    <clipPath
       clipPathUnits="userSpaceOnUse"
       id="clipPath26676">
      <path
         d="m -237.0664,575.2914 h 595.276 v -841.89 h -595.276 z"
         id="path26678"
         style="stroke-width:0.999998" />
    </clipPath>
    <clipPath
       clipPathUnits="userSpaceOnUse"
       id="clipPath26682">
      <path
         d="m -352.8242,282.4964 h 595.276 v -841.89 h -595.276 z"
         id="path26684"
         style="stroke-width:0.999998" />
    </clipPath>
    <clipPath
       clipPathUnits="userSpaceOnUse"
       id="clipPath26688">
      <path
         d="m -371.7168,282.4964 h 595.276 v -841.89 h -595.276 z"
         id="path26690"
         style="stroke-width:0.999998" />
    </clipPath>
    <clipPath
       clipPathUnits="userSpaceOnUse"
       id="clipPath26694">
      <path
         d="m -362.2686,575.2914 h 595.276 v -841.89 h -595.276 z"
         id="path26696"
         style="stroke-width:0.999998" />
    </clipPath>
    <clipPath
       clipPathUnits="userSpaceOnUse"
       id="clipPath26700">
      <path
         d="m -154.1802,277.4857 h 595.276 v -841.89 h -595.276 z"
         id="path26702"
         style="stroke-width:0.999998" />
    </clipPath>
  </defs>
  <sodipodi:namedview
     id="namedview26335"
     pagecolor="#ffffff"
     bordercolor="#000000"
     borderopacity="0.25"
     inkscape:showpageshadow="2"
     inkscape:pageopacity="0.0"
     inkscape:pagecheckerboard="0"
     inkscape:deskcolor="#d1d1d1"
     showgrid="false"
     inkscape:zoom="0.21024124"
     inkscape:cx="-299.65577"
     inkscape:cy="409.0539"
     inkscape:window-width="1419"
     inkscape:window-height="456"
     inkscape:window-x="0"
     inkscape:window-y="25"
     inkscape:window-maximized="0"
     inkscape:current-layer="svg26333">
    <inkscape:page
       x="0"
       y="0"
       id="page26339"
       width="793.70135"
       height="793.70135" />
  </sodipodi:namedview>
  <path
     d="m 303.49479,214.66189 h -63.28533 l 27.98667,318.59599 h 35.29866 z"
     style="fill:#231f20;fill-opacity:1;fill-rule:nonzero;stroke:none;stroke-width:1.33333"
     id="path26345" />
  <path
     d="m 328.68613,214.66189 h 63.28533 l -27.992,318.59599 h -35.29333 z"
     style="fill:#231f20;fill-opacity:1;fill-rule:nonzero;stroke:none;stroke-width:1.33333"
     id="path26349" />
  <path
     d="M 316.089 605.055 C 313.416 605.055 311.234 602.894 311.234 600.206 C 311.234 597.528 313.416 595.347 316.089 595.347 C 318.772 595.347 320.942 597.528 320.942 600.206 C 320.942 602.894 318.772 605.055 316.089 605.055 M 309.525 625.339 L 322.653 625.339 L 322.653 214.663 L 309.525 214.663 Z"
     style="fill:#231f20;fill-opacity:1;fill-rule:nonzero;stroke:none"
     id="path26361" />
  <path
     d="M 470.432 214.662 L 407.145 214.662 L 435.132 533.257 L 470.432 533.257 Z"
     style="fill:#231f20;fill-opacity:1;fill-rule:nonzero;stroke:none"
     id="path26365" />
  <path
     d="M 495.622 214.662 L 558.909 214.662 L 530.917 533.257 L 495.622 533.257 Z"
     style="fill:#231f20;fill-opacity:1;fill-rule:nonzero;stroke:none"
     id="path26369" />
  <path
     d="M 483.025 605.055 C 480.352 605.055 478.172 602.894 478.172 600.206 C 478.172 597.528 480.352 595.347 483.025 595.347 C 485.709 595.347 487.878 597.528 487.878 600.206 C 487.878 602.894 485.709 605.055 483.025 605.055 M 476.461 625.339 L 489.589 625.339 L 489.589 214.663 L 476.461 214.663 Z"
     style="fill:#231f20;fill-opacity:1;fill-rule:nonzero;stroke:none"
     id="path26373" />
  <path
     d="M 205.574 207.981 C 156.742 256.872 126.638 324.055 126.629 398.597 C 126.638 473.132 156.742 540.315 205.574 589.2 C 254.461 638.025 321.647 668.14 396.188 668.151 C 470.731 668.14 537.907 638.025 586.793 589.2 C 635.626 540.315 665.729 473.132 665.749 398.597 C 665.729 324.055 635.626 256.872 586.793 207.981 C 537.907 159.16 470.731 129.045 396.188 129.035 C 321.647 129.045 254.461 159.16 205.574 207.981 M 63.6744 398.597 C 63.6957 214.945 212.534 66.1134 396.188 66.092 C 579.84 66.1134 728.673 214.945 728.693 398.597 C 728.673 582.239 579.84 731.066 396.188 731.096 C 212.534 731.066 63.6957 582.239 63.6744 398.597"
     style="fill:#231f20;fill-opacity:1;fill-rule:nonzero;stroke:none"
     id="path26377" />
</svg>
