<?xml version="1.0" encoding="UTF-8" standalone="no"?>
<!-- Created with Inkscape (http://www.inkscape.org/) -->

<svg
   sodipodi:docname="Nanahon Gangi Ougi.svg"
   viewBox="0 0 795.03467 793.70135"
   height="793.70135"
   width="795.03467"
   id="svg34083"
   version="1.1"
   inkscape:version="1.2 (dc2aeda, 2022-05-15)"
   xmlns:inkscape="http://www.inkscape.org/namespaces/inkscape"
   xmlns:sodipodi="http://sodipodi.sourceforge.net/DTD/sodipodi-0.dtd"
   xmlns="http://www.w3.org/2000/svg"
   xmlns:svg="http://www.w3.org/2000/svg">
  <defs
     id="defs34087">
    <clipPath
       clipPathUnits="userSpaceOnUse"
       id="clipPath34432">
      <path
         d="M -538.2217,577.9479 H 58.054302 V -17.3281 H -538.2217 Z"
         id="path34434"
         style="stroke-width:0.999998" />
    </clipPath>
    <clipPath
       clipPathUnits="userSpaceOnUse"
       id="clipPath34436">
      <path
         d="M -584.1943,578.9381 H 12.081702 V -16.3379 H -584.1943 Z"
         id="path34438"
         style="stroke-width:0.999998" />
    </clipPath>
    <clipPath
       clipPathUnits="userSpaceOnUse"
       id="clipPath34440">
      <path
         d="M -586.5449,579.5026 H 9.7311024 V -15.7734 H -586.5449 Z"
         id="path34442"
         style="stroke-width:0.999998" />
    </clipPath>
    <clipPath
       clipPathUnits="userSpaceOnUse"
       id="clipPath34444">
      <path
         d="M -556.4014,578.0143 H 39.874602 V -17.2617 H -556.4014 Z"
         id="path34446"
         style="stroke-width:0.999998" />
    </clipPath>
    <clipPath
       clipPathUnits="userSpaceOnUse"
       id="clipPath34448">
      <path
         d="M -550.2637,577.3248 H 46.012302 V -17.9512 H -550.2637 Z"
         id="path34450"
         style="stroke-width:0.999998" />
    </clipPath>
    <clipPath
       clipPathUnits="userSpaceOnUse"
       id="clipPath34452">
      <path
         d="M -568.2266,575.819 H 28.049402 V -19.457 H -568.2266 Z"
         id="path34454"
         style="stroke-width:0.999998" />
    </clipPath>
    <clipPath
       clipPathUnits="userSpaceOnUse"
       id="clipPath34456">
      <path
         d="M -557.4951,577.8502 H 38.780902 V -17.4258 H -557.4951 Z"
         id="path34458"
         style="stroke-width:0.999998" />
    </clipPath>
    <clipPath
       clipPathUnits="userSpaceOnUse"
       id="clipPath34460">
      <path
         d="M -576.3691,585.5885 H 19.906902 V -9.6875 H -576.3691 Z"
         id="path34462"
         style="stroke-width:0.999998" />
    </clipPath>
    <clipPath
       clipPathUnits="userSpaceOnUse"
       id="clipPath34464">
      <path
         d="M -574.5459,585.8522 H 21.730102 V -9.4238 H -574.5459 Z"
         id="path34466"
         style="stroke-width:0.999998" />
    </clipPath>
    <clipPath
       clipPathUnits="userSpaceOnUse"
       id="clipPath34468">
      <path
         d="M -572.8174,586.1354 H 23.458602 V -9.1406 H -572.8174 Z"
         id="path34470"
         style="stroke-width:0.999998" />
    </clipPath>
    <clipPath
       clipPathUnits="userSpaceOnUse"
       id="clipPath34472">
      <path
         d="M -567.7754,585.8522 H 28.500602 V -9.4238 H -567.7754 Z"
         id="path34474"
         style="stroke-width:0.999998" />
    </clipPath>
    <clipPath
       clipPathUnits="userSpaceOnUse"
       id="clipPath34476">
      <path
         d="M -564.5732,585.8483 H 31.702802 V -9.4277 H -564.5732 Z"
         id="path34478"
         style="stroke-width:0.999998" />
    </clipPath>
    <clipPath
       clipPathUnits="userSpaceOnUse"
       id="clipPath34480">
      <path
         d="M -561.4131,585.8522 H 34.862902 V -9.4238 H -561.4131 Z"
         id="path34482"
         style="stroke-width:0.999998" />
    </clipPath>
    <clipPath
       clipPathUnits="userSpaceOnUse"
       id="clipPath34484">
      <path
         d="M -557.0645,585.8483 H 39.211502 V -9.4277 H -557.0645 Z"
         id="path34486"
         style="stroke-width:0.999998" />
    </clipPath>
    <clipPath
       clipPathUnits="userSpaceOnUse"
       id="clipPath34488">
      <path
         d="M -553.8975,585.8483 H 42.378502 V -9.4277 H -553.8975 Z"
         id="path34490"
         style="stroke-width:0.999998" />
    </clipPath>
    <clipPath
       clipPathUnits="userSpaceOnUse"
       id="clipPath34492">
      <path
         d="M -548.9834,585.8522 H 47.292602 V -9.4238 H -548.9834 Z"
         id="path34494"
         style="stroke-width:0.999998" />
    </clipPath>
    <clipPath
       clipPathUnits="userSpaceOnUse"
       id="clipPath34496">
      <path
         d="M -545.417,584.5729 H 50.859002 V -10.7031 H -545.417 Z"
         id="path34498"
         style="stroke-width:0.999998" />
    </clipPath>
    <clipPath
       clipPathUnits="userSpaceOnUse"
       id="clipPath34500">
      <path
         d="M -542.9326,584.5729 H 53.343402 V -10.7031 H -542.9326 Z"
         id="path34502"
         style="stroke-width:0.999998" />
    </clipPath>
    <clipPath
       clipPathUnits="userSpaceOnUse"
       id="clipPath34504">
      <path
         d="M -540.8213,585.8483 H 55.454702 V -9.4277 H -540.8213 Z"
         id="path34506"
         style="stroke-width:0.999998" />
    </clipPath>
    <clipPath
       clipPathUnits="userSpaceOnUse"
       id="clipPath34508">
      <path
         d="M -536.6982,584.5729 H 59.577802 V -10.7031 H -536.6982 Z"
         id="path34510"
         style="stroke-width:0.999998" />
    </clipPath>
    <clipPath
       clipPathUnits="userSpaceOnUse"
       id="clipPath34512">
      <path
         d="M -528.0898,575.3815 H 68.186202 V -19.8945 H -528.0898 Z"
         id="path34514"
         style="stroke-width:0.999998" />
    </clipPath>
    <clipPath
       clipPathUnits="userSpaceOnUse"
       id="clipPath34516">
      <path
         d="M -531.1924,581.5885 H 65.083602 V -13.6875 H -531.1924 Z"
         id="path34518"
         style="stroke-width:0.999998" />
    </clipPath>
    <clipPath
       clipPathUnits="userSpaceOnUse"
       id="clipPath34634">
      <path
         d="m -261.0293,474.7096 h 596.276 v -595.276 h -596.276 z"
         id="path34636"
         style="stroke-width:0.999998" />
    </clipPath>
  </defs>
  <sodipodi:namedview
     id="namedview34085"
     pagecolor="#ffffff"
     bordercolor="#000000"
     borderopacity="0.25"
     inkscape:showpageshadow="2"
     inkscape:pageopacity="0.0"
     inkscape:pagecheckerboard="0"
     inkscape:deskcolor="#d1d1d1"
     showgrid="false"
     inkscape:zoom="0.29734106"
     inkscape:cx="-215.24105"
     inkscape:cy="396.85068"
     inkscape:window-width="1419"
     inkscape:window-height="456"
     inkscape:window-x="0"
     inkscape:window-y="25"
     inkscape:window-maximized="0"
     inkscape:current-layer="svg34083">
    <inkscape:page
       x="0"
       y="0"
       id="page34089"
       width="795.03467"
       height="793.70135" />
  </sodipodi:namedview>
  <path
     d="M 348.039 632.946 C 346.594 633.919 345.015 634.613 343.399 635.039 C 343.859 636.542 344.763 637.927 346.094 638.974 C 347.471 640.058 349.096 640.618 350.727 640.683 C 353.203 640.779 355.684 639.73 357.336 637.637 L 375.782 614.209 Z M 506.708 447.941 L 501.529 429.192 L 501.072 429.212 L 394.536 564.509 L 438.068 535.108 Z M 385.158 584.027 C 388.104 584.027 390.495 586.418 390.495 589.362 C 390.495 592.31 388.104 594.701 385.158 594.701 C 382.208 594.701 379.82 592.31 379.82 589.362 C 379.82 586.418 382.208 584.027 385.158 584.027 M 761.682 344.727 L 755.541 329.553 L 334.982 613.586 C 331.319 616.061 330.354 621.037 332.827 624.701 C 334.319 626.91 336.72 628.139 339.192 628.225 C 340.824 628.279 342.488 627.837 343.946 626.855 Z M 331.736 537.113 L 243.73 467.813 L 224.567 473.102 L 360.546 580.175 Z M 433.425 617.186 L 409.763 598.553 L 428.565 626.659 C 429.511 628.071 430.184 629.602 430.613 631.175 C 432.2 630.738 433.668 629.818 434.764 628.425 C 437.5 624.957 436.9 619.918 433.425 617.186 M 405.722 605.709 L 414.925 638.274 C 415.303 639.637 415.496 641.03 415.496 642.425 C 415.496 642.681 415.477 642.933 415.464 643.186 C 415.48 643.189 415.496 643.191 415.511 643.191 C 417.141 643.255 418.805 642.823 420.265 641.845 C 423.939 639.386 424.929 634.415 422.465 630.738 Z M 268.782 429.189 L 268.661 429.627 L 364.59 573.025 L 350.498 523.16 L 288.214 430.059 Z M 399.664 611.253 L 398.354 645.055 C 398.284 646.769 397.924 648.399 397.346 649.915 C 398.138 650.214 398.979 650.391 399.843 650.425 C 400.66 650.454 401.498 650.363 402.33 650.126 C 406.583 648.922 409.06 644.498 407.856 640.246 Z M 372.654 515.692 L 342.187 407.9 L 323.974 401.067 L 323.724 401.444 L 370.647 567.467 Z M 378.399 650.438 C 379.686 651.465 381.294 652.107 383.066 652.178 C 387.482 652.347 391.203 648.902 391.376 644.485 L 392.543 614.378 L 380.846 646.137 C 380.251 647.735 379.414 649.175 378.399 650.438 M 385.508 391.095 L 385.156 391.376 L 378.479 563.766 L 396.386 515.146 L 400.72 403.22 Z M 362.67 642.345 C 361.612 643.681 360.364 644.785 359.003 645.673 C 359.911 647.05 361.242 648.162 362.908 648.774 C 363.719 649.071 364.547 649.233 365.367 649.263 C 368.738 649.394 371.956 647.365 373.186 644.03 L 383.595 615.769 Z M 456.628 417.463 L 445.911 401.231 L 445.484 401.392 L 385.864 563.277 L 417.917 522.572 Z M 263.269 421.597 L 300.526 423.264 L 321.075 392.141 L 355.996 405.241 L 385.158 381.993 L 414.32 405.241 L 449.237 392.144 L 469.789 423.267 L 507.045 421.6 L 516.973 457.548 L 542.475 464.592 L 747.471 326.143 L 747.47 326.129 L 676.94 297.582 L 648.394 227.051 L 572.493 221.696 L 523.548 163.439 L 449.708 181.802 L 385.158 141.521 L 320.607 181.802 L 246.766 163.439 L 197.822 221.696 L 121.92 227.051 L 93.3756 297.58 L 32.7998 322.099 L 217.411 467.468 L 253.342 457.545 Z"
     style="fill:#000000;fill-opacity:1;fill-rule:nonzero;stroke:none"
     id="path34203" />
</svg>
