<?xml version="1.0" encoding="UTF-8" standalone="no"?>
<!-- Created with Inkscape (http://www.inkscape.org/) -->

<svg
   sodipodi:docname="Nanahonhone Ougi Hinomaruni Kuyou.svg"
   viewBox="0 0 795.03467 793.70135"
   height="793.70135"
   width="795.03467"
   id="svg35567"
   version="1.1"
   inkscape:version="1.2 (dc2aeda, 2022-05-15)"
   xmlns:inkscape="http://www.inkscape.org/namespaces/inkscape"
   xmlns:sodipodi="http://sodipodi.sourceforge.net/DTD/sodipodi-0.dtd"
   xmlns="http://www.w3.org/2000/svg"
   xmlns:svg="http://www.w3.org/2000/svg">
  <defs
     id="defs35571">
    <clipPath
       clipPathUnits="userSpaceOnUse"
       id="clipPath35916">
      <path
         d="M -538.2217,577.9479 H 58.054302 V -17.3281 H -538.2217 Z"
         id="path35918"
         style="stroke-width:0.999998" />
    </clipPath>
    <clipPath
       clipPathUnits="userSpaceOnUse"
       id="clipPath35920">
      <path
         d="M -584.1943,578.9381 H 12.081702 V -16.3379 H -584.1943 Z"
         id="path35922"
         style="stroke-width:0.999998" />
    </clipPath>
    <clipPath
       clipPathUnits="userSpaceOnUse"
       id="clipPath35924">
      <path
         d="M -586.5449,579.5026 H 9.7311024 V -15.7734 H -586.5449 Z"
         id="path35926"
         style="stroke-width:0.999998" />
    </clipPath>
    <clipPath
       clipPathUnits="userSpaceOnUse"
       id="clipPath35928">
      <path
         d="M -556.4014,578.0143 H 39.874602 V -17.2617 H -556.4014 Z"
         id="path35930"
         style="stroke-width:0.999998" />
    </clipPath>
    <clipPath
       clipPathUnits="userSpaceOnUse"
       id="clipPath35932">
      <path
         d="M -550.2637,577.3248 H 46.012302 V -17.9512 H -550.2637 Z"
         id="path35934"
         style="stroke-width:0.999998" />
    </clipPath>
    <clipPath
       clipPathUnits="userSpaceOnUse"
       id="clipPath35936">
      <path
         d="M -568.2266,575.819 H 28.049402 V -19.457 H -568.2266 Z"
         id="path35938"
         style="stroke-width:0.999998" />
    </clipPath>
    <clipPath
       clipPathUnits="userSpaceOnUse"
       id="clipPath35940">
      <path
         d="M -557.4951,577.8502 H 38.780902 V -17.4258 H -557.4951 Z"
         id="path35942"
         style="stroke-width:0.999998" />
    </clipPath>
    <clipPath
       clipPathUnits="userSpaceOnUse"
       id="clipPath35944">
      <path
         d="M -576.3691,585.5885 H 19.906902 V -9.6875 H -576.3691 Z"
         id="path35946"
         style="stroke-width:0.999998" />
    </clipPath>
    <clipPath
       clipPathUnits="userSpaceOnUse"
       id="clipPath35948">
      <path
         d="M -574.5459,585.8522 H 21.730102 V -9.4238 H -574.5459 Z"
         id="path35950"
         style="stroke-width:0.999998" />
    </clipPath>
    <clipPath
       clipPathUnits="userSpaceOnUse"
       id="clipPath35952">
      <path
         d="M -572.8174,586.1354 H 23.458602 V -9.1406 H -572.8174 Z"
         id="path35954"
         style="stroke-width:0.999998" />
    </clipPath>
    <clipPath
       clipPathUnits="userSpaceOnUse"
       id="clipPath35956">
      <path
         d="M -567.7754,585.8522 H 28.500602 V -9.4238 H -567.7754 Z"
         id="path35958"
         style="stroke-width:0.999998" />
    </clipPath>
    <clipPath
       clipPathUnits="userSpaceOnUse"
       id="clipPath35960">
      <path
         d="M -564.5732,585.8483 H 31.702802 V -9.4277 H -564.5732 Z"
         id="path35962"
         style="stroke-width:0.999998" />
    </clipPath>
    <clipPath
       clipPathUnits="userSpaceOnUse"
       id="clipPath35964">
      <path
         d="M -561.4131,585.8522 H 34.862902 V -9.4238 H -561.4131 Z"
         id="path35966"
         style="stroke-width:0.999998" />
    </clipPath>
    <clipPath
       clipPathUnits="userSpaceOnUse"
       id="clipPath35968">
      <path
         d="M -557.0645,585.8483 H 39.211502 V -9.4277 H -557.0645 Z"
         id="path35970"
         style="stroke-width:0.999998" />
    </clipPath>
    <clipPath
       clipPathUnits="userSpaceOnUse"
       id="clipPath35972">
      <path
         d="M -553.8975,585.8483 H 42.378502 V -9.4277 H -553.8975 Z"
         id="path35974"
         style="stroke-width:0.999998" />
    </clipPath>
    <clipPath
       clipPathUnits="userSpaceOnUse"
       id="clipPath35976">
      <path
         d="M -548.9834,585.8522 H 47.292602 V -9.4238 H -548.9834 Z"
         id="path35978"
         style="stroke-width:0.999998" />
    </clipPath>
    <clipPath
       clipPathUnits="userSpaceOnUse"
       id="clipPath35980">
      <path
         d="M -545.417,584.5729 H 50.859002 V -10.7031 H -545.417 Z"
         id="path35982"
         style="stroke-width:0.999998" />
    </clipPath>
    <clipPath
       clipPathUnits="userSpaceOnUse"
       id="clipPath35984">
      <path
         d="M -542.9326,584.5729 H 53.343402 V -10.7031 H -542.9326 Z"
         id="path35986"
         style="stroke-width:0.999998" />
    </clipPath>
    <clipPath
       clipPathUnits="userSpaceOnUse"
       id="clipPath35988">
      <path
         d="M -540.8213,585.8483 H 55.454702 V -9.4277 H -540.8213 Z"
         id="path35990"
         style="stroke-width:0.999998" />
    </clipPath>
    <clipPath
       clipPathUnits="userSpaceOnUse"
       id="clipPath35992">
      <path
         d="M -536.6982,584.5729 H 59.577802 V -10.7031 H -536.6982 Z"
         id="path35994"
         style="stroke-width:0.999998" />
    </clipPath>
    <clipPath
       clipPathUnits="userSpaceOnUse"
       id="clipPath35996">
      <path
         d="M -528.0898,575.3815 H 68.186202 V -19.8945 H -528.0898 Z"
         id="path35998"
         style="stroke-width:0.999998" />
    </clipPath>
    <clipPath
       clipPathUnits="userSpaceOnUse"
       id="clipPath36000">
      <path
         d="M -531.1924,581.5885 H 65.083602 V -13.6875 H -531.1924 Z"
         id="path36002"
         style="stroke-width:0.999998" />
    </clipPath>
    <clipPath
       clipPathUnits="userSpaceOnUse"
       id="clipPath36118">
      <path
         d="m -351.6865,476.5787 h 596.276 v -595.276 h -596.276 z"
         id="path36120"
         style="stroke-width:0.999998" />
    </clipPath>
  </defs>
  <sodipodi:namedview
     id="namedview35569"
     pagecolor="#ffffff"
     bordercolor="#000000"
     borderopacity="0.25"
     inkscape:showpageshadow="2"
     inkscape:pageopacity="0.0"
     inkscape:pagecheckerboard="0"
     inkscape:deskcolor="#d1d1d1"
     showgrid="false"
     inkscape:zoom="0.29734106"
     inkscape:cx="-215.24105"
     inkscape:cy="396.85068"
     inkscape:window-width="1419"
     inkscape:window-height="456"
     inkscape:window-x="0"
     inkscape:window-y="25"
     inkscape:window-maximized="0"
     inkscape:current-layer="svg35567">
    <inkscape:page
       x="0"
       y="0"
       id="page35573"
       width="795.03467"
       height="793.70135" />
  </sodipodi:namedview>
  <path
     d="M 468.915 635.438 L 419.71 599.686 L 447.626 638.113 L 460.284 647.31 C 461.59 648.258 463.1 648.714 464.598 648.714 C 466.868 648.714 469.103 647.665 470.538 645.689 C 472.923 642.41 472.194 637.818 468.915 635.438 M 346.066 546.184 L 239.265 468.586 C 235.558 471.905 231.968 475.348 228.481 478.894 L 373.983 584.607 Z M 416.256 606.378 L 430.936 651.553 L 440.136 664.214 C 441.571 666.19 443.811 667.243 446.079 667.243 C 447.574 667.243 449.084 666.785 450.387 665.839 C 453.667 663.457 454.391 658.867 452.008 655.589 Z M 277.655 440.578 L 377.433 577.91 L 362.755 532.741 L 290.65 433.496 C 286.237 435.722 281.905 438.086 277.655 440.578 M 382.779 525.105 L 346.577 413.679 C 341.762 414.723 336.998 415.897 332.298 417.231 L 382.779 572.599 Z M 410.915 611.695 L 410.915 659.186 L 415.748 674.063 C 416.759 677.165 419.634 679.135 422.73 679.135 C 423.48 679.135 424.243 679.019 424.996 678.777 C 428.847 677.523 430.956 673.383 429.707 669.531 Z M 389.509 675.897 C 389.509 679.946 392.797 683.233 396.847 683.233 C 400.902 683.233 404.186 679.946 404.188 675.897 L 404.188 615.069 L 389.509 660.245 Z M 396.85 408.288 C 394.394 408.288 391.949 408.337 389.509 408.412 L 389.509 569.209 L 404.188 524.029 L 404.188 408.411 C 401.751 408.337 399.306 408.288 396.85 408.288 M 368.825 654.646 L 363.989 669.526 C 362.738 673.383 364.849 677.522 368.702 678.774 C 369.454 679.019 370.221 679.135 370.973 679.135 C 374.065 679.135 376.941 677.165 377.947 674.066 L 396.745 616.217 Z M 461.394 417.245 C 456.694 415.912 451.936 414.717 447.123 413.671 L 396.951 568.077 L 424.874 529.646 Z M 350.887 642.925 L 341.687 655.589 C 339.303 658.867 340.033 663.457 343.311 665.837 C 344.611 666.785 346.122 667.238 347.618 667.241 C 349.887 667.241 352.126 666.19 353.559 664.214 L 389.309 615.009 Z M 516.055 440.561 C 511.806 438.069 507.475 435.704 503.06 433.477 L 404.396 569.279 L 442.819 541.362 Z M 333.967 315.395 C 318.393 315.395 305.769 302.769 305.769 287.195 C 305.769 271.622 318.393 258.996 333.967 258.996 C 349.541 258.996 362.166 271.622 362.166 287.195 C 362.166 302.769 349.541 315.395 333.967 315.395 M 330.643 363.3 C 319.63 374.313 301.775 374.313 290.763 363.3 C 279.751 352.288 279.751 334.433 290.763 323.421 C 301.775 312.411 319.63 312.411 330.643 323.421 C 341.655 334.433 341.655 352.288 330.643 363.3 M 254.536 394.824 C 238.962 394.824 226.337 382.199 226.337 366.629 C 226.337 351.053 238.962 338.428 254.536 338.428 C 270.11 338.428 282.735 351.053 282.735 366.629 C 282.735 382.199 270.11 394.824 254.536 394.824 M 218.309 363.3 C 207.296 374.313 189.444 374.313 178.432 363.3 C 167.418 352.288 167.418 334.433 178.432 323.421 C 189.444 312.411 207.296 312.411 218.309 323.421 C 229.322 334.433 229.322 352.288 218.309 363.3 M 146.905 287.196 C 146.905 271.622 159.53 258.996 175.106 258.996 C 190.678 258.996 203.302 271.622 203.302 287.195 C 203.302 302.769 190.678 315.395 175.106 315.395 C 159.53 315.395 146.905 302.769 146.905 287.196 M 178.432 211.09 C 189.444 200.078 207.296 200.078 218.309 211.09 C 229.322 222.103 229.322 239.956 218.309 250.97 C 207.296 261.982 189.444 261.982 178.432 250.97 C 167.418 239.958 167.418 222.103 178.432 211.09 M 254.536 179.566 C 270.11 179.566 282.735 192.191 282.735 207.764 C 282.735 223.339 270.11 235.964 254.536 235.964 C 238.962 235.964 226.337 223.339 226.337 207.764 C 226.337 192.191 238.962 179.566 254.536 179.566 M 300.277 287.196 C 300.277 312.457 279.795 332.935 254.536 332.935 C 229.274 332.935 208.797 312.457 208.797 287.196 C 208.797 261.934 229.274 241.455 254.536 241.455 C 279.795 241.455 300.277 261.934 300.277 287.196 M 330.642 211.09 C 341.655 222.103 341.655 239.958 330.643 250.97 C 319.63 261.982 301.775 261.982 290.763 250.97 C 279.751 239.956 279.751 222.103 290.763 211.09 C 301.775 200.078 319.63 200.078 330.642 211.09 M 539.165 179.566 C 598.608 179.566 646.795 227.754 646.795 287.195 C 646.795 346.639 598.608 394.824 539.165 394.824 C 479.724 394.824 431.538 346.639 431.538 287.195 C 431.538 227.754 479.724 179.566 539.165 179.566 M 554.839 459.974 L 751.166 317.336 C 681.341 193.844 548.839 110.47 396.849 110.47 C 237.153 110.47 98.9733 202.518 32.4028 336.436 L 222.969 474.892 C 267.082 429.657 328.681 401.561 396.85 401.561 C 457.18 401.561 512.366 423.564 554.839 459.974 M 396.849 597.042 C 394.147 597.042 391.957 594.853 391.957 592.149 C 391.957 589.449 394.147 587.258 396.849 587.258 C 399.551 587.258 401.741 589.449 401.741 592.149 C 401.741 594.853 399.551 597.042 396.849 597.042 M 754.474 323.248 L 324.782 635.435 C 321.503 637.818 320.777 642.407 323.161 645.686 C 324.595 647.659 326.833 648.711 329.103 648.711 C 330.598 648.711 332.107 648.255 333.41 647.307 L 761.297 336.433 C 759.092 331.997 756.833 327.592 754.474 323.248"
     style="fill:#000000;fill-opacity:1;fill-rule:nonzero;stroke:none"
     id="path35687" />
</svg>
