<?xml version="1.0" encoding="UTF-8" standalone="no"?>
<!-- Created with Inkscape (http://www.inkscape.org/) -->

<svg
   sodipodi:docname="Narabi Ougi.svg"
   viewBox="0 0 793.70135 793.70135"
   height="793.70135"
   width="793.70135"
   id="svg27242"
   version="1.1"
   inkscape:version="1.2 (dc2aeda, 2022-05-15)"
   xmlns:inkscape="http://www.inkscape.org/namespaces/inkscape"
   xmlns:sodipodi="http://sodipodi.sourceforge.net/DTD/sodipodi-0.dtd"
   xmlns="http://www.w3.org/2000/svg"
   xmlns:svg="http://www.w3.org/2000/svg">
  <defs
     id="defs27246">
    <clipPath
       clipPathUnits="userSpaceOnUse"
       id="clipPath27453">
      <path
         d="m -377.6943,633.1117 h 595.276 v -841.89 h -595.276 z"
         id="path27455"
         style="stroke-width:0.999998" />
    </clipPath>
  </defs>
  <sodipodi:namedview
     id="namedview27244"
     pagecolor="#ffffff"
     bordercolor="#000000"
     borderopacity="0.25"
     inkscape:showpageshadow="2"
     inkscape:pageopacity="0.0"
     inkscape:pagecheckerboard="0"
     inkscape:deskcolor="#d1d1d1"
     showgrid="false"
     inkscape:zoom="0.21024124"
     inkscape:cx="-137.93678"
     inkscape:cy="504.18272"
     inkscape:window-width="1419"
     inkscape:window-height="456"
     inkscape:window-x="0"
     inkscape:window-y="25"
     inkscape:window-maximized="0"
     inkscape:current-layer="svg27242">
    <inkscape:page
       x="0"
       y="0"
       id="page27248"
       width="793.70135"
       height="793.70135" />
  </sodipodi:namedview>
  <path
     d="m 271.62759,101.83842 h -86.16266 l 51.31333,433.76132 h 34.84933 z"
     style="fill:#231f20;fill-opacity:1;fill-rule:nonzero;stroke:none;stroke-width:1.33333"
     id="path27254" />
  <path
     d="m 305.92186,101.83842 h 86.16266 l -51.312,433.76132 h -34.85066 z"
     style="fill:#231f20;fill-opacity:1;fill-rule:nonzero;stroke:none;stroke-width:1.33333"
     id="path27258" />
  <path
     d="m 486.44532,101.83842 h -86.16133 l 51.312,433.76132 h 34.84933 z"
     style="fill:#231f20;fill-opacity:1;fill-rule:nonzero;stroke:none;stroke-width:1.33333"
     id="path27262" />
  <path
     d="m 520.73959,101.83842 h 86.16266 l -51.312,433.76132 h -34.85066 z"
     style="fill:#231f20;fill-opacity:1;fill-rule:nonzero;stroke:none;stroke-width:1.33333"
     id="path27266" />
  <path
     d="M 503.592 684.149 C 500.288 684.149 497.607 681.474 497.607 678.162 C 497.607 674.857 500.288 672.176 503.592 672.176 C 506.9 672.176 509.579 674.857 509.579 678.162 C 509.579 681.474 506.9 684.149 503.592 684.149 M 494.656 699.349 L 512.529 699.349 L 512.529 101.84 L 494.656 101.84 Z M 288.775 672.176 C 292.078 672.176 294.762 674.857 294.762 678.162 C 294.762 681.474 292.078 684.149 288.775 684.149 C 285.471 684.149 282.789 681.474 282.789 678.162 C 282.789 674.857 285.471 672.176 288.775 672.176 M 279.839 699.349 L 297.713 699.349 L 297.713 101.84 L 279.839 101.84 Z"
     style="fill:#231f20;fill-opacity:1;fill-rule:nonzero;stroke:none"
     id="path27278" />
</svg>
