<?xml version="1.0" encoding="UTF-8" standalone="no"?>
<!-- Created with Inkscape (http://www.inkscape.org/) -->

<svg
   sodipodi:docname="Yokokasane Ougi.svg"
   viewBox="0 0 793.70135 793.70135"
   height="793.70135"
   width="793.70135"
   id="svg30198"
   version="1.1"
   inkscape:version="1.2 (dc2aeda, 2022-05-15)"
   xmlns:inkscape="http://www.inkscape.org/namespaces/inkscape"
   xmlns:sodipodi="http://sodipodi.sourceforge.net/DTD/sodipodi-0.dtd"
   xmlns="http://www.w3.org/2000/svg"
   xmlns:svg="http://www.w3.org/2000/svg">
  <defs
     id="defs30202">
    <clipPath
       clipPathUnits="userSpaceOnUse"
       id="clipPath30493">
      <path
         d="m -386.2314,521.3617 h 595.276 v -841.89 h -595.276 z"
         id="path30495"
         style="stroke-width:0.999998" />
    </clipPath>
    <clipPath
       clipPathUnits="userSpaceOnUse"
       id="clipPath30499">
      <path
         d="m -378.8516,519.0101 h 595.276 v -841.89 h -595.276 z"
         id="path30501"
         style="stroke-width:0.999998" />
    </clipPath>
    <clipPath
       clipPathUnits="userSpaceOnUse"
       id="clipPath30505">
      <path
         d="m -296.4141,456.8265 h 595.276 v -841.89 h -595.276 z"
         id="path30507"
         style="stroke-width:0.999998" />
    </clipPath>
    <clipPath
       clipPathUnits="userSpaceOnUse"
       id="clipPath30511">
      <path
         d="m -241.1289,526.3929 h 595.276 v -841.89 h -595.276 z"
         id="path30513"
         style="stroke-width:0.999998" />
    </clipPath>
    <clipPath
       clipPathUnits="userSpaceOnUse"
       id="clipPath30517">
      <path
         d="m -215.6777,519.0101 h 595.276 v -841.89 h -595.276 z"
         id="path30519"
         style="stroke-width:0.999998" />
    </clipPath>
    <clipPath
       clipPathUnits="userSpaceOnUse"
       id="clipPath30523">
      <path
         d="m -255.4082,428.7562 h 595.276 v -841.89 h -595.276 z"
         id="path30525"
         style="stroke-width:0.999998" />
    </clipPath>
  </defs>
  <sodipodi:namedview
     id="namedview30200"
     pagecolor="#ffffff"
     bordercolor="#000000"
     borderopacity="0.25"
     inkscape:showpageshadow="2"
     inkscape:pageopacity="0.0"
     inkscape:pagecheckerboard="0"
     inkscape:deskcolor="#d1d1d1"
     showgrid="false"
     inkscape:zoom="0.21024124"
     inkscape:cx="-739.62654"
     inkscape:cy="390.02814"
     inkscape:window-width="1419"
     inkscape:window-height="456"
     inkscape:window-x="0"
     inkscape:window-y="25"
     inkscape:window-maximized="0"
     inkscape:current-layer="svg30198">
    <inkscape:page
       x="0"
       y="0"
       id="page30204"
       width="793.70135"
       height="793.70135" />
  </sodipodi:namedview>
  <path
     d="m 321.505,551.857 -19.108,-11.748 -2.277,1.391 9.29,16.617 6.082,3.719 c 0,0 5.516,2.737 8.072,-1.919 2.544,-4.669 -2.059,-8.06 -2.059,-8.06 m -24.095,-6.708 0.015,23.948 2.037,3.541 c 0,0 3.48,5.088 7.986,2.263 4.506,-2.844 2.142,-8.033 2.142,-8.033 z M 287.398,241.25 c -182.474,0 -242.7763,154.923 -242.7763,154.923 l 120.7933,73.916 c 0,0 31.182,-63.868 121.983,-63.868 44.91,0 85.244,19.538 112.984,50.582 l 122.23,-74.656 C 477.682,298.266 389.215,241.25 287.398,241.25 m 1.45,283.686 20.245,-12.376 48.347,-86.213 c -3.324,-1.758 -6.842,-3.419 -10.562,-4.982 z m -19.634,35.468 -3.633,6.601 c 0,0 -2.496,5.633 2.271,7.985 4.773,2.354 7.969,-2.388 7.969,-2.388 l 13.599,-24.565 z m -99.683,-88.073 102.655,62.791 1.102,-0.694 -10.562,-18.732 -86.974,-53.216 c -2.769,3.853 -4.784,7.26 -6.221,9.851 m 112.073,98.406 0.017,3.333 c 0,0 0.567,6.128 5.868,5.86 5.319,-0.284 5.789,-5.966 5.789,-5.966 l -0.01,-24.266 z m -4.19,-38.864 -0.021,-22.388 -49.473,-88.12 c -3.716,1.563 -7.232,3.224 -10.556,4.982 l 59.484,105.89 z M 293.256,410.3 c -1.935,-0.056 -3.859,-0.085 -5.858,-0.085 -1.988,0 -3.918,0.029 -5.858,0.085 l 0.044,119.145 11.629,-20.845 z"
     style="fill:#231f20;fill-opacity:1;fill-rule:nonzero;stroke:none"
     id="path30218" />
  <path
     d="m 395.219,459.102 c -8.237,-9.036 -23.373,-21.18 -34.32,-27.68 l -10.604,18.729 29.873,18.076 z"
     style="fill:#231f20;fill-opacity:1;fill-rule:nonzero;stroke:none"
     id="path30222" />
  <path
     d="m 514.975,545.149 0.016,23.948 2.036,3.541 c 0,0 3.479,5.09 7.985,2.263 4.507,-2.843 2.144,-8.033 2.144,-8.033 z m 24.095,6.708 -19.108,-11.747 -2.278,1.391 9.291,16.617 6.083,3.719 c 0,0 5.514,2.736 8.07,-1.92 2.544,-4.669 -2.058,-8.06 -2.058,-8.06 m -32.658,-26.921 20.247,-12.375 48.345,-86.214 c -3.324,-1.758 -6.84,-3.419 -10.56,-4.982 z M 504.963,241.25 c -38.74,0 -73.424,7.16 -103.869,19.304 52.252,24.373 95.954,64.653 123.748,114.255 10.252,18.795 12.09,23.647 12.09,23.647 l -14.228,8.68 c 44.214,7.355 72.127,23.797 95.243,49.667 l 122.23,-74.655 C 695.247,298.266 606.78,241.25 504.963,241.25 m -18.183,319.154 -3.634,6.602 c 0,0 -2.496,5.632 2.27,7.984 4.774,2.354 7.971,-2.388 7.971,-2.388 l 13.597,-24.565 z m -85.259,-79.208 88.23,53.926 1.101,-0.694 -10.562,-18.732 -67.571,-41.325 z m 93.458,50.677 -0.021,-22.388 -35.635,-63.518 -9.911,6.068 45,80.202 z m 15.837,-117.469 -11.769,7.221 0.101,107.821 11.631,-20.846 z m -11.646,156.333 0.016,3.333 c 0,0 0.566,6.128 5.869,5.86 5.317,-0.284 5.788,-5.966 5.788,-5.966 l -0.011,-24.266 z"
     style="fill:#231f20;fill-opacity:1;fill-rule:nonzero;stroke:none"
     id="path30226" />
  <path
     d="m 505.135,542.013 c -2.567,0 -4.64,-2.076 -4.64,-4.645 0,-2.56 2.073,-4.631 4.64,-4.631 2.56,0 4.639,2.071 4.639,4.631 0,2.569 -2.079,4.645 -4.639,4.645 M 742.785,385.381 470.819,551.592 c 0,0 -4.955,3.672 -1.956,8.06 3.004,4.392 8.113,1.833 8.113,1.833 L 747.745,396.173 c 0,0 -1.56,-4.033 -4.96,-10.792"
     style="fill:#231f20;fill-opacity:1;fill-rule:nonzero;stroke:none"
     id="path30230" />
  <path
     d="m 340.544,421.675 c -10.947,-4.276 -29.333,-8.552 -41.819,-9.495 l 0.084,6.244 32.243,19.926 z"
     style="fill:#231f20;fill-opacity:1;fill-rule:nonzero;stroke:none"
     id="path30234" />
  <path
     d="m 287.57,542.013 c -2.567,0 -4.64,-2.076 -4.64,-4.645 0,-2.56 2.073,-4.631 4.64,-4.631 2.56,0 4.639,2.071 4.639,4.631 0,2.569 -2.079,4.645 -4.639,4.645 M 525.22,385.381 253.254,551.592 c 0,0 -4.955,3.672 -1.956,8.06 3.004,4.392 8.113,1.833 8.113,1.833 l 270.77,-165.312 c 0,0 -1.561,-4.033 -4.961,-10.792"
     style="fill:#231f20;fill-opacity:1;fill-rule:nonzero;stroke:none"
     id="path30238" />
</svg>
