<?xml version="1.0" encoding="UTF-8" standalone="no"?>
<!-- Created with Inkscape (http://www.inkscape.org/) -->

<svg
   version="1.1"
   id="svg60702"
   width="793.70135"
   height="793.70099"
   viewBox="0 0 793.70135 793.70097"
   sodipodi:docname="Genjigurumani Chigai Takanoha.svg"
   inkscape:version="1.2 (dc2aeda, 2022-05-15)"
   xmlns:inkscape="http://www.inkscape.org/namespaces/inkscape"
   xmlns:sodipodi="http://sodipodi.sourceforge.net/DTD/sodipodi-0.dtd"
   xmlns="http://www.w3.org/2000/svg"
   xmlns:svg="http://www.w3.org/2000/svg">
  <defs
     id="defs60706">
    <clipPath
       clipPathUnits="userSpaceOnUse"
       id="clipPath61569">
      <path
         d="m -149.7461,368.182 h 595.276 v -841.89 h -595.276 z"
         id="path61571"
         style="stroke-width:0.999998" />
    </clipPath>
    <clipPath
       clipPathUnits="userSpaceOnUse"
       id="clipPath61575">
      <path
         d="M -496.0088,355.5023 H 99.267197 v -841.89 H -496.0088 Z"
         id="path61577"
         style="stroke-width:0.999998" />
    </clipPath>
    <clipPath
       clipPathUnits="userSpaceOnUse"
       id="clipPath61581">
      <path
         d="m -174.7368,473.4925 h 595.276 v -841.89 h -595.276 z"
         id="path61583"
         style="stroke-width:0.999998" />
    </clipPath>
    <clipPath
       clipPathUnits="userSpaceOnUse"
       id="clipPath61587">
      <path
         d="m -228.3584,617.2328 h 595.276 v -841.89 h -595.276 z"
         id="path61589"
         style="stroke-width:0.999998" />
    </clipPath>
    <clipPath
       clipPathUnits="userSpaceOnUse"
       id="clipPath61593">
      <path
         d="m -478.0342,327.0599 h 595.276 v -841.89 h -595.276 z"
         id="path61595"
         style="stroke-width:0.999998" />
    </clipPath>
    <clipPath
       clipPathUnits="userSpaceOnUse"
       id="clipPath61599">
      <path
         d="m -160.0083,345.2919 h 595.276 v -841.89 h -595.276 z"
         id="path61601"
         style="stroke-width:0.999998" />
    </clipPath>
    <clipPath
       clipPathUnits="userSpaceOnUse"
       id="clipPath61605">
      <path
         d="m -369.4111,559.1 h 595.276 v -841.89 h -595.276 z"
         id="path61607"
         style="stroke-width:0.999998" />
    </clipPath>
    <clipPath
       clipPathUnits="userSpaceOnUse"
       id="clipPath61611">
      <path
         d="m -158.4692,492.6957 h 595.276 v -841.89 h -595.276 z"
         id="path61613"
         style="stroke-width:0.999998" />
    </clipPath>
    <clipPath
       clipPathUnits="userSpaceOnUse"
       id="clipPath61617">
      <path
         d="m -387.6924,608.2211 h 595.276 v -841.89 h -595.276 z"
         id="path61619"
         style="stroke-width:0.999998" />
    </clipPath>
    <clipPath
       clipPathUnits="userSpaceOnUse"
       id="clipPath61623">
      <path
         d="m -250.1904,569.6156 h 595.276 v -841.89 h -595.276 z"
         id="path61625"
         style="stroke-width:0.999998" />
    </clipPath>
    <clipPath
       clipPathUnits="userSpaceOnUse"
       id="clipPath61629">
      <path
         d="m -155.9761,487.7113 h 595.276 v -841.89 h -595.276 z"
         id="path61631"
         style="stroke-width:0.999998" />
    </clipPath>
    <clipPath
       clipPathUnits="userSpaceOnUse"
       id="clipPath61635">
      <path
         d="m -494.2861,489.2953 h 595.276 v -841.89 h -595.276 z"
         id="path61637"
         style="stroke-width:0.999998" />
    </clipPath>
    <clipPath
       clipPathUnits="userSpaceOnUse"
       id="clipPath61641">
      <path
         d="m -232.1436,221.1317 h 595.276 v -841.89 h -595.276 z"
         id="path61643"
         style="stroke-width:0.999998" />
    </clipPath>
    <clipPath
       clipPathUnits="userSpaceOnUse"
       id="clipPath61647">
      <path
         d="m -392.0283,233.5829 h 595.276 v -841.89 h -595.276 z"
         id="path61649"
         style="stroke-width:0.999998" />
    </clipPath>
    <clipPath
       clipPathUnits="userSpaceOnUse"
       id="clipPath61653">
      <path
         d="m -446.2998,467.3832 h 595.27599 v -841.89 H -446.2998 Z"
         id="path61655"
         style="stroke-width:0.999998" />
    </clipPath>
    <clipPath
       clipPathUnits="userSpaceOnUse"
       id="clipPath61659">
      <path
         d="m -242.5166,541.2738 h 595.276 v -841.89 h -595.276 z"
         id="path61661"
         style="stroke-width:0.999998" />
    </clipPath>
    <clipPath
       clipPathUnits="userSpaceOnUse"
       id="clipPath61665">
      <path
         d="m -181.7046,466.5101 h 595.276 v -841.89 h -595.276 z"
         id="path61667"
         style="stroke-width:0.999998" />
    </clipPath>
    <clipPath
       clipPathUnits="userSpaceOnUse"
       id="clipPath61671">
      <path
         d="m -249.4053,534.3324 h 595.276 v -841.89 h -595.276 z"
         id="path61673"
         style="stroke-width:0.999998" />
    </clipPath>
    <clipPath
       clipPathUnits="userSpaceOnUse"
       id="clipPath61677">
      <path
         d="m -209.397,410.744 h 595.276 v -841.89 h -595.276 z"
         id="path61679"
         style="stroke-width:0.999998" />
    </clipPath>
    <clipPath
       clipPathUnits="userSpaceOnUse"
       id="clipPath61683">
      <path
         d="m -228.165,391.9584 h 595.276 v -841.89 h -595.276 z"
         id="path61685"
         style="stroke-width:0.999998" />
    </clipPath>
    <clipPath
       clipPathUnits="userSpaceOnUse"
       id="clipPath61689">
      <path
         d="m -239.6826,380.451 h 595.276 v -841.89 h -595.276 z"
         id="path61691"
         style="stroke-width:0.999998" />
    </clipPath>
    <clipPath
       clipPathUnits="userSpaceOnUse"
       id="clipPath61695">
      <path
         d="m -303.8232,316.3182 h 595.276 v -841.89 h -595.276 z"
         id="path61697"
         style="stroke-width:0.999998" />
    </clipPath>
    <clipPath
       clipPathUnits="userSpaceOnUse"
       id="clipPath61704">
      <path
         d="m -349.5166,379.8636 h 595.276 v -841.89 h -595.276 z"
         id="path61706"
         style="stroke-width:0.999998" />
    </clipPath>
    <clipPath
       clipPathUnits="userSpaceOnUse"
       id="clipPath61710">
      <path
         d="m -257.3174,526.473 h 595.276 v -841.89 h -595.276 z"
         id="path61712"
         style="stroke-width:0.999998" />
    </clipPath>
    <clipPath
       clipPathUnits="userSpaceOnUse"
       id="clipPath61720">
      <path
         d="m -343.1943,386.1493 h 595.276 v -841.89 h -595.276 z"
         id="path61722"
         style="stroke-width:0.999998" />
    </clipPath>
    <clipPath
       clipPathUnits="userSpaceOnUse"
       id="clipPath61726">
      <path
         d="m -194.5806,521.432 h 595.276 v -841.89 h -595.276 z"
         id="path61728"
         style="stroke-width:0.999998" />
    </clipPath>
    <clipPath
       clipPathUnits="userSpaceOnUse"
       id="clipPath61732">
      <path
         d="m -351.7646,541.2816 h 595.276 v -841.89 h -595.276 z"
         id="path61734"
         style="stroke-width:0.999998" />
    </clipPath>
    <clipPath
       clipPathUnits="userSpaceOnUse"
       id="clipPath61738">
      <path
         d="m -405.8916,514.3226 h 595.27599 v -841.89 H -405.8916 Z"
         id="path61740"
         style="stroke-width:0.999998" />
    </clipPath>
    <clipPath
       clipPathUnits="userSpaceOnUse"
       id="clipPath61744">
      <path
         d="m -344.7744,534.3148 h 595.276 v -841.89 h -595.276 z"
         id="path61746"
         style="stroke-width:0.999998" />
    </clipPath>
    <clipPath
       clipPathUnits="userSpaceOnUse"
       id="clipPath61750">
      <path
         d="m -398.9678,507.4046 h 595.276 v -841.89 h -595.276 z"
         id="path61752"
         style="stroke-width:0.999998" />
    </clipPath>
    <clipPath
       clipPathUnits="userSpaceOnUse"
       id="clipPath61756">
      <path
         d="m -336.8955,526.4652 h 595.276 v -841.89 h -595.276 z"
         id="path61758"
         style="stroke-width:0.999998" />
    </clipPath>
    <clipPath
       clipPathUnits="userSpaceOnUse"
       id="clipPath61763">
      <path
         d="m -342.8096,477.4105 h 595.27599 v -841.89 H -342.8096 Z"
         id="path61765"
         style="stroke-width:0.999998" />
    </clipPath>
    <clipPath
       clipPathUnits="userSpaceOnUse"
       id="clipPath61769">
      <path
         d="m -194.5884,412.1991 h 595.276 v -841.89 h -595.276 z"
         id="path61771"
         style="stroke-width:0.999998" />
    </clipPath>
    <clipPath
       clipPathUnits="userSpaceOnUse"
       id="clipPath61775">
      <path
         d="m -208.4067,402.8583 h 595.276 v -841.89 h -595.276 z"
         id="path61777"
         style="stroke-width:0.999998" />
    </clipPath>
    <clipPath
       clipPathUnits="userSpaceOnUse"
       id="clipPath61781">
      <path
         d="m -219.8755,391.349 h 595.27599 v -841.89 H -219.8755 Z"
         id="path61783"
         style="stroke-width:0.999998" />
    </clipPath>
    <clipPath
       clipPathUnits="userSpaceOnUse"
       id="clipPath61787">
      <path
         d="m -231.4365,379.8436 h 595.276 v -841.89 h -595.276 z"
         id="path61789"
         style="stroke-width:0.999998" />
    </clipPath>
    <clipPath
       clipPathUnits="userSpaceOnUse"
       id="clipPath61793">
      <path
         d="m -251.4248,359.8378 h 595.276 v -841.89 h -595.276 z"
         id="path61795"
         style="stroke-width:0.999998" />
    </clipPath>
    <clipPath
       clipPathUnits="userSpaceOnUse"
       id="clipPath61799">
      <path
         d="m -372.4346,448.3265 h 595.276 v -841.89 h -595.276 z"
         id="path61801"
         style="stroke-width:0.999998" />
    </clipPath>
    <clipPath
       clipPathUnits="userSpaceOnUse"
       id="clipPath61805">
      <path
         d="m -360.917,459.8402 h 595.276 v -841.89 h -595.276 z"
         id="path61807"
         style="stroke-width:0.999998" />
    </clipPath>
    <clipPath
       clipPathUnits="userSpaceOnUse"
       id="clipPath61811">
      <path
         d="m -356.7197,462.8949 h 595.276 v -841.89 h -595.276 z"
         id="path61813"
         style="stroke-width:0.999998" />
    </clipPath>
    <clipPath
       clipPathUnits="userSpaceOnUse"
       id="clipPath61820">
      <path
         d="m -347.3076,473.4593 h 595.276 v -841.89 h -595.276 z"
         id="path61822"
         style="stroke-width:0.999998" />
    </clipPath>
    <clipPath
       clipPathUnits="userSpaceOnUse"
       id="clipPath61826">
      <path
         d="m -242.5342,368.7152 h 595.27599 v -841.89 H -242.5342 Z"
         id="path61828"
         style="stroke-width:0.999998" />
    </clipPath>
    <clipPath
       clipPathUnits="userSpaceOnUse"
       id="clipPath61832">
      <path
         d="m -359.1338,226.1947 h 595.276 v -841.89 h -595.276 z"
         id="path61834"
         style="stroke-width:0.999998" />
    </clipPath>
    <clipPath
       clipPathUnits="userSpaceOnUse"
       id="clipPath61838">
      <path
         d="m -147.9741,373.4857 h 595.27599 v -841.89 H -147.9741 Z"
         id="path61840"
         style="stroke-width:0.999998" />
    </clipPath>
  </defs>
  <sodipodi:namedview
     id="namedview60704"
     pagecolor="#ffffff"
     bordercolor="#000000"
     borderopacity="0.25"
     inkscape:showpageshadow="2"
     inkscape:pageopacity="0.0"
     inkscape:pagecheckerboard="0"
     inkscape:deskcolor="#d1d1d1"
     showgrid="false"
     inkscape:zoom="0.21024124"
     inkscape:cx="-470.88764"
     inkscape:cy="561.26002"
     inkscape:window-width="1419"
     inkscape:window-height="456"
     inkscape:window-x="0"
     inkscape:window-y="25"
     inkscape:window-maximized="0"
     inkscape:current-layer="svg60702">
    <inkscape:page
       x="0"
       y="0"
       id="page60708"
       width="793.70135"
       height="793.70099" />
  </sodipodi:namedview>
  <path
     d="m 478.845,139.593 c -26.052,-8.349 -53.836,-12.844 -82.656,-12.844 -26.844,0 -52.789,3.901 -77.278,11.177 l 18.825,60.5 c 18.536,-5.409 38.164,-8.306 58.453,-8.306 21.796,0 42.836,3.352 62.601,9.568 z"
     style="fill:#231f20;fill-opacity:1;fill-rule:nonzero;stroke:none"
     id="path60722" />
  <path
     d="m 595.066,461.178 c 6.211,-19.765 9.568,-40.787 9.568,-62.601 0,-20.288 -2.907,-39.905 -8.305,-58.448 l 59.982,-18.616 c 7.064,24.192 10.872,49.773 10.872,76.241 0,29.012 -4.565,56.963 -13.01,83.169 z"
     style="fill:#231f20;fill-opacity:1;fill-rule:nonzero;stroke:none"
     id="path60726" />
  <path
     d="m 661.345,312.003 c 8.456,26.191 13.148,54.071 13.448,82.993 h 64.366 C 738.217,302.826 700.93,219.367 640.96,158.274 l -45.123,45.14 c 20.984,21.561 38.527,46.528 51.699,73.985 l -63.125,31.488 c 3.718,7.793 6.958,15.843 9.705,24.127 z"
     style="fill:#231f20;fill-opacity:1;fill-rule:nonzero;stroke:none"
     id="path60730" />
  <path
     d="M 637.379,274.08 C 612.524,225.719 573.559,185.802 525.913,159.766 l -29.558,55.962 c 36.048,19.793 65.615,49.928 84.685,86.424 z"
     style="fill:#231f20;fill-opacity:1;fill-rule:nonzero;stroke:none"
     id="path60734" />
  <path
     d="m 522.704,149.444 c 25.027,12.78 47.872,29.232 67.809,48.645 l 45.123,-45.122 C 574.649,93.492 491.597,56.558 399.918,55.586 v 63.557 c 30.981,0.406 60.762,5.874 88.515,15.618 l -22.589,67.29 c 8.212,2.906 16.185,6.317 23.893,10.193 z"
     style="fill:#231f20;fill-opacity:1;fill-rule:nonzero;stroke:none"
     id="path60738" />
  <path
     d="m 309.525,132.842 c 26.125,-8.536 53.953,-13.325 82.846,-13.699 V 55.585 c -91.987,1.005 -175.274,38.222 -236.303,98.06 l 45.101,45.069 c 21.467,-21.039 46.341,-38.639 73.688,-51.884 l 31.632,63.525 c 7.781,-3.72 15.841,-6.969 24.137,-9.716 z"
     style="fill:#231f20;fill-opacity:1;fill-rule:nonzero;stroke:none"
     id="path60742" />
  <path
     d="m 659.048,490.394 c 9.716,-27.591 15.211,-57.169 15.724,-87.973 h 64.374 c -1.025,91.954 -38.237,175.235 -98.059,236.278 l -45.88,-45.925 c 19.573,-20.014 36.174,-42.932 49.068,-68.071 l -61.779,-32.538 c 3.88,-7.714 7.3,-15.695 10.208,-23.919 z"
     style="fill:#231f20;fill-opacity:1;fill-rule:nonzero;stroke:none"
     id="path60746" />
  <path
     d="m 492.548,583.467 c 36.519,-19.071 66.674,-48.639 86.473,-84.697 l 55.043,28.89 c -25.978,47.463 -65.743,86.323 -113.904,111.146 z"
     style="fill:#231f20;fill-opacity:1;fill-rule:nonzero;stroke:none"
     id="path60750" />
  <path
     d="m 516.923,648.961 c 27.024,-13.021 51.633,-30.276 72.948,-50.885 l 45.924,45.913 c -61.008,59.587 -144.08,96.628 -235.853,97.612 V 676.37 c 28.787,-0.376 56.517,-5.109 82.56,-13.6 l -20.74,-66.254 c 8.273,-2.738 16.333,-5.987 24.128,-9.724 z"
     style="fill:#231f20;fill-opacity:1;fill-rule:nonzero;stroke:none"
     id="path60754" />
  <path
     d="m 304.478,660.977 c 27.581,9.599 57.128,14.987 87.893,15.393 v 65.232 C 300.31,740.586 216.926,703.308 155.886,643.36 l 45.956,-45.948 c 20.108,19.596 43.167,36.166 68.449,48.981 l 32.338,-61.5 c 7.685,3.882 15.672,7.314 23.88,10.232 z"
     style="fill:#231f20;fill-opacity:1;fill-rule:nonzero;stroke:none"
     id="path60758" />
  <path
     d="m 333.587,597.487 c 19.765,6.221 40.795,9.568 62.601,9.568 20.279,0 39.896,-2.909 58.453,-8.295 l 18.334,58.987 c -24.342,7.161 -50.115,11.042 -76.787,11.042 -28.617,0 -56.208,-4.456 -82.122,-12.666 z"
     style="fill:#231f20;fill-opacity:1;fill-rule:nonzero;stroke:none"
     id="path60762" />
  <path
     d="m 207.968,488.282 c -3.721,-7.792 -6.96,-15.857 -9.717,-24.153 l -66.771,20.91 c -8.562,-26.025 -13.405,-53.744 -13.876,-82.538 H 53.2177 c 1.016,91.593 37.9493,174.557 97.3433,235.513 l 45.968,-45.904 c -20.653,-21.235 -37.961,-45.716 -51.056,-72.628 z"
     style="fill:#231f20;fill-opacity:1;fill-rule:nonzero;stroke:none"
     id="path60766" />
  <path
     d="m 211.292,494.928 c 19.072,36.516 48.651,66.694 84.708,86.492 l -28.756,54.765 C 219.673,610.401 180.685,570.789 155.672,522.743 Z"
     style="fill:#231f20;fill-opacity:1;fill-rule:nonzero;stroke:none"
     id="path60770" />
  <path
     d="m 213.344,298.389 c 19.808,-36.063 49.967,-65.632 86.472,-84.702 L 271.52,157.056 c -48.287,25.079 -88.097,64.263 -113.935,112.101 z"
     style="fill:#231f20;fill-opacity:1;fill-rule:nonzero;stroke:none"
     id="path60774" />
  <path
     d="m 199.661,328.909 c 2.919,-8.225 6.317,-16.212 10.209,-23.924 l -62.505,-32.803 c 12.721,-25.137 29.131,-48.089 48.512,-68.138 L 150.7,159.028 C 91.1666,220.036 54.18,303.152 53.2067,394.905 h 64.3653 c 0.32,-30.911 5.655,-60.619 15.244,-88.332 z"
     style="fill:#231f20;fill-opacity:1;fill-rule:nonzero;stroke:none"
     id="path60778" />
  <path
     d="m 197.299,335.981 c -6.211,19.767 -9.568,40.788 -9.568,62.596 0,20.301 2.908,39.924 8.328,58.476 l -59.523,18.53 c -7.375,-24.65 -11.342,-50.784 -11.342,-77.829 0,-28.452 4.383,-55.877 12.518,-81.646 z"
     style="fill:#231f20;fill-opacity:1;fill-rule:nonzero;stroke:none"
     id="path60782" />
  <path
     d="m 232.982,469.323 c 0,19.18 6.067,38.355 18.211,54.419 l 3.324,-3.331 C 240.79,502.687 233.906,481.339 233.906,460.058 v -0.032 -0.072 -0.019 c 0.005,-1.385 0.033,-2.768 0.092,-4.156 -0.679,4.487 -1.016,9.016 -1.016,13.544"
     style="fill:#231f20;fill-opacity:1;fill-rule:nonzero;stroke:none"
     id="path60786" />
  <path
     d="m 323.355,559.698 c 4.503,0 9.003,-0.333 13.461,-1.003 -1.385,0.058 -2.77,0.086 -4.149,0.086 -21.309,0 -42.664,-6.87 -60.388,-20.602 l -3.347,3.334 c 16.058,12.122 35.246,18.185 54.423,18.185"
     style="fill:#231f20;fill-opacity:1;fill-rule:nonzero;stroke:none"
     id="path60790" />
  <path
     d="m 242.273,460.013 c 0,19.185 6.072,38.36 18.215,54.421 l 4.48,-4.457 C 251.242,492.24 244.357,470.898 244.357,449.606 v -0.104 -0.008 -0.005 c 0,-3.927 0.235,-7.859 0.705,-11.768 -1.86,7.305 -2.789,14.797 -2.789,22.292"
     style="fill:#231f20;fill-opacity:1;fill-rule:nonzero;stroke:none"
     id="path60794" />
  <path
     d="m 332.54,550.443 c 7.588,0 15.18,-0.948 22.576,-2.844 -3.988,0.487 -7.995,0.729 -12.005,0.729 -21.306,0 -42.659,-6.89 -60.372,-20.628 l -4.58,4.576 c 16.029,12.118 35.201,18.167 54.381,18.167"
     style="fill:#231f20;fill-opacity:1;fill-rule:nonzero;stroke:none"
     id="path60798" />
  <path
     d="m 279.196,385.659 c -17.649,17.636 -26.448,40.751 -26.448,63.879 0,19.197 6.073,38.387 18.211,54.457 l 24.886,-24.856 0.039,-110.213 z"
     style="fill:#231f20;fill-opacity:1;fill-rule:nonzero;stroke:none"
     id="path60802" />
  <path
     d="m 304.22,360.611 -0.011,110.137 6.987,-6.953 V 353.67 Z"
     style="fill:#231f20;fill-opacity:1;fill-rule:nonzero;stroke:none"
     id="path60806" />
  <path
     d="m 319.577,345.268 -0.011,110.133 6.967,-6.94 0.031,-110.176 z"
     style="fill:#231f20;fill-opacity:1;fill-rule:nonzero;stroke:none"
     id="path60810" />
  <path
     d="m 405.098,259.758 -70.164,70.177 -0.01,110.112 74.27,-74.296 V 255.913 c -1.396,1.234 -2.765,2.514 -4.096,3.845"
     style="fill:#231f20;fill-opacity:1;fill-rule:nonzero;stroke:none"
     id="path60814" />
  <path
     d="m 417.56386,357.36895 6.97333,-6.97733 V 244.98895 c -2.37733,1.34534 -4.71333,2.796 -6.984,4.37067 z"
     style="fill:#231f20;fill-opacity:1;fill-rule:nonzero;stroke:none;stroke-width:1.33333"
     id="path60818" />
  <path
     d="m 432.89719,342.06362 6.992,-7.02133 v -96.94 c -2.356,0.796 -4.68667,1.684 -6.98133,2.672 z"
     style="fill:#231f20;fill-opacity:1;fill-rule:nonzero;stroke:none;stroke-width:1.33333"
     id="path60822" />
  <path
     d="m 448.23826,326.72308 75.19066,-75.23066 c -16.05199,-12.12134 -35.21866,-18.18534 -54.40399,-18.18534 -6.97467,0 -13.956,0.79467 -20.76534,2.39734 z"
     style="fill:#231f20;fill-opacity:1;fill-rule:nonzero;stroke:none;stroke-width:1.33333"
     id="path60826" />
  <path
     d="m 466.022,344.485 90.956,0.011 c 1.609,-6.844 2.41,-13.836 2.41,-20.827 0,-19.189 -6.066,-38.369 -18.2,-54.418 z m 92.057,1.397 v -1.386 z"
     style="fill:#231f20;fill-opacity:1;fill-rule:nonzero;stroke:none"
     id="path60830" />
  <path
     d="m 343.09,539.964 c 23.145,0 46.279,-8.823 63.937,-26.472 l 16.62,-16.604 -110.136,0.011 -24.833,24.852 c 16.045,12.129 35.235,18.213 54.412,18.213"
     style="fill:#231f20;fill-opacity:1;fill-rule:nonzero;stroke:none"
     id="path60834" />
  <path
     d="m 321.90239,488.52388 h 110.12 l 6.984,-6.98933 -110.09067,-0.0107 z"
     style="fill:#231f20;fill-opacity:1;fill-rule:nonzero;stroke:none;stroke-width:1.33333"
     id="path60838" />
  <path
     d="m 337.27999,473.16721 h 110.09333 l 6.98,-6.98667 -110.08666,-0.0107 z"
     style="fill:#231f20;fill-opacity:1;fill-rule:nonzero;stroke:none;stroke-width:1.33333"
     id="path60842" />
  <path
     d="m 352.66799,457.81295 h 110.07866 l 70.17867,-70.212 c 1.32133,-1.31733 2.58133,-2.668 3.79467,-4.03866 H 426.93865 Z"
     style="fill:#231f20;fill-opacity:1;fill-rule:nonzero;stroke:none;stroke-width:1.33333"
     id="path60846" />
  <path
     d="m 435.29812,375.16908 107.98666,0.0333 c 1.58667,-2.284 3.05734,-4.61733 4.41467,-6.99333 l -105.40933,-0.032 z"
     style="fill:#231f20;fill-opacity:1;fill-rule:nonzero;stroke:none;stroke-width:1.33333"
     id="path60850" />
  <path
     d="m 457.592,352.866 -6.976,6.981 h 101.23 c 1.006,-2.301 1.926,-4.634 2.732,-6.992 z"
     style="fill:#231f20;fill-opacity:1;fill-rule:nonzero;stroke:none"
     id="path60854" />
  <path
     d="m 259.441,533.243 c 0.999,1 2.009,1.959 3.035,2.893 L 535.79,262.822 c -0.93,-1.045 -1.88,-2.077 -2.864,-3.061 -0.995,-0.983 -2.006,-1.945 -3.027,-2.883 L 256.56,530.215 c 0.936,1.025 1.897,2.039 2.881,3.028"
     style="fill:#231f20;fill-opacity:1;fill-rule:nonzero;stroke:none"
     id="path60858" />
  <path
     d="m 469.019,559.709 c 19.18,0 38.352,-6.073 54.404,-18.205 l -3.331,-3.323 c -17.346,13.429 -38.158,20.315 -59.005,20.593 v 0.018 h -1.377 c -1.382,0 -2.759,-0.026 -4.128,-0.083 4.453,0.667 8.948,1 13.437,1"
     style="fill:#231f20;fill-opacity:1;fill-rule:nonzero;stroke:none"
     id="path60862" />
  <path
     d="m 541.189,523.763 c 12.133,-16.055 18.195,-35.243 18.195,-54.429 0,-4.524 -0.338,-9.055 -1.015,-13.543 0.063,1.415 0.091,2.829 0.091,4.245 0,21.303 -6.875,42.662 -20.602,60.388 z"
     style="fill:#231f20;fill-opacity:1;fill-rule:nonzero;stroke:none"
     id="path60866" />
  <path
     d="m 459.699,550.42 c 19.172,0 38.344,-6.073 54.412,-18.203 l -4.459,-4.482 c -17.573,13.606 -38.708,20.482 -59.82,20.6 v 10e-4 h -0.552 -0.021 -0.011 -0.07 c -3.938,0 -7.883,-0.236 -11.802,-0.708 7.312,1.863 14.818,2.792 22.323,2.792"
     style="fill:#231f20;fill-opacity:1;fill-rule:nonzero;stroke:none"
     id="path60870" />
  <path
     d="m 531.957,514.539 c 12.117,-16.041 18.164,-35.213 18.164,-54.396 0,-7.58 -0.948,-15.166 -2.839,-22.552 0.482,3.984 0.727,7.99 0.727,11.995 0,21.305 -6.885,42.646 -20.623,60.369 z"
     style="fill:#231f20;fill-opacity:1;fill-rule:nonzero;stroke:none"
     id="path60874" />
  <path
     d="m 449.194,539.954 c 19.205,0 38.417,-6.073 54.472,-18.221 l -24.832,-24.878 -43.369,-0.01 -22.526,22.557 c -2.977,2.976 -6.076,5.727 -9.326,8.249 14.018,8.204 29.81,12.303 45.581,12.303"
     style="fill:#231f20;fill-opacity:1;fill-rule:nonzero;stroke:none"
     id="path60878" />
  <path
     d="m 443.85026,488.49001 26.59067,-0.0107 -6.968,-6.97333 h -12.64934 z"
     style="fill:#231f20;fill-opacity:1;fill-rule:nonzero;stroke:none;stroke-width:1.33333"
     id="path60882" />
  <path
     d="m 457.079,474.547 -1.604,1.372 h 2.971 z"
     style="fill:#231f20;fill-opacity:1;fill-rule:nonzero;stroke:none"
     id="path60886" />
  <path
     d="m 259.451,387.599 3.827,3.821 c 1.988,-2.712 4.116,-5.364 6.409,-7.916 l -14.096,-0.005 c 1.235,1.399 2.519,2.767 3.86,4.1"
     style="fill:#231f20;fill-opacity:1;fill-rule:nonzero;stroke:none"
     id="path60890" />
  <path
     d="m 277.876,375.144 6.971,-6.995 -40.168,0.011 c 1.336,2.379 2.789,4.709 4.36,6.984 z"
     style="fill:#231f20;fill-opacity:1;fill-rule:nonzero;stroke:none"
     id="path60894" />
  <path
     d="m 293.167,359.799 7.024,-6.992 h -62.397 c 0.789,2.355 1.678,4.688 2.661,6.981 z"
     style="fill:#231f20;fill-opacity:1;fill-rule:nonzero;stroke:none"
     id="path60898" />
  <path
     d="m 308.582,344.458 8.896,-8.913 -66.289,-66.281 c -12.145,16.046 -18.196,35.226 -18.196,54.402 0,6.969 0.803,13.937 2.407,20.771 z"
     style="fill:#231f20;fill-opacity:1;fill-rule:nonzero;stroke:none"
     id="path60902" />
  <path
     d="m 335.233,317.784 8.893,-8.864 0.044,-73.198 c -6.841,-1.614 -13.828,-2.427 -20.825,-2.416 -19.188,0 -38.367,6.061 -54.407,18.205 z"
     style="fill:#231f20;fill-opacity:1;fill-rule:nonzero;stroke:none"
     id="path60906" />
  <path
     d="m 496.579,435.769 v 43.399 l 24.849,24.838 c 12.138,-16.046 18.206,-35.213 18.206,-54.385 0,-15.535 -3.982,-31.071 -11.943,-44.948 z"
     style="fill:#231f20;fill-opacity:1;fill-rule:nonzero;stroke:none"
     id="path60910" />
  <path
     d="m 481.223,451.12 -0.027,12.656 7.024,7.021 -0.01,-26.638 z"
     style="fill:#231f20;fill-opacity:1;fill-rule:nonzero;stroke:none"
     id="path60914" />
  <path
     d="m 475.626,455.193 v 0.967 l 0.011,2.278 -1.808,-1.664 z"
     style="fill:#231f20;fill-opacity:1;fill-rule:nonzero;stroke:none"
     id="path60918" />
  <path
     d="m 383.24346,269.77975 7.03333,-7.04267 -2.98933,-2.96533 c -1.32,-1.31867 -2.67733,-2.58533 -4.05467,-3.80667 z"
     style="fill:#231f20;fill-opacity:1;fill-rule:nonzero;stroke:none;stroke-width:1.33333"
     id="path60922" />
  <path
     d="m 367.88666,285.12815 6.97333,-6.96133 0.0107,-28.76134 c -2.26533,-1.58133 -4.596,-3.05066 -6.968,-4.39733 z"
     style="fill:#231f20;fill-opacity:1;fill-rule:nonzero;stroke:none;stroke-width:1.33333"
     id="path60926" />
  <path
     d="m 352.55079,300.47375 6.98133,-6.97733 v -52.63867 c -2.304,-1.01067 -4.63466,-1.932 -6.992,-2.74267 z"
     style="fill:#231f20;fill-opacity:1;fill-rule:nonzero;stroke:none;stroke-width:1.33333"
     id="path60930" />
  <path
     d="m 463.077,469.279 66.812,66.864 c 1.037,-0.943 2.048,-1.903 3.037,-2.888 0.995,-1.004 1.956,-2.015 2.896,-3.039 l -66.838,-66.849 z"
     style="fill:#231f20;fill-opacity:1;fill-rule:nonzero;stroke:none"
     id="path60934" />
  <path
     d="M 323.379,329.62 329.3,323.708 262.498,256.9 c -1.038,0.939 -2.074,1.89 -3.058,2.871 -0.984,0.987 -1.945,2.001 -2.881,3.028 z"
     style="fill:#231f20;fill-opacity:1;fill-rule:nonzero;stroke:none"
     id="path60938" />
</svg>
