<?xml version="1.0" encoding="UTF-8" standalone="no"?>
<!-- Created with Inkscape (http://www.inkscape.org/) -->

<svg
   version="1.1"
   id="svg54898"
   width="793.70135"
   height="793.70099"
   viewBox="0 0 793.70135 793.70097"
   sodipodi:docname="Genjigurumani Hayashinokakuji.svg"
   inkscape:version="1.2 (dc2aeda, 2022-05-15)"
   xmlns:inkscape="http://www.inkscape.org/namespaces/inkscape"
   xmlns:sodipodi="http://sodipodi.sourceforge.net/DTD/sodipodi-0.dtd"
   xmlns="http://www.w3.org/2000/svg"
   xmlns:svg="http://www.w3.org/2000/svg">
  <defs
     id="defs54902">
    <clipPath
       clipPathUnits="userSpaceOnUse"
       id="clipPath55291">
      <path
         d="m -393.7246,230.2421 h 595.276 v -841.89 h -595.276 z"
         id="path55293"
         style="stroke-width:0.999998" />
    </clipPath>
    <clipPath
       clipPathUnits="userSpaceOnUse"
       id="clipPath55297">
      <path
         d="M -497.8105,490.5306 H 97.465495 v -841.89 H -497.8105 Z"
         id="path55299"
         style="stroke-width:0.999998" />
    </clipPath>
    <clipPath
       clipPathUnits="userSpaceOnUse"
       id="clipPath55303">
      <path
         d="m -230.9771,217.5663 h 595.276 v -841.89 h -595.276 z"
         id="path55305"
         style="stroke-width:0.999998" />
    </clipPath>
    <clipPath
       clipPathUnits="userSpaceOnUse"
       id="clipPath55309">
      <path
         d="m -370.707,561.5882 h 595.276 v -841.89 h -595.276 z"
         id="path55311"
         style="stroke-width:0.999998" />
    </clipPath>
    <clipPath
       clipPathUnits="userSpaceOnUse"
       id="clipPath55315">
      <path
         d="m -481.2695,325.3924 h 595.276 v -841.89 h -595.276 z"
         id="path55317"
         style="stroke-width:0.999998" />
    </clipPath>
    <clipPath
       clipPathUnits="userSpaceOnUse"
       id="clipPath55321">
      <path
         d="m -249.3452,572.2855 h 595.276 v -841.89 h -595.276 z"
         id="path55323"
         style="stroke-width:0.999998" />
    </clipPath>
    <clipPath
       clipPathUnits="userSpaceOnUse"
       id="clipPath55327">
      <path
         d="m -157.5513,343.9486 h 595.276 v -841.89 h -595.276 z"
         id="path55329"
         style="stroke-width:0.999998" />
    </clipPath>
    <clipPath
       clipPathUnits="userSpaceOnUse"
       id="clipPath55333">
      <path
         d="m -147.1045,367.2484 h 595.276 v -841.89 h -595.276 z"
         id="path55335"
         style="stroke-width:0.999998" />
    </clipPath>
    <clipPath
       clipPathUnits="userSpaceOnUse"
       id="clipPath55339">
      <path
         d="m -145.3008,372.6498 h 595.27599 v -841.89 H -145.3008 Z"
         id="path55341"
         style="stroke-width:0.999998" />
    </clipPath>
    <clipPath
       clipPathUnits="userSpaceOnUse"
       id="clipPath55345">
      <path
         d="m -155.98,493.9916 h 595.276 v -841.89 H -155.98 Z"
         id="path55347"
         style="stroke-width:0.999998" />
    </clipPath>
    <clipPath
       clipPathUnits="userSpaceOnUse"
       id="clipPath55351">
      <path
         d="m -448.9746,468.2269 h 595.27599 v -841.89 H -448.9746 Z"
         id="path55353"
         style="stroke-width:0.999998" />
    </clipPath>
    <clipPath
       clipPathUnits="userSpaceOnUse"
       id="clipPath55357">
      <path
         d="m -360.2441,222.7176 h 595.276 v -841.89 h -595.276 z"
         id="path55359"
         style="stroke-width:0.999998" />
    </clipPath>
    <clipPath
       clipPathUnits="userSpaceOnUse"
       id="clipPath55363">
      <path
         d="m -294.0591,423.475 h 595.276 v -841.89 h -595.276 z"
         id="path55365"
         style="stroke-width:0.999998" />
    </clipPath>
    <clipPath
       clipPathUnits="userSpaceOnUse"
       id="clipPath55369">
      <path
         d="m -401.8145,423.475 h 595.276 v -841.89 h -595.276 z"
         id="path55371"
         style="stroke-width:0.999998" />
    </clipPath>
    <clipPath
       clipPathUnits="userSpaceOnUse"
       id="clipPath55375">
      <path
         d="m -227.1284,620.7513 h 595.276 v -841.89 h -595.276 z"
         id="path55377"
         style="stroke-width:0.999998" />
    </clipPath>
    <clipPath
       clipPathUnits="userSpaceOnUse"
       id="clipPath55381">
      <path
         d="m -153.4468,488.9183 h 595.276 v -841.89 h -595.276 z"
         id="path55383"
         style="stroke-width:0.999998" />
    </clipPath>
    <clipPath
       clipPathUnits="userSpaceOnUse"
       id="clipPath55387">
      <path
         d="m -389.3086,611.5795 h 595.276 v -841.89 h -595.276 z"
         id="path55389"
         style="stroke-width:0.999998" />
    </clipPath>
    <clipPath
       clipPathUnits="userSpaceOnUse"
       id="clipPath55393">
      <path
         d="M -499.5742,354.3441 H 95.701795 v -841.89 H -499.5742 Z"
         id="path55395"
         style="stroke-width:0.999998" />
    </clipPath>
  </defs>
  <sodipodi:namedview
     id="namedview54900"
     pagecolor="#ffffff"
     bordercolor="#000000"
     borderopacity="0.25"
     inkscape:showpageshadow="2"
     inkscape:pageopacity="0.0"
     inkscape:pagecheckerboard="0"
     inkscape:deskcolor="#d1d1d1"
     showgrid="false"
     inkscape:zoom="0.21024124"
     inkscape:cx="-470.88764"
     inkscape:cy="561.26002"
     inkscape:window-width="1419"
     inkscape:window-height="456"
     inkscape:window-x="0"
     inkscape:window-y="25"
     inkscape:window-maximized="0"
     inkscape:current-layer="svg54898">
    <inkscape:page
       x="0"
       y="0"
       id="page54904"
       width="793.70135"
       height="793.70099" />
  </sodipodi:namedview>
  <path
     d="m 480.325,134.957 c -26.524,-8.491 -54.797,-13.075 -84.142,-13.075 -27.323,0 -53.728,3.975 -78.658,11.378 l 19.168,61.586 c 18.867,-5.502 38.838,-8.453 59.49,-8.453 22.191,0 43.606,3.409 63.723,9.735 z"
     style="fill:#231f20;fill-opacity:1;fill-rule:nonzero;stroke:none"
     id="path54918" />
  <path
     d="m 598.633,462.303 c 6.317,-20.119 9.74,-41.52 9.74,-63.72 0,-20.653 -2.961,-40.622 -8.456,-59.496 l 61.049,-18.948 c 7.195,24.62 11.065,50.658 11.065,77.604 0,29.532 -4.641,57.983 -13.234,84.66 z"
     style="fill:#231f20;fill-opacity:1;fill-rule:nonzero;stroke:none"
     id="path54922" />
  <path
     d="m 666.099,310.459 c 8.604,26.657 13.383,55.037 13.683,84.474 h 65.519 C 744.339,301.115 706.388,216.165 645.339,153.975 l -45.925,45.946 c 21.357,21.949 39.212,47.365 52.614,75.314 l -64.246,32.053 c 3.787,7.927 7.088,16.127 9.877,24.556 z"
     style="fill:#231f20;fill-opacity:1;fill-rule:nonzero;stroke:none"
     id="path54926" />
  <path
     d="M 641.693,271.857 C 616.398,222.626 576.74,181.995 528.24,155.493 l -30.093,56.963 c 36.697,20.148 66.792,50.825 86.205,87.97 z"
     style="fill:#231f20;fill-opacity:1;fill-rule:nonzero;stroke:none"
     id="path54930" />
  <path
     d="m 524.966,144.989 c 25.476,13.007 48.727,29.753 69.026,49.513 l 45.924,-45.929 C 577.841,88.034 493.302,50.437 399.99,49.449 v 64.691 c 31.536,0.414 61.84,5.984 90.096,15.902 l -22.995,68.491 c 8.359,2.961 16.474,6.432 24.32,10.377 z"
     style="fill:#231f20;fill-opacity:1;fill-rule:nonzero;stroke:none"
     id="path54934" />
  <path
     d="m 307.969,128.088 c 26.596,-8.692 54.924,-13.56 84.333,-13.948 V 49.45 c -93.634,1.02 -178.417,38.901 -240.537,99.813 l 45.914,45.875 c 21.85,-21.417 47.163,-39.33 75.001,-52.814 l 32.2,64.665 c 7.92,-3.788 16.13,-7.093 24.564,-9.889 z"
     style="fill:#231f20;fill-opacity:1;fill-rule:nonzero;stroke:none"
     id="path54938" />
  <path
     d="m 663.747,492.041 c 9.899,-28.085 15.489,-58.195 16.013,-89.548 h 65.528 c -1.047,93.601 -38.921,178.374 -99.812,240.502 l -46.705,-46.748 c 19.927,-20.361 36.828,-43.693 49.945,-69.282 l -62.89,-33.12 c 3.955,-7.852 7.44,-15.98 10.4,-24.349 z"
     style="fill:#231f20;fill-opacity:1;fill-rule:nonzero;stroke:none"
     id="path54942" />
  <path
     d="m 494.276,586.784 c 37.169,-19.415 67.872,-49.512 88.024,-86.218 l 56.025,29.406 c -26.448,48.319 -66.919,87.869 -115.945,113.14 z"
     style="fill:#231f20;fill-opacity:1;fill-rule:nonzero;stroke:none"
     id="path54946" />
  <path
     d="m 519.078,653.439 c 27.516,-13.245 52.563,-30.808 74.262,-51.793 l 46.748,46.737 c -62.098,60.655 -146.655,98.36 -240.078,99.354 v -66.386 c 29.303,-0.384 57.524,-5.207 84.035,-13.843 l -21.112,-67.444 c 8.424,-2.79 16.632,-6.094 24.554,-9.892 z"
     style="fill:#231f20;fill-opacity:1;fill-rule:nonzero;stroke:none"
     id="path54950" />
  <path
     d="m 302.838,665.668 c 28.072,9.783 58.143,15.265 89.465,15.683 v 66.386 C 298.593,746.709 213.714,708.76 151.584,647.741 l 46.769,-46.758 c 20.483,19.936 43.946,36.806 69.678,49.858 l 32.915,-62.598 c 7.835,3.943 15.96,7.427 24.309,10.399 z"
     style="fill:#231f20;fill-opacity:1;fill-rule:nonzero;stroke:none"
     id="path54954" />
  <path
     d="m 332.46,601.047 c 20.119,6.339 41.529,9.739 63.723,9.739 20.653,0 40.61,-2.962 59.501,-8.446 l 18.665,60.047 c -24.779,7.3 -51.013,11.236 -78.166,11.236 -29.131,0 -57.212,-4.534 -83.586,-12.893 z"
     style="fill:#231f20;fill-opacity:1;fill-rule:nonzero;stroke:none"
     id="path54958" />
  <path
     d="m 204.596,489.891 c -3.784,-7.931 -7.088,-16.141 -9.889,-24.584 L 126.74,486.591 C 118.016,460.1 113.099,431.884 112.619,402.573 H 47.0777 c 1.0374,93.234 38.6226,177.684 99.0863,239.727 l 46.791,-46.727 c -21.028,-21.612 -38.646,-46.531 -51.976,-73.922 z"
     style="fill:#231f20;fill-opacity:1;fill-rule:nonzero;stroke:none"
     id="path54962" />
  <path
     d="m 207.973,496.655 c 19.424,37.176 49.528,67.888 86.237,88.044 L 264.93,640.44 C 216.514,614.195 176.833,573.875 151.369,524.97 Z"
     style="fill:#231f20;fill-opacity:1;fill-rule:nonzero;stroke:none"
     id="path54966" />
  <path
     d="m 210.068,296.598 c 20.161,-36.707 50.864,-66.804 88.022,-86.217 l -28.798,-57.644 c -49.164,25.523 -89.68,65.413 -115.977,114.109 z"
     style="fill:#231f20;fill-opacity:1;fill-rule:nonzero;stroke:none"
     id="path54970" />
  <path
     d="m 196.139,327.665 c 2.972,-8.371 6.436,-16.5 10.391,-24.353 l -63.616,-33.384 c 12.945,-25.592 29.642,-48.956 49.377,-69.363 L 146.302,154.743 C 85.6993,216.844 48.05,301.448 47.066,394.846 h 65.52 c 0.32,-31.466 5.751,-61.706 15.511,-89.92 z"
     style="fill:#231f20;fill-opacity:1;fill-rule:nonzero;stroke:none"
     id="path54974" />
  <path
     d="m 193.734,334.866 c -6.317,20.113 -9.739,41.516 -9.739,63.716 0,20.664 2.962,40.638 8.478,59.522 l -60.582,18.862 c -7.514,-25.091 -11.555,-51.691 -11.555,-79.224 0,-28.961 4.469,-56.879 12.742,-83.107 z"
     style="fill:#231f20;fill-opacity:1;fill-rule:nonzero;stroke:none"
     id="path54978" />
  <path
     d="m 392.079,402.633 v 137.234 h -41.056 v -86.429 h -8.204 v 86.429 h -36.945 v -86.429 h -8.211 v 86.429 H 256.614 V 402.633 h 49.26 v -8.153 h -49.26 V 257.308 h 41.049 v 86.428 h 8.211 v -86.428 h 36.945 v 86.428 h 8.204 v -86.428 h 41.056 V 394.48 h -49.26 v 8.153 z"
     style="fill:#231f20;fill-opacity:1;fill-rule:nonzero;stroke:none"
     id="path54982" />
  <path
     d="m 535.753,402.633 v 137.234 h -41.049 v -86.429 h -8.203 l -0.005,86.429 h -36.94 v -86.429 h -8.217 l 0.005,86.429 H 400.289 V 402.633 h 49.267 V 394.48 H 400.289 V 257.308 h 41.055 l -0.005,86.428 h 8.217 v -86.428 h 36.945 v 86.428 h 8.203 v -86.428 h 41.049 V 394.48 h -49.257 v 8.153 z"
     style="fill:#231f20;fill-opacity:1;fill-rule:nonzero;stroke:none"
     id="path54986" />
</svg>
