<?xml version="1.0" encoding="UTF-8" standalone="no"?>
<!-- Created with Inkscape (http://www.inkscape.org/) -->

<svg
   version="1.1"
   id="svg52238"
   width="793.70135"
   height="793.70099"
   viewBox="0 0 793.70135 793.70097"
   sodipodi:docname="Genjiwani Narabiya.svg"
   inkscape:version="1.2 (dc2aeda, 2022-05-15)"
   xmlns:inkscape="http://www.inkscape.org/namespaces/inkscape"
   xmlns:sodipodi="http://sodipodi.sourceforge.net/DTD/sodipodi-0.dtd"
   xmlns="http://www.w3.org/2000/svg"
   xmlns:svg="http://www.w3.org/2000/svg">
  <defs
     id="defs52242">
    <clipPath
       clipPathUnits="userSpaceOnUse"
       id="clipPath53023">
      <path
         d="m -154.5459,488.4046 h 595.276 v -841.89 h -595.276 z"
         id="path53025"
         style="stroke-width:0.999998" />
    </clipPath>
    <clipPath
       clipPathUnits="userSpaceOnUse"
       id="clipPath53029">
      <path
         d="m -249.7104,571.1312 h 595.276 v -841.89 h -595.276 z"
         id="path53031"
         style="stroke-width:0.999998" />
    </clipPath>
    <clipPath
       clipPathUnits="userSpaceOnUse"
       id="clipPath53035">
      <path
         d="m -227.6616,619.225 h 595.276 v -841.89 h -595.276 z"
         id="path53037"
         style="stroke-width:0.999998" />
    </clipPath>
    <clipPath
       clipPathUnits="userSpaceOnUse"
       id="clipPath53041">
      <path
         d="M -496.2832,490.0043 H 98.992795 v -841.89 H -496.2832 Z"
         id="path53043"
         style="stroke-width:0.999998" />
    </clipPath>
    <clipPath
       clipPathUnits="userSpaceOnUse"
       id="clipPath53047">
      <path
         d="m -392.9883,231.6986 h 595.276 v -841.89 h -595.276 z"
         id="path53049"
         style="stroke-width:0.999998" />
    </clipPath>
    <clipPath
       clipPathUnits="userSpaceOnUse"
       id="clipPath53053">
      <path
         d="m -388.6074,610.1254 h 595.276 v -841.89 h -595.276 z"
         id="path53055"
         style="stroke-width:0.999998" />
    </clipPath>
    <clipPath
       clipPathUnits="userSpaceOnUse"
       id="clipPath53059">
      <path
         d="m -370.1504,560.5218 h 595.276 v -841.89 h -595.276 z"
         id="path53061"
         style="stroke-width:0.999998" />
    </clipPath>
    <clipPath
       clipPathUnits="userSpaceOnUse"
       id="clipPath53065">
      <path
         d="m -410.8203,373.8583 h 595.27599 v -841.89 H -410.8203 Z"
         id="path53067"
         style="stroke-width:0.999998" />
    </clipPath>
    <clipPath
       clipPathUnits="userSpaceOnUse"
       id="clipPath53071">
      <path
         d="m -406.2852,458.1879 h 595.27599 v -841.89 H -406.2852 Z"
         id="path53073"
         style="stroke-width:0.999998" />
    </clipPath>
    <clipPath
       clipPathUnits="userSpaceOnUse"
       id="clipPath53077">
      <path
         d="m -404.9473,483.4105 h 595.276 v -841.89 h -595.276 z"
         id="path53079"
         style="stroke-width:0.999998" />
    </clipPath>
    <clipPath
       clipPathUnits="userSpaceOnUse"
       id="clipPath53083">
      <path
         d="m -405.625,470.8011 h 595.276 v -841.89 h -595.276 z"
         id="path53085"
         style="stroke-width:0.999998" />
    </clipPath>
    <clipPath
       clipPathUnits="userSpaceOnUse"
       id="clipPath53089">
      <path
         d="m -157.0591,493.4398 h 595.276 v -841.89 h -595.276 z"
         id="path53091"
         style="stroke-width:0.999998" />
    </clipPath>
    <clipPath
       clipPathUnits="userSpaceOnUse"
       id="clipPath53095">
      <path
         d="m -158.6147,344.5399 h 595.276 v -841.89 h -595.276 z"
         id="path53097"
         style="stroke-width:0.999998" />
    </clipPath>
    <clipPath
       clipPathUnits="userSpaceOnUse"
       id="clipPath53101">
      <path
         d="m -148.248,367.661 h 595.27599 v -841.89 H -148.248 Z"
         id="path53103"
         style="stroke-width:0.999998" />
    </clipPath>
    <clipPath
       clipPathUnits="userSpaceOnUse"
       id="clipPath53107">
      <path
         d="m -146.46,373.0223 h 595.27599 v -841.89 H -146.46 Z"
         id="path53109"
         style="stroke-width:0.999998" />
    </clipPath>
    <clipPath
       clipPathUnits="userSpaceOnUse"
       id="clipPath53113">
      <path
         d="m -233.0142,551.6937 h 595.276 v -841.89 h -595.276 z"
         id="path53115"
         style="stroke-width:0.999998" />
    </clipPath>
    <clipPath
       clipPathUnits="userSpaceOnUse"
       id="clipPath53119">
      <path
         d="m -182.8921,361.4305 h 595.276 v -841.89 h -595.276 z"
         id="path53121"
         style="stroke-width:0.999998" />
    </clipPath>
    <clipPath
       clipPathUnits="userSpaceOnUse"
       id="clipPath53125">
      <path
         d="m -191.6226,519.9828 h 595.276 v -841.89 h -595.276 z"
         id="path53127"
         style="stroke-width:0.999998" />
    </clipPath>
    <clipPath
       clipPathUnits="userSpaceOnUse"
       id="clipPath53131">
      <path
         d="m -359.7676,224.2303 h 595.276 v -841.89 h -595.276 z"
         id="path53133"
         style="stroke-width:0.999998" />
    </clipPath>
    <clipPath
       clipPathUnits="userSpaceOnUse"
       id="clipPath53137">
      <path
         d="m -184.2544,386.6786 h 595.276 v -841.89 h -595.276 z"
         id="path53139"
         style="stroke-width:0.999998" />
    </clipPath>
    <clipPath
       clipPathUnits="userSpaceOnUse"
       id="clipPath53143">
      <path
         d="m -183.561,374.0624 h 595.276 v -841.89 h -595.276 z"
         id="path53145"
         style="stroke-width:0.999998" />
    </clipPath>
    <clipPath
       clipPathUnits="userSpaceOnUse"
       id="clipPath53149">
      <path
         d="m -188.0952,458.391 h 595.276 v -841.89 h -595.276 z"
         id="path53151"
         style="stroke-width:0.999998" />
    </clipPath>
    <clipPath
       clipPathUnits="userSpaceOnUse"
       id="clipPath53155">
      <path
         d="m -189.4341,483.6156 h 595.276 v -841.89 h -595.276 z"
         id="path53157"
         style="stroke-width:0.999998" />
    </clipPath>
    <clipPath
       clipPathUnits="userSpaceOnUse"
       id="clipPath53161">
      <path
         d="m -188.7563,471.0062 h 595.276 v -841.89 h -595.276 z"
         id="path53163"
         style="stroke-width:0.999998" />
    </clipPath>
    <clipPath
       clipPathUnits="userSpaceOnUse"
       id="clipPath53167">
      <path
         d="m -291.4458,361.4305 h 595.276 v -841.89 h -595.276 z"
         id="path53169"
         style="stroke-width:0.999998" />
    </clipPath>
    <clipPath
       clipPathUnits="userSpaceOnUse"
       id="clipPath53173">
      <path
         d="m -282.7104,519.9828 h 595.276 v -841.89 h -595.276 z"
         id="path53175"
         style="stroke-width:0.999998" />
    </clipPath>
    <clipPath
       clipPathUnits="userSpaceOnUse"
       id="clipPath53179">
      <path
         d="m -290.0825,386.6786 h 595.276 v -841.89 h -595.276 z"
         id="path53181"
         style="stroke-width:0.999998" />
    </clipPath>
    <clipPath
       clipPathUnits="userSpaceOnUse"
       id="clipPath53185">
      <path
         d="m -290.7769,374.0624 h 595.276 v -841.89 h -595.276 z"
         id="path53187"
         style="stroke-width:0.999998" />
    </clipPath>
    <clipPath
       clipPathUnits="userSpaceOnUse"
       id="clipPath53191">
      <path
         d="m -286.2427,458.391 h 595.276 v -841.89 h -595.276 z"
         id="path53193"
         style="stroke-width:0.999998" />
    </clipPath>
    <clipPath
       clipPathUnits="userSpaceOnUse"
       id="clipPath53197">
      <path
         d="m -284.9038,483.6156 h 595.276 v -841.89 h -595.276 z"
         id="path53199"
         style="stroke-width:0.999998" />
    </clipPath>
    <clipPath
       clipPathUnits="userSpaceOnUse"
       id="clipPath53203">
      <path
         d="m -285.5806,471.0062 h 595.276 v -841.89 h -595.276 z"
         id="path53205"
         style="stroke-width:0.999998" />
    </clipPath>
    <clipPath
       clipPathUnits="userSpaceOnUse"
       id="clipPath53209">
      <path
         d="m -353.0566,551.4906 h 595.276 v -841.89 h -595.276 z"
         id="path53211"
         style="stroke-width:0.999998" />
    </clipPath>
    <clipPath
       clipPathUnits="userSpaceOnUse"
       id="clipPath53215">
      <path
         d="m -302.9355,361.2264 h 595.276 v -841.89 h -595.276 z"
         id="path53217"
         style="stroke-width:0.999998" />
    </clipPath>
    <clipPath
       clipPathUnits="userSpaceOnUse"
       id="clipPath53221">
      <path
         d="m -311.666,519.7777 h 595.27599 v -841.89 H -311.666 Z"
         id="path53223"
         style="stroke-width:0.999998" />
    </clipPath>
    <clipPath
       clipPathUnits="userSpaceOnUse"
       id="clipPath53227">
      <path
         d="m -304.2988,386.4735 h 595.276 v -841.89 h -595.276 z"
         id="path53229"
         style="stroke-width:0.999998" />
    </clipPath>
    <clipPath
       clipPathUnits="userSpaceOnUse"
       id="clipPath53233">
      <path
         d="m -303.6055,373.8583 h 595.276 v -841.89 h -595.276 z"
         id="path53235"
         style="stroke-width:0.999998" />
    </clipPath>
    <clipPath
       clipPathUnits="userSpaceOnUse"
       id="clipPath53239">
      <path
         d="m -308.1387,458.1879 h 595.276 v -841.89 h -595.276 z"
         id="path53241"
         style="stroke-width:0.999998" />
    </clipPath>
    <clipPath
       clipPathUnits="userSpaceOnUse"
       id="clipPath53245">
      <path
         d="m -309.4766,483.4105 h 595.27599 v -841.89 H -309.4766 Z"
         id="path53247"
         style="stroke-width:0.999998" />
    </clipPath>
    <clipPath
       clipPathUnits="userSpaceOnUse"
       id="clipPath53251">
      <path
         d="m -308.8008,470.8011 h 595.276 v -841.89 h -595.276 z"
         id="path53253"
         style="stroke-width:0.999998" />
    </clipPath>
    <clipPath
       clipPathUnits="userSpaceOnUse"
       id="clipPath53257">
      <path
         d="m -411.4883,361.2264 h 595.276 v -841.89 h -595.276 z"
         id="path53259"
         style="stroke-width:0.999998" />
    </clipPath>
    <clipPath
       clipPathUnits="userSpaceOnUse"
       id="clipPath53263">
      <path
         d="m -402.7539,519.7777 h 595.27599 v -841.89 H -402.7539 Z"
         id="path53265"
         style="stroke-width:0.999998" />
    </clipPath>
    <clipPath
       clipPathUnits="userSpaceOnUse"
       id="clipPath53269">
      <path
         d="m -410.127,386.4735 h 595.27599 v -841.89 H -410.127 Z"
         id="path53271"
         style="stroke-width:0.999998" />
    </clipPath>
    <clipPath
       clipPathUnits="userSpaceOnUse"
       id="clipPath53275">
      <path
         d="m -447.8203,467.8714 h 595.276 v -841.89 h -595.276 z"
         id="path53277"
         style="stroke-width:0.999998" />
    </clipPath>
    <clipPath
       clipPathUnits="userSpaceOnUse"
       id="clipPath53281">
      <path
         d="m -479.8711,326.1239 h 595.276 v -841.89 h -595.276 z"
         id="path53283"
         style="stroke-width:0.999998" />
    </clipPath>
    <clipPath
       clipPathUnits="userSpaceOnUse"
       id="clipPath53287">
      <path
         d="M -498.0313,354.8544 H 97.244695 v -841.89 H -498.0313 Z"
         id="path53289"
         style="stroke-width:0.999998" />
    </clipPath>
    <clipPath
       clipPathUnits="userSpaceOnUse"
       id="clipPath53293">
      <path
         d="m -231.478,219.119 h 595.27599 v -841.89 H -231.478 Z"
         id="path53295"
         style="stroke-width:0.999998" />
    </clipPath>
  </defs>
  <sodipodi:namedview
     id="namedview52240"
     pagecolor="#ffffff"
     bordercolor="#000000"
     borderopacity="0.25"
     inkscape:showpageshadow="2"
     inkscape:pageopacity="0.0"
     inkscape:pagecheckerboard="0"
     inkscape:deskcolor="#d1d1d1"
     showgrid="false"
     inkscape:zoom="0.21024124"
     inkscape:cx="-470.88764"
     inkscape:cy="561.26002"
     inkscape:window-width="1419"
     inkscape:window-height="456"
     inkscape:window-x="0"
     inkscape:window-y="25"
     inkscape:window-maximized="0"
     inkscape:current-layer="svg52238">
    <inkscape:page
       x="0"
       y="0"
       id="page52244"
       width="793.70135"
       height="793.70099" />
  </sodipodi:namedview>
  <path
     d="m 479.69,136.974 c -26.317,-8.424 -54.38,-12.972 -83.5,-12.972 -27.121,0 -53.328,3.941 -78.058,11.288 l 19.016,61.119 c 18.729,-5.463 38.544,-8.39 59.042,-8.39 22.021,0 43.273,3.384 63.232,9.662 z"
     style="fill:#231f20;fill-opacity:1;fill-rule:nonzero;stroke:none"
     id="path52258" />
  <path
     d="m 597.094,461.829 c 6.271,-19.967 9.659,-41.203 9.659,-63.236 0,-20.494 -2.93,-40.313 -8.391,-59.041 l 60.592,-18.804 c 7.14,24.429 10.978,50.269 10.978,77.012 0,29.306 -4.609,57.541 -13.133,84.014 z"
     style="fill:#231f20;fill-opacity:1;fill-rule:nonzero;stroke:none"
     id="path52262" />
  <path
     d="m 664.042,311.139 c 8.541,26.456 13.287,54.619 13.585,83.832 h 65.019 c -0.959,-93.103 -38.617,-177.408 -99.2,-239.124 l -45.581,45.596 c 21.204,21.784 38.917,47.004 52.216,74.743 l -63.757,31.808 c 3.752,7.868 7.036,16.004 9.804,24.368 z"
     style="fill:#231f20;fill-opacity:1;fill-rule:nonzero;stroke:none"
     id="path52266" />
  <path
     d="M 639.828,272.832 C 614.727,223.977 575.367,183.652 527.24,157.355 l -29.868,56.529 c 36.42,19.993 66.279,50.439 85.547,87.301"
     style="fill:#231f20;fill-opacity:1;fill-rule:nonzero;stroke:none"
     id="path52270" />
  <path
     d="m 523.984,146.931 c 25.287,12.909 48.357,29.527 68.508,49.137 l 45.573,-45.58 C 576.456,90.412 492.56,53.099 399.958,52.118 v 64.2 c 31.294,0.412 61.373,5.938 89.411,15.778 l -22.812,67.971 c 8.288,2.94 16.346,6.384 24.127,10.3 z"
     style="fill:#231f20;fill-opacity:1;fill-rule:nonzero;stroke:none"
     id="path52274" />
  <path
     d="m 308.637,130.159 c 26.4,-8.624 54.509,-13.456 83.693,-13.84 V 52.122 c -92.913,1.012 -177.05,38.601 -238.698,99.052 l 45.565,45.526 c 21.68,-21.254 46.797,-39.033 74.431,-52.414 l 31.946,64.173 c 7.868,-3.758 16.01,-7.04 24.379,-9.814 z"
     style="fill:#231f20;fill-opacity:1;fill-rule:nonzero;stroke:none"
     id="path52278" />
  <path
     d="m 661.711,491.339 c 9.817,-27.869 15.372,-57.752 15.891,-88.866 h 65.033 c -1.036,92.89 -38.629,177.014 -99.055,238.658 L 597.23,594.74 c 19.781,-20.193 36.549,-43.349 49.566,-68.742 l -62.407,-32.867 c 3.924,-7.795 7.377,-15.86 10.317,-24.164 z"
     style="fill:#231f20;fill-opacity:1;fill-rule:nonzero;stroke:none"
     id="path52282" />
  <path
     d="m 493.534,585.362 c 36.88,-19.265 67.349,-49.136 87.349,-85.562 l 55.599,29.185 c -26.246,47.948 -66.407,87.184 -115.057,112.262 z"
     style="fill:#231f20;fill-opacity:1;fill-rule:nonzero;stroke:none"
     id="path52286" />
  <path
     d="m 518.143,651.501 c 27.303,-13.145 52.167,-30.571 73.702,-51.404 l 46.383,46.377 c -61.621,60.204 -145.538,97.612 -238.243,98.597 v -65.873 c 29.077,-0.38 57.085,-5.173 83.393,-13.736 l -20.954,-66.928 c 8.367,-2.773 16.508,-6.049 24.375,-9.809 z"
     style="fill:#231f20;fill-opacity:1;fill-rule:nonzero;stroke:none"
     id="path52290" />
  <path
     d="m 303.549,663.633 c 27.86,9.705 57.705,15.153 88.781,15.565 V 745.07 C 299.338,744.054 215.111,706.398 153.451,645.849 l 46.416,-46.407 c 20.321,19.79 43.603,36.524 69.143,49.48 l 32.658,-62.111 c 7.782,3.916 15.844,7.361 24.128,10.306 z"
     style="fill:#231f20;fill-opacity:1;fill-rule:nonzero;stroke:none"
     id="path52294" />
  <path
     d="m 332.947,599.508 c 19.969,6.281 41.209,9.659 63.243,9.659 20.491,0 40.302,-2.935 59.046,-8.383 l 18.521,59.588 c -24.593,7.253 -50.622,11.149 -77.567,11.149 -28.918,0 -56.786,-4.489 -82.955,-12.794 z"
     style="fill:#231f20;fill-opacity:1;fill-rule:nonzero;stroke:none"
     id="path52298" />
  <path
     d="m 206.061,489.206 c -3.757,-7.872 -7.04,-16.019 -9.819,-24.396 l -67.443,21.12 C 120.14,459.643 115.255,431.641 114.784,402.553 H 49.7347 c 1.036,92.522 38.3293,176.33 98.3373,237.893 L 194.5,594.078 c -20.867,-21.44 -38.346,-46.169 -51.575,-73.353 z"
     style="fill:#231f20;fill-opacity:1;fill-rule:nonzero;stroke:none"
     id="path52302" />
  <path
     d="m 209.412,495.92 c 19.269,36.896 49.143,67.369 85.574,87.374 l -29.055,55.303 C 217.889,612.556 178.507,572.548 153.241,524.019 Z"
     style="fill:#231f20;fill-opacity:1;fill-rule:nonzero;stroke:none"
     id="path52306" />
  <path
     d="m 211.486,297.387 c 20.007,-36.429 50.472,-66.297 87.36,-85.562 L 270.259,154.621 C 221.47,179.949 181.265,219.534 155.17,267.859 Z"
     style="fill:#231f20;fill-opacity:1;fill-rule:nonzero;stroke:none"
     id="path52310" />
  <path
     d="m 197.664,328.215 c 2.951,-8.307 6.392,-16.375 10.316,-24.165 l -63.136,-33.132 c 12.844,-25.396 29.419,-48.583 49.004,-68.836 L 148.207,156.61 C 88.0696,218.238 50.7017,302.198 49.723,394.885 h 65.028 c 0.311,-31.227 5.709,-61.235 15.395,-89.235 z"
     style="fill:#231f20;fill-opacity:1;fill-rule:nonzero;stroke:none"
     id="path52314" />
  <path
     d="m 195.28,335.363 c -6.275,19.959 -9.664,41.196 -9.664,63.229 0,20.507 2.94,40.327 8.408,59.069 l -60.121,18.722 c -7.451,-24.904 -11.465,-51.299 -11.465,-78.624 0,-28.741 4.436,-56.444 12.651,-82.475 z"
     style="fill:#231f20;fill-opacity:1;fill-rule:nonzero;stroke:none"
     id="path52318" />
  <path
     d="m 310.686,573.592 5.457,6.524 5.458,-6.535 V 245.677 c -0.947,-0.024 -1.791,-0.056 -2.743,-0.07 l 0.011,13.706 c -0.006,0.681 -0.306,1.309 -0.796,1.761 -0.498,0.455 -1.192,0.732 -1.93,0.737 -1.518,0 -2.748,-1.122 -2.742,-2.498 l -0.011,-13.684 c -0.903,0.01 -1.801,0.024 -2.727,0.048 z"
     style="fill:#231f20;fill-opacity:1;fill-rule:nonzero;stroke:none"
     id="path52322" />
  <path
     d="m 243.856,319.907 59.939,30.307 -0.048,-39.403 -62.628,-41.401 z"
     style="fill:#231f20;fill-opacity:1;fill-rule:nonzero;stroke:none"
     id="path52326" />
  <path
     d="m 255.497,531.31 48.251,22.401 0.026,-36.48 -50.697,-25.176 z"
     style="fill:#231f20;fill-opacity:1;fill-rule:nonzero;stroke:none"
     id="path52330" />
  <path
     d="m 245.673,353.571 58.101,29.261 -0.017,-7.352 -58.501,-29.473 z"
     style="fill:#231f20;fill-opacity:1;fill-rule:nonzero;stroke:none"
     id="path52334" />
  <path
     d="m 244.748,336.75 59.052,29.785 v -7.316 l -59.447,-30.008 z"
     style="fill:#231f20;fill-opacity:1;fill-rule:nonzero;stroke:none"
     id="path52338" />
  <path
     d="m 250.794,449.188 52.959,26.451 v -83.862 l -57.608,-28.97 z"
     style="fill:#231f20;fill-opacity:1;fill-rule:nonzero;stroke:none"
     id="path52342" />
  <path
     d="m 252.579,482.821 51.2,25.437 -0.032,-7.353 -51.569,-25.652 z"
     style="fill:#231f20;fill-opacity:1;fill-rule:nonzero;stroke:none"
     id="path52346" />
  <path
     d="m 251.675,466.008 52.072,25.921 -0.011,-7.34 -52.478,-26.157 z"
     style="fill:#231f20;fill-opacity:1;fill-rule:nonzero;stroke:none"
     id="path52350" />
  <path
     d="m 388.594,319.907 2.737,-50.497 -62.628,41.401 -0.048,39.403 z"
     style="fill:#231f20;fill-opacity:1;fill-rule:nonzero;stroke:none"
     id="path52354" />
  <path
     d="m 376.947,531.31 2.427,-39.255 -50.698,25.176 0.027,36.48 z"
     style="fill:#231f20;fill-opacity:1;fill-rule:nonzero;stroke:none"
     id="path52358" />
  <path
     d="m 386.777,353.571 0.412,-7.564 -58.496,29.473 -0.016,7.352 z"
     style="fill:#231f20;fill-opacity:1;fill-rule:nonzero;stroke:none"
     id="path52362" />
  <path
     d="m 387.703,336.75 0.395,-7.539 -59.448,30.008 v 7.316 z"
     style="fill:#231f20;fill-opacity:1;fill-rule:nonzero;stroke:none"
     id="path52366" />
  <path
     d="m 381.657,449.188 4.649,-86.381 -57.609,28.97 v 83.862 z"
     style="fill:#231f20;fill-opacity:1;fill-rule:nonzero;stroke:none"
     id="path52370" />
  <path
     d="m 379.872,482.821 0.401,-7.568 -51.569,25.652 -0.032,7.353 z"
     style="fill:#231f20;fill-opacity:1;fill-rule:nonzero;stroke:none"
     id="path52374" />
  <path
     d="m 380.774,466.008 0.417,-7.576 -52.477,26.157 -0.011,7.34 z"
     style="fill:#231f20;fill-opacity:1;fill-rule:nonzero;stroke:none"
     id="path52378" />
  <path
     d="m 470.742,573.321 5.459,6.524 5.456,-6.535 V 245.404 c -0.946,-0.024 -1.79,-0.056 -2.743,-0.069 l 0.013,13.705 c -0.008,0.682 -0.305,1.31 -0.797,1.76 -0.497,0.455 -1.193,0.734 -1.929,0.739 -1.519,0 -2.748,-1.123 -2.743,-2.499 l -0.011,-13.684 c -0.902,0.011 -1.801,0.024 -2.726,0.048 z"
     style="fill:#231f20;fill-opacity:1;fill-rule:nonzero;stroke:none"
     id="path52382" />
  <path
     d="m 403.914,319.635 59.937,30.305 -0.046,-39.402 -62.628,-41.4 z"
     style="fill:#231f20;fill-opacity:1;fill-rule:nonzero;stroke:none"
     id="path52386" />
  <path
     d="m 415.555,531.037 48.251,22.401 0.025,-36.48 -50.697,-25.173 z"
     style="fill:#231f20;fill-opacity:1;fill-rule:nonzero;stroke:none"
     id="path52390" />
  <path
     d="m 405.732,353.298 58.099,29.261 -0.015,-7.35 -58.503,-29.474 z"
     style="fill:#231f20;fill-opacity:1;fill-rule:nonzero;stroke:none"
     id="path52394" />
  <path
     d="m 404.807,336.478 59.052,29.785 v -7.317 l -59.448,-30.007 z"
     style="fill:#231f20;fill-opacity:1;fill-rule:nonzero;stroke:none"
     id="path52398" />
  <path
     d="m 410.852,448.917 52.959,26.451 v -83.863 l -57.61,-28.97 z"
     style="fill:#231f20;fill-opacity:1;fill-rule:nonzero;stroke:none"
     id="path52402" />
  <path
     d="m 412.635,482.547 51.2,25.437 -0.031,-7.352 -51.57,-25.65 z"
     style="fill:#231f20;fill-opacity:1;fill-rule:nonzero;stroke:none"
     id="path52406" />
  <path
     d="m 411.734,465.735 52.071,25.924 -0.011,-7.343 -52.479,-26.154 z"
     style="fill:#231f20;fill-opacity:1;fill-rule:nonzero;stroke:none"
     id="path52410" />
  <path
     d="m 548.651,319.635 2.737,-50.497 -62.628,41.4 -0.046,39.402 z"
     style="fill:#231f20;fill-opacity:1;fill-rule:nonzero;stroke:none"
     id="path52414" />
  <path
     d="m 537.005,531.037 2.427,-39.252 -50.698,25.173 0.026,36.48 z"
     style="fill:#231f20;fill-opacity:1;fill-rule:nonzero;stroke:none"
     id="path52418" />
  <path
     d="m 546.836,353.298 0.412,-7.563 -58.497,29.474 -0.016,7.35 z"
     style="fill:#231f20;fill-opacity:1;fill-rule:nonzero;stroke:none"
     id="path52422" />
  <path
     d="m 547.76,336.478 0.396,-7.539 -59.448,30.007 v 7.317 z"
     style="fill:#231f20;fill-opacity:1;fill-rule:nonzero;stroke:none"
     id="path52426" />
  <path
     d="m 541.714,448.917 4.651,-86.382 -57.61,28.97 v 83.863 z"
     style="fill:#231f20;fill-opacity:1;fill-rule:nonzero;stroke:none"
     id="path52430" />
  <path
     d="m 539.93,482.547 0.401,-7.565 -51.57,25.65 -0.031,7.352 z"
     style="fill:#231f20;fill-opacity:1;fill-rule:nonzero;stroke:none"
     id="path52434" />
  <path
     d="m 540.833,465.735 0.417,-7.573 -52.48,26.154 -0.01,7.343 z"
     style="fill:#231f20;fill-opacity:1;fill-rule:nonzero;stroke:none"
     id="path52438" />
</svg>
