<?xml version="1.0" encoding="UTF-8" standalone="no"?>
<!-- Created with Inkscape (http://www.inkscape.org/) -->

<svg
   version="1.1"
   id="svg51514"
   width="793.70135"
   height="793.70099"
   viewBox="0 0 793.70135 793.70097"
   sodipodi:docname="Genjiwani Futatsukiritake.svg"
   inkscape:version="1.2 (dc2aeda, 2022-05-15)"
   xmlns:inkscape="http://www.inkscape.org/namespaces/inkscape"
   xmlns:sodipodi="http://sodipodi.sourceforge.net/DTD/sodipodi-0.dtd"
   xmlns="http://www.w3.org/2000/svg"
   xmlns:svg="http://www.w3.org/2000/svg">
  <defs
     id="defs51518">
    <clipPath
       clipPathUnits="userSpaceOnUse"
       id="clipPath51907">
      <path
         d="m -158.6138,344.5399 h 595.276 v -841.89 h -595.276 z"
         id="path51909"
         style="stroke-width:0.999998" />
    </clipPath>
    <clipPath
       clipPathUnits="userSpaceOnUse"
       id="clipPath51913">
      <path
         d="m -146.4595,373.0223 h 595.276 v -841.89 h -595.276 z"
         id="path51915"
         style="stroke-width:0.999998" />
    </clipPath>
    <clipPath
       clipPathUnits="userSpaceOnUse"
       id="clipPath51919">
      <path
         d="m -401.1338,415.9569 h 595.276 v -841.89 h -595.276 z"
         id="path51921"
         style="stroke-width:0.999998" />
    </clipPath>
    <clipPath
       clipPathUnits="userSpaceOnUse"
       id="clipPath51925">
      <path
         d="m -148.2476,367.661 h 595.276 v -841.89 h -595.276 z"
         id="path51927"
         style="stroke-width:0.999998" />
    </clipPath>
    <clipPath
       clipPathUnits="userSpaceOnUse"
       id="clipPath51931">
      <path
         d="m -157.0591,493.4398 h 595.276 v -841.89 h -595.276 z"
         id="path51933"
         style="stroke-width:0.999998" />
    </clipPath>
    <clipPath
       clipPathUnits="userSpaceOnUse"
       id="clipPath51937">
      <path
         d="m -392.9873,231.6981 h 595.276 v -841.89 h -595.276 z"
         id="path51939"
         style="stroke-width:0.999998" />
    </clipPath>
    <clipPath
       clipPathUnits="userSpaceOnUse"
       id="clipPath51943">
      <path
         d="m -249.709,571.1312 h 595.27599 v -841.89 H -249.709 Z"
         id="path51945"
         style="stroke-width:0.999998" />
    </clipPath>
    <clipPath
       clipPathUnits="userSpaceOnUse"
       id="clipPath51949">
      <path
         d="m -388.6064,610.1254 h 595.276 v -841.89 h -595.276 z"
         id="path51951"
         style="stroke-width:0.999998" />
    </clipPath>
    <clipPath
       clipPathUnits="userSpaceOnUse"
       id="clipPath51955">
      <path
         d="m -227.6616,619.225 h 595.276 v -841.89 h -595.276 z"
         id="path51957"
         style="stroke-width:0.999998" />
    </clipPath>
    <clipPath
       clipPathUnits="userSpaceOnUse"
       id="clipPath51961">
      <path
         d="m -498.0303,354.8544 h 595.276 v -841.89 h -595.276 z"
         id="path51963"
         style="stroke-width:0.999998" />
    </clipPath>
    <clipPath
       clipPathUnits="userSpaceOnUse"
       id="clipPath51967">
      <path
         d="m -370.1494,560.5218 h 595.276 v -841.89 h -595.276 z"
         id="path51969"
         style="stroke-width:0.999998" />
    </clipPath>
    <clipPath
       clipPathUnits="userSpaceOnUse"
       id="clipPath51973">
      <path
         d="m -154.5454,488.4046 h 595.276 v -841.89 h -595.276 z"
         id="path51975"
         style="stroke-width:0.999998" />
    </clipPath>
    <clipPath
       clipPathUnits="userSpaceOnUse"
       id="clipPath51979">
      <path
         d="m -231.478,219.1185 h 595.27599 v -841.89 H -231.478 Z"
         id="path51981"
         style="stroke-width:0.999998" />
    </clipPath>
    <clipPath
       clipPathUnits="userSpaceOnUse"
       id="clipPath51985">
      <path
         d="m -479.8701,326.1239 h 595.276 v -841.89 h -595.276 z"
         id="path51987"
         style="stroke-width:0.999998" />
    </clipPath>
    <clipPath
       clipPathUnits="userSpaceOnUse"
       id="clipPath51991">
      <path
         d="m -496.2822,490.0043 h 595.276 v -841.89 h -595.276 z"
         id="path51993"
         style="stroke-width:0.999998" />
    </clipPath>
    <clipPath
       clipPathUnits="userSpaceOnUse"
       id="clipPath51997">
      <path
         d="m -447.8193,467.8714 h 595.27599 v -841.89 H -447.8193 Z"
         id="path51999"
         style="stroke-width:0.999998" />
    </clipPath>
    <clipPath
       clipPathUnits="userSpaceOnUse"
       id="clipPath52003">
      <path
         d="m -401.1338,519.9496 h 595.276 v -841.89 h -595.276 z"
         id="path52005"
         style="stroke-width:0.999998" />
    </clipPath>
    <clipPath
       clipPathUnits="userSpaceOnUse"
       id="clipPath52009">
      <path
         d="m -359.7666,224.2298 h 595.276 v -841.89 h -595.276 z"
         id="path52011"
         style="stroke-width:0.999998" />
    </clipPath>
  </defs>
  <sodipodi:namedview
     id="namedview51516"
     pagecolor="#ffffff"
     bordercolor="#000000"
     borderopacity="0.25"
     inkscape:showpageshadow="2"
     inkscape:pageopacity="0.0"
     inkscape:pagecheckerboard="0"
     inkscape:deskcolor="#d1d1d1"
     showgrid="false"
     inkscape:zoom="0.21024124"
     inkscape:cx="-470.88764"
     inkscape:cy="561.26002"
     inkscape:window-width="1419"
     inkscape:window-height="456"
     inkscape:window-x="0"
     inkscape:window-y="25"
     inkscape:window-maximized="0"
     inkscape:current-layer="svg51514">
    <inkscape:page
       x="0"
       y="0"
       id="page51520"
       width="793.70135"
       height="793.70099" />
  </sodipodi:namedview>
  <path
     d="m 479.689,136.973 c -26.319,-8.424 -54.38,-12.972 -83.5,-12.972 -27.121,0 -53.328,3.941 -78.058,11.288 l 19.017,61.119 c 18.729,-5.463 38.543,-8.39 59.041,-8.39 22.021,0 43.273,3.384 63.232,9.662 z"
     style="fill:#231f20;fill-opacity:1;fill-rule:nonzero;stroke:none"
     id="path51534" />
  <path
     d="m 597.092,461.829 c 6.271,-19.967 9.659,-41.203 9.659,-63.236 0,-20.494 -2.928,-40.313 -8.392,-59.041 l 60.593,-18.804 c 7.14,24.429 10.977,50.269 10.977,77.012 0,29.306 -4.607,57.541 -13.133,84.014 z"
     style="fill:#231f20;fill-opacity:1;fill-rule:nonzero;stroke:none"
     id="path51538" />
  <path
     d="m 664.04,311.139 c 8.54,26.456 13.288,54.619 13.587,83.832 h 65.017 C 741.686,301.868 704.025,217.563 643.445,155.847 l -45.582,45.596 c 21.204,21.783 38.917,47.004 52.214,74.743 l -63.754,31.808 c 3.752,7.868 7.033,16.004 9.801,24.368 z"
     style="fill:#231f20;fill-opacity:1;fill-rule:nonzero;stroke:none"
     id="path51542" />
  <path
     d="m 639.827,272.832 c -25.1,-48.855 -64.461,-89.18 -112.588,-115.477 l -29.869,56.529 c 36.423,19.992 66.279,50.439 85.548,87.301"
     style="fill:#231f20;fill-opacity:1;fill-rule:nonzero;stroke:none"
     id="path51546" />
  <path
     d="m 523.983,146.931 c 25.288,12.909 48.357,29.527 68.508,49.137 l 45.572,-45.58 C 576.455,90.412 492.56,53.099 399.957,52.118 v 64.2 c 31.296,0.412 61.371,5.938 89.411,15.778 l -22.812,67.971 c 8.29,2.94 16.344,6.384 24.127,10.3 z"
     style="fill:#231f20;fill-opacity:1;fill-rule:nonzero;stroke:none"
     id="path51550" />
  <path
     d="m 308.637,130.158 c 26.399,-8.624 54.508,-13.456 83.692,-13.84 V 52.121 C 299.417,53.133 215.28,90.722 153.631,151.173 l 45.566,45.526 c 21.68,-21.254 46.796,-39.033 74.429,-52.414 l 31.948,64.173 c 7.868,-3.758 16.007,-7.04 24.379,-9.814 z"
     style="fill:#231f20;fill-opacity:1;fill-rule:nonzero;stroke:none"
     id="path51554" />
  <path
     d="m 661.71,491.339 c 9.819,-27.869 15.372,-57.752 15.891,-88.866 h 65.033 c -1.038,92.89 -38.628,177.014 -99.055,238.658 L 597.227,594.74 c 19.783,-20.193 36.55,-43.349 49.57,-68.742 l -62.408,-32.867 c 3.923,-7.795 7.376,-15.86 10.316,-24.164 z"
     style="fill:#231f20;fill-opacity:1;fill-rule:nonzero;stroke:none"
     id="path51558" />
  <path
     d="m 493.533,585.362 c 36.881,-19.265 67.348,-49.136 87.349,-85.562 l 55.599,29.185 c -26.244,47.948 -66.407,87.184 -115.057,112.262 z"
     style="fill:#231f20;fill-opacity:1;fill-rule:nonzero;stroke:none"
     id="path51562" />
  <path
     d="m 518.142,651.501 c 27.303,-13.145 52.167,-30.571 73.701,-51.404 l 46.385,46.377 c -61.622,60.204 -145.539,97.612 -238.244,98.597 v -65.873 c 29.077,-0.38 57.085,-5.173 83.394,-13.736 l -20.953,-66.928 c 8.364,-2.773 16.505,-6.049 24.373,-9.809 z"
     style="fill:#231f20;fill-opacity:1;fill-rule:nonzero;stroke:none"
     id="path51566" />
  <path
     d="m 303.549,663.633 c 27.857,9.705 57.705,15.153 88.78,15.565 v 65.872 c -92.992,-1.016 -177.218,-38.672 -238.88,-99.221 l 46.416,-46.407 c 20.323,19.79 43.605,36.524 69.144,49.48 l 32.659,-62.111 c 7.782,3.916 15.842,7.361 24.126,10.306 z"
     style="fill:#231f20;fill-opacity:1;fill-rule:nonzero;stroke:none"
     id="path51570" />
  <path
     d="m 332.945,599.508 c 19.971,6.281 41.211,9.659 63.244,9.659 20.492,0 40.301,-2.935 59.046,-8.383 l 18.52,59.588 c -24.593,7.253 -50.622,11.149 -77.566,11.149 -28.917,0 -56.787,-4.489 -82.956,-12.794 z"
     style="fill:#231f20;fill-opacity:1;fill-rule:nonzero;stroke:none"
     id="path51574" />
  <path
     d="m 206.061,489.206 c -3.757,-7.872 -7.04,-16.019 -9.819,-24.396 l -67.443,21.12 C 120.14,459.643 115.255,431.641 114.784,402.553 H 49.7347 c 1.0374,92.522 38.3293,176.33 98.3373,237.893 L 194.5,594.078 c -20.867,-21.44 -38.346,-46.169 -51.575,-73.353 z"
     style="fill:#231f20;fill-opacity:1;fill-rule:nonzero;stroke:none"
     id="path51578" />
  <path
     d="m 209.412,495.92 c 19.268,36.896 49.141,67.369 85.574,87.374 l -29.055,55.303 C 217.888,612.556 178.507,572.548 153.241,524.019 Z"
     style="fill:#231f20;fill-opacity:1;fill-rule:nonzero;stroke:none"
     id="path51582" />
  <path
     d="m 211.485,297.387 c 20.007,-36.429 50.473,-66.297 87.361,-85.564 L 270.26,154.621 c -48.79,25.328 -88.995,64.913 -115.09,113.238 z"
     style="fill:#231f20;fill-opacity:1;fill-rule:nonzero;stroke:none"
     id="path51586" />
  <path
     d="m 197.663,328.215 c 2.951,-8.307 6.392,-16.375 10.316,-24.165 l -63.136,-33.132 c 12.844,-25.397 29.419,-48.584 49.004,-68.836 L 148.206,156.609 C 88.0686,218.238 50.7007,302.198 49.722,394.885 h 65.028 c 0.311,-31.227 5.709,-61.235 15.395,-89.235 z"
     style="fill:#231f20;fill-opacity:1;fill-rule:nonzero;stroke:none"
     id="path51590" />
  <path
     d="m 195.279,335.363 c -6.275,19.959 -9.664,41.196 -9.664,63.229 0,20.507 2.94,40.327 8.408,59.069 l -60.121,18.722 c -7.451,-24.904 -11.465,-51.299 -11.465,-78.624 0,-28.741 4.437,-56.444 12.651,-82.475 z"
     style="fill:#231f20;fill-opacity:1;fill-rule:nonzero;stroke:none"
     id="path51594" />
  <path
     d="M 534.845,392.609 H 257.528 l 37.63,-65.224 -37.63,-65.225 h 277.317 l -37.631,65.222 z"
     style="fill:#231f20;fill-opacity:1;fill-rule:nonzero;stroke:none"
     id="path51598" />
  <path
     d="M 534.845,531.266 H 257.528 l 37.63,-65.224 -37.63,-65.226 h 277.317 l -37.631,65.223 z"
     style="fill:#231f20;fill-opacity:1;fill-rule:nonzero;stroke:none"
     id="path51602" />
</svg>
