<?xml version="1.0" encoding="UTF-8" standalone="no"?>
<!-- Created with Inkscape (http://www.inkscape.org/) -->

<svg
   version="1.1"
   id="svg55638"
   width="793.70135"
   height="793.70099"
   viewBox="0 0 793.70135 793.70097"
   sodipodi:docname="Genjigurumani Narabikiritake.svg"
   inkscape:version="1.2 (dc2aeda, 2022-05-15)"
   xmlns:inkscape="http://www.inkscape.org/namespaces/inkscape"
   xmlns:sodipodi="http://sodipodi.sourceforge.net/DTD/sodipodi-0.dtd"
   xmlns="http://www.w3.org/2000/svg"
   xmlns:svg="http://www.w3.org/2000/svg">
  <defs
     id="defs55642">
    <clipPath
       clipPathUnits="userSpaceOnUse"
       id="clipPath56023">
      <path
         d="m -392.0303,233.5863 h 595.276 v -841.89 h -595.276 z"
         id="path56025"
         style="stroke-width:0.999998" />
    </clipPath>
    <clipPath
       clipPathUnits="userSpaceOnUse"
       id="clipPath56029">
      <path
         d="m -478.0352,327.0633 h 595.276 v -841.89 h -595.276 z"
         id="path56031"
         style="stroke-width:0.999998" />
    </clipPath>
    <clipPath
       clipPathUnits="userSpaceOnUse"
       id="clipPath56035">
      <path
         d="m -147.9746,373.4886 h 595.276 v -841.89 h -595.276 z"
         id="path56037"
         style="stroke-width:0.999998" />
    </clipPath>
    <clipPath
       clipPathUnits="userSpaceOnUse"
       id="clipPath56041">
      <path
         d="m -359.1387,226.1962 h 595.276 v -841.89 h -595.276 z"
         id="path56043"
         style="stroke-width:0.999998" />
    </clipPath>
    <clipPath
       clipPathUnits="userSpaceOnUse"
       id="clipPath56047">
      <path
         d="m -158.4702,492.6957 h 595.276 v -841.89 h -595.276 z"
         id="path56049"
         style="stroke-width:0.999998" />
    </clipPath>
    <clipPath
       clipPathUnits="userSpaceOnUse"
       id="clipPath56054">
      <path
         d="m -155.9761,487.7152 h 595.276 v -841.89 h -595.276 z"
         id="path56056"
         style="stroke-width:0.999998" />
    </clipPath>
    <clipPath
       clipPathUnits="userSpaceOnUse"
       id="clipPath56060">
      <path
         d="m -387.6924,608.2211 h 595.276 v -841.89 h -595.276 z"
         id="path56062"
         style="stroke-width:0.999998" />
    </clipPath>
    <clipPath
       clipPathUnits="userSpaceOnUse"
       id="clipPath56067">
      <path
         d="m -250.1914,569.6166 h 595.276 v -841.89 h -595.276 z"
         id="path56069"
         style="stroke-width:0.999998" />
    </clipPath>
    <clipPath
       clipPathUnits="userSpaceOnUse"
       id="clipPath56073">
      <path
         d="m -496.0107,355.5033 h 595.276 v -841.89 h -595.276 z"
         id="path56075"
         style="stroke-width:0.999998" />
    </clipPath>
    <clipPath
       clipPathUnits="userSpaceOnUse"
       id="clipPath56079">
      <path
         d="m -446.3018,467.3841 h 595.276 v -841.89 h -595.276 z"
         id="path56081"
         style="stroke-width:0.999998" />
    </clipPath>
    <clipPath
       clipPathUnits="userSpaceOnUse"
       id="clipPath56085">
      <path
         d="m -160.0132,345.2933 h 595.276 v -841.89 h -595.276 z"
         id="path56087"
         style="stroke-width:0.999998" />
    </clipPath>
    <clipPath
       clipPathUnits="userSpaceOnUse"
       id="clipPath56091">
      <path
         d="m -232.1436,221.1351 h 595.276 v -841.89 h -595.276 z"
         id="path56093"
         style="stroke-width:0.999998" />
    </clipPath>
    <clipPath
       clipPathUnits="userSpaceOnUse"
       id="clipPath56097">
      <path
         d="m -369.4131,559.1039 h 595.276 v -841.89 h -595.276 z"
         id="path56099"
         style="stroke-width:0.999998" />
    </clipPath>
    <clipPath
       clipPathUnits="userSpaceOnUse"
       id="clipPath56103">
      <path
         d="m -494.2861,489.2962 h 595.276 v -841.89 h -595.276 z"
         id="path56105"
         style="stroke-width:0.999998" />
    </clipPath>
    <clipPath
       clipPathUnits="userSpaceOnUse"
       id="clipPath56109">
      <path
         d="m -149.7466,368.183 h 595.276 v -841.89 h -595.276 z"
         id="path56111"
         style="stroke-width:0.999998" />
    </clipPath>
    <clipPath
       clipPathUnits="userSpaceOnUse"
       id="clipPath56115">
      <path
         d="m -228.3594,617.2289 h 595.276 v -841.89 h -595.276 z"
         id="path56117"
         style="stroke-width:0.999998" />
    </clipPath>
  </defs>
  <sodipodi:namedview
     id="namedview55640"
     pagecolor="#ffffff"
     bordercolor="#000000"
     borderopacity="0.25"
     inkscape:showpageshadow="2"
     inkscape:pageopacity="0.0"
     inkscape:pagecheckerboard="0"
     inkscape:deskcolor="#d1d1d1"
     showgrid="false"
     inkscape:zoom="0.21024124"
     inkscape:cx="-470.88764"
     inkscape:cy="561.26002"
     inkscape:window-width="1419"
     inkscape:window-height="456"
     inkscape:window-x="0"
     inkscape:window-y="25"
     inkscape:window-maximized="0"
     inkscape:current-layer="svg55638">
    <inkscape:page
       x="0"
       y="0"
       id="page55644"
       width="793.70135"
       height="793.70099" />
  </sodipodi:namedview>
  <path
     d="m 478.852,141.595 c -26.057,-8.347 -53.836,-12.844 -82.661,-12.844 -26.844,0 -52.783,3.904 -77.279,11.177 l 18.831,60.5 c 18.536,-5.406 38.157,-8.304 58.448,-8.304 21.797,0 42.834,3.35 62.6,9.566 z"
     style="fill:#231f20;fill-opacity:1;fill-rule:nonzero;stroke:none"
     id="path55658" />
  <path
     d="m 595.069,463.179 c 6.211,-19.765 9.573,-40.788 9.573,-62.597 0,-20.291 -2.909,-39.907 -8.313,-58.448 l 59.984,-18.617 c 7.064,24.189 10.87,49.77 10.87,76.239 0,29.015 -4.558,56.963 -13.003,83.171 z"
     style="fill:#231f20;fill-opacity:1;fill-rule:nonzero;stroke:none"
     id="path55662" />
  <path
     d="m 661.348,314.004 c 8.461,26.195 13.148,54.073 13.448,82.993 H 739.16 C 738.22,304.829 700.932,221.372 640.961,160.276 l -45.122,45.139 c 20.984,21.561 38.528,46.532 51.697,73.988 l -63.12,31.488 c 3.715,7.79 6.96,15.842 9.702,24.125 z"
     style="fill:#231f20;fill-opacity:1;fill-rule:nonzero;stroke:none"
     id="path55666" />
  <path
     d="M 637.38,276.084 C 612.531,227.72 573.565,187.803 525.914,161.77 l -29.559,55.959 c 36.053,19.794 65.616,49.931 84.688,86.424 z"
     style="fill:#231f20;fill-opacity:1;fill-rule:nonzero;stroke:none"
     id="path55670" />
  <path
     d="m 522.707,151.448 c 25.027,12.78 47.869,29.229 67.806,48.645 l 45.123,-45.122 C 574.65,95.493 491.599,58.562 399.926,57.59 v 63.554 c 30.976,0.407 60.757,5.877 88.509,15.621 l -22.589,67.287 c 8.21,2.907 16.185,6.32 23.892,10.196 z"
     style="fill:#231f20;fill-opacity:1;fill-rule:nonzero;stroke:none"
     id="path55674" />
  <path
     d="m 309.525,134.847 c 26.127,-8.539 53.959,-13.325 82.849,-13.701 V 57.59 c -91.988,1.005 -175.275,38.22 -236.306,98.057 l 45.108,45.069 c 21.46,-21.037 46.336,-38.638 73.681,-51.884 l 31.633,63.525 c 7.782,-3.72 15.842,-6.966 24.138,-9.713 z"
     style="fill:#231f20;fill-opacity:1;fill-rule:nonzero;stroke:none"
     id="path55678" />
  <path
     d="m 659.048,492.395 c 9.717,-27.591 15.212,-57.167 15.725,-87.973 h 64.376 c -1.025,91.956 -38.238,175.237 -98.054,236.278 l -45.888,-45.932 c 19.574,-20.004 36.181,-42.925 49.068,-68.064 l -61.777,-32.537 c 3.88,-7.712 7.305,-15.695 10.213,-23.921 z"
     style="fill:#231f20;fill-opacity:1;fill-rule:nonzero;stroke:none"
     id="path55682" />
  <path
     d="m 492.551,585.472 c 36.517,-19.072 66.68,-48.64 86.472,-84.7 l 55.044,28.889 c -25.979,47.467 -65.746,86.323 -113.904,111.146 z"
     style="fill:#231f20;fill-opacity:1;fill-rule:nonzero;stroke:none"
     id="path55686" />
  <path
     d="m 516.923,650.961 c 27.025,-13.021 51.635,-30.273 72.956,-50.889 l 45.918,45.918 c -61.003,59.582 -144.075,96.623 -235.855,97.607 v -65.225 c 28.788,-0.376 56.518,-5.111 82.564,-13.599 l -20.743,-66.257 c 8.273,-2.738 16.34,-5.984 24.128,-9.723 z"
     style="fill:#231f20;fill-opacity:1;fill-rule:nonzero;stroke:none"
     id="path55690" />
  <path
     d="m 304.479,662.972 c 27.581,9.605 57.128,14.993 87.894,15.4 v 65.225 C 300.315,742.586 216.926,705.305 155.886,645.36 l 45.957,-45.945 c 20.108,19.594 43.167,36.164 68.449,48.981 l 32.338,-61.497 c 7.686,3.879 15.677,7.304 23.881,10.222 z"
     style="fill:#231f20;fill-opacity:1;fill-rule:nonzero;stroke:none"
     id="path55694" />
  <path
     d="m 333.589,599.489 c 19.765,6.221 40.793,9.563 62.601,9.563 20.284,0 39.895,-2.908 58.453,-8.296 l 18.334,58.988 c -24.342,7.167 -50.115,11.043 -76.787,11.043 -28.617,0 -56.208,-4.458 -82.122,-12.667 z"
     style="fill:#231f20;fill-opacity:1;fill-rule:nonzero;stroke:none"
     id="path55698" />
  <path
     d="m 207.968,490.287 c -3.72,-7.796 -6.959,-15.86 -9.717,-24.155 l -66.764,20.91 c -8.569,-26.024 -13.407,-53.743 -13.881,-82.54 H 53.2191 c 1.0213,91.592 37.9492,174.561 97.3439,235.507 l 45.966,-45.898 c -20.652,-21.236 -37.96,-45.716 -51.056,-72.625 z"
     style="fill:#231f20;fill-opacity:1;fill-rule:nonzero;stroke:none"
     id="path55702" />
  <path
     d="m 211.294,496.928 c 19.076,36.521 48.649,66.696 84.713,86.493 l -28.761,54.765 C 219.674,612.402 180.687,572.793 155.678,524.747 Z"
     style="fill:#231f20;fill-opacity:1;fill-rule:nonzero;stroke:none"
     id="path55706" />
  <path
     d="m 213.351,300.391 c 19.804,-36.06 49.96,-65.629 86.468,-84.7 l -28.297,-56.632 c -48.288,25.078 -88.098,64.264 -113.936,112.103 z"
     style="fill:#231f20;fill-opacity:1;fill-rule:nonzero;stroke:none"
     id="path55710" />
  <path
     d="m 199.662,330.911 c 2.919,-8.223 6.324,-16.211 10.209,-23.924 l -62.5,-32.8 c 12.716,-25.14 29.126,-48.092 48.507,-68.141 L 150.702,161.033 C 91.1689,222.042 54.181,305.154 53.2077,396.91 h 64.3703 c 0.316,-30.911 5.65,-60.619 15.239,-88.336 z"
     style="fill:#231f20;fill-opacity:1;fill-rule:nonzero;stroke:none"
     id="path55714" />
  <path
     d="m 197.299,337.985 c -6.211,19.763 -9.568,40.785 -9.568,62.596 0,20.301 2.908,39.922 8.328,58.474 l -59.517,18.528 c -7.381,-24.648 -11.348,-50.78 -11.348,-77.827 0,-28.452 4.384,-55.878 12.518,-81.643 z"
     style="fill:#231f20;fill-opacity:1;fill-rule:nonzero;stroke:none"
     id="path55718" />
  <path
     d="M 400.51946,550.82734 V 250.35535 l 63.456,37.63066 63.45733,-37.63066 v 300.47199 l -63.45733,-37.62933 z"
     style="fill:#231f20;fill-opacity:1;fill-rule:nonzero;stroke:none;stroke-width:1.33333"
     id="path55722" />
  <path
     d="M 264.94079,550.82734 V 250.35535 l 63.452,37.63066 63.456,-37.63066 v 300.47199 l -63.456,-37.62933 z"
     style="fill:#231f20;fill-opacity:1;fill-rule:nonzero;stroke:none;stroke-width:1.33333"
     id="path55726" />
</svg>
