<?xml version="1.0" encoding="UTF-8" standalone="no"?>
<!-- Created with Inkscape (http://www.inkscape.org/) -->

<svg
   version="1.1"
   id="svg50850"
   width="793.70135"
   height="793.70099"
   viewBox="0 0 793.70135 793.70097"
   sodipodi:docname="Genjiwa.svg"
   inkscape:version="1.2 (dc2aeda, 2022-05-15)"
   xmlns:inkscape="http://www.inkscape.org/namespaces/inkscape"
   xmlns:sodipodi="http://sodipodi.sourceforge.net/DTD/sodipodi-0.dtd"
   xmlns="http://www.w3.org/2000/svg"
   xmlns:svg="http://www.w3.org/2000/svg">
  <defs
     id="defs50854">
    <clipPath
       clipPathUnits="userSpaceOnUse"
       id="clipPath51215">
      <path
         d="m -449.6797,468.4545 h 595.276 v -841.89 h -595.276 z"
         id="path51217"
         style="stroke-width:0.999998" />
    </clipPath>
    <clipPath
       clipPathUnits="userSpaceOnUse"
       id="clipPath51221">
      <path
         d="m -360.541,221.8041 h 595.276 v -841.89 h -595.276 z"
         id="path51223"
         style="stroke-width:0.999998" />
    </clipPath>
    <clipPath
       clipPathUnits="userSpaceOnUse"
       id="clipPath51227">
      <path
         d="M -226.8037,621.68 H 368.47229 V -220.21 H -226.8037 Z"
         id="path51229"
         style="stroke-width:0.999998" />
    </clipPath>
    <clipPath
       clipPathUnits="userSpaceOnUse"
       id="clipPath51233">
      <path
         d="m -152.7813,489.2435 h 595.276 v -841.89 h -595.276 z"
         id="path51235"
         style="stroke-width:0.999998" />
    </clipPath>
    <clipPath
       clipPathUnits="userSpaceOnUse"
       id="clipPath51239">
      <path
         d="M -498.7393,490.8636 H 96.536695 v -841.89 H -498.7393 Z"
         id="path51241"
         style="stroke-width:0.999998" />
    </clipPath>
    <clipPath
       clipPathUnits="userSpaceOnUse"
       id="clipPath51245">
      <path
         d="m -156.9023,343.6009 h 595.276 v -841.89 h -595.276 z"
         id="path51247"
         style="stroke-width:0.999998" />
    </clipPath>
    <clipPath
       clipPathUnits="userSpaceOnUse"
       id="clipPath51251">
      <path
         d="m -155.3267,494.3412 h 595.276 v -841.89 h -595.276 z"
         id="path51253"
         style="stroke-width:0.999998" />
    </clipPath>
    <clipPath
       clipPathUnits="userSpaceOnUse"
       id="clipPath51257">
      <path
         d="m -230.6641,216.6302 h 595.27599 v -841.89 H -230.6641 Z"
         id="path51259"
         style="stroke-width:0.999998" />
    </clipPath>
    <clipPath
       clipPathUnits="userSpaceOnUse"
       id="clipPath51263">
      <path
         d="M -500.5078,354.0433 H 94.768195 v -841.89 H -500.5078 Z"
         id="path51265"
         style="stroke-width:0.999998" />
    </clipPath>
    <clipPath
       clipPathUnits="userSpaceOnUse"
       id="clipPath51269">
      <path
         d="m -394.1709,229.3646 h 595.276 v -841.89 h -595.276 z"
         id="path51271"
         style="stroke-width:0.999998" />
    </clipPath>
    <clipPath
       clipPathUnits="userSpaceOnUse"
       id="clipPath51275">
      <path
         d="m -482.127,324.9574 h 595.276 v -841.89 h -595.276 z"
         id="path51277"
         style="stroke-width:0.999998" />
    </clipPath>
    <clipPath
       clipPathUnits="userSpaceOnUse"
       id="clipPath51281">
      <path
         d="m -249.1201,572.9896 h 595.27599 v -841.89 H -249.1201 Z"
         id="path51283"
         style="stroke-width:0.999998" />
    </clipPath>
    <clipPath
       clipPathUnits="userSpaceOnUse"
       id="clipPath51287">
      <path
         d="m -371.0479,562.2523 h 595.276 v -841.89 h -595.276 z"
         id="path51289"
         style="stroke-width:0.999998" />
    </clipPath>
    <clipPath
       clipPathUnits="userSpaceOnUse"
       id="clipPath51293">
      <path
         d="m -146.4072,367.0082 h 595.27599 v -841.89 H -146.4072 Z"
         id="path51295"
         style="stroke-width:0.999998" />
    </clipPath>
    <clipPath
       clipPathUnits="userSpaceOnUse"
       id="clipPath51299">
      <path
         d="m -144.5952,372.4359 h 595.27599 v -841.89 H -144.5952 Z"
         id="path51301"
         style="stroke-width:0.999998" />
    </clipPath>
    <clipPath
       clipPathUnits="userSpaceOnUse"
       id="clipPath51305">
      <path
         d="m -389.7324,612.4681 h 595.276 v -841.89 h -595.276 z"
         id="path51307"
         style="stroke-width:0.999998" />
    </clipPath>
  </defs>
  <sodipodi:namedview
     id="namedview50852"
     pagecolor="#ffffff"
     bordercolor="#000000"
     borderopacity="0.25"
     inkscape:showpageshadow="2"
     inkscape:pageopacity="0.0"
     inkscape:pagecheckerboard="0"
     inkscape:deskcolor="#d1d1d1"
     showgrid="false"
     inkscape:zoom="0.21024124"
     inkscape:cx="-470.88764"
     inkscape:cy="561.26002"
     inkscape:window-width="1419"
     inkscape:window-height="456"
     inkscape:window-x="0"
     inkscape:window-y="25"
     inkscape:window-maximized="0"
     inkscape:current-layer="svg50850">
    <inkscape:page
       x="0"
       y="0"
       id="page50856"
       width="793.70135"
       height="793.70099" />
  </sodipodi:namedview>
  <path
     d="m 480.721,131.739 c -26.651,-8.528 -55.055,-13.133 -84.537,-13.133 -27.452,0 -53.985,3.993 -79.021,11.43 l 19.253,61.872 c 18.963,-5.53 39.017,-8.493 59.768,-8.493 22.298,0 43.808,3.425 64.01,9.781 z"
     style="fill:#231f20;fill-opacity:1;fill-rule:nonzero;stroke:none"
     id="path50870" />
  <path
     d="m 599.573,460.606 c 6.351,-20.209 9.783,-41.709 9.783,-64.016 0,-20.748 -2.974,-40.808 -8.499,-59.77 l 61.34,-19.036 c 7.232,24.732 11.117,50.89 11.117,77.962 0,29.671 -4.672,58.253 -13.298,85.055 z"
     style="fill:#231f20;fill-opacity:1;fill-rule:nonzero;stroke:none"
     id="path50874" />
  <path
     d="m 667.344,308.058 c 8.653,26.781 13.453,55.292 13.757,84.865 h 65.825 C 745.953,298.673 707.827,213.325 646.497,150.848 l -46.142,46.157 c 21.464,22.053 39.393,47.586 52.861,75.666 l -64.546,32.202 c 3.796,7.964 7.12,16.201 9.925,24.669 z"
     style="fill:#231f20;fill-opacity:1;fill-rule:nonzero;stroke:none"
     id="path50878" />
  <path
     d="M 642.836,269.277 C 617.425,219.82 577.579,178.995 528.859,152.373 L 498.616,209.6 c 36.871,20.24 67.102,51.061 86.607,88.38"
     style="fill:#231f20;fill-opacity:1;fill-rule:nonzero;stroke:none"
     id="path50882" />
  <path
     d="m 525.561,141.819 c 25.596,13.068 48.955,29.892 69.352,49.747 L 641.05,145.42 C 578.685,84.603 493.753,46.827 400,45.835 v 64.993 c 31.685,0.416 62.132,6.011 90.518,15.974 l -23.096,68.809 c 8.396,2.977 16.55,6.464 24.427,10.428 z"
     style="fill:#231f20;fill-opacity:1;fill-rule:nonzero;stroke:none"
     id="path50886" />
  <path
     d="m 307.552,124.84 c 26.725,-8.731 55.183,-13.621 84.729,-14.012 V 45.838 C 298.22,46.864 213.04,84.916 150.627,146.113 l 46.133,46.088 c 21.947,-21.516 47.377,-39.513 75.349,-53.06 l 32.343,64.965 c 7.963,-3.801 16.205,-7.128 24.679,-9.933 z"
     style="fill:#231f20;fill-opacity:1;fill-rule:nonzero;stroke:none"
     id="path50890" />
  <path
     d="m 664.986,490.485 c 9.943,-28.217 15.565,-58.468 16.089,-89.965 h 65.84 c -1.053,94.036 -39.109,179.201 -100.284,241.606 l -46.918,-46.967 c 20.022,-20.44 36.998,-43.882 50.18,-69.59 l -63.179,-33.273 c 3.967,-7.89 7.462,-16.054 10.444,-24.463 z"
     style="fill:#231f20;fill-opacity:1;fill-rule:nonzero;stroke:none"
     id="path50894" />
  <path
     d="m 494.731,585.67 c 37.34,-19.505 68.181,-49.745 88.428,-86.622 l 56.289,29.546 c -26.565,48.543 -67.225,88.261 -116.478,113.651 z"
     style="fill:#231f20;fill-opacity:1;fill-rule:nonzero;stroke:none"
     id="path50898" />
  <path
     d="m 519.643,652.624 c 27.644,-13.309 52.815,-30.948 74.617,-52.039 l 46.957,46.951 C 578.83,708.48 493.875,746.354 400.033,747.349 v -66.685 c 29.429,-0.385 57.79,-5.237 84.418,-13.908 l -21.215,-67.755 c 8.474,-2.805 16.715,-6.125 24.679,-9.93 z"
     style="fill:#231f20;fill-opacity:1;fill-rule:nonzero;stroke:none"
     id="path50902" />
  <path
     d="m 302.405,664.907 c 28.2,9.824 58.416,15.34 89.876,15.757 v 66.685 c -94.147,-1.026 -179.41,-39.146 -241.83,-100.445 l 46.982,-46.981 c 20.579,20.032 44.151,36.976 70,50.093 l 33.063,-62.882 c 7.88,3.964 16.036,7.455 24.428,10.436 z"
     style="fill:#231f20;fill-opacity:1;fill-rule:nonzero;stroke:none"
     id="path50906" />
  <path
     d="m 332.16,599.986 c 20.215,6.361 41.724,9.781 64.024,9.781 20.749,0 40.804,-2.972 59.778,-8.488 l 18.751,60.324 c -24.897,7.345 -51.248,11.289 -78.529,11.289 -29.275,0 -57.487,-4.544 -83.983,-12.957 z"
     style="fill:#231f20;fill-opacity:1;fill-rule:nonzero;stroke:none"
     id="path50910" />
  <path
     d="m 203.708,488.325 c -3.805,-7.969 -7.131,-16.216 -9.936,-24.699 l -68.284,21.383 C 116.723,458.396 111.779,430.049 111.303,400.6 H 45.4471 c 1.052,93.666 38.8052,178.511 99.5569,240.831 l 46.999,-46.94 c -21.124,-21.704 -38.816,-46.739 -52.211,-74.258 z"
     style="fill:#231f20;fill-opacity:1;fill-rule:nonzero;stroke:none"
     id="path50914" />
  <path
     d="m 207.102,495.122 c 19.504,37.352 49.747,68.202 86.626,88.452 L 264.322,639.56 C 215.681,613.199 175.818,572.695 150.237,523.569 Z"
     style="fill:#231f20;fill-opacity:1;fill-rule:nonzero;stroke:none"
     id="path50918" />
  <path
     d="m 209.203,294.135 c 20.252,-36.879 51.093,-67.116 88.433,-86.622 l -28.932,-57.907 c -49.394,25.639 -90.096,65.715 -116.517,114.637 z"
     style="fill:#231f20;fill-opacity:1;fill-rule:nonzero;stroke:none"
     id="path50922" />
  <path
     d="m 195.21,325.344 c 2.983,-8.411 6.468,-16.579 10.444,-24.465 l -63.916,-33.54 c 13,-25.712 29.783,-49.185 49.603,-69.689 L 145.138,151.616 C 84.2583,214.007 46.4317,299.003 45.4424,392.838 h 65.8296 c 0.309,-31.615 5.777,-61.991 15.586,-90.339 z"
     style="fill:#231f20;fill-opacity:1;fill-rule:nonzero;stroke:none"
     id="path50926" />
  <path
     d="m 192.794,332.581 c -6.349,20.204 -9.781,41.704 -9.781,64.009 0,20.76 2.972,40.829 8.509,59.797 l -60.864,18.954 c -7.541,-25.21 -11.604,-51.932 -11.604,-79.595 0,-29.096 4.49,-57.141 12.807,-83.492 z"
     style="fill:#231f20;fill-opacity:1;fill-rule:nonzero;stroke:none"
     id="path50930" />
</svg>
