<?xml version="1.0" encoding="UTF-8" standalone="no"?>
<!-- Created with Inkscape (http://www.inkscape.org/) -->

<svg
   version="1.1"
   id="svg53802"
   width="793.70135"
   height="793.70099"
   viewBox="0 0 793.70135 793.70097"
   sodipodi:docname="Kage Genjiguruma.svg"
   inkscape:version="1.2 (dc2aeda, 2022-05-15)"
   xmlns:inkscape="http://www.inkscape.org/namespaces/inkscape"
   xmlns:sodipodi="http://sodipodi.sourceforge.net/DTD/sodipodi-0.dtd"
   xmlns="http://www.w3.org/2000/svg"
   xmlns:svg="http://www.w3.org/2000/svg">
  <defs
     id="defs53806">
    <clipPath
       clipPathUnits="userSpaceOnUse"
       id="clipPath53957">
      <path
         d="m -482.8926,599.6576 h 595.276 v -841.89 h -595.276 z"
         id="path53959"
         style="stroke-width:0.999998" />
    </clipPath>
  </defs>
  <sodipodi:namedview
     id="namedview53804"
     pagecolor="#ffffff"
     bordercolor="#000000"
     borderopacity="0.25"
     inkscape:showpageshadow="2"
     inkscape:pageopacity="0.0"
     inkscape:pagecheckerboard="0"
     inkscape:deskcolor="#d1d1d1"
     showgrid="false"
     inkscape:zoom="0.21024124"
     inkscape:cx="-470.88764"
     inkscape:cy="561.26002"
     inkscape:window-width="1419"
     inkscape:window-height="456"
     inkscape:window-x="0"
     inkscape:window-y="25"
     inkscape:window-maximized="0"
     inkscape:current-layer="svg53802">
    <inkscape:page
       x="0"
       y="0"
       id="page53808"
       width="793.70135"
       height="793.70099" />
  </sodipodi:namedview>
  <path
     d="m 643.857,639.543 -39.948,-39.961 c 18.492,-19.515 33.737,-41.003 45.693,-63.755 l 3.823,-7.265 -64.024,-33.615 c 2.753,-5.75 5.235,-11.581 7.461,-17.497 l 68.542,22.968 2.57,-7.817 c 8.974,-27.091 13.784,-55.273 14.464,-83.524 l 56.731,-0.033 c -1.807,83.231 -33.549,165.914 -95.312,230.499 M 402.358,744.691 v -56.508 c 26.88,-0.721 52.851,-5.137 77.395,-12.771 l 7.842,-2.432 -21.503,-69.041 c 6.008,-2.123 11.888,-4.489 17.648,-7.104 l 32.221,64.713 7.35,-3.708 c 25.5,-12.813 48.828,-29.338 69.289,-48.833 l 40.134,40.088 c -60.131,57.576 -141.041,93.596 -230.376,95.596 m -85.97,-85.088 17.82,-53.375 c 38.346,11.266 79.196,11.672 117.74,1.208 l 16.661,53.396 c -49.735,14.036 -102.683,13.63 -152.221,-1.229 m -159.154,-11.331 39.96,-39.956 c 19.521,18.495 41.003,33.74 63.756,45.696 l 7.263,3.828 33.616,-64.024 c 5.752,2.754 11.577,5.232 17.498,7.456 l -22.972,68.539 7.82,2.579 c 27.093,8.968 55.272,13.778 83.52,14.462 l 0.039,56.727 c -83.233,-1.807 -165.909,-33.552 -230.5,-95.307 M 52.0865,406.764 l 56.5075,0.002 c 0.723,26.884 5.132,52.856 12.764,77.397 l 2.439,7.844 69.041,-21.5 c 2.116,6.008 4.484,11.883 7.103,17.64 l -64.712,32.222 3.704,7.354 c 12.817,25.498 29.344,48.828 48.833,69.284 l -40.088,40.135 C 90.1011,577.015 54.0865,496.106 52.0865,406.764 m 137.2505,49.594 -53.392,16.659 C 121.909,423.281 122.31,370.338 137.169,320.796 l 53.381,17.818 c -11.267,38.348 -11.673,79.203 -1.213,117.744 M 148.506,161.643 188.461,201.6 c -18.495,19.523 -33.739,41.007 -45.7,63.759 l -3.828,7.266 64.024,33.616 c -2.748,5.745 -5.228,11.579 -7.452,17.496 l -68.539,-22.97 -2.581,7.818 c -8.965,27.095 -13.78,55.276 -14.465,83.52 L 53.1985,392.14 C 55.0051,308.909 86.7451,226.232 148.506,161.643 M 390.011,56.495 V 113 c -26.885,0.727 -52.857,5.14 -77.397,12.772 l -7.847,2.432 21.499,69.043 c -6.003,2.116 -11.883,4.489 -17.639,7.102 l -32.22,-64.709 -7.354,3.704 c -25.496,12.82 -48.834,29.342 -69.283,48.829 L 159.636,152.088 C 219.761,94.512 300.674,58.496 390.011,56.495 m 85.969,85.088 -17.82,53.373 c -38.346,-11.263 -79.202,-11.668 -117.741,-1.208 l -16.667,-53.397 c 49.742,-14.031 102.679,-13.627 152.228,1.232 m 159.153,11.335 -39.959,39.951 C 575.655,174.375 554.167,159.128 531.42,147.171 l -7.271,-3.824 -33.614,64.025 c -5.746,-2.752 -11.584,-5.232 -17.495,-7.456 l 22.973,-68.545 -7.825,-2.571 C 461.1,119.826 432.92,115.016 404.667,114.334 L 404.634,57.61 c 83.234,1.806 165.911,33.548 230.499,95.308 M 455.316,408.33 c 0.096,-1.665 0.127,-3.357 0.085,-5.068 -0.041,-1.696 -0.161,-3.385 -0.33,-5.056 l 136.297,-30.488 c 1.958,10.423 3.09,21.146 3.38,32.114 0.26,10.949 -0.364,21.701 -1.787,32.217 z m 124.604,67.544 c -3.945,10.221 -8.633,19.915 -13.972,29.085 L 447.849,430.37 c 0.732,-1.498 1.407,-3.052 2.027,-4.649 0.609,-1.587 1.148,-3.189 1.624,-4.797 l 137.592,23.991 c -2.18,10.378 -5.238,20.716 -9.172,30.959 m 1.956,31.547 49.538,25.974 c -25.25,45.096 -62.971,82.244 -108.51,106.773 l -25.137,-50.344 c 35.08,-19.147 64.257,-47.75 84.109,-82.403 M 411.658,458.183 c 1.582,-0.544 3.153,-1.164 4.726,-1.858 1.55,-0.688 3.067,-1.44 4.536,-2.243 l 80.331,114.264 c -8.883,5.79 -18.355,10.942 -28.38,15.402 -10.019,4.434 -20.186,7.975 -30.445,10.683 z m -23.214,1.54 c 1.663,0.102 3.358,0.132 5.074,0.091 1.693,-0.047 3.382,-0.159 5.05,-0.336 l 30.492,136.305 c -10.426,1.951 -21.142,3.083 -32.117,3.372 -10.952,0.263 -21.7,-0.357 -32.215,-1.784 z m -22.037,-7.461 c 1.497,0.732 3.047,1.407 4.651,2.016 1.581,0.609 3.185,1.153 4.794,1.632 l -23.994,137.597 c -10.382,-2.188 -20.719,-5.245 -30.959,-9.172 -10.22,-3.951 -19.916,-8.644 -29.088,-13.985 z M 281.41,561.861 c -8.755,-5.995 -17.136,-12.768 -25.088,-20.328 -7.933,-7.555 -15.096,-15.596 -21.525,-24.042 l 114.099,-80.559 c 1.112,1.25 2.283,2.469 3.528,3.65 1.23,1.167 2.502,2.281 3.806,3.335 z m -74.456,-59.687 c 19.147,35.08 47.753,64.257 82.4,84.112 l -25.977,49.536 C 218.285,610.576 181.137,572.855 156.609,527.317 Z M 337.052,392.853 c -0.101,1.667 -0.134,3.36 -0.085,5.073 0.043,1.698 0.149,3.383 0.331,5.05 L 200.995,433.47 c -1.952,-10.428 -3.09,-21.148 -3.373,-32.116 -0.263,-10.949 0.357,-21.704 1.785,-32.22 z m 5.639,32.48 -114.26,80.33 c -5.794,-8.885 -10.946,-18.36 -15.405,-28.38 -4.436,-10.016 -7.969,-20.19 -10.679,-30.453 l 136.244,-30.758 c 0.544,1.58 1.165,3.154 1.86,4.714 0.689,1.551 1.444,3.068 2.24,4.547 M 212.443,325.31 c 3.95,-10.217 8.643,-19.911 13.983,-29.083 l 118.088,74.586 c -0.727,1.504 -1.412,3.055 -2.022,4.652 -0.609,1.584 -1.148,3.187 -1.624,4.797 L 203.271,356.273 c 2.187,-10.38 5.244,-20.724 9.172,-30.963 m -1.95,-31.545 -49.539,-25.974 c 25.245,-45.098 62.965,-82.247 108.505,-106.771 l 25.143,50.343 c -35.085,19.149 -64.259,47.749 -84.109,82.402 M 380.704,343 c -1.576,0.549 -3.158,1.166 -4.72,1.862 -1.549,0.69 -3.068,1.439 -4.542,2.24 L 291.117,232.844 c 8.884,-5.793 18.354,-10.947 28.371,-15.407 10.016,-4.433 20.194,-7.972 30.456,-10.68 z m 23.214,-1.54 c -1.667,-0.099 -3.358,-0.13 -5.066,-0.086 -1.701,0.047 -3.384,0.156 -5.057,0.332 L 363.306,205.405 c 10.424,-1.953 21.146,-3.089 32.113,-3.374 10.947,-0.266 21.701,0.36 32.22,1.788 z m 22.044,7.465 c -1.503,-0.731 -3.058,-1.405 -4.651,-2.02 -1.587,-0.612 -3.191,-1.156 -4.8,-1.627 l 23.995,-137.595 c 10.379,2.182 20.715,5.237 30.958,9.172 10.219,3.949 19.915,8.632 29.081,13.974 z M 234.919,285.823 c 5.992,-8.754 12.764,-17.14 20.322,-25.094 7.558,-7.929 15.597,-15.094 24.042,-21.521 l 80.56,114.1 c -1.251,1.109 -2.469,2.282 -3.645,3.525 -1.171,1.232 -2.287,2.503 -3.336,3.808 z m 322.529,229.543 c -5.992,8.751 -12.768,17.136 -20.32,25.093 -7.56,7.931 -15.596,15.092 -24.041,21.519 L 432.524,447.874 c 1.248,-1.105 2.464,-2.279 3.646,-3.519 1.166,-1.23 2.281,-2.506 3.336,-3.812 z M 396.184,448.945 c -26.698,0 -48.346,-21.649 -48.346,-48.352 0,-26.703 21.648,-48.352 48.346,-48.352 26.7,0 48.345,21.649 48.345,48.352 0,26.703 -21.645,48.352 -48.345,48.352 M 510.959,239.328 c 8.745,5.989 17.136,12.769 25.089,20.321 7.932,7.556 15.093,15.6 21.517,24.046 l -114.098,80.557 c -1.107,-1.247 -2.284,-2.466 -3.524,-3.646 -1.228,-1.166 -2.5,-2.281 -3.809,-3.34 z m 79.062,115.022 -136.249,30.764 c -0.54,-1.577 -1.16,-3.154 -1.855,-4.717 -0.696,-1.553 -1.442,-3.071 -2.245,-4.544 l 114.261,-80.328 c 5.794,8.883 10.94,18.352 15.403,28.379 4.433,10.017 7.982,20.184 10.685,30.446 m -4.607,-55.339 c -19.15,-35.079 -47.751,-64.256 -82.398,-84.11 l 25.972,-49.541 c 45.096,25.251 82.244,62.971 106.765,108.511 z m 17.612,45.817 53.396,-16.663 c 14.031,49.74 13.626,102.681 -1.229,152.228 l -53.375,-17.822 c 11.263,-38.347 11.67,-79.202 1.208,-117.743 m 137.255,49.593 -56.507,-0.005 c -0.726,-26.878 -5.136,-52.851 -12.769,-77.394 l -2.432,-7.842 -69.047,21.502 c -2.117,-6.01 -4.492,-11.888 -7.098,-17.644 l 64.71,-32.225 -3.713,-7.349 c -12.808,-25.501 -29.333,-48.829 -48.828,-69.285 l 40.088,-40.136 c 57.579,60.132 93.596,141.04 95.596,230.378 M 396.184,40.239 c -199.017,0 -360.3561,161.337 -360.3561,360.354 0,199.018 161.3391,360.356 360.3561,360.356 199.017,0 360.358,-161.338 360.358,-360.356 0,-199.017 -161.341,-360.354 -360.358,-360.354"
     style="fill:#231f20;fill-opacity:1;fill-rule:nonzero;stroke:none"
     id="path53822" />
</svg>
