<?xml version="1.0" encoding="UTF-8" standalone="no"?>
<!-- Created with Inkscape (http://www.inkscape.org/) -->

<svg
   version="1.1"
   id="svg42575"
   width="795.03467"
   height="793.70135"
   viewBox="0 0 795.03467 793.70135"
   sodipodi:docname="Kaza Guruma.svg"
   inkscape:version="1.2 (dc2aeda, 2022-05-15)"
   xmlns:inkscape="http://www.inkscape.org/namespaces/inkscape"
   xmlns:sodipodi="http://sodipodi.sourceforge.net/DTD/sodipodi-0.dtd"
   xmlns="http://www.w3.org/2000/svg"
   xmlns:svg="http://www.w3.org/2000/svg">
  <defs
     id="defs42579">
    <clipPath
       clipPathUnits="userSpaceOnUse"
       id="clipPath43405">
      <path
         d="M -567.7754,585.8522 H 28.500601 V -9.4238027 H -567.7754 Z"
         id="path43407"
         style="stroke-width:0.999998" />
    </clipPath>
    <clipPath
       clipPathUnits="userSpaceOnUse"
       id="clipPath43412">
      <path
         d="M -542.9326,584.5729 H 53.343399 V -10.7031 H -542.9326 Z"
         id="path43414"
         style="stroke-width:0.999998" />
    </clipPath>
    <clipPath
       clipPathUnits="userSpaceOnUse"
       id="clipPath43418">
      <path
         d="M -540.8213,585.8483 H 55.454701 V -9.4277027 H -540.8213 Z"
         id="path43420"
         style="stroke-width:0.999998" />
    </clipPath>
    <clipPath
       clipPathUnits="userSpaceOnUse"
       id="clipPath43424">
      <path
         d="M -574.5459,585.8522 H 21.730103 V -9.4238027 H -574.5459 Z"
         id="path43426"
         style="stroke-width:0.999998" />
    </clipPath>
    <clipPath
       clipPathUnits="userSpaceOnUse"
       id="clipPath43430">
      <path
         d="M -557.4951,577.8502 H 38.780903 V -17.4258 H -557.4951 Z"
         id="path43432"
         style="stroke-width:0.999998" />
    </clipPath>
    <clipPath
       clipPathUnits="userSpaceOnUse"
       id="clipPath43436">
      <path
         d="M -576.3691,585.5885 H 19.906905 V -9.6875027 H -576.3691 Z"
         id="path43438"
         style="stroke-width:0.999998" />
    </clipPath>
    <clipPath
       clipPathUnits="userSpaceOnUse"
       id="clipPath43442">
      <path
         d="M -550.2637,577.3248 H 46.012306 V -17.951198 H -550.2637 Z"
         id="path43444"
         style="stroke-width:0.999998" />
    </clipPath>
    <clipPath
       clipPathUnits="userSpaceOnUse"
       id="clipPath43449">
      <path
         d="M -556.4014,578.0143 H 39.874606 V -17.2617 H -556.4014 Z"
         id="path43451"
         style="stroke-width:0.999998" />
    </clipPath>
    <clipPath
       clipPathUnits="userSpaceOnUse"
       id="clipPath43455">
      <path
         d="M -586.5449,579.5026 H 9.7311002 V -15.7734 H -586.5449 Z"
         id="path43457"
         style="stroke-width:0.999998" />
    </clipPath>
    <clipPath
       clipPathUnits="userSpaceOnUse"
       id="clipPath43461">
      <path
         d="M -584.1943,578.9381 H 12.081705 V -16.337903 H -584.1943 Z"
         id="path43463"
         style="stroke-width:0.999998" />
    </clipPath>
    <clipPath
       clipPathUnits="userSpaceOnUse"
       id="clipPath43467">
      <path
         d="M -548.9834,585.8522 H 47.292601 V -9.4238027 H -548.9834 Z"
         id="path43469"
         style="stroke-width:0.999998" />
    </clipPath>
    <clipPath
       clipPathUnits="userSpaceOnUse"
       id="clipPath43473">
      <path
         d="M -553.8975,585.8483 H 42.378504 V -9.4277027 H -553.8975 Z"
         id="path43475"
         style="stroke-width:0.999998" />
    </clipPath>
    <clipPath
       clipPathUnits="userSpaceOnUse"
       id="clipPath43479">
      <path
         d="M -557.0645,585.8483 H 39.211501 V -9.4277027 H -557.0645 Z"
         id="path43481"
         style="stroke-width:0.999998" />
    </clipPath>
    <clipPath
       clipPathUnits="userSpaceOnUse"
       id="clipPath43485">
      <path
         d="M -561.4131,585.8522 H 34.862903 V -9.4238027 H -561.4131 Z"
         id="path43487"
         style="stroke-width:0.999998" />
    </clipPath>
    <clipPath
       clipPathUnits="userSpaceOnUse"
       id="clipPath43491">
      <path
         d="M -545.417,584.5729 H 50.859001 V -10.7031 H -545.417 Z"
         id="path43493"
         style="stroke-width:0.999998" />
    </clipPath>
    <clipPath
       clipPathUnits="userSpaceOnUse"
       id="clipPath43497">
      <path
         d="M -572.8174,586.1354 H 23.458606 V -9.1406027 H -572.8174 Z"
         id="path43499"
         style="stroke-width:0.999998" />
    </clipPath>
    <clipPath
       clipPathUnits="userSpaceOnUse"
       id="clipPath43503">
      <path
         d="M -531.1924,581.5885 H 65.083599 V -13.6875 H -531.1924 Z"
         id="path43505"
         style="stroke-width:0.999998" />
    </clipPath>
    <clipPath
       clipPathUnits="userSpaceOnUse"
       id="clipPath43509">
      <path
         d="M -568.2266,575.819 H 28.049401 V -19.457003 H -568.2266 Z"
         id="path43511"
         style="stroke-width:0.999998" />
    </clipPath>
    <clipPath
       clipPathUnits="userSpaceOnUse"
       id="clipPath43515">
      <path
         d="M -528.0898,575.3815 H 68.186199 V -19.8945 H -528.0898 Z"
         id="path43517"
         style="stroke-width:0.999998" />
    </clipPath>
    <clipPath
       clipPathUnits="userSpaceOnUse"
       id="clipPath43521">
      <path
         d="M -536.6982,584.5729 H 59.577804 V -10.7031 H -536.6982 Z"
         id="path43523"
         style="stroke-width:0.999998" />
    </clipPath>
    <clipPath
       clipPathUnits="userSpaceOnUse"
       id="clipPath43527">
      <path
         d="M -564.5732,585.8483 H 31.702801 V -9.4277027 H -564.5732 Z"
         id="path43529"
         style="stroke-width:0.999998" />
    </clipPath>
    <clipPath
       clipPathUnits="userSpaceOnUse"
       id="clipPath43533">
      <path
         d="M -538.2217,577.9479 H 58.054299 V -17.328098 H -538.2217 Z"
         id="path43535"
         style="stroke-width:0.999998" />
    </clipPath>
    <clipPath
       clipPathUnits="userSpaceOnUse"
       id="clipPath43539">
      <path
         d="m -297.6387,378.9655 h 596.276 v -595.276 h -596.276 z"
         id="path43541"
         style="stroke-width:0.999998" />
    </clipPath>
    <clipPath
       clipPathUnits="userSpaceOnUse"
       id="clipPath43545">
      <path
         d="m -331.6309,297.6398 h 596.276 v -595.276 h -596.276 z"
         id="path43547"
         style="stroke-width:0.999998" />
    </clipPath>
    <clipPath
       clipPathUnits="userSpaceOnUse"
       id="clipPath43551">
      <path
         d="m -373.8623,100.0216 h 596.27601 v -595.276 H -373.8623 Z"
         id="path43553"
         style="stroke-width:0.999998" />
    </clipPath>
    <clipPath
       clipPathUnits="userSpaceOnUse"
       id="clipPath43557">
      <path
         d="m -221.4131,495.2565 h 596.276 v -595.276 h -596.276 z"
         id="path43559"
         style="stroke-width:0.999998" />
    </clipPath>
    <clipPath
       clipPathUnits="userSpaceOnUse"
       id="clipPath43563">
      <path
         d="m -297.6406,256.6466 h 596.276 v -595.276 h -596.276 z"
         id="path43565"
         style="stroke-width:0.999998" />
    </clipPath>
    <clipPath
       clipPathUnits="userSpaceOnUse"
       id="clipPath43569">
      <path
         d="m -297.6406,338.6334 h 596.276 v -595.276 h -596.276 z"
         id="path43571"
         style="stroke-width:0.999998" />
    </clipPath>
    <clipPath
       clipPathUnits="userSpaceOnUse"
       id="clipPath43575">
      <path
         d="m -306.6377,418.1334 h 596.276 v -595.276 h -596.276 z"
         id="path43577"
         style="stroke-width:0.999998" />
    </clipPath>
    <clipPath
       clipPathUnits="userSpaceOnUse"
       id="clipPath43581">
      <path
         d="m -306.6377,189.0187 h 596.276 v -595.276 h -596.276 z"
         id="path43583"
         style="stroke-width:0.999998" />
    </clipPath>
    <clipPath
       clipPathUnits="userSpaceOnUse"
       id="clipPath43588">
      <path
         d="m -268.6533,268.6505 h 596.276 v -595.276 h -596.276 z"
         id="path43590"
         style="stroke-width:0.999998" />
    </clipPath>
    <clipPath
       clipPathUnits="userSpaceOnUse"
       id="clipPath43594">
      <path
         d="M -326.626,326.6237 H 269.65 v -595.276 h -596.276 z"
         id="path43596"
         style="stroke-width:0.999998" />
    </clipPath>
    <clipPath
       clipPathUnits="userSpaceOnUse"
       id="clipPath43600">
      <path
         d="m -389.2041,376.4772 h 596.276 v -595.276 h -596.276 z"
         id="path43602"
         style="stroke-width:0.999998" />
    </clipPath>
    <clipPath
       clipPathUnits="userSpaceOnUse"
       id="clipPath43606">
      <path
         d="m -227.1953,214.4689 h 596.276 v -595.276 h -596.276 z"
         id="path43608"
         style="stroke-width:0.999998" />
    </clipPath>
    <clipPath
       clipPathUnits="userSpaceOnUse"
       id="clipPath43612">
      <path
         d="m -100.0195,221.4142 h 596.276 v -595.276 h -596.276 z"
         id="path43614"
         style="stroke-width:0.999998" />
    </clipPath>
    <clipPath
       clipPathUnits="userSpaceOnUse"
       id="clipPath43618">
      <path
         d="m -495.2549,373.8639 h 596.276 v -595.276 h -596.276 z"
         id="path43620"
         style="stroke-width:0.999998" />
    </clipPath>
    <clipPath
       clipPathUnits="userSpaceOnUse"
       id="clipPath43624">
      <path
         d="m -256.6445,297.6368 h 596.276 v -595.276 h -596.276 z"
         id="path43626"
         style="stroke-width:0.999998" />
    </clipPath>
    <clipPath
       clipPathUnits="userSpaceOnUse"
       id="clipPath43630">
      <path
         d="m -338.6309,297.6368 h 596.276 v -595.276 h -596.276 z"
         id="path43632"
         style="stroke-width:0.999998" />
    </clipPath>
    <clipPath
       clipPathUnits="userSpaceOnUse"
       id="clipPath43636">
      <path
         d="m -418.1318,288.6388 h 596.276 v -595.276 h -596.276 z"
         id="path43638"
         style="stroke-width:0.999998" />
    </clipPath>
    <clipPath
       clipPathUnits="userSpaceOnUse"
       id="clipPath43642">
      <path
         d="m -189.0166,288.6388 h 596.276 v -595.276 h -596.276 z"
         id="path43644"
         style="stroke-width:0.999998" />
    </clipPath>
    <clipPath
       clipPathUnits="userSpaceOnUse"
       id="clipPath43648">
      <path
         d="m -104.002,383.4772 h 596.276 v -595.276 h -596.276 z"
         id="path43650"
         style="stroke-width:0.999998" />
    </clipPath>
    <clipPath
       clipPathUnits="userSpaceOnUse"
       id="clipPath43654">
      <path
         d="m -491.2734,211.8019 h 596.27601 v -595.276 H -491.2734 Z"
         id="path43656"
         style="stroke-width:0.999998" />
    </clipPath>
    <clipPath
       clipPathUnits="userSpaceOnUse"
       id="clipPath43660">
      <path
         d="m -268.6494,326.6237 h 596.276 v -595.276 h -596.276 z"
         id="path43662"
         style="stroke-width:0.999998" />
    </clipPath>
    <clipPath
       clipPathUnits="userSpaceOnUse"
       id="clipPath43666">
      <path
         d="m -326.6221,268.6505 h 596.276 v -595.276 h -596.276 z"
         id="path43668"
         style="stroke-width:0.999998" />
    </clipPath>
    <clipPath
       clipPathUnits="userSpaceOnUse"
       id="clipPath43672">
      <path
         d="m -376.4756,206.0734 h 596.27601 v -595.276 H -376.4756 Z"
         id="path43674"
         style="stroke-width:0.999998" />
    </clipPath>
    <clipPath
       clipPathUnits="userSpaceOnUse"
       id="clipPath43678">
      <path
         d="m -214.4668,368.0826 h 596.276 v -595.276 h -596.276 z"
         id="path43680"
         style="stroke-width:0.999998" />
    </clipPath>
  </defs>
  <sodipodi:namedview
     id="namedview42577"
     pagecolor="#ffffff"
     bordercolor="#000000"
     borderopacity="0.25"
     inkscape:showpageshadow="2"
     inkscape:pageopacity="0.0"
     inkscape:pagecheckerboard="0"
     inkscape:deskcolor="#d1d1d1"
     showgrid="false"
     inkscape:zoom="0.29734106"
     inkscape:cx="-215.24105"
     inkscape:cy="396.85068"
     inkscape:window-width="1419"
     inkscape:window-height="456"
     inkscape:window-x="0"
     inkscape:window-y="25"
     inkscape:window-maximized="0"
     inkscape:current-layer="svg42575">
    <inkscape:page
       x="0"
       y="0"
       id="page42581"
       width="795.03467"
       height="793.70135" />
  </sodipodi:namedview>
  <path
     d="M 396.852 505.287 C 336.965 505.287 288.418 456.74 288.418 396.853 C 288.418 336.966 336.965 288.418 396.852 288.418 C 456.739 288.418 505.286 336.966 505.286 396.853 C 505.286 456.74 456.739 505.287 396.852 505.287 M 396.852 260.862 C 321.747 260.862 260.862 321.747 260.862 396.853 C 260.862 471.959 321.747 532.844 396.852 532.844 C 471.957 532.844 532.841 471.959 532.841 396.853 C 532.841 321.747 471.957 260.862 396.852 260.862"
     style="fill:#000000;fill-opacity:1;fill-rule:nonzero;stroke:none"
     id="path42695" />
  <path
     d="M 442.175 396.853 C 442.175 421.884 421.883 442.178 396.852 442.178 C 371.821 442.178 351.53 421.884 351.53 396.853 C 351.53 371.822 371.821 351.529 396.852 351.529 C 421.883 351.529 442.175 371.822 442.175 396.853"
     style="fill:#000000;fill-opacity:1;fill-rule:nonzero;stroke:none"
     id="path42699" />
  <path
     d="M 498.483 133.362 L 396.85 234.995 L 295.218 133.362 L 396.85 31.7289 Z"
     style="fill:#000000;fill-opacity:1;fill-rule:nonzero;stroke:none"
     id="path42703" />
  <path
     d="M 295.217 660.342 L 396.85 558.709 L 498.482 660.342 L 396.85 761.975 Z"
     style="fill:#000000;fill-opacity:1;fill-rule:nonzero;stroke:none"
     id="path42707" />
  <path
     d="M 396.854 342.195 C 400.978 342.195 404.989 342.667 408.85 343.534 L 408.85 298.5 C 404.917 298.026 400.919 297.752 396.855 297.752 C 392.786 297.752 388.786 298.026 384.85 298.5 L 384.85 343.535 C 388.715 342.667 392.727 342.195 396.854 342.195"
     style="fill:#000000;fill-opacity:1;fill-rule:nonzero;stroke:none"
     id="path42711" />
  <path
     d="M 396.854 451.511 C 392.727 451.508 388.715 451.038 384.85 450.17 L 384.85 495.206 C 388.786 495.68 392.786 495.954 396.855 495.954 C 400.919 495.954 404.917 495.68 408.85 495.206 L 408.85 450.172 C 404.989 451.038 400.978 451.508 396.854 451.511"
     style="fill:#000000;fill-opacity:1;fill-rule:nonzero;stroke:none"
     id="path42715" />
  <path
     d="M 408.85 557.511 L 408.85 541.68 C 404.893 542.006 400.893 542.178 396.853 542.178 C 392.81 542.178 388.809 542.006 384.85 541.68 L 384.85 557.511 L 396.85 545.511 Z"
     style="fill:#000000;fill-opacity:1;fill-rule:nonzero;stroke:none"
     id="path42719" />
  <path
     d="M 408.85 252.025 L 408.85 236.194 L 396.85 248.194 L 384.85 236.194 L 384.85 252.026 C 388.809 251.701 392.81 251.529 396.853 251.529 C 400.893 251.529 404.893 251.701 408.85 252.025"
     style="fill:#000000;fill-opacity:1;fill-rule:nonzero;stroke:none"
     id="path42723" />
  <path
     d="M 282.39999,282.40134 H 138.66933 V 138.67201 h 143.73066 z"
     style="fill:#000000;fill-opacity:1;fill-rule:nonzero;stroke:none;stroke-width:1.33333"
     id="path42725" />
  <path
     d="m 511.30079,655.03467 v -143.732 H 655.03145 V 655.032 Z"
     style="fill:#000000;fill-opacity:1;fill-rule:nonzero;stroke:none;stroke-width:1.33333"
     id="path42729" />
  <path
     d="M 358.204 358.201 C 361.121 355.285 364.289 352.784 367.632 350.665 L 335.788 318.821 C 332.673 321.269 329.653 323.901 326.78 326.774 C 323.901 329.652 321.267 332.673 318.82 335.792 L 350.664 367.637 C 352.784 364.292 355.287 361.12 358.204 358.201"
     style="fill:#000000;fill-opacity:1;fill-rule:nonzero;stroke:none"
     id="path42733" />
  <path
     d="M 435.501 435.498 C 432.584 438.415 429.412 440.919 426.066 443.039 L 457.912 474.883 C 461.029 472.435 464.052 469.801 466.929 466.925 C 469.802 464.05 472.436 461.031 474.882 457.915 L 443.037 426.069 C 440.918 429.413 438.417 432.581 435.501 435.498"
     style="fill:#000000;fill-opacity:1;fill-rule:nonzero;stroke:none"
     id="path42737" />
  <path
     d="M 518.939 501.97 L 507.744 490.777 C 505.176 493.803 502.47 496.754 499.614 499.613 C 496.754 502.47 493.802 505.178 490.774 507.749 L 501.967 518.942 L 501.968 501.973 Z"
     style="fill:#000000;fill-opacity:1;fill-rule:nonzero;stroke:none"
     id="path42741" />
  <path
     d="M 302.927 285.959 L 291.732 274.764 L 291.732 291.735 L 274.763 291.735 L 285.956 302.931 C 288.526 299.902 291.232 296.95 294.092 294.092 C 296.95 291.235 299.899 288.53 302.927 285.959"
     style="fill:#000000;fill-opacity:1;fill-rule:nonzero;stroke:none"
     id="path42745" />
  <path
     d="M 133.359 295.219 L 234.992 396.852 L 133.359 498.485 L 31.7273 396.853 Z"
     style="fill:#000000;fill-opacity:1;fill-rule:nonzero;stroke:none"
     id="path42749" />
  <path
     d="M 660.34 498.485 L 558.708 396.852 L 660.34 295.219 L 761.973 396.852 Z"
     style="fill:#000000;fill-opacity:1;fill-rule:nonzero;stroke:none"
     id="path42753" />
  <path
     d="M 342.193 396.849 C 342.194 392.724 342.665 388.713 343.532 384.853 L 298.498 384.853 C 298.024 388.786 297.752 392.784 297.75 396.846 C 297.75 400.917 298.024 404.917 298.498 408.852 L 343.533 408.852 C 342.666 404.988 342.193 400.974 342.193 396.849"
     style="fill:#000000;fill-opacity:1;fill-rule:nonzero;stroke:none"
     id="path42757" />
  <path
     d="M 451.508 396.849 C 451.507 400.974 451.036 404.988 450.168 408.852 L 495.203 408.852 C 495.679 404.917 495.952 400.917 495.952 396.846 C 495.951 392.784 495.679 388.786 495.204 384.852 L 450.169 384.852 C 451.036 388.713 451.507 392.725 451.508 396.849"
     style="fill:#000000;fill-opacity:1;fill-rule:nonzero;stroke:none"
     id="path42761" />
  <path
     d="M 557.509 384.852 L 541.678 384.852 C 542.002 388.811 542.176 392.811 542.176 396.849 C 542.176 400.895 542.002 404.895 541.678 408.852 L 557.509 408.852 L 545.51 396.852 Z"
     style="fill:#000000;fill-opacity:1;fill-rule:nonzero;stroke:none"
     id="path42765" />
  <path
     d="M 252.022 384.852 L 236.191 384.852 L 248.193 396.852 L 236.193 408.852 L 252.023 408.852 C 251.699 404.895 251.526 400.895 251.526 396.849 C 251.526 392.811 251.699 388.811 252.022 384.852"
     style="fill:#000000;fill-opacity:1;fill-rule:nonzero;stroke:none"
     id="path42769" />
  <path
     d="M 138.669 511.303 L 282.399 511.303 L 282.399 655.035 L 138.67 655.035 Z"
     style="fill:#000000;fill-opacity:1;fill-rule:nonzero;stroke:none"
     id="path42773" />
  <path
     d="M 655.031 282.403 L 511.301 282.402 L 511.301 138.673 L 655.03 138.673 Z"
     style="fill:#000000;fill-opacity:1;fill-rule:nonzero;stroke:none"
     id="path42777" />
  <path
     d="M 358.199 435.498 C 355.283 432.581 352.782 429.413 350.663 426.071 L 318.819 457.915 C 321.266 461.029 323.899 464.05 326.772 466.922 C 329.65 469.801 332.671 472.435 335.79 474.883 L 367.634 443.039 C 364.288 440.919 361.116 438.417 358.199 435.498"
     style="fill:#000000;fill-opacity:1;fill-rule:nonzero;stroke:none"
     id="path42781" />
  <path
     d="M 435.496 358.201 C 438.413 361.12 440.917 364.292 443.036 367.636 L 474.881 335.792 C 472.435 332.673 469.8 329.652 466.921 326.774 C 464.048 323.901 461.028 321.266 457.912 318.821 L 426.068 350.665 C 429.411 352.784 432.579 355.286 435.496 358.201"
     style="fill:#000000;fill-opacity:1;fill-rule:nonzero;stroke:none"
     id="path42785" />
  <path
     d="M 501.967 274.765 L 490.772 285.96 C 493.8 288.526 496.752 291.234 499.608 294.09 C 502.467 296.949 505.175 299.902 507.744 302.93 L 518.939 291.736 L 501.968 291.736 Z"
     style="fill:#000000;fill-opacity:1;fill-rule:nonzero;stroke:none"
     id="path42789" />
  <path
     d="M 285.956 490.777 L 274.761 501.97 L 291.733 501.97 L 291.733 518.941 L 302.928 507.746 C 299.9 505.178 296.948 502.47 294.089 499.61 C 291.232 496.753 288.527 493.804 285.956 490.777"
     style="fill:#000000;fill-opacity:1;fill-rule:nonzero;stroke:none"
     id="path42793" />
</svg>
