<?xml version="1.0" encoding="UTF-8" standalone="no"?>
<!-- Created with Inkscape (http://www.inkscape.org/) -->

<svg
   version="1.1"
   id="svg12955"
   width="795.03467"
   height="793.70135"
   viewBox="0 0 795.03467 793.70135"
   sodipodi:docname="Hosowani Nozoki Kajinoha.svg"
   inkscape:version="1.2 (dc2aeda, 2022-05-15)"
   xmlns:inkscape="http://www.inkscape.org/namespaces/inkscape"
   xmlns:sodipodi="http://sodipodi.sourceforge.net/DTD/sodipodi-0.dtd"
   xmlns="http://www.w3.org/2000/svg"
   xmlns:svg="http://www.w3.org/2000/svg">
  <defs
     id="defs12959">
    <clipPath
       clipPathUnits="userSpaceOnUse"
       id="clipPath13448">
      <path
         d="M -568.2266,575.819 H 28.049401 V -19.457003 H -568.2266 Z"
         id="path13450"
         style="stroke-width:0.999998" />
    </clipPath>
    <clipPath
       clipPathUnits="userSpaceOnUse"
       id="clipPath13455">
      <path
         d="M -550.2637,577.3248 H 46.012306 V -17.951198 H -550.2637 Z"
         id="path13457"
         style="stroke-width:0.999998" />
    </clipPath>
    <clipPath
       clipPathUnits="userSpaceOnUse"
       id="clipPath13461">
      <path
         d="M -576.3691,585.5885 H 19.906905 V -9.6875027 H -576.3691 Z"
         id="path13463"
         style="stroke-width:0.999998" />
    </clipPath>
    <clipPath
       clipPathUnits="userSpaceOnUse"
       id="clipPath13467">
      <path
         d="M -531.1924,581.5885 H 65.083599 V -13.6875 H -531.1924 Z"
         id="path13469"
         style="stroke-width:0.999998" />
    </clipPath>
    <clipPath
       clipPathUnits="userSpaceOnUse"
       id="clipPath13473">
      <path
         d="M -528.0898,575.3815 H 68.186199 V -19.8945 H -528.0898 Z"
         id="path13475"
         style="stroke-width:0.999998" />
    </clipPath>
    <clipPath
       clipPathUnits="userSpaceOnUse"
       id="clipPath13479">
      <path
         d="M -536.6982,584.5729 H 59.577804 V -10.7031 H -536.6982 Z"
         id="path13481"
         style="stroke-width:0.999998" />
    </clipPath>
    <clipPath
       clipPathUnits="userSpaceOnUse"
       id="clipPath13485">
      <path
         d="M -540.8213,585.8483 H 55.454701 V -9.4277027 H -540.8213 Z"
         id="path13487"
         style="stroke-width:0.999998" />
    </clipPath>
    <clipPath
       clipPathUnits="userSpaceOnUse"
       id="clipPath13491">
      <path
         d="M -542.9326,584.5729 H 53.343399 V -10.7031 H -542.9326 Z"
         id="path13493"
         style="stroke-width:0.999998" />
    </clipPath>
    <clipPath
       clipPathUnits="userSpaceOnUse"
       id="clipPath13497">
      <path
         d="M -545.417,584.5729 H 50.859001 V -10.7031 H -545.417 Z"
         id="path13499"
         style="stroke-width:0.999998" />
    </clipPath>
    <clipPath
       clipPathUnits="userSpaceOnUse"
       id="clipPath13503">
      <path
         d="M -548.9834,585.8522 H 47.292601 V -9.4238027 H -548.9834 Z"
         id="path13505"
         style="stroke-width:0.999998" />
    </clipPath>
    <clipPath
       clipPathUnits="userSpaceOnUse"
       id="clipPath13509">
      <path
         d="M -553.8975,585.8483 H 42.378504 V -9.4277027 H -553.8975 Z"
         id="path13511"
         style="stroke-width:0.999998" />
    </clipPath>
    <clipPath
       clipPathUnits="userSpaceOnUse"
       id="clipPath13515">
      <path
         d="M -557.0645,585.8483 H 39.211501 V -9.4277027 H -557.0645 Z"
         id="path13517"
         style="stroke-width:0.999998" />
    </clipPath>
    <clipPath
       clipPathUnits="userSpaceOnUse"
       id="clipPath13521">
      <path
         d="M -561.4131,585.8522 H 34.862903 V -9.4238027 H -561.4131 Z"
         id="path13523"
         style="stroke-width:0.999998" />
    </clipPath>
    <clipPath
       clipPathUnits="userSpaceOnUse"
       id="clipPath13527">
      <path
         d="M -564.5732,585.8483 H 31.702801 V -9.4277027 H -564.5732 Z"
         id="path13529"
         style="stroke-width:0.999998" />
    </clipPath>
    <clipPath
       clipPathUnits="userSpaceOnUse"
       id="clipPath13533">
      <path
         d="M -567.7754,585.8522 H 28.500601 V -9.4238027 H -567.7754 Z"
         id="path13535"
         style="stroke-width:0.999998" />
    </clipPath>
    <clipPath
       clipPathUnits="userSpaceOnUse"
       id="clipPath13540">
      <path
         d="M -572.8174,586.1354 H 23.458606 V -9.1406027 H -572.8174 Z"
         id="path13542"
         style="stroke-width:0.999998" />
    </clipPath>
    <clipPath
       clipPathUnits="userSpaceOnUse"
       id="clipPath13546">
      <path
         d="M -574.5459,585.8522 H 21.730103 V -9.4238027 H -574.5459 Z"
         id="path13548"
         style="stroke-width:0.999998" />
    </clipPath>
    <clipPath
       clipPathUnits="userSpaceOnUse"
       id="clipPath13552">
      <path
         d="M -557.4951,577.8502 H 38.780903 V -17.4258 H -557.4951 Z"
         id="path13554"
         style="stroke-width:0.999998" />
    </clipPath>
    <clipPath
       clipPathUnits="userSpaceOnUse"
       id="clipPath13558">
      <path
         d="M -556.4014,578.0143 H 39.874606 V -17.2617 H -556.4014 Z"
         id="path13560"
         style="stroke-width:0.999998" />
    </clipPath>
    <clipPath
       clipPathUnits="userSpaceOnUse"
       id="clipPath13564">
      <path
         d="M -586.5449,579.5026 H 9.7311002 V -15.7734 H -586.5449 Z"
         id="path13566"
         style="stroke-width:0.999998" />
    </clipPath>
    <clipPath
       clipPathUnits="userSpaceOnUse"
       id="clipPath13570">
      <path
         d="M -584.1943,578.9381 H 12.081705 V -16.337903 H -584.1943 Z"
         id="path13572"
         style="stroke-width:0.999998" />
    </clipPath>
    <clipPath
       clipPathUnits="userSpaceOnUse"
       id="clipPath13576">
      <path
         d="M -538.2217,577.9479 H 58.054299 V -17.328098 H -538.2217 Z"
         id="path13578"
         style="stroke-width:0.999998" />
    </clipPath>
    <clipPath
       clipPathUnits="userSpaceOnUse"
       id="clipPath13582">
      <path
         d="M -332.252,536.5582 H 264.024 V -58.717801 h -596.276 z"
         id="path13584"
         style="stroke-width:0.999998" />
    </clipPath>
  </defs>
  <sodipodi:namedview
     id="namedview12957"
     pagecolor="#ffffff"
     bordercolor="#000000"
     borderopacity="0.25"
     inkscape:showpageshadow="2"
     inkscape:pageopacity="0.0"
     inkscape:pagecheckerboard="0"
     inkscape:deskcolor="#d1d1d1"
     showgrid="false"
     inkscape:zoom="0.29734106"
     inkscape:cx="-215.24105"
     inkscape:cy="396.85068"
     inkscape:window-width="1419"
     inkscape:window-height="456"
     inkscape:window-x="0"
     inkscape:window-y="25"
     inkscape:window-maximized="0"
     inkscape:current-layer="svg12955">
    <inkscape:page
       x="0"
       y="0"
       id="page12961"
       width="795.03467"
       height="793.70135" />
  </sodipodi:namedview>
  <path
     d="M 443.003 715.411 C 454.864 713.706 466.518 711.351 477.923 708.387 C 472.527 705.471 467.21 702.331 462.018 698.931 C 454.996 704.262 448.696 709.768 443.003 715.411 M 492.288 679.631 C 483.226 684.484 475.043 689.575 467.592 694.847 C 473.958 698.919 480.475 702.562 487.104 705.855 C 498.828 702.434 510.279 698.363 521.409 693.68 C 511.563 689.64 501.87 684.94 492.476 679.534 C 492.412 679.567 492.351 679.599 492.288 679.631 M 608.44 639.278 C 613.979 634.434 619.352 629.402 624.547 624.194 C 609.716 627.098 596.209 633.243 583.92 643.078 C 592.147 641.591 600.46 640.322 608.44 639.278 M 536.672 661.248 C 544.821 665.838 553.407 669.759 562.124 673.028 C 569.741 668.458 577.152 663.579 584.343 658.412 C 580.285 656.512 576.316 654.351 572.503 651.896 C 560.592 654.408 548.528 657.486 536.672 661.248 M 315.77 708.387 C 327.177 711.351 338.83 713.706 350.691 715.411 C 344.998 709.768 338.698 704.262 331.677 698.931 C 326.483 702.331 321.169 705.471 315.77 708.387 M 590.349 653.98 C 593.412 651.67 596.435 649.314 599.411 646.895 C 593.62 647.874 587.751 648.928 581.965 650.016 C 584.599 651.454 587.423 652.774 590.349 653.98 M 499.368 676.018 C 509.186 681.446 519.404 686.09 529.745 690.034 C 538.376 686.11 546.804 681.823 555.004 677.182 C 545.955 673.53 537.068 669.136 528.511 663.967 C 518.513 667.439 508.731 671.436 499.368 676.018 M 257.691 654.698 C 238.629 624.606 207.228 605.606 175.788 599.854 C 163.493 597.606 153.141 597.214 145.22 597.389 C 150.514 604.033 156.07 610.458 161.865 616.661 C 182.742 619.146 205.473 628.839 222.152 645.495 C 233.934 647.969 245.889 651 257.691 654.698 M 630.967 546.03 C 625.035 546.03 619.387 547.249 614.259 549.439 C 604.892 541.67 592.864 536.995 579.745 536.995 C 556.275 536.995 536.305 551.945 528.815 572.839 C 514.363 572.711 500.308 578.735 489.142 589.617 C 479.742 598.777 475.976 611.853 472.255 615.583 C 469.738 618.106 465.65 618.106 463.127 615.583 C 460.606 613.061 460.604 608.975 463.127 606.451 C 465.955 603.625 488.886 581.925 493.155 575.645 C 502.298 562.198 504.927 546.246 501.506 531.567 C 515.653 521.206 524.847 504.481 524.847 485.604 C 524.847 466.632 515.559 449.838 501.294 439.489 C 501.872 436.598 502.178 433.609 502.178 430.548 C 502.178 405.44 481.819 385.082 456.712 385.082 C 453.156 385.082 449.698 385.502 446.382 386.273 C 436.699 368.899 418.154 357.139 396.847 357.139 C 375.545 357.139 356.995 368.899 347.313 386.273 C 343.995 385.502 340.539 385.082 336.981 385.082 C 311.875 385.082 291.517 405.44 291.517 430.548 C 291.517 433.609 291.823 436.598 292.403 439.489 C 278.137 449.838 268.847 466.632 268.847 485.604 C 268.847 504.481 278.045 521.206 292.191 531.567 C 288.77 546.246 291.397 562.198 300.541 575.645 C 304.807 581.925 327.741 603.625 330.57 606.451 C 333.089 608.975 333.089 613.061 330.57 615.583 C 328.049 618.106 323.957 618.106 321.441 615.583 C 317.718 611.853 313.953 598.777 304.553 589.617 C 293.387 578.735 279.333 572.711 264.879 572.839 C 257.389 551.945 237.418 536.995 213.949 536.995 C 200.83 536.995 188.804 541.67 179.436 549.439 C 174.308 547.249 168.66 546.03 162.729 546.03 C 146.309 546.03 132.069 555.337 124.972 568.959 C 130.401 577.533 136.228 585.827 142.422 593.825 C 151.8 592.317 163.96 591.411 173.705 593.151 C 212.186 600.011 246.937 621.558 267.018 657.776 C 276.734 661.148 286.291 665.007 295.49 669.41 C 279.93 627.835 246.715 598.955 207.305 583.447 C 186.457 575.242 150.565 575.285 150.472 573.502 C 150.378 571.723 183.232 568.115 211.276 578.534 C 253.385 594.173 288.847 627.545 303.767 673.582 C 303.994 673.703 304.226 673.816 304.449 673.94 C 312.975 678.488 320.774 683.263 327.926 688.216 C 322.055 638.181 285.681 594.294 239.582 571.881 C 215.237 560.046 184.933 555.999 185.129 554.233 C 185.33 552.455 218.11 553.771 247.19 569.122 C 294.994 594.365 330.898 640.083 334.887 693.258 C 344.833 700.748 353.393 708.614 360.877 716.71 C 371.641 717.907 382.566 718.571 393.626 718.679 L 393.626 708.051 C 383.267 692.256 366.938 676.346 355.915 665.62 C 350.939 660.78 338.755 652.822 339.713 651.319 C 340.673 649.816 350.807 654.595 358.622 660.564 C 360.615 662.087 362.783 663.876 365.051 665.862 C 364.071 656.986 362.274 650.263 359.77 643.609 C 356.634 635.273 347.119 623.085 348.11 622.229 C 349.103 621.375 359.59 630.967 364.647 640.317 C 367.793 646.129 371.35 658.784 372.059 672.332 C 379.627 679.664 387.53 688.396 393.626 696.727 L 393.626 628.282 C 338.182 596.589 296.673 534.471 296.673 464.282 C 296.673 454.248 298.978 446.669 300.755 446.814 C 302.529 446.961 302.914 459.653 302.921 464.282 C 302.887 530.503 341.687 589.682 393.626 620.807 L 393.626 594.538 C 348.942 564.954 323.342 507.565 320.661 446.409 C 320.439 441.268 320.307 436.068 320.307 430.824 C 320.307 419.277 322.533 409.586 324.315 409.708 C 326.093 409.824 326.333 424.96 326.333 430.824 C 326.333 435.957 326.893 441.062 327.113 446.126 C 329.611 504.05 353.389 558.05 393.626 586.718 L 393.626 556.443 C 358.789 527.653 345.767 484.494 343.125 436.493 C 342.801 430.612 342.61 424.696 342.61 418.77 C 342.61 405.829 345.262 393.936 347.035 394.096 C 348.806 394.253 348.85 411.693 348.85 418.77 C 348.85 424.56 349.247 430.356 349.57 436.138 C 352.086 481.308 363.79 520.786 393.626 547.911 L 393.626 513.182 C 372.197 490.89 367.185 458.642 366.07 423.23 C 365.957 419.6 365.895 415.99 365.895 412.412 C 365.895 392.56 368.907 382.912 370.686 383.089 C 372.455 383.273 372.135 403.593 372.135 412.412 C 372.135 415.917 372.414 419.458 372.522 423.032 C 373.495 455.132 377.892 483.352 393.626 503.392 L 393.626 422.866 C 393.626 383.072 395.066 369.977 396.847 369.968 C 398.628 369.977 400.07 383.072 400.07 422.866 L 400.07 503.392 C 415.802 483.352 420.2 455.132 421.172 423.032 C 421.282 419.458 421.558 415.917 421.558 412.412 C 421.558 403.593 421.242 383.273 423.01 383.089 C 424.786 382.912 427.799 392.56 427.799 412.412 C 427.799 415.99 427.736 419.6 427.624 423.23 C 426.51 458.642 421.499 490.89 400.07 513.182 L 400.07 547.911 C 429.907 520.786 441.608 481.308 444.124 436.138 C 444.447 430.356 444.847 424.56 444.847 418.77 C 444.847 411.693 444.888 394.253 446.662 394.096 C 448.431 393.936 451.084 405.829 451.084 418.77 C 451.084 424.696 450.898 430.612 450.572 436.493 C 447.927 484.494 434.908 527.653 400.07 556.443 L 400.07 586.718 C 440.308 558.05 464.083 504.05 466.582 446.126 C 466.804 441.062 467.364 435.957 467.364 430.824 C 467.364 424.96 467.604 409.824 469.38 409.708 C 471.159 409.586 473.39 419.277 473.39 430.824 C 473.39 436.068 473.255 441.268 473.035 446.409 C 470.355 507.565 444.755 564.954 400.07 594.538 L 400.07 620.807 C 452.008 589.682 490.808 530.503 490.776 464.282 C 490.779 459.653 491.164 446.961 492.94 446.814 C 494.719 446.669 497.022 454.248 497.022 464.282 C 497.022 534.471 455.512 596.589 400.07 628.282 L 400.07 696.727 C 406.164 688.396 414.067 679.664 421.635 672.332 C 422.347 658.784 425.904 646.129 429.048 640.317 C 434.103 630.967 444.594 621.375 445.586 622.229 C 446.579 623.085 437.063 635.273 433.923 643.609 C 431.419 650.263 429.623 656.986 428.646 665.862 C 430.912 663.876 433.08 662.087 435.076 660.564 C 442.89 654.595 453.023 649.816 453.98 651.319 C 454.939 652.822 442.755 660.78 437.778 665.62 C 426.759 676.346 410.424 692.256 400.07 708.051 L 400.07 718.679 C 411.127 718.571 422.052 717.907 432.816 716.71 C 440.302 708.614 448.863 700.748 458.807 693.258 C 462.798 640.083 498.699 594.365 546.504 569.122 C 575.587 553.771 608.365 552.455 608.564 554.233 C 608.76 555.999 578.457 560.046 554.113 571.881 C 508.014 594.294 471.642 638.181 465.767 688.216 C 472.92 683.263 480.72 678.488 489.246 673.94 C 489.474 673.816 489.703 673.703 489.927 673.582 C 504.847 627.545 540.308 594.173 582.423 578.534 C 610.465 568.115 643.316 571.723 643.221 573.502 C 643.129 575.285 607.237 575.242 586.389 583.447 C 546.977 598.955 513.761 627.835 498.206 669.41 C 507.406 665.007 516.961 661.148 526.676 657.776 C 546.76 621.558 581.509 600.011 619.992 593.151 C 629.736 591.411 641.892 592.317 651.268 593.825 C 657.462 585.826 663.289 577.53 668.721 568.957 C 661.622 555.337 647.385 546.03 630.967 546.03 M 617.905 599.854 C 586.469 605.606 555.067 624.606 536.003 654.698 C 547.805 651 559.759 647.969 571.544 645.495 C 588.219 628.839 610.948 619.149 631.825 616.661 C 637.621 610.461 643.176 604.033 648.472 597.389 C 640.551 597.214 630.199 597.606 617.905 599.854 M 221.194 651.896 C 217.38 654.351 213.41 656.515 209.35 658.412 C 216.541 663.579 223.953 668.458 231.569 673.031 C 240.288 669.759 248.873 665.84 257.025 661.248 C 245.166 657.486 233.102 654.408 221.194 651.896 M 169.144 624.194 C 174.338 629.402 179.71 634.434 185.253 639.278 C 193.232 640.322 201.546 641.591 209.776 643.078 C 197.485 633.241 183.974 627.098 169.144 624.194 M 265.185 663.967 C 256.626 669.136 247.738 673.53 238.689 677.182 C 246.89 681.823 255.317 686.11 263.947 690.034 C 274.291 686.09 284.507 681.447 294.325 676.018 C 284.965 671.436 275.182 667.439 265.185 663.967 M 301.41 679.631 C 301.345 679.599 301.282 679.567 301.222 679.534 C 291.826 684.94 282.133 689.64 272.285 693.683 C 283.415 698.363 294.865 702.434 306.59 705.855 C 313.219 702.562 319.738 698.919 326.102 694.847 C 318.653 689.575 310.469 684.484 301.41 679.631 M 194.281 646.895 C 197.257 649.314 200.281 651.672 203.344 653.983 C 206.269 652.778 209.094 651.454 211.729 650.016 C 205.941 648.928 200.07 647.874 194.281 646.895 M 396.851 725.096 C 215.558 725.091 68.6066 578.139 68.5919 396.845 C 68.6066 215.556 215.558 68.6153 396.851 68.6073 C 578.135 68.6153 725.09 215.556 725.098 396.845 C 725.09 578.139 578.135 725.091 396.851 725.096 M 396.851 31.7314 C 195.19 31.7394 31.7294 195.19 31.7147 396.845 C 31.7294 598.506 195.19 761.964 396.851 761.975 C 598.5 761.964 761.968 598.506 761.977 396.845 C 761.968 195.19 598.5 31.7394 396.851 31.7314"
     style="fill:#000000;fill-opacity:1;fill-rule:nonzero;stroke:none"
     id="path13075" />
</svg>
