<?xml version="1.0" encoding="UTF-8" standalone="no"?>
<!-- Created with Inkscape (http://www.inkscape.org/) -->

<svg
   version="1.1"
   id="svg6111"
   width="793.70135"
   height="793.70135"
   viewBox="0 0 793.70135 793.70135"
   sodipodi:docname="Kajinoha Kiri.svg"
   inkscape:version="1.2 (dc2aeda, 2022-05-15)"
   xmlns:inkscape="http://www.inkscape.org/namespaces/inkscape"
   xmlns:sodipodi="http://sodipodi.sourceforge.net/DTD/sodipodi-0.dtd"
   xmlns="http://www.w3.org/2000/svg"
   xmlns:svg="http://www.w3.org/2000/svg">
  <defs
     id="defs6115">
    <clipPath
       clipPathUnits="userSpaceOnUse"
       id="clipPath6618">
      <path
         d="M -531.1924,581.5885 H 64.083594 V -13.6875 H -531.1924 Z"
         id="path6620"
         style="stroke-width:0.999998" />
    </clipPath>
    <clipPath
       clipPathUnits="userSpaceOnUse"
       id="clipPath6624">
      <path
         d="M -536.6982,584.5729 H 58.577799 V -10.7031 H -536.6982 Z"
         id="path6626"
         style="stroke-width:0.999998" />
    </clipPath>
    <clipPath
       clipPathUnits="userSpaceOnUse"
       id="clipPath6630">
      <path
         d="M -528.0898,575.3815 H 67.186194 V -19.8945 H -528.0898 Z"
         id="path6632"
         style="stroke-width:0.999998" />
    </clipPath>
    <clipPath
       clipPathUnits="userSpaceOnUse"
       id="clipPath6636">
      <path
         d="M -553.8975,585.8483 H 41.378499 V -9.4277027 H -553.8975 Z"
         id="path6638"
         style="stroke-width:0.999998" />
    </clipPath>
    <clipPath
       clipPathUnits="userSpaceOnUse"
       id="clipPath6642">
      <path
         d="M -548.9834,585.8522 H 46.292596 V -9.4238027 H -548.9834 Z"
         id="path6644"
         style="stroke-width:0.999998" />
    </clipPath>
    <clipPath
       clipPathUnits="userSpaceOnUse"
       id="clipPath6648">
      <path
         d="M -561.4131,585.8522 H 33.862898 V -9.4238027 H -561.4131 Z"
         id="path6650"
         style="stroke-width:0.999998" />
    </clipPath>
    <clipPath
       clipPathUnits="userSpaceOnUse"
       id="clipPath6654">
      <path
         d="M -557.0645,585.8483 H 38.211496 V -9.4277027 H -557.0645 Z"
         id="path6656"
         style="stroke-width:0.999998" />
    </clipPath>
    <clipPath
       clipPathUnits="userSpaceOnUse"
       id="clipPath6660">
      <path
         d="M -567.7754,585.8522 H 27.500596 V -9.4238027 H -567.7754 Z"
         id="path6662"
         style="stroke-width:0.999998" />
    </clipPath>
    <clipPath
       clipPathUnits="userSpaceOnUse"
       id="clipPath6666">
      <path
         d="M -564.5732,585.8483 H 30.702796 V -9.4277027 H -564.5732 Z"
         id="path6668"
         style="stroke-width:0.999998" />
    </clipPath>
    <clipPath
       clipPathUnits="userSpaceOnUse"
       id="clipPath6672">
      <path
         d="M -540.8213,585.8483 H 54.454696 V -9.4277027 H -540.8213 Z"
         id="path6674"
         style="stroke-width:0.999998" />
    </clipPath>
    <clipPath
       clipPathUnits="userSpaceOnUse"
       id="clipPath6678">
      <path
         d="M -542.9326,584.5729 H 52.343394 V -10.7031 H -542.9326 Z"
         id="path6680"
         style="stroke-width:0.999998" />
    </clipPath>
    <clipPath
       clipPathUnits="userSpaceOnUse"
       id="clipPath6684">
      <path
         d="M -574.5459,585.8522 H 20.730098 V -9.4238027 H -574.5459 Z"
         id="path6686"
         style="stroke-width:0.999998" />
    </clipPath>
    <clipPath
       clipPathUnits="userSpaceOnUse"
       id="clipPath6690">
      <path
         d="M -576.3691,585.5885 H 18.9069 V -9.6875027 h -595.276 z"
         id="path6692"
         style="stroke-width:0.999998" />
    </clipPath>
    <clipPath
       clipPathUnits="userSpaceOnUse"
       id="clipPath6696">
      <path
         d="M -557.4951,577.8502 H 37.780898 V -17.4258 H -557.4951 Z"
         id="path6698"
         style="stroke-width:0.999998" />
    </clipPath>
    <clipPath
       clipPathUnits="userSpaceOnUse"
       id="clipPath6702">
      <path
         d="M -556.4014,578.0143 H 38.874601 V -17.2617 H -556.4014 Z"
         id="path6704"
         style="stroke-width:0.999998" />
    </clipPath>
    <clipPath
       clipPathUnits="userSpaceOnUse"
       id="clipPath6708">
      <path
         d="M -586.5449,579.5026 H 8.7310952 V -15.7734 H -586.5449 Z"
         id="path6710"
         style="stroke-width:0.999998" />
    </clipPath>
    <clipPath
       clipPathUnits="userSpaceOnUse"
       id="clipPath6714">
      <path
         d="M -568.2266,575.819 H 27.049396 V -19.457003 H -568.2266 Z"
         id="path6716"
         style="stroke-width:0.999998" />
    </clipPath>
    <clipPath
       clipPathUnits="userSpaceOnUse"
       id="clipPath6720">
      <path
         d="M -550.2637,577.3248 H 45.012301 V -17.951198 H -550.2637 Z"
         id="path6722"
         style="stroke-width:0.999998" />
    </clipPath>
    <clipPath
       clipPathUnits="userSpaceOnUse"
       id="clipPath6726">
      <path
         d="M -584.1943,578.9381 H 11.0817 V -16.337903 h -595.276 z"
         id="path6728"
         style="stroke-width:0.999998" />
    </clipPath>
    <clipPath
       clipPathUnits="userSpaceOnUse"
       id="clipPath6733">
      <path
         d="M -538.2217,577.9479 H 57.054294 V -17.328098 H -538.2217 Z"
         id="path6735"
         style="stroke-width:0.999998" />
    </clipPath>
    <clipPath
       clipPathUnits="userSpaceOnUse"
       id="clipPath6739">
      <path
         d="m -300.4023,277.986 h 595.276 V -317.29 h -595.276 z"
         id="path6741"
         style="stroke-width:0.999998" />
    </clipPath>
    <clipPath
       clipPathUnits="userSpaceOnUse"
       id="clipPath6745">
      <path
         d="M -497.833,170.2389 H 97.442995 v -595.276 H -497.833 Z"
         id="path6747"
         style="stroke-width:0.999998" />
    </clipPath>
    <clipPath
       clipPathUnits="userSpaceOnUse"
       id="clipPath6751">
      <path
         d="M -572.8174,586.1354 H 22.458601 V -9.1406027 H -572.8174 Z"
         id="path6753"
         style="stroke-width:0.999998" />
    </clipPath>
    <clipPath
       clipPathUnits="userSpaceOnUse"
       id="clipPath6758">
      <path
         d="M -545.417,584.5729 H 49.858996 V -10.7031 H -545.417 Z"
         id="path6760"
         style="stroke-width:0.999998" />
    </clipPath>
  </defs>
  <sodipodi:namedview
     id="namedview6113"
     pagecolor="#ffffff"
     bordercolor="#000000"
     borderopacity="0.25"
     inkscape:showpageshadow="2"
     inkscape:pageopacity="0.0"
     inkscape:pagecheckerboard="0"
     inkscape:deskcolor="#d1d1d1"
     showgrid="false"
     inkscape:zoom="0.29734106"
     inkscape:cx="-215.24105"
     inkscape:cy="396.85068"
     inkscape:window-width="1419"
     inkscape:window-height="456"
     inkscape:window-x="0"
     inkscape:window-y="25"
     inkscape:window-maximized="0"
     inkscape:current-layer="svg6111">
    <inkscape:page
       x="0"
       y="0"
       id="page6117"
       width="793.70135"
       height="793.70135" />
  </sodipodi:namedview>
  <path
     d="M 400.536 370.648 C 423.621 370.137 442.156 364.856 458.564 357.244 C 468.296 357.643 478.429 358.779 489.021 360.816 C 493.973 399.976 508.754 436.264 529.078 465.704 C 550.326 496.482 567.152 506.17 568.481 504.725 C 569.812 503.282 548.117 481.953 537.205 465.728 C 516.968 435.619 501.653 400.949 496.334 362.353 C 505.954 364.544 515.946 367.46 526.349 371.252 C 526.426 371.276 526.497 371.305 526.564 371.331 C 533.213 407.031 547.468 440.173 565.618 467.884 C 586.513 499.797 613.97 519.946 615.271 518.482 C 616.571 517.013 590.732 494.581 573.293 467.73 C 556.352 441.646 541.42 408.999 534.341 374.348 C 544.734 378.575 554.942 383.572 564.87 389.117 C 569.576 417.772 580.596 444.313 595.274 466.441 C 614.391 495.264 642.863 513.857 644.07 512.312 C 645.27 510.764 620.495 491.368 604.587 468.504 C 590.372 448.076 578.301 421.415 572.873 393.731 C 584.35 400.573 595.405 408.065 605.878 415.855 C 608.773 437.287 618.199 457.177 630.965 471.397 C 643.726 485.608 661.39 493.685 662.398 492.01 C 663.411 490.332 646.87 480.088 635.999 467.646 C 627.837 458.302 617.707 439.185 614.109 422.123 C 630.791 435.123 647.854 449.118 659.365 460.49 C 670.873 471.86 691.745 493.917 693.222 492.628 C 694.701 491.334 677.527 469.868 663.183 455.649 C 652.101 444.665 636.954 431.108 621.234 418.676 C 644.713 422.571 663.918 433.548 680.017 451.065 C 696.115 468.581 703.743 495.513 705.63 495.006 C 707.514 494.496 702.763 466.884 685.189 446.545 C 668.709 427.48 640.635 412.081 610.507 410.444 C 600.153 402.731 589.21 395.291 577.829 388.447 C 616.205 382.025 654.086 393.592 681.013 414.783 C 706.202 434.603 714.803 453.19 716.494 452.196 C 718.183 451.212 703.998 424.287 688.038 411.605 C 655.227 385.537 612.877 373.121 568.702 383.156 C 559.062 377.757 549.129 372.848 538.994 368.62 C 584.413 351.055 631.761 356.925 672.394 377.48 C 693.889 388.349 719.157 417.327 720.697 416.116 C 722.237 414.897 702.07 385.787 673.669 370.717 C 631.023 348.081 578.369 343.653 529.704 364.964 C 529.444 364.869 529.184 364.765 528.924 364.675 C 519.142 361.093 509.692 358.259 500.544 356.077 C 546.146 324.572 608.155 322.124 659.227 343.069 C 686.195 354.129 710.909 375.64 712.235 374.203 C 713.567 372.755 689.374 347.267 656.15 334.935 C 601.534 314.661 538.336 318.819 491.461 354.119 C 484.326 352.719 477.389 351.731 470.622 351.075 C 512.712 327.615 543.614 291.466 611.939 291.466 C 686.533 291.466 722.778 330.237 726.351 358.688 C 727.422 367.212 726.021 375.5 723.034 382.953 C 742.388 387.62 757.65 403.988 759.931 424.917 C 762.175 445.526 751.178 464.518 733.762 473.433 C 735.199 477.282 736.183 481.37 736.65 485.645 C 739.675 513.401 719.622 538.364 691.862 541.389 C 684.855 542.152 678.03 541.441 671.69 539.513 C 661.627 549.897 648.019 556.966 632.523 558.654 C 604.803 561.676 579.289 546.588 567.756 522.876 C 553.348 524.573 538.618 521.154 525.648 513.128 C 511.954 504.66 508.953 489.329 503.58 483.638 C 501.032 480.953 496.793 480.842 494.11 483.389 C 491.424 485.933 491.313 490.176 493.86 492.857 C 500.941 500.521 516.113 516.312 519.262 521.57 C 527.646 535.581 529.145 551.556 524.517 565.802 C 538.284 577.154 546.474 594.409 545.05 613.073 C 543.617 631.829 532.798 647.703 517.344 656.813 C 517.344 684.43 494.056 706.815 465.335 706.815 C 461.263 706.815 457.309 706.351 453.508 705.503 L 453.513 705.506 C 442.441 724.612 421.223 737.547 396.849 737.547 C 372.477 737.547 351.257 724.612 340.185 705.506 L 340.191 705.503 C 336.391 706.351 332.438 706.815 328.364 706.815 C 299.644 706.815 276.356 684.43 276.356 656.813 C 260.9 647.703 250.083 631.829 248.65 613.073 C 247.226 594.409 255.416 577.154 269.182 565.802 C 264.555 551.556 266.055 535.581 274.438 521.57 C 277.587 516.312 292.758 500.521 299.84 492.857 C 302.387 490.176 302.276 485.933 299.59 483.389 C 296.906 480.842 292.667 480.953 290.119 483.638 C 284.747 489.329 281.744 504.66 268.052 513.128 C 255.08 521.154 240.351 524.573 225.946 522.876 C 214.41 546.588 188.897 561.676 161.175 558.654 C 145.679 556.966 132.073 549.897 122.01 539.513 C 115.67 541.441 108.843 542.152 101.838 541.389 C 74.0768 538.364 54.0235 513.401 57.0502 485.645 C 57.5155 481.37 58.5009 477.282 59.9382 473.433 C 42.5209 464.518 31.5236 445.526 33.7689 424.917 C 36.0502 403.988 51.3115 387.62 70.6675 382.953 C 67.6768 375.5 66.2795 367.212 67.3488 358.688 C 70.9222 330.237 107.167 291.466 181.761 291.466 C 250.086 291.466 280.988 327.615 323.078 351.075 C 316.311 351.731 309.374 352.719 302.238 354.119 C 255.364 318.819 192.165 314.661 137.55 334.935 C 104.326 347.267 80.1328 372.755 81.4635 374.203 C 82.7901 375.64 107.503 354.129 134.473 343.069 C 185.545 322.124 247.554 324.572 293.156 356.077 C 284.008 358.259 274.558 361.093 264.776 364.675 C 264.515 364.765 264.256 364.869 263.995 364.964 C 215.331 343.653 162.675 348.081 120.031 370.717 C 91.6288 385.787 71.4622 414.897 73.0035 416.116 C 74.5421 417.327 99.8114 388.349 121.306 377.48 C 161.939 356.925 209.286 351.055 254.706 368.62 C 244.57 372.848 234.638 377.757 224.998 383.156 C 180.823 373.121 138.473 385.537 105.662 411.605 C 89.7021 424.287 75.5155 451.212 77.2061 452.196 C 78.8968 453.19 87.4981 434.603 112.687 414.783 C 139.614 393.592 177.495 382.025 215.87 388.447 C 204.49 395.291 193.547 402.731 183.193 410.444 C 153.065 412.081 124.993 427.48 108.51 446.545 C 90.9381 466.884 86.1848 494.496 88.0674 495.006 C 89.9554 495.513 97.5834 468.581 113.682 451.065 C 129.782 433.548 148.987 422.571 172.463 418.676 C 156.745 431.108 141.599 444.665 130.515 455.649 C 116.173 469.868 98.9994 491.334 100.478 492.628 C 101.955 493.917 122.827 471.86 134.334 460.49 C 145.845 449.118 162.909 435.123 179.591 422.123 C 175.993 439.185 165.862 458.302 157.701 467.646 C 146.829 480.088 130.287 490.332 131.301 492.01 C 132.31 493.685 149.974 485.608 162.734 471.397 C 175.501 457.177 184.927 437.287 187.822 415.855 C 198.294 408.065 209.348 400.573 220.827 393.731 C 215.398 421.415 203.328 448.076 189.113 468.504 C 173.203 491.368 148.43 510.764 149.629 512.312 C 150.837 513.857 179.309 495.264 198.426 466.441 C 213.104 444.313 224.122 417.772 228.831 389.117 C 238.758 383.572 248.964 378.575 259.359 374.348 C 252.28 408.999 237.347 441.646 220.406 467.73 C 202.966 494.581 177.127 517.013 178.427 518.482 C 179.73 519.946 207.186 499.797 228.08 467.884 C 246.231 440.173 260.487 407.031 267.136 371.331 C 267.203 371.305 267.274 371.276 267.35 371.252 C 277.754 367.46 287.744 364.544 297.367 362.353 C 292.047 400.949 276.731 435.619 256.495 465.728 C 245.583 481.953 223.888 503.282 225.219 504.725 C 226.548 506.17 243.375 496.482 264.619 465.704 C 284.946 436.264 299.727 399.976 304.678 360.816 C 315.271 358.779 325.403 357.643 335.135 357.244 C 351.544 364.856 370.077 370.137 393.164 370.648 L 393.164 374.088 C 379.828 387.127 361.965 398.881 345.107 409.647 C 332.844 417.476 322.51 422.007 323.744 423.245 C 324.979 424.488 337.872 420.217 348.085 415.616 C 352.219 413.755 354.513 411.915 357.433 410.277 C 356.76 417.533 353.213 426.389 349.057 431.928 C 342.893 440.146 333.279 446.556 334.557 447.261 C 335.833 447.966 348.424 442.516 355.849 432.332 C 359.548 427.259 364.479 417.088 365.396 405.899 C 375.14 399.847 385.315 392.636 393.164 385.765 L 393.164 439.357 C 329.74 474.214 282.258 542.526 282.258 619.717 C 282.258 630.754 284.891 639.087 286.924 638.925 C 288.954 638.763 289.396 624.809 289.398 619.717 C 289.364 546.889 333.748 481.809 393.164 447.573 L 393.164 476.469 C 342.045 509.001 312.762 572.115 309.695 639.373 C 309.443 645.026 309.288 650.747 309.288 656.513 C 309.288 669.211 311.842 679.866 313.875 679.734 C 315.907 679.607 316.182 662.963 316.182 656.513 C 316.182 650.866 316.823 645.25 317.078 639.679 C 319.935 575.979 347.132 516.594 393.164 485.064 L 393.164 518.357 C 353.309 550.024 338.415 597.485 335.393 650.279 C 335.02 656.747 334.804 663.254 334.804 669.769 C 334.804 684.001 337.839 697.075 339.864 696.901 C 341.896 696.731 341.943 677.553 341.943 669.769 C 341.943 663.401 342.397 657.023 342.767 650.67 C 345.645 600.995 359.032 557.573 393.164 527.742 L 393.164 565.938 C 368.651 590.453 362.919 625.914 361.643 664.866 C 361.512 668.857 361.443 672.826 361.443 676.761 C 361.443 698.594 364.889 709.203 366.919 709.003 C 368.944 708.804 368.58 686.458 368.58 676.761 C 368.58 672.906 368.897 669.01 369.023 665.081 C 370.133 629.777 375.167 598.745 393.164 576.706 L 393.164 665.263 C 393.164 709.03 394.809 723.427 396.849 723.44 C 398.888 723.427 400.536 709.03 400.536 665.263 L 400.536 576.706 C 418.533 598.745 423.564 629.777 424.676 665.081 C 424.8 669.01 425.12 672.906 425.12 676.761 C 425.12 686.458 424.753 708.804 426.779 709.003 C 428.811 709.203 432.257 698.594 432.257 676.761 C 432.257 672.826 432.185 668.857 432.059 664.866 C 430.781 625.914 425.051 590.453 400.536 565.938 L 400.536 527.742 C 434.665 557.573 448.055 600.995 450.933 650.67 C 451.301 657.023 451.756 663.401 451.756 669.769 C 451.756 677.553 451.805 696.731 453.833 696.901 C 455.863 697.075 458.895 684.001 458.895 669.769 C 458.895 663.254 458.676 656.747 458.307 650.279 C 455.283 597.485 440.387 550.024 400.536 518.357 L 400.536 485.064 C 446.564 516.594 473.765 575.979 476.621 639.679 C 476.874 645.25 477.516 650.866 477.516 656.513 C 477.516 662.963 477.789 679.607 479.822 679.734 C 481.858 679.866 484.408 669.211 484.408 656.513 C 484.408 650.747 484.254 645.026 484.004 639.373 C 480.936 572.115 451.652 509.001 400.536 476.469 L 400.536 447.573 C 459.952 481.809 504.336 546.889 504.298 619.717 C 504.302 624.809 504.745 638.763 506.776 638.925 C 508.806 639.087 511.442 630.754 511.442 619.717 C 511.442 542.526 463.959 474.214 400.536 439.357 L 400.536 385.765 C 408.385 392.636 418.56 399.847 428.304 405.899 C 429.223 417.088 434.152 427.259 437.849 432.332 C 445.275 442.516 457.867 447.966 459.143 447.261 C 460.421 446.556 450.807 440.146 444.643 431.928 C 440.487 426.389 436.94 417.533 436.267 410.277 C 439.185 411.915 441.481 413.755 445.613 415.616 C 455.828 420.217 468.721 424.488 469.956 423.245 C 471.189 422.007 460.855 417.476 448.593 409.647 C 431.733 398.881 413.872 387.127 400.536 374.088 Z"
     style="fill:#000000;fill-opacity:1;fill-rule:nonzero;stroke:none"
     id="path6231" />
  <path
     d="M 663.777 226.985 C 660.666 212.268 643.338 203.47 625.072 207.333 C 609.085 210.714 597.681 222.672 597.17 235.47 L 568.835 238.418 C 579.864 225.469 589.428 211.714 596.979 197.261 C 609.976 200.026 624.793 191.349 631.868 175.965 C 639.828 158.659 634.98 139.432 621.037 133.02 C 607.096 126.607 589.341 135.44 581.38 152.744 C 574.317 168.101 577.349 184.962 587.863 193.052 C 578.991 209.12 567.359 224.353 554.003 238.334 C 554.003 238.334 545.927 222.304 540.408 211.35 C 550.708 203.85 554.383 187.842 548.465 172.7 C 541.669 155.312 524.805 145.649 510.797 151.127 C 496.788 156.601 490.94 175.133 497.735 192.522 C 503.635 207.62 517.127 216.885 529.749 215.481 C 535.739 227.373 545.532 246.814 545.532 246.814 C 541.076 251.089 536.472 255.233 531.743 259.224 C 492.343 292.614 443.304 314.309 403.806 316.546 L 403.806 292.309 L 437.132 261.257 C 448.639 266.296 464.188 262.049 474.823 250.033 C 487.447 235.768 488.365 215.957 476.872 205.789 C 465.38 195.618 445.831 198.94 433.207 213.202 C 422.564 225.229 420.243 241.194 426.663 252.005 L 403.806 273.301 L 403.806 199.642 L 427.066 181.572 C 437.835 187.93 453.708 185.67 465.732 175.152 C 480.068 162.609 483.501 143.079 473.395 131.529 C 463.292 119.979 443.478 120.785 429.14 133.327 C 416.99 143.957 412.676 159.607 417.798 171.164 L 403.806 182.033 L 403.806 131.485 C 417.432 127.571 427.594 112.421 427.594 94.3187 C 427.594 73.2414 413.83 56.1561 396.851 56.1561 C 379.871 56.1561 366.107 73.2414 366.107 94.3187 C 366.107 112.421 376.268 127.571 389.896 131.485 L 389.896 182.033 L 375.904 171.164 C 381.024 159.607 376.711 143.957 364.56 133.327 C 350.223 120.785 330.41 119.979 320.306 131.529 C 310.201 143.079 313.634 162.609 327.97 175.152 C 339.992 185.67 355.864 187.93 366.636 181.572 L 389.896 199.642 L 389.896 273.301 L 367.038 252.005 C 373.459 241.194 371.138 225.229 360.495 213.202 C 347.87 198.94 328.321 195.618 316.829 205.789 C 305.337 215.957 306.254 235.768 318.878 250.033 C 329.514 262.049 345.063 266.296 356.57 261.257 L 389.896 292.309 L 389.896 316.546 C 350.398 314.309 301.359 292.614 261.959 259.224 C 257.23 255.233 252.626 251.089 248.167 246.814 C 248.167 246.814 257.962 227.373 263.951 215.481 C 276.577 216.885 290.066 207.62 295.967 192.522 C 302.761 175.133 296.913 156.601 282.905 151.127 C 268.897 145.649 252.031 155.312 245.238 172.7 C 239.318 187.842 242.993 203.85 253.293 211.35 C 247.774 222.304 239.698 238.334 239.698 238.334 C 226.342 224.353 214.711 209.12 205.839 193.052 C 216.353 184.962 219.383 168.101 212.321 152.744 C 204.361 135.44 186.605 126.607 172.665 133.02 C 158.721 139.432 153.873 158.659 161.832 175.965 C 168.909 191.349 183.725 200.026 196.722 197.261 C 204.273 211.714 213.837 225.469 224.867 238.418 L 196.529 235.47 C 196.021 222.672 184.616 210.714 168.629 207.333 C 150.362 203.47 133.034 212.268 129.922 226.985 C 126.809 241.697 139.096 256.757 157.361 260.62 C 173.129 263.956 188.192 257.85 194.02 246.653 C 207.655 248.072 236.313 251.054 236.315 251.054 C 242.605 257.597 249.241 263.905 256.142 269.97 C 294.571 303.731 340.626 328.346 389.896 330.487 L 389.896 362.497 C 392.2 362.609 394.518 362.679 396.851 362.679 C 399.184 362.679 401.5 362.617 403.806 362.503 L 403.806 330.487 C 453.076 328.346 499.131 303.731 537.559 269.97 C 544.461 263.905 551.096 257.597 557.387 251.054 C 557.387 251.054 586.045 248.072 599.682 246.653 C 605.512 257.85 620.573 263.956 636.341 260.62 C 654.605 256.757 666.892 241.697 663.777 226.985"
     style="fill:#000000;fill-opacity:1;fill-rule:nonzero;stroke:none"
     id="path6235" />
</svg>
