<?xml version="1.0" encoding="UTF-8" standalone="no"?>
<!-- Created with Inkscape (http://www.inkscape.org/) -->

<svg
   version="1.1"
   id="svg10471"
   width="795.03467"
   height="793.70135"
   viewBox="0 0 795.03467 793.70135"
   sodipodi:docname="Kawari Tachi Kajinoha.svg"
   inkscape:version="1.2 (dc2aeda, 2022-05-15)"
   xmlns:inkscape="http://www.inkscape.org/namespaces/inkscape"
   xmlns:sodipodi="http://sodipodi.sourceforge.net/DTD/sodipodi-0.dtd"
   xmlns="http://www.w3.org/2000/svg"
   xmlns:svg="http://www.w3.org/2000/svg">
  <defs
     id="defs10475">
    <clipPath
       clipPathUnits="userSpaceOnUse"
       id="clipPath10978">
      <path
         d="M -536.6982,584.5729 H 59.577804 V -10.7031 H -536.6982 Z"
         id="path10980"
         style="stroke-width:0.999998" />
    </clipPath>
    <clipPath
       clipPathUnits="userSpaceOnUse"
       id="clipPath10984">
      <path
         d="M -540.8213,585.8483 H 55.454701 V -9.4277027 H -540.8213 Z"
         id="path10986"
         style="stroke-width:0.999998" />
    </clipPath>
    <clipPath
       clipPathUnits="userSpaceOnUse"
       id="clipPath10990">
      <path
         d="M -542.9326,584.5729 H 53.343399 V -10.7031 H -542.9326 Z"
         id="path10992"
         style="stroke-width:0.999998" />
    </clipPath>
    <clipPath
       clipPathUnits="userSpaceOnUse"
       id="clipPath10996">
      <path
         d="M -545.417,584.5729 H 50.859001 V -10.7031 H -545.417 Z"
         id="path10998"
         style="stroke-width:0.999998" />
    </clipPath>
    <clipPath
       clipPathUnits="userSpaceOnUse"
       id="clipPath11002">
      <path
         d="M -528.0898,575.3815 H 68.186199 V -19.8945 H -528.0898 Z"
         id="path11004"
         style="stroke-width:0.999998" />
    </clipPath>
    <clipPath
       clipPathUnits="userSpaceOnUse"
       id="clipPath11008">
      <path
         d="M -531.1924,581.5885 H 65.083599 V -13.6875 H -531.1924 Z"
         id="path11010"
         style="stroke-width:0.999998" />
    </clipPath>
    <clipPath
       clipPathUnits="userSpaceOnUse"
       id="clipPath11014">
      <path
         d="M -548.9834,585.8522 H 47.292601 V -9.4238027 H -548.9834 Z"
         id="path11016"
         style="stroke-width:0.999998" />
    </clipPath>
    <clipPath
       clipPathUnits="userSpaceOnUse"
       id="clipPath11020">
      <path
         d="M -553.8975,585.8483 H 42.378504 V -9.4277027 H -553.8975 Z"
         id="path11022"
         style="stroke-width:0.999998" />
    </clipPath>
    <clipPath
       clipPathUnits="userSpaceOnUse"
       id="clipPath11026">
      <path
         d="M -557.0645,585.8483 H 39.211501 V -9.4277027 H -557.0645 Z"
         id="path11028"
         style="stroke-width:0.999998" />
    </clipPath>
    <clipPath
       clipPathUnits="userSpaceOnUse"
       id="clipPath11032">
      <path
         d="M -561.4131,585.8522 H 34.862903 V -9.4238027 H -561.4131 Z"
         id="path11034"
         style="stroke-width:0.999998" />
    </clipPath>
    <clipPath
       clipPathUnits="userSpaceOnUse"
       id="clipPath11038">
      <path
         d="M -564.5732,585.8483 H 31.702801 V -9.4277027 H -564.5732 Z"
         id="path11040"
         style="stroke-width:0.999998" />
    </clipPath>
    <clipPath
       clipPathUnits="userSpaceOnUse"
       id="clipPath11044">
      <path
         d="M -567.7754,585.8522 H 28.500601 V -9.4238027 H -567.7754 Z"
         id="path11046"
         style="stroke-width:0.999998" />
    </clipPath>
    <clipPath
       clipPathUnits="userSpaceOnUse"
       id="clipPath11051">
      <path
         d="M -572.8174,586.1354 H 23.458606 V -9.1406027 H -572.8174 Z"
         id="path11053"
         style="stroke-width:0.999998" />
    </clipPath>
    <clipPath
       clipPathUnits="userSpaceOnUse"
       id="clipPath11057">
      <path
         d="M -574.5459,585.8522 H 21.730103 V -9.4238027 H -574.5459 Z"
         id="path11059"
         style="stroke-width:0.999998" />
    </clipPath>
    <clipPath
       clipPathUnits="userSpaceOnUse"
       id="clipPath11063">
      <path
         d="M -576.3691,585.5885 H 19.906905 V -9.6875027 H -576.3691 Z"
         id="path11065"
         style="stroke-width:0.999998" />
    </clipPath>
    <clipPath
       clipPathUnits="userSpaceOnUse"
       id="clipPath11069">
      <path
         d="M -557.4951,577.8502 H 38.780903 V -17.4258 H -557.4951 Z"
         id="path11071"
         style="stroke-width:0.999998" />
    </clipPath>
    <clipPath
       clipPathUnits="userSpaceOnUse"
       id="clipPath11075">
      <path
         d="M -568.2266,575.819 H 28.049401 V -19.457003 H -568.2266 Z"
         id="path11077"
         style="stroke-width:0.999998" />
    </clipPath>
    <clipPath
       clipPathUnits="userSpaceOnUse"
       id="clipPath11081">
      <path
         d="M -550.2637,577.3248 H 46.012306 V -17.951198 H -550.2637 Z"
         id="path11083"
         style="stroke-width:0.999998" />
    </clipPath>
    <clipPath
       clipPathUnits="userSpaceOnUse"
       id="clipPath11088">
      <path
         d="M -556.4014,578.0143 H 39.874606 V -17.2617 H -556.4014 Z"
         id="path11090"
         style="stroke-width:0.999998" />
    </clipPath>
    <clipPath
       clipPathUnits="userSpaceOnUse"
       id="clipPath11094">
      <path
         d="M -586.5449,579.5026 H 9.7311002 V -15.7734 H -586.5449 Z"
         id="path11096"
         style="stroke-width:0.999998" />
    </clipPath>
    <clipPath
       clipPathUnits="userSpaceOnUse"
       id="clipPath11100">
      <path
         d="M -584.1943,578.9381 H 12.081705 V -16.337903 H -584.1943 Z"
         id="path11102"
         style="stroke-width:0.999998" />
    </clipPath>
    <clipPath
       clipPathUnits="userSpaceOnUse"
       id="clipPath11106">
      <path
         d="M -538.2217,577.9479 H 58.054299 V -17.328098 H -538.2217 Z"
         id="path11108"
         style="stroke-width:0.999998" />
    </clipPath>
    <clipPath
       clipPathUnits="userSpaceOnUse"
       id="clipPath11112">
      <path
         d="m -514.6885,281.5367 h 596.276 v -595.276 h -596.276 z"
         id="path11114"
         style="stroke-width:0.999998" />
    </clipPath>
    <clipPath
       clipPathUnits="userSpaceOnUse"
       id="clipPath11118">
      <path
         d="m -353.7256,513.3531 h 596.276 v -595.276 h -596.276 z"
         id="path11120"
         style="stroke-width:0.999998" />
    </clipPath>
  </defs>
  <sodipodi:namedview
     id="namedview10473"
     pagecolor="#ffffff"
     bordercolor="#000000"
     borderopacity="0.25"
     inkscape:showpageshadow="2"
     inkscape:pageopacity="0.0"
     inkscape:pagecheckerboard="0"
     inkscape:deskcolor="#d1d1d1"
     showgrid="false"
     inkscape:zoom="0.29734106"
     inkscape:cx="-215.24105"
     inkscape:cy="396.85068"
     inkscape:window-width="1419"
     inkscape:window-height="456"
     inkscape:window-x="0"
     inkscape:window-y="25"
     inkscape:window-maximized="0"
     inkscape:current-layer="svg10471">
    <inkscape:page
       x="0"
       y="0"
       id="page10477"
       width="795.03467"
       height="793.70135" />
  </sodipodi:namedview>
  <path
     d="M 686.251 375.382 C 668.079 376.677 643.566 380.663 620.175 385.057 C 637.314 394.394 661.03 399.826 675 399.826 C 693.608 399.826 714.556 393.569 715.23 395.611 C 715.899 397.655 695.962 406.407 674.448 406.685 C 652.936 406.966 629.082 400.399 608.762 387.327 C 594.391 390.355 579.839 394.067 565.533 398.609 C 593.033 414.093 624.59 423.365 652.448 426.371 C 683.634 429.734 718.442 423.277 718.86 425.386 C 719.278 427.494 682.41 437.579 643.792 432.569 C 614.153 428.721 583.475 418.673 555.689 401.886 C 543.629 406.077 531.827 410.901 520.533 416.425 C 555.17 435.581 593.923 446.804 628.598 451.636 C 664.292 456.615 702.472 451.472 702.751 453.606 C 703.024 455.735 665.59 463.86 623.038 458.082 C 586.087 453.071 547.415 440.933 512.218 420.666 C 512.142 420.705 512.063 420.743 511.991 420.785 C 501.058 426.638 491.186 432.779 482.197 439.141 C 518.863 462.592 559.618 474.963 600.153 479.976 C 622 482.68 656.167 480.16 656.402 482.298 C 656.642 484.435 635.954 491.335 594.111 486.67 C 554.077 482.206 512.347 468.227 475.473 444.067 C 437.73 472.718 417.118 505.602 402.725 538.299 C 410.538 538.516 418.249 539.147 425.828 540.202 C 447.776 523.651 473.577 515.599 499.167 515.602 C 508.869 515.602 518.541 516.751 527.97 519.03 C 536.066 520.994 544.273 523.707 552.134 527.452 C 578.951 540.227 601.446 562.791 599.994 564.382 C 598.543 565.967 577.439 547.798 554.161 537.023 C 544.827 532.702 535.446 528.843 526.139 526.604 C 517.314 524.472 508.249 523.388 499.167 523.394 C 477.582 523.394 455.892 529.49 436.77 542.02 C 447.312 544.062 457.58 546.88 467.497 550.436 C 480.293 545.548 493.287 543.24 506.087 543.24 C 527.202 543.252 548.054 548.86 566.167 560.155 C 593.879 577.436 611.295 603.88 609.579 605.181 C 607.863 606.477 592.282 584.785 565.973 568.996 C 547.593 557.97 526.827 551.015 506.087 551.03 C 497.03 551.03 487.902 552.272 478.796 554.871 C 492.333 560.634 505.147 567.783 517.046 576.136 C 538.989 578.204 558.765 587.103 574.077 600.761 C 598.855 622.865 608.989 651.569 607.079 652.556 C 605.167 653.54 596.257 629.136 570.73 606.853 C 559.847 597.357 544.983 589.967 530.385 586.296 C 541.218 595.272 550.965 605.455 559.965 616.272 C 577.869 637.793 583.29 655.957 581.379 656.949 C 579.467 657.933 570.73 640.173 554.506 621.133 C 544.718 609.652 532.699 597.825 520.366 588.245 C 522.863 606.412 530.454 621.928 540.897 636.048 C 554.506 654.449 571.954 669.509 570.585 671.168 C 569.814 672.092 546.285 659.857 530.811 635.353 C 520.525 619.064 513.293 602.469 511.913 582.051 C 499.413 573.348 485.88 566.02 471.536 560.291 C 472.721 577.113 482.276 595.993 493.718 614.431 C 509.293 639.521 542.038 671.007 540.483 672.463 C 538.931 673.917 524.653 663.967 500.983 636.753 C 495.825 630.821 491.265 624.4 486.939 618.015 C 473.582 598.256 464.028 577.405 463.634 557.332 C 453.044 553.614 442.054 550.759 430.741 548.838 C 431.061 569.004 439.856 588.52 450.23 605.992 C 467.325 634.761 490.431 654.035 488.394 656.621 C 486.361 659.209 461.916 637.575 443.418 609.007 C 431.681 590.873 422.965 570.335 422.926 547.672 C 414.39 546.566 405.689 545.98 396.85 545.98 C 388.012 545.98 379.314 546.566 370.776 547.672 C 370.738 570.335 362.02 590.873 350.283 609.007 C 331.788 637.575 307.343 659.209 305.309 656.621 C 303.276 654.035 326.383 634.761 343.471 605.992 C 353.848 588.52 362.642 569.004 362.962 548.838 C 351.651 550.759 340.661 553.614 330.069 557.332 C 329.679 577.405 320.121 598.256 306.763 618.015 C 302.44 624.4 297.88 630.821 292.721 636.753 C 269.052 663.967 254.773 673.917 253.219 672.463 C 251.667 671.007 284.411 639.521 299.989 614.431 C 311.429 595.993 320.981 577.113 322.167 560.291 C 307.825 566.02 294.291 573.348 281.791 582.051 C 280.411 602.469 273.181 619.064 262.892 635.353 C 247.419 659.857 223.891 672.092 223.116 671.168 C 221.749 669.509 239.197 654.449 252.809 636.048 C 263.249 621.928 270.84 606.412 273.337 588.245 C 261.004 597.825 248.987 609.652 239.197 621.133 C 222.973 640.173 214.236 657.933 212.326 656.949 C 210.414 655.957 215.835 637.793 233.739 616.272 C 242.739 605.455 252.484 595.272 263.32 586.296 C 248.724 589.967 233.853 597.357 222.973 606.853 C 197.443 629.136 188.536 653.54 186.624 652.556 C 184.716 651.569 194.851 622.865 219.627 600.761 C 234.94 587.103 254.713 578.204 276.659 576.136 C 288.557 567.783 301.372 560.634 314.908 554.871 C 305.801 552.272 296.673 551.03 287.616 551.03 C 266.877 551.015 246.109 557.97 227.733 568.996 C 201.422 584.785 185.84 606.477 184.124 605.181 C 182.408 603.88 199.826 577.436 227.536 560.155 C 245.648 548.86 266.501 543.252 287.616 543.24 C 300.416 543.24 313.413 545.548 326.208 550.436 C 336.121 546.88 346.392 544.062 356.937 542.02 C 337.812 529.49 316.121 523.394 294.536 523.394 C 285.452 523.388 276.392 524.472 267.564 526.604 C 258.257 528.843 248.877 532.702 239.544 537.023 C 216.266 547.798 195.159 565.967 193.711 564.382 C 192.258 562.791 214.752 540.227 241.569 527.452 C 249.432 523.707 257.64 520.994 265.733 519.03 C 275.161 516.751 284.833 515.602 294.536 515.602 C 320.127 515.599 345.929 523.651 367.877 540.202 C 375.454 539.147 383.166 538.516 390.978 538.299 C 376.582 505.602 355.97 472.718 318.228 444.067 C 281.353 468.227 239.627 482.206 199.594 486.67 C 157.75 491.335 137.062 484.435 137.299 482.298 C 137.536 480.16 171.7 482.68 193.552 479.976 C 234.083 474.963 274.837 462.592 311.504 439.141 C 302.517 432.779 292.645 426.638 281.713 420.785 C 281.637 420.743 281.561 420.705 281.487 420.666 C 246.288 440.933 207.616 453.071 170.667 458.082 C 128.112 463.86 90.6792 455.735 90.9525 453.606 C 91.2312 451.472 129.408 456.615 165.107 451.636 C 199.78 446.804 238.536 435.581 273.168 416.425 C 261.877 410.901 250.072 406.077 238.012 401.886 C 210.226 418.673 179.552 428.721 149.911 432.569 C 111.294 437.579 74.4272 427.494 74.8432 425.386 C 75.2632 423.277 110.07 429.734 141.258 426.371 C 169.112 423.365 200.671 414.093 228.171 398.609 C 213.862 394.067 199.31 390.355 184.943 387.327 C 164.622 400.399 140.766 406.966 119.255 406.685 C 97.7418 406.407 77.8019 397.655 78.4739 395.611 C 79.1485 393.569 100.096 399.826 118.7 399.826 C 132.674 399.826 156.391 394.394 173.528 385.057 C 150.135 380.663 125.622 376.677 107.45 375.382 C 89.2792 374.082 55.1019 372.773 55.1019 370.621 C 55.1019 368.467 86.0338 367.161 108.724 368.739 C 126.255 369.962 148.976 372.679 171.168 376.686 C 150.466 360.122 126.919 352.187 100.135 351.541 C 73.3512 350.887 44.8539 364.021 43.8886 362.097 C 42.9246 360.171 69.8645 344.174 100.135 344.01 C 128.518 343.858 162.386 355.921 186.099 379.605 C 200.315 382.587 214.734 386.245 228.976 390.707 C 205.979 354.401 168.096 331.478 130.167 324.542 C 94.6871 318.053 72.5525 324.362 72.1379 322.251 C 71.7219 320.143 105.072 312.429 127.651 316.454 C 174.075 324.729 215.998 350.727 240.225 394.421 C 251.947 398.486 263.476 403.142 274.572 408.454 C 255.804 358.298 215.734 323.458 168.187 304.749 C 143.039 294.849 99.7365 294.9 99.6218 292.752 C 99.5098 290.605 139.146 286.25 172.976 298.82 C 223.78 317.687 266.559 357.947 284.561 413.483 C 284.833 413.631 285.112 413.769 285.383 413.918 C 295.671 419.403 305.077 425.165 313.705 431.139 C 306.624 370.778 262.741 317.833 207.127 290.794 C 177.76 276.517 141.2 271.636 141.438 269.5 C 141.676 267.361 181.222 268.946 216.304 287.465 C 273.976 317.915 317.291 373.074 322.101 437.221 C 357.21 463.675 378.317 493.91 392.962 523.992 L 392.962 455.072 C 380.47 436.017 360.768 416.821 347.471 403.885 C 341.468 398.041 326.771 388.441 327.924 386.63 C 329.083 384.814 341.307 390.579 350.733 397.781 C 353.14 399.623 355.757 401.778 358.492 404.173 C 357.314 393.466 355.145 385.358 352.124 377.327 C 348.337 367.269 336.861 352.566 338.055 351.535 C 339.252 350.503 351.908 362.077 358.006 373.353 C 361.798 380.366 366.09 395.633 366.946 411.978 C 376.077 420.823 385.609 431.361 392.962 441.407 L 392.962 358.835 C 326.08 320.602 276.001 245.664 276.001 160.987 C 276.001 148.879 278.783 139.739 280.927 139.913 C 283.067 140.091 283.533 155.4 283.536 160.987 C 283.497 240.876 330.304 312.269 392.962 349.819 L 392.962 318.126 C 339.057 282.437 308.173 213.202 304.94 139.424 C 304.673 133.221 304.515 126.948 304.515 120.623 C 304.515 106.695 307.2 95.0027 309.348 95.1467 C 311.495 95.2867 311.783 113.547 311.783 120.623 C 311.783 126.815 312.46 132.976 312.725 139.085 C 315.736 208.964 344.421 274.109 392.962 308.697 L 392.962 272.174 C 350.937 237.437 335.228 185.372 332.039 127.461 C 331.648 120.364 331.421 113.229 331.421 106.08 C 331.421 90.4694 334.619 76.1227 336.76 76.3147 C 338.897 76.5054 338.947 97.5414 338.947 106.08 C 338.947 113.065 339.427 120.06 339.817 127.031 C 342.851 181.525 356.97 229.154 392.962 261.88 L 392.962 219.98 C 367.113 193.088 361.069 154.185 359.724 111.461 C 359.588 107.077 359.512 102.727 359.512 98.4107 C 359.512 74.4614 363.148 62.8214 365.288 63.0388 C 367.424 63.2561 367.041 87.7707 367.041 98.4107 C 367.041 102.639 367.374 106.911 367.506 111.224 C 368.678 149.951 373.984 183.99 392.962 208.168 L 392.962 111.021 C 392.962 63.0161 394.702 47.2188 396.85 47.2055 C 399.001 47.2188 400.738 63.0161 400.738 111.021 L 400.738 208.168 C 419.718 183.99 425.025 149.951 426.197 111.224 C 426.33 106.911 426.664 102.639 426.664 98.4107 C 426.664 87.7707 426.28 63.2561 428.416 63.0388 C 430.557 62.8214 434.192 74.4614 434.192 98.4107 C 434.192 102.727 434.116 107.077 433.981 111.461 C 432.637 154.185 426.593 193.088 400.738 219.98 L 400.738 261.88 C 436.733 229.154 450.85 181.525 453.888 127.031 C 454.276 120.06 454.757 113.065 454.757 106.08 C 454.757 97.5414 454.806 76.5054 456.946 76.3147 C 459.085 76.1227 462.282 90.4694 462.282 106.08 C 462.282 113.229 462.057 120.364 461.664 127.461 C 458.476 185.372 442.768 237.437 400.738 272.174 L 400.738 308.697 C 449.282 274.109 477.965 208.964 480.978 139.085 C 481.246 132.976 481.924 126.815 481.924 120.623 C 481.924 113.547 482.213 95.2867 484.356 95.1467 C 486.501 95.0027 489.191 106.695 489.191 120.623 C 489.191 126.948 489.03 133.221 488.765 139.424 C 485.528 213.202 454.648 282.437 400.738 318.126 L 400.738 349.819 C 463.397 312.269 510.207 240.876 510.167 160.987 C 510.17 155.4 510.637 140.091 512.778 139.913 C 514.923 139.739 517.699 148.879 517.699 160.987 C 517.699 245.664 467.624 320.602 400.738 358.835 L 400.738 441.407 C 408.093 431.361 417.626 420.823 426.754 411.978 C 427.613 395.633 431.905 380.366 435.697 373.353 C 441.796 362.077 454.452 350.503 455.648 351.535 C 456.845 352.566 445.366 367.269 441.58 377.327 C 438.558 385.358 436.39 393.466 435.213 404.173 C 437.945 401.778 440.561 399.623 442.97 397.781 C 452.397 390.579 464.621 384.814 465.778 386.63 C 466.934 388.441 452.233 398.041 446.233 403.885 C 432.937 416.821 413.233 436.017 400.738 455.072 L 400.738 523.992 C 415.385 493.91 436.494 463.675 471.601 437.221 C 476.413 373.074 519.725 317.915 577.397 287.465 C 612.483 268.946 652.027 267.361 652.267 269.5 C 652.503 271.636 615.945 276.517 586.577 290.794 C 530.962 317.833 487.082 370.778 480 431.139 C 488.626 425.165 498.035 419.403 508.319 413.918 C 508.593 413.769 508.871 413.631 509.145 413.483 C 527.142 357.947 569.923 317.687 620.727 298.82 C 654.56 286.25 694.191 290.605 694.079 292.752 C 693.964 294.9 650.666 294.849 625.516 304.749 C 577.97 323.458 537.897 358.298 519.131 408.454 C 530.225 403.142 541.754 398.486 553.478 394.421 C 577.707 350.727 619.626 324.729 666.051 316.454 C 688.631 312.429 721.983 320.143 721.566 322.251 C 721.15 324.362 699.016 318.053 663.538 324.542 C 625.611 331.478 587.727 354.401 564.727 390.707 C 578.967 386.245 593.387 382.587 607.603 379.605 C 631.319 355.921 665.186 343.858 693.568 344.01 C 723.842 344.174 750.779 360.171 749.814 362.097 C 748.847 364.021 720.352 350.887 693.568 351.541 C 666.784 352.187 643.235 360.122 622.535 376.686 C 644.73 372.679 667.448 369.962 684.978 368.739 C 707.67 367.161 738.603 368.467 738.603 370.621 C 738.603 372.773 704.426 374.082 686.251 375.382 M 760.813 369.685 C 760.813 348.634 747.623 330.675 729.06 323.595 C 730.087 319.55 730.634 315.315 730.634 310.95 C 730.634 282.596 707.65 259.609 679.292 259.609 C 672.139 259.609 665.324 261.077 659.136 263.721 C 647.836 254.349 633.327 248.71 617.499 248.71 C 589.186 248.71 565.093 266.745 556.058 291.953 C 538.623 291.796 521.667 299.061 508.197 312.191 C 496.855 323.242 492.314 339.018 487.825 343.517 C 484.785 346.561 479.85 346.557 476.809 343.517 C 473.77 340.475 473.768 335.546 476.809 332.502 C 480.224 329.087 507.887 302.91 513.038 295.334 C 524.066 279.112 527.238 259.868 523.109 242.161 C 540.178 229.661 551.27 209.484 551.27 186.708 C 551.27 163.823 540.066 143.563 522.853 131.075 C 523.554 127.587 523.923 123.981 523.923 120.289 C 523.923 89.9987 499.363 65.4401 469.074 65.4401 C 464.78 65.4401 460.613 65.9481 456.609 66.8788 C 444.93 45.9162 422.554 31.7295 396.85 31.7295 C 371.15 31.7295 348.773 45.9162 337.096 66.8801 C 333.091 65.9481 328.925 65.4401 324.629 65.4401 C 294.34 65.4401 269.783 89.9987 269.783 120.289 C 269.783 123.981 270.151 127.587 270.851 131.075 C 253.637 143.563 242.435 163.823 242.435 186.708 C 242.435 209.484 253.525 229.661 270.596 242.161 C 266.465 259.868 269.637 279.112 280.667 295.334 C 285.815 302.91 313.481 329.087 316.892 332.502 C 319.937 335.546 319.935 340.475 316.892 343.517 C 313.851 346.557 308.916 346.561 305.88 343.517 C 301.391 339.018 296.848 323.242 285.507 312.191 C 272.036 299.061 255.08 291.796 237.648 291.953 C 228.612 266.745 204.518 248.71 176.206 248.71 C 160.375 248.71 145.867 254.349 134.564 263.721 C 128.38 261.077 121.567 259.609 114.414 259.609 C 86.0578 259.609 63.0699 282.596 63.0699 310.95 C 63.0699 315.315 63.6192 319.55 64.6432 323.595 C 46.0806 330.675 32.8913 348.634 32.8913 369.685 C 32.8913 391.063 46.4979 409.262 65.5179 416.103 C 61.6819 423.299 59.5006 431.509 59.5006 440.23 C 59.5006 468.583 82.4872 491.57 110.843 491.57 C 114.632 491.57 118.326 491.15 121.88 490.368 C 133.84 505.298 152.216 514.866 172.831 514.866 C 188.362 514.866 202.614 509.428 213.823 500.374 C 225.052 505.604 238.055 507.166 251.039 504.048 C 271.211 499.203 287.189 489.528 292.017 488.928 C 296.348 488.394 300.385 491.138 301.093 495.443 C 301.801 499.743 298.656 502.955 294.583 504.516 C 290.033 506.263 281.84 507.318 264.728 507.564 C 245.039 507.844 227.692 517.587 217.504 532.81 C 190.419 537.124 169.716 560.582 169.716 588.884 C 169.716 602.047 174.211 614.159 181.728 623.788 C 177.466 630.351 174.979 638.171 174.979 646.576 C 174.979 669.693 193.722 688.436 216.838 688.436 C 225.684 688.436 233.891 685.684 240.651 680.999 C 248.895 692.493 262.356 699.992 277.58 699.992 C 294.656 699.992 309.517 690.567 317.28 676.647 C 332.588 676.1 347.26 667.827 355.312 653.499 C 363.924 637.8 380.126 628.917 396.85 628.903 C 413.574 628.917 429.778 637.8 438.392 653.499 C 446.445 667.827 461.113 676.1 476.424 676.647 C 484.181 690.567 499.051 699.992 516.121 699.992 C 531.345 699.992 544.809 692.493 553.054 680.999 C 559.817 685.684 568.019 688.436 576.866 688.436 C 599.983 688.436 618.725 669.693 618.725 646.576 C 618.725 638.171 616.241 630.351 611.975 623.788 C 619.497 614.159 623.991 602.047 623.991 588.884 C 623.991 560.582 603.282 537.124 576.199 532.81 C 566.014 517.587 548.663 507.844 528.973 507.564 C 511.863 507.318 503.67 506.263 499.121 504.516 C 495.049 502.955 491.902 499.743 492.611 495.443 C 493.317 491.138 497.355 488.394 501.683 488.928 C 506.511 489.528 522.491 499.203 542.666 504.048 C 555.65 507.166 568.65 505.604 579.885 500.374 C 591.087 509.428 605.342 514.866 620.874 514.866 C 641.491 514.866 659.863 505.298 671.822 490.368 C 675.379 491.15 679.068 491.57 682.86 491.57 C 711.218 491.57 734.204 468.583 734.204 440.23 C 734.204 431.509 732.022 423.299 728.183 416.103 C 747.21 409.262 760.813 391.063 760.813 369.685"
     style="fill:#000000;fill-opacity:1;fill-rule:nonzero;stroke:none"
     id="path10591" />
  <path
     d="M 471.634 684.471 C 463.161 683.455 454.986 680.4 447.85 675.552 C 443.421 678.886 438.834 682.386 434.491 685.776 C 417.29 699.2 415.825 698.57 412.257 702.138 C 408.691 705.703 400.717 704.864 403.656 694.375 C 406.121 685.58 409.91 667.484 413.543 640.838 C 408.339 638.398 402.642 637.094 396.858 637.083 C 387.492 637.099 378.348 640.46 371.189 646.668 C 370.244 654.351 369.202 662.458 368.21 669.416 C 365.273 689.971 358.736 706.534 356.462 711.364 C 353.106 718.498 343.4 728.512 356.044 734.44 C 369.468 740.731 384.44 751.353 389.184 755.832 C 396.736 762.965 405.543 765.903 418.129 752.059 C 427.069 742.223 460.413 713.34 482.902 696.616 C 478.551 693.174 474.738 689.083 471.634 684.471"
     style="fill:#000000;fill-opacity:1;fill-rule:nonzero;stroke:none"
     id="path10595" />
</svg>
