<?xml version="1.0" encoding="UTF-8" standalone="no"?>
<!-- Created with Inkscape (http://www.inkscape.org/) -->

<svg
   version="1.1"
   id="svg12137"
   width="795.03467"
   height="793.70135"
   viewBox="0 0 795.03467 793.70135"
   sodipodi:docname="Maruni Suwa Kajinoha.svg"
   inkscape:version="1.2 (dc2aeda, 2022-05-15)"
   xmlns:inkscape="http://www.inkscape.org/namespaces/inkscape"
   xmlns:sodipodi="http://sodipodi.sourceforge.net/DTD/sodipodi-0.dtd"
   xmlns="http://www.w3.org/2000/svg"
   xmlns:svg="http://www.w3.org/2000/svg">
  <defs
     id="defs12141">
    <clipPath
       clipPathUnits="userSpaceOnUse"
       id="clipPath12630">
      <path
         d="M -531.1924,581.5885 H 65.083599 V -13.6875 H -531.1924 Z"
         id="path12632"
         style="stroke-width:0.999998" />
    </clipPath>
    <clipPath
       clipPathUnits="userSpaceOnUse"
       id="clipPath12636">
      <path
         d="M -528.0898,575.3815 H 68.186199 V -19.8945 H -528.0898 Z"
         id="path12638"
         style="stroke-width:0.999998" />
    </clipPath>
    <clipPath
       clipPathUnits="userSpaceOnUse"
       id="clipPath12642">
      <path
         d="M -536.6982,584.5729 H 59.577804 V -10.7031 H -536.6982 Z"
         id="path12644"
         style="stroke-width:0.999998" />
    </clipPath>
    <clipPath
       clipPathUnits="userSpaceOnUse"
       id="clipPath12648">
      <path
         d="M -540.8213,585.8483 H 55.454701 V -9.4277027 H -540.8213 Z"
         id="path12650"
         style="stroke-width:0.999998" />
    </clipPath>
    <clipPath
       clipPathUnits="userSpaceOnUse"
       id="clipPath12654">
      <path
         d="M -542.9326,584.5729 H 53.343399 V -10.7031 H -542.9326 Z"
         id="path12656"
         style="stroke-width:0.999998" />
    </clipPath>
    <clipPath
       clipPathUnits="userSpaceOnUse"
       id="clipPath12660">
      <path
         d="M -545.417,584.5729 H 50.859001 V -10.7031 H -545.417 Z"
         id="path12662"
         style="stroke-width:0.999998" />
    </clipPath>
    <clipPath
       clipPathUnits="userSpaceOnUse"
       id="clipPath12666">
      <path
         d="M -548.9834,585.8522 H 47.292601 V -9.4238027 H -548.9834 Z"
         id="path12668"
         style="stroke-width:0.999998" />
    </clipPath>
    <clipPath
       clipPathUnits="userSpaceOnUse"
       id="clipPath12672">
      <path
         d="M -553.8975,585.8483 H 42.378504 V -9.4277027 H -553.8975 Z"
         id="path12674"
         style="stroke-width:0.999998" />
    </clipPath>
    <clipPath
       clipPathUnits="userSpaceOnUse"
       id="clipPath12678">
      <path
         d="M -557.0645,585.8483 H 39.211501 V -9.4277027 H -557.0645 Z"
         id="path12680"
         style="stroke-width:0.999998" />
    </clipPath>
    <clipPath
       clipPathUnits="userSpaceOnUse"
       id="clipPath12684">
      <path
         d="M -561.4131,585.8522 H 34.862903 V -9.4238027 H -561.4131 Z"
         id="path12686"
         style="stroke-width:0.999998" />
    </clipPath>
    <clipPath
       clipPathUnits="userSpaceOnUse"
       id="clipPath12690">
      <path
         d="M -564.5732,585.8483 H 31.702801 V -9.4277027 H -564.5732 Z"
         id="path12692"
         style="stroke-width:0.999998" />
    </clipPath>
    <clipPath
       clipPathUnits="userSpaceOnUse"
       id="clipPath12696">
      <path
         d="M -567.7754,585.8522 H 28.500601 V -9.4238027 H -567.7754 Z"
         id="path12698"
         style="stroke-width:0.999998" />
    </clipPath>
    <clipPath
       clipPathUnits="userSpaceOnUse"
       id="clipPath12703">
      <path
         d="M -572.8174,586.1354 H 23.458606 V -9.1406027 H -572.8174 Z"
         id="path12705"
         style="stroke-width:0.999998" />
    </clipPath>
    <clipPath
       clipPathUnits="userSpaceOnUse"
       id="clipPath12709">
      <path
         d="M -574.5459,585.8522 H 21.730103 V -9.4238027 H -574.5459 Z"
         id="path12711"
         style="stroke-width:0.999998" />
    </clipPath>
    <clipPath
       clipPathUnits="userSpaceOnUse"
       id="clipPath12715">
      <path
         d="M -576.3691,585.5885 H 19.906905 V -9.6875027 H -576.3691 Z"
         id="path12717"
         style="stroke-width:0.999998" />
    </clipPath>
    <clipPath
       clipPathUnits="userSpaceOnUse"
       id="clipPath12721">
      <path
         d="M -557.4951,577.8502 H 38.780903 V -17.4258 H -557.4951 Z"
         id="path12723"
         style="stroke-width:0.999998" />
    </clipPath>
    <clipPath
       clipPathUnits="userSpaceOnUse"
       id="clipPath12727">
      <path
         d="M -568.2266,575.819 H 28.049401 V -19.457003 H -568.2266 Z"
         id="path12729"
         style="stroke-width:0.999998" />
    </clipPath>
    <clipPath
       clipPathUnits="userSpaceOnUse"
       id="clipPath12733">
      <path
         d="M -550.2637,577.3248 H 46.012306 V -17.951198 H -550.2637 Z"
         id="path12735"
         style="stroke-width:0.999998" />
    </clipPath>
    <clipPath
       clipPathUnits="userSpaceOnUse"
       id="clipPath12740">
      <path
         d="M -556.4014,578.0143 H 39.874606 V -17.2617 H -556.4014 Z"
         id="path12742"
         style="stroke-width:0.999998" />
    </clipPath>
    <clipPath
       clipPathUnits="userSpaceOnUse"
       id="clipPath12746">
      <path
         d="M -586.5449,579.5026 H 9.7311002 V -15.7734 H -586.5449 Z"
         id="path12748"
         style="stroke-width:0.999998" />
    </clipPath>
    <clipPath
       clipPathUnits="userSpaceOnUse"
       id="clipPath12752">
      <path
         d="M -584.1943,578.9381 H 12.081705 V -16.337903 H -584.1943 Z"
         id="path12754"
         style="stroke-width:0.999998" />
    </clipPath>
    <clipPath
       clipPathUnits="userSpaceOnUse"
       id="clipPath12758">
      <path
         d="M -538.2217,577.9479 H 58.054299 V -17.328098 H -538.2217 Z"
         id="path12760"
         style="stroke-width:0.999998" />
    </clipPath>
    <clipPath
       clipPathUnits="userSpaceOnUse"
       id="clipPath12764">
      <path
         d="m -238.5088,156.7286 h 596.276 v -595.276 h -596.276 z"
         id="path12766"
         style="stroke-width:0.999998" />
    </clipPath>
  </defs>
  <sodipodi:namedview
     id="namedview12139"
     pagecolor="#ffffff"
     bordercolor="#000000"
     borderopacity="0.25"
     inkscape:showpageshadow="2"
     inkscape:pageopacity="0.0"
     inkscape:pagecheckerboard="0"
     inkscape:deskcolor="#d1d1d1"
     showgrid="false"
     inkscape:zoom="0.29734106"
     inkscape:cx="-215.24105"
     inkscape:cy="396.85068"
     inkscape:window-width="1419"
     inkscape:window-height="456"
     inkscape:window-x="0"
     inkscape:window-y="25"
     inkscape:window-maximized="0"
     inkscape:current-layer="svg12137">
    <inkscape:page
       x="0"
       y="0"
       id="page12143"
       width="795.03467"
       height="793.70135" />
  </sodipodi:namedview>
  <path
     d="M 318.012 208.971 C 317.424 205.555 316.225 202.622 312.457 199.015 C 308.225 194.964 301.301 192.356 301.457 191.834 C 301.613 191.316 310.637 193.551 315.66 198.068 C 319.299 201.339 321.763 205.436 322.692 210.232 C 325.919 211.11 329.277 212.03 332.739 212.986 C 331.981 205.279 328.84 198.144 322.864 191.984 C 316.723 185.656 307.053 181.592 307.197 181.12 C 307.337 180.648 318.364 183.502 326.04 190.907 C 333.4 198.003 336.799 205.496 337.379 214.274 C 340.648 215.18 343.991 216.115 347.381 217.068 C 346.76 209.044 344.116 201.404 338.567 193.364 C 333.085 185.426 322.931 179.335 323.457 178.724 C 323.981 178.115 335.911 183.09 343.356 194.224 C 348.984 202.644 351.52 210.178 351.999 218.371 C 354.791 219.159 357.608 219.958 360.436 220.766 C 359.452 208.356 356.056 200.398 349.984 190.718 C 343.059 179.674 331.184 171.886 331.835 171.29 C 332.488 170.698 348.007 179.874 355.476 192.196 C 360.593 200.642 364.444 211.42 365.116 222.102 L 392.72 230.166 C 392.749 226.572 392.78 222.912 392.817 219.218 C 388.613 218.696 385.048 217.092 381.684 213.123 C 377.697 208.415 377.001 202.046 377.687 201.732 C 378.369 201.42 379.58 206.982 384.152 210.702 C 386.978 213 389.733 213.966 392.866 214.352 C 392.926 208.702 392.993 202.991 393.072 197.298 C 381.613 193.378 371.085 186.21 363.528 178.464 C 352.496 167.166 347.543 148.667 348.405 148.187 C 349.269 147.707 353.9 162.095 363.707 172.456 C 372.304 181.542 379.897 187.394 393.145 192.154 C 393.189 189.044 393.236 185.948 393.288 182.883 C 384.488 179.912 377.077 175.06 369.712 166.808 C 359.976 155.891 358.441 142.303 359.28 141.957 C 360.119 141.61 363.455 153.736 370.343 161.696 C 377.317 169.754 384.806 174.748 393.376 177.816 C 393.444 174.09 393.517 170.418 393.593 166.832 C 384.187 163.584 377.105 157.872 371.755 148.267 C 366.171 138.246 366.66 126.217 367.223 126.217 C 367.785 126.217 369.064 137.238 373.973 145.376 C 378.755 153.296 385.53 158.64 393.706 161.743 C 393.793 157.95 393.886 154.268 393.985 150.735 C 389.042 148.339 385.372 144.603 382.985 139.929 C 379.692 133.471 380.2 123.653 380.819 123.653 C 381.439 123.653 382.028 131.454 385.072 136.969 C 387.782 141.879 390.597 143.982 394.14 145.612 C 394.793 124.549 395.681 111.749 396.845 111.749 C 398.012 111.749 398.897 124.549 399.553 145.612 C 403.093 143.982 405.91 141.879 408.621 136.969 C 411.662 131.454 412.252 123.653 412.872 123.653 C 413.493 123.653 414.001 133.471 410.705 139.929 C 408.318 144.603 404.648 148.339 399.705 150.735 C 399.804 154.268 399.897 157.95 399.985 161.743 C 408.162 158.64 414.938 153.296 419.717 145.376 C 424.626 137.238 425.905 126.217 426.468 126.217 C 427.033 126.217 427.52 138.246 421.936 148.267 C 416.588 157.872 409.506 163.584 400.097 166.832 C 400.176 170.418 400.246 174.09 400.314 177.816 C 408.884 174.748 416.376 169.754 423.35 161.696 C 430.236 153.736 433.572 141.61 434.41 141.957 C 435.252 142.303 433.714 155.891 423.978 166.808 C 416.613 175.06 409.205 179.912 400.402 182.883 C 400.454 185.948 400.501 189.044 400.548 192.154 C 413.796 187.394 421.386 181.542 429.985 172.456 C 439.79 162.095 444.424 147.707 445.285 148.187 C 446.148 148.667 441.194 167.166 430.165 178.464 C 422.605 186.21 412.08 193.378 400.621 197.298 C 400.7 202.991 400.766 208.702 400.824 214.352 C 403.957 213.966 406.714 213 409.538 210.702 C 414.113 206.982 415.321 201.42 416.006 201.732 C 416.689 202.046 415.996 208.415 412.006 213.123 C 408.642 217.092 405.08 218.696 400.876 219.218 C 400.91 222.912 400.944 226.572 400.973 230.166 L 428.574 222.102 C 429.249 211.42 433.1 200.642 438.217 192.196 C 445.684 179.874 461.205 170.698 461.856 171.29 C 462.506 171.886 450.634 179.674 443.706 190.718 C 437.634 200.398 434.238 208.356 433.254 220.766 C 436.085 219.958 438.9 219.159 441.694 218.371 C 442.17 210.178 444.706 202.644 450.334 194.224 C 457.78 183.09 469.709 178.115 470.236 178.724 C 470.76 179.335 460.605 185.426 455.124 193.364 C 449.577 201.404 446.933 209.044 446.309 217.068 C 449.7 216.115 453.045 215.18 456.314 214.274 C 456.894 205.496 460.29 198.003 467.65 190.907 C 475.329 183.502 486.353 180.648 486.493 181.12 C 486.637 181.592 476.968 185.656 470.829 191.984 C 464.85 198.144 461.709 205.279 460.954 212.986 C 464.413 212.03 467.774 211.11 470.998 210.232 C 471.929 205.436 474.392 201.339 478.03 198.068 C 483.053 193.551 492.077 191.316 492.233 191.834 C 492.389 192.356 485.468 194.964 481.236 199.015 C 477.468 202.622 476.269 205.555 475.681 208.971 C 494.933 203.806 506.706 201.09 507.001 202.068 C 507.293 203.048 495.965 207.248 477.04 213.515 C 479.408 216.044 482.022 217.836 487.154 218.779 C 492.916 219.836 500.132 218.215 500.29 218.734 C 500.444 219.255 491.673 222.346 484.996 221.332 C 480.16 220.598 475.85 218.53 472.436 215.032 C 469.262 216.074 465.946 217.152 462.533 218.254 C 467.397 224.275 473.944 228.511 482.324 230.372 C 490.93 232.286 501.241 230.368 501.381 230.839 C 501.522 231.311 490.744 234.986 480.26 233.02 C 470.212 231.136 463.257 226.743 457.949 219.731 C 454.717 220.767 451.41 221.824 448.05 222.891 C 452.984 229.252 459.389 234.184 468.446 237.85 C 477.386 241.47 489.217 240.978 489.113 241.776 C 489.009 242.575 476.309 244.974 463.973 239.763 C 454.642 235.824 448.384 230.922 443.481 224.339 C 440.714 225.218 437.921 226.098 435.116 226.978 C 442.757 236.804 449.968 241.587 460.361 246.336 C 472.217 251.756 486.418 251.738 486.2 252.592 C 485.981 253.446 467.973 254.308 454.962 248.119 C 446.045 243.876 436.902 236.988 430.47 228.435 L 401.025 237.466 C 401.08 245.34 401.113 252.8 401.134 259.563 C 404.264 262.782 407.392 266.01 410.476 269.202 C 417.498 265.492 424.722 263.855 434.069 264.399 C 445.752 265.083 454.298 271.915 454.017 272.586 C 453.738 273.256 444.996 268.27 436.6 267.651 C 427.596 266.988 420.2 268.603 413.274 272.104 C 416.946 275.913 420.525 279.649 423.929 283.221 C 431.454 279.287 438.993 278.315 447.876 280.856 C 456.7 283.381 463.22 290.471 462.9 290.789 C 462.582 291.108 455.632 285.585 448.254 283.748 C 440.65 281.856 433.413 282.867 426.712 286.149 C 430.036 289.655 433.162 292.98 436.001 296.035 C 440.454 294.252 444.976 294.184 449.264 295.583 C 454.777 297.379 460.036 303.228 459.684 303.579 C 459.332 303.928 454.593 299.84 449.754 298.436 C 444.981 297.051 442.077 297.691 438.777 299.033 C 447.061 308.031 456.954 318.827 456.41 319.368 C 455.866 319.911 445.1 309.985 436.129 301.673 C 434.774 304.971 434.126 307.871 435.496 312.651 C 436.889 317.493 440.962 322.245 440.61 322.596 C 440.26 322.944 434.426 317.669 432.645 312.152 C 431.26 307.857 431.342 303.339 433.137 298.891 C 430.093 296.044 426.774 292.904 423.28 289.571 C 419.976 296.264 418.944 303.499 420.814 311.108 C 422.632 318.489 428.132 325.456 427.812 325.775 C 427.493 326.092 420.421 319.552 417.924 310.721 C 415.41 301.829 416.402 294.293 420.361 286.781 C 416.796 283.368 413.072 279.776 409.274 276.095 C 405.752 283.008 404.113 290.396 404.752 299.405 C 405.345 307.804 410.306 316.559 409.637 316.836 C 408.962 317.115 402.157 308.551 401.509 296.865 C 400.99 287.517 402.65 280.296 406.378 273.284 C 404.645 271.6 400.46 267.512 398.709 265.808 L 394.981 265.808 C 393.233 267.512 389.048 271.6 387.314 273.284 C 391.04 280.296 392.702 287.517 392.184 296.865 C 391.533 308.551 384.728 317.115 384.056 316.836 C 383.384 316.559 388.345 307.804 388.938 299.405 C 389.577 290.396 387.938 283.008 384.419 276.095 C 380.619 279.776 376.895 283.368 373.329 286.781 C 377.288 294.293 378.283 301.829 375.767 310.721 C 373.269 319.552 366.197 326.092 365.879 325.775 C 365.561 325.456 371.061 318.489 372.876 311.108 C 374.747 303.499 373.715 296.264 370.411 289.571 C 366.919 292.904 363.6 296.044 360.556 298.891 C 362.348 303.339 362.431 307.857 361.045 312.152 C 359.264 317.669 353.431 322.944 353.08 322.596 C 352.731 322.245 356.804 317.493 358.195 312.651 C 359.564 307.871 358.916 304.971 357.564 301.673 C 348.591 309.985 337.824 319.911 337.283 319.368 C 336.739 318.827 346.629 308.031 354.916 299.033 C 351.616 297.691 348.712 297.051 343.939 298.436 C 339.097 299.84 334.359 303.928 334.007 303.579 C 333.655 303.228 338.913 297.379 344.429 295.583 C 348.717 294.184 353.236 294.252 357.692 296.035 C 360.528 292.98 363.657 289.655 366.979 286.149 C 360.277 282.867 353.04 281.856 345.436 283.748 C 338.059 285.585 331.111 291.108 330.791 290.789 C 330.473 290.471 336.991 283.381 345.815 280.856 C 354.7 278.315 362.239 279.287 369.763 283.221 C 373.165 279.649 376.747 275.913 380.416 272.104 C 373.491 268.603 366.097 266.988 357.091 267.651 C 348.695 268.27 339.952 273.256 339.673 272.586 C 339.395 271.915 347.939 265.083 359.621 264.399 C 368.968 263.855 376.195 265.492 383.217 269.202 C 386.298 266.01 389.429 262.782 392.558 259.563 C 392.577 252.8 392.613 245.34 392.665 237.466 L 363.22 228.435 C 356.788 236.988 347.645 243.876 338.731 248.119 C 325.717 254.308 307.709 253.446 307.491 252.592 C 307.272 251.738 321.476 251.756 333.329 246.336 C 343.723 241.587 350.933 236.804 358.577 226.978 C 355.769 226.098 352.976 225.218 350.209 224.339 C 345.309 230.922 339.048 235.824 329.72 239.763 C 317.381 244.974 304.681 242.575 304.577 241.776 C 304.473 240.978 316.304 241.47 325.247 237.85 C 334.301 234.184 340.707 229.252 345.643 222.891 C 342.283 221.824 338.973 220.767 335.744 219.731 C 330.433 226.743 323.481 231.136 313.431 233.02 C 302.947 234.986 292.168 231.311 292.309 230.839 C 292.449 230.368 302.76 232.286 311.367 230.372 C 319.749 228.511 326.293 224.275 331.16 218.254 C 327.744 217.152 324.429 216.074 321.255 215.032 C 317.843 218.53 313.533 220.598 308.697 221.332 C 302.017 222.346 293.249 219.255 293.403 218.734 C 293.559 218.215 300.777 219.836 306.539 218.779 C 311.668 217.836 314.283 216.044 316.651 213.515 C 297.728 207.248 286.4 203.048 286.692 202.068 C 286.985 201.09 298.76 203.806 318.012 208.971 M 277.564 234.702 C 281.215 239.194 291.452 244.582 291.452 244.582 C 291.452 244.582 289.471 246.963 288.277 254.267 C 287.392 259.675 287.931 263.71 287.931 263.71 C 287.931 263.71 303.327 264.078 315.911 262.096 C 329.004 260.032 338.867 255.191 343.908 252.732 C 344.359 252.584 344.843 252.826 344.991 253.275 C 345.143 253.722 344.897 254.207 344.449 254.355 C 339.799 256.143 332.627 259.552 326.76 263.53 C 316.447 270.524 305.867 282.899 305.867 282.899 C 305.867 282.899 309.184 285.321 312.772 287.204 C 316.359 289.087 320.036 290.163 320.036 290.163 C 320.036 290.163 315.799 294.199 313.22 304.241 C 313.22 304.241 319.564 308.255 329.004 309.173 C 329.004 309.173 328.015 312.401 328.015 317.873 C 328.015 322.715 329.361 327.287 329.361 327.287 C 329.361 327.287 334.001 328.373 338.837 328.101 C 344.299 327.793 347.468 326.627 347.468 326.627 C 348.916 335.999 353.277 342.108 353.277 342.108 C 363.16 338.971 366.949 334.512 366.949 334.512 C 366.949 334.512 368.231 338.123 370.315 341.599 C 372.395 345.073 374.999 348.251 374.999 348.251 C 374.999 348.251 386.76 336.991 393.162 326.301 C 394.49 324.088 395.73 321.701 396.848 319.331 C 397.96 321.701 399.202 324.088 400.53 326.301 C 406.933 336.991 418.694 348.251 418.694 348.251 C 418.694 348.251 421.298 345.073 423.378 341.599 C 425.462 338.123 426.741 334.512 426.741 334.512 C 426.741 334.512 430.533 338.971 440.416 342.108 C 440.416 342.108 444.777 335.999 446.225 326.627 C 446.225 326.627 449.394 327.793 454.856 328.101 C 459.692 328.373 464.332 327.287 464.332 327.287 C 464.332 327.287 465.676 322.715 465.676 317.873 C 465.676 312.401 464.692 309.173 464.692 309.173 C 474.129 308.255 480.473 304.241 480.473 304.241 C 477.894 294.199 473.657 290.163 473.657 290.163 C 473.657 290.163 477.334 289.087 480.921 287.204 C 484.506 285.321 487.826 282.899 487.826 282.899 C 487.826 282.899 477.244 270.524 466.93 263.53 C 461.066 259.552 453.894 256.143 449.241 254.355 C 448.793 254.207 448.55 253.722 448.702 253.275 C 448.853 252.826 449.334 252.584 449.782 252.732 C 454.173 254.847 462.288 258.102 470.058 261.142 C 480.392 265.184 495.588 266.738 495.588 266.738 C 495.588 266.738 496.457 263.503 496.088 257.272 C 495.645 249.884 494.702 247.172 494.702 247.172 C 494.702 247.172 505.738 243.71 510.14 239.946 C 510.14 239.946 508.358 229.23 505.08 223.13 C 505.08 223.13 514.16 213.592 516.342 206.05 C 512.65 199.119 501.796 191.663 501.796 191.663 C 503.746 185.016 503.274 174.164 503.274 174.164 C 498.194 171.387 486.681 170.276 486.681 170.276 C 486.681 170.276 487.042 167.431 485.949 160.111 C 485.028 153.935 483.506 150.95 483.506 150.95 C 483.506 150.95 469.373 155.738 459.684 161.696 C 449.714 167.827 441.241 176.368 438.252 179.486 C 437.916 179.834 437.426 179.975 437.033 179.695 C 436.64 179.418 436.542 178.871 436.824 178.476 C 440.296 174.887 446.954 167.519 451.418 158.882 C 456.978 148.12 460.386 131.799 460.386 131.799 C 460.386 131.799 454.648 131.082 447.832 130.902 C 441.017 130.722 438.326 130.545 438.326 130.545 C 438.326 130.545 435.277 121.038 432.946 115.119 C 432.946 115.119 422.004 115.479 414.832 116.555 C 414.832 116.555 404.788 105.615 396.848 102.391 C 388.905 105.615 378.861 116.555 378.861 116.555 C 371.687 115.479 360.747 115.119 360.747 115.119 C 358.416 121.038 355.367 130.545 355.367 130.545 C 355.367 130.545 352.676 130.722 345.861 130.902 C 339.045 131.082 333.307 131.799 333.307 131.799 C 333.307 131.799 336.715 148.12 342.275 158.882 C 346.739 167.519 353.395 174.887 356.869 178.476 C 357.148 178.871 357.053 179.418 356.66 179.695 C 356.267 179.975 355.775 179.834 355.441 179.486 C 352.496 176.278 348.449 172.308 338.957 164.619 C 329.988 157.356 319.739 151.931 319.739 151.931 C 319.739 151.931 317.707 154.595 315.692 160.506 C 313.301 167.508 313.148 170.374 313.148 170.374 C 313.148 170.374 301.621 169.4 296.127 171.22 C 296.127 171.22 293.712 181.811 294.439 188.699 C 294.439 188.699 282.421 194.086 277.545 200.24 C 278.337 208.052 285.559 219.064 285.559 219.064 C 281.236 224.478 277.564 234.702 277.564 234.702 M 224.778 456.073 C 224.33 456.106 223.434 449.005 225.482 444.14 C 227.072 440.357 229.81 437.286 233.687 435.281 C 233.275 431.51 232.848 427.377 232.414 423.005 C 226.166 425.661 221.158 430.038 217.936 436.401 C 214.81 442.573 214.471 450.642 214.064 450.672 C 213.652 450.702 212.655 441.994 216.171 434.418 C 219.71 426.794 224.87 422.182 232.056 419.346 C 231.622 414.874 231.182 410.188 230.747 405.396 C 224.215 408.076 218.7 412.202 213.796 418.797 C 209.22 424.942 207.45 433.929 206.824 433.721 C 206.195 433.516 206.58 423.568 213.064 415.12 C 218.252 408.361 223.682 404.364 230.416 401.737 C 230.054 397.719 229.695 393.643 229.343 389.571 C 224.7 385.532 219.588 381.068 214.2 376.343 L 190.455 391.232 C 192.51 400.749 191.81 411.142 189.422 419.804 C 185.936 432.448 174.622 444.325 173.903 443.969 C 173.184 443.609 181.652 433.846 184.982 422.461 C 187.898 412.478 188.9 404.669 186.687 393.56 C 184.411 394.968 182.14 396.367 179.892 397.749 C 181.502 405.039 181.148 412.268 178.307 421.03 C 174.546 432.628 165.335 439.94 164.726 439.536 C 164.111 439.13 171.494 431.281 174.324 422.97 C 177.195 414.557 177.614 407.213 176.174 400.031 C 173.439 401.708 170.742 403.355 168.106 404.961 C 169.77 412.789 168.655 420.193 163.968 428.229 C 159.08 436.614 150.135 441.846 149.892 441.466 C 149.652 441.09 157.111 435.136 160.919 428.073 C 164.627 421.197 165.608 414.169 164.362 407.237 C 161.57 408.929 158.854 410.57 156.247 412.136 C 156.622 416.568 155.479 420.762 153.106 424.528 C 149.827 429.729 142.479 433.924 142.212 433.508 C 141.947 433.09 147.362 429.088 150.064 424.494 C 152.468 420.404 152.791 417.536 152.46 414.401 C 136.882 423.693 127.247 428.989 126.747 428.205 C 126.25 427.421 135.127 420.934 150.146 410.76 C 147.444 409.13 144.71 408.208 139.984 408.656 C 134.676 409.156 128.762 412.369 128.494 411.95 C 128.228 411.533 135.143 406.653 141.242 405.888 C 145.658 405.331 149.944 406.073 153.799 408.289 C 156.322 406.591 158.958 404.825 161.674 403.013 C 155.919 398.948 149.14 396.86 141.34 397.308 C 133.33 397.767 124.778 402 124.539 401.62 C 124.296 401.245 132.824 395.355 142.491 394.477 C 151.758 393.639 158.936 395.761 165.322 400.585 C 167.892 398.877 170.528 397.133 173.203 395.365 C 167.31 391.017 160.476 388.288 151.64 387.321 C 142.911 386.367 132.676 389.729 132.57 389.005 C 132.46 388.279 142.988 383.032 155.083 384.537 C 164.228 385.675 170.924 388.416 176.846 392.964 C 179.051 391.511 181.278 390.049 183.518 388.581 C 174.392 381.871 166.892 379.472 156.616 377.888 C 144.892 376.079 132.463 379.615 132.442 378.813 C 132.422 378.012 147.976 372.792 160.9 374.989 C 169.76 376.496 179.471 380.261 187.223 386.156 L 209.207 371.959 C 206.752 369.8 204.252 367.601 201.728 365.376 C 198.867 367.959 195.643 369.456 190.908 369.409 C 185.294 369.352 180.496 366.037 180.69 365.381 C 180.879 364.724 185.428 367.201 190.712 366.269 C 193.976 365.693 196.28 364.371 198.411 362.444 C 194.556 359.04 190.668 355.593 186.796 352.151 C 177.275 357.704 166.075 360.679 156.247 361.273 C 141.9 362.136 126.223 354.535 126.403 353.655 C 126.588 352.775 139.247 358.152 152.215 357.571 C 163.588 357.061 172.138 355.321 183.299 349.037 C 181.184 347.155 179.083 345.279 177.002 343.42 C 169.72 347.709 161.968 349.92 151.906 350.075 C 138.595 350.277 128.327 343.245 128.591 342.459 C 128.848 341.675 139.184 346.603 148.762 346.599 C 158.46 346.597 166.354 344.415 173.57 340.341 C 171.043 338.077 168.562 335.843 166.138 333.655 C 158.302 338.195 150.155 339.667 140.359 337.631 C 130.14 335.508 122.151 328.011 122.486 327.623 C 122.819 327.235 131.168 332.917 139.69 334.384 C 147.988 335.809 155.7 334.328 162.703 330.545 C 160.146 328.228 157.666 325.972 155.294 323.801 C 150.703 325.776 145.944 326.079 141.307 324.939 C 134.9 323.363 128.444 317.167 128.818 316.74 C 129.184 316.313 134.906 320.553 140.512 321.74 C 145.504 322.797 148.63 322.112 151.859 320.647 C 137.752 307.655 129.471 299.425 130.163 298.621 C 130.856 297.82 140.195 304.832 155.083 316.92 C 156.067 313.512 156.296 310.321 154.531 305.532 C 152.548 300.156 147.531 295.105 147.898 294.677 C 148.267 294.252 155.327 299.748 157.81 305.86 C 159.606 310.284 159.991 315.037 158.698 319.865 C 161.19 321.899 163.778 324.027 166.442 326.224 C 169.174 318.749 169.531 310.904 166.924 302.9 C 164.244 294.676 157.422 287.236 157.758 286.847 C 158.091 286.461 166.66 293.285 170.234 303.095 C 173.66 312.496 173.376 320.769 170.012 329.176 C 172.526 331.259 175.095 333.393 177.7 335.565 C 180.69 327.841 181.712 319.712 180.319 310.115 C 178.939 300.639 172.58 291.123 173.318 290.753 C 174.056 290.381 182.494 299.527 184.21 312.728 C 185.504 322.709 184.434 330.699 181.239 338.523 C 183.379 340.313 185.539 342.121 187.706 343.943 C 192.318 331.991 192.81 323.283 191.674 311.956 C 190.382 299.037 183.236 287.285 184.08 286.977 C 184.924 286.668 194.707 301.092 195.916 315.409 C 196.747 325.223 195.414 336.735 191.288 346.955 C 195.255 350.289 199.226 353.643 203.148 356.967 C 204.747 354.581 205.726 352.109 205.824 348.796 C 205.986 343.433 202.879 339.291 203.502 339.005 C 204.122 338.721 208.095 342.993 208.96 348.54 C 209.69 353.219 208.671 356.625 206.528 359.829 C 209.094 362.005 211.63 364.161 214.119 366.28 L 225.002 342.483 C 218.051 335.66 212.927 326.592 210.16 318.041 C 206.127 305.565 209.051 289.423 209.846 289.328 C 210.643 289.232 208.934 302.043 212.411 313.384 C 215.46 323.325 218.916 330.401 226.87 338.467 C 227.999 336.037 229.124 333.623 230.244 331.232 C 224.892 326.027 221.215 319.795 218.77 310.908 C 215.539 299.157 219.218 287.985 219.95 287.987 C 220.682 287.989 218.83 298.6 221.031 307.1 C 223.262 315.707 226.944 322.073 232.095 327.28 C 233.46 324.379 234.807 321.519 236.127 318.731 C 230.431 313.105 227.299 306.308 226.796 297.017 C 226.27 287.325 230.87 278.037 231.28 278.221 C 231.687 278.404 228.731 287.477 229.428 295.471 C 230.111 303.253 233.152 309.663 238.004 314.769 C 239.406 311.821 240.772 308.959 242.091 306.217 C 239.343 302.721 237.988 298.588 237.906 294.137 C 237.786 287.991 241.619 280.448 242.07 280.649 C 242.52 280.853 240.195 287.171 240.463 292.496 C 240.703 297.235 242.01 299.807 244.01 302.243 C 251.916 285.919 257.053 276.199 257.903 276.581 C 258.752 276.961 254.9 287.26 247.947 304.013 C 251.095 303.888 253.887 303.157 257.591 300.187 C 261.747 296.852 264.928 290.919 265.376 291.12 C 265.827 291.324 262.736 299.199 258.061 303.193 C 254.679 306.084 250.69 307.819 246.25 308.084 C 245.075 310.888 243.846 313.813 242.57 316.821 C 249.611 317.055 256.424 315.073 262.695 310.415 C 269.135 305.628 273.952 297.389 274.361 297.573 C 274.769 297.76 270.881 307.365 263.288 313.409 C 256.009 319.204 248.846 321.376 240.859 320.853 C 239.648 323.693 238.406 326.603 237.14 329.548 C 244.455 329.94 251.663 328.467 259.577 324.416 C 267.392 320.419 274.095 311.983 274.585 312.529 C 275.072 313.076 269.163 323.245 258.228 328.633 C 249.968 332.709 242.867 334.101 235.419 333.556 C 234.374 335.98 233.318 338.428 232.252 340.885 C 243.564 341.473 251.148 339.357 260.605 335.032 C 271.395 330.1 279.835 320.316 280.293 320.975 C 280.752 321.633 270.624 334.54 258.619 339.811 C 250.39 343.42 240.207 345.612 230.488 344.945 L 219.176 370.589 C 224.627 375.24 229.78 379.657 234.45 383.669 C 238.528 383.432 242.611 383.201 246.643 382.979 C 248.272 375.937 251.444 369.988 257.384 363.883 C 264.809 356.248 274.6 354.433 274.895 355.025 C 275.189 355.617 266.553 358.665 261.129 364.076 C 255.312 369.88 252.02 375.929 250.31 382.779 C 255.113 382.523 259.817 382.28 264.304 382.065 C 266.075 374.545 269.892 368.776 276.931 364.175 C 283.921 359.608 292.684 359.341 292.712 359.751 C 292.741 360.159 284.804 361.655 279.145 365.639 C 273.317 369.744 269.705 375.329 267.976 381.893 C 272.364 381.693 276.517 381.52 280.307 381.387 C 281.733 377.26 284.376 374.109 287.892 371.989 C 292.411 369.263 299.567 369.125 299.597 369.576 C 299.632 370.028 293.993 370.856 290.148 373.349 C 286.353 375.811 285.064 378.191 284.025 381.261 C 295.151 380.916 308.468 380.532 308.517 381.229 C 308.567 381.928 295.327 383.428 284.264 384.656 C 285.728 387.549 287.337 389.721 291.444 391.624 C 295.605 393.549 301.301 393.576 301.332 394.025 C 301.364 394.475 294.26 395.349 289.403 393.289 C 285.624 391.685 282.561 388.941 280.567 385.057 C 276.796 385.457 272.66 385.872 268.285 386.292 C 270.924 392.551 275.291 397.568 281.64 400.809 C 287.804 403.956 295.872 404.317 295.9 404.727 C 295.931 405.136 287.217 406.107 279.655 402.571 C 272.039 399.008 267.444 393.836 264.629 386.64 C 260.157 387.061 255.465 387.487 250.674 387.909 C 253.332 394.448 257.444 399.973 264.025 404.899 C 270.157 409.492 279.137 411.289 278.928 411.914 C 278.72 412.541 268.775 412.128 260.343 405.617 C 253.603 400.409 249.622 394.969 247.015 388.228 C 244.824 388.42 239.518 388.868 237.304 389.055 L 235.086 391.621 C 235.218 393.84 235.539 399.156 235.666 401.349 C 242.71 402.959 248.668 406.117 254.793 412.036 C 262.447 419.44 264.291 429.221 263.7 429.521 C 263.108 429.817 260.039 421.19 254.611 415.781 C 248.788 409.978 242.728 406.708 235.876 405.019 C 236.148 409.82 236.403 414.524 236.63 419.01 C 244.155 420.757 249.934 424.56 254.559 431.585 C 259.148 438.56 259.439 447.322 259.031 447.352 C 258.621 447.382 257.1 439.448 253.1 433.804 C 248.979 427.986 243.384 424.388 236.812 422.68 C 237.026 427.068 237.21 431.221 237.359 435.01 C 241.486 436.424 244.646 439.06 246.778 442.568 C 249.515 447.078 249.671 454.234 249.223 454.265 C 248.772 454.3 247.927 448.666 245.422 444.828 C 242.95 441.041 240.567 439.757 237.494 438.726 C 237.872 449.852 238.294 463.166 237.598 463.221 C 236.9 463.27 235.359 450.036 234.098 438.976 C 231.21 440.448 229.04 442.065 227.152 446.177 C 225.239 450.344 225.231 456.041 224.778 456.073 M 231.051 468.705 C 234.384 471.588 238.33 473.385 238.33 473.385 C 238.33 473.385 241.843 470.838 244.534 467.349 C 247.572 463.406 248.655 460.53 248.655 460.53 C 255.968 465.114 262.769 465.748 262.769 465.748 C 266.493 457.078 265.681 451.814 265.681 451.814 C 265.681 451.814 268.928 453.082 272.561 453.721 C 276.192 454.357 279.928 454.456 279.928 454.456 C 279.928 454.456 279.181 439.658 275.637 428.885 C 274.903 426.656 273.999 424.38 273.031 422.202 C 275.324 422.844 277.707 423.414 280.023 423.817 C 291.192 425.773 305.941 424.382 305.941 424.382 C 305.941 424.382 305.307 420.7 304.152 417.197 C 302.999 413.694 301.277 410.664 301.277 410.664 C 301.277 410.664 306.6 410.71 314.648 405.776 C 314.648 405.776 313.039 399.136 307.449 392.56 C 307.449 392.56 310.14 391.073 313.603 387.499 C 316.668 384.333 318.684 380.493 318.684 380.493 C 318.684 380.493 316.337 376.844 313.004 373.961 C 309.241 370.705 306.431 369.461 306.431 369.461 C 311.416 362.42 312.431 355.664 312.431 355.664 C 303.984 351.459 298.684 351.972 298.684 351.972 C 298.684 351.972 300.135 348.803 300.973 345.213 C 301.812 341.621 302.119 337.897 302.119 337.897 C 302.119 337.897 287.304 337.813 276.351 340.747 C 270.121 342.415 263.504 345.321 259.504 347.459 C 259.135 347.677 258.657 347.557 258.439 347.187 C 258.217 346.817 258.34 346.341 258.709 346.12 C 262.777 344.357 269.851 340.711 276.569 337.172 C 285.504 332.467 295.619 322.935 295.619 322.935 C 295.619 322.935 293.911 320.409 289.4 316.956 C 284.053 312.86 281.627 311.896 281.627 311.896 C 281.627 311.896 285.812 302.237 285.84 296.969 C 285.84 296.969 277.405 291.816 271.255 290.44 C 271.255 290.44 270.097 278.512 266.205 272.52 C 259.239 270.936 247.643 273.967 247.643 273.967 C 244.231 268.667 236.482 262.532 236.482 262.532 C 231.546 264.376 223.927 271.639 223.927 271.639 C 223.927 271.639 222.184 269.694 216.496 266.09 C 211.695 263.048 208.736 262.316 208.736 262.316 C 208.736 262.316 203.619 274.895 201.95 285.109 C 200.234 295.62 201.067 306.537 201.434 310.451 C 201.476 310.888 201.278 311.309 200.854 311.415 C 200.427 311.521 199.994 311.259 199.887 310.833 C 199.486 306.305 198.379 297.336 195.091 289.123 C 190.994 278.889 181.791 266.83 181.791 266.83 C 181.791 266.83 177.879 270.351 173.7 274.936 C 169.52 279.517 167.794 281.264 167.794 281.264 C 167.794 281.264 159.436 277.703 153.976 275.784 C 153.976 275.784 147.71 283.529 144.179 289.107 C 144.179 289.107 130.671 289.503 123.726 293.052 C 121.212 300.436 122.764 313.863 122.764 313.863 C 117.755 318.16 110.994 325.475 110.994 325.475 C 113.679 330.604 118.406 338.36 118.406 338.36 C 118.406 338.36 116.927 340.319 112.994 345.115 C 109.062 349.913 106.138 354.289 106.138 354.289 C 106.138 354.289 119.398 361.661 130.114 364.24 C 138.715 366.312 147.75 366.113 152.291 365.861 C 152.726 365.904 153.046 366.293 153.004 366.729 C 152.963 367.167 152.572 367.423 152.135 367.444 C 148.174 367.56 143.031 367.985 132.091 369.941 C 121.752 371.787 111.917 375.613 111.917 375.613 C 111.917 375.613 112.539 378.597 115.406 383.503 C 118.804 389.317 120.684 391.128 120.684 391.128 C 120.684 391.128 113.151 398.483 111.133 403.347 C 111.133 403.347 116.986 411.312 122.158 414.914 C 122.158 414.914 118.712 426.39 120.046 433.412 C 125.892 437.518 137.77 439.101 137.77 439.101 C 138.924 445.302 143.772 453.916 143.772 453.916 C 149.039 454.076 158.84 450.24 158.84 450.24 C 158.84 450.24 159.299 453.021 163.616 458.19 C 166.812 462.016 169.911 464.049 169.911 464.049 C 169.911 464.049 179.327 453.672 185.455 443.83 C 191.83 433.593 194.37 423.921 195.682 418.989 C 195.846 418.59 196.299 418.401 196.698 418.565 C 197.095 418.729 197.283 419.185 197.119 419.581 C 195.58 423.846 193.655 430.812 192.903 437.218 C 191.578 448.481 193.794 463.13 193.794 463.13 C 193.794 463.13 197.436 462.289 200.867 460.94 C 204.299 459.593 207.228 457.702 207.228 457.702 C 207.228 457.702 207.484 463.021 212.862 470.776 C 212.862 470.776 219.4 468.797 225.651 462.849 C 225.651 462.849 227.286 465.45 231.051 468.705 M 485.856 562.838 C 473.298 562.841 461.285 565.161 450.217 569.387 C 438.154 562.578 424.657 558.015 410.296 556.239 L 410.296 535.424 L 455.116 496.664 L 488.282 502.912 L 514.277 480.432 L 481.11 474.188 L 505.205 453.352 C 505.29 452.01 505.525 448.768 506.038 444.642 C 506.473 441.226 507.074 437.24 507.988 433.166 C 504.968 433.393 502.017 433.466 499.301 433.47 C 493.754 433.469 489.236 433.142 487.6 433.01 L 463.514 453.838 L 462.118 420.12 L 436.126 442.598 L 437.522 476.317 L 410.296 499.86 L 410.296 434.588 L 436.714 413.588 L 436.714 379.221 L 410.296 400.224 L 410.296 352.031 C 409.056 350.761 407.43 349.057 405.618 347.048 C 402.889 344.011 399.752 340.324 396.848 336.303 C 393.941 340.324 390.804 344.011 388.074 347.048 C 386.26 349.057 384.637 350.761 383.395 352.031 L 383.395 400.224 L 356.979 379.221 L 356.979 413.588 L 383.395 434.588 L 383.395 499.86 L 356.171 476.317 L 357.567 442.598 L 331.575 420.12 L 330.179 453.838 L 306.091 433.01 C 304.455 433.142 299.939 433.469 294.392 433.47 C 291.676 433.466 288.725 433.393 285.705 433.166 C 286.616 437.24 287.22 441.226 287.652 444.642 C 288.168 448.768 288.403 452.01 288.488 453.352 L 312.583 474.188 L 279.416 480.432 L 305.411 502.912 L 338.577 496.664 L 383.395 535.424 L 383.395 556.239 C 369.036 558.015 355.539 562.578 343.476 569.387 C 332.405 565.161 320.395 562.841 307.837 562.838 C 264.793 562.846 228.122 590.057 214.067 628.221 L 243.507 628.221 C 246.9 621.915 251.19 616.161 256.223 611.119 C 269.476 597.89 287.64 589.747 307.837 589.742 C 310.947 589.742 314.004 589.95 317.009 590.325 C 302.312 606.213 292.301 626.491 289.157 648.978 L 316.428 648.978 C 319.52 632.461 327.543 617.723 338.976 606.275 C 353.829 591.445 374.203 582.311 396.848 582.303 C 419.49 582.311 439.866 591.445 454.717 606.275 C 466.15 617.723 474.173 632.461 477.264 648.978 L 504.536 648.978 C 501.392 626.491 491.381 606.213 476.684 590.325 C 479.686 589.95 482.744 589.742 485.856 589.742 C 506.053 589.747 524.217 597.89 537.47 611.119 C 542.503 616.161 546.795 621.915 550.186 628.221 L 579.623 628.221 C 565.571 590.057 528.897 562.846 485.856 562.838 M 652.352 397.308 C 644.553 396.86 637.771 398.948 632.019 403.013 C 634.738 404.825 637.371 406.591 639.891 408.289 C 643.749 406.073 648.035 405.331 652.451 405.888 C 658.55 406.653 665.462 411.533 665.196 411.95 C 664.932 412.369 659.016 409.156 653.706 408.656 C 648.983 408.208 646.251 409.13 643.55 410.76 C 658.563 420.934 667.443 427.421 666.943 428.205 C 666.446 428.989 656.808 423.693 641.23 414.401 C 640.902 417.536 641.222 420.404 643.629 424.494 C 646.329 429.088 651.743 433.09 651.48 433.508 C 651.211 433.924 643.866 429.729 640.587 424.528 C 638.211 420.762 637.071 416.568 637.446 412.136 C 634.839 410.57 632.123 408.929 629.334 407.237 C 628.085 414.169 629.066 421.197 632.777 428.073 C 636.582 435.136 644.039 441.09 643.801 441.466 C 643.558 441.846 634.613 436.614 629.725 428.229 C 625.038 420.193 623.921 412.789 625.587 404.961 C 622.951 403.355 620.254 401.708 617.519 400.031 C 616.079 407.213 616.498 414.557 619.366 422.97 C 622.199 431.281 629.579 439.13 628.967 439.536 C 628.355 439.94 619.145 432.628 615.386 421.03 C 612.545 412.268 612.191 405.039 613.801 397.749 C 611.553 396.367 609.282 394.968 607.006 393.56 C 604.79 404.669 605.793 412.478 608.711 422.461 C 612.039 433.846 620.509 443.609 619.79 443.969 C 619.071 444.325 607.757 432.448 604.269 419.804 C 601.883 411.142 601.183 400.749 603.238 391.232 L 579.493 376.343 C 574.105 381.068 568.993 385.532 564.35 389.571 C 563.995 393.643 563.639 397.719 563.277 401.737 C 570.009 404.364 575.441 408.361 580.629 415.12 C 587.11 423.568 587.498 433.516 586.871 433.721 C 586.241 433.929 584.473 424.942 579.897 418.797 C 574.99 412.202 569.478 408.076 562.949 405.396 C 562.509 410.188 562.069 414.874 561.637 419.346 C 568.823 422.182 573.983 426.794 577.525 434.418 C 581.038 441.994 580.038 450.702 579.629 450.672 C 579.219 450.642 578.886 442.573 575.757 436.401 C 572.533 430.038 567.527 425.661 561.277 423.005 C 560.845 427.377 560.418 431.51 560.006 435.281 C 563.883 437.286 566.621 440.357 568.211 444.14 C 570.259 449.005 569.363 456.106 568.913 456.073 C 568.462 456.041 568.454 450.344 566.539 446.177 C 564.651 442.065 562.483 440.448 559.595 438.976 C 558.331 450.036 556.795 463.27 556.097 463.221 C 555.399 463.166 555.821 449.852 556.199 438.726 C 553.126 439.757 550.743 441.041 548.269 444.828 C 545.766 448.666 544.921 454.3 544.47 454.265 C 544.019 454.234 544.178 447.078 546.915 442.568 C 549.045 439.06 552.205 436.424 556.334 435.01 C 556.481 431.221 556.665 427.068 556.881 422.68 C 550.309 424.388 544.714 427.986 540.593 433.804 C 536.59 439.448 535.071 447.382 534.662 447.352 C 534.257 447.322 534.545 438.56 539.137 431.585 C 543.759 424.56 549.538 420.757 557.063 419.01 C 557.29 414.524 557.545 409.82 557.818 405.019 C 550.965 406.708 544.902 409.978 539.082 415.781 C 533.654 421.19 530.582 429.817 529.993 429.521 C 529.399 429.221 531.243 419.44 538.899 412.036 C 545.025 406.117 550.983 402.959 558.027 401.349 C 558.154 399.156 558.475 393.84 558.607 391.621 L 556.389 389.055 C 554.173 388.868 548.869 388.42 546.678 388.228 C 544.071 394.969 540.09 400.409 533.35 405.617 C 524.921 412.128 514.976 412.541 514.764 411.914 C 514.556 411.289 523.535 409.492 529.667 404.899 C 536.249 399.973 540.358 394.448 543.019 387.909 C 538.225 387.487 533.538 387.061 529.063 386.64 C 526.251 393.836 521.654 399.008 514.038 402.571 C 506.476 406.107 497.762 405.136 497.793 404.727 C 497.821 404.317 505.889 403.956 512.053 400.809 C 518.402 397.568 522.766 392.551 525.407 386.292 C 521.033 385.872 516.897 385.457 513.124 385.057 C 511.132 388.941 508.069 391.685 504.29 393.289 C 499.43 395.349 492.326 394.475 492.361 394.025 C 492.392 393.576 498.09 393.549 502.249 391.624 C 506.353 389.721 507.965 387.549 509.429 384.656 C 498.364 383.428 485.126 381.928 485.176 381.229 C 485.225 380.532 498.542 380.916 509.67 381.261 C 508.629 378.191 507.34 375.811 503.545 373.349 C 499.697 370.856 494.061 370.028 494.093 369.576 C 494.126 369.125 501.282 369.263 505.801 371.989 C 509.317 374.109 511.957 377.26 513.384 381.387 C 517.176 381.52 521.326 381.693 525.717 381.893 C 523.987 375.329 520.375 369.744 514.545 365.639 C 508.889 361.655 500.952 360.159 500.981 359.751 C 501.009 359.341 509.769 359.608 516.762 364.175 C 523.798 368.776 527.618 374.545 529.386 382.065 C 533.875 382.28 538.579 382.523 543.383 382.779 C 541.673 375.929 538.381 369.88 532.561 364.076 C 527.139 358.665 518.503 355.617 518.798 355.025 C 519.093 354.433 528.881 356.248 536.306 363.883 C 542.246 369.988 545.423 375.937 547.05 382.979 C 551.079 383.201 555.165 383.432 559.246 383.669 C 563.91 379.657 569.066 375.24 574.519 370.589 L 563.202 344.945 C 553.485 345.612 543.301 343.42 535.074 339.811 C 523.069 334.54 512.941 321.633 513.4 320.975 C 513.858 320.316 522.298 330.1 533.087 335.032 C 542.542 339.357 550.129 341.473 561.441 340.885 C 560.375 338.428 559.318 335.98 558.274 333.556 C 550.826 334.101 543.725 332.709 535.462 328.633 C 524.53 323.245 518.621 313.076 519.107 312.529 C 519.595 311.983 526.301 320.419 534.115 324.416 C 542.027 328.467 549.238 329.94 556.553 329.548 C 555.287 326.603 554.045 323.693 552.834 320.853 C 544.847 321.376 537.683 319.204 530.405 313.409 C 522.811 307.365 518.923 297.76 519.331 297.573 C 519.741 297.389 524.558 305.628 530.998 310.415 C 537.269 315.073 544.082 317.055 551.121 316.821 C 549.847 313.813 548.618 310.888 547.443 308.084 C 543.003 307.819 539.017 306.084 535.631 303.193 C 530.957 299.199 527.863 291.324 528.317 291.12 C 528.766 290.919 531.946 296.852 536.102 300.187 C 539.806 303.157 542.597 303.888 545.746 304.013 C 538.793 287.26 534.941 276.961 535.787 276.581 C 536.637 276.199 541.774 285.919 549.681 302.243 C 551.683 299.807 552.99 297.235 553.227 292.496 C 553.495 287.171 551.173 280.853 551.623 280.649 C 552.071 280.448 555.907 287.991 555.787 294.137 C 555.705 298.588 554.35 302.721 551.599 306.217 C 552.918 308.959 554.287 311.821 555.686 314.769 C 560.539 309.663 563.582 303.253 564.262 295.471 C 564.965 287.477 562.003 278.404 562.415 278.221 C 562.823 278.037 567.421 287.325 566.897 297.017 C 566.391 306.308 563.259 313.105 557.566 318.731 C 558.886 321.519 560.233 324.379 561.597 327.28 C 566.749 322.073 570.433 315.707 572.662 307.1 C 574.863 298.6 573.009 287.989 573.743 287.987 C 574.475 287.985 578.154 299.157 574.921 310.908 C 572.478 319.795 568.801 326.027 563.449 331.232 C 564.569 333.623 565.694 336.037 566.823 338.467 C 574.779 330.401 578.233 323.325 581.282 313.384 C 584.759 302.043 583.05 289.232 583.847 289.328 C 584.642 289.423 587.569 305.565 583.533 318.041 C 580.766 326.592 575.642 335.66 568.691 342.483 L 579.574 366.28 C 582.063 364.161 584.599 362.005 587.165 359.829 C 585.022 356.625 584.003 353.219 584.733 348.54 C 585.597 342.993 589.571 338.721 590.191 339.005 C 590.814 339.291 587.706 343.433 587.869 348.796 C 587.967 352.109 588.943 354.581 590.542 356.967 C 594.467 353.643 598.441 350.289 602.402 346.955 C 598.277 336.735 596.946 325.223 597.777 315.409 C 598.985 301.092 608.766 286.668 609.613 286.977 C 610.457 287.285 603.311 299.037 602.019 311.956 C 600.883 323.283 601.375 331.991 605.987 343.943 C 608.154 342.121 610.314 340.313 612.454 338.523 C 609.259 330.699 608.189 322.709 609.483 312.728 C 611.197 299.527 619.637 290.381 620.375 290.753 C 621.113 291.123 614.751 300.639 613.375 310.115 C 611.981 319.712 613.003 327.841 615.993 335.565 C 618.597 333.393 621.167 331.259 623.681 329.176 C 620.317 320.769 620.033 312.496 623.457 303.095 C 627.033 293.285 635.599 286.461 635.935 286.847 C 636.271 287.236 629.449 294.676 626.769 302.9 C 624.162 310.904 624.519 318.749 627.254 326.224 C 629.913 324.027 632.503 321.899 634.995 319.865 C 633.702 315.037 634.087 310.284 635.883 305.86 C 638.366 299.748 645.426 294.252 645.795 294.677 C 646.165 295.105 641.145 300.156 639.159 305.532 C 637.397 310.321 637.623 313.512 638.61 316.92 C 653.498 304.832 662.836 297.82 663.53 298.621 C 664.224 299.425 655.94 307.655 641.834 320.647 C 645.063 322.112 648.189 322.797 653.18 321.74 C 658.787 320.553 664.508 316.313 664.875 316.74 C 665.246 317.167 658.79 323.363 652.386 324.939 C 647.746 326.079 642.99 325.776 638.397 323.801 C 636.027 325.972 633.547 328.228 630.99 330.545 C 637.993 334.328 645.706 335.809 654 334.384 C 662.527 332.917 670.871 327.235 671.208 327.623 C 671.542 328.011 663.552 335.508 653.331 337.631 C 643.538 339.667 635.391 338.195 627.553 333.655 C 625.131 335.843 622.647 338.077 620.123 340.341 C 627.339 344.415 635.233 346.597 644.933 346.599 C 654.508 346.603 664.842 341.675 665.102 342.459 C 665.363 343.245 655.096 350.277 641.787 350.075 C 631.725 349.92 623.975 347.709 616.689 343.42 C 614.61 345.279 612.509 347.155 610.394 349.037 C 621.555 355.321 630.105 357.061 641.475 357.571 C 654.443 358.152 667.104 352.775 667.287 353.655 C 667.472 354.535 651.79 362.136 637.449 361.273 C 627.618 360.679 616.418 357.704 606.897 352.151 C 603.027 355.593 599.137 359.04 595.282 362.444 C 597.413 364.371 599.717 365.693 602.983 366.269 C 608.266 367.201 612.811 364.724 613.003 365.381 C 613.197 366.037 608.397 369.352 602.785 369.409 C 598.047 369.456 594.823 367.959 591.965 365.376 C 589.441 367.601 586.941 369.8 584.485 371.959 L 606.47 386.156 C 614.219 380.261 623.93 376.496 632.793 374.989 C 645.717 372.792 661.271 378.012 661.251 378.813 C 661.23 379.615 648.801 376.079 637.079 377.888 C 626.801 379.472 619.301 381.871 610.173 388.581 C 612.415 390.049 614.639 391.511 616.847 392.964 C 622.766 388.416 629.465 385.675 638.61 384.537 C 650.706 383.032 661.23 388.279 661.123 389.005 C 661.016 389.729 650.782 386.367 642.053 387.321 C 633.217 388.288 626.383 391.017 620.487 395.365 C 623.165 397.133 625.801 398.877 628.371 400.585 C 634.759 395.761 641.935 393.639 651.199 394.477 C 660.868 395.355 669.396 401.245 669.154 401.62 C 668.915 402 660.363 397.767 652.352 397.308 M 673.006 391.128 C 673.006 391.128 674.888 389.317 678.284 383.503 C 681.154 378.597 681.776 375.613 681.776 375.613 C 681.776 375.613 671.94 371.787 661.602 369.941 C 650.662 367.985 645.519 367.56 641.555 367.444 C 641.121 367.423 640.73 367.167 640.689 366.729 C 640.647 366.293 640.967 365.904 641.405 365.861 C 645.941 366.113 654.978 366.312 663.579 364.24 C 674.292 361.661 687.555 354.289 687.555 354.289 C 687.555 354.289 684.631 349.913 680.699 345.115 C 676.763 340.319 675.287 338.36 675.287 338.36 C 675.287 338.36 680.014 330.604 682.702 325.475 C 682.702 325.475 675.938 318.16 670.928 313.863 C 670.928 313.863 672.48 300.436 669.967 293.052 C 663.022 289.503 649.514 289.107 649.514 289.107 C 645.983 283.529 639.717 275.784 639.717 275.784 C 634.257 277.703 625.899 281.264 625.899 281.264 C 625.899 281.264 624.173 279.517 619.993 274.936 C 615.811 270.351 611.905 266.83 611.905 266.83 C 611.905 266.83 602.699 278.889 598.602 289.123 C 595.314 297.336 594.206 306.305 593.803 310.833 C 593.699 311.259 593.266 311.521 592.842 311.415 C 592.415 311.309 592.219 310.888 592.259 310.451 C 592.626 306.537 593.459 295.62 591.743 285.109 C 590.074 274.895 584.954 262.316 584.954 262.316 C 584.954 262.316 581.998 263.048 577.199 266.09 C 571.509 269.694 569.766 271.639 569.766 271.639 C 569.766 271.639 562.147 264.376 557.211 262.532 C 557.211 262.532 549.462 268.667 546.047 273.967 C 546.047 273.967 534.454 270.936 527.487 272.52 C 523.595 278.512 522.435 290.44 522.435 290.44 C 516.285 291.816 507.85 296.969 507.85 296.969 C 507.881 302.237 512.066 311.896 512.066 311.896 C 512.066 311.896 509.64 312.86 504.293 316.956 C 499.782 320.409 498.074 322.935 498.074 322.935 C 498.074 322.935 508.189 332.467 517.124 337.172 C 523.842 340.711 530.913 344.357 534.983 346.12 C 535.353 346.341 535.475 346.817 535.254 347.187 C 535.035 347.557 534.558 347.677 534.189 347.459 C 530.189 345.321 523.571 342.415 517.342 340.747 C 506.389 337.813 491.572 337.897 491.572 337.897 C 491.572 337.897 491.881 341.621 492.72 345.213 C 493.558 348.803 495.009 351.972 495.009 351.972 C 495.009 351.972 489.706 351.459 481.26 355.664 C 481.26 355.664 482.277 362.42 487.262 369.461 C 487.262 369.461 484.452 370.705 480.689 373.961 C 477.356 376.844 475.009 380.493 475.009 380.493 C 475.009 380.493 477.025 384.333 480.09 387.499 C 483.553 391.073 486.241 392.56 486.241 392.56 C 480.652 399.136 479.045 405.776 479.045 405.776 C 487.09 410.71 492.416 410.664 492.416 410.664 C 492.416 410.664 490.694 413.694 489.54 417.197 C 488.386 420.7 487.752 424.382 487.752 424.382 C 487.752 424.382 502.501 425.773 513.67 423.817 C 515.985 423.414 518.366 422.844 520.662 422.202 C 519.694 424.38 518.79 426.656 518.055 428.885 C 514.512 439.658 513.764 454.456 513.764 454.456 C 513.764 454.456 517.501 454.357 521.131 453.721 C 524.763 453.082 528.009 451.814 528.009 451.814 C 528.009 451.814 527.199 457.078 530.923 465.748 C 530.923 465.748 537.725 465.114 545.038 460.53 C 545.038 460.53 546.121 463.406 549.159 467.349 C 551.85 470.838 555.361 473.385 555.361 473.385 C 555.361 473.385 559.311 471.588 562.645 468.705 C 566.407 465.45 568.039 462.849 568.039 462.849 C 574.293 468.797 580.831 470.776 580.831 470.776 C 586.206 463.021 586.465 457.702 586.465 457.702 C 586.465 457.702 589.394 459.593 592.823 460.94 C 596.257 462.289 599.899 463.13 599.899 463.13 C 599.899 463.13 602.115 448.481 600.79 437.218 C 600.038 430.812 598.113 423.846 596.574 419.581 C 596.41 419.185 596.599 418.729 596.995 418.565 C 597.394 418.401 597.847 418.59 598.011 418.989 C 599.323 423.921 601.861 433.593 608.238 443.83 C 614.363 453.672 623.782 464.049 623.782 464.049 C 623.782 464.049 626.881 462.016 630.074 458.19 C 634.391 453.021 634.853 450.24 634.853 450.24 C 634.853 450.24 644.654 454.076 649.921 453.916 C 649.921 453.916 654.768 445.302 655.92 439.101 C 655.92 439.101 667.8 437.518 673.65 433.412 C 674.98 426.39 671.535 414.914 671.535 414.914 C 676.708 411.312 682.56 403.347 682.56 403.347 C 680.542 398.483 673.006 391.128 673.006 391.128 M 413.905 172.868 L 413.9 172.866 L 413.908 172.871 Z M 413.886 172.842 L 413.869 172.811 C 413.878 172.828 413.889 172.846 413.9 172.866 Z M 396.848 701.97 C 228.335 701.97 91.7259 565.361 91.7259 396.848 C 91.7259 228.332 228.335 91.7246 396.848 91.7246 C 565.363 91.7246 701.97 228.332 701.97 396.848 C 701.97 565.361 565.363 701.97 396.848 701.97 M 396.85 31.7288 C 195.2 31.7288 31.7287 195.2 31.7287 396.852 C 31.7287 598.502 195.2 761.972 396.85 761.972 C 598.501 761.972 761.972 598.502 761.972 396.852 C 761.972 195.2 598.501 31.7288 396.85 31.7288"
     style="fill:#000000;fill-opacity:1;fill-rule:nonzero;stroke:none"
     id="path12257" />
</svg>
