<?xml version="1.0" encoding="UTF-8" standalone="no"?>
<!-- Created with Inkscape (http://www.inkscape.org/) -->

<svg
   version="1.1"
   id="svg5129"
   width="793.70135"
   height="793.70135"
   viewBox="0 0 793.70135 793.70135"
   sodipodi:docname="Nimaiba Tsuru Onikaji.svg"
   inkscape:version="1.2 (dc2aeda, 2022-05-15)"
   xmlns:inkscape="http://www.inkscape.org/namespaces/inkscape"
   xmlns:sodipodi="http://sodipodi.sourceforge.net/DTD/sodipodi-0.dtd"
   xmlns="http://www.w3.org/2000/svg"
   xmlns:svg="http://www.w3.org/2000/svg">
  <defs
     id="defs5133">
    <clipPath
       clipPathUnits="userSpaceOnUse"
       id="clipPath5703">
      <path
         d="M -567.7754,585.8522 H 27.500596 V -9.4238027 H -567.7754 Z"
         id="path5705"
         style="stroke-width:0.999998" />
    </clipPath>
    <clipPath
       clipPathUnits="userSpaceOnUse"
       id="clipPath5709">
      <path
         d="M -531.1924,581.5885 H 64.083594 V -13.6875 H -531.1924 Z"
         id="path5711"
         style="stroke-width:0.999998" />
    </clipPath>
    <clipPath
       clipPathUnits="userSpaceOnUse"
       id="clipPath5715">
      <path
         d="M -279.082,405.485 H 316.194 V -189.791 H -279.082 Z"
         id="path5717"
         style="stroke-width:0.999998" />
    </clipPath>
    <clipPath
       clipPathUnits="userSpaceOnUse"
       id="clipPath5721">
      <path
         d="M -561.4131,585.8522 H 33.862898 V -9.4238027 H -561.4131 Z"
         id="path5723"
         style="stroke-width:0.999998" />
    </clipPath>
    <clipPath
       clipPathUnits="userSpaceOnUse"
       id="clipPath5727">
      <path
         d="M -528.0898,575.3815 H 67.186194 V -19.8945 H -528.0898 Z"
         id="path5729"
         style="stroke-width:0.999998" />
    </clipPath>
    <clipPath
       clipPathUnits="userSpaceOnUse"
       id="clipPath5733">
      <path
         d="M -557.0645,585.8483 H 38.211496 V -9.4277027 H -557.0645 Z"
         id="path5735"
         style="stroke-width:0.999998" />
    </clipPath>
    <clipPath
       clipPathUnits="userSpaceOnUse"
       id="clipPath5740">
      <path
         d="m -297.6377,379.0826 h 595.27599 v -595.276 H -297.6377 Z"
         id="path5742"
         style="stroke-width:0.999998" />
    </clipPath>
    <clipPath
       clipPathUnits="userSpaceOnUse"
       id="clipPath5746">
      <path
         d="m -329.5859,173.3575 h 595.27599 v -595.276 H -329.5859 Z"
         id="path5748"
         style="stroke-width:0.999998" />
    </clipPath>
    <clipPath
       clipPathUnits="userSpaceOnUse"
       id="clipPath5752">
      <path
         d="m -346.3438,373.0514 h 595.276 v -595.276 h -595.276 z"
         id="path5754"
         style="stroke-width:0.999998" />
    </clipPath>
    <clipPath
       clipPathUnits="userSpaceOnUse"
       id="clipPath5758">
      <path
         d="M -536.6982,584.5729 H 58.577799 V -10.7031 H -536.6982 Z"
         id="path5760"
         style="stroke-width:0.999998" />
    </clipPath>
    <clipPath
       clipPathUnits="userSpaceOnUse"
       id="clipPath5764">
      <path
         d="M -564.5732,585.8483 H 30.702796 V -9.4277027 H -564.5732 Z"
         id="path5766"
         style="stroke-width:0.999998" />
    </clipPath>
    <clipPath
       clipPathUnits="userSpaceOnUse"
       id="clipPath5770">
      <path
         d="m -250.5527,188.4943 h 595.276 v -595.276 h -595.276 z"
         id="path5772"
         style="stroke-width:0.999998" />
    </clipPath>
    <clipPath
       clipPathUnits="userSpaceOnUse"
       id="clipPath5776">
      <path
         d="M -548.9834,585.8522 H 46.292596 V -9.4238027 H -548.9834 Z"
         id="path5778"
         style="stroke-width:0.999998" />
    </clipPath>
    <clipPath
       clipPathUnits="userSpaceOnUse"
       id="clipPath5782">
      <path
         d="M -586.5449,579.5026 H 8.7310952 V -15.7734 H -586.5449 Z"
         id="path5784"
         style="stroke-width:0.999998" />
    </clipPath>
    <clipPath
       clipPathUnits="userSpaceOnUse"
       id="clipPath5788">
      <path
         d="m -249.9307,367.3268 h 595.27599 v -595.276 H -249.9307 Z"
         id="path5790"
         style="stroke-width:0.999998" />
    </clipPath>
    <clipPath
       clipPathUnits="userSpaceOnUse"
       id="clipPath5794">
      <path
         d="M -538.2217,577.9479 H 57.054294 V -17.328098 H -538.2217 Z"
         id="path5796"
         style="stroke-width:0.999998" />
    </clipPath>
    <clipPath
       clipPathUnits="userSpaceOnUse"
       id="clipPath5800">
      <path
         d="M -584.1943,578.9381 H 11.0817 V -16.337903 h -595.276 z"
         id="path5802"
         style="stroke-width:0.999998" />
    </clipPath>
    <clipPath
       clipPathUnits="userSpaceOnUse"
       id="clipPath5806">
      <path
         d="M -556.4014,578.0143 H 38.874601 V -17.2617 H -556.4014 Z"
         id="path5808"
         style="stroke-width:0.999998" />
    </clipPath>
    <clipPath
       clipPathUnits="userSpaceOnUse"
       id="clipPath5813">
      <path
         d="M -557.4951,577.8502 H 37.780898 V -17.4258 H -557.4951 Z"
         id="path5815"
         style="stroke-width:0.999998" />
    </clipPath>
    <clipPath
       clipPathUnits="userSpaceOnUse"
       id="clipPath5819">
      <path
         d="M -576.3691,585.5885 H 18.9069 V -9.6875027 h -595.276 z"
         id="path5821"
         style="stroke-width:0.999998" />
    </clipPath>
    <clipPath
       clipPathUnits="userSpaceOnUse"
       id="clipPath5825">
      <path
         d="M -550.2637,577.3248 H 45.012301 V -17.951198 H -550.2637 Z"
         id="path5827"
         style="stroke-width:0.999998" />
    </clipPath>
    <clipPath
       clipPathUnits="userSpaceOnUse"
       id="clipPath5831">
      <path
         d="M -568.2266,575.819 H 27.049396 V -19.457003 H -568.2266 Z"
         id="path5833"
         style="stroke-width:0.999998" />
    </clipPath>
    <clipPath
       clipPathUnits="userSpaceOnUse"
       id="clipPath5837">
      <path
         d="M -542.9326,584.5729 H 52.343394 V -10.7031 H -542.9326 Z"
         id="path5839"
         style="stroke-width:0.999998" />
    </clipPath>
    <clipPath
       clipPathUnits="userSpaceOnUse"
       id="clipPath5843">
      <path
         d="M -545.417,584.5729 H 49.858996 V -10.7031 H -545.417 Z"
         id="path5845"
         style="stroke-width:0.999998" />
    </clipPath>
    <clipPath
       clipPathUnits="userSpaceOnUse"
       id="clipPath5849">
      <path
         d="M -574.5459,585.8522 H 20.730098 V -9.4238027 H -574.5459 Z"
         id="path5851"
         style="stroke-width:0.999998" />
    </clipPath>
    <clipPath
       clipPathUnits="userSpaceOnUse"
       id="clipPath5855">
      <path
         d="M -553.8975,585.8483 H 41.378499 V -9.4277027 H -553.8975 Z"
         id="path5857"
         style="stroke-width:0.999998" />
    </clipPath>
    <clipPath
       clipPathUnits="userSpaceOnUse"
       id="clipPath5861">
      <path
         d="M -540.8213,585.8483 H 54.454696 V -9.4277027 H -540.8213 Z"
         id="path5863"
         style="stroke-width:0.999998" />
    </clipPath>
    <clipPath
       clipPathUnits="userSpaceOnUse"
       id="clipPath5867">
      <path
         d="M -572.8174,586.1354 H 22.458601 V -9.1406027 H -572.8174 Z"
         id="path5869"
         style="stroke-width:0.999998" />
    </clipPath>
  </defs>
  <sodipodi:namedview
     id="namedview5131"
     pagecolor="#ffffff"
     bordercolor="#000000"
     borderopacity="0.25"
     inkscape:showpageshadow="2"
     inkscape:pageopacity="0.0"
     inkscape:pagecheckerboard="0"
     inkscape:deskcolor="#d1d1d1"
     showgrid="false"
     inkscape:zoom="0.29734106"
     inkscape:cx="-215.24105"
     inkscape:cy="396.85068"
     inkscape:window-width="1419"
     inkscape:window-height="456"
     inkscape:window-x="0"
     inkscape:window-y="25"
     inkscape:window-maximized="0"
     inkscape:current-layer="svg5129">
    <inkscape:page
       x="0"
       y="0"
       id="page5135"
       width="793.70135"
       height="793.70135" />
  </sodipodi:namedview>
  <path
     d="M 333.241 489.769 C 327.221 485.964 321.004 482.1 314.605 478.23 C 306.001 483.214 272.66 500.248 219.377 498.633 C 173.88 497.256 149.416 489.31 149.277 487.014 C 149.139 484.725 165.089 490.909 219.613 491.236 C 266.269 491.514 294.778 479.037 306.121 473.152 C 293.826 465.878 281.142 458.741 268.621 452.225 C 261.241 456.376 236.083 468.253 191.02 468.264 C 124.887 468.285 101.586 452.012 102.331 449.81 C 103.078 447.613 131.072 461.774 189.991 460.31 C 226.452 459.402 249.097 452.021 259.313 447.49 C 244.925 440.334 230.939 434.173 218.233 429.805 C 217.837 429.668 217.435 429.534 217.037 429.4 C 209.897 431.884 176.749 442.466 140.156 437.354 C 97.8696 431.446 78.299 412.444 79.5123 410.551 C 80.7243 408.66 103.944 424.501 140.62 429.493 C 165.816 432.922 189.576 428.245 202.777 424.797 C 177.889 417.217 150.697 411.165 123.423 406.597 C 107.57 403.944 91.0336 402.04 76.3843 400.412 C 57.9884 398.369 43.5057 397.867 43.5057 396.595 C 43.5057 394.337 88.3949 393.793 126.812 399.595 C 153.356 403.605 181.991 409.696 207.6 417.483 C 206.067 415.408 204.184 413.092 201.872 410.629 C 193.389 401.613 177.948 389.892 157.113 383.324 C 124.074 372.907 84.111 381.693 83.0963 379.823 C 82.5416 378.797 96.0789 373.883 114.114 372.272 C 128.711 370.971 147.836 371.931 159.448 375.755 C 201.275 389.528 216.569 414.564 220.081 421.496 C 220.381 421.6 220.692 421.699 220.992 421.8 C 233.948 426.28 248.041 432.466 262.468 439.61 C 261.941 437.87 261.268 435.876 260.392 433.633 C 256.788 424.386 249.865 411.045 236.548 395.093 C 228.949 385.897 217.056 376.927 204.749 369.924 C 179.576 355.601 157.407 352.38 157.479 350.137 C 157.548 347.896 188.692 350.825 211.736 364.572 C 224.68 372.293 235.033 380.165 243.044 389.667 C 265.935 417.059 271.208 437.756 272.374 444.638 C 284.886 451.136 297.506 458.225 309.73 465.444 C 308.588 457.337 305.408 443.248 296.538 425.053 C 287.978 407.469 272.421 389.093 260.523 377.195 C 240.231 356.903 218.671 348.553 219.671 346.569 C 220.672 344.587 252.275 356.363 273.228 378.2 C 284.946 390.413 296.452 405.584 304.148 421.345 C 316.366 446.4 318.445 464.444 318.778 470.852 C 325.214 474.745 331.466 478.633 337.517 482.457 C 340.981 478.469 345.65 475.9 350.637 474.993 C 351.238 460.018 347.433 440.572 340.056 422.873 C 324.61 385.804 294.809 365.583 294.809 365.583 L 291.662 375.891 C 291.662 375.891 273.026 355.137 250.539 342.145 C 221.241 325.216 186.411 321.636 186.411 321.636 L 194.548 338.889 C 194.548 338.889 182.179 334.659 153.859 335.96 C 125.567 337.261 106.984 343.121 106.984 343.121 L 116.099 354.84 C 116.099 354.84 97.0683 355.159 73.7803 365.908 C 56.8537 373.72 42.0097 385.509 31.7284 396.851 C 36.0204 410.829 47.531 425.725 60.435 437.198 C 75.083 450.22 92.0096 456.73 92.0096 456.73 L 80.9416 464.868 C 80.9416 464.868 95.4869 476.824 113.494 484.725 C 132.048 492.862 146.047 495.141 146.047 495.141 L 136.28 507.837 C 136.28 507.837 163.045 515.43 186.736 517.277 C 211.801 519.23 225.473 516.626 225.473 516.626 L 219.288 527.042 C 219.288 527.042 254.531 534.258 286.996 529.972 C 310.288 526.894 324.822 517.592 334.516 507.964 C 332.81 504.701 331.904 501.072 331.909 497.402 C 331.909 494.845 332.353 492.256 333.241 489.769"
     style="fill:#000000;fill-opacity:1;fill-rule:nonzero;stroke:none"
     id="path5249" />
  <path
     d="M 372.109 540.647 C 358.044 537.579 343.186 531.967 328.304 523.934 C 320.441 529.175 310.66 533.688 298.596 536.467 C 322.684 552.28 347.782 562.822 372.109 567.183 Z"
     style="fill:#000000;fill-opacity:1;fill-rule:nonzero;stroke:none"
     id="path5253" />
  <path
     d="M 334.07 251.326 C 334.07 262.471 343.787 271.509 357.785 271.509 C 373.41 271.509 388.366 260.129 388.366 237.991 C 388.366 187.535 338.254 134.57 276.17 134.57 C 214.202 134.57 163.981 184.798 163.973 246.766 C 163.976 271.667 166.212 299.149 171.569 327.375 C 174.67 327.487 177.486 327.666 180.004 327.89 L 172.358 311.685 L 187.272 313.215 C 187.369 313.235 188.444 313.353 190.285 313.607 C 186.449 290.238 184.808 267.511 184.81 246.766 C 184.813 221.505 195.017 198.731 211.566 182.162 C 228.134 165.616 250.908 155.409 276.17 155.406 C 301.433 155.409 324.207 165.616 340.771 182.162 C 354.831 196.238 364.282 214.798 366.821 235.55 C 363.373 232.798 359.009 231.143 354.253 231.143 C 343.105 231.143 334.07 240.179 334.07 251.326"
     style="fill:#000000;fill-opacity:1;fill-rule:nonzero;stroke:none"
     id="path5257" />
  <path
     d="M 396.85 505.443 L 431.743 485.063 C 438.569 481.055 447.342 483.339 451.351 490.164 C 455.355 496.987 453.07 505.766 446.246 509.768 L 446.25 509.768 L 413.126 529.211 L 413.126 636.74 L 380.574 636.74 L 380.574 529.211 L 347.451 509.768 L 347.454 509.768 C 340.63 505.766 338.345 496.987 342.35 490.164 C 346.358 483.339 355.131 481.055 361.957 485.063 Z"
     style="fill:#000000;fill-opacity:1;fill-rule:nonzero;stroke:none"
     id="path5261" />
  <path
     d="M 461.792 497.402 C 461.797 501.071 460.891 504.702 459.185 507.965 C 468.879 517.593 483.415 526.894 506.704 529.973 C 539.17 534.259 574.413 527.042 574.413 527.042 L 568.228 516.626 C 568.228 516.626 581.9 519.23 606.965 517.277 C 630.656 515.43 657.421 507.837 657.421 507.837 L 647.654 495.142 C 647.654 495.142 661.653 492.863 680.207 484.725 C 698.214 476.823 712.759 464.869 712.759 464.869 L 701.691 456.73 C 701.691 456.73 718.618 450.219 733.266 437.199 C 746.17 425.725 757.681 410.829 761.973 396.85 C 751.691 385.51 736.847 373.721 719.921 365.908 C 696.633 355.16 677.602 354.841 677.602 354.841 L 686.717 343.122 C 686.717 343.122 668.134 337.261 639.842 335.96 C 611.522 334.658 599.153 338.89 599.153 338.89 L 607.29 321.636 C 607.29 321.636 572.46 325.217 543.162 342.145 C 520.675 355.137 502.039 375.892 502.039 375.892 L 498.891 365.582 C 498.891 365.582 469.091 385.804 453.644 422.874 C 446.268 440.571 442.463 460.019 443.064 474.993 C 448.051 475.899 452.72 478.47 456.185 482.457 C 462.235 478.634 468.487 474.746 474.923 470.853 C 475.256 464.443 477.335 446.399 489.555 421.345 C 497.251 405.585 508.755 390.413 520.475 378.2 C 541.426 356.362 573.029 344.586 574.03 346.569 C 575.03 348.554 553.47 356.902 533.178 377.194 C 521.28 389.093 505.724 407.47 497.161 425.053 C 488.293 443.249 485.113 457.337 483.969 465.443 C 496.195 458.225 508.816 451.137 521.327 444.639 C 522.492 437.757 527.765 417.058 550.657 389.668 C 558.668 380.166 569.021 372.293 581.964 364.572 C 605.01 350.826 636.153 347.897 636.224 350.137 C 636.294 352.38 614.125 355.601 588.952 369.924 C 576.644 376.926 564.752 385.898 557.153 395.093 C 543.836 411.045 536.913 424.386 533.309 433.634 C 532.433 435.875 531.761 437.871 531.233 439.61 C 545.66 432.467 559.753 426.28 572.709 421.801 C 573.008 421.7 573.32 421.6 573.62 421.496 C 577.133 414.564 592.426 389.528 634.253 375.754 C 645.865 371.93 664.989 370.97 679.587 372.273 C 697.622 373.884 711.159 378.797 710.605 379.822 C 709.59 381.693 669.627 372.906 636.588 383.324 C 615.753 389.893 600.312 401.613 591.83 410.629 C 589.517 413.093 587.634 415.408 586.101 417.484 C 611.709 409.697 640.345 403.605 666.887 399.596 C 705.305 393.793 750.195 394.338 750.195 396.594 C 750.195 397.866 735.713 398.369 717.317 400.413 C 702.667 402.041 686.133 403.944 670.278 406.597 C 643.004 411.165 615.812 417.217 590.924 424.798 C 604.125 428.246 627.885 432.923 653.081 429.493 C 689.757 424.501 712.977 408.66 714.19 410.55 C 715.402 412.444 695.831 431.446 653.544 437.355 C 616.953 442.467 583.804 431.883 576.664 429.4 C 576.266 429.536 575.864 429.668 575.468 429.806 C 562.761 434.173 548.776 440.334 534.388 447.49 C 544.604 452.022 567.249 459.402 603.709 460.311 C 662.629 461.774 690.623 447.613 691.37 449.811 C 692.115 452.011 668.814 468.285 602.681 468.263 C 557.618 468.254 532.46 456.375 525.08 452.225 C 512.559 458.741 499.875 465.878 487.58 473.151 C 498.923 479.038 527.431 491.514 574.088 491.235 C 628.612 490.91 644.562 484.725 644.424 487.014 C 644.285 489.311 619.822 497.257 574.322 498.634 C 521.04 500.249 487.7 483.214 479.095 478.23 C 472.697 482.099 466.48 485.965 460.461 489.769 C 461.348 492.257 461.792 494.845 461.792 497.402"
     style="fill:#000000;fill-opacity:1;fill-rule:nonzero;stroke:none"
     id="path5265" />
  <path
     d="m 421.59119,567.18307 c 24.32667,-4.36133 49.42533,-14.904 73.51333,-30.716 -12.06266,-2.77867 -21.84533,-7.292 -29.708,-12.53467 -14.88266,8.03467 -29.74,13.64667 -43.80533,16.71467 z"
     style="fill:#000000;fill-opacity:1;fill-rule:nonzero;stroke:none;stroke-width:1.33333"
     id="path5269" />
  <path
     d="M 439.448 231.143 C 434.693 231.143 430.328 232.798 426.879 235.55 C 429.419 214.796 438.869 196.236 452.929 182.162 C 469.493 165.615 492.268 155.409 517.53 155.405 C 542.792 155.409 565.566 165.615 582.134 182.162 C 598.682 198.73 608.888 221.504 608.89 246.766 C 608.893 267.51 607.25 290.236 603.416 313.607 C 605.256 313.351 606.33 313.233 606.428 313.215 L 621.342 311.683 L 613.698 327.889 C 616.214 327.665 619.029 327.487 622.132 327.375 C 627.486 299.148 629.725 271.667 629.728 246.766 C 629.72 184.796 579.498 134.569 517.53 134.569 C 455.447 134.569 405.336 187.535 405.336 237.991 C 405.336 260.127 420.291 271.507 435.916 271.507 C 449.913 271.507 459.631 262.471 459.631 251.326 C 459.631 240.178 450.595 231.143 439.448 231.143"
     style="fill:#000000;fill-opacity:1;fill-rule:nonzero;stroke:none"
     id="path5273" />
</svg>
