<?xml version="1.0" encoding="UTF-8" standalone="no"?>
<!-- Created with Inkscape (http://www.inkscape.org/) -->

<svg
   version="1.1"
   id="svg13773"
   width="795.03467"
   height="793.70135"
   viewBox="0 0 795.03467 793.70135"
   sodipodi:docname="Oni Kajinoha.svg"
   inkscape:version="1.2 (dc2aeda, 2022-05-15)"
   xmlns:inkscape="http://www.inkscape.org/namespaces/inkscape"
   xmlns:sodipodi="http://sodipodi.sourceforge.net/DTD/sodipodi-0.dtd"
   xmlns="http://www.w3.org/2000/svg"
   xmlns:svg="http://www.w3.org/2000/svg">
  <defs
     id="defs13777">
    <clipPath
       clipPathUnits="userSpaceOnUse"
       id="clipPath14266">
      <path
         d="m -317.6377,490.6803 h 596.276 v -595.276 h -596.276 z"
         id="path14268"
         style="stroke-width:0.999998" />
    </clipPath>
    <clipPath
       clipPathUnits="userSpaceOnUse"
       id="clipPath14272">
      <path
         d="M -584.1943,578.9381 H 12.081705 V -16.337903 H -584.1943 Z"
         id="path14274"
         style="stroke-width:0.999998" />
    </clipPath>
    <clipPath
       clipPathUnits="userSpaceOnUse"
       id="clipPath14278">
      <path
         d="M -586.5449,579.5026 H 9.7311002 V -15.7734 H -586.5449 Z"
         id="path14280"
         style="stroke-width:0.999998" />
    </clipPath>
    <clipPath
       clipPathUnits="userSpaceOnUse"
       id="clipPath14284">
      <path
         d="M -538.2217,577.9479 H 58.054299 V -17.328098 H -538.2217 Z"
         id="path14286"
         style="stroke-width:0.999998" />
    </clipPath>
    <clipPath
       clipPathUnits="userSpaceOnUse"
       id="clipPath14290">
      <path
         d="M -531.1924,581.5885 H 65.083599 V -13.6875 H -531.1924 Z"
         id="path14292"
         style="stroke-width:0.999998" />
    </clipPath>
    <clipPath
       clipPathUnits="userSpaceOnUse"
       id="clipPath14296">
      <path
         d="M -536.6982,584.5729 H 59.577804 V -10.7031 H -536.6982 Z"
         id="path14298"
         style="stroke-width:0.999998" />
    </clipPath>
    <clipPath
       clipPathUnits="userSpaceOnUse"
       id="clipPath14302">
      <path
         d="M -556.4014,578.0143 H 39.874606 V -17.2617 H -556.4014 Z"
         id="path14304"
         style="stroke-width:0.999998" />
    </clipPath>
    <clipPath
       clipPathUnits="userSpaceOnUse"
       id="clipPath14308">
      <path
         d="M -528.0898,575.3815 H 68.186199 V -19.8945 H -528.0898 Z"
         id="path14310"
         style="stroke-width:0.999998" />
    </clipPath>
    <clipPath
       clipPathUnits="userSpaceOnUse"
       id="clipPath14314">
      <path
         d="M -548.9834,585.8522 H 47.292601 V -9.4238027 H -548.9834 Z"
         id="path14316"
         style="stroke-width:0.999998" />
    </clipPath>
    <clipPath
       clipPathUnits="userSpaceOnUse"
       id="clipPath14320">
      <path
         d="M -540.8213,585.8483 H 55.454701 V -9.4277027 H -540.8213 Z"
         id="path14322"
         style="stroke-width:0.999998" />
    </clipPath>
    <clipPath
       clipPathUnits="userSpaceOnUse"
       id="clipPath14326">
      <path
         d="M -567.7754,585.8522 H 28.500601 V -9.4238027 H -567.7754 Z"
         id="path14328"
         style="stroke-width:0.999998" />
    </clipPath>
    <clipPath
       clipPathUnits="userSpaceOnUse"
       id="clipPath14332">
      <path
         d="M -542.9326,584.5729 H 53.343399 V -10.7031 H -542.9326 Z"
         id="path14334"
         style="stroke-width:0.999998" />
    </clipPath>
    <clipPath
       clipPathUnits="userSpaceOnUse"
       id="clipPath14338">
      <path
         d="M -574.5459,585.8522 H 21.730103 V -9.4238027 H -574.5459 Z"
         id="path14340"
         style="stroke-width:0.999998" />
    </clipPath>
    <clipPath
       clipPathUnits="userSpaceOnUse"
       id="clipPath14344">
      <path
         d="M -572.8174,586.1354 H 23.458606 V -9.1406027 H -572.8174 Z"
         id="path14346"
         style="stroke-width:0.999998" />
    </clipPath>
    <clipPath
       clipPathUnits="userSpaceOnUse"
       id="clipPath14350">
      <path
         d="M -576.3691,585.5885 H 19.906905 V -9.6875027 H -576.3691 Z"
         id="path14352"
         style="stroke-width:0.999998" />
    </clipPath>
    <clipPath
       clipPathUnits="userSpaceOnUse"
       id="clipPath14356">
      <path
         d="M -564.5732,585.8483 H 31.702801 V -9.4277027 H -564.5732 Z"
         id="path14358"
         style="stroke-width:0.999998" />
    </clipPath>
    <clipPath
       clipPathUnits="userSpaceOnUse"
       id="clipPath14362">
      <path
         d="M -545.417,584.5729 H 50.859001 V -10.7031 H -545.417 Z"
         id="path14364"
         style="stroke-width:0.999998" />
    </clipPath>
    <clipPath
       clipPathUnits="userSpaceOnUse"
       id="clipPath14368">
      <path
         d="M -557.4951,577.8502 H 38.780903 V -17.4258 H -557.4951 Z"
         id="path14370"
         style="stroke-width:0.999998" />
    </clipPath>
    <clipPath
       clipPathUnits="userSpaceOnUse"
       id="clipPath14374">
      <path
         d="M -568.2266,575.819 H 28.049401 V -19.457003 H -568.2266 Z"
         id="path14376"
         style="stroke-width:0.999998" />
    </clipPath>
    <clipPath
       clipPathUnits="userSpaceOnUse"
       id="clipPath14381">
      <path
         d="M -550.2637,577.3248 H 46.012306 V -17.951198 H -550.2637 Z"
         id="path14383"
         style="stroke-width:0.999998" />
    </clipPath>
    <clipPath
       clipPathUnits="userSpaceOnUse"
       id="clipPath14388">
      <path
         d="M -557.0645,585.8483 H 39.211501 V -9.4277027 H -557.0645 Z"
         id="path14390"
         style="stroke-width:0.999998" />
    </clipPath>
    <clipPath
       clipPathUnits="userSpaceOnUse"
       id="clipPath14394">
      <path
         d="M -561.4131,585.8522 H 34.862903 V -9.4238027 H -561.4131 Z"
         id="path14396"
         style="stroke-width:0.999998" />
    </clipPath>
    <clipPath
       clipPathUnits="userSpaceOnUse"
       id="clipPath14400">
      <path
         d="M -553.8975,585.8483 H 42.378504 V -9.4277027 H -553.8975 Z"
         id="path14402"
         style="stroke-width:0.999998" />
    </clipPath>
  </defs>
  <sodipodi:namedview
     id="namedview13775"
     pagecolor="#ffffff"
     bordercolor="#000000"
     borderopacity="0.25"
     inkscape:showpageshadow="2"
     inkscape:pageopacity="0.0"
     inkscape:pagecheckerboard="0"
     inkscape:deskcolor="#d1d1d1"
     showgrid="false"
     inkscape:zoom="0.29734106"
     inkscape:cx="-215.24105"
     inkscape:cy="400.21382"
     inkscape:window-width="1419"
     inkscape:window-height="456"
     inkscape:window-x="0"
     inkscape:window-y="25"
     inkscape:window-maximized="0"
     inkscape:current-layer="svg13773">
    <inkscape:page
       x="0"
       y="0"
       id="page13779"
       width="795.03467"
       height="793.70135" />
  </sodipodi:namedview>
  <path
     d="M 423.517 654.24 C 420.132 650.453 416.397 647.275 412.08 645.109 C 407.886 643.017 403.082 641.712 396.85 641.696 C 390.616 641.712 385.814 643.017 381.621 645.109 C 377.438 647.213 373.837 650.204 370.53 653.827 C 370.413 653.956 370.304 654.1 370.184 654.229 L 370.184 691.552 C 370.184 733.089 346.171 758.482 346.171 758.482 L 447.533 758.482 C 447.533 758.482 423.517 733.089 423.517 691.552 Z M 679.896 379.177 C 702.188 377.623 732.574 378.91 732.574 381.025 C 732.574 383.137 698.998 384.426 681.15 385.699 C 663.298 386.975 639.214 390.887 616.235 395.205 C 633.071 404.379 656.371 409.714 670.098 409.714 C 688.374 409.714 708.954 403.567 709.615 405.575 C 710.271 407.583 690.686 416.179 669.552 416.453 C 648.42 416.729 624.986 410.277 605.025 397.435 C 590.907 400.41 576.613 404.058 562.558 408.518 C 589.574 423.731 620.574 432.838 647.94 435.79 C 678.576 439.097 712.768 432.751 713.18 434.823 C 713.592 436.895 677.374 446.803 639.438 441.879 C 610.319 438.101 580.186 428.227 552.886 411.739 C 541.041 415.858 529.446 420.593 518.35 426.021 C 552.377 444.839 590.446 455.866 624.511 460.612 C 659.576 465.502 697.082 460.448 697.355 462.546 C 697.623 464.636 660.852 472.618 619.047 466.944 C 582.749 462.019 544.759 450.097 510.181 430.189 C 510.11 430.226 510.033 430.262 509.959 430.303 C 499.219 436.054 489.522 442.086 480.694 448.335 C 516.71 471.376 556.749 483.524 596.566 488.451 C 618.033 491.107 651.595 488.631 651.826 490.73 C 652.058 492.831 631.738 499.61 590.631 495.027 C 551.303 490.642 510.311 476.91 474.088 453.174 C 437.009 481.319 416.76 513.624 402.618 545.746 C 410.298 545.958 417.872 546.579 425.317 547.612 C 446.877 531.355 472.222 523.446 497.363 523.448 C 506.894 523.448 516.394 524.579 525.657 526.818 C 533.607 528.746 541.67 531.41 549.394 535.088 C 575.738 547.639 597.839 569.806 596.41 571.367 C 594.986 572.928 574.254 555.076 551.383 544.491 C 542.217 540.248 533.001 536.456 523.858 534.256 C 515.189 532.16 506.285 531.098 497.363 531.102 C 476.16 531.102 454.85 537.092 436.064 549.402 C 446.421 551.406 456.509 554.175 466.249 557.67 C 478.82 552.866 491.587 550.599 504.159 550.599 C 524.905 550.611 545.386 556.122 563.183 567.216 C 590.402 584.194 607.514 610.169 605.829 611.448 C 604.145 612.723 588.837 591.412 562.989 575.906 C 544.934 565.072 524.535 558.239 504.159 558.254 C 495.265 558.254 486.296 559.474 477.348 562.024 C 490.647 567.688 503.235 574.71 514.926 582.918 C 536.483 584.948 555.907 593.691 570.951 607.107 C 595.293 628.821 605.249 657.019 603.371 657.988 C 601.493 658.955 592.741 634.983 567.662 613.095 C 556.973 603.764 542.369 596.503 528.027 592.893 C 538.673 601.712 548.246 611.716 557.087 622.344 C 574.678 643.485 580.001 661.328 578.123 662.304 C 576.246 663.271 567.662 645.823 551.725 627.12 C 542.11 615.839 530.303 604.219 518.189 594.813 C 520.642 612.657 528.095 627.9 538.355 641.771 C 551.725 659.848 568.869 674.643 567.522 676.268 C 566.765 677.184 543.65 665.161 528.449 641.089 C 518.342 625.084 511.238 608.783 509.883 588.729 C 497.602 580.176 484.309 572.978 470.22 567.351 C 471.381 583.876 480.768 602.423 492.009 620.533 C 507.309 645.184 539.478 676.113 537.951 677.544 C 536.426 678.973 522.397 669.199 499.147 642.464 C 494.077 636.636 489.601 630.328 485.35 624.055 C 472.228 604.647 462.842 584.159 462.457 564.443 C 452.053 560.79 441.254 557.986 430.142 556.1 C 430.46 575.91 439.096 595.081 449.29 612.244 C 466.08 640.507 488.78 659.44 486.78 661.981 C 484.782 664.524 460.768 643.271 442.598 615.207 C 431.066 597.393 422.504 577.216 422.468 554.952 C 414.082 553.866 405.533 553.294 396.85 553.294 C 388.168 553.294 379.621 553.866 371.236 554.952 C 371.2 577.216 362.634 597.393 351.105 615.207 C 332.933 643.271 308.921 664.524 306.921 661.981 C 304.924 659.44 327.621 640.507 344.413 612.244 C 354.605 595.081 363.244 575.91 363.561 556.1 C 352.449 557.986 341.651 560.79 331.247 564.443 C 330.861 584.159 321.473 604.647 308.353 624.055 C 304.1 630.328 299.624 636.636 294.556 642.464 C 271.304 669.199 257.277 678.973 255.752 677.544 C 254.223 676.113 286.392 645.184 301.695 620.533 C 312.936 602.423 322.32 583.876 323.484 567.351 C 309.395 572.978 296.099 580.176 283.82 588.729 C 282.465 608.783 275.361 625.084 265.255 641.089 C 250.053 665.161 226.939 677.184 226.181 676.268 C 224.835 674.643 241.979 659.848 255.348 641.771 C 265.605 627.9 273.059 612.657 275.515 594.813 C 263.4 604.219 251.593 615.839 241.979 627.12 C 226.039 645.823 217.455 663.271 215.578 662.304 C 213.7 661.328 219.026 643.485 236.616 622.344 C 245.457 611.716 255.031 601.712 265.673 592.893 C 251.332 596.503 236.728 603.764 226.039 613.095 C 200.96 634.983 192.208 658.955 190.332 657.988 C 188.455 657.019 198.411 628.821 222.752 607.107 C 237.793 593.691 257.22 584.948 278.775 582.918 C 290.465 574.71 303.053 567.688 316.353 562.024 C 307.408 559.474 298.439 558.254 289.544 558.254 C 269.168 558.239 248.767 565.072 230.715 575.906 C 204.867 591.412 189.559 612.723 187.875 611.448 C 186.19 610.169 203.299 584.194 230.52 567.216 C 248.315 556.122 268.799 550.611 289.544 550.599 C 302.116 550.599 314.884 552.866 327.452 557.67 C 337.195 554.175 347.283 551.406 357.64 549.402 C 338.853 537.092 317.544 531.102 296.337 531.102 C 287.416 531.098 278.515 532.16 269.845 534.256 C 260.7 536.456 251.487 540.248 242.317 544.491 C 219.45 555.076 198.715 572.928 197.291 571.367 C 195.864 569.806 217.963 547.639 244.307 535.088 C 252.033 531.41 260.093 528.746 268.045 526.818 C 277.307 524.579 286.809 523.448 296.337 523.448 C 321.479 523.446 346.824 531.355 368.386 547.612 C 375.829 546.579 383.405 545.958 391.082 545.746 C 376.941 513.624 356.692 481.319 319.613 453.174 C 283.392 476.91 242.397 490.642 203.072 495.027 C 161.963 499.61 141.643 492.831 141.878 490.73 C 142.108 488.631 175.671 491.107 197.135 488.451 C 236.952 483.524 276.991 471.376 313.009 448.335 C 304.181 442.086 294.481 436.054 283.741 430.303 C 283.671 430.262 283.593 430.226 283.52 430.189 C 248.941 450.097 210.955 462.019 174.654 466.944 C 132.851 472.618 96.0778 464.636 96.3485 462.546 C 96.6218 460.448 134.127 465.502 169.192 460.612 C 203.255 455.866 241.327 444.839 275.351 426.021 C 264.255 420.593 252.66 415.858 240.815 411.739 C 213.515 428.227 183.382 438.101 154.266 441.879 C 116.327 446.803 80.1112 436.895 80.5205 434.823 C 80.9339 432.751 115.127 439.097 145.763 435.79 C 173.13 432.838 204.13 423.731 231.145 408.518 C 217.088 404.058 202.794 400.41 188.679 397.435 C 168.718 410.277 145.283 416.729 124.148 416.453 C 103.018 416.179 83.4299 407.583 84.0858 405.575 C 84.7498 403.567 105.327 409.714 123.606 409.714 C 137.33 409.714 160.63 404.379 177.466 395.205 C 154.487 390.887 130.406 386.975 112.554 385.699 C 94.7032 384.426 61.1299 383.137 61.1299 381.025 C 61.1299 378.91 91.5152 377.623 113.807 379.177 C 131.028 380.375 153.346 383.046 175.148 386.982 C 154.812 370.71 131.682 362.917 105.37 362.279 C 79.0539 361.641 51.0619 374.542 50.1139 372.651 C 49.1659 370.761 75.6299 355.043 105.37 354.883 C 133.25 354.733 166.518 366.582 189.815 389.847 C 203.78 392.779 217.947 396.374 231.933 400.754 C 209.343 365.091 172.13 342.574 134.87 335.759 C 100.015 329.383 78.2672 335.582 77.8619 333.509 C 77.4525 331.437 110.218 323.858 132.398 327.813 C 178.004 335.942 219.187 361.481 242.989 404.403 C 254.501 408.399 265.829 412.971 276.728 418.191 C 258.293 368.921 218.927 334.694 172.218 316.314 C 147.515 306.59 104.979 306.638 104.864 304.529 C 104.755 302.42 143.69 298.142 176.924 310.489 C 226.829 329.025 268.859 368.573 286.541 423.131 C 286.807 423.275 287.08 423.411 287.348 423.557 C 297.452 428.946 306.695 434.606 315.173 440.478 C 308.215 381.178 265.105 329.167 210.471 302.605 C 181.622 288.58 145.708 283.785 145.939 281.688 C 146.174 279.586 185.023 281.142 219.49 299.337 C 276.143 329.249 318.695 383.434 323.421 446.45 C 357.908 472.435 378.645 502.139 393.033 531.691 L 393.033 463.984 C 380.757 445.267 361.405 426.41 348.343 413.699 C 342.444 407.962 328.004 398.53 329.14 396.749 C 330.277 394.97 342.285 400.63 351.545 407.705 C 353.911 409.511 356.481 411.633 359.168 413.985 C 358.009 403.465 355.879 395.501 352.911 387.613 C 349.192 377.73 337.916 363.287 339.093 362.274 C 340.267 361.262 352.7 372.63 358.689 383.71 C 362.416 390.598 366.632 405.595 367.476 421.654 C 376.444 430.342 385.809 440.694 393.033 450.561 L 393.033 369.447 C 327.327 331.886 278.135 258.269 278.135 175.088 C 278.135 163.193 280.864 154.213 282.968 154.387 C 285.072 154.56 285.528 169.6 285.533 175.088 C 285.496 253.568 331.479 323.702 393.033 360.591 L 393.033 329.454 C 340.075 294.394 309.736 226.381 306.561 153.907 C 306.299 147.812 306.143 141.649 306.143 135.435 C 306.143 121.752 308.783 110.268 310.892 110.409 C 312.996 110.547 313.28 128.484 313.28 135.435 C 313.28 141.519 313.947 147.573 314.208 153.573 C 317.168 222.217 345.345 286.214 393.033 320.192 L 393.033 284.313 C 351.747 250.188 336.315 199.044 333.181 142.153 C 332.796 135.181 332.572 128.172 332.572 121.151 C 332.572 105.813 335.715 91.7201 337.817 91.9094 C 339.919 92.0947 339.971 112.761 339.971 121.151 C 339.971 128.011 340.439 134.881 340.82 141.731 C 343.804 195.262 357.673 242.053 393.033 274.2 L 393.033 233.041 C 367.637 206.621 361.7 168.407 360.377 126.436 C 360.244 122.131 360.168 117.855 360.168 113.613 C 360.168 90.0881 363.741 78.6534 365.845 78.8668 C 367.941 79.0801 367.564 103.163 367.564 113.613 C 367.564 117.768 367.892 121.965 368.022 126.201 C 369.176 164.247 374.386 197.685 393.033 221.436 L 393.033 117.053 C 393.033 69.8948 394.738 54.3775 396.85 54.3655 C 398.962 54.3775 400.67 69.8948 400.67 117.053 L 400.67 221.436 C 419.314 197.685 424.528 164.247 425.681 126.201 C 425.809 121.965 426.137 117.768 426.137 113.613 C 426.137 103.163 425.76 79.0801 427.858 78.8668 C 429.96 78.6534 433.533 90.0881 433.533 113.613 C 433.533 117.855 433.46 122.131 433.326 126.436 C 432.004 168.407 426.066 206.621 400.67 233.041 L 400.67 274.2 C 436.028 242.053 449.897 195.262 452.881 141.731 C 453.262 134.881 453.736 128.011 453.736 121.151 C 453.736 112.761 453.782 92.0947 455.886 91.9094 C 457.989 91.7201 461.129 105.813 461.129 121.151 C 461.129 128.172 460.905 135.181 460.522 142.153 C 457.386 199.044 441.957 250.188 400.67 284.313 L 400.67 320.192 C 448.358 286.214 476.533 222.217 479.496 153.573 C 479.757 147.573 480.424 141.519 480.424 135.435 C 480.424 128.484 480.708 110.547 482.812 110.409 C 484.921 110.268 487.561 121.752 487.561 135.435 C 487.561 141.649 487.405 147.812 487.142 153.907 C 483.965 226.381 453.626 294.394 400.67 329.454 L 400.67 360.591 C 462.222 323.702 508.205 253.568 508.167 175.088 C 508.173 169.6 508.629 154.56 510.733 154.387 C 512.839 154.213 515.569 163.193 515.569 175.088 C 515.569 258.269 466.374 331.886 400.67 369.447 L 400.67 450.561 C 407.894 440.694 417.26 430.342 426.228 421.654 C 427.069 405.595 431.288 390.598 435.012 383.71 C 441.001 372.63 453.436 361.262 454.61 362.274 C 455.788 363.287 444.509 377.73 440.79 387.613 C 437.824 395.501 435.694 403.465 434.536 413.985 C 437.222 411.633 439.79 409.511 442.156 407.705 C 451.418 400.63 463.426 394.97 464.561 396.749 C 465.697 398.53 451.257 407.962 445.361 413.699 C 432.298 426.41 412.944 445.267 400.67 463.984 L 400.67 531.691 C 415.058 502.139 435.793 472.435 470.282 446.45 C 475.009 383.434 517.558 329.249 574.214 299.337 C 608.678 281.142 647.527 279.586 647.762 281.688 C 647.995 283.785 612.082 288.58 583.23 302.605 C 528.595 329.167 485.49 381.178 478.53 440.478 C 487.006 434.606 496.251 428.946 506.353 423.557 C 506.621 423.411 506.894 423.275 507.162 423.131 C 524.845 368.573 566.871 329.025 616.779 310.489 C 650.014 298.142 688.948 302.42 688.836 304.529 C 688.727 306.638 646.188 306.59 621.486 316.314 C 574.777 334.694 535.41 368.921 516.975 418.191 C 527.874 412.971 539.202 408.399 550.714 404.403 C 574.517 361.481 615.699 335.942 661.303 327.813 C 683.486 323.858 716.248 331.437 715.842 333.509 C 715.431 335.582 693.686 329.383 658.834 335.759 C 621.574 342.574 584.361 365.091 561.767 400.754 C 575.757 396.374 589.921 392.779 603.889 389.847 C 627.183 366.582 660.454 354.733 688.334 354.883 C 718.074 355.043 744.538 370.761 743.59 372.651 C 742.639 374.542 714.65 361.641 688.334 362.279 C 662.022 362.917 638.888 370.71 618.553 386.982 C 640.358 383.046 662.675 380.375 679.896 379.177 M 750.438 387.254 C 759.331 375.934 765.104 362.809 765.104 362.809 C 765.104 362.809 757.945 346.874 743.883 335.031 C 731.216 324.365 721.883 321.031 721.883 321.031 L 732.883 301.032 C 732.883 301.032 718.55 293.032 701.883 288.032 C 686.159 283.314 669.55 283.365 669.55 283.365 L 678.883 261.365 C 678.883 261.365 654.55 257.698 624.216 263.365 C 593.883 269.032 581.993 277.476 581.993 277.476 L 582.217 261.032 C 582.217 261.032 546.217 271.365 525.217 291.698 C 495.746 320.233 484.11 339.673 476.66 349.921 C 472.217 356.031 465.55 354.698 463.55 352.865 C 461.55 351.031 459.717 344.198 466.217 339.365 C 479.277 329.654 506.883 303.698 523.55 267.032 C 540.217 230.365 542.883 181.032 542.883 181.032 L 533.217 186.032 C 533.217 186.032 535.326 165.921 533.55 146.809 C 531.771 127.699 526.771 110.032 526.771 110.032 C 526.771 110.032 521.915 111.32 516.105 114.032 C 508.605 117.532 507.771 118.365 507.771 118.365 C 507.771 118.365 503.593 105.003 492.217 87.2548 C 481.105 69.9215 470.438 61.9215 470.438 61.9215 C 470.438 61.9215 465.309 62.6001 457.55 67.2548 C 448.66 72.5881 444.772 75.8094 444.772 75.8094 C 444.772 75.8094 435.541 58.7522 422.438 47.6988 C 408.217 35.6989 396.85 31.7296 396.85 31.7296 C 396.85 31.7296 385.486 35.6989 371.262 47.6988 C 358.162 58.7522 348.929 75.8094 348.929 75.8094 C 348.929 75.8094 345.041 72.5881 336.153 67.2548 C 328.392 62.6001 323.263 61.9215 323.263 61.9215 C 323.263 61.9215 312.596 69.9215 301.487 87.2548 C 290.108 105.003 285.929 118.365 285.929 118.365 C 285.929 118.365 285.096 117.532 277.596 114.032 C 271.785 111.32 266.929 110.032 266.929 110.032 C 266.929 110.032 261.929 127.699 260.153 146.809 C 258.375 165.921 260.487 186.032 260.487 186.032 L 250.82 181.032 C 250.82 181.032 253.487 230.365 270.153 267.032 C 286.82 303.698 314.427 329.654 327.487 339.365 C 333.987 344.198 332.153 351.031 330.153 352.865 C 328.153 354.698 321.487 356.031 317.044 349.921 C 309.591 339.673 297.957 320.233 268.487 291.698 C 247.487 271.365 211.487 261.032 211.487 261.032 L 211.708 277.476 C 211.708 277.476 199.82 269.032 169.487 263.365 C 139.154 257.698 114.82 261.365 114.82 261.365 L 124.154 283.365 C 124.154 283.365 107.542 283.314 91.8205 288.032 C 75.1539 293.032 60.8206 301.032 60.8206 301.032 L 71.8205 321.031 C 71.8205 321.031 62.4872 324.365 49.8206 335.031 C 35.758 346.874 28.5993 362.809 28.5993 362.809 C 28.5993 362.809 34.3726 375.934 43.266 387.254 C 53.0419 399.698 59.2659 405.031 59.2659 405.031 L 40.5993 425.475 C 40.5993 425.475 49.4113 437.342 61.0419 448.587 C 74.3752 461.475 81.9325 466.808 81.9325 466.808 L 71.2659 481.031 C 71.2659 481.031 82.2005 494.684 101.487 500.142 C 125.042 506.808 137.93 505.475 137.93 505.475 L 131.708 517.031 C 131.708 517.031 180.596 525.187 232.153 511.254 C 281.487 497.92 293.96 490.412 300.596 486.364 C 307.153 482.364 314.82 485.364 316.987 490.864 C 319.153 496.364 314.489 504.423 304.153 505.031 C 296.599 505.475 280.599 501.031 232.82 518.364 C 192.179 533.107 170.82 566.364 170.82 566.364 L 185.487 574.364 C 185.487 574.364 174.715 586.672 168.487 601.531 C 161.987 617.031 159.487 637.031 159.487 637.031 L 179.487 639.031 C 179.487 639.031 177.154 648.531 176.82 661.697 C 176.496 674.431 179.619 690.357 179.619 690.357 C 179.619 690.357 201.51 694.885 214.82 695.697 C 228.487 696.531 243.487 696.364 243.487 696.364 L 245.487 713.697 C 245.487 713.697 265.684 711.839 283.32 704.531 C 301.82 696.864 314.153 686.364 314.153 686.364 L 318.153 698.364 C 318.153 698.364 335.656 688.259 346.153 673.697 C 356.487 659.364 366.85 633.031 396.85 633.031 C 426.85 633.031 437.217 659.364 447.55 673.697 C 458.048 688.259 475.55 698.364 475.55 698.364 L 479.55 686.364 C 479.55 686.364 491.883 696.864 510.383 704.531 C 528.019 711.839 548.217 713.697 548.217 713.697 L 550.217 696.364 C 550.217 696.364 565.217 696.531 578.883 695.697 C 592.191 694.885 614.085 690.357 614.085 690.357 C 614.085 690.357 617.207 674.431 616.883 661.697 C 616.55 648.531 614.217 639.031 614.217 639.031 L 634.216 637.031 C 634.216 637.031 631.716 617.031 625.216 601.531 C 618.986 586.672 608.217 574.364 608.217 574.364 L 622.883 566.364 C 622.883 566.364 601.522 533.107 560.883 518.364 C 513.105 501.031 497.105 505.475 489.55 505.031 C 479.212 504.423 474.55 496.364 476.717 490.864 C 478.884 485.364 486.55 482.364 493.105 486.364 C 499.741 490.412 512.214 497.92 561.55 511.254 C 613.107 525.187 661.995 517.031 661.995 517.031 L 655.771 505.475 C 655.771 505.475 668.659 506.808 692.214 500.142 C 711.5 494.684 722.438 481.031 722.438 481.031 L 711.771 466.808 C 711.771 466.808 719.326 461.475 732.659 448.587 C 744.292 437.342 753.104 425.475 753.104 425.475 L 734.438 405.031 C 734.438 405.031 740.659 399.698 750.438 387.254"
     style="fill:#000000;fill-opacity:1;fill-rule:nonzero;stroke:none"
     id="path13893" />
</svg>
