<?xml version="1.0" encoding="UTF-8" standalone="no"?>
<!-- Created with Inkscape (http://www.inkscape.org/) -->

<svg
   version="1.1"
   id="svg1321"
   width="793.70135"
   height="793.70135"
   viewBox="0 0 793.70135 793.70135"
   sodipodi:docname="Sotowari Oni Kajinoha.svg"
   inkscape:version="1.2 (dc2aeda, 2022-05-15)"
   xmlns:inkscape="http://www.inkscape.org/namespaces/inkscape"
   xmlns:sodipodi="http://sodipodi.sourceforge.net/DTD/sodipodi-0.dtd"
   xmlns="http://www.w3.org/2000/svg"
   xmlns:svg="http://www.w3.org/2000/svg">
  <defs
     id="defs1325">
    <clipPath
       clipPathUnits="userSpaceOnUse"
       id="clipPath1898">
      <path
         d="M -553.8975,585.8483 H 41.378499 V -9.4277027 H -553.8975 Z"
         id="path1900"
         style="stroke-width:0.999998" />
    </clipPath>
    <clipPath
       clipPathUnits="userSpaceOnUse"
       id="clipPath1904">
      <path
         d="M -557.0645,585.8483 H 38.211496 V -9.4277027 H -557.0645 Z"
         id="path1906"
         style="stroke-width:0.999998" />
    </clipPath>
    <clipPath
       clipPathUnits="userSpaceOnUse"
       id="clipPath1910">
      <path
         d="M -528.0898,575.3815 H 67.186194 V -19.8945 H -528.0898 Z"
         id="path1912"
         style="stroke-width:0.999998" />
    </clipPath>
    <clipPath
       clipPathUnits="userSpaceOnUse"
       id="clipPath1916">
      <path
         d="M -540.8213,585.8483 H 54.454696 V -9.4277027 H -540.8213 Z"
         id="path1918"
         style="stroke-width:0.999998" />
    </clipPath>
    <clipPath
       clipPathUnits="userSpaceOnUse"
       id="clipPath1922">
      <path
         d="M -567.7754,585.8522 H 27.500596 V -9.4238027 H -567.7754 Z"
         id="path1924"
         style="stroke-width:0.999998" />
    </clipPath>
    <clipPath
       clipPathUnits="userSpaceOnUse"
       id="clipPath1928">
      <path
         d="M -536.6982,584.5729 H 58.577799 V -10.7031 H -536.6982 Z"
         id="path1930"
         style="stroke-width:0.999998" />
    </clipPath>
    <clipPath
       clipPathUnits="userSpaceOnUse"
       id="clipPath1935">
      <path
         d="M -557.4951,577.8502 H 37.780898 V -17.4258 H -557.4951 Z"
         id="path1937"
         style="stroke-width:0.999998" />
    </clipPath>
    <clipPath
       clipPathUnits="userSpaceOnUse"
       id="clipPath1941">
      <path
         d="M -572.8174,586.1354 H 22.458601 V -9.1406027 H -572.8174 Z"
         id="path1943"
         style="stroke-width:0.999998" />
    </clipPath>
    <clipPath
       clipPathUnits="userSpaceOnUse"
       id="clipPath1947">
      <path
         d="M -574.5459,585.8522 H 20.730098 V -9.4238027 H -574.5459 Z"
         id="path1949"
         style="stroke-width:0.999998" />
    </clipPath>
    <clipPath
       clipPathUnits="userSpaceOnUse"
       id="clipPath1953">
      <path
         d="M -550.2637,577.3248 H 45.012301 V -17.951198 H -550.2637 Z"
         id="path1955"
         style="stroke-width:0.999998" />
    </clipPath>
    <clipPath
       clipPathUnits="userSpaceOnUse"
       id="clipPath1959">
      <path
         d="M -586.5449,579.5026 H 8.7310952 V -15.7734 H -586.5449 Z"
         id="path1961"
         style="stroke-width:0.999998" />
    </clipPath>
    <clipPath
       clipPathUnits="userSpaceOnUse"
       id="clipPath1965">
      <path
         d="M -576.3691,585.5885 H 18.9069 V -9.6875027 h -595.276 z"
         id="path1967"
         style="stroke-width:0.999998" />
    </clipPath>
    <clipPath
       clipPathUnits="userSpaceOnUse"
       id="clipPath1972">
      <path
         d="M -568.2266,575.819 H 27.049396 V -19.457003 H -568.2266 Z"
         id="path1974"
         style="stroke-width:0.999998" />
    </clipPath>
    <clipPath
       clipPathUnits="userSpaceOnUse"
       id="clipPath1978">
      <path
         d="M -556.4014,578.0143 H 38.874601 V -17.2617 H -556.4014 Z"
         id="path1980"
         style="stroke-width:0.999998" />
    </clipPath>
    <clipPath
       clipPathUnits="userSpaceOnUse"
       id="clipPath1984">
      <path
         d="M -584.1943,578.9381 H 11.0817 V -16.337903 h -595.276 z"
         id="path1986"
         style="stroke-width:0.999998" />
    </clipPath>
    <clipPath
       clipPathUnits="userSpaceOnUse"
       id="clipPath1990">
      <path
         d="M -312.3779,508.7936 H 282.89809 V -86.482397 H -312.3779 Z"
         id="path1992"
         style="stroke-width:0.999998" />
    </clipPath>
    <clipPath
       clipPathUnits="userSpaceOnUse"
       id="clipPath1996">
      <path
         d="m -406.0166,283.0568 h 595.276 v -595.276 h -595.276 z"
         id="path1998"
         style="stroke-width:0.999998" />
    </clipPath>
    <clipPath
       clipPathUnits="userSpaceOnUse"
       id="clipPath2002">
      <path
         d="M -538.2217,577.9479 H 57.054294 V -17.328098 H -538.2217 Z"
         id="path2004"
         style="stroke-width:0.999998" />
    </clipPath>
    <clipPath
       clipPathUnits="userSpaceOnUse"
       id="clipPath2008">
      <path
         d="m -227.1689,562.3112 h 595.276 V -32.964803 h -595.276 z"
         id="path2010"
         style="stroke-width:0.999998" />
    </clipPath>
    <clipPath
       clipPathUnits="userSpaceOnUse"
       id="clipPath2014">
      <path
         d="m -259.9639,481.0123 h 595.276 v -595.276 h -595.276 z"
         id="path2016"
         style="stroke-width:0.999998" />
    </clipPath>
    <clipPath
       clipPathUnits="userSpaceOnUse"
       id="clipPath2020">
      <path
         d="m -189.2568,283.0568 h 595.276 v -595.276 h -595.276 z"
         id="path2022"
         style="stroke-width:0.999998" />
    </clipPath>
    <clipPath
       clipPathUnits="userSpaceOnUse"
       id="clipPath2026">
      <path
         d="m -331.9639,143.9279 h 595.276 v -595.276 h -595.276 z"
         id="path2028"
         style="stroke-width:0.999998" />
    </clipPath>
    <clipPath
       clipPathUnits="userSpaceOnUse"
       id="clipPath2032">
      <path
         d="m -263.3115,143.9279 h 595.276 v -595.276 h -595.276 z"
         id="path2034"
         style="stroke-width:0.999998" />
    </clipPath>
    <clipPath
       clipPathUnits="userSpaceOnUse"
       id="clipPath2038">
      <path
         d="M -564.5732,585.8483 H 30.702796 V -9.4277027 H -564.5732 Z"
         id="path2040"
         style="stroke-width:0.999998" />
    </clipPath>
    <clipPath
       clipPathUnits="userSpaceOnUse"
       id="clipPath2044">
      <path
         d="M -561.4131,585.8522 H 33.862898 V -9.4238027 H -561.4131 Z"
         id="path2046"
         style="stroke-width:0.999998" />
    </clipPath>
    <clipPath
       clipPathUnits="userSpaceOnUse"
       id="clipPath2050">
      <path
         d="M -545.417,584.5729 H 49.858996 V -10.7031 H -545.417 Z"
         id="path2052"
         style="stroke-width:0.999998" />
    </clipPath>
    <clipPath
       clipPathUnits="userSpaceOnUse"
       id="clipPath2056">
      <path
         d="M -542.9326,584.5729 H 52.343394 V -10.7031 H -542.9326 Z"
         id="path2058"
         style="stroke-width:0.999998" />
    </clipPath>
    <clipPath
       clipPathUnits="userSpaceOnUse"
       id="clipPath2062">
      <path
         d="M -531.1924,581.5885 H 64.083594 V -13.6875 H -531.1924 Z"
         id="path2064"
         style="stroke-width:0.999998" />
    </clipPath>
    <clipPath
       clipPathUnits="userSpaceOnUse"
       id="clipPath2068">
      <path
         d="M -548.9834,585.8522 H 46.292596 V -9.4238027 H -548.9834 Z"
         id="path2070"
         style="stroke-width:0.999998" />
    </clipPath>
  </defs>
  <sodipodi:namedview
     id="namedview1323"
     pagecolor="#ffffff"
     bordercolor="#000000"
     borderopacity="0.25"
     inkscape:showpageshadow="2"
     inkscape:pageopacity="0.0"
     inkscape:pagecheckerboard="0"
     inkscape:deskcolor="#d1d1d1"
     showgrid="false"
     inkscape:zoom="0.29734106"
     inkscape:cx="-215.24105"
     inkscape:cy="396.85068"
     inkscape:window-width="1419"
     inkscape:window-height="456"
     inkscape:window-x="0"
     inkscape:window-y="25"
     inkscape:window-maximized="0"
     inkscape:current-layer="svg1321">
    <inkscape:page
       x="0"
       y="0"
       id="page1327"
       width="793.70135"
       height="793.70135" />
  </sodipodi:namedview>
  <path
     d="M 302.892 749.748 C 320.043 754.303 337.687 757.633 355.731 759.657 C 364.957 737.879 372.43 720.167 390.485 694.641 C 408.048 669.808 436.873 648.584 447.085 641.35 C 451.264 638.391 452.134 627.246 443.252 618.712 C 434.988 610.772 422.178 611.918 418.522 619.931 C 415.473 626.615 397.373 655.566 369.413 687.5 C 335.892 725.787 320.195 735.961 302.892 749.748"
     style="fill:#000000;fill-opacity:1;fill-rule:nonzero;stroke:none"
     id="path1441" />
  <path
     d="M 346.619 641.35 C 342.439 638.391 341.567 627.246 350.45 618.711 C 358.712 610.771 371.523 611.918 375.179 619.931 C 376.758 623.389 382.371 632.814 391.288 645.522 C 386.931 651.547 381.939 658.153 376.346 665.123 C 364.086 653.986 352.384 645.435 346.619 641.35"
     style="fill:#000000;fill-opacity:1;fill-rule:nonzero;stroke:none"
     id="path1445" />
  <path
     d="M 416.504 678.391 C 419.007 681.388 421.6 684.432 424.288 687.5 C 457.809 725.787 473.504 735.962 490.806 749.748 C 473.657 754.303 456.015 757.633 437.971 759.656 C 428.744 737.878 421.267 720.167 403.217 694.642 C 402.993 694.326 402.759 694.014 402.535 693.7 C 406.811 688.37 411.597 683.216 416.504 678.391"
     style="fill:#000000;fill-opacity:1;fill-rule:nonzero;stroke:none"
     id="path1449" />
  <path
     d="M 541.355 377.409 C 530.274 402.641 524.844 427.75 523.431 434.761 C 511.994 442.138 500.876 449.633 490.6 456.745 C 493.162 437.782 494.751 418.506 495.319 398.977 C 502.084 393.873 509.662 389.18 517.931 385.544 C 524.896 382.469 533.107 379.494 541.355 377.409"
     style="fill:#000000;fill-opacity:1;fill-rule:nonzero;stroke:none"
     id="path1453" />
  <path
     d="M 442.619 191.904 C 423.226 137.349 401.379 108.092 401.379 58.6323 C 401.379 40.2897 405.114 32.1604 405.114 32.1604 C 405.114 32.1604 425.314 35.6444 448.999 45.3964 C 478.692 57.6243 483.48 66.991 483.48 66.991 L 492.538 55.4977 C 492.538 55.4977 505.078 65.599 513.785 76.047 C 523.72 87.9696 533.985 105.654 533.985 105.654 L 546.873 91.3736 C 546.873 91.3736 557.517 106.048 563.592 122.374 C 569.165 137.349 572.301 157.9 572.301 157.9 L 588.671 146.755 C 588.671 146.755 593.2 168.699 593.895 185.068 C 594.684 203.595 594.244 218.156 594.244 218.156 L 612.007 212.932 C 612.007 212.932 605.804 253.595 587.973 275.278 C 562.2 306.628 539.569 313.282 532.72 341.544 C 531.572 346.485 533.556 350.513 537.816 351.792 C 542.46 353.185 547.991 350.54 549.769 345.698 C 555.116 331.125 567.585 313.397 590.413 295.482 C 610.02 280.094 629.769 277.37 629.769 277.37 L 626.983 290.604 C 626.983 290.604 633.949 285.729 657.637 285.729 C 681.1 285.729 691.074 290.604 691.074 290.604 L 684.804 303.492 C 684.804 303.492 691.421 303.841 705.702 308.716 C 718.973 313.249 731.824 319.514 731.824 319.514 L 724.512 332.75 C 724.512 332.75 729.386 334.492 742.274 344.593 C 752.856 352.886 760.296 361.658 760.296 361.658 C 760.296 361.658 755.61 373.01 742.97 388.13 C 730.548 402.993 722.421 407.635 722.421 407.635 L 735.657 419.826 C 735.657 419.826 730.28 425.695 716.848 434.457 C 708.837 439.681 698.04 444.558 698.04 444.558 L 709.186 455.703 C 709.186 455.703 697.012 461.954 681.668 466.849 C 665.298 472.073 647.881 476.253 647.881 476.253 L 655.894 486.701 C 655.894 486.701 635.343 490.534 602.603 489.837 C 569.431 489.13 545.2 483.941 536.493 486.029 C 531.569 487.245 528.564 492.219 529.783 497.143 C 530.996 502.066 535.829 504.069 540.895 503.857 C 543.509 503.745 544.712 503.506 549.421 502.815 C 560.892 501.138 570.441 498.894 591.572 501.911 C 604.397 503.745 620.367 510.039 620.367 510.039 L 612.007 516.075 C 612.007 516.075 621.525 519.561 633.137 530.471 C 645.454 542.052 657.982 558.104 657.982 558.104 L 645.91 562.284 C 645.91 562.284 654.022 570.61 661.468 589.222 C 670.754 612.44 671.301 637.67 671.301 637.67 C 671.301 637.67 655.105 644.066 638.015 646.807 C 619.204 649.826 607.132 649.362 607.132 649.362 L 608.525 661.205 C 608.525 661.205 591.069 660.583 576.712 657.49 C 561.619 654.239 550.704 651.219 550.704 651.219 L 551.403 665.151 C 551.403 665.151 540.952 661.901 524.7 654.935 C 506.819 647.271 498.048 640.271 482.903 637.287 C 474.436 635.62 466.192 635.515 459.012 636.299 C 459.116 635.399 459.184 634.49 459.187 633.568 C 459.19 626.531 456.218 618.61 449.531 612.184 C 448.543 611.236 447.494 610.406 446.424 609.63 C 452.996 595.235 458.95 580.498 464.278 565.463 C 467.895 565.722 471.687 566.034 475.608 566.402 C 477.994 573.244 484.812 590.558 497.376 606.5 C 519.359 634.383 539.755 642.656 541.312 641.044 C 542.869 639.435 525.277 630.378 505.426 603.036 C 495.603 589.508 488.554 575.132 485.463 567.408 C 493.991 568.359 503.038 569.566 512.364 571.05 C 514.259 578.856 520.359 597.956 536.752 612.112 C 565.16 636.648 593.48 645.752 594.733 643.552 C 595.985 641.348 568.816 631.596 543.043 606.344 C 529.924 593.495 524.203 580.175 521.971 572.659 C 525.668 573.312 529.389 574.006 533.132 574.744 C 538.463 575.784 543.569 577.118 548.843 578.796 C 550.7 584.716 556.572 600.351 570.408 612.635 C 590.588 630.552 617.335 635.164 618.241 633.12 C 619.147 631.075 597.725 627.07 576.655 606.518 C 568.905 598.963 563.053 589.419 559.939 582.73 C 568.241 585.922 577.457 589.948 588.845 595.026 C 625.939 611.57 650.528 629.847 652.6 628.46 C 654.676 627.07 633.496 609.388 605.739 593.284 C 594.597 586.82 582.608 581.175 570.733 576.572 C 571.025 576.568 571.304 576.558 571.6 576.558 C 575.329 576.558 579.603 576.902 584.371 577.836 C 590.707 579.055 595.697 580.011 606.783 584.227 C 626.463 591.716 641.364 604.626 642.968 602.872 C 644.574 601.12 632.036 586.667 613.679 578.282 C 601.744 572.828 594.733 570.662 586.111 568.951 C 580.752 567.902 575.889 567.503 571.6 567.503 C 562.523 567.506 556.069 569.282 552.867 570.414 C 546.647 568.542 540.6 567.003 534.892 565.859 C 532.392 565.364 529.905 564.896 527.425 564.44 C 528.367 563.851 529.373 563.244 530.455 562.63 C 537.681 558.52 547.867 554.192 559.583 553.175 C 562.327 552.932 577.873 552.008 591.98 554.099 C 612.4 557.126 632.296 567.282 633.384 565.391 C 634.473 563.503 615.665 550.963 593.703 546.356 C 576.819 542.815 561.821 543.883 558.791 544.151 C 536.463 546.178 520.015 558.099 514.827 562.268 C 505.83 560.82 497.106 559.635 488.81 558.68 C 491.028 556.57 493.775 554.123 497.01 551.591 C 506.244 544.334 519.312 536.46 534.397 533.684 C 542.52 532.18 545.717 531.651 560.807 530.938 C 597.553 529.195 618.616 540.454 619.928 538.394 C 621.239 536.336 596.507 521.881 559.812 522.417 C 547.741 522.591 541.496 523.159 532.749 524.779 C 503.887 530.236 483.312 550.899 477.322 557.466 C 473.884 557.138 470.551 556.854 467.33 556.61 C 476.791 528.375 484.02 499.118 488.786 469.039 C 500.718 460.673 514.116 451.553 527.963 442.615 C 536.397 446.091 567.244 458.417 591.603 462.047 C 629.307 467.662 655.386 462.055 655.001 459.518 C 654.618 456.979 630.351 460.463 593.2 453.613 C 575.272 450.31 549.985 441.555 537.353 436.627 C 544.64 432.042 551.976 427.561 559.217 423.331 C 565.804 427.785 584.832 438.979 613.473 441.834 C 624.207 442.899 627.879 443.469 642.119 443.302 C 664.254 443.047 684.608 437.302 684.066 434.834 C 683.528 432.365 667.301 436.339 642.54 435.618 C 630.583 435.269 624.179 434.331 613.749 433.297 C 591.493 431.097 575.936 423.094 568.067 418.261 C 575.431 414.127 582.647 410.297 589.507 406.957 C 595.856 411.685 614.483 422.651 649.996 422.651 L 650.146 422.651 C 650.506 422.651 670.126 422.471 685.772 420.181 C 707.793 416.954 720.4 407.737 719.801 405.857 C 719.2 403.979 703.088 410.649 682.709 412.826 C 665.366 414.678 649.449 414.427 649.449 414.427 C 622.255 414.403 606.703 407.203 599.091 402.506 C 599.84 402.178 600.597 401.845 601.337 401.529 C 607.747 398.787 613.812 396.367 619.864 394.127 C 624.523 396.373 638.143 401.93 658.954 401.933 C 661.318 401.933 663.772 401.859 666.316 401.703 C 676.924 401.042 681.358 400.654 696.449 397.253 C 714.758 393.125 728.113 385.428 727.761 383.238 C 727.41 381.049 715.454 386.506 692.58 390.104 C 681.214 391.894 671.884 392.289 665.764 392.663 C 663.405 392.81 661.134 392.875 658.954 392.875 C 648.053 392.875 639.392 391.218 633.259 389.464 C 644.78 385.696 657.077 382.265 672.264 378.377 C 707.209 369.44 743.582 367.429 743.582 365.125 C 743.582 362.821 705.933 362.938 679.042 368.549 C 665.353 371.406 649.752 375.244 633.848 380.148 C 638.301 375.649 644.116 370.737 650.9 367.109 C 657.252 363.693 665.996 359.57 679.812 354.693 C 707.965 344.758 727.309 344.685 727.361 342.606 C 727.41 340.53 699.894 340.761 680.676 346.105 C 669.364 349.252 654.49 354.928 646.626 359.129 C 630.707 367.716 620.376 381.393 617.431 385.578 C 610.84 387.914 604.291 390.434 597.897 393.154 C 598.595 391.48 599.403 389.649 600.353 387.688 C 604.647 378.817 608.736 371.658 622.389 357.69 C 629.441 350.476 644.9 340.782 657.982 335.362 C 682.366 325.262 702.6 324.118 702.585 321.554 C 702.566 318.992 678.006 319.256 655.108 327.925 C 641.439 333.098 627.048 341.248 616.28 351.006 C 596.965 368.505 588.619 391.401 586.392 398.409 C 579.752 401.621 572.835 405.247 565.78 409.162 C 566.332 406.993 567.037 404.493 567.949 401.709 C 571.369 391.256 577.613 376.838 588.925 361.189 C 598.759 347.578 612.851 335.112 623.619 327.294 C 641.845 314.058 665.473 307.489 664.746 305.376 C 664.022 303.261 642.54 307.44 623.783 317.632 C 609.155 325.577 593.312 339.656 581.585 355.882 C 561.624 383.517 556.465 407.662 555.28 415.141 C 548.299 419.209 541.249 423.495 534.244 427.881 C 535.473 422.797 537.212 416.178 539.509 408.763 C 544.744 391.825 550.525 374 564.116 353.126 C 585.884 319.689 624.775 302.733 623.733 300.458 C 622.692 298.182 583.097 311.328 556.897 349.044 C 552.96 354.71 549.425 360.81 546.255 367.054 C 534.936 369.178 523.627 373.154 514.283 377.253 C 513.129 377.758 511.993 378.286 510.871 378.828 C 511.176 376.794 511.491 374.76 511.783 372.805 C 514.655 353.474 523.337 347.453 521.608 346.197 C 519.879 344.94 506.556 356.261 503.346 371.037 C 502.531 374.802 501.546 379.841 500.968 384.208 C 499.103 385.336 497.296 386.512 495.526 387.709 C 495.538 386.094 495.559 384.482 495.559 382.862 C 495.559 374.084 495.322 365.364 494.884 356.696 C 519.08 328.63 536.655 299.636 547.963 257.652 C 551.796 243.469 553.999 234.617 555.2 220.677 C 556.436 206.264 557.6 202.235 556.973 185.055 C 555.791 152.615 548.783 132.847 545.988 133.491 C 543.197 134.136 549.657 152.785 548.9 189.952 C 548.649 202.159 547.2 208.087 546.176 219.899 C 545.012 233.401 542.889 241.736 539.22 255.289 C 529.152 292.448 514.473 318.486 494.048 343.584 C 493.088 330.94 491.668 318.429 489.854 306.046 C 504.807 283.862 519.231 255.461 524.359 223.92 C 525.816 214.945 526.861 206.453 527.551 198.421 C 529.348 177.753 529.712 170.409 528.247 151.917 C 525.433 116.388 515.671 100.234 513.479 100.883 C 511.283 101.535 518.755 120.88 520.403 156.507 C 521.215 174.097 520.103 179.216 518.525 197.643 C 517.853 205.452 516.848 213.711 515.421 222.467 C 511.22 248.463 500.119 272.649 487.728 292.661 C 485.871 281.84 483.676 271.138 481.231 260.532 C 490.479 242.891 497.026 223.891 499.816 191.071 C 500.163 187.065 500.45 182.889 500.676 178.527 C 501.551 161.299 500.7 149.459 497.135 128.568 C 491.138 93.3989 481.483 78.211 479.163 78.8563 C 476.84 79.4976 484.822 101.771 488.976 130.62 C 491.682 149.427 492.486 162.327 491.632 178.055 C 491.411 182.323 491.132 186.396 490.796 190.292 C 488.534 216.176 484.138 232.536 477.874 246.7 C 475.695 238.175 473.338 229.721 470.822 221.341 C 475.252 205.12 476.759 191.74 476.758 179.792 C 476.755 167.428 475.166 156.644 473.69 145.795 C 471.51 129.864 463.71 108.191 460.567 100.292 C 452.483 79.9669 443.616 68.003 441.39 68.4123 C 439.16 68.8203 445.864 81.1856 452.57 103.128 C 455.242 111.872 462.718 132.295 464.718 147.019 C 466.204 157.937 467.703 168.219 467.703 179.792 C 467.7 187.199 467.075 195.183 465.439 204.219 C 463.906 199.583 462.324 194.973 460.695 190.388 C 450.903 162.844 440.635 139.74 432.264 121.55 C 415.736 85.6256 418.436 48.535 415.592 47.6124 C 412.747 46.6924 407.064 83.2563 424.314 124.995 C 430.091 138.972 442.564 166.411 452.16 193.42 C 473.28 252.821 486.499 316.252 486.499 382.862 C 486.499 462.297 469.264 537.692 438.338 605.534 C 435.66 604.69 432.916 604.25 430.21 604.247 C 430.166 604.247 430.119 604.252 430.078 604.252 C 460.367 536.656 477.218 461.73 477.218 382.862 C 477.218 315.652 463.876 251.701 442.619 191.904"
     style="fill:#000000;fill-opacity:1;fill-rule:nonzero;stroke:none"
     id="path1457" />
  <path
     d="M 252.342 377.409 C 263.426 402.641 268.855 427.75 270.266 434.761 C 281.703 442.138 292.826 449.633 303.099 456.745 C 300.537 437.782 298.949 418.506 298.381 398.977 C 291.615 393.873 284.037 389.18 275.769 385.544 C 268.803 382.469 260.593 379.494 252.342 377.409"
     style="fill:#000000;fill-opacity:1;fill-rule:nonzero;stroke:none"
     id="path1461" />
  <path
     d="M 351.082 191.904 C 370.475 137.349 392.322 108.092 392.322 58.6323 C 392.322 40.2897 388.587 32.1604 388.587 32.1604 C 388.587 32.1604 368.387 35.6444 344.702 45.3964 C 315.006 57.6243 310.221 66.991 310.221 66.991 L 301.163 55.4977 C 301.163 55.4977 288.623 65.599 279.916 76.047 C 269.981 87.9696 259.716 105.654 259.716 105.654 L 246.828 91.3736 C 246.828 91.3736 236.181 106.048 230.109 122.374 C 224.536 137.349 221.4 157.9 221.4 157.9 L 205.03 146.755 C 205.03 146.755 200.501 168.699 199.806 185.068 C 199.017 203.595 199.457 218.156 199.457 218.156 L 181.694 212.932 C 181.694 212.932 187.894 253.595 205.728 275.278 C 231.501 306.628 254.129 313.282 260.981 341.544 C 262.126 346.485 260.145 350.513 255.885 351.792 C 251.238 353.185 245.708 350.54 243.932 345.698 C 238.585 331.125 226.116 313.397 203.288 295.482 C 183.681 280.094 163.932 277.37 163.932 277.37 L 166.718 290.604 C 166.718 290.604 159.752 285.729 136.064 285.729 C 112.601 285.729 102.627 290.604 102.627 290.604 L 108.897 303.492 C 108.897 303.492 102.28 303.841 87.9987 308.716 C 74.728 313.249 61.8774 319.514 61.8774 319.514 L 69.1894 332.75 C 69.1894 332.75 64.3147 334.492 51.4267 344.593 C 40.8428 352.886 33.4055 361.658 33.4055 361.658 C 33.4055 361.658 38.0881 373.01 50.7308 388.13 C 63.1534 402.993 71.28 407.635 71.28 407.635 L 58.0441 419.826 C 58.0441 419.826 63.4187 425.695 76.8534 434.457 C 84.864 439.681 95.6613 444.558 95.6613 444.558 L 84.5147 455.703 C 84.5147 455.703 96.6893 461.954 112.033 466.849 C 128.403 472.073 145.82 476.253 145.82 476.253 L 137.807 486.701 C 137.807 486.701 158.358 490.534 191.098 489.837 C 224.27 489.13 248.498 483.941 257.208 486.029 C 262.129 487.245 265.134 492.219 263.918 497.143 C 262.702 502.066 257.872 504.069 252.806 503.857 C 250.192 503.745 248.989 503.506 244.28 502.815 C 232.806 501.138 223.26 498.894 202.126 501.911 C 189.306 503.745 173.334 510.039 173.334 510.039 L 181.694 516.075 C 181.694 516.075 172.173 519.561 160.564 530.471 C 148.247 542.052 135.716 558.104 135.716 558.104 L 147.791 562.284 C 147.791 562.284 139.679 570.61 132.233 589.222 C 122.944 612.44 122.397 637.67 122.397 637.67 C 122.397 637.67 138.596 644.066 155.686 646.807 C 174.497 649.826 186.569 649.362 186.569 649.362 L 185.176 661.205 C 185.176 661.205 202.632 660.583 216.989 657.49 C 232.082 654.239 242.997 651.219 242.997 651.219 L 242.298 665.151 C 242.298 665.151 252.749 661.901 269.001 654.935 C 286.882 647.271 295.653 640.271 310.798 637.287 C 319.262 635.62 327.506 635.515 334.686 636.299 C 334.585 635.399 334.514 634.49 334.511 633.568 C 334.509 626.531 337.483 618.61 344.167 612.184 C 345.158 611.236 346.205 610.406 347.275 609.63 C 340.702 595.235 334.749 580.498 329.421 565.463 C 325.803 565.722 322.014 566.034 318.093 566.402 C 315.707 573.244 308.889 590.558 296.322 606.5 C 274.342 634.383 253.946 642.656 252.389 641.044 C 250.832 639.435 268.424 630.378 288.275 603.036 C 298.101 589.508 305.145 575.132 308.238 567.408 C 299.707 568.359 290.663 569.566 281.337 571.05 C 279.444 578.856 273.34 597.956 256.949 612.112 C 228.541 636.648 200.221 645.752 198.968 643.552 C 197.716 641.348 224.885 631.596 250.658 606.344 C 263.776 593.495 269.498 580.175 271.728 572.659 C 268.033 573.312 264.312 574.006 260.566 574.744 C 255.236 575.784 250.132 577.118 244.858 578.796 C 242.998 584.716 237.126 600.351 223.293 612.635 C 203.116 630.552 176.364 635.164 175.457 633.12 C 174.554 631.075 195.976 627.07 217.049 606.518 C 224.796 598.963 230.648 589.419 233.762 582.73 C 225.46 585.922 216.244 589.948 204.856 595.026 C 167.762 611.57 143.173 629.847 141.099 628.46 C 139.025 627.07 160.205 609.388 187.962 593.284 C 199.101 586.82 211.093 581.175 222.968 576.572 C 222.676 576.568 222.397 576.558 222.098 576.558 C 218.372 576.558 214.098 576.902 209.328 577.836 C 202.992 579.055 198.004 580.011 186.918 584.227 C 167.238 591.716 152.337 604.626 150.733 602.872 C 149.127 601.12 161.665 586.667 180.02 578.282 C 191.954 572.828 198.968 570.662 207.59 568.951 C 212.949 567.902 217.812 567.503 222.098 567.503 C 231.178 567.506 237.632 569.282 240.834 570.414 C 247.054 568.542 253.098 567.003 258.809 565.859 C 261.309 565.364 263.796 564.896 266.276 564.44 C 265.332 563.851 264.328 563.244 263.246 562.63 C 256.017 558.52 245.832 554.192 234.116 553.175 C 231.372 552.932 215.828 552.008 201.722 554.099 C 181.301 557.126 161.402 567.282 160.314 565.391 C 159.228 563.503 178.038 550.963 199.998 546.356 C 216.88 542.815 231.88 543.883 234.91 544.151 C 257.236 546.178 273.689 558.099 278.874 562.268 C 287.871 560.82 296.593 559.635 304.891 558.68 C 302.673 556.57 299.923 554.123 296.691 551.591 C 287.457 544.334 274.389 536.46 259.304 533.684 C 251.181 532.18 247.984 531.651 232.894 530.938 C 196.15 529.195 175.082 540.454 173.773 538.394 C 172.465 536.336 197.194 521.881 233.892 522.417 C 245.96 522.591 252.205 523.159 260.952 524.779 C 289.811 530.236 310.389 550.899 316.379 557.466 C 319.817 557.138 323.147 556.854 326.371 556.61 C 316.91 528.375 309.681 499.118 304.915 469.039 C 292.983 460.673 279.582 451.553 265.736 442.615 C 257.301 446.091 226.454 458.417 202.098 462.047 C 164.394 467.662 138.312 462.055 138.697 459.518 C 139.083 456.979 163.35 460.463 200.501 453.613 C 218.429 450.31 243.713 441.555 256.348 436.627 C 249.061 432.042 241.722 427.561 234.481 423.331 C 227.894 427.785 208.866 438.979 180.225 441.834 C 169.494 442.899 165.82 443.469 151.58 443.302 C 129.447 443.047 109.093 437.302 109.632 434.834 C 110.173 432.365 126.4 436.339 151.158 435.618 C 163.116 435.269 169.52 434.331 179.952 433.297 C 202.21 431.097 217.762 423.094 225.632 418.261 C 218.268 414.127 211.054 410.297 204.192 406.957 C 197.845 411.685 179.216 422.651 143.705 422.651 L 143.552 422.651 C 143.195 422.651 123.575 422.471 107.927 420.181 C 85.908 416.954 73.2987 407.737 73.9 405.857 C 74.5014 403.979 90.6107 410.649 110.987 412.826 C 128.332 414.678 144.252 414.427 144.252 414.427 C 171.444 414.403 186.998 407.203 194.61 402.506 C 193.858 402.178 193.104 401.845 192.364 401.529 C 185.954 398.787 179.889 396.367 173.834 394.127 C 169.178 396.373 155.558 401.93 134.747 401.933 C 132.383 401.933 129.929 401.859 127.385 401.703 C 116.777 401.042 112.34 400.654 97.2493 397.253 C 78.9427 393.125 65.588 385.428 65.9374 383.238 C 66.2854 381.049 78.2467 386.506 101.116 390.104 C 112.487 391.894 121.815 392.289 127.937 392.663 C 130.293 392.81 132.564 392.875 134.747 392.875 C 145.648 392.875 154.306 391.218 160.442 389.464 C 148.919 385.696 136.624 382.265 121.437 378.377 C 86.4893 369.44 50.1161 367.429 50.1161 365.125 C 50.1161 362.821 87.768 362.938 114.659 368.549 C 128.348 371.406 143.949 375.244 159.853 380.148 C 155.397 375.649 149.585 370.737 142.799 367.109 C 136.449 363.693 127.705 359.57 113.889 354.693 C 85.7333 344.758 66.392 344.685 66.34 342.606 C 66.2854 340.53 93.804 340.761 113.023 346.105 C 124.335 349.252 139.211 354.928 147.075 359.129 C 162.992 367.716 173.322 381.393 176.27 385.578 C 182.861 387.914 189.408 390.434 195.801 393.154 C 195.106 391.48 194.296 389.649 193.345 387.688 C 189.052 378.817 184.965 371.658 171.314 357.69 C 164.26 350.476 148.801 340.782 135.719 335.362 C 111.335 325.262 91.0986 324.118 91.116 321.554 C 91.1346 318.992 115.692 319.256 138.593 327.925 C 152.262 333.098 166.653 341.248 177.421 351.006 C 196.736 368.505 205.08 391.401 207.306 398.409 C 213.949 401.621 220.866 405.247 227.918 409.162 C 227.369 406.993 226.661 404.493 225.752 401.709 C 222.332 391.256 216.085 376.838 204.776 361.189 C 194.944 347.578 180.848 335.112 170.082 327.294 C 151.856 314.058 128.228 307.489 128.952 305.376 C 129.679 303.261 151.158 307.44 169.916 317.632 C 184.544 325.577 200.389 339.656 212.116 355.882 C 232.077 383.517 237.236 407.662 238.421 415.141 C 245.402 419.209 252.452 423.495 259.454 427.881 C 258.225 422.797 256.486 416.178 254.192 408.763 C 248.957 391.825 243.176 374 229.588 353.126 C 207.817 319.689 168.926 302.733 169.968 300.458 C 171.012 298.182 210.604 311.328 236.804 349.044 C 240.741 354.71 244.276 360.81 247.446 367.054 C 258.765 369.178 270.072 373.154 279.418 377.253 C 280.569 377.758 281.708 378.286 282.832 378.828 C 282.522 376.794 282.208 374.76 281.918 372.805 C 279.046 353.474 270.364 347.453 272.09 346.197 C 273.822 344.94 287.145 356.261 290.353 371.037 C 291.17 374.802 292.155 379.841 292.73 384.208 C 294.598 385.336 296.405 386.512 298.175 387.709 C 298.163 386.094 298.142 384.482 298.142 382.862 C 298.142 374.084 298.379 365.364 298.817 356.696 C 274.618 328.63 257.046 299.636 245.738 257.652 C 241.905 243.469 239.702 234.617 238.498 220.677 C 237.262 206.264 236.101 202.235 236.725 185.055 C 237.91 152.615 244.918 132.847 247.71 133.491 C 250.501 134.136 244.044 152.785 244.801 189.952 C 245.049 202.159 246.498 208.087 247.525 219.899 C 248.686 233.401 250.812 241.736 254.481 255.289 C 264.546 292.448 279.228 318.486 299.653 343.584 C 300.61 330.94 302.033 318.429 303.847 306.046 C 288.894 283.862 274.468 255.461 269.34 223.92 C 267.882 214.945 266.842 206.453 266.148 198.421 C 264.353 177.753 263.989 170.409 265.454 151.917 C 268.268 116.388 278.03 100.234 280.225 100.883 C 282.418 101.535 274.944 120.88 273.298 156.507 C 272.486 174.097 273.598 179.216 275.173 197.643 C 275.848 205.452 276.853 213.711 278.277 222.467 C 282.481 248.463 293.582 272.649 305.973 292.661 C 307.827 281.84 310.027 271.138 312.467 260.532 C 303.222 242.891 296.675 223.891 293.882 191.071 C 293.535 187.065 293.254 182.889 293.022 178.527 C 292.15 161.299 293.001 149.459 296.563 128.568 C 302.563 93.3989 312.215 78.211 314.538 78.8563 C 316.861 79.4976 308.882 101.771 304.725 130.62 C 302.019 149.427 301.215 162.327 302.069 178.055 C 302.29 182.323 302.569 186.396 302.905 190.292 C 305.165 216.176 309.563 232.536 315.827 246.7 C 318.003 238.175 320.363 229.721 322.877 221.341 C 318.449 205.12 316.942 191.74 316.943 179.792 C 316.943 167.428 318.535 156.644 320.011 145.795 C 322.191 129.864 329.991 108.191 333.131 100.292 C 341.218 79.9669 350.085 68.003 352.314 68.4123 C 354.541 68.8203 347.837 81.1856 341.131 103.128 C 338.459 111.872 330.983 132.295 328.983 147.019 C 327.494 157.937 325.998 168.219 325.998 179.792 C 326.001 187.199 326.626 195.183 328.262 204.219 C 329.793 199.583 331.374 194.973 333.003 190.388 C 342.801 162.844 353.066 139.74 361.437 121.55 C 377.965 85.6256 375.262 48.535 378.109 47.6124 C 380.951 46.6924 386.637 83.2563 369.385 124.995 C 363.61 138.972 351.137 166.411 341.538 193.42 C 320.421 252.821 307.199 316.252 307.199 382.862 C 307.202 462.297 324.437 537.692 355.361 605.534 C 358.041 604.69 360.782 604.25 363.491 604.247 C 363.535 604.247 363.579 604.252 363.621 604.252 C 333.331 536.656 316.483 461.73 316.483 382.862 C 316.483 315.652 329.825 251.701 351.082 191.904"
     style="fill:#000000;fill-opacity:1;fill-rule:nonzero;stroke:none"
     id="path1465" />
</svg>
