<?xml version="1.0" encoding="UTF-8" standalone="no"?>
<!-- Created with Inkscape (http://www.inkscape.org/) -->

<svg
   version="1.1"
   id="svg3211"
   width="793.70135"
   height="793.70135"
   viewBox="0 0 793.70135 793.70135"
   sodipodi:docname="Suwa Kajinoha.svg"
   inkscape:version="1.2 (dc2aeda, 2022-05-15)"
   xmlns:inkscape="http://www.inkscape.org/namespaces/inkscape"
   xmlns:sodipodi="http://sodipodi.sourceforge.net/DTD/sodipodi-0.dtd"
   xmlns="http://www.w3.org/2000/svg"
   xmlns:svg="http://www.w3.org/2000/svg">
  <defs
     id="defs3215">
    <clipPath
       clipPathUnits="userSpaceOnUse"
       id="clipPath3704">
      <path
         d="M -557.0645,585.8483 H 38.211496 V -9.4277027 H -557.0645 Z"
         id="path3706"
         style="stroke-width:0.999998" />
    </clipPath>
    <clipPath
       clipPathUnits="userSpaceOnUse"
       id="clipPath3710">
      <path
         d="M -553.8975,585.8483 H 41.378499 V -9.4277027 H -553.8975 Z"
         id="path3712"
         style="stroke-width:0.999998" />
    </clipPath>
    <clipPath
       clipPathUnits="userSpaceOnUse"
       id="clipPath3716">
      <path
         d="M -531.1924,581.5885 H 64.083594 V -13.6875 H -531.1924 Z"
         id="path3718"
         style="stroke-width:0.999998" />
    </clipPath>
    <clipPath
       clipPathUnits="userSpaceOnUse"
       id="clipPath3722">
      <path
         d="M -542.9326,584.5729 H 52.343394 V -10.7031 H -542.9326 Z"
         id="path3724"
         style="stroke-width:0.999998" />
    </clipPath>
    <clipPath
       clipPathUnits="userSpaceOnUse"
       id="clipPath3728">
      <path
         d="M -567.7754,585.8522 H 27.500596 V -9.4238027 H -567.7754 Z"
         id="path3730"
         style="stroke-width:0.999998" />
    </clipPath>
    <clipPath
       clipPathUnits="userSpaceOnUse"
       id="clipPath3734">
      <path
         d="M -540.8213,585.8483 H 54.454696 V -9.4277027 H -540.8213 Z"
         id="path3736"
         style="stroke-width:0.999998" />
    </clipPath>
    <clipPath
       clipPathUnits="userSpaceOnUse"
       id="clipPath3740">
      <path
         d="M -536.6982,584.5729 H 58.577799 V -10.7031 H -536.6982 Z"
         id="path3742"
         style="stroke-width:0.999998" />
    </clipPath>
    <clipPath
       clipPathUnits="userSpaceOnUse"
       id="clipPath3746">
      <path
         d="M -538.2217,577.9479 H 57.054294 V -17.328098 H -538.2217 Z"
         id="path3748"
         style="stroke-width:0.999998" />
    </clipPath>
    <clipPath
       clipPathUnits="userSpaceOnUse"
       id="clipPath3752">
      <path
         d="M -586.5449,579.5026 H 8.7310952 V -15.7734 H -586.5449 Z"
         id="path3754"
         style="stroke-width:0.999998" />
    </clipPath>
    <clipPath
       clipPathUnits="userSpaceOnUse"
       id="clipPath3758">
      <path
         d="M -556.4014,578.0143 H 38.874601 V -17.2617 H -556.4014 Z"
         id="path3760"
         style="stroke-width:0.999998" />
    </clipPath>
    <clipPath
       clipPathUnits="userSpaceOnUse"
       id="clipPath3765">
      <path
         d="M -550.2637,577.3248 H 45.012301 V -17.951198 H -550.2637 Z"
         id="path3767"
         style="stroke-width:0.999998" />
    </clipPath>
    <clipPath
       clipPathUnits="userSpaceOnUse"
       id="clipPath3771">
      <path
         d="M -568.2266,575.819 H 27.049396 V -19.457003 H -568.2266 Z"
         id="path3773"
         style="stroke-width:0.999998" />
    </clipPath>
    <clipPath
       clipPathUnits="userSpaceOnUse"
       id="clipPath3777">
      <path
         d="M -557.4951,577.8502 H 37.780898 V -17.4258 H -557.4951 Z"
         id="path3779"
         style="stroke-width:0.999998" />
    </clipPath>
    <clipPath
       clipPathUnits="userSpaceOnUse"
       id="clipPath3783">
      <path
         d="M -576.3691,585.5885 H 18.9069 V -9.6875027 h -595.276 z"
         id="path3785"
         style="stroke-width:0.999998" />
    </clipPath>
    <clipPath
       clipPathUnits="userSpaceOnUse"
       id="clipPath3789">
      <path
         d="M -574.5459,585.8522 H 20.730098 V -9.4238027 H -574.5459 Z"
         id="path3791"
         style="stroke-width:0.999998" />
    </clipPath>
    <clipPath
       clipPathUnits="userSpaceOnUse"
       id="clipPath3795">
      <path
         d="M -572.8174,586.1354 H 22.458601 V -9.1406027 H -572.8174 Z"
         id="path3797"
         style="stroke-width:0.999998" />
    </clipPath>
    <clipPath
       clipPathUnits="userSpaceOnUse"
       id="clipPath3802">
      <path
         d="M -584.1943,578.9381 H 11.0817 V -16.337903 h -595.276 z"
         id="path3804"
         style="stroke-width:0.999998" />
    </clipPath>
    <clipPath
       clipPathUnits="userSpaceOnUse"
       id="clipPath3808">
      <path
         d="m -380.3525,451.6881 h 595.276 v -595.276 h -595.276 z"
         id="path3810"
         style="stroke-width:0.999998" />
    </clipPath>
    <clipPath
       clipPathUnits="userSpaceOnUse"
       id="clipPath3814">
      <path
         d="M -564.5732,585.8483 H 30.702796 V -9.4277027 H -564.5732 Z"
         id="path3816"
         style="stroke-width:0.999998" />
    </clipPath>
    <clipPath
       clipPathUnits="userSpaceOnUse"
       id="clipPath3820">
      <path
         d="M -528.0898,575.3815 H 67.186194 V -19.8945 H -528.0898 Z"
         id="path3822"
         style="stroke-width:0.999998" />
    </clipPath>
    <clipPath
       clipPathUnits="userSpaceOnUse"
       id="clipPath3826">
      <path
         d="M -561.4131,585.8522 H 33.862898 V -9.4238027 H -561.4131 Z"
         id="path3828"
         style="stroke-width:0.999998" />
    </clipPath>
    <clipPath
       clipPathUnits="userSpaceOnUse"
       id="clipPath3832">
      <path
         d="M -548.9834,585.8522 H 46.292596 V -9.4238027 H -548.9834 Z"
         id="path3834"
         style="stroke-width:0.999998" />
    </clipPath>
    <clipPath
       clipPathUnits="userSpaceOnUse"
       id="clipPath3838">
      <path
         d="M -545.417,584.5729 H 49.858996 V -10.7031 H -545.417 Z"
         id="path3840"
         style="stroke-width:0.999998" />
    </clipPath>
  </defs>
  <sodipodi:namedview
     id="namedview3213"
     pagecolor="#ffffff"
     bordercolor="#000000"
     borderopacity="0.25"
     inkscape:showpageshadow="2"
     inkscape:pageopacity="0.0"
     inkscape:pagecheckerboard="0"
     inkscape:deskcolor="#d1d1d1"
     showgrid="false"
     inkscape:zoom="0.29734106"
     inkscape:cx="-215.24105"
     inkscape:cy="396.85068"
     inkscape:window-width="1419"
     inkscape:window-height="456"
     inkscape:window-x="0"
     inkscape:window-y="25"
     inkscape:window-maximized="0"
     inkscape:current-layer="svg3211">
    <inkscape:page
       x="0"
       y="0"
       id="page3217"
       width="793.70135"
       height="793.70135" />
  </sodipodi:namedview>
  <path
     d="M 507.137 602.251 C 491.58 602.255 476.694 605.128 462.981 610.367 C 448.033 601.93 431.312 596.274 413.515 594.074 L 413.515 568.282 L 469.052 520.258 L 510.145 527.998 L 542.353 500.146 L 501.257 492.406 L 531.113 466.589 C 531.218 464.93 531.509 460.91 532.145 455.801 C 532.684 451.567 533.429 446.626 534.561 441.578 C 530.82 441.861 527.164 441.951 523.796 441.955 C 516.924 441.954 511.328 441.551 509.301 441.386 L 479.454 467.194 L 477.725 425.414 L 445.52 453.266 L 447.249 495.046 L 413.515 524.218 L 413.515 443.341 L 446.249 417.321 L 446.249 374.74 L 413.515 400.761 L 413.515 341.048 C 411.979 339.474 409.965 337.365 407.719 334.873 C 404.337 331.11 400.447 326.542 396.851 321.56 C 393.252 326.542 389.361 331.11 385.981 334.873 C 383.733 337.365 381.723 339.474 380.184 341.048 L 380.184 400.761 L 347.449 374.74 L 347.449 417.321 L 380.184 443.341 L 380.184 524.218 L 346.449 495.046 L 348.179 453.266 L 315.973 425.414 L 314.244 467.194 L 284.398 441.386 C 282.372 441.551 276.776 441.954 269.903 441.955 C 266.539 441.951 262.88 441.861 259.14 441.578 C 260.271 446.626 261.018 451.567 261.554 455.801 C 262.192 460.91 262.482 464.93 262.588 466.589 L 292.443 492.406 L 251.348 500.146 L 283.554 527.998 L 324.651 520.258 L 380.184 568.282 L 380.184 594.074 C 362.389 596.274 345.665 601.93 330.719 610.367 C 317.004 605.128 302.122 602.255 286.564 602.251 C 233.228 602.26 187.788 635.978 170.378 683.263 L 206.854 683.263 C 211.056 675.451 216.372 668.322 222.61 662.075 C 239.031 645.682 261.536 635.594 286.564 635.584 C 290.416 635.586 294.206 635.844 297.927 636.31 C 279.716 655.995 267.312 681.121 263.419 708.984 L 297.208 708.984 C 301.036 688.515 310.979 670.257 325.145 656.072 C 343.549 637.695 368.791 626.379 396.851 626.371 C 424.908 626.379 450.153 637.695 468.556 656.072 C 482.72 670.257 492.664 688.515 496.494 708.984 L 530.282 708.984 C 526.389 681.121 513.984 655.995 495.773 636.31 C 499.494 635.844 503.282 635.586 507.137 635.584 C 532.165 635.594 554.67 645.682 571.093 662.075 C 577.327 668.322 582.645 675.451 586.847 683.263 L 623.322 683.263 C 605.91 635.978 560.47 602.26 507.137 602.251 M 713.436 397.149 C 703.775 396.594 695.371 399.18 688.243 404.219 C 691.61 406.463 694.874 408.651 697.998 410.755 C 702.777 408.007 708.087 407.089 713.56 407.779 C 721.118 408.729 729.68 414.777 729.352 415.291 C 729.024 415.81 721.694 411.831 715.115 411.21 C 709.262 410.657 705.877 411.798 702.53 413.817 C 721.134 426.425 732.136 434.461 731.516 435.433 C 730.899 436.403 718.959 429.842 699.658 418.329 C 699.249 422.213 699.647 425.765 702.629 430.835 C 705.975 436.527 712.683 441.487 712.355 442.002 C 712.024 442.519 702.921 437.322 698.861 430.878 C 695.918 426.211 694.503 421.011 694.967 415.521 C 691.738 413.581 688.374 411.55 684.915 409.45 C 683.369 418.042 684.585 426.75 689.181 435.269 C 693.897 444.019 703.139 451.397 702.839 451.865 C 702.541 452.334 691.457 445.851 685.399 435.461 C 679.593 425.502 678.21 416.331 680.273 406.63 C 677.006 404.641 673.665 402.601 670.277 400.522 C 668.494 409.422 669.011 418.522 672.566 428.947 C 676.074 439.245 685.221 448.97 684.462 449.471 C 683.705 449.971 672.29 440.911 667.634 426.545 C 664.113 415.685 663.675 406.729 665.67 397.696 C 662.885 395.982 660.071 394.249 657.251 392.505 C 654.506 406.271 655.749 415.947 659.363 428.315 C 663.489 442.422 673.981 454.518 673.09 454.963 C 672.199 455.407 658.181 440.687 653.861 425.025 C 650.905 414.291 650.035 401.414 652.582 389.62 L 623.161 371.172 C 616.486 377.026 610.15 382.557 604.397 387.562 C 603.959 392.608 603.517 397.657 603.066 402.638 C 611.41 405.893 618.139 410.846 624.566 419.219 C 632.601 429.685 633.079 442.01 632.301 442.269 C 631.522 442.526 629.33 431.39 623.661 423.777 C 617.582 415.605 610.751 410.491 602.661 407.169 C 602.115 413.107 601.571 418.917 601.035 424.455 C 609.942 427.969 616.331 433.682 620.721 443.133 C 625.074 452.518 623.834 463.307 623.33 463.271 C 622.822 463.234 622.407 453.233 618.53 445.587 C 614.535 437.706 608.334 432.279 600.59 428.99 C 600.054 434.406 599.525 439.529 599.014 444.199 C 603.819 446.685 607.21 450.49 609.183 455.177 C 611.721 461.203 610.609 470.002 610.051 469.962 C 609.494 469.922 609.483 462.863 607.11 457.701 C 604.773 452.607 602.085 450.603 598.503 448.779 C 596.942 462.482 595.035 478.882 594.17 478.818 C 593.306 478.753 593.83 462.253 594.298 448.469 C 590.491 449.747 587.538 451.335 584.473 456.027 C 581.371 460.786 580.322 467.766 579.765 467.723 C 579.207 467.683 579.402 458.818 582.795 453.227 C 585.434 448.881 589.347 445.615 594.465 443.865 C 594.647 439.169 594.877 434.023 595.142 428.586 C 586.998 430.703 580.066 435.161 574.959 442.37 C 570.001 449.362 568.118 459.193 567.613 459.155 C 567.109 459.118 567.468 448.263 573.156 439.619 C 578.885 430.915 586.043 426.205 595.369 424.038 C 595.65 418.479 595.967 412.654 596.303 406.701 C 587.811 408.795 580.301 412.85 573.088 420.039 C 566.364 426.739 562.556 437.43 561.828 437.062 C 561.093 436.693 563.377 424.571 572.864 415.398 C 580.451 408.062 587.834 404.151 596.563 402.157 C 596.721 399.438 597.118 392.852 597.282 390.104 L 594.533 386.922 C 591.787 386.69 585.215 386.136 582.501 385.898 C 579.273 394.252 574.337 400.993 565.986 407.446 C 555.541 415.511 543.218 416.025 542.957 415.247 C 542.7 414.471 553.825 412.245 561.424 406.555 C 569.577 400.453 574.67 393.606 577.967 385.502 C 572.028 384.98 566.218 384.453 560.676 383.93 C 557.189 392.846 551.497 399.254 542.058 403.669 C 532.686 408.053 521.889 406.846 521.929 406.339 C 521.965 405.834 531.962 405.386 539.598 401.488 C 547.465 397.472 552.874 391.253 556.145 383.501 C 550.722 382.978 545.601 382.465 540.926 381.969 C 538.457 386.781 534.664 390.182 529.981 392.169 C 523.96 394.722 515.158 393.638 515.197 393.081 C 515.236 392.524 522.296 392.492 527.449 390.106 C 532.536 387.749 534.533 385.057 536.345 381.472 C 522.637 379.95 506.233 378.092 506.296 377.226 C 506.356 376.362 522.858 376.837 536.645 377.265 C 535.356 373.461 533.76 370.512 529.056 367.464 C 524.288 364.373 517.306 363.346 517.345 362.788 C 517.385 362.229 526.252 362.398 531.85 365.777 C 536.208 368.404 539.481 372.308 541.249 377.42 C 545.946 377.586 551.09 377.801 556.53 378.05 C 554.388 369.914 549.91 362.996 542.686 357.908 C 535.678 352.972 525.842 351.117 525.88 350.613 C 525.916 350.106 536.77 350.436 545.432 356.096 C 554.153 361.797 558.885 368.944 561.077 378.264 C 566.637 378.529 572.465 378.829 578.418 379.146 C 576.298 370.66 572.221 363.164 565.009 355.972 C 558.29 349.268 547.59 345.493 547.954 344.758 C 548.322 344.024 560.449 346.274 569.65 355.732 C 577.009 363.297 580.943 370.668 582.962 379.393 C 587.954 379.669 593.017 379.954 598.071 380.25 C 603.853 375.28 610.241 369.805 616.997 364.042 L 602.975 332.27 C 590.937 333.094 578.317 330.38 568.124 325.905 C 553.246 319.376 540.7 303.384 541.268 302.566 C 541.834 301.75 552.293 313.874 565.661 319.985 C 577.377 325.345 586.775 327.966 600.793 327.237 C 599.473 324.192 598.163 321.16 596.869 318.157 C 587.642 318.832 578.842 317.108 568.604 312.057 C 555.058 305.381 547.736 292.78 548.34 292.102 C 548.944 291.425 557.252 301.878 566.934 306.832 C 576.738 311.85 585.673 313.674 594.735 313.19 C 593.167 309.54 591.629 305.937 590.129 302.417 C 580.233 303.064 571.356 300.373 562.337 293.193 C 552.929 285.704 548.11 273.802 548.616 273.572 C 549.124 273.344 555.093 283.553 563.074 289.482 C 570.842 295.256 579.282 297.712 588.006 297.42 C 586.429 293.693 584.905 290.07 583.449 286.596 C 577.949 286.266 573.006 284.117 568.814 280.534 C 563.02 275.586 559.189 265.829 559.749 265.576 C 560.306 265.327 564.246 272.677 569.397 276.81 C 573.986 280.49 577.443 281.396 581.345 281.553 C 572.73 260.792 567.957 248.032 569.006 247.56 C 570.058 247.088 576.426 259.131 586.222 279.358 C 588.702 276.338 590.322 273.153 590.615 267.28 C 590.949 260.683 588.069 252.855 588.629 252.603 C 589.183 252.352 593.937 261.699 593.787 269.314 C 593.683 274.829 592.006 279.95 588.601 284.281 C 590.233 287.68 591.929 291.224 593.663 294.878 C 599.675 288.55 603.446 280.61 604.287 270.966 C 605.158 261.063 601.491 249.821 601.998 249.595 C 602.506 249.365 608.202 260.873 607.554 272.884 C 606.929 284.393 603.046 292.816 595.991 299.786 C 597.626 303.242 599.295 306.785 600.986 310.381 C 607.369 303.929 611.934 296.04 614.697 285.376 C 617.423 274.844 615.126 261.696 616.035 261.693 C 616.943 261.691 621.501 275.533 617.497 290.094 C 614.467 301.106 609.913 308.828 603.279 315.277 C 604.667 318.24 606.063 321.23 607.462 324.24 C 617.319 314.248 621.601 305.48 625.377 293.161 C 629.683 279.11 627.569 263.236 628.555 263.355 C 629.541 263.472 633.165 283.474 628.165 298.933 C 624.738 309.526 618.387 320.762 609.777 329.217 L 623.259 358.704 C 626.345 356.077 629.489 353.406 632.665 350.709 C 630.011 346.74 628.749 342.518 629.653 336.722 C 630.725 329.848 635.647 324.557 636.415 324.909 C 637.186 325.262 633.337 330.394 633.538 337.04 C 633.661 341.146 634.871 344.209 636.853 347.165 C 641.715 343.045 646.637 338.89 651.546 334.758 C 646.437 322.094 644.785 307.832 645.814 295.672 C 647.314 277.932 659.434 260.06 660.481 260.444 C 661.527 260.825 652.673 275.386 651.071 291.393 C 649.665 305.428 650.275 316.217 655.989 331.025 C 658.673 328.77 661.35 326.529 664.001 324.31 C 660.041 314.614 658.715 304.716 660.319 292.349 C 662.443 275.992 672.899 264.66 673.817 265.12 C 674.73 265.579 666.847 277.369 665.142 289.113 C 663.413 301.002 664.681 311.076 668.387 320.648 C 671.613 317.956 674.798 315.31 677.913 312.729 C 673.743 302.312 673.391 292.06 677.634 280.412 C 682.063 268.26 692.681 259.803 693.098 260.281 C 693.511 260.764 685.058 269.982 681.738 280.172 C 678.509 290.09 678.949 299.81 682.337 309.073 C 685.634 306.349 688.845 303.713 691.931 301.192 C 690.327 295.21 690.806 289.322 693.033 283.838 C 696.109 276.266 704.855 269.456 705.311 269.985 C 705.77 270.513 699.551 276.772 697.093 283.433 C 694.907 289.366 695.189 293.321 696.41 297.544 C 714.858 282.564 726.428 273.877 727.287 274.87 C 728.147 275.865 717.884 286.062 700.405 302.161 C 704.407 303.977 708.276 304.826 714.464 303.516 C 721.41 302.045 728.498 296.792 728.954 297.321 C 729.412 297.849 721.415 305.525 713.48 307.478 C 707.73 308.89 701.837 308.516 696.147 306.069 C 693.21 308.758 690.137 311.556 686.967 314.426 C 695.647 319.113 705.202 320.948 715.48 319.181 C 726.043 317.365 736.384 310.325 736.8 310.805 C 737.215 311.285 727.316 320.576 714.652 323.206 C 702.514 325.729 692.421 323.904 682.71 318.28 C 679.71 320.99 676.631 323.758 673.503 326.564 C 682.443 331.61 692.225 334.316 704.243 334.317 C 716.11 334.321 728.912 328.217 729.235 329.188 C 729.558 330.162 716.839 338.876 700.347 338.624 C 687.879 338.433 678.275 335.692 669.249 330.378 C 666.673 332.682 664.069 335.005 661.449 337.338 C 675.279 345.125 685.871 347.281 699.959 347.913 C 716.03 348.632 731.718 341.969 731.943 343.058 C 732.17 344.149 712.74 353.569 694.97 352.5 C 682.79 351.764 668.913 348.076 657.115 341.196 C 652.319 345.461 647.498 349.732 642.725 353.95 C 645.363 356.336 648.221 357.977 652.265 358.69 C 658.811 359.844 664.443 356.777 664.683 357.589 C 664.921 358.401 658.975 362.509 652.019 362.58 C 646.153 362.638 642.158 360.782 638.613 357.584 C 635.486 360.34 632.389 363.065 629.347 365.74 L 656.585 383.33 C 666.189 376.026 678.222 371.36 689.202 369.494 C 705.218 366.773 724.488 373.24 724.464 374.232 C 724.439 375.225 709.038 370.845 694.511 373.085 C 681.777 375.05 672.486 378.021 661.175 386.336 C 663.951 388.154 666.71 389.966 669.443 391.768 C 676.779 386.13 685.077 382.734 696.41 381.325 C 711.396 379.46 724.439 385.962 724.306 386.861 C 724.172 387.76 711.491 383.592 700.675 384.774 C 689.727 385.973 681.262 389.354 673.957 394.742 C 677.273 396.933 680.538 399.094 683.722 401.212 C 691.637 395.232 700.53 392.602 712.008 393.642 C 723.988 394.729 734.555 402.026 734.256 402.493 C 733.959 402.963 723.363 397.717 713.436 397.149 M 739.03 389.493 C 739.03 389.493 741.36 387.248 745.568 380.045 C 749.123 373.964 749.896 370.269 749.896 370.269 C 749.896 370.269 737.71 365.528 724.899 363.24 C 711.344 360.816 704.97 360.29 700.061 360.146 C 699.519 360.118 699.038 359.802 698.986 359.261 C 698.934 358.721 699.33 358.237 699.871 358.184 C 705.494 358.498 716.688 358.742 727.347 356.174 C 740.623 352.98 757.055 343.846 757.055 343.846 C 757.055 343.846 753.434 338.424 748.56 332.48 C 743.686 326.534 741.855 324.11 741.855 324.11 C 741.855 324.11 747.712 314.498 751.04 308.142 C 751.04 308.142 742.663 299.078 736.454 293.754 C 736.454 293.754 738.376 277.118 735.264 267.969 C 726.658 263.573 709.92 263.08 709.92 263.08 C 705.546 256.169 697.782 246.573 697.782 246.573 C 691.014 248.951 680.661 253.364 680.661 253.364 C 680.661 253.364 678.522 251.2 673.342 245.521 C 668.161 239.841 663.319 235.477 663.319 235.477 C 663.319 235.477 651.913 250.423 646.837 263.101 C 642.765 273.28 641.391 284.39 640.891 290.001 C 640.762 290.529 640.227 290.853 639.699 290.722 C 639.17 290.592 638.929 290.07 638.978 289.529 C 639.434 284.678 640.465 271.152 638.339 258.128 C 636.273 245.472 629.929 229.887 629.929 229.887 C 629.929 229.887 626.265 230.792 620.317 234.561 C 613.267 239.027 611.109 241.439 611.109 241.439 C 611.109 241.439 601.667 232.437 595.554 230.153 C 595.554 230.153 585.949 237.756 581.721 244.321 C 581.721 244.321 567.356 240.565 558.722 242.529 C 553.9 249.953 552.465 264.732 552.465 264.732 C 544.842 266.439 534.392 272.824 534.392 272.824 C 534.429 279.352 539.616 291.32 539.616 291.32 C 539.616 291.32 536.609 292.513 529.984 297.588 C 524.394 301.868 522.277 304.996 522.277 304.996 C 522.277 304.996 534.812 316.808 545.882 322.637 C 554.208 327.021 562.968 331.54 568.009 333.724 C 568.468 333.998 568.618 334.588 568.345 335.046 C 568.074 335.505 567.484 335.654 567.025 335.384 C 562.069 332.734 553.872 329.132 546.153 327.065 C 532.58 323.432 514.221 323.536 514.221 323.536 C 514.221 323.536 514.604 328.15 515.642 332.6 C 516.684 337.048 518.478 340.976 518.478 340.976 C 518.478 340.976 511.91 340.338 501.444 345.549 C 501.444 345.549 502.702 353.921 508.882 362.646 C 508.882 362.646 505.4 364.186 500.736 368.222 C 496.606 371.793 493.697 376.314 493.697 376.314 C 493.697 376.314 496.194 381.073 499.994 384.996 C 504.285 389.425 507.616 391.268 507.616 391.268 C 500.692 399.414 498.7 407.641 498.7 407.641 C 508.668 413.755 515.265 413.698 515.265 413.698 C 515.265 413.698 513.132 417.454 511.702 421.794 C 510.276 426.133 509.486 430.695 509.486 430.695 C 509.486 430.695 527.765 432.419 541.604 429.997 C 544.47 429.495 547.421 428.79 550.265 427.995 C 549.066 430.693 547.946 433.511 547.036 436.277 C 542.645 449.622 541.718 467.958 541.718 467.958 C 541.718 467.958 546.348 467.834 550.845 467.047 C 555.348 466.258 559.369 464.687 559.369 464.687 C 559.369 464.687 558.366 471.209 562.978 481.95 C 562.978 481.95 571.408 481.165 580.467 475.487 C 580.467 475.487 581.811 479.05 585.577 483.933 C 588.91 488.258 593.259 491.414 593.259 491.414 C 593.259 491.414 598.153 489.186 602.282 485.615 C 606.946 481.581 608.97 478.357 608.97 478.357 C 616.718 485.729 624.819 488.178 624.819 488.178 C 631.481 478.571 631.798 471.982 631.798 471.982 C 631.798 471.982 635.429 474.323 639.678 475.993 C 643.931 477.665 648.443 478.706 648.443 478.706 C 648.443 478.706 651.191 460.555 649.549 446.601 C 648.615 438.665 646.23 430.031 644.325 424.747 C 644.121 424.254 644.355 423.69 644.847 423.489 C 645.339 423.285 645.902 423.521 646.106 424.013 C 647.73 430.125 650.877 442.109 658.777 454.794 C 666.366 466.987 678.038 479.845 678.038 479.845 C 678.038 479.845 681.877 477.327 685.834 472.586 C 691.183 466.179 691.754 462.734 691.754 462.734 C 691.754 462.734 703.899 467.487 710.423 467.289 C 710.423 467.289 716.431 456.614 717.858 448.935 C 717.858 448.935 732.579 446.971 739.824 441.885 C 741.475 433.185 737.207 418.963 737.207 418.963 C 743.615 414.502 750.868 404.63 750.868 404.63 C 748.366 398.605 739.03 389.493 739.03 389.493 M 183.648 469.962 C 183.094 470.002 181.982 461.203 184.518 455.177 C 186.49 450.49 189.88 446.685 194.684 444.199 C 194.176 439.529 193.646 434.406 193.11 428.99 C 185.367 432.279 179.164 437.706 175.168 445.587 C 171.294 453.233 170.878 463.234 170.373 463.271 C 169.865 463.307 168.627 452.518 172.982 443.133 C 177.367 433.682 183.758 427.969 192.664 424.455 C 192.127 418.917 191.583 413.107 191.042 407.169 C 182.95 410.491 176.116 415.605 170.039 423.777 C 164.373 431.39 162.177 442.526 161.401 442.269 C 160.622 442.01 161.099 429.685 169.133 419.219 C 175.562 410.846 182.288 405.893 190.632 402.638 C 190.184 397.657 189.739 392.608 189.304 387.562 C 183.552 382.557 177.216 377.026 170.542 371.172 L 141.117 389.62 C 143.666 401.414 142.797 414.291 139.838 425.025 C 135.518 440.687 121.499 455.407 120.61 454.963 C 119.719 454.518 130.214 442.422 134.335 428.315 C 137.95 415.947 139.193 406.271 136.45 392.505 C 133.627 394.249 130.818 395.982 128.031 397.696 C 130.026 406.729 129.589 415.685 126.067 426.545 C 121.409 440.911 109.995 449.971 109.237 449.471 C 108.479 448.97 117.625 439.245 121.133 428.947 C 124.69 418.522 125.209 409.422 123.425 400.522 C 120.037 402.601 116.693 404.641 113.427 406.63 C 115.49 416.331 114.107 425.502 108.299 435.461 C 102.245 445.851 91.1594 452.334 90.8594 451.865 C 90.562 451.397 99.802 444.019 104.521 435.269 C 109.117 426.75 110.331 418.042 108.786 409.45 C 105.329 411.55 101.961 413.581 98.7314 415.521 C 99.198 421.011 97.7807 426.211 94.8407 430.878 C 90.778 437.322 81.6741 442.519 81.3434 442.002 C 81.0154 441.487 87.7234 436.527 91.0727 430.835 C 94.0527 425.765 94.45 422.213 94.042 418.329 C 74.7394 429.842 62.7994 436.403 62.1821 435.433 C 61.5621 434.461 72.5648 426.425 91.1714 413.817 C 87.826 411.798 84.4407 410.657 78.5834 411.21 C 72.0074 411.831 64.6768 415.81 64.3461 415.291 C 64.0181 414.777 72.5834 408.729 80.1407 407.779 C 85.6141 407.089 90.9247 408.007 95.7007 410.755 C 98.826 408.651 102.091 406.463 105.458 404.219 C 98.3287 399.18 89.9274 396.594 80.2634 397.149 C 70.3381 397.717 59.7421 402.963 59.4435 402.493 C 59.1461 402.026 69.7114 394.729 81.6901 393.642 C 93.1687 392.602 102.065 395.232 109.979 401.212 C 113.165 399.094 116.43 396.933 119.742 394.742 C 112.441 389.354 103.974 385.973 93.026 384.774 C 82.2114 383.592 69.5288 387.76 69.3954 386.861 C 69.2608 385.962 82.3047 379.46 97.2887 381.325 C 108.622 382.734 116.919 386.13 124.258 391.768 C 126.99 389.966 129.75 388.154 132.523 386.336 C 121.217 378.021 111.925 375.05 99.19 373.085 C 84.6647 370.845 69.2634 375.225 69.2368 374.232 C 69.2114 373.24 88.4847 366.773 104.499 369.494 C 115.477 371.36 127.51 376.026 137.114 383.33 L 164.354 365.74 C 161.31 363.065 158.214 360.34 155.089 357.584 C 151.542 360.782 147.547 362.638 141.682 362.58 C 134.723 362.509 128.778 358.401 129.018 357.589 C 129.255 356.777 134.89 359.844 141.438 358.69 C 145.479 357.977 148.338 356.336 150.977 353.95 C 146.201 349.732 141.383 345.461 136.586 341.196 C 124.789 348.076 110.911 351.764 98.7314 352.5 C 80.9581 353.569 61.5314 344.149 61.7554 343.058 C 61.9848 341.969 77.6687 348.632 93.7394 347.913 C 107.831 347.281 118.422 345.125 132.25 337.338 C 129.633 335.005 127.029 332.682 124.45 330.378 C 115.427 335.692 105.823 338.433 93.354 338.624 C 76.8621 338.876 64.1408 330.162 64.4634 329.188 C 64.7861 328.217 77.5914 334.321 89.458 334.317 C 101.474 334.316 111.258 331.61 120.195 326.564 C 117.067 323.758 113.99 320.99 110.99 318.28 C 101.278 323.904 91.1847 325.729 79.0474 323.206 C 66.3834 320.576 56.4875 311.285 56.9008 310.805 C 57.3155 310.325 67.6594 317.365 78.2194 319.181 C 88.4994 320.948 98.054 319.113 106.731 314.426 C 103.562 311.556 100.493 308.758 97.5527 306.069 C 91.8647 308.516 85.9687 308.89 80.2207 307.478 C 72.2834 305.525 64.2861 297.849 64.7448 297.321 C 65.2008 296.792 72.2888 302.045 79.2367 303.516 C 85.4221 304.826 89.294 303.977 93.2967 302.161 C 75.8181 286.062 65.5541 275.865 66.4141 274.87 C 67.2741 273.877 78.8434 282.564 97.2887 297.544 C 98.51 293.321 98.794 289.366 96.6074 283.433 C 94.1514 276.772 87.9327 270.513 88.3874 269.985 C 88.846 269.456 97.594 276.266 100.666 283.838 C 102.895 289.322 103.373 295.21 101.771 301.192 C 104.857 303.713 108.065 306.349 111.365 309.073 C 114.75 299.81 115.193 290.09 111.961 280.172 C 108.643 269.982 100.187 260.764 100.605 260.281 C 101.018 259.803 111.638 268.26 116.065 280.412 C 120.31 292.06 119.958 302.312 115.789 312.729 C 118.903 315.31 122.086 317.956 125.313 320.648 C 129.021 311.076 130.286 301.002 128.559 289.113 C 126.851 277.369 118.969 265.579 119.886 265.12 C 120.799 264.66 131.255 275.992 133.381 292.349 C 134.987 304.716 133.659 314.614 129.701 324.31 C 132.351 326.529 135.029 328.77 137.714 331.025 C 143.425 316.217 144.034 305.428 142.63 291.393 C 141.029 275.386 132.174 260.825 133.221 260.444 C 134.266 260.06 146.387 277.932 147.886 295.672 C 148.914 307.832 147.263 322.094 142.154 334.758 C 147.065 338.89 151.987 343.045 156.846 347.165 C 158.829 344.209 160.042 341.146 160.165 337.04 C 160.365 330.394 156.515 325.262 157.286 324.909 C 158.054 324.557 162.977 329.848 164.047 336.722 C 164.95 342.518 163.69 346.74 161.034 350.709 C 164.211 353.406 167.354 356.077 170.441 358.704 L 183.924 329.217 C 175.312 320.762 168.963 309.526 165.534 298.933 C 160.537 283.474 164.159 263.472 165.146 263.355 C 166.133 263.236 164.015 279.11 168.323 293.161 C 172.102 305.48 176.383 314.248 186.236 324.24 C 187.638 321.23 189.031 318.24 190.422 315.277 C 183.788 308.828 179.231 301.106 176.203 290.094 C 172.201 275.533 176.758 261.691 177.666 261.693 C 178.572 261.696 176.276 274.844 179.004 285.376 C 181.768 296.04 186.332 303.929 192.716 310.381 C 194.403 306.785 196.072 303.242 197.711 299.786 C 190.654 292.816 186.771 284.393 186.148 272.884 C 185.498 260.873 191.195 249.365 191.703 249.595 C 192.208 249.821 188.544 261.063 189.411 270.966 C 190.255 280.61 194.023 288.55 200.036 294.878 C 201.774 291.224 203.466 287.68 205.099 284.281 C 201.692 279.95 200.018 274.829 199.911 269.314 C 199.766 261.699 204.515 252.352 205.072 252.603 C 205.632 252.855 202.75 260.683 203.083 267.28 C 203.38 273.153 204.998 276.338 207.476 279.358 C 217.274 259.131 223.64 247.088 224.692 247.56 C 225.742 248.032 220.971 260.792 212.354 281.553 C 216.258 281.396 219.716 280.49 224.304 276.81 C 229.452 272.677 233.395 265.327 233.952 265.576 C 234.51 265.829 230.679 275.586 224.887 280.534 C 220.695 284.117 215.752 286.266 210.252 286.596 C 208.796 290.07 207.274 293.693 205.692 297.42 C 214.416 297.712 222.859 295.256 230.627 289.482 C 238.61 283.553 244.578 273.344 245.083 273.572 C 245.591 273.802 240.774 285.704 231.362 293.193 C 222.343 300.373 213.466 303.064 203.572 302.417 C 202.072 305.937 200.534 309.54 198.966 313.19 C 208.028 313.674 216.96 311.85 226.766 306.832 C 236.447 301.878 244.755 291.425 245.362 292.102 C 245.966 292.78 238.643 305.381 225.096 312.057 C 214.859 317.108 206.059 318.832 196.831 318.157 C 195.536 321.16 194.226 324.192 192.908 327.237 C 206.924 327.966 216.323 325.345 228.042 319.985 C 241.408 313.874 251.867 301.75 252.435 302.566 C 252.999 303.384 240.452 319.376 225.578 325.905 C 215.383 330.38 202.763 333.094 190.723 332.27 L 176.706 364.042 C 183.46 369.805 189.846 375.28 195.63 380.25 C 200.684 379.954 205.744 379.669 210.739 379.393 C 212.758 370.668 216.69 363.297 224.05 355.732 C 233.25 346.274 245.38 344.024 245.744 344.758 C 246.111 345.493 235.411 349.268 228.69 355.972 C 221.479 363.164 217.403 370.66 215.28 379.146 C 221.236 378.829 227.062 378.529 232.622 378.264 C 234.818 368.944 239.547 361.797 248.268 356.096 C 256.93 350.436 267.786 350.106 267.82 350.613 C 267.856 351.117 258.023 352.972 251.012 357.908 C 243.791 362.996 239.312 369.914 237.171 378.05 C 242.61 377.801 247.755 377.586 252.45 377.42 C 254.219 372.308 257.495 368.404 261.848 365.777 C 267.447 362.398 276.315 362.229 276.354 362.788 C 276.395 363.346 269.411 364.373 264.646 367.464 C 259.943 370.512 258.346 373.461 257.056 377.265 C 270.84 376.837 287.343 376.362 287.403 377.226 C 287.466 378.092 271.062 379.95 257.356 381.472 C 259.168 385.057 261.164 387.749 266.25 390.106 C 271.406 392.492 278.463 392.524 278.502 393.081 C 278.542 393.638 269.739 394.722 263.72 392.169 C 259.039 390.182 255.244 386.781 252.774 381.969 C 248.102 382.465 242.976 382.978 237.556 383.501 C 240.826 391.253 246.234 397.472 254.104 401.488 C 261.739 405.386 271.736 405.834 271.774 406.339 C 271.81 406.846 261.015 408.053 251.643 403.669 C 242.206 399.254 236.512 392.846 233.023 383.93 C 227.484 384.453 221.671 384.98 215.731 385.502 C 219.028 393.606 224.122 400.453 232.276 406.555 C 239.875 412.245 251.002 414.471 250.744 415.247 C 250.484 416.025 238.162 415.511 227.716 407.446 C 219.364 400.993 214.43 394.252 211.2 385.898 C 208.484 386.136 201.911 386.69 199.166 386.922 L 196.416 390.104 C 196.58 392.852 196.979 399.438 197.138 402.157 C 205.867 404.151 213.25 408.062 220.838 415.398 C 230.323 424.571 232.607 436.693 231.875 437.062 C 231.143 437.43 227.335 426.739 220.611 420.039 C 213.398 412.85 205.89 408.795 197.398 406.701 C 197.734 412.654 198.05 418.479 198.332 424.038 C 207.659 426.205 214.818 430.915 220.547 439.619 C 226.234 448.263 226.594 459.118 226.086 459.155 C 225.58 459.193 223.698 449.362 218.742 442.37 C 213.632 435.161 206.703 430.703 198.556 428.586 C 198.823 434.023 199.052 439.169 199.234 443.865 C 204.351 445.615 208.266 448.881 210.906 453.227 C 214.299 458.818 214.492 467.683 213.935 467.723 C 213.378 467.766 212.331 460.786 209.226 456.027 C 206.164 451.335 203.211 449.747 199.4 448.469 C 199.87 462.253 200.392 478.753 199.531 478.818 C 198.666 478.882 196.758 462.482 195.195 448.779 C 191.616 450.603 188.93 452.607 186.588 457.701 C 184.216 462.863 184.208 469.922 183.648 469.962 M 191.419 485.615 C 195.55 489.186 200.44 491.414 200.44 491.414 C 200.44 491.414 204.791 488.258 208.124 483.933 C 211.89 479.05 213.234 475.487 213.234 475.487 C 222.291 481.165 230.72 481.95 230.72 481.95 C 235.335 471.209 234.331 464.687 234.331 464.687 C 234.331 464.687 238.354 466.258 242.854 467.047 C 247.354 467.834 251.984 467.958 251.984 467.958 C 251.984 467.958 251.056 449.622 246.664 436.277 C 245.755 433.511 244.635 430.693 243.435 427.995 C 246.278 428.79 249.231 429.495 252.099 429.997 C 265.938 432.419 284.214 430.695 284.214 430.695 C 284.214 430.695 283.427 426.133 281.998 421.794 C 280.567 417.454 278.435 413.698 278.435 413.698 C 278.435 413.698 285.031 413.755 294.999 407.641 C 294.999 407.641 293.007 399.414 286.083 391.268 C 286.083 391.268 289.416 389.425 293.706 384.996 C 297.504 381.073 300.002 376.314 300.002 376.314 C 300.002 376.314 297.094 371.793 292.966 368.222 C 288.302 364.186 284.82 362.646 284.82 362.646 C 290.998 353.921 292.255 345.549 292.255 345.549 C 281.788 340.338 275.22 340.976 275.22 340.976 C 275.22 340.976 277.018 337.048 278.056 332.6 C 279.096 328.15 279.479 323.536 279.479 323.536 C 279.479 323.536 261.122 323.432 247.55 327.065 C 239.831 329.132 231.632 332.734 226.676 335.384 C 226.219 335.654 225.624 335.505 225.354 335.046 C 225.083 334.588 225.234 333.998 225.692 333.724 C 230.731 331.54 239.495 327.021 247.82 322.637 C 258.89 316.808 271.422 304.996 271.422 304.996 C 271.422 304.996 269.307 301.868 263.716 297.588 C 257.094 292.513 254.086 291.32 254.086 291.32 C 254.086 291.32 259.271 279.352 259.307 272.824 C 259.307 272.824 248.856 266.439 241.234 264.732 C 241.234 264.732 239.802 249.953 234.979 242.529 C 226.346 240.565 211.979 244.321 211.979 244.321 C 207.75 237.756 198.146 230.153 198.146 230.153 C 192.034 232.437 182.591 241.439 182.591 241.439 C 182.591 241.439 180.432 239.027 173.386 234.561 C 167.438 230.792 163.771 229.887 163.771 229.887 C 163.771 229.887 157.43 245.472 155.362 258.128 C 153.234 271.152 154.269 284.678 154.721 289.529 C 154.774 290.07 154.531 290.592 154.002 290.722 C 153.474 290.853 152.938 290.529 152.807 290.001 C 152.31 284.39 150.938 273.28 146.865 263.101 C 141.786 250.423 130.383 235.477 130.383 235.477 C 130.383 235.477 125.539 239.841 120.359 245.521 C 115.177 251.2 113.039 253.364 113.039 253.364 C 113.039 253.364 102.687 248.951 95.9194 246.573 C 95.9194 246.573 88.1567 256.169 83.7807 263.08 C 83.7807 263.08 67.0421 263.573 58.4381 267.969 C 55.3261 277.118 57.2475 293.754 57.2475 293.754 C 51.0395 299.078 42.6622 308.142 42.6622 308.142 C 45.9875 314.498 51.8461 324.11 51.8461 324.11 C 51.8461 324.11 50.0128 326.534 45.1408 332.48 C 40.2662 338.424 36.6435 343.846 36.6435 343.846 C 36.6435 343.846 53.0755 352.98 66.3541 356.174 C 77.0101 358.742 88.206 358.498 93.8314 358.184 C 94.3727 358.237 94.7687 358.721 94.714 359.261 C 94.6647 359.802 94.1794 360.118 93.638 360.146 C 88.7287 360.29 82.3567 360.816 68.7994 363.24 C 55.9928 365.528 43.8048 370.269 43.8048 370.269 C 43.8048 370.269 44.5755 373.964 48.1301 380.045 C 52.3381 387.248 54.6688 389.493 54.6688 389.493 C 54.6688 389.493 45.3355 398.605 42.8328 404.63 C 42.8328 404.63 50.0861 414.502 56.4955 418.963 C 56.4955 418.963 52.2235 433.185 53.8781 441.885 C 61.1221 446.971 75.8407 448.935 75.8407 448.935 C 77.2687 456.614 83.2767 467.289 83.2767 467.289 C 89.7994 467.487 101.947 462.734 101.947 462.734 C 101.947 462.734 102.515 466.179 107.865 472.586 C 111.826 477.327 115.665 479.845 115.665 479.845 C 115.665 479.845 127.333 466.987 134.925 454.794 C 142.823 442.109 145.969 430.125 147.597 424.013 C 147.797 423.521 148.359 423.285 148.854 423.489 C 149.346 423.69 149.578 424.254 149.378 424.747 C 147.469 430.031 145.086 438.665 144.151 446.601 C 142.507 460.555 145.255 478.706 145.255 478.706 C 145.255 478.706 149.769 477.665 154.021 475.993 C 158.274 474.323 161.901 471.982 161.901 471.982 C 161.901 471.982 162.219 478.571 168.883 488.178 C 168.883 488.178 176.984 485.729 184.728 478.357 C 184.728 478.357 186.755 481.581 191.419 485.615 M 417.981 115.743 C 417.968 115.72 417.955 115.698 417.943 115.675 L 417.965 115.716 Z M 299.168 163.788 C 298.44 159.557 296.955 155.921 292.286 151.452 C 287.042 146.433 278.466 143.201 278.659 142.556 C 278.851 141.912 290.034 144.681 296.258 150.28 C 300.766 154.332 303.818 159.407 304.968 165.352 C 308.965 166.439 313.129 167.577 317.416 168.763 C 316.479 159.215 312.588 150.373 305.179 142.74 C 297.572 134.899 285.594 129.864 285.771 129.28 C 285.944 128.695 299.604 132.231 309.119 141.405 C 318.236 150.199 322.444 159.481 323.165 170.357 C 327.216 171.483 331.359 172.641 335.561 173.823 C 334.788 163.879 331.512 154.412 324.637 144.449 C 317.845 134.614 305.266 127.068 305.916 126.312 C 306.567 125.556 321.348 131.72 330.572 145.516 C 337.547 155.948 340.689 165.284 341.28 175.436 C 344.741 176.411 348.231 177.401 351.736 178.401 C 350.517 163.027 346.309 153.167 338.785 141.169 C 330.203 127.488 315.492 117.836 316.299 117.1 C 317.107 116.366 336.335 127.734 345.588 143.001 C 351.929 153.467 356.7 166.823 357.536 180.057 L 391.736 190.051 C 391.773 185.597 391.812 181.063 391.856 176.484 C 386.648 175.837 382.231 173.849 378.064 168.933 C 373.121 163.1 372.263 155.207 373.109 154.82 C 373.955 154.433 375.455 161.323 381.121 165.933 C 384.621 168.781 388.039 169.977 391.919 170.455 C 391.992 163.453 392.075 156.377 392.171 149.325 C 377.973 144.467 364.932 135.584 355.564 125.99 C 341.897 111.99 335.76 89.0683 336.831 88.4736 C 337.897 87.879 343.637 105.706 355.788 118.546 C 366.443 129.802 375.848 137.053 392.263 142.949 C 392.317 139.097 392.377 135.262 392.443 131.463 C 381.536 127.783 372.353 121.771 363.231 111.546 C 351.164 98.0189 349.263 81.183 350.304 80.7536 C 351.343 80.323 355.476 95.3496 364.009 105.212 C 372.651 115.196 381.932 121.384 392.552 125.184 C 392.635 120.568 392.723 116.019 392.82 111.576 C 381.164 107.551 372.389 100.474 365.76 88.5723 C 358.843 76.1563 359.447 61.2497 360.145 61.2497 C 360.843 61.2497 362.427 74.9057 368.509 84.9896 C 374.432 94.8043 382.828 101.426 392.96 105.27 C 393.067 100.57 393.184 96.0069 393.307 91.6309 C 387.181 88.663 382.632 84.0323 379.676 78.239 C 375.593 70.239 376.223 58.0737 376.992 58.0737 C 377.76 58.0737 378.489 67.7403 382.26 74.5723 C 385.619 80.6563 389.109 83.263 393.495 85.2843 C 394.307 59.183 395.405 43.3231 396.848 43.3231 C 398.293 43.3231 399.389 59.183 400.203 85.2843 C 404.591 83.263 408.08 80.6563 411.44 74.5723 C 415.211 67.7403 415.94 58.0737 416.708 58.0737 C 417.476 58.0737 418.107 70.239 414.023 78.239 C 411.064 84.0323 406.515 88.663 400.392 91.6309 C 400.515 96.0069 400.629 100.57 400.739 105.27 C 410.872 101.426 419.268 94.8043 425.189 84.9896 C 431.273 74.9057 432.856 61.2497 433.553 61.2497 C 434.252 61.2497 434.856 76.1563 427.94 88.5723 C 421.309 100.474 412.536 107.551 400.88 111.576 C 400.973 116.019 401.064 120.568 401.148 125.184 C 411.768 121.384 421.049 115.196 429.689 105.212 C 438.223 95.3496 442.356 80.323 443.394 80.7536 C 444.434 81.183 442.533 98.0189 430.468 111.546 C 421.343 121.771 412.161 127.783 401.257 131.463 C 401.32 135.262 401.38 139.097 401.437 142.949 C 417.851 137.053 427.257 129.802 437.911 118.546 C 450.061 105.706 455.798 87.879 456.869 88.4736 C 457.937 89.0683 451.798 111.99 438.132 125.99 C 428.768 135.584 415.723 144.467 401.525 149.325 C 401.621 156.377 401.708 163.453 401.78 170.455 C 405.661 169.977 409.077 168.781 412.577 165.933 C 418.244 161.323 419.744 154.433 420.591 154.82 C 421.437 155.207 420.577 163.1 415.635 168.933 C 411.465 173.849 407.052 175.837 401.843 176.484 C 401.887 181.063 401.927 185.597 401.963 190.051 L 436.164 180.057 C 436.997 166.823 441.77 153.467 448.11 143.001 C 457.364 127.734 476.593 116.366 477.4 117.1 C 478.208 117.836 463.494 127.488 454.913 141.169 C 447.389 153.167 443.181 163.027 441.962 178.401 C 445.468 177.401 448.957 176.411 452.418 175.436 C 453.009 165.284 456.153 155.948 463.126 145.516 C 472.35 131.72 487.132 125.556 487.782 126.312 C 488.434 127.068 475.853 134.614 469.058 144.449 C 462.184 154.412 458.91 163.879 458.137 173.823 C 462.337 172.641 466.484 171.483 470.533 170.357 C 471.252 159.481 475.46 150.199 484.58 141.405 C 494.093 132.231 507.754 128.695 507.929 129.28 C 508.106 129.864 496.126 134.899 488.517 142.74 C 481.11 150.373 477.22 159.215 476.282 168.763 C 480.569 167.577 484.733 166.439 488.73 165.352 C 489.882 159.407 492.934 154.332 497.442 150.28 C 503.665 144.681 514.848 141.912 515.041 142.556 C 515.233 143.201 506.656 146.433 501.413 151.452 C 496.744 155.921 495.26 159.557 494.53 163.788 C 518.388 157.389 532.973 154.023 533.337 155.236 C 533.7 156.448 519.664 161.655 496.216 169.419 C 499.15 172.552 502.389 174.773 508.746 175.941 C 515.885 177.251 524.828 175.24 525.022 175.885 C 525.213 176.531 514.348 180.36 506.072 179.104 C 500.08 178.193 494.738 175.632 490.512 171.297 C 486.577 172.588 482.47 173.925 478.238 175.289 C 484.268 182.751 492.377 188.001 502.762 190.305 C 513.426 192.676 526.202 190.3 526.377 190.884 C 526.552 191.469 513.194 196.021 500.205 193.587 C 487.754 191.252 479.137 185.809 472.558 177.12 C 468.556 178.404 464.457 179.715 460.293 181.036 C 466.408 188.917 474.345 195.029 485.566 199.571 C 496.645 204.057 511.304 203.447 511.176 204.436 C 511.046 205.425 495.309 208.397 480.022 201.941 C 468.462 197.06 460.708 190.987 454.632 182.832 C 451.205 183.917 447.744 185.008 444.268 186.1 C 453.736 198.276 462.67 204.201 475.549 210.087 C 490.238 216.801 507.834 216.779 507.564 217.836 C 507.293 218.896 484.981 219.964 468.858 212.295 C 457.812 207.037 446.484 198.501 438.512 187.904 L 402.028 199.095 C 402.093 208.852 402.137 218.095 402.161 226.475 C 406.041 230.463 409.919 234.463 413.736 238.416 C 422.44 233.821 431.392 231.792 442.97 232.468 C 457.446 233.315 468.036 241.78 467.689 242.611 C 467.342 243.443 456.512 237.263 446.109 236.496 C 434.947 235.675 425.785 237.675 417.208 242.013 C 421.755 246.733 426.189 251.363 430.408 255.789 C 439.731 250.915 449.072 249.709 460.08 252.859 C 471.012 255.987 479.09 264.772 478.694 265.168 C 478.298 265.56 469.689 258.719 460.546 256.443 C 451.126 254.097 442.158 255.349 433.856 259.417 C 437.971 263.76 441.848 267.881 445.364 271.665 C 450.885 269.456 456.484 269.373 461.798 271.105 C 468.629 273.33 475.145 280.578 474.71 281.012 C 474.276 281.446 468.4 276.381 462.405 274.641 C 456.489 272.924 452.892 273.717 448.804 275.381 C 459.069 286.529 471.328 299.904 470.653 300.576 C 469.978 301.249 456.64 288.95 445.522 278.653 C 443.845 282.737 443.044 286.332 444.741 292.253 C 446.465 298.253 451.512 304.141 451.077 304.576 C 450.642 305.008 443.413 298.473 441.208 291.634 C 439.492 286.314 439.593 280.717 441.814 275.204 C 438.044 271.676 433.932 267.787 429.604 263.657 C 425.509 271.948 424.231 280.912 426.549 290.34 C 428.799 299.488 435.613 308.12 435.219 308.513 C 434.825 308.908 426.061 300.804 422.965 289.862 C 419.851 278.844 421.083 269.508 425.987 260.2 C 421.569 255.969 416.955 251.519 412.249 246.959 C 407.885 255.524 405.856 264.68 406.645 275.841 C 407.38 286.248 413.528 297.097 412.697 297.441 C 411.864 297.784 403.432 287.172 402.627 272.693 C 401.984 261.113 404.041 252.165 408.661 243.476 C 406.512 241.389 401.325 236.325 399.159 234.212 L 394.539 234.212 C 392.372 236.325 387.187 241.389 385.039 243.476 C 389.659 252.165 391.713 261.113 391.072 272.693 C 390.268 287.172 381.835 297.784 381.001 297.441 C 380.171 297.097 386.317 286.248 387.053 275.841 C 387.843 264.68 385.815 255.524 381.449 246.959 C 376.744 251.519 372.129 255.969 367.713 260.2 C 372.616 269.508 373.848 278.844 370.731 289.862 C 367.637 300.804 358.875 308.908 358.479 308.513 C 358.085 308.12 364.9 299.488 367.151 290.34 C 369.468 280.912 368.189 271.948 364.096 263.657 C 359.765 267.787 355.656 271.676 351.883 275.204 C 354.107 280.717 354.208 286.314 352.492 291.634 C 350.285 298.473 343.056 305.008 342.621 304.576 C 342.187 304.141 347.233 298.253 348.957 292.253 C 350.656 286.332 349.851 282.737 348.176 278.653 C 337.056 288.95 323.719 301.249 323.047 300.576 C 322.372 299.904 334.629 286.529 344.895 275.381 C 340.807 273.717 337.208 272.924 331.293 274.641 C 325.296 276.381 319.424 281.446 318.989 281.012 C 318.553 280.578 325.067 273.33 331.9 271.105 C 337.216 269.373 342.815 269.456 348.332 271.665 C 351.848 267.881 355.725 263.76 359.843 259.417 C 351.541 255.349 342.572 254.097 333.151 256.443 C 324.009 258.719 315.397 265.56 315.004 265.168 C 314.609 264.772 322.687 255.987 333.616 252.859 C 344.627 249.709 353.968 250.915 363.291 255.789 C 367.507 251.363 371.944 246.733 376.492 242.013 C 367.913 237.675 358.749 235.675 347.591 236.496 C 337.187 237.263 326.356 243.443 326.009 242.611 C 325.664 241.78 336.252 233.315 350.725 232.468 C 362.307 231.792 371.26 233.821 379.963 238.416 C 383.78 234.463 387.659 230.463 391.536 226.475 C 391.561 218.095 391.604 208.852 391.671 199.095 L 355.184 187.904 C 347.216 198.501 335.887 207.037 324.84 212.295 C 308.719 219.964 286.406 218.896 286.135 217.836 C 285.864 216.779 303.46 216.801 318.148 210.087 C 331.028 204.201 339.963 198.276 349.432 186.1 C 345.952 185.008 342.492 183.917 339.064 182.832 C 332.992 190.987 325.233 197.06 313.676 201.941 C 298.387 208.397 282.654 205.425 282.523 204.436 C 282.395 203.447 297.054 204.057 308.132 199.571 C 319.353 195.029 327.291 188.917 333.403 181.036 C 329.241 179.715 325.143 178.404 321.14 177.12 C 314.561 185.809 305.944 191.252 293.495 193.587 C 280.504 196.021 267.148 191.469 267.323 190.884 C 267.498 190.3 280.271 192.676 290.938 190.305 C 301.32 188.001 309.432 182.751 315.46 175.289 C 311.228 173.925 307.122 172.588 303.187 171.297 C 298.958 175.632 293.619 178.193 287.627 179.104 C 279.351 180.36 268.487 176.531 268.676 175.885 C 268.872 175.24 277.815 177.251 284.952 175.941 C 291.31 174.773 294.55 172.552 297.482 169.419 C 274.036 161.655 259.999 156.448 260.362 155.236 C 260.726 154.023 275.312 157.389 299.168 163.788 M 249.052 195.669 C 253.575 201.235 266.26 207.912 266.26 207.912 C 266.26 207.912 263.804 210.863 262.326 219.912 C 261.231 226.613 261.898 231.613 261.898 231.613 C 261.898 231.613 280.976 232.068 296.564 229.613 C 312.788 227.057 325.009 221.057 331.257 218.012 C 331.812 217.828 332.413 218.125 332.599 218.681 C 332.783 219.237 332.484 219.836 331.929 220.021 C 326.165 222.236 317.277 226.46 310.009 231.391 C 297.231 240.057 284.122 255.391 284.122 255.391 C 284.122 255.391 288.231 258.391 292.676 260.724 C 297.122 263.057 301.676 264.391 301.676 264.391 C 301.676 264.391 296.427 269.39 293.231 281.834 C 293.231 281.834 301.094 286.806 312.788 287.946 C 312.788 287.946 311.564 291.946 311.564 298.724 C 311.564 304.724 313.231 310.389 313.231 310.389 C 313.231 310.389 318.981 311.734 324.973 311.397 C 331.739 311.016 335.665 309.57 335.665 309.57 C 337.46 321.182 342.864 328.753 342.864 328.753 C 355.111 324.865 359.807 319.341 359.807 319.341 C 359.807 319.341 361.395 323.816 363.976 328.121 C 366.553 332.428 369.777 336.364 369.777 336.364 C 369.777 336.364 384.351 322.412 392.285 309.168 C 393.932 306.425 395.468 303.466 396.851 300.529 C 398.231 303.466 399.771 306.425 401.413 309.168 C 409.348 322.412 423.921 336.364 423.921 336.364 C 423.921 336.364 427.145 332.428 429.725 328.121 C 432.307 323.816 433.892 319.341 433.892 319.341 C 433.892 319.341 438.588 324.865 450.834 328.753 C 450.834 328.753 456.241 321.182 458.033 309.57 C 458.033 309.57 461.96 311.016 468.725 311.397 C 474.718 311.734 480.468 310.389 480.468 310.389 C 480.468 310.389 482.134 304.724 482.134 298.724 C 482.134 291.946 480.913 287.946 480.913 287.946 C 492.606 286.806 500.468 281.834 500.468 281.834 C 497.273 269.39 492.022 264.391 492.022 264.391 C 492.022 264.391 496.58 263.057 501.022 260.724 C 505.468 258.391 509.58 255.391 509.58 255.391 C 509.58 255.391 496.468 240.057 483.689 231.391 C 476.424 226.46 467.536 222.236 461.77 220.021 C 461.216 219.836 460.916 219.237 461.101 218.681 C 461.288 218.125 461.886 217.828 462.442 218.012 C 467.882 220.631 477.937 224.664 487.564 228.431 C 500.369 233.44 519.197 235.365 519.197 235.365 C 519.197 235.365 520.276 231.357 519.814 223.635 C 519.268 214.481 518.098 211.123 518.098 211.123 C 518.098 211.123 531.776 206.832 537.225 202.168 C 537.225 202.168 535.02 188.891 530.957 181.332 C 530.957 181.332 542.21 169.513 544.913 160.168 C 540.337 151.581 526.889 142.341 526.889 142.341 C 529.306 134.108 528.721 120.66 528.721 120.66 C 522.426 117.22 508.158 115.844 508.158 115.844 C 508.158 115.844 508.609 112.318 507.254 103.248 C 506.11 95.5949 504.228 91.8963 504.228 91.8963 C 504.228 91.8963 486.716 97.8309 474.71 105.212 C 462.356 112.807 451.856 123.391 448.153 127.255 C 447.738 127.686 447.132 127.86 446.642 127.514 C 446.156 127.168 446.038 126.494 446.385 126.003 C 450.686 121.556 458.937 112.427 464.468 101.724 C 471.356 88.391 475.58 68.1683 475.58 68.1683 C 475.58 68.1683 468.468 67.2803 460.022 67.0577 C 451.58 66.835 448.246 66.6137 448.246 66.6137 C 448.246 66.6137 444.468 54.835 441.58 47.5017 C 441.58 47.5017 428.023 47.9471 419.135 49.2804 C 419.135 49.2804 406.689 35.7244 396.851 31.7298 C 387.009 35.7244 374.564 49.2804 374.564 49.2804 C 365.676 47.9471 352.121 47.5017 352.121 47.5017 C 349.231 54.835 345.455 66.6137 345.455 66.6137 C 345.455 66.6137 342.119 66.835 333.676 67.0577 C 325.231 67.2803 318.121 68.1683 318.121 68.1683 C 318.121 68.1683 322.343 88.391 329.231 101.724 C 334.763 112.427 343.012 121.556 347.317 126.003 C 347.661 126.494 347.547 127.168 347.056 127.514 C 346.569 127.86 345.96 127.686 345.547 127.255 C 341.897 123.28 336.883 118.36 325.121 108.835 C 314.009 99.8349 301.31 93.1136 301.31 93.1136 C 301.31 93.1136 298.794 96.4123 296.294 103.738 C 293.332 112.415 293.143 115.964 293.143 115.964 C 293.143 115.964 278.859 114.759 272.052 117.011 C 272.052 117.011 269.062 130.135 269.96 138.669 C 269.96 138.669 255.07 145.344 249.028 152.971 C 250.01 162.649 258.958 176.295 258.958 176.295 C 253.604 183.001 249.052 195.669 249.052 195.669"
     style="fill:#000000;fill-opacity:1;fill-rule:nonzero;stroke:none"
     id="path3331" />
</svg>
