<?xml version="1.0" encoding="UTF-8" standalone="no"?>
<!-- Generator: Adobe Illustrator 21.1.0, SVG Export Plug-In . SVG Version: 6.00 Build 0)  -->

<svg
   version="1.1"
   viewBox="0 0 167.60001 167.6"
   xml:space="preserve"
   id="svg906"
   sodipodi:docname="Reddit_logo_new.svg"
   width="167.60001"
   height="167.60001"
   inkscape:version="1.2 (dc2aeda, 2022-05-15)"
   xmlns:inkscape="http://www.inkscape.org/namespaces/inkscape"
   xmlns:sodipodi="http://sodipodi.sourceforge.net/DTD/sodipodi-0.dtd"
   xmlns="http://www.w3.org/2000/svg"
   xmlns:svg="http://www.w3.org/2000/svg">
   <path
   d="m 139.7,83.8 c 0,-6.8 -5.5,-12.2 -12.2,-12.2 -3.3,0 -6.3,1.3 -8.5,3.4 -8.4,-6 -19.9,-9.9 -32.7,-10.4 l 5.6,-26.2 18.2,3.9 c 0.2,4.6 4,8.3 8.7,8.3 4.8,0 8.7,-3.9 8.7,-8.7 0,-4.8 -3.9,-8.7 -8.7,-8.7 -3.4,0 -6.4,2 -7.8,4.9 L 90.7,33.8 c -0.6,-0.1 -1.2,0 -1.6,0.3 -0.5,0.3 -0.8,0.8 -0.9,1.4 L 82,64.7 C 69,65.1 57.3,69 48.8,75.1 46.6,73 43.6,71.7 40.3,71.7 c -6.8,0 -12.2,5.5 -12.2,12.2 0,5 3,9.2 7.2,11.1 -0.2,1.2 -0.3,2.4 -0.3,3.7 0,18.8 21.9,34.1 48.9,34.1 27,0 48.9,-15.2 48.9,-34.1 0,-1.2 -0.1,-2.5 -0.3,-3.7 4.2,-1.9 7.2,-6.2 7.2,-11.2 z m -83.8,8.7 c 0,-4.8 3.9,-8.7 8.7,-8.7 4.8,0 8.7,3.9 8.7,8.7 0,4.8 -3.9,8.7 -8.7,8.7 -4.8,0.1 -8.7,-3.9 -8.7,-8.7 z m 48.7,23.1 c -6,6 -17.4,6.4 -20.7,6.4 -3.4,0 -14.8,-0.5 -20.7,-6.4 -0.9,-0.9 -0.9,-2.3 0,-3.2 0.9,-0.9 2.3,-0.9 3.2,0 3.8,3.8 11.8,5.1 17.5,5.1 5.7,0 13.8,-1.3 17.5,-5.1 0.9,-0.9 2.3,-0.9 3.2,0 0.8,0.9 0.8,2.3 0,3.2 z M 103,101.3 c -4.8,0 -8.7,-3.9 -8.7,-8.7 0,-4.8 3.9,-8.7 8.7,-8.7 4.8,0 8.7,3.9 8.7,8.7 0,4.7 -3.9,8.7 -8.7,8.7 z"
   id="path888" />
</svg>
