<?xml version="1.0" encoding="UTF-8" standalone="no"?>
<!-- Created with Inkscape (http://www.inkscape.org/) -->

<svg
   version="1.1"
   id="svg29790"
   width="795.03467"
   height="793.70135"
   viewBox="0 0 795.03467 793.70135"
   sodipodi:docname="Chuuwani Nozoki Karabana.svg"
   inkscape:version="1.2 (dc2aeda, 2022-05-15)"
   xmlns:inkscape="http://www.inkscape.org/namespaces/inkscape"
   xmlns:sodipodi="http://sodipodi.sourceforge.net/DTD/sodipodi-0.dtd"
   xmlns="http://www.w3.org/2000/svg"
   xmlns:svg="http://www.w3.org/2000/svg">
  <defs
     id="defs29794">
    <clipPath
       clipPathUnits="userSpaceOnUse"
       id="clipPath30283">
      <path
         d="M -542.9326,584.5729 H 53.343399 V -10.7031 H -542.9326 Z"
         id="path30285"
         style="stroke-width:0.999998" />
    </clipPath>
    <clipPath
       clipPathUnits="userSpaceOnUse"
       id="clipPath30289">
      <path
         d="M -531.1924,581.5885 H 65.083599 V -13.6875 H -531.1924 Z"
         id="path30291"
         style="stroke-width:0.999998" />
    </clipPath>
    <clipPath
       clipPathUnits="userSpaceOnUse"
       id="clipPath30295">
      <path
         d="M -550.2637,577.3248 H 46.012306 V -17.951198 H -550.2637 Z"
         id="path30297"
         style="stroke-width:0.999998" />
    </clipPath>
    <clipPath
       clipPathUnits="userSpaceOnUse"
       id="clipPath30302">
      <path
         d="M -556.4014,578.0143 H 39.874606 V -17.2617 H -556.4014 Z"
         id="path30304"
         style="stroke-width:0.999998" />
    </clipPath>
    <clipPath
       clipPathUnits="userSpaceOnUse"
       id="clipPath30308">
      <path
         d="M -584.1943,578.9381 H 12.081705 V -16.337903 H -584.1943 Z"
         id="path30310"
         style="stroke-width:0.999998" />
    </clipPath>
    <clipPath
       clipPathUnits="userSpaceOnUse"
       id="clipPath30314">
      <path
         d="M -545.417,584.5729 H 50.859001 V -10.7031 H -545.417 Z"
         id="path30316"
         style="stroke-width:0.999998" />
    </clipPath>
    <clipPath
       clipPathUnits="userSpaceOnUse"
       id="clipPath30320">
      <path
         d="M -557.4951,577.8502 H 38.780903 V -17.4258 H -557.4951 Z"
         id="path30322"
         style="stroke-width:0.999998" />
    </clipPath>
    <clipPath
       clipPathUnits="userSpaceOnUse"
       id="clipPath30326">
      <path
         d="M -538.2217,577.9479 H 58.054299 V -17.328098 H -538.2217 Z"
         id="path30328"
         style="stroke-width:0.999998" />
    </clipPath>
    <clipPath
       clipPathUnits="userSpaceOnUse"
       id="clipPath30332">
      <path
         d="M -540.8213,585.8483 H 55.454701 V -9.4277027 H -540.8213 Z"
         id="path30334"
         style="stroke-width:0.999998" />
    </clipPath>
    <clipPath
       clipPathUnits="userSpaceOnUse"
       id="clipPath30338">
      <path
         d="M -574.5459,585.8522 H 21.730103 V -9.4238027 H -574.5459 Z"
         id="path30340"
         style="stroke-width:0.999998" />
    </clipPath>
    <clipPath
       clipPathUnits="userSpaceOnUse"
       id="clipPath30344">
      <path
         d="M -557.0645,585.8483 H 39.211501 V -9.4277027 H -557.0645 Z"
         id="path30346"
         style="stroke-width:0.999998" />
    </clipPath>
    <clipPath
       clipPathUnits="userSpaceOnUse"
       id="clipPath30350">
      <path
         d="M -536.6982,584.5729 H 59.577804 V -10.7031 H -536.6982 Z"
         id="path30352"
         style="stroke-width:0.999998" />
    </clipPath>
    <clipPath
       clipPathUnits="userSpaceOnUse"
       id="clipPath30356">
      <path
         d="M -553.8975,585.8483 H 42.378504 V -9.4277027 H -553.8975 Z"
         id="path30358"
         style="stroke-width:0.999998" />
    </clipPath>
    <clipPath
       clipPathUnits="userSpaceOnUse"
       id="clipPath30362">
      <path
         d="M -548.9834,585.8522 H 47.292601 V -9.4238027 H -548.9834 Z"
         id="path30364"
         style="stroke-width:0.999998" />
    </clipPath>
    <clipPath
       clipPathUnits="userSpaceOnUse"
       id="clipPath30368">
      <path
         d="M -561.4131,585.8522 H 34.862903 V -9.4238027 H -561.4131 Z"
         id="path30370"
         style="stroke-width:0.999998" />
    </clipPath>
    <clipPath
       clipPathUnits="userSpaceOnUse"
       id="clipPath30374">
      <path
         d="M -576.3691,585.5885 H 19.906905 V -9.6875027 H -576.3691 Z"
         id="path30376"
         style="stroke-width:0.999998" />
    </clipPath>
    <clipPath
       clipPathUnits="userSpaceOnUse"
       id="clipPath30380">
      <path
         d="m -493.5645,297.6334 h 596.27601 v -595.276 H -493.5645 Z"
         id="path30382"
         style="stroke-width:0.999998" />
    </clipPath>
    <clipPath
       clipPathUnits="userSpaceOnUse"
       id="clipPath30386">
      <path
         d="M -586.5449,579.5026 H 9.7311002 V -15.7734 H -586.5449 Z"
         id="path30388"
         style="stroke-width:0.999998" />
    </clipPath>
    <clipPath
       clipPathUnits="userSpaceOnUse"
       id="clipPath30392">
      <path
         d="M -528.0898,575.3815 H 68.186199 V -19.8945 H -528.0898 Z"
         id="path30394"
         style="stroke-width:0.999998" />
    </clipPath>
    <clipPath
       clipPathUnits="userSpaceOnUse"
       id="clipPath30398">
      <path
         d="M -564.5732,585.8483 H 31.702801 V -9.4277027 H -564.5732 Z"
         id="path30400"
         style="stroke-width:0.999998" />
    </clipPath>
    <clipPath
       clipPathUnits="userSpaceOnUse"
       id="clipPath30404">
      <path
         d="M -568.2266,575.819 H 28.049401 V -19.457003 H -568.2266 Z"
         id="path30406"
         style="stroke-width:0.999998" />
    </clipPath>
    <clipPath
       clipPathUnits="userSpaceOnUse"
       id="clipPath30410">
      <path
         d="M -572.8174,586.1354 H 23.458606 V -9.1406027 H -572.8174 Z"
         id="path30412"
         style="stroke-width:0.999998" />
    </clipPath>
    <clipPath
       clipPathUnits="userSpaceOnUse"
       id="clipPath30417">
      <path
         d="M -567.7754,585.8522 H 28.500601 V -9.4238027 H -567.7754 Z"
         id="path30419"
         style="stroke-width:0.999998" />
    </clipPath>
  </defs>
  <sodipodi:namedview
     id="namedview29792"
     pagecolor="#ffffff"
     bordercolor="#000000"
     borderopacity="0.25"
     inkscape:showpageshadow="2"
     inkscape:pageopacity="0.0"
     inkscape:pagecheckerboard="0"
     inkscape:deskcolor="#d1d1d1"
     showgrid="false"
     inkscape:zoom="0.29734106"
     inkscape:cx="-215.24105"
     inkscape:cy="396.85068"
     inkscape:window-width="1419"
     inkscape:window-height="456"
     inkscape:window-x="0"
     inkscape:window-y="25"
     inkscape:window-maximized="0"
     inkscape:current-layer="svg29790">
    <inkscape:page
       x="0"
       y="0"
       id="page29796"
       width="795.03467"
       height="793.70135" />
  </sodipodi:namedview>
  <path
     d="M 658.086 396.845 C 640.689 396.845 624.971 404.006 613.697 415.533 C 603.747 407.924 591.316 403.392 577.822 403.392 C 556.358 403.392 537.568 414.832 527.21 431.944 C 531.208 440.152 533.454 449.372 533.457 459.116 C 533.468 514.383 515.88 562.137 490.65 600.899 C 476.7 622.339 460.434 641.055 443.447 656.951 C 447.075 660.566 450.28 664.602 452.995 668.975 C 477.93 660.366 500.269 646.188 518.524 627.912 C 520.217 626.219 522.961 626.219 524.654 627.912 C 526.346 629.599 526.346 632.344 524.654 634.038 L 524.657 634.038 C 505.809 652.912 482.786 667.626 457.107 676.711 C 459.286 681.563 460.897 686.722 461.857 692.11 C 592.781 663.418 691.941 549.891 698.775 412.053 C 687.875 402.588 673.655 396.845 658.086 396.845 M 269.046 634.038 C 267.352 632.344 267.352 629.599 269.046 627.912 C 270.738 626.219 273.483 626.219 275.175 627.912 C 293.431 646.188 315.77 660.366 340.705 668.975 C 343.42 664.602 346.624 660.566 350.253 656.951 C 333.265 641.055 317 622.339 303.05 600.899 C 277.82 562.137 260.231 514.383 260.242 459.116 C 260.244 449.372 262.492 440.152 266.49 431.944 C 256.131 414.832 237.34 403.392 215.878 403.392 C 202.384 403.392 189.951 407.924 180.003 415.533 C 168.727 404.006 153.01 396.845 135.614 396.845 C 120.045 396.845 105.825 402.588 94.9247 412.053 C 101.759 549.891 200.919 663.418 331.841 692.11 C 332.801 686.722 334.412 681.563 336.593 676.711 C 310.912 667.626 287.891 652.912 269.043 634.038 Z M 356.817 651.235 C 366.851 643.576 379.14 638.735 392.517 637.868 L 392.517 565.935 C 392.517 563.542 394.455 561.602 396.851 561.602 C 399.245 561.602 401.185 563.542 401.185 565.935 L 401.185 637.868 C 414.563 638.735 426.851 643.576 436.885 651.235 C 483.573 607.792 524.792 542.423 524.792 459.116 C 524.792 429.577 500.844 405.632 471.305 405.632 C 463.246 405.632 455.611 407.424 448.756 410.616 C 439.229 391.594 419.571 378.53 396.851 378.53 C 374.131 378.53 354.472 391.594 344.947 410.616 C 338.092 407.424 330.455 405.632 322.396 405.632 C 292.858 405.632 268.91 429.577 268.91 459.116 C 268.91 542.423 310.128 607.792 356.817 651.235 M 396.851 646.378 C 368.543 646.378 345.039 666.883 340.336 693.844 C 358.647 697.308 377.533 699.142 396.851 699.142 C 416.169 699.142 435.056 697.308 453.367 693.844 C 448.664 666.883 425.16 646.378 396.851 646.378 M 396.851 709.808 C 224.003 709.808 83.8794 569.686 83.8794 396.837 C 83.8794 223.985 224.003 83.8791 396.851 83.8791 C 569.7 83.8791 709.823 223.985 709.823 396.837 C 709.823 569.686 569.7 709.808 396.851 709.808 M 396.851 31.7299 C 195.202 31.7299 31.7289 195.187 31.7289 396.837 C 31.7289 598.487 195.202 761.959 396.851 761.959 C 598.502 761.959 761.972 598.487 761.972 396.837 C 761.972 195.187 598.502 31.7299 396.851 31.7299"
     style="fill:#000000;fill-opacity:1;fill-rule:nonzero;stroke:none"
     id="path29910" />
</svg>
