<?xml version="1.0" encoding="UTF-8" standalone="no"?>
<!-- Created with Inkscape (http://www.inkscape.org/) -->

<svg
   version="1.1"
   id="svg26352"
   width="795.03467"
   height="793.70135"
   viewBox="0 0 795.03467 793.70135"
   sodipodi:docname="Chuukage Ura Karabana.svg"
   inkscape:version="1.2 (dc2aeda, 2022-05-15)"
   xmlns:inkscape="http://www.inkscape.org/namespaces/inkscape"
   xmlns:sodipodi="http://sodipodi.sourceforge.net/DTD/sodipodi-0.dtd"
   xmlns="http://www.w3.org/2000/svg"
   xmlns:svg="http://www.w3.org/2000/svg">
  <defs
     id="defs26356">
    <clipPath
       clipPathUnits="userSpaceOnUse"
       id="clipPath26845">
      <path
         d="M -531.1924,581.5885 H 65.083599 V -13.6875 H -531.1924 Z"
         id="path26847"
         style="stroke-width:0.999998" />
    </clipPath>
    <clipPath
       clipPathUnits="userSpaceOnUse"
       id="clipPath26851">
      <path
         d="M -553.8975,585.8483 H 42.378504 V -9.4277027 H -553.8975 Z"
         id="path26853"
         style="stroke-width:0.999998" />
    </clipPath>
    <clipPath
       clipPathUnits="userSpaceOnUse"
       id="clipPath26857">
      <path
         d="M -548.9834,585.8522 H 47.292601 V -9.4238027 H -548.9834 Z"
         id="path26859"
         style="stroke-width:0.999998" />
    </clipPath>
    <clipPath
       clipPathUnits="userSpaceOnUse"
       id="clipPath26863">
      <path
         d="m -342.3057,256.4396 h 596.276 v -595.276 h -596.276 z"
         id="path26865"
         style="stroke-width:0.999998" />
    </clipPath>
    <clipPath
       clipPathUnits="userSpaceOnUse"
       id="clipPath26869">
      <path
         d="M -538.2217,577.9479 H 58.054299 V -17.328098 H -538.2217 Z"
         id="path26871"
         style="stroke-width:0.999998" />
    </clipPath>
    <clipPath
       clipPathUnits="userSpaceOnUse"
       id="clipPath26876">
      <path
         d="M -556.4014,578.0143 H 39.874606 V -17.2617 H -556.4014 Z"
         id="path26878"
         style="stroke-width:0.999998" />
    </clipPath>
    <clipPath
       clipPathUnits="userSpaceOnUse"
       id="clipPath26882">
      <path
         d="M -545.417,584.5729 H 50.859001 V -10.7031 H -545.417 Z"
         id="path26884"
         style="stroke-width:0.999998" />
    </clipPath>
    <clipPath
       clipPathUnits="userSpaceOnUse"
       id="clipPath26888">
      <path
         d="M -557.0645,585.8483 H 39.211501 V -9.4277027 H -557.0645 Z"
         id="path26890"
         style="stroke-width:0.999998" />
    </clipPath>
    <clipPath
       clipPathUnits="userSpaceOnUse"
       id="clipPath26894">
      <path
         d="M -572.8174,586.1354 H 23.458606 V -9.1406027 H -572.8174 Z"
         id="path26896"
         style="stroke-width:0.999998" />
    </clipPath>
    <clipPath
       clipPathUnits="userSpaceOnUse"
       id="clipPath26900">
      <path
         d="M -568.2266,575.819 H 28.049401 V -19.457003 H -568.2266 Z"
         id="path26902"
         style="stroke-width:0.999998" />
    </clipPath>
    <clipPath
       clipPathUnits="userSpaceOnUse"
       id="clipPath26906">
      <path
         d="M -557.4951,577.8502 H 38.780903 V -17.4258 H -557.4951 Z"
         id="path26908"
         style="stroke-width:0.999998" />
    </clipPath>
    <clipPath
       clipPathUnits="userSpaceOnUse"
       id="clipPath26912">
      <path
         d="M -576.3691,585.5885 H 19.906905 V -9.6875027 H -576.3691 Z"
         id="path26914"
         style="stroke-width:0.999998" />
    </clipPath>
    <clipPath
       clipPathUnits="userSpaceOnUse"
       id="clipPath26919">
      <path
         d="M -584.1943,578.9381 H 12.081705 V -16.337903 H -584.1943 Z"
         id="path26921"
         style="stroke-width:0.999998" />
    </clipPath>
    <clipPath
       clipPathUnits="userSpaceOnUse"
       id="clipPath26925">
      <path
         d="M -574.5459,585.8522 H 21.730103 V -9.4238027 H -574.5459 Z"
         id="path26927"
         style="stroke-width:0.999998" />
    </clipPath>
    <clipPath
       clipPathUnits="userSpaceOnUse"
       id="clipPath26931">
      <path
         d="M -586.5449,579.5026 H 9.7311002 V -15.7734 H -586.5449 Z"
         id="path26933"
         style="stroke-width:0.999998" />
    </clipPath>
    <clipPath
       clipPathUnits="userSpaceOnUse"
       id="clipPath26937">
      <path
         d="M -550.2637,577.3248 H 46.012306 V -17.951198 H -550.2637 Z"
         id="path26939"
         style="stroke-width:0.999998" />
    </clipPath>
    <clipPath
       clipPathUnits="userSpaceOnUse"
       id="clipPath26943">
      <path
         d="M -528.0898,575.3815 H 68.186199 V -19.8945 H -528.0898 Z"
         id="path26945"
         style="stroke-width:0.999998" />
    </clipPath>
    <clipPath
       clipPathUnits="userSpaceOnUse"
       id="clipPath26949">
      <path
         d="M -536.6982,584.5729 H 59.577804 V -10.7031 H -536.6982 Z"
         id="path26951"
         style="stroke-width:0.999998" />
    </clipPath>
    <clipPath
       clipPathUnits="userSpaceOnUse"
       id="clipPath26955">
      <path
         d="M -540.8213,585.8483 H 55.454701 V -9.4277027 H -540.8213 Z"
         id="path26957"
         style="stroke-width:0.999998" />
    </clipPath>
    <clipPath
       clipPathUnits="userSpaceOnUse"
       id="clipPath26961">
      <path
         d="M -564.5732,585.8483 H 31.702801 V -9.4277027 H -564.5732 Z"
         id="path26963"
         style="stroke-width:0.999998" />
    </clipPath>
    <clipPath
       clipPathUnits="userSpaceOnUse"
       id="clipPath26967">
      <path
         d="M -567.7754,585.8522 H 28.500601 V -9.4238027 H -567.7754 Z"
         id="path26969"
         style="stroke-width:0.999998" />
    </clipPath>
    <clipPath
       clipPathUnits="userSpaceOnUse"
       id="clipPath26973">
      <path
         d="M -542.9326,584.5729 H 53.343399 V -10.7031 H -542.9326 Z"
         id="path26975"
         style="stroke-width:0.999998" />
    </clipPath>
    <clipPath
       clipPathUnits="userSpaceOnUse"
       id="clipPath26979">
      <path
         d="M -561.4131,585.8522 H 34.862903 V -9.4238027 H -561.4131 Z"
         id="path26981"
         style="stroke-width:0.999998" />
    </clipPath>
  </defs>
  <sodipodi:namedview
     id="namedview26354"
     pagecolor="#ffffff"
     bordercolor="#000000"
     borderopacity="0.25"
     inkscape:showpageshadow="2"
     inkscape:pageopacity="0.0"
     inkscape:pagecheckerboard="0"
     inkscape:deskcolor="#d1d1d1"
     showgrid="false"
     inkscape:zoom="0.29734106"
     inkscape:cx="-215.24105"
     inkscape:cy="396.85068"
     inkscape:window-width="1419"
     inkscape:window-height="456"
     inkscape:window-x="0"
     inkscape:window-y="25"
     inkscape:window-maximized="0"
     inkscape:current-layer="svg26352">
    <inkscape:page
       x="0"
       y="0"
       id="page26358"
       width="795.03467"
       height="793.70135" />
  </sodipodi:namedview>
  <path
     d="M 456.408 341.919 C 443.967 317.991 422.665 299.406 396.851 290.51 C 371.035 299.406 349.735 317.991 337.294 341.919 C 332.142 341.148 326.874 340.734 321.506 340.734 C 293.303 340.734 267.695 351.771 248.71 369.736 C 257.98 395.132 276.691 415.985 300.595 428.052 C 300.104 432.183 299.824 436.372 299.824 440.633 C 299.824 461.109 305.651 480.221 315.71 496.429 C 317.638 496.533 319.576 496.593 321.53 496.593 C 341.274 496.593 359.74 491.172 375.564 481.765 C 373.252 474.828 371.07 467.841 368.919 460.803 C 363.396 442.809 355.006 429.193 344.568 418.059 C 334.13 406.938 325.1 399.298 311.98 390.703 C 302.739 384.648 294.562 380.523 295.24 379.279 C 295.919 378.034 303.938 380.186 312.434 384.255 C 323.29 389.458 329.276 393.367 337.21 399.62 C 354.824 413.505 369.244 431.711 377.354 458.221 C 389.115 496.68 401.283 532.096 430.737 565.445 C 436.733 572.234 441.371 571.216 446.573 566.578 C 450.529 563.052 454.264 558.208 454.264 558.208 C 454.264 558.208 426.251 548.377 414.451 507.084 C 407.212 481.751 410.52 467.295 413.997 453.7 C 418.941 434.383 431.283 418.657 445.547 406.755 C 459.341 395.243 470.235 388.971 485.028 383.916 C 498.601 379.279 511.38 379.616 511.607 380.296 C 511.833 380.974 500.184 383.236 487.516 389.118 C 478.787 393.17 463.439 402.904 450.516 413.929 C 437.537 424.976 426.797 439.183 422.544 455.885 C 420.603 463.472 418.961 470.412 418.953 479.252 C 418.955 480.232 418.983 481.245 419.025 482.281 C 434.652 491.364 452.793 496.593 472.171 496.593 C 474.125 496.593 476.064 496.533 477.992 496.429 C 488.051 480.221 493.877 461.109 493.877 440.633 C 493.877 436.372 493.597 432.183 493.107 428.052 C 517.011 415.985 535.721 395.132 544.993 369.736 C 526.006 351.771 500.397 340.734 472.196 340.734 C 466.828 340.734 461.56 341.148 456.408 341.919 M 692.69 377.128 L 680.609 386.463 L 688.623 399.462 C 690.77 402.943 692.499 406.683 693.769 410.589 C 696.989 420.524 697.233 431.393 693.77 442.112 C 688.501 458.404 675.941 470.156 660.793 475.107 C 650.854 478.325 639.968 478.571 629.234 475.107 L 502.479 433.919 C 502.613 436.133 502.697 438.367 502.697 440.633 C 502.699 450.255 501.505 459.609 499.265 468.552 L 618.769 507.38 C 629.477 510.88 638.137 517.476 644.285 525.924 C 653.63 538.828 656.881 555.721 651.57 571.992 C 648.073 582.705 641.492 591.354 633.041 597.502 C 629.722 599.912 626.121 601.924 622.322 603.484 L 608.216 609.292 L 612.498 623.937 C 618.974 646.138 611.33 671.018 591.52 685.377 C 571.742 699.778 545.716 699.362 526.608 686.343 L 513.996 677.737 L 504.109 689.374 C 501.463 692.494 498.441 695.291 495.117 697.707 C 486.664 703.838 476.403 707.431 465.136 707.453 C 448.016 707.474 432.957 699.161 423.569 686.283 C 417.436 677.827 413.837 667.546 413.817 656.268 L 413.817 558.638 C 398.131 537.841 387.979 516.284 379.886 494.148 L 379.886 656.292 C 379.868 667.554 376.271 677.83 370.139 686.289 C 360.754 699.161 345.691 707.474 328.572 707.453 C 317.303 707.434 307.047 703.846 298.587 697.71 C 295.27 695.299 292.242 692.497 289.584 689.363 L 279.704 677.745 L 267.098 686.343 C 247.986 699.362 221.962 699.781 202.183 685.379 C 182.374 671.021 174.727 646.138 181.206 623.942 L 185.491 609.286 L 171.366 603.481 C 167.585 601.926 163.989 599.918 160.662 597.505 C 152.222 591.357 145.634 582.71 142.133 572 C 136.822 555.724 140.075 538.833 149.421 525.927 C 155.569 517.481 164.233 510.883 174.95 507.377 L 294.436 468.552 C 292.196 459.609 291 450.255 291.003 440.633 C 291.003 438.367 291.087 436.133 291.222 433.921 L 164.446 475.115 C 153.729 478.576 142.845 478.331 132.905 475.112 C 117.762 470.164 105.202 458.409 99.9329 442.123 C 96.4676 431.399 96.7102 420.533 99.9302 410.592 C 101.197 406.694 102.929 402.948 105.085 399.451 L 113.085 386.464 L 101.009 377.132 C 82.7223 362.978 74.2836 338.358 81.8689 315.096 C 89.4049 291.82 110.705 276.859 133.817 276.162 L 149.079 275.708 L 150.234 260.482 C 150.545 256.403 151.342 252.362 152.611 248.455 C 155.849 238.527 162.038 229.587 171.142 222.949 C 184.979 212.87 202.049 210.743 217.213 215.643 C 227.147 218.881 236.098 225.082 242.743 234.191 L 313.939 332.187 C 316.444 332.023 318.962 331.911 321.506 331.911 C 325.207 331.911 328.864 332.092 332.467 332.44 C 335.894 326.638 339.819 321.164 344.175 316.075 L 270.182 214.231 C 263.576 205.11 260.447 194.682 260.436 184.234 C 260.462 168.303 267.762 152.725 281.624 142.679 C 290.751 136.07 301.158 132.945 311.607 132.934 C 315.708 132.934 319.806 133.425 323.798 134.393 L 338.62 137.99 L 343.766 123.621 C 351.576 101.854 372.382 86.2223 396.849 86.2476 C 421.315 86.2223 442.125 101.854 449.933 123.621 L 455.077 137.998 L 469.917 134.39 C 473.891 133.425 477.98 132.934 482.089 132.934 C 492.532 132.945 502.947 136.07 512.072 142.674 C 525.934 152.722 533.233 168.299 533.257 184.234 C 533.249 194.682 530.117 205.114 523.506 214.247 L 449.524 316.075 C 453.883 321.164 457.807 326.638 461.233 332.44 C 464.835 332.092 468.491 331.911 472.193 331.911 C 474.737 331.911 477.255 332.023 479.759 332.187 L 550.968 234.174 C 557.602 225.073 566.553 218.875 576.488 215.637 C 591.649 210.738 608.716 212.866 622.553 222.946 C 631.661 229.582 637.85 238.514 641.089 248.45 C 642.357 252.351 643.156 256.399 643.466 260.494 L 644.629 275.703 L 659.882 276.156 C 682.997 276.859 704.294 291.816 711.831 315.094 C 719.417 338.354 710.979 362.978 692.69 377.128 M 723.967 394.424 C 745.821 371.195 754.627 337.088 744.102 304.611 C 733.527 272.146 706.354 249.731 675.021 243.782 C 674.537 241.829 673.981 239.889 673.357 237.966 C 668.026 221.526 657.562 206.447 642.529 195.514 C 619.964 179.078 591.901 175.354 567.158 183.031 C 566.812 157.127 554.598 131.589 531.994 115.208 C 516.949 104.286 499.379 98.9929 482.093 99.0036 C 480.075 99.0049 478.057 99.0769 476.048 99.2196 C 460.708 71.261 430.993 52.3411 396.851 52.3184 C 362.708 52.3411 332.994 71.261 317.655 99.2196 C 315.644 99.0769 313.628 99.0049 311.607 99.0036 C 294.324 98.9929 276.752 104.286 261.707 115.208 C 239.103 131.589 226.89 157.127 226.543 183.031 C 201.801 175.354 173.738 179.078 151.173 195.514 C 136.139 206.447 125.671 221.525 120.342 237.966 C 119.72 239.889 119.165 241.826 118.681 243.782 C 87.3489 249.731 60.1743 272.146 49.6024 304.61 C 39.0717 337.088 47.881 371.195 69.733 394.424 C 68.977 396.291 68.285 398.187 67.6596 400.107 C 62.309 416.54 61.913 434.891 67.6503 452.576 C 76.2436 479.133 96.7596 498.641 121.288 506.975 C 106.342 528.136 101.213 555.974 109.872 582.513 C 115.624 600.19 126.727 614.805 140.714 624.953 C 142.351 626.138 144.025 627.265 145.735 628.33 C 141.71 659.969 154.63 692.737 182.238 712.825 C 209.874 732.877 245.033 735.038 273.879 721.434 C 275.42 722.729 277.008 723.974 278.642 725.161 C 292.618 735.33 309.947 741.377 328.538 741.385 C 356.454 741.418 381.344 727.937 396.851 707.182 C 412.356 727.934 437.249 741.418 465.165 741.385 C 483.753 741.377 501.084 735.333 515.059 725.163 C 516.692 723.974 518.281 722.731 519.823 721.434 C 548.666 735.038 583.825 732.877 611.462 712.827 C 639.072 692.739 651.992 659.972 647.966 628.33 C 649.676 627.265 651.349 626.138 652.984 624.953 C 666.973 614.802 678.079 600.19 683.831 582.513 C 692.491 555.974 687.359 528.136 672.414 506.975 C 696.939 498.641 717.457 479.133 726.051 452.573 C 731.787 434.891 731.394 416.54 726.042 400.11 C 725.415 398.187 724.725 396.292 723.967 394.424"
     style="fill:#000000;fill-opacity:1;fill-rule:nonzero;stroke:none"
     id="path26472" />
</svg>
