<?xml version="1.0" encoding="UTF-8" standalone="no"?>
<!-- Created with Inkscape (http://www.inkscape.org/) -->

<svg
   version="1.1"
   id="svg33752"
   width="795.03467"
   height="793.70135"
   viewBox="0 0 795.03467 793.70135"
   sodipodi:docname="Dai Junuki Karabana.svg"
   inkscape:version="1.2 (dc2aeda, 2022-05-15)"
   xmlns:inkscape="http://www.inkscape.org/namespaces/inkscape"
   xmlns:sodipodi="http://sodipodi.sourceforge.net/DTD/sodipodi-0.dtd"
   xmlns="http://www.w3.org/2000/svg"
   xmlns:svg="http://www.w3.org/2000/svg">
  <defs
     id="defs33756">
    <clipPath
       clipPathUnits="userSpaceOnUse"
       id="clipPath34301">
      <path
         d="m -294.2393,396.9908 h 596.276 v -595.276 h -596.276 z"
         id="path34303"
         style="stroke-width:0.999998" />
    </clipPath>
    <clipPath
       clipPathUnits="userSpaceOnUse"
       id="clipPath34307">
      <path
         d="M -553.8975,585.8483 H 42.378504 V -9.4277027 H -553.8975 Z"
         id="path34309"
         style="stroke-width:0.999998" />
    </clipPath>
    <clipPath
       clipPathUnits="userSpaceOnUse"
       id="clipPath34313">
      <path
         d="M -557.0645,585.8483 H 39.211501 V -9.4277027 H -557.0645 Z"
         id="path34315"
         style="stroke-width:0.999998" />
    </clipPath>
    <clipPath
       clipPathUnits="userSpaceOnUse"
       id="clipPath34319">
      <path
         d="M -561.4131,585.8522 H 34.862903 V -9.4238027 H -561.4131 Z"
         id="path34321"
         style="stroke-width:0.999998" />
    </clipPath>
    <clipPath
       clipPathUnits="userSpaceOnUse"
       id="clipPath34325">
      <path
         d="M -576.3691,585.5885 H 19.906905 V -9.6875027 H -576.3691 Z"
         id="path34327"
         style="stroke-width:0.999998" />
    </clipPath>
    <clipPath
       clipPathUnits="userSpaceOnUse"
       id="clipPath34331">
      <path
         d="M -567.7754,585.8522 H 28.500601 V -9.4238027 H -567.7754 Z"
         id="path34333"
         style="stroke-width:0.999998" />
    </clipPath>
    <clipPath
       clipPathUnits="userSpaceOnUse"
       id="clipPath34337">
      <path
         d="M -574.5459,585.8522 H 21.730103 V -9.4238027 H -574.5459 Z"
         id="path34339"
         style="stroke-width:0.999998" />
    </clipPath>
    <clipPath
       clipPathUnits="userSpaceOnUse"
       id="clipPath34343">
      <path
         d="M -586.5449,579.5026 H 9.7311002 V -15.7734 H -586.5449 Z"
         id="path34345"
         style="stroke-width:0.999998" />
    </clipPath>
    <clipPath
       clipPathUnits="userSpaceOnUse"
       id="clipPath34349">
      <path
         d="M -556.4014,578.0143 H 39.874606 V -17.2617 H -556.4014 Z"
         id="path34351"
         style="stroke-width:0.999998" />
    </clipPath>
    <clipPath
       clipPathUnits="userSpaceOnUse"
       id="clipPath34356">
      <path
         d="M -538.2217,577.9479 H 58.054299 V -17.328098 H -538.2217 Z"
         id="path34358"
         style="stroke-width:0.999998" />
    </clipPath>
    <clipPath
       clipPathUnits="userSpaceOnUse"
       id="clipPath34362">
      <path
         d="M -550.2637,577.3248 H 46.012306 V -17.951198 H -550.2637 Z"
         id="path34364"
         style="stroke-width:0.999998" />
    </clipPath>
    <clipPath
       clipPathUnits="userSpaceOnUse"
       id="clipPath34368">
      <path
         d="M -572.8174,586.1354 H 23.458606 V -9.1406027 H -572.8174 Z"
         id="path34370"
         style="stroke-width:0.999998" />
    </clipPath>
    <clipPath
       clipPathUnits="userSpaceOnUse"
       id="clipPath34375">
      <path
         d="M -548.9834,585.8522 H 47.292601 V -9.4238027 H -548.9834 Z"
         id="path34377"
         style="stroke-width:0.999998" />
    </clipPath>
    <clipPath
       clipPathUnits="userSpaceOnUse"
       id="clipPath34381">
      <path
         d="M -564.5732,585.8483 H 31.702801 V -9.4277027 H -564.5732 Z"
         id="path34383"
         style="stroke-width:0.999998" />
    </clipPath>
    <clipPath
       clipPathUnits="userSpaceOnUse"
       id="clipPath34387">
      <path
         d="M -528.0898,575.3815 H 68.186199 V -19.8945 H -528.0898 Z"
         id="path34389"
         style="stroke-width:0.999998" />
    </clipPath>
    <clipPath
       clipPathUnits="userSpaceOnUse"
       id="clipPath34393">
      <path
         d="M -540.8213,585.8483 H 55.454701 V -9.4277027 H -540.8213 Z"
         id="path34395"
         style="stroke-width:0.999998" />
    </clipPath>
    <clipPath
       clipPathUnits="userSpaceOnUse"
       id="clipPath34399">
      <path
         d="M -568.2266,575.819 H 28.049401 V -19.457003 H -568.2266 Z"
         id="path34401"
         style="stroke-width:0.999998" />
    </clipPath>
    <clipPath
       clipPathUnits="userSpaceOnUse"
       id="clipPath34405">
      <path
         d="M -536.6982,584.5729 H 59.577804 V -10.7031 H -536.6982 Z"
         id="path34407"
         style="stroke-width:0.999998" />
    </clipPath>
    <clipPath
       clipPathUnits="userSpaceOnUse"
       id="clipPath34411">
      <path
         d="m -254.3525,250.9127 h 596.276 v -595.276 h -596.276 z"
         id="path34413"
         style="stroke-width:0.999998" />
    </clipPath>
    <clipPath
       clipPathUnits="userSpaceOnUse"
       id="clipPath34417">
      <path
         d="m -367.3643,335.3561 h 596.27601 v -595.276 H -367.3643 Z"
         id="path34419"
         style="stroke-width:0.999998" />
    </clipPath>
    <clipPath
       clipPathUnits="userSpaceOnUse"
       id="clipPath34423">
      <path
         d="m -227.9131,335.3561 h 596.276 v -595.276 h -596.276 z"
         id="path34425"
         style="stroke-width:0.999998" />
    </clipPath>
    <clipPath
       clipPathUnits="userSpaceOnUse"
       id="clipPath34429">
      <path
         d="m -363.5791,341.2721 h 596.276 v -595.276 h -596.276 z"
         id="path34431"
         style="stroke-width:0.999998" />
    </clipPath>
    <clipPath
       clipPathUnits="userSpaceOnUse"
       id="clipPath34435">
      <path
         d="M -584.1943,578.9381 H 12.081705 V -16.337903 H -584.1943 Z"
         id="path34437"
         style="stroke-width:0.999998" />
    </clipPath>
    <clipPath
       clipPathUnits="userSpaceOnUse"
       id="clipPath34441">
      <path
         d="M -531.1924,581.5885 H 65.083599 V -13.6875 H -531.1924 Z"
         id="path34443"
         style="stroke-width:0.999998" />
    </clipPath>
    <clipPath
       clipPathUnits="userSpaceOnUse"
       id="clipPath34447">
      <path
         d="M -545.417,584.5729 H 50.859001 V -10.7031 H -545.417 Z"
         id="path34449"
         style="stroke-width:0.999998" />
    </clipPath>
    <clipPath
       clipPathUnits="userSpaceOnUse"
       id="clipPath34453">
      <path
         d="M -557.4951,577.8502 H 38.780903 V -17.4258 H -557.4951 Z"
         id="path34455"
         style="stroke-width:0.999998" />
    </clipPath>
    <clipPath
       clipPathUnits="userSpaceOnUse"
       id="clipPath34459">
      <path
         d="M -542.9326,584.5729 H 53.343399 V -10.7031 H -542.9326 Z"
         id="path34461"
         style="stroke-width:0.999998" />
    </clipPath>
  </defs>
  <sodipodi:namedview
     id="namedview33754"
     pagecolor="#ffffff"
     bordercolor="#000000"
     borderopacity="0.25"
     inkscape:showpageshadow="2"
     inkscape:pageopacity="0.0"
     inkscape:pagecheckerboard="0"
     inkscape:deskcolor="#d1d1d1"
     showgrid="false"
     inkscape:zoom="0.29734106"
     inkscape:cx="-215.24105"
     inkscape:cy="396.85068"
     inkscape:window-width="1419"
     inkscape:window-height="456"
     inkscape:window-x="0"
     inkscape:window-y="25"
     inkscape:window-maximized="0"
     inkscape:current-layer="svg33752">
    <inkscape:page
       x="0"
       y="0"
       id="page33758"
       width="795.03467"
       height="793.70135" />
  </sodipodi:namedview>
  <path
     d="M 339.137 334.55 C 351.26 310.753 371.79 291.957 396.85 282.127 C 421.911 291.957 442.442 310.753 454.563 334.555 L 540.948 215.652 C 561.775 187.273 555.65 147.384 527.274 126.56 C 509.117 113.236 486.255 110.961 466.683 118.469 C 462.499 83.6053 432.841 56.5734 396.85 56.5734 C 360.861 56.5734 331.2 83.6053 327.017 118.469 C 307.446 110.961 284.584 113.236 266.429 126.56 C 238.052 147.384 231.927 187.273 252.752 215.652 Z"
     style="fill:#000000;fill-opacity:1;fill-rule:nonzero;stroke:none"
     id="path33872" />
  <path
     d="M 392.319 529.321 C 388.29 519.294 385.371 508.529 382.759 493.009 C 380.392 478.949 375.776 465.644 369.34 453.433 C 365.478 446.108 360.535 439.619 355.208 433.355 C 348.762 425.777 338.572 418.843 337.743 419.655 C 336.915 420.461 342.839 428.128 348.896 437.188 C 353.174 443.584 357.204 450.095 360.852 456.925 C 367.088 468.605 371.551 481.352 373.863 494.78 C 374.744 499.889 375.631 504.556 376.595 508.941 C 361.482 517.961 343.739 522.906 324.973 522.354 C 311.327 502.616 305.735 478.488 308.929 455.029 L 159.162 503.69 C 125.634 514.409 107.142 550.28 117.858 583.805 C 124.718 605.255 141.877 620.537 162.122 625.966 C 145.014 656.63 153.121 695.933 182.236 717.089 C 211.353 738.242 251.235 733.807 275.114 708.058 C 286.534 725.638 306.369 737.235 328.887 737.13 C 364.084 736.96 392.486 708.29 392.32 673.089 Z"
     style="fill:#000000;fill-opacity:1;fill-rule:nonzero;stroke:none"
     id="path33876" />
  <path
     d="M 303.884 447.141 C 277.483 434.146 257.272 410.502 248.876 381.8 C 267.735 356.556 297.579 340.001 331.321 339.212 L 245.419 220.979 C 224.864 192.403 185.036 185.902 156.462 206.455 C 138.182 219.607 128.951 240.646 130.043 261.579 C 95.5925 254.783 60.7179 274.639 49.5966 308.868 C 38.4753 343.097 55.018 379.657 86.8845 394.406 C 73.6939 410.704 68.7966 433.146 75.8566 454.534 C 86.8925 487.956 122.936 506.108 156.362 495.073 Z"
     style="fill:#000000;fill-opacity:1;fill-rule:nonzero;stroke:none"
     id="path33880" />
  <path
     d="M 484.772 455.029 C 487.965 478.488 482.375 502.614 468.728 522.354 C 456.452 522.714 444.627 520.698 433.676 516.756 C 429.351 506.584 426.956 495.396 426.956 483.636 C 426.955 466.644 431.956 450.826 440.569 437.568 C 444.936 430.844 451.744 422.633 456.237 418.286 C 464.339 410.445 473.3 403.933 472.695 403.226 C 472.091 402.521 461.464 404.436 451.271 412.798 C 445.604 417.45 437.824 425.169 432.997 432.592 C 423.445 447.281 417.895 464.813 417.895 483.636 C 417.896 506.794 426.849 529.171 440.208 544.343 C 456.004 562.283 469.229 569.425 476.932 574.562 L 447.12 595.094 C 440.799 590.695 435.009 586.165 429.737 581.487 C 417.782 570.893 408.419 559.562 401.382 547.742 L 401.383 673.088 C 401.215 708.288 429.616 736.96 464.812 737.13 C 487.332 737.231 507.167 725.635 518.585 708.059 C 542.464 733.807 582.349 738.242 611.466 717.088 C 640.581 695.932 648.689 656.63 631.577 625.966 C 651.826 620.537 668.984 605.255 675.844 583.805 C 686.558 550.279 668.069 514.409 634.538 503.688 Z"
     style="fill:#000000;fill-opacity:1;fill-rule:nonzero;stroke:none"
     id="path33884" />
  <path
     d="M 489.819 447.141 C 516.216 434.146 536.43 410.502 544.824 381.8 C 525.966 356.556 496.123 340.003 462.379 339.212 L 548.28 220.979 C 568.837 192.403 608.665 185.902 637.239 206.454 C 655.521 219.607 664.749 240.643 663.659 261.581 C 698.109 254.783 732.981 274.639 744.104 308.865 C 755.225 343.095 738.681 379.657 706.817 394.409 C 720.004 410.704 724.902 433.146 717.845 454.534 C 706.809 487.956 670.765 506.108 637.34 495.07 Z"
     style="fill:#000000;fill-opacity:1;fill-rule:nonzero;stroke:none"
     id="path33888" />
</svg>
