<?xml version="1.0" encoding="UTF-8" standalone="no"?>
<!-- Created with Inkscape (http://www.inkscape.org/) -->

<svg
   version="1.1"
   id="svg31426"
   width="795.03467"
   height="793.70135"
   viewBox="0 0 795.03467 793.70135"
   sodipodi:docname="Fusenryo Karabana.svg"
   inkscape:version="1.2 (dc2aeda, 2022-05-15)"
   xmlns:inkscape="http://www.inkscape.org/namespaces/inkscape"
   xmlns:sodipodi="http://sodipodi.sourceforge.net/DTD/sodipodi-0.dtd"
   xmlns="http://www.w3.org/2000/svg"
   xmlns:svg="http://www.w3.org/2000/svg">
  <defs
     id="defs31430">
    <clipPath
       clipPathUnits="userSpaceOnUse"
       id="clipPath32339">
      <path
         d="M -557.4951,577.8502 H 38.780903 V -17.4258 H -557.4951 Z"
         id="path32341"
         style="stroke-width:0.999998" />
    </clipPath>
    <clipPath
       clipPathUnits="userSpaceOnUse"
       id="clipPath32345">
      <path
         d="m -439.8311,101.9279 h 596.276 v -595.276 h -596.276 z"
         id="path32347"
         style="stroke-width:0.999998" />
    </clipPath>
    <clipPath
       clipPathUnits="userSpaceOnUse"
       id="clipPath32351">
      <path
         d="M -568.2266,575.819 H 28.049401 V -19.457003 H -568.2266 Z"
         id="path32353"
         style="stroke-width:0.999998" />
    </clipPath>
    <clipPath
       clipPathUnits="userSpaceOnUse"
       id="clipPath32357">
      <path
         d="M -557.0869,209.965 H 39.189106 V -385.311 H -557.0869 Z"
         id="path32359"
         style="stroke-width:0.999998" />
    </clipPath>
    <clipPath
       clipPathUnits="userSpaceOnUse"
       id="clipPath32363">
      <path
         d="M -564.5732,585.8483 H 31.702801 V -9.4277027 H -564.5732 Z"
         id="path32365"
         style="stroke-width:0.999998" />
    </clipPath>
    <clipPath
       clipPathUnits="userSpaceOnUse"
       id="clipPath32369">
      <path
         d="m -139.2744,521.069 h 596.276 V -74.206997 h -596.276 z"
         id="path32371"
         style="stroke-width:0.999998" />
    </clipPath>
    <clipPath
       clipPathUnits="userSpaceOnUse"
       id="clipPath32375">
      <path
         d="m -38.1895,209.9669 h 596.276 v -595.276 h -596.276 z"
         id="path32377"
         style="stroke-width:0.999998" />
    </clipPath>
    <clipPath
       clipPathUnits="userSpaceOnUse"
       id="clipPath32381">
      <path
         d="m -300.8486,159.4152 h 596.276 v -595.276 h -596.276 z"
         id="path32383"
         style="stroke-width:0.999998" />
    </clipPath>
    <clipPath
       clipPathUnits="userSpaceOnUse"
       id="clipPath32387">
      <path
         d="M -536.6982,584.5729 H 59.577804 V -10.7031 H -536.6982 Z"
         id="path32389"
         style="stroke-width:0.999998" />
    </clipPath>
    <clipPath
       clipPathUnits="userSpaceOnUse"
       id="clipPath32393">
      <path
         d="M -540.8213,585.8483 H 55.454701 V -9.4277027 H -540.8213 Z"
         id="path32395"
         style="stroke-width:0.999998" />
    </clipPath>
    <clipPath
       clipPathUnits="userSpaceOnUse"
       id="clipPath32399">
      <path
         d="M -542.9326,584.5729 H 53.343399 V -10.7031 H -542.9326 Z"
         id="path32401"
         style="stroke-width:0.999998" />
    </clipPath>
    <clipPath
       clipPathUnits="userSpaceOnUse"
       id="clipPath32405">
      <path
         d="m -67.5664,372.3951 h 596.276 v -595.276 h -596.276 z"
         id="path32407"
         style="stroke-width:0.999998" />
    </clipPath>
    <clipPath
       clipPathUnits="userSpaceOnUse"
       id="clipPath32411">
      <path
         d="m -139.8174,415.7174 h 596.276 v -595.276 h -596.276 z"
         id="path32413"
         style="stroke-width:0.999998" />
    </clipPath>
    <clipPath
       clipPathUnits="userSpaceOnUse"
       id="clipPath32418">
      <path
         d="M -567.7754,585.8522 H 28.500601 V -9.4238027 H -567.7754 Z"
         id="path32420"
         style="stroke-width:0.999998" />
    </clipPath>
    <clipPath
       clipPathUnits="userSpaceOnUse"
       id="clipPath32424">
      <path
         d="m -456.0049,521.069 h 596.276 V -74.206997 h -596.276 z"
         id="path32426"
         style="stroke-width:0.999998" />
    </clipPath>
    <clipPath
       clipPathUnits="userSpaceOnUse"
       id="clipPath32430">
      <path
         d="M -561.4131,585.8522 H 34.862903 V -9.4238027 H -561.4131 Z"
         id="path32432"
         style="stroke-width:0.999998" />
    </clipPath>
    <clipPath
       clipPathUnits="userSpaceOnUse"
       id="clipPath32436">
      <path
         d="M -548.9834,585.8522 H 47.292601 V -9.4238027 H -548.9834 Z"
         id="path32438"
         style="stroke-width:0.999998" />
    </clipPath>
    <clipPath
       clipPathUnits="userSpaceOnUse"
       id="clipPath32442">
      <path
         d="m -213.7979,407.5787 h 596.276 v -595.276 h -596.276 z"
         id="path32444"
         style="stroke-width:0.999998" />
    </clipPath>
    <clipPath
       clipPathUnits="userSpaceOnUse"
       id="clipPath32448">
      <path
         d="m -305.2959,400.4108 h 596.276 v -595.276 h -596.276 z"
         id="path32450"
         style="stroke-width:0.999998" />
    </clipPath>
    <clipPath
       clipPathUnits="userSpaceOnUse"
       id="clipPath32454">
      <path
         d="M -545.417,584.5729 H 50.859001 V -10.7031 H -545.417 Z"
         id="path32456"
         style="stroke-width:0.999998" />
    </clipPath>
    <clipPath
       clipPathUnits="userSpaceOnUse"
       id="clipPath32460">
      <path
         d="M -557.0645,585.8483 H 39.211501 V -9.4277027 H -557.0645 Z"
         id="path32462"
         style="stroke-width:0.999998" />
    </clipPath>
    <clipPath
       clipPathUnits="userSpaceOnUse"
       id="clipPath32466">
      <path
         d="m -376.29,411.3522 h 596.276 v -595.276 H -376.29 Z"
         id="path32468"
         style="stroke-width:0.999998" />
    </clipPath>
    <clipPath
       clipPathUnits="userSpaceOnUse"
       id="clipPath32472">
      <path
         d="m -397.748,322.1158 h 596.276 v -595.276 h -596.276 z"
         id="path32474"
         style="stroke-width:0.999998" />
    </clipPath>
    <clipPath
       clipPathUnits="userSpaceOnUse"
       id="clipPath32478">
      <path
         d="m -430.0918,257.9767 h 596.276 v -595.276 h -596.276 z"
         id="path32480"
         style="stroke-width:0.999998" />
    </clipPath>
    <clipPath
       clipPathUnits="userSpaceOnUse"
       id="clipPath32484">
      <path
         d="M -553.8975,585.8483 H 42.378504 V -9.4277027 H -553.8975 Z"
         id="path32486"
         style="stroke-width:0.999998" />
    </clipPath>
    <clipPath
       clipPathUnits="userSpaceOnUse"
       id="clipPath32490">
      <path
         d="M -559.0713,216.0685 H 37.204703 v -595.276 H -559.0713 Z"
         id="path32492"
         style="stroke-width:0.999998" />
    </clipPath>
    <clipPath
       clipPathUnits="userSpaceOnUse"
       id="clipPath32496">
      <path
         d="M -134.083,517.2975 H 462.193 V -77.978499 h -596.276 z"
         id="path32498"
         style="stroke-width:0.999998" />
    </clipPath>
    <clipPath
       clipPathUnits="userSpaceOnUse"
       id="clipPath32502">
      <path
         d="m -231.0381,218.9952 h 596.276 v -595.276 h -596.276 z"
         id="path32504"
         style="stroke-width:0.999998" />
    </clipPath>
    <clipPath
       clipPathUnits="userSpaceOnUse"
       id="clipPath32508">
      <path
         d="m -167.1719,251.8741 h 596.276 v -595.276 h -596.276 z"
         id="path32510"
         style="stroke-width:0.999998" />
    </clipPath>
    <clipPath
       clipPathUnits="userSpaceOnUse"
       id="clipPath32514">
      <path
         d="m -202.2646,336.6783 h 596.276 v -595.276 h -596.276 z"
         id="path32516"
         style="stroke-width:0.999998" />
    </clipPath>
    <clipPath
       clipPathUnits="userSpaceOnUse"
       id="clipPath32520">
      <path
         d="m -36.208,216.0695 h 596.276 v -595.276 H -36.208 Z"
         id="path32522"
         style="stroke-width:0.999998" />
    </clipPath>
    <clipPath
       clipPathUnits="userSpaceOnUse"
       id="clipPath32526">
      <path
         d="m -300.8467,23.795 h 596.276 v -595.276 h -596.276 z"
         id="path32528"
         style="stroke-width:0.999998" />
    </clipPath>
    <clipPath
       clipPathUnits="userSpaceOnUse"
       id="clipPath32532">
      <path
         d="M -528.0898,575.3815 H 68.186199 V -19.8945 H -528.0898 Z"
         id="path32534"
         style="stroke-width:0.999998" />
    </clipPath>
    <clipPath
       clipPathUnits="userSpaceOnUse"
       id="clipPath32538">
      <path
         d="m -355.915,109.3478 h 596.276 v -595.276 h -596.276 z"
         id="path32540"
         style="stroke-width:0.999998" />
    </clipPath>
    <clipPath
       clipPathUnits="userSpaceOnUse"
       id="clipPath32544">
      <path
         d="M -531.1924,581.5885 H 65.083599 V -13.6875 H -531.1924 Z"
         id="path32546"
         style="stroke-width:0.999998" />
    </clipPath>
    <clipPath
       clipPathUnits="userSpaceOnUse"
       id="clipPath32550">
      <path
         d="M -572.8174,586.1354 H 23.458606 V -9.1406027 H -572.8174 Z"
         id="path32552"
         style="stroke-width:0.999998" />
    </clipPath>
    <clipPath
       clipPathUnits="userSpaceOnUse"
       id="clipPath32556">
      <path
         d="M -576.3691,585.5885 H 19.906905 V -9.6875027 H -576.3691 Z"
         id="path32558"
         style="stroke-width:0.999998" />
    </clipPath>
    <clipPath
       clipPathUnits="userSpaceOnUse"
       id="clipPath32562">
      <path
         d="M -574.5459,585.8522 H 21.730103 V -9.4238027 H -574.5459 Z"
         id="path32564"
         style="stroke-width:0.999998" />
    </clipPath>
    <clipPath
       clipPathUnits="userSpaceOnUse"
       id="clipPath32568">
      <path
         d="m -155.4463,101.9279 h 596.276 v -595.276 h -596.276 z"
         id="path32570"
         style="stroke-width:0.999998" />
    </clipPath>
    <clipPath
       clipPathUnits="userSpaceOnUse"
       id="clipPath32574">
      <path
         d="M -550.2637,577.3248 H 46.012306 V -17.951198 H -550.2637 Z"
         id="path32576"
         style="stroke-width:0.999998" />
    </clipPath>
    <clipPath
       clipPathUnits="userSpaceOnUse"
       id="clipPath32580">
      <path
         d="M -584.1943,578.9381 H 12.081705 V -16.337903 H -584.1943 Z"
         id="path32582"
         style="stroke-width:0.999998" />
    </clipPath>
    <clipPath
       clipPathUnits="userSpaceOnUse"
       id="clipPath32586">
      <path
         d="m -323.5332,297.6388 h 596.276 v -595.276 h -596.276 z"
         id="path32588"
         style="stroke-width:0.999998" />
    </clipPath>
    <clipPath
       clipPathUnits="userSpaceOnUse"
       id="clipPath32592">
      <path
         d="M -538.2217,577.9479 H 58.054299 V -17.328098 H -538.2217 Z"
         id="path32594"
         style="stroke-width:0.999998" />
    </clipPath>
    <clipPath
       clipPathUnits="userSpaceOnUse"
       id="clipPath32598">
      <path
         d="M -586.5449,579.5026 H 9.7311002 V -15.7734 H -586.5449 Z"
         id="path32600"
         style="stroke-width:0.999998" />
    </clipPath>
    <clipPath
       clipPathUnits="userSpaceOnUse"
       id="clipPath32604">
      <path
         d="m -136.5713,184.0304 h 596.276 v -595.276 h -596.276 z"
         id="path32606"
         style="stroke-width:0.999998" />
    </clipPath>
    <clipPath
       clipPathUnits="userSpaceOnUse"
       id="clipPath32610">
      <path
         d="M -294.4297,23.797 H 301.84631 V -571.479 H -294.4297 Z"
         id="path32612"
         style="stroke-width:0.999998" />
    </clipPath>
    <clipPath
       clipPathUnits="userSpaceOnUse"
       id="clipPath32616">
      <path
         d="m -361.167,484.2233 h 596.276 v -595.276 h -596.276 z"
         id="path32618"
         style="stroke-width:0.999998" />
    </clipPath>
    <clipPath
       clipPathUnits="userSpaceOnUse"
       id="clipPath32622">
      <path
         d="m -351.8535,209.9943 h 596.276 v -595.276 h -596.276 z"
         id="path32624"
         style="stroke-width:0.999998" />
    </clipPath>
    <clipPath
       clipPathUnits="userSpaceOnUse"
       id="clipPath32628">
      <path
         d="m -297.6387,539.5514 h 596.276 V -55.724596 h -596.276 z"
         id="path32630"
         style="stroke-width:0.999998" />
    </clipPath>
    <clipPath
       clipPathUnits="userSpaceOnUse"
       id="clipPath32635">
      <path
         d="M -556.4014,578.0143 H 39.874606 V -17.2617 H -556.4014 Z"
         id="path32637"
         style="stroke-width:0.999998" />
    </clipPath>
    <clipPath
       clipPathUnits="userSpaceOnUse"
       id="clipPath32641">
      <path
         d="M -461.1963,517.2975 H 135.07971 V -77.978499 H -461.1963 Z"
         id="path32643"
         style="stroke-width:0.999998" />
    </clipPath>
    <clipPath
       clipPathUnits="userSpaceOnUse"
       id="clipPath32647">
      <path
         d="M -527.7109,372.3951 H 68.565099 v -595.276 H -527.7109 Z"
         id="path32649"
         style="stroke-width:0.999998" />
    </clipPath>
    <clipPath
       clipPathUnits="userSpaceOnUse"
       id="clipPath32653">
      <path
         d="m -494.7227,294.879 h 596.276 v -595.276 h -596.276 z"
         id="path32655"
         style="stroke-width:0.999998" />
    </clipPath>
  </defs>
  <sodipodi:namedview
     id="namedview31428"
     pagecolor="#ffffff"
     bordercolor="#000000"
     borderopacity="0.25"
     inkscape:showpageshadow="2"
     inkscape:pageopacity="0.0"
     inkscape:pagecheckerboard="0"
     inkscape:deskcolor="#d1d1d1"
     showgrid="false"
     inkscape:zoom="0.29734106"
     inkscape:cx="-215.24105"
     inkscape:cy="396.85068"
     inkscape:window-width="1419"
     inkscape:window-height="456"
     inkscape:window-x="0"
     inkscape:window-y="25"
     inkscape:window-maximized="0"
     inkscape:current-layer="svg31426">
    <inkscape:page
       x="0"
       y="0"
       id="page31432"
       width="795.03467"
       height="793.70135" />
  </sodipodi:namedview>
  <path
     d="M 431.378 396.852 C 431.378 415.92 415.919 431.379 396.851 431.379 C 377.783 431.379 362.325 415.92 362.325 396.852 C 362.325 377.784 377.783 362.325 396.851 362.325 C 415.919 362.325 431.378 377.784 431.378 396.852"
     style="fill:#000000;fill-opacity:1;fill-rule:nonzero;stroke:none"
     id="path31546" />
  <path
     d="M 396.852 719.402 C 374.533 719.402 356.427 737.43 356.293 759.722 C 369.613 761.194 383.14 761.975 396.852 761.975 C 410.564 761.975 424.092 761.194 437.411 759.722 C 437.276 737.43 419.172 719.402 396.852 719.402"
     style="fill:#000000;fill-opacity:1;fill-rule:nonzero;stroke:none"
     id="path31550" />
  <path
     d="M 481.556 645.631 C 481.556 627.087 466.523 612.052 447.979 612.052 C 442.797 612.052 437.889 613.227 433.507 615.326 C 428.62 599.73 414.056 588.415 396.852 588.415 C 379.647 588.415 365.084 599.73 360.196 615.326 C 355.814 613.227 350.908 612.052 345.726 612.052 C 327.182 612.052 312.147 627.087 312.147 645.631 C 312.147 660.951 317.802 669.508 325.043 677.082 C 333.514 685.936 353.323 707.538 366.182 721.604 C 373.543 715.712 382.632 711.896 392.571 711.038 L 392.571 676.664 C 392.571 674.298 394.487 672.383 396.851 672.383 C 399.214 672.383 401.13 674.298 401.13 676.664 L 401.13 711.038 C 411.071 711.894 420.16 715.709 427.523 721.604 C 440.38 707.538 460.191 685.936 468.66 677.082 C 475.903 669.508 481.556 660.951 481.556 645.631"
     style="fill:#000000;fill-opacity:1;fill-rule:nonzero;stroke:none"
     id="path31554" />
  <path
     d="M 469.138 279.992 C 469.138 262.799 455.198 248.856 438.002 248.856 C 435.555 248.856 433.181 249.148 430.898 249.683 C 428.17 233.337 413.97 220.875 396.852 220.875 C 379.733 220.875 365.533 233.337 362.805 249.683 C 360.522 249.148 358.148 248.856 355.701 248.856 C 338.505 248.856 324.565 262.799 324.565 279.992 C 324.565 290.044 329.11 296.325 334.926 304.339 L 375.113 359.653 C 380.333 356.594 386.249 354.598 392.57 353.973 L 392.57 314.363 C 392.57 311.997 394.488 310.083 396.85 310.083 C 399.214 310.083 401.129 311.997 401.129 314.363 L 401.129 353.973 C 407.451 354.598 413.369 356.594 418.59 359.653 L 458.778 304.339 C 464.594 296.325 469.138 290.044 469.138 279.992"
     style="fill:#000000;fill-opacity:1;fill-rule:nonzero;stroke:none"
     id="path31558" />
  <path
     d="M 401.131 212.554 L 401.13 182.631 C 401.147 172.469 409.368 164.247 419.531 164.23 C 426.33 164.227 432.298 167.842 435.362 173.249 C 436.035 174.389 436.634 176.487 436.618 178.637 C 436.615 178.81 436.596 178.979 436.588 179.151 C 436.128 179.066 435.658 179.006 435.172 179.006 C 431.059 179.006 427.834 182.331 427.834 186.443 C 427.834 190.557 431.754 194.19 436.02 193.851 C 444.871 192.654 446.023 184.753 445.548 178.637 C 445.255 174.835 444.344 171.749 442.803 169.015 C 438.198 160.905 429.384 155.673 419.531 155.67 C 410.003 155.67 401.646 160.617 396.85 168.074 C 392.054 160.615 383.696 155.67 374.167 155.67 C 364.314 155.673 355.5 160.905 350.896 169.015 C 349.355 171.749 348.443 174.835 348.15 178.637 C 347.675 184.753 348.828 192.654 357.678 193.851 C 361.944 194.19 365.866 190.557 365.866 186.443 C 365.866 182.331 362.639 179.006 358.526 179.006 C 358.04 179.006 357.57 179.066 357.11 179.151 C 357.103 178.979 357.083 178.81 357.08 178.637 C 357.064 176.487 357.664 174.389 358.336 173.249 C 361.402 167.842 367.368 164.227 374.167 164.23 C 384.331 164.247 392.552 172.469 392.568 182.631 L 392.568 212.554 C 393.98 212.415 395.403 212.318 396.851 212.315 C 398.298 212.318 399.72 212.415 401.131 212.554"
     style="fill:#000000;fill-opacity:1;fill-rule:nonzero;stroke:none"
     id="path31562" />
  <path
     d="M 185.699 694.759 C 232.694 728.131 287.933 750.639 347.756 758.68 C 347.887 753.628 348.777 748.772 350.321 744.212 C 336.125 740.554 322.579 735.275 309.909 728.564 C 307.819 727.456 307.021 724.866 308.129 722.78 C 309.235 720.688 311.824 719.895 313.912 720.999 C 326.404 727.616 339.777 732.778 353.813 736.275 C 355.544 733.139 357.611 730.218 359.959 727.546 C 346.467 712.944 310.496 674.016 303.261 666.272 C 294.319 656.699 285.832 654.035 275.295 654.035 C 254.873 654.035 238.18 669.994 237 690.123 L 226.454 683.988 C 212.223 675.704 193.976 680.53 185.699 694.759"
     style="fill:#000000;fill-opacity:1;fill-rule:nonzero;stroke:none"
     id="path31566" />
  <path
     d="M 608.007 694.759 C 561.012 728.131 505.773 750.639 445.95 758.68 C 445.819 753.628 444.929 748.772 443.385 744.212 C 457.581 740.554 471.127 735.275 483.797 728.564 C 485.887 727.456 486.685 724.866 485.577 722.78 C 484.471 720.688 481.882 719.895 479.794 720.999 C 467.302 727.616 453.929 732.778 439.893 736.275 C 438.162 733.139 436.095 730.218 433.747 727.546 C 447.239 712.944 483.21 674.016 490.445 666.272 C 499.387 656.699 507.874 654.035 518.411 654.035 C 538.833 654.035 555.526 669.994 556.706 690.123 L 567.252 683.988 C 581.483 675.704 599.73 680.53 608.007 694.759"
     style="fill:#000000;fill-opacity:1;fill-rule:nonzero;stroke:none"
     id="path31570" />
  <path
     d="M 703.615 496.527 C 696.718 517.754 708.27 540.546 729.427 547.558 C 734.944 535.347 739.867 522.722 744.104 509.683 C 748.342 496.642 751.779 483.535 754.494 470.412 C 733.254 463.652 710.514 475.298 703.615 496.527"
     style="fill:#000000;fill-opacity:1;fill-rule:nonzero;stroke:none"
     id="path31574" />
  <path
     d="M 659.63 393.172 C 641.991 387.44 623.049 397.092 617.319 414.728 C 615.717 419.657 615.319 424.688 615.959 429.504 C 599.617 429.332 584.354 439.685 579.038 456.048 C 573.721 472.412 579.984 489.758 593.305 499.225 C 589.956 502.745 587.324 507.05 585.721 511.977 C 579.992 529.616 589.642 548.558 607.279 554.289 C 621.849 559.021 631.735 556.289 641.175 551.742 C 652.213 546.422 678.881 534.258 696.231 526.376 C 692.902 517.553 692.082 507.729 694.337 498.013 L 661.647 487.392 C 659.395 486.66 658.167 484.245 658.897 481.998 C 659.627 479.75 662.041 478.521 664.291 479.25 L 696.982 489.873 C 700.869 480.682 707.306 473.217 715.186 468.037 C 705.782 451.461 691.358 425.947 685.555 415.155 C 680.591 405.928 674.199 397.905 659.63 393.172"
     style="fill:#000000;fill-opacity:1;fill-rule:nonzero;stroke:none"
     id="path31578" />
  <path
     d="M 614.928 689.73 C 661.188 655.347 699.664 609.766 725.797 555.356 C 721.034 553.673 716.689 551.324 712.83 548.446 C 704.965 560.816 695.758 572.069 685.46 582.042 C 683.762 583.692 681.052 583.646 679.411 581.949 C 677.764 580.252 677.807 577.545 679.504 575.9 C 689.656 566.064 698.697 554.941 706.361 542.673 C 703.914 540.058 701.773 537.189 699.958 534.129 C 681.901 542.449 633.765 564.632 624.164 569.118 C 612.296 574.665 607.14 581.913 603.884 591.933 C 597.572 611.356 607.592 632.162 626.371 639.506 L 617.277 647.639 C 605.003 658.615 603.952 677.459 614.928 689.73"
     style="fill:#000000;fill-opacity:1;fill-rule:nonzero;stroke:none"
     id="path31582" />
  <path
     d="M 745.428 288.091 C 762.644 343.098 766.98 402.589 756.141 461.969 C 751.297 460.532 746.401 459.877 741.588 459.937 C 742.497 445.308 741.663 430.792 739.193 416.667 C 738.789 414.339 736.569 412.779 734.244 413.188 C 731.913 413.593 730.357 415.811 730.763 418.139 C 733.195 432.063 733.972 446.375 732.961 460.805 C 729.445 461.481 726.025 462.544 722.76 463.953 C 713.041 446.609 687.136 400.369 682.007 391.096 C 675.666 379.632 675.755 370.737 679.011 360.717 C 685.321 341.294 705.657 330.351 725.165 335.448 L 722.589 323.522 C 719.111 307.427 729.336 291.564 745.428 288.091"
     style="fill:#000000;fill-opacity:1;fill-rule:nonzero;stroke:none"
     id="path31586" />
  <path
     d="M 586.441 135.904 C 604.498 149.024 629.745 145.081 642.953 127.125 C 633.042 118.104 622.558 109.521 611.466 101.463 C 600.372 93.4028 588.969 86.0841 577.328 79.4455 C 564.334 97.5574 568.385 122.784 586.441 135.904"
     style="fill:#000000;fill-opacity:1;fill-rule:nonzero;stroke:none"
     id="path31590" />
  <path
     d="M 474.553 145.797 C 463.652 160.802 466.978 181.8 481.98 192.7 C 486.173 195.746 490.834 197.68 495.613 198.558 C 490.4 214.047 495.53 231.763 509.449 241.875 C 523.368 251.989 541.802 251.393 554.921 241.65 C 557.234 245.922 560.514 249.755 564.705 252.802 C 579.707 263.703 600.706 260.378 611.607 245.374 C 620.611 232.981 621.069 222.734 619.661 212.35 C 618.013 200.209 614.683 171.089 612.549 152.15 C 603.13 152.592 593.533 150.336 584.989 145.188 L 564.785 172.994 C 563.394 174.91 560.718 175.332 558.806 173.944 C 556.894 172.554 556.47 169.881 557.861 167.965 L 578.065 140.157 C 570.525 133.62 565.414 125.19 562.922 116.097 C 544.251 119.917 515.528 125.75 503.472 127.936 C 493.161 129.805 483.558 133.404 474.553 145.797"
     style="fill:#000000;fill-opacity:1;fill-rule:nonzero;stroke:none"
     id="path31594" />
  <path
     d="M 742.783 279.953 C 724.379 225.332 692.919 174.655 649.249 132.985 C 646.174 136.995 642.598 140.403 638.669 143.183 C 648.003 154.485 655.861 166.719 662.165 179.596 C 663.206 181.719 662.327 184.284 660.205 185.32 C 658.082 186.363 655.521 185.484 654.479 183.363 C 648.262 170.667 640.478 158.632 631.178 147.552 C 627.935 149.071 624.546 150.221 621.077 151 C 623.407 170.745 629.63 223.38 630.929 233.898 C 632.537 246.898 637.838 254.041 646.362 260.237 C 662.883 272.24 685.768 269.141 698.555 253.55 L 703.479 264.713 C 710.126 279.778 727.723 286.601 742.783 279.953"
     style="fill:#000000;fill-opacity:1;fill-rule:nonzero;stroke:none"
     id="path31598" />
  <path
     d="M 401.129 31.7267 C 458.765 32.352 516.683 46.612 569.809 75.2693 C 566.943 79.4319 564.81 83.8852 563.379 88.4812 C 549.745 83.0959 535.682 79.4066 521.487 77.3879 C 519.146 77.0546 516.978 78.6826 516.649 81.0212 C 516.314 83.3626 517.939 85.5279 520.279 85.8626 C 534.274 87.8519 548.127 91.5346 561.539 96.9559 C 561.097 100.509 561.049 104.088 561.379 107.631 C 541.881 111.513 489.899 121.862 479.494 123.874 C 466.633 126.365 458.202 123.53 449.677 117.337 C 433.157 105.333 429.032 82.6106 439.908 65.6333 L 427.769 64.3973 C 411.388 62.732 399.461 48.1053 401.129 31.7267"
     style="fill:#000000;fill-opacity:1;fill-rule:nonzero;stroke:none"
     id="path31602" />
  <path
     d="M 207.262 135.904 C 225.319 122.785 229.37 97.5561 216.375 79.4455 C 204.734 86.0841 193.331 93.4028 182.238 101.461 C 171.145 109.521 160.661 118.105 150.75 127.125 C 163.961 145.08 189.205 149.023 207.262 135.904"
     style="fill:#000000;fill-opacity:1;fill-rule:nonzero;stroke:none"
     id="path31606" />
  <path
     d="M 182.095 245.374 C 192.996 260.378 213.996 263.703 228.998 252.803 C 233.19 249.758 236.468 245.922 238.783 241.649 C 251.901 251.394 270.337 251.987 284.255 241.875 C 298.173 231.763 303.304 214.047 298.091 198.559 C 302.869 197.679 307.528 195.745 311.721 192.701 C 326.724 181.799 330.051 160.802 319.151 145.797 C 310.145 133.404 300.541 129.804 290.232 127.934 C 278.176 125.75 249.451 119.917 230.78 116.094 C 228.29 125.189 223.179 133.62 215.642 140.154 L 235.846 167.964 C 237.236 169.878 236.811 172.553 234.9 173.942 C 232.988 175.332 230.312 174.909 228.922 172.993 L 208.718 145.185 C 200.172 150.337 190.575 152.592 181.155 152.152 C 179.019 171.089 175.691 200.209 174.043 212.349 C 172.635 222.735 173.091 232.979 182.095 245.374"
     style="fill:#000000;fill-opacity:1;fill-rule:nonzero;stroke:none"
     id="path31610" />
  <path
     d="M 392.573 31.7293 C 334.937 32.3533 277.02 46.6146 223.895 75.2705 C 226.759 79.4332 228.893 83.8865 230.323 88.4825 C 243.957 83.0985 258.02 79.4065 272.215 77.3892 C 274.556 77.0545 276.724 78.6838 277.053 81.0225 C 277.388 83.3652 275.763 85.5292 273.423 85.8625 C 259.428 87.8518 245.576 91.5358 232.163 96.9585 C 232.605 100.51 232.653 104.089 232.323 107.63 C 251.821 111.516 303.803 121.862 314.208 123.877 C 327.068 126.365 335.5 123.532 344.025 117.338 C 360.546 105.334 364.672 82.6118 353.796 65.6332 L 365.933 64.3986 C 382.316 62.7346 394.241 48.1066 392.573 31.7293"
     style="fill:#000000;fill-opacity:1;fill-rule:nonzero;stroke:none"
     id="path31614" />
  <path
     d="M 50.9193 279.956 C 69.3233 225.333 100.783 174.656 144.454 132.987 C 147.528 136.998 151.106 140.404 155.034 143.186 C 145.699 154.487 137.842 166.72 131.538 179.598 C 130.496 181.722 131.375 184.287 133.498 185.322 C 135.62 186.366 138.182 185.486 139.223 183.366 C 145.44 170.67 153.224 158.634 162.523 147.552 C 165.767 149.072 169.158 150.222 172.627 151.003 C 170.295 170.748 164.074 223.383 162.774 233.9 C 161.166 246.901 155.864 254.044 147.34 260.237 C 130.819 272.24 107.934 269.143 95.1485 253.552 L 90.2232 264.713 C 83.5766 279.779 65.9806 286.601 50.9193 279.956"
     style="fill:#000000;fill-opacity:1;fill-rule:nonzero;stroke:none"
     id="path31618" />
  <path
     d="M 90.0885 496.527 C 83.1912 475.298 60.4499 463.65 39.21 470.412 C 41.9246 483.535 45.3619 496.642 49.5993 509.68 C 53.8366 522.722 58.7606 535.347 64.2766 547.558 C 85.4352 540.543 96.9845 517.754 90.0885 496.527"
     style="fill:#000000;fill-opacity:1;fill-rule:nonzero;stroke:none"
     id="path31622" />
  <path
     d="M 186.423 554.29 C 204.062 548.558 213.714 529.613 207.983 511.978 C 206.382 507.05 203.746 502.746 200.398 499.225 C 213.72 489.759 219.982 472.41 214.666 456.048 C 209.348 439.686 194.086 429.332 177.744 429.504 C 178.386 424.689 177.984 419.66 176.384 414.73 C 170.655 397.094 151.711 387.441 134.074 393.17 C 119.505 397.905 113.113 405.929 108.147 415.154 C 102.345 425.946 87.9206 451.462 78.5153 468.038 C 86.3953 473.217 92.8339 480.684 96.7206 489.871 L 129.411 479.249 C 131.662 478.517 134.074 479.749 134.804 481.996 C 135.535 484.244 134.307 486.657 132.055 487.386 L 99.3646 498.009 C 101.622 507.727 100.802 517.553 97.4726 526.375 C 114.823 534.259 141.491 546.423 152.527 551.743 C 161.968 556.29 171.852 559.022 186.423 554.29"
     style="fill:#000000;fill-opacity:1;fill-rule:nonzero;stroke:none"
     id="path31626" />
  <path
     d="M 48.2773 288.093 C 31.06 343.1 26.7254 402.59 37.5627 461.973 C 42.4066 460.535 47.3026 459.878 52.1146 459.941 C 51.2066 445.309 52.0413 430.795 54.5093 416.67 C 54.916 414.339 57.1346 412.782 59.4599 413.191 C 61.7906 413.597 63.3466 415.814 62.9399 418.142 C 60.5093 432.066 59.7319 446.378 60.7439 460.809 C 64.2586 461.485 67.6773 462.547 70.9426 463.957 C 80.6626 446.613 106.568 400.373 111.697 391.099 C 118.037 379.635 117.949 370.739 114.694 360.719 C 108.382 341.297 88.0465 330.352 68.5386 335.45 L 71.1159 323.525 C 74.5946 307.43 64.3666 291.568 48.2773 288.093"
     style="fill:#000000;fill-opacity:1;fill-rule:nonzero;stroke:none"
     id="path31630" />
  <path
     d="M 178.777 689.73 C 132.516 655.35 94.0399 609.766 67.9053 555.358 C 72.6693 553.673 77.0146 551.324 80.8732 548.449 C 88.7386 560.818 97.9452 572.072 108.244 582.045 C 109.941 583.694 112.652 583.649 114.293 581.952 C 115.94 580.254 115.897 577.545 114.2 575.902 C 104.048 566.066 95.0065 554.941 87.3412 542.676 C 89.7892 540.058 91.9306 537.192 93.7452 534.132 C 111.804 542.452 159.94 564.632 169.54 569.121 C 181.409 574.668 186.564 581.916 189.82 591.936 C 196.13 611.358 186.112 632.165 167.333 639.509 L 176.426 647.642 C 188.7 658.618 189.752 677.462 178.777 689.73"
     style="fill:#000000;fill-opacity:1;fill-rule:nonzero;stroke:none"
     id="path31634" />
  <path
     d="M 308.051 291.994 C 291.696 286.681 274.132 295.631 268.818 311.985 C 268.062 314.31 267.603 316.659 267.406 318.995 C 251.019 316.539 234.778 326.193 229.489 342.474 C 224.199 358.755 231.663 376.112 246.363 383.755 C 245.15 385.763 244.142 387.932 243.384 390.258 C 238.073 406.61 247.023 424.178 263.375 429.491 C 272.934 432.598 280.312 430.216 289.731 427.16 L 354.756 406.032 C 353.463 400.123 353.392 393.88 354.751 387.676 L 317.078 375.435 C 314.828 374.704 313.6 372.291 314.33 370.042 C 315.062 367.795 317.472 366.566 319.723 367.296 L 357.395 379.536 C 359.942 373.716 363.671 368.706 368.191 364.686 L 328.003 309.37 C 322.18 301.363 317.61 295.101 308.051 291.994"
     style="fill:#000000;fill-opacity:1;fill-rule:nonzero;stroke:none"
     id="path31638" />
  <path
     d="M 222.896 335.832 L 194.437 326.587 C 184.777 323.429 179.499 313.071 182.624 303.401 C 184.723 296.932 190.004 292.375 196.091 291.131 C 197.384 290.844 199.567 290.921 201.605 291.6 C 201.769 291.656 201.925 291.727 202.088 291.788 C 201.861 292.199 201.66 292.629 201.511 293.088 C 200.239 297.003 202.404 301.096 206.316 302.367 C 210.227 303.637 214.893 301.033 215.889 296.871 C 217.487 288.084 210.329 284.547 204.367 283.107 C 200.659 282.213 197.443 282.124 194.367 282.747 C 185.228 284.619 177.531 291.384 174.481 300.755 C 171.54 309.815 173.66 319.295 179.269 326.157 C 170.695 328.415 163.411 334.836 160.464 343.899 C 157.421 353.269 159.673 363.268 165.965 370.153 C 168.091 372.467 170.743 374.285 174.267 375.74 C 179.939 378.081 187.809 379.427 191.681 371.379 C 193.321 367.425 191.077 362.576 187.167 361.304 C 183.255 360.032 179.095 362.073 177.824 365.984 C 177.676 366.448 177.585 366.913 177.527 367.377 C 177.361 367.332 177.193 367.297 177.028 367.245 C 174.979 366.596 173.168 365.377 172.289 364.385 C 168.095 359.803 166.501 353.008 168.605 346.543 C 171.761 336.883 182.121 331.604 191.793 334.729 L 220.252 343.973 C 220.553 342.589 220.901 341.205 221.348 339.828 C 221.796 338.453 222.327 337.131 222.896 335.832"
     style="fill:#000000;fill-opacity:1;fill-rule:nonzero;stroke:none"
     id="path31642" />
  <path
     d="M 269.686 448.904 C 259.577 462.816 262.661 482.289 276.573 492.393 C 278.551 493.833 280.645 494.995 282.805 495.907 C 275.405 510.732 279.569 529.158 293.418 539.221 C 307.267 549.284 326.082 547.546 337.894 535.93 C 339.427 537.704 341.178 539.333 343.158 540.77 C 357.067 550.877 376.54 547.794 386.647 533.882 C 392.555 525.75 392.57 517.997 392.575 508.099 L 392.575 439.724 C 386.555 439.131 380.595 437.268 375.115 434.057 L 351.831 466.104 C 350.44 468.019 347.767 468.44 345.854 467.049 C 343.94 465.661 343.519 462.988 344.907 461.073 L 368.191 429.029 C 363.44 424.808 359.828 419.713 357.403 414.172 L 292.377 435.3 C 282.962 438.363 275.593 440.773 269.686 448.904"
     style="fill:#000000;fill-opacity:1;fill-rule:nonzero;stroke:none"
     id="path31646" />
  <path
     d="M 285.064 543.438 L 267.479 567.649 C 261.491 575.859 250.005 577.678 241.773 571.719 C 236.271 567.725 233.568 561.293 234.267 555.118 C 234.393 553.799 235.143 551.747 236.419 550.019 C 236.523 549.881 236.637 549.753 236.744 549.621 C 237.067 549.962 237.413 550.285 237.804 550.569 C 241.135 552.987 245.697 552.195 248.113 548.867 C 250.531 545.539 249.496 540.298 245.845 538.063 C 237.98 533.829 232.405 539.542 229.192 544.769 C 227.197 548.019 226.119 551.05 225.759 554.17 C 224.717 563.438 228.772 572.85 236.744 578.643 C 244.452 584.243 254.121 585.154 262.381 581.941 C 261.879 590.793 265.736 599.706 273.441 605.307 C 281.416 611.096 291.62 612.044 300.113 608.189 C 302.968 606.883 305.517 604.922 307.991 602.019 C 311.971 597.35 315.681 590.282 309.225 584.11 C 305.972 581.329 300.665 581.965 298.249 585.293 C 295.829 588.618 296.485 593.203 299.815 595.623 C 300.207 595.907 300.621 596.138 301.043 596.337 C 300.949 596.479 300.865 596.629 300.764 596.769 C 299.515 598.519 297.797 599.865 296.583 600.394 C 290.925 602.965 283.973 602.381 278.475 598.383 C 270.261 592.397 268.441 580.911 274.403 572.681 L 291.991 548.469 C 290.767 547.755 289.559 546.998 288.387 546.146 C 287.215 545.295 286.121 544.381 285.064 543.438"
     style="fill:#000000;fill-opacity:1;fill-rule:nonzero;stroke:none"
     id="path31650" />
  <path
     d="M 407.061 533.881 C 417.168 547.793 436.641 550.878 450.55 540.772 C 452.532 539.332 454.282 537.701 455.814 535.928 C 467.63 547.545 486.441 549.282 500.291 539.22 C 514.141 529.157 518.305 510.728 510.905 495.905 C 513.065 494.993 515.157 493.832 517.135 492.394 C 531.045 482.288 534.13 462.816 524.023 448.905 C 518.114 440.772 510.746 438.363 501.333 435.297 L 436.305 414.171 C 433.881 419.709 430.266 424.803 425.521 429.024 L 448.805 461.072 C 450.194 462.985 449.769 465.66 447.857 467.048 C 445.945 468.438 443.27 468.014 441.878 466.103 L 418.598 434.056 C 413.114 437.267 407.154 439.129 401.134 439.725 L 401.134 508.097 C 401.138 517.998 401.154 525.75 407.061 533.881"
     style="fill:#000000;fill-opacity:1;fill-rule:nonzero;stroke:none"
     id="path31654" />
  <path
     d="M 501.72 548.47 L 519.311 572.675 C 525.271 580.907 523.451 592.391 515.239 598.379 C 509.74 602.377 502.788 602.962 497.132 600.389 C 495.916 599.861 494.196 598.514 492.947 596.767 C 492.847 596.626 492.763 596.475 492.668 596.334 C 493.091 596.134 493.507 595.902 493.899 595.618 C 497.228 593.199 497.883 588.615 495.465 585.287 C 493.047 581.962 487.743 581.325 484.488 584.106 C 478.031 590.277 481.743 597.345 485.72 602.017 C 488.193 604.918 490.745 606.882 493.6 608.186 C 502.092 612.043 512.297 611.095 520.272 605.303 C 527.977 599.702 531.831 590.787 531.328 581.939 C 539.592 585.153 549.261 584.238 556.969 578.639 C 564.941 572.847 568.996 563.434 567.953 554.165 C 567.592 551.049 566.516 548.017 564.52 544.767 C 561.307 539.538 555.732 533.825 547.867 538.058 C 544.217 540.293 543.183 545.535 545.599 548.863 C 548.017 552.191 552.581 552.983 555.909 550.566 C 556.301 550.279 556.647 549.957 556.968 549.615 C 557.076 549.751 557.191 549.879 557.293 550.017 C 558.571 551.746 559.319 553.795 559.447 555.115 C 560.144 561.29 557.441 567.721 551.939 571.715 C 543.707 577.673 532.223 575.858 526.236 567.645 L 508.647 543.437 C 507.588 544.379 506.493 545.293 505.323 546.147 C 504.149 546.997 502.944 547.754 501.72 548.47"
     style="fill:#000000;fill-opacity:1;fill-rule:nonzero;stroke:none"
     id="path31658" />
  <path
     d="M 530.331 429.488 C 546.684 424.176 555.636 406.608 550.32 390.257 C 549.567 387.931 548.555 385.759 547.343 383.753 C 562.043 376.107 569.508 358.754 564.218 342.471 C 558.928 326.192 542.687 316.536 526.302 318.991 C 526.103 316.656 525.644 314.308 524.888 311.983 C 519.575 295.63 502.01 286.678 485.655 291.992 C 476.095 295.098 471.526 301.362 465.702 309.367 L 425.514 364.683 C 430.035 368.701 433.763 373.711 436.309 379.529 L 473.982 367.288 C 476.232 366.557 478.644 367.789 479.374 370.037 C 480.104 372.284 478.875 374.697 476.627 375.431 L 438.957 387.668 C 440.317 393.876 440.245 400.121 438.95 406.029 L 503.976 427.157 C 513.394 430.215 520.772 432.592 530.331 429.488"
     style="fill:#000000;fill-opacity:1;fill-rule:nonzero;stroke:none"
     id="path31662" />
  <path
     d="M 573.456 343.969 L 601.913 334.72 C 611.584 331.597 621.943 336.877 625.099 346.537 C 627.203 353.002 625.609 359.794 621.416 364.378 C 620.539 365.37 618.725 366.592 616.679 367.24 C 616.512 367.29 616.344 367.325 616.179 367.37 C 616.12 366.905 616.029 366.441 615.879 365.98 C 614.607 362.065 610.449 360.025 606.539 361.298 C 602.628 362.568 600.383 367.417 602.024 371.372 C 605.896 379.42 613.765 378.076 619.437 375.734 C 622.961 374.278 625.616 372.458 627.74 370.146 C 634.032 363.262 636.283 353.262 633.24 343.888 C 630.295 334.83 623.008 328.409 614.435 326.154 C 620.045 319.286 622.165 309.81 619.221 300.749 C 616.175 291.377 608.476 284.612 599.337 282.74 C 596.261 282.118 593.047 282.206 589.34 283.101 C 583.375 284.541 576.217 288.077 577.815 296.865 C 578.811 301.026 583.477 303.63 587.389 302.362 C 591.3 301.089 593.465 296.996 592.196 293.084 C 592.044 292.621 591.845 292.19 591.619 291.781 C 591.779 291.72 591.936 291.652 592.099 291.596 C 594.14 290.914 596.319 290.836 597.613 291.122 C 603.701 292.368 608.984 296.925 611.081 303.393 C 614.205 313.062 608.928 323.425 599.267 326.58 L 570.808 335.828 C 571.379 337.125 571.911 338.449 572.359 339.826 C 572.804 341.204 573.152 342.586 573.456 343.969"
     style="fill:#000000;fill-opacity:1;fill-rule:nonzero;stroke:none"
     id="path31666" />
</svg>
