<?xml version="1.0" encoding="UTF-8" standalone="no"?>
<!-- Created with Inkscape (http://www.inkscape.org/) -->

<svg
   version="1.1"
   id="svg37294"
   width="793.70135"
   height="793.70135"
   viewBox="0 0 793.70135 793.70135"
   sodipodi:docname="Hanare Karabana.svg"
   inkscape:version="1.2 (dc2aeda, 2022-05-15)"
   xmlns:inkscape="http://www.inkscape.org/namespaces/inkscape"
   xmlns:sodipodi="http://sodipodi.sourceforge.net/DTD/sodipodi-0.dtd"
   xmlns="http://www.w3.org/2000/svg"
   xmlns:svg="http://www.w3.org/2000/svg">
  <defs
     id="defs37298">
    <clipPath
       clipPathUnits="userSpaceOnUse"
       id="clipPath37533">
      <path
         d="m -331.5195,440.8304 h 595.276 v -841.89 h -595.276 z"
         id="path37535"
         style="stroke-width:0.999998" />
    </clipPath>
    <clipPath
       clipPathUnits="userSpaceOnUse"
       id="clipPath37539">
      <path
         d="m -331.5195,440.8304 h 595.276 v -841.89 h -595.276 z"
         id="path37541"
         style="stroke-width:0.999998" />
    </clipPath>
    <clipPath
       clipPathUnits="userSpaceOnUse"
       id="clipPath37545">
      <path
         d="m -314.7666,404.3968 h 595.276 v -841.89 h -595.276 z"
         id="path37547"
         style="stroke-width:0.999998" />
    </clipPath>
    <clipPath
       clipPathUnits="userSpaceOnUse"
       id="clipPath37551">
      <path
         d="m -304.2998,480.6683 h 595.27599 v -841.89 H -304.2998 Z"
         id="path37553"
         style="stroke-width:0.999998" />
    </clipPath>
    <clipPath
       clipPathUnits="userSpaceOnUse"
       id="clipPath37557">
      <path
         d="m -267.9355,412.8089 h 595.276 v -841.89 h -595.276 z"
         id="path37559"
         style="stroke-width:0.999998" />
    </clipPath>
    <clipPath
       clipPathUnits="userSpaceOnUse"
       id="clipPath37563">
      <path
         d="m -261.4658,459.9486 h 595.276 v -841.89 h -595.276 z"
         id="path37565"
         style="stroke-width:0.999998" />
    </clipPath>
    <clipPath
       clipPathUnits="userSpaceOnUse"
       id="clipPath37569">
      <path
         d="m -337.2393,446.3324 h 595.276 v -841.89 h -595.276 z"
         id="path37571"
         style="stroke-width:0.999998" />
    </clipPath>
  </defs>
  <sodipodi:namedview
     id="namedview37296"
     pagecolor="#ffffff"
     bordercolor="#000000"
     borderopacity="0.25"
     inkscape:showpageshadow="2"
     inkscape:pageopacity="0.0"
     inkscape:pagecheckerboard="0"
     inkscape:deskcolor="#d1d1d1"
     showgrid="false"
     inkscape:zoom="0.21024124"
     inkscape:cx="-1234.2964"
     inkscape:cy="561.26001"
     inkscape:window-width="1419"
     inkscape:window-height="456"
     inkscape:window-x="0"
     inkscape:window-y="25"
     inkscape:window-maximized="0"
     inkscape:current-layer="svg37294">
    <inkscape:page
       x="0"
       y="0"
       id="page37300"
       width="793.70135"
       height="793.70135" />
  </sodipodi:namedview>
  <path
     d="m 442.026,421.774 c 0,25.315 -20.527,45.843 -45.84,45.837 -25.313,0.006 -45.838,-20.522 -45.838,-45.834 0,-25.316 20.525,-45.842 45.838,-45.842 25.313,0 45.84,20.526 45.84,45.839"
     style="fill:#231f20;fill-opacity:1;fill-rule:nonzero;stroke:none"
     id="path37314" />
  <path
     d="m 442.026,421.774 c 0,25.315 -20.527,45.843 -45.84,45.837 -25.313,0.006 -45.838,-20.522 -45.838,-45.834 0,-25.316 20.525,-45.842 45.838,-45.842 25.313,0 45.84,20.526 45.84,45.839"
     style="fill:#231f20;fill-opacity:1;fill-rule:nonzero;stroke:none"
     id="path37318" />
  <path
     d="m 419.689,373.196 c 3.928,-13.041 14.635,-45.728 29.328,-67.236 18.701,-27.369 31.472,-46.066 47.442,-61.574 15.96,-15.508 38.314,-38.316 16.42,-74.349 -21.898,-36.028 -67.507,-23.259 -67.507,-23.259 0,0 3.726,-61.576 -49.191,-61.579 -52.905,0.003 -49.185,61.579 -49.185,61.579 0,0 -45.613,-12.769 -67.507,23.259 -21.894,36.027 0.454,58.835 16.424,74.346 15.962,15.511 28.736,34.211 47.432,61.58 14.651,21.436 25.363,54.03 29.323,67.157 5.934,-2.869 12.46,-4.728 19.354,-5.251 -0.16,-5.345 -0.604,-17.729 -1.661,-30.925 -1.353,-16.975 -3.785,-35.366 -3.791,-40.233 0.006,-9.688 4.304,-17.543 9.616,-17.537 5.303,-0.01 9.611,7.849 9.611,17.537 0,4.869 -2.437,23.253 -3.796,40.233 -1.052,13.201 -1.501,25.585 -1.656,30.925 6.905,0.526 13.405,2.451 19.344,5.327"
     style="fill:#231f20;fill-opacity:1;fill-rule:nonzero;stroke:none"
     id="path37322" />
  <path
     d="m 357.247,384.412 c -11.188,-7.765 -38.965,-28.048 -54.883,-48.669 -20.247,-26.245 -34.086,-44.167 -43.898,-64.148 -9.82,-19.973 -24.604,-48.277 -65.637,-38.592 -41.035,9.693 -42.98,57.016 -42.98,57.016 0,0 -57.412,-22.571 -73.768,27.756 -16.3439,50.316 43.365,65.806 43.365,65.806 0,0 -26.2383,39.436 1.262,71.388 27.5,31.959 56.095,17.751 75.781,7.356 19.686,-10.385 41.42,-16.757 73.222,-26.081 24.919,-7.309 59.229,-7.424 72.933,-7.135 -0.892,-6.53 -0.646,-13.31 0.99,-20.029 -5.132,-1.5 -17.051,-4.905 -29.927,-7.977 -16.559,-3.959 -34.808,-7.33 -39.436,-8.828 -9.21,-2.999 -15.352,-9.514 -13.705,-14.566 1.625,-5.046 10.433,-6.713 19.649,-3.72 4.628,1.506 21.359,9.504 37.089,16.043 12.23,5.08 23.87,9.336 28.9,11.131 2.635,-6.403 6.472,-11.991 11.043,-16.751"
     style="fill:#231f20;fill-opacity:1;fill-rule:nonzero;stroke:none"
     id="path37326" />
  <path
     d="m 348.621,447.265 c -10.845,8.24 -38.72,28.391 -63.249,37.156 -31.215,11.145 -52.536,18.772 -74.573,21.927 -22.028,3.168 -53.515,8.481 -56.984,50.499 -3.464,42.022 40.942,58.496 40.942,58.496 0,0 -39.205,47.628 3.603,78.731 42.804,31.098 75.987,-20.903 75.987,-20.903 0,0 29.397,37.141 68.282,20.861 38.891,-16.281 34.219,-47.865 30.412,-69.801 -3.793,-21.93 -3.136,-44.572 -2.173,-77.701 0.746,-25.956 11.24,-58.625 15.75,-71.565 -6.488,-1.171 -12.858,-3.501 -18.745,-7.129 -3.008,4.414 -9.931,14.698 -16.836,25.998 -8.879,14.522 -17.724,30.836 -20.579,34.775 -5.698,7.83 -13.796,11.662 -18.088,8.536 -4.297,-3.106 -3.165,-12 2.534,-19.842 2.86,-3.933 15.64,-17.375 26.72,-30.311 8.61,-10.064 16.254,-19.819 19.516,-24.047 -5.276,-4.485 -9.403,-9.863 -12.519,-15.68"
     style="fill:#231f20;fill-opacity:1;fill-rule:nonzero;stroke:none"
     id="path37330" />
  <path
     d="m 405.733,474.891 c 4.484,12.86 15.035,45.597 15.789,71.634 0.958,33.134 1.62,55.764 -2.192,77.7 -3.79,21.926 -8.466,53.516 30.419,69.801 38.896,16.276 68.289,-20.866 68.289,-20.866 0,0 33.181,52.006 75.991,20.904 42.801,-31.097 3.596,-78.727 3.596,-78.727 0,0 44.413,-16.478 40.943,-58.49 -3.464,-42.019 -34.946,-47.336 -56.983,-50.495 -22.034,-3.17 -43.366,-10.792 -74.575,-21.941 -24.453,-8.735 -52.28,-28.811 -63.193,-37.099 -3.116,5.808 -7.303,11.148 -12.572,15.627 3.265,4.223 10.908,13.988 19.519,24.047 11.07,12.93 23.85,26.384 26.715,30.318 5.687,7.836 6.831,16.724 2.528,19.836 -4.281,3.131 -12.39,-0.696 -18.081,-8.537 -2.861,-3.94 -11.696,-20.247 -20.574,-34.78 -6.911,-11.299 -13.827,-21.583 -16.842,-25.993 -5.896,3.634 -12.284,5.896 -18.777,7.061"
     style="fill:#231f20;fill-opacity:1;fill-rule:nonzero;stroke:none"
     id="path37334" />
  <path
     d="m 449.652,429.11 c 13.62,-0.288 48.016,-0.208 73.009,7.123 31.807,9.328 53.535,15.69 73.221,26.092 19.682,10.38 48.276,24.592 75.783,-7.36 27.5,-31.962 1.254,-71.391 1.254,-71.391 0,0 59.715,-15.489 43.366,-65.814 -16.351,-50.319 -73.763,-27.748 -73.763,-27.748 0,0 -1.95,-47.331 -42.973,-57.014 -41.035,-9.69 -55.817,18.608 -65.632,38.591 -9.824,19.975 -23.668,37.907 -43.914,64.144 -15.866,20.557 -43.558,40.817 -54.81,48.636 4.56,4.761 8.344,10.388 10.975,16.786 5.029,-1.8 16.677,-6.053 28.905,-11.133 15.716,-6.532 32.46,-14.531 37.09,-16.039 9.209,-2.986 18.013,-1.33 19.642,3.723 1.657,5.041 -4.489,11.571 -13.704,14.56 -4.629,1.503 -22.87,4.868 -39.436,8.82 -12.881,3.081 -24.801,6.481 -29.928,7.987 1.638,6.729 1.814,13.504 0.915,20.037"
     style="fill:#231f20;fill-opacity:1;fill-rule:nonzero;stroke:none"
     id="path37338" />
</svg>
