<?xml version="1.0" encoding="UTF-8" standalone="no"?>
<!-- Created with Inkscape (http://www.inkscape.org/) -->

<svg
   version="1.1"
   id="svg37688"
   width="793.70135"
   height="793.70135"
   viewBox="0 0 793.70135 793.70135"
   sodipodi:docname="Kage Karabana.svg"
   inkscape:version="1.2 (dc2aeda, 2022-05-15)"
   xmlns:inkscape="http://www.inkscape.org/namespaces/inkscape"
   xmlns:sodipodi="http://sodipodi.sourceforge.net/DTD/sodipodi-0.dtd"
   xmlns="http://www.w3.org/2000/svg"
   xmlns:svg="http://www.w3.org/2000/svg">
  <defs
     id="defs37692">
    <clipPath
       clipPathUnits="userSpaceOnUse"
       id="clipPath37843">
      <path
         d="m -385.9326,392.2992 h 595.276 v -841.89 h -595.276 z"
         id="path37845"
         style="stroke-width:0.999998" />
    </clipPath>
  </defs>
  <sodipodi:namedview
     id="namedview37690"
     pagecolor="#ffffff"
     bordercolor="#000000"
     borderopacity="0.25"
     inkscape:showpageshadow="2"
     inkscape:pageopacity="0.0"
     inkscape:pagecheckerboard="0"
     inkscape:deskcolor="#d1d1d1"
     showgrid="false"
     inkscape:zoom="0.21024124"
     inkscape:cx="-1234.2964"
     inkscape:cy="561.26001"
     inkscape:window-width="1419"
     inkscape:window-height="456"
     inkscape:window-x="0"
     inkscape:window-y="25"
     inkscape:window-maximized="0"
     inkscape:current-layer="svg37688">
    <inkscape:page
       x="0"
       y="0"
       id="page37694"
       width="793.70135"
       height="793.70135" />
  </sodipodi:namedview>
  <path
     d="m 514.577,359.066 c -8.483,2.756 -52.708,19.544 -70.122,26.047 1.502,2.812 2.774,5.797 3.795,8.932 1.022,3.137 1.747,6.301 2.187,9.457 17.851,-4.957 63.531,-17.381 72.035,-20.141 6.708,-2.182 10.38,-9.39 8.198,-16.092 -2.176,-6.711 -9.385,-10.38 -16.093,-8.203 m -86.21,96.174 c -2.667,1.94 -5.452,3.606 -8.322,5 10.235,15.448 36.164,55.055 41.424,62.287 4.141,5.703 12.133,6.969 17.831,2.824 5.708,-4.145 6.974,-12.133 2.832,-17.841 -5.244,-7.216 -34.876,-44.086 -46.443,-58.639 -2.206,2.299 -4.654,4.432 -7.322,6.369 m -71.672,-6.369 c -11.524,14.507 -41.179,51.409 -46.437,58.641 -4.143,5.703 -2.875,13.694 2.828,17.836 5.702,4.148 13.693,2.882 17.841,-2.824 5.242,-7.216 31.15,-46.792 41.418,-62.289 -2.87,-1.389 -5.654,-3.057 -8.322,-4.995 -2.667,-1.937 -5.115,-4.073 -7.328,-6.369 m -94.971,-81.606 c -2.18,6.709 1.487,13.914 8.2,16.096 8.482,2.757 54.124,15.166 72.035,20.138 0.437,-3.156 1.16,-6.32 2.181,-9.454 1.02,-3.138 2.293,-6.12 3.795,-8.935 -17.362,-6.483 -61.623,-23.283 -70.121,-26.044 -6.704,-2.18 -13.915,1.492 -16.09,8.199 m 134.471,-11.042 c 3.302,0 6.532,0.291 9.674,0.85 0.796,-18.515 3.1,-65.8 3.1,-74.737 0,-7.052 -5.718,-12.772 -12.774,-12.772 -7.055,0 -12.775,5.72 -12.775,12.772 0,8.924 2.304,56.165 3.111,74.737 3.132,-0.559 6.372,-0.85 9.664,-0.85 m 46.522,54.736 c 0,-25.697 -20.824,-46.524 -46.522,-46.524 -25.7,0 -46.524,20.827 -46.524,46.524 0,25.696 20.824,46.524 46.524,46.524 25.698,0 46.522,-20.828 46.522,-46.524 m 247.884,-50.598 c -4.652,10.702 -12.028,17.769 -15.886,20.849 l -8.714,7.016 7.216,8.563 c 3.828,4.56 6.853,9.892 8.814,15.925 8.098,24.917 -5.553,51.709 -30.488,59.809 -9.818,3.196 -19.873,3.028 -29.024,0.121 -51.258,-16.661 -124.271,-40.566 -171.869,-56.057 -0.785,7.596 -3.163,15.011 -7.023,21.72 47.122,15.292 120.867,39.181 172.035,55.801 9.012,2.996 17.243,8.775 23.316,17.13 15.413,21.194 10.7,50.901 -10.499,66.321 -5.13,3.714 -10.716,6.249 -16.505,7.681 l -10.856,2.693 2.924,10.798 c 1.304,4.746 3.132,14.81 0.604,26.2 -2.603,11.413 -9.039,24.422 -26.137,36.961 -17.195,12.385 -31.563,14.48 -43.215,13.427 -11.621,-1.116 -20.621,-5.948 -24.737,-8.664 l -9.364,-6.119 -5.917,9.508 c -3.154,5.047 -7.284,9.573 -12.422,13.304 -21.194,15.398 -50.895,10.694 -66.305,-10.515 -6.072,-8.353 -9.017,-17.962 -9.081,-27.564 0.005,-53.898 0.176,-130.723 0.203,-180.779 -7.467,1.598 -15.255,1.63 -22.83,0.032 0.023,49.537 0.087,127.057 0.092,180.854 -0.064,9.499 -3.014,19.115 -9.081,27.469 -15.4,21.208 -45.107,25.908 -66.321,10.508 -5.121,-3.73 -9.253,-8.258 -12.401,-13.32 l -5.922,-9.493 -9.365,6.12 c -4.111,2.705 -13.117,7.553 -24.737,8.669 -11.652,1.054 -26.019,-1.046 -43.224,-13.437 -17.09,-12.528 -23.524,-25.543 -26.122,-36.949 -2.534,-11.396 -0.716,-21.451 0.594,-26.207 l 2.928,-10.797 -10.871,-2.688 c -5.773,-1.438 -11.36,-3.972 -16.489,-7.703 -21.2,-15.399 -25.903,-45.098 -10.499,-66.305 6.072,-8.36 14.303,-14.131 23.411,-17.157 51.265,-16.651 124.385,-40.224 171.998,-55.672 -3.827,-6.61 -6.269,-14.004 -7.081,-21.699 -0.888,0.286 -121.776,39.656 -171.982,55.972 -9.054,2.875 -19.108,3.04 -28.928,-0.149 -24.928,-8.091 -38.58,-34.894 -30.488,-59.829 1.968,-6.018 4.992,-11.35 8.83,-15.911 l 7.204,-8.561 -8.717,-7.018 c -3.843,-3.073 -11.231,-10.142 -15.885,-20.846 -4.6016,-10.756 -7.0443,-25.067 -0.582,-45.262 6.638,-20.126 17.028,-30.269 27.071,-36.265 10.055,-5.925 20.179,-7.305 25.108,-7.529 l 11.175,-0.553 -0.802,-11.171 c -0.417,-5.933 0.263,-12.029 2.23,-18.064 8.092,-24.919 34.886,-38.569 59.815,-30.469 9.83,3.194 17.859,9.233 23.551,16.962 31.68,43.611 76.696,105.867 106.093,146.377 5.109,-5.682 11.384,-10.29 18.451,-13.442 -29.13,-40.071 -74.749,-102.745 -106.377,-146.265 -5.531,-7.723 -8.798,-17.238 -8.798,-27.562 -0.01,-26.212 21.263,-47.474 47.48,-47.485 6.335,0.011 12.343,1.246 17.863,3.484 l 10.365,4.206 3.981,-10.459 c 1.738,-4.604 6.174,-13.816 14.918,-21.551 8.809,-7.7 21.665,-14.445 42.868,-14.536 21.193,0.091 34.048,6.836 42.856,14.536 8.745,7.735 13.181,16.936 14.918,21.551 l 3.981,10.459 10.376,-4.215 c 5.51,-2.229 11.518,-3.464 17.868,-3.464 26.202,0 47.466,21.262 47.466,47.474 0,10.335 -3.268,19.839 -8.858,27.639 -31.692,43.605 -76.985,105.658 -106.425,146.14 6.98,3.093 13.298,7.645 18.483,13.389 29.109,-40.087 74.617,-102.842 106.238,-146.366 5.634,-7.648 13.674,-13.692 23.492,-16.886 24.923,-8.108 51.712,5.554 59.827,30.483 1.95,6.027 2.634,12.12 2.212,18.067 l -0.796,11.158 11.176,0.552 c 4.913,0.231 15.052,1.602 25.1,7.526 10.05,6 20.436,16.139 27.078,36.279 6.463,20.183 4.015,34.491 -0.586,45.25 m 5.466,30.826 c 9.338,-9.965 20.895,-27.497 20.927,-52.972 0,-9.121 -1.502,-19.121 -4.999,-29.873 -8.001,-24.86 -22.534,-40.096 -36.81,-48.386 -9.007,-5.27 -17.736,-7.928 -24.78,-9.266 -0.427,-5.312 -1.466,-10.654 -3.175,-15.92 -9.557,-29.322 -36.716,-47.96 -65.968,-47.96 -7.109,0 -14.357,1.111 -21.444,3.426 -1.508,0.489 -2.984,1.032 -4.437,1.614 0.107,-1.564 0.161,-3.133 0.161,-4.72 0,-38.315 -31.045,-69.349 -69.348,-69.373 -5.548,0 -10.957,0.655 -16.142,1.892 C 466.6,113.367 461.373,105.883 453.58,98.951 441.296,87.945 422.311,78.816 396.195,78.893 370.068,78.827 351.083,87.945 338.8,98.951 c -7.793,6.937 -13.021,14.416 -16.469,20.696 -5.184,-1.235 -10.588,-1.89 -16.131,-1.89 -38.317,0.024 -69.362,31.058 -69.373,69.373 0,1.582 0.055,3.154 0.161,4.71 -1.454,-0.579 -2.93,-1.115 -4.432,-1.604 -7.104,-2.315 -14.336,-3.416 -21.45,-3.416 -29.247,-0.01 -56.405,18.638 -65.956,47.937 -1.711,5.263 -2.764,10.617 -3.192,15.936 -7.039,1.34 -15.761,3.999 -24.768,9.263 -14.267,8.29 -28.8053,23.526 -36.8012,48.375 -3.5054,10.752 -5.0134,20.763 -5.0134,29.884 0.0427,25.475 11.588,43.007 20.936,52.975 -2.7733,4.549 -5.072,9.491 -6.7827,14.757 -2.3093,7.09 -3.4106,14.326 -3.4,21.436 -0.0106,29.255 18.6333,56.419 47.9453,65.971 1.497,0.485 3.004,0.924 4.512,1.302 -0.995,1.194 -1.945,2.436 -2.876,3.711 -8.941,12.269 -13.267,26.597 -13.256,40.719 -0.02,21.402 9.936,42.605 28.587,56.17 4.484,3.255 9.245,5.9 14.164,7.948 -0.376,2.972 -0.62,6.291 -0.62,9.904 -0.226,18.612 7.321,45.572 36.425,66.483 18.05,13.159 35.849,17.899 50.912,17.857 13.64,-0.027 24.833,-3.662 32.796,-7.413 3.47,4.051 7.457,7.766 11.942,11.026 12.282,8.905 26.608,13.24 40.728,13.229 h 0.076 c 21.38,0 42.545,-9.942 56.085,-28.595 0.924,-1.278 1.812,-2.578 2.635,-3.891 0.833,1.313 1.716,2.623 2.645,3.9 13.56,18.638 34.76,28.608 56.171,28.592 14.112,0 28.432,-4.319 40.709,-13.24 4.489,-3.255 8.483,-6.97 11.951,-11.021 7.958,3.746 19.152,7.391 32.792,7.418 15.057,0.037 32.845,-4.688 50.922,-17.853 29.077,-20.931 36.635,-47.869 36.421,-66.487 -0.005,-3.613 -0.256,-6.937 -0.63,-9.909 4.922,-2.048 9.685,-4.693 14.174,-7.948 18.655,-13.571 28.598,-34.759 28.587,-56.173 0.011,-14.121 -4.324,-28.439 -13.257,-40.719 -0.919,-1.268 -1.859,-2.514 -2.854,-3.705 1.496,-0.376 2.999,-0.825 4.479,-1.305 29.312,-9.563 47.961,-36.716 47.951,-65.971 0,-7.11 -1.09,-14.334 -3.395,-21.436 -1.709,-5.266 -4.003,-10.208 -6.783,-14.76"
     style="fill:#231f20;fill-opacity:1;fill-rule:nonzero;stroke:none"
     id="path37708" />
</svg>
