<?xml version="1.0" encoding="UTF-8" standalone="no"?>
<!-- Created with Inkscape (http://www.inkscape.org/) -->

<svg
   version="1.1"
   id="svg25264"
   width="795.03467"
   height="793.70135"
   viewBox="0 0 795.03467 793.70135"
   sodipodi:docname="Karabana Kiri.svg"
   inkscape:version="1.2 (dc2aeda, 2022-05-15)"
   xmlns:inkscape="http://www.inkscape.org/namespaces/inkscape"
   xmlns:sodipodi="http://sodipodi.sourceforge.net/DTD/sodipodi-0.dtd"
   xmlns="http://www.w3.org/2000/svg"
   xmlns:svg="http://www.w3.org/2000/svg">
  <defs
     id="defs25268">
    <clipPath
       clipPathUnits="userSpaceOnUse"
       id="clipPath25883">
      <path
         d="M -550.2637,577.3248 H 46.012306 V -17.951198 H -550.2637 Z"
         id="path25885"
         style="stroke-width:0.999998" />
    </clipPath>
    <clipPath
       clipPathUnits="userSpaceOnUse"
       id="clipPath25890">
      <path
         d="M -586.5449,579.5026 H 9.7311002 V -15.7734 H -586.5449 Z"
         id="path25892"
         style="stroke-width:0.999998" />
    </clipPath>
    <clipPath
       clipPathUnits="userSpaceOnUse"
       id="clipPath25896">
      <path
         d="M -584.1943,578.9381 H 12.081705 V -16.337903 H -584.1943 Z"
         id="path25898"
         style="stroke-width:0.999998" />
    </clipPath>
    <clipPath
       clipPathUnits="userSpaceOnUse"
       id="clipPath25902">
      <path
         d="M -538.2217,577.9479 H 58.054299 V -17.328098 H -538.2217 Z"
         id="path25904"
         style="stroke-width:0.999998" />
    </clipPath>
    <clipPath
       clipPathUnits="userSpaceOnUse"
       id="clipPath25908">
      <path
         d="m -331.502,285.6412 h 596.276 v -595.276 h -596.276 z"
         id="path25910"
         style="stroke-width:0.999998" />
    </clipPath>
    <clipPath
       clipPathUnits="userSpaceOnUse"
       id="clipPath25914">
      <path
         d="m -305.2861,325.3678 h 596.276 v -595.276 h -596.276 z"
         id="path25916"
         style="stroke-width:0.999998" />
    </clipPath>
    <clipPath
       clipPathUnits="userSpaceOnUse"
       id="clipPath25920">
      <path
         d="m -263.1885,306.858 h 596.276 v -595.276 h -596.276 z"
         id="path25922"
         style="stroke-width:0.999998" />
    </clipPath>
    <clipPath
       clipPathUnits="userSpaceOnUse"
       id="clipPath25926">
      <path
         d="m -386.2246,200.4318 h 596.276 v -595.276 h -596.276 z"
         id="path25928"
         style="stroke-width:0.999998" />
    </clipPath>
    <clipPath
       clipPathUnits="userSpaceOnUse"
       id="clipPath25932">
      <path
         d="m -257.9678,130.6271 h 596.276 v -595.276 h -596.276 z"
         id="path25934"
         style="stroke-width:0.999998" />
    </clipPath>
    <clipPath
       clipPathUnits="userSpaceOnUse"
       id="clipPath25938">
      <path
         d="m -337.3076,130.6271 h 596.276 v -595.276 h -596.276 z"
         id="path25940"
         style="stroke-width:0.999998" />
    </clipPath>
    <clipPath
       clipPathUnits="userSpaceOnUse"
       id="clipPath25944">
      <path
         d="m -294.3398,111.5997 h 596.276 v -595.276 h -596.276 z"
         id="path25946"
         style="stroke-width:0.999998" />
    </clipPath>
    <clipPath
       clipPathUnits="userSpaceOnUse"
       id="clipPath25950">
      <path
         d="M -113.874,210.547 H 482.402 V -384.729 H -113.874 Z"
         id="path25952"
         style="stroke-width:0.999998" />
    </clipPath>
    <clipPath
       clipPathUnits="userSpaceOnUse"
       id="clipPath25956">
      <path
         d="m -332.0869,306.858 h 596.276 v -595.276 h -596.276 z"
         id="path25958"
         style="stroke-width:0.999998" />
    </clipPath>
    <clipPath
       clipPathUnits="userSpaceOnUse"
       id="clipPath25962">
      <path
         d="m -481.4014,210.547 h 596.276 v -595.276 h -596.276 z"
         id="path25964"
         style="stroke-width:0.999998" />
    </clipPath>
    <clipPath
       clipPathUnits="userSpaceOnUse"
       id="clipPath25968">
      <path
         d="M -564.5732,585.8483 H 31.702801 V -9.4277027 H -564.5732 Z"
         id="path25970"
         style="stroke-width:0.999998" />
    </clipPath>
    <clipPath
       clipPathUnits="userSpaceOnUse"
       id="clipPath25974">
      <path
         d="M -531.1924,581.5885 H 65.083599 V -13.6875 H -531.1924 Z"
         id="path25976"
         style="stroke-width:0.999998" />
    </clipPath>
    <clipPath
       clipPathUnits="userSpaceOnUse"
       id="clipPath25980">
      <path
         d="M -536.6982,584.5729 H 59.577804 V -10.7031 H -536.6982 Z"
         id="path25982"
         style="stroke-width:0.999998" />
    </clipPath>
    <clipPath
       clipPathUnits="userSpaceOnUse"
       id="clipPath25986">
      <path
         d="M -540.8213,585.8483 H 55.454701 V -9.4277027 H -540.8213 Z"
         id="path25988"
         style="stroke-width:0.999998" />
    </clipPath>
    <clipPath
       clipPathUnits="userSpaceOnUse"
       id="clipPath25992">
      <path
         d="M -528.0898,575.3815 H 68.186199 V -19.8945 H -528.0898 Z"
         id="path25994"
         style="stroke-width:0.999998" />
    </clipPath>
    <clipPath
       clipPathUnits="userSpaceOnUse"
       id="clipPath25998">
      <path
         d="M -553.8975,585.8483 H 42.378504 V -9.4277027 H -553.8975 Z"
         id="path26000"
         style="stroke-width:0.999998" />
    </clipPath>
    <clipPath
       clipPathUnits="userSpaceOnUse"
       id="clipPath26004">
      <path
         d="M -542.9326,584.5729 H 53.343399 V -10.7031 H -542.9326 Z"
         id="path26006"
         style="stroke-width:0.999998" />
    </clipPath>
    <clipPath
       clipPathUnits="userSpaceOnUse"
       id="clipPath26010">
      <path
         d="M -576.3691,585.5885 H 19.906905 V -9.6875027 H -576.3691 Z"
         id="path26012"
         style="stroke-width:0.999998" />
    </clipPath>
    <clipPath
       clipPathUnits="userSpaceOnUse"
       id="clipPath26016">
      <path
         d="M -561.4131,585.8522 H 34.862903 V -9.4238027 H -561.4131 Z"
         id="path26018"
         style="stroke-width:0.999998" />
    </clipPath>
    <clipPath
       clipPathUnits="userSpaceOnUse"
       id="clipPath26022">
      <path
         d="M -568.2266,575.819 H 28.049401 V -19.457003 H -568.2266 Z"
         id="path26024"
         style="stroke-width:0.999998" />
    </clipPath>
    <clipPath
       clipPathUnits="userSpaceOnUse"
       id="clipPath26028">
      <path
         d="M -557.0645,585.8483 H 39.211501 V -9.4277027 H -557.0645 Z"
         id="path26030"
         style="stroke-width:0.999998" />
    </clipPath>
    <clipPath
       clipPathUnits="userSpaceOnUse"
       id="clipPath26034">
      <path
         d="M -556.4014,578.0143 H 39.874606 V -17.2617 H -556.4014 Z"
         id="path26036"
         style="stroke-width:0.999998" />
    </clipPath>
    <clipPath
       clipPathUnits="userSpaceOnUse"
       id="clipPath26040">
      <path
         d="M -567.7754,585.8522 H 28.500601 V -9.4238027 H -567.7754 Z"
         id="path26042"
         style="stroke-width:0.999998" />
    </clipPath>
    <clipPath
       clipPathUnits="userSpaceOnUse"
       id="clipPath26047">
      <path
         d="M -572.8174,586.1354 H 23.458606 V -9.1406027 H -572.8174 Z"
         id="path26049"
         style="stroke-width:0.999998" />
    </clipPath>
    <clipPath
       clipPathUnits="userSpaceOnUse"
       id="clipPath26053">
      <path
         d="M -557.4951,577.8502 H 38.780903 V -17.4258 H -557.4951 Z"
         id="path26055"
         style="stroke-width:0.999998" />
    </clipPath>
    <clipPath
       clipPathUnits="userSpaceOnUse"
       id="clipPath26059">
      <path
         d="M -574.5459,585.8522 H 21.730103 V -9.4238027 H -574.5459 Z"
         id="path26061"
         style="stroke-width:0.999998" />
    </clipPath>
    <clipPath
       clipPathUnits="userSpaceOnUse"
       id="clipPath26065">
      <path
         d="M -548.9834,585.8522 H 47.292601 V -9.4238027 H -548.9834 Z"
         id="path26067"
         style="stroke-width:0.999998" />
    </clipPath>
    <clipPath
       clipPathUnits="userSpaceOnUse"
       id="clipPath26071">
      <path
         d="M -545.417,584.5729 H 50.859001 V -10.7031 H -545.417 Z"
         id="path26073"
         style="stroke-width:0.999998" />
    </clipPath>
  </defs>
  <sodipodi:namedview
     id="namedview25266"
     pagecolor="#ffffff"
     bordercolor="#000000"
     borderopacity="0.25"
     inkscape:showpageshadow="2"
     inkscape:pageopacity="0.0"
     inkscape:pagecheckerboard="0"
     inkscape:deskcolor="#d1d1d1"
     showgrid="false"
     inkscape:zoom="0.29734106"
     inkscape:cx="-215.24105"
     inkscape:cy="396.85068"
     inkscape:window-width="1419"
     inkscape:window-height="456"
     inkscape:window-x="0"
     inkscape:window-y="25"
     inkscape:window-maximized="0"
     inkscape:current-layer="svg25264">
    <inkscape:page
       x="0"
       y="0"
       id="page25270"
       width="795.03467"
       height="793.70135" />
  </sodipodi:namedview>
  <path
     d="M 442.003 380.855 C 442.003 405.792 421.787 426.006 396.851 426.006 C 371.914 426.006 351.698 405.792 351.698 380.855 C 351.698 355.918 371.914 335.702 396.851 335.702 C 421.787 335.702 442.003 355.918 442.003 380.855"
     style="fill:#000000;fill-opacity:1;fill-rule:nonzero;stroke:none"
     id="path25384" />
  <path
     d="M 407.048 433.824 C 419.079 431.519 429.685 425.223 437.444 416.363 C 494.364 441.745 555.276 514.526 555.276 587.966 C 555.276 627.162 523.504 658.933 484.31 658.933 C 478.092 658.933 472.063 658.129 466.315 656.623 C 459.599 688.834 431.052 713.031 396.851 713.031 C 362.648 713.031 334.103 688.834 327.387 656.623 C 321.638 658.129 315.608 658.933 309.39 658.933 C 270.196 658.933 238.423 627.162 238.423 587.966 C 238.423 514.526 299.336 441.745 356.256 416.363 C 364.016 425.223 374.621 431.519 386.652 433.824 C 384.916 455.272 383.881 477.433 383.881 489.903 C 383.881 506.357 387.903 515.373 396.851 515.373 C 405.797 515.373 409.819 506.357 409.819 489.903 C 409.819 477.433 408.784 455.272 407.048 433.824"
     style="fill:#000000;fill-opacity:1;fill-rule:nonzero;stroke:none"
     id="path25388" />
  <path
     d="M 350.918 409.144 C 331.377 418.155 316.154 429.677 293.509 450.275 C 248.145 491.532 229.213 559.824 172.408 559.824 C 138.257 559.824 110.34 533.168 108.304 499.526 C 105.899 499.8 103.457 499.956 100.979 499.956 C 65.504 499.956 36.7441 471.196 36.7441 435.72 C 36.7441 408.011 54.2881 384.397 78.8747 375.387 C 74.5614 334.415 104.239 300.44 144.831 291.148 C 189.337 280.963 262.092 278.634 353.989 348.113 C 350.983 352.04 348.511 356.393 346.667 361.063 C 321.83 356.775 287.035 358.581 253.952 374.451 C 242.142 380.116 231.437 391.475 236.874 400.917 C 242.313 410.357 256.036 408.355 267.134 402.133 C 287.983 390.443 310.189 374.005 343.205 375.183 C 343.009 377.045 342.905 378.939 342.905 380.855 C 342.905 391.229 345.841 400.917 350.918 409.144"
     style="fill:#000000;fill-opacity:1;fill-rule:nonzero;stroke:none"
     id="path25392" />
  <path
     d="M 514.966 267.242 C 514.085 256.887 509.489 247.405 502.182 239.514 C 494.875 231.623 482.837 226.205 467.586 226.267 C 465.913 226.267 464.199 226.33 462.447 226.463 C 447.117 227.685 433.374 235.903 421.896 246.053 C 415.5 251.754 409.789 258.125 404.965 264.581 L 404.965 210.778 C 423.017 203.521 437.054 190.461 440.997 172.537 C 439.134 172.153 437.205 171.948 435.226 171.948 C 428.416 171.948 422.166 174.352 417.274 178.349 C 413.282 168.828 405.988 161.037 396.801 156.44 C 387.613 161.037 380.318 168.828 376.325 178.349 C 371.434 174.352 365.184 171.948 358.374 171.948 C 356.396 171.948 354.466 172.153 352.604 172.537 C 356.546 190.461 370.584 203.521 388.634 210.778 L 388.634 264.581 C 383.812 258.125 378.2 251.754 371.804 246.053 C 360.325 235.903 346.582 227.685 331.252 226.463 C 329.501 226.33 327.785 226.267 326.113 226.267 C 310.861 226.205 298.825 231.623 291.517 239.514 C 284.211 247.405 279.613 256.887 278.733 267.242 C 277.448 282.345 285.771 295.519 301.492 293.875 C 310.22 292.961 316.953 286.341 316.953 277.566 C 316.953 268.789 309.837 262.439 301.061 262.439 C 299.859 262.439 298.699 262.603 297.572 262.857 C 297.916 259.631 299.747 254.674 303.588 250.773 C 307.969 246.311 314.673 242.554 326.113 242.497 C 327.357 242.494 328.665 242.546 330.037 242.649 C 343.314 243.451 358.696 254.359 370.281 267.555 C 387.228 286.854 388.733 299.029 388.733 319.766 L 388.733 327.518 C 391.382 327.117 394.092 326.909 396.85 326.909 C 399.608 326.909 402.318 327.117 404.965 327.518 L 404.965 319.766 C 404.965 299.029 406.473 286.854 423.418 267.555 C 435.004 254.359 450.385 243.451 463.662 242.649 C 465.034 242.546 466.342 242.494 467.586 242.497 C 479.026 242.554 485.73 246.311 490.111 250.773 C 493.951 254.674 495.782 259.631 496.127 262.857 C 495.001 262.603 493.841 262.439 492.638 262.439 C 483.862 262.439 476.746 268.789 476.746 277.566 C 476.746 286.341 483.478 292.961 492.207 293.875 C 507.93 295.519 516.251 282.345 514.966 267.242"
     style="fill:#000000;fill-opacity:1;fill-rule:nonzero;stroke:none"
     id="path25396" />
  <path
     d="M 343.957 174.169 C 334.696 166.989 328.4 160.27 324.954 156.278 L 324.954 156.281 C 323.366 154.444 323.569 151.669 325.408 150.082 C 327.242 148.494 330.017 148.697 331.606 150.532 C 334.402 153.773 339.308 159.037 346.366 164.846 L 350.826 163.924 C 353.238 163.426 355.744 163.161 358.306 163.157 C 357.485 161.764 356.674 160.365 355.884 158.961 C 350.02 148.472 345.113 137.838 342.277 128.032 C 340.108 120.304 333.012 114.636 324.59 114.636 C 316.46 114.636 309.577 119.92 307.154 127.237 C 301.957 122.562 294.022 122.016 288.177 126.328 C 281.486 131.26 280.162 140.606 284.994 147.366 C 294.452 160.598 315.632 172.605 347.029 183.817 C 345.769 180.822 344.73 177.697 344.013 174.425 Z"
     style="fill:#000000;fill-opacity:1;fill-rule:nonzero;stroke:none"
     id="path25400" />
  <path
     d="M 449.743 174.169 C 459.004 166.989 465.3 160.27 468.746 156.278 L 468.746 156.281 C 470.332 154.444 470.131 151.669 468.292 150.082 C 466.458 148.494 463.683 148.697 462.094 150.532 C 459.296 153.773 454.392 159.037 447.334 164.846 L 442.875 163.924 C 440.462 163.426 437.956 163.161 435.392 163.157 C 436.215 161.764 437.026 160.365 437.816 158.961 C 443.68 148.472 448.587 137.838 451.424 128.032 C 453.592 120.304 460.687 114.636 469.11 114.636 C 477.24 114.636 484.123 119.92 486.546 127.237 C 491.743 122.562 499.678 122.016 505.523 126.328 C 512.214 131.26 513.536 140.606 508.706 147.366 C 499.248 160.598 478.068 172.605 446.671 183.817 C 447.932 180.822 448.97 177.697 449.687 174.425 Z"
     style="fill:#000000;fill-opacity:1;fill-rule:nonzero;stroke:none"
     id="path25404" />
  <path
     d="M 392.453 148.8 L 392.453 128.612 C 392.453 126.183 394.421 124.216 396.85 124.216 C 399.276 124.216 401.248 126.183 401.248 128.612 L 401.248 148.857 C 409.097 152.9 415.764 158.859 420.637 166.133 C 421.738 165.664 422.868 165.245 424.021 164.881 C 433.208 150.413 441.048 134.425 443.937 121.951 C 446.349 111.54 440.596 101.016 430.278 98.2415 C 426.38 97.1935 422.442 97.4175 418.9 98.6548 C 416.806 88.3922 407.729 80.6722 396.85 80.6722 C 385.97 80.6722 376.894 88.3922 374.801 98.6548 C 371.257 97.4175 367.32 97.1935 363.424 98.2415 C 353.104 101.016 347.35 111.54 349.762 121.951 C 352.654 134.439 360.509 150.448 369.709 164.928 C 370.814 165.281 371.902 165.683 372.96 166.135 C 377.856 158.827 384.554 152.844 392.453 148.8"
     style="fill:#000000;fill-opacity:1;fill-rule:nonzero;stroke:none"
     id="path25408" />
  <path
     d="M 151.832 280.729 L 151.829 247.633 C 151.857 232.169 164.365 219.66 179.829 219.633 C 190.176 219.63 199.256 225.13 203.916 233.357 C 204.941 235.092 205.853 238.286 205.829 241.553 C 205.825 241.82 205.796 242.077 205.785 242.338 C 205.084 242.208 204.367 242.117 203.631 242.117 C 197.371 242.117 192.465 247.177 192.465 253.434 C 192.465 259.693 198.428 265.221 204.92 264.705 C 218.387 262.884 220.138 250.862 219.418 241.553 C 218.97 235.77 217.585 231.076 215.241 226.916 C 208.233 214.573 194.823 206.613 179.829 206.608 C 165.332 206.608 152.615 214.137 145.316 225.481 C 138.023 214.134 125.304 206.608 110.804 206.608 C 95.8095 206.613 82.4015 214.573 75.3949 226.916 C 73.0482 231.076 71.6629 235.77 71.2149 241.553 C 70.4935 250.862 72.2482 262.884 85.7148 264.705 C 92.2055 265.221 98.1721 259.693 98.1721 253.434 C 98.1721 247.177 93.2615 242.117 87.0042 242.117 C 86.2642 242.117 85.5482 242.208 84.8508 242.338 C 84.8388 242.077 84.8082 241.82 84.8042 241.553 C 84.7802 238.286 85.6935 235.092 86.7162 233.357 C 91.3802 225.13 100.457 219.63 110.804 219.633 C 126.269 219.66 138.78 232.169 138.804 247.633 L 138.804 283.596 C 140.147 283.234 141.5 282.892 142.865 282.578 C 145.731 281.922 148.739 281.308 151.832 280.729"
     style="fill:#000000;fill-opacity:1;fill-rule:nonzero;stroke:none"
     id="path25412" />
  <path
     d="M 442.783 409.144 C 462.324 418.155 477.547 429.677 500.192 450.275 C 545.556 491.532 564.488 559.824 621.295 559.824 C 655.444 559.824 683.361 533.168 685.397 499.526 C 687.802 499.8 690.245 499.956 692.722 499.956 C 728.198 499.956 756.957 471.196 756.957 435.72 C 756.957 408.011 739.414 384.397 714.826 375.387 C 719.14 334.415 689.462 300.44 648.872 291.148 C 604.364 280.963 531.609 278.634 439.711 348.113 C 442.718 352.04 445.19 356.393 447.034 361.063 C 471.871 356.775 506.666 358.581 539.749 374.451 C 551.559 380.116 562.263 391.475 556.825 400.917 C 551.388 410.357 537.665 408.355 526.567 402.133 C 505.716 390.443 483.512 374.005 450.498 375.183 C 450.694 377.045 450.796 378.939 450.796 380.855 C 450.796 391.229 447.86 400.917 442.783 409.144"
     style="fill:#000000;fill-opacity:1;fill-rule:nonzero;stroke:none"
     id="path25416" />
  <path
     d="M 641.869 280.729 L 641.87 247.633 C 641.844 232.169 629.336 219.66 613.872 219.633 C 603.525 219.63 594.446 225.13 589.785 233.357 C 588.76 235.092 587.848 238.286 587.872 241.553 C 587.876 241.82 587.904 242.077 587.917 242.338 C 588.617 242.208 589.334 242.117 590.07 242.117 C 596.33 242.117 601.236 247.177 601.236 253.434 C 601.236 259.693 595.274 265.221 588.781 264.705 C 575.314 262.884 573.561 250.862 574.283 241.553 C 574.731 235.77 576.116 231.076 578.461 226.916 C 585.468 214.573 598.878 206.613 613.872 206.608 C 628.369 206.608 641.086 214.137 648.384 225.481 C 655.68 214.134 668.397 206.608 682.897 206.608 C 697.892 206.613 711.299 214.573 718.306 226.916 C 720.651 231.076 722.039 235.77 722.486 241.553 C 723.207 250.862 721.453 262.884 707.988 264.705 C 701.496 265.221 695.529 259.693 695.529 253.434 C 695.529 247.177 700.44 242.117 706.698 242.117 C 707.437 242.117 708.152 242.208 708.85 242.338 C 708.862 242.077 708.894 241.82 708.897 241.553 C 708.921 238.286 708.008 235.092 706.985 233.357 C 702.321 225.13 693.242 219.63 682.897 219.633 C 667.43 219.66 654.921 232.169 654.897 247.633 L 654.897 283.596 C 653.556 283.234 652.201 282.892 650.836 282.578 C 647.97 281.922 644.962 281.308 641.869 280.729"
     style="fill:#000000;fill-opacity:1;fill-rule:nonzero;stroke:none"
     id="path25420" />
</svg>
