<?xml version="1.0" encoding="UTF-8" standalone="no"?>
<!-- Created with Inkscape (http://www.inkscape.org/) -->

<svg
   version="1.1"
   id="svg27988"
   width="795.03467"
   height="793.70135"
   viewBox="0 0 795.03467 793.70135"
   sodipodi:docname="Kawari Karabana.svg"
   inkscape:version="1.2 (dc2aeda, 2022-05-15)"
   xmlns:inkscape="http://www.inkscape.org/namespaces/inkscape"
   xmlns:sodipodi="http://sodipodi.sourceforge.net/DTD/sodipodi-0.dtd"
   xmlns="http://www.w3.org/2000/svg"
   xmlns:svg="http://www.w3.org/2000/svg">
  <defs
     id="defs27992">
    <clipPath
       clipPathUnits="userSpaceOnUse"
       id="clipPath28551">
      <path
         d="M -528.0898,575.3815 H 68.186199 V -19.8945 H -528.0898 Z"
         id="path28553"
         style="stroke-width:0.999998" />
    </clipPath>
    <clipPath
       clipPathUnits="userSpaceOnUse"
       id="clipPath28557">
      <path
         d="M -564.5732,585.8483 H 31.702801 V -9.4277027 H -564.5732 Z"
         id="path28559"
         style="stroke-width:0.999998" />
    </clipPath>
    <clipPath
       clipPathUnits="userSpaceOnUse"
       id="clipPath28563">
      <path
         d="M -553.8975,585.8483 H 42.378504 V -9.4277027 H -553.8975 Z"
         id="path28565"
         style="stroke-width:0.999998" />
    </clipPath>
    <clipPath
       clipPathUnits="userSpaceOnUse"
       id="clipPath28569">
      <path
         d="M -557.0645,585.8483 H 39.211501 V -9.4277027 H -557.0645 Z"
         id="path28571"
         style="stroke-width:0.999998" />
    </clipPath>
    <clipPath
       clipPathUnits="userSpaceOnUse"
       id="clipPath28575">
      <path
         d="M -548.9834,585.8522 H 47.292601 V -9.4238027 H -548.9834 Z"
         id="path28577"
         style="stroke-width:0.999998" />
    </clipPath>
    <clipPath
       clipPathUnits="userSpaceOnUse"
       id="clipPath28581">
      <path
         d="M -531.1924,581.5885 H 65.083599 V -13.6875 H -531.1924 Z"
         id="path28583"
         style="stroke-width:0.999998" />
    </clipPath>
    <clipPath
       clipPathUnits="userSpaceOnUse"
       id="clipPath28587">
      <path
         d="M -568.2266,575.819 H 28.049401 V -19.457003 H -568.2266 Z"
         id="path28589"
         style="stroke-width:0.999998" />
    </clipPath>
    <clipPath
       clipPathUnits="userSpaceOnUse"
       id="clipPath28593">
      <path
         d="M -567.7754,585.8522 H 28.500601 V -9.4238027 H -567.7754 Z"
         id="path28595"
         style="stroke-width:0.999998" />
    </clipPath>
    <clipPath
       clipPathUnits="userSpaceOnUse"
       id="clipPath28599">
      <path
         d="M -557.4951,577.8502 H 38.780903 V -17.4258 H -557.4951 Z"
         id="path28601"
         style="stroke-width:0.999998" />
    </clipPath>
    <clipPath
       clipPathUnits="userSpaceOnUse"
       id="clipPath28605">
      <path
         d="M -572.8174,586.1354 H 23.458606 V -9.1406027 H -572.8174 Z"
         id="path28607"
         style="stroke-width:0.999998" />
    </clipPath>
    <clipPath
       clipPathUnits="userSpaceOnUse"
       id="clipPath28611">
      <path
         d="M -574.5459,585.8522 H 21.730103 V -9.4238027 H -574.5459 Z"
         id="path28613"
         style="stroke-width:0.999998" />
    </clipPath>
    <clipPath
       clipPathUnits="userSpaceOnUse"
       id="clipPath28618">
      <path
         d="M -576.3691,585.5885 H 19.906905 V -9.6875027 H -576.3691 Z"
         id="path28620"
         style="stroke-width:0.999998" />
    </clipPath>
    <clipPath
       clipPathUnits="userSpaceOnUse"
       id="clipPath28624">
      <path
         d="M -536.6982,584.5729 H 59.577804 V -10.7031 H -536.6982 Z"
         id="path28626"
         style="stroke-width:0.999998" />
    </clipPath>
    <clipPath
       clipPathUnits="userSpaceOnUse"
       id="clipPath28630">
      <path
         d="M -527.4336,379.0358 H 68.842404 v -595.276 H -527.4336 Z"
         id="path28632"
         style="stroke-width:0.999998" />
    </clipPath>
    <clipPath
       clipPathUnits="userSpaceOnUse"
       id="clipPath28636">
      <path
         d="m -302.5811,549.5807 h 596.276 V -45.695304 h -596.276 z"
         id="path28638"
         style="stroke-width:0.999998" />
    </clipPath>
    <clipPath
       clipPathUnits="userSpaceOnUse"
       id="clipPath28642">
      <path
         d="m -70.8994,388.4362 h 596.276 v -595.276 h -596.276 z"
         id="path28644"
         style="stroke-width:0.999998" />
    </clipPath>
    <clipPath
       clipPathUnits="userSpaceOnUse"
       id="clipPath28648">
      <path
         d="M -152.5635,118.297 H 443.71251 V -476.979 H -152.5635 Z"
         id="path28650"
         style="stroke-width:0.999998" />
    </clipPath>
    <clipPath
       clipPathUnits="userSpaceOnUse"
       id="clipPath28654">
      <path
         d="m -434.7188,112.4874 h 596.276 v -595.276 h -596.276 z"
         id="path28656"
         style="stroke-width:0.999998" />
    </clipPath>
    <clipPath
       clipPathUnits="userSpaceOnUse"
       id="clipPath28660">
      <path
         d="m -340.874,309.5729 h 596.276 v -595.276 h -596.276 z"
         id="path28662"
         style="stroke-width:0.999998" />
    </clipPath>
    <clipPath
       clipPathUnits="userSpaceOnUse"
       id="clipPath28666">
      <path
         d="M -538.2217,577.9479 H 58.054299 V -17.328098 H -538.2217 Z"
         id="path28668"
         style="stroke-width:0.999998" />
    </clipPath>
    <clipPath
       clipPathUnits="userSpaceOnUse"
       id="clipPath28672">
      <path
         d="M -586.5449,579.5026 H 9.7311002 V -15.7734 H -586.5449 Z"
         id="path28674"
         style="stroke-width:0.999998" />
    </clipPath>
    <clipPath
       clipPathUnits="userSpaceOnUse"
       id="clipPath28678">
      <path
         d="M -584.1943,578.9381 H 12.081705 V -16.337903 H -584.1943 Z"
         id="path28680"
         style="stroke-width:0.999998" />
    </clipPath>
    <clipPath
       clipPathUnits="userSpaceOnUse"
       id="clipPath28684">
      <path
         d="M -550.2637,577.3248 H 46.012306 V -17.951198 H -550.2637 Z"
         id="path28686"
         style="stroke-width:0.999998" />
    </clipPath>
    <clipPath
       clipPathUnits="userSpaceOnUse"
       id="clipPath28691">
      <path
         d="M -556.4014,578.0143 H 39.874606 V -17.2617 H -556.4014 Z"
         id="path28693"
         style="stroke-width:0.999998" />
    </clipPath>
    <clipPath
       clipPathUnits="userSpaceOnUse"
       id="clipPath28697">
      <path
         d="M -561.4131,585.8522 H 34.862903 V -9.4238027 H -561.4131 Z"
         id="path28699"
         style="stroke-width:0.999998" />
    </clipPath>
    <clipPath
       clipPathUnits="userSpaceOnUse"
       id="clipPath28703">
      <path
         d="M -545.417,584.5729 H 50.859001 V -10.7031 H -545.417 Z"
         id="path28705"
         style="stroke-width:0.999998" />
    </clipPath>
    <clipPath
       clipPathUnits="userSpaceOnUse"
       id="clipPath28709">
      <path
         d="M -542.9326,584.5729 H 53.343399 V -10.7031 H -542.9326 Z"
         id="path28711"
         style="stroke-width:0.999998" />
    </clipPath>
    <clipPath
       clipPathUnits="userSpaceOnUse"
       id="clipPath28715">
      <path
         d="M -540.8213,585.8483 H 55.454701 V -9.4277027 H -540.8213 Z"
         id="path28717"
         style="stroke-width:0.999998" />
    </clipPath>
  </defs>
  <sodipodi:namedview
     id="namedview27990"
     pagecolor="#ffffff"
     bordercolor="#000000"
     borderopacity="0.25"
     inkscape:showpageshadow="2"
     inkscape:pageopacity="0.0"
     inkscape:pagecheckerboard="0"
     inkscape:deskcolor="#d1d1d1"
     showgrid="false"
     inkscape:zoom="0.29734106"
     inkscape:cx="-215.24105"
     inkscape:cy="396.85068"
     inkscape:window-width="1419"
     inkscape:window-height="456"
     inkscape:window-x="0"
     inkscape:window-y="25"
     inkscape:window-maximized="0"
     inkscape:current-layer="svg27988">
    <inkscape:page
       x="0"
       y="0"
       id="page27994"
       width="795.03467"
       height="793.70135" />
  </sodipodi:namedview>
  <path
     d="M 454.499 412.764 C 454.499 444.6 428.69 470.409 396.851 470.409 C 365.014 470.409 339.202 444.6 339.202 412.764 C 339.202 380.923 365.014 355.115 396.851 355.115 C 428.69 355.115 454.499 380.923 454.499 412.764"
     style="fill:#000000;fill-opacity:1;fill-rule:nonzero;stroke:none"
     id="path28108" />
  <path
     d="M 579.625 149.983 C 565.272 116.452 531.986 92.9551 493.205 92.9551 C 484.696 92.9551 476.459 94.1071 468.619 96.2271 C 457.22 67.7539 429.393 47.6339 396.851 47.6339 C 364.31 47.6339 336.482 67.7539 325.083 96.2271 C 317.243 94.1071 309.007 92.9551 300.496 92.9551 C 261.715 92.9551 228.43 116.452 214.077 149.983 C 293.198 184.06 354.23 258.06 371.867 351.454 C 378.323 348.823 385.288 347.179 392.575 346.713 L 392.575 268.317 C 392.575 265.952 394.489 264.041 396.851 264.041 C 399.208 264.041 401.124 265.952 401.124 268.317 L 401.124 346.713 C 408.413 347.179 415.377 348.823 421.836 351.454 C 439.472 258.06 500.504 184.063 579.625 149.983"
     style="fill:#000000;fill-opacity:1;fill-rule:nonzero;stroke:none"
     id="path28112" />
  <path
     d="M 203.418 157.729 C 167.094 161.018 134.462 185.414 122.478 222.298 C 119.848 230.39 118.397 238.581 117.992 246.691 C 87.3903 248.731 59.6557 268.979 49.5997 299.929 C 39.5437 330.879 50.0797 363.562 73.6343 383.2 C 69.197 390.002 65.557 397.48 62.929 405.572 C 50.945 442.455 63.0024 481.372 90.4569 505.385 C 147.318 440.67 236.555 405.49 330.83 417.578 C 330.322 410.622 330.91 403.492 332.72 396.418 L 258.161 372.191 C 255.91 371.46 254.685 369.048 255.415 366.804 C 256.145 364.562 258.553 363.33 260.803 364.06 L 335.36 388.287 C 338.056 381.499 341.772 375.382 346.272 370.054 C 262.895 324.419 211.382 243.507 203.418 157.729"
     style="fill:#000000;fill-opacity:1;fill-rule:nonzero;stroke:none"
     id="path28116" />
  <path
     d="M 94.5325 517.915 C 86.4339 553.478 99.5538 592.053 130.928 614.847 C 137.814 619.849 145.152 623.759 152.74 626.655 C 145.226 656.388 155.912 689.021 182.24 708.149 C 208.567 727.278 242.907 727.354 268.863 711.021 C 273.96 717.344 279.948 723.117 286.832 728.117 C 318.207 750.912 358.947 751.472 390.266 732.778 C 346.288 658.704 340.405 562.964 381.037 477.038 C 374.264 475.371 367.664 472.61 361.494 468.702 L 315.412 532.126 C 314.024 534.04 311.352 534.462 309.443 533.071 C 307.535 531.683 307.108 529.014 308.499 527.098 L 354.577 463.675 C 348.953 459.016 344.285 453.592 340.609 447.665 C 271.444 512.86 178.574 536.85 94.5325 517.915"
     style="fill:#000000;fill-opacity:1;fill-rule:nonzero;stroke:none"
     id="path28120" />
  <path
     d="M 403.441 732.774 C 434.762 751.469 475.502 750.91 506.877 728.115 C 513.761 723.113 519.749 717.342 524.846 711.019 C 550.802 727.355 585.141 727.274 611.468 708.146 C 637.796 689.019 648.482 656.386 640.968 626.652 C 648.556 623.756 655.896 619.848 662.779 614.845 C 694.155 592.05 707.275 553.474 699.178 517.913 C 615.136 536.848 522.263 512.857 453.1 447.663 C 449.422 453.587 444.756 459.015 439.134 463.673 L 485.211 527.095 C 486.602 529.009 486.178 531.681 484.267 533.069 C 482.358 534.454 479.689 534.034 478.295 532.121 L 432.217 468.696 C 426.046 472.605 419.446 475.368 412.673 477.032 C 453.302 562.962 447.42 658.698 403.441 732.774"
     style="fill:#000000;fill-opacity:1;fill-rule:nonzero;stroke:none"
     id="path28124" />
  <path
     d="M 703.245 505.381 C 730.702 481.368 742.76 442.452 730.776 405.569 C 728.146 397.477 724.508 389.997 720.069 383.199 C 743.626 363.56 754.162 330.876 744.106 299.926 C 734.049 268.978 706.316 248.73 675.716 246.687 C 675.306 238.576 673.856 230.386 671.226 222.295 C 659.242 185.411 626.611 161.014 590.285 157.725 C 582.325 243.503 530.809 324.417 447.434 370.049 C 451.932 375.379 455.65 381.492 458.342 388.28 L 532.903 364.056 C 535.152 363.325 537.559 364.553 538.289 366.799 C 539.017 369.043 537.793 371.453 535.543 372.187 L 460.984 396.411 C 462.794 403.488 463.384 410.619 462.874 417.575 C 557.151 405.485 646.384 440.665 703.245 505.381"
     style="fill:#000000;fill-opacity:1;fill-rule:nonzero;stroke:none"
     id="path28128" />
</svg>
