<?xml version="1.0" encoding="UTF-8" standalone="no"?>
<!-- Created with Inkscape (http://www.inkscape.org/) -->

<svg
   version="1.1"
   id="svg34690"
   width="795.03467"
   height="793.70135"
   viewBox="0 0 795.03467 793.70135"
   sodipodi:docname="Ken Karabana Kuzushi.svg"
   inkscape:version="1.2 (dc2aeda, 2022-05-15)"
   xmlns:inkscape="http://www.inkscape.org/namespaces/inkscape"
   xmlns:sodipodi="http://sodipodi.sourceforge.net/DTD/sodipodi-0.dtd"
   xmlns="http://www.w3.org/2000/svg"
   xmlns:svg="http://www.w3.org/2000/svg">
  <defs
     id="defs34694">
    <clipPath
       clipPathUnits="userSpaceOnUse"
       id="clipPath35253">
      <path
         d="M -545.417,584.5729 H 50.859001 V -10.7031 H -545.417 Z"
         id="path35255"
         style="stroke-width:0.999998" />
    </clipPath>
    <clipPath
       clipPathUnits="userSpaceOnUse"
       id="clipPath35259">
      <path
         d="M -553.8975,585.8483 H 42.378504 V -9.4277027 H -553.8975 Z"
         id="path35261"
         style="stroke-width:0.999998" />
    </clipPath>
    <clipPath
       clipPathUnits="userSpaceOnUse"
       id="clipPath35265">
      <path
         d="M -542.9326,584.5729 H 53.343399 V -10.7031 H -542.9326 Z"
         id="path35267"
         style="stroke-width:0.999998" />
    </clipPath>
    <clipPath
       clipPathUnits="userSpaceOnUse"
       id="clipPath35271">
      <path
         d="M -528.0898,575.3815 H 68.186199 V -19.8945 H -528.0898 Z"
         id="path35273"
         style="stroke-width:0.999998" />
    </clipPath>
    <clipPath
       clipPathUnits="userSpaceOnUse"
       id="clipPath35277">
      <path
         d="M -536.6982,584.5729 H 59.577804 V -10.7031 H -536.6982 Z"
         id="path35279"
         style="stroke-width:0.999998" />
    </clipPath>
    <clipPath
       clipPathUnits="userSpaceOnUse"
       id="clipPath35283">
      <path
         d="M -548.9834,585.8522 H 47.292601 V -9.4238027 H -548.9834 Z"
         id="path35285"
         style="stroke-width:0.999998" />
    </clipPath>
    <clipPath
       clipPathUnits="userSpaceOnUse"
       id="clipPath35289">
      <path
         d="M -540.8213,585.8483 H 55.454701 V -9.4277027 H -540.8213 Z"
         id="path35291"
         style="stroke-width:0.999998" />
    </clipPath>
    <clipPath
       clipPathUnits="userSpaceOnUse"
       id="clipPath35295">
      <path
         d="M -531.1924,581.5885 H 65.083599 V -13.6875 H -531.1924 Z"
         id="path35297"
         style="stroke-width:0.999998" />
    </clipPath>
    <clipPath
       clipPathUnits="userSpaceOnUse"
       id="clipPath35301">
      <path
         d="M -557.0645,585.8483 H 39.211501 V -9.4277027 H -557.0645 Z"
         id="path35303"
         style="stroke-width:0.999998" />
    </clipPath>
    <clipPath
       clipPathUnits="userSpaceOnUse"
       id="clipPath35307">
      <path
         d="M -561.4131,585.8522 H 34.862903 V -9.4238027 H -561.4131 Z"
         id="path35309"
         style="stroke-width:0.999998" />
    </clipPath>
    <clipPath
       clipPathUnits="userSpaceOnUse"
       id="clipPath35313">
      <path
         d="M -564.5732,585.8483 H 31.702801 V -9.4277027 H -564.5732 Z"
         id="path35315"
         style="stroke-width:0.999998" />
    </clipPath>
    <clipPath
       clipPathUnits="userSpaceOnUse"
       id="clipPath35319">
      <path
         d="M -567.7754,585.8522 H 28.500601 V -9.4238027 H -567.7754 Z"
         id="path35321"
         style="stroke-width:0.999998" />
    </clipPath>
    <clipPath
       clipPathUnits="userSpaceOnUse"
       id="clipPath35326">
      <path
         d="M -572.8174,586.1354 H 23.458606 V -9.1406027 H -572.8174 Z"
         id="path35328"
         style="stroke-width:0.999998" />
    </clipPath>
    <clipPath
       clipPathUnits="userSpaceOnUse"
       id="clipPath35332">
      <path
         d="M -574.5459,585.8522 H 21.730103 V -9.4238027 H -574.5459 Z"
         id="path35334"
         style="stroke-width:0.999998" />
    </clipPath>
    <clipPath
       clipPathUnits="userSpaceOnUse"
       id="clipPath35338">
      <path
         d="M -576.3691,585.5885 H 19.906905 V -9.6875027 H -576.3691 Z"
         id="path35340"
         style="stroke-width:0.999998" />
    </clipPath>
    <clipPath
       clipPathUnits="userSpaceOnUse"
       id="clipPath35344">
      <path
         d="M -557.4951,577.8502 H 38.780903 V -17.4258 H -557.4951 Z"
         id="path35346"
         style="stroke-width:0.999998" />
    </clipPath>
    <clipPath
       clipPathUnits="userSpaceOnUse"
       id="clipPath35350">
      <path
         d="M -568.2266,575.819 H 28.049401 V -19.457003 H -568.2266 Z"
         id="path35352"
         style="stroke-width:0.999998" />
    </clipPath>
    <clipPath
       clipPathUnits="userSpaceOnUse"
       id="clipPath35356">
      <path
         d="M -550.2637,577.3248 H 46.012306 V -17.951198 H -550.2637 Z"
         id="path35358"
         style="stroke-width:0.999998" />
    </clipPath>
    <clipPath
       clipPathUnits="userSpaceOnUse"
       id="clipPath35363">
      <path
         d="M -556.4014,578.0143 H 39.874606 V -17.2617 H -556.4014 Z"
         id="path35365"
         style="stroke-width:0.999998" />
    </clipPath>
    <clipPath
       clipPathUnits="userSpaceOnUse"
       id="clipPath35369">
      <path
         d="M -586.5449,579.5026 H 9.7311002 V -15.7734 H -586.5449 Z"
         id="path35371"
         style="stroke-width:0.999998" />
    </clipPath>
    <clipPath
       clipPathUnits="userSpaceOnUse"
       id="clipPath35375">
      <path
         d="M -584.1943,578.9381 H 12.081705 V -16.337903 H -584.1943 Z"
         id="path35377"
         style="stroke-width:0.999998" />
    </clipPath>
    <clipPath
       clipPathUnits="userSpaceOnUse"
       id="clipPath35381">
      <path
         d="M -538.2217,577.9479 H 58.054299 V -17.328098 H -538.2217 Z"
         id="path35383"
         style="stroke-width:0.999998" />
    </clipPath>
    <clipPath
       clipPathUnits="userSpaceOnUse"
       id="clipPath35387">
      <path
         d="m -337.0156,318.8756 h 596.276 v -595.276 h -596.276 z"
         id="path35389"
         style="stroke-width:0.999998" />
    </clipPath>
    <clipPath
       clipPathUnits="userSpaceOnUse"
       id="clipPath35393">
      <path
         d="m -297.6377,122.9767 h 596.276 v -595.276 h -596.276 z"
         id="path35395"
         style="stroke-width:0.999998" />
    </clipPath>
    <clipPath
       clipPathUnits="userSpaceOnUse"
       id="clipPath35399">
      <path
         d="m -111.3271,258.34 h 596.276 v -595.276 h -596.276 z"
         id="path35401"
         style="stroke-width:0.999998" />
    </clipPath>
    <clipPath
       clipPathUnits="userSpaceOnUse"
       id="clipPath35405">
      <path
         d="m -182.4932,477.36 h 596.276 v -595.276 h -596.276 z"
         id="path35407"
         style="stroke-width:0.999998" />
    </clipPath>
    <clipPath
       clipPathUnits="userSpaceOnUse"
       id="clipPath35411">
      <path
         d="m -412.7842,477.36 h 596.276 v -595.276 h -596.276 z"
         id="path35413"
         style="stroke-width:0.999998" />
    </clipPath>
    <clipPath
       clipPathUnits="userSpaceOnUse"
       id="clipPath35417">
      <path
         d="m -483.9473,258.34 h 596.276 v -595.276 h -596.276 z"
         id="path35419"
         style="stroke-width:0.999998" />
    </clipPath>
  </defs>
  <sodipodi:namedview
     id="namedview34692"
     pagecolor="#ffffff"
     bordercolor="#000000"
     borderopacity="0.25"
     inkscape:showpageshadow="2"
     inkscape:pageopacity="0.0"
     inkscape:pagecheckerboard="0"
     inkscape:deskcolor="#d1d1d1"
     showgrid="false"
     inkscape:zoom="0.29734106"
     inkscape:cx="-215.24105"
     inkscape:cy="396.85068"
     inkscape:window-width="1419"
     inkscape:window-height="456"
     inkscape:window-x="0"
     inkscape:window-y="25"
     inkscape:window-maximized="0"
     inkscape:current-layer="svg34690">
    <inkscape:page
       x="0"
       y="0"
       id="page34696"
       width="795.03467"
       height="793.70135" />
  </sodipodi:namedview>
  <path
     d="M 449.354 425.167 C 449.354 454.164 425.847 477.67 396.85 477.67 C 367.853 477.67 344.348 454.164 344.348 425.167 C 344.348 396.168 367.853 372.664 396.85 372.664 C 425.847 372.664 449.354 396.168 449.354 425.167"
     style="fill:#000000;fill-opacity:1;fill-rule:nonzero;stroke:none"
     id="path34810" />
  <path
     d="M 396.85 163.969 L 445.642 199.42 C 420.119 228.632 406.725 264.015 406.725 301.839 L 406.725 364.651 C 411.723 365.46 416.517 366.87 421.034 368.81 L 524.876 225.881 C 548.25 193.685 541.098 148.638 508.902 125.264 C 493.752 114.264 475.758 110.029 458.515 111.977 C 453.455 82.4892 427.782 60.0453 396.85 60.0453 C 365.918 60.0453 340.246 82.4892 335.186 111.977 C 317.942 110.029 299.948 114.264 284.798 125.264 C 252.602 148.638 245.45 193.685 268.824 225.881 L 372.667 368.81 C 377.183 366.87 381.978 365.46 386.975 364.651 L 386.975 301.839 C 386.975 264.015 373.581 228.632 348.058 199.42 Z"
     style="fill:#000000;fill-opacity:1;fill-rule:nonzero;stroke:none"
     id="path34814" />
  <path
     d="M 148.436 344.453 L 197.228 309.004 C 217.125 342.305 246.638 365.977 282.612 377.664 C 300.676 383.536 321.157 390.19 342.348 397.076 C 344.662 392.573 347.485 388.448 350.725 384.753 L 246.881 241.825 C 223.482 209.647 178.431 202.528 146.251 225.925 C 131.108 236.933 121.519 252.739 118.044 269.74 C 88.4362 265.44 59.1562 282.92 49.5989 312.338 C 40.0403 341.756 53.4522 373.108 79.9335 387.034 C 72.7522 402.829 71.2202 421.253 76.9988 439.061 C 89.2815 476.901 129.912 497.625 167.756 485.343 L 335.78 430.753 C 335.329 425.857 335.47 420.862 336.245 415.859 C 315.054 408.974 294.574 402.318 276.508 396.449 C 240.534 384.76 202.743 386.565 167.075 401.81 Z"
     style="fill:#000000;fill-opacity:1;fill-rule:nonzero;stroke:none"
     id="path34818" />
  <path
     d="M 243.324 636.48 L 224.685 579.123 C 262.504 570.491 294.139 549.738 316.372 519.136 C 327.537 503.77 340.194 486.347 353.293 468.322 C 349.725 464.728 346.676 460.77 344.161 456.546 L 176.139 511.142 C 138.304 523.452 117.614 564.098 129.919 601.933 C 135.712 619.737 147.78 633.737 162.874 642.297 C 149.635 669.128 157.212 702.379 182.237 720.558 C 207.261 738.737 241.225 735.673 262.649 714.789 C 275.455 726.501 292.503 733.652 311.222 733.66 C 351.01 733.67 383.274 701.431 383.288 661.647 L 383.29 484.975 C 378.496 483.892 373.79 482.212 369.269 479.931 C 356.174 497.956 343.514 515.379 332.35 530.746 C 310.118 561.344 300.156 597.847 303.631 636.48 Z"
     style="fill:#000000;fill-opacity:1;fill-rule:nonzero;stroke:none"
     id="path34822" />
  <path
     d="M 550.379 636.48 L 490.07 636.48 C 493.547 597.847 483.583 561.344 461.351 530.746 C 450.186 515.379 437.527 497.956 424.433 479.931 C 419.913 482.212 415.206 483.89 410.411 484.975 L 410.414 661.644 C 410.429 701.431 442.691 733.67 482.479 733.66 C 501.2 733.652 518.247 726.501 531.052 714.789 C 552.479 735.673 586.44 738.737 611.464 720.558 C 636.488 702.376 644.067 669.128 630.828 642.297 C 645.921 633.737 657.991 619.735 663.783 601.933 C 676.089 564.098 655.399 523.45 617.563 511.142 L 449.542 456.546 C 447.029 460.77 443.978 464.728 440.409 468.322 C 453.507 486.347 466.165 503.77 477.33 519.136 C 499.563 549.738 531.196 570.491 569.016 579.123 Z"
     style="fill:#000000;fill-opacity:1;fill-rule:nonzero;stroke:none"
     id="path34826" />
  <path
     d="M 645.263 344.453 L 626.626 401.81 C 590.958 386.564 553.167 384.76 517.194 396.448 C 499.127 402.318 478.646 408.974 457.457 415.857 C 458.23 420.862 458.37 425.857 457.921 430.75 L 625.944 485.343 C 663.788 497.625 704.42 476.901 716.703 439.058 C 722.481 421.251 720.948 402.829 713.767 387.033 C 740.249 373.106 753.661 341.756 744.103 312.338 C 734.544 282.92 705.266 265.439 675.656 269.737 C 672.18 252.739 662.592 236.932 647.452 225.923 C 615.27 202.527 570.218 209.645 546.822 241.824 L 442.974 384.75 C 446.217 388.446 449.038 392.57 451.351 397.076 C 472.542 390.189 493.023 383.536 511.09 377.664 C 547.063 365.977 576.575 342.302 596.474 309.004 Z"
     style="fill:#000000;fill-opacity:1;fill-rule:nonzero;stroke:none"
     id="path34830" />
</svg>
