<?xml version="1.0" encoding="UTF-8" standalone="no"?>
<!-- Created with Inkscape (http://www.inkscape.org/) -->

<svg
   version="1.1"
   id="svg38266"
   width="793.70135"
   height="1122.52"
   viewBox="0 0 793.70135 1122.52"
   sodipodi:docname="Kokumochi Jinuki Karabana.svg"
   inkscape:version="1.2 (dc2aeda, 2022-05-15)"
   xmlns:inkscape="http://www.inkscape.org/namespaces/inkscape"
   xmlns:sodipodi="http://sodipodi.sourceforge.net/DTD/sodipodi-0.dtd"
   xmlns="http://www.w3.org/2000/svg"
   xmlns:svg="http://www.w3.org/2000/svg">
  <defs
     id="defs38270">
    <clipPath
       clipPathUnits="userSpaceOnUse"
       id="clipPath38421">
      <path
         d="M -502.4561,474.2211 H 92.819897 v -841.89 H -502.4561 Z"
         id="path38423"
         style="stroke-width:0.999998" />
    </clipPath>
  </defs>
  <sodipodi:namedview
     id="namedview38268"
     pagecolor="#ffffff"
     bordercolor="#000000"
     borderopacity="0.25"
     inkscape:showpageshadow="2"
     inkscape:pageopacity="0.0"
     inkscape:pagecheckerboard="0"
     inkscape:deskcolor="#d1d1d1"
     showgrid="false"
     inkscape:zoom="0.21024124"
     inkscape:cx="-470.88764"
     inkscape:cy="561.26002"
     inkscape:window-width="1419"
     inkscape:window-height="456"
     inkscape:window-x="0"
     inkscape:window-y="25"
     inkscape:window-maximized="0"
     inkscape:current-layer="svg38266">
    <inkscape:page
       x="0"
       y="0"
       id="page38272"
       width="793.70135"
       height="1122.52" />
  </sodipodi:namedview>
  <path
     d="M 669.941 632.295 C 658.16 636.119 646.054 635.927 635.096 632.442 C 571.796 611.875 496.051 587.271 447.464 571.503 C 448.967 564.475 449.063 557.063 447.496 549.685 L 524.357 524.706 C 527.228 523.767 528.789 520.681 527.859 517.807 C 526.923 514.933 523.851 513.363 520.964 514.285 L 444.107 539.249 C 441.034 532.357 436.608 526.423 431.263 521.626 C 461.303 480.298 508.115 415.876 547.247 362.026 C 554.049 352.772 563.735 345.508 575.516 341.678 C 605.473 332.001 637.572 348.352 647.362 378.284 C 650.137 386.838 650.785 395.561 649.597 403.91 L 649.346 405.604 L 651.052 405.476 C 651.116 405.526 698.484 401.75 716.288 456.579 C 734.113 511.409 693.566 536.194 693.556 536.285 L 692.112 537.169 L 693.288 538.39 C 699.162 544.446 703.774 551.885 706.544 560.45 C 716.224 590.408 699.868 622.514 669.941 632.295 M 647.192 743.137 C 639.913 748.424 631.82 751.732 623.514 753.187 L 621.825 753.469 L 622.47 755.051 C 622.445 755.127 640.672 799.015 594.031 832.885 C 547.389 866.784 511.289 835.878 511.197 835.896 L 509.911 834.8 L 509.113 836.296 C 505.169 843.753 499.52 850.433 492.229 855.72 C 466.728 874.182 431.14 868.548 412.587 843.11 C 405.312 833.089 401.752 821.512 401.684 810.015 C 401.684 743.453 401.674 663.815 401.658 612.735 C 408.803 611.99 415.886 609.795 422.416 606.024 L 469.93 671.402 C 471.704 673.844 475.125 674.378 477.573 672.602 C 480.016 670.823 480.555 667.415 478.792 664.959 L 431.296 599.575 C 436.903 594.524 441.174 588.476 444.086 581.912 C 492.679 597.711 568.407 622.322 631.713 642.899 C 642.617 646.51 652.526 653.48 659.806 663.499 C 678.268 689 672.636 724.58 647.192 743.137 M 351.014 560.595 C 351.014 535.647 371.239 515.421 396.184 515.421 C 421.13 515.421 441.355 535.647 441.355 560.595 C 441.355 585.543 421.13 605.767 396.184 605.767 C 371.239 605.767 351.014 585.543 351.014 560.595 M 390.694 810.031 C 390.631 821.517 387.06 833.089 379.78 843.11 C 361.232 868.548 325.657 874.188 300.138 855.725 C 292.863 850.438 287.214 843.758 283.27 836.308 L 282.478 834.789 L 281.175 835.896 C 281.094 835.889 244.983 866.789 198.358 832.897 C 151.708 799.015 169.944 755.132 169.902 755.051 L 170.544 753.487 L 168.876 753.192 C 160.569 751.743 152.466 748.433 145.186 743.137 C 119.744 724.588 114.11 689 132.566 663.499 C 139.852 653.48 149.761 646.518 160.67 642.899 C 223.977 622.326 299.711 597.712 348.287 581.91 C 351.204 588.479 355.48 594.535 361.083 599.582 L 313.586 664.967 C 311.813 667.415 312.369 670.83 314.811 672.607 C 317.259 674.384 320.663 673.847 322.455 671.404 L 369.967 606.032 C 376.498 609.803 383.575 611.996 390.716 612.738 C 390.704 663.83 390.699 743.464 390.694 810.031 M 85.8238 560.453 C 88.6038 551.898 93.2051 544.461 99.0744 538.405 L 100.272 537.183 L 98.8184 536.285 C 98.8024 536.209 58.2545 511.411 76.0745 456.594 C 93.8851 401.758 141.252 405.541 141.322 405.476 L 143.01 405.604 L 142.77 403.924 C 141.584 395.577 142.225 386.849 145.016 378.286 C 154.797 348.361 186.9 332.004 216.853 341.678 C 228.634 345.508 238.318 352.785 245.129 362.042 C 284.258 415.892 331.077 480.315 361.115 521.631 C 355.77 526.434 351.328 532.373 348.26 539.261 L 271.399 514.295 C 268.523 513.363 265.445 514.942 264.509 517.818 C 263.579 520.694 265.139 523.769 268.015 524.715 L 344.866 549.699 C 343.304 557.078 343.402 564.483 344.904 571.503 C 296.311 587.284 220.573 611.887 157.256 632.45 C 146.32 635.936 134.208 636.122 122.428 632.295 C 92.5051 622.514 76.1438 590.423 85.8238 560.453 M 300.417 265.377 C 309.407 265.377 317.906 267.46 325.474 271.169 L 327.014 271.931 L 327.414 270.271 C 327.483 270.228 338.538 224.007 396.179 224.017 C 453.83 224.007 464.872 270.228 464.959 270.271 L 465.355 271.917 L 466.883 271.169 C 474.452 267.46 482.951 265.377 491.956 265.377 C 523.439 265.433 548.917 290.913 548.971 322.393 C 548.971 334.78 545.037 346.237 538.347 355.577 C 499.22 409.432 452.419 473.861 422.402 515.199 C 416.186 511.599 409.167 509.211 401.668 508.422 L 401.658 427.61 C 401.658 424.585 399.203 422.145 396.179 422.145 C 393.154 422.145 390.716 424.585 390.704 427.61 L 390.694 508.422 C 383.191 509.211 376.178 511.597 369.967 515.194 C 339.938 473.855 293.137 409.429 254.011 355.568 C 247.319 346.237 243.397 334.78 243.397 322.393 C 243.455 290.913 268.923 265.433 300.417 265.377 M 396.184 209.008 C 202.009 209.008 44.5986 366.42 44.5986 560.595 C 44.5986 754.768 202.009 912.18 396.184 912.18 C 590.357 912.18 747.77 754.768 747.77 560.595 C 747.77 366.42 590.357 209.008 396.184 209.008"
     style="fill:#231f20;fill-opacity:1;fill-rule:nonzero;stroke:none"
     id="path38286" />
</svg>
