<?xml version="1.0" encoding="UTF-8" standalone="no"?>
<!-- Created with Inkscape (http://www.inkscape.org/) -->

<svg
   version="1.1"
   id="svg35658"
   width="793.70135"
   height="793.70135"
   viewBox="0 0 793.70135 793.70135"
   sodipodi:docname="Maruni Tyuukage Karabana.svg"
   inkscape:version="1.2 (dc2aeda, 2022-05-15)"
   xmlns:inkscape="http://www.inkscape.org/namespaces/inkscape"
   xmlns:sodipodi="http://sodipodi.sourceforge.net/DTD/sodipodi-0.dtd"
   xmlns="http://www.w3.org/2000/svg"
   xmlns:svg="http://www.w3.org/2000/svg">
  <defs
     id="defs35662">
    <clipPath
       clipPathUnits="userSpaceOnUse"
       id="clipPath35827">
      <path
         d="m -370.7881,387.5648 h 595.276 v -841.89 h -595.276 z"
         id="path35829"
         style="stroke-width:0.999998" />
    </clipPath>
    <clipPath
       clipPathUnits="userSpaceOnUse"
       id="clipPath35833">
      <path
         d="m -142.0381,265.3431 h 595.276 v -841.89 h -595.276 z"
         id="path35835"
         style="stroke-width:0.999998" />
    </clipPath>
  </defs>
  <sodipodi:namedview
     id="namedview35660"
     pagecolor="#ffffff"
     bordercolor="#000000"
     borderopacity="0.25"
     inkscape:showpageshadow="2"
     inkscape:pageopacity="0.0"
     inkscape:pagecheckerboard="0"
     inkscape:deskcolor="#d1d1d1"
     showgrid="false"
     inkscape:zoom="0.21024124"
     inkscape:cx="-1234.2964"
     inkscape:cy="561.26001"
     inkscape:window-width="1419"
     inkscape:window-height="456"
     inkscape:window-x="0"
     inkscape:window-y="25"
     inkscape:window-maximized="0"
     inkscape:current-layer="svg35658">
    <inkscape:page
       x="0"
       y="0"
       id="page35664"
       width="793.70135"
       height="793.70135" />
  </sodipodi:namedview>
  <path
     d="m 494.384,354.753 c -6.896,2.243 -38.539,15.1 -55.385,22.739 1.19,2.294 2.233,4.7 3.057,7.229 0.785,2.407 1.331,4.829 1.732,7.249 18.124,-3.725 51.204,-11.909 58.095,-14.142 7.033,-2.282 10.674,-8.451 8.392,-15.483 -2.288,-7.031 -8.858,-9.877 -15.891,-7.592 m -98.205,-3.349 c 2.533,0 5.013,0.222 7.429,0.594 2.064,-18.394 4.512,-52.386 4.512,-59.629 0,-7.396 -4.746,-12.758 -12.133,-12.758 -7.393,0 -12.133,5.362 -12.133,12.758 0,7.252 2.452,41.319 4.51,59.697 2.55,-0.416 5.159,-0.662 7.815,-0.662 m 28.36,87.234 c -2.052,1.488 -4.175,2.765 -6.371,3.891 9.156,16.09 27.153,45.028 31.419,50.882 4.34,5.986 11.33,7.544 17.313,3.194 5.98,-4.346 6.653,-11.471 2.313,-17.451 -4.27,-5.865 -26.27,-31.985 -38.741,-45.648 -1.817,1.839 -3.782,3.571 -5.933,5.132 m 12.342,-39.013 c 0,-22.471 -18.215,-40.687 -40.691,-40.687 -22.476,0 -40.682,18.216 -40.682,40.687 0,22.478 18.206,40.697 40.682,40.697 22.476,0 40.691,-18.219 40.691,-40.697 M 297.856,355.141 c -7.027,-2.285 -13.597,0.564 -15.879,7.595 -2.287,7.029 1.364,13.194 8.397,15.48 6.884,2.238 40.05,10.436 58.164,14.158 0.39,-2.557 0.957,-5.112 1.78,-7.638 0.786,-2.41 1.76,-4.695 2.872,-6.887 -16.871,-7.643 -48.434,-20.471 -55.334,-22.708 m 64.33,78.657 c -12.483,13.675 -34.435,39.737 -38.695,45.593 -4.34,5.982 -3.667,13.112 2.315,17.456 5.981,4.344 12.968,2.786 17.318,-3.196 4.25,-5.864 22.294,-34.869 31.435,-50.948 -2.305,-1.157 -4.56,-2.493 -6.713,-4.052 -2.043,-1.49 -3.924,-3.124 -5.66,-4.853 M 618.132,368.69 c 0,0 10.44,27.394 -6.19,47.31 -14.832,17.782 -46.833,16.947 -78.93,10.222 -22.657,-4.749 -66.028,-12.638 -89.6,-16.858 -0.693,3.42 -1.769,6.676 -3.143,9.786 21.499,10.417 61.383,29.637 82.566,39.141 29.926,13.422 56.31,31.558 57.859,54.67 1.743,25.885 -22.811,41.915 -22.811,41.915 0,0 8.915,28.692 -15.122,46.155 -24.025,17.452 -48.565,0.112 -48.565,0.112 0,0 -22.824,18.397 -46.903,8.749 -21.497,-8.62 -30.595,-39.314 -34.117,-71.925 -2.48,-22.974 -9.017,-66.613 -12.288,-90.365 -1.754,0.195 -6.002,0.112 -7.798,0.112 -1.663,0 -1.192,-0.151 -2.812,-0.313 -3.266,23.673 -8.254,67.726 -10.75,90.808 -3.521,32.606 -12.602,63.302 -34.112,71.925 -24.078,9.646 -46.912,-8.75 -46.912,-8.75 0,0 -24.529,17.343 -48.565,-0.112 -24.026,-17.462 -15.116,-46.16 -15.116,-46.16 0,0 -24.556,-16.027 -22.813,-41.911 1.561,-23.11 27.928,-41.24 57.849,-54.672 21.114,-9.47 60.828,-28.598 82.384,-39.039 -1.395,-3.09 -2.453,-6.358 -3.18,-9.756 -23.513,4.211 -67.086,12.112 -89.814,16.876 -32.107,6.727 -64.108,7.567 -78.946,-10.218 -16.617,-19.918 -6.178,-47.32 -6.178,-47.32 0,0 -24.073,-17.972 -14.897,-46.224 9.178,-28.246 39.222,-28.635 39.222,-28.635 0,0 7.649,-28.305 32.813,-34.649 22.455,-5.661 47.85,13.817 69.875,38.128 15.517,17.14 45.962,48.978 62.569,66.257 2.519,-2.284 5.315,-4.308 8.275,-6.029 -11.294,-21.079 -32.231,-60.071 -43.776,-80.196 -16.312,-28.452 -27.003,-58.623 -14.672,-78.233 13.801,-21.966 43.092,-20.499 43.092,-20.499 0,0 9.658,-28.454 39.361,-28.454 29.697,0 39.361,28.454 39.361,28.454 0,0 29.275,-1.467 43.085,20.499 12.326,19.61 1.642,49.781 -14.672,78.233 -11.513,20.072 -32.402,58.878 -43.701,79.998 2.999,1.714 5.806,3.712 8.349,6.003 16.564,-17.248 47.138,-49.231 62.708,-66.42 22.012,-24.312 47.416,-43.794 69.866,-38.132 25.158,6.343 32.818,34.649 32.818,34.649 0,0 30.045,0.394 39.227,28.639 9.166,28.249 -14.896,46.229 -14.896,46.229 m 37.49,13.491 c 0.94,-1.373 1.898,-2.833 2.827,-4.38 5.757,-9.557 10.493,-22.733 10.461,-38.308 0.004,-8.715 -1.448,-18.06 -4.597,-27.744 -7.035,-22.221 -20.909,-37.449 -34.716,-45.501 -4.747,-2.817 -9.387,-4.877 -13.732,-6.399 -0.391,-1.544 -0.823,-3.086 -1.32,-4.624 -10.357,-30.466 -45.54,-46.408 -73.692,-46.584 -1.593,-15.981 -15.906,-29.504 -26.564,-40.593 -12.033,-12.44 -29.26,-21.216 -48.966,-21.245 -1.615,0 -3.219,0.059 -4.822,0.168 -2.768,-3.661 -6.178,-7.436 -10.326,-11.083 -11.92,-10.634 -30.676,-19.117 -53.985,-18.952 -23.31,-0.165 -42.066,8.318 -53.986,18.952 -4.153,3.647 -7.557,7.422 -10.326,11.083 -1.598,-0.109 -3.207,-0.168 -4.822,-0.168 -19.712,0.029 -36.933,8.805 -48.965,21.245 -10.636,11.067 -17.958,25.368 -19.573,41.32 -4.651,-1.02 -9.355,-1.499 -13.995,-1.499 -28.157,0.182 -56.346,16.884 -66.7,47.352 -0.497,1.536 -0.936,3.082 -1.325,4.628 -4.336,1.522 -8.969,3.584 -13.721,6.404 -13.801,8.052 -27.66,23.272 -34.716,45.48 -3.153,9.693 -4.607,19.04 -4.596,27.757 -0.037,15.57 4.708,28.759 10.455,38.316 0.936,1.544 1.881,3.007 2.832,4.38 -0.604,1.482 -1.144,2.991 -1.656,4.528 -2.171,6.724 -3.208,13.603 -3.208,20.316 0.417,28.088 16.425,52.94 41.553,64.161 -6.292,10.758 -9.167,22.827 -9.183,34.739 0,20.559 8.749,42.215 27.843,56.194 1.298,0.946 2.613,1.836 3.965,2.68 0.027,17.846 8.595,43.86 34.401,62.124 16.28,11.94 33.566,16.783 48.266,16.686 8.134,-0.02 15.318,-1.335 21.422,-3.184 1.235,1.036 2.496,2.025 3.807,2.976 12.084,8.782 26.169,12.657 39.573,12.657 h 0.097 c 19.76,-0.128 38.982,-7.904 52.542,-23.053 13.556,15.202 32.802,22.925 52.563,23.053 h 0.096 c 13.415,0 27.479,-3.88 39.554,-12.647 1.325,-0.961 2.586,-1.95 3.826,-2.976 6.11,1.843 13.283,3.154 21.439,3.174 14.677,0.097 31.975,-4.767 48.228,-16.666 25.833,-18.278 34.396,-44.298 34.422,-62.144 1.358,-0.836 2.672,-1.726 3.955,-2.664 19.104,-13.995 27.855,-35.639 27.855,-56.199 -0.028,-11.935 -2.924,-23.974 -9.232,-34.744 25.186,-11.211 41.178,-36.063 41.585,-64.161 0,-6.706 -1.021,-13.563 -3.187,-20.282 -0.506,-1.548 -1.057,-3.077 -1.656,-4.573"
     style="fill:#231f20;fill-opacity:1;fill-rule:nonzero;stroke:none"
     id="path35678" />
  <path
     d="m 189.384,191.791 c -52.969,53.017 -85.644,125.942 -85.654,206.797 0.01,80.853 32.685,153.786 85.654,206.81 53.028,52.969 125.956,85.638 206.805,85.648 80.854,-0.01 153.782,-32.679 206.799,-85.648 52.971,-53.024 85.644,-125.957 85.655,-206.81 -0.011,-80.855 -32.684,-153.78 -85.655,-206.797 -53.017,-52.972 -125.945,-85.644 -206.799,-85.654 -80.849,0.01 -153.777,32.682 -206.805,85.654 M 43.5124,398.588 C 43.539,203.812 201.405,45.943 396.189,45.922 590.967,45.943 748.833,203.812 748.855,398.588 748.833,593.371 590.967,751.243 396.189,751.263 201.405,751.243 43.539,593.371 43.5124,398.588"
     style="fill:#231f20;fill-opacity:1;fill-rule:nonzero;stroke:none"
     id="path35682" />
</svg>
