<?xml version="1.0" encoding="UTF-8" standalone="no"?>
<!-- Created with Inkscape (http://www.inkscape.org/) -->

<svg
   version="1.1"
   id="svg23862"
   width="795.03467"
   height="793.70135"
   viewBox="0 0 795.03467 793.70135"
   sodipodi:docname="Mitsuwari Karabanani Kenhanabishi.svg"
   inkscape:version="1.2 (dc2aeda, 2022-05-15)"
   xmlns:inkscape="http://www.inkscape.org/namespaces/inkscape"
   xmlns:sodipodi="http://sodipodi.sourceforge.net/DTD/sodipodi-0.dtd"
   xmlns="http://www.w3.org/2000/svg"
   xmlns:svg="http://www.w3.org/2000/svg">
  <defs
     id="defs23866">
    <clipPath
       clipPathUnits="userSpaceOnUse"
       id="clipPath24631">
      <path
         d="M -586.5449,579.5026 H 9.7311002 V -15.7734 H -586.5449 Z"
         id="path24633"
         style="stroke-width:0.999998" />
    </clipPath>
    <clipPath
       clipPathUnits="userSpaceOnUse"
       id="clipPath24637">
      <path
         d="M -536.6982,584.5729 H 59.577804 V -10.7031 H -536.6982 Z"
         id="path24639"
         style="stroke-width:0.999998" />
    </clipPath>
    <clipPath
       clipPathUnits="userSpaceOnUse"
       id="clipPath24643">
      <path
         d="m -294.4756,61.8302 h 596.27601 v -595.276 H -294.4756 Z"
         id="path24645"
         style="stroke-width:0.999998" />
    </clipPath>
    <clipPath
       clipPathUnits="userSpaceOnUse"
       id="clipPath24649">
      <path
         d="m -62.0615,157.9747 h 596.276 v -595.276 h -596.276 z"
         id="path24651"
         style="stroke-width:0.999998" />
    </clipPath>
    <clipPath
       clipPathUnits="userSpaceOnUse"
       id="clipPath24655">
      <path
         d="m -503.4346,412.8033 h 596.276 v -595.276 h -596.276 z"
         id="path24657"
         style="stroke-width:0.999998" />
    </clipPath>
    <clipPath
       clipPathUnits="userSpaceOnUse"
       id="clipPath24661">
      <path
         d="M -531.1924,581.5885 H 65.083599 V -13.6875 H -531.1924 Z"
         id="path24663"
         style="stroke-width:0.999998" />
    </clipPath>
    <clipPath
       clipPathUnits="userSpaceOnUse"
       id="clipPath24667">
      <path
         d="m -507.2119,418.6354 h 596.276 v -595.276 h -596.276 z"
         id="path24669"
         style="stroke-width:0.999998" />
    </clipPath>
    <clipPath
       clipPathUnits="userSpaceOnUse"
       id="clipPath24673">
      <path
         d="m -251.5264,297.6349 h 596.27601 v -595.276 H -251.5264 Z"
         id="path24675"
         style="stroke-width:0.999998" />
    </clipPath>
    <clipPath
       clipPathUnits="userSpaceOnUse"
       id="clipPath24679">
      <path
         d="M -533.2139,157.9747 H 63.062102 v -595.276 H -533.2139 Z"
         id="path24681"
         style="stroke-width:0.999998" />
    </clipPath>
    <clipPath
       clipPathUnits="userSpaceOnUse"
       id="clipPath24685">
      <path
         d="m -261.7803,320.6256 h 596.276 v -595.276 h -596.276 z"
         id="path24687"
         style="stroke-width:0.999998" />
    </clipPath>
    <clipPath
       clipPathUnits="userSpaceOnUse"
       id="clipPath24691">
      <path
         d="M -584.1943,578.9381 H 12.081705 V -16.337903 H -584.1943 Z"
         id="path24693"
         style="stroke-width:0.999998" />
    </clipPath>
    <clipPath
       clipPathUnits="userSpaceOnUse"
       id="clipPath24697">
      <path
         d="m -58.8975,163.4542 h 596.276 v -595.276 h -596.276 z"
         id="path24699"
         style="stroke-width:0.999998" />
    </clipPath>
    <clipPath
       clipPathUnits="userSpaceOnUse"
       id="clipPath24703">
      <path
         d="m -294.4736,571.485 h 596.276 V -23.790998 h -596.276 z"
         id="path24705"
         style="stroke-width:0.999998" />
    </clipPath>
    <clipPath
       clipPathUnits="userSpaceOnUse"
       id="clipPath24709">
      <path
         d="M -553.8975,585.8483 H 42.378504 V -9.4277027 H -553.8975 Z"
         id="path24711"
         style="stroke-width:0.999998" />
    </clipPath>
    <clipPath
       clipPathUnits="userSpaceOnUse"
       id="clipPath24715">
      <path
         d="m -95.0029,418.2819 h 596.276 v -595.276 h -596.276 z"
         id="path24717"
         style="stroke-width:0.999998" />
    </clipPath>
    <clipPath
       clipPathUnits="userSpaceOnUse"
       id="clipPath24721">
      <path
         d="m -297.6377,55.6427 h 596.276 v -595.276 h -596.276 z"
         id="path24723"
         style="stroke-width:0.999998" />
    </clipPath>
    <clipPath
       clipPathUnits="userSpaceOnUse"
       id="clipPath24727">
      <path
         d="M -88.063502,418.6354 H 508.2125 v -595.276 H -88.063502 Z"
         id="path24729"
         style="stroke-width:0.999998" />
    </clipPath>
    <clipPath
       clipPathUnits="userSpaceOnUse"
       id="clipPath24733">
      <path
         d="M -538.2217,577.9479 H 58.054299 V -17.328098 H -538.2217 Z"
         id="path24735"
         style="stroke-width:0.999998" />
    </clipPath>
    <clipPath
       clipPathUnits="userSpaceOnUse"
       id="clipPath24739">
      <path
         d="M -564.5732,585.8483 H 31.702801 V -9.4277027 H -564.5732 Z"
         id="path24741"
         style="stroke-width:0.999998" />
    </clipPath>
    <clipPath
       clipPathUnits="userSpaceOnUse"
       id="clipPath24745">
      <path
         d="M -548.9834,585.8522 H 47.292601 V -9.4238027 H -548.9834 Z"
         id="path24747"
         style="stroke-width:0.999998" />
    </clipPath>
    <clipPath
       clipPathUnits="userSpaceOnUse"
       id="clipPath24751">
      <path
         d="M -567.7754,585.8522 H 28.500601 V -9.4238027 H -567.7754 Z"
         id="path24753"
         style="stroke-width:0.999998" />
    </clipPath>
    <clipPath
       clipPathUnits="userSpaceOnUse"
       id="clipPath24757">
      <path
         d="M -536.376,163.4552 H 59.900004 v -595.276 H -536.376 Z"
         id="path24759"
         style="stroke-width:0.999998" />
    </clipPath>
    <clipPath
       clipPathUnits="userSpaceOnUse"
       id="clipPath24763">
      <path
         d="M -561.4131,585.8522 H 34.862903 V -9.4238027 H -561.4131 Z"
         id="path24765"
         style="stroke-width:0.999998" />
    </clipPath>
    <clipPath
       clipPathUnits="userSpaceOnUse"
       id="clipPath24769">
      <path
         d="M -545.417,584.5729 H 50.859001 V -10.7031 H -545.417 Z"
         id="path24771"
         style="stroke-width:0.999998" />
    </clipPath>
    <clipPath
       clipPathUnits="userSpaceOnUse"
       id="clipPath24776">
      <path
         d="M -557.0645,585.8483 H 39.211501 V -9.4277027 H -557.0645 Z"
         id="path24778"
         style="stroke-width:0.999998" />
    </clipPath>
    <clipPath
       clipPathUnits="userSpaceOnUse"
       id="clipPath24782">
      <path
         d="M -557.4951,577.8502 H 38.780903 V -17.4258 H -557.4951 Z"
         id="path24784"
         style="stroke-width:0.999998" />
    </clipPath>
    <clipPath
       clipPathUnits="userSpaceOnUse"
       id="clipPath24788">
      <path
         d="M -556.4014,578.0143 H 39.874606 V -17.2617 H -556.4014 Z"
         id="path24790"
         style="stroke-width:0.999998" />
    </clipPath>
    <clipPath
       clipPathUnits="userSpaceOnUse"
       id="clipPath24794">
      <path
         d="M -576.3691,585.5885 H 19.906905 V -9.6875027 H -576.3691 Z"
         id="path24796"
         style="stroke-width:0.999998" />
    </clipPath>
    <clipPath
       clipPathUnits="userSpaceOnUse"
       id="clipPath24801">
      <path
         d="M -528.0898,575.3815 H 68.186199 V -19.8945 H -528.0898 Z"
         id="path24803"
         style="stroke-width:0.999998" />
    </clipPath>
    <clipPath
       clipPathUnits="userSpaceOnUse"
       id="clipPath24808">
      <path
         d="M -550.2637,577.3248 H 46.012306 V -17.951198 H -550.2637 Z"
         id="path24810"
         style="stroke-width:0.999998" />
    </clipPath>
    <clipPath
       clipPathUnits="userSpaceOnUse"
       id="clipPath24814">
      <path
         d="M -568.2266,575.819 H 28.049401 V -19.457003 H -568.2266 Z"
         id="path24816"
         style="stroke-width:0.999998" />
    </clipPath>
    <clipPath
       clipPathUnits="userSpaceOnUse"
       id="clipPath24820">
      <path
         d="m -273.8096,274.2032 h 596.276 v -595.276 h -596.276 z"
         id="path24822"
         style="stroke-width:0.999998" />
    </clipPath>
    <clipPath
       clipPathUnits="userSpaceOnUse"
       id="clipPath24826">
      <path
         d="m -273.0186,368.9674 h 596.276 v -595.276 h -596.276 z"
         id="path24828"
         style="stroke-width:0.999998" />
    </clipPath>
    <clipPath
       clipPathUnits="userSpaceOnUse"
       id="clipPath24832">
      <path
         d="m -322.2686,226.2989 h 596.276 v -595.276 h -596.276 z"
         id="path24834"
         style="stroke-width:0.999998" />
    </clipPath>
    <clipPath
       clipPathUnits="userSpaceOnUse"
       id="clipPath24838">
      <path
         d="M -572.8174,586.1354 H 23.458606 V -9.1406027 H -572.8174 Z"
         id="path24840"
         style="stroke-width:0.999998" />
    </clipPath>
    <clipPath
       clipPathUnits="userSpaceOnUse"
       id="clipPath24844">
      <path
         d="M -574.5459,585.8522 H 21.730103 V -9.4238027 H -574.5459 Z"
         id="path24846"
         style="stroke-width:0.999998" />
    </clipPath>
    <clipPath
       clipPathUnits="userSpaceOnUse"
       id="clipPath24850">
      <path
         d="M -542.9326,584.5729 H 53.343399 V -10.7031 H -542.9326 Z"
         id="path24852"
         style="stroke-width:0.999998" />
    </clipPath>
    <clipPath
       clipPathUnits="userSpaceOnUse"
       id="clipPath24856">
      <path
         d="m -283.5254,297.6329 h 596.276 v -595.276 h -596.276 z"
         id="path24858"
         style="stroke-width:0.999998" />
    </clipPath>
    <clipPath
       clipPathUnits="userSpaceOnUse"
       id="clipPath24862">
      <path
         d="m -343.7607,297.632 h 596.276 v -595.276 h -596.276 z"
         id="path24864"
         style="stroke-width:0.999998" />
    </clipPath>
    <clipPath
       clipPathUnits="userSpaceOnUse"
       id="clipPath24868">
      <path
         d="m -321.4756,321.0631 h 596.276 v -595.276 h -596.276 z"
         id="path24870"
         style="stroke-width:0.999998" />
    </clipPath>
    <clipPath
       clipPathUnits="userSpaceOnUse"
       id="clipPath24874">
      <path
         d="m -333.5068,274.6427 h 596.276 v -595.276 h -596.276 z"
         id="path24876"
         style="stroke-width:0.999998" />
    </clipPath>
    <clipPath
       clipPathUnits="userSpaceOnUse"
       id="clipPath24880">
      <path
         d="M -540.8213,585.8483 H 55.454701 V -9.4277027 H -540.8213 Z"
         id="path24882"
         style="stroke-width:0.999998" />
    </clipPath>
  </defs>
  <sodipodi:namedview
     id="namedview23864"
     pagecolor="#ffffff"
     bordercolor="#000000"
     borderopacity="0.25"
     inkscape:showpageshadow="2"
     inkscape:pageopacity="0.0"
     inkscape:pagecheckerboard="0"
     inkscape:deskcolor="#d1d1d1"
     showgrid="false"
     inkscape:zoom="0.29734106"
     inkscape:cx="-215.24105"
     inkscape:cy="396.85068"
     inkscape:window-width="1419"
     inkscape:window-height="456"
     inkscape:window-x="0"
     inkscape:window-y="25"
     inkscape:window-maximized="0"
     inkscape:current-layer="svg23862">
    <inkscape:page
       x="0"
       y="0"
       id="page23868"
       width="795.03467"
       height="793.70135" />
  </sodipodi:namedview>
  <path
     d="M 396.85 74.1903 C 419.613 74.1903 438.254 56.6023 439.959 34.2731 C 425.819 32.6104 411.438 31.7291 396.85 31.7291 C 382.262 31.7291 367.881 32.6104 353.741 34.2731 C 355.443 56.6023 374.085 74.1903 396.85 74.1903"
     style="fill:#000000;fill-opacity:1;fill-rule:nonzero;stroke:none"
     id="path23982" />
  <path
     d="M 392.634 82.4403 L 392.634 112.992 C 392.634 115.324 394.517 117.212 396.847 117.212 C 399.178 117.212 401.066 115.324 401.066 112.992 L 401.066 82.4403 C 412.003 81.555 421.981 77.2776 429.934 70.643 C 487.464 97.2149 526.382 151.221 533.311 164.251 C 539.243 175.407 536.879 190.853 530.204 197.509 C 519.404 208.276 504.527 214.96 488.074 214.96 C 476.787 214.96 466.235 211.82 457.238 206.367 C 445.053 227.036 422.579 240.912 396.85 240.912 C 371.121 240.912 348.645 227.036 336.459 206.367 C 327.465 211.82 316.913 214.96 305.626 214.96 C 289.173 214.96 274.293 208.276 263.496 197.509 C 256.82 190.853 254.454 175.407 260.389 164.251 C 267.32 151.221 306.236 97.2149 363.767 70.643 C 371.717 77.2776 381.694 81.555 392.634 82.4403"
     style="fill:#000000;fill-opacity:1;fill-rule:nonzero;stroke:none"
     id="path23986" />
  <path
     d="M 82.7487 210.633 C 138.061 117.535 233.574 51.1387 345.365 35.3601 C 345.508 37.0521 345.735 38.7214 346.037 40.3654 C 334.873 42.6934 323.977 45.7587 313.417 49.5321 C 311.224 50.3161 310.081 52.7294 310.868 54.9254 C 311.483 56.6467 313.108 57.7214 314.839 57.7214 C 315.311 57.7214 315.789 57.6427 316.259 57.4747 L 316.256 57.4747 C 326.605 53.7747 337.287 50.7814 348.237 48.5241 C 350.344 54.3494 353.475 59.6814 357.401 64.3187 C 333.655 75.744 313.281 91.4426 296.931 106.863 C 284.946 118.181 275.12 129.383 267.718 138.792 C 260.298 148.248 255.394 155.709 252.939 160.292 C 252.496 161.44 251.115 163.852 250.36 165.406 C 239.087 188.582 218.874 207.808 191.459 207.808 C 180.592 207.808 170.374 205.045 161.462 200.188 C 141.978 222.934 108.093 227.878 82.7514 210.636 Z"
     style="fill:#000000;fill-opacity:1;fill-rule:nonzero;stroke:none"
     id="path23990" />
  <path
     d="M 710.952 210.633 C 655.637 117.535 560.127 51.1387 448.333 35.3601 C 448.193 37.0521 447.966 38.7214 447.661 40.3654 C 458.827 42.6934 469.723 45.7587 480.283 49.5321 C 482.477 50.3161 483.619 52.7294 482.833 54.9254 C 482.215 56.6467 480.593 57.7214 478.859 57.7214 C 478.39 57.7214 477.909 57.6427 477.439 57.4747 L 477.445 57.4747 C 467.095 53.7747 456.414 50.7814 445.463 48.5241 C 443.354 54.3494 440.226 59.6814 436.299 64.3187 C 460.046 75.744 480.419 91.4426 496.767 106.863 C 508.753 118.181 518.58 129.383 525.98 138.792 C 533.4 148.248 538.307 155.709 540.759 160.292 C 541.202 161.44 542.583 163.852 543.34 165.406 C 554.614 188.582 574.827 207.808 602.242 207.808 C 613.106 207.808 623.324 205.045 632.239 200.188 C 651.723 222.934 685.608 227.878 710.949 210.636 Z"
     style="fill:#000000;fill-opacity:1;fill-rule:nonzero;stroke:none"
     id="path23994" />
  <path
     d="M 117.418 558.181 C 106.035 538.468 81.4834 531.118 61.2955 540.806 C 66.9235 553.884 73.3501 566.777 80.6448 579.413 C 87.9394 592.045 95.8914 604.058 104.405 615.473 C 122.887 602.832 128.801 577.894 117.418 558.181"
     style="fill:#000000;fill-opacity:1;fill-rule:nonzero;stroke:none"
     id="path23998" />
  <path
     d="M 126.671 557.709 L 153.132 542.433 C 155.15 541.266 155.843 538.69 154.676 536.673 C 153.512 534.652 150.931 533.961 148.914 535.125 L 122.452 550.402 C 116.218 541.373 107.528 534.873 97.8044 531.302 C 92.0511 468.193 119.364 407.488 127.182 394.972 C 133.876 384.256 148.436 378.58 157.538 381.033 C 172.262 385 185.488 394.545 193.715 408.795 C 199.359 418.569 201.916 429.277 201.692 439.792 C 225.684 440.012 248.939 452.54 261.804 474.821 C 274.668 497.102 273.889 523.506 262.083 544.389 C 271.301 549.454 279.296 557.024 284.939 566.797 C 293.165 581.048 294.816 597.274 290.892 612.012 C 288.465 621.118 276.269 630.889 263.643 631.329 C 248.895 631.842 182.666 625.143 130.887 588.605 C 132.658 578.402 131.371 567.624 126.671 557.709"
     style="fill:#000000;fill-opacity:1;fill-rule:nonzero;stroke:none"
     id="path24002" />
  <path
     d="M 392.631 761.98 C 284.35 760.625 179.093 711.108 109.53 622.183 C 110.926 621.212 112.26 620.18 113.53 619.098 C 121.129 627.603 129.23 635.507 137.777 642.767 C 139.553 644.275 142.214 644.056 143.722 642.278 C 144.908 640.882 145.028 638.939 144.16 637.439 C 143.924 637.03 143.616 636.655 143.236 636.332 L 143.238 636.335 C 134.861 629.223 126.926 621.47 119.493 613.114 C 123.486 608.376 126.541 603.002 128.593 597.28 C 150.361 612.131 174.142 621.926 195.673 628.379 C 211.467 633.098 226.082 636.007 237.931 637.712 C 249.829 639.41 258.743 639.928 263.938 639.759 C 265.155 639.568 267.934 639.559 269.658 639.436 C 295.366 637.611 322.121 645.507 335.828 669.246 C 341.262 678.655 343.98 688.887 344.227 699.035 C 373.667 704.535 394.894 731.407 392.631 761.977 Z"
     style="fill:#000000;fill-opacity:1;fill-rule:nonzero;stroke:none"
     id="path24006" />
  <path
     d="M 78.53 217.939 C 25.5608 312.391 15.8168 428.305 58.0487 533.01 C 59.5847 532.286 61.1447 531.649 62.718 531.089 C 59.1527 520.256 56.3581 509.286 54.3447 498.256 C 53.9287 495.964 55.4461 493.766 57.7407 493.352 C 59.5407 493.024 61.2847 493.893 62.15 495.393 C 62.3847 495.8 62.558 496.256 62.6474 496.745 L 62.6447 496.74 C 64.6127 507.552 67.3634 518.302 70.8847 528.914 C 76.9833 527.826 83.1633 527.873 89.1446 528.953 C 87.166 502.674 90.574 477.182 95.754 455.313 C 99.5633 439.273 104.35 425.164 108.798 414.048 C 113.278 402.893 117.285 394.915 120.027 390.5 C 120.801 389.541 122.199 387.14 123.169 385.708 C 137.603 364.357 144.145 337.24 130.437 313.497 C 125.003 304.088 117.503 296.62 108.839 291.331 C 118.795 263.083 106.137 231.266 78.5327 217.94 Z"
     style="fill:#000000;fill-opacity:1;fill-rule:nonzero;stroke:none"
     id="path24010" />
  <path
     d="M 676.283 558.181 C 664.9 577.894 670.811 602.832 689.294 615.473 C 697.807 604.061 705.759 592.045 713.054 579.413 C 720.348 566.777 726.775 553.884 732.406 540.806 C 712.218 531.118 687.663 538.468 676.283 558.181"
     style="fill:#000000;fill-opacity:1;fill-rule:nonzero;stroke:none"
     id="path24014" />
  <path
     d="M 671.246 550.404 L 644.785 535.128 C 642.767 533.961 640.189 534.649 639.022 536.669 C 637.858 538.685 638.549 541.265 640.569 542.432 L 667.027 557.709 C 662.327 567.623 661.041 578.401 662.811 588.607 C 611.035 625.144 544.804 631.841 530.056 631.328 C 517.429 630.89 505.233 621.117 502.806 612.011 C 498.882 597.273 500.533 581.047 508.76 566.797 C 514.402 557.024 522.397 549.453 531.618 544.391 C 519.812 523.505 519.033 497.101 531.894 474.82 C 544.76 452.54 568.014 440.011 592.006 439.792 C 591.782 429.276 594.34 418.568 599.984 408.795 C 608.21 394.546 621.437 385.002 636.161 381.034 C 645.262 378.58 659.822 384.255 666.517 394.971 C 674.334 407.49 701.647 468.194 695.894 531.303 C 686.173 534.873 677.481 541.376 671.246 550.404"
     style="fill:#000000;fill-opacity:1;fill-rule:nonzero;stroke:none"
     id="path24018" />
  <path
     d="M 715.168 217.94 C 768.14 312.39 777.884 428.305 735.649 533.01 C 734.113 532.286 732.553 531.649 730.98 531.089 C 734.548 520.255 737.343 509.286 739.353 498.255 C 739.769 495.963 738.252 493.769 735.957 493.351 C 734.157 493.023 732.416 493.893 731.548 495.393 C 731.313 495.799 731.141 496.255 731.051 496.745 L 731.053 496.742 C 729.085 507.554 726.335 518.302 722.816 528.914 C 716.715 527.829 710.535 527.873 704.553 528.953 C 706.532 502.674 703.124 477.182 697.944 455.313 C 694.135 439.273 689.348 425.163 684.9 414.048 C 680.42 402.896 676.413 394.916 673.671 390.5 C 672.897 389.541 671.499 387.141 670.529 385.708 C 656.095 364.357 649.553 337.241 663.261 313.498 C 668.695 304.088 676.196 296.62 684.859 291.33 C 674.903 263.083 687.561 231.265 715.165 217.94 Z"
     style="fill:#000000;fill-opacity:1;fill-rule:nonzero;stroke:none"
     id="path24022" />
  <path
     d="m 401.06639,761.98 c 108.284,-1.35467 213.53866,-50.872 283.10133,-139.79733 -1.396,-0.97067 -2.72934,-2.00267 -4,-3.08533 -7.59867,8.508 -15.7,16.40933 -24.24667,23.66933 -1.776,1.508 -4.43733,1.28933 -5.94533,-0.48933 -1.18534,-1.396 -1.30267,-3.33867 -0.43734,-4.83867 0.236,-0.40933 0.54667,-0.784 0.924,-1.104 h -0.003 c 8.38,-7.10933 16.312,-14.86533 23.74533,-23.22133 -3.99333,-4.73734 -7.04533,-10.112 -9.1,-15.83334 -21.768,14.85334 -45.54933,24.648 -67.07733,31.09867 -15.79733,4.71867 -30.40933,7.628 -42.26133,9.33333 -11.89734,1.69734 -20.812,2.216 -26.00667,2.04934 -1.21733,-0.19334 -3.99333,-0.20267 -5.72,-0.32267 -25.708,-1.82533 -52.46,6.068 -66.17066,29.80933 -5.43334,9.40934 -8.14934,19.63867 -8.39867,29.78667 -29.44,5.5 -50.66667,32.372 -48.404,62.94266 z"
     style="fill:#000000;fill-opacity:1;fill-rule:nonzero;stroke:none;stroke-width:1.33333"
     id="path24026" />
  <path
     d="M 335.369 396.847 C 335.369 394.922 336.932 393.358 338.856 393.358 L 370.816 393.358 C 371.005 391.92 371.293 390.511 371.706 389.156 C 366.2 385.238 322.569 354.691 300.692 354.691 C 287.558 354.691 276.769 364.882 275.493 377.675 L 268.525 377.675 C 257.94 377.675 249.356 386.259 249.356 396.847 C 249.356 407.436 257.94 416.019 268.525 416.019 L 275.493 416.019 C 276.769 428.814 287.558 439.004 300.692 439.004 C 322.572 439.004 366.208 408.452 371.708 404.538 C 371.293 403.183 371.008 401.772 370.816 400.335 L 338.856 400.335 C 336.932 400.335 335.369 398.77 335.369 396.847"
     style="fill:#000000;fill-opacity:1;fill-rule:nonzero;stroke:none"
     id="path24030" />
  <path
     d="M 349.04 427.501 C 341.313 431.998 332.805 436.522 324.516 439.996 C 308.895 446.4 297.949 447.392 294.964 447.545 L 308.065 471.85 L 336.033 476.621 C 336.417 474.277 338.324 464.269 344.313 454.714 C 349.119 446.493 357.621 436.446 365.079 428.085 C 370.493 422.037 375.303 417.006 377.547 414.686 C 376.509 413.564 375.568 412.348 374.735 411.053 C 370.551 413.982 360.693 420.712 349.04 427.501"
     style="fill:#000000;fill-opacity:1;fill-rule:nonzero;stroke:none"
     id="path24034" />
  <path
     d="M 365.079 365.604 C 357.62 357.241 349.118 347.193 344.322 338.987 C 338.324 329.42 336.418 319.412 336.034 317.069 L 308.068 321.836 L 294.965 346.141 C 297.949 346.295 308.896 347.287 324.519 353.692 C 332.806 357.167 341.314 361.689 349.04 366.191 C 360.691 372.973 370.55 379.703 374.735 382.635 C 375.568 381.341 376.507 380.127 377.547 379.001 C 375.303 376.683 370.494 371.651 365.079 365.604"
     style="fill:#000000;fill-opacity:1;fill-rule:nonzero;stroke:none"
     id="path24038" />
  <path
     d="M 429.691 301.732 C 426.348 300.799 422.975 300.653 419.762 301.188 C 418.66 289.507 408.823 280.365 396.858 280.365 C 384.891 280.365 375.054 289.507 373.951 301.188 C 370.739 300.653 367.364 300.799 364.024 301.732 C 351.787 305.148 344.631 317.839 348.05 330.076 C 351.087 341.303 378.384 369.688 383.043 374.472 C 386.119 372.565 389.62 371.284 393.371 370.785 L 393.371 346.816 C 393.371 344.891 394.928 343.331 396.858 343.331 C 398.779 343.331 400.342 344.891 400.342 346.816 L 400.342 370.785 C 404.092 371.284 407.595 372.566 410.672 374.472 C 415.328 369.688 442.626 341.303 445.664 330.076 C 449.082 317.839 441.928 305.148 429.691 301.732"
     style="fill:#000000;fill-opacity:1;fill-rule:nonzero;stroke:none"
     id="path24042" />
  <path
     d="M 378.034 396.844 C 378.034 386.448 386.461 378.023 396.858 378.023 C 407.254 378.023 415.679 386.448 415.679 396.844 C 415.679 407.24 407.254 415.668 396.858 415.668 C 386.461 415.668 378.034 407.24 378.034 396.844"
     style="fill:#000000;fill-opacity:1;fill-rule:nonzero;stroke:none"
     id="path24046" />
  <path
     d="M 458.348 396.843 C 458.348 398.77 456.785 400.332 454.86 400.332 L 422.9 400.332 C 422.711 401.77 422.424 403.178 422.009 404.532 C 427.515 408.452 471.147 438.999 493.023 438.999 C 506.156 438.999 516.947 428.808 518.223 416.014 L 525.19 416.014 C 535.776 416.014 544.36 407.431 544.36 396.842 C 544.36 386.254 535.776 377.67 525.19 377.67 L 518.223 377.67 C 516.947 364.878 506.156 354.686 493.023 354.686 C 471.143 354.686 427.507 385.238 422.007 389.151 C 422.423 390.507 422.708 391.918 422.9 393.356 L 454.86 393.356 C 456.785 393.356 458.348 394.92 458.348 396.843"
     style="fill:#000000;fill-opacity:1;fill-rule:nonzero;stroke:none"
     id="path24050" />
  <path
     d="M 444.676 366.19 C 452.4 361.693 460.911 357.167 469.2 353.695 C 484.819 347.289 495.765 346.297 498.749 346.143 L 485.649 321.838 L 457.679 317.067 C 457.297 319.41 455.392 329.419 449.4 338.974 C 444.597 347.195 436.093 357.242 428.635 365.606 C 423.221 371.653 418.413 376.683 416.168 379.002 C 417.205 380.127 418.145 381.342 418.979 382.635 C 423.164 379.706 433.023 372.977 444.676 366.19"
     style="fill:#000000;fill-opacity:1;fill-rule:nonzero;stroke:none"
     id="path24054" />
  <path
     d="M 428.634 428.084 C 436.094 436.448 444.598 446.496 449.391 454.701 C 455.389 464.269 457.297 474.277 457.678 476.62 L 485.646 471.852 L 498.748 447.548 C 495.766 447.393 484.817 446.401 469.195 439.996 C 460.91 436.524 452.399 431.999 444.675 427.499 C 433.025 420.715 423.166 413.985 418.978 411.053 C 418.146 412.347 417.209 413.563 416.167 414.688 C 418.413 417.005 423.221 422.037 428.634 428.084"
     style="fill:#000000;fill-opacity:1;fill-rule:nonzero;stroke:none"
     id="path24058" />
  <path
     d="M 364.025 491.957 C 367.365 492.892 370.74 493.036 373.953 492.501 C 375.054 504.184 384.892 513.324 396.858 513.324 C 408.824 513.324 418.661 504.184 419.765 492.501 C 422.976 493.036 426.349 492.892 429.692 491.957 C 441.929 488.542 449.082 475.85 445.665 463.613 C 442.626 452.386 415.33 424.001 410.673 419.217 C 407.596 421.124 404.093 422.405 400.344 422.905 L 400.344 446.873 C 400.344 448.798 398.785 450.358 396.858 450.358 C 394.934 450.358 393.372 448.798 393.372 446.873 L 393.372 422.905 C 389.622 422.405 386.12 421.121 383.044 419.217 C 378.386 424.001 351.088 452.386 348.05 463.613 C 344.632 475.85 351.788 488.542 364.025 491.957"
     style="fill:#000000;fill-opacity:1;fill-rule:nonzero;stroke:none"
     id="path24062" />
</svg>
