<?xml version="1.0" encoding="UTF-8" standalone="no"?>
<!-- Created with Inkscape (http://www.inkscape.org/) -->

<svg
   version="1.1"
   id="svg30608"
   width="795.03467"
   height="793.70135"
   viewBox="0 0 795.03467 793.70135"
   sodipodi:docname="Mitsuwari Karabanani Choujitomoe.svg"
   inkscape:version="1.2 (dc2aeda, 2022-05-15)"
   xmlns:inkscape="http://www.inkscape.org/namespaces/inkscape"
   xmlns:sodipodi="http://sodipodi.sourceforge.net/DTD/sodipodi-0.dtd"
   xmlns="http://www.w3.org/2000/svg"
   xmlns:svg="http://www.w3.org/2000/svg">
  <defs
     id="defs30612">
    <clipPath
       clipPathUnits="userSpaceOnUse"
       id="clipPath31101">
      <path
         d="M -531.1924,581.5885 H 65.083599 V -13.6875 H -531.1924 Z"
         id="path31103"
         style="stroke-width:0.999998" />
    </clipPath>
    <clipPath
       clipPathUnits="userSpaceOnUse"
       id="clipPath31107">
      <path
         d="M -536.6982,584.5729 H 59.577804 V -10.7031 H -536.6982 Z"
         id="path31109"
         style="stroke-width:0.999998" />
    </clipPath>
    <clipPath
       clipPathUnits="userSpaceOnUse"
       id="clipPath31113">
      <path
         d="M -528.0898,575.3815 H 68.186199 V -19.8945 H -528.0898 Z"
         id="path31115"
         style="stroke-width:0.999998" />
    </clipPath>
    <clipPath
       clipPathUnits="userSpaceOnUse"
       id="clipPath31119">
      <path
         d="M -561.4131,585.8522 H 34.862903 V -9.4238027 H -561.4131 Z"
         id="path31121"
         style="stroke-width:0.999998" />
    </clipPath>
    <clipPath
       clipPathUnits="userSpaceOnUse"
       id="clipPath31125">
      <path
         d="M -564.5732,585.8483 H 31.702801 V -9.4277027 H -564.5732 Z"
         id="path31127"
         style="stroke-width:0.999998" />
    </clipPath>
    <clipPath
       clipPathUnits="userSpaceOnUse"
       id="clipPath31131">
      <path
         d="M -567.7754,585.8522 H 28.500601 V -9.4238027 H -567.7754 Z"
         id="path31133"
         style="stroke-width:0.999998" />
    </clipPath>
    <clipPath
       clipPathUnits="userSpaceOnUse"
       id="clipPath31138">
      <path
         d="M -572.8174,586.1354 H 23.458606 V -9.1406027 H -572.8174 Z"
         id="path31140"
         style="stroke-width:0.999998" />
    </clipPath>
    <clipPath
       clipPathUnits="userSpaceOnUse"
       id="clipPath31144">
      <path
         d="M -574.5459,585.8522 H 21.730103 V -9.4238027 H -574.5459 Z"
         id="path31146"
         style="stroke-width:0.999998" />
    </clipPath>
    <clipPath
       clipPathUnits="userSpaceOnUse"
       id="clipPath31150">
      <path
         d="M -576.3691,585.5885 H 19.906905 V -9.6875027 H -576.3691 Z"
         id="path31152"
         style="stroke-width:0.999998" />
    </clipPath>
    <clipPath
       clipPathUnits="userSpaceOnUse"
       id="clipPath31156">
      <path
         d="M -557.4951,577.8502 H 38.780903 V -17.4258 H -557.4951 Z"
         id="path31158"
         style="stroke-width:0.999998" />
    </clipPath>
    <clipPath
       clipPathUnits="userSpaceOnUse"
       id="clipPath31162">
      <path
         d="M -568.2266,575.819 H 28.049401 V -19.457003 H -568.2266 Z"
         id="path31164"
         style="stroke-width:0.999998" />
    </clipPath>
    <clipPath
       clipPathUnits="userSpaceOnUse"
       id="clipPath31168">
      <path
         d="M -550.2637,577.3248 H 46.012306 V -17.951198 H -550.2637 Z"
         id="path31170"
         style="stroke-width:0.999998" />
    </clipPath>
    <clipPath
       clipPathUnits="userSpaceOnUse"
       id="clipPath31175">
      <path
         d="M -556.4014,578.0143 H 39.874606 V -17.2617 H -556.4014 Z"
         id="path31177"
         style="stroke-width:0.999998" />
    </clipPath>
    <clipPath
       clipPathUnits="userSpaceOnUse"
       id="clipPath31181">
      <path
         d="M -586.5449,579.5026 H 9.7311002 V -15.7734 H -586.5449 Z"
         id="path31183"
         style="stroke-width:0.999998" />
    </clipPath>
    <clipPath
       clipPathUnits="userSpaceOnUse"
       id="clipPath31187">
      <path
         d="M -584.1943,578.9381 H 12.081705 V -16.337903 H -584.1943 Z"
         id="path31189"
         style="stroke-width:0.999998" />
    </clipPath>
    <clipPath
       clipPathUnits="userSpaceOnUse"
       id="clipPath31193">
      <path
         d="M -538.2217,577.9479 H 58.054299 V -17.328098 H -538.2217 Z"
         id="path31195"
         style="stroke-width:0.999998" />
    </clipPath>
    <clipPath
       clipPathUnits="userSpaceOnUse"
       id="clipPath31199">
      <path
         d="m -322.1602,262.0348 h 596.276 v -595.276 h -596.276 z"
         id="path31201"
         style="stroke-width:0.999998" />
    </clipPath>
    <clipPath
       clipPathUnits="userSpaceOnUse"
       id="clipPath31205">
      <path
         d="M -553.8975,585.8483 H 42.378504 V -9.4277027 H -553.8975 Z"
         id="path31207"
         style="stroke-width:0.999998" />
    </clipPath>
    <clipPath
       clipPathUnits="userSpaceOnUse"
       id="clipPath31211">
      <path
         d="M -548.9834,585.8522 H 47.292601 V -9.4238027 H -548.9834 Z"
         id="path31213"
         style="stroke-width:0.999998" />
    </clipPath>
    <clipPath
       clipPathUnits="userSpaceOnUse"
       id="clipPath31217">
      <path
         d="M -545.417,584.5729 H 50.859001 V -10.7031 H -545.417 Z"
         id="path31219"
         style="stroke-width:0.999998" />
    </clipPath>
    <clipPath
       clipPathUnits="userSpaceOnUse"
       id="clipPath31223">
      <path
         d="M -542.9326,584.5729 H 53.343399 V -10.7031 H -542.9326 Z"
         id="path31225"
         style="stroke-width:0.999998" />
    </clipPath>
    <clipPath
       clipPathUnits="userSpaceOnUse"
       id="clipPath31229">
      <path
         d="M -540.8213,585.8483 H 55.454701 V -9.4277027 H -540.8213 Z"
         id="path31231"
         style="stroke-width:0.999998" />
    </clipPath>
    <clipPath
       clipPathUnits="userSpaceOnUse"
       id="clipPath31235">
      <path
         d="M -557.0645,585.8483 H 39.211501 V -9.4277027 H -557.0645 Z"
         id="path31237"
         style="stroke-width:0.999998" />
    </clipPath>
  </defs>
  <sodipodi:namedview
     id="namedview30610"
     pagecolor="#ffffff"
     bordercolor="#000000"
     borderopacity="0.25"
     inkscape:showpageshadow="2"
     inkscape:pageopacity="0.0"
     inkscape:pagecheckerboard="0"
     inkscape:deskcolor="#d1d1d1"
     showgrid="false"
     inkscape:zoom="0.29734106"
     inkscape:cx="-215.24105"
     inkscape:cy="396.85068"
     inkscape:window-width="1419"
     inkscape:window-height="456"
     inkscape:window-x="0"
     inkscape:window-y="25"
     inkscape:window-maximized="0"
     inkscape:current-layer="svg30608">
    <inkscape:page
       x="0"
       y="0"
       id="page30614"
       width="795.03467"
       height="793.70135" />
  </sodipodi:namedview>
  <path
     d="M 429.547 349.38 C 429.255 357.591 426.574 365.241 422.195 371.588 C 425.231 372.752 428.188 374.068 431.068 375.52 L 435.428 367.74 C 436.567 365.705 439.135 364.984 441.167 366.123 C 443.2 367.26 443.922 369.831 442.787 371.861 L 438.426 379.643 C 444.918 383.675 450.898 388.451 456.24 393.861 C 457.444 392.473 458.54 390.964 459.475 389.299 C 466.844 376.145 462.158 359.508 449.006 352.137 C 442.844 348.687 435.926 347.911 429.547 349.38 M 310.887 348.317 C 296.806 357.88 293.145 377.044 302.705 391.128 C 305.481 395.213 309.069 398.413 313.102 400.676 C 318.11 394.539 323.853 389.023 330.21 384.279 L 326.301 378.523 C 324.991 376.599 325.493 373.973 327.421 372.664 C 329.349 371.359 331.969 371.859 333.281 373.784 L 337.191 379.544 C 342.259 376.411 347.641 373.747 353.277 371.585 C 348.754 365.028 346.049 357.123 345.901 348.583 C 335.722 341.445 321.786 340.919 310.887 348.317 M 387.731 314.451 C 369.278 314.451 354.318 329.408 354.318 347.864 C 354.318 355.792 357.082 363.073 361.698 368.801 C 368.684 366.844 375.982 365.64 383.514 365.315 L 383.514 350.932 C 383.514 348.601 385.4 346.713 387.73 346.713 C 390.059 346.713 391.947 348.601 391.947 350.932 L 391.947 365.315 C 399.478 365.64 406.778 366.841 413.766 368.801 C 418.38 363.073 421.146 355.795 421.146 347.864 C 421.146 329.408 406.186 314.451 387.731 314.451 M 655.92 642.763 C 654.145 644.271 651.482 644.053 649.976 642.274 C 648.792 640.878 648.673 638.935 649.538 637.435 C 649.774 637.026 650.084 636.651 650.464 636.331 L 650.461 636.331 C 658.84 629.222 666.773 621.466 674.204 613.11 C 670.212 608.373 667.16 602.998 665.106 597.277 C 643.338 612.13 619.557 621.925 598.027 628.375 C 582.232 633.094 567.619 636.003 555.768 637.709 C 543.869 639.407 534.956 639.925 529.76 639.758 C 528.544 639.566 525.767 639.555 524.04 639.435 C 498.333 637.61 471.578 645.503 457.87 669.245 C 452.438 678.654 449.72 688.883 449.471 699.031 C 420.03 704.531 398.804 731.404 401.068 761.974 L 401.068 761.976 C 509.351 760.623 614.607 711.104 684.168 622.181 C 682.773 621.209 681.44 620.178 680.169 619.094 C 672.57 627.602 664.468 635.503 655.92 642.763 M 715.169 217.938 L 715.166 217.938 C 687.562 231.264 674.902 263.08 684.858 291.328 C 676.196 296.617 668.693 304.085 663.261 313.497 C 649.554 337.24 656.096 364.356 670.529 385.705 C 671.5 387.14 672.897 389.539 673.67 390.497 C 676.412 394.913 680.42 402.895 684.901 414.045 C 689.349 425.162 694.134 439.272 697.945 455.31 C 703.125 477.181 706.533 502.673 704.554 528.952 C 710.534 527.87 716.716 527.826 722.816 528.912 C 726.336 518.3 729.084 507.553 731.054 496.741 L 731.052 496.742 C 731.141 496.253 731.313 495.797 731.548 495.392 C 732.414 493.892 734.157 493.021 735.958 493.35 C 738.25 493.766 739.77 495.962 739.352 498.253 C 737.342 509.285 734.548 520.253 730.98 531.086 C 732.554 531.646 734.113 532.285 735.65 533.009 C 777.883 428.302 768.138 312.388 715.169 217.938 M 644.786 535.126 L 671.245 550.402 C 677.481 541.373 686.173 534.87 695.894 531.3 C 701.648 468.19 674.336 407.488 666.517 394.968 C 659.822 384.252 645.262 378.577 636.161 381.031 C 621.437 385 608.209 394.544 599.983 408.793 C 594.341 418.566 591.784 429.274 592.007 439.79 C 568.016 440.009 544.759 452.537 531.896 474.818 C 519.032 497.1 519.811 523.504 531.619 544.389 C 522.399 549.451 514.404 557.021 508.76 566.795 C 500.533 581.045 498.881 597.271 502.807 612.009 C 505.235 621.115 517.428 630.889 530.056 631.326 C 544.804 631.839 611.035 625.141 662.812 588.605 C 661.041 578.399 662.326 567.621 667.028 557.706 L 640.569 542.43 C 638.549 541.264 637.858 538.684 639.022 536.668 C 640.189 534.646 642.766 533.96 644.786 535.126 M 676.282 558.178 C 664.9 577.891 670.812 602.829 689.294 615.469 C 697.805 604.058 705.76 592.042 713.054 579.409 C 720.349 566.774 726.774 553.881 732.405 540.802 C 712.217 531.116 687.662 538.464 676.282 558.178 M 54.3479 498.253 C 53.9293 495.962 55.4479 493.764 57.7426 493.35 C 59.5426 493.021 61.2866 493.892 62.1519 495.392 C 62.3866 495.797 62.5599 496.253 62.6479 496.742 L 62.6453 496.738 C 64.6159 507.55 67.3639 518.3 70.8852 528.912 C 76.9839 527.824 83.1652 527.87 89.1452 528.952 C 87.1665 502.673 90.5758 477.181 95.7545 455.31 C 99.5652 439.272 104.352 425.162 108.8 414.045 C 113.278 402.892 117.288 394.913 120.029 390.497 C 120.801 389.539 122.2 387.137 123.169 385.705 C 137.604 364.356 144.145 337.237 130.438 313.495 C 125.006 304.085 117.505 296.617 108.841 291.328 C 118.797 263.08 106.137 231.264 78.5332 217.938 L 78.5305 217.936 C 25.5627 312.388 15.8174 428.302 58.0493 533.009 C 59.5866 532.285 61.1453 531.646 62.7199 531.086 C 59.1533 520.253 56.3586 509.285 54.3479 498.253 M 344.229 699.031 C 343.981 688.883 341.262 678.651 335.83 669.242 C 322.122 645.503 295.366 637.607 269.659 639.433 C 267.934 639.555 265.155 639.566 263.939 639.755 C 258.743 639.925 249.83 639.407 237.931 637.709 C 226.081 636.003 211.468 633.094 195.674 628.375 C 174.142 621.922 150.361 612.129 128.593 597.277 C 126.541 602.998 123.488 608.373 119.496 613.11 C 126.926 621.466 134.861 629.219 143.24 636.331 C 143.618 636.654 143.926 637.027 144.161 637.435 C 145.028 638.935 144.909 640.878 143.724 642.274 C 142.217 644.053 139.554 644.271 137.78 642.763 C 129.232 635.503 121.13 627.599 113.53 619.094 C 112.26 620.178 110.926 621.209 109.532 622.181 C 179.094 711.104 284.351 760.623 392.631 761.976 L 392.631 761.974 C 394.895 731.404 373.67 704.531 344.229 699.031 M 261.803 474.818 C 248.939 452.537 225.685 440.009 201.693 439.79 C 201.916 429.274 199.358 418.566 193.716 408.793 C 185.489 394.544 172.262 384.997 157.538 381.031 C 148.437 378.577 133.877 384.252 127.184 394.968 C 119.364 407.485 92.0518 468.19 97.8038 531.3 C 107.526 534.87 116.218 541.37 122.453 550.399 L 148.913 535.124 C 150.933 533.96 153.513 534.649 154.677 536.67 C 155.844 538.688 155.15 541.264 153.132 542.43 L 126.672 557.706 C 131.373 567.621 132.658 578.399 130.888 588.602 C 182.666 625.141 248.895 631.839 263.643 631.326 C 276.271 630.886 288.465 621.115 290.893 612.009 C 294.818 597.271 293.166 581.045 284.941 566.795 C 279.297 557.021 271.301 549.451 262.082 544.386 C 273.89 523.504 274.669 497.1 261.803 474.818 M 117.418 558.178 C 106.036 538.464 81.4839 531.116 61.2973 540.802 C 66.9252 553.881 73.3519 566.774 80.6452 579.409 C 87.9399 592.042 95.8945 604.055 104.406 615.469 C 122.888 602.829 128.801 577.891 117.418 558.178 M 445.463 48.5221 C 443.354 54.3474 440.226 59.6794 436.298 64.3167 C 460.046 75.742 480.418 91.4406 496.768 106.861 C 508.752 118.179 518.58 129.381 525.981 138.79 C 533.401 148.246 538.307 155.707 540.76 160.29 C 541.203 161.438 542.583 163.85 543.34 165.404 C 554.613 188.58 574.827 207.806 602.241 207.806 C 613.107 207.806 623.325 205.043 632.238 200.186 C 651.722 222.932 685.608 227.876 710.949 210.634 L 710.952 210.631 C 655.637 117.533 560.128 51.1367 448.334 35.3581 C 448.19 37.0501 447.964 38.7194 447.662 40.3634 C 458.827 42.6914 469.723 45.7568 480.283 49.5301 C 482.476 50.3141 483.619 52.7274 482.832 54.9234 C 482.216 56.6447 480.592 57.7194 478.859 57.7194 C 478.39 57.7194 477.908 57.6407 477.44 57.4727 L 477.444 57.4727 C 467.096 53.7727 456.412 50.7794 445.463 48.5221 M 161.464 200.186 C 170.376 205.043 180.594 207.806 191.461 207.806 C 218.874 207.806 239.087 188.58 250.361 165.404 C 251.117 163.85 252.497 161.438 252.941 160.29 C 255.395 155.707 260.298 148.246 267.719 138.79 C 275.122 129.381 284.949 118.179 296.931 106.861 C 313.283 91.4406 333.655 75.742 357.403 64.3167 C 353.475 59.6794 350.347 54.3474 348.239 48.5221 C 337.289 50.7794 326.606 53.7727 316.257 57.4727 L 316.261 57.4727 C 315.793 57.6407 315.311 57.7194 314.842 57.7194 C 313.109 57.7194 311.485 56.6447 310.869 54.9234 C 310.082 52.7274 311.226 50.3141 313.418 49.5301 C 323.978 45.7568 334.874 42.6914 346.039 40.3634 C 345.737 38.7194 345.511 37.0501 345.367 35.3581 C 233.575 51.1367 138.064 117.533 82.7492 210.631 L 82.7519 210.634 C 108.093 227.876 141.978 222.932 161.464 200.186 M 363.767 70.642 C 306.237 97.214 267.319 151.219 260.39 164.25 C 254.457 175.404 256.821 190.851 263.497 197.507 C 274.295 208.274 289.174 214.958 305.627 214.958 C 316.913 214.958 327.465 211.819 336.462 206.366 C 348.645 227.035 371.122 240.91 396.851 240.91 C 422.578 240.91 445.055 227.035 457.24 206.366 C 466.236 211.819 476.788 214.958 488.075 214.958 C 504.527 214.958 519.407 208.274 530.204 197.507 C 536.88 190.851 539.244 175.404 533.311 164.25 C 526.381 151.219 487.464 97.214 429.934 70.642 C 421.982 77.2753 412.006 81.5527 401.068 82.438 L 401.068 112.991 C 401.068 115.323 399.18 117.211 396.85 117.211 C 394.518 117.211 392.632 115.323 392.632 112.991 L 392.632 82.438 C 381.695 81.5527 371.719 77.2753 363.767 70.642 M 396.851 74.1887 C 419.615 74.1887 438.255 56.6007 439.96 34.2715 C 425.819 32.6088 411.439 31.7275 396.851 31.7275 C 382.262 31.7275 367.882 32.6088 353.742 34.2715 C 355.446 56.6007 374.086 74.1887 396.851 74.1887 M 470.33 431.545 C 458.087 397.773 425.731 373.643 387.731 373.643 C 339.221 373.643 299.894 412.969 299.894 461.482 C 299.894 475.629 303.257 488.98 309.197 500.816 C 227.286 401.575 299.205 307.263 376.56 307.263 C 430.418 307.263 474.078 350.924 474.078 404.785 C 474.078 414.069 472.752 423.037 470.33 431.545 M 544.352 396.849 C 544.352 315.385 478.315 249.346 396.851 249.346 C 315.387 249.346 249.347 315.385 249.347 396.849 C 249.347 478.313 315.387 544.352 396.851 544.352 C 478.315 544.352 544.352 478.313 544.352 396.849"
     style="fill:#000000;fill-opacity:1;fill-rule:nonzero;stroke:none"
     id="path30728" />
</svg>
