<?xml version="1.0" encoding="UTF-8" standalone="no"?>
<!-- Created with Inkscape (http://www.inkscape.org/) -->

<svg
   version="1.1"
   id="svg36900"
   width="793.70135"
   height="793.70135"
   viewBox="0 0 793.70135 793.70135"
   sodipodi:docname="Nakawani Karabana.svg"
   inkscape:version="1.2 (dc2aeda, 2022-05-15)"
   xmlns:inkscape="http://www.inkscape.org/namespaces/inkscape"
   xmlns:sodipodi="http://sodipodi.sourceforge.net/DTD/sodipodi-0.dtd"
   xmlns="http://www.w3.org/2000/svg"
   xmlns:svg="http://www.w3.org/2000/svg">
  <defs
     id="defs36904">
    <clipPath
       clipPathUnits="userSpaceOnUse"
       id="clipPath37139">
      <path
         d="M -97.566902,353.037 H 497.70909 v -841.89 H -97.566902 Z"
         id="path37141"
         style="stroke-width:0.999998" />
    </clipPath>
    <clipPath
       clipPathUnits="userSpaceOnUse"
       id="clipPath37145">
      <path
         d="m -297.1362,208.0394 h 595.276 v -841.89 h -595.276 z"
         id="path37147"
         style="stroke-width:0.999998" />
    </clipPath>
    <clipPath
       clipPathUnits="userSpaceOnUse"
       id="clipPath37151">
      <path
         d="m -420.4746,587.6429 h 595.27599 v -841.89 H -420.4746 Z"
         id="path37153"
         style="stroke-width:0.999998" />
    </clipPath>
    <clipPath
       clipPathUnits="userSpaceOnUse"
       id="clipPath37157">
      <path
         d="m -323.7578,417.8788 h 595.27599 v -841.89 H -323.7578 Z"
         id="path37159"
         style="stroke-width:0.999998" />
    </clipPath>
    <clipPath
       clipPathUnits="userSpaceOnUse"
       id="clipPath37163">
      <path
         d="m -139.3301,262.639 h 595.276 v -841.89 h -595.276 z"
         id="path37165"
         style="stroke-width:0.999998" />
    </clipPath>
    <clipPath
       clipPathUnits="userSpaceOnUse"
       id="clipPath37169">
      <path
         d="m -173.7983,587.6429 h 595.276 v -841.89 h -595.276 z"
         id="path37171"
         style="stroke-width:0.999998" />
    </clipPath>
    <clipPath
       clipPathUnits="userSpaceOnUse"
       id="clipPath37175">
      <path
         d="M -496.7051,353.0331 H 98.570897 v -841.89 H -496.7051 Z"
         id="path37177"
         style="stroke-width:0.999998" />
    </clipPath>
  </defs>
  <sodipodi:namedview
     id="namedview36902"
     pagecolor="#ffffff"
     bordercolor="#000000"
     borderopacity="0.25"
     inkscape:showpageshadow="2"
     inkscape:pageopacity="0.0"
     inkscape:pagecheckerboard="0"
     inkscape:deskcolor="#d1d1d1"
     showgrid="false"
     inkscape:zoom="0.21024124"
     inkscape:cx="-1234.2964"
     inkscape:cy="561.26001"
     inkscape:window-width="1419"
     inkscape:window-height="456"
     inkscape:window-x="0"
     inkscape:window-y="25"
     inkscape:window-maximized="0"
     inkscape:current-layer="svg36900">
    <inkscape:page
       x="0"
       y="0"
       id="page36906"
       width="793.70135"
       height="793.70135" />
  </sodipodi:namedview>
  <path
     d="m 431.677,395.172 c 0,19.608 -15.896,35.499 -35.496,35.499 -19.6,0 -35.496,-15.891 -35.496,-35.499 0,-19.6 15.896,-35.496 35.496,-35.496 19.6,0 35.496,15.896 35.496,35.496"
     style="fill:#231f20;fill-opacity:1;fill-rule:nonzero;stroke:none"
     id="path36920" />
  <path
     d="m 396.182,115.386 c -48.484,0 -58.036,39.157 -58.036,39.157 -6.42,-3.142 -13.63,-4.906 -21.253,-4.906 -26.692,0 -48.335,21.637 -48.335,48.33 0,10.492 3.324,20.215 9.007,28.136 32.657,44.952 71.778,98.808 96.601,132.99 5.505,-3.368 11.823,-5.533 18.6,-6.078 l 0.011,-47.052 c 0,-1.881 1.524,-3.4 3.405,-3.4 1.881,0 3.404,1.519 3.404,3.4 l 0.011,47.052 c 6.778,0.545 13.096,2.71 18.601,6.078 24.823,-34.182 63.942,-88.038 96.601,-132.99 5.683,-7.921 9.005,-17.644 9.005,-28.136 0,-26.693 -21.64,-48.33 -48.328,-48.33 -7.628,0 -14.838,1.764 -21.257,4.906 0,0 -9.552,-39.157 -58.037,-39.157"
     style="fill:#231f20;fill-opacity:1;fill-rule:nonzero;stroke:none"
     id="path36924" />
  <path
     d="m 130.089,308.716 c -14.977,46.107 19.305,67.294 19.305,67.294 -4.97,5.131 -8.877,11.444 -11.234,18.696 -8.252,25.391 5.645,52.654 31.033,60.9 9.975,3.24 20.247,3.082 29.536,0.136 52.846,-17.169 116.16,-37.737 156.331,-50.784 -1.496,-6.269 -1.602,-12.956 -0.03,-19.568 l -44.748,-14.549 c -1.785,-0.582 -2.76,-2.501 -2.171,-4.286 0.571,-1.786 2.491,-2.768 4.282,-2.187 l 44.742,14.534 c 2.619,-6.281 6.628,-11.619 11.536,-15.817 -24.839,-34.17 -63.97,-88.021 -96.629,-132.973 -5.777,-7.846 -13.992,-14.014 -23.979,-17.258 -25.382,-8.248 -52.653,5.649 -60.899,31.033 -2.358,7.253 -2.908,14.656 -1.899,21.726 0,0 -40.189,-3.008 -55.176,43.103"
     style="fill:#231f20;fill-opacity:1;fill-rule:nonzero;stroke:none"
     id="path36928" />
  <path
     d="m 231.731,621.524 c 39.221,28.489 69.966,2.432 69.966,2.432 3.34,6.313 8.135,11.975 14.303,16.464 21.593,15.692 51.825,10.904 67.513,-10.691 6.168,-8.489 9.194,-18.312 9.252,-28.057 0,-55.562 0.011,-122.126 0.011,-164.374 -6.424,-0.514 -12.812,-2.471 -18.611,-6.019 l -27.666,38.065 c -1.107,1.524 -3.234,1.852 -4.751,0.756 -1.524,-1.106 -1.856,-3.234 -0.755,-4.753 l 27.651,-38.077 c -5.168,-4.426 -9.007,-9.893 -11.476,-15.847 -40.18,13.063 -103.48,33.64 -156.332,50.809 -9.246,3.068 -17.649,8.98 -23.818,17.467 -15.692,21.593 -10.903,51.82 10.69,67.508 6.168,4.479 13.043,7.296 20.082,8.525 0,0 -15.282,37.287 23.941,65.792"
     style="fill:#231f20;fill-opacity:1;fill-rule:nonzero;stroke:none"
     id="path36932" />
  <path
     d="m 560.633,621.524 c 39.227,-28.505 23.94,-65.792 23.94,-65.792 7.039,-1.229 13.904,-4.046 20.071,-8.525 21.606,-15.688 26.395,-45.915 10.7,-67.508 -6.167,-8.487 -14.571,-14.399 -23.823,-17.467 -52.847,-17.169 -116.15,-37.746 -156.325,-50.803 -2.475,5.948 -6.313,11.415 -11.477,15.841 l 27.652,38.077 c 1.106,1.519 0.762,3.647 -0.756,4.753 -1.523,1.096 -3.643,0.768 -4.75,-0.756 l -27.666,-38.065 c -5.806,3.548 -12.188,5.516 -18.623,6.019 0.011,42.253 0.021,108.812 0.021,164.374 0.06,9.745 3.08,19.568 9.247,28.057 15.693,21.595 45.92,26.383 67.513,10.691 6.17,-4.479 10.974,-10.151 14.31,-16.464 0,0 30.745,26.068 69.966,-2.432"
     style="fill:#231f20;fill-opacity:1;fill-rule:nonzero;stroke:none"
     id="path36936" />
  <path
     d="m 662.273,308.711 c -14.987,-46.107 -55.177,-43.092 -55.177,-43.092 1.01,-7.076 0.456,-14.479 -1.902,-21.727 -8.241,-25.389 -35.506,-39.281 -60.894,-31.033 -9.98,3.239 -18.196,9.407 -23.98,17.254 -32.659,44.951 -71.789,98.802 -96.628,132.978 4.896,4.192 8.918,9.531 11.53,15.812 l 44.754,-14.54 c 1.784,-0.576 3.699,0.407 4.276,2.192 0.589,1.785 -0.385,3.704 -2.181,4.287 l -44.737,14.549 c 1.57,6.617 1.464,13.298 -0.036,19.568 40.175,13.046 103.489,33.614 156.339,50.784 9.284,2.945 19.557,3.104 29.532,-0.136 25.391,-8.247 39.287,-35.51 31.033,-60.9 -2.356,-7.252 -6.262,-13.566 -11.234,-18.696 0,0 34.281,-21.183 19.305,-67.3"
     style="fill:#231f20;fill-opacity:1;fill-rule:nonzero;stroke:none"
     id="path36940" />
  <path
     d="m 185.773,188.185 c -53.899,53.937 -87.1344,128.13 -87.1558,210.407 0.0214,82.264 33.2568,156.459 87.1558,210.407 53.947,53.893 128.142,87.135 210.418,87.146 82.267,-0.011 156.456,-33.253 210.409,-87.146 53.893,-53.948 87.133,-128.143 87.144,-210.407 C 693.733,316.315 660.493,242.122 606.6,188.185 552.647,134.28 478.458,101.04 396.191,101.029 313.915,101.04 239.72,134.28 185.773,188.185 M 38.4054,398.592 C 38.432,200.986 198.58,40.844 396.191,40.823 593.788,40.844 753.941,200.986 753.962,398.592 753.941,596.187 593.788,756.34 396.191,756.364 198.58,756.34 38.432,596.187 38.4054,398.592"
     style="fill:#231f20;fill-opacity:1;fill-rule:nonzero;stroke:none"
     id="path36944" />
</svg>
