<?xml version="1.0" encoding="UTF-8" standalone="no"?>
<!-- Created with Inkscape (http://www.inkscape.org/) -->

<svg
   version="1.1"
   id="svg36626"
   width="793.70135"
   height="1122.52"
   viewBox="0 0 793.70135 1122.52"
   sodipodi:docname="Nakawani Kageno Karabana.svg"
   inkscape:version="1.2 (dc2aeda, 2022-05-15)"
   xmlns:inkscape="http://www.inkscape.org/namespaces/inkscape"
   xmlns:sodipodi="http://sodipodi.sourceforge.net/DTD/sodipodi-0.dtd"
   xmlns="http://www.w3.org/2000/svg"
   xmlns:svg="http://www.w3.org/2000/svg">
  <defs
     id="defs36630">
    <clipPath
       clipPathUnits="userSpaceOnUse"
       id="clipPath36809">
      <path
         d="m -297.1377,442.8168 h 595.276 v -841.89 h -595.276 z"
         id="path36811"
         style="stroke-width:0.999998" />
    </clipPath>
    <clipPath
       clipPathUnits="userSpaceOnUse"
       id="clipPath36815">
      <path
         d="m -137.0625,260.3724 h 595.27599 v -841.89 H -137.0625 Z"
         id="path36817"
         style="stroke-width:0.999998" />
    </clipPath>
    <clipPath
       clipPathUnits="userSpaceOnUse"
       id="clipPath36821">
      <path
         d="m -375.5615,386.0721 h 595.276 v -841.89 h -595.276 z"
         id="path36823"
         style="stroke-width:0.999998" />
    </clipPath>
  </defs>
  <sodipodi:namedview
     id="namedview36628"
     pagecolor="#ffffff"
     bordercolor="#000000"
     borderopacity="0.25"
     inkscape:showpageshadow="2"
     inkscape:pageopacity="0.0"
     inkscape:pagecheckerboard="0"
     inkscape:deskcolor="#d1d1d1"
     showgrid="false"
     inkscape:zoom="0.21024124"
     inkscape:cx="-470.88764"
     inkscape:cy="561.26002"
     inkscape:window-width="1419"
     inkscape:window-height="456"
     inkscape:window-x="0"
     inkscape:window-y="25"
     inkscape:window-maximized="0"
     inkscape:current-layer="svg36626">
    <inkscape:page
       x="0"
       y="0"
       id="page36632"
       width="793.70135"
       height="1122.52" />
  </sodipodi:namedview>
  <path
     d="M 500.749 514.763 C 493.254 517.195 454.194 532.027 438.809 537.768 C 440.134 540.254 441.26 542.888 442.161 545.658 C 443.064 548.431 443.708 551.227 444.09 554.012 C 459.858 549.634 500.21 538.66 507.718 536.223 C 513.648 534.292 516.889 527.927 514.965 522.011 C 513.044 516.083 506.67 512.839 500.749 514.763 M 424.604 599.716 C 422.241 601.423 419.783 602.896 417.249 604.133 C 426.293 617.773 449.189 652.756 453.84 659.144 C 457.497 664.183 464.552 665.3 469.588 661.639 C 474.632 657.977 475.749 650.923 472.088 645.877 C 467.46 639.505 441.285 606.937 431.069 594.089 C 429.113 596.12 426.955 598 424.604 599.716 M 361.291 594.089 C 351.113 606.901 324.919 639.495 320.273 645.883 C 316.611 650.923 317.733 657.977 322.771 661.639 C 327.809 665.3 334.872 664.183 338.533 659.144 C 343.165 652.771 366.044 617.816 375.119 604.128 C 372.58 602.896 370.121 601.423 367.765 599.716 C 365.413 598 363.247 596.12 361.291 594.089 M 277.406 522.006 C 275.476 527.932 278.716 534.292 284.648 536.223 C 292.143 538.655 332.455 549.618 348.276 554.012 C 348.661 551.222 349.301 548.426 350.2 545.658 C 351.104 542.888 352.231 540.254 353.556 537.768 C 338.216 532.043 299.122 517.2 291.619 514.763 C 285.698 512.839 279.326 516.083 277.406 522.006 M 396.184 435.705 C 389.952 435.705 384.9 440.762 384.9 446.987 C 384.9 454.871 386.932 496.6 387.648 513.004 C 390.416 512.507 393.271 512.25 396.184 512.25 C 399.096 512.25 401.949 512.507 404.731 513.004 C 405.432 496.648 407.468 454.882 407.468 446.987 C 407.468 440.762 402.411 435.705 396.184 435.705 M 656.225 515.906 C 652.121 525.362 645.606 531.6 642.199 534.326 L 634.503 540.52 L 640.874 548.083 C 644.251 552.108 646.926 556.818 648.658 562.152 C 655.809 584.156 643.754 607.825 621.727 614.977 C 613.058 617.805 604.175 617.653 596.093 615.089 C 550.817 600.368 486.328 579.251 444.282 565.574 C 443.588 572.282 441.489 578.828 438.077 584.756 C 479.7 598.263 544.84 619.365 590.033 634.047 C 597.997 636.693 605.265 641.792 610.631 649.175 C 624.246 667.899 620.082 694.139 601.358 707.756 C 596.827 711.04 591.891 713.273 586.777 714.54 L 577.194 716.917 L 579.77 726.458 C 580.923 730.649 582.538 739.54 580.303 749.596 C 578.006 759.677 572.319 771.169 557.218 782.245 C 542.033 793.185 529.34 795.037 519.052 794.106 C 508.788 793.117 500.834 788.852 497.2 786.45 L 488.926 781.046 L 483.697 789.445 C 480.913 793.904 477.262 797.901 472.73 801.198 C 454.012 814.802 427.773 810.644 414.159 791.909 C 408.799 784.532 406.195 776.044 406.143 767.562 C 406.143 719.953 406.296 652.099 406.317 607.883 C 399.723 609.295 392.843 609.323 386.151 607.912 C 386.171 651.664 386.231 720.141 386.236 767.658 C 386.176 776.044 383.575 784.54 378.213 791.92 C 364.611 810.653 338.372 814.802 319.632 801.204 C 315.109 797.906 311.46 793.909 308.679 789.434 L 303.447 781.052 L 295.179 786.456 C 291.544 788.846 283.591 793.128 273.328 794.117 C 263.034 795.046 250.343 793.193 235.142 782.245 C 220.048 771.18 214.366 759.682 212.074 749.606 C 209.839 739.544 211.443 730.664 212.598 726.458 L 215.184 716.922 L 205.584 714.549 C 200.486 713.279 195.547 711.044 191.014 707.745 C 172.296 694.144 168.138 667.909 181.746 649.18 C 187.107 641.792 194.382 636.699 202.42 634.027 C 247.703 619.319 312.293 598.497 354.348 584.852 C 350.971 579.011 348.809 572.48 348.093 565.686 C 347.309 565.935 240.53 600.711 196.183 615.128 C 188.182 617.664 179.303 617.805 170.628 614.992 C 148.611 607.847 136.554 584.167 143.699 562.147 C 145.438 556.828 148.11 552.12 151.503 548.088 L 157.865 540.531 L 150.167 534.331 C 146.769 531.616 140.247 525.372 136.131 515.916 C 132.069 506.414 129.91 493.772 135.618 475.936 C 141.482 458.159 150.659 449.2 159.531 443.903 C 168.415 438.671 177.352 437.453 181.703 437.255 L 191.58 436.769 L 190.87 426.902 C 190.5 421.658 191.1 416.275 192.842 410.946 C 199.983 388.935 223.651 376.877 245.672 384.029 C 254.354 386.851 261.45 392.185 266.476 399.011 C 294.463 437.533 334.219 492.522 360.184 528.307 C 364.703 523.288 370.244 519.22 376.487 516.431 C 350.757 481.04 310.46 425.678 282.52 387.241 C 277.635 380.415 274.75 372.013 274.75 362.894 C 274.744 339.739 293.534 320.958 316.692 320.951 C 322.288 320.958 327.591 322.053 332.471 324.03 L 341.627 327.739 L 345.143 318.503 C 346.671 314.436 350.596 306.301 358.32 299.47 C 366.096 292.666 377.455 286.712 396.184 286.632 C 414.903 286.712 426.26 292.666 434.039 299.47 C 441.76 306.301 445.678 314.426 447.213 318.503 L 450.73 327.739 L 459.897 324.019 C 464.765 322.053 470.066 320.958 475.681 320.958 C 498.825 320.958 517.601 339.739 517.601 362.894 C 517.601 372.023 514.721 380.415 509.782 387.305 C 481.785 425.822 441.782 480.634 415.773 516.388 C 421.943 519.124 427.523 523.143 432.104 528.216 C 457.812 492.811 498.012 437.378 525.94 398.93 C 530.916 392.175 538.014 386.841 546.689 384.018 C 568.705 376.855 592.369 388.925 599.535 410.946 C 601.257 416.265 601.866 421.647 601.491 426.902 L 600.785 436.758 L 610.658 437.243 C 614.994 437.447 623.951 438.661 632.83 443.894 C 641.707 449.195 650.879 458.148 656.749 475.936 C 662.457 493.767 660.293 506.403 656.225 515.906 M 661.055 543.134 C 669.303 534.331 679.514 518.847 679.541 496.344 C 679.541 488.29 678.215 479.454 675.126 469.96 C 668.058 448.003 655.221 434.545 642.61 427.222 C 634.653 422.567 626.943 420.214 620.722 419.039 C 620.35 414.346 619.431 409.626 617.923 404.977 C 609.478 379.074 585.489 362.611 559.65 362.611 C 553.372 362.611 546.973 363.595 540.708 365.637 C 539.377 366.069 538.072 366.55 536.79 367.063 C 536.882 365.679 536.934 364.294 536.934 362.894 C 536.934 329.05 509.514 301.641 475.681 301.62 C 470.777 301.62 466.001 302.197 461.421 303.286 C 458.374 297.738 453.754 291.126 446.872 285.006 C 436.02 275.284 419.247 267.218 396.184 267.288 C 373.104 267.229 356.335 275.284 345.487 285.006 C 338.601 291.132 333.984 297.738 330.937 303.286 C 326.361 302.197 321.588 301.62 316.692 301.62 C 282.843 301.641 255.422 329.05 255.411 362.894 C 255.411 364.29 255.466 365.679 255.555 367.053 C 254.274 366.545 252.968 366.069 251.643 365.637 C 245.367 363.595 238.98 362.622 232.694 362.622 C 206.862 362.611 182.874 379.085 174.434 404.959 C 172.927 409.61 171.996 414.341 171.616 419.039 C 165.401 420.221 157.694 422.571 149.741 427.222 C 137.137 434.545 124.298 448.003 117.231 469.95 C 114.137 479.448 112.806 488.29 112.806 496.344 C 112.843 518.847 123.042 534.331 131.299 543.139 C 128.851 547.154 126.821 551.52 125.307 556.171 C 123.266 562.435 122.298 568.828 122.305 575.107 C 122.298 600.945 138.761 624.94 164.653 633.375 C 165.978 633.808 167.305 634.193 168.639 634.529 C 167.763 635.581 166.919 636.683 166.095 637.805 C 158.195 648.647 154.379 661.297 154.39 673.773 C 154.369 692.677 163.166 711.407 179.639 723.385 C 183.6 726.261 187.807 728.601 192.147 730.409 C 191.816 733.034 191.602 735.961 191.602 739.153 C 191.404 755.594 198.07 779.406 223.779 797.88 C 239.718 809.5 255.443 813.69 268.747 813.653 C 280.794 813.625 290.684 810.42 297.719 807.104 C 300.78 810.68 304.301 813.964 308.263 816.844 C 319.113 824.71 331.765 828.54 344.241 828.529 L 344.304 828.529 C 363.189 828.529 381.885 819.745 393.848 803.268 C 394.661 802.138 395.447 800.994 396.173 799.83 C 396.911 800.994 397.687 802.152 398.509 803.278 C 410.487 819.74 429.211 828.549 448.126 828.534 C 460.585 828.534 473.238 824.716 484.082 816.838 C 488.049 813.964 491.577 810.68 494.64 807.104 C 501.668 810.414 511.556 813.63 523.604 813.658 C 536.902 813.69 552.616 809.516 568.582 797.89 C 594.265 779.401 600.942 755.604 600.754 739.158 C 600.749 735.966 600.53 733.034 600.199 730.409 C 604.543 728.601 608.751 726.261 612.718 723.385 C 629.189 711.401 637.978 692.683 637.967 673.773 C 637.978 661.297 634.15 648.652 626.262 637.805 C 625.449 636.683 624.613 635.581 623.738 634.529 C 625.058 634.199 626.385 633.803 627.694 633.375 C 653.585 624.929 670.058 600.945 670.049 575.107 C 670.049 568.828 669.085 562.446 667.049 556.171 C 665.535 551.52 663.517 547.154 661.055 543.134"
     style="fill:#231f20;fill-opacity:1;fill-rule:nonzero;stroke:none"
     id="path36646" />
  <path
     d="M 396.184 590.422 C 379.705 590.422 366.364 577.075 366.364 560.601 C 366.364 544.129 379.705 530.775 396.184 530.775 C 412.657 530.775 426.004 544.129 426.004 560.601 C 426.004 577.075 412.657 590.422 396.184 590.422 M 396.184 518.42 C 372.884 518.42 353.999 537.303 353.999 560.601 C 353.999 583.901 372.884 602.779 396.184 602.779 C 419.484 602.779 438.361 583.901 438.361 560.601 C 438.361 537.303 419.484 518.42 396.184 518.42"
     style="fill:#231f20;fill-opacity:1;fill-rule:nonzero;stroke:none"
     id="path36650" />
  <path
     d="M 182.75 347.163 C 128.091 401.859 94.3542 477.181 94.3422 560.59 C 94.3542 644.01 128.091 719.333 182.75 774.027 C 237.441 828.676 312.762 862.42 396.177 862.431 C 479.603 862.42 554.925 828.676 609.605 774.027 C 664.274 719.333 698.01 644.01 698.021 560.59 C 698.01 477.181 664.274 401.859 609.605 347.163 C 554.925 292.499 479.603 258.773 396.177 258.762 C 312.762 258.773 237.441 292.499 182.75 347.163 M 50.5557 560.59 C 50.5663 369.698 205.29 214.986 396.177 214.965 C 587.07 214.986 741.797 369.698 741.81 560.59 C 741.797 751.489 587.07 906.202 396.177 906.223 C 205.29 906.202 50.5663 751.489 50.5557 560.59"
     style="fill:#231f20;fill-opacity:1;fill-rule:nonzero;stroke:none"
     id="path36654" />
</svg>
