<?xml version="1.0" encoding="UTF-8" standalone="no"?>
<!-- Created with Inkscape (http://www.inkscape.org/) -->

<svg
   version="1.1"
   id="svg33144"
   width="793.70135"
   height="793.70135"
   viewBox="0 0 793.70135 793.70135"
   sodipodi:docname="Sotoyukiwani Karabana.svg"
   inkscape:version="1.2 (dc2aeda, 2022-05-15)"
   xmlns:inkscape="http://www.inkscape.org/namespaces/inkscape"
   xmlns:sodipodi="http://sodipodi.sourceforge.net/DTD/sodipodi-0.dtd"
   xmlns="http://www.w3.org/2000/svg"
   xmlns:svg="http://www.w3.org/2000/svg">
  <defs
     id="defs33148">
    <clipPath
       clipPathUnits="userSpaceOnUse"
       id="clipPath33383">
      <path
         d="m -262.0176,435.0658 h 595.276 v -841.89 h -595.276 z"
         id="path33385"
         style="stroke-width:0.999998" />
    </clipPath>
    <clipPath
       clipPathUnits="userSpaceOnUse"
       id="clipPath33389">
      <path
         d="m -297.1387,628.7718 h 595.276 v -841.89 h -595.276 z"
         id="path33391"
         style="stroke-width:0.999998" />
    </clipPath>
    <clipPath
       clipPathUnits="userSpaceOnUse"
       id="clipPath33395">
      <path
         d="m -329.2207,419.9505 h 595.276 v -841.89 h -595.276 z"
         id="path33397"
         style="stroke-width:0.999998" />
    </clipPath>
    <clipPath
       clipPathUnits="userSpaceOnUse"
       id="clipPath33401">
      <path
         d="m -316.665,387.0785 h 595.276 v -841.89 h -595.276 z"
         id="path33403"
         style="stroke-width:0.999998" />
    </clipPath>
    <clipPath
       clipPathUnits="userSpaceOnUse"
       id="clipPath33407">
      <path
         d="m -271.9111,391.2211 h 595.276 v -841.89 h -595.276 z"
         id="path33409"
         style="stroke-width:0.999998" />
    </clipPath>
    <clipPath
       clipPathUnits="userSpaceOnUse"
       id="clipPath33413">
      <path
         d="m -300.6621,458.0199 h 595.276 v -841.89 h -595.276 z"
         id="path33415"
         style="stroke-width:0.999998" />
    </clipPath>
    <clipPath
       clipPathUnits="userSpaceOnUse"
       id="clipPath33419">
      <path
         d="m -334.4326,428.3627 h 595.276 v -841.89 h -595.276 z"
         id="path33421"
         style="stroke-width:0.999998" />
    </clipPath>
  </defs>
  <sodipodi:namedview
     id="namedview33146"
     pagecolor="#ffffff"
     bordercolor="#000000"
     borderopacity="0.25"
     inkscape:showpageshadow="2"
     inkscape:pageopacity="0.0"
     inkscape:pagecheckerboard="0"
     inkscape:deskcolor="#d1d1d1"
     showgrid="false"
     inkscape:zoom="0.21024124"
     inkscape:cx="-1234.2964"
     inkscape:cy="561.26001"
     inkscape:window-width="1419"
     inkscape:window-height="456"
     inkscape:window-x="0"
     inkscape:window-y="25"
     inkscape:window-maximized="0"
     inkscape:current-layer="svg33144">
    <inkscape:page
       x="0"
       y="0"
       id="page33150"
       width="793.70135"
       height="793.70135" />
  </sodipodi:namedview>
  <path
     d="m 396.185,674.362 c -153.409,0 -277.766,-124.357 -277.766,-277.767 0,-153.412 124.357,-277.769 277.766,-277.769 153.409,0 277.766,124.357 277.766,277.769 0,153.41 -124.357,277.767 -277.766,277.767 M 733.227,405.277 c -2.864,-1.933 -5.651,1.152 -10.968,1.24 -5.581,0 -10.103,-4.521 -10.103,-10.102 0.006,-5.575 4.522,-10.096 10.103,-10.099 5.323,0.084 8.104,3.151 10.978,1.219 2.662,-1.783 5.648,-10.728 1.331,-39.375 -4.763,-31.596 -19.049,-49.556 -19.049,-49.556 0,0 5.633,-25.872 -21.664,-73.31 -27.297,-47.443 -52.489,-55.565 -52.489,-55.565 0,0 -8.366,-21.371 -33.287,-41.367 -22.593,-18.125 -32.562,-20.731 -35.445,-19.325 -3.104,1.518 -2.24,5.481 -4.815,10.129 -2.789,4.835 -8.969,6.488 -13.8,3.697 -4.832,-2.789 -6.489,-8.96 -3.698,-13.794 2.736,-4.567 6.781,-5.444 6.54,-8.898 -0.224,-3.196 -6.899,-10.481 -33.886,-21.026 -29.762,-11.631 -52.452,-8.211 -52.452,-8.211 0,0 -19.61,-17.788 -74.343,-17.788 -54.734,0 -74.345,17.788 -74.345,17.788 0,0 -22.688,-3.42 -52.451,8.211 -26.987,10.545 -33.989,18.012 -34.208,21.209 -0.247,3.447 3.827,4.329 6.564,8.891 2.789,4.829 1.132,11.006 -3.7,13.796 -4.832,2.788 -11.005,1.133 -13.796,-3.696 -2.585,-4.648 -1.325,-8.598 -4.431,-10.111 -2.88,-1.405 -12.849,0.939 -35.453,19.055 -24.929,19.986 -33.293,41.36 -33.293,41.36 0,0 -25.197,8.117 -52.5106,55.549 -27.3186,47.43 -21.6906,73.3 -21.6906,73.3 0,0 -14.2866,17.957 -19.06,49.553 -4.3293,28.644 -1.336,38.074 1.32,39.862 2.8654,1.932 5.6614,-1.152 10.984,-1.24 5.576,0 10.0973,4.523 10.0973,10.103 0,5.575 -4.5213,10.097 -10.0973,10.1 -5.3226,-0.087 -8.1133,-3.152 -10.9733,-1.216 -2.656,1.792 -5.628,11.443 -1.2453,40.081 4.832,31.585 19.1466,49.52 19.1466,49.52 0,0 -5.58,25.877 21.8173,73.261 27.4049,47.381 52.6169,55.453 52.6169,55.453 0,0 8.403,21.359 33.37,41.296 22.635,18.082 32.605,20.407 35.485,18.996 3.1,-1.513 1.646,-5.592 4.228,-10.241 2.785,-4.832 8.964,-6.484 13.796,-3.693 4.832,2.784 6.489,8.962 3.698,13.794 -2.737,4.566 -6.589,5.447 -6.35,8.895 0.225,3.197 7.249,10.755 34.246,21.252 29.778,11.577 52.474,8.115 52.474,8.115 0,0 19.637,17.75 74.37,17.654 54.739,-0.097 74.313,-17.917 74.313,-17.917 0,0 22.7,3.373 52.44,-8.305 26.959,-10.596 33.439,-17.784 33.652,-20.987 0.244,-3.445 -3.827,-4.329 -6.564,-8.888 -2.791,-4.832 -1.133,-11.011 3.699,-13.8 4.83,-2.785 11.005,-1.135 13.794,3.697 2.587,4.652 1.326,8.596 4.432,10.114 2.88,1.412 11.803,-0.251 34.469,-18.29 25,-19.9 33.446,-41.237 33.446,-41.237 0,0 25.226,-8.029 52.71,-55.36 27.484,-47.333 21.948,-73.224 21.948,-73.224 0,0 14.358,-17.905 19.243,-49.483 4.432,-28.63 1.508,-39.291 -1.144,-41.086"
     style="fill:#231f20;fill-opacity:1;fill-rule:nonzero;stroke:none"
     id="path33164" />
  <path
     d="m 438.961,395.934 c 0,23.631 -19.145,42.781 -42.776,42.781 -23.625,0 -42.776,-19.15 -42.776,-42.781 0,-23.632 19.151,-42.783 42.776,-42.783 23.631,0 42.776,19.151 42.776,42.783"
     style="fill:#231f20;fill-opacity:1;fill-rule:nonzero;stroke:none"
     id="path33168" />
  <path
     d="m 422.22,352.105 c 24.053,-33.108 58.528,-80.589 87.696,-120.737 5.35,-7.448 8.473,-16.567 8.484,-26.431 -0.059,-25.082 -20.339,-45.372 -45.423,-45.417 -7.173,0 -13.94,1.66 -19.969,4.619 l -1.565,0.753 -0.414,-1.684 c -0.068,-0.032 -8.824,-36.856 -54.849,-36.856 -46.021,0 -54.776,36.824 -54.84,36.856 l -0.428,1.695 -1.56,-0.764 c -6.025,-2.959 -12.797,-4.619 -19.97,-4.619 -25.079,0.045 -45.358,20.335 -45.402,45.417 0,9.864 3.118,18.983 8.451,26.42 27.565,37.93 86.372,118.903 87.702,120.728 6.35,-3.784 13.603,-6.221 21.343,-6.935 l 0.011,-44.026 c 0.01,-2.602 2.105,-4.688 4.693,-4.688 2.592,0 4.697,2.086 4.697,4.688 l 0.018,44.026 c 7.74,0.714 14.976,3.175 21.325,6.955"
     style="fill:#231f20;fill-opacity:1;fill-rule:nonzero;stroke:none"
     id="path33172" />
  <path
     d="m 362.548,357.628 c -24.057,-33.107 -58.56,-80.569 -87.733,-120.714 -5.432,-7.392 -13.139,-13.176 -22.513,-16.236 -23.871,-7.694 -49.438,5.321 -57.23,29.162 -2.218,6.82 -2.732,13.774 -1.78,20.419 l 0.235,1.724 -1.732,-0.127 c -0.053,0.054 -37.778,-2.998 -51.997,40.772 -14.228,43.771 18.088,63.477 18.099,63.551 l 1.485,0.926 -1.207,1.246 c -4.682,4.818 -8.349,10.746 -10.568,17.566 -7.706,23.868 5.324,49.423 29.164,57.22 9.38,3.045 19.017,2.9 27.74,0.123 44.589,-14.492 139.773,-45.401 141.922,-46.103 -1.641,-7.206 -1.716,-14.856 -0.005,-22.438 l -41.863,-13.616 c -2.469,-0.815 -3.812,-3.452 -3.009,-5.916 0.797,-2.463 3.437,-3.819 5.907,-3.019 l 41.878,13.593 c 3.072,-7.144 7.648,-13.261 13.207,-18.133"
     style="fill:#231f20;fill-opacity:1;fill-rule:nonzero;stroke:none"
     id="path33176" />
  <path
     d="m 349.357,416.088 c -38.917,12.645 -94.721,30.799 -141.912,46.131 -8.712,2.881 -16.59,8.422 -22.4,16.397 -14.694,20.325 -10.216,48.662 10.048,63.441 5.799,4.215 12.256,6.852 18.868,8.003 l 1.716,0.312 -0.657,1.602 c 0.037,0.068 -14.523,35.003 22.711,62.054 37.234,27.057 65.958,2.411 66.033,2.421 l 1.337,-1.121 0.812,1.533 c 3.137,5.938 7.643,11.261 13.443,15.478 20.316,14.706 48.644,10.21 63.429,-10.054 5.795,-7.984 8.637,-17.193 8.692,-26.344 -0.007,-46.887 0.011,-146.962 0.011,-149.224 -7.367,-0.668 -14.662,-2.958 -21.344,-6.933 l -25.886,35.612 c -1.54,2.099 -4.464,2.555 -6.558,1.032 -2.091,-1.521 -2.571,-4.447 -1.042,-6.553 l 25.87,-35.626 c -5.848,-5.13 -10.254,-11.37 -13.171,-18.161"
     style="fill:#231f20;fill-opacity:1;fill-rule:nonzero;stroke:none"
     id="path33180" />
  <path
     d="m 400.883,446.693 c 0,40.921 0.023,99.602 0.017,149.225 0.048,9.173 2.886,18.383 8.675,26.367 14.789,20.258 43.123,24.759 63.44,10.049 5.798,-4.217 10.305,-9.535 13.442,-15.468 l 0.824,-1.535 1.326,1.118 c 0.074,-0.01 28.798,24.63 66.032,-2.422 37.237,-27.05 22.672,-61.985 22.706,-62.053 l -0.654,-1.623 1.712,-0.296 c 6.617,-1.149 13.072,-3.786 18.877,-8.001 20.257,-14.779 24.737,-43.11 10.038,-63.433 -5.804,-7.98 -13.686,-13.524 -22.374,-16.403 -44.588,-14.486 -139.76,-45.426 -141.91,-46.125 -2.918,6.795 -7.348,13.031 -13.191,18.156 l 25.869,35.623 c 1.519,2.114 1.048,5.034 -1.046,6.556 -2.095,1.52 -5.026,1.07 -6.554,-1.032 L 422.22,439.784 c -6.681,3.974 -13.981,6.236 -21.337,6.909"
     style="fill:#231f20;fill-opacity:1;fill-rule:nonzero;stroke:none"
     id="path33184" />
  <path
     d="m 445.91,407.15 c 38.921,12.643 94.736,30.76 141.932,46.096 8.734,2.791 18.37,2.936 27.75,-0.101 23.839,-7.807 36.877,-33.364 29.164,-57.231 -2.218,-6.823 -5.885,-12.747 -10.562,-17.564 l -1.199,-1.261 1.472,-0.912 c 0.011,-0.074 32.32,-19.778 18.104,-63.549 -14.219,-43.776 -51.945,-40.722 -51.997,-40.772 l -1.747,0.121 0.244,-1.719 c 0.951,-6.649 0.432,-13.602 -1.779,-20.425 -7.794,-23.837 -33.354,-36.852 -57.224,-29.147 -9.386,3.051 -17.093,8.835 -22.514,16.206 -27.559,37.934 -86.392,118.887 -87.723,120.715 5.564,4.871 10.124,11.014 13.192,18.154 l 41.874,-13.592 c 2.48,-0.794 5.114,0.553 5.912,3.017 0.801,2.461 -0.536,5.109 -3.004,5.915 l -41.868,13.616 c 1.716,7.586 1.609,15.225 -0.027,22.433"
     style="fill:#231f20;fill-opacity:1;fill-rule:nonzero;stroke:none"
     id="path33188" />
</svg>
