<?xml version="1.0" encoding="UTF-8" standalone="no"?>
<!-- Created with Inkscape (http://www.inkscape.org/) -->

<svg
   version="1.1"
   id="svg65374"
   width="795.03467"
   height="793.70135"
   viewBox="0 0 795.03467 793.70135"
   sodipodi:docname="Chuuwani Chuukage Mitsuwari Touuchiwa.svg"
   inkscape:version="1.2 (dc2aeda, 2022-05-15)"
   xmlns:inkscape="http://www.inkscape.org/namespaces/inkscape"
   xmlns:sodipodi="http://sodipodi.sourceforge.net/DTD/sodipodi-0.dtd"
   xmlns="http://www.w3.org/2000/svg"
   xmlns:svg="http://www.w3.org/2000/svg">
  <defs
     id="defs65378">
    <clipPath
       clipPathUnits="userSpaceOnUse"
       id="clipPath65867">
      <path
         d="M -553.8975,585.8483 H 42.378504 V -9.4277027 H -553.8975 Z"
         id="path65869"
         style="stroke-width:0.999998" />
    </clipPath>
    <clipPath
       clipPathUnits="userSpaceOnUse"
       id="clipPath65873">
      <path
         d="M -557.0645,585.8483 H 39.211501 V -9.4277027 H -557.0645 Z"
         id="path65875"
         style="stroke-width:0.999998" />
    </clipPath>
    <clipPath
       clipPathUnits="userSpaceOnUse"
       id="clipPath65879">
      <path
         d="M -528.0898,575.3815 H 68.186199 V -19.8945 H -528.0898 Z"
         id="path65881"
         style="stroke-width:0.999998" />
    </clipPath>
    <clipPath
       clipPathUnits="userSpaceOnUse"
       id="clipPath65885">
      <path
         d="M -531.1924,581.5885 H 65.083599 V -13.6875 H -531.1924 Z"
         id="path65887"
         style="stroke-width:0.999998" />
    </clipPath>
    <clipPath
       clipPathUnits="userSpaceOnUse"
       id="clipPath65891">
      <path
         d="M -564.5732,585.8483 H 31.702801 V -9.4277027 H -564.5732 Z"
         id="path65893"
         style="stroke-width:0.999998" />
    </clipPath>
    <clipPath
       clipPathUnits="userSpaceOnUse"
       id="clipPath65897">
      <path
         d="M -567.7754,585.8522 H 28.500601 V -9.4238027 H -567.7754 Z"
         id="path65899"
         style="stroke-width:0.999998" />
    </clipPath>
    <clipPath
       clipPathUnits="userSpaceOnUse"
       id="clipPath65904">
      <path
         d="M -572.8174,586.1354 H 23.458606 V -9.1406027 H -572.8174 Z"
         id="path65906"
         style="stroke-width:0.999998" />
    </clipPath>
    <clipPath
       clipPathUnits="userSpaceOnUse"
       id="clipPath65910">
      <path
         d="M -574.5459,585.8522 H 21.730103 V -9.4238027 H -574.5459 Z"
         id="path65912"
         style="stroke-width:0.999998" />
    </clipPath>
    <clipPath
       clipPathUnits="userSpaceOnUse"
       id="clipPath65916">
      <path
         d="M -576.3691,585.5885 H 19.906905 V -9.6875027 H -576.3691 Z"
         id="path65918"
         style="stroke-width:0.999998" />
    </clipPath>
    <clipPath
       clipPathUnits="userSpaceOnUse"
       id="clipPath65922">
      <path
         d="M -557.4951,577.8502 H 38.780903 V -17.4258 H -557.4951 Z"
         id="path65924"
         style="stroke-width:0.999998" />
    </clipPath>
    <clipPath
       clipPathUnits="userSpaceOnUse"
       id="clipPath65928">
      <path
         d="M -568.2266,575.819 H 28.049401 V -19.457003 H -568.2266 Z"
         id="path65930"
         style="stroke-width:0.999998" />
    </clipPath>
    <clipPath
       clipPathUnits="userSpaceOnUse"
       id="clipPath65934">
      <path
         d="M -550.2637,577.3248 H 46.012306 V -17.951198 H -550.2637 Z"
         id="path65936"
         style="stroke-width:0.999998" />
    </clipPath>
    <clipPath
       clipPathUnits="userSpaceOnUse"
       id="clipPath65941">
      <path
         d="M -556.4014,578.0143 H 39.874606 V -17.2617 H -556.4014 Z"
         id="path65943"
         style="stroke-width:0.999998" />
    </clipPath>
    <clipPath
       clipPathUnits="userSpaceOnUse"
       id="clipPath65947">
      <path
         d="M -586.5449,579.5026 H 9.7311002 V -15.7734 H -586.5449 Z"
         id="path65949"
         style="stroke-width:0.999998" />
    </clipPath>
    <clipPath
       clipPathUnits="userSpaceOnUse"
       id="clipPath65953">
      <path
         d="M -584.1943,578.9381 H 12.081705 V -16.337903 H -584.1943 Z"
         id="path65955"
         style="stroke-width:0.999998" />
    </clipPath>
    <clipPath
       clipPathUnits="userSpaceOnUse"
       id="clipPath65959">
      <path
         d="M -538.2217,577.9479 H 58.054299 V -17.328098 H -538.2217 Z"
         id="path65961"
         style="stroke-width:0.999998" />
    </clipPath>
    <clipPath
       clipPathUnits="userSpaceOnUse"
       id="clipPath65965">
      <path
         d="m -309.1699,397.6256 h 596.276 v -595.276 h -596.276 z"
         id="path65967"
         style="stroke-width:0.999998" />
    </clipPath>
    <clipPath
       clipPathUnits="userSpaceOnUse"
       id="clipPath65971">
      <path
         d="M -545.417,584.5729 H 50.859001 V -10.7031 H -545.417 Z"
         id="path65973"
         style="stroke-width:0.999998" />
    </clipPath>
    <clipPath
       clipPathUnits="userSpaceOnUse"
       id="clipPath65977">
      <path
         d="M -548.9834,585.8522 H 47.292601 V -9.4238027 H -548.9834 Z"
         id="path65979"
         style="stroke-width:0.999998" />
    </clipPath>
    <clipPath
       clipPathUnits="userSpaceOnUse"
       id="clipPath65983">
      <path
         d="M -561.4131,585.8522 H 34.862903 V -9.4238027 H -561.4131 Z"
         id="path65985"
         style="stroke-width:0.999998" />
    </clipPath>
    <clipPath
       clipPathUnits="userSpaceOnUse"
       id="clipPath65989">
      <path
         d="M -542.9326,584.5729 H 53.343399 V -10.7031 H -542.9326 Z"
         id="path65991"
         style="stroke-width:0.999998" />
    </clipPath>
    <clipPath
       clipPathUnits="userSpaceOnUse"
       id="clipPath65995">
      <path
         d="M -536.6982,584.5729 H 59.577804 V -10.7031 H -536.6982 Z"
         id="path65997"
         style="stroke-width:0.999998" />
    </clipPath>
    <clipPath
       clipPathUnits="userSpaceOnUse"
       id="clipPath66001">
      <path
         d="M -540.8213,585.8483 H 55.454701 V -9.4277027 H -540.8213 Z"
         id="path66003"
         style="stroke-width:0.999998" />
    </clipPath>
  </defs>
  <sodipodi:namedview
     id="namedview65376"
     pagecolor="#ffffff"
     bordercolor="#000000"
     borderopacity="0.25"
     inkscape:showpageshadow="2"
     inkscape:pageopacity="0.0"
     inkscape:pagecheckerboard="0"
     inkscape:deskcolor="#d1d1d1"
     showgrid="false"
     inkscape:zoom="0.29734106"
     inkscape:cx="-215.24105"
     inkscape:cy="396.85068"
     inkscape:window-width="1419"
     inkscape:window-height="456"
     inkscape:window-x="0"
     inkscape:window-y="25"
     inkscape:window-maximized="0"
     inkscape:current-layer="svg65374">
    <inkscape:page
       x="0"
       y="0"
       id="page65380"
       width="795.03467"
       height="793.70135" />
  </sodipodi:namedview>
  <path
     d="M 412.227 530.167 C 419.806 531.815 427.95 528.795 432.478 521.938 C 436.062 516.511 436.536 509.951 434.37 504.31 C 430.86 505.5 427.264 505.516 424.151 504.902 C 420.822 504.26 417.855 502.992 415.148 501.474 C 411.656 499.498 408.527 496.74 406.459 493.024 C 404.926 490.312 404.131 487.11 404.152 483.899 C 397.882 483.91 391.736 486.959 388.022 492.583 C 383.494 499.446 383.916 508.12 388.406 514.446 C 384.218 521.006 386.048 529.74 392.57 534.042 C 399.091 538.344 407.835 536.602 412.227 530.167 M 479.317 444.862 C 490.887 437.873 503.157 432.227 515.871 427.943 C 516.516 424.941 517.177 421.839 517.888 418.626 C 518.284 416.826 518.696 415.031 519.111 413.235 C 507.795 416.558 496.764 420.889 486.181 426.191 C 483.332 432.298 481.048 438.542 479.317 444.862 M 419.392 493.97 C 426.044 497.722 433.275 498.383 438.016 490.188 C 441.747 483.74 441.852 477.806 441.634 475.055 C 442.635 474.008 443.65 472.976 444.674 471.954 C 444.839 465.487 445.44 459.003 446.467 452.553 C 441.023 457.209 435.799 462.189 430.836 467.487 C 427.763 467.75 421.238 468.951 416.908 474.328 C 410.186 482.68 412.156 489.88 419.392 493.97 M 541.115 345.934 C 512.947 357.177 488.216 377.611 471.876 405.915 C 449.232 445.131 447.738 490.75 463.834 529.582 C 467.167 526.042 470.5 522.3 473.947 518.042 C 462.071 484.419 464.412 446.009 483.64 412.706 C 495.847 391.562 513.243 375.286 533.287 364.547 C 535.689 358.086 538.292 351.859 541.115 345.934 M 603.789 355.225 C 596.893 367.169 600.336 382.089 612.289 388.966 C 624.745 396.134 641.158 390.302 649.268 378.851 C 666.929 353.911 652.102 316.372 628.397 306.989 C 569.132 282.889 541.459 351.249 526.163 420.457 C 523.364 433.129 521.261 444.329 517.924 455.41 C 514.581 466.506 510.144 477.636 502.611 490.708 L 502.607 490.716 C 487.023 517.586 475.046 530.519 462.723 542.88 C 441.778 563.902 421.107 585.648 415.131 606.123 C 410.408 622.303 414.04 640.636 428.856 650.528 C 443.388 660.232 461.447 656.869 469.136 642.2 C 474.946 631.12 470.106 619.32 463.356 614.752 C 460.66 612.932 455.916 610.828 451.756 610.573 C 452.536 609.252 453.968 606.927 455.752 604.473 C 465.136 591.571 475.036 582.131 488.485 568.771 C 501.879 555.506 517.212 538.576 534.236 508.976 L 534.24 508.972 C 543.223 493.432 548.913 479.224 552.9 465.915 C 558.876 445.858 561.219 428.467 566.211 409.607 C 571.205 390.703 582.163 357.807 593.056 344.231 C 597.477 338.722 604.736 336.214 610.863 339.731 C 612.984 340.963 614.605 342.722 615.693 344.734 C 610.859 346.777 606.615 350.331 603.789 355.225 M 660.466 248.844 L 620.964 271.652 C 652.85 294.826 676.766 331.737 674.064 402.449 C 672.333 447.763 661.39 493.5 637.114 535.547 C 586.427 623.341 494.997 672.932 400.496 674.263 L 400.496 699.123 C 503.581 697.781 603.353 643.737 658.64 547.976 C 713.925 452.217 710.846 338.789 660.466 248.844 M 299.215 330.71 C 295.629 323.802 287.147 321.021 280.163 324.517 C 273.174 328.013 270.311 336.458 273.687 343.477 C 268.473 349.218 267.017 357.781 270.691 365.13 C 273.597 370.946 279.042 374.638 285.007 375.581 C 285.734 371.947 287.518 368.827 289.606 366.437 C 291.827 363.875 294.409 361.939 297.078 360.355 C 300.534 358.318 304.486 356.987 308.739 357.054 C 311.853 357.081 315.027 357.995 317.794 359.619 C 320.922 354.183 321.354 347.335 318.339 341.307 C 314.661 333.954 306.937 329.985 299.215 330.71 M 317.455 490.755 C 318.814 491.998 320.165 493.25 321.514 494.508 C 324.294 483.047 326.059 471.331 326.758 459.514 C 322.893 453.993 318.627 448.891 314.019 444.235 C 314.286 457.746 313.042 471.198 310.394 484.35 C 312.674 486.41 315.029 488.531 317.455 490.755 M 319.705 375.451 C 315.835 365.454 308.614 363.559 301.455 367.782 C 294.878 371.667 290.69 377.599 295.417 385.802 C 299.138 392.258 304.222 395.314 306.713 396.501 C 307.119 397.891 307.507 399.287 307.879 400.686 C 313.398 404.063 318.71 407.823 323.787 411.938 C 322.477 404.894 320.775 397.883 318.666 390.935 C 319.975 388.141 322.199 381.889 319.705 375.451 M 368.796 547.214 C 373.143 517.2 367.81 485.566 351.471 457.263 C 328.827 418.045 290.07 393.939 248.393 388.463 C 249.789 393.118 251.365 397.878 253.329 402.993 C 288.386 409.519 320.481 430.753 339.707 464.055 C 351.916 485.198 357.31 508.399 356.59 531.131 C 360.983 536.438 365.076 541.807 368.796 547.214 M 329.411 596.847 C 322.515 584.904 307.874 580.424 295.939 587.339 C 283.505 594.542 280.351 611.669 286.21 624.417 C 298.978 652.188 338.903 658.115 358.882 642.279 C 409.386 603.003 364.02 544.855 311.731 497.006 C 302.159 488.246 293.51 480.826 285.582 472.396 C 277.643 463.951 270.222 454.545 262.667 441.482 L 262.665 441.474 C 247.186 414.545 241.977 397.706 237.429 380.851 C 229.698 352.202 221.199 323.428 206.458 308.016 C 194.806 295.834 177.114 289.816 161.138 297.7 C 145.469 305.433 139.352 322.753 148.21 336.747 C 154.902 347.318 167.541 349.026 174.869 345.463 C 177.797 344.042 181.992 340.983 184.292 337.51 C 185.044 338.843 186.342 341.247 187.574 344.017 C 194.058 358.597 197.281 371.89 202.128 390.221 C 206.92 408.451 213.913 430.194 231.035 459.738 L 231.038 459.743 C 240.005 475.292 249.463 487.323 258.995 497.43 C 273.379 512.636 287.269 523.36 301.103 537.112 C 314.978 550.891 337.989 576.828 344.299 593.05 C 346.86 599.633 345.405 607.172 339.294 610.719 C 337.165 611.94 334.833 612.467 332.545 612.401 C 333.195 607.195 332.238 601.74 329.411 596.847 M 253.377 634.096 C 214.999 609.937 180.862 577.594 156.586 535.547 C 105.898 447.753 108.664 343.777 154.762 261.272 L 133.234 248.841 C 82.8518 338.783 79.7732 452.211 135.06 547.974 C 190.346 643.732 290.117 697.779 393.202 699.123 L 393.202 653.508 C 357.188 669.533 313.263 671.792 253.377 634.096 M 468.603 346.971 C 471.748 352.395 477.462 356.195 484.191 356.599 C 492.396 357.09 499.696 352.386 502.928 345.335 C 510.705 345.682 517.355 339.729 517.819 331.933 C 518.285 324.133 512.403 317.432 504.637 316.845 C 502.272 309.456 495.587 303.914 487.381 303.422 C 480.892 303.032 474.974 305.901 471.174 310.597 C 473.958 313.042 475.768 316.146 476.794 319.152 C 477.9 322.356 478.288 325.557 478.323 328.662 C 478.362 332.673 477.538 336.762 475.354 340.411 C 473.772 343.094 471.394 345.386 468.603 346.971 M 457.118 314.501 C 449.666 314.496 444.478 317.37 442.204 318.936 C 440.796 318.59 439.395 318.226 437.998 317.852 C 432.312 320.942 426.399 323.662 420.298 326.001 C 427.052 328.389 433.976 330.419 441.047 332.067 C 442.812 334.598 447.115 339.651 453.936 340.711 C 464.53 342.357 469.78 337.05 469.703 328.74 C 469.628 321.102 466.586 314.508 457.118 314.501 M 355.207 281.112 C 353.451 281.665 351.691 282.209 349.926 282.748 C 358.463 290.886 367.726 298.273 377.611 304.786 C 384.324 304.201 390.874 303.057 397.214 301.393 C 385.376 294.87 374.35 287.066 364.283 278.197 C 361.362 279.141 358.346 280.118 355.207 281.112 M 478.324 272.445 C 473.594 271.329 468.687 270.312 463.275 269.456 C 440.094 296.553 405.656 313.732 367.202 313.732 C 342.789 313.732 319.997 306.802 300.674 294.813 C 293.878 295.964 287.185 296.825 280.641 297.341 C 304.461 316.112 334.523 327.314 367.202 327.314 C 412.488 327.314 452.744 305.801 478.324 272.445 M 257.35 238.418 C 271.142 238.418 282.341 227.977 282.321 214.185 C 282.299 199.816 269.042 188.517 255.073 187.22 C 224.641 184.393 199.545 216.002 203.272 241.224 C 212.033 304.602 285.07 294.386 352.655 273.029 C 365.028 269.117 375.779 265.337 387.043 262.685 C 398.324 260.034 410.183 258.31 425.271 258.3 L 425.278 258.3 C 456.342 258.36 473.53 262.266 490.397 266.756 C 519.076 274.386 548.244 281.414 568.963 276.352 C 585.337 272.352 599.396 260.04 600.556 242.262 C 601.693 224.826 589.753 210.868 573.203 211.544 C 560.703 212.053 552.904 222.144 552.324 230.273 C 552.092 233.518 552.644 238.68 554.503 242.409 C 552.971 242.393 550.241 242.316 547.227 241.998 C 531.357 240.324 518.232 236.466 499.935 231.501 C 481.753 226.534 459.426 221.72 425.278 221.777 L 425.271 221.777 C 407.322 221.768 392.175 223.944 378.652 227.144 C 358.295 231.998 342.063 238.665 323.237 243.77 C 304.366 248.896 270.398 255.854 253.198 253.209 C 246.213 252.136 240.411 247.105 240.395 240.04 C 240.401 237.585 241.113 235.302 242.311 233.354 C 246.498 236.521 251.698 238.418 257.35 238.418 M 263.109 153.945 C 303.218 132.788 348.299 119.396 396.851 119.396 C 498.225 119.396 586.889 173.781 635.292 254.956 L 656.82 242.526 C 604.119 153.923 507.425 94.5414 396.851 94.5414 C 286.278 94.5414 189.589 153.923 136.882 242.524 L 176.385 265.332 C 180.513 226.129 200.521 186.961 263.109 153.945 M 396.851 709.787 C 224.011 709.787 83.8958 569.67 83.8958 396.834 C 83.8958 223.99 224.011 83.8761 396.851 83.8761 C 569.689 83.8761 709.805 223.99 709.805 396.834 C 709.805 569.67 569.689 709.787 396.851 709.787 M 396.851 31.7296 C 195.212 31.7296 31.7506 195.192 31.7506 396.834 C 31.7506 598.469 195.212 761.932 396.851 761.932 C 598.489 761.932 761.953 598.469 761.953 396.834 C 761.953 195.192 598.489 31.7296 396.851 31.7296"
     style="fill:#000000;fill-opacity:1;fill-rule:nonzero;stroke:none"
     id="path65494" />
</svg>
