<?xml version="1.0" encoding="UTF-8" standalone="no"?>
<!-- Created with Inkscape (http://www.inkscape.org/) -->

<svg
   version="1.1"
   id="svg48887"
   width="795.03467"
   height="793.70135"
   viewBox="0 0 795.03467 793.70135"
   sodipodi:docname="Kuwana Uchiwa.svg"
   inkscape:version="1.2 (dc2aeda, 2022-05-15)"
   xmlns:inkscape="http://www.inkscape.org/namespaces/inkscape"
   xmlns:sodipodi="http://sodipodi.sourceforge.net/DTD/sodipodi-0.dtd"
   xmlns="http://www.w3.org/2000/svg"
   xmlns:svg="http://www.w3.org/2000/svg">
  <defs
     id="defs48891">
    <clipPath
       clipPathUnits="userSpaceOnUse"
       id="clipPath49380">
      <path
         d="M -528.0898,575.3815 H 68.186199 V -19.8945 H -528.0898 Z"
         id="path49382"
         style="stroke-width:0.999998" />
    </clipPath>
    <clipPath
       clipPathUnits="userSpaceOnUse"
       id="clipPath49386">
      <path
         d="M -531.1924,581.5885 H 65.083599 V -13.6875 H -531.1924 Z"
         id="path49388"
         style="stroke-width:0.999998" />
    </clipPath>
    <clipPath
       clipPathUnits="userSpaceOnUse"
       id="clipPath49392">
      <path
         d="M -576.3691,585.5885 H 19.906905 V -9.6875027 H -576.3691 Z"
         id="path49394"
         style="stroke-width:0.999998" />
    </clipPath>
    <clipPath
       clipPathUnits="userSpaceOnUse"
       id="clipPath49398">
      <path
         d="M -550.2637,577.3248 H 46.012306 V -17.951198 H -550.2637 Z"
         id="path49400"
         style="stroke-width:0.999998" />
    </clipPath>
    <clipPath
       clipPathUnits="userSpaceOnUse"
       id="clipPath49405">
      <path
         d="M -556.4014,578.0143 H 39.874606 V -17.2617 H -556.4014 Z"
         id="path49407"
         style="stroke-width:0.999998" />
    </clipPath>
    <clipPath
       clipPathUnits="userSpaceOnUse"
       id="clipPath49411">
      <path
         d="M -586.5449,579.5026 H 9.7311002 V -15.7734 H -586.5449 Z"
         id="path49413"
         style="stroke-width:0.999998" />
    </clipPath>
    <clipPath
       clipPathUnits="userSpaceOnUse"
       id="clipPath49417">
      <path
         d="M -584.1943,578.9381 H 12.081705 V -16.337903 H -584.1943 Z"
         id="path49419"
         style="stroke-width:0.999998" />
    </clipPath>
    <clipPath
       clipPathUnits="userSpaceOnUse"
       id="clipPath49423">
      <path
         d="M -538.2217,577.9479 H 58.054299 V -17.328098 H -538.2217 Z"
         id="path49425"
         style="stroke-width:0.999998" />
    </clipPath>
    <clipPath
       clipPathUnits="userSpaceOnUse"
       id="clipPath49429">
      <path
         d="M -564.5732,585.8483 H 31.702801 V -9.4277027 H -564.5732 Z"
         id="path49431"
         style="stroke-width:0.999998" />
    </clipPath>
    <clipPath
       clipPathUnits="userSpaceOnUse"
       id="clipPath49435">
      <path
         d="M -567.7754,585.8522 H 28.500601 V -9.4238027 H -567.7754 Z"
         id="path49437"
         style="stroke-width:0.999998" />
    </clipPath>
    <clipPath
       clipPathUnits="userSpaceOnUse"
       id="clipPath49442">
      <path
         d="M -553.8975,585.8483 H 42.378504 V -9.4277027 H -553.8975 Z"
         id="path49444"
         style="stroke-width:0.999998" />
    </clipPath>
    <clipPath
       clipPathUnits="userSpaceOnUse"
       id="clipPath49448">
      <path
         d="M -557.0645,585.8483 H 39.211501 V -9.4277027 H -557.0645 Z"
         id="path49450"
         style="stroke-width:0.999998" />
    </clipPath>
    <clipPath
       clipPathUnits="userSpaceOnUse"
       id="clipPath49454">
      <path
         d="M -548.9834,585.8522 H 47.292601 V -9.4238027 H -548.9834 Z"
         id="path49456"
         style="stroke-width:0.999998" />
    </clipPath>
    <clipPath
       clipPathUnits="userSpaceOnUse"
       id="clipPath49460">
      <path
         d="M -557.4951,577.8502 H 38.780903 V -17.4258 H -557.4951 Z"
         id="path49462"
         style="stroke-width:0.999998" />
    </clipPath>
    <clipPath
       clipPathUnits="userSpaceOnUse"
       id="clipPath49466">
      <path
         d="M -568.2266,575.819 H 28.049401 V -19.457003 H -568.2266 Z"
         id="path49468"
         style="stroke-width:0.999998" />
    </clipPath>
    <clipPath
       clipPathUnits="userSpaceOnUse"
       id="clipPath49472">
      <path
         d="m -258.7891,159.6925 h 596.27601 v -595.276 H -258.7891 Z"
         id="path49474"
         style="stroke-width:0.999998" />
    </clipPath>
    <clipPath
       clipPathUnits="userSpaceOnUse"
       id="clipPath49478">
      <path
         d="M -561.4131,585.8522 H 34.862903 V -9.4238027 H -561.4131 Z"
         id="path49480"
         style="stroke-width:0.999998" />
    </clipPath>
    <clipPath
       clipPathUnits="userSpaceOnUse"
       id="clipPath49484">
      <path
         d="M -572.8174,586.1354 H 23.458606 V -9.1406027 H -572.8174 Z"
         id="path49486"
         style="stroke-width:0.999998" />
    </clipPath>
    <clipPath
       clipPathUnits="userSpaceOnUse"
       id="clipPath49490">
      <path
         d="M -574.5459,585.8522 H 21.730103 V -9.4238027 H -574.5459 Z"
         id="path49492"
         style="stroke-width:0.999998" />
    </clipPath>
    <clipPath
       clipPathUnits="userSpaceOnUse"
       id="clipPath49496">
      <path
         d="M -540.8213,585.8483 H 55.454701 V -9.4277027 H -540.8213 Z"
         id="path49498"
         style="stroke-width:0.999998" />
    </clipPath>
    <clipPath
       clipPathUnits="userSpaceOnUse"
       id="clipPath49502">
      <path
         d="M -536.6982,584.5729 H 59.577804 V -10.7031 H -536.6982 Z"
         id="path49504"
         style="stroke-width:0.999998" />
    </clipPath>
    <clipPath
       clipPathUnits="userSpaceOnUse"
       id="clipPath49508">
      <path
         d="M -545.417,584.5729 H 50.859001 V -10.7031 H -545.417 Z"
         id="path49510"
         style="stroke-width:0.999998" />
    </clipPath>
    <clipPath
       clipPathUnits="userSpaceOnUse"
       id="clipPath49514">
      <path
         d="M -542.9326,584.5729 H 53.343399 V -10.7031 H -542.9326 Z"
         id="path49516"
         style="stroke-width:0.999998" />
    </clipPath>
  </defs>
  <sodipodi:namedview
     id="namedview48889"
     pagecolor="#ffffff"
     bordercolor="#000000"
     borderopacity="0.25"
     inkscape:showpageshadow="2"
     inkscape:pageopacity="0.0"
     inkscape:pagecheckerboard="0"
     inkscape:deskcolor="#d1d1d1"
     showgrid="false"
     inkscape:zoom="0.29734106"
     inkscape:cx="-26.905131"
     inkscape:cy="336.31414"
     inkscape:window-width="1419"
     inkscape:window-height="456"
     inkscape:window-x="0"
     inkscape:window-y="25"
     inkscape:window-maximized="0"
     inkscape:current-layer="svg48887">
    <inkscape:page
       x="0"
       y="0"
       id="page48893"
       width="795.03467"
       height="793.70135" />
  </sodipodi:namedview>
  <path
     d="M 345.052 212.923 C 345.248 212.923 345.423 212.936 345.615 212.938 C 346.483 207.792 349.007 201.902 354.529 196.42 C 361.957 188.938 370.14 186.95 376.188 187.146 C 377.699 187.186 379.079 187.344 380.309 187.562 C 379.3 185.596 378.692 182.876 378.721 179.255 C 378.807 168.21 376.217 157.85 370.219 145.581 C 365.008 147.727 359.556 150.394 354.207 153.266 C 354.193 153.228 354.175 153.19 354.205 153.268 C 357.113 160.618 360.556 172.191 349.272 183.475 C 337.988 194.758 326.416 191.315 319.065 188.407 C 318.987 188.378 319.025 188.395 319.064 188.41 C 316.191 193.759 313.524 199.211 311.377 204.42 C 323.647 210.42 334.008 213.01 345.052 212.923 M 443.488 251.704 C 443.576 240.66 440.984 230.3 434.985 218.03 C 429.776 220.175 424.324 222.843 418.974 225.716 C 418.961 225.678 418.942 225.639 418.972 225.718 C 421.88 233.068 425.322 244.642 414.038 255.923 C 402.756 267.207 391.184 263.764 383.833 260.859 C 383.755 260.827 383.793 260.846 383.831 260.859 C 380.959 266.21 378.292 271.66 376.144 276.871 C 388.413 282.868 398.775 285.46 409.82 285.373 C 413.141 285.348 415.714 285.851 417.636 286.712 C 418.914 283.053 421.153 279.212 424.808 275.588 C 431.778 268.562 439.542 266.744 445.262 266.986 C 447.977 267.083 450.257 267.572 451.944 268.08 C 452.141 267.867 452.353 267.646 452.58 267.419 C 454.497 265.486 457.569 263.146 462.012 261.367 C 459.094 261.944 456.429 262.638 454.286 263.428 C 448.848 265.439 443.404 262.479 443.488 251.704 M 477.248 360.077 C 479.65 360.059 481.63 360.337 483.249 360.829 C 483.344 355.379 485.378 348.356 491.809 341.973 C 497.89 335.84 504.553 333.709 509.881 333.447 C 509.494 331.939 509.276 330.152 509.293 328.033 C 509.374 317.52 506.91 307.657 501.198 295.98 C 496.241 298.023 491.052 300.561 485.961 303.296 C 485.946 303.259 485.93 303.223 485.96 303.299 C 488.726 310.293 492.002 321.309 481.262 332.048 C 470.524 342.788 459.51 339.509 452.513 336.744 C 452.438 336.715 452.474 336.731 452.512 336.747 C 449.778 341.835 447.238 347.025 445.196 351.983 C 456.874 357.695 466.734 360.157 477.248 360.077 M 549.691 452.257 C 551.507 444.42 555.058 439.406 557.87 436.62 C 558.199 436.289 558.521 435.989 558.823 435.716 C 558.153 433.756 557.445 430.989 557.231 427.669 C 556.777 421.125 558.593 412.227 566.531 404.344 C 568.918 401.94 571.399 400.107 573.878 398.717 C 573.326 397.097 573.014 395.064 573.033 392.559 C 573.111 382.509 570.754 373.08 565.295 361.916 C 560.554 363.867 555.591 366.296 550.725 368.908 C 550.711 368.873 550.695 368.84 550.722 368.911 C 553.369 375.6 556.501 386.132 546.233 396.4 C 535.966 406.667 525.434 403.536 518.745 400.891 C 518.674 400.863 518.708 400.88 518.744 400.891 C 516.129 405.76 513.701 410.721 511.748 415.464 C 522.914 420.922 532.342 423.278 542.394 423.2 C 552.195 423.125 554.893 428.078 553.063 433.029 C 551.309 437.77 550.062 445.257 549.691 452.257 M 663.715 417.096 C 663.029 417.784 662.306 418.338 661.413 418.71 C 646.057 424.56 621.831 433.713 608.891 446.702 C 595.903 459.644 586.741 483.872 580.893 499.232 C 580.521 500.125 579.971 500.844 579.277 501.538 C 571.897 508.917 564.077 500.846 564.077 500.846 C 568.635 503.412 574.057 500.406 576.086 498.346 C 576.514 497.932 576.747 497.536 576.761 497.456 C 577.322 496.013 577.886 494.477 578.498 492.877 L 577.379 492.877 C 564.746 492.984 557.697 490.854 557.697 490.854 C 557.697 490.854 564.562 488.573 577.111 488.474 L 580.214 488.404 C 580.874 486.71 581.641 484.888 582.366 483.114 C 569.951 482.456 563.179 479.912 563.179 479.912 C 563.179 479.912 570.19 478.06 582.763 478.698 L 584.191 478.768 C 585.046 476.778 585.947 474.76 586.875 472.753 L 581.781 472.614 C 569.117 472.286 562.135 469.898 562.135 469.898 C 562.135 469.898 569.082 467.877 581.65 468.205 L 588.925 468.422 C 590.154 465.937 591.467 463.461 592.822 461.065 L 587.285 460.958 C 574.629 460.852 567.611 458.57 567.611 458.57 C 567.611 458.57 574.518 456.448 587.079 456.549 L 595.451 456.666 C 597.05 454.112 598.746 451.669 600.526 449.372 L 585.074 449.68 C 572.45 449.945 565.386 447.885 565.386 447.885 C 565.386 447.885 572.207 445.533 584.745 445.278 L 603.97 444.862 C 602.302 443.193 599.626 440.469 596.466 437.31 L 591.242 437.552 C 578.638 438.13 571.563 436.256 571.563 436.256 C 571.563 436.256 578.331 433.713 590.838 433.148 L 592.199 433.07 C 590.459 431.33 588.674 429.533 586.898 427.756 C 586.751 427.609 586.621 427.45 586.478 427.308 C 577.283 427.24 572.223 425.874 572.223 425.874 C 572.223 425.874 575.929 424.524 582.999 423.573 C 576.733 416.628 574.219 412.032 574.219 412.032 C 574.219 412.032 578.807 414.552 585.753 420.82 C 586.705 413.75 588.054 410.044 588.054 410.044 C 588.054 410.044 589.418 415.098 589.495 424.292 C 589.635 424.432 589.791 424.57 589.937 424.713 C 591.715 426.494 593.514 428.276 595.251 430.016 L 595.33 428.656 C 595.897 416.15 598.431 409.383 598.431 409.383 C 598.431 409.383 600.309 416.461 599.739 429.057 L 599.489 434.286 C 602.651 437.445 605.37 440.12 607.041 441.792 L 607.458 422.565 C 607.711 410.029 610.065 403.205 610.065 403.205 C 610.065 403.205 612.133 410.263 611.859 422.89 L 611.562 438.338 C 613.858 436.56 616.298 434.865 618.854 433.262 L 618.741 424.89 C 618.634 412.325 620.753 405.427 620.753 405.427 C 620.753 405.427 623.031 412.451 623.145 425.098 L 623.249 430.638 C 625.65 429.278 628.13 427.966 630.605 426.745 L 630.387 419.469 C 630.058 406.907 632.079 399.956 632.079 399.956 C 632.079 399.956 634.465 406.935 634.803 419.593 L 634.933 424.696 C 636.95 423.76 638.969 422.857 640.946 422.013 L 640.887 420.573 C 640.243 408.011 642.09 401 642.09 401 C 642.09 401 644.634 407.768 645.298 420.188 C 647.07 419.461 648.89 418.696 650.582 418.033 L 650.655 414.932 C 650.761 402.369 653.031 395.517 653.031 395.517 C 653.031 395.517 655.167 402.565 655.061 415.202 L 655.066 416.31 C 656.657 415.705 658.201 415.136 659.635 414.581 C 659.719 414.568 660.122 414.328 660.525 413.906 C 662.586 411.88 665.594 406.453 663.026 401.899 C 663.026 401.899 671.097 409.713 663.715 417.096 M 669.033 395.657 C 657.161 386.455 641.346 395.879 641.346 395.879 C 641.346 395.879 633.413 388.531 618.359 390.832 C 603.683 393.08 599.239 401.524 599.239 401.524 C 599.239 401.524 583.511 393.028 569.362 407.175 C 555.214 421.325 563.702 437.06 563.702 437.06 C 563.702 437.06 555.261 441.505 553.014 456.18 C 550.711 471.229 558.062 479.166 558.062 479.166 C 558.062 479.166 548.637 494.978 557.839 506.854 C 566.342 517.825 580.353 516.524 585.639 500.934 C 590.937 485.341 599.367 464.133 612.843 450.656 C 626.314 437.185 647.529 428.748 663.115 423.458 C 678.703 418.172 680.004 404.159 669.033 395.657 M 508.694 283.923 C 508.08 284.535 507.438 285.037 506.656 285.387 C 493.222 290.928 472.03 299.608 460.452 311.231 C 448.832 322.812 440.144 344.007 434.598 357.447 C 434.252 358.223 433.754 358.861 433.133 359.483 C 426.528 366.088 420.046 359.379 420.046 359.379 C 423.894 361.444 428.669 358.679 430.485 356.832 C 430.866 356.465 431.082 356.116 431.096 356.045 C 431.628 354.78 432.164 353.439 432.744 352.037 L 431.778 352.077 C 420.878 352.58 414.866 350.968 414.866 350.968 C 414.866 350.968 420.86 348.777 431.69 348.288 L 434.368 348.127 C 434.99 346.645 435.713 345.048 436.393 343.499 C 425.708 343.324 419.95 341.351 419.95 341.351 C 419.95 341.351 426.054 339.531 436.878 339.673 L 438.109 339.684 C 438.909 337.947 439.756 336.173 440.621 334.411 L 436.229 334.46 C 425.317 334.583 419.377 332.752 419.377 332.752 C 419.377 332.752 425.433 330.785 436.26 330.66 L 442.525 330.611 C 443.666 328.428 444.88 326.252 446.129 324.137 L 441.356 324.225 C 430.442 324.543 424.464 322.801 424.464 322.801 C 424.464 322.801 430.489 320.749 441.318 320.431 L 448.536 320.259 C 449.998 318.004 451.544 315.845 453.15 313.804 L 439.81 314.572 C 428.917 315.207 422.89 313.66 422.89 313.66 C 422.89 313.66 428.85 311.408 439.669 310.78 L 456.265 309.799 C 454.88 308.413 452.662 306.155 450.038 303.531 L 445.524 303.908 C 434.636 304.816 428.594 303.423 428.594 303.423 C 428.594 303.423 434.513 301.02 445.317 300.124 L 446.494 300.015 C 445.05 298.572 443.572 297.077 442.094 295.597 C 441.972 295.479 441.865 295.345 441.749 295.228 C 433.818 295.465 429.498 294.452 429.498 294.452 C 429.498 294.452 432.738 293.171 438.868 292.121 C 433.69 286.332 431.668 282.449 431.668 282.449 C 431.668 282.449 435.546 284.476 441.333 289.652 C 442.382 283.525 443.664 280.285 443.664 280.285 C 443.664 280.285 444.68 284.605 444.448 292.531 C 444.566 292.647 444.693 292.759 444.813 292.879 C 446.292 294.359 447.785 295.837 449.228 297.28 L 449.338 296.103 C 450.234 285.299 452.637 279.384 452.637 279.384 C 452.637 279.384 454.03 285.423 453.129 296.309 L 452.742 300.824 C 455.368 303.449 457.628 305.665 459.013 307.053 L 459.997 290.457 C 460.621 279.637 462.87 273.676 462.87 273.676 C 462.87 273.676 464.425 279.697 463.784 290.597 L 463.024 303.931 C 465.065 302.321 467.224 300.78 469.477 299.316 L 469.65 292.1 C 469.969 281.269 472.018 275.247 472.018 275.247 C 472.018 275.247 473.758 281.228 473.444 292.137 L 473.357 296.908 C 475.469 295.66 477.649 294.447 479.824 293.313 L 479.874 287.045 C 479.996 276.22 481.966 270.163 481.966 270.163 C 481.966 270.163 483.794 276.106 483.68 287.009 L 483.625 291.408 C 485.394 290.533 487.166 289.692 488.898 288.897 L 488.893 287.66 C 488.745 276.843 490.565 270.736 490.565 270.736 C 490.565 270.736 492.538 276.496 492.708 287.181 C 494.261 286.499 495.857 285.78 497.34 285.155 L 497.501 282.479 C 497.997 271.64 500.178 265.655 500.178 265.655 C 500.178 265.655 501.794 271.663 501.293 282.564 L 501.261 283.52 C 502.65 282.949 504.001 282.408 505.258 281.881 C 505.329 281.868 505.686 281.647 506.046 281.275 C 507.892 279.455 510.66 274.682 508.592 270.835 C 508.592 270.835 515.301 277.316 508.694 283.923 M 510.852 266.999 C 501.316 260.31 489.406 267.031 489.406 267.031 C 489.406 267.031 482.806 260.942 469.894 263.272 C 457.301 265.548 453.298 272.867 453.298 272.867 C 453.298 272.867 440.068 265.988 427.638 278.419 C 415.208 290.848 422.08 304.088 422.08 304.088 C 422.08 304.088 414.762 308.088 412.485 320.679 C 410.153 333.592 416.244 340.195 416.244 340.195 C 416.244 340.195 409.523 352.103 416.209 361.64 C 422.276 370.285 434.38 371.569 439.273 358.121 C 444.176 344.676 451.893 326.353 463.732 314.512 C 475.565 302.679 493.894 294.957 507.336 290.064 C 520.782 285.168 519.497 273.062 510.852 266.999 M 391.947 517.117 C 390.815 517.234 389.752 517.281 388.737 517.305 C 389.029 520.273 389.185 523.15 389.24 525.94 L 422.922 559.627 C 426.364 558.239 427.953 557.507 434.193 559.002 L 392.273 517.084 C 392.163 517.096 392.057 517.106 391.947 517.117 M 491.393 621.611 L 460.761 590.981 C 457.878 591.259 455.2 591.226 452.72 590.922 C 452.92 593.275 453.036 595.578 453.084 597.814 L 488.016 632.745 L 553.554 619.693 L 551.549 609.633 Z M 480.854 712.207 L 485.302 641.147 L 452.768 608.611 C 452.4 613.207 451.765 617.461 450.973 621.327 L 474.734 645.089 L 470.616 711.575 Z M 498.94 713.33 L 502.973 648.242 L 557.091 637.463 L 555.089 627.401 L 493.228 639.723 L 488.7 712.695 Z M 258.846 433.554 C 260.668 432.448 262.635 431.718 264.66 431.448 L 266.77 431.164 L 240.69 405.087 C 240.855 408.68 240.836 412.12 240.672 415.377 Z M 196.132 375.655 L 170.504 350.031 C 170.172 352.821 169.744 355.493 169.244 358.031 L 190.067 378.853 C 191.911 377.367 193.966 376.28 196.132 375.655 M 280.513 426.95 C 280.833 426.114 281.197 425.32 281.591 424.56 L 245.607 388.572 C 243.086 388.643 240.727 388.509 238.547 388.189 C 238.798 389.259 239.023 390.356 239.22 391.491 C 239.29 391.895 239.343 392.285 239.41 392.687 L 275.359 428.638 Z M 203.723 369.665 C 204.894 368.496 206.195 367.517 207.58 366.725 L 176.412 335.556 C 174.606 335.649 172.882 335.608 171.244 335.447 C 171.268 336.868 171.268 338.272 171.239 339.649 L 202.551 370.96 C 202.93 370.512 203.316 370.08 203.723 369.665 M 314.38 476.026 L 346.137 507.784 C 346.517 504.59 347.255 501.696 348.317 499.128 L 316.316 467.128 C 315.779 470.365 315.109 473.341 314.38 476.026 M 352.572 492.265 C 352.803 492.005 353.036 491.74 353.281 491.494 C 354.921 489.854 356.808 488.581 358.833 487.685 L 318.085 446.94 C 317.876 446.942 317.659 446.945 317.456 446.948 C 317.635 450.505 317.609 453.898 317.425 457.122 Z M 416.456 564.27 L 388.907 536.721 C 388.603 540.461 388.123 543.966 387.524 547.226 L 411.958 571.661 C 413.081 568.791 414.602 566.319 416.456 564.27 M 458.537 560.007 C 452.053 560.953 447.336 563.13 444.236 565.838 C 445.706 567.59 447.024 569.611 448.156 571.909 C 451.485 571.314 454.996 570.739 458.686 570.198 C 466.33 569.081 485.686 568.229 485.874 569.505 C 486.06 570.778 466.9 573.633 459.35 574.731 C 456.08 575.21 452.949 575.715 449.957 576.245 C 450.993 579.234 451.769 582.575 452.242 586.255 C 455.136 586.729 458.516 586.753 462.364 586.19 C 489.322 582.247 504.064 566.718 504.064 566.718 C 504.064 566.718 485.493 556.062 458.537 560.007 M 425.02 634.147 C 422.376 629.874 419.562 624.589 417.048 618.338 C 417.253 625.723 417.261 632.997 416.472 633.031 C 415.188 633.089 412.348 613.922 411.996 606.205 C 411.92 604.559 411.861 602.95 411.81 601.366 C 411.133 598.281 410.556 595.049 410.125 591.669 C 409.961 590.366 409.855 589.103 409.781 587.862 C 405.089 590.546 401.471 597.267 401.961 607.994 C 403.207 635.207 417.194 651.419 417.194 651.419 C 417.194 651.419 421.7 645.103 425.02 634.147 M 454.22 548.005 C 445.856 551.917 442.057 557.314 441.696 561.997 C 445.597 558.783 450.996 556.478 457.872 555.469 C 458.137 555.431 458.397 555.403 458.66 555.365 C 466.654 551.819 477.082 547.846 477.541 548.71 C 477.837 549.267 473.834 551.762 468.894 554.573 C 474.386 554.469 479.414 554.89 483.88 555.598 C 491.302 548.379 494.488 542.09 494.488 542.09 C 494.488 542.09 476.048 537.802 454.22 548.005 M 398.944 663.231 C 398.944 663.231 404.079 656.934 407.951 645.789 C 405.479 641.379 402.688 635.365 400.577 627.919 C 400.147 636.153 399.476 645.409 398.585 645.366 C 397.303 645.319 396.115 625.977 396.425 618.257 C 396.656 612.627 396.997 607.362 397.425 602.551 C 392.192 604.057 387.496 610.333 387.285 621.57 C 386.804 647.179 398.944 663.231 398.944 663.231 M 429.954 562.879 C 429.453 570.398 430.033 583.398 432.017 598.937 C 432.978 606.502 435.37 625.729 434.092 625.89 C 432.816 626.051 428.444 607.177 427.468 599.515 C 425.55 584.365 424.897 571.734 425.328 563.578 C 418.242 566.127 412.69 575.489 414.674 591.093 C 418.994 625.095 438.178 644.007 438.178 644.007 C 438.178 644.007 452.024 620.901 447.701 586.895 C 445.67 570.914 437.621 563.245 429.954 562.879 M 395.939 481.248 C 399.927 481.196 403.681 481.417 407.175 481.828 C 415.242 474.524 418.44 467.469 418.44 467.469 C 418.44 467.469 403.424 464.633 386.169 473.606 C 379.923 476.857 377.019 481.036 376.605 484.682 C 379.029 483.573 381.784 482.718 384.865 482.161 C 392.06 478.357 408.871 471.292 409.469 472.385 C 409.873 473.122 402.779 477.366 395.939 481.248 M 339.703 563.138 C 338.004 559.065 336.441 554.469 335.213 549.366 C 334.705 553.135 334.176 555.817 333.693 555.775 C 332.411 555.674 332.04 536.297 332.672 528.601 C 332.715 528.089 332.76 527.596 332.804 527.093 C 328.789 528.226 325.185 533.029 325.023 541.644 C 324.653 561.231 333.939 573.51 333.939 573.51 C 333.939 573.51 336.961 569.805 339.703 563.138 M 378.917 492.177 C 380.316 493.581 381.592 495.208 382.736 497.044 C 384.629 496.82 386.563 496.609 388.557 496.412 C 396.244 495.648 415.621 495.69 415.746 496.972 C 415.874 498.256 396.601 500.218 389.009 500.974 C 387.651 501.109 386.332 501.25 385.015 501.398 C 386.445 504.68 387.52 508.466 388.179 512.737 C 389.244 512.721 390.34 512.669 391.493 512.56 C 418.604 509.865 434.046 495.032 434.046 495.032 C 434.046 495.032 415.986 483.529 388.879 486.224 C 383.612 486.745 379.453 488.12 376.349 489.974 C 377.243 490.633 378.107 491.365 378.917 492.177 M 363.532 565.747 C 360.765 561.693 357.604 556.382 354.699 549.862 C 355.353 557.083 355.793 564.09 355.024 564.174 C 353.741 564.317 349.695 545.365 348.853 537.69 C 348.563 535.01 348.312 532.422 348.095 529.912 C 347.357 526.645 346.735 523.224 346.275 519.63 C 346.052 517.885 345.924 516.202 345.869 514.57 C 340.451 517.27 336.383 524.917 337.729 537.218 C 340.897 566.147 356.907 582.478 356.907 582.478 C 356.907 582.478 360.747 576.311 363.532 565.747 M 370.243 553.849 C 368.965 554.01 364.593 535.136 363.616 527.474 C 361.7 512.32 361.048 499.693 361.477 491.536 C 354.392 494.089 348.84 503.45 350.823 519.054 C 355.145 553.054 374.328 571.969 374.328 571.969 C 374.328 571.969 388.175 548.859 383.853 514.854 C 381.819 498.869 373.771 491.202 366.104 490.838 C 365.603 498.357 366.185 511.36 368.167 526.893 C 369.131 534.461 371.521 553.687 370.243 553.849 M 312.548 402.019 C 305.804 406.027 302.968 410.896 302.949 414.926 L 304.531 414.208 C 305.96 413.568 307.509 413.024 309.172 412.581 C 309.855 412.144 310.519 411.716 311.219 411.276 C 317.772 407.188 335.163 398.647 335.843 399.74 C 336.357 400.563 327.169 406.612 319.839 411.271 C 324.524 411.199 328.921 411.489 332.984 412.036 C 343.161 402.839 346.779 393.46 346.779 393.46 C 346.779 393.46 330.504 391.34 312.548 402.019 M 267.858 483.098 C 266.112 478.82 264.491 473.814 263.32 468.145 C 262.067 473.869 260.828 478.641 260.191 478.518 C 259.046 478.305 260.279 462.51 261.582 453.869 C 261.363 447.161 262.594 441.549 264.984 437.234 C 265.08 436.822 265.176 436.396 265.274 435.994 C 259.875 436.716 254.318 442.242 252.472 453.33 C 248.272 478.593 257.946 496.248 257.946 496.248 C 257.946 496.248 262.874 491.737 267.858 483.098 M 289.88 478.177 C 286.567 472.2 283.2 464.521 280.927 455.248 C 281.304 464.005 281.833 479.257 280.691 479.31 C 279.405 479.366 276.567 460.2 276.212 452.486 C 275.896 445.472 275.803 439.016 275.902 433.289 C 270.331 435.106 265.626 442.133 266.18 454.27 C 267.424 481.486 281.412 497.698 281.412 497.698 C 281.412 497.698 286.535 490.51 289.88 478.177 M 318.083 415.904 C 313.356 416.086 309.48 417.008 306.417 418.39 C 307.1 418.914 307.764 419.481 308.392 420.112 C 310.083 421.81 311.568 423.866 312.821 426.253 C 314.245 426.18 315.676 426.106 317.151 426.049 C 324.871 425.75 344.209 426.956 344.26 428.237 C 344.309 429.529 324.956 430.333 317.329 430.633 C 316.461 430.666 315.628 430.713 314.773 430.753 C 315.707 433.432 316.403 436.422 316.827 439.716 C 316.936 440.609 317.033 441.492 317.119 442.369 C 317.772 442.372 318.432 442.372 319.119 442.344 C 346.341 441.276 362.643 427.398 362.643 427.398 C 362.643 427.398 345.304 414.836 318.083 415.904 M 283.483 443.953 C 287.252 473.593 303.975 490.081 303.975 490.081 C 303.975 490.081 316.044 469.937 312.276 440.294 C 310.505 426.362 303.489 419.674 296.805 419.36 C 296.368 425.912 296.875 437.245 298.604 450.786 C 299.443 457.385 301.527 474.144 300.413 474.284 C 299.301 474.429 295.488 457.974 294.637 451.294 C 292.968 438.084 292.397 427.076 292.772 419.966 C 286.595 422.188 281.755 430.352 283.483 443.953 M 183.606 428.596 C 182.622 424.734 181.803 420.521 181.259 415.997 C 176.955 423.513 171.395 432.866 170.554 432.393 C 169.463 431.781 176.739 414.961 180.616 407.841 C 180.564 406.495 180.53 405.131 180.53 403.737 C 180.539 400.901 180.766 398.256 181.184 395.799 C 178.527 397.564 175.89 400.477 173.614 404.745 C 162.942 424.745 166.064 442.281 166.064 442.281 C 166.064 442.281 174.759 438.453 183.606 428.596 M 234.211 344.007 C 224.964 348.647 221.568 355.023 222.316 359.993 C 226.466 357.533 231.063 354.952 236.038 352.321 C 242.868 348.707 260.826 341.428 261.427 342.569 C 261.882 343.431 252.214 348.845 244.555 352.976 C 244.614 352.973 244.666 352.963 244.724 352.96 C 250.42 352.747 255.695 353.092 260.508 353.78 C 269.967 345.228 273.804 337.075 273.804 337.075 C 273.804 337.075 255.48 333.337 234.211 344.007 M 244.906 357.543 C 233.976 357.973 227.551 362.299 225.395 367.316 C 226.1 367.749 226.791 368.231 227.46 368.759 C 232.491 368.301 238.008 367.928 243.975 367.692 C 251.692 367.389 271.032 368.592 271.082 369.879 C 271.134 371.165 251.778 371.976 244.152 372.275 C 239.732 372.444 235.568 372.701 231.65 373.007 C 233.844 375.799 235.686 379.223 237.098 383.269 C 239.66 383.843 242.596 384.116 245.94 383.983 C 273.163 382.921 289.465 369.04 289.465 369.04 C 289.465 369.04 272.127 356.479 244.906 357.543 M 210.539 434.781 C 207.486 429.59 204.415 423.33 201.86 416.024 C 201.779 424.812 201.499 436.461 200.5 436.458 C 199.212 436.458 197.294 417.177 197.312 409.451 C 197.322 405.923 197.387 402.56 197.488 399.335 C 197.452 399.132 197.412 398.936 197.376 398.728 C 196.122 391.491 196.398 385.152 197.915 379.919 C 191.212 381.512 185.147 389.392 185.116 403.748 C 185.048 435.317 200.339 454.857 200.339 454.857 C 200.339 454.857 206.059 447.598 210.539 434.781 M 227.752 449.753 C 227.752 449.753 240.543 426.046 234.702 392.272 C 231.955 376.395 223.568 369.095 215.894 369.077 C 215.732 376.608 216.892 389.569 219.574 405.003 C 220.874 412.519 224.128 431.617 222.858 431.838 C 221.587 432.054 216.372 413.396 215.055 405.784 C 212.459 390.736 211.24 378.147 211.304 369.979 C 204.339 372.845 199.214 382.449 201.892 397.947 C 207.739 431.724 227.752 449.753 227.752 449.753 M 169.02 284.687 C 159.111 290.171 155.731 297.307 156.851 302.681 C 162.142 299.045 168.462 295.043 175.592 290.889 C 182.271 287.004 199.918 279.002 200.567 280.116 C 201.215 281.231 184.494 291.015 177.902 294.853 C 175.127 296.463 172.479 298.056 169.968 299.611 C 171.715 298.98 173.58 298.428 175.59 297.983 C 183.054 296.337 190.002 295.741 196.228 295.783 C 207.406 285.483 211.659 275.423 211.659 275.423 C 211.659 275.423 191.622 272.176 169.02 284.687 M 142.086 378.632 C 138.026 371.491 133.377 361.165 130.689 348.069 C 130.531 352.507 130.463 357.312 130.515 362.423 C 130.587 370.051 130.727 389.423 129.439 389.439 C 128.15 389.449 126.005 370.195 125.929 362.471 C 125.811 349.955 126.343 339.212 127.297 331.309 C 120.033 332.332 113.229 340.528 113.378 355.98 C 113.69 388.129 129.497 407.839 129.497 407.839 C 129.497 407.839 137.79 397.061 142.086 378.632 M 97.6246 366.097 C 94.0726 392.881 104.883 411.156 104.883 411.156 C 104.883 411.156 111.077 405.109 116.478 393.777 C 114.291 388.543 112.187 382.179 110.731 374.819 C 109.343 383.272 107.478 393.512 106.546 393.371 C 105.273 393.176 106.279 373.824 107.459 366.189 C 107.901 363.329 108.367 360.603 108.843 357.955 C 108.825 357.313 108.799 356.676 108.793 356.028 C 108.765 353.017 108.983 350.217 109.414 347.621 C 104.133 349.135 99.0819 355.105 97.6246 366.097 M 176.584 302.46 C 170.872 303.725 166.538 305.807 163.46 308.275 C 165.254 310.439 166.782 313.02 167.994 316.004 C 172.294 314.845 176.966 313.7 181.968 312.585 C 189.512 310.916 208.755 308.655 209.034 309.913 C 209.312 311.168 190.408 315.413 182.96 317.061 C 178.14 318.127 173.614 319.239 169.45 320.356 C 170.272 323.376 170.822 326.715 171.056 330.368 C 171.064 330.523 171.07 330.671 171.076 330.824 C 174.392 331.228 178.271 331.053 182.704 330.072 C 211.131 323.769 225.632 306.072 225.632 306.072 C 225.632 306.072 205.011 296.157 176.584 302.46 M 166.48 330.657 C 165.468 314.577 157.92 306.419 150.295 305.564 C 149.314 313.035 149.07 326.045 150.064 341.679 C 150.543 349.293 151.71 368.629 150.426 368.709 C 149.139 368.793 145.972 349.679 145.486 341.968 C 144.537 326.725 144.685 314.08 145.632 305.968 C 138.398 308.064 132.262 317.053 133.253 332.755 C 135.409 366.963 153.355 387.051 153.355 387.051 C 153.355 387.051 168.636 364.868 166.48 330.657 M 638.151 438.713 C 638.077 438.544 638.221 438.896 638.151 438.713 M 666.33 490.656 C 666.247 492.073 666.427 493.25 666.601 494.057 C 666.783 494.852 666.937 495.166 666.929 495.169 C 667.297 495.997 667.073 496.942 666.465 497.549 C 666.283 497.729 666.067 497.88 665.83 497.989 C 664.754 498.477 663.511 498.008 663.042 496.95 C 662.837 496.688 658.841 486.705 668.702 476.874 C 678.523 467.024 688.514 471.016 688.778 471.213 C 689.834 471.666 690.308 472.92 689.815 474.005 C 689.331 475.068 688.075 475.565 687.006 475.096 C 687.006 475.096 685.32 474.341 682.475 474.513 C 679.628 474.664 675.799 475.716 671.662 479.833 C 667.534 483.981 666.498 487.794 666.33 490.656 M 660.179 503.644 C 660.059 503.89 659.911 504.101 659.73 504.284 C 659.121 504.893 658.186 505.106 657.351 504.748 C 657.346 504.757 657.041 504.593 656.243 504.412 C 655.43 504.245 654.255 504.065 652.838 504.148 C 649.974 504.317 646.162 505.354 642.015 509.481 C 637.894 513.62 636.845 517.448 636.691 520.297 C 636.53 523.133 637.285 524.82 637.285 524.82 C 637.745 525.896 637.249 527.15 636.185 527.636 C 635.109 528.122 633.849 527.65 633.395 526.598 C 633.193 526.33 629.203 516.344 639.057 506.521 C 648.885 496.661 658.87 500.656 659.141 500.854 C 660.195 501.322 660.655 502.576 660.179 503.644 M 691.755 481.078 L 706.079 466.756 C 706.079 466.756 701.996 462.674 692.786 460.882 C 683.579 459.081 673.967 461.596 670.005 462.36 C 666.057 463.112 663.049 462.302 661.297 459.536 C 659.771 457.145 659.413 453.44 658.677 445.294 C 658.305 441.15 656.838 435.5 655.467 430.912 C 649.81 433.065 643.922 435.77 638.151 438.713 C 641.65 446.934 645.918 459.825 633.963 471.778 C 622.003 483.737 609.115 479.469 600.902 475.966 C 600.811 475.929 600.857 475.95 600.901 475.966 C 597.957 481.737 595.246 487.628 593.095 493.281 C 597.689 494.648 603.341 496.12 607.474 496.497 C 615.626 497.224 619.326 497.593 621.718 499.114 C 624.481 500.869 625.302 503.866 624.537 507.825 C 623.779 511.786 621.261 521.396 623.063 530.604 C 624.854 539.817 628.935 543.901 628.935 543.901 L 643.257 529.576 C 643.257 529.576 638.531 520.81 645.946 513.396 C 653.353 505.989 662.118 510.713 662.118 510.713 L 672.897 499.94 C 672.897 499.94 668.17 491.169 675.586 483.756 C 682.991 476.349 691.755 481.078 691.755 481.078 M 572.626 350.1 C 572.034 350.692 571.415 351.173 570.665 351.512 C 557.741 356.84 537.352 365.192 526.209 376.373 C 515.029 387.515 506.672 407.909 501.34 420.838 C 501.004 421.584 500.526 422.2 499.929 422.8 C 493.573 429.153 487.337 422.696 487.337 422.696 C 491.038 424.688 495.633 422.024 497.38 420.25 C 497.746 419.896 497.956 419.56 497.968 419.489 C 498.477 418.276 498.994 416.981 499.55 415.636 L 498.622 415.674 C 488.136 416.156 482.354 414.604 482.354 414.604 C 482.354 414.604 488.12 412.495 498.54 412.027 L 501.114 411.869 C 501.714 410.445 502.41 408.912 503.065 407.417 C 492.784 407.253 487.244 405.355 487.244 405.355 C 487.244 405.355 493.117 403.599 503.53 403.737 L 504.716 403.748 C 505.485 402.076 506.298 400.372 507.132 398.676 L 502.906 398.72 C 492.408 398.84 486.69 397.08 486.69 397.08 C 486.69 397.08 492.52 395.187 502.934 395.064 L 508.966 395.02 C 510.062 392.921 511.228 390.824 512.429 388.791 L 507.837 388.871 C 497.34 389.181 491.585 387.507 491.585 387.507 C 491.585 387.507 497.382 385.531 507.802 385.225 L 514.746 385.059 C 516.153 382.887 517.636 380.812 519.184 378.851 L 506.352 379.588 C 495.87 380.197 490.07 378.707 490.07 378.707 C 490.07 378.707 495.805 376.543 506.216 375.939 L 522.182 374.999 C 520.849 373.665 518.714 371.491 516.19 368.963 L 511.85 369.329 C 501.374 370.201 495.561 368.864 495.561 368.864 C 495.561 368.864 501.253 366.545 511.65 365.687 L 512.784 365.583 C 511.394 364.192 509.968 362.755 508.549 361.335 C 508.432 361.217 508.33 361.089 508.216 360.976 C 500.586 361.204 496.43 360.228 496.43 360.228 C 496.43 360.228 499.546 358.996 505.444 357.985 C 500.461 352.416 498.518 348.681 498.518 348.681 C 498.518 348.681 502.249 350.632 507.816 355.613 C 508.825 349.717 510.061 346.6 510.061 346.6 C 510.061 346.6 511.034 350.756 510.813 358.379 C 510.926 358.493 511.048 358.6 511.165 358.717 C 512.585 360.137 514.024 361.561 515.413 362.952 L 515.518 361.819 C 516.378 351.423 518.692 345.731 518.692 345.731 C 518.692 345.731 520.029 351.543 519.164 362.015 L 518.796 366.361 C 521.321 368.887 523.493 371.02 524.828 372.353 L 525.772 356.387 C 526.373 345.976 528.538 340.241 528.538 340.241 C 528.538 340.241 530.034 346.035 529.414 356.523 L 528.686 369.348 C 530.646 367.801 532.724 366.316 534.894 364.908 L 535.061 357.968 C 535.365 347.545 537.337 341.755 537.337 341.755 C 537.337 341.755 539.013 347.509 538.71 358.001 L 538.626 362.592 C 540.66 361.392 542.758 360.225 544.849 359.135 L 544.896 353.105 C 545.014 342.689 546.909 336.861 546.909 336.861 C 546.909 336.861 548.669 342.58 548.555 353.067 L 548.506 357.299 C 550.209 356.46 551.91 355.647 553.579 354.887 L 553.574 353.697 C 553.429 343.288 555.183 337.416 555.183 337.416 C 555.183 337.416 557.081 342.955 557.245 353.233 C 558.738 352.58 560.273 351.884 561.698 351.285 L 561.855 348.709 C 562.334 338.285 564.431 332.525 564.431 332.525 C 564.431 332.525 565.985 338.307 565.502 348.796 L 565.471 349.712 C 566.81 349.163 568.11 348.64 569.318 348.137 C 569.386 348.127 569.73 347.908 570.078 347.551 C 571.851 345.801 574.517 341.207 572.525 337.507 C 572.525 337.507 578.979 343.744 572.626 350.1 M 578.365 331.668 C 565.702 323.64 554.726 333.192 554.726 333.192 C 554.726 333.192 548.369 327.337 535.808 329.717 C 523.56 332.04 519.605 339.181 519.605 339.181 C 519.605 339.181 506.82 332.621 494.638 344.804 C 482.461 356.983 489.012 369.775 489.012 369.775 C 489.012 369.775 481.87 373.728 479.546 385.979 C 477.168 398.537 483.021 404.896 483.021 404.896 C 483.021 404.896 473.474 415.865 481.498 428.533 C 488.373 439.38 500.353 435.198 505.226 422.098 C 510.106 408.995 517.762 391.135 529.368 379.533 C 540.964 367.931 558.831 360.272 571.926 355.397 C 585.033 350.517 589.21 338.543 578.365 331.668 M 550.738 368.832 C 550.681 368.692 550.791 368.98 550.738 368.832 M 485.946 303.395 C 485.888 303.249 486.002 303.548 485.946 303.395 M 443.028 205.067 C 442.377 205.718 441.698 206.246 440.874 206.618 C 426.676 212.472 404.279 221.647 392.037 233.928 C 379.759 246.166 370.579 268.57 364.721 282.769 C 364.351 283.592 363.828 284.267 363.172 284.921 C 356.191 291.903 349.34 284.813 349.34 284.813 C 353.407 286.996 358.453 284.069 360.371 282.124 C 360.776 281.733 361.003 281.364 361.019 281.291 C 361.576 279.955 362.143 278.535 362.757 277.056 L 361.737 277.098 C 350.219 277.63 343.864 275.922 343.864 275.922 C 343.864 275.922 350.2 273.611 361.645 273.092 L 364.472 272.922 C 365.135 271.356 365.895 269.671 366.615 268.028 C 355.323 267.846 349.24 265.762 349.24 265.762 C 349.24 265.762 355.688 263.835 367.129 263.988 L 368.429 264.002 C 369.276 262.16 370.167 260.291 371.08 258.426 L 366.441 258.476 C 354.911 258.606 348.629 256.674 348.629 256.674 C 348.629 256.674 355.029 254.592 366.476 254.463 L 373.097 254.408 C 374.303 252.106 375.581 249.804 376.903 247.567 L 371.859 247.658 C 360.325 247.999 354.005 246.16 354.005 246.16 C 354.005 246.16 360.375 243.984 371.821 243.652 L 379.448 243.467 C 380.993 241.086 382.625 238.803 384.324 236.648 L 370.225 237.458 C 358.713 238.128 352.344 236.494 352.344 236.494 C 352.344 236.494 358.641 234.118 370.079 233.452 L 387.619 232.416 C 386.153 230.952 383.808 228.564 381.035 225.79 L 376.268 226.188 C 364.757 227.148 358.373 225.678 358.373 225.678 C 358.373 225.678 364.629 223.136 376.047 222.19 L 377.291 222.074 C 375.764 220.548 374.2 218.968 372.639 217.408 C 372.511 217.282 372.401 217.139 372.275 217.016 C 363.895 217.266 359.331 216.195 359.331 216.195 C 359.331 216.195 362.752 214.839 369.232 213.728 C 363.756 207.615 361.621 203.51 361.621 203.51 C 361.621 203.51 365.72 205.652 371.835 211.124 C 372.944 204.647 374.303 201.226 374.303 201.226 C 374.303 201.226 375.371 205.79 375.129 214.163 C 375.252 214.287 375.387 214.404 375.516 214.532 C 377.076 216.095 378.653 217.66 380.179 219.184 L 380.295 217.942 C 381.243 206.523 383.784 200.268 383.784 200.268 C 383.784 200.268 385.253 206.654 384.303 218.156 L 383.896 222.93 C 386.669 225.703 389.057 228.05 390.52 229.514 L 391.56 211.974 C 392.22 200.536 394.597 194.24 394.597 194.24 C 394.597 194.24 396.241 200.602 395.563 212.123 L 394.76 226.211 C 396.915 224.512 399.196 222.882 401.58 221.336 L 401.761 213.71 C 402.097 202.26 404.263 195.899 404.263 195.899 C 404.263 195.899 406.104 202.22 405.772 213.744 L 405.679 218.792 C 407.915 217.472 410.219 216.19 412.514 214.994 L 412.568 208.371 C 412.696 196.928 414.778 190.524 414.778 190.524 C 414.778 190.524 416.71 196.804 416.588 208.33 L 416.532 212.974 C 418.402 212.054 420.273 211.162 422.105 210.324 L 422.098 209.016 C 421.942 197.583 423.865 191.132 423.865 191.132 C 423.865 191.132 425.952 197.219 426.133 208.511 C 427.773 207.792 429.46 207.03 431.024 206.371 L 431.196 203.54 C 431.721 192.088 434.025 185.762 434.025 185.762 C 434.025 185.762 435.734 192.114 435.201 203.634 L 435.17 204.644 C 436.64 204.04 438.066 203.464 439.394 202.911 C 439.469 202.898 439.848 202.662 440.228 202.268 C 442.177 200.346 445.104 195.3 442.92 191.235 C 442.92 191.235 450.01 198.086 443.028 205.067 M 449.333 184.82 C 435.42 176.003 423.361 186.494 423.361 186.494 C 423.361 186.494 416.382 180.063 402.584 182.678 C 389.128 185.23 384.787 193.075 384.787 193.075 C 384.787 193.075 370.741 185.87 357.361 199.25 C 343.98 212.631 351.181 226.682 351.181 226.682 C 351.181 226.682 343.336 231.022 340.783 244.48 C 338.169 258.278 344.599 265.256 344.599 265.256 C 344.599 265.256 334.115 277.31 342.925 291.228 C 350.477 303.143 363.636 298.545 368.991 284.155 C 374.352 269.762 382.761 250.143 395.508 237.398 C 408.247 224.658 427.872 216.239 442.261 210.884 C 456.657 205.527 461.246 192.372 449.333 184.82 M 418.984 225.643 C 418.921 225.494 419.041 225.808 418.984 225.643 M 296.88 200.638 L 299.709 200.466 C 300.369 198.902 301.131 197.215 301.851 195.576 C 290.56 195.394 284.473 193.308 284.473 193.308 C 284.473 193.308 290.924 191.383 302.363 191.535 L 303.664 191.548 C 304.511 189.708 305.403 187.838 306.315 185.974 L 301.676 186.024 C 290.144 186.154 283.863 184.22 283.863 184.22 C 283.863 184.22 290.265 182.139 301.709 182.008 L 308.331 181.956 C 309.537 179.652 310.819 177.348 312.136 175.114 L 307.093 175.207 C 295.563 175.547 289.243 173.706 289.243 173.706 C 289.243 173.706 295.608 171.532 307.056 171.199 L 314.683 171.015 C 316.227 168.634 317.86 166.35 319.56 164.195 L 305.46 165.006 C 293.949 165.676 287.579 164.042 287.579 164.042 C 287.579 164.042 293.877 161.663 305.312 161 L 322.851 159.964 C 321.388 158.502 319.043 156.111 316.269 153.336 L 311.503 153.736 C 299.995 154.696 293.608 153.227 293.608 153.227 C 293.608 153.227 299.863 150.682 311.281 149.738 L 312.525 149.62 C 310.999 148.095 309.435 146.516 307.873 144.957 C 307.747 144.83 307.635 144.686 307.509 144.562 C 299.129 144.813 294.564 143.743 294.564 143.743 C 294.564 143.743 297.985 142.387 304.464 141.281 C 298.991 135.163 296.856 131.059 296.856 131.059 C 296.856 131.059 300.955 133.198 307.069 138.673 C 308.179 132.195 309.536 128.773 309.536 128.773 C 309.536 128.773 310.605 133.337 310.363 141.711 C 310.485 141.835 310.621 141.953 310.749 142.081 C 312.309 143.641 313.889 145.206 315.413 146.732 L 315.531 145.49 C 316.476 134.069 319.02 127.817 319.02 127.817 C 319.02 127.817 320.488 134.202 319.536 145.703 L 319.129 150.478 C 321.904 153.251 324.293 155.596 325.757 157.062 L 326.795 139.519 C 327.455 128.085 329.832 121.786 329.832 121.786 C 329.832 121.786 331.476 128.15 330.799 139.671 L 329.997 153.759 C 332.151 152.06 334.431 150.43 336.815 148.884 L 336.999 141.255 C 337.332 129.809 339.5 123.449 339.5 123.449 C 339.5 123.449 341.339 129.769 341.008 141.295 L 340.913 146.339 C 343.149 145.018 345.452 143.738 347.748 142.541 L 347.803 135.918 C 347.932 124.474 350.013 118.071 350.013 118.071 C 350.013 118.071 351.944 124.351 351.823 135.877 L 351.767 140.522 C 353.636 139.602 355.508 138.71 357.34 137.871 L 357.332 136.565 C 357.177 125.131 359.101 118.681 359.101 118.681 C 359.101 118.681 361.187 124.767 361.367 136.059 C 363.008 135.339 364.695 134.577 366.26 133.918 L 366.431 131.086 C 366.957 119.637 369.26 113.31 369.26 113.31 C 369.26 113.31 370.969 119.659 370.437 131.179 L 370.405 132.191 C 371.875 131.586 373.301 131.013 374.629 130.459 C 374.704 130.447 375.081 130.21 375.463 129.815 C 377.412 127.895 380.339 122.846 378.155 118.782 C 378.155 118.782 385.245 125.631 378.263 132.614 C 377.612 133.265 376.935 133.791 376.109 134.166 C 361.911 140.019 339.513 149.192 327.273 161.474 C 314.995 173.715 305.811 196.118 299.956 210.315 C 299.587 211.14 299.063 211.814 298.405 212.471 C 291.424 219.451 284.575 212.36 284.575 212.36 C 288.639 214.546 293.688 211.618 295.607 209.672 C 296.011 209.282 296.24 208.912 296.252 208.838 C 296.811 207.502 297.377 206.08 297.992 204.606 L 296.973 204.646 C 285.453 205.174 279.1 203.47 279.1 203.47 C 279.1 203.47 285.435 201.158 296.88 200.638 M 278.162 218.774 C 285.712 230.687 298.872 226.095 304.225 211.703 C 309.587 197.308 317.997 177.691 330.744 164.944 C 343.483 152.206 363.108 143.786 377.497 138.433 C 391.893 133.074 396.48 119.919 384.567 112.369 C 370.656 103.551 358.597 114.039 358.597 114.039 C 358.597 114.039 351.616 107.613 337.816 110.226 C 324.363 112.778 320.023 120.621 320.023 120.621 C 320.023 120.621 305.975 113.417 292.595 126.798 C 279.215 140.177 286.413 154.228 286.413 154.228 C 286.413 154.228 278.571 158.57 276.018 172.027 C 273.403 185.827 279.832 192.804 279.832 192.804 C 279.832 192.804 269.35 204.856 278.162 218.774 M 717.931 392.603 C 708.19 382.853 698.512 375.241 688.487 368.155 C 678.446 361.059 668.069 354.449 656.318 346.389 C 632.861 330.283 603.459 308.215 560.227 265.01 C 528.321 233.08 508.964 205.211 494.918 180.523 C 480.861 155.831 472.206 134.173 461.66 114.255 C 454.629 101.021 446.625 88.4953 435.477 77.3527 C 386.7 28.5888 307.656 28.5888 258.879 77.3513 C 234.53 101.701 222.124 133.865 221.91 165.947 C 221.903 167.006 221.91 168.067 221.93 169.127 L 259.138 206.338 C 253.444 193.655 250.644 179.939 250.732 166.144 C 250.914 141.291 260.47 116.518 279.257 97.73 C 298.051 78.9487 322.547 69.6114 347.18 69.5967 C 371.809 69.6127 396.303 78.9487 415.098 97.7286 C 423.464 106.099 429.866 115.846 436.21 127.781 C 442.544 139.677 448.708 153.671 456.556 169.562 C 472.245 201.391 494.856 240.459 539.852 285.387 C 573.103 318.647 599.015 340.249 620.275 356.069 C 641.527 371.887 658.009 381.884 671.847 391.684 C 681.1 398.236 689.226 404.667 697.551 412.984 C 715.278 430.718 724.088 453.833 724.104 477.084 C 724.087 500.336 715.279 523.448 697.55 541.19 C 679.811 558.914 656.697 567.726 633.45 567.739 C 628.757 567.737 624.077 567.362 619.441 566.641 L 648.418 595.619 C 673.83 592.426 698.412 581.083 717.927 561.57 C 764.586 514.898 764.584 439.273 717.931 392.603 M 567.741 633.447 C 567.723 656.699 558.914 679.811 541.188 697.548 C 523.446 715.28 500.333 724.088 477.081 724.106 C 453.833 724.088 430.72 715.283 412.98 697.551 C 404.663 689.228 398.232 681.098 391.685 671.849 C 381.884 658.007 371.885 641.529 356.069 620.278 C 340.247 599.015 318.645 573.106 285.387 539.852 C 240.459 494.857 201.39 472.248 169.564 456.56 C 153.67 448.71 139.677 442.546 127.779 436.213 C 115.846 429.869 106.099 423.466 97.7313 415.101 C 78.9473 396.304 69.6114 371.809 69.5954 347.179 C 69.6114 322.548 78.9473 298.053 97.7313 279.256 C 116.521 260.468 141.291 250.914 166.142 250.731 C 179.936 250.646 193.656 253.447 206.336 259.14 L 169.127 221.93 C 168.066 221.91 167.007 221.903 165.946 221.91 C 133.863 222.122 101.699 234.53 77.3513 258.879 C 28.5875 307.657 28.5875 386.701 77.3513 435.478 C 88.4926 446.628 101.021 454.633 114.255 461.664 C 134.171 472.208 155.831 480.865 180.523 494.92 C 205.208 508.966 233.08 528.322 265.01 560.231 C 308.213 603.461 330.283 632.865 346.388 656.317 C 354.451 668.073 361.057 678.447 368.155 688.486 C 375.243 698.512 382.852 708.192 392.6 717.928 C 439.27 764.586 514.897 764.59 561.566 717.928 C 581.079 698.411 592.423 673.83 595.617 648.422 L 566.638 619.442 C 567.357 624.078 567.738 628.762 567.741 633.447 M 121.869 163.556 L 636.571 678.259 L 678.254 636.575 L 163.551 121.87 Z"
     style="fill:#000000;fill-opacity:1;fill-rule:nonzero;stroke:none"
     id="path49007" />
</svg>
