<?xml version="1.0" encoding="UTF-8" standalone="no"?>
<!-- Created with Inkscape (http://www.inkscape.org/) -->

<svg
   version="1.1"
   id="svg59980"
   width="795.03467"
   height="793.70135"
   viewBox="0 0 795.03467 793.70135"
   sodipodi:docname="Maruni Gunbai Uchiwa.svg"
   inkscape:version="1.2 (dc2aeda, 2022-05-15)"
   xmlns:inkscape="http://www.inkscape.org/namespaces/inkscape"
   xmlns:sodipodi="http://sodipodi.sourceforge.net/DTD/sodipodi-0.dtd"
   xmlns="http://www.w3.org/2000/svg"
   xmlns:svg="http://www.w3.org/2000/svg">
  <defs
     id="defs59984">
    <clipPath
       clipPathUnits="userSpaceOnUse"
       id="clipPath60473">
      <path
         d="M -538.2217,577.9479 H 58.054299 V -17.328098 H -538.2217 Z"
         id="path60475"
         style="stroke-width:0.999998" />
    </clipPath>
    <clipPath
       clipPathUnits="userSpaceOnUse"
       id="clipPath60479">
      <path
         d="M -564.5732,585.8483 H 31.702801 V -9.4277027 H -564.5732 Z"
         id="path60481"
         style="stroke-width:0.999998" />
    </clipPath>
    <clipPath
       clipPathUnits="userSpaceOnUse"
       id="clipPath60485">
      <path
         d="M -531.1924,581.5885 H 65.083599 V -13.6875 H -531.1924 Z"
         id="path60487"
         style="stroke-width:0.999998" />
    </clipPath>
    <clipPath
       clipPathUnits="userSpaceOnUse"
       id="clipPath60491">
      <path
         d="m -334.4668,188.422 h 596.276 v -595.276 h -596.276 z"
         id="path60493"
         style="stroke-width:0.999998" />
    </clipPath>
    <clipPath
       clipPathUnits="userSpaceOnUse"
       id="clipPath60497">
      <path
         d="M -567.7754,585.8522 H 28.500601 V -9.4238027 H -567.7754 Z"
         id="path60499"
         style="stroke-width:0.999998" />
    </clipPath>
    <clipPath
       clipPathUnits="userSpaceOnUse"
       id="clipPath60504">
      <path
         d="M -572.8174,586.1354 H 23.458606 V -9.1406027 H -572.8174 Z"
         id="path60506"
         style="stroke-width:0.999998" />
    </clipPath>
    <clipPath
       clipPathUnits="userSpaceOnUse"
       id="clipPath60510">
      <path
         d="M -584.1943,578.9381 H 12.081705 V -16.337903 H -584.1943 Z"
         id="path60512"
         style="stroke-width:0.999998" />
    </clipPath>
    <clipPath
       clipPathUnits="userSpaceOnUse"
       id="clipPath60516">
      <path
         d="M -548.9834,585.8522 H 47.292601 V -9.4238027 H -548.9834 Z"
         id="path60518"
         style="stroke-width:0.999998" />
    </clipPath>
    <clipPath
       clipPathUnits="userSpaceOnUse"
       id="clipPath60522">
      <path
         d="M -545.417,584.5729 H 50.859001 V -10.7031 H -545.417 Z"
         id="path60524"
         style="stroke-width:0.999998" />
    </clipPath>
    <clipPath
       clipPathUnits="userSpaceOnUse"
       id="clipPath60528">
      <path
         d="M -574.5459,585.8522 H 21.730103 V -9.4238027 H -574.5459 Z"
         id="path60530"
         style="stroke-width:0.999998" />
    </clipPath>
    <clipPath
       clipPathUnits="userSpaceOnUse"
       id="clipPath60534">
      <path
         d="M -576.3691,585.5885 H 19.906905 V -9.6875027 H -576.3691 Z"
         id="path60536"
         style="stroke-width:0.999998" />
    </clipPath>
    <clipPath
       clipPathUnits="userSpaceOnUse"
       id="clipPath60540">
      <path
         d="M -542.9326,584.5729 H 53.343399 V -10.7031 H -542.9326 Z"
         id="path60542"
         style="stroke-width:0.999998" />
    </clipPath>
    <clipPath
       clipPathUnits="userSpaceOnUse"
       id="clipPath60546">
      <path
         d="M -540.8213,585.8483 H 55.454701 V -9.4277027 H -540.8213 Z"
         id="path60548"
         style="stroke-width:0.999998" />
    </clipPath>
    <clipPath
       clipPathUnits="userSpaceOnUse"
       id="clipPath60552">
      <path
         d="M -556.4014,578.0143 H 39.874606 V -17.2617 H -556.4014 Z"
         id="path60554"
         style="stroke-width:0.999998" />
    </clipPath>
    <clipPath
       clipPathUnits="userSpaceOnUse"
       id="clipPath60558">
      <path
         d="M -528.0898,575.3815 H 68.186199 V -19.8945 H -528.0898 Z"
         id="path60560"
         style="stroke-width:0.999998" />
    </clipPath>
    <clipPath
       clipPathUnits="userSpaceOnUse"
       id="clipPath60564">
      <path
         d="M -586.5449,579.5026 H 9.7311002 V -15.7734 H -586.5449 Z"
         id="path60566"
         style="stroke-width:0.999998" />
    </clipPath>
    <clipPath
       clipPathUnits="userSpaceOnUse"
       id="clipPath60571">
      <path
         d="M -536.6982,584.5729 H 59.577804 V -10.7031 H -536.6982 Z"
         id="path60573"
         style="stroke-width:0.999998" />
    </clipPath>
    <clipPath
       clipPathUnits="userSpaceOnUse"
       id="clipPath60577">
      <path
         d="M -568.2266,575.819 H 28.049401 V -19.457003 H -568.2266 Z"
         id="path60579"
         style="stroke-width:0.999998" />
    </clipPath>
    <clipPath
       clipPathUnits="userSpaceOnUse"
       id="clipPath60583">
      <path
         d="M -553.8975,585.8483 H 42.378504 V -9.4277027 H -553.8975 Z"
         id="path60585"
         style="stroke-width:0.999998" />
    </clipPath>
    <clipPath
       clipPathUnits="userSpaceOnUse"
       id="clipPath60589">
      <path
         d="M -557.4951,577.8502 H 38.780903 V -17.4258 H -557.4951 Z"
         id="path60591"
         style="stroke-width:0.999998" />
    </clipPath>
    <clipPath
       clipPathUnits="userSpaceOnUse"
       id="clipPath60595">
      <path
         d="M -550.2637,577.3248 H 46.012306 V -17.951198 H -550.2637 Z"
         id="path60597"
         style="stroke-width:0.999998" />
    </clipPath>
    <clipPath
       clipPathUnits="userSpaceOnUse"
       id="clipPath60601">
      <path
         d="M -557.0645,585.8483 H 39.211501 V -9.4277027 H -557.0645 Z"
         id="path60603"
         style="stroke-width:0.999998" />
    </clipPath>
    <clipPath
       clipPathUnits="userSpaceOnUse"
       id="clipPath60607">
      <path
         d="M -561.4131,585.8522 H 34.862903 V -9.4238027 H -561.4131 Z"
         id="path60609"
         style="stroke-width:0.999998" />
    </clipPath>
  </defs>
  <sodipodi:namedview
     id="namedview59982"
     pagecolor="#ffffff"
     bordercolor="#000000"
     borderopacity="0.25"
     inkscape:showpageshadow="2"
     inkscape:pageopacity="0.0"
     inkscape:pagecheckerboard="0"
     inkscape:deskcolor="#d1d1d1"
     showgrid="false"
     inkscape:zoom="0.29734106"
     inkscape:cx="-215.24105"
     inkscape:cy="396.85068"
     inkscape:window-width="1419"
     inkscape:window-height="456"
     inkscape:window-x="0"
     inkscape:window-y="25"
     inkscape:window-maximized="0"
     inkscape:current-layer="svg59980">
    <inkscape:page
       x="0"
       y="0"
       id="page59986"
       width="795.03467"
       height="793.70135" />
  </sodipodi:namedview>
  <path
     d="M 445.956 251.229 C 441.325 247.862 437.231 243.201 434.187 237.128 L 434.187 287.114 C 445.485 277.833 457.273 268.554 468.807 259.702 C 461.681 258.912 453.356 256.648 445.956 251.229 M 507.163 151.311 C 486.043 151.311 468.577 157.32 456.468 167.787 C 444.372 178.281 437.411 192.974 437.377 211.002 C 437.463 229.177 443.576 238.628 451.096 244.253 C 458.656 249.862 468.351 251.417 475.288 251.401 C 490.359 251.374 502.551 239.177 502.58 224.112 C 502.591 211.21 493.613 200.396 481.595 197.554 C 479.267 197.002 477.825 194.669 478.376 192.341 C 478.925 190.014 481.26 188.568 483.588 189.12 L 483.592 189.12 C 499.46 192.868 511.237 207.109 511.248 224.112 C 511.245 240.95 499.669 255.081 484.04 258.989 C 467.632 271.412 450.225 284.989 434.187 298.362 L 434.187 334.226 C 469.765 305.002 510.256 275.757 531.945 260.036 C 533.885 258.63 536.59 259.062 537.996 261.002 C 539.401 262.94 538.968 265.648 537.028 267.054 L 537.032 267.049 C 514.23 283.572 470.665 315.057 434.187 345.474 L 434.187 381.335 C 469.765 352.114 510.256 322.869 531.945 307.144 C 533.885 305.742 536.59 306.177 537.996 308.112 C 539.401 310.052 538.968 312.757 537.028 314.164 L 537.032 314.164 C 514.23 330.683 470.665 362.169 434.187 392.583 L 434.187 428.449 C 469.765 399.225 510.256 369.979 531.945 354.257 C 533.885 352.851 536.59 353.283 537.996 355.223 C 539.401 357.161 538.968 359.869 537.028 361.275 L 537.032 361.27 C 514.23 377.793 470.665 409.279 434.187 439.695 L 434.187 475.558 C 469.765 446.337 510.256 417.091 531.945 401.365 C 533.885 399.963 536.59 400.398 537.996 402.334 C 539.401 404.274 538.968 406.979 537.028 408.386 L 537.032 408.386 C 514.23 424.906 470.665 456.391 434.187 486.804 L 434.187 522.67 C 469.765 493.446 510.256 464.2 531.945 448.479 C 533.885 447.073 536.59 447.506 537.996 449.446 C 539.401 451.383 538.968 454.091 537.028 455.498 L 537.032 455.492 C 514.23 472.012 470.665 503.5 434.187 533.916 L 434.187 569.779 C 469.765 540.558 510.256 511.312 531.945 495.586 C 533.885 494.184 536.59 494.619 537.996 496.555 C 539.401 498.495 538.968 501.2 537.028 502.607 L 537.032 502.607 C 521.144 514.118 495.169 532.9 468.539 553.518 C 480.396 553.728 491.015 558.987 498.336 567.244 C 511.541 557.471 523.261 548.992 531.942 542.7 C 533.88 541.294 536.594 541.728 537.996 543.667 C 539.4 545.604 538.969 548.315 537.032 549.716 C 528.317 556.031 516.58 564.523 503.367 574.302 C 506.695 580.211 508.6 587.025 508.601 594.291 C 508.599 601.596 506.829 608.32 503.256 613.681 C 499.707 619.039 494.208 622.943 487.515 624.208 C 486.171 624.468 484.84 624.588 483.541 624.588 C 477.741 624.583 472.628 622.181 468.945 618.749 C 465.285 615.309 462.824 610.776 462.783 605.812 C 462.775 603.621 463.317 601.359 464.503 599.331 C 465.707 597.26 468.364 596.561 470.429 597.768 C 472.495 598.971 473.195 601.627 471.989 603.692 C 471.627 604.325 471.452 604.984 471.448 605.812 C 471.407 607.64 472.587 610.331 474.856 612.408 C 477.103 614.505 480.203 615.929 483.541 615.924 C 484.3 615.924 485.081 615.848 485.877 615.7 C 490.3 614.82 493.592 612.5 496.048 608.867 C 498.481 605.239 499.939 600.203 499.936 594.291 C 499.905 576.55 485.552 562.198 467.812 562.167 C 459.061 562.17 451.128 566.055 445.248 572.536 C 439.383 579.018 435.691 588.069 435.691 598.179 C 435.699 613.427 441.185 628.44 452.653 639.676 C 464.129 650.905 481.727 658.692 506.784 658.713 C 555.505 658.713 595.002 619.216 595.002 570.495 C 595.002 531.736 568.622 515.291 568.622 442.849 C 568.622 348.185 619.261 316.625 619.261 263.42 C 619.261 201.51 569.072 151.311 507.163 151.311 M 348.454 572.536 C 342.574 566.055 334.64 562.17 325.89 562.167 C 308.15 562.198 293.796 576.55 293.764 594.291 C 293.762 600.203 295.22 605.239 297.652 608.867 C 300.11 612.5 303.402 614.82 307.823 615.7 C 308.62 615.848 309.402 615.924 310.159 615.924 C 313.499 615.929 316.598 614.505 318.846 612.408 C 321.115 610.331 322.295 607.64 322.254 605.812 C 322.25 604.984 322.075 604.325 321.711 603.692 C 320.507 601.627 321.206 598.971 323.271 597.768 C 325.338 596.561 327.994 597.26 329.199 599.331 C 330.384 601.359 330.927 603.621 330.919 605.812 C 330.876 610.776 328.416 615.309 324.756 618.749 C 321.074 622.181 315.96 624.583 310.159 624.588 C 308.862 624.588 307.531 624.468 306.187 624.208 C 299.492 622.943 293.995 619.039 290.446 613.681 C 286.872 608.32 285.102 601.596 285.099 594.291 C 285.1 587.025 287.007 580.211 290.335 574.302 C 277.122 564.523 265.384 556.031 256.67 549.716 C 254.732 548.315 254.302 545.604 255.706 543.667 C 257.107 541.728 259.82 541.294 261.759 542.7 C 270.439 548.992 282.159 557.471 295.366 567.244 C 302.687 558.987 313.306 553.728 325.163 553.518 C 298.532 532.9 272.558 514.118 256.67 502.607 L 256.674 502.607 C 254.734 501.2 254.3 498.495 255.706 496.555 C 257.111 494.619 259.816 494.184 261.756 495.586 C 283.446 511.312 323.935 540.558 359.515 569.779 L 359.515 533.916 C 323.036 503.5 279.471 472.012 256.67 455.492 L 256.674 455.498 C 254.734 454.091 254.3 451.383 255.706 449.446 C 257.111 447.506 259.816 447.073 261.756 448.479 C 283.446 464.2 323.935 493.446 359.515 522.67 L 359.515 486.804 C 323.036 456.391 279.471 424.906 256.67 408.386 L 256.674 408.386 C 254.734 406.979 254.3 404.274 255.706 402.334 C 257.111 400.398 259.816 399.963 261.756 401.365 C 283.446 417.091 323.935 446.337 359.515 475.558 L 359.515 439.695 C 323.036 409.279 279.471 377.793 256.67 361.27 L 256.674 361.275 C 254.734 359.869 254.3 357.161 255.706 355.223 C 257.111 353.283 259.816 352.851 261.756 354.257 C 283.446 369.979 323.935 399.225 359.515 428.449 L 359.515 392.583 C 323.036 362.169 279.471 330.683 256.67 314.164 L 256.674 314.164 C 254.734 312.757 254.3 310.052 255.706 308.112 C 257.111 306.177 259.816 305.742 261.756 307.144 C 283.446 322.869 323.935 352.114 359.515 381.335 L 359.515 345.474 C 323.036 315.057 279.471 283.572 256.67 267.049 L 256.674 267.054 C 254.734 265.648 254.3 262.94 255.706 261.002 C 257.111 259.062 259.816 258.63 261.756 260.036 C 283.446 275.757 323.935 305.002 359.515 334.226 L 359.515 298.362 C 343.476 284.989 326.07 271.412 309.662 258.989 C 294.032 255.081 282.456 240.95 282.454 224.112 C 282.464 207.109 294.242 192.868 310.11 189.12 L 310.114 189.12 C 312.442 188.568 314.776 190.014 315.324 192.341 C 315.875 194.669 314.434 197.002 312.106 197.554 C 300.088 200.396 291.111 211.21 291.122 224.112 C 291.151 239.177 303.343 251.374 318.414 251.401 C 325.351 251.417 335.044 249.862 342.604 244.253 C 350.126 238.628 356.239 229.177 356.323 211.002 C 356.291 192.974 349.328 178.281 337.234 167.787 C 325.124 157.32 307.658 151.311 286.539 151.311 C 224.63 151.311 174.441 201.51 174.441 263.42 C 174.441 316.625 225.079 348.185 225.079 442.849 C 225.079 515.291 198.699 531.736 198.699 570.495 C 198.699 619.216 238.197 658.713 286.918 658.713 C 311.975 658.692 329.572 650.905 341.047 639.676 C 352.516 628.44 358.003 613.427 358.011 598.179 C 358.011 588.069 354.318 579.018 348.454 572.536 M 347.746 251.229 C 340.346 256.648 332.02 258.912 324.895 259.702 C 336.428 268.554 348.215 277.833 359.515 287.114 L 359.515 237.128 C 356.471 243.201 352.375 247.862 347.746 251.229 M 370.18 590.003 L 423.511 590.003 L 423.511 412.855 L 370.18 412.855 Z M 423.511 391.517 L 370.18 391.517 L 370.18 402.183 L 423.511 402.183 Z M 423.511 204.693 L 370.18 204.693 L 370.18 380.85 L 423.511 380.85 Z M 370.18 184.848 L 370.18 194.024 L 423.511 194.024 L 423.511 184.848 C 423.511 157.959 445.349 139.289 445.349 139.289 C 445.349 139.289 429.745 131.591 417.128 122.181 C 404.511 112.768 396.845 102.391 396.845 102.391 C 396.845 102.391 389.18 112.768 376.563 122.181 C 363.946 131.591 348.342 139.289 348.342 139.289 C 348.342 139.289 370.18 157.959 370.18 184.848 M 423.511 627.801 L 423.511 600.672 L 370.18 600.672 L 370.18 627.801 C 370.18 654.692 343.623 667.801 343.623 667.801 C 343.623 667.801 349.123 674.801 358.623 679.135 C 367.308 683.096 377.456 681.301 377.456 681.301 C 377.456 681.301 382.789 691.301 396.845 691.301 C 410.901 691.301 416.235 681.301 416.235 681.301 C 416.235 681.301 426.383 683.096 435.068 679.135 C 444.568 674.801 450.068 667.801 450.068 667.801 C 450.068 667.801 423.511 654.692 423.511 627.801 M 396.848 701.971 C 228.335 701.971 91.7262 565.362 91.7262 396.849 C 91.7262 228.333 228.335 91.7241 396.848 91.7241 C 565.364 91.7241 701.97 228.333 701.97 396.849 C 701.97 565.362 565.364 701.971 396.848 701.971 M 396.851 31.7295 C 195.201 31.7295 31.729 195.201 31.729 396.851 C 31.729 598.503 195.201 761.973 396.851 761.973 C 598.501 761.973 761.973 598.503 761.973 396.851 C 761.973 195.201 598.501 31.7295 396.851 31.7295"
     style="fill:#000000;fill-opacity:1;fill-rule:nonzero;stroke:none"
     id="path60100" />
</svg>
