<?xml version="1.0" encoding="UTF-8" standalone="no"?>
<!-- Created with Inkscape (http://www.inkscape.org/) -->

<svg
   version="1.1"
   id="svg53141"
   width="795.03467"
   height="793.70135"
   viewBox="0 0 795.03467 793.70135"
   sodipodi:docname="Maruni Narabi Tou Uchiwa.svg"
   inkscape:version="1.2 (dc2aeda, 2022-05-15)"
   xmlns:inkscape="http://www.inkscape.org/namespaces/inkscape"
   xmlns:sodipodi="http://sodipodi.sourceforge.net/DTD/sodipodi-0.dtd"
   xmlns="http://www.w3.org/2000/svg"
   xmlns:svg="http://www.w3.org/2000/svg">
  <defs
     id="defs53145">
    <clipPath
       clipPathUnits="userSpaceOnUse"
       id="clipPath53580">
      <path
         d="M -540.8213,585.8483 H 55.454702 V -9.4277 H -540.8213 Z"
         id="path53582"
         style="stroke-width:0.999998" />
    </clipPath>
    <clipPath
       clipPathUnits="userSpaceOnUse"
       id="clipPath53586">
      <path
         d="M -561.4131,585.8522 H 34.862902 V -9.4238 H -561.4131 Z"
         id="path53588"
         style="stroke-width:0.999998" />
    </clipPath>
    <clipPath
       clipPathUnits="userSpaceOnUse"
       id="clipPath53592">
      <path
         d="M -584.1943,578.9381 H 12.081702 V -16.3379 H -584.1943 Z"
         id="path53594"
         style="stroke-width:0.999998" />
    </clipPath>
    <clipPath
       clipPathUnits="userSpaceOnUse"
       id="clipPath53598">
      <path
         d="M -538.2217,577.9479 H 58.054302 V -17.3281 H -538.2217 Z"
         id="path53600"
         style="stroke-width:0.999998" />
    </clipPath>
    <clipPath
       clipPathUnits="userSpaceOnUse"
       id="clipPath53604">
      <path
         d="m -327.4727,212.609 h 596.276 v -595.276 h -596.276 z"
         id="path53606"
         style="stroke-width:0.999998" />
    </clipPath>
    <clipPath
       clipPathUnits="userSpaceOnUse"
       id="clipPath53610">
      <path
         d="M -536.6982,584.5729 H 59.577802 V -10.7031 H -536.6982 Z"
         id="path53612"
         style="stroke-width:0.999998" />
    </clipPath>
    <clipPath
       clipPathUnits="userSpaceOnUse"
       id="clipPath53616">
      <path
         d="M -572.8174,586.1354 H 23.458602 V -9.1406 H -572.8174 Z"
         id="path53618"
         style="stroke-width:0.999998" />
    </clipPath>
    <clipPath
       clipPathUnits="userSpaceOnUse"
       id="clipPath53622">
      <path
         d="M -574.5459,585.8522 H 21.730102 V -9.4238 H -574.5459 Z"
         id="path53624"
         style="stroke-width:0.999998" />
    </clipPath>
    <clipPath
       clipPathUnits="userSpaceOnUse"
       id="clipPath53629">
      <path
         d="M -567.7754,585.8522 H 28.500602 V -9.4238 H -567.7754 Z"
         id="path53631"
         style="stroke-width:0.999998" />
    </clipPath>
    <clipPath
       clipPathUnits="userSpaceOnUse"
       id="clipPath53635">
      <path
         d="M -564.5732,585.8483 H 31.702802 V -9.4277 H -564.5732 Z"
         id="path53637"
         style="stroke-width:0.999998" />
    </clipPath>
    <clipPath
       clipPathUnits="userSpaceOnUse"
       id="clipPath53641">
      <path
         d="M -548.9834,585.8522 H 47.292602 V -9.4238 H -548.9834 Z"
         id="path53643"
         style="stroke-width:0.999998" />
    </clipPath>
    <clipPath
       clipPathUnits="userSpaceOnUse"
       id="clipPath53647">
      <path
         d="M -556.4014,578.0143 H 39.874602 V -17.2617 H -556.4014 Z"
         id="path53649"
         style="stroke-width:0.999998" />
    </clipPath>
    <clipPath
       clipPathUnits="userSpaceOnUse"
       id="clipPath53653">
      <path
         d="M -586.5449,579.5026 H 9.7311024 V -15.7734 H -586.5449 Z"
         id="path53655"
         style="stroke-width:0.999998" />
    </clipPath>
    <clipPath
       clipPathUnits="userSpaceOnUse"
       id="clipPath53660">
      <path
         d="M -550.2637,577.3248 H 46.012302 V -17.9512 H -550.2637 Z"
         id="path53662"
         style="stroke-width:0.999998" />
    </clipPath>
    <clipPath
       clipPathUnits="userSpaceOnUse"
       id="clipPath53666">
      <path
         d="M -576.3691,585.5885 H 19.906902 V -9.6875 H -576.3691 Z"
         id="path53668"
         style="stroke-width:0.999998" />
    </clipPath>
    <clipPath
       clipPathUnits="userSpaceOnUse"
       id="clipPath53672">
      <path
         d="M -557.4951,577.8502 H 38.780902 V -17.4258 H -557.4951 Z"
         id="path53674"
         style="stroke-width:0.999998" />
    </clipPath>
    <clipPath
       clipPathUnits="userSpaceOnUse"
       id="clipPath53678">
      <path
         d="M -568.2266,575.819 H 28.049402 V -19.457 H -568.2266 Z"
         id="path53680"
         style="stroke-width:0.999998" />
    </clipPath>
    <clipPath
       clipPathUnits="userSpaceOnUse"
       id="clipPath53684">
      <path
         d="M -545.417,584.5729 H 50.859002 V -10.7031 H -545.417 Z"
         id="path53686"
         style="stroke-width:0.999998" />
    </clipPath>
    <clipPath
       clipPathUnits="userSpaceOnUse"
       id="clipPath53690">
      <path
         d="M -528.0898,575.3815 H 68.186202 V -19.8945 H -528.0898 Z"
         id="path53692"
         style="stroke-width:0.999998" />
    </clipPath>
    <clipPath
       clipPathUnits="userSpaceOnUse"
       id="clipPath53696">
      <path
         d="M -557.0645,585.8483 H 39.211502 V -9.4277 H -557.0645 Z"
         id="path53698"
         style="stroke-width:0.999998" />
    </clipPath>
    <clipPath
       clipPathUnits="userSpaceOnUse"
       id="clipPath53702">
      <path
         d="M -542.9326,584.5729 H 53.343402 V -10.7031 H -542.9326 Z"
         id="path53704"
         style="stroke-width:0.999998" />
    </clipPath>
    <clipPath
       clipPathUnits="userSpaceOnUse"
       id="clipPath53708">
      <path
         d="M -531.1924,581.5885 H 65.083602 V -13.6875 H -531.1924 Z"
         id="path53710"
         style="stroke-width:0.999998" />
    </clipPath>
    <clipPath
       clipPathUnits="userSpaceOnUse"
       id="clipPath53714">
      <path
         d="M -553.8975,585.8483 H 42.378502 V -9.4277 H -553.8975 Z"
         id="path53716"
         style="stroke-width:0.999998" />
    </clipPath>
  </defs>
  <sodipodi:namedview
     id="namedview53143"
     pagecolor="#ffffff"
     bordercolor="#000000"
     borderopacity="0.25"
     inkscape:showpageshadow="2"
     inkscape:pageopacity="0.0"
     inkscape:pagecheckerboard="0"
     inkscape:deskcolor="#d1d1d1"
     showgrid="false"
     inkscape:zoom="0.29734106"
     inkscape:cx="-215.24105"
     inkscape:cy="396.85068"
     inkscape:window-width="1419"
     inkscape:window-height="456"
     inkscape:window-x="0"
     inkscape:window-y="25"
     inkscape:window-maximized="0"
     inkscape:current-layer="svg53141">
    <inkscape:page
       x="0"
       y="0"
       id="page53147"
       width="795.03467"
       height="793.70135" />
  </sodipodi:namedview>
  <path
     d="M 436.63 283.479 C 437.637 281.644 439.934 280.972 441.769 281.974 L 468.065 296.355 C 464.853 291.478 462.978 285.64 462.978 279.364 C 462.997 273.132 465.51 266.763 469.931 261.75 C 471.954 259.455 474.429 257.452 477.27 255.958 C 480.619 254.195 482.587 255.911 483.39 257.174 C 484.195 258.435 483.621 261.303 481.487 262.307 C 479.227 263.371 477.258 264.914 475.591 266.775 C 472.357 270.394 470.523 275.242 470.546 279.364 C 470.569 292.268 481.013 302.711 493.918 302.732 C 506.822 302.711 517.286 290.891 517.286 279.364 C 517.286 253.388 492.395 235.44 463.999 235.44 C 434.515 235.44 410.613 259.342 410.613 288.826 C 410.613 320.479 424.673 336.534 424.673 414.061 C 424.673 469.565 414.253 503.278 414.253 517.388 C 414.253 545.864 437.339 568.953 465.819 568.953 C 493.41 568.953 515.942 547.561 517.316 520.31 C 517.294 508.006 507.344 498.057 495.046 498.036 C 482.742 498.057 472.794 508.006 472.77 520.31 C 472.753 523.953 474.413 528.092 477.199 531.161 C 479.995 534.246 483.705 536.201 487.794 536.196 C 492.721 536.172 495.483 534.062 497.083 531.989 C 498.335 530.314 500.706 529.976 502.377 531.224 C 504.051 532.476 504.39 534.849 503.142 536.521 C 500.381 540.28 495.125 543.794 487.794 543.765 C 481.217 543.765 475.521 540.616 471.579 536.23 C 467.627 531.828 465.221 526.132 465.199 520.31 C 465.202 505.64 475.787 493.452 489.734 490.948 L 441.877 464.776 C 440.043 463.773 439.37 461.476 440.373 459.637 C 441.378 457.804 443.675 457.132 445.509 458.135 L 517.383 497.44 L 517.383 478.028 L 441.253 436.393 C 439.419 435.391 438.746 433.091 439.749 431.255 C 440.754 429.421 443.051 428.747 444.885 429.749 L 517.383 469.399 L 517.383 449.203 L 440.629 407.227 C 438.797 406.224 438.122 403.927 439.125 402.089 C 440.13 400.255 442.429 399.583 444.262 400.585 L 517.383 440.575 L 517.383 420.377 L 440.005 378.061 C 438.173 377.06 437.499 374.757 438.502 372.924 C 439.507 371.091 441.806 370.419 443.638 371.42 L 517.383 411.749 L 517.383 391.553 L 439.382 348.896 C 437.549 347.896 436.877 345.596 437.879 343.76 C 438.883 341.927 441.182 341.254 443.014 342.255 L 517.383 382.925 L 517.383 362.729 L 438.759 319.731 C 436.926 318.73 436.253 316.432 437.254 314.595 C 438.261 312.762 440.558 312.088 442.391 313.091 L 517.383 354.101 L 517.383 331.955 L 438.135 288.615 C 436.302 287.614 435.629 285.315 436.63 283.479 M 493.918 310.306 C 493.795 310.306 493.678 310.296 493.555 310.296 L 517.383 323.328 L 517.383 299.514 C 511.71 306.116 503.306 310.303 493.918 310.306 M 662.591 288.826 C 662.591 259.342 638.688 235.44 609.206 235.44 C 580.808 235.44 555.918 253.388 555.918 279.364 C 555.918 290.891 566.382 302.711 579.286 302.732 C 592.192 302.711 602.635 292.268 602.658 279.364 C 602.68 275.242 600.847 270.394 597.612 266.775 C 595.946 264.914 593.976 263.371 591.716 262.307 C 589.583 261.303 589.008 258.435 589.814 257.174 C 590.616 255.911 592.584 254.195 595.934 255.958 C 598.775 257.452 601.25 259.455 603.272 261.75 C 607.694 266.763 610.208 273.132 610.226 279.364 C 610.226 285.64 608.351 291.478 605.139 296.355 L 631.435 281.974 C 633.27 280.972 635.567 281.644 636.574 283.479 C 637.575 285.315 636.901 287.614 635.068 288.615 L 555.82 331.955 L 555.82 354.101 L 630.812 313.091 C 632.646 312.088 634.943 312.762 635.95 314.595 C 636.951 316.432 636.278 318.73 634.444 319.731 L 555.82 362.729 L 555.82 382.925 L 630.19 342.255 C 632.022 341.254 634.32 341.927 635.324 343.76 C 636.327 345.596 635.655 347.896 633.823 348.896 L 555.82 391.553 L 555.82 411.749 L 629.566 371.42 C 631.399 370.419 633.698 371.091 634.703 372.924 C 635.706 374.757 635.031 377.06 633.199 378.061 L 555.82 420.377 L 555.82 440.575 L 628.942 400.585 C 630.775 399.583 633.074 400.255 634.079 402.089 C 635.082 403.927 634.408 406.224 632.575 407.227 L 555.82 449.203 L 555.82 469.399 L 628.319 429.749 C 630.152 428.747 632.45 429.421 633.455 431.255 C 634.458 433.091 633.784 435.391 631.951 436.393 L 555.82 478.028 L 555.82 497.44 L 627.695 458.135 C 629.528 457.132 631.826 457.804 632.831 459.637 C 633.834 461.476 633.16 463.773 631.327 464.776 L 583.47 490.948 C 597.418 493.452 608.002 505.64 608.004 520.31 C 607.983 526.132 605.576 531.828 601.624 536.23 C 597.683 540.616 591.987 543.765 585.41 543.765 C 578.079 543.794 572.824 540.28 570.062 536.521 C 568.814 534.849 569.152 532.476 570.827 531.224 C 572.498 529.976 574.868 530.314 576.12 531.989 C 577.72 534.062 580.483 536.172 585.41 536.196 C 589.499 536.201 593.208 534.246 596.004 531.161 C 598.791 528.092 600.451 523.953 600.434 520.31 C 600.41 508.006 590.462 498.057 578.158 498.036 C 565.86 498.057 555.911 508.006 555.887 520.31 C 557.262 547.561 579.794 568.953 607.384 568.953 C 635.864 568.953 658.951 545.864 658.951 517.388 C 658.951 503.278 648.531 469.565 648.531 414.061 C 648.531 336.534 662.591 320.479 662.591 288.826 M 579.286 310.306 C 569.898 310.303 561.494 306.116 555.82 299.514 L 555.82 323.328 L 579.648 310.296 C 579.526 310.296 579.408 310.306 579.286 310.306 M 536.602 167.387 L 500.423 188.426 C 514.127 207.63 524.954 221.851 524.954 287.908 L 524.954 632.877 L 548.25 632.877 L 548.25 287.908 C 548.25 221.851 559.076 207.63 572.78 188.426 Z M 329.702 235.44 C 301.305 235.44 276.413 253.388 276.413 279.364 C 276.413 290.891 286.88 302.711 299.782 302.732 C 312.689 302.711 323.132 292.268 323.156 279.364 C 323.178 275.242 321.342 270.394 318.109 266.775 C 316.444 264.914 314.473 263.371 312.213 262.307 C 310.08 261.303 309.506 258.435 310.309 257.174 C 311.113 255.911 313.081 254.195 316.43 255.958 C 319.272 257.452 321.746 259.455 323.769 261.75 C 328.192 266.763 330.705 273.132 330.722 279.364 C 330.722 285.64 328.848 291.478 325.636 296.355 L 351.934 281.974 C 353.768 280.972 356.064 281.644 357.072 283.479 C 358.072 285.315 357.398 287.614 355.566 288.615 L 276.317 331.955 L 276.317 354.101 L 351.309 313.091 C 353.142 312.088 355.441 312.762 356.446 314.595 C 357.449 316.432 356.774 318.73 354.941 319.731 L 276.317 362.729 L 276.317 382.925 L 350.686 342.255 C 352.52 341.254 354.817 341.927 355.822 343.76 C 356.825 345.596 356.153 347.896 354.32 348.896 L 276.317 391.553 L 276.317 411.749 L 350.061 371.42 C 351.894 370.419 354.194 371.091 355.2 372.924 C 356.202 374.757 355.528 377.06 353.694 378.061 L 276.317 420.377 L 276.317 440.575 L 349.438 400.585 C 351.272 399.583 353.569 400.255 354.574 402.089 C 355.577 403.927 354.905 406.224 353.072 407.227 L 276.317 449.203 L 276.317 469.399 L 348.816 429.749 C 350.648 428.747 352.946 429.421 353.952 431.255 C 354.954 433.091 354.28 435.391 352.446 436.393 L 276.317 478.028 L 276.317 497.44 L 348.192 458.135 C 350.025 457.132 352.322 457.804 353.328 459.637 C 354.329 461.476 353.658 463.773 351.825 464.776 L 303.966 490.948 C 317.913 493.452 328.498 505.64 328.501 520.31 C 328.48 526.132 326.072 531.828 322.121 536.23 C 318.18 540.616 312.484 543.765 305.906 543.765 C 298.576 543.794 293.321 540.28 290.558 536.521 C 289.31 534.849 289.649 532.476 291.325 531.224 C 292.996 529.976 295.365 530.314 296.617 531.989 C 298.217 534.062 300.981 536.172 305.906 536.196 C 309.996 536.201 313.705 534.246 316.501 531.161 C 319.288 528.092 320.948 523.953 320.929 520.31 C 320.906 508.006 310.958 498.057 298.656 498.036 C 286.356 498.057 276.408 508.006 276.384 520.31 C 277.757 547.561 300.29 568.953 327.881 568.953 C 356.361 568.953 379.446 545.864 379.446 517.388 C 379.446 503.278 369.028 469.565 369.028 414.061 C 369.028 336.534 383.087 320.479 383.087 288.826 C 383.087 259.342 359.185 235.44 329.702 235.44 M 299.782 310.306 C 290.394 310.303 281.992 306.116 276.317 299.514 L 276.317 323.328 L 300.145 310.296 C 300.022 310.296 299.905 310.306 299.782 310.306 M 214.416 310.306 C 214.293 310.306 214.173 310.296 214.051 310.296 L 237.88 323.328 L 237.88 299.514 C 232.207 306.116 223.803 310.303 214.416 310.306 M 157.127 283.479 C 158.132 281.644 160.429 280.972 162.265 281.974 L 188.561 296.355 C 185.349 291.478 183.475 285.64 183.475 279.364 C 183.493 273.132 186.007 266.763 190.429 261.75 C 192.451 259.455 194.925 257.452 197.768 255.958 C 201.116 254.195 203.084 255.911 203.887 257.174 C 204.692 258.435 204.117 261.303 201.984 262.307 C 199.724 263.371 197.755 264.914 196.088 266.775 C 192.853 270.394 191.02 275.242 191.043 279.364 C 191.064 292.268 201.509 302.711 214.416 302.732 C 227.319 302.711 237.782 290.891 237.782 279.364 C 237.782 253.388 212.892 235.44 184.496 235.44 C 155.012 235.44 131.109 259.342 131.109 288.826 C 131.109 320.479 145.168 336.534 145.168 414.061 C 145.168 469.565 134.749 503.278 134.749 517.388 C 134.749 545.864 157.835 568.953 186.316 568.953 C 213.907 568.953 236.439 547.561 237.813 520.31 C 237.79 508.006 227.84 498.057 215.543 498.036 C 203.239 498.057 193.291 508.006 193.268 520.31 C 193.249 523.953 194.908 528.092 197.697 531.161 C 200.492 534.246 204.201 536.201 208.291 536.196 C 213.217 536.172 215.979 534.062 217.58 531.989 C 218.832 530.314 221.203 529.976 222.872 531.224 C 224.548 532.476 224.887 534.849 223.639 536.521 C 220.877 540.28 215.621 543.794 208.291 543.765 C 201.715 543.765 196.017 540.616 192.076 536.23 C 188.124 531.828 185.717 526.132 185.696 520.31 C 185.699 505.64 196.283 493.452 210.231 490.948 L 162.373 464.776 C 160.541 463.773 159.867 461.476 160.869 459.637 C 161.875 457.804 164.172 457.132 166.005 458.135 L 237.88 497.44 L 237.88 478.028 L 161.749 436.393 C 159.916 435.391 159.244 433.091 160.247 431.255 C 161.252 429.421 163.548 428.747 165.381 429.749 L 237.88 469.399 L 237.88 449.203 L 161.127 407.227 C 159.293 406.224 158.619 403.927 159.621 402.089 C 160.627 400.255 162.927 399.583 164.759 400.585 L 237.88 440.575 L 237.88 420.377 L 160.501 378.061 C 158.668 377.06 157.996 374.757 158.999 372.924 C 160.004 371.091 162.301 370.419 164.135 371.42 L 237.88 411.749 L 237.88 391.553 L 159.88 348.896 C 158.047 347.896 157.372 345.596 158.375 343.76 C 159.38 341.927 161.679 341.254 163.512 342.255 L 237.88 382.925 L 237.88 362.729 L 159.255 319.731 C 157.421 318.73 156.749 316.432 157.749 314.595 C 158.757 312.762 161.053 312.088 162.887 313.091 L 237.88 354.101 L 237.88 331.955 L 158.632 288.615 C 156.799 287.614 156.124 285.315 157.127 283.479 M 257.098 167.387 L 220.92 188.426 C 234.624 207.63 245.45 221.851 245.45 287.908 L 245.45 632.877 L 268.746 632.877 L 268.746 287.908 C 268.746 221.851 279.573 207.63 293.277 188.426 Z M 396.847 701.971 C 228.332 701.971 91.7242 565.362 91.7242 396.847 C 91.7242 228.332 228.332 91.7248 396.847 91.7248 C 565.362 91.7248 701.969 228.332 701.969 396.847 C 701.969 565.362 565.362 701.971 396.847 701.971 M 396.85 31.729 C 195.2 31.729 31.7283 195.201 31.7283 396.849 C 31.7283 598.502 195.2 761.972 396.85 761.972 C 598.5 761.972 761.973 598.502 761.973 396.849 C 761.973 195.201 598.5 31.729 396.85 31.729"
     style="fill:#000000;fill-opacity:1;fill-rule:nonzero;stroke:none"
     id="path53261" />
</svg>
