<?xml version="1.0" encoding="UTF-8" standalone="no"?>
<!-- Created with Inkscape (http://www.inkscape.org/) -->

<svg
   version="1.1"
   id="svg58294"
   width="795.03467"
   height="793.70135"
   viewBox="0 0 795.03467 793.70135"
   sodipodi:docname="Maruni Chigai Kara Uchiwa.svg"
   inkscape:version="1.2 (dc2aeda, 2022-05-15)"
   xmlns:inkscape="http://www.inkscape.org/namespaces/inkscape"
   xmlns:sodipodi="http://sodipodi.sourceforge.net/DTD/sodipodi-0.dtd"
   xmlns="http://www.w3.org/2000/svg"
   xmlns:svg="http://www.w3.org/2000/svg">
  <defs
     id="defs58298">
    <clipPath
       clipPathUnits="userSpaceOnUse"
       id="clipPath58787">
      <path
         d="M -556.4014,578.0143 H 39.874606 V -17.2617 H -556.4014 Z"
         id="path58789"
         style="stroke-width:0.999998" />
    </clipPath>
    <clipPath
       clipPathUnits="userSpaceOnUse"
       id="clipPath58793">
      <path
         d="M -545.417,584.5729 H 50.859001 V -10.7031 H -545.417 Z"
         id="path58795"
         style="stroke-width:0.999998" />
    </clipPath>
    <clipPath
       clipPathUnits="userSpaceOnUse"
       id="clipPath58799">
      <path
         d="M -557.4951,577.8502 H 38.780903 V -17.4258 H -557.4951 Z"
         id="path58801"
         style="stroke-width:0.999998" />
    </clipPath>
    <clipPath
       clipPathUnits="userSpaceOnUse"
       id="clipPath58805">
      <path
         d="M -576.3691,585.5885 H 19.906905 V -9.6875027 H -576.3691 Z"
         id="path58807"
         style="stroke-width:0.999998" />
    </clipPath>
    <clipPath
       clipPathUnits="userSpaceOnUse"
       id="clipPath58811">
      <path
         d="M -572.8174,586.1354 H 23.458606 V -9.1406027 H -572.8174 Z"
         id="path58813"
         style="stroke-width:0.999998" />
    </clipPath>
    <clipPath
       clipPathUnits="userSpaceOnUse"
       id="clipPath58817">
      <path
         d="M -561.4131,585.8522 H 34.862903 V -9.4238027 H -561.4131 Z"
         id="path58819"
         style="stroke-width:0.999998" />
    </clipPath>
    <clipPath
       clipPathUnits="userSpaceOnUse"
       id="clipPath58823">
      <path
         d="M -557.0645,585.8483 H 39.211501 V -9.4277027 H -557.0645 Z"
         id="path58825"
         style="stroke-width:0.999998" />
    </clipPath>
    <clipPath
       clipPathUnits="userSpaceOnUse"
       id="clipPath58829">
      <path
         d="M -574.5459,585.8522 H 21.730103 V -9.4238027 H -574.5459 Z"
         id="path58831"
         style="stroke-width:0.999998" />
    </clipPath>
    <clipPath
       clipPathUnits="userSpaceOnUse"
       id="clipPath58835">
      <path
         d="M -528.0898,575.3815 H 68.186199 V -19.8945 H -528.0898 Z"
         id="path58837"
         style="stroke-width:0.999998" />
    </clipPath>
    <clipPath
       clipPathUnits="userSpaceOnUse"
       id="clipPath58841">
      <path
         d="M -542.9326,584.5729 H 53.343399 V -10.7031 H -542.9326 Z"
         id="path58843"
         style="stroke-width:0.999998" />
    </clipPath>
    <clipPath
       clipPathUnits="userSpaceOnUse"
       id="clipPath58847">
      <path
         d="M -540.8213,585.8483 H 55.454701 V -9.4277027 H -540.8213 Z"
         id="path58849"
         style="stroke-width:0.999998" />
    </clipPath>
    <clipPath
       clipPathUnits="userSpaceOnUse"
       id="clipPath58853">
      <path
         d="M -536.6982,584.5729 H 59.577804 V -10.7031 H -536.6982 Z"
         id="path58855"
         style="stroke-width:0.999998" />
    </clipPath>
    <clipPath
       clipPathUnits="userSpaceOnUse"
       id="clipPath58859">
      <path
         d="M -553.8975,585.8483 H 42.378504 V -9.4277027 H -553.8975 Z"
         id="path58861"
         style="stroke-width:0.999998" />
    </clipPath>
    <clipPath
       clipPathUnits="userSpaceOnUse"
       id="clipPath58865">
      <path
         d="M -548.9834,585.8522 H 47.292601 V -9.4238027 H -548.9834 Z"
         id="path58867"
         style="stroke-width:0.999998" />
    </clipPath>
    <clipPath
       clipPathUnits="userSpaceOnUse"
       id="clipPath58871">
      <path
         d="M -531.1924,581.5885 H 65.083599 V -13.6875 H -531.1924 Z"
         id="path58873"
         style="stroke-width:0.999998" />
    </clipPath>
    <clipPath
       clipPathUnits="userSpaceOnUse"
       id="clipPath58877">
      <path
         d="M -564.5732,585.8483 H 31.702801 V -9.4277027 H -564.5732 Z"
         id="path58879"
         style="stroke-width:0.999998" />
    </clipPath>
    <clipPath
       clipPathUnits="userSpaceOnUse"
       id="clipPath58883">
      <path
         d="M -567.7754,585.8522 H 28.500601 V -9.4238027 H -567.7754 Z"
         id="path58885"
         style="stroke-width:0.999998" />
    </clipPath>
    <clipPath
       clipPathUnits="userSpaceOnUse"
       id="clipPath58890">
      <path
         d="M -568.2266,575.819 H 28.049401 V -19.457003 H -568.2266 Z"
         id="path58892"
         style="stroke-width:0.999998" />
    </clipPath>
    <clipPath
       clipPathUnits="userSpaceOnUse"
       id="clipPath58896">
      <path
         d="M -586.5449,579.5026 H 9.7311002 V -15.7734 H -586.5449 Z"
         id="path58898"
         style="stroke-width:0.999998" />
    </clipPath>
    <clipPath
       clipPathUnits="userSpaceOnUse"
       id="clipPath58902">
      <path
         d="M -584.1943,578.9381 H 12.081705 V -16.337903 H -584.1943 Z"
         id="path58904"
         style="stroke-width:0.999998" />
    </clipPath>
    <clipPath
       clipPathUnits="userSpaceOnUse"
       id="clipPath58909">
      <path
         d="M -550.2637,577.3248 H 46.012306 V -17.951198 H -550.2637 Z"
         id="path58911"
         style="stroke-width:0.999998" />
    </clipPath>
    <clipPath
       clipPathUnits="userSpaceOnUse"
       id="clipPath58915">
      <path
         d="m -509.7139,236.7433 h 596.276 v -595.276 h -596.276 z"
         id="path58917"
         style="stroke-width:0.999998" />
    </clipPath>
    <clipPath
       clipPathUnits="userSpaceOnUse"
       id="clipPath58921">
      <path
         d="M -538.2217,577.9479 H 58.054299 V -17.328098 H -538.2217 Z"
         id="path58923"
         style="stroke-width:0.999998" />
    </clipPath>
  </defs>
  <sodipodi:namedview
     id="namedview58296"
     pagecolor="#ffffff"
     bordercolor="#000000"
     borderopacity="0.25"
     inkscape:showpageshadow="2"
     inkscape:pageopacity="0.0"
     inkscape:pagecheckerboard="0"
     inkscape:deskcolor="#d1d1d1"
     showgrid="false"
     inkscape:zoom="0.29734106"
     inkscape:cx="-215.24105"
     inkscape:cy="396.85068"
     inkscape:window-width="1419"
     inkscape:window-height="456"
     inkscape:window-x="0"
     inkscape:window-y="25"
     inkscape:window-maximized="0"
     inkscape:current-layer="svg58294">
    <inkscape:page
       x="0"
       y="0"
       id="page58300"
       width="795.03467"
       height="793.70135" />
  </sodipodi:namedview>
  <path
     d="M 679.619 315.658 C 674.988 292.958 659.098 276.401 635.027 273.755 C 612.11 272.243 595.725 285.115 593.578 303.633 C 592.327 314.401 597.221 322.155 600.695 324.669 C 605.083 327.846 609.551 329.801 616.183 329.79 C 621.168 329.797 626.022 327.874 629.558 324.577 C 633.091 321.267 635.358 316.707 635.372 310.971 C 635.372 304.518 631.93 298.889 626.776 295.783 C 624.782 294.578 624.14 291.989 625.336 289.997 C 626.538 288.003 629.128 287.357 631.12 288.557 L 631.123 288.557 C 638.714 293.117 643.804 301.463 643.804 310.971 C 643.818 319.041 640.442 325.998 635.3 330.751 C 630.16 335.525 623.314 338.218 616.183 338.223 C 608.478 338.213 600.713 336.689 594.621 331.798 C 594.441 331.655 594.271 331.497 594.094 331.346 C 593.889 397.647 576.995 460.011 547.399 514.475 C 549.511 513.899 551.709 513.579 553.981 513.568 C 554.85 513.568 555.721 513.612 556.586 513.71 C 563.827 514.48 570.341 517.185 575.122 521.792 C 579.907 526.379 582.759 532.901 582.734 540.365 C 582.73 551.352 573.827 560.253 562.839 560.256 C 560.513 560.256 558.625 558.368 558.625 556.037 C 558.625 553.709 560.513 551.824 562.839 551.824 L 562.839 551.819 C 569.171 551.811 574.289 546.693 574.301 540.365 C 574.273 534.959 572.423 530.945 569.262 527.857 C 566.094 524.792 561.441 522.524 555.682 522.376 C 547.251 522.159 539.167 527.352 535.181 535.469 C 532.813 540.281 531.514 545.683 531.803 551.352 C 532.591 566.836 547.685 585.287 574.642 584.079 C 597.035 583.079 615.899 566.644 619.395 544.644 C 623.655 517.836 625.944 491.03 643.702 433.876 C 657.076 390.502 687.343 353.53 679.619 315.658 M 433.997 498.134 C 433.997 520.391 452.236 536.212 470.15 537.021 C 481.758 537.547 492.402 532.245 498.329 523.109 C 501.046 518.92 502.613 514.003 502.613 508.868 C 502.594 499.011 494.625 491.04 484.769 491.022 C 479.56 491.032 475.588 493.011 472.78 495.776 C 469.977 498.543 468.528 502.162 468.553 504.972 C 468.556 508.642 470.184 511.888 472.772 514.104 C 474.544 515.615 474.757 518.276 473.245 520.047 C 471.734 521.821 469.073 522.032 467.301 520.521 L 467.301 520.519 C 462.916 516.787 460.118 511.186 460.122 504.972 C 460.146 499.519 462.588 494.058 466.833 489.8 C 471.082 485.555 477.325 482.576 484.769 482.595 C 497.433 482.595 507.975 491.555 510.463 503.48 C 539.634 452.618 556.342 393.728 556.481 330.866 C 555.853 331.605 555.202 332.319 554.509 332.981 C 548.487 338.754 540.418 341.409 532.201 341.402 L 532.158 341.402 C 524.911 341.402 517.959 339.027 512.835 334.082 C 507.689 329.139 504.65 321.745 504.677 312.734 C 504.687 301.638 512.622 292.406 523.155 290.422 C 525.443 289.991 527.647 291.498 528.078 293.786 C 528.509 296.074 527.001 298.278 524.714 298.71 L 524.714 298.707 C 518.122 299.949 513.099 305.759 513.109 312.734 C 513.134 319.958 515.374 324.787 518.69 328.013 C 522.022 331.226 526.709 332.961 532.201 332.965 C 538.665 332.961 544.481 330.921 548.674 326.898 C 552.854 322.861 555.729 316.71 555.758 307.374 C 555.459 288.931 539.382 271.869 517.699 271.869 C 493.693 271.869 474.966 290.595 474.966 314.603 C 474.966 353.53 488.859 365.754 481.253 401.246 C 472.342 442.819 433.997 463.896 433.997 498.134 M 368.86 639.649 C 375.709 636.073 382.425 632.271 388.998 628.261 C 368.996 615.005 350.394 599.797 333.481 582.888 C 268.779 518.167 228.792 428.874 228.787 330.134 C 228.787 293.427 234.313 258.046 244.575 224.74 C 246.263 219.26 243.192 213.454 237.712 211.766 C 232.237 210.077 226.428 213.15 224.744 218.629 C 213.877 253.882 208.032 291.341 208.032 330.134 C 208.036 458.104 271.593 571.213 368.86 639.649 M 405.353 662.341 C 421.681 671.25 438.733 679 456.408 685.461 C 468.997 682.876 481.287 679.474 493.237 675.338 C 469.596 668.988 446.929 660.266 425.494 649.458 C 418.925 653.953 412.206 658.25 405.353 662.341 M 585.671 330.134 C 585.671 291.341 579.825 253.882 568.959 218.629 C 567.274 213.15 561.465 210.077 555.99 211.766 C 550.511 213.454 547.439 219.26 549.129 224.74 C 559.39 258.046 564.918 293.427 564.918 330.134 C 564.911 428.874 524.925 518.167 460.221 582.888 C 416.596 626.503 361.793 658.86 300.467 675.338 C 312.416 679.474 324.705 682.876 337.296 685.461 C 482.219 632.495 585.666 493.404 585.671 330.134 M 238.021 522.376 C 232.261 522.524 227.607 524.792 224.44 527.857 C 221.28 530.945 219.429 534.959 219.401 540.365 C 219.415 546.693 224.532 551.811 230.864 551.819 L 230.864 551.824 C 233.191 551.824 235.079 553.709 235.079 556.037 C 235.079 558.368 233.191 560.256 230.864 560.256 C 219.875 560.253 210.974 551.352 210.97 540.365 C 210.943 532.901 213.795 526.379 218.581 521.792 C 223.363 517.185 229.875 514.48 237.117 513.71 C 237.981 513.612 238.853 513.568 239.721 513.568 C 241.992 513.579 244.193 513.899 246.304 514.475 C 216.707 460.011 199.815 397.647 199.607 331.346 C 199.432 331.497 199.262 331.655 199.083 331.798 C 192.99 336.689 185.224 338.213 177.519 338.223 C 170.388 338.218 163.542 335.525 158.404 330.751 C 153.26 325.998 149.884 319.041 149.899 310.971 C 149.899 301.463 154.99 293.117 162.58 288.557 L 162.582 288.557 C 164.575 287.357 167.164 288.003 168.367 289.997 C 169.563 291.989 168.922 294.578 166.926 295.783 C 161.772 298.889 158.33 304.518 158.33 310.971 C 158.344 316.707 160.611 321.267 164.146 324.577 C 167.68 327.874 172.535 329.797 177.519 329.79 C 184.151 329.801 188.62 327.846 193.008 324.669 C 196.482 322.155 201.375 314.401 200.126 303.633 C 197.978 285.115 181.594 272.243 158.678 273.755 C 134.604 276.401 118.714 292.958 114.084 315.658 C 106.36 353.53 136.627 390.502 150.002 433.876 C 167.759 491.03 170.047 517.836 174.308 544.644 C 177.803 566.644 196.667 583.079 219.061 584.079 C 246.019 585.287 261.111 566.836 261.9 551.352 C 262.189 545.683 260.891 540.281 258.524 535.469 C 254.536 527.352 246.452 522.159 238.021 522.376 M 245.029 326.898 C 249.221 330.921 255.037 332.961 261.503 332.965 C 266.993 332.961 271.68 331.226 275.013 328.013 C 278.328 324.787 280.569 319.958 280.593 312.734 C 280.604 305.759 275.581 299.949 268.988 298.707 L 268.988 298.71 C 266.703 298.278 265.193 296.074 265.625 293.786 C 266.055 291.498 268.259 289.991 270.547 290.422 C 281.081 292.406 289.016 301.638 289.027 312.734 C 289.052 321.745 286.016 329.139 280.868 334.082 C 275.745 339.027 268.792 341.402 261.544 341.402 L 261.503 341.402 C 253.284 341.409 245.216 338.754 239.193 332.981 C 238.5 332.319 237.851 331.605 237.221 330.866 C 237.361 393.728 254.069 452.618 283.24 503.48 C 285.727 491.555 296.269 482.595 308.935 482.595 C 316.377 482.576 322.621 485.555 326.869 489.8 C 331.116 494.058 333.557 499.519 333.581 504.972 C 333.587 511.186 330.789 516.787 326.403 520.519 L 326.403 520.521 C 324.631 522.032 321.969 521.821 320.459 520.047 C 318.947 518.276 319.159 515.615 320.932 514.104 C 323.52 511.888 325.148 508.642 325.149 504.972 C 325.175 502.162 323.727 498.543 320.923 495.776 C 318.116 493.011 314.144 491.032 308.935 491.022 C 299.079 491.04 291.109 499.011 291.089 508.868 C 291.089 514.003 292.656 518.92 295.373 523.109 C 301.301 532.245 311.945 537.547 323.552 537.021 C 341.467 536.212 359.705 520.391 359.705 498.134 C 359.705 463.896 321.361 442.819 312.451 401.246 C 304.844 365.754 318.737 353.53 318.737 314.603 C 318.737 290.595 300.011 271.869 276.004 271.869 C 254.32 271.869 238.244 288.931 237.945 307.374 C 237.975 316.71 240.849 322.861 245.029 326.898 M 396.849 701.972 C 228.335 701.972 91.7271 565.363 91.7271 396.851 C 91.7271 228.336 228.335 91.7279 396.849 91.7279 C 565.363 91.7279 701.97 228.336 701.97 396.851 C 701.97 565.363 565.363 701.972 396.849 701.972 M 396.852 31.7307 C 195.203 31.7307 31.73 195.201 31.73 396.852 C 31.73 598.503 195.203 761.974 396.852 761.974 C 598.503 761.974 761.973 598.503 761.973 396.852 C 761.973 195.201 598.503 31.7307 396.852 31.7307"
     style="fill:#000000;fill-opacity:1;fill-rule:nonzero;stroke:none"
     id="path58414" />
</svg>
