<?xml version="1.0" encoding="UTF-8" standalone="no"?>
<!-- Created with Inkscape (http://www.inkscape.org/) -->

<svg
   version="1.1"
   id="svg62928"
   width="795.03467"
   height="793.70135"
   viewBox="0 0 795.03467 793.70135"
   sodipodi:docname="Matsudaira Touuchiwa.svg"
   inkscape:version="1.2 (dc2aeda, 2022-05-15)"
   xmlns:inkscape="http://www.inkscape.org/namespaces/inkscape"
   xmlns:sodipodi="http://sodipodi.sourceforge.net/DTD/sodipodi-0.dtd"
   xmlns="http://www.w3.org/2000/svg"
   xmlns:svg="http://www.w3.org/2000/svg">
  <defs
     id="defs62932">
    <clipPath
       clipPathUnits="userSpaceOnUse"
       id="clipPath63799">
      <path
         d="M -528.0898,575.3815 H 68.186199 V -19.8945 H -528.0898 Z"
         id="path63801"
         style="stroke-width:0.999998" />
    </clipPath>
    <clipPath
       clipPathUnits="userSpaceOnUse"
       id="clipPath63805">
      <path
         d="m -383.4365,346.7526 h 596.27601 v -595.276 H -383.4365 Z"
         id="path63807"
         style="stroke-width:0.999998" />
    </clipPath>
    <clipPath
       clipPathUnits="userSpaceOnUse"
       id="clipPath63811">
      <path
         d="m -223.4707,280.4933 h 596.276 v -595.276 h -596.276 z"
         id="path63813"
         style="stroke-width:0.999998" />
    </clipPath>
    <clipPath
       clipPathUnits="userSpaceOnUse"
       id="clipPath63818">
      <path
         d="M -550.2637,577.3248 H 46.012306 V -17.951198 H -550.2637 Z"
         id="path63820"
         style="stroke-width:0.999998" />
    </clipPath>
    <clipPath
       clipPathUnits="userSpaceOnUse"
       id="clipPath63824">
      <path
         d="M -556.4014,578.0143 H 39.874606 V -17.2617 H -556.4014 Z"
         id="path63826"
         style="stroke-width:0.999998" />
    </clipPath>
    <clipPath
       clipPathUnits="userSpaceOnUse"
       id="clipPath63830">
      <path
         d="M -586.5449,579.5026 H 9.7311002 V -15.7734 H -586.5449 Z"
         id="path63832"
         style="stroke-width:0.999998" />
    </clipPath>
    <clipPath
       clipPathUnits="userSpaceOnUse"
       id="clipPath63836">
      <path
         d="M -584.1943,578.9381 H 12.081705 V -16.337903 H -584.1943 Z"
         id="path63838"
         style="stroke-width:0.999998" />
    </clipPath>
    <clipPath
       clipPathUnits="userSpaceOnUse"
       id="clipPath63842">
      <path
         d="M -538.2217,577.9479 H 58.054299 V -17.328098 H -538.2217 Z"
         id="path63844"
         style="stroke-width:0.999998" />
    </clipPath>
    <clipPath
       clipPathUnits="userSpaceOnUse"
       id="clipPath63848">
      <path
         d="m -339.0244,275.2823 h 596.276 v -595.276 h -596.276 z"
         id="path63850"
         style="stroke-width:0.999998" />
    </clipPath>
    <clipPath
       clipPathUnits="userSpaceOnUse"
       id="clipPath63854">
      <path
         d="m -267.5527,230.8702 h 596.27601 v -595.276 H -267.5527 Z"
         id="path63856"
         style="stroke-width:0.999998" />
    </clipPath>
    <clipPath
       clipPathUnits="userSpaceOnUse"
       id="clipPath63860">
      <path
         d="M -531.1924,581.5885 H 65.083599 V -13.6875 H -531.1924 Z"
         id="path63862"
         style="stroke-width:0.999998" />
    </clipPath>
    <clipPath
       clipPathUnits="userSpaceOnUse"
       id="clipPath63866">
      <path
         d="M -536.6982,584.5729 H 59.577804 V -10.7031 H -536.6982 Z"
         id="path63868"
         style="stroke-width:0.999998" />
    </clipPath>
    <clipPath
       clipPathUnits="userSpaceOnUse"
       id="clipPath63872">
      <path
         d="M -540.8213,585.8483 H 55.454701 V -9.4277027 H -540.8213 Z"
         id="path63874"
         style="stroke-width:0.999998" />
    </clipPath>
    <clipPath
       clipPathUnits="userSpaceOnUse"
       id="clipPath63878">
      <path
         d="M -542.9326,584.5729 H 53.343399 V -10.7031 H -542.9326 Z"
         id="path63880"
         style="stroke-width:0.999998" />
    </clipPath>
    <clipPath
       clipPathUnits="userSpaceOnUse"
       id="clipPath63884">
      <path
         d="M -545.417,584.5729 H 50.859001 V -10.7031 H -545.417 Z"
         id="path63886"
         style="stroke-width:0.999998" />
    </clipPath>
    <clipPath
       clipPathUnits="userSpaceOnUse"
       id="clipPath63890">
      <path
         d="M -548.9834,585.8522 H 47.292601 V -9.4238027 H -548.9834 Z"
         id="path63892"
         style="stroke-width:0.999998" />
    </clipPath>
    <clipPath
       clipPathUnits="userSpaceOnUse"
       id="clipPath63896">
      <path
         d="M -561.4131,585.8522 H 34.862903 V -9.4238027 H -561.4131 Z"
         id="path63898"
         style="stroke-width:0.999998" />
    </clipPath>
    <clipPath
       clipPathUnits="userSpaceOnUse"
       id="clipPath63902">
      <path
         d="M -553.8975,585.8483 H 42.378504 V -9.4277027 H -553.8975 Z"
         id="path63904"
         style="stroke-width:0.999998" />
    </clipPath>
    <clipPath
       clipPathUnits="userSpaceOnUse"
       id="clipPath63908">
      <path
         d="M -557.0645,585.8483 H 39.211501 V -9.4277027 H -557.0645 Z"
         id="path63910"
         style="stroke-width:0.999998" />
    </clipPath>
    <clipPath
       clipPathUnits="userSpaceOnUse"
       id="clipPath63914">
      <path
         d="m -439.9463,443.4322 h 596.276 v -595.276 h -596.276 z"
         id="path63916"
         style="stroke-width:0.999998" />
    </clipPath>
    <clipPath
       clipPathUnits="userSpaceOnUse"
       id="clipPath63920">
      <path
         d="m -450.8975,454.3834 h 596.276 v -595.276 h -596.276 z"
         id="path63922"
         style="stroke-width:0.999998" />
    </clipPath>
    <clipPath
       clipPathUnits="userSpaceOnUse"
       id="clipPath63926">
      <path
         d="m -460.5615,464.0475 h 596.27601 v -595.276 H -460.5615 Z"
         id="path63928"
         style="stroke-width:0.999998" />
    </clipPath>
    <clipPath
       clipPathUnits="userSpaceOnUse"
       id="clipPath63932">
      <path
         d="M -491.3271,491.36 H 104.94891 V -103.916 H -491.3271 Z"
         id="path63934"
         style="stroke-width:0.999998" />
    </clipPath>
    <clipPath
       clipPathUnits="userSpaceOnUse"
       id="clipPath63938">
      <path
         d="m -499.8115,482.8756 h 596.276 v -595.276 h -596.276 z"
         id="path63940"
         style="stroke-width:0.999998" />
    </clipPath>
    <clipPath
       clipPathUnits="userSpaceOnUse"
       id="clipPath63944">
      <path
         d="m -510.5713,472.1158 h 596.276 v -595.276 h -596.276 z"
         id="path63946"
         style="stroke-width:0.999998" />
    </clipPath>
    <clipPath
       clipPathUnits="userSpaceOnUse"
       id="clipPath63950">
      <path
         d="m -133.2275,89.7257 h 596.276 v -595.276 h -596.276 z"
         id="path63952"
         style="stroke-width:0.999998" />
    </clipPath>
    <clipPath
       clipPathUnits="userSpaceOnUse"
       id="clipPath63956">
      <path
         d="m -479.3896,503.2975 h 596.276 V -91.978502 h -596.276 z"
         id="path63958"
         style="stroke-width:0.999998" />
    </clipPath>
    <clipPath
       clipPathUnits="userSpaceOnUse"
       id="clipPath63962">
      <path
         d="m -468.6299,514.0572 h 596.276 v -595.276 h -596.276 z"
         id="path63964"
         style="stroke-width:0.999998" />
    </clipPath>
    <clipPath
       clipPathUnits="userSpaceOnUse"
       id="clipPath63968">
      <path
         d="m -227.3887,346.7545 h 596.276 v -595.276 h -596.276 z"
         id="path63970"
         style="stroke-width:0.999998" />
    </clipPath>
    <clipPath
       clipPathUnits="userSpaceOnUse"
       id="clipPath63974">
      <path
         d="M -86.242202,136.712 H 510.0338 V -458.564 H -86.242202 Z"
         id="path63976"
         style="stroke-width:0.999998" />
    </clipPath>
    <clipPath
       clipPathUnits="userSpaceOnUse"
       id="clipPath63980">
      <path
         d="m -115.3418,172.5099 h 596.276 v -595.276 h -596.276 z"
         id="path63982"
         style="stroke-width:0.999998" />
    </clipPath>
    <clipPath
       clipPathUnits="userSpaceOnUse"
       id="clipPath63986">
      <path
         d="m -104.623,163.2062 h 596.276 v -595.276 h -596.276 z"
         id="path63988"
         style="stroke-width:0.999998" />
    </clipPath>
    <clipPath
       clipPathUnits="userSpaceOnUse"
       id="clipPath63992">
      <path
         d="m -131.3037,134.7872 h 596.276 v -595.276 h -596.276 z"
         id="path63994"
         style="stroke-width:0.999998" />
    </clipPath>
    <clipPath
       clipPathUnits="userSpaceOnUse"
       id="clipPath63998">
      <path
         d="m -277.0117,390.8365 h 596.27601 v -595.276 H -277.0117 Z"
         id="path64000"
         style="stroke-width:0.999998" />
    </clipPath>
    <clipPath
       clipPathUnits="userSpaceOnUse"
       id="clipPath64004">
      <path
         d="M -557.4951,577.8502 H 38.780903 V -17.4258 H -557.4951 Z"
         id="path64006"
         style="stroke-width:0.999998" />
    </clipPath>
    <clipPath
       clipPathUnits="userSpaceOnUse"
       id="clipPath64010">
      <path
         d="m -144.79,119.1554 h 596.276 v -595.276 H -144.79 Z"
         id="path64012"
         style="stroke-width:0.999998" />
    </clipPath>
    <clipPath
       clipPathUnits="userSpaceOnUse"
       id="clipPath64016">
      <path
         d="m -463.9229,394.9615 h 596.276 v -595.276 h -596.276 z"
         id="path64018"
         style="stroke-width:0.999998" />
    </clipPath>
    <clipPath
       clipPathUnits="userSpaceOnUse"
       id="clipPath64022">
      <path
         d="m -171.207,174.6915 h 596.27601 v -595.276 H -171.207 Z"
         id="path64024"
         style="stroke-width:0.999998" />
    </clipPath>
    <clipPath
       clipPathUnits="userSpaceOnUse"
       id="clipPath64028">
      <path
         d="m -115.6709,148.2745 h 596.276 v -595.276 h -596.276 z"
         id="path64030"
         style="stroke-width:0.999998" />
    </clipPath>
    <clipPath
       clipPathUnits="userSpaceOnUse"
       id="clipPath64034">
      <path
         d="m -160.668,164.1525 h 596.27601 v -595.276 H -160.668 Z"
         id="path64036"
         style="stroke-width:0.999998" />
    </clipPath>
    <clipPath
       clipPathUnits="userSpaceOnUse"
       id="clipPath64040">
      <path
         d="M -564.5732,585.8483 H 31.702801 V -9.4277027 H -564.5732 Z"
         id="path64042"
         style="stroke-width:0.999998" />
    </clipPath>
    <clipPath
       clipPathUnits="userSpaceOnUse"
       id="clipPath64046">
      <path
         d="m -343.2705,230.8693 h 596.276 v -595.276 h -596.276 z"
         id="path64048"
         style="stroke-width:0.999998" />
    </clipPath>
    <clipPath
       clipPathUnits="userSpaceOnUse"
       id="clipPath64052">
      <path
         d="M -574.5459,585.8522 H 21.730103 V -9.4238027 H -574.5459 Z"
         id="path64054"
         style="stroke-width:0.999998" />
    </clipPath>
    <clipPath
       clipPathUnits="userSpaceOnUse"
       id="clipPath64058">
      <path
         d="M -576.3691,585.5885 H 19.906905 V -9.6875027 H -576.3691 Z"
         id="path64060"
         style="stroke-width:0.999998" />
    </clipPath>
    <clipPath
       clipPathUnits="userSpaceOnUse"
       id="clipPath64064">
      <path
         d="M -567.7754,585.8522 H 28.500601 V -9.4238027 H -567.7754 Z"
         id="path64066"
         style="stroke-width:0.999998" />
    </clipPath>
    <clipPath
       clipPathUnits="userSpaceOnUse"
       id="clipPath64071">
      <path
         d="M -572.8174,586.1354 H 23.458606 V -9.1406027 H -572.8174 Z"
         id="path64073"
         style="stroke-width:0.999998" />
    </clipPath>
    <clipPath
       clipPathUnits="userSpaceOnUse"
       id="clipPath64077">
      <path
         d="m -391.4775,467.4088 h 596.276 v -595.276 h -596.276 z"
         id="path64079"
         style="stroke-width:0.999998" />
    </clipPath>
    <clipPath
       clipPathUnits="userSpaceOnUse"
       id="clipPath64083">
      <path
         d="m -277.0107,226.9523 h 596.276 v -595.276 h -596.276 z"
         id="path64085"
         style="stroke-width:0.999998" />
    </clipPath>
    <clipPath
       clipPathUnits="userSpaceOnUse"
       id="clipPath64089">
      <path
         d="M -568.2266,575.819 H 28.049401 V -19.457003 H -568.2266 Z"
         id="path64091"
         style="stroke-width:0.999998" />
    </clipPath>
    <clipPath
       clipPathUnits="userSpaceOnUse"
       id="clipPath64095">
      <path
         d="m -387.3535,280.4923 h 596.276 v -595.276 h -596.276 z"
         id="path64097"
         style="stroke-width:0.999998" />
    </clipPath>
  </defs>
  <sodipodi:namedview
     id="namedview62930"
     pagecolor="#ffffff"
     bordercolor="#000000"
     borderopacity="0.25"
     inkscape:showpageshadow="2"
     inkscape:pageopacity="0.0"
     inkscape:pagecheckerboard="0"
     inkscape:deskcolor="#d1d1d1"
     showgrid="false"
     inkscape:zoom="0.29734106"
     inkscape:cx="-215.24105"
     inkscape:cy="396.85068"
     inkscape:window-width="1419"
     inkscape:window-height="456"
     inkscape:window-x="0"
     inkscape:window-y="25"
     inkscape:window-maximized="0"
     inkscape:current-layer="svg62928">
    <inkscape:page
       x="0"
       y="0"
       id="page62934"
       width="795.03467"
       height="793.70135" />
  </sodipodi:namedview>
  <path
     d="M 452.033 367.043 C 476.785 391.796 476.785 431.928 452.034 456.677 C 427.282 481.431 387.153 481.431 362.4 456.677 C 337.651 431.928 337.649 391.796 362.4 367.044 C 387.153 342.292 427.282 342.294 452.033 367.043"
     style="fill:#000000;fill-opacity:1;fill-rule:nonzero;stroke:none"
     id="path63048" />
  <path
     d="M 356.737 307.827 C 371.528 322.616 371.528 346.591 356.737 361.382 C 341.949 376.169 317.973 376.171 303.184 361.382 C 288.395 346.592 288.395 322.616 303.184 307.827 C 317.973 293.038 341.949 293.038 356.737 307.827"
     style="fill:#000000;fill-opacity:1;fill-rule:nonzero;stroke:none"
     id="path63052" />
  <path
     d="M 511.249 462.337 C 526.038 477.126 526.038 501.102 511.249 515.892 C 496.46 530.681 472.484 530.681 457.694 515.892 C 442.905 501.102 442.905 477.126 457.694 462.337 C 472.484 447.548 496.46 447.55 511.249 462.337"
     style="fill:#000000;fill-opacity:1;fill-rule:nonzero;stroke:none"
     id="path63056" />
  <path
     d="M 297.961 373.991 C 318.877 373.991 335.829 390.944 335.829 411.86 C 335.829 432.774 318.877 449.729 297.96 449.729 C 277.046 449.729 260.093 432.774 260.093 411.86 C 260.093 390.944 277.045 373.991 297.961 373.991"
     style="fill:#000000;fill-opacity:1;fill-rule:nonzero;stroke:none"
     id="path63060" />
  <path
     d="M 516.471 373.99 C 537.387 373.99 554.339 390.943 554.339 411.858 C 554.339 432.774 537.387 449.727 516.47 449.727 C 495.558 449.727 478.603 432.771 478.603 411.861 C 478.603 390.942 495.555 373.99 516.471 373.99"
     style="fill:#000000;fill-opacity:1;fill-rule:nonzero;stroke:none"
     id="path63064" />
  <path
     d="M 303.185 462.339 C 317.976 447.55 341.949 447.55 356.738 462.336 C 371.527 477.126 371.529 501.102 356.738 515.891 C 341.95 530.68 317.973 530.68 303.185 515.891 C 288.396 501.102 288.394 477.126 303.185 462.339"
     style="fill:#000000;fill-opacity:1;fill-rule:nonzero;stroke:none"
     id="path63068" />
  <path
     d="M 457.694 307.826 C 472.483 293.035 496.458 293.035 511.246 307.826 C 526.035 322.614 526.036 346.59 511.246 361.381 C 496.459 376.168 472.481 376.168 457.694 361.381 C 442.903 346.59 442.905 322.614 457.694 307.826"
     style="fill:#000000;fill-opacity:1;fill-rule:nonzero;stroke:none"
     id="path63072" />
  <path
     d="M 369.349 521.115 C 369.348 500.198 386.301 483.246 407.214 483.246 C 428.132 483.246 445.086 500.198 445.085 521.115 C 445.086 542.03 428.129 558.982 407.217 558.982 C 386.302 558.982 369.348 542.03 369.349 521.115"
     style="fill:#000000;fill-opacity:1;fill-rule:nonzero;stroke:none"
     id="path63076" />
  <path
     d="M 369.348 302.603 C 369.345 281.687 386.299 264.735 407.215 264.736 C 428.129 264.735 445.084 281.687 445.082 302.603 C 445.082 323.516 428.129 340.472 407.216 340.471 C 386.3 340.471 369.347 323.518 369.348 302.603"
     style="fill:#000000;fill-opacity:1;fill-rule:nonzero;stroke:none"
     id="path63080" />
  <path
     d="M 521.97 623.212 C 523.934 629.475 524.931 635.985 524.943 642.537 C 524.911 659.067 518.715 675.363 506.121 687.977 C 493.506 700.572 477.213 706.766 460.683 706.797 C 444.153 706.766 427.857 700.572 415.244 687.977 C 395.394 668.084 387.064 657.131 375.616 642.715 C 364.192 628.28 350.188 611.147 322.52 583.507 C 319.821 580.808 316.989 578.007 314.023 575.097 C 269.665 531.587 223.757 506.783 186.034 488.988 C 167.182 480.098 150.351 472.887 136.966 466.199 C 123.539 459.567 113.823 453.319 108.619 448.01 C 90.9991 430.368 82.2911 407.486 82.2618 384.365 C 82.2911 361.251 91.0017 338.367 108.619 320.727 C 126.263 303.106 149.144 294.397 172.26 294.366 C 182.908 294.379 193.499 296.258 203.556 299.978 C 198.557 313.591 201.512 329.467 212.443 340.395 C 227.443 355.394 251.757 355.393 266.755 340.395 C 288.975 318.175 282.293 293.067 262.495 273.269 C 218.889 229.664 126.878 230.816 72.7925 284.901 C 17.8646 339.855 17.8646 428.882 72.7951 483.832 C 84.8098 495.739 99.0017 503.816 114.351 511.538 C 137.422 523.002 163.783 533.51 191.827 548.519 C 219.848 563.504 249.44 582.764 278.556 611.283 C 281.411 614.079 284.121 616.764 286.692 619.335 C 313.181 645.855 324.862 660.275 335.916 674.196 C 346.954 688.133 357.912 702.334 379.418 723.802 C 424.318 768.681 497.049 768.681 541.949 723.802 C 579.806 685.947 598.527 609.303 543.498 554.275 C 527.345 538.122 499.817 541.764 486.03 556.999 C 471.797 572.725 470.23 598.184 485.227 613.181 C 495.186 623.141 509.251 626.477 521.97 623.212"
     style="fill:#000000;fill-opacity:1;fill-rule:nonzero;stroke:none"
     id="path63084" />
  <path
     d="M 618.564 526.615 C 624.827 528.582 631.337 529.579 637.889 529.591 C 654.42 529.558 670.715 523.363 683.329 510.768 C 695.924 498.154 702.118 481.858 702.149 465.331 C 702.118 448.801 695.924 432.503 683.329 419.891 C 663.436 400.042 652.483 391.71 638.067 380.263 C 623.632 368.838 606.499 354.834 578.86 327.166 C 576.16 324.468 573.359 321.636 570.452 318.668 C 526.94 274.312 502.136 228.401 484.343 190.679 C 475.45 171.828 468.242 154.996 461.551 141.612 C 454.922 128.184 448.671 118.467 443.362 113.267 C 425.719 95.6454 402.838 86.9374 379.718 86.9068 C 356.603 86.9374 333.721 95.6481 316.082 113.267 C 298.461 130.909 289.751 153.791 289.718 176.907 C 289.733 187.556 291.613 198.145 295.33 208.202 C 308.945 203.204 324.819 206.16 335.75 217.089 C 350.749 232.088 350.747 256.402 335.75 271.401 C 313.529 293.62 288.422 286.941 268.622 267.141 C 225.018 223.536 226.169 131.524 280.254 77.4388 C 335.207 22.5109 424.234 22.5109 479.186 77.4428 C 491.091 89.4561 499.167 103.648 506.891 118.997 C 518.354 142.065 528.862 168.429 543.871 196.473 C 558.857 224.494 578.116 254.085 606.636 283.202 C 609.431 286.058 612.117 288.769 614.687 291.338 C 641.205 317.829 655.629 329.507 669.548 340.562 C 683.485 351.601 697.686 362.558 719.154 384.065 C 764.034 428.965 764.034 501.694 719.156 546.594 C 681.299 584.454 604.655 603.175 549.627 548.146 C 533.474 531.992 537.116 504.464 552.351 490.678 C 568.077 476.443 593.536 474.878 608.535 489.875 C 618.493 499.834 621.831 513.899 618.564 526.615"
     style="fill:#000000;fill-opacity:1;fill-rule:nonzero;stroke:none"
     id="path63088" />
  <path
     d="M 154.228 197.699 L 135.057 178.527 L 125.316 180.35 L 147.455 202.488 C 149.739 200.947 151.999 199.354 154.228 197.699"
     style="fill:#000000;fill-opacity:1;fill-rule:nonzero;stroke:none"
     id="path63092" />
  <path
     d="M 228.276 232.922 C 230.592 230.606 232.856 228.253 235.087 225.885 C 237.589 234.207 240.871 242.157 244.927 249.573 C 237.512 245.515 229.561 242.235 221.239 239.731 C 223.607 237.501 225.96 235.238 228.276 232.922"
     style="fill:#000000;fill-opacity:1;fill-rule:nonzero;stroke:none"
     id="path63096" />
  <path
     d="M 214.224 218.87 C 219.777 213.317 225.067 207.601 230.096 201.738 C 230.673 206.541 231.472 211.279 232.499 215.927 C 229.147 219.609 225.704 223.237 222.147 226.793 C 218.591 230.35 214.963 233.793 211.283 237.143 C 206.635 236.117 201.895 235.318 197.092 234.742 C 202.955 229.713 208.671 224.422 214.224 218.87"
     style="fill:#000000;fill-opacity:1;fill-rule:nonzero;stroke:none"
     id="path63100" />
  <path
     d="M 175.072 179.716 C 179.556 175.231 183.763 170.573 187.692 165.764 L 171.951 150.024 L 167.763 172.409 L 145.379 176.596 L 161.119 192.336 C 165.929 188.407 170.585 184.201 175.072 179.716"
     style="fill:#000000;fill-opacity:1;fill-rule:nonzero;stroke:none"
     id="path63104" />
  <path
     d="M 193.053 158.874 L 173.881 139.703 L 175.705 129.961 L 197.844 152.099 C 196.301 154.385 194.708 156.645 193.053 158.874"
     style="fill:#000000;fill-opacity:1;fill-rule:nonzero;stroke:none"
     id="path63108" />
  <path
     d="M 114.99 182.283 L 101.667 184.776 L 132.533 211.566 C 135.041 210.195 137.525 208.766 139.982 207.274 Z"
     style="fill:#000000;fill-opacity:1;fill-rule:nonzero;stroke:none"
     id="path63112" />
  <path
     d="M 153.789 230.013 L 159.288 234.785 C 163.258 234.313 167.228 233.969 171.18 233.789 C 175.712 233.589 180.23 233.578 184.716 233.756 C 192.785 227.238 200.597 220.244 208.097 212.745 C 215.597 205.244 222.593 197.43 229.11 189.361 C 228.933 184.876 228.942 180.358 229.145 175.825 C 229.325 171.873 229.667 167.905 230.139 163.934 L 225.367 158.435 C 217.022 172.914 206.665 186.548 194.285 198.93 C 181.902 211.31 168.268 221.668 153.789 230.013"
     style="fill:#000000;fill-opacity:1;fill-rule:nonzero;stroke:none"
     id="path63116" />
  <path
     d="M 139.497 217.608 L 146.837 223.98 C 161.649 215.764 175.58 205.379 188.157 192.803 C 200.733 180.224 211.118 166.296 219.334 151.484 L 212.962 144.143 C 204.501 159.071 193.92 173.12 181.198 185.845 C 168.474 198.567 154.424 209.147 139.497 217.608"
     style="fill:#000000;fill-opacity:1;fill-rule:nonzero;stroke:none"
     id="path63120" />
  <path
     d="M 177.637 119.634 L 202.629 144.626 C 204.121 142.169 205.549 139.687 206.918 137.179 L 180.13 106.314 Z"
     style="fill:#000000;fill-opacity:1;fill-rule:nonzero;stroke:none"
     id="path63124" />
  <path
     d="M 639.186 671.063 L 644.371 665.878 L 611.982 633.487 C 610.326 635.303 608.697 637.131 607.102 638.979 Z"
     style="fill:#000000;fill-opacity:1;fill-rule:nonzero;stroke:none"
     id="path63128" />
  <path
     d="M 624.84 685.41 L 633.059 677.191 L 601.541 645.675 C 599.084 648.733 596.697 651.829 594.4 654.97 Z"
     style="fill:#000000;fill-opacity:1;fill-rule:nonzero;stroke:none"
     id="path63132" />
  <path
     d="M 586.595 591.243 C 588.655 589.183 590.743 587.167 592.847 585.178 C 585.275 582.672 577.788 579.352 570.494 575.142 C 574.704 582.436 578.024 589.923 580.532 597.495 C 582.519 595.391 584.535 593.303 586.595 591.243"
     style="fill:#000000;fill-opacity:1;fill-rule:nonzero;stroke:none"
     id="path63136" />
  <path
     d="M 601.197 605.845 C 606.552 600.49 612.072 595.405 617.733 590.569 C 612.693 590.025 607.638 589.16 602.6 587.954 C 599.257 591.006 595.957 594.137 592.724 597.372 C 589.489 600.605 586.361 603.902 583.308 607.246 C 584.512 612.285 585.377 617.34 585.921 622.381 C 590.757 616.72 595.844 611.2 601.197 605.845"
     style="fill:#000000;fill-opacity:1;fill-rule:nonzero;stroke:none"
     id="path63140" />
  <path
     d="M 614.082 618.73 C 623.585 609.225 633.634 600.605 644.123 592.85 L 642.058 590.785 C 641.885 590.801 641.714 590.826 641.539 590.839 C 637.893 591.149 634.21 591.293 630.506 591.277 C 622.494 597.667 614.746 604.555 607.327 611.975 C 599.907 619.391 593.021 627.142 586.629 635.154 C 586.645 638.858 586.501 642.539 586.194 646.186 C 586.178 646.361 586.153 646.533 586.137 646.706 L 588.202 648.771 C 595.957 638.282 604.578 628.233 614.082 618.73"
     style="fill:#000000;fill-opacity:1;fill-rule:nonzero;stroke:none"
     id="path63144" />
  <path
     d="M 655.103 655.147 L 622.54 622.587 C 621.763 623.342 620.98 624.087 620.21 624.858 C 619.44 625.626 618.695 626.41 617.938 627.188 L 650.499 659.751 Z"
     style="fill:#000000;fill-opacity:1;fill-rule:nonzero;stroke:none"
     id="path63148" />
  <path
     d="M 666.415 643.834 L 661.23 649.019 L 628.84 616.629 C 630.655 614.974 632.484 613.345 634.331 611.75 Z"
     style="fill:#000000;fill-opacity:1;fill-rule:nonzero;stroke:none"
     id="path63152" />
  <path
     d="M 680.762 629.488 L 672.545 637.707 L 641.027 606.188 C 644.085 603.733 647.181 601.345 650.322 599.048 Z"
     style="fill:#000000;fill-opacity:1;fill-rule:nonzero;stroke:none"
     id="path63156" />
</svg>
