<?xml version="1.0" encoding="UTF-8" standalone="no"?>
<!-- Created with Inkscape (http://www.inkscape.org/) -->

<svg
   version="1.1"
   id="svg66192"
   width="795.03467"
   height="793.70135"
   viewBox="0 0 795.03467 793.70135"
   sodipodi:docname="Mitsuwari Uchiwa.svg"
   inkscape:version="1.2 (dc2aeda, 2022-05-15)"
   xmlns:inkscape="http://www.inkscape.org/namespaces/inkscape"
   xmlns:sodipodi="http://sodipodi.sourceforge.net/DTD/sodipodi-0.dtd"
   xmlns="http://www.w3.org/2000/svg"
   xmlns:svg="http://www.w3.org/2000/svg">
  <defs
     id="defs66196">
    <clipPath
       clipPathUnits="userSpaceOnUse"
       id="clipPath66891">
      <path
         d="m -409.2285,484.3346 h 596.276 v -595.276 h -596.276 z"
         id="path66893"
         style="stroke-width:0.999998" />
    </clipPath>
    <clipPath
       clipPathUnits="userSpaceOnUse"
       id="clipPath66897">
      <path
         d="m -450.7314,447.7721 h 596.27601 v -595.276 H -450.7314 Z"
         id="path66899"
         style="stroke-width:0.999998" />
    </clipPath>
    <clipPath
       clipPathUnits="userSpaceOnUse"
       id="clipPath66903">
      <path
         d="m -477.3945,366.2682 h 596.27601 v -595.276 H -477.3945 Z"
         id="path66905"
         style="stroke-width:0.999998" />
    </clipPath>
    <clipPath
       clipPathUnits="userSpaceOnUse"
       id="clipPath66909">
      <path
         d="M -531.1924,581.5885 H 65.083599 V -13.6875 H -531.1924 Z"
         id="path66911"
         style="stroke-width:0.999998" />
    </clipPath>
    <clipPath
       clipPathUnits="userSpaceOnUse"
       id="clipPath66915">
      <path
         d="M -528.0898,575.3815 H 68.186199 V -19.8945 H -528.0898 Z"
         id="path66917"
         style="stroke-width:0.999998" />
    </clipPath>
    <clipPath
       clipPathUnits="userSpaceOnUse"
       id="clipPath66921">
      <path
         d="m -186.0488,484.3346 h 596.276 v -595.276 h -596.276 z"
         id="path66923"
         style="stroke-width:0.999998" />
    </clipPath>
    <clipPath
       clipPathUnits="userSpaceOnUse"
       id="clipPath66927">
      <path
         d="M -584.1943,578.9381 H 12.081705 V -16.337903 H -584.1943 Z"
         id="path66929"
         style="stroke-width:0.999998" />
    </clipPath>
    <clipPath
       clipPathUnits="userSpaceOnUse"
       id="clipPath66934">
      <path
         d="m -466.4814,420.4908 h 596.27601 v -595.276 H -466.4814 Z"
         id="path66936"
         style="stroke-width:0.999998" />
    </clipPath>
    <clipPath
       clipPathUnits="userSpaceOnUse"
       id="clipPath66940">
      <path
         d="m -330.8809,349.4459 h 596.276 v -595.276 h -596.276 z"
         id="path66942"
         style="stroke-width:0.999998" />
    </clipPath>
    <clipPath
       clipPathUnits="userSpaceOnUse"
       id="clipPath66946">
      <path
         d="m -117.8838,366.2682 h 596.276 v -595.276 h -596.276 z"
         id="path66948"
         style="stroke-width:0.999998" />
    </clipPath>
    <clipPath
       clipPathUnits="userSpaceOnUse"
       id="clipPath66952">
      <path
         d="M -540.8213,585.8483 H 55.454701 V -9.4277027 H -540.8213 Z"
         id="path66954"
         style="stroke-width:0.999998" />
    </clipPath>
    <clipPath
       clipPathUnits="userSpaceOnUse"
       id="clipPath66958">
      <path
         d="M -542.9326,584.5729 H 53.343399 V -10.7031 H -542.9326 Z"
         id="path66960"
         style="stroke-width:0.999998" />
    </clipPath>
    <clipPath
       clipPathUnits="userSpaceOnUse"
       id="clipPath66964">
      <path
         d="M -545.417,584.5729 H 50.859001 V -10.7031 H -545.417 Z"
         id="path66966"
         style="stroke-width:0.999998" />
    </clipPath>
    <clipPath
       clipPathUnits="userSpaceOnUse"
       id="clipPath66970">
      <path
         d="m -273.874,365.8619 h 596.27601 v -595.276 H -273.874 Z"
         id="path66972"
         style="stroke-width:0.999998" />
    </clipPath>
    <clipPath
       clipPathUnits="userSpaceOnUse"
       id="clipPath66976">
      <path
         d="m -144.5469,447.7721 h 596.276 v -595.276 h -596.276 z"
         id="path66978"
         style="stroke-width:0.999998" />
    </clipPath>
    <clipPath
       clipPathUnits="userSpaceOnUse"
       id="clipPath66982">
      <path
         d="m -313.3887,155.3292 h 596.276 v -595.276 h -596.276 z"
         id="path66984"
         style="stroke-width:0.999998" />
    </clipPath>
    <clipPath
       clipPathUnits="userSpaceOnUse"
       id="clipPath66988">
      <path
         d="m -365.8037,172.9904 h 596.27601 v -595.276 H -365.8037 Z"
         id="path66990"
         style="stroke-width:0.999998" />
    </clipPath>
    <clipPath
       clipPathUnits="userSpaceOnUse"
       id="clipPath66994">
      <path
         d="m -229.4736,172.9904 h 596.276 v -595.276 h -596.276 z"
         id="path66996"
         style="stroke-width:0.999998" />
    </clipPath>
    <clipPath
       clipPathUnits="userSpaceOnUse"
       id="clipPath67000">
      <path
         d="m -288.1621,308.2858 h 596.27601 v -595.276 H -288.1621 Z"
         id="path67002"
         style="stroke-width:0.999998" />
    </clipPath>
    <clipPath
       clipPathUnits="userSpaceOnUse"
       id="clipPath67006">
      <path
         d="m -281.8887,155.3292 h 596.276 v -595.276 h -596.276 z"
         id="path67008"
         style="stroke-width:0.999998" />
    </clipPath>
    <clipPath
       clipPathUnits="userSpaceOnUse"
       id="clipPath67012">
      <path
         d="m -325.6123,341.1881 h 596.276 v -595.276 h -596.276 z"
         id="path67014"
         style="stroke-width:0.999998" />
    </clipPath>
    <clipPath
       clipPathUnits="userSpaceOnUse"
       id="clipPath67018">
      <path
         d="M -538.2217,577.9479 H 58.054299 V -17.328098 H -538.2217 Z"
         id="path67020"
         style="stroke-width:0.999998" />
    </clipPath>
    <clipPath
       clipPathUnits="userSpaceOnUse"
       id="clipPath67024">
      <path
         d="M -586.5449,579.5026 H 9.7311002 V -15.7734 H -586.5449 Z"
         id="path67026"
         style="stroke-width:0.999998" />
    </clipPath>
    <clipPath
       clipPathUnits="userSpaceOnUse"
       id="clipPath67030">
      <path
         d="M -568.2266,575.819 H 28.049401 V -19.457003 H -568.2266 Z"
         id="path67032"
         style="stroke-width:0.999998" />
    </clipPath>
    <clipPath
       clipPathUnits="userSpaceOnUse"
       id="clipPath67036">
      <path
         d="M -556.4014,578.0143 H 39.874606 V -17.2617 H -556.4014 Z"
         id="path67038"
         style="stroke-width:0.999998" />
    </clipPath>
    <clipPath
       clipPathUnits="userSpaceOnUse"
       id="clipPath67043">
      <path
         d="M -550.2637,577.3248 H 46.012306 V -17.951198 H -550.2637 Z"
         id="path67045"
         style="stroke-width:0.999998" />
    </clipPath>
    <clipPath
       clipPathUnits="userSpaceOnUse"
       id="clipPath67049">
      <path
         d="M -576.3691,585.5885 H 19.906905 V -9.6875027 H -576.3691 Z"
         id="path67051"
         style="stroke-width:0.999998" />
    </clipPath>
    <clipPath
       clipPathUnits="userSpaceOnUse"
       id="clipPath67055">
      <path
         d="M -557.4951,577.8502 H 38.780903 V -17.4258 H -557.4951 Z"
         id="path67057"
         style="stroke-width:0.999998" />
    </clipPath>
    <clipPath
       clipPathUnits="userSpaceOnUse"
       id="clipPath67061">
      <path
         d="M -574.5459,585.8522 H 21.730103 V -9.4238027 H -574.5459 Z"
         id="path67063"
         style="stroke-width:0.999998" />
    </clipPath>
    <clipPath
       clipPathUnits="userSpaceOnUse"
       id="clipPath67067">
      <path
         d="M -572.8174,586.1354 H 23.458606 V -9.1406027 H -572.8174 Z"
         id="path67069"
         style="stroke-width:0.999998" />
    </clipPath>
    <clipPath
       clipPathUnits="userSpaceOnUse"
       id="clipPath67074">
      <path
         d="M -564.5732,585.8483 H 31.702801 V -9.4277027 H -564.5732 Z"
         id="path67076"
         style="stroke-width:0.999998" />
    </clipPath>
    <clipPath
       clipPathUnits="userSpaceOnUse"
       id="clipPath67080">
      <path
         d="M -553.8975,585.8483 H 42.378504 V -9.4277027 H -553.8975 Z"
         id="path67082"
         style="stroke-width:0.999998" />
    </clipPath>
    <clipPath
       clipPathUnits="userSpaceOnUse"
       id="clipPath67086">
      <path
         d="M -557.0645,585.8483 H 39.211501 V -9.4277027 H -557.0645 Z"
         id="path67088"
         style="stroke-width:0.999998" />
    </clipPath>
    <clipPath
       clipPathUnits="userSpaceOnUse"
       id="clipPath67092">
      <path
         d="M -561.4131,585.8522 H 34.862903 V -9.4238027 H -561.4131 Z"
         id="path67094"
         style="stroke-width:0.999998" />
    </clipPath>
    <clipPath
       clipPathUnits="userSpaceOnUse"
       id="clipPath67098">
      <path
         d="M -536.6982,584.5729 H 59.577804 V -10.7031 H -536.6982 Z"
         id="path67100"
         style="stroke-width:0.999998" />
    </clipPath>
    <clipPath
       clipPathUnits="userSpaceOnUse"
       id="clipPath67104">
      <path
         d="M -567.7754,585.8522 H 28.500601 V -9.4238027 H -567.7754 Z"
         id="path67106"
         style="stroke-width:0.999998" />
    </clipPath>
    <clipPath
       clipPathUnits="userSpaceOnUse"
       id="clipPath67110">
      <path
         d="M -548.9834,585.8522 H 47.292601 V -9.4238027 H -548.9834 Z"
         id="path67112"
         style="stroke-width:0.999998" />
    </clipPath>
  </defs>
  <sodipodi:namedview
     id="namedview66194"
     pagecolor="#ffffff"
     bordercolor="#000000"
     borderopacity="0.25"
     inkscape:showpageshadow="2"
     inkscape:pageopacity="0.0"
     inkscape:pagecheckerboard="0"
     inkscape:deskcolor="#d1d1d1"
     showgrid="false"
     inkscape:zoom="0.29734106"
     inkscape:cx="-215.24105"
     inkscape:cy="396.85068"
     inkscape:window-width="1419"
     inkscape:window-height="456"
     inkscape:window-x="0"
     inkscape:window-y="25"
     inkscape:window-maximized="0"
     inkscape:current-layer="svg66192">
    <inkscape:page
       x="0"
       y="0"
       id="page66198"
       width="795.03467"
       height="793.70135" />
  </sodipodi:namedview>
  <path
     d="M 434.15 454.917 C 434.15 475.518 417.451 492.217 396.85 492.217 C 376.253 492.217 359.553 475.518 359.553 454.917 C 359.553 434.321 376.253 417.622 396.85 417.622 C 417.451 417.622 434.15 434.321 434.15 454.917"
     style="fill:#000000;fill-opacity:1;fill-rule:nonzero;stroke:none"
     id="path66312" />
  <path
     d="M 384.216 411.048 C 388.229 409.892 392.467 409.261 396.852 409.259 C 401.237 409.261 405.473 409.892 409.487 411.048 L 409.487 183.955 C 409.487 147.083 425.099 125.391 437.728 113.409 L 396.851 89.8088 L 355.973 113.407 C 368.603 125.389 384.216 147.083 384.216 183.955 Z"
     style="fill:#000000;fill-opacity:1;fill-rule:nonzero;stroke:none"
     id="path66316" />
  <path
     d="M 375.852 207.106 C 370.863 212.499 364.016 216.142 356.324 217.011 L 375.852 224.849 Z"
     style="fill:#000000;fill-opacity:1;fill-rule:nonzero;stroke:none"
     id="path66320" />
  <path
     d="M 305.965 230.654 C 303.822 229.795 302.781 227.361 303.641 225.218 C 304.501 223.075 306.937 222.035 309.08 222.895 L 375.851 249.689 L 375.851 233.858 L 302.109 204.263 C 299.966 203.405 298.928 200.97 299.785 198.827 C 300.646 196.685 303.081 195.641 305.224 196.503 L 326.37 204.989 C 323.401 200.819 321.589 195.705 321.313 190.006 C 321.288 189.515 321.273 189.017 321.27 188.506 C 321.281 183.442 322.574 178.103 325.554 173.475 C 328.517 168.849 333.316 165.003 339.698 163.433 C 341.677 162.936 343.624 162.697 345.494 162.697 C 346.188 162.697 346.874 162.729 347.556 162.796 C 349.849 163.026 351.529 165.075 351.297 167.371 C 351.07 169.669 349.022 171.349 346.724 171.117 C 346.333 171.078 345.925 171.057 345.494 171.057 C 344.338 171.057 343.068 171.206 341.724 171.543 C 337.408 172.642 334.577 174.965 332.582 178.009 C 330.609 181.049 329.626 184.885 329.633 188.506 C 329.633 188.85 329.646 189.202 329.662 189.567 C 330.01 195.741 332.472 200.306 336.43 203.611 C 340.396 206.895 346.045 208.855 352.773 208.855 C 365.514 208.83 375.827 198.515 375.853 185.775 C 375.853 160.948 354.972 141.668 321.58 141.668 C 291.605 141.668 267.308 165.965 267.308 195.938 C 267.308 218.625 277.026 235.259 282.737 280.158 C 287.646 318.752 280.142 341.264 280.142 355.09 C 280.142 381.519 301.568 402.943 327.997 402.943 C 354.425 402.943 375.851 381.519 375.851 355.09 C 375.851 342.366 367.212 332.612 356.564 332.595 C 345.918 332.612 337.301 341.231 337.278 351.882 C 337.276 356.35 339.06 360.72 342.104 363.915 C 345.166 367.115 349.37 369.166 354.542 369.182 C 356.852 369.182 358.724 371.052 358.724 373.358 C 358.724 375.671 356.852 377.542 354.542 377.542 L 354.502 377.542 C 347.04 377.542 340.537 374.428 336.046 369.679 C 331.534 364.926 328.922 358.554 328.914 351.882 C 328.92 337.551 339.813 325.778 353.768 324.371 L 317.534 309.83 C 315.39 308.972 314.352 306.538 315.214 304.395 C 316.07 302.252 318.505 301.208 320.648 302.071 L 375.851 324.226 L 375.851 308.388 L 313.678 283.439 C 311.536 282.577 310.497 280.142 311.354 278.002 C 312.216 275.858 314.65 274.818 316.793 275.679 L 375.851 299.379 L 375.851 283.546 L 309.821 257.049 C 307.677 256.186 306.638 253.751 307.498 251.609 C 308.357 249.467 310.792 248.426 312.934 249.289 L 375.851 274.535 L 375.851 258.699 Z"
     style="fill:#000000;fill-opacity:1;fill-rule:nonzero;stroke:none"
     id="path66324" />
  <path
     d="M 417.852 207.106 C 422.84 212.499 429.688 216.142 437.38 217.011 L 417.852 224.849 Z"
     style="fill:#000000;fill-opacity:1;fill-rule:nonzero;stroke:none"
     id="path66328" />
  <path
     d="M 487.738 230.654 C 489.881 229.795 490.922 227.361 490.063 225.218 C 489.202 223.075 486.766 222.035 484.623 222.895 L 417.852 249.689 L 417.852 233.858 L 491.594 204.263 C 493.737 203.405 494.775 200.97 493.918 198.827 C 493.057 196.685 490.622 195.641 488.479 196.503 L 467.333 204.989 C 470.302 200.819 472.114 195.705 472.39 190.006 C 472.415 189.515 472.43 189.017 472.433 188.506 C 472.422 183.442 471.129 178.103 468.149 173.475 C 465.186 168.849 460.387 165.003 454.005 163.433 C 452.025 162.936 450.079 162.697 448.209 162.697 C 447.515 162.697 446.829 162.729 446.147 162.796 C 443.853 163.026 442.174 165.075 442.406 167.371 C 442.633 169.669 444.681 171.349 446.979 171.117 C 447.37 171.078 447.778 171.057 448.209 171.057 C 449.365 171.057 450.634 171.206 451.979 171.543 C 456.295 172.642 459.126 174.965 461.121 178.009 C 463.095 181.049 464.077 184.885 464.069 188.506 C 464.069 188.85 464.058 189.202 464.041 189.567 C 463.693 195.741 461.231 200.306 457.274 203.611 C 453.309 206.895 447.658 208.855 440.93 208.855 C 428.189 208.83 417.876 198.515 417.85 185.775 C 417.85 160.948 438.733 141.668 472.123 141.668 C 502.098 141.668 526.395 165.965 526.395 195.938 C 526.395 218.625 516.678 235.259 510.966 280.158 C 506.057 318.752 513.561 341.264 513.561 355.09 C 513.561 381.519 492.137 402.943 465.706 402.943 C 439.277 402.943 417.852 381.519 417.852 355.09 C 417.852 342.366 426.491 332.612 437.139 332.595 C 447.785 332.612 456.402 341.231 456.423 351.882 C 456.427 356.35 454.642 360.72 451.598 363.915 C 448.537 367.115 444.333 369.166 439.162 369.182 C 436.85 369.182 434.981 371.052 434.981 373.358 C 434.981 375.671 436.85 377.542 439.162 377.542 L 439.201 377.542 C 446.663 377.542 453.166 374.428 457.657 369.679 C 462.169 364.926 464.779 358.554 464.787 351.882 C 464.783 337.551 453.89 325.778 439.935 324.371 L 476.17 309.83 C 478.314 308.972 479.351 306.538 478.49 304.395 C 477.633 302.252 475.198 301.208 473.055 302.071 L 417.852 324.226 L 417.852 308.388 L 480.025 283.439 C 482.167 282.577 483.207 280.142 482.35 278.002 C 481.487 275.858 479.053 274.818 476.91 275.679 L 417.852 299.379 L 417.852 283.546 L 483.883 257.049 C 486.027 256.186 487.066 253.751 486.205 251.609 C 485.346 249.467 482.911 248.426 480.769 249.289 L 417.852 274.535 L 417.852 258.699 Z"
     style="fill:#000000;fill-opacity:1;fill-rule:nonzero;stroke:none"
     id="path66332" />
  <path
     d="M 365.165 487.816 C 362.158 484.917 359.493 481.565 357.3 477.769 C 355.106 473.969 353.536 469.985 352.528 465.931 C 306.585 492.456 188.533 560.613 155.86 579.477 C 123.928 597.912 97.339 595.237 80.6457 590.294 L 80.6457 637.493 L 121.522 661.094 C 125.583 644.168 136.566 619.8 168.497 601.362 C 201.169 582.501 319.221 514.343 365.165 487.816"
     style="fill:#000000;fill-opacity:1;fill-rule:nonzero;stroke:none"
     id="path66336" />
  <path
     d="M 192.729 597.029 C 199.893 598.657 206.474 602.761 211.07 608.99 L 208.093 588.162 C 202.589 591.338 197.426 594.316 192.729 597.029"
     style="fill:#000000;fill-opacity:1;fill-rule:nonzero;stroke:none"
     id="path66340" />
  <path
     d="M 248.065 645.779 C 248.394 648.066 246.805 650.183 244.52 650.511 C 242.234 650.836 240.117 649.248 239.786 646.962 L 229.606 575.738 C 224.89 578.462 220.302 581.11 215.896 583.656 L 227.138 662.315 C 227.466 664.599 225.877 666.716 223.593 667.044 C 221.308 667.37 219.185 665.784 218.86 663.498 L 215.637 640.94 C 213.51 645.596 209.986 649.724 205.189 652.812 C 204.777 653.079 204.354 653.339 203.912 653.602 C 199.521 656.12 194.25 657.672 188.753 657.404 C 183.262 657.154 177.535 654.919 172.983 650.175 C 171.563 648.711 170.383 647.146 169.448 645.527 C 169.101 644.924 168.787 644.315 168.503 643.691 C 167.555 641.588 168.492 639.11 170.596 638.162 C 172.699 637.211 175.175 638.143 176.125 640.248 C 176.287 640.607 176.472 640.972 176.687 641.344 C 177.264 642.347 178.032 643.37 178.995 644.367 C 182.104 647.555 185.532 648.844 189.164 649.05 C 192.784 649.243 196.597 648.175 199.729 646.358 C 200.026 646.183 200.325 645.998 200.633 645.803 C 205.808 642.412 208.532 637.998 209.414 632.918 C 210.274 627.842 209.146 621.97 205.781 616.14 C 199.39 605.12 185.302 601.347 174.255 607.695 C 152.755 620.107 146.497 647.831 163.195 676.751 C 178.18 702.708 211.37 711.602 237.328 696.615 C 256.977 685.271 266.524 668.536 302.55 641.143 C 333.521 617.596 356.769 612.836 368.742 605.924 C 391.63 592.711 399.473 563.443 386.258 540.555 C 373.043 517.667 343.775 509.823 320.887 523.039 C 309.868 529.402 305.742 541.761 311.049 550.99 C 316.387 560.201 328.159 563.355 337.393 558.047 C 341.266 555.815 344.158 552.085 345.403 547.853 C 346.643 543.599 346.317 538.935 343.745 534.449 C 342.589 532.446 343.274 529.891 345.271 528.738 C 347.274 527.582 349.83 528.266 350.986 530.269 C 350.991 530.279 350.999 530.29 351.005 530.301 C 354.737 536.763 355.294 543.951 353.422 550.219 C 351.565 556.501 347.351 561.946 341.575 565.293 C 329.163 572.451 313.521 568.905 305.326 557.522 L 310.852 596.172 C 311.178 598.456 309.589 600.576 307.302 600.899 C 305.018 601.23 302.897 599.64 302.573 597.358 L 294.156 538.473 C 289.616 541.091 285.034 543.738 280.442 546.389 L 289.922 612.706 C 290.248 614.992 288.658 617.11 286.374 617.44 C 284.089 617.763 281.97 616.175 281.645 613.888 L 272.64 550.894 C 268.052 553.542 263.472 556.189 258.928 558.81 L 268.996 629.243 C 269.321 631.528 267.732 633.648 265.445 633.972 C 263.161 634.303 261.044 632.714 260.718 630.427 L 251.125 563.315 C 246.481 565.998 241.898 568.643 237.41 571.233 Z"
     style="fill:#000000;fill-opacity:1;fill-rule:nonzero;stroke:none"
     id="path66344" />
  <path
     d="m 171.7292,560.65707 c 2.17467,-7.016 1.90933,-14.768 -1.18667,-21.864 l 16.55067,12.99467 c -5.504,3.176 -10.66667,6.156 -15.364,8.86933"
     style="fill:#000000;fill-opacity:1;fill-rule:nonzero;stroke:none;stroke-width:1.33333"
     id="path66348" />
  <path
     d="M 157.178 488.358 C 155.365 486.931 152.734 487.249 151.307 489.066 C 149.885 490.882 150.201 493.509 152.015 494.937 L 208.606 539.366 C 203.89 542.09 199.302 544.738 194.895 547.282 L 132.395 498.215 C 130.581 496.787 127.953 497.109 126.526 498.923 C 125.101 500.738 125.414 503.369 127.231 504.793 L 145.154 518.863 C 140.059 518.377 134.723 519.363 129.65 521.975 C 129.213 522.199 128.775 522.434 128.329 522.689 C 123.95 525.227 119.974 529.019 117.454 533.915 C 114.927 538.793 113.997 544.871 115.827 551.183 C 116.387 553.15 117.153 554.951 118.091 556.574 C 118.437 557.172 118.807 557.751 119.206 558.308 C 120.554 560.178 123.169 560.608 125.041 559.259 C 126.917 557.915 127.346 555.3 125.997 553.429 C 125.767 553.109 125.543 552.765 125.329 552.391 C 124.751 551.391 124.247 550.218 123.867 548.885 C 122.661 544.595 123.258 540.983 124.894 537.733 C 126.539 534.506 129.373 531.735 132.51 529.934 C 132.81 529.759 133.119 529.593 133.442 529.429 C 138.966 526.642 144.15 526.491 148.991 528.265 C 153.817 530.058 158.338 533.97 161.703 539.795 C 168.053 550.845 164.278 564.934 153.255 571.324 C 131.755 583.735 104.617 575.295 87.9222 546.377 C 72.9342 520.418 81.8275 487.225 107.785 472.241 C 127.431 460.897 146.698 460.994 188.434 443.493 C 224.315 428.445 240.059 410.692 252.032 403.78 C 274.92 390.565 304.187 398.406 317.402 421.296 C 330.616 444.182 322.775 473.451 299.887 486.665 C 288.867 493.027 276.099 490.423 270.76 481.207 C 265.452 471.983 268.608 460.21 277.82 454.866 C 281.69 452.627 286.368 451.989 290.655 453.027 C 294.958 454.079 298.835 456.695 301.432 461.165 C 302.588 463.167 305.146 463.85 307.143 462.699 C 309.146 461.543 309.831 458.989 308.676 456.986 C 308.668 456.975 308.663 456.962 308.655 456.949 C 304.924 450.486 298.978 446.411 292.616 444.898 C 286.246 443.366 279.423 444.29 273.639 447.622 C 261.231 454.79 256.482 470.11 262.242 482.899 L 231.532 458.79 C 229.715 457.363 227.088 457.681 225.663 459.498 C 224.238 461.314 224.55 463.943 226.37 465.366 L 273.155 502.098 C 268.614 504.719 264.034 507.363 259.442 510.017 L 206.75 468.647 C 204.931 467.222 202.303 467.541 200.875 469.353 C 199.451 471.17 199.767 473.798 201.586 475.225 L 251.639 514.522 C 247.051 517.17 242.471 519.814 237.928 522.437 L 181.963 478.498 C 180.146 477.074 177.518 477.394 176.094 479.21 C 174.666 481.025 174.983 483.653 176.801 485.077 L 230.124 526.942 C 225.482 529.623 220.898 532.27 216.41 534.863 Z"
     style="fill:#000000;fill-opacity:1;fill-rule:nonzero;stroke:none"
     id="path66352" />
  <path
     d="M 441.175 465.928 C 440.167 469.983 438.595 473.969 436.406 477.767 C 434.211 481.567 431.546 484.917 428.539 487.816 C 474.483 514.343 592.533 582.498 625.208 601.362 C 657.141 619.8 668.118 644.165 672.182 661.092 L 713.058 637.493 L 713.06 590.292 C 696.369 595.234 669.776 597.912 637.844 579.477 C 605.169 560.613 487.119 492.455 441.175 465.928"
     style="fill:#000000;fill-opacity:1;fill-rule:nonzero;stroke:none"
     id="path66356" />
  <path
     d="M 621.975 560.654 C 619.8 553.641 620.066 545.889 623.162 538.793 L 606.611 551.787 C 612.115 554.963 617.278 557.943 621.975 560.654"
     style="fill:#000000;fill-opacity:1;fill-rule:nonzero;stroke:none"
     id="path66360" />
  <path
     d="M 636.526 488.358 C 638.339 486.931 640.969 487.249 642.394 489.066 C 643.821 490.882 643.502 493.509 641.687 494.937 L 585.097 539.366 C 589.814 542.087 594.402 544.735 598.809 547.282 L 661.309 498.215 C 663.122 496.787 665.751 497.106 667.178 498.923 C 668.603 500.738 668.29 503.369 666.471 504.793 L 648.549 518.863 C 653.643 518.377 658.979 519.363 664.054 521.975 C 664.491 522.199 664.93 522.434 665.375 522.689 C 669.755 525.227 673.73 529.019 676.25 533.915 C 678.777 538.793 679.706 544.871 677.874 551.183 C 677.315 553.15 676.55 554.951 675.614 556.574 C 675.267 557.172 674.897 557.748 674.498 558.306 C 673.149 560.178 670.537 560.608 668.663 559.259 C 666.789 557.915 666.358 555.3 667.707 553.429 C 667.935 553.109 668.159 552.765 668.374 552.391 C 668.953 551.391 669.455 550.218 669.837 548.885 C 671.043 544.595 670.446 540.983 668.81 537.733 C 667.165 534.506 664.331 531.735 661.193 529.934 C 660.895 529.759 660.585 529.593 660.261 529.429 C 654.738 526.642 649.553 526.489 644.714 528.265 C 639.886 530.055 635.365 533.97 631.998 539.795 C 625.65 550.845 629.426 564.931 640.449 571.324 C 661.949 583.735 689.086 575.295 705.782 546.374 C 720.77 520.418 711.875 487.225 685.919 472.241 C 666.273 460.897 647.005 460.994 605.269 443.493 C 569.389 428.445 553.645 410.692 541.672 403.777 C 518.784 390.565 489.517 398.406 476.301 421.296 C 463.088 444.182 470.929 473.449 493.818 486.663 C 504.837 493.027 517.605 490.421 522.942 481.207 C 528.25 471.983 525.096 460.207 515.884 454.866 C 512.013 452.627 507.336 451.986 503.048 453.027 C 498.746 454.077 494.868 456.693 492.272 461.165 C 491.113 463.167 488.558 463.85 486.561 462.699 C 484.558 461.543 483.873 458.986 485.029 456.983 C 485.034 456.973 485.041 456.962 485.049 456.949 C 488.78 450.486 494.726 446.411 501.088 444.898 C 507.457 443.366 514.281 444.29 520.065 447.622 C 532.472 454.787 537.222 470.11 531.462 482.899 L 562.172 458.787 C 563.986 457.363 566.614 457.681 568.041 459.497 C 569.466 461.311 569.153 463.941 567.336 465.366 L 520.548 502.098 C 525.089 504.718 529.669 507.363 534.262 510.014 L 586.954 468.647 C 588.773 467.219 591.399 467.541 592.827 469.353 C 594.253 471.17 593.937 473.798 592.117 475.225 L 542.065 514.519 C 546.654 517.167 551.232 519.814 555.776 522.437 L 611.741 478.498 C 613.557 477.074 616.185 477.394 617.609 479.21 C 619.037 481.025 618.721 483.653 616.902 485.077 L 563.58 526.942 C 568.222 529.623 572.805 532.27 577.294 534.861 Z"
     style="fill:#000000;fill-opacity:1;fill-rule:nonzero;stroke:none"
     id="path66364" />
  <path
     d="M 600.975 597.029 C 593.811 598.654 587.231 602.761 582.632 608.988 L 585.611 588.16 C 591.115 591.336 596.275 594.316 600.975 597.029"
     style="fill:#000000;fill-opacity:1;fill-rule:nonzero;stroke:none"
     id="path66368" />
  <path
     d="M 545.638 645.779 C 545.309 648.063 546.898 650.183 549.185 650.511 C 551.47 650.834 553.587 649.248 553.917 646.962 L 564.097 575.738 C 568.814 578.462 573.402 581.11 577.807 583.654 L 566.566 662.315 C 566.237 664.599 567.827 666.714 570.11 667.042 C 572.397 667.37 574.518 665.784 574.842 663.498 L 578.067 640.94 C 580.195 645.596 583.718 649.724 588.515 652.812 C 588.926 653.079 589.35 653.339 589.791 653.602 C 594.182 656.12 599.453 657.67 604.951 657.404 C 610.441 657.151 616.17 654.919 620.72 650.175 C 622.142 648.711 623.32 647.146 624.256 645.527 C 624.603 644.924 624.919 644.315 625.202 643.688 C 626.148 641.588 625.211 639.107 623.108 638.162 C 621.004 637.211 618.528 638.143 617.579 640.248 C 617.416 640.607 617.231 640.972 617.018 641.344 C 616.439 642.347 615.672 643.37 614.71 644.367 C 611.599 647.555 608.171 648.844 604.541 649.05 C 600.919 649.243 597.106 648.175 593.974 646.358 C 593.675 646.183 593.378 645.998 593.07 645.803 C 587.895 642.412 585.173 637.998 584.29 632.918 C 583.43 627.842 584.557 621.97 587.922 616.14 C 594.314 605.12 608.402 601.344 619.448 607.695 C 640.948 620.107 647.207 647.831 630.51 676.751 C 615.523 702.708 582.333 711.602 556.375 696.615 C 536.727 685.271 527.181 668.536 491.154 641.143 C 460.184 617.596 436.936 612.836 424.962 605.924 C 402.073 592.711 394.232 563.443 407.446 540.555 C 420.66 517.665 449.929 509.823 472.817 523.037 C 483.837 529.399 487.962 541.758 482.654 550.99 C 477.317 560.201 465.545 563.353 456.312 558.047 C 452.437 555.813 449.546 552.082 448.3 547.853 C 447.06 543.597 447.388 538.935 449.958 534.449 C 451.116 532.446 450.429 529.891 448.432 528.738 C 446.43 527.579 443.874 528.266 442.718 530.266 C 442.712 530.279 442.705 530.29 442.698 530.301 C 438.968 536.763 438.412 543.951 440.281 550.217 C 442.14 556.501 446.352 561.946 452.129 565.293 C 464.54 572.451 480.182 568.905 488.378 557.522 L 482.854 596.17 C 482.526 598.456 484.114 600.576 486.401 600.899 C 488.685 601.23 490.807 599.64 491.131 597.355 L 499.547 538.47 C 504.089 541.091 508.669 543.738 513.262 546.389 L 503.781 612.706 C 503.457 614.992 505.046 617.11 507.33 617.44 C 509.615 617.763 511.733 616.175 512.059 613.888 L 521.065 550.894 C 525.653 553.542 530.231 556.186 534.777 558.807 L 524.707 629.243 C 524.383 631.528 525.971 633.648 528.258 633.972 C 530.543 634.303 532.661 632.711 532.986 630.427 L 542.579 563.313 C 547.222 565.995 551.805 568.641 556.294 571.233 Z"
     style="fill:#000000;fill-opacity:1;fill-rule:nonzero;stroke:none"
     id="path66372" />
</svg>
