<?xml version="1.0" encoding="UTF-8" standalone="no"?>
<!-- Created with Inkscape (http://www.inkscape.org/) -->

<svg
   version="1.1"
   id="svg51341"
   width="795.03467"
   height="793.70135"
   viewBox="0 0 795.03467 793.70135"
   sodipodi:docname="Tou Uchiwa.svg"
   inkscape:version="1.2 (dc2aeda, 2022-05-15)"
   xmlns:inkscape="http://www.inkscape.org/namespaces/inkscape"
   xmlns:sodipodi="http://sodipodi.sourceforge.net/DTD/sodipodi-0.dtd"
   xmlns="http://www.w3.org/2000/svg"
   xmlns:svg="http://www.w3.org/2000/svg">
  <defs
     id="defs51345">
    <clipPath
       clipPathUnits="userSpaceOnUse"
       id="clipPath51886">
      <path
         d="M -531.1924,581.5885 H 65.083599 V -13.6875 H -531.1924 Z"
         id="path51888"
         style="stroke-width:0.999998" />
    </clipPath>
    <clipPath
       clipPathUnits="userSpaceOnUse"
       id="clipPath51892">
      <path
         d="M -540.8213,585.8483 H 55.454701 V -9.4277027 H -540.8213 Z"
         id="path51894"
         style="stroke-width:0.999998" />
    </clipPath>
    <clipPath
       clipPathUnits="userSpaceOnUse"
       id="clipPath51898">
      <path
         d="M -561.4131,585.8522 H 34.862903 V -9.4238027 H -561.4131 Z"
         id="path51900"
         style="stroke-width:0.999998" />
    </clipPath>
    <clipPath
       clipPathUnits="userSpaceOnUse"
       id="clipPath51904">
      <path
         d="M -564.5732,585.8483 H 31.702801 V -9.4277027 H -564.5732 Z"
         id="path51906"
         style="stroke-width:0.999998" />
    </clipPath>
    <clipPath
       clipPathUnits="userSpaceOnUse"
       id="clipPath51910">
      <path
         d="M -567.7754,585.8522 H 28.500601 V -9.4238027 H -567.7754 Z"
         id="path51912"
         style="stroke-width:0.999998" />
    </clipPath>
    <clipPath
       clipPathUnits="userSpaceOnUse"
       id="clipPath51917">
      <path
         d="M -572.8174,586.1354 H 23.458606 V -9.1406027 H -572.8174 Z"
         id="path51919"
         style="stroke-width:0.999998" />
    </clipPath>
    <clipPath
       clipPathUnits="userSpaceOnUse"
       id="clipPath51923">
      <path
         d="M -574.5459,585.8522 H 21.730103 V -9.4238027 H -574.5459 Z"
         id="path51925"
         style="stroke-width:0.999998" />
    </clipPath>
    <clipPath
       clipPathUnits="userSpaceOnUse"
       id="clipPath51929">
      <path
         d="M -576.3691,585.5885 H 19.906905 V -9.6875027 H -576.3691 Z"
         id="path51931"
         style="stroke-width:0.999998" />
    </clipPath>
    <clipPath
       clipPathUnits="userSpaceOnUse"
       id="clipPath51935">
      <path
         d="M -557.4951,577.8502 H 38.780903 V -17.4258 H -557.4951 Z"
         id="path51937"
         style="stroke-width:0.999998" />
    </clipPath>
    <clipPath
       clipPathUnits="userSpaceOnUse"
       id="clipPath51941">
      <path
         d="M -568.2266,575.819 H 28.049401 V -19.457003 H -568.2266 Z"
         id="path51943"
         style="stroke-width:0.999998" />
    </clipPath>
    <clipPath
       clipPathUnits="userSpaceOnUse"
       id="clipPath51947">
      <path
         d="M -550.2637,577.3248 H 46.012306 V -17.951198 H -550.2637 Z"
         id="path51949"
         style="stroke-width:0.999998" />
    </clipPath>
    <clipPath
       clipPathUnits="userSpaceOnUse"
       id="clipPath51954">
      <path
         d="M -556.4014,578.0143 H 39.874606 V -17.2617 H -556.4014 Z"
         id="path51956"
         style="stroke-width:0.999998" />
    </clipPath>
    <clipPath
       clipPathUnits="userSpaceOnUse"
       id="clipPath51960">
      <path
         d="M -586.5449,579.5026 H 9.7311002 V -15.7734 H -586.5449 Z"
         id="path51962"
         style="stroke-width:0.999998" />
    </clipPath>
    <clipPath
       clipPathUnits="userSpaceOnUse"
       id="clipPath51966">
      <path
         d="M -584.1943,578.9381 H 12.081705 V -16.337903 H -584.1943 Z"
         id="path51968"
         style="stroke-width:0.999998" />
    </clipPath>
    <clipPath
       clipPathUnits="userSpaceOnUse"
       id="clipPath51972">
      <path
         d="M -538.2217,577.9479 H 58.054299 V -17.328098 H -538.2217 Z"
         id="path51974"
         style="stroke-width:0.999998" />
    </clipPath>
    <clipPath
       clipPathUnits="userSpaceOnUse"
       id="clipPath51978">
      <path
         d="m -297.6377,24.4991 h 596.276 v -595.276 h -596.276 z"
         id="path51980"
         style="stroke-width:0.999998" />
    </clipPath>
    <clipPath
       clipPathUnits="userSpaceOnUse"
       id="clipPath51984">
      <path
         d="m -263.2266,229.339 h 596.276 v -595.276 h -596.276 z"
         id="path51986"
         style="stroke-width:0.999998" />
    </clipPath>
    <clipPath
       clipPathUnits="userSpaceOnUse"
       id="clipPath51990">
      <path
         d="m -222.5811,427.6315 h 596.276 v -595.276 h -596.276 z"
         id="path51992"
         style="stroke-width:0.999998" />
    </clipPath>
    <clipPath
       clipPathUnits="userSpaceOnUse"
       id="clipPath51997">
      <path
         d="m -372.6934,427.6315 h 596.276 v -595.276 h -596.276 z"
         id="path51999"
         style="stroke-width:0.999998" />
    </clipPath>
    <clipPath
       clipPathUnits="userSpaceOnUse"
       id="clipPath52003">
      <path
         d="M -536.6982,584.5729 H 59.577804 V -10.7031 H -536.6982 Z"
         id="path52005"
         style="stroke-width:0.999998" />
    </clipPath>
    <clipPath
       clipPathUnits="userSpaceOnUse"
       id="clipPath52009">
      <path
         d="M -528.0898,575.3815 H 68.186199 V -19.8945 H -528.0898 Z"
         id="path52011"
         style="stroke-width:0.999998" />
    </clipPath>
    <clipPath
       clipPathUnits="userSpaceOnUse"
       id="clipPath52015">
      <path
         d="M -553.8975,585.8483 H 42.378504 V -9.4277027 H -553.8975 Z"
         id="path52017"
         style="stroke-width:0.999998" />
    </clipPath>
    <clipPath
       clipPathUnits="userSpaceOnUse"
       id="clipPath52021">
      <path
         d="M -545.417,584.5729 H 50.859001 V -10.7031 H -545.417 Z"
         id="path52023"
         style="stroke-width:0.999998" />
    </clipPath>
    <clipPath
       clipPathUnits="userSpaceOnUse"
       id="clipPath52027">
      <path
         d="M -548.9834,585.8522 H 47.292601 V -9.4238027 H -548.9834 Z"
         id="path52029"
         style="stroke-width:0.999998" />
    </clipPath>
    <clipPath
       clipPathUnits="userSpaceOnUse"
       id="clipPath52033">
      <path
         d="M -557.0645,585.8483 H 39.211501 V -9.4277027 H -557.0645 Z"
         id="path52035"
         style="stroke-width:0.999998" />
    </clipPath>
    <clipPath
       clipPathUnits="userSpaceOnUse"
       id="clipPath52039">
      <path
         d="M -542.9326,584.5729 H 53.343399 V -10.7031 H -542.9326 Z"
         id="path52041"
         style="stroke-width:0.999998" />
    </clipPath>
  </defs>
  <sodipodi:namedview
     id="namedview51343"
     pagecolor="#ffffff"
     bordercolor="#000000"
     borderopacity="0.25"
     inkscape:showpageshadow="2"
     inkscape:pageopacity="0.0"
     inkscape:pagecheckerboard="0"
     inkscape:deskcolor="#d1d1d1"
     showgrid="false"
     inkscape:zoom="0.29734106"
     inkscape:cx="-215.24105"
     inkscape:cy="396.85068"
     inkscape:window-width="1419"
     inkscape:window-height="456"
     inkscape:window-x="0"
     inkscape:window-y="25"
     inkscape:window-maximized="0"
     inkscape:current-layer="svg51341">
    <inkscape:page
       x="0"
       y="0"
       id="page51347"
       width="795.03467"
       height="793.70135" />
  </sodipodi:namedview>
  <path
     d="M 396.85 32.6655 L 529.5 78.8481 C 445.397 144.032 434.063 171.365 434.063 288.033 L 434.063 761.038 L 359.634 761.038 L 359.634 288.033 C 359.634 171.365 348.301 144.032 264.197 78.8481 Z"
     style="fill:#000000;fill-opacity:1;fill-rule:nonzero;stroke:none"
     id="path51461" />
  <path
     d="M 350.969 305.785 L 287.434 280.197 C 288.765 280.266 290.104 280.314 291.452 280.314 C 317.261 280.312 339.553 265.304 350.101 243.54 C 350.734 256.725 350.973 271.436 350.969 288.034 Z"
     style="fill:#000000;fill-opacity:1;fill-rule:nonzero;stroke:none"
     id="path51465" />
  <path
     d="M 296.775 570.175 C 284.528 571.467 273.28 575.998 264.411 583.391 C 253.799 592.208 246.696 605.175 245.512 620.855 C 245.415 622.102 245.367 623.347 245.367 624.579 C 245.36 636.23 249.654 646.691 256.794 654.224 C 263.918 661.759 273.942 666.355 285.051 666.349 C 285.191 666.347 285.363 666.349 285.578 666.347 C 293.951 666.224 301.535 663.363 307.247 658.805 C 312.936 654.259 316.858 647.883 317.292 640.737 C 317.324 640.151 317.34 639.589 317.34 639.032 C 317.318 634.024 316.143 628.759 313.432 624.347 C 312.17 622.308 309.502 621.686 307.468 622.948 C 305.431 624.208 304.808 626.878 306.072 628.915 C 307.699 631.492 308.694 635.478 308.672 639.032 C 308.672 639.451 308.66 639.849 308.639 640.229 C 308.407 644.407 305.999 648.701 301.831 652.035 C 297.684 655.36 291.896 657.601 285.484 657.683 L 285.051 657.683 C 267.715 657.647 254.116 643.631 254.031 624.579 C 254.031 623.576 254.072 622.558 254.154 621.522 C 255.21 608.047 261.087 597.475 269.96 590.044 C 278.846 582.642 290.839 578.448 304.078 578.446 C 317.038 578.448 328.732 583.691 337.231 592.18 C 345.726 600.686 350.966 612.372 350.97 625.339 C 350.97 678.795 307.632 721.815 254.176 721.815 C 200.723 721.815 157.39 678.481 157.39 625.03 C 157.39 586.904 172.945 555.618 153.854 434.702 C 137.854 333.366 106.19 268.476 106.19 222.387 C 106.19 155.692 160.253 101.627 226.945 101.627 C 290.698 101.627 343.458 152.552 347.934 215.165 C 347.934 230.779 341.619 244.87 331.39 255.106 C 321.155 265.333 307.062 271.645 291.452 271.65 C 275.642 271.65 261.499 266.224 251.354 257.033 C 241.218 247.822 234.984 234.931 234.968 219.321 C 235.04 196.793 251.418 180.209 272.043 180.172 C 273.24 180.172 274.447 180.227 275.668 180.345 C 286.626 181.399 294.066 186.207 299.11 192.472 C 304.132 198.732 306.554 206.617 306.635 213.225 C 306.638 213.412 306.638 213.633 306.638 213.865 C 306.612 223.875 303.244 232.225 296.539 237.646 C 294.68 239.153 294.39 241.881 295.895 243.742 C 297.398 245.602 300.13 245.894 301.988 244.388 C 311.111 237.028 315.33 225.787 315.303 213.865 C 315.303 213.629 315.303 213.38 315.3 213.115 C 315.16 204.573 312.215 195.023 305.883 187.065 C 299.578 179.113 289.686 172.92 276.483 171.716 C 274.988 171.572 273.506 171.507 272.043 171.507 C 259.316 171.5 247.794 176.716 239.554 185.316 C 231.302 193.912 226.294 205.891 226.299 219.321 C 226.278 237.172 233.567 252.512 245.294 263.226 L 193.302 242.288 C 191.083 241.396 188.559 242.469 187.662 244.686 C 186.769 246.91 187.843 249.434 190.065 250.328 L 350.97 315.128 C 350.97 323.094 350.968 331.542 350.968 340.396 L 194.914 277.544 C 192.694 276.65 190.169 277.726 189.275 279.948 C 188.382 282.165 189.457 284.689 191.674 285.582 L 350.968 349.737 L 350.968 375.002 L 196.527 312.801 C 194.305 311.908 191.782 312.982 190.889 315.202 C 189.997 317.422 191.069 319.948 193.287 320.842 L 350.966 384.345 L 350.966 409.613 L 198.137 348.061 C 195.914 347.169 193.39 348.241 192.497 350.464 C 191.603 352.681 192.678 355.206 194.901 356.1 L 350.966 418.957 L 350.966 444.217 L 199.75 383.317 C 197.527 382.423 195.003 383.499 194.11 385.721 C 193.217 387.939 194.291 390.462 196.51 391.361 L 350.966 453.563 L 350.966 478.831 L 201.358 418.579 C 199.141 417.686 196.617 418.761 195.719 420.981 C 194.827 423.199 195.905 425.725 198.122 426.615 L 350.966 488.173 L 350.966 513.438 L 202.973 453.837 C 200.754 452.943 198.23 454.017 197.333 456.238 C 196.439 458.457 197.514 460.982 199.737 461.878 L 350.966 522.784 L 350.966 548.044 L 204.585 489.091 C 202.363 488.199 199.841 489.271 198.946 491.495 C 198.053 493.711 199.127 496.238 201.346 497.134 L 350.966 557.388 L 350.966 582.659 L 206.198 524.352 C 203.975 523.459 201.451 524.532 200.558 526.754 C 199.666 528.972 200.739 531.498 202.958 532.394 Z"
     style="fill:#000000;fill-opacity:1;fill-rule:nonzero;stroke:none"
     id="path51469" />
  <path
     d="m 442.73306,305.78534 63.53333,-25.588 c -1.33066,0.0693 -2.66933,0.11733 -4.01733,0.11733 -25.80933,-0.003 -48.1,-15.01066 -58.64933,-36.77466 -0.63334,13.18533 -0.87334,27.896 -0.86667,44.49466 z"
     style="fill:#000000;fill-opacity:1;fill-rule:nonzero;stroke:none;stroke-width:1.33333"
     id="path51473" />
  <path
     d="M 496.925 570.175 C 509.173 571.467 520.42 575.998 529.289 583.391 C 539.901 592.208 547.006 605.175 548.189 620.855 C 548.286 622.102 548.334 623.347 548.334 624.579 C 548.342 636.23 544.049 646.691 536.908 654.224 C 529.784 661.759 519.76 666.355 508.65 666.349 C 508.51 666.347 508.338 666.349 508.124 666.347 C 499.75 666.224 492.165 663.363 486.454 658.805 C 480.764 654.259 476.844 647.883 476.408 640.737 C 476.377 640.151 476.361 639.589 476.361 639.032 C 476.382 634.024 477.558 628.759 480.269 624.347 C 481.53 622.308 484.201 621.686 486.233 622.948 C 488.27 624.208 488.893 626.878 487.628 628.915 C 486.002 631.492 485.006 635.478 485.029 639.032 C 485.029 639.451 485.041 639.849 485.064 640.229 C 485.293 644.407 487.702 648.701 491.869 652.035 C 496.017 655.36 501.805 657.601 508.217 657.683 L 508.65 657.683 C 525.986 657.647 539.586 643.631 539.67 624.579 C 539.67 623.576 539.629 622.558 539.549 621.522 C 538.492 608.047 532.614 597.475 523.74 590.044 C 514.854 582.642 502.862 578.448 489.622 578.446 C 476.664 578.448 464.968 583.691 456.47 592.18 C 447.974 600.686 442.734 612.372 442.732 625.339 C 442.732 678.795 486.069 721.815 539.524 721.815 C 592.977 721.815 636.311 678.481 636.311 625.03 C 636.311 586.904 620.755 555.618 639.846 434.702 C 655.846 333.366 687.513 268.476 687.513 222.387 C 687.513 155.692 633.449 101.627 566.757 101.627 C 503.004 101.627 450.244 152.552 445.769 215.165 C 445.769 230.779 452.082 244.87 462.312 255.106 C 472.548 265.333 486.64 271.645 502.249 271.65 C 518.058 271.65 532.201 266.224 542.349 257.033 C 552.482 247.822 558.717 234.931 558.733 219.321 C 558.66 196.793 542.284 180.209 521.658 180.172 C 520.461 180.172 519.254 180.227 518.032 180.345 C 507.076 181.399 499.636 186.207 494.59 192.472 C 489.57 198.732 487.146 206.617 487.066 213.225 C 487.064 213.412 487.064 213.633 487.064 213.865 C 487.089 223.875 490.457 232.225 497.162 237.646 C 499.021 239.153 499.312 241.881 497.806 243.742 C 496.302 245.602 493.572 245.894 491.712 244.388 C 482.59 237.028 478.372 225.787 478.397 213.865 C 478.397 213.629 478.397 213.38 478.401 213.115 C 478.541 204.573 481.486 195.023 487.818 187.065 C 494.122 179.113 504.016 172.92 517.218 171.716 C 518.713 171.572 520.196 171.507 521.658 171.507 C 534.386 171.5 545.908 176.716 554.146 185.316 C 562.401 193.912 567.407 205.891 567.403 219.321 C 567.422 237.172 560.134 252.512 548.408 263.226 L 600.399 242.288 C 602.618 241.396 605.141 242.469 606.039 244.686 C 606.931 246.91 605.858 249.434 603.635 250.328 L 442.733 315.128 L 442.733 340.396 L 598.786 277.544 C 601.009 276.65 603.531 277.726 604.426 279.948 C 605.319 282.165 604.245 284.689 602.026 285.582 L 442.733 349.737 L 442.733 375.002 L 597.174 312.801 C 599.395 311.908 601.919 312.982 602.813 315.202 C 603.706 317.422 602.633 319.948 600.414 320.842 L 442.734 384.345 L 442.734 409.613 L 595.563 348.061 C 597.786 347.169 600.311 348.241 601.205 350.464 C 602.098 352.681 601.023 355.206 598.799 356.1 L 442.734 418.957 L 442.734 444.217 L 593.95 383.317 C 596.174 382.423 598.698 383.499 599.59 385.721 C 600.483 387.939 599.409 390.462 597.19 391.361 L 442.734 453.563 L 442.734 478.831 L 592.342 418.579 C 594.559 417.686 597.085 418.761 597.981 420.981 C 598.875 423.199 597.797 425.725 595.579 426.615 L 442.734 488.173 L 442.734 513.438 L 590.73 453.837 C 592.947 452.943 595.471 454.017 596.369 456.238 C 597.262 458.457 596.187 460.982 593.966 461.878 L 442.734 522.784 L 442.734 548.044 L 589.117 489.091 C 591.339 488.199 593.862 489.271 594.755 491.495 C 595.647 493.711 594.575 496.238 592.357 497.134 L 442.734 557.388 L 442.734 582.659 L 587.502 524.352 C 589.726 523.459 592.249 524.532 593.142 526.754 C 594.037 528.972 592.961 531.498 590.742 532.394 Z"
     style="fill:#000000;fill-opacity:1;fill-rule:nonzero;stroke:none"
     id="path51477" />
</svg>
