<?xml version="1.0" encoding="UTF-8" standalone="no"?>
<!-- Created with Inkscape (http://www.inkscape.org/) -->

<svg
   sodipodi:docname="Kai Igeta.svg"
   viewBox="0 0 795.03467 793.70135"
   height="793.70135"
   width="795.03467"
   id="svg2723"
   version="1.1"
   inkscape:version="1.2 (dc2aeda, 2022-05-15)"
   xmlns:inkscape="http://www.inkscape.org/namespaces/inkscape"
   xmlns:sodipodi="http://sodipodi.sourceforge.net/DTD/sodipodi-0.dtd"
   xmlns="http://www.w3.org/2000/svg"
   xmlns:svg="http://www.w3.org/2000/svg">
  <defs
     id="defs2727">
    <clipPath
       clipPathUnits="userSpaceOnUse"
       id="clipPath3156">
      <path
         d="M -538.2217,577.9479 H 58.054302 V -17.3281 H -538.2217 Z"
         id="path3158"
         style="stroke-width:0.999998" />
    </clipPath>
    <clipPath
       clipPathUnits="userSpaceOnUse"
       id="clipPath3160">
      <path
         d="M -584.1943,578.9381 H 12.081702 V -16.3379 H -584.1943 Z"
         id="path3162"
         style="stroke-width:0.999998" />
    </clipPath>
    <clipPath
       clipPathUnits="userSpaceOnUse"
       id="clipPath3164">
      <path
         d="M -586.5449,579.5026 H 9.7311024 V -15.7734 H -586.5449 Z"
         id="path3166"
         style="stroke-width:0.999998" />
    </clipPath>
    <clipPath
       clipPathUnits="userSpaceOnUse"
       id="clipPath3168">
      <path
         d="M -556.4014,578.0143 H 39.874602 V -17.2617 H -556.4014 Z"
         id="path3170"
         style="stroke-width:0.999998" />
    </clipPath>
    <clipPath
       clipPathUnits="userSpaceOnUse"
       id="clipPath3172">
      <path
         d="M -550.2637,577.3248 H 46.012302 V -17.9512 H -550.2637 Z"
         id="path3174"
         style="stroke-width:0.999998" />
    </clipPath>
    <clipPath
       clipPathUnits="userSpaceOnUse"
       id="clipPath3176">
      <path
         d="M -568.2266,575.819 H 28.049402 V -19.457 H -568.2266 Z"
         id="path3178"
         style="stroke-width:0.999998" />
    </clipPath>
    <clipPath
       clipPathUnits="userSpaceOnUse"
       id="clipPath3180">
      <path
         d="M -557.4951,577.8502 H 38.780902 V -17.4258 H -557.4951 Z"
         id="path3182"
         style="stroke-width:0.999998" />
    </clipPath>
    <clipPath
       clipPathUnits="userSpaceOnUse"
       id="clipPath3184">
      <path
         d="M -576.3691,585.5885 H 19.906902 V -9.6875 H -576.3691 Z"
         id="path3186"
         style="stroke-width:0.999998" />
    </clipPath>
    <clipPath
       clipPathUnits="userSpaceOnUse"
       id="clipPath3188">
      <path
         d="M -574.5459,585.8522 H 21.730102 V -9.4238 H -574.5459 Z"
         id="path3190"
         style="stroke-width:0.999998" />
    </clipPath>
    <clipPath
       clipPathUnits="userSpaceOnUse"
       id="clipPath3192">
      <path
         d="M -572.8174,586.1354 H 23.458602 V -9.1406 H -572.8174 Z"
         id="path3194"
         style="stroke-width:0.999998" />
    </clipPath>
    <clipPath
       clipPathUnits="userSpaceOnUse"
       id="clipPath3196">
      <path
         d="M -567.7754,585.8522 H 28.500602 V -9.4238 H -567.7754 Z"
         id="path3198"
         style="stroke-width:0.999998" />
    </clipPath>
    <clipPath
       clipPathUnits="userSpaceOnUse"
       id="clipPath3200">
      <path
         d="M -564.5732,585.8483 H 31.702802 V -9.4277 H -564.5732 Z"
         id="path3202"
         style="stroke-width:0.999998" />
    </clipPath>
    <clipPath
       clipPathUnits="userSpaceOnUse"
       id="clipPath3204">
      <path
         d="M -561.4131,585.8522 H 34.862902 V -9.4238 H -561.4131 Z"
         id="path3206"
         style="stroke-width:0.999998" />
    </clipPath>
    <clipPath
       clipPathUnits="userSpaceOnUse"
       id="clipPath3208">
      <path
         d="M -557.0645,585.8483 H 39.211502 V -9.4277 H -557.0645 Z"
         id="path3210"
         style="stroke-width:0.999998" />
    </clipPath>
    <clipPath
       clipPathUnits="userSpaceOnUse"
       id="clipPath3212">
      <path
         d="M -553.8975,585.8483 H 42.378502 V -9.4277 H -553.8975 Z"
         id="path3214"
         style="stroke-width:0.999998" />
    </clipPath>
    <clipPath
       clipPathUnits="userSpaceOnUse"
       id="clipPath3216">
      <path
         d="M -548.9834,585.8522 H 47.292602 V -9.4238 H -548.9834 Z"
         id="path3218"
         style="stroke-width:0.999998" />
    </clipPath>
    <clipPath
       clipPathUnits="userSpaceOnUse"
       id="clipPath3220">
      <path
         d="M -545.417,584.5729 H 50.859002 V -10.7031 H -545.417 Z"
         id="path3222"
         style="stroke-width:0.999998" />
    </clipPath>
    <clipPath
       clipPathUnits="userSpaceOnUse"
       id="clipPath3224">
      <path
         d="M -542.9326,584.5729 H 53.343402 V -10.7031 H -542.9326 Z"
         id="path3226"
         style="stroke-width:0.999998" />
    </clipPath>
    <clipPath
       clipPathUnits="userSpaceOnUse"
       id="clipPath3228">
      <path
         d="M -540.8213,585.8483 H 55.454702 V -9.4277 H -540.8213 Z"
         id="path3230"
         style="stroke-width:0.999998" />
    </clipPath>
    <clipPath
       clipPathUnits="userSpaceOnUse"
       id="clipPath3232">
      <path
         d="M -536.6982,584.5729 H 59.577802 V -10.7031 H -536.6982 Z"
         id="path3234"
         style="stroke-width:0.999998" />
    </clipPath>
    <clipPath
       clipPathUnits="userSpaceOnUse"
       id="clipPath3236">
      <path
         d="M -528.0898,575.3815 H 68.186202 V -19.8945 H -528.0898 Z"
         id="path3238"
         style="stroke-width:0.999998" />
    </clipPath>
    <clipPath
       clipPathUnits="userSpaceOnUse"
       id="clipPath3240">
      <path
         d="M -531.1924,581.5885 H 65.083602 V -13.6875 H -531.1924 Z"
         id="path3242"
         style="stroke-width:0.999998" />
    </clipPath>
    <clipPath
       clipPathUnits="userSpaceOnUse"
       id="clipPath3442">
      <path
         d="m -415.7588,330.2682 h 596.276 v -595.276 h -596.276 z"
         id="path3444"
         style="stroke-width:0.999998" />
    </clipPath>
    <clipPath
       clipPathUnits="userSpaceOnUse"
       id="clipPath3448">
      <path
         d="m -469.9297,257.0167 h 596.276 v -595.276 h -596.276 z"
         id="path3450"
         style="stroke-width:0.999998" />
    </clipPath>
    <clipPath
       clipPathUnits="userSpaceOnUse"
       id="clipPath3454">
      <path
         d="m -230.5928,400.8697 h 596.276 v -595.276 h -596.276 z"
         id="path3456"
         style="stroke-width:0.999998" />
    </clipPath>
    <clipPath
       clipPathUnits="userSpaceOnUse"
       id="clipPath3460">
      <path
         d="m -364.6826,194.4073 h 596.276 v -595.276 h -596.276 z"
         id="path3462"
         style="stroke-width:0.999998" />
    </clipPath>
    <clipPath
       clipPathUnits="userSpaceOnUse"
       id="clipPath3466">
      <path
         d="m -270.7314,151.9474 h 596.276 v -595.276 h -596.276 z"
         id="path3468"
         style="stroke-width:0.999998" />
    </clipPath>
    <clipPath
       clipPathUnits="userSpaceOnUse"
       id="clipPath3472">
      <path
         d="m -324.5439,443.3307 h 596.276 v -595.276 h -596.276 z"
         id="path3474"
         style="stroke-width:0.999998" />
    </clipPath>
    <clipPath
       clipPathUnits="userSpaceOnUse"
       id="clipPath3478">
      <path
         d="m -179.5166,265.0099 h 596.276 v -595.276 h -596.276 z"
         id="path3480"
         style="stroke-width:0.999998" />
    </clipPath>
    <clipPath
       clipPathUnits="userSpaceOnUse"
       id="clipPath3484">
      <path
         d="m -125.3457,338.2623 h 596.276 v -595.276 h -596.276 z"
         id="path3486"
         style="stroke-width:0.999998" />
    </clipPath>
  </defs>
  <sodipodi:namedview
     id="namedview2725"
     pagecolor="#ffffff"
     bordercolor="#000000"
     borderopacity="0.25"
     inkscape:showpageshadow="2"
     inkscape:pageopacity="0.0"
     inkscape:pagecheckerboard="0"
     inkscape:deskcolor="#d1d1d1"
     showgrid="false"
     inkscape:zoom="0.29734106"
     inkscape:cx="-215.24105"
     inkscape:cy="396.85068"
     inkscape:window-width="1419"
     inkscape:window-height="456"
     inkscape:window-x="0"
     inkscape:window-y="25"
     inkscape:window-maximized="0"
     inkscape:current-layer="svg2723">
    <inkscape:page
       x="0"
       y="0"
       id="page2729"
       width="795.03467"
       height="793.70135" />
  </sodipodi:namedview>
  <path
     d="M 167.128 451.016 C 213.951 494.667 270.986 520.81 330.045 529.606 L 480.21 668.253 L 456.713 693.701 L 468.134 704.247 L 525.676 641.925 L 514.255 631.377 L 490.761 656.827 L 340.598 518.18 C 328.953 467.899 304.514 420.159 267.593 380.236 C 265.069 380.442 262.542 380.627 260.016 380.774 Z"
     style="fill:#000000;fill-opacity:1;fill-rule:nonzero;stroke:none"
     id="path2843" />
  <path
     d="M 239.355 353.347 C 191.06 312.812 133.685 289.72 75.0714 283.606 C 84.6101 334.958 107.363 384.278 143.219 426.1 L 239.327 353.424 C 239.336 353.398 239.347 353.374 239.355 353.347"
     style="fill:#000000;fill-opacity:1;fill-rule:nonzero;stroke:none"
     id="path2847" />
  <path
     d="M 360.975 202.597 C 305.82 243.34 267.317 298.377 246.883 358.889 L 74.313 489.386 L 52.1971 460.142 L 39.0718 470.068 L 93.233 541.688 L 106.36 531.763 L 84.2437 502.519 L 256.814 372.019 C 321.664 368.789 386.164 346.062 440.977 302.715 C 443.8 300.483 446.563 298.205 449.292 295.898 C 447.755 290.702 446.319 285.482 445.053 280.226 Z"
     style="fill:#000000;fill-opacity:1;fill-rule:nonzero;stroke:none"
     id="path2851" />
  <path
     d="M 486.243 259.21 C 516.692 223.657 538.382 182.64 550.932 139.284 C 495.624 139.609 439.958 154.092 389.658 183.642 L 467.7 255.697 C 473.907 256.678 480.09 257.855 486.243 259.21"
     style="fill:#000000;fill-opacity:1;fill-rule:nonzero;stroke:none"
     id="path2855" />
  <path
     d="M 626.573 342.689 C 579.75 299.037 522.715 272.893 463.655 264.096 L 313.491 125.45 L 336.988 100.002 L 325.567 89.4576 L 268.023 151.78 L 279.446 162.325 L 302.94 136.878 L 453.104 275.523 C 464.748 325.804 489.187 373.544 526.109 413.466 C 528.633 413.261 531.159 413.077 533.685 412.93 Z"
     style="fill:#000000;fill-opacity:1;fill-rule:nonzero;stroke:none"
     id="path2859" />
  <path
     d="M 554.345 440.358 C 602.638 480.894 660.015 503.983 718.629 510.1 C 709.09 458.746 686.335 409.426 650.481 367.606 L 554.373 440.282 C 554.364 440.306 554.353 440.331 554.345 440.358"
     style="fill:#000000;fill-opacity:1;fill-rule:nonzero;stroke:none"
     id="path2863" />
  <path
     d="M 432.725 591.108 C 487.88 550.365 526.383 495.33 546.817 434.816 L 719.387 304.318 L 741.503 333.562 L 754.628 323.637 L 700.467 252.016 L 687.34 261.941 L 709.458 291.185 L 536.886 421.687 C 472.036 424.915 407.536 447.644 352.723 490.988 C 349.9 493.22 347.137 495.502 344.408 497.808 C 345.945 503.002 347.381 508.223 348.647 513.478 Z"
     style="fill:#000000;fill-opacity:1;fill-rule:nonzero;stroke:none"
     id="path2867" />
  <path
     d="M 307.457 534.493 C 277.008 570.048 255.317 611.063 242.768 654.419 C 298.076 654.094 353.742 639.613 404.042 610.061 L 326 538.006 C 319.793 537.026 313.61 535.85 307.457 534.493"
     style="fill:#000000;fill-opacity:1;fill-rule:nonzero;stroke:none"
     id="path2871" />
</svg>
