<?xml version="1.0" encoding="UTF-8" standalone="no"?>
<!-- Created with Inkscape (http://www.inkscape.org/) -->

<svg
   sodipodi:docname="Maruni Karatakegaki.svg"
   viewBox="0 0 793.70135 793.70135"
   height="793.70135"
   width="793.70135"
   id="svg975"
   version="1.1"
   inkscape:version="1.2 (dc2aeda, 2022-05-15)"
   xmlns:inkscape="http://www.inkscape.org/namespaces/inkscape"
   xmlns:sodipodi="http://sodipodi.sourceforge.net/DTD/sodipodi-0.dtd"
   xmlns="http://www.w3.org/2000/svg"
   xmlns:svg="http://www.w3.org/2000/svg">
  <defs
     id="defs979">
    <clipPath
       clipPathUnits="userSpaceOnUse"
       id="clipPath1718">
      <path
         d="m -460.5391,292.452 h 595.276 v -841.89 h -595.276 z"
         id="path1720"
         style="stroke-width:0.999998" />
    </clipPath>
    <clipPath
       clipPathUnits="userSpaceOnUse"
       id="clipPath1724">
      <path
         d="m -329.4434,292.4862 h 595.276 v -841.89 h -595.276 z"
         id="path1726"
         style="stroke-width:0.999998" />
    </clipPath>
    <clipPath
       clipPathUnits="userSpaceOnUse"
       id="clipPath1730">
      <path
         d="m -347.0254,309.0565 h 595.276 v -841.89 h -595.276 z"
         id="path1732"
         style="stroke-width:0.999998" />
    </clipPath>
    <clipPath
       clipPathUnits="userSpaceOnUse"
       id="clipPath1736">
      <path
         d="m -478.082,309.0087 h 595.276 v -841.89 h -595.276 z"
         id="path1738"
         style="stroke-width:0.999998" />
    </clipPath>
    <clipPath
       clipPathUnits="userSpaceOnUse"
       id="clipPath1742">
      <path
         d="m -215.8574,309.0785 h 595.276 v -841.89 h -595.276 z"
         id="path1744"
         style="stroke-width:0.999998" />
    </clipPath>
    <clipPath
       clipPathUnits="userSpaceOnUse"
       id="clipPath1748">
      <path
         d="m -198.3154,292.4842 h 595.276 v -841.89 h -595.276 z"
         id="path1750"
         style="stroke-width:0.999998" />
    </clipPath>
    <clipPath
       clipPathUnits="userSpaceOnUse"
       id="clipPath1754">
      <path
         d="m -297.1401,646.2201 h 595.276 v -841.89 h -595.276 z"
         id="path1756"
         style="stroke-width:0.999998" />
    </clipPath>
    <clipPath
       clipPathUnits="userSpaceOnUse"
       id="clipPath1760">
      <path
         d="m -182.4243,354.2142 h 595.276 v -841.89 h -595.276 z"
         id="path1762"
         style="stroke-width:0.999998" />
    </clipPath>
    <clipPath
       clipPathUnits="userSpaceOnUse"
       id="clipPath1766">
      <path
         d="m -247.9844,354.1254 h 595.276 v -841.89 h -595.276 z"
         id="path1768"
         style="stroke-width:0.999998" />
    </clipPath>
    <clipPath
       clipPathUnits="userSpaceOnUse"
       id="clipPath1772">
      <path
         d="m -313.5488,354.1254 h 595.276 v -841.89 h -595.276 z"
         id="path1774"
         style="stroke-width:0.999998" />
    </clipPath>
    <clipPath
       clipPathUnits="userSpaceOnUse"
       id="clipPath1778">
      <path
         d="m -110.8115,500.5892 h 595.276 v -841.89 h -595.276 z"
         id="path1780"
         style="stroke-width:0.999998" />
    </clipPath>
    <clipPath
       clipPathUnits="userSpaceOnUse"
       id="clipPath1784">
      <path
         d="m -379.1113,354.1254 h 595.276 v -841.89 h -595.276 z"
         id="path1786"
         style="stroke-width:0.999998" />
    </clipPath>
    <clipPath
       clipPathUnits="userSpaceOnUse"
       id="clipPath1795">
      <path
         d="m -141.7471,338.9584 h 595.276 v -841.89 h -595.276 z"
         id="path1797"
         style="stroke-width:0.999998" />
    </clipPath>
    <clipPath
       clipPathUnits="userSpaceOnUse"
       id="clipPath1802">
      <path
         d="m -445.0078,332.7523 h 595.276 v -841.89 h -595.276 z"
         id="path1804"
         style="stroke-width:0.999998" />
    </clipPath>
    <clipPath
       clipPathUnits="userSpaceOnUse"
       id="clipPath1808">
      <path
         d="m -263.9873,292.5462 h 595.276 v -841.89 h -595.276 z"
         id="path1810"
         style="stroke-width:0.999998" />
    </clipPath>
    <clipPath
       clipPathUnits="userSpaceOnUse"
       id="clipPath1814">
      <path
         d="m -395.0352,292.4881 h 595.276 v -841.89 h -595.276 z"
         id="path1816"
         style="stroke-width:0.999998" />
    </clipPath>
    <clipPath
       clipPathUnits="userSpaceOnUse"
       id="clipPath1820">
      <path
         d="m -124.1929,301.055 h 595.276 v -841.89 h -595.276 z"
         id="path1822"
         style="stroke-width:0.999998" />
    </clipPath>
    <clipPath
       clipPathUnits="userSpaceOnUse"
       id="clipPath1826">
      <path
         d="m -141.7593,317.2684 h 595.276 v -841.89 h -595.276 z"
         id="path1828"
         style="stroke-width:0.999998" />
    </clipPath>
    <clipPath
       clipPathUnits="userSpaceOnUse"
       id="clipPath1832">
      <path
         d="m -116.8208,354.2201 h 595.276 v -841.89 h -595.276 z"
         id="path1834"
         style="stroke-width:0.999998" />
    </clipPath>
  </defs>
  <sodipodi:namedview
     id="namedview977"
     pagecolor="#ffffff"
     bordercolor="#000000"
     borderopacity="0.25"
     inkscape:showpageshadow="2"
     inkscape:pageopacity="0.0"
     inkscape:pagecheckerboard="0"
     inkscape:deskcolor="#d1d1d1"
     showgrid="false"
     inkscape:zoom="0.21024124"
     inkscape:cx="-549.36891"
     inkscape:cy="494.66984"
     inkscape:window-width="1419"
     inkscape:window-height="456"
     inkscape:window-x="0"
     inkscape:window-y="25"
     inkscape:window-maximized="0"
     inkscape:current-layer="svg975">
    <inkscape:page
       x="0"
       y="0"
       id="page981"
       width="793.70135"
       height="793.70135" />
  </sodipodi:namedview>
  <path
     d="m 396.187,697.627 c -166.258,0 -301.0326,-134.774 -301.0326,-301.033 0,-166.255 134.7746,-301.032 301.0326,-301.032 166.253,0 301.034,134.777 301.034,301.032 0,166.259 -134.781,301.033 -301.034,301.033 m 0,-666.377 c -201.775,0 -365.3498,163.572 -365.3498,365.344 0,201.776 163.5748,365.345 365.3498,365.345 201.771,0 365.343,-163.569 365.343,-365.345 C 761.53,194.822 597.958,31.25 396.187,31.25"
     style="fill:#231f20;fill-opacity:1;fill-rule:nonzero;stroke:none"
     id="path995" />
  <path
     d="m 284.58266,537.53201 h 15.32933 v -10.94667 h -15.32933 z"
     style="fill:#231f20;fill-opacity:1;fill-rule:nonzero;stroke:none;stroke-width:1.33333"
     id="path997" />
  <path
     d="m 155.761,308.293 0.123,229.366 15.329,-0.009 h -0.011 l -0.117,-229.365 z"
     style="fill:#231f20;fill-opacity:1;fill-rule:nonzero;stroke:none"
     id="path1001" />
  <path
     d="m 372.00532,537.53201 h 15.324 v -10.94667 h -15.324 z"
     style="fill:#231f20;fill-opacity:1;fill-rule:nonzero;stroke:none;stroke-width:1.33333"
     id="path1003" />
  <path
     d="m 243.232,308.286 v 229.363 h 15.335 -0.01 V 308.286 Z"
     style="fill:#231f20;fill-opacity:1;fill-rule:nonzero;stroke:none"
     id="path1007" />
  <path
     d="m 459.42932,537.53201 h 15.32 v -10.94667 h -15.32 z"
     style="fill:#231f20;fill-opacity:1;fill-rule:nonzero;stroke:none;stroke-width:1.33333"
     id="path1009" />
  <path
     d="M 330.646,308.167 V 537.53 h 15.329 -0.01 V 308.167 Z"
     style="fill:#231f20;fill-opacity:1;fill-rule:nonzero;stroke:none"
     id="path1013" />
  <path
     d="m 546.84932,537.53201 h 15.32267 v -10.94667 h -15.32267 z"
     style="fill:#231f20;fill-opacity:1;fill-rule:nonzero;stroke:none;stroke-width:1.33333"
     id="path1015" />
  <path
     d="M 418.065,308.167 V 537.53 h 15.333 -0.01 V 308.167 Z"
     style="fill:#231f20;fill-opacity:1;fill-rule:nonzero;stroke:none"
     id="path1019" />
  <path
     d="m 634.26532,537.53201 h 15.33066 v -10.94667 h -15.33066 z"
     style="fill:#231f20;fill-opacity:1;fill-rule:nonzero;stroke:none;stroke-width:1.33333"
     id="path1021" />
  <path
     d="M 505.482,308.167 V 537.53 h 15.341 -0.01 V 308.167 Z"
     style="fill:#231f20;fill-opacity:1;fill-rule:nonzero;stroke:none"
     id="path1025" />
  <path
     d="m 147.749,503.452 h -24.277 c 1.592,4.051 3.265,8.071 5.024,12.031 h 19.253 z m 31.728,12.036 55.668,0.011 v -12.047 h -55.668 z m 87.397,0.011 55.588,0.006 v -12.053 h -55.588 z m 87.321,0.012 55.76,0.01 v -12.069 h -55.76 z m 262.379,0.03 47.251,0.011 c 1.768,-3.964 3.452,-8.044 5.044,-12.1 h -52.295 z m -87.494,-0.005 55.765,0.005 V 503.452 H 529.08 Z m -87.396,-0.015 55.675,0.011 v -12.08 h -55.675 z"
     style="fill:#231f20;fill-opacity:1;fill-rule:nonzero;stroke:none"
     id="path1029" />
  <path
     d="m 395.53452,300.00308 55.684,0.005 v -12.064 h -55.684 z"
     style="fill:#231f20;fill-opacity:1;fill-rule:nonzero;stroke:none;stroke-width:1.33333"
     id="path1033" />
  <path
     d="m 483.07545,300.00828 55.64267,0.005 v -12.06933 h -55.64267 z"
     style="fill:#231f20;fill-opacity:1;fill-rule:nonzero;stroke:none;stroke-width:1.33333"
     id="path1037" />
  <path
     d="m 570.39319,300.01615 55.664,0.005 v -12.07733 h -55.664 z"
     style="fill:#231f20;fill-opacity:1;fill-rule:nonzero;stroke:none;stroke-width:1.33333"
     id="path1041" />
  <path
     d="m 657.79945,300.02135 h 14.96133 c -1.43333,-4.088 -2.992,-8.07333 -4.59733,-12.07733 h -10.364 z"
     style="fill:#231f20;fill-opacity:1;fill-rule:nonzero;stroke:none;stroke-width:1.33333"
     id="path1045" />
  <path
     d="m 308.15359,299.99788 55.64133,0.003 v -12.056 h -55.64133 z"
     style="fill:#231f20;fill-opacity:1;fill-rule:nonzero;stroke:none;stroke-width:1.33333"
     id="path1049" />
  <path
     d="m 220.64973,299.99002 55.716,0.005 v -12.05066 h -55.716 z"
     style="fill:#231f20;fill-opacity:1;fill-rule:nonzero;stroke:none;stroke-width:1.33333"
     id="path1053" />
  <path
     d="m 188.996,287.945 h -64.813 c -1.594,3.984 -3.149,7.971 -4.571,12.036 l 69.384,0.007 z"
     style="fill:#231f20;fill-opacity:1;fill-rule:nonzero;stroke:none"
     id="path1057" />
  <path
     d="m 593.344,279.67 c 2.855,-24.491 18.057,-45.392 39.112,-56.093 3.063,4.172 6.013,8.432 8.857,12.769 -0.034,0.019 0.042,-0.019 0,0 -16.977,7.892 -29.586,24.123 -32.49,43.316 z m 14.849,28.388 0.118,229.362 h 0.012 l -15.331,0.009 -0.121,-229.363 z m -395.629,218.527 0.01,11.043 -15.329,0.011 -0.011,-11.054 z"
     style="fill:#231f20;fill-opacity:1;fill-rule:nonzero;stroke:none"
     id="path1061" />
  <path
     d="m 351.983,226.062 c -10.749,-6.376 -23.3,-10.037 -36.704,-10.037 -36.989,0 -67.461,27.866 -71.586,63.746 h 15.468 c 4.057,-27.378 27.613,-48.372 56.118,-48.422 9.08,0.016 17.649,2.158 25.255,5.96 3.4,-4.156 7.296,-7.847 11.449,-11.247 m 23.263,22.04 c -4.342,2.991 -8.104,6.671 -11.268,10.88 5.077,8.493 8.006,18.469 8.028,29.091 v 207.04 h 15.324 v -207.04 c -0.006,-14.752 -4.479,-28.551 -12.084,-39.971"
     style="fill:#231f20;fill-opacity:1;fill-rule:nonzero;stroke:none"
     id="path1065" />
  <path
     d="m 526.714,225.984 c -10.727,-6.339 -23.224,-9.96 -36.591,-9.96 -36.99,0 -67.461,27.864 -71.583,63.747 h 15.469 c 4.052,-27.376 27.614,-48.372 56.114,-48.423 9.07,0.016 17.648,2.163 25.25,5.949 3.388,-4.142 7.202,-7.918 11.341,-11.313 m 23.357,22.117 c -4.329,2.983 -8.136,6.666 -11.294,10.862 5.106,8.504 8.057,18.465 8.073,29.109 v 207.041 h 15.323 V 288.072 c 0,-14.789 -4.459,-28.532 -12.102,-39.971"
     style="fill:#231f20;fill-opacity:1;fill-rule:nonzero;stroke:none"
     id="path1069" />
  <path
     d="m 165.591,237.407 c 3.367,-4.145 7.125,-7.969 11.247,-11.367 -4.384,-2.578 -9.067,-4.705 -13.984,-6.32 -3.292,4.335 -6.526,8.736 -9.578,13.262 4.319,1.005 8.439,2.501 12.315,4.425"
     style="fill:#231f20;fill-opacity:1;fill-rule:nonzero;stroke:none"
     id="path1073" />
  <path
     d="m 189.012,259.025 c 3.132,-4.177 6.939,-7.839 11.235,-10.821 7.75,11.486 12.177,25.076 12.192,39.965 l 0.113,207.041 -15.331,0.01 -0.106,-207.043 c -0.027,-10.665 -2.983,-20.64 -8.103,-29.152"
     style="fill:#231f20;fill-opacity:1;fill-rule:nonzero;stroke:none"
     id="path1077" />
  <path
     d="m 264.421,225.979 c -10.723,-6.323 -23.22,-9.955 -36.56,-9.955 -36.988,0 -67.465,27.864 -71.592,63.747 h 15.468 c 4.063,-27.379 27.613,-48.372 56.124,-48.423 9.081,0.016 17.66,2.159 25.271,5.96 3.389,-4.148 7.141,-7.936 11.289,-11.329"
     style="fill:#231f20;fill-opacity:1;fill-rule:nonzero;stroke:none"
     id="path1081" />
  <path
     d="m 287.81,248.105 c -4.329,2.993 -8.129,6.663 -11.288,10.869 5.099,8.504 8.037,18.456 8.06,29.099 v 207.041 h 15.329 V 288.073 c -0.01,-14.787 -4.462,-28.532 -12.101,-39.968"
     style="fill:#231f20;fill-opacity:1;fill-rule:nonzero;stroke:none"
     id="path1085" />
  <path
     d="m 462.701,248.075 c -4.377,3.012 -8.136,6.724 -11.32,10.971 5.093,8.498 8.028,18.394 8.049,29.026 v 207.041 h 15.32 V 288.072 c 0,-14.786 -4.41,-28.561 -12.049,-39.997"
     style="fill:#231f20;fill-opacity:1;fill-rule:nonzero;stroke:none"
     id="path1089" />
  <path
     d="m 439.258,225.982 c -10.721,-6.325 -23.208,-9.957 -36.56,-9.957 -36.988,0 -67.456,27.864 -71.581,63.746 h 15.468 c 4.063,-27.373 27.613,-48.372 56.113,-48.422 9.065,0.016 17.623,2.148 25.219,5.93 3.409,-4.193 7.161,-7.868 11.341,-11.297"
     style="fill:#231f20;fill-opacity:1;fill-rule:nonzero;stroke:none"
     id="path1093" />
  <path
     d="m 637.443,248.012 c -4.309,3.004 -8.115,6.697 -11.268,10.92 5.12,8.515 8.075,18.477 8.091,29.141 v 207.041 h 15.33 V 288.073 c -0.005,-14.83 -4.478,-28.606 -12.153,-40.061"
     style="fill:#231f20;fill-opacity:1;fill-rule:nonzero;stroke:none"
     id="path1097" />
  <path
     d="m 614.052,225.936 c -10.7,-6.299 -23.188,-9.912 -36.508,-9.912 -36.986,0 -67.464,27.864 -71.585,63.747 h 15.468 c 4.057,-27.379 27.612,-48.372 56.117,-48.423 9.039,0.016 17.576,2.245 25.153,6.008 3.412,-4.199 7.191,-7.988 11.355,-11.42"
     style="fill:#231f20;fill-opacity:1;fill-rule:nonzero;stroke:none"
     id="path1101" />
</svg>
