<?xml version="1.0" encoding="UTF-8" standalone="no"?>
<!-- Created with Inkscape (http://www.inkscape.org/) -->

<svg
   version="1.1"
   id="svg2104"
   width="793.70135"
   height="793.70135"
   viewBox="0 0 793.70135 793.70135"
   sodipodi:docname="Tamagaki.svg"
   inkscape:version="1.2 (dc2aeda, 2022-05-15)"
   xmlns:inkscape="http://www.inkscape.org/namespaces/inkscape"
   xmlns:sodipodi="http://sodipodi.sourceforge.net/DTD/sodipodi-0.dtd"
   xmlns="http://www.w3.org/2000/svg"
   xmlns:svg="http://www.w3.org/2000/svg">
  <defs
     id="defs2108" />
  <sodipodi:namedview
     id="namedview2106"
     pagecolor="#ffffff"
     bordercolor="#000000"
     borderopacity="0.25"
     inkscape:showpageshadow="2"
     inkscape:pageopacity="0.0"
     inkscape:pagecheckerboard="0"
     inkscape:deskcolor="#d1d1d1"
     showgrid="false"
     inkscape:zoom="0.21024124"
     inkscape:cx="-596.93331"
     inkscape:cy="485.15696"
     inkscape:window-width="1419"
     inkscape:window-height="456"
     inkscape:window-x="52"
     inkscape:window-y="81"
     inkscape:window-maximized="0"
     inkscape:current-layer="svg2104">
    <inkscape:page
       x="0"
       y="0"
       id="page2110"
       width="793.70135"
       height="793.70135" />
  </sodipodi:namedview>
  <path
     d="m 83.6195,474.62 h 44.8335 v 90.705 H 83.6195 v 63.841 H 179.563 V 212.083 l -47.977,-32.059 -47.9665,32.059 v 36.23 h 44.8335 v 90.71 H 83.6195 Z"
     style="fill:#231f20;fill-opacity:1;fill-rule:nonzero;stroke:none"
     id="path2116" />
  <path
     d="m 214.744,474.62 h 44.833 v 90.705 h -44.833 v 63.841 h 95.943 V 212.083 l -47.976,-32.059 -47.967,32.059 v 36.23 h 44.833 v 90.71 h -44.833 z"
     style="fill:#231f20;fill-opacity:1;fill-rule:nonzero;stroke:none"
     id="path2120" />
  <path
     d="m 345.879,474.62 h 44.823 v 90.705 h -44.823 v 63.841 h 95.932 V 212.083 l -47.965,-32.059 -47.967,32.059 v 36.23 h 44.823 v 90.71 h -44.823 z"
     style="fill:#231f20;fill-opacity:1;fill-rule:nonzero;stroke:none"
     id="path2124" />
  <path
     d="m 477.004,474.62 h 44.833 v 90.705 h -44.833 v 63.841 h 95.932 V 212.083 l -47.976,-32.059 -47.956,32.059 v 36.23 h 44.833 v 90.71 h -44.833 z"
     style="fill:#231f20;fill-opacity:1;fill-rule:nonzero;stroke:none"
     id="path2128" />
  <path
     d="M 572.936,629.167 V 212.084"
     style="fill:#231f20;fill-opacity:1;fill-rule:nonzero;stroke:none"
     id="path2132" />
  <path
     d="m 582.751,329.607 h 60.067 v -71.872 h -60.067 z"
     style="fill:#231f20;fill-opacity:1;fill-rule:nonzero;stroke:none"
     id="path2134" />
  <path
     d="m 582.751,555.908 h 60.067 v -71.864 h -60.067 z"
     style="fill:#231f20;fill-opacity:1;fill-rule:nonzero;stroke:none"
     id="path2136" />
  <path
     d="M 58.2412,329.607 H 118.309 V 257.735 H 58.2412 Z"
     style="fill:#231f20;fill-opacity:1;fill-rule:nonzero;stroke:none"
     id="path2138" />
  <path
     d="M 58.2412,555.908 H 118.309 V 484.044 H 58.2412 Z"
     style="fill:#231f20;fill-opacity:1;fill-rule:nonzero;stroke:none"
     id="path2140" />
  <path
     d="m 189.365,329.607 h 60.068 v -71.872 h -60.068 z"
     style="fill:#231f20;fill-opacity:1;fill-rule:nonzero;stroke:none"
     id="path2142" />
  <path
     d="m 189.365,555.908 h 60.068 v -71.864 h -60.068 z"
     style="fill:#231f20;fill-opacity:1;fill-rule:nonzero;stroke:none"
     id="path2144" />
  <path
     d="m 320.49,329.607 h 60.078 V 257.735 H 320.49 Z"
     style="fill:#231f20;fill-opacity:1;fill-rule:nonzero;stroke:none"
     id="path2146" />
  <path
     d="m 320.49,555.908 h 60.078 V 484.044 H 320.49 Z"
     style="fill:#231f20;fill-opacity:1;fill-rule:nonzero;stroke:none"
     id="path2148" />
  <path
     d="m 451.616,329.607 h 60.068 v -71.872 h -60.068 z"
     style="fill:#231f20;fill-opacity:1;fill-rule:nonzero;stroke:none"
     id="path2150" />
  <path
     d="m 451.616,555.908 h 60.068 v -71.864 h -60.068 z"
     style="fill:#231f20;fill-opacity:1;fill-rule:nonzero;stroke:none"
     id="path2152" />
  <path
     d="m 608.129,474.62 h 44.833 v 90.705 h -44.833 v 63.841 h 95.932 V 212.083 l -47.966,-32.059 -47.966,32.059 v 36.23 h 44.833 v 90.71 h -44.833 z"
     style="fill:#231f20;fill-opacity:1;fill-rule:nonzero;stroke:none"
     id="path2156" />
  <path
     d="M 704.061,629.167 V 212.084"
     style="fill:#231f20;fill-opacity:1;fill-rule:nonzero;stroke:none"
     id="path2160" />
  <path
     d="m 713.876,329.607 h 20.247 v -71.872 h -20.247 z"
     style="fill:#231f20;fill-opacity:1;fill-rule:nonzero;stroke:none"
     id="path2162" />
  <path
     d="m 713.876,555.908 h 20.247 v -71.864 h -20.247 z"
     style="fill:#231f20;fill-opacity:1;fill-rule:nonzero;stroke:none"
     id="path2164" />
</svg>
