<?xml version="1.0" encoding="UTF-8" standalone="no"?>
<!-- Created with Inkscape (http://www.inkscape.org/) -->

<svg
   version="1.1"
   id="svg3830"
   width="793.70135"
   height="793.70099"
   viewBox="0 0 793.70135 793.70097"
   sodipodi:docname="Itowani Inyoukasane Jigami.svg"
   inkscape:version="1.2 (dc2aeda, 2022-05-15)"
   xmlns:inkscape="http://www.inkscape.org/namespaces/inkscape"
   xmlns:sodipodi="http://sodipodi.sourceforge.net/DTD/sodipodi-0.dtd"
   xmlns="http://www.w3.org/2000/svg"
   xmlns:svg="http://www.w3.org/2000/svg">
  <defs
     id="defs3834">
    <clipPath
       clipPathUnits="userSpaceOnUse"
       id="clipPath4013">
      <path
         d="m -473.9199,447.0638 h 595.276 v -841.89 h -595.276 z"
         id="path4015"
         style="stroke-width:0.999998" />
    </clipPath>
    <clipPath
       clipPathUnits="userSpaceOnUse"
       id="clipPath4019">
      <path
         d="M -515.9717,406.9603 H 79.304297 v -841.89 H -515.9717 Z"
         id="path4021"
         style="stroke-width:0.999998" />
    </clipPath>
    <clipPath
       clipPathUnits="userSpaceOnUse"
       id="clipPath4025">
      <path
         d="m -123.0376,246.3397 h 595.276 v -841.89 h -595.276 z"
         id="path4027"
         style="stroke-width:0.999998" />
    </clipPath>
  </defs>
  <sodipodi:namedview
     id="namedview3832"
     pagecolor="#ffffff"
     bordercolor="#000000"
     borderopacity="0.25"
     inkscape:showpageshadow="2"
     inkscape:pageopacity="0.0"
     inkscape:pagecheckerboard="0"
     inkscape:deskcolor="#d1d1d1"
     showgrid="false"
     inkscape:zoom="0.21024124"
     inkscape:cx="-470.88764"
     inkscape:cy="561.26002"
     inkscape:window-width="1419"
     inkscape:window-height="456"
     inkscape:window-x="0"
     inkscape:window-y="25"
     inkscape:window-maximized="0"
     inkscape:current-layer="svg3830">
    <inkscape:page
       x="0"
       y="0"
       id="page3836"
       width="793.70135"
       height="793.70099" />
  </sodipodi:namedview>
  <path
     d="M 687.962,382.614 C 641.37,265.132 528.317,182.223 396.209,182.199 264.102,182.223 151.01,265.108 104.411,382.606 l -3.452,8.691 7.984,4.686 175.329,103.043 5.292,-9.326 c 21.322,-37.478 61.056,-62.682 106.645,-62.667 45.582,-0.015 85.318,25.189 106.649,62.678 l 5.292,9.328 183.265,-107.726 z"
     style="fill:#231f20;fill-opacity:1;fill-rule:nonzero;stroke:none"
     id="path3850" />
  <path
     d="m 631.893,436.085 20.899,-12.259 c 14.078,20.188 25.94,42.143 35.17,65.42 l 3.454,8.7 -183.267,107.723 -5.29,-9.33 c -21.332,-37.486 -61.068,-62.69 -106.651,-62.672 -45.588,-0.018 -85.322,25.186 -106.643,62.666 l -5.292,9.326 -175.329,-103.042 -7.986,-4.689 3.454,-8.692 c 9.246,-23.304 21.096,-45.246 35.197,-65.45 l 20.893,12.266 c -11.374,16.03 -21.22,33.261 -29.29,51.488 l 144.823,85.106 c 26.592,-38.319 70.529,-63.373 120.173,-63.373 49.645,0.009 93.581,25.064 120.184,63.381 l 144.765,-85.097 c -8.067,-18.205 -17.896,-35.449 -29.264,-51.472"
     style="fill:#231f20;fill-opacity:1;fill-rule:nonzero;stroke:none"
     id="path3854" />
  <path
     d="m 164.05,168.453 c -59.459,59.499 -96.1464,141.392 -96.1571,232.135 0.0107,90.755 36.6981,172.637 96.1571,232.139 59.501,59.447 141.389,96.134 232.147,96.134 90.738,0 172.633,-36.687 232.129,-96.134 59.459,-59.502 96.141,-141.384 96.152,-232.139 C 724.467,309.845 687.785,227.952 628.326,168.453 568.83,109 486.935,72.315 396.197,72.304 305.439,72.315 223.551,109 164.05,168.453 M 43.985,400.588 C 44.0063,206.064 201.663,48.417 396.197,48.396 590.704,48.417 748.361,206.064 748.382,400.588 748.361,595.113 590.704,752.77 396.197,752.79 201.663,752.77 44.0063,595.113 43.985,400.588"
     style="fill:#231f20;fill-opacity:1;fill-rule:nonzero;stroke:none"
     id="path3858" />
</svg>
