<?xml version="1.0" encoding="UTF-8" standalone="no"?>
<!-- Created with Inkscape (http://www.inkscape.org/) -->

<svg
   version="1.1"
   id="svg2520"
   width="793.70135"
   height="793.70099"
   viewBox="0 0 793.70135 793.70097"
   sodipodi:docname="Jigamini Sankaibishi.svg"
   inkscape:version="1.2 (dc2aeda, 2022-05-15)"
   xmlns:inkscape="http://www.inkscape.org/namespaces/inkscape"
   xmlns:sodipodi="http://sodipodi.sourceforge.net/DTD/sodipodi-0.dtd"
   xmlns="http://www.w3.org/2000/svg"
   xmlns:svg="http://www.w3.org/2000/svg">
  <defs
     id="defs2524">
    <clipPath
       clipPathUnits="userSpaceOnUse"
       id="clipPath2675">
      <path
         d="m -298.3203,495.5541 h 595.276 v -841.89 h -595.276 z"
         id="path2677"
         style="stroke-width:0.999998" />
    </clipPath>
  </defs>
  <sodipodi:namedview
     id="namedview2522"
     pagecolor="#ffffff"
     bordercolor="#000000"
     borderopacity="0.25"
     inkscape:showpageshadow="2"
     inkscape:pageopacity="0.0"
     inkscape:pagecheckerboard="0"
     inkscape:deskcolor="#d1d1d1"
     showgrid="false"
     inkscape:zoom="0.21024124"
     inkscape:cx="-470.88764"
     inkscape:cy="561.26002"
     inkscape:window-width="1419"
     inkscape:window-height="456"
     inkscape:window-x="0"
     inkscape:window-y="25"
     inkscape:window-maximized="0"
     inkscape:current-layer="svg2520">
    <inkscape:page
       x="0"
       y="0"
       id="page2526"
       width="793.70135"
       height="793.70099" />
  </sodipodi:namedview>
  <path
     d="m 397.76,504.739 -162.837,-96.322 72.425,-42.847 -49.569,-29.323 74.786,-44.241 -33.334,-19.717 96.006,-56.791 97.9,57.914 -33.717,19.958 75.168,44.481 -49.779,29.462 72.635,42.974 z M 756.299,458.05 C 698.787,308.517 559.261,202.99 396.211,202.958 233.16,202.99 93.5848,308.486 36.0769,458.04 l -4.2653,11.054 9.852,5.976 216.3944,131.15 6.536,-11.871 c 26.313,-47.698 75.354,-79.774 131.617,-79.763 56.261,-0.011 105.301,32.065 131.626,79.774 l 6.537,11.871 226.181,-137.111 z"
     style="fill:#231f20;fill-opacity:1;fill-rule:nonzero;stroke:none"
     id="path2540" />
</svg>
