<?xml version="1.0" encoding="UTF-8" standalone="no"?>
<!-- Created with Inkscape (http://www.inkscape.org/) -->

<svg
   version="1.1"
   id="svg170"
   width="793.70135"
   height="793.70099"
   viewBox="0 0 793.70135 793.70097"
   sodipodi:docname="Mitsujigamini Kuyou.svg"
   inkscape:version="1.2 (dc2aeda, 2022-05-15)"
   xmlns:inkscape="http://www.inkscape.org/namespaces/inkscape"
   xmlns:sodipodi="http://sodipodi.sourceforge.net/DTD/sodipodi-0.dtd"
   xmlns="http://www.w3.org/2000/svg"
   xmlns:svg="http://www.w3.org/2000/svg">
  <defs
     id="defs174">
    <clipPath
       clipPathUnits="userSpaceOnUse"
       id="clipPath429">
      <path
         d="m -255.751,558.516 h 595.276 v -841.89 h -595.276 z"
         id="path431"
         style="stroke-width:0.999998" />
    </clipPath>
  </defs>
  <sodipodi:namedview
     id="namedview172"
     pagecolor="#ffffff"
     bordercolor="#000000"
     borderopacity="0.25"
     inkscape:showpageshadow="2"
     inkscape:pageopacity="0.0"
     inkscape:pagecheckerboard="0"
     inkscape:deskcolor="#d1d1d1"
     showgrid="false"
     inkscape:zoom="0.21024124"
     inkscape:cx="-470.88764"
     inkscape:cy="561.26002"
     inkscape:window-width="1419"
     inkscape:window-height="456"
     inkscape:window-x="0"
     inkscape:window-y="25"
     inkscape:window-maximized="0"
     inkscape:current-layer="svg170">
    <inkscape:page
       x="0"
       y="0"
       id="page176"
       width="793.70135"
       height="793.70099" />
  </sodipodi:namedview>
  <path
     d="m 341.001,582.688 c 15.619,27.048 6.351,61.641 -20.705,77.258 -27.047,15.619 -61.64,6.351 -77.259,-20.705 -15.618,-27.046 -6.349,-61.637 20.708,-77.254 27.045,-15.619 61.639,-6.351 77.256,20.701 M 223.699,563.776 c -27.056,15.619 -61.65,6.351 -77.268,-20.7 -15.617,-27.052 -6.348,-61.641 20.708,-77.26 27.046,-15.618 61.638,-6.35 77.257,20.702 15.617,27.05 6.349,61.641 -20.697,77.258 M 111.454,411.33 c -15.6177,-27.051 -6.35,-61.641 20.696,-77.259 27.055,-15.618 61.65,-6.35 77.267,20.7 15.618,27.054 6.35,61.643 -20.706,77.261 -27.046,15.619 -61.639,6.351 -77.257,-20.702 m 176.631,-12.726 c 0,-18.226 4.512,-35.399 12.476,-50.465 L 93.719,228.717 c -28.264,50.214 -44.4066,108.161 -44.4066,169.887 0,190.199 153.0716,344.641 342.7566,346.842 V 506.623 C 334.277,504.458 288.085,456.93 288.085,398.604 m 393.043,12.334 c -15.608,27.052 -50.201,36.32 -77.258,20.701 -27.046,-15.619 -36.314,-50.208 -20.695,-77.258 15.619,-27.054 50.2,-36.322 77.256,-20.703 27.046,15.619 36.316,50.208 20.697,77.26 M 646.15,542.683 c -15.619,27.05 -50.212,36.321 -77.258,20.704 -27.056,-15.618 -36.323,-50.209 -20.706,-77.26 15.618,-27.052 50.212,-36.32 77.257,-20.704 27.057,15.619 36.325,50.208 20.707,77.26 m -96.607,96.173 c -15.618,27.045 -50.2,36.314 -77.257,20.696 -27.045,-15.617 -36.313,-50.207 -20.705,-77.257 15.616,-27.051 50.21,-36.319 77.268,-20.702 27.045,15.619 36.313,50.207 20.694,77.263 M 698.617,228.73 491.797,348.139 c 7.962,15.066 12.485,32.236 12.485,50.465 0,58.328 -46.192,105.864 -103.993,108.022 v 238.831 c 189.683,-2.201 342.766,-156.649 342.766,-346.853 0,-61.723 -16.174,-119.662 -44.438,-169.874 M 527.543,145.69 c 31.237,0 56.551,25.322 56.551,56.559 0,31.237 -25.314,56.558 -56.551,56.558 -31.237,0 -56.561,-25.321 -56.561,-56.558 0,-31.237 25.324,-56.559 56.561,-56.559 m -131.594,77.54 c -31.237,0 -56.551,-25.321 -56.551,-56.558 0,-31.235 25.314,-56.559 56.551,-56.559 31.236,0 56.561,25.324 56.561,56.559 0,31.237 -25.325,56.558 -56.561,56.558 m -131.585,35.577 c -31.236,0 -56.56,-25.321 -56.56,-56.558 0,-31.237 25.324,-56.559 56.56,-56.559 31.237,0 56.561,25.322 56.561,56.559 0,31.237 -25.324,56.558 -56.561,56.558 M 487.647,341.05 694.544,221.601 C 634.071,119.892 523.097,51.732 396.184,51.732 269.26,51.732 158.276,119.892 97.8123,221.604 L 304.666,341.022 c 19.136,-30.36 52.979,-50.516 91.518,-50.516 38.537,0 72.329,20.188 91.463,50.544"
     style="fill:#231f20;fill-opacity:1;fill-rule:nonzero;stroke:none"
     id="path190" />
</svg>
