<?xml version="1.0" encoding="UTF-8" standalone="no"?>
<!-- Created with Inkscape (http://www.inkscape.org/) -->

<svg
   version="1.1"
   id="svg816"
   width="793.70135"
   height="793.70099"
   viewBox="0 0 793.70135 793.70097"
   sodipodi:docname="Tyuukage Jigamini Kikyou.svg"
   inkscape:version="1.2 (dc2aeda, 2022-05-15)"
   xmlns:inkscape="http://www.inkscape.org/namespaces/inkscape"
   xmlns:sodipodi="http://sodipodi.sourceforge.net/DTD/sodipodi-0.dtd"
   xmlns="http://www.w3.org/2000/svg"
   xmlns:svg="http://www.w3.org/2000/svg">
  <defs
     id="defs820">
    <clipPath
       clipPathUnits="userSpaceOnUse"
       id="clipPath1055">
      <path
         d="m -298.8496,403.1507 h 595.276 v -841.89 h -595.276 z"
         id="path1057"
         style="stroke-width:0.999998" />
    </clipPath>
    <clipPath
       clipPathUnits="userSpaceOnUse"
       id="clipPath1061">
      <path
         d="m -281.3149,392.8929 h 595.276 v -841.89 h -595.276 z"
         id="path1063"
         style="stroke-width:0.999998" />
    </clipPath>
    <clipPath
       clipPathUnits="userSpaceOnUse"
       id="clipPath1067">
      <path
         d="m -407.6367,537.8871 h 595.27599 v -841.89 H -407.6367 Z"
         id="path1069"
         style="stroke-width:0.999998" />
    </clipPath>
    <clipPath
       clipPathUnits="userSpaceOnUse"
       id="clipPath1073">
      <path
         d="m -305.8691,371.0326 h 595.27599 v -841.89 H -305.8691 Z"
         id="path1075"
         style="stroke-width:0.999998" />
    </clipPath>
    <clipPath
       clipPathUnits="userSpaceOnUse"
       id="clipPath1079">
      <path
         d="m -285.6528,373.0414 h 595.276 v -841.89 h -595.276 z"
         id="path1081"
         style="stroke-width:0.999998" />
    </clipPath>
    <clipPath
       clipPathUnits="userSpaceOnUse"
       id="clipPath1085">
      <path
         d="m -314.0234,389.638 h 595.27599 v -841.89 H -314.0234 Z"
         id="path1087"
         style="stroke-width:0.999998" />
    </clipPath>
    <clipPath
       clipPathUnits="userSpaceOnUse"
       id="clipPath1091">
      <path
         d="m -311.0039,385.9496 h 595.27599 v -841.89 H -311.0039 Z"
         id="path1093"
         style="stroke-width:0.999998" />
    </clipPath>
  </defs>
  <sodipodi:namedview
     id="namedview818"
     pagecolor="#ffffff"
     bordercolor="#000000"
     borderopacity="0.25"
     inkscape:showpageshadow="2"
     inkscape:pageopacity="0.0"
     inkscape:pagecheckerboard="0"
     inkscape:deskcolor="#d1d1d1"
     showgrid="false"
     inkscape:zoom="0.21024124"
     inkscape:cx="-470.88764"
     inkscape:cy="561.26002"
     inkscape:window-width="1419"
     inkscape:window-height="456"
     inkscape:window-x="0"
     inkscape:window-y="25"
     inkscape:window-maximized="0"
     inkscape:current-layer="svg816">
    <inkscape:page
       x="0"
       y="0"
       id="page822"
       width="793.70135"
       height="793.70099" />
  </sodipodi:namedview>
  <path
     d="M 543.516,563.183 727.636,456.87 C 671.492,329.584 544.268,240.678 396.211,240.701 248.159,240.678 120.884,329.545 64.7439,456.838 L 248.925,563.166 c 32.026,-47.047 86.064,-77.967 147.286,-77.967 61.227,0.011 115.277,30.925 147.305,77.984 m -501.8521,-89.466 -9.8506,-5.686 4.2653,-10.53 C 93.5865,315.049 233.161,214.563 396.211,214.537 c 163.05,0.026 302.578,100.545 360.091,242.974 l 4.252,10.54 -226.178,130.603 -6.537,-11.312 C 501.513,541.899 452.472,511.346 396.211,511.358 339.95,511.346 290.909,541.899 264.595,587.331 l -6.537,11.311 z"
     style="fill:#231f20;fill-opacity:1;fill-rule:nonzero;stroke:none"
     id="path836" />
  <path
     d="m 407.825,340.71 22.828,-31.423 c 4.459,-6.168 6.073,-11.856 6.079,-16.917 0,-3.917 -0.986,-7.472 -2.428,-10.557 -3.56,-7.531 -7.602,-10.551 -19.952,-19.488 -10.163,-7.333 -16.292,-12.577 -18.17,-14.223 -1.869,1.646 -8.006,6.89 -18.161,14.223 -12.353,8.937 -16.388,11.957 -19.948,19.488 -1.449,3.085 -2.437,6.64 -2.437,10.557 0.005,5.056 1.62,10.744 6.088,16.917 l 22.844,31.44 c 2.796,-1.637 5.949,-2.732 9.338,-3.069 V 315.15 c 0,-1.256 1.027,-2.277 2.283,-2.277 1.255,0 2.272,1.021 2.276,2.277 v 22.519 c 3.393,0.337 6.557,1.401 9.36,3.041"
     style="fill:#231f20;fill-opacity:1;fill-rule:nonzero;stroke:none"
     id="path840" />
  <path
     d="m 380.87,343.389 -22.84,-31.417 c -4.484,-6.148 -9.391,-9.442 -14.201,-11.012 -3.731,-1.212 -7.415,-1.37 -10.796,-0.951 -8.259,1.057 -12.38,3.965 -24.695,12.951 -10.113,7.392 -16.997,11.609 -19.14,12.881 0.983,2.288 4.078,9.749 7.91,21.669 4.682,14.507 6.313,19.286 12.373,24.994 2.487,2.336 5.558,4.372 9.285,5.58 4.816,1.556 10.716,1.778 17.969,-0.562 l 36.962,-12.01 c -0.695,-3.164 -0.754,-6.504 -0.027,-9.83 l -21.412,-6.953 c -1.197,-0.391 -1.851,-1.679 -1.465,-2.876 0.389,-1.197 1.678,-1.844 2.876,-1.465 l 21.412,6.965 c 1.369,-3.127 3.362,-5.811 5.789,-7.964"
     style="fill:#231f20;fill-opacity:1;fill-rule:nonzero;stroke:none"
     id="path844" />
  <path
     d="m 375.087,369.857 -36.94,12.005 c -7.231,2.362 -11.881,6.019 -14.864,10.107 -2.299,3.169 -3.591,6.623 -4.233,9.969 -1.55,8.188 -0.064,13.003 4.682,27.49 3.908,11.907 5.79,19.759 6.335,22.186 2.484,-0.224 10.535,-0.865 23.057,-0.833 15.244,0.044 20.284,-0.032 27.592,-4.036 2.987,-1.646 5.868,-3.939 8.172,-7.108 2.972,-4.095 5.014,-9.643 5.024,-17.265 l -0.005,-38.859 c -3.224,-0.32 -6.413,-1.293 -9.353,-3.015 l -13.235,18.218 c -0.737,1.014 -2.165,1.244 -3.18,0.502 -1.023,-0.744 -1.241,-2.166 -0.508,-3.186 l 13.24,-18.216 c -2.556,-2.266 -4.484,-4.987 -5.784,-7.959"
     style="fill:#231f20;fill-opacity:1;fill-rule:nonzero;stroke:none"
     id="path848" />
  <path
     d="m 398.466,383.534 0.005,38.837 c 0.016,7.612 2.052,13.166 5.023,17.255 2.305,3.18 5.185,5.468 8.175,7.119 7.3,4.003 12.346,4.079 27.592,4.037 12.522,-0.039 20.577,0.604 23.057,0.828 0.549,-2.428 2.432,-10.284 6.338,-22.183 4.731,-14.485 6.228,-19.301 4.676,-27.494 -0.634,-3.347 -1.929,-6.8 -4.23,-9.97 -2.98,-4.088 -7.628,-7.738 -14.865,-10.101 l -36.962,-12.011 c -1.304,2.967 -3.213,5.71 -5.752,7.97 l 13.23,18.21 c 0.737,1.016 0.513,2.443 -0.508,3.187 -1.022,0.732 -2.438,0.508 -3.186,-0.508 L 407.83,380.494 c -2.949,1.721 -6.135,2.72 -9.364,3.04"
     style="fill:#231f20;fill-opacity:1;fill-rule:nonzero;stroke:none"
     id="path852" />
  <path
     d="m 418.698,365.517 36.951,11.999 c 7.237,2.336 13.137,2.117 17.958,0.561 3.731,-1.213 6.804,-3.251 9.288,-5.575 6.068,-5.713 7.693,-10.492 12.371,-24.993 3.836,-11.931 6.932,-19.387 7.913,-21.675 -2.137,-1.272 -9.031,-5.494 -19.14,-12.881 -12.308,-8.985 -16.434,-11.893 -24.698,-12.951 -3.383,-0.422 -7.067,-0.262 -10.791,0.946 -4.805,1.572 -9.719,4.865 -14.204,11.022 l -22.843,31.439 c 2.416,2.155 4.43,4.816 5.799,7.932 l 21.412,-6.955 c 1.192,-0.389 2.481,0.264 2.869,1.466 0.386,1.193 -0.27,2.474 -1.468,2.87 l -21.417,6.954 c 0.737,3.336 0.693,6.676 0,9.841"
     style="fill:#231f20;fill-opacity:1;fill-rule:nonzero;stroke:none"
     id="path856" />
  <path
     d="m 414.672,360.599 c 0,10.208 -8.279,18.483 -18.483,18.483 -10.209,0 -18.489,-8.275 -18.489,-18.483 0,-10.209 8.28,-18.483 18.489,-18.483 10.204,0 18.483,8.274 18.483,18.483"
     style="fill:#231f20;fill-opacity:1;fill-rule:nonzero;stroke:none"
     id="path860" />
</svg>
