<?xml version="1.0" encoding="UTF-8" standalone="no"?>
<svg
   enable-background="new 0 0 24 24"
   height="24"
   viewBox="0 0 24 24"
   width="24"
   version="1.1"
   id="svg26"
   sodipodi:docname="app_registration.svg"
   inkscape:version="1.2 (dc2aeda, 2022-05-15)"
   xmlns:inkscape="http://www.inkscape.org/namespaces/inkscape"
   xmlns:sodipodi="http://sodipodi.sourceforge.net/DTD/sodipodi-0.dtd"
   xmlns="http://www.w3.org/2000/svg"
   xmlns:svg="http://www.w3.org/2000/svg">
  <defs
     id="defs30" />
  <sodipodi:namedview
     id="namedview28"
     pagecolor="#ffffff"
     bordercolor="#000000"
     borderopacity="0.25"
     inkscape:showpageshadow="2"
     inkscape:pageopacity="0.0"
     inkscape:pagecheckerboard="0"
     inkscape:deskcolor="#d1d1d1"
     showgrid="false"
     inkscape:zoom="9.8333333"
     inkscape:cx="5.4915254"
     inkscape:cy="12"
     inkscape:window-width="1309"
     inkscape:window-height="456"
     inkscape:window-x="0"
     inkscape:window-y="25"
     inkscape:window-maximized="0"
     inkscape:current-layer="svg26" />
  <path
     id="rect2"
     style="fill:none"
     d="M 0,0 H 24 V 24 H 0 Z" />
  <path
     id="rect6"
     d="m 10,4 h 4 v 4 h -4 z" />
  <path
     id="rect8"
     d="m 4,16 h 4 v 4 H 4 Z" />
  <path
     id="rect10"
     d="m 4,10 h 4 v 4 H 4 Z" />
  <path
     id="rect12"
     d="M 4,4 H 8 V 8 H 4 Z" />
  <path
     id="polygon14"
     d="M 12.42,14 14,12.42 V 10 h -4 v 4 z" />
  <path
     d="m 20.88,11.29 -1.17,-1.17 c -0.16,-0.16 -0.42,-0.16 -0.58,0 L 18.25,11 20,12.75 20.88,11.87 c 0.16,-0.16 0.16,-0.42 0,-0.58 z"
     id="path16" />
  <path
     id="polygon18"
     d="M 17.67,11.58 11,18.25 V 20 h 1.75 l 6.67,-6.67 z" />
  <path
     id="rect20"
     d="m 16,4 h 4 v 4 h -4 z" />
</svg>
