<?xml version="1.0" encoding="UTF-8" standalone="no"?>
<svg
   enable-background="new 0 0 24 24"
   height="24"
   viewBox="0 0 24 24"
   width="24"
   version="1.1"
   id="svg20"
   sodipodi:docname="cell_tower.svg"
   inkscape:version="1.2 (dc2aeda, 2022-05-15)"
   xmlns:inkscape="http://www.inkscape.org/namespaces/inkscape"
   xmlns:sodipodi="http://sodipodi.sourceforge.net/DTD/sodipodi-0.dtd"
   xmlns="http://www.w3.org/2000/svg"
   xmlns:svg="http://www.w3.org/2000/svg">
  <defs
     id="defs24" />
  <sodipodi:namedview
     id="namedview22"
     pagecolor="#ffffff"
     bordercolor="#000000"
     borderopacity="0.25"
     inkscape:showpageshadow="2"
     inkscape:pageopacity="0.0"
     inkscape:pagecheckerboard="0"
     inkscape:deskcolor="#d1d1d1"
     showgrid="false"
     inkscape:zoom="9.8333333"
     inkscape:cx="5.4915254"
     inkscape:cy="12"
     inkscape:window-width="1309"
     inkscape:window-height="456"
     inkscape:window-x="0"
     inkscape:window-y="25"
     inkscape:window-maximized="0"
     inkscape:current-layer="svg20" />
  <path
     id="rect2"
     style="fill:none"
     d="M 0,0 H 24 V 24 H 0 Z" />
  <path
     d="M 7.3,14.7 8.5,13.5 C 7.5,12.5 7,11.2 7,10 7,8.7 7.5,7.4 8.5,6.5 L 7.3,5.3 c -1.3,1.3 -2,3 -2,4.7 0,1.7 0.7,3.4 2,4.7 z"
     id="path6" />
  <path
     d="m 19.1,2.9 -1.2,1.2 c 1.6,1.6 2.4,3.8 2.4,5.9 0,2.1 -0.8,4.3 -2.4,5.9 l 1.2,1.2 C 21.1,15.1 22,12.6 22,10 22,7.4 21,4.9 19.1,2.9 Z"
     id="path8" />
  <path
     d="M 6.1,4.1 4.9,2.9 C 3,4.9 2,7.4 2,10 c 0,2.6 1,5.1 2.9,7.1 L 6.1,15.9 C 4.5,14.3 3.7,12.1 3.7,10 3.7,7.9 4.5,5.7 6.1,4.1 Z"
     id="path10" />
  <path
     d="m 16.7,14.7 c 1.3,-1.3 2,-3 2,-4.7 C 18.6,8.3 18,6.6 16.7,5.3 l -1.2,1.2 c 1,1 1.5,2.3 1.5,3.5 0,1.3 -0.5,2.6 -1.5,3.5 z"
     id="path12" />
  <path
     d="M 14.5,10 C 14.5,8.62 13.38,7.5 12,7.5 10.62,7.5 9.5,8.62 9.5,10 c 0,0.76 0.34,1.42 0.87,1.88 L 7,22 h 2 l 0.67,-2 h 4.67 L 15,22 h 2 L 13.63,11.88 C 14.16,11.42 14.5,10.76 14.5,10 Z m -4.17,8 1.67,-5 1.67,5 z"
     id="path14" />
</svg>
