<?xml version="1.0" encoding="UTF-8" standalone="no"?>
<svg
   enable-background="new 0 0 24 24"
   height="24"
   viewBox="0 0 24 24"
   width="24"
   version="1.1"
   id="svg10"
   sodipodi:docname="contact_emergency.svg"
   inkscape:version="1.2 (dc2aeda, 2022-05-15)"
   xmlns:inkscape="http://www.inkscape.org/namespaces/inkscape"
   xmlns:sodipodi="http://sodipodi.sourceforge.net/DTD/sodipodi-0.dtd"
   xmlns="http://www.w3.org/2000/svg"
   xmlns:svg="http://www.w3.org/2000/svg">
  <defs
     id="defs14" />
  <sodipodi:namedview
     id="namedview12"
     pagecolor="#ffffff"
     bordercolor="#000000"
     borderopacity="0.25"
     inkscape:showpageshadow="2"
     inkscape:pageopacity="0.0"
     inkscape:pagecheckerboard="0"
     inkscape:deskcolor="#d1d1d1"
     showgrid="false"
     inkscape:zoom="9.8333333"
     inkscape:cx="5.4915254"
     inkscape:cy="12"
     inkscape:window-width="1309"
     inkscape:window-height="456"
     inkscape:window-x="0"
     inkscape:window-y="25"
     inkscape:window-maximized="0"
     inkscape:current-layer="svg10" />
  <path
     id="rect2"
     style="fill:none"
     d="M 0,0 H 24 V 24 H 0 Z" />
  <path
     d="M 22,3 H 2 C 0.9,3 0,3.9 0,5 v 14 c 0,1.1 0.9,2 2,2 h 20 c 1.1,0 1.99,-0.9 1.99,-2 L 24,5 C 24,3.9 23.1,3 22,3 Z M 9,8 c 1.65,0 3,1.35 3,3 0,1.65 -1.35,3 -3,3 C 7.35,14 6,12.65 6,11 6,9.35 7.35,8 9,8 Z M 2.08,19 C 3.46,16.61 6.04,15 9,15 c 2.96,0 5.54,1.61 6.92,4 z M 20.97,9.85 20.22,11.15 18.75,10.3 V 12 h -1.5 V 10.3 L 15.78,11.15 15.03,9.85 16.5,9 15.03,8.15 15.78,6.85 17.25,7.7 V 6 h 1.5 V 7.7 L 20.22,6.85 20.97,8.15 19.5,9 Z"
     id="path6" />
</svg>
