<?xml version="1.0" encoding="UTF-8" standalone="no"?>
<svg
   enable-background="new 0 0 24 24"
   height="24"
   viewBox="0 0 24 24"
   width="24"
   version="1.1"
   id="svg18"
   sodipodi:docname="mail_lock.svg"
   inkscape:version="1.2 (dc2aeda, 2022-05-15)"
   xmlns:inkscape="http://www.inkscape.org/namespaces/inkscape"
   xmlns:sodipodi="http://sodipodi.sourceforge.net/DTD/sodipodi-0.dtd"
   xmlns="http://www.w3.org/2000/svg"
   xmlns:svg="http://www.w3.org/2000/svg">
  <defs
     id="defs22" />
  <sodipodi:namedview
     id="namedview20"
     pagecolor="#ffffff"
     bordercolor="#000000"
     borderopacity="0.25"
     inkscape:showpageshadow="2"
     inkscape:pageopacity="0.0"
     inkscape:pagecheckerboard="0"
     inkscape:deskcolor="#d1d1d1"
     showgrid="false"
     inkscape:zoom="9.8333333"
     inkscape:cx="5.4915254"
     inkscape:cy="12"
     inkscape:window-width="1309"
     inkscape:window-height="456"
     inkscape:window-x="0"
     inkscape:window-y="25"
     inkscape:window-maximized="0"
     inkscape:current-layer="svg18" />
  <path
     id="rect2"
     style="fill:none"
     d="M 0,0 H 24 V 24 H 0 Z" />
  <path
     d="M 22,9.97 V 6 C 22,4.9 21.1,4 20,4 H 4 C 2.9,4 2.01,4.9 2.01,6 L 2,18 c 0,1.1 0.9,2 2,2 h 12 v -5.03 c 0,-2.76 2.24,-5 5,-5 z M 20,8 12,13 4,8 V 6 l 8,5 8,-5 z"
     id="path6" />
  <path
     d="m 23,15 v -1 c 0,-1.1 -0.9,-2 -2,-2 -1.1,0 -2,0.9 -2,2 v 1 c -0.55,0 -1,0.45 -1,1 v 3 c 0,0.55 0.45,1 1,1 h 4 c 0.55,0 1,-0.45 1,-1 v -3 c 0,-0.55 -0.45,-1 -1,-1 z m -1,0 h -2 v -1 c 0,-0.55 0.45,-1 1,-1 0.55,0 1,0.45 1,1 z"
     id="path10" />
</svg>
