<?xml version="1.0" encoding="UTF-8" standalone="no"?>
<svg
   enable-background="new 0 0 24 24"
   height="24"
   viewBox="0 0 24 24"
   width="24"
   version="1.1"
   id="svg14"
   sodipodi:docname="mark_unread_chat_alt.svg"
   inkscape:version="1.2 (dc2aeda, 2022-05-15)"
   xmlns:inkscape="http://www.inkscape.org/namespaces/inkscape"
   xmlns:sodipodi="http://sodipodi.sourceforge.net/DTD/sodipodi-0.dtd"
   xmlns="http://www.w3.org/2000/svg"
   xmlns:svg="http://www.w3.org/2000/svg">
  <defs
     id="defs18" />
  <sodipodi:namedview
     id="namedview16"
     pagecolor="#ffffff"
     bordercolor="#000000"
     borderopacity="0.25"
     inkscape:showpageshadow="2"
     inkscape:pageopacity="0.0"
     inkscape:pagecheckerboard="0"
     inkscape:deskcolor="#d1d1d1"
     showgrid="false"
     inkscape:zoom="9.8333333"
     inkscape:cx="5.4915254"
     inkscape:cy="12"
     inkscape:window-width="1309"
     inkscape:window-height="456"
     inkscape:window-x="0"
     inkscape:window-y="25"
     inkscape:window-maximized="0"
     inkscape:current-layer="svg14" />
  <path
     id="rect2"
     style="fill:none"
     d="M 0,0 H 24 V 24 H 0 Z" />
  <path
     id="circle6"
     d="M 22,3 A 3,3 0 0 1 19,6 3,3 0 0 1 16,3 3,3 0 0 1 19,0 3,3 0 0 1 22,3 Z" />
  <path
     d="M 6,8 V 6 h 9.03 C 13.82,4.4 13.95,2.79 14.11,2 H 4.01 c -1.1,0 -2,0.89 -2,2 L 2,22 6,18 h 14 c 1.1,0 2,-0.9 2,-2 V 6.97 C 21.16,7.61 20.13,8 19,8 Z m 8,6 H 6 v -2 h 8 z m 4,-3 H 6 V 9 h 12 z"
     id="path8" />
</svg>
