<?xml version="1.0" encoding="UTF-8" standalone="no"?>
<svg
   enable-background="new 0 0 24 24"
   height="24"
   viewBox="0 0 24 24"
   width="24"
   version="1.1"
   id="svg16"
   sodipodi:docname="more_time.svg"
   inkscape:version="1.2 (dc2aeda, 2022-05-15)"
   xmlns:inkscape="http://www.inkscape.org/namespaces/inkscape"
   xmlns:sodipodi="http://sodipodi.sourceforge.net/DTD/sodipodi-0.dtd"
   xmlns="http://www.w3.org/2000/svg"
   xmlns:svg="http://www.w3.org/2000/svg">
  <defs
     id="defs20" />
  <sodipodi:namedview
     id="namedview18"
     pagecolor="#ffffff"
     bordercolor="#000000"
     borderopacity="0.25"
     inkscape:showpageshadow="2"
     inkscape:pageopacity="0.0"
     inkscape:pagecheckerboard="0"
     inkscape:deskcolor="#d1d1d1"
     showgrid="false"
     inkscape:zoom="9.8333333"
     inkscape:cx="5.4915254"
     inkscape:cy="12"
     inkscape:window-width="1309"
     inkscape:window-height="456"
     inkscape:window-x="0"
     inkscape:window-y="25"
     inkscape:window-maximized="0"
     inkscape:current-layer="svg16" />
  <path
     id="rect2"
     style="fill:none"
     d="M 0,0 H 24 V 24 H 0 Z" />
  <path
     id="polygon6"
     d="M 11.5,13.3 V 8 H 10 v 6 l 4.7,2.9 0.8,-1.2 z" />
  <path
     d="m 17.92,12 c 0.05,0.33 0.08,0.66 0.08,1 0,3.9 -3.1,7 -7,7 -3.9,0 -7,-3.1 -7,-7 0,-3.9 3.1,-7 7,-7 0.7,0 1.37,0.1 2,0.29 V 4.23 C 12.36,4.08 11.69,4 11,4 6,4 2,8 2,13 c 0,5 4,9 9,9 5,0 9,-4 9,-9 0,-0.34 -0.02,-0.67 -0.06,-1 z"
     id="path8" />
  <path
     id="polygon10"
     d="m 15,5 v 2 h 3 v 3 h 2 V 7 h 3 V 5 H 20 V 2 h -2 v 3 z" />
</svg>
