<?xml version="1.0" encoding="UTF-8" standalone="no"?>
<svg
   enable-background="new 0 0 24 24"
   height="24"
   viewBox="0 0 24 24"
   width="24"
   version="1.1"
   id="svg16"
   sodipodi:docname="person_search.svg"
   inkscape:version="1.2 (dc2aeda, 2022-05-15)"
   xmlns:inkscape="http://www.inkscape.org/namespaces/inkscape"
   xmlns:sodipodi="http://sodipodi.sourceforge.net/DTD/sodipodi-0.dtd"
   xmlns="http://www.w3.org/2000/svg"
   xmlns:svg="http://www.w3.org/2000/svg">
  <defs
     id="defs20" />
  <sodipodi:namedview
     id="namedview18"
     pagecolor="#ffffff"
     bordercolor="#000000"
     borderopacity="0.25"
     inkscape:showpageshadow="2"
     inkscape:pageopacity="0.0"
     inkscape:pagecheckerboard="0"
     inkscape:deskcolor="#d1d1d1"
     showgrid="false"
     inkscape:zoom="9.8333333"
     inkscape:cx="5.4915254"
     inkscape:cy="12"
     inkscape:window-width="1309"
     inkscape:window-height="456"
     inkscape:window-x="0"
     inkscape:window-y="25"
     inkscape:window-maximized="0"
     inkscape:current-layer="svg16" />
  <path
     id="rect2"
     style="fill:none"
     d="M 0,0 H 24 V 24 H 0 Z" />
  <path
     id="circle6"
     d="M 14,8 A 4,4 0 0 1 10,12 4,4 0 0 1 6,8 4,4 0 0 1 10,4 4,4 0 0 1 14,8 Z" />
  <path
     d="M 10.35,14.01 C 7.62,13.91 2,15.27 2,18 v 2 h 9.54 C 9.07,17.24 10.31,14.11 10.35,14.01 Z"
     id="path8" />
  <path
     d="M 19.43,18.02 C 19.79,17.43 20,16.74 20,16 c 0,-2.21 -1.79,-4 -4,-4 -2.21,0 -4,1.79 -4,4 0,2.21 1.79,4 4,4 0.74,0 1.43,-0.22 2.02,-0.57 L 20.59,22 22,20.59 Z M 16,18 c -1.1,0 -2,-0.9 -2,-2 0,-1.1 0.9,-2 2,-2 1.1,0 2,0.9 2,2 0,1.1 -0.9,2 -2,2 z"
     id="path10" />
</svg>
