<?xml version="1.0" encoding="UTF-8" standalone="no"?>
<svg
   enable-background="new 0 0 24 24"
   height="24"
   viewBox="0 0 24 24"
   width="24"
   version="1.1"
   id="svg8"
   sodipodi:docname="qr_code_2.svg"
   inkscape:version="1.2 (dc2aeda, 2022-05-15)"
   xmlns:inkscape="http://www.inkscape.org/namespaces/inkscape"
   xmlns:sodipodi="http://sodipodi.sourceforge.net/DTD/sodipodi-0.dtd"
   xmlns="http://www.w3.org/2000/svg"
   xmlns:svg="http://www.w3.org/2000/svg">
  <defs
     id="defs12" />
  <sodipodi:namedview
     id="namedview10"
     pagecolor="#ffffff"
     bordercolor="#000000"
     borderopacity="0.25"
     inkscape:showpageshadow="2"
     inkscape:pageopacity="0.0"
     inkscape:pagecheckerboard="0"
     inkscape:deskcolor="#d1d1d1"
     showgrid="false"
     inkscape:zoom="9.8333333"
     inkscape:cx="5.4915254"
     inkscape:cy="12"
     inkscape:window-width="1309"
     inkscape:window-height="456"
     inkscape:window-x="0"
     inkscape:window-y="25"
     inkscape:window-maximized="0"
     inkscape:current-layer="svg8" />
  <path
     id="rect2"
     style="fill:none"
     d="M 0,0 H 24 V 24 H 0 Z" />
  <path
     d="M15,21h-2v-2h2V21z M13,14h-2v5h2V14z M21,12h-2v4h2V12z M19,10h-2v2h2V10z M7,12H5v2h2V12z M5,10H3v2h2V10z M12,5h2V3h-2V5 z M4.5,4.5v3h3v-3H4.5z M9,9H3V3h6V9z M4.5,16.5v3h3v-3H4.5z M9,21H3v-6h6V21z M16.5,4.5v3h3v-3H16.5z M21,9h-6V3h6V9z M19,19v-3 l-4,0v2h2v3h4v-2H19z M17,12l-4,0v2h4V12z M13,10H7v2h2v2h2v-2h2V10z M14,9V7h-2V5h-2v4L14,9z M6.75,5.25h-1.5v1.5h1.5V5.25z M6.75,17.25h-1.5v1.5h1.5V17.25z M18.75,5.25h-1.5v1.5h1.5V5.25z"
     id="path6" />
</svg>
