<?xml version="1.0" encoding="UTF-8" standalone="no"?>
<svg
   enable-background="new 0 0 24 24"
   height="24"
   viewBox="0 0 24 24"
   width="24"
   version="1.1"
   id="svg32"
   sodipodi:docname="qr_code.svg"
   inkscape:version="1.2 (dc2aeda, 2022-05-15)"
   xmlns:inkscape="http://www.inkscape.org/namespaces/inkscape"
   xmlns:sodipodi="http://sodipodi.sourceforge.net/DTD/sodipodi-0.dtd"
   xmlns="http://www.w3.org/2000/svg"
   xmlns:svg="http://www.w3.org/2000/svg">
  <defs
     id="defs36" />
  <sodipodi:namedview
     id="namedview34"
     pagecolor="#ffffff"
     bordercolor="#000000"
     borderopacity="0.25"
     inkscape:showpageshadow="2"
     inkscape:pageopacity="0.0"
     inkscape:pagecheckerboard="0"
     inkscape:deskcolor="#d1d1d1"
     showgrid="false"
     inkscape:zoom="9.8333333"
     inkscape:cx="5.4915254"
     inkscape:cy="12"
     inkscape:window-width="1309"
     inkscape:window-height="456"
     inkscape:window-x="0"
     inkscape:window-y="25"
     inkscape:window-maximized="0"
     inkscape:current-layer="svg32" />
  <path
     id="rect2"
     style="fill:none"
     d="M 0,0 H 24 V 24 H 0 Z" />
  <path
     d="m 3,11 h 8 V 3 H 3 Z M 5,5 H 9 V 9 H 5 Z"
     id="path6" />
  <path
     d="m 3,21 h 8 V 13 H 3 Z m 2,-6 h 4 v 4 H 5 Z"
     id="path8" />
  <path
     d="m 13,3 v 8 h 8 V 3 Z m 6,6 H 15 V 5 h 4 z"
     id="path10" />
  <path
     id="rect12"
     d="m 19,19 h 2 v 2 h -2 z" />
  <path
     id="rect14"
     d="m 13,13 h 2 v 2 h -2 z" />
  <path
     id="rect16"
     d="m 15,15 h 2 v 2 h -2 z" />
  <path
     id="rect18"
     d="m 13,17 h 2 v 2 h -2 z" />
  <path
     id="rect20"
     d="m 15,19 h 2 v 2 h -2 z" />
  <path
     id="rect22"
     d="m 17,17 h 2 v 2 h -2 z" />
  <path
     id="rect24"
     d="m 17,13 h 2 v 2 h -2 z" />
  <path
     id="rect26"
     d="m 19,15 h 2 v 2 h -2 z" />
</svg>
