<?xml version="1.0" encoding="UTF-8" standalone="no"?>
<svg
   enable-background="new 0 0 24 24"
   height="24"
   viewBox="0 0 24 24"
   width="24"
   version="1.1"
   id="svg14"
   sodipodi:docname="send_time_extension.svg"
   inkscape:version="1.2 (dc2aeda, 2022-05-15)"
   xmlns:inkscape="http://www.inkscape.org/namespaces/inkscape"
   xmlns:sodipodi="http://sodipodi.sourceforge.net/DTD/sodipodi-0.dtd"
   xmlns="http://www.w3.org/2000/svg"
   xmlns:svg="http://www.w3.org/2000/svg">
  <defs
     id="defs18" />
  <sodipodi:namedview
     id="namedview16"
     pagecolor="#ffffff"
     bordercolor="#000000"
     borderopacity="0.25"
     inkscape:showpageshadow="2"
     inkscape:pageopacity="0.0"
     inkscape:pagecheckerboard="0"
     inkscape:deskcolor="#d1d1d1"
     showgrid="false"
     inkscape:zoom="9.8333333"
     inkscape:cx="5.4915254"
     inkscape:cy="12"
     inkscape:window-width="1309"
     inkscape:window-height="456"
     inkscape:window-x="0"
     inkscape:window-y="25"
     inkscape:window-maximized="0"
     inkscape:current-layer="svg14" />
  <path
     id="rect2"
     style="fill:none"
     d="M 0,0 H 24 V 24 H 0 Z" />
  <path
     d="M 20,6 C 20,4.9 19.1,4 18,4 H 14 C 14,2.62 12.88,1.5 11.5,1.5 10.12,1.5 9,2.62 9,4 H 5.01 c -1.1,0 -2,0.9 -2,2 V 9.8 C 5.7,9.8 6,11.96 6,12.5 6,13.04 5.71,15.2 3,15.2 V 19 c 0,1.1 0.9,2 2,2 h 3.8 c 0,-2.16 1.37,-2.78 2.2,-2.94 v -9.3 l 9,4.5 z"
     id="path6" />
  <path
     id="polygon8"
     d="M 13,22 23,17 13,12 v 4 l 4,1 -4,1 z" />
</svg>
