<?xml version="1.0" encoding="UTF-8" standalone="no"?>
<svg
   height="24"
   viewBox="0 0 24 24"
   width="24"
   version="1.1"
   id="svg16"
   sodipodi:docname="sentiment_satisfied_alt.svg"
   inkscape:version="1.2 (dc2aeda, 2022-05-15)"
   xmlns:inkscape="http://www.inkscape.org/namespaces/inkscape"
   xmlns:sodipodi="http://sodipodi.sourceforge.net/DTD/sodipodi-0.dtd"
   xmlns="http://www.w3.org/2000/svg"
   xmlns:svg="http://www.w3.org/2000/svg">
  <defs
     id="defs20" />
  <sodipodi:namedview
     id="namedview18"
     pagecolor="#ffffff"
     bordercolor="#000000"
     borderopacity="0.25"
     inkscape:showpageshadow="2"
     inkscape:pageopacity="0.0"
     inkscape:pagecheckerboard="0"
     inkscape:deskcolor="#d1d1d1"
     showgrid="false"
     inkscape:zoom="9.8333333"
     inkscape:cx="5.4915254"
     inkscape:cy="12"
     inkscape:window-width="1309"
     inkscape:window-height="456"
     inkscape:window-x="0"
     inkscape:window-y="25"
     inkscape:window-maximized="0"
     inkscape:current-layer="svg16" />
  <path
     d="M0 0h24v24H0V0z"
     fill="none"
     id="path2" />
  <path
     d="M0 0h24v24H0V0z"
     fill="none"
     id="path4" />
  <path
     id="circle6"
     d="M 17,9.5 A 1.5,1.5 0 0 1 15.5,11 1.5,1.5 0 0 1 14,9.5 1.5,1.5 0 0 1 15.5,8 1.5,1.5 0 0 1 17,9.5 Z" />
  <path
     id="circle8"
     d="M 10,9.5 A 1.5,1.5 0 0 1 8.5,11 1.5,1.5 0 0 1 7,9.5 1.5,1.5 0 0 1 8.5,8 1.5,1.5 0 0 1 10,9.5 Z" />
  <path
     id="circle10"
     d="M 17,9.5 A 1.5,1.5 0 0 1 15.5,11 1.5,1.5 0 0 1 14,9.5 1.5,1.5 0 0 1 15.5,8 1.5,1.5 0 0 1 17,9.5 Z" />
  <path
     id="circle12"
     d="M 10,9.5 A 1.5,1.5 0 0 1 8.5,11 1.5,1.5 0 0 1 7,9.5 1.5,1.5 0 0 1 8.5,8 1.5,1.5 0 0 1 10,9.5 Z" />
  <path
     d="M11.99 2C6.47 2 2 6.48 2 12s4.47 10 9.99 10C17.52 22 22 17.52 22 12S17.52 2 11.99 2zM12 20c-4.42 0-8-3.58-8-8s3.58-8 8-8 8 3.58 8 8-3.58 8-8 8zm0-2.5c2.33 0 4.32-1.45 5.12-3.5h-1.67c-.69 1.19-1.97 2-3.45 2s-2.75-.81-3.45-2H6.88c.8 2.05 2.79 3.5 5.12 3.5z"
     id="path14" />
</svg>
