<?xml version="1.0" encoding="UTF-8" standalone="no"?>
<svg
   enable-background="new 0 0 24 24"
   height="24"
   viewBox="0 0 24 24"
   width="24"
   version="1.1"
   id="svg14"
   sodipodi:docname="wifi_calling.svg"
   inkscape:version="1.2 (dc2aeda, 2022-05-15)"
   xmlns:inkscape="http://www.inkscape.org/namespaces/inkscape"
   xmlns:sodipodi="http://sodipodi.sourceforge.net/DTD/sodipodi-0.dtd"
   xmlns="http://www.w3.org/2000/svg"
   xmlns:svg="http://www.w3.org/2000/svg">
  <defs
     id="defs18" />
  <sodipodi:namedview
     id="namedview16"
     pagecolor="#ffffff"
     bordercolor="#000000"
     borderopacity="0.25"
     inkscape:showpageshadow="2"
     inkscape:pageopacity="0.0"
     inkscape:pagecheckerboard="0"
     inkscape:deskcolor="#d1d1d1"
     showgrid="false"
     inkscape:zoom="9.8333333"
     inkscape:cx="5.4915254"
     inkscape:cy="12"
     inkscape:window-width="1309"
     inkscape:window-height="456"
     inkscape:window-x="0"
     inkscape:window-y="25"
     inkscape:window-maximized="0"
     inkscape:current-layer="svg14" />
  <path
     id="rect2"
     style="fill:none"
     d="M 0,0 H 24 V 24 H 0 Z" />
  <path
     d="M 22,4.95 C 21.79,4.78 19.67,3 16.5,3 13.32,3 11.21,4.78 11,4.95 L 16.5,12 Z"
     id="path6" />
  <path
     d="m 20,15.51 c -1.24,0 -2.45,-0.2 -3.57,-0.57 -0.35,-0.12 -0.75,-0.03 -1.02,0.24 l -2.2,2.2 C 10.38,15.93 8.06,13.62 6.62,10.79 l 2.2,-2.2 C 9.1,8.31 9.18,7.92 9.07,7.57 8.7,6.45 8.5,5.25 8.5,4 8.5,3.45 8.05,3 7.5,3 H 4 C 3.45,3 3,3.45 3,4 c 0,9.39 7.61,17 17,17 0.55,0 1,-0.45 1,-1 v -3.49 c 0,-0.55 -0.45,-1 -1,-1 z"
     id="path8" />
</svg>
