<?xml version="1.0" encoding="UTF-8" standalone="no"?>
<svg
   enable-background="new 0 0 24 24"
   height="24"
   viewBox="0 0 24 24"
   width="24"
   version="1.1"
   id="svg14"
   sodipodi:docname="earbuds_battery.svg"
   inkscape:version="1.2 (dc2aeda, 2022-05-15)"
   xmlns:inkscape="http://www.inkscape.org/namespaces/inkscape"
   xmlns:sodipodi="http://sodipodi.sourceforge.net/DTD/sodipodi-0.dtd"
   xmlns="http://www.w3.org/2000/svg"
   xmlns:svg="http://www.w3.org/2000/svg">
  <defs
     id="defs18" />
  <sodipodi:namedview
     id="namedview16"
     pagecolor="#ffffff"
     bordercolor="#000000"
     borderopacity="0.25"
     inkscape:showpageshadow="2"
     inkscape:pageopacity="0.0"
     inkscape:pagecheckerboard="0"
     inkscape:deskcolor="#d1d1d1"
     showgrid="false"
     inkscape:zoom="9.8333333"
     inkscape:cx="-4.4237288"
     inkscape:cy="12"
     inkscape:window-width="1309"
     inkscape:window-height="456"
     inkscape:window-x="0"
     inkscape:window-y="25"
     inkscape:window-maximized="0"
     inkscape:current-layer="svg14" />
  <path
     id="rect2"
     style="fill:none"
     d="M 0,0 H 24 V 24 H 0 Z" />
  <path
     d="M 21,7 H 20 V 6 h -2 v 1 h -1 c -0.55,0 -1,0.45 -1,1 v 9 c 0,0.55 0.45,1 1,1 h 4 c 0.55,0 1,-0.45 1,-1 V 8 C 22,7.45 21.55,7 21,7 Z"
     id="path6" />
  <path
     d="M 10.62,6 C 8.76,6 7.25,7.51 7.25,9.38 v 5.25 c 0,1.04 -0.84,1.88 -1.88,1.88 -1.04,0 -1.87,-0.85 -1.87,-1.89 V 9.92 C 3.66,9.97 3.83,10 4,10 5.1,10 6,9.1 6,8 6,6.9 5.1,6 4,6 2.9,6 2,6.9 2,8 2,8.04 2,14.62 2,14.62 2,16.49 3.51,18 5.38,18 7.25,18 8.76,16.49 8.76,14.62 V 9.38 c 0,-1.04 0.84,-1.88 1.88,-1.88 1.04,0 1.88,0.84 1.88,1.88 v 4.7 C 12.34,14.03 12.17,14 12,14 c -1.1,0 -2,0.9 -2,2 0,1.1 0.9,2 2,2 1.1,0 2,-0.9 2,-2 0,-0.04 0,-6.62 0,-6.62 C 14,7.51 12.49,6 10.62,6 Z"
     id="path8" />
</svg>
