<?xml version="1.0" encoding="UTF-8" standalone="no"?>
<svg
   enable-background="new 0 0 24 24"
   height="24"
   viewBox="0 0 24 24"
   width="24"
   version="1.1"
   id="svg12"
   sodipodi:docname="earbuds.svg"
   inkscape:version="1.2 (dc2aeda, 2022-05-15)"
   xmlns:inkscape="http://www.inkscape.org/namespaces/inkscape"
   xmlns:sodipodi="http://sodipodi.sourceforge.net/DTD/sodipodi-0.dtd"
   xmlns="http://www.w3.org/2000/svg"
   xmlns:svg="http://www.w3.org/2000/svg">
  <defs
     id="defs16" />
  <sodipodi:namedview
     id="namedview14"
     pagecolor="#ffffff"
     bordercolor="#000000"
     borderopacity="0.25"
     inkscape:showpageshadow="2"
     inkscape:pageopacity="0.0"
     inkscape:pagecheckerboard="0"
     inkscape:deskcolor="#d1d1d1"
     showgrid="false"
     inkscape:zoom="9.8333333"
     inkscape:cx="-4.4237288"
     inkscape:cy="12"
     inkscape:window-width="1309"
     inkscape:window-height="456"
     inkscape:window-x="0"
     inkscape:window-y="25"
     inkscape:window-maximized="0"
     inkscape:current-layer="svg12" />
  <path
     id="rect2"
     style="fill:none"
     d="M 0,0 H 24 V 24 H 0 Z" />
  <path
     d="M 6.2,3.01 C 4.44,2.89 3,4.42 3,6.19 V 16 c 0,2.76 2.24,5 5,5 v 0 c 2.76,0 5,-2.24 5,-5 V 8 c 0,-1.66 1.34,-3 3,-3 v 0 c 1.66,0 3,1.34 3,3 v 7 h -0.83 c -1.61,0 -3.06,1.18 -3.17,2.79 -0.12,1.69 1.16,3.1 2.8,3.21 1.76,0.12 3.2,-1.42 3.2,-3.18 V 8 C 21,5.24 18.76,3 16,3 v 0 c -2.76,0 -5,2.24 -5,5 v 8 c 0,1.66 -1.34,3 -3,3 v 0 C 6.34,19 5,17.66 5,16 V 9 H 5.83 C 7.44,9 8.89,7.82 9,6.21 9.11,4.53 7.83,3.11 6.2,3.01 Z"
     id="path6" />
</svg>
