<?xml version="1.0" encoding="UTF-8" standalone="no"?>
<svg
   enable-background="new 0 0 24 24"
   height="24"
   viewBox="0 0 24 24"
   width="24"
   version="1.1"
   id="svg14"
   sodipodi:docname="headphones_battery.svg"
   inkscape:version="1.2 (dc2aeda, 2022-05-15)"
   xmlns:inkscape="http://www.inkscape.org/namespaces/inkscape"
   xmlns:sodipodi="http://sodipodi.sourceforge.net/DTD/sodipodi-0.dtd"
   xmlns="http://www.w3.org/2000/svg"
   xmlns:svg="http://www.w3.org/2000/svg">
  <defs
     id="defs18" />
  <sodipodi:namedview
     id="namedview16"
     pagecolor="#ffffff"
     bordercolor="#000000"
     borderopacity="0.25"
     inkscape:showpageshadow="2"
     inkscape:pageopacity="0.0"
     inkscape:pagecheckerboard="0"
     inkscape:deskcolor="#d1d1d1"
     showgrid="false"
     inkscape:zoom="9.8333333"
     inkscape:cx="-6.6101695"
     inkscape:cy="12"
     inkscape:window-width="1309"
     inkscape:window-height="456"
     inkscape:window-x="0"
     inkscape:window-y="25"
     inkscape:window-maximized="0"
     inkscape:current-layer="svg14" />
  <path
     id="rect2"
     style="fill:none"
     d="M 0,0 H 24 V 24 H 0 Z" />
  <path
     d="M 21,7 H 20 V 6 h -2 v 1 h -1 c -0.55,0 -1,0.45 -1,1 v 9 c 0,0.55 0.45,1 1,1 h 4 c 0.55,0 1,-0.45 1,-1 V 8 C 22,7.45 21.55,7 21,7 Z"
     id="path6" />
  <path
     d="M 8,6 C 4.69,6 2,8.69 2,12 v 4 c 0,1.1 0.9,2 2,2 H 6 V 13 H 3.5 V 12 C 3.5,9.52 5.52,7.5 8,7.5 c 2.48,0 4.5,2.02 4.5,4.5 v 1 H 10 v 5 h 2 c 1.1,0 2,-0.9 2,-2 V 12 C 14,8.69 11.31,6 8,6 Z"
     id="path8" />
</svg>
