<?xml version="1.0" encoding="UTF-8" standalone="no"?>
<svg
   enable-background="new 0 0 24 24"
   height="24"
   viewBox="0 0 24 24"
   width="24"
   version="1.1"
   id="svg12"
   sodipodi:docname="keyboard_command_key.svg"
   inkscape:version="1.2 (dc2aeda, 2022-05-15)"
   xmlns:inkscape="http://www.inkscape.org/namespaces/inkscape"
   xmlns:sodipodi="http://sodipodi.sourceforge.net/DTD/sodipodi-0.dtd"
   xmlns="http://www.w3.org/2000/svg"
   xmlns:svg="http://www.w3.org/2000/svg">
  <defs
     id="defs16" />
  <sodipodi:namedview
     id="namedview14"
     pagecolor="#ffffff"
     bordercolor="#000000"
     borderopacity="0.25"
     inkscape:showpageshadow="2"
     inkscape:pageopacity="0.0"
     inkscape:pagecheckerboard="0"
     inkscape:deskcolor="#d1d1d1"
     showgrid="false"
     inkscape:zoom="9.8333333"
     inkscape:cx="-4.4237288"
     inkscape:cy="12"
     inkscape:window-width="1309"
     inkscape:window-height="456"
     inkscape:window-x="0"
     inkscape:window-y="25"
     inkscape:window-maximized="0"
     inkscape:current-layer="svg12" />
  <path
     id="rect2"
     style="fill:none"
     d="M 0,0 H 24 V 24 H 0 Z" />
  <path
     d="M 17.5,3 C 15.57,3 14,4.57 14,6.5 V 8 H 10 V 6.5 C 10,4.57 8.43,3 6.5,3 4.57,3 3,4.57 3,6.5 3,8.43 4.57,10 6.5,10 H 8 v 4 H 6.5 C 4.57,14 3,15.57 3,17.5 3,19.43 4.57,21 6.5,21 8.43,21 10,19.43 10,17.5 V 16 h 4 v 1.5 C 14,19.43 15.57,21 17.5,21 19.43,21 21,19.43 21,17.5 21,15.57 19.43,14 17.5,14 H 16 v -4 h 1.5 C 19.43,10 21,8.43 21,6.5 21,4.57 19.43,3 17.5,3 Z M 16,8 V 6.5 C 16,5.67 16.67,5 17.5,5 18.33,5 19,5.67 19,6.5 19,7.33 18.33,8 17.5,8 Z M 6.5,8 C 5.67,8 5,7.33 5,6.5 5,5.67 5.67,5 6.5,5 7.33,5 8,5.67 8,6.5 V 8 Z m 3.5,6 v -4 h 4 v 4 z m 7.5,5 C 16.67,19 16,18.33 16,17.5 V 16 h 1.5 c 0.83,0 1.5,0.67 1.5,1.5 0,0.83 -0.67,1.5 -1.5,1.5 z m -11,0 C 5.67,19 5,18.33 5,17.5 5,16.67 5.67,16 6.5,16 H 8 v 1.5 C 8,18.33 7.33,19 6.5,19 Z"
     id="path6" />
</svg>
