<?xml version="1.0" encoding="UTF-8" standalone="no"?>
<svg
   enable-background="new 0 0 24 24"
   height="24"
   viewBox="0 0 24 24"
   width="24"
   version="1.1"
   id="svg8"
   sodipodi:docname="point_of_sale.svg"
   inkscape:version="1.2 (dc2aeda, 2022-05-15)"
   xmlns:inkscape="http://www.inkscape.org/namespaces/inkscape"
   xmlns:sodipodi="http://sodipodi.sourceforge.net/DTD/sodipodi-0.dtd"
   xmlns="http://www.w3.org/2000/svg"
   xmlns:svg="http://www.w3.org/2000/svg">
  <defs
     id="defs12" />
  <sodipodi:namedview
     id="namedview10"
     pagecolor="#ffffff"
     bordercolor="#000000"
     borderopacity="0.25"
     inkscape:showpageshadow="2"
     inkscape:pageopacity="0.0"
     inkscape:pagecheckerboard="0"
     inkscape:deskcolor="#d1d1d1"
     showgrid="false"
     inkscape:zoom="9.8333333"
     inkscape:cx="-4.4237288"
     inkscape:cy="12"
     inkscape:window-width="1309"
     inkscape:window-height="456"
     inkscape:window-x="0"
     inkscape:window-y="25"
     inkscape:window-maximized="0"
     inkscape:current-layer="svg8" />
  <path
     id="rect2"
     style="fill:none"
     d="M 0,0 H 24 V 24 H 0 Z" />
  <path
     d="M 17,2 H 7 C 5.9,2 5,2.9 5,4 v 2 c 0,1.1 0.9,2 2,2 h 10 c 1.1,0 2,-0.9 2,-2 V 4 C 19,2.9 18.1,2 17,2 Z m 0,4 H 7 V 4 h 10 z m 3,16 H 4 C 2.9,22 2,21.1 2,20 v -1 h 20 v 1 c 0,1.1 -0.9,2 -2,2 z M 18.53,10.19 C 18.21,9.47 17.49,9 16.7,9 H 7.3 C 6.51,9 5.79,9.47 5.47,10.19 L 2,18 H 22 Z M 9.5,16 h -1 C 8.22,16 8,15.78 8,15.5 8,15.22 8.22,15 8.5,15 h 1 C 9.78,15 10,15.22 10,15.5 10,15.78 9.78,16 9.5,16 Z m 0,-2 h -1 C 8.22,14 8,13.78 8,13.5 8,13.22 8.22,13 8.5,13 h 1 C 9.78,13 10,13.22 10,13.5 10,13.78 9.78,14 9.5,14 Z m 0,-2 h -1 C 8.22,12 8,11.78 8,11.5 8,11.22 8.22,11 8.5,11 h 1 C 9.78,11 10,11.22 10,11.5 10,11.78 9.78,12 9.5,12 Z m 3,4 h -1 C 11.22,16 11,15.78 11,15.5 11,15.22 11.22,15 11.5,15 h 1 c 0.28,0 0.5,0.22 0.5,0.5 0,0.28 -0.22,0.5 -0.5,0.5 z m 0,-2 h -1 C 11.22,14 11,13.78 11,13.5 11,13.22 11.22,13 11.5,13 h 1 c 0.28,0 0.5,0.22 0.5,0.5 0,0.28 -0.22,0.5 -0.5,0.5 z m 0,-2 h -1 C 11.22,12 11,11.78 11,11.5 11,11.22 11.22,11 11.5,11 h 1 c 0.28,0 0.5,0.22 0.5,0.5 0,0.28 -0.22,0.5 -0.5,0.5 z m 3,4 h -1 C 14.22,16 14,15.78 14,15.5 14,15.22 14.22,15 14.5,15 h 1 c 0.28,0 0.5,0.22 0.5,0.5 0,0.28 -0.22,0.5 -0.5,0.5 z m 0,-2 h -1 C 14.22,14 14,13.78 14,13.5 14,13.22 14.22,13 14.5,13 h 1 c 0.28,0 0.5,0.22 0.5,0.5 0,0.28 -0.22,0.5 -0.5,0.5 z m 0,-2 h -1 C 14.22,12 14,11.78 14,11.5 14,11.22 14.22,11 14.5,11 h 1 c 0.28,0 0.5,0.22 0.5,0.5 0,0.28 -0.22,0.5 -0.5,0.5 z"
     id="path4" />
</svg>
