<?xml version="1.0" encoding="UTF-8" standalone="no"?>
<svg
   enable-background="new 0 0 24 24"
   height="24"
   viewBox="0 0 24 24"
   width="24"
   version="1.1"
   id="svg10"
   sodipodi:docname="toys.svg"
   inkscape:version="1.2 (dc2aeda, 2022-05-15)"
   xmlns:inkscape="http://www.inkscape.org/namespaces/inkscape"
   xmlns:sodipodi="http://sodipodi.sourceforge.net/DTD/sodipodi-0.dtd"
   xmlns="http://www.w3.org/2000/svg"
   xmlns:svg="http://www.w3.org/2000/svg">
  <defs
     id="defs14" />
  <sodipodi:namedview
     id="namedview12"
     pagecolor="#ffffff"
     bordercolor="#000000"
     borderopacity="0.25"
     inkscape:showpageshadow="2"
     inkscape:pageopacity="0.0"
     inkscape:pagecheckerboard="0"
     inkscape:deskcolor="#d1d1d1"
     showgrid="false"
     inkscape:zoom="9.8333333"
     inkscape:cx="-4.4237288"
     inkscape:cy="12"
     inkscape:window-width="1309"
     inkscape:window-height="456"
     inkscape:window-x="0"
     inkscape:window-y="25"
     inkscape:window-maximized="0"
     inkscape:current-layer="svg10" />

  <path
     d="m 22,14 c 0,-1.95 -1.4,-3.57 -3.25,-3.92 L 17.4,6.05 C 17,4.82 15.85,4 14.56,4 H 9.44 C 8.15,4 7,4.82 6.6,6.05 L 5.81,8.4 4.41,7 4.7,6.71 C 5.09,6.32 5.09,5.69 4.7,5.3 4.31,4.91 3.68,4.91 3.29,5.3 l -2,2 C 0.9,7.69 0.9,8.32 1.29,8.71 1.68,9.1 2.31,9.1 2.7,8.71 L 3,8.41 4.79,10.2 C 3.18,10.72 2,12.22 2,14 2,15.5 2.83,16.79 4.05,17.48 4.28,18.9 5.51,20 7,20 8.3,20 9.4,19.16 9.82,18 h 4.37 c 0.41,1.16 1.51,2 2.82,2 1.49,0 2.72,-1.1 2.95,-2.52 C 21.17,16.79 22,15.5 22,14 Z M 7,18 c -0.55,0 -1,-0.45 -1,-1 0,-0.55 0.45,-1 1,-1 0.55,0 1,0.45 1,1 0,0.55 -0.45,1 -1,1 z m 4,-8 H 7.41 L 7.39,9.98 8.49,6.68 C 8.63,6.27 9.01,6 9.44,6 H 11 Z m 2,-4 h 1.56 c 0.43,0 0.81,0.27 0.95,0.68 L 16.61,10 H 13 Z m 4,12 c -0.55,0 -1,-0.45 -1,-1 0,-0.55 0.45,-1 1,-1 0.55,0 1,0.45 1,1 0,0.55 -0.45,1 -1,1 z"
     id="path6" />
</svg>
