<?xml version="1.0" encoding="UTF-8" standalone="no"?>
<svg
   enable-background="new 0 0 24 24"
   height="24"
   viewBox="0 0 24 24"
   width="24"
   version="1.1"
   id="svg14"
   sodipodi:docname="watch_off.svg"
   inkscape:version="1.2 (dc2aeda, 2022-05-15)"
   xmlns:inkscape="http://www.inkscape.org/namespaces/inkscape"
   xmlns:sodipodi="http://sodipodi.sourceforge.net/DTD/sodipodi-0.dtd"
   xmlns="http://www.w3.org/2000/svg"
   xmlns:svg="http://www.w3.org/2000/svg">
  <defs
     id="defs18" />
  <sodipodi:namedview
     id="namedview16"
     pagecolor="#ffffff"
     bordercolor="#000000"
     borderopacity="0.25"
     inkscape:showpageshadow="2"
     inkscape:pageopacity="0.0"
     inkscape:pagecheckerboard="0"
     inkscape:deskcolor="#d1d1d1"
     showgrid="false"
     inkscape:zoom="9.8333333"
     inkscape:cx="-4.4237288"
     inkscape:cy="12"
     inkscape:window-width="1309"
     inkscape:window-height="456"
     inkscape:window-x="0"
     inkscape:window-y="25"
     inkscape:window-maximized="0"
     inkscape:current-layer="svg14" />
  <path
     id="rect2"
     style="fill:none"
     d="M 0,0 H 24 V 24 H 0 Z" />
  <path
     d="m 12,7 c 2.76,0 5,2.24 5,5 0,0.64 -0.13,1.25 -0.35,1.82 l 1.5,1.5 C 18.69,14.33 19,13.2 19,12 19,9.78 17.97,7.81 16.36,6.53 L 15,2 H 9 L 8.04,5.21 10.18,7.35 C 10.75,7.13 11.36,7 12,7 Z"
     id="path6" />
  <path
     d="M 2.81,2.81 1.39,4.22 5.85,8.68 C 5.31,9.67 5,10.8 5,12 c 0,2.22 1.03,4.19 2.64,5.47 L 9,22 h 6 l 0.96,-3.21 3.82,3.82 1.41,-1.41 z M 12,17 C 9.24,17 7,14.76 7,12 7,11.36 7.13,10.75 7.35,10.18 l 6.47,6.47 C 13.25,16.87 12.64,17 12,17 Z"
     id="path8" />
</svg>
