<?xml version="1.0" encoding="UTF-8" standalone="no"?>
<!-- Created with Inkscape (http://www.inkscape.org/) -->

<svg
   version="1.1"
   id="svg37857"
   width="793.70135"
   height="793.70135"
   viewBox="0 0 793.70135 793.70135"
   sodipodi:docname="chousokabe.svg"
   inkscape:version="1.2 (dc2aeda, 2022-05-15)"
   xmlns:inkscape="http://www.inkscape.org/namespaces/inkscape"
   xmlns:sodipodi="http://sodipodi.sourceforge.net/DTD/sodipodi-0.dtd"
   xmlns="http://www.w3.org/2000/svg"
   xmlns:svg="http://www.w3.org/2000/svg">
  <defs
     id="defs37861">
    <clipPath
       clipPathUnits="userSpaceOnUse"
       id="clipPath38757">
      <path
         d="M -553.8975,585.8483 H 41.378497 V -9.4277 H -553.8975 Z"
         id="path38759"
         style="stroke-width:0.999998" />
    </clipPath>
    <clipPath
       clipPathUnits="userSpaceOnUse"
       id="clipPath38763">
      <path
         d="m -172.9512,111.6681 h 595.276 v -595.276 h -595.276 z"
         id="path38765"
         style="stroke-width:0.999998" />
    </clipPath>
    <clipPath
       clipPathUnits="userSpaceOnUse"
       id="clipPath38769">
      <path
         d="M -567.7754,585.8522 H 27.500597 V -9.4238 H -567.7754 Z"
         id="path38771"
         style="stroke-width:0.999998" />
    </clipPath>
    <clipPath
       clipPathUnits="userSpaceOnUse"
       id="clipPath38775">
      <path
         d="M -528.0898,575.3815 H 67.186197 V -19.8945 H -528.0898 Z"
         id="path38777"
         style="stroke-width:0.999998" />
    </clipPath>
    <clipPath
       clipPathUnits="userSpaceOnUse"
       id="clipPath38781">
      <path
         d="M -536.6982,584.5729 H 58.577797 V -10.7031 H -536.6982 Z"
         id="path38783"
         style="stroke-width:0.999998" />
    </clipPath>
    <clipPath
       clipPathUnits="userSpaceOnUse"
       id="clipPath38787">
      <path
         d="m -265.9063,315.9401 h 595.276 v -595.276 h -595.276 z"
         id="path38789"
         style="stroke-width:0.999998" />
    </clipPath>
    <clipPath
       clipPathUnits="userSpaceOnUse"
       id="clipPath38793">
      <path
         d="M -556.4014,578.0143 H 38.874597 V -17.2617 H -556.4014 Z"
         id="path38795"
         style="stroke-width:0.999998" />
    </clipPath>
    <clipPath
       clipPathUnits="userSpaceOnUse"
       id="clipPath38799">
      <path
         d="m -311.0439,297.6388 h 595.276 v -595.276 h -595.276 z"
         id="path38801"
         style="stroke-width:0.999998" />
    </clipPath>
    <clipPath
       clipPathUnits="userSpaceOnUse"
       id="clipPath38805">
      <path
         d="M -564.5732,585.8483 H 30.702797 V -9.4277 H -564.5732 Z"
         id="path38807"
         style="stroke-width:0.999998" />
    </clipPath>
    <clipPath
       clipPathUnits="userSpaceOnUse"
       id="clipPath38811">
      <path
         d="m -74.2422,312.6432 h 595.276 v -595.276 h -595.276 z"
         id="path38813"
         style="stroke-width:0.999998" />
    </clipPath>
    <clipPath
       clipPathUnits="userSpaceOnUse"
       id="clipPath38817">
      <path
         d="m -462.9883,462.9889 h 595.276 v -595.276 h -595.276 z"
         id="path38819"
         style="stroke-width:0.999998" />
    </clipPath>
    <clipPath
       clipPathUnits="userSpaceOnUse"
       id="clipPath38823">
      <path
         d="M -538.2217,577.9479 H 57.054297 V -17.3281 H -538.2217 Z"
         id="path38825"
         style="stroke-width:0.999998" />
    </clipPath>
    <clipPath
       clipPathUnits="userSpaceOnUse"
       id="clipPath38829">
      <path
         d="M -561.4131,585.8522 H 33.862897 V -9.4238 H -561.4131 Z"
         id="path38831"
         style="stroke-width:0.999998" />
    </clipPath>
    <clipPath
       clipPathUnits="userSpaceOnUse"
       id="clipPath38835">
      <path
         d="M -557.0645,585.8483 H 38.211497 V -9.4277 H -557.0645 Z"
         id="path38837"
         style="stroke-width:0.999998" />
    </clipPath>
    <clipPath
       clipPathUnits="userSpaceOnUse"
       id="clipPath38842">
      <path
         d="M -542.9326,584.5729 H 52.343397 V -10.7031 H -542.9326 Z"
         id="path38844"
         style="stroke-width:0.999998" />
    </clipPath>
    <clipPath
       clipPathUnits="userSpaceOnUse"
       id="clipPath38848">
      <path
         d="M -572.8174,586.1354 H 22.458597 V -9.1406 H -572.8174 Z"
         id="path38850"
         style="stroke-width:0.999998" />
    </clipPath>
    <clipPath
       clipPathUnits="userSpaceOnUse"
       id="clipPath38854">
      <path
         d="M -574.5459,585.8522 H 20.730097 V -9.4238 H -574.5459 Z"
         id="path38856"
         style="stroke-width:0.999998" />
    </clipPath>
    <clipPath
       clipPathUnits="userSpaceOnUse"
       id="clipPath38860">
      <path
         d="M -576.3691,585.5885 H 18.906897 V -9.6875 H -576.3691 Z"
         id="path38862"
         style="stroke-width:0.999998" />
    </clipPath>
    <clipPath
       clipPathUnits="userSpaceOnUse"
       id="clipPath38866">
      <path
         d="M -557.4951,577.8502 H 37.780897 V -17.4258 H -557.4951 Z"
         id="path38868"
         style="stroke-width:0.999998" />
    </clipPath>
    <clipPath
       clipPathUnits="userSpaceOnUse"
       id="clipPath38872">
      <path
         d="M -568.2266,575.819 H 27.049397 V -19.457 H -568.2266 Z"
         id="path38874"
         style="stroke-width:0.999998" />
    </clipPath>
    <clipPath
       clipPathUnits="userSpaceOnUse"
       id="clipPath38878">
      <path
         d="M -550.2637,577.3248 H 45.012297 V -17.9512 H -550.2637 Z"
         id="path38880"
         style="stroke-width:0.999998" />
    </clipPath>
    <clipPath
       clipPathUnits="userSpaceOnUse"
       id="clipPath38884">
      <path
         d="M -531.1924,581.5885 H 64.083597 V -13.6875 H -531.1924 Z"
         id="path38886"
         style="stroke-width:0.999998" />
    </clipPath>
    <clipPath
       clipPathUnits="userSpaceOnUse"
       id="clipPath38890">
      <path
         d="M -548.9834,585.8522 H 46.292597 V -9.4238 H -548.9834 Z"
         id="path38892"
         style="stroke-width:0.999998" />
    </clipPath>
    <clipPath
       clipPathUnits="userSpaceOnUse"
       id="clipPath38897">
      <path
         d="m -297.6719,260.9987 h 595.276 v -595.276 h -595.276 z"
         id="path38899"
         style="stroke-width:0.999998" />
    </clipPath>
    <clipPath
       clipPathUnits="userSpaceOnUse"
       id="clipPath38903">
      <path
         d="m -396.3193,498.6334 h 595.276 v -595.276 h -595.276 z"
         id="path38905"
         style="stroke-width:0.999998" />
    </clipPath>
    <clipPath
       clipPathUnits="userSpaceOnUse"
       id="clipPath38909">
      <path
         d="m -297.6191,110.8331 h 595.276 v -595.276 h -595.276 z"
         id="path38911"
         style="stroke-width:0.999998" />
    </clipPath>
    <clipPath
       clipPathUnits="userSpaceOnUse"
       id="clipPath38915">
      <path
         d="m -396.3545,96.6652 h 595.276 v -595.276 h -595.276 z"
         id="path38917"
         style="stroke-width:0.999998" />
    </clipPath>
    <clipPath
       clipPathUnits="userSpaceOnUse"
       id="clipPath38921">
      <path
         d="m -284.2471,74.1935 h 595.276 v -595.276 h -595.276 z"
         id="path38923"
         style="stroke-width:0.999998" />
    </clipPath>
    <clipPath
       clipPathUnits="userSpaceOnUse"
       id="clipPath38927">
      <path
         d="m -198.9717,96.6456 h 595.276 v -595.276 h -595.276 z"
         id="path38929"
         style="stroke-width:0.999998" />
    </clipPath>
    <clipPath
       clipPathUnits="userSpaceOnUse"
       id="clipPath38933">
      <path
         d="m -459.4111,204.2135 h 595.276 v -595.276 h -595.276 z"
         id="path38935"
         style="stroke-width:0.999998" />
    </clipPath>
    <clipPath
       clipPathUnits="userSpaceOnUse"
       id="clipPath38939">
      <path
         d="M -521.0488,282.6368 H 74.227197 v -595.276 H -521.0488 Z"
         id="path38941"
         style="stroke-width:0.999998" />
    </clipPath>
    <clipPath
       clipPathUnits="userSpaceOnUse"
       id="clipPath38945">
      <path
         d="m -484.4561,174.3131 h 595.276 v -595.276 h -595.276 z"
         id="path38947"
         style="stroke-width:0.999998" />
    </clipPath>
    <clipPath
       clipPathUnits="userSpaceOnUse"
       id="clipPath38951">
      <path
         d="m -422.374,111.6886 h 595.276 v -595.276 h -595.276 z"
         id="path38953"
         style="stroke-width:0.999998" />
    </clipPath>
    <clipPath
       clipPathUnits="userSpaceOnUse"
       id="clipPath38957">
      <path
         d="m -135.8799,391.0651 h 595.276 v -595.276 h -595.276 z"
         id="path38959"
         style="stroke-width:0.999998" />
    </clipPath>
    <clipPath
       clipPathUnits="userSpaceOnUse"
       id="clipPath38963">
      <path
         d="m -110.835,420.9655 h 595.276 v -595.276 h -595.276 z"
         id="path38965"
         style="stroke-width:0.999998" />
    </clipPath>
    <clipPath
       clipPathUnits="userSpaceOnUse"
       id="clipPath38969">
      <path
         d="m -172.917,483.5905 h 595.276 v -595.276 h -595.276 z"
         id="path38971"
         style="stroke-width:0.999998" />
    </clipPath>
    <clipPath
       clipPathUnits="userSpaceOnUse"
       id="clipPath38975">
      <path
         d="m -135.8535,204.2594 h 595.276 v -595.276 h -595.276 z"
         id="path38977"
         style="stroke-width:0.999998" />
    </clipPath>
    <clipPath
       clipPathUnits="userSpaceOnUse"
       id="clipPath38981">
      <path
         d="m -97.4365,197.5201 h 595.276 v -595.276 h -595.276 z"
         id="path38983"
         style="stroke-width:0.999998" />
    </clipPath>
    <clipPath
       clipPathUnits="userSpaceOnUse"
       id="clipPath38988">
      <path
         d="m -459.4375,391.0201 h 595.276 v -595.276 h -595.276 z"
         id="path38990"
         style="stroke-width:0.999998" />
    </clipPath>
    <clipPath
       clipPathUnits="userSpaceOnUse"
       id="clipPath38995">
      <path
         d="M -497.8545,397.7584 H 97.421497 v -595.276 H -497.8545 Z"
         id="path38997"
         style="stroke-width:0.999998" />
    </clipPath>
    <clipPath
       clipPathUnits="userSpaceOnUse"
       id="clipPath39001">
      <path
         d="M -521.0488,312.6822 H 74.227197 v -595.276 H -521.0488 Z"
         id="path39003"
         style="stroke-width:0.999998" />
    </clipPath>
    <clipPath
       clipPathUnits="userSpaceOnUse"
       id="clipPath39007">
      <path
         d="m -329.3691,315.9791 h 595.276 v -595.276 h -595.276 z"
         id="path39009"
         style="stroke-width:0.999998" />
    </clipPath>
    <clipPath
       clipPathUnits="userSpaceOnUse"
       id="clipPath39013">
      <path
         d="m -297.6719,484.4459 h 595.276 v -595.276 h -595.276 z"
         id="path39015"
         style="stroke-width:0.999998" />
    </clipPath>
    <clipPath
       clipPathUnits="userSpaceOnUse"
       id="clipPath39019">
      <path
         d="m -198.9365,498.6139 h 595.276 v -595.276 h -595.276 z"
         id="path39021"
         style="stroke-width:0.999998" />
    </clipPath>
    <clipPath
       clipPathUnits="userSpaceOnUse"
       id="clipPath39025">
      <path
         d="m -311.0439,521.0846 h 595.276 v -595.276 h -595.276 z"
         id="path39027"
         style="stroke-width:0.999998" />
    </clipPath>
    <clipPath
       clipPathUnits="userSpaceOnUse"
       id="clipPath39031">
      <path
         d="M -586.5449,579.5026 H 8.7310974 V -15.7734 H -586.5449 Z"
         id="path39033"
         style="stroke-width:0.999998" />
    </clipPath>
    <clipPath
       clipPathUnits="userSpaceOnUse"
       id="clipPath39037">
      <path
         d="M -584.1943,578.9381 H 11.081697 V -16.3379 H -584.1943 Z"
         id="path39039"
         style="stroke-width:0.999998" />
    </clipPath>
    <clipPath
       clipPathUnits="userSpaceOnUse"
       id="clipPath39043">
      <path
         d="M -540.8213,585.8483 H 54.454697 V -9.4277 H -540.8213 Z"
         id="path39045"
         style="stroke-width:0.999998" />
    </clipPath>
    <clipPath
       clipPathUnits="userSpaceOnUse"
       id="clipPath39049">
      <path
         d="M -545.417,584.5729 H 49.858997 V -10.7031 H -545.417 Z"
         id="path39051"
         style="stroke-width:0.999998" />
    </clipPath>
  </defs>
  <sodipodi:namedview
     id="namedview37859"
     pagecolor="#ffffff"
     bordercolor="#000000"
     borderopacity="0.25"
     inkscape:showpageshadow="2"
     inkscape:pageopacity="0.0"
     inkscape:pagecheckerboard="0"
     inkscape:deskcolor="#d1d1d1"
     showgrid="false"
     inkscape:zoom="0.29734106"
     inkscape:cx="-215.24105"
     inkscape:cy="396.85068"
     inkscape:window-width="1419"
     inkscape:window-height="456"
     inkscape:window-x="0"
     inkscape:window-y="25"
     inkscape:window-maximized="0"
     inkscape:current-layer="svg37857">
    <inkscape:page
       x="0"
       y="0"
       id="page37863"
       width="793.70135"
       height="793.70135" />
  </sodipodi:namedview>
  <path
     d="M 617.316,617.319 C 560.725,673.827 483.115,708.616 396.846,708.641 310.579,708.616 232.969,673.827 176.382,617.319 119.876,560.728 85.0865,483.119 85.0598,396.855 85.0865,310.584 119.876,232.977 176.382,176.383 232.969,119.879 310.579,85.0908 396.846,85.0628 c 86.269,0.028 163.879,34.8162 220.47,91.3202 56.502,56.59 91.292,134.201 91.318,220.472 -0.026,86.264 -34.816,163.873 -91.318,220.464 M 396.848,31.7309 c -201.65,0 -365.1201,163.4711 -365.1201,365.1231 0,201.653 163.4701,365.123 365.1201,365.123 201.653,0 365.121,-163.47 365.121,-365.123 0,-201.652 -163.468,-365.1231 -365.121,-365.1231"
     style="fill:#000000;fill-opacity:1;fill-rule:nonzero;stroke:none"
     id="path37977" />
  <path
     d="m 414.724,396.853 c 0,9.86 -7.986,17.852 -17.853,17.852 -9.851,0 -17.843,-7.992 -17.843,-17.852 0,-9.858 7.992,-17.847 17.843,-17.847 9.867,0 17.853,7.989 17.853,17.847"
     style="fill:#000000;fill-opacity:1;fill-rule:nonzero;stroke:none"
     id="path37981" />
  <path
     d="m 396.895,347.999 9.54,9.372 c 0,0 -3.275,4.015 -5.06,9.818 -0.693,2.265 -1.095,4.416 -1.323,6.216 6.419,0.852 12.024,4.273 15.748,9.198 4.886,-3.824 10.759,-8.633 18.695,-13.24 14.429,-8.382 18.66,-9.054 27.785,-13.612 15.365,-7.674 27.329,-27.224 27.329,-47.499 0,-30.332 -24.593,-54.926 -54.925,-54.926 -14.644,0 -27.946,5.728 -37.789,15.067 -9.839,-9.339 -23.144,-15.067 -37.788,-15.067 -30.336,0 -54.925,24.594 -54.925,54.926 0,20.275 11.961,39.825 27.327,47.499 9.125,4.558 13.357,5.23 27.787,13.612 7.935,4.607 13.812,9.416 18.695,13.24 3.723,-4.925 9.328,-8.346 15.748,-9.198 -0.228,-1.8 -0.628,-3.951 -1.324,-6.216 -1.785,-5.803 -5.061,-9.818 -5.061,-9.818 z"
     style="fill:#000000;fill-opacity:1;fill-rule:nonzero;stroke:none"
     id="path37985" />
  <path
     d="m 354.54,421.254 3.347,-12.948 c 0,0 5.115,0.828 11.032,-0.528 2.307,-0.529 4.372,-1.259 6.044,-1.961 -2.472,-5.982 -2.311,-12.551 0.096,-18.238 -5.757,-2.318 -12.859,-5.002 -20.82,-9.569 -14.469,-8.308 -17.171,-11.635 -25.677,-17.256 -14.329,-9.473 -37.243,-10.057 -54.799,0.08 -26.272,15.167 -35.274,48.761 -20.108,75.029 7.324,12.68 18.936,21.339 31.947,25.193 -3.169,13.195 -1.479,27.578 5.845,40.258 15.164,26.27 48.757,35.273 75.029,20.109 17.558,-10.143 28.507,-30.276 27.474,-47.419 -0.619,-10.18 -2.151,-14.185 -2.108,-30.87 0.024,-9.177 1.25,-16.669 2.118,-22.812 -6.128,-0.759 -11.892,-3.904 -15.838,-9.037 -1.447,1.1 -3.11,2.518 -4.72,4.253 -4.135,4.448 -5.975,9.292 -5.975,9.292 z"
     style="fill:#000000;fill-opacity:1;fill-rule:nonzero;stroke:none"
     id="path37989" />
  <path
     d="m 439.158,421.306 -12.887,3.576 c 0,0 -1.84,-4.844 -5.975,-9.292 -1.61,-1.732 -3.273,-3.153 -4.717,-4.253 -3.947,5.133 -9.716,8.276 -15.84,9.037 0.867,6.143 2.093,13.635 2.115,22.812 0.045,16.688 -1.487,20.69 -2.106,30.868 -1.033,17.145 9.916,37.28 27.474,47.416 26.272,15.166 59.865,6.169 75.031,-20.102 7.322,-12.682 9.012,-27.068 5.844,-40.26 13.01,-3.857 24.622,-12.507 31.946,-25.19 15.166,-26.271 6.164,-59.865 -20.107,-75.032 -17.557,-10.137 -40.469,-9.552 -54.8,-0.081 -8.506,5.621 -11.208,8.95 -25.677,17.256 -7.961,4.568 -15.063,7.252 -20.82,9.572 2.408,5.685 2.568,12.254 0.096,18.236 1.675,0.702 3.737,1.432 6.044,1.964 5.917,1.353 11.033,0.522 11.033,0.522 z"
     style="fill:#000000;fill-opacity:1;fill-rule:nonzero;stroke:none"
     id="path37993" />
  <path
     d="m 396.895,645.928 9.54,9.369 c 0,0 -3.275,4.016 -5.06,9.822 -0.693,2.262 -1.095,4.413 -1.323,6.213 6.419,0.851 12.024,4.273 15.748,9.2 4.886,-3.823 10.759,-8.632 18.695,-13.243 14.429,-8.38 18.66,-9.054 27.785,-13.61 15.365,-7.675 27.329,-27.224 27.329,-47.499 0,-30.333 -24.593,-54.926 -54.925,-54.926 -14.644,0 -27.946,5.726 -37.789,15.068 -9.839,-9.342 -23.144,-15.068 -37.788,-15.068 -30.336,0 -54.925,24.593 -54.925,54.926 0,20.275 11.961,39.824 27.327,47.499 9.125,4.556 13.357,5.23 27.787,13.61 7.935,4.611 13.812,9.42 18.695,13.243 3.723,-4.927 9.328,-8.349 15.748,-9.2 -0.228,-1.8 -0.628,-3.951 -1.324,-6.213 -1.785,-5.806 -5.061,-9.822 -5.061,-9.822 z"
     style="fill:#000000;fill-opacity:1;fill-rule:nonzero;stroke:none"
     id="path37997" />
  <path
     d="m 265.247,664.819 c 32.975,16.242 69.368,26.543 107.941,29.562 0.047,-3.055 0.684,-6.071 1.87,-8.872 -5.756,-2.319 -12.858,-5.005 -20.819,-9.571 -14.469,-8.307 -17.171,-11.635 -25.678,-17.258 -14.33,-9.471 -37.242,-10.055 -54.798,0.081 -3.081,1.779 -5.921,3.812 -8.516,6.058"
     style="fill:#000000;fill-opacity:1;fill-rule:nonzero;stroke:none"
     id="path38001" />
  <path
     d="m 414.724,694.779 c 0,-9.86 -7.986,-17.846 -17.853,-17.846 -9.851,0 -17.84,7.989 -17.84,17.849 5.893,0.347 11.836,0.524 17.821,0.525 6.004,-0.001 11.962,-0.178 17.872,-0.528"
     style="fill:#000000;fill-opacity:1;fill-rule:nonzero;stroke:none"
     id="path38005" />
  <path
     d="m 528.424,664.845 c -2.587,-2.235 -5.419,-4.258 -8.488,-6.031 -17.557,-10.136 -40.469,-9.551 -54.8,-0.081 -8.508,5.622 -11.208,8.95 -25.678,17.257 -7.96,4.565 -15.062,7.25 -20.819,9.57 1.18,2.787 1.819,5.784 1.873,8.82 38.563,-3.017 74.947,-13.306 107.912,-29.535"
     style="fill:#000000;fill-opacity:1;fill-rule:nonzero;stroke:none"
     id="path38009" />
  <path
     d="m 396.824,147.779 -9.54,-9.371 c 0,0 3.275,-4.015 5.06,-9.82 0.694,-2.263 1.095,-4.413 1.323,-6.213 -6.419,-0.851 -12.024,-4.275 -15.748,-9.2 -4.885,3.822 -10.759,8.632 -18.695,13.241 -14.429,8.381 -18.66,9.056 -27.785,13.612 -15.365,7.675 -27.329,27.223 -27.329,47.499 0,30.333 24.593,54.926 54.925,54.926 14.644,0 27.947,-5.728 37.789,-15.068 9.839,9.34 23.144,15.068 37.788,15.068 30.336,0 54.925,-24.593 54.925,-54.926 0,-20.276 -11.961,-39.824 -27.326,-47.499 -9.125,-4.556 -13.357,-5.231 -27.788,-13.612 -7.935,-4.609 -13.812,-9.419 -18.695,-13.241 -3.722,4.925 -9.328,8.349 -15.748,9.2 0.228,1.8 0.628,3.95 1.324,6.213 1.786,5.805 5.062,9.82 5.062,9.82 z"
     style="fill:#000000;fill-opacity:1;fill-rule:nonzero;stroke:none"
     id="path38013" />
  <path
     d="M 528.471,128.888 C 495.496,112.645 459.103,102.344 420.53,99.3254 c -0.047,3.0546 -0.684,6.0706 -1.87,8.8716 5.756,2.319 12.858,5.004 20.819,9.571 14.469,8.308 17.171,11.636 25.679,17.259 14.329,9.47 37.241,10.054 54.797,-0.083 3.081,-1.779 5.921,-3.812 8.516,-6.056"
     style="fill:#000000;fill-opacity:1;fill-rule:nonzero;stroke:none"
     id="path38017" />
  <path
     d="m 378.995,98.9267 c 0,9.8603 7.987,17.8463 17.853,17.8463 9.851,0 17.84,-7.988 17.84,-17.8476 -5.893,-0.3467 -11.836,-0.5253 -17.821,-0.5267 -6.004,0.0014 -11.961,0.1787 -17.872,0.528"
     style="fill:#000000;fill-opacity:1;fill-rule:nonzero;stroke:none"
     id="path38021" />
  <path
     d="m 265.295,128.863 c 2.587,2.234 5.419,4.257 8.488,6.029 17.558,10.137 40.47,9.552 54.8,0.083 8.508,-5.623 11.208,-8.952 25.679,-17.258 7.96,-4.566 15.061,-7.252 20.818,-9.57 -1.18,-2.787 -1.818,-5.784 -1.873,-8.8203 -38.563,3.0163 -74.946,13.3063 -107.912,29.5363"
     style="fill:#000000;fill-opacity:1;fill-rule:nonzero;stroke:none"
     id="path38025" />
  <path
     d="m 612.546,272.286 3.346,-12.946 c 0,0 5.114,0.828 11.033,-0.528 2.308,-0.531 4.371,-1.259 6.043,-1.962 -2.472,-5.984 -2.31,-12.55 0.094,-18.237 -5.754,-2.32 -12.856,-5.001 -20.816,-9.571 -14.471,-8.306 -17.171,-11.632 -25.679,-17.256 -14.33,-9.469 -37.242,-10.056 -54.8,0.082 -26.27,15.166 -35.271,48.761 -20.106,75.029 7.322,12.681 18.934,21.339 31.944,25.193 -3.169,13.191 -1.476,27.577 5.846,40.257 15.168,26.274 48.761,35.272 75.03,20.106 17.559,-10.139 28.507,-30.271 27.472,-47.416 -0.617,-10.18 -2.149,-14.183 -2.105,-30.871 0.022,-9.176 1.249,-16.67 2.117,-22.81 -6.125,-0.762 -11.893,-3.904 -15.84,-9.038 -1.444,1.098 -3.107,2.519 -4.719,4.254 -4.134,4.448 -5.973,9.293 -5.973,9.293 z"
     style="fill:#000000;fill-opacity:1;fill-rule:nonzero;stroke:none"
     id="path38029" />
  <path
     d="m 694.73,376.85 c -2.421,-36.679 -11.696,-73.346 -28.369,-108.261 -2.668,1.487 -5.599,2.444 -8.619,2.817 0.871,6.144 2.096,13.638 2.123,22.815 0.04,16.685 -1.493,20.688 -2.107,30.867 -1.038,17.146 9.912,37.281 27.47,47.415 3.081,1.779 6.261,3.222 9.502,4.347"
     style="fill:#000000;fill-opacity:1;fill-rule:nonzero;stroke:none"
     id="path38033" />
  <path
     d="m 645.94,232.418 c -8.539,4.93 -11.463,15.84 -6.528,24.386 4.925,8.53 15.836,11.454 24.376,6.525 -2.648,-5.277 -5.464,-10.513 -8.455,-15.696 -3.004,-5.199 -6.137,-10.271 -9.393,-15.215"
     style="fill:#000000;fill-opacity:1;fill-rule:nonzero;stroke:none"
     id="path38037" />
  <path
     d="m 563.164,148.92 c -0.641,3.359 -0.977,6.823 -0.977,10.367 0,20.272 11.962,39.822 27.328,47.498 9.122,4.556 13.355,5.231 27.785,13.608 7.934,4.612 13.81,9.42 18.697,13.245 1.823,-2.414 4.099,-4.468 6.701,-6.032 -21.894,-31.888 -48.997,-58.251 -79.534,-78.686"
     style="fill:#000000;fill-opacity:1;fill-rule:nonzero;stroke:none"
     id="path38041" />
  <path
     d="m 181.173,521.42 -3.345,12.948 c 0,0 -5.115,-0.828 -11.034,0.528 -2.308,0.53 -4.372,1.259 -6.042,1.962 2.47,5.984 2.309,12.549 -0.095,18.237 5.753,2.32 12.856,5.003 20.815,9.571 14.473,8.304 17.173,11.632 25.679,17.257 14.331,9.467 37.243,10.055 54.802,-0.084 26.269,-15.167 35.27,-48.76 20.104,-75.028 -7.322,-12.683 -18.934,-21.339 -31.943,-25.193 3.169,-13.19 1.476,-27.577 -5.845,-40.26 -15.168,-26.271 -48.761,-35.268 -75.031,-20.101 -17.558,10.136 -28.506,30.268 -27.472,47.413 0.618,10.18 2.15,14.182 2.106,30.87 -0.023,9.178 -1.25,16.672 -2.119,22.812 6.127,0.762 11.893,3.904 15.841,9.038 1.444,-1.098 3.107,-2.519 4.719,-4.254 4.135,-4.448 5.973,-9.294 5.973,-9.294 z"
     style="fill:#000000;fill-opacity:1;fill-rule:nonzero;stroke:none"
     id="path38045" />
  <path
     d="m 98.9894,416.858 c 2.4216,36.677 11.6956,73.346 28.3676,108.26 2.67,-1.487 5.6,-2.443 8.619,-2.818 -0.871,-6.142 -2.095,-13.637 -2.121,-22.814 -0.04,-16.686 1.492,-20.688 2.106,-30.868 1.039,-17.145 -9.913,-37.279 -27.469,-47.413 -3.081,-1.779 -6.261,-3.222 -9.5026,-4.347"
     style="fill:#000000;fill-opacity:1;fill-rule:nonzero;stroke:none"
     id="path38049" />
  <path
     d="m 147.78,561.288 c 8.537,-4.929 11.462,-15.838 6.528,-24.382 -4.926,-8.532 -15.836,-11.456 -24.376,-6.527 2.648,5.276 5.464,10.513 8.453,15.696 3.005,5.197 6.137,10.271 9.395,15.213"
     style="fill:#000000;fill-opacity:1;fill-rule:nonzero;stroke:none"
     id="path38053" />
  <path
     d="m 230.555,644.787 c 0.64,-3.358 0.978,-6.823 0.978,-10.367 0,-20.273 -11.963,-39.821 -27.33,-47.497 -9.121,-4.557 -13.355,-5.232 -27.785,-13.609 -7.934,-4.612 -13.809,-9.42 -18.696,-13.246 -1.824,2.414 -4.1,4.467 -6.701,6.034 21.893,31.885 48.997,58.25 79.534,78.685"
     style="fill:#000000;fill-opacity:1;fill-rule:nonzero;stroke:none"
     id="path38057" />
  <path
     d="m 181.137,272.346 -12.885,3.578 c 0,0 -1.84,-4.844 -5.975,-9.292 -1.612,-1.734 -3.275,-3.155 -4.72,-4.254 -3.945,5.134 -9.713,8.276 -15.84,9.038 0.868,6.144 2.096,13.634 2.119,22.812 0.044,16.686 -1.488,20.688 -2.104,30.869 -1.035,17.142 9.912,37.278 27.47,47.416 26.27,15.166 59.864,6.165 75.031,-20.104 7.321,-12.68 9.013,-27.065 5.845,-40.259 13.008,-3.852 24.621,-12.51 31.943,-25.192 15.168,-26.272 6.164,-59.864 -20.106,-75.03 -17.558,-10.138 -40.468,-9.554 -54.798,-0.084 -8.508,5.625 -11.208,8.952 -25.681,17.258 -7.959,4.568 -15.063,7.254 -20.815,9.572 2.404,5.686 2.567,12.252 0.095,18.236 1.67,0.703 3.733,1.432 6.042,1.962 5.919,1.356 11.034,0.525 11.034,0.525 z"
     style="fill:#000000;fill-opacity:1;fill-rule:nonzero;stroke:none"
     id="path38061" />
  <path
     d="m 230.601,148.892 c -30.554,20.436 -57.672,46.802 -79.572,78.698 2.621,1.568 4.915,3.627 6.749,6.056 4.886,-3.826 10.762,-8.634 18.696,-13.245 14.431,-8.377 18.663,-9.052 27.785,-13.609 15.368,-7.675 27.33,-27.225 27.328,-47.497 0,-3.558 -0.341,-7.034 -0.986,-10.403"
     style="fill:#000000;fill-opacity:1;fill-rule:nonzero;stroke:none"
     id="path38065" />
  <path
     d="m 129.915,263.361 c 8.539,4.931 19.449,2.005 24.381,-6.539 4.926,-8.532 2.003,-19.442 -6.536,-24.373 -3.246,4.931 -6.373,9.988 -9.366,15.169 -3,5.202 -5.826,10.451 -8.479,15.743"
     style="fill:#000000;fill-opacity:1;fill-rule:nonzero;stroke:none"
     id="path38069" />
  <path
     d="m 98.9907,376.796 c 3.2293,-1.124 6.3973,-2.564 9.4663,-4.337 17.558,-10.135 28.506,-30.27 27.471,-47.414 -0.616,-10.18 -2.148,-14.183 -2.107,-30.868 0.027,-9.178 1.252,-16.67 2.122,-22.815 -3.003,-0.371 -5.919,-1.316 -8.576,-2.788 -16.668,34.905 -25.95,71.559 -28.3763,108.222"
     style="fill:#000000;fill-opacity:1;fill-rule:nonzero;stroke:none"
     id="path38073" />
  <path
     d="m 612.582,521.36 12.886,-3.578 c 0,0 1.84,4.844 5.974,9.292 1.612,1.734 3.276,3.156 4.72,4.253 3.947,-5.133 9.714,-8.273 15.84,-9.037 -0.866,-6.143 -2.096,-13.635 -2.117,-22.81 -0.045,-16.688 1.487,-20.69 2.104,-30.87 1.033,-17.143 -9.913,-37.28 -27.472,-47.416 -26.269,-15.167 -59.864,-6.167 -75.029,20.104 -7.323,12.68 -9.013,27.065 -5.847,40.257 -13.008,3.852 -24.621,12.511 -31.942,25.193 -15.168,26.271 -6.164,59.864 20.105,75.031 17.559,10.136 40.468,9.553 54.799,0.084 8.508,-5.625 11.208,-8.953 25.681,-17.26 7.958,-4.568 15.062,-7.253 20.816,-9.571 -2.406,-5.685 -2.567,-12.253 -0.096,-18.237 -1.671,-0.703 -3.734,-1.432 -6.043,-1.961 -5.919,-1.356 -11.033,-0.526 -11.033,-0.526 z"
     style="fill:#000000;fill-opacity:1;fill-rule:nonzero;stroke:none"
     id="path38077" />
  <path
     d="m 563.118,644.816 c 30.555,-20.437 57.672,-46.805 79.573,-78.7 -2.622,-1.568 -4.916,-3.628 -6.749,-6.055 -4.885,3.826 -10.762,8.632 -18.697,13.244 -14.431,8.378 -18.661,9.052 -27.785,13.61 -15.368,7.674 -27.328,27.224 -27.328,47.497 0,3.557 0.341,7.035 0.986,10.404"
     style="fill:#000000;fill-opacity:1;fill-rule:nonzero;stroke:none"
     id="path38081" />
  <path
     d="m 663.804,530.344 c -8.538,-4.926 -19.45,-2.005 -24.382,6.539 -4.925,8.532 -2.002,19.443 6.536,24.373 3.248,-4.93 6.374,-9.988 9.368,-15.169 2.999,-5.201 5.826,-10.448 8.478,-15.743"
     style="fill:#000000;fill-opacity:1;fill-rule:nonzero;stroke:none"
     id="path38085" />
  <path
     d="m 694.73,416.91 c -3.229,1.125 -6.398,2.565 -9.468,4.336 -17.557,10.137 -28.504,30.271 -27.469,47.416 0.615,10.18 2.148,14.182 2.105,30.868 -0.025,9.177 -1.252,16.669 -2.12,22.814 3.003,0.372 5.919,1.318 8.575,2.787 16.668,-34.904 25.949,-71.557 28.377,-108.221"
     style="fill:#000000;fill-opacity:1;fill-rule:nonzero;stroke:none"
     id="path38089" />
</svg>
