<?xml version="1.0" encoding="UTF-8" standalone="no"?>
<!-- Created with Inkscape (http://www.inkscape.org/) -->

<svg
   version="1.1"
   id="svg44555"
   width="793.70135"
   height="793.70135"
   viewBox="0 0 793.70135 793.70135"
   sodipodi:docname="hanabishi.svg"
   inkscape:version="1.2 (dc2aeda, 2022-05-15)"
   xmlns:inkscape="http://www.inkscape.org/namespaces/inkscape"
   xmlns:sodipodi="http://sodipodi.sourceforge.net/DTD/sodipodi-0.dtd"
   xmlns="http://www.w3.org/2000/svg"
   xmlns:svg="http://www.w3.org/2000/svg">
  <defs
     id="defs44559">
    <clipPath
       clipPathUnits="userSpaceOnUse"
       id="clipPath45127">
      <path
         d="M -567.7754,585.8522 H 27.500597 V -9.4238 H -567.7754 Z"
         id="path45129"
         style="stroke-width:0.999998" />
    </clipPath>
    <clipPath
       clipPathUnits="userSpaceOnUse"
       id="clipPath45133">
      <path
         d="M -545.417,584.5729 H 49.858997 V -10.7031 H -545.417 Z"
         id="path45135"
         style="stroke-width:0.999998" />
    </clipPath>
    <clipPath
       clipPathUnits="userSpaceOnUse"
       id="clipPath45139">
      <path
         d="M -557.0645,585.8483 H 38.211497 V -9.4277 H -557.0645 Z"
         id="path45141"
         style="stroke-width:0.999998" />
    </clipPath>
    <clipPath
       clipPathUnits="userSpaceOnUse"
       id="clipPath45145">
      <path
         d="M -561.4131,585.8522 H 33.862897 V -9.4238 H -561.4131 Z"
         id="path45147"
         style="stroke-width:0.999998" />
    </clipPath>
    <clipPath
       clipPathUnits="userSpaceOnUse"
       id="clipPath45151">
      <path
         d="M -553.8975,585.8483 H 41.378497 V -9.4277 H -553.8975 Z"
         id="path45153"
         style="stroke-width:0.999998" />
    </clipPath>
    <clipPath
       clipPathUnits="userSpaceOnUse"
       id="clipPath45157">
      <path
         d="M -548.9834,585.8522 H 46.292597 V -9.4238 H -548.9834 Z"
         id="path45159"
         style="stroke-width:0.999998" />
    </clipPath>
    <clipPath
       clipPathUnits="userSpaceOnUse"
       id="clipPath45163">
      <path
         d="M -564.5732,585.8483 H 30.702797 V -9.4277 H -564.5732 Z"
         id="path45165"
         style="stroke-width:0.999998" />
    </clipPath>
    <clipPath
       clipPathUnits="userSpaceOnUse"
       id="clipPath45169">
      <path
         d="M -540.8213,585.8483 H 54.454697 V -9.4277 H -540.8213 Z"
         id="path45171"
         style="stroke-width:0.999998" />
    </clipPath>
    <clipPath
       clipPathUnits="userSpaceOnUse"
       id="clipPath45175">
      <path
         d="M -542.9326,584.5729 H 52.343397 V -10.7031 H -542.9326 Z"
         id="path45177"
         style="stroke-width:0.999998" />
    </clipPath>
    <clipPath
       clipPathUnits="userSpaceOnUse"
       id="clipPath45181">
      <path
         d="M -528.0898,575.3815 H 67.186197 V -19.8945 H -528.0898 Z"
         id="path45183"
         style="stroke-width:0.999998" />
    </clipPath>
    <clipPath
       clipPathUnits="userSpaceOnUse"
       id="clipPath45187">
      <path
         d="M -536.6982,584.5729 H 58.577797 V -10.7031 H -536.6982 Z"
         id="path45189"
         style="stroke-width:0.999998" />
    </clipPath>
    <clipPath
       clipPathUnits="userSpaceOnUse"
       id="clipPath45193">
      <path
         d="M -531.1924,581.5885 H 64.083597 V -13.6875 H -531.1924 Z"
         id="path45195"
         style="stroke-width:0.999998" />
    </clipPath>
    <clipPath
       clipPathUnits="userSpaceOnUse"
       id="clipPath45199">
      <path
         d="M -556.4014,578.0143 H 38.874597 V -17.2617 H -556.4014 Z"
         id="path45201"
         style="stroke-width:0.999998" />
    </clipPath>
    <clipPath
       clipPathUnits="userSpaceOnUse"
       id="clipPath45205">
      <path
         d="m -174.2383,297.6412 h 595.276 v -595.276 h -595.276 z"
         id="path45207"
         style="stroke-width:0.999998" />
    </clipPath>
    <clipPath
       clipPathUnits="userSpaceOnUse"
       id="clipPath45211">
      <path
         d="M -576.3691,585.5885 H 18.906897 V -9.6875 H -576.3691 Z"
         id="path45213"
         style="stroke-width:0.999998" />
    </clipPath>
    <clipPath
       clipPathUnits="userSpaceOnUse"
       id="clipPath45217">
      <path
         d="m -297.6377,400.5572 h 595.276 v -595.276 h -595.276 z"
         id="path45219"
         style="stroke-width:0.999998" />
    </clipPath>
    <clipPath
       clipPathUnits="userSpaceOnUse"
       id="clipPath45223">
      <path
         d="m -421.0371,297.6412 h 595.276 v -595.276 h -595.276 z"
         id="path45225"
         style="stroke-width:0.999998" />
    </clipPath>
    <clipPath
       clipPathUnits="userSpaceOnUse"
       id="clipPath45229">
      <path
         d="M -557.4951,577.8502 H 37.780897 V -17.4258 H -557.4951 Z"
         id="path45231"
         style="stroke-width:0.999998" />
    </clipPath>
    <clipPath
       clipPathUnits="userSpaceOnUse"
       id="clipPath45235">
      <path
         d="m -297.6377,194.7242 h 595.276 v -595.276 h -595.276 z"
         id="path45237"
         style="stroke-width:0.999998" />
    </clipPath>
    <clipPath
       clipPathUnits="userSpaceOnUse"
       id="clipPath45242">
      <path
         d="M -572.8174,586.1354 H 22.458597 V -9.1406 H -572.8174 Z"
         id="path45244"
         style="stroke-width:0.999998" />
    </clipPath>
    <clipPath
       clipPathUnits="userSpaceOnUse"
       id="clipPath45248">
      <path
         d="M -574.5459,585.8522 H 20.730097 V -9.4238 H -574.5459 Z"
         id="path45250"
         style="stroke-width:0.999998" />
    </clipPath>
    <clipPath
       clipPathUnits="userSpaceOnUse"
       id="clipPath45254">
      <path
         d="m -333.0146,297.6412 h 595.276 v -595.276 h -595.276 z"
         id="path45256"
         style="stroke-width:0.999998" />
    </clipPath>
    <clipPath
       clipPathUnits="userSpaceOnUse"
       id="clipPath45260">
      <path
         d="M -586.5449,579.5026 H 8.7310974 V -15.7734 H -586.5449 Z"
         id="path45262"
         style="stroke-width:0.999998" />
    </clipPath>
    <clipPath
       clipPathUnits="userSpaceOnUse"
       id="clipPath45266">
      <path
         d="M -584.1943,578.9381 H 11.081697 V -16.3379 H -584.1943 Z"
         id="path45268"
         style="stroke-width:0.999998" />
    </clipPath>
    <clipPath
       clipPathUnits="userSpaceOnUse"
       id="clipPath45272">
      <path
         d="M -538.2217,577.9479 H 57.054297 V -17.3281 H -538.2217 Z"
         id="path45274"
         style="stroke-width:0.999998" />
    </clipPath>
    <clipPath
       clipPathUnits="userSpaceOnUse"
       id="clipPath45278">
      <path
         d="M -568.2266,575.819 H 27.049397 V -19.457 H -568.2266 Z"
         id="path45280"
         style="stroke-width:0.999998" />
    </clipPath>
    <clipPath
       clipPathUnits="userSpaceOnUse"
       id="clipPath45284">
      <path
         d="M -550.2637,577.3248 H 45.012297 V -17.9512 H -550.2637 Z"
         id="path45286"
         style="stroke-width:0.999998" />
    </clipPath>
  </defs>
  <sodipodi:namedview
     id="namedview44557"
     pagecolor="#ffffff"
     bordercolor="#000000"
     borderopacity="0.25"
     inkscape:showpageshadow="2"
     inkscape:pageopacity="0.0"
     inkscape:pagecheckerboard="0"
     inkscape:deskcolor="#d1d1d1"
     showgrid="false"
     inkscape:zoom="0.29734106"
     inkscape:cx="-215.24105"
     inkscape:cy="396.85068"
     inkscape:window-width="1419"
     inkscape:window-height="456"
     inkscape:window-x="0"
     inkscape:window-y="25"
     inkscape:window-maximized="0"
     inkscape:current-layer="svg44555">
    <inkscape:page
       x="0"
       y="0"
       id="page44561"
       width="793.70135"
       height="793.70135" />
  </sodipodi:namedview>
  <path
     d="m 444.019,396.855 c 0,26.052 -21.117,47.17 -47.169,47.17 -26.052,0 -47.17,-21.118 -47.17,-47.17 0,-26.054 21.118,-47.172 47.17,-47.172 26.052,0 47.169,21.118 47.169,47.172"
     style="fill:#000000;fill-opacity:1;fill-rule:nonzero;stroke:none"
     id="path44675" />
  <path
     d="m 396.85,259.633 c 4.033,0 7.301,3.268 7.301,7.299 v 68.579 c 14.405,1.699 27.352,8.411 36.967,18.262 l 82.995,-63.256 c 6.29,-4.969 11.73,-11.244 15.955,-18.629 17.715,-30.968 6.972,-70.43 -23.992,-88.143 -15.831,-9.056 -33.879,-10.676 -50.11,-5.957 -0.831,-37.459 -31.459,-67.572 -69.116,-67.572 -37.658,0 -68.285,30.113 -69.115,67.572 -16.233,-4.719 -34.281,-3.099 -50.112,5.957 -30.964,17.713 -41.706,57.175 -23.992,88.143 4.226,7.385 9.664,13.66 15.955,18.629 l 82.997,63.256 c 9.613,-9.851 22.561,-16.563 36.965,-18.262 v -68.579 c 0,-4.031 3.268,-7.299 7.302,-7.299"
     style="fill:#000000;fill-opacity:1;fill-rule:nonzero;stroke:none"
     id="path44679" />
  <path
     d="m 232.317,396.855 c 0,-4.033 3.264,-7.301 7.297,-7.301 h 95.892 c 1.025,-8.725 3.87,-16.893 8.146,-24.116 L 238.311,285.02 c -13.316,-9.407 -29.566,-14.927 -47.11,-14.927 -42.541,0 -77.483,32.483 -81.397,73.998 H 84.4891 c -29.1399,0 -52.7625,23.623 -52.7625,52.764 0,29.14 23.6226,52.766 52.7625,52.766 h 25.3149 c 3.914,41.51 38.856,73.994 81.397,73.994 17.544,0 33.794,-5.523 47.11,-14.929 l 105.341,-80.412 c -4.276,-7.225 -7.121,-15.391 -8.146,-24.121 h -95.892 c -4.033,0 -7.297,-3.27 -7.297,-7.298"
     style="fill:#000000;fill-opacity:1;fill-rule:nonzero;stroke:none"
     id="path44683" />
  <path
     d="m 396.85,534.076 c -4.034,0 -7.302,-3.27 -7.302,-7.302 v -68.575 c -14.404,-1.701 -27.352,-8.409 -36.965,-18.262 l -82.997,63.251 c -6.291,4.974 -11.729,11.243 -15.955,18.636 -17.714,30.963 -6.972,70.424 23.992,88.137 15.831,9.058 33.879,10.678 50.112,5.956 0.83,37.466 31.457,67.574 69.115,67.574 37.657,0 68.285,-30.108 69.116,-67.574 16.231,4.722 34.279,3.102 50.11,-5.956 30.964,-17.713 41.707,-57.174 23.992,-88.137 -4.225,-7.393 -9.665,-13.662 -15.955,-18.636 l -82.995,-63.251 c -9.615,9.853 -22.562,16.561 -36.967,18.262 v 68.575 c 0,4.032 -3.268,7.302 -7.301,7.302"
     style="fill:#000000;fill-opacity:1;fill-rule:nonzero;stroke:none"
     id="path44687" />
  <path
     d="m 561.381,396.855 c 0,4.028 -3.264,7.298 -7.298,7.298 h -95.889 c -1.027,8.73 -3.872,16.896 -8.15,24.121 l 105.343,80.412 c 13.316,9.406 29.566,14.929 47.11,14.929 42.54,0 77.484,-32.484 81.399,-73.994 h 25.313 c 29.14,0 52.761,-23.626 52.761,-52.766 0,-29.141 -23.621,-52.764 -52.761,-52.764 h -25.313 c -3.915,-41.515 -38.859,-73.998 -81.399,-73.998 -17.544,0 -33.794,5.52 -47.11,14.927 l -105.343,80.418 c 4.278,7.223 7.123,15.391 8.15,24.116 h 95.889 c 4.034,0 7.298,3.268 7.298,7.301"
     style="fill:#000000;fill-opacity:1;fill-rule:nonzero;stroke:none"
     id="path44691" />
</svg>
