<?xml version="1.0" encoding="UTF-8" standalone="no"?>
<!-- Created with Inkscape (http://www.inkscape.org/) -->

<svg
   version="1.1"
   id="svg29350"
   width="795.03467"
   height="793.70135"
   viewBox="0 0 795.03467 793.70135"
   sodipodi:docname="hinomaruougi.svg"
   inkscape:version="1.2 (dc2aeda, 2022-05-15)"
   xmlns:inkscape="http://www.inkscape.org/namespaces/inkscape"
   xmlns:sodipodi="http://sodipodi.sourceforge.net/DTD/sodipodi-0.dtd"
   xmlns="http://www.w3.org/2000/svg"
   xmlns:svg="http://www.w3.org/2000/svg">
  <defs
     id="defs29354">
    <clipPath
       clipPathUnits="userSpaceOnUse"
       id="clipPath29946">
      <path
         d="M -561.4131,585.8522 H 34.862902 V -9.4238 H -561.4131 Z"
         id="path29948"
         style="stroke-width:0.999998" />
    </clipPath>
    <clipPath
       clipPathUnits="userSpaceOnUse"
       id="clipPath29952">
      <path
         d="M -553.8975,585.8483 H 42.378502 V -9.4277 H -553.8975 Z"
         id="path29954"
         style="stroke-width:0.999998" />
    </clipPath>
    <clipPath
       clipPathUnits="userSpaceOnUse"
       id="clipPath29958">
      <path
         d="M -557.0645,585.8483 H 39.211502 V -9.4277 H -557.0645 Z"
         id="path29960"
         style="stroke-width:0.999998" />
    </clipPath>
    <clipPath
       clipPathUnits="userSpaceOnUse"
       id="clipPath29965">
      <path
         d="M -564.5732,585.8483 H 31.702802 V -9.4277 H -564.5732 Z"
         id="path29967"
         style="stroke-width:0.999998" />
    </clipPath>
    <clipPath
       clipPathUnits="userSpaceOnUse"
       id="clipPath29971">
      <path
         d="M -572.8174,586.1354 H 23.458602 V -9.1406 H -572.8174 Z"
         id="path29973"
         style="stroke-width:0.999998" />
    </clipPath>
    <clipPath
       clipPathUnits="userSpaceOnUse"
       id="clipPath29977">
      <path
         d="M -567.7754,585.8522 H 28.500602 V -9.4238 H -567.7754 Z"
         id="path29979"
         style="stroke-width:0.999998" />
    </clipPath>
    <clipPath
       clipPathUnits="userSpaceOnUse"
       id="clipPath29983">
      <path
         d="M -528.0898,575.3815 H 68.186202 V -19.8945 H -528.0898 Z"
         id="path29985"
         style="stroke-width:0.999998" />
    </clipPath>
    <clipPath
       clipPathUnits="userSpaceOnUse"
       id="clipPath29989">
      <path
         d="m -297.6406,295.4889 h 596.276 v -595.276 h -596.276 z"
         id="path29991"
         style="stroke-width:0.999998" />
    </clipPath>
    <clipPath
       clipPathUnits="userSpaceOnUse"
       id="clipPath29996">
      <path
         d="m -304.2393,313.819 h 596.276 v -595.276 h -596.276 z"
         id="path29998"
         style="stroke-width:0.999998" />
    </clipPath>
    <clipPath
       clipPathUnits="userSpaceOnUse"
       id="clipPath30002">
      <path
         d="m -286.4209,408.525 h 596.276 v -595.276 h -596.276 z"
         id="path30004"
         style="stroke-width:0.999998" />
    </clipPath>
    <clipPath
       clipPathUnits="userSpaceOnUse"
       id="clipPath30008">
      <path
         d="m -269.9829,415.4869 h 596.276 v -595.276 h -596.276 z"
         id="path30010"
         style="stroke-width:0.999998" />
    </clipPath>
    <clipPath
       clipPathUnits="userSpaceOnUse"
       id="clipPath30014">
      <path
         d="m -297.8276,445.0035 h 596.276 v -595.276 h -596.276 z"
         id="path30016"
         style="stroke-width:0.999998" />
    </clipPath>
    <clipPath
       clipPathUnits="userSpaceOnUse"
       id="clipPath30020">
      <path
         d="m -335.8672,456.0406 h 596.276 v -595.276 h -596.276 z"
         id="path30022"
         style="stroke-width:0.999998" />
    </clipPath>
    <clipPath
       clipPathUnits="userSpaceOnUse"
       id="clipPath30026">
      <path
         d="M -538.2217,577.9479 H 58.054302 V -17.3281 H -538.2217 Z"
         id="path30028"
         style="stroke-width:0.999998" />
    </clipPath>
    <clipPath
       clipPathUnits="userSpaceOnUse"
       id="clipPath30032">
      <path
         d="M -584.1943,578.9381 H 12.081702 V -16.3379 H -584.1943 Z"
         id="path30034"
         style="stroke-width:0.999998" />
    </clipPath>
    <clipPath
       clipPathUnits="userSpaceOnUse"
       id="clipPath30038">
      <path
         d="M -531.1924,581.5885 H 65.083602 V -13.6875 H -531.1924 Z"
         id="path30040"
         style="stroke-width:0.999998" />
    </clipPath>
    <clipPath
       clipPathUnits="userSpaceOnUse"
       id="clipPath30045">
      <path
         d="M -574.5459,585.8522 H 21.730102 V -9.4238 H -574.5459 Z"
         id="path30047"
         style="stroke-width:0.999998" />
    </clipPath>
    <clipPath
       clipPathUnits="userSpaceOnUse"
       id="clipPath30051">
      <path
         d="M -576.3691,585.5885 H 19.906902 V -9.6875 H -576.3691 Z"
         id="path30053"
         style="stroke-width:0.999998" />
    </clipPath>
    <clipPath
       clipPathUnits="userSpaceOnUse"
       id="clipPath30057">
      <path
         d="M -557.4951,577.8502 H 38.780902 V -17.4258 H -557.4951 Z"
         id="path30059"
         style="stroke-width:0.999998" />
    </clipPath>
    <clipPath
       clipPathUnits="userSpaceOnUse"
       id="clipPath30063">
      <path
         d="M -568.2266,575.819 H 28.049402 V -19.457 H -568.2266 Z"
         id="path30065"
         style="stroke-width:0.999998" />
    </clipPath>
    <clipPath
       clipPathUnits="userSpaceOnUse"
       id="clipPath30069">
      <path
         d="M -550.2637,577.3248 H 46.012302 V -17.9512 H -550.2637 Z"
         id="path30071"
         style="stroke-width:0.999998" />
    </clipPath>
    <clipPath
       clipPathUnits="userSpaceOnUse"
       id="clipPath30075">
      <path
         d="M -586.5449,579.5026 H 9.7311024 V -15.7734 H -586.5449 Z"
         id="path30077"
         style="stroke-width:0.999998" />
    </clipPath>
    <clipPath
       clipPathUnits="userSpaceOnUse"
       id="clipPath30081">
      <path
         d="M -556.4014,578.0143 H 39.874602 V -17.2617 H -556.4014 Z"
         id="path30083"
         style="stroke-width:0.999998" />
    </clipPath>
    <clipPath
       clipPathUnits="userSpaceOnUse"
       id="clipPath30087">
      <path
         d="M -548.9834,585.8522 H 47.292602 V -9.4238 H -548.9834 Z"
         id="path30089"
         style="stroke-width:0.999998" />
    </clipPath>
    <clipPath
       clipPathUnits="userSpaceOnUse"
       id="clipPath30093">
      <path
         d="M -545.417,584.5729 H 50.859002 V -10.7031 H -545.417 Z"
         id="path30095"
         style="stroke-width:0.999998" />
    </clipPath>
    <clipPath
       clipPathUnits="userSpaceOnUse"
       id="clipPath30099">
      <path
         d="M -540.8213,585.8483 H 55.454702 V -9.4277 H -540.8213 Z"
         id="path30101"
         style="stroke-width:0.999998" />
    </clipPath>
    <clipPath
       clipPathUnits="userSpaceOnUse"
       id="clipPath30105">
      <path
         d="M -542.9326,584.5729 H 53.343402 V -10.7031 H -542.9326 Z"
         id="path30107"
         style="stroke-width:0.999998" />
    </clipPath>
    <clipPath
       clipPathUnits="userSpaceOnUse"
       id="clipPath30111">
      <path
         d="M -536.6982,584.5729 H 59.577802 V -10.7031 H -536.6982 Z"
         id="path30113"
         style="stroke-width:0.999998" />
    </clipPath>
  </defs>
  <sodipodi:namedview
     id="namedview29352"
     pagecolor="#ffffff"
     bordercolor="#000000"
     borderopacity="0.25"
     inkscape:showpageshadow="2"
     inkscape:pageopacity="0.0"
     inkscape:pagecheckerboard="0"
     inkscape:deskcolor="#d1d1d1"
     showgrid="false"
     inkscape:zoom="0.29734106"
     inkscape:cx="-215.24105"
     inkscape:cy="396.85068"
     inkscape:window-width="1419"
     inkscape:window-height="456"
     inkscape:window-x="0"
     inkscape:window-y="25"
     inkscape:window-maximized="0"
     inkscape:current-layer="svg29350">
    <inkscape:page
       x="0"
       y="0"
       id="page29356"
       width="795.03467"
       height="793.70135" />
  </sodipodi:namedview>
  <path
     d="m 447.822,608.055 -28.574,-17.561 -3.405,2.064 13.883,24.859 9.098,5.558 c 0,0 8.247,4.101 12.071,-2.875 3.804,-6.981 -3.073,-12.045 -3.073,-12.045 m -36.026,-10.03 0.022,35.8 3.041,5.296 c 0,0 5.201,7.608 11.929,3.398 6.744,-4.259 3.219,-12.023 3.219,-12.023 z m -42.158,22.807 -5.434,9.879 c 0,0 -3.729,8.41 3.386,11.928 7.142,3.512 11.917,-3.568 11.917,-3.568 l 20.336,-36.731 z m 18.532,15.443 0.01,4.974 c 0,0 0.852,9.184 8.782,8.788 7.945,-0.426 8.658,-8.926 8.658,-8.926 l -0.021,-36.291 z"
     style="fill:#000000;fill-opacity:1;fill-rule:nonzero;stroke:none"
     id="path29470" />
  <path
     d="m 397.103,593.338 c -3.832,0 -6.932,-3.108 -6.932,-6.942 0,-3.837 3.1,-6.941 6.932,-6.941 3.832,0 6.932,3.104 6.932,6.941 0,3.834 -3.1,6.942 -6.932,6.942 M 752.418,359.147 345.802,607.648 c 0,0 -7.411,5.5 -2.923,12.056 4.483,6.559 12.137,2.739 12.137,2.739 L 759.831,375.289 c 0,0 -2.338,-6.038 -7.413,-16.142"
     style="fill:#000000;fill-opacity:1;fill-rule:nonzero;stroke:none"
     id="path29474" />
  <path
     d="M 359.976,553.983 249.331,486.295 c -3.812,4.469 -7.389,9.071 -10.778,13.86 l 135.546,82.877 1.648,-1.028 z"
     style="fill:#000000;fill-opacity:1;fill-rule:nonzero;stroke:none"
     id="path29478" />
  <path
     d="M 381.894,544.7 319.798,434.137 c -5.356,2.322 -10.576,4.885 -15.661,7.661 l 76.923,136.92 0.86,-0.535 z"
     style="fill:#000000;fill-opacity:1;fill-rule:nonzero;stroke:none"
     id="path29482" />
  <path
     d="m 405.651,418.426 c -2.913,-0.131 -5.845,-0.193 -8.797,-0.193 -2.944,0 -5.856,0.062 -8.772,0.193 l 0.082,156.114 17.366,-31.154 V 418.429"
     style="fill:#000000;fill-opacity:1;fill-rule:nonzero;stroke:none"
     id="path29486" />
  <path
     d="m 399.012,567.8 30.272,-18.497 60.304,-107.494 c -5.087,-2.766 -10.309,-5.332 -15.659,-7.648 z"
     style="fill:#000000;fill-opacity:1;fill-rule:nonzero;stroke:none"
     id="path29490" />
  <path
     d="m 396.854,393.986 c -64.472,0 -116.735,-52.264 -116.735,-116.734 0,-64.467 52.263,-116.735 116.735,-116.735 64.472,0 116.734,52.268 116.734,116.735 0,64.47 -52.262,116.734 -116.734,116.734 m 0,-250.33 c -272.826,0 -362.9861,231.633 -362.9861,231.633 L 231.934,496.114 c 36.496,-51.811 96.72,-85.701 164.92,-85.701 59.578,0 113.13,25.844 150.054,66.921 L 748.523,354.317 C 681.344,228.902 549.076,143.656 396.854,143.656"
     style="fill:#000000;fill-opacity:1;fill-rule:nonzero;stroke:none"
     id="path29494" />
</svg>
