<?xml version="1.0" encoding="UTF-8" standalone="no"?>
<!-- Created with Inkscape (http://www.inkscape.org/) -->

<svg
   version="1.1"
   id="svg11675"
   width="793.70135"
   height="793.70135"
   viewBox="0 0 793.70135 793.70135"
   sodipodi:docname="imagawa-yoshimoto.svg"
   inkscape:version="1.2 (dc2aeda, 2022-05-15)"
   xmlns:inkscape="http://www.inkscape.org/namespaces/inkscape"
   xmlns:sodipodi="http://sodipodi.sourceforge.net/DTD/sodipodi-0.dtd"
   xmlns="http://www.w3.org/2000/svg"
   xmlns:svg="http://www.w3.org/2000/svg">
  <defs
     id="defs11679">
    <clipPath
       clipPathUnits="userSpaceOnUse"
       id="clipPath12191">
      <path
         d="M -531.1924,581.5885 H 64.083597 V -13.6875 H -531.1924 Z"
         id="path12193"
         style="stroke-width:0.999998" />
    </clipPath>
    <clipPath
       clipPathUnits="userSpaceOnUse"
       id="clipPath12197">
      <path
         d="M -528.0898,575.3815 H 67.186197 V -19.8945 H -528.0898 Z"
         id="path12199"
         style="stroke-width:0.999998" />
    </clipPath>
    <clipPath
       clipPathUnits="userSpaceOnUse"
       id="clipPath12203">
      <path
         d="M -540.8213,585.8483 H 54.454697 V -9.4277 H -540.8213 Z"
         id="path12205"
         style="stroke-width:0.999998" />
    </clipPath>
    <clipPath
       clipPathUnits="userSpaceOnUse"
       id="clipPath12209">
      <path
         d="M -561.4131,585.8522 H 33.862897 V -9.4238 H -561.4131 Z"
         id="path12211"
         style="stroke-width:0.999998" />
    </clipPath>
    <clipPath
       clipPathUnits="userSpaceOnUse"
       id="clipPath12215">
      <path
         d="M -568.2266,575.819 H 27.049397 V -19.457 H -568.2266 Z"
         id="path12217"
         style="stroke-width:0.999998" />
    </clipPath>
    <clipPath
       clipPathUnits="userSpaceOnUse"
       id="clipPath12221">
      <path
         d="M -557.4951,577.8502 H 37.780897 V -17.4258 H -557.4951 Z"
         id="path12223"
         style="stroke-width:0.999998" />
    </clipPath>
    <clipPath
       clipPathUnits="userSpaceOnUse"
       id="clipPath12227">
      <path
         d="M -574.5459,585.8522 H 20.730097 V -9.4238 H -574.5459 Z"
         id="path12229"
         style="stroke-width:0.999998" />
    </clipPath>
    <clipPath
       clipPathUnits="userSpaceOnUse"
       id="clipPath12233">
      <path
         d="M -572.8174,586.1354 H 22.458597 V -9.1406 H -572.8174 Z"
         id="path12235"
         style="stroke-width:0.999998" />
    </clipPath>
    <clipPath
       clipPathUnits="userSpaceOnUse"
       id="clipPath12239">
      <path
         d="M -553.8975,585.8483 H 41.378497 V -9.4277 H -553.8975 Z"
         id="path12241"
         style="stroke-width:0.999998" />
    </clipPath>
    <clipPath
       clipPathUnits="userSpaceOnUse"
       id="clipPath12245">
      <path
         d="M -576.3691,585.5885 H 18.906897 V -9.6875 H -576.3691 Z"
         id="path12247"
         style="stroke-width:0.999998" />
    </clipPath>
    <clipPath
       clipPathUnits="userSpaceOnUse"
       id="clipPath12253">
      <path
         d="M -557.0645,585.8483 H 38.211497 V -9.4277 H -557.0645 Z"
         id="path12255"
         style="stroke-width:0.999998" />
    </clipPath>
    <clipPath
       clipPathUnits="userSpaceOnUse"
       id="clipPath12259">
      <path
         d="M -564.5732,585.8483 H 30.702797 V -9.4277 H -564.5732 Z"
         id="path12261"
         style="stroke-width:0.999998" />
    </clipPath>
    <clipPath
       clipPathUnits="userSpaceOnUse"
       id="clipPath12265">
      <path
         d="M -545.417,584.5729 H 49.858997 V -10.7031 H -545.417 Z"
         id="path12267"
         style="stroke-width:0.999998" />
    </clipPath>
    <clipPath
       clipPathUnits="userSpaceOnUse"
       id="clipPath12271">
      <path
         d="M -586.5449,579.5026 H 8.7310974 V -15.7734 H -586.5449 Z"
         id="path12273"
         style="stroke-width:0.999998" />
    </clipPath>
    <clipPath
       clipPathUnits="userSpaceOnUse"
       id="clipPath12277">
      <path
         d="m -297.6377,159.0148 h 595.276 v -595.276 h -595.276 z"
         id="path12279"
         style="stroke-width:0.999998" />
    </clipPath>
    <clipPath
       clipPathUnits="userSpaceOnUse"
       id="clipPath12283">
      <path
         d="M -542.9326,584.5729 H 52.343397 V -10.7031 H -542.9326 Z"
         id="path12285"
         style="stroke-width:0.999998" />
    </clipPath>
    <clipPath
       clipPathUnits="userSpaceOnUse"
       id="clipPath12289">
      <path
         d="M -584.1943,578.9381 H 11.081697 V -16.3379 H -584.1943 Z"
         id="path12291"
         style="stroke-width:0.999998" />
    </clipPath>
    <clipPath
       clipPathUnits="userSpaceOnUse"
       id="clipPath12295">
      <path
         d="M -538.2217,577.9479 H 57.054297 V -17.3281 H -538.2217 Z"
         id="path12297"
         style="stroke-width:0.999998" />
    </clipPath>
    <clipPath
       clipPathUnits="userSpaceOnUse"
       id="clipPath12301">
      <path
         d="M -567.7754,585.8522 H 27.500597 V -9.4238 H -567.7754 Z"
         id="path12303"
         style="stroke-width:0.999998" />
    </clipPath>
    <clipPath
       clipPathUnits="userSpaceOnUse"
       id="clipPath12307">
      <path
         d="M -556.4014,578.0143 H 38.874597 V -17.2617 H -556.4014 Z"
         id="path12309"
         style="stroke-width:0.999998" />
    </clipPath>
    <clipPath
       clipPathUnits="userSpaceOnUse"
       id="clipPath12313">
      <path
         d="M -550.2637,577.3248 H 45.012297 V -17.9512 H -550.2637 Z"
         id="path12315"
         style="stroke-width:0.999998" />
    </clipPath>
    <clipPath
       clipPathUnits="userSpaceOnUse"
       id="clipPath12319">
      <path
         d="M -548.9834,585.8522 H 46.292597 V -9.4238 H -548.9834 Z"
         id="path12321"
         style="stroke-width:0.999998" />
    </clipPath>
    <clipPath
       clipPathUnits="userSpaceOnUse"
       id="clipPath12325">
      <path
         d="M -536.6982,584.5729 H 58.577797 V -10.7031 H -536.6982 Z"
         id="path12327"
         style="stroke-width:0.999998" />
    </clipPath>
  </defs>
  <sodipodi:namedview
     id="namedview11677"
     pagecolor="#ffffff"
     bordercolor="#000000"
     borderopacity="0.25"
     inkscape:showpageshadow="2"
     inkscape:pageopacity="0.0"
     inkscape:pagecheckerboard="0"
     inkscape:deskcolor="#d1d1d1"
     showgrid="false"
     inkscape:zoom="0.29734106"
     inkscape:cx="-215.24105"
     inkscape:cy="396.85068"
     inkscape:window-width="1419"
     inkscape:window-height="456"
     inkscape:window-x="0"
     inkscape:window-y="25"
     inkscape:window-maximized="0"
     inkscape:current-layer="svg11675">
    <inkscape:page
       x="0"
       y="0"
       id="page11681"
       width="793.70135"
       height="793.70135" />
  </sodipodi:namedview>
  <path
     d="m 396.85,212.021 c -17.183,0 -31.112,-13.929 -31.112,-31.112 0,-17.182 13.929,-31.112 31.112,-31.112 17.182,0 31.112,13.93 31.112,31.112 0,17.183 -13.93,31.112 -31.112,31.112 m 298.748,220.528 c 0,-75.6 -61.288,-136.888 -136.889,-136.888 h -73.664 c -18.433,0 -33.374,-14.943 -33.374,-33.376 0,-18.432 14.941,-33.375 33.374,-33.375 h 10.111 c 26.509,0 48,-21.49 48,-48.001 0,-26.51 -21.491,-48 -48,-48 h -34.63 c -8.054,0 -14.744,-5.832 -16.088,-13.5 -3.096,-23.5209 -23.223,-41.6809 -47.588,-41.6809 -24.366,0 -44.492,18.16 -47.588,41.6809 -1.344,7.668 -8.035,13.5 -16.088,13.5 h -34.631 c -26.509,0 -48,21.49 -48,48 0,26.511 21.491,48.001 48,48.001 h 10.111 c 18.433,0 33.374,14.943 33.374,33.375 0,18.433 -14.941,33.376 -33.374,33.376 H 234.99 c -75.601,0 -136.8889,61.288 -136.8889,136.888 l -0.0013,208.42 c 0,19.983 16.1982,36.183 36.1812,36.183 19.983,0 36.181,-16.2 36.181,-36.183 V 501.742 c 0,-9.022 7.312,-16.334 16.334,-16.334 9.021,0 16.331,7.312 16.331,16.334 v 139.227 c 0,19.983 16.198,36.183 36.182,36.183 19.981,0 36.18,-16.2 36.18,-36.183 V 501.742 c 0,-9.022 7.313,-16.334 16.333,-16.334 9.021,0 16.333,7.312 16.333,16.334 v 139.227 c 0,19.983 16.198,36.18 36.18,36.18 19.983,0 36.181,-16.197 36.181,-36.18 V 501.742 c 0,-9.022 7.312,-16.334 16.334,-16.334 9.021,0 16.333,7.312 16.333,16.334 v 139.227 c 0,19.983 16.199,36.18 36.181,36.18 19.983,0 36.18,-16.197 36.18,-36.18 V 501.742 c 0,-9.022 7.312,-16.334 16.333,-16.334 9.02,0 16.334,7.312 16.334,16.334 v 139.227 c 0,19.983 16.198,36.183 36.18,36.183 19.984,0 36.181,-16.2 36.181,-36.183 V 501.742 c 0,-9.022 7.311,-16.334 16.332,-16.334 9.021,0 16.333,7.312 16.333,16.334 v 139.227 c 0,19.983 16.199,36.183 36.181,36.183 19.983,0 36.182,-16.2 36.182,-36.183 z"
     style="fill:#000000;fill-opacity:1;fill-rule:nonzero;stroke:none"
     id="path11795" />
</svg>
