<?xml version="1.0" encoding="UTF-8" standalone="no"?>
<!-- Created with Inkscape (http://www.inkscape.org/) -->

<svg
   version="1.1"
   id="svg17637"
   width="793.70135"
   height="793.70135"
   viewBox="0 0 793.70135 793.70135"
   sodipodi:docname="kenkatabami.svg"
   inkscape:version="1.2 (dc2aeda, 2022-05-15)"
   xmlns:inkscape="http://www.inkscape.org/namespaces/inkscape"
   xmlns:sodipodi="http://sodipodi.sourceforge.net/DTD/sodipodi-0.dtd"
   xmlns="http://www.w3.org/2000/svg"
   xmlns:svg="http://www.w3.org/2000/svg">
  <defs
     id="defs17641">
    <clipPath
       clipPathUnits="userSpaceOnUse"
       id="clipPath18251">
      <path
         d="M -542.9326,584.5729 H 52.343397 V -10.7031 H -542.9326 Z"
         id="path18253"
         style="stroke-width:0.999998" />
    </clipPath>
    <clipPath
       clipPathUnits="userSpaceOnUse"
       id="clipPath18257">
      <path
         d="M -505.0137,177.9108 H 90.262297 v -595.276 H -505.0137 Z"
         id="path18259"
         style="stroke-width:0.999998" />
    </clipPath>
    <clipPath
       clipPathUnits="userSpaceOnUse"
       id="clipPath18263">
      <path
         d="M -538.2217,577.9479 H 57.054297 V -17.3281 H -538.2217 Z"
         id="path18265"
         style="stroke-width:0.999998" />
    </clipPath>
    <clipPath
       clipPathUnits="userSpaceOnUse"
       id="clipPath18269">
      <path
         d="M -505.0146,177.9088 H 90.261397 v -595.276 H -505.0146 Z"
         id="path18271"
         style="stroke-width:0.999998" />
    </clipPath>
    <clipPath
       clipPathUnits="userSpaceOnUse"
       id="clipPath18275">
      <path
         d="m -297.6387,537.0963 h 595.276 v -595.276 h -595.276 z"
         id="path18277"
         style="stroke-width:0.999998" />
    </clipPath>
    <clipPath
       clipPathUnits="userSpaceOnUse"
       id="clipPath18281">
      <path
         d="m -338.1973,297.6383 h 595.276 v -595.276 h -595.276 z"
         id="path18283"
         style="stroke-width:0.999998" />
    </clipPath>
    <clipPath
       clipPathUnits="userSpaceOnUse"
       id="clipPath18287">
      <path
         d="m -90.2607,177.9098 h 595.276 v -595.276 h -595.276 z"
         id="path18289"
         style="stroke-width:0.999998" />
    </clipPath>
    <clipPath
       clipPathUnits="userSpaceOnUse"
       id="clipPath18293">
      <path
         d="M -556.4014,578.0143 H 38.874597 V -17.2617 H -556.4014 Z"
         id="path18295"
         style="stroke-width:0.999998" />
    </clipPath>
    <clipPath
       clipPathUnits="userSpaceOnUse"
       id="clipPath18299">
      <path
         d="M -553.8975,585.8483 H 41.378497 V -9.4277 H -553.8975 Z"
         id="path18301"
         style="stroke-width:0.999998" />
    </clipPath>
    <clipPath
       clipPathUnits="userSpaceOnUse"
       id="clipPath18305">
      <path
         d="M -528.0898,575.3815 H 67.186197 V -19.8945 H -528.0898 Z"
         id="path18307"
         style="stroke-width:0.999998" />
    </clipPath>
    <clipPath
       clipPathUnits="userSpaceOnUse"
       id="clipPath18312">
      <path
         d="M -586.5449,579.5026 H 8.7310974 V -15.7734 H -586.5449 Z"
         id="path18314"
         style="stroke-width:0.999998" />
    </clipPath>
    <clipPath
       clipPathUnits="userSpaceOnUse"
       id="clipPath18318">
      <path
         d="m -297.6387,247.0768 h 595.276 v -595.276 h -595.276 z"
         id="path18320"
         style="stroke-width:0.999998" />
    </clipPath>
    <clipPath
       clipPathUnits="userSpaceOnUse"
       id="clipPath18324">
      <path
         d="M -584.1943,578.9381 H 11.081697 V -16.3379 H -584.1943 Z"
         id="path18326"
         style="stroke-width:0.999998" />
    </clipPath>
    <clipPath
       clipPathUnits="userSpaceOnUse"
       id="clipPath18330">
      <path
         d="M -540.8213,585.8483 H 54.454697 V -9.4277 H -540.8213 Z"
         id="path18332"
         style="stroke-width:0.999998" />
    </clipPath>
    <clipPath
       clipPathUnits="userSpaceOnUse"
       id="clipPath18336">
      <path
         d="M -545.417,584.5729 H 49.858997 V -10.7031 H -545.417 Z"
         id="path18338"
         style="stroke-width:0.999998" />
    </clipPath>
    <clipPath
       clipPathUnits="userSpaceOnUse"
       id="clipPath18342">
      <path
         d="M -548.9834,585.8522 H 46.292597 V -9.4238 H -548.9834 Z"
         id="path18344"
         style="stroke-width:0.999998" />
    </clipPath>
    <clipPath
       clipPathUnits="userSpaceOnUse"
       id="clipPath18348">
      <path
         d="M -536.6982,584.5729 H 58.577797 V -10.7031 H -536.6982 Z"
         id="path18350"
         style="stroke-width:0.999998" />
    </clipPath>
    <clipPath
       clipPathUnits="userSpaceOnUse"
       id="clipPath18354">
      <path
         d="m -341.4258,322.9196 h 595.276 v -595.276 h -595.276 z"
         id="path18356"
         style="stroke-width:0.999998" />
    </clipPath>
    <clipPath
       clipPathUnits="userSpaceOnUse"
       id="clipPath18360">
      <path
         d="m -253.8516,322.9196 h 595.276 v -595.276 h -595.276 z"
         id="path18362"
         style="stroke-width:0.999998" />
    </clipPath>
    <clipPath
       clipPathUnits="userSpaceOnUse"
       id="clipPath18366">
      <path
         d="M -564.5732,585.8483 H 30.702797 V -9.4277 H -564.5732 Z"
         id="path18368"
         style="stroke-width:0.999998" />
    </clipPath>
    <clipPath
       clipPathUnits="userSpaceOnUse"
       id="clipPath18372">
      <path
         d="M -561.4131,585.8522 H 33.862897 V -9.4238 H -561.4131 Z"
         id="path18374"
         style="stroke-width:0.999998" />
    </clipPath>
    <clipPath
       clipPathUnits="userSpaceOnUse"
       id="clipPath18378">
      <path
         d="M -550.2637,577.3248 H 45.012297 V -17.9512 H -550.2637 Z"
         id="path18380"
         style="stroke-width:0.999998" />
    </clipPath>
    <clipPath
       clipPathUnits="userSpaceOnUse"
       id="clipPath18384">
      <path
         d="M -531.1924,581.5885 H 64.083597 V -13.6875 H -531.1924 Z"
         id="path18386"
         style="stroke-width:0.999998" />
    </clipPath>
    <clipPath
       clipPathUnits="userSpaceOnUse"
       id="clipPath18390">
      <path
         d="M -572.8174,586.1354 H 22.458597 V -9.1406 H -572.8174 Z"
         id="path18392"
         style="stroke-width:0.999998" />
    </clipPath>
    <clipPath
       clipPathUnits="userSpaceOnUse"
       id="clipPath18396">
      <path
         d="M -574.5459,585.8522 H 20.730097 V -9.4238 H -574.5459 Z"
         id="path18398"
         style="stroke-width:0.999998" />
    </clipPath>
    <clipPath
       clipPathUnits="userSpaceOnUse"
       id="clipPath18402">
      <path
         d="M -576.3691,585.5885 H 18.906897 V -9.6875 H -576.3691 Z"
         id="path18404"
         style="stroke-width:0.999998" />
    </clipPath>
    <clipPath
       clipPathUnits="userSpaceOnUse"
       id="clipPath18409">
      <path
         d="M -557.4951,577.8502 H 37.780897 V -17.4258 H -557.4951 Z"
         id="path18411"
         style="stroke-width:0.999998" />
    </clipPath>
    <clipPath
       clipPathUnits="userSpaceOnUse"
       id="clipPath18415">
      <path
         d="M -568.2266,575.819 H 27.049397 V -19.457 H -568.2266 Z"
         id="path18417"
         style="stroke-width:0.999998" />
    </clipPath>
    <clipPath
       clipPathUnits="userSpaceOnUse"
       id="clipPath18421">
      <path
         d="M -567.7754,585.8522 H 27.500597 V -9.4238 H -567.7754 Z"
         id="path18423"
         style="stroke-width:0.999998" />
    </clipPath>
    <clipPath
       clipPathUnits="userSpaceOnUse"
       id="clipPath18427">
      <path
         d="M -557.0645,585.8483 H 38.211497 V -9.4277 H -557.0645 Z"
         id="path18429"
         style="stroke-width:0.999998" />
    </clipPath>
  </defs>
  <sodipodi:namedview
     id="namedview17639"
     pagecolor="#ffffff"
     bordercolor="#000000"
     borderopacity="0.25"
     inkscape:showpageshadow="2"
     inkscape:pageopacity="0.0"
     inkscape:pagecheckerboard="0"
     inkscape:deskcolor="#d1d1d1"
     showgrid="false"
     inkscape:zoom="0.29734106"
     inkscape:cx="-215.24105"
     inkscape:cy="396.85068"
     inkscape:window-width="1419"
     inkscape:window-height="456"
     inkscape:window-x="0"
     inkscape:window-y="25"
     inkscape:window-maximized="0"
     inkscape:current-layer="svg17637">
    <inkscape:page
       x="0"
       y="0"
       id="page17643"
       width="793.70135"
       height="793.70135" />
  </sodipodi:namedview>
  <path
     d="m 673.352,237.213 c 27.608,6.417 52.588,23.812 67.877,50.295 29.297,50.741 11.909,115.626 -38.832,144.921 -14.195,8.197 -29.512,12.74 -44.833,13.921 -67.111,4.461 -134.18,-8.748 -194.309,-37.781 2.363,-13.396 0.572,-27.115 -4.881,-39.302 16.082,-6.665 33.199,-8.666 49.649,-6.456 v -30.144 l -26.106,-15.071 c -6.31,15.35 -16.601,29.174 -30.417,39.769 -7.826,-10.818 -18.81,-19.227 -31.594,-23.879 4.921,-66.59 27.016,-131.278 64.435,-187.166 8.684,-12.68 20.276,-23.672 34.472,-31.867 50.74,-29.2969 115.625,-11.913 144.923,38.831 15.289,26.481 17.865,56.814 9.616,83.929"
     style="fill:#000000;fill-opacity:1;fill-rule:nonzero;stroke:none"
     id="path17757" />
  <path
     d="m 450.928,396.851 c 0,29.868 -24.21,54.082 -54.078,54.082 -29.863,-0.002 -54.08,-24.214 -54.08,-54.082 0.002,-29.868 24.213,-54.08 54.077,-54.078 29.868,-0.002 54.084,24.21 54.081,54.078"
     style="fill:#000000;fill-opacity:1;fill-rule:nonzero;stroke:none"
     id="path17761" />
  <path
     d="m 120.347,237.214 c -8.246,-27.118 -5.672,-57.449 9.618,-83.93 29.297,-50.744 94.182,-68.1279 144.922,-38.832 14.196,8.195 25.788,19.188 34.472,31.865 37.42,55.889 59.514,120.579 64.436,187.169 -12.783,4.651 -23.768,13.061 -31.595,23.877 -13.815,-10.596 -24.105,-24.418 -30.416,-39.77 l -26.106,15.073 0.001,30.143 c 16.448,-2.21 33.566,-0.21 49.649,6.457 -5.455,12.188 -7.245,25.905 -4.883,39.303 -60.127,29.032 -127.198,42.242 -194.307,37.78 -15.321,-1.182 -30.64,-5.724 -44.8346,-13.92 C 40.5622,403.133 23.1742,338.249 52.4715,287.506 67.7608,261.025 92.742,243.628 120.347,237.214"
     style="fill:#000000;fill-opacity:1;fill-rule:nonzero;stroke:none"
     id="path17765" />
  <path
     d="m 673.35,237.216 c 8.248,-27.118 5.674,-57.451 -9.616,-83.932 -29.297,-50.744 -94.182,-68.1279 -144.922,-38.832 -14.197,8.196 -25.789,19.188 -34.473,31.868 -37.419,55.886 -59.515,120.576 -64.435,187.166 12.784,4.651 23.768,13.061 31.594,23.879 13.816,-10.596 24.106,-24.419 30.417,-39.769 l 26.106,15.07 -0.001,30.144 c -16.449,-2.209 -33.567,-0.209 -49.649,6.457 5.455,12.187 7.245,25.904 4.883,39.302 60.127,29.033 127.198,42.242 194.307,37.781 15.321,-1.181 30.639,-5.724 44.835,-13.921 50.741,-29.296 68.129,-94.18 38.831,-144.923 -15.289,-26.482 -40.27,-43.876 -67.877,-50.29"
     style="fill:#000000;fill-opacity:1;fill-rule:nonzero;stroke:none"
     id="path17769" />
  <path
     d="m 396.851,716.128 c -19.361,20.7 -46.917,33.638 -77.494,33.638 -58.594,0 -106.091,-47.5 -106.091,-106.092 0,-16.391 3.724,-31.927 10.361,-45.787 29.691,-60.35 74.666,-111.829 129.875,-149.387 10.42,8.745 23.196,14.053 36.476,15.425 -2.27,17.26 -9.096,33.084 -19.235,46.225 l 26.107,15.072 26.104,-15.072 c -10.138,-13.14 -16.964,-28.965 -19.234,-46.226 13.283,-1.37 26.058,-6.678 36.479,-15.423 55.208,37.556 100.182,89.036 129.872,149.385 6.64,13.86 10.364,29.397 10.364,45.788 0,58.592 -47.499,106.092 -106.092,106.092 -30.577,0 -58.135,-12.938 -77.492,-33.638"
     style="fill:#000000;fill-opacity:1;fill-rule:nonzero;stroke:none"
     id="path17773" />
  <path
     d="m 396.851,329.437 c 3.377,0.002 6.696,0.25 9.94,0.73 0.124,-1.541 0.24,-2.993 0.38,-4.531 4.641,-50.828 18.949,-100.394 42.171,-145.931 32.731,-62.628 60.329,-82.8369 60.329,-82.8369 L 396.85,31.7309 284.029,96.8681 c 0,0 27.597,20.2089 60.329,82.8369 23.221,45.537 37.529,95.103 42.17,145.931 0.14,1.538 0.256,2.99 0.38,4.531 3.244,-0.48 6.566,-0.728 9.943,-0.73"
     style="fill:#000000;fill-opacity:1;fill-rule:nonzero;stroke:none"
     id="path17777" />
  <path
     d="m 338.468,430.561 c -1.688,-2.926 -3.133,-5.923 -4.338,-8.972 -1.397,0.664 -2.712,1.288 -4.115,1.936 -46.338,21.394 -96.417,33.786 -147.463,36.444 -70.604,2.966 -101.9042,-10.828 -101.9042,-10.828 v 130.275 l 112.8212,65.136 c 0,0 3.703,-34.005 41.574,-93.665 27.826,-42.879 63.596,-80.053 105.293,-109.485 1.263,-0.891 2.462,-1.717 3.735,-2.595 -2.037,-2.569 -3.912,-5.322 -5.603,-8.246"
     style="fill:#000000;fill-opacity:1;fill-rule:nonzero;stroke:none"
     id="path17781" />
  <path
     d="m 455.234,430.561 c -1.691,2.924 -3.563,5.674 -5.6,8.244 1.273,0.877 2.47,1.704 3.733,2.594 41.697,29.433 77.469,66.607 105.293,109.487 37.872,59.659 41.574,93.663 41.574,93.663 l 112.823,-65.137 -0.001,-130.274 c 0,0 -31.3,13.794 -101.904,10.829 -51.047,-2.658 -101.125,-15.049 -147.464,-36.445 -1.401,-0.648 -2.717,-1.272 -4.114,-1.936 -1.206,3.049 -2.652,6.049 -4.34,8.975"
     style="fill:#000000;fill-opacity:1;fill-rule:nonzero;stroke:none"
     id="path17785" />
</svg>
