<?xml version="1.0" encoding="UTF-8" standalone="no"?>
<!-- Created with Inkscape (http://www.inkscape.org/) -->

<svg
   version="1.1"
   id="svg34626"
   width="793.70135"
   height="793.70135"
   viewBox="0 0 793.70135 793.70135"
   sodipodi:docname="maruni-tate-mokkou.svg"
   inkscape:version="1.2 (dc2aeda, 2022-05-15)"
   xmlns:inkscape="http://www.inkscape.org/namespaces/inkscape"
   xmlns:sodipodi="http://sodipodi.sourceforge.net/DTD/sodipodi-0.dtd"
   xmlns="http://www.w3.org/2000/svg"
   xmlns:svg="http://www.w3.org/2000/svg">
  <defs
     id="defs34630">
    <clipPath
       clipPathUnits="userSpaceOnUse"
       id="clipPath35324">
      <path
         d="m -297.6377,248.9552 h 595.276 v -595.276 h -595.276 z"
         id="path35326"
         style="stroke-width:0.999998" />
    </clipPath>
    <clipPath
       clipPathUnits="userSpaceOnUse"
       id="clipPath35330">
      <path
         d="m -256.9434,297.6398 h 595.276 v -595.276 h -595.276 z"
         id="path35332"
         style="stroke-width:0.999998" />
    </clipPath>
    <clipPath
       clipPathUnits="userSpaceOnUse"
       id="clipPath35336">
      <path
         d="m -297.6362,346.3248 h 595.276 v -595.276 h -595.276 z"
         id="path35338"
         style="stroke-width:0.999998" />
    </clipPath>
    <clipPath
       clipPathUnits="userSpaceOnUse"
       id="clipPath35342">
      <path
         d="m -457.6846,457.6881 h 595.276 v -595.276 h -595.276 z"
         id="path35344"
         style="stroke-width:0.999998" />
    </clipPath>
    <clipPath
       clipPathUnits="userSpaceOnUse"
       id="clipPath35348">
      <path
         d="M -548.9834,585.8522 H 46.292597 V -9.4238 H -548.9834 Z"
         id="path35350"
         style="stroke-width:0.999998" />
    </clipPath>
    <clipPath
       clipPathUnits="userSpaceOnUse"
       id="clipPath35354">
      <path
         d="M -553.8975,585.8483 H 41.378497 V -9.4277 H -553.8975 Z"
         id="path35356"
         style="stroke-width:0.999998" />
    </clipPath>
    <clipPath
       clipPathUnits="userSpaceOnUse"
       id="clipPath35360">
      <path
         d="M -574.5459,585.8522 H 20.730097 V -9.4238 H -574.5459 Z"
         id="path35362"
         style="stroke-width:0.999998" />
    </clipPath>
    <clipPath
       clipPathUnits="userSpaceOnUse"
       id="clipPath35366">
      <path
         d="m -297.6357,420.7662 h 595.276 v -595.276 h -595.276 z"
         id="path35368"
         style="stroke-width:0.999998" />
    </clipPath>
    <clipPath
       clipPathUnits="userSpaceOnUse"
       id="clipPath35372">
      <path
         d="m -338.3301,297.6398 h 595.276 v -595.276 h -595.276 z"
         id="path35374"
         style="stroke-width:0.999998" />
    </clipPath>
    <clipPath
       clipPathUnits="userSpaceOnUse"
       id="clipPath35378">
      <path
         d="m -297.6357,311.4283 h 595.276 v -595.276 h -595.276 z"
         id="path35380"
         style="stroke-width:0.999998" />
    </clipPath>
    <clipPath
       clipPathUnits="userSpaceOnUse"
       id="clipPath35384">
      <path
         d="M -576.3691,585.5885 H 18.906897 V -9.6875 H -576.3691 Z"
         id="path35386"
         style="stroke-width:0.999998" />
    </clipPath>
    <clipPath
       clipPathUnits="userSpaceOnUse"
       id="clipPath35390">
      <path
         d="M -586.5449,579.5026 H 8.7310974 V -15.7734 H -586.5449 Z"
         id="path35392"
         style="stroke-width:0.999998" />
    </clipPath>
    <clipPath
       clipPathUnits="userSpaceOnUse"
       id="clipPath35396">
      <path
         d="M -531.1924,581.5885 H 64.083597 V -13.6875 H -531.1924 Z"
         id="path35398"
         style="stroke-width:0.999998" />
    </clipPath>
    <clipPath
       clipPathUnits="userSpaceOnUse"
       id="clipPath35402">
      <path
         d="M -540.8213,585.8483 H 54.454697 V -9.4277 H -540.8213 Z"
         id="path35404"
         style="stroke-width:0.999998" />
    </clipPath>
    <clipPath
       clipPathUnits="userSpaceOnUse"
       id="clipPath35408">
      <path
         d="M -572.8174,586.1354 H 22.458597 V -9.1406 H -572.8174 Z"
         id="path35410"
         style="stroke-width:0.999998" />
    </clipPath>
    <clipPath
       clipPathUnits="userSpaceOnUse"
       id="clipPath35414">
      <path
         d="M -556.4014,578.0143 H 38.874597 V -17.2617 H -556.4014 Z"
         id="path35416"
         style="stroke-width:0.999998" />
    </clipPath>
    <clipPath
       clipPathUnits="userSpaceOnUse"
       id="clipPath35420">
      <path
         d="M -536.6982,584.5729 H 58.577797 V -10.7031 H -536.6982 Z"
         id="path35422"
         style="stroke-width:0.999998" />
    </clipPath>
    <clipPath
       clipPathUnits="userSpaceOnUse"
       id="clipPath35426">
      <path
         d="M -567.7754,585.8522 H 27.500597 V -9.4238 H -567.7754 Z"
         id="path35428"
         style="stroke-width:0.999998" />
    </clipPath>
    <clipPath
       clipPathUnits="userSpaceOnUse"
       id="clipPath35432">
      <path
         d="M -564.5732,585.8483 H 30.702797 V -9.4277 H -564.5732 Z"
         id="path35434"
         style="stroke-width:0.999998" />
    </clipPath>
    <clipPath
       clipPathUnits="userSpaceOnUse"
       id="clipPath35438">
      <path
         d="M -550.2637,577.3248 H 45.012297 V -17.9512 H -550.2637 Z"
         id="path35440"
         style="stroke-width:0.999998" />
    </clipPath>
    <clipPath
       clipPathUnits="userSpaceOnUse"
       id="clipPath35444">
      <path
         d="M -545.417,584.5729 H 49.858997 V -10.7031 H -545.417 Z"
         id="path35446"
         style="stroke-width:0.999998" />
    </clipPath>
    <clipPath
       clipPathUnits="userSpaceOnUse"
       id="clipPath35450">
      <path
         d="M -584.1943,578.9381 H 11.081697 V -16.3379 H -584.1943 Z"
         id="path35452"
         style="stroke-width:0.999998" />
    </clipPath>
    <clipPath
       clipPathUnits="userSpaceOnUse"
       id="clipPath35456">
      <path
         d="M -557.0645,585.8483 H 38.211497 V -9.4277 H -557.0645 Z"
         id="path35458"
         style="stroke-width:0.999998" />
    </clipPath>
    <clipPath
       clipPathUnits="userSpaceOnUse"
       id="clipPath35462">
      <path
         d="M -557.4951,577.8502 H 37.780897 V -17.4258 H -557.4951 Z"
         id="path35464"
         style="stroke-width:0.999998" />
    </clipPath>
    <clipPath
       clipPathUnits="userSpaceOnUse"
       id="clipPath35468">
      <path
         d="M -568.2266,575.819 H 27.049397 V -19.457 H -568.2266 Z"
         id="path35470"
         style="stroke-width:0.999998" />
    </clipPath>
    <clipPath
       clipPathUnits="userSpaceOnUse"
       id="clipPath35474">
      <path
         d="M -542.9326,584.5729 H 52.343397 V -10.7031 H -542.9326 Z"
         id="path35476"
         style="stroke-width:0.999998" />
    </clipPath>
    <clipPath
       clipPathUnits="userSpaceOnUse"
       id="clipPath35480">
      <path
         d="M -561.4131,585.8522 H 33.862897 V -9.4238 H -561.4131 Z"
         id="path35482"
         style="stroke-width:0.999998" />
    </clipPath>
    <clipPath
       clipPathUnits="userSpaceOnUse"
       id="clipPath35486">
      <path
         d="M -528.0898,575.3815 H 67.186197 V -19.8945 H -528.0898 Z"
         id="path35488"
         style="stroke-width:0.999998" />
    </clipPath>
    <clipPath
       clipPathUnits="userSpaceOnUse"
       id="clipPath35494">
      <path
         d="m -476.4736,297.6388 h 595.276 v -595.276 h -595.276 z"
         id="path35496"
         style="stroke-width:0.999998" />
    </clipPath>
    <clipPath
       clipPathUnits="userSpaceOnUse"
       id="clipPath35500">
      <path
         d="M -538.2217,577.9479 H 57.054297 V -17.3281 H -538.2217 Z"
         id="path35502"
         style="stroke-width:0.999998" />
    </clipPath>
    <clipPath
       clipPathUnits="userSpaceOnUse"
       id="clipPath35506">
      <path
         d="m -118.7998,297.6407 h 595.276 v -595.276 h -595.276 z"
         id="path35508"
         style="stroke-width:0.999998" />
    </clipPath>
    <clipPath
       clipPathUnits="userSpaceOnUse"
       id="clipPath35512">
      <path
         d="m -297.6372,174.5128 h 595.276 v -595.276 h -595.276 z"
         id="path35514"
         style="stroke-width:0.999998" />
    </clipPath>
    <clipPath
       clipPathUnits="userSpaceOnUse"
       id="clipPath35518">
      <path
         d="m -399.123,297.6388 h 595.276 v -595.276 h -595.276 z"
         id="path35520"
         style="stroke-width:0.999998" />
    </clipPath>
    <clipPath
       clipPathUnits="userSpaceOnUse"
       id="clipPath35524">
      <path
         d="m -297.6372,160.7111 h 595.276 v -595.276 h -595.276 z"
         id="path35526"
         style="stroke-width:0.999998" />
    </clipPath>
    <clipPath
       clipPathUnits="userSpaceOnUse"
       id="clipPath35530">
      <path
         d="m -196.1484,297.6407 h 595.276 v -595.276 h -595.276 z"
         id="path35532"
         style="stroke-width:0.999998" />
    </clipPath>
    <clipPath
       clipPathUnits="userSpaceOnUse"
       id="clipPath35536">
      <path
         d="m -297.6357,434.569 h 595.276 v -595.276 h -595.276 z"
         id="path35538"
         style="stroke-width:0.999998" />
    </clipPath>
  </defs>
  <sodipodi:namedview
     id="namedview34628"
     pagecolor="#ffffff"
     bordercolor="#000000"
     borderopacity="0.25"
     inkscape:showpageshadow="2"
     inkscape:pageopacity="0.0"
     inkscape:pagecheckerboard="0"
     inkscape:deskcolor="#d1d1d1"
     showgrid="false"
     inkscape:zoom="0.29734106"
     inkscape:cx="-215.24105"
     inkscape:cy="396.85068"
     inkscape:window-width="1419"
     inkscape:window-height="456"
     inkscape:window-x="0"
     inkscape:window-y="25"
     inkscape:window-maximized="0"
     inkscape:current-layer="svg34626">
    <inkscape:page
       x="0"
       y="0"
       id="page34632"
       width="793.70135"
       height="793.70135" />
  </sodipodi:namedview>
  <path
     d="m 635.297,396.853 c 0,44.1 -11.973,85.398 -32.844,120.833 -18.556,30.557 -52.069,48.316 -77.681,31.11 -20.492,-13.769 -36.276,-39.316 -38.4,-42.849 8.408,-1.959 17.416,-9.633 22.877,-16.628 19.936,-25.492 31.814,-57.588 31.814,-92.466 0,-34.88 -11.878,-66.975 -31.814,-92.467 -5.461,-6.997 -14.469,-14.67 -22.877,-16.626 2.124,-3.535 17.908,-29.082 38.4,-42.848 25.612,-17.208 59.125,0.549 77.681,31.106 20.871,35.435 32.844,76.737 32.844,120.835"
     style="fill:#000000;fill-opacity:1;fill-rule:nonzero;stroke:none"
     id="path34746" />
  <path
     d="m 532.163,396.853 c 0,32.816 -10.312,62.526 -29.47,86.935 -3.53,4.44 -7.353,8.386 -11.64,11.003 -2.674,1.635 -5.721,2.476 -9.768,2.055 -4.213,-0.438 -7.393,-4.423 -7.393,-8.454 0,-4.034 2.405,-8.185 7.32,-8.185 2.829,0 4.549,0.724 6.568,3.612 0,0 2.396,-0.869 6.615,-6.276 17.202,-22.525 27.424,-50.262 27.434,-80.69 -0.01,-30.427 -10.232,-58.163 -27.434,-80.692 -4.219,-5.404 -6.615,-6.275 -6.615,-6.275 -2.019,2.888 -3.739,3.614 -6.568,3.614 -4.915,0 -7.32,-4.151 -7.32,-8.187 0,-4.029 3.18,-8.015 7.393,-8.453 4.047,-0.422 7.094,0.421 9.768,2.054 4.287,2.618 8.11,6.566 11.64,11.004 19.158,24.408 29.47,54.12 29.47,86.935"
     style="fill:#000000;fill-opacity:1;fill-rule:nonzero;stroke:none"
     id="path34750" />
  <path
     d="m 396.848,214.282 c -40.997,0 -75.269,28.79 -83.709,67.251 -15.238,-18.628 -24.377,-42.436 -24.377,-68.38 0,-59.696 48.393,-108.088 108.086,-108.088 59.692,0 108.085,48.392 108.085,108.088 0,25.944 -9.138,49.752 -24.376,68.38 -8.441,-38.461 -42.713,-67.251 -83.709,-67.251"
     style="fill:#000000;fill-opacity:1;fill-rule:nonzero;stroke:none"
     id="path34754" />
  <path
     d="m 396.848,232.685 c -27.521,0 -51.188,16.537 -61.6,40.211 -4.617,10.213 -2.517,11.149 -2.517,11.149 3.492,0.468 4.924,1.664 6.224,4.176 2.257,4.367 -0.327,8.409 -3.913,10.263 -3.577,1.849 -8.579,0.853 -10.903,-2.69 -2.23,-3.401 -2.881,-6.494 -2.658,-9.618 0.357,-5.006 2.1,-10.195 4.422,-15.36 11.44,-27.942 38.871,-47.608 70.945,-47.666 32.075,0.058 59.504,19.724 70.945,47.666 2.32,5.165 4.064,10.354 4.424,15.36 0.223,3.124 -0.429,6.217 -2.661,9.618 -2.323,3.543 -7.324,4.539 -10.902,2.69 -3.586,-1.854 -6.17,-5.896 -3.914,-10.263 1.299,-2.512 2.732,-3.708 6.224,-4.176 0,0 2.1,-0.936 -2.516,-11.149 -10.413,-23.674 -34.08,-40.211 -61.6,-40.211"
     style="fill:#000000;fill-opacity:1;fill-rule:nonzero;stroke:none"
     id="path34758" />
  <path
     d="m 158.4,396.855 c 0,-44.1 11.972,-85.399 32.841,-120.833 18.556,-30.558 52.07,-48.316 77.681,-31.109 20.492,13.767 36.279,39.315 38.4,42.847 -8.407,1.96 -17.417,9.633 -22.875,16.629 -19.937,25.493 -31.814,57.586 -31.814,92.466 0,34.882 11.877,66.975 31.814,92.467 5.458,6.994 14.468,14.666 22.875,16.628 -2.121,3.533 -17.908,29.08 -38.4,42.846 -25.611,17.208 -59.125,-0.55 -77.681,-31.109 C 170.372,482.254 158.4,440.953 158.4,396.855"
     style="fill:#000000;fill-opacity:1;fill-rule:nonzero;stroke:none"
     id="path34762" />
  <path
     d="m 261.53,396.855 c 0,-32.816 10.313,-62.526 29.472,-86.935 3.529,-4.439 7.352,-8.386 11.64,-11.004 2.673,-1.634 5.72,-2.476 9.767,-2.054 4.213,0.438 7.394,4.423 7.394,8.454 0,4.034 -2.408,8.185 -7.321,8.185 -2.829,0 -4.548,-0.725 -6.567,-3.613 0,0 -2.398,0.87 -6.616,6.276 -17.2,22.526 -27.424,50.265 -27.434,80.691 0.01,30.426 10.234,58.163 27.434,80.691 4.218,5.406 6.616,6.276 6.616,6.276 2.019,-2.888 3.738,-3.615 6.567,-3.615 4.913,0 7.321,4.151 7.321,8.188 0,4.028 -3.181,8.013 -7.394,8.453 -4.047,0.422 -7.094,-0.422 -9.767,-2.054 -4.288,-2.618 -8.111,-6.566 -11.64,-11.006 -19.159,-24.406 -29.472,-54.117 -29.472,-86.933"
     style="fill:#000000;fill-opacity:1;fill-rule:nonzero;stroke:none"
     id="path34766" />
  <path
     d="m 396.847,579.426 c 40.996,0 75.266,-28.792 83.709,-67.252 15.237,18.629 24.376,42.437 24.376,68.38 0,59.697 -48.392,108.087 -108.085,108.087 -59.695,0 -108.085,-48.39 -108.085,-108.087 0,-25.943 9.137,-49.751 24.375,-68.38 8.441,38.46 42.713,67.252 83.71,67.252"
     style="fill:#000000;fill-opacity:1;fill-rule:nonzero;stroke:none"
     id="path34770" />
  <path
     d="m 396.847,561.022 c 27.52,0 51.188,-16.536 61.6,-40.211 4.616,-10.213 2.517,-11.149 2.517,-11.149 -3.492,-0.468 -4.925,-1.664 -6.225,-4.176 -2.255,-4.366 0.328,-8.41 3.913,-10.264 3.579,-1.848 8.579,-0.851 10.901,2.69 2.235,3.402 2.884,6.495 2.662,9.62 -0.359,5.003 -2.103,10.195 -4.422,15.359 -11.439,27.943 -38.871,47.607 -70.946,47.664 -32.076,-0.057 -59.507,-19.721 -70.946,-47.664 -2.32,-5.164 -4.066,-10.356 -4.423,-15.359 -0.221,-3.125 0.429,-6.218 2.66,-9.62 2.325,-3.541 7.325,-4.538 10.904,-2.69 3.585,1.854 6.168,5.898 3.912,10.264 -1.299,2.512 -2.734,3.708 -6.225,4.176 0,0 -2.096,0.936 2.518,11.149 10.411,23.675 34.077,40.211 61.6,40.211"
     style="fill:#000000;fill-opacity:1;fill-rule:nonzero;stroke:none"
     id="path34774" />
  <path
     d="m 396.847,415.238 c -10.155,0 -18.384,-8.232 -18.384,-18.385 0,-10.155 8.229,-18.383 18.384,-18.383 10.155,0 18.387,8.228 18.387,18.383 0,10.153 -8.232,18.385 -18.387,18.385"
     style="fill:#000000;fill-opacity:1;fill-rule:nonzero;stroke:none"
     id="path34778" />
  <path
     d="m 451.106,396.854 c 0,2.059 -1.668,3.731 -3.728,3.731 h -24.955 c -0.799,5.521 -3.343,10.472 -7.052,14.284 l 23.669,30.844 c 2.058,2.776 4.716,5.289 6.834,6.645 12.025,7.707 27.131,3.035 34.035,-9.036 3.53,-6.167 4.16,-13.2 2.322,-19.528 14.598,-0.327 26.337,-12.264 26.337,-26.94 0,-14.679 -11.739,-26.615 -26.337,-26.939 1.838,-6.328 1.208,-13.362 -2.322,-19.532 -6.904,-12.068 -22.01,-16.738 -34.035,-9.033 -2.118,1.357 -4.776,3.869 -6.834,6.644 l -23.669,30.843 c 3.709,3.814 6.253,8.766 7.052,14.285 h 24.955 c 2.06,0 3.728,1.672 3.728,3.732"
     style="fill:#000000;fill-opacity:1;fill-rule:nonzero;stroke:none"
     id="path34782" />
  <path
     d="m 396.85,331.941 c -2.059,0 -3.727,1.668 -3.727,3.73 v 35.604 c -3.187,0.463 -6.184,1.506 -8.88,3.018 0,0 -25.757,-33.562 -30.105,-39.232 -4.35,-5.675 -6.694,-11.524 -6.694,-18.361 0,-16.58 12.662,-30.2 28.842,-31.724 v -9.867 c 0,-11.359 9.205,-20.568 20.564,-20.568 11.36,0 20.562,9.209 20.562,20.568 v 9.867 c 16.183,1.524 28.843,15.144 28.843,31.724 0,6.837 -2.344,12.686 -6.692,18.361 -4.349,5.67 -30.105,39.232 -30.105,39.232 -2.698,-1.512 -5.694,-2.555 -8.88,-3.018 v -35.604 c 0,-2.062 -1.668,-3.73 -3.728,-3.73"
     style="fill:#000000;fill-opacity:1;fill-rule:nonzero;stroke:none"
     id="path34786" />
  <path
     d="m 342.59,396.854 c 0,-2.06 1.669,-3.732 3.728,-3.732 h 24.954 c 0.799,-5.519 3.343,-10.471 7.054,-14.285 l -23.67,-30.843 c -2.058,-2.775 -4.714,-5.287 -6.832,-6.644 -12.026,-7.705 -27.133,-3.035 -34.037,9.033 -3.529,6.17 -4.162,13.204 -2.322,19.532 -14.599,0.324 -26.336,12.26 -26.336,26.939 0,14.676 11.737,26.613 26.336,26.94 -1.84,6.328 -1.207,13.361 2.322,19.528 6.904,12.071 22.011,16.743 34.037,9.036 2.118,-1.356 4.774,-3.869 6.832,-6.645 l 23.67,-30.844 c -3.711,-3.812 -6.255,-8.763 -7.054,-14.284 h -24.954 c -2.059,0 -3.728,-1.672 -3.728,-3.731"
     style="fill:#000000;fill-opacity:1;fill-rule:nonzero;stroke:none"
     id="path34790" />
  <path
     d="m 396.847,461.767 c 2.059,0 3.728,-1.669 3.728,-3.732 v -35.604 c 3.187,-0.464 6.181,-1.505 8.881,-3.016 0,0 25.756,33.56 30.106,39.232 4.345,5.675 6.689,11.524 6.689,18.36 0,16.58 -12.659,30.2 -28.841,31.724 v 9.867 c 0,11.36 -9.204,20.568 -20.563,20.568 -11.359,0 -20.563,-9.208 -20.563,-20.568 v -9.867 c -16.181,-1.524 -28.84,-15.144 -28.84,-31.724 0,-6.836 2.342,-12.685 6.69,-18.36 4.349,-5.672 30.105,-39.232 30.105,-39.232 2.699,1.511 5.695,2.552 8.881,3.016 v 35.604 c 0,2.063 1.668,3.732 3.727,3.732"
     style="fill:#000000;fill-opacity:1;fill-rule:nonzero;stroke:none"
     id="path34794" />
  <path
     d="M 610.245,610.251 C 555.432,664.959 480.385,698.608 396.85,698.639 313.313,698.608 238.263,664.959 183.45,610.251 128.737,555.434 95.0904,480.39 95.0611,396.851 95.0904,313.314 128.737,238.269 183.45,183.452 c 54.813,-54.708 129.859,-88.3599 213.4,-88.3893 83.535,0.0294 158.582,33.6813 213.395,88.3893 54.712,54.817 88.36,129.862 88.389,213.399 -0.029,83.539 -33.677,158.583 -88.389,213.4 M 396.85,31.7309 c -201.65,0 -365.1221,163.4701 -365.1221,365.1231 0,201.649 163.4721,365.12 365.1221,365.12 201.651,0 365.121,-163.471 365.121,-365.12 0,-201.653 -163.47,-365.1231 -365.121,-365.1231"
     style="fill:#000000;fill-opacity:1;fill-rule:nonzero;stroke:none"
     id="path34798" />
</svg>
