<?xml version="1.0" encoding="UTF-8" standalone="no"?>
<!-- Created with Inkscape (http://www.inkscape.org/) -->

<svg
   version="1.1"
   id="svg42323"
   width="793.70135"
   height="793.70135"
   viewBox="0 0 793.70135 793.70135"
   sodipodi:docname="naoe-kanetsugu.svg"
   inkscape:version="1.2 (dc2aeda, 2022-05-15)"
   xmlns:inkscape="http://www.inkscape.org/namespaces/inkscape"
   xmlns:sodipodi="http://sodipodi.sourceforge.net/DTD/sodipodi-0.dtd"
   xmlns="http://www.w3.org/2000/svg"
   xmlns:svg="http://www.w3.org/2000/svg">
  <defs
     id="defs42327">
    <clipPath
       clipPathUnits="userSpaceOnUse"
       id="clipPath43077">
      <path
         d="M -540.8213,585.8483 H 54.454697 V -9.4277 H -540.8213 Z"
         id="path43079"
         style="stroke-width:0.999998" />
    </clipPath>
    <clipPath
       clipPathUnits="userSpaceOnUse"
       id="clipPath43083">
      <path
         d="M -561.4131,585.8522 H 33.862897 V -9.4238 H -561.4131 Z"
         id="path43085"
         style="stroke-width:0.999998" />
    </clipPath>
    <clipPath
       clipPathUnits="userSpaceOnUse"
       id="clipPath43089">
      <path
         d="M -528.0898,575.3815 H 67.186197 V -19.8945 H -528.0898 Z"
         id="path43091"
         style="stroke-width:0.999998" />
    </clipPath>
    <clipPath
       clipPathUnits="userSpaceOnUse"
       id="clipPath43095">
      <path
         d="m -348.7451,433.8971 h 595.276 v -595.276 h -595.276 z"
         id="path43097"
         style="stroke-width:0.999998" />
    </clipPath>
    <clipPath
       clipPathUnits="userSpaceOnUse"
       id="clipPath43101">
      <path
         d="M -557.0645,585.8483 H 38.211497 V -9.4277 H -557.0645 Z"
         id="path43103"
         style="stroke-width:0.999998" />
    </clipPath>
    <clipPath
       clipPathUnits="userSpaceOnUse"
       id="clipPath43107">
      <path
         d="M -545.417,584.5729 H 49.858997 V -10.7031 H -545.417 Z"
         id="path43109"
         style="stroke-width:0.999998" />
    </clipPath>
    <clipPath
       clipPathUnits="userSpaceOnUse"
       id="clipPath43113">
      <path
         d="M -542.9326,584.5729 H 52.343397 V -10.7031 H -542.9326 Z"
         id="path43115"
         style="stroke-width:0.999998" />
    </clipPath>
    <clipPath
       clipPathUnits="userSpaceOnUse"
       id="clipPath43119">
      <path
         d="M -553.8975,585.8483 H 41.378497 V -9.4277 H -553.8975 Z"
         id="path43121"
         style="stroke-width:0.999998" />
    </clipPath>
    <clipPath
       clipPathUnits="userSpaceOnUse"
       id="clipPath43125">
      <path
         d="M -531.1924,581.5885 H 64.083597 V -13.6875 H -531.1924 Z"
         id="path43127"
         style="stroke-width:0.999998" />
    </clipPath>
    <clipPath
       clipPathUnits="userSpaceOnUse"
       id="clipPath43131">
      <path
         d="M -586.5449,579.5026 H 8.7310974 V -15.7734 H -586.5449 Z"
         id="path43133"
         style="stroke-width:0.999998" />
    </clipPath>
    <clipPath
       clipPathUnits="userSpaceOnUse"
       id="clipPath43137">
      <path
         d="M -584.1943,578.9381 H 11.081697 V -16.3379 H -584.1943 Z"
         id="path43139"
         style="stroke-width:0.999998" />
    </clipPath>
    <clipPath
       clipPathUnits="userSpaceOnUse"
       id="clipPath43143">
      <path
         d="M -538.2217,577.9479 H 57.054297 V -17.3281 H -538.2217 Z"
         id="path43145"
         style="stroke-width:0.999998" />
    </clipPath>
    <clipPath
       clipPathUnits="userSpaceOnUse"
       id="clipPath43149">
      <path
         d="m -228.4751,225.5768 h 595.276 v -595.276 h -595.276 z"
         id="path43151"
         style="stroke-width:0.999998" />
    </clipPath>
    <clipPath
       clipPathUnits="userSpaceOnUse"
       id="clipPath43155">
      <path
         d="m -379.4561,232.8776 h 595.276 v -595.276 h -595.276 z"
         id="path43157"
         style="stroke-width:0.999998" />
    </clipPath>
    <clipPath
       clipPathUnits="userSpaceOnUse"
       id="clipPath43161">
      <path
         d="m -108.1899,433.899 h 595.276 v -595.276 h -595.276 z"
         id="path43163"
         style="stroke-width:0.999998" />
    </clipPath>
    <clipPath
       clipPathUnits="userSpaceOnUse"
       id="clipPath43167">
      <path
         d="M -568.2266,575.819 H 27.049397 V -19.457 H -568.2266 Z"
         id="path43169"
         style="stroke-width:0.999998" />
    </clipPath>
    <clipPath
       clipPathUnits="userSpaceOnUse"
       id="clipPath43173">
      <path
         d="M -550.2637,577.3248 H 45.012297 V -17.9512 H -550.2637 Z"
         id="path43175"
         style="stroke-width:0.999998" />
    </clipPath>
    <clipPath
       clipPathUnits="userSpaceOnUse"
       id="clipPath43180">
      <path
         d="M -556.4014,578.0143 H 38.874597 V -17.2617 H -556.4014 Z"
         id="path43182"
         style="stroke-width:0.999998" />
    </clipPath>
    <clipPath
       clipPathUnits="userSpaceOnUse"
       id="clipPath43186">
      <path
         d="m -259.1729,441.2018 h 595.276 v -595.276 h -595.276 z"
         id="path43188"
         style="stroke-width:0.999998" />
    </clipPath>
    <clipPath
       clipPathUnits="userSpaceOnUse"
       id="clipPath43193">
      <path
         d="M -572.8174,586.1354 H 22.458597 V -9.1406 H -572.8174 Z"
         id="path43195"
         style="stroke-width:0.999998" />
    </clipPath>
    <clipPath
       clipPathUnits="userSpaceOnUse"
       id="clipPath43199">
      <path
         d="M -574.5459,585.8522 H 20.730097 V -9.4238 H -574.5459 Z"
         id="path43201"
         style="stroke-width:0.999998" />
    </clipPath>
    <clipPath
       clipPathUnits="userSpaceOnUse"
       id="clipPath43205">
      <path
         d="M -576.3691,585.5885 H 18.906897 V -9.6875 H -576.3691 Z"
         id="path43207"
         style="stroke-width:0.999998" />
    </clipPath>
    <clipPath
       clipPathUnits="userSpaceOnUse"
       id="clipPath43211">
      <path
         d="M -557.4951,577.8502 H 37.780897 V -17.4258 H -557.4951 Z"
         id="path43213"
         style="stroke-width:0.999998" />
    </clipPath>
    <clipPath
       clipPathUnits="userSpaceOnUse"
       id="clipPath43217">
      <path
         d="M -499.7256,441.1998 H 95.550397 v -595.276 H -499.7256 Z"
         id="path43219"
         style="stroke-width:0.999998" />
    </clipPath>
    <clipPath
       clipPathUnits="userSpaceOnUse"
       id="clipPath43223">
      <path
         d="m -307.8877,186.8824 h 595.276 v -595.276 h -595.276 z"
         id="path43225"
         style="stroke-width:0.999998" />
    </clipPath>
    <clipPath
       clipPathUnits="userSpaceOnUse"
       id="clipPath43229">
      <path
         d="m -306.3857,175.6344 h 595.276 v -595.276 h -595.276 z"
         id="path43231"
         style="stroke-width:0.999998" />
    </clipPath>
    <clipPath
       clipPathUnits="userSpaceOnUse"
       id="clipPath43235">
      <path
         d="m -283.5244,184.9308 h 595.276 v -595.276 h -595.276 z"
         id="path43237"
         style="stroke-width:0.999998" />
    </clipPath>
    <clipPath
       clipPathUnits="userSpaceOnUse"
       id="clipPath43241">
      <path
         d="m -303.0068,200.0812 h 595.276 v -595.276 h -595.276 z"
         id="path43243"
         style="stroke-width:0.999998" />
    </clipPath>
    <clipPath
       clipPathUnits="userSpaceOnUse"
       id="clipPath43247">
      <path
         d="m -187.604,395.2076 h 595.276 v -595.276 h -595.276 z"
         id="path43249"
         style="stroke-width:0.999998" />
    </clipPath>
    <clipPath
       clipPathUnits="userSpaceOnUse"
       id="clipPath43253">
      <path
         d="m -186.1021,383.9596 h 595.276 v -595.276 h -595.276 z"
         id="path43255"
         style="stroke-width:0.999998" />
    </clipPath>
    <clipPath
       clipPathUnits="userSpaceOnUse"
       id="clipPath43259">
      <path
         d="m -163.2407,393.2565 h 595.276 v -595.276 h -595.276 z"
         id="path43261"
         style="stroke-width:0.999998" />
    </clipPath>
    <clipPath
       clipPathUnits="userSpaceOnUse"
       id="clipPath43265">
      <path
         d="m -182.7222,408.4069 h 595.276 v -595.276 h -595.276 z"
         id="path43267"
         style="stroke-width:0.999998" />
    </clipPath>
    <clipPath
       clipPathUnits="userSpaceOnUse"
       id="clipPath43271">
      <path
         d="m -428.1592,395.2057 h 595.276 v -595.276 h -595.276 z"
         id="path43273"
         style="stroke-width:0.999998" />
    </clipPath>
    <clipPath
       clipPathUnits="userSpaceOnUse"
       id="clipPath43277">
      <path
         d="m -426.6572,383.9576 h 595.276 v -595.276 h -595.276 z"
         id="path43279"
         style="stroke-width:0.999998" />
    </clipPath>
    <clipPath
       clipPathUnits="userSpaceOnUse"
       id="clipPath43283">
      <path
         d="m -403.7959,393.2545 h 595.276 v -595.276 h -595.276 z"
         id="path43285"
         style="stroke-width:0.999998" />
    </clipPath>
    <clipPath
       clipPathUnits="userSpaceOnUse"
       id="clipPath43289">
      <path
         d="m -423.2764,408.4049 h 595.276 v -595.276 h -595.276 z"
         id="path43291"
         style="stroke-width:0.999998" />
    </clipPath>
    <clipPath
       clipPathUnits="userSpaceOnUse"
       id="clipPath43295">
      <path
         d="M -564.5732,585.8483 H 30.702797 V -9.4277 H -564.5732 Z"
         id="path43297"
         style="stroke-width:0.999998" />
    </clipPath>
    <clipPath
       clipPathUnits="userSpaceOnUse"
       id="clipPath43301">
      <path
         d="M -548.9834,585.8522 H 46.292597 V -9.4238 H -548.9834 Z"
         id="path43303"
         style="stroke-width:0.999998" />
    </clipPath>
    <clipPath
       clipPathUnits="userSpaceOnUse"
       id="clipPath43307">
      <path
         d="M -567.7754,585.8522 H 27.500597 V -9.4238 H -567.7754 Z"
         id="path43309"
         style="stroke-width:0.999998" />
    </clipPath>
    <clipPath
       clipPathUnits="userSpaceOnUse"
       id="clipPath43313">
      <path
         d="M -536.6982,584.5729 H 58.577797 V -10.7031 H -536.6982 Z"
         id="path43315"
         style="stroke-width:0.999998" />
    </clipPath>
  </defs>
  <sodipodi:namedview
     id="namedview42325"
     pagecolor="#ffffff"
     bordercolor="#000000"
     borderopacity="0.25"
     inkscape:showpageshadow="2"
     inkscape:pageopacity="0.0"
     inkscape:pagecheckerboard="0"
     inkscape:deskcolor="#d1d1d1"
     showgrid="false"
     inkscape:zoom="0.29734106"
     inkscape:cx="-215.24105"
     inkscape:cy="396.85068"
     inkscape:window-width="1419"
     inkscape:window-height="456"
     inkscape:window-x="0"
     inkscape:window-y="25"
     inkscape:window-maximized="0"
     inkscape:current-layer="svg42323">
    <inkscape:page
       x="0"
       y="0"
       id="page42329"
       width="793.70135"
       height="793.70135" />
  </sodipodi:namedview>
  <path
     d="m 304.633,300.77 92.217,53.241 92.221,-53.243 V 194.281 l -92.221,-53.242 -92.217,53.242 z m -8.014,4.622 v -113.421 -2.314 l 100.231,-57.865 100.233,57.865 v 115.735 l -100.233,57.87 z"
     style="fill:#000000;fill-opacity:1;fill-rule:nonzero;stroke:none"
     id="path42443" />
  <path
     d="M 505.94,310.505 396.844,373.491 287.755,310.508 V 184.543 L 396.844,121.56 505.94,184.544 Z M 396.85,67.7308 241.141,157.629 V 337.423 L 396.85,427.322 552.56,337.423 V 157.629 Z"
     style="fill:#000000;fill-opacity:1;fill-rule:nonzero;stroke:none"
     id="path42447" />
  <path
     d="m 144.253,578.532 92.218,53.243 92.222,-53.245 V 472.048 l -92.222,-53.245 -92.218,53.245 z m -8.012,4.626 V 469.735 467.42 l 100.23,-57.863 100.232,57.863 v 115.738 l -100.232,57.866 z"
     style="fill:#000000;fill-opacity:1;fill-rule:nonzero;stroke:none"
     id="path42451" />
  <path
     d="M 345.563,588.27 236.465,651.253 127.377,588.275 V 462.306 l 109.088,-62.981 109.098,62.981 z M 236.471,345.495 80.7625,435.395 V 615.188 L 236.471,705.087 392.18,615.188 V 435.395 Z"
     style="fill:#000000;fill-opacity:1;fill-rule:nonzero;stroke:none"
     id="path42455" />
  <path
     d="m 464.992,578.53 92.219,53.242 92.221,-53.245 V 472.046 l -92.221,-53.245 -92.219,53.245 z m -8.013,4.625 v -113.423 -2.314 l 100.232,-57.861 100.231,57.861 v 115.737 l -100.231,57.866 z"
     style="fill:#000000;fill-opacity:1;fill-rule:nonzero;stroke:none"
     id="path42459" />
  <path
     d="M 666.3,588.267 557.204,651.251 448.115,588.272 V 462.303 L 557.204,399.322 666.3,462.306 Z M 557.212,345.494 401.5,435.393 V 615.185 L 557.212,705.084 712.92,615.185 V 435.393 Z"
     style="fill:#000000;fill-opacity:1;fill-rule:nonzero;stroke:none"
     id="path42463" />
  <path
     d="m 410.516,249.177 c 0,7.548 -6.117,13.667 -13.666,13.667 -7.547,0 -13.667,-6.119 -13.667,-13.667 0,-7.548 6.12,-13.667 13.667,-13.667 7.549,0 13.666,6.119 13.666,13.667"
     style="fill:#000000;fill-opacity:1;fill-rule:nonzero;stroke:none"
     id="path42467" />
  <path
     d="m 408.514,234.18 c 4.581,-9.623 7.145,-20.39 7.145,-31.756 0,-18.935 -7.112,-36.205 -18.809,-49.289 -11.698,13.084 -18.808,30.356 -18.808,49.289 0,11.365 2.565,22.132 7.144,31.753 2.557,-1.991 5.637,-3.34 8.997,-3.813 v -43.801 c 0,-13.334 1.016,-22.766 2.667,-22.766 1.65,0 2.666,9.1 2.666,22.766 0,13.666 0.003,43.801 0.003,43.801 3.361,0.474 6.44,1.825 8.995,3.816"
     style="fill:#000000;fill-opacity:1;fill-rule:nonzero;stroke:none"
     id="path42471" />
  <path
     d="m 378.031,246.576 c -10.623,0.844 -21.229,4.008 -31.073,9.692 -16.399,9.466 -27.799,24.258 -33.281,40.932 17.18,3.589 35.693,1.109 52.089,-8.356 9.841,-5.684 17.885,-13.287 23.926,-22.064 -3.002,-1.218 -5.71,-3.211 -7.8,-5.884 0,0 -26.385,15.233 -37.934,21.9 -11.547,6.666 -20.22,10.504 -21.045,9.073 -0.826,-1.429 6.545,-6.86 18.378,-13.692 11.836,-6.833 37.933,-21.904 37.933,-21.904 -1.269,-3.147 -1.638,-6.489 -1.193,-9.697"
     style="fill:#000000;fill-opacity:1;fill-rule:nonzero;stroke:none"
     id="path42475" />
  <path
     d="m 404.008,266.776 c 6.042,8.778 14.086,16.382 23.93,22.065 16.396,9.467 34.909,11.944 52.089,8.356 -5.483,-16.673 -16.885,-31.465 -33.281,-40.932 -9.842,-5.683 -20.448,-8.847 -31.071,-9.691 0.445,3.21 0.073,6.552 -1.195,9.699 0,0 26.383,15.233 37.932,21.901 11.547,6.666 19.205,12.26 18.38,13.69 -0.825,1.43 -9.213,-2.239 -21.046,-9.071 -11.836,-6.833 -37.935,-21.899 -37.935,-21.899 -2.092,2.672 -4.803,4.664 -7.803,5.882"
     style="fill:#000000;fill-opacity:1;fill-rule:nonzero;stroke:none"
     id="path42479" />
  <path
     d="m 250.138,526.944 c 0,7.547 -6.119,13.667 -13.667,13.667 -7.548,0 -13.666,-6.12 -13.666,-13.667 0,-7.549 6.118,-13.666 13.666,-13.666 7.548,0 13.667,6.117 13.667,13.666"
     style="fill:#000000;fill-opacity:1;fill-rule:nonzero;stroke:none"
     id="path42483" />
  <path
     d="m 248.135,511.947 c 4.582,-9.623 7.144,-20.391 7.144,-31.757 0,-18.934 -7.11,-36.204 -18.808,-49.289 -11.697,13.085 -18.808,30.355 -18.808,49.289 0,11.366 2.564,22.132 7.144,31.754 2.556,-1.992 5.636,-3.341 8.996,-3.814 0,0 0.002,-30.467 0.002,-43.8 0,-13.333 1.014,-22.765 2.665,-22.765 1.651,0 2.668,9.098 2.668,22.765 0,13.666 0.003,43.802 0.003,43.802 3.36,0.474 6.44,1.823 8.994,3.815"
     style="fill:#000000;fill-opacity:1;fill-rule:nonzero;stroke:none"
     id="path42487" />
  <path
     d="m 217.654,524.343 c -10.624,0.844 -21.23,4.008 -31.074,9.691 -16.398,9.465 -27.798,24.26 -33.282,40.932 17.182,3.588 35.694,1.109 52.089,-8.358 9.843,-5.681 17.887,-13.286 23.928,-22.062 -3.002,-1.219 -5.71,-3.211 -7.8,-5.883 0,0 -26.386,15.232 -37.934,21.899 -11.547,6.666 -20.221,10.505 -21.047,9.073 -0.825,-1.431 6.546,-6.86 18.38,-13.693 11.836,-6.834 37.933,-21.902 37.933,-21.902 -1.27,-3.148 -1.64,-6.489 -1.193,-9.697"
     style="fill:#000000;fill-opacity:1;fill-rule:nonzero;stroke:none"
     id="path42491" />
  <path
     d="m 243.629,544.543 c 6.042,8.779 14.085,16.38 23.929,22.065 16.397,9.466 34.909,11.943 52.091,8.354 -5.484,-16.671 -16.886,-31.463 -33.282,-40.93 -9.842,-5.682 -20.449,-8.849 -31.072,-9.692 0.447,3.211 0.075,6.552 -1.194,9.698 0,0 26.384,15.234 37.932,21.904 11.546,6.664 19.206,12.257 18.381,13.689 -0.825,1.431 -9.213,-2.239 -21.048,-9.072 -11.836,-6.833 -37.935,-21.899 -37.935,-21.899 -2.092,2.672 -4.801,4.664 -7.802,5.883"
     style="fill:#000000;fill-opacity:1;fill-rule:nonzero;stroke:none"
     id="path42495" />
  <path
     d="m 570.877,526.942 c 0,7.546 -6.12,13.666 -13.666,13.666 -7.55,0 -13.667,-6.12 -13.667,-13.666 0,-7.55 6.117,-13.667 13.667,-13.667 7.546,0 13.666,6.117 13.666,13.667"
     style="fill:#000000;fill-opacity:1;fill-rule:nonzero;stroke:none"
     id="path42499" />
  <path
     d="m 568.875,511.944 c 4.581,-9.622 7.142,-20.39 7.142,-31.757 0,-18.933 -7.109,-36.204 -18.806,-49.289 -11.698,13.085 -18.808,30.356 -18.808,49.289 0,11.367 2.562,22.132 7.144,31.755 2.554,-1.992 5.634,-3.342 8.994,-3.815 0,0 0.003,-30.467 0.003,-43.8 0,-13.333 1.013,-22.765 2.664,-22.765 1.651,0 2.669,9.099 2.669,22.765 0,13.667 0.003,43.803 0.003,43.803 3.359,0.473 6.44,1.822 8.995,3.814"
     style="fill:#000000;fill-opacity:1;fill-rule:nonzero;stroke:none"
     id="path42503" />
  <path
     d="m 538.393,524.339 c -10.625,0.844 -21.232,4.008 -31.076,9.691 -16.396,9.465 -27.796,24.26 -33.281,40.932 17.183,3.588 35.693,1.109 52.089,-8.358 9.844,-5.681 17.888,-13.286 23.93,-22.062 -3.003,-1.219 -5.711,-3.211 -7.802,-5.883 0,0 -26.386,15.232 -37.933,21.899 -11.547,6.666 -20.221,10.505 -21.047,9.073 -0.825,-1.431 6.544,-6.86 18.38,-13.693 11.836,-6.834 37.934,-21.902 37.934,-21.902 -1.272,-3.148 -1.642,-6.489 -1.194,-9.697"
     style="fill:#000000;fill-opacity:1;fill-rule:nonzero;stroke:none"
     id="path42507" />
  <path
     d="m 564.367,544.54 c 6.044,8.779 14.085,16.38 23.929,22.066 16.398,9.465 34.909,11.942 52.092,8.353 -5.486,-16.671 -16.886,-31.463 -33.282,-40.929 -9.843,-5.683 -20.45,-8.85 -31.073,-9.692 0.448,3.21 0.076,6.552 -1.194,9.697 0,0 26.385,15.235 37.931,21.904 11.547,6.664 19.208,12.257 18.383,13.689 -0.825,1.431 -9.213,-2.238 -21.049,-9.072 -11.836,-6.833 -37.935,-21.898 -37.935,-21.898 -2.092,2.672 -4.8,4.664 -7.802,5.882"
     style="fill:#000000;fill-opacity:1;fill-rule:nonzero;stroke:none"
     id="path42511" />
</svg>
