<?xml version="1.0" encoding="UTF-8" standalone="no"?>
<!-- Created with Inkscape (http://www.inkscape.org/) -->

<svg
   version="1.1"
   id="svg26721"
   width="793.70135"
   height="793.70135"
   viewBox="0 0 793.70135 793.70135"
   sodipodi:docname="saitou-dousan.svg"
   inkscape:version="1.2 (dc2aeda, 2022-05-15)"
   xmlns:inkscape="http://www.inkscape.org/namespaces/inkscape"
   xmlns:sodipodi="http://sodipodi.sourceforge.net/DTD/sodipodi-0.dtd"
   xmlns="http://www.w3.org/2000/svg"
   xmlns:svg="http://www.w3.org/2000/svg">
  <defs
     id="defs26725">
    <clipPath
       clipPathUnits="userSpaceOnUse"
       id="clipPath27217">
      <path
         d="M -538.2217,577.9479 H 57.054297 V -17.3281 H -538.2217 Z"
         id="path27219"
         style="stroke-width:0.999998" />
    </clipPath>
    <clipPath
       clipPathUnits="userSpaceOnUse"
       id="clipPath27221">
      <path
         d="M -584.1943,578.9381 H 11.081697 V -16.3379 H -584.1943 Z"
         id="path27223"
         style="stroke-width:0.999998" />
    </clipPath>
    <clipPath
       clipPathUnits="userSpaceOnUse"
       id="clipPath27225">
      <path
         d="M -586.5449,579.5026 H 8.7310974 V -15.7734 H -586.5449 Z"
         id="path27227"
         style="stroke-width:0.999998" />
    </clipPath>
    <clipPath
       clipPathUnits="userSpaceOnUse"
       id="clipPath27229">
      <path
         d="M -556.4014,578.0143 H 38.874597 V -17.2617 H -556.4014 Z"
         id="path27231"
         style="stroke-width:0.999998" />
    </clipPath>
    <clipPath
       clipPathUnits="userSpaceOnUse"
       id="clipPath27233">
      <path
         d="M -550.2637,577.3248 H 45.012297 V -17.9512 H -550.2637 Z"
         id="path27235"
         style="stroke-width:0.999998" />
    </clipPath>
    <clipPath
       clipPathUnits="userSpaceOnUse"
       id="clipPath27237">
      <path
         d="M -568.2266,575.819 H 27.049397 V -19.457 H -568.2266 Z"
         id="path27239"
         style="stroke-width:0.999998" />
    </clipPath>
    <clipPath
       clipPathUnits="userSpaceOnUse"
       id="clipPath27241">
      <path
         d="M -557.4951,577.8502 H 37.780897 V -17.4258 H -557.4951 Z"
         id="path27243"
         style="stroke-width:0.999998" />
    </clipPath>
    <clipPath
       clipPathUnits="userSpaceOnUse"
       id="clipPath27245">
      <path
         d="M -576.3691,585.5885 H 18.906897 V -9.6875 H -576.3691 Z"
         id="path27247"
         style="stroke-width:0.999998" />
    </clipPath>
    <clipPath
       clipPathUnits="userSpaceOnUse"
       id="clipPath27249">
      <path
         d="M -574.5459,585.8522 H 20.730097 V -9.4238 H -574.5459 Z"
         id="path27251"
         style="stroke-width:0.999998" />
    </clipPath>
    <clipPath
       clipPathUnits="userSpaceOnUse"
       id="clipPath27253">
      <path
         d="M -572.8174,586.1354 H 22.458597 V -9.1406 H -572.8174 Z"
         id="path27255"
         style="stroke-width:0.999998" />
    </clipPath>
    <clipPath
       clipPathUnits="userSpaceOnUse"
       id="clipPath27257">
      <path
         d="M -567.7754,585.8522 H 27.500597 V -9.4238 H -567.7754 Z"
         id="path27259"
         style="stroke-width:0.999998" />
    </clipPath>
    <clipPath
       clipPathUnits="userSpaceOnUse"
       id="clipPath27261">
      <path
         d="M -564.5732,585.8483 H 30.702797 V -9.4277 H -564.5732 Z"
         id="path27263"
         style="stroke-width:0.999998" />
    </clipPath>
    <clipPath
       clipPathUnits="userSpaceOnUse"
       id="clipPath27265">
      <path
         d="M -561.4131,585.8522 H 33.862897 V -9.4238 H -561.4131 Z"
         id="path27267"
         style="stroke-width:0.999998" />
    </clipPath>
    <clipPath
       clipPathUnits="userSpaceOnUse"
       id="clipPath27269">
      <path
         d="M -557.0645,585.8483 H 38.211497 V -9.4277 H -557.0645 Z"
         id="path27271"
         style="stroke-width:0.999998" />
    </clipPath>
    <clipPath
       clipPathUnits="userSpaceOnUse"
       id="clipPath27273">
      <path
         d="M -553.8975,585.8483 H 41.378497 V -9.4277 H -553.8975 Z"
         id="path27275"
         style="stroke-width:0.999998" />
    </clipPath>
    <clipPath
       clipPathUnits="userSpaceOnUse"
       id="clipPath27277">
      <path
         d="M -548.9834,585.8522 H 46.292597 V -9.4238 H -548.9834 Z"
         id="path27279"
         style="stroke-width:0.999998" />
    </clipPath>
    <clipPath
       clipPathUnits="userSpaceOnUse"
       id="clipPath27281">
      <path
         d="M -545.417,584.5729 H 49.858997 V -10.7031 H -545.417 Z"
         id="path27283"
         style="stroke-width:0.999998" />
    </clipPath>
    <clipPath
       clipPathUnits="userSpaceOnUse"
       id="clipPath27285">
      <path
         d="M -542.9326,584.5729 H 52.343397 V -10.7031 H -542.9326 Z"
         id="path27287"
         style="stroke-width:0.999998" />
    </clipPath>
    <clipPath
       clipPathUnits="userSpaceOnUse"
       id="clipPath27289">
      <path
         d="M -540.8213,585.8483 H 54.454697 V -9.4277 H -540.8213 Z"
         id="path27291"
         style="stroke-width:0.999998" />
    </clipPath>
    <clipPath
       clipPathUnits="userSpaceOnUse"
       id="clipPath27293">
      <path
         d="M -536.6982,584.5729 H 58.577797 V -10.7031 H -536.6982 Z"
         id="path27295"
         style="stroke-width:0.999998" />
    </clipPath>
    <clipPath
       clipPathUnits="userSpaceOnUse"
       id="clipPath27297">
      <path
         d="M -528.0898,575.3815 H 67.186197 V -19.8945 H -528.0898 Z"
         id="path27299"
         style="stroke-width:0.999998" />
    </clipPath>
    <clipPath
       clipPathUnits="userSpaceOnUse"
       id="clipPath27301">
      <path
         d="M -531.1924,581.5885 H 64.083597 V -13.6875 H -531.1924 Z"
         id="path27303"
         style="stroke-width:0.999998" />
    </clipPath>
    <clipPath
       clipPathUnits="userSpaceOnUse"
       id="clipPath27430">
      <path
         d="m -97.4482,388.4127 h 595.276 v -595.276 h -595.276 z"
         id="path27432"
         style="stroke-width:0.999998" />
    </clipPath>
    <clipPath
       clipPathUnits="userSpaceOnUse"
       id="clipPath27436">
      <path
         d="m -175.1123,333.1842 h 595.276 v -595.276 h -595.276 z"
         id="path27438"
         style="stroke-width:0.999998" />
    </clipPath>
    <clipPath
       clipPathUnits="userSpaceOnUse"
       id="clipPath27442">
      <path
         d="M -524.8291,413.1608 H 70.446897 v -595.276 H -524.8291 Z"
         id="path27444"
         style="stroke-width:0.999998" />
    </clipPath>
    <clipPath
       clipPathUnits="userSpaceOnUse"
       id="clipPath27448">
      <path
         d="M -570.4707,273.9874 H 24.805297 v -595.276 H -570.4707 Z"
         id="path27450"
         style="stroke-width:0.999998" />
    </clipPath>
    <clipPath
       clipPathUnits="userSpaceOnUse"
       id="clipPath27454">
      <path
         d="m -438.4619,189.6051 h 595.276 v -595.276 h -595.276 z"
         id="path27456"
         style="stroke-width:0.999998" />
    </clipPath>
    <clipPath
       clipPathUnits="userSpaceOnUse"
       id="clipPath27460">
      <path
         d="m -483.1143,285.5245 h 595.276 v -595.276 h -595.276 z"
         id="path27462"
         style="stroke-width:0.999998" />
    </clipPath>
  </defs>
  <sodipodi:namedview
     id="namedview26723"
     pagecolor="#ffffff"
     bordercolor="#000000"
     borderopacity="0.25"
     inkscape:showpageshadow="2"
     inkscape:pageopacity="0.0"
     inkscape:pagecheckerboard="0"
     inkscape:deskcolor="#d1d1d1"
     showgrid="false"
     inkscape:zoom="0.29734106"
     inkscape:cx="-215.24105"
     inkscape:cy="396.85068"
     inkscape:window-width="1419"
     inkscape:window-height="456"
     inkscape:window-x="0"
     inkscape:window-y="25"
     inkscape:window-maximized="0"
     inkscape:current-layer="svg26721">
    <inkscape:page
       x="0"
       y="0"
       id="page26727"
       width="793.70135"
       height="793.70135" />
  </sodipodi:namedview>
  <path
     d="m 129.931,517.884 c 0,20.743 -16.815,37.558 -37.5563,37.558 -20.7413,0 -37.5559,-16.815 -37.5559,-37.558 0,-20.74 16.8146,-37.554 37.5559,-37.554 20.7413,0 37.5563,16.814 37.5563,37.554"
     style="fill:#000000;fill-opacity:1;fill-rule:nonzero;stroke:none"
     id="path26841" />
  <path
     d="m 233.482,444.246 c 0,17.078 -13.847,30.924 -30.924,30.924 -17.078,0 -30.925,-13.846 -30.925,-30.924 0,-17.079 13.847,-30.924 30.925,-30.924 17.077,0 30.924,13.845 30.924,30.924"
     style="fill:#000000;fill-opacity:1;fill-rule:nonzero;stroke:none"
     id="path26845" />
  <path
     d="m 644.15,380.699 c 0,17.263 -13.994,31.258 -31.257,31.258 -17.262,0 -31.258,-13.995 -31.258,-31.258 0,-17.262 13.996,-31.257 31.258,-31.257 17.263,0 31.257,13.995 31.257,31.257"
     style="fill:#000000;fill-opacity:1;fill-rule:nonzero;stroke:none"
     id="path26849" />
  <path
     d="m 584.615,252.808 c 0,20.88 -16.927,37.806 -37.807,37.806 -20.88,0 -37.808,-16.926 -37.808,-37.806 0,-20.88 16.928,-37.807 37.808,-37.807 20.88,0 37.807,16.927 37.807,37.807"
     style="fill:#000000;fill-opacity:1;fill-rule:nonzero;stroke:none"
     id="path26853" />
  <path
     d="m 760.626,365.317 c 0,16.608 -13.464,30.072 -30.072,30.072 -16.608,0 -30.072,-13.464 -30.072,-30.072 0,-16.608 13.464,-30.072 30.072,-30.072 16.608,0 30.072,13.464 30.072,30.072"
     style="fill:#000000;fill-opacity:1;fill-rule:nonzero;stroke:none"
     id="path26857" />
  <path
     d="m 699.77,550.882 c -34.486,10.424 -71.068,16.028 -108.955,16.028 -51.588,0 -100.75,-10.388 -145.508,-29.19 -36.044,18.654 -76.969,29.19 -120.356,29.19 -46.734,0 -90.613,-12.223 -128.613,-33.651 17.005,3.131 34.533,4.765 52.445,4.765 74.892,0 143.109,-28.609 194.312,-75.484 10.977,-9.463 17.929,-23.47 17.929,-39.101 0,-28.497 -23.101,-51.597 -51.597,-51.597 -14.099,0 -26.875,5.655 -36.188,14.82 -8.977,8.979 -15.143,22.031 -22.345,29.236 -16.832,16.833 -44.125,16.833 -60.959,0 -16.833,-16.833 -16.833,-44.125 0,-60.96 14.454,-14.453 39.798,-17.856 52.265,-30.325 8.428,-8.04 13.684,-19.384 13.684,-31.951 0,-24.385 -19.768,-44.153 -44.153,-44.153 -12.354,0 -23.529,5.083 -31.544,13.261 -11.914,11.915 -22.793,43.388 -37.49,58.084 -21.436,21.435 -56.188,21.436 -77.624,0 -21.437,-21.436 -21.44,-56.188 -0.001,-77.624 23.865,-23.865 77.077,-45.652 115.743,-45.652 80.667,0 116.347,52.602 168.808,140.299 65.433,109.382 148.958,179.346 250.147,214.005"
     style="fill:#000000;fill-opacity:1;fill-rule:nonzero;stroke:none"
     id="path26861" />
</svg>
