<?xml version="1.0" encoding="UTF-8" standalone="no"?>
<!-- Created with Inkscape (http://www.inkscape.org/) -->

<svg
   version="1.1"
   id="svg53647"
   width="793.70135"
   height="793.70135"
   viewBox="0 0 793.70135 793.70135"
   sodipodi:docname="umebachi.svg"
   inkscape:version="1.2 (dc2aeda, 2022-05-15)"
   xmlns:inkscape="http://www.inkscape.org/namespaces/inkscape"
   xmlns:sodipodi="http://sodipodi.sourceforge.net/DTD/sodipodi-0.dtd"
   xmlns="http://www.w3.org/2000/svg"
   xmlns:svg="http://www.w3.org/2000/svg">
  <defs
     id="defs53651">
    <clipPath
       clipPathUnits="userSpaceOnUse"
       id="clipPath54387">
      <path
         d="M -545.417,584.5729 H 49.858997 V -10.7031 H -545.417 Z"
         id="path54389"
         style="stroke-width:0.999998" />
    </clipPath>
    <clipPath
       clipPathUnits="userSpaceOnUse"
       id="clipPath54393">
      <path
         d="M -540.8213,585.8483 H 54.454697 V -9.4277 H -540.8213 Z"
         id="path54395"
         style="stroke-width:0.999998" />
    </clipPath>
    <clipPath
       clipPathUnits="userSpaceOnUse"
       id="clipPath54399">
      <path
         d="M -536.6982,584.5729 H 58.577797 V -10.7031 H -536.6982 Z"
         id="path54401"
         style="stroke-width:0.999998" />
    </clipPath>
    <clipPath
       clipPathUnits="userSpaceOnUse"
       id="clipPath54405">
      <path
         d="M -542.9326,584.5729 H 52.343397 V -10.7031 H -542.9326 Z"
         id="path54407"
         style="stroke-width:0.999998" />
    </clipPath>
    <clipPath
       clipPathUnits="userSpaceOnUse"
       id="clipPath54411">
      <path
         d="M -528.0898,575.3815 H 67.186197 V -19.8945 H -528.0898 Z"
         id="path54413"
         style="stroke-width:0.999998" />
    </clipPath>
    <clipPath
       clipPathUnits="userSpaceOnUse"
       id="clipPath54417">
      <path
         d="M -553.8975,585.8483 H 41.378497 V -9.4277 H -553.8975 Z"
         id="path54419"
         style="stroke-width:0.999998" />
    </clipPath>
    <clipPath
       clipPathUnits="userSpaceOnUse"
       id="clipPath54423">
      <path
         d="M -557.0645,585.8483 H 38.211497 V -9.4277 H -557.0645 Z"
         id="path54425"
         style="stroke-width:0.999998" />
    </clipPath>
    <clipPath
       clipPathUnits="userSpaceOnUse"
       id="clipPath54429">
      <path
         d="M -548.9834,585.8522 H 46.292597 V -9.4238 H -548.9834 Z"
         id="path54431"
         style="stroke-width:0.999998" />
    </clipPath>
    <clipPath
       clipPathUnits="userSpaceOnUse"
       id="clipPath54435">
      <path
         d="M -561.4131,585.8522 H 33.862897 V -9.4238 H -561.4131 Z"
         id="path54437"
         style="stroke-width:0.999998" />
    </clipPath>
    <clipPath
       clipPathUnits="userSpaceOnUse"
       id="clipPath54441">
      <path
         d="M -567.7754,585.8522 H 27.500597 V -9.4238 H -567.7754 Z"
         id="path54443"
         style="stroke-width:0.999998" />
    </clipPath>
    <clipPath
       clipPathUnits="userSpaceOnUse"
       id="clipPath54448">
      <path
         d="M -576.3691,585.5885 H 18.906897 V -9.6875 H -576.3691 Z"
         id="path54450"
         style="stroke-width:0.999998" />
    </clipPath>
    <clipPath
       clipPathUnits="userSpaceOnUse"
       id="clipPath54454">
      <path
         d="M -557.4951,577.8502 H 37.780897 V -17.4258 H -557.4951 Z"
         id="path54456"
         style="stroke-width:0.999998" />
    </clipPath>
    <clipPath
       clipPathUnits="userSpaceOnUse"
       id="clipPath54460">
      <path
         d="M -574.5459,585.8522 H 20.730097 V -9.4238 H -574.5459 Z"
         id="path54462"
         style="stroke-width:0.999998" />
    </clipPath>
    <clipPath
       clipPathUnits="userSpaceOnUse"
       id="clipPath54466">
      <path
         d="M -568.2266,575.819 H 27.049397 V -19.457 H -568.2266 Z"
         id="path54468"
         style="stroke-width:0.999998" />
    </clipPath>
    <clipPath
       clipPathUnits="userSpaceOnUse"
       id="clipPath54472">
      <path
         d="M -550.2637,577.3248 H 45.012297 V -17.9512 H -550.2637 Z"
         id="path54474"
         style="stroke-width:0.999998" />
    </clipPath>
    <clipPath
       clipPathUnits="userSpaceOnUse"
       id="clipPath54479">
      <path
         d="M -556.4014,578.0143 H 38.874597 V -17.2617 H -556.4014 Z"
         id="path54481"
         style="stroke-width:0.999998" />
    </clipPath>
    <clipPath
       clipPathUnits="userSpaceOnUse"
       id="clipPath54485">
      <path
         d="M -586.5449,579.5026 H 8.7310974 V -15.7734 H -586.5449 Z"
         id="path54487"
         style="stroke-width:0.999998" />
    </clipPath>
    <clipPath
       clipPathUnits="userSpaceOnUse"
       id="clipPath54491">
      <path
         d="M -584.1943,578.9381 H 11.081697 V -16.3379 H -584.1943 Z"
         id="path54493"
         style="stroke-width:0.999998" />
    </clipPath>
    <clipPath
       clipPathUnits="userSpaceOnUse"
       id="clipPath54497">
      <path
         d="M -538.2217,577.9479 H 57.054297 V -17.3281 H -538.2217 Z"
         id="path54499"
         style="stroke-width:0.999998" />
    </clipPath>
    <clipPath
       clipPathUnits="userSpaceOnUse"
       id="clipPath54503">
      <path
         d="m -341.085,309.6569 h 595.276 v -595.276 h -595.276 z"
         id="path54505"
         style="stroke-width:0.999998" />
    </clipPath>
    <clipPath
       clipPathUnits="userSpaceOnUse"
       id="clipPath54509">
      <path
         d="m -259.875,276.7814 h 595.276 v -595.276 h -595.276 z"
         id="path54511"
         style="stroke-width:0.999998" />
    </clipPath>
    <clipPath
       clipPathUnits="userSpaceOnUse"
       id="clipPath54515">
      <path
         d="m -317.2168,355.7584 h 595.276 v -595.276 h -595.276 z"
         id="path54517"
         style="stroke-width:0.999998" />
    </clipPath>
    <clipPath
       clipPathUnits="userSpaceOnUse"
       id="clipPath54521">
      <path
         d="m -254.6895,283.9059 h 595.276 v -595.276 h -595.276 z"
         id="path54523"
         style="stroke-width:0.999998" />
    </clipPath>
    <clipPath
       clipPathUnits="userSpaceOnUse"
       id="clipPath54527">
      <path
         d="m -340.5879,335.4049 h 595.276 v -595.276 h -595.276 z"
         id="path54529"
         style="stroke-width:0.999998" />
    </clipPath>
    <clipPath
       clipPathUnits="userSpaceOnUse"
       id="clipPath54533">
      <path
         d="m -247.7568,314.0709 h 595.276 v -595.276 h -595.276 z"
         id="path54535"
         style="stroke-width:0.999998" />
    </clipPath>
    <clipPath
       clipPathUnits="userSpaceOnUse"
       id="clipPath54539">
      <path
         d="m -347.5059,305.2037 h 595.276 v -595.276 h -595.276 z"
         id="path54541"
         style="stroke-width:0.999998" />
    </clipPath>
    <clipPath
       clipPathUnits="userSpaceOnUse"
       id="clipPath54545">
      <path
         d="m -286.4229,358.4713 h 595.276 v -595.276 h -595.276 z"
         id="path54547"
         style="stroke-width:0.999998" />
    </clipPath>
    <clipPath
       clipPathUnits="userSpaceOnUse"
       id="clipPath54551">
      <path
         d="m -259.875,342.5416 h 595.276 v -595.276 h -595.276 z"
         id="path54553"
         style="stroke-width:0.999998" />
    </clipPath>
    <clipPath
       clipPathUnits="userSpaceOnUse"
       id="clipPath54557">
      <path
         d="m -308.8467,260.8439 h 595.276 v -595.276 h -595.276 z"
         id="path54559"
         style="stroke-width:0.999998" />
    </clipPath>
    <clipPath
       clipPathUnits="userSpaceOnUse"
       id="clipPath54563">
      <path
         d="m -200.6729,132.7262 h 595.276 v -595.276 h -595.276 z"
         id="path54565"
         style="stroke-width:0.999998" />
    </clipPath>
    <clipPath
       clipPathUnits="userSpaceOnUse"
       id="clipPath54569">
      <path
         d="m -335.4082,276.7814 h 595.276 v -595.276 h -595.276 z"
         id="path54571"
         style="stroke-width:0.999998" />
    </clipPath>
    <clipPath
       clipPathUnits="userSpaceOnUse"
       id="clipPath54575">
      <path
         d="m -99.4014,347.2037 h 595.276 v -595.276 h -595.276 z"
         id="path54577"
         style="stroke-width:0.999998" />
    </clipPath>
    <clipPath
       clipPathUnits="userSpaceOnUse"
       id="clipPath54581">
      <path
         d="m -272.0859,509.7936 h 595.276 v -595.276 h -595.276 z"
         id="path54583"
         style="stroke-width:0.999998" />
    </clipPath>
    <clipPath
       clipPathUnits="userSpaceOnUse"
       id="clipPath54587">
      <path
         d="m -480.083,395.8053 h 595.276 v -595.276 h -595.276 z"
         id="path54589"
         style="stroke-width:0.999998" />
    </clipPath>
    <clipPath
       clipPathUnits="userSpaceOnUse"
       id="clipPath54593">
      <path
         d="M -572.8174,586.1354 H 22.458597 V -9.1406 H -572.8174 Z"
         id="path54595"
         style="stroke-width:0.999998" />
    </clipPath>
    <clipPath
       clipPathUnits="userSpaceOnUse"
       id="clipPath54599">
      <path
         d="m -435.9463,162.7623 h 595.276 v -595.276 h -595.276 z"
         id="path54601"
         style="stroke-width:0.999998" />
    </clipPath>
    <clipPath
       clipPathUnits="userSpaceOnUse"
       id="clipPath54605">
      <path
         d="m -254.1924,309.6588 h 595.276 v -595.276 h -595.276 z"
         id="path54607"
         style="stroke-width:0.999998" />
    </clipPath>
    <clipPath
       clipPathUnits="userSpaceOnUse"
       id="clipPath54611">
      <path
         d="M -564.5732,585.8483 H 30.702797 V -9.4277 H -564.5732 Z"
         id="path54613"
         style="stroke-width:0.999998" />
    </clipPath>
    <clipPath
       clipPathUnits="userSpaceOnUse"
       id="clipPath54617">
      <path
         d="M -531.1924,581.5885 H 64.083597 V -13.6875 H -531.1924 Z"
         id="path54619"
         style="stroke-width:0.999998" />
    </clipPath>
  </defs>
  <sodipodi:namedview
     id="namedview53649"
     pagecolor="#ffffff"
     bordercolor="#000000"
     borderopacity="0.25"
     inkscape:showpageshadow="2"
     inkscape:pageopacity="0.0"
     inkscape:pagecheckerboard="0"
     inkscape:deskcolor="#d1d1d1"
     showgrid="false"
     inkscape:zoom="0.29734106"
     inkscape:cx="-215.24105"
     inkscape:cy="396.85068"
     inkscape:window-width="1419"
     inkscape:window-height="456"
     inkscape:window-x="0"
     inkscape:window-y="25"
     inkscape:window-maximized="0"
     inkscape:current-layer="svg53647">
    <inkscape:page
       x="0"
       y="0"
       id="page53653"
       width="793.70135"
       height="793.70135" />
  </sodipodi:namedview>
  <path
     d="m 454.779,412.877 c 0,31.994 -25.939,57.926 -57.929,57.926 -31.99,0 -57.928,-25.932 -57.928,-57.926 0,-31.991 25.938,-57.926 57.928,-57.926 31.99,0 57.929,25.935 57.929,57.926"
     style="fill:#000000;fill-opacity:1;fill-rule:nonzero;stroke:none"
     id="path53767" />
  <path
     d="m 346.499,369.042 c 6.587,-7.564 14.835,-13.617 24.195,-17.604 l -10.948,-33.704 h -32.088 l -9.884,30.375 z"
     style="fill:#000000;fill-opacity:1;fill-rule:nonzero;stroke:none"
     id="path53771" />
  <path
     d="m 422.955,474.344 9.861,30.246 40.093,-29.186 -25.729,-18.658 c -6.602,7.565 -14.849,13.614 -24.225,17.598"
     style="fill:#000000;fill-opacity:1;fill-rule:nonzero;stroke:none"
     id="path53775" />
  <path
     d="m 339.586,378.542 -25.639,-18.597 -15.29,47.038 31.696,-0.046 c 0.921,-10.303 4.17,-19.975 9.233,-28.395"
     style="fill:#000000;fill-opacity:1;fill-rule:nonzero;stroke:none"
     id="path53779" />
  <path
     d="m 454.116,447.207 28.836,20.883 25.855,-18.744 -9.954,-30.605 -35.503,0.021 c -0.902,10.339 -4.16,19.995 -9.234,28.445"
     style="fill:#000000;fill-opacity:1;fill-rule:nonzero;stroke:none"
     id="path53783" />
  <path
     d="m 330.342,418.762 -35.569,-0.044 -9.875,30.629 25.888,18.805 28.825,-20.885 c -5.116,-8.469 -8.356,-18.12 -9.269,-28.505"
     style="fill:#000000;fill-opacity:1;fill-rule:nonzero;stroke:none"
     id="path53787" />
  <path
     d="m 463.34,406.939 31.687,0.022 -15.271,-47.002 -25.61,18.643 c 5.013,8.395 8.282,18.08 9.194,28.337"
     style="fill:#000000;fill-opacity:1;fill-rule:nonzero;stroke:none"
     id="path53791" />
  <path
     d="m 381.896,477.962 -11.001,33.866 25.956,18.858 25.965,-18.834 -11.078,-33.88 c -4.768,1.083 -9.788,1.667 -14.887,1.667 -5.141,0 -10.148,-0.581 -14.955,-1.677"
     style="fill:#000000;fill-opacity:1;fill-rule:nonzero;stroke:none"
     id="path53795" />
  <path
     d="m 346.499,456.723 -25.761,18.685 40.137,29.14 9.841,-30.224 c -9.374,-3.981 -17.618,-10.03 -24.217,-17.601"
     style="fill:#000000;fill-opacity:1;fill-rule:nonzero;stroke:none"
     id="path53799" />
  <path
     d="m 411.795,347.793 9.744,-30.052 H 372.16 l 9.756,30.053 c 4.799,-1.095 9.81,-1.683 14.934,-1.685 5.133,0.002 10.144,0.582 14.945,1.684"
     style="fill:#000000;fill-opacity:1;fill-rule:nonzero;stroke:none"
     id="path53803" />
  <path
     d="m 447.21,369.042 28.715,-20.843 -9.882,-30.465 h -32.097 l -10.911,33.709 c 9.329,3.994 17.599,10.047 24.175,17.599"
     style="fill:#000000;fill-opacity:1;fill-rule:nonzero;stroke:none"
     id="path53807" />
  <path
     d="M 267.563,176.969 C 267.567,105.565 325.455,47.6829 396.85,47.6789 468.252,47.6829 526.132,105.565 526.135,176.969 526.132,248.381 468.249,306.254 396.85,306.258 325.455,306.254 267.567,248.381 267.563,176.969"
     style="fill:#000000;fill-opacity:1;fill-rule:nonzero;stroke:none"
     id="path53811" />
  <path
     d="M 132.535,462.939 C 64.6297,440.869 27.4671,367.927 49.5257,300.025 71.5964,232.118 144.531,194.958 212.44,217.021 c 67.914,22.069 105.07,95.003 83.012,162.91 -22.068,67.899 -94.999,105.071 -162.917,83.008"
     style="fill:#000000;fill-opacity:1;fill-rule:nonzero;stroke:none"
     id="path53815" />
  <path
     d="m 362.78,679.725 c -41.971,57.762 -122.826,70.568 -180.587,28.604 -57.765,-41.974 -70.565,-122.823 -28.6,-180.588 41.977,-57.773 122.825,-70.57 180.589,-28.606 57.754,41.967 70.57,122.814 28.598,180.59"
     style="fill:#000000;fill-opacity:1;fill-rule:nonzero;stroke:none"
     id="path53819" />
  <path
     d="m 640.109,527.74 c 41.965,57.766 29.156,138.62 -28.601,180.588 -57.771,41.966 -138.616,29.157 -180.589,-28.607 -41.972,-57.773 -29.161,-138.619 28.6,-180.59 57.76,-41.958 138.61,-29.164 180.59,28.609"
     style="fill:#000000;fill-opacity:1;fill-rule:nonzero;stroke:none"
     id="path53823" />
  <path
     d="m 581.26,217.017 c 67.909,-22.061 140.848,15.107 162.911,83.007 22.06,67.91 -15.106,140.842 -83.01,162.911 C 593.244,485 520.316,447.834 498.247,379.927 476.191,312.028 513.344,239.089 581.26,217.017"
     style="fill:#000000;fill-opacity:1;fill-rule:nonzero;stroke:none"
     id="path53827" />
  <path
     d="m 338.922,412.879 c 0,-31.996 25.937,-57.928 57.926,-57.928 31.991,0 57.931,25.932 57.931,57.928 0,31.99 -25.94,57.924 -57.931,57.924 -31.989,0 -57.926,-25.934 -57.926,-57.924"
     style="fill:#000000;fill-opacity:1;fill-rule:nonzero;stroke:none"
     id="path53831" />
</svg>
