<?xml version="1.0" encoding="UTF-8" standalone="no"?>
<!-- Created with Inkscape (http://www.inkscape.org/) -->

<svg
   version="1.1"
   id="svg40694"
   width="793.70135"
   height="793.70135"
   viewBox="0 0 793.70135 793.70135"
   sodipodi:docname="nabeshima-gyouyou.svg"
   inkscape:version="1.2 (dc2aeda, 2022-05-15)"
   xmlns:inkscape="http://www.inkscape.org/namespaces/inkscape"
   xmlns:sodipodi="http://sodipodi.sourceforge.net/DTD/sodipodi-0.dtd"
   xmlns="http://www.w3.org/2000/svg"
   xmlns:svg="http://www.w3.org/2000/svg">
  <defs
     id="defs40698">
    <clipPath
       clipPathUnits="userSpaceOnUse"
       id="clipPath41524">
      <path
         d="M -564.5732,585.8483 H 30.702797 V -9.4277 H -564.5732 Z"
         id="path41526"
         style="stroke-width:0.999998" />
    </clipPath>
    <clipPath
       clipPathUnits="userSpaceOnUse"
       id="clipPath41530">
      <path
         d="M -557.4951,577.8502 H 37.780897 V -17.4258 H -557.4951 Z"
         id="path41532"
         style="stroke-width:0.999998" />
    </clipPath>
    <clipPath
       clipPathUnits="userSpaceOnUse"
       id="clipPath41536">
      <path
         d="M -531.1924,581.5885 H 64.083597 V -13.6875 H -531.1924 Z"
         id="path41538"
         style="stroke-width:0.999998" />
    </clipPath>
    <clipPath
       clipPathUnits="userSpaceOnUse"
       id="clipPath41542">
      <path
         d="M -567.7754,585.8522 H 27.500597 V -9.4238 H -567.7754 Z"
         id="path41544"
         style="stroke-width:0.999998" />
    </clipPath>
    <clipPath
       clipPathUnits="userSpaceOnUse"
       id="clipPath41548">
      <path
         d="M -553.8975,585.8483 H 41.378497 V -9.4277 H -553.8975 Z"
         id="path41550"
         style="stroke-width:0.999998" />
    </clipPath>
    <clipPath
       clipPathUnits="userSpaceOnUse"
       id="clipPath41554">
      <path
         d="M -557.0645,585.8483 H 38.211497 V -9.4277 H -557.0645 Z"
         id="path41556"
         style="stroke-width:0.999998" />
    </clipPath>
    <clipPath
       clipPathUnits="userSpaceOnUse"
       id="clipPath41560">
      <path
         d="M -561.4131,585.8522 H 33.862897 V -9.4238 H -561.4131 Z"
         id="path41562"
         style="stroke-width:0.999998" />
    </clipPath>
    <clipPath
       clipPathUnits="userSpaceOnUse"
       id="clipPath41567">
      <path
         d="M -542.9326,584.5729 H 52.343397 V -10.7031 H -542.9326 Z"
         id="path41569"
         style="stroke-width:0.999998" />
    </clipPath>
    <clipPath
       clipPathUnits="userSpaceOnUse"
       id="clipPath41573">
      <path
         d="M -540.8213,585.8483 H 54.454697 V -9.4277 H -540.8213 Z"
         id="path41575"
         style="stroke-width:0.999998" />
    </clipPath>
    <clipPath
       clipPathUnits="userSpaceOnUse"
       id="clipPath41579">
      <path
         d="M -576.3691,585.5885 H 18.906897 V -9.6875 H -576.3691 Z"
         id="path41581"
         style="stroke-width:0.999998" />
    </clipPath>
    <clipPath
       clipPathUnits="userSpaceOnUse"
       id="clipPath41585">
      <path
         d="m -379.1514,131.1378 h 595.276 v -595.276 h -595.276 z"
         id="path41587"
         style="stroke-width:0.999998" />
    </clipPath>
    <clipPath
       clipPathUnits="userSpaceOnUse"
       id="clipPath41591">
      <path
         d="M -568.2266,575.819 H 27.049397 V -19.457 H -568.2266 Z"
         id="path41593"
         style="stroke-width:0.999998" />
    </clipPath>
    <clipPath
       clipPathUnits="userSpaceOnUse"
       id="clipPath41597">
      <path
         d="M -550.2637,577.3248 H 45.012297 V -17.9512 H -550.2637 Z"
         id="path41599"
         style="stroke-width:0.999998" />
    </clipPath>
    <clipPath
       clipPathUnits="userSpaceOnUse"
       id="clipPath41604">
      <path
         d="M -556.4014,578.0143 H 38.874597 V -17.2617 H -556.4014 Z"
         id="path41606"
         style="stroke-width:0.999998" />
    </clipPath>
    <clipPath
       clipPathUnits="userSpaceOnUse"
       id="clipPath41610">
      <path
         d="M -586.5449,579.5026 H 8.7310974 V -15.7734 H -586.5449 Z"
         id="path41612"
         style="stroke-width:0.999998" />
    </clipPath>
    <clipPath
       clipPathUnits="userSpaceOnUse"
       id="clipPath41616">
      <path
         d="M -584.1943,578.9381 H 11.081697 V -16.3379 H -584.1943 Z"
         id="path41618"
         style="stroke-width:0.999998" />
    </clipPath>
    <clipPath
       clipPathUnits="userSpaceOnUse"
       id="clipPath41622">
      <path
         d="M -538.2217,577.9479 H 57.054297 V -17.3281 H -538.2217 Z"
         id="path41624"
         style="stroke-width:0.999998" />
    </clipPath>
    <clipPath
       clipPathUnits="userSpaceOnUse"
       id="clipPath41628">
      <path
         d="m -271.6318,28.4454 h 595.276 v -595.276 h -595.276 z"
         id="path41630"
         style="stroke-width:0.999998" />
    </clipPath>
    <clipPath
       clipPathUnits="userSpaceOnUse"
       id="clipPath41634">
      <path
         d="m -247.8701,66.9357 h 595.276 v -595.276 h -595.276 z"
         id="path41636"
         style="stroke-width:0.999998" />
    </clipPath>
    <clipPath
       clipPathUnits="userSpaceOnUse"
       id="clipPath41640">
      <path
         d="m -258.4346,511.8756 h 595.276 v -595.276 h -595.276 z"
         id="path41642"
         style="stroke-width:0.999998" />
    </clipPath>
    <clipPath
       clipPathUnits="userSpaceOnUse"
       id="clipPath41646">
      <path
         d="m -193.1787,331.1197 h 595.276 v -595.276 h -595.276 z"
         id="path41648"
         style="stroke-width:0.999998" />
    </clipPath>
    <clipPath
       clipPathUnits="userSpaceOnUse"
       id="clipPath41652">
      <path
         d="m -198.7334,183.0421 h 595.276 v -595.276 h -595.276 z"
         id="path41654"
         style="stroke-width:0.999998" />
    </clipPath>
    <clipPath
       clipPathUnits="userSpaceOnUse"
       id="clipPath41658">
      <path
         d="m -216.124,131.1378 h 595.276 v -595.276 h -595.276 z"
         id="path41660"
         style="stroke-width:0.999998" />
    </clipPath>
    <clipPath
       clipPathUnits="userSpaceOnUse"
       id="clipPath41664">
      <path
         d="m -290.2666,107.3273 h 595.276 v -595.276 h -595.276 z"
         id="path41666"
         style="stroke-width:0.999998" />
    </clipPath>
    <clipPath
       clipPathUnits="userSpaceOnUse"
       id="clipPath41670">
      <path
         d="m -253.4463,239.837 h 595.276 v -595.276 h -595.276 z"
         id="path41672"
         style="stroke-width:0.999998" />
    </clipPath>
    <clipPath
       clipPathUnits="userSpaceOnUse"
       id="clipPath41676">
      <path
         d="m -284.6787,164.754 h 595.276 v -595.276 h -595.276 z"
         id="path41678"
         style="stroke-width:0.999998" />
    </clipPath>
    <clipPath
       clipPathUnits="userSpaceOnUse"
       id="clipPath41683">
      <path
         d="m -323.6436,28.4454 h 595.276 v -595.276 h -595.276 z"
         id="path41685"
         style="stroke-width:0.999998" />
    </clipPath>
    <clipPath
       clipPathUnits="userSpaceOnUse"
       id="clipPath41689">
      <path
         d="m -347.4072,66.9357 h 595.276 v -595.276 h -595.276 z"
         id="path41691"
         style="stroke-width:0.999998" />
    </clipPath>
    <clipPath
       clipPathUnits="userSpaceOnUse"
       id="clipPath41695">
      <path
         d="m -331.2959,568.0944 h 595.276 v -595.276 h -595.276 z"
         id="path41697"
         style="stroke-width:0.999998" />
    </clipPath>
    <clipPath
       clipPathUnits="userSpaceOnUse"
       id="clipPath41701">
      <path
         d="m -336.8428,511.8756 h 595.276 v -595.276 h -595.276 z"
         id="path41703"
         style="stroke-width:0.999998" />
    </clipPath>
    <clipPath
       clipPathUnits="userSpaceOnUse"
       id="clipPath41707">
      <path
         d="M -528.0898,575.3815 H 67.186197 V -19.8945 H -528.0898 Z"
         id="path41709"
         style="stroke-width:0.999998" />
    </clipPath>
    <clipPath
       clipPathUnits="userSpaceOnUse"
       id="clipPath41713">
      <path
         d="m -310.5986,164.754 h 595.276 v -595.276 h -595.276 z"
         id="path41715"
         style="stroke-width:0.999998" />
    </clipPath>
    <clipPath
       clipPathUnits="userSpaceOnUse"
       id="clipPath41719">
      <path
         d="m -305.0107,107.3273 h 595.276 v -595.276 h -595.276 z"
         id="path41721"
         style="stroke-width:0.999998" />
    </clipPath>
    <clipPath
       clipPathUnits="userSpaceOnUse"
       id="clipPath41725">
      <path
         d="m -341.8291,239.837 h 595.276 v -595.276 h -595.276 z"
         id="path41727"
         style="stroke-width:0.999998" />
    </clipPath>
    <clipPath
       clipPathUnits="userSpaceOnUse"
       id="clipPath41731">
      <path
         d="m -396.5439,183.0421 h 595.276 v -595.276 h -595.276 z"
         id="path41733"
         style="stroke-width:0.999998" />
    </clipPath>
    <clipPath
       clipPathUnits="userSpaceOnUse"
       id="clipPath41737">
      <path
         d="M -536.6982,584.5729 H 58.577797 V -10.7031 H -536.6982 Z"
         id="path41739"
         style="stroke-width:0.999998" />
    </clipPath>
    <clipPath
       clipPathUnits="userSpaceOnUse"
       id="clipPath41744">
      <path
         d="m -263.9795,568.0944 h 595.276 v -595.276 h -595.276 z"
         id="path41746"
         style="stroke-width:0.999998" />
    </clipPath>
    <clipPath
       clipPathUnits="userSpaceOnUse"
       id="clipPath41750">
      <path
         d="m -180.4072,253.0314 h 595.276 v -595.276 h -595.276 z"
         id="path41752"
         style="stroke-width:0.999998" />
    </clipPath>
    <clipPath
       clipPathUnits="userSpaceOnUse"
       id="clipPath41756">
      <path
         d="m -402.0977,331.1197 h 595.276 v -595.276 h -595.276 z"
         id="path41758"
         style="stroke-width:0.999998" />
    </clipPath>
    <clipPath
       clipPathUnits="userSpaceOnUse"
       id="clipPath41762">
      <path
         d="m -414.8682,253.0314 h 595.276 v -595.276 h -595.276 z"
         id="path41764"
         style="stroke-width:0.999998" />
    </clipPath>
    <clipPath
       clipPathUnits="userSpaceOnUse"
       id="clipPath41768">
      <path
         d="M -548.9834,585.8522 H 46.292597 V -9.4238 H -548.9834 Z"
         id="path41770"
         style="stroke-width:0.999998" />
    </clipPath>
    <clipPath
       clipPathUnits="userSpaceOnUse"
       id="clipPath41774">
      <path
         d="M -572.8174,586.1354 H 22.458597 V -9.1406 H -572.8174 Z"
         id="path41776"
         style="stroke-width:0.999998" />
    </clipPath>
    <clipPath
       clipPathUnits="userSpaceOnUse"
       id="clipPath41780">
      <path
         d="M -574.5459,585.8522 H 20.730097 V -9.4238 H -574.5459 Z"
         id="path41782"
         style="stroke-width:0.999998" />
    </clipPath>
    <clipPath
       clipPathUnits="userSpaceOnUse"
       id="clipPath41786">
      <path
         d="M -545.417,584.5729 H 49.858997 V -10.7031 H -545.417 Z"
         id="path41788"
         style="stroke-width:0.999998" />
    </clipPath>
  </defs>
  <sodipodi:namedview
     id="namedview40696"
     pagecolor="#ffffff"
     bordercolor="#000000"
     borderopacity="0.25"
     inkscape:showpageshadow="2"
     inkscape:pageopacity="0.0"
     inkscape:pagecheckerboard="0"
     inkscape:deskcolor="#d1d1d1"
     showgrid="false"
     inkscape:zoom="0.29734106"
     inkscape:cx="-215.24105"
     inkscape:cy="396.85068"
     inkscape:window-width="1419"
     inkscape:window-height="456"
     inkscape:window-x="0"
     inkscape:window-y="25"
     inkscape:window-maximized="0"
     inkscape:current-layer="svg40694">
    <inkscape:page
       x="0"
       y="0"
       id="page40700"
       width="793.70135"
       height="793.70135" />
  </sodipodi:namedview>
  <path
     d="m 237.954,185.479 -0.052,-0.034 -0.068,-0.039 c 0.038,0.024 0.078,0.048 0.12,0.073"
     style="fill:#000000;fill-opacity:1;fill-rule:nonzero;stroke:none"
     id="path40814" />
  <path
     d="m 362.175,37.9282 c -16.864,0.28 -35.864,4.432 -53.26,12.8147 -17.696,8.5253 -30.324,18.6452 -35.56,23.2012 5.856,11.7133 11.344,25.2653 14.503,39.2789 1.664,7.456 3.077,15.077 4.279,22.549 4.232,-9.713 9.21,-19.679 14.726,-28.663 8.512,-13.8409 18.034,-25.0756 26.304,-33.9782 2.516,14.2533 15.073,24.9666 30.003,24.7173 16.544,-0.2734 29.737,-13.9093 29.464,-30.4573 C 392.36,50.8442 378.719,37.6536 362.175,37.9282"
     style="fill:#000000;fill-opacity:1;fill-rule:nonzero;stroke:none"
     id="path40818" />
  <path
     d="m 330.493,89.2494 c -5.464,6.532 -11.052,13.9576 -16.251,22.4036 -7.833,12.706 -14.708,27.955 -19.668,41.196 0.94,7.522 1.656,14.571 2.184,20.75 3.263,-0.339 5.877,-0.452 7.625,-0.484 0.091,-0.003 0.183,-0.003 0.268,-0.004 3.604,-4.162 14.126,-14.996 33.869,-25.69 2.23,-1.208 4.454,-2.294 6.666,-3.29 0.046,-4.307 0.29,-11.17 1.181,-19.555 0.656,-6.171 2.259,-13.601 3.883,-20.105 -8.143,-2.763 -15.07,-8.1736 -19.757,-15.2216"
     style="fill:#000000;fill-opacity:1;fill-rule:nonzero;stroke:none"
     id="path40822" />
  <path
     d="m 351.971,757.459 c -23.994,0.396 -49.106,-6.188 -97.828,-69.388 C 205.419,624.871 157.682,560.654 91.7038,482.072 61.5265,446.126 43.8332,430.148 35.7239,423.673 c 11.608,-4.033 24.5866,-6.695 39.1519,-6.943 6.4867,-0.104 13.2933,0.266 20.4533,1.222 24.1189,3.21 41.9049,13.024 53.6999,22.029 5.899,4.507 10.281,8.807 13.169,11.951 1.44,1.566 2.508,2.853 3.206,3.722 0.352,0.442 0.604,0.772 0.765,0.991 0.163,0.216 0.209,0.284 0.212,0.284 l 1.268,1.804 2.205,0.033 c 0,0 0.243,0.003 0.792,0.027 3.831,0.125 20.888,1.5 32.872,8.763 14.196,8.562 32.328,26.346 41.828,65.906 4.863,20.369 13.497,52.664 23,82.912 4.751,15.121 9.713,29.728 14.549,42.104 4.858,12.393 9.491,22.484 13.975,28.965 9.451,13.609 18.929,23.831 28.628,32.008 1.348,-16.987 15.413,-30.484 32.801,-30.773 18.479,-0.304 33.708,14.424 34.016,32.906 0.336,20.198 -13.347,35.427 -40.344,35.875"
     style="fill:#000000;fill-opacity:1;fill-rule:nonzero;stroke:none"
     id="path40826" />
  <path
     d="m 344.579,682.501 c -3.153,-8.867 -5.969,-18.246 -7.861,-27.472 -5.404,-26.343 -12.149,-82.809 6.5,-144.126 13.637,-44.844 31.221,-68.462 39.58,-77.831 -6.771,-1.841 -13.862,-2.677 -21.482,-2.555 -8.253,0.138 -17.098,1.383 -26.669,3.643 -20.396,4.776 -38.248,16.303 -42.196,19.021 -0.569,0.383 -0.822,0.568 -0.825,0.57 l -1.833,1.321 -2.135,-0.745 c 0,0 -0.141,-0.05 -0.5,-0.17 -0.363,-0.112 -0.912,-0.286 -1.631,-0.494 -1.437,-0.412 -3.544,-0.968 -6.148,-1.516 -5.218,-1.102 -12.45,-2.164 -20.352,-2.028 -3.71,0.057 -7.578,0.385 -11.445,1.082 -9.641,1.691 -20.703,8.212 -30.141,15.6 13.805,11.367 28.352,31.042 36.336,64.648 7.204,30.203 22.993,87.549 37.19,123.874 4.708,12.076 9.318,21.878 13.022,27.172 5.746,8.248 11.41,15.099 17.096,20.978 4.797,-9.683 13.199,-17.264 23.494,-20.972"
     style="fill:#000000;fill-opacity:1;fill-rule:nonzero;stroke:none"
     id="path40830" />
  <path
     d="m 257.571,441.494 c -4.526,-15.435 -11.75,-31.008 -24.802,-46.408 -24.362,-28.74 -52.925,-32.775 -55.941,-33.129 -0.196,-0.023 -0.238,-0.026 -0.238,-0.026 l -2.636,-0.229 -1,-2.447 c -0.004,0 -0.022,-0.05 -0.105,-0.244 -0.083,-0.189 -0.215,-0.486 -0.403,-0.884 -0.372,-0.8 -0.956,-1.998 -1.78,-3.545 -1.649,-3.097 -4.256,-7.592 -8.042,-13.055 -7.571,-10.925 -19.855,-25.722 -38.618,-40.995 -17.154,-13.959 -31.1889,-22.788 -46.4969,-28.21 -6.8346,-2.421 -13.9719,-4.173 -21.8066,-5.377 -0.7493,11.655 -2.332,42.504 -0.94,78.05 1.3254,33.884 3.0387,55.854 3.7734,64.324 1.7999,-0.246 3.6346,-0.45 5.4866,-0.63 -0.86,-11.267 -2.12,-30.39 -3.1453,-56.648 -0.4054,-10.243 -0.5574,-20.088 -0.5574,-29.203 0,-13.057 0.3174,-24.613 0.6894,-33.669 v 0.003 c 0.0906,-2.208 1.956,-3.926 4.1613,-3.835 2.2067,0.092 3.924,1.955 3.832,4.16 -0.3693,8.967 -0.6853,20.416 -0.6827,33.341 -0.0026,9.024 0.1507,18.767 0.5494,28.888 1.024,26.212 2.2826,45.263 3.1346,56.427 0.9067,-0.034 1.8107,-0.074 2.7267,-0.088 0.7053,-0.014 1.4293,0.005 2.1426,0.005 -0.8106,-11.549 -1.8173,-28.356 -2.6653,-50.031 -0.4013,-10.242 -0.5547,-20.088 -0.5547,-29.201 0,-13.59 0.3427,-25.552 0.736,-34.765 v 0.003 c 0.096,-2.208 1.9587,-3.922 4.1667,-3.828 2.2067,0.093 3.92,1.961 3.8253,4.166 -0.388,9.119 -0.728,20.971 -0.728,34.424 0,9.023 0.1534,18.767 0.5494,28.888 0.8626,22.068 1.8906,39.061 2.7026,50.544 1.6254,0.091 3.2733,0.221 4.932,0.367 -0.7347,-11.163 -1.572,-26.108 -2.296,-44.598 -0.4027,-10.24 -0.5547,-20.084 -0.5547,-29.196 0,-12.954 0.3134,-24.426 0.6814,-33.453 h 0.0026 c 0.0894,-2.206 1.9507,-3.921 4.156,-3.83 2.208,0.089 3.9254,1.95 3.8334,4.157 -0.364,8.935 -0.6747,20.304 -0.6747,33.126 0,9.022 0.152,18.763 0.5507,28.883 0.752,19.235 1.6293,34.612 2.3813,45.849 1.6933,0.247 3.3479,0.534 4.9829,0.838 -0.664,-10.614 -1.39,-24.124 -2.026,-40.371 -0.402,-10.247 -0.554,-20.095 -0.554,-29.212 0,-11.392 0.241,-21.642 0.552,-30.086 0.08,-2.207 1.937,-3.932 4.144,-3.85 2.204,0.082 3.929,1.934 3.849,4.143 -0.307,8.36 -0.548,18.514 -0.545,29.793 -0.003,9.025 0.15,18.772 0.55,28.896 0.679,17.383 1.459,31.609 2.159,42.484 1.717,0.44 3.387,0.917 5.032,1.415 -0.617,-10.159 -1.272,-22.732 -1.852,-37.586 -0.403,-10.237 -0.556,-20.081 -0.556,-29.193 0,-9.309 0.161,-17.852 0.389,-25.273 0.066,-2.209 1.912,-3.943 4.122,-3.875 2.206,0.067 3.941,1.91 3.876,4.12 -0.226,7.348 -0.387,15.813 -0.387,25.028 0,9.021 0.152,18.761 0.549,28.88 0.643,16.437 1.378,30.055 2.047,40.683 1.739,0.664 3.432,1.353 5.077,2.069 -0.596,-9.956 -1.225,-22.135 -1.782,-36.437 -0.404,-10.242 -0.558,-20.086 -0.56,-29.198 0.002,-6.58 0.082,-12.777 0.212,-18.465 0.048,-2.209 1.878,-3.959 4.089,-3.911 2.207,0.051 3.959,1.879 3.907,4.09 -0.127,5.633 -0.207,11.77 -0.207,18.286 0,9.022 0.153,18.762 0.551,28.883 0.644,16.467 1.38,30.101 2.049,40.737 1.784,0.943 3.476,1.911 5.125,2.888 -0.61,-10.112 -1.26,-22.589 -1.833,-37.312 -0.404,-10.245 -0.557,-20.097 -0.56,-29.212 0,-2.917 0.017,-5.761 0.048,-8.518 v 0.002 c 0.021,-2.21 1.832,-3.981 4.04,-3.957 2.208,0.021 3.981,1.832 3.959,4.041 -0.031,2.73 -0.047,5.544 -0.047,8.432 0,9.027 0.153,18.775 0.552,28.9 0.692,17.679 1.489,32.098 2.196,43.04 1.848,1.312 3.568,2.62 5.184,3.907 -0.668,-10.653 -1.4,-24.253 -2.041,-40.632 -0.256,-6.58 -0.412,-12.993 -0.494,-19.159 h 0.003 c -0.028,-2.206 1.74,-4.021 3.945,-4.05 2.212,-0.027 4.026,1.738 4.052,3.948 0.079,6.1 0.235,12.444 0.488,18.945 0.812,20.752 1.768,37.013 2.556,48.427 2.171,2.114 3.928,4.005 5.284,5.552 -0.778,-11.432 -1.71,-27.43 -2.501,-47.664 -0.248,-6.33 -0.401,-12.511 -0.483,-18.463 v -0.003 0.003 c -0.028,-2.211 1.738,-4.027 3.946,-4.055 2.209,-0.029 4.025,1.738 4.054,3.946 0.082,5.888 0.232,12 0.478,18.257 0.874,22.391 1.921,39.555 2.738,51.044 1.508,0.188 3.176,0.429 4.954,0.743 -0.747,-11.254 -1.61,-26.5 -2.351,-45.472 -0.292,-7.442 -0.453,-14.678 -0.521,-21.578 -0.022,-2.208 1.752,-4.016 3.961,-4.036 2.207,-0.021 4.015,1.752 4.036,3.96 0.068,6.827 0.227,13.986 0.516,21.339 0.791,20.249 1.723,36.227 2.499,47.596 1.646,0.445 3.329,0.964 5.021,1.544 -0.705,-10.957 -1.495,-25.299 -2.181,-42.825 -0.283,-7.282 -0.446,-14.364 -0.515,-21.123 -0.021,-2.209 1.751,-4.019 3.957,-4.04 2.208,-0.024 4.017,1.747 4.041,3.957 0.071,6.691 0.231,13.695 0.511,20.891 0.769,19.659 1.669,35.287 2.431,46.583 1.129,0.568 2.248,1.164 3.345,1.816 0.581,0.347 1.175,0.723 1.765,1.101 -0.709,-11.003 -1.509,-25.469 -2.202,-43.188 -0.224,-5.735 -0.371,-11.347 -0.459,-16.773 h 0.003 c -0.039,-2.211 1.726,-4.028 3.933,-4.063 2.209,-0.039 4.027,1.727 4.065,3.932 0.084,5.376 0.231,10.925 0.454,16.592 0.594,15.237 1.269,28.047 1.896,38.304 1.564,-1.107 3.162,-2.179 4.786,-3.213 -0.457,-8.35 -0.921,-17.956 -1.345,-28.779 -0.087,-2.184 -0.16,-4.347 -0.224,-6.489 h 0.003 c -0.067,-2.208 1.668,-4.052 3.877,-4.12 2.208,-0.063 4.051,1.672 4.119,3.88 0.061,2.12 0.136,4.261 0.221,6.417 0.355,9.083 0.737,17.299 1.123,24.635 1.618,-0.823 3.258,-1.58 4.909,-2.271 -0.24,-5.013 -0.472,-10.361 -0.695,-16.052 l 0.003,0.003 c -0.089,-2.208 1.631,-4.068 3.837,-4.154 2.207,-0.088 4.068,1.631 4.155,3.839 0.187,4.804 0.384,9.359 0.583,13.68 1.084,-0.281 2.166,-0.535 3.256,-0.735 3.937,-0.708 7.805,-1.057 11.53,-1.177"
     style="fill:#000000;fill-opacity:1;fill-rule:nonzero;stroke:none"
     id="path40834" />
  <path
     d="m 240.542,337.375 c 0.727,-2.086 3.003,-3.192 5.091,-2.469 2.089,0.723 3.193,3 2.469,5.089 -1.317,3.806 -2.652,8.024 -3.953,12.632 8.737,-2.164 17.358,-3.172 24.692,-3.582 -2.007,-7.31 -4.272,-13.788 -6.651,-19.512 -4.309,-10.132 -10.763,-21.749 -20.408,-33.636 -14.756,-18.279 -36.56,-23.325 -41.529,-24.191 -0.703,-0.122 -0.992,-0.161 -0.995,-0.161 l -3.276,-0.428 -0.453,-3.275 c -0.003,0 -0.055,-0.41 -0.213,-1.31 -0.159,-0.895 -0.412,-2.226 -0.782,-3.919 -0.752,-3.387 -1.973,-8.221 -3.874,-13.913 -3.806,-11.378 -10.32,-26.156 -21.03,-39.659 -14.322,-18.137 -34.885,-32.928 -55.012,-43.314 -3.493,6.336 -10.114,20.041 -15.8022,41.522 -5.7054,21.543 -8.916,47.915 -9.8107,60.345 1.3947,0.622 2.7827,1.278 4.168,1.956 1.4053,-13.968 4.4413,-35.417 9.2879,-53.748 3.065,-11.585 6.411,-20.97 9.417,-28.213 0.844,-2.04 3.186,-3.009 5.227,-2.161 2.039,0.845 3.008,3.185 2.161,5.227 -2.874,6.921 -6.098,15.969 -9.073,27.194 -5.069,19.117 -8.183,42.471 -9.373,55.767 1.028,0.588 2.058,1.2 3.088,1.822 1.57,-13.792 4.452,-32.622 8.774,-48.969 3.543,-13.373 7.448,-23.817 10.782,-31.415 0.888,-2.023 3.245,-2.942 5.269,-2.057 2.023,0.887 2.943,3.245 2.057,5.269 -3.174,7.238 -6.942,17.288 -10.376,30.25 -4.59,17.316 -7.577,38.1 -8.984,51.745 1.036,0.703 2.086,1.445 3.134,2.185 1.642,-13.349 4.389,-30.368 8.34,-45.31 3.873,-14.624 8.182,-25.744 11.701,-33.471 0.913,-2.013 3.287,-2.901 5.297,-1.985 2.01,0.914 2.898,3.284 1.984,5.297 -3.338,7.339 -7.494,18.035 -11.248,32.205 -4.265,16.08 -7.145,35.152 -8.661,48.72 1.044,0.798 2.099,1.618 3.157,2.447 1.671,-12.883 4.307,-28.613 7.991,-42.547 3.981,-15.028 8.424,-26.353 11.991,-34.104 0.924,-2.006 3.298,-2.882 5.306,-1.961 2.006,0.924 2.883,3.3 1.962,5.305 -3.386,7.354 -7.667,18.243 -11.524,32.807 -4.03,15.193 -6.823,33.061 -8.399,46.431 1.079,0.905 2.129,1.809 3.164,2.71 1.68,-12.482 4.231,-27.312 7.724,-40.521 3.735,-14.112 7.884,-24.96 11.329,-32.648 0.9,-2.016 3.27,-2.917 5.286,-2.013 2.016,0.904 2.917,3.268 2.013,5.285 -3.277,7.311 -7.273,17.747 -10.896,31.423 -3.893,14.673 -6.629,31.837 -8.232,45.04 1.077,1.02 2.117,2.033 3.141,3.044 1.682,-12.258 4.186,-26.627 7.58,-39.464 3.071,-11.598 6.418,-20.991 9.426,-28.236 0.846,-2.04 3.186,-3.008 5.228,-2.16 2.038,0.845 3.006,3.185 2.16,5.228 -2.875,6.924 -6.104,15.976 -9.082,27.214 -3.862,14.571 -6.59,31.6 -8.197,44.764 1.068,1.156 2.096,2.299 3.092,3.428 1.681,-12.282 4.191,-26.696 7.595,-39.572 1.974,-7.454 4.062,-14 6.102,-19.648 0.75,-2.078 3.042,-3.153 5.12,-2.405 2.078,0.751 3.155,3.043 2.403,5.121 -1.96,5.432 -3.977,11.755 -5.893,18.982 -3.976,14.996 -6.748,32.594 -8.335,45.903 1.06,1.346 2.056,2.652 3.009,3.93 1.679,-12.625 4.259,-27.761 7.816,-41.216 0.226,-0.856 0.452,-1.697 0.684,-2.525 0.587,-2.131 2.786,-3.38 4.918,-2.795 2.129,0.587 3.38,2.789 2.793,4.919 -0.221,0.808 -0.443,1.622 -0.661,2.448 -4.3,16.213 -7.191,35.463 -8.698,49.053 1.082,1.69 2.026,3.245 2.87,4.681 1.645,-13.319 4.382,-30.242 8.316,-45.114 1.104,-4.172 2.244,-8.056 3.389,-11.659 l 0.003,0.003 c 0.669,-2.107 2.92,-3.268 5.024,-2.6 2.104,0.67 3.268,2.917 2.597,5.024 -1.105,3.48 -2.209,7.237 -3.28,11.28 -4.517,17.033 -7.48,37.426 -8.915,51.074 0.994,0.216 2.114,0.484 3.322,0.803 1.664,-13.012 4.33,-29.069 8.082,-43.259 1.974,-7.45 4.06,-13.992 6.095,-19.637 h 0.004 c 0.748,-2.079 3.04,-3.153 5.118,-2.404 2.078,0.748 3.155,3.04 2.406,5.12 -1.96,5.432 -3.976,11.747 -5.888,18.968 -3.757,14.161 -6.437,30.64 -8.06,43.64 1.097,0.397 2.24,0.838 3.409,1.31 1.666,-11.528 4.028,-24.572 7.139,-36.33 2.554,-9.649 5.3,-17.775 7.885,-24.405 v 0.002 c 0.799,-2.06 3.117,-3.078 5.179,-2.276 2.057,0.803 3.076,3.122 2.273,5.179 -2.476,6.357 -5.129,14.196 -7.604,23.548 -3.207,12.088 -5.629,25.866 -7.281,37.728 1.13,0.57 2.281,1.18 3.448,1.824 1.592,-10.102 3.688,-20.978 6.321,-30.934 2.676,-10.106 5.561,-18.541 8.249,-25.335 0.815,-2.055 3.139,-3.06 5.194,-2.246 2.054,0.811 3.058,3.135 2.248,5.19 -2.578,6.512 -5.363,14.642 -7.958,24.438 -2.35,8.863 -4.278,18.631 -5.79,27.889 1.429,-0.732 2.9,-1.444 4.388,-2.144 1.134,-5.798 2.43,-11.604 3.89,-17.125 2.348,-8.867 4.856,-16.445 7.254,-22.758 0.784,-2.066 3.092,-3.103 5.157,-2.32 2.065,0.782 3.104,3.092 2.32,5.157 -2.299,6.062 -4.723,13.374 -6.997,21.969 -0.963,3.633 -1.855,7.421 -2.678,11.263 1.623,-0.631 3.278,-1.231 4.95,-1.814 0.072,-0.276 0.142,-0.554 0.216,-0.83 1.685,-6.356 3.45,-12.05 5.197,-17.094"
     style="fill:#000000;fill-opacity:1;fill-rule:nonzero;stroke:none"
     id="path40838" />
  <path
     d="m 264.977,244.057 c -4.096,-7.675 -8.498,-14.839 -12.872,-20.399 -8.082,-10.346 -21.642,-19.301 -24.764,-21.226 -0.446,-0.279 -0.656,-0.403 -0.656,-0.403 l -1.708,-1.024 -0.339,-1.956 c 0,-0.005 -0.203,-1.187 -0.645,-3.44 -0.443,-2.249 -1.115,-5.538 -2.04,-9.65 -1.84,-8.227 -4.676,-19.748 -8.63,-32.88 -4.508,-15.227 -15.906,-35.939 -29.054,-52.376 -5.844,6.349 -17.377,19.545 -25.989,33.549 -8.79,14.297 -14.519,29.964 -16.962,37.339 1.378,0.948 2.74,1.925 4.096,2.912 2.618,-8.094 6.459,-18.322 11.69,-28.172 4.882,-9.182 10.846,-18 16.001,-25.032 1.304,-1.783 3.809,-2.168 5.588,-0.862 1.784,1.306 2.169,3.811 0.865,5.59 -5.005,6.825 -10.781,15.385 -15.39,24.058 -5.515,10.364 -9.486,21.446 -11.996,29.579 0.769,0.613 1.524,1.243 2.281,1.869 2.439,-6.788 5.592,-14.436 9.54,-21.869 5.12,-9.629 11.432,-18.861 16.749,-26.049 l 0.003,0.002 c 1.311,-1.776 3.816,-2.148 5.593,-0.834 1.775,1.313 2.147,3.816 0.834,5.593 -5.167,6.976 -11.28,15.947 -16.114,25.043 -4.289,8.057 -7.648,16.557 -10.109,23.764 0.82,0.75 1.615,1.528 2.419,2.294 2.09,-5.32 4.581,-10.958 7.513,-16.48 5.079,-9.546 11.325,-18.705 16.615,-25.864 1.312,-1.776 3.816,-2.152 5.592,-0.838 1.777,1.312 2.154,3.816 0.842,5.593 -5.138,6.948 -11.193,15.847 -15.982,24.864 -3.367,6.327 -6.162,12.924 -8.398,18.956 0.844,0.905 1.662,1.832 2.482,2.756 1.69,-3.995 3.596,-8.095 5.74,-12.133 4.564,-8.579 10.069,-16.842 14.976,-23.628 1.297,-1.788 3.794,-2.188 5.586,-0.896 1.787,1.294 2.189,3.796 0.894,5.585 -4.763,6.581 -10.084,14.589 -14.391,22.693 -2.712,5.095 -5.045,10.363 -7.021,15.373 0.834,1.098 1.634,2.203 2.42,3.308 1.349,-3.021 2.82,-6.08 4.425,-9.102 3.807,-7.159 8.272,-14.096 12.499,-20.14 1.265,-1.811 3.757,-2.253 5.567,-0.985 1.812,1.266 2.252,3.758 0.987,5.569 -4.094,5.853 -8.396,12.548 -11.989,19.31 -2.353,4.424 -4.425,8.98 -6.224,13.383 0.785,1.303 1.537,2.603 2.261,3.897 1.174,-2.562 2.431,-5.145 3.788,-7.701 2.914,-5.479 6.211,-10.825 9.489,-15.743 h 0.003 c 1.225,-1.836 3.708,-2.333 5.544,-1.106 1.84,1.225 2.335,3.709 1.109,5.546 -3.169,4.751 -6.332,9.887 -9.079,15.058 -2.319,4.356 -4.36,8.838 -6.142,13.178 0.71,1.52 1.368,3.014 1.999,4.488 1.223,-2.69 2.54,-5.402 3.968,-8.088 2.442,-4.598 5.16,-9.104 7.908,-13.338 1.202,-1.852 3.678,-2.38 5.534,-1.178 1.851,1.203 2.379,3.678 1.176,5.534 -2.65,4.078 -5.249,8.397 -7.556,12.737 -2.66,4.997 -4.953,10.159 -6.905,15.081 0.611,1.791 1.15,3.49 1.64,5.116 1.527,-3.512 3.215,-7.089 5.091,-10.618 3.736,-7.024 8.101,-13.834 12.257,-19.798 1.263,-1.814 3.755,-2.26 5.571,-0.994 1.81,1.264 2.256,3.756 0.994,5.566 -4.026,5.772 -8.234,12.348 -11.758,18.98 -3.586,6.739 -6.512,13.778 -8.819,20.12 0.916,0.194 2.013,0.448 3.249,0.771 1.603,-3.733 3.396,-7.552 5.394,-11.313 4.83,-9.08 10.717,-17.806 15.834,-24.803 v 0.003 c 1.303,-1.784 3.804,-2.172 5.59,-0.867 1.781,1.304 2.169,3.807 0.865,5.588 -4.967,6.788 -10.665,15.257 -15.224,23.835 -1.751,3.288 -3.336,6.648 -4.779,9.965 1.171,0.428 2.4,0.919 3.659,1.444 0.312,-0.611 0.62,-1.223 0.945,-1.831 5.466,-10.281 12.291,-20.114 17.818,-27.48 1.325,-1.768 3.83,-2.126 5.598,-0.801 1.766,1.324 2.126,3.831 0.802,5.599 -4.822,6.425 -10.65,14.804 -15.528,23.485 7.422,-6.679 15.921,-13.161 25.229,-18.368 3.825,-2.12 7.88,-3.632 11.951,-4.708"
     style="fill:#000000;fill-opacity:1;fill-rule:nonzero;stroke:none"
     id="path40842" />
  <path
     d="m 288.165,174.852 c -1.367,-16.2 -4.091,-38.872 -8.766,-59.737 -4.518,-20.3989 -14.828,-40.5629 -23.3,-54.3802 -5.552,3.2107 -16.352,9.9453 -28.364,20.0266 -12.152,10.1974 -20.672,23.8936 -24.721,31.2546 0.815,1.279 1.601,2.568 2.383,3.857 4.258,-7.538 10.354,-16.6396 18.396,-24.4036 6.413,-6.1853 12.514,-11.2799 17.604,-15.2159 h 0.002 c 1.746,-1.3507 4.258,-1.0307 5.61,0.716 1.35,1.748 1.03,4.2573 -0.715,5.6119 -4.895,3.7867 -10.779,8.6974 -16.952,14.6467 -8.759,8.4209 -15.287,19.1039 -19.263,26.7879 0.367,0.679 0.719,1.355 1.076,2.031 4.168,-7.05 9.834,-15.134 17.08,-22.132 7.019,-6.7629 13.659,-12.2242 19.011,-16.2936 v 0.0027 c 1.759,-1.3373 4.267,-0.996 5.604,0.764 1.336,1.7573 0.993,4.2667 -0.764,5.6026 -5.143,3.908 -11.547,9.1763 -18.301,15.6843 -8.107,7.794 -14.303,17.532 -18.336,25.03 0.358,0.779 0.688,1.544 1.028,2.316 4.073,-6.688 9.457,-14.148 16.202,-20.664 7.319,-7.049 14.224,-12.685 19.686,-16.8009 1.764,-1.3267 4.272,-0.9774 5.602,0.7889 1.327,1.764 0.976,4.272 -0.788,5.599 -5.248,3.955 -11.909,9.391 -18.949,16.175 -7.871,7.566 -13.932,16.954 -17.969,24.36 0.318,0.897 0.592,1.766 0.876,2.642 4.049,-6.597 9.356,-13.912 15.986,-20.317 7.176,-6.916 13.955,-12.468 19.367,-16.561 1.763,-1.331 4.271,-0.986 5.601,0.777 1.334,1.763 0.987,4.271 -0.777,5.603 -5.196,3.932 -11.735,9.289 -18.639,15.941 -8.153,7.839 -14.374,17.643 -18.405,25.157 0.26,0.934 0.512,1.846 0.759,2.754 4.114,-6.83 9.604,-14.527 16.54,-21.224 6.517,-6.283 12.705,-11.438 17.844,-15.402 1.746,-1.349 4.258,-1.024 5.608,0.726 1.349,1.749 1.024,4.258 -0.724,5.608 -4.938,3.809 -10.908,8.785 -17.179,14.825 -8.697,8.363 -15.191,18.955 -19.176,26.628 0.233,0.935 0.455,1.841 0.671,2.733 4.193,-7.173 9.968,-15.497 17.4,-22.673 5.757,-5.547 11.256,-10.216 16,-13.961 1.734,-1.37 4.248,-1.074 5.618,0.661 1.367,1.735 1.07,4.248 -0.664,5.617 -4.562,3.602 -9.866,8.106 -15.404,13.443 -9.524,9.153 -16.412,20.992 -20.25,28.735 0.208,0.964 0.393,1.852 0.565,2.682 4.265,-7.602 10.425,-16.857 18.581,-24.732 4.679,-4.513 9.191,-8.445 13.266,-11.768 h 0.002 c 1.71,-1.396 4.23,-1.141 5.626,0.57 1.396,1.712 1.141,4.229 -0.568,5.628 -3.924,3.201 -8.274,6.989 -12.776,11.329 -8.536,8.204 -14.943,18.551 -18.947,26.189 1.376,-0.969 2.789,-1.936 4.223,-2.899 3.685,-5.553 8.209,-11.382 13.617,-16.605 3.599,-3.468 7.096,-6.594 10.375,-9.362 1.685,-1.426 4.209,-1.215 5.636,0.472 1.424,1.686 1.214,4.209 -0.475,5.636 -2.905,2.457 -5.997,5.216 -9.172,8.244 2.771,-1.33 5.559,-2.539 8.341,-3.583 6.779,-2.523 13.104,-4.121 18.558,-5.14"
     style="fill:#000000;fill-opacity:1;fill-rule:nonzero;stroke:none"
     id="path40846" />
  <path
     d="m 387.022,143.104 c -10.498,0.384 -27.427,2.745 -44.372,11.937 -22.005,11.924 -31.571,23.824 -32.433,24.932 l -0.056,0.075 -1.382,1.856 -2.312,-0.115 c 0,0.004 -0.109,-0.004 -0.434,-0.008 -0.331,-0.008 -0.842,-0.012 -1.506,-0.001 -4.685,0.076 -17.232,0.864 -31.893,6.335 -9.519,3.522 -19.565,9.475 -28.539,15.646 4.914,3.94 10.388,8.928 14.826,14.544 0.781,0.999 1.557,2.049 2.328,3.119 0.913,-3.207 1.766,-6.508 2.516,-9.77 0.493,-2.152 2.637,-3.496 4.793,-3.004 2.155,0.494 3.496,2.642 3.003,4.795 -1.272,5.547 -2.81,11.229 -4.518,16.441 -0.024,0.067 -0.048,0.134 -0.07,0.2 0.741,1.212 1.476,2.438 2.2,3.69 1.546,-3.502 3.021,-7.23 4.268,-11.05 1.806,-5.505 3.444,-11.696 4.746,-17.61 0.471,-2.158 2.604,-3.523 4.762,-3.048 2.157,0.473 3.521,2.606 3.048,4.765 -1.35,6.149 -3.046,12.56 -4.956,18.388 -2.035,6.171 -4.524,12 -7.027,17.111 0.883,-0.112 1.757,-0.21 2.62,-0.294 3.523,-6.112 7.808,-14.798 10.804,-23.978 1.677,-5.104 3.208,-10.8 4.457,-16.316 0.488,-2.156 2.631,-3.504 4.784,-3.018 2.155,0.487 3.507,2.63 3.02,4.784 -1.298,5.735 -2.884,11.643 -4.658,17.044 -2.582,7.831 -5.894,15.114 -9.036,21.06 0.693,0.004 1.372,0.014 2.032,0.028 3.758,-5.81 9.61,-16.634 13.401,-28.249 1.283,-3.909 2.485,-8.164 3.537,-12.421 0.528,-2.142 2.695,-3.451 4.842,-2.92 2.144,0.528 3.453,2.694 2.922,4.841 -1.092,4.424 -2.342,8.856 -3.696,12.992 -3.412,10.345 -8.094,19.747 -11.98,26.347 0.486,0.054 0.932,0.106 1.314,0.154 0.694,-0.498 1.632,-1.165 2.76,-1.949 5.188,-9.3 9.961,-19.424 14.14,-31.745 1.44,-4.243 2.552,-8.967 3.596,-13.619 0.484,-2.157 2.621,-3.513 4.78,-3.029 2.154,0.484 3.509,2.622 3.028,4.78 -1.087,4.834 -2.358,9.712 -3.763,14.244 -2.38,7.621 -5.455,14.746 -8.417,20.637 0.997,-0.609 2.016,-1.224 3.06,-1.841 3.688,-6.128 8.57,-15.671 11.877,-25.804 2.505,-7.63 4.684,-16.572 6.092,-24.284 0.398,-2.172 2.478,-3.613 4.653,-3.216 2.173,0.397 3.613,2.479 3.216,4.653 -1.475,8.067 -3.711,17.268 -6.359,25.341 -1.933,5.866 -4.278,11.422 -6.654,16.347 1.141,-0.557 2.284,-1.105 3.429,-1.628 3.264,-5.925 6.956,-13.705 9.624,-21.88 2.972,-9.044 5.479,-19.938 6.793,-28.437 0.339,-2.183 2.383,-3.676 4.566,-3.339 2.184,0.339 3.677,2.383 3.34,4.566 -1.395,8.973 -3.958,20.132 -7.096,29.705 -1.763,5.342 -3.864,10.429 -6.022,15.016 1.006,-0.328 2.016,-0.644 3.03,-0.946 2.922,-4.922 6.174,-11.469 8.945,-19.9 3.095,-9.41 5.053,-21.123 5.921,-29.905 0.219,-2.197 2.179,-3.804 4.376,-3.585 2.198,0.219 3.803,2.179 3.586,4.377 -0.927,9.244 -2.911,21.315 -6.283,31.607 -1.863,5.685 -3.951,10.598 -6.037,14.804 0.577,-0.116 1.154,-0.239 1.729,-0.346 3.497,-5.196 8.165,-13.505 10.977,-23.997 2.192,-8.166 3.34,-17.541 3.9,-25.428 0.158,-2.204 2.072,-3.864 4.276,-3.706 2.204,0.158 3.86,2.072 3.704,4.274 -0.589,8.206 -1.757,17.982 -4.153,26.932 -2.199,8.18 -5.376,15.085 -8.412,20.464 1.281,-0.128 2.56,-0.247 3.817,-0.328 3.3,-5.313 8.696,-15.541 11.156,-28.841 2.639,-14.26 2.024,-30.989 1.47,-39.276"
     style="fill:#000000;fill-opacity:1;fill-rule:nonzero;stroke:none"
     id="path40850" />
  <path
     d="m 337.927,319.784 c -27.382,10.659 -43.664,33.361 -45.361,35.899 -0.112,0.166 -0.149,0.219 -0.149,0.219 l -1.438,2.195 -2.608,-0.256 c -0.004,0.002 -0.94,-0.092 -2.744,-0.192 -1.805,-0.1 -4.424,-0.202 -7.624,-0.202 -9.41,-0.006 -23.861,0.892 -37.248,5.103 -7.525,2.357 -14.493,5.372 -20.893,8.711 6.481,4.733 13.125,10.692 19.516,18.216 1.88,2.213 3.632,4.432 5.292,6.656 0.864,-5.628 1.705,-11.16 2.488,-16.326 0.329,-2.184 2.369,-3.685 4.551,-3.354 2.185,0.33 3.689,2.366 3.358,4.552 -1.173,7.757 -2.482,16.33 -3.798,24.834 1.288,2.095 2.502,4.188 3.632,6.282 1.792,-11.38 3.672,-23.671 5.322,-34.543 0.33,-2.184 2.368,-3.687 4.554,-3.357 2.182,0.33 3.685,2.369 3.356,4.553 -1.823,12.02 -3.934,25.787 -5.89,38.147 -0.43,2.724 -0.873,5.366 -1.321,7.934 1.077,2.634 2.057,5.262 2.951,7.88 1.278,-6.301 2.588,-13.377 3.804,-21.064 1.776,-11.226 3.682,-23.63 5.384,-34.825 0.332,-2.183 2.369,-3.685 4.556,-3.352 2.182,0.329 3.684,2.368 3.352,4.553 -1.7,11.204 -3.61,23.624 -5.391,34.874 -1.753,11.09 -3.7,20.945 -5.473,29.036 1.418,0.146 2.797,0.31 4.112,0.494 2.072,-8.861 4.589,-20.84 6.793,-34.78 1.536,-9.705 3.168,-20.29 4.68,-30.213 0.333,-2.185 2.373,-3.683 4.557,-3.351 2.183,0.332 3.686,2.372 3.352,4.558 -1.514,9.93 -3.149,20.532 -4.688,30.258 -2.206,13.956 -4.718,25.967 -6.809,34.946 1.469,0.325 2.789,0.648 3.911,0.942 2.256,-9.018 5.542,-23.502 8.33,-41.14 1.39,-8.768 2.854,-18.258 4.243,-27.328 0.331,-2.185 2.371,-3.682 4.555,-3.349 2.185,0.333 3.685,2.373 3.35,4.557 -1.385,9.082 -2.857,18.582 -4.248,27.372 -2.326,14.711 -4.989,27.246 -7.142,36.362 1.449,-0.851 3.042,-1.758 4.796,-2.706 2.221,-9.09 5.21,-22.661 7.78,-38.908 2.281,-14.428 4.781,-30.804 6.78,-44.052 0.33,-2.184 2.366,-3.688 4.552,-3.357 2.184,0.327 3.686,2.365 3.358,4.552 -2,13.259 -4.5,29.648 -6.79,44.107 -2.051,12.981 -4.367,24.268 -6.363,33.01 1.503,-0.688 3.057,-1.37 4.663,-2.037 2.133,-8.989 4.805,-21.504 7.132,-36.221 2.738,-17.311 5.786,-37.419 7.913,-51.572 0.327,-2.186 2.365,-3.69 4.549,-3.362 2.183,0.327 3.688,2.364 3.363,4.55 -2.128,14.164 -5.177,34.286 -7.923,51.633 -1.945,12.301 -4.125,23.077 -6.048,31.613 1.484,-0.494 2.996,-0.966 4.528,-1.414 2.104,-8.927 4.692,-21.148 6.952,-35.45 2.927,-18.492 6.207,-40.185 8.336,-54.39 0.328,-2.186 2.363,-3.692 4.549,-3.362 2.183,0.326 3.688,2.36 3.363,4.547 -2.135,14.219 -5.413,35.921 -8.348,54.456 -1.975,12.499 -4.196,23.436 -6.141,32.035 1.476,-0.31 2.942,-0.602 4.396,-0.872 2.14,-9 4.836,-21.591 7.18,-36.414 2.932,-18.536 6.218,-40.286 8.348,-54.489 0.328,-2.188 2.365,-3.693 4.549,-3.365 2.183,0.328 3.691,2.364 3.364,4.548 -2.133,14.22 -5.423,35.98 -8.361,54.557 -2.119,13.395 -4.515,24.977 -6.552,33.827 1.434,-0.178 2.865,-0.342 4.276,-0.466 2.213,-9.089 5.168,-22.54 7.708,-38.612 2.816,-17.794 5.956,-38.546 8.089,-52.748 0.328,-2.185 2.364,-3.692 4.549,-3.362 2.183,0.326 3.688,2.364 3.36,4.548 -2.133,14.213 -5.276,34.98 -8.097,52.813 -2.375,15.017 -5.101,27.769 -7.277,36.925 1.741,-0.017 3.468,0.003 5.181,0.076 2.068,-7.71 6.393,-25.046 9.921,-47.373 3.688,-23.3 7.931,-51.641 9.738,-63.764 -15.916,0.042 -31.616,2.375 -48.547,8.998"
     style="fill:#000000;fill-opacity:1;fill-rule:nonzero;stroke:none"
     id="path40854" />
  <path
     d="m 379.571,219.673 c -12.375,0.196 -27.125,3.051 -39.64,8.369 -13.354,5.651 -28.089,15.456 -34.5,19.964 -2.144,1.502 -3.344,2.392 -3.349,2.396 l -1.484,1.102 -1.824,-0.308 c -0.003,0.002 -0.32,-0.056 -1.023,-0.151 -0.704,-0.095 -1.745,-0.224 -3.054,-0.345 -2.62,-0.25 -6.32,-0.486 -10.535,-0.415 -8.44,0.12 -18.921,1.551 -26.908,6.048 -9.388,5.228 -18.087,12.035 -25.581,18.989 5.77,3.8 11.62,8.723 16.838,15.112 2.367,2.922 4.544,5.826 6.566,8.702 0.854,-8.938 1.294,-16.59 1.51,-21.571 0.094,-2.207 1.96,-3.92 4.17,-3.824 2.205,0.095 3.918,1.961 3.822,4.171 -0.298,6.868 -1.002,18.612 -2.62,31.945 1.108,1.899 2.146,3.775 3.12,5.621 0.099,-0.596 0.2,-1.194 0.292,-1.788 2.684,-17.413 3.695,-33.868 4.06,-42.344 0.094,-2.205 1.958,-3.92 4.168,-3.825 2.207,0.095 3.919,1.961 3.824,4.169 -0.376,8.667 -1.393,25.362 -4.146,43.219 -0.659,4.268 -1.519,8.579 -2.482,12.784 0.104,0.253 0.214,0.512 0.316,0.764 0.556,1.397 1.102,2.842 1.643,4.316 1.733,-6.473 3.34,-13.511 4.384,-20.299 2.688,-17.438 3.697,-33.912 4.059,-42.376 0.094,-2.206 1.96,-3.921 4.168,-3.825 2.205,0.095 3.92,1.959 3.826,4.168 -0.374,8.655 -1.39,25.371 -4.146,43.253 -1.796,11.623 -5.048,23.596 -7.95,32.713 0.219,0.795 0.448,1.564 0.663,2.376 0.081,0 0.165,-0.001 0.245,-0.001 0.519,0 1.018,0.003 1.506,0.007 3.544,-10.006 7.56,-25.355 9.932,-40.48 2.273,-14.409 3.318,-28.181 3.813,-37.304 0.119,-2.205 2.005,-3.897 4.208,-3.776 2.208,0.12 3.897,2.005 3.779,4.209 -0.506,9.296 -1.56,23.31 -3.899,38.119 -2.115,13.317 -5.323,26.521 -8.567,36.744 0.991,-1.244 2.18,-2.676 3.572,-4.254 3.307,-9.804 8.154,-26.195 9.912,-39.654 1.63,-12.385 2.796,-24.212 3.476,-33.065 0.17,-2.203 2.091,-3.852 4.295,-3.683 2.203,0.169 3.851,2.092 3.681,4.295 -0.689,9.006 -1.87,20.946 -3.52,33.493 -1.096,8.295 -3.533,18.128 -6.101,27.029 1.085,-0.933 2.219,-1.872 3.396,-2.811 2.796,-8.813 5.936,-20.419 7.62,-31.367 2.132,-13.834 3.211,-27.068 3.744,-36.168 0.131,-2.206 2.021,-3.89 4.227,-3.759 2.205,0.127 3.888,2.02 3.758,4.227 -0.544,9.278 -1.636,22.728 -3.821,36.921 -1.195,7.716 -3.029,15.587 -4.976,22.677 1.091,-0.681 2.207,-1.352 3.351,-2.008 2.494,-8.273 5.078,-18.341 6.549,-27.909 2.287,-14.817 3.357,-28.94 3.849,-38.04 0.12,-2.204 2.005,-3.897 4.211,-3.78 2.208,0.12 3.897,2.005 3.778,4.211 -0.502,9.284 -1.59,23.633 -3.929,38.825 -1.143,7.388 -2.872,14.915 -4.726,21.765 1.041,-0.46 2.098,-0.908 3.174,-1.337 2.473,-8.227 5.021,-18.191 6.479,-27.661 2.312,-15.003 3.382,-29.295 3.868,-38.38 0.117,-2.207 2,-3.902 4.205,-3.783 2.205,0.117 3.899,2.001 3.784,4.207 -0.496,9.27 -1.581,23.789 -3.951,39.174 -1.22,7.886 -3.109,15.927 -5.104,23.135 1.006,-0.319 2.004,-0.612 3.003,-0.903 2.637,-8.546 5.464,-19.292 7.029,-29.473 2.15,-13.941 3.224,-27.271 3.758,-36.376 0.124,-2.208 2.017,-3.891 4.224,-3.763 2.202,0.127 3.888,2.02 3.76,4.224 -0.54,9.286 -1.632,22.835 -3.834,37.135 -1.38,8.924 -3.618,18.052 -5.897,25.94 0.939,-0.205 1.879,-0.416 2.813,-0.599 2.888,-8.942 6.246,-21.122 8.01,-32.58 1.86,-12.064 2.916,-23.672 3.512,-32.478 0.148,-2.206 2.052,-3.871 4.258,-3.724 2.206,0.149 3.871,2.056 3.723,4.261 -0.605,8.972 -1.679,20.784 -3.588,33.159 -1.617,10.468 -4.415,21.222 -7.073,29.917 1.489,-0.193 2.974,-0.363 4.456,-0.507 3.02,-9.092 7.44,-24.866 9.385,-39.702 2.363,-18.064 2.98,-34.98 3.136,-43.392 -1.519,-0.062 -3.068,-0.095 -4.68,-0.067"
     style="fill:#000000;fill-opacity:1;fill-rule:nonzero;stroke:none"
     id="path40858" />
  <path
     d="m 555.747,185.479 c 0.039,-0.025 0.08,-0.049 0.119,-0.073 l -0.067,0.039 z"
     style="fill:#000000;fill-opacity:1;fill-rule:nonzero;stroke:none"
     id="path40862" />
  <path
     d="m 431.524,37.9282 c 16.864,0.28 35.864,4.432 53.26,12.8147 17.696,8.5253 30.324,18.6452 35.56,23.2012 -5.856,11.7133 -11.341,25.2653 -14.5,39.2789 -1.664,7.456 -3.08,15.077 -4.279,22.549 -4.232,-9.713 -9.213,-19.679 -14.726,-28.663 -8.515,-13.8409 -18.036,-25.0756 -26.307,-33.9782 -2.516,14.2533 -15.07,24.9666 -30,24.7173 -16.544,-0.2734 -29.74,-13.9093 -29.466,-30.4573 0.273,-16.5466 13.914,-29.7372 30.458,-29.4626"
     style="fill:#000000;fill-opacity:1;fill-rule:nonzero;stroke:none"
     id="path40866" />
  <path
     d="m 463.208,89.2494 c 5.461,6.532 11.052,13.9576 16.248,22.4036 7.833,12.706 14.708,27.955 19.669,41.196 -0.938,7.522 -1.657,14.571 -2.182,20.75 -3.266,-0.339 -5.88,-0.452 -7.628,-0.484 -0.091,-0.003 -0.18,-0.003 -0.268,-0.004 -3.604,-4.162 -14.123,-14.996 -33.867,-25.69 -2.232,-1.208 -4.456,-2.294 -6.665,-3.29 -0.049,-4.307 -0.291,-11.17 -1.184,-19.555 -0.653,-6.171 -2.259,-13.601 -3.883,-20.105 8.143,-2.763 15.072,-8.1736 19.76,-15.2216"
     style="fill:#000000;fill-opacity:1;fill-rule:nonzero;stroke:none"
     id="path40870" />
  <path
     d="m 441.727,757.459 c 23.997,0.396 49.109,-6.188 97.83,-69.388 48.722,-63.2 96.459,-127.417 162.437,-205.999 30.178,-35.946 47.871,-51.924 55.983,-58.399 -11.608,-4.033 -24.59,-6.695 -39.152,-6.943 -6.487,-0.104 -13.293,0.266 -20.453,1.222 -24.119,3.21 -41.906,13.024 -53.703,22.029 -5.896,4.507 -10.279,8.807 -13.167,11.951 -1.442,1.566 -2.51,2.853 -3.208,3.722 -0.349,0.442 -0.601,0.772 -0.762,0.991 -0.163,0.216 -0.21,0.284 -0.212,0.284 l -1.268,1.804 -2.206,0.033 c 0,0 -0.245,0.003 -0.794,0.027 -3.828,0.125 -20.886,1.5 -32.872,8.763 -14.193,8.562 -32.328,26.346 -41.825,65.906 -4.866,20.369 -13.5,52.664 -23,82.912 -4.754,15.121 -9.714,29.728 -14.552,42.104 -4.858,12.393 -9.491,22.484 -13.975,28.965 -9.448,13.609 -18.929,23.831 -28.628,32.008 -1.348,-16.987 -15.41,-30.484 -32.798,-30.773 -18.48,-0.304 -33.711,14.424 -34.016,32.906 -0.336,20.198 13.346,35.427 40.341,35.875"
     style="fill:#000000;fill-opacity:1;fill-rule:nonzero;stroke:none"
     id="path40874" />
  <path
     d="m 449.123,682.501 c 3.151,-8.867 5.969,-18.246 7.86,-27.472 5.403,-26.343 12.148,-82.809 -6.5,-144.126 -13.639,-44.844 -31.22,-68.462 -39.579,-77.831 6.771,-1.841 13.862,-2.677 21.482,-2.555 8.25,0.138 17.097,1.383 26.669,3.643 20.396,4.776 38.245,16.303 42.196,19.021 0.566,0.383 0.82,0.568 0.825,0.57 l 1.831,1.321 2.134,-0.745 c 0,0 0.142,-0.05 0.503,-0.17 0.363,-0.112 0.912,-0.286 1.631,-0.494 1.434,-0.412 3.541,-0.968 6.148,-1.516 5.217,-1.102 12.45,-2.164 20.352,-2.028 3.708,0.057 7.576,0.385 11.445,1.082 9.641,1.691 20.7,8.212 30.139,15.6 -13.806,11.367 -28.35,31.042 -36.334,64.648 -7.206,30.203 -22.996,87.549 -37.193,123.874 -4.708,12.076 -9.315,21.878 -13.021,27.172 -5.744,8.248 -11.411,15.099 -17.096,20.978 -4.795,-9.683 -13.2,-17.264 -23.492,-20.972"
     style="fill:#000000;fill-opacity:1;fill-rule:nonzero;stroke:none"
     id="path40878" />
  <path
     d="m 536.129,441.494 c 4.527,-15.435 11.751,-31.008 24.803,-46.408 24.363,-28.74 52.925,-32.775 55.941,-33.129 0.195,-0.023 0.237,-0.026 0.237,-0.026 l 2.636,-0.229 1.002,-2.447 c 0.002,0 0.021,-0.05 0.104,-0.244 0.082,-0.189 0.216,-0.486 0.402,-0.884 0.371,-0.8 0.956,-1.998 1.78,-3.545 1.65,-3.097 4.258,-7.592 8.044,-13.055 7.571,-10.925 19.854,-25.722 38.616,-40.995 17.155,-13.959 31.19,-22.788 46.499,-28.21 6.833,-2.421 13.971,-4.173 21.806,-5.377 0.748,11.655 2.331,42.504 0.94,78.05 -1.325,33.884 -3.038,55.854 -3.773,64.324 -1.801,-0.246 -3.637,-0.45 -5.489,-0.63 0.861,-11.267 2.121,-30.39 3.148,-56.648 0.404,-10.243 0.557,-20.088 0.557,-29.203 0,-13.057 -0.32,-24.613 -0.692,-33.669 v 0.003 c -0.09,-2.208 -1.954,-3.926 -4.161,-3.835 -2.205,0.092 -3.923,1.955 -3.831,4.16 0.37,8.967 0.686,20.416 0.683,33.341 0.003,9.024 -0.149,18.767 -0.549,28.888 -1.024,26.212 -2.283,45.263 -3.136,56.427 -0.907,-0.034 -1.808,-0.074 -2.727,-0.088 -0.704,-0.014 -1.428,0.005 -2.141,0.005 0.81,-11.549 1.818,-28.356 2.664,-50.031 0.404,-10.242 0.556,-20.088 0.556,-29.201 0,-13.59 -0.343,-25.552 -0.738,-34.765 v 0.003 c -0.094,-2.208 -1.958,-3.922 -4.166,-3.828 -2.206,0.093 -3.92,1.961 -3.826,4.166 0.391,9.119 0.73,20.971 0.73,34.424 0,9.023 -0.152,18.767 -0.551,28.888 -0.861,22.068 -1.891,39.061 -2.703,50.544 -1.625,0.091 -3.273,0.221 -4.929,0.367 0.732,-11.163 1.571,-26.108 2.293,-44.598 0.404,-10.24 0.558,-20.084 0.558,-29.196 0,-12.954 -0.315,-24.426 -0.682,-33.453 h -0.002 c -0.09,-2.206 -1.952,-3.921 -4.159,-3.83 -2.207,0.089 -3.925,1.95 -3.833,4.157 0.365,8.935 0.676,20.304 0.676,33.126 0,9.022 -0.154,18.763 -0.55,28.883 -0.752,19.235 -1.63,34.612 -2.382,45.849 -1.692,0.247 -3.348,0.534 -4.982,0.838 0.664,-10.614 1.388,-24.124 2.023,-40.371 0.404,-10.247 0.557,-20.095 0.557,-29.212 0,-11.392 -0.241,-21.642 -0.554,-30.086 -0.08,-2.207 -1.935,-3.932 -4.143,-3.85 -2.205,0.082 -3.929,1.934 -3.849,4.143 0.306,8.36 0.548,18.514 0.544,29.793 0.004,9.025 -0.15,18.772 -0.55,28.896 -0.678,17.383 -1.46,31.609 -2.158,42.484 -1.718,0.44 -3.388,0.917 -5.031,1.415 0.615,-10.159 1.271,-22.732 1.851,-37.586 0.404,-10.237 0.557,-20.081 0.557,-29.193 0,-9.309 -0.161,-17.852 -0.391,-25.273 -0.066,-2.209 -1.913,-3.943 -4.121,-3.875 -2.207,0.067 -3.943,1.91 -3.876,4.12 0.227,7.348 0.388,15.813 0.388,25.028 0,9.021 -0.153,18.761 -0.552,28.88 -0.641,16.437 -1.376,30.055 -2.044,40.683 -1.74,0.664 -3.432,1.353 -5.077,2.069 0.594,-9.956 1.224,-22.135 1.782,-36.437 0.404,-10.242 0.556,-20.086 0.56,-29.198 -0.004,-6.58 -0.084,-12.777 -0.213,-18.465 -0.048,-2.209 -1.88,-3.959 -4.088,-3.911 -2.208,0.051 -3.959,1.879 -3.908,4.09 0.127,5.633 0.207,11.77 0.207,18.286 0,9.022 -0.154,18.762 -0.552,28.883 -0.643,16.467 -1.379,30.101 -2.05,40.737 -1.784,0.943 -3.476,1.911 -5.124,2.888 0.611,-10.112 1.26,-22.589 1.835,-37.312 0.404,-10.245 0.556,-20.097 0.559,-29.212 0,-2.917 -0.019,-5.761 -0.048,-8.518 v 0.002 c -0.02,-2.21 -1.832,-3.981 -4.042,-3.957 -2.208,0.021 -3.98,1.832 -3.956,4.041 0.03,2.73 0.044,5.544 0.044,8.432 0,9.027 -0.153,18.775 -0.55,28.9 -0.691,17.679 -1.488,32.098 -2.196,43.04 -1.848,1.312 -3.568,2.62 -5.186,3.907 0.67,-10.653 1.402,-24.253 2.042,-40.632 0.257,-6.58 0.413,-12.993 0.494,-19.159 h -0.002 c 0.029,-2.206 -1.739,-4.021 -3.947,-4.05 -2.211,-0.027 -4.024,1.738 -4.051,3.948 -0.078,6.1 -0.234,12.444 -0.488,18.945 -0.812,20.752 -1.769,37.013 -2.556,48.427 -2.17,2.114 -3.926,4.005 -5.284,5.552 0.779,-11.432 1.71,-27.43 2.5,-47.664 0.248,-6.33 0.402,-12.511 0.483,-18.463 v -0.003 0.003 c 0.031,-2.211 -1.737,-4.027 -3.945,-4.055 -2.208,-0.029 -4.024,1.738 -4.052,3.946 -0.082,5.888 -0.232,12 -0.479,18.257 -0.876,22.391 -1.92,39.555 -2.739,51.044 -1.508,0.188 -3.176,0.429 -4.953,0.743 0.745,-11.254 1.611,-26.5 2.352,-45.472 0.291,-7.442 0.453,-14.678 0.52,-21.578 0.02,-2.208 -1.751,-4.016 -3.961,-4.036 -2.207,-0.021 -4.015,1.752 -4.038,3.96 -0.066,6.827 -0.226,13.986 -0.514,21.339 -0.792,20.249 -1.723,36.227 -2.499,47.596 -1.645,0.445 -3.328,0.964 -5.02,1.544 0.704,-10.957 1.495,-25.299 2.179,-42.825 0.284,-7.282 0.445,-14.364 0.516,-21.123 0.021,-2.209 -1.749,-4.019 -3.959,-4.04 -2.208,-0.024 -4.016,1.747 -4.041,3.957 -0.071,6.691 -0.229,13.695 -0.509,20.891 -0.77,19.659 -1.67,35.287 -2.431,46.583 -1.129,0.568 -2.248,1.164 -3.347,1.816 -0.58,0.347 -1.172,0.723 -1.765,1.101 0.711,-11.003 1.511,-25.469 2.204,-43.188 0.224,-5.735 0.369,-11.347 0.459,-16.773 h -0.003 c 0.039,-2.211 -1.727,-4.028 -3.933,-4.063 -2.208,-0.039 -4.027,1.727 -4.066,3.932 -0.082,5.376 -0.229,10.925 -0.453,16.592 -0.596,15.237 -1.269,28.047 -1.896,38.304 -1.564,-1.107 -3.163,-2.179 -4.785,-3.213 0.457,-8.35 0.921,-17.956 1.342,-28.779 0.087,-2.184 0.16,-4.347 0.224,-6.489 h -0.002 c 0.068,-2.208 -1.667,-4.052 -3.875,-4.12 -2.208,-0.063 -4.052,1.672 -4.12,3.88 -0.061,2.12 -0.137,4.261 -0.221,6.417 -0.355,9.083 -0.738,17.299 -1.122,24.635 -1.62,-0.823 -3.258,-1.58 -4.909,-2.271 0.237,-5.013 0.471,-10.361 0.693,-16.052 l -0.002,0.003 c 0.089,-2.208 -1.631,-4.068 -3.836,-4.154 -2.21,-0.088 -4.068,1.631 -4.156,3.839 -0.188,4.804 -0.384,9.359 -0.583,13.68 -1.083,-0.281 -2.168,-0.535 -3.255,-0.735 -3.938,-0.708 -7.806,-1.057 -11.532,-1.177"
     style="fill:#000000;fill-opacity:1;fill-rule:nonzero;stroke:none"
     id="path40882" />
  <path
     d="m 553.156,337.375 c -0.724,-2.086 -3.003,-3.192 -5.089,-2.469 -2.088,0.723 -3.192,3 -2.471,5.089 1.32,3.806 2.653,8.024 3.956,12.632 -8.737,-2.164 -17.36,-3.172 -24.693,-3.582 2.008,-7.31 4.272,-13.788 6.65,-19.512 4.31,-10.132 10.764,-21.749 20.41,-33.636 14.753,-18.279 36.557,-23.325 41.526,-24.191 0.706,-0.122 0.992,-0.161 0.995,-0.161 l 3.276,-0.428 0.453,-3.275 c 0.006,0 0.058,-0.41 0.216,-1.31 0.156,-0.895 0.411,-2.226 0.782,-3.919 0.749,-3.387 1.973,-8.221 3.874,-13.913 3.803,-11.378 10.32,-26.156 21.029,-39.659 14.32,-18.137 34.886,-32.928 55.012,-43.314 3.491,6.336 10.115,20.041 15.803,41.522 5.704,21.543 8.913,47.915 9.809,60.345 -1.396,0.622 -2.782,1.278 -4.166,1.956 -1.407,-13.968 -4.443,-35.417 -9.288,-53.748 -3.067,-11.585 -6.412,-20.97 -9.418,-28.213 -0.846,-2.04 -3.185,-3.009 -5.228,-2.161 -2.04,0.845 -3.009,3.185 -2.16,5.227 2.874,6.921 6.098,15.969 9.072,27.194 5.07,19.117 8.183,42.471 9.374,55.767 -1.03,0.588 -2.058,1.2 -3.088,1.822 -1.571,-13.792 -4.452,-32.622 -8.775,-48.969 -3.541,-13.373 -7.448,-23.817 -10.78,-31.415 -0.888,-2.023 -3.248,-2.942 -5.272,-2.057 -2.023,0.887 -2.943,3.245 -2.057,5.269 3.174,7.238 6.942,17.288 10.376,30.25 4.592,17.316 7.577,38.1 8.986,51.745 -1.038,0.703 -2.086,1.445 -3.136,2.185 -1.641,-13.349 -4.388,-30.368 -8.338,-45.31 -3.874,-14.624 -8.183,-25.744 -11.7,-33.471 -0.916,-2.013 -3.287,-2.901 -5.3,-1.985 -2.008,0.914 -2.898,3.284 -1.983,5.297 3.34,7.339 7.496,18.035 11.249,32.205 4.264,16.08 7.143,35.152 8.66,48.72 -1.045,0.798 -2.098,1.618 -3.157,2.447 -1.671,-12.883 -4.308,-28.613 -7.991,-42.547 -3.981,-15.028 -8.424,-26.353 -11.992,-34.104 -0.922,-2.006 -3.298,-2.882 -5.304,-1.961 -2.008,0.924 -2.882,3.3 -1.962,5.305 3.384,7.354 7.666,18.243 11.524,32.807 4.029,15.193 6.824,33.061 8.397,46.431 -1.077,0.905 -2.128,1.809 -3.163,2.71 -1.678,-12.482 -4.23,-27.312 -7.724,-40.521 -3.733,-14.112 -7.882,-24.96 -11.329,-32.648 -0.901,-2.016 -3.269,-2.917 -5.284,-2.013 -2.017,0.904 -2.919,3.268 -2.015,5.285 3.278,7.311 7.272,17.747 10.896,31.423 3.892,14.673 6.63,31.837 8.232,45.04 -1.077,1.02 -2.118,2.033 -3.142,3.044 -1.68,-12.258 -4.186,-26.627 -7.58,-39.464 -3.071,-11.598 -6.418,-20.991 -9.426,-28.236 -0.846,-2.04 -3.186,-3.008 -5.226,-2.16 -2.039,0.845 -3.008,3.185 -2.162,5.228 2.875,6.924 6.107,15.976 9.083,27.214 3.863,14.571 6.589,31.6 8.196,44.764 -1.068,1.156 -2.093,2.299 -3.091,3.428 -1.68,-12.282 -4.19,-26.696 -7.596,-39.572 -1.972,-7.454 -4.061,-14 -6.101,-19.648 -0.748,-2.078 -3.043,-3.153 -5.121,-2.405 -2.075,0.751 -3.154,3.043 -2.4,5.121 1.957,5.432 3.976,11.755 5.89,18.982 3.978,14.996 6.75,32.594 8.336,45.903 -1.06,1.346 -2.057,2.652 -3.009,3.93 -1.679,-12.625 -4.26,-27.761 -7.817,-41.216 -0.223,-0.856 -0.452,-1.697 -0.682,-2.525 -0.586,-2.131 -2.786,-3.38 -4.918,-2.795 -2.131,0.587 -3.379,2.789 -2.792,4.919 0.218,0.808 0.442,1.622 0.658,2.448 4.302,16.213 7.192,35.463 8.699,49.053 -1.081,1.69 -2.027,3.245 -2.868,4.681 -1.647,-13.319 -4.385,-30.242 -8.319,-45.114 -1.102,-4.172 -2.244,-8.056 -3.389,-11.659 l -0.003,0.003 c -0.668,-2.107 -2.918,-3.268 -5.022,-2.6 -2.104,0.67 -3.269,2.917 -2.597,5.024 1.106,3.48 2.21,7.237 3.278,11.28 4.517,17.033 7.481,37.426 8.916,51.074 -0.995,0.216 -2.112,0.484 -3.32,0.803 -1.667,-13.012 -4.332,-29.069 -8.084,-43.259 -1.973,-7.45 -4.06,-13.992 -6.096,-19.637 h -0.002 c -0.748,-2.079 -3.042,-3.153 -5.118,-2.404 -2.08,0.748 -3.156,3.04 -2.405,5.12 1.959,5.432 3.975,11.747 5.888,18.968 3.757,14.161 6.437,30.64 8.059,43.64 -1.098,0.397 -2.239,0.838 -3.408,1.31 -1.667,-11.528 -4.031,-24.572 -7.14,-36.33 -2.555,-9.649 -5.3,-17.775 -7.886,-24.405 v 0.002 c -0.8,-2.06 -3.117,-3.078 -5.177,-2.276 -2.059,0.803 -3.077,3.122 -2.273,5.179 2.473,6.357 5.126,14.196 7.604,23.548 3.205,12.088 5.628,25.866 7.278,37.728 -1.13,0.57 -2.281,1.18 -3.445,1.824 -1.595,-10.102 -3.691,-20.978 -6.323,-30.934 -2.676,-10.106 -5.56,-18.541 -8.249,-25.335 -0.813,-2.055 -3.137,-3.06 -5.192,-2.246 -2.055,0.811 -3.061,3.135 -2.249,5.19 2.577,6.512 5.362,14.642 7.958,24.438 2.35,8.863 4.279,18.631 5.791,27.889 -1.432,-0.732 -2.901,-1.444 -4.388,-2.144 -1.136,-5.798 -2.432,-11.604 -3.892,-17.125 -2.349,-8.867 -4.856,-16.445 -7.253,-22.758 -0.784,-2.066 -3.094,-3.103 -5.159,-2.32 -2.064,0.782 -3.103,3.092 -2.32,5.157 2.299,6.062 4.724,13.374 7,21.969 0.963,3.633 1.853,7.421 2.676,11.263 -1.623,-0.631 -3.277,-1.231 -4.949,-1.814 -0.074,-0.276 -0.144,-0.554 -0.218,-0.83 -1.684,-6.356 -3.449,-12.05 -5.197,-17.094"
     style="fill:#000000;fill-opacity:1;fill-rule:nonzero;stroke:none"
     id="path40886" />
  <path
     d="m 528.724,244.057 c 4.096,-7.675 8.495,-14.839 12.872,-20.399 8.079,-10.346 21.641,-19.301 24.764,-21.226 0.445,-0.279 0.656,-0.403 0.656,-0.403 l 1.708,-1.024 0.336,-1.956 c 0,-0.005 0.205,-1.187 0.645,-3.44 0.446,-2.249 1.118,-5.538 2.043,-9.65 1.84,-8.227 4.676,-19.748 8.629,-32.88 4.506,-15.227 15.904,-35.939 29.055,-52.376 5.841,6.349 17.377,19.545 25.986,33.549 8.79,14.297 14.522,29.964 16.962,37.339 -1.375,0.948 -2.738,1.925 -4.094,2.912 -2.62,-8.094 -6.46,-18.322 -11.69,-28.172 -4.883,-9.182 -10.846,-18 -16,-25.032 -1.304,-1.783 -3.81,-2.168 -5.591,-0.862 -1.781,1.306 -2.167,3.811 -0.863,5.59 5.006,6.825 10.78,15.385 15.39,24.058 5.514,10.364 9.485,21.446 11.996,29.579 -0.768,0.613 -1.524,1.243 -2.282,1.869 -2.438,-6.788 -5.593,-14.436 -9.538,-21.869 -5.122,-9.629 -11.434,-18.861 -16.75,-26.049 l -0.002,0.002 c -1.314,-1.776 -3.818,-2.148 -5.594,-0.834 -1.777,1.313 -2.149,3.816 -0.833,5.593 5.165,6.976 11.28,15.947 16.113,25.043 4.287,8.057 7.647,16.557 10.11,23.764 -0.822,0.75 -1.616,1.528 -2.422,2.294 -2.088,-5.32 -4.58,-10.958 -7.513,-16.48 -5.077,-9.546 -11.323,-18.705 -16.613,-25.864 -1.312,-1.776 -3.816,-2.152 -5.592,-0.838 -1.776,1.312 -2.155,3.816 -0.841,5.593 5.137,6.948 11.19,15.847 15.981,24.864 3.368,6.327 6.16,12.924 8.396,18.956 -0.843,0.905 -1.66,1.832 -2.48,2.756 -1.691,-3.995 -3.595,-8.095 -5.742,-12.133 -4.562,-8.579 -10.068,-16.842 -14.974,-23.628 -1.296,-1.788 -3.796,-2.188 -5.588,-0.896 -1.785,1.294 -2.188,3.796 -0.892,5.585 4.763,6.581 10.085,14.589 14.39,22.693 2.714,5.095 5.046,10.363 7.022,15.373 -0.835,1.098 -1.636,2.203 -2.42,3.308 -1.35,-3.021 -2.82,-6.08 -4.426,-9.102 -3.806,-7.159 -8.27,-14.096 -12.497,-20.14 -1.265,-1.811 -3.76,-2.253 -5.569,-0.985 -1.811,1.266 -2.251,3.758 -0.985,5.569 4.093,5.853 8.393,12.548 11.987,19.31 2.354,4.424 4.426,8.98 6.224,13.383 -0.785,1.303 -1.537,2.603 -2.261,3.897 -1.175,-2.562 -2.429,-5.145 -3.788,-7.701 -2.912,-5.479 -6.209,-10.825 -9.49,-15.743 h -0.003 c -1.224,-1.836 -3.707,-2.333 -5.544,-1.106 -1.839,1.225 -2.333,3.709 -1.109,5.546 3.172,4.751 6.333,9.887 9.081,15.058 2.319,4.356 4.361,8.838 6.141,13.178 -0.709,1.52 -1.368,3.014 -1.998,4.488 -1.224,-2.69 -2.542,-5.402 -3.967,-8.088 -2.445,-4.598 -5.161,-9.104 -7.909,-13.338 -1.203,-1.852 -3.679,-2.38 -5.534,-1.178 -1.852,1.203 -2.38,3.678 -1.177,5.534 2.649,4.078 5.248,8.397 7.556,12.737 2.66,4.997 4.952,10.159 6.905,15.081 -0.61,1.791 -1.148,3.49 -1.64,5.116 -1.526,-3.512 -3.216,-7.089 -5.09,-10.618 -3.735,-7.024 -8.103,-13.834 -12.259,-19.798 -1.261,-1.814 -3.755,-2.26 -5.569,-0.994 -1.811,1.264 -2.256,3.756 -0.994,5.566 4.026,5.772 8.232,12.348 11.758,18.98 3.585,6.739 6.513,13.778 8.818,20.12 -0.916,0.194 -2.013,0.448 -3.25,0.771 -1.602,-3.733 -3.396,-7.552 -5.392,-11.313 -4.83,-9.08 -10.718,-17.806 -15.835,-24.803 v 0.003 c -1.304,-1.784 -3.804,-2.172 -5.588,-0.867 -1.783,1.304 -2.172,3.807 -0.867,5.588 4.966,6.788 10.667,15.257 15.226,23.835 1.748,3.288 3.336,6.648 4.777,9.965 -1.171,0.428 -2.401,0.919 -3.659,1.444 -0.312,-0.611 -0.62,-1.223 -0.944,-1.831 -5.468,-10.281 -12.29,-20.114 -17.818,-27.48 -1.324,-1.768 -3.832,-2.126 -5.6,-0.801 -1.764,1.324 -2.126,3.831 -0.8,5.599 4.822,6.425 10.649,14.804 15.529,23.485 -7.425,-6.679 -15.923,-13.161 -25.232,-18.368 -3.823,-2.12 -7.88,-3.632 -11.948,-4.708"
     style="fill:#000000;fill-opacity:1;fill-rule:nonzero;stroke:none"
     id="path40890" />
  <path
     d="m 505.533,174.852 c 1.367,-16.2 4.094,-38.872 8.768,-59.737 4.516,-20.3989 14.828,-40.5629 23.3,-54.3802 5.55,3.2107 16.351,9.9453 28.364,20.0266 12.152,10.1974 20.672,23.8936 24.722,31.2546 -0.818,1.279 -1.602,2.568 -2.386,3.857 -4.257,-7.538 -10.353,-16.6396 -18.393,-24.4036 -6.416,-6.1853 -12.516,-11.2799 -17.605,-15.2159 H 552.3 c -1.745,-1.3507 -4.259,-1.0307 -5.611,0.716 -1.35,1.748 -1.029,4.2573 0.716,5.6119 4.895,3.7867 10.779,8.6974 16.952,14.6467 8.76,8.4209 15.286,19.1039 19.264,26.7879 -0.369,0.679 -0.721,1.355 -1.077,2.031 -4.168,-7.05 -9.833,-15.134 -17.081,-22.132 -7.018,-6.7629 -13.659,-12.2242 -19.011,-16.2936 v 0.0027 c -1.757,-1.3373 -4.265,-0.996 -5.601,0.764 -1.336,1.7573 -0.995,4.2667 0.762,5.6026 5.142,3.908 11.548,9.1763 18.302,15.6843 8.105,7.794 14.304,17.532 18.334,25.03 -0.357,0.779 -0.686,1.544 -1.025,2.316 -4.075,-6.688 -9.459,-14.148 -16.204,-20.664 -7.32,-7.049 -14.224,-12.685 -19.684,-16.8009 -1.765,-1.3267 -4.273,-0.9774 -5.603,0.7889 -1.328,1.764 -0.976,4.272 0.787,5.599 5.248,3.955 11.909,9.391 18.951,16.175 7.869,7.566 13.929,16.954 17.966,24.36 -0.316,0.897 -0.59,1.766 -0.876,2.642 -4.046,-6.597 -9.356,-13.912 -15.986,-20.317 -7.175,-6.916 -13.954,-12.468 -19.364,-16.561 -1.763,-1.331 -4.271,-0.986 -5.603,0.777 -1.335,1.763 -0.987,4.271 0.777,5.603 5.198,3.932 11.734,9.289 18.639,15.941 8.152,7.839 14.373,17.643 18.405,25.157 -0.26,0.934 -0.51,1.846 -0.76,2.754 -4.112,-6.83 -9.602,-14.527 -16.538,-21.224 -6.518,-6.283 -12.707,-11.438 -17.843,-15.402 -1.749,-1.349 -4.26,-1.024 -5.609,0.726 -1.348,1.749 -1.024,4.258 0.724,5.608 4.936,3.809 10.906,8.785 17.178,14.825 8.698,8.363 15.191,18.955 19.176,26.628 -0.232,0.935 -0.453,1.841 -0.669,2.733 -4.195,-7.173 -9.971,-15.497 -17.401,-22.673 -5.758,-5.547 -11.258,-10.216 -16,-13.961 -1.735,-1.37 -4.248,-1.074 -5.619,0.661 -1.365,1.735 -1.071,4.248 0.663,5.617 4.564,3.602 9.868,8.106 15.405,13.443 9.524,9.153 16.411,20.992 20.249,28.735 -0.206,0.964 -0.392,1.852 -0.562,2.682 -4.266,-7.602 -10.428,-16.857 -18.582,-24.732 -4.681,-4.513 -9.192,-8.445 -13.265,-11.768 h -0.003 c -1.71,-1.396 -4.229,-1.141 -5.625,0.57 -1.397,1.712 -1.143,4.229 0.568,5.628 3.923,3.201 8.272,6.989 12.776,11.329 8.535,8.204 14.941,18.551 18.945,26.189 -1.374,-0.969 -2.789,-1.936 -4.222,-2.899 -3.684,-5.553 -8.21,-11.382 -13.619,-16.605 -3.599,-3.468 -7.093,-6.594 -10.372,-9.362 -1.687,-1.426 -4.211,-1.215 -5.639,0.472 -1.422,1.686 -1.213,4.209 0.475,5.636 2.907,2.457 6,5.216 9.175,8.244 -2.771,-1.33 -5.56,-2.539 -8.342,-3.583 -6.778,-2.523 -13.106,-4.121 -18.56,-5.14"
     style="fill:#000000;fill-opacity:1;fill-rule:nonzero;stroke:none"
     id="path40894" />
  <path
     d="m 406.68,143.104 c 10.495,0.384 27.424,2.745 44.372,11.937 22.005,11.924 31.568,23.824 32.431,24.932 l 0.057,0.075 1.383,1.856 2.309,-0.115 c 0,0.004 0.109,-0.004 0.437,-0.008 0.331,-0.008 0.839,-0.012 1.506,-0.001 4.685,0.076 17.232,0.864 31.893,6.335 9.519,3.522 19.565,9.475 28.536,15.646 -4.911,3.94 -10.385,8.928 -14.823,14.544 -0.784,0.999 -1.557,2.049 -2.33,3.119 -0.911,-3.207 -1.766,-6.508 -2.516,-9.77 -0.492,-2.152 -2.638,-3.496 -4.792,-3.004 -2.154,0.494 -3.496,2.642 -3.004,4.795 1.273,5.547 2.812,11.229 4.52,16.441 0.021,0.067 0.046,0.134 0.068,0.2 -0.74,1.212 -1.474,2.438 -2.198,3.69 -1.546,-3.502 -3.021,-7.23 -4.269,-11.05 -1.807,-5.505 -3.444,-11.696 -4.747,-17.61 -0.472,-2.158 -2.604,-3.523 -4.761,-3.048 -2.157,0.473 -3.523,2.606 -3.048,4.765 1.351,6.149 3.045,12.56 4.956,18.388 2.036,6.171 4.524,12 7.025,17.111 -0.88,-0.112 -1.754,-0.21 -2.618,-0.294 -3.523,-6.112 -7.808,-14.798 -10.806,-23.978 -1.677,-5.104 -3.206,-10.8 -4.456,-16.316 -0.486,-2.156 -2.63,-3.504 -4.784,-3.018 -2.153,0.487 -3.508,2.63 -3.021,4.784 1.3,5.735 2.885,11.643 4.66,17.044 2.583,7.831 5.892,15.114 9.036,21.06 -0.693,0.004 -1.371,0.014 -2.032,0.028 -3.757,-5.81 -9.612,-16.634 -13.403,-28.249 -1.281,-3.909 -2.482,-8.164 -3.534,-12.421 -0.531,-2.142 -2.698,-3.451 -4.842,-2.92 -2.145,0.528 -3.454,2.694 -2.924,4.841 1.092,4.424 2.342,8.856 3.698,12.992 3.409,10.345 8.094,19.747 11.98,26.347 -0.486,0.054 -0.932,0.106 -1.314,0.154 -0.696,-0.498 -1.633,-1.165 -2.76,-1.949 -5.189,-9.3 -9.964,-19.424 -14.14,-31.745 -1.44,-4.243 -2.552,-8.967 -3.597,-13.619 -0.484,-2.157 -2.621,-3.513 -4.78,-3.029 -2.155,0.484 -3.508,2.622 -3.027,4.78 1.086,4.834 2.356,9.712 3.763,14.244 2.38,7.621 5.453,14.746 8.415,20.637 -0.995,-0.609 -2.015,-1.224 -3.058,-1.841 -3.69,-6.128 -8.57,-15.671 -11.879,-25.804 -2.506,-7.63 -4.683,-16.572 -6.092,-24.284 -0.396,-2.172 -2.476,-3.613 -4.654,-3.216 -2.172,0.397 -3.612,2.479 -3.214,4.653 1.474,8.067 3.709,17.268 6.357,25.341 1.936,5.866 4.279,11.422 6.657,16.347 -1.141,-0.557 -2.284,-1.105 -3.43,-1.628 -3.266,-5.925 -6.955,-13.705 -9.624,-21.88 -2.972,-9.044 -5.48,-19.938 -6.795,-28.437 -0.337,-2.183 -2.383,-3.676 -4.565,-3.339 -2.183,0.339 -3.676,2.383 -3.339,4.566 1.393,8.973 3.959,20.132 7.096,29.705 1.761,5.342 3.865,10.429 6.021,15.016 -1.005,-0.328 -2.016,-0.644 -3.029,-0.946 -2.923,-4.922 -6.176,-11.469 -8.947,-19.9 -3.093,-9.41 -5.05,-21.123 -5.92,-29.905 -0.218,-2.197 -2.178,-3.804 -4.374,-3.585 -2.199,0.219 -3.806,2.179 -3.587,4.377 0.928,9.244 2.911,21.315 6.281,31.607 1.863,5.685 3.952,10.598 6.038,14.804 -0.576,-0.116 -1.154,-0.239 -1.73,-0.346 -3.494,-5.196 -8.164,-13.505 -10.976,-23.997 -2.193,-8.166 -3.338,-17.541 -3.9,-25.428 -0.157,-2.204 -2.072,-3.864 -4.274,-3.706 -2.206,0.158 -3.862,2.072 -3.706,4.274 0.59,8.206 1.758,17.982 4.155,26.932 2.196,8.18 5.375,15.085 8.412,20.464 -1.281,-0.128 -2.56,-0.247 -3.82,-0.328 -3.297,-5.313 -8.693,-15.541 -11.156,-28.841 -2.639,-14.26 -2.024,-30.989 -1.467,-39.276"
     style="fill:#000000;fill-opacity:1;fill-rule:nonzero;stroke:none"
     id="path40898" />
  <path
     d="m 455.771,319.784 c 27.384,10.659 43.666,33.361 45.361,35.899 0.113,0.166 0.151,0.219 0.151,0.219 l 1.437,2.195 2.608,-0.256 c 0.003,0.002 0.94,-0.092 2.744,-0.192 1.805,-0.1 4.425,-0.202 7.623,-0.202 9.412,-0.006 23.862,0.892 37.249,5.103 7.524,2.357 14.493,5.372 20.892,8.711 -6.48,4.733 -13.123,10.692 -19.515,18.216 -1.878,2.213 -3.632,4.432 -5.293,6.656 -0.861,-5.628 -1.705,-11.16 -2.487,-16.326 -0.33,-2.184 -2.369,-3.685 -4.552,-3.354 -2.185,0.33 -3.688,2.366 -3.357,4.552 1.175,7.757 2.483,16.33 3.799,24.834 -1.288,2.095 -2.502,4.188 -3.634,6.282 -1.789,-11.38 -3.672,-23.671 -5.321,-34.543 -0.331,-2.184 -2.369,-3.687 -4.553,-3.357 -2.183,0.33 -3.686,2.369 -3.355,4.553 1.82,12.02 3.932,25.787 5.888,38.147 0.429,2.724 0.872,5.366 1.321,7.934 -1.077,2.634 -2.057,5.262 -2.95,7.88 -1.28,-6.301 -2.59,-13.377 -3.804,-21.064 -1.776,-11.226 -3.682,-23.63 -5.383,-34.825 -0.333,-2.183 -2.372,-3.685 -4.557,-3.352 -2.182,0.329 -3.684,2.368 -3.352,4.553 1.7,11.204 3.61,23.624 5.392,34.874 1.752,11.09 3.697,20.945 5.473,29.036 -1.419,0.146 -2.799,0.31 -4.115,0.494 -2.072,-8.861 -4.588,-20.84 -6.792,-34.78 -1.536,-9.705 -3.168,-20.29 -4.681,-30.213 -0.331,-2.185 -2.373,-3.683 -4.557,-3.351 -2.183,0.332 -3.684,2.372 -3.352,4.558 1.516,9.93 3.15,20.532 4.69,30.258 2.206,13.956 4.719,25.967 6.81,34.946 -1.471,0.325 -2.792,0.648 -3.911,0.942 -2.257,-9.018 -5.544,-23.502 -8.332,-41.14 -1.388,-8.768 -2.853,-18.258 -4.241,-27.328 -0.334,-2.185 -2.372,-3.682 -4.558,-3.349 -2.182,0.333 -3.685,2.373 -3.349,4.557 1.385,9.082 2.857,18.582 4.248,27.372 2.327,14.711 4.989,27.246 7.143,36.362 -1.45,-0.851 -3.044,-1.758 -4.798,-2.706 -2.218,-9.09 -5.21,-22.661 -7.778,-38.908 -2.283,-14.428 -4.782,-30.804 -6.78,-44.052 -0.331,-2.184 -2.367,-3.688 -4.554,-3.357 -2.181,0.327 -3.684,2.365 -3.358,4.552 2.001,13.259 4.501,29.648 6.792,44.107 2.052,12.981 4.366,24.268 6.362,33.01 -1.502,-0.688 -3.056,-1.37 -4.662,-2.037 -2.134,-8.989 -4.806,-21.504 -7.134,-36.221 -2.738,-17.311 -5.785,-37.419 -7.911,-51.572 -0.327,-2.186 -2.366,-3.69 -4.55,-3.362 -2.184,0.327 -3.688,2.364 -3.361,4.55 2.125,14.164 5.176,34.286 7.923,51.633 1.943,12.301 4.123,23.077 6.046,31.613 -1.484,-0.494 -2.997,-0.966 -4.529,-1.414 -2.101,-8.927 -4.689,-21.148 -6.952,-35.45 -2.925,-18.492 -6.204,-40.185 -8.335,-54.39 -0.328,-2.186 -2.361,-3.692 -4.549,-3.362 -2.184,0.326 -3.688,2.36 -3.361,4.547 2.133,14.219 5.41,35.921 8.346,54.456 1.976,12.499 4.198,23.436 6.14,32.035 -1.473,-0.31 -2.94,-0.602 -4.394,-0.872 -2.14,-9 -4.838,-21.591 -7.18,-36.414 -2.934,-18.536 -6.219,-40.286 -8.348,-54.489 -0.33,-2.188 -2.367,-3.693 -4.548,-3.365 -2.186,0.328 -3.691,2.364 -3.366,4.548 2.134,14.22 5.423,35.98 8.36,54.557 2.12,13.395 4.515,24.977 6.555,33.827 -1.435,-0.178 -2.865,-0.342 -4.279,-0.466 -2.212,-9.089 -5.166,-22.54 -7.706,-38.612 -2.816,-17.794 -5.956,-38.546 -8.088,-52.748 -0.33,-2.185 -2.364,-3.692 -4.551,-3.362 -2.183,0.326 -3.689,2.364 -3.36,4.548 2.132,14.213 5.275,34.98 8.099,52.813 2.373,15.017 5.1,27.769 7.276,36.925 -1.743,-0.017 -3.468,0.003 -5.18,0.076 -2.071,-7.71 -6.394,-25.046 -9.924,-47.373 -3.687,-23.3 -7.928,-51.641 -9.736,-63.764 15.917,0.042 31.616,2.375 48.545,8.998"
     style="fill:#000000;fill-opacity:1;fill-rule:nonzero;stroke:none"
     id="path40902" />
  <path
     d="m 414.131,219.673 c 12.372,0.196 27.123,3.051 39.64,8.369 13.354,5.651 28.086,15.456 34.5,19.964 2.141,1.502 3.344,2.392 3.346,2.396 l 1.486,1.102 1.822,-0.308 c 0.003,0.002 0.323,-0.056 1.026,-0.151 0.704,-0.095 1.742,-0.224 3.052,-0.345 2.62,-0.25 6.322,-0.486 10.534,-0.415 8.443,0.12 18.922,1.551 26.908,6.048 9.388,5.228 18.09,12.035 25.584,18.989 -5.773,3.8 -11.622,8.723 -16.838,15.112 -2.37,2.922 -4.546,5.826 -6.566,8.702 -0.856,-8.938 -1.294,-16.59 -1.51,-21.571 -0.095,-2.207 -1.963,-3.92 -4.172,-3.824 -2.204,0.095 -3.918,1.961 -3.82,4.171 0.297,6.868 1.002,18.612 2.62,31.945 -1.11,1.899 -2.148,3.775 -3.12,5.621 -0.1,-0.596 -0.203,-1.194 -0.295,-1.788 -2.681,-17.413 -3.695,-33.868 -4.059,-42.344 -0.094,-2.205 -1.958,-3.92 -4.166,-3.825 -2.207,0.095 -3.92,1.961 -3.827,4.169 0.376,8.667 1.396,25.362 4.147,43.219 0.661,4.268 1.52,8.579 2.482,12.784 -0.104,0.253 -0.214,0.512 -0.316,0.764 -0.556,1.397 -1.101,2.842 -1.641,4.316 -1.735,-6.473 -3.341,-13.511 -4.385,-20.299 -2.688,-17.438 -3.698,-33.912 -4.06,-42.376 -0.094,-2.206 -1.96,-3.921 -4.167,-3.825 -2.205,0.095 -3.921,1.959 -3.827,4.168 0.374,8.655 1.392,25.371 4.146,43.253 1.797,11.623 5.049,23.596 7.952,32.713 -0.222,0.795 -0.45,1.564 -0.664,2.376 -0.08,0 -0.167,-0.001 -0.247,-0.001 -0.516,0 -1.016,0.003 -1.504,0.007 -3.544,-10.006 -7.559,-25.355 -9.932,-40.48 -2.275,-14.409 -3.32,-28.181 -3.813,-37.304 -0.119,-2.205 -2.004,-3.897 -4.21,-3.776 -2.206,0.12 -3.896,2.005 -3.777,4.209 0.504,9.296 1.56,23.31 3.9,38.119 2.113,13.317 5.323,26.521 8.565,36.744 -0.99,-1.244 -2.18,-2.676 -3.572,-4.254 -3.305,-9.804 -8.154,-26.195 -9.913,-39.654 -1.627,-12.385 -2.795,-24.212 -3.473,-33.065 -0.171,-2.203 -2.092,-3.852 -4.295,-3.683 -2.203,0.169 -3.853,2.092 -3.683,4.295 0.69,9.006 1.871,20.946 3.52,33.493 1.096,8.295 3.534,18.128 6.103,27.029 -1.085,-0.933 -2.219,-1.872 -3.396,-2.811 -2.797,-8.813 -5.937,-20.419 -7.621,-31.367 -2.131,-13.834 -3.212,-27.068 -3.744,-36.168 -0.13,-2.206 -2.02,-3.89 -4.226,-3.759 -2.205,0.127 -3.889,2.02 -3.76,4.227 0.544,9.278 1.638,22.728 3.822,36.921 1.194,7.716 3.029,15.587 4.977,22.677 -1.091,-0.681 -2.208,-1.352 -3.351,-2.008 -2.496,-8.273 -5.081,-18.341 -6.551,-27.909 -2.284,-14.817 -3.358,-28.94 -3.85,-38.04 -0.117,-2.204 -2.005,-3.897 -4.208,-3.78 -2.209,0.12 -3.898,2.005 -3.78,4.211 0.504,9.284 1.59,23.633 3.93,38.825 1.141,7.388 2.873,14.915 4.728,21.765 -1.043,-0.46 -2.099,-0.908 -3.178,-1.337 -2.47,-8.227 -5.021,-18.191 -6.478,-27.661 -2.311,-15.003 -3.38,-29.295 -3.866,-38.38 -0.118,-2.207 -2.002,-3.902 -4.208,-3.783 -2.205,0.117 -3.897,2.001 -3.781,4.207 0.495,9.27 1.579,23.789 3.948,39.174 1.221,7.886 3.109,15.927 5.104,23.135 -1.004,-0.319 -2.003,-0.612 -3.001,-0.903 -2.638,-8.546 -5.463,-19.292 -7.03,-29.473 -2.149,-13.941 -3.224,-27.271 -3.756,-36.376 -0.126,-2.208 -2.02,-3.891 -4.224,-3.763 -2.205,0.127 -3.888,2.02 -3.762,4.224 0.541,9.286 1.633,22.835 3.834,37.135 1.382,8.924 3.619,18.052 5.898,25.94 -0.939,-0.205 -1.878,-0.416 -2.812,-0.599 -2.891,-8.942 -6.248,-21.122 -8.011,-32.58 -1.86,-12.064 -2.916,-23.672 -3.512,-32.478 -0.147,-2.206 -2.053,-3.871 -4.259,-3.724 -2.204,0.149 -3.87,2.056 -3.721,4.261 0.604,8.972 1.679,20.784 3.587,33.159 1.618,10.468 4.414,21.222 7.074,29.917 -1.49,-0.193 -2.974,-0.363 -4.456,-0.507 -3.021,-9.092 -7.442,-24.866 -9.385,-39.702 -2.365,-18.064 -2.98,-34.98 -3.136,-43.392 1.516,-0.062 3.068,-0.095 4.68,-0.067"
     style="fill:#000000;fill-opacity:1;fill-rule:nonzero;stroke:none"
     id="path40906" />
</svg>
