<?xml version="1.0" encoding="UTF-8" standalone="no"?>
<!-- Created with Inkscape (http://www.inkscape.org/) -->

<svg
   version="1.1"
   id="svg22698"
   width="795.03467"
   height="793.70135"
   viewBox="0 0 795.03467 793.70135"
   sodipodi:docname="Mitsuwari Shuro.svg"
   inkscape:version="1.2 (dc2aeda, 2022-05-15)"
   xmlns:inkscape="http://www.inkscape.org/namespaces/inkscape"
   xmlns:sodipodi="http://sodipodi.sourceforge.net/DTD/sodipodi-0.dtd"
   xmlns="http://www.w3.org/2000/svg"
   xmlns:svg="http://www.w3.org/2000/svg">
  <defs
     id="defs22702">
    <clipPath
       clipPathUnits="userSpaceOnUse"
       id="clipPath23429">
      <path
         d="m -66.5029,150.6539 h 596.276 v -595.276 h -596.276 z"
         id="path23431"
         style="stroke-width:0.999998" />
    </clipPath>
    <clipPath
       clipPathUnits="userSpaceOnUse"
       id="clipPath23435">
      <path
         d="M -515.1279,359.0114 H 81.148105 v -595.276 H -515.1279 Z"
         id="path23437"
         style="stroke-width:0.999998" />
    </clipPath>
    <clipPath
       clipPathUnits="userSpaceOnUse"
       id="clipPath23441">
      <path
         d="m -324.5205,411.1735 h 596.276 v -595.276 h -596.276 z"
         id="path23443"
         style="stroke-width:0.999998" />
    </clipPath>
    <clipPath
       clipPathUnits="userSpaceOnUse"
       id="clipPath23447">
      <path
         d="M -553.8975,585.8483 H 42.378504 V -9.4277027 H -553.8975 Z"
         id="path23449"
         style="stroke-width:0.999998" />
    </clipPath>
    <clipPath
       clipPathUnits="userSpaceOnUse"
       id="clipPath23453">
      <path
         d="M -545.417,584.5729 H 50.859001 V -10.7031 H -545.417 Z"
         id="path23455"
         style="stroke-width:0.999998" />
    </clipPath>
    <clipPath
       clipPathUnits="userSpaceOnUse"
       id="clipPath23459">
      <path
         d="M -536.6982,584.5729 H 59.577804 V -10.7031 H -536.6982 Z"
         id="path23461"
         style="stroke-width:0.999998" />
    </clipPath>
    <clipPath
       clipPathUnits="userSpaceOnUse"
       id="clipPath23465">
      <path
         d="M -576.3691,585.5885 H 19.906905 V -9.6875027 H -576.3691 Z"
         id="path23467"
         style="stroke-width:0.999998" />
    </clipPath>
    <clipPath
       clipPathUnits="userSpaceOnUse"
       id="clipPath23471">
      <path
         d="m -285.9014,571.2457 h 596.276 V -24.030301 h -596.276 z"
         id="path23473"
         style="stroke-width:0.999998" />
    </clipPath>
    <clipPath
       clipPathUnits="userSpaceOnUse"
       id="clipPath23477">
      <path
         d="m -314.8799,182.4879 h 596.276 v -595.276 h -596.276 z"
         id="path23479"
         style="stroke-width:0.999998" />
    </clipPath>
    <clipPath
       clipPathUnits="userSpaceOnUse"
       id="clipPath23483">
      <path
         d="M -568.2266,575.819 H 28.049401 V -19.457003 H -568.2266 Z"
         id="path23485"
         style="stroke-width:0.999998" />
    </clipPath>
    <clipPath
       clipPathUnits="userSpaceOnUse"
       id="clipPath23489">
      <path
         d="M -550.2637,577.3248 H 46.012306 V -17.951198 H -550.2637 Z"
         id="path23491"
         style="stroke-width:0.999998" />
    </clipPath>
    <clipPath
       clipPathUnits="userSpaceOnUse"
       id="clipPath23495">
      <path
         d="m -382.5088,217.5348 h 596.276 v -595.276 h -596.276 z"
         id="path23497"
         style="stroke-width:0.999998" />
    </clipPath>
    <clipPath
       clipPathUnits="userSpaceOnUse"
       id="clipPath23501">
      <path
         d="m -242.0322,78.544602 h 596.276 V -516.7314 h -596.276 z"
         id="path23503"
         style="stroke-width:0.999998" />
    </clipPath>
    <clipPath
       clipPathUnits="userSpaceOnUse"
       id="clipPath23507">
      <path
         d="M -499.2197,227.2965 H 97.056302 v -595.276 H -499.2197 Z"
         id="path23509"
         style="stroke-width:0.999998" />
    </clipPath>
    <clipPath
       clipPathUnits="userSpaceOnUse"
       id="clipPath23513">
      <path
         d="M -540.4443,170.9449 H 55.831704 v -595.276 H -540.4443 Z"
         id="path23515"
         style="stroke-width:0.999998" />
    </clipPath>
    <clipPath
       clipPathUnits="userSpaceOnUse"
       id="clipPath23519">
      <path
         d="m -135.6885,455.2867 h 596.276 v -595.276 h -596.276 z"
         id="path23521"
         style="stroke-width:0.999998" />
    </clipPath>
    <clipPath
       clipPathUnits="userSpaceOnUse"
       id="clipPath23525">
      <path
         d="M -572.8174,586.1354 H 23.458606 V -9.1406027 H -572.8174 Z"
         id="path23527"
         style="stroke-width:0.999998" />
    </clipPath>
    <clipPath
       clipPathUnits="userSpaceOnUse"
       id="clipPath23531">
      <path
         d="m -290.6299,122.9977 h 596.27601 v -595.276 H -290.6299 Z"
         id="path23533"
         style="stroke-width:0.999998" />
    </clipPath>
    <clipPath
       clipPathUnits="userSpaceOnUse"
       id="clipPath23537">
      <path
         d="M -574.5459,585.8522 H 21.730103 V -9.4238027 H -574.5459 Z"
         id="path23539"
         style="stroke-width:0.999998" />
    </clipPath>
    <clipPath
       clipPathUnits="userSpaceOnUse"
       id="clipPath23543">
      <path
         d="M -542.9326,584.5729 H 53.343399 V -10.7031 H -542.9326 Z"
         id="path23545"
         style="stroke-width:0.999998" />
    </clipPath>
    <clipPath
       clipPathUnits="userSpaceOnUse"
       id="clipPath23549">
      <path
         d="M -564.5732,585.8483 H 31.702801 V -9.4277027 H -564.5732 Z"
         id="path23551"
         style="stroke-width:0.999998" />
    </clipPath>
    <clipPath
       clipPathUnits="userSpaceOnUse"
       id="clipPath23555">
      <path
         d="m -135.917,158.1813 h 596.276 v -595.276 h -596.276 z"
         id="path23557"
         style="stroke-width:0.999998" />
    </clipPath>
    <clipPath
       clipPathUnits="userSpaceOnUse"
       id="clipPath23561">
      <path
         d="m -185.8193,264.1364 h 596.276 v -595.276 h -596.276 z"
         id="path23563"
         style="stroke-width:0.999998" />
    </clipPath>
    <clipPath
       clipPathUnits="userSpaceOnUse"
       id="clipPath23567">
      <path
         d="m -149.8857,390.9723 h 596.276 v -595.276 h -596.276 z"
         id="path23569"
         style="stroke-width:0.999998" />
    </clipPath>
    <clipPath
       clipPathUnits="userSpaceOnUse"
       id="clipPath23573">
      <path
         d="M -557.0645,585.8483 H 39.211501 V -9.4277027 H -557.0645 Z"
         id="path23575"
         style="stroke-width:0.999998" />
    </clipPath>
    <clipPath
       clipPathUnits="userSpaceOnUse"
       id="clipPath23579">
      <path
         d="M -561.4131,585.8522 H 34.862903 V -9.4238027 H -561.4131 Z"
         id="path23581"
         style="stroke-width:0.999998" />
    </clipPath>
    <clipPath
       clipPathUnits="userSpaceOnUse"
       id="clipPath23585">
      <path
         d="M -567.7754,585.8522 H 28.500601 V -9.4238027 H -567.7754 Z"
         id="path23587"
         style="stroke-width:0.999998" />
    </clipPath>
    <clipPath
       clipPathUnits="userSpaceOnUse"
       id="clipPath23592">
      <path
         d="M -528.0898,575.3815 H 68.186199 V -19.8945 H -528.0898 Z"
         id="path23594"
         style="stroke-width:0.999998" />
    </clipPath>
    <clipPath
       clipPathUnits="userSpaceOnUse"
       id="clipPath23598">
      <path
         d="m -189.2822,340.2262 h 596.276 v -595.276 h -596.276 z"
         id="path23600"
         style="stroke-width:0.999998" />
    </clipPath>
    <clipPath
       clipPathUnits="userSpaceOnUse"
       id="clipPath23604">
      <path
         d="M -540.8213,585.8483 H 55.454701 V -9.4277027 H -540.8213 Z"
         id="path23606"
         style="stroke-width:0.999998" />
    </clipPath>
    <clipPath
       clipPathUnits="userSpaceOnUse"
       id="clipPath23610">
      <path
         d="M -538.2217,577.9479 H 58.054299 V -17.328098 H -538.2217 Z"
         id="path23612"
         style="stroke-width:0.999998" />
    </clipPath>
    <clipPath
       clipPathUnits="userSpaceOnUse"
       id="clipPath23617">
      <path
         d="M -584.1943,578.9381 H 12.081705 V -16.337903 H -584.1943 Z"
         id="path23619"
         style="stroke-width:0.999998" />
    </clipPath>
    <clipPath
       clipPathUnits="userSpaceOnUse"
       id="clipPath23623">
      <path
         d="M -557.4951,577.8502 H 38.780903 V -17.4258 H -557.4951 Z"
         id="path23625"
         style="stroke-width:0.999998" />
    </clipPath>
    <clipPath
       clipPathUnits="userSpaceOnUse"
       id="clipPath23629">
      <path
         d="M -586.5449,579.5026 H 9.7311002 V -15.7734 H -586.5449 Z"
         id="path23631"
         style="stroke-width:0.999998" />
    </clipPath>
    <clipPath
       clipPathUnits="userSpaceOnUse"
       id="clipPath23635">
      <path
         d="M -548.9834,585.8522 H 47.292601 V -9.4238027 H -548.9834 Z"
         id="path23637"
         style="stroke-width:0.999998" />
    </clipPath>
    <clipPath
       clipPathUnits="userSpaceOnUse"
       id="clipPath23641">
      <path
         d="M -531.1924,581.5885 H 65.083599 V -13.6875 H -531.1924 Z"
         id="path23643"
         style="stroke-width:0.999998" />
    </clipPath>
    <clipPath
       clipPathUnits="userSpaceOnUse"
       id="clipPath23647">
      <path
         d="M -556.4014,578.0143 H 39.874606 V -17.2617 H -556.4014 Z"
         id="path23649"
         style="stroke-width:0.999998" />
    </clipPath>
    <clipPath
       clipPathUnits="userSpaceOnUse"
       id="clipPath23653">
      <path
         d="m -452.3311,378.8727 h 596.276 v -595.276 h -596.276 z"
         id="path23655"
         style="stroke-width:0.999998" />
    </clipPath>
    <clipPath
       clipPathUnits="userSpaceOnUse"
       id="clipPath23659">
      <path
         d="m -257.7119,507.3668 h 596.276 V -87.909197 h -596.276 z"
         id="path23661"
         style="stroke-width:0.999998" />
    </clipPath>
    <clipPath
       clipPathUnits="userSpaceOnUse"
       id="clipPath23665">
      <path
         d="m -388.6865,370.1285 h 596.27601 v -595.276 H -388.6865 Z"
         id="path23667"
         style="stroke-width:0.999998" />
    </clipPath>
  </defs>
  <sodipodi:namedview
     id="namedview22700"
     pagecolor="#ffffff"
     bordercolor="#000000"
     borderopacity="0.25"
     inkscape:showpageshadow="2"
     inkscape:pageopacity="0.0"
     inkscape:pagecheckerboard="0"
     inkscape:deskcolor="#d1d1d1"
     showgrid="false"
     inkscape:zoom="0.29734106"
     inkscape:cx="-215.24105"
     inkscape:cy="396.85068"
     inkscape:window-width="1419"
     inkscape:window-height="456"
     inkscape:window-x="1920"
     inkscape:window-y="142"
     inkscape:window-maximized="0"
     inkscape:current-layer="svg22698">
    <inkscape:page
       x="0"
       y="0"
       id="page22704"
       width="795.03467"
       height="793.70135" />
  </sodipodi:namedview>
  <path
     d="M 720.592 227.927 C 717.847 240.711 712.803 255.138 706.931 264.698 C 692.597 288.031 679.931 293.698 679.931 293.698 C 679.931 293.698 708.931 300.364 729.597 324.364 C 742.732 339.617 744.193 371.687 744.748 392.487 L 761.912 392.487 C 761.22 333.156 746.368 277.236 720.592 227.927"
     style="fill:#000000;fill-opacity:1;fill-rule:nonzero;stroke:none"
     id="path22818" />
  <path
     d="M 322.71 104.726 C 358.519 91.4474 397.256 84.1927 437.686 84.1927 C 518.24 84.1927 592.067 112.997 649.433 160.865 C 587.019 100.409 501.999 63.1928 408.243 63.1928 C 389.676 63.1928 372.095 64.6994 353.682 67.4608 C 319.626 72.5621 282.751 85.8167 281.273 82.8567 C 279.793 79.8954 318.459 64.5621 351.798 59.6554 C 374.122 56.3715 389.035 55.1901 408.243 55.1901 C 537.441 55.1928 650.496 124.275 712.514 227.512 C 712.605 227.103 712.712 226.682 712.797 226.278 L 714.75 217.171 C 652.037 106.455 533.179 31.7288 396.85 31.7288 C 331.759 31.7288 270.645 48.7621 217.724 78.6141 C 217.724 78.6141 253.71 128.393 322.71 104.726"
     style="fill:#000000;fill-opacity:1;fill-rule:nonzero;stroke:none"
     id="path22822" />
  <path
     d="M 510.012 290.046 C 539.801 269.934 575.707 258.189 614.356 258.189 C 641.394 258.189 667.088 263.945 690.285 274.286 C 691.569 272.775 692.913 271.079 694.298 269.21 C 662.741 248.945 625.206 237.191 584.908 237.191 C 567.627 237.191 550.851 239.353 534.837 243.421 C 507.999 250.239 482.551 263.789 461.181 278.617 C 433.96 297.505 424.414 314.794 421.603 313.093 C 418.794 311.395 433.778 290.622 454.869 274.09 C 475.96 257.562 503.7 243.161 532.317 235.806 C 549.129 231.486 566.752 229.189 584.908 229.189 C 626.881 229.189 665.988 241.467 698.834 262.622 C 699.269 261.945 699.705 261.251 700.142 260.541 C 700.165 260.502 700.192 260.458 700.214 260.415 C 660.941 227.801 610.509 208.192 555.465 208.189 C 518.924 208.192 484.416 216.83 453.853 232.182 C 409.515 253.95 383.07 295.062 391.703 345.095 C 437.96 347.729 481.012 309.713 510.012 290.046"
     style="fill:#000000;fill-opacity:1;fill-rule:nonzero;stroke:none"
     id="path22826" />
  <path
     d="M 387.507 163.997 C 421.07 149.95 457.919 142.19 496.577 142.19 C 564.947 142.19 627.624 166.484 676.509 206.88 C 622.592 153.885 548.704 121.194 467.132 121.19 C 438.25 121.19 409.138 125.858 382.515 132.729 C 348.072 141.617 317.958 159.88 316.294 157.358 C 314.627 154.841 346.739 135.018 378.66 125.765 C 408.338 117.164 436.382 113.188 467.132 113.188 C 541.533 113.19 609.741 139.688 662.848 183.752 C 604.692 127.098 525.293 92.1905 437.687 92.1905 C 406.059 92.1905 375.502 96.7372 346.627 105.213 C 306.802 117.385 281.794 145.508 278.213 183.366 C 322.546 197.508 359.614 175.697 387.507 163.997"
     style="fill:#000000;fill-opacity:1;fill-rule:nonzero;stroke:none"
     id="path22830" />
  <path
     d="M 419.84 243.317 C 458.14 216.156 504.938 200.189 555.465 200.189 C 611.485 200.189 662.907 219.828 703.258 252.577 C 657.875 207.229 595.241 179.192 526.02 179.192 C 487.194 179.192 451.135 188.338 416.405 203.841 C 377.072 221.396 360.403 240.473 358.236 238.213 C 356.072 235.95 372.405 216.617 409.96 198.284 C 444.827 181.262 484.512 171.187 526.02 171.189 C 588.132 171.189 645.123 193.085 689.717 229.569 C 640.079 180.492 571.892 150.192 496.577 150.189 C 463.819 150.189 432.413 155.919 403.288 166.435 C 350.458 185.174 328.031 219.158 328.031 269.653 C 363.373 274.976 390.147 264.658 419.84 243.317"
     style="fill:#000000;fill-opacity:1;fill-rule:nonzero;stroke:none"
     id="path22834" />
  <path
     d="M 665.626 303.062 C 668.381 301.901 671.219 301.093 674.115 300.59 L 654.899 296.174 L 656.022 295.671 C 651.987 295.357 647.913 295.193 643.798 295.193 C 619.342 295.19 596.214 300.862 575.657 310.961 C 560.902 318.213 546.184 329.507 535.209 339.229 C 520.626 352.146 511.697 365.646 509.952 364.479 C 508.209 363.313 518.376 344.562 530.933 332.701 C 541.384 322.827 556.717 311.398 571.824 303.937 C 593.525 293.215 617.962 287.193 643.798 287.193 C 652.785 287.193 661.598 287.931 670.186 289.333 L 676.629 286.45 C 676.657 286.434 676.699 286.414 676.754 286.385 C 676.957 286.275 677.337 286.065 677.874 285.721 C 678.949 285.038 680.65 283.849 682.817 281.955 C 683.337 281.502 683.883 281.005 684.454 280.466 C 662.933 271.281 639.243 266.193 614.355 266.193 C 584.298 266.193 555.978 273.603 531.129 286.702 C 465.541 322.158 476.96 392.848 476.96 392.848 C 476.96 392.848 533.272 388.16 582.96 359.395 C 633.626 330.062 646.391 311.177 665.626 303.062"
     style="fill:#000000;fill-opacity:1;fill-rule:nonzero;stroke:none"
     id="path22838" />
  <path
     d="M 88.6705 200.872 C 101.113 196.859 116.129 194.012 127.345 194.32 C 154.72 195.065 165.96 203.203 165.96 203.203 C 165.96 203.203 157.233 174.752 167.686 144.856 C 174.326 125.854 201.368 108.555 219.105 97.6749 L 210.522 82.8096 C 159.488 113.075 118.485 153.896 88.6705 200.872"
     style="fill:#000000;fill-opacity:1;fill-rule:nonzero;stroke:none"
     id="path22842" />
  <path
     d="M 180.918 607.049 C 151.511 582.677 125.861 552.757 105.645 517.744 C 65.369 447.981 53.4023 369.643 66.173 296.028 C 45.025 380.31 55.3036 472.547 102.181 553.742 C 111.465 569.82 121.561 584.292 133.158 598.861 C 154.603 625.801 184.519 651.109 182.697 653.872 C 180.871 656.633 148.259 630.812 127.339 604.393 C 113.334 586.702 104.853 574.377 95.2515 557.744 C 30.653 445.855 33.9544 313.404 92.3529 208.077 C 91.9489 208.201 91.5329 208.321 91.1396 208.449 L 82.2782 211.307 C 17.7491 320.979 12.4651 461.276 80.6289 579.341 C 113.176 635.71 158.483 680.122 210.795 711.027 C 210.795 711.027 235.913 654.97 180.918 607.049"
     style="fill:#000000;fill-opacity:1;fill-rule:nonzero;stroke:none"
     id="path22846" />
  <path
     d="M 247.759 352.182 C 215.447 336.439 187.322 311.215 167.997 277.745 C 154.478 254.328 146.617 229.201 143.973 203.94 C 142.022 203.584 139.885 203.268 137.571 203 C 135.798 240.464 144.387 278.846 164.535 313.745 C 173.178 328.713 183.436 342.158 194.967 353.994 C 214.29 373.827 238.748 389.091 262.275 400.182 C 292.243 414.315 311.988 413.939 311.923 417.221 C 311.855 420.504 286.374 417.914 261.511 407.914 C 236.652 397.914 210.311 381.091 189.631 359.985 C 177.486 347.583 166.683 333.471 157.606 317.747 C 136.621 281.396 127.699 241.39 129.595 202.368 C 128.793 202.33 127.975 202.3 127.139 202.276 L 126.997 202.276 C 118.387 252.594 126.621 306.075 154.142 353.745 C 172.413 385.39 197.15 410.955 225.726 429.75 C 266.746 457.263 315.573 459.606 354.587 427.114 C 333.737 385.739 279.29 367.463 247.759 352.182"
     style="fill:#000000;fill-opacity:1;fill-rule:nonzero;stroke:none"
     id="path22850" />
  <path
     d="M 199.848 521.296 C 170.903 499.255 145.757 471.223 126.43 437.744 C 92.2443 378.534 81.9443 312.106 92.4869 249.573 C 73.5483 322.763 82.1816 403.099 122.966 473.744 C 137.408 498.757 156.007 521.635 175.267 541.255 C 200.187 566.64 231.056 583.588 229.708 586.288 C 228.359 588.99 195.137 571.093 171.163 548.075 C 148.876 526.673 131.408 504.375 116.034 477.744 C 78.835 413.31 67.679 340.991 79.2856 272.969 C 59.3017 351.66 68.7697 437.875 112.572 513.744 C 128.384 541.135 147.6 565.324 169.381 586.093 C 199.835 614.496 236.695 622.093 271.269 606.265 C 261.351 560.801 223.929 539.603 199.848 521.296"
     style="fill:#000000;fill-opacity:1;fill-rule:nonzero;stroke:none"
     id="path22854" />
  <path
     d="M 252.376 453.635 C 209.704 434.047 172.478 401.502 147.212 357.745 C 119.202 309.231 110.499 254.878 118.686 203.56 C 102.103 265.534 109.142 333.799 143.751 393.744 C 163.166 427.37 189.116 454.023 219.904 476.351 C 254.775 501.635 279.631 506.534 278.756 509.539 C 277.881 512.544 252.969 508.067 218.316 484.708 C 186.141 463.023 157.574 433.692 136.822 397.744 C 105.764 343.955 96.2337 283.651 105.53 226.789 C 87.8457 294.315 95.7017 368.518 133.355 433.744 C 149.736 462.114 170.4 486.447 194.069 506.414 C 236.715 542.796 277.357 545.223 321.086 519.976 C 308.027 486.708 285.704 468.682 252.376 453.635"
     style="fill:#000000;fill-opacity:1;fill-rule:nonzero;stroke:none"
     id="path22858" />
  <path
     d="M 181.223 210.908 C 178.84 209.101 176.72 207.047 174.838 204.791 L 180.622 223.64 L 179.624 222.919 C 181.368 226.569 183.264 230.181 185.322 233.744 C 197.548 254.924 214.023 272.119 233.048 284.872 C 246.704 294.025 263.848 301.124 277.751 305.768 C 296.231 311.938 312.387 312.921 312.249 315.014 C 312.108 317.108 290.788 317.678 274.236 312.736 C 260.46 308.618 242.898 301.053 228.882 291.705 C 208.747 278.269 191.311 260.119 178.392 237.744 C 173.9 229.963 170.135 221.96 167.054 213.82 L 161.335 209.681 C 161.308 209.665 161.27 209.64 161.218 209.605 C 161.02 209.487 160.647 209.263 160.083 208.971 C 158.955 208.38 157.072 207.501 154.348 206.572 C 153.696 206.348 152.991 206.121 152.242 205.897 C 155.046 229.129 162.483 252.189 174.928 273.744 C 189.958 299.774 210.535 320.593 234.307 335.564 C 297.804 374.637 353.313 329.402 353.313 329.402 C 353.313 329.402 321.097 282.978 271.343 254.332 C 220.606 225.119 197.866 223.507 181.223 210.908"
     style="fill:#000000;fill-opacity:1;fill-rule:nonzero;stroke:none"
     id="path22862" />
  <path
     d="M 381.202 761.661 C 371.505 752.89 361.533 741.309 356.189 731.442 C 343.147 707.364 344.574 693.56 344.574 693.56 C 344.574 693.56 324.301 715.341 293.184 721.24 C 273.405 724.989 244.902 710.218 226.612 700.3 L 218.03 715.164 C 269.76 744.229 325.611 759.328 381.202 761.661"
     style="fill:#000000;fill-opacity:1;fill-rule:nonzero;stroke:none"
     id="path22866" />
  <path
     d="M 686.837 478.682 C 680.433 516.335 667.348 553.51 647.134 588.523 C 606.856 658.286 544.996 707.817 474.859 733.564 C 558.42 709.739 633.16 654.718 680.04 573.526 C 689.321 557.444 696.809 541.466 703.626 524.138 C 716.236 492.097 723.194 453.534 726.498 453.731 C 729.801 453.931 723.746 495.086 711.324 526.411 C 703.006 547.384 696.574 560.892 686.973 577.526 C 622.37 689.413 506.015 752.78 385.6 754.869 C 385.908 755.155 386.22 755.457 386.528 755.733 L 393.436 761.979 C 520.676 763.025 644.821 697.455 712.985 579.387 C 745.53 523.018 761.337 461.575 761.946 400.818 C 761.946 400.818 700.842 407.094 686.837 478.682"
     style="fill:#000000;fill-opacity:1;fill-rule:nonzero;stroke:none"
     id="path22870" />
  <path
     d="M 432.694 548.231 C 435.218 584.086 427.437 621.053 408.113 654.525 C 394.593 677.941 376.762 697.315 356.208 712.233 C 356.874 714.097 357.67 716.111 358.596 718.247 C 391.926 701.051 420.871 674.421 441.019 639.523 C 449.661 624.553 456.175 608.947 460.661 593.043 C 468.175 566.392 469.163 537.578 467.006 511.658 C 464.262 478.641 454.063 461.726 456.939 460.143 C 459.817 458.559 470.314 481.924 474.085 508.452 C 477.853 534.983 476.457 566.207 468.514 594.668 C 463.85 611.387 457.027 627.799 447.949 643.523 C 426.962 679.871 396.777 707.6 362.036 725.471 C 362.402 726.184 362.785 726.905 363.184 727.643 C 363.205 727.681 363.23 727.725 363.254 727.767 C 411.137 710.061 453.334 676.192 480.858 628.523 C 499.126 596.876 508.899 562.671 510.887 528.528 C 514.204 479.247 491.822 435.789 444.175 418.247 C 418.767 456.991 430.163 513.283 432.694 548.231"
     style="fill:#000000;fill-opacity:1;fill-rule:nonzero;stroke:none"
     id="path22874" />
  <path
     d="M 603.108 505.164 C 598.493 541.252 586.791 577.046 567.46 610.525 C 533.275 669.734 480.895 711.866 421.47 734.007 C 494.322 713.809 559.58 666.166 600.368 595.525 C 614.811 570.511 625.321 542.967 632.684 516.473 C 642.207 482.2 641.449 446.992 644.465 446.809 C 647.48 446.628 648.589 484.347 640.641 516.62 C 633.251 546.62 622.673 572.896 607.299 599.525 C 570.095 663.958 513.046 709.778 448.33 733.739 C 526.472 711.699 596.403 660.393 640.207 584.524 C 656.02 557.136 667.36 528.399 674.457 499.151 C 683.829 458.576 671.977 422.858 640.983 400.828 C 606.569 432.151 606.923 475.159 603.108 505.164"
     style="fill:#000000;fill-opacity:1;fill-rule:nonzero;stroke:none"
     id="path22878" />
  <path
     d="M 518.249 493.505 C 522.621 540.256 513.052 588.765 487.785 632.523 C 459.777 681.038 417.059 715.755 368.52 734.322 C 430.484 717.695 486.085 677.469 520.694 617.523 C 540.106 583.898 550.216 548.096 554.156 510.268 C 558.618 467.426 550.432 443.453 553.473 442.708 C 556.512 441.964 565.09 465.776 562.189 507.466 C 559.497 546.172 548.38 585.578 527.624 621.523 C 496.566 675.314 449.109 713.72 395.219 734.1 C 462.538 715.652 522.872 671.747 560.533 606.526 C 576.91 578.155 587.653 548.093 593.109 517.612 C 603.295 462.489 585.074 426.076 541.345 400.828 C 519.064 428.773 514.613 457.12 518.249 493.505"
     style="fill:#000000;fill-opacity:1;fill-rule:nonzero;stroke:none"
     id="path22882" />
  <path
     d="M 343.616 676.489 C 343.244 679.456 342.525 682.32 341.512 685.077 L 354.944 670.645 L 354.819 671.869 C 357.108 668.533 359.288 665.085 361.345 661.52 C 373.575 640.344 380.228 617.478 381.759 594.628 C 382.859 578.221 380.433 559.828 377.504 545.463 C 373.608 526.375 366.381 511.891 368.264 510.963 C 370.147 510.039 381.301 528.219 385.296 545.023 C 388.619 559.013 390.851 578.005 389.759 594.817 C 388.195 618.97 381.192 643.148 368.272 665.522 C 363.78 673.304 358.733 680.565 353.225 687.304 L 352.499 694.325 C 352.499 694.356 352.496 694.404 352.493 694.465 C 352.488 694.694 352.48 695.129 352.512 695.765 C 352.561 697.038 352.744 699.109 353.301 701.932 C 353.431 702.606 353.589 703.333 353.769 704.093 C 372.485 690.049 388.736 672.077 401.181 650.522 C 416.212 624.492 423.952 596.263 425.03 568.189 C 427.121 493.661 360.192 468.206 360.192 468.206 C 360.192 468.206 336.095 519.32 336.163 576.732 C 336.233 635.278 346.207 655.776 343.616 676.489"
     style="fill:#000000;fill-opacity:1;fill-rule:nonzero;stroke:none"
     id="path22886" />
</svg>
