<?xml version="1.0" encoding="UTF-8" standalone="no"?>
<!-- Created with Inkscape (http://www.inkscape.org/) -->

<svg
   version="1.1"
   id="svg60530"
   width="793.70135"
   height="793.70135"
   viewBox="0 0 793.70135 793.70135"
   sodipodi:docname="Katsura Kogoro.svg"
   inkscape:version="1.2 (dc2aeda, 2022-05-15)"
   xmlns:inkscape="http://www.inkscape.org/namespaces/inkscape"
   xmlns:sodipodi="http://sodipodi.sourceforge.net/DTD/sodipodi-0.dtd"
   xmlns="http://www.w3.org/2000/svg"
   xmlns:svg="http://www.w3.org/2000/svg">
  <defs
     id="defs60534">
    <clipPath
       clipPathUnits="userSpaceOnUse"
       id="clipPath61248">
      <path
         d="m -316.499,275.1598 h 595.276 v -595.276 h -595.276 z"
         id="path61250"
         style="stroke-width:0.999998" />
    </clipPath>
    <clipPath
       clipPathUnits="userSpaceOnUse"
       id="clipPath61254">
      <path
         d="m -388.5732,230.0485 h 595.276 v -595.276 h -595.276 z"
         id="path61256"
         style="stroke-width:0.999998" />
    </clipPath>
    <clipPath
       clipPathUnits="userSpaceOnUse"
       id="clipPath61260">
      <path
         d="m -297.6377,268.2955 h 595.276 v -595.276 h -595.276 z"
         id="path61262"
         style="stroke-width:0.999998" />
    </clipPath>
    <clipPath
       clipPathUnits="userSpaceOnUse"
       id="clipPath61266">
      <path
         d="m -307.6758,270.0582 h 595.276 v -595.276 h -595.276 z"
         id="path61268"
         style="stroke-width:0.999998" />
    </clipPath>
    <clipPath
       clipPathUnits="userSpaceOnUse"
       id="clipPath61272">
      <path
         d="m -297.6377,480.9459 h 595.276 v -595.276 h -595.276 z"
         id="path61274"
         style="stroke-width:0.999998" />
    </clipPath>
    <clipPath
       clipPathUnits="userSpaceOnUse"
       id="clipPath61278">
      <path
         d="m -382.8125,365.6774 h 595.276 v -595.276 h -595.276 z"
         id="path61280"
         style="stroke-width:0.999998" />
    </clipPath>
    <clipPath
       clipPathUnits="userSpaceOnUse"
       id="clipPath61284">
      <path
         d="M -544.4785,297.6393 H 50.797497 v -595.276 H -544.4785 Z"
         id="path61286"
         style="stroke-width:0.999998" />
    </clipPath>
    <clipPath
       clipPathUnits="userSpaceOnUse"
       id="clipPath61290">
      <path
         d="M -531.1924,581.5885 H 64.083597 V -13.6875 H -531.1924 Z"
         id="path61292"
         style="stroke-width:0.999998" />
    </clipPath>
    <clipPath
       clipPathUnits="userSpaceOnUse"
       id="clipPath61296">
      <path
         d="M -528.0898,575.3815 H 67.186197 V -19.8945 H -528.0898 Z"
         id="path61298"
         style="stroke-width:0.999998" />
    </clipPath>
    <clipPath
       clipPathUnits="userSpaceOnUse"
       id="clipPath61302">
      <path
         d="M -536.6982,584.5729 H 58.577797 V -10.7031 H -536.6982 Z"
         id="path61304"
         style="stroke-width:0.999998" />
    </clipPath>
    <clipPath
       clipPathUnits="userSpaceOnUse"
       id="clipPath61308">
      <path
         d="M -540.8213,585.8483 H 54.454697 V -9.4277 H -540.8213 Z"
         id="path61310"
         style="stroke-width:0.999998" />
    </clipPath>
    <clipPath
       clipPathUnits="userSpaceOnUse"
       id="clipPath61314">
      <path
         d="M -542.9326,584.5729 H 52.343397 V -10.7031 H -542.9326 Z"
         id="path61316"
         style="stroke-width:0.999998" />
    </clipPath>
    <clipPath
       clipPathUnits="userSpaceOnUse"
       id="clipPath61320">
      <path
         d="M -545.417,584.5729 H 49.858997 V -10.7031 H -545.417 Z"
         id="path61322"
         style="stroke-width:0.999998" />
    </clipPath>
    <clipPath
       clipPathUnits="userSpaceOnUse"
       id="clipPath61326">
      <path
         d="M -548.9834,585.8522 H 46.292597 V -9.4238 H -548.9834 Z"
         id="path61328"
         style="stroke-width:0.999998" />
    </clipPath>
    <clipPath
       clipPathUnits="userSpaceOnUse"
       id="clipPath61332">
      <path
         d="M -553.8975,585.8483 H 41.378497 V -9.4277 H -553.8975 Z"
         id="path61334"
         style="stroke-width:0.999998" />
    </clipPath>
    <clipPath
       clipPathUnits="userSpaceOnUse"
       id="clipPath61338">
      <path
         d="M -557.0645,585.8483 H 38.211497 V -9.4277 H -557.0645 Z"
         id="path61340"
         style="stroke-width:0.999998" />
    </clipPath>
    <clipPath
       clipPathUnits="userSpaceOnUse"
       id="clipPath61344">
      <path
         d="M -561.4131,585.8522 H 33.862897 V -9.4238 H -561.4131 Z"
         id="path61346"
         style="stroke-width:0.999998" />
    </clipPath>
    <clipPath
       clipPathUnits="userSpaceOnUse"
       id="clipPath61350">
      <path
         d="M -564.5732,585.8483 H 30.702797 V -9.4277 H -564.5732 Z"
         id="path61352"
         style="stroke-width:0.999998" />
    </clipPath>
    <clipPath
       clipPathUnits="userSpaceOnUse"
       id="clipPath61356">
      <path
         d="M -567.7754,585.8522 H 27.500597 V -9.4238 H -567.7754 Z"
         id="path61358"
         style="stroke-width:0.999998" />
    </clipPath>
    <clipPath
       clipPathUnits="userSpaceOnUse"
       id="clipPath61363">
      <path
         d="M -572.8174,586.1354 H 22.458597 V -9.1406 H -572.8174 Z"
         id="path61365"
         style="stroke-width:0.999998" />
    </clipPath>
    <clipPath
       clipPathUnits="userSpaceOnUse"
       id="clipPath61369">
      <path
         d="M -574.5459,585.8522 H 20.730097 V -9.4238 H -574.5459 Z"
         id="path61371"
         style="stroke-width:0.999998" />
    </clipPath>
    <clipPath
       clipPathUnits="userSpaceOnUse"
       id="clipPath61375">
      <path
         d="M -576.3691,585.5885 H 18.906897 V -9.6875 H -576.3691 Z"
         id="path61377"
         style="stroke-width:0.999998" />
    </clipPath>
    <clipPath
       clipPathUnits="userSpaceOnUse"
       id="clipPath61381">
      <path
         d="M -557.4951,577.8502 H 37.780897 V -17.4258 H -557.4951 Z"
         id="path61383"
         style="stroke-width:0.999998" />
    </clipPath>
    <clipPath
       clipPathUnits="userSpaceOnUse"
       id="clipPath61387">
      <path
         d="M -568.2266,575.819 H 27.049397 V -19.457 H -568.2266 Z"
         id="path61389"
         style="stroke-width:0.999998" />
    </clipPath>
    <clipPath
       clipPathUnits="userSpaceOnUse"
       id="clipPath61393">
      <path
         d="M -550.2637,577.3248 H 45.012297 V -17.9512 H -550.2637 Z"
         id="path61395"
         style="stroke-width:0.999998" />
    </clipPath>
    <clipPath
       clipPathUnits="userSpaceOnUse"
       id="clipPath61400">
      <path
         d="M -556.4014,578.0143 H 38.874597 V -17.2617 H -556.4014 Z"
         id="path61402"
         style="stroke-width:0.999998" />
    </clipPath>
    <clipPath
       clipPathUnits="userSpaceOnUse"
       id="clipPath61406">
      <path
         d="M -586.5449,579.5026 H 8.7310974 V -15.7734 H -586.5449 Z"
         id="path61408"
         style="stroke-width:0.999998" />
    </clipPath>
    <clipPath
       clipPathUnits="userSpaceOnUse"
       id="clipPath61412">
      <path
         d="M -584.1943,578.9381 H 11.081697 V -16.3379 H -584.1943 Z"
         id="path61414"
         style="stroke-width:0.999998" />
    </clipPath>
    <clipPath
       clipPathUnits="userSpaceOnUse"
       id="clipPath61418">
      <path
         d="M -538.2217,577.9479 H 57.054297 V -17.3281 H -538.2217 Z"
         id="path61420"
         style="stroke-width:0.999998" />
    </clipPath>
    <clipPath
       clipPathUnits="userSpaceOnUse"
       id="clipPath61424">
      <path
         d="m -287.5996,325.2203 h 595.276 v -595.276 h -595.276 z"
         id="path61426"
         style="stroke-width:0.999998" />
    </clipPath>
    <clipPath
       clipPathUnits="userSpaceOnUse"
       id="clipPath61430">
      <path
         d="m -278.7764,320.1188 h 595.276 v -595.276 h -595.276 z"
         id="path61432"
         style="stroke-width:0.999998" />
    </clipPath>
    <clipPath
       clipPathUnits="userSpaceOnUse"
       id="clipPath61437">
      <path
         d="m -280.75,273.6383 h 595.276 v -595.276 H -280.75 Z"
         id="path61439"
         style="stroke-width:0.999998" />
    </clipPath>
    <clipPath
       clipPathUnits="userSpaceOnUse"
       id="clipPath61443">
      <path
         d="m -212.4629,229.6012 h 595.276 v -595.276 h -595.276 z"
         id="path61445"
         style="stroke-width:0.999998" />
    </clipPath>
    <clipPath
       clipPathUnits="userSpaceOnUse"
       id="clipPath61449">
      <path
         d="m -50.7969,297.6393 h 595.276 v -595.276 h -595.276 z"
         id="path61451"
         style="stroke-width:0.999998" />
    </clipPath>
    <clipPath
       clipPathUnits="userSpaceOnUse"
       id="clipPath61455">
      <path
         d="m -206.7021,365.2301 h 595.276 v -595.276 h -595.276 z"
         id="path61457"
         style="stroke-width:0.999998" />
    </clipPath>
    <clipPath
       clipPathUnits="userSpaceOnUse"
       id="clipPath61461">
      <path
         d="m -297.6377,321.7321 h 595.276 v -595.276 h -595.276 z"
         id="path61463"
         style="stroke-width:0.999998" />
    </clipPath>
  </defs>
  <sodipodi:namedview
     id="namedview60532"
     pagecolor="#ffffff"
     bordercolor="#000000"
     borderopacity="0.25"
     inkscape:showpageshadow="2"
     inkscape:pageopacity="0.0"
     inkscape:pagecheckerboard="0"
     inkscape:deskcolor="#d1d1d1"
     showgrid="false"
     inkscape:zoom="0.29734106"
     inkscape:cx="-215.24105"
     inkscape:cy="396.85068"
     inkscape:window-width="1419"
     inkscape:window-height="456"
     inkscape:window-x="0"
     inkscape:window-y="25"
     inkscape:window-maximized="0"
     inkscape:current-layer="svg60530">
    <inkscape:page
       x="0"
       y="0"
       id="page60536"
       width="793.70135"
       height="793.70135" />
  </sodipodi:namedview>
  <path
     d="m 383.466,433.627 c -1.047,-0.38 -2.071,-0.806 -3.074,-1.27 l -77.335,133.909 c -0.886,1.53 -1.666,3.149 -2.29,4.866 -5.798,15.926 2.411,33.531 18.338,39.328 15.922,5.796 33.53,-2.415 39.326,-18.34 0.613,-1.684 1.047,-3.389 1.353,-5.094 l 26.85,-152.396 c -1.076,-0.292 -2.132,-0.625 -3.168,-1.003"
     style="fill:#000000;fill-opacity:1;fill-rule:nonzero;stroke:none"
     id="path60650" />
  <path
     d="m 371.7,426.826 c -0.849,-0.713 -1.668,-1.464 -2.452,-2.245 l -116.406,97.638 c -1.276,1.084 -2.493,2.267 -3.605,3.592 -10.718,12.771 -9.052,31.811 3.72,42.527 12.77,10.714 31.81,9.05 42.526,-3.722 1.006,-1.198 1.894,-2.488 2.682,-3.784 l 76.167,-131.978 c -0.906,-0.637 -1.784,-1.316 -2.632,-2.028"
     style="fill:#000000;fill-opacity:1;fill-rule:nonzero;stroke:none"
     id="path60654" />
  <path
     d="m 290.942,473.456 v 0.001 z"
     style="fill:#000000;fill-opacity:1;fill-rule:nonzero;stroke:none"
     id="path60658" />
  <path
     d="M 374.332,364.851 298.165,232.874 c -0.788,-1.296 -1.676,-2.586 -2.682,-3.784 -10.716,-12.772 -29.756,-14.437 -42.525,-3.722 -12.772,10.716 -14.437,29.756 -3.72,42.526 1.112,1.326 2.329,2.508 3.605,3.594 l 116.405,97.637 c 0.784,-0.782 1.604,-1.531 2.452,-2.246 0.848,-0.712 1.726,-1.389 2.632,-2.028 m 12.302,-5.776 -26.85,-152.395 c -0.308,-1.706 -0.741,-3.412 -1.354,-5.096 -5.795,-15.925 -23.403,-24.135 -39.327,-18.339 -15.925,5.796 -24.134,23.403 -18.337,39.328 0.625,1.717 1.405,3.336 2.291,4.867 l 77.335,133.909 c 1.003,-0.464 2.026,-0.891 3.074,-1.271 1.036,-0.377 2.092,-0.711 3.168,-1.003"
     style="fill:#000000;fill-opacity:1;fill-rule:nonzero;stroke:none"
     id="path60662" />
  <path
     d="m 283.283,306.136 -39.725,-33.331 c -1.38,-1.159 -2.884,-2.209 -4.499,-3.141 -14.948,-8.632 -34.062,-3.51 -42.693,11.438 -3.218,5.575 -4.522,11.73 -4.12,17.703 5.927,-1.281 12.059,-1.859 18.369,-1.828 v 0 c 17.794,-0.003 34.511,4.831 48.832,13.252 3.483,-1.107 9.347,-2.711 16.155,-3.497 2.896,-0.328 5.465,-0.51 7.681,-0.596"
     style="fill:#000000;fill-opacity:1;fill-rule:nonzero;stroke:none"
     id="path60666" />
  <path
     d="m 67.729,396.853 v 0 c 0,1.936 15.9987,3.504 38.665,3.504 22.667,0 94.832,-0.002 94.832,-0.002 -0.412,0.983 -0.969,2.076 -1.695,3.211 -1.828,2.913 -4.636,6.171 -8.33,9.169 -7.407,6.011 -17.599,10.404 -32.084,11.019 -36.333,1.54 -57.667,0 -57.667,2.373 0,2.374 19.334,4.627 57.5,4.627 22.335,0 39.699,-12.651 46.509,-23.465 1.483,-2.395 2.575,-4.692 3.162,-6.932 h 54.108 c -1.875,8.201 -10.51,18.938 -24.898,27.626 -16.448,10.054 -37.881,17.811 -67.381,18.811 -9.825,0.333 -33,-0.6 -33,1.333 0,1.935 20.333,4.502 32.499,4.502 31.001,0 53.9,-7.91 71.532,-18.672 15.952,-9.85 26.406,-21.852 28.321,-33.6 l 53.461,-0.002 c -0.9,3.403 -2.999,7.975 -6.435,12.9 -4.797,6.956 -12.102,14.76 -21.874,22.034 -16.584,12.329 -43.66,24.109 -70.996,26.175 -13.175,0.996 -29.175,2.051 -29.175,3.496 0,1.446 14.835,4.946 29.367,3.514 51.24,-4.88 84.184,-30.593 98.441,-51.245 4.236,-6.199 6.921,-11.88 7.837,-16.872 h 27.451 c 0.621,6.976 3.071,13.425 6.868,18.864 l -72.92,61.179 c 0,0 -5.655,0.727 -15.433,-0.385 -9.779,-1.111 -17.791,-4.229 -17.791,-4.229 -13.868,8.828 -30.33,13.942 -47.988,13.942 -17.874,0 -33.025,-4.768 -46.998,-17.268 -49.5,5.667 -72.5,-25.833 -75.0134,-36.709 -31.4105,0 -56.8758,-28.401 -56.8758,-38.898 0,-10.498 25.4653,-38.899 56.8758,-38.899 2.5134,-10.876 25.5134,-42.376 75.0134,-36.709 13.973,-12.5 29.124,-17.269 46.998,-17.269 17.658,0 34.12,5.114 47.988,13.942 0,0 8.012,-3.117 17.791,-4.229 9.778,-1.111 15.433,-0.384 15.433,-0.384 l 72.92,61.18 c -3.797,5.438 -6.247,11.888 -6.868,18.864 h -27.451 c -0.916,-4.992 -3.601,-10.674 -7.837,-16.872 -14.257,-20.652 -47.201,-46.366 -98.441,-51.245 -14.532,-1.432 -29.367,2.067 -29.367,3.513 0,1.445 16,2.5 29.175,3.496 27.336,2.066 54.412,13.846 70.996,26.176 9.772,7.273 17.077,15.077 21.874,22.033 3.436,4.925 5.535,9.497 6.435,12.9 l -53.461,-0.001 c -1.915,-11.748 -12.369,-23.751 -28.321,-33.6 -17.632,-10.763 -40.531,-18.672 -71.532,-18.672 -12.166,0 -32.499,2.566 -32.499,4.501 0,1.933 23.175,1 33,1.333 29.5,1 50.933,8.758 67.381,18.811 14.388,8.688 23.023,19.425 24.898,27.627 h -54.108 c -0.587,-2.24 -1.679,-4.538 -3.162,-6.932 -6.81,-10.815 -24.174,-23.466 -46.509,-23.466 -38.166,0 -57.5,2.254 -57.5,4.627 0,2.373 21.334,0.833 57.667,2.373 14.485,0.615 24.677,5.008 32.084,11.019 3.694,2.999 6.502,6.256 8.33,9.169 0.726,1.135 1.283,2.228 1.695,3.211 0,0 -72.165,-0.001 -94.832,-0.001 -22.6663,0 -38.665,1.568 -38.665,3.504"
     style="fill:#000000;fill-opacity:1;fill-rule:nonzero;stroke:none"
     id="path60670" />
  <path
     d="m 275.602,486.974 v 0 c -6.808,-0.787 -12.672,-2.391 -16.155,-3.498 -14.321,8.422 -31.04,13.255 -48.832,13.252 -6.312,0.031 -12.442,-0.546 -18.37,-1.828 -0.401,5.974 0.903,12.128 4.121,17.704 8.631,14.948 27.745,20.07 42.693,11.438 1.615,-0.932 3.119,-1.983 4.499,-3.142 l 39.725,-33.33 c -2.216,-0.087 -4.785,-0.268 -7.681,-0.596"
     style="fill:#000000;fill-opacity:1;fill-rule:nonzero;stroke:none"
     id="path60674" />
  <path
     d="m 396.85,428.977 c -17.742,0 -32.123,-14.383 -32.123,-32.124 0,-17.742 14.381,-32.124 32.123,-32.124 17.741,0 32.122,14.384 32.122,32.124 0,17.742 -14.381,32.124 -32.122,32.124"
     style="fill:#000000;fill-opacity:1;fill-rule:nonzero;stroke:none"
     id="path60678" />
  <path
     d="m 396.85,357.727 v 0 c -1.119,0 -2.228,0.044 -3.322,0.138 L 364.379,192.548 c -0.473,-2.231 -0.721,-4.54 -0.721,-6.911 0,-18.333 14.858,-33.193 33.192,-33.193 18.333,0 33.192,14.861 33.192,33.193 0,2.372 -0.248,4.68 -0.722,6.911 l -29.149,165.317 c -1.093,-0.094 -2.203,-0.138 -3.321,-0.138"
     style="fill:#000000;fill-opacity:1;fill-rule:nonzero;stroke:none"
     id="path60682" />
  <path
     d="m 410.234,360.078 c 1.046,0.38 2.07,0.807 3.073,1.271 L 490.643,227.44 c 0.885,-1.531 1.665,-3.15 2.289,-4.867 5.799,-15.925 -2.411,-33.53 -18.337,-39.328 -15.923,-5.796 -33.531,2.415 -39.327,18.34 -0.613,1.684 -1.046,3.389 -1.353,5.095 l -26.849,152.395 c 1.076,0.292 2.132,0.626 3.168,1.003"
     style="fill:#000000;fill-opacity:1;fill-rule:nonzero;stroke:none"
     id="path60686" />
  <path
     d="m 421.998,366.881 c 0.849,0.713 1.668,1.464 2.452,2.245 l 116.406,-97.638 c 1.276,-1.084 2.493,-2.267 3.605,-3.592 10.718,-12.771 9.052,-31.811 -3.72,-42.527 -12.77,-10.715 -31.81,-9.051 -42.526,3.721 -1.006,1.199 -1.894,2.488 -2.682,3.784 l -76.167,131.979 c 0.906,0.637 1.784,1.316 2.632,2.028"
     style="fill:#000000;fill-opacity:1;fill-rule:nonzero;stroke:none"
     id="path60690" />
  <path
     d="m 502.757,320.25 v -0.001 z"
     style="fill:#000000;fill-opacity:1;fill-rule:nonzero;stroke:none"
     id="path60694" />
  <path
     d="m 396.85,641.261 c -18.334,0 -33.192,-14.861 -33.192,-33.193 0,-2.372 0.248,-4.68 0.721,-6.911 l 29.149,-165.315 c 1.094,0.092 2.203,0.136 3.322,0.136 1.118,0 2.228,-0.044 3.321,-0.136 l 29.149,165.315 c 0.474,2.231 0.722,4.54 0.722,6.911 0,18.332 -14.859,33.193 -33.192,33.193 m 22.517,-212.407 76.168,131.978 c 0.786,1.295 1.676,2.587 2.68,3.784 10.717,12.772 29.757,14.436 42.526,3.723 12.772,-10.716 14.438,-29.756 3.72,-42.528 -1.112,-1.324 -2.329,-2.508 -3.605,-3.592 L 424.45,424.581 c -0.784,0.781 -1.603,1.532 -2.452,2.245 -0.847,0.712 -1.726,1.391 -2.631,2.028 m -12.301,5.776 26.849,152.396 c 0.307,1.706 0.74,3.412 1.353,5.097 5.796,15.924 23.404,24.134 39.328,18.337 15.925,-5.796 24.135,-23.401 18.337,-39.328 -0.625,-1.717 -1.405,-3.336 -2.29,-4.866 L 413.307,432.357 c -1.003,0.464 -2.027,0.89 -3.073,1.27 -1.036,0.379 -2.092,0.712 -3.168,1.003"
     style="fill:#000000;fill-opacity:1;fill-rule:nonzero;stroke:none"
     id="path60698" />
  <path
     d="m 510.415,487.57 39.725,33.33 c 1.38,1.159 2.884,2.208 4.499,3.142 14.948,8.632 34.062,3.509 42.693,-11.439 3.218,-5.575 4.522,-11.729 4.12,-17.703 -5.927,1.282 -12.059,1.859 -18.369,1.828 -17.794,0.003 -34.511,-4.83 -48.832,-13.252 -3.483,1.107 -9.347,2.711 -16.155,3.498 -2.896,0.328 -5.465,0.509 -7.681,0.596"
     style="fill:#000000;fill-opacity:1;fill-rule:nonzero;stroke:none"
     id="path60702" />
  <path
     d="m 725.97,396.853 v 0 c 0,-1.936 -15.998,-3.504 -38.665,-3.504 -22.667,0 -94.832,0.001 -94.832,0.001 0.412,-0.983 0.97,-2.076 1.695,-3.211 1.828,-2.913 4.636,-6.17 8.33,-9.169 7.407,-6.011 17.599,-10.404 32.084,-11.019 36.334,-1.54 57.667,0 57.667,-2.373 0,-2.373 -19.333,-4.627 -57.5,-4.627 -22.335,0 -39.698,12.651 -46.509,23.466 -1.483,2.394 -2.575,4.692 -3.161,6.932 h -54.108 c 1.874,-8.202 10.509,-18.939 24.897,-27.627 16.448,-10.053 37.881,-17.811 67.381,-18.811 9.825,-0.333 33,0.6 33,-1.333 0,-1.935 -20.333,-4.501 -32.499,-4.501 -31.001,0 -53.899,7.909 -71.531,18.672 -15.952,9.849 -26.407,21.852 -28.322,33.6 l -53.461,0.001 c 0.9,-3.403 2.999,-7.975 6.435,-12.9 4.797,-6.956 12.102,-14.76 21.874,-22.033 16.584,-12.33 43.66,-24.11 70.996,-26.176 13.175,-0.996 29.175,-2.051 29.175,-3.496 0,-1.446 -14.835,-4.945 -29.367,-3.513 -51.24,4.879 -84.184,30.593 -98.441,51.245 -4.236,6.198 -6.921,11.88 -7.837,16.872 H 435.82 c -0.621,-6.976 -3.07,-13.426 -6.868,-18.864 l 72.92,-61.18 c 0,0 5.655,-0.727 15.433,0.385 9.779,1.111 17.791,4.23 17.791,4.23 13.868,-8.828 30.331,-13.943 47.988,-13.943 17.874,0 33.025,4.768 46.998,17.268 49.5,-5.667 72.5,25.833 75.014,36.709 31.41,0 56.875,28.401 56.875,38.899 0,10.497 -25.465,38.898 -56.875,38.898 -2.514,10.876 -25.514,42.376 -75.014,36.709 -13.973,12.5 -29.124,17.268 -46.998,17.268 -17.657,0 -34.12,-5.114 -47.988,-13.942 0,0 -8.012,3.118 -17.791,4.229 -9.778,1.112 -15.433,0.385 -15.433,0.385 l -72.92,-61.179 c 3.798,-5.439 6.247,-11.888 6.868,-18.864 h 27.451 c 0.916,4.992 3.601,10.673 7.837,16.872 14.257,20.652 47.201,46.365 98.441,51.245 14.532,1.432 29.367,-2.068 29.367,-3.514 0,-1.445 -16,-2.5 -29.175,-3.496 -27.336,-2.066 -54.412,-13.846 -70.996,-26.175 -9.772,-7.274 -17.077,-15.078 -21.874,-22.034 -3.436,-4.925 -5.535,-9.497 -6.435,-12.9 l 53.461,0.002 c 1.915,11.748 12.37,23.75 28.322,33.6 17.632,10.762 40.53,18.672 71.531,18.672 12.166,0 32.499,-2.567 32.499,-4.502 0,-1.933 -23.175,-1 -33,-1.333 -29.5,-1 -50.933,-8.757 -67.381,-18.811 -14.388,-8.688 -23.023,-19.425 -24.897,-27.626 h 54.108 c 0.586,2.24 1.678,4.537 3.161,6.932 6.811,10.814 24.174,23.465 46.509,23.465 38.167,0 57.5,-2.253 57.5,-4.627 0,-2.373 -21.333,-0.833 -57.667,-2.373 -14.485,-0.615 -24.677,-5.008 -32.084,-11.019 -3.694,-2.998 -6.502,-6.256 -8.33,-9.169 -0.725,-1.135 -1.283,-2.228 -1.695,-3.211 0,0 72.165,0.002 94.832,0.002 22.667,0 38.665,-1.568 38.665,-3.504"
     style="fill:#000000;fill-opacity:1;fill-rule:nonzero;stroke:none"
     id="path60706" />
  <path
     d="m 518.096,306.732 v 0 c 6.808,0.786 12.672,2.39 16.155,3.497 14.321,-8.421 31.04,-13.255 48.832,-13.252 6.312,-0.031 12.442,0.547 18.37,1.828 0.401,-5.973 -0.903,-12.128 -4.121,-17.704 -8.631,-14.948 -27.745,-20.069 -42.693,-11.437 -1.615,0.932 -3.119,1.982 -4.499,3.141 l -39.725,33.331 c 2.216,0.086 4.785,0.268 7.681,0.596"
     style="fill:#000000;fill-opacity:1;fill-rule:nonzero;stroke:none"
     id="path60710" />
</svg>
