<?xml version="1.0" encoding="UTF-8" standalone="no"?>
<!-- Created with Inkscape (http://www.inkscape.org/) -->

<svg
   version="1.1"
   id="svg61794"
   width="795.03467"
   height="793.70135"
   viewBox="0 0 795.03467 793.70135"
   sodipodi:docname="Kumiawase Kakuni Kikyou.svg"
   inkscape:version="1.2 (dc2aeda, 2022-05-15)"
   xmlns:inkscape="http://www.inkscape.org/namespaces/inkscape"
   xmlns:sodipodi="http://sodipodi.sourceforge.net/DTD/sodipodi-0.dtd"
   xmlns="http://www.w3.org/2000/svg"
   xmlns:svg="http://www.w3.org/2000/svg">
  <defs
     id="defs61798">
    <clipPath
       clipPathUnits="userSpaceOnUse"
       id="clipPath62485">
      <path
         d="m -103.9844,385.0397 h 596.276 v -595.276 h -596.276 z"
         id="path62487"
         style="stroke-width:0.999998" />
    </clipPath>
    <clipPath
       clipPathUnits="userSpaceOnUse"
       id="clipPath62491">
      <path
         d="m -439.4531,429.6598 h 596.276 v -595.276 h -596.276 z"
         id="path62493"
         style="stroke-width:0.999998" />
    </clipPath>
    <clipPath
       clipPathUnits="userSpaceOnUse"
       id="clipPath62497">
      <path
         d="m -429.6523,155.8131 h 596.276 v -595.276 h -596.276 z"
         id="path62499"
         style="stroke-width:0.999998" />
    </clipPath>
    <clipPath
       clipPathUnits="userSpaceOnUse"
       id="clipPath62503">
      <path
         d="m -491.2646,210.2174 h 596.276 v -595.276 h -596.276 z"
         id="path62505"
         style="stroke-width:0.999998" />
    </clipPath>
    <clipPath
       clipPathUnits="userSpaceOnUse"
       id="clipPath62509">
      <path
         d="m -309.6318,278.0773 h 596.276 v -595.276 h -596.276 z"
         id="path62511"
         style="stroke-width:0.999998" />
    </clipPath>
    <clipPath
       clipPathUnits="userSpaceOnUse"
       id="clipPath62515">
      <path
         d="m -281.9639,281.1002 h 596.276 v -595.276 h -596.276 z"
         id="path62517"
         style="stroke-width:0.999998" />
    </clipPath>
    <clipPath
       clipPathUnits="userSpaceOnUse"
       id="clipPath62521">
      <path
         d="m -276.2896,308.3463 h 596.276 v -595.276 h -596.276 z"
         id="path62523"
         style="stroke-width:0.999998" />
    </clipPath>
    <clipPath
       clipPathUnits="userSpaceOnUse"
       id="clipPath62527">
      <path
         d="m -300.4453,322.1637 h 596.276 v -595.276 h -596.276 z"
         id="path62529"
         style="stroke-width:0.999998" />
    </clipPath>
    <clipPath
       clipPathUnits="userSpaceOnUse"
       id="clipPath62533">
      <path
         d="m -321.0557,303.4576 h 596.276 v -595.276 h -596.276 z"
         id="path62535"
         style="stroke-width:0.999998" />
    </clipPath>
    <clipPath
       clipPathUnits="userSpaceOnUse"
       id="clipPath62539">
      <path
         d="m -165.6226,439.4674 h 596.276 v -595.276 h -596.276 z"
         id="path62541"
         style="stroke-width:0.999998" />
    </clipPath>
    <clipPath
       clipPathUnits="userSpaceOnUse"
       id="clipPath62546">
      <path
         d="M -572.8174,586.1354 H 23.458602 V -9.1406 H -572.8174 Z"
         id="path62548"
         style="stroke-width:0.999998" />
    </clipPath>
    <clipPath
       clipPathUnits="userSpaceOnUse"
       id="clipPath62553">
      <path
         d="M -567.7754,585.8522 H 28.500602 V -9.4238 H -567.7754 Z"
         id="path62555"
         style="stroke-width:0.999998" />
    </clipPath>
    <clipPath
       clipPathUnits="userSpaceOnUse"
       id="clipPath62559">
      <path
         d="M -561.4131,585.8522 H 34.862902 V -9.4238 H -561.4131 Z"
         id="path62561"
         style="stroke-width:0.999998" />
    </clipPath>
    <clipPath
       clipPathUnits="userSpaceOnUse"
       id="clipPath62565">
      <path
         d="M -564.5732,585.8483 H 31.702802 V -9.4277 H -564.5732 Z"
         id="path62567"
         style="stroke-width:0.999998" />
    </clipPath>
    <clipPath
       clipPathUnits="userSpaceOnUse"
       id="clipPath62571">
      <path
         d="M -574.5459,585.8522 H 21.730102 V -9.4238 H -574.5459 Z"
         id="path62573"
         style="stroke-width:0.999998" />
    </clipPath>
    <clipPath
       clipPathUnits="userSpaceOnUse"
       id="clipPath62577">
      <path
         d="m -103.9937,304.567 h 596.276 v -595.276 h -596.276 z"
         id="path62579"
         style="stroke-width:0.999998" />
    </clipPath>
    <clipPath
       clipPathUnits="userSpaceOnUse"
       id="clipPath62583">
      <path
         d="M -538.2217,577.9479 H 58.054302 V -17.3281 H -538.2217 Z"
         id="path62585"
         style="stroke-width:0.999998" />
    </clipPath>
    <clipPath
       clipPathUnits="userSpaceOnUse"
       id="clipPath62589">
      <path
         d="M -568.2266,575.819 H 28.049402 V -19.457 H -568.2266 Z"
         id="path62591"
         style="stroke-width:0.999998" />
    </clipPath>
    <clipPath
       clipPathUnits="userSpaceOnUse"
       id="clipPath62595">
      <path
         d="M -550.2637,577.3248 H 46.012302 V -17.9512 H -550.2637 Z"
         id="path62597"
         style="stroke-width:0.999998" />
    </clipPath>
    <clipPath
       clipPathUnits="userSpaceOnUse"
       id="clipPath62601">
      <path
         d="M -556.4014,578.0143 H 39.874602 V -17.2617 H -556.4014 Z"
         id="path62603"
         style="stroke-width:0.999998" />
    </clipPath>
    <clipPath
       clipPathUnits="userSpaceOnUse"
       id="clipPath62608">
      <path
         d="M -553.8975,585.8483 H 42.378502 V -9.4277 H -553.8975 Z"
         id="path62610"
         style="stroke-width:0.999998" />
    </clipPath>
    <clipPath
       clipPathUnits="userSpaceOnUse"
       id="clipPath62614">
      <path
         d="M -557.0645,585.8483 H 39.211502 V -9.4277 H -557.0645 Z"
         id="path62616"
         style="stroke-width:0.999998" />
    </clipPath>
    <clipPath
       clipPathUnits="userSpaceOnUse"
       id="clipPath62620">
      <path
         d="M -584.1943,578.9381 H 12.081702 V -16.3379 H -584.1943 Z"
         id="path62622"
         style="stroke-width:0.999998" />
    </clipPath>
    <clipPath
       clipPathUnits="userSpaceOnUse"
       id="clipPath62626">
      <path
         d="m -316.4521,298.629 h 596.276 v -595.276 h -596.276 z"
         id="path62628"
         style="stroke-width:0.999998" />
    </clipPath>
    <clipPath
       clipPathUnits="userSpaceOnUse"
       id="clipPath62632">
      <path
         d="M -586.5449,579.5026 H 9.7311024 V -15.7734 H -586.5449 Z"
         id="path62634"
         style="stroke-width:0.999998" />
    </clipPath>
    <clipPath
       clipPathUnits="userSpaceOnUse"
       id="clipPath62638">
      <path
         d="M -557.4951,577.8502 H 38.780902 V -17.4258 H -557.4951 Z"
         id="path62640"
         style="stroke-width:0.999998" />
    </clipPath>
    <clipPath
       clipPathUnits="userSpaceOnUse"
       id="clipPath62644">
      <path
         d="M -576.3691,585.5885 H 19.906902 V -9.6875 H -576.3691 Z"
         id="path62646"
         style="stroke-width:0.999998" />
    </clipPath>
    <clipPath
       clipPathUnits="userSpaceOnUse"
       id="clipPath62650">
      <path
         d="M -531.1924,581.5885 H 65.083602 V -13.6875 H -531.1924 Z"
         id="path62652"
         style="stroke-width:0.999998" />
    </clipPath>
    <clipPath
       clipPathUnits="userSpaceOnUse"
       id="clipPath62656">
      <path
         d="M -528.0898,575.3815 H 68.186202 V -19.8945 H -528.0898 Z"
         id="path62658"
         style="stroke-width:0.999998" />
    </clipPath>
    <clipPath
       clipPathUnits="userSpaceOnUse"
       id="clipPath62662">
      <path
         d="M -536.6982,584.5729 H 59.577802 V -10.7031 H -536.6982 Z"
         id="path62664"
         style="stroke-width:0.999998" />
    </clipPath>
    <clipPath
       clipPathUnits="userSpaceOnUse"
       id="clipPath62668">
      <path
         d="M -540.8213,585.8483 H 55.454702 V -9.4277 H -540.8213 Z"
         id="path62670"
         style="stroke-width:0.999998" />
    </clipPath>
    <clipPath
       clipPathUnits="userSpaceOnUse"
       id="clipPath62674">
      <path
         d="M -542.9326,584.5729 H 53.343402 V -10.7031 H -542.9326 Z"
         id="path62676"
         style="stroke-width:0.999998" />
    </clipPath>
    <clipPath
       clipPathUnits="userSpaceOnUse"
       id="clipPath62680">
      <path
         d="M -545.417,584.5729 H 50.859002 V -10.7031 H -545.417 Z"
         id="path62682"
         style="stroke-width:0.999998" />
    </clipPath>
    <clipPath
       clipPathUnits="userSpaceOnUse"
       id="clipPath62686">
      <path
         d="M -548.9834,585.8522 H 47.292602 V -9.4238 H -548.9834 Z"
         id="path62688"
         style="stroke-width:0.999998" />
    </clipPath>
  </defs>
  <sodipodi:namedview
     id="namedview61796"
     pagecolor="#ffffff"
     bordercolor="#000000"
     borderopacity="0.25"
     inkscape:showpageshadow="2"
     inkscape:pageopacity="0.0"
     inkscape:pagecheckerboard="0"
     inkscape:deskcolor="#d1d1d1"
     showgrid="false"
     inkscape:zoom="0.29734106"
     inkscape:cx="-215.24105"
     inkscape:cy="396.85068"
     inkscape:window-width="1419"
     inkscape:window-height="456"
     inkscape:window-x="0"
     inkscape:window-y="25"
     inkscape:window-maximized="0"
     inkscape:current-layer="svg61794">
    <inkscape:page
       x="0"
       y="0"
       id="page61800"
       width="795.03467"
       height="793.70135" />
  </sodipodi:namedview>
  <path
     d="m 421.935,398.173 c 0,13.676 -11.089,24.761 -24.76,24.761 -13.681,0 -24.764,-11.085 -24.764,-24.761 0,-13.676 11.083,-24.764 24.764,-24.764 13.671,0 24.76,11.088 24.76,24.764"
     style="fill:#000000;fill-opacity:1;fill-rule:nonzero;stroke:none"
     id="path61914" />
  <path
     d="M 138.658,406.09 V 138.669 h 141.631 l -62.291,62.289 h -17.055 l -0.005,267.41 z"
     style="fill:#000000;fill-opacity:1;fill-rule:nonzero;stroke:none"
     id="path61918" />
  <path
     d="m 655.018,280.29 0.006,-141.621 H 387.587 l -62.288,62.288 h 267.434 l 0.011,17.056 z"
     style="fill:#000000;fill-opacity:1;fill-rule:nonzero;stroke:none"
     id="path61922" />
  <path
     d="M 513.402,655.032 H 655.023 V 623.895 L 655.03,387.614 592.733,325.32 v 267.426 h -17.046 z"
     style="fill:#000000;fill-opacity:1;fill-rule:nonzero;stroke:none"
     id="path61926" />
  <path
     d="m 138.645,513.387 0.012,141.645 h 267.421 l 62.291,-62.285 H 200.943 v -17.064 z"
     style="fill:#000000;fill-opacity:1;fill-rule:nonzero;stroke:none"
     id="path61930" />
  <path
     d="M 585.936,572.88 418.876,739.948 396.848,761.974 296.719,661.819 h 88.069 l 12.06,12.069 189.088,-189.097 z"
     style="fill:#000000;fill-opacity:1;fill-rule:nonzero;stroke:none"
     id="path61934" />
  <path
     d="M 572.868,207.752 761.966,396.847 661.82,496.995 661.828,408.902 673.877,396.847 484.784,207.748 Z"
     style="fill:#000000;fill-opacity:1;fill-rule:nonzero;stroke:none"
     id="path61938" />
  <path
     d="M 207.735,308.927 396.849,119.809 408.917,131.876 496.99,131.869 396.849,31.7308 207.735,220.836 Z"
     style="fill:#000000;fill-opacity:1;fill-rule:nonzero;stroke:none"
     id="path61942" />
  <path
     d="M 220.83,585.956 31.7213,396.846 131.861,296.712 v 88.082 l -12.049,12.052 189.102,189.102 z"
     style="fill:#000000;fill-opacity:1;fill-rule:nonzero;stroke:none"
     id="path61946" />
  <path
     d="m 412.842,370.77 42.378,-58.308 c 7.498,-10.378 10.236,-20.002 10.236,-28.556 0,-6.63 -1.665,-12.642 -4.109,-17.85 -5.988,-12.722 -12.852,-17.847 -33.525,-32.786 -17.508,-12.646 -27.876,-21.586 -30.646,-24.036 -2.777,2.45 -13.152,11.39 -30.66,24.036 -20.672,14.939 -27.54,20.064 -33.529,32.786 -2.46,5.208 -4.124,11.22 -4.124,17.85 0.01,8.554 2.747,18.164 10.273,28.556 l 42.362,58.316 c 3.676,-2.108 7.825,-3.503 12.248,-3.98 v -28.027 c 0,-1.888 1.538,-3.413 3.43,-3.413 1.88,0 3.407,1.525 3.407,3.413 v 28.016 c 4.489,0.455 8.525,1.848 12.259,3.983"
     style="fill:#000000;fill-opacity:1;fill-rule:nonzero;stroke:none"
     id="path61950" />
  <path
     d="m 375.951,374.801 -42.356,-58.324 c -7.558,-10.337 -15.865,-15.917 -23.994,-18.559 -6.306,-2.048 -12.543,-2.324 -18.251,-1.606 -13.947,1.762 -20.941,6.708 -41.536,21.748 -17.437,12.743 -29.149,19.843 -32.335,21.722 1.471,3.403 6.768,16.029 13.388,36.585 7.819,24.275 10.568,32.396 20.823,42.02 4.191,3.947 9.395,7.39 15.699,9.439 8.134,2.633 18.121,3.001 30.334,-0.945 l 68.549,-22.271 c -0.868,-4.147 -0.912,-8.521 0,-12.877 l -26.654,-8.662 c -1.792,-0.585 -2.771,-2.517 -2.191,-4.312 0.585,-1.793 2.511,-2.774 4.303,-2.19 l 26.644,8.657 c 1.826,-4.129 4.392,-7.537 7.577,-10.425"
     style="fill:#000000;fill-opacity:1;fill-rule:nonzero;stroke:none"
     id="path61954" />
  <path
     d="M 368.386,411.129 299.83,433.39 c -12.167,3.992 -20.043,10.167 -25.069,17.088 -3.894,5.361 -6.084,11.206 -7.167,16.852 -2.633,13.814 -0.088,21.994 7.852,46.232 6.725,20.521 9.865,33.849 10.669,37.46 3.688,-0.347 17.336,-1.482 38.926,-1.428 25.506,0.066 34.077,-0.042 46.398,-6.814 5.056,-2.768 9.931,-6.653 13.831,-12.013 5.016,-6.931 8.456,-16.315 8.472,-29.147 l 0.005,-72.074 c -4.213,-0.457 -8.389,-1.767 -12.249,-3.985 l -16.474,22.677 c -1.106,1.529 -3.253,1.859 -4.778,0.751 -1.527,-1.11 -1.858,-3.246 -0.752,-4.77 l 16.468,-22.662 c -3.367,-3.01 -5.812,-6.507 -7.576,-10.428"
     style="fill:#000000;fill-opacity:1;fill-rule:nonzero;stroke:none"
     id="path61958" />
  <path
     d="m 400.592,429.553 -0.01,72.079 c 0.044,12.806 3.478,22.203 8.505,29.122 3.901,5.364 8.781,9.245 13.813,12.028 12.33,6.766 20.894,6.88 46.393,6.816 21.603,-0.058 35.244,1.081 38.928,1.426 0.806,-3.61 3.948,-16.941 10.674,-37.464 7.94,-24.232 10.489,-32.42 7.857,-46.232 -1.072,-5.653 -3.263,-11.502 -7.156,-16.862 -5.037,-6.913 -12.901,-13.085 -25.1,-17.064 l -68.542,-22.275 c -1.736,3.862 -4.275,7.43 -7.576,10.418 l 16.473,22.668 c 1.112,1.532 0.765,3.668 -0.763,4.781 -1.525,1.108 -3.66,0.767 -4.77,-0.76 L 412.859,425.57 c -3.905,2.273 -7.985,3.516 -12.267,3.983"
     style="fill:#000000;fill-opacity:1;fill-rule:nonzero;stroke:none"
     id="path61962" />
  <path
     d="m 428.074,404.611 68.551,22.287 c 12.188,3.919 22.187,3.553 30.322,0.909 6.305,-2.05 11.509,-5.49 15.705,-9.424 10.247,-9.628 13.003,-17.741 20.82,-42.01 6.621,-20.564 11.919,-33.187 13.391,-36.582 -3.187,-1.882 -14.894,-8.988 -32.336,-21.726 -20.595,-15.043 -27.591,-19.995 -41.54,-21.76 -5.716,-0.729 -11.947,-0.453 -18.251,1.592 -8.136,2.656 -16.432,8.229 -23.982,18.601 l -42.375,58.304 c 3.141,2.847 5.752,6.36 7.576,10.421 l 26.651,-8.664 c 1.796,-0.584 3.718,0.41 4.306,2.206 0.586,1.793 -0.402,3.72 -2.194,4.302 l -26.639,8.655 c 0.951,4.412 0.873,8.677 -0.005,12.889"
     style="fill:#000000;fill-opacity:1;fill-rule:nonzero;stroke:none"
     id="path61966" />
</svg>
