<?xml version="1.0" encoding="UTF-8" standalone="no"?>
<!-- Created with Inkscape (http://www.inkscape.org/) -->

<svg
   version="1.1"
   id="svg62996"
   width="793.70135"
   height="793.70135"
   viewBox="0 0 793.70135 793.70135"
   sodipodi:docname="Okubo Toshimichi.svg"
   inkscape:version="1.2 (dc2aeda, 2022-05-15)"
   xmlns:inkscape="http://www.inkscape.org/namespaces/inkscape"
   xmlns:sodipodi="http://sodipodi.sourceforge.net/DTD/sodipodi-0.dtd"
   xmlns="http://www.w3.org/2000/svg"
   xmlns:svg="http://www.w3.org/2000/svg">
  <defs
     id="defs63000">
    <clipPath
       clipPathUnits="userSpaceOnUse"
       id="clipPath64604">
      <path
         d="M -564.5732,585.8483 H 30.702797 V -9.4277 H -564.5732 Z"
         id="path64606"
         style="stroke-width:0.999998" />
    </clipPath>
    <clipPath
       clipPathUnits="userSpaceOnUse"
       id="clipPath64610">
      <path
         d="m -138.8848,67.0592 h 595.276 v -595.276 h -595.276 z"
         id="path64612"
         style="stroke-width:0.999998" />
    </clipPath>
    <clipPath
       clipPathUnits="userSpaceOnUse"
       id="clipPath64616">
      <path
         d="m -95.5859,135.4884 h 595.276 v -595.276 h -595.276 z"
         id="path64618"
         style="stroke-width:0.999998" />
    </clipPath>
    <clipPath
       clipPathUnits="userSpaceOnUse"
       id="clipPath64622">
      <path
         d="M -528.0898,575.3815 H 67.186197 V -19.8945 H -528.0898 Z"
         id="path64624"
         style="stroke-width:0.999998" />
    </clipPath>
    <clipPath
       clipPathUnits="userSpaceOnUse"
       id="clipPath64628">
      <path
         d="M -542.9326,584.5729 H 52.343397 V -10.7031 H -542.9326 Z"
         id="path64630"
         style="stroke-width:0.999998" />
    </clipPath>
    <clipPath
       clipPathUnits="userSpaceOnUse"
       id="clipPath64634">
      <path
         d="M -545.417,584.5729 H 49.858997 V -10.7031 H -545.417 Z"
         id="path64636"
         style="stroke-width:0.999998" />
    </clipPath>
    <clipPath
       clipPathUnits="userSpaceOnUse"
       id="clipPath64640">
      <path
         d="M -553.8975,585.8483 H 41.378497 V -9.4277 H -553.8975 Z"
         id="path64642"
         style="stroke-width:0.999998" />
    </clipPath>
    <clipPath
       clipPathUnits="userSpaceOnUse"
       id="clipPath64646">
      <path
         d="M -557.0645,585.8483 H 38.211497 V -9.4277 H -557.0645 Z"
         id="path64648"
         style="stroke-width:0.999998" />
    </clipPath>
    <clipPath
       clipPathUnits="userSpaceOnUse"
       id="clipPath64652">
      <path
         d="M -536.6982,584.5729 H 58.577797 V -10.7031 H -536.6982 Z"
         id="path64654"
         style="stroke-width:0.999998" />
    </clipPath>
    <clipPath
       clipPathUnits="userSpaceOnUse"
       id="clipPath64658">
      <path
         d="m -260.9697,20.8903 h 595.276 v -595.276 h -595.276 z"
         id="path64660"
         style="stroke-width:0.999998" />
    </clipPath>
    <clipPath
       clipPathUnits="userSpaceOnUse"
       id="clipPath64664">
      <path
         d="m -191.3193,38.3693 h 595.276 v -595.276 h -595.276 z"
         id="path64666"
         style="stroke-width:0.999998" />
    </clipPath>
    <clipPath
       clipPathUnits="userSpaceOnUse"
       id="clipPath64670">
      <path
         d="M -561.4131,585.8522 H 33.862897 V -9.4238 H -561.4131 Z"
         id="path64672"
         style="stroke-width:0.999998" />
    </clipPath>
    <clipPath
       clipPathUnits="userSpaceOnUse"
       id="clipPath64676">
      <path
         d="m -173.7363,102.8541 h 595.276 v -595.276 h -595.276 z"
         id="path64678"
         style="stroke-width:0.999998" />
    </clipPath>
    <clipPath
       clipPathUnits="userSpaceOnUse"
       id="clipPath64682">
      <path
         d="m -132.2998,128.6281 h 595.276 v -595.276 h -595.276 z"
         id="path64684"
         style="stroke-width:0.999998" />
    </clipPath>
    <clipPath
       clipPathUnits="userSpaceOnUse"
       id="clipPath64688">
      <path
         d="m -94.9688,183.2023 h 595.276 v -595.276 h -595.276 z"
         id="path64690"
         style="stroke-width:0.999998" />
    </clipPath>
    <clipPath
       clipPathUnits="userSpaceOnUse"
       id="clipPath64696">
      <path
         d="m -340.5371,537.0709 h 595.276 v -595.276 h -595.276 z"
         id="path64698"
         style="stroke-width:0.999998" />
    </clipPath>
    <clipPath
       clipPathUnits="userSpaceOnUse"
       id="clipPath64702">
      <path
         d="m -317.0205,558.9576 h 595.276 v -595.276 h -595.276 z"
         id="path64704"
         style="stroke-width:0.999998" />
    </clipPath>
    <clipPath
       clipPathUnits="userSpaceOnUse"
       id="clipPath64708">
      <path
         d="m -303.5459,548.1862 h 595.276 v -595.276 h -595.276 z"
         id="path64710"
         style="stroke-width:0.999998" />
    </clipPath>
    <clipPath
       clipPathUnits="userSpaceOnUse"
       id="clipPath64714">
      <path
         d="m -266.7656,541.0221 h 595.276 v -595.276 h -595.276 z"
         id="path64716"
         style="stroke-width:0.999998" />
    </clipPath>
    <clipPath
       clipPathUnits="userSpaceOnUse"
       id="clipPath64720">
      <path
         d="m -185.8545,537.7389 h 595.276 v -595.276 h -595.276 z"
         id="path64722"
         style="stroke-width:0.999998" />
    </clipPath>
    <clipPath
       clipPathUnits="userSpaceOnUse"
       id="clipPath64726">
      <path
         d="M -134.791,506.6725 H 460.485 V -88.6035 H -134.791 Z"
         id="path64728"
         style="stroke-width:0.999998" />
    </clipPath>
    <clipPath
       clipPathUnits="userSpaceOnUse"
       id="clipPath64732">
      <path
         d="m -349.4688,512.5944 h 595.276 v -595.276 h -595.276 z"
         id="path64734"
         style="stroke-width:0.999998" />
    </clipPath>
    <clipPath
       clipPathUnits="userSpaceOnUse"
       id="clipPath64738">
      <path
         d="m -84.8291,455.0944 h 595.276 v -595.276 h -595.276 z"
         id="path64740"
         style="stroke-width:0.999998" />
    </clipPath>
    <clipPath
       clipPathUnits="userSpaceOnUse"
       id="clipPath64744">
      <path
         d="m -69.4199,431.4479 h 595.276 v -595.276 h -595.276 z"
         id="path64746"
         style="stroke-width:0.999998" />
    </clipPath>
    <clipPath
       clipPathUnits="userSpaceOnUse"
       id="clipPath64750">
      <path
         d="m -41.874,301.5709 h 595.276 v -595.276 H -41.874 Z"
         id="path64752"
         style="stroke-width:0.999998" />
    </clipPath>
    <clipPath
       clipPathUnits="userSpaceOnUse"
       id="clipPath64756">
      <path
         d="m -78.8525,221.3243 h 595.276 v -595.276 h -595.276 z"
         id="path64758"
         style="stroke-width:0.999998" />
    </clipPath>
    <clipPath
       clipPathUnits="userSpaceOnUse"
       id="clipPath64762">
      <path
         d="M -101.666,198.6329 H 493.61 v -595.276 h -595.276 z"
         id="path64764"
         style="stroke-width:0.999998" />
    </clipPath>
    <clipPath
       clipPathUnits="userSpaceOnUse"
       id="clipPath64768">
      <path
         d="m -278.8545,321.5514 h 595.276 v -595.276 h -595.276 z"
         id="path64770"
         style="stroke-width:0.999998" />
    </clipPath>
    <clipPath
       clipPathUnits="userSpaceOnUse"
       id="clipPath64777">
      <path
         d="m -271.1855,171.5812 h 595.276 v -595.276 h -595.276 z"
         id="path64779"
         style="stroke-width:0.999998" />
    </clipPath>
    <clipPath
       clipPathUnits="userSpaceOnUse"
       id="clipPath64785">
      <path
         d="m -300.6143,528.444 h 595.276 V -66.832 h -595.276 z"
         id="path64787"
         style="stroke-width:0.999998" />
    </clipPath>
    <clipPath
       clipPathUnits="userSpaceOnUse"
       id="clipPath64791">
      <path
         d="m -173.4443,313.5826 h 595.276 v -595.276 h -595.276 z"
         id="path64793"
         style="stroke-width:0.999998" />
    </clipPath>
    <clipPath
       clipPathUnits="userSpaceOnUse"
       id="clipPath64797">
      <path
         d="m -119.0107,349.1998 h 595.276 v -595.276 h -595.276 z"
         id="path64799"
         style="stroke-width:0.999998" />
    </clipPath>
    <clipPath
       clipPathUnits="userSpaceOnUse"
       id="clipPath64803">
      <path
         d="m -172.5908,409.9596 h 595.276 v -595.276 h -595.276 z"
         id="path64805"
         style="stroke-width:0.999998" />
    </clipPath>
    <clipPath
       clipPathUnits="userSpaceOnUse"
       id="clipPath64809">
      <path
         d="m -158.0439,452.6725 h 595.276 v -595.276 h -595.276 z"
         id="path64811"
         style="stroke-width:0.999998" />
    </clipPath>
    <clipPath
       clipPathUnits="userSpaceOnUse"
       id="clipPath64815">
      <path
         d="m -199.4287,489.6588 h 595.276 v -595.276 h -595.276 z"
         id="path64817"
         style="stroke-width:0.999998" />
    </clipPath>
    <clipPath
       clipPathUnits="userSpaceOnUse"
       id="clipPath64821">
      <path
         d="m -242.4678,512.6569 h 595.276 v -595.276 h -595.276 z"
         id="path64823"
         style="stroke-width:0.999998" />
    </clipPath>
    <clipPath
       clipPathUnits="userSpaceOnUse"
       id="clipPath64827">
      <path
         d="m -308.3955,517.6998 h 595.276 v -595.276 h -595.276 z"
         id="path64829"
         style="stroke-width:0.999998" />
    </clipPath>
    <clipPath
       clipPathUnits="userSpaceOnUse"
       id="clipPath64835">
      <path
         d="m -492.0713,128.0958 h 595.276 v -595.276 h -595.276 z"
         id="path64837"
         style="stroke-width:0.999998" />
    </clipPath>
    <clipPath
       clipPathUnits="userSpaceOnUse"
       id="clipPath64841">
      <path
         d="M -522.7832,137.5187 H 72.492797 v -595.276 H -522.7832 Z"
         id="path64843"
         style="stroke-width:0.999998" />
    </clipPath>
    <clipPath
       clipPathUnits="userSpaceOnUse"
       id="clipPath64847">
      <path
         d="M -520.1924,154.5743 H 75.083597 v -595.276 H -520.1924 Z"
         id="path64849"
         style="stroke-width:0.999998" />
    </clipPath>
    <clipPath
       clipPathUnits="userSpaceOnUse"
       id="clipPath64853">
      <path
         d="M -532.3779,190.0089 H 62.898097 v -595.276 H -532.3779 Z"
         id="path64855"
         style="stroke-width:0.999998" />
    </clipPath>
    <clipPath
       clipPathUnits="userSpaceOnUse"
       id="clipPath64859">
      <path
         d="M -569.9902,261.7218 H 25.285797 v -595.276 H -569.9902 Z"
         id="path64861"
         style="stroke-width:0.999998" />
    </clipPath>
    <clipPath
       clipPathUnits="userSpaceOnUse"
       id="clipPath64865">
      <path
         d="M -568.6182,321.4772 H 26.657797 v -595.276 H -568.6182 Z"
         id="path64867"
         style="stroke-width:0.999998" />
    </clipPath>
    <clipPath
       clipPathUnits="userSpaceOnUse"
       id="clipPath64871">
      <path
         d="M -548.9307,390.5338 H 46.345297 v -595.276 H -548.9307 Z"
         id="path64873"
         style="stroke-width:0.999998" />
    </clipPath>
    <clipPath
       clipPathUnits="userSpaceOnUse"
       id="clipPath64877">
      <path
         d="M -536.1563,415.7018 H 59.119697 v -595.276 H -536.1563 Z"
         id="path64879"
         style="stroke-width:0.999998" />
    </clipPath>
    <clipPath
       clipPathUnits="userSpaceOnUse"
       id="clipPath64883">
      <path
         d="m -437.4531,504.4967 h 595.276 v -595.276 h -595.276 z"
         id="path64885"
         style="stroke-width:0.999998" />
    </clipPath>
    <clipPath
       clipPathUnits="userSpaceOnUse"
       id="clipPath64889">
      <path
         d="m -318.4102,504.1842 h 595.276 v -595.276 h -595.276 z"
         id="path64891"
         style="stroke-width:0.999998" />
    </clipPath>
    <clipPath
       clipPathUnits="userSpaceOnUse"
       id="clipPath64895">
      <path
         d="m -336.2666,289.2745 h 595.276 v -595.276 h -595.276 z"
         id="path64897"
         style="stroke-width:0.999998" />
    </clipPath>
    <clipPath
       clipPathUnits="userSpaceOnUse"
       id="clipPath64902">
      <path
         d="m -289.1523,19.3693 h 595.276 v -595.276 h -595.276 z"
         id="path64904"
         style="stroke-width:0.999998" />
    </clipPath>
    <clipPath
       clipPathUnits="userSpaceOnUse"
       id="clipPath64908">
      <path
         d="m -415.4023,60.4523 h 595.276 v -595.276 h -595.276 z"
         id="path64910"
         style="stroke-width:0.999998" />
    </clipPath>
    <clipPath
       clipPathUnits="userSpaceOnUse"
       id="clipPath64914">
      <path
         d="m -466.4082,132.5997 h 595.276 v -595.276 h -595.276 z"
         id="path64916"
         style="stroke-width:0.999998" />
    </clipPath>
    <clipPath
       clipPathUnits="userSpaceOnUse"
       id="clipPath64921">
      <path
         d="m -279.6084,255.6925 h 595.276 v -595.276 h -595.276 z"
         id="path64923"
         style="stroke-width:0.999998" />
    </clipPath>
    <clipPath
       clipPathUnits="userSpaceOnUse"
       id="clipPath64927">
      <path
         d="m -474.6523,163.7023 h 595.276 v -595.276 h -595.276 z"
         id="path64929"
         style="stroke-width:0.999998" />
    </clipPath>
    <clipPath
       clipPathUnits="userSpaceOnUse"
       id="clipPath64934">
      <path
         d="m -413.3203,324.0358 h 595.276 v -595.276 h -595.276 z"
         id="path64936"
         style="stroke-width:0.999998" />
    </clipPath>
    <clipPath
       clipPathUnits="userSpaceOnUse"
       id="clipPath64943">
      <path
         d="m -89.5547,171.0909 h 595.276 v -595.276 h -595.276 z"
         id="path64945"
         style="stroke-width:0.999998" />
    </clipPath>
    <clipPath
       clipPathUnits="userSpaceOnUse"
       id="clipPath64949">
      <path
         d="m -339.2148,168.3898 h 595.276 v -595.276 h -595.276 z"
         id="path64951"
         style="stroke-width:0.999998" />
    </clipPath>
    <clipPath
       clipPathUnits="userSpaceOnUse"
       id="clipPath64955">
      <path
         d="m -335.585,103.4391 h 595.276 v -595.276 h -595.276 z"
         id="path64957"
         style="stroke-width:0.999998" />
    </clipPath>
    <clipPath
       clipPathUnits="userSpaceOnUse"
       id="clipPath64961">
      <path
         d="m -256.1758,119.4611 h 595.276 v -595.276 h -595.276 z"
         id="path64963"
         style="stroke-width:0.999998" />
    </clipPath>
    <clipPath
       clipPathUnits="userSpaceOnUse"
       id="clipPath64967">
      <path
         d="m -226.459,85.5074 h 595.276 v -595.276 h -595.276 z"
         id="path64969"
         style="stroke-width:0.999998" />
    </clipPath>
    <clipPath
       clipPathUnits="userSpaceOnUse"
       id="clipPath64973">
      <path
         d="M -548.9834,585.8522 H 46.292597 V -9.4238 H -548.9834 Z"
         id="path64975"
         style="stroke-width:0.999998" />
    </clipPath>
    <clipPath
       clipPathUnits="userSpaceOnUse"
       id="clipPath64979">
      <path
         d="m -54.9258,170.0431 h 595.276 v -595.276 h -595.276 z"
         id="path64981"
         style="stroke-width:0.999998" />
    </clipPath>
    <clipPath
       clipPathUnits="userSpaceOnUse"
       id="clipPath64985">
      <path
         d="M -576.3691,585.5885 H 18.906897 V -9.6875 H -576.3691 Z"
         id="path64987"
         style="stroke-width:0.999998" />
    </clipPath>
    <clipPath
       clipPathUnits="userSpaceOnUse"
       id="clipPath64991">
      <path
         d="M -557.4951,577.8502 H 37.780897 V -17.4258 H -557.4951 Z"
         id="path64993"
         style="stroke-width:0.999998" />
    </clipPath>
    <clipPath
       clipPathUnits="userSpaceOnUse"
       id="clipPath64998">
      <path
         d="M -568.2266,575.819 H 27.049397 V -19.457 H -568.2266 Z"
         id="path65000"
         style="stroke-width:0.999998" />
    </clipPath>
    <clipPath
       clipPathUnits="userSpaceOnUse"
       id="clipPath65004">
      <path
         d="M -584.1943,578.9381 H 11.081697 V -16.3379 H -584.1943 Z"
         id="path65006"
         style="stroke-width:0.999998" />
    </clipPath>
    <clipPath
       clipPathUnits="userSpaceOnUse"
       id="clipPath65012">
      <path
         d="M -550.2637,577.3248 H 45.012297 V -17.9512 H -550.2637 Z"
         id="path65014"
         style="stroke-width:0.999998" />
    </clipPath>
    <clipPath
       clipPathUnits="userSpaceOnUse"
       id="clipPath65018">
      <path
         d="M -556.4014,578.0143 H 38.874597 V -17.2617 H -556.4014 Z"
         id="path65020"
         style="stroke-width:0.999998" />
    </clipPath>
    <clipPath
       clipPathUnits="userSpaceOnUse"
       id="clipPath65024">
      <path
         d="M -586.5449,579.5026 H 8.7310974 V -15.7734 H -586.5449 Z"
         id="path65026"
         style="stroke-width:0.999998" />
    </clipPath>
    <clipPath
       clipPathUnits="userSpaceOnUse"
       id="clipPath65030">
      <path
         d="M -567.7754,585.8522 H 27.500597 V -9.4238 H -567.7754 Z"
         id="path65032"
         style="stroke-width:0.999998" />
    </clipPath>
    <clipPath
       clipPathUnits="userSpaceOnUse"
       id="clipPath65036">
      <path
         d="M -531.1924,581.5885 H 64.083597 V -13.6875 H -531.1924 Z"
         id="path65038"
         style="stroke-width:0.999998" />
    </clipPath>
    <clipPath
       clipPathUnits="userSpaceOnUse"
       id="clipPath65042">
      <path
         d="M -538.2217,577.9479 H 57.054297 V -17.3281 H -538.2217 Z"
         id="path65044"
         style="stroke-width:0.999998" />
    </clipPath>
    <clipPath
       clipPathUnits="userSpaceOnUse"
       id="clipPath65049">
      <path
         d="m -330.2617,288.8409 h 595.276 v -595.276 h -595.276 z"
         id="path65051"
         style="stroke-width:0.999998" />
    </clipPath>
    <clipPath
       clipPathUnits="userSpaceOnUse"
       id="clipPath65055">
      <path
         d="m -62.1211,201.3517 h 595.276 v -595.276 h -595.276 z"
         id="path65057"
         style="stroke-width:0.999998" />
    </clipPath>
    <clipPath
       clipPathUnits="userSpaceOnUse"
       id="clipPath65063">
      <path
         d="m -210.2227,370.901 h 595.276 v -595.276 h -595.276 z"
         id="path65065"
         style="stroke-width:0.999998" />
    </clipPath>
    <clipPath
       clipPathUnits="userSpaceOnUse"
       id="clipPath65071">
      <path
         d="M -504.5605,166.9845 H 90.715497 v -595.276 H -504.5605 Z"
         id="path65073"
         style="stroke-width:0.999998" />
    </clipPath>
    <clipPath
       clipPathUnits="userSpaceOnUse"
       id="clipPath65077">
      <path
         d="m -382.0703,384.5475 h 595.276 v -595.276 h -595.276 z"
         id="path65079"
         style="stroke-width:0.999998" />
    </clipPath>
    <clipPath
       clipPathUnits="userSpaceOnUse"
       id="clipPath65083">
      <path
         d="m -440.1328,413.8795 h 595.276 v -595.276 h -595.276 z"
         id="path65085"
         style="stroke-width:0.999998" />
    </clipPath>
    <clipPath
       clipPathUnits="userSpaceOnUse"
       id="clipPath65089">
      <path
         d="m -465.9629,337.0983 h 595.276 v -595.276 h -595.276 z"
         id="path65091"
         style="stroke-width:0.999998" />
    </clipPath>
    <clipPath
       clipPathUnits="userSpaceOnUse"
       id="clipPath65095">
      <path
         d="M -510.2256,328.3385 H 85.050397 v -595.276 H -510.2256 Z"
         id="path65097"
         style="stroke-width:0.999998" />
    </clipPath>
    <clipPath
       clipPathUnits="userSpaceOnUse"
       id="clipPath65101">
      <path
         d="M -521.5645,274.006 H 73.711497 V -321.27 H -521.5645 Z"
         id="path65103"
         style="stroke-width:0.999998" />
    </clipPath>
    <clipPath
       clipPathUnits="userSpaceOnUse"
       id="clipPath65107">
      <path
         d="M -519.9619,225.2335 H 75.314097 v -595.276 H -519.9619 Z"
         id="path65109"
         style="stroke-width:0.999998" />
    </clipPath>
    <clipPath
       clipPathUnits="userSpaceOnUse"
       id="clipPath65113">
      <path
         d="m -491.3652,165.6173 h 595.276 v -595.276 h -595.276 z"
         id="path65115"
         style="stroke-width:0.999998" />
    </clipPath>
    <clipPath
       clipPathUnits="userSpaceOnUse"
       id="clipPath65119">
      <path
         d="m -70.9912,163.7589 h 595.276 v -595.276 h -595.276 z"
         id="path65121"
         style="stroke-width:0.999998" />
    </clipPath>
    <clipPath
       clipPathUnits="userSpaceOnUse"
       id="clipPath65125">
      <path
         d="M -572.8174,586.1354 H 22.458597 V -9.1406 H -572.8174 Z"
         id="path65127"
         style="stroke-width:0.999998" />
    </clipPath>
    <clipPath
       clipPathUnits="userSpaceOnUse"
       id="clipPath65131">
      <path
         d="M -540.8213,585.8483 H 54.454697 V -9.4277 H -540.8213 Z"
         id="path65133"
         style="stroke-width:0.999998" />
    </clipPath>
    <clipPath
       clipPathUnits="userSpaceOnUse"
       id="clipPath65137">
      <path
         d="M -574.5459,585.8522 H 20.730097 V -9.4238 H -574.5459 Z"
         id="path65139"
         style="stroke-width:0.999998" />
    </clipPath>
  </defs>
  <sodipodi:namedview
     id="namedview62998"
     pagecolor="#ffffff"
     bordercolor="#000000"
     borderopacity="0.25"
     inkscape:showpageshadow="2"
     inkscape:pageopacity="0.0"
     inkscape:pagecheckerboard="0"
     inkscape:deskcolor="#d1d1d1"
     showgrid="false"
     inkscape:zoom="0.29734106"
     inkscape:cx="-215.24105"
     inkscape:cy="396.85068"
     inkscape:window-width="1419"
     inkscape:window-height="456"
     inkscape:window-x="0"
     inkscape:window-y="25"
     inkscape:window-maximized="0"
     inkscape:current-layer="svg62996">
    <inkscape:page
       x="0"
       y="0"
       id="page63002"
       width="793.70135"
       height="793.70135" />
  </sodipodi:namedview>
  <path
     d="M 509.62,276.515 Z"
     style="fill:none;stroke:#000000;stroke-width:1.33333;stroke-linecap:butt;stroke-linejoin:miter;stroke-miterlimit:4;stroke-dasharray:none;stroke-opacity:1"
     id="path63116" />
  <path
     d="M 505.083,216.896 Z"
     style="fill:#000000;fill-opacity:1;fill-rule:nonzero;stroke:none"
     id="path63120" />
  <path
     d="m 440.348,385.122 c 0,23.577 -19.114,42.692 -42.694,42.692 -23.578,0 -42.694,-19.115 -42.694,-42.692 0,-23.58 19.116,-42.695 42.694,-42.695 23.58,0 42.694,19.115 42.694,42.695"
     style="fill:#000000;fill-opacity:1;fill-rule:nonzero;stroke:none"
     id="path63124" />
  <path
     d="m 82.8279,268.47 c -1.6053,2.866 -3.172,5.759 -4.6986,8.682 0.2026,0.39 0.3693,0.712 0.3933,0.765 3.872,7.971 7.2147,23.789 0.28,36.704 -5.932,11.047 -14.9746,18.766 -23.6866,21.274 0.3907,11.412 0.5733,23.047 -0.1973,34.516 -0.3347,4.898 -0.772,9.798 -1.3214,14.698 -0.4613,4.118 -1.0013,8.234 -1.6146,12.341 -1.988,13.237 -4.8867,26.299 -8.4707,38.932 -11.1879,-26.872 -14.2906,-55.951 -7.1333,-83.951 1.912,-7.478 4.4773,-14.602 7.64,-21.337 -4.2573,-8.121 -5.0507,-20.098 -1.3267,-32.101 4.2173,-13.569 17.0227,-21.985 25.396,-24.947 0.12,-0.046 0.652,-0.254 1.1013,-0.429 C 125.902,164.351 235.617,92.6014 344.929,92.6121 c 9.481,0.0107 18.965,0.5653 28.405,1.6866 43.624,5.1747 79.705,21.1883 104.942,46.0963 25.246,24.884 39.407,58.658 39.419,98.293 0.056,54.017 -29.68,101.062 -73.753,125.739 -1.31,-2.925 -2.888,-5.705 -4.704,-8.305 10.806,-6.049 20.69,-13.54 29.397,-22.215 24.453,-24.369 39.54,-58.007 39.499,-95.23 -0.07,-37.409 -13.18,-68.384 -36.58,-91.52 -23.414,-23.12 -57.36,-38.413 -99.332,-43.4 -9.063,-1.076 -18.164,-1.605 -27.284,-1.617 -75.595,-0.104 -152.154,35.852 -209.73,95.709 -20.045,20.84 -37.7801,44.553 -52.3801,70.621"
     style="fill:#000000;fill-opacity:1;fill-rule:nonzero;stroke:none"
     id="path63128" />
  <path
     d="m 73.2342,226.725 c 0,0 -4.364,-0.288 -6.364,4.045 -2,4.334 0.056,9.007 0.056,9.007 0,0 -5.3893,1.66 -7.3893,6.827 -2,5.166 0.6667,9.5 0.6667,9.5 0,0 -5,1.833 -6.8333,6.833 -1.8334,5 0.9973,9.163 0.9973,9.163 3.1227,-2.071 6.236,-3.68 9.152,-4.871 7.4226,-14.011 15.7013,-27.409 24.7226,-40.123 -1.752,0.115 -3.5973,0.182 -5.532,0.183 -0.6413,0 -1.2827,-0.007 -1.936,-0.021 -2.6707,-0.066 -5.2053,-0.267 -7.54,-0.543"
     style="fill:#000000;fill-opacity:1;fill-rule:nonzero;stroke:none"
     id="path63132" />
  <path
     d="m 94.6547,218.346 c 8.0063,-10.601 16.5423,-20.688 25.5343,-30.219 -4.08,-0.415 -8.238,-1.043 -11.734,-2.007 -2.995,-0.841 -5.687,-1.777 -8.063,-2.725 0,0 -5.5093,-0.947 -8.432,2.714 -2.924,3.662 -0.424,8.495 -0.424,8.495 0,0 -5.3333,0.076 -7.5826,4.288 -2.2507,4.212 0.3387,7.732 0.3387,7.732 0,0 -4.9227,-0.187 -7.0894,4.48 -2.1666,4.666 1.6467,8.084 1.6467,8.084 0.6907,0.037 1.392,0.065 2.104,0.081 0.596,0.015 1.1827,0.023 1.7573,0.023 4.5747,0.001 8.6347,-0.418 11.944,-0.946"
     style="fill:#000000;fill-opacity:1;fill-rule:nonzero;stroke:none"
     id="path63136" />
  <path
     d="m 127.448,180.652 c 11.825,-11.825 24.371,-22.721 37.51,-32.593 -5.169,-1.5 -10.839,-3.736 -16.209,-7.064 -2.447,-1.543 -4.948,-3.463 -7.325,-5.474 0,0 -6.267,-2.617 -10.555,1.194 -5.5,4.889 -2.779,11.777 -2.779,11.777 0,0 -5.79,-1.041 -9.888,3.112 -3.944,3.999 -1.5,10.667 -1.5,10.667 0,0 -8.005,-0.326 -10.974,4.726 -2.97,5.052 -0.016,9.859 -0.016,9.859 1.513,0.543 3.149,1.069 4.902,1.561 4.451,1.275 11.174,1.92 16.834,2.235"
     style="fill:#000000;fill-opacity:1;fill-rule:nonzero;stroke:none"
     id="path63140" />
  <path
     d="m 185.18,89.4134 c -6.532,4.1907 -5.643,12.1906 -5.643,12.1906 0,0 -7.445,-3.0039 -12.889,2.223 -5.555,5.333 -4.291,11.744 -4.291,11.744 0,0 -6.376,-3.078 -12.376,2.256 -5.752,5.112 -1.273,13.324 -1.273,13.324 1.469,1.162 2.922,2.214 4.28,3.06 6.709,4.225 14.429,6.48 20.47,7.669 16.631,-11.721 34.081,-21.815 52.161,-30.135 -6.076,-3.013 -12.874,-7.11 -18.797,-12.5343 -2.988,-2.7666 -5.736,-5.7546 -8.186,-8.7013 0,0 -6.924,-5.2866 -13.456,-1.096"
     style="fill:#000000;fill-opacity:1;fill-rule:nonzero;stroke:none"
     id="path63144" />
  <path
     d="m 255.091,51.1602 c -7.778,3.3333 -8.666,11.7773 -8.666,11.7773 0,0 -7.112,-5.3333 -15.112,-1.3333 -8,4 -6.667,11.7786 -6.667,11.7786 0,0 -7.643,-4.6867 -14.821,0.1013 -7.179,4.7867 -4.172,12.944 -4.172,12.944 2.036,2.3827 4.252,4.7453 6.593,6.9013 7.156,6.636 16.328,11.2716 23.18,14.0946 19.915,-8.3573 40.471,-14.5572 61.323,-18.3666 -5.82,-5.0933 -12.666,-11.7906 -18.407,-19.3773 -3.747,-4.9693 -6.663,-9.8559 -8.924,-14.3533 0,0 -6.548,-7.4999 -14.327,-4.1666"
     style="fill:#000000;fill-opacity:1;fill-rule:nonzero;stroke:none"
     id="path63148" />
  <path
     d="m 347.959,27.8549 c -9.756,0.8613 -13.312,9.3053 -13.312,9.3053 0,0 -8.445,-7.1106 -17.556,-5.1106 -9.11,2 -12.221,11.1106 -12.221,11.1106 0,0 -8.037,-6.3586 -17.112,-3.3333 -12,4 -10.417,13.412 -10.417,13.412 1.948,3.6879 4.374,7.6293 7.388,11.6213 6.997,9.2933 16.205,17.4746 22.437,22.4972 12.483,-1.7933 25.045,-2.7253 37.62,-2.7466 0.029,0 0.129,-0.004 0.29,0 h 0.019 c 9.733,0.0173 19.477,0.5906 29.179,1.744 0.756,0.088 1.533,0.2253 2.284,0.3213 -5.491,-9.3466 -11.48,-22.0493 -13.643,-35.7946 -0.903,-5.8466 -1.279,-11.1946 -1.333,-15.9439 -0.006,-0.4214 -3.867,-7.944 -13.623,-7.0827"
     style="fill:#000000;fill-opacity:1;fill-rule:nonzero;stroke:none"
     id="path63152" />
  <path
     d="m 385.535,25.8269 c -11.556,-0.8893 -15.961,8.396 -15.959,8.6667 0.038,4.4813 0.382,9.5733 1.243,15.1679 2.265,15.0333 10.271,29.5946 16.083,38.5133 23.7,4.056 45.185,11.4093 63.809,21.8042 -0.063,-2.052 -0.1,-4.278 -0.1,-6.644 0.009,-12.5789 1.061,-28.9375 5.8,-43.0095 1.843,-5.456 4.056,-10.2066 6.407,-14.304 0,0 -1.383,-10.7146 -11.727,-12.8613 -11.779,-2.444 -19.333,5.7774 -19.333,5.7774 0,0 -4.89,-10.2214 -15.112,-11.1107 -11.466,-0.9986 -16.89,8.444 -16.89,8.444 0,0 -2.469,-9.54 -14.221,-10.444"
     style="fill:#000000;fill-opacity:1;fill-rule:nonzero;stroke:none"
     id="path63156" />
  <path
     d="m 553.868,80.6041 c -7.667,-8.6666 -24,-3 -24,-3 0,0 2,-12.3333 -8,-18.9999 -10,-6.6667 -22.333,2.6666 -22.333,2.6666 0,0 -0.195,-12.6719 -10.271,-17.4893 -11.063,-5.2879 -19.603,6.3787 -19.603,6.3787 -2.064,3.62 -4.019,7.8373 -5.67,12.7226 -4.283,12.616 -5.391,28.36 -5.38,40.4522 0,4.441 0.143,8.397 0.317,11.544 9.131,5.818 17.483,12.436 24.965,19.817 8.083,7.952 15.095,16.795 20.947,26.397 5.591,-13.697 16.377,-33.698 35.575,-48.65 5.25,-4.074 10.244,-7.352 14.89,-9.991 0,0 6.23,-13.1812 -1.437,-21.8479"
     style="fill:#000000;fill-opacity:1;fill-rule:nonzero;stroke:none"
     id="path63160" />
  <path
     d="m 621.876,176.801 c -6.008,-14.862 -21.231,-14.084 -21.231,-14.084 0,0 10.453,-9.526 5.405,-20.745 -4.516,-10.033 -21.515,-10.033 -21.515,-10.033 0,0 7.588,-9.444 2.354,-18.579 -6.354,-11.088 -23.81,-6.013 -23.81,-6.013 -5.33,2.73 -11.308,6.424 -17.762,11.421 -20.662,15.945 -31.092,39.188 -35.386,51.451 9.276,18.221 14.656,38.838 15.606,61.155 14.243,-11.23 37.096,-26.685 61.092,-32.333 7.996,-1.859 15.328,-2.605 21.925,-2.605 0.331,0 0.659,0.002 0.986,0.005 0,0 17.332,-7.278 12.336,-19.64"
     style="fill:#000000;fill-opacity:1;fill-rule:nonzero;stroke:none"
     id="path63164" />
  <path
     d="m 632.868,218.27 c -1.111,-14.221 -21.358,-13.778 -21.358,-13.778 -0.965,-0.036 -1.95,-0.056 -2.956,-0.056 -5.994,0 -12.707,0.677 -20.114,2.397 -24.789,5.679 -49.728,23.909 -62.775,34.721 -0.393,22.384 -5.64,43.679 -14.737,62.708 13.296,-2.398 30.815,-4.794 49.556,-4.801 10.795,0 21.861,0.792 32.488,2.883 7.472,1.472 14.101,3.633 19.94,6.169 0,0 19.296,2.087 21.249,-12.584 2.04,-15.325 -9.96,-23.992 -9.96,-23.992 0,0 12.395,-3.984 12.687,-17.332 0.313,-14.335 -13.354,-19.668 -13.354,-19.668 0,0 10.222,-5.291 9.334,-16.667"
     style="fill:#000000;fill-opacity:1;fill-rule:nonzero;stroke:none"
     id="path63168" />
  <path
     d="m 372.81,340.923 c 6.185,-3.484 13.172,-5.71 20.618,-6.326 v -70.529 c 0,-17.371 1.89,-44.687 4.224,-44.687 2.335,0 4.226,27.316 4.226,44.687 v 70.53 c 7.442,0.619 14.438,2.841 20.621,6.323 0,0 16.036,-26.539 16.036,-55.428 0,-40.667 -14.649,-65.445 -40.883,-85.223 -26.233,19.778 -40.882,44.556 -40.882,85.223 0,28.889 16.04,55.43 16.04,55.43"
     style="fill:#000000;fill-opacity:1;fill-rule:nonzero;stroke:none"
     id="path63172" />
  <path
     d="M 509.62,276.543 Z"
     style="fill:none;stroke:#000000;stroke-width:1.33333;stroke-linecap:butt;stroke-linejoin:miter;stroke-miterlimit:4;stroke-dasharray:none;stroke-opacity:1"
     id="path63176" />
  <path
     d="M 509.642,276.53 Z"
     style="fill:none;stroke:#000000;stroke-width:1.33333;stroke-linecap:butt;stroke-linejoin:miter;stroke-miterlimit:4;stroke-dasharray:none;stroke-opacity:1"
     id="path63180" />
  <path
     d="M 505.107,216.909 Z"
     style="fill:#000000;fill-opacity:1;fill-rule:nonzero;stroke:none"
     id="path63184" />
  <path
     d="m 551.092,432.049 c 0,0 16.781,6.945 26.317,-2.591 12.334,-12.333 3.238,-35.743 3.238,-35.743 0,0 16.814,7.016 24.363,-7.6 7.551,-14.616 -3.364,-30.4 -3.364,-30.4 0,0 17.254,-1 20.927,-11.406 6,-17 -9.481,-26.481 -9.481,-26.481 -5.628,-2.548 -14.268,-6.176 -21.667,-7.631 -9.965,-1.967 -20.54,-2.736 -30.941,-2.736 -20.869,-0.005 -41.007,3.115 -54.255,5.753 -6.862,12.176 -15.352,23.309 -25.18,33.1 -10.144,10.112 -21.721,18.804 -34.402,25.753 0.479,1.806 0.861,3.758 1.14,5.635 0.071,0 0.677,-0.007 1.123,-0.007 4.968,0.084 34.034,0.36 59.469,14.903 18.426,10.628 34.934,25.451 42.713,39.451"
     style="fill:#000000;fill-opacity:1;fill-rule:nonzero;stroke:none"
     id="path63188" />
  <path
     d="M 509.638,276.531 Z"
     style="fill:none;stroke:#000000;stroke-width:1.33333;stroke-linecap:butt;stroke-linejoin:miter;stroke-miterlimit:4;stroke-dasharray:none;stroke-opacity:1"
     id="path63192" />
  <path
     d="M 509.615,276.518 Z"
     style="fill:none;stroke:#000000;stroke-width:1.33333;stroke-linecap:butt;stroke-linejoin:miter;stroke-miterlimit:4;stroke-dasharray:none;stroke-opacity:1"
     id="path63196" />
  <path
     d="m 119.406,228.122 c -12.065,15.28 -22.9426,31.774 -32.3746,49.312 1.28,3.242 2.3653,7.003 3.0426,11.139 0,0 3.9067,0.587 7.0187,-3.191 3.1123,-3.777 2.4867,-10.874 2.4867,-10.874 0,0 3.2906,1.764 7.5136,-1.792 4.222,-3.556 2.666,-10.223 2.666,-10.223 0,0 3.555,2.667 6.667,0 3.112,-2.667 2.619,-9.904 2.619,-9.904 -0.256,-3.297 -0.444,-7.028 -0.448,-10.896 0,-1.217 0.02,-2.447 0.062,-3.667 0.108,-3.042 0.386,-6.456 0.747,-9.904"
     style="fill:#000000;fill-opacity:1;fill-rule:nonzero;stroke:none"
     id="path63200" />
  <path
     d="m 452.286,224.521 c 0,0 -1.834,-0.333 -3.512,-0.363 l -0.867,-0.005 c -1.588,0 -5.045,0.292 -9.101,2.484 -2.14,1.165 -3.491,2.5 -4.246,3.527 0.059,0.189 0.116,0.43 0.174,0.618 0.112,0.219 0.225,0.44 0.336,0.66 7.602,15.034 11.474,32.774 11.464,54.051 -0.155,31.793 -16.932,58.945 -17.191,59.562 l -0.196,0.326 c 1.7,1.352 3.395,2.901 4.907,4.461 10.658,-5.808 20.392,-13.1 28.933,-21.601 22.984,-22.919 37.137,-54.44 37.144,-89.417 v -0.13 c 0,-0.056 0,-0.13 0.002,-0.224 -0.053,-10.869 -1.242,-21.092 -3.486,-30.66 l -0.744,-0.42 -0.019,-0.004 c -0.105,-0.048 -0.303,-0.126 -0.575,-0.212 -0.55,-0.172 -1.396,-0.362 -2.442,-0.362 -0.76,0.004 -1.612,0.094 -2.574,0.369 -5.213,1.511 -9.09,6.673 -9.09,6.673 0,0 -2.968,-2.038 -5.751,-3.166 -2.783,-1.128 -6.025,-1.82 -8.977,-1.814 -1.32,0 -2.631,0.17 -3.921,0.568 -2.927,0.887 -5.078,3.034 -6.646,5.478 -2.789,4.768 -3.622,9.601 -3.622,9.601"
     style="fill:#000000;fill-opacity:1;fill-rule:nonzero;stroke:none"
     id="path63204" />
  <path
     d="m 447.446,137.92 v 0 c -2.264,1.256 -5.499,3.189 -9.216,5.817 -7.435,5.263 -16.868,13.348 -24.803,24.536 -1.929,2.719 -4.837,6.815 -6.364,9.574 0,0 -4.861,9.424 0.472,14.424 5.333,4.999 12.667,-1.667 12.667,-1.667 0,0 -3,9.666 1.333,13.666 4.333,4 14.333,-0.666 14.333,-0.666 0,0 -3,7.666 3.09,14.209 2.937,-1.072 5.521,-1.479 7.434,-1.608 0.446,-1.184 1.066,-2.617 1.911,-4.14 2.103,-3.777 5.767,-8.371 11.903,-10.273 2.144,-0.659 4.265,-0.92 6.268,-0.92 5.422,0.05 9.997,1.816 12.863,3.258 1.792,-1.644 4.592,-3.485 8.768,-4.644 1.719,-0.494 3.335,-0.673 4.76,-0.673 0.459,0.001 0.896,0.02 1.316,0.051 -5.664,-17.785 -15.252,-33.12 -28.25,-46.015 -5.505,-5.437 -11.709,-10.413 -18.485,-14.929"
     style="fill:#000000;fill-opacity:1;fill-rule:nonzero;stroke:none"
     id="path63208" />
  <path
     d="m 341.567,159.283 c 0,0 -2.697,13.321 4.636,15.321 7.333,2 14.039,-7.559 14.039,-7.559 0,0 -0.992,10.727 6.294,11.892 8.334,1.334 13.334,-7 13.334,-7 0,0 -2.334,9 6.666,11.667 6.672,1.979 13.671,-9.881 13.671,-9.881 2.015,-3.234 4.251,-6.628 6.699,-10.079 11.069,-15.567 24.548,-25.415 32.881,-30.52 -17.84,-10.252 -39.388,-17.459 -64.219,-20.887 -2.453,2.122 -5.85,5.23 -9.593,9.139 -7.496,7.82 -16.333,18.859 -21.736,31.409 -0.983,2.279 -1.871,4.446 -2.672,6.498"
     style="fill:#000000;fill-opacity:1;fill-rule:nonzero;stroke:none"
     id="path63212" />
  <path
     d="m 301.945,114.011 v 0 c -2.01,2.136 -4.598,5.034 -7.602,8.808 -6.02,7.533 -12.941,17.829 -16.637,28.428 -1.387,3.968 -2.539,7.685 -3.497,11.125 0,0 -2.006,13.232 6.014,12.697 6.647,-0.442 12.424,-11.021 12.424,-11.021 0,0 0.884,9.245 9.568,8.752 9.322,-0.529 10.654,-9.863 10.654,-9.863 0,0 1.556,9.778 10,9.667 6.333,-0.084 9.509,-11.624 9.509,-11.624 0.185,-0.512 2.996,-7.848 4.513,-11.364 7.289,-16.779 19.54,-30.397 28.105,-38.571 -6.672,-0.6 -13.369,-0.897 -20.108,-0.905 -0.11,0 -0.201,-0.004 -0.278,0 -14.208,-0.008 -28.479,1.311 -42.665,3.871"
     style="fill:#000000;fill-opacity:1;fill-rule:nonzero;stroke:none"
     id="path63216" />
  <path
     d="m 231.647,137.14 c -0.89,1.769 -1.894,3.828 -2.953,6.105 -3.62,7.778 -7.875,18.14 -10.421,28.248 -0.747,2.967 -1.342,5.763 -1.814,8.382 -0.172,0.958 -0.328,1.892 -0.468,2.802 0,0 0.434,8.927 6.212,7.816 7.538,-1.449 8.888,-11.112 8.888,-11.112 0,0 1.788,7.588 8.446,6.002 6.657,-1.586 8.222,-10.89 8.222,-10.89 0,0 3.555,6.223 8.888,5.334 5.334,-0.89 7.667,-10.867 7.667,-10.867 0.241,-1.087 0.503,-2.209 0.787,-3.371 1.224,-5.013 2.861,-10.706 5.054,-16.98 4.411,-12.494 12.298,-23.873 18.831,-31.91 -19.492,4.569 -38.736,11.458 -57.339,20.441"
     style="fill:#000000;fill-opacity:1;fill-rule:nonzero;stroke:none"
     id="path63220" />
  <path
     d="m 176.4,171.505 c -0.622,1.74 -1.327,3.807 -2.05,6.096 -2.202,6.951 -4.542,15.998 -5.16,23.984 -0.142,1.816 -0.245,3.604 -0.314,5.352 0,0 0.88,9.497 5.996,7.333 5.777,-2.444 6.889,-12.666 6.889,-12.666 0,0 2.587,6.681 7.896,4.449 4.771,-2.004 5.881,-10.671 5.881,-10.671 0,0 2.599,5.462 6.667,4.444 5.333,-1.333 5.321,-14.259 5.321,-14.259 0.553,-4.696 1.488,-10.06 2.992,-16.031 2.395,-9.461 6.065,-18.844 9.451,-26.436 -15.087,8.12 -29.683,17.629 -43.569,28.405"
     style="fill:#000000;fill-opacity:1;fill-rule:nonzero;stroke:none"
     id="path63224" />
  <path
     d="m 126.625,244.27 c 0,0 2.522,4.247 6.161,2.124 3.64,-2.122 5.512,-12.473 5.512,-12.473 0,0 3.271,4.345 7.684,1.684 4.412,-2.661 4.223,-11.333 4.223,-11.333 0,0 4.221,4.889 7.777,2 3.556,-2.89 2.793,-11.335 2.793,-11.335 -0.01,-0.727 -0.014,-1.465 -0.014,-2.215 0.002,-3.693 0.132,-7.652 0.453,-11.765 0.552,-6.851 2.124,-14.006 3.861,-20.25 -8.348,7.098 -16.4,14.67 -24.105,22.686 -4.107,4.269 -8.115,8.663 -12.016,13.176 -0.059,0.4 -0.119,0.808 -0.179,1.223 -0.936,6.472 -1.917,14.528 -2.121,20.51 -0.039,1.126 -0.057,2.262 -0.057,3.39 0,0.864 0.008,1.724 0.028,2.578"
     style="fill:#000000;fill-opacity:1;fill-rule:nonzero;stroke:none"
     id="path63228" />
  <path
     d="M 247.62,342.459 Z"
     style="fill:none;stroke:#000000;stroke-width:1.33333;stroke-linecap:butt;stroke-linejoin:miter;stroke-miterlimit:4;stroke-dasharray:none;stroke-opacity:1"
     id="path63232" />
  <path
     d="M 198.256,376.198 Z"
     style="fill:#000000;fill-opacity:1;fill-rule:nonzero;stroke:none"
     id="path63236" />
  <path
     d="m 454.048,716.094 c 3.286,-0.041 6.575,-0.133 9.867,-0.27 0.237,-0.37 0.433,-0.678 0.467,-0.724 4.967,-7.339 16.995,-18.144 31.646,-18.594 12.533,-0.388 23.741,3.583 30.269,9.875 9.687,-6.044 19.672,-12.019 29.99,-17.087 4.408,-2.158 8.87,-4.23 13.389,-6.205 3.797,-1.659 7.632,-3.249 11.496,-4.773 12.456,-4.896 25.217,-8.916 37.952,-12.128 -17.679,23.125 -41.312,40.352 -69.139,48.152 -7.432,2.085 -14.885,3.426 -22.298,4.054 -4.904,7.744 -14.882,14.422 -27.138,17.198 -13.86,3.133 -27.55,-3.75 -34.302,-9.522 -0.1,-0.08 -0.545,-0.434 -0.921,-0.736 -122.984,5.518 -239.979,-53.625 -294.625,-148.297 -4.732,-8.216 -8.993,-16.705 -12.741,-25.442 -17.331,-40.367 -21.504,-79.62 -12.551,-113.932 8.927,-34.305 31.096,-63.456 65.413,-83.284 46.753,-27.057 102.364,-24.826 145.77,1.003 -1.877,2.597 -3.496,5.355 -4.84,8.227 -10.642,-6.335 -22.07,-11.148 -33.937,-14.351 -33.332,-8.993 -70.006,-5.239 -102.221,13.407 -32.362,18.765 -52.632,45.607 -60.969,77.441 -8.316,31.836 -4.587,68.88 12.08,107.723 3.6,8.386 7.693,16.534 12.243,24.438 37.707,65.518 107.126,113.843 187.751,133.775 28.071,6.94 57.475,10.443 87.349,10.052"
     style="fill:#000000;fill-opacity:1;fill-rule:nonzero;stroke:none"
     id="path63240" />
  <path
     d="m 422.694,745.277 c 0,0 1.933,3.921 6.686,3.486 4.752,-0.434 7.772,-4.552 7.772,-4.552 0,0 4.132,3.839 9.607,2.987 5.473,-0.851 7.895,-5.328 7.895,-5.328 0,0 4.086,3.415 9.333,2.503 5.246,-0.911 7.437,-5.446 7.437,-5.446 -3.357,-1.669 -6.308,-3.56 -8.796,-5.492 -15.845,0.579 -31.586,0.107 -47.108,-1.349 0.976,1.461 1.956,3.027 2.923,4.701 0.323,0.555 0.637,1.115 0.951,1.687 1.278,2.344 2.373,4.641 3.3,6.803"
     style="fill:#000000;fill-opacity:1;fill-rule:nonzero;stroke:none"
     id="path63244" />
  <path
     d="m 404.727,730.915 c -13.185,-1.634 -26.188,-3.984 -38.939,-7.006 1.683,3.743 3.216,7.659 4.131,11.167 0.768,3.016 1.303,5.812 1.669,8.347 0,0 1.936,5.244 6.568,5.945 4.634,0.7 7.568,-3.883 7.568,-3.883 0,0 2.734,4.58 7.506,4.424 4.773,-0.158 6.526,-4.158 6.526,-4.158 0,0 2.3,4.354 7.426,3.898 5.125,-0.458 6.177,-5.466 6.177,-5.466 -0.313,-0.62 -0.641,-1.24 -0.981,-1.864 -0.287,-0.524 -0.572,-1.038 -0.86,-1.535 -2.286,-3.96 -4.678,-7.268 -6.791,-9.869"
     style="fill:#000000;fill-opacity:1;fill-rule:nonzero;stroke:none"
     id="path63248" />
  <path
     d="m 355.687,721.363 c -16.153,-4.331 -31.862,-9.748 -46.981,-16.191 1.285,5.227 2.183,11.256 1.987,17.571 -0.112,2.89 -0.526,6.016 -1.078,9.081 0,0 0.867,6.733 6.311,8.544 6.984,2.317 11.588,-3.484 11.588,-3.484 0,0 1.993,5.539 7.64,7.007 5.434,1.417 9.986,-4.034 9.986,-4.034 0,0 3.722,7.096 9.58,7.142 5.862,0.046 8.548,-4.915 8.548,-4.915 -0.288,-1.583 -0.649,-3.263 -1.1,-5.027 -1.12,-4.492 -3.924,-10.637 -6.481,-15.694"
     style="fill:#000000;fill-opacity:1;fill-rule:nonzero;stroke:none"
     id="path63252" />
  <path
     d="m 247.806,716.985 c 6.896,3.56 13.379,-1.208 13.379,-1.208 0,0 1.122,7.948 8.37,10.049 7.396,2.146 12.315,-2.156 12.315,-2.156 0,0 0.524,7.063 8.143,9.591 7.302,2.424 12.174,-5.56 12.174,-5.56 0.272,-1.855 0.458,-3.637 0.511,-5.237 0.304,-7.922 -1.601,-15.736 -3.593,-21.563 -18.467,-8.541 -35.934,-18.607 -52.179,-30.106 0.428,6.769 0.28,14.706 -1.457,22.547 -0.902,3.971 -2.115,7.846 -3.442,11.44 0,0 -1.117,8.64 5.779,12.203"
     style="fill:#000000;fill-opacity:1;fill-rule:nonzero;stroke:none"
     id="path63256" />
  <path
     d="m 179.721,675.563 c 6.776,5.071 14.532,1.618 14.532,1.618 0,0 -1.061,8.825 6.402,13.754 7.464,4.928 13.534,-0.114 13.534,-0.114 0,0 -0.236,8.961 7.498,12.784 7.735,3.822 13.295,-2.859 13.295,-2.859 1.047,-2.956 1.985,-6.055 2.681,-9.161 2.17,-9.516 1.598,-19.776 0.618,-27.123 -17.196,-13.065 -32.844,-27.768 -46.569,-43.923 -1.5,7.587 -3.878,16.866 -7.576,25.631 -2.432,5.729 -5.207,10.696 -7.97,14.904 0,0 -3.221,9.421 3.555,14.489"
     style="fill:#000000;fill-opacity:1;fill-rule:nonzero;stroke:none"
     id="path63260" />
  <path
     d="m 113.105,606.792 c 5.624,8.019 14.715,6.875 14.715,6.875 0,0 -1.936,10.87 4.352,17.761 6.286,6.891 15.733,5.028 15.733,5.028 0,0 -1.489,10.139 5.669,16.484 9.463,8.393 16.823,2.316 16.823,2.316 2.22,-3.529 4.419,-7.603 6.371,-12.209 4.549,-10.706 7.03,-22.771 8.264,-30.679 -7.794,-9.912 -14.883,-20.328 -21.188,-31.206 -0.015,-0.026 -0.068,-0.11 -0.146,-0.252 l -0.009,-0.016 c -4.852,-8.438 -9.227,-17.164 -13.08,-26.14 -0.301,-0.702 -0.571,-1.44 -0.864,-2.142 -5.348,9.43 -13.355,20.97 -24.176,29.714 -4.612,3.706 -9.056,6.706 -13.142,9.128 -0.362,0.213 -4.946,7.317 0.678,15.338"
     style="fill:#000000;fill-opacity:1;fill-rule:nonzero;stroke:none"
     id="path63264" />
  <path
     d="m 92.5596,575.264 c 5.008,10.454 15.2524,9.626 15.4854,9.487 3.863,-2.273 8.099,-5.117 12.515,-8.661 11.886,-9.476 20.494,-23.69 25.31,-33.186 -8.337,-22.552 -12.71,-44.834 -13.02,-66.161 -1.746,1.081 -3.654,2.227 -5.704,3.409 -10.897,6.282 -25.592,13.55 -40.1477,16.482 -5.6453,1.133 -10.8666,1.592 -15.5893,1.604 0,0 -8.5893,6.554 -5.276,16.586 3.772,11.422 14.6707,13.855 14.6707,13.855 0,0 -6.408,9.345 -2.0667,18.643 4.868,10.426 15.7573,10.404 15.7573,10.404 0,0 -7.0267,6.908 -1.9347,17.538"
     style="fill:#000000;fill-opacity:1;fill-rule:nonzero;stroke:none"
     id="path63268" />
  <path
     d="m 55.8319,402.095 c -3.672,10.972 9.4026,22.284 9.4026,22.284 0,0 -11.6813,4.435 -12.4546,16.427 -0.7734,11.995 13.4746,18.008 13.4746,18.008 0,0 -10.876,6.505 -10.0093,17.641 0.9507,12.224 15.3266,13.785 15.3266,13.785 4.1667,-0.022 8.796,-0.437 13.852,-1.45 13.0666,-2.599 27.2562,-9.51 37.7222,-15.564 3.846,-2.222 7.2,-4.324 9.839,-6.047 0.475,-10.818 2.028,-21.36 4.68,-31.532 2.845,-10.973 6.996,-21.468 12.387,-31.338 -14.658,2.008 -37.372,2.666 -59.9202,-6.483 -6.1533,-2.509 -11.4893,-5.195 -16.0987,-7.9 0,0 -14.5292,1.196 -18.2012,12.169"
     style="fill:#000000;fill-opacity:1;fill-rule:nonzero;stroke:none"
     id="path63272" />
  <path
     d="m 105.136,295.1 c -9.8662,12.634 -1.582,25.428 -1.582,25.428 0,0 -13.4762,-4.29 -20.6682,5.692 -6.432,8.926 2.068,23.649 2.068,23.649 0,0 -11.9706,-1.85 -17.2653,7.25 -6.4253,11.048 6.6973,23.627 6.6973,23.627 5.0293,3.251 11.2173,6.583 18.772,9.672 24.1402,9.921 49.4842,7.332 62.2522,4.92 11.142,-17.145 26.306,-32.112 45.157,-44.095 -16.847,-6.718 -41.657,-18.782 -58.547,-36.739 -5.608,-5.995 -9.92,-11.971 -13.218,-17.684 -0.166,-0.287 -0.328,-0.574 -0.488,-0.858 0,0 -14.97,-11.37 -23.178,-0.862"
     style="fill:#000000;fill-opacity:1;fill-rule:nonzero;stroke:none"
     id="path63276" />
  <path
     d="m 135.554,264.845 c -11.76,8.073 -1.253,25.385 -1.253,25.385 0.451,0.856 0.927,1.719 1.429,2.588 2.998,5.192 6.94,10.667 12.134,16.222 17.312,18.629 45.57,31.11 61.457,37.003 19.581,-10.85 40.646,-16.954 61.674,-18.59 -8.724,-10.315 -19.558,-24.291 -28.936,-40.516 -5.397,-9.348 -10.245,-19.329 -13.748,-29.577 -2.46,-7.207 -3.902,-14.03 -4.626,-20.354 0,0 -7.84,-17.753 -21.523,-12.11 -14.292,5.896 -15.798,20.622 -15.798,20.622 0,0 -9.647,-8.742 -21.352,-2.321 -12.571,6.896 -10.358,21.397 -10.358,21.397 0,0 -9.69,-6.206 -19.1,0.251"
     style="fill:#000000;fill-opacity:1;fill-rule:nonzero;stroke:none"
     id="path63280" />
  <path
     d="m 371.804,428.735 c -6.11,-3.614 -11.532,-8.552 -15.789,-14.693 l -61.078,35.264 c -15.046,8.687 -39.646,20.708 -40.814,18.686 -1.166,-2.022 21.544,-17.317 36.59,-26.002 l 61.079,-35.265 c -3.185,-6.755 -4.758,-13.926 -4.836,-21.02 0,0 -31.001,-0.619 -56.018,13.825 -35.219,20.333 -49.353,45.411 -53.365,78.017 30.245,12.831 59.029,13.128 94.248,-7.205 25.017,-14.445 39.983,-41.607 39.983,-41.607"
     style="fill:#000000;fill-opacity:1;fill-rule:nonzero;stroke:none"
     id="path63284" />
  <path
     d="M 247.644,342.445 Z"
     style="fill:none;stroke:#000000;stroke-width:1.33333;stroke-linecap:butt;stroke-linejoin:miter;stroke-miterlimit:4;stroke-dasharray:none;stroke-opacity:1"
     id="path63288" />
  <path
     d="M 247.622,342.433 Z"
     style="fill:none;stroke:#000000;stroke-width:1.33333;stroke-linecap:butt;stroke-linejoin:miter;stroke-miterlimit:4;stroke-dasharray:none;stroke-opacity:1"
     id="path63292" />
  <path
     d="M 198.256,376.172 Z"
     style="fill:#000000;fill-opacity:1;fill-rule:nonzero;stroke:none"
     id="path63296" />
  <path
     d="m 361.579,228.776 c 0,0 -2.376,-18.006 -15.404,-21.495 -16.846,-4.515 -32.57,15.067 -32.57,15.067 0,0 -2.332,-18.071 -18.766,-17.3 -16.432,0.769 -24.644,18.113 -24.644,18.113 0,0 -9.493,-14.441 -20.342,-12.419 -17.723,3.303 -18.191,21.451 -18.191,21.451 0.607,6.148 1.783,15.444 4.223,22.58 3.28,9.612 7.901,19.156 13.102,28.164 10.43,18.076 23.2,33.955 32.11,44.109 13.976,-0.145 27.862,1.641 41.254,5.257 13.829,3.727 27.145,9.408 39.505,16.916 1.323,-1.317 2.823,-2.624 4.308,-3.805 -0.034,-0.06 -0.342,-0.583 -0.565,-0.969 -2.411,-4.344 -16.705,-29.653 -16.829,-58.952 -0.01,-21.272 4.574,-42.98 12.809,-56.717"
     style="fill:#000000;fill-opacity:1;fill-rule:nonzero;stroke:none"
     id="path63300" />
  <path
     d="M 247.624,342.436 Z"
     style="fill:none;stroke:#000000;stroke-width:1.33333;stroke-linecap:butt;stroke-linejoin:miter;stroke-miterlimit:4;stroke-dasharray:none;stroke-opacity:1"
     id="path63304" />
  <path
     d="M 247.626,342.462 Z"
     style="fill:none;stroke:#000000;stroke-width:1.33333;stroke-linecap:butt;stroke-linejoin:miter;stroke-miterlimit:4;stroke-dasharray:none;stroke-opacity:1"
     id="path63308" />
  <path
     d="m 400.818,704.592 c 19.264,2.807 38.986,3.981 58.893,3.38 2.167,-2.729 4.881,-5.549 8.124,-8.203 0,0 -1.444,-3.677 -6.271,-4.484 -4.829,-0.805 -10.662,3.283 -10.662,3.283 0,0 -0.118,-3.731 -5.308,-5.609 -5.192,-1.88 -10.187,2.802 -10.187,2.802 0,0 0.532,-4.414 -3.333,-5.773 -3.866,-1.363 -9.888,2.683 -9.888,2.683 -2.727,1.869 -5.863,3.897 -9.212,5.836 -1.054,0.609 -2.128,1.205 -3.207,1.778 -2.689,1.43 -5.783,2.895 -8.949,4.307"
     style="fill:#000000;fill-opacity:1;fill-rule:nonzero;stroke:none"
     id="path63312" />
  <path
     d="m 231.258,418.111 c 0,0 0.629,1.752 1.441,3.222 l 0.43,0.754 c 0.793,1.374 2.776,4.222 6.702,6.639 2.079,1.271 3.91,1.773 5.178,1.913 0.133,-0.145 0.313,-0.314 0.448,-0.46 0.133,-0.206 0.269,-0.414 0.404,-0.62 9.217,-14.101 22.645,-26.325 41.078,-36.953 27.61,-15.764 59.513,-14.811 60.177,-14.893 l 0.379,0.006 c 0.321,-2.149 0.816,-4.39 1.411,-6.481 -10.36,-6.327 -21.541,-11.109 -33.175,-14.256 -31.34,-8.444 -65.714,-4.941 -96.009,12.543 l -0.112,0.064 c -0.048,0.028 -0.112,0.065 -0.196,0.109 -9.387,5.481 -17.644,11.623 -24.808,18.351 l 0.01,0.853 0.004,0.017 c 0.012,0.116 0.042,0.327 0.105,0.604 0.125,0.563 0.383,1.391 0.905,2.299 0.384,0.655 0.89,1.347 1.607,2.043 3.916,3.758 10.326,4.536 10.326,4.536 0,0 -0.282,3.59 0.132,6.562 0.415,2.974 1.435,6.127 2.919,8.682 0.659,1.144 1.46,2.193 2.452,3.112 2.231,2.092 5.165,2.881 8.065,3.016 5.526,0.032 10.127,-1.662 10.127,-1.662"
     style="fill:#000000;fill-opacity:1;fill-rule:nonzero;stroke:none"
     id="path63316" />
  <path
     d="m 158.681,465.6 v 0 c 2.22,1.334 5.511,3.17 9.645,5.074 8.275,3.806 19.994,7.934 33.651,9.21 3.318,0.312 8.32,0.784 11.472,0.727 0,0 10.593,-0.503 12.257,-7.623 1.663,-7.117 -7.777,-10.136 -7.777,-10.136 0,0 9.87,-2.233 11.169,-7.986 1.296,-5.752 -7.745,-12.08 -7.745,-12.08 0,0 8.14,-1.235 10.761,-9.779 -2.397,-2.008 -4.041,-4.045 -5.109,-5.636 -1.248,0.206 -2.799,0.386 -4.542,0.418 -4.321,0.066 -10.133,-0.811 -14.849,-5.172 -1.641,-1.53 -2.928,-3.235 -3.929,-4.97 -2.667,-4.721 -3.426,-9.565 -3.611,-12.77 -2.318,-0.73 -5.313,-2.235 -8.405,-5.271 -1.288,-1.241 -2.249,-2.552 -2.963,-3.785 -0.228,-0.399 -0.432,-0.787 -0.613,-1.166 -12.572,13.8 -21.059,29.768 -25.725,47.472 -1.958,7.487 -3.164,15.348 -3.687,23.473"
     style="fill:#000000;fill-opacity:1;fill-rule:nonzero;stroke:none"
     id="path63320" />
  <path
     d="m 230.121,546.614 c 0,0 12.885,-4.323 10.95,-11.675 -1.933,-7.352 -13.565,-8.377 -13.565,-8.377 0,0 9.785,-4.506 7.151,-11.399 -3.011,-7.883 -12.728,-8.047 -12.728,-8.047 0,0 8.961,-2.478 6.77,-11.606 -1.624,-6.768 -15.393,-6.899 -15.393,-6.899 -3.808,-0.128 -7.865,-0.367 -12.079,-0.763 -19.015,-1.802 -34.282,-8.552 -42.87,-13.216 0.041,20.575 4.573,42.842 14.02,66.06 3.064,1.062 7.453,2.45 12.713,3.736 10.519,2.584 24.497,4.716 38.067,3.12 2.466,-0.286 4.785,-0.601 6.964,-0.934"
     style="fill:#000000;fill-opacity:1;fill-rule:nonzero;stroke:none"
     id="path63324" />
  <path
     d="m 210.725,603.564 v 0 c 2.856,0.672 6.658,1.464 11.429,2.18 9.535,1.445 21.912,2.292 32.937,0.192 4.13,-0.781 7.927,-1.643 11.384,-2.533 0,0 12.462,-4.878 7.99,-11.557 -3.708,-5.534 -15.759,-5.248 -15.759,-5.248 0,0 7.567,-5.391 2.797,-12.664 -5.12,-7.807 -13.868,-4.294 -13.868,-4.294 0,0 7.688,-6.237 3.371,-13.493 -3.239,-5.444 -14.82,-2.424 -14.82,-2.424 -0.537,0.096 -8.296,1.331 -12.1,1.773 -18.175,2.079 -36.094,-1.724 -47.454,-5.054 2.816,6.078 5.906,12.029 9.269,17.868 0.056,0.096 0.097,0.176 0.139,0.241 7.098,12.308 15.375,24.008 24.685,35.013"
     style="fill:#000000;fill-opacity:1;fill-rule:nonzero;stroke:none"
     id="path63328" />
  <path
     d="m 265.905,652.879 c 1.977,-0.115 4.261,-0.274 6.762,-0.495 8.546,-0.756 19.648,-2.251 29.675,-5.099 2.943,-0.838 5.661,-1.721 8.165,-2.622 0.916,-0.331 1.803,-0.662 2.662,-0.995 0,0 7.514,-4.839 3.662,-9.289 -5.022,-5.803 -14.066,-2.14 -14.066,-2.14 0,0 5.676,-5.342 0.974,-10.316 -4.702,-4.971 -13.541,-1.675 -13.541,-1.675 0,0 3.611,-6.189 0.175,-10.364 -3.439,-4.175 -13.246,-1.205 -13.246,-1.205 -1.061,0.333 -2.165,0.669 -3.31,1.002 -4.955,1.447 -10.706,2.875 -17.234,4.114 -13.026,2.428 -26.824,1.286 -37.05,-0.354 13.702,14.596 29.29,27.818 46.372,39.438"
     style="fill:#000000;fill-opacity:1;fill-rule:nonzero;stroke:none"
     id="path63332" />
  <path
     d="m 323.29,683.542 c 1.816,-0.333 3.96,-0.754 6.304,-1.273 7.12,-1.568 16.125,-4.065 23.349,-7.524 1.645,-0.784 3.244,-1.588 4.793,-2.402 0,0 7.786,-5.511 3.354,-8.86 -5.006,-3.782 -14.415,0.366 -14.415,0.366 0,0 4.492,-5.58 -0.095,-9.061 -4.12,-3.131 -12.181,0.241 -12.181,0.241 0,0 3.429,-4.981 0.516,-7.994 -3.821,-3.954 -15.012,2.521 -15.012,2.521 -4.342,1.867 -9.456,3.739 -15.377,5.424 -9.392,2.656 -19.353,4.169 -27.62,5.032 14.575,9.004 30.108,16.892 46.384,23.53"
     style="fill:#000000;fill-opacity:1;fill-rule:nonzero;stroke:none"
     id="path63336" />
  <path
     d="m 411.194,690.266 c 0,0 2.417,-4.306 -1.242,-6.398 -3.658,-2.091 -13.558,1.464 -13.558,1.464 0,0 2.128,-5.006 -2.383,-7.498 -4.512,-2.489 -11.927,2.011 -11.927,2.011 0,0 2.124,-6.103 -2.156,-7.737 -4.28,-1.634 -11.213,3.246 -11.213,3.246 -0.624,0.374 -1.261,0.748 -1.911,1.123 -3.198,1.844 -6.693,3.711 -10.416,5.489 -6.209,2.946 -13.192,5.164 -19.468,6.782 10.322,3.68 20.906,6.868 31.7,9.534 5.751,1.422 11.559,2.695 17.419,3.818 0.376,-0.151 0.759,-0.303 1.148,-0.459 6.073,-2.424 13.54,-5.601 18.824,-8.419 0.993,-0.529 1.987,-1.081 2.964,-1.644 0.748,-0.432 1.489,-0.869 2.219,-1.312"
     style="fill:#000000;fill-opacity:1;fill-rule:nonzero;stroke:none"
     id="path63340" />
  <path
     d="M 435.729,536.387 Z"
     style="fill:none;stroke:#000000;stroke-width:1.33333;stroke-linecap:butt;stroke-linejoin:miter;stroke-miterlimit:4;stroke-dasharray:none;stroke-opacity:1"
     id="path63344" />
  <path
     d="M 489.629,562.267 Z"
     style="fill:#000000;fill-opacity:1;fill-rule:nonzero;stroke:none"
     id="path63348" />
  <path
     d="m 656.093,170.796 c -1.68,-2.823 -3.403,-5.627 -5.168,-8.411 -0.44,-0.018 -0.804,-0.034 -0.861,-0.04 -8.838,-0.633 -24.211,-5.648 -31.927,-18.11 -6.601,-10.66 -8.765,-22.352 -6.58,-31.151 -10.079,-5.368 -20.246,-11.028 -29.793,-17.4279 -4.075,-2.7387 -8.099,-5.568 -12.068,-8.4933 -3.337,-2.46 -6.631,-4.9854 -9.883,-7.5693 -10.468,-8.3387 -20.33,-17.3813 -29.478,-26.8026 28.865,3.7466 55.601,15.5999 76.269,35.7985 5.521,5.3947 10.409,11.1787 14.66,17.2836 9.16,0.375 19.929,5.678 28.464,14.903 9.642,10.436 10.528,25.735 8.905,34.467 -0.019,0.128 -0.105,0.69 -0.179,1.168 66.272,103.747 73.551,234.638 18.884,329.299 -4.748,8.205 -9.97,16.142 -15.661,23.757 -26.293,35.191 -58.203,58.433 -92.393,67.833 -34.172,9.423 -70.501,4.8 -104.832,-15.006 -46.809,-26.962 -72.682,-76.235 -72.017,-126.743 3.187,0.328 6.384,0.352 9.544,0.078 -0.165,12.386 1.38,24.69 4.539,36.567 8.88,33.363 30.468,63.246 62.722,81.822 32.433,18.645 65.813,22.777 97.549,14.082 31.73,-8.718 61.947,-30.469 87.252,-64.325 5.464,-7.311 10.472,-14.927 15.043,-22.82 37.886,-65.417 45.029,-149.696 21.978,-229.486 -8.025,-27.78 -19.694,-54.995 -34.969,-80.673"
     style="fill:#000000;fill-opacity:1;fill-rule:nonzero;stroke:none"
     id="path63352" />
  <path
     d="m 697.042,183.36 c 0,0 2.431,-3.636 -0.322,-7.533 -2.754,-3.899 -7.828,-4.455 -7.828,-4.455 0,0 1.256,-5.499 -2.216,-9.815 -3.475,-4.314 -8.562,-4.172 -8.562,-4.172 0,0 0.912,-5.246 -2.501,-9.333 -3.413,-4.089 -8.433,-3.719 -8.433,-3.719 0.23,3.742 0.069,7.243 -0.359,10.363 8.421,13.433 15.887,27.303 22.385,41.47 0.778,-1.573 1.643,-3.206 2.608,-4.881 0.322,-0.556 0.648,-1.109 0.987,-1.666 1.391,-2.28 2.833,-4.376 4.241,-6.259"
     style="fill:#000000;fill-opacity:1;fill-rule:nonzero;stroke:none"
     id="path63356" />
  <path
     d="m 693.588,206.1 c 5.178,12.234 9.642,24.67 13.404,37.224 2.398,-3.328 5.022,-6.615 7.605,-9.16 2.227,-2.174 4.381,-4.036 6.392,-5.62 0,0 3.573,-4.299 1.864,-8.66 -1.709,-4.363 -7.145,-4.614 -7.145,-4.614 0,0 2.6,-4.657 0.077,-8.71 -2.523,-4.056 -6.864,-3.575 -6.864,-3.575 0,0 2.621,-4.169 -0.337,-8.379 -2.959,-4.209 -7.822,-2.615 -7.822,-2.615 -0.38,0.58 -0.754,1.174 -1.124,1.781 -0.309,0.509 -0.61,1.014 -0.898,1.512 -2.288,3.958 -3.956,7.684 -5.152,10.816"
     style="fill:#000000;fill-opacity:1;fill-rule:nonzero;stroke:none"
     id="path63360" />
  <path
     d="m 709.836,253.346 c 4.326,16.154 7.489,32.468 9.472,48.782 3.882,-3.726 8.653,-7.519 14.222,-10.506 2.556,-1.348 5.471,-2.553 8.4,-3.608 0,0 5.4,-4.117 4.245,-9.736 -1.485,-7.208 -8.812,-8.293 -8.812,-8.293 0,0 3.8,-4.497 2.251,-10.12 -1.492,-5.416 -8.486,-6.633 -8.486,-6.633 0,0 4.285,-6.771 1.393,-11.867 -2.891,-5.1 -8.531,-4.944 -8.531,-4.944 -1.226,1.04 -2.501,2.192 -3.802,3.464 -3.33,3.216 -7.251,8.717 -10.352,13.461"
     style="fill:#000000;fill-opacity:1;fill-rule:nonzero;stroke:none"
     id="path63364" />
  <path
     d="m 759.985,348.963 c -0.364,-7.752 -7.736,-10.982 -7.736,-10.982 0,0 6.322,-4.947 4.518,-12.273 -1.841,-7.479 -8.025,-9.588 -8.025,-9.588 0,0 5.853,-3.984 4.235,-11.848 -1.552,-7.535 -10.902,-7.763 -10.902,-7.763 -1.741,0.692 -3.38,1.424 -4.79,2.177 -7.013,3.696 -12.828,9.254 -16.879,13.894 1.836,20.262 1.854,40.421 0.018,60.241 5.646,-3.756 12.596,-7.598 20.255,-10.012 3.888,-1.207 7.851,-2.092 11.627,-2.74 0,0 8.04,-3.354 7.679,-11.106"
     style="fill:#000000;fill-opacity:1;fill-rule:nonzero;stroke:none"
     id="path63368" />
  <path
     d="m 758.155,428.637 c 1.003,-8.404 -5.865,-13.396 -5.865,-13.396 0,0 8.173,-3.492 8.711,-12.422 0.536,-8.926 -6.867,-11.661 -6.867,-11.661 0,0 7.879,-4.277 7.324,-12.887 -0.557,-8.61 -9.124,-10.084 -9.124,-10.084 -3.084,0.571 -6.237,1.308 -9.275,2.259 -9.325,2.879 -17.926,8.504 -23.798,13.025 -2.717,21.426 -7.627,42.33 -14.753,62.294 7.321,-2.495 16.544,-5.076 25.985,-6.256 6.177,-0.758 11.865,-0.839 16.89,-0.55 0,0 9.771,-1.921 10.772,-10.322"
     style="fill:#000000;fill-opacity:1;fill-rule:nonzero;stroke:none"
     id="path63372" />
  <path
     d="m 731.906,520.712 c 4.133,-8.88 -1.402,-16.18 -1.402,-16.18 0,0 10.381,-3.76 13.205,-12.648 2.824,-8.89 -3.512,-16.141 -3.512,-16.141 0,0 9.524,-3.781 11.441,-13.153 2.537,-12.391 -6.407,-15.727 -6.407,-15.727 -4.166,-0.156 -8.794,-0.022 -13.757,0.59 -11.548,1.413 -23.237,5.296 -30.704,8.181 -4.685,11.706 -10.161,23.052 -16.43,33.953 -0.014,0.027 -0.06,0.115 -0.144,0.251 l -0.01,0.014 c -4.881,8.423 -10.252,16.576 -16.098,24.402 -0.456,0.609 -0.963,1.213 -1.423,1.818 10.84,-0.084 24.836,1.08 37.823,6.08 5.513,2.142 10.334,4.49 14.474,6.818 0.366,0.206 8.81,0.622 12.944,-8.258"
     style="fill:#000000;fill-opacity:1;fill-rule:nonzero;stroke:none"
     id="path63376" />
  <path
     d="m 714.873,554.27 c 6.549,-9.563 0.709,-18.022 0.473,-18.154 -3.897,-2.208 -8.481,-4.456 -13.757,-6.508 -14.151,-5.554 -30.764,-5.904 -41.395,-5.328 -15.361,18.498 -32.472,33.427 -50.786,44.356 1.808,0.975 3.754,2.055 5.804,3.235 10.888,6.3 24.529,15.391 34.348,26.529 3.802,4.325 6.81,8.617 9.182,12.7 0,0 9.971,4.161 17.002,-3.724 8.006,-8.976 4.664,-19.633 4.664,-19.633 0,0 11.297,0.879 17.177,-7.531 6.597,-9.429 1.133,-18.849 1.133,-18.849 0,0 9.496,2.633 16.155,-7.093"
     style="fill:#000000;fill-opacity:1;fill-rule:nonzero;stroke:none"
     id="path63380" />
  <path
     d="m 583.269,672.662 c 11.339,-2.306 14.596,-19.286 14.596,-19.286 0,0 9.683,7.901 20.455,2.573 10.773,-5.328 8.858,-20.675 8.858,-20.675 0,0 11.071,6.167 20.282,-0.15 10.112,-6.935 4.277,-20.167 4.277,-20.167 -2.105,-3.597 -4.777,-7.399 -8.183,-11.271 -8.784,-10.016 -21.866,-18.849 -32.342,-24.885 -3.846,-2.223 -7.344,-4.073 -10.156,-5.499 -9.604,4.999 -19.512,8.926 -29.647,11.715 -10.926,3.023 -22.089,4.673 -33.333,4.94 9.067,11.689 20.997,31.033 24.347,55.135 0.902,6.584 1.245,12.546 1.206,17.89 0,0 8.302,11.986 19.64,9.68"
     style="fill:#000000;fill-opacity:1;fill-rule:nonzero;stroke:none"
     id="path63384" />
  <path
     d="m 465.958,683.459 c 15.874,2.229 22.811,-11.344 22.811,-11.344 0,0 3.024,13.816 15.264,15.055 10.947,1.106 19.447,-13.617 19.447,-13.617 0,0 4.385,11.291 14.911,11.327 12.781,0.043 17.114,-17.611 17.114,-17.611 0.3,-5.982 0.091,-13.007 -1.01,-21.094 -3.479,-25.866 -18.392,-46.521 -26.866,-56.372 -20.42,-1.078 -40.964,-6.726 -60.765,-17.06 2.605,17.948 4.563,45.466 -2.545,69.074 -2.388,7.853 -5.405,14.574 -8.705,20.288 -0.166,0.286 -0.332,0.57 -0.498,0.852 0,0 -2.362,18.647 10.842,20.502"
     style="fill:#000000;fill-opacity:1;fill-rule:nonzero;stroke:none"
     id="path63388" />
  <path
     d="m 424.546,672.246 c 12.872,6.148 22.612,-11.607 22.612,-11.607 0.514,-0.82 1.025,-1.664 1.526,-2.533 2.998,-5.191 5.768,-11.344 7.982,-18.62 7.477,-24.306 4.157,-55.019 1.317,-71.724 -19.188,-11.532 -35.007,-26.721 -46.937,-44.117 -4.572,12.713 -11.256,29.082 -20.62,45.317 -5.399,9.349 -11.618,18.536 -18.742,26.696 -5.009,5.733 -10.197,10.394 -15.312,14.184 0,0 -11.456,15.666 0.272,24.693 12.254,9.429 25.76,3.369 25.76,3.369 0,0 -2.748,12.727 8.666,19.654 12.257,7.437 23.709,-1.73 23.709,-1.73 0,0 -0.529,11.496 9.767,16.418"
     style="fill:#000000;fill-opacity:1;fill-rule:nonzero;stroke:none"
     id="path63392" />
  <path
     d="m 448.355,385.699 c -0.075,7.099 -1.639,14.263 -4.831,21.02 l 61.08,35.266 c 15.045,8.685 37.756,23.979 36.589,25.999 -1.168,2.022 -25.769,-9.997 -40.813,-18.683 l -61.081,-35.267 c -4.257,6.139 -9.68,11.087 -15.785,14.699 0,0 14.965,27.158 39.981,41.601 35.22,20.333 64.004,20.036 94.248,7.208 -4.011,-32.609 -18.146,-57.684 -53.363,-78.017 -25.019,-14.446 -56.025,-13.826 -56.025,-13.826"
     style="fill:#000000;fill-opacity:1;fill-rule:nonzero;stroke:none"
     id="path63396" />
  <path
     d="M 435.705,536.374 Z"
     style="fill:none;stroke:#000000;stroke-width:1.33333;stroke-linecap:butt;stroke-linejoin:miter;stroke-miterlimit:4;stroke-dasharray:none;stroke-opacity:1"
     id="path63400" />
  <path
     d="M 435.706,536.397 Z"
     style="fill:none;stroke:#000000;stroke-width:1.33333;stroke-linecap:butt;stroke-linejoin:miter;stroke-miterlimit:4;stroke-dasharray:none;stroke-opacity:1"
     id="path63404" />
  <path
     d="M 489.607,562.28 Z"
     style="fill:#000000;fill-opacity:1;fill-rule:nonzero;stroke:none"
     id="path63408" />
  <path
     d="m 280.297,494.535 c 0,0 -14.404,11.06 -10.914,24.088 4.515,16.847 29.334,20.675 29.334,20.675 0,0 -14.483,11.054 -5.599,24.898 8.883,13.847 28.009,12.287 28.009,12.287 0,0 -7.76,15.443 -0.584,23.828 11.723,13.696 27.672,5.029 27.672,5.029 5.021,-3.6 12.484,-9.269 17.443,-14.948 6.684,-7.649 12.64,-16.422 17.84,-25.43 10.438,-18.07 17.805,-37.07 22.146,-49.862 -7.114,-12.032 -12.512,-24.95 -16.076,-38.357 -3.686,-13.841 -5.424,-28.213 -5.102,-42.669 -1.803,-0.487 -3.684,-1.132 -5.451,-1.828 -0.033,0.06 -0.332,0.589 -0.556,0.975 -2.556,4.257 -17.328,29.293 -42.637,44.049 -18.419,10.645 -39.511,17.528 -55.525,17.265"
     style="fill:#000000;fill-opacity:1;fill-rule:nonzero;stroke:none"
     id="path63412" />
  <path
     d="M 435.707,536.394 Z"
     style="fill:none;stroke:#000000;stroke-width:1.33333;stroke-linecap:butt;stroke-linejoin:miter;stroke-miterlimit:4;stroke-dasharray:none;stroke-opacity:1"
     id="path63416" />
  <path
     d="M 435.728,536.379 Z"
     style="fill:none;stroke:#000000;stroke-width:1.33333;stroke-linecap:butt;stroke-linejoin:miter;stroke-miterlimit:4;stroke-dasharray:none;stroke-opacity:1"
     id="path63420" />
  <path
     d="m 672.745,222.648 c -7.2,-18.088 -16.045,-35.755 -26.519,-52.695 -3.446,-0.51 -7.246,-1.45 -11.166,-2.933 0,0 -2.462,3.091 -0.747,7.672 1.716,4.585 8.176,7.593 8.176,7.593 0,0 -3.173,1.967 -2.207,7.402 0.97,5.434 7.52,7.421 7.52,7.421 0,0 -4.086,1.745 -3.333,5.773 0.753,4.028 7.268,7.221 7.268,7.221 2.983,1.426 6.308,3.128 9.66,5.06 1.055,0.607 2.108,1.24 3.145,1.888 2.582,1.614 5.398,3.56 8.203,5.598"
     style="fill:#000000;fill-opacity:1;fill-rule:nonzero;stroke:none"
     id="path63424" />
  <path
     d="m 509.425,512.731 c 0,0 1.204,-1.421 2.071,-2.86 l 0.437,-0.749 c 0.794,-1.372 2.27,-4.516 2.4,-9.123 0.06,-2.437 -0.421,-4.273 -0.933,-5.44 -0.193,-0.044 -0.429,-0.115 -0.623,-0.159 -0.244,-0.013 -0.493,-0.026 -0.74,-0.038 -16.818,-0.934 -34.12,-6.451 -52.539,-17.1 -27.458,-16.028 -42.584,-44.135 -42.988,-44.669 l -0.183,-0.331 c -2.023,0.797 -4.211,1.491 -6.319,2.019 -0.298,12.136 1.151,24.21 4.242,35.857 8.357,31.364 28.577,59.382 58.867,76.877 l 0.111,0.065 c 0.049,0.026 0.113,0.066 0.192,0.115 9.441,5.388 18.888,9.468 28.297,12.309 l 0.735,-0.434 0.011,-0.014 c 0.096,-0.068 0.264,-0.2 0.472,-0.393 0.424,-0.391 1.013,-1.025 1.537,-1.935 0.375,-0.658 0.723,-1.442 0.967,-2.412 1.296,-5.27 -1.235,-11.21 -1.235,-11.21 0,0 3.249,-1.55 5.617,-3.396 2.368,-1.846 4.588,-4.307 6.06,-6.87 0.659,-1.14 1.168,-2.358 1.467,-3.68 0.697,-2.976 -0.087,-5.913 -1.42,-8.492 -2.735,-4.798 -6.503,-7.937 -6.503,-7.937"
     style="fill:#000000;fill-opacity:1;fill-rule:nonzero;stroke:none"
     id="path63428" />
  <path
     d="m 586.843,551.839 v 0 c 0.045,-2.591 -0.012,-6.357 -0.43,-10.891 -0.84,-9.07 -3.125,-21.281 -8.848,-33.748 -1.389,-3.03 -3.481,-7.596 -5.106,-10.298 0,0 -5.734,-8.92 -12.73,-6.803 -6.996,2.12 -4.889,11.803 -4.889,11.803 0,0 -6.871,-7.43 -12.503,-5.678 -5.63,1.754 -6.588,12.746 -6.588,12.746 0,0 -5.141,-6.434 -13.85,-4.431 -0.54,3.081 -1.48,5.524 -2.327,7.243 0.804,0.978 1.736,2.232 2.632,3.726 2.22,3.708 4.367,9.18 2.945,15.446 -0.501,2.185 -1.336,4.153 -2.337,5.888 -2.756,4.669 -6.571,7.746 -9.255,9.51 0.528,2.375 0.723,5.719 -0.362,9.916 -0.431,1.735 -1.084,3.224 -1.796,4.459 -0.232,0.396 -0.467,0.765 -0.703,1.115 18.236,3.986 36.311,3.352 53.975,-1.459 7.462,-2.049 14.874,-4.935 22.172,-8.544"
     style="fill:#000000;fill-opacity:1;fill-rule:nonzero;stroke:none"
     id="path63432" />
  <path
     d="m 621.282,449.465 c 0,0 -10.188,-8.998 -15.585,-3.648 -5.4,5.35 -0.475,15.937 -0.475,15.937 0,0 -8.794,-6.221 -13.445,-0.495 -5.322,6.552 -0.605,15.047 -0.605,15.047 0,0 -6.629,-6.522 -13.436,-0.06 -5.049,4.792 1.721,16.781 1.721,16.781 1.794,3.361 3.615,6.995 5.379,10.841 7.948,17.37 9.736,33.966 9.991,43.736 17.798,-10.325 34.813,-25.382 50.198,-45.17 -0.611,-3.188 -1.604,-7.683 -3.119,-12.882 -3.025,-10.4 -8.165,-23.572 -16.332,-34.525 -1.484,-1.992 -2.916,-3.844 -4.292,-5.562"
     style="fill:#000000;fill-opacity:1;fill-rule:nonzero;stroke:none"
     id="path63436" />
  <path
     d="m 680.3,437.785 v 0 c -0.847,-2.807 -2.062,-6.498 -3.827,-10.987 -3.515,-8.98 -8.971,-20.123 -16.301,-28.623 -2.742,-3.184 -5.387,-6.041 -7.886,-8.59 0,0 -10.457,-8.354 -14.004,-1.14 -2.94,5.977 3.334,16.269 3.334,16.269 0,0 -8.451,-3.856 -12.364,3.912 -4.203,8.336 3.214,14.156 3.214,14.156 0,0 -9.246,-3.539 -13.37,3.828 -3.096,5.527 5.31,14.047 5.31,14.047 0.351,0.417 5.3,6.518 7.587,9.592 10.887,14.699 16.555,32.119 19.349,43.623 3.856,-5.478 7.463,-11.129 10.839,-16.96 0.055,-0.097 0.103,-0.174 0.14,-0.242 7.111,-12.302 13.103,-25.32 17.979,-38.885"
     style="fill:#000000;fill-opacity:1;fill-rule:nonzero;stroke:none"
     id="path63440" />
  <path
     d="m 695.417,365.342 c -1.087,-1.656 -2.367,-3.555 -3.809,-5.609 -4.927,-7.024 -11.774,-15.891 -19.255,-23.15 -2.195,-2.13 -4.32,-4.044 -6.352,-5.761 -0.744,-0.627 -1.473,-1.231 -2.192,-1.807 0,0 -7.948,-4.089 -9.876,1.471 -2.513,7.253 5.18,13.255 5.18,13.255 0,0 -7.465,-2.246 -9.421,4.312 -1.955,6.56 5.32,12.565 5.32,12.565 0,0 -7.167,-0.031 -9.063,5.031 -1.895,5.064 5.577,12.074 5.577,12.074 0.82,0.752 1.664,1.539 2.527,2.366 3.728,3.566 7.84,7.833 12.177,12.868 8.615,10.068 14.528,22.586 18.22,32.264 5.79,-19.167 9.444,-39.278 10.967,-59.879"
     style="fill:#000000;fill-opacity:1;fill-rule:nonzero;stroke:none"
     id="path63444" />
  <path
     d="m 693.281,300.312 c -1.196,-1.407 -2.635,-3.051 -4.255,-4.822 -4.918,-5.382 -11.582,-11.933 -18.189,-16.461 -1.503,-1.031 -2.999,-2.015 -4.479,-2.948 0,0 -8.665,-3.987 -9.348,1.525 -0.772,6.226 7.524,12.299 7.524,12.299 0,0 -7.08,-1.099 -7.801,4.615 -0.649,5.132 6.3,10.429 6.3,10.429 0,0 -6.028,-0.481 -7.181,3.551 -1.514,5.284 9.688,11.738 9.688,11.738 3.79,2.827 7.968,6.32 12.386,10.605 6.996,6.806 13.288,14.675 18.168,21.403 0.512,-17.124 -0.424,-34.518 -2.813,-51.934"
     style="fill:#000000;fill-opacity:1;fill-rule:nonzero;stroke:none"
     id="path63448" />
  <path
     d="m 655.152,220.824 c 0,0 -4.939,0.061 -4.92,4.273 0.017,4.215 8.046,11.011 8.046,11.011 0,0 -5.398,0.66 -5.301,5.812 0.099,5.153 7.703,9.324 7.703,9.324 0,0 -6.344,1.212 -5.62,5.736 0.725,4.524 8.418,8.088 8.418,8.088 0.635,0.353 1.276,0.718 1.926,1.093 3.197,1.849 6.561,3.94 9.962,6.276 5.656,3.904 11.07,8.843 15.607,13.469 -1.973,-10.778 -4.505,-21.538 -7.593,-32.221 -1.644,-5.691 -3.446,-11.357 -5.403,-16.993 -0.317,-0.251 -0.641,-0.507 -0.969,-0.767 -5.138,-4.045 -11.623,-8.924 -16.704,-12.092 -0.955,-0.595 -1.93,-1.179 -2.906,-1.744 -0.748,-0.433 -1.497,-0.855 -2.246,-1.265"
     style="fill:#000000;fill-opacity:1;fill-rule:nonzero;stroke:none"
     id="path63452" />
</svg>
