<?xml version="1.0" encoding="UTF-8" standalone="no"?>
<!-- Created with Inkscape (http://www.inkscape.org/) -->

<svg
   sodipodi:docname="Komochi Gangi Kaku.svg"
   viewBox="0 0 793.70135 793.70135"
   height="793.70135"
   width="793.70135"
   id="svg36282"
   version="1.1"
   inkscape:version="1.2 (dc2aeda, 2022-05-15)"
   xmlns:inkscape="http://www.inkscape.org/namespaces/inkscape"
   xmlns:sodipodi="http://sodipodi.sourceforge.net/DTD/sodipodi-0.dtd"
   xmlns="http://www.w3.org/2000/svg"
   xmlns:svg="http://www.w3.org/2000/svg">
  <defs
     id="defs36286">
    <clipPath
       clipPathUnits="userSpaceOnUse"
       id="clipPath36643">
      <path
         d="M -538.2217,577.9479 H 57.054297 V -17.3281 H -538.2217 Z"
         id="path36645"
         style="stroke-width:0.999998" />
    </clipPath>
    <clipPath
       clipPathUnits="userSpaceOnUse"
       id="clipPath36647">
      <path
         d="M -584.1943,578.9381 H 11.081697 V -16.3379 H -584.1943 Z"
         id="path36649"
         style="stroke-width:0.999998" />
    </clipPath>
    <clipPath
       clipPathUnits="userSpaceOnUse"
       id="clipPath36651">
      <path
         d="M -586.5449,579.5026 H 8.7310974 V -15.7734 H -586.5449 Z"
         id="path36653"
         style="stroke-width:0.999998" />
    </clipPath>
    <clipPath
       clipPathUnits="userSpaceOnUse"
       id="clipPath36655">
      <path
         d="M -556.4014,578.0143 H 38.874597 V -17.2617 H -556.4014 Z"
         id="path36657"
         style="stroke-width:0.999998" />
    </clipPath>
    <clipPath
       clipPathUnits="userSpaceOnUse"
       id="clipPath36659">
      <path
         d="M -550.2637,577.3248 H 45.012297 V -17.9512 H -550.2637 Z"
         id="path36661"
         style="stroke-width:0.999998" />
    </clipPath>
    <clipPath
       clipPathUnits="userSpaceOnUse"
       id="clipPath36663">
      <path
         d="M -568.2266,575.819 H 27.049397 V -19.457 H -568.2266 Z"
         id="path36665"
         style="stroke-width:0.999998" />
    </clipPath>
    <clipPath
       clipPathUnits="userSpaceOnUse"
       id="clipPath36667">
      <path
         d="M -557.4951,577.8502 H 37.780897 V -17.4258 H -557.4951 Z"
         id="path36669"
         style="stroke-width:0.999998" />
    </clipPath>
    <clipPath
       clipPathUnits="userSpaceOnUse"
       id="clipPath36671">
      <path
         d="M -576.3691,585.5885 H 18.906897 V -9.6875 H -576.3691 Z"
         id="path36673"
         style="stroke-width:0.999998" />
    </clipPath>
    <clipPath
       clipPathUnits="userSpaceOnUse"
       id="clipPath36675">
      <path
         d="M -574.5459,585.8522 H 20.730097 V -9.4238 H -574.5459 Z"
         id="path36677"
         style="stroke-width:0.999998" />
    </clipPath>
    <clipPath
       clipPathUnits="userSpaceOnUse"
       id="clipPath36679">
      <path
         d="M -572.8174,586.1354 H 22.458597 V -9.1406 H -572.8174 Z"
         id="path36681"
         style="stroke-width:0.999998" />
    </clipPath>
    <clipPath
       clipPathUnits="userSpaceOnUse"
       id="clipPath36683">
      <path
         d="M -567.7754,585.8522 H 27.500597 V -9.4238 H -567.7754 Z"
         id="path36685"
         style="stroke-width:0.999998" />
    </clipPath>
    <clipPath
       clipPathUnits="userSpaceOnUse"
       id="clipPath36687">
      <path
         d="M -564.5732,585.8483 H 30.702797 V -9.4277 H -564.5732 Z"
         id="path36689"
         style="stroke-width:0.999998" />
    </clipPath>
    <clipPath
       clipPathUnits="userSpaceOnUse"
       id="clipPath36691">
      <path
         d="M -561.4131,585.8522 H 33.862897 V -9.4238 H -561.4131 Z"
         id="path36693"
         style="stroke-width:0.999998" />
    </clipPath>
    <clipPath
       clipPathUnits="userSpaceOnUse"
       id="clipPath36695">
      <path
         d="M -557.0645,585.8483 H 38.211497 V -9.4277 H -557.0645 Z"
         id="path36697"
         style="stroke-width:0.999998" />
    </clipPath>
    <clipPath
       clipPathUnits="userSpaceOnUse"
       id="clipPath36699">
      <path
         d="M -553.8975,585.8483 H 41.378497 V -9.4277 H -553.8975 Z"
         id="path36701"
         style="stroke-width:0.999998" />
    </clipPath>
    <clipPath
       clipPathUnits="userSpaceOnUse"
       id="clipPath36703">
      <path
         d="M -548.9834,585.8522 H 46.292597 V -9.4238 H -548.9834 Z"
         id="path36705"
         style="stroke-width:0.999998" />
    </clipPath>
    <clipPath
       clipPathUnits="userSpaceOnUse"
       id="clipPath36707">
      <path
         d="M -545.417,584.5729 H 49.858997 V -10.7031 H -545.417 Z"
         id="path36709"
         style="stroke-width:0.999998" />
    </clipPath>
    <clipPath
       clipPathUnits="userSpaceOnUse"
       id="clipPath36711">
      <path
         d="M -542.9326,584.5729 H 52.343397 V -10.7031 H -542.9326 Z"
         id="path36713"
         style="stroke-width:0.999998" />
    </clipPath>
    <clipPath
       clipPathUnits="userSpaceOnUse"
       id="clipPath36715">
      <path
         d="M -540.8213,585.8483 H 54.454697 V -9.4277 H -540.8213 Z"
         id="path36717"
         style="stroke-width:0.999998" />
    </clipPath>
    <clipPath
       clipPathUnits="userSpaceOnUse"
       id="clipPath36719">
      <path
         d="M -536.6982,584.5729 H 58.577797 V -10.7031 H -536.6982 Z"
         id="path36721"
         style="stroke-width:0.999998" />
    </clipPath>
    <clipPath
       clipPathUnits="userSpaceOnUse"
       id="clipPath36723">
      <path
         d="M -528.0898,575.3815 H 67.186197 V -19.8945 H -528.0898 Z"
         id="path36725"
         style="stroke-width:0.999998" />
    </clipPath>
    <clipPath
       clipPathUnits="userSpaceOnUse"
       id="clipPath36727">
      <path
         d="M -531.1924,581.5885 H 64.083597 V -13.6875 H -531.1924 Z"
         id="path36729"
         style="stroke-width:0.999998" />
    </clipPath>
    <clipPath
       clipPathUnits="userSpaceOnUse"
       id="clipPath36857">
      <path
         d="m -451.5928,338.7037 h 595.276 v -595.276 h -595.276 z"
         id="path36859"
         style="stroke-width:0.999998" />
    </clipPath>
    <clipPath
       clipPathUnits="userSpaceOnUse"
       id="clipPath36863">
      <path
         d="m -468.2881,351.2233 h 595.276 v -595.276 h -595.276 z"
         id="path36865"
         style="stroke-width:0.999998" />
    </clipPath>
  </defs>
  <sodipodi:namedview
     id="namedview36284"
     pagecolor="#ffffff"
     bordercolor="#000000"
     borderopacity="0.25"
     inkscape:showpageshadow="2"
     inkscape:pageopacity="0.0"
     inkscape:pagecheckerboard="0"
     inkscape:deskcolor="#d1d1d1"
     showgrid="false"
     inkscape:zoom="0.29734106"
     inkscape:cx="-215.24105"
     inkscape:cy="396.85068"
     inkscape:window-width="1419"
     inkscape:window-height="456"
     inkscape:window-x="0"
     inkscape:window-y="25"
     inkscape:window-maximized="0"
     inkscape:current-layer="svg36282">
    <inkscape:page
       x="0"
       y="0"
       id="page36288"
       width="793.70135"
       height="793.70135" />
  </sodipodi:namedview>
  <path
     d="M 624.384 468.298 L 608.26 484.421 L 608.26 608.264 L 484.42 608.264 L 396.847 695.833 L 309.277 608.264 L 185.433 608.264 L 185.433 484.421 L 97.8626 396.852 L 169.314 325.404 L 185.433 309.28 L 185.433 185.437 L 309.277 185.437 L 396.847 97.8669 L 468.296 169.315 L 484.418 185.437 L 608.26 185.437 L 608.26 309.28 L 695.832 396.852 Z M 655.031 289.912 L 655.031 138.672 L 503.792 138.672 L 396.851 31.7311 L 289.91 138.672 L 138.671 138.672 L 138.671 289.909 L 31.7281 396.853 L 138.671 503.795 L 138.671 655.035 L 289.909 655.035 L 396.851 761.977 L 503.794 655.035 L 655.031 655.035 L 655.031 503.795 L 761.972 396.853 Z"
     style="fill:#000000;fill-opacity:1;fill-rule:nonzero;stroke:none"
     id="path36402" />
  <path
     d="M 602.124 451.605 L 580.716 473.009 L 580.716 580.717 L 503.282 580.719 L 473.012 580.719 L 396.847 656.88 L 342.09 602.126 L 320.682 580.719 L 212.976 580.719 L 212.976 473.009 L 136.814 396.848 L 191.57 342.093 L 212.976 320.683 L 212.976 212.979 L 320.682 212.979 L 396.847 136.818 L 473.008 212.979 L 580.716 212.979 L 580.716 320.687 L 656.877 396.848 Z M 600.717 312.403 L 600.717 192.98 L 481.295 192.98 L 465.748 177.432 L 396.847 108.534 L 312.401 192.98 L 192.977 192.98 L 192.977 312.403 L 177.432 327.951 L 108.531 396.85 L 192.977 481.298 L 192.977 600.722 L 312.401 600.722 L 396.847 685.167 L 481.298 600.722 L 600.717 600.722 L 600.717 481.298 L 616.267 465.75 L 685.165 396.85 Z"
     style="fill:#000000;fill-opacity:1;fill-rule:nonzero;stroke:none"
     id="path36406" />
</svg>
