<?xml version="1.0" encoding="UTF-8" standalone="no"?>
<!-- Created with Inkscape (http://www.inkscape.org/) -->

<svg
   sodipodi:docname="Sori Sumikirikakuni Sannoji.svg"
   viewBox="0 0 793.70135 793.70135"
   height="793.70135"
   width="793.70135"
   id="svg24449"
   version="1.1"
   inkscape:version="1.2 (dc2aeda, 2022-05-15)"
   xmlns:inkscape="http://www.inkscape.org/namespaces/inkscape"
   xmlns:sodipodi="http://sodipodi.sourceforge.net/DTD/sodipodi-0.dtd"
   xmlns="http://www.w3.org/2000/svg"
   xmlns:svg="http://www.w3.org/2000/svg">
  <defs
     id="defs24453">
    <clipPath
       clipPathUnits="userSpaceOnUse"
       id="clipPath24798">
      <path
         d="M -538.2217,577.9479 H 57.054297 V -17.3281 H -538.2217 Z"
         id="path24800"
         style="stroke-width:0.999998" />
    </clipPath>
    <clipPath
       clipPathUnits="userSpaceOnUse"
       id="clipPath24802">
      <path
         d="M -584.1943,578.9381 H 11.081697 V -16.3379 H -584.1943 Z"
         id="path24804"
         style="stroke-width:0.999998" />
    </clipPath>
    <clipPath
       clipPathUnits="userSpaceOnUse"
       id="clipPath24806">
      <path
         d="M -586.5449,579.5026 H 8.7310974 V -15.7734 H -586.5449 Z"
         id="path24808"
         style="stroke-width:0.999998" />
    </clipPath>
    <clipPath
       clipPathUnits="userSpaceOnUse"
       id="clipPath24810">
      <path
         d="M -556.4014,578.0143 H 38.874597 V -17.2617 H -556.4014 Z"
         id="path24812"
         style="stroke-width:0.999998" />
    </clipPath>
    <clipPath
       clipPathUnits="userSpaceOnUse"
       id="clipPath24814">
      <path
         d="M -550.2637,577.3248 H 45.012297 V -17.9512 H -550.2637 Z"
         id="path24816"
         style="stroke-width:0.999998" />
    </clipPath>
    <clipPath
       clipPathUnits="userSpaceOnUse"
       id="clipPath24818">
      <path
         d="M -568.2266,575.819 H 27.049397 V -19.457 H -568.2266 Z"
         id="path24820"
         style="stroke-width:0.999998" />
    </clipPath>
    <clipPath
       clipPathUnits="userSpaceOnUse"
       id="clipPath24822">
      <path
         d="M -557.4951,577.8502 H 37.780897 V -17.4258 H -557.4951 Z"
         id="path24824"
         style="stroke-width:0.999998" />
    </clipPath>
    <clipPath
       clipPathUnits="userSpaceOnUse"
       id="clipPath24826">
      <path
         d="M -576.3691,585.5885 H 18.906897 V -9.6875 H -576.3691 Z"
         id="path24828"
         style="stroke-width:0.999998" />
    </clipPath>
    <clipPath
       clipPathUnits="userSpaceOnUse"
       id="clipPath24830">
      <path
         d="M -574.5459,585.8522 H 20.730097 V -9.4238 H -574.5459 Z"
         id="path24832"
         style="stroke-width:0.999998" />
    </clipPath>
    <clipPath
       clipPathUnits="userSpaceOnUse"
       id="clipPath24834">
      <path
         d="M -572.8174,586.1354 H 22.458597 V -9.1406 H -572.8174 Z"
         id="path24836"
         style="stroke-width:0.999998" />
    </clipPath>
    <clipPath
       clipPathUnits="userSpaceOnUse"
       id="clipPath24838">
      <path
         d="M -567.7754,585.8522 H 27.500597 V -9.4238 H -567.7754 Z"
         id="path24840"
         style="stroke-width:0.999998" />
    </clipPath>
    <clipPath
       clipPathUnits="userSpaceOnUse"
       id="clipPath24842">
      <path
         d="M -564.5732,585.8483 H 30.702797 V -9.4277 H -564.5732 Z"
         id="path24844"
         style="stroke-width:0.999998" />
    </clipPath>
    <clipPath
       clipPathUnits="userSpaceOnUse"
       id="clipPath24846">
      <path
         d="M -561.4131,585.8522 H 33.862897 V -9.4238 H -561.4131 Z"
         id="path24848"
         style="stroke-width:0.999998" />
    </clipPath>
    <clipPath
       clipPathUnits="userSpaceOnUse"
       id="clipPath24850">
      <path
         d="M -557.0645,585.8483 H 38.211497 V -9.4277 H -557.0645 Z"
         id="path24852"
         style="stroke-width:0.999998" />
    </clipPath>
    <clipPath
       clipPathUnits="userSpaceOnUse"
       id="clipPath24854">
      <path
         d="M -553.8975,585.8483 H 41.378497 V -9.4277 H -553.8975 Z"
         id="path24856"
         style="stroke-width:0.999998" />
    </clipPath>
    <clipPath
       clipPathUnits="userSpaceOnUse"
       id="clipPath24858">
      <path
         d="M -548.9834,585.8522 H 46.292597 V -9.4238 H -548.9834 Z"
         id="path24860"
         style="stroke-width:0.999998" />
    </clipPath>
    <clipPath
       clipPathUnits="userSpaceOnUse"
       id="clipPath24862">
      <path
         d="M -545.417,584.5729 H 49.858997 V -10.7031 H -545.417 Z"
         id="path24864"
         style="stroke-width:0.999998" />
    </clipPath>
    <clipPath
       clipPathUnits="userSpaceOnUse"
       id="clipPath24866">
      <path
         d="M -542.9326,584.5729 H 52.343397 V -10.7031 H -542.9326 Z"
         id="path24868"
         style="stroke-width:0.999998" />
    </clipPath>
    <clipPath
       clipPathUnits="userSpaceOnUse"
       id="clipPath24870">
      <path
         d="M -540.8213,585.8483 H 54.454697 V -9.4277 H -540.8213 Z"
         id="path24872"
         style="stroke-width:0.999998" />
    </clipPath>
    <clipPath
       clipPathUnits="userSpaceOnUse"
       id="clipPath24874">
      <path
         d="M -536.6982,584.5729 H 58.577797 V -10.7031 H -536.6982 Z"
         id="path24876"
         style="stroke-width:0.999998" />
    </clipPath>
    <clipPath
       clipPathUnits="userSpaceOnUse"
       id="clipPath24878">
      <path
         d="M -528.0898,575.3815 H 67.186197 V -19.8945 H -528.0898 Z"
         id="path24880"
         style="stroke-width:0.999998" />
    </clipPath>
    <clipPath
       clipPathUnits="userSpaceOnUse"
       id="clipPath24882">
      <path
         d="M -531.1924,581.5885 H 64.083597 V -13.6875 H -531.1924 Z"
         id="path24884"
         style="stroke-width:0.999998" />
    </clipPath>
    <clipPath
       clipPathUnits="userSpaceOnUse"
       id="clipPath25000">
      <path
         d="m -376.2676,342.233 h 595.276 v -595.276 h -595.276 z"
         id="path25002"
         style="stroke-width:0.999998" />
    </clipPath>
  </defs>
  <sodipodi:namedview
     id="namedview24451"
     pagecolor="#ffffff"
     bordercolor="#000000"
     borderopacity="0.25"
     inkscape:showpageshadow="2"
     inkscape:pageopacity="0.0"
     inkscape:pagecheckerboard="0"
     inkscape:deskcolor="#d1d1d1"
     showgrid="false"
     inkscape:zoom="0.29734106"
     inkscape:cx="-215.24105"
     inkscape:cy="396.85068"
     inkscape:window-width="1419"
     inkscape:window-height="456"
     inkscape:window-x="0"
     inkscape:window-y="25"
     inkscape:window-maximized="0"
     inkscape:current-layer="svg24449">
    <inkscape:page
       x="0"
       y="0"
       id="page24455"
       width="793.70135"
       height="793.70135" />
  </sodipodi:namedview>
  <path
     d="M 501.69 456.311 C 501.69 456.311 495.546 459.694 475.279 464.996 C 456.782 469.838 422.652 476.022 357.444 475.942 C 292.232 475.866 267.615 462.059 262.261 459.426 C 256.099 456.39 252.961 456.775 249.392 460.626 C 244.735 465.652 238.365 473.12 223.287 492.53 C 209.892 509.775 231.721 528.54 241.755 539.04 C 252.829 550.633 257.029 557.889 289.157 550.292 C 305.401 546.453 337.702 542.72 356.717 541.396 C 375.734 540.068 379.625 540.86 406.889 540.896 C 460.671 540.961 507.895 559.797 535.267 551.144 C 562.762 542.447 558.071 504.439 542.407 485.95 C 526.741 467.454 501.69 456.311 501.69 456.311 M 480.325 325.486 C 480.325 325.486 475.935 328.369 461.443 332.871 C 448.219 336.981 423.81 342.213 377.157 342.025 C 330.5 341.838 312.86 329.975 309.025 327.713 C 304.608 325.106 302.368 325.426 299.82 328.717 C 296.497 333.01 291.953 339.39 281.201 355.977 C 271.647 370.71 287.303 386.813 294.5 395.818 C 302.444 405.762 305.462 411.978 328.436 405.538 C 340.049 402.283 363.154 399.142 376.756 398.042 C 390.362 396.946 393.146 397.631 412.653 397.708 C 451.133 397.864 484.955 414.071 504.522 406.718 C 524.179 399.322 520.751 366.787 509.513 350.931 C 498.266 335.071 480.325 325.486 480.325 325.486 M 324.95 274.367 C 337.262 270.921 361.753 267.591 376.172 266.427 C 390.593 265.263 393.546 265.987 414.221 266.073 C 455.01 266.237 490.863 283.419 511.605 275.621 C 532.441 267.781 528.809 233.296 516.894 216.486 C 504.974 199.677 485.955 189.516 485.955 189.516 C 485.955 189.516 481.301 192.573 465.941 197.344 C 451.923 201.701 426.05 207.246 376.596 207.046 C 327.138 206.85 308.441 194.274 304.377 191.874 C 299.696 189.112 297.321 189.453 294.619 192.94 C 291.099 197.492 286.281 204.253 274.884 221.834 C 264.756 237.453 281.349 254.522 288.98 264.069 C 297.401 274.607 300.601 281.198 324.95 274.367 M 674.982 464.672 C 630.984 486.936 589.71 516.451 553.086 553.087 C 516.453 589.712 486.93 630.988 464.666 674.985 C 442.551 671.433 419.886 669.592 396.85 669.592 L 396.818 669.592 C 373.788 669.592 351.134 671.433 329.025 674.985 C 306.764 630.988 277.245 589.712 240.609 553.087 C 203.988 516.454 162.711 486.934 118.715 464.668 C 122.266 442.554 124.11 419.89 124.107 396.85 C 124.11 373.811 122.267 351.146 118.715 329.03 C 162.714 306.766 203.988 277.249 240.609 240.614 C 277.245 203.99 306.769 162.713 329.033 118.716 C 351.146 122.268 373.813 124.112 396.85 124.11 C 419.886 124.112 442.551 122.268 464.667 118.717 C 486.931 162.714 516.45 203.99 553.086 240.614 C 589.707 277.249 630.984 306.77 674.982 329.034 C 671.431 351.149 669.586 373.811 669.588 396.85 C 669.586 419.892 671.428 442.554 674.982 464.672 M 746.896 292.679 C 692.214 272.586 640.918 240.589 597.015 196.688 C 553.117 152.788 521.122 101.489 501.03 46.808 C 468.031 56.6853 433.061 61.988 396.85 61.988 C 360.642 61.988 325.672 56.6827 292.676 46.8067 C 272.584 101.489 240.585 152.785 196.684 196.688 C 152.784 240.586 101.488 272.582 46.8058 292.674 C 56.6818 325.671 61.9858 360.642 61.9858 396.852 C 61.9858 433.06 56.6804 468.03 46.8031 501.027 C 101.488 521.118 152.783 553.117 196.684 597.019 C 240.584 640.917 272.58 692.214 292.671 746.896 C 325.669 737.021 360.64 731.717 396.85 731.717 C 433.057 731.717 468.029 737.024 501.025 746.898 C 521.117 692.214 553.115 640.92 597.015 597.019 C 640.916 553.117 692.214 521.123 746.895 501.032 C 737.019 468.032 731.715 433.063 731.715 396.852 C 731.715 360.645 737.021 325.674 746.896 292.679"
     style="fill:#000000;fill-opacity:1;fill-rule:nonzero;stroke:none"
     id="path24569" />
</svg>
