<?xml version="1.0" encoding="UTF-8" standalone="no"?>
<!-- Created with Inkscape (http://www.inkscape.org/) -->

<svg
   sodipodi:docname="Sumiiri Kakuni Mitsudomoe.svg"
   viewBox="0 0 793.70135 793.70135"
   height="793.70135"
   width="793.70135"
   id="svg19957"
   version="1.1"
   inkscape:version="1.2 (dc2aeda, 2022-05-15)"
   xmlns:inkscape="http://www.inkscape.org/namespaces/inkscape"
   xmlns:sodipodi="http://sodipodi.sourceforge.net/DTD/sodipodi-0.dtd"
   xmlns="http://www.w3.org/2000/svg"
   xmlns:svg="http://www.w3.org/2000/svg">
  <defs
     id="defs19961">
    <clipPath
       clipPathUnits="userSpaceOnUse"
       id="clipPath20318">
      <path
         d="M -538.2217,577.9479 H 57.054297 V -17.3281 H -538.2217 Z"
         id="path20320"
         style="stroke-width:0.999998" />
    </clipPath>
    <clipPath
       clipPathUnits="userSpaceOnUse"
       id="clipPath20322">
      <path
         d="M -584.1943,578.9381 H 11.081697 V -16.3379 H -584.1943 Z"
         id="path20324"
         style="stroke-width:0.999998" />
    </clipPath>
    <clipPath
       clipPathUnits="userSpaceOnUse"
       id="clipPath20326">
      <path
         d="M -586.5449,579.5026 H 8.7310974 V -15.7734 H -586.5449 Z"
         id="path20328"
         style="stroke-width:0.999998" />
    </clipPath>
    <clipPath
       clipPathUnits="userSpaceOnUse"
       id="clipPath20330">
      <path
         d="M -556.4014,578.0143 H 38.874597 V -17.2617 H -556.4014 Z"
         id="path20332"
         style="stroke-width:0.999998" />
    </clipPath>
    <clipPath
       clipPathUnits="userSpaceOnUse"
       id="clipPath20334">
      <path
         d="M -550.2637,577.3248 H 45.012297 V -17.9512 H -550.2637 Z"
         id="path20336"
         style="stroke-width:0.999998" />
    </clipPath>
    <clipPath
       clipPathUnits="userSpaceOnUse"
       id="clipPath20338">
      <path
         d="M -568.2266,575.819 H 27.049397 V -19.457 H -568.2266 Z"
         id="path20340"
         style="stroke-width:0.999998" />
    </clipPath>
    <clipPath
       clipPathUnits="userSpaceOnUse"
       id="clipPath20342">
      <path
         d="M -557.4951,577.8502 H 37.780897 V -17.4258 H -557.4951 Z"
         id="path20344"
         style="stroke-width:0.999998" />
    </clipPath>
    <clipPath
       clipPathUnits="userSpaceOnUse"
       id="clipPath20346">
      <path
         d="M -576.3691,585.5885 H 18.906897 V -9.6875 H -576.3691 Z"
         id="path20348"
         style="stroke-width:0.999998" />
    </clipPath>
    <clipPath
       clipPathUnits="userSpaceOnUse"
       id="clipPath20350">
      <path
         d="M -574.5459,585.8522 H 20.730097 V -9.4238 H -574.5459 Z"
         id="path20352"
         style="stroke-width:0.999998" />
    </clipPath>
    <clipPath
       clipPathUnits="userSpaceOnUse"
       id="clipPath20354">
      <path
         d="M -572.8174,586.1354 H 22.458597 V -9.1406 H -572.8174 Z"
         id="path20356"
         style="stroke-width:0.999998" />
    </clipPath>
    <clipPath
       clipPathUnits="userSpaceOnUse"
       id="clipPath20358">
      <path
         d="M -567.7754,585.8522 H 27.500597 V -9.4238 H -567.7754 Z"
         id="path20360"
         style="stroke-width:0.999998" />
    </clipPath>
    <clipPath
       clipPathUnits="userSpaceOnUse"
       id="clipPath20362">
      <path
         d="M -564.5732,585.8483 H 30.702797 V -9.4277 H -564.5732 Z"
         id="path20364"
         style="stroke-width:0.999998" />
    </clipPath>
    <clipPath
       clipPathUnits="userSpaceOnUse"
       id="clipPath20366">
      <path
         d="M -561.4131,585.8522 H 33.862897 V -9.4238 H -561.4131 Z"
         id="path20368"
         style="stroke-width:0.999998" />
    </clipPath>
    <clipPath
       clipPathUnits="userSpaceOnUse"
       id="clipPath20370">
      <path
         d="M -557.0645,585.8483 H 38.211497 V -9.4277 H -557.0645 Z"
         id="path20372"
         style="stroke-width:0.999998" />
    </clipPath>
    <clipPath
       clipPathUnits="userSpaceOnUse"
       id="clipPath20374">
      <path
         d="M -553.8975,585.8483 H 41.378497 V -9.4277 H -553.8975 Z"
         id="path20376"
         style="stroke-width:0.999998" />
    </clipPath>
    <clipPath
       clipPathUnits="userSpaceOnUse"
       id="clipPath20378">
      <path
         d="M -548.9834,585.8522 H 46.292597 V -9.4238 H -548.9834 Z"
         id="path20380"
         style="stroke-width:0.999998" />
    </clipPath>
    <clipPath
       clipPathUnits="userSpaceOnUse"
       id="clipPath20382">
      <path
         d="M -545.417,584.5729 H 49.858997 V -10.7031 H -545.417 Z"
         id="path20384"
         style="stroke-width:0.999998" />
    </clipPath>
    <clipPath
       clipPathUnits="userSpaceOnUse"
       id="clipPath20386">
      <path
         d="M -542.9326,584.5729 H 52.343397 V -10.7031 H -542.9326 Z"
         id="path20388"
         style="stroke-width:0.999998" />
    </clipPath>
    <clipPath
       clipPathUnits="userSpaceOnUse"
       id="clipPath20390">
      <path
         d="M -540.8213,585.8483 H 54.454697 V -9.4277 H -540.8213 Z"
         id="path20392"
         style="stroke-width:0.999998" />
    </clipPath>
    <clipPath
       clipPathUnits="userSpaceOnUse"
       id="clipPath20394">
      <path
         d="M -536.6982,584.5729 H 58.577797 V -10.7031 H -536.6982 Z"
         id="path20396"
         style="stroke-width:0.999998" />
    </clipPath>
    <clipPath
       clipPathUnits="userSpaceOnUse"
       id="clipPath20398">
      <path
         d="M -528.0898,575.3815 H 67.186197 V -19.8945 H -528.0898 Z"
         id="path20400"
         style="stroke-width:0.999998" />
    </clipPath>
    <clipPath
       clipPathUnits="userSpaceOnUse"
       id="clipPath20402">
      <path
         d="M -531.1924,581.5885 H 64.083597 V -13.6875 H -531.1924 Z"
         id="path20404"
         style="stroke-width:0.999998" />
    </clipPath>
    <clipPath
       clipPathUnits="userSpaceOnUse"
       id="clipPath20532">
      <path
         d="m -407.4336,424.485 h 595.276 v -595.276 h -595.276 z"
         id="path20534"
         style="stroke-width:0.999998" />
    </clipPath>
    <clipPath
       clipPathUnits="userSpaceOnUse"
       id="clipPath20538">
      <path
         d="m -504.8682,347.6842 h 595.276 v -595.276 h -595.276 z"
         id="path20540"
         style="stroke-width:0.999998" />
    </clipPath>
  </defs>
  <sodipodi:namedview
     id="namedview19959"
     pagecolor="#ffffff"
     bordercolor="#000000"
     borderopacity="0.25"
     inkscape:showpageshadow="2"
     inkscape:pageopacity="0.0"
     inkscape:pagecheckerboard="0"
     inkscape:deskcolor="#d1d1d1"
     showgrid="false"
     inkscape:zoom="0.29734106"
     inkscape:cx="-215.24105"
     inkscape:cy="396.85068"
     inkscape:window-width="1419"
     inkscape:window-height="456"
     inkscape:window-x="0"
     inkscape:window-y="25"
     inkscape:window-maximized="0"
     inkscape:current-layer="svg19957">
    <inkscape:page
       x="0"
       y="0"
       id="page19963"
       width="793.70135"
       height="793.70135" />
  </sodipodi:namedview>
  <path
     d="M 543.245 565.98 C 478.706 604.037 398.12 590.824 348.771 538.556 C 387.752 508.001 399.032 452.556 373.185 408.728 C 345.051 361.009 283.555 345.131 235.831 373.268 C 204.737 391.602 187.165 424.103 186.477 457.723 C 185.738 476.584 189.799 496.467 200.009 515.647 C 256.27 621.376 404.385 661.518 516.097 593.409 C 541.028 578.212 562.08 559.059 578.933 537.253 C 568.754 548.251 556.818 557.975 543.245 565.98 M 507.016 194.189 C 481.385 180.2 454.273 171.54 426.964 167.85 C 441.581 171.165 455.967 176.637 469.688 184.392 C 534.912 221.258 563.764 297.649 543.172 366.524 C 497.224 348.042 443.567 365.995 418.531 410.29 C 391.273 458.519 408.272 519.715 456.501 546.972 C 487.928 564.735 524.856 563.709 554.318 547.491 C 571.022 538.701 586.209 525.24 597.717 506.811 C 661.149 405.223 621.857 256.878 507.016 194.189 M 296.988 284.183 C 303.959 333.214 346.335 370.706 397.213 370.243 C 452.608 369.735 497.108 324.415 496.6 269.017 C 496.266 232.921 476.912 201.454 448.14 184.048 C 432.172 173.976 412.925 167.553 391.209 166.801 C 271.512 162.664 162.693 270.863 165.821 401.663 C 166.519 430.852 172.581 458.663 183.038 484.16 C 178.601 469.842 176.145 454.65 176.001 438.887 C 175.314 363.967 227.046 300.787 296.988 284.183"
     style="fill:#000000;fill-opacity:1;fill-rule:nonzero;stroke:none"
     id="path20077" />
  <path
     d="M 673.158 463.579 L 463.577 673.157 C 445.143 691.592 415.281 691.562 396.843 673.128 C 378.407 691.562 348.544 691.532 330.108 673.097 L 120.602 463.595 C 102.169 445.16 102.139 415.3 120.575 396.859 C 102.139 378.422 102.111 348.563 120.545 330.126 L 330.122 120.549 C 348.556 102.115 378.419 102.143 396.856 120.579 C 415.293 102.143 445.153 102.175 463.589 120.607 L 673.099 330.11 C 691.533 348.547 691.563 378.407 673.127 396.842 C 691.563 415.282 691.591 445.144 673.158 463.579 M 740.734 396.842 C 763.679 373.894 763.642 336.727 740.696 313.779 L 479.921 53.0107 C 456.973 30.0654 419.807 30.0254 396.859 52.9707 C 373.908 30.0254 336.74 29.9921 313.792 52.9347 L 52.9329 313.798 C 29.9876 336.746 30.0236 373.914 52.9662 396.865 C 30.0236 419.814 30.0609 456.98 53.0062 479.928 L 313.776 740.696 C 336.724 763.638 373.893 763.677 396.841 740.734 C 419.792 763.677 456.961 763.714 479.906 740.772 L 740.77 479.91 C 763.715 456.962 763.679 419.792 740.734 396.842"
     style="fill:#000000;fill-opacity:1;fill-rule:nonzero;stroke:none"
     id="path20081" />
</svg>
