<?xml version="1.0" encoding="UTF-8" standalone="no"?>
<!-- Created with Inkscape (http://www.inkscape.org/) -->

<svg
   sodipodi:docname="Sumikiri Yurisanbon Kaku.svg"
   viewBox="0 0 793.70135 793.70135"
   height="793.70135"
   width="793.70135"
   id="svg16145"
   version="1.1"
   inkscape:version="1.2 (dc2aeda, 2022-05-15)"
   xmlns:inkscape="http://www.inkscape.org/namespaces/inkscape"
   xmlns:sodipodi="http://sodipodi.sourceforge.net/DTD/sodipodi-0.dtd"
   xmlns="http://www.w3.org/2000/svg"
   xmlns:svg="http://www.w3.org/2000/svg">
  <defs
     id="defs16149">
    <clipPath
       clipPathUnits="userSpaceOnUse"
       id="clipPath16530">
      <path
         d="M -538.2217,577.9479 H 57.054297 V -17.3281 H -538.2217 Z"
         id="path16532"
         style="stroke-width:0.999998" />
    </clipPath>
    <clipPath
       clipPathUnits="userSpaceOnUse"
       id="clipPath16534">
      <path
         d="M -584.1943,578.9381 H 11.081697 V -16.3379 H -584.1943 Z"
         id="path16536"
         style="stroke-width:0.999998" />
    </clipPath>
    <clipPath
       clipPathUnits="userSpaceOnUse"
       id="clipPath16538">
      <path
         d="M -586.5449,579.5026 H 8.7310974 V -15.7734 H -586.5449 Z"
         id="path16540"
         style="stroke-width:0.999998" />
    </clipPath>
    <clipPath
       clipPathUnits="userSpaceOnUse"
       id="clipPath16542">
      <path
         d="M -556.4014,578.0143 H 38.874597 V -17.2617 H -556.4014 Z"
         id="path16544"
         style="stroke-width:0.999998" />
    </clipPath>
    <clipPath
       clipPathUnits="userSpaceOnUse"
       id="clipPath16546">
      <path
         d="M -550.2637,577.3248 H 45.012297 V -17.9512 H -550.2637 Z"
         id="path16548"
         style="stroke-width:0.999998" />
    </clipPath>
    <clipPath
       clipPathUnits="userSpaceOnUse"
       id="clipPath16550">
      <path
         d="M -568.2266,575.819 H 27.049397 V -19.457 H -568.2266 Z"
         id="path16552"
         style="stroke-width:0.999998" />
    </clipPath>
    <clipPath
       clipPathUnits="userSpaceOnUse"
       id="clipPath16554">
      <path
         d="M -557.4951,577.8502 H 37.780897 V -17.4258 H -557.4951 Z"
         id="path16556"
         style="stroke-width:0.999998" />
    </clipPath>
    <clipPath
       clipPathUnits="userSpaceOnUse"
       id="clipPath16558">
      <path
         d="M -576.3691,585.5885 H 18.906897 V -9.6875 H -576.3691 Z"
         id="path16560"
         style="stroke-width:0.999998" />
    </clipPath>
    <clipPath
       clipPathUnits="userSpaceOnUse"
       id="clipPath16562">
      <path
         d="M -574.5459,585.8522 H 20.730097 V -9.4238 H -574.5459 Z"
         id="path16564"
         style="stroke-width:0.999998" />
    </clipPath>
    <clipPath
       clipPathUnits="userSpaceOnUse"
       id="clipPath16566">
      <path
         d="M -572.8174,586.1354 H 22.458597 V -9.1406 H -572.8174 Z"
         id="path16568"
         style="stroke-width:0.999998" />
    </clipPath>
    <clipPath
       clipPathUnits="userSpaceOnUse"
       id="clipPath16570">
      <path
         d="M -567.7754,585.8522 H 27.500597 V -9.4238 H -567.7754 Z"
         id="path16572"
         style="stroke-width:0.999998" />
    </clipPath>
    <clipPath
       clipPathUnits="userSpaceOnUse"
       id="clipPath16574">
      <path
         d="M -564.5732,585.8483 H 30.702797 V -9.4277 H -564.5732 Z"
         id="path16576"
         style="stroke-width:0.999998" />
    </clipPath>
    <clipPath
       clipPathUnits="userSpaceOnUse"
       id="clipPath16578">
      <path
         d="M -561.4131,585.8522 H 33.862897 V -9.4238 H -561.4131 Z"
         id="path16580"
         style="stroke-width:0.999998" />
    </clipPath>
    <clipPath
       clipPathUnits="userSpaceOnUse"
       id="clipPath16582">
      <path
         d="M -557.0645,585.8483 H 38.211497 V -9.4277 H -557.0645 Z"
         id="path16584"
         style="stroke-width:0.999998" />
    </clipPath>
    <clipPath
       clipPathUnits="userSpaceOnUse"
       id="clipPath16586">
      <path
         d="M -553.8975,585.8483 H 41.378497 V -9.4277 H -553.8975 Z"
         id="path16588"
         style="stroke-width:0.999998" />
    </clipPath>
    <clipPath
       clipPathUnits="userSpaceOnUse"
       id="clipPath16590">
      <path
         d="M -548.9834,585.8522 H 46.292597 V -9.4238 H -548.9834 Z"
         id="path16592"
         style="stroke-width:0.999998" />
    </clipPath>
    <clipPath
       clipPathUnits="userSpaceOnUse"
       id="clipPath16594">
      <path
         d="M -545.417,584.5729 H 49.858997 V -10.7031 H -545.417 Z"
         id="path16596"
         style="stroke-width:0.999998" />
    </clipPath>
    <clipPath
       clipPathUnits="userSpaceOnUse"
       id="clipPath16598">
      <path
         d="M -542.9326,584.5729 H 52.343397 V -10.7031 H -542.9326 Z"
         id="path16600"
         style="stroke-width:0.999998" />
    </clipPath>
    <clipPath
       clipPathUnits="userSpaceOnUse"
       id="clipPath16602">
      <path
         d="M -540.8213,585.8483 H 54.454697 V -9.4277 H -540.8213 Z"
         id="path16604"
         style="stroke-width:0.999998" />
    </clipPath>
    <clipPath
       clipPathUnits="userSpaceOnUse"
       id="clipPath16606">
      <path
         d="M -536.6982,584.5729 H 58.577797 V -10.7031 H -536.6982 Z"
         id="path16608"
         style="stroke-width:0.999998" />
    </clipPath>
    <clipPath
       clipPathUnits="userSpaceOnUse"
       id="clipPath16610">
      <path
         d="M -528.0898,575.3815 H 67.186197 V -19.8945 H -528.0898 Z"
         id="path16612"
         style="stroke-width:0.999998" />
    </clipPath>
    <clipPath
       clipPathUnits="userSpaceOnUse"
       id="clipPath16614">
      <path
         d="M -531.1924,581.5885 H 64.083597 V -13.6875 H -531.1924 Z"
         id="path16616"
         style="stroke-width:0.999998" />
    </clipPath>
    <clipPath
       clipPathUnits="userSpaceOnUse"
       id="clipPath16768">
      <path
         d="M -511.2803,350.6998 H 83.995697 v -595.276 H -511.2803 Z"
         id="path16770"
         style="stroke-width:0.999998" />
    </clipPath>
    <clipPath
       clipPathUnits="userSpaceOnUse"
       id="clipPath16774">
      <path
         d="m -166.4697,336.3541 h 595.276 v -595.276 h -595.276 z"
         id="path16776"
         style="stroke-width:0.999998" />
    </clipPath>
    <clipPath
       clipPathUnits="userSpaceOnUse"
       id="clipPath16780">
      <path
         d="m -339.7002,342.4225 h 595.276 v -595.276 h -595.276 z"
         id="path16782"
         style="stroke-width:0.999998" />
    </clipPath>
    <clipPath
       clipPathUnits="userSpaceOnUse"
       id="clipPath16786">
      <path
         d="m -166.4678,251.8556 h 595.276 v -595.276 h -595.276 z"
         id="path16788"
         style="stroke-width:0.999998" />
    </clipPath>
  </defs>
  <sodipodi:namedview
     id="namedview16147"
     pagecolor="#ffffff"
     bordercolor="#000000"
     borderopacity="0.25"
     inkscape:showpageshadow="2"
     inkscape:pageopacity="0.0"
     inkscape:pagecheckerboard="0"
     inkscape:deskcolor="#d1d1d1"
     showgrid="false"
     inkscape:zoom="0.29734106"
     inkscape:cx="-215.24105"
     inkscape:cy="396.85068"
     inkscape:window-width="1419"
     inkscape:window-height="456"
     inkscape:window-x="0"
     inkscape:window-y="25"
     inkscape:window-maximized="0"
     inkscape:current-layer="svg16145">
    <inkscape:page
       x="0"
       y="0"
       id="page16151"
       width="793.70135"
       height="793.70135" />
  </sodipodi:namedview>
  <path
     d="M 681.707 467.6 L 467.598 681.709 L 326.104 681.709 L 111.995 467.6 L 111.995 326.104 L 326.104 111.996 L 467.598 111.996 L 681.707 326.107 Z M 495.213 45.3291 L 298.489 45.3291 L 45.3286 298.49 L 45.3286 495.212 L 298.489 748.373 L 495.21 748.373 L 748.371 495.212 L 748.371 298.49 Z"
     style="fill:#000000;fill-opacity:1;fill-rule:nonzero;stroke:none"
     id="path16265" />
  <path
     d="M 221.96 448.472 C 222.705 448.615 223.829 448.833 225.32 449.095 C 228.291 449.62 232.711 450.324 238.403 451.032 C 249.799 452.444 266.317 453.865 286.655 453.865 C 306.548 453.86 321.732 450.111 338.309 446.183 C 354.85 442.264 372.722 438.209 396.85 438.217 C 420.981 438.209 438.847 442.264 455.389 446.183 C 471.967 450.111 487.153 453.86 507.047 453.865 C 542.637 453.865 566.524 449.513 571.74 448.472 C 572.486 448.319 572.816 448.245 572.816 448.245 L 572.816 448.251 L 573.978 447.991 L 573.978 346.235 C 568.51 347.342 543.847 351.864 507.045 351.864 C 485.769 351.87 469.395 347.795 452.931 343.902 C 436.435 339.995 419.793 336.23 396.85 336.222 C 373.905 336.23 357.262 339.995 340.766 343.902 C 324.309 347.795 307.929 351.87 286.653 351.864 C 249.864 351.864 225.203 347.342 219.725 346.24 L 219.725 447.988 L 220.884 448.245 C 220.884 448.245 221.215 448.319 221.96 448.472"
     style="fill:#000000;fill-opacity:1;fill-rule:nonzero;stroke:none"
     id="path16269" />
  <path
     d="M 452.934 456.563 C 436.437 452.659 419.794 448.894 396.85 448.886 C 373.906 448.894 357.265 452.659 340.768 456.563 C 324.306 460.456 307.929 464.535 286.656 464.53 C 249.859 464.53 225.197 460.003 219.727 458.899 L 219.727 560.781 C 219.727 560.781 245.484 566.527 286.656 566.527 C 327.825 566.527 349.781 550.88 396.85 550.88 C 443.921 550.88 465.877 566.527 507.049 566.527 C 548.218 566.527 573.978 560.781 573.978 560.781 L 573.978 458.899 C 568.511 460 543.846 464.53 507.049 464.53 C 485.77 464.535 469.397 460.456 452.934 456.563"
     style="fill:#000000;fill-opacity:1;fill-rule:nonzero;stroke:none"
     id="path16273" />
  <path
     d="M 221.957 335.807 C 222.705 335.952 223.832 336.174 225.318 336.435 C 228.288 336.958 232.709 337.662 238.402 338.37 C 249.801 339.779 266.317 341.198 286.652 341.198 C 306.545 341.195 321.733 337.447 338.309 333.518 C 354.853 329.602 372.717 325.547 396.85 325.552 C 420.981 325.547 438.847 329.602 455.388 333.518 C 471.964 337.447 487.151 341.195 507.044 341.198 C 542.639 341.198 566.524 336.854 571.743 335.807 C 572.484 335.659 572.813 335.583 572.813 335.583 L 572.817 335.586 L 573.977 335.328 L 573.977 233.458 C 573.977 233.458 548.216 239.203 507.047 239.203 C 465.875 239.203 443.92 223.557 396.85 223.557 C 349.779 223.557 327.823 239.203 286.654 239.203 C 245.484 239.203 219.725 233.458 219.725 233.458 L 219.725 335.326 L 220.884 335.583 C 220.884 335.583 221.212 335.659 221.957 335.807"
     style="fill:#000000;fill-opacity:1;fill-rule:nonzero;stroke:none"
     id="path16277" />
</svg>
