<?xml version="1.0" encoding="UTF-8" standalone="no"?>
<!-- Created with Inkscape (http://www.inkscape.org/) -->

<svg
   sodipodi:docname="Sumiiri Tsurukaku.svg"
   viewBox="0 0 793.70135 793.70135"
   height="793.70135"
   width="793.70135"
   id="svg21481"
   version="1.1"
   inkscape:version="1.2 (dc2aeda, 2022-05-15)"
   xmlns:inkscape="http://www.inkscape.org/namespaces/inkscape"
   xmlns:sodipodi="http://sodipodi.sourceforge.net/DTD/sodipodi-0.dtd"
   xmlns="http://www.w3.org/2000/svg"
   xmlns:svg="http://www.w3.org/2000/svg">
  <defs
     id="defs21485">
    <clipPath
       clipPathUnits="userSpaceOnUse"
       id="clipPath21830">
      <path
         d="M -538.2217,577.9479 H 57.054297 V -17.3281 H -538.2217 Z"
         id="path21832"
         style="stroke-width:0.999998" />
    </clipPath>
    <clipPath
       clipPathUnits="userSpaceOnUse"
       id="clipPath21834">
      <path
         d="M -584.1943,578.9381 H 11.081697 V -16.3379 H -584.1943 Z"
         id="path21836"
         style="stroke-width:0.999998" />
    </clipPath>
    <clipPath
       clipPathUnits="userSpaceOnUse"
       id="clipPath21838">
      <path
         d="M -586.5449,579.5026 H 8.7310974 V -15.7734 H -586.5449 Z"
         id="path21840"
         style="stroke-width:0.999998" />
    </clipPath>
    <clipPath
       clipPathUnits="userSpaceOnUse"
       id="clipPath21842">
      <path
         d="M -556.4014,578.0143 H 38.874597 V -17.2617 H -556.4014 Z"
         id="path21844"
         style="stroke-width:0.999998" />
    </clipPath>
    <clipPath
       clipPathUnits="userSpaceOnUse"
       id="clipPath21846">
      <path
         d="M -550.2637,577.3248 H 45.012297 V -17.9512 H -550.2637 Z"
         id="path21848"
         style="stroke-width:0.999998" />
    </clipPath>
    <clipPath
       clipPathUnits="userSpaceOnUse"
       id="clipPath21850">
      <path
         d="M -568.2266,575.819 H 27.049397 V -19.457 H -568.2266 Z"
         id="path21852"
         style="stroke-width:0.999998" />
    </clipPath>
    <clipPath
       clipPathUnits="userSpaceOnUse"
       id="clipPath21854">
      <path
         d="M -557.4951,577.8502 H 37.780897 V -17.4258 H -557.4951 Z"
         id="path21856"
         style="stroke-width:0.999998" />
    </clipPath>
    <clipPath
       clipPathUnits="userSpaceOnUse"
       id="clipPath21858">
      <path
         d="M -576.3691,585.5885 H 18.906897 V -9.6875 H -576.3691 Z"
         id="path21860"
         style="stroke-width:0.999998" />
    </clipPath>
    <clipPath
       clipPathUnits="userSpaceOnUse"
       id="clipPath21862">
      <path
         d="M -574.5459,585.8522 H 20.730097 V -9.4238 H -574.5459 Z"
         id="path21864"
         style="stroke-width:0.999998" />
    </clipPath>
    <clipPath
       clipPathUnits="userSpaceOnUse"
       id="clipPath21866">
      <path
         d="M -572.8174,586.1354 H 22.458597 V -9.1406 H -572.8174 Z"
         id="path21868"
         style="stroke-width:0.999998" />
    </clipPath>
    <clipPath
       clipPathUnits="userSpaceOnUse"
       id="clipPath21870">
      <path
         d="M -567.7754,585.8522 H 27.500597 V -9.4238 H -567.7754 Z"
         id="path21872"
         style="stroke-width:0.999998" />
    </clipPath>
    <clipPath
       clipPathUnits="userSpaceOnUse"
       id="clipPath21874">
      <path
         d="M -564.5732,585.8483 H 30.702797 V -9.4277 H -564.5732 Z"
         id="path21876"
         style="stroke-width:0.999998" />
    </clipPath>
    <clipPath
       clipPathUnits="userSpaceOnUse"
       id="clipPath21878">
      <path
         d="M -561.4131,585.8522 H 33.862897 V -9.4238 H -561.4131 Z"
         id="path21880"
         style="stroke-width:0.999998" />
    </clipPath>
    <clipPath
       clipPathUnits="userSpaceOnUse"
       id="clipPath21882">
      <path
         d="M -557.0645,585.8483 H 38.211497 V -9.4277 H -557.0645 Z"
         id="path21884"
         style="stroke-width:0.999998" />
    </clipPath>
    <clipPath
       clipPathUnits="userSpaceOnUse"
       id="clipPath21886">
      <path
         d="M -553.8975,585.8483 H 41.378497 V -9.4277 H -553.8975 Z"
         id="path21888"
         style="stroke-width:0.999998" />
    </clipPath>
    <clipPath
       clipPathUnits="userSpaceOnUse"
       id="clipPath21890">
      <path
         d="M -548.9834,585.8522 H 46.292597 V -9.4238 H -548.9834 Z"
         id="path21892"
         style="stroke-width:0.999998" />
    </clipPath>
    <clipPath
       clipPathUnits="userSpaceOnUse"
       id="clipPath21894">
      <path
         d="M -545.417,584.5729 H 49.858997 V -10.7031 H -545.417 Z"
         id="path21896"
         style="stroke-width:0.999998" />
    </clipPath>
    <clipPath
       clipPathUnits="userSpaceOnUse"
       id="clipPath21898">
      <path
         d="M -542.9326,584.5729 H 52.343397 V -10.7031 H -542.9326 Z"
         id="path21900"
         style="stroke-width:0.999998" />
    </clipPath>
    <clipPath
       clipPathUnits="userSpaceOnUse"
       id="clipPath21902">
      <path
         d="M -540.8213,585.8483 H 54.454697 V -9.4277 H -540.8213 Z"
         id="path21904"
         style="stroke-width:0.999998" />
    </clipPath>
    <clipPath
       clipPathUnits="userSpaceOnUse"
       id="clipPath21906">
      <path
         d="M -536.6982,584.5729 H 58.577797 V -10.7031 H -536.6982 Z"
         id="path21908"
         style="stroke-width:0.999998" />
    </clipPath>
    <clipPath
       clipPathUnits="userSpaceOnUse"
       id="clipPath21910">
      <path
         d="M -528.0898,575.3815 H 67.186197 V -19.8945 H -528.0898 Z"
         id="path21912"
         style="stroke-width:0.999998" />
    </clipPath>
    <clipPath
       clipPathUnits="userSpaceOnUse"
       id="clipPath21914">
      <path
         d="M -531.1924,581.5885 H 64.083597 V -13.6875 H -531.1924 Z"
         id="path21916"
         style="stroke-width:0.999998" />
    </clipPath>
    <clipPath
       clipPathUnits="userSpaceOnUse"
       id="clipPath22032">
      <path
         d="m -466.5977,267.4738 h 595.276 v -595.276 h -595.276 z"
         id="path22034"
         style="stroke-width:0.999998" />
    </clipPath>
  </defs>
  <sodipodi:namedview
     id="namedview21483"
     pagecolor="#ffffff"
     bordercolor="#000000"
     borderopacity="0.25"
     inkscape:showpageshadow="2"
     inkscape:pageopacity="0.0"
     inkscape:pagecheckerboard="0"
     inkscape:deskcolor="#d1d1d1"
     showgrid="false"
     inkscape:zoom="0.29734106"
     inkscape:cx="-215.24105"
     inkscape:cy="396.85068"
     inkscape:window-width="1419"
     inkscape:window-height="456"
     inkscape:window-x="0"
     inkscape:window-y="25"
     inkscape:window-maximized="0"
     inkscape:current-layer="svg21481">
    <inkscape:page
       x="0"
       y="0"
       id="page21487"
       width="793.70135"
       height="793.70135" />
  </sodipodi:namedview>
  <path
     d="M 622.13 356.632 C 617.991 360.437 615.403 365.889 615.401 371.956 C 615.405 382.733 621.458 392.095 630.349 396.831 C 621.426 401.556 615.35 410.933 615.346 421.736 C 615.349 427.8 617.937 433.253 622.075 437.058 C 633.015 446.75 640.385 440.121 639.714 435.092 C 639.361 432.428 637.035 430.23 634.35 430.23 C 631.969 430.23 629.983 431.941 629.566 434.206 C 625.102 431.837 622.065 427.144 622.054 421.736 C 622.075 409.884 631.666 400.296 643.515 400.275 C 653.471 400.293 661.829 407.064 664.265 416.251 C 668.262 430.905 664.569 447.225 653.058 458.738 L 458.734 653.113 C 447.221 664.623 430.9 668.37 416.247 664.373 C 407.059 661.941 400.288 653.581 400.271 643.626 C 400.292 631.777 409.88 622.186 421.731 622.165 C 427.138 622.173 431.83 625.211 434.201 629.675 C 431.937 630.091 430.225 632.075 430.225 634.462 C 430.225 637.143 432.424 639.471 435.088 639.823 C 440.116 640.495 446.748 633.126 437.054 622.186 C 433.25 618.045 427.797 615.459 421.731 615.457 C 410.953 615.459 401.595 621.514 396.857 630.402 C 392.133 621.479 382.755 615.405 371.952 615.399 C 365.885 615.402 360.435 617.993 356.628 622.129 C 346.936 633.071 353.567 640.441 358.596 639.769 C 361.26 639.414 363.457 637.089 363.457 634.405 C 363.457 632.021 361.747 630.037 359.484 629.621 C 361.852 625.157 366.547 622.121 371.952 622.11 C 383.804 622.129 393.391 631.719 393.412 643.571 C 393.395 653.526 386.624 661.883 377.436 664.318 C 362.783 668.315 346.463 664.569 334.948 653.058 L 140.587 458.756 C 129.075 447.241 125.273 430.92 129.271 416.267 C 131.706 407.079 140.063 400.308 150.019 400.291 C 161.87 400.311 171.459 409.9 171.48 421.748 C 171.471 427.16 168.432 431.853 163.968 434.222 C 163.551 431.957 161.567 430.245 159.184 430.245 C 156.499 430.245 154.174 432.444 153.821 435.108 C 153.15 440.136 160.519 446.766 171.459 437.074 C 175.599 433.269 178.187 427.816 178.19 421.748 C 178.184 410.975 172.131 401.613 163.242 396.877 C 172.163 392.153 178.24 382.773 178.244 371.972 C 178.242 365.905 175.652 360.452 171.515 356.648 C 160.574 346.955 153.206 353.587 153.875 358.615 C 154.229 361.279 156.555 363.477 159.239 363.477 C 161.622 363.477 163.607 361.767 164.023 359.501 C 168.487 361.872 171.526 366.564 171.535 371.972 C 171.515 383.824 161.924 393.409 150.074 393.431 C 140.119 393.415 131.761 386.644 129.327 377.456 C 125.327 362.803 129.075 346.481 140.587 334.968 L 334.961 140.593 C 346.476 129.082 362.796 125.334 377.449 129.331 C 386.637 131.767 393.408 140.125 393.424 150.079 C 393.404 161.93 383.817 171.519 371.965 171.54 C 366.557 171.531 361.865 168.494 359.495 164.03 C 361.76 163.612 363.471 161.628 363.471 159.246 C 363.471 156.561 361.272 154.235 358.608 153.882 C 353.58 153.21 346.948 160.579 356.641 171.519 C 360.445 175.659 365.899 178.247 371.965 178.25 C 382.743 178.246 392.103 172.191 396.839 163.302 C 401.563 172.224 410.941 178.3 421.743 178.304 C 427.81 178.302 433.265 175.712 437.068 171.574 C 446.761 160.635 440.129 153.265 435.101 153.937 C 432.436 154.29 430.238 156.615 430.238 159.3 C 430.238 161.683 431.95 163.667 434.213 164.084 C 431.844 168.548 427.153 171.584 421.743 171.595 C 409.893 171.574 400.305 161.986 400.284 150.134 C 400.301 140.179 407.072 131.822 416.26 129.387 C 430.913 125.389 447.234 129.137 458.748 140.647 L 653.058 334.952 C 664.569 346.467 668.317 362.787 664.319 377.44 C 661.885 386.628 653.526 393.399 643.571 393.415 C 631.721 393.393 622.13 383.808 622.11 371.956 C 622.119 366.549 625.158 361.856 629.621 359.488 C 630.038 361.751 632.022 363.461 634.405 363.461 C 637.09 363.461 639.415 361.264 639.769 358.6 C 640.439 353.571 633.071 346.939 622.13 356.632 M 740.734 396.844 C 763.679 373.893 763.639 336.728 740.694 313.78 L 479.922 53.0088 C 456.974 30.0635 419.805 30.0261 396.857 52.9714 C 373.907 30.0261 336.737 29.9915 313.792 52.9368 L 52.9328 313.799 C 29.9901 336.745 30.0221 373.916 52.9674 396.868 C 30.0221 419.816 30.0595 456.982 53.0021 479.93 L 313.776 740.695 C 336.724 763.638 373.892 763.68 396.839 740.738 C 419.789 763.68 456.958 763.714 479.906 740.771 L 740.768 479.912 C 763.712 456.962 763.679 419.796 740.734 396.844"
     style="fill:#000000;fill-opacity:1;fill-rule:nonzero;stroke:none"
     id="path21601" />
</svg>
