<?xml version="1.0" encoding="UTF-8" standalone="no"?>
<!-- Created with Inkscape (http://www.inkscape.org/) -->

<svg
   version="1.1"
   id="svg34"
   width="795.03467"
   height="793.70135"
   viewBox="0 0 795.03467 793.70135"
   sodipodi:docname="odanobunaga-kamon.svg"
   inkscape:version="1.2 (dc2aeda, 2022-05-15)"
   xmlns:inkscape="http://www.inkscape.org/namespaces/inkscape"
   xmlns:sodipodi="http://sodipodi.sourceforge.net/DTD/sodipodi-0.dtd"
   xmlns="http://www.w3.org/2000/svg"
   xmlns:svg="http://www.w3.org/2000/svg">
  <defs
     id="defs22" />
  <sodipodi:namedview
     id="namedview36"
     pagecolor="#ffffff"
     bordercolor="#000000"
     borderopacity="0.25"
     inkscape:showpageshadow="2"
     inkscape:pageopacity="0.0"
     inkscape:pagecheckerboard="0"
     inkscape:deskcolor="#d1d1d1"
     showgrid="false"
     inkscape:zoom="0.29734106"
     inkscape:cx="-26.90513"
     inkscape:cy="403.57696"
     inkscape:window-width="1419"
     inkscape:window-height="612"
     inkscape:window-x="0"
     inkscape:window-y="25"
     inkscape:window-maximized="0"
     inkscape:current-layer="g42">
    <inkscape:page
       x="0"
       y="0"
       id="page40"
       width="795.03467"
       height="793.70135" />
  </sodipodi:namedview>
  <g
     id="g42"
     inkscape:groupmode="layer"
     inkscape:label="Page 1"
     transform="matrix(1.3333333,0,0,-1.3333333,0,793.70133)">
    <path
       d="m 297.6377,480.9771 c 42.301,0 70.279,-11.927 89.199,-22.399 11.496,-6.367 11.903,-14.984 11.903,-14.984 l 27.136,37.352 c 16.266,22.486 8.141,46.622 -9.746,59.629 -17.885,13.007 -60.504,30.904 -118.492,30.904 -57.987,0 -100.607,-17.897 -118.492,-30.904 -17.887,-13.007 -26.012,-37.143 -9.746,-59.629 l 27.136,-37.352 c 0,0 0.407,8.617 11.903,14.984 18.92,10.472 46.897,22.399 89.199,22.399"
       style="fill:#000000;fill-opacity:1;fill-rule:nonzero;stroke:none"
       id="path154"
       clip-path="url(#clipPath804)" />
    <path
       d="m 297.6377,464.2739 c 25.865,0 48.211,-4.697 70.096,-15.759 8.369,-4.231 10.541,-6.297 10.541,-9.22 -0.002,-1.237 -0.936,-1.82 -0.936,-1.82 -3.736,0 -6.769,-3.03 -6.769,-6.768 0,-3.738 3.236,-6.353 6.769,-6.768 7.61,-0.896 13.281,5.71 13.014,13.013 -0.303,8.262 -6.748,13.965 -11.256,16.473 -22.367,12.444 -51.137,20.327 -81.459,20.327 -30.321,0 -59.093,-7.883 -81.459,-20.327 -4.508,-2.508 -10.953,-8.211 -11.256,-16.473 -0.267,-7.303 5.404,-13.909 13.014,-13.013 3.533,0.415 6.769,3.03 6.769,6.768 0,3.738 -3.033,6.768 -6.769,6.768 0,0 -0.934,0.583 -0.936,1.82 0,2.923 2.172,4.989 10.541,9.22 21.884,11.062 44.23,15.759 70.096,15.759"
       style="fill:#000000;fill-opacity:1;fill-rule:nonzero;stroke:none"
       id="path158"
       clip-path="url(#clipPath718)" />
    <path
       d="m 123.2705,354.2915 c 13.072,40.23 33.061,63.154 48.867,77.912 9.608,8.966 17.928,6.689 17.928,6.689 l -27.137,37.351 c -16.359,22.419 -41.826,22.149 -59.722,9.157 -17.899,-12.99 -48.088,-47.993 -66.008,-103.142 -17.92,-55.149 -14.069,-101.214 -7.225,-122.241 6.844,-21.031 27.287,-36.219 53.699,-27.695 l 43.909,14.265 c 0,0 -8.069,3.049 -10.571,15.95 -4.115,21.23 -6.812,51.524 6.26,91.754"
       style="fill:#000000;fill-opacity:1;fill-rule:nonzero;stroke:none"
       id="path162"
       clip-path="url(#clipPath810)" />
    <path
       d="m 139.1572,349.1313 c 7.992,24.6 19.363,44.398 36.648,61.795 6.61,6.652 9.245,8.078 12.026,7.174 1.176,-0.383 1.441,-1.451 1.441,-1.451 -1.154,-3.553 0.791,-7.373 4.346,-8.53 3.555,-1.154 7.041,1.116 8.529,4.348 3.203,6.959 -1.328,14.395 -8.355,16.398 -7.951,2.265 -15.367,-2.104 -19.147,-5.615 -18.746,-17.428 -35.133,-42.353 -44.504,-71.191 -9.369,-28.836 -10.763,-58.636 -5.839,-83.753 0.994,-5.062 4.423,-12.955 12.189,-15.797 6.861,-2.509 14.898,0.844 16.396,8.356 0.698,3.488 -0.789,7.375 -4.343,8.529 -3.555,1.156 -7.375,-0.791 -8.53,-4.346 0,0 -0.841,-0.707 -2.019,-0.326 -2.779,0.903 -4.074,3.606 -5.512,12.873 -3.758,24.233 -1.32,46.936 6.674,71.536"
       style="fill:#000000;fill-opacity:1;fill-rule:nonzero;stroke:none"
       id="path166"
       clip-path="url(#clipPath792)" />
    <path
       d="m 189.874,149.3125 c -34.223,24.863 -49.848,50.957 -58.998,70.551 -5.559,11.908 -0.822,19.117 -0.822,19.117 l -43.909,-14.268 c -26.376,-8.63 -33.99,-32.933 -27.164,-53.968 6.823,-21.037 30.784,-60.567 77.696,-94.651 46.914,-34.084 91.912,-44.656 114.026,-44.644 22.115,0.009 42.877,14.759 42.934,42.511 l 0.002,46.168 c 0,0 -5.393,-6.732 -18.438,-5.125 -21.461,2.649 -51.106,9.444 -85.327,34.309"
       style="fill:#000000;fill-opacity:1;fill-rule:nonzero;stroke:none"
       id="path170"
       clip-path="url(#clipPath834)" />
    <path
       d="m 199.6904,162.8262 c -20.926,15.201 -36.242,32.137 -47.445,53.949 -4.284,8.342 -4.826,11.289 -3.108,13.655 0.729,1 1.826,0.923 1.826,0.923 3.024,-2.197 7.258,-1.527 9.456,1.496 2.195,3.024 1.115,7.041 -1.499,9.456 -5.628,5.197 -14.103,3.185 -18.177,-2.879 -4.612,-6.864 -2.748,-15.264 -0.576,-19.944 10.779,-23.215 29.421,-46.502 53.953,-64.326 24.529,-17.822 52.438,-28.355 77.848,-31.434 5.121,-0.621 13.69,0.204 18.789,6.709 4.51,5.752 3.803,14.43 -2.879,18.178 -3.101,1.742 -7.257,1.528 -9.455,-1.496 -2.197,-3.023 -1.525,-7.258 1.498,-9.455 0,0 0.413,-1.02 -0.312,-2.021 -1.719,-2.366 -4.69,-2.76 -13.947,-1.264 -24.207,3.914 -45.046,13.248 -65.972,28.453"
       style="fill:#000000;fill-opacity:1;fill-rule:nonzero;stroke:none"
       id="path174"
       clip-path="url(#clipPath700)" />
    <path
       d="m 405.4033,149.3125 c -34.223,-24.865 -63.867,-31.66 -85.33,-34.309 -13.043,-1.607 -18.436,5.127 -18.436,5.127 v -46.17 c 0.059,-27.752 20.819,-42.502 42.936,-42.511 22.113,-0.012 67.113,10.562 114.025,44.644 46.912,34.086 70.873,73.615 77.698,94.651 6.824,21.035 -0.789,45.339 -27.166,53.968 l -43.909,14.268 c 0,0 4.737,-7.209 -0.822,-19.117 -9.15,-19.594 -24.773,-45.688 -58.996,-70.551"
       style="fill:#000000;fill-opacity:1;fill-rule:nonzero;stroke:none"
       id="path178"
       clip-path="url(#clipPath822)" />
    <path
       d="m 395.585,162.8262 c -20.926,-15.205 -41.764,-24.539 -65.971,-28.453 -9.258,-1.496 -12.228,-1.102 -13.947,1.264 -0.725,1.001 -0.314,2.021 -0.314,2.021 3.025,2.197 3.697,6.432 1.5,9.455 -2.198,3.024 -6.354,3.236 -9.456,1.498 -6.683,-3.748 -7.388,-12.428 -2.878,-18.178 5.101,-6.507 13.666,-7.33 18.789,-6.711 25.408,3.079 53.318,13.614 77.849,31.434 24.53,17.822 43.172,41.111 53.951,64.326 2.174,4.68 4.038,13.082 -0.574,19.944 -4.076,6.064 -12.549,8.076 -18.178,2.879 -2.615,-2.413 -3.695,-6.43 -1.498,-9.456 2.198,-3.023 6.432,-3.693 9.456,-1.496 0,0 1.095,0.077 1.824,-0.923 1.718,-2.364 1.177,-5.313 -3.108,-13.655 -11.201,-21.812 -26.519,-38.746 -47.445,-53.949"
       style="fill:#000000;fill-opacity:1;fill-rule:nonzero;stroke:none"
       id="path182"
       clip-path="url(#clipPath774)" />
    <path
       d="m 472.0049,354.2935 c 13.072,-40.23 10.375,-70.526 6.26,-91.756 -2.502,-12.901 -10.573,-15.95 -10.573,-15.95 l 43.911,-14.265 c 26.412,-8.522 46.855,6.664 53.699,27.695 6.844,21.029 10.693,67.092 -7.225,122.243 -17.92,55.148 -48.109,90.151 -66.008,103.141 -17.896,12.991 -43.363,13.261 -59.722,-9.158 l -27.137,-37.35 c 0,0 8.32,2.276 17.928,-6.691 15.808,-14.757 35.795,-37.679 48.867,-77.909"
       style="fill:#000000;fill-opacity:1;fill-rule:nonzero;stroke:none"
       id="path186"
       clip-path="url(#clipPath786)" />
    <path
       d="m 456.1182,349.1313 c 7.994,-24.6 10.434,-47.303 6.674,-71.536 -1.438,-9.267 -2.731,-11.97 -5.512,-12.873 -1.176,-0.381 -2.019,0.326 -2.019,0.326 -1.155,3.555 -4.973,5.502 -8.53,4.348 -3.554,-1.156 -5.041,-5.043 -4.345,-8.529 1.5,-7.514 9.537,-10.867 16.398,-8.356 7.766,2.84 11.195,10.733 12.189,15.795 4.924,25.117 3.53,54.917 -5.839,83.755 -9.37,28.836 -25.756,53.763 -44.504,71.188 -3.78,3.512 -11.196,7.882 -19.145,5.616 -7.029,-2.002 -11.558,-9.439 -8.357,-16.398 1.488,-3.232 4.974,-5.502 8.529,-4.348 3.557,1.157 5.5,4.977 4.346,8.532 0,0 0.265,1.066 1.441,1.449 2.779,0.904 5.416,-0.522 12.026,-7.174 17.285,-17.395 28.656,-37.195 36.648,-61.795"
       style="fill:#000000;fill-opacity:1;fill-rule:nonzero;stroke:none"
       id="path190"
       clip-path="url(#clipPath828)" />
    <path
       d="m 306.1123,323.7329 c 14.414,-4.682 22.301,-20.158 17.615,-34.569 -4.677,-14.414 -20.156,-22.301 -34.569,-17.617 -14.41,4.68 -22.297,20.16 -17.613,34.573 4.679,14.408 20.16,22.295 34.567,17.613"
       style="fill:#000000;fill-opacity:1;fill-rule:nonzero;stroke:none"
       id="path194"
       clip-path="url(#clipPath858)" />
    <path
       d="m 297.6377,369.522 c 2.211,0 4.002,-1.791 4.002,-4.002 l 0.002,-32.662 c 4.767,-0.543 9.348,-2.051 13.467,-4.385 l 42.509,58.51 c 2.891,4.209 4.586,9.312 4.586,14.805 0,14.459 -11.722,26.181 -26.181,26.181 -3.848,0 -7.5,-0.828 -10.791,-2.321 -0.817,14.533 -12.856,26.068 -27.594,26.068 -14.737,0 -26.778,-11.535 -27.595,-26.068 -3.291,1.493 -6.941,2.321 -10.789,2.321 -14.459,0 -26.181,-11.722 -26.181,-26.181 0,-5.493 1.695,-10.596 4.584,-14.805 l 42.509,-58.51 c 4.119,2.334 8.701,3.842 13.469,4.385 v 32.662 c 0,2.211 1.793,4.002 4.003,4.002"
       style="fill:#000000;fill-opacity:1;fill-rule:nonzero;stroke:none"
       id="path198"
       clip-path="url(#clipPath870)" />
    <path
       d="m 229.2725,319.8521 c 0.684,2.102 2.941,3.252 5.042,2.57 l 31.064,-10.093 c 1.991,4.367 4.84,8.257 8.333,11.453 l -42.509,58.509 c -3.111,4.049 -7.441,7.239 -12.663,8.936 -13.753,4.469 -28.525,-3.057 -32.992,-16.809 -1.189,-3.66 -1.529,-7.388 -1.129,-10.978 -14.072,3.713 -28.763,-4.172 -33.318,-18.188 -4.554,-14.017 2.696,-29.033 16.266,-34.298 -2.436,-2.67 -4.353,-5.887 -5.541,-9.545 -4.469,-13.753 3.057,-28.524 16.81,-32.993 5.223,-1.697 10.6,-1.662 15.496,-0.213 l 68.783,22.348 c -0.948,4.638 -0.966,9.461 -0.009,14.164 l -31.065,10.094 c -2.1,0.684 -3.25,2.941 -2.568,5.043"
       style="fill:#000000;fill-opacity:1;fill-rule:nonzero;stroke:none"
       id="path202"
       clip-path="url(#clipPath876)" />
    <path
       d="m 255.3867,239.4844 c -1.789,1.299 -2.186,3.801 -0.887,5.59 l 19.199,26.424 c -3.539,3.242 -6.359,7.154 -8.318,11.465 l -68.782,-22.35 c -4.813,-1.705 -9.184,-4.838 -12.412,-9.281 -8.499,-11.7 -5.906,-28.073 5.792,-36.573 3.112,-2.259 6.554,-3.736 10.093,-4.464 -7.881,-12.237 -4.92,-28.645 7.002,-37.307 11.922,-8.664 28.444,-6.408 37.645,4.869 1.786,-3.141 4.253,-5.959 7.366,-8.219 11.697,-8.5 28.072,-5.906 36.572,5.791 3.227,4.444 4.855,9.569 4.992,14.674 v 72.322 c -4.705,0.532 -9.297,2.004 -13.473,4.368 l -19.2,-26.424 c -1.299,-1.787 -3.802,-2.184 -5.589,-0.885"
       style="fill:#000000;fill-opacity:1;fill-rule:nonzero;stroke:none"
       id="path206"
       clip-path="url(#clipPath882)" />
    <path
       d="m 339.8896,239.4844 c -1.787,-1.299 -4.291,-0.902 -5.59,0.885 l -19.199,26.424 c -4.176,-2.364 -8.768,-3.836 -13.473,-4.368 v -72.322 c 0.137,-5.103 1.766,-10.228 4.992,-14.672 8.5,-11.699 24.875,-14.293 36.573,-5.793 3.111,2.262 5.578,5.078 7.365,8.219 9.201,-11.277 25.723,-13.531 37.645,-4.869 11.923,8.662 14.884,25.07 7.001,37.308 3.54,0.727 6.981,2.204 10.094,4.465 11.697,8.498 14.291,24.871 5.791,36.571 -3.226,4.443 -7.597,7.576 -12.41,9.283 l -68.783,22.348 c -1.959,-4.309 -4.779,-8.223 -8.319,-11.463 l 19.2,-26.426 c 1.297,-1.787 0.9,-4.291 -0.887,-5.59"
       style="fill:#000000;fill-opacity:1;fill-rule:nonzero;stroke:none"
       id="path210"
       clip-path="url(#clipPath888)" />
    <path
       d="m 366.0029,319.8521 c 0.682,-2.102 -0.467,-4.359 -2.568,-5.043 l -31.065,-10.094 c 0.957,-4.701 0.94,-9.524 -0.008,-14.162 l 68.782,-22.35 c 4.896,-1.447 10.273,-1.482 15.496,0.213 13.754,4.469 21.279,19.24 16.81,32.993 -1.187,3.658 -3.105,6.875 -5.541,9.545 13.569,5.267 20.821,20.283 16.266,34.298 -4.555,14.016 -19.246,21.903 -33.318,18.188 0.4,3.59 0.06,7.32 -1.129,10.978 -4.467,13.752 -19.239,21.28 -32.991,16.811 -5.222,-1.697 -9.552,-4.887 -12.664,-8.936 l -42.509,-58.509 c 3.494,-3.198 6.343,-7.088 8.332,-11.453 l 31.064,10.091 c 2.102,0.682 4.359,-0.468 5.043,-2.57"
       style="fill:#000000;fill-opacity:1;fill-rule:nonzero;stroke:none"
       id="path214"
       clip-path="url(#clipPath864)" />
  </g>
</svg>
