<?xml version="1.0" encoding="UTF-8" standalone="no"?>
<!-- Created with Inkscape (http://www.inkscape.org/) -->

<svg
   version="1.1"
   id="svg12577"
   width="795.03467"
   height="793.70135"
   viewBox="0 0 795.03467 793.70135"
   sodipodi:docname="Atama Awase Mitsu Karigane.svg"
   inkscape:version="1.2 (dc2aeda, 2022-05-15)"
   xmlns:inkscape="http://www.inkscape.org/namespaces/inkscape"
   xmlns:sodipodi="http://sodipodi.sourceforge.net/DTD/sodipodi-0.dtd"
   xmlns="http://www.w3.org/2000/svg"
   xmlns:svg="http://www.w3.org/2000/svg">
  <defs
     id="defs12581">
    <clipPath
       clipPathUnits="userSpaceOnUse"
       id="clipPath13070">
      <path
         d="M -568.2266,575.819 H 28.049401 V -19.457003 H -568.2266 Z"
         id="path13072"
         style="stroke-width:0.999998" />
    </clipPath>
    <clipPath
       clipPathUnits="userSpaceOnUse"
       id="clipPath13076">
      <path
         d="M -550.2637,577.3248 H 46.012306 V -17.951198 H -550.2637 Z"
         id="path13078"
         style="stroke-width:0.999998" />
    </clipPath>
    <clipPath
       clipPathUnits="userSpaceOnUse"
       id="clipPath13084">
      <path
         d="M -556.4014,578.0143 H 39.874606 V -17.2617 H -556.4014 Z"
         id="path13086"
         style="stroke-width:0.999998" />
    </clipPath>
    <clipPath
       clipPathUnits="userSpaceOnUse"
       id="clipPath13090">
      <path
         d="M -545.417,584.5729 H 50.859001 V -10.7031 H -545.417 Z"
         id="path13092"
         style="stroke-width:0.999998" />
    </clipPath>
    <clipPath
       clipPathUnits="userSpaceOnUse"
       id="clipPath13096">
      <path
         d="M -584.1943,578.9381 H 12.081705 V -16.337903 H -584.1943 Z"
         id="path13098"
         style="stroke-width:0.999998" />
    </clipPath>
    <clipPath
       clipPathUnits="userSpaceOnUse"
       id="clipPath13102">
      <path
         d="M -586.5449,579.5026 H 9.7311002 V -15.7734 H -586.5449 Z"
         id="path13104"
         style="stroke-width:0.999998" />
    </clipPath>
    <clipPath
       clipPathUnits="userSpaceOnUse"
       id="clipPath13108">
      <path
         d="M -572.8174,586.1354 H 23.458606 V -9.1406027 H -572.8174 Z"
         id="path13110"
         style="stroke-width:0.999998" />
    </clipPath>
    <clipPath
       clipPathUnits="userSpaceOnUse"
       id="clipPath13114">
      <path
         d="M -557.0645,585.8483 H 39.211501 V -9.4277027 H -557.0645 Z"
         id="path13116"
         style="stroke-width:0.999998" />
    </clipPath>
    <clipPath
       clipPathUnits="userSpaceOnUse"
       id="clipPath13120">
      <path
         d="M -553.8975,585.8483 H 42.378504 V -9.4277027 H -553.8975 Z"
         id="path13122"
         style="stroke-width:0.999998" />
    </clipPath>
    <clipPath
       clipPathUnits="userSpaceOnUse"
       id="clipPath13126">
      <path
         d="M -574.5459,585.8522 H 21.730103 V -9.4238027 H -574.5459 Z"
         id="path13128"
         style="stroke-width:0.999998" />
    </clipPath>
    <clipPath
       clipPathUnits="userSpaceOnUse"
       id="clipPath13132">
      <path
         d="M -576.3691,585.5885 H 19.906905 V -9.6875027 H -576.3691 Z"
         id="path13134"
         style="stroke-width:0.999998" />
    </clipPath>
    <clipPath
       clipPathUnits="userSpaceOnUse"
       id="clipPath13138">
      <path
         d="M -557.4951,577.8502 H 38.780903 V -17.4258 H -557.4951 Z"
         id="path13140"
         style="stroke-width:0.999998" />
    </clipPath>
    <clipPath
       clipPathUnits="userSpaceOnUse"
       id="clipPath13144">
      <path
         d="M -548.9834,585.8522 H 47.292601 V -9.4238027 H -548.9834 Z"
         id="path13146"
         style="stroke-width:0.999998" />
    </clipPath>
    <clipPath
       clipPathUnits="userSpaceOnUse"
       id="clipPath13150">
      <path
         d="M -538.2217,577.9479 H 58.054299 V -17.328098 H -538.2217 Z"
         id="path13152"
         style="stroke-width:0.999998" />
    </clipPath>
    <clipPath
       clipPathUnits="userSpaceOnUse"
       id="clipPath13156">
      <path
         d="m -332.7852,343.0748 h 596.276 v -595.276 h -596.276 z"
         id="path13158"
         style="stroke-width:0.999998" />
    </clipPath>
    <clipPath
       clipPathUnits="userSpaceOnUse"
       id="clipPath13162">
      <path
         d="M -531.1924,581.5885 H 65.083599 V -13.6875 H -531.1924 Z"
         id="path13164"
         style="stroke-width:0.999998" />
    </clipPath>
    <clipPath
       clipPathUnits="userSpaceOnUse"
       id="clipPath13168">
      <path
         d="M -567.7754,585.8522 H 28.500601 V -9.4238027 H -567.7754 Z"
         id="path13170"
         style="stroke-width:0.999998" />
    </clipPath>
    <clipPath
       clipPathUnits="userSpaceOnUse"
       id="clipPath13174">
      <path
         d="M -542.9326,584.5729 H 53.343399 V -10.7031 H -542.9326 Z"
         id="path13176"
         style="stroke-width:0.999998" />
    </clipPath>
    <clipPath
       clipPathUnits="userSpaceOnUse"
       id="clipPath13180">
      <path
         d="M -564.5732,585.8483 H 31.702801 V -9.4277027 H -564.5732 Z"
         id="path13182"
         style="stroke-width:0.999998" />
    </clipPath>
    <clipPath
       clipPathUnits="userSpaceOnUse"
       id="clipPath13186">
      <path
         d="M -536.6982,584.5729 H 59.577804 V -10.7031 H -536.6982 Z"
         id="path13188"
         style="stroke-width:0.999998" />
    </clipPath>
    <clipPath
       clipPathUnits="userSpaceOnUse"
       id="clipPath13192">
      <path
         d="M -528.0898,575.3815 H 68.186199 V -19.8945 H -528.0898 Z"
         id="path13194"
         style="stroke-width:0.999998" />
    </clipPath>
    <clipPath
       clipPathUnits="userSpaceOnUse"
       id="clipPath13198">
      <path
         d="M -540.8213,585.8483 H 55.454701 V -9.4277027 H -540.8213 Z"
         id="path13200"
         style="stroke-width:0.999998" />
    </clipPath>
    <clipPath
       clipPathUnits="userSpaceOnUse"
       id="clipPath13204">
      <path
         d="M -561.4131,585.8522 H 34.862903 V -9.4238027 H -561.4131 Z"
         id="path13206"
         style="stroke-width:0.999998" />
    </clipPath>
  </defs>
  <sodipodi:namedview
     id="namedview12579"
     pagecolor="#ffffff"
     bordercolor="#000000"
     borderopacity="0.25"
     inkscape:showpageshadow="2"
     inkscape:pageopacity="0.0"
     inkscape:pagecheckerboard="0"
     inkscape:deskcolor="#d1d1d1"
     showgrid="false"
     inkscape:zoom="0.29734106"
     inkscape:cx="-215.24105"
     inkscape:cy="396.85068"
     inkscape:window-width="1419"
     inkscape:window-height="456"
     inkscape:window-x="0"
     inkscape:window-y="25"
     inkscape:window-maximized="0"
     inkscape:current-layer="svg12577">
    <inkscape:page
       x="0"
       y="0"
       id="page12583"
       width="795.03467"
       height="793.70135" />
  </sodipodi:namedview>
  <path
     d="M 443.714 457.433 C 441.447 461.362 436.423 462.709 432.498 460.441 C 428.574 458.176 427.225 453.152 429.494 449.225 C 431.761 445.297 436.783 443.954 440.709 446.22 C 444.634 448.488 445.981 453.509 443.714 457.433 M 443.674 441.086 C 436.91 437.181 428.262 439.496 424.359 446.261 C 420.453 453.024 422.77 461.673 429.534 465.576 C 436.297 469.482 444.946 467.168 448.851 460.402 C 452.755 453.636 450.438 444.99 443.674 441.086 M 423.026 559.649 L 442.559 525.815 L 421.43 531.701 Z M 450.258 530.261 L 430.73 564.094 L 455.727 551.501 Z M 455.802 464.414 C 449.681 475.021 436.123 478.652 425.519 472.529 C 414.917 466.409 411.283 452.849 417.406 442.245 C 423.527 431.641 437.085 428.012 447.689 434.13 C 458.291 440.253 461.925 453.808 455.802 464.414 M 446.29 410.86 C 446.383 410.573 446.507 410.308 446.65 410.061 C 447.69 408.258 449.89 407.378 451.931 408.073 C 454.973 409.102 457.854 410.409 460.543 411.964 C 479.883 423.13 489.29 446.701 481.861 468.657 C 481.074 470.985 478.547 472.228 476.222 471.446 C 473.897 470.652 472.651 468.128 473.437 465.802 C 479.499 447.941 471.806 428.74 456.093 419.67 C 453.909 418.406 451.569 417.342 449.077 416.498 C 446.749 415.714 445.502 413.185 446.29 410.86 M 537.283 477.917 C 537.703 438.149 546.164 397.994 563.31 359.967 C 509.973 336.768 446.563 356.785 416.786 408.36 C 395.423 445.36 396.789 489.225 416.523 523.837 L 455.029 513.105 L 462.29 541.313 C 483.938 515.684 509.383 494.42 537.283 477.917 M 677.401 394.024 C 678.276 333.543 689.68 275.687 709.831 222.159 C 659.083 246.268 614.867 285.471 584.652 337.808 C 558.196 383.627 545.826 433.709 546.167 483.05 C 503.259 507.422 466.074 543.19 439.619 589.017 C 409.401 641.351 397.559 699.244 402.054 755.247 C 438.333 711.031 482.735 672.23 534.675 641.233 C 589.819 608.318 648.677 587.058 708.387 576.719 C 687.485 519.84 676.471 458.236 677.401 394.024 M 323.958 395.93 C 327.885 393.662 332.909 395.008 335.176 398.936 C 337.442 402.865 336.096 407.884 332.172 410.152 C 328.242 412.417 323.221 411.073 320.956 407.146 C 318.686 403.217 320.032 398.196 323.958 395.93 M 335.134 415.285 C 341.898 411.381 344.216 402.736 340.309 395.97 C 336.406 389.207 327.757 386.889 320.994 390.794 C 314.232 394.698 311.913 403.348 315.817 410.11 C 319.724 416.876 328.37 419.19 335.134 415.285 M 233.484 370.516 L 254.612 376.401 L 235.08 342.571 Z M 267.78 350.715 L 242.781 338.125 L 262.312 371.956 Z M 292.57 428.294 C 294.417 426.678 297.226 426.86 298.849 428.704 C 311.284 442.884 331.758 445.824 347.47 436.75 C 349.656 435.488 351.752 433.996 353.724 432.261 C 355.57 430.638 358.382 430.818 360.005 432.665 C 360.202 432.889 360.372 433.128 360.516 433.376 C 361.554 435.178 361.218 437.521 359.593 438.941 C 357.182 441.064 354.609 442.905 351.92 444.457 C 332.58 455.624 307.464 451.98 292.164 434.572 C 290.541 432.725 290.729 429.914 292.57 428.294 M 316.981 383.841 C 327.582 377.72 341.14 381.352 347.262 391.954 C 353.386 402.561 349.752 416.118 339.149 422.24 C 328.545 428.36 314.989 424.733 308.864 414.126 C 302.742 403.518 306.377 389.964 316.981 383.841 M 345.566 559.454 C 392.325 524.859 406.695 459.936 376.918 408.362 C 355.558 371.365 316.889 350.611 277.046 350.397 L 267.085 389.109 L 239.028 381.295 C 250.401 412.857 256.09 445.524 256.432 477.941 C 290.664 498.185 321.205 525.589 345.566 559.454 M 247.546 483.069 C 247.892 433.72 235.509 383.632 209.052 337.808 C 178.836 285.472 134.62 246.268 83.8736 222.16 C 104.023 275.687 115.428 333.543 116.301 394.024 C 117.232 458.236 106.216 519.84 85.3176 576.719 C 145.025 587.058 203.884 608.321 259.028 641.233 C 310.968 672.23 355.37 711.031 391.65 755.247 C 396.145 699.244 384.302 641.351 354.086 589.017 C 327.632 543.195 290.448 507.441 247.546 483.069 M 425.886 342.397 C 421.353 342.397 417.675 338.72 417.675 334.187 C 417.675 329.653 421.353 325.976 425.886 325.976 C 430.422 325.976 434.097 329.653 434.097 334.187 C 434.097 338.72 430.422 342.397 425.886 342.397 M 425.886 320.047 C 418.075 320.047 411.747 326.377 411.747 334.187 C 411.747 341.995 418.075 348.327 425.886 348.327 C 433.695 348.327 440.027 341.995 440.027 334.187 C 440.027 326.377 433.695 320.047 425.886 320.047 M 501.343 268.54 L 485.685 283.895 L 524.747 283.895 Z M 501.343 308.141 L 524.747 292.787 L 485.685 292.787 Z M 425.886 356.356 C 413.641 356.356 403.718 346.432 403.718 334.187 C 403.718 321.941 413.641 312.017 425.886 312.017 C 438.131 312.017 448.055 321.941 448.055 334.187 C 448.055 346.432 438.131 356.356 425.886 356.356 M 386.989 334.139 C 386.989 336.661 387.237 339.224 387.751 341.8 C 388.235 344.209 386.671 346.555 384.262 347.037 C 383.967 347.095 383.678 347.123 383.39 347.123 C 381.311 347.121 379.45 345.657 379.03 343.543 C 378.399 340.392 378.091 337.243 378.091 334.139 C 378.091 311.807 393.803 291.876 416.531 287.331 C 418.939 286.849 421.281 288.415 421.765 290.821 C 422.241 293.229 420.678 295.571 418.271 296.052 C 399.774 299.733 386.989 315.995 386.989 334.139 M 496.986 316.324 L 468.442 288.341 L 489.239 267.951 C 456.217 262.02 425.081 250.615 396.841 234.702 C 362.189 254.224 323.186 266.972 281.68 271.136 C 288.257 328.929 337.297 373.835 396.851 373.835 C 439.574 373.835 476.879 350.723 496.986 316.324 M 396.841 224.443 C 439.406 249.415 488.973 263.735 541.886 263.735 C 602.319 263.735 658.377 245.044 704.629 213.152 C 648.199 203.839 592.392 184.787 539.576 155.306 C 483.503 124.003 435.661 83.6619 396.851 37.1234 C 358.042 83.6619 310.2 124.003 254.126 155.306 C 201.312 184.787 145.505 203.839 89.0762 213.152 C 135.327 245.044 191.385 263.735 251.817 263.735 C 304.725 263.735 354.284 249.41 396.841 224.443"
     style="fill:#000000;fill-opacity:1;fill-rule:nonzero;stroke:none"
     id="path12697" />
</svg>
