<?xml version="1.0" encoding="UTF-8" standalone="no"?>
<!-- Created with Inkscape (http://www.inkscape.org/) -->

<svg
   version="1.1"
   id="svg4317"
   width="795.03467"
   height="793.70135"
   viewBox="0 0 795.03467 793.70135"
   sodipodi:docname="Kage Musubi Karigane.svg"
   inkscape:version="1.2 (dc2aeda, 2022-05-15)"
   xmlns:inkscape="http://www.inkscape.org/namespaces/inkscape"
   xmlns:sodipodi="http://sodipodi.sourceforge.net/DTD/sodipodi-0.dtd"
   xmlns="http://www.w3.org/2000/svg"
   xmlns:svg="http://www.w3.org/2000/svg">
  <defs
     id="defs4321">
    <clipPath
       clipPathUnits="userSpaceOnUse"
       id="clipPath4810">
      <path
         d="M -531.1924,581.5885 H 65.083599 V -13.6875 H -531.1924 Z"
         id="path4812"
         style="stroke-width:0.999998" />
    </clipPath>
    <clipPath
       clipPathUnits="userSpaceOnUse"
       id="clipPath4816">
      <path
         d="M -564.5732,585.8483 H 31.702801 V -9.4277027 H -564.5732 Z"
         id="path4818"
         style="stroke-width:0.999998" />
    </clipPath>
    <clipPath
       clipPathUnits="userSpaceOnUse"
       id="clipPath4822">
      <path
         d="M -540.8213,585.8483 H 55.454701 V -9.4277027 H -540.8213 Z"
         id="path4824"
         style="stroke-width:0.999998" />
    </clipPath>
    <clipPath
       clipPathUnits="userSpaceOnUse"
       id="clipPath4828">
      <path
         d="M -528.0898,575.3815 H 68.186199 V -19.8945 H -528.0898 Z"
         id="path4830"
         style="stroke-width:0.999998" />
    </clipPath>
    <clipPath
       clipPathUnits="userSpaceOnUse"
       id="clipPath4834">
      <path
         d="M -536.6982,584.5729 H 59.577804 V -10.7031 H -536.6982 Z"
         id="path4836"
         style="stroke-width:0.999998" />
    </clipPath>
    <clipPath
       clipPathUnits="userSpaceOnUse"
       id="clipPath4840">
      <path
         d="M -567.7754,585.8522 H 28.500601 V -9.4238027 H -567.7754 Z"
         id="path4842"
         style="stroke-width:0.999998" />
    </clipPath>
    <clipPath
       clipPathUnits="userSpaceOnUse"
       id="clipPath4847">
      <path
         d="M -542.9326,584.5729 H 53.343399 V -10.7031 H -542.9326 Z"
         id="path4849"
         style="stroke-width:0.999998" />
    </clipPath>
    <clipPath
       clipPathUnits="userSpaceOnUse"
       id="clipPath4853">
      <path
         d="M -572.8174,586.1354 H 23.458606 V -9.1406027 H -572.8174 Z"
         id="path4855"
         style="stroke-width:0.999998" />
    </clipPath>
    <clipPath
       clipPathUnits="userSpaceOnUse"
       id="clipPath4859">
      <path
         d="M -574.5459,585.8522 H 21.730103 V -9.4238027 H -574.5459 Z"
         id="path4861"
         style="stroke-width:0.999998" />
    </clipPath>
    <clipPath
       clipPathUnits="userSpaceOnUse"
       id="clipPath4865">
      <path
         d="M -576.3691,585.5885 H 19.906905 V -9.6875027 H -576.3691 Z"
         id="path4867"
         style="stroke-width:0.999998" />
    </clipPath>
    <clipPath
       clipPathUnits="userSpaceOnUse"
       id="clipPath4871">
      <path
         d="M -545.417,584.5729 H 50.859001 V -10.7031 H -545.417 Z"
         id="path4873"
         style="stroke-width:0.999998" />
    </clipPath>
    <clipPath
       clipPathUnits="userSpaceOnUse"
       id="clipPath4877">
      <path
         d="M -556.4014,578.0143 H 39.874606 V -17.2617 H -556.4014 Z"
         id="path4879"
         style="stroke-width:0.999998" />
    </clipPath>
    <clipPath
       clipPathUnits="userSpaceOnUse"
       id="clipPath4883">
      <path
         d="M -561.4131,585.8522 H 34.862903 V -9.4238027 H -561.4131 Z"
         id="path4885"
         style="stroke-width:0.999998" />
    </clipPath>
    <clipPath
       clipPathUnits="userSpaceOnUse"
       id="clipPath4889">
      <path
         d="M -557.0645,585.8483 H 39.211501 V -9.4277027 H -557.0645 Z"
         id="path4891"
         style="stroke-width:0.999998" />
    </clipPath>
    <clipPath
       clipPathUnits="userSpaceOnUse"
       id="clipPath4895">
      <path
         d="M -553.8975,585.8483 H 42.378504 V -9.4277027 H -553.8975 Z"
         id="path4897"
         style="stroke-width:0.999998" />
    </clipPath>
    <clipPath
       clipPathUnits="userSpaceOnUse"
       id="clipPath4901">
      <path
         d="M -548.9834,585.8522 H 47.292601 V -9.4238027 H -548.9834 Z"
         id="path4903"
         style="stroke-width:0.999998" />
    </clipPath>
    <clipPath
       clipPathUnits="userSpaceOnUse"
       id="clipPath4907">
      <path
         d="M -568.2266,575.819 H 28.049401 V -19.457003 H -568.2266 Z"
         id="path4909"
         style="stroke-width:0.999998" />
    </clipPath>
    <clipPath
       clipPathUnits="userSpaceOnUse"
       id="clipPath4913">
      <path
         d="M -550.2637,577.3248 H 46.012306 V -17.951198 H -550.2637 Z"
         id="path4915"
         style="stroke-width:0.999998" />
    </clipPath>
    <clipPath
       clipPathUnits="userSpaceOnUse"
       id="clipPath4920">
      <path
         d="M -557.4951,577.8502 H 38.780903 V -17.4258 H -557.4951 Z"
         id="path4922"
         style="stroke-width:0.999998" />
    </clipPath>
    <clipPath
       clipPathUnits="userSpaceOnUse"
       id="clipPath4926">
      <path
         d="M -584.1943,578.9381 H 12.081705 V -16.337903 H -584.1943 Z"
         id="path4928"
         style="stroke-width:0.999998" />
    </clipPath>
    <clipPath
       clipPathUnits="userSpaceOnUse"
       id="clipPath4932">
      <path
         d="M -538.2217,577.9479 H 58.054299 V -17.328098 H -538.2217 Z"
         id="path4934"
         style="stroke-width:0.999998" />
    </clipPath>
    <clipPath
       clipPathUnits="userSpaceOnUse"
       id="clipPath4938">
      <path
         d="m -314.3447,166.6007 h 596.276 v -595.276 h -596.276 z"
         id="path4940"
         style="stroke-width:0.999998" />
    </clipPath>
    <clipPath
       clipPathUnits="userSpaceOnUse"
       id="clipPath4944">
      <path
         d="M -586.5449,579.5026 H 9.7311002 V -15.7734 H -586.5449 Z"
         id="path4946"
         style="stroke-width:0.999998" />
    </clipPath>
  </defs>
  <sodipodi:namedview
     id="namedview4319"
     pagecolor="#ffffff"
     bordercolor="#000000"
     borderopacity="0.25"
     inkscape:showpageshadow="2"
     inkscape:pageopacity="0.0"
     inkscape:pagecheckerboard="0"
     inkscape:deskcolor="#d1d1d1"
     showgrid="false"
     inkscape:zoom="0.29734106"
     inkscape:cx="-215.24105"
     inkscape:cy="396.85068"
     inkscape:window-width="1419"
     inkscape:window-height="456"
     inkscape:window-x="0"
     inkscape:window-y="25"
     inkscape:window-maximized="0"
     inkscape:current-layer="svg4317">
    <inkscape:page
       x="0"
       y="0"
       id="page4323"
       width="795.03467"
       height="793.70135" />
  </sodipodi:namedview>
  <path
     d="M 419.126 222.134 C 433.879 207.382 437.645 185.806 430.434 167.563 C 430.042 184.306 423.477 200.931 410.701 213.71 C 397.923 226.486 381.298 233.051 364.555 233.443 C 382.798 240.653 404.371 236.889 419.126 222.134 M 362.962 177.459 C 356.618 177.447 351.484 172.313 351.473 165.969 C 351.484 159.625 356.618 154.489 362.962 154.478 C 369.307 154.489 374.441 159.625 374.453 165.969 C 374.441 172.313 369.307 177.447 362.962 177.459 M 362.962 142.041 C 349.745 142.046 339.038 152.752 339.036 165.969 C 339.038 179.186 349.745 189.891 362.962 189.897 C 376.178 189.891 386.881 179.186 386.891 165.969 C 386.881 152.752 376.178 142.046 362.962 142.041 M 269.801 179.495 L 229.374 202.598 L 292.902 202.598 Z M 292.904 211.937 L 229.373 211.937 L 269.801 235.038 Z M 263.549 254.495 C 266.754 254.405 269.97 254.345 273.206 254.349 L 273.558 254.349 C 277.676 254.35 281.765 254.426 285.84 254.546 L 287.57 252.817 L 333.113 207.269 L 294.156 168.306 C 316.09 134.884 353.889 112.805 396.85 112.805 C 464.649 112.805 519.602 167.765 519.602 235.555 C 519.602 241.986 519.102 248.295 518.152 254.457 C 518.82 254.453 519.484 254.437 520.154 254.437 L 520.575 254.437 C 525.115 254.431 529.62 254.538 534.1 254.718 C 534.968 248.454 535.426 242.058 535.426 235.555 C 535.426 159.025 473.386 96.981 396.85 96.981 C 343.709 96.981 297.569 126.902 274.32 170.811 L 310.773 207.267 Z M 739.367 356.339 C 673.133 294.131 602.123 263.682 520.21 263.773 C 432.626 263.779 355.078 292.031 299.184 336.742 C 243.326 381.407 208.961 442.867 208.955 508.797 C 208.957 612.609 293.07 696.713 396.886 696.721 C 500.699 696.715 584.816 612.521 584.819 508.713 C 584.814 458.839 565.147 411.523 531.394 372.106 C 525.755 373.564 520.13 375.166 514.539 376.896 C 549.195 414.964 569.024 460.841 569.015 508.713 C 569.012 556.276 549.759 599.268 518.592 630.45 C 487.408 661.62 444.454 680.913 396.886 680.918 C 349.317 680.913 306.361 661.705 275.181 630.538 C 244.01 599.356 224.76 556.364 224.754 508.797 C 224.749 448.528 256.176 391.422 309.058 349.078 C 361.902 306.776 436.031 279.566 520.21 279.574 C 588.598 279.651 647.929 301.322 704.841 347.218 C 674.28 340.918 640.135 336.194 610.602 336.176 C 558.432 336.222 495.691 351.72 445.13 378.478 C 419.863 391.884 397.627 408.128 381.425 427.08 C 365.251 445.984 353.919 470.005 355.165 495.755 C 355.894 510.833 360.855 520.643 368.085 528.148 C 375.269 535.656 385.454 540.471 396.923 540.44 C 408.389 540.471 418.575 535.656 425.761 528.148 C 432.987 520.643 437.95 510.833 438.679 495.755 C 439.875 471.021 429.453 447.891 414.294 429.352 C 410.258 433.003 406.467 436.713 402.951 440.476 C 415.843 456.752 423.35 472.951 422.922 494.432 C 422.733 503.765 419.415 511.953 414.386 517.183 C 409.822 521.864 404.033 524.615 396.923 524.637 C 389.811 524.615 384.021 521.864 379.457 517.183 C 374.431 511.953 371.11 503.765 370.923 494.432 C 370.467 471.571 378.995 454.692 393.441 437.336 C 415.043 411.959 450.847 390.319 490.556 375.367 C 530.243 360.371 573.816 351.959 610.602 351.979 C 648.487 351.951 696.464 360.44 731.965 369.748 L 762.077 377.623 Z M 271.574 348.571 C 241.392 340.496 210.808 336.103 183.168 336.091 C 153.632 336.108 119.487 340.831 88.9255 347.132 C 145.84 301.23 205.165 279.569 273.558 279.489 C 303.277 279.486 331.733 282.889 358.451 289.138 C 366.178 285.527 374.114 282.166 382.249 279.071 C 348.613 269.155 312.056 263.69 273.558 263.686 C 191.643 263.601 120.632 294.046 54.3989 356.255 L 31.703 377.526 L 61.8029 369.664 C 97.3068 360.359 145.279 351.867 183.168 351.891 C 206.624 351.87 232.829 355.303 259.033 361.672 C 263.041 357.194 267.229 352.828 271.574 348.571"
     style="fill:#000000;fill-opacity:1;fill-rule:nonzero;stroke:none"
     id="path4437" />
</svg>
