<?xml version="1.0" encoding="UTF-8" standalone="no"?>
<!-- Created with Inkscape (http://www.inkscape.org/) -->

<svg
   version="1.1"
   id="svg5135"
   width="795.03467"
   height="793.70135"
   viewBox="0 0 795.03467 793.70135"
   sodipodi:docname="Kokumochi Jinuki Musubi Karigane.svg"
   inkscape:version="1.2 (dc2aeda, 2022-05-15)"
   xmlns:inkscape="http://www.inkscape.org/namespaces/inkscape"
   xmlns:sodipodi="http://sodipodi.sourceforge.net/DTD/sodipodi-0.dtd"
   xmlns="http://www.w3.org/2000/svg"
   xmlns:svg="http://www.w3.org/2000/svg">
  <defs
     id="defs5139">
    <clipPath
       clipPathUnits="userSpaceOnUse"
       id="clipPath5628">
      <path
         d="M -531.1924,581.5885 H 65.083599 V -13.6875 H -531.1924 Z"
         id="path5630"
         style="stroke-width:0.999998" />
    </clipPath>
    <clipPath
       clipPathUnits="userSpaceOnUse"
       id="clipPath5634">
      <path
         d="M -540.8213,585.8483 H 55.454701 V -9.4277027 H -540.8213 Z"
         id="path5636"
         style="stroke-width:0.999998" />
    </clipPath>
    <clipPath
       clipPathUnits="userSpaceOnUse"
       id="clipPath5640">
      <path
         d="M -528.0898,575.3815 H 68.186199 V -19.8945 H -528.0898 Z"
         id="path5642"
         style="stroke-width:0.999998" />
    </clipPath>
    <clipPath
       clipPathUnits="userSpaceOnUse"
       id="clipPath5646">
      <path
         d="M -536.6982,584.5729 H 59.577804 V -10.7031 H -536.6982 Z"
         id="path5648"
         style="stroke-width:0.999998" />
    </clipPath>
    <clipPath
       clipPathUnits="userSpaceOnUse"
       id="clipPath5652">
      <path
         d="M -567.7754,585.8522 H 28.500601 V -9.4238027 H -567.7754 Z"
         id="path5654"
         style="stroke-width:0.999998" />
    </clipPath>
    <clipPath
       clipPathUnits="userSpaceOnUse"
       id="clipPath5658">
      <path
         d="M -542.9326,584.5729 H 53.343399 V -10.7031 H -542.9326 Z"
         id="path5660"
         style="stroke-width:0.999998" />
    </clipPath>
    <clipPath
       clipPathUnits="userSpaceOnUse"
       id="clipPath5665">
      <path
         d="M -572.8174,586.1354 H 23.458606 V -9.1406027 H -572.8174 Z"
         id="path5667"
         style="stroke-width:0.999998" />
    </clipPath>
    <clipPath
       clipPathUnits="userSpaceOnUse"
       id="clipPath5671">
      <path
         d="M -574.5459,585.8522 H 21.730103 V -9.4238027 H -574.5459 Z"
         id="path5673"
         style="stroke-width:0.999998" />
    </clipPath>
    <clipPath
       clipPathUnits="userSpaceOnUse"
       id="clipPath5677">
      <path
         d="M -557.0645,585.8483 H 39.211501 V -9.4277027 H -557.0645 Z"
         id="path5679"
         style="stroke-width:0.999998" />
    </clipPath>
    <clipPath
       clipPathUnits="userSpaceOnUse"
       id="clipPath5683">
      <path
         d="M -576.3691,585.5885 H 19.906905 V -9.6875027 H -576.3691 Z"
         id="path5685"
         style="stroke-width:0.999998" />
    </clipPath>
    <clipPath
       clipPathUnits="userSpaceOnUse"
       id="clipPath5689">
      <path
         d="M -561.4131,585.8522 H 34.862903 V -9.4238027 H -561.4131 Z"
         id="path5691"
         style="stroke-width:0.999998" />
    </clipPath>
    <clipPath
       clipPathUnits="userSpaceOnUse"
       id="clipPath5695">
      <path
         d="M -545.417,584.5729 H 50.859001 V -10.7031 H -545.417 Z"
         id="path5697"
         style="stroke-width:0.999998" />
    </clipPath>
    <clipPath
       clipPathUnits="userSpaceOnUse"
       id="clipPath5701">
      <path
         d="M -548.9834,585.8522 H 47.292601 V -9.4238027 H -548.9834 Z"
         id="path5703"
         style="stroke-width:0.999998" />
    </clipPath>
    <clipPath
       clipPathUnits="userSpaceOnUse"
       id="clipPath5707">
      <path
         d="M -553.8975,585.8483 H 42.378504 V -9.4277027 H -553.8975 Z"
         id="path5709"
         style="stroke-width:0.999998" />
    </clipPath>
    <clipPath
       clipPathUnits="userSpaceOnUse"
       id="clipPath5713">
      <path
         d="M -557.4951,577.8502 H 38.780903 V -17.4258 H -557.4951 Z"
         id="path5715"
         style="stroke-width:0.999998" />
    </clipPath>
    <clipPath
       clipPathUnits="userSpaceOnUse"
       id="clipPath5719">
      <path
         d="M -568.2266,575.819 H 28.049401 V -19.457003 H -568.2266 Z"
         id="path5721"
         style="stroke-width:0.999998" />
    </clipPath>
    <clipPath
       clipPathUnits="userSpaceOnUse"
       id="clipPath5725">
      <path
         d="M -550.2637,577.3248 H 46.012306 V -17.951198 H -550.2637 Z"
         id="path5727"
         style="stroke-width:0.999998" />
    </clipPath>
    <clipPath
       clipPathUnits="userSpaceOnUse"
       id="clipPath5731">
      <path
         d="M -584.1943,578.9381 H 12.081705 V -16.337903 H -584.1943 Z"
         id="path5733"
         style="stroke-width:0.999998" />
    </clipPath>
    <clipPath
       clipPathUnits="userSpaceOnUse"
       id="clipPath5737">
      <path
         d="m -259.7461,163.6027 h 596.27601 v -595.276 H -259.7461 Z"
         id="path5739"
         style="stroke-width:0.999998" />
    </clipPath>
    <clipPath
       clipPathUnits="userSpaceOnUse"
       id="clipPath5744">
      <path
         d="M -586.5449,579.5026 H 9.7311002 V -15.7734 H -586.5449 Z"
         id="path5746"
         style="stroke-width:0.999998" />
    </clipPath>
    <clipPath
       clipPathUnits="userSpaceOnUse"
       id="clipPath5750">
      <path
         d="M -556.4014,578.0143 H 39.874606 V -17.2617 H -556.4014 Z"
         id="path5752"
         style="stroke-width:0.999998" />
    </clipPath>
    <clipPath
       clipPathUnits="userSpaceOnUse"
       id="clipPath5756">
      <path
         d="M -564.5732,585.8483 H 31.702801 V -9.4277027 H -564.5732 Z"
         id="path5758"
         style="stroke-width:0.999998" />
    </clipPath>
    <clipPath
       clipPathUnits="userSpaceOnUse"
       id="clipPath5762">
      <path
         d="M -538.2217,577.9479 H 58.054299 V -17.328098 H -538.2217 Z"
         id="path5764"
         style="stroke-width:0.999998" />
    </clipPath>
  </defs>
  <sodipodi:namedview
     id="namedview5137"
     pagecolor="#ffffff"
     bordercolor="#000000"
     borderopacity="0.25"
     inkscape:showpageshadow="2"
     inkscape:pageopacity="0.0"
     inkscape:pagecheckerboard="0"
     inkscape:deskcolor="#d1d1d1"
     showgrid="false"
     inkscape:zoom="0.29734106"
     inkscape:cx="-215.24105"
     inkscape:cy="396.85068"
     inkscape:window-width="1419"
     inkscape:window-height="456"
     inkscape:window-x="0"
     inkscape:window-y="25"
     inkscape:window-maximized="0"
     inkscape:current-layer="svg5135">
    <inkscape:page
       x="0"
       y="0"
       id="page5141"
       width="795.03467"
       height="793.70135" />
  </sodipodi:namedview>
  <path
     d="M 346.328 218.137 C 360.44 226.676 379.064 224.862 391.248 212.674 C 403.436 200.489 405.251 181.862 396.712 167.749 C 397.728 180.934 393.207 194.468 383.124 204.552 C 373.043 214.634 359.512 219.153 346.328 218.137 M 349.955 158.132 C 357.267 158.148 363.189 164.066 363.2 171.382 C 363.189 178.697 357.267 184.616 349.955 184.632 C 342.637 184.616 336.715 178.697 336.703 171.382 C 336.715 164.066 342.637 158.148 349.955 158.132 M 349.955 197.246 C 364.24 197.244 375.811 185.668 375.819 171.382 C 375.811 157.097 364.24 145.52 349.955 145.517 C 335.668 145.52 324.092 157.097 324.087 171.382 C 324.092 185.668 335.668 197.244 349.955 197.246 M 591.009 353.767 C 476.529 353.767 365.515 434.044 372.889 487.206 C 374.708 500.312 383.616 511.167 396.851 511.167 C 410.084 511.167 418.99 500.312 420.81 487.206 C 422.834 472.618 415.93 455.99 402.499 439.536 C 419.444 420.932 445.629 402.303 476.709 388.159 C 492.769 380.831 510.133 374.702 528.181 370.239 C 555.107 405.121 571.635 448.542 571.635 500.326 C 571.635 596.855 493.381 675.112 396.851 675.112 C 300.319 675.112 222.064 596.855 222.064 500.326 C 222.064 345.27 370.119 265.105 502.345 265.105 C 607.938 265.105 700.151 322.33 749.698 407.449 C 705.695 373.782 650.695 353.767 591.009 353.767 M 44.0021 407.449 C 93.5486 322.33 185.762 265.105 291.356 265.105 C 321.696 265.105 352.868 269.337 382.895 277.716 C 355.949 287.59 330.36 300.91 307.549 317.683 C 290.681 330.063 275.358 344.415 262.194 360.653 C 242.884 356.263 222.843 353.767 202.691 353.767 C 143.006 353.767 88.0046 373.782 44.0021 407.449 M 304.405 225.462 L 275.346 254.522 L 227.939 225.462 Z M 275.346 187.857 L 304.403 216.913 L 227.943 216.913 Z M 396.851 108.104 C 469.886 108.104 529.092 167.31 529.092 240.344 C 529.092 246.213 528.706 251.992 527.965 257.658 C 519.52 256.93 510.977 256.556 502.345 256.554 C 467.272 256.572 431.181 262.054 396.848 272.954 C 362.516 262.054 326.425 256.572 291.355 256.556 C 289.343 256.556 287.337 256.58 285.332 256.62 L 320.764 221.186 L 279.299 179.722 C 301.28 137.184 345.667 108.104 396.851 108.104 M 396.851 31.7295 C 195.202 31.7295 31.7315 195.201 31.7315 396.853 C 31.7315 598.503 195.202 761.973 396.851 761.973 C 598.506 761.973 761.976 598.503 761.976 396.853 C 761.976 195.201 598.506 31.7295 396.851 31.7295"
     style="fill:#000000;fill-opacity:1;fill-rule:nonzero;stroke:none"
     id="path5255" />
</svg>
