<?xml version="1.0" encoding="UTF-8" standalone="no"?>
<!-- Created with Inkscape (http://www.inkscape.org/) -->

<svg
   version="1.1"
   id="svg16513"
   width="793.70135"
   height="793.70135"
   viewBox="0 0 793.70135 793.70135"
   sodipodi:docname="Kokumochiji Nuki Karigane.svg"
   inkscape:version="1.2 (dc2aeda, 2022-05-15)"
   xmlns:inkscape="http://www.inkscape.org/namespaces/inkscape"
   xmlns:sodipodi="http://sodipodi.sourceforge.net/DTD/sodipodi-0.dtd"
   xmlns="http://www.w3.org/2000/svg"
   xmlns:svg="http://www.w3.org/2000/svg">
  <defs
     id="defs16517">
    <clipPath
       clipPathUnits="userSpaceOnUse"
       id="clipPath16668">
      <path
         d="m -396.1865,440.1058 h 595.276 v -841.89 h -595.276 z"
         id="path16670"
         style="stroke-width:0.999998" />
    </clipPath>
  </defs>
  <sodipodi:namedview
     id="namedview16515"
     pagecolor="#ffffff"
     bordercolor="#000000"
     borderopacity="0.25"
     inkscape:showpageshadow="2"
     inkscape:pageopacity="0.0"
     inkscape:pagecheckerboard="0"
     inkscape:deskcolor="#d1d1d1"
     showgrid="false"
     inkscape:zoom="0.21024124"
     inkscape:cx="-1234.2964"
     inkscape:cy="561.26001"
     inkscape:window-width="1419"
     inkscape:window-height="456"
     inkscape:window-x="0"
     inkscape:window-y="25"
     inkscape:window-maximized="0"
     inkscape:current-layer="svg16513">
    <inkscape:page
       x="0"
       y="0"
       id="page16519"
       width="793.70135"
       height="793.70135" />
  </sodipodi:namedview>
  <path
     d="m 528.249,422.808 c -98.562,61.344 -132.065,172.309 -132.065,172.309 0,0 -33.503,-110.965 -132.066,-172.309 C 163.135,359.957 56.5275,377.368 56.5275,377.368 101.657,328.86 166.037,298.519 237.516,298.519 c 60.41,0 115.736,21.689 158.668,57.678 42.931,-35.989 98.258,-57.678 158.656,-57.678 71.481,0 135.871,30.341 180.999,78.849 0,0 -106.606,-17.411 -207.59,45.44 M 295.002,283.534 277.888,293.578 249.719,275.399 Z m -10.754,-28.091 13.656,18.577 -47.928,-8.641 z m 112.16,-73.676 c 63.575,0 115.453,49.997 118.489,112.819 -44.444,7.028 -85.093,25.589 -118.725,52.49 -31.204,-24.969 -68.409,-42.72 -109.133,-50.762 l 25.175,-14.747 -23.224,-31.54 c 18.937,-40.34 59.901,-68.26 107.418,-68.26 M 396.184,46.302 c -193.458,0 -350.2925,156.832 -350.2925,350.293 0,193.465 156.8345,350.291 350.2925,350.291 193.458,0 350.292,-156.826 350.292,-350.291 0,-193.461 -156.834,-350.293 -350.292,-350.293 m -14.608,251.741 c 27.031,0 48.944,-21.923 48.955,-48.957 0,-7.244 -1.578,-14.15 -4.426,-20.352 -0.968,-2.124 -3.485,-3.06 -5.612,-2.091 -2.116,0.981 -3.057,3.499 -2.085,5.627 v -0.014 c 2.352,5.128 3.651,10.81 3.651,16.83 -0.038,22.357 -18.14,40.445 -40.483,40.48 -11.529,0 -21.893,-4.795 -29.287,-12.532 -1.624,-1.686 -4.301,-1.742 -5.99,-0.127 -1.684,1.605 -1.754,4.293 -0.134,5.983 8.894,9.329 21.498,15.153 35.411,15.153 m -11.817,-75.176 c 9.278,0 16.793,7.524 16.793,16.803 0,9.278 -7.515,16.802 -16.793,16.802 -9.28,0 -16.807,-7.524 -16.807,-16.802 0,-9.279 7.527,-16.803 16.807,-16.803 m 0,40.851 c 13.276,0 24.041,-10.768 24.041,-24.048 0,-13.28 -10.765,-24.045 -24.041,-24.045 -13.288,0 -24.054,10.765 -24.054,24.045 0,13.28 10.766,24.048 24.054,24.048 m 0,-13.764 c 5.67,0 10.284,-4.606 10.284,-10.284 0,-5.679 -4.614,-10.284 -10.284,-10.284 -5.683,0 -10.284,4.605 -10.284,10.284 0,5.678 4.601,10.284 10.284,10.284"
     style="fill:#231f20;fill-opacity:1;fill-rule:nonzero;stroke:none"
     id="path16533" />
</svg>
