<?xml version="1.0" encoding="UTF-8" standalone="no"?>
<!-- Created with Inkscape (http://www.inkscape.org/) -->

<svg
   version="1.1"
   id="svg13789"
   width="793.70135"
   height="793.70135"
   viewBox="0 0 793.70135 793.70135"
   sodipodi:docname="Masuyama Karigane.svg"
   inkscape:version="1.2 (dc2aeda, 2022-05-15)"
   xmlns:inkscape="http://www.inkscape.org/namespaces/inkscape"
   xmlns:sodipodi="http://sodipodi.sourceforge.net/DTD/sodipodi-0.dtd"
   xmlns="http://www.w3.org/2000/svg"
   xmlns:svg="http://www.w3.org/2000/svg">
  <defs
     id="defs13793">
    <clipPath
       clipPathUnits="userSpaceOnUse"
       id="clipPath14028">
      <path
         d="m -447.1992,558.9955 h 595.27599 v -841.89 H -447.1992 Z"
         id="path14030"
         style="stroke-width:0.999998" />
    </clipPath>
    <clipPath
       clipPathUnits="userSpaceOnUse"
       id="clipPath14034">
      <path
         d="m -178.0088,324.6371 h 595.276 v -841.89 h -595.276 z"
         id="path14036"
         style="stroke-width:0.999998" />
    </clipPath>
    <clipPath
       clipPathUnits="userSpaceOnUse"
       id="clipPath14040">
      <path
         d="m -277.4907,492.0443 h 595.276 v -841.89 h -595.276 z"
         id="path14042"
         style="stroke-width:0.999998" />
    </clipPath>
    <clipPath
       clipPathUnits="userSpaceOnUse"
       id="clipPath14046">
      <path
         d="m -293.9517,418.2406 h 595.276 v -841.89 h -595.276 z"
         id="path14048"
         style="stroke-width:0.999998" />
    </clipPath>
    <clipPath
       clipPathUnits="userSpaceOnUse"
       id="clipPath14052">
      <path
         d="m -124.2466,351.2855 h 595.276 v -841.89 h -595.276 z"
         id="path14054"
         style="stroke-width:0.999998" />
    </clipPath>
    <clipPath
       clipPathUnits="userSpaceOnUse"
       id="clipPath14058">
      <path
         d="m -143.3486,266.6498 h 595.276 v -841.89 h -595.276 z"
         id="path14060"
         style="stroke-width:0.999998" />
    </clipPath>
    <clipPath
       clipPathUnits="userSpaceOnUse"
       id="clipPath14064">
      <path
         d="m -308.9434,454.7865 h 595.276 v -841.89 h -595.276 z"
         id="path14066"
         style="stroke-width:0.999998" />
    </clipPath>
  </defs>
  <sodipodi:namedview
     id="namedview13791"
     pagecolor="#ffffff"
     bordercolor="#000000"
     borderopacity="0.25"
     inkscape:showpageshadow="2"
     inkscape:pageopacity="0.0"
     inkscape:pagecheckerboard="0"
     inkscape:deskcolor="#d1d1d1"
     showgrid="false"
     inkscape:zoom="0.21024124"
     inkscape:cx="-1234.2964"
     inkscape:cy="561.26001"
     inkscape:window-width="1419"
     inkscape:window-height="456"
     inkscape:window-x="0"
     inkscape:window-y="25"
     inkscape:window-maximized="0"
     inkscape:current-layer="svg13789">
    <inkscape:page
       x="0"
       y="0"
       id="page13795"
       width="793.70135"
       height="793.70135" />
  </sodipodi:namedview>
  <path
     d="m 191.131,189.533 c -52.531,52.584 -84.933,124.876 -84.944,205.063 0.011,80.182 32.413,152.472 84.944,205.057 52.575,52.526 124.872,84.916 205.057,84.933 80.176,-0.017 152.471,-32.407 205.058,-84.933 52.531,-52.585 84.921,-124.875 84.932,-205.057 -0.011,-80.187 -32.401,-152.479 -84.932,-205.063 -52.587,-52.527 -124.882,-84.921 -205.058,-84.932 -80.185,0.011 -152.482,32.405 -205.057,84.932 M 54.8113,394.596 C 54.8433,206.045 207.647,53.245 396.188,53.225 584.73,53.245 737.535,206.045 737.555,394.596 737.535,583.125 584.73,735.93 396.188,735.962 207.647,735.93 54.8433,583.125 54.8113,394.596"
     style="fill:#231f20;fill-opacity:1;fill-rule:nonzero;stroke:none"
     id="path13809" />
  <path
     d="m 391.936,391.654 c -34.68,-86.24 -17.992,-190.084 49.088,-263.113 0.743,-0.812 1.487,-1.612 2.235,-2.402 -45.658,0.142 -91.123,18.602 -124.444,54.882 -27.036,29.431 -41.669,65.829 -44.268,102.813 -36.624,5.722 -71.661,23.4 -98.69,52.831 -33.322,36.278 -47.866,83.146 -44.135,128.651 0.721,-0.814 1.464,-1.628 2.203,-2.432 67.079,-73.03 169.134,-98.463 258.011,-71.23"
     style="fill:#231f20;fill-opacity:1;fill-rule:nonzero;stroke:none"
     id="path13813" />
  <path
     d="m 165.662,302.381 c -0.293,-2.608 -0.604,-6.589 -0.309,-10.921 0.506,-7.567 2.757,-14.626 2.757,-14.626 0,0 6.516,-1.245 14.08,-0.742 7.563,0.502 14.617,2.761 14.617,2.761 0,0 1.242,6.509 0.739,14.075 -0.503,7.564 -2.759,14.625 -2.759,14.625 0,0 -6.5,1.24 -14.068,0.737 -4.34,-0.288 -8.525,-1.184 -11.289,-1.872 l 24.224,-19.692 -3.441,-4.253 z"
     style="fill:#231f20;fill-opacity:1;fill-rule:nonzero;stroke:none"
     id="path13817" />
  <path
     d="m 237.345,266.849 c -1.037,1.125 -2.757,1.197 -3.869,0.175 -1.118,-1.028 -1.194,-2.748 -0.16,-3.874 9.973,-10.914 9.256,-27.83 -1.62,-37.853 -7.158,-6.583 -16.902,-8.527 -25.61,-5.997 l 0.022,-0.016 c -1.464,0.429 -2.992,-0.407 -3.399,-1.855 -0.428,-1.453 0.407,-2.98 1.849,-3.393 10.471,-3.046 22.235,-0.686 30.847,7.224 13.128,12.057 13.999,32.464 1.94,45.589 m -20.424,-5.58 c -6.943,7.557 -18.687,8.051 -26.249,1.113 -7.563,-6.957 -8.066,-18.698 -1.123,-26.256 6.949,-7.566 18.697,-8.069 26.267,-1.117 7.557,6.943 8.054,18.695 1.105,26.26 m -20.808,-49.483 c -15.56,16.936 -23.865,37.887 -25.089,59.176 2.832,-0.305 6.948,-0.628 11.513,-0.329 8.401,0.577 15.703,2.945 15.939,3.004 l 3.089,0.992 0.609,3.201 c 0.054,0.263 1.374,7.108 0.834,15.455 -0.272,3.972 -0.946,7.724 -1.582,10.576 20.098,-13.544 42.44,-22.575 65.499,-27.028 3.351,-31.543 15.136,-62.493 35.524,-89.109 -35.925,-14.463 -78.595,-6.144 -106.336,24.062 m 11.481,40.918 c -2.202,2.401 -5.949,2.561 -8.36,0.357 -2.416,-2.225 -2.57,-5.972 -0.362,-8.372 2.217,-2.42 5.964,-2.577 8.38,-0.359 2.405,2.211 2.565,5.958 0.342,8.374 M 193.74,239.961 c -4.822,5.251 -4.474,13.411 0.77,18.232 5.254,4.824 13.416,4.479 18.236,-0.772 4.822,-5.252 4.475,-13.412 -0.78,-18.235 -5.244,-4.818 -13.405,-4.476 -18.226,0.775"
     style="fill:#231f20;fill-opacity:1;fill-rule:nonzero;stroke:none"
     id="path13821" />
  <path
     d="m 596.266,579.327 c -34.68,-86.237 -17.992,-190.078 49.088,-263.11 0.737,-0.809 1.488,-1.609 2.229,-2.405 -45.65,0.148 -91.117,18.608 -124.442,54.888 -27.031,29.43 -41.664,65.829 -44.263,102.813 -36.63,5.721 -71.666,23.4 -98.69,52.83 -33.327,36.279 -47.871,83.147 -44.14,128.649 0.727,-0.812 1.471,-1.625 2.208,-2.432 67.076,-73.029 169.133,-98.461 258.01,-71.233"
     style="fill:#231f20;fill-opacity:1;fill-rule:nonzero;stroke:none"
     id="path13825" />
  <path
     d="m 369.988,490.059 c -0.293,-2.608 -0.597,-6.589 -0.305,-10.924 0.502,-7.564 2.754,-14.625 2.754,-14.625 0,0 6.522,-1.246 14.079,-0.74 7.568,0.502 14.623,2.761 14.623,2.761 0,0 1.241,6.509 0.738,14.072 -0.501,7.567 -2.757,14.628 -2.757,14.628 0,0 -6.5,1.24 -14.069,0.737 -4.346,-0.294 -8.526,-1.186 -11.295,-1.87 l 24.229,-19.696 -3.441,-4.251 z"
     style="fill:#231f20;fill-opacity:1;fill-rule:nonzero;stroke:none"
     id="path13829" />
  <path
     d="m 411.925,440.382 c -2.2,2.4 -5.953,2.56 -8.36,0.359 -2.413,-2.23 -2.575,-5.974 -0.361,-8.376 2.21,-2.416 5.964,-2.576 8.38,-0.355 2.406,2.209 2.565,5.955 0.341,8.372 M 398.07,427.639 c -4.825,5.252 -4.478,13.411 0.771,18.23 5.253,4.824 13.417,4.482 18.237,-0.77 4.82,-5.25 4.475,-13.412 -0.781,-18.234 -5.247,-4.819 -13.403,-4.476 -18.227,0.774 m 43.607,26.886 c -1.039,1.125 -2.757,1.201 -3.869,0.177 -1.123,-1.027 -1.192,-2.749 -0.162,-3.876 9.974,-10.915 9.258,-27.832 -1.625,-37.851 -7.151,-6.585 -16.901,-8.528 -25.601,-5.997 l 0.016,-0.015 c -1.462,0.427 -2.99,-0.406 -3.396,-1.858 -0.427,-1.455 0.406,-2.979 1.852,-3.392 10.462,-3.043 22.233,-0.684 30.838,7.224 13.127,12.053 14,32.464 1.947,45.588 m -20.429,-5.583 c -6.938,7.559 -18.683,8.056 -26.244,1.12 -7.57,-6.963 -8.072,-18.7 -1.123,-26.259 6.948,-7.564 18.697,-8.069 26.265,-1.116 7.558,6.944 8.05,18.69 1.102,26.255 m -20.807,-49.477 c -15.556,16.934 -23.861,37.888 -25.085,59.176 2.833,-0.307 6.948,-0.627 11.513,-0.332 8.401,0.578 15.704,2.945 15.939,3.004 l 3.089,0.992 0.609,3.202 c 0.05,0.262 1.375,7.112 0.834,15.455 -0.272,3.975 -0.946,7.724 -1.582,10.577 20.091,-13.549 42.44,-22.573 65.498,-27.032 3.346,-31.54 15.133,-62.492 35.523,-89.104 -35.93,-14.467 -78.594,-6.147 -106.338,24.062"
     style="fill:#231f20;fill-opacity:1;fill-rule:nonzero;stroke:none"
     id="path13833" />
</svg>
