<?xml version="1.0" encoding="UTF-8" standalone="no"?>
<!-- Created with Inkscape (http://www.inkscape.org/) -->

<svg
   version="1.1"
   id="svg14183"
   width="793.70135"
   height="793.70135"
   viewBox="0 0 793.70135 793.70135"
   sodipodi:docname="Mitsukasane Karigane.svg"
   inkscape:version="1.2 (dc2aeda, 2022-05-15)"
   xmlns:inkscape="http://www.inkscape.org/namespaces/inkscape"
   xmlns:sodipodi="http://sodipodi.sourceforge.net/DTD/sodipodi-0.dtd"
   xmlns="http://www.w3.org/2000/svg"
   xmlns:svg="http://www.w3.org/2000/svg">
  <defs
     id="defs14187">
    <clipPath
       clipPathUnits="userSpaceOnUse"
       id="clipPath14492">
      <path
         d="m -266.2065,201.3133 h 595.276 v -841.89 h -595.276 z"
         id="path14494"
         style="stroke-width:0.999998" />
    </clipPath>
    <clipPath
       clipPathUnits="userSpaceOnUse"
       id="clipPath14498">
      <path
         d="m -254.1152,534.3802 h 595.276 v -841.89 h -595.276 z"
         id="path14500"
         style="stroke-width:0.999998" />
    </clipPath>
    <clipPath
       clipPathUnits="userSpaceOnUse"
       id="clipPath14504">
      <path
         d="m -264.9155,206.1117 h 595.276 v -841.89 h -595.276 z"
         id="path14506"
         style="stroke-width:0.999998" />
    </clipPath>
    <clipPath
       clipPathUnits="userSpaceOnUse"
       id="clipPath14510">
      <path
         d="m -255.8442,527.9779 h 595.276 v -841.89 h -595.276 z"
         id="path14512"
         style="stroke-width:0.999998" />
    </clipPath>
    <clipPath
       clipPathUnits="userSpaceOnUse"
       id="clipPath14516">
      <path
         d="m -286.9155,337.6322 h 595.276 v -841.89 h -595.276 z"
         id="path14518"
         style="stroke-width:0.999998" />
    </clipPath>
    <clipPath
       clipPathUnits="userSpaceOnUse"
       id="clipPath14522">
      <path
         d="m -260.4663,358.5814 h 595.276 v -841.89 h -595.276 z"
         id="path14524"
         style="stroke-width:0.999998" />
    </clipPath>
    <clipPath
       clipPathUnits="userSpaceOnUse"
       id="clipPath14528">
      <path
         d="m -297.1421,308.5677 h 595.27599 v -841.89 H -297.1421 Z"
         id="path14530"
         style="stroke-width:0.999998" />
    </clipPath>
    <clipPath
       clipPathUnits="userSpaceOnUse"
       id="clipPath14534">
      <path
         d="m -288.1548,187.6991 h 595.276 v -841.89 h -595.276 z"
         id="path14536"
         style="stroke-width:0.999998" />
    </clipPath>
    <clipPath
       clipPathUnits="userSpaceOnUse"
       id="clipPath14540">
      <path
         d="m -261.9409,353.1224 h 595.276 v -841.89 h -595.276 z"
         id="path14542"
         style="stroke-width:0.999998" />
    </clipPath>
    <clipPath
       clipPathUnits="userSpaceOnUse"
       id="clipPath14546">
      <path
         d="m -290.9731,543.1673 h 595.276 v -841.89 h -595.276 z"
         id="path14548"
         style="stroke-width:0.999998" />
    </clipPath>
    <clipPath
       clipPathUnits="userSpaceOnUse"
       id="clipPath14552">
      <path
         d="m -297.1421,671.1673 h 595.27599 v -841.89 H -297.1421 Z"
         id="path14554"
         style="stroke-width:0.999998" />
    </clipPath>
    <clipPath
       clipPathUnits="userSpaceOnUse"
       id="clipPath14558">
      <path
         d="m -297.1421,475.1732 h 595.27599 v -841.89 H -297.1421 Z"
         id="path14560"
         style="stroke-width:0.999998" />
    </clipPath>
  </defs>
  <sodipodi:namedview
     id="namedview14185"
     pagecolor="#ffffff"
     bordercolor="#000000"
     borderopacity="0.25"
     inkscape:showpageshadow="2"
     inkscape:pageopacity="0.0"
     inkscape:pagecheckerboard="0"
     inkscape:deskcolor="#d1d1d1"
     showgrid="false"
     inkscape:zoom="0.21024124"
     inkscape:cx="-958.42281"
     inkscape:cy="466.13119"
     inkscape:window-width="1419"
     inkscape:window-height="456"
     inkscape:window-x="0"
     inkscape:window-y="25"
     inkscape:window-maximized="0"
     inkscape:current-layer="svg14183">
    <inkscape:page
       x="0"
       y="0"
       id="page14189"
       width="793.70135"
       height="793.70135" />
  </sodipodi:namedview>
  <path
     d="m 396.189,730.89 c 0,0 18.68,-61.921 73.693,-96.145 56.347,-35.076 115.836,-25.357 115.836,-25.357 -25.18,-27.074 -61.115,-44.003 -101.005,-44.003 -33.7,0 -64.568,12.107 -88.524,32.183 -23.956,-20.076 -54.835,-32.183 -88.546,-32.183 -39.88,0 -75.815,16.929 -100.995,44.003 0,0 59.489,-9.719 115.837,25.357 55.012,34.224 73.704,96.145 73.704,96.145"
     style="fill:#231f20;fill-opacity:1;fill-rule:nonzero;stroke:none"
     id="path14203" />
  <path
     d="m 387.964,560.223 c -9.151,0 -17.447,-3.828 -23.295,-9.969 -1.068,-1.107 -1.02,-2.878 0.087,-3.935 1.1,-1.063 2.88,-1.025 3.944,0.081 4.864,5.094 11.675,8.247 19.264,8.247 14.697,-0.02 26.611,-11.919 26.629,-26.629 0,-3.962 -0.856,-7.696 -2.401,-11.074 v 0.011 c -0.645,-1.401 -0.015,-3.052 1.376,-3.701 1.397,-0.64 3.044,-0.026 3.687,1.37 1.88,4.088 2.917,8.626 2.917,13.394 -0.016,17.784 -14.431,32.205 -32.208,32.205 m -7.772,-55.797 c 9.6,0 17.393,7.786 17.393,17.39 0,9.618 -7.793,17.404 -17.393,17.404 -9.627,0 -17.409,-7.786 -17.409,-17.404 0,-9.604 7.782,-17.39 17.409,-17.39 m 17.521,-20.697 c -26.64,0 -50.137,13.341 -64.21,33.705 l 22.101,29.841 -20.525,11.904 c 22.632,4.295 43.445,13.747 61.1,27.132 22.326,-16.927 49.714,-27.612 79.433,-29.429 -2.524,-40.831 -36.427,-73.153 -77.899,-73.153 m -17.521,32.007 c 3.347,0 6.088,2.724 6.088,6.08 0,3.368 -2.741,6.095 -6.088,6.095 -3.367,0 -6.093,-2.727 -6.093,-6.095 0,-3.356 2.726,-6.08 6.093,-6.08 m 0,17.14 c 6.104,0 11.043,-4.95 11.043,-11.06 0,-6.096 -4.939,-11.046 -11.043,-11.046 -6.115,0 -11.059,4.95 -11.059,11.046 0,6.11 4.944,11.06 11.059,11.06"
     style="fill:#231f20;fill-opacity:1;fill-rule:nonzero;stroke:none"
     id="path14207" />
  <path
     d="m 341.126,539.971 -11.777,-15.817 -29.45,8.562 z"
     style="fill:#231f20;fill-opacity:1;fill-rule:nonzero;stroke:none"
     id="path14211" />
  <path
     d="m 338.82,548.507 -39.019,-6.864 24.038,15.619 z"
     style="fill:#231f20;fill-opacity:1;fill-rule:nonzero;stroke:none"
     id="path14215" />
  <path
     d="m 396.189,469.564 c 0,0 15.923,-52.776 62.811,-81.95 48.03,-29.895 98.739,-21.61 98.739,-21.61 -21.466,-23.08 -52.094,-37.506 -86.094,-37.506 -28.724,0 -55.039,10.316 -75.456,27.43 -20.423,-17.114 -46.743,-27.43 -75.477,-27.43 -33.989,0 -64.617,14.426 -86.083,37.506 0,0 50.71,-8.285 98.739,21.61 46.888,29.174 62.821,81.95 62.821,81.95"
     style="fill:#231f20;fill-opacity:1;fill-rule:nonzero;stroke:none"
     id="path14219" />
  <path
     d="m 382.554,286.176 c 2.855,0 5.185,2.32 5.185,5.185 0,2.87 -2.33,5.195 -5.185,5.195 -2.869,0 -5.195,-2.325 -5.195,-5.195 0,-2.865 2.326,-5.185 5.195,-5.185 m 0,14.608 c 5.207,0 9.413,-4.217 9.413,-9.423 0,-5.201 -4.206,-9.42 -9.413,-9.42 -5.211,0 -9.428,4.219 -9.428,9.42 0,5.206 4.217,9.423 9.428,9.423 m 6.617,23.309 c -7.793,0 -14.865,-3.261 -19.852,-8.493 -0.906,-0.947 -0.865,-2.452 0.076,-3.356 0.94,-0.904 2.459,-0.872 3.367,0.071 4.143,4.342 9.947,7.028 16.409,7.028 12.535,-0.023 22.691,-10.162 22.707,-22.695 0,-3.38 -0.727,-6.565 -2.047,-9.441 v 0.005 c -0.553,-1.191 -0.016,-2.603 1.168,-3.148 1.199,-0.549 2.6,-0.027 3.144,1.165 1.604,3.48 2.492,7.356 2.492,11.419 -0.016,15.159 -12.304,27.445 -27.464,27.445 m -6.617,-47.56 c 8.179,0 14.828,6.639 14.828,14.828 0,8.192 -6.649,14.832 -14.828,14.832 -8.204,0 -14.837,-6.64 -14.837,-14.832 0,-8.189 6.633,-14.828 14.837,-14.828 m 14.935,-17.638 c -22.706,0 -42.735,11.368 -54.734,28.729 l 18.836,25.437 -17.489,10.144 c 19.291,3.658 37.031,11.723 52.077,23.13 19.035,-14.432 42.371,-23.534 67.707,-25.084 -2.15,-34.808 -31.051,-62.356 -66.397,-62.356"
     style="fill:#231f20;fill-opacity:1;fill-rule:nonzero;stroke:none"
     id="path14223" />
  <path
     d="m 349.255,306.83 -10.039,-13.481 -25.1,7.301 z"
     style="fill:#231f20;fill-opacity:1;fill-rule:nonzero;stroke:none"
     id="path14227" />
  <path
     d="m 347.288,314.109 -33.259,-5.852 20.494,13.315 z"
     style="fill:#231f20;fill-opacity:1;fill-rule:nonzero;stroke:none"
     id="path14231" />
  <path
     d="m 396.189,247.424 c 0,0 13.988,-46.377 55.199,-72.018 42.205,-26.271 86.759,-18.986 86.759,-18.986 -18.861,-20.278 -45.773,-32.962 -75.653,-32.962 -25.24,0 -48.361,9.065 -66.305,24.105 -17.943,-15.04 -41.077,-24.105 -66.328,-24.105 -29.866,0 -56.78,12.684 -75.642,32.962 0,0 44.557,-7.285 86.762,18.986 41.209,25.641 55.208,72.018 55.208,72.018"
     style="fill:#231f20;fill-opacity:1;fill-rule:nonzero;stroke:none"
     id="path14235" />
  <path
     d="m 384.206,86.265 c 2.507,0 4.559,2.043 4.559,4.56 0,2.523 -2.052,4.564 -4.559,4.564 -2.519,0 -4.56,-2.041 -4.56,-4.564 0,-2.517 2.041,-4.56 4.56,-4.56 m 0,12.839 c 4.571,0 8.268,-3.704 8.268,-8.279 0,-4.571 -3.697,-8.275 -8.268,-8.275 -4.581,0 -8.285,3.704 -8.285,8.275 0,4.575 3.704,8.279 8.285,8.279 m 5.82,20.488 c -6.851,0 -13.063,-2.871 -17.447,-7.467 -0.8,-0.833 -0.769,-2.155 0.066,-2.945 0.828,-0.798 2.158,-0.771 2.956,0.058 3.638,3.816 8.738,6.179 14.425,6.179 11.011,-0.021 19.937,-8.931 19.948,-19.948 0,-2.967 -0.641,-5.767 -1.795,-8.295 v 0.006 c -0.486,-1.048 -0.018,-2.288 1.027,-2.77 1.047,-0.48 2.28,-0.021 2.763,1.027 1.405,3.057 2.184,6.463 2.184,10.032 -0.01,13.32 -10.812,24.123 -24.127,24.123 m -5.82,-41.794 c 7.189,0 13.031,5.832 13.031,13.027 0,7.199 -5.842,13.036 -13.031,13.036 -7.211,0 -13.036,-5.837 -13.036,-13.036 0,-7.195 5.825,-13.027 13.036,-13.027 m 13.128,-15.5 c -19.953,0 -37.555,9.99 -48.1,25.244 l 16.553,22.354 -15.368,8.916 c 16.95,3.212 32.54,10.294 45.759,20.321 16.725,-12.679 37.241,-20.68 59.496,-22.043 -1.886,-30.589 -27.281,-54.792 -58.34,-54.792"
     style="fill:#231f20;fill-opacity:1;fill-rule:nonzero;stroke:none"
     id="path14239" />
  <path
     d="m 354.942,104.418 -8.819,-11.845 -22.056,6.414 z"
     style="fill:#231f20;fill-opacity:1;fill-rule:nonzero;stroke:none"
     id="path14243" />
  <path
     d="m 353.221,110.816 -29.227,-5.141 18.003,11.694 z"
     style="fill:#231f20;fill-opacity:1;fill-rule:nonzero;stroke:none"
     id="path14247" />
</svg>
