<?xml version="1.0" encoding="UTF-8" standalone="no"?>
<!-- Created with Inkscape (http://www.inkscape.org/) -->

<svg
   version="1.1"
   id="svg14727"
   width="793.70135"
   height="793.70135"
   viewBox="0 0 793.70135 793.70135"
   sodipodi:docname="Mitsumori Karigane.svg"
   inkscape:version="1.2 (dc2aeda, 2022-05-15)"
   xmlns:inkscape="http://www.inkscape.org/namespaces/inkscape"
   xmlns:sodipodi="http://sodipodi.sourceforge.net/DTD/sodipodi-0.dtd"
   xmlns="http://www.w3.org/2000/svg"
   xmlns:svg="http://www.w3.org/2000/svg">
  <defs
     id="defs14731">
    <clipPath
       clipPathUnits="userSpaceOnUse"
       id="clipPath15036">
      <path
         d="m -397.7578,438.3295 h 595.276 v -841.89 h -595.276 z"
         id="path15038"
         style="stroke-width:0.999998" />
    </clipPath>
    <clipPath
       clipPathUnits="userSpaceOnUse"
       id="clipPath15042">
      <path
         d="M -265.416,330.7455 H 329.86 v -841.89 h -595.276 z"
         id="path15044"
         style="stroke-width:0.999998" />
    </clipPath>
    <clipPath
       clipPathUnits="userSpaceOnUse"
       id="clipPath15048">
      <path
         d="m -263.8037,336.7162 h 595.276 v -841.89 h -595.276 z"
         id="path15050"
         style="stroke-width:0.999998" />
    </clipPath>
    <clipPath
       clipPathUnits="userSpaceOnUse"
       id="clipPath15054">
      <path
         d="m -303.9316,464.2884 h 595.276 v -841.89 h -595.276 z"
         id="path15056"
         style="stroke-width:0.999998" />
    </clipPath>
    <clipPath
       clipPathUnits="userSpaceOnUse"
       id="clipPath15060">
      <path
         d="m -298.1758,344.9125 h 595.276 v -841.89 h -595.276 z"
         id="path15062"
         style="stroke-width:0.999998" />
    </clipPath>
    <clipPath
       clipPathUnits="userSpaceOnUse"
       id="clipPath15066">
      <path
         d="m -173.2539,450.1214 h 595.276 v -841.89 h -595.276 z"
         id="path15068"
         style="stroke-width:0.999998" />
    </clipPath>
    <clipPath
       clipPathUnits="userSpaceOnUse"
       id="clipPath15072">
      <path
         d="m -178.04,549.4818 h 595.276 v -841.89 H -178.04 Z"
         id="path15074"
         style="stroke-width:0.999998" />
    </clipPath>
    <clipPath
       clipPathUnits="userSpaceOnUse"
       id="clipPath15078">
      <path
         d="m -144.647,443.3002 h 595.276 v -841.89 h -595.276 z"
         id="path15080"
         style="stroke-width:0.999998" />
    </clipPath>
    <clipPath
       clipPathUnits="userSpaceOnUse"
       id="clipPath15084">
      <path
         d="m -396.418,443.3002 h 595.276 v -841.89 h -595.276 z"
         id="path15086"
         style="stroke-width:0.999998" />
    </clipPath>
    <clipPath
       clipPathUnits="userSpaceOnUse"
       id="clipPath15090">
      <path
         d="m -429.8164,549.4818 h 595.276 v -841.89 h -595.276 z"
         id="path15092"
         style="stroke-width:0.999998" />
    </clipPath>
    <clipPath
       clipPathUnits="userSpaceOnUse"
       id="clipPath15096">
      <path
         d="m -420.5,424.222 h 595.276 v -841.89 H -420.5 Z"
         id="path15098"
         style="stroke-width:0.999998" />
    </clipPath>
    <clipPath
       clipPathUnits="userSpaceOnUse"
       id="clipPath15102">
      <path
         d="m -145.9858,438.3295 h 595.276 v -841.89 h -595.276 z"
         id="path15104"
         style="stroke-width:0.999998" />
    </clipPath>
  </defs>
  <sodipodi:namedview
     id="namedview14729"
     pagecolor="#ffffff"
     bordercolor="#000000"
     borderopacity="0.25"
     inkscape:showpageshadow="2"
     inkscape:pageopacity="0.0"
     inkscape:pagecheckerboard="0"
     inkscape:deskcolor="#d1d1d1"
     showgrid="false"
     inkscape:zoom="0.21024124"
     inkscape:cx="-1234.2964"
     inkscape:cy="561.26001"
     inkscape:window-width="1419"
     inkscape:window-height="456"
     inkscape:window-x="0"
     inkscape:window-y="25"
     inkscape:window-maximized="0"
     inkscape:current-layer="svg14727">
    <inkscape:page
       x="0"
       y="0"
       id="page14733"
       width="793.70135"
       height="793.70135" />
  </sodipodi:namedview>
  <path
     d="m 405.242,449.051 c 0,0 17.425,-57.747 68.728,-89.672 52.55,-32.708 108.032,-23.645 108.032,-23.645 -23.487,-25.245 -57,-41.035 -94.2,-41.035 -31.428,0 -60.217,11.288 -82.56,30.015 -22.341,-18.727 -51.14,-30.015 -82.581,-30.015 -37.189,0 -70.704,15.79 -94.189,41.035 0,0 55.481,-9.063 108.033,23.645 51.302,31.925 68.737,89.672 68.737,89.672"
     style="fill:#231f20;fill-opacity:1;fill-rule:nonzero;stroke:none"
     id="path14747" />
  <path
     d="m 397.568,289.883 c -8.531,0 -16.265,-3.571 -21.723,-9.299 -0.994,-1.03 -0.952,-2.681 0.08,-3.669 1.032,-0.988 2.688,-0.952 3.683,0.079 4.533,4.749 10.888,7.689 17.96,7.689 13.709,-0.021 24.821,-11.117 24.839,-24.833 0,-3.694 -0.798,-7.182 -2.24,-10.33 v 0.01 c -0.599,-1.303 -0.016,-2.848 1.282,-3.45 1.304,-0.596 2.844,-0.024 3.442,1.278 1.749,3.812 2.721,8.045 2.721,12.492 -0.016,16.585 -13.464,30.033 -30.044,30.033 m -7.249,-52.039 c 8.953,0 16.228,7.264 16.228,16.226 0,8.962 -7.275,16.229 -16.228,16.229 -8.974,0 -16.232,-7.267 -16.232,-16.229 0,-8.962 7.258,-16.226 16.232,-16.226 m 16.345,-19.298 c -24.844,0 -46.757,12.44 -59.885,31.433 l 20.61,27.832 -19.134,11.101 c 21.101,4.002 40.514,12.822 56.977,25.307 20.824,-15.792 46.364,-25.755 74.084,-27.452 -2.354,-38.08 -33.975,-68.221 -72.652,-68.221 m -16.345,29.846 c 3.128,0 5.682,2.542 5.682,5.678 0,3.136 -2.554,5.68 -5.682,5.68 -3.136,0 -5.675,-2.544 -5.675,-5.68 0,-3.136 2.539,-5.678 5.675,-5.678 m 0,15.987 c 5.698,0 10.306,-4.616 10.306,-10.309 0,-5.694 -4.608,-10.307 -10.306,-10.307 -5.698,0 -10.31,4.613 -10.31,10.307 0,5.693 4.612,10.309 10.31,10.309"
     style="fill:#231f20;fill-opacity:1;fill-rule:nonzero;stroke:none"
     id="path14751" />
  <path
     d="M 353.888,270.994 342.904,256.243 315.44,264.23 Z"
     style="fill:#231f20;fill-opacity:1;fill-rule:nonzero;stroke:none"
     id="path14755" />
  <path
     d="m 351.738,278.955 -36.388,-6.397 22.416,14.565 z"
     style="fill:#231f20;fill-opacity:1;fill-rule:nonzero;stroke:none"
     id="path14759" />
  <path
     d="m 237.387,562.642 c 0,0 14.507,-48.064 57.213,-74.637 43.739,-27.224 89.915,-19.679 89.915,-19.679 -19.547,-21.014 -47.443,-34.156 -78.402,-34.156 -26.158,0 -50.126,9.396 -68.726,24.984 -18.589,-15.588 -42.557,-24.984 -68.726,-24.984 -30.959,0 -58.85,13.142 -78.4016,34.156 0,0 46.1816,-7.545 89.9246,19.679 42.696,26.573 57.203,74.637 57.203,74.637"
     style="fill:#231f20;fill-opacity:1;fill-rule:nonzero;stroke:none"
     id="path14763" />
  <path
     d="m 231.005,430.162 c -7.104,0 -13.539,-2.972 -18.083,-7.737 -0.829,-0.86 -0.79,-2.235 0.07,-3.055 0.854,-0.823 2.234,-0.793 3.057,0.064 3.773,3.953 9.065,6.399 14.956,6.399 11.407,-0.018 20.652,-9.254 20.675,-20.667 0,-3.077 -0.663,-5.979 -1.871,-8.597 v 0.008 c -0.493,-1.086 -0.011,-2.372 1.068,-2.874 1.091,-0.494 2.375,-0.018 2.865,1.063 1.455,3.173 2.267,6.699 2.267,10.4 -0.011,13.803 -11.203,24.996 -25.004,24.996 m -6.035,-43.311 c 7.451,0 13.507,6.043 13.507,13.502 0,7.461 -6.056,13.509 -13.507,13.509 -7.461,0 -13.513,-6.048 -13.513,-13.509 0,-7.459 6.052,-13.502 13.513,-13.502 m 13.603,-16.065 c -20.675,0 -38.912,10.353 -49.837,26.164 l 17.152,23.165 -15.934,9.24 c 17.57,3.331 33.728,10.671 47.432,21.062 17.328,-13.143 38.582,-21.436 61.655,-22.847 -1.96,-31.697 -28.28,-56.784 -60.468,-56.784 M 224.97,395.63 c 2.603,0 4.73,2.116 4.73,4.723 0,2.614 -2.127,4.729 -4.73,4.729 -2.613,0 -4.73,-2.115 -4.73,-4.729 0,-2.607 2.117,-4.723 4.73,-4.723 m 0,13.304 c 4.74,0 8.579,-3.841 8.579,-8.581 0,-4.739 -3.839,-8.576 -8.579,-8.576 -4.741,0 -8.578,3.837 -8.578,8.576 0,4.74 3.837,8.581 8.578,8.581"
     style="fill:#231f20;fill-opacity:1;fill-rule:nonzero;stroke:none"
     id="path14767" />
  <path
     d="m 194.648,414.439 -9.14,-12.275 -22.86,6.646 z"
     style="fill:#231f20;fill-opacity:1;fill-rule:nonzero;stroke:none"
     id="path14771" />
  <path
     d="m 192.863,421.067 -30.285,-5.325 18.649,12.122 z"
     style="fill:#231f20;fill-opacity:1;fill-rule:nonzero;stroke:none"
     id="path14775" />
  <path
     d="m 573.089,562.642 c 0,0 14.505,-48.064 57.205,-74.637 43.74,-27.224 89.923,-19.679 89.923,-19.679 -19.552,-21.014 -47.443,-34.156 -78.407,-34.156 -26.158,0 -50.128,9.396 -68.721,24.984 -18.596,-15.588 -42.563,-24.984 -68.726,-24.984 -30.96,0 -58.851,13.142 -78.403,34.156 0,0 46.183,-7.545 89.921,19.679 42.7,26.573 57.208,74.637 57.208,74.637"
     style="fill:#231f20;fill-opacity:1;fill-rule:nonzero;stroke:none"
     id="path14779" />
  <path
     d="m 560.667,395.629 c 2.607,0 4.735,2.117 4.735,4.723 0,2.614 -2.128,4.73 -4.735,4.73 -2.609,0 -4.727,-2.116 -4.727,-4.73 0,-2.606 2.118,-4.723 4.727,-4.723 m 0,13.305 c 4.745,0 8.579,-3.841 8.579,-8.582 0,-4.739 -3.834,-8.576 -8.579,-8.576 -4.737,0 -8.581,3.837 -8.581,8.576 0,4.741 3.844,8.582 8.581,8.582 m 6.033,21.227 c -7.104,0 -13.538,-2.972 -18.082,-7.736 -0.823,-0.861 -0.792,-2.235 0.07,-3.055 0.859,-0.824 2.239,-0.794 3.062,0.064 3.774,3.952 9.065,6.398 14.95,6.398 11.412,-0.016 20.66,-9.252 20.675,-20.667 0,-3.076 -0.659,-5.979 -1.864,-8.597 v 0.008 c -0.492,-1.086 -0.013,-2.371 1.068,-2.872 1.085,-0.495 2.367,-0.02 2.864,1.062 1.453,3.172 2.265,6.698 2.265,10.399 -0.01,13.804 -11.202,24.996 -25.008,24.996 m -6.033,-43.311 c 7.456,0 13.511,6.043 13.511,13.502 0,7.462 -6.055,13.51 -13.511,13.51 -7.464,0 -13.513,-6.048 -13.513,-13.51 0,-7.459 6.049,-13.502 13.513,-13.502 m 13.607,-16.065 c -20.675,0 -38.916,10.355 -49.842,26.164 l 17.151,23.165 -15.927,9.24 c 17.563,3.331 33.722,10.672 47.428,21.063 17.334,-13.144 38.586,-21.436 61.653,-22.848 -1.956,-31.696 -28.275,-56.784 -60.463,-56.784"
     style="fill:#231f20;fill-opacity:1;fill-rule:nonzero;stroke:none"
     id="path14783" />
  <path
     d="m 530.344,414.439 -9.14,-12.275 -22.863,6.646 z"
     style="fill:#231f20;fill-opacity:1;fill-rule:nonzero;stroke:none"
     id="path14787" />
  <path
     d="m 528.557,421.067 -30.284,-5.325 18.648,12.122 z"
     style="fill:#231f20;fill-opacity:1;fill-rule:nonzero;stroke:none"
     id="path14791" />
</svg>
