<?xml version="1.0" encoding="UTF-8" standalone="no"?>
<!-- Created with Inkscape (http://www.inkscape.org/) -->

<svg
   version="1.1"
   id="svg360"
   width="795.03467"
   height="793.70135"
   viewBox="0 0 795.03467 793.70135"
   sodipodi:docname="Mukai Kuchibashiawase Karigane.svg"
   inkscape:version="1.2 (dc2aeda, 2022-05-15)"
   xmlns:inkscape="http://www.inkscape.org/namespaces/inkscape"
   xmlns:sodipodi="http://sodipodi.sourceforge.net/DTD/sodipodi-0.dtd"
   xmlns="http://www.w3.org/2000/svg"
   xmlns:svg="http://www.w3.org/2000/svg">
  <defs
     id="defs364">
    <clipPath
       clipPathUnits="userSpaceOnUse"
       id="clipPath799">
      <path
         d="M -528.0898,575.3815 H 68.186202 V -19.8945 H -528.0898 Z"
         id="path801"
         style="stroke-width:0.999998" />
    </clipPath>
    <clipPath
       clipPathUnits="userSpaceOnUse"
       id="clipPath805">
      <path
         d="M -531.1924,581.5885 H 65.083602 V -13.6875 H -531.1924 Z"
         id="path807"
         style="stroke-width:0.999998" />
    </clipPath>
    <clipPath
       clipPathUnits="userSpaceOnUse"
       id="clipPath811">
      <path
         d="M -536.6982,584.5729 H 59.577802 V -10.7031 H -536.6982 Z"
         id="path813"
         style="stroke-width:0.999998" />
    </clipPath>
    <clipPath
       clipPathUnits="userSpaceOnUse"
       id="clipPath817">
      <path
         d="M -540.8213,585.8483 H 55.454702 V -9.4277 H -540.8213 Z"
         id="path819"
         style="stroke-width:0.999998" />
    </clipPath>
    <clipPath
       clipPathUnits="userSpaceOnUse"
       id="clipPath823">
      <path
         d="m -333.9971,287.3497 h 596.276 v -595.276 h -596.276 z"
         id="path825"
         style="stroke-width:0.999998" />
    </clipPath>
    <clipPath
       clipPathUnits="userSpaceOnUse"
       id="clipPath829">
      <path
         d="M -538.2217,577.9479 H 58.054302 V -17.3281 H -538.2217 Z"
         id="path831"
         style="stroke-width:0.999998" />
    </clipPath>
    <clipPath
       clipPathUnits="userSpaceOnUse"
       id="clipPath835">
      <path
         d="M -584.1943,578.9381 H 12.081702 V -16.3379 H -584.1943 Z"
         id="path837"
         style="stroke-width:0.999998" />
    </clipPath>
    <clipPath
       clipPathUnits="userSpaceOnUse"
       id="clipPath841">
      <path
         d="M -586.5449,579.5026 H 9.7311024 V -15.7734 H -586.5449 Z"
         id="path843"
         style="stroke-width:0.999998" />
    </clipPath>
    <clipPath
       clipPathUnits="userSpaceOnUse"
       id="clipPath847">
      <path
         d="M -557.4951,577.8502 H 38.780902 V -17.4258 H -557.4951 Z"
         id="path849"
         style="stroke-width:0.999998" />
    </clipPath>
    <clipPath
       clipPathUnits="userSpaceOnUse"
       id="clipPath853">
      <path
         d="M -568.2266,575.819 H 28.049402 V -19.457 H -568.2266 Z"
         id="path855"
         style="stroke-width:0.999998" />
    </clipPath>
    <clipPath
       clipPathUnits="userSpaceOnUse"
       id="clipPath859">
      <path
         d="M -550.2637,577.3248 H 46.012302 V -17.9512 H -550.2637 Z"
         id="path861"
         style="stroke-width:0.999998" />
    </clipPath>
    <clipPath
       clipPathUnits="userSpaceOnUse"
       id="clipPath865">
      <path
         d="M -556.4014,578.0143 H 39.874602 V -17.2617 H -556.4014 Z"
         id="path867"
         style="stroke-width:0.999998" />
    </clipPath>
    <clipPath
       clipPathUnits="userSpaceOnUse"
       id="clipPath872">
      <path
         d="M -576.3691,585.5885 H 19.906902 V -9.6875 H -576.3691 Z"
         id="path874"
         style="stroke-width:0.999998" />
    </clipPath>
    <clipPath
       clipPathUnits="userSpaceOnUse"
       id="clipPath878">
      <path
         d="M -574.5459,585.8522 H 21.730102 V -9.4238 H -574.5459 Z"
         id="path880"
         style="stroke-width:0.999998" />
    </clipPath>
    <clipPath
       clipPathUnits="userSpaceOnUse"
       id="clipPath884">
      <path
         d="M -572.8174,586.1354 H 23.458602 V -9.1406 H -572.8174 Z"
         id="path886"
         style="stroke-width:0.999998" />
    </clipPath>
    <clipPath
       clipPathUnits="userSpaceOnUse"
       id="clipPath891">
      <path
         d="M -567.7754,585.8522 H 28.500602 V -9.4238 H -567.7754 Z"
         id="path893"
         style="stroke-width:0.999998" />
    </clipPath>
    <clipPath
       clipPathUnits="userSpaceOnUse"
       id="clipPath897">
      <path
         d="M -564.5732,585.8483 H 31.702802 V -9.4277 H -564.5732 Z"
         id="path899"
         style="stroke-width:0.999998" />
    </clipPath>
    <clipPath
       clipPathUnits="userSpaceOnUse"
       id="clipPath903">
      <path
         d="M -561.4131,585.8522 H 34.862902 V -9.4238 H -561.4131 Z"
         id="path905"
         style="stroke-width:0.999998" />
    </clipPath>
    <clipPath
       clipPathUnits="userSpaceOnUse"
       id="clipPath909">
      <path
         d="M -557.0645,585.8483 H 39.211502 V -9.4277 H -557.0645 Z"
         id="path911"
         style="stroke-width:0.999998" />
    </clipPath>
    <clipPath
       clipPathUnits="userSpaceOnUse"
       id="clipPath915">
      <path
         d="M -553.8975,585.8483 H 42.378502 V -9.4277 H -553.8975 Z"
         id="path917"
         style="stroke-width:0.999998" />
    </clipPath>
    <clipPath
       clipPathUnits="userSpaceOnUse"
       id="clipPath921">
      <path
         d="M -548.9834,585.8522 H 47.292602 V -9.4238 H -548.9834 Z"
         id="path923"
         style="stroke-width:0.999998" />
    </clipPath>
    <clipPath
       clipPathUnits="userSpaceOnUse"
       id="clipPath927">
      <path
         d="M -542.9326,584.5729 H 53.343402 V -10.7031 H -542.9326 Z"
         id="path929"
         style="stroke-width:0.999998" />
    </clipPath>
    <clipPath
       clipPathUnits="userSpaceOnUse"
       id="clipPath933">
      <path
         d="M -545.417,584.5729 H 50.859002 V -10.7031 H -545.417 Z"
         id="path935"
         style="stroke-width:0.999998" />
    </clipPath>
  </defs>
  <sodipodi:namedview
     id="namedview362"
     pagecolor="#ffffff"
     bordercolor="#000000"
     borderopacity="0.25"
     inkscape:showpageshadow="2"
     inkscape:pageopacity="0.0"
     inkscape:pagecheckerboard="0"
     inkscape:deskcolor="#d1d1d1"
     showgrid="false"
     inkscape:zoom="0.29734106"
     inkscape:cx="60.536544"
     inkscape:cy="400.21382"
     inkscape:window-width="1419"
     inkscape:window-height="456"
     inkscape:window-x="0"
     inkscape:window-y="25"
     inkscape:window-maximized="0"
     inkscape:current-layer="svg360">
    <inkscape:page
       x="0"
       y="0"
       id="page366"
       width="795.03467"
       height="793.70135" />
  </sodipodi:namedview>
  <path
     d="M 445.329 383.133 C 445.153 383.157 444.974 383.166 444.801 383.166 C 442.758 383.168 440.984 381.649 440.718 379.568 C 440.433 377.31 442.029 375.245 444.284 374.956 L 444.286 374.956 C 455.481 373.529 465.056 366.89 470.504 357.542 C 471.654 355.577 474.178 354.912 476.142 356.06 C 478.106 357.208 478.772 359.729 477.628 361.694 C 470.925 373.194 459.141 381.368 445.329 383.133 M 416.114 339.646 C 416.117 326.605 426.68 316.043 439.72 316.039 C 452.765 316.043 463.328 326.605 463.328 339.646 C 463.328 352.688 452.765 363.254 439.72 363.254 C 426.68 363.254 416.117 352.688 416.114 339.646 M 518.541 396.858 C 488.028 362.858 464.502 322.438 450.194 277.893 C 426.932 298.636 409.788 326.093 401.818 357.228 L 451.526 396.849 L 401.818 436.466 C 409.785 467.607 426.932 495.071 450.197 515.815 C 464.505 471.277 488.032 430.86 518.541 396.858 M 439.72 349.016 C 434.546 349.016 430.352 344.82 430.352 339.648 C 430.352 334.473 434.546 330.277 439.72 330.277 C 444.896 330.277 449.088 334.473 449.088 339.648 C 449.088 344.82 444.896 349.016 439.72 349.016 M 439.72 324.282 C 431.238 324.298 424.373 331.161 424.356 339.646 C 424.373 348.13 431.238 354.994 439.72 355.01 C 448.209 354.994 455.073 348.13 455.084 339.646 C 455.073 331.161 448.209 324.298 439.72 324.282 M 579.325 256.077 C 525.857 191.645 490.509 118.174 472.629 41.8379 C 453.453 82.9724 442.724 128.838 442.724 177.216 C 442.724 262.203 475.782 339.464 529.733 396.861 C 475.785 454.258 442.724 531.509 442.724 616.49 C 442.724 664.867 453.453 710.732 472.629 751.864 C 490.509 675.531 525.857 602.06 579.325 537.626 C 630.818 475.577 693.648 428.509 762.291 396.852 C 693.648 365.196 630.818 318.128 579.325 256.077 M 353.98 330.277 C 359.155 330.277 363.351 334.473 363.351 339.648 C 363.351 344.82 359.155 349.016 353.98 349.016 C 348.805 349.016 344.613 344.82 344.613 339.648 C 344.613 334.473 348.805 330.277 353.98 330.277 M 353.98 355.01 C 362.465 354.994 369.329 348.13 369.345 339.646 C 369.329 331.161 362.465 324.298 353.98 324.282 C 345.492 324.298 338.629 331.161 338.617 339.646 C 338.629 348.13 345.492 354.994 353.98 355.01 M 316.075 361.694 C 314.928 359.729 315.593 357.208 317.56 356.06 C 319.524 354.912 322.048 355.577 323.196 357.542 C 328.644 366.89 338.22 373.529 349.413 374.956 L 349.417 374.956 C 351.673 375.245 353.268 377.31 352.983 379.568 C 352.717 381.649 350.944 383.168 348.9 383.166 C 348.725 383.166 348.548 383.157 348.371 383.133 C 334.559 381.368 322.775 373.194 316.075 361.694 M 353.98 316.039 C 367.021 316.043 377.584 326.605 377.588 339.646 C 377.584 352.688 367.021 363.254 353.98 363.254 C 340.936 363.254 330.372 352.688 330.372 339.646 C 330.372 326.605 340.936 316.043 353.98 316.039 M 391.882 357.228 C 383.914 326.093 366.771 298.636 343.508 277.893 C 329.199 322.438 305.673 362.858 275.16 396.858 C 305.671 430.86 329.196 471.277 343.504 515.815 C 366.771 495.071 383.917 467.607 391.884 436.466 L 342.173 396.849 Z M 360.575 400.972 L 396.85 429.884 L 433.126 400.972 Z M 433.124 392.726 L 396.85 363.818 L 360.577 392.726 Z M 350.979 177.216 C 350.979 128.838 340.248 82.9724 321.072 41.8379 C 303.193 118.174 267.844 191.645 214.376 256.077 C 162.883 318.128 100.051 365.196 31.4114 396.852 C 100.051 428.509 162.883 475.577 214.376 537.626 C 267.844 602.06 303.193 675.531 321.072 751.864 C 340.248 710.732 350.979 664.867 350.979 616.49 C 350.979 531.509 317.915 454.258 263.968 396.861 C 317.92 339.464 350.979 262.203 350.979 177.216"
     style="fill:#000000;fill-opacity:1;fill-rule:nonzero;stroke:none"
     id="path480" />
</svg>
