<?xml version="1.0" encoding="UTF-8" standalone="no"?>
<!-- Created with Inkscape (http://www.inkscape.org/) -->

<svg
   version="1.1"
   id="svg1863"
   width="795.03467"
   height="793.70135"
   viewBox="0 0 795.03467 793.70135"
   sodipodi:docname="Sanwa Tobi Kari.svg"
   inkscape:version="1.2 (dc2aeda, 2022-05-15)"
   xmlns:inkscape="http://www.inkscape.org/namespaces/inkscape"
   xmlns:sodipodi="http://sodipodi.sourceforge.net/DTD/sodipodi-0.dtd"
   xmlns="http://www.w3.org/2000/svg"
   xmlns:svg="http://www.w3.org/2000/svg">
  <defs
     id="defs1867">
    <clipPath
       clipPathUnits="userSpaceOnUse"
       id="clipPath2356">
      <path
         d="M -540.8213,585.8483 H 55.454701 V -9.4277027 H -540.8213 Z"
         id="path2358"
         style="stroke-width:0.999998" />
    </clipPath>
    <clipPath
       clipPathUnits="userSpaceOnUse"
       id="clipPath2362">
      <path
         d="M -528.0898,575.3815 H 68.186199 V -19.8945 H -528.0898 Z"
         id="path2364"
         style="stroke-width:0.999998" />
    </clipPath>
    <clipPath
       clipPathUnits="userSpaceOnUse"
       id="clipPath2368">
      <path
         d="M -531.1924,581.5885 H 65.083599 V -13.6875 H -531.1924 Z"
         id="path2370"
         style="stroke-width:0.999998" />
    </clipPath>
    <clipPath
       clipPathUnits="userSpaceOnUse"
       id="clipPath2374">
      <path
         d="M -536.6982,584.5729 H 59.577804 V -10.7031 H -536.6982 Z"
         id="path2376"
         style="stroke-width:0.999998" />
    </clipPath>
    <clipPath
       clipPathUnits="userSpaceOnUse"
       id="clipPath2380">
      <path
         d="M -542.9326,584.5729 H 53.343399 V -10.7031 H -542.9326 Z"
         id="path2382"
         style="stroke-width:0.999998" />
    </clipPath>
    <clipPath
       clipPathUnits="userSpaceOnUse"
       id="clipPath2386">
      <path
         d="M -545.417,584.5729 H 50.859001 V -10.7031 H -545.417 Z"
         id="path2388"
         style="stroke-width:0.999998" />
    </clipPath>
    <clipPath
       clipPathUnits="userSpaceOnUse"
       id="clipPath2392">
      <path
         d="M -556.4014,578.0143 H 39.874606 V -17.2617 H -556.4014 Z"
         id="path2394"
         style="stroke-width:0.999998" />
    </clipPath>
    <clipPath
       clipPathUnits="userSpaceOnUse"
       id="clipPath2398">
      <path
         d="M -548.9834,585.8522 H 47.292601 V -9.4238027 H -548.9834 Z"
         id="path2400"
         style="stroke-width:0.999998" />
    </clipPath>
    <clipPath
       clipPathUnits="userSpaceOnUse"
       id="clipPath2404">
      <path
         d="M -557.0645,585.8483 H 39.211501 V -9.4277027 H -557.0645 Z"
         id="path2406"
         style="stroke-width:0.999998" />
    </clipPath>
    <clipPath
       clipPathUnits="userSpaceOnUse"
       id="clipPath2410">
      <path
         d="M -557.4951,577.8502 H 38.780903 V -17.4258 H -557.4951 Z"
         id="path2412"
         style="stroke-width:0.999998" />
    </clipPath>
    <clipPath
       clipPathUnits="userSpaceOnUse"
       id="clipPath2417">
      <path
         d="M -572.8174,586.1354 H 23.458606 V -9.1406027 H -572.8174 Z"
         id="path2419"
         style="stroke-width:0.999998" />
    </clipPath>
    <clipPath
       clipPathUnits="userSpaceOnUse"
       id="clipPath2423">
      <path
         d="M -574.5459,585.8522 H 21.730103 V -9.4238027 H -574.5459 Z"
         id="path2425"
         style="stroke-width:0.999998" />
    </clipPath>
    <clipPath
       clipPathUnits="userSpaceOnUse"
       id="clipPath2429">
      <path
         d="M -576.3691,585.5885 H 19.906905 V -9.6875027 H -576.3691 Z"
         id="path2431"
         style="stroke-width:0.999998" />
    </clipPath>
    <clipPath
       clipPathUnits="userSpaceOnUse"
       id="clipPath2435">
      <path
         d="M -568.2266,575.819 H 28.049401 V -19.457003 H -568.2266 Z"
         id="path2437"
         style="stroke-width:0.999998" />
    </clipPath>
    <clipPath
       clipPathUnits="userSpaceOnUse"
       id="clipPath2441">
      <path
         d="M -550.2637,577.3248 H 46.012306 V -17.951198 H -550.2637 Z"
         id="path2443"
         style="stroke-width:0.999998" />
    </clipPath>
    <clipPath
       clipPathUnits="userSpaceOnUse"
       id="clipPath2448">
      <path
         d="M -584.1943,578.9381 H 12.081705 V -16.337903 H -584.1943 Z"
         id="path2450"
         style="stroke-width:0.999998" />
    </clipPath>
    <clipPath
       clipPathUnits="userSpaceOnUse"
       id="clipPath2454">
      <path
         d="M -538.2217,577.9479 H 58.054299 V -17.328098 H -538.2217 Z"
         id="path2456"
         style="stroke-width:0.999998" />
    </clipPath>
    <clipPath
       clipPathUnits="userSpaceOnUse"
       id="clipPath2460">
      <path
         d="m -249.3389,162.9532 h 596.276 v -595.276 h -596.276 z"
         id="path2462"
         style="stroke-width:0.999998" />
    </clipPath>
    <clipPath
       clipPathUnits="userSpaceOnUse"
       id="clipPath2466">
      <path
         d="M -567.7754,585.8522 H 28.500601 V -9.4238027 H -567.7754 Z"
         id="path2468"
         style="stroke-width:0.999998" />
    </clipPath>
    <clipPath
       clipPathUnits="userSpaceOnUse"
       id="clipPath2472">
      <path
         d="M -586.5449,579.5026 H 9.7311002 V -15.7734 H -586.5449 Z"
         id="path2474"
         style="stroke-width:0.999998" />
    </clipPath>
    <clipPath
       clipPathUnits="userSpaceOnUse"
       id="clipPath2478">
      <path
         d="M -564.5732,585.8483 H 31.702801 V -9.4277027 H -564.5732 Z"
         id="path2480"
         style="stroke-width:0.999998" />
    </clipPath>
    <clipPath
       clipPathUnits="userSpaceOnUse"
       id="clipPath2484">
      <path
         d="M -561.4131,585.8522 H 34.862903 V -9.4238027 H -561.4131 Z"
         id="path2486"
         style="stroke-width:0.999998" />
    </clipPath>
    <clipPath
       clipPathUnits="userSpaceOnUse"
       id="clipPath2490">
      <path
         d="M -553.8975,585.8483 H 42.378504 V -9.4277027 H -553.8975 Z"
         id="path2492"
         style="stroke-width:0.999998" />
    </clipPath>
  </defs>
  <sodipodi:namedview
     id="namedview1865"
     pagecolor="#ffffff"
     bordercolor="#000000"
     borderopacity="0.25"
     inkscape:showpageshadow="2"
     inkscape:pageopacity="0.0"
     inkscape:pagecheckerboard="0"
     inkscape:deskcolor="#d1d1d1"
     showgrid="false"
     inkscape:zoom="0.29734106"
     inkscape:cx="-215.24105"
     inkscape:cy="396.85068"
     inkscape:window-width="1419"
     inkscape:window-height="456"
     inkscape:window-x="0"
     inkscape:window-y="25"
     inkscape:window-maximized="0"
     inkscape:current-layer="svg1863">
    <inkscape:page
       x="0"
       y="0"
       id="page1869"
       width="795.03467"
       height="793.70135" />
  </sodipodi:namedview>
  <path
     d="M 332.452 217.271 C 335.264 222.646 337.293 227.844 338.769 232.723 C 342.832 180.215 380.051 137.006 429.526 124.019 C 410.112 112.162 387.293 105.325 362.877 105.325 C 320.196 105.325 282.396 126.217 259.132 158.324 C 269.569 162.371 281.411 167.618 294.652 176.648 C 313.756 189.651 325.488 203.93 332.452 217.271 M 180.306 97.8233 C 176.54 95.3126 171.99 96.0966 171.99 92.41 C 171.99 89.586 175.264 87.6847 178.266 87.8593 C 182.266 88.0953 185.168 91.626 185.796 94.7633 C 186.496 98.266 184.783 100.807 180.306 97.8233 M 271.143 258.16 C 271.143 258.16 267.692 256.748 263.77 251.102 C 260.834 246.874 259.219 238.394 259.219 238.394 C 259.219 238.394 265.111 246.276 277.732 251.886 C 289.028 256.907 297.185 256.748 297.185 256.748 C 297.185 256.748 298.127 253.768 295.616 244.982 C 294.444 240.879 293.105 237.138 293.105 237.138 C 293.105 237.138 309.608 249.132 316.851 258.894 C 326.473 271.862 336.093 275.943 334.211 252.41 C 332.911 236.154 326.261 208.062 290.061 183.394 C 275.704 173.612 263.299 168.578 252.002 164.342 C 228.838 155.656 223.135 148.341 219.684 125.747 C 216.232 103.157 211.526 90.606 198.034 83.3887 C 184.54 76.1727 168.17 81.0727 159.126 85.2713 C 154.734 87.31 152.867 90.222 157.243 91.5473 C 162.422 93.1166 167.171 96.0553 172.304 100.962 C 179.364 107.706 190.346 120.729 193.955 139.867 C 197.07 156.396 200.776 167.799 210.742 174.696 C 214.82 177.52 217.682 178.224 219.58 179.091 C 221.424 179.932 221.723 182.148 218.743 181.52 C 215.422 180.823 208.702 179.299 192.403 182.815 C 176.48 186.251 161.264 193.836 147.786 204.82 C 117.486 229.516 103.655 266.903 107.646 303.065 C 134.316 274.314 172.419 256.315 214.728 256.315 C 239.138 256.315 243.592 258.167 256.083 259.416 C 265.495 260.356 271.143 258.16 271.143 258.16 M 379.845 363.788 C 390.284 367.837 402.125 373.079 415.368 382.115 C 434.47 395.117 446.202 409.396 453.166 422.737 C 455.978 428.112 458.005 433.31 459.484 438.19 C 463.545 385.68 500.765 342.471 550.241 329.484 C 530.826 317.625 508.009 310.789 483.593 310.789 C 440.91 310.789 403.11 331.681 379.845 363.788 M 301.02 303.288 C 297.255 300.779 292.704 301.563 292.704 297.875 C 292.704 295.051 295.98 293.148 298.98 293.325 C 302.98 293.56 305.883 297.091 306.511 300.229 C 307.212 303.732 305.496 306.272 301.02 303.288 M 391.857 463.625 C 391.857 463.625 388.405 462.216 384.483 456.568 C 381.548 452.338 379.933 443.86 379.933 443.86 C 379.933 443.86 385.827 451.742 398.447 457.352 C 409.742 462.373 417.9 462.216 417.9 462.216 C 417.9 462.216 418.84 459.234 416.33 450.448 C 415.158 446.346 413.82 442.604 413.82 442.604 C 413.82 442.604 430.322 454.6 437.565 464.357 C 447.186 477.328 456.808 481.406 454.925 457.873 C 453.625 441.62 446.978 413.527 410.776 388.859 C 396.419 379.075 384.013 374.043 372.717 369.805 C 349.551 361.12 343.851 353.805 340.397 331.213 C 336.947 308.623 332.24 296.071 318.748 288.855 C 305.256 281.638 288.884 286.537 279.84 290.737 C 275.447 292.776 273.58 295.687 277.957 297.013 C 283.135 298.58 287.885 301.521 293.019 306.425 C 300.079 313.172 311.06 326.192 314.668 345.333 C 317.784 361.86 321.491 373.264 331.456 380.163 C 335.536 382.987 338.395 383.689 340.293 384.557 C 342.137 385.396 342.437 387.615 339.457 386.987 C 336.135 386.289 329.416 384.763 313.119 388.281 C 297.195 391.716 281.979 399.3 268.501 410.284 C 238.202 434.982 224.368 472.368 228.362 508.532 C 255.034 479.778 293.133 461.781 335.443 461.781 C 359.853 461.781 364.308 463.633 376.796 464.882 C 386.209 465.824 391.857 463.625 391.857 463.625 M 604.307 516.256 C 561.625 516.256 523.825 537.146 500.56 569.255 C 510.998 573.302 522.84 578.547 536.081 587.581 C 555.186 600.581 566.918 614.862 573.881 628.203 C 576.693 633.575 578.721 638.773 580.198 643.654 C 584.259 591.146 621.479 547.937 670.955 534.948 C 651.539 523.092 628.723 516.256 604.307 516.256 M 421.733 508.753 C 417.968 506.242 413.418 507.029 413.418 503.341 C 413.418 500.518 416.693 498.614 419.694 498.792 C 423.694 499.026 426.596 502.557 427.224 505.696 C 427.924 509.198 426.212 511.737 421.733 508.753 M 531.49 594.326 C 517.133 584.542 504.726 579.51 493.43 575.273 C 470.265 566.586 464.564 559.27 461.112 536.68 C 457.661 514.089 452.954 501.537 439.462 494.321 C 425.97 487.104 409.598 492.002 400.553 496.204 C 396.161 498.242 394.296 501.152 398.671 502.48 C 403.849 504.048 408.598 506.988 413.732 511.89 C 420.792 518.638 431.774 531.66 435.382 550.799 C 438.497 567.326 442.205 578.729 452.17 585.627 C 456.249 588.453 459.109 589.157 461.009 590.021 C 462.852 590.862 463.15 593.081 460.17 592.453 C 456.849 591.755 450.129 590.229 433.833 593.747 C 417.91 597.179 402.694 604.766 389.215 615.75 C 358.916 640.447 345.085 677.833 349.075 713.996 C 375.747 685.242 413.848 667.247 456.157 667.247 C 480.566 667.247 485.022 669.097 497.51 670.349 C 506.924 671.289 512.572 669.091 512.572 669.091 C 512.572 669.091 509.12 667.679 505.198 662.031 C 502.262 657.805 500.646 649.323 500.646 649.323 C 500.646 649.323 506.54 657.209 519.16 662.818 C 530.456 667.835 538.614 667.679 538.614 667.679 C 538.614 667.679 539.554 664.701 537.045 655.914 C 535.871 651.81 534.534 648.07 534.534 648.07 C 534.534 648.07 551.037 660.062 558.279 669.823 C 567.899 682.791 577.522 686.872 575.639 663.338 C 574.339 647.083 567.693 618.993 531.49 594.326"
     style="fill:#000000;fill-opacity:1;fill-rule:nonzero;stroke:none"
     id="path1983" />
</svg>
