<?xml version="1.0" encoding="UTF-8" standalone="no"?>
<!-- Created with Inkscape (http://www.inkscape.org/) -->

<svg
   version="1.1"
   id="svg10097"
   width="793.70135"
   height="793.70135"
   viewBox="0 0 793.70135 793.70135"
   sodipodi:docname="Shibata Katsuie Kamon.svg"
   inkscape:version="1.2 (dc2aeda, 2022-05-15)"
   xmlns:inkscape="http://www.inkscape.org/namespaces/inkscape"
   xmlns:sodipodi="http://sodipodi.sourceforge.net/DTD/sodipodi-0.dtd"
   xmlns="http://www.w3.org/2000/svg"
   xmlns:svg="http://www.w3.org/2000/svg">
  <defs
     id="defs10101">
    <clipPath
       clipPathUnits="userSpaceOnUse"
       id="clipPath10674">
      <path
         d="M -557.4951,577.8502 H 37.780898 V -17.4258 H -557.4951 Z"
         id="path10676"
         style="stroke-width:0.999998" />
    </clipPath>
    <clipPath
       clipPathUnits="userSpaceOnUse"
       id="clipPath10680">
      <path
         d="M -568.2266,575.819 H 27.049396 V -19.457003 H -568.2266 Z"
         id="path10682"
         style="stroke-width:0.999998" />
    </clipPath>
    <clipPath
       clipPathUnits="userSpaceOnUse"
       id="clipPath10686">
      <path
         d="M -550.2637,577.3248 H 45.012301 V -17.951198 H -550.2637 Z"
         id="path10688"
         style="stroke-width:0.999998" />
    </clipPath>
    <clipPath
       clipPathUnits="userSpaceOnUse"
       id="clipPath10693">
      <path
         d="M -556.4014,578.0143 H 38.874601 V -17.2617 H -556.4014 Z"
         id="path10695"
         style="stroke-width:0.999998" />
    </clipPath>
    <clipPath
       clipPathUnits="userSpaceOnUse"
       id="clipPath10699">
      <path
         d="M -586.5449,579.5026 H 8.7310952 V -15.7734 H -586.5449 Z"
         id="path10701"
         style="stroke-width:0.999998" />
    </clipPath>
    <clipPath
       clipPathUnits="userSpaceOnUse"
       id="clipPath10705">
      <path
         d="M -584.1943,578.9381 H 11.0817 V -16.337903 h -595.276 z"
         id="path10707"
         style="stroke-width:0.999998" />
    </clipPath>
    <clipPath
       clipPathUnits="userSpaceOnUse"
       id="clipPath10711">
      <path
         d="M -538.2217,577.9479 H 57.054294 V -17.328098 H -538.2217 Z"
         id="path10713"
         style="stroke-width:0.999998" />
    </clipPath>
    <clipPath
       clipPathUnits="userSpaceOnUse"
       id="clipPath10717">
      <path
         d="m -462.9883,462.9879 h 595.276 v -595.276 h -595.276 z"
         id="path10719"
         style="stroke-width:0.999998" />
    </clipPath>
    <clipPath
       clipPathUnits="userSpaceOnUse"
       id="clipPath10723">
      <path
         d="m -139.7148,221.0612 h 595.27599 v -595.276 H -139.7148 Z"
         id="path10725"
         style="stroke-width:0.999998" />
    </clipPath>
    <clipPath
       clipPathUnits="userSpaceOnUse"
       id="clipPath10729">
      <path
         d="m -214.1143,214.9718 h 595.27599 v -595.276 H -214.1143 Z"
         id="path10731"
         style="stroke-width:0.999998" />
    </clipPath>
    <clipPath
       clipPathUnits="userSpaceOnUse"
       id="clipPath10735">
      <path
         d="m -192.1582,197.2462 h 595.276 v -595.276 h -595.276 z"
         id="path10737"
         style="stroke-width:0.999998" />
    </clipPath>
    <clipPath
       clipPathUnits="userSpaceOnUse"
       id="clipPath10741">
      <path
         d="m -364.0908,364.9498 h 595.276 v -595.276 h -595.276 z"
         id="path10743"
         style="stroke-width:0.999998" />
    </clipPath>
    <clipPath
       clipPathUnits="userSpaceOnUse"
       id="clipPath10747">
      <path
         d="m -289.6914,371.0387 h 595.276 v -595.276 h -595.276 z"
         id="path10749"
         style="stroke-width:0.999998" />
    </clipPath>
    <clipPath
       clipPathUnits="userSpaceOnUse"
       id="clipPath10753">
      <path
         d="m -342.1348,347.2233 h 595.276 v -595.276 h -595.276 z"
         id="path10755"
         style="stroke-width:0.999998" />
    </clipPath>
    <clipPath
       clipPathUnits="userSpaceOnUse"
       id="clipPath10759">
      <path
         d="M -574.5459,585.8522 H 20.730098 V -9.4238027 H -574.5459 Z"
         id="path10761"
         style="stroke-width:0.999998" />
    </clipPath>
    <clipPath
       clipPathUnits="userSpaceOnUse"
       id="clipPath10765">
      <path
         d="M -576.3691,585.5885 H 18.9069 V -9.6875027 h -595.276 z"
         id="path10767"
         style="stroke-width:0.999998" />
    </clipPath>
    <clipPath
       clipPathUnits="userSpaceOnUse"
       id="clipPath10771">
      <path
         d="M -572.8174,586.1354 H 22.458601 V -9.1406027 H -572.8174 Z"
         id="path10773"
         style="stroke-width:0.999998" />
    </clipPath>
    <clipPath
       clipPathUnits="userSpaceOnUse"
       id="clipPath10778">
      <path
         d="M -564.5732,585.8483 H 30.702796 V -9.4277027 H -564.5732 Z"
         id="path10780"
         style="stroke-width:0.999998" />
    </clipPath>
    <clipPath
       clipPathUnits="userSpaceOnUse"
       id="clipPath10784">
      <path
         d="M -553.8975,585.8483 H 41.378499 V -9.4277027 H -553.8975 Z"
         id="path10786"
         style="stroke-width:0.999998" />
    </clipPath>
    <clipPath
       clipPathUnits="userSpaceOnUse"
       id="clipPath10790">
      <path
         d="M -561.4131,585.8522 H 33.862898 V -9.4238027 H -561.4131 Z"
         id="path10792"
         style="stroke-width:0.999998" />
    </clipPath>
    <clipPath
       clipPathUnits="userSpaceOnUse"
       id="clipPath10796">
      <path
         d="M -567.7754,585.8522 H 27.500596 V -9.4238027 H -567.7754 Z"
         id="path10798"
         style="stroke-width:0.999998" />
    </clipPath>
    <clipPath
       clipPathUnits="userSpaceOnUse"
       id="clipPath10802">
      <path
         d="M -557.0645,585.8483 H 38.211496 V -9.4277027 H -557.0645 Z"
         id="path10804"
         style="stroke-width:0.999998" />
    </clipPath>
    <clipPath
       clipPathUnits="userSpaceOnUse"
       id="clipPath10808">
      <path
         d="M -528.0898,575.3815 H 67.186194 V -19.8945 H -528.0898 Z"
         id="path10810"
         style="stroke-width:0.999998" />
    </clipPath>
    <clipPath
       clipPathUnits="userSpaceOnUse"
       id="clipPath10814">
      <path
         d="M -536.6982,584.5729 H 58.577799 V -10.7031 H -536.6982 Z"
         id="path10816"
         style="stroke-width:0.999998" />
    </clipPath>
    <clipPath
       clipPathUnits="userSpaceOnUse"
       id="clipPath10820">
      <path
         d="M -540.8213,585.8483 H 54.454696 V -9.4277027 H -540.8213 Z"
         id="path10822"
         style="stroke-width:0.999998" />
    </clipPath>
    <clipPath
       clipPathUnits="userSpaceOnUse"
       id="clipPath10826">
      <path
         d="M -542.9326,584.5729 H 52.343394 V -10.7031 H -542.9326 Z"
         id="path10828"
         style="stroke-width:0.999998" />
    </clipPath>
    <clipPath
       clipPathUnits="userSpaceOnUse"
       id="clipPath10832">
      <path
         d="M -545.417,584.5729 H 49.858996 V -10.7031 H -545.417 Z"
         id="path10834"
         style="stroke-width:0.999998" />
    </clipPath>
    <clipPath
       clipPathUnits="userSpaceOnUse"
       id="clipPath10838">
      <path
         d="M -548.9834,585.8522 H 46.292596 V -9.4238027 H -548.9834 Z"
         id="path10840"
         style="stroke-width:0.999998" />
    </clipPath>
    <clipPath
       clipPathUnits="userSpaceOnUse"
       id="clipPath10844">
      <path
         d="M -531.1924,581.5885 H 64.083594 V -13.6875 H -531.1924 Z"
         id="path10846"
         style="stroke-width:0.999998" />
    </clipPath>
  </defs>
  <sodipodi:namedview
     id="namedview10099"
     pagecolor="#ffffff"
     bordercolor="#000000"
     borderopacity="0.25"
     inkscape:showpageshadow="2"
     inkscape:pageopacity="0.0"
     inkscape:pagecheckerboard="0"
     inkscape:deskcolor="#d1d1d1"
     showgrid="false"
     inkscape:zoom="0.29734106"
     inkscape:cx="-215.24105"
     inkscape:cy="396.85068"
     inkscape:window-width="1419"
     inkscape:window-height="456"
     inkscape:window-x="0"
     inkscape:window-y="25"
     inkscape:window-maximized="0"
     inkscape:current-layer="svg10097">
    <inkscape:page
       x="0"
       y="0"
       id="page10103"
       width="793.70135"
       height="793.70135" />
  </sodipodi:namedview>
  <path
     d="M 617.318 617.317 C 560.725 673.826 483.116 708.614 396.847 708.641 C 310.581 708.614 232.97 673.826 176.383 617.317 C 119.873 560.729 85.0847 483.121 85.0607 396.851 C 85.086 310.584 119.873 232.974 176.382 176.381 C 232.97 119.877 310.584 85.089 396.847 85.0623 C 483.116 85.0903 560.725 119.877 617.318 176.382 C 673.822 232.974 708.61 310.583 708.636 396.852 C 708.61 483.121 673.822 560.729 617.318 617.317 M 396.851 31.7305 C 195.2 31.7305 31.7301 195.202 31.7315 396.854 C 31.7315 598.502 195.202 761.974 396.851 761.974 C 598.503 761.974 761.972 598.502 761.972 396.852 C 761.972 195.201 598.503 31.7305 396.851 31.7305"
     style="fill:#000000;fill-opacity:1;fill-rule:nonzero;stroke:none"
     id="path10217" />
  <path
     d="M 186.286 294.748 L 164.918 294.745 L 156.423 324.611 Z M 192.706 322.531 L 192.705 301.172 L 162.851 331.027 Z"
     style="fill:#000000;fill-opacity:1;fill-rule:nonzero;stroke:none"
     id="path10221" />
  <path
     d="M 285.486 286.629 C 294.147 249.416 312.982 214.091 341.987 185.085 C 382.014 145.059 434.075 124.401 486.521 123.116 C 471.387 132.491 457.084 143.747 443.951 156.881 C 382.338 218.495 362.082 305.802 383.178 384.313 C 304.662 363.217 217.354 383.477 155.738 445.091 C 142.606 458.227 131.348 472.529 121.973 487.664 C 123.26 435.218 143.918 383.155 183.945 343.129 C 212.95 314.124 248.273 295.292 285.486 286.629"
     style="fill:#000000;fill-opacity:1;fill-rule:nonzero;stroke:none"
     id="path10225" />
  <path
     d="M 256.211 262.995 C 251.876 267.33 246.811 270.544 241.423 272.608 C 239.011 273.531 236.312 272.326 235.388 269.916 C 234.466 267.507 235.674 264.806 238.082 263.884 C 242.279 262.274 246.206 259.788 249.604 256.39 C 262.484 243.464 262.482 222.587 249.604 209.664 C 246.77 206.83 243.566 204.627 240.14 203.042 C 237.799 201.956 236.786 199.179 237.87 196.838 C 238.955 194.497 241.731 193.479 244.072 194.567 C 248.468 196.602 252.594 199.443 256.21 203.058 C 272.762 219.614 272.76 246.44 256.211 262.995 M 226.544 252.702 C 217.983 261.259 204.116 261.259 195.551 252.704 C 186.998 244.139 186.997 230.272 195.554 221.711 C 204.114 213.155 217.984 213.152 226.546 221.711 L 226.544 221.712 C 235.102 230.272 235.1 244.142 226.544 252.702 M 322.582 188.977 C 285.372 151.769 222.011 159.295 190.082 191.223 C 163.242 218.063 155.983 251.032 164.739 286.31 L 201.144 286.308 L 201.144 316.179 C 224.582 298.554 250.746 286.195 277.979 279.126 C 286.232 247.334 301.695 216.999 324.321 190.762 C 323.752 190.161 323.171 189.567 322.582 188.977 M 215.866 242.023 C 213.206 244.683 208.894 244.683 206.232 242.023 C 203.572 239.362 203.572 235.05 206.231 232.39 C 208.891 229.73 213.203 229.73 215.863 232.391 C 218.523 235.051 218.523 239.363 215.866 242.023 M 201.659 227.816 C 196.483 233.011 196.483 241.402 201.659 246.598 C 206.852 251.771 215.242 251.771 220.438 246.594 C 225.614 241.4 225.611 233.011 220.438 227.818 C 215.242 222.642 206.852 222.64 201.659 227.816"
     style="fill:#000000;fill-opacity:1;fill-rule:nonzero;stroke:none"
     id="path10229" />
  <path
     d="M 386.255 494.718 L 364.887 494.715 L 356.392 524.581 Z M 392.675 522.501 L 392.674 501.142 L 362.82 530.997 Z"
     style="fill:#000000;fill-opacity:1;fill-rule:nonzero;stroke:none"
     id="path10233" />
  <path
     d="M 485.454 486.6 C 494.115 449.387 512.95 414.062 541.955 385.055 C 581.982 345.03 634.043 324.372 686.489 323.087 C 671.355 332.462 657.052 343.716 643.919 356.852 C 582.306 418.466 562.05 505.773 583.144 584.284 C 504.63 563.186 417.322 583.448 355.706 645.064 C 342.574 658.197 331.316 672.501 321.941 687.635 C 323.226 635.188 343.886 583.126 383.913 543.1 C 412.918 514.095 448.241 495.263 485.454 486.6"
     style="fill:#000000;fill-opacity:1;fill-rule:nonzero;stroke:none"
     id="path10237" />
  <path
     d="M 456.18 462.964 C 451.845 467.3 446.78 470.513 441.392 472.579 C 438.98 473.501 436.281 472.295 435.357 469.885 C 434.435 467.477 435.641 464.776 438.051 463.855 C 442.248 462.245 446.175 459.759 449.573 456.36 C 462.453 443.435 462.451 422.557 449.573 409.636 C 446.737 406.8 443.535 404.597 440.109 403.011 C 437.768 401.927 436.755 399.149 437.839 396.808 C 438.924 394.467 441.7 393.45 444.041 394.538 C 448.437 396.572 452.563 399.412 456.177 403.028 C 472.729 419.584 472.729 446.412 456.18 462.964 M 426.513 452.672 C 417.951 461.229 404.085 461.228 395.52 452.675 C 386.966 444.109 386.966 430.243 395.523 421.68 C 404.083 413.125 417.952 413.121 426.515 421.68 L 426.512 421.681 C 435.071 430.241 435.069 444.112 426.513 452.672 M 522.551 388.947 C 485.341 351.739 421.98 359.266 390.051 391.194 C 363.211 418.033 355.952 451.003 364.707 486.28 L 401.113 486.279 L 401.113 516.149 C 424.551 498.524 450.713 486.164 477.948 479.095 C 486.201 447.304 501.664 416.969 524.29 390.731 C 523.72 390.131 523.14 389.536 522.551 388.947 M 415.833 441.992 C 413.173 444.652 408.861 444.652 406.201 441.992 C 403.541 439.331 403.541 435.019 406.2 432.36 C 408.86 429.701 413.172 429.7 415.832 432.36 C 418.492 435.021 418.492 439.333 415.833 441.992 M 401.628 427.785 C 396.452 432.98 396.452 441.372 401.628 446.567 C 406.82 451.741 415.211 451.743 420.407 446.563 C 425.581 441.372 425.581 432.98 420.407 427.787 C 415.211 422.609 406.82 422.609 401.628 427.785"
     style="fill:#000000;fill-opacity:1;fill-rule:nonzero;stroke:none"
     id="path10241" />
</svg>
