<?xml version="1.0" encoding="UTF-8" standalone="no"?>
<!-- Created with Inkscape (http://www.inkscape.org/) -->

<svg
   version="1.1"
   id="svg3499"
   width="795.03467"
   height="793.70135"
   viewBox="0 0 795.03467 793.70135"
   sodipodi:docname="Wachigai Karigane.svg"
   inkscape:version="1.2 (dc2aeda, 2022-05-15)"
   xmlns:inkscape="http://www.inkscape.org/namespaces/inkscape"
   xmlns:sodipodi="http://sodipodi.sourceforge.net/DTD/sodipodi-0.dtd"
   xmlns="http://www.w3.org/2000/svg"
   xmlns:svg="http://www.w3.org/2000/svg">
  <defs
     id="defs3503">
    <clipPath
       clipPathUnits="userSpaceOnUse"
       id="clipPath3992">
      <path
         d="M -542.9326,584.5729 H 53.343399 V -10.7031 H -542.9326 Z"
         id="path3994"
         style="stroke-width:0.999998" />
    </clipPath>
    <clipPath
       clipPathUnits="userSpaceOnUse"
       id="clipPath3998">
      <path
         d="M -572.8174,586.1354 H 23.458606 V -9.1406027 H -572.8174 Z"
         id="path4000"
         style="stroke-width:0.999998" />
    </clipPath>
    <clipPath
       clipPathUnits="userSpaceOnUse"
       id="clipPath4004">
      <path
         d="M -553.8975,585.8483 H 42.378504 V -9.4277027 H -553.8975 Z"
         id="path4006"
         style="stroke-width:0.999998" />
    </clipPath>
    <clipPath
       clipPathUnits="userSpaceOnUse"
       id="clipPath4010">
      <path
         d="M -545.417,584.5729 H 50.859001 V -10.7031 H -545.417 Z"
         id="path4012"
         style="stroke-width:0.999998" />
    </clipPath>
    <clipPath
       clipPathUnits="userSpaceOnUse"
       id="clipPath4016">
      <path
         d="M -548.9834,585.8522 H 47.292601 V -9.4238027 H -548.9834 Z"
         id="path4018"
         style="stroke-width:0.999998" />
    </clipPath>
    <clipPath
       clipPathUnits="userSpaceOnUse"
       id="clipPath4023">
      <path
         d="M -550.2637,577.3248 H 46.012306 V -17.951198 H -550.2637 Z"
         id="path4025"
         style="stroke-width:0.999998" />
    </clipPath>
    <clipPath
       clipPathUnits="userSpaceOnUse"
       id="clipPath4029">
      <path
         d="M -531.1924,581.5885 H 65.083599 V -13.6875 H -531.1924 Z"
         id="path4031"
         style="stroke-width:0.999998" />
    </clipPath>
    <clipPath
       clipPathUnits="userSpaceOnUse"
       id="clipPath4035">
      <path
         d="M -568.2266,575.819 H 28.049401 V -19.457003 H -568.2266 Z"
         id="path4037"
         style="stroke-width:0.999998" />
    </clipPath>
    <clipPath
       clipPathUnits="userSpaceOnUse"
       id="clipPath4041">
      <path
         d="M -561.4131,585.8522 H 34.862903 V -9.4238027 H -561.4131 Z"
         id="path4043"
         style="stroke-width:0.999998" />
    </clipPath>
    <clipPath
       clipPathUnits="userSpaceOnUse"
       id="clipPath4047">
      <path
         d="M -564.5732,585.8483 H 31.702801 V -9.4277027 H -564.5732 Z"
         id="path4049"
         style="stroke-width:0.999998" />
    </clipPath>
    <clipPath
       clipPathUnits="userSpaceOnUse"
       id="clipPath4053">
      <path
         d="M -536.6982,584.5729 H 59.577804 V -10.7031 H -536.6982 Z"
         id="path4055"
         style="stroke-width:0.999998" />
    </clipPath>
    <clipPath
       clipPathUnits="userSpaceOnUse"
       id="clipPath4059">
      <path
         d="M -540.8213,585.8483 H 55.454701 V -9.4277027 H -540.8213 Z"
         id="path4061"
         style="stroke-width:0.999998" />
    </clipPath>
    <clipPath
       clipPathUnits="userSpaceOnUse"
       id="clipPath4065">
      <path
         d="M -528.0898,575.3815 H 68.186199 V -19.8945 H -528.0898 Z"
         id="path4067"
         style="stroke-width:0.999998" />
    </clipPath>
    <clipPath
       clipPathUnits="userSpaceOnUse"
       id="clipPath4071">
      <path
         d="M -557.4951,577.8502 H 38.780903 V -17.4258 H -557.4951 Z"
         id="path4073"
         style="stroke-width:0.999998" />
    </clipPath>
    <clipPath
       clipPathUnits="userSpaceOnUse"
       id="clipPath4077">
      <path
         d="M -576.3691,585.5885 H 19.906905 V -9.6875027 H -576.3691 Z"
         id="path4079"
         style="stroke-width:0.999998" />
    </clipPath>
    <clipPath
       clipPathUnits="userSpaceOnUse"
       id="clipPath4083">
      <path
         d="M -574.5459,585.8522 H 21.730103 V -9.4238027 H -574.5459 Z"
         id="path4085"
         style="stroke-width:0.999998" />
    </clipPath>
    <clipPath
       clipPathUnits="userSpaceOnUse"
       id="clipPath4089">
      <path
         d="M -584.1943,578.9381 H 12.081705 V -16.337903 H -584.1943 Z"
         id="path4091"
         style="stroke-width:0.999998" />
    </clipPath>
    <clipPath
       clipPathUnits="userSpaceOnUse"
       id="clipPath4095">
      <path
         d="M -556.4014,578.0143 H 39.874606 V -17.2617 H -556.4014 Z"
         id="path4097"
         style="stroke-width:0.999998" />
    </clipPath>
    <clipPath
       clipPathUnits="userSpaceOnUse"
       id="clipPath4101">
      <path
         d="M -567.7754,585.8522 H 28.500601 V -9.4238027 H -567.7754 Z"
         id="path4103"
         style="stroke-width:0.999998" />
    </clipPath>
    <clipPath
       clipPathUnits="userSpaceOnUse"
       id="clipPath4108">
      <path
         d="M -586.5449,579.5026 H 9.7311002 V -15.7734 H -586.5449 Z"
         id="path4110"
         style="stroke-width:0.999998" />
    </clipPath>
    <clipPath
       clipPathUnits="userSpaceOnUse"
       id="clipPath4114">
      <path
         d="M -538.2217,577.9479 H 58.054299 V -17.328098 H -538.2217 Z"
         id="path4116"
         style="stroke-width:0.999998" />
    </clipPath>
    <clipPath
       clipPathUnits="userSpaceOnUse"
       id="clipPath4120">
      <path
         d="m -321.3643,526.1051 h 596.276 V -69.170897 h -596.276 z"
         id="path4122"
         style="stroke-width:0.999998" />
    </clipPath>
    <clipPath
       clipPathUnits="userSpaceOnUse"
       id="clipPath4126">
      <path
         d="M -557.0645,585.8483 H 39.211501 V -9.4277027 H -557.0645 Z"
         id="path4128"
         style="stroke-width:0.999998" />
    </clipPath>
  </defs>
  <sodipodi:namedview
     id="namedview3501"
     pagecolor="#ffffff"
     bordercolor="#000000"
     borderopacity="0.25"
     inkscape:showpageshadow="2"
     inkscape:pageopacity="0.0"
     inkscape:pagecheckerboard="0"
     inkscape:deskcolor="#d1d1d1"
     showgrid="false"
     inkscape:zoom="0.29734106"
     inkscape:cx="-215.24105"
     inkscape:cy="396.85068"
     inkscape:window-width="1419"
     inkscape:window-height="456"
     inkscape:window-x="0"
     inkscape:window-y="25"
     inkscape:window-maximized="0"
     inkscape:current-layer="svg3499">
    <inkscape:page
       x="0"
       y="0"
       id="page3505"
       width="795.03467"
       height="793.70135" />
  </sodipodi:namedview>
  <path
     d="M 428.486 701.473 C 422.106 701.473 416.931 696.298 416.931 689.916 C 416.931 683.536 422.106 678.361 428.486 678.361 C 434.869 678.361 440.041 683.536 440.041 689.916 C 440.041 696.298 434.869 701.473 428.486 701.473 M 428.489 669.14 C 417.014 669.161 407.731 678.445 407.71 689.918 C 407.731 701.392 417.014 710.676 428.489 710.697 C 439.962 710.676 449.246 701.392 449.262 689.918 C 449.246 678.445 439.962 669.161 428.489 669.14 M 428.489 719.361 C 412.223 719.358 399.049 706.178 399.046 689.918 C 399.049 673.653 412.223 660.476 428.489 660.47 C 444.754 660.476 457.929 673.653 457.931 689.918 C 457.929 706.178 444.754 719.358 428.489 719.361 M 380.142 689.905 C 380.142 694.861 380.905 699.9 382.525 704.877 C 383.269 707.153 382.023 709.598 379.746 710.337 C 377.473 711.08 375.027 709.834 374.286 707.558 C 372.383 701.71 371.473 695.757 371.473 689.905 C 371.473 665.885 386.777 643.558 410.843 635.716 C 411.289 635.569 411.741 635.501 412.186 635.501 C 414.013 635.501 415.71 636.664 416.306 638.494 C 417.046 640.77 415.806 643.216 413.527 643.957 C 393.114 650.596 380.146 669.552 380.142 689.905 M 509.15 642.058 C 468.191 639.465 429.955 626.867 396.877 606.64 C 361.895 628.044 321.144 640.929 277.497 642.446 C 288.541 698.28 337.776 740.385 396.853 740.385 C 435.341 740.385 469.642 722.504 491.937 694.612 L 474.522 658.989 Z M 491.619 660.276 L 540.622 677.098 L 514.628 649.025 Z M 500.054 691.484 L 537.808 685.293 L 488.803 668.47 Z M 365.217 74.3572 C 381.481 74.3599 394.657 87.5385 394.659 103.8 C 394.657 120.065 381.481 133.245 365.217 133.248 C 348.952 133.245 335.776 120.065 335.773 103.8 C 335.776 87.5385 348.952 74.3599 365.217 74.3572 M 413.562 103.812 C 413.562 98.8572 412.798 93.8185 411.179 88.8425 C 410.437 86.5652 411.681 84.1199 413.958 83.3812 C 416.231 82.6385 418.677 83.8825 419.418 86.1599 C 421.322 92.0105 422.231 97.9638 422.231 103.812 C 422.231 127.833 406.929 150.16 382.862 158.005 C 382.415 158.148 381.963 158.218 381.518 158.218 C 379.693 158.218 377.994 157.057 377.398 155.226 C 376.658 152.949 377.899 150.504 380.177 149.76 C 400.59 143.124 413.559 124.168 413.562 103.812 M 284.554 151.661 C 325.514 154.252 363.75 166.852 396.827 187.08 C 431.809 165.677 472.562 152.79 516.207 151.273 C 505.163 95.4372 455.929 53.3333 396.85 53.3333 C 358.364 53.3333 324.064 71.2132 301.768 99.1092 L 319.182 134.73 Z M 365.218 92.2479 C 371.599 92.2479 376.773 97.4198 376.773 103.802 C 376.773 110.184 371.599 115.357 365.218 115.357 C 358.837 115.357 353.664 110.184 353.664 103.802 C 353.664 97.4198 358.837 92.2479 365.218 92.2479 M 365.217 124.578 C 376.689 124.557 385.973 115.273 385.994 103.8 C 385.973 92.3265 376.689 83.0425 365.217 83.0239 C 353.742 83.0425 344.458 92.3265 344.442 103.8 C 344.458 115.273 353.742 124.557 365.217 124.578 M 293.65 102.234 L 255.897 108.425 L 304.902 125.248 Z M 302.086 133.442 L 253.084 116.622 L 279.074 144.694 Z M 560.986 598.588 C 519.371 598.588 480.702 585.984 448.579 564.392 C 435.571 578.345 420.959 590.785 405.035 601.416 C 440.205 622.067 481.163 633.921 524.898 633.921 C 640.501 633.921 736.767 551.168 757.725 441.668 C 737.34 531.515 656.999 598.588 560.986 598.588 M 287.821 396.846 C 287.821 456.612 309.945 511.205 346.44 552.905 C 354.536 546.992 362.166 540.476 369.243 533.4 C 377.494 525.145 384.989 516.145 391.642 506.52 C 371.151 474.947 359.242 437.288 359.242 396.846 C 359.242 285.426 449.565 195.101 560.986 195.101 C 656.999 195.101 737.34 262.177 757.725 352.021 C 736.767 242.523 640.501 159.768 524.898 159.768 C 393.959 159.768 287.821 265.911 287.821 396.846 M 232.718 195.13 C 274.333 195.13 313.001 207.734 345.122 229.325 C 358.13 215.372 372.739 202.929 388.667 192.302 C 353.498 171.65 312.54 159.797 268.806 159.797 C 153.203 159.797 56.9389 242.551 35.9803 352.049 C 56.3656 262.205 136.707 195.13 232.718 195.13 M 505.884 396.874 C 505.884 337.106 483.759 282.513 447.265 240.811 C 439.166 246.726 431.535 253.245 424.458 260.319 C 416.207 268.573 408.713 277.573 402.062 287.195 C 422.551 318.77 434.462 356.429 434.462 396.874 C 434.462 508.293 344.141 598.616 232.718 598.616 C 136.707 598.616 56.3656 531.544 35.9803 441.698 C 56.9389 551.197 153.203 633.949 268.806 633.949 C 399.743 633.949 505.884 527.807 505.884 396.874"
     style="fill:#000000;fill-opacity:1;fill-rule:nonzero;stroke:none"
     id="path3619" />
</svg>
