<?xml version="1.0" encoding="UTF-8" standalone="no"?>
<!-- Created with Inkscape (http://www.inkscape.org/) -->

<svg
   version="1.1"
   id="svg21006"
   width="795.03467"
   height="793.70135"
   viewBox="0 0 795.03467 793.70135"
   sodipodi:docname="Maruni Inazuma.svg"
   inkscape:version="1.2 (dc2aeda, 2022-05-15)"
   xmlns:inkscape="http://www.inkscape.org/namespaces/inkscape"
   xmlns:sodipodi="http://sodipodi.sourceforge.net/DTD/sodipodi-0.dtd"
   xmlns="http://www.w3.org/2000/svg"
   xmlns:svg="http://www.w3.org/2000/svg">
  <defs
     id="defs21010">
    <clipPath
       clipPathUnits="userSpaceOnUse"
       id="clipPath21445">
      <path
         d="M -557.0645,585.8483 H 39.211502 V -9.4277 H -557.0645 Z"
         id="path21447"
         style="stroke-width:0.999998" />
    </clipPath>
    <clipPath
       clipPathUnits="userSpaceOnUse"
       id="clipPath21451">
      <path
         d="M -567.7754,585.8522 H 28.500602 V -9.4238 H -567.7754 Z"
         id="path21453"
         style="stroke-width:0.999998" />
    </clipPath>
    <clipPath
       clipPathUnits="userSpaceOnUse"
       id="clipPath21457">
      <path
         d="M -550.2637,577.3248 H 46.012302 V -17.9512 H -550.2637 Z"
         id="path21459"
         style="stroke-width:0.999998" />
    </clipPath>
    <clipPath
       clipPathUnits="userSpaceOnUse"
       id="clipPath21464">
      <path
         d="M -572.8174,586.1354 H 23.458602 V -9.1406 H -572.8174 Z"
         id="path21466"
         style="stroke-width:0.999998" />
    </clipPath>
    <clipPath
       clipPathUnits="userSpaceOnUse"
       id="clipPath21470">
      <path
         d="M -574.5459,585.8522 H 21.730102 V -9.4238 H -574.5459 Z"
         id="path21472"
         style="stroke-width:0.999998" />
    </clipPath>
    <clipPath
       clipPathUnits="userSpaceOnUse"
       id="clipPath21476">
      <path
         d="M -576.3691,585.5885 H 19.906902 V -9.6875 H -576.3691 Z"
         id="path21478"
         style="stroke-width:0.999998" />
    </clipPath>
    <clipPath
       clipPathUnits="userSpaceOnUse"
       id="clipPath21482">
      <path
         d="M -557.4951,577.8502 H 38.780902 V -17.4258 H -557.4951 Z"
         id="path21484"
         style="stroke-width:0.999998" />
    </clipPath>
    <clipPath
       clipPathUnits="userSpaceOnUse"
       id="clipPath21488">
      <path
         d="M -568.2266,575.819 H 28.049402 V -19.457 H -568.2266 Z"
         id="path21490"
         style="stroke-width:0.999998" />
    </clipPath>
    <clipPath
       clipPathUnits="userSpaceOnUse"
       id="clipPath21495">
      <path
         d="M -536.6982,584.5729 H 59.577802 V -10.7031 H -536.6982 Z"
         id="path21497"
         style="stroke-width:0.999998" />
    </clipPath>
    <clipPath
       clipPathUnits="userSpaceOnUse"
       id="clipPath21501">
      <path
         d="M -528.0898,575.3815 H 68.186202 V -19.8945 H -528.0898 Z"
         id="path21503"
         style="stroke-width:0.999998" />
    </clipPath>
    <clipPath
       clipPathUnits="userSpaceOnUse"
       id="clipPath21507">
      <path
         d="M -556.4014,578.0143 H 39.874602 V -17.2617 H -556.4014 Z"
         id="path21509"
         style="stroke-width:0.999998" />
    </clipPath>
    <clipPath
       clipPathUnits="userSpaceOnUse"
       id="clipPath21513">
      <path
         d="M -586.5449,579.5026 H 9.7311024 V -15.7734 H -586.5449 Z"
         id="path21515"
         style="stroke-width:0.999998" />
    </clipPath>
    <clipPath
       clipPathUnits="userSpaceOnUse"
       id="clipPath21519">
      <path
         d="M -584.1943,578.9381 H 12.081702 V -16.3379 H -584.1943 Z"
         id="path21521"
         style="stroke-width:0.999998" />
    </clipPath>
    <clipPath
       clipPathUnits="userSpaceOnUse"
       id="clipPath21525">
      <path
         d="M -538.2217,577.9479 H 58.054302 V -17.3281 H -538.2217 Z"
         id="path21527"
         style="stroke-width:0.999998" />
    </clipPath>
    <clipPath
       clipPathUnits="userSpaceOnUse"
       id="clipPath21531">
      <path
         d="m -141.4072,141.4034 h 596.276 v -595.276 h -596.276 z"
         id="path21533"
         style="stroke-width:0.999998" />
    </clipPath>
    <clipPath
       clipPathUnits="userSpaceOnUse"
       id="clipPath21537">
      <path
         d="M -553.8975,585.8483 H 42.378502 V -9.4277 H -553.8975 Z"
         id="path21539"
         style="stroke-width:0.999998" />
    </clipPath>
    <clipPath
       clipPathUnits="userSpaceOnUse"
       id="clipPath21543">
      <path
         d="M -540.8213,585.8483 H 55.454702 V -9.4277 H -540.8213 Z"
         id="path21545"
         style="stroke-width:0.999998" />
    </clipPath>
    <clipPath
       clipPathUnits="userSpaceOnUse"
       id="clipPath21549">
      <path
         d="M -564.5732,585.8483 H 31.702802 V -9.4277 H -564.5732 Z"
         id="path21551"
         style="stroke-width:0.999998" />
    </clipPath>
    <clipPath
       clipPathUnits="userSpaceOnUse"
       id="clipPath21555">
      <path
         d="M -561.4131,585.8522 H 34.862902 V -9.4238 H -561.4131 Z"
         id="path21557"
         style="stroke-width:0.999998" />
    </clipPath>
    <clipPath
       clipPathUnits="userSpaceOnUse"
       id="clipPath21561">
      <path
         d="M -531.1924,581.5885 H 65.083602 V -13.6875 H -531.1924 Z"
         id="path21563"
         style="stroke-width:0.999998" />
    </clipPath>
    <clipPath
       clipPathUnits="userSpaceOnUse"
       id="clipPath21567">
      <path
         d="M -545.417,584.5729 H 50.859002 V -10.7031 H -545.417 Z"
         id="path21569"
         style="stroke-width:0.999998" />
    </clipPath>
    <clipPath
       clipPathUnits="userSpaceOnUse"
       id="clipPath21573">
      <path
         d="M -542.9326,584.5729 H 53.343402 V -10.7031 H -542.9326 Z"
         id="path21575"
         style="stroke-width:0.999998" />
    </clipPath>
    <clipPath
       clipPathUnits="userSpaceOnUse"
       id="clipPath21579">
      <path
         d="M -548.9834,585.8522 H 47.292602 V -9.4238 H -548.9834 Z"
         id="path21581"
         style="stroke-width:0.999998" />
    </clipPath>
  </defs>
  <sodipodi:namedview
     id="namedview21008"
     pagecolor="#ffffff"
     bordercolor="#000000"
     borderopacity="0.25"
     inkscape:showpageshadow="2"
     inkscape:pageopacity="0.0"
     inkscape:pagecheckerboard="0"
     inkscape:deskcolor="#d1d1d1"
     showgrid="false"
     inkscape:zoom="0.29734106"
     inkscape:cx="-215.24105"
     inkscape:cy="396.85068"
     inkscape:window-width="1419"
     inkscape:window-height="456"
     inkscape:window-x="0"
     inkscape:window-y="25"
     inkscape:window-maximized="0"
     inkscape:current-layer="svg21006">
    <inkscape:page
       x="0"
       y="0"
       id="page21012"
       width="795.03467"
       height="793.70135" />
  </sodipodi:namedview>
  <path
     d="m 188.542,188.539 0.003,341.253 H 529.799 L 529.796,263.896 H 263.902 l 0.001,196.383 196.381,-0.002 V 333.414 L 333.416,333.41 v 58.235 l 63.438,0.001 v 10.393 h -73.833 l 0.002,-79.022 147.654,0.003 0.003,147.652 -217.171,0.003 V 253.502 l 286.68,-0.004 0.003,286.688 h -351.65 v 64.97 h 416.619 l -0.003,-416.617 z m 208.306,513.433 c -168.51,0 -305.1189,-136.609 -305.1189,-305.123 0,-168.515 136.6089,-305.1222 305.1189,-305.1222 168.516,0 305.122,136.6072 305.122,305.1222 0,168.514 -136.606,305.123 -305.122,305.123 m 0,-670.2411 C 195.2,31.7309 31.7293,195.201 31.7293,396.853 31.7293,598.503 195.2,761.974 396.848,761.974 598.5,761.974 761.97,598.503 761.97,396.853 761.97,195.201 598.5,31.7309 396.848,31.7309"
     style="fill:#000000;fill-opacity:1;fill-rule:nonzero;stroke:none"
     id="path21126" />
</svg>
