<?xml version="1.0" encoding="UTF-8" standalone="no"?>
<!-- Created with Inkscape (http://www.inkscape.org/) -->

<svg
   sodipodi:docname="Mukumi Inazuma.svg"
   viewBox="0 0 795.03467 793.70135"
   height="793.70135"
   width="795.03467"
   id="svg28500"
   version="1.1"
   inkscape:version="1.2 (dc2aeda, 2022-05-15)"
   xmlns:inkscape="http://www.inkscape.org/namespaces/inkscape"
   xmlns:sodipodi="http://sodipodi.sourceforge.net/DTD/sodipodi-0.dtd"
   xmlns="http://www.w3.org/2000/svg"
   xmlns:svg="http://www.w3.org/2000/svg">
  <defs
     id="defs28504">
    <clipPath
       clipPathUnits="userSpaceOnUse"
       id="clipPath28849">
      <path
         d="M -538.2217,577.9479 H 58.054302 V -17.3281 H -538.2217 Z"
         id="path28851"
         style="stroke-width:0.999998" />
    </clipPath>
    <clipPath
       clipPathUnits="userSpaceOnUse"
       id="clipPath28853">
      <path
         d="M -584.1943,578.9381 H 12.081702 V -16.3379 H -584.1943 Z"
         id="path28855"
         style="stroke-width:0.999998" />
    </clipPath>
    <clipPath
       clipPathUnits="userSpaceOnUse"
       id="clipPath28857">
      <path
         d="M -586.5449,579.5026 H 9.7311024 V -15.7734 H -586.5449 Z"
         id="path28859"
         style="stroke-width:0.999998" />
    </clipPath>
    <clipPath
       clipPathUnits="userSpaceOnUse"
       id="clipPath28861">
      <path
         d="M -556.4014,578.0143 H 39.874602 V -17.2617 H -556.4014 Z"
         id="path28863"
         style="stroke-width:0.999998" />
    </clipPath>
    <clipPath
       clipPathUnits="userSpaceOnUse"
       id="clipPath28865">
      <path
         d="M -550.2637,577.3248 H 46.012302 V -17.9512 H -550.2637 Z"
         id="path28867"
         style="stroke-width:0.999998" />
    </clipPath>
    <clipPath
       clipPathUnits="userSpaceOnUse"
       id="clipPath28869">
      <path
         d="M -568.2266,575.819 H 28.049402 V -19.457 H -568.2266 Z"
         id="path28871"
         style="stroke-width:0.999998" />
    </clipPath>
    <clipPath
       clipPathUnits="userSpaceOnUse"
       id="clipPath28873">
      <path
         d="M -557.4951,577.8502 H 38.780902 V -17.4258 H -557.4951 Z"
         id="path28875"
         style="stroke-width:0.999998" />
    </clipPath>
    <clipPath
       clipPathUnits="userSpaceOnUse"
       id="clipPath28877">
      <path
         d="M -576.3691,585.5885 H 19.906902 V -9.6875 H -576.3691 Z"
         id="path28879"
         style="stroke-width:0.999998" />
    </clipPath>
    <clipPath
       clipPathUnits="userSpaceOnUse"
       id="clipPath28881">
      <path
         d="M -574.5459,585.8522 H 21.730102 V -9.4238 H -574.5459 Z"
         id="path28883"
         style="stroke-width:0.999998" />
    </clipPath>
    <clipPath
       clipPathUnits="userSpaceOnUse"
       id="clipPath28885">
      <path
         d="M -572.8174,586.1354 H 23.458602 V -9.1406 H -572.8174 Z"
         id="path28887"
         style="stroke-width:0.999998" />
    </clipPath>
    <clipPath
       clipPathUnits="userSpaceOnUse"
       id="clipPath28889">
      <path
         d="M -567.7754,585.8522 H 28.500602 V -9.4238 H -567.7754 Z"
         id="path28891"
         style="stroke-width:0.999998" />
    </clipPath>
    <clipPath
       clipPathUnits="userSpaceOnUse"
       id="clipPath28893">
      <path
         d="M -564.5732,585.8483 H 31.702802 V -9.4277 H -564.5732 Z"
         id="path28895"
         style="stroke-width:0.999998" />
    </clipPath>
    <clipPath
       clipPathUnits="userSpaceOnUse"
       id="clipPath28897">
      <path
         d="M -561.4131,585.8522 H 34.862902 V -9.4238 H -561.4131 Z"
         id="path28899"
         style="stroke-width:0.999998" />
    </clipPath>
    <clipPath
       clipPathUnits="userSpaceOnUse"
       id="clipPath28901">
      <path
         d="M -557.0645,585.8483 H 39.211502 V -9.4277 H -557.0645 Z"
         id="path28903"
         style="stroke-width:0.999998" />
    </clipPath>
    <clipPath
       clipPathUnits="userSpaceOnUse"
       id="clipPath28905">
      <path
         d="M -553.8975,585.8483 H 42.378502 V -9.4277 H -553.8975 Z"
         id="path28907"
         style="stroke-width:0.999998" />
    </clipPath>
    <clipPath
       clipPathUnits="userSpaceOnUse"
       id="clipPath28909">
      <path
         d="M -548.9834,585.8522 H 47.292602 V -9.4238 H -548.9834 Z"
         id="path28911"
         style="stroke-width:0.999998" />
    </clipPath>
    <clipPath
       clipPathUnits="userSpaceOnUse"
       id="clipPath28913">
      <path
         d="M -545.417,584.5729 H 50.859002 V -10.7031 H -545.417 Z"
         id="path28915"
         style="stroke-width:0.999998" />
    </clipPath>
    <clipPath
       clipPathUnits="userSpaceOnUse"
       id="clipPath28917">
      <path
         d="M -542.9326,584.5729 H 53.343402 V -10.7031 H -542.9326 Z"
         id="path28919"
         style="stroke-width:0.999998" />
    </clipPath>
    <clipPath
       clipPathUnits="userSpaceOnUse"
       id="clipPath28921">
      <path
         d="M -540.8213,585.8483 H 55.454702 V -9.4277 H -540.8213 Z"
         id="path28923"
         style="stroke-width:0.999998" />
    </clipPath>
    <clipPath
       clipPathUnits="userSpaceOnUse"
       id="clipPath28925">
      <path
         d="M -536.6982,584.5729 H 59.577802 V -10.7031 H -536.6982 Z"
         id="path28927"
         style="stroke-width:0.999998" />
    </clipPath>
    <clipPath
       clipPathUnits="userSpaceOnUse"
       id="clipPath28929">
      <path
         d="M -528.0898,575.3815 H 68.186202 V -19.8945 H -528.0898 Z"
         id="path28931"
         style="stroke-width:0.999998" />
    </clipPath>
    <clipPath
       clipPathUnits="userSpaceOnUse"
       id="clipPath28933">
      <path
         d="M -531.1924,581.5885 H 65.083602 V -13.6875 H -531.1924 Z"
         id="path28935"
         style="stroke-width:0.999998" />
    </clipPath>
    <clipPath
       clipPathUnits="userSpaceOnUse"
       id="clipPath29051">
      <path
         d="m -456.2314,139.0431 h 596.276 v -595.276 h -596.276 z"
         id="path29053"
         style="stroke-width:0.999998" />
    </clipPath>
  </defs>
  <sodipodi:namedview
     id="namedview28502"
     pagecolor="#ffffff"
     bordercolor="#000000"
     borderopacity="0.25"
     inkscape:showpageshadow="2"
     inkscape:pageopacity="0.0"
     inkscape:pagecheckerboard="0"
     inkscape:deskcolor="#d1d1d1"
     showgrid="false"
     inkscape:zoom="0.29734106"
     inkscape:cx="-215.24105"
     inkscape:cy="396.85068"
     inkscape:window-width="1419"
     inkscape:window-height="456"
     inkscape:window-x="0"
     inkscape:window-y="25"
     inkscape:window-maximized="0"
     inkscape:current-layer="svg28500">
    <inkscape:page
       x="0"
       y="0"
       id="page28506"
       width="795.03467"
       height="793.70135" />
  </sodipodi:namedview>
  <path
     d="M 608.309 185.391 C 544.577 121.66 473.071 70.454 396.851 31.7301 C 320.631 70.454 249.125 121.662 185.393 185.394 C 121.661 249.124 70.4517 320.632 31.7304 396.852 C 70.4543 473.07 121.666 544.575 185.394 608.31 C 227.399 650.315 272.802 686.846 320.686 717.982 C 328.514 714.318 336.271 710.544 343.948 706.651 C 419.757 668.132 490.879 617.203 554.277 553.807 C 602.513 505.57 643.514 452.852 677.339 397.005 C 643.424 340.872 602.268 287.889 553.806 239.427 C 505.571 191.191 452.853 150.188 397.01 116.363 C 340.876 150.279 287.89 191.435 239.426 239.896 C 191.189 288.136 150.189 340.856 116.362 396.7 C 150.277 452.834 191.437 505.816 239.894 554.279 C 268.671 583.053 299.048 609.234 330.723 632.878 C 392.46 597.346 450.604 553.222 503.389 500.438 C 535.831 467.996 564.998 433.529 590.914 397.45 C 557.678 350.581 519.549 307.2 477.409 268.147 C 452.141 244.728 425.408 222.896 397.431 202.795 C 359.852 229.444 323.991 259.591 290.314 293.268 C 257.871 325.711 228.702 360.18 202.782 396.26 C 229.434 433.844 259.586 469.709 293.267 503.39 C 307.327 517.448 321.776 530.875 336.562 543.711 C 377.358 515.573 416.201 483.373 452.504 447.068 C 468.589 430.985 483.863 414.396 498.343 397.366 C 482.265 378.063 465.18 359.312 447.068 341.197 C 430.983 325.115 414.395 309.841 397.366 295.36 C 360.559 326.016 326.387 359.845 295.359 396.341 C 308.996 412.714 323.364 428.682 338.464 444.204 C 356.314 429.292 373.678 413.51 390.508 396.857 C 391.571 397.909 392.642 398.944 393.7 400.001 C 394.744 401.045 395.77 402.1 396.807 403.149 C 377.996 421.764 358.327 439.51 337.852 456.277 C 318.704 436.966 300.69 416.956 283.811 396.325 C 318.131 355.427 356.091 317.565 397.311 283.66 C 416.571 299.74 435.28 316.82 453.364 334.904 C 473.463 355.005 492.316 375.88 509.941 397.426 C 493.891 416.646 476.845 435.318 458.799 453.365 C 420.429 491.732 379.248 525.575 335.93 554.925 C 319.164 540.613 302.824 525.539 286.97 509.685 C 251.393 474.108 219.701 436.11 191.877 396.233 C 218.985 357.885 249.689 321.303 284.016 286.972 C 319.6 251.391 357.6 219.7 397.478 191.875 C 410.047 200.758 422.371 209.984 434.427 219.55 C 498.815 271.127 554.392 330.633 601.774 397.63 C 531.263 497.941 437.967 583.925 330.408 643.745 C 296.579 618.886 264.197 591.167 233.601 560.573 C 183.303 510.272 140.782 455.138 105.981 396.688 C 124.844 365.091 145.79 334.739 168.663 305.905 C 204.238 261.057 244.409 219.84 288.303 183.094 C 322.407 154.544 358.79 128.73 397.004 105.974 C 428.604 124.84 458.961 145.787 487.797 168.663 C 532.645 204.24 573.862 244.41 610.609 288.305 C 639.152 322.403 664.966 358.777 687.718 396.984 C 653.001 455.152 610.646 510.024 560.57 560.102 C 496.503 624.167 424.611 675.654 347.98 714.586 C 341.871 717.684 335.71 720.703 329.508 723.656 C 351.48 737.55 373.948 750.335 396.852 761.974 C 473.071 723.247 544.577 672.039 608.31 608.307 C 672.04 544.575 723.247 473.07 761.973 396.85 C 723.247 320.631 672.04 249.124 608.309 185.391"
     style="fill:#000000;fill-opacity:1;fill-rule:nonzero;stroke:none"
     id="path28620" />
</svg>
