<?xml version="1.0" encoding="UTF-8" standalone="no"?>
<!-- Created with Inkscape (http://www.inkscape.org/) -->

<svg
   sodipodi:docname="Raikou Inazuma.svg"
   viewBox="0 0 795.03467 793.70135"
   height="793.70135"
   width="795.03467"
   id="svg25165"
   version="1.1"
   inkscape:version="1.2 (dc2aeda, 2022-05-15)"
   xmlns:inkscape="http://www.inkscape.org/namespaces/inkscape"
   xmlns:sodipodi="http://sodipodi.sourceforge.net/DTD/sodipodi-0.dtd"
   xmlns="http://www.w3.org/2000/svg"
   xmlns:svg="http://www.w3.org/2000/svg">
  <defs
     id="defs25169">
    <clipPath
       clipPathUnits="userSpaceOnUse"
       id="clipPath25594">
      <path
         d="M -538.2217,577.9479 H 58.054302 V -17.3281 H -538.2217 Z"
         id="path25596"
         style="stroke-width:0.999998" />
    </clipPath>
    <clipPath
       clipPathUnits="userSpaceOnUse"
       id="clipPath25598">
      <path
         d="M -584.1943,578.9381 H 12.081702 V -16.3379 H -584.1943 Z"
         id="path25600"
         style="stroke-width:0.999998" />
    </clipPath>
    <clipPath
       clipPathUnits="userSpaceOnUse"
       id="clipPath25602">
      <path
         d="M -586.5449,579.5026 H 9.7311024 V -15.7734 H -586.5449 Z"
         id="path25604"
         style="stroke-width:0.999998" />
    </clipPath>
    <clipPath
       clipPathUnits="userSpaceOnUse"
       id="clipPath25606">
      <path
         d="M -556.4014,578.0143 H 39.874602 V -17.2617 H -556.4014 Z"
         id="path25608"
         style="stroke-width:0.999998" />
    </clipPath>
    <clipPath
       clipPathUnits="userSpaceOnUse"
       id="clipPath25610">
      <path
         d="M -550.2637,577.3248 H 46.012302 V -17.9512 H -550.2637 Z"
         id="path25612"
         style="stroke-width:0.999998" />
    </clipPath>
    <clipPath
       clipPathUnits="userSpaceOnUse"
       id="clipPath25614">
      <path
         d="M -568.2266,575.819 H 28.049402 V -19.457 H -568.2266 Z"
         id="path25616"
         style="stroke-width:0.999998" />
    </clipPath>
    <clipPath
       clipPathUnits="userSpaceOnUse"
       id="clipPath25618">
      <path
         d="M -557.4951,577.8502 H 38.780902 V -17.4258 H -557.4951 Z"
         id="path25620"
         style="stroke-width:0.999998" />
    </clipPath>
    <clipPath
       clipPathUnits="userSpaceOnUse"
       id="clipPath25622">
      <path
         d="M -576.3691,585.5885 H 19.906902 V -9.6875 H -576.3691 Z"
         id="path25624"
         style="stroke-width:0.999998" />
    </clipPath>
    <clipPath
       clipPathUnits="userSpaceOnUse"
       id="clipPath25626">
      <path
         d="M -574.5459,585.8522 H 21.730102 V -9.4238 H -574.5459 Z"
         id="path25628"
         style="stroke-width:0.999998" />
    </clipPath>
    <clipPath
       clipPathUnits="userSpaceOnUse"
       id="clipPath25630">
      <path
         d="M -572.8174,586.1354 H 23.458602 V -9.1406 H -572.8174 Z"
         id="path25632"
         style="stroke-width:0.999998" />
    </clipPath>
    <clipPath
       clipPathUnits="userSpaceOnUse"
       id="clipPath25634">
      <path
         d="M -567.7754,585.8522 H 28.500602 V -9.4238 H -567.7754 Z"
         id="path25636"
         style="stroke-width:0.999998" />
    </clipPath>
    <clipPath
       clipPathUnits="userSpaceOnUse"
       id="clipPath25638">
      <path
         d="M -564.5732,585.8483 H 31.702802 V -9.4277 H -564.5732 Z"
         id="path25640"
         style="stroke-width:0.999998" />
    </clipPath>
    <clipPath
       clipPathUnits="userSpaceOnUse"
       id="clipPath25642">
      <path
         d="M -561.4131,585.8522 H 34.862902 V -9.4238 H -561.4131 Z"
         id="path25644"
         style="stroke-width:0.999998" />
    </clipPath>
    <clipPath
       clipPathUnits="userSpaceOnUse"
       id="clipPath25646">
      <path
         d="M -557.0645,585.8483 H 39.211502 V -9.4277 H -557.0645 Z"
         id="path25648"
         style="stroke-width:0.999998" />
    </clipPath>
    <clipPath
       clipPathUnits="userSpaceOnUse"
       id="clipPath25650">
      <path
         d="M -553.8975,585.8483 H 42.378502 V -9.4277 H -553.8975 Z"
         id="path25652"
         style="stroke-width:0.999998" />
    </clipPath>
    <clipPath
       clipPathUnits="userSpaceOnUse"
       id="clipPath25654">
      <path
         d="M -548.9834,585.8522 H 47.292602 V -9.4238 H -548.9834 Z"
         id="path25656"
         style="stroke-width:0.999998" />
    </clipPath>
    <clipPath
       clipPathUnits="userSpaceOnUse"
       id="clipPath25658">
      <path
         d="M -545.417,584.5729 H 50.859002 V -10.7031 H -545.417 Z"
         id="path25660"
         style="stroke-width:0.999998" />
    </clipPath>
    <clipPath
       clipPathUnits="userSpaceOnUse"
       id="clipPath25662">
      <path
         d="M -542.9326,584.5729 H 53.343402 V -10.7031 H -542.9326 Z"
         id="path25664"
         style="stroke-width:0.999998" />
    </clipPath>
    <clipPath
       clipPathUnits="userSpaceOnUse"
       id="clipPath25666">
      <path
         d="M -540.8213,585.8483 H 55.454702 V -9.4277 H -540.8213 Z"
         id="path25668"
         style="stroke-width:0.999998" />
    </clipPath>
    <clipPath
       clipPathUnits="userSpaceOnUse"
       id="clipPath25670">
      <path
         d="M -536.6982,584.5729 H 59.577802 V -10.7031 H -536.6982 Z"
         id="path25672"
         style="stroke-width:0.999998" />
    </clipPath>
    <clipPath
       clipPathUnits="userSpaceOnUse"
       id="clipPath25674">
      <path
         d="M -528.0898,575.3815 H 68.186202 V -19.8945 H -528.0898 Z"
         id="path25676"
         style="stroke-width:0.999998" />
    </clipPath>
    <clipPath
       clipPathUnits="userSpaceOnUse"
       id="clipPath25678">
      <path
         d="M -531.1924,581.5885 H 65.083602 V -13.6875 H -531.1924 Z"
         id="path25680"
         style="stroke-width:0.999998" />
    </clipPath>
    <clipPath
       clipPathUnits="userSpaceOnUse"
       id="clipPath25876">
      <path
         d="m -223.0176,240.0148 h 596.276 v -595.276 h -596.276 z"
         id="path25878"
         style="stroke-width:0.999998" />
    </clipPath>
    <clipPath
       clipPathUnits="userSpaceOnUse"
       id="clipPath25882">
      <path
         d="m -357.6328,420.9655 h 596.276 v -595.276 h -596.276 z"
         id="path25884"
         style="stroke-width:0.999998" />
    </clipPath>
    <clipPath
       clipPathUnits="userSpaceOnUse"
       id="clipPath25889">
      <path
         d="m -428.8467,299.8229 h 596.276 v -595.276 h -596.276 z"
         id="path25891"
         style="stroke-width:0.999998" />
    </clipPath>
    <clipPath
       clipPathUnits="userSpaceOnUse"
       id="clipPath25895">
      <path
         d="m -237.6426,420.9655 h 596.276 v -595.276 h -596.276 z"
         id="path25897"
         style="stroke-width:0.999998" />
    </clipPath>
    <clipPath
       clipPathUnits="userSpaceOnUse"
       id="clipPath25901">
      <path
         d="m -329.1416,272.2047 h 596.276 v -595.276 h -596.276 z"
         id="path25903"
         style="stroke-width:0.999998" />
    </clipPath>
    <clipPath
       clipPathUnits="userSpaceOnUse"
       id="clipPath25907">
      <path
         d="m -272.9082,325.1901 h 596.276 v -595.276 h -596.276 z"
         id="path25909"
         style="stroke-width:0.999998" />
    </clipPath>
    <clipPath
       clipPathUnits="userSpaceOnUse"
       id="clipPath25913">
      <path
         d="m -166.4297,299.8229 h 596.276 v -595.276 h -596.276 z"
         id="path25915"
         style="stroke-width:0.999998" />
    </clipPath>
  </defs>
  <sodipodi:namedview
     id="namedview25167"
     pagecolor="#ffffff"
     bordercolor="#000000"
     borderopacity="0.25"
     inkscape:showpageshadow="2"
     inkscape:pageopacity="0.0"
     inkscape:pagecheckerboard="0"
     inkscape:deskcolor="#d1d1d1"
     showgrid="false"
     inkscape:zoom="0.29734106"
     inkscape:cx="-215.24105"
     inkscape:cy="396.85068"
     inkscape:window-width="1419"
     inkscape:window-height="456"
     inkscape:window-x="0"
     inkscape:window-y="25"
     inkscape:window-maximized="0"
     inkscape:current-layer="svg25165">
    <inkscape:page
       x="0"
       y="0"
       id="page25171"
       width="795.03467"
       height="793.70135" />
  </sodipodi:namedview>
  <path
     d="M 221.906 399.764 L 214.901 404.993 L 214.901 404.993 L 251.162 432.067 L 291.922 401.633 L 217.406 345.996 L 142.896 401.636 L 244.345 477.386 L 345.791 401.636 L 217.409 305.775 L 89.029 401.636 L 321.198 574.982 L 284.454 602.419 L 358.45 657.67 L 324.602 683.862 L 366.426 716.682 L 291.942 683.646 L 315.211 660.378 L 237.585 602.419 L 274.327 574.982 L 42.1638 401.639 L 217.414 270.783 L 392.659 401.639 L 247.851 509.764 L 103.037 401.636 L 217.411 316.234 L 331.783 401.636 L 244.345 466.928 L 156.902 401.636 L 217.406 356.459 L 277.914 401.633 L 251.162 421.608 Z"
     style="fill:#000000;fill-opacity:1;fill-rule:nonzero;stroke:none"
     id="path25285" />
  <path
     d="M 363.878 433.587 L 396.855 691.748 L 429.831 433.592 L 396.85 408.967 Z"
     style="fill:#000000;fill-opacity:1;fill-rule:nonzero;stroke:none"
     id="path25289" />
  <path
     d="M 438.855 362.94 L 475.379 77.0234 L 396.855 133.958 L 318.331 77.0234 L 354.857 362.953 L 396.848 394.308 Z"
     style="fill:#000000;fill-opacity:1;fill-rule:nonzero;stroke:none"
     id="path25293" />
  <path
     d="M 297.357 320.02 L 242.069 91.0566 L 188.959 172.215 L 95.3108 146.966 L 173.472 293.135 L 217.412 260.327 Z"
     style="fill:#000000;fill-opacity:1;fill-rule:nonzero;stroke:none"
     id="path25297" />
  <path
     d="M 316.857 561.287 L 335.201 574.982 L 327.326 580.866 L 365.696 652.62 L 372.294 657.549 L 369.492 659.719 L 387.533 693.461 L 330.753 458.318 L 281.474 495.115 Z"
     style="fill:#000000;fill-opacity:1;fill-rule:nonzero;stroke:none"
     id="path25301" />
  <path
     d="M 571.796 399.764 L 578.8 404.993 L 578.8 404.993 L 542.539 432.067 L 501.778 401.633 L 576.296 345.996 L 650.805 401.636 L 549.356 477.386 L 447.911 401.636 L 576.291 305.775 L 704.672 401.636 L 472.504 574.982 L 509.248 602.419 L 435.252 657.67 L 469.099 683.862 L 427.274 716.682 L 501.759 683.646 L 478.491 660.378 L 556.116 602.419 L 519.373 574.982 L 751.537 401.639 L 576.285 270.783 L 401.042 401.639 L 545.848 509.764 L 690.664 401.636 L 576.289 316.234 L 461.919 401.636 L 549.356 466.928 L 636.799 401.636 L 576.296 356.459 L 515.787 401.633 L 542.539 421.608 Z"
     style="fill:#000000;fill-opacity:1;fill-rule:nonzero;stroke:none"
     id="path25305" />
  <path
     d="m 496.34505,320.01974 55.28667,-228.963994 53.11199,81.158664 93.64533,-25.24933 -78.15866,146.16933 -43.94,-32.808 z"
     style="fill:#000000;fill-opacity:1;fill-rule:nonzero;stroke:none;stroke-width:1.33333"
     id="path25309" />
  <path
     d="M 476.844 561.287 L 458.5 574.982 L 466.376 580.866 L 428.005 652.62 L 421.407 657.549 L 424.211 659.719 L 406.168 693.461 L 462.948 458.318 L 512.227 495.115 Z"
     style="fill:#000000;fill-opacity:1;fill-rule:nonzero;stroke:none"
     id="path25313" />
</svg>
